<svg fill="none" height="32" viewBox="0 0 32 32" width="32" xmlns="http://www.w3.org/2000/svg" xmlns:xlink="http://www.w3.org/1999/xlink"><filter id="a" color-interpolation-filters="sRGB" filterUnits="userSpaceOnUse" height="28.875" width="28.875" x="1.934" y="1.063"><feFlood flood-opacity="0" result="BackgroundImageFix"/><feBlend in="SourceGraphic" in2="BackgroundImageFix" mode="normal" result="shape"/><feColorMatrix in="SourceAlpha" result="hardAlpha" type="matrix" values="0 0 0 0 0 0 0 0 0 0 0 0 0 0 0 0 0 0 127 0"/><feOffset dx="1" dy="-1"/><feGaussianBlur stdDeviation="1.5"/><feComposite in2="hardAlpha" k2="-1" k3="1" operator="arithmetic"/><feColorMatrix type="matrix" values="0 0 0 0 0.188235 0 0 0 0 0.470588 0 0 0 0 0.843137 0 0 0 1 0"/><feBlend in2="shape" mode="normal" result="effect1_innerShadow_18590_2185"/><feColorMatrix in="SourceAlpha" result="hardAlpha" type="matrix" values="0 0 0 0 0 0 0 0 0 0 0 0 0 0 0 0 0 0 127 0"/><feOffset dy="-1"/><feGaussianBlur stdDeviation="1.5"/><feComposite in2="hardAlpha" k2="-1" k3="1" operator="arithmetic"/><feColorMatrix type="matrix" values="0 0 0 0 0.27451 0 0 0 0 0.34902 0 0 0 0 0.8 0 0 0 1 0"/><feBlend in2="effect1_innerShadow_18590_2185" mode="normal" result="effect2_innerShadow_18590_2185"/></filter><filter id="b" color-interpolation-filters="sRGB" filterUnits="userSpaceOnUse" height="28.375" width="5.5" x="25.372" y="1.813"><feFlood flood-opacity="0" result="BackgroundImageFix"/><feBlend in="SourceGraphic" in2="BackgroundImageFix" mode="normal" result="shape"/><feGaussianBlur result="effect1_foregroundBlur_18590_2185" stdDeviation="1"/></filter><filter id="c" color-interpolation-filters="sRGB" filterUnits="userSpaceOnUse" height="5.5" width="27.281" x="2.648" y="1.125"><feFlood flood-opacity="0" result="BackgroundImageFix"/><feBlend in="SourceGraphic" in2="BackgroundImageFix" mode="normal" result="shape"/><feGaussianBlur result="effect1_foregroundBlur_18590_2185" stdDeviation="1"/></filter><filter id="d" color-interpolation-filters="sRGB" filterUnits="userSpaceOnUse" height="18" width="16" x="7.872" y="6.516"><feFlood flood-opacity="0" result="BackgroundImageFix"/><feBlend in="SourceGraphic" in2="BackgroundImageFix" mode="normal" result="shape"/><feGaussianBlur result="effect1_foregroundBlur_18590_2185" stdDeviation=".5"/></filter><filter id="e" color-interpolation-filters="sRGB" filterUnits="userSpaceOnUse" height="17.4" width="15.4" x="7.872" y="7.116"><feFlood flood-opacity="0" result="BackgroundImageFix"/><feBlend in="SourceGraphic" in2="BackgroundImageFix" mode="normal" result="shape"/><feColorMatrix in="SourceAlpha" result="hardAlpha" type="matrix" values="0 0 0 0 0 0 0 0 0 0 0 0 0 0 0 0 0 0 127 0"/><feOffset dx="-1" dy="1"/><feGaussianBlur stdDeviation="1"/><feComposite in2="hardAlpha" k2="-1" k3="1" operator="arithmetic"/><feColorMatrix type="matrix" values="0 0 0 0 0.866667 0 0 0 0 0.819608 0 0 0 0 0.941176 0 0 0 1 0"/><feBlend in2="shape" mode="normal" result="effect1_innerShadow_18590_2185"/><feColorMatrix in="SourceAlpha" result="hardAlpha" type="matrix" values="0 0 0 0 0 0 0 0 0 0 0 0 0 0 0 0 0 0 127 0"/><feOffset dx=".4" dy="-.4"/><feGaussianBlur stdDeviation=".5"/><feComposite in2="hardAlpha" k2="-1" k3="1" operator="arithmetic"/><feColorMatrix type="matrix" values="0 0 0 0 1 0 0 0 0 0.988235 0 0 0 0 1 0 0 0 1 0"/><feBlend in2="effect1_innerShadow_18590_2185" mode="normal" result="effect2_innerShadow_18590_2185"/></filter><linearGradient id="f" gradientUnits="userSpaceOnUse" x1="15.872" x2="15.872" y1="5.637" y2="38.89"><stop offset="0" stop-color="#5cb7ff"/><stop offset="1" stop-color="#4878dd"/></linearGradient><radialGradient id="g" cx="0" cy="0" gradientTransform="matrix(-1.56248628 1.46876123 -1.71548166 -1.82495051 27.5906 4.15625)" gradientUnits="userSpaceOnUse" r="1"><stop offset="0" stop-color="#7bd7ff"/><stop offset="1" stop-color="#7bd7ff" stop-opacity="0"/></radialGradient><linearGradient id="h" gradientUnits="userSpaceOnUse" x1="28.622" x2="28.622" y1="4.563" y2="27.438"><stop offset="0" stop-color="#7fd9ff"/><stop offset="1" stop-color="#639df4"/></linearGradient><linearGradient id="i" gradientUnits="userSpaceOnUse" x1="28.336" x2="2.804" y1="4.125" y2="4.125"><stop offset="0" stop-color="#7dd8ff"/><stop offset="1" stop-color="#5db6ff"/></linearGradient><g filter="url(#a)"><rect fill="url(#f)" height="27.875" rx="3.6" width="27.875" x="1.934" y="2.063"/><rect fill="url(#g)" height="27.875" rx="3.6" width="27.875" x="1.934" y="2.063"/></g><g filter="url(#b)"><path d="m28.1218 4.5625v22.875" stroke="url(#h)" stroke-linecap="round" stroke-width="1.5"/></g><g filter="url(#c)"><path d="m5.39819 3.875h21.78121" stroke="url(#i)" stroke-linecap="round" stroke-width="1.5"/></g><g filter="url(#d)"><path d="m12.2841 8.91932c.0493-.78901.7036-1.4037 1.4942-1.4037.8635 0 1.548.7286 1.4941 1.59047l-.134 2.14391c-.009.144.1053.2656.2495.2656h1.4991c.132 0 .2412-.1026.2495-.2344l.1476-2.36188c.0493-.78901.7036-1.4037 1.4942-1.4037.8635 0 1.548.7286 1.4941 1.59047l-.134 2.14391c-.009.144.1053.2656.2495.2656h.9839c.8285 0 1.5.6716 1.5 1.5 0 .8285-.6715 1.5-1.5 1.5h-1.2026c-.132 0-.2413.1027-.2495.2344l-.0938 1.5c-.009.144.1053.2656.2495.2656h1.2964c.8285 0 1.5.6716 1.5 1.5 0 .8285-.6715 1.5-1.5 1.5h-1.5151c-.132 0-.2413.1027-.2495.2344l-.1476 2.3619c-.0494.789-.7037 1.4037-1.4942 1.4037-.8636 0-1.548-.7286-1.4942-1.5904l.134-2.144c.009-.1439-.1053-.2656-.2495-.2656h-1.499c-.132 0-.2413.1027-.2495.2344l-.1476 2.3619c-.0494.789-.7037 1.4037-1.4942 1.4037-.8636 0-1.548-.7286-1.4942-1.5904l.134-2.144c.009-.1439-.1053-.2656-.2495-.2656h-.9839c-.8284 0-1.49997-.6715-1.49997-1.5 0-.8284.67157-1.5 1.49997-1.5h1.2027c.132 0 .2412-.1026.2495-.2344l.0937-1.5c.009-.1439-.1053-.2656-.2495-.2656h-1.2964c-.8284 0-1.49997-.6715-1.49997-1.5 0-.8284.67157-1.5 1.49997-1.5h1.5152c.132 0 .2412-.1026.2495-.2344zm4.2904 7.59628c.132 0 .2412-.1026.2495-.2344l.0937-1.5c.009-.1439-.1053-.2656-.2495-.2656h-1.499c-.132 0-.2413.1027-.2495.2344l-.0938 1.5c-.009.144.1053.2656.2495.2656z" fill="#579fff"/></g><g filter="url(#e)"><path d="m12.2841 8.91932c.0493-.78901.7036-1.4037 1.4942-1.4037.8635 0 1.548.7286 1.4941 1.59047l-.134 2.14391c-.009.144.1053.2656.2495.2656h1.4991c.132 0 .2412-.1026.2495-.2344l.1476-2.36188c.0493-.78901.7036-1.4037 1.4942-1.4037.8635 0 1.548.7286 1.4941 1.59047l-.134 2.14391c-.009.144.1053.2656.2495.2656h.9839c.8285 0 1.5.6716 1.5 1.5 0 .8285-.6715 1.5-1.5 1.5h-1.2026c-.132 0-.2413.1027-.2495.2344l-.0938 1.5c-.009.144.1053.2656.2495.2656h1.2964c.8285 0 1.5.6716 1.5 1.5 0 .8285-.6715 1.5-1.5 1.5h-1.5151c-.132 0-.2413.1027-.2495.2344l-.1476 2.3619c-.0494.789-.7037 1.4037-1.4942 1.4037-.8636 0-1.548-.7286-1.4942-1.5904l.134-2.144c.009-.1439-.1053-.2656-.2495-.2656h-1.499c-.132 0-.2413.1027-.2495.2344l-.1476 2.3619c-.0494.789-.7037 1.4037-1.4942 1.4037-.8636 0-1.548-.7286-1.4942-1.5904l.134-2.144c.009-.1439-.1053-.2656-.2495-.2656h-.9839c-.8284 0-1.49997-.6715-1.49997-1.5 0-.8284.67157-1.5 1.49997-1.5h1.2027c.132 0 .2412-.1026.2495-.2344l.0937-1.5c.009-.1439-.1053-.2656-.2495-.2656h-1.2964c-.8284 0-1.49997-.6715-1.49997-1.5 0-.8284.67157-1.5 1.49997-1.5h1.5152c.132 0 .2412-.1026.2495-.2344zm4.2904 7.59628c.132 0 .2412-.1026.2495-.2344l.0937-1.5c.009-.1439-.1053-.2656-.2495-.2656h-1.499c-.132 0-.2413.1027-.2495.2344l-.0938 1.5c-.009.144.1053.2656.2495.2656z" fill="#fcf2ff"/></g></svg>