<svg fill="none" height="32" viewBox="0 0 32 32" width="32" xmlns="http://www.w3.org/2000/svg" xmlns:xlink="http://www.w3.org/1999/xlink"><filter id="a" color-interpolation-filters="sRGB" filterUnits="userSpaceOnUse" height="29.375" width="29.375" x="1.379" y="1.063"><feFlood flood-opacity="0" result="BackgroundImageFix"/><feBlend in="SourceGraphic" in2="BackgroundImageFix" mode="normal" result="shape"/><feColorMatrix in="SourceAlpha" result="hardAlpha" type="matrix" values="0 0 0 0 0 0 0 0 0 0 0 0 0 0 0 0 0 0 127 0"/><feOffset dx="1" dy="-1"/><feGaussianBlur stdDeviation="1.5"/><feComposite in2="hardAlpha" k2="-1" k3="1" operator="arithmetic"/><feColorMatrix type="matrix" values="0 0 0 0 0.992157 0 0 0 0 0.384314 0 0 0 0 0.164706 0 0 0 1 0"/><feBlend in2="shape" mode="normal" result="effect1_innerShadow_18590_2504"/><feColorMatrix in="SourceAlpha" result="hardAlpha" type="matrix" values="0 0 0 0 0 0 0 0 0 0 0 0 0 0 0 0 0 0 127 0"/><feOffset dy="-1"/><feGaussianBlur stdDeviation="1.5"/><feComposite in2="hardAlpha" k2="-1" k3="1" operator="arithmetic"/><feColorMatrix type="matrix" values="0 0 0 0 1 0 0 0 0 0.32549 0 0 0 0 0.168627 0 0 0 1 0"/><feBlend in2="effect1_innerShadow_18590_2504" mode="normal" result="effect2_innerShadow_18590_2504"/><feColorMatrix in="SourceAlpha" result="hardAlpha" type="matrix" values="0 0 0 0 0 0 0 0 0 0 0 0 0 0 0 0 0 0 127 0"/><feOffset dx="-.5" dy=".5"/><feGaussianBlur stdDeviation=".5"/><feComposite in2="hardAlpha" k2="-1" k3="1" operator="arithmetic"/><feColorMatrix type="matrix" values="0 0 0 0 1 0 0 0 0 0.741176 0 0 0 0 0.25098 0 0 0 1 0"/><feBlend in2="effect2_innerShadow_18590_2504" mode="normal" result="effect3_innerShadow_18590_2504"/></filter><filter id="b" color-interpolation-filters="sRGB" filterUnits="userSpaceOnUse" height="28.375" width="5.5" x="25.317" y="1.813"><feFlood flood-opacity="0" result="BackgroundImageFix"/><feBlend in="SourceGraphic" in2="BackgroundImageFix" mode="normal" result="shape"/><feGaussianBlur result="effect1_foregroundBlur_18590_2504" stdDeviation="1"/></filter><filter id="c" color-interpolation-filters="sRGB" filterUnits="userSpaceOnUse" height="5.5" width="27.281" x="2.593" y="1.125"><feFlood flood-opacity="0" result="BackgroundImageFix"/><feBlend in="SourceGraphic" in2="BackgroundImageFix" mode="normal" result="shape"/><feGaussianBlur result="effect1_foregroundBlur_18590_2504" stdDeviation="1"/></filter><filter id="d" color-interpolation-filters="sRGB" filterUnits="userSpaceOnUse" height="14.079" width="21.11" x="5.259" y="8.961"><feFlood flood-opacity="0" result="BackgroundImageFix"/><feBlend in="SourceGraphic" in2="BackgroundImageFix" mode="normal" result="shape"/><feGaussianBlur result="effect1_foregroundBlur_18590_2504" stdDeviation=".5"/></filter><filter id="e" color-interpolation-filters="sRGB" filterUnits="userSpaceOnUse" height="12.879" width="19.91" x="5.859" y="9.561"><feFlood flood-opacity="0" result="BackgroundImageFix"/><feBlend in="SourceGraphic" in2="BackgroundImageFix" mode="normal" result="shape"/><feColorMatrix in="SourceAlpha" result="hardAlpha" type="matrix" values="0 0 0 0 0 0 0 0 0 0 0 0 0 0 0 0 0 0 127 0"/><feOffset dx="-.4" dy=".4"/><feGaussianBlur stdDeviation=".375"/><feComposite in2="hardAlpha" k2="-1" k3="1" operator="arithmetic"/><feColorMatrix type="matrix" values="0 0 0 0 0.913725 0 0 0 0 0.886275 0 0 0 0 0.968627 0 0 0 1 0"/><feBlend in2="shape" mode="normal" result="effect1_innerShadow_18590_2504"/><feColorMatrix in="SourceAlpha" result="hardAlpha" type="matrix" values="0 0 0 0 0 0 0 0 0 0 0 0 0 0 0 0 0 0 127 0"/><feOffset dx=".4" dy="-.4"/><feGaussianBlur stdDeviation=".2"/><feComposite in2="hardAlpha" k2="-1" k3="1" operator="arithmetic"/><feColorMatrix type="matrix" values="0 0 0 0 1 0 0 0 0 0.988235 0 0 0 0 1 0 0 0 1 0"/><feBlend in2="effect1_innerShadow_18590_2504" mode="normal" result="effect2_innerShadow_18590_2504"/></filter><linearGradient id="f" gradientUnits="userSpaceOnUse" x1="15.817" x2="15.817" y1="5.637" y2="38.89"><stop offset="0" stop-color="#ffa851"/><stop offset="1" stop-color="#ff7e50"/></linearGradient><radialGradient id="g" cx="0" cy="0" gradientTransform="matrix(-1.56248628 1.46876123 -1.71548166 -1.82495051 27.5356 4.15625)" gradientUnits="userSpaceOnUse" r="1"><stop offset="0" stop-color="#ffd774"/><stop offset="1" stop-color="#ff77b1" stop-opacity="0"/><stop offset="1" stop-color="#ffd774" stop-opacity="0"/></radialGradient><linearGradient id="h" gradientUnits="userSpaceOnUse" x1="28.567" x2="28.567" y1="4.563" y2="27.438"><stop offset="0" stop-color="#ffce69"/><stop offset="1" stop-color="#ff9c61"/></linearGradient><linearGradient id="i" gradientUnits="userSpaceOnUse" x1="28.281" x2="2.75" y1="4.125" y2="4.125"><stop offset="0" stop-color="#ffc85b"/><stop offset="1" stop-color="#ffb156"/></linearGradient><g filter="url(#a)"><rect fill="url(#f)" height="27.875" rx="3.6" width="27.875" x="1.879" y="2.063"/><rect fill="url(#g)" height="27.875" rx="3.6" width="27.875" x="1.879" y="2.063"/></g><g filter="url(#b)"><path d="m28.0669 4.5625v22.875" stroke="url(#h)" stroke-linecap="round" stroke-width="1.5"/></g><g filter="url(#c)"><path d="m5.34326 3.875h21.78124" stroke="url(#i)" stroke-linecap="round" stroke-width="1.5"/></g><g fill="#ff8a53" filter="url(#d)"><path d="m21.4542 9.96069c-1.9983 0-3.6348 1.55681-3.6922 3.29071-.0349 1.0533.4346 1.8964 1.1816 2.5181.7085.5897 1.6706.9897 2.7224 1.2819.9376.2604 1.3741.6719 1.5485 1.0026.1639.3108.1822.7103-.0658 1.1879-.2016.3884-.5807.7134-1.1347.783-.5662.0712-1.494-.1046-2.7854-1.1109-.4357-.3395-1.064-.2615-1.4035.1741-.3394.4357-.2615 1.064.1742 1.4035 1.5488 1.2068 2.9968 1.6769 4.264 1.5177 1.2793-.1607 2.1913-.9423 2.6604-1.8457.4989-.9609.578-2.06.0599-3.0425-.5076-.9627-1.4959-1.6394-2.7823-1.9967-.94-.2611-1.587-.5665-1.9783-.8921-.3527-.2936-.4733-.5755-.4621-.9147.0183-.5518.6668-1.3569 1.6933-1.3569.3763 0 .8207.1435 1.265.3804.4366.2328.7901.5113.9612.6735.401.3798 1.0339.3627 1.4137-.0383.3799-.4009.3628-1.0338-.0382-1.4137-.2961-.2805-.7947-.6659-1.3958-.9864-.5934-.3164-1.3724-.61551-2.2059-.61551z"/><path d="m8.19106 10.6145c-.19982-.5149-.77919-.77026-1.29406-.5704-.51487.1998-.77026.7792-.57044 1.294l3.87504 9.9844c.1483.3822.5148.6351.9248.6382.4099.003.7802-.2444.9342-.6244l4.0469-9.9843c.2074-.5119-.0393-1.095-.5512-1.3024-.5118-.20751-1.0949.0392-1.3024.5511l-3.0052 7.4145c-.034.0839-.1532.083-.1859-.0014z"/></g><g fill="#fcf2ff" filter="url(#e)"><path d="m21.4542 9.96069c-1.9983 0-3.6348 1.55681-3.6922 3.29071-.0349 1.0533.4346 1.8964 1.1816 2.5181.7085.5897 1.6706.9897 2.7224 1.2819.9376.2604 1.3741.6719 1.5485 1.0026.1639.3108.1822.7103-.0658 1.1879-.2016.3884-.5807.7134-1.1347.783-.5662.0712-1.494-.1046-2.7854-1.1109-.4357-.3395-1.064-.2615-1.4035.1741-.3394.4357-.2615 1.064.1742 1.4035 1.5488 1.2068 2.9968 1.6769 4.264 1.5177 1.2793-.1607 2.1913-.9423 2.6604-1.8457.4989-.9609.578-2.06.0599-3.0425-.5076-.9627-1.4959-1.6394-2.7823-1.9967-.94-.2611-1.587-.5665-1.9783-.8921-.3527-.2936-.4733-.5755-.4621-.9147.0183-.5518.6668-1.3569 1.6933-1.3569.3763 0 .8207.1435 1.265.3804.4366.2328.7901.5113.9612.6735.401.3798 1.0339.3627 1.4137-.0383.3799-.4009.3628-1.0338-.0382-1.4137-.2961-.2805-.7947-.6659-1.3958-.9864-.5934-.3164-1.3724-.61551-2.2059-.61551z"/><path d="m8.19106 10.6145c-.19982-.5149-.77919-.77026-1.29406-.5704-.51487.1998-.77026.7792-.57044 1.294l3.87504 9.9844c.1483.3822.5148.6351.9248.6382.4099.003.7802-.2444.9342-.6244l4.0469-9.9843c.2074-.5119-.0393-1.095-.5512-1.3024-.5118-.20751-1.0949.0392-1.3024.5511l-3.0052 7.4145c-.034.0839-.1532.083-.1859-.0014z"/></g></svg>