<svg fill="none" height="32" viewBox="0 0 32 32" width="32" xmlns="http://www.w3.org/2000/svg" xmlns:xlink="http://www.w3.org/1999/xlink"><filter id="a" color-interpolation-filters="sRGB" filterUnits="userSpaceOnUse" height="6" width="6" x="19.5" y="8.5"><feFlood flood-opacity="0" result="BackgroundImageFix"/><feBlend in="SourceGraphic" in2="BackgroundImageFix" mode="normal" result="shape"/><feGaussianBlur result="effect1_foregroundBlur_18_13980" stdDeviation=".15"/></filter><filter id="b" color-interpolation-filters="sRGB" filterUnits="userSpaceOnUse" height="6.614" width="5.707" x="23.55" y="20.55"><feFlood flood-opacity="0" result="BackgroundImageFix"/><feBlend in="SourceGraphic" in2="BackgroundImageFix" mode="normal" result="shape"/><feGaussianBlur result="effect1_foregroundBlur_18_13980" stdDeviation=".15"/></filter><filter id="c" color-interpolation-filters="sRGB" filterUnits="userSpaceOnUse" height="7.8" width="7.8" x="5.6" y="8.6"><feFlood flood-opacity="0" result="BackgroundImageFix"/><feBlend in="SourceGraphic" in2="BackgroundImageFix" mode="normal" result="shape"/><feGaussianBlur result="effect1_foregroundBlur_18_13980" stdDeviation=".15"/></filter><filter id="d" color-interpolation-filters="sRGB" filterUnits="userSpaceOnUse" height="5.512" width="5.513" x="13.244" y="18.744"><feFlood flood-opacity="0" result="BackgroundImageFix"/><feBlend in="SourceGraphic" in2="BackgroundImageFix" mode="normal" result="shape"/><feGaussianBlur result="effect1_foregroundBlur_18_13980" stdDeviation=".1"/></filter><filter id="e" color-interpolation-filters="sRGB" filterUnits="userSpaceOnUse" height="6.285" width="6.717" x="4.608" y="22.674"><feFlood flood-opacity="0" result="BackgroundImageFix"/><feBlend in="SourceGraphic" in2="BackgroundImageFix" mode="normal" result="shape"/><feGaussianBlur result="effect1_foregroundBlur_18_13980" stdDeviation=".1"/></filter><filter id="f" color-interpolation-filters="sRGB" filterUnits="userSpaceOnUse" height="3.7" width="4.148" x="13.025" y="3.65"><feFlood flood-opacity="0" result="BackgroundImageFix"/><feBlend in="SourceGraphic" in2="BackgroundImageFix" mode="normal" result="shape"/><feGaussianBlur result="effect1_foregroundBlur_18_13980" stdDeviation=".1"/></filter><radialGradient id="g" cx="0" cy="0" gradientTransform="matrix(-11.5000486 13.87501841 -14.28577248 -11.8404944 23.875 10.698)" gradientUnits="userSpaceOnUse" r="1"><stop offset="0" stop-color="#fffaac"/><stop offset="1" stop-color="#ffbd4d"/></radialGradient><radialGradient id="h" cx="0" cy="0" gradientTransform="matrix(-13.37493325 18.30199403 -25.53436709 -18.66028667 22 11.698)" gradientUnits="userSpaceOnUse" r="1"><stop offset=".46" stop-color="#d97850" stop-opacity="0"/><stop offset=".802" stop-color="#d97850"/></radialGradient><radialGradient id="i" cx="0" cy="0" gradientTransform="matrix(-27.4334052 -10.83452354 9.39415203 -23.78633249 30.875 19.823)" gradientUnits="userSpaceOnUse" r="1"><stop offset=".679" stop-color="#b69262" stop-opacity="0"/><stop offset="1" stop-color="#b69262"/></radialGradient><radialGradient id="j" cx="0" cy="0" gradientTransform="matrix(0 27.25 -20.9516 0 16 5.19803)" gradientUnits="userSpaceOnUse" r="1"><stop offset=".821" stop-color="#c3747f" stop-opacity="0"/><stop offset="1" stop-color="#c3747f"/></radialGradient><radialGradient id="k" cx="0" cy="0" gradientTransform="matrix(4.62370865 1.681348 -5.80289792 15.95797493 3.16136 9.96944)" gradientUnits="userSpaceOnUse" r="1"><stop offset="0" stop-color="#b48c4f"/><stop offset="1" stop-color="#b48c4f" stop-opacity="0"/></radialGradient><radialGradient id="l" cx="0" cy="0" gradientTransform="matrix(4.75000229 -5.12499456 5.12499456 4.75000229 7.0625 15.1355)" gradientUnits="userSpaceOnUse" r="1"><stop offset="0" stop-color="#f6b953"/><stop offset="1" stop-color="#d5a04b"/></radialGradient><radialGradient id="m" cx="0" cy="0" gradientTransform="matrix(-4.07919 0 0 -3.91074 10.0792 12.5)" gradientUnits="userSpaceOnUse" r="1"><stop offset=".894" stop-color="#ffc553" stop-opacity="0"/><stop offset="1" stop-color="#ffc553"/></radialGradient><radialGradient id="n" cx="0" cy="0" gradientTransform="matrix(5.37499879 -5.43750148 4.05277957 4.00619391 6.8125 15.1355)" gradientUnits="userSpaceOnUse" r="1"><stop offset=".636" stop-color="#bd8d44" stop-opacity="0"/><stop offset="1" stop-color="#bd8d44"/></radialGradient><radialGradient id="o" cx="0" cy="0" gradientTransform="matrix(5.62499585 -4.39545572 1.44644208 1.8510551 20 13.3955)" gradientUnits="userSpaceOnUse" r="1"><stop offset=".2" stop-color="#fff8b1"/><stop offset="1" stop-color="#ffd975"/></radialGradient><linearGradient id="p" gradientUnits="userSpaceOnUse" x1="20.577" x2="23.646" y1="9" y2="14"><stop offset="0" stop-color="#fff9ac"/><stop offset=".492" stop-color="#fff9ac" stop-opacity="0"/><stop offset="1" stop-color="#fff9ac"/></linearGradient><linearGradient id="q" gradientUnits="userSpaceOnUse" x1="27.982" x2="24.639" y1="20.656" y2="26.313"><stop offset="0" stop-color="#f5bd64"/><stop offset="1" stop-color="#ffdc75"/></linearGradient><linearGradient id="r" gradientUnits="userSpaceOnUse" x1="11.325" x2="6.934" y1="9.361" y2="15.057"><stop offset="0" stop-color="#e4ac50"/><stop offset="1" stop-color="#d79c38"/></linearGradient><radialGradient id="s" cx="0" cy="0" gradientTransform="matrix(-2.67835078 2.67835078 -3.19876723 -3.19876723 16.7925 20.7075)" gradientUnits="userSpaceOnUse" r="1"><stop offset=".252" stop-color="#f29e64"/><stop offset="1" stop-color="#ffd87e"/></radialGradient><radialGradient id="t" cx="0" cy="0" gradientTransform="matrix(3.15820548 -3.00781275 2.45095777 2.57350736 14.6465 22.9539)" gradientUnits="userSpaceOnUse" r="1"><stop offset=".837" stop-color="#e3915b" stop-opacity="0"/><stop offset="1" stop-color="#e3915b"/></radialGradient><linearGradient id="u" gradientUnits="userSpaceOnUse" x1="17.684" x2="13.949" y1="19.401" y2="23.191"><stop offset="0" stop-color="#fbac52"/><stop offset="1" stop-color="#ffb053"/></linearGradient><linearGradient id="v" gradientUnits="userSpaceOnUse" x1="10.375" x2="5.313" y1="27.948" y2="23.479"><stop offset="0" stop-color="#b36558"/><stop offset="1" stop-color="#b96779"/></linearGradient><linearGradient id="w" gradientUnits="userSpaceOnUse" x1="10.307" x2="5.964" y1="24.331" y2="26.993"><stop offset="0" stop-color="#bd6152"/><stop offset="1" stop-color="#ae6b71"/></linearGradient><radialGradient id="x" cx="0" cy="0" gradientTransform="matrix(-4.44699468 -3.35689556 2.03020196 -2.68947818 9.58399 27.0505)" gradientUnits="userSpaceOnUse" r="1"><stop offset=".888" stop-color="#af4c46" stop-opacity="0"/><stop offset="1" stop-color="#af4c46"/></radialGradient><linearGradient id="y" gradientUnits="userSpaceOnUse" x1="26.059" x2="25.915" y1="21.826" y2="25.986"><stop offset="0" stop-color="#ffd36a"/><stop offset="1" stop-color="#efb872"/></linearGradient><radialGradient id="z" cx="0" cy="0" gradientTransform="matrix(-.87214252 -5.64196952 4.67917477 -.72331254 27.3499 26.8226)" gradientUnits="userSpaceOnUse" r="1"><stop offset=".85" stop-color="#dfa14c" stop-opacity="0"/><stop offset="1" stop-color="#c28255"/></radialGradient><radialGradient id="A" cx="0" cy="0" gradientTransform="matrix(-2.56249507 3.96875589 -3.3776846 -2.18085979 27.1386 23.125)" gradientUnits="userSpaceOnUse" r="1"><stop offset=".718" stop-color="#ffe38a" stop-opacity="0"/><stop offset=".952" stop-color="#ffe38a"/></radialGradient><radialGradient id="B" cx="0" cy="0" gradientTransform="matrix(-3.00536 0 0 -3.27072 16.3804 5.5)" gradientUnits="userSpaceOnUse" r="1"><stop offset=".437" stop-color="#f3bb63"/><stop offset="1" stop-color="#fff3a5"/></radialGradient><radialGradient id="C" cx="0" cy="0" gradientTransform="matrix(2.75536 0 0 2.97042 14.0679 5.5)" gradientUnits="userSpaceOnUse" r="1"><stop offset=".639" stop-color="#cd9e56" stop-opacity="0"/><stop offset="1" stop-color="#cd9e56"/></radialGradient><linearGradient id="D" gradientUnits="userSpaceOnUse" x1="16.823" x2="15.643" y1="5.17" y2="5.17"><stop offset="0" stop-color="#fdc36b"/><stop offset="1" stop-color="#ffdd7b"/></linearGradient><circle cx="16" cy="16" fill="url(#g)" r="14"/><circle cx="16" cy="16" fill="url(#h)" r="14"/><circle cx="16" cy="16" fill="url(#i)" r="14"/><circle cx="16" cy="16" fill="url(#j)" r="14"/><circle cx="16" cy="16" fill="url(#k)" r="14"/><circle cx="9.5" cy="12.5" fill="url(#l)" r="3.5"/><circle cx="9.5" cy="12.5" fill="url(#m)" r="3.5"/><circle cx="9.5" cy="12.5" fill="url(#n)" r="3.5"/><g filter="url(#a)"><circle cx="22.5" cy="11.5" fill="url(#o)" r="2.5"/><circle cx="22.5" cy="11.5" r="2.6" stroke="url(#p)" stroke-width=".2"/></g><g filter="url(#b)"><path d="m28.7636 21.2344c-.8868 2.1588-2.2549 3.9624-4.0312 5.4218-.5485-.6179-.7324-1.265-.7324-2.1562 0-1.933 1.567-3.5 3.5-3.5.5193 0 .8204.0315 1.2636.2344z" stroke="url(#q)" stroke-width=".3"/></g><g filter="url(#c)"><circle cx="9.5" cy="12.5" r="3.5" stroke="url(#r)" stroke-width=".2"/></g><g filter="url(#d)"><circle cx="16" cy="21.5" fill="url(#s)" r="2.406"/><circle cx="16" cy="21.5" fill="url(#t)" r="2.406"/><circle cx="16" cy="21.5" r="2.481" stroke="url(#u)" stroke-width=".15"/></g><g filter="url(#e)"><path d="m10.3727 28.6357c-2.16556-.9894-4.03499-2.5146-5.43868-4.4062.64092-.8128 1.56049-1.2559 2.67591-1.2559 1.93299 0 3.32757 1.7245 3.41527 3.424 0 .8524-.146 1.631-.6525 2.2381z" stroke="url(#v)" stroke-width=".2"/></g><path d="m10.1888 28.7407c-2.16556-.9893-4.03499-2.5146-5.43868-4.4061.64092-.8128 1.63447-1.3346 2.74989-1.3346 1.93299 0 3.49999 1.567 3.49999 3.5 0 .8524-.3047 1.6336-.8112 2.2407z" fill="url(#w)"/><path d="m10.1888 28.7407c-2.16556-.9893-4.03499-2.5146-5.43868-4.4061.64092-.8128 1.63447-1.3346 2.74989-1.3346 1.93299 0 3.49999 1.567 3.49999 3.5 0 .8524-.3047 1.6336-.8112 2.2407z" fill="url(#x)"/><path d="m28.9554 21.316c-.8868 2.1588-2.2974 4.0471-4.0738 5.5066-.5485-.6179-.8816-1.4314-.8816-2.3226 0-1.933 1.567-3.5 3.5-3.5.5193 0 1.0122.1131 1.4554.316z" fill="url(#y)"/><path d="m28.9554 21.316c-.8868 2.1588-2.2974 4.0471-4.0738 5.5066-.5485-.6179-.8816-1.4314-.8816-2.3226 0-1.933 1.567-3.5 3.5-3.5.5193 0 1.0122.1131 1.4554.316z" fill="url(#z)"/><path d="m28.9554 21.316c-.8868 2.1588-2.2974 4.0471-4.0738 5.5066-.5485-.6179-.8816-1.4314-.8816-2.3226 0-1.933 1.567-3.5 3.5-3.5.5193 0 1.0122.1131 1.4554.316z" fill="url(#A)"/><g filter="url(#f)"><ellipse cx="15.099" cy="5.5" fill="url(#B)" rx="1.724" ry="1.5"/><ellipse cx="15.099" cy="5.5" fill="url(#C)" rx="1.724" ry="1.5"/><path d="m15.0991 7.075c.9835 0 1.7991-.69569 1.7991-1.575s-.8156-1.575-1.7991-1.575-1.7991.69569-1.7991 1.575.8156 1.575 1.7991 1.575z" stroke="url(#D)" stroke-width=".15"/></g></svg>