<svg fill="none" height="32" viewBox="0 0 32 32" width="32" xmlns="http://www.w3.org/2000/svg" xmlns:xlink="http://www.w3.org/1999/xlink"><filter id="a" color-interpolation-filters="sRGB" filterUnits="userSpaceOnUse" height="28.5" width="28.5" x="1.566" y="1.5"><feFlood flood-opacity="0" result="BackgroundImageFix"/><feBlend in="SourceGraphic" in2="BackgroundImageFix" mode="normal" result="shape"/><feColorMatrix in="SourceAlpha" result="hardAlpha" type="matrix" values="0 0 0 0 0 0 0 0 0 0 0 0 0 0 0 0 0 0 127 0"/><feOffset dx=".5" dy="-.5"/><feGaussianBlur stdDeviation=".5"/><feComposite in2="hardAlpha" k2="-1" k3="1" operator="arithmetic"/><feColorMatrix type="matrix" values="0 0 0 0 0.580392 0 0 0 0 0.509804 0 0 0 0 0.611765 0 0 0 1 0"/><feBlend in2="shape" mode="normal" result="effect1_innerShadow_18_15245"/></filter><filter id="b" color-interpolation-filters="sRGB" filterUnits="userSpaceOnUse" height="16.438" width="9.133" x="12.715" y="14.491"><feFlood flood-opacity="0" result="BackgroundImageFix"/><feBlend in="SourceGraphic" in2="BackgroundImageFix" mode="normal" result="shape"/><feGaussianBlur result="effect1_foregroundBlur_18_15245" stdDeviation=".75"/></filter><filter id="c" color-interpolation-filters="sRGB" filterUnits="userSpaceOnUse" height="5.938" width="12.996" x="3.581" y="3.668"><feFlood flood-opacity="0" result="BackgroundImageFix"/><feBlend in="SourceGraphic" in2="BackgroundImageFix" mode="normal" result="shape"/><feGaussianBlur result="effect1_foregroundBlur_18_15245" stdDeviation="1"/></filter><filter id="d" color-interpolation-filters="sRGB" filterUnits="userSpaceOnUse" height="5.938" width="12.996" x="15.935" y="7.983"><feFlood flood-opacity="0" result="BackgroundImageFix"/><feBlend in="SourceGraphic" in2="BackgroundImageFix" mode="normal" result="shape"/><feGaussianBlur result="effect1_foregroundBlur_18_15245" stdDeviation="1"/></filter><filter id="e" color-interpolation-filters="sRGB" filterUnits="userSpaceOnUse" height="5.938" width="10.092" x="12.577" y="17.483"><feFlood flood-opacity="0" result="BackgroundImageFix"/><feBlend in="SourceGraphic" in2="BackgroundImageFix" mode="normal" result="shape"/><feGaussianBlur result="effect1_foregroundBlur_18_15245" stdDeviation="1"/></filter><filter id="f" color-interpolation-filters="sRGB" filterUnits="userSpaceOnUse" height="2.188" width="9.246" x="7.469" y="3.866"><feFlood flood-opacity="0" result="BackgroundImageFix"/><feBlend in="SourceGraphic" in2="BackgroundImageFix" mode="normal" result="shape"/><feColorMatrix in="SourceAlpha" result="hardAlpha" type="matrix" values="0 0 0 0 0 0 0 0 0 0 0 0 0 0 0 0 0 0 127 0"/><feOffset dx=".25" dy="-.25"/><feGaussianBlur stdDeviation=".25"/><feComposite in2="hardAlpha" k2="-1" k3="1" operator="arithmetic"/><feColorMatrix type="matrix" values="0 0 0 0 0.466667 0 0 0 0 0.454902 0 0 0 0 0.470588 0 0 0 1 0"/><feBlend in2="shape" mode="normal" result="effect1_innerShadow_18_15245"/></filter><filter id="g" color-interpolation-filters="sRGB" filterUnits="userSpaceOnUse" height="2.188" width="14.031" x="3.652" y="12.835"><feFlood flood-opacity="0" result="BackgroundImageFix"/><feBlend in="SourceGraphic" in2="BackgroundImageFix" mode="normal" result="shape"/><feColorMatrix in="SourceAlpha" result="hardAlpha" type="matrix" values="0 0 0 0 0 0 0 0 0 0 0 0 0 0 0 0 0 0 127 0"/><feOffset dx=".25" dy="-.25"/><feGaussianBlur stdDeviation=".25"/><feComposite in2="hardAlpha" k2="-1" k3="1" operator="arithmetic"/><feColorMatrix type="matrix" values="0 0 0 0 0.466667 0 0 0 0 0.454902 0 0 0 0 0.470588 0 0 0 1 0"/><feBlend in2="shape" mode="normal" result="effect1_innerShadow_18_15245"/></filter><filter id="h" color-interpolation-filters="sRGB" filterUnits="userSpaceOnUse" height="2.188" width="11.113" x="19.57" y="7.874"><feFlood flood-opacity="0" result="BackgroundImageFix"/><feBlend in="SourceGraphic" in2="BackgroundImageFix" mode="normal" result="shape"/><feColorMatrix in="SourceAlpha" result="hardAlpha" type="matrix" values="0 0 0 0 0 0 0 0 0 0 0 0 0 0 0 0 0 0 127 0"/><feOffset dx=".25" dy="-.25"/><feGaussianBlur stdDeviation=".25"/><feComposite in2="hardAlpha" k2="-1" k3="1" operator="arithmetic"/><feColorMatrix type="matrix" values="0 0 0 0 0.466667 0 0 0 0 0.454902 0 0 0 0 0.470588 0 0 0 1 0"/><feBlend in2="shape" mode="normal" result="effect1_innerShadow_18_15245"/></filter><filter id="i" color-interpolation-filters="sRGB" filterUnits="userSpaceOnUse" height="2.188" width="7.117" x="15.566" y="17.725"><feFlood flood-opacity="0" result="BackgroundImageFix"/><feBlend in="SourceGraphic" in2="BackgroundImageFix" mode="normal" result="shape"/><feColorMatrix in="SourceAlpha" result="hardAlpha" type="matrix" values="0 0 0 0 0 0 0 0 0 0 0 0 0 0 0 0 0 0 127 0"/><feOffset dx=".25" dy="-.25"/><feGaussianBlur stdDeviation=".25"/><feComposite in2="hardAlpha" k2="-1" k3="1" operator="arithmetic"/><feColorMatrix type="matrix" values="0 0 0 0 0.466667 0 0 0 0 0.454902 0 0 0 0 0.470588 0 0 0 1 0"/><feBlend in2="shape" mode="normal" result="effect1_innerShadow_18_15245"/></filter><filter id="j" color-interpolation-filters="sRGB" filterUnits="userSpaceOnUse" height="2.188" width="5.367" x="13.379" y="23.733"><feFlood flood-opacity="0" result="BackgroundImageFix"/><feBlend in="SourceGraphic" in2="BackgroundImageFix" mode="normal" result="shape"/><feColorMatrix in="SourceAlpha" result="hardAlpha" type="matrix" values="0 0 0 0 0 0 0 0 0 0 0 0 0 0 0 0 0 0 127 0"/><feOffset dx=".25" dy="-.25"/><feGaussianBlur stdDeviation=".25"/><feComposite in2="hardAlpha" k2="-1" k3="1" operator="arithmetic"/><feColorMatrix type="matrix" values="0 0 0 0 0.466667 0 0 0 0 0.454902 0 0 0 0 0.470588 0 0 0 1 0"/><feBlend in2="shape" mode="normal" result="effect1_innerShadow_18_15245"/></filter><radialGradient id="k" cx="0" cy="0" gradientTransform="matrix(-1.25246678 -1.95586966 2.2400136 -1.43442208 13.7884 29.8194)" gradientUnits="userSpaceOnUse" r="1"><stop offset=".338" stop-color="#a19aa4"/><stop offset="1" stop-color="#807b83"/></radialGradient><radialGradient id="l" cx="0" cy="0" gradientTransform="matrix(2.42710658 .30949662 -.34827414 2.73120416 11.9821 28.8977)" gradientUnits="userSpaceOnUse" r="1"><stop offset=".631" stop-color="#b6b4b6" stop-opacity="0"/><stop offset="1" stop-color="#b6b4b6"/></radialGradient><radialGradient id="m" cx="0" cy="0" gradientTransform="matrix(.41635856 -1.49195262 .59638325 .16643241 13.1155 30.3879)" gradientUnits="userSpaceOnUse" r="1"><stop offset=".128" stop-color="#878189"/><stop offset="1" stop-color="#878189" stop-opacity="0"/></radialGradient><radialGradient id="n" cx="0" cy="0" gradientTransform="matrix(.85937446 -.20312534 .25829385 1.09277914 11.0898 29.8738)" gradientUnits="userSpaceOnUse" r="1"><stop offset=".672" stop-color="#7b777d"/><stop offset=".846" stop-color="#7b777d" stop-opacity="0"/></radialGradient><radialGradient id="o" cx="0" cy="0" gradientTransform="matrix(0 23.8125 -32.6082 0 21.2539 1.3035)" gradientUnits="userSpaceOnUse" r="1"><stop offset=".118" stop-color="#e7e3e9"/><stop offset="1" stop-color="#afa5b3"/></radialGradient><radialGradient id="p" cx="0" cy="0" gradientTransform="matrix(11.31248335 -5.93749917 7.71521691 14.69949896 7.58984 26.741)" gradientUnits="userSpaceOnUse" r="1"><stop offset="0" stop-color="#8b8191"/><stop offset="1" stop-color="#8b8191" stop-opacity="0"/></radialGradient><radialGradient id="q" cx="0" cy="0" gradientTransform="matrix(-11.2854 0 0 -5.97903 26.0577 14.0903)" gradientUnits="userSpaceOnUse" r="1"><stop offset="0" stop-color="#aba5ae"/><stop offset="1" stop-color="#aba5ae" stop-opacity="0"/></radialGradient><linearGradient id="r" gradientUnits="userSpaceOnUse" x1="27.715" x2="27.715" y1=".303" y2="2.616"><stop offset="0" stop-color="#cfccd0"/><stop offset="1" stop-color="#cfccd0" stop-opacity="0"/></linearGradient><radialGradient id="s" cx="0" cy="0" gradientTransform="matrix(2.8834887 -18.8124993 4.89317533 .7500022 17.4648 28.6785)" gradientUnits="userSpaceOnUse" r="1"><stop offset=".315" stop-color="#d2ccd4"/><stop offset="1" stop-color="#d2ccd4" stop-opacity="0"/></radialGradient><radialGradient id="t" cx="0" cy="0" gradientTransform="matrix(-3.09375 0 0 -3.18368 20.0117 29.7566)" gradientUnits="userSpaceOnUse" r="1"><stop offset="0" stop-color="#dad8db"/><stop offset="1" stop-color="#766f7c"/></radialGradient><radialGradient id="u" cx="0" cy="0" gradientTransform="matrix(-.728641 0 0 -.736385 20.0311 30)" gradientUnits="userSpaceOnUse" r="1"><stop offset=".426" stop-color="#716b73"/><stop offset="1" stop-color="#716b73" stop-opacity="0"/></radialGradient><radialGradient id="v" cx="0" cy="0" gradientTransform="matrix(-1.69121 0 0 -1.74037 21.5076 29.8783)" gradientUnits="userSpaceOnUse" r="1"><stop offset="0" stop-color="#e0dee1"/><stop offset="1" stop-color="#78707b"/></radialGradient><radialGradient id="w" cx="0" cy="0" gradientTransform="matrix(-1.07101 0 0 -.917148 11.328 29.687)" gradientUnits="userSpaceOnUse" r="1"><stop offset="0" stop-color="#c3c0c5"/><stop offset="1" stop-color="#8b858e"/></radialGradient><radialGradient id="x" cx="0" cy="0" gradientTransform="matrix(.695312 0 0 .528962 9.71484 30.0457)" gradientUnits="userSpaceOnUse" r="1"><stop offset="0" stop-color="#837589"/><stop offset="1" stop-color="#837589" stop-opacity="0"/></radialGradient><linearGradient id="y"><stop offset="0" stop-color="#888689"/><stop offset="1" stop-color="#c7c7c8"/></linearGradient><linearGradient id="z" gradientUnits="userSpaceOnUse" x1="7.469" x2="15.201" xlink:href="#y" y1="5.085" y2="5.085"/><linearGradient id="A"><stop offset="0" stop-color="#d6d5d7"/><stop offset="1" stop-color="#d6d5d7" stop-opacity="0"/></linearGradient><radialGradient id="B" cx="0" cy="0" gradientTransform="matrix(0 .779605 -5.30132 0 14.8086 4.9285)" gradientUnits="userSpaceOnUse" r="1" xlink:href="#A"/><linearGradient id="C"><stop offset="0" stop-color="#ecebed"/><stop offset="1" stop-color="#ecebed" stop-opacity="0"/></linearGradient><linearGradient id="D" gradientUnits="userSpaceOnUse" x1="16.465" x2="15.184" xlink:href="#C" y1="5.366" y2="5.366"/><linearGradient id="E" gradientUnits="userSpaceOnUse" x1="3.652" x2="15.498" xlink:href="#y" y1="14.053" y2="14.053"/><radialGradient id="F" cx="0" cy="0" gradientTransform="matrix(0 .779605 -8.12117 0 14.8964 13.8972)" gradientUnits="userSpaceOnUse" r="1" xlink:href="#A"/><linearGradient id="G" gradientUnits="userSpaceOnUse" x1="17.434" x2="15.471" xlink:href="#C" y1="14.335" y2="14.335"/><linearGradient id="H" gradientUnits="userSpaceOnUse" x1="19.57" x2="28.908" xlink:href="#y" y1="9.093" y2="9.093"/><radialGradient id="I" cx="0" cy="0" gradientTransform="matrix(0 1.125 -12.79 0 28.4336 8.93631)" gradientUnits="userSpaceOnUse" r="1"><stop offset="0" stop-color="#d2d0d5"/><stop offset="1" stop-color="#d2d0d5" stop-opacity="0"/></radialGradient><linearGradient id="J" gradientUnits="userSpaceOnUse" x1="30.434" x2="28.886" y1="9.374" y2="9.374"><stop offset="0" stop-color="#d2cdd4"/><stop offset="1" stop-color="#d2cdd4" stop-opacity="0"/></linearGradient><linearGradient id="K" gradientUnits="userSpaceOnUse" x1="15.566" x2="21.469" xlink:href="#y" y1="18.944" y2="18.944"/><radialGradient id="L" cx="0" cy="0" gradientTransform="matrix(0 1.125 -7.13996 0 21.1693 18.7874)" gradientUnits="userSpaceOnUse" r="1" xlink:href="#A"/><linearGradient id="M" gradientUnits="userSpaceOnUse" x1="22.434" x2="21.456" xlink:href="#C" y1="19.225" y2="19.225"/><linearGradient id="N" gradientUnits="userSpaceOnUse" x1="13.379" x2="17.777" xlink:href="#y" y1="24.951" y2="24.951"/><radialGradient id="O" cx="0" cy="0" gradientTransform="matrix(0 1.125 -5.32045 0 17.554 24.7953)" gradientUnits="userSpaceOnUse" r="1" xlink:href="#A"/><linearGradient id="P" gradientUnits="userSpaceOnUse" x1="18.496" x2="17.767" xlink:href="#C" y1="25.233" y2="25.233"/><path d="m14.7148 30c0-1.1-.9-2-2-2s-2 .9-2 2" fill="url(#k)"/><path d="m14.7148 30c0-1.1-.9-2-2-2s-2 .9-2 2" fill="url(#l)"/><path d="m14.7148 30c0-1.1-.9-2-2-2s-2 .9-2 2" fill="url(#m)"/><path d="m14.7148 30c0-1.1-.9-2-2-2s-2 .9-2 2" fill="url(#n)"/><g filter="url(#a)"><path d="m3.00641 2c-.8 0-1.44.65-1.44 1.44v1.56c0 8.2 6.61 11.72 9.99999 14.66 5 4.34 3.62 7.75 2 10.34h4c5.74-8.5 2.5-10.15 5-13.99 1.97-3.02 7-4.01 7-11.01v-1.56c0-.8-.65-1.44-1.44-1.44z" fill="url(#o)"/><path d="m3.00641 2c-.8 0-1.44.65-1.44 1.44v1.56c0 8.2 6.61 11.72 9.99999 14.66 5 4.34 3.62 7.75 2 10.34h4c5.74-8.5 2.5-10.15 5-13.99 1.97-3.02 7-4.01 7-11.01v-1.56c0-.8-.65-1.44-1.44-1.44z" fill="url(#p)"/><path d="m3.00641 2c-.8 0-1.44.65-1.44 1.44v1.56c0 8.2 6.61 11.72 9.99999 14.66 5 4.34 3.62 7.75 2 10.34h4c5.74-8.5 2.5-10.15 5-13.99 1.97-3.02 7-4.01 7-11.01v-1.56c0-.8-.65-1.44-1.44-1.44z" fill="url(#q)"/></g><path d="m3.00641 2c-.8 0-1.44.65-1.44 1.44v1.56c0 8.2 6.61 11.72 9.99999 14.66 5 4.34 3.62 7.75 2 10.34h4c5.74-8.5 2.5-10.15 5-13.99 1.97-3.02 7-4.01 7-11.01v-1.56c0-.8-.65-1.44-1.44-1.44z" fill="url(#r)"/><g filter="url(#b)"><path d="m14.2148 15.991c4.375 5.6875 2.9167 11.5625 1.875 13.4375h1.25c3.65-5.75 3.2292-11.5208 2.5625-13.4375z" fill="url(#s)"/></g><path d="m20.7148 30c0-1.1-.9-2-2-2s-2 .9-2 2" fill="url(#t)"/><path d="m20.7148 30c0-1.1-.9-2-2-2s-2 .9-2 2" fill="url(#u)"/><path d="m21.7148 30c0-.55-.45-1-1-1s-1 .45-1 1" fill="url(#v)"/><path d="m11.7148 30c0-.55-.45-1-1-1s-.99996.45-.99996 1" fill="url(#w)"/><path d="m11.7148 30c0-.55-.45-1-1-1s-.99996.45-.99996 1" fill="url(#x)"/><g filter="url(#c)"><rect fill="#b0a9b3" height="1.938" rx=".969" width="8.996" x="5.581" y="5.668"/></g><g filter="url(#d)"><rect fill="#b0a9b3" height="1.938" rx=".969" width="8.996" x="17.936" y="9.983"/></g><g filter="url(#e)"><path d="m14.577 20.4522c0-.535.4337-.9687.9687-.9687h4.1543c.535 0 .9688.4337.9688.9687 0 .5351-.4338.9688-.9688.9688h-4.1543c-.535 0-.9687-.4337-.9687-.9688z" fill="#9f98a2"/></g><g filter="url(#f)"><rect fill="url(#z)" height="1.938" rx=".969" width="8.996" x="7.469" y="4.116"/><rect fill="url(#B)" height="1.938" rx=".969" width="8.996" x="7.469" y="4.116"/><rect fill="url(#D)" height="1.938" rx=".969" width="8.996" x="7.469" y="4.116"/></g><g filter="url(#g)"><path d="m3.65234 14.0535c0-.535.43373-.9688.96875-.9688h11.84371c.5351 0 .9688.4338.9688.9688 0 .535-.4337.9687-.9688.9687h-11.84371c-.53502 0-.96875-.4337-.96875-.9687z" fill="url(#E)"/><path d="m3.65234 14.0535c0-.535.43373-.9688.96875-.9688h11.84371c.5351 0 .9688.4338.9688.9688 0 .535-.4337.9687-.9688.9687h-11.84371c-.53502 0-.96875-.4337-.96875-.9687z" fill="url(#F)"/><path d="m3.65234 14.0535c0-.535.43373-.9688.96875-.9688h11.84371c.5351 0 .9688.4338.9688.9688 0 .535-.4337.9687-.9688.9687h-11.84371c-.53502 0-.96875-.4337-.96875-.9687z" fill="url(#G)"/></g><g filter="url(#h)"><path d="m19.5703 9.09256c0-.53503.4337-.96875.9688-.96875h8.9257c.5351 0 .9688.43372.9688.96875 0 .53503-.4337.96874-.9688.96874h-8.9257c-.5351 0-.9688-.43371-.9688-.96874z" fill="url(#H)"/><path d="m19.5703 9.09256c0-.53503.4337-.96875.9688-.96875h8.9257c.5351 0 .9688.43372.9688.96875 0 .53503-.4337.96874-.9688.96874h-8.9257c-.5351 0-.9688-.43371-.9688-.96874z" fill="url(#I)"/><path d="m19.5703 9.09256c0-.53503.4337-.96875.9688-.96875h8.9257c.5351 0 .9688.43372.9688.96875 0 .53503-.4337.96874-.9688.96874h-8.9257c-.5351 0-.9688-.43371-.9688-.96874z" fill="url(#J)"/></g><g filter="url(#i)"><path d="m15.5664 18.9437c0-.535.4337-.9688.9688-.9688h4.9296c.5351 0 .9688.4338.9688.9688 0 .535-.4337.9687-.9688.9687h-4.9296c-.5351 0-.9688-.4337-.9688-.9687z" fill="url(#K)"/><path d="m15.5664 18.9437c0-.535.4337-.9688.9688-.9688h4.9296c.5351 0 .9688.4338.9688.9688 0 .535-.4337.9687-.9688.9687h-4.9296c-.5351 0-.9688-.4337-.9688-.9687z" fill="url(#L)"/><path d="m15.5664 18.9437c0-.535.4337-.9688.9688-.9688h4.9296c.5351 0 .9688.4338.9688.9688 0 .535-.4337.9687-.9688.9687h-4.9296c-.5351 0-.9688-.4337-.9688-.9687z" fill="url(#M)"/></g><g filter="url(#j)"><path d="m13.3789 24.9515c0-.535.4337-.9687.9688-.9687h3.1796c.5351 0 .9688.4337.9688.9687 0 .535-.4337.9688-.9688.9688h-3.1796c-.5351 0-.9688-.4338-.9688-.9688z" fill="url(#N)"/><path d="m13.3789 24.9515c0-.535.4337-.9687.9688-.9687h3.1796c.5351 0 .9688.4337.9688.9687 0 .535-.4337.9688-.9688.9688h-3.1796c-.5351 0-.9688-.4338-.9688-.9688z" fill="url(#O)"/><path d="m13.3789 24.9515c0-.535.4337-.9687.9688-.9687h3.1796c.5351 0 .9688.4337.9688.9687 0 .535-.4337.9688-.9688.9688h-3.1796c-.5351 0-.9688-.4338-.9688-.9688z" fill="url(#P)"/></g></svg>