<svg fill="none" height="32" viewBox="0 0 32 32" width="32" xmlns="http://www.w3.org/2000/svg" xmlns:xlink="http://www.w3.org/1999/xlink"><filter id="a" color-interpolation-filters="sRGB" filterUnits="userSpaceOnUse" height="14.545" width="2.565" x="14.484" y="7.938"><feFlood flood-opacity="0" result="BackgroundImageFix"/><feBlend in="SourceGraphic" in2="BackgroundImageFix" mode="normal" result="shape"/><feGaussianBlur result="effect1_foregroundBlur_28327_7560" stdDeviation=".5"/></filter><filter id="b" color-interpolation-filters="sRGB" filterUnits="userSpaceOnUse" height="9.375" width="17.067" x="13.945" y="5.844"><feFlood flood-opacity="0" result="BackgroundImageFix"/><feBlend in="SourceGraphic" in2="BackgroundImageFix" mode="normal" result="shape"/><feGaussianBlur result="effect1_foregroundBlur_28327_7560" stdDeviation="1"/></filter><filter id="c" color-interpolation-filters="sRGB" filterUnits="userSpaceOnUse" height="7.188" width="15.188" x="2" y="1.75"><feFlood flood-opacity="0" result="BackgroundImageFix"/><feBlend in="SourceGraphic" in2="BackgroundImageFix" mode="normal" result="shape"/><feColorMatrix in="SourceAlpha" result="hardAlpha" type="matrix" values="0 0 0 0 0 0 0 0 0 0 0 0 0 0 0 0 0 0 127 0"/><feOffset dx=".25" dy="-.25"/><feGaussianBlur stdDeviation=".5"/><feComposite in2="hardAlpha" k2="-1" k3="1" operator="arithmetic"/><feColorMatrix type="matrix" values="0 0 0 0 0.507148 0 0 0 0 0.6625 0 0 0 0 0.339531 0 0 0 1 0"/><feBlend in2="shape" mode="normal" result="effect1_innerShadow_28327_7560"/></filter><filter id="d" color-interpolation-filters="sRGB" filterUnits="userSpaceOnUse" height="8.781" width="16.605" x="1.445" y="1.078"><feFlood flood-opacity="0" result="BackgroundImageFix"/><feBlend in="SourceGraphic" in2="BackgroundImageFix" mode="normal" result="shape"/><feGaussianBlur result="effect1_foregroundBlur_28327_7560" stdDeviation="1"/></filter><filter id="e" color-interpolation-filters="sRGB" filterUnits="userSpaceOnUse" height="9.202" width="19.092" x="6.049" y="20.938"><feFlood flood-opacity="0" result="BackgroundImageFix"/><feBlend in="SourceGraphic" in2="BackgroundImageFix" mode="normal" result="shape"/><feColorMatrix in="SourceAlpha" result="hardAlpha" type="matrix" values="0 0 0 0 0 0 0 0 0 0 0 0 0 0 0 0 0 0 127 0"/><feOffset dx=".15" dy=".15"/><feGaussianBlur stdDeviation=".25"/><feComposite in2="hardAlpha" k2="-1" k3="1" operator="arithmetic"/><feColorMatrix type="matrix" values="0 0 0 0 0.556863 0 0 0 0 0.490196 0 0 0 0 0.486275 0 0 0 1 0"/><feBlend in2="shape" mode="normal" result="effect1_innerShadow_28327_7560"/></filter><filter id="f" color-interpolation-filters="sRGB" filterUnits="userSpaceOnUse" height="6.656" width="6.844" x="10.414" y="2.031"><feFlood flood-opacity="0" result="BackgroundImageFix"/><feBlend in="SourceGraphic" in2="BackgroundImageFix" mode="normal" result="shape"/><feGaussianBlur result="effect1_foregroundBlur_28327_7560" stdDeviation=".5"/></filter><linearGradient id="g" gradientUnits="userSpaceOnUse" x1="15.484" x2="15.484" y1="7.684" y2="19.238"><stop offset="0" stop-color="#82bb30"/><stop offset="1" stop-color="#94d22f"/></linearGradient><linearGradient id="h" gradientUnits="userSpaceOnUse" x1="15.484" x2="15.484" y1="7.684" y2="19.238"><stop offset="0" stop-color="#82bb30"/><stop offset="1" stop-color="#97d630"/></linearGradient><linearGradient id="i"><stop offset="0" stop-color="#86b95c"/><stop offset="1" stop-color="#86b95c" stop-opacity="0"/></linearGradient><linearGradient id="j" gradientUnits="userSpaceOnUse" x1="13.712" x2="14.961" xlink:href="#i" y1="18.378" y2="18.378"/><linearGradient id="k" gradientUnits="userSpaceOnUse" x1="14.679" x2="15.042" xlink:href="#i" y1="8.438" y2="9.631"/><linearGradient id="l" gradientUnits="userSpaceOnUse" x1="17.259" x2="16.312" xlink:href="#i" y1="13.561" y2="13.622"/><linearGradient id="m" gradientUnits="userSpaceOnUse" x1="15.767" x2="15.767" y1="8.938" y2="21.482"><stop offset="0" stop-color="#9ed75b"/><stop offset="1" stop-color="#bcf461"/></linearGradient><linearGradient id="n" gradientUnits="userSpaceOnUse" x1="19.92" x2="29.03" y1="14" y2="6.325"><stop offset="0" stop-color="#8db746"/><stop offset="1" stop-color="#abee48"/></linearGradient><linearGradient id="o" gradientUnits="userSpaceOnUse" x1="22.016" x2="22.016" y1="14.186" y2="13.339"><stop offset="0" stop-color="#97b86e"/><stop offset="1" stop-color="#97b86e" stop-opacity="0"/></linearGradient><linearGradient id="p" gradientUnits="userSpaceOnUse" x1="17.257" x2="18.882" y1="7.906" y2="9.813"><stop offset="0" stop-color="#6caf09"/><stop offset="1" stop-color="#6caf09" stop-opacity="0"/></linearGradient><radialGradient id="q" cx="0" cy="0" gradientTransform="matrix(-3.81248644 2.65626539 -.31079961 -.44608468 30.2262 7.0625)" gradientUnits="userSpaceOnUse" r="1"><stop offset="0" stop-color="#cbff78"/><stop offset="1" stop-color="#cbff78" stop-opacity="0"/></radialGradient><linearGradient id="r" gradientUnits="userSpaceOnUse" x1="20.443" x2="27.529" y1="13.219" y2="7.095"><stop offset="0" stop-color="#a0cc4c"/><stop offset="1" stop-color="#c2fd65"/></linearGradient><linearGradient id="s" gradientUnits="userSpaceOnUse" x1="17.945" x2="3.007" y1="8.438" y2="1.375"><stop offset="0" stop-color="#97da22"/><stop offset="1" stop-color="#90cd2f"/></linearGradient><linearGradient id="t" gradientUnits="userSpaceOnUse" x1="16.9" x2="6.184" y1="7.515" y2="1.751"><stop offset="0" stop-color="#b6eb53"/><stop offset="1" stop-color="#a0d930"/></linearGradient><radialGradient id="u" cx="0" cy="0" gradientTransform="matrix(-8.01691376 -7.84882349 7.49546763 -7.65599043 19.9345 30.7444)" gradientUnits="userSpaceOnUse" r="1"><stop offset="0" stop-color="#bf8b88"/><stop offset="1" stop-color="#835146"/></radialGradient><linearGradient id="v" gradientUnits="userSpaceOnUse" x1="15.52" x2="15.52" y1="30.114" y2="29.539"><stop offset="0" stop-color="#964972"/><stop offset="1" stop-color="#964972" stop-opacity="0"/></linearGradient><radialGradient id="w" cx="0" cy="0" gradientTransform="matrix(1.76050122 -6.6912156 4.84587858 1.27498135 11.8389 31.3809)" gradientUnits="userSpaceOnUse" r="1"><stop offset="0" stop-color="#a3646d"/><stop offset="1" stop-color="#a3646d" stop-opacity="0"/></radialGradient><radialGradient id="x" cx="0" cy="0" gradientTransform="matrix(-4.4155575 4.52621204 -8.25277256 -8.05101295 25.38 20.9375)" gradientUnits="userSpaceOnUse" r="1"><stop offset="0" stop-color="#bf8b88"/><stop offset="1" stop-color="#bf8b88" stop-opacity="0"/></radialGradient><linearGradient id="y" gradientUnits="userSpaceOnUse" x1="15.445" x2="14.051" y1="6.875" y2="2.222"><stop offset="0" stop-color="#d1ff77"/><stop offset="1" stop-color="#d1ff77" stop-opacity="0"/></linearGradient><path d="m14.0312 8.4375h2.90625v14.0156h-2.90625z" fill="url(#g)"/><path d="m14.0312 8.4375h2.90625v14.0156h-2.90625z" fill="url(#h)"/><path d="m14.0312 8.4375h2.90625v14.0156h-2.90625z" fill="url(#j)"/><path d="m14.0312 8.4375h2.90625v14.0156h-2.90625z" fill="url(#k)"/><path d="m14.0312 8.4375h2.90625v14.0156h-2.90625z" fill="url(#l)"/><g filter="url(#a)"><path d="m15.4844 8.9375h.565459v12.5448h-.565459z" fill="url(#m)"/></g><path d="m15 13.5919c0-3.60608 3.3281-6.29502 7.8906-6.5294h6.6388c.2254 0 .4081.18271.4081.40809-.4081 3.87321-2.5625 6.21691-7.6563 6.52941h-6.8731c-.2254 0-.4081-.1827-.4081-.4081z" fill="url(#n)"/><path d="m15 13.5919c0-3.60608 3.3281-6.29502 7.8906-6.5294h6.6388c.2254 0 .4081.18271.4081.40809-.4081 3.87321-2.5625 6.21691-7.6563 6.52941h-6.8731c-.2254 0-.4081-.1827-.4081-.4081z" fill="url(#o)"/><path d="m15 13.5919c0-3.60608 3.3281-6.29502 7.8906-6.5294h6.6388c.2254 0 .4081.18271.4081.40809-.4081 3.87321-2.5625 6.21691-7.6563 6.52941h-6.8731c-.2254 0-.4081-.1827-.4081-.4081z" fill="url(#p)"/><path d="m15 13.5919c0-3.60608 3.3281-6.29502 7.8906-6.5294h6.6388c.2254 0 .4081.18271.4081.40809-.4081 3.87321-2.5625 6.21691-7.6563 6.52941h-6.8731c-.2254 0-.4081-.1827-.4081-.4081z" fill="url(#q)"/><g filter="url(#b)"><path d="m15.9449 12.9025c0-2.7938 3.2334-4.87693 6.8591-5.05851h5.8832c.1791 0 .3243.14155.3243.31616-.3243 3.00065-2.6439 4.81635-6.6918 5.05845h-6.0505c-.1791 0-.3243-.1415-.3243-.3161z" fill="url(#r)"/></g><g filter="url(#c)"><path d="m16.9375 8.52941c0-3.60609-3.3281-6.29503-7.89062-6.52941h-6.63879c-.22538 0-.40809.18271-.40809.40809.40809 3.87316 2.5625 6.21691 7.65625 6.52941h6.87315c.2254 0 .4081-.18271.4081-.40809z" fill="url(#s)"/></g><g filter="url(#d)"><path d="m16.0498 7.57813c0-2.48529-2.8084-4.33848-6.65843-4.50001h-5.60209c-.19019 0-.34436.12592-.34436.28126.34436 2.66934 2.16234 4.28462 6.46066 4.5h5.79982c.1902 0 .3444-.12592.3444-.28125z" fill="url(#t)"/></g><g filter="url(#e)"><path d="m15.5148 20.9375c-5.0593 0-9.1932 3.7857-9.46494 8.5525-.01572.2756.20964.4999.48578.4999h17.96876c.2761 0 .5015-.2243.4858-.4999-.2718-4.7668-4.4061-8.5525-9.4754-8.5525z" fill="url(#u)"/><path d="m15.5148 20.9375c-5.0593 0-9.1932 3.7857-9.46494 8.5525-.01572.2756.20964.4999.48578.4999h17.96876c.2761 0 .5015-.2243.4858-.4999-.2718-4.7668-4.4061-8.5525-9.4754-8.5525z" fill="url(#v)"/><path d="m15.5148 20.9375c-5.0593 0-9.1932 3.7857-9.46494 8.5525-.01572.2756.20964.4999.48578.4999h17.96876c.2761 0 .5015-.2243.4858-.4999-.2718-4.7668-4.4061-8.5525-9.4754-8.5525z" fill="url(#w)"/><path d="m15.5148 20.9375c-5.0593 0-9.1932 3.7857-9.46494 8.5525-.01572.2756.20964.4999.48578.4999h17.96876c.2761 0 .5015-.2243.4858-.4999-.2718-4.7668-4.4061-8.5525-9.4754-8.5525z" fill="url(#x)"/></g><g filter="url(#f)"><path d="m11.6637 3.28125c1.1562.21875 3.6437 1.35625 4.3437 4.15625" stroke="url(#y)" stroke-linecap="round" stroke-width=".5"/></g></svg>