<svg fill="none" height="32" viewBox="0 0 32 32" width="32" xmlns="http://www.w3.org/2000/svg" xmlns:xlink="http://www.w3.org/1999/xlink"><filter id="a" color-interpolation-filters="sRGB" filterUnits="userSpaceOnUse" height="17.747" width=".75" x="13.24" y="12.201"><feFlood flood-opacity="0" result="BackgroundImageFix"/><feBlend in="SourceGraphic" in2="BackgroundImageFix" mode="normal" result="shape"/><feGaussianBlur result="effect1_foregroundBlur_28327_7790" stdDeviation=".125"/></filter><filter id="b" color-interpolation-filters="sRGB" filterUnits="userSpaceOnUse" height="8.501" width=".75" x="16.203" y="21.508"><feFlood flood-opacity="0" result="BackgroundImageFix"/><feBlend in="SourceGraphic" in2="BackgroundImageFix" mode="normal" result="shape"/><feGaussianBlur result="effect1_foregroundBlur_28327_7790" stdDeviation=".125"/></filter><filter id="c" color-interpolation-filters="sRGB" filterUnits="userSpaceOnUse" height="9.113" width="3.991" x="19.039" y="20.887"><feFlood flood-opacity="0" result="BackgroundImageFix"/><feBlend in="SourceGraphic" in2="BackgroundImageFix" mode="normal" result="shape"/><feColorMatrix in="SourceAlpha" result="hardAlpha" type="matrix" values="0 0 0 0 0 0 0 0 0 0 0 0 0 0 0 0 0 0 127 0"/><feOffset/><feGaussianBlur stdDeviation=".25"/><feComposite in2="hardAlpha" k2="-1" k3="1" operator="arithmetic"/><feColorMatrix type="matrix" values="0 0 0 0 0.27451 0 0 0 0 0.517647 0 0 0 0 0.321569 0 0 0 1 0"/><feBlend in2="shape" mode="normal" result="effect1_innerShadow_28327_7790"/></filter><filter id="d" color-interpolation-filters="sRGB" filterUnits="userSpaceOnUse" height="11.963" width="3.996" x="7" y="14.017"><feFlood flood-opacity="0" result="BackgroundImageFix"/><feBlend in="SourceGraphic" in2="BackgroundImageFix" mode="normal" result="shape"/><feColorMatrix in="SourceAlpha" result="hardAlpha" type="matrix" values="0 0 0 0 0 0 0 0 0 0 0 0 0 0 0 0 0 0 127 0"/><feOffset/><feGaussianBlur stdDeviation=".25"/><feComposite in2="hardAlpha" k2="-1" k3="1" operator="arithmetic"/><feColorMatrix type="matrix" values="0 0 0 0 0.313726 0 0 0 0 0.517647 0 0 0 0 0.313726 0 0 0 1 0"/><feBlend in2="shape" mode="normal" result="effect1_innerShadow_28327_7790"/></filter><filter id="e" color-interpolation-filters="sRGB" filterUnits="userSpaceOnUse" height="11.24" width="9.49" x="15.76" y="10.75"><feFlood flood-opacity="0" result="BackgroundImageFix"/><feBlend in="SourceGraphic" in2="BackgroundImageFix" mode="normal" result="shape"/><feColorMatrix in="SourceAlpha" result="hardAlpha" type="matrix" values="0 0 0 0 0 0 0 0 0 0 0 0 0 0 0 0 0 0 127 0"/><feOffset dy="-.25"/><feGaussianBlur stdDeviation=".25"/><feComposite in2="hardAlpha" k2="-1" k3="1" operator="arithmetic"/><feColorMatrix type="matrix" values="0 0 0 0 0.964706 0 0 0 0 0.615686 0 0 0 0 0.411765 0 0 0 1 0"/><feBlend in2="shape" mode="normal" result="effect1_innerShadow_28327_7790"/><feColorMatrix in="SourceAlpha" result="hardAlpha" type="matrix" values="0 0 0 0 0 0 0 0 0 0 0 0 0 0 0 0 0 0 127 0"/><feOffset dx=".25"/><feGaussianBlur stdDeviation=".25"/><feComposite in2="hardAlpha" k2="-1" k3="1" operator="arithmetic"/><feColorMatrix type="matrix" values="0 0 0 0 0.752941 0 0 0 0 0.690196 0 0 0 0 0.356863 0 0 0 1 0"/><feBlend in2="effect1_innerShadow_28327_7790" mode="normal" result="effect2_innerShadow_28327_7790"/></filter><filter id="f" color-interpolation-filters="sRGB" filterUnits="userSpaceOnUse" height="11.24" width="9.5" x="12.75" y="1.75"><feFlood flood-opacity="0" result="BackgroundImageFix"/><feBlend in="SourceGraphic" in2="BackgroundImageFix" mode="normal" result="shape"/><feColorMatrix in="SourceAlpha" result="hardAlpha" type="matrix" values="0 0 0 0 0 0 0 0 0 0 0 0 0 0 0 0 0 0 127 0"/><feOffset dy="-.25"/><feGaussianBlur stdDeviation=".25"/><feComposite in2="hardAlpha" k2="-1" k3="1" operator="arithmetic"/><feColorMatrix type="matrix" values="0 0 0 0 0.964706 0 0 0 0 0.615686 0 0 0 0 0.411765 0 0 0 1 0"/><feBlend in2="shape" mode="normal" result="effect1_innerShadow_28327_7790"/><feColorMatrix in="SourceAlpha" result="hardAlpha" type="matrix" values="0 0 0 0 0 0 0 0 0 0 0 0 0 0 0 0 0 0 127 0"/><feOffset dx=".25"/><feGaussianBlur stdDeviation=".25"/><feComposite in2="hardAlpha" k2="-1" k3="1" operator="arithmetic"/><feColorMatrix type="matrix" values="0 0 0 0 0.752941 0 0 0 0 0.690196 0 0 0 0 0.356863 0 0 0 1 0"/><feBlend in2="effect1_innerShadow_28327_7790" mode="normal" result="effect2_innerShadow_28327_7790"/></filter><filter id="g" color-interpolation-filters="sRGB" filterUnits="userSpaceOnUse" height="4.147" width="3.072" x="7.831" y="14.193"><feFlood flood-opacity="0" result="BackgroundImageFix"/><feBlend in="SourceGraphic" in2="BackgroundImageFix" mode="normal" result="shape"/><feGaussianBlur result="effect1_foregroundBlur_28327_7790" stdDeviation=".125"/></filter><filter id="h" color-interpolation-filters="sRGB" filterUnits="userSpaceOnUse" height="5.987" width="1.05" x="22.1" y="20.788"><feFlood flood-opacity="0" result="BackgroundImageFix"/><feBlend in="SourceGraphic" in2="BackgroundImageFix" mode="normal" result="shape"/><feGaussianBlur result="effect1_foregroundBlur_28327_7790" stdDeviation=".2"/></filter><filter id="i" color-interpolation-filters="sRGB" filterUnits="userSpaceOnUse" height="3.247" width="1.2" x="13.15" y="9.603"><feFlood flood-opacity="0" result="BackgroundImageFix"/><feBlend in="SourceGraphic" in2="BackgroundImageFix" mode="normal" result="shape"/><feGaussianBlur result="effect1_foregroundBlur_28327_7790" stdDeviation=".2"/></filter><filter id="j" color-interpolation-filters="sRGB" filterUnits="userSpaceOnUse" height="3.247" width="1.2" x="16.15" y="18.666"><feFlood flood-opacity="0" result="BackgroundImageFix"/><feBlend in="SourceGraphic" in2="BackgroundImageFix" mode="normal" result="shape"/><feGaussianBlur result="effect1_foregroundBlur_28327_7790" stdDeviation=".2"/></filter><linearGradient id="k"><stop offset="0" stop-color="#6da336"/><stop offset="1" stop-color="#2c6e4a"/></linearGradient><linearGradient id="l" gradientUnits="userSpaceOnUse" x1="17.133" x2="19.375" xlink:href="#k" y1="29.283" y2="29.283"/><linearGradient id="m"><stop offset="0" stop-color="#7f9771"/><stop offset="1" stop-color="#7f9771" stop-opacity="0"/></linearGradient><linearGradient id="n" gradientUnits="userSpaceOnUse" x1="17.737" x2="17.737" xlink:href="#m" y1="30" y2="29.492"/><linearGradient id="o"><stop offset="0" stop-color="#527791"/><stop offset="1" stop-color="#4b687c" stop-opacity="0"/></linearGradient><radialGradient id="p" cx="0" cy="0" gradientTransform="matrix(-2.18966 0 0 -.525476 19.0805 30)" gradientUnits="userSpaceOnUse" r="1" xlink:href="#o"/><linearGradient id="q"><stop offset="0" stop-color="#77a947"/><stop offset="1" stop-color="#77a947" stop-opacity="0"/></linearGradient><radialGradient id="r" cx="0" cy="0" gradientTransform="matrix(2.2462 0 0 .190945 16.7068 29.3872)" gradientUnits="userSpaceOnUse" r="1" xlink:href="#q"/><linearGradient id="s" gradientUnits="userSpaceOnUse" x1="11.377" x2="13.359" xlink:href="#k" y1="25.263" y2="25.263"/><linearGradient id="t" gradientUnits="userSpaceOnUse" x1="11.89" x2="11.89" xlink:href="#m" y1="25.98" y2="25.472"/><radialGradient id="u" cx="0" cy="0" gradientTransform="matrix(-1.85937 0 0 -.525476 13.0311 25.98)" gradientUnits="userSpaceOnUse" r="1" xlink:href="#o"/><radialGradient id="v" cx="0" cy="0" gradientTransform="matrix(1.21875 0 0 .170779 11.0155 25.3672)" gradientUnits="userSpaceOnUse" r="1" xlink:href="#q"/><linearGradient id="w"><stop offset="0" stop-color="#86b14b"/><stop offset="1" stop-color="#337974"/></linearGradient><linearGradient id="x" gradientUnits="userSpaceOnUse" x1="17.349" x2="17.349" xlink:href="#w" y1="20.135" y2="30"/><linearGradient id="y"><stop offset="0" stop-color="#6aa136"/><stop offset="1" stop-color="#6aa136" stop-opacity="0"/></linearGradient><linearGradient id="z" gradientUnits="userSpaceOnUse" x1="15.79" x2="16.338" xlink:href="#y" y1="20.461" y2="20.503"/><linearGradient id="A" gradientUnits="userSpaceOnUse" x1="14.349" x2="14.349" xlink:href="#w" y1="16.611" y2="30"/><linearGradient id="B" gradientUnits="userSpaceOnUse" x1="12.79" x2="13.34" xlink:href="#y" y1="17.055" y2="17.085"/><linearGradient id="C"><stop offset="0" stop-color="#94be59"/><stop offset="1" stop-color="#5b9691"/></linearGradient><linearGradient id="D" gradientUnits="userSpaceOnUse" x1="14.115" x2="14.115" xlink:href="#C" y1="12.576" y2="29.573"/><linearGradient id="E" gradientUnits="userSpaceOnUse" x1="17.078" x2="17.078" xlink:href="#C" y1="21.141" y2="30.522"/><linearGradient id="F" gradientUnits="userSpaceOnUse" x1="21.034" x2="21.034" y1="20.887" y2="29.727"><stop offset="0" stop-color="#6ea373"/><stop offset="1" stop-color="#417f8b"/></linearGradient><radialGradient id="G" cx="0" cy="0" gradientTransform="matrix(3.06250449 6.37499923 -5.29489682 2.54363094 18.1561 23.3751)" gradientUnits="userSpaceOnUse" r="1"><stop offset=".842" stop-color="#4a6c9a" stop-opacity="0"/><stop offset="1" stop-color="#4a6c9a"/></radialGradient><linearGradient id="H" gradientUnits="userSpaceOnUse" x1="18.437" x2="19.5" y1="27.719" y2="27.719"><stop offset="0" stop-color="#2e7361"/><stop offset="1" stop-color="#2e7361" stop-opacity="0"/></linearGradient><radialGradient id="I" cx="0" cy="0" gradientTransform="matrix(-1.62500002 3.87499557 -3.81578148 -1.60016828 23.7186 19.8126)" gradientUnits="userSpaceOnUse" r="1"><stop offset="0" stop-color="#66a55d"/><stop offset="1" stop-color="#66a55d" stop-opacity="0"/></radialGradient><linearGradient id="J" gradientUnits="userSpaceOnUse" x1="8.998" x2="8.998" y1="14.017" y2="24.688"><stop offset="0" stop-color="#7eb342"/><stop offset="1" stop-color="#5f8e80"/></linearGradient><radialGradient id="K" cx="0" cy="0" gradientTransform="matrix(-2.78326152 6.71872436 -6.7778518 -2.80775533 11.7811 13.5937)" gradientUnits="userSpaceOnUse" r="1"><stop offset="0" stop-color="#8ec15d"/><stop offset="1" stop-color="#8ec15d" stop-opacity="0"/></radialGradient><radialGradient id="L" cx="0" cy="0" gradientTransform="matrix(-4.66876018 8.47211695 -8.20393255 -4.52097083 14.0796 17.6099)" gradientUnits="userSpaceOnUse" r="1"><stop offset=".872" stop-color="#577591" stop-opacity="0"/><stop offset="1" stop-color="#577591"/></radialGradient><linearGradient id="M"><stop offset="0" stop-color="#ffbd2f"/><stop offset="1" stop-color="#ffbd2f" stop-opacity="0"/></linearGradient><linearGradient id="N" gradientUnits="userSpaceOnUse" x1="17.945" x2="17.945" xlink:href="#M" y1="21.99" y2="13.5"/><linearGradient id="O"><stop offset="0" stop-color="#f0a43d"/><stop offset="1" stop-color="#f0a43d" stop-opacity="0"/></linearGradient><radialGradient id="P" cx="0" cy="0" gradientTransform="matrix(2.48055 0 0 2.77254 15.4076 17.1633)" gradientUnits="userSpaceOnUse" r="1" xlink:href="#O"/><linearGradient id="Q"><stop offset=".575" stop-color="#f0a43d"/><stop offset="1" stop-color="#f0a43d" stop-opacity="0"/></linearGradient><linearGradient id="R" gradientUnits="userSpaceOnUse" x1="12.927" x2="16.986" xlink:href="#Q" y1="17.163" y2="17.163"/><radialGradient id="S" cx="0" cy="0" gradientTransform="matrix(9.43751388 -3.81250495 3.20542576 7.93474383 11.4374 21.375)" gradientUnits="userSpaceOnUse" r="1"><stop offset="0" stop-color="#f6a340"/><stop offset="1" stop-color="#f6a340" stop-opacity="0"/></radialGradient><linearGradient id="T"><stop offset="0" stop-color="#ffff65"/><stop offset="1" stop-color="#ffff65" stop-opacity="0"/></linearGradient><radialGradient id="U" cx="0" cy="0" gradientTransform="matrix(-.98351951 .50000439 -.42512972 -.8362394 25.0001 11.4688)" gradientUnits="userSpaceOnUse" r="1" xlink:href="#T"/><radialGradient id="V" cx="0" cy="0" gradientTransform="matrix(-1.10818113 .45312052 -.38531746 -.94235752 24.1102 14.1875)" gradientUnits="userSpaceOnUse" r="1" xlink:href="#T"/><radialGradient id="W" cx="0" cy="0" gradientTransform="matrix(-.87405415 .42187578 -.35871184 -.74318932 22.2373 17.1719)" gradientUnits="userSpaceOnUse" r="1" xlink:href="#T"/><linearGradient id="X"><stop offset=".234" stop-color="#ffff65"/><stop offset="1" stop-color="#ffff65" stop-opacity="0"/></linearGradient><radialGradient id="Y" cx="0" cy="0" gradientTransform="matrix(-.85064054 .31250289 -.30610232 -.83321804 18.6474 16.4063)" gradientUnits="userSpaceOnUse" r="1" xlink:href="#X"/><radialGradient id="Z" cx="0" cy="0" gradientTransform="matrix(-1.01452524 .17186731 -.16838146 -.99394842 19.3966 13.4375)" gradientUnits="userSpaceOnUse" r="1" xlink:href="#T"/><linearGradient id="aa"><stop offset="0" stop-color="#ffe338"/><stop offset="1" stop-color="#ffe338" stop-opacity="0"/></linearGradient><linearGradient id="ab" gradientUnits="userSpaceOnUse" x1="22.971" x2="22.971" xlink:href="#aa" y1="10.844" y2="11.625"/><linearGradient id="ac" gradientUnits="userSpaceOnUse" x1="14.937" x2="14.937" xlink:href="#M" y1="12.99" y2="4.5"/><radialGradient id="ad" cx="0" cy="0" gradientTransform="matrix(2.48323 0 0 2.77254 12.3972 8.16331)" gradientUnits="userSpaceOnUse" r="1" xlink:href="#O"/><linearGradient id="ae" gradientUnits="userSpaceOnUse" x1="9.914" x2="13.977" xlink:href="#Q" y1="8.163" y2="8.163"/><radialGradient id="af" cx="0" cy="0" gradientTransform="matrix(-.98458462 .50000535 -.42485898 -.83661027 22.0001 2.46875)" gradientUnits="userSpaceOnUse" r="1" xlink:href="#T"/><radialGradient id="ag" cx="0" cy="0" gradientTransform="matrix(-1.10937471 .45313405 -.38502876 -.94263755 21.1093 5.1875)" gradientUnits="userSpaceOnUse" r="1" xlink:href="#T"/><radialGradient id="ah" cx="0" cy="0" gradientTransform="matrix(-.87499824 .42187964 -.35847346 -.74349084 19.2343 8.17187)" gradientUnits="userSpaceOnUse" r="1" xlink:href="#T"/><radialGradient id="ai" cx="0" cy="0" gradientTransform="matrix(-.85156068 .3125036 -.30585073 -.83343186 15.6405 7.40625)" gradientUnits="userSpaceOnUse" r="1" xlink:href="#X"/><radialGradient id="aj" cx="0" cy="0" gradientTransform="matrix(-1.01562994 .17187211 -.16821299 -.99400737 16.3905 4.4375)" gradientUnits="userSpaceOnUse" r="1" xlink:href="#T"/><linearGradient id="ak" gradientUnits="userSpaceOnUse" x1="19.969" x2="19.969" xlink:href="#aa" y1="1.844" y2="2.625"/><radialGradient id="al" cx="0" cy="0" gradientTransform="matrix(-.86030154 .84311687 -1.3780512 -1.40613907 10.0766 15.4239)" gradientUnits="userSpaceOnUse" r="1"><stop offset="0" stop-color="#99cc6b"/><stop offset="1" stop-color="#99cc6b" stop-opacity="0"/></radialGradient><linearGradient id="am" gradientUnits="userSpaceOnUse" x1="23.125" x2="23.125" y1="21.313" y2="26.25"><stop offset="0" stop-color="#8abe82"/><stop offset="1" stop-color="#8abe82" stop-opacity="0"/></linearGradient><path d="m16.578 28.9844h2.7969l-.3203 1.0156h-2.4766z" fill="url(#l)"/><path d="m16.578 28.9844h2.7969l-.3203 1.0156h-2.4766z" fill="url(#n)"/><path d="m16.578 28.9844h2.7969l-.3203 1.0156h-2.4766z" fill="url(#p)"/><path d="m16.578 28.9844h2.7969l-.3203 1.0156h-2.4766z" fill="url(#r)"/><path d="m10.9061 24.9644h2.375v1.01562h-2.375z" fill="url(#s)"/><path d="m10.9061 24.9644h2.375v1.01562h-2.375z" fill="url(#t)"/><path d="m10.9061 24.9644h2.375v1.01562h-2.375z" fill="url(#u)"/><path d="m10.9061 24.9644h2.375v1.01562h-2.375z" fill="url(#v)"/><path d="m16.9999 16h-1v13.67c0 .18.15.33.33.33h.35c.17 0 .32-.15.32-.33z" fill="url(#x)"/><path d="m16.9999 16h-1v13.67c0 .18.15.33.33.33h.35c.17 0 .32-.15.32-.33z" fill="url(#z)"/><path d="m13.7499 30h-.49c-.15 0-.26-.11-.26-.26v-18.74h1v18.74c0 .15-.11.26-.25.26z" fill="url(#A)"/><path d="m13.7499 30h-.49c-.15 0-.26-.11-.26-.26v-18.74h1v18.74c0 .15-.11.26-.25.26z" fill="url(#B)"/><g filter="url(#a)"><path d="m13.6149 12.5762v16.9969" stroke="url(#D)" stroke-linecap="round" stroke-width=".25"/></g><g filter="url(#b)"><path d="m16.578 21.8831v7.7513" stroke="url(#E)" stroke-linecap="round" stroke-width=".25"/></g><g filter="url(#c)"><path d="m19.0389 30.0001v-5.4112c.1288-1.9262 1.6194-3.479 3.521-3.6988.25-.03.47.16.47.41v4.7c0 2.207-1.7851 3.9951-3.991 4z" fill="url(#F)"/></g><path d="m19.0389 30.0001v-5.4112c.1288-1.9262 1.6194-3.479 3.521-3.6988.25-.03.47.16.47.41v4.7c0 2.207-1.7851 3.9951-3.991 4z" fill="url(#G)"/><path d="m19.0389 30.0001v-5.4112c.1288-1.9262 1.6194-3.479 3.521-3.6988.25-.03.47.16.47.41v4.7c0 2.207-1.7851 3.9951-3.991 4z" fill="url(#H)"/><path d="m19.0389 30.0001v-5.4112c.1288-1.9262 1.6194-3.479 3.521-3.6988.25-.03.47.16.47.41v4.7c0 2.207-1.7851 3.9951-3.991 4z" fill="url(#I)"/><g filter="url(#d)"><path d="m10.996 17.8115c-.0864-1.9689-1.59414-3.5682-3.52615-3.7915-.25-.03-.46997.16-.46997.41v7.55c0 2.2087 1.78784 3.9979 3.99612 4z" fill="url(#J)"/></g><path d="m10.996 17.8115c-.0864-1.9689-1.59414-3.5682-3.52615-3.7915-.25-.03-.46997.16-.46997.41v7.55c0 2.2087 1.78784 3.9979 3.99612 4z" fill="url(#K)"/><path d="m10.996 17.8115c-.0864-1.9689-1.59414-3.5682-3.52615-3.7915-.25-.03-.46997.16-.46997.41v7.55c0 2.2087 1.78784 3.9979 3.99612 4z" fill="url(#L)"/><g filter="url(#e)"><path d="m21.2299 17h-1.85-.34c-.41 0-.77-.32-.77-.74-.01-.42.33-.76.75-.76h.36 3.85c.41 0 .77-.32.77-.74.01-.42-.33-.76-.75-.76h-2.87-.34c-.41 0-.77-.32-.77-.74-.01-.42.33-.76.75-.76h.36 3.85c.41 0 .77-.32.77-.74.01-.42-.33-.76-.75-.76h-2.25-1.71-.47c-2.24 0-4.06 1.82-4.06 4.06v6.16c0 .41.32.77.74.77.42.01.76-.33.76-.75v-1.81c0-.52.42-.94.94-.94h3.06c.42 0 .76-.34.75-.76-.02-.41-.37-.73-.78-.73z" fill="#ffde50"/><path d="m21.2299 17h-1.85-.34c-.41 0-.77-.32-.77-.74-.01-.42.33-.76.75-.76h.36 3.85c.41 0 .77-.32.77-.74.01-.42-.33-.76-.75-.76h-2.87-.34c-.41 0-.77-.32-.77-.74-.01-.42.33-.76.75-.76h.36 3.85c.41 0 .77-.32.77-.74.01-.42-.33-.76-.75-.76h-2.25-1.71-.47c-2.24 0-4.06 1.82-4.06 4.06v6.16c0 .41.32.77.74.77.42.01.76-.33.76-.75v-1.81c0-.52.42-.94.94-.94h3.06c.42 0 .76-.34.75-.76-.02-.41-.37-.73-.78-.73z" fill="url(#N)"/><path d="m21.2299 17h-1.85-.34c-.41 0-.77-.32-.77-.74-.01-.42.33-.76.75-.76h.36 3.85c.41 0 .77-.32.77-.74.01-.42-.33-.76-.75-.76h-2.87-.34c-.41 0-.77-.32-.77-.74-.01-.42.33-.76.75-.76h.36 3.85c.41 0 .77-.32.77-.74.01-.42-.33-.76-.75-.76h-2.25-1.71-.47c-2.24 0-4.06 1.82-4.06 4.06v6.16c0 .41.32.77.74.77.42.01.76-.33.76-.75v-1.81c0-.52.42-.94.94-.94h3.06c.42 0 .76-.34.75-.76-.02-.41-.37-.73-.78-.73z" fill="url(#P)"/><path d="m21.2299 17h-1.85-.34c-.41 0-.77-.32-.77-.74-.01-.42.33-.76.75-.76h.36 3.85c.41 0 .77-.32.77-.74.01-.42-.33-.76-.75-.76h-2.87-.34c-.41 0-.77-.32-.77-.74-.01-.42.33-.76.75-.76h.36 3.85c.41 0 .77-.32.77-.74.01-.42-.33-.76-.75-.76h-2.25-1.71-.47c-2.24 0-4.06 1.82-4.06 4.06v6.16c0 .41.32.77.74.77.42.01.76-.33.76-.75v-1.81c0-.52.42-.94.94-.94h3.06c.42 0 .76-.34.75-.76-.02-.41-.37-.73-.78-.73z" fill="url(#R)"/></g><path d="m21.2299 17h-1.85-.34c-.41 0-.77-.32-.77-.74-.01-.42.33-.76.75-.76h.36 3.85c.41 0 .77-.32.77-.74.01-.42-.33-.76-.75-.76h-2.87-.34c-.41 0-.77-.32-.77-.74-.01-.42.33-.76.75-.76h.36 3.85c.41 0 .77-.32.77-.74.01-.42-.33-.76-.75-.76h-2.25-1.71-.47c-2.24 0-4.06 1.82-4.06 4.06v6.16c0 .41.32.77.74.77.42.01.76-.33.76-.75v-1.81c0-.52.42-.94.94-.94h3.06c.42 0 .76-.34.75-.76-.02-.41-.37-.73-.78-.73z" fill="url(#S)"/><path d="m21.2299 17h-1.85-.34c-.41 0-.77-.32-.77-.74-.01-.42.33-.76.75-.76h.36 3.85c.41 0 .77-.32.77-.74.01-.42-.33-.76-.75-.76h-2.87-.34c-.41 0-.77-.32-.77-.74-.01-.42.33-.76.75-.76h.36 3.85c.41 0 .77-.32.77-.74.01-.42-.33-.76-.75-.76h-2.25-1.71-.47c-2.24 0-4.06 1.82-4.06 4.06v6.16c0 .41.32.77.74.77.42.01.76-.33.76-.75v-1.81c0-.52.42-.94.94-.94h3.06c.42 0 .76-.34.75-.76-.02-.41-.37-.73-.78-.73z" fill="url(#U)"/><path d="m21.2299 17h-1.85-.34c-.41 0-.77-.32-.77-.74-.01-.42.33-.76.75-.76h.36 3.85c.41 0 .77-.32.77-.74.01-.42-.33-.76-.75-.76h-2.87-.34c-.41 0-.77-.32-.77-.74-.01-.42.33-.76.75-.76h.36 3.85c.41 0 .77-.32.77-.74.01-.42-.33-.76-.75-.76h-2.25-1.71-.47c-2.24 0-4.06 1.82-4.06 4.06v6.16c0 .41.32.77.74.77.42.01.76-.33.76-.75v-1.81c0-.52.42-.94.94-.94h3.06c.42 0 .76-.34.75-.76-.02-.41-.37-.73-.78-.73z" fill="url(#V)"/><path d="m21.2299 17h-1.85-.34c-.41 0-.77-.32-.77-.74-.01-.42.33-.76.75-.76h.36 3.85c.41 0 .77-.32.77-.74.01-.42-.33-.76-.75-.76h-2.87-.34c-.41 0-.77-.32-.77-.74-.01-.42.33-.76.75-.76h.36 3.85c.41 0 .77-.32.77-.74.01-.42-.33-.76-.75-.76h-2.25-1.71-.47c-2.24 0-4.06 1.82-4.06 4.06v6.16c0 .41.32.77.74.77.42.01.76-.33.76-.75v-1.81c0-.52.42-.94.94-.94h3.06c.42 0 .76-.34.75-.76-.02-.41-.37-.73-.78-.73z" fill="url(#W)"/><path d="m21.2299 17h-1.85-.34c-.41 0-.77-.32-.77-.74-.01-.42.33-.76.75-.76h.36 3.85c.41 0 .77-.32.77-.74.01-.42-.33-.76-.75-.76h-2.87-.34c-.41 0-.77-.32-.77-.74-.01-.42.33-.76.75-.76h.36 3.85c.41 0 .77-.32.77-.74.01-.42-.33-.76-.75-.76h-2.25-1.71-.47c-2.24 0-4.06 1.82-4.06 4.06v6.16c0 .41.32.77.74.77.42.01.76-.33.76-.75v-1.81c0-.52.42-.94.94-.94h3.06c.42 0 .76-.34.75-.76-.02-.41-.37-.73-.78-.73z" fill="url(#Y)"/><path d="m21.2299 17h-1.85-.34c-.41 0-.77-.32-.77-.74-.01-.42.33-.76.75-.76h.36 3.85c.41 0 .77-.32.77-.74.01-.42-.33-.76-.75-.76h-2.87-.34c-.41 0-.77-.32-.77-.74-.01-.42.33-.76.75-.76h.36 3.85c.41 0 .77-.32.77-.74.01-.42-.33-.76-.75-.76h-2.25-1.71-.47c-2.24 0-4.06 1.82-4.06 4.06v6.16c0 .41.32.77.74.77.42.01.76-.33.76-.75v-1.81c0-.52.42-.94.94-.94h3.06c.42 0 .76-.34.75-.76-.02-.41-.37-.73-.78-.73z" fill="url(#Z)"/><path d="m21.2299 17h-1.85-.34c-.41 0-.77-.32-.77-.74-.01-.42.33-.76.75-.76h.36 3.85c.41 0 .77-.32.77-.74.01-.42-.33-.76-.75-.76h-2.87-.34c-.41 0-.77-.32-.77-.74-.01-.42.33-.76.75-.76h.36 3.85c.41 0 .77-.32.77-.74.01-.42-.33-.76-.75-.76h-2.25-1.71-.47c-2.24 0-4.06 1.82-4.06 4.06v6.16c0 .41.32.77.74.77.42.01.76-.33.76-.75v-1.81c0-.52.42-.94.94-.94h3.06c.42 0 .76-.34.75-.76-.02-.41-.37-.73-.78-.73z" fill="url(#ab)"/><g filter="url(#f)"><path d="m18.2299 8h-2.04-.34c-.41 0-.76-.32-.77-.74s.33-.76.75-.76h.36 4.04c.41 0 .77-.32.77-.74.01-.42-.33-.76-.75-.76h-3.06-.34c-.41 0-.76-.32-.77-.74s.33-.76.75-.76h.36 4.04c.41 0 .77-.32.77-.74.01-.42-.33-.76-.75-.76h-2.25-1.71-.48c-2.24 0-4.06 1.82-4.06 4.06v6.16c0 .41.32.77.74.77.42.01.76-.33.76-.75v-1.8c0-.52.42-.94.94-.94h3.06c.42 0 .76-.34.75-.76s-.36-.74-.77-.74z" fill="#ffde50"/><path d="m18.2299 8h-2.04-.34c-.41 0-.76-.32-.77-.74s.33-.76.75-.76h.36 4.04c.41 0 .77-.32.77-.74.01-.42-.33-.76-.75-.76h-3.06-.34c-.41 0-.76-.32-.77-.74s.33-.76.75-.76h.36 4.04c.41 0 .77-.32.77-.74.01-.42-.33-.76-.75-.76h-2.25-1.71-.48c-2.24 0-4.06 1.82-4.06 4.06v6.16c0 .41.32.77.74.77.42.01.76-.33.76-.75v-1.8c0-.52.42-.94.94-.94h3.06c.42 0 .76-.34.75-.76s-.36-.74-.77-.74z" fill="url(#ac)"/><path d="m18.2299 8h-2.04-.34c-.41 0-.76-.32-.77-.74s.33-.76.75-.76h.36 4.04c.41 0 .77-.32.77-.74.01-.42-.33-.76-.75-.76h-3.06-.34c-.41 0-.76-.32-.77-.74s.33-.76.75-.76h.36 4.04c.41 0 .77-.32.77-.74.01-.42-.33-.76-.75-.76h-2.25-1.71-.48c-2.24 0-4.06 1.82-4.06 4.06v6.16c0 .41.32.77.74.77.42.01.76-.33.76-.75v-1.8c0-.52.42-.94.94-.94h3.06c.42 0 .76-.34.75-.76s-.36-.74-.77-.74z" fill="url(#ad)"/><path d="m18.2299 8h-2.04-.34c-.41 0-.76-.32-.77-.74s.33-.76.75-.76h.36 4.04c.41 0 .77-.32.77-.74.01-.42-.33-.76-.75-.76h-3.06-.34c-.41 0-.76-.32-.77-.74s.33-.76.75-.76h.36 4.04c.41 0 .77-.32.77-.74.01-.42-.33-.76-.75-.76h-2.25-1.71-.48c-2.24 0-4.06 1.82-4.06 4.06v6.16c0 .41.32.77.74.77.42.01.76-.33.76-.75v-1.8c0-.52.42-.94.94-.94h3.06c.42 0 .76-.34.75-.76s-.36-.74-.77-.74z" fill="url(#ae)"/></g><path d="m18.2299 8h-2.04-.34c-.41 0-.76-.32-.77-.74s.33-.76.75-.76h.36 4.04c.41 0 .77-.32.77-.74.01-.42-.33-.76-.75-.76h-3.06-.34c-.41 0-.76-.32-.77-.74s.33-.76.75-.76h.36 4.04c.41 0 .77-.32.77-.74.01-.42-.33-.76-.75-.76h-2.25-1.71-.48c-2.24 0-4.06 1.82-4.06 4.06v6.16c0 .41.32.77.74.77.42.01.76-.33.76-.75v-1.8c0-.52.42-.94.94-.94h3.06c.42 0 .76-.34.75-.76s-.36-.74-.77-.74z" fill="url(#af)"/><path d="m18.2299 8h-2.04-.34c-.41 0-.76-.32-.77-.74s.33-.76.75-.76h.36 4.04c.41 0 .77-.32.77-.74.01-.42-.33-.76-.75-.76h-3.06-.34c-.41 0-.76-.32-.77-.74s.33-.76.75-.76h.36 4.04c.41 0 .77-.32.77-.74.01-.42-.33-.76-.75-.76h-2.25-1.71-.48c-2.24 0-4.06 1.82-4.06 4.06v6.16c0 .41.32.77.74.77.42.01.76-.33.76-.75v-1.8c0-.52.42-.94.94-.94h3.06c.42 0 .76-.34.75-.76s-.36-.74-.77-.74z" fill="url(#ag)"/><path d="m18.2299 8h-2.04-.34c-.41 0-.76-.32-.77-.74s.33-.76.75-.76h.36 4.04c.41 0 .77-.32.77-.74.01-.42-.33-.76-.75-.76h-3.06-.34c-.41 0-.76-.32-.77-.74s.33-.76.75-.76h.36 4.04c.41 0 .77-.32.77-.74.01-.42-.33-.76-.75-.76h-2.25-1.71-.48c-2.24 0-4.06 1.82-4.06 4.06v6.16c0 .41.32.77.74.77.42.01.76-.33.76-.75v-1.8c0-.52.42-.94.94-.94h3.06c.42 0 .76-.34.75-.76s-.36-.74-.77-.74z" fill="url(#ah)"/><path d="m18.2299 8h-2.04-.34c-.41 0-.76-.32-.77-.74s.33-.76.75-.76h.36 4.04c.41 0 .77-.32.77-.74.01-.42-.33-.76-.75-.76h-3.06-.34c-.41 0-.76-.32-.77-.74s.33-.76.75-.76h.36 4.04c.41 0 .77-.32.77-.74.01-.42-.33-.76-.75-.76h-2.25-1.71-.48c-2.24 0-4.06 1.82-4.06 4.06v6.16c0 .41.32.77.74.77.42.01.76-.33.76-.75v-1.8c0-.52.42-.94.94-.94h3.06c.42 0 .76-.34.75-.76s-.36-.74-.77-.74z" fill="url(#ai)"/><path d="m18.2299 8h-2.04-.34c-.41 0-.76-.32-.77-.74s.33-.76.75-.76h.36 4.04c.41 0 .77-.32.77-.74.01-.42-.33-.76-.75-.76h-3.06-.34c-.41 0-.76-.32-.77-.74s.33-.76.75-.76h.36 4.04c.41 0 .77-.32.77-.74.01-.42-.33-.76-.75-.76h-2.25-1.71-.48c-2.24 0-4.06 1.82-4.06 4.06v6.16c0 .41.32.77.74.77.42.01.76-.33.76-.75v-1.8c0-.52.42-.94.94-.94h3.06c.42 0 .76-.34.75-.76s-.36-.74-.77-.74z" fill="url(#aj)"/><path d="m18.2299 8h-2.04-.34c-.41 0-.76-.32-.77-.74s.33-.76.75-.76h.36 4.04c.41 0 .77-.32.77-.74.01-.42-.33-.76-.75-.76h-3.06-.34c-.41 0-.76-.32-.77-.74s.33-.76.75-.76h.36 4.04c.41 0 .77-.32.77-.74.01-.42-.33-.76-.75-.76h-2.25-1.71-.48c-2.24 0-4.06 1.82-4.06 4.06v6.16c0 .41.32.77.74.77.42.01.76-.33.76-.75v-1.8c0-.52.42-.94.94-.94h3.06c.42 0 .76-.34.75-.76s-.36-.74-.77-.74z" fill="url(#ak)"/><g filter="url(#g)"><path d="m8.15613 14.5183c.80729.2552 2.42177 1.2224 2.42177 3.4974" stroke="url(#al)" stroke-linecap="round" stroke-width=".15"/></g><g filter="url(#h)"><path d="m22.6249 21.3125v4.9375" stroke="url(#am)" stroke-linecap="round" stroke-width=".25"/></g><g filter="url(#i)"><path d="m13.7499 12.25v-2.0469" stroke="#ffd25b" stroke-linecap="round" stroke-width=".4"/></g><g filter="url(#j)"><path d="m16.7499 21.3125v-2.0469" stroke="#ffd25b" stroke-linecap="round" stroke-width=".4"/></g></svg>