<svg fill="none" height="32" viewBox="0 0 32 32" width="32" xmlns="http://www.w3.org/2000/svg" xmlns:xlink="http://www.w3.org/1999/xlink"><filter id="a" color-interpolation-filters="sRGB" filterUnits="userSpaceOnUse" height="7.195" width="13.639" x="1.806" y="7.197"><feFlood flood-opacity="0" result="BackgroundImageFix"/><feBlend in="SourceGraphic" in2="BackgroundImageFix" mode="normal" result="shape"/><feGaussianBlur result="effect1_foregroundBlur_18_30687" stdDeviation=".5"/></filter><filter id="b" color-interpolation-filters="sRGB" filterUnits="userSpaceOnUse" height="4.606" width="8.551" x="6.31" y="7.234"><feFlood flood-opacity="0" result="BackgroundImageFix"/><feBlend in="SourceGraphic" in2="BackgroundImageFix" mode="normal" result="shape"/><feGaussianBlur result="effect1_foregroundBlur_18_30687" stdDeviation=".375"/></filter><filter id="c" color-interpolation-filters="sRGB" filterUnits="userSpaceOnUse" height="10.886" width="2.576" x="14.457" y="2.201"><feFlood flood-opacity="0" result="BackgroundImageFix"/><feBlend in="SourceGraphic" in2="BackgroundImageFix" mode="normal" result="shape"/><feGaussianBlur result="effect1_foregroundBlur_18_30687" stdDeviation=".2"/></filter><filter id="d" color-interpolation-filters="sRGB" filterUnits="userSpaceOnUse" height="10.888" width="2.398" x="14.888" y="1.942"><feFlood flood-opacity="0" result="BackgroundImageFix"/><feBlend in="SourceGraphic" in2="BackgroundImageFix" mode="normal" result="shape"/><feGaussianBlur result="effect1_foregroundBlur_18_30687" stdDeviation=".25"/></filter><filter id="e" color-interpolation-filters="sRGB" filterUnits="userSpaceOnUse" height="16.197" width="16.197" x="8.835" y="14.393"><feFlood flood-opacity="0" result="BackgroundImageFix"/><feBlend in="SourceGraphic" in2="BackgroundImageFix" mode="normal" result="shape"/><feGaussianBlur result="effect1_foregroundBlur_18_30687" stdDeviation="2"/></filter><filter id="f" color-interpolation-filters="sRGB" filterUnits="userSpaceOnUse" height="16.197" width="16.197" x="15" y="11.405"><feFlood flood-opacity="0" result="BackgroundImageFix"/><feBlend in="SourceGraphic" in2="BackgroundImageFix" mode="normal" result="shape"/><feGaussianBlur result="effect1_foregroundBlur_18_30687" stdDeviation="2"/></filter><filter id="g" color-interpolation-filters="sRGB" filterUnits="userSpaceOnUse" height="16.197" width="16.197" x="9.241" y="7.306"><feFlood flood-opacity="0" result="BackgroundImageFix"/><feBlend in="SourceGraphic" in2="BackgroundImageFix" mode="normal" result="shape"/><feGaussianBlur result="effect1_foregroundBlur_18_30687" stdDeviation="2"/></filter><filter id="h" color-interpolation-filters="sRGB" filterUnits="userSpaceOnUse" height="14.197" width="14.197" x="16" y="6.089"><feFlood flood-opacity="0" result="BackgroundImageFix"/><feBlend in="SourceGraphic" in2="BackgroundImageFix" mode="normal" result="shape"/><feGaussianBlur result="effect1_foregroundBlur_18_30687" stdDeviation="1.5"/></filter><filter id="i" color-interpolation-filters="sRGB" filterUnits="userSpaceOnUse" height="16.197" width="16.197" x="3.648" y="10.275"><feFlood flood-opacity="0" result="BackgroundImageFix"/><feBlend in="SourceGraphic" in2="BackgroundImageFix" mode="normal" result="shape"/><feGaussianBlur result="effect1_foregroundBlur_18_30687" stdDeviation="2"/></filter><filter id="j" color-interpolation-filters="sRGB" filterUnits="userSpaceOnUse" height="12.197" width="12.197" x="11.242" y="9.306"><feFlood flood-opacity="0" result="BackgroundImageFix"/><feBlend in="SourceGraphic" in2="BackgroundImageFix" mode="normal" result="shape"/><feGaussianBlur result="effect1_foregroundBlur_18_30687" stdDeviation="1"/></filter><filter id="k" color-interpolation-filters="sRGB" filterUnits="userSpaceOnUse" height="16.197" width="16.197" x="9.241" y="7.306"><feFlood flood-opacity="0" result="BackgroundImageFix"/><feBlend in="SourceGraphic" in2="BackgroundImageFix" mode="normal" result="shape"/><feGaussianBlur result="effect1_foregroundBlur_18_30687" stdDeviation="2"/></filter><filter id="l" color-interpolation-filters="sRGB" filterUnits="userSpaceOnUse" height="16.197" width="16.197" x="9.241" y="7.306"><feFlood flood-opacity="0" result="BackgroundImageFix"/><feBlend in="SourceGraphic" in2="BackgroundImageFix" mode="normal" result="shape"/><feGaussianBlur result="effect1_foregroundBlur_18_30687" stdDeviation="2"/></filter><linearGradient id="m" gradientUnits="userSpaceOnUse" x1="2.143" x2="15.108" y1="9.991" y2="11.618"><stop offset="0" stop-color="#81b719"/><stop offset="1" stop-color="#82ca24"/></linearGradient><linearGradient id="n" gradientUnits="userSpaceOnUse" x1="6.553" x2="5.44" y1="10.795" y2="13.522"><stop offset="0" stop-opacity="0"/><stop offset="1" stop-opacity=".12"/></linearGradient><linearGradient id="o" gradientUnits="userSpaceOnUse" x1="12.008" x2="15.108" y1="10.334" y2="11.333"><stop offset="0" stop-opacity="0"/><stop offset="1" stop-opacity=".3"/></linearGradient><linearGradient id="p" gradientUnits="userSpaceOnUse" x1="2.143" x2="15.108" y1="9.991" y2="11.618"><stop offset="0" stop-color="#89bb1b"/><stop offset=".354" stop-color="#8fc21e"/><stop offset="1" stop-color="#97c345"/></linearGradient><linearGradient id="q" gradientUnits="userSpaceOnUse" x1="7.057" x2="14.109" y1="8.421" y2="10.796"><stop offset="0" stop-color="#b9e572" stop-opacity=".3"/><stop offset=".521" stop-color="#b9e572" stop-opacity=".8"/><stop offset="1" stop-color="#b9e572" stop-opacity=".3"/></linearGradient><linearGradient id="r" gradientUnits="userSpaceOnUse" x1="16.168" x2="16.168" y1="2.106" y2="11.601"><stop offset="0" stop-color="#7cb82b"/><stop offset="1" stop-color="#91c627"/></linearGradient><linearGradient id="s" gradientUnits="userSpaceOnUse" x1="15.746" x2="15.746" y1="3.101" y2="12.187"><stop offset="0" stop-color="#86bf1e"/><stop offset="1" stop-color="#92d72d"/></linearGradient><linearGradient id="t" gradientUnits="userSpaceOnUse" x1="15.746" x2="15.746" y1="3.101" y2="12.187"><stop offset="0" stop-color="#c8f584" stop-opacity=".8"/><stop offset=".307" stop-color="#c8f584" stop-opacity="0"/></linearGradient><linearGradient id="u" gradientUnits="userSpaceOnUse" x1="16.112" x2="16.112" y1="2.951" y2="12.08"><stop offset=".297" stop-color="#b1e465" stop-opacity="0"/><stop offset="1" stop-color="#b1e465"/></linearGradient><linearGradient id="v"><stop offset="0" stop-color="#764fbe"/><stop offset=".474" stop-color="#7542b7"/><stop offset="1" stop-color="#57198e"/></linearGradient><radialGradient id="w" cx="0" cy="0" gradientTransform="matrix(-4.35790109 3.31838882 -3.31838882 -4.35790109 22.8911 24.4853)" gradientUnits="userSpaceOnUse" r="1" xlink:href="#v"/><linearGradient id="x"><stop offset="0" stop-color="#997ed0" stop-opacity=".6"/><stop offset="1" stop-color="#997ed0" stop-opacity="0"/></linearGradient><radialGradient id="y" cx="0" cy="0" gradientTransform="matrix(2.03475076 2.38279966 -2.38279966 2.03475076 22.6212 24.4985)" gradientUnits="userSpaceOnUse" r="1" xlink:href="#x"/><linearGradient id="z"><stop offset="0" stop-opacity=".5"/><stop offset="1" stop-opacity="0"/></linearGradient><radialGradient id="A" cx="0" cy="0" gradientTransform="matrix(6.24654478 -.26468456 .26468456 6.24654478 16.4254 25.5618)" gradientUnits="userSpaceOnUse" r="1" xlink:href="#z"/><radialGradient id="B" cx="0" cy="0" gradientTransform="matrix(-4.35790109 3.31838882 -3.31838882 -4.35790109 24.033 18.1604)" gradientUnits="userSpaceOnUse" r="1" xlink:href="#v"/><radialGradient id="C" cx="0" cy="0" gradientTransform="matrix(2.03475076 2.38279966 -2.38279966 2.03475076 23.7632 18.1735)" gradientUnits="userSpaceOnUse" r="1" xlink:href="#x"/><radialGradient id="D" cx="0" cy="0" gradientTransform="matrix(6.24654478 -.26468456 .26468456 6.24654478 17.5673 19.2369)" gradientUnits="userSpaceOnUse" r="1" xlink:href="#z"/><radialGradient id="E" cx="0" cy="0" gradientTransform="matrix(-4.35790109 3.31838882 -3.31838882 -4.35790109 17.8685 21.1486)" gradientUnits="userSpaceOnUse" r="1" xlink:href="#v"/><radialGradient id="F" cx="0" cy="0" gradientTransform="matrix(2.03475076 2.38279966 -2.38279966 2.03475076 17.5986 21.1617)" gradientUnits="userSpaceOnUse" r="1" xlink:href="#x"/><radialGradient id="G" cx="0" cy="0" gradientTransform="matrix(6.24654478 -.26468456 .26468456 6.24654478 11.4028 22.225)" gradientUnits="userSpaceOnUse" r="1" xlink:href="#z"/><radialGradient id="H" cx="0" cy="0" gradientTransform="matrix(-4.35790109 3.31838882 -3.31838882 -4.35790109 12.6807 17.0305)" gradientUnits="userSpaceOnUse" r="1" xlink:href="#v"/><radialGradient id="I" cx="0" cy="0" gradientTransform="matrix(2.03475076 2.38279966 -2.38279966 2.03475076 12.4109 17.0436)" gradientUnits="userSpaceOnUse" r="1"><stop offset="0" stop-color="#997ed0" stop-opacity=".2"/><stop offset="1" stop-color="#997ed0" stop-opacity="0"/></radialGradient><radialGradient id="J" cx="0" cy="0" gradientTransform="matrix(6.24654478 -.26468456 .26468456 6.24654478 6.21503 18.107)" gradientUnits="userSpaceOnUse" r="1" xlink:href="#z"/><radialGradient id="K" cx="0" cy="0" gradientTransform="matrix(-4.35790109 3.31838882 -3.31838882 -4.35790109 24.033 11.845)" gradientUnits="userSpaceOnUse" r="1" xlink:href="#v"/><radialGradient id="L" cx="0" cy="0" gradientTransform="matrix(2.03475076 2.38279966 -2.38279966 2.03475076 23.7632 11.8581)" gradientUnits="userSpaceOnUse" r="1" xlink:href="#x"/><radialGradient id="M" cx="0" cy="0" gradientTransform="matrix(6.24654478 -.26468456 .26468456 6.24654478 17.5673 12.9214)" gradientUnits="userSpaceOnUse" r="1" xlink:href="#z"/><radialGradient id="N" cx="0" cy="0" gradientTransform="matrix(-4.35790109 3.31838882 -3.31838882 -4.35790109 18.2745 14.0618)" gradientUnits="userSpaceOnUse" r="1" xlink:href="#v"/><radialGradient id="O" cx="0" cy="0" gradientTransform="matrix(2.03475076 2.38279966 -2.38279966 2.03475076 18.0046 14.0749)" gradientUnits="userSpaceOnUse" r="1"><stop offset="0" stop-color="#997ed0"/><stop offset="1" stop-color="#997ed0" stop-opacity="0"/></radialGradient><mask id="P" height="9" maskUnits="userSpaceOnUse" width="10" x="17" y="21"><circle cx="21.957" cy="25.828" fill="#000" r="4.099"/></mask><mask id="Q" height="9" maskUnits="userSpaceOnUse" width="9" x="19" y="15"><circle cx="23.099" cy="19.503" fill="#000" r="4.099"/></mask><mask id="R" height="9" maskUnits="userSpaceOnUse" width="10" x="12" y="18"><circle cx="16.934" cy="22.491" fill="#000" r="4.099"/></mask><mask id="S" height="9" maskUnits="userSpaceOnUse" width="9" x="7" y="14"><circle cx="11.746" cy="18.373" fill="#000" r="4.099"/></mask><mask id="T" height="9" maskUnits="userSpaceOnUse" width="9" x="19" y="9"><circle cx="23.099" cy="13.188" fill="#000" r="4.099"/></mask><path d="m2.14294 10.0667 5.47742-2.01066c3.02504-1.11043 6.37754.44171 7.48804 3.46676l-5.47743 2.0107c-3.02509 1.1104-6.3776-.4418-7.48803-3.4668z" fill="url(#m)"/><path d="m2.14294 10.0667 5.47742-2.01066c3.02504-1.11043 6.37754.44171 7.48804 3.46676l-5.47743 2.0107c-3.02509 1.1104-6.3776-.4418-7.48803-3.4668z" fill="url(#n)"/><path d="m2.14294 10.0667 5.47742-2.01066c3.02504-1.11043 6.37754.44171 7.48804 3.46676l-5.47743 2.0107c-3.02509 1.1104-6.3776-.4418-7.48803-3.4668z" fill="url(#o)"/><g filter="url(#a)"><path d="m7.7926 8.52546c2.6076-.95718 5.4812.2494 6.6524 2.70834l-4.98638 1.8303c-2.60758.9572-5.48123-.2494-6.65235-2.7083z" fill="url(#p)"/></g><g filter="url(#b)"><path d="m14.1114 10.8598c-1.2535-2.41799-4.16621-3.5269-6.74-2.48227l-.31149.12643c2.50152-.72741 5.17949.35298 6.48399 2.58614z" fill="url(#q)"/></g><path clip-rule="evenodd" d="m16.4953 2.18237c.5105.21073.7535.79541.5428 1.30591-.673 1.63019-1.4879 6.03773.8342 10.09562.2743.4794.1081 1.0903-.3713 1.3646-.4793.2743-1.0903.1081-1.3646-.3712-2.7163-4.7468-1.7797-9.83504-.947-11.85216.2107-.5105.7954-.75351 1.3059-.54277z" fill="url(#r)" fill-rule="evenodd"/><g filter="url(#c)"><path d="m16.1337 3.10105c-1.7467 4.91518 0 9.08575 0 9.08575" stroke="url(#s)" stroke-linecap="round" stroke-linejoin="round"/></g><g filter="url(#d)" stroke-linecap="round" stroke-linejoin="round" stroke-width=".5"><path d="m16.375 2.69214c-1.7467 4.91518.1608 9.38746.1608 9.38746" stroke="url(#t)"/><path d="m16.375 2.69214c-1.7467 4.91518.1608 9.38746.1608 9.38746" stroke="url(#u)"/></g><circle cx="21.957" cy="25.828" fill="url(#w)" r="4.099"/><circle cx="21.957" cy="25.828" fill="url(#y)" r="4.099"/><circle cx="21.957" cy="25.828" fill="url(#A)" r="4.099"/><g mask="url(#P)"><g filter="url(#e)"><circle cx="16.934" cy="22.491" fill="#000" fill-opacity=".8" r="4.099"/></g><g filter="url(#f)"><circle cx="23.099" cy="19.503" fill="#000" fill-opacity=".6" r="4.099"/></g></g><circle cx="23.099" cy="19.503" fill="url(#B)" r="4.099"/><circle cx="23.099" cy="19.503" fill="url(#C)" r="4.099"/><circle cx="23.099" cy="19.503" fill="url(#D)" r="4.099"/><g mask="url(#Q)"><g filter="url(#g)"><circle cx="17.34" cy="15.405" fill="#000" fill-opacity=".8" r="4.099"/></g><g filter="url(#h)"><circle cx="23.099" cy="13.188" fill="#000" fill-opacity=".8" r="4.099"/></g></g><circle cx="16.934" cy="22.491" fill="url(#E)" r="4.099"/><circle cx="16.934" cy="22.491" fill="url(#F)" r="4.099"/><circle cx="16.934" cy="22.491" fill="url(#G)" r="4.099"/><g mask="url(#R)"><g filter="url(#i)"><circle cx="11.746" cy="18.373" fill="#000" fill-opacity=".6" r="4.099"/></g><g filter="url(#j)"><circle cx="17.34" cy="15.405" fill="#000" fill-opacity=".8" r="4.099"/></g></g><circle cx="11.746" cy="18.373" fill="url(#H)" r="4.099"/><circle cx="11.746" cy="18.373" fill="url(#I)" r="4.099"/><circle cx="11.746" cy="18.373" fill="url(#J)" r="4.099"/><g mask="url(#S)"><g filter="url(#k)"><circle cx="17.34" cy="15.405" fill="#000" r="4.099"/></g></g><circle cx="23.099" cy="13.188" fill="url(#K)" r="4.099"/><circle cx="23.099" cy="13.188" fill="url(#L)" r="4.099"/><circle cx="23.099" cy="13.188" fill="url(#M)" r="4.099"/><g mask="url(#T)"><g filter="url(#l)"><circle cx="17.34" cy="15.405" fill="#000" fill-opacity=".6" r="4.099"/></g></g><circle cx="17.34" cy="15.405" fill="url(#N)" r="4.099"/><circle cx="17.34" cy="15.405" fill="url(#O)" r="4.099"/></svg>