<svg fill="none" height="32" viewBox="0 0 32 32" width="32" xmlns="http://www.w3.org/2000/svg" xmlns:xlink="http://www.w3.org/1999/xlink"><filter id="a" color-interpolation-filters="sRGB" filterUnits="userSpaceOnUse" height="19.624" width="25.594" x="3.344" y="1.906"><feFlood flood-opacity="0" result="BackgroundImageFix"/><feBlend in="SourceGraphic" in2="BackgroundImageFix" mode="normal" result="shape"/><feGaussianBlur result="effect1_foregroundBlur_18_30853" stdDeviation=".25"/></filter><filter id="b" color-interpolation-filters="sRGB" filterUnits="userSpaceOnUse" height="23.484" width="8.558" x="10" y="1.797"><feFlood flood-opacity="0" result="BackgroundImageFix"/><feBlend in="SourceGraphic" in2="BackgroundImageFix" mode="normal" result="shape"/><feGaussianBlur result="effect1_foregroundBlur_18_30853" stdDeviation="1"/></filter><filter id="c" color-interpolation-filters="sRGB" filterUnits="userSpaceOnUse" height="18.603" width="9.87" x="3.431" y="4.842"><feFlood flood-opacity="0" result="BackgroundImageFix"/><feBlend in="SourceGraphic" in2="BackgroundImageFix" mode="normal" result="shape"/><feGaussianBlur result="effect1_foregroundBlur_18_30853" stdDeviation="1"/></filter><filter id="d" color-interpolation-filters="sRGB" filterUnits="userSpaceOnUse" height="7.488" width="8.3" x="7.944" y="12.694"><feFlood flood-opacity="0" result="BackgroundImageFix"/><feBlend in="SourceGraphic" in2="BackgroundImageFix" mode="normal" result="shape"/><feGaussianBlur result="effect1_foregroundBlur_18_30853" stdDeviation=".125"/></filter><filter id="e" color-interpolation-filters="sRGB" filterUnits="userSpaceOnUse" height="7.456" width="12.628" x="16.147" y="12.537"><feFlood flood-opacity="0" result="BackgroundImageFix"/><feBlend in="SourceGraphic" in2="BackgroundImageFix" mode="normal" result="shape"/><feGaussianBlur result="effect1_foregroundBlur_18_30853" stdDeviation=".125"/></filter><linearGradient id="f" gradientUnits="userSpaceOnUse" x1="15.935" x2="15.935" y1="2" y2="16.5"><stop offset="0" stop-color="#b22d50"/><stop offset="1" stop-color="#a7273c"/></linearGradient><linearGradient id="g" gradientUnits="userSpaceOnUse" x1="7.842" x2="18.626" y1="4.423" y2="12.765"><stop offset="0" stop-color="#b5425f"/><stop offset="1" stop-color="#b74561" stop-opacity="0"/></linearGradient><linearGradient id="h" gradientUnits="userSpaceOnUse" x1="12.188" x2="12.188" y1="13.813" y2="2.406"><stop offset=".11" stop-color="#902438"/><stop offset=".214" stop-color="#94273b" stop-opacity="0"/></linearGradient><linearGradient id="i" gradientUnits="userSpaceOnUse" x1="3.006" x2="28.869" y1="21.214" y2="21.214"><stop offset="0" stop-color="#ed1c26"/><stop offset=".456" stop-color="#ed1452"/><stop offset="1" stop-color="#ec098c"/></linearGradient><linearGradient id="j" gradientUnits="userSpaceOnUse" x1="15.688" x2="18.356" y1="5.375" y2="22.28"><stop offset=".048" stop-color="#fee654"/><stop offset=".327" stop-color="#cb9a28"/><stop offset=".686" stop-color="#995c11"/></linearGradient><linearGradient id="k" gradientUnits="userSpaceOnUse" x1="13.314" x2="14.312" y1="7.699" y2="7.7"><stop offset="0" stop-color="#d3a524"/><stop offset=".467" stop-color="#dbad29"/><stop offset="1" stop-color="#d1a71e" stop-opacity="0"/></linearGradient><linearGradient id="l"><stop offset=".048" stop-color="#ffe855"/><stop offset=".686" stop-color="#f7bc4a"/></linearGradient><linearGradient id="m" gradientUnits="userSpaceOnUse" x1="21.386" x2="24.424" xlink:href="#l" y1="7.288" y2="26.241"/><linearGradient id="n" gradientUnits="userSpaceOnUse" x1="21.531" x2="22.873" y1="11.375" y2="11.549"><stop offset="0" stop-color="#dda80e"/><stop offset=".552" stop-color="#dda80e"/><stop offset="1" stop-color="#cfab2b" stop-opacity="0"/></linearGradient><linearGradient id="o" gradientUnits="userSpaceOnUse" x1="17.578" x2="20.562" xlink:href="#l" y1="5.893" y2="24.872"/><linearGradient id="p"><stop offset="0" stop-color="#ba8f22"/><stop offset=".552" stop-color="#caa92e"/><stop offset="1" stop-color="#cfab2b" stop-opacity="0"/></linearGradient><linearGradient id="q" gradientUnits="userSpaceOnUse" x1="17.344" x2="18.715" xlink:href="#p" y1="9.875" y2="10.088"/><radialGradient id="r" cx="0" cy="0" gradientTransform="matrix(-1.12499684 7.12500149 -3.65411083 -.57696313 20.625 19)" gradientUnits="userSpaceOnUse" r="1"><stop offset="0" stop-color="#b96d11"/><stop offset="1" stop-color="#c07617" stop-opacity="0"/></radialGradient><linearGradient id="s" gradientUnits="userSpaceOnUse" x1="8.654" x2="11.502" y1="6.342" y2="25.38"><stop offset=".048" stop-color="#fde252"/><stop offset=".686" stop-color="#d3a538"/></linearGradient><linearGradient id="t" gradientUnits="userSpaceOnUse" x1="7.031" x2="8.328" xlink:href="#p" y1="10.25" y2="10.063"/><radialGradient id="u" cx="0" cy="0" gradientTransform="matrix(1.25000109 9.84365138 -4.6236204 .58713279 11.875 15.8612)" gradientUnits="userSpaceOnUse" r="1"><stop offset="0" stop-color="#a7650a"/><stop offset="1" stop-color="#a15d0a" stop-opacity="0"/></radialGradient><linearGradient id="v" gradientUnits="userSpaceOnUse" x1="12.518" x2="15.73" xlink:href="#l" y1="7.302" y2="26.165"/><linearGradient id="w" gradientUnits="userSpaceOnUse" x1="11.096" x2="12.348" xlink:href="#p" y1="11.199" y2="11.077"/><linearGradient id="x" gradientUnits="userSpaceOnUse" x1="5.313" x2="27.938" y1="22.5" y2="19.688"><stop offset="0" stop-color="#bb2c41"/><stop offset=".161" stop-color="#dd2b5d"/><stop offset=".49" stop-color="#e92f74"/><stop offset="1" stop-color="#f2368c"/></linearGradient><radialGradient id="y" cx="0" cy="0" gradientTransform="matrix(2.9999991 4.28124536 -4.80140194 3.36448867 10.75 15.5)" gradientUnits="userSpaceOnUse" r="1"><stop offset="0" stop-color="#ff6983"/><stop offset="1" stop-color="#fb5471" stop-opacity="0"/></radialGradient><linearGradient id="z" gradientUnits="userSpaceOnUse" x1="17.563" x2="26.825" y1="13.438" y2="16.737"><stop offset="0" stop-color="#fb5471" stop-opacity="0"/><stop offset=".521" stop-color="#de316b"/><stop offset=".623" stop-color="#fc5396"/></linearGradient><path d="m28.87 12.33c0-5.71-4.62-10.33-10.33-10.33h-5.21c-5.7 0-10.33 4.62-10.33 10.33h4.7v8.7h16.47v-8.7z" fill="url(#f)"/><g filter="url(#a)"><path d="m28.4375 12.5157c0-5.58808-4.3921-10.10945-9.8204-10.10945h-4.953c-5.41876 0-9.82035 4.52137-9.82035 10.10945h4.46813v8.5143h15.65752v-8.5143z" fill="url(#g)"/><path d="m28.4375 12.5157c0-5.58808-4.3921-10.10945-9.8204-10.10945h-4.953c-5.41876 0-9.82035 4.52137-9.82035 10.10945h4.46813v8.5143h15.65752v-8.5143z" fill="url(#h)"/></g><path d="m23.06 12.33v.1c0 3.93-3.19 7.12-7.12 7.12s-7.11999-3.19-7.11999-7.12c0-.03 0-.07 0-.1h-5.81l3.63 15.96c.24 1.06 1.18 1.81 2.27 1.81h14.05999c1.09 0 2.03-.75 2.27-1.81l3.63-15.96z" fill="url(#i)"/><g filter="url(#b)"><path d="m12 5.06249c-.0052-.5607 1.3523-1.01799 1.7656-1.26561.2762-.00258 2.6193.42231 2.6219.69844l.1702 18.24918c.0025.2762-.2192.5021-.4954.5047l-3.3875.0316c-.2761.0025-.502-.2192-.5046-.4954z" fill="#9a1b2b"/></g><path d="m13.0047 4.1282c-.0026-.27613.2191-.50207.4953-.50464l3.3875-.03159c.2761-.00257.5021.21919.5046.49532l.1702 18.24921c.0026.2761-.2192.5021-.4953.5046l-3.3875.0316c-.2762.0026-.5021-.2192-.5047-.4953z" fill="url(#j)"/><path d="m13.0047 4.1282c-.0026-.27613.2191-.50207.4953-.50464l3.3875-.03159c.2761-.00257.5021.21919.5046.49532l.1702 18.24921c.0026.2761-.2192.5021-.4953.5046l-3.3875.0316c-.2762.0026-.5021-.2192-.5047-.4953z" fill="url(#k)"/><path d="m21.6406 7.47134c.0335-.27411.2828-.46921.5569-.43578l3.3627.41015c.2741.03344.4692.28275.4358.55686l-2.2096 18.11573c-.0334.2741-.2827.4692-.5568.4358l-3.3628-.4102c-.2741-.0334-.4692-.2827-.4358-.5568z" fill="url(#m)"/><path d="m21.6406 7.47134c.0335-.27411.2828-.46921.5569-.43578l3.3627.41015c.2741.03344.4692.28275.4358.55686l-2.2096 18.11573c-.0334.2741-.2827.4692-.5568.4358l-3.3628-.4102c-.2741-.0334-.4692-.2827-.4358-.5568z" fill="url(#n)"/><path d="m17.9288 6.073c.0355-.27385.2862-.4671.5601-.43163l3.3596.43519c.2738.03547.4671.28623.4316.56008l-2.3444 18.09876c-.0355.2739-.2862.4671-.5601.4317l-3.3596-.4352c-.2738-.0355-.4671-.2863-.4316-.5601z" fill="url(#o)"/><path d="m17.9288 6.073c.0355-.27385.2862-.4671.5601-.43163l3.3596.43519c.2738.03547.4671.28623.4316.56008l-2.3444 18.09876c-.0355.2739-.2862.4671-.5601.4317l-3.3596-.4352c-.2738-.0355-.4671-.2863-.4316-.5601z" fill="url(#q)"/><path d="m17.9288 6.073c.0355-.27385.2862-.4671.5601-.43163l3.3596.43519c.2738.03547.4671.28623.4316.56008l-2.3444 18.09876c-.0355.2739-.2862.4671-.5601.4317l-3.3596-.4352c-.2738-.0355-.4671-.2863-.4316-.5601z" fill="url(#r)"/><g filter="url(#c)"><path d="m5.43313 8.79689c-.05449-.43965 1.02788-1.38782 1.60085-1.86485.06965-.05798.15377-.094.24431-.09016.57341.02427 2.45739.30899 2.49419.55497l1.52302 12.97215c.0409.2731-.1474.5276-.4205.5685l-3.35038.5012c-.27107.0406-.52383-.1446-.56753-.4144-.00065-.0041-.00058-.0032-.00108-.0072-.01631-.1309-1.4651-11.75408-1.52288-12.22021z" fill="#93142a"/></g><path d="m6.55812 7.16121c-.04085-.2731.14742-.52762.42052-.56847l3.35036-.5012c.2731-.04086.5276.14742.5685.42052l2.7001 18.04914c.0408.2731-.1475.5276-.4206.5685l-3.35035.5012c-.2731.0408-.52762-.1474-.56847-.4205z" fill="url(#s)"/><path d="m6.55812 7.16121c-.04085-.2731.14742-.52762.42052-.56847l3.35036-.5012c.2731-.04086.5276.14742.5685.42052l2.7001 18.04914c.0408.2731-.1475.5276-.4206.5685l-3.35035.5012c-.2731.0408-.52762-.1474-.56847-.4205z" fill="url(#t)"/><path d="m6.55812 7.16121c-.04085-.2731.14742-.52762.42052-.56847l3.35036-.5012c.2731-.04086.5276.14742.5685.42052l2.7001 18.04914c.0408.2731-.1475.5276-.4206.5685l-3.35035.5012c-.2731.0408-.52762-.1474-.56847-.4205z" fill="url(#u)"/><path d="m10.6796 7.93162c-.0274-.27479.1732-.5197.448-.54702l3.3711-.33514c.2748-.02732.5197.17329.547.44808l1.8055 18.16046c.0273.2748-.1733.5197-.4481.547l-3.371.3352c-.2748.0273-.5197-.1733-.547-.4481z" fill="url(#v)"/><path d="m10.6796 7.93162c-.0274-.27479.1732-.5197.448-.54702l3.3711-.33514c.2748-.02732.5197.17329.547.44808l1.8055 18.16046c.0273.2748-.1733.5197-.4481.547l-3.371.3352c-.2748.0273-.5197-.1733-.547-.4481z" fill="url(#w)"/><path d="m24.35 12.33c-.7 0-1.28.51-1.4 1.2-.59 3.34-3.5 5.88-7.01 5.88s-6.41999-2.54-7.00999-5.88c-.12-.69-.7-1.2-1.4-1.2h-4.52l3.63 15.96c.24 1.06 1.18 1.81 2.27 1.81h14.05999c1.09 0 2.03-.75 2.27-1.81l3.63-15.96z" fill="url(#x)"/><g filter="url(#d)"><path d="m8.34375 13.0938c.27083 2.2708 2.40625 6.6874 7.50005 6.6874" stroke="url(#y)" stroke-linecap="round" stroke-width=".3"/></g><g filter="url(#e)"><path d="m28.375 12.9375-4.7344.0781c-.2968 0-.4187.4188-.4687.7188-.1445.8665-1.8438 5.8594-6.625 5.8594" stroke="url(#z)" stroke-linecap="round" stroke-width=".3"/></g></svg>