<svg fill="none" height="32" viewBox="0 0 32 32" width="32" xmlns="http://www.w3.org/2000/svg" xmlns:xlink="http://www.w3.org/1999/xlink"><filter id="a" color-interpolation-filters="sRGB" filterUnits="userSpaceOnUse" height="5.46" width="10.969" x="5.585" y="2.74"><feFlood flood-opacity="0" result="BackgroundImageFix"/><feBlend in="SourceGraphic" in2="BackgroundImageFix" mode="normal" result="shape"/><feGaussianBlur result="effect1_foregroundBlur_18_29474" stdDeviation=".25"/></filter><filter id="b" color-interpolation-filters="sRGB" filterUnits="userSpaceOnUse" height="5.948" width="10.602" x="6.159" y="2.594"><feFlood flood-opacity="0" result="BackgroundImageFix"/><feBlend in="SourceGraphic" in2="BackgroundImageFix" mode="normal" result="shape"/><feGaussianBlur result="effect1_foregroundBlur_18_29474" stdDeviation=".25"/></filter><filter id="c" color-interpolation-filters="sRGB" filterUnits="userSpaceOnUse" height="5.46" width="10.97" x="16.585" y="2.74"><feFlood flood-opacity="0" result="BackgroundImageFix"/><feBlend in="SourceGraphic" in2="BackgroundImageFix" mode="normal" result="shape"/><feGaussianBlur result="effect1_foregroundBlur_18_29474" stdDeviation=".25"/></filter><filter id="d" color-interpolation-filters="sRGB" filterUnits="userSpaceOnUse" height="5.94" width="10.97" x="16.585" y="2.5"><feFlood flood-opacity="0" result="BackgroundImageFix"/><feBlend in="SourceGraphic" in2="BackgroundImageFix" mode="normal" result="shape"/><feGaussianBlur result="effect1_foregroundBlur_18_29474" stdDeviation=".25"/></filter><filter id="e" color-interpolation-filters="sRGB" filterUnits="userSpaceOnUse" height="6.065" width="11.648" x="16.287" y="2.446"><feFlood flood-opacity="0" result="BackgroundImageFix"/><feBlend in="SourceGraphic" in2="BackgroundImageFix" mode="normal" result="shape"/><feGaussianBlur result="effect1_foregroundBlur_18_29474" stdDeviation=".25"/></filter><filter id="f" color-interpolation-filters="sRGB" filterUnits="userSpaceOnUse" height="14.126" width="9.254" x="15.959" y="6.507"><feFlood flood-opacity="0" result="BackgroundImageFix"/><feBlend in="SourceGraphic" in2="BackgroundImageFix" mode="normal" result="shape"/><feGaussianBlur result="effect1_foregroundBlur_18_29474" stdDeviation=".3"/></filter><filter id="g" color-interpolation-filters="sRGB" filterUnits="userSpaceOnUse" height="14.126" width="9.254" x="15.959" y="6.506"><feFlood flood-opacity="0" result="BackgroundImageFix"/><feBlend in="SourceGraphic" in2="BackgroundImageFix" mode="normal" result="shape"/><feGaussianBlur result="effect1_foregroundBlur_18_29474" stdDeviation=".3"/></filter><filter id="h" color-interpolation-filters="sRGB" filterUnits="userSpaceOnUse" height="18.435" width="12.339" x="2.015" y="9.733"><feFlood flood-opacity="0" result="BackgroundImageFix"/><feBlend in="SourceGraphic" in2="BackgroundImageFix" mode="normal" result="shape"/><feGaussianBlur result="effect1_foregroundBlur_18_29474" stdDeviation="1"/></filter><linearGradient id="i" gradientUnits="userSpaceOnUse" x1="6.581" x2="16.126" y1="6.877" y2="6.702"><stop offset="0" stop-color="#86b528"/><stop offset="1" stop-color="#a0cb40"/></linearGradient><linearGradient id="j" gradientUnits="userSpaceOnUse" x1="6.581" x2="16.126" y1="6.877" y2="6.702"><stop offset="0" stop-color="#87b327"/><stop offset="1" stop-color="#b6d740"/></linearGradient><linearGradient id="k" gradientUnits="userSpaceOnUse" x1="6.659" x2="16.262" y1="3.094" y2="7.204"><stop offset=".203" stop-color="#cced63" stop-opacity="0"/><stop offset=".495" stop-color="#cced63"/><stop offset=".885" stop-color="#cced63" stop-opacity="0"/></linearGradient><linearGradient id="l" gradientUnits="userSpaceOnUse" x1="26.551" x2="17.67" y1="6.874" y2="4.006"><stop offset="0" stop-color="#b3d944"/><stop offset="1" stop-color="#83b337"/></linearGradient><linearGradient id="m" gradientUnits="userSpaceOnUse" x1="26.551" x2="17.67" y1="6.874" y2="4.006"><stop offset="0" stop-color="#c0e148"/><stop offset="1" stop-color="#90ba2a"/></linearGradient><linearGradient id="n" gradientUnits="userSpaceOnUse" x1="17.085" x2="27.055" y1="7.373" y2="3"><stop offset=".203" stop-color="#add558" stop-opacity="0"/><stop offset=".74" stop-color="#b5df5a"/><stop offset="1" stop-color="#b5df5a" stop-opacity=".5"/></linearGradient><linearGradient id="o" gradientUnits="userSpaceOnUse" x1="27.602" x2="23.43" y1="2.946" y2="8.287"><stop offset="0" stop-color="#d2f168"/><stop offset=".578" stop-color="#d2f168" stop-opacity="0"/></linearGradient><radialGradient id="p" cx="0" cy="0" gradientTransform="matrix(13.80871521 -31.25859312 31.25859312 13.80871521 10.1492 45.6553)" gradientUnits="userSpaceOnUse" r="1"><stop offset=".469" stop-color="#ff458f"/><stop offset=".828" stop-color="#ff5d5b"/><stop offset="1" stop-color="#ff8e2d"/></radialGradient><radialGradient id="q" cx="0" cy="0" gradientTransform="matrix(9.66011319 9.41191158 -10.98450634 11.27417885 2.55005 7.25188)" gradientUnits="userSpaceOnUse" r="1"><stop offset="0" stop-color="#db9263"/><stop offset="1" stop-color="#db9263" stop-opacity="0"/></radialGradient><radialGradient id="r" cx="0" cy="0" gradientTransform="matrix(-5.68528101 18.00072942 -21.00838419 -6.63520711 22.2404 12.6792)" gradientUnits="userSpaceOnUse" r="1"><stop offset="0" stop-color="#ffc98a"/><stop offset="1" stop-color="#ff6700" stop-opacity="0"/></radialGradient><linearGradient id="s"><stop offset="0" stop-color="#ffad60" stop-opacity=".4"/><stop offset="1" stop-color="#ff8704"/></linearGradient><linearGradient id="t" gradientUnits="userSpaceOnUse" x1="24.516" x2="17.971" xlink:href="#s" y1="8.514" y2="11.051"/><linearGradient id="u" gradientUnits="userSpaceOnUse" x1="24.516" x2="17.971" xlink:href="#s" y1="8.514" y2="11.051"/><linearGradient id="v" gradientUnits="userSpaceOnUse" x1="8.184" x2="8.184" y1="11.733" y2="26.168"><stop offset="0" stop-color="#ff9068" stop-opacity="0"/><stop offset=".255" stop-color="#ff9068" stop-opacity=".6"/><stop offset="1" stop-color="#ff9068" stop-opacity="0"/></linearGradient><path d="m11.1201 2.73999h-5.56004c0 3.01 2.44 5.46 5.46004 5.46h5.56c-.01-3.02-2.45-5.46-5.46-5.46z" fill="url(#i)"/><g filter="url(#a)"><path d="m11.02 7.69999c-2.57394 0-4.68438-1.95935-4.93504-4.46h5.03504c2.5644 0 4.6754 1.95072 4.9335 4.46z" fill="url(#j)"/></g><g filter="url(#b)"><path d="m6.65942 3.09416 4.37868-.00004c2.8361 0 5.2142 2.10267 5.2236 4.94817-1.995-5.17907-4.694-4.43452-9.60228-4.94813z" fill="url(#k)"/></g><path d="m22.0201 2.73999h5.56c0 3.01-2.44 5.46-5.46 5.46h-5.56c0-3.02 2.44-5.46 5.46-5.46z" fill="url(#l)"/><g filter="url(#c)"><path d="m22.1201 7.69999h-5.0353c.2499-2.50813 2.3602-4.46 4.9353-4.46h5.035c-.2506 2.50065-2.3611 4.46-4.935 4.46z" fill="url(#m)"/></g><g filter="url(#d)"><path d="m27.0553 3h-5.0305c-2.7324 0-4.94 2.20761-4.94 4.93998 2.5979-4.34155 3.1869-4.31478 9.9705-4.93998z" fill="url(#n)"/></g><g filter="url(#e)"><path d="m27.4353 2.94592c0 2.73716-2.7037 5.00697-5.4075 5.00697h-2.536c-1.5576.13044-2.7046 0-2.7046 0h2.7046c2.6855-.2249 6.5914-1.22533 7.9435-5.00697z" fill="url(#o)"/></g><path d="m16.5548 7.53031c-1.2333-.5466-2.5984-.85038-4.0347-.85038-5.50005 0-9.97005 4.45997-9.97005 9.96997 0 2.25.75 4.37 2 6.03 2.29 3.07 6.49005 5.79 6.49005 5.79 2.1 1.41 3.7 2.21 5.86 2.21 2.34 0 4.49-.78 6.34-2.43 0 0 2.78-2.3 5.3-5.58h-.0021c1.269-1.6727 2.022-3.7584 2.022-6.02 0-5.5062-4.4637-9.96997-9.97-9.96997-1.4363 0-2.8016.3037-4.0352.85038z" fill="url(#p)"/><path d="m16.5548 7.53031c-1.2333-.5466-2.5984-.85038-4.0347-.85038-5.50005 0-9.97005 4.45997-9.97005 9.96997 0 2.25.75 4.37 2 6.03 2.29 3.07 6.49005 5.79 6.49005 5.79 2.1 1.41 3.7 2.21 5.86 2.21 2.34 0 4.49-.78 6.34-2.43 0 0 2.78-2.3 5.3-5.58h-.0021c1.269-1.6727 2.022-3.7584 2.022-6.02 0-5.5062-4.4637-9.96997-9.97-9.96997-1.4363 0-2.8016.3037-4.0352.85038z" fill="url(#q)"/><path d="m16.5548 7.53031c-1.2333-.5466-2.5984-.85038-4.0347-.85038-5.50005 0-9.97005 4.45997-9.97005 9.96997 0 2.25.75 4.37 2 6.03 2.29 3.07 6.49005 5.79 6.49005 5.79 2.1 1.41 3.7 2.21 5.86 2.21 2.34 0 4.49-.78 6.34-2.43 0 0 2.78-2.3 5.3-5.58h-.0021c1.269-1.6727 2.022-3.7584 2.022-6.02 0-5.5062-4.4637-9.96997-9.97-9.96997-1.4363 0-2.8016.3037-4.0352.85038z" fill="url(#r)"/><g filter="url(#f)"><path d="m16.5586 7.53516c3.0945-.53496 5.3135-.77518 8.0544.53846-1.3473 2.50748-1.3218 7.44678-1.1911 10.12628.0644.5802.1075 1.1907.1264 1.8329 0 0-.0722-.7224-.1264-1.8329-.9789-8.82923-6.8633-10.66474-6.8633-10.66474z" fill="url(#t)"/></g><g filter="url(#g)"><path d="m16.5586 7.53504c3.0945-.53497 5.3135-.77518 8.0544.53846-1.3473 2.5074-1.3218 7.4468-1.1911 10.1263.0644.5802.1075 1.1907.1264 1.8328 0 0-.0722-.7223-.1264-1.8328-.9789-8.82926-6.8633-10.66476-6.8633-10.66476z" fill="url(#u)" fill-opacity=".5"/></g><g filter="url(#h)"><path d="m4.1302 17.5167c-.71533-5.4589 2.06935-6.647 3.4441-5.2435s-2.42765 6.1093 4.7799 13.8947c0 0-7.50867-3.1924-8.224-8.6512z" fill="url(#v)"/></g></svg>