<svg fill="none" height="32" viewBox="0 0 32 32" width="32" xmlns="http://www.w3.org/2000/svg" xmlns:xlink="http://www.w3.org/1999/xlink"><filter id="a" color-interpolation-filters="sRGB" filterUnits="userSpaceOnUse" height="16.125" width="17.188" x="13.5" y="13.938"><feFlood flood-opacity="0" result="BackgroundImageFix"/><feBlend in="SourceGraphic" in2="BackgroundImageFix" mode="normal" result="shape"/><feGaussianBlur result="effect1_foregroundBlur_18_28772" stdDeviation=".75"/></filter><filter id="b" color-interpolation-filters="sRGB" filterUnits="userSpaceOnUse" height="2.875" width="5.547" x="17.375" y="6.219"><feFlood flood-opacity="0" result="BackgroundImageFix"/><feBlend in="SourceGraphic" in2="BackgroundImageFix" mode="normal" result="shape"/><feGaussianBlur result="effect1_foregroundBlur_18_28772" stdDeviation=".5"/></filter><linearGradient id="c" gradientUnits="userSpaceOnUse" x1="21.997" x2="21.997" y1="2" y2="30"><stop offset="0" stop-color="#e6e6e6"/><stop offset=".994" stop-color="#ccc"/></linearGradient><linearGradient id="d"><stop offset="0" stop-color="#ebe9f4"/><stop offset=".285" stop-color="#fbf6ff"/><stop offset=".442" stop-color="#f7f0ff"/><stop offset=".517" stop-color="#e8dcfd"/><stop offset=".625" stop-color="#d6c8ee"/><stop offset="1" stop-color="#a6a1b0"/></linearGradient><linearGradient id="e" gradientUnits="userSpaceOnUse" x1="34.188" x2="13.987" xlink:href="#d" y1="25.5" y2="25.5"/><linearGradient id="f" gradientUnits="userSpaceOnUse" x1="21.992" x2="21.992" y1="13.375" y2="30"><stop offset=".932" stop-color="#d5b4fb" stop-opacity="0"/><stop offset="1" stop-color="#cca5f3"/></linearGradient><linearGradient id="g" gradientUnits="userSpaceOnUse" x1="34.188" x2="13.987" y1="25.5" y2="25.5"><stop offset="0" stop-color="#ebe9f4"/><stop offset=".362" stop-color="#fbf6ff"/><stop offset=".446" stop-color="#f7f0ff"/><stop offset=".563" stop-color="#e8dcfd"/><stop offset=".727" stop-color="#d6c8ee"/><stop offset="1" stop-color="#a6a1b0"/></linearGradient><radialGradient id="h" cx="0" cy="0" gradientTransform="matrix(-9.81257804 11.24995475 -9.29554443 -8.10787751 27.3125 15)" gradientUnits="userSpaceOnUse" r="1"><stop offset=".168" stop-color="#fff"/><stop offset=".442" stop-color="#d9d6e3"/><stop offset=".778" stop-color="#b0adba"/><stop offset=".918" stop-color="#a5a4aa"/></radialGradient><radialGradient id="i" cx="0" cy="0" gradientTransform="matrix(-.01562622 1.67187698 -5.12642609 -.04791419 26.5625 7.9375)" gradientUnits="userSpaceOnUse" r="1"><stop offset=".25" stop-color="#fff"/><stop offset=".82" stop-color="#fff" stop-opacity="0"/></radialGradient><radialGradient id="j" cx="0" cy="0" gradientTransform="matrix(-8.94578636 6.96260027 -11.57538436 -14.87244873 30.9375 9.1875)" gradientUnits="userSpaceOnUse" r="1"><stop offset="0" stop-color="#f6f8ff"/><stop offset="1" stop-color="#ebecf7" stop-opacity="0"/></radialGradient><linearGradient id="k" gradientUnits="userSpaceOnUse" x1="28.892" x2="15.563" y1="3.75" y2="3.75"><stop offset="0" stop-color="#dad7e4"/><stop offset=".283" stop-color="#dad1eb"/><stop offset=".727" stop-color="#b7abcb"/><stop offset="1" stop-color="#a6a1b0"/></linearGradient><radialGradient id="l" cx="0" cy="0" gradientTransform="matrix(0 1.21875 -4.82986 0 26.3594 7.6875)" gradientUnits="userSpaceOnUse" r="1"><stop offset=".333" stop-color="#f7f6ff"/><stop offset="1" stop-color="#dfdaee" stop-opacity="0"/></radialGradient><linearGradient id="m"><stop offset="0" stop-color="#fff"/><stop offset="1" stop-color="#fff" stop-opacity="0"/></linearGradient><radialGradient id="n" cx="0" cy="0" gradientTransform="matrix(0 .625 -8.1875 0 26.75 2.5)" gradientUnits="userSpaceOnUse" r="1" xlink:href="#m"/><linearGradient id="o" gradientUnits="userSpaceOnUse" x1="32.901" x2="15" xlink:href="#d" y1="24.629" y2="24.629"/><linearGradient id="p" gradientUnits="userSpaceOnUse" x1="15.938" x2="27.375" y1="6" y2="6"><stop offset="0" stop-color="#3974c5"/><stop offset=".552" stop-color="#3079e1"/><stop offset="1" stop-color="#3994f2"/></linearGradient><linearGradient id="q" gradientUnits="userSpaceOnUse" x1="2.008" x2="17.75" y1="26.25" y2="26.25"><stop offset="0" stop-color="#a7a1b2"/><stop offset=".401" stop-color="#dfd1f5"/><stop offset=".663" stop-color="#fcf2ff"/><stop offset=".917" stop-color="#f0ebfd"/></linearGradient><linearGradient id="r" gradientUnits="userSpaceOnUse" x1="9.512" x2="9.512" y1="20.469" y2="30"><stop offset=".895" stop-color="#d5b4fb" stop-opacity="0"/><stop offset="1" stop-color="#cca5f3"/></linearGradient><linearGradient id="s" gradientUnits="userSpaceOnUse" x1="9.512" x2="9.512" y1="20.469" y2="21.156"><stop offset="0" stop-color="#bebebf"/><stop offset=".227" stop-color="#bebebf" stop-opacity="0"/></linearGradient><radialGradient id="t" cx="0" cy="0" gradientTransform="matrix(0 .578125 -6.07031 0 14.625 21.2188)" gradientUnits="userSpaceOnUse" r="1" xlink:href="#m"/><linearGradient id="u" gradientUnits="userSpaceOnUse" x1="2.008" x2="17.016" y1="24.367" y2="24.367"><stop offset="0" stop-color="#477cbc"/><stop offset=".466" stop-color="#3588f6"/><stop offset="1" stop-color="#48adff"/></linearGradient><linearGradient id="v" gradientUnits="userSpaceOnUse" x1="22.117" x2="18.993" y1="7.401" y2="7.401"><stop offset="0" stop-color="#cfc8dd"/><stop offset="1" stop-color="#a9a4b5"/></linearGradient><path d="m27.9267 10.62-1.71-1.97c-.55-.63-.47-1.6.18-2.13 1.22-.97 2.11-2.34 2.48-3.91.08-.31-.16-.61-.48-.61h-12.8c-.32 0-.56.3-.49.61.37 1.57 1.26 2.94 2.48 3.91.66.52.73 1.49.18 2.13l-1.71 1.97c-1.33 1.53-2.07 3.5-2.07 5.53v12.91c0 .52.42.94.94.94h7.07 7.06c.52 0 .94-.42.94-.94v-12.91c0-2.03-.73-4-2.07-5.53z" fill="url(#c)"/><path d="m27.9267 10.62-1.71-1.97c-.55-.63-.47-1.6.18-2.13 1.22-.97 2.11-2.34 2.48-3.91.08-.31-.16-.61-.48-.61h-12.8c-.32 0-.56.3-.49.61.37 1.57 1.26 2.94 2.48 3.91.66.52.73 1.49.18 2.13l-1.71 1.97c-1.33 1.53-2.07 3.5-2.07 5.53v12.91c0 .52.42.94.94.94h7.07 7.06c.52 0 .94-.42.94-.94v-12.91c0-2.03-.73-4-2.07-5.53z" fill="url(#e)"/><path d="m27.9267 10.62-1.71-1.97c-.55-.63-.47-1.6.18-2.13 1.22-.97 2.11-2.34 2.48-3.91.08-.31-.16-.61-.48-.61h-12.8c-.32 0-.56.3-.49.61.37 1.57 1.26 2.94 2.48 3.91.66.52.73 1.49.18 2.13l-1.71 1.97c-1.33 1.53-2.07 3.5-2.07 5.53v12.91c0 .52.42.94.94.94h7.07 7.06c.52 0 .94-.42.94-.94v-12.91c0-2.03-.73-4-2.07-5.53z" fill="url(#f)"/><path d="m27.9267 10.62-1.71-1.96998c-.2716-.31106-.3895-.70502-.3611-1.08797.0291-.39264.212-.77372.5411-1.04203h-8.81c.3363.26492.5194.64665.5454 1.04203.025.38069-.0956.77403-.3654 1.08797l-1.71 1.96998c-1.33 1.53-2.07 3.5-2.07 5.53h16.01c0-2.03-.73-4-2.07-5.53z" fill="url(#g)"/><path d="m27.9267 10.62-1.71-1.96998c-.2716-.31106-.3895-.70502-.3611-1.08797.0291-.39264.212-.77372.5411-1.04203h-8.81c.3363.26492.5194.64665.5454 1.04203.025.38069-.0956.77403-.3654 1.08797l-1.71 1.96998c-1.33 1.53-2.07 3.5-2.07 5.53h16.01c0-2.03-.73-4-2.07-5.53z" fill="url(#f)"/><path d="m27.9267 10.62-1.71-1.96998c-.2716-.31106-.3895-.70502-.3611-1.08797.0291-.39264.212-.77372.5411-1.04203h-8.81c.3363.26492.5194.64665.5454 1.04203.025.38069-.0956.77403-.3654 1.08797l-1.71 1.96998c-1.33 1.53-2.07 3.5-2.07 5.53h16.01c0-2.03-.73-4-2.07-5.53z" fill="url(#h)"/><path d="m27.9267 10.62-1.71-1.96998c-.2716-.31106-.3895-.70502-.3611-1.08797.0291-.39264.212-.77372.5411-1.04203h-8.81c.3363.26492.5194.64665.5454 1.04203.025.38069-.0956.77403-.3654 1.08797l-1.71 1.96998c-1.33 1.53-2.07 3.5-2.07 5.53h16.01c0-2.03-.73-4-2.07-5.53z" fill="url(#i)"/><path d="m27.9267 10.62-1.71-1.96998c-.2716-.31106-.3895-.70502-.3611-1.08797.0291-.39264.212-.77372.5411-1.04203h-8.81c.3363.26492.5194.64665.5454 1.04203.025.38069-.0956.77403-.3654 1.08797l-1.71 1.96998c-1.33 1.53-2.07 3.5-2.07 5.53h16.01c0-2.03-.73-4-2.07-5.53z" fill="url(#j)"/><path d="m25.8556 7.56203c.0291-.39264.212-.77372.5411-1.04203 1.22-.97 2.11-2.34 2.48-3.91.08-.31-.16-.61-.48-.61h-12.8c-.32 0-.56.3-.49.61.37 1.57 1.26 2.94 2.48 3.91.3363.26492.5194.64665.5454 1.04203z" fill="url(#k)"/><path d="m25.8556 7.56203c.0291-.39264.212-.77372.5411-1.04203 1.22-.97 2.11-2.34 2.48-3.91.08-.31-.16-.61-.48-.61h-12.8c-.32 0-.56.3-.49.61.37 1.57 1.26 2.94 2.48 3.91.3363.26492.5194.64665.5454 1.04203z" fill="url(#l)"/><path d="m25.8556 7.56203c.0291-.39264.212-.77372.5411-1.04203 1.22-.97 2.11-2.34 2.48-3.91.08-.31-.16-.61-.48-.61h-12.8c-.32 0-.56.3-.49.61.37 1.57 1.26 2.94 2.48 3.91.3363.26492.5194.64665.5454 1.04203z" fill="url(#n)"/><g filter="url(#a)"><path d="m15.0724 15.4375c-.0479.3364-.0724.6771-.0724 1.0198v11.2836c0 .4545.3722.8216.833.8216h6.2652 6.2563c.4608 0 .833-.3671.833-.8216v-11.2836c0-.3427-.0241-.6834-.0716-1.0198z" fill="url(#o)"/></g><path d="m28.3967 4h-12.8c.35.75.83 1.42 1.41 2h9.98c.58-.58 1.06-1.25 1.41-2z" fill="url(#p)"/><path d="m2.00754 21.3583v7.3605c0 .8437.17996 1.2812.88309 1.2812h13.18747c.5469 0 .9375-.375.9375-1.2812v-7.3605c0-.4208-.25-.8895-.9062-.8895h-13.27097c-.50527 0-.83089.3593-.83089.8895z" fill="url(#q)"/><path d="m2.00754 21.3583v7.3605c0 .8437.17996 1.2812.88309 1.2812h13.18747c.5469 0 .9375-.375.9375-1.2812v-7.3605c0-.4208-.25-.8895-.9062-.8895h-13.27097c-.50527 0-.83089.3593-.83089.8895z" fill="url(#r)"/><path d="m2.00754 21.3583v7.3605c0 .8437.17996 1.2812.88309 1.2812h13.18747c.5469 0 .9375-.375.9375-1.2812v-7.3605c0-.4208-.25-.8895-.9062-.8895h-13.27097c-.50527 0-.83089.3593-.83089.8895z" fill="url(#s)"/><path d="m2.00754 21.3583v7.3605c0 .8437.17996 1.2812.88309 1.2812h13.18747c.5469 0 .9375-.375.9375-1.2812v-7.3605c0-.4208-.25-.8895-.9062-.8895h-13.27097c-.50527 0-.83089.3593-.83089.8895z" fill="url(#t)"/><path d="m2.00754 22.3828h15.0081v1.98438h-15.0081z" fill="url(#u)"/><g filter="url(#b)"><path d="m18.8138 7.21875h3.1081v.875h-3.1081l-.4388-.4375z" fill="url(#v)"/></g></svg>