<svg fill="none" height="32" viewBox="0 0 32 32" width="32" xmlns="http://www.w3.org/2000/svg" xmlns:xlink="http://www.w3.org/1999/xlink"><filter id="a" color-interpolation-filters="sRGB" filterUnits="userSpaceOnUse" height="7.883" width="6.672" x="1.969" y="13.086"><feFlood flood-opacity="0" result="BackgroundImageFix"/><feBlend in="SourceGraphic" in2="BackgroundImageFix" mode="normal" result="shape"/><feGaussianBlur result="effect1_foregroundBlur_18_29109" stdDeviation=".125"/></filter><filter id="b" color-interpolation-filters="sRGB" filterUnits="userSpaceOnUse" height="8.438" width="6.86" x="23.422" y="12.781"><feFlood flood-opacity="0" result="BackgroundImageFix"/><feBlend in="SourceGraphic" in2="BackgroundImageFix" mode="normal" result="shape"/><feGaussianBlur result="effect1_foregroundBlur_18_29109" stdDeviation=".25"/></filter><filter id="c" color-interpolation-filters="sRGB" filterUnits="userSpaceOnUse" height="2.563" width="4.453" x="17.772" y="15.859"><feFlood flood-opacity="0" result="BackgroundImageFix"/><feBlend in="SourceGraphic" in2="BackgroundImageFix" mode="normal" result="shape"/><feGaussianBlur result="effect1_foregroundBlur_18_29109" stdDeviation=".125"/></filter><filter id="d" color-interpolation-filters="sRGB" filterUnits="userSpaceOnUse" height="2.563" width="4.453" x="13.772" y="18.922"><feFlood flood-opacity="0" result="BackgroundImageFix"/><feBlend in="SourceGraphic" in2="BackgroundImageFix" mode="normal" result="shape"/><feGaussianBlur result="effect1_foregroundBlur_18_29109" stdDeviation=".125"/></filter><filter id="e" color-interpolation-filters="sRGB" filterUnits="userSpaceOnUse" height="2.469" width="6.399" x="15.781" y="9.938"><feFlood flood-opacity="0" result="BackgroundImageFix"/><feBlend in="SourceGraphic" in2="BackgroundImageFix" mode="normal" result="shape"/><feGaussianBlur result="effect1_foregroundBlur_18_29109" stdDeviation=".125"/></filter><filter id="f" color-interpolation-filters="sRGB" filterUnits="userSpaceOnUse" height="1.5" width="2.351" x="10.821" y="17.922"><feFlood flood-opacity="0" result="BackgroundImageFix"/><feBlend in="SourceGraphic" in2="BackgroundImageFix" mode="normal" result="shape"/><feGaussianBlur result="effect1_foregroundBlur_18_29109" stdDeviation=".125"/></filter><filter id="g" color-interpolation-filters="sRGB" filterUnits="userSpaceOnUse" height="2" width="2" x="8.836" y="15.117"><feFlood flood-opacity="0" result="BackgroundImageFix"/><feBlend in="SourceGraphic" in2="BackgroundImageFix" mode="normal" result="shape"/><feGaussianBlur result="effect1_foregroundBlur_18_29109" stdDeviation=".125"/></filter><filter id="h" color-interpolation-filters="sRGB" filterUnits="userSpaceOnUse" height="2" width="2" x="19.864" y="13.098"><feFlood flood-opacity="0" result="BackgroundImageFix"/><feBlend in="SourceGraphic" in2="BackgroundImageFix" mode="normal" result="shape"/><feGaussianBlur result="effect1_foregroundBlur_18_29109" stdDeviation=".125"/></filter><filter id="i" color-interpolation-filters="sRGB" filterUnits="userSpaceOnUse" height="2" width="2" x="13.906" y="8.094"><feFlood flood-opacity="0" result="BackgroundImageFix"/><feBlend in="SourceGraphic" in2="BackgroundImageFix" mode="normal" result="shape"/><feGaussianBlur result="effect1_foregroundBlur_18_29109" stdDeviation=".125"/></filter><filter id="j" color-interpolation-filters="sRGB" filterUnits="userSpaceOnUse" height="6.745" width="6.745" x="10.422" y="10.878"><feFlood flood-opacity="0" result="BackgroundImageFix"/><feBlend in="SourceGraphic" in2="BackgroundImageFix" mode="normal" result="shape"/><feGaussianBlur result="effect1_foregroundBlur_18_29109" stdDeviation=".125"/></filter><filter id="k" color-interpolation-filters="sRGB" filterUnits="userSpaceOnUse" height="5.063" width="5.313" x="11.844" y="11.031"><feFlood flood-opacity="0" result="BackgroundImageFix"/><feBlend in="SourceGraphic" in2="BackgroundImageFix" mode="normal" result="shape"/><feGaussianBlur result="effect1_foregroundBlur_18_29109" stdDeviation=".375"/></filter><filter id="l" color-interpolation-filters="sRGB" filterUnits="userSpaceOnUse" height="5.047" width="2.188" x="2.891" y="14.344"><feFlood flood-opacity="0" result="BackgroundImageFix"/><feBlend in="SourceGraphic" in2="BackgroundImageFix" mode="normal" result="shape"/><feGaussianBlur result="effect1_foregroundBlur_18_29109" stdDeviation=".125"/></filter><filter id="m" color-interpolation-filters="sRGB" filterUnits="userSpaceOnUse" height="5.797" width="2.438" x="27.5" y="13.875"><feFlood flood-opacity="0" result="BackgroundImageFix"/><feBlend in="SourceGraphic" in2="BackgroundImageFix" mode="normal" result="shape"/><feGaussianBlur result="effect1_foregroundBlur_18_29109" stdDeviation=".125"/></filter><linearGradient id="n" gradientUnits="userSpaceOnUse" x1="7" x2="1.781" y1="16.25" y2="16.25"><stop offset="0" stop-color="#8e8d8f"/><stop offset="1" stop-color="#939099"/></linearGradient><linearGradient id="o" gradientUnits="userSpaceOnUse" x1="25" x2="32.875" y1="17" y2="17"><stop offset="0" stop-color="#898391"/><stop offset=".397" stop-color="#8c8695"/><stop offset="1" stop-color="#898391" stop-opacity="0"/></linearGradient><linearGradient id="p" gradientUnits="userSpaceOnUse" x1="6.781" x2="1.813" y1="16.188" y2="16.188"><stop offset="0" stop-color="#7b6999"/><stop offset=".237" stop-color="#7f7098"/><stop offset=".748" stop-color="#a59db4"/></linearGradient><linearGradient id="q" gradientUnits="userSpaceOnUse" x1="25.505" x2="25.505" y1="20.438" y2="13.5"><stop offset="0" stop-color="#bab4c6"/><stop offset=".739" stop-color="#d3d3d8"/><stop offset="1" stop-color="#b6b6bc"/></linearGradient><linearGradient id="r" gradientUnits="userSpaceOnUse" x1="7" x2="25" y1="21.25" y2="21.25"><stop offset="0" stop-color="#837c8b"/><stop offset=".139" stop-color="#87799a"/><stop offset=".528" stop-color="#9280ad"/><stop offset="1" stop-color="#cac7cf"/></linearGradient><linearGradient id="s" gradientUnits="userSpaceOnUse" x1="16" x2="16" y1="5" y2="23.531"><stop offset="0" stop-color="#d0cbd8"/><stop offset="1" stop-color="#cbc4d5"/></linearGradient><linearGradient id="t" gradientUnits="userSpaceOnUse" x1="7.766" x2="24.219" y1="11.188" y2="11.188"><stop offset="0" stop-color="#ecc1bc"/><stop offset=".508" stop-color="#a788a2"/><stop offset="1" stop-color="#9a7079"/></linearGradient><radialGradient id="u" cx="0" cy="0" gradientTransform="matrix(13.90622784 2.71874191 -2.04323446 10.45104129 10.6875 13.625)" gradientUnits="userSpaceOnUse" r="1"><stop offset="0" stop-color="#ff8b45"/><stop offset=".902" stop-color="#ff8144"/><stop offset=".96" stop-color="#b9462d"/></radialGradient><radialGradient id="v" cx="0" cy="0" gradientTransform="matrix(4.0312503 -1.00000088 1.00000088 4.0312503 17.8125 18)" gradientUnits="userSpaceOnUse" r="1"><stop offset="0" stop-color="#de9a2b"/><stop offset=".509" stop-color="#ffd53c"/><stop offset="1" stop-color="#fff15a"/></radialGradient><radialGradient id="w" cx="0" cy="0" gradientTransform="matrix(-.06250157 1.78125379 -2.58837708 -.09082234 20.7813 11)" gradientUnits="userSpaceOnUse" r="1"><stop offset="0" stop-color="#63be6c"/><stop offset=".469" stop-color="#64bf6c"/><stop offset="1" stop-color="#55a649"/></radialGradient><radialGradient id="x" cx="0" cy="0" gradientTransform="matrix(0 1.85938 -2.99899 0 17.4531 11.3125)" gradientUnits="userSpaceOnUse" r="1"><stop offset="0" stop-color="#82e270"/><stop offset=".193" stop-color="#7ad263"/><stop offset=".63" stop-color="#619f39"/></radialGradient><radialGradient id="y" cx="0" cy="0" gradientTransform="matrix(2.0156203 -.49999924 .49999924 2.0156203 10.9062 19)" gradientUnits="userSpaceOnUse" r="1"><stop offset="0" stop-color="#de9a2b"/><stop offset=".605" stop-color="#ffd53c"/><stop offset="1" stop-color="#fff15a"/></radialGradient><radialGradient id="z" cx="0" cy="0" gradientTransform="matrix(-.1250015 2.03124738 -2.9516562 -.18164279 16.7813 20)" gradientUnits="userSpaceOnUse" r="1"><stop offset="0" stop-color="#63be6c"/><stop offset=".329" stop-color="#64bf6c"/><stop offset=".851" stop-color="#4c9840"/></radialGradient><linearGradient id="A"><stop offset="0" stop-color="#ff877f"/><stop offset=".472" stop-color="#f1412e"/><stop offset="1" stop-color="#bd3f25"/></linearGradient><radialGradient id="B" cx="0" cy="0" gradientTransform="matrix(-.33169013 .87502014 -.87502014 -.33169013 10.3317 15.875)" gradientUnits="userSpaceOnUse" r="1" xlink:href="#A"/><radialGradient id="C" cx="0" cy="0" gradientTransform="matrix(-.33169013 .87502014 -.87502014 -.33169013 15.3317 8.87498)" gradientUnits="userSpaceOnUse" r="1" xlink:href="#A"/><radialGradient id="D" cx="0" cy="0" gradientTransform="matrix(-.33169013 .87502014 -.87502014 -.33169013 21.3317 13.875)" gradientUnits="userSpaceOnUse" r="1" xlink:href="#A"/><radialGradient id="E" cx="0" cy="0" gradientTransform="matrix(-.81634489 4.15825553 -4.15825553 -.81634489 14.75 13.0625)" gradientUnits="userSpaceOnUse" r="1"><stop offset="0" stop-color="#c86d42"/><stop offset=".465" stop-color="#b06446"/><stop offset=".773" stop-color="#8b543e"/><stop offset=".969" stop-color="#8d482d"/></radialGradient><linearGradient id="F" gradientUnits="userSpaceOnUse" x1="12.781" x2="15.875" y1="12.156" y2="14.969"><stop offset="0" stop-color="#f1a78f"/><stop offset=".721" stop-color="#cf8b73"/><stop offset="1" stop-color="#d99a87"/></linearGradient><radialGradient id="G" cx="0" cy="0" gradientTransform="matrix(3.07813 0 0 2.75 3.26563 17.0938)" gradientUnits="userSpaceOnUse" r="1"><stop offset="0" stop-color="#aea6bc"/><stop offset="1" stop-color="#aca5bb" stop-opacity="0"/></radialGradient><radialGradient id="H" cx="0" cy="0" gradientTransform="matrix(-4.15624607 .62797954 -.62356037 -4.12699804 29.2188 16.5031)" gradientUnits="userSpaceOnUse" r="1"><stop offset="0" stop-color="#e3e2e9"/><stop offset="1" stop-color="#e1e0e7" stop-opacity="0"/></radialGradient><path clip-rule="evenodd" d="m2 17c0-2.2091 1.79086-4 4-4h6v8h-6c-2.20914 0-4-1.7909-4-4zm4-2c-1.10457 0-2 .8954-2 2s.89543 2 2 2h4v-4z" fill="url(#n)" fill-rule="evenodd"/><path clip-rule="evenodd" d="m20 13h6c2.2091 0 4 1.7909 4 4s-1.7909 4-4 4h-6zm2 2v4h4c1.1046 0 2-.8954 2-2s-.8954-2-2-2z" fill="url(#o)" fill-rule="evenodd"/><g filter="url(#a)"><path clip-rule="evenodd" d="m4.53511 15.1976c-.39822.2664-.81636.7666-.81636 1.8336 0 .7863.35263 1.3166.7957 1.6699.47397.3779 1.00962.5177 1.24336.5177h1.60157c.41421 0 .75.3357.75.75 0 .4142-.33579.75-.75.75h-1.60157c-.61 0-1.46888-.2791-2.17851-.8449-.74053-.5905-1.36055-1.5289-1.36055-2.8427 0-1.5579.65998-2.5303 1.48247-3.0804.7723-.5165 1.61488-.6149 1.99413-.6149h1.94426l.00101.75v.75h-1.94534c-.19107 0-.71176.0618-1.16017.3617zm3.85551-1.1117c.00001.4142-.33578.75-.75.75v-.75l-.00101-.75c.41422 0 .75101.3358.75101.75z" fill="url(#p)" fill-rule="evenodd"/></g><g filter="url(#b)"><path clip-rule="evenodd" d="m27.9093 15.2592c.398.3449.7938.9093.7938 1.8346 0 .8952-.3572 1.4005-.7124 1.6952-.3861.3203-1.2443.4298-1.4924.4298h-1.5539c-.4142 0-.75.3357-.75.75 0 .4142.3358.75.75.75h1.5539c.5704 0 1.3766-.2148 2.0523-.7754.7066-.5861 1.2306-1.5184 1.2306-2.8496 0-1.3951-.5878-2.362-1.2875-2.9683-.5146-.4458-1.2343-.8443-1.9348-.8442h-1.8864l-.001.7499v.6211h1.7894c.4922 0 1.1555.3532 1.4484.6069zm-3.9878-1.228c0 .4142.3358.6211.75.6211v-.6211l.001-.7499c-.4142-.0001-.751.3357-.751.7499z" fill="url(#q)" fill-rule="evenodd"/></g><path d="m7 14h18v7c0 4.9706-4.0294 9-9 9-4.9706 0-9-4.0294-9-9z" fill="url(#r)"/><ellipse cx="16" cy="14.266" fill="url(#s)" rx="9" ry="9.266"/><ellipse cx="15.992" cy="14.25" fill="url(#t)" rx="8.227" ry="8.25"/><ellipse cx="15.992" cy="14.563" fill="url(#u)" rx="8.227" ry="7.938"/><g filter="url(#c)"><path d="m20 16.1094c-.6429 0-1.7821.9339-1.9726 1.7687-.0293.1282.074.238.2053.2451.3391.0184 1.0116.0487 1.7673.0487s1.4282-.0303 1.7673-.0487c.1313-.0071.2341-.1172.2027-.2448-.1911-.7788-1.2541-1.769-1.97-1.769z" fill="#eb502e"/></g><g filter="url(#d)"><path d="m16 19.1719c-.6429 0-1.7821.9339-1.9726 1.7687-.0293.1282.074.238.2053.2451.3391.0184 1.0116.0487 1.7673.0487s1.4282-.0303 1.7673-.0487c.1313-.0071.2341-.1172.2027-.2448-.1911-.7788-1.2541-1.769-1.97-1.769z" fill="#eb502e"/></g><path d="m20 16c-1.0201 0-1.8618.7637-1.9846 1.7505-.017.137.0965.2495.2346.2495h3.5c.1381 0 .2516-.1125.2346-.2495-.1228-.9868-.9645-1.7505-1.9846-1.7505z" fill="url(#v)"/><g filter="url(#e)"><path clip-rule="evenodd" d="m17.9853 12.1562c0-1.0873.8861-1.9687 1.9792-1.9687 1.0081 0 1.8401.7497 1.9634 1.7193.0174.1369-.0962.2494-.2343.2494zm-1.9479-.2473c.1103-.4239.4974-.737.9581-.737.5465 0 .9896.4407.9896.9843h-1.7292c-.1381 0-.2533-.1137-.2185-.2473z" fill="#f15c31" fill-rule="evenodd"/></g><path d="m20 10c-1.1046 0-2 .8954-2 2h3.75c.1381 0 .2516-.1125.2346-.2495-.1228-.9868-.9645-1.7505-1.9846-1.7505z" fill="url(#w)"/><path d="m17 11c-.4669 0-.859.3199-.9691.7525-.0341.1338.081.2475.2191.2475h1.75c0-.5523-.4477-1-1-1z" fill="url(#x)"/><g filter="url(#f)"><path d="m11.9961 18.1719c-.4431 0-.8153.3198-.9199.7523-.0324.1342.0826.2477.2207.2477h1.3984c.1381 0 .2531-.1135.2207-.2477-.1047-.4325-.4768-.7523-.9199-.7523z" fill="#f1512a"/></g><path d="m12 18c-.4669 0-.859.3199-.9691.7525-.0341.1338.081.2475.2191.2475h1.5c.1381 0 .2532-.1137.2191-.2475-.1101-.4326-.5022-.7525-.9691-.7525z" fill="url(#y)"/><path d="m16 19c-1.0201 0-1.8618.7637-1.9846 1.7505-.017.137.0965.2495.2346.2495h3.5c.1381 0 .2516-.1125.2346-.2495-.1228-.9868-.9645-1.7505-1.9846-1.7505z" fill="url(#z)"/><g filter="url(#g)"><circle cx="9.836" cy="16.117" fill="#e44f2e" r=".75"/></g><g filter="url(#h)"><circle cx="20.864" cy="14.098" fill="#e44f2e" r=".75"/></g><circle cx="10" cy="16" fill="url(#B)" r=".75"/><g filter="url(#i)"><circle cx="14.906" cy="9.094" fill="#e44f2e" r=".75"/></g><circle cx="15" cy="9" fill="url(#C)" r=".75"/><circle cx="21" cy="14" fill="url(#D)" r=".75"/><g filter="url(#j)"><path clip-rule="evenodd" d="m12.4219 11.1276c.9665 0 1.75.7835 1.75 1.75 0 .5494.4454.9948.9948.9948.9665 0 1.75.7835 1.75 1.75s-.7835 1.75-1.75 1.75c-2.4824 0-4.4948-2.0124-4.4948-4.4948 0-.9665.7835-1.75 1.75-1.75z" fill="#d95b39" fill-rule="evenodd"/></g><path clip-rule="evenodd" d="m12.5613 10.976c.9665 0 1.75.7835 1.75 1.75 0 .5494.4454.9948.9948.9948.9665 0 1.75.7835 1.75 1.75s-.7835 1.75-1.75 1.75c-2.4824 0-4.4948-2.0124-4.4948-4.4948 0-.9665.7835-1.75 1.75-1.75z" fill="url(#E)" fill-rule="evenodd"/><g filter="url(#k)"><path d="m12.9688 12.1562c.0572.4532.225 1.3969.9374 2.1094.7125.7125 2.125.7032 2.125.7032" stroke="url(#F)" stroke-linecap="round" stroke-width=".75"/></g><g filter="url(#l)"><path d="m4.29688 19.0156c-.33855-.2656-1.03126-1.1625-1.03126-2.0625 0-1.7812 1.4375-2.2343 1.4375-2.2343" stroke="url(#G)" stroke-linecap="round" stroke-width=".25"/></g><g filter="url(#m)"><path d="m28.4062 19.1719c.3386-.2966 1.0313-1.2978 1.0313-2.3025 0-1.9885-1.4375-2.4944-1.4375-2.4944" stroke="url(#H)" stroke-linecap="round" stroke-width=".5"/></g></svg>