<svg fill="none" height="32" viewBox="0 0 32 32" width="32" xmlns="http://www.w3.org/2000/svg" xmlns:xlink="http://www.w3.org/1999/xlink"><filter id="a" color-interpolation-filters="sRGB" filterUnits="userSpaceOnUse" height="23.801" width="11.785" x="10.227" y="3.974"><feFlood flood-opacity="0" result="BackgroundImageFix"/><feBlend in="SourceGraphic" in2="BackgroundImageFix" mode="normal" result="shape"/><feColorMatrix in="SourceAlpha" result="hardAlpha" type="matrix" values="0 0 0 0 0 0 0 0 0 0 0 0 0 0 0 0 0 0 127 0"/><feOffset dx=".25" dy="-.25"/><feGaussianBlur stdDeviation=".25"/><feComposite in2="hardAlpha" k2="-1" k3="1" operator="arithmetic"/><feColorMatrix type="matrix" values="0 0 0 0 0.447059 0 0 0 0 0.439216 0 0 0 0 0.466667 0 0 0 1 0"/><feBlend in2="shape" mode="normal" result="effect1_innerShadow_4_7843"/></filter><filter id="b" color-interpolation-filters="sRGB" filterUnits="userSpaceOnUse" height="23.151" width="11.135" x="10.622" y="4.284"><feFlood flood-opacity="0" result="BackgroundImageFix"/><feBlend in="SourceGraphic" in2="BackgroundImageFix" mode="normal" result="shape"/><feGaussianBlur result="effect1_foregroundBlur_4_7843" stdDeviation=".1"/></filter><filter id="c" color-interpolation-filters="sRGB" filterUnits="userSpaceOnUse" height="11.123" width="8.48" x="2.788" y="11.214"><feFlood flood-opacity="0" result="BackgroundImageFix"/><feBlend in="SourceGraphic" in2="BackgroundImageFix" mode="normal" result="shape"/><feColorMatrix in="SourceAlpha" result="hardAlpha" type="matrix" values="0 0 0 0 0 0 0 0 0 0 0 0 0 0 0 0 0 0 127 0"/><feOffset dx=".1" dy="-.1"/><feGaussianBlur stdDeviation=".2"/><feComposite in2="hardAlpha" k2="-1" k3="1" operator="arithmetic"/><feColorMatrix type="matrix" values="0 0 0 0 0.670588 0 0 0 0 0.611765 0 0 0 0 0.733333 0 0 0 1 0"/><feBlend in2="shape" mode="normal" result="effect1_innerShadow_4_7843"/></filter><filter id="d" color-interpolation-filters="sRGB" filterUnits="userSpaceOnUse" height="3.752" width="2.478" x="8.691" y="17.165"><feFlood flood-opacity="0" result="BackgroundImageFix"/><feBlend in="SourceGraphic" in2="BackgroundImageFix" mode="normal" result="shape"/><feColorMatrix in="SourceAlpha" result="hardAlpha" type="matrix" values="0 0 0 0 0 0 0 0 0 0 0 0 0 0 0 0 0 0 127 0"/><feOffset/><feGaussianBlur stdDeviation=".15"/><feComposite in2="hardAlpha" k2="-1" k3="1" operator="arithmetic"/><feColorMatrix type="matrix" values="0 0 0 0 0.72549 0 0 0 0 0.67451 0 0 0 0 0.780392 0 0 0 1 0"/><feBlend in2="shape" mode="normal" result="effect1_innerShadow_4_7843"/></filter><filter id="e" color-interpolation-filters="sRGB" filterUnits="userSpaceOnUse" height="23.801" width="12.035" x="11.155" y="3.974"><feFlood flood-opacity="0" result="BackgroundImageFix"/><feBlend in="SourceGraphic" in2="BackgroundImageFix" mode="normal" result="shape"/><feColorMatrix in="SourceAlpha" result="hardAlpha" type="matrix" values="0 0 0 0 0 0 0 0 0 0 0 0 0 0 0 0 0 0 127 0"/><feOffset dx=".5" dy="-.25"/><feGaussianBlur stdDeviation=".25"/><feComposite in2="hardAlpha" k2="-1" k3="1" operator="arithmetic"/><feColorMatrix type="matrix" values="0 0 0 0 0.447059 0 0 0 0 0.439216 0 0 0 0 0.466667 0 0 0 1 0"/><feBlend in2="shape" mode="normal" result="effect1_innerShadow_4_7843"/></filter><filter id="f" color-interpolation-filters="sRGB" filterUnits="userSpaceOnUse" height="23.151" width="11.135" x="11.524" y="4.284"><feFlood flood-opacity="0" result="BackgroundImageFix"/><feBlend in="SourceGraphic" in2="BackgroundImageFix" mode="normal" result="shape"/><feGaussianBlur result="effect1_foregroundBlur_4_7843" stdDeviation=".1"/></filter><filter id="g" color-interpolation-filters="sRGB" filterUnits="userSpaceOnUse" height="11.323" width="8.83" x="21.449" y="11.114"><feFlood flood-opacity="0" result="BackgroundImageFix"/><feBlend in="SourceGraphic" in2="BackgroundImageFix" mode="normal" result="shape"/><feColorMatrix in="SourceAlpha" result="hardAlpha" type="matrix" values="0 0 0 0 0 0 0 0 0 0 0 0 0 0 0 0 0 0 127 0"/><feOffset dx=".15" dy="-.2"/><feGaussianBlur stdDeviation=".25"/><feComposite in2="hardAlpha" k2="-1" k3="1" operator="arithmetic"/><feColorMatrix type="matrix" values="0 0 0 0 0.729412 0 0 0 0 0.662745 0 0 0 0 0.8 0 0 0 1 0"/><feBlend in2="shape" mode="normal" result="effect1_innerShadow_4_7843"/><feColorMatrix in="SourceAlpha" result="hardAlpha" type="matrix" values="0 0 0 0 0 0 0 0 0 0 0 0 0 0 0 0 0 0 127 0"/><feOffset dx="-.3" dy=".1"/><feGaussianBlur stdDeviation=".15"/><feComposite in2="hardAlpha" k2="-1" k3="1" operator="arithmetic"/><feColorMatrix type="matrix" values="0 0 0 0 1 0 0 0 0 1 0 0 0 0 1 0 0 0 1 0"/><feBlend in2="effect1_innerShadow_4_7843" mode="normal" result="effect2_innerShadow_4_7843"/></filter><filter id="h" color-interpolation-filters="sRGB" filterUnits="userSpaceOnUse" height="3.752" width="2.628" x="21.749" y="17.165"><feFlood flood-opacity="0" result="BackgroundImageFix"/><feBlend in="SourceGraphic" in2="BackgroundImageFix" mode="normal" result="shape"/><feColorMatrix in="SourceAlpha" result="hardAlpha" type="matrix" values="0 0 0 0 0 0 0 0 0 0 0 0 0 0 0 0 0 0 127 0"/><feOffset dx=".15"/><feGaussianBlur stdDeviation=".15"/><feComposite in2="hardAlpha" k2="-1" k3="1" operator="arithmetic"/><feColorMatrix type="matrix" values="0 0 0 0 0.694118 0 0 0 0 0.666667 0 0 0 0 0.721569 0 0 0 1 0"/><feBlend in2="shape" mode="normal" result="effect1_innerShadow_4_7843"/></filter><filter id="i" color-interpolation-filters="sRGB" filterUnits="userSpaceOnUse" height="12.73" width="10.702" x="16.789" y="5.741"><feFlood flood-opacity="0" result="BackgroundImageFix"/><feBlend in="SourceGraphic" in2="BackgroundImageFix" mode="normal" result="shape"/><feColorMatrix in="SourceAlpha" result="hardAlpha" type="matrix" values="0 0 0 0 0 0 0 0 0 0 0 0 0 0 0 0 0 0 127 0"/><feOffset dx="-.1" dy=".25"/><feGaussianBlur stdDeviation=".125"/><feComposite in2="hardAlpha" k2="-1" k3="1" operator="arithmetic"/><feColorMatrix type="matrix" values="0 0 0 0 0.984314 0 0 0 0 0.960784 0 0 0 0 1 0 0 0 1 0"/><feBlend in2="shape" mode="normal" result="effect1_innerShadow_4_7843"/></filter><linearGradient id="j" gradientUnits="userSpaceOnUse" x1="6.684" x2="8.778" y1="21.838" y2="15.619"><stop offset=".066" stop-color="#d5c9e2"/><stop offset="1" stop-color="#beb1cb"/></linearGradient><linearGradient id="k" gradientUnits="userSpaceOnUse" x1="9.465" x2="6.403" y1="18.744" y2="19.994"><stop offset=".374" stop-color="#b2a3c1"/><stop offset="1" stop-color="#b2a3c1" stop-opacity="0"/></linearGradient><linearGradient id="l" gradientUnits="userSpaceOnUse" x1="7.621" x2="8.871" y1="15.744" y2="15.15"><stop offset=".559" stop-color="#baaec7"/><stop offset="1" stop-color="#baaec7" stop-opacity="0"/></linearGradient><linearGradient id="m" gradientUnits="userSpaceOnUse" x1="7.84" x2="7.981" y1="7.361" y2="7.658"><stop offset="0" stop-color="#c6c2ca"/><stop offset=".994" stop-color="#c6c2ca" stop-opacity="0"/></linearGradient><linearGradient id="n" gradientUnits="userSpaceOnUse" x1="12.645" x2="12.52" y1="16.611" y2="16.346"><stop offset="0" stop-color="#bfb0cf"/><stop offset="1" stop-color="#bfb0cf" stop-opacity="0"/></linearGradient><linearGradient id="o" gradientUnits="userSpaceOnUse" x1="15.278" x2="14.528" y1="12.494" y2="12.854"><stop offset=".391" stop-color="#fff"/><stop offset="1" stop-color="#ebe2f6" stop-opacity="0"/></linearGradient><linearGradient id="p" gradientUnits="userSpaceOnUse" x1="7.496" x2="8.324" y1="14.51" y2="14.072"><stop offset=".198" stop-color="#b8232b"/><stop offset="1" stop-color="#b8232b" stop-opacity="0"/></linearGradient><linearGradient id="q" gradientUnits="userSpaceOnUse" x1="23.309" x2="23.153" y1="17.963" y2="19.588"><stop offset="0" stop-color="#b5a9bf"/><stop offset="1" stop-color="#b5a9bf" stop-opacity="0"/></linearGradient><linearGradient id="r" gradientUnits="userSpaceOnUse" x1="23.5" x2="23.2" y1="19.404" y2="19.268"><stop offset="0" stop-color="#e5d9f2"/><stop offset="1" stop-color="#c7bcd2"/></linearGradient><linearGradient id="s" gradientUnits="userSpaceOnUse" x1="25.551" x2="24.02" y1="15.744" y2="15.025"><stop offset=".271" stop-color="#f0e6fa"/><stop offset="1" stop-color="#f0e6fa" stop-opacity="0"/></linearGradient><linearGradient id="t" gradientUnits="userSpaceOnUse" x1="18.77" x2="19.551" y1="10.4" y2="10.744"><stop offset=".099" stop-color="#bab5be"/><stop offset="1" stop-color="#dbd1e6" stop-opacity="0"/></linearGradient><linearGradient id="u" gradientUnits="userSpaceOnUse" x1="20.395" x2="20.691" y1="16.713" y2="16.104"><stop offset="0" stop-color="#ad9dbe"/><stop offset="1" stop-color="#ad9dbe" stop-opacity="0"/></linearGradient><linearGradient id="v" gradientUnits="userSpaceOnUse" x1=".158" x2="1.221" y1="3.719" y2="3.188"><stop offset=".482" stop-color="#e8333e"/><stop offset="1" stop-color="#e8333e" stop-opacity="0"/></linearGradient><g filter="url(#a)"><path d="m10.7268 4.72461 10.5352 22.55079" stroke="#959498" stroke-linecap="round"/></g><g filter="url(#b)"><path d="m10.9221 4.58398 10.5352 22.55082" stroke="#b3b2b7" stroke-linecap="round" stroke-width=".2"/></g><g filter="url(#c)"><path d="m2.87568 14.3269c-.22551-.5042.00037-1.0957.50452-1.3212l3.78116-1.6913 3.97174 8.8792c.0902.2016-.0001.4382-.2018.5284l-3.41602 1.5281c-.50414.2255-1.09565-.0004-1.32116-.5046z" fill="url(#j)"/><path d="m2.87568 14.3269c-.22551-.5042.00037-1.0957.50452-1.3212l3.78116-1.6913 3.97174 8.8792c.0902.2016-.0001.4382-.2018.5284l-3.41602 1.5281c-.50414.2255-1.09565-.0004-1.32116-.5046z" fill="url(#k)"/></g><g filter="url(#d)"><path d="m8.69056 17.6513 1.08772-.4866 1.35482 3.0289c.0902.2016-.0001.4382-.2018.5284l-.3575.1599c-.2016.0902-.4382-.0001-.5284-.2018z" fill="#efe6f8"/></g><path d="m8.50635 17.9901-2.62888-5.6294c-.10248-.2194-.00701-.4803.21288-.5818.17329-.08.25045-.2842.17336-.4588l-.76073-1.72307c-.22045-.49932.00022-1.08317.49582-1.31187l5.4345-2.50775c.1993-.09197.4355-.00614.5293.19232l4.0188 8.50587c.0945.2.0087.4387-.1914.5328l-6.75101 3.1745c-.20029.0941-.43899.0078-.53264-.1928z" fill="#e5dcf0"/><path d="m8.50635 17.9901-2.62888-5.6294c-.10248-.2194-.00701-.4803.21288-.5818.17329-.08.25045-.2842.17336-.4588l-.76073-1.72307c-.22045-.49932.00022-1.08317.49582-1.31187l5.4345-2.50775c.1993-.09197.4355-.00614.5293.19232l4.0188 8.50587c.0945.2.0087.4387-.1914.5328l-6.75101 3.1745c-.20029.0941-.43899.0078-.53264-.1928z" fill="url(#l)"/><path d="m8.50635 17.9901-2.62888-5.6294c-.10248-.2194-.00701-.4803.21288-.5818.17329-.08.25045-.2842.17336-.4588l-.76073-1.72307c-.22045-.49932.00022-1.08317.49582-1.31187l5.4345-2.50775c.1993-.09197.4355-.00614.5293.19232l4.0188 8.50587c.0945.2.0087.4387-.1914.5328l-6.75101 3.1745c-.20029.0941-.43899.0078-.53264-.1928z" fill="url(#m)"/><path d="m8.50635 17.9901-2.62888-5.6294c-.10248-.2194-.00701-.4803.21288-.5818.17329-.08.25045-.2842.17336-.4588l-.76073-1.72307c-.22045-.49932.00022-1.08317.49582-1.31187l5.4345-2.50775c.1993-.09197.4355-.00614.5293.19232l4.0188 8.50587c.0945.2.0087.4387-.1914.5328l-6.75101 3.1745c-.20029.0941-.43899.0078-.53264-.1928z" fill="url(#n)"/><path d="m8.50635 17.9901-2.62888-5.6294c-.10248-.2194-.00701-.4803.21288-.5818.17329-.08.25045-.2842.17336-.4588l-.76073-1.72307c-.22045-.49932.00022-1.08317.49582-1.31187l5.4345-2.50775c.1993-.09197.4355-.00614.5293.19232l4.0188 8.50587c.0945.2.0087.4387-.1914.5328l-6.75101 3.1745c-.20029.0941-.43899.0078-.53264-.1928z" fill="url(#o)"/><g filter="url(#e)"><path d="m22.19 4.72461-10.5351 22.55079" stroke="#959498" stroke-linecap="round"/></g><g filter="url(#f)"><path d="m22.3596 4.58398-10.5351 22.55082" stroke="#b3b2b7" stroke-linecap="round" stroke-width=".2"/></g><circle cx="9.559" cy="13.447" fill="#dd3240" r="2.266"/><circle cx="9.559" cy="13.447" fill="url(#p)" r="2.266"/><g filter="url(#g)"><path d="m30.0412 14.3269c.2255-.5042-.0004-1.0957-.5045-1.3212l-3.7812-1.6913-3.9718 8.8792c-.0902.2016.0002.4382.2018.5284l3.4161 1.5281c.5041.2255 1.0956-.0004 1.3211-.5046z" fill="#ede2f8"/></g><g filter="url(#h)"><path d="m24.2263 17.6513-1.0877-.4866-1.3549 3.0289c-.0902.2016.0002.4382.2018.5284l.3575.1599c.2017.0902.4383-.0001.5285-.2018z" fill="#c7bcd2"/><path d="m24.2263 17.6513-1.0877-.4866-1.3549 3.0289c-.0902.2016.0002.4382.2018.5284l.3575.1599c.2017.0902.4383-.0001.5285-.2018z" fill="url(#q)"/><path d="m24.2263 17.6513-1.0877-.4866-1.3549 3.0289c-.0902.2016.0002.4382.2018.5284l.3575.1599c.2017.0902.4383-.0001.5285-.2018z" fill="url(#r)"/></g><g filter="url(#i)"><path d="m24.4024 17.9901 2.6289-5.6294c.1024-.2194.007-.4803-.2129-.5818-.1733-.08-.2505-.2842-.1734-.4588l.7607-1.72307c.2205-.49932-.0002-1.08317-.4958-1.31187l-5.4345-2.50775c-.1993-.09197-.4355-.00614-.5293.19232l-4.0188 8.50587c-.0945.2-.0087.4387.1915.5328l6.7509 3.1745c.2003.0941.439.0078.5327-.1928z" fill="#e5dbf0"/><path d="m24.4024 17.9901 2.6289-5.6294c.1024-.2194.007-.4803-.2129-.5818-.1733-.08-.2505-.2842-.1734-.4588l.7607-1.72307c.2205-.49932-.0002-1.08317-.4958-1.31187l-5.4345-2.50775c-.1993-.09197-.4355-.00614-.5293.19232l-4.0188 8.50587c-.0945.2-.0087.4387.1915.5328l6.7509 3.1745c.2003.0941.439.0078.5327-.1928z" fill="url(#s)"/><path d="m24.4024 17.9901 2.6289-5.6294c.1024-.2194.007-.4803-.2129-.5818-.1733-.08-.2505-.2842-.1734-.4588l.7607-1.72307c.2205-.49932-.0002-1.08317-.4958-1.31187l-5.4345-2.50775c-.1993-.09197-.4355-.00614-.5293.19232l-4.0188 8.50587c-.0945.2-.0087.4387.1915.5328l6.7509 3.1745c.2003.0941.439.0078.5327-.1928z" fill="url(#t)"/><path d="m24.4024 17.9901 2.6289-5.6294c.1024-.2194.007-.4803-.2129-.5818-.1733-.08-.2505-.2842-.1734-.4588l.7607-1.72307c.2205-.49932-.0002-1.08317-.4958-1.31187l-5.4345-2.50775c-.1993-.09197-.4355-.00614-.5293.19232l-4.0188 8.50587c-.0945.2-.0087.4387.1915.5328l6.7509 3.1745c.2003.0941.439.0078.5327-.1928z" fill="url(#u)"/></g><g transform="matrix(-1 0 0 1 23.358 13.4473)"><circle fill="#dd3240" r="2.266"/><circle fill="url(#v)" r="2.266"/></g></svg>