<svg fill="none" height="32" viewBox="0 0 32 32" width="32" xmlns="http://www.w3.org/2000/svg" xmlns:xlink="http://www.w3.org/1999/xlink"><filter id="a" color-interpolation-filters="sRGB" filterUnits="userSpaceOnUse" height="19.53" width="28" x="2" y="3.791"><feFlood flood-opacity="0" result="BackgroundImageFix"/><feBlend in="SourceGraphic" in2="BackgroundImageFix" mode="normal" result="shape"/><feColorMatrix in="SourceAlpha" result="hardAlpha" type="matrix" values="0 0 0 0 0 0 0 0 0 0 0 0 0 0 0 0 0 0 127 0"/><feOffset dy=".25"/><feGaussianBlur stdDeviation=".25"/><feComposite in2="hardAlpha" k2="-1" k3="1" operator="arithmetic"/><feColorMatrix type="matrix" values="0 0 0 0 0.678431 0 0 0 0 0.258824 0 0 0 0 0.207843 0 0 0 1 0"/><feBlend in2="shape" mode="normal" result="effect1_innerShadow_18_8705"/><feColorMatrix in="SourceAlpha" result="hardAlpha" type="matrix" values="0 0 0 0 0 0 0 0 0 0 0 0 0 0 0 0 0 0 127 0"/><feOffset dy="-.25"/><feGaussianBlur stdDeviation=".25"/><feComposite in2="hardAlpha" k2="-1" k3="1" operator="arithmetic"/><feColorMatrix type="matrix" values="0 0 0 0 0.658824 0 0 0 0 0.184314 0 0 0 0 0.180392 0 0 0 1 0"/><feBlend in2="effect1_innerShadow_18_8705" mode="normal" result="effect2_innerShadow_18_8705"/></filter><filter id="b" color-interpolation-filters="sRGB" filterUnits="userSpaceOnUse" height="5.15" width="5.15" x="11.186" y="12.326"><feFlood flood-opacity="0" result="BackgroundImageFix"/><feBlend in="SourceGraphic" in2="BackgroundImageFix" mode="normal" result="shape"/><feColorMatrix in="SourceAlpha" result="hardAlpha" type="matrix" values="0 0 0 0 0 0 0 0 0 0 0 0 0 0 0 0 0 0 127 0"/><feOffset/><feGaussianBlur stdDeviation=".375"/><feComposite in2="hardAlpha" k2="-1" k3="1" operator="arithmetic"/><feColorMatrix type="matrix" values="0 0 0 0 0.690196 0 0 0 0 0.341176 0 0 0 0 0.219608 0 0 0 1 0"/><feBlend in2="shape" mode="normal" result="effect1_innerShadow_18_8705"/></filter><filter id="c" color-interpolation-filters="sRGB" filterUnits="userSpaceOnUse" height="5.15" width="5.15" x="15.551" y="7.961"><feFlood flood-opacity="0" result="BackgroundImageFix"/><feBlend in="SourceGraphic" in2="BackgroundImageFix" mode="normal" result="shape"/><feColorMatrix in="SourceAlpha" result="hardAlpha" type="matrix" values="0 0 0 0 0 0 0 0 0 0 0 0 0 0 0 0 0 0 127 0"/><feOffset/><feGaussianBlur stdDeviation=".375"/><feComposite in2="hardAlpha" k2="-1" k3="1" operator="arithmetic"/><feColorMatrix type="matrix" values="0 0 0 0 0.690196 0 0 0 0 0.341176 0 0 0 0 0.219608 0 0 0 1 0"/><feBlend in2="shape" mode="normal" result="effect1_innerShadow_18_8705"/></filter><filter id="d" color-interpolation-filters="sRGB" filterUnits="userSpaceOnUse" height="5.15" width="5.15" x="19.953" y="3.578"><feFlood flood-opacity="0" result="BackgroundImageFix"/><feBlend in="SourceGraphic" in2="BackgroundImageFix" mode="normal" result="shape"/><feColorMatrix in="SourceAlpha" result="hardAlpha" type="matrix" values="0 0 0 0 0 0 0 0 0 0 0 0 0 0 0 0 0 0 127 0"/><feOffset/><feGaussianBlur stdDeviation=".375"/><feComposite in2="hardAlpha" k2="-1" k3="1" operator="arithmetic"/><feColorMatrix type="matrix" values="0 0 0 0 0.690196 0 0 0 0 0.341176 0 0 0 0 0.219608 0 0 0 1 0"/><feBlend in2="shape" mode="normal" result="effect1_innerShadow_18_8705"/></filter><filter id="e" color-interpolation-filters="sRGB" filterUnits="userSpaceOnUse" height="1.32" width="1.32" x="14.976" y="14.236"><feFlood flood-opacity="0" result="BackgroundImageFix"/><feBlend in="SourceGraphic" in2="BackgroundImageFix" mode="normal" result="shape"/><feColorMatrix in="SourceAlpha" result="hardAlpha" type="matrix" values="0 0 0 0 0 0 0 0 0 0 0 0 0 0 0 0 0 0 127 0"/><feOffset/><feGaussianBlur stdDeviation=".125"/><feComposite in2="hardAlpha" k2="-1" k3="1" operator="arithmetic"/><feColorMatrix type="matrix" values="0 0 0 0 0.211765 0 0 0 0 0.0784314 0 0 0 0 0.203922 0 0 0 1 0"/><feBlend in2="shape" mode="normal" result="effect1_innerShadow_18_8705"/></filter><filter id="f" color-interpolation-filters="sRGB" filterUnits="userSpaceOnUse" height="1.32" width="1.32" x="19.341" y="9.871"><feFlood flood-opacity="0" result="BackgroundImageFix"/><feBlend in="SourceGraphic" in2="BackgroundImageFix" mode="normal" result="shape"/><feColorMatrix in="SourceAlpha" result="hardAlpha" type="matrix" values="0 0 0 0 0 0 0 0 0 0 0 0 0 0 0 0 0 0 127 0"/><feOffset/><feGaussianBlur stdDeviation=".125"/><feComposite in2="hardAlpha" k2="-1" k3="1" operator="arithmetic"/><feColorMatrix type="matrix" values="0 0 0 0 0.211765 0 0 0 0 0.0784314 0 0 0 0 0.203922 0 0 0 1 0"/><feBlend in2="shape" mode="normal" result="effect1_innerShadow_18_8705"/></filter><filter id="g" color-interpolation-filters="sRGB" filterUnits="userSpaceOnUse" height="1.32" width="1.32" x="23.743" y="5.488"><feFlood flood-opacity="0" result="BackgroundImageFix"/><feBlend in="SourceGraphic" in2="BackgroundImageFix" mode="normal" result="shape"/><feColorMatrix in="SourceAlpha" result="hardAlpha" type="matrix" values="0 0 0 0 0 0 0 0 0 0 0 0 0 0 0 0 0 0 127 0"/><feOffset/><feGaussianBlur stdDeviation=".125"/><feComposite in2="hardAlpha" k2="-1" k3="1" operator="arithmetic"/><feColorMatrix type="matrix" values="0 0 0 0 0.211765 0 0 0 0 0.0784314 0 0 0 0 0.203922 0 0 0 1 0"/><feBlend in2="shape" mode="normal" result="effect1_innerShadow_18_8705"/></filter><filter id="h" color-interpolation-filters="sRGB" filterUnits="userSpaceOnUse" height="1.32" width="1.32" x="13.106" y="16.106"><feFlood flood-opacity="0" result="BackgroundImageFix"/><feBlend in="SourceGraphic" in2="BackgroundImageFix" mode="normal" result="shape"/><feColorMatrix in="SourceAlpha" result="hardAlpha" type="matrix" values="0 0 0 0 0 0 0 0 0 0 0 0 0 0 0 0 0 0 127 0"/><feOffset/><feGaussianBlur stdDeviation=".125"/><feComposite in2="hardAlpha" k2="-1" k3="1" operator="arithmetic"/><feColorMatrix type="matrix" values="0 0 0 0 0.211765 0 0 0 0 0.0784314 0 0 0 0 0.203922 0 0 0 1 0"/><feBlend in2="shape" mode="normal" result="effect1_innerShadow_18_8705"/></filter><filter id="i" color-interpolation-filters="sRGB" filterUnits="userSpaceOnUse" height="1.32" width="1.32" x="17.471" y="11.741"><feFlood flood-opacity="0" result="BackgroundImageFix"/><feBlend in="SourceGraphic" in2="BackgroundImageFix" mode="normal" result="shape"/><feColorMatrix in="SourceAlpha" result="hardAlpha" type="matrix" values="0 0 0 0 0 0 0 0 0 0 0 0 0 0 0 0 0 0 127 0"/><feOffset/><feGaussianBlur stdDeviation=".125"/><feComposite in2="hardAlpha" k2="-1" k3="1" operator="arithmetic"/><feColorMatrix type="matrix" values="0 0 0 0 0.211765 0 0 0 0 0.0784314 0 0 0 0 0.203922 0 0 0 1 0"/><feBlend in2="shape" mode="normal" result="effect1_innerShadow_18_8705"/></filter><filter id="j" color-interpolation-filters="sRGB" filterUnits="userSpaceOnUse" height="1.32" width="1.32" x="21.873" y="7.358"><feFlood flood-opacity="0" result="BackgroundImageFix"/><feBlend in="SourceGraphic" in2="BackgroundImageFix" mode="normal" result="shape"/><feColorMatrix in="SourceAlpha" result="hardAlpha" type="matrix" values="0 0 0 0 0 0 0 0 0 0 0 0 0 0 0 0 0 0 127 0"/><feOffset/><feGaussianBlur stdDeviation=".125"/><feComposite in2="hardAlpha" k2="-1" k3="1" operator="arithmetic"/><feColorMatrix type="matrix" values="0 0 0 0 0.211765 0 0 0 0 0.0784314 0 0 0 0 0.203922 0 0 0 1 0"/><feBlend in2="shape" mode="normal" result="effect1_innerShadow_18_8705"/></filter><linearGradient id="k"><stop offset=".078" stop-color="#d8cede"/><stop offset="1" stop-color="#a091a0"/></linearGradient><linearGradient id="l" gradientUnits="userSpaceOnUse" x1="2.502" x2="2.502" xlink:href="#k" y1="29.436" y2="20.563"/><linearGradient id="m"><stop offset="0" stop-color="#706c72"/><stop offset="1" stop-color="#706c72" stop-opacity="0"/></linearGradient><linearGradient id="n" gradientUnits="userSpaceOnUse" x1="1.895" x2="2.5" xlink:href="#m" y1="27.452" y2="27.452"/><linearGradient id="o"><stop offset=".888" stop-color="#6f4e62" stop-opacity="0"/><stop offset=".969" stop-color="#6f4e62"/></linearGradient><radialGradient id="p" cx="0" cy="0" gradientTransform="matrix(5.23065641 -5.52592952 3.66317276 3.4674344 -1.63427 28.1413)" gradientUnits="userSpaceOnUse" r="1" xlink:href="#o"/><linearGradient id="q" gradientUnits="userSpaceOnUse" x1="5.502" x2="5.502" xlink:href="#k" y1="29.436" y2="21.442"/><linearGradient id="r" gradientUnits="userSpaceOnUse" x1="4.895" x2="5.5" xlink:href="#m" y1="27.649" y2="27.649"/><radialGradient id="s" cx="0" cy="0" gradientTransform="matrix(5.23064846 -4.97831206 3.3011015 3.46842489 1.36573 28.2698)" gradientUnits="userSpaceOnUse" r="1" xlink:href="#o"/><linearGradient id="t" gradientUnits="userSpaceOnUse" x1="8.502" x2="8.502" xlink:href="#k" y1="29.436" y2="21.442"/><linearGradient id="u" gradientUnits="userSpaceOnUse" x1="7.895" x2="8.5" xlink:href="#m" y1="27.649" y2="27.649"/><radialGradient id="v" cx="0" cy="0" gradientTransform="matrix(4.92130721 -5.87745339 3.89731724 3.26330031 4.5947 28.6053)" gradientUnits="userSpaceOnUse" r="1" xlink:href="#o"/><linearGradient id="w" gradientUnits="userSpaceOnUse" x1="11.502" x2="11.502" y1="29.436" y2="20.293"><stop offset=".078" stop-color="#d8cede"/><stop offset=".746" stop-color="#a091a0"/><stop offset="1" stop-color="#998d96"/></linearGradient><linearGradient id="x" gradientUnits="userSpaceOnUse" x1="10.895" x2="11.5" xlink:href="#m" y1="27.392" y2="27.392"/><linearGradient id="y" gradientUnits="userSpaceOnUse" x1="14.502" x2="14.5" y1="29.435" y2="19.156"><stop offset=".078" stop-color="#d8cede"/><stop offset=".669" stop-color="#a091a0"/><stop offset="1" stop-color="#998d96"/></linearGradient><linearGradient id="z" gradientUnits="userSpaceOnUse" x1="13.895" x2="14.5" xlink:href="#m" y1="26.978" y2="26.978"/><linearGradient id="A" gradientUnits="userSpaceOnUse" x1="17.502" x2="17.499" y1="29.434" y2="16.314"><stop offset=".078" stop-color="#d8cede"/><stop offset=".669" stop-color="#a091a0"/><stop offset="1" stop-color="#999299"/></linearGradient><linearGradient id="B" gradientUnits="userSpaceOnUse" x1="16.895" x2="17.5" xlink:href="#m" y1="26.297" y2="26.297"/><linearGradient id="C"><stop offset=".078" stop-color="#d8cede"/><stop offset=".596" stop-color="#a091a0"/><stop offset="1" stop-color="#8a7d87"/></linearGradient><linearGradient id="D" gradientUnits="userSpaceOnUse" x1="20.502" x2="20.498" xlink:href="#C" y1="29.432" y2="13.5"/><linearGradient id="E" gradientUnits="userSpaceOnUse" x1="19.895" x2="20.5" xlink:href="#m" y1="25.623" y2="25.623"/><linearGradient id="F" gradientUnits="userSpaceOnUse" x1="23.502" x2="23.497" xlink:href="#C" y1="29.431" y2="10.602"/><linearGradient id="G" gradientUnits="userSpaceOnUse" x1="22.895" x2="23.5" xlink:href="#m" y1="24.929" y2="24.929"/><linearGradient id="H" gradientUnits="userSpaceOnUse" x1="26.502" x2="26.495" xlink:href="#C" y1="29.43" y2="7.844"/><linearGradient id="I" gradientUnits="userSpaceOnUse" x1="25.895" x2="26.714" xlink:href="#m" y1="24.269" y2="24.269"/><linearGradient id="J" gradientUnits="userSpaceOnUse" x1="29.502" x2="29.494" y1="29.429" y2="6.068"><stop offset=".078" stop-color="#d8cede"/><stop offset=".596" stop-color="#a091a0"/><stop offset="1" stop-color="#8d858d"/></linearGradient><linearGradient id="K" gradientUnits="userSpaceOnUse" x1="28.895" x2="29.718" y1="23.844" y2="23.844"><stop offset="0" stop-color="#5e565e"/><stop offset="1" stop-color="#706c72" stop-opacity="0"/></linearGradient><linearGradient id="L" gradientUnits="userSpaceOnUse" x1="7.162" x2="30" y1="21.165" y2="4.041"><stop offset="0" stop-color="#f24d3b"/><stop offset="1" stop-color="#f8783e"/></linearGradient><linearGradient id="M" gradientUnits="userSpaceOnUse" x1="30.327" x2="26.831" y1="4.681" y2="6.583"><stop offset="0" stop-color="#f87c3f"/><stop offset="1" stop-color="#f87c3f" stop-opacity="0"/></linearGradient><linearGradient id="N" gradientUnits="userSpaceOnUse" x1="1.59" x2="3.955" y1="21.182" y2="21.696"><stop offset="0" stop-color="#f5503e"/><stop offset="1" stop-color="#f5503e" stop-opacity="0"/></linearGradient><linearGradient id="O"><stop offset="0" stop-color="#ed4a30"/><stop offset="1" stop-color="#d77226"/></linearGradient><linearGradient id="P" gradientUnits="userSpaceOnUse" x1="14.75" x2="11.897" xlink:href="#O" y1="14.345" y2="16.941"/><linearGradient id="Q"><stop offset=".706" stop-color="#8b381a"/><stop offset="1" stop-color="#8b381a" stop-opacity="0"/></linearGradient><radialGradient id="R" cx="0" cy="0" gradientTransform="matrix(-.10816497 .72387838 -.64249095 -.09600372 13.6239 16.9796)" gradientUnits="userSpaceOnUse" r="1" xlink:href="#Q"/><linearGradient id="S"><stop offset=".585" stop-color="#8b110a"/><stop offset="1" stop-color="#8b110a" stop-opacity="0"/></linearGradient><radialGradient id="T" cx="0" cy="0" gradientTransform="matrix(-.22236904 .76014731 -.67468214 -.19736756 15.5209 15.1491)" gradientUnits="userSpaceOnUse" r="1" xlink:href="#S"/><linearGradient id="U" gradientUnits="userSpaceOnUse" x1="19.115" x2="16.262" xlink:href="#O" y1="9.98" y2="12.577"/><radialGradient id="V" cx="0" cy="0" gradientTransform="matrix(-.10816497 .72387838 -.64249095 -.09600372 17.9884 12.615)" gradientUnits="userSpaceOnUse" r="1" xlink:href="#Q"/><radialGradient id="W" cx="0" cy="0" gradientTransform="matrix(-.22236904 .76014731 -.67468214 -.19736756 19.8855 10.7845)" gradientUnits="userSpaceOnUse" r="1" xlink:href="#S"/><linearGradient id="X" gradientUnits="userSpaceOnUse" x1="23.517" x2="20.664" xlink:href="#O" y1="5.597" y2="8.193"/><radialGradient id="Y" cx="0" cy="0" gradientTransform="matrix(-.10816497 .72387838 -.64249095 -.09600372 22.3902 8.23182)" gradientUnits="userSpaceOnUse" r="1" xlink:href="#Q"/><radialGradient id="Z" cx="0" cy="0" gradientTransform="matrix(-.22236904 .76014731 -.67468214 -.19736756 24.2873 6.40132)" gradientUnits="userSpaceOnUse" r="1" xlink:href="#S"/><linearGradient id="aa"><stop offset="0" stop-color="#412654"/><stop offset="1" stop-color="#3b325e"/></linearGradient><linearGradient id="ab" gradientUnits="userSpaceOnUse" x1="14.729" x2="16.296" xlink:href="#aa" y1="14.896" y2="14.896"/><linearGradient id="ac"><stop offset=".806" stop-color="#3e3d66" stop-opacity="0"/><stop offset="1" stop-color="#3e3d66"/></linearGradient><radialGradient id="ad" cx="0" cy="0" gradientTransform="matrix(1.19857971 -.04672191 .03862647 .99090344 14.9761 14.9424)" gradientUnits="userSpaceOnUse" r="1" xlink:href="#ac"/><linearGradient id="ae" gradientUnits="userSpaceOnUse" x1="19.094" x2="20.661" xlink:href="#aa" y1="10.531" y2="10.531"/><radialGradient id="af" cx="0" cy="0" gradientTransform="matrix(1.19857971 -.04672191 .03862647 .99090344 19.3407 10.5778)" gradientUnits="userSpaceOnUse" r="1" xlink:href="#ac"/><linearGradient id="ag" gradientUnits="userSpaceOnUse" x1="23.496" x2="25.063" xlink:href="#aa" y1="6.148" y2="6.148"/><radialGradient id="ah" cx="0" cy="0" gradientTransform="matrix(1.19857971 -.04672191 .03862647 .99090344 23.7426 6.19463)" gradientUnits="userSpaceOnUse" r="1" xlink:href="#ac"/><linearGradient id="ai" gradientUnits="userSpaceOnUse" x1="12.859" x2="14.426" xlink:href="#aa" y1="16.766" y2="16.766"/><radialGradient id="aj" cx="0" cy="0" gradientTransform="matrix(1.19857969 -.04672254 .03862741 .99091441 13.1061 16.8124)" gradientUnits="userSpaceOnUse" r="1" xlink:href="#ac"/><linearGradient id="ak" gradientUnits="userSpaceOnUse" x1="17.224" x2="18.791" xlink:href="#aa" y1="12.401" y2="12.401"/><radialGradient id="al" cx="0" cy="0" gradientTransform="matrix(1.19857969 -.04672254 .03862741 .99091441 17.4707 12.4478)" gradientUnits="userSpaceOnUse" r="1" xlink:href="#ac"/><linearGradient id="am" gradientUnits="userSpaceOnUse" x1="21.626" x2="23.193" xlink:href="#aa" y1="8.018" y2="8.018"/><radialGradient id="an" cx="0" cy="0" gradientTransform="matrix(1.19857969 -.04672254 .03862741 .99091441 21.8726 8.06464)" gradientUnits="userSpaceOnUse" r="1" xlink:href="#ac"/><linearGradient id="ao"><stop offset="0" stop-color="#b88028"/><stop offset=".297" stop-color="#f3bd41"/><stop offset=".543" stop-color="#f3bd41"/><stop offset="1" stop-color="#ff7449"/></linearGradient><linearGradient id="ap" gradientUnits="userSpaceOnUse" x1="15.573" x2="20.3" xlink:href="#ao" y1="13.136" y2="8.409"/><linearGradient id="aq" gradientUnits="userSpaceOnUse" x1="11.22" x2="15.947" xlink:href="#ao" y1="17.511" y2="12.784"/><linearGradient id="ar" gradientUnits="userSpaceOnUse" x1="19.978" x2="24.705" xlink:href="#ao" y1="8.751" y2="4.025"/><path d="m2 20.5601h1v8.88h-1z" fill="url(#l)"/><path d="m2 20.5601h1v8.88h-1z" fill="url(#n)"/><path d="m2 20.5601h1v8.88h-1z" fill="url(#p)"/><path d="m5 21.4399h1v8h-1z" fill="url(#q)"/><path d="m5 21.4399h1v8h-1z" fill="url(#r)"/><path d="m5 21.4399h1v8h-1z" fill="url(#s)"/><path d="m8 21.4399h1v8h-1z" fill="url(#t)"/><path d="m8 21.4399h1v8h-1z" fill="url(#u)"/><path d="m8 21.4399h1v8h-1z" fill="url(#v)"/><path d="m11 20.29h1v9.15h-1z" fill="url(#w)"/><path d="m11 20.29h1v9.15h-1z" fill="url(#x)"/><path d="m14 18.4399h1v11h-1z" fill="url(#y)"/><path d="m14 18.4399h1v11h-1z" fill="url(#z)"/><path d="m17 15.4h1v14.04h-1z" fill="url(#A)"/><path d="m17 15.4h1v14.04h-1z" fill="url(#B)"/><path d="m20 12.39h1v17.05h-1z" fill="url(#D)"/><path d="m20 12.39h1v17.05h-1z" fill="url(#E)"/><path d="m23 9.29004h1v20.14996h-1z" fill="url(#F)"/><path d="m23 9.29004h1v20.14996h-1z" fill="url(#G)"/><path d="m26 6.33997h1v23.10003h-1z" fill="url(#H)"/><path d="m26 6.33997h1v23.10003h-1z" fill="url(#I)"/><path d="m29 4.43994h1v24.99996h-1z" fill="url(#J)"/><path d="m29 4.43994h1v24.99996h-1z" fill="url(#K)"/><g filter="url(#a)"><path d="m24.67 6.80052-11.36 11.35998c-3 3-7.54 3.74-11.31 1.93v2.16c1.39.54 2.84.82 4.28.82 3.08 0 6.13-1.2 8.44-3.5l11.36-11.35997c1.09-1.09 2.45-1.82 3.92-2.14v-2.03c-2.01.34-3.86 1.27999-5.33 2.75999z" fill="url(#L)"/></g><path d="m24.67 6.80052-11.36 11.35998c-3 3-7.54 3.74-11.31 1.93v2.16c1.39.54 2.84.82 4.28.82 3.08 0 6.13-1.2 8.44-3.5l11.36-11.35997c1.09-1.09 2.45-1.82 3.92-2.14v-2.03c-2.01.34-3.86 1.27999-5.33 2.75999z" fill="url(#M)"/><path d="m24.67 6.80052-11.36 11.35998c-3 3-7.54 3.74-11.31 1.93v2.16c1.39.54 2.84.82 4.28.82 3.08 0 6.13-1.2 8.44-3.5l11.36-11.35997c1.09-1.09 2.45-1.82 3.92-2.14v-2.03c-2.01.34-3.86 1.27999-5.33 2.75999z" fill="url(#N)"/><g filter="url(#b)"><path d="m15.9462 14.5857-2.5 2.5c-.52.52-1.35.52-1.87 0s-.52-1.35 0-1.87l2.5-2.5c.52-.52 1.35-.52 1.87 0 .52.51.52 1.35 0 1.87z" fill="url(#P)"/><path d="m15.9462 14.5857-2.5 2.5c-.52.52-1.35.52-1.87 0s-.52-1.35 0-1.87l2.5-2.5c.52-.52 1.35-.52 1.87 0 .52.51.52 1.35 0 1.87z" fill="url(#R)"/><path d="m15.9462 14.5857-2.5 2.5c-.52.52-1.35.52-1.87 0s-.52-1.35 0-1.87l2.5-2.5c.52-.52 1.35-.52 1.87 0 .52.51.52 1.35 0 1.87z" fill="url(#T)"/></g><g filter="url(#c)"><path d="m20.3107 10.2211-2.5 2.5c-.52.52-1.35.52-1.87 0s-.52-1.35 0-1.87l2.5-2.50004c.52-.52 1.35-.52 1.87 0 .52.51.52 1.34999 0 1.87004z" fill="url(#U)"/><path d="m20.3107 10.2211-2.5 2.5c-.52.52-1.35.52-1.87 0s-.52-1.35 0-1.87l2.5-2.50004c.52-.52 1.35-.52 1.87 0 .52.51.52 1.34999 0 1.87004z" fill="url(#V)"/><path d="m20.3107 10.2211-2.5 2.5c-.52.52-1.35.52-1.87 0s-.52-1.35 0-1.87l2.5-2.50004c.52-.52 1.35-.52 1.87 0 .52.51.52 1.34999 0 1.87004z" fill="url(#W)"/></g><g filter="url(#d)"><path d="m24.7125 5.83788-2.5 2.5c-.52.52-1.35.52-1.87 0s-.52-1.35 0-1.87l2.5-2.5c.52-.52 1.35-.52 1.87 0 .52.51.52 1.35 0 1.87z" fill="url(#X)"/><path d="m24.7125 5.83788-2.5 2.5c-.52.52-1.35.52-1.87 0s-.52-1.35 0-1.87l2.5-2.5c.52-.52 1.35-.52 1.87 0 .52.51.52 1.35 0 1.87z" fill="url(#Y)"/><path d="m24.7125 5.83788-2.5 2.5c-.52.52-1.35.52-1.87 0s-.52-1.35 0-1.87l2.5-2.5c.52-.52 1.35-.52 1.87 0 .52.51.52 1.35 0 1.87z" fill="url(#Z)"/></g><g filter="url(#e)"><path d="m15.6361 15.5557c.3645 0 .66-.2955.66-.66s-.2955-.66-.66-.66-.66.2955-.66.66.2955.66.66.66z" fill="url(#ab)"/><path d="m15.6361 15.5557c.3645 0 .66-.2955.66-.66s-.2955-.66-.66-.66-.66.2955-.66.66.2955.66.66.66z" fill="url(#ad)"/></g><g filter="url(#f)"><path d="m20.0007 11.1911c.3645 0 .66-.2955.66-.66s-.2955-.66001-.66-.66001-.66.29551-.66.66001.2955.66.66.66z" fill="url(#ae)"/><path d="m20.0007 11.1911c.3645 0 .66-.2955.66-.66s-.2955-.66001-.66-.66001-.66.29551-.66.66001.2955.66.66.66z" fill="url(#af)"/></g><g filter="url(#g)"><path d="m24.4026 6.80791c.3645 0 .66-.29548.66-.65999s-.2955-.66-.66-.66c-.3646 0-.66.29549-.66.66s.2954.65999.66.65999z" fill="url(#ag)"/><path d="m24.4026 6.80791c.3645 0 .66-.29548.66-.65999s-.2955-.66-.66-.66c-.3646 0-.66.29549-.66.66s.2954.65999.66.65999z" fill="url(#ah)"/></g><g filter="url(#h)"><path d="m13.7661 17.4257c.3645 0 .66-.2955.66-.66s-.2955-.66-.66-.66-.66.2955-.66.66.2955.66.66.66z" fill="url(#ai)"/><path d="m13.7661 17.4257c.3645 0 .66-.2955.66-.66s-.2955-.66-.66-.66-.66.2955-.66.66.2955.66.66.66z" fill="url(#aj)"/></g><g filter="url(#i)"><path d="m18.1307 13.0611c.3645 0 .66-.2955.66-.66s-.2955-.66-.66-.66-.66.2955-.66.66.2955.66.66.66z" fill="url(#ak)"/><path d="m18.1307 13.0611c.3645 0 .66-.2955.66-.66s-.2955-.66-.66-.66-.66.2955-.66.66.2955.66.66.66z" fill="url(#al)"/></g><g filter="url(#j)"><path d="m22.5326 8.67792c.3645 0 .66-.2955.66-.66001 0-.3645-.2955-.66-.66-.66s-.66.2955-.66.66c0 .36451.2955.66001.66.66001z" fill="url(#am)"/><path d="m22.5326 8.67792c.3645 0 .66-.2955.66-.66001 0-.3645-.2955-.66-.66-.66s-.66.2955-.66.66c0 .36451.2955.66001.66.66001z" fill="url(#an)"/></g><path d="m15.6693 12.3438c.06.13.1282.2494.2382.3594s.2489.2095.3789.2695l4.2696-4.28123c-.06-.13-.147-.25066-.257-.36066s-.24-.19-.37-.25z" fill="url(#ap)"/><path d="m11.3164 16.7187c.06.13.1283.2494.2383.3594s.2489.2095.3789.2695l4.2695-4.2813c-.06-.13-.147-.2506-.257-.3606s-.24-.19-.37-.25z" fill="url(#aq)"/><path d="m20.0742 7.95917c.06.13.1283.24937.2383.35937s.2489.20953.3789.26953l4.2695-4.28125c-.06-.13-.1469-.25065-.2569-.36065s-.24-.19-.37-.25z" fill="url(#ar)"/></svg>