<svg fill="none" height="32" viewBox="0 0 32 32" width="32" xmlns="http://www.w3.org/2000/svg" xmlns:xlink="http://www.w3.org/1999/xlink"><filter id="a" color-interpolation-filters="sRGB" filterUnits="userSpaceOnUse" height="13.438" width="28.063" x="1.719" y="16.531"><feFlood flood-opacity="0" result="BackgroundImageFix"/><feBlend in="SourceGraphic" in2="BackgroundImageFix" mode="normal" result="shape"/><feColorMatrix in="SourceAlpha" result="hardAlpha" type="matrix" values="0 0 0 0 0 0 0 0 0 0 0 0 0 0 0 0 0 0 127 0"/><feOffset dx="-.5" dy="-.5"/><feGaussianBlur stdDeviation=".25"/><feComposite in2="hardAlpha" k2="-1" k3="1" operator="arithmetic"/><feColorMatrix type="matrix" values="0 0 0 0 0.443137 0 0 0 0 0.396078 0 0 0 0 0.490196 0 0 0 1 0"/><feBlend in2="shape" mode="normal" result="effect1_innerShadow_18_17508"/><feColorMatrix in="SourceAlpha" result="hardAlpha" type="matrix" values="0 0 0 0 0 0 0 0 0 0 0 0 0 0 0 0 0 0 127 0"/><feOffset dx="-.25" dy="-.25"/><feGaussianBlur stdDeviation=".25"/><feComposite in2="hardAlpha" k2="-1" k3="1" operator="arithmetic"/><feColorMatrix type="matrix" values="0 0 0 0 0.27451 0 0 0 0 0.160784 0 0 0 0 0.380392 0 0 0 1 0"/><feBlend in2="effect1_innerShadow_18_17508" mode="normal" result="effect2_innerShadow_18_17508"/></filter><filter id="b" color-interpolation-filters="sRGB" filterUnits="userSpaceOnUse" height="10.375" width="19.488" x="6.24" y="16.469"><feFlood flood-opacity="0" result="BackgroundImageFix"/><feBlend in="SourceGraphic" in2="BackgroundImageFix" mode="normal" result="shape"/><feGaussianBlur result="effect1_foregroundBlur_18_17508" stdDeviation=".5"/></filter><filter id="c" color-interpolation-filters="sRGB" filterUnits="userSpaceOnUse" height="21.656" width="20.436" x="6.767" y="3.938"><feFlood flood-opacity="0" result="BackgroundImageFix"/><feBlend in="SourceGraphic" in2="BackgroundImageFix" mode="normal" result="shape"/><feColorMatrix in="SourceAlpha" result="hardAlpha" type="matrix" values="0 0 0 0 0 0 0 0 0 0 0 0 0 0 0 0 0 0 127 0"/><feOffset dx="2"/><feGaussianBlur stdDeviation="1.5"/><feComposite in2="hardAlpha" k2="-1" k3="1" operator="arithmetic"/><feColorMatrix type="matrix" values="0 0 0 0 0.270588 0 0 0 0 0.247059 0 0 0 0 0.301961 0 0 0 1 0"/><feBlend in2="shape" mode="normal" result="effect1_innerShadow_18_17508"/></filter><filter id="d" color-interpolation-filters="sRGB" filterUnits="userSpaceOnUse" height="6.473" width="17.238" x="7.364" y="19.321"><feFlood flood-opacity="0" result="BackgroundImageFix"/><feBlend in="SourceGraphic" in2="BackgroundImageFix" mode="normal" result="shape"/><feColorMatrix in="SourceAlpha" result="hardAlpha" type="matrix" values="0 0 0 0 0 0 0 0 0 0 0 0 0 0 0 0 0 0 127 0"/><feOffset dy=".2"/><feGaussianBlur stdDeviation=".1"/><feComposite in2="hardAlpha" k2="-1" k3="1" operator="arithmetic"/><feColorMatrix type="matrix" values="0 0 0 0 0.858824 0 0 0 0 0.12549 0 0 0 0 0.317647 0 0 0 1 0"/><feBlend in2="shape" mode="normal" result="effect1_innerShadow_18_17508"/></filter><filter id="e" color-interpolation-filters="sRGB" filterUnits="userSpaceOnUse" height="4.813" width="17.577" x="7.211" y="6.375"><feFlood flood-opacity="0" result="BackgroundImageFix"/><feBlend in="SourceGraphic" in2="BackgroundImageFix" mode="normal" result="shape"/><feGaussianBlur result="effect1_foregroundBlur_18_17508" stdDeviation=".75"/></filter><filter id="f" color-interpolation-filters="sRGB" filterUnits="userSpaceOnUse" height="18.594" width="5.83" x="19.938" y="3.656"><feFlood flood-opacity="0" result="BackgroundImageFix"/><feBlend in="SourceGraphic" in2="BackgroundImageFix" mode="normal" result="shape"/><feGaussianBlur result="effect1_foregroundBlur_18_17508" stdDeviation=".75"/></filter><linearGradient id="g" gradientUnits="userSpaceOnUse" x1="16" x2="16" y1="17.031" y2="27.563"><stop offset=".211" stop-color="#333135"/><stop offset="1" stop-color="#523b5e"/></linearGradient><linearGradient id="h" gradientUnits="userSpaceOnUse" x1="15.984" x2="15.984" y1="3.938" y2="25.594"><stop offset=".421" stop-color="#534262"/><stop offset="1" stop-color="#43354b"/></linearGradient><radialGradient id="i" cx="0" cy="0" gradientTransform="matrix(.74999794 -10.81251984 4.68230942 .32478298 24.8751 20.9375)" gradientUnits="userSpaceOnUse" r="1"><stop offset="0" stop-color="#4c4653"/><stop offset="1" stop-color="#4c4653" stop-opacity="0"/></radialGradient><linearGradient id="j" gradientUnits="userSpaceOnUse" x1="10.375" x2="22.75" y1="21.187" y2="25"><stop offset="0" stop-color="#eb3469"/><stop offset="1" stop-color="#e12e84"/></linearGradient><radialGradient id="k" cx="0" cy="0" gradientTransform="matrix(0 2.75 -11.4063 0 20.4687 21.0937)" gradientUnits="userSpaceOnUse" r="1"><stop offset="0" stop-color="#fe4f93"/><stop offset="1" stop-color="#fe4f93" stop-opacity="0"/></radialGradient><radialGradient id="l" cx="0" cy="0" gradientTransform="matrix(0 4.71875 -7.16957 0 22.4374 20.3124)" gradientUnits="userSpaceOnUse" r="1"><stop offset="0" stop-color="#ff4c99"/><stop offset="1" stop-color="#ff4c99" stop-opacity="0"/></radialGradient><linearGradient id="m" gradientUnits="userSpaceOnUse" x1="7.364" x2="11.375" y1="23.406" y2="23.406"><stop offset="0" stop-color="#ba2d43"/><stop offset="1" stop-color="#ba2d43" stop-opacity="0"/></linearGradient><linearGradient id="n" gradientUnits="userSpaceOnUse" x1="23.594" x2="22.853" y1="5.156" y2="20.75"><stop offset="0" stop-color="#70657c"/><stop offset="1" stop-color="#4d4455"/></linearGradient><g filter="url(#a)"><path d="m2.21875 23.0312c0-3.3137 2.96754-6 6.28125-6h14.9844c3.3137 0 6.2968 2.6863 6.2968 6v.9376c0 3.3137-2.6718 6-6.4374 6h-14.54692c-3.8125 0-6.57813-2.6863-6.57813-6z" fill="url(#g)"/></g><g filter="url(#b)"><path d="m7.24023 17.4688.32752 5.5516c.09354 1.5855 1.29155 2.8234 3.47905 2.8234h10.0313c2.0781 0 3.2292-1.2379 3.3228-2.8234l.3275-5.5516z" fill="#3a1333"/></g><g filter="url(#c)"><path d="m11.0469 25.5937c-2.18746 0-3.38548-1.2378-3.47901-2.8233l-.78657-13.3329c-.0547-1.10157-.00937-3.27812 1.07813-4.39062 1.08446-1.1094 2.03374-1.10939 2.82155-1.10938h10.6069c.7878-.00001 1.7371-.00002 2.8215 1.10938 1.0875 1.1125 1.1329 3.28905 1.0782 4.39062l-.7866 13.3329c-.0935 1.5855-1.2447 2.8233-3.3228 2.8233z" fill="url(#h)"/><path d="m11.0469 25.5937c-2.18746 0-3.38548-1.2378-3.47901-2.8233l-.78657-13.3329c-.0547-1.10157-.00937-3.27812 1.07813-4.39062 1.08446-1.1094 2.03374-1.10939 2.82155-1.10938h10.6069c.7878-.00001 1.7371-.00002 2.8215 1.10938 1.0875 1.1125 1.1329 3.28905 1.0782 4.39062l-.7866 13.3329c-.0935 1.5855-1.2447 2.8233-3.3228 2.8233z" fill="url(#i)"/></g><g filter="url(#d)"><path d="m7.36426 19.321c.50859 1.2589 1.83684 2.3977 3.68254 2.3977h10.0312c1.7941 0 3.057-1.1075 3.5243-2.3623l-.2014 3.414c-.0936 1.5854-1.2447 2.8233-3.3229 2.8233h-10.0312c-2.1875 0-3.38552-1.2379-3.47905-2.8233z" fill="url(#j)"/><path d="m7.36426 19.321c.50859 1.2589 1.83684 2.3977 3.68254 2.3977h10.0312c1.7941 0 3.057-1.1075 3.5243-2.3623l-.2014 3.414c-.0936 1.5854-1.2447 2.8233-3.3229 2.8233h-10.0312c-2.1875 0-3.38552-1.2379-3.47905-2.8233z" fill="url(#k)"/><path d="m7.36426 19.321c.50859 1.2589 1.83684 2.3977 3.68254 2.3977h10.0312c1.7941 0 3.057-1.1075 3.5243-2.3623l-.2014 3.414c-.0936 1.5854-1.2447 2.8233-3.3229 2.8233h-10.0312c-2.1875 0-3.38552-1.2379-3.47905-2.8233z" fill="url(#l)"/><path d="m7.36426 19.321c.50859 1.2589 1.83684 2.3977 3.68254 2.3977h10.0312c1.7941 0 3.057-1.1075 3.5243-2.3623l-.2014 3.414c-.0936 1.5854-1.2447 2.8233-3.3229 2.8233h-10.0312c-2.1875 0-3.38552-1.2379-3.47905-2.8233z" fill="url(#m)"/></g><g filter="url(#e)"><path d="m8.71143 7.875h14.5772v1.8125h-14.5772z" fill="#574965"/></g><g filter="url(#f)"><path d="m21.4375 20.75.5625-15.59375c2.05 0 2.3542 2.04167 2.25 3.0625l-.4375 10.84375c-.45 1.1-1.7708 1.5833-2.375 1.6875z" fill="url(#n)"/></g></svg>