<svg fill="none" height="32" viewBox="0 0 32 32" width="32" xmlns="http://www.w3.org/2000/svg" xmlns:xlink="http://www.w3.org/1999/xlink"><filter id="a" color-interpolation-filters="sRGB" filterUnits="userSpaceOnUse" height="15.431" width="15.431" x="14.867" y="2.74"><feFlood flood-opacity="0" result="BackgroundImageFix"/><feBlend in="SourceGraphic" in2="BackgroundImageFix" mode="normal" result="shape"/><feColorMatrix in="SourceAlpha" result="hardAlpha" type="matrix" values="0 0 0 0 0 0 0 0 0 0 0 0 0 0 0 0 0 0 127 0"/><feOffset dx=".5" dy=".5"/><feGaussianBlur stdDeviation=".5"/><feComposite in2="hardAlpha" k2="-1" k3="1" operator="arithmetic"/><feColorMatrix type="matrix" values="0 0 0 0 0.301961 0 0 0 0 0.290196 0 0 0 0 0.317647 0 0 0 1 0"/><feBlend in2="shape" mode="normal" result="effect1_innerShadow_18_18367"/></filter><filter id="b" color-interpolation-filters="sRGB" filterUnits="userSpaceOnUse" height="19.049" width="20.277" x="2.08" y="10.961"><feFlood flood-opacity="0" result="BackgroundImageFix"/><feBlend in="SourceGraphic" in2="BackgroundImageFix" mode="normal" result="shape"/><feColorMatrix in="SourceAlpha" result="hardAlpha" type="matrix" values="0 0 0 0 0 0 0 0 0 0 0 0 0 0 0 0 0 0 127 0"/><feOffset dx="1.25" dy=".75"/><feGaussianBlur stdDeviation="1"/><feComposite in2="hardAlpha" k2="-1" k3="1" operator="arithmetic"/><feColorMatrix type="matrix" values="0 0 0 0 0.490196 0 0 0 0 0.490196 0 0 0 0 0.494118 0 0 0 1 0"/><feBlend in2="shape" mode="normal" result="effect1_innerShadow_18_18367"/></filter><filter id="c" color-interpolation-filters="sRGB" filterUnits="userSpaceOnUse" height="3.09" width="3.09" x="12.245" y="16.543"><feFlood flood-opacity="0" result="BackgroundImageFix"/><feBlend in="SourceGraphic" in2="BackgroundImageFix" mode="normal" result="shape"/><feGaussianBlur result="effect1_foregroundBlur_18_18367" stdDeviation=".075"/></filter><filter id="d" color-interpolation-filters="sRGB" filterUnits="userSpaceOnUse" height="2.79" width="3.09" x="12.354" y="16.692"><feFlood flood-opacity="0" result="BackgroundImageFix"/><feBlend in="SourceGraphic" in2="BackgroundImageFix" mode="normal" result="shape"/><feColorMatrix in="SourceAlpha" result="hardAlpha" type="matrix" values="0 0 0 0 0 0 0 0 0 0 0 0 0 0 0 0 0 0 127 0"/><feOffset dx="-.15"/><feGaussianBlur stdDeviation=".075"/><feComposite in2="hardAlpha" k2="-1" k3="1" operator="arithmetic"/><feColorMatrix type="matrix" values="0 0 0 0 0.862745 0 0 0 0 0.847059 0 0 0 0 0.882353 0 0 0 1 0"/><feBlend in2="shape" mode="normal" result="effect1_innerShadow_18_18367"/><feColorMatrix in="SourceAlpha" result="hardAlpha" type="matrix" values="0 0 0 0 0 0 0 0 0 0 0 0 0 0 0 0 0 0 127 0"/><feOffset dx=".15"/><feGaussianBlur stdDeviation=".125"/><feComposite in2="hardAlpha" k2="-1" k3="1" operator="arithmetic"/><feColorMatrix type="matrix" values="0 0 0 0 0.584314 0 0 0 0 0.572549 0 0 0 0 0.6 0 0 0 1 0"/><feBlend in2="effect1_innerShadow_18_18367" mode="normal" result="effect2_innerShadow_18_18367"/></filter><radialGradient id="e" cx="0" cy="0" gradientTransform="matrix(.33908365 -11.03269046 11.03269046 .33908365 21.9939 17.6715)" gradientUnits="userSpaceOnUse" r="1"><stop offset=".189" stop-color="#512f70"/><stop offset="1" stop-color="#372d44"/></radialGradient><radialGradient id="f" cx="0" cy="0" gradientTransform="matrix(-4.87502282 3.99997356 -3.12025213 -3.80285022 26.4314 7.76384)" gradientUnits="userSpaceOnUse" r="1"><stop offset=".125" stop-color="#6c6476"/><stop offset="1" stop-color="#6c6476" stop-opacity="0"/></radialGradient><radialGradient id="g" cx="0" cy="0" gradientTransform="matrix(1.31248949 10.15765641 -10.08684509 1.30333983 21.9314 7.51384)" gradientUnits="userSpaceOnUse" r="1"><stop offset=".911" stop-color="#513071" stop-opacity="0"/><stop offset="1" stop-color="#72538f"/></radialGradient><linearGradient id="h" gradientUnits="userSpaceOnUse" x1="22.431" x2="21.556" y1="11.545" y2="12.358"><stop offset="0" stop-color="#382a4b"/><stop offset="1" stop-color="#382a4b" stop-opacity="0"/></linearGradient><linearGradient id="i" gradientUnits="userSpaceOnUse" x1="15.494" x2="26.619" y1="4.264" y2="16.264"><stop offset="0" stop-color="#848286"/><stop offset="1" stop-color="#a89fb0"/></linearGradient><radialGradient id="j" cx="0" cy="0" gradientTransform="matrix(-1.59375715 1.66131601 -9.55095424 -9.16255637 24.3065 10.0088)" gradientUnits="userSpaceOnUse" r="1"><stop offset=".161" stop-color="#c9c8cb"/><stop offset="1" stop-color="#a7a0af" stop-opacity="0"/></radialGradient><linearGradient id="k" gradientUnits="userSpaceOnUse" x1="14.588" x2="9.494" y1="21.951" y2="16.951"><stop offset="0" stop-color="#ada3b3"/><stop offset="1" stop-color="#949198"/></linearGradient><radialGradient id="l" cx="0" cy="0" gradientTransform="matrix(-15.18749216 11.75008794 -1.53731674 -1.98704776 19.6815 15.1389)" gradientUnits="userSpaceOnUse" r="1"><stop offset="0" stop-color="#aea6b5"/><stop offset="1" stop-color="#aea6b5" stop-opacity="0"/></radialGradient><linearGradient id="m" gradientUnits="userSpaceOnUse" x1="13.088" x2="14.963" y1="16.951" y2="19.326"><stop offset="0" stop-color="#c0bac6"/><stop offset="1" stop-color="#cdc4d4"/></linearGradient><g filter="url(#a)"><circle cx="22.333" cy="10.206" fill="url(#e)" r="7.466"/><circle cx="22.333" cy="10.206" fill="url(#f)" r="7.466"/><circle cx="22.333" cy="10.206" fill="url(#g)" r="7.466"/></g><path d="m17.5423 4.4801c-1.6351 1.36947-2.6749 3.42628-2.6749 5.726 0 4.1231 3.3425 7.4655 7.4656 7.4655 2.0731 0 3.9488-.845 5.3016-2.2094z" fill="url(#h)"/><path d="m16.5105 3.53886c.649-.60589 1.6662-.57099 2.2721.07797l9.8873 10.58987c.6059.6489.5709 1.6662-.078 2.2721-.649.6059-1.6662.571-2.2721-.078l-9.8873-10.58982c-.6059-.64896-.571-1.66622.078-2.27212z" fill="url(#i)"/><path d="m16.5105 3.53886c.649-.60589 1.6662-.57099 2.2721.07797l9.8873 10.58987c.6059.6489.5709 1.6662-.078 2.2721-.649.6059-1.6662.571-2.2721-.078l-9.8873-10.58982c-.6059-.64896-.571-1.66622.078-2.27212z" fill="url(#j)"/><g filter="url(#b)"><path d="m14.8855 10.9608 6.2216 6.618-15.34486 11.2337c-.92946.6804-2.21778.574-3.02295-.2498-.83444-.8537-.88285-2.202-.11179-3.1133z" fill="url(#k)"/><path d="m14.8855 10.9608 6.2216 6.618-15.34486 11.2337c-.92946.6804-2.21778.574-3.02295-.2498-.83444-.8537-.88285-2.202-.11179-3.1133z" fill="url(#l)"/></g><g filter="url(#c)"><circle cx="13.79" cy="18.087" fill="#8a858f" r="1.395"/></g><g filter="url(#d)"><circle cx="13.899" cy="18.087" fill="url(#m)" r="1.395"/></g></svg>