<svg fill="none" height="32" viewBox="0 0 32 32" width="32" xmlns="http://www.w3.org/2000/svg" xmlns:xlink="http://www.w3.org/1999/xlink"><filter id="a" color-interpolation-filters="sRGB" filterUnits="userSpaceOnUse" height="25.078" width="24.578" x="2" y="5.422"><feFlood flood-opacity="0" result="BackgroundImageFix"/><feBlend in="SourceGraphic" in2="BackgroundImageFix" mode="normal" result="shape"/><feColorMatrix in="SourceAlpha" result="hardAlpha" type="matrix" values="0 0 0 0 0 0 0 0 0 0 0 0 0 0 0 0 0 0 127 0"/><feOffset dx=".5" dy="-.5"/><feGaussianBlur stdDeviation=".5"/><feComposite in2="hardAlpha" k2="-1" k3="1" operator="arithmetic"/><feColorMatrix type="matrix" values="0 0 0 0 0.737255 0 0 0 0 0.160784 0 0 0 0 0.329412 0 0 0 1 0"/><feBlend in2="shape" mode="normal" result="effect1_innerShadow_18_3225"/><feColorMatrix in="SourceAlpha" result="hardAlpha" type="matrix" values="0 0 0 0 0 0 0 0 0 0 0 0 0 0 0 0 0 0 127 0"/><feOffset dx=".5" dy=".5"/><feGaussianBlur stdDeviation=".5"/><feComposite in2="hardAlpha" k2="-1" k3="1" operator="arithmetic"/><feColorMatrix type="matrix" values="0 0 0 0 0.74902 0 0 0 0 0.341176 0 0 0 0 0.490196 0 0 0 1 0"/><feBlend in2="effect1_innerShadow_18_3225" mode="normal" result="effect2_innerShadow_18_3225"/></filter><filter id="b" color-interpolation-filters="sRGB" filterUnits="userSpaceOnUse" height="23.887" width="23.887" x="2.338" y="6.017"><feFlood flood-opacity="0" result="BackgroundImageFix"/><feBlend in="SourceGraphic" in2="BackgroundImageFix" mode="normal" result="shape"/><feGaussianBlur result="effect1_foregroundBlur_18_3225" stdDeviation=".325"/></filter><filter id="c" color-interpolation-filters="sRGB" filterUnits="userSpaceOnUse" height="5.984" width="3.458" x="20.958" y="1.928"><feFlood flood-opacity="0" result="BackgroundImageFix"/><feBlend in="SourceGraphic" in2="BackgroundImageFix" mode="normal" result="shape"/><feGaussianBlur result="effect1_foregroundBlur_18_3225" stdDeviation=".25"/></filter><filter id="d" color-interpolation-filters="sRGB" filterUnits="userSpaceOnUse" height="3.464" width="5.982" x="24.024" y="7.506"><feFlood flood-opacity="0" result="BackgroundImageFix"/><feBlend in="SourceGraphic" in2="BackgroundImageFix" mode="normal" result="shape"/><feGaussianBlur result="effect1_foregroundBlur_18_3225" stdDeviation=".25"/></filter><filter id="e" color-interpolation-filters="sRGB" filterUnits="userSpaceOnUse" height="11.71" width="11.715" x="15.313" y="5.387"><feFlood flood-opacity="0" result="BackgroundImageFix"/><feBlend in="SourceGraphic" in2="BackgroundImageFix" mode="normal" result="shape"/><feColorMatrix in="SourceAlpha" result="hardAlpha" type="matrix" values="0 0 0 0 0 0 0 0 0 0 0 0 0 0 0 0 0 0 127 0"/><feOffset dx=".25" dy=".25"/><feGaussianBlur stdDeviation=".5"/><feComposite in2="hardAlpha" k2="-1" k3="1" operator="arithmetic"/><feColorMatrix type="matrix" values="0 0 0 0 0.45098 0 0 0 0 0.65098 0 0 0 0 0.737255 0 0 0 1 0"/><feBlend in2="shape" mode="normal" result="effect1_innerShadow_18_3225"/></filter><filter id="f" color-interpolation-filters="sRGB" filterUnits="userSpaceOnUse" height="7.208" width="7.208" x="19.85" y="4.958"><feFlood flood-opacity="0" result="BackgroundImageFix"/><feBlend in="SourceGraphic" in2="BackgroundImageFix" mode="normal" result="shape"/><feColorMatrix in="SourceAlpha" result="hardAlpha" type="matrix" values="0 0 0 0 0 0 0 0 0 0 0 0 0 0 0 0 0 0 127 0"/><feOffset dx=".15" dy=".15"/><feGaussianBlur stdDeviation=".15"/><feComposite in2="hardAlpha" k2="-1" k3="1" operator="arithmetic"/><feColorMatrix type="matrix" values="0 0 0 0 0.160784 0 0 0 0 0.521569 0 0 0 0 0.764706 0 0 0 1 0"/><feBlend in2="shape" mode="normal" result="effect1_innerShadow_18_3225"/><feColorMatrix in="SourceAlpha" result="hardAlpha" type="matrix" values="0 0 0 0 0 0 0 0 0 0 0 0 0 0 0 0 0 0 127 0"/><feOffset dx="-.15" dy="-.15"/><feGaussianBlur stdDeviation=".225"/><feComposite in2="hardAlpha" k2="-1" k3="1" operator="arithmetic"/><feColorMatrix type="matrix" values="0 0 0 0 0.235294 0 0 0 0 0.435294 0 0 0 0 0.831373 0 0 0 1 0"/><feBlend in2="effect1_innerShadow_18_3225" mode="normal" result="effect2_innerShadow_18_3225"/></filter><linearGradient id="g" gradientUnits="userSpaceOnUse" x1="19.534" x2="9.433" y1="7.121" y2="27.666"><stop offset="0" stop-color="#e6378b"/><stop offset="1" stop-color="#ef3a5c"/></linearGradient><radialGradient id="h" cx="0" cy="0" gradientTransform="matrix(-3.04647964 4.37923119 -6.36861694 -4.43042648 19.9723 10.3297)" gradientUnits="userSpaceOnUse" r="1"><stop offset=".219" stop-color="#b82974"/><stop offset="1" stop-color="#b82974" stop-opacity="0"/></radialGradient><linearGradient id="i" gradientUnits="userSpaceOnUse" x1="20.353" x2="7.279" y1="22.389" y2="8.806"><stop offset="0" stop-color="#cec3df"/><stop offset="1" stop-color="#c5bcd3"/></linearGradient><radialGradient id="j" cx="11.214" cy="17.961" gradientUnits="userSpaceOnUse" r="11.63"><stop offset=".861" stop-color="#cbc4df" stop-opacity="0"/><stop offset="1" stop-color="#cbc4df"/></radialGradient><radialGradient id="k" cx="0" cy="0" gradientTransform="matrix(-2.79253779 5.20435255 -2.84857154 -1.52847902 18.1952 9.75851)" gradientUnits="userSpaceOnUse" r="1"><stop offset="0" stop-color="#9da8b4"/><stop offset="1" stop-color="#9da8b4" stop-opacity="0"/></radialGradient><linearGradient id="l" gradientUnits="userSpaceOnUse" x1="17.878" x2="11.087" y1="14.074" y2="23.214"><stop offset="0" stop-color="#d2347a"/><stop offset="1" stop-color="#ed3963"/></linearGradient><radialGradient id="m" cx="0" cy="0" gradientTransform="matrix(-2.95026074 3.36377231 -3.36377231 -2.95026074 16.9893 14.2647)" gradientUnits="userSpaceOnUse" r="1"><stop offset="0" stop-color="#962359"/><stop offset=".947" stop-color="#962359" stop-opacity="0"/></radialGradient><radialGradient id="n" cx="0" cy="0" gradientTransform="matrix(1.84055553 4.37925741 -4.37925741 1.84055553 13.4986 16.9938)" gradientUnits="userSpaceOnUse" r="1"><stop offset=".613" stop-color="#c9bed9" stop-opacity="0"/><stop offset="1" stop-color="#c9bed9"/></radialGradient><radialGradient id="o" cx="0" cy="0" gradientTransform="matrix(-.88855528 3.60586467 -3.60586467 -.88855528 15.3392 15.1016)" gradientUnits="userSpaceOnUse" r="1"><stop offset="0" stop-color="#857d97"/><stop offset="1" stop-color="#857d97" stop-opacity="0"/></radialGradient><linearGradient id="p" gradientUnits="userSpaceOnUse" x1="23.42" x2="16.829" y1="10.783" y2="17.524"><stop offset="0" stop-color="#ff6aa2"/><stop offset="1" stop-color="#ff6aa2" stop-opacity="0"/></linearGradient><linearGradient id="q" gradientUnits="userSpaceOnUse" x1="16.148" x2="15.507" y1="17.281" y2="16.622"><stop offset="0" stop-color="#7e5f8a"/><stop offset="1" stop-color="#7e5f8a" stop-opacity="0"/></linearGradient><linearGradient id="r" gradientUnits="userSpaceOnUse" x1="14.901" x2="15.139" y1="15.823" y2="16.047"><stop offset="0" stop-color="#746d7c"/><stop offset="1" stop-color="#746d7c" stop-opacity="0"/></linearGradient><radialGradient id="s" cx="0" cy="0" gradientTransform="matrix(-2.49999009 -1.04689659 1.90077121 -4.53904353 21.5792 6.15625)" gradientUnits="userSpaceOnUse" r="1"><stop offset=".75" stop-color="#6897c2" stop-opacity="0"/><stop offset="1" stop-color="#6897c2"/></radialGradient><linearGradient id="t" gradientUnits="userSpaceOnUse" x1="23.47" x2="21.876" y1="4.313" y2="4.875"><stop offset="0" stop-color="#58c3ff"/><stop offset="1" stop-color="#58c3ff" stop-opacity="0"/></linearGradient><linearGradient id="u" gradientUnits="userSpaceOnUse" x1="28.126" x2="27.532" y1="8.531" y2="9.812"><stop offset="0" stop-color="#49b6ff"/><stop offset="1" stop-color="#49b6ff" stop-opacity="0"/></linearGradient><radialGradient id="v" cx="0" cy="0" gradientTransform="matrix(.74999965 4.07812808 -5.25335896 .96613381 25.626 9.23433)" gradientUnits="userSpaceOnUse" r="1"><stop offset=".814" stop-color="#5066d2" stop-opacity="0"/><stop offset=".926" stop-color="#5066d2"/></radialGradient><linearGradient id="w"><stop offset="0" stop-color="#61ceff"/><stop offset="1" stop-color="#3cb8ff" stop-opacity="0"/></linearGradient><radialGradient id="x" cx="0" cy="0" gradientTransform="matrix(.26802283 4.98872533 -1.05330094 .05658934 21.826 2.94704)" gradientUnits="userSpaceOnUse" r="1" xlink:href="#w"/><radialGradient id="y" cx="0" cy="0" gradientTransform="matrix(.26802283 4.98872533 -1.05330094 .05658934 30.1455 10.0434)" gradientUnits="userSpaceOnUse" r="1" xlink:href="#w"/><radialGradient id="z" cx="0" cy="0" gradientTransform="matrix(-2.93751228 2.18748128 -2.25408188 -3.02694852 27.1573 5.875)" gradientUnits="userSpaceOnUse" r="1"><stop offset=".423" stop-color="#6bffff"/><stop offset="1" stop-color="#6bffff" stop-opacity="0"/></radialGradient><radialGradient id="A" cx="0" cy="0" gradientTransform="matrix(-8.02066564 7.30233951 -7.39753268 -8.1252229 24.0069 8.54593)" gradientUnits="userSpaceOnUse" r="1"><stop offset=".838" stop-color="#5e9bdb" stop-opacity="0"/><stop offset="1" stop-color="#5e9bdb"/></radialGradient><radialGradient id="B" cx="0" cy="0" gradientTransform="matrix(-1.37668428 1.40985442 -.74184563 -.72439197 20.8944 11.1165)" gradientUnits="userSpaceOnUse" r="1"><stop offset=".361" stop-color="#49a0e1"/><stop offset="1" stop-color="#49a0e1" stop-opacity="0"/></radialGradient><radialGradient id="C" cx="0" cy="0" gradientTransform="matrix(.02209778 -2.93891692 1.11948835 .00841746 26.8311 5.62583)" gradientUnits="userSpaceOnUse" r="1"><stop offset="0" stop-color="#60caff"/><stop offset="1" stop-color="#60caff" stop-opacity="0"/></radialGradient><g filter="url(#a)"><circle cx="14.039" cy="17.961" fill="url(#g)" r="12.039"/><circle cx="14.039" cy="17.961" fill="url(#h)" r="12.039"/></g><circle cx="14.039" cy="17.961" fill="url(#i)" r="8.805"/><circle cx="14.039" cy="17.961" fill="url(#j)" r="8.805"/><circle cx="14.039" cy="17.961" fill="url(#k)" r="8.805"/><circle cx="14.039" cy="17.961" fill="url(#l)" r="5.758"/><circle cx="14.039" cy="17.961" fill="url(#m)" r="5.758"/><circle cx="14.039" cy="17.961" fill="#b7abc8" r="2.859"/><circle cx="14.039" cy="17.961" fill="url(#n)" r="2.859"/><circle cx="14.039" cy="17.961" fill="url(#o)" r="2.859"/><g filter="url(#b)"><path d="m14.2817 28.9294c6.0577 0 10.9685-4.9108 10.9685-10.9685s-4.9108-10.96847-10.9685-10.96847c-6.05769 0-10.96844 4.91077-10.96844 10.96847s4.91075 10.9685 10.96844 10.9685z" stroke="url(#p)" stroke-width=".65"/></g><path d="m14.1343 17.875c-.3385-.3386-.4635-.7234-.1249-1.062l1.715-1.7229c.3386-.3386.8875-.3386 1.226 0 .3386.3386.3386.8875 0 1.226l-1.715 1.7229c-.3385.3386-.7625.1745-1.1011-.164z" fill="#7c7088"/><path d="m14.1343 17.875c-.3385-.3386-.4635-.7234-.1249-1.062l1.715-1.7229c.3386-.3386.8875-.3386 1.226 0 .3386.3386.3386.8875 0 1.226l-1.715 1.7229c-.3385.3386-.7625.1745-1.1011-.164z" fill="url(#q)"/><path d="m14.1343 17.875c-.3385-.3386-.4635-.7234-.1249-1.062l1.715-1.7229c.3386-.3386.8875-.3386 1.226 0 .3386.3386.3386.8875 0 1.226l-1.715 1.7229c-.3385.3386-.7625.1745-1.1011-.164z" fill="url(#r)"/><path d="m22.6644 2.77189 1.2271 3.24373-4.4843 3.14063c-1.3353-3.53143.2977-5.61712 1.8134-6.82602.4971-.3965 1.2188-.15307 1.4438.44166z" fill="#2983df"/><path d="m22.6644 2.77189 1.2271 3.24373-4.4843 3.14063c-1.3353-3.53143.2977-5.61712 1.8134-6.82602.4971-.3965 1.2188-.15307 1.4438.44166z" fill="url(#s)"/><path d="m22.6644 2.77189 1.2271 3.24373-4.4843 3.14063c-1.3353-3.53143.2977-5.61712 1.8134-6.82602.4971-.3965 1.2188-.15307 1.4438.44166z" fill="url(#t)"/><path d="m29.1969 9.31135-3.2586-1.18708-3.0852 4.52273c3.5476 1.2917 5.6131-.367 6.8032-1.8974.3903-.502.138-1.2206-.4594-1.43825z" fill="#2980eb"/><path d="m29.1969 9.31135-3.2586-1.18708-3.0852 4.52273c3.5476 1.2917 5.6131-.367 6.8032-1.8974.3903-.502.138-1.2206-.4594-1.43825z" fill="url(#u)"/><path d="m29.1969 9.31135-3.2586-1.18708-3.0852 4.52273c3.5476 1.2917 5.6131-.367 6.8032-1.8974.3903-.502.138-1.2206-.4594-1.43825z" fill="url(#v)"/><g filter="url(#c)"><rect fill="url(#x)" height="5.258" rx=".473" transform="matrix(.9365297 -.35058826 .35058826 .9365297 .433356 7.642009)" width=".946" x="21.323" y="2.624"/></g><g filter="url(#d)"><rect fill="url(#y)" height="5.258" rx=".473" transform="matrix(-.35203769 .93598583 -.93598583 -.35203769 49.175449 -14.602157)" width=".946" x="29.642" y="9.72"/></g><g filter="url(#e)"><path d="m16.6805 10.7097 6.6257-4.90955c.8791-.6572 2.1933-.48594 2.8565.19709.7373.79118.8247 1.95605.1923 2.81548l-4.8899 6.64548c-1.2284 1.6694-3.6502 1.8646-5.1301.4134-1.4916-1.4627-1.3277-3.911.3455-5.1619z" fill="#52bcf0"/></g><path d="m16.6805 10.7097 6.6257-4.90955c.8791-.6572 2.1933-.48594 2.8565.19709.7373.79118.8247 1.95605.1923 2.81548l-4.8899 6.64548c-1.2284 1.6694-3.6502 1.8646-5.1301.4134-1.4916-1.4627-1.3277-3.911.3455-5.1619z" fill="url(#z)"/><path d="m16.6805 10.7097 6.6257-4.90955c.8791-.6572 2.1933-.48594 2.8565.19709.7373.79118.8247 1.95605.1923 2.81548l-4.8899 6.64548c-1.2284 1.6694-3.6502 1.8646-5.1301.4134-1.4916-1.4627-1.3277-3.911.3455-5.1619z" fill="url(#A)"/><path d="m16.6805 10.7097 6.6257-4.90955c.8791-.6572 2.1933-.48594 2.8565.19709.7373.79118.8247 1.95605.1923 2.81548l-4.8899 6.64548c-1.2284 1.6694-3.6502 1.8646-5.1301.4134-1.4916-1.4627-1.3277-3.911.3455-5.1619z" fill="url(#B)"/><g filter="url(#f)"><rect fill="#2984e4" height="9.038" rx=".884" transform="matrix(.70710678 .70710678 -.70710678 .70710678 10.975399 -17.013077)" width="1.768" x="26.024" y="4.742"/></g><rect fill="url(#C)" height="9.038" rx=".884" transform="matrix(.70710678 .70710678 -.70710678 .70710678 10.975399 -17.013077)" width="1.768" x="26.024" y="4.742"/></svg>