<svg fill="none" height="32" viewBox="0 0 32 32" width="32" xmlns="http://www.w3.org/2000/svg" xmlns:xlink="http://www.w3.org/1999/xlink"><filter id="a" color-interpolation-filters="sRGB" filterUnits="userSpaceOnUse" height="9.762" width="28.306" x="1.847" y="13.136"><feFlood flood-opacity="0" result="BackgroundImageFix"/><feBlend in="SourceGraphic" in2="BackgroundImageFix" mode="normal" result="shape"/><feColorMatrix in="SourceAlpha" result="hardAlpha" type="matrix" values="0 0 0 0 0 0 0 0 0 0 0 0 0 0 0 0 0 0 127 0"/><feOffset dx="-.2"/><feGaussianBlur stdDeviation=".5"/><feComposite in2="hardAlpha" k2="-1" k3="1" operator="arithmetic"/><feColorMatrix type="matrix" values="0 0 0 0 0.32549 0 0 0 0 0.729412 0 0 0 0 1 0 0 0 1 0"/><feBlend in2="shape" mode="normal" result="effect1_innerShadow_3987_23163"/><feColorMatrix in="SourceAlpha" result="hardAlpha" type="matrix" values="0 0 0 0 0 0 0 0 0 0 0 0 0 0 0 0 0 0 127 0"/><feOffset dx=".2"/><feGaussianBlur stdDeviation=".5"/><feComposite in2="hardAlpha" k2="-1" k3="1" operator="arithmetic"/><feColorMatrix type="matrix" values="0 0 0 0 0.247059 0 0 0 0 0.584314 0 0 0 0 0.854902 0 0 0 1 0"/><feBlend in2="effect1_innerShadow_3987_23163" mode="normal" result="effect2_innerShadow_3987_23163"/></filter><filter id="b" color-interpolation-filters="sRGB" filterUnits="userSpaceOnUse" height="7.123" width="7.381" x="14.483" y="10.113"><feFlood flood-opacity="0" result="BackgroundImageFix"/><feBlend in="SourceGraphic" in2="BackgroundImageFix" mode="normal" result="shape"/><feColorMatrix in="SourceAlpha" result="hardAlpha" type="matrix" values="0 0 0 0 0 0 0 0 0 0 0 0 0 0 0 0 0 0 127 0"/><feOffset dx="-.1" dy=".1"/><feGaussianBlur stdDeviation=".25"/><feComposite in2="hardAlpha" k2="-1" k3="1" operator="arithmetic"/><feColorMatrix type="matrix" values="0 0 0 0 0.105882 0 0 0 0 0.0666667 0 0 0 0 0.0823529 0 0 0 1 0"/><feBlend in2="shape" mode="normal" result="effect1_innerShadow_3987_23163"/></filter><filter id="c" color-interpolation-filters="sRGB" filterUnits="userSpaceOnUse" height="17.805" width="19.128" x="10.609" y="2.808"><feFlood flood-opacity="0" result="BackgroundImageFix"/><feBlend in="SourceGraphic" in2="BackgroundImageFix" mode="normal" result="shape"/><feColorMatrix in="SourceAlpha" result="hardAlpha" type="matrix" values="0 0 0 0 0 0 0 0 0 0 0 0 0 0 0 0 0 0 127 0"/><feOffset dx="1.25" dy="-1.25"/><feGaussianBlur stdDeviation="1"/><feComposite in2="hardAlpha" k2="-1" k3="1" operator="arithmetic"/><feColorMatrix type="matrix" values="0 0 0 0 0.858824 0 0 0 0 0.607843 0 0 0 0 0.552941 0 0 0 1 0"/><feBlend in2="shape" mode="normal" result="effect1_innerShadow_3987_23163"/><feColorMatrix in="SourceAlpha" result="hardAlpha" type="matrix" values="0 0 0 0 0 0 0 0 0 0 0 0 0 0 0 0 0 0 127 0"/><feOffset dx=".25" dy="-.5"/><feGaussianBlur stdDeviation=".5"/><feComposite in2="hardAlpha" k2="-1" k3="1" operator="arithmetic"/><feColorMatrix type="matrix" values="0 0 0 0 0.792157 0 0 0 0 0.509804 0 0 0 0 0.509804 0 0 0 1 0"/><feBlend in2="effect1_innerShadow_3987_23163" mode="normal" result="effect2_innerShadow_3987_23163"/></filter><filter id="d" color-interpolation-filters="sRGB" filterUnits="userSpaceOnUse" height="2.053" width="2.053" x="16.759" y="11.896"><feFlood flood-opacity="0" result="BackgroundImageFix"/><feBlend in="SourceGraphic" in2="BackgroundImageFix" mode="normal" result="shape"/><feGaussianBlur result="effect1_foregroundBlur_3987_23163" stdDeviation=".075"/></filter><filter id="e" color-interpolation-filters="sRGB" filterUnits="userSpaceOnUse" height="2.044" width="2.044" x="11.179" y="17.489"><feFlood flood-opacity="0" result="BackgroundImageFix"/><feBlend in="SourceGraphic" in2="BackgroundImageFix" mode="normal" result="shape"/><feGaussianBlur result="effect1_foregroundBlur_3987_23163" stdDeviation=".1"/></filter><filter id="f" color-interpolation-filters="sRGB" filterUnits="userSpaceOnUse" height="9.288" width="9.291" x="10.356" y="10.98"><feFlood flood-opacity="0" result="BackgroundImageFix"/><feBlend in="SourceGraphic" in2="BackgroundImageFix" mode="normal" result="shape"/><feColorMatrix in="SourceAlpha" result="hardAlpha" type="matrix" values="0 0 0 0 0 0 0 0 0 0 0 0 0 0 0 0 0 0 127 0"/><feOffset dx=".15" dy="-.15"/><feGaussianBlur stdDeviation=".3"/><feComposite in2="hardAlpha" k2="-1" k3="1" operator="arithmetic"/><feColorMatrix type="matrix" values="0 0 0 0 0.694118 0 0 0 0 0.505882 0 0 0 0 0.639216 0 0 0 1 0"/><feBlend in2="shape" mode="normal" result="effect1_innerShadow_3987_23163"/></filter><filter id="g" color-interpolation-filters="sRGB" filterUnits="userSpaceOnUse" height="9.224" width="9.223" x="7.632" y="8.478"><feFlood flood-opacity="0" result="BackgroundImageFix"/><feBlend in="SourceGraphic" in2="BackgroundImageFix" mode="normal" result="shape"/><feColorMatrix in="SourceAlpha" result="hardAlpha" type="matrix" values="0 0 0 0 0 0 0 0 0 0 0 0 0 0 0 0 0 0 127 0"/><feOffset dx="-.1" dy=".1"/><feGaussianBlur stdDeviation=".25"/><feComposite in2="hardAlpha" k2="-1" k3="1" operator="arithmetic"/><feColorMatrix type="matrix" values="0 0 0 0 0.662745 0 0 0 0 0.466667 0 0 0 0 0.666667 0 0 0 1 0"/><feBlend in2="shape" mode="normal" result="effect1_innerShadow_3987_23163"/></filter><filter id="h" color-interpolation-filters="sRGB" filterUnits="userSpaceOnUse" height="9.762" width="28.306" x="1.847" y="20.199"><feFlood flood-opacity="0" result="BackgroundImageFix"/><feBlend in="SourceGraphic" in2="BackgroundImageFix" mode="normal" result="shape"/><feColorMatrix in="SourceAlpha" result="hardAlpha" type="matrix" values="0 0 0 0 0 0 0 0 0 0 0 0 0 0 0 0 0 0 127 0"/><feOffset dx="-.2"/><feGaussianBlur stdDeviation=".15"/><feComposite in2="hardAlpha" k2="-1" k3="1" operator="arithmetic"/><feColorMatrix type="matrix" values="0 0 0 0 0.301961 0 0 0 0 0.580392 0 0 0 0 0.87451 0 0 0 1 0"/><feBlend in2="shape" mode="normal" result="effect1_innerShadow_3987_23163"/><feColorMatrix in="SourceAlpha" result="hardAlpha" type="matrix" values="0 0 0 0 0 0 0 0 0 0 0 0 0 0 0 0 0 0 127 0"/><feOffset dx=".2"/><feGaussianBlur stdDeviation=".15"/><feComposite in2="hardAlpha" k2="-1" k3="1" operator="arithmetic"/><feColorMatrix type="matrix" values="0 0 0 0 0.207843 0 0 0 0 0.482353 0 0 0 0 0.772549 0 0 0 1 0"/><feBlend in2="effect1_innerShadow_3987_23163" mode="normal" result="effect2_innerShadow_3987_23163"/></filter><filter id="i" color-interpolation-filters="sRGB" filterUnits="userSpaceOnUse" height="2.217" width="2.217" x="15.887" y="16.582"><feFlood flood-opacity="0" result="BackgroundImageFix"/><feBlend in="SourceGraphic" in2="BackgroundImageFix" mode="normal" result="shape"/><feGaussianBlur result="effect1_foregroundBlur_3987_23163" stdDeviation=".1"/></filter><filter id="j" color-interpolation-filters="sRGB" filterUnits="userSpaceOnUse" height="3.058" width="3.003" x="13.846" y="14.925"><feFlood flood-opacity="0" result="BackgroundImageFix"/><feBlend in="SourceGraphic" in2="BackgroundImageFix" mode="normal" result="shape"/><feGaussianBlur result="effect1_foregroundBlur_3987_23163" stdDeviation=".25"/></filter><filter id="k" color-interpolation-filters="sRGB" filterUnits="userSpaceOnUse" height="2.458" width="2.203" x="14.338" y="14.876"><feFlood flood-opacity="0" result="BackgroundImageFix"/><feBlend in="SourceGraphic" in2="BackgroundImageFix" mode="normal" result="shape"/><feColorMatrix in="SourceAlpha" result="hardAlpha" type="matrix" values="0 0 0 0 0 0 0 0 0 0 0 0 0 0 0 0 0 0 127 0"/><feOffset dx=".1" dy="-.3"/><feGaussianBlur stdDeviation=".3"/><feComposite in2="hardAlpha" k2="-1" k3="1" operator="arithmetic"/><feColorMatrix type="matrix" values="0 0 0 0 0.776471 0 0 0 0 0.545098 0 0 0 0 0.576471 0 0 0 1 0"/><feBlend in2="shape" mode="normal" result="effect1_innerShadow_3987_23163"/><feGaussianBlur result="effect2_foregroundBlur_3987_23163" stdDeviation=".05"/></filter><filter id="l" color-interpolation-filters="sRGB" filterUnits="userSpaceOnUse" height="2.219" width="2.23" x="14.698" y="12.722"><feFlood flood-opacity="0" result="BackgroundImageFix"/><feBlend in="SourceGraphic" in2="BackgroundImageFix" mode="normal" result="shape"/><feColorMatrix in="SourceAlpha" result="hardAlpha" type="matrix" values="0 0 0 0 0 0 0 0 0 0 0 0 0 0 0 0 0 0 127 0"/><feOffset/><feGaussianBlur stdDeviation=".075"/><feComposite in2="hardAlpha" k2="-1" k3="1" operator="arithmetic"/><feColorMatrix type="matrix" values="0 0 0 0 0.0745098 0 0 0 0 0.407843 0 0 0 0 0.756863 0 0 0 1 0"/><feBlend in2="shape" mode="normal" result="effect1_innerShadow_3987_23163"/><feColorMatrix in="SourceAlpha" result="hardAlpha" type="matrix" values="0 0 0 0 0 0 0 0 0 0 0 0 0 0 0 0 0 0 127 0"/><feOffset dx="-.1" dy=".1"/><feGaussianBlur stdDeviation=".1"/><feComposite in2="hardAlpha" k2="-1" k3="1" operator="arithmetic"/><feColorMatrix type="matrix" values="0 0 0 0 0.32549 0 0 0 0 0.631373 0 0 0 0 0.882353 0 0 0 1 0"/><feBlend in2="effect1_innerShadow_3987_23163" mode="normal" result="effect2_innerShadow_3987_23163"/></filter><filter id="m" color-interpolation-filters="sRGB" filterUnits="userSpaceOnUse" height="2.219" width="2.23" x="11.909" y="15.48"><feFlood flood-opacity="0" result="BackgroundImageFix"/><feBlend in="SourceGraphic" in2="BackgroundImageFix" mode="normal" result="shape"/><feColorMatrix in="SourceAlpha" result="hardAlpha" type="matrix" values="0 0 0 0 0 0 0 0 0 0 0 0 0 0 0 0 0 0 127 0"/><feOffset/><feGaussianBlur stdDeviation=".075"/><feComposite in2="hardAlpha" k2="-1" k3="1" operator="arithmetic"/><feColorMatrix type="matrix" values="0 0 0 0 0.0745098 0 0 0 0 0.407843 0 0 0 0 0.756863 0 0 0 1 0"/><feBlend in2="shape" mode="normal" result="effect1_innerShadow_3987_23163"/><feColorMatrix in="SourceAlpha" result="hardAlpha" type="matrix" values="0 0 0 0 0 0 0 0 0 0 0 0 0 0 0 0 0 0 127 0"/><feOffset dx="-.1" dy=".1"/><feGaussianBlur stdDeviation=".05"/><feComposite in2="hardAlpha" k2="-1" k3="1" operator="arithmetic"/><feColorMatrix type="matrix" values="0 0 0 0 0.282353 0 0 0 0 0.564706 0 0 0 0 0.854902 0 0 0 1 0"/><feBlend in2="effect1_innerShadow_3987_23163" mode="normal" result="effect2_innerShadow_3987_23163"/></filter><filter id="n" color-interpolation-filters="sRGB" filterUnits="userSpaceOnUse" height="3.319" width="4.333" x="7.677" y="6.285"><feFlood flood-opacity="0" result="BackgroundImageFix"/><feBlend in="SourceGraphic" in2="BackgroundImageFix" mode="normal" result="shape"/><feColorMatrix in="SourceAlpha" result="hardAlpha" type="matrix" values="0 0 0 0 0 0 0 0 0 0 0 0 0 0 0 0 0 0 127 0"/><feOffset dy="-.4"/><feGaussianBlur stdDeviation=".25"/><feComposite in2="hardAlpha" k2="-1" k3="1" operator="arithmetic"/><feColorMatrix type="matrix" values="0 0 0 0 0.803922 0 0 0 0 0.529412 0 0 0 0 0.517647 0 0 0 1 0"/><feBlend in2="shape" mode="normal" result="effect1_innerShadow_3987_23163"/></filter><filter id="o" color-interpolation-filters="sRGB" filterUnits="userSpaceOnUse" height="2.874" width="2.872" x="14.454" y="12.307"><feFlood flood-opacity="0" result="BackgroundImageFix"/><feBlend in="SourceGraphic" in2="BackgroundImageFix" mode="normal" result="shape"/><feGaussianBlur result="effect1_foregroundBlur_3987_23163" stdDeviation=".075"/></filter><filter id="p" color-interpolation-filters="sRGB" filterUnits="userSpaceOnUse" height="2.874" width="2.872" x="11.674" y="15.102"><feFlood flood-opacity="0" result="BackgroundImageFix"/><feBlend in="SourceGraphic" in2="BackgroundImageFix" mode="normal" result="shape"/><feGaussianBlur result="effect1_foregroundBlur_3987_23163" stdDeviation=".075"/></filter><filter id="q" color-interpolation-filters="sRGB" filterUnits="userSpaceOnUse" height="13.923" width="10.971" x="16.785" y="5.419"><feFlood flood-opacity="0" result="BackgroundImageFix"/><feBlend in="SourceGraphic" in2="BackgroundImageFix" mode="normal" result="shape"/><feGaussianBlur result="effect1_foregroundBlur_3987_23163" stdDeviation=".5"/></filter><linearGradient id="r" gradientUnits="userSpaceOnUse" x1="26.833" x2="2.047" y1="17.552" y2="17.552"><stop offset="0" stop-color="#40aafe"/><stop offset="1" stop-color="#3ea5fe"/></linearGradient><radialGradient id="s" cx="0" cy="0" gradientTransform="matrix(2.09228509 4.61475027 -4.78417937 2.16910268 17.2705 11.9982)" gradientUnits="userSpaceOnUse" r="1"><stop offset=".255" stop-color="#3e393b"/><stop offset=".769" stop-color="#100b13"/><stop offset="1" stop-color="#010000"/></radialGradient><radialGradient id="t" cx="0" cy="0" gradientTransform="matrix(4.25000097 -.4374999 .72192512 7.01299003 9.73779 18.7067)" gradientUnits="userSpaceOnUse" r="1"><stop offset="0" stop-color="#313a5a"/><stop offset="1" stop-color="#060311"/></radialGradient><radialGradient id="u" cx="0" cy="0" gradientTransform="matrix(-.56249573 .96875766 -1.05871336 -.61472726 10.9253 17.1754)" gradientUnits="userSpaceOnUse" r="1"><stop offset="0" stop-color="#020102"/><stop offset="1" stop-color="#020102" stop-opacity="0"/></radialGradient><radialGradient id="v" cx="0" cy="0" gradientTransform="matrix(-3.8299409 -4.92562583 7.62622135 -5.9298002 26.5324 22.7392)" gradientUnits="userSpaceOnUse" r="1"><stop offset="0" stop-color="#ffdcc2"/><stop offset="1" stop-color="#f2bcac"/></radialGradient><radialGradient id="w" cx="0" cy="0" gradientTransform="matrix(5.40624397 1.93805788 -3.9203361 10.93584127 16.6406 18.6819)" gradientUnits="userSpaceOnUse" r="1"><stop offset="0" stop-color="#bb7c7d"/><stop offset="1" stop-color="#f1ae9a" stop-opacity="0"/></radialGradient><radialGradient id="x" cx="0" cy="0" gradientTransform="matrix(-.2031244 .59392044 -4.82722926 -1.65094177 22.0313 15.8998)" gradientUnits="userSpaceOnUse" r="1"><stop offset=".186" stop-color="#cb8d71"/><stop offset="1" stop-color="#cb8d71" stop-opacity="0"/></radialGradient><radialGradient id="y" cx="0" cy="0" gradientTransform="matrix(-6.6874983 -.25001147 .39175562 -10.47897968 26.4565 21.2068)" gradientUnits="userSpaceOnUse" r="1"><stop offset=".359" stop-color="#a882f8"/><stop offset="1" stop-color="#8f69d4"/></radialGradient><radialGradient id="z" cx="0" cy="0" gradientTransform="matrix(-13.40775296 -3.97894019 3.02543639 -10.19475082 27.4268 23.3108)" gradientUnits="userSpaceOnUse" r="1"><stop offset=".636" stop-color="#553c7c" stop-opacity="0"/><stop offset="1" stop-color="#3c2369"/></radialGradient><radialGradient id="A" cx="0" cy="0" gradientTransform="matrix(-1.01561985 .9218773 -.51070626 -.56263823 18.6541 12.2639)" gradientUnits="userSpaceOnUse" r="1"><stop offset=".011" stop-color="#ffd3bb"/><stop offset="1" stop-color="#fbc2a4"/></radialGradient><radialGradient id="B" cx="0" cy="0" gradientTransform="matrix(.32031265 -.3046876 .39565623 .41594635 17.9121 12.8523)" gradientUnits="userSpaceOnUse" r="1"><stop offset="0" stop-color="#fcc5a9"/><stop offset="1" stop-color="#f4b798"/></radialGradient><linearGradient id="C" gradientUnits="userSpaceOnUse" x1="18.56" x2="14.8" y1="15.277" y2="19.771"><stop offset="0" stop-color="#ffdfc4"/><stop offset=".886" stop-color="#af828a"/></linearGradient><radialGradient id="D" cx="0" cy="0" gradientTransform="matrix(1.50791687 4.7883288 -5.54272559 1.74548778 15.5698 15.4802)" gradientUnits="userSpaceOnUse" r="1"><stop offset=".545" stop-color="#deaaa8" stop-opacity="0"/><stop offset="1" stop-color="#ab7188"/></radialGradient><radialGradient id="E" cx="0" cy="0" gradientTransform="matrix(1.74999712 1.50397071 -1.54062049 1.79264224 15.6768 14.1955)" gradientUnits="userSpaceOnUse" r="1"><stop offset=".228" stop-color="#deaa9f"/><stop offset="1" stop-color="#deaa9f" stop-opacity="0"/></radialGradient><radialGradient id="F" cx="0" cy="0" gradientTransform="matrix(1.50000302 1.59375295 -1.31546406 1.23808402 13.1143 16.4455)" gradientUnits="userSpaceOnUse" r="1"><stop offset=".422" stop-color="#be8888"/><stop offset="1" stop-color="#be8888" stop-opacity="0"/></radialGradient><radialGradient id="G" cx="0" cy="0" gradientTransform="matrix(-4.31253655 4.18746592 -3.07382427 -3.16563281 15.0815 12.1442)" gradientUnits="userSpaceOnUse" r="1"><stop offset="0" stop-color="#a783e1"/><stop offset="1" stop-color="#8258c3"/></radialGradient><radialGradient id="H" cx="0" cy="0" gradientTransform="matrix(-6.74997637 6.48431151 -4.04701223 -4.21281995 15.144 11.1442)" gradientUnits="userSpaceOnUse" r="1"><stop offset=".489" stop-color="#7047b3" stop-opacity="0"/><stop offset="1" stop-color="#7047b3"/></radialGradient><linearGradient id="I" gradientUnits="userSpaceOnUse" x1="26.833" x2="2.047" y1="24.615" y2="24.615"><stop offset="0" stop-color="#3f90f0"/><stop offset="1" stop-color="#4184e7"/></linearGradient><linearGradient id="J" gradientUnits="userSpaceOnUse" x1="17.219" x2="17.188" y1="18.621" y2="16.715"><stop offset="0" stop-color="#dbab9f"/><stop offset="1" stop-color="#e3a695"/></linearGradient><radialGradient id="K" cx="0" cy="0" gradientTransform="matrix(-.60937617 .60640545 -.15727506 -.15804554 16.3418 16.2043)" gradientUnits="userSpaceOnUse" r="1"><stop offset=".254" stop-color="#ffd6c2"/><stop offset="1" stop-color="#f3c4a7" stop-opacity="0"/><stop offset="1" stop-color="#ffd6c2" stop-opacity="0"/></radialGradient><linearGradient id="L" gradientUnits="userSpaceOnUse" x1="14.945" x2="14.954" y1="14.659" y2="15.609"><stop offset="0" stop-color="#52475d"/><stop offset="1" stop-color="#413251"/></linearGradient><radialGradient id="M" cx="0" cy="0" gradientTransform="matrix(-.00307288 .28729857 -.60399645 -.00646022 14.9323 14.4383)" gradientUnits="userSpaceOnUse" r="1"><stop offset=".649" stop-color="#453b50"/><stop offset="1" stop-color="#453b50" stop-opacity="0"/></radialGradient><linearGradient id="N" gradientUnits="userSpaceOnUse" x1="16.334" x2="17.49" y1="12.381" y2="12.17"><stop offset="0" stop-color="#574c62"/><stop offset="1" stop-color="#4c4055"/></linearGradient><linearGradient id="O" gradientUnits="userSpaceOnUse" x1="16.734" x2="16.847" y1="11.683" y2="11.761"><stop offset=".354" stop-color="#403044"/><stop offset="1" stop-color="#403044" stop-opacity="0"/></linearGradient><linearGradient id="P" gradientUnits="userSpaceOnUse" x1="17.383" x2="17.3" y1="12.101" y2="12.046"><stop offset="0" stop-color="#574e60"/><stop offset="1" stop-color="#574e60" stop-opacity="0"/></linearGradient><radialGradient id="Q" cx="0" cy="0" gradientTransform="matrix(-.46093869 .29687257 -.34413129 -.53431486 11.9509 17.2404)" gradientUnits="userSpaceOnUse" r="1"><stop offset=".214" stop-color="#483e5b"/><stop offset="1" stop-color="#483e5b" stop-opacity="0"/></radialGradient><linearGradient id="R" gradientUnits="userSpaceOnUse" x1="11.422" x2="11.304" y1="18.027" y2="17.843"><stop offset=".145" stop-color="#443873"/><stop offset="1" stop-color="#443873" stop-opacity="0"/></linearGradient><linearGradient id="S" gradientUnits="userSpaceOnUse" x1="10.984" x2="11.027" y1="17.398" y2="17.468"><stop offset="0" stop-color="#504b5b"/><stop offset="1" stop-color="#504b5b" stop-opacity="0"/></linearGradient><linearGradient id="T" gradientUnits="userSpaceOnUse" x1="16.765" x2="15.219" y1="13.152" y2="14.668"><stop offset="0" stop-color="#489be1"/><stop offset="1" stop-color="#4799ea"/></linearGradient><linearGradient id="U" gradientUnits="userSpaceOnUse" x1="13.976" x2="12.429" y1="15.91" y2="17.425"><stop offset="0" stop-color="#3387e0"/><stop offset="1" stop-color="#2f81cb"/></linearGradient><linearGradient id="V" gradientUnits="userSpaceOnUse" x1="8.205" x2="11.23" y1="4.842" y2="4.525"><stop offset="0" stop-color="#e7ad91"/><stop offset="1" stop-color="#d8ac90"/></linearGradient><linearGradient id="W"><stop offset=".402" stop-color="#cf997e"/><stop offset="1" stop-color="#cf997e" stop-opacity="0"/></linearGradient><radialGradient id="X" cx="0" cy="0" gradientTransform="matrix(-2.87599202 1.88292855 -.87731965 -1.34002127 8.84179 6.90139)" gradientUnits="userSpaceOnUse" r="1" xlink:href="#W"/><radialGradient id="Y" cx="0" cy="0" gradientTransform="matrix(-2.76026892 2.13307046 -1.0493223 -1.35786032 8.58009 8.02385)" gradientUnits="userSpaceOnUse" r="1" xlink:href="#W"/><radialGradient id="Z" cx="0" cy="0" gradientTransform="matrix(-2.68384279 1.90625051 -.91499075 -1.28823117 9.10547 8.46457)" gradientUnits="userSpaceOnUse" r="1" xlink:href="#W"/><linearGradient id="aa" gradientUnits="userSpaceOnUse" x1="14.263" x2="12.12" y1="15.613" y2="17.658"><stop offset=".096" stop-color="#5f5669"/><stop offset=".322" stop-color="#5f5669" stop-opacity="0"/><stop offset=".768" stop-color="#5f5669"/></linearGradient><radialGradient id="ab" cx="0" cy="0" gradientTransform="matrix(5.70676379 .41357128 -.20538086 2.83399773 10.6094 4.87068)" gradientUnits="userSpaceOnUse" r="1"><stop offset=".344" stop-color="#d4a18c"/><stop offset="1" stop-color="#e1ac8c" stop-opacity="0"/></radialGradient><g filter="url(#a)"><path d="m3.92188 13.1364c-.97501 0-1.65626.4896-1.875.7344v9.0273h27.90622v-8.8711l-.0035-.003c-.6229-.5451-1.0143-.8876-2.1996-.8876-.9057 0-1.6696.6698-2.0501 1.0033l-.0007.0006c-.2604.224-.9383.6367-1.8633.6367s-1.4687-.4062-2.0703-.9062c-.2691-.2237-.9515-.7344-1.914-.7344s-1.8568.6667-2.1641 1c-.2448.224-.7187.6406-1.8711.6406-.793 0-1.3953-.3506-1.6133-.5625-.3698-.3593-1.1328-1.0781-2.3125-1.0781-.975 0-1.539.4688-1.90622.7813-.36719.3125-1.00625.8906-2.09376.8906-.98454 0-1.58445-.5-1.91424-.7749l-.00763-.0064c-.27604-.2968-1.07188-.8906-2.04687-.8906z" fill="url(#r)"/></g><g filter="url(#b)"><path d="m17.4272 10.4566c-.3187-.0687-.5703-.2578-.6562-.3437l-2.1875 1.5468c1.3073 1.8282 3.9359 5.4828 3.9922 5.4766h.0003c.0768-.0086 2.3988-.2665 2.8512-.8828.4532-.6172.5391-1.5938.3282-2.3203-.211-.7266-.6563-.9766-1.2266-1.1328-.5703-.1563-.7969-.5547-.8672-.6954-.0703-.1406-.1875-.4375-.6797-.914-.4922-.4766-1.1562-.6485-1.5547-.7344z" fill="url(#s)"/></g><path d="m9.65381 18.1597c-.13281-.4023-.3099-.6354-.40625-.7343l1.09374-1.1329 4.8828 3.7266-1.3906 1.7422c-.1563-.2422-.6797-.5156-2.3359-1.2109-1.65629-.6954-1.70182-1.9606-1.84379-2.3907z" fill="url(#t)"/><path d="m9.65381 18.1597c-.13281-.4023-.3099-.6354-.40625-.7343l1.09374-1.1329 4.8828 3.7266-1.3906 1.7422c-.1563-.2422-.6797-.5156-2.3359-1.2109-1.65629-.6954-1.70182-1.9606-1.84379-2.3907z" fill="url(#u)"/><g filter="url(#c)"><path d="m10.6094 8.05829h4.8282c1.5349 0 2.9345.87835 3.602 2.26061l4.3857 9.6066 5.0625.6875-5.8462-12.03356c-1.335-2.76444-4.1341-4.52115-7.204-4.52115h-4.8282z" fill="#f7c5aa"/></g><path d="m17.3125 17.5583c-1.6875 1.15-3.224 3.25-3.7813 4.1563 3.25 2.1625 7.9271 2.1718 9.8594 1.9062l6.5313-2.2656c-.7657-1.3047-2.0365-2.5208-2.5313-3l-5.6372-2.3672c-1.4687-.0625-2.3315.1328-4.4409 1.5703z" fill="url(#v)"/><path d="m17.3125 17.5583c-1.6875 1.15-3.224 3.25-3.7813 4.1563 3.25 2.1625 7.9271 2.1718 9.8594 1.9062l6.5313-2.2656c-.7657-1.3047-2.0365-2.5208-2.5313-3l-5.6372-2.3672c-1.4687-.0625-2.3315.1328-4.4409 1.5703z" fill="url(#w)"/><path d="m17.3125 17.5583c-1.6875 1.15-3.224 3.25-3.7813 4.1563 3.25 2.1625 7.9271 2.1718 9.8594 1.9062l6.5313-2.2656c-.7657-1.3047-2.0365-2.5208-2.5313-3l-5.6372-2.3672c-1.4687-.0625-2.3315.1328-4.4409 1.5703z" fill="url(#x)"/><path d="m15.1641 19.9528c.3593.5938 1.1484 1.8211 2.2734 1.9961 1.4063.2188 3.7422-.789 3.7891-2.5312.0789-1.5568-.8449-2.4055-1.7935-3.0859.8164-.3591 1.574-.376 2.3257-.3591.8988.8016 2.7053 2.3405 3.8584 3.07.8497.5375 1.741.2868 2.3751-.0937.5936.6047 1.388 1.4833 1.9296 2.4062l-6.5313 2.2656c-1.9323.2656-6.6094.2563-9.8594-1.9062.267-.4342.7588-1.1424 1.3842-1.8888.0822.0381.1652.0803.2487.127z" fill="url(#y)"/><path d="m15.1641 19.9528c.3593.5938 1.1484 1.8211 2.2734 1.9961 1.4063.2188 3.7422-.789 3.7891-2.5312.0789-1.5568-.8449-2.4055-1.7935-3.0859.8164-.3591 1.574-.376 2.3257-.3591.8988.8016 2.7053 2.3405 3.8584 3.07.8497.5375 1.741.2868 2.3751-.0937.5936.6047 1.388 1.4833 1.9296 2.4062l-6.5313 2.2656c-1.9323.2656-6.6094.2563-9.8594-1.9062.267-.4342.7588-1.1424 1.3842-1.8888.0822.0381.1652.0803.2487.127z" fill="url(#z)"/><circle cx="17.785" cy="12.923" fill="url(#A)" r="1.296"/><g filter="url(#d)"><circle cx="17.785" cy="12.923" fill="url(#B)" r=".877"/></g><circle cx="12.201" cy="18.511" fill="#b8808d" r="1.296"/><g filter="url(#e)"><circle cx="12.201" cy="18.512" fill="#b2757c" r=".822"/></g><g filter="url(#f)"><path d="m10.5754 17.2535c-.3125-.325-.224-.75-.1407-.9219l5.2814-5.1718c.4375-.1125.6601.125.789.2656l1.8159 1.8538c1.5058 1.5373 1.5742 3.9747.157 5.594-1.4898 1.7024-4.0674 1.8762-5.7466.3603-1.0722-.9679-2.0012-1.819-2.156-1.98z" fill="url(#C)"/><path d="m10.5754 17.2535c-.3125-.325-.224-.75-.1407-.9219l5.2814-5.1718c.4375-.1125.6601.125.789.2656l1.8159 1.8538c1.5058 1.5373 1.5742 3.9747.157 5.594-1.4898 1.7024-4.0674 1.8762-5.7466.3603-1.0722-.9679-2.0012-1.819-2.156-1.98z" fill="url(#D)"/><path d="m10.5754 17.2535c-.3125-.325-.224-.75-.1407-.9219l5.2814-5.1718c.4375-.1125.6601.125.789.2656l1.8159 1.8538c1.5058 1.5373 1.5742 3.9747.157 5.594-1.4898 1.7024-4.0674 1.8762-5.7466.3603-1.0722-.9679-2.0012-1.819-2.156-1.98z" fill="url(#E)"/><path d="m10.5754 17.2535c-.3125-.325-.224-.75-.1407-.9219l5.2814-5.1718c.4375-.1125.6601.125.789.2656l1.8159 1.8538c1.5058 1.5373 1.5742 3.9747.157 5.594-1.4898 1.7024-4.0674 1.8762-5.7466.3603-1.0722-.9679-2.0012-1.819-2.156-1.98z" fill="url(#F)"/></g><g filter="url(#g)"><path d="m16.8266 10.1669-7.37528 7.4061c-.03248.0326-.08291.0392-.12138.0139-.57751-.3794-1.49849-1.3743-1.5827-2.6615-.10937-1.6719.36729-2.7119 2.07813-4.5156 1.86743-1.96877 3.51563-2.09377 4.96873-1.82814 1.0515.1922 1.7801 1.03787 2.0474 1.46624.0238.0382.0169.0871-.0149.119z" fill="url(#G)"/><path d="m16.8266 10.1669-7.37528 7.4061c-.03248.0326-.08291.0392-.12138.0139-.57751-.3794-1.49849-1.3743-1.5827-2.6615-.10937-1.6719.36729-2.7119 2.07813-4.5156 1.86743-1.96877 3.51563-2.09377 4.96873-1.82814 1.0515.1922 1.7801 1.03787 2.0474 1.46624.0238.0382.0169.0871-.0149.119z" fill="url(#H)"/></g><g filter="url(#h)"><path d="m3.92188 20.1989c-.97501 0-1.65626.4896-1.875.7344v9.0273h27.90622v-8.8711l-.0035-.003c-.6229-.5451-1.0143-.8876-2.1996-.8876-.9057 0-1.6696.6698-2.0501 1.0033l-.0007.0006c-.2604.224-.9383.6367-1.8633.6367s-1.4687-.4062-2.0703-.9062c-.2691-.2237-.9515-.7344-1.914-.7344s-1.8568.6667-2.1641 1c-.2448.224-.7187.6406-1.8711.6406-.793 0-1.3953-.3506-1.6133-.5625-.3698-.3593-1.1328-1.0781-2.3125-1.0781-.975 0-1.539.4688-1.90622.7813-.36719.3125-1.00625.8906-2.09376.8906-.98454 0-1.58445-.5-1.91424-.7749l-.00763-.0064c-.27604-.2968-1.07188-.8906-2.04687-.8906z" fill="url(#I)"/></g><g filter="url(#i)"><circle cx="16.996" cy="17.691" r=".809" stroke="url(#J)" stroke-width=".2"/></g><circle cx="16.996" cy="17.691" fill="#87014e" r=".809"/><g filter="url(#j)"><path d="m15.1266 17.2625-.7809-1.5558.2891-.2812 1.5102.8523c.2316.1307.2735.4469.084.6334l-.4643.457c-.1935.1904-.5164.1369-.6381-.1057z" fill="#ca9297"/></g><g filter="url(#k)"><path d="m15.2193 17.0125-.7808-1.5558.289-.2812 1.5103.8523c.2316.1307.2735.4469.0839.6334l-.4643.457c-.1934.1904-.5163.1369-.6381-.1057z" fill="#eebfab"/><path d="m15.2193 17.0125-.7808-1.5558.289-.2812 1.5103.8523c.2316.1307.2735.4469.0839.6334l-.4643.457c-.1934.1904-.5163.1369-.6381-.1057z" fill="url(#K)"/></g><path d="m14.5757 14.4855h.757516v1.12348h-.757516z" fill="url(#L)" transform="matrix(.70104743 .71311465 -.71311465 .70104743 14.687265 -6.063668)"/><path d="m14.5757 14.4855h.757516v1.12348h-.757516z" fill="url(#M)" transform="matrix(.70104743 .71311465 -.71311465 .70104743 14.687265 -6.063668)"/><path d="m17.0645 11.2434c.031-.0457.0932-.0576.1389-.0266l.4394.2978c.0457.0309.0576.0931.0266.1388l-.8399 1.2392-.6049-.41z" fill="url(#N)"/><path d="m17.0645 11.2434c.031-.0457.0932-.0576.1389-.0266l.4394.2978c.0457.0309.0576.0931.0266.1388l-.8399 1.2392-.6049-.41z" fill="url(#O)"/><path d="m17.0645 11.2434c.031-.0457.0932-.0576.1389-.0266l.4394.2978c.0457.0309.0576.0931.0266.1388l-.8399 1.2392-.6049-.41z" fill="url(#P)"/><path d="m10.9251 18.3164c-.0463.0302-.1082.0171-.1384-.0291l-.2899-.4446c-.0302-.0463-.0172-.1082.0291-.1384l1.2539-.8178.3992.6122z" fill="#4e496a"/><path d="m10.9251 18.3164c-.0463.0302-.1082.0171-.1384-.0291l-.2899-.4446c-.0302-.0463-.0172-.1082.0291-.1384l1.2539-.8178.3992.6122z" fill="url(#Q)"/><path d="m10.9251 18.3164c-.0463.0302-.1082.0171-.1384-.0291l-.2899-.4446c-.0302-.0463-.0172-.1082.0291-.1384l1.2539-.8178.3992.6122z" fill="url(#R)"/><path d="m10.9251 18.3164c-.0463.0302-.1082.0171-.1384-.0291l-.2899-.4446c-.0302-.0463-.0172-.1082.0291-.1384l1.2539-.8178.3992.6122z" fill="url(#S)"/><g filter="url(#l)"><path d="m15.5334 12.9556c.3246-.317.8446-.3108 1.1615.0138.317.3246.3108.8446-.0138 1.1616l-.4875.476c-.3246.3169-.8446.3107-1.1616-.0139-.3169-.3246-.3107-.8446.0139-1.1615z" fill="url(#T)"/></g><path clip-rule="evenodd" d="m16.9327 14.3886-.4875.476c-.4668.4558-1.2148.4469-1.6706-.02-.4558-.4668-.4469-1.2148.0199-1.6706l.4875-.476c.4669-.4558 1.2148-.4469 1.6707.0199.4558.4669.4469 1.2148-.02 1.6707zm-.2376-1.4192c-.3169-.3245-.837-.3308-1.1616-.0138l-.4875.476c-.3245.3169-.3308.8369-.0138 1.1615.3169.3246.8369.3308 1.1615.0139l.4875-.476c.3246-.3169.3308-.837.0139-1.1616z" fill="#412e4c" fill-rule="evenodd"/><g filter="url(#m)"><path d="m12.7443 15.7134c.3246-.317.8447-.3107 1.1616.0138.3169.3246.3107.8447-.0139 1.1616l-.4875.476c-.3246.3169-.8446.3107-1.1615-.0139-.317-.3246-.3107-.8446.0138-1.1615z" fill="url(#U)"/></g><g clip-rule="evenodd" fill-rule="evenodd"><path d="m14.1437 17.1464-.4875.476c-.4669.4558-1.2149.4469-1.6707-.02-.4558-.4668-.4469-1.2148.02-1.6706l.4875-.476c.4668-.4558 1.2148-.4469 1.6706.0199.4558.4669.4469 1.2148-.0199 1.6707zm-.2377-1.4192c-.3169-.3245-.8369-.3307-1.1615-.0138l-.4875.476c-.3246.3169-.3308.8369-.0139 1.1615s.837.3308 1.1616.0139l.4875-.476c.3245-.3169.3307-.837.0138-1.1616z" fill="#412e4c"/><path d="m9.93604 5.44824c-.55756.04281-1.03749.10055-1.26255.1572-.35483.08931-.71486-.12593-.80417-.48076-.08931-.35482.12593-.71486.48075-.80417.96424-.24269 2.03903-.26222 3.02893-.26222.3659 0 .6625.29661.6625.6625s-.2966.6625-.6625.6625c-.3455 0-.9011.02334-1.44296.06495z" fill="url(#V)"/><path d="m11.2658 4.94302c.0291.36473-.2429.684-.6077.71311-1.39492.11133-2.48782 1.07661-3.03671 1.86323-.20937.30007-.62235.37358-.92241.1642-.30006-.20937-.37358-.62235-.1642-.92241.67767-.97119 2.08477-2.27153 4.01792-2.42582.3647-.02911.684.24296.7131.60769z" fill="#d5a28e"/><path d="m11.2658 4.94302c.0291.36473-.2429.684-.6077.71311-1.39492.11133-2.48782 1.07661-3.03671 1.86323-.20937.30007-.62235.37358-.92241.1642-.30006-.20937-.37358-.62235-.1642-.92241.67767-.97119 2.08477-2.27153 4.01792-2.42582.3647-.02911.684.24296.7131.60769z" fill="url(#X)"/><path d="m10.9065 5.72427c.0291.36473-.243.684-.6077.71311-.63844.05095-1.18534.35909-1.66325.80321-.48185.44777-.8613 1.00438-1.15607 1.48712-.19068.31227-.59841.41084-.91068.22015-.31228-.19068-.41084-.5984-.22016-.91068.3146-.51521.76913-1.19493 1.38494-1.7672.61975-.57592 1.43418-1.07155 2.45982-1.1534.3647-.02911.684.24296.7131.60769z" fill="#d5a28e"/><path d="m10.9065 5.72427c.0291.36473-.243.684-.6077.71311-.63844.05095-1.18534.35909-1.66325.80321-.48185.44777-.8613 1.00438-1.15607 1.48712-.19068.31227-.59841.41084-.91068.22015-.31228-.19068-.41084-.5984-.22016-.91068.3146-.51521.76913-1.19493 1.38494-1.7672.61975-.57592 1.43418-1.07155 2.45982-1.1534.3647-.02911.684.24296.7131.60769z" fill="url(#Y)"/><path d="m11.3689 6.49918c.0154.36557-.2684.6744-.634.68981-1.18378.04988-2.09787.94114-2.66558 1.87085-.19068.31227-.5984.41084-.91068.22015-.31227-.19068-.41084-.5984-.22016-.91068.65105-1.06618 1.89321-2.4263 3.74062-2.50415.3656-.0154.6744.26846.6898.63402z" fill="#d5a28e"/><path d="m11.3689 6.49918c.0154.36557-.2684.6744-.634.68981-1.18378.04988-2.09787.94114-2.66558 1.87085-.19068.31227-.5984.41084-.91068.22015-.31227-.19068-.41084-.5984-.22016-.91068.65105-1.06618 1.89321-2.4263 3.74062-2.50415.3656-.0154.6744.26846.6898.63402z" fill="url(#Z)"/></g><g filter="url(#n)"><path clip-rule="evenodd" d="m11.3476 8.00988c-.5846 0-1.2195.22729-1.65872.52596-.30924.21028-.6678.60254-.82051.80466-.22057.29193-.63603.34978-.92796.12921s-.34978-.63603-.12921-.92796c.20145-.26663.6606-.78062 1.13262-1.10159.62923-.42788 1.51968-.75528 2.40378-.75528.3659 0 .6625.29661.6625.6625 0 .36588-.2966.6625-.6625.6625z" fill="#dfac99" fill-rule="evenodd"/></g><g filter="url(#o)"><path clip-rule="evenodd" d="m16.8502 12.8067c-.3636-.3725-1-.409-1.3724-.0453l-.5594.5462c-.3725.3636-.3399.9897.0237 1.3622.3637.3724.9763.4311 1.3488.0675l.5593-.5462c.3725-.3637.3637-1.012 0-1.3844z" fill-rule="evenodd" stroke="#5c4c6d" stroke-width=".1"/></g><g filter="url(#p)"><path clip-rule="evenodd" d="m14.07 15.6014c-.3637-.3725-1.0001-.409-1.3725-.0453l-.5594.5461c-.3724.3637-.3399.9898.0237 1.3622.3637.3725.9763.4312 1.3488.0675l.5594-.5462c.3724-.3636.3636-1.0119 0-1.3843z" fill-rule="evenodd" stroke="url(#aa)" stroke-width=".1"/></g><path d="m10.6094 8.05829h4.8282c1.5349 0 2.9345.87835 3.602 2.26061l2.7346 5.6627 5.6008 2.3892-4.7334-9.79136c-1.335-2.76444-4.1341-4.52115-7.204-4.52115h-4.8282z" fill="url(#ab)"/><g filter="url(#q)"><path d="m20.2227 8.46696c-.675-1.475-1.9063-1.96875-2.4375-2.03125 1.4687-.15625 2.6718.78905 3.1562 1.65624l5.8145 10.25005-2.5332-1.2813c-1.0521-2.25-3.325-7.11874-4-8.59374z" fill="#fad1b0"/></g></svg>