<svg fill="none" height="32" viewBox="0 0 32 32" width="32" xmlns="http://www.w3.org/2000/svg" xmlns:xlink="http://www.w3.org/1999/xlink"><filter id="a" color-interpolation-filters="sRGB" filterUnits="userSpaceOnUse" height="13.398" width="23.977" x="6.016" y="16.209"><feFlood flood-opacity="0" result="BackgroundImageFix"/><feBlend in="SourceGraphic" in2="BackgroundImageFix" mode="normal" result="shape"/><feColorMatrix in="SourceAlpha" result="hardAlpha" type="matrix" values="0 0 0 0 0 0 0 0 0 0 0 0 0 0 0 0 0 0 127 0"/><feOffset dy="-.5"/><feGaussianBlur stdDeviation=".5"/><feComposite in2="hardAlpha" k2="-1" k3="1" operator="arithmetic"/><feColorMatrix type="matrix" values="0 0 0 0 0.25098 0 0 0 0 0.729412 0 0 0 0 1 0 0 0 1 0"/><feBlend in2="shape" mode="normal" result="effect1_innerShadow_5147_19680"/></filter><filter id="b" color-interpolation-filters="sRGB" filterUnits="userSpaceOnUse" height="10.082" width="20.681" x="6.11" y="20.098"><feFlood flood-opacity="0" result="BackgroundImageFix"/><feBlend in="SourceGraphic" in2="BackgroundImageFix" mode="normal" result="shape"/><feGaussianBlur result="effect1_foregroundBlur_5147_19680" stdDeviation=".75"/></filter><filter id="c" color-interpolation-filters="sRGB" filterUnits="userSpaceOnUse" height="8.644" width="24.344" x="2.007" y="20.974"><feFlood flood-opacity="0" result="BackgroundImageFix"/><feBlend in="SourceGraphic" in2="BackgroundImageFix" mode="normal" result="shape"/><feColorMatrix in="SourceAlpha" result="hardAlpha" type="matrix" values="0 0 0 0 0 0 0 0 0 0 0 0 0 0 0 0 0 0 127 0"/><feOffset/><feGaussianBlur stdDeviation=".25"/><feComposite in2="hardAlpha" k2="-1" k3="1" operator="arithmetic"/><feColorMatrix type="matrix" values="0 0 0 0 0.490196 0 0 0 0 0.415686 0 0 0 0 0.839216 0 0 0 1 0"/><feBlend in2="shape" mode="normal" result="effect1_innerShadow_5147_19680"/></filter><filter id="d" color-interpolation-filters="sRGB" filterUnits="userSpaceOnUse" height="2.686" width="2.686" x="24.571" y="13.216"><feFlood flood-opacity="0" result="BackgroundImageFix"/><feBlend in="SourceGraphic" in2="BackgroundImageFix" mode="normal" result="shape"/><feColorMatrix in="SourceAlpha" result="hardAlpha" type="matrix" values="0 0 0 0 0 0 0 0 0 0 0 0 0 0 0 0 0 0 127 0"/><feOffset dx=".1" dy="-.1"/><feGaussianBlur stdDeviation=".3"/><feComposite in2="hardAlpha" k2="-1" k3="1" operator="arithmetic"/><feColorMatrix type="matrix" values="0 0 0 0 0.290196 0 0 0 0 0.619608 0 0 0 0 0.952941 0 0 0 1 0"/><feBlend in2="shape" mode="normal" result="effect1_innerShadow_5147_19680"/></filter><filter id="e" color-interpolation-filters="sRGB" filterUnits="userSpaceOnUse" height="2.186" width="2.186" x="27.821" y="11.517"><feFlood flood-opacity="0" result="BackgroundImageFix"/><feBlend in="SourceGraphic" in2="BackgroundImageFix" mode="normal" result="shape"/><feColorMatrix in="SourceAlpha" result="hardAlpha" type="matrix" values="0 0 0 0 0 0 0 0 0 0 0 0 0 0 0 0 0 0 127 0"/><feOffset dx=".1" dy="-.1"/><feGaussianBlur stdDeviation=".3"/><feComposite in2="hardAlpha" k2="-1" k3="1" operator="arithmetic"/><feColorMatrix type="matrix" values="0 0 0 0 0.290196 0 0 0 0 0.619608 0 0 0 0 0.952941 0 0 0 1 0"/><feBlend in2="shape" mode="normal" result="effect1_innerShadow_5147_19680"/></filter><filter id="f" color-interpolation-filters="sRGB" filterUnits="userSpaceOnUse" height="1.928" width="1.928" x="25.946" y="9.56"><feFlood flood-opacity="0" result="BackgroundImageFix"/><feBlend in="SourceGraphic" in2="BackgroundImageFix" mode="normal" result="shape"/><feColorMatrix in="SourceAlpha" result="hardAlpha" type="matrix" values="0 0 0 0 0 0 0 0 0 0 0 0 0 0 0 0 0 0 127 0"/><feOffset dx=".1" dy="-.1"/><feGaussianBlur stdDeviation=".225"/><feComposite in2="hardAlpha" k2="-1" k3="1" operator="arithmetic"/><feColorMatrix type="matrix" values="0 0 0 0 0.290196 0 0 0 0 0.619608 0 0 0 0 0.952941 0 0 0 1 0"/><feBlend in2="shape" mode="normal" result="effect1_innerShadow_5147_19680"/></filter><filter id="g" color-interpolation-filters="sRGB" filterUnits="userSpaceOnUse" height="2.898" width="2.857" x="20.532" y="11.985"><feFlood flood-opacity="0" result="BackgroundImageFix"/><feBlend in="SourceGraphic" in2="BackgroundImageFix" mode="normal" result="shape"/><feColorMatrix in="SourceAlpha" result="hardAlpha" type="matrix" values="0 0 0 0 0 0 0 0 0 0 0 0 0 0 0 0 0 0 127 0"/><feOffset dx=".25" dy="-.25"/><feGaussianBlur stdDeviation=".5"/><feComposite in2="hardAlpha" k2="-1" k3="1" operator="arithmetic"/><feColorMatrix type="matrix" values="0 0 0 0 0.909804 0 0 0 0 0.556863 0 0 0 0 0.196078 0 0 0 1 0"/><feBlend in2="shape" mode="normal" result="effect1_innerShadow_5147_19680"/></filter><filter id="h" color-interpolation-filters="sRGB" filterUnits="userSpaceOnUse" height="6.952" width="5.571" x="7.773" y="7.681"><feFlood flood-opacity="0" result="BackgroundImageFix"/><feBlend in="SourceGraphic" in2="BackgroundImageFix" mode="normal" result="shape"/><feColorMatrix in="SourceAlpha" result="hardAlpha" type="matrix" values="0 0 0 0 0 0 0 0 0 0 0 0 0 0 0 0 0 0 127 0"/><feOffset dx="-.15" dy="-.6"/><feGaussianBlur stdDeviation=".3"/><feComposite in2="hardAlpha" k2="-1" k3="1" operator="arithmetic"/><feColorMatrix type="matrix" values="0 0 0 0 0.156863 0 0 0 0 0.396078 0 0 0 0 0.768627 0 0 0 1 0"/><feBlend in2="shape" mode="normal" result="effect1_innerShadow_5147_19680"/></filter><filter id="i" color-interpolation-filters="sRGB" filterUnits="userSpaceOnUse" height="18.152" width="14.97" x="8.427" y="7.453"><feFlood flood-opacity="0" result="BackgroundImageFix"/><feBlend in="SourceGraphic" in2="BackgroundImageFix" mode="normal" result="shape"/><feColorMatrix in="SourceAlpha" result="hardAlpha" type="matrix" values="0 0 0 0 0 0 0 0 0 0 0 0 0 0 0 0 0 0 127 0"/><feOffset dx=".25" dy=".2"/><feGaussianBlur stdDeviation=".15"/><feComposite in2="hardAlpha" k2="-1" k3="1" operator="arithmetic"/><feColorMatrix type="matrix" values="0 0 0 0 0.270588 0 0 0 0 0.537255 0 0 0 0 0.8 0 0 0 1 0"/><feBlend in2="shape" mode="normal" result="effect1_innerShadow_5147_19680"/></filter><filter id="j" color-interpolation-filters="sRGB" filterUnits="userSpaceOnUse" height="14.8" width="17.737" x="13.579" y="15.699"><feFlood flood-opacity="0" result="BackgroundImageFix"/><feBlend in="SourceGraphic" in2="BackgroundImageFix" mode="normal" result="shape"/><feGaussianBlur result="effect1_foregroundBlur_5147_19680" stdDeviation="1"/></filter><filter id="k" color-interpolation-filters="sRGB" filterUnits="userSpaceOnUse" height="14.75" width="6.506" x="14.572" y="7.258"><feFlood flood-opacity="0" result="BackgroundImageFix"/><feBlend in="SourceGraphic" in2="BackgroundImageFix" mode="normal" result="shape"/><feGaussianBlur result="effect1_foregroundBlur_5147_19680" stdDeviation=".375"/></filter><filter id="l" color-interpolation-filters="sRGB" filterUnits="userSpaceOnUse" height="5.421" width="5.506" x="17.991" y="7.333"><feFlood flood-opacity="0" result="BackgroundImageFix"/><feBlend in="SourceGraphic" in2="BackgroundImageFix" mode="normal" result="shape"/><feGaussianBlur result="effect1_foregroundBlur_5147_19680" stdDeviation=".3"/></filter><filter id="m" color-interpolation-filters="sRGB" filterUnits="userSpaceOnUse" height="1.868" width="1.868" x="10.92" y="5.201"><feFlood flood-opacity="0" result="BackgroundImageFix"/><feBlend in="SourceGraphic" in2="BackgroundImageFix" mode="normal" result="shape"/><feGaussianBlur result="effect1_foregroundBlur_5147_19680" stdDeviation=".25"/></filter><filter id="n" color-interpolation-filters="sRGB" filterUnits="userSpaceOnUse" height="1.707" width="1.707" x="15.275" y="5.156"><feFlood flood-opacity="0" result="BackgroundImageFix"/><feBlend in="SourceGraphic" in2="BackgroundImageFix" mode="normal" result="shape"/><feColorMatrix in="SourceAlpha" result="hardAlpha" type="matrix" values="0 0 0 0 0 0 0 0 0 0 0 0 0 0 0 0 0 0 127 0"/><feOffset dx=".25" dy="-.25"/><feGaussianBlur stdDeviation=".25"/><feComposite in2="hardAlpha" k2="-1" k3="1" operator="arithmetic"/><feColorMatrix type="matrix" values="0 0 0 0 0.85098 0 0 0 0 0.560784 0 0 0 0 0.376471 0 0 0 1 0"/><feBlend in2="shape" mode="normal" result="effect1_innerShadow_5147_19680"/></filter><filter id="o" color-interpolation-filters="sRGB" filterUnits="userSpaceOnUse" height="1.868" width="1.868" x="15.069" y="5.201"><feFlood flood-opacity="0" result="BackgroundImageFix"/><feBlend in="SourceGraphic" in2="BackgroundImageFix" mode="normal" result="shape"/><feGaussianBlur result="effect1_foregroundBlur_5147_19680" stdDeviation=".25"/></filter><filter id="p" color-interpolation-filters="sRGB" filterUnits="userSpaceOnUse" height="3.659" width="5.497" x="11.176" y="2.233"><feFlood flood-opacity="0" result="BackgroundImageFix"/><feBlend in="SourceGraphic" in2="BackgroundImageFix" mode="normal" result="shape"/><feColorMatrix in="SourceAlpha" result="hardAlpha" type="matrix" values="0 0 0 0 0 0 0 0 0 0 0 0 0 0 0 0 0 0 127 0"/><feOffset dy="-.15"/><feGaussianBlur stdDeviation=".075"/><feComposite in2="hardAlpha" k2="-1" k3="1" operator="arithmetic"/><feColorMatrix type="matrix" values="0 0 0 0 0.984314 0 0 0 0 0.584314 0 0 0 0 0.129412 0 0 0 1 0"/><feBlend in2="shape" mode="normal" result="effect1_innerShadow_5147_19680"/><feColorMatrix in="SourceAlpha" result="hardAlpha" type="matrix" values="0 0 0 0 0 0 0 0 0 0 0 0 0 0 0 0 0 0 127 0"/><feOffset dy="-.1"/><feGaussianBlur stdDeviation=".125"/><feComposite in2="hardAlpha" k2="-1" k3="1" operator="arithmetic"/><feColorMatrix type="matrix" values="0 0 0 0 0.972549 0 0 0 0 0.572549 0 0 0 0 0.0156863 0 0 0 1 0"/><feBlend in2="effect1_innerShadow_5147_19680" mode="normal" result="effect2_innerShadow_5147_19680"/></filter><filter id="q" color-interpolation-filters="sRGB" filterUnits="userSpaceOnUse" height="2.67" width="2.268" x="12.687" y="5.208"><feFlood flood-opacity="0" result="BackgroundImageFix"/><feBlend in="SourceGraphic" in2="BackgroundImageFix" mode="normal" result="shape"/><feGaussianBlur result="effect1_foregroundBlur_5147_19680" stdDeviation=".375"/></filter><filter id="r" color-interpolation-filters="sRGB" filterUnits="userSpaceOnUse" height="1.37" width="1.019" x="13.415" y="5.787"><feFlood flood-opacity="0" result="BackgroundImageFix"/><feBlend in="SourceGraphic" in2="BackgroundImageFix" mode="normal" result="shape"/><feGaussianBlur result="effect1_foregroundBlur_5147_19680" stdDeviation=".05"/></filter><filter id="s" color-interpolation-filters="sRGB" filterUnits="userSpaceOnUse" height=".868" width="1.804" x="13.023" y="7.149"><feFlood flood-opacity="0" result="BackgroundImageFix"/><feBlend in="SourceGraphic" in2="BackgroundImageFix" mode="normal" result="shape"/><feGaussianBlur result="effect1_foregroundBlur_5147_19680" stdDeviation=".05"/></filter><filter id="t" color-interpolation-filters="sRGB" filterUnits="userSpaceOnUse" height=".417" width=".456" x="14.499" y="5.589"><feFlood flood-opacity="0" result="BackgroundImageFix"/><feBlend in="SourceGraphic" in2="BackgroundImageFix" mode="normal" result="shape"/><feGaussianBlur result="effect1_foregroundBlur_5147_19680" stdDeviation=".05"/></filter><filter id="u" color-interpolation-filters="sRGB" filterUnits="userSpaceOnUse" height=".624" width=".614" x="14.809" y="5.565"><feFlood flood-opacity="0" result="BackgroundImageFix"/><feBlend in="SourceGraphic" in2="BackgroundImageFix" mode="normal" result="shape"/><feGaussianBlur result="effect1_foregroundBlur_5147_19680" stdDeviation=".1"/></filter><filter id="v" color-interpolation-filters="sRGB" filterUnits="userSpaceOnUse" height=".679" width=".656" x="12.871" y="5.538"><feFlood flood-opacity="0" result="BackgroundImageFix"/><feBlend in="SourceGraphic" in2="BackgroundImageFix" mode="normal" result="shape"/><feGaussianBlur result="effect1_foregroundBlur_5147_19680" stdDeviation=".1"/></filter><filter id="w" color-interpolation-filters="sRGB" filterUnits="userSpaceOnUse" height=".42" width=".511" x="12.598" y="5.586"><feFlood flood-opacity="0" result="BackgroundImageFix"/><feBlend in="SourceGraphic" in2="BackgroundImageFix" mode="normal" result="shape"/><feGaussianBlur result="effect1_foregroundBlur_5147_19680" stdDeviation=".05"/></filter><filter id="x" color-interpolation-filters="sRGB" filterUnits="userSpaceOnUse" height=".859" width="1.135" x="14.476" y="4.506"><feFlood flood-opacity="0" result="BackgroundImageFix"/><feBlend in="SourceGraphic" in2="BackgroundImageFix" mode="normal" result="shape"/><feColorMatrix in="SourceAlpha" result="hardAlpha" type="matrix" values="0 0 0 0 0 0 0 0 0 0 0 0 0 0 0 0 0 0 127 0"/><feOffset dy="-.25"/><feGaussianBlur stdDeviation=".2"/><feComposite in2="hardAlpha" k2="-1" k3="1" operator="arithmetic"/><feColorMatrix type="matrix" values="0 0 0 0 0.698039 0 0 0 0 0.25098 0 0 0 0 0.313726 0 0 0 1 0"/><feBlend in2="shape" mode="normal" result="effect1_innerShadow_5147_19680"/></filter><filter id="y" color-interpolation-filters="sRGB" filterUnits="userSpaceOnUse" height=".647" width="1.173" x="14.457" y="4.689"><feFlood flood-opacity="0" result="BackgroundImageFix"/><feBlend in="SourceGraphic" in2="BackgroundImageFix" mode="normal" result="shape"/><feGaussianBlur result="effect1_foregroundBlur_5147_19680" stdDeviation=".075"/></filter><filter id="z" color-interpolation-filters="sRGB" filterUnits="userSpaceOnUse" height=".859" width="1.135" x="12.239" y="4.506"><feFlood flood-opacity="0" result="BackgroundImageFix"/><feBlend in="SourceGraphic" in2="BackgroundImageFix" mode="normal" result="shape"/><feColorMatrix in="SourceAlpha" result="hardAlpha" type="matrix" values="0 0 0 0 0 0 0 0 0 0 0 0 0 0 0 0 0 0 127 0"/><feOffset dy="-.25"/><feGaussianBlur stdDeviation=".2"/><feComposite in2="hardAlpha" k2="-1" k3="1" operator="arithmetic"/><feColorMatrix type="matrix" values="0 0 0 0 0.698039 0 0 0 0 0.25098 0 0 0 0 0.313726 0 0 0 1 0"/><feBlend in2="shape" mode="normal" result="effect1_innerShadow_5147_19680"/></filter><filter id="A" color-interpolation-filters="sRGB" filterUnits="userSpaceOnUse" height=".647" width="1.173" x="12.22" y="4.689"><feFlood flood-opacity="0" result="BackgroundImageFix"/><feBlend in="SourceGraphic" in2="BackgroundImageFix" mode="normal" result="shape"/><feGaussianBlur result="effect1_foregroundBlur_5147_19680" stdDeviation=".075"/></filter><linearGradient id="B" gradientUnits="userSpaceOnUse" x1="7.172" x2="16.735" y1="29.211" y2="29.211"><stop offset="0" stop-color="#2d7cf2"/><stop offset="1" stop-color="#2d7cf2" stop-opacity="0"/></linearGradient><radialGradient id="C" cx="0" cy="0" gradientTransform="matrix(3.84375228 7.81249983 -11.27827054 5.54891251 20.985 21.6173)" gradientUnits="userSpaceOnUse" r="1"><stop offset=".7" stop-color="#3eb9ff" stop-opacity="0"/><stop offset=".913" stop-color="#7196ff"/></radialGradient><linearGradient id="D" gradientUnits="userSpaceOnUse" x1="16.86" x2="16.766" y1="30.117" y2="28.492"><stop offset=".178" stop-color="#7f8fff"/><stop offset="1" stop-color="#7f8fff" stop-opacity="0"/></linearGradient><radialGradient id="E" cx="0" cy="0" gradientTransform="matrix(3.56250106 -6.12499706 3.81620608 2.21963179 22.2037 21.7735)" gradientUnits="userSpaceOnUse" r="1"><stop offset="0" stop-color="#4db5e2"/><stop offset="1" stop-color="#4db5e2" stop-opacity="0"/></radialGradient><radialGradient id="F" cx="0" cy="0" gradientTransform="matrix(2.15624814 -12.12496371 23.16435959 4.11944385 23.61 28.6173)" gradientUnits="userSpaceOnUse" r="1"><stop offset=".931" stop-color="#66b4dd" stop-opacity="0"/><stop offset="1" stop-color="#66b4dd"/></radialGradient><radialGradient id="G" cx="0" cy="0" gradientTransform="matrix(1.09704625 3.37499821 -16.62040304 5.40247719 16.1692 25.0548)" gradientUnits="userSpaceOnUse" r="1"><stop offset=".716" stop-color="#37a9ff" stop-opacity="0"/><stop offset="1" stop-color="#37a9ff"/></radialGradient><radialGradient id="H" cx="0" cy="0" gradientTransform="matrix(.17187474 -1.26562281 1.6575057 .22509342 9.57874 26.2736)" gradientUnits="userSpaceOnUse" r="1"><stop offset="0" stop-color="#ffc73f"/><stop offset="1" stop-color="#ffbe42"/></radialGradient><linearGradient id="I" gradientUnits="userSpaceOnUse" x1="10.344" x2="9.579" y1="25.82" y2="25.883"><stop offset="0" stop-color="#ffaf2e"/><stop offset="1" stop-color="#ffaf2e" stop-opacity="0"/></linearGradient><linearGradient id="J" gradientUnits="userSpaceOnUse" x1="21.172" x2="19.469" y1="21.774" y2="22.86"><stop offset="0" stop-color="#ffd545"/><stop offset="1" stop-color="#e28e5b"/></linearGradient><linearGradient id="K" gradientUnits="userSpaceOnUse" x1="22.095" x2="23.329" y1="24.68" y2="25.961"><stop offset="0" stop-color="#b041ab"/><stop offset="1" stop-color="#9157c5"/></linearGradient><radialGradient id="L" cx="0" cy="0" gradientTransform="matrix(-.73437277 -1.28906035 .42946145 -.24466255 23.5787 25.3204)" gradientUnits="userSpaceOnUse" r="1"><stop offset="0" stop-color="#b77dc7"/><stop offset="1" stop-color="#b77dc7" stop-opacity="0"/></radialGradient><linearGradient id="M" gradientUnits="userSpaceOnUse" x1="5.891" x2="25.735" y1="29.086" y2="22.18"><stop offset="0" stop-color="#f54696"/><stop offset="1" stop-color="#84a6e9"/></linearGradient><radialGradient id="N" cx="0" cy="0" gradientTransform="matrix(-.84374012 -2.31250419 1.52582138 -.55671109 25.2037 23.1173)" gradientUnits="userSpaceOnUse" r="1"><stop offset="0" stop-color="#9eaef5"/><stop offset="1" stop-color="#9eaef5" stop-opacity="0"/></radialGradient><radialGradient id="O" cx="0" cy="0" gradientTransform="matrix(-1.98032817 1.30152526 -1.05308241 -1.60231141 26.7037 14.1329)" gradientUnits="userSpaceOnUse" r="1"><stop offset=".171" stop-color="#64ddff"/><stop offset="1" stop-color="#36b0fc"/></radialGradient><linearGradient id="P"><stop offset="0" stop-color="#65e0ff"/><stop offset="1" stop-color="#36b0fc"/></linearGradient><radialGradient id="Q" cx="0" cy="0" gradientTransform="matrix(-1.47607442 .92253278 -.74643722 -1.19431732 29.42 12.4032)" gradientUnits="userSpaceOnUse" r="1" xlink:href="#P"/><radialGradient id="R" cx="0" cy="0" gradientTransform="matrix(-1.29364378 .80851533 -.65418129 -1.04670564 27.3474 10.349)" gradientUnits="userSpaceOnUse" r="1" xlink:href="#P"/><radialGradient id="S" cx="0" cy="0" gradientTransform="matrix(-.06342427 .7319904 -.559948 -.04851743 21.0243 12.9553)" gradientUnits="userSpaceOnUse" r="1"><stop offset=".317" stop-color="#ef972b"/><stop offset="1" stop-color="#de8137"/></radialGradient><radialGradient id="T" cx="0" cy="0" gradientTransform="matrix(-2.12500474 1.82811509 -1.79960898 -2.09186918 23.2975 13.0548)" gradientUnits="userSpaceOnUse" r="1"><stop offset="0" stop-color="#ffd441"/><stop offset="1" stop-color="#ffb834"/></radialGradient><radialGradient id="U" cx="0" cy="0" gradientTransform="matrix(-3.7500054 2.87498548 -.73886408 -.96374201 12.9225 8.89856)" gradientUnits="userSpaceOnUse" r="1"><stop offset=".263" stop-color="#5391be"/><stop offset="1" stop-color="#5391be" stop-opacity="0"/></radialGradient><radialGradient id="V" cx="0" cy="0" gradientTransform="matrix(-.9687314 4.04687881 -1.31668152 -.31518382 13.1412 10.5861)" gradientUnits="userSpaceOnUse" r="1"><stop offset="0" stop-color="#1154b9"/><stop offset="1" stop-color="#1154b9" stop-opacity="0"/></radialGradient><linearGradient id="W" gradientUnits="userSpaceOnUse" x1="15.777" x2="15.777" y1="7.453" y2="25.414"><stop offset="0" stop-color="#3794e2"/><stop offset="1" stop-color="#3066bf"/></linearGradient><radialGradient id="X" cx="0" cy="0" gradientTransform="matrix(4.21875521 -6.78124829 .537192 .33419828 11.3287 24.2736)" gradientUnits="userSpaceOnUse" r="1"><stop offset="0" stop-color="#2b68b8"/><stop offset="1" stop-color="#2b68b8" stop-opacity="0"/></radialGradient><radialGradient id="Y" cx="0" cy="0" gradientTransform="matrix(0 1.49191 -2.04898 0 13.7762 7.45325)" gradientUnits="userSpaceOnUse" r="1"><stop offset=".184" stop-color="#3168c8"/><stop offset="1" stop-color="#3168c8" stop-opacity="0"/></radialGradient><radialGradient id="Z" cx="0" cy="0" gradientTransform="matrix(1.38037627 -.82812562 3.08645313 5.14471062 17.3387 21.0858)" gradientUnits="userSpaceOnUse" r="1"><stop offset=".256" stop-color="#4861ab"/><stop offset="1" stop-color="#4861ab" stop-opacity="0"/></radialGradient><linearGradient id="aa" gradientUnits="userSpaceOnUse" x1="23.651" x2="16.517" y1="12.35" y2="8.396"><stop offset="0" stop-color="#46a5ef"/><stop offset=".91" stop-color="#418dd5"/></linearGradient><radialGradient id="ab" cx="0" cy="0" gradientTransform="matrix(3.55688671 1.62587241 -.93464372 2.04470032 18.61 10.6005)" gradientUnits="userSpaceOnUse" r="1"><stop offset=".317" stop-color="#2965ce"/><stop offset="1" stop-color="#2965ce" stop-opacity="0"/><stop offset="1" stop-color="#815ecd" stop-opacity="0"/></radialGradient><linearGradient id="ac"><stop offset=".081" stop-color="#e39647"/><stop offset="1" stop-color="#e39647" stop-opacity="0"/></linearGradient><radialGradient id="ad" cx="0" cy="0" gradientTransform="matrix(-.32030995 -.96260677 1.21081603 -.40290224 5.66467 13.4845)" gradientUnits="userSpaceOnUse" r="1" xlink:href="#ac"/><radialGradient id="ae" cx="0" cy="0" gradientTransform="matrix(-.25781814 -.71093512 1.2926546 -.46877669 5.64905 13.8985)" gradientUnits="userSpaceOnUse" r="1" xlink:href="#ac"/><radialGradient id="af" cx="0" cy="0" gradientTransform="matrix(-.25402562 -1.03125405 1.9627209 -.48347098 5.74683 14.6798)" gradientUnits="userSpaceOnUse" r="1" xlink:href="#ac"/><radialGradient id="ag" cx="0" cy="0" gradientTransform="matrix(-.27343777 -.59147529 1.24454326 -.5753497 6.04749 14.9221)" gradientUnits="userSpaceOnUse" r="1" xlink:href="#ac"/><radialGradient id="ah" cx="0" cy="0" gradientTransform="matrix(.42822452 .95084032 -2.9020589 1.30698367 6.51624 14.3673)" gradientUnits="userSpaceOnUse" r="1"><stop offset=".518" stop-color="#e39647" stop-opacity="0"/><stop offset="1" stop-color="#e39647"/></radialGradient><radialGradient id="ai" cx="0" cy="0" gradientTransform="matrix(-11.2812523 11.2812523 -14.3498836 -14.3498836 28.8287 18.7111)" gradientUnits="userSpaceOnUse" r="1"><stop offset="0" stop-color="#67ecff"/><stop offset="1" stop-color="#67ecff" stop-opacity="0"/></radialGradient><linearGradient id="aj" gradientUnits="userSpaceOnUse" x1="17.826" x2="20.269" y1="8.008" y2="21.244"><stop offset="0" stop-color="#54acfa"/><stop offset="1" stop-color="#6096e0"/></linearGradient><linearGradient id="ak" gradientUnits="userSpaceOnUse" x1="22.438" x2="18.766" y1="11.727" y2="7.836"><stop offset="0" stop-color="#57b4fd"/><stop offset="1" stop-color="#57b4fd" stop-opacity="0"/></linearGradient><radialGradient id="al" cx="0" cy="0" gradientTransform="matrix(.765521 0 0 1.33967 11.1254 6.13476)" gradientUnits="userSpaceOnUse" r="1"><stop offset=".351" stop-color="#e6962b"/><stop offset="1" stop-color="#ca8f29"/></radialGradient><linearGradient id="am" gradientUnits="userSpaceOnUse" x1="11.854" x2="11.574" y1="6.256" y2="6.256"><stop offset="0" stop-color="#bd6a1e"/><stop offset="1" stop-color="#d77a1c"/></linearGradient><linearGradient id="an" gradientUnits="userSpaceOnUse" x1="16.477" x2="16.12" y1="5.659" y2="6.765"><stop offset="0" stop-color="#ffe446"/><stop offset="1" stop-color="#ffc339"/></linearGradient><radialGradient id="ao" cx="0" cy="0" gradientTransform="matrix(.36063152 -.26259543 .29971846 .41161388 16.1659 6.01922)" gradientUnits="userSpaceOnUse" r="1"><stop offset=".543" stop-color="#ffc532"/><stop offset="1" stop-color="#ffc532" stop-opacity="0"/></radialGradient><radialGradient id="ap" cx="0" cy="0" gradientTransform="matrix(.35825769 -.65893697 .38567832 .20968959 15.9855 6.4931)" gradientUnits="userSpaceOnUse" r="1"><stop offset=".69" stop-color="#f4a51a" stop-opacity="0"/><stop offset="1" stop-color="#f4a51a"/></radialGradient><radialGradient id="aq" cx="0" cy="0" gradientTransform="matrix(.11310869 .11196047 -.14433298 .1458132 16.0035 6.13484)" gradientUnits="userSpaceOnUse" r="1"><stop offset="0" stop-color="#e59b1f"/><stop offset="1" stop-color="#e59b1f" stop-opacity="0"/></radialGradient><linearGradient id="ar" gradientUnits="userSpaceOnUse" x1="15.685" x2="12.354" y1="6.305" y2="6.801"><stop offset="0" stop-color="#ffe833"/><stop offset=".916" stop-color="#f9a528"/></linearGradient><linearGradient id="as" gradientUnits="userSpaceOnUse" x1="11.571" x2="12.58" y1="7.481" y2="7.349"><stop offset="0" stop-color="#d19c3a"/><stop offset="1" stop-color="#d19c3a" stop-opacity="0"/></linearGradient><radialGradient id="at" cx="0" cy="0" gradientTransform="matrix(0 3.74529 -4.27645 0 14.1388 5.44077)" gradientUnits="userSpaceOnUse" r="1"><stop offset=".56" stop-color="#f49a3e" stop-opacity="0"/><stop offset="1" stop-color="#d07f50"/></radialGradient><radialGradient id="au" cx="0" cy="0" gradientTransform="matrix(0 -.570186 .701766 0 14.9482 5.58018)" gradientUnits="userSpaceOnUse" r="1"><stop offset="0" stop-color="#ffba0d"/><stop offset="1" stop-color="#ffba0d" stop-opacity="0"/></radialGradient><radialGradient id="av" cx="0" cy="0" gradientTransform="matrix(0 -.606736 .75453 0 12.9598 5.56556)" gradientUnits="userSpaceOnUse" r="1"><stop offset="0" stop-color="#ee911a"/><stop offset="1" stop-color="#ee911a" stop-opacity="0"/></radialGradient><radialGradient id="aw" cx="0" cy="0" gradientTransform="matrix(-1.49914318 1.93219625 -3.28588004 -2.54943287 15.5354 2.77015)" gradientUnits="userSpaceOnUse" r="1"><stop offset="0" stop-color="#ffe336"/><stop offset="1" stop-color="#ffe336" stop-opacity="0"/></radialGradient><linearGradient id="ax" gradientUnits="userSpaceOnUse" x1="11.804" x2="13.07" y1="6.018" y2="3.77"><stop offset="0" stop-color="#e07027"/><stop offset="1" stop-color="#e07027" stop-opacity="0"/></linearGradient><radialGradient id="ay" cx="0" cy="0" gradientTransform="matrix(-.08048066 -.86918798 .426878 -.03952588 12.1205 4.5477)" gradientUnits="userSpaceOnUse" r="1"><stop offset=".222" stop-color="#ffb42c"/><stop offset="1" stop-color="#ffb42c" stop-opacity="0"/></radialGradient><radialGradient id="az" cx="0" cy="0" gradientTransform="matrix(.37478253 -.85783517 .69963088 .30566412 15.7686 5.37697)" gradientUnits="userSpaceOnUse" r="1"><stop offset=".479" stop-color="#e57d1c"/><stop offset="1" stop-color="#e57d1c" stop-opacity="0"/></radialGradient><radialGradient id="aA" cx="0" cy="0" gradientTransform="matrix(.43308151 .53737407 -.47446357 .38238056 13.5865 2.38269)" gradientUnits="userSpaceOnUse" r="1"><stop offset="0" stop-color="#ffce2c"/><stop offset="1" stop-color="#ffce2c" stop-opacity="0"/></radialGradient><radialGradient id="aB" cx="0" cy="0" gradientTransform="matrix(.63296516 -1.32423052 .45754085 .21869864 15.7519 4.29427)" gradientUnits="userSpaceOnUse" r="1"><stop offset="0" stop-color="#ffd93a"/><stop offset="1" stop-color="#ffd93a" stop-opacity="0"/></radialGradient><radialGradient id="aC" cx="0" cy="0" gradientTransform="matrix(.11392938 .44273106 -.7278694 .18730493 14.2278 2.38269)" gradientUnits="userSpaceOnUse" r="1"><stop offset=".208" stop-color="#ddb13b"/><stop offset="1" stop-color="#ffc926" stop-opacity="0"/></radialGradient><radialGradient id="aD" cx="0" cy="0" gradientTransform="matrix(.4828818 .69749733 -1.45148259 1.00487056 12.0132 2.93273)" gradientUnits="userSpaceOnUse" r="1"><stop offset=".288" stop-color="#c9993e"/><stop offset="1" stop-color="#f29322" stop-opacity="0"/></radialGradient><radialGradient id="aE" cx="0" cy="0" gradientTransform="matrix(-3.14410726 1.41644907 -1.77238096 -3.93417312 14.4276 4.23115)" gradientUnits="userSpaceOnUse" r="1"><stop offset=".756" stop-color="#cf7d35" stop-opacity="0"/><stop offset=".959" stop-color="#cf7d35"/></radialGradient><linearGradient id="aF" gradientUnits="userSpaceOnUse" x1="13.548" x2="13.957" y1="6.592" y2="6.592"><stop offset="0" stop-color="#faa416"/><stop offset="1" stop-color="#faa416" stop-opacity="0"/></linearGradient><linearGradient id="aG" gradientUnits="userSpaceOnUse" x1="14.334" x2="13.887" y1="6.733" y2="6.727"><stop offset="0" stop-color="#ffe721"/><stop offset="1" stop-color="#ffe721" stop-opacity="0"/></linearGradient><linearGradient id="aH" gradientUnits="userSpaceOnUse" x1="14.01" x2="14.01" y1="7.057" y2="6.807"><stop offset="0" stop-color="#eb8a1c"/><stop offset="1" stop-color="#eb8a1c" stop-opacity="0"/></linearGradient><radialGradient id="aI" cx="0" cy="0" gradientTransform="matrix(.01073053 -.27363368 .82090005 .03219155 13.8879 7.88488)" gradientUnits="userSpaceOnUse" r="1"><stop offset="0" stop-color="#ffd069"/><stop offset="1" stop-color="#ffbe30" stop-opacity="0"/></radialGradient><linearGradient id="aJ"><stop offset=".75" stop-color="#925c51"/><stop offset="1" stop-color="#694b43"/><stop offset="1" stop-color="#804d49"/><stop offset="1" stop-color="#85534d"/></linearGradient><radialGradient id="aK" cx="0" cy="0" gradientTransform="matrix(0 .393982 -.466183 0 14.8753 5.98282)" gradientUnits="userSpaceOnUse" r="1" xlink:href="#aJ"/><linearGradient id="aL"><stop offset=".766" stop-color="#ffe6e2" stop-opacity="0"/><stop offset=".966" stop-color="#ffe6e2"/></linearGradient><radialGradient id="aM" cx="0" cy="0" gradientTransform="matrix(-.10114593 -.13034017 .17944665 -.13925329 14.7758 5.87392)" gradientUnits="userSpaceOnUse" r="1" xlink:href="#aL"/><linearGradient id="aN"><stop offset="0" stop-color="#b4948d"/><stop offset="1" stop-color="#b4948d" stop-opacity="0"/></linearGradient><linearGradient id="aO" gradientUnits="userSpaceOnUse" x1="15.215" x2="15.078" xlink:href="#aN" y1="5.861" y2="5.945"/><radialGradient id="aP" cx="0" cy="0" gradientTransform="matrix(0 .394002 -.466207 0 12.972 5.98271)" gradientUnits="userSpaceOnUse" r="1" xlink:href="#aJ"/><linearGradient id="aQ" gradientUnits="userSpaceOnUse" x1="13.296" x2="13.159" xlink:href="#aN" y1="5.861" y2="5.945"/><radialGradient id="aR" cx="0" cy="0" gradientTransform="matrix(-.0033738 -.21548359 .25902025 -.00405545 12.847 5.93286)" gradientUnits="userSpaceOnUse" r="1" xlink:href="#aL"/><linearGradient id="aS"><stop offset=".657" stop-color="#c64f38"/><stop offset="1" stop-color="#bb4f29"/></linearGradient><radialGradient id="aT" cx="0" cy="0" gradientTransform="matrix(.08584585 -.35411399 .77686975 .18833213 14.994 5.17543)" gradientUnits="userSpaceOnUse" r="1" xlink:href="#aS"/><radialGradient id="aU" cx="0" cy="0" gradientTransform="matrix(-.08584585 -.35411399 .77686975 -.18833213 12.8556 5.17543)" gradientUnits="userSpaceOnUse" r="1" xlink:href="#aS"/><g filter="url(#a)"><path d="m19.7506 29.5953h-13.73436c3.43229-1.3259 10.76876-4.3457 12.65626-5.8182 2.3594-1.8406 2.9375-3.2913 4.1094-4.9759 1.1718-1.6846 2.0625-2.2933 3.9218-2.0355 1.6918.2346 3.1641 1.5745 3.2891 4.0391 0 4.5937-2.7392 6.5554-4.1641 7.5114-1.9062 1.2791-4.625 1.3259-6.0781 1.2791z" fill="#4bc4fd"/><path d="m19.7506 29.5953h-13.73436c3.43229-1.3259 10.76876-4.3457 12.65626-5.8182 2.3594-1.8406 2.9375-3.2913 4.1094-4.9759 1.1718-1.6846 2.0625-2.2933 3.9218-2.0355 1.6918.2346 3.1641 1.5745 3.2891 4.0391 0 4.5937-2.7392 6.5554-4.1641 7.5114-1.9062 1.2791-4.625 1.3259-6.0781 1.2791z" fill="url(#B)"/></g><path d="m19.7506 29.5953h-13.73436c3.43229-1.3259 10.76876-4.3457 12.65626-5.8182 2.3594-1.8406 2.9375-3.2913 4.1094-4.9759 1.1718-1.6846 2.0625-2.2933 3.9218-2.0355 1.6918.2346 3.1641 1.5745 3.2891 4.0391 0 4.5937-2.7392 6.5554-4.1641 7.5114-1.9062 1.2791-4.625 1.3259-6.0781 1.2791z" fill="url(#C)"/><path d="m19.7506 29.5953h-13.73436c3.43229-1.3259 10.76876-4.3457 12.65626-5.8182 2.3594-1.8406 2.9375-3.2913 4.1094-4.9759 1.1718-1.6846 2.0625-2.2933 3.9218-2.0355 1.6918.2346 3.1641 1.5745 3.2891 4.0391 0 4.5937-2.7392 6.5554-4.1641 7.5114-1.9062 1.2791-4.625 1.3259-6.0781 1.2791z" fill="url(#D)"/><path d="m19.7506 29.5953h-13.73436c3.43229-1.3259 10.76876-4.3457 12.65626-5.8182 2.3594-1.8406 2.9375-3.2913 4.1094-4.9759 1.1718-1.6846 2.0625-2.2933 3.9218-2.0355 1.6918.2346 3.1641 1.5745 3.2891 4.0391 0 4.5937-2.7392 6.5554-4.1641 7.5114-1.9062 1.2791-4.625 1.3259-6.0781 1.2791z" fill="url(#E)"/><path d="m19.7506 29.5953h-13.73436c3.43229-1.3259 10.76876-4.3457 12.65626-5.8182 2.3594-1.8406 2.9375-3.2913 4.1094-4.9759 1.1718-1.6846 2.0625-2.2933 3.9218-2.0355 1.6918.2346 3.1641 1.5745 3.2891 4.0391 0 4.5937-2.7392 6.5554-4.1641 7.5114-1.9062 1.2791-4.625 1.3259-6.0781 1.2791z" fill="url(#F)"/><g filter="url(#b)"><path d="m21.985 27.1798-14.37501 1.5c4.68751-2.2396 11.93751-4.4063 14.37501-6.1875 1.8259-1.3343 2.8959-1.1992 3.2812.5625.2188 1-1.0312 3.625-3.2812 4.125z" fill="#1b71cc"/><path d="m21.985 27.1798-14.37501 1.5c4.68751-2.2396 11.93751-4.4063 14.37501-6.1875 1.8259-1.3343 2.8959-1.1992 3.2812.5625.2188 1-1.0312 3.625-3.2812 4.125z" fill="url(#G)"/></g><path d="m7.3053 27.1954 1.17187-2.3906 1.76563.3047v1.0391z" fill="url(#H)"/><path d="m7.3053 27.1954 1.17187-2.3906 1.76563.3047v1.0391z" fill="url(#I)"/><path d="m19.8365 22.8595c-.1687-.1438-.6744-.638-.9062-.8672l1.8672-.8828c.075.1312.5104.7995.7187 1.1172z" fill="url(#J)"/><path d="m23.4685 25.1744-.421-1.143-2.3516.5363 2.2255 1.0988c.0933.0461.201.0536.2998.0209.2126-.0704.3246-.3028.2473-.513z" fill="url(#K)"/><path d="m23.4685 25.1744-.421-1.143-2.3516.5363 2.2255 1.0988c.0933.0461.201.0536.2998.0209.2126-.0704.3246-.3028.2473-.513z" fill="url(#L)"/><g filter="url(#c)"><path d="m24.4577 21.1095-22.16728 7.6885c-.17272.0599-.28709.2244-.28312.4072.00498.229.19162.4121.42071.4121h3.94763c.4875 0 .96875-.099 1.15625-.1562 5.92191-2.0157 17.40621-5.8594 18.17581-6.1993.443-.1956.5115-.3783.605-.6277l.0004-.0012c.0938-.25.0469-1.0312-.5-1.4531-.4375-.3375-1.1054-.1849-1.3554-.0703z" fill="url(#M)"/><path d="m24.4577 21.1095-22.16728 7.6885c-.17272.0599-.28709.2244-.28312.4072.00498.229.19162.4121.42071.4121h3.94763c.4875 0 .96875-.099 1.15625-.1562 5.92191-2.0157 17.40621-5.8594 18.17581-6.1993.443-.1956.5115-.3783.605-.6277l.0004-.0012c.0938-.25.0469-1.0312-.5-1.4531-.4375-.3375-1.1054-.1849-1.3554-.0703z" fill="url(#N)"/></g><g filter="url(#d)"><circle cx="25.864" cy="14.61" fill="url(#O)" r="1.293"/></g><g filter="url(#e)"><circle cx="28.864" cy="12.66" fill="url(#Q)" r="1.043"/></g><g filter="url(#f)"><circle cx="26.86" cy="10.574" fill="url(#R)" r=".914"/></g><rect fill="url(#S)" height="1.031" rx=".299" transform="matrix(.89419175 .44768418 -.44768418 .89419175 7.852317 -7.910654)" width=".599" x="20.662" y="12.657"/><g filter="url(#g)"><path d="m20.6802 13.6963c.2562-.5878.3724-1.2195.3984-1.4618l2.047.0234c.0469.269-.0391.5837-.0781.7036.0875.3221.0364.6866 0 .8286-.0547.2254-.1789.713-.2383.8599-.0742.1837-.1836.2463-.3477.2306-.0572-.0054-.1075-.0225-.1488-.0429-.0687-.034-.157-.0435-.2296-.0188-.0653.0223-.146.036-.227.0187-.0843-.0179-.1537-.065-.2037-.1124-.0518-.0492-.1256-.0758-.1954-.0604-.0666.0147-.1466.0229-.2259.0048-.066-.0151-.1267-.0651-.172-.1149-.0442-.0487-.11-.077-.1755-.0711-.0843.0075-.1828.0029-.2347-.0407-.0976-.0821-.2187-.1759.0313-.7466z" fill="url(#T)"/></g><path d="m7.56311 12.6252h.59375c-.10625.6687.07031 1.612.17188 2-1.00625.1312-1.69532-.112-1.91407-.25l-.10937-1.461c.33125-.2562.97656-.2994 1.25781-.289z" fill="#ffbd2e"/><g filter="url(#h)"><path d="m10.6842 11.5431c-.96738.7145-2.20452 1.0169-2.72275 1.0586-.13125 1 .10677 1.7708.24218 2.0312.30089-.0273 1.14854-.1093 2.49997-.7187 1.6792-.7571 2.4585-1.8034 2.6408-2.2461l-.2813-3.38673c-.375 1.03125-1.0039 2.24613-2.3789 3.26173z" fill="#3086d6"/><path d="m10.6842 11.5431c-.96738.7145-2.20452 1.0169-2.72275 1.0586-.13125 1 .10677 1.7708.24218 2.0312.30089-.0273 1.14854-.1093 2.49997-.7187 1.6792-.7571 2.4585-1.8034 2.6408-2.2461l-.2813-3.38673c-.375 1.03125-1.0039 2.24613-2.3789 3.26173z" fill="url(#U)"/><path d="m10.6842 11.5431c-.96738.7145-2.20452 1.0169-2.72275 1.0586-.13125 1 .10677 1.7708.24218 2.0312.30089-.0273 1.14854-.1093 2.49997-.7187 1.6792-.7571 2.4585-1.8034 2.6408-2.2461l-.2813-3.38673c-.375 1.03125-1.0039 2.24613-2.3789 3.26173z" fill="url(#V)"/></g><g filter="url(#i)"><path d="m12.7585 11.5001c-.4311-1.71528.1692-3.16144.5078-3.48435l2.3437-.5625h1.7422c1.5235 0 2.8219.18906 4.2032 1.25781 1.3531 1.04703 1.6221 2.79934 1.5884 3.59254-.0012.0271-.0242.0473-.0513.0463l-1.9882-.0742c-.0301-.0011-.0524-.0281-.0493-.0581.0383-.3712-.0663-1.2736-.9996-2.0144-.6061-.48095-1.5194-.53162-2.1467-.49382-.2472.01489-.4004.26295-.3226.49802.3161.9553.8405 2.5125 1.2114 3.5193.5469 1.4844-.1093 2.9531.375 4.4844.377 1.1917 1.2036 2.4185 1.6366 2.9206.0176.0203.0108.0517-.0135.063l-1.8339.8513c-.0162.0075-.0357.0031-.0474-.0105-1.848-2.1567-2.4998-3.825-2.5621-3.9885-.0625-.1641-.2304-.5313-.5742-.5313-.275 0-.5898.3516-.8086.7305l-4.6672 7.137c-.0121.0184-.0347.0268-.0559.0206l-1.78311-.5201c-.02953-.0086-.04498-.0402-.03182-.068 1.49851-3.1638 4.54113-9.5096 4.77243-10.0578.2109-.5.1813-.9165.1406-1.0859-.0313-.1302-.2188-.7109-.5859-2.1719z" fill="url(#W)"/><path d="m12.7585 11.5001c-.4311-1.71528.1692-3.16144.5078-3.48435l2.3437-.5625h1.7422c1.5235 0 2.8219.18906 4.2032 1.25781 1.3531 1.04703 1.6221 2.79934 1.5884 3.59254-.0012.0271-.0242.0473-.0513.0463l-1.9882-.0742c-.0301-.0011-.0524-.0281-.0493-.0581.0383-.3712-.0663-1.2736-.9996-2.0144-.6061-.48095-1.5194-.53162-2.1467-.49382-.2472.01489-.4004.26295-.3226.49802.3161.9553.8405 2.5125 1.2114 3.5193.5469 1.4844-.1093 2.9531.375 4.4844.377 1.1917 1.2036 2.4185 1.6366 2.9206.0176.0203.0108.0517-.0135.063l-1.8339.8513c-.0162.0075-.0357.0031-.0474-.0105-1.848-2.1567-2.4998-3.825-2.5621-3.9885-.0625-.1641-.2304-.5313-.5742-.5313-.275 0-.5898.3516-.8086.7305l-4.6672 7.137c-.0121.0184-.0347.0268-.0559.0206l-1.78311-.5201c-.02953-.0086-.04498-.0402-.03182-.068 1.49851-3.1638 4.54113-9.5096 4.77243-10.0578.2109-.5.1813-.9165.1406-1.0859-.0313-.1302-.2188-.7109-.5859-2.1719z" fill="url(#X)"/><path d="m12.7585 11.5001c-.4311-1.71528.1692-3.16144.5078-3.48435l2.3437-.5625h1.7422c1.5235 0 2.8219.18906 4.2032 1.25781 1.3531 1.04703 1.6221 2.79934 1.5884 3.59254-.0012.0271-.0242.0473-.0513.0463l-1.9882-.0742c-.0301-.0011-.0524-.0281-.0493-.0581.0383-.3712-.0663-1.2736-.9996-2.0144-.6061-.48095-1.5194-.53162-2.1467-.49382-.2472.01489-.4004.26295-.3226.49802.3161.9553.8405 2.5125 1.2114 3.5193.5469 1.4844-.1093 2.9531.375 4.4844.377 1.1917 1.2036 2.4185 1.6366 2.9206.0176.0203.0108.0517-.0135.063l-1.8339.8513c-.0162.0075-.0357.0031-.0474-.0105-1.848-2.1567-2.4998-3.825-2.5621-3.9885-.0625-.1641-.2304-.5313-.5742-.5313-.275 0-.5898.3516-.8086.7305l-4.6672 7.137c-.0121.0184-.0347.0268-.0559.0206l-1.78311-.5201c-.02953-.0086-.04498-.0402-.03182-.068 1.49851-3.1638 4.54113-9.5096 4.77243-10.0578.2109-.5.1813-.9165.1406-1.0859-.0313-.1302-.2188-.7109-.5859-2.1719z" fill="url(#Y)"/></g><path d="m12.7585 11.5001c-.4311-1.71528.1692-3.16144.5078-3.48435l2.3437-.5625h1.7422c1.5235 0 2.8219.18906 4.2032 1.25781 1.3531 1.04703 1.6221 2.79934 1.5884 3.59254-.0012.0271-.0242.0473-.0513.0463l-1.9882-.0742c-.0301-.0011-.0524-.0281-.0493-.0581.0383-.3712-.0663-1.2736-.9996-2.0144-.6061-.48095-1.5194-.53162-2.1467-.49382-.2472.01489-.4004.26295-.3226.49802.3161.9553.8405 2.5125 1.2114 3.5193.5469 1.4844-.1093 2.9531.375 4.4844.377 1.1917 1.2036 2.4185 1.6366 2.9206.0176.0203.0108.0517-.0135.063l-1.8339.8513c-.0162.0075-.0357.0031-.0474-.0105-1.848-2.1567-2.4998-3.825-2.5621-3.9885-.0625-.1641-.2304-.5313-.5742-.5313-.275 0-.5898.3516-.8086.7305l-4.6672 7.137c-.0121.0184-.0347.0268-.0559.0206l-1.78311-.5201c-.02953-.0086-.04498-.0402-.03182-.068 1.49851-3.1638 4.54113-9.5096 4.77243-10.0578.2109-.5.1813-.9165.1406-1.0859-.0313-.1302-.2188-.7109-.5859-2.1719z" fill="url(#Z)"/><path d="m17.568 10.1248c-.0226-.20728.1224-.40227.3406-.41542.6273-.0378 1.5406.01287 2.1467.49382.9334.7408 1.0379 1.6432.9996 2.0144-.0031.03.0193.057.0494.0581l1.9881.0742c.0272.001.0502-.0192.0513-.0463.0337-.7932-.2352-2.54551-1.5884-3.59254-1.3813-1.06875-2.6797-1.25781-4.2031-1.25781h-.3903c-.1574 1.28524.2502 2.19289.6061 2.67155z" fill="url(#aa)"/><path d="m17.568 10.1248c-.0226-.20728.1224-.40227.3406-.41542.6273-.0378 1.5406.01287 2.1467.49382.9334.7408 1.0379 1.6432.9996 2.0144-.0031.03.0193.057.0494.0581l1.9881.0742c.0272.001.0502-.0192.0513-.0463.0337-.7932-.2352-2.54551-1.5884-3.59254-1.3813-1.06875-2.6797-1.25781-4.2031-1.25781h-.3903c-.1574 1.28524.2502 2.19289.6061 2.67155z" fill="url(#ab)"/><g clip-rule="evenodd" fill-rule="evenodd"><path d="m7.12687 13.3909c-.94125-.2834-1.29437.0098-1.38802.1192-.1347.1574-.37142.1757-.52875.041-.15732-.1347-.17567-.3714-.04097-.5287.32773-.3828 1.01368-.699 2.17398-.3496.19832.0597.31067.2689.25096.4672-.05972.1983-.26889.3107-.4672.2509z" fill="#ffbd2e"/><path d="m7.12687 13.3909c-.94125-.2834-1.29437.0098-1.38802.1192-.1347.1574-.37142.1757-.52875.041-.15732-.1347-.17567-.3714-.04097-.5287.32773-.3828 1.01368-.699 2.17398-.3496.19832.0597.31067.2689.25096.4672-.05972.1983-.26889.3107-.4672.2509z" fill="url(#ad)"/><path d="m5.40354 13.9862c-.00032.0008-.00045.0012-.00036.0012.00086.0006.02055-.0278.08426-.0795.0732-.0594.17878-.1285.31068-.1933.26513-.1304.60825-.2299.96811-.2186.20701.0065.38011-.156.38663-.363.00653-.207-.15599-.3801-.36299-.3866-.50733-.016-.97203.1227-1.32266.2951-.17598.0865-.33027.1849-.45234.284-.10947.0888-.23417.2108-.296.3548-.08171.1903.00632.4108.19663.4925.18692.0803.40299-.0032.48804-.1866z" fill="#ffbd2e"/><path d="m5.40354 13.9862c-.00032.0008-.00045.0012-.00036.0012.00086.0006.02055-.0278.08426-.0795.0732-.0594.17878-.1285.31068-.1933.26513-.1304.60825-.2299.96811-.2186.20701.0065.38011-.156.38663-.363.00653-.207-.15599-.3801-.36299-.3866-.50733-.016-.97203.1227-1.32266.2951-.17598.0865-.33027.1849-.45234.284-.10947.0888-.23417.2108-.296.3548-.08171.1903.00632.4108.19663.4925.18692.0803.40299-.0032.48804-.1866z" fill="url(#ae)"/><path d="m5.24982 14.5142c-.0033.0045-.00362.005-.00195.0011-.08171.1903-.30222.2783-.49253.1966s-.27834-.3022-.19662-.4925c.05533-.1289.16395-.2534.26989-.354.11566-.1097.26417-.2245.43726-.3284.34364-.2062.81149-.3853 1.3365-.3687.207.0065.36952.1796.36299.3866-.00652.207-.17962.3696-.38663.363-.34217-.0108-.66848.1071-.92693.2622-.12796.0768-.23247.1587-.30695.2294-.06011.057-.08681.0935-.09503.1047z" fill="#ffbd2e"/><path d="m5.24982 14.5142c-.0033.0045-.00362.005-.00195.0011-.08171.1903-.30222.2783-.49253.1966s-.27834-.3022-.19662-.4925c.05533-.1289.16395-.2534.26989-.354.11566-.1097.26417-.2245.43726-.3284.34364-.2062.81149-.3853 1.3365-.3687.207.0065.36952.1796.36299.3866-.00652.207-.17962.3696-.38663.363-.34217-.0108-.66848.1071-.92693.2622-.12796.0768-.23247.1587-.30695.2294-.06011.057-.08681.0935-.09503.1047z" fill="url(#af)"/><path d="m5.61135 14.792c-.00045.0008-.00058.001-.00044.0007-.08171.1903-.30223.2783-.49253.1966-.19031-.0817-.27834-.3022-.19663-.4925.09274-.216.32738-.4453.59957-.6045.28789-.1684.67757-.2948 1.11837-.2365.20532.0271.34977.2156.32263.4209s-.21559.3497-.42091.3226c-.23888-.0316-.46184.0354-.6414.1404-.08934.0523-.16255.111-.21544.1639-.05058.0506-.07.083-.07322.0884z" fill="#ffbd2e"/><path d="m5.61135 14.792c-.00045.0008-.00058.001-.00044.0007-.08171.1903-.30223.2783-.49253.1966-.19031-.0817-.27834-.3022-.19663-.4925.09274-.216.32738-.4453.59957-.6045.28789-.1684.67757-.2948 1.11837-.2365.20532.0271.34977.2156.32263.4209s-.21559.3497-.42091.3226c-.23888-.0316-.46184.0354-.6414.1404-.08934.0523-.16255.111-.21544.1639-.05058.0506-.07.083-.07322.0884z" fill="url(#ag)"/></g><path d="m6.12563 14.7345c.125-.1375.39844-.4609.51953-.6055.23127 0 .91146-.0664 1.1992-.0976-.39062.7148-.83984 1.0039-1.07422 1.1953-.3164.2109-.60547 0-.64451-.0664-.04687-.0469-.15625-.2539 0-.4258z" fill="#ffbd2e"/><path d="m6.12563 14.7345c.125-.1375.39844-.4609.51953-.6055.23127 0 .91146-.0664 1.1992-.0976-.39062.7148-.83984 1.0039-1.07422 1.1953-.3164.2109-.60547 0-.64451-.0664-.04687-.0469-.15625-.2539 0-.4258z" fill="url(#ah)"/><g filter="url(#j)"><path d="m26.485 24.1798c.981-2.2784.6264-3.8868.0552-5.0133-.4746-.9358-.0031-1.6624 1.018-1.421.7371.1742 1.3639.6942 1.5395 1.4309.7214 3.0249-.3128 6.1816-3.5815 7.8159-2.95 1.475-7.8541 1.5938-9.9375 1.4688 3 0 9.8045-1.7222 10.9063-4.2813z" fill="url(#ai)"/></g><g filter="url(#k)"><path d="m16.7818 13.2972c-.6504-1.2805-1.1659-3.1848-1.4423-4.42322-.0895-.40127.1814-.78855.587-.85614.4477-.07462.855.2717.9096.7223.2059 1.69836.9514 3.37286 1.4457 4.68206.5781 1.5312.3125 1.0625.2344 3.5156-.0568 1.7812 1.2656 3.25 1.8125 4.1094l-.4063.2109c-.6094-.8281-2.2031-2.9453-2.2031-4.8516 0-1.791.0625-1.1406-.9375-3.1093z" fill="url(#aj)"/></g><g filter="url(#l)"><path d="m18.5944 8.13293c1.2083-.02084 3.7812.82812 4.104 4.00017" stroke="url(#ak)" stroke-width=".4"/></g><circle cx="11.854" cy="6.135" fill="url(#al)" r=".728"/><g filter="url(#m)"><circle cx="11.854" cy="6.135" fill="url(#am)" r=".434"/></g><g filter="url(#n)"><circle cx="16.003" cy="6.135" fill="url(#an)" r=".728"/><circle cx="16.003" cy="6.135" fill="url(#ao)" r=".728"/></g><g filter="url(#o)"><circle cx="16.003" cy="6.135" fill="#ffbf34" r=".434"/><circle cx="16.003" cy="6.135" fill="url(#ap)" r=".434"/><circle cx="16.003" cy="6.135" fill="url(#aq)" r=".434"/></g><path d="m11.7001 5.86753c-.0115-.13675-.0254-.52708-.0254-.62745 0-.11632.0468-.25592.1404-.32572l.0702-.06979c.117-.09307.1638-.23266.1638-.37226v-.37225c0-.11633.0702-.20939.1872-.23266.2807-.0698.8657-.18613 1.7081-.18613s1.4273.11633 1.7081.18613c.0936.02327.1872.11633.1872.23266v.37225c0 .1396.0702.27919.1638.37226.219.15347.2054.23789.1872.41878-.0056.05604-.0234.52108-.0389.62808l-.116 1.72679c-.07.77195-.6769 1.30997-1.4004 1.30997h-1.4005c-.7469 0-1.3304-.53802-1.4004-1.30997z" fill="url(#ar)"/><path d="m11.7001 5.86753c-.0115-.13675-.0254-.52708-.0254-.62745 0-.11632.0468-.25592.1404-.32572l.0702-.06979c.117-.09307.1638-.23266.1638-.37226v-.37225c0-.11633.0702-.20939.1872-.23266.2807-.0698.8657-.18613 1.7081-.18613s1.4273.11633 1.7081.18613c.0936.02327.1872.11633.1872.23266v.37225c0 .1396.0702.27919.1638.37226.219.15347.2054.23789.1872.41878-.0056.05604-.0234.52108-.0389.62808l-.116 1.72679c-.07.77195-.6769 1.30997-1.4004 1.30997h-1.4005c-.7469 0-1.3304-.53802-1.4004-1.30997z" fill="url(#as)"/><path d="m11.7001 5.86753c-.0115-.13675-.0254-.52708-.0254-.62745 0-.11632.0468-.25592.1404-.32572l.0702-.06979c.117-.09307.1638-.23266.1638-.37226v-.37225c0-.11633.0702-.20939.1872-.23266.2807-.0698.8657-.18613 1.7081-.18613s1.4273.11633 1.7081.18613c.0936.02327.1872.11633.1872.23266v.37225c0 .1396.0702.27919.1638.37226.219.15347.2054.23789.1872.41878-.0056.05604-.0234.52108-.0389.62808l-.116 1.72679c-.07.77195-.6769 1.30997-1.4004 1.30997h-1.4005c-.7469 0-1.3304-.53802-1.4004-1.30997z" fill="url(#at)"/><path d="m11.7001 5.86753c-.0115-.13675-.0254-.52708-.0254-.62745 0-.11632.0468-.25592.1404-.32572l.0702-.06979c.117-.09307.1638-.23266.1638-.37226v-.37225c0-.11633.0702-.20939.1872-.23266.2807-.0698.8657-.18613 1.7081-.18613s1.4273.11633 1.7081.18613c.0936.02327.1872.11633.1872.23266v.37225c0 .1396.0702.27919.1638.37226.219.15347.2054.23789.1872.41878-.0056.05604-.0234.52108-.0389.62808l-.116 1.72679c-.07.77195-.6769 1.30997-1.4004 1.30997h-1.4005c-.7469 0-1.3304-.53802-1.4004-1.30997z" fill="url(#au)"/><path d="m11.7001 5.86753c-.0115-.13675-.0254-.52708-.0254-.62745 0-.11632.0468-.25592.1404-.32572l.0702-.06979c.117-.09307.1638-.23266.1638-.37226v-.37225c0-.11633.0702-.20939.1872-.23266.2807-.0698.8657-.18613 1.7081-.18613s1.4273.11633 1.7081.18613c.0936.02327.1872.11633.1872.23266v.37225c0 .1396.0702.27919.1638.37226.219.15347.2054.23789.1872.41878-.0056.05604-.0234.52108-.0389.62808l-.116 1.72679c-.07.77195-.6769 1.30997-1.4004 1.30997h-1.4005c-.7469 0-1.3304-.53802-1.4004-1.30997z" fill="url(#av)"/><g filter="url(#p)"><path d="m16.0269 3.30902.1872.09306c.3276.16286.5147.53512.4445.93063l-.2573 1.32616c-.023.13696-.1135.22913-.2495.23255.0155-.21968.03-.5741.0356-.63013.019-.18893-.0107-.24452-.1839-.41674-.0936-.09306-.1638-.23266-.1638-.37225v-.37226c0-.11633-.0936-.20939-.1872-.23265-.2808-.0698-.8658-.18613-1.7081-.18613-.8424 0-1.4274.11633-1.7082.18613-.117.02326-.1872.11632-.1872.23265v.37226c0 .13959-.0468.27919-.1638.37225l-.0702.0698c-.0936.06979-.1408.21561-.1408.33194.0062.06786.0154.4586.0258.62123-.1307-.00894-.2371-.09948-.2593-.23192l-.2574-1.32615c-.0468-.37225.1404-.74451.4679-.90737.4423-.19385.6034-.48813.9594-.79104.2574-.23265.6318-.30245.9594-.13959.234.0698.4914.0698.7253 0 .351-.11633.7488-.02327 1.0296.23266l.351.34898c.0936.11633.2106.18613.351.25593z" fill="#ffa91b"/><path d="m16.0269 3.30902.1872.09306c.3276.16286.5147.53512.4445.93063l-.2573 1.32616c-.023.13696-.1135.22913-.2495.23255.0155-.21968.03-.5741.0356-.63013.019-.18893-.0107-.24452-.1839-.41674-.0936-.09306-.1638-.23266-.1638-.37225v-.37226c0-.11633-.0936-.20939-.1872-.23265-.2808-.0698-.8658-.18613-1.7081-.18613-.8424 0-1.4274.11633-1.7082.18613-.117.02326-.1872.11632-.1872.23265v.37226c0 .13959-.0468.27919-.1638.37225l-.0702.0698c-.0936.06979-.1408.21561-.1408.33194.0062.06786.0154.4586.0258.62123-.1307-.00894-.2371-.09948-.2593-.23192l-.2574-1.32615c-.0468-.37225.1404-.74451.4679-.90737.4423-.19385.6034-.48813.9594-.79104.2574-.23265.6318-.30245.9594-.13959.234.0698.4914.0698.7253 0 .351-.11633.7488-.02327 1.0296.23266l.351.34898c.0936.11633.2106.18613.351.25593z" fill="url(#aw)"/><path d="m16.0269 3.30902.1872.09306c.3276.16286.5147.53512.4445.93063l-.2573 1.32616c-.023.13696-.1135.22913-.2495.23255.0155-.21968.03-.5741.0356-.63013.019-.18893-.0107-.24452-.1839-.41674-.0936-.09306-.1638-.23266-.1638-.37225v-.37226c0-.11633-.0936-.20939-.1872-.23265-.2808-.0698-.8658-.18613-1.7081-.18613-.8424 0-1.4274.11633-1.7082.18613-.117.02326-.1872.11632-.1872.23265v.37226c0 .13959-.0468.27919-.1638.37225l-.0702.0698c-.0936.06979-.1408.21561-.1408.33194.0062.06786.0154.4586.0258.62123-.1307-.00894-.2371-.09948-.2593-.23192l-.2574-1.32615c-.0468-.37225.1404-.74451.4679-.90737.4423-.19385.6034-.48813.9594-.79104.2574-.23265.6318-.30245.9594-.13959.234.0698.4914.0698.7253 0 .351-.11633.7488-.02327 1.0296.23266l.351.34898c.0936.11633.2106.18613.351.25593z" fill="url(#ax)"/><path d="m16.0269 3.30902.1872.09306c.3276.16286.5147.53512.4445.93063l-.2573 1.32616c-.023.13696-.1135.22913-.2495.23255.0155-.21968.03-.5741.0356-.63013.019-.18893-.0107-.24452-.1839-.41674-.0936-.09306-.1638-.23266-.1638-.37225v-.37226c0-.11633-.0936-.20939-.1872-.23265-.2808-.0698-.8658-.18613-1.7081-.18613-.8424 0-1.4274.11633-1.7082.18613-.117.02326-.1872.11632-.1872.23265v.37226c0 .13959-.0468.27919-.1638.37225l-.0702.0698c-.0936.06979-.1408.21561-.1408.33194.0062.06786.0154.4586.0258.62123-.1307-.00894-.2371-.09948-.2593-.23192l-.2574-1.32615c-.0468-.37225.1404-.74451.4679-.90737.4423-.19385.6034-.48813.9594-.79104.2574-.23265.6318-.30245.9594-.13959.234.0698.4914.0698.7253 0 .351-.11633.7488-.02327 1.0296.23266l.351.34898c.0936.11633.2106.18613.351.25593z" fill="url(#ay)"/><path d="m16.0269 3.30902.1872.09306c.3276.16286.5147.53512.4445.93063l-.2573 1.32616c-.023.13696-.1135.22913-.2495.23255.0155-.21968.03-.5741.0356-.63013.019-.18893-.0107-.24452-.1839-.41674-.0936-.09306-.1638-.23266-.1638-.37225v-.37226c0-.11633-.0936-.20939-.1872-.23265-.2808-.0698-.8658-.18613-1.7081-.18613-.8424 0-1.4274.11633-1.7082.18613-.117.02326-.1872.11632-.1872.23265v.37226c0 .13959-.0468.27919-.1638.37225l-.0702.0698c-.0936.06979-.1408.21561-.1408.33194.0062.06786.0154.4586.0258.62123-.1307-.00894-.2371-.09948-.2593-.23192l-.2574-1.32615c-.0468-.37225.1404-.74451.4679-.90737.4423-.19385.6034-.48813.9594-.79104.2574-.23265.6318-.30245.9594-.13959.234.0698.4914.0698.7253 0 .351-.11633.7488-.02327 1.0296.23266l.351.34898c.0936.11633.2106.18613.351.25593z" fill="url(#az)"/><path d="m16.0269 3.30902.1872.09306c.3276.16286.5147.53512.4445.93063l-.2573 1.32616c-.023.13696-.1135.22913-.2495.23255.0155-.21968.03-.5741.0356-.63013.019-.18893-.0107-.24452-.1839-.41674-.0936-.09306-.1638-.23266-.1638-.37225v-.37226c0-.11633-.0936-.20939-.1872-.23265-.2808-.0698-.8658-.18613-1.7081-.18613-.8424 0-1.4274.11633-1.7082.18613-.117.02326-.1872.11632-.1872.23265v.37226c0 .13959-.0468.27919-.1638.37225l-.0702.0698c-.0936.06979-.1408.21561-.1408.33194.0062.06786.0154.4586.0258.62123-.1307-.00894-.2371-.09948-.2593-.23192l-.2574-1.32615c-.0468-.37225.1404-.74451.4679-.90737.4423-.19385.6034-.48813.9594-.79104.2574-.23265.6318-.30245.9594-.13959.234.0698.4914.0698.7253 0 .351-.11633.7488-.02327 1.0296.23266l.351.34898c.0936.11633.2106.18613.351.25593z" fill="url(#aA)"/><path d="m16.0269 3.30902.1872.09306c.3276.16286.5147.53512.4445.93063l-.2573 1.32616c-.023.13696-.1135.22913-.2495.23255.0155-.21968.03-.5741.0356-.63013.019-.18893-.0107-.24452-.1839-.41674-.0936-.09306-.1638-.23266-.1638-.37225v-.37226c0-.11633-.0936-.20939-.1872-.23265-.2808-.0698-.8658-.18613-1.7081-.18613-.8424 0-1.4274.11633-1.7082.18613-.117.02326-.1872.11632-.1872.23265v.37226c0 .13959-.0468.27919-.1638.37225l-.0702.0698c-.0936.06979-.1408.21561-.1408.33194.0062.06786.0154.4586.0258.62123-.1307-.00894-.2371-.09948-.2593-.23192l-.2574-1.32615c-.0468-.37225.1404-.74451.4679-.90737.4423-.19385.6034-.48813.9594-.79104.2574-.23265.6318-.30245.9594-.13959.234.0698.4914.0698.7253 0 .351-.11633.7488-.02327 1.0296.23266l.351.34898c.0936.11633.2106.18613.351.25593z" fill="url(#aB)"/></g><path d="m16.0269 3.30902.1872.09306c.3276.16286.5147.53512.4445.93063l-.2573 1.32616c-.023.13696-.1135.22913-.2495.23255.0155-.21968.03-.5741.0356-.63013.019-.18893-.0107-.24452-.1839-.41674-.0936-.09306-.1638-.23266-.1638-.37225v-.37226c0-.11633-.0936-.20939-.1872-.23265-.2808-.0698-.8658-.18613-1.7081-.18613-.8424 0-1.4274.11633-1.7082.18613-.117.02326-.1872.11632-.1872.23265v.37226c0 .13959-.0468.27919-.1638.37225l-.0702.0698c-.0936.06979-.1408.21561-.1408.33194.0062.06786.0154.4586.0258.62123-.1307-.00894-.2371-.09948-.2593-.23192l-.2574-1.32615c-.0468-.37225.1404-.74451.4679-.90737.4423-.19385.6034-.48813.9594-.79104.2574-.23265.6318-.30245.9594-.13959.234.0698.4914.0698.7253 0 .351-.11633.7488-.02327 1.0296.23266l.351.34898c.0936.11633.2106.18613.351.25593z" fill="url(#aC)"/><path d="m16.0269 3.30902.1872.09306c.3276.16286.5147.53512.4445.93063l-.2573 1.32616c-.023.13696-.1135.22913-.2495.23255.0155-.21968.03-.5741.0356-.63013.019-.18893-.0107-.24452-.1839-.41674-.0936-.09306-.1638-.23266-.1638-.37225v-.37226c0-.11633-.0936-.20939-.1872-.23265-.2808-.0698-.8658-.18613-1.7081-.18613-.8424 0-1.4274.11633-1.7082.18613-.117.02326-.1872.11632-.1872.23265v.37226c0 .13959-.0468.27919-.1638.37225l-.0702.0698c-.0936.06979-.1408.21561-.1408.33194.0062.06786.0154.4586.0258.62123-.1307-.00894-.2371-.09948-.2593-.23192l-.2574-1.32615c-.0468-.37225.1404-.74451.4679-.90737.4423-.19385.6034-.48813.9594-.79104.2574-.23265.6318-.30245.9594-.13959.234.0698.4914.0698.7253 0 .351-.11633.7488-.02327 1.0296.23266l.351.34898c.0936.11633.2106.18613.351.25593z" fill="url(#aD)"/><path d="m16.0269 3.30902.1872.09306c.3276.16286.5147.53512.4445.93063l-.2573 1.32616c-.023.13696-.1135.22913-.2495.23255.0155-.21968.03-.5741.0356-.63013.019-.18893-.0107-.24452-.1839-.41674-.0936-.09306-.1638-.23266-.1638-.37225v-.37226c0-.11633-.0936-.20939-.1872-.23265-.2808-.0698-.8658-.18613-1.7081-.18613-.8424 0-1.4274.11633-1.7082.18613-.117.02326-.1872.11632-.1872.23265v.37226c0 .13959-.0468.27919-.1638.37225l-.0702.0698c-.0936.06979-.1408.21561-.1408.33194.0062.06786.0154.4586.0258.62123-.1307-.00894-.2371-.09948-.2593-.23192l-.2574-1.32615c-.0468-.37225.1404-.74451.4679-.90737.4423-.19385.6034-.48813.9594-.79104.2574-.23265.6318-.30245.9594-.13959.234.0698.4914.0698.7253 0 .351-.11633.7488-.02327 1.0296.23266l.351.34898c.0936.11633.2106.18613.351.25593z" fill="url(#aE)"/><g filter="url(#q)"><path d="m13.8049 6.08143-.3579.74142c-.0443.15251.0621.30501.213.30501h.3216c.1508 0 .2572-.15485.2129-.30501l-.2174-.74142c-.0466-.16424-.1234-.16424-.1722 0z" fill="#f1901c"/></g><g filter="url(#r)"><path d="m13.7581 6.01039-.2318.74141c-.0473.15251.0663.30502.2271.30502h.3429c.1609 0 .2744-.15485.2271-.30502l-.2318-.74141c-.0497-.16424-.2814-.16424-.3335 0z" fill="#ffcc28"/><path d="m13.7581 6.01039-.2318.74141c-.0473.15251.0663.30502.2271.30502h.3429c.1609 0 .2744-.15485.2271-.30502l-.2318-.74141c-.0497-.16424-.2814-.16424-.3335 0z" fill="url(#aF)"/><path d="m13.7581 6.01039-.2318.74141c-.0473.15251.0663.30502.2271.30502h.3429c.1609 0 .2744-.15485.2271-.30502l-.2318-.74141c-.0497-.16424-.2814-.16424-.3335 0z" fill="url(#aG)"/><path d="m13.7581 6.01039-.2318.74141c-.0473.15251.0663.30502.2271.30502h.3429c.1609 0 .2744-.15485.2271-.30502l-.2318-.74141c-.0497-.16424-.2814-.16424-.3335 0z" fill="url(#aH)"/></g><g filter="url(#s)"><path d="m13.9248 7.5001c-.2213 0-.4294-.05209-.6042-.14324-.0598-.03039-.124.03689-.0864.09115.1461.22137.4006.36896.6906.36896.2899 0 .5445-.14759.6905-.36896.0377-.05643-.0265-.12154-.0863-.09115-.1748.09115-.3807.14324-.6042.14324z" stroke="url(#aI)" stroke-width=".2"/></g><path d="m13.9248 7.5001c-.2213 0-.4294-.05209-.6042-.14324-.0598-.03039-.124.03689-.0864.09115.1461.22137.4006.36896.6906.36896.2899 0 .5445-.14759.6905-.36896.0377-.05643-.0265-.12154-.0863-.09115-.1748.09115-.3807.14324-.6042.14324z" fill="#8a004f"/><path d="m14.9665 5.51074c.2848 0 .5254.19638.5909.46176.0194.07608-.0389.14861-.1168.14861h-.973c-.062 0-.1115-.05661-.0991-.11853.0548-.27953.3008-.49184.598-.49184z" fill="#fff"/><path d="m14.8762 5.62927c.2159 0 .3892.17515.3892.38923 0 .03538-.0053.07076-.0141.10261h-.7519c-.0089-.03362-.0142-.06723-.0142-.10261 0-.21408.1752-.38923.391-.38923z" fill="url(#aK)"/><path d="m14.6532 6.01845c0-.12384.0991-.22292.2229-.22292.1239 0 .2229.09908.2229.22292 0 .03715-.0088.07254-.0247.10261h-.3946c-.0177-.03007-.0265-.06546-.0265-.10261z" fill="#000"/><g filter="url(#t)"><path d="m14.8476 5.71147c.0277.03709-.0302.0823-.0961.13158-.066.04927-.1148.08395-.1426.04686-.0277-.03709.0032-.1071.0691-.15638.066-.04927.1419-.05915.1696-.02206z" fill="#c7a7a3"/><path d="m14.8476 5.71147c.0277.03709-.0302.0823-.0961.13158-.066.04927-.1148.08395-.1426.04686-.0277-.03709.0032-.1071.0691-.15638.066-.04927.1419-.05915.1696-.02206z" fill="url(#aM)"/></g><g filter="url(#u)"><path d="m15.2229 5.96718c-.0144-.10062-.0733-.17646-.1009-.2018l-.1133.1244.0511.09951z" fill="url(#aO)"/></g><path d="m12.8807 5.51062c-.2848 0-.5255.19639-.5909.46178-.0195.07608.0389.14862.1168.14862h.9731c.0619 0 .1114-.05661.099-.11854-.0548-.27955-.3025-.49186-.598-.49186z" fill="#fff"/><path d="m12.9712 5.62915c-.2159 0-.3893.17516-.3893.38924 0 .03539.0053.07077.0142.10262h.7519c.0089-.03362.0142-.06723.0142-.10262-.0018-.21408-.1752-.38924-.391-.38924z" fill="url(#aP)"/><path d="m13.194 6.01846c0-.12385-.0991-.22293-.2229-.22293-.1239 0-.2229.09908-.2229.22293 0 .03716.0088.07254.0247.10262h.3946c.0159-.03008.0265-.06546.0265-.10262z" fill="#000"/><g filter="url(#v)"><path d="m13.3266 5.97278c0-.12579-.1022-.20965-.1299-.23499l-.1258.12164.0774.15758z" fill="url(#aQ)"/></g><g filter="url(#w)"><ellipse cx="12.854" cy="5.796" fill="#c7a7a3" fill-opacity=".9" rx=".17" ry=".086" transform="matrix(.88365127 -.46814574 .46814574 .88365127 -1.217643 6.691658)"/><ellipse cx="12.854" cy="5.796" fill="url(#aR)" rx=".17" ry=".086" transform="matrix(.88365127 -.46814574 .46814574 .88365127 -1.217643 6.691658)"/></g><g filter="url(#x)"><path clip-rule="evenodd" d="m14.7011 5.17266c.314-.02937.5154.09316.5642.13818.0837.07711.214.07179.2911-.01188.0771-.08368.0718-.21402-.0118-.29113-.1336-.1231-.45-.28583-.8818-.24544-.1133.01059-.1966.11102-.186.22432.0106.11329.111.19654.2243.18595z" fill="url(#aT)" fill-rule="evenodd"/></g><g filter="url(#y)"><path d="m15.4052 5.11102c-.0913-.08406-.3501-.22669-.723-.19181" stroke="#d76d5b" stroke-linecap="round" stroke-width=".15"/></g><g filter="url(#z)"><path clip-rule="evenodd" d="m13.1485 5.17266c-.314-.02937-.5154.09316-.5642.13818-.0837.07711-.214.07179-.2911-.01188-.0771-.08368-.0718-.21402.0119-.29113.1335-.1231.4499-.28583.8817-.24544.1133.01059.1966.11102.186.22432-.0106.11329-.111.19654-.2243.18595z" fill="url(#aU)" fill-rule="evenodd"/></g><g filter="url(#A)"><path d="m12.4447 5.11102c.0912-.08406.3501-.22669.723-.19181" stroke="#d76d5b" stroke-linecap="round" stroke-width=".15"/></g></svg>