<svg fill="none" height="32" viewBox="0 0 32 32" width="32" xmlns="http://www.w3.org/2000/svg" xmlns:xlink="http://www.w3.org/1999/xlink"><filter id="a" color-interpolation-filters="sRGB" filterUnits="userSpaceOnUse" height="7.52" width="6" x="3.995" y="23.086"><feFlood flood-opacity="0" result="BackgroundImageFix"/><feBlend in="SourceGraphic" in2="BackgroundImageFix" mode="normal" result="shape"/><feColorMatrix in="SourceAlpha" result="hardAlpha" type="matrix" values="0 0 0 0 0 0 0 0 0 0 0 0 0 0 0 0 0 0 127 0"/><feOffset dy=".5"/><feGaussianBlur stdDeviation=".5"/><feComposite in2="hardAlpha" k2="-1" k3="1" operator="arithmetic"/><feColorMatrix type="matrix" values="0 0 0 0 0.164706 0 0 0 0 0.0784314 0 0 0 0 0.227451 0 0 0 1 0"/><feBlend in2="shape" mode="normal" result="effect1_innerShadow_18_5384"/></filter><filter id="b" color-interpolation-filters="sRGB" filterUnits="userSpaceOnUse" height="9.52" width="6" x="12.985" y="21.086"><feFlood flood-opacity="0" result="BackgroundImageFix"/><feBlend in="SourceGraphic" in2="BackgroundImageFix" mode="normal" result="shape"/><feColorMatrix in="SourceAlpha" result="hardAlpha" type="matrix" values="0 0 0 0 0 0 0 0 0 0 0 0 0 0 0 0 0 0 127 0"/><feOffset dy=".5"/><feGaussianBlur stdDeviation=".5"/><feComposite in2="hardAlpha" k2="-1" k3="1" operator="arithmetic"/><feColorMatrix type="matrix" values="0 0 0 0 0.164706 0 0 0 0 0.0784314 0 0 0 0 0.227451 0 0 0 1 0"/><feBlend in2="shape" mode="normal" result="effect1_innerShadow_18_5384"/></filter><filter id="c" color-interpolation-filters="sRGB" filterUnits="userSpaceOnUse" height="7.51" width="6" x="21.995" y="23.096"><feFlood flood-opacity="0" result="BackgroundImageFix"/><feBlend in="SourceGraphic" in2="BackgroundImageFix" mode="normal" result="shape"/><feColorMatrix in="SourceAlpha" result="hardAlpha" type="matrix" values="0 0 0 0 0 0 0 0 0 0 0 0 0 0 0 0 0 0 127 0"/><feOffset dy=".5"/><feGaussianBlur stdDeviation=".5"/><feComposite in2="hardAlpha" k2="-1" k3="1" operator="arithmetic"/><feColorMatrix type="matrix" values="0 0 0 0 0.164706 0 0 0 0 0.0784314 0 0 0 0 0.227451 0 0 0 1 0"/><feBlend in2="shape" mode="normal" result="effect1_innerShadow_18_5384"/></filter><filter id="d" color-interpolation-filters="sRGB" filterUnits="userSpaceOnUse" height="6.8" width="10.81" x="10.605" y="6.706"><feFlood flood-opacity="0" result="BackgroundImageFix"/><feBlend in="SourceGraphic" in2="BackgroundImageFix" mode="normal" result="shape"/><feColorMatrix in="SourceAlpha" result="hardAlpha" type="matrix" values="0 0 0 0 0 0 0 0 0 0 0 0 0 0 0 0 0 0 127 0"/><feOffset dx="-.4" dy=".4"/><feGaussianBlur stdDeviation=".3"/><feComposite in2="hardAlpha" k2="-1" k3="1" operator="arithmetic"/><feColorMatrix type="matrix" values="0 0 0 0 0.447059 0 0 0 0 0.376471 0 0 0 0 0.509804 0 0 0 1 0"/><feBlend in2="shape" mode="normal" result="effect1_innerShadow_18_5384"/><feColorMatrix in="SourceAlpha" result="hardAlpha" type="matrix" values="0 0 0 0 0 0 0 0 0 0 0 0 0 0 0 0 0 0 127 0"/><feOffset dx=".4" dy="-.4"/><feGaussianBlur stdDeviation=".3"/><feComposite in2="hardAlpha" k2="-1" k3="1" operator="arithmetic"/><feColorMatrix type="matrix" values="0 0 0 0 0.176471 0 0 0 0 0.156863 0 0 0 0 0.184314 0 0 0 1 0"/><feBlend in2="effect1_innerShadow_18_5384" mode="normal" result="effect2_innerShadow_18_5384"/></filter><filter id="e" color-interpolation-filters="sRGB" filterUnits="userSpaceOnUse" height="2.247" width="3.255" x="2.995" y="10.854"><feFlood flood-opacity="0" result="BackgroundImageFix"/><feBlend in="SourceGraphic" in2="BackgroundImageFix" mode="normal" result="shape"/><feColorMatrix in="SourceAlpha" result="hardAlpha" type="matrix" values="0 0 0 0 0 0 0 0 0 0 0 0 0 0 0 0 0 0 127 0"/><feOffset dx=".25" dy="-.25"/><feGaussianBlur stdDeviation=".25"/><feComposite in2="hardAlpha" k2="-1" k3="1" operator="arithmetic"/><feColorMatrix type="matrix" values="0 0 0 0 0.545098 0 0 0 0 0.141176 0 0 0 0 0.329412 0 0 0 1 0"/><feBlend in2="shape" mode="normal" result="effect1_innerShadow_18_5384"/></filter><filter id="f" color-interpolation-filters="sRGB" filterUnits="userSpaceOnUse" height="2.247" width="3.255" x="6.975" y="10.854"><feFlood flood-opacity="0" result="BackgroundImageFix"/><feBlend in="SourceGraphic" in2="BackgroundImageFix" mode="normal" result="shape"/><feColorMatrix in="SourceAlpha" result="hardAlpha" type="matrix" values="0 0 0 0 0 0 0 0 0 0 0 0 0 0 0 0 0 0 127 0"/><feOffset dx=".25" dy="-.25"/><feGaussianBlur stdDeviation=".25"/><feComposite in2="hardAlpha" k2="-1" k3="1" operator="arithmetic"/><feColorMatrix type="matrix" values="0 0 0 0 0.545098 0 0 0 0 0.141176 0 0 0 0 0.329412 0 0 0 1 0"/><feBlend in2="shape" mode="normal" result="effect1_innerShadow_18_5384"/></filter><filter id="g" color-interpolation-filters="sRGB" filterUnits="userSpaceOnUse" height="2.225" width="3.255" x="21.975" y="10.874"><feFlood flood-opacity="0" result="BackgroundImageFix"/><feBlend in="SourceGraphic" in2="BackgroundImageFix" mode="normal" result="shape"/><feColorMatrix in="SourceAlpha" result="hardAlpha" type="matrix" values="0 0 0 0 0 0 0 0 0 0 0 0 0 0 0 0 0 0 127 0"/><feOffset dx=".25" dy="-.25"/><feGaussianBlur stdDeviation=".25"/><feComposite in2="hardAlpha" k2="-1" k3="1" operator="arithmetic"/><feColorMatrix type="matrix" values="0 0 0 0 0.545098 0 0 0 0 0.141176 0 0 0 0 0.329412 0 0 0 1 0"/><feBlend in2="shape" mode="normal" result="effect1_innerShadow_18_5384"/></filter><filter id="h" color-interpolation-filters="sRGB" filterUnits="userSpaceOnUse" height="2.245" width="3.255" x="25.995" y="10.865"><feFlood flood-opacity="0" result="BackgroundImageFix"/><feBlend in="SourceGraphic" in2="BackgroundImageFix" mode="normal" result="shape"/><feColorMatrix in="SourceAlpha" result="hardAlpha" type="matrix" values="0 0 0 0 0 0 0 0 0 0 0 0 0 0 0 0 0 0 127 0"/><feOffset dx=".25" dy="-.25"/><feGaussianBlur stdDeviation=".25"/><feComposite in2="hardAlpha" k2="-1" k3="1" operator="arithmetic"/><feColorMatrix type="matrix" values="0 0 0 0 0.545098 0 0 0 0 0.141176 0 0 0 0 0.329412 0 0 0 1 0"/><feBlend in2="shape" mode="normal" result="effect1_innerShadow_18_5384"/></filter><filter id="i" color-interpolation-filters="sRGB" filterUnits="userSpaceOnUse" height="1.28" width="1.28" x="11.845" y="7.966"><feFlood flood-opacity="0" result="BackgroundImageFix"/><feBlend in="SourceGraphic" in2="BackgroundImageFix" mode="normal" result="shape"/><feColorMatrix in="SourceAlpha" result="hardAlpha" type="matrix" values="0 0 0 0 0 0 0 0 0 0 0 0 0 0 0 0 0 0 127 0"/><feOffset dx="-.15" dy=".15"/><feGaussianBlur stdDeviation=".2"/><feComposite in2="hardAlpha" k2="-1" k3="1" operator="arithmetic"/><feColorMatrix type="matrix" values="0 0 0 0 0.858824 0 0 0 0 0.352941 0 0 0 0 0.129412 0 0 0 1 0"/><feBlend in2="shape" mode="normal" result="effect1_innerShadow_18_5384"/><feColorMatrix in="SourceAlpha" result="hardAlpha" type="matrix" values="0 0 0 0 0 0 0 0 0 0 0 0 0 0 0 0 0 0 127 0"/><feOffset dx=".15" dy="-.15"/><feGaussianBlur stdDeviation=".15"/><feComposite in2="hardAlpha" k2="-1" k3="1" operator="arithmetic"/><feColorMatrix type="matrix" values="0 0 0 0 1 0 0 0 0 0.882353 0 0 0 0 0.215686 0 0 0 1 0"/><feBlend in2="effect1_innerShadow_18_5384" mode="normal" result="effect2_innerShadow_18_5384"/></filter><filter id="j" color-interpolation-filters="sRGB" filterUnits="userSpaceOnUse" height="1.28" width="1.28" x="14.855" y="7.966"><feFlood flood-opacity="0" result="BackgroundImageFix"/><feBlend in="SourceGraphic" in2="BackgroundImageFix" mode="normal" result="shape"/><feColorMatrix in="SourceAlpha" result="hardAlpha" type="matrix" values="0 0 0 0 0 0 0 0 0 0 0 0 0 0 0 0 0 0 127 0"/><feOffset dx="-.15" dy=".15"/><feGaussianBlur stdDeviation=".15"/><feComposite in2="hardAlpha" k2="-1" k3="1" operator="arithmetic"/><feColorMatrix type="matrix" values="0 0 0 0 0.105882 0 0 0 0 0.6 0 0 0 0 0.317647 0 0 0 1 0"/><feBlend in2="shape" mode="normal" result="effect1_innerShadow_18_5384"/><feColorMatrix in="SourceAlpha" result="hardAlpha" type="matrix" values="0 0 0 0 0 0 0 0 0 0 0 0 0 0 0 0 0 0 127 0"/><feOffset dx=".15" dy="-.15"/><feGaussianBlur stdDeviation=".15"/><feComposite in2="hardAlpha" k2="-1" k3="1" operator="arithmetic"/><feColorMatrix type="matrix" values="0 0 0 0 0.309804 0 0 0 0 1 0 0 0 0 0.595817 0 0 0 1 0"/><feBlend in2="effect1_innerShadow_18_5384" mode="normal" result="effect2_innerShadow_18_5384"/></filter><filter id="k" color-interpolation-filters="sRGB" filterUnits="userSpaceOnUse" height="1.13" width="1.13" x="18.855" y="11.126"><feFlood flood-opacity="0" result="BackgroundImageFix"/><feBlend in="SourceGraphic" in2="BackgroundImageFix" mode="normal" result="shape"/><feColorMatrix in="SourceAlpha" result="hardAlpha" type="matrix" values="0 0 0 0 0 0 0 0 0 0 0 0 0 0 0 0 0 0 127 0"/><feOffset dx="-.15" dy=".15"/><feGaussianBlur stdDeviation=".15"/><feComposite in2="hardAlpha" k2="-1" k3="1" operator="arithmetic"/><feColorMatrix type="matrix" values="0 0 0 0 0.858824 0 0 0 0 0.32549 0 0 0 0 0.101961 0 0 0 1 0"/><feBlend in2="shape" mode="normal" result="effect1_innerShadow_18_5384"/></filter><filter id="l" color-interpolation-filters="sRGB" filterUnits="userSpaceOnUse" height="2.28" width="2.28" x="11.845" y="9.966"><feFlood flood-opacity="0" result="BackgroundImageFix"/><feBlend in="SourceGraphic" in2="BackgroundImageFix" mode="normal" result="shape"/><feColorMatrix in="SourceAlpha" result="hardAlpha" type="matrix" values="0 0 0 0 0 0 0 0 0 0 0 0 0 0 0 0 0 0 127 0"/><feOffset dx="-.15" dy=".15"/><feGaussianBlur stdDeviation=".2"/><feComposite in2="hardAlpha" k2="-1" k3="1" operator="arithmetic"/><feColorMatrix type="matrix" values="0 0 0 0 0.858824 0 0 0 0 0.352941 0 0 0 0 0.129412 0 0 0 1 0"/><feBlend in2="shape" mode="normal" result="effect1_innerShadow_18_5384"/><feColorMatrix in="SourceAlpha" result="hardAlpha" type="matrix" values="0 0 0 0 0 0 0 0 0 0 0 0 0 0 0 0 0 0 127 0"/><feOffset dx=".15" dy="-.15"/><feGaussianBlur stdDeviation=".15"/><feComposite in2="hardAlpha" k2="-1" k3="1" operator="arithmetic"/><feColorMatrix type="matrix" values="0 0 0 0 1 0 0 0 0 0.882353 0 0 0 0 0.215686 0 0 0 1 0"/><feBlend in2="effect1_innerShadow_18_5384" mode="normal" result="effect2_innerShadow_18_5384"/></filter><filter id="m" color-interpolation-filters="sRGB" filterUnits="userSpaceOnUse" height="2.28" width="2.28" x="14.855" y="9.966"><feFlood flood-opacity="0" result="BackgroundImageFix"/><feBlend in="SourceGraphic" in2="BackgroundImageFix" mode="normal" result="shape"/><feColorMatrix in="SourceAlpha" result="hardAlpha" type="matrix" values="0 0 0 0 0 0 0 0 0 0 0 0 0 0 0 0 0 0 127 0"/><feOffset dx="-.15" dy=".15"/><feGaussianBlur stdDeviation=".15"/><feComposite in2="hardAlpha" k2="-1" k3="1" operator="arithmetic"/><feColorMatrix type="matrix" values="0 0 0 0 0.105882 0 0 0 0 0.6 0 0 0 0 0.317647 0 0 0 1 0"/><feBlend in2="shape" mode="normal" result="effect1_innerShadow_18_5384"/><feColorMatrix in="SourceAlpha" result="hardAlpha" type="matrix" values="0 0 0 0 0 0 0 0 0 0 0 0 0 0 0 0 0 0 127 0"/><feOffset dx=".15" dy="-.15"/><feGaussianBlur stdDeviation=".15"/><feComposite in2="hardAlpha" k2="-1" k3="1" operator="arithmetic"/><feColorMatrix type="matrix" values="0 0 0 0 0.309804 0 0 0 0 1 0 0 0 0 0.595817 0 0 0 1 0"/><feBlend in2="effect1_innerShadow_18_5384" mode="normal" result="effect2_innerShadow_18_5384"/></filter><filter id="n" color-interpolation-filters="sRGB" filterUnits="userSpaceOnUse" height="1.13" width="2.13" x="17.855" y="8.116"><feFlood flood-opacity="0" result="BackgroundImageFix"/><feBlend in="SourceGraphic" in2="BackgroundImageFix" mode="normal" result="shape"/><feColorMatrix in="SourceAlpha" result="hardAlpha" type="matrix" values="0 0 0 0 0 0 0 0 0 0 0 0 0 0 0 0 0 0 127 0"/><feOffset dx="-.15" dy=".15"/><feGaussianBlur stdDeviation=".15"/><feComposite in2="hardAlpha" k2="-1" k3="1" operator="arithmetic"/><feColorMatrix type="matrix" values="0 0 0 0 0.858824 0 0 0 0 0.32549 0 0 0 0 0.101961 0 0 0 1 0"/><feBlend in2="shape" mode="normal" result="effect1_innerShadow_18_5384"/></filter><filter id="o" color-interpolation-filters="sRGB" filterUnits="userSpaceOnUse" height="2.28" width="2.28" x="3.985" y="7.786"><feFlood flood-opacity="0" result="BackgroundImageFix"/><feBlend in="SourceGraphic" in2="BackgroundImageFix" mode="normal" result="shape"/><feColorMatrix in="SourceAlpha" result="hardAlpha" type="matrix" values="0 0 0 0 0 0 0 0 0 0 0 0 0 0 0 0 0 0 127 0"/><feOffset dx=".3" dy="-.3"/><feGaussianBlur stdDeviation=".2"/><feComposite in2="hardAlpha" k2="-1" k3="1" operator="arithmetic"/><feColorMatrix type="matrix" values="0 0 0 0 0.301961 0 0 0 0 0.196078 0 0 0 0 0.376471 0 0 0 1 0"/><feBlend in2="shape" mode="normal" result="effect1_innerShadow_18_5384"/></filter><filter id="p" color-interpolation-filters="sRGB" filterUnits="userSpaceOnUse" height="2.28" width="2.28" x="20.965" y="4.826"><feFlood flood-opacity="0" result="BackgroundImageFix"/><feBlend in="SourceGraphic" in2="BackgroundImageFix" mode="normal" result="shape"/><feColorMatrix in="SourceAlpha" result="hardAlpha" type="matrix" values="0 0 0 0 0 0 0 0 0 0 0 0 0 0 0 0 0 0 127 0"/><feOffset dx=".3" dy="-.3"/><feGaussianBlur stdDeviation=".2"/><feComposite in2="hardAlpha" k2="-1" k3="1" operator="arithmetic"/><feColorMatrix type="matrix" values="0 0 0 0 0.301961 0 0 0 0 0.196078 0 0 0 0 0.376471 0 0 0 1 0"/><feBlend in2="shape" mode="normal" result="effect1_innerShadow_18_5384"/></filter><filter id="q" color-interpolation-filters="sRGB" filterUnits="userSpaceOnUse" height="2.08" width="2.08" x="8.015" y="4.086"><feFlood flood-opacity="0" result="BackgroundImageFix"/><feBlend in="SourceGraphic" in2="BackgroundImageFix" mode="normal" result="shape"/><feColorMatrix in="SourceAlpha" result="hardAlpha" type="matrix" values="0 0 0 0 0 0 0 0 0 0 0 0 0 0 0 0 0 0 127 0"/><feOffset dx=".1" dy=".1"/><feGaussianBlur stdDeviation=".2"/><feComposite in2="hardAlpha" k2="-1" k3="1" operator="arithmetic"/><feColorMatrix type="matrix" values="0 0 0 0 0.705882 0 0 0 0 0.376471 0 0 0 0 0.180392 0 0 0 1 0"/><feBlend in2="shape" mode="normal" result="effect1_innerShadow_18_5384"/></filter><filter id="r" color-interpolation-filters="sRGB" filterUnits="userSpaceOnUse" height="2.08" width="2.08" x="8.015" y="4.086"><feFlood flood-opacity="0" result="BackgroundImageFix"/><feBlend in="SourceGraphic" in2="BackgroundImageFix" mode="normal" result="shape"/><feColorMatrix in="SourceAlpha" result="hardAlpha" type="matrix" values="0 0 0 0 0 0 0 0 0 0 0 0 0 0 0 0 0 0 127 0"/><feOffset dx=".1" dy=".1"/><feGaussianBlur stdDeviation=".2"/><feComposite in2="hardAlpha" k2="-1" k3="1" operator="arithmetic"/><feColorMatrix type="matrix" values="0 0 0 0 0.705882 0 0 0 0 0.376471 0 0 0 0 0.180392 0 0 0 1 0"/><feBlend in2="shape" mode="normal" result="effect1_innerShadow_18_5384"/></filter><filter id="s" color-interpolation-filters="sRGB" filterUnits="userSpaceOnUse" height="2.28" width="2.273" x="24.952" y="7.086"><feFlood flood-opacity="0" result="BackgroundImageFix"/><feBlend in="SourceGraphic" in2="BackgroundImageFix" mode="normal" result="shape"/><feColorMatrix in="SourceAlpha" result="hardAlpha" type="matrix" values="0 0 0 0 0 0 0 0 0 0 0 0 0 0 0 0 0 0 127 0"/><feOffset dx=".3" dy=".3"/><feGaussianBlur stdDeviation=".2"/><feComposite in2="hardAlpha" k2="-1" k3="1" operator="arithmetic"/><feColorMatrix type="matrix" values="0 0 0 0 0.243137 0 0 0 0 0.584314 0 0 0 0 0.435294 0 0 0 1 0"/><feBlend in2="shape" mode="normal" result="effect1_innerShadow_18_5384"/></filter><filter id="t" color-interpolation-filters="sRGB" filterUnits="userSpaceOnUse" height="9.246" width="2.806" x="12.755" y="21.347"><feFlood flood-opacity="0" result="BackgroundImageFix"/><feBlend in="SourceGraphic" in2="BackgroundImageFix" mode="normal" result="shape"/><feGaussianBlur result="effect1_foregroundBlur_18_5384" stdDeviation=".3"/></filter><filter id="u" color-interpolation-filters="sRGB" filterUnits="userSpaceOnUse" height="7.032" width="2.784" x="3.921" y="23.56"><feFlood flood-opacity="0" result="BackgroundImageFix"/><feBlend in="SourceGraphic" in2="BackgroundImageFix" mode="normal" result="shape"/><feGaussianBlur result="effect1_foregroundBlur_18_5384" stdDeviation=".3"/></filter><filter id="v" color-interpolation-filters="sRGB" filterUnits="userSpaceOnUse" height="7.032" width="2.784" x="21.745" y="23.56"><feFlood flood-opacity="0" result="BackgroundImageFix"/><feBlend in="SourceGraphic" in2="BackgroundImageFix" mode="normal" result="shape"/><feGaussianBlur result="effect1_foregroundBlur_18_5384" stdDeviation=".3"/></filter><linearGradient id="w" gradientUnits="userSpaceOnUse" x1="12.617" x2="11.823" y1="14.126" y2="14.126"><stop offset="0" stop-color="#e1d8e1"/><stop offset=".889" stop-color="#79767b"/></linearGradient><linearGradient id="x"><stop offset="0" stop-color="#7d7282"/><stop offset="1" stop-color="#7d7282" stop-opacity="0"/></linearGradient><linearGradient id="y" gradientUnits="userSpaceOnUse" x1="13.096" x2="12.829" xlink:href="#x" y1="12.983" y2="13.697"/><linearGradient id="z"><stop offset="0" stop-color="#e1d8e1"/><stop offset="1" stop-color="#79767b"/></linearGradient><linearGradient id="A" gradientUnits="userSpaceOnUse" x1="3.673" x2="2.896" xlink:href="#z" y1="14.326" y2="14.326"/><linearGradient id="B"><stop offset="0" stop-color="#c1b3bc"/><stop offset="1" stop-color="#c1b3bc" stop-opacity="0"/></linearGradient><radialGradient id="C" cx="0" cy="0" gradientTransform="matrix(-.39333777 .56205768 -.71455358 -.50005706 3.88834 12.8616)" gradientUnits="userSpaceOnUse" r="1" xlink:href="#B"/><linearGradient id="D" gradientUnits="userSpaceOnUse" x1="7.653" x2="6.876" xlink:href="#z" y1="14.326" y2="14.326"/><radialGradient id="E" cx="0" cy="0" gradientTransform="matrix(-.39333777 .56205768 -.71455358 -.50005706 7.86832 12.8616)" gradientUnits="userSpaceOnUse" r="1" xlink:href="#B"/><linearGradient id="F" gradientUnits="userSpaceOnUse" x1="19.609" x2="18.8" y1="14.091" y2="14.091"><stop offset="0" stop-color="#e1d8e1"/><stop offset=".843" stop-color="#79767b"/></linearGradient><linearGradient id="G" gradientUnits="userSpaceOnUse" x1="20.098" x2="19.838" xlink:href="#x" y1="12.954" y2="13.668"/><linearGradient id="H" gradientUnits="userSpaceOnUse" x1="22.66" x2="21.875" xlink:href="#z" y1="14.076" y2="14.076"/><radialGradient id="I" cx="0" cy="0" gradientTransform="matrix(-.39726701 .6423521 -.77768462 -.48096433 22.8772 12.4024)" gradientUnits="userSpaceOnUse" r="1" xlink:href="#B"/><linearGradient id="J" gradientUnits="userSpaceOnUse" x1="26.68" x2="25.895" xlink:href="#z" y1="14.076" y2="14.076"/><radialGradient id="K" cx="0" cy="0" gradientTransform="matrix(-.39726701 .6423521 -.77768462 -.48096433 26.8973 12.4024)" gradientUnits="userSpaceOnUse" r="1" xlink:href="#B"/><linearGradient id="L" gradientUnits="userSpaceOnUse" x1="17.155" x2="17.155" y1="31.22" y2="14.683"><stop offset="0" stop-color="#d5c6de"/><stop offset=".816" stop-color="#d5c6de"/><stop offset=".84" stop-color="#d2cfd4"/><stop offset="1" stop-color="#d2cfd4"/></linearGradient><linearGradient id="M" gradientUnits="userSpaceOnUse" x1="30.898" x2="25.424" y1="30.106" y2="30.106"><stop offset="0" stop-color="#f7f5f8"/><stop offset="1" stop-color="#f7f5f8" stop-opacity="0"/></linearGradient><linearGradient id="N" gradientUnits="userSpaceOnUse" x1="1.325" x2="6.062" y1="27.076" y2="27.076"><stop offset="0" stop-color="#6f6774"/><stop offset="1" stop-color="#6f6774" stop-opacity="0"/></linearGradient><linearGradient id="O" gradientUnits="userSpaceOnUse" x1="16.005" x2="16.005" y1="14.898" y2="15.883"><stop offset="0" stop-color="#b4b3b5"/><stop offset="1" stop-color="#b4b3b5" stop-opacity="0"/></linearGradient><linearGradient id="P"><stop offset="0" stop-color="#4e3e5c"/><stop offset="1" stop-color="#1e1a21"/></linearGradient><linearGradient id="Q" gradientUnits="userSpaceOnUse" x1="5.702" x2="10.953" xlink:href="#P" y1="26.595" y2="26.595"/><linearGradient id="R" gradientUnits="userSpaceOnUse" x1="14.693" x2="19.942" xlink:href="#P" y1="25.595" y2="25.595"/><linearGradient id="S" gradientUnits="userSpaceOnUse" x1="23.703" x2="28.953" xlink:href="#P" y1="26.6" y2="26.6"/><linearGradient id="T" gradientUnits="userSpaceOnUse" x1="11.002" x2="21.012" y1="10.106" y2="10.106"><stop offset="0" stop-color="#3c373f"/><stop offset="1" stop-color="#574468"/></linearGradient><linearGradient id="U"><stop offset="0" stop-color="#ff4755"/><stop offset="1" stop-color="#bb2263"/></linearGradient><radialGradient id="V" cx="0" cy="0" gradientTransform="matrix(-2.54124 0 0 -1.77242 5.53624 12.1084)" gradientUnits="userSpaceOnUse" r="1" xlink:href="#U"/><radialGradient id="W" cx="0" cy="0" gradientTransform="matrix(-2.54126 0 0 -1.77242 9.51623 12.1084)" gradientUnits="userSpaceOnUse" r="1" xlink:href="#U"/><radialGradient id="X" cx="0" cy="0" gradientTransform="matrix(-2.54126 0 0 -1.75307 24.5162 12.1182)" gradientUnits="userSpaceOnUse" r="1" xlink:href="#U"/><radialGradient id="Y" cx="0" cy="0" gradientTransform="matrix(-2.54124 0 0 -1.77076 28.5362 12.1192)" gradientUnits="userSpaceOnUse" r="1" xlink:href="#U"/><linearGradient id="Z" gradientUnits="userSpaceOnUse" x1="2" x2="30" y1="17.593" y2="17.593"><stop offset="0" stop-color="#8d3255"/><stop offset=".281" stop-color="#e03970"/><stop offset=".698" stop-color="#ef3849"/><stop offset="1" stop-color="#ff525e"/></linearGradient><linearGradient id="aa"><stop offset="0" stop-color="#ffc137"/><stop offset="1" stop-color="#ffc137" stop-opacity="0"/></linearGradient><radialGradient id="ab" cx="0" cy="0" gradientTransform="matrix(.38577285 -.42955705 1.02062915 .91659772 19.005 12.3223)" gradientUnits="userSpaceOnUse" r="1" xlink:href="#aa"/><radialGradient id="ac" cx="0" cy="0" gradientTransform="matrix(.77942073 -.42955545 .8678743 1.57474251 18.005 9.31233)" gradientUnits="userSpaceOnUse" r="1" xlink:href="#aa"/><linearGradient id="ad"><stop offset="0" stop-color="#ff5560"/><stop offset=".938" stop-color="#8b2b57"/></linearGradient><radialGradient id="ae" cx="0" cy="0" gradientTransform="matrix(-.64578291 .54078232 -.54078232 -.64578291 5.71204 4.46486)" gradientUnits="userSpaceOnUse" r="1" xlink:href="#ad"/><radialGradient id="af" cx="0" cy="0" gradientTransform="matrix(-.52926449 .43840609 -.43840609 -.52926449 7.73193 8.46486)" gradientUnits="userSpaceOnUse" r="1"><stop offset="0" stop-color="#53f48b"/><stop offset="1" stop-color="#358a65"/></radialGradient><radialGradient id="ag" cx="0" cy="0" gradientTransform="matrix(-.52926449 .43840609 -.43840609 -.52926449 11.712 5.46486)" gradientUnits="userSpaceOnUse" r="1"><stop offset="0" stop-color="#8b6fa2"/><stop offset="1" stop-color="#422f51"/></radialGradient><linearGradient id="ah"><stop offset="0" stop-color="#fede95"/><stop offset=".354" stop-color="#ffcb53"/><stop offset=".891" stop-color="#a87a39"/></linearGradient><radialGradient id="ai" cx="0" cy="0" gradientTransform="matrix(-.64576394 .50654384 -.50654384 -.64576394 23.7319 9.46486)" gradientUnits="userSpaceOnUse" r="1" xlink:href="#ah"/><radialGradient id="aj" cx="0" cy="0" gradientTransform="matrix(-.64576394 .50654384 -.50654384 -.64576394 28.712 9.44484)" gradientUnits="userSpaceOnUse" r="1" xlink:href="#ah"/><radialGradient id="ak" cx="0" cy="0" gradientTransform="matrix(-.64578291 .54078232 -.54078232 -.64578291 27.682 4.47487)" gradientUnits="userSpaceOnUse" r="1" xlink:href="#ad"/><linearGradient id="al" gradientUnits="userSpaceOnUse" x1="8.208" x2="8.911" y1="6.164" y2="5.492"><stop offset="0" stop-color="#ba652c"/><stop offset="1" stop-color="#ba652c" stop-opacity="0"/></linearGradient><linearGradient id="am" gradientUnits="userSpaceOnUse" x1="9.995" x2="9.38" y1="4.211" y2="4.789"><stop offset="0" stop-color="#fff05c"/><stop offset="1" stop-color="#fff05c" stop-opacity="0"/></linearGradient><radialGradient id="an" cx="0" cy="0" gradientTransform="matrix(-.74505084 .6225616 -.67048617 -.80240459 27.068 7.08594)" gradientUnits="userSpaceOnUse" r="1"><stop offset="0" stop-color="#55ff91"/><stop offset="1" stop-color="#55ff91" stop-opacity="0"/></radialGradient><linearGradient id="ao" gradientUnits="userSpaceOnUse" x1="25.357" x2="25.7" y1="8.977" y2="8.563"><stop offset="0" stop-color="#3e956f"/><stop offset="1" stop-color="#3e956f" stop-opacity="0"/></linearGradient><linearGradient id="ap"><stop offset="0" stop-color="#624f74"/><stop offset="1" stop-color="#624f74" stop-opacity="0"/></linearGradient><linearGradient id="aq" gradientUnits="userSpaceOnUse" x1="13.454" x2="13.454" xlink:href="#ap" y1="30.28" y2="22.005"/><linearGradient id="ar" gradientUnits="userSpaceOnUse" x1="4.624" x2="4.624" xlink:href="#ap" y1="30.106" y2="24.291"/><linearGradient id="as" gradientUnits="userSpaceOnUse" x1="22.449" x2="22.449" xlink:href="#ap" y1="30.106" y2="24.291"/><path d="m12.995 13.106h-.99v2.04h.99z" fill="url(#w)"/><path d="m12.995 13.106h-.99v2.04h.99z" fill="url(#y)"/><path d="m3.995 12.5759h-1v3.5h1z" fill="url(#A)"/><path d="m3.995 12.5759h-1v3.5h1z" fill="url(#C)"/><path d="m7.97498 12.5759h-1v3.5h1z" fill="url(#D)"/><path d="m7.97498 12.5759h-1v3.5h1z" fill="url(#E)"/><path d="m19.995 13.0759h-1.01v2.03h1.01z" fill="url(#F)"/><path d="m19.995 13.0759h-1.01v2.03h1.01z" fill="url(#G)"/><path d="m22.985 12.0759h-1.01v4h1.01z" fill="url(#H)"/><path d="m22.985 12.0759h-1.01v4h1.01z" fill="url(#I)"/><path d="m27.005 12.0759h-1.01v4h1.01z" fill="url(#J)"/><path d="m27.005 12.0759h-1.01v4h1.01z" fill="url(#K)"/><path d="m30.005 18.036v12.07h-28v-12.07c0-.1.01001-.2.02001-.3.02-.22.05999-.43.12999-.63.01-.02.01-.04.02-.06.41-1.13 1.5-1.94 2.76-1.94h22.14c1.27 0 2.35.81 2.76 1.94.01.02.01.04.02.06.05.15.09.32.11.49.03.14.04.29.04.44z" fill="url(#L)"/><path d="m30.005 18.036v12.07h-28v-12.07c0-.1.01001-.2.02001-.3.02-.22.05999-.43.12999-.63.01-.02.01-.04.02-.06.41-1.13 1.5-1.94 2.76-1.94h22.14c1.27 0 2.35.81 2.76 1.94.01.02.01.04.02.06.05.15.09.32.11.49.03.14.04.29.04.44z" fill="url(#M)"/><path d="m30.005 18.036v12.07h-28v-12.07c0-.1.01001-.2.02001-.3.02-.22.05999-.43.12999-.63.01-.02.01-.04.02-.06.41-1.13 1.5-1.94 2.76-1.94h22.14c1.27 0 2.35.81 2.76 1.94.01.02.01.04.02.06.05.15.09.32.11.49.03.14.04.29.04.44z" fill="url(#N)"/><path d="m30.005 18.036v12.07h-28v-12.07c0-.1.01001-.2.02001-.3.02-.22.05999-.43.12999-.63.01-.02.01-.04.02-.06.41-1.13 1.5-1.94 2.76-1.94h22.14c1.27 0 2.35.81 2.76 1.94.01.02.01.04.02.06.05.15.09.32.11.49.03.14.04.29.04.44z" fill="url(#O)"/><g filter="url(#a)"><path d="m6.995 23.0859c-1.66 0-3 1.34-3 3v4.02h6v-4.02c0-1.65-1.35-3-3-3z" fill="url(#Q)"/></g><g filter="url(#b)"><path d="m15.985 21.0859c-1.66 0-3 1.34-3 3v6.02h6v-6.02c0-1.66-1.34-3-3-3z" fill="url(#R)"/></g><g filter="url(#c)"><path d="m24.995 23.0959c-1.66 0-3 1.3401-3 3.0001v4.0099h6v-4.0099c0-1.65-1.35-3.0001-3-3.0001z" fill="url(#S)"/></g><g filter="url(#d)"><path d="m20.055 13.106h-8.09c-.53 0-.96-.43-.96-.96v-4.08004c0-.53.43-.96.96-.96h8.09c.53 0 .96.43.96.96v4.08004c0 .53-.43.96-.96.96z" fill="url(#T)"/></g><g filter="url(#e)"><path d="m2.995 11.516v1.14c0 .32.39998.53.76998.41l1.95-.62c.38-.12.38-.55 0-.67l-2.00999-.65c-.34-.09-.70999.1-.70999.39z" fill="url(#V)"/></g><g filter="url(#f)"><path d="m6.97498 11.516v1.14c0 .32.4.53.77.41l1.95-.62c.38002-.12.38002-.55 0-.67l-2.01001-.65c-.34-.09-.70999.1-.70999.39z" fill="url(#W)"/></g><g filter="url(#g)"><path d="m21.975 11.5259v1.13c0 .31.4.53.77.41l1.95-.61c.38-.12.38-.54 0-.66l-2.01-.64c-.34-.11-.71.08-.71.37z" fill="url(#X)"/></g><g filter="url(#h)"><path d="m25.995 11.5259v1.14c0 .32.4.53.77.41l1.95-.61c.38-.12.38-.54 0-.67l-2.01-.65c-.34-.11-.71.09-.71.38z" fill="url(#Y)"/></g><path d="m30.005 18.0259v.07h-28v-.07c0-.1.01001-.2.02001-.3.02-.22.05999-.43.12999-.63h27.7c.05.15.09.32.11.49.03.14.04.29.04.44z" fill="url(#Z)"/><g filter="url(#i)"><path d="m12.485 9.09597c-.27 0-.49-.22-.49-.49s.22-.49.49-.49.49.22.49.49c.01.27-.22.49-.49.49z" fill="#ffb340"/></g><g filter="url(#j)"><path d="m15.495 9.09597c-.27 0-.49-.22-.49-.49s.22-.49.49-.49.49.22.49.49c.01.27-.21.49-.49.49z" fill="#42dc80"/></g><g filter="url(#k)"><path d="m19.495 12.106c-.27 0-.49-.22-.49-.49s.22-.49.49-.49.49.22.49.49-.22.49-.49.49z" fill="#ff8738"/><path d="m19.495 12.106c-.27 0-.49-.22-.49-.49s.22-.49.49-.49.49.22.49.49-.22.49-.49.49z" fill="url(#ab)"/></g><g filter="url(#l)"><path d="m13.555 12.096h-1.14c-.23 0-.42-.19-.42-.42v-1.14c0-.23.19-.42.42-.42h1.14c.23 0 .42.19.42.42v1.14c.01.23-.18.42-.42.42z" fill="#ffb340"/></g><g filter="url(#m)"><path d="m16.565 12.096h-1.14c-.23 0-.42-.19-.42-.42v-1.14c0-.23.19-.42.42-.42h1.14c.23 0 .42.19.42.42v1.14c.01.23-.18.42-.42.42z" fill="#42dc80"/></g><g filter="url(#n)"><path d="m19.495 9.09597h-1c-.27 0-.49-.22-.49-.49s.22-.49.49-.49h1c.27 0 .49.22.49.49s-.22.49-.49.49z" fill="#ff8738"/><path d="m19.495 9.09597h-1c-.27 0-.49-.22-.49-.49s.22-.49.49-.49h1c.27 0 .49.22.49.49s-.22.49-.49.49z" fill="url(#ac)"/></g><path d="m5.47498 5.10596c.27614 0 .5-.22386.5-.5 0-.27615-.22386-.5-.5-.5-.27615 0-.5.22385-.5.5 0 .27614.22385.5.5.5z" fill="url(#ae)"/><path d="m7.49487 9.10596c.27615 0 .5-.22386.5-.5 0-.27615-.22385-.5-.5-.5-.27614 0-.5.22385-.5.5 0 .27614.22386.5.5.5z" fill="url(#af)"/><path d="m11.475 6.10596c.2761 0 .5-.22386.5-.5 0-.27615-.2239-.5-.5-.5-.2762 0-.5.22385-.5.5 0 .27614.2238.5.5.5z" fill="url(#ag)"/><path d="m23.4949 10.106c.2761 0 .5-.2239.5-.50004 0-.27615-.2239-.5-.5-.5-.2762 0-.5.22385-.5.5 0 .27614.2238.50004.5.50004z" fill="url(#ai)"/><path d="m28.475 10.0859c.2761 0 .5-.22382.5-.49996s-.2239-.5-.5-.5c-.2762 0-.5.22386-.5.5s.2238.49996.5.49996z" fill="url(#aj)"/><path d="m27.4449 5.11597c.2762 0 .5-.22386.5-.5 0-.27615-.2238-.5-.5-.5-.2761 0-.5.22385-.5.5 0 .27614.2239.5.5.5z" fill="url(#ak)"/><g filter="url(#o)"><path d="m5.81498 9.91594c-.2.19996-.52.19996-.72 0l-.95999-.96c-.2-.2-.2-.52 0-.72s.52-.2.72 0l.95999.96c.2.2.2.52 0 .72z" fill="#836898"/></g><g filter="url(#p)"><path d="m22.795 6.95598c-.2.2-.52.2-.72 0l-.96-.96c-.2-.2-.2-.52 0-.72s.52-.2.72 0l.96.96c.2.2.2.52 0 .72z" fill="#836898"/></g><g filter="url(#q)"><path d="m8.16489 5.91594c.2.2.52.2.72 0l.96-.96c.20001-.2.20001-.52 0-.72-.2-.2-.52001-.2-.72001 0l-.95999.96c-.2.2-.2.52 0 .72z" fill="#fab240"/></g><g filter="url(#r)"><path d="m8.16489 5.91594c.2.2.52.2.72 0l.96-.96c.20001-.2.20001-.52 0-.72-.2-.2-.52001-.2-.72001 0l-.95999.96c-.2.2-.2.52 0 .72z" fill="#fab240"/><path d="m8.16489 5.91594c.2.2.52.2.72 0l.96-.96c.20001-.2.20001-.52 0-.72-.2-.2-.52001-.2-.72001 0l-.95999.96c-.2.2-.2.52 0 .72z" fill="url(#al)"/></g><path d="m8.16489 5.91594c.2.2.52.2.72 0l.96-.96c.20001-.2.20001-.52 0-.72-.2-.2-.52001-.2-.72001 0l-.95999.96c-.2.2-.2.52 0 .72z" fill="url(#am)"/><g filter="url(#s)"><path d="m25.0949 8.91594c.2.2.52.2.72 0l.96-.96c.2-.2.2-.52 0-.72s-.52-.2-.72 0l-.96.96c-.19.2-.19.52 0 .72z" fill="#48dc86"/></g><path d="m25.0949 8.91594c.2.2.52.2.72 0l.96-.96c.2-.2.2-.52 0-.72s-.52-.2-.72 0l-.96.96c-.19.2-.19.52 0 .72z" fill="url(#an)"/><path d="m25.0949 8.91594c.2.2.52.2.72 0l.96-.96c.2-.2.2-.52 0-.72s-.52-.2-.72 0l-.96.96c-.19.2-.19.52 0 .72z" fill="url(#ao)" fill-opacity=".2"/><g filter="url(#t)"><path d="m14.6613 22.2468c-.3354.0537-1.0061.5313-1.0061 2.0124v5.4334" stroke="url(#aq)" stroke-linecap="round" stroke-width=".6"/></g><g filter="url(#u)"><path d="m5.80454 24.4604c-.32792.0378-.98374.3734-.98374 1.4142v3.818" stroke="url(#ar)" stroke-linecap="round" stroke-width=".6"/></g><g filter="url(#v)"><path d="m23.6288 24.4604c-.328.0378-.9838.3734-.9838 1.4142v3.818" stroke="url(#as)" stroke-linecap="round" stroke-width=".6"/></g></svg>