<svg fill="none" height="32" viewBox="0 0 32 32" width="32" xmlns="http://www.w3.org/2000/svg" xmlns:xlink="http://www.w3.org/1999/xlink"><filter id="a" color-interpolation-filters="sRGB" filterUnits="userSpaceOnUse" height="9.42" width="4.25" x="19.98" y="3.86"><feFlood flood-opacity="0" result="BackgroundImageFix"/><feBlend in="SourceGraphic" in2="BackgroundImageFix" mode="normal" result="shape"/><feColorMatrix in="SourceAlpha" result="hardAlpha" type="matrix" values="0 0 0 0 0 0 0 0 0 0 0 0 0 0 0 0 0 0 127 0"/><feOffset dx=".25" dy=".25"/><feGaussianBlur stdDeviation=".25"/><feComposite in2="hardAlpha" k2="-1" k3="1" operator="arithmetic"/><feColorMatrix type="matrix" values="0 0 0 0 0.439216 0 0 0 0 0.376471 0 0 0 0 0.443137 0 0 0 1 0"/><feBlend in2="shape" mode="normal" result="effect1_innerShadow_18_5596"/></filter><filter id="b" color-interpolation-filters="sRGB" filterUnits="userSpaceOnUse" height="2.3" width="4" x="20" y="3.7"><feFlood flood-opacity="0" result="BackgroundImageFix"/><feBlend in="SourceGraphic" in2="BackgroundImageFix" mode="normal" result="shape"/><feColorMatrix in="SourceAlpha" result="hardAlpha" type="matrix" values="0 0 0 0 0 0 0 0 0 0 0 0 0 0 0 0 0 0 127 0"/><feOffset dy="-.3"/><feGaussianBlur stdDeviation=".25"/><feComposite in2="hardAlpha" k2="-1" k3="1" operator="arithmetic"/><feColorMatrix type="matrix" values="0 0 0 0 0.619608 0 0 0 0 0.129412 0 0 0 0 0.247059 0 0 0 1 0"/><feBlend in2="shape" mode="normal" result="effect1_innerShadow_18_5596"/></filter><filter id="c" color-interpolation-filters="sRGB" filterUnits="userSpaceOnUse" height="1.763" width="1.65" x="20.361" y="10.701"><feFlood flood-opacity="0" result="BackgroundImageFix"/><feBlend in="SourceGraphic" in2="BackgroundImageFix" mode="normal" result="shape"/><feGaussianBlur result="effect1_foregroundBlur_18_5596" stdDeviation=".1"/></filter><filter id="d" color-interpolation-filters="sRGB" filterUnits="userSpaceOnUse" height="22.478" width="7" x="7" y="4.022"><feFlood flood-opacity="0" result="BackgroundImageFix"/><feBlend in="SourceGraphic" in2="BackgroundImageFix" mode="normal" result="shape"/><feColorMatrix in="SourceAlpha" result="hardAlpha" type="matrix" values="0 0 0 0 0 0 0 0 0 0 0 0 0 0 0 0 0 0 127 0"/><feOffset dy="-.1"/><feGaussianBlur stdDeviation=".2"/><feComposite in2="hardAlpha" k2="-1" k3="1" operator="arithmetic"/><feColorMatrix type="matrix" values="0 0 0 0 0.631373 0 0 0 0 0.415686 0 0 0 0 0.227451 0 0 0 1 0"/><feBlend in2="shape" mode="normal" result="effect1_innerShadow_18_5596"/></filter><filter id="e" color-interpolation-filters="sRGB" filterUnits="userSpaceOnUse" height="22.89" width="1" x="13.047" y="4.039"><feFlood flood-opacity="0" result="BackgroundImageFix"/><feBlend in="SourceGraphic" in2="BackgroundImageFix" mode="normal" result="shape"/><feGaussianBlur result="effect1_foregroundBlur_18_5596" stdDeviation=".2"/></filter><filter id="f" color-interpolation-filters="sRGB" filterUnits="userSpaceOnUse" height="22.89" width="1" x="6.993" y="4.039"><feFlood flood-opacity="0" result="BackgroundImageFix"/><feBlend in="SourceGraphic" in2="BackgroundImageFix" mode="normal" result="shape"/><feGaussianBlur result="effect1_foregroundBlur_18_5596" stdDeviation=".2"/></filter><filter id="g" color-interpolation-filters="sRGB" filterUnits="userSpaceOnUse" height="1.3" width="10.077" x="5.835" y="26.102"><feFlood flood-opacity="0" result="BackgroundImageFix"/><feBlend in="SourceGraphic" in2="BackgroundImageFix" mode="normal" result="shape"/><feGaussianBlur result="effect1_foregroundBlur_18_5596" stdDeviation=".25"/></filter><filter id="h" color-interpolation-filters="sRGB" filterUnits="userSpaceOnUse" height="3.793" width="6.509" x="7.25" y="6.587"><feFlood flood-opacity="0" result="BackgroundImageFix"/><feBlend in="SourceGraphic" in2="BackgroundImageFix" mode="normal" result="shape"/><feGaussianBlur result="effect1_foregroundBlur_18_5596" stdDeviation=".15"/></filter><filter id="i" color-interpolation-filters="sRGB" filterUnits="userSpaceOnUse" height="3.793" width="6.509" x="7.25" y="10.583"><feFlood flood-opacity="0" result="BackgroundImageFix"/><feBlend in="SourceGraphic" in2="BackgroundImageFix" mode="normal" result="shape"/><feGaussianBlur result="effect1_foregroundBlur_18_5596" stdDeviation=".15"/></filter><filter id="j" color-interpolation-filters="sRGB" filterUnits="userSpaceOnUse" height="3.793" width="6.509" x="7.25" y="14.55"><feFlood flood-opacity="0" result="BackgroundImageFix"/><feBlend in="SourceGraphic" in2="BackgroundImageFix" mode="normal" result="shape"/><feGaussianBlur result="effect1_foregroundBlur_18_5596" stdDeviation=".15"/></filter><filter id="k" color-interpolation-filters="sRGB" filterUnits="userSpaceOnUse" height="3.793" width="6.509" x="7.25" y="22.552"><feFlood flood-opacity="0" result="BackgroundImageFix"/><feBlend in="SourceGraphic" in2="BackgroundImageFix" mode="normal" result="shape"/><feGaussianBlur result="effect1_foregroundBlur_18_5596" stdDeviation=".15"/></filter><filter id="l" color-interpolation-filters="sRGB" filterUnits="userSpaceOnUse" height="3.793" width="6.509" x="7.25" y="18.517"><feFlood flood-opacity="0" result="BackgroundImageFix"/><feBlend in="SourceGraphic" in2="BackgroundImageFix" mode="normal" result="shape"/><feGaussianBlur result="effect1_foregroundBlur_18_5596" stdDeviation=".15"/></filter><filter id="m" color-interpolation-filters="sRGB" filterUnits="userSpaceOnUse" height=".9" width="6.334" x="7.662" y="9.991"><feFlood flood-opacity="0" result="BackgroundImageFix"/><feBlend in="SourceGraphic" in2="BackgroundImageFix" mode="normal" result="shape"/><feGaussianBlur result="effect1_foregroundBlur_18_5596" stdDeviation=".15"/></filter><filter id="n" color-interpolation-filters="sRGB" filterUnits="userSpaceOnUse" height=".9" width="6.334" x="7.662" y="14.05"><feFlood flood-opacity="0" result="BackgroundImageFix"/><feBlend in="SourceGraphic" in2="BackgroundImageFix" mode="normal" result="shape"/><feGaussianBlur result="effect1_foregroundBlur_18_5596" stdDeviation=".15"/></filter><filter id="o" color-interpolation-filters="sRGB" filterUnits="userSpaceOnUse" height=".9" width="6.334" x="7.662" y="17.951"><feFlood flood-opacity="0" result="BackgroundImageFix"/><feBlend in="SourceGraphic" in2="BackgroundImageFix" mode="normal" result="shape"/><feGaussianBlur result="effect1_foregroundBlur_18_5596" stdDeviation=".15"/></filter><filter id="p" color-interpolation-filters="sRGB" filterUnits="userSpaceOnUse" height=".9" width="6.334" x="7.662" y="21.968"><feFlood flood-opacity="0" result="BackgroundImageFix"/><feBlend in="SourceGraphic" in2="BackgroundImageFix" mode="normal" result="shape"/><feGaussianBlur result="effect1_foregroundBlur_18_5596" stdDeviation=".15"/></filter><filter id="q" color-interpolation-filters="sRGB" filterUnits="userSpaceOnUse" height="1.3" width="22.035" x="5.505" y="3.161"><feFlood flood-opacity="0" result="BackgroundImageFix"/><feBlend in="SourceGraphic" in2="BackgroundImageFix" mode="normal" result="shape"/><feGaussianBlur result="effect1_foregroundBlur_18_5596" stdDeviation=".25"/></filter><filter id="r" color-interpolation-filters="sRGB" filterUnits="userSpaceOnUse" height="6.383" width="2.072" x="21.837" y="6.095"><feFlood flood-opacity="0" result="BackgroundImageFix"/><feBlend in="SourceGraphic" in2="BackgroundImageFix" mode="normal" result="shape"/><feGaussianBlur result="effect1_foregroundBlur_18_5596" stdDeviation=".1"/></filter><filter id="s" color-interpolation-filters="sRGB" filterUnits="userSpaceOnUse" height="7.994" width="5.869" x="16.628" y="11.472"><feFlood flood-opacity="0" result="BackgroundImageFix"/><feBlend in="SourceGraphic" in2="BackgroundImageFix" mode="normal" result="shape"/><feGaussianBlur result="effect1_foregroundBlur_18_5596" stdDeviation=".15"/></filter><radialGradient id="t" cx="0" cy="0" gradientTransform="matrix(-.6140297 .66822028 -1.35024386 -1.24074329 23.7141 9.68562)" gradientUnits="userSpaceOnUse" r="1"><stop offset="0" stop-color="#c9c6c9"/><stop offset="1" stop-color="#c9c6c9" stop-opacity="0"/></radialGradient><linearGradient id="u" gradientUnits="userSpaceOnUse" x1="22.125" x2="21.98" y1="5.875" y2="6.406"><stop offset="0" stop-color="#73556b"/><stop offset="1" stop-color="#73556b" stop-opacity="0"/></linearGradient><radialGradient id="v" cx="0" cy="0" gradientTransform="matrix(.79179592 -.89976737 1.02552686 .90246436 22.209 10.5575)" gradientUnits="userSpaceOnUse" r="1"><stop offset=".078" stop-color="#726670"/><stop offset="1" stop-color="#726670" stop-opacity="0"/></radialGradient><radialGradient id="w" cx="0" cy="0" gradientTransform="matrix(-.33878208 .78344185 -.61498084 -.26593485 20.8277 10.5841)" gradientUnits="userSpaceOnUse" r="1"><stop offset="0" stop-color="#9b9999"/><stop offset="1" stop-color="#9b9999" stop-opacity="0"/></radialGradient><radialGradient id="x" cx="0" cy="0" gradientTransform="matrix(-.41406299 .34374951 -.11301354 -.1361303 22.5234 9.04674)" gradientUnits="userSpaceOnUse" r="1"><stop offset="0" stop-color="#c5c3c5"/><stop offset="1" stop-color="#c5c3c5" stop-opacity="0"/></radialGradient><radialGradient id="y" cx="0" cy="0" gradientTransform="matrix(0 -1.2175 2.39062 0 21.7969 13.0299)" gradientUnits="userSpaceOnUse" r="1"><stop offset="0" stop-color="#907981"/><stop offset="1" stop-color="#907981" stop-opacity="0"/></radialGradient><linearGradient id="z" gradientUnits="userSpaceOnUse" x1="22" x2="22" y1="4.914" y2="5.187"><stop offset="0" stop-color="#a72d2e"/><stop offset="1" stop-color="#a72d2e" stop-opacity="0"/></linearGradient><linearGradient id="A" gradientUnits="userSpaceOnUse" x1="23.714" x2="23.714" y1="14.327" y2="18.517"><stop offset="0" stop-color="#c75439"/><stop offset="1" stop-color="#db703c"/></linearGradient><linearGradient id="B" gradientUnits="userSpaceOnUse" x1="22" x2="22" y1="15" y2="15.609"><stop offset="0" stop-color="#a53129"/><stop offset="1" stop-color="#a53129" stop-opacity="0"/></linearGradient><radialGradient id="C" cx="0" cy="0" gradientTransform="matrix(3.04591228 2.13597304 -15.94230136 22.73383168 18.9541 14.5589)" gradientUnits="userSpaceOnUse" r="1"><stop offset="0" stop-color="#aa3729"/><stop offset=".183" stop-color="#aa3729" stop-opacity="0"/></radialGradient><radialGradient id="D" cx="0" cy="0" gradientTransform="matrix(-.80098637 .57213993 -8.31665405 -11.64317723 23.6837 16.8474)" gradientUnits="userSpaceOnUse" r="1"><stop offset="0" stop-color="#9e302b"/><stop offset="1" stop-color="#9e302b" stop-opacity="0"/></radialGradient><linearGradient id="E"><stop offset="0" stop-color="#e93247"/><stop offset="1" stop-color="#dc326c"/></linearGradient><linearGradient id="F" gradientUnits="userSpaceOnUse" x1="15.007" x2="29.002" xlink:href="#E" y1="14.5" y2="14.5"/><linearGradient id="G"><stop offset="0" stop-color="#b41a2c"/><stop offset="1" stop-color="#b41a2c" stop-opacity="0"/></linearGradient><linearGradient id="H" gradientUnits="userSpaceOnUse" x1="22" x2="22" xlink:href="#G" y1="15.203" y2="14.391"/><linearGradient id="I"><stop offset="0" stop-color="#941b37"/><stop offset="1" stop-color="#941b37" stop-opacity="0"/></linearGradient><radialGradient id="J" cx="0" cy="0" gradientTransform="matrix(-.68750333 .49999557 -1.24864204 -1.71690632 22.6875 14.5)" gradientUnits="userSpaceOnUse" r="1" xlink:href="#I"/><radialGradient id="K" cx="0" cy="0" gradientTransform="matrix(-1.42187842 1.89060108 -1.34698364 -1.01303601 19.8594 14)" gradientUnits="userSpaceOnUse" r="1"><stop offset="0" stop-color="#c02942"/><stop offset="1" stop-color="#c02942" stop-opacity="0"/></radialGradient><linearGradient id="L"><stop offset="0" stop-color="#f64789"/><stop offset="1" stop-color="#f64789" stop-opacity="0"/></linearGradient><linearGradient id="M" gradientUnits="userSpaceOnUse" x1="29.063" x2="28.422" xlink:href="#L" y1="14.5" y2="14.5"/><linearGradient id="N"><stop offset="0" stop-color="#b03634"/><stop offset="1" stop-color="#b03634" stop-opacity="0"/></linearGradient><linearGradient id="O" gradientUnits="userSpaceOnUse" x1="15" x2="15.797" xlink:href="#N" y1="15" y2="15"/><linearGradient id="P" gradientUnits="userSpaceOnUse" x1="15.007" x2="29.002" xlink:href="#E" y1="18.5" y2="18.5"/><linearGradient id="Q" gradientUnits="userSpaceOnUse" x1="22" x2="22" xlink:href="#G" y1="19.203" y2="18.391"/><radialGradient id="R" cx="0" cy="0" gradientTransform="matrix(-.79687305 .40623735 -2.39704228 -4.70202557 25.7188 18.5)" gradientUnits="userSpaceOnUse" r="1" xlink:href="#I"/><linearGradient id="S" gradientUnits="userSpaceOnUse" x1="29.063" x2="28.422" xlink:href="#L" y1="18.5" y2="18.5"/><linearGradient id="T" gradientUnits="userSpaceOnUse" x1="15" x2="15.797" xlink:href="#N" y1="19" y2="19"/><linearGradient id="U" gradientUnits="userSpaceOnUse" x1="22.809" x2="25.232" y1="14.409" y2="13.449"><stop offset="0" stop-color="#2d1c27"/><stop offset="1" stop-color="#61556f"/></linearGradient><radialGradient id="V" cx="0" cy="0" gradientTransform="matrix(-3.301158 -4.66170253 .59057122 -.41820963 27.1964 20.0411)" gradientUnits="userSpaceOnUse" r="1"><stop offset="0" stop-color="#422d4d"/><stop offset="1" stop-color="#422d4d" stop-opacity="0"/></radialGradient><linearGradient id="W" gradientUnits="userSpaceOnUse" x1="22.233" x2="20.692" y1="12.417" y2="11.156"><stop offset="0" stop-color="#c5c2c5" stop-opacity="0"/><stop offset="1" stop-color="#c5c2c5"/></linearGradient><linearGradient id="X" gradientUnits="userSpaceOnUse" x1="21.753" x2="17.042" y1="12.119" y2="19.157"><stop offset="0" stop-color="#493557"/><stop offset="1" stop-color="#332336"/></linearGradient><linearGradient id="Y" gradientUnits="userSpaceOnUse" x1="2.003" x2="30.003" y1="29.001" y2="29.001"><stop offset="0" stop-color="#f03867"/><stop offset="1" stop-color="#f53c4f"/></linearGradient><linearGradient id="Z" gradientUnits="userSpaceOnUse" x1="1.604" x2="3.415" y1="29.799" y2="30.402"><stop offset="0" stop-color="#9c3e51"/><stop offset="1" stop-color="#9c3e51" stop-opacity="0"/></linearGradient><linearGradient id="aa" gradientUnits="userSpaceOnUse" x1="16" x2="16" y1="30" y2="29.75"><stop offset="0" stop-color="#c8253d"/><stop offset="1" stop-color="#c8253d" stop-opacity="0"/></linearGradient><linearGradient id="ab" gradientUnits="userSpaceOnUse" x1="8" x2="12.584" y1="7" y2="7"><stop offset="0" stop-color="#e5933f"/><stop offset="1" stop-color="#d8a93f"/></linearGradient><linearGradient id="ac" gradientUnits="userSpaceOnUse" x1="13.188" x2="12.453" y1="7" y2="7"><stop offset="0" stop-color="#925c20"/><stop offset="1" stop-color="#925c20" stop-opacity="0"/></linearGradient><linearGradient id="ad" gradientUnits="userSpaceOnUse" x1="10.5" x2="10.5" y1="4.853" y2="7"><stop offset="0" stop-color="#9b481f"/><stop offset=".226" stop-color="#9b481f" stop-opacity="0"/></linearGradient><linearGradient id="ae" gradientUnits="userSpaceOnUse" x1="15.162" x2="6.221" y1="11.939" y2="11.939"><stop offset="0" stop-color="#e1b841"/><stop offset="1" stop-color="#d7893b"/></linearGradient><linearGradient id="af" gradientUnits="userSpaceOnUse" x1="6.853" x2="7.572" y1="17" y2="17"><stop offset="0" stop-color="#8a4c2f"/><stop offset="1" stop-color="#8a4c2f" stop-opacity="0"/></linearGradient><linearGradient id="ag" gradientUnits="userSpaceOnUse" x1="14" x2="13.511" y1="15.5" y2="15.5"><stop offset="0" stop-color="#d4aa37"/><stop offset="1" stop-color="#d4aa37" stop-opacity="0"/></linearGradient><linearGradient id="ah"><stop offset="0" stop-color="#fcc559"/><stop offset="1" stop-color="#fcaf59" stop-opacity="0"/></linearGradient><radialGradient id="ai" cx="0" cy="0" gradientTransform="matrix(-1.095583 .37980797 -.1259195 -.36322372 8.99999 9.82758)" gradientUnits="userSpaceOnUse" r="1" xlink:href="#ah"/><radialGradient id="aj" cx="0" cy="0" gradientTransform="matrix(-.93750111 .23437105 -.077702 -.31081361 9.17187 13.9063)" gradientUnits="userSpaceOnUse" r="1" xlink:href="#ah"/><radialGradient id="ak" cx="0" cy="0" gradientTransform="matrix(-1.18749872 .39063642 -.12950905 -.39369558 9.1875 17.875)" gradientUnits="userSpaceOnUse" r="1" xlink:href="#ah"/><radialGradient id="al" cx="0" cy="0" gradientTransform="matrix(-1.21875227 .21876115 -.05183376 -.2887739 9.26563 21.8594)" gradientUnits="userSpaceOnUse" r="1" xlink:href="#ah"/><linearGradient id="am" gradientUnits="userSpaceOnUse" x1="15.438" x2="5.438" y1="28" y2="28"><stop offset="0" stop-color="#e6b441"/><stop offset="1" stop-color="#e48c41"/></linearGradient><linearGradient id="an" gradientUnits="userSpaceOnUse" x1="5" x2="5.875" y1="28" y2="28"><stop offset="0" stop-color="#95613d"/><stop offset="1" stop-color="#95613d" stop-opacity="0"/></linearGradient><linearGradient id="ao" gradientUnits="userSpaceOnUse" x1="16.201" x2="14.973" y1="28" y2="28"><stop offset="0" stop-color="#ffd75e"/><stop offset="1" stop-color="#ffd75e" stop-opacity="0"/></linearGradient><linearGradient id="ap" gradientUnits="userSpaceOnUse" x1="5.375" x2="14.125" y1="5" y2="5"><stop offset="0" stop-color="#e49636"/><stop offset="1" stop-color="#e9c437"/></linearGradient><linearGradient id="aq" gradientUnits="userSpaceOnUse" x1="16" x2="16" y1="5.465" y2="4"><stop offset="0" stop-color="#935740"/><stop offset="1" stop-color="#935740" stop-opacity="0"/></linearGradient><linearGradient id="ar" gradientUnits="userSpaceOnUse" x1="4" x2="5.343" y1="4.269" y2="4.269"><stop offset="0" stop-color="#97673a"/><stop offset="1" stop-color="#97673a" stop-opacity="0"/></linearGradient><linearGradient id="as" gradientUnits="userSpaceOnUse" x1="28" x2="26.858" y1="5" y2="5"><stop offset="0" stop-color="#feda62"/><stop offset="1" stop-color="#feda62" stop-opacity="0"/></linearGradient><linearGradient id="at"><stop offset="0" stop-color="#ffd758" stop-opacity="0"/><stop offset="1" stop-color="#ffd758"/></linearGradient><linearGradient id="au" gradientUnits="userSpaceOnUse" x1="8.183" x2="9.57" xlink:href="#at" y1="26.752" y2="23.82"/><linearGradient id="av" gradientUnits="userSpaceOnUse" x1="6.94" x2="11.168" xlink:href="#at" y1="10.456" y2="4.582"/><linearGradient id="aw" gradientUnits="userSpaceOnUse" x1="6.94" x2="11.168" xlink:href="#at" y1="14.451" y2="8.578"/><linearGradient id="ax" gradientUnits="userSpaceOnUse" x1="6.94" x2="11.168" xlink:href="#at" y1="18.418" y2="12.545"/><linearGradient id="ay" gradientUnits="userSpaceOnUse" x1="6.94" x2="11.168" xlink:href="#at" y1="26.421" y2="20.547"/><linearGradient id="az" gradientUnits="userSpaceOnUse" x1="6.94" x2="11.168" xlink:href="#at" y1="22.386" y2="16.512"/><linearGradient id="aA" gradientUnits="userSpaceOnUse" x1="7.616" x2="8.827" xlink:href="#at" y1="10.3" y2="7.743"/><linearGradient id="aB" gradientUnits="userSpaceOnUse" x1="7.616" x2="8.827" xlink:href="#at" y1="14.359" y2="11.802"/><linearGradient id="aC" gradientUnits="userSpaceOnUse" x1="7.616" x2="8.827" xlink:href="#at" y1="18.259" y2="15.702"/><linearGradient id="aD" gradientUnits="userSpaceOnUse" x1="7.616" x2="8.827" xlink:href="#at" y1="22.276" y2="19.719"/><linearGradient id="aE" gradientUnits="userSpaceOnUse" x1="4.26" x2="4.576" y1="3.67" y2="1.121"><stop offset="0" stop-color="#fcd85c" stop-opacity="0"/><stop offset=".448" stop-color="#fcd85c"/><stop offset="1" stop-color="#fcd85c" stop-opacity="0"/></linearGradient><linearGradient id="aF" gradientUnits="userSpaceOnUse" x1="22.401" x2="25.136" y1="6.203" y2="6.981"><stop offset="0" stop-color="#c5c2c5" stop-opacity="0"/><stop offset=".486" stop-color="#c5c2c5"/><stop offset=".722" stop-color="#c5c2c5"/><stop offset=".871" stop-color="#c5c2c5" stop-opacity="0"/></linearGradient><linearGradient id="aG" gradientUnits="userSpaceOnUse" x1="21.753" x2="21.323" y1="11.835" y2="19.309"><stop offset="0" stop-color="#635570"/><stop offset="1" stop-color="#635570" stop-opacity="0"/></linearGradient><g filter="url(#a)"><path d="m23.98 11.0299c0 1.1-.9 2-2 2s-2-.9-2-2c0-.28.23-.5.5-.5.28 0 .5.22.5.5 0 .55.45 1 1 1s1-.45 1-1-.43-.99-.98-1c-.3026 0-.5-.2566-.5-.61004v-5.06c0-.27.23-.5.5-.5.28 0 .5.23.5.5v4.73001c.85.23 1.48 1.02003 1.48 1.94003z" fill="#aea6b0"/></g><path d="m23.98 11.0299c0 1.1-.9 2-2 2s-2-.9-2-2c0-.28.23-.5.5-.5.28 0 .5.22.5.5 0 .55.45 1 1 1s1-.45 1-1-.43-.99-.98-1c-.3026 0-.5-.29176-.5-.61004v-5.06c0-.27.23-.5.5-.5.28 0 .5.23.5.5v4.73001c.85.23 1.48 1.02003 1.48 1.94003z" fill="url(#t)"/><path d="m23.98 11.0299c0 1.1-.9 2-2 2s-2-.9-2-2c0-.28.23-.5.5-.5.28 0 .5.22.5.5 0 .55.45 1 1 1s1-.45 1-1-.43-.99-.98-1c-.3026 0-.5-.29176-.5-.61004v-5.06c0-.27.23-.5.5-.5.28 0 .5.23.5.5v4.73001c.85.23 1.48 1.02003 1.48 1.94003z" fill="url(#u)"/><path d="m23.98 11.0299c0 1.1-.9 2-2 2s-2-.9-2-2c0-.28.23-.5.5-.5.28 0 .5.22.5.5 0 .55.45 1 1 1s1-.45 1-1-.43-.99-.98-1c-.3026 0-.5-.29176-.5-.61004v-5.06c0-.27.23-.5.5-.5.28 0 .5.23.5.5v4.73001c.85.23 1.48 1.02003 1.48 1.94003z" fill="url(#v)"/><path d="m23.98 11.0299c0 1.1-.9 2-2 2s-2-.9-2-2c0-.28.23-.5.5-.5.28 0 .5.22.5.5 0 .55.45 1 1 1s1-.45 1-1-.43-.99-.98-1c-.3026 0-.5-.29176-.5-.61004v-5.06c0-.27.23-.5.5-.5.28 0 .5.23.5.5v4.73001c.85.23 1.48 1.02003 1.48 1.94003z" fill="url(#w)"/><path d="m23.98 11.0299c0 1.1-.9 2-2 2s-2-.9-2-2c0-.28.23-.5.5-.5.28 0 .5.22.5.5 0 .55.45 1 1 1s1-.45 1-1-.43-.99-.98-1c-.3026 0-.5-.29176-.5-.61004v-5.06c0-.27.23-.5.5-.5.28 0 .5.23.5.5v4.73001c.85.23 1.48 1.02003 1.48 1.94003z" fill="url(#x)"/><path d="m23.98 11.0299c0 1.1-.9 2-2 2s-2-.9-2-2c0-.28.23-.5.5-.5.28 0 .5.22.5.5 0 .55.45 1 1 1s1-.45 1-1-.43-.99-.98-1c-.3026 0-.5-.29176-.5-.61004v-5.06c0-.27.23-.5.5-.5.28 0 .5.23.5.5v4.73001c.85.23 1.48 1.02003 1.48 1.94003z" fill="url(#y)"/><g filter="url(#b)"><path d="m23.0909 4h-2.1818c-.5051 0-.9091.44445-.9091 1 0 .55556.404 1 .9091 1h2.1818c.5051 0 .9091-.44444.9091-1 0-.55555-.404-1-.9091-1z" fill="#d92d4f"/><path d="m23.0909 4h-2.1818c-.5051 0-.9091.44445-.9091 1 0 .55556.404 1 .9091 1h2.1818c.5051 0 .9091-.44444.9091-1 0-.55555-.404-1-.9091-1z" fill="url(#z)"/></g><path d="m28 15h-12v3h12z" fill="url(#A)"/><path d="m28 15h-12v3h12z" fill="url(#B)"/><path d="m28 15h-12v3h12z" fill="url(#C)" fill-opacity=".5"/><path d="m28 15h-12v3h12z" fill="url(#D)" fill-opacity=".5"/><path d="m28.4957 15h-12.9813c-.2824 0-.5144-.2255-.5144-.5s.232-.5.5144-.5h12.9712c.2824 0 .5144.2255.5144.5s-.2219.5-.5043.5z" fill="url(#F)"/><path d="m28.4957 15h-12.9813c-.2824 0-.5144-.2255-.5144-.5s.232-.5.5144-.5h12.9712c.2824 0 .5144.2255.5144.5s-.2219.5-.5043.5z" fill="url(#H)"/><path d="m28.4957 15h-12.9813c-.2824 0-.5144-.2255-.5144-.5s.232-.5.5144-.5h12.9712c.2824 0 .5144.2255.5144.5s-.2219.5-.5043.5z" fill="url(#J)"/><path d="m28.4957 15h-12.9813c-.2824 0-.5144-.2255-.5144-.5s.232-.5.5144-.5h12.9712c.2824 0 .5144.2255.5144.5s-.2219.5-.5043.5z" fill="url(#K)"/><path d="m28.4957 15h-12.9813c-.2824 0-.5144-.2255-.5144-.5s.232-.5.5144-.5h12.9712c.2824 0 .5144.2255.5144.5s-.2219.5-.5043.5z" fill="url(#M)"/><path d="m28.4957 15h-12.9813c-.2824 0-.5144-.2255-.5144-.5s.232-.5.5144-.5h12.9712c.2824 0 .5144.2255.5144.5s-.2219.5-.5043.5z" fill="url(#O)"/><path d="m28.4856 19h-12.9712c-.2824 0-.5144-.2255-.5144-.5s.232-.5.5144-.5h12.9712c.2824 0 .5144.2255.5144.5s-.232.5-.5144.5z" fill="url(#P)"/><path d="m28.4856 19h-12.9712c-.2824 0-.5144-.2255-.5144-.5s.232-.5.5144-.5h12.9712c.2824 0 .5144.2255.5144.5s-.232.5-.5144.5z" fill="url(#Q)"/><path d="m28.4856 19h-12.9712c-.2824 0-.5144-.2255-.5144-.5s.232-.5.5144-.5h12.9712c.2824 0 .5144.2255.5144.5s-.232.5-.5144.5z" fill="url(#R)"/><path d="m28.4856 19h-12.9712c-.2824 0-.5144-.2255-.5144-.5s.232-.5.5144-.5h12.9712c.2824 0 .5144.2255.5144.5s-.232.5-.5144.5z" fill="url(#S)"/><path d="m28.4856 19h-12.9712c-.2824 0-.5144-.2255-.5144-.5s.232-.5.5144-.5h12.9712c.2824 0 .5144.2255.5144.5s-.232.5-.5144.5z" fill="url(#T)"/><path d="m26.97 19.57c.1 0 .2-.03.29-.09.23-.16.28-.47.12-.7l-4.99-7.05c-.16-.23-.47-.28-.7-.12s-.28.47-.12.7l4.99 7.05c.1.14.25.21.41.21z" fill="url(#U)"/><path d="m26.97 19.57c.1 0 .2-.03.29-.09.23-.16.28-.47.12-.7l-4.99-7.05c-.16-.23-.47-.28-.7-.12s-.28.47-.12.7l4.99 7.05c.1.14.25.21.41.21z" fill="url(#V)"/><g filter="url(#c)"><path d="m20.6614 11.0015c0 .3959.2745 1.1625 1.0495 1.1625" stroke="url(#W)" stroke-linecap="round" stroke-width=".2"/></g><path d="m16.99 19.57c-.1 0-.2-.03-.29-.09-.23-.16-.28-.47-.12-.7l4.99-7.05c.16-.23.47-.28.7-.12s.28.47.12.7l-4.99 7.05c-.1.14-.25.21-.41.21z" fill="url(#X)"/><path d="m28.01 28h-24.02c-1.06664 0-1.93582.841-1.98756 1.9-.0027.0552.04233.1.09756.1h27.8c.0552 0 .1003-.0448.0976-.1-.0518-1.059-.921-1.9-1.9876-1.9z" fill="url(#Y)"/><path d="m28.01 28h-24.02c-1.06664 0-1.93582.841-1.98756 1.9-.0027.0552.04233.1.09756.1h27.8c.0552 0 .1003-.0448.0976-.1-.0518-1.059-.921-1.9-1.9876-1.9z" fill="url(#Z)"/><path d="m28.01 28h-24.02c-1.06664 0-1.93582.841-1.98756 1.9-.0027.0552.04233.1.09756.1h27.8c.0552 0 .1003-.0448.0976-.1-.0518-1.059-.921-1.9-1.9876-1.9z" fill="url(#aa)"/><path d="m8 5h5v2h-5z" fill="url(#ab)"/><path d="m8 5h5v2h-5z" fill="url(#ac)"/><path d="m8 5h5v2h-5z" fill="url(#ad)"/><g clip-rule="evenodd" fill-rule="evenodd" filter="url(#d)"><path d="m7 4.60003c0-.05522.04477-.1.1-.1h.8c.05523 0 .1.04478.1.1v4.42918c0 .07434.07823.12269.14472.08945l4.79998-2.4c.0339-.01694.0553-.05157.0553-.08945v-2.4069c0-.05522.0448-.1.1-.1h.8c.0552 0 .1.04478.1.1v22.17769c0 .0553-.0448.1-.1.1h-.8c-.0552 0-.1-.0447-.1-.1v-2.4291c0-.0744-.0782-.1227-.1447-.0895l-4.80002 2.4c-.03388.017-.05528.0516-.05528.0895v.0291c0 .0553-.04477.1-.1.1h-.8c-.05523 0-.1-.0447-.1-.1zm1 20.42917c0 .0744.07823.1227.14472.0895l3.85838-1.9292c.0944-.0472.0608-.1895-.0447-.1895h-3.8584c-.05523 0-.1.0448-.1.1zm5-17.05835c0-.07433-.0782-.12268-.1447-.08944l-3.85838 1.92918c-.09438.04719-.0608.18941.04472.18941h3.85836c.0552 0 .1-.04474.1-.09997zm-5 5.05835c0 .0744.07823.1227.14472.0895l3.85838-1.9292c.0944-.0472.0608-.1895-.0447-.1895h-3.8584c-.05523 0-.1.0448-.1.1zm5-1.0583c0-.0744-.0782-.1227-.1447-.0895l-3.85838 1.9292c-.09438.0472-.0608.1894.04472.1894h3.85836c.0552 0 .1-.0447.1-.1zm-5 5.0583c0 .0744.07823.1227.14472.0895l3.85838-1.9292c.0944-.0472.0608-.1895-.0447-.1895h-3.8584c-.05523 0-.1.0448-.1.1zm5-1.0583c0-.0744-.0782-.1227-.1447-.0895l-3.85838 1.9292c-.09438.0472-.0608.1894.04472.1894h3.85836c.0552 0 .1-.0447.1-.1zm-5 5.0583c0 .0744.07823.1227.14472.0895l3.85838-1.9292c.0944-.0472.0608-.1895-.0447-.1895h-3.8584c-.05523 0-.1.0448-.1.1zm5-1.0583c0-.0744-.0782-.1227-.1447-.0895l-3.85838 1.9292c-.09438.0472-.0608.1894.04472.1894h3.85836c.0552 0 .1-.0447.1-.1z" fill="url(#ae)"/><path d="m7 4.60003c0-.05522.04477-.1.1-.1h.8c.05523 0 .1.04478.1.1v4.42918c0 .07434.07823.12269.14472.08945l4.79998-2.4c.0339-.01694.0553-.05157.0553-.08945v-2.4069c0-.05522.0448-.1.1-.1h.8c.0552 0 .1.04478.1.1v22.17769c0 .0553-.0448.1-.1.1h-.8c-.0552 0-.1-.0447-.1-.1v-2.4291c0-.0744-.0782-.1227-.1447-.0895l-4.80002 2.4c-.03388.017-.05528.0516-.05528.0895v.0291c0 .0553-.04477.1-.1.1h-.8c-.05523 0-.1-.0447-.1-.1zm1 20.42917c0 .0744.07823.1227.14472.0895l3.85838-1.9292c.0944-.0472.0608-.1895-.0447-.1895h-3.8584c-.05523 0-.1.0448-.1.1zm5-17.05835c0-.07433-.0782-.12268-.1447-.08944l-3.85838 1.92918c-.09438.04719-.0608.18941.04472.18941h3.85836c.0552 0 .1-.04474.1-.09997zm-5 5.05835c0 .0744.07823.1227.14472.0895l3.85838-1.9292c.0944-.0472.0608-.1895-.0447-.1895h-3.8584c-.05523 0-.1.0448-.1.1zm5-1.0583c0-.0744-.0782-.1227-.1447-.0895l-3.85838 1.9292c-.09438.0472-.0608.1894.04472.1894h3.85836c.0552 0 .1-.0447.1-.1zm-5 5.0583c0 .0744.07823.1227.14472.0895l3.85838-1.9292c.0944-.0472.0608-.1895-.0447-.1895h-3.8584c-.05523 0-.1.0448-.1.1zm5-1.0583c0-.0744-.0782-.1227-.1447-.0895l-3.85838 1.9292c-.09438.0472-.0608.1894.04472.1894h3.85836c.0552 0 .1-.0447.1-.1zm-5 5.0583c0 .0744.07823.1227.14472.0895l3.85838-1.9292c.0944-.0472.0608-.1895-.0447-.1895h-3.8584c-.05523 0-.1.0448-.1.1zm5-1.0583c0-.0744-.0782-.1227-.1447-.0895l-3.85838 1.9292c-.09438.0472-.0608.1894.04472.1894h3.85836c.0552 0 .1-.0447.1-.1z" fill="url(#af)"/><path d="m7 4.60003c0-.05522.04477-.1.1-.1h.8c.05523 0 .1.04478.1.1v4.42918c0 .07434.07823.12269.14472.08945l4.79998-2.4c.0339-.01694.0553-.05157.0553-.08945v-2.4069c0-.05522.0448-.1.1-.1h.8c.0552 0 .1.04478.1.1v22.17769c0 .0553-.0448.1-.1.1h-.8c-.0552 0-.1-.0447-.1-.1v-2.4291c0-.0744-.0782-.1227-.1447-.0895l-4.80002 2.4c-.03388.017-.05528.0516-.05528.0895v.0291c0 .0553-.04477.1-.1.1h-.8c-.05523 0-.1-.0447-.1-.1zm1 20.42917c0 .0744.07823.1227.14472.0895l3.85838-1.9292c.0944-.0472.0608-.1895-.0447-.1895h-3.8584c-.05523 0-.1.0448-.1.1zm5-17.05835c0-.07433-.0782-.12268-.1447-.08944l-3.85838 1.92918c-.09438.04719-.0608.18941.04472.18941h3.85836c.0552 0 .1-.04474.1-.09997zm-5 5.05835c0 .0744.07823.1227.14472.0895l3.85838-1.9292c.0944-.0472.0608-.1895-.0447-.1895h-3.8584c-.05523 0-.1.0448-.1.1zm5-1.0583c0-.0744-.0782-.1227-.1447-.0895l-3.85838 1.9292c-.09438.0472-.0608.1894.04472.1894h3.85836c.0552 0 .1-.0447.1-.1zm-5 5.0583c0 .0744.07823.1227.14472.0895l3.85838-1.9292c.0944-.0472.0608-.1895-.0447-.1895h-3.8584c-.05523 0-.1.0448-.1.1zm5-1.0583c0-.0744-.0782-.1227-.1447-.0895l-3.85838 1.9292c-.09438.0472-.0608.1894.04472.1894h3.85836c.0552 0 .1-.0447.1-.1zm-5 5.0583c0 .0744.07823.1227.14472.0895l3.85838-1.9292c.0944-.0472.0608-.1895-.0447-.1895h-3.8584c-.05523 0-.1.0448-.1.1zm5-1.0583c0-.0744-.0782-.1227-.1447-.0895l-3.85838 1.9292c-.09438.0472-.0608.1894.04472.1894h3.85836c.0552 0 .1-.0447.1-.1z" fill="url(#ag)"/><path d="m7 4.60003c0-.05522.04477-.1.1-.1h.8c.05523 0 .1.04478.1.1v4.42918c0 .07434.07823.12269.14472.08945l4.79998-2.4c.0339-.01694.0553-.05157.0553-.08945v-2.4069c0-.05522.0448-.1.1-.1h.8c.0552 0 .1.04478.1.1v22.17769c0 .0553-.0448.1-.1.1h-.8c-.0552 0-.1-.0447-.1-.1v-2.4291c0-.0744-.0782-.1227-.1447-.0895l-4.80002 2.4c-.03388.017-.05528.0516-.05528.0895v.0291c0 .0553-.04477.1-.1.1h-.8c-.05523 0-.1-.0447-.1-.1zm1 20.42917c0 .0744.07823.1227.14472.0895l3.85838-1.9292c.0944-.0472.0608-.1895-.0447-.1895h-3.8584c-.05523 0-.1.0448-.1.1zm5-17.05835c0-.07433-.0782-.12268-.1447-.08944l-3.85838 1.92918c-.09438.04719-.0608.18941.04472.18941h3.85836c.0552 0 .1-.04474.1-.09997zm-5 5.05835c0 .0744.07823.1227.14472.0895l3.85838-1.9292c.0944-.0472.0608-.1895-.0447-.1895h-3.8584c-.05523 0-.1.0448-.1.1zm5-1.0583c0-.0744-.0782-.1227-.1447-.0895l-3.85838 1.9292c-.09438.0472-.0608.1894.04472.1894h3.85836c.0552 0 .1-.0447.1-.1zm-5 5.0583c0 .0744.07823.1227.14472.0895l3.85838-1.9292c.0944-.0472.0608-.1895-.0447-.1895h-3.8584c-.05523 0-.1.0448-.1.1zm5-1.0583c0-.0744-.0782-.1227-.1447-.0895l-3.85838 1.9292c-.09438.0472-.0608.1894.04472.1894h3.85836c.0552 0 .1-.0447.1-.1zm-5 5.0583c0 .0744.07823.1227.14472.0895l3.85838-1.9292c.0944-.0472.0608-.1895-.0447-.1895h-3.8584c-.05523 0-.1.0448-.1.1zm5-1.0583c0-.0744-.0782-.1227-.1447-.0895l-3.85838 1.9292c-.09438.0472-.0608.1894.04472.1894h3.85836c.0552 0 .1-.0447.1-.1z" fill="url(#ai)"/><path d="m7 4.60003c0-.05522.04477-.1.1-.1h.8c.05523 0 .1.04478.1.1v4.42918c0 .07434.07823.12269.14472.08945l4.79998-2.4c.0339-.01694.0553-.05157.0553-.08945v-2.4069c0-.05522.0448-.1.1-.1h.8c.0552 0 .1.04478.1.1v22.17769c0 .0553-.0448.1-.1.1h-.8c-.0552 0-.1-.0447-.1-.1v-2.4291c0-.0744-.0782-.1227-.1447-.0895l-4.80002 2.4c-.03388.017-.05528.0516-.05528.0895v.0291c0 .0553-.04477.1-.1.1h-.8c-.05523 0-.1-.0447-.1-.1zm1 20.42917c0 .0744.07823.1227.14472.0895l3.85838-1.9292c.0944-.0472.0608-.1895-.0447-.1895h-3.8584c-.05523 0-.1.0448-.1.1zm5-17.05835c0-.07433-.0782-.12268-.1447-.08944l-3.85838 1.92918c-.09438.04719-.0608.18941.04472.18941h3.85836c.0552 0 .1-.04474.1-.09997zm-5 5.05835c0 .0744.07823.1227.14472.0895l3.85838-1.9292c.0944-.0472.0608-.1895-.0447-.1895h-3.8584c-.05523 0-.1.0448-.1.1zm5-1.0583c0-.0744-.0782-.1227-.1447-.0895l-3.85838 1.9292c-.09438.0472-.0608.1894.04472.1894h3.85836c.0552 0 .1-.0447.1-.1zm-5 5.0583c0 .0744.07823.1227.14472.0895l3.85838-1.9292c.0944-.0472.0608-.1895-.0447-.1895h-3.8584c-.05523 0-.1.0448-.1.1zm5-1.0583c0-.0744-.0782-.1227-.1447-.0895l-3.85838 1.9292c-.09438.0472-.0608.1894.04472.1894h3.85836c.0552 0 .1-.0447.1-.1zm-5 5.0583c0 .0744.07823.1227.14472.0895l3.85838-1.9292c.0944-.0472.0608-.1895-.0447-.1895h-3.8584c-.05523 0-.1.0448-.1.1zm5-1.0583c0-.0744-.0782-.1227-.1447-.0895l-3.85838 1.9292c-.09438.0472-.0608.1894.04472.1894h3.85836c.0552 0 .1-.0447.1-.1z" fill="url(#aj)"/><path d="m7 4.60003c0-.05522.04477-.1.1-.1h.8c.05523 0 .1.04478.1.1v4.42918c0 .07434.07823.12269.14472.08945l4.79998-2.4c.0339-.01694.0553-.05157.0553-.08945v-2.4069c0-.05522.0448-.1.1-.1h.8c.0552 0 .1.04478.1.1v22.17769c0 .0553-.0448.1-.1.1h-.8c-.0552 0-.1-.0447-.1-.1v-2.4291c0-.0744-.0782-.1227-.1447-.0895l-4.80002 2.4c-.03388.017-.05528.0516-.05528.0895v.0291c0 .0553-.04477.1-.1.1h-.8c-.05523 0-.1-.0447-.1-.1zm1 20.42917c0 .0744.07823.1227.14472.0895l3.85838-1.9292c.0944-.0472.0608-.1895-.0447-.1895h-3.8584c-.05523 0-.1.0448-.1.1zm5-17.05835c0-.07433-.0782-.12268-.1447-.08944l-3.85838 1.92918c-.09438.04719-.0608.18941.04472.18941h3.85836c.0552 0 .1-.04474.1-.09997zm-5 5.05835c0 .0744.07823.1227.14472.0895l3.85838-1.9292c.0944-.0472.0608-.1895-.0447-.1895h-3.8584c-.05523 0-.1.0448-.1.1zm5-1.0583c0-.0744-.0782-.1227-.1447-.0895l-3.85838 1.9292c-.09438.0472-.0608.1894.04472.1894h3.85836c.0552 0 .1-.0447.1-.1zm-5 5.0583c0 .0744.07823.1227.14472.0895l3.85838-1.9292c.0944-.0472.0608-.1895-.0447-.1895h-3.8584c-.05523 0-.1.0448-.1.1zm5-1.0583c0-.0744-.0782-.1227-.1447-.0895l-3.85838 1.9292c-.09438.0472-.0608.1894.04472.1894h3.85836c.0552 0 .1-.0447.1-.1zm-5 5.0583c0 .0744.07823.1227.14472.0895l3.85838-1.9292c.0944-.0472.0608-.1895-.0447-.1895h-3.8584c-.05523 0-.1.0448-.1.1zm5-1.0583c0-.0744-.0782-.1227-.1447-.0895l-3.85838 1.9292c-.09438.0472-.0608.1894.04472.1894h3.85836c.0552 0 .1-.0447.1-.1z" fill="url(#ak)"/><path d="m7 4.60003c0-.05522.04477-.1.1-.1h.8c.05523 0 .1.04478.1.1v4.42918c0 .07434.07823.12269.14472.08945l4.79998-2.4c.0339-.01694.0553-.05157.0553-.08945v-2.4069c0-.05522.0448-.1.1-.1h.8c.0552 0 .1.04478.1.1v22.17769c0 .0553-.0448.1-.1.1h-.8c-.0552 0-.1-.0447-.1-.1v-2.4291c0-.0744-.0782-.1227-.1447-.0895l-4.80002 2.4c-.03388.017-.05528.0516-.05528.0895v.0291c0 .0553-.04477.1-.1.1h-.8c-.05523 0-.1-.0447-.1-.1zm1 20.42917c0 .0744.07823.1227.14472.0895l3.85838-1.9292c.0944-.0472.0608-.1895-.0447-.1895h-3.8584c-.05523 0-.1.0448-.1.1zm5-17.05835c0-.07433-.0782-.12268-.1447-.08944l-3.85838 1.92918c-.09438.04719-.0608.18941.04472.18941h3.85836c.0552 0 .1-.04474.1-.09997zm-5 5.05835c0 .0744.07823.1227.14472.0895l3.85838-1.9292c.0944-.0472.0608-.1895-.0447-.1895h-3.8584c-.05523 0-.1.0448-.1.1zm5-1.0583c0-.0744-.0782-.1227-.1447-.0895l-3.85838 1.9292c-.09438.0472-.0608.1894.04472.1894h3.85836c.0552 0 .1-.0447.1-.1zm-5 5.0583c0 .0744.07823.1227.14472.0895l3.85838-1.9292c.0944-.0472.0608-.1895-.0447-.1895h-3.8584c-.05523 0-.1.0448-.1.1zm5-1.0583c0-.0744-.0782-.1227-.1447-.0895l-3.85838 1.9292c-.09438.0472-.0608.1894.04472.1894h3.85836c.0552 0 .1-.0447.1-.1zm-5 5.0583c0 .0744.07823.1227.14472.0895l3.85838-1.9292c.0944-.0472.0608-.1895-.0447-.1895h-3.8584c-.05523 0-.1.0448-.1.1zm5-1.0583c0-.0744-.0782-.1227-.1447-.0895l-3.85838 1.9292c-.09438.0472-.0608.1894.04472.1894h3.85836c.0552 0 .1-.0447.1-.1z" fill="url(#al)"/></g><g filter="url(#e)"><path d="m13.5466 4.53931v21.88969" stroke="#f4ca56" stroke-linecap="round" stroke-width=".2"/></g><g filter="url(#f)"><path d="m7.49341 4.53931v21.88969" stroke="#e59a50" stroke-linecap="round" stroke-width=".2"/></g><path d="m5 27.25c0-.6904.55964-1.25 1.25-1.25h8.5c.6904 0 1.25.5596 1.25 1.25v.75h-11z" fill="url(#am)"/><path d="m5 27.25c0-.6904.55964-1.25 1.25-1.25h8.5c.6904 0 1.25.5596 1.25 1.25v.75h-11z" fill="url(#an)"/><path d="m5 27.25c0-.6904.55964-1.25 1.25-1.25h8.5c.6904 0 1.25.5596 1.25 1.25v.75h-11z" fill="url(#ao)"/><rect fill="url(#ap)" height="2" rx="1" width="24" x="4" y="3"/><rect fill="url(#aq)" height="2" rx="1" width="24" x="4" y="3"/><rect fill="url(#ar)" height="2" rx="1" width="24" x="4" y="3"/><rect fill="url(#as)" height="2" rx="1" width="24" x="4" y="3"/><g filter="url(#g)"><path d="m15.2621 26.7524h-8.77711" stroke="url(#au)" stroke-linecap="round" stroke-width=".3"/></g><g filter="url(#h)"><path d="m13.3094 7.03735-5.60945 2.89235" stroke="url(#av)" stroke-linecap="round" stroke-width=".3"/></g><g filter="url(#i)"><path d="m13.3094 11.0327-5.60945 2.8924" stroke="url(#aw)" stroke-linecap="round" stroke-width=".3"/></g><g filter="url(#j)"><path d="m13.3094 15-5.60945 2.8923" stroke="url(#ax)" stroke-linecap="round" stroke-width=".3"/></g><g filter="url(#k)"><path d="m13.3094 23.0024-5.60945 2.8924" stroke="url(#ay)" stroke-linecap="round" stroke-width=".3"/></g><g filter="url(#l)"><path d="m13.3094 18.9673-5.60945 2.8923" stroke="url(#az)" stroke-linecap="round" stroke-width=".3"/></g><g filter="url(#m)"><path d="m13.5465 10.4412h-5.43407" stroke="url(#aA)" stroke-linecap="round" stroke-width=".3"/></g><g filter="url(#n)"><path d="m13.5465 14.5h-5.43407" stroke="url(#aB)" stroke-linecap="round" stroke-width=".3"/></g><g filter="url(#o)"><path d="m13.5465 18.4004h-5.43407" stroke="url(#aC)" stroke-linecap="round" stroke-width=".3"/></g><g filter="url(#p)"><path d="m13.5465 22.4175h-5.43407" stroke="url(#aD)" stroke-linecap="round" stroke-width=".3"/></g><g filter="url(#q)"><path d="m6.15503 3.81104h20.73457" stroke="url(#aE)" stroke-linecap="round" stroke-width=".3"/></g><g filter="url(#r)"><path d="m22.137 6.39478v3.02322c.3439.03999 1.2116.39829 1.4036 1.1277.2399.9118-.204 1.3916-.5399 1.6316" stroke="url(#aF)" stroke-linecap="round" stroke-width=".2"/></g><g filter="url(#s)"><path d="m22.0469 11.9219-4.9688 7.0937" stroke="url(#aG)" stroke-linecap="round" stroke-width=".3"/></g></svg>