<svg fill="none" height="32" viewBox="0 0 32 32" width="32" xmlns="http://www.w3.org/2000/svg" xmlns:xlink="http://www.w3.org/1999/xlink"><filter id="a" color-interpolation-filters="sRGB" filterUnits="userSpaceOnUse" height="11.01" width="28.15" x="1.84" y="18.024"><feFlood flood-opacity="0" result="BackgroundImageFix"/><feBlend in="SourceGraphic" in2="BackgroundImageFix" mode="normal" result="shape"/><feColorMatrix in="SourceAlpha" result="hardAlpha" type="matrix" values="0 0 0 0 0 0 0 0 0 0 0 0 0 0 0 0 0 0 127 0"/><feOffset dx="-.15"/><feGaussianBlur stdDeviation=".25"/><feComposite in2="hardAlpha" k2="-1" k3="1" operator="arithmetic"/><feColorMatrix type="matrix" values="0 0 0 0 1 0 0 0 0 0.886275 0 0 0 0 0.45098 0 0 0 1 0"/><feBlend in2="shape" mode="normal" result="effect1_innerShadow_18_5055"/></filter><filter id="b" color-interpolation-filters="sRGB" filterUnits="userSpaceOnUse" height="7.568" width="19.717" x="6.78" y="20.84"><feFlood flood-opacity="0" result="BackgroundImageFix"/><feBlend in="SourceGraphic" in2="BackgroundImageFix" mode="normal" result="shape"/><feGaussianBlur result="effect1_foregroundBlur_18_5055" stdDeviation=".5"/></filter><filter id="c" color-interpolation-filters="sRGB" filterUnits="userSpaceOnUse" height="18.35" width="18.15" x="6.96" y="6.624"><feFlood flood-opacity="0" result="BackgroundImageFix"/><feBlend in="SourceGraphic" in2="BackgroundImageFix" mode="normal" result="shape"/><feColorMatrix in="SourceAlpha" result="hardAlpha" type="matrix" values="0 0 0 0 0 0 0 0 0 0 0 0 0 0 0 0 0 0 127 0"/><feOffset dy="-.2"/><feGaussianBlur stdDeviation=".25"/><feComposite in2="hardAlpha" k2="-1" k3="1" operator="arithmetic"/><feColorMatrix type="matrix" values="0 0 0 0 0.498039 0 0 0 0 0.262745 0 0 0 0 0.109804 0 0 0 1 0"/><feBlend in2="shape" mode="normal" result="effect1_innerShadow_18_5055"/></filter><filter id="d" color-interpolation-filters="sRGB" filterUnits="userSpaceOnUse" height="6.333" width="6.325" x="7.014" y="18.41"><feFlood flood-opacity="0" result="BackgroundImageFix"/><feBlend in="SourceGraphic" in2="BackgroundImageFix" mode="normal" result="shape"/><feGaussianBlur result="effect1_foregroundBlur_18_5055" stdDeviation=".125"/></filter><linearGradient id="e" gradientUnits="userSpaceOnUse" x1="27.009" x2="12.019" y1="28.221" y2="19.827"><stop offset="0" stop-color="#ffc250"/><stop offset="1" stop-color="#ffb000"/></linearGradient><radialGradient id="f" cx="0" cy="0" gradientTransform="matrix(-19.2226 0 0 -5.27651 24.2605 24.2738)" gradientUnits="userSpaceOnUse" r="1"><stop offset="0" stop-color="#d7731c"/><stop offset="1" stop-color="#d7731c" stop-opacity="0"/></radialGradient><linearGradient id="g" gradientUnits="userSpaceOnUse" x1="1.99" x2="29.982" y1="19.038" y2="19.038"><stop offset="0" stop-color="#49ade8"/><stop offset="1" stop-color="#6cedfd"/></linearGradient><linearGradient id="h" gradientUnits="userSpaceOnUse" x1="30.199" x2="29.153" y1="19.648" y2="19.648"><stop offset="0" stop-color="#7df8ff"/><stop offset="1" stop-color="#7df8ff" stop-opacity="0"/></linearGradient><linearGradient id="i" gradientUnits="userSpaceOnUse" x1="24.987" x2="7.136" y1="6.984" y2="24.835"><stop offset="0" stop-color="#a66459"/><stop offset=".589" stop-color="#8a3f42"/><stop offset="1" stop-color="#7b4230"/></linearGradient><radialGradient id="j" cx="0" cy="0" gradientTransform="matrix(-.70433997 .59401333 -.3808686 -.45160767 25.0517 6.90913)" gradientUnits="userSpaceOnUse" r="1"><stop offset="0" stop-color="#c18e80"/><stop offset=".993" stop-color="#c18e80" stop-opacity="0"/></radialGradient><linearGradient id="k" gradientUnits="userSpaceOnUse" x1="22.12" x2="13.182" y1="13.472" y2="15.535"><stop offset="0" stop-color="#ff6072"/><stop offset="1" stop-color="#ec3a51"/></linearGradient><radialGradient id="l" cx="0" cy="0" gradientTransform="matrix(11.80594536 -5.05159774 7.96730193 18.62015466 16.1727 18.356)" gradientUnits="userSpaceOnUse" r="1"><stop offset=".768" stop-color="#ea596b" stop-opacity="0"/><stop offset="1" stop-color="#ea596b"/></radialGradient><linearGradient id="m" gradientUnits="userSpaceOnUse" x1="13.079" x2="15.974" y1="16.767" y2="13.872"><stop offset="0" stop-color="#cb3a43"/><stop offset=".481" stop-color="#d92e49"/><stop offset=".671" stop-color="#d92e49" stop-opacity="0"/></linearGradient><linearGradient id="n" gradientUnits="userSpaceOnUse" x1="29.681" x2="22.643" y1="22.386" y2="17.334"><stop offset="0" stop-color="#ee442b"/><stop offset="1" stop-color="#ee442b" stop-opacity="0"/></linearGradient><radialGradient id="o" cx="0" cy="0" gradientTransform="matrix(-6.6250822 -11.74995348 19.60236142 -11.05257615 20.4324 16.5346)" gradientUnits="userSpaceOnUse" r="1"><stop offset="0" stop-color="#ca3e4b" stop-opacity="0"/><stop offset=".611" stop-color="#ca3e4b" stop-opacity="0"/><stop offset="1" stop-color="#ca3e4b"/></radialGradient><linearGradient id="p" gradientUnits="userSpaceOnUse" x1="15.057" x2="23.995" y1="17.285" y2="8.347"><stop offset="0" stop-color="#e5dfea"/><stop offset="1" stop-color="#fefcff"/></linearGradient><linearGradient id="q" gradientUnits="userSpaceOnUse" x1="13.682" x2="16.464" y1="18.097" y2="15.316"><stop offset="0" stop-color="#c9b9c9"/><stop offset=".612" stop-color="#d4c9dc"/><stop offset=".815" stop-color="#d4c9dc" stop-opacity="0"/></linearGradient><linearGradient id="r" gradientUnits="userSpaceOnUse" x1="7.776" x2="13.579" y1="23.764" y2="22.516"><stop offset="0" stop-color="#7f5951"/><stop offset="1" stop-color="#7f5951" stop-opacity="0"/></linearGradient><g filter="url(#a)"><path d="m4.99999 29.0343h21.98001c1.66 0 3.01-1.35 3.01-3.01v-6c0-1.1-.89-2-2-2h-24.00001c-1.1 0-2 .89-2 2v6c0 1.67 1.35 3.01 3.01 3.01z" fill="url(#e)"/></g><g filter="url(#b)"><path d="m7.78003 27.4071c13.70487 0 17.71647-1.8685 17.71647-2.7829s-4.6969-2.7847-17.71647-2.7847z" fill="url(#f)"/></g><path d="m27.99 17.0343h-24.00001c-1.1 0-2 .89-2 2v2h27.99001v-2c0-1.1-.89-2-1.99-2z" fill="url(#g)"/><path d="m27.99 17.0343h-24.00001c-1.1 0-2 .89-2 2v2h27.99001v-2c0-1.1-.89-2-1.99-2z" fill="url(#h)"/><g filter="url(#c)"><path d="m24.24 6.97434-17.13004 17.12996c-.2.2-.2.52 0 .72s.52.2.72 0l17.13004-17.12996c.2-.2.2-.52 0-.72s-.52-.2-.72 0z" fill="url(#i)"/><path d="m24.24 6.97434-17.13004 17.12996c-.2.2-.2.52 0 .72s.52.2.72 0l17.13004-17.12996c.2-.2.2-.52 0-.72s-.52-.2-.72 0z" fill="url(#j)"/></g><path d="m22.81 24.9443c.76.76 1.95.82 2.52.08 3.9-5.1 3.49-12.46-1.21-17.15998-4.7-4.7-12.08-5.12-17.18002-1.22-.74.56-.68 1.75.08 2.51l.76.76 7.57892 7.64298 6.6811 6.617z" fill="url(#k)"/><path d="m22.81 24.9443c.76.76 1.95.82 2.52.08 3.9-5.1 3.49-12.46-1.21-17.15998-4.7-4.7-12.08-5.12-17.18002-1.22-.74.56-.68 1.75.08 2.51l.76.76 7.57892 7.64298 6.6811 6.617z" fill="url(#l)"/><path d="m22.81 24.9443c.76.76 1.95.82 2.52.08 3.9-5.1 3.49-12.46-1.21-17.15998-4.7-4.7-12.08-5.12-17.18002-1.22-.74.56-.68 1.75.08 2.51l.76.76 7.57892 7.64298 6.6811 6.617z" fill="url(#m)"/><path d="m22.81 24.9443c.76.76 1.95.82 2.52.08 3.9-5.1 3.49-12.46-1.21-17.15998-4.7-4.7-12.08-5.12-17.18002-1.22-.74.56-.68 1.75.08 2.51l.76.76 7.57892 7.64298 6.6811 6.617z" fill="url(#n)"/><path d="m22.81 24.9443c.76.76 1.95.82 2.52.08 3.9-5.1 3.49-12.46-1.21-17.15998-4.7-4.7-12.08-5.12-17.18002-1.22-.74.56-.68 1.75.08 2.51l.76.76 7.57892 7.64298 6.6811 6.617z" fill="url(#o)"/><path d="m24.2231 7.99055c3.7854 3.97015 2.8289 11.16175-2.1931 16.18375l-3.5757-3.5783.0057-.0017c4.9591-4.959 7.4785-10.5185 5.7631-12.60375z" fill="url(#p)"/><path d="m24.2231 7.99055c3.7854 3.97015 2.8289 11.16175-2.1931 16.18375l-3.5757-3.5783.0057-.0017c4.9591-4.959 7.4785-10.5185 5.7631-12.60375z" fill="url(#q)"/><path d="m23.9496 7.71733c-3.9707-3.7808-11.1493-2.82327-16.16957 2.19699l3.55087 3.57738c4.9633-4.9618 10.5302-7.49073 12.6187-5.77437z" fill="url(#p)"/><path d="m23.9496 7.71733c-3.9707-3.7808-11.1493-2.82327-16.16957 2.19699l3.55087 3.57738c4.9633-4.9618 10.5302-7.49073 12.6187-5.77437z" fill="url(#q)"/><g filter="url(#d)"><path d="m7.38904 24.3679 5.57456-5.5832" stroke="url(#r)" stroke-linecap="round" stroke-width=".25"/></g></svg>