<svg fill="none" height="32" viewBox="0 0 32 32" width="32" xmlns="http://www.w3.org/2000/svg" xmlns:xlink="http://www.w3.org/1999/xlink"><filter id="a" color-interpolation-filters="sRGB" filterUnits="userSpaceOnUse" height="28.51" width="27.989" x="2.006" y="2.103"><feFlood flood-opacity="0" result="BackgroundImageFix"/><feBlend in="SourceGraphic" in2="BackgroundImageFix" mode="normal" result="shape"/><feColorMatrix in="SourceAlpha" result="hardAlpha" type="matrix" values="0 0 0 0 0 0 0 0 0 0 0 0 0 0 0 0 0 0 127 0"/><feOffset dy=".5"/><feGaussianBlur stdDeviation=".625"/><feComposite in2="hardAlpha" k2="-1" k3="1" operator="arithmetic"/><feColorMatrix type="matrix" values="0 0 0 0 0.752941 0 0 0 0 0.317647 0 0 0 0 0.333333 0 0 0 1 0"/><feBlend in2="shape" mode="normal" result="effect1_innerShadow_18_5074"/></filter><filter id="b" color-interpolation-filters="sRGB" filterUnits="userSpaceOnUse" height="15.01" width="28.239" x="2.006" y="15.103"><feFlood flood-opacity="0" result="BackgroundImageFix"/><feBlend in="SourceGraphic" in2="BackgroundImageFix" mode="normal" result="shape"/><feColorMatrix in="SourceAlpha" result="hardAlpha" type="matrix" values="0 0 0 0 0 0 0 0 0 0 0 0 0 0 0 0 0 0 127 0"/><feOffset dx=".75"/><feGaussianBlur stdDeviation=".125"/><feComposite in2="hardAlpha" k2="-1" k3="1" operator="arithmetic"/><feColorMatrix type="matrix" values="0 0 0 0 0.54902 0 0 0 0 0.294118 0 0 0 0 0.231373 0 0 0 1 0"/><feBlend in2="shape" mode="normal" result="effect1_innerShadow_18_5074"/><feColorMatrix in="SourceAlpha" result="hardAlpha" type="matrix" values="0 0 0 0 0 0 0 0 0 0 0 0 0 0 0 0 0 0 127 0"/><feOffset dx=".25"/><feGaussianBlur stdDeviation=".125"/><feComposite in2="hardAlpha" k2="-1" k3="1" operator="arithmetic"/><feColorMatrix type="matrix" values="0 0 0 0 0.662745 0 0 0 0 0.45098 0 0 0 0 0.396078 0 0 0 1 0"/><feBlend in2="effect1_innerShadow_18_5074" mode="normal" result="effect2_innerShadow_18_5074"/></filter><filter id="c" color-interpolation-filters="sRGB" filterUnits="userSpaceOnUse" height="15.21" width="18.72" x="11.274" y="15.103"><feFlood flood-opacity="0" result="BackgroundImageFix"/><feBlend in="SourceGraphic" in2="BackgroundImageFix" mode="normal" result="shape"/><feColorMatrix in="SourceAlpha" result="hardAlpha" type="matrix" values="0 0 0 0 0 0 0 0 0 0 0 0 0 0 0 0 0 0 127 0"/><feOffset dx="-.2" dy=".2"/><feGaussianBlur stdDeviation=".1"/><feComposite in2="hardAlpha" k2="-1" k3="1" operator="arithmetic"/><feColorMatrix type="matrix" values="0 0 0 0 0.831373 0 0 0 0 0.490196 0 0 0 0 0.352941 0 0 0 1 0"/><feBlend in2="shape" mode="normal" result="effect1_innerShadow_18_5074"/></filter><filter id="d" color-interpolation-filters="sRGB" filterUnits="userSpaceOnUse" height="9.01" width="9.505" x="17.803" y="4.093"><feFlood flood-opacity="0" result="BackgroundImageFix"/><feBlend in="SourceGraphic" in2="BackgroundImageFix" mode="normal" result="shape"/><feColorMatrix in="SourceAlpha" result="hardAlpha" type="matrix" values="0 0 0 0 0 0 0 0 0 0 0 0 0 0 0 0 0 0 127 0"/><feOffset dx=".3"/><feGaussianBlur stdDeviation=".15"/><feComposite in2="hardAlpha" k2="-1" k3="1" operator="arithmetic"/><feColorMatrix type="matrix" values="0 0 0 0 0.968627 0 0 0 0 0.580392 0 0 0 0 0.258824 0 0 0 1 0"/><feBlend in2="shape" mode="normal" result="effect1_innerShadow_18_5074"/><feColorMatrix in="SourceAlpha" result="hardAlpha" type="matrix" values="0 0 0 0 0 0 0 0 0 0 0 0 0 0 0 0 0 0 127 0"/><feOffset dx="-.2"/><feGaussianBlur stdDeviation=".2"/><feComposite in2="hardAlpha" k2="-1" k3="1" operator="arithmetic"/><feColorMatrix type="matrix" values="0 0 0 0 0.960784 0 0 0 0 0.529412 0 0 0 0 0.12549 0 0 0 1 0"/><feBlend in2="effect1_innerShadow_18_5074" mode="normal" result="effect2_innerShadow_18_5074"/></filter><filter id="e" color-interpolation-filters="sRGB" filterUnits="userSpaceOnUse" height="7.23" width="7.33" x="18.706" y="5.103"><feFlood flood-opacity="0" result="BackgroundImageFix"/><feBlend in="SourceGraphic" in2="BackgroundImageFix" mode="normal" result="shape"/><feColorMatrix in="SourceAlpha" result="hardAlpha" type="matrix" values="0 0 0 0 0 0 0 0 0 0 0 0 0 0 0 0 0 0 127 0"/><feOffset dx="-.25" dy=".25"/><feGaussianBlur stdDeviation=".5"/><feComposite in2="hardAlpha" k2="-1" k3="1" operator="arithmetic"/><feColorMatrix type="matrix" values="0 0 0 0 1 0 0 0 0 0.81419 0 0 0 0 0.320833 0 0 0 1 0"/><feBlend in2="shape" mode="normal" result="effect1_innerShadow_18_5074"/></filter><filter id="f" color-interpolation-filters="sRGB" filterUnits="userSpaceOnUse" height="8.481" width="9.891" x="9.464" y="13.794"><feFlood flood-opacity="0" result="BackgroundImageFix"/><feBlend in="SourceGraphic" in2="BackgroundImageFix" mode="normal" result="shape"/><feColorMatrix in="SourceAlpha" result="hardAlpha" type="matrix" values="0 0 0 0 0 0 0 0 0 0 0 0 0 0 0 0 0 0 127 0"/><feOffset dx=".4"/><feGaussianBlur stdDeviation=".2"/><feComposite in2="hardAlpha" k2="-1" k3="1" operator="arithmetic"/><feColorMatrix type="matrix" values="0 0 0 0 0.607843 0 0 0 0 0.831373 0 0 0 0 0.54902 0 0 0 1 0"/><feBlend in2="shape" mode="normal" result="effect1_innerShadow_18_5074"/></filter><filter id="g" color-interpolation-filters="sRGB" filterUnits="userSpaceOnUse" height="6.258" width="3.281" x="16.299" y="13.66"><feFlood flood-opacity="0" result="BackgroundImageFix"/><feBlend in="SourceGraphic" in2="BackgroundImageFix" mode="normal" result="shape"/><feGaussianBlur result="effect1_foregroundBlur_18_5074" stdDeviation=".5"/></filter><filter id="h" color-interpolation-filters="sRGB" filterUnits="userSpaceOnUse" height="5.574" width="4.975" x="12.968" y="15.6"><feFlood flood-opacity="0" result="BackgroundImageFix"/><feBlend in="SourceGraphic" in2="BackgroundImageFix" mode="normal" result="shape"/><feGaussianBlur result="effect1_foregroundBlur_18_5074" stdDeviation=".1"/></filter><filter id="i" color-interpolation-filters="sRGB" filterUnits="userSpaceOnUse" height="4.622" width="4.026" x="13.538" y="16.283"><feFlood flood-opacity="0" result="BackgroundImageFix"/><feBlend in="SourceGraphic" in2="BackgroundImageFix" mode="normal" result="shape"/><feGaussianBlur result="effect1_foregroundBlur_18_5074" stdDeviation=".125"/></filter><filter id="j" color-interpolation-filters="sRGB" filterUnits="userSpaceOnUse" height="19.785" width="5.347" x="5.361" y="11.794"><feFlood flood-opacity="0" result="BackgroundImageFix"/><feBlend in="SourceGraphic" in2="BackgroundImageFix" mode="normal" result="shape"/><feGaussianBlur result="effect1_foregroundBlur_18_5074" stdDeviation="1"/></filter><filter id="k" color-interpolation-filters="sRGB" filterUnits="userSpaceOnUse" height="19.154" width="12.004" x="2.006" y="10.959"><feFlood flood-opacity="0" result="BackgroundImageFix"/><feBlend in="SourceGraphic" in2="BackgroundImageFix" mode="normal" result="shape"/><feColorMatrix in="SourceAlpha" result="hardAlpha" type="matrix" values="0 0 0 0 0 0 0 0 0 0 0 0 0 0 0 0 0 0 127 0"/><feOffset dx=".7"/><feGaussianBlur stdDeviation=".5"/><feComposite in2="hardAlpha" k2="-1" k3="1" operator="arithmetic"/><feColorMatrix type="matrix" values="0 0 0 0 0.670588 0 0 0 0 0.858824 0 0 0 0 0.631373 0 0 0 1 0"/><feBlend in2="shape" mode="normal" result="effect1_innerShadow_18_5074"/></filter><filter id="l" color-interpolation-filters="sRGB" filterUnits="userSpaceOnUse" height="20.171" width="5.14" x="8.963" y="12.11"><feFlood flood-opacity="0" result="BackgroundImageFix"/><feBlend in="SourceGraphic" in2="BackgroundImageFix" mode="normal" result="shape"/><feGaussianBlur result="effect1_foregroundBlur_18_5074" stdDeviation="1"/></filter><filter id="m" color-interpolation-filters="sRGB" filterUnits="userSpaceOnUse" height="6.813" width="6.609" x="5.238" y="10.381"><feFlood flood-opacity="0" result="BackgroundImageFix"/><feBlend in="SourceGraphic" in2="BackgroundImageFix" mode="normal" result="shape"/><feGaussianBlur result="effect1_foregroundBlur_18_5074" stdDeviation="1"/></filter><filter id="n" color-interpolation-filters="sRGB" filterUnits="userSpaceOnUse" height="7.762" width="7.762" x="7.029" y="10.145"><feFlood flood-opacity="0" result="BackgroundImageFix"/><feBlend in="SourceGraphic" in2="BackgroundImageFix" mode="normal" result="shape"/><feGaussianBlur result="effect1_foregroundBlur_18_5074" stdDeviation="1"/></filter><filter id="o" color-interpolation-filters="sRGB" filterUnits="userSpaceOnUse" height="15.418" width=".65" x="11.133" y="14.607"><feFlood flood-opacity="0" result="BackgroundImageFix"/><feBlend in="SourceGraphic" in2="BackgroundImageFix" mode="normal" result="shape"/><feGaussianBlur result="effect1_foregroundBlur_18_5074" stdDeviation=".125"/></filter><filter id="p" color-interpolation-filters="sRGB" filterUnits="userSpaceOnUse" height="23.718" width="14.349" x="-1.994" y="14.395"><feFlood flood-opacity="0" result="BackgroundImageFix"/><feColorMatrix in="SourceAlpha" result="hardAlpha" type="matrix" values="0 0 0 0 0 0 0 0 0 0 0 0 0 0 0 0 0 0 127 0"/><feOffset dy="4"/><feGaussianBlur stdDeviation="2"/><feComposite in2="hardAlpha" operator="out"/><feColorMatrix type="matrix" values="0 0 0 0 0 0 0 0 0 0 0 0 0 0 0 0 0 0 0.25 0"/><feBlend in2="BackgroundImageFix" mode="normal" result="effect1_dropShadow_18_5074"/><feBlend in="SourceGraphic" in2="effect1_dropShadow_18_5074" mode="normal" result="shape"/></filter><filter id="q" color-interpolation-filters="sRGB" filterUnits="userSpaceOnUse" height="15.132" width=".65" x="7.599" y="15.002"><feFlood flood-opacity="0" result="BackgroundImageFix"/><feBlend in="SourceGraphic" in2="BackgroundImageFix" mode="normal" result="shape"/><feGaussianBlur result="effect1_foregroundBlur_18_5074" stdDeviation=".125"/></filter><filter id="r" color-interpolation-filters="sRGB" filterUnits="userSpaceOnUse" height="1.35" width="1.084" x="12.462" y="26.263"><feFlood flood-opacity="0" result="BackgroundImageFix"/><feBlend in="SourceGraphic" in2="BackgroundImageFix" mode="normal" result="shape"/><feGaussianBlur result="effect1_foregroundBlur_18_5074" stdDeviation=".15"/></filter><filter id="s" color-interpolation-filters="sRGB" filterUnits="userSpaceOnUse" height="1.307" width=".969" x="6.141" y="27.629"><feFlood flood-opacity="0" result="BackgroundImageFix"/><feBlend in="SourceGraphic" in2="BackgroundImageFix" mode="normal" result="shape"/><feGaussianBlur result="effect1_foregroundBlur_18_5074" stdDeviation=".15"/></filter><filter id="t" color-interpolation-filters="sRGB" filterUnits="userSpaceOnUse" height="1.316" width="1.225" x="6.514" y="11.926"><feFlood flood-opacity="0" result="BackgroundImageFix"/><feBlend in="SourceGraphic" in2="BackgroundImageFix" mode="normal" result="shape"/><feGaussianBlur result="effect1_foregroundBlur_18_5074" stdDeviation=".15"/></filter><filter id="u" color-interpolation-filters="sRGB" filterUnits="userSpaceOnUse" height="1.321" width=".976" x="6.166" y="15.607"><feFlood flood-opacity="0" result="BackgroundImageFix"/><feBlend in="SourceGraphic" in2="BackgroundImageFix" mode="normal" result="shape"/><feGaussianBlur result="effect1_foregroundBlur_18_5074" stdDeviation=".15"/></filter><filter id="v" color-interpolation-filters="sRGB" filterUnits="userSpaceOnUse" height="2.015" width="1.485" x="6.969" y="20.26"><feFlood flood-opacity="0" result="BackgroundImageFix"/><feBlend in="SourceGraphic" in2="BackgroundImageFix" mode="normal" result="shape"/><feColorMatrix in="SourceAlpha" result="hardAlpha" type="matrix" values="0 0 0 0 0 0 0 0 0 0 0 0 0 0 0 0 0 0 127 0"/><feOffset dx=".1" dy="-.1"/><feGaussianBlur stdDeviation=".125"/><feComposite in2="hardAlpha" k2="-1" k3="1" operator="arithmetic"/><feColorMatrix type="matrix" values="0 0 0 0 0.658297 0 0 0 0 0.716667 0 0 0 0 0.495694 0 0 0 1 0"/><feBlend in2="shape" mode="normal" result="effect1_innerShadow_18_5074"/></filter><filter id="w" color-interpolation-filters="sRGB" filterUnits="userSpaceOnUse" height=".707" width="1.298" x="5.528" y="15.914"><feFlood flood-opacity="0" result="BackgroundImageFix"/><feBlend in="SourceGraphic" in2="BackgroundImageFix" mode="normal" result="shape"/><feColorMatrix in="SourceAlpha" result="hardAlpha" type="matrix" values="0 0 0 0 0 0 0 0 0 0 0 0 0 0 0 0 0 0 127 0"/><feOffset dx=".1"/><feGaussianBlur stdDeviation=".05"/><feComposite in2="hardAlpha" k2="-1" k3="1" operator="arithmetic"/><feColorMatrix type="matrix" values="0 0 0 0 0.772549 0 0 0 0 0.776471 0 0 0 0 0.572549 0 0 0 1 0"/><feBlend in2="shape" mode="normal" result="effect1_innerShadow_18_5074"/></filter><filter id="x" color-interpolation-filters="sRGB" filterUnits="userSpaceOnUse" height="1.258" width="1.208" x="6.227" y="11.574"><feFlood flood-opacity="0" result="BackgroundImageFix"/><feBlend in="SourceGraphic" in2="BackgroundImageFix" mode="normal" result="shape"/><feColorMatrix in="SourceAlpha" result="hardAlpha" type="matrix" values="0 0 0 0 0 0 0 0 0 0 0 0 0 0 0 0 0 0 127 0"/><feOffset dx=".1" dy="-.1"/><feGaussianBlur stdDeviation=".125"/><feComposite in2="hardAlpha" k2="-1" k3="1" operator="arithmetic"/><feColorMatrix type="matrix" values="0 0 0 0 0.658297 0 0 0 0 0.716667 0 0 0 0 0.495694 0 0 0 1 0"/><feBlend in2="shape" mode="normal" result="effect1_innerShadow_18_5074"/></filter><filter id="y" color-interpolation-filters="sRGB" filterUnits="userSpaceOnUse" height="1.311" width="1.315" x="17.095" y="20.249"><feFlood flood-opacity="0" result="BackgroundImageFix"/><feBlend in="SourceGraphic" in2="BackgroundImageFix" mode="normal" result="shape"/><feGaussianBlur result="effect1_foregroundBlur_18_5074" stdDeviation=".125"/></filter><filter id="z" color-interpolation-filters="sRGB" filterUnits="userSpaceOnUse" height="1.359" width="1.367" x="15.409" y="13.641"><feFlood flood-opacity="0" result="BackgroundImageFix"/><feBlend in="SourceGraphic" in2="BackgroundImageFix" mode="normal" result="shape"/><feGaussianBlur result="effect1_foregroundBlur_18_5074" stdDeviation=".125"/></filter><filter id="A" color-interpolation-filters="sRGB" filterUnits="userSpaceOnUse" height="1.247" width="1.247" x="11.64" y="12.072"><feFlood flood-opacity="0" result="BackgroundImageFix"/><feBlend in="SourceGraphic" in2="BackgroundImageFix" mode="normal" result="shape"/><feGaussianBlur result="effect1_foregroundBlur_18_5074" stdDeviation=".15"/></filter><filter id="B" color-interpolation-filters="sRGB" filterUnits="userSpaceOnUse" height="1.581" width="1.572" x="7.022" y="20.303"><feFlood flood-opacity="0" result="BackgroundImageFix"/><feBlend in="SourceGraphic" in2="BackgroundImageFix" mode="normal" result="shape"/><feGaussianBlur result="effect1_foregroundBlur_18_5074" stdDeviation=".125"/></filter><filter id="C" color-interpolation-filters="sRGB" filterUnits="userSpaceOnUse" height="1.078" width="1.087" x="6.368" y="11.62"><feFlood flood-opacity="0" result="BackgroundImageFix"/><feBlend in="SourceGraphic" in2="BackgroundImageFix" mode="normal" result="shape"/><feGaussianBlur result="effect1_foregroundBlur_18_5074" stdDeviation=".1"/></filter><linearGradient id="D" gradientUnits="userSpaceOnUse" x1="16.016" x2="16.016" y1="1.809" y2="18.216"><stop offset="0" stop-color="#e45056"/><stop offset="1" stop-color="#f58137"/></linearGradient><radialGradient id="E" cx="0" cy="0" gradientTransform="matrix(-12.72228756 13.10227501 -18.21004369 -17.68192257 24.1946 18.432)" gradientUnits="userSpaceOnUse" r="1"><stop offset="0" stop-color="#9c5043"/><stop offset="1" stop-color="#723d3e"/></radialGradient><linearGradient id="F" gradientUnits="userSpaceOnUse" x1="20.734" x2="20.734" y1="15.103" y2="30.113"><stop offset="0" stop-color="#b76246"/><stop offset=".595" stop-color="#b45e49"/><stop offset=".921" stop-color="#b45e49" stop-opacity="0"/></linearGradient><radialGradient id="G" cx="0" cy="0" gradientTransform="matrix(0 .861234 -.640919 0 28.6695 19.5254)" gradientUnits="userSpaceOnUse" r="1"><stop offset=".507" stop-color="#8f442e"/><stop offset="1" stop-color="#8f442e" stop-opacity="0"/></radialGradient><radialGradient id="H" cx="0" cy="0" gradientTransform="matrix(0 1.31752 -19.8125 0 21.3069 21.2903)" gradientUnits="userSpaceOnUse" r="1"><stop offset="0" stop-color="#b35f48"/><stop offset="1" stop-color="#b35f48" stop-opacity="0"/></radialGradient><linearGradient id="I" gradientUnits="userSpaceOnUse" x1="20.734" x2="20.734" y1="28.634" y2="22.608"><stop offset="0" stop-color="#6b3a3f"/><stop offset="1" stop-color="#713c3f" stop-opacity="0"/></linearGradient><linearGradient id="J" gradientUnits="userSpaceOnUse" x1="16" x2="16" y1="30.79" y2="28.915"><stop offset="0" stop-color="#5a2141"/><stop offset="1" stop-color="#5a2141" stop-opacity="0"/></linearGradient><linearGradient id="K" gradientUnits="userSpaceOnUse" x1="2.432" x2="8.744" y1="28.728" y2="25.29"><stop offset="0" stop-color="#4f2930"/><stop offset="1" stop-color="#4f2930" stop-opacity="0"/></linearGradient><linearGradient id="L" gradientUnits="userSpaceOnUse" x1="22.506" x2="22.506" y1="5.182" y2="13.597"><stop offset="0" stop-color="#f78d1e"/><stop offset="1" stop-color="#ff8f23"/></linearGradient><linearGradient id="M" gradientUnits="userSpaceOnUse" x1="22.563" x2="22.563" y1="5.106" y2="12.083"><stop offset="0" stop-color="#fbcf1c"/><stop offset="1" stop-color="#ebb91f"/></linearGradient><radialGradient id="N" cx="0" cy="0" gradientTransform="matrix(-5.33387 0 0 -7.49148 24.2896 8.59278)" gradientUnits="userSpaceOnUse" r="1"><stop offset=".837" stop-color="#fbcd38" stop-opacity="0"/><stop offset="1" stop-color="#fbcd38"/></radialGradient><linearGradient id="O" gradientUnits="userSpaceOnUse" x1="13.125" x2="17.763" y1="20.596" y2="13.794"><stop offset="0" stop-color="#3edb81"/><stop offset="1" stop-color="#2ccd71"/></linearGradient><radialGradient id="P" cx="0" cy="0" gradientTransform="matrix(2.60259752 4.5545422 -5.40279823 3.08731561 14.5966 17.099)" gradientUnits="userSpaceOnUse" r="1"><stop offset=".728" stop-color="#5c9e61" stop-opacity="0"/><stop offset="1" stop-color="#5c9e61"/></radialGradient><radialGradient id="Q" cx="0" cy="0" gradientTransform="matrix(1.70057 0 0 1.74474 13.2797 20.6627)" gradientUnits="userSpaceOnUse" r="1"><stop offset="0" stop-color="#5aba57"/><stop offset="1" stop-color="#5aba57" stop-opacity="0"/></radialGradient><radialGradient id="R" cx="0" cy="0" gradientTransform="matrix(-1.01641045 .88143646 -2.11655603 -2.44066337 18.9556 14.1912)" gradientUnits="userSpaceOnUse" r="1"><stop offset="0" stop-color="#91db89"/><stop offset="1" stop-color="#91db89" stop-opacity="0"/></radialGradient><linearGradient id="S" gradientUnits="userSpaceOnUse" x1="17.94" x2="17.94" y1="14.037" y2="20.044"><stop offset="0" stop-color="#91e38b"/><stop offset="1" stop-color="#91e38b" stop-opacity="0"/></linearGradient><linearGradient id="T"><stop offset="0" stop-color="#7ccd79"/><stop offset="1" stop-color="#7ccd79" stop-opacity="0"/></linearGradient><radialGradient id="U" cx="0" cy="0" gradientTransform="matrix(.59595188 1.57501228 -5.68362081 2.15056389 15.4989 18.6673)" gradientUnits="userSpaceOnUse" r="1" xlink:href="#T"/><radialGradient id="V" cx="0" cy="0" gradientTransform="matrix(.62943144 .12146917 -.53893471 2.79266291 16.6477 17.8358)" gradientUnits="userSpaceOnUse" r="1" xlink:href="#T"/><linearGradient id="W"><stop offset="0" stop-color="#47ae4a"/><stop offset="1" stop-color="#47ae4a" stop-opacity="0"/></linearGradient><radialGradient id="X" cx="0" cy="0" gradientTransform="matrix(-.50017265 -.3618252 4.68953474 -6.48262485 16.8504 20.1146)" gradientUnits="userSpaceOnUse" r="1" xlink:href="#W"/><radialGradient id="Y" cx="0" cy="0" gradientTransform="matrix(-.04256806 -.60659121 9.74986215 -.68420501 15.1264 21.0085)" gradientUnits="userSpaceOnUse" r="1" xlink:href="#W"/><radialGradient id="Z" cx="0" cy="0" gradientTransform="matrix(-.7555785 -.04257412 .12363916 -2.19426945 18.1062 17.8479)" gradientUnits="userSpaceOnUse" r="1" xlink:href="#W"/><linearGradient id="aa" gradientUnits="userSpaceOnUse" x1="14.98" x2="17.542" y1="20.861" y2="17.063"><stop offset="0" stop-color="#11875f"/><stop offset="1" stop-color="#38b47d"/></linearGradient><linearGradient id="ab" gradientUnits="userSpaceOnUse" x1="15.234" x2="15.234" y1="20.928" y2="20.718"><stop offset="0" stop-color="#30733e"/><stop offset="1" stop-color="#30733e" stop-opacity="0"/></linearGradient><radialGradient id="ac" cx="0" cy="0" gradientTransform="matrix(.58526246 2.23061815 -.7375069 .1935047 16.5153 16.9856)" gradientUnits="userSpaceOnUse" r="1"><stop offset="0" stop-color="#6cb26e"/><stop offset="1" stop-color="#6cb26e" stop-opacity="0"/></radialGradient><radialGradient id="ad" cx="0" cy="0" gradientTransform="matrix(-1.12635632 -1.20365061 5.07500021 -4.7491012 16.9459 19.5696)" gradientUnits="userSpaceOnUse" r="1"><stop offset="0" stop-color="#5c9f65"/><stop offset="1" stop-color="#5c9f65" stop-opacity="0"/></radialGradient><linearGradient id="ae" gradientUnits="userSpaceOnUse" x1="6.229" x2="6.229" y1="30.747" y2="12.991"><stop offset="0" stop-color="#28ac6b"/><stop offset="1" stop-color="#3ad27e"/></linearGradient><linearGradient id="af" gradientUnits="userSpaceOnUse" x1="10.212" x2="10.252" y1="31.101" y2="29.864"><stop offset="0" stop-color="#518761"/><stop offset="1" stop-color="#518761" stop-opacity="0"/></linearGradient><radialGradient id="ag" cx="0" cy="0" gradientTransform="matrix(-.46221462 .60271825 -.33277352 -.25519849 11.0164 24.643)" gradientUnits="userSpaceOnUse" r="1"><stop offset=".474" stop-color="#278620"/><stop offset="1" stop-color="#278620" stop-opacity="0"/></radialGradient><linearGradient id="ah"><stop offset="0" stop-color="#469747"/><stop offset="1" stop-color="#469747" stop-opacity="0"/></linearGradient><radialGradient id="ai" cx="0" cy="0" gradientTransform="matrix(2.63064201 -3.35697262 8.02004855 6.28479259 .984503 27.6196)" gradientUnits="userSpaceOnUse" r="1" xlink:href="#ah"/><linearGradient id="aj" gradientUnits="userSpaceOnUse" x1="-2.58" x2="1.501" xlink:href="#ah" y1="24.263" y2="24.263"/><radialGradient id="ak" cx="0" cy="0" gradientTransform="matrix(-1.04488233 1.09321589 -1.26747981 -1.21144165 3.60285 22.794)" gradientUnits="userSpaceOnUse" r="1"><stop offset="0" stop-color="#4bad46"/><stop offset="1" stop-color="#4bad46" stop-opacity="0"/></radialGradient><linearGradient id="al" gradientUnits="userSpaceOnUse" x1="1.682" x2="3.619" y1="25.603" y2="25.603"><stop offset="0" stop-color="#3ac87b"/><stop offset="1" stop-color="#5cc253" stop-opacity="0"/></linearGradient><radialGradient id="am" cx="0" cy="0" gradientTransform="matrix(-2.77539137 2.0544313 -1.59168092 -2.15024834 11.6234 13.5292)" gradientUnits="userSpaceOnUse" r="1"><stop offset="0" stop-color="#63ea9c"/><stop offset="1" stop-color="#63ea9c" stop-opacity="0"/></radialGradient><linearGradient id="an" gradientUnits="userSpaceOnUse" x1="10.917" x2="10.917" y1="14.987" y2="30.535"><stop offset="0" stop-color="#3ebf87"/><stop offset="1" stop-color="#29836d"/></linearGradient><linearGradient id="ao" gradientUnits="userSpaceOnUse" x1="11.458" x2="13.247" y1="15.563" y2="15.796"><stop offset="0" stop-color="#75c876"/><stop offset="1" stop-color="#668b74"/></linearGradient><linearGradient id="ap" gradientUnits="userSpaceOnUse" x1="6.545" x2="6.545" y1="19.769" y2="30.601"><stop offset="0" stop-color="#279e65"/><stop offset="1" stop-color="#236d5b"/></linearGradient><linearGradient id="aq" gradientUnits="userSpaceOnUse" x1="8.474" x2="8.222" y1="21.436" y2="21.436"><stop offset="0" stop-color="#5a9b5b"/><stop offset="1" stop-color="#5a9b5b" stop-opacity="0"/></linearGradient><radialGradient id="ar" cx="0" cy="0" gradientTransform="matrix(-.46591645 .76194735 -.65396781 -.39988899 7.62249 21.8112)" gradientUnits="userSpaceOnUse" r="1"><stop offset="0" stop-color="#2b6b33"/><stop offset="1" stop-color="#2b6b33" stop-opacity="0"/></radialGradient><radialGradient id="as" cx="0" cy="0" gradientTransform="matrix(0 5.14588 -2.43471 0 1.08625 17.5929)" gradientUnits="userSpaceOnUse" r="1"><stop offset="0" stop-color="#40a047"/><stop offset="1" stop-color="#40a047" stop-opacity="0"/></radialGradient><radialGradient id="at" cx="0" cy="0" gradientTransform="matrix(-.42598876 3.04336113 -3.67857857 -.51490213 8.22154 14.3949)" gradientUnits="userSpaceOnUse" r="1"><stop offset="0" stop-color="#489e4f"/><stop offset="1" stop-color="#489e4f" stop-opacity="0"/></radialGradient><linearGradient id="au" gradientUnits="userSpaceOnUse" x1="7.924" x2="9.713" y1="15.563" y2="15.796"><stop offset="0" stop-color="#58b159"/><stop offset="1" stop-color="#668b74"/></linearGradient><linearGradient id="av" gradientUnits="userSpaceOnUse" x1="17.059" x2="17.976" y1="20.659" y2="21.575"><stop offset="0" stop-color="#86b372"/><stop offset="1" stop-color="#a5a96d"/></linearGradient><radialGradient id="aw" cx="0" cy="0" gradientTransform="matrix(-.33458506 -.30968818 .31103518 -.33604035 18.256 21.5405)" gradientUnits="userSpaceOnUse" r="1"><stop offset="0" stop-color="#a79c66"/><stop offset="1" stop-color="#a79c66" stop-opacity="0"/></radialGradient><linearGradient id="ax" gradientUnits="userSpaceOnUse" x1="17.426" x2="17.658" y1="21.314" y2="21.071"><stop offset="0" stop-color="#93a880"/><stop offset="1" stop-color="#93a880" stop-opacity="0"/></linearGradient><linearGradient id="ay" gradientUnits="userSpaceOnUse" x1="16.631" x2="15.649" y1="14.909" y2="13.876"><stop offset="0" stop-color="#92bb7c"/><stop offset="1" stop-color="#b3b75e"/></linearGradient><linearGradient id="az" gradientUnits="userSpaceOnUse" x1="15.759" x2="16.023" y1="14.755" y2="14.54"><stop offset="0" stop-color="#a6ba82"/><stop offset="1" stop-color="#a6ba82" stop-opacity="0"/></linearGradient><linearGradient id="aA" gradientUnits="userSpaceOnUse" x1="3.096" x2="2.097" y1="19.545" y2="20.544"><stop offset="0" stop-color="#acb05e"/><stop offset="1" stop-color="#90b779"/></linearGradient><radialGradient id="aB" cx="0" cy="0" gradientTransform="matrix(-.59630386 .59630386 -.28207692 -.28207692 3.06859 19.8015)" gradientUnits="userSpaceOnUse" r="1"><stop offset="0" stop-color="#bec284"/><stop offset="1" stop-color="#bec284" stop-opacity="0"/></radialGradient><linearGradient id="aC" gradientUnits="userSpaceOnUse" x1="5.528" x2="6.737" y1="28.172" y2="28.172"><stop offset="0" stop-color="#989258"/><stop offset="1" stop-color="#a0c784"/><stop offset="1" stop-color="#7f9d72"/></linearGradient><linearGradient id="aD" gradientUnits="userSpaceOnUse" x1="14.009" x2="12.822" y1="26.869" y2="26.869"><stop offset="0" stop-color="#bebd70"/><stop offset="1" stop-color="#a0c784"/></linearGradient><radialGradient id="aE" cx="0" cy="0" gradientTransform="matrix(-.282643 0 0 -.27433 13.8837 26.7513)" gradientUnits="userSpaceOnUse" r="1"><stop offset="0" stop-color="#d2d090"/><stop offset="1" stop-color="#cfcd8d" stop-opacity="0"/></radialGradient><linearGradient id="aF"><stop offset="0" stop-color="#9ab584"/><stop offset="1" stop-color="#b2ac5e"/></linearGradient><linearGradient id="aG" gradientUnits="userSpaceOnUse" x1="11.546" x2="12.567" xlink:href="#aF" y1="25.091" y2="23.368"/><linearGradient id="aH"><stop offset="0" stop-color="#cfcd8d"/><stop offset="1" stop-color="#cfcd8d" stop-opacity="0"/></linearGradient><radialGradient id="aI" cx="0" cy="0" gradientTransform="matrix(-.19349766 .1720007 -.16804704 -.18904986 12.3561 23.6317)" gradientUnits="userSpaceOnUse" r="1" xlink:href="#aH"/><linearGradient id="aJ" gradientUnits="userSpaceOnUse" x1="8.454" x2="7.195" xlink:href="#aF" y1="21.789" y2="20.475"/><linearGradient id="aK"><stop offset="0" stop-color="#9f9652"/><stop offset="1" stop-color="#9f9652" stop-opacity="0"/></linearGradient><linearGradient id="aL" gradientUnits="userSpaceOnUse" x1="6.969" x2="7.482" xlink:href="#aK" y1="20.36" y2="20.906"/><linearGradient id="aM" gradientUnits="userSpaceOnUse" x1="11.182" x2="12.595" y1="17.681" y2="17.681"><stop offset="0" stop-color="#9ebb83"/><stop offset="1" stop-color="#bebc71"/></linearGradient><radialGradient id="aN" cx="0" cy="0" gradientTransform="matrix(-.261674 0 0 -.210182 12.3068 17.5906)" gradientUnits="userSpaceOnUse" r="1" xlink:href="#aH"/><linearGradient id="aO" gradientUnits="userSpaceOnUse" x1="5.528" x2="6.941" y1="16.268" y2="16.268"><stop offset="0" stop-color="#a8a75a"/><stop offset="1" stop-color="#87a972"/></linearGradient><radialGradient id="aP" cx="0" cy="0" gradientTransform="matrix(-.670842 0 0 -.176683 6.79774 16.2678)" gradientUnits="userSpaceOnUse" r="1"><stop offset="0" stop-color="#97b27f"/><stop offset="1" stop-color="#97b27f" stop-opacity="0"/></radialGradient><linearGradient id="aQ" gradientUnits="userSpaceOnUse" x1="7.415" x2="6.691" xlink:href="#aF" y1="12.538" y2="11.539"/><linearGradient id="aR" gradientUnits="userSpaceOnUse" x1="6.227" x2="6.521" xlink:href="#aK" y1="11.674" y2="12.087"/><linearGradient id="aS" gradientUnits="userSpaceOnUse" x1="18.023" x2="17.343" y1="21.209" y2="20.558"><stop offset="0" stop-color="#c5c58f"/><stop offset="1" stop-color="#c5c58f" stop-opacity="0"/></linearGradient><linearGradient id="aT" gradientUnits="userSpaceOnUse" x1="16.405" x2="15.747" y1="14.633" y2="13.988"><stop offset="0" stop-color="#bad39f"/><stop offset="1" stop-color="#c0c682" stop-opacity="0"/></linearGradient><linearGradient id="aU" gradientUnits="userSpaceOnUse" x1="13.207" x2="12.208" y1="11.773" y2="12.773"><stop offset="0" stop-color="#bdbb6b"/><stop offset="1" stop-color="#96c47d"/></linearGradient><linearGradient id="aV" gradientUnits="userSpaceOnUse" x1="12.413" x2="12.612" y1="11.978" y2="12.177"><stop offset="0" stop-color="#b8d18c"/><stop offset="1" stop-color="#afc786" stop-opacity="0"/></linearGradient><radialGradient id="aW" cx="0" cy="0" gradientTransform="matrix(-.2546023 .12060013 -.0961801 -.2030485 13.1941 11.9404)" gradientUnits="userSpaceOnUse" r="1"><stop offset="0" stop-color="#d2d18e"/><stop offset="1" stop-color="#d2d18e" stop-opacity="0"/></radialGradient><radialGradient id="aX" cx="0" cy="0" gradientTransform="matrix(1.10426946 -1.61223174 .66886146 .45812476 5.92525 27.8184)" gradientUnits="userSpaceOnUse" r="1" xlink:href="#ah"/><clipPath id="aY"><path d="m0 0h32v32h-32z"/></clipPath><g clip-path="url(#aY)"><g filter="url(#a)"><path d="m26.8244 2.10278h-21.65878c-1.75 0-3.16 1.41-3.16 3.16v21.69002c0 1.74 1.41 3.16 3.16 3.16h21.66878c1.74 0 3.16-1.41 3.16-3.16v-21.69002c-.01-1.75-1.42-3.16-3.17-3.16z" fill="url(#D)"/></g><g filter="url(#b)"><path d="m29.9944 19.5081c-.053-.2304-.2754-.4053-.5192-.4053-.2796 0-.4834.2041-.4834.4841s-.2077.5198-.4872.5198c-.2796 0-.4954-.2398-.4954-.5198v-1.9733c0-.3125-.2514-.5147-.531-.5147h-.0099c-.2796 0-.4693-.23-.4693-.51v-.9761c0-.28-.248-.51-.5276-.51h-2.1885c-.709 0-1.2881.58-1.2881 1.29v1.2044c0 .28-.2097.51-.4893.51h-.9951c-.2796 0-.5093.23-.5093.51v.9845c0 .28-.2296.51-.5092.51h-3.9777c-.2796 0-.4903.211-.4903.491s-.2296.51-.5092.51h-13.50908v5.8401c0 1.74 1.40792 3.16 3.15534 3.16h21.67804c1.7374 0 3.1554-1.41 3.1554-3.16v-5.11h-.0077l.0077-.87z" fill="url(#E)"/></g><g filter="url(#c)"><path d="m29.9944 19.5088c-.0528-.2308-.2757-.406-.5201-.406-.28 0-.4841.2041-.4841.4841s-.208.5198-.488.5198-.4961-.2398-.4961-.5198v-1.9733c0-.3125-.2518-.5147-.5318-.5147h-.0099c-.28 0-.47-.23-.47-.51v-.9761c0-.28-.2484-.51-.5284-.51h-1.4727v2.97c0 .56.4211 1.02.9811 1.02.5569 0 1.015.455 1.0199 1.0108-.0049.5559-.463 1.0109-1.0199 1.0109h-9.33c-.86 0-1.56.7-1.56 1.56 0 .76.62 1.4283 1.38 1.4283h6.52c1.1 0 2 .9 2 2s-.9 2-2 2h-11.2c-.17 0-.31.14-.31.31v1.7h15.36c1.74 0 3.16-1.41 3.16-3.16v-5.11h-.0078l.0078-.8893z" fill="url(#F)"/></g><path d="m29.9944 19.5088c-.0528-.2308-.2757-.406-.5201-.406-.28 0-.4841.2041-.4841.4841s-.208.5198-.488.5198-.4961-.2398-.4961-.5198v-1.9733c0-.3125-.2518-.5147-.5318-.5147h-.0099c-.28 0-.47-.23-.47-.51v-.9761c0-.28-.2484-.51-.5284-.51h-1.4727v2.97c0 .56.4211 1.02.9811 1.02.5569 0 1.015.455 1.0199 1.0108-.0049.5559-.463 1.0109-1.0199 1.0109h-9.33c-.86 0-1.56.7-1.56 1.56 0 .76.62 1.4283 1.38 1.4283h6.52c1.1 0 2 .9 2 2s-.9 2-2 2h-11.2c-.17 0-.31.14-.31.31v1.7h15.36c1.74 0 3.16-1.41 3.16-3.16v-5.11h-.0078l.0078-.8893z" fill="url(#G)"/><path d="m29.9944 19.5088c-.0528-.2308-.2757-.406-.5201-.406-.28 0-.4841.2041-.4841.4841s-.208.5198-.488.5198-.4961-.2398-.4961-.5198v-1.9733c0-.3125-.2518-.5147-.5318-.5147h-.0099c-.28 0-.47-.23-.47-.51v-.9761c0-.28-.2484-.51-.5284-.51h-1.4727v2.97c0 .56.4211 1.02.9811 1.02.5569 0 1.015.455 1.0199 1.0108-.0049.5559-.463 1.0109-1.0199 1.0109h-9.33c-.86 0-1.56.7-1.56 1.56 0 .76.62 1.4283 1.38 1.4283h6.52c1.1 0 2 .9 2 2s-.9 2-2 2h-11.2c-.17 0-.31.14-.31.31v1.7h15.36c1.74 0 3.16-1.41 3.16-3.16v-5.11h-.0078l.0078-.8893z" fill="url(#H)"/><path d="m29.9944 19.5088c-.0528-.2308-.2757-.406-.5201-.406-.28 0-.4841.2041-.4841.4841s-.208.5198-.488.5198-.4961-.2398-.4961-.5198v-1.9733c0-.3125-.2518-.5147-.5318-.5147h-.0099c-.28 0-.47-.23-.47-.51v-.9761c0-.28-.2484-.51-.5284-.51h-1.4727v2.97c0 .56.4211 1.02.9811 1.02.5569 0 1.015.455 1.0199 1.0108-.0049.5559-.463 1.0109-1.0199 1.0109h-9.33c-.86 0-1.56.7-1.56 1.56 0 .76.62 1.4283 1.38 1.4283h6.52c1.1 0 2 .9 2 2s-.9 2-2 2h-11.2c-.17 0-.31.14-.31.31v1.7h15.36c1.74 0 3.16-1.41 3.16-3.16v-5.11h-.0078l.0078-.8893z" fill="url(#I)"/><path d="m29.9944 19.5081c-.053-.2304-.2754-.4053-.5192-.4053-.2796 0-.4834.2041-.4834.4841s-.2077.5198-.4872.5198c-.2796 0-.4954-.2398-.4954-.5198v-1.9733c0-.3125-.2514-.5147-.531-.5147h-.0099c-.2796 0-.4693-.23-.4693-.51v-.9761c0-.28-.248-.51-.5276-.51h-2.1885c-.709 0-1.2881.58-1.2881 1.29v1.2044c0 .28-.2097.51-.4893.51h-.9951c-.2796 0-.5093.23-.5093.51v.9845c0 .28-.2296.51-.5092.51h-3.9777c-.2796 0-.4903.211-.4903.491s-.2296.51-.5092.51h-13.50908v5.8401c0 1.74 1.40792 3.16 3.15534 3.16h21.67804c1.7374 0 3.1554-1.41 3.1554-3.16v-5.11h-.0077l.0077-.87z" fill="url(#J)"/><path d="m29.9944 19.5081c-.053-.2304-.2754-.4053-.5192-.4053-.2796 0-.4834.2041-.4834.4841s-.2077.5198-.4872.5198c-.2796 0-.4954-.2398-.4954-.5198v-1.9733c0-.3125-.2514-.5147-.531-.5147h-.0099c-.2796 0-.4693-.23-.4693-.51v-.9761c0-.28-.248-.51-.5276-.51h-2.1885c-.709 0-1.2881.58-1.2881 1.29v1.2044c0 .28-.2097.51-.4893.51h-.9951c-.2796 0-.5093.23-.5093.51v.9845c0 .28-.2296.51-.5092.51h-3.9777c-.2796 0-.4903.211-.4903.491s-.2296.51-.5092.51h-13.50908v5.8401c0 1.74 1.40792 3.16 3.15534 3.16h21.67804c1.7374 0 3.1554-1.41 3.1554-3.16v-5.11h-.0077l.0077-.87z" fill="url(#K)"/><g filter="url(#d)"><path d="m21.6357 4.6428c.36-.74 1.42-.73 1.77.01.13.28.47.39.75.24l.17-.09c.66-.35 1.44.21 1.3.94l-.04.19c-.06.3.15.59.46.63l.19.03c.74.1 1.04 1 .49 1.51l-.14.13c-.23.21-.23.56 0 .77l.14.13c.54.51.24 1.41-.5 1.51l-.2.02c-.31.04-.52.32-.46.62l.03.19c.13.73-.65 1.28-1.3.93l-.17-.09c-.27-.15-.61-.04-.75.24-.36.74-1.42.73-1.77-.01-.13-.28-.47-.39-.75-.24l-.17.09c-.66.35-1.44-.21-1.3-.94l.04-.19c.06-.3-.15-.59-.46-.63l-.19-.03c-.74-.1-1.04-1-.49-1.51l.14-.13c.23-.21.23-.56 0-.77l-.14-.13c-.54-.51-.24-1.41.5-1.51l.19-.02c.31-.04.52-.32.46-.62l-.03-.19c-.13-.73.65-1.28 1.3-.93l.17.09c.29.15.63.04.76-.24z" fill="url(#L)"/></g><g filter="url(#e)"><path d="m22.4957 12.0828c1.9551 0 3.54-1.5625 3.54-3.49002 0-1.92747-1.5849-3.49-3.54-3.49s-3.54 1.56253-3.54 3.49c0 1.92752 1.5849 3.49002 3.54 3.49002z" fill="url(#M)"/><path d="m22.4957 12.0828c1.9551 0 3.54-1.5625 3.54-3.49002 0-1.92747-1.5849-3.49-3.54-3.49s-3.54 1.56253-3.54 3.49c0 1.92752 1.5849 3.49002 3.54 3.49002z" fill="url(#N)"/></g><g filter="url(#f)"><path d="m14.2347 22.275h-3.0036c-.9753 0-1.76687-.7916-1.76687-1.7669s.79157-1.7668 1.76687-1.7668h3.0036c.6572 0 1.1873-.53 1.1873-1.1873v-1.993c0-.9753.7915-1.7668 1.7668-1.7668s1.7668.7915 1.7668 1.7668v1.993c0 2.6008-2.1202 4.721-4.7209 4.721z" fill="url(#O)"/><path d="m14.2347 22.275h-3.0036c-.9753 0-1.76687-.7916-1.76687-1.7669s.79157-1.7668 1.76687-1.7668h3.0036c.6572 0 1.1873-.53 1.1873-1.1873v-1.993c0-.9753.7915-1.7668 1.7668-1.7668s1.7668.7915 1.7668 1.7668v1.993c0 2.6008-2.1202 4.721-4.7209 4.721z" fill="url(#P)"/><path d="m14.2347 22.275h-3.0036c-.9753 0-1.76687-.7916-1.76687-1.7669s.79157-1.7668 1.76687-1.7668h3.0036c.6572 0 1.1873-.53 1.1873-1.1873v-1.993c0-.9753.7915-1.7668 1.7668-1.7668s1.7668.7915 1.7668 1.7668v1.993c0 2.6008-2.1202 4.721-4.7209 4.721z" fill="url(#Q)"/><path d="m14.2347 22.275h-3.0036c-.9753 0-1.76687-.7916-1.76687-1.7669s.79157-1.7668 1.76687-1.7668h3.0036c.6572 0 1.1873-.53 1.1873-1.1873v-1.993c0-.9753.7915-1.7668 1.7668-1.7668s1.7668.7915 1.7668 1.7668v1.993c0 2.6008-2.1202 4.721-4.7209 4.721z" fill="url(#R)"/></g><g filter="url(#g)"><path d="m17.2993 15.3004c0-.3537.2868-.6405.6405-.6405.3537 0 .6405.2868.6405.6405v2.3366c0 .7075-.5735 1.281-1.281 1.281z" fill="url(#S)"/></g><g filter="url(#h)" stroke-width=".2"><path d="m13.3901 20.0603h-.1112l.0118.1106.0655.6141.0096.0894h.0899.899c1.8124 0 3.2875-1.475 3.2875-3.2875v-1.2464c0-.2433-.1973-.4405-.4406-.4405s-.4405.1972-.4405.4405v1.2464c0 1.3275-1.1446 2.4734-2.4719 2.4734z" stroke="url(#U)"/><path d="m13.3901 20.0603h-.1112l.0118.1106.0655.6141.0096.0894h.0899.899c1.8124 0 3.2875-1.475 3.2875-3.2875v-1.2464c0-.2433-.1973-.4405-.4406-.4405s-.4405.1972-.4405.4405v1.2464c0 1.3275-1.1446 2.4734-2.4719 2.4734z" stroke="url(#V)"/><path d="m13.3901 20.0603h-.1112l.0118.1106.0655.6141.0096.0894h.0899.899c1.8124 0 3.2875-1.475 3.2875-3.2875v-1.2464c0-.2433-.1973-.4405-.4406-.4405s-.4405.1972-.4405.4405v1.2464c0 1.3275-1.1446 2.4734-2.4719 2.4734z" stroke="url(#X)"/><path d="m13.3901 20.0603h-.1112l.0118.1106.0655.6141.0096.0894h.0899.899c1.8124 0 3.2875-1.475 3.2875-3.2875v-1.2464c0-.2433-.1973-.4405-.4406-.4405s-.4405.1972-.4405.4405v1.2464c0 1.3275-1.1446 2.4734-2.4719 2.4734z" stroke="url(#Y)"/><path d="m13.3901 20.0603h-.1112l.0118.1106.0655.6141.0096.0894h.0899.899c1.8124 0 3.2875-1.475 3.2875-3.2875v-1.2464c0-.2433-.1973-.4405-.4406-.4405s-.4405.1972-.4405.4405v1.2464c0 1.3275-1.1446 2.4734-2.4719 2.4734z" stroke="url(#Z)"/></g><path d="m17.1889 15.9073c-.1952 0-.3534.1583-.3534.3534v1.2933c0 1.4347-1.166 2.6008-2.6007 2.6008h-.9329v.7067h.9329c1.8233 0 3.3075-1.4841 3.3075-3.3075v-1.2933c0-.1951-.1582-.3534-.3534-.3534z" fill="url(#aa)"/><path d="m17.1889 15.9073c-.1952 0-.3534.1583-.3534.3534v1.2933c0 1.4347-1.166 2.6008-2.6007 2.6008h-.9329v.7067h.9329c1.8233 0 3.3075-1.4841 3.3075-3.3075v-1.2933c0-.1951-.1582-.3534-.3534-.3534z" fill="url(#ab)"/><path d="m17.1889 15.9073c-.1952 0-.3534.1583-.3534.3534v1.2933c0 1.4347-1.166 2.6008-2.6007 2.6008h-.9329v.7067h.9329c1.8233 0 3.3075-1.4841 3.3075-3.3075v-1.2933c0-.1951-.1582-.3534-.3534-.3534z" fill="url(#ac)"/><g filter="url(#i)"><path d="m13.7877 20.5303c1.8784 0 3.4012-1.5228 3.4012-3.4012v-.5963" stroke="url(#ad)" stroke-width=".25"/></g><g filter="url(#j)"><path d="m7.36084 13.7942h1.34721v15.7847h-1.34721z" fill="#5db65a"/></g><g clip-rule="evenodd" fill-rule="evenodd" filter="url(#k)"><path d="m9.77599 10.959c-1.95058 0-3.53367 1.5831-3.53367 3.5336v9.1875h-2.37294c-.65726 0-1.1873-.53-1.1873-1.1873v-4.7845c0-.565-.26495-1.0792-.67646-1.4125v10.536c.57173.2458 1.20181.382 1.86376.382h2.37294v2.8693c0 .0099.00022.0198.00065.0297h7.06603c.0004-.0099.0006-.0198.0006-.0297v-15.5905c0-1.9505-1.583-3.5336-3.53361-3.5336z" fill="url(#ae)"/><path d="m9.77599 10.959c-1.95058 0-3.53367 1.5831-3.53367 3.5336v9.1875h-2.37294c-.65726 0-1.1873-.53-1.1873-1.1873v-4.7845c0-.565-.26495-1.0792-.67646-1.4125v10.536c.57173.2458 1.20181.382 1.86376.382h2.37294v2.8693c0 .0099.00022.0198.00065.0297h7.06603c.0004-.0099.0006-.0198.0006-.0297v-15.5905c0-1.9505-1.583-3.5336-3.53361-3.5336z" fill="url(#af)"/><path d="m9.77599 10.959c-1.95058 0-3.53367 1.5831-3.53367 3.5336v9.1875h-2.37294c-.65726 0-1.1873-.53-1.1873-1.1873v-4.7845c0-.565-.26495-1.0792-.67646-1.4125v10.536c.57173.2458 1.20181.382 1.86376.382h2.37294v2.8693c0 .0099.00022.0198.00065.0297h7.06603c.0004-.0099.0006-.0198.0006-.0297v-15.5905c0-1.9505-1.583-3.5336-3.53361-3.5336z" fill="url(#ag)"/><path d="m9.77599 10.959c-1.95058 0-3.53367 1.5831-3.53367 3.5336v9.1875h-2.37294c-.65726 0-1.1873-.53-1.1873-1.1873v-4.7845c0-.565-.26495-1.0792-.67646-1.4125v10.536c.57173.2458 1.20181.382 1.86376.382h2.37294v2.8693c0 .0099.00022.0198.00065.0297h7.06603c.0004-.0099.0006-.0198.0006-.0297v-15.5905c0-1.9505-1.583-3.5336-3.53361-3.5336z" fill="url(#ai)"/><path d="m9.77599 10.959c-1.95058 0-3.53367 1.5831-3.53367 3.5336v9.1875h-2.37294c-.65726 0-1.1873-.53-1.1873-1.1873v-4.7845c0-.565-.26495-1.0792-.67646-1.4125v10.536c.57173.2458 1.20181.382 1.86376.382h2.37294v2.8693c0 .0099.00022.0198.00065.0297h7.06603c.0004-.0099.0006-.0198.0006-.0297v-15.5905c0-1.9505-1.583-3.5336-3.53361-3.5336z" fill="url(#aj)"/><path d="m9.77599 10.959c-1.95058 0-3.53367 1.5831-3.53367 3.5336v9.1875h-2.37294c-.65726 0-1.1873-.53-1.1873-1.1873v-4.7845c0-.565-.26495-1.0792-.67646-1.4125v10.536c.57173.2458 1.20181.382 1.86376.382h2.37294v2.8693c0 .0099.00022.0198.00065.0297h7.06603c.0004-.0099.0006-.0198.0006-.0297v-15.5905c0-1.9505-1.583-3.5336-3.53361-3.5336z" fill="url(#ak)"/></g><path clip-rule="evenodd" d="m9.77599 10.959c-1.95058 0-3.53367 1.5831-3.53367 3.5336v9.1875h-2.37294c-.65726 0-1.1873-.53-1.1873-1.1873v-4.7845c0-.565-.26495-1.0792-.67646-1.4125v10.536c.57173.2458 1.20181.382 1.86376.382h2.37294v2.8693c0 .0099.00022.0198.00065.0297h7.06603c.0004-.0099.0006-.0198.0006-.0297v-15.5905c0-1.9505-1.583-3.5336-3.53361-3.5336z" fill="url(#al)" fill-rule="evenodd"/><g filter="url(#l)"><rect fill="#7bd377" height="16.171" rx=".57" width="1.14" x="10.963" y="14.11"/></g><g filter="url(#m)"><ellipse cx="8.543" cy="13.787" fill="#5db65a" rx="1.173" ry="1.518" transform="matrix(.80517024 .59304374 -.59304374 .80517024 9.840765 -2.379979)"/></g><g filter="url(#n)"><circle cx="10.91" cy="14.026" fill="url(#am)" r="1.881"/></g><path clip-rule="evenodd" d="m11.1816 14.7483c0-.1952.1582-.3534.3534-.3534s.3534.1582.3534.3534v15.3644h-.7068z" fill="url(#an)" fill-rule="evenodd"/><g filter="url(#o)"><path d="m11.4578 14.8566v14.9181" stroke="url(#ao)" stroke-width=".15"/></g><g clip-rule="evenodd" fill-rule="evenodd" filter="url(#p)"><path d="m8.00129 14.3949c-.19516 0-.35337.1582-.35337.3534v10.3536h-3.65354c-.79715 0-1.5114-.3601-1.98876-.9261v.9663c.55394.4182 1.24297.6665 1.98876.6665h3.65354v4.3041h.70673v-15.3644c0-.1952-.1582-.3534-.35336-.3534z" fill="url(#ap)"/><path d="m8.00129 14.3949c-.19516 0-.35337.1582-.35337.3534v10.3536h-3.65354c-.79715 0-1.5114-.3601-1.98876-.9261v.9663c.55394.4182 1.24297.6665 1.98876.6665h3.65354v4.3041h.70673v-15.3644c0-.1952-.1582-.3534-.35336-.3534z" fill="url(#aq)"/><path d="m8.00129 14.3949c-.19516 0-.35337.1582-.35337.3534v10.3536h-3.65354c-.79715 0-1.5114-.3601-1.98876-.9261v.9663c.55394.4182 1.24297.6665 1.98876.6665h3.65354v4.3041h.70673v-15.3644c0-.1952-.1582-.3534-.35336-.3534z" fill="url(#ar)"/><path d="m8.00129 14.3949c-.19516 0-.35337.1582-.35337.3534v10.3536h-3.65354c-.79715 0-1.5114-.3601-1.98876-.9261v.9663c.55394.4182 1.24297.6665 1.98876.6665h3.65354v4.3041h.70673v-15.3644c0-.1952-.1582-.3534-.35336-.3534z" fill="url(#as)"/><path d="m8.00129 14.3949c-.19516 0-.35337.1582-.35337.3534v10.3536h-3.65354c-.79715 0-1.5114-.3601-1.98876-.9261v.9663c.55394.4182 1.24297.6665 1.98876.6665h3.65354v4.3041h.70673v-15.3644c0-.1952-.1582-.3534-.35336-.3534z" fill="url(#at)"/></g><g filter="url(#q)"><path d="m7.92407 15.2518v14.6322" stroke="url(#au)" stroke-width=".15"/></g><g filter="url(#r)"><ellipse cx="13.004" cy="26.938" fill="#3cac34" rx=".242" ry=".375"/></g><g filter="url(#s)"><ellipse cx="6.626" cy="28.282" fill="#488f42" rx=".185" ry=".353"/></g><g filter="url(#t)"><ellipse cx="7.126" cy="12.584" fill="#58b651" rx=".232" ry=".414" transform="matrix(.79304831 .60915875 -.60915875 .79304831 9.140537 -1.736814)"/></g><g filter="url(#u)"><ellipse cx="6.654" cy="16.268" fill="#58b651" rx=".188" ry=".36"/></g><path d="m17.6482 20.4657.5018.5018c.1414.1414.1414.3605 0 .5018-.1413.1414-.3604.1414-.5018 0l-.5017-.5018c-.1414-.1413-.0989-.3041.0424-.4455.1343-.1413.318-.1976.4593-.0563z" fill="url(#av)"/><path d="m17.6482 20.4657.5018.5018c.1414.1414.1414.3605 0 .5018-.1413.1414-.3604.1414-.5018 0l-.5017-.5018c-.1414-.1413-.0989-.3041.0424-.4455.1343-.1413.318-.1976.4593-.0563z" fill="url(#aw)"/><path d="m17.6482 20.4657.5018.5018c.1414.1414.1414.3605 0 .5018-.1413.1414-.3604.1414-.5018 0l-.5017-.5018c-.1414-.1413-.0989-.3041.0424-.4455.1343-.1413.318-.1976.4593-.0563z" fill="url(#ax)"/><path d="m16.0227 14.8967-.5018-.5018c-.1413-.1413-.1413-.3604 0-.5018.1414-.1413.3605-.1413.5018 0l.5018.5018c.1413.1413.1413.3604 0 .5018-.1343.1413-.3604.1413-.5018 0z" fill="url(#ay)"/><path d="m16.0227 14.8967-.5018-.5018c-.1413-.1413-.1413-.3604 0-.5018.1414-.1413.3605-.1413.5018 0l.5018.5018c.1413.1413.1413.3604 0 .5018-.1343.1413-.3604.1413-.5018 0z" fill="url(#az)"/><path d="m2.34267 19.7849.24664-.2379c.14135-.1413.36044-.1413.50178 0 .14135.1414.14135.3605 0 .5018l-.50178.5018c-.14134.1414-.31571.2853-.39299 0s.005-.6243.14635-.7657z" fill="url(#aA)"/><path d="m2.34267 19.7849.24664-.2379c.14135-.1413.36044-.1413.50178 0 .14135.1414.14135.3605 0 .5018l-.50178.5018c-.14134.1414-.31571.2853-.39299 0s.005-.6243.14635-.7657z" fill="url(#aB)"/><path d="m6.52995 28.6356h-.64875c-.19789 0-.35337-.1555-.35337-.3534s.15548-.3534.35337-.3534h.64875c.19789 0 .20705.1555.20705.3534s-.00916.3534-.20705.3534z" fill="url(#aC)"/><path d="m13.1086 26.5154h.5465c.1979 0 .3534.1555.3534.3533 0 .1979-.1555.3534-.3534.3534h-.5465c-.1978 0-.2871-.1555-.2871-.3534 0-.1978.0893-.3533.2871-.3533z" fill="url(#aD)"/><path d="m13.1086 26.5154h.5465c.1979 0 .3534.1555.3534.3533 0 .1979-.1555.3534-.3534.3534h-.5465c-.1978 0-.2871-.1555-.2871-.3534 0-.1978.0893-.3533.2871-.3533z" fill="url(#aE)"/><path d="m12.4608 23.8903-1.2792 1.3074v-1.0177l.7774-.7915c.1414-.1414.3605-.1414.5018 0 .1414.1413.1414.3675 0 .5018z" fill="url(#aG)"/><path d="m12.4608 23.8903-1.2792 1.3074v-1.0177l.7774-.7915c.1414-.1414.3605-.1414.5018 0 .1414.1413.1414.3675 0 .5018z" fill="url(#aI)"/><g filter="url(#v)"><path d="m7.07549 20.9675 1.27918 1.3075v-1.0177l-.7774-.7915c-.14135-.1414-.36043-.1414-.50178 0-.14134.1413-.14134.3604 0 .5017z" fill="url(#aJ)"/><path d="m7.07549 20.9675 1.27918 1.3075v-1.0177l-.7774-.7915c-.14135-.1414-.36043-.1414-.50178 0-.14134.1413-.14134.3604 0 .5017z" fill="url(#aL)"/></g><path d="m12.0843 17.3279h-.8027c-.0552 0-.1.0448-.1.1v.5067c0 .0552.0448.1.1.1h.8027c.1979 0 .3534-.1555.3534-.3534 0-.1978-.1555-.3533-.3534-.3533z" fill="url(#aM)"/><path d="m12.0843 17.3279h-.8027c-.0552 0-.1.0448-.1.1v.5067c0 .0552.0448.1.1.1h.8027c.1979 0 .3534-.1555.3534-.3534 0-.1978-.1555-.3533-.3534-.3533z" fill="url(#aN)"/><g filter="url(#w)"><path d="m6.48026 16.6212h-.59906c-.19789 0-.35337-.1555-.35337-.3534s.15548-.3534.35337-.3534h.59906c.19789 0 .2457.1555.2457.3534s-.04781.3534-.2457.3534z" fill="url(#aO)"/><path d="m6.48026 16.6212h-.59906c-.19789 0-.35337-.1555-.35337-.3534s.15548-.3534.35337-.3534h.59906c.19789 0 .2457.1555.2457.3534s-.04781.3534-.2457.3534z" fill="url(#aP)"/></g><g filter="url(#x)"><path d="m7.25594 12.1848-.42073-.4047c-.14135-.1414-.36044-.1414-.50178 0-.14135.1413-.14135.3604 0 .5018l.47345.4734c.14135.1414.25096.0836.41869-.1398.15746-.2098.12467-.3364.03037-.4307z" fill="url(#aQ)"/><path d="m7.25594 12.1848-.42073-.4047c-.14135-.1414-.36044-.1414-.50178 0-.14135.1413-.14135.3604 0 .5018l.47345.4734c.14135.1414.25096.0836.41869-.1398.15746-.2098.12467-.3364.03037-.4307z" fill="url(#aR)"/></g><g filter="url(#y)"><path d="m17.433 20.5875.6392.6329" stroke="url(#aS)" stroke-width=".25"/></g><g filter="url(#z)"><path d="m16.438 14.6611-.6914-.6814" stroke="url(#aT)" stroke-width=".25"/></g><g filter="url(#A)"><ellipse cx="12.264" cy="12.695" fill="#53c84c" rx=".265" ry=".373" transform="matrix(.70710678 -.70710678 .70710678 .70710678 -5.385061 12.390313)"/></g><path d="m12.1993 12.2748.5017-.5018c.1414-.1413.3605-.1413.5018 0 .1414.1413.1414.3604 0 .5018l-.5018.5018c-.1413.1413-.3604.1413-.5017 0-.1414-.1343-.1414-.3605 0-.5018z" fill="url(#aU)"/><path d="m12.1993 12.2748.5017-.5018c.1414-.1413.3605-.1413.5018 0 .1414.1413.1414.3604 0 .5018l-.5018.5018c-.1413.1413-.3604.1413-.5017 0-.1414-.1343-.1414-.3605 0-.5018z" fill="url(#aV)"/><path d="m12.1993 12.2748.5017-.5018c.1414-.1413.3605-.1413.5018 0 .1414.1413.1414.3604 0 .5018l-.5018.5018c-.1413.1413-.3604.1413-.5017 0-.1414-.1343-.1414-.3605 0-.5018z" fill="url(#aW)"/><g filter="url(#B)"><path d="m7.36084 20.6406.89446.9055" stroke="#b4b987" stroke-width=".25"/></g><path d="m7.65895 26.2062c-.34453.8304-1.05641.9809-1.36929.9773-1.46867 0-2.38153-.635-2.46251-.9773z" fill="url(#aX)"/><g filter="url(#C)"><path d="m6.66797 11.9197.4867.4781" stroke="#aac28f" stroke-linecap="round" stroke-width=".2"/></g></g></svg>