<svg fill="none" height="32" viewBox="0 0 32 32" width="32" xmlns="http://www.w3.org/2000/svg" xmlns:xlink="http://www.w3.org/1999/xlink"><filter id="a" color-interpolation-filters="sRGB" filterUnits="userSpaceOnUse" height="6.4" width="3.55" x="3.745" y="14.86"><feFlood flood-opacity="0" result="BackgroundImageFix"/><feBlend in="SourceGraphic" in2="BackgroundImageFix" mode="normal" result="shape"/><feColorMatrix in="SourceAlpha" result="hardAlpha" type="matrix" values="0 0 0 0 0 0 0 0 0 0 0 0 0 0 0 0 0 0 127 0"/><feOffset dx="-.25" dy=".25"/><feGaussianBlur stdDeviation=".4"/><feComposite in2="hardAlpha" k2="-1" k3="1" operator="arithmetic"/><feColorMatrix type="matrix" values="0 0 0 0 0.0705882 0 0 0 0 0.501961 0 0 0 0 0.878431 0 0 0 1 0"/><feBlend in2="shape" mode="normal" result="effect1_innerShadow_18_6163"/><feColorMatrix in="SourceAlpha" result="hardAlpha" type="matrix" values="0 0 0 0 0 0 0 0 0 0 0 0 0 0 0 0 0 0 127 0"/><feOffset dx=".3" dy="-.15"/><feGaussianBlur stdDeviation=".3"/><feComposite in2="hardAlpha" k2="-1" k3="1" operator="arithmetic"/><feColorMatrix type="matrix" values="0 0 0 0 0.290196 0 0 0 0 0.85098 0 0 0 0 1 0 0 0 1 0"/><feBlend in2="effect1_innerShadow_18_6163" mode="normal" result="effect2_innerShadow_18_6163"/></filter><filter id="b" color-interpolation-filters="sRGB" filterUnits="userSpaceOnUse" height="2.25" width="28.25" x="1.995" y="9.76"><feFlood flood-opacity="0" result="BackgroundImageFix"/><feBlend in="SourceGraphic" in2="BackgroundImageFix" mode="normal" result="shape"/><feColorMatrix in="SourceAlpha" result="hardAlpha" type="matrix" values="0 0 0 0 0 0 0 0 0 0 0 0 0 0 0 0 0 0 127 0"/><feOffset dx=".25" dy="-.25"/><feGaussianBlur stdDeviation=".3"/><feComposite in2="hardAlpha" k2="-1" k3="1" operator="arithmetic"/><feColorMatrix type="matrix" values="0 0 0 0 0.686275 0 0 0 0 0.184314 0 0 0 0 0.231373 0 0 0 1 0"/><feBlend in2="shape" mode="normal" result="effect1_innerShadow_18_6163"/></filter><filter id="c" color-interpolation-filters="sRGB" filterUnits="userSpaceOnUse" height="26.11" width="16.5" x="7.995" y="4"><feFlood flood-opacity="0" result="BackgroundImageFix"/><feBlend in="SourceGraphic" in2="BackgroundImageFix" mode="normal" result="shape"/><feColorMatrix in="SourceAlpha" result="hardAlpha" type="matrix" values="0 0 0 0 0 0 0 0 0 0 0 0 0 0 0 0 0 0 127 0"/><feOffset dx=".5" dy=".1"/><feGaussianBlur stdDeviation=".5"/><feComposite in2="hardAlpha" k2="-1" k3="1" operator="arithmetic"/><feColorMatrix type="matrix" values="0 0 0 0 0.447059 0 0 0 0 0.356863 0 0 0 0 0.407843 0 0 0 1 0"/><feBlend in2="shape" mode="normal" result="effect1_innerShadow_18_6163"/></filter><filter id="d" color-interpolation-filters="sRGB" filterUnits="userSpaceOnUse" height="6.4" width="3.55" x="24.745" y="14.86"><feFlood flood-opacity="0" result="BackgroundImageFix"/><feBlend in="SourceGraphic" in2="BackgroundImageFix" mode="normal" result="shape"/><feColorMatrix in="SourceAlpha" result="hardAlpha" type="matrix" values="0 0 0 0 0 0 0 0 0 0 0 0 0 0 0 0 0 0 127 0"/><feOffset dx="-.25" dy=".25"/><feGaussianBlur stdDeviation=".4"/><feComposite in2="hardAlpha" k2="-1" k3="1" operator="arithmetic"/><feColorMatrix type="matrix" values="0 0 0 0 0.0705882 0 0 0 0 0.501961 0 0 0 0 0.878431 0 0 0 1 0"/><feBlend in2="shape" mode="normal" result="effect1_innerShadow_18_6163"/><feColorMatrix in="SourceAlpha" result="hardAlpha" type="matrix" values="0 0 0 0 0 0 0 0 0 0 0 0 0 0 0 0 0 0 127 0"/><feOffset dx=".3" dy="-.15"/><feGaussianBlur stdDeviation=".3"/><feComposite in2="hardAlpha" k2="-1" k3="1" operator="arithmetic"/><feColorMatrix type="matrix" values="0 0 0 0 0.501961 0 0 0 0 1 0 0 0 0 1 0 0 0 1 0"/><feBlend in2="effect1_innerShadow_18_6163" mode="normal" result="effect2_innerShadow_18_6163"/></filter><filter id="e" color-interpolation-filters="sRGB" filterUnits="userSpaceOnUse" height="2.491" width="8.61" x="11.476" y="5.95"><feFlood flood-opacity="0" result="BackgroundImageFix"/><feBlend in="SourceGraphic" in2="BackgroundImageFix" mode="normal" result="shape"/><feGaussianBlur result="effect1_foregroundBlur_18_6163" stdDeviation=".15"/></filter><filter id="f" color-interpolation-filters="sRGB" filterUnits="userSpaceOnUse" height="2.26" width="8.26" x="11.995" y="5.75"><feFlood flood-opacity="0" result="BackgroundImageFix"/><feBlend in="SourceGraphic" in2="BackgroundImageFix" mode="normal" result="shape"/><feColorMatrix in="SourceAlpha" result="hardAlpha" type="matrix" values="0 0 0 0 0 0 0 0 0 0 0 0 0 0 0 0 0 0 127 0"/><feOffset dx=".25" dy="-.25"/><feGaussianBlur stdDeviation=".2"/><feComposite in2="hardAlpha" k2="-1" k3="1" operator="arithmetic"/><feColorMatrix type="matrix" values="0 0 0 0 0.843137 0 0 0 0 0.188235 0 0 0 0 0.223529 0 0 0 1 0"/><feBlend in2="shape" mode="normal" result="effect1_innerShadow_18_6163"/></filter><filter id="g" color-interpolation-filters="sRGB" filterUnits="userSpaceOnUse" height="4.506" width="8.6" x="11.486" y="8.919"><feFlood flood-opacity="0" result="BackgroundImageFix"/><feBlend in="SourceGraphic" in2="BackgroundImageFix" mode="normal" result="shape"/><feGaussianBlur result="effect1_foregroundBlur_18_6163" stdDeviation=".15"/></filter><filter id="h" color-interpolation-filters="sRGB" filterUnits="userSpaceOnUse" height="4.25" width="8.25" x="11.995" y="8.76"><feFlood flood-opacity="0" result="BackgroundImageFix"/><feBlend in="SourceGraphic" in2="BackgroundImageFix" mode="normal" result="shape"/><feColorMatrix in="SourceAlpha" result="hardAlpha" type="matrix" values="0 0 0 0 0 0 0 0 0 0 0 0 0 0 0 0 0 0 127 0"/><feOffset dx=".25" dy="-.25"/><feGaussianBlur stdDeviation=".2"/><feComposite in2="hardAlpha" k2="-1" k3="1" operator="arithmetic"/><feColorMatrix type="matrix" values="0 0 0 0 0.843137 0 0 0 0 0.188235 0 0 0 0 0.223529 0 0 0 1 0"/><feBlend in2="shape" mode="normal" result="effect1_innerShadow_18_6163"/></filter><filter id="i" color-interpolation-filters="sRGB" filterUnits="userSpaceOnUse" height="4.16" width="4.31" x="5.995" y="23.85"><feFlood flood-opacity="0" result="BackgroundImageFix"/><feBlend in="SourceGraphic" in2="BackgroundImageFix" mode="normal" result="shape"/><feColorMatrix in="SourceAlpha" result="hardAlpha" type="matrix" values="0 0 0 0 0 0 0 0 0 0 0 0 0 0 0 0 0 0 127 0"/><feOffset dx=".3" dy="-.15"/><feGaussianBlur stdDeviation=".15"/><feComposite in2="hardAlpha" k2="-1" k3="1" operator="arithmetic"/><feColorMatrix type="matrix" values="0 0 0 0 0.756863 0 0 0 0 0.219608 0 0 0 0 0.231373 0 0 0 1 0"/><feBlend in2="shape" mode="normal" result="effect1_innerShadow_18_6163"/></filter><filter id="j" color-interpolation-filters="sRGB" filterUnits="userSpaceOnUse" height="6.565" width="6.5" x="12.495" y="23.945"><feFlood flood-opacity="0" result="BackgroundImageFix"/><feBlend in="SourceGraphic" in2="BackgroundImageFix" mode="normal" result="shape"/><feColorMatrix in="SourceAlpha" result="hardAlpha" type="matrix" values="0 0 0 0 0 0 0 0 0 0 0 0 0 0 0 0 0 0 127 0"/><feOffset dx="-.5" dy=".5"/><feGaussianBlur stdDeviation=".5"/><feComposite in2="hardAlpha" k2="-1" k3="1" operator="arithmetic"/><feColorMatrix type="matrix" values="0 0 0 0 0.121569 0 0 0 0 0.0901961 0 0 0 0 0.14902 0 0 0 1 0"/><feBlend in2="shape" mode="normal" result="effect1_innerShadow_18_6163"/></filter><filter id="k" color-interpolation-filters="sRGB" filterUnits="userSpaceOnUse" height="2.25" width="18.25" x="6.995" y="1.75"><feFlood flood-opacity="0" result="BackgroundImageFix"/><feBlend in="SourceGraphic" in2="BackgroundImageFix" mode="normal" result="shape"/><feColorMatrix in="SourceAlpha" result="hardAlpha" type="matrix" values="0 0 0 0 0 0 0 0 0 0 0 0 0 0 0 0 0 0 127 0"/><feOffset dx=".25" dy="-.25"/><feGaussianBlur stdDeviation=".3"/><feComposite in2="hardAlpha" k2="-1" k3="1" operator="arithmetic"/><feColorMatrix type="matrix" values="0 0 0 0 0.686275 0 0 0 0 0.184314 0 0 0 0 0.231373 0 0 0 1 0"/><feBlend in2="shape" mode="normal" result="effect1_innerShadow_18_6163"/></filter><filter id="l" color-interpolation-filters="sRGB" filterUnits="userSpaceOnUse" height="3.402" width="4.529" x="10.819" y="14.847"><feFlood flood-opacity="0" result="BackgroundImageFix"/><feBlend in="SourceGraphic" in2="BackgroundImageFix" mode="normal" result="shape"/><feColorMatrix in="SourceAlpha" result="hardAlpha" type="matrix" values="0 0 0 0 0 0 0 0 0 0 0 0 0 0 0 0 0 0 127 0"/><feOffset dx="-.25" dy=".25"/><feGaussianBlur stdDeviation=".4"/><feComposite in2="hardAlpha" k2="-1" k3="1" operator="arithmetic"/><feColorMatrix type="matrix" values="0 0 0 0 0.0705882 0 0 0 0 0.501961 0 0 0 0 0.878431 0 0 0 1 0"/><feBlend in2="shape" mode="normal" result="effect1_innerShadow_18_6163"/><feColorMatrix in="SourceAlpha" result="hardAlpha" type="matrix" values="0 0 0 0 0 0 0 0 0 0 0 0 0 0 0 0 0 0 127 0"/><feOffset dx=".3" dy="-.15"/><feGaussianBlur stdDeviation=".3"/><feComposite in2="hardAlpha" k2="-1" k3="1" operator="arithmetic"/><feColorMatrix type="matrix" values="0 0 0 0 0.501961 0 0 0 0 1 0 0 0 0 1 0 0 0 1 0"/><feBlend in2="effect1_innerShadow_18_6163" mode="normal" result="effect2_innerShadow_18_6163"/></filter><filter id="m" color-interpolation-filters="sRGB" filterUnits="userSpaceOnUse" height="3.402" width="4.529" x="16.766" y="14.847"><feFlood flood-opacity="0" result="BackgroundImageFix"/><feBlend in="SourceGraphic" in2="BackgroundImageFix" mode="normal" result="shape"/><feColorMatrix in="SourceAlpha" result="hardAlpha" type="matrix" values="0 0 0 0 0 0 0 0 0 0 0 0 0 0 0 0 0 0 127 0"/><feOffset dx="-.25" dy=".25"/><feGaussianBlur stdDeviation=".4"/><feComposite in2="hardAlpha" k2="-1" k3="1" operator="arithmetic"/><feColorMatrix type="matrix" values="0 0 0 0 0.0705882 0 0 0 0 0.501961 0 0 0 0 0.878431 0 0 0 1 0"/><feBlend in2="shape" mode="normal" result="effect1_innerShadow_18_6163"/><feColorMatrix in="SourceAlpha" result="hardAlpha" type="matrix" values="0 0 0 0 0 0 0 0 0 0 0 0 0 0 0 0 0 0 127 0"/><feOffset dx=".3" dy="-.15"/><feGaussianBlur stdDeviation=".3"/><feComposite in2="hardAlpha" k2="-1" k3="1" operator="arithmetic"/><feColorMatrix type="matrix" values="0 0 0 0 0.501961 0 0 0 0 1 0 0 0 0 1 0 0 0 1 0"/><feBlend in2="effect1_innerShadow_18_6163" mode="normal" result="effect2_innerShadow_18_6163"/></filter><filter id="n" color-interpolation-filters="sRGB" filterUnits="userSpaceOnUse" height="3.402" width="4.529" x="10.819" y="18.811"><feFlood flood-opacity="0" result="BackgroundImageFix"/><feBlend in="SourceGraphic" in2="BackgroundImageFix" mode="normal" result="shape"/><feColorMatrix in="SourceAlpha" result="hardAlpha" type="matrix" values="0 0 0 0 0 0 0 0 0 0 0 0 0 0 0 0 0 0 127 0"/><feOffset dx="-.25" dy=".25"/><feGaussianBlur stdDeviation=".4"/><feComposite in2="hardAlpha" k2="-1" k3="1" operator="arithmetic"/><feColorMatrix type="matrix" values="0 0 0 0 0.0705882 0 0 0 0 0.501961 0 0 0 0 0.878431 0 0 0 1 0"/><feBlend in2="shape" mode="normal" result="effect1_innerShadow_18_6163"/><feColorMatrix in="SourceAlpha" result="hardAlpha" type="matrix" values="0 0 0 0 0 0 0 0 0 0 0 0 0 0 0 0 0 0 127 0"/><feOffset dx=".3" dy="-.15"/><feGaussianBlur stdDeviation=".3"/><feComposite in2="hardAlpha" k2="-1" k3="1" operator="arithmetic"/><feColorMatrix type="matrix" values="0 0 0 0 0.501961 0 0 0 0 1 0 0 0 0 1 0 0 0 1 0"/><feBlend in2="effect1_innerShadow_18_6163" mode="normal" result="effect2_innerShadow_18_6163"/></filter><filter id="o" color-interpolation-filters="sRGB" filterUnits="userSpaceOnUse" height="3.402" width="4.529" x="16.766" y="18.811"><feFlood flood-opacity="0" result="BackgroundImageFix"/><feBlend in="SourceGraphic" in2="BackgroundImageFix" mode="normal" result="shape"/><feColorMatrix in="SourceAlpha" result="hardAlpha" type="matrix" values="0 0 0 0 0 0 0 0 0 0 0 0 0 0 0 0 0 0 127 0"/><feOffset dx="-.25" dy=".25"/><feGaussianBlur stdDeviation=".4"/><feComposite in2="hardAlpha" k2="-1" k3="1" operator="arithmetic"/><feColorMatrix type="matrix" values="0 0 0 0 0.0705882 0 0 0 0 0.501961 0 0 0 0 0.878431 0 0 0 1 0"/><feBlend in2="shape" mode="normal" result="effect1_innerShadow_18_6163"/><feColorMatrix in="SourceAlpha" result="hardAlpha" type="matrix" values="0 0 0 0 0 0 0 0 0 0 0 0 0 0 0 0 0 0 127 0"/><feOffset dx=".3" dy="-.15"/><feGaussianBlur stdDeviation=".3"/><feComposite in2="hardAlpha" k2="-1" k3="1" operator="arithmetic"/><feColorMatrix type="matrix" values="0 0 0 0 0.501961 0 0 0 0 1 0 0 0 0 1 0 0 0 1 0"/><feBlend in2="effect1_innerShadow_18_6163" mode="normal" result="effect2_innerShadow_18_6163"/></filter><linearGradient id="p" gradientUnits="userSpaceOnUse" x1="8.354" x2="2.995" y1="20.872" y2="20.872"><stop offset=".069" stop-color="#645768"/><stop offset=".283" stop-color="#978d9b"/></linearGradient><linearGradient id="q" gradientUnits="userSpaceOnUse" x1="2.995" x2="3.71" y1="27.469" y2="27.469"><stop offset="0" stop-color="#79757d"/><stop offset="1" stop-color="#79757d" stop-opacity="0"/></linearGradient><linearGradient id="r" gradientUnits="userSpaceOnUse" x1="4.241" x2="4.241" y1="11.75" y2="12.242"><stop offset=".434" stop-color="#714960"/><stop offset="1" stop-color="#714960" stop-opacity="0"/></linearGradient><radialGradient id="s" cx="0" cy="0" gradientTransform="matrix(-4.46509 0 0 -3.40625 7.46008 27.0937)" gradientUnits="userSpaceOnUse" r="1"><stop offset="0" stop-color="#6b5972"/><stop offset="1" stop-color="#6b5972" stop-opacity="0"/></radialGradient><linearGradient id="t" gradientUnits="userSpaceOnUse" x1="3.773" x2="7.273" y1="18.01" y2="18.01"><stop offset="0" stop-color="#50c5ff"/><stop offset="1" stop-color="#3c99e4"/></linearGradient><linearGradient id="u" gradientUnits="userSpaceOnUse" x1="27.366" x2="21.46" y1="20.51" y2="20.51"><stop offset="0" stop-color="#bfb6c6"/><stop offset="1" stop-color="#a297a0"/></linearGradient><linearGradient id="v" gradientUnits="userSpaceOnUse" x1="23.639" x2="23.639" y1="11.881" y2="12.278"><stop offset="0" stop-color="#875c74"/><stop offset="1" stop-color="#875c74" stop-opacity="0"/></linearGradient><linearGradient id="w" gradientUnits="userSpaceOnUse" x1="28.995" x2="28.361" y1="24.75" y2="24.75"><stop offset="0" stop-color="#dfdbe1"/><stop offset="1" stop-color="#dfdbe1" stop-opacity="0"/></linearGradient><linearGradient id="x"><stop offset="0" stop-color="#ff8946"/><stop offset="1" stop-color="#e23f3c"/></linearGradient><linearGradient id="y" gradientUnits="userSpaceOnUse" x1="15.996" x2="15.996" xlink:href="#x" y1="10.007" y2="12.01"/><radialGradient id="z" cx="0" cy="0" gradientTransform="matrix(-1.68682096 .67488516 -1.26636898 -3.16518701 8.67208 11.01)" gradientUnits="userSpaceOnUse" r="1"><stop offset=".204" stop-color="#a33f2c"/><stop offset="1" stop-color="#a33f2c" stop-opacity="0"/></radialGradient><linearGradient id="A" gradientUnits="userSpaceOnUse" x1="15.995" x2="15.995" y1="1.5" y2="30.01"><stop offset="0" stop-color="#af9faa"/><stop offset="1" stop-color="#bcb1c2"/></linearGradient><linearGradient id="B" gradientUnits="userSpaceOnUse" x1="14.534" x2="14.534" y1="30.803" y2="27.882"><stop offset="0" stop-color="#b8adc0"/><stop offset="1" stop-color="#b8adc0" stop-opacity="0"/></linearGradient><linearGradient id="C" gradientUnits="userSpaceOnUse" x1="23.952" x2="23.089" y1="22.918" y2="22.918"><stop offset="0" stop-color="#d9d4db"/><stop offset="1" stop-color="#d9d4db" stop-opacity="0"/></linearGradient><linearGradient id="D"><stop offset="0" stop-color="#58e6ff"/><stop offset="1" stop-color="#44b8ff"/></linearGradient><linearGradient id="E" gradientUnits="userSpaceOnUse" x1="25.227" x2="27.995" xlink:href="#D" y1="18.01" y2="18.01"/><linearGradient id="F"><stop offset="0" stop-color="#ff534f"/><stop offset="1" stop-color="#ff8949"/></linearGradient><linearGradient id="G" gradientUnits="userSpaceOnUse" x1="11.148" x2="16.585" xlink:href="#F" y1="7.007" y2="7.007"/><linearGradient id="H"><stop offset="0" stop-color="#ffaa58"/><stop offset="1" stop-color="#ffaa58" stop-opacity="0"/></linearGradient><linearGradient id="I" gradientUnits="userSpaceOnUse" x1="20.179" x2="19.335" xlink:href="#H" y1="7.25" y2="7.25"/><linearGradient id="J"><stop offset="0" stop-color="#ff623e"/><stop offset="1" stop-color="#ff623e" stop-opacity="0"/></linearGradient><linearGradient id="K" gradientUnits="userSpaceOnUse" x1="16" x2="16" xlink:href="#J" y1="5.937" y2="6.18"/><linearGradient id="L" gradientUnits="userSpaceOnUse" x1="11.149" x2="16.579" xlink:href="#F" y1="11.015" y2="11.015"/><linearGradient id="M" gradientUnits="userSpaceOnUse" x1="20.169" x2="19.326" xlink:href="#H" y1="11.498" y2="11.498"/><linearGradient id="N" gradientUnits="userSpaceOnUse" x1="15.995" x2="15.995" xlink:href="#J" y1="8.886" y2="9.368"/><linearGradient id="O" gradientUnits="userSpaceOnUse" x1="7.512" x2="8.997" y1="28.361" y2="28.361"><stop offset="0" stop-color="#574167"/><stop offset="1" stop-color="#695e72"/></linearGradient><linearGradient id="P" gradientUnits="userSpaceOnUse" x1="8.995" x2="8.694" y1="29.125" y2="29.125"><stop offset="0" stop-color="#524958"/><stop offset="1" stop-color="#524958" stop-opacity="0"/></linearGradient><radialGradient id="Q" cx="0" cy="0" gradientTransform="matrix(-2.08179593 1.5624885 -.85720676 -1.14210732 7.995 27.0312)" gradientUnits="userSpaceOnUse" r="1"><stop offset=".123" stop-color="#402749"/><stop offset="1" stop-color="#402749" stop-opacity="0"/></radialGradient><linearGradient id="R" gradientUnits="userSpaceOnUse" x1="5.616" x2="9.554" y1="26.007" y2="26.007"><stop offset="0" stop-color="#ee3124"/><stop offset="1" stop-color="#ff8213"/><stop offset="1" stop-color="#ff874b"/></linearGradient><linearGradient id="S" gradientUnits="userSpaceOnUse" x1="10.005" x2="9.179" y1="26.719" y2="26.719"><stop offset="0" stop-color="#ffb462"/><stop offset="1" stop-color="#ffb462" stop-opacity="0"/></linearGradient><radialGradient id="T" cx="0" cy="0" gradientTransform="matrix(1.56776 0 0 .6958 7.42883 25.5073)" gradientUnits="userSpaceOnUse" r="1"><stop offset="0" stop-color="#6a567a"/><stop offset="1" stop-color="#3e2a4e"/></radialGradient><radialGradient id="U" cx="0" cy="0" gradientTransform="matrix(2.73071 0 0 1.34935 6.995 25.51)" gradientUnits="userSpaceOnUse" r="1"><stop offset=".378" stop-color="#1d1624" stop-opacity="0"/><stop offset="1" stop-color="#1d1624"/></radialGradient><linearGradient id="V" gradientUnits="userSpaceOnUse" x1="12.996" x2="18.986" y1="26.975" y2="26.975"><stop offset="0" stop-color="#524163"/><stop offset="1" stop-color="#473d4f"/></linearGradient><linearGradient id="W" gradientUnits="userSpaceOnUse" x1="12.995" x2="14.323" y1="28.714" y2="28.714"><stop offset="0" stop-color="#66507e"/><stop offset="1" stop-color="#66507e" stop-opacity="0"/></linearGradient><linearGradient id="X" gradientUnits="userSpaceOnUse" x1="15.996" x2="15.996" xlink:href="#x" y1="1.997" y2="4"/><linearGradient id="Y" gradientUnits="userSpaceOnUse" x1="15.995" x2="15.995" y1="1.884" y2="3"><stop offset="0" stop-color="#ff9853"/><stop offset="1" stop-color="#ff9853" stop-opacity="0"/></linearGradient><radialGradient id="Z" cx="0" cy="0" gradientTransform="matrix(-1.15307329 .83490057 -.90440915 -1.24907093 24.995 2.1651)" gradientUnits="userSpaceOnUse" r="1"><stop offset="0" stop-color="#ffad6b"/><stop offset="1" stop-color="#ffad6b" stop-opacity="0"/></radialGradient><linearGradient id="aa" gradientUnits="userSpaceOnUse" x1="11.377" x2="15.048" xlink:href="#D" y1="16.497" y2="16.497"/><linearGradient id="ab" gradientUnits="userSpaceOnUse" x1="17.324" x2="20.995" xlink:href="#D" y1="16.497" y2="16.497"/><linearGradient id="ac" gradientUnits="userSpaceOnUse" x1="11.377" x2="15.048" xlink:href="#D" y1="20.462" y2="20.462"/><linearGradient id="ad" gradientUnits="userSpaceOnUse" x1="17.324" x2="20.995" xlink:href="#D" y1="20.462" y2="20.462"/><path d="m20.995 11.01h-18v19h18z" fill="url(#p)"/><path d="m20.995 11.01h-18v19h18z" fill="url(#q)"/><path d="m20.995 11.01h-18v19h18z" fill="url(#r)"/><path d="m20.995 11.01h-18v19h18z" fill="url(#s)"/><g filter="url(#a)"><path d="m6.38499 21.01h-1.78c-.34 0-.60999-.27-.60999-.61v-4.78c0-.34.26999-.61.60999-.61h1.78c.34 0 .61001.27.61001.61v4.78c0 .34-.27001.61-.61001.61z" fill="url(#t)"/></g><path d="m28.995 11.01h-18v19h18z" fill="url(#u)"/><path d="m28.995 11.01h-18v19h18z" fill="url(#v)"/><path d="m28.995 11.01h-18v19h18z" fill="url(#w)"/><g filter="url(#b)"><path d="m1.995 11.01c0-.55.45-1 1-1h26c.55 0 1 .45 1 1s-.45 1-1 1h-26c-.55 0-1-.45-1-1z" fill="url(#y)"/><path d="m1.995 11.01c0-.55.45-1 1-1h26c.55 0 1 .45 1 1s-.45 1-1 1h-26c-.55 0-1-.45-1-1z" fill="url(#z)"/></g><g filter="url(#c)"><path d="m7.995 4v26.01h16v-26.01z" fill="url(#A)"/></g><path d="m7.995 4v26.01h16v-26.01z" fill="url(#B)"/><path d="m7.995 4v26.01h16v-26.01z" fill="url(#C)"/><g filter="url(#d)"><path d="m27.385 21.01h-1.78c-.34 0-.61-.27-.61-.61v-4.78c0-.34.27-.61.61-.61h1.78c.34 0 .61.27.61.61v4.78c0 .34-.27.61-.61.61z" fill="url(#E)"/></g><g filter="url(#e)"><path d="m19.3162 8.14061h-7.08c-.25 0-.46-.18812-.46-.43268v-1.02525c0-.23515.2-.43268.46-.43268h7.09c.25 0 .46.18812.46.43268v1.01585c-.01.24456-.21.44208-.47.44208z" fill="#775461"/></g><g filter="url(#f)"><path d="m19.535 8.00999h-7.08c-.25 0-.46-.19999-.46-.45999v-1.09c0-.25.2-.46.46-.46h7.09c.25 0 .46.2.46.46v1.08c-.01.26-.21.46999-.47.46999z" fill="url(#G)"/><path d="m19.535 8.00999h-7.08c-.25 0-.46-.19999-.46-.45999v-1.09c0-.25.2-.46.46-.46h7.09c.25 0 .46.2.46.46v1.08c-.01.26-.21.46999-.47.46999z" fill="url(#I)"/><path d="m19.535 8.00999h-7.08c-.25 0-.46-.19999-.46-.45999v-1.09c0-.25.2-.46.46-.46h7.09c.25 0 .46.2.46.46v1.08c-.01.26-.21.46999-.47.46999z" fill="url(#K)"/></g><g filter="url(#g)"><path d="m19.7863 9.66798c0-.24415-.2-.44923-.46-.44923h-2.54-2-2.54c-.25 0-.46.19532-.46.44923v1.05472c0 .2441.2.4492.46.4492h2.08c.25 0 .46.1953.46.4492v1.0547c0 .2441.2.4492.46.4492h1.08c.25 0 .46-.1953.46-.4492v-1.0645c0-.2441.2-.4492.46-.4492h2.08c.25 0 .46-.1953.46-.4492z" fill="#775461"/></g><g filter="url(#h)"><path d="m19.995 9.47002c0-.25-.2-.46001-.46-.46001h-2.54-2-2.54c-.25 0-.46.20001-.46.46001v1.07998c0 .25.2.46.46.46h2.08c.25 0 .46.2.46.46v1.08c0 .25.2.46.46.46h1.08c.25 0 .46-.2.46-.46v-1.09c0-.25.2-.46.46-.46h2.08c.25 0 .46-.2.46-.46z" fill="url(#L)"/><path d="m19.995 9.47002c0-.25-.2-.46001-.46-.46001h-2.54-2-2.54c-.25 0-.46.20001-.46.46001v1.07998c0 .25.2.46.46.46h2.08c.25 0 .46.2.46.46v1.08c0 .25.2.46.46.46h1.08c.25 0 .46-.2.46-.46v-1.09c0-.25.2-.46.46-.46h2.08c.25 0 .46-.2.46-.46z" fill="url(#M)"/><path d="m19.995 9.47002c0-.25-.2-.46001-.46-.46001h-2.54-2-2.54c-.25 0-.46.20001-.46.46001v1.07998c0 .25.2.46.46.46h2.08c.25 0 .46.2.46.46v1.08c0 .25.2.46.46.46h1.08c.25 0 .46-.2.46-.46v-1.09c0-.25.2-.46.46-.46h2.08c.25 0 .46-.2.46-.46z" fill="url(#N)"/></g><path d="m8.995 26.72h-2v3.29h2z" fill="url(#O)"/><path d="m8.995 26.72h-2v3.29h2z" fill="url(#P)"/><path d="m8.995 26.72h-2v3.29h2z" fill="url(#Q)"/><g filter="url(#i)"><path d="m9.10499 28.01h-2.21c-.49 0-.89999-.4-.89999-.9v-2.21c0-.49.39999-.9.89999-.9h2.21c.49 0 .90001.4.90001.9v2.21c-.01001.5-.41001.9-.90001.9z" fill="url(#R)"/><path d="m9.10499 28.01h-2.21c-.49 0-.89999-.4-.89999-.9v-2.21c0-.49.39999-.9.89999-.9h2.21c.49 0 .90001.4.90001.9v2.21c-.01001.5-.41001.9-.90001.9z" fill="url(#S)"/></g><path d="m8.495 26.01h-1c-.28 0-.5-.22-.5-.5s.22-.5.5-.5h1c.28 0 .5.22.5.5 0 .27-.22.5-.5.5z" fill="url(#T)"/><path d="m8.495 26.01h-1c-.28 0-.5-.22-.5-.5s.22-.5.5-.5h1c.28 0 .5.22.5.5 0 .27-.22.5-.5.5z" fill="url(#U)"/><g filter="url(#j)"><path d="m18.985 30.01h-5.99v-4.6799c0-.7682.609-1.3848 1.3677-1.3848h3.2546c.7587 0 1.3777.6267 1.3777 1.3949v4.6698z" fill="url(#V)"/><path d="m18.985 30.01h-5.99v-4.6799c0-.7682.609-1.3848 1.3677-1.3848h3.2546c.7587 0 1.3777.6267 1.3777 1.3949v4.6698z" fill="url(#W)"/></g><g filter="url(#k)"><path d="m6.995 3c0-.55.45-1 1-1h16c.55 0 1 .45 1 1s-.45 1-1 1h-16c-.55 0-1-.44-1-1z" fill="url(#X)"/><path d="m6.995 3c0-.55.45-1 1-1h16c.55 0 1 .45 1 1s-.45 1-1 1h-16c-.55 0-1-.44-1-1z" fill="url(#Y)"/><path d="m6.995 3c0-.55.45-1 1-1h16c.55 0 1 .45 1 1s-.45 1-1 1h-16c-.55 0-1-.44-1-1z" fill="url(#Z)"/></g><g filter="url(#l)"><rect fill="url(#aa)" height="3.002" rx=".5" width="3.979" x="11.069" y="14.997"/></g><g filter="url(#m)"><rect fill="url(#ab)" height="3.002" rx=".5" width="3.979" x="17.016" y="14.997"/></g><g filter="url(#n)"><rect fill="url(#ac)" height="3.002" rx=".5" width="3.979" x="11.069" y="18.961"/></g><g filter="url(#o)"><rect fill="url(#ad)" height="3.002" rx=".5" width="3.979" x="17.016" y="18.961"/></g></svg>