<svg fill="none" height="32" viewBox="0 0 32 32" width="32" xmlns="http://www.w3.org/2000/svg" xmlns:xlink="http://www.w3.org/1999/xlink"><filter id="a" color-interpolation-filters="sRGB" filterUnits="userSpaceOnUse" height="14.713" width="10.915" x="3.074" y="10.307"><feFlood flood-opacity="0" result="BackgroundImageFix"/><feBlend in="SourceGraphic" in2="BackgroundImageFix" mode="normal" result="shape"/><feColorMatrix in="SourceAlpha" result="hardAlpha" type="matrix" values="0 0 0 0 0 0 0 0 0 0 0 0 0 0 0 0 0 0 127 0"/><feOffset dx=".2" dy=".2"/><feGaussianBlur stdDeviation=".5"/><feComposite in2="hardAlpha" k2="-1" k3="1" operator="arithmetic"/><feColorMatrix type="matrix" values="0 0 0 0 0.301961 0 0 0 0 0.592157 0 0 0 0 0.392157 0 0 0 1 0"/><feBlend in2="shape" mode="normal" result="effect1_innerShadow_18_6052"/></filter><filter id="b" color-interpolation-filters="sRGB" filterUnits="userSpaceOnUse" height="7.033" width="6.472" x="2.655" y="18.352"><feFlood flood-opacity="0" result="BackgroundImageFix"/><feBlend in="SourceGraphic" in2="BackgroundImageFix" mode="normal" result="shape"/><feGaussianBlur result="effect1_foregroundBlur_18_6052" stdDeviation=".5"/></filter><filter id="c" color-interpolation-filters="sRGB" filterUnits="userSpaceOnUse" height="6.657" width="6.848" x="3.407" y="13.032"><feFlood flood-opacity="0" result="BackgroundImageFix"/><feBlend in="SourceGraphic" in2="BackgroundImageFix" mode="normal" result="shape"/><feGaussianBlur result="effect1_foregroundBlur_18_6052" stdDeviation=".5"/></filter><filter id="d" color-interpolation-filters="sRGB" filterUnits="userSpaceOnUse" height="10.448" width="6.831" x="10.642" y="18.085"><feFlood flood-opacity="0" result="BackgroundImageFix"/><feBlend in="SourceGraphic" in2="BackgroundImageFix" mode="normal" result="shape"/><feGaussianBlur result="effect1_foregroundBlur_18_6052" stdDeviation=".25"/></filter><filter id="e" color-interpolation-filters="sRGB" filterUnits="userSpaceOnUse" height="1.951" width="9.101" x="9.79" y="26.934"><feFlood flood-opacity="0" result="BackgroundImageFix"/><feBlend in="SourceGraphic" in2="BackgroundImageFix" mode="normal" result="shape"/><feGaussianBlur result="effect1_foregroundBlur_18_6052" stdDeviation=".25"/></filter><filter id="f" color-interpolation-filters="sRGB" filterUnits="userSpaceOnUse" height="5.425" width="5.425" x="19.46" y="18.259"><feFlood flood-opacity="0" result="BackgroundImageFix"/><feBlend in="SourceGraphic" in2="BackgroundImageFix" mode="normal" result="shape"/><feColorMatrix in="SourceAlpha" result="hardAlpha" type="matrix" values="0 0 0 0 0 0 0 0 0 0 0 0 0 0 0 0 0 0 127 0"/><feOffset dx="-.5" dy=".5"/><feGaussianBlur stdDeviation=".25"/><feComposite in2="hardAlpha" k2="-1" k3="1" operator="arithmetic"/><feColorMatrix type="matrix" values="0 0 0 0 0.0470588 0 0 0 0 0.47451 0 0 0 0 0.792157 0 0 0 1 0"/><feBlend in2="shape" mode="normal" result="effect1_innerShadow_18_6052"/></filter><filter id="g" color-interpolation-filters="sRGB" filterUnits="userSpaceOnUse" height="8.956" width="6.953" x="11.27" y="18.125"><feFlood flood-opacity="0" result="BackgroundImageFix"/><feBlend in="SourceGraphic" in2="BackgroundImageFix" mode="normal" result="shape"/><feColorMatrix in="SourceAlpha" result="hardAlpha" type="matrix" values="0 0 0 0 0 0 0 0 0 0 0 0 0 0 0 0 0 0 127 0"/><feOffset dx=".25"/><feGaussianBlur stdDeviation=".25"/><feComposite in2="hardAlpha" k2="-1" k3="1" operator="arithmetic"/><feColorMatrix type="matrix" values="0 0 0 0 0.254902 0 0 0 0 0.188235 0 0 0 0 0.141176 0 0 0 1 0"/><feBlend in2="shape" mode="normal" result="effect1_innerShadow_18_6052"/><feColorMatrix in="SourceAlpha" result="hardAlpha" type="matrix" values="0 0 0 0 0 0 0 0 0 0 0 0 0 0 0 0 0 0 127 0"/><feOffset dx="-.2"/><feGaussianBlur stdDeviation=".15"/><feComposite in2="hardAlpha" k2="-1" k3="1" operator="arithmetic"/><feColorMatrix type="matrix" values="0 0 0 0 0.694118 0 0 0 0 0.470588 0 0 0 0 0.407843 0 0 0 1 0"/><feBlend in2="effect1_innerShadow_18_6052" mode="normal" result="effect2_innerShadow_18_6052"/></filter><filter id="h" color-interpolation-filters="sRGB" filterUnits="userSpaceOnUse" height="1.237" width="1.237" x="15.726" y="22.142"><feFlood flood-opacity="0" result="BackgroundImageFix"/><feBlend in="SourceGraphic" in2="BackgroundImageFix" mode="normal" result="shape"/><feGaussianBlur result="effect1_foregroundBlur_18_6052" stdDeviation=".075"/></filter><filter id="i" color-interpolation-filters="sRGB" filterUnits="userSpaceOnUse" height=".946" width="1.146" x="15.892" y="22.212"><feFlood flood-opacity="0" result="BackgroundImageFix"/><feBlend in="SourceGraphic" in2="BackgroundImageFix" mode="normal" result="shape"/><feColorMatrix in="SourceAlpha" result="hardAlpha" type="matrix" values="0 0 0 0 0 0 0 0 0 0 0 0 0 0 0 0 0 0 127 0"/><feOffset dx="-.1"/><feGaussianBlur stdDeviation=".1"/><feComposite in2="hardAlpha" k2="-1" k3="1" operator="arithmetic"/><feColorMatrix type="matrix" values="0 0 0 0 0.694118 0 0 0 0 0.482353 0 0 0 0 0.419608 0 0 0 1 0"/><feBlend in2="shape" mode="normal" result="effect1_innerShadow_18_6052"/><feColorMatrix in="SourceAlpha" result="hardAlpha" type="matrix" values="0 0 0 0 0 0 0 0 0 0 0 0 0 0 0 0 0 0 127 0"/><feOffset dx=".1"/><feGaussianBlur stdDeviation=".1"/><feComposite in2="hardAlpha" k2="-1" k3="1" operator="arithmetic"/><feColorMatrix type="matrix" values="0 0 0 0 0.290196 0 0 0 0 0.184314 0 0 0 0 0.164706 0 0 0 1 0"/><feBlend in2="effect1_innerShadow_18_6052" mode="normal" result="effect2_innerShadow_18_6052"/></filter><filter id="j" color-interpolation-filters="sRGB" filterUnits="userSpaceOnUse" height="2.016" width="28.348" x="2.076" y="28.033"><feFlood flood-opacity="0" result="BackgroundImageFix"/><feBlend in="SourceGraphic" in2="BackgroundImageFix" mode="normal" result="shape"/><feColorMatrix in="SourceAlpha" result="hardAlpha" type="matrix" values="0 0 0 0 0 0 0 0 0 0 0 0 0 0 0 0 0 0 127 0"/><feOffset dx=".5"/><feGaussianBlur stdDeviation=".5"/><feComposite in2="hardAlpha" k2="-1" k3="1" operator="arithmetic"/><feColorMatrix type="matrix" values="0 0 0 0 0.25098 0 0 0 0 0.545098 0 0 0 0 0.352941 0 0 0 1 0"/><feBlend in2="shape" mode="normal" result="effect1_innerShadow_18_6052"/></filter><filter id="k" color-interpolation-filters="sRGB" filterUnits="userSpaceOnUse" height="6.152" width="8.172" x="19.96" y="24.096"><feFlood flood-opacity="0" result="BackgroundImageFix"/><feBlend in="SourceGraphic" in2="BackgroundImageFix" mode="normal" result="shape"/><feColorMatrix in="SourceAlpha" result="hardAlpha" type="matrix" values="0 0 0 0 0 0 0 0 0 0 0 0 0 0 0 0 0 0 127 0"/><feOffset dx=".2" dy=".2"/><feGaussianBlur stdDeviation=".3"/><feComposite in2="hardAlpha" k2="-1" k3="1" operator="arithmetic"/><feColorMatrix type="matrix" values="0 0 0 0 0.309804 0 0 0 0 0.564706 0 0 0 0 0.329412 0 0 0 1 0"/><feBlend in2="shape" mode="normal" result="effect1_innerShadow_18_6052"/></filter><filter id="l" color-interpolation-filters="sRGB" filterUnits="userSpaceOnUse" height="12.066" width="12.23" x="17.291" y="6.065"><feFlood flood-opacity="0" result="BackgroundImageFix"/><feBlend in="SourceGraphic" in2="BackgroundImageFix" mode="normal" result="shape"/><feGaussianBlur result="effect1_foregroundBlur_18_6052" stdDeviation=".3"/></filter><filter id="m" color-interpolation-filters="sRGB" filterUnits="userSpaceOnUse" height="12.066" width="12.23" x="6.561" y="6.065"><feFlood flood-opacity="0" result="BackgroundImageFix"/><feBlend in="SourceGraphic" in2="BackgroundImageFix" mode="normal" result="shape"/><feGaussianBlur result="effect1_foregroundBlur_18_6052" stdDeviation=".3"/></filter><filter id="n" color-interpolation-filters="sRGB" filterUnits="userSpaceOnUse" height="4.063" width="3.828" x="20.179" y="26.204"><feFlood flood-opacity="0" result="BackgroundImageFix"/><feBlend in="SourceGraphic" in2="BackgroundImageFix" mode="normal" result="shape"/><feGaussianBlur result="effect1_foregroundBlur_18_6052" stdDeviation=".375"/></filter><linearGradient id="o" gradientUnits="userSpaceOnUse" x1="8.432" x2="8.432" y1="10.307" y2="24.821"><stop offset="0" stop-color="#29884d"/><stop offset="1" stop-color="#227341"/></linearGradient><linearGradient id="p" gradientUnits="userSpaceOnUse" x1="6.242" x2="6.242" y1="24.977" y2="24.211"><stop offset="0" stop-color="#4e7978"/><stop offset="1" stop-color="#4e7978" stop-opacity="0"/></linearGradient><radialGradient id="q" cx="0" cy="0" gradientTransform="matrix(0 2.81682 -2.62539 0 10.2038 9.56962)" gradientUnits="userSpaceOnUse" r="1"><stop offset=".097" stop-color="#4db56f"/><stop offset="1" stop-color="#4db56f" stop-opacity="0"/></radialGradient><radialGradient id="r" cx="0" cy="0" gradientTransform="matrix(3.98288763 -.73880297 1.23623283 6.6645326 5.01687 22.2745)" gradientUnits="userSpaceOnUse" r="1"><stop offset="0" stop-color="#279d5a"/><stop offset="1" stop-color="#279d5a" stop-opacity="0"/></radialGradient><radialGradient id="s" cx="0" cy="0" gradientTransform="matrix(3.01152548 -.52625235 .88784298 5.08075978 5.31194 16.4359)" gradientUnits="userSpaceOnUse" r="1"><stop offset="0" stop-color="#2ea75b"/><stop offset="1" stop-color="#2ea75b" stop-opacity="0"/></radialGradient><radialGradient id="t" cx="0" cy="0" gradientTransform="matrix(0 3.83317 -1.9031 0 12.6201 7.76485)" gradientUnits="userSpaceOnUse" r="1"><stop offset="0" stop-color="#ffd1a3"/><stop offset="1" stop-color="#dfa276"/></radialGradient><linearGradient id="u" gradientUnits="userSpaceOnUse" x1="9.833" x2="11.082" y1="10.616" y2="10.616"><stop offset="0" stop-color="#8e694b"/><stop offset="1" stop-color="#8e694b" stop-opacity="0"/></linearGradient><linearGradient id="v" gradientUnits="userSpaceOnUse" x1="12.278" x2="11.732" y1="11.598" y2="10.954"><stop offset="0" stop-color="#c77958"/><stop offset="1" stop-color="#c77958" stop-opacity="0"/></linearGradient><linearGradient id="w" gradientUnits="userSpaceOnUse" x1="11.531" x2="11.531" y1="7.235" y2="7.375"><stop offset="0" stop-color="#d5ad80"/><stop offset="1" stop-color="#d5ad80" stop-opacity="0"/></linearGradient><radialGradient id="x" cx="0" cy="0" gradientTransform="matrix(-2.06764 0 0 -.444447 13.3737 7.43634)" gradientUnits="userSpaceOnUse" r="1"><stop offset="0" stop-color="#ffe9b1"/><stop offset="1" stop-color="#ffe9b1" stop-opacity="0"/></radialGradient><linearGradient id="y" gradientUnits="userSpaceOnUse" x1="9.492" x2="26.43" y1="20.993" y2="20.993"><stop offset="0" stop-color="#d7905f"/><stop offset="1" stop-color="#e8bc97"/></linearGradient><linearGradient id="z" gradientUnits="userSpaceOnUse" x1="9.969" x2="16.606" y1="28.505" y2="18.939"><stop offset="0" stop-color="#ba8951"/><stop offset="1" stop-color="#ba8951" stop-opacity="0"/></linearGradient><radialGradient id="A" cx="0" cy="0" gradientTransform="matrix(-1.45381154 -2.82456591 3.41661555 -1.75854106 21.3529 27.3774)" gradientUnits="userSpaceOnUse" r="1"><stop offset="0" stop-color="#beab75"/><stop offset="1" stop-color="#beab75" stop-opacity="0"/></radialGradient><linearGradient id="B" gradientUnits="userSpaceOnUse" x1="26.929" x2="26.348" y1="23.764" y2="23.764"><stop offset="0" stop-color="#ffe6b1"/><stop offset="1" stop-color="#ffe6b1" stop-opacity="0"/></linearGradient><radialGradient id="C" cx="0" cy="0" gradientTransform="matrix(0 3.96174 -.838059 0 27.143 16.07)" gradientUnits="userSpaceOnUse" r="1"><stop offset=".35" stop-color="#9e413e"/><stop offset="1" stop-color="#9e413e" stop-opacity="0"/></radialGradient><linearGradient id="D" gradientUnits="userSpaceOnUse" x1="20.927" x2="20.537" y1="11.209" y2="11.599"><stop offset="0" stop-color="#b55852"/><stop offset="1" stop-color="#b55852" stop-opacity="0"/></linearGradient><linearGradient id="E" gradientUnits="userSpaceOnUse" x1="8.723" x2="9.341" y1="25.702" y2="25.702"><stop offset="0" stop-color="#845f3d"/><stop offset="1" stop-color="#845f3d" stop-opacity="0"/></linearGradient><linearGradient id="F" gradientUnits="userSpaceOnUse" x1="14.057" x2="14.057" y1="18.585" y2="28.032"><stop offset="0" stop-color="#805139"/><stop offset="1" stop-color="#6d4d2f"/></linearGradient><linearGradient id="G" gradientUnits="userSpaceOnUse" x1="19.96" x2="25.275" y1="23.556" y2="18.259"><stop offset="0" stop-color="#4cccff"/><stop offset="1" stop-color="#3a9ee6"/></linearGradient><linearGradient id="H" gradientUnits="userSpaceOnUse" x1="22.423" x2="22.423" y1="23.493" y2="22.524"><stop offset="0" stop-color="#1e9fe4"/><stop offset="1" stop-color="#1e9fe4" stop-opacity="0"/></linearGradient><linearGradient id="I" gradientUnits="userSpaceOnUse" x1="19.96" x2="20.949" y1="21.932" y2="21.932"><stop offset="0" stop-color="#48e0ff"/><stop offset="1" stop-color="#48e0ff" stop-opacity="0"/></linearGradient><linearGradient id="J" gradientUnits="userSpaceOnUse" x1="20.705" x2="21.368" y1="17.397" y2="19.385"><stop offset="0" stop-color="#43b3f2"/><stop offset="1" stop-color="#43b3f2" stop-opacity="0"/></linearGradient><linearGradient id="K" gradientUnits="userSpaceOnUse" x1="11.47" x2="17.973" y1="23.743" y2="23.701"><stop offset="0" stop-color="#70504d"/><stop offset="1" stop-color="#9b665e"/></linearGradient><linearGradient id="L" gradientUnits="userSpaceOnUse" x1="17.855" x2="17.855" y1="6.012" y2="18.585"><stop offset="0" stop-color="#ea6d2e"/><stop offset="1" stop-color="#ca222b"/></linearGradient><linearGradient id="M" gradientUnits="userSpaceOnUse" x1="10.851" x2="18.438" y1="28.033" y2="28.033"><stop offset="0" stop-color="#9fa1a3"/><stop offset="1" stop-color="#c4c1c7"/></linearGradient><linearGradient id="N" gradientUnits="userSpaceOnUse" x1="10.497" x2="11.463" y1="28.033" y2="28.033"><stop offset="0" stop-color="#59675c"/><stop offset="1" stop-color="#59675c" stop-opacity="0"/></linearGradient><linearGradient id="O" gradientUnits="userSpaceOnUse" x1="18.733" x2="17.836" y1="27.557" y2="28.033"><stop offset="0" stop-color="#c8cac6"/><stop offset="1" stop-color="#c8cac6" stop-opacity="0"/></linearGradient><linearGradient id="P" gradientUnits="userSpaceOnUse" x1="16" x2="16" y1="30.583" y2="29.04"><stop offset=".107" stop-color="#3fd17b"/><stop offset="1" stop-color="#3fd17b" stop-opacity="0"/></linearGradient><radialGradient id="Q" cx="0" cy="0" gradientTransform="matrix(-1.18750938 1.51470461 -1.91084578 -1.49807907 20.7737 29.0404)" gradientUnits="userSpaceOnUse" r="1"><stop offset=".171" stop-color="#228051"/><stop offset="1" stop-color="#228051" stop-opacity="0"/></radialGradient><radialGradient id="R" cx="0" cy="0" gradientTransform="matrix(-2.80673327 1.81249296 -2.97203949 -4.60234733 29.9242 27.7426)" gradientUnits="userSpaceOnUse" r="1"><stop offset="0" stop-color="#5cee92"/><stop offset="1" stop-color="#5cee92" stop-opacity="0"/></radialGradient><linearGradient id="S" gradientUnits="userSpaceOnUse" x1="23.04" x2="23.04" y1="30.654" y2="28.592"><stop offset="0" stop-color="#3b8478"/><stop offset="1" stop-color="#3b8478" stop-opacity="0"/></linearGradient><radialGradient id="T" cx="0" cy="0" gradientTransform="matrix(-2.36256038 -6.37690934 2.90477298 -1.07617988 25.0278 33.0215)" gradientUnits="userSpaceOnUse" r="1"><stop offset="0" stop-color="#2c785b"/><stop offset="1" stop-color="#2c785b" stop-opacity="0"/></radialGradient><radialGradient id="U" cx="0" cy="0" gradientTransform="matrix(-5.97354321 4.64826754 -6.29159718 -8.08540543 26.0458 26.1836)" gradientUnits="userSpaceOnUse" r="1"><stop offset=".641" stop-color="#2c785b" stop-opacity="0"/><stop offset=".966" stop-color="#2c785b"/></radialGradient><radialGradient id="V" cx="0" cy="0" gradientTransform="matrix(-3.69357919 2.22951643 -2.12244636 -3.51619911 27.64 25.5689)" gradientUnits="userSpaceOnUse" r="1"><stop offset="0" stop-color="#60fb9a"/><stop offset="1" stop-color="#60fb9a" stop-opacity="0"/></radialGradient><linearGradient id="W"><stop offset="0" stop-color="#ff8337"/><stop offset="1" stop-color="#f24747"/></linearGradient><linearGradient id="X" gradientUnits="userSpaceOnUse" x1="17.712" x2="29.221" xlink:href="#W" y1="6.651" y2="18.501"/><linearGradient id="Y" gradientUnits="userSpaceOnUse" x1="18.371" x2="6.862" xlink:href="#W" y1="6.651" y2="18.501"/><g filter="url(#a)"><path d="m12.0081 16.5578c1.0586-.5528 1.7812-1.661 1.7812-2.938 0-1.8295-1.4831-3.3125-3.3125-3.3125-1.56438 0-2.87548 1.0844-3.22256 2.5426-.09323.3916-.41185.7123-.80272.8088-1.43289.3541-2.49531 1.6482-2.49531 3.1904 0 .5225.12191 1.0164.33883 1.455.16258.3287.0821.75-.18842.9977-.63435.5806-1.03216 1.4154-1.03216 2.3432 0 1.7539 1.42185 3.1757 3.17578 3.1757h5.75786z" fill="url(#o)"/><path d="m12.0081 16.5578c1.0586-.5528 1.7812-1.661 1.7812-2.938 0-1.8295-1.4831-3.3125-3.3125-3.3125-1.56438 0-2.87548 1.0844-3.22256 2.5426-.09323.3916-.41185.7123-.80272.8088-1.43289.3541-2.49531 1.6482-2.49531 3.1904 0 .5225.12191 1.0164.33883 1.455.16258.3287.0821.75-.18842.9977-.63435.5806-1.03216 1.4154-1.03216 2.3432 0 1.7539 1.42185 3.1757 3.17578 3.1757h5.75786z" fill="url(#p)"/><path d="m12.0081 16.5578c1.0586-.5528 1.7812-1.661 1.7812-2.938 0-1.8295-1.4831-3.3125-3.3125-3.3125-1.56438 0-2.87548 1.0844-3.22256 2.5426-.09323.3916-.41185.7123-.80272.8088-1.43289.3541-2.49531 1.6482-2.49531 3.1904 0 .5225.12191 1.0164.33883 1.455.16258.3287.0821.75-.18842.9977-.63435.5806-1.03216 1.4154-1.03216 2.3432 0 1.7539 1.42185 3.1757 3.17578 3.1757h5.75786z" fill="url(#q)"/></g><g filter="url(#b)"><ellipse cx="5.891" cy="21.869" fill="url(#r)" rx="2.126" ry="2.609" transform="matrix(.88945387 -.45702497 .45702497 .88945387 -9.343346 5.109706)"/></g><g filter="url(#c)"><ellipse cx="6.831" cy="16.36" fill="url(#s)" rx="2.112" ry="2.614" transform="matrix(.63585059 .77181217 -.77181217 .63585059 15.114736 .68502)"/></g><path d="m10.0393 7.63162c0-.1933.1567-.35.35-.35h2.2844c.1933 0 .35.1567.35.35v8.28278h-2.9844z" fill="url(#t)"/><path d="m10.0393 7.63162c0-.1933.1567-.35.35-.35h2.2844c.1933 0 .35.1567.35.35v8.28278h-2.9844z" fill="url(#u)"/><path d="m10.0393 7.63162c0-.1933.1567-.35.35-.35h2.2844c.1933 0 .35.1567.35.35v8.28278h-2.9844z" fill="url(#v)"/><path d="m10.0393 7.63162c0-.1933.1567-.35.35-.35h2.2844c.1933 0 .35.1567.35.35v8.28278h-2.9844z" fill="url(#w)"/><path d="m10.0393 7.63162c0-.1933.1567-.35.35-.35h2.2844c.1933 0 .35.1567.35.35v8.28278h-2.9844z" fill="url(#x)"/><path d="m26.9292 28.0326h-18.09485v-11.2888l9.04745-9.03103 9.0474 9.03103z" fill="url(#y)"/><path d="m26.9292 28.0326h-18.09485v-11.2888l9.04745-9.03103 9.0474 9.03103z" fill="url(#z)"/><path d="m26.9292 28.0326h-18.09485v-11.2888l9.04745-9.03103 9.0474 9.03103z" fill="url(#A)"/><path d="m26.9292 28.0326h-18.09485v-11.2888l9.04745-9.03103 9.0474 9.03103z" fill="url(#B)"/><path d="m26.9292 28.0326h-18.09485v-11.2888l9.04745-9.03103 9.0474 9.03103z" fill="url(#C)"/><path d="m26.9292 28.0326h-18.09485v-11.2888l9.04745-9.03103 9.0474 9.03103z" fill="url(#D)"/><path d="m26.9292 28.0326h-18.09485v-11.2888l9.04745-9.03103 9.0474 9.03103z" fill="url(#E)"/><g filter="url(#d)"><path d="m16.9728 28.0325h-5.831v-8.2965c0-.6322.4471-1.1514.9913-1.1514h3.8485c.5442 0 .9912.5192.9912 1.1514z" fill="url(#F)"/></g><g filter="url(#e)"><path d="m10.2897 27.434h8.1006v.9507h-8.1006z" fill="#68552b"/></g><g filter="url(#f)"><path d="m24.1815 23.1836h-3.5176c-.395 0-.7036-.3209-.7036-.7036v-3.5179c0-.395.3209-.7036.7036-.7036h3.5176c.3949 0 .7035.321.7035.7036v3.5179c0 .395-.3086.7036-.7035.7036z" fill="url(#G)"/><path d="m24.1815 23.1836h-3.5176c-.395 0-.7036-.3209-.7036-.7036v-3.5179c0-.395.3209-.7036.7036-.7036h3.5176c.3949 0 .7035.321.7035.7036v3.5179c0 .395-.3086.7036-.7035.7036z" fill="url(#H)"/></g><path d="m24.1815 23.1836h-3.5176c-.395 0-.7036-.3209-.7036-.7036v-3.5179c0-.395.3209-.7036.7036-.7036h3.5176c.3949 0 .7035.321.7035.7036v3.5179c0 .395-.3086.7036-.7035.7036z" fill="url(#I)"/><path d="m24.1815 23.1836h-3.5176c-.395 0-.7036-.3209-.7036-.7036v-3.5179c0-.395.3209-.7036.7036-.7036h3.5176c.3949 0 .7035.321.7035.7036v3.5179c0 .395-.3086.7036-.7035.7036z" fill="url(#J)"/><g filter="url(#g)"><path d="m17.9728 27.0818h-6.5033v-7.8649c0-.5992.4986-1.0914 1.1055-1.0914h4.2923c.6069 0 1.1055.4922 1.1055 1.0914z" fill="url(#K)"/></g><g filter="url(#h)"><path d="m16.3442 23.2287c.2587 0 .4684-.2097.4684-.4684s-.2097-.4684-.4684-.4684-.4685.2097-.4685.4684.2098.4684.4685.4684z" fill="#62393d"/></g><g filter="url(#i)"><path d="m16.4657 23.1581c.2613 0 .4732-.2119.4732-.4732 0-.2614-.2119-.4732-.4732-.4732-.2614 0-.4733.2118-.4733.4732 0 .2613.2119.4732.4733.4732z" fill="#895d56"/></g><path d="m29.2954 16.8517-10.7004-10.5417c-.3967-.39673-1.0428-.39673-1.4395 0 0 0-.0114 0-.0114.01133l-10.72302 10.55307c-.39673.3967-.39673 1.0315 0 1.4169s1.04284.3967 1.43957 0l9.83345-9.68875c.0974-.09589.2536-.09589.351-.00001l9.7994 9.65476c.3968.3967 1.0429.3967 1.4396 0 .3967-.3968.4081-1.0202.0113-1.4056z" fill="url(#L)"/><path d="m10.6328 27.8318c0-.4142.3358-.75.75-.75h6.6007c.4142 0 .75.3358.75.75v.2008h-8.1007z" fill="url(#M)"/><path d="m10.6328 27.8318c0-.4142.3358-.75.75-.75h6.6007c.4142 0 .75.3358.75.75v.2008h-8.1007z" fill="url(#N)"/><path d="m10.6328 27.8318c0-.4142.3358-.75.75-.75h6.6007c.4142 0 .75.3358.75.75v.2008h-8.1007z" fill="url(#O)"/><g filter="url(#j)"><path d="m2.07581 30.0482c0-1.1132.90244-2.0156 2.01565-2.0156h23.81704c1.1132 0 2.0157.9024 2.0157 2.0156z" fill="#3fd47b"/></g><path d="m2.07581 30.0482c0-1.1132.90244-2.0156 2.01565-2.0156h23.81704c1.1132 0 2.0157.9024 2.0157 2.0156z" fill="url(#P)"/><path d="m2.07581 30.0482c0-1.1132.90244-2.0156 2.01565-2.0156h23.81704c1.1132 0 2.0157.9024 2.0157 2.0156z" fill="url(#Q)"/><path d="m2.07581 30.0482c0-1.1132.90244-2.0156 2.01565-2.0156h23.81704c1.1132 0 2.0157.9024 2.0157 2.0156z" fill="url(#R)"/><g filter="url(#k)"><path d="m25.8968 30.0482c1.1886-.4334 2.0358-1.5597 2.0358-2.8809 0-1.696-1.3962-3.071-3.1185-3.071-1.0549 0-1.9874.5157-2.5517 1.3051-.3451.4827-.8444.8757-1.3425 1.1981-.578.3741-.9596 1.0183-.9596 1.7504 0 .6991.3481 1.3182.883 1.6983z" fill="#2ead69"/><path d="m25.8968 30.0482c1.1886-.4334 2.0358-1.5597 2.0358-2.8809 0-1.696-1.3962-3.071-3.1185-3.071-1.0549 0-1.9874.5157-2.5517 1.3051-.3451.4827-.8444.8757-1.3425 1.1981-.578.3741-.9596 1.0183-.9596 1.7504 0 .6991.3481 1.3182.883 1.6983z" fill="url(#S)"/><path d="m25.8968 30.0482c1.1886-.4334 2.0358-1.5597 2.0358-2.8809 0-1.696-1.3962-3.071-3.1185-3.071-1.0549 0-1.9874.5157-2.5517 1.3051-.3451.4827-.8444.8757-1.3425 1.1981-.578.3741-.9596 1.0183-.9596 1.7504 0 .6991.3481 1.3182.883 1.6983z" fill="url(#T)"/><path d="m25.8968 30.0482c1.1886-.4334 2.0358-1.5597 2.0358-2.8809 0-1.696-1.3962-3.071-3.1185-3.071-1.0549 0-1.9874.5157-2.5517 1.3051-.3451.4827-.8444.8757-1.3425 1.1981-.578.3741-.9596 1.0183-.9596 1.7504 0 .6991.3481 1.3182.883 1.6983z" fill="url(#U)"/></g><path d="m25.8968 30.0482c1.1886-.4334 2.0358-1.5597 2.0358-2.8809 0-1.696-1.3962-3.071-3.1185-3.071-1.0549 0-1.9874.5157-2.5517 1.3051-.3451.4827-.8444.8757-1.3425 1.1981-.578.3741-.9596 1.0183-.9596 1.7504 0 .6991.3481 1.3182.883 1.6983z" fill="url(#V)"/><g filter="url(#l)"><path d="m18.0415 6.81519 10.7303 10.56571" stroke="url(#X)" stroke-linecap="round" stroke-width=".3"/></g><g filter="url(#m)"><path d="m18.0415 6.81519-10.73031 10.56571" stroke="url(#Y)" stroke-linecap="round" stroke-opacity=".5" stroke-width=".3"/></g><g filter="url(#n)"><path d="m23.2229 29.2639c-.592-.7439-.8843-1.6042-.994-2.1281-.0278-.1325-.1669-.2161-.2935-.1681l-.1783.0676c-.4984.1888-.828.6662-.828 1.1992 0 .7083.5741 1.2824 1.2824 1.2824h.8953c.1269 0 .1951-.1537.1161-.253z" fill="#31b570"/></g></svg>