<svg fill="none" height="32" viewBox="0 0 32 32" width="32" xmlns="http://www.w3.org/2000/svg" xmlns:xlink="http://www.w3.org/1999/xlink"><filter id="a" color-interpolation-filters="sRGB" filterUnits="userSpaceOnUse" height="24.815" width="24.215" x="2.063" y="3.277"><feFlood flood-opacity="0" result="BackgroundImageFix"/><feBlend in="SourceGraphic" in2="BackgroundImageFix" mode="normal" result="shape"/><feColorMatrix in="SourceAlpha" result="hardAlpha" type="matrix" values="0 0 0 0 0 0 0 0 0 0 0 0 0 0 0 0 0 0 127 0"/><feOffset dy="-.3"/><feGaussianBlur stdDeviation=".2"/><feComposite in2="hardAlpha" k2="-1" k3="1" operator="arithmetic"/><feColorMatrix type="matrix" values="0 0 0 0 1 0 0 0 0 0.564706 0 0 0 0 0.372549 0 0 0 1 0"/><feBlend in2="shape" mode="normal" result="effect1_innerShadow_18_21284"/><feColorMatrix in="SourceAlpha" result="hardAlpha" type="matrix" values="0 0 0 0 0 0 0 0 0 0 0 0 0 0 0 0 0 0 127 0"/><feOffset dy=".3"/><feGaussianBlur stdDeviation=".15"/><feComposite in2="hardAlpha" k2="-1" k3="1" operator="arithmetic"/><feColorMatrix type="matrix" values="0 0 0 0 1 0 0 0 0 0.941176 0 0 0 0 0.262745 0 0 0 1 0"/><feBlend in2="effect1_innerShadow_18_21284" mode="normal" result="effect2_innerShadow_18_21284"/></filter><filter id="b" color-interpolation-filters="sRGB" filterUnits="userSpaceOnUse" height="4.612" width="5.485" x="19.866" y="10.614"><feFlood flood-opacity="0" result="BackgroundImageFix"/><feBlend in="SourceGraphic" in2="BackgroundImageFix" mode="normal" result="shape"/><feGaussianBlur result="effect1_foregroundBlur_18_21284" stdDeviation=".325"/></filter><filter id="c" color-interpolation-filters="sRGB" filterUnits="userSpaceOnUse" height="5.6" width="5.595" x="17.719" y="6.54"><feFlood flood-opacity="0" result="BackgroundImageFix"/><feBlend in="SourceGraphic" in2="BackgroundImageFix" mode="normal" result="shape"/><feColorMatrix in="SourceAlpha" result="hardAlpha" type="matrix" values="0 0 0 0 0 0 0 0 0 0 0 0 0 0 0 0 0 0 127 0"/><feOffset dx=".1" dy=".1"/><feGaussianBlur stdDeviation=".15"/><feComposite in2="hardAlpha" k2="-1" k3="1" operator="arithmetic"/><feColorMatrix type="matrix" values="0 0 0 0 0.784314 0 0 0 0 0.223529 0 0 0 0 0.211765 0 0 0 1 0"/><feBlend in2="shape" mode="normal" result="effect1_innerShadow_18_21284"/><feColorMatrix in="SourceAlpha" result="hardAlpha" type="matrix" values="0 0 0 0 0 0 0 0 0 0 0 0 0 0 0 0 0 0 127 0"/><feOffset dx="-.1" dy="-.1"/><feGaussianBlur stdDeviation=".15"/><feComposite in2="hardAlpha" k2="-1" k3="1" operator="arithmetic"/><feColorMatrix type="matrix" values="0 0 0 0 0.952941 0 0 0 0 0.176471 0 0 0 0 0.380392 0 0 0 1 0"/><feBlend in2="effect1_innerShadow_18_21284" mode="normal" result="effect2_innerShadow_18_21284"/></filter><filter id="d" color-interpolation-filters="sRGB" filterUnits="userSpaceOnUse" height="9.588" width="9.438" x="20.683" y="4.093"><feFlood flood-opacity="0" result="BackgroundImageFix"/><feBlend in="SourceGraphic" in2="BackgroundImageFix" mode="normal" result="shape"/><feColorMatrix in="SourceAlpha" result="hardAlpha" type="matrix" values="0 0 0 0 0 0 0 0 0 0 0 0 0 0 0 0 0 0 127 0"/><feOffset dy="-.15"/><feGaussianBlur stdDeviation=".25"/><feComposite in2="hardAlpha" k2="-1" k3="1" operator="arithmetic"/><feColorMatrix type="matrix" values="0 0 0 0 0.631373 0 0 0 0 0.380392 0 0 0 0 0.815686 0 0 0 1 0"/><feBlend in2="shape" mode="normal" result="effect1_innerShadow_18_21284"/></filter><filter id="e" color-interpolation-filters="sRGB" filterUnits="userSpaceOnUse" height="9.114" width="9.114" x="20.846" y="4.377"><feFlood flood-opacity="0" result="BackgroundImageFix"/><feBlend in="SourceGraphic" in2="BackgroundImageFix" mode="normal" result="shape"/><feGaussianBlur result="effect1_foregroundBlur_18_21284" stdDeviation=".075"/></filter><linearGradient id="f" gradientUnits="userSpaceOnUse" x1="21.969" x2="3.438" y1="11.139" y2="17.796"><stop offset="0" stop-color="#ffd846"/><stop offset="1" stop-color="#ffb349"/></linearGradient><linearGradient id="g" gradientUnits="userSpaceOnUse" x1="3.719" x2="5.844" y1="15.046" y2="17.171"><stop offset=".233" stop-color="#ffbd42"/><stop offset="1" stop-color="#ffbd42" stop-opacity="0"/></linearGradient><radialGradient id="h" cx="0" cy="0" gradientTransform="matrix(-.14062611 3.06250302 -3.29999277 -.15153133 20.3594 9.88922)" gradientUnits="userSpaceOnUse" r="1"><stop offset=".588" stop-color="#fca643"/><stop offset="1" stop-color="#ffce46" stop-opacity="0"/></radialGradient><radialGradient id="i" cx="0" cy="0" gradientTransform="matrix(4.50689287 -.24375878 .27596737 5.1024025 18.707 9.34001)" gradientUnits="userSpaceOnUse" r="1"><stop offset=".884" stop-color="#ff5856" stop-opacity="0"/><stop offset=".967" stop-color="#ff5856"/></radialGradient><radialGradient id="j" cx="0" cy="0" gradientTransform="matrix(-.86249391 .50626502 -.55672953 -.94846733 21.3789 11.5338)" gradientUnits="userSpaceOnUse" r="1"><stop offset=".188" stop-color="#ca313a"/><stop offset="1" stop-color="#ca313a" stop-opacity="0"/></radialGradient><radialGradient id="k" cx="0" cy="0" gradientTransform="matrix(-.53125254 .89061886 -1.35564244 -.80863826 21.375 7.45172)" gradientUnits="userSpaceOnUse" r="1"><stop offset=".185" stop-color="#8a4172"/><stop offset="1" stop-color="#8a4172" stop-opacity="0"/></radialGradient><linearGradient id="l" gradientUnits="userSpaceOnUse" x1="29.031" x2="26.297" y1="11.889" y2="10.077"><stop offset=".251" stop-color="#b6aac2"/><stop offset="1" stop-color="#b6aac2" stop-opacity="0"/></linearGradient><radialGradient id="m" cx="0" cy="0" gradientTransform="matrix(1.76562283 .562501 -.29762776 .93421768 22.9375 4.6861)" gradientUnits="userSpaceOnUse" r="1"><stop offset=".461" stop-color="#b6aac2"/><stop offset="1" stop-color="#b6aac2" stop-opacity="0"/></radialGradient><g filter="url(#a)"><path d="m24.2525 15.2517 1.93-5.02c.2-.51997.08-1.11997-.32-1.51997l-4.72-4.72c-.4-.4-.99-.52-1.52-.32l-5.02 1.93c-.38.15-.73.37-1.02.66l-11.1 11.09997c-.56.56-.56 1.46 0 2.01l8 8c.56.56 1.46.56 2.01 0l11.1-11.1c.29-.29.51-.63.66-1.02zm-4.98-4.66c-.69-.68997-.69-1.79997 0-2.48997s1.8-.69 2.49 0 .69 1.8 0 2.48997c-.69.68-1.81.68-2.49 0z" fill="url(#f)"/></g><path d="m24.2525 15.2517 1.93-5.02c.2-.51997.08-1.11997-.32-1.51997l-4.72-4.72c-.4-.4-.99-.52-1.52-.32l-5.02 1.93c-.38.15-.73.37-1.02.66l-11.1 11.09997c-.56.56-.56 1.46 0 2.01l8 8c.56.56 1.46.56 2.01 0l11.1-11.1c.29-.29.51-.63.66-1.02zm-4.98-4.66c-.69-.68997-.69-1.79997 0-2.48997s1.8-.69 2.49 0 .69 1.8 0 2.48997c-.69.68-1.81.68-2.49 0z" fill="url(#g)"/><path d="m24.2525 15.2517 1.93-5.02c.2-.51997.08-1.11997-.32-1.51997l-4.72-4.72c-.4-.4-.99-.52-1.52-.32l-5.02 1.93c-.38.15-.73.37-1.02.66l-11.1 11.09997c-.56.56-.56 1.46 0 2.01l8 8c.56.56 1.46.56 2.01 0l11.1-11.1c.29-.29.51-.63.66-1.02zm-4.98-4.66c-.69-.68997-.69-1.79997 0-2.48997s1.8-.69 2.49 0 .69 1.8 0 2.48997c-.69.68-1.81.68-2.49 0z" fill="url(#h)"/><g filter="url(#b)"><path d="m24.701 13.6702c-.0246.0005-.0494.0008-.0741.0008-1.5174 0-2.7971-1.0171-3.1947-2.4068-.2893.1274-.6093.1651-.9158.1131.4384 1.757 1.9737 3.0798 3.8364 3.1987z" fill="#e3a242"/></g><g filter="url(#c)"><path d="m20.5164 7.58001c.45 0 .9.17 1.24.52.69.69.69 1.8 0 2.48999-.34.34-.79.52-1.24.52s-.9-.17-1.24-.52c-.69-.68999-.69-1.79999 0-2.48999.34-.35.79-.52 1.24-.52zm0-.94c-.72 0-1.4.28-1.91.79-1.05 1.05-1.05 2.75999 0 3.81999.51.51 1.19.79 1.91.79s1.4-.28 1.91-.79c1.05-1.05 1.05-2.75999 0-3.81999-.51-.51-1.19-.79-1.91-.79z" fill="#f6424a"/><path d="m20.5164 7.58001c.45 0 .9.17 1.24.52.69.69.69 1.8 0 2.48999-.34.34-.79.52-1.24.52s-.9-.17-1.24-.52c-.69-.68999-.69-1.79999 0-2.48999.34-.35.79-.52 1.24-.52zm0-.94c-.72 0-1.4.28-1.91.79-1.05 1.05-1.05 2.75999 0 3.81999.51.51 1.19.79 1.91.79s1.4-.28 1.91-.79c1.05-1.05 1.05-2.75999 0-3.81999-.51-.51-1.19-.79-1.91-.79z" fill="url(#i)"/><path d="m20.5164 7.58001c.45 0 .9.17 1.24.52.69.69.69 1.8 0 2.48999-.34.34-.79.52-1.24.52s-.9-.17-1.24-.52c-.69-.68999-.69-1.79999 0-2.48999.34-.35.79-.52 1.24-.52zm0-.94c-.72 0-1.4.28-1.91.79-1.05 1.05-1.05 2.75999 0 3.81999.51.51 1.19.79 1.91.79s1.4-.28 1.91-.79c1.05-1.05 1.05-2.75999 0-3.81999-.51-.51-1.19-.79-1.91-.79z" fill="url(#j)"/></g><g filter="url(#d)"><path d="m23.1645 6.01374c.6215-.47254 1.397-.75304 2.238-.75304 2.044 0 3.701 1.65701 3.701 3.70105 0 2.04405-1.657 3.70105-3.701 3.70105-2.0441 0-3.7011-1.657-3.7011-3.70105 0-.28446.0321-.56142.0929-.82746-.0104-.01096-.021-.02182-.0318-.03257-.2527-.25271-.5618-.41285-.8859-.48044-.1256.42491-.1931.87481-.1931 1.34047 0 2.60625 2.1128 4.71895 4.719 4.71895s4.7189-2.1127 4.7189-4.71895c0-2.60621-2.1127-4.71895-4.7189-4.71895-1.1223 0-2.153.39174-2.963 1.04595z" fill="#aaa2b3"/><path d="m23.1645 6.01374c.6215-.47254 1.397-.75304 2.238-.75304 2.044 0 3.701 1.65701 3.701 3.70105 0 2.04405-1.657 3.70105-3.701 3.70105-2.0441 0-3.7011-1.657-3.7011-3.70105 0-.28446.0321-.56142.0929-.82746-.0104-.01096-.021-.02182-.0318-.03257-.2527-.25271-.5618-.41285-.8859-.48044-.1256.42491-.1931.87481-.1931 1.34047 0 2.60625 2.1128 4.71895 4.719 4.71895s4.7189-2.1127 4.7189-4.71895c0-2.60621-2.1127-4.71895-4.7189-4.71895-1.1223 0-2.153.39174-2.963 1.04595z" fill="url(#k)"/></g><g filter="url(#e)" stroke-width=".15"><circle cx="25.402" cy="8.934" r="4.332" stroke="url(#l)"/><circle cx="25.402" cy="8.934" r="4.332" stroke="url(#m)"/></g></svg>