<svg fill="none" height="32" viewBox="0 0 32 32" width="32" xmlns="http://www.w3.org/2000/svg" xmlns:xlink="http://www.w3.org/1999/xlink"><filter id="a" color-interpolation-filters="sRGB" filterUnits="userSpaceOnUse" height="9.375" width="8.426" x="8.824" y="4.25"><feFlood flood-opacity="0" result="BackgroundImageFix"/><feBlend in="SourceGraphic" in2="BackgroundImageFix" mode="normal" result="shape"/><feGaussianBlur result="effect1_foregroundBlur_28327_2357" stdDeviation=".375"/></filter><filter id="b" color-interpolation-filters="sRGB" filterUnits="userSpaceOnUse" height="2.616" width="1.799" x="5.498" y="8.672"><feFlood flood-opacity="0" result="BackgroundImageFix"/><feBlend in="SourceGraphic" in2="BackgroundImageFix" mode="normal" result="shape"/><feGaussianBlur result="effect1_foregroundBlur_28327_2357" stdDeviation=".25"/></filter><filter id="c" color-interpolation-filters="sRGB" filterUnits="userSpaceOnUse" height="8.731" width="4.988" x="21.866" y="10.375"><feFlood flood-opacity="0" result="BackgroundImageFix"/><feBlend in="SourceGraphic" in2="BackgroundImageFix" mode="normal" result="shape"/><feGaussianBlur result="effect1_foregroundBlur_28327_2357" stdDeviation=".625"/></filter><filter id="d" color-interpolation-filters="sRGB" filterUnits="userSpaceOnUse" height="6.3" width="1.8" x="9.329" y="19.35"><feFlood flood-opacity="0" result="BackgroundImageFix"/><feBlend in="SourceGraphic" in2="BackgroundImageFix" mode="normal" result="shape"/><feGaussianBlur result="effect1_foregroundBlur_28327_2357" stdDeviation=".3"/></filter><filter id="e" color-interpolation-filters="sRGB" filterUnits="userSpaceOnUse" height="6.581" width="3.017" x="12.284" y="19.647"><feFlood flood-opacity="0" result="BackgroundImageFix"/><feBlend in="SourceGraphic" in2="BackgroundImageFix" mode="normal" result="shape"/><feGaussianBlur result="effect1_foregroundBlur_28327_2357" stdDeviation=".3"/></filter><filter id="f" color-interpolation-filters="sRGB" filterUnits="userSpaceOnUse" height="8.266" width="4.758" x="21.784" y="18.156"><feFlood flood-opacity="0" result="BackgroundImageFix"/><feBlend in="SourceGraphic" in2="BackgroundImageFix" mode="normal" result="shape"/><feGaussianBlur result="effect1_foregroundBlur_28327_2357" stdDeviation=".625"/></filter><filter id="g" color-interpolation-filters="sRGB" filterUnits="userSpaceOnUse" height="4.196" width="4.604" x="21.977" y="10.586"><feFlood flood-opacity="0" result="BackgroundImageFix"/><feBlend in="SourceGraphic" in2="BackgroundImageFix" mode="normal" result="shape"/><feGaussianBlur result="effect1_foregroundBlur_28327_2357" stdDeviation=".5"/></filter><filter id="h" color-interpolation-filters="sRGB" filterUnits="userSpaceOnUse" height="11.594" width="4.281" x="25.573" y="11.219"><feFlood flood-opacity="0" result="BackgroundImageFix"/><feBlend in="SourceGraphic" in2="BackgroundImageFix" mode="normal" result="shape"/><feGaussianBlur result="effect1_foregroundBlur_28327_2357" stdDeviation=".375"/></filter><linearGradient id="i" gradientUnits="userSpaceOnUse" x1="26.694" x2="28.229" y1="13.938" y2="13.938"><stop offset="0" stop-color="#ffaa35"/><stop offset="1" stop-color="#fec45a"/></linearGradient><linearGradient id="j"><stop offset=".207" stop-color="#da530e"/><stop offset="1" stop-color="#ffa43d" stop-opacity="0"/></linearGradient><linearGradient id="k" gradientUnits="userSpaceOnUse" x1="25.51" x2="27.169" xlink:href="#j" y1="19.548" y2="19.548"/><linearGradient id="l" gradientUnits="userSpaceOnUse" x1="25.667" x2="27.169" xlink:href="#j" y1="21.906" y2="20.125"/><linearGradient id="m" gradientUnits="userSpaceOnUse" x1="25.731" x2="26.545" y1="12.455" y2="14.274"><stop offset="0" stop-color="#ffad3a"/><stop offset="1" stop-color="#ffad3a" stop-opacity="0"/></linearGradient><linearGradient id="n" gradientUnits="userSpaceOnUse" x1="29.104" x2="29.104" y1="23.313" y2="20.5"><stop offset="0" stop-color="#71374e"/><stop offset="1" stop-color="#8f6157"/></linearGradient><linearGradient id="o"><stop offset="0" stop-color="#da530e"/><stop offset="1" stop-color="#ffa43d"/></linearGradient><linearGradient id="p" gradientUnits="userSpaceOnUse" x1="11.635" x2="13.056" xlink:href="#o" y1="17.469" y2="23.813"/><linearGradient id="q"><stop offset="0" stop-color="#bc6422"/><stop offset="1" stop-color="#e3843d" stop-opacity="0"/></linearGradient><linearGradient id="r" gradientUnits="userSpaceOnUse" x1="12.832" x2="12.832" xlink:href="#q" y1="26.438" y2="24.656"/><linearGradient id="s"><stop offset="0" stop-color="#c14100"/><stop offset="1" stop-color="#c14100" stop-opacity="0"/></linearGradient><linearGradient id="t" gradientUnits="userSpaceOnUse" x1="15.507" x2="13.925" xlink:href="#s" y1="21.688" y2="22.415"/><linearGradient id="u" gradientUnits="userSpaceOnUse" x1="10.26" x2="12.617" xlink:href="#s" y1="19.656" y2="22.03"/><linearGradient id="v" gradientUnits="userSpaceOnUse" x1="21.524" x2="18.763" xlink:href="#o" y1="17.063" y2="26.697"/><linearGradient id="w" gradientUnits="userSpaceOnUse" x1="20.604" x2="19.604" xlink:href="#s" y1="18.938" y2="23.313"/><linearGradient id="x" gradientUnits="userSpaceOnUse" x1="20.838" x2="19.604" xlink:href="#s" y1="23.578" y2="23.313"/><linearGradient id="y" gradientUnits="userSpaceOnUse" x1="16.854" x2="17.667" y1="22.141" y2="22.563"><stop offset="0" stop-color="#c14100"/><stop offset=".83" stop-color="#c14100" stop-opacity="0"/></linearGradient><linearGradient id="z" gradientUnits="userSpaceOnUse" x1="18.51" x2="18.51" xlink:href="#q" y1="26.438" y2="24.656"/><radialGradient id="A" cx="0" cy="0" gradientTransform="matrix(0 14.6315 -15.9682 0 17.2291 7.25)" gradientUnits="userSpaceOnUse" r="1"><stop offset="0" stop-color="#ffd14f"/><stop offset=".889" stop-color="#fa9e3b"/></radialGradient><linearGradient id="B" gradientUnits="userSpaceOnUse" x1="27.354" x2="14.109" y1="26" y2="26"><stop offset="0" stop-color="#ffd55d"/><stop offset=".311" stop-color="#ffd55d" stop-opacity="0"/></linearGradient><linearGradient id="C" gradientUnits="userSpaceOnUse" x1="13.198" x2="13.198" xlink:href="#q" y1="26.625" y2="24.875"/><radialGradient id="D" cx="0" cy="0" gradientTransform="matrix(1.65625488 1.21875099 -2.40447195 3.26762268 7.97906 22.4688)" gradientUnits="userSpaceOnUse" r="1"><stop offset="0" stop-color="#ffbe73"/><stop offset="1" stop-color="#fbb15e" stop-opacity="0"/></radialGradient><linearGradient id="E" gradientUnits="userSpaceOnUse" x1="5.213" x2="5.37" y1="14.313" y2="12.766"><stop offset="0" stop-color="#cd752b"/><stop offset="1" stop-color="#e08539" stop-opacity="0"/></linearGradient><linearGradient id="F" gradientUnits="userSpaceOnUse" x1="7.104" x2="5.995" y1="14.313" y2="12.813"><stop offset=".073" stop-color="#fca83f"/><stop offset=".715" stop-color="#fca83f" stop-opacity="0"/></linearGradient><linearGradient id="G" gradientUnits="userSpaceOnUse" x1="4.042" x2="6.459" y1="6.688" y2="7.595"><stop offset="0" stop-color="#ffcf86"/><stop offset="1" stop-color="#ffcf86" stop-opacity="0"/></linearGradient><linearGradient id="H" gradientUnits="userSpaceOnUse" x1="16.76" x2="16.76" y1="20.582" y2="18.719"><stop offset="0" stop-color="#de7c3a"/><stop offset="1" stop-color="#de7c3a" stop-opacity="0"/></linearGradient><linearGradient id="I"><stop offset="0" stop-color="#fb9f3b"/><stop offset="1" stop-color="#fb9f3b" stop-opacity="0"/></linearGradient><linearGradient id="J" gradientUnits="userSpaceOnUse" x1="20.213" x2="18.932" xlink:href="#I" y1="19.984" y2="19.578"/><linearGradient id="K" gradientUnits="userSpaceOnUse" x1="11.042" x2="12.635" xlink:href="#I" y1="20.582" y2="20"/><linearGradient id="L"><stop offset="0" stop-color="#ffe3bf"/><stop offset="1" stop-color="#f0c0a7"/></linearGradient><linearGradient id="M" gradientUnits="userSpaceOnUse" x1="6.289" x2="8.479" xlink:href="#L" y1="16.188" y2="16.188"/><linearGradient id="N"><stop offset="0" stop-color="#edbaab"/><stop offset="1" stop-color="#edbaab" stop-opacity="0"/></linearGradient><linearGradient id="O" gradientUnits="userSpaceOnUse" x1="7.729" x2="7.729" xlink:href="#N" y1="20.594" y2="17.488"/><linearGradient id="P" gradientUnits="userSpaceOnUse" x1="12.969" x2="12.969" y1="5.063" y2="12.375"><stop offset="0" stop-color="#ffe285"/><stop offset="1" stop-color="#ffe183" stop-opacity="0"/></linearGradient><linearGradient id="Q" gradientUnits="userSpaceOnUse" x1="1.667" x2="4.491" xlink:href="#L" y1="11.295" y2="11.295"/><linearGradient id="R" gradientUnits="userSpaceOnUse" x1="3.902" x2="3.902" xlink:href="#N" y1="13.654" y2="11.77"/><radialGradient id="S" cx="0" cy="0" gradientTransform="matrix(.99999748 -.99999748 .99999748 .99999748 9.10406 6)" gradientUnits="userSpaceOnUse" r="1"><stop offset=".125" stop-color="#ffe6a9"/><stop offset="1" stop-color="#f1b187"/></radialGradient><linearGradient id="T"><stop offset="0" stop-color="#845452"/><stop offset="1" stop-color="#a57c75"/></linearGradient><linearGradient id="U" gradientUnits="userSpaceOnUse" x1="22.054" x2="22.197" xlink:href="#T" y1="12.05" y2="15.431"/><linearGradient id="V" gradientUnits="userSpaceOnUse" x1="12.76" x2="10.854" xlink:href="#T" y1="8.688" y2="9.938"/><radialGradient id="W" cx="0" cy="0" gradientTransform="matrix(-.282552 0 0 -1.16952 6.75939 9.98002)" gradientUnits="userSpaceOnUse" r="1"><stop offset="0" stop-color="#67545f"/><stop offset="1" stop-color="#3b2439"/></radialGradient><linearGradient id="X"><stop offset="0" stop-color="#ffd967"/><stop offset="1" stop-color="#ffd967" stop-opacity="0"/></linearGradient><linearGradient id="Y" gradientUnits="userSpaceOnUse" x1="25.478" x2="25.478" xlink:href="#X" y1="13.719" y2="18.427"/><linearGradient id="Z"><stop offset="0" stop-color="#ffdb6a"/><stop offset="1" stop-color="#ffe183" stop-opacity="0"/></linearGradient><linearGradient id="aa" gradientUnits="userSpaceOnUse" x1="10.718" x2="10.718" xlink:href="#Z" y1="21.406" y2="28.438"/><linearGradient id="ab" gradientUnits="userSpaceOnUse" x1="13.672" x2="14.916" xlink:href="#Z" y1="21.406" y2="26.016"/><linearGradient id="ac" gradientUnits="userSpaceOnUse" x1="25.482" x2="24.174" xlink:href="#X" y1="22.286" y2="26.21"/><linearGradient id="ad" gradientUnits="userSpaceOnUse" x1="3.704" x2="2.774" y1="10.789" y2="10.789"><stop offset=".225" stop-color="#594c4f"/><stop offset="1" stop-color="#392833"/></linearGradient><linearGradient id="ae" gradientUnits="userSpaceOnUse" x1="4.066" x2="4.066" y1="11.854" y2="11.018"><stop offset="0" stop-color="#552d52"/><stop offset="1" stop-color="#552d52" stop-opacity="0"/></linearGradient><linearGradient id="af" gradientUnits="userSpaceOnUse" x1="1.452" x2="2.772" y1="11.221" y2="11.221"><stop offset="0" stop-color="#594c4f"/><stop offset=".84" stop-color="#594c4f" stop-opacity="0"/></linearGradient><radialGradient id="ag" cx="0" cy="0" gradientTransform="matrix(-2.41242155 .28535813 -.17894263 -1.51278347 26.2444 12.758)" gradientUnits="userSpaceOnUse" r="1"><stop offset="0" stop-color="#ffebac"/><stop offset="1" stop-color="#ffe38b" stop-opacity="0"/></radialGradient><path d="m15.4941 25.61-1.89-7.09h-3l1.47 5.51c-.31.08-.56.33-.62.66l-.17.98c-.03.17.1.33.28.33h1.42 1.12 1.09c.21 0 .36-.19.3-.39z" fill="#ffb000"/><path d="m29.1041 23c-1.65 0-3-1.35-3-3v-6c0-.55-.45-1-1-1h-.82c-.55 0-1-.45-1-1s.45-1 1-1h.82c1.65 0 3 1.35 3 3v6c0 .55.45 1 1 1s1 .45 1 1-.45 1-1 1z" fill="url(#i)"/><path d="m26.1041 20c0 1.65 1.35 3 3 3 .55 0 1-.45 1-1s-.45-1-1-1-1-.45-1-1v-6c0-.0736-.0027-.1466-.008-.2189-.072-.9857-1.1082-1.4721-2.0965-1.4721h-1.7647v.6898c.0163.0008.0327.0012.0492.0012h.82c.55 0 1 .45 1 1z" fill="url(#k)"/><path d="m26.1041 20c0 1.65 1.35 3 3 3 .55 0 1-.45 1-1s-.45-1-1-1-1-.45-1-1v-6c0-.0736-.0027-.1466-.008-.2189-.072-.9857-1.1082-1.4721-2.0965-1.4721h-1.7647v.6898c.0163.0008.0327.0012.0492.0012h.82c.55 0 1 .45 1 1z" fill="url(#l)"/><path d="m26.1041 20c0 1.65 1.35 3 3 3 .55 0 1-.45 1-1s-.45-1-1-1-1-.45-1-1v-6c0-.0736-.0027-.1466-.008-.2189-.072-.9857-1.1082-1.4721-2.0965-1.4721h-1.7647v.6898c.0163.0008.0327.0012.0492.0012h.82c.55 0 1 .45 1 1z" fill="url(#m)"/><path d="m29.1041 23c.55 0 1-.45 1-1s-.45-1-1-1-1-.45-1-1v2.83c.31.11.65.17 1 .17z" fill="url(#n)"/><path d="m18.5441 18.52-1.47 5.48h-.08c-.4 0-.75.29-.82.69l-.17.95c-.03.19.11.36.3.36h.63 1.88.33c.23 0 .42-.15.48-.37l1.9-7.11z" fill="#ffb000"/><path d="m15.4941 25.61-1.89-7.09h-3l1.34 5.023c.0716.2683-.1097.538-.2943.7455-.098.1102-.1677.2471-.1957.4015l-.17.98c-.03.17.1.33.28.33h1.42 1.12 1.09c.21 0 .36-.19.3-.39z" fill="url(#p)"/><path d="m15.4941 25.61-1.89-7.09h-3l1.34 5.023c.0716.2683-.1097.538-.2943.7455-.098.1102-.1677.2471-.1957.4015l-.17.98c-.03.17.1.33.28.33h1.42 1.12 1.09c.21 0 .36-.19.3-.39z" fill="url(#r)"/><path d="m15.4941 25.61-1.89-7.09h-3l1.34 5.023c.0716.2683-.1097.538-.2943.7455-.098.1102-.1677.2471-.1957.4015l-.17.98c-.03.17.1.33.28.33h1.42 1.12 1.09c.21 0 .36-.19.3-.39z" fill="url(#t)"/><path d="m15.4941 25.61-1.89-7.09h-3l1.34 5.023c.0716.2683-.1097.538-.2943.7455-.098.1102-.1677.2471-.1957.4015l-.17.98c-.03.17.1.33.28.33h1.42 1.12 1.09c.21 0 .36-.19.3-.39z" fill="url(#u)"/><path d="m18.5441 18.52-1.4493 5.4028c-.0122.0455-.0536.0772-.1007.0772-.4 0-.75.29-.82.69l-.17.95c-.03.19.11.36.3.36h.63 1.88.33c.23 0 .42-.15.48-.37l1.9-7.11z" fill="url(#v)"/><path d="m18.5441 18.52-1.4493 5.4028c-.0122.0455-.0536.0772-.1007.0772-.4 0-.75.29-.82.69l-.17.95c-.03.19.11.36.3.36h.63 1.88.33c.23 0 .42-.15.48-.37l1.9-7.11z" fill="url(#w)"/><path d="m18.5441 18.52-1.4493 5.4028c-.0122.0455-.0536.0772-.1007.0772-.4 0-.75.29-.82.69l-.17.95c-.03.19.11.36.3.36h.63 1.88.33c.23 0 .42-.15.48-.37l1.9-7.11z" fill="url(#x)"/><path d="m18.5441 18.52-1.4493 5.4028c-.0122.0455-.0536.0772-.1007.0772-.4 0-.75.29-.82.69l-.17.95c-.03.19.11.36.3.36h.63 1.88.33c.23 0 .42-.15.48-.37l1.9-7.11z" fill="url(#y)"/><path d="m18.5441 18.52-1.4493 5.4028c-.0122.0455-.0536.0772-.1007.0772-.4 0-.75.29-.82.69l-.17.95c-.03.19.11.36.3.36h.63 1.88.33c.23 0 .42-.15.48-.37l1.9-7.11z" fill="url(#z)"/><path d="m2.10406 11.26c0 1.51 1.23 2.74 2.74 2.74h.76c.27615 0 .5.2239.5.5v1.92c0 1.1804.57578 2.2328 1.46363 2.8875.30484.2248.52637.5618.52637.9405v3.252c0 .2761-.23738.4892-.47956.6219-.30526.1672-.51044.4894-.51044.8581v.6c0 .23.19001.42.42001.42h.88.96 1.41003c.17 0 .31-.14.31-.31v-5.19c0-.2761.2238-.5.5-.5h7.6658c.2652 0 .5195.1054.7071.2929l1.6985 1.6985c.2528.2528.3514.6214.2586.9666l-.2229.8295c-.0337.1254-.1473.2125-.2771.2125-.48 0-.9.33-1.01.79l-.2.8c-.05.21.11.41.33.41h.98 1.44.8c.22 0 .41-.14.47-.34l1.5-4.5c.15-.46.26-.94.32-1.43 0-.02 0-.04.01-.05 0-.02 0-.03.01-.05 0-.02 0-.04.01-.06 0-.04.01-.08.01-.12 0-.03.01-.07.01-.1 0-.04.01-.08.01-.12s0-.08.01-.13c0-.03 0-.06 0-.1 0-.07 0-.15 0-.22v-2.62-3.2c0-.44-.14-.86-.41-1.2-.38-.48-.95-.76-1.56-.76h-3.2-2.92-2.63c-.84 0-1.66-.25-2.36-.71-1.21-.79-1.94-2.14-1.94-3.59v-1.2c0-.83-.67-1.5-1.50004-1.5-.83 0-1.5.67-1.5 1.5v.5h-.35c-2.01 0-3.64 1.63-3.64 3.64 0 .2-.16.36-.36.36h-.64" fill="url(#A)"/><path d="m2.10406 11.26c0 1.51 1.23 2.74 2.74 2.74h.76c.27615 0 .5.2239.5.5v1.92c0 1.1804.57578 2.2328 1.46363 2.8875.30484.2248.52637.5618.52637.9405v3.252c0 .2761-.23738.4892-.47956.6219-.30526.1672-.51044.4894-.51044.8581v.6c0 .23.19001.42.42001.42h.88.96 1.41003c.17 0 .31-.14.31-.31v-5.19c0-.2761.2238-.5.5-.5h7.6658c.2652 0 .5195.1054.7071.2929l1.6985 1.6985c.2528.2528.3514.6214.2586.9666l-.2229.8295c-.0337.1254-.1473.2125-.2771.2125-.48 0-.9.33-1.01.79l-.2.8c-.05.21.11.41.33.41h.98 1.44.8c.22 0 .41-.14.47-.34l1.5-4.5c.15-.46.26-.94.32-1.43 0-.02 0-.04.01-.05 0-.02 0-.03.01-.05 0-.02 0-.04.01-.06 0-.04.01-.08.01-.12 0-.03.01-.07.01-.1 0-.04.01-.08.01-.12s0-.08.01-.13c0-.03 0-.06 0-.1 0-.07 0-.15 0-.22v-2.62-3.2c0-.44-.14-.86-.41-1.2-.38-.48-.95-.76-1.56-.76h-3.2-2.92-2.63c-.84 0-1.66-.25-2.36-.71-1.21-.79-1.94-2.14-1.94-3.59v-1.2c0-.83-.67-1.5-1.50004-1.5-.83 0-1.5.67-1.5 1.5v.5h-.35c-2.01 0-3.64 1.63-3.64 3.64 0 .2-.16.36-.36.36h-.64" fill="url(#B)"/><path d="m2.10406 11.26c0 1.51 1.23 2.74 2.74 2.74h.76c.27615 0 .5.2239.5.5v1.92c0 1.1804.57578 2.2328 1.46363 2.8875.30484.2248.52637.5618.52637.9405v3.252c0 .2761-.23738.4892-.47956.6219-.30526.1672-.51044.4894-.51044.8581v.6c0 .23.19001.42.42001.42h.88.96 1.41003c.17 0 .31-.14.31-.31v-5.19c0-.2761.2238-.5.5-.5h7.6658c.2652 0 .5195.1054.7071.2929l1.6985 1.6985c.2528.2528.3514.6214.2586.9666l-.2229.8295c-.0337.1254-.1473.2125-.2771.2125-.48 0-.9.33-1.01.79l-.2.8c-.05.21.11.41.33.41h.98 1.44.8c.22 0 .41-.14.47-.34l1.5-4.5c.15-.46.26-.94.32-1.43 0-.02 0-.04.01-.05 0-.02 0-.03.01-.05 0-.02 0-.04.01-.06 0-.04.01-.08.01-.12 0-.03.01-.07.01-.1 0-.04.01-.08.01-.12s0-.08.01-.13c0-.03 0-.06 0-.1 0-.07 0-.15 0-.22v-2.62-3.2c0-.44-.14-.86-.41-1.2-.38-.48-.95-.76-1.56-.76h-3.2-2.92-2.63c-.84 0-1.66-.25-2.36-.71-1.21-.79-1.94-2.14-1.94-3.59v-1.2c0-.83-.67-1.5-1.50004-1.5-.83 0-1.5.67-1.5 1.5v.5h-.35c-2.01 0-3.64 1.63-3.64 3.64 0 .2-.16.36-.36.36h-.64" fill="url(#C)"/><path d="m2.10406 11.26c0 1.51 1.23 2.74 2.74 2.74h.76c.27615 0 .5.2239.5.5v1.92c0 1.1804.57578 2.2328 1.46363 2.8875.30484.2248.52637.5618.52637.9405v3.252c0 .2761-.23738.4892-.47956.6219-.30526.1672-.51044.4894-.51044.8581v.6c0 .23.19001.42.42001.42h.88.96 1.41003c.17 0 .31-.14.31-.31v-5.19c0-.2761.2238-.5.5-.5h7.6658c.2652 0 .5195.1054.7071.2929l1.6985 1.6985c.2528.2528.3514.6214.2586.9666l-.2229.8295c-.0337.1254-.1473.2125-.2771.2125-.48 0-.9.33-1.01.79l-.2.8c-.05.21.11.41.33.41h.98 1.44.8c.22 0 .41-.14.47-.34l1.5-4.5c.15-.46.26-.94.32-1.43 0-.02 0-.04.01-.05 0-.02 0-.03.01-.05 0-.02 0-.04.01-.06 0-.04.01-.08.01-.12 0-.03.01-.07.01-.1 0-.04.01-.08.01-.12s0-.08.01-.13c0-.03 0-.06 0-.1 0-.07 0-.15 0-.22v-2.62-3.2c0-.44-.14-.86-.41-1.2-.38-.48-.95-.76-1.56-.76h-3.2-2.92-2.63c-.84 0-1.66-.25-2.36-.71-1.21-.79-1.94-2.14-1.94-3.59v-1.2c0-.83-.67-1.5-1.50004-1.5-.83 0-1.5.67-1.5 1.5v.5h-.35c-2.01 0-3.64 1.63-3.64 3.64 0 .2-.16.36-.36.36h-.64" fill="url(#D)"/><path d="m4.84406 14.0001c-1.51 0-2.74-1.23-2.74-2.74l1-1.26h.64c.2 0 .36-.16005.36-.36005 0-2.01 1.63-3.64 3.64-3.64h.35v-.5c0-.66991.43647-1.23559 1.04125-1.42888l-.64586 7.43093-1.44789 2.498c-.27724 0-1.31992 0-1.4375 0z" fill="url(#E)"/><path d="m4.84406 14.0001c-1.51 0-2.74-1.23-2.74-2.74l1-1.26h.64c.2 0 .36-.16005.36-.36005 0-2.01 1.63-3.64 3.64-3.64h.35v-.5c0-.66991.43647-1.23559 1.04125-1.42888l-.64586 7.43093-1.44789 2.498c-.27724 0-1.31992 0-1.4375 0z" fill="url(#F)"/><path d="m4.84406 14.0001c-1.51 0-2.74-1.23-2.74-2.74l1-1.26h.64c.2 0 .36-.16005.36-.36005 0-2.01 1.63-3.64 3.64-3.64h.35v-.5c0-.66991.43647-1.23559 1.04125-1.42888l-.64586 7.43093-1.44789 2.498c-.27724 0-1.31992 0-1.4375 0z" fill="url(#G)"/><path d="m20.543 18.8933c.1663-.6634-.3348-1.3409-1.0188-1.3409h-9.2483l.8047 3.0296c.0053-.3773.2032-.539.461-.5765h7.7083c.2652 0 .5768.1.8737.4476.1363-.4075.2746-.9823.4194-1.5598z" fill="url(#H)"/><path d="m20.543 18.8933c.1663-.6634-.3348-1.3409-1.0188-1.3409h-9.2483l.8047 3.0296c.0053-.3773.2032-.539.461-.5765h7.7083c.2652 0 .5768.1.8737.4476.1363-.4075.2746-.9823.4194-1.5598z" fill="url(#J)"/><path d="m20.543 18.8933c.1663-.6634-.3348-1.3409-1.0188-1.3409h-9.2483l.8047 3.0296c.0053-.3773.2032-.539.461-.5765h7.7083c.2652 0 .5768.1.8737.4476.1363-.4075.2746-.9823.4194-1.5598z" fill="url(#K)"/><path d="m8.0941 21-.00001-5.01c0-1.1-.89-1.99-1.99-1.99l-1.62051-.0237c.118.0156.23834.0237.36051.0237h.76c.27614 0 .5.2238.5.5v1.92c0 1.1803.57577 2.2327 1.46362 2.8875.30484.2248.52638.5617.52638.9405z" fill="url(#M)"/><path d="m8.0941 21-.00001-5.01c0-1.1-.89-1.99-1.99-1.99l-1.62051-.0237c.118.0156.23834.0237.36051.0237h.76c.27614 0 .5.2238.5.5v1.92c0 1.1803.57577 2.2327 1.46362 2.8875.30484.2248.52638.5617.52638.9405z" fill="url(#O)"/><g filter="url(#a)"><path d="m10.125 5.5c-.15619 1.78125-.0375 3.775 1.5625 5.375 1.0625 1.0625 3.125 1.5 4.3125 1.5" stroke="url(#P)" stroke-linecap="round"/></g><path d="m2.10406 11.26c0 1.26.85 2.31 2 2.64v-4.25999c0 .2-.16.35999-.36.35999h-.74156" fill="#ffdea3"/><path d="m2.10406 11.26c0 1.26.85 2.31 2 2.64v-4.25999c0 .2-.16.35999-.36.35999h-.74156" fill="url(#Q)"/><path d="m2.10406 11.26c0 1.26.85 2.31 2 2.64v-4.25999c0 .2-.16.35999-.36.35999h-.74156" fill="url(#R)"/><path d="m10.1041 6v-.5c0-.28-.22004-.5-.50004-.5s-.5.22-.5.5v.5z" fill="url(#S)"/><path d="m14.5141 17.18c.3258 0 .59-.2642.59-.59s-.2642-.59-.59-.59c-.3259 0-.59.2642-.59.59s.2641.59.59.59z" fill="#845452"/><path d="m21.6941 17.18c.3258 0 .59-.2642.59-.59s-.2642-.59-.59-.59c-.3259 0-.59.2642-.59.59s.2641.59.59.59z" fill="#8a5b5b"/><path d="m14.0541 14.05c.5523 0 1-.4477 1-1 0-.5522-.4477-1-1-1s-1 .4478-1 1c0 .5523.4477 1 1 1z" fill="#8d605a"/><path d="m22.0541 14.05c.5523 0 1-.4477 1-1 0-.5522-.4477-1-1-1s-1 .4478-1 1c0 .5523.4477 1 1 1z" fill="url(#U)"/><path d="m16.7441 11c.16.58.68 1 1.31 1s1.15-.42 1.31-1z" fill="#855b51"/><path d="m12.054 10.96c.46 0 .88-.22 1.13-.57-.05-.03-.11-.06-.16-.1-.74-.48995-1.3-1.18995-1.62-1.98995-.45.24-.76.71-.76 1.25 0 .77995.63 1.40995 1.41 1.40995z" fill="url(#V)"/><g filter="url(#b)"><rect fill="#bd702d" height="1.616" rx=".399" width=".799" x="5.998" y="9.172"/></g><rect fill="url(#W)" height="1.96" rx=".484" width=".969" x="6.135" y="9"/><g filter="url(#c)"><path d="m25.1041 17.356s0-2.2969 0-3.8125c0-1.0716-.75-1.4185-1.4883-1.4185" stroke="url(#Y)" stroke-linecap="round"/></g><g filter="url(#d)"><path d="m10.2291 20.25v4.5" stroke="url(#aa)" stroke-linecap="round" stroke-opacity=".5" stroke-width=".6"/></g><g filter="url(#e)"><path d="m13.184 20.5469 1.2169 4.7812" stroke="url(#ab)" stroke-linecap="round" stroke-opacity=".5" stroke-width=".6"/></g><g filter="url(#f)"><path d="m25.0415 19.6562-1.7574 5.2656" stroke="url(#ac)" stroke-linecap="round" stroke-width=".5"/></g><path d="m2.83188 10c-.4 0-.72.32-.72.72v.6279c0 .0875.10433.1328.16825.0731l1.33639-1.2479c.06633-.0619.0225-.1731-.06825-.1731z" fill="url(#ad)"/><path d="m2.83188 10c-.4 0-.72.32-.72.72v.6279c0 .0875.10433.1328.16825.0731l1.33639-1.2479c.06633-.0619.0225-.1731-.06825-.1731z" fill="url(#ae)"/><path d="m2.83188 10c-.4 0-.72.32-.72.72v.6279c0 .0875.10433.1328.16825.0731l1.33639-1.2479c.06633-.0619.0225-.1731-.06825-.1731z" fill="url(#af)"/><g filter="url(#g)"><ellipse cx="24.279" cy="12.684" fill="url(#ag)" rx="1.4" ry=".969" transform="matrix(.85990039 -.51046188 .51046188 .85990039 -3.073169 14.170513)"/></g><g filter="url(#h)"><path d="m26.4478 12.0938c.3229.0937.9688.5874.9688 1.8124v6.3126c.0208.4687.3625 1.4687 1.5625 1.7187" stroke="#ffde77" stroke-linecap="round" stroke-width=".25"/></g><circle cx="18.02" cy="14.625" fill="#845452" r="1.344"/></svg>