<svg fill="none" height="32" viewBox="0 0 32 32" width="32" xmlns="http://www.w3.org/2000/svg" xmlns:xlink="http://www.w3.org/1999/xlink"><filter id="a" color-interpolation-filters="sRGB" filterUnits="userSpaceOnUse" height="4.875" width="12.498" x="16.822" y="1.219"><feFlood flood-opacity="0" result="BackgroundImageFix"/><feBlend in="SourceGraphic" in2="BackgroundImageFix" mode="normal" result="shape"/><feGaussianBlur result="effect1_foregroundBlur_28327_5567" stdDeviation=".75"/></filter><filter id="b" color-interpolation-filters="sRGB" filterUnits="userSpaceOnUse" height="21.75" width="22.196" x="2.674" y="7.628"><feFlood flood-opacity="0" result="BackgroundImageFix"/><feBlend in="SourceGraphic" in2="BackgroundImageFix" mode="normal" result="shape"/><feGaussianBlur result="effect1_foregroundBlur_28327_5567" stdDeviation="1"/></filter><filter id="c" color-interpolation-filters="sRGB" filterUnits="userSpaceOnUse" height="4.872" width="13.109" x="17.245" y="25.378"><feFlood flood-opacity="0" result="BackgroundImageFix"/><feBlend in="SourceGraphic" in2="BackgroundImageFix" mode="normal" result="shape"/><feGaussianBlur result="effect1_foregroundBlur_28327_5567" stdDeviation=".5"/></filter><filter id="d" color-interpolation-filters="sRGB" filterUnits="userSpaceOnUse" height="22.269" width="19.125" x="11.603" y="1.938"><feFlood flood-opacity="0" result="BackgroundImageFix"/><feBlend in="SourceGraphic" in2="BackgroundImageFix" mode="normal" result="shape"/><feGaussianBlur result="effect1_foregroundBlur_28327_5567" stdDeviation="1"/></filter><linearGradient id="e" gradientUnits="userSpaceOnUse" x1="21.441" x2="13.565" y1="5.502" y2="5.502"><stop offset="0" stop-color="#ed1c26"/><stop offset=".456" stop-color="#ed1452"/><stop offset="1" stop-color="#ec098c"/></linearGradient><linearGradient id="f"><stop offset="0" stop-color="#813c31"/><stop offset="1" stop-color="#813c31" stop-opacity="0"/></linearGradient><radialGradient id="g" cx="0" cy="0" gradientTransform="matrix(-.5156312 .953123 -2.07942756 -1.1249521 18.4784 5.68744)" gradientUnits="userSpaceOnUse" r="1" xlink:href="#f"/><linearGradient id="h" gradientUnits="userSpaceOnUse" x1="17.963" x2="17.963" xlink:href="#f" y1="7.422" y2="6.672"/><linearGradient id="i" gradientUnits="userSpaceOnUse" x1="15.978" x2="15.978" y1="30.688" y2="27.75"><stop offset="0" stop-color="#8596da"/><stop offset="1" stop-color="#8596da" stop-opacity="0"/></linearGradient><radialGradient id="j" cx="0" cy="0" gradientTransform="matrix(-12.87489203 18.56253877 -23.99428248 -16.64232463 19.4159 8.5625)" gradientUnits="userSpaceOnUse" r="1"><stop offset=".854" stop-color="#8596da" stop-opacity="0"/><stop offset="1" stop-color="#8596da"/></radialGradient><linearGradient id="k"><stop offset="0" stop-color="#57d493"/><stop offset="1" stop-color="#57d493" stop-opacity="0"/></linearGradient><radialGradient id="l" cx="0" cy="0" gradientTransform="matrix(-3.81249679 .56250461 -1.22961009 -8.3339486 8.97842 19.3125)" gradientUnits="userSpaceOnUse" r="1" xlink:href="#k"/><radialGradient id="m" cx="0" cy="0" gradientTransform="matrix(-.31249959 2.68750246 -7.24649541 -.84261387 15.0409 23.75)" gradientUnits="userSpaceOnUse" r="1" xlink:href="#k"/><radialGradient id="n" cx="0" cy="0" gradientTransform="matrix(-3.87501334 2.24997288 -2.76499225 -4.76200488 30.4784 27)" gradientUnits="userSpaceOnUse" r="1"><stop offset="0" stop-color="#59d993"/><stop offset="1" stop-color="#59d993" stop-opacity="0"/></radialGradient><radialGradient id="o" cx="0" cy="0" gradientTransform="matrix(-4.12661283 4.90624278 -4.98797599 -4.19535817 29.98 2.5625)" gradientUnits="userSpaceOnUse" r="1"><stop offset="0" stop-color="#64e69a"/><stop offset="1" stop-color="#64e69a" stop-opacity="0"/></radialGradient><radialGradient id="p" cx="0" cy="0" gradientTransform="matrix(-3.43750295 2.43749245 -3.76246106 -5.30605581 21.1034 11.5625)" gradientUnits="userSpaceOnUse" r="1" xlink:href="#k"/><linearGradient id="q" gradientUnits="userSpaceOnUse" x1="24.666" x2="24.666" xlink:href="#k" y1="1.125" y2="6.063"/><radialGradient id="r" cx="0" cy="0" gradientTransform="matrix(-2.40626523 5.37499414 -5.68044266 -2.54300774 13.4784 12.7187)" gradientUnits="userSpaceOnUse" r="1"><stop offset="0" stop-color="#43b096"/><stop offset=".957" stop-color="#43b096" stop-opacity="0"/></radialGradient><linearGradient id="s"><stop offset="0" stop-color="#8596da"/><stop offset=".957" stop-color="#8596da" stop-opacity="0"/></linearGradient><radialGradient id="t" cx="0" cy="0" gradientTransform="matrix(-1.03121828 4.06251199 -4.58292759 -1.16331933 12.1034 14.0313)" gradientUnits="userSpaceOnUse" r="1" xlink:href="#s"/><radialGradient id="u" cx="0" cy="0" gradientTransform="matrix(-3.37500271 .93749371 -.56400198 -2.03042238 22.6972 8.59375)" gradientUnits="userSpaceOnUse" r="1" xlink:href="#s"/><linearGradient id="v"><stop offset="0" stop-color="#3cb373"/><stop offset="1" stop-color="#3cb373" stop-opacity="0"/></linearGradient><radialGradient id="w" cx="0" cy="0" gradientTransform="matrix(0 -3.28125 4.65625 0 23.4159 18.5625)" gradientUnits="userSpaceOnUse" r="1" xlink:href="#v"/><radialGradient id="x" cx="0" cy="0" gradientTransform="matrix(-2.40625 0 0 -6.84375 25.0097 14.3438)" gradientUnits="userSpaceOnUse" r="1" xlink:href="#v"/><radialGradient id="y" cx="0" cy="0" gradientTransform="matrix(2.59374849 -2.84374487 6.09447045 5.55869962 19.1347 7.90625)" gradientUnits="userSpaceOnUse" r="1"><stop offset="0" stop-color="#41a591"/><stop offset="1" stop-color="#41a591" stop-opacity="0"/></radialGradient><linearGradient id="z" gradientUnits="userSpaceOnUse" x1="25.183" x2="8.527" y1="4.594" y2="4.594"><stop offset="0" stop-color="#47d38d"/><stop offset="1" stop-color="#47d38d" stop-opacity="0"/></linearGradient><linearGradient id="A" gradientUnits="userSpaceOnUse" x1="24.022" x2="23.393" y1="4.887" y2="4.887"><stop offset=".225" stop-color="#594c4f"/><stop offset="1" stop-color="#392833"/></linearGradient><linearGradient id="B" gradientUnits="userSpaceOnUse" x1="24.192" x2="24.192" y1="5.936" y2="4.966"><stop offset="0" stop-color="#492847"/><stop offset="1" stop-color="#552d52" stop-opacity="0"/></linearGradient><radialGradient id="C" cx="0" cy="0" gradientTransform="matrix(-.32437938 -1.15131617 1.30773631 -.36845022 23.5959 5.17416)" gradientUnits="userSpaceOnUse" r="1"><stop offset=".814" stop-color="#594c4f" stop-opacity="0"/><stop offset="1" stop-color="#594c4f"/></radialGradient><linearGradient id="D" gradientUnits="userSpaceOnUse" x1="4.666" x2="1.976" y1="16.42" y2="16.42"><stop offset="0" stop-color="#b4bb3d"/><stop offset="1" stop-color="#a9b63e"/></linearGradient><linearGradient id="E" gradientUnits="userSpaceOnUse" x1="3.353" x2="5.385" y1="11.344" y2="12.719"><stop offset="0" stop-color="#a9be3c"/><stop offset="1" stop-color="#b1be36"/></linearGradient><linearGradient id="F" gradientUnits="userSpaceOnUse" x1="6.666" x2="8.041" y1="7.969" y2="10.128"><stop offset="0" stop-color="#b0ca47"/><stop offset="1" stop-color="#b5c637"/></linearGradient><linearGradient id="G" gradientUnits="userSpaceOnUse" x1="11.466" x2="11.468" y1="6.459" y2="9"><stop offset="0" stop-color="#b2ce45"/><stop offset="1" stop-color="#bdcf42"/></linearGradient><linearGradient id="H"><stop offset="0" stop-color="#c8df4f"/><stop offset="1" stop-color="#cfe54c"/></linearGradient><linearGradient id="I" gradientUnits="userSpaceOnUse" x1="27.354" x2="30.197" xlink:href="#H" y1="17.244" y2="17.244"/><linearGradient id="J" gradientUnits="userSpaceOnUse" x1="27.356" x2="30.186" xlink:href="#H" y1="13.004" y2="13.004"/><linearGradient id="K" gradientUnits="userSpaceOnUse" x1="27.359" x2="30.175" xlink:href="#H" y1="9.004" y2="9.004"/><linearGradient id="L" gradientUnits="userSpaceOnUse" x1="28.084" x2="19.238" y1="26.878" y2="26.878"><stop offset="0" stop-color="#5fdba4"/><stop offset="1" stop-color="#5fdba4" stop-opacity="0"/></linearGradient><path d="m19.5584 5.99994c-1.4 0-2.75-.61-3.64-1.7-.03-.04-.06-.07-.09-.11-.17-.22-.49-.26-.71-.08-.21.17-.24.49-.07.71.35.45.76.85 1.21 1.18h-.81c-.27 0-.5.2-.52.47-.01.29.22.53.51.53h6v-1z" fill="url(#e)"/><path d="m19.5584 5.99994c-1.4 0-2.75-.61-3.64-1.7-.03-.04-.06-.07-.09-.11-.17-.22-.49-.26-.71-.08-.21.17-.24.49-.07.71.35.45.76.85 1.21 1.18h-.81c-.27 0-.5.2-.52.47-.01.29.22.53.51.53h6v-1z" fill="url(#g)"/><path d="m19.5584 5.99994c-1.4 0-2.75-.61-3.64-1.7-.03-.04-.06-.07-.09-.11-.17-.22-.49-.26-.71-.08-.21.17-.24.49-.07.71.35.45.76.85 1.21 1.18h-.81c-.27 0-.5.2-.52.47-.01.29.22.53.51.53h6v-1z" fill="url(#h)"/><path d="m29.7684 28.39c-1.65-2.15-4.2-3.41-6.91-3.41h-5.24c-3.22 0-5.9-.75-7.75997-2.18-1.9-1.46-2.87-3.62-2.87-6.43 0-2.46 2.01-4.45 4.46997-4.43 2.42.02 4.44 2.02 4.47 4.44v.54c0 2.24 1.03 4.37 2.83 5.7 1.18.87 2.62 1.38 4.18 1.38 3.88 0 7.04-3.16 7.04-7.04l-.04-12.15c0-1.55-1.26-2.81-2.82-2.81h-9.56c-.35 0-.63.28-.62.63 0 2.97 2.4 5.37 5.37 5.37h2.3c.17 0 .31.14.31.31l.04 8.65c0 1.1-.88 1.99-1.98 2.02-1.13.03-2.05-.91-2.05-2.04v-.74c-.09-5.13-4.37-9.27-9.52-9.27-5.31997 0-9.52997 4.46-9.42997 9.78.08 4.23 1.75 7.7 4.82 10.07 2.75 2.11 6.47997 3.22 10.81997 3.22h11.36c.83 0 1.3-.95.79-1.61z" fill="#46ba9a"/><path d="m29.7684 28.39c-1.65-2.15-4.2-3.41-6.91-3.41h-5.24c-3.22 0-5.9-.75-7.75997-2.18-1.9-1.46-2.87-3.62-2.87-6.43 0-2.46 2.01-4.45 4.46997-4.43 2.42.02 4.44 2.02 4.47 4.44v.54c0 2.24 1.03 4.37 2.83 5.7 1.18.87 2.62 1.38 4.18 1.38 3.88 0 7.04-3.16 7.04-7.04l-.04-12.15c0-1.55-1.26-2.81-2.82-2.81h-9.56c-.35 0-.63.28-.62.63 0 2.97 2.4 5.37 5.37 5.37h2.3c.17 0 .31.14.31.31l.04 8.65c0 1.1-.88 1.99-1.98 2.02-1.13.03-2.05-.91-2.05-2.04v-.74c-.09-5.13-4.37-9.27-9.52-9.27-5.31997 0-9.52997 4.46-9.42997 9.78.08 4.23 1.75 7.7 4.82 10.07 2.75 2.11 6.47997 3.22 10.81997 3.22h11.36c.83 0 1.3-.95.79-1.61z" fill="url(#i)"/><path d="m29.7684 28.39c-1.65-2.15-4.2-3.41-6.91-3.41h-5.24c-3.22 0-5.9-.75-7.75997-2.18-1.9-1.46-2.87-3.62-2.87-6.43 0-2.46 2.01-4.45 4.46997-4.43 2.42.02 4.44 2.02 4.47 4.44v.54c0 2.24 1.03 4.37 2.83 5.7 1.18.87 2.62 1.38 4.18 1.38 3.88 0 7.04-3.16 7.04-7.04l-.04-12.15c0-1.55-1.26-2.81-2.82-2.81h-9.56c-.35 0-.63.28-.62.63 0 2.97 2.4 5.37 5.37 5.37h2.3c.17 0 .31.14.31.31l.04 8.65c0 1.1-.88 1.99-1.98 2.02-1.13.03-2.05-.91-2.05-2.04v-.74c-.09-5.13-4.37-9.27-9.52-9.27-5.31997 0-9.52997 4.46-9.42997 9.78.08 4.23 1.75 7.7 4.82 10.07 2.75 2.11 6.47997 3.22 10.81997 3.22h11.36c.83 0 1.3-.95.79-1.61z" fill="url(#j)"/><path d="m29.7684 28.39c-1.65-2.15-4.2-3.41-6.91-3.41h-5.24c-3.22 0-5.9-.75-7.75997-2.18-1.9-1.46-2.87-3.62-2.87-6.43 0-2.46 2.01-4.45 4.46997-4.43 2.42.02 4.44 2.02 4.47 4.44v.54c0 2.24 1.03 4.37 2.83 5.7 1.18.87 2.62 1.38 4.18 1.38 3.88 0 7.04-3.16 7.04-7.04l-.04-12.15c0-1.55-1.26-2.81-2.82-2.81h-9.56c-.35 0-.63.28-.62.63 0 2.97 2.4 5.37 5.37 5.37h2.3c.17 0 .31.14.31.31l.04 8.65c0 1.1-.88 1.99-1.98 2.02-1.13.03-2.05-.91-2.05-2.04v-.74c-.09-5.13-4.37-9.27-9.52-9.27-5.31997 0-9.52997 4.46-9.42997 9.78.08 4.23 1.75 7.7 4.82 10.07 2.75 2.11 6.47997 3.22 10.81997 3.22h11.36c.83 0 1.3-.95.79-1.61z" fill="url(#l)"/><path d="m29.7684 28.39c-1.65-2.15-4.2-3.41-6.91-3.41h-5.24c-3.22 0-5.9-.75-7.75997-2.18-1.9-1.46-2.87-3.62-2.87-6.43 0-2.46 2.01-4.45 4.46997-4.43 2.42.02 4.44 2.02 4.47 4.44v.54c0 2.24 1.03 4.37 2.83 5.7 1.18.87 2.62 1.38 4.18 1.38 3.88 0 7.04-3.16 7.04-7.04l-.04-12.15c0-1.55-1.26-2.81-2.82-2.81h-9.56c-.35 0-.63.28-.62.63 0 2.97 2.4 5.37 5.37 5.37h2.3c.17 0 .31.14.31.31l.04 8.65c0 1.1-.88 1.99-1.98 2.02-1.13.03-2.05-.91-2.05-2.04v-.74c-.09-5.13-4.37-9.27-9.52-9.27-5.31997 0-9.52997 4.46-9.42997 9.78.08 4.23 1.75 7.7 4.82 10.07 2.75 2.11 6.47997 3.22 10.81997 3.22h11.36c.83 0 1.3-.95.79-1.61z" fill="url(#m)"/><path d="m29.7684 28.39c-1.65-2.15-4.2-3.41-6.91-3.41h-5.24c-3.22 0-5.9-.75-7.75997-2.18-1.9-1.46-2.87-3.62-2.87-6.43 0-2.46 2.01-4.45 4.46997-4.43 2.42.02 4.44 2.02 4.47 4.44v.54c0 2.24 1.03 4.37 2.83 5.7 1.18.87 2.62 1.38 4.18 1.38 3.88 0 7.04-3.16 7.04-7.04l-.04-12.15c0-1.55-1.26-2.81-2.82-2.81h-9.56c-.35 0-.63.28-.62.63 0 2.97 2.4 5.37 5.37 5.37h2.3c.17 0 .31.14.31.31l.04 8.65c0 1.1-.88 1.99-1.98 2.02-1.13.03-2.05-.91-2.05-2.04v-.74c-.09-5.13-4.37-9.27-9.52-9.27-5.31997 0-9.52997 4.46-9.42997 9.78.08 4.23 1.75 7.7 4.82 10.07 2.75 2.11 6.47997 3.22 10.81997 3.22h11.36c.83 0 1.3-.95.79-1.61z" fill="url(#n)"/><path d="m29.7684 28.39c-1.65-2.15-4.2-3.41-6.91-3.41h-5.24c-3.22 0-5.9-.75-7.75997-2.18-1.9-1.46-2.87-3.62-2.87-6.43 0-2.46 2.01-4.45 4.46997-4.43 2.42.02 4.44 2.02 4.47 4.44v.54c0 2.24 1.03 4.37 2.83 5.7 1.18.87 2.62 1.38 4.18 1.38 3.88 0 7.04-3.16 7.04-7.04l-.04-12.15c0-1.55-1.26-2.81-2.82-2.81h-9.56c-.35 0-.63.28-.62.63 0 2.97 2.4 5.37 5.37 5.37h2.3c.17 0 .31.14.31.31l.04 8.65c0 1.1-.88 1.99-1.98 2.02-1.13.03-2.05-.91-2.05-2.04v-.74c-.09-5.13-4.37-9.27-9.52-9.27-5.31997 0-9.52997 4.46-9.42997 9.78.08 4.23 1.75 7.7 4.82 10.07 2.75 2.11 6.47997 3.22 10.81997 3.22h11.36c.83 0 1.3-.95.79-1.61z" fill="url(#o)"/><path d="m29.7684 28.39c-1.65-2.15-4.2-3.41-6.91-3.41h-5.24c-3.22 0-5.9-.75-7.75997-2.18-1.9-1.46-2.87-3.62-2.87-6.43 0-2.46 2.01-4.45 4.46997-4.43 2.42.02 4.44 2.02 4.47 4.44v.54c0 2.24 1.03 4.37 2.83 5.7 1.18.87 2.62 1.38 4.18 1.38 3.88 0 7.04-3.16 7.04-7.04l-.04-12.15c0-1.55-1.26-2.81-2.82-2.81h-9.56c-.35 0-.63.28-.62.63 0 2.97 2.4 5.37 5.37 5.37h2.3c.17 0 .31.14.31.31l.04 8.65c0 1.1-.88 1.99-1.98 2.02-1.13.03-2.05-.91-2.05-2.04v-.74c-.09-5.13-4.37-9.27-9.52-9.27-5.31997 0-9.52997 4.46-9.42997 9.78.08 4.23 1.75 7.7 4.82 10.07 2.75 2.11 6.47997 3.22 10.81997 3.22h11.36c.83 0 1.3-.95.79-1.61z" fill="url(#p)"/><path d="m29.7684 28.39c-1.65-2.15-4.2-3.41-6.91-3.41h-5.24c-3.22 0-5.9-.75-7.75997-2.18-1.9-1.46-2.87-3.62-2.87-6.43 0-2.46 2.01-4.45 4.46997-4.43 2.42.02 4.44 2.02 4.47 4.44v.54c0 2.24 1.03 4.37 2.83 5.7 1.18.87 2.62 1.38 4.18 1.38 3.88 0 7.04-3.16 7.04-7.04l-.04-12.15c0-1.55-1.26-2.81-2.82-2.81h-9.56c-.35 0-.63.28-.62.63 0 2.97 2.4 5.37 5.37 5.37h2.3c.17 0 .31.14.31.31l.04 8.65c0 1.1-.88 1.99-1.98 2.02-1.13.03-2.05-.91-2.05-2.04v-.74c-.09-5.13-4.37-9.27-9.52-9.27-5.31997 0-9.52997 4.46-9.42997 9.78.08 4.23 1.75 7.7 4.82 10.07 2.75 2.11 6.47997 3.22 10.81997 3.22h11.36c.83 0 1.3-.95.79-1.61z" fill="url(#q)"/><path d="m29.7684 28.39c-1.65-2.15-4.2-3.41-6.91-3.41h-5.24c-3.22 0-5.9-.75-7.75997-2.18-1.9-1.46-2.87-3.62-2.87-6.43 0-2.46 2.01-4.45 4.46997-4.43 2.42.02 4.44 2.02 4.47 4.44v.54c0 2.24 1.03 4.37 2.83 5.7 1.18.87 2.62 1.38 4.18 1.38 3.88 0 7.04-3.16 7.04-7.04l-.04-12.15c0-1.55-1.26-2.81-2.82-2.81h-9.56c-.35 0-.63.28-.62.63 0 2.97 2.4 5.37 5.37 5.37h2.3c.17 0 .31.14.31.31l.04 8.65c0 1.1-.88 1.99-1.98 2.02-1.13.03-2.05-.91-2.05-2.04v-.74c-.09-5.13-4.37-9.27-9.52-9.27-5.31997 0-9.52997 4.46-9.42997 9.78.08 4.23 1.75 7.7 4.82 10.07 2.75 2.11 6.47997 3.22 10.81997 3.22h11.36c.83 0 1.3-.95.79-1.61z" fill="url(#r)"/><path d="m29.7684 28.39c-1.65-2.15-4.2-3.41-6.91-3.41h-5.24c-3.22 0-5.9-.75-7.75997-2.18-1.9-1.46-2.87-3.62-2.87-6.43 0-2.46 2.01-4.45 4.46997-4.43 2.42.02 4.44 2.02 4.47 4.44v.54c0 2.24 1.03 4.37 2.83 5.7 1.18.87 2.62 1.38 4.18 1.38 3.88 0 7.04-3.16 7.04-7.04l-.04-12.15c0-1.55-1.26-2.81-2.82-2.81h-9.56c-.35 0-.63.28-.62.63 0 2.97 2.4 5.37 5.37 5.37h2.3c.17 0 .31.14.31.31l.04 8.65c0 1.1-.88 1.99-1.98 2.02-1.13.03-2.05-.91-2.05-2.04v-.74c-.09-5.13-4.37-9.27-9.52-9.27-5.31997 0-9.52997 4.46-9.42997 9.78.08 4.23 1.75 7.7 4.82 10.07 2.75 2.11 6.47997 3.22 10.81997 3.22h11.36c.83 0 1.3-.95.79-1.61z" fill="url(#t)"/><path d="m29.7684 28.39c-1.65-2.15-4.2-3.41-6.91-3.41h-5.24c-3.22 0-5.9-.75-7.75997-2.18-1.9-1.46-2.87-3.62-2.87-6.43 0-2.46 2.01-4.45 4.46997-4.43 2.42.02 4.44 2.02 4.47 4.44v.54c0 2.24 1.03 4.37 2.83 5.7 1.18.87 2.62 1.38 4.18 1.38 3.88 0 7.04-3.16 7.04-7.04l-.04-12.15c0-1.55-1.26-2.81-2.82-2.81h-9.56c-.35 0-.63.28-.62.63 0 2.97 2.4 5.37 5.37 5.37h2.3c.17 0 .31.14.31.31l.04 8.65c0 1.1-.88 1.99-1.98 2.02-1.13.03-2.05-.91-2.05-2.04v-.74c-.09-5.13-4.37-9.27-9.52-9.27-5.31997 0-9.52997 4.46-9.42997 9.78.08 4.23 1.75 7.7 4.82 10.07 2.75 2.11 6.47997 3.22 10.81997 3.22h11.36c.83 0 1.3-.95.79-1.61z" fill="url(#u)"/><path d="m29.7684 28.39c-1.65-2.15-4.2-3.41-6.91-3.41h-5.24c-3.22 0-5.9-.75-7.75997-2.18-1.9-1.46-2.87-3.62-2.87-6.43 0-2.46 2.01-4.45 4.46997-4.43 2.42.02 4.44 2.02 4.47 4.44v.54c0 2.24 1.03 4.37 2.83 5.7 1.18.87 2.62 1.38 4.18 1.38 3.88 0 7.04-3.16 7.04-7.04l-.04-12.15c0-1.55-1.26-2.81-2.82-2.81h-9.56c-.35 0-.63.28-.62.63 0 2.97 2.4 5.37 5.37 5.37h2.3c.17 0 .31.14.31.31l.04 8.65c0 1.1-.88 1.99-1.98 2.02-1.13.03-2.05-.91-2.05-2.04v-.74c-.09-5.13-4.37-9.27-9.52-9.27-5.31997 0-9.52997 4.46-9.42997 9.78.08 4.23 1.75 7.7 4.82 10.07 2.75 2.11 6.47997 3.22 10.81997 3.22h11.36c.83 0 1.3-.95.79-1.61z" fill="url(#w)"/><path d="m29.7684 28.39c-1.65-2.15-4.2-3.41-6.91-3.41h-5.24c-3.22 0-5.9-.75-7.75997-2.18-1.9-1.46-2.87-3.62-2.87-6.43 0-2.46 2.01-4.45 4.46997-4.43 2.42.02 4.44 2.02 4.47 4.44v.54c0 2.24 1.03 4.37 2.83 5.7 1.18.87 2.62 1.38 4.18 1.38 3.88 0 7.04-3.16 7.04-7.04l-.04-12.15c0-1.55-1.26-2.81-2.82-2.81h-9.56c-.35 0-.63.28-.62.63 0 2.97 2.4 5.37 5.37 5.37h2.3c.17 0 .31.14.31.31l.04 8.65c0 1.1-.88 1.99-1.98 2.02-1.13.03-2.05-.91-2.05-2.04v-.74c-.09-5.13-4.37-9.27-9.52-9.27-5.31997 0-9.52997 4.46-9.42997 9.78.08 4.23 1.75 7.7 4.82 10.07 2.75 2.11 6.47997 3.22 10.81997 3.22h11.36c.83 0 1.3-.95.79-1.61z" fill="url(#x)"/><path d="m29.7684 28.39c-1.65-2.15-4.2-3.41-6.91-3.41h-5.24c-3.22 0-5.9-.75-7.75997-2.18-1.9-1.46-2.87-3.62-2.87-6.43 0-2.46 2.01-4.45 4.46997-4.43 2.42.02 4.44 2.02 4.47 4.44v.54c0 2.24 1.03 4.37 2.83 5.7 1.18.87 2.62 1.38 4.18 1.38 3.88 0 7.04-3.16 7.04-7.04l-.04-12.15c0-1.55-1.26-2.81-2.82-2.81h-9.56c-.35 0-.63.28-.62.63 0 2.97 2.4 5.37 5.37 5.37h2.3c.17 0 .31.14.31.31l.04 8.65c0 1.1-.88 1.99-1.98 2.02-1.13.03-2.05-.91-2.05-2.04v-.74c-.09-5.13-4.37-9.27-9.52-9.27-5.31997 0-9.52997 4.46-9.42997 9.78.08 4.23 1.75 7.7 4.82 10.07 2.75 2.11 6.47997 3.22 10.81997 3.22h11.36c.83 0 1.3-.95.79-1.61z" fill="url(#y)"/><g filter="url(#a)"><path d="m21.326 4.59375c-1.6045 0-2.558-.89181-2.9698-1.54552-.0947-.1504.0219-.32948.1997-.32948h9.0149c.1381 0 .25.11193.25.25v1.375c0 .13807-.1111.25-.2492.25z" fill="url(#z)"/></g><path d="m23.4792 6.03125c-.2969 0-.5431-.24619-.5431-.54306v-.94855c0-.29687.2462-.54306.5431-.54306.2968 0 .543.24619.543.54306v.94855c0 .30411-.2462.54306-.543.54306z" fill="url(#A)"/><path d="m23.4792 6.03125c-.2969 0-.5431-.24619-.5431-.54306v-.94855c0-.29687.2462-.54306.5431-.54306.2968 0 .543.24619.543.54306v.94855c0 .30411-.2462.54306-.543.54306z" fill="url(#B)"/><path d="m23.4792 6.03125c-.2969 0-.5431-.24619-.5431-.54306v-.94855c0-.29687.2462-.54306.5431-.54306.2968 0 .543.24619.543.54306v.94855c0 .30411-.2462.54306-.543.54306z" fill="url(#C)"/><path d="m4.03845 16.4199c0-.55-.45-1-1-1h-1c-.05.43-.07.86-.06 1.29 0 .24.02.47.03.71h1.03c.56 0 1-.45 1-1z" fill="url(#D)"/><path d="m4.66847 11.3401-.86-.5c-.39.54-.72 1.12-1 1.73l.86.5c.48.28 1.09.11 1.37-.37.28-.47.11-1.08-.37-1.36z" fill="url(#E)"/><path d="m7.75842 9.98999c.48-.28.64-.89.37-1.37l-.52-.88c-.61.28-1.19.62-1.73 1.01l.51.88c.28.48001.89.64001 1.37.36z" fill="url(#F)"/><path d="m10.4684 6.97993v1.02c0 .55.45 1 1 1s1-.45 1-1v-1.01c-.35-.04-.7-.06-1.05-.06-.32 0-.64.02-.95.05z" fill="url(#G)"/><path d="m27.9285 17.24c0 .55.45 1 1 1h.93c.08-.41.12-.84.12-1.28v-.72h-1.05c-.55 0-1 .45-1 1z" fill="url(#I)"/><path d="m29.9585 12h-1.03c-.55 0-1 .45-1 1s.45 1 1 1h1.04z" fill="url(#J)"/><path d="m29.9485 8h-1.02c-.55 0-1 .45-1 1s.45 1 1 1h1.03z" fill="url(#K)"/><g filter="url(#b)"><path d="m11.1822 10.1277c-1.56246 0-6.49996.75-5.96871 6.9375s4.35875 8.2785 8.92121 9.2472c2.5429.5399 6.3913.5653 8.235.5653" stroke="#57e0a3" stroke-linecap="round"/></g><g filter="url(#c)"><path d="m28.8534 28.7499c-.75-.6657-3.4632-1.8722-5.9784-1.8722-2.3425 0-3.1439 0-4.1302 0" stroke="url(#L)" stroke-linecap="round"/></g><g filter="url(#d)"><path d="m14.1035 9.1875c1.7291.20833 5.1875 1.875 5.1875 7.25 0 4.75 3.1406 5.4531 5.0468 5.2344 1.9063-.2188 3.8907-1.4844 3.8907-5.9219 0-3.55 0-9.02083 0-11.3125" stroke="#50e69b" stroke-linecap="round"/></g></svg>