<svg fill="none" height="32" viewBox="0 0 32 32" width="32" xmlns="http://www.w3.org/2000/svg" xmlns:xlink="http://www.w3.org/1999/xlink"><filter id="a" color-interpolation-filters="sRGB" filterUnits="userSpaceOnUse" height="14.447" width="12.729" x="18.392" y="5.656"><feFlood flood-opacity="0" result="BackgroundImageFix"/><feBlend in="SourceGraphic" in2="BackgroundImageFix" mode="normal" result="shape"/><feGaussianBlur result="effect1_foregroundBlur_28327_3739" stdDeviation=".75"/></filter><filter id="b" color-interpolation-filters="sRGB" filterUnits="userSpaceOnUse" height="8.74" width="8.79" x="6.04" y="1.947"><feFlood flood-opacity="0" result="BackgroundImageFix"/><feBlend in="SourceGraphic" in2="BackgroundImageFix" mode="normal" result="shape"/><feColorMatrix in="SourceAlpha" result="hardAlpha" type="matrix" values="0 0 0 0 0 0 0 0 0 0 0 0 0 0 0 0 0 0 127 0"/><feOffset dx=".15" dy="-.1"/><feGaussianBlur stdDeviation=".25"/><feComposite in2="hardAlpha" k2="-1" k3="1" operator="arithmetic"/><feColorMatrix type="matrix" values="0 0 0 0 0.572549 0 0 0 0 0.568627 0 0 0 0 0.576471 0 0 0 1 0"/><feBlend in2="shape" mode="normal" result="effect1_innerShadow_28327_3739"/></filter><filter id="c" color-interpolation-filters="sRGB" filterUnits="userSpaceOnUse" height="5.964" width="6.4" x="6.453" y="1.958"><feFlood flood-opacity="0" result="BackgroundImageFix"/><feBlend in="SourceGraphic" in2="BackgroundImageFix" mode="normal" result="shape"/><feGaussianBlur result="effect1_foregroundBlur_28327_3739" stdDeviation=".5"/></filter><filter id="d" color-interpolation-filters="sRGB" filterUnits="userSpaceOnUse" height="13.75" width="15.67" x="2.04" y="2.047"><feFlood flood-opacity="0" result="BackgroundImageFix"/><feBlend in="SourceGraphic" in2="BackgroundImageFix" mode="normal" result="shape"/><feColorMatrix in="SourceAlpha" result="hardAlpha" type="matrix" values="0 0 0 0 0 0 0 0 0 0 0 0 0 0 0 0 0 0 127 0"/><feOffset dy=".75"/><feGaussianBlur stdDeviation=".75"/><feComposite in2="hardAlpha" k2="-1" k3="1" operator="arithmetic"/><feColorMatrix type="matrix" values="0 0 0 0 0.384314 0 0 0 0 0.376471 0 0 0 0 0.396078 0 0 0 1 0"/><feBlend in2="shape" mode="normal" result="effect1_innerShadow_28327_3739"/><feColorMatrix in="SourceAlpha" result="hardAlpha" type="matrix" values="0 0 0 0 0 0 0 0 0 0 0 0 0 0 0 0 0 0 127 0"/><feOffset dy=".25"/><feGaussianBlur stdDeviation=".25"/><feComposite in2="hardAlpha" k2="-1" k3="1" operator="arithmetic"/><feColorMatrix type="matrix" values="0 0 0 0 0.541176 0 0 0 0 0.537255 0 0 0 0 0.541176 0 0 0 1 0"/><feBlend in2="effect1_innerShadow_28327_3739" mode="normal" result="effect2_innerShadow_28327_3739"/></filter><filter id="e" color-interpolation-filters="sRGB" filterUnits="userSpaceOnUse" height="5.875" width="5.875" x="24.61" y="15.484"><feFlood flood-opacity="0" result="BackgroundImageFix"/><feBlend in="SourceGraphic" in2="BackgroundImageFix" mode="normal" result="shape"/><feGaussianBlur result="effect1_foregroundBlur_28327_3739" stdDeviation=".5"/></filter><filter id="f" color-interpolation-filters="sRGB" filterUnits="userSpaceOnUse" height="6.061" width="3.608" x="10.513" y="8.634"><feFlood flood-opacity="0" result="BackgroundImageFix"/><feBlend in="SourceGraphic" in2="BackgroundImageFix" mode="normal" result="shape"/><feGaussianBlur result="effect1_foregroundBlur_28327_3739" stdDeviation=".5"/></filter><filter id="g" color-interpolation-filters="sRGB" filterUnits="userSpaceOnUse" height="4.794" width="2.42" x="9.408" y="5.103"><feFlood flood-opacity="0" result="BackgroundImageFix"/><feBlend in="SourceGraphic" in2="BackgroundImageFix" mode="normal" result="shape"/><feGaussianBlur result="effect1_foregroundBlur_28327_3739" stdDeviation=".15"/></filter><filter id="h" color-interpolation-filters="sRGB" filterUnits="userSpaceOnUse" height="4.234" width="3.329" x="14.29" y="2.217"><feFlood flood-opacity="0" result="BackgroundImageFix"/><feBlend in="SourceGraphic" in2="BackgroundImageFix" mode="normal" result="shape"/><feGaussianBlur result="effect1_foregroundBlur_28327_3739" stdDeviation=".15"/></filter><linearGradient id="i" gradientUnits="userSpaceOnUse" x1="19.102" x2="19.102" y1="7.86" y2="22.438"><stop offset="0" stop-color="#665f6d"/><stop offset="1" stop-color="#5b5463"/></linearGradient><radialGradient id="j" cx="0" cy="0" gradientTransform="matrix(-4.24997361 -5.75001351 5.37066639 -3.96958901 26.415 18.6279)" gradientUnits="userSpaceOnUse" r="1"><stop offset="0" stop-color="#5c5a5d"/><stop offset="1" stop-color="#5c5a5d" stop-opacity="0"/></radialGradient><radialGradient id="k" cx="0" cy="0" gradientTransform="matrix(-5.12498541 -1.31253606 1.04821724 -4.09291462 22.5575 19.25)" gradientUnits="userSpaceOnUse" r="1"><stop offset=".199" stop-color="#3b3145"/><stop offset="1" stop-color="#3b3145" stop-opacity="0"/></radialGradient><radialGradient id="l" cx="0" cy="0" gradientTransform="matrix(-5.75 0 0 -1.87674 21.0262 20.3125)" gradientUnits="userSpaceOnUse" r="1"><stop offset=".245" stop-color="#3b3145"/><stop offset="1" stop-color="#3b3145" stop-opacity="0"/></radialGradient><linearGradient id="m"><stop offset="0" stop-color="#673d85"/><stop offset="1" stop-color="#673d85" stop-opacity="0"/></linearGradient><radialGradient id="n" cx="0" cy="0" gradientTransform="matrix(.98249899 -3.55958638 13.0807707 3.61048803 16.7137 22.0313)" gradientUnits="userSpaceOnUse" r="1" xlink:href="#m"/><radialGradient id="o" cx="0" cy="0" gradientTransform="matrix(4.00000337 -5.03125239 10.7201661 8.52286811 16.7137 25.25)" gradientUnits="userSpaceOnUse" r="1"><stop offset="0" stop-color="#673d85"/><stop offset=".601" stop-color="#673d85" stop-opacity="0"/></radialGradient><linearGradient id="p"><stop offset="0" stop-color="#474247"/><stop offset="1" stop-color="#474247" stop-opacity="0"/></linearGradient><radialGradient id="q" cx="0" cy="0" gradientTransform="matrix(2.31249854 4.24999589 -4.80027127 2.61191319 11.29 9.92211)" gradientUnits="userSpaceOnUse" r="1" xlink:href="#p"/><radialGradient id="r" cx="0" cy="0" gradientTransform="matrix(7.34374975 -3.87500002 1.00116655 1.89737201 12.1512 11.6875)" gradientUnits="userSpaceOnUse" r="1" xlink:href="#p"/><radialGradient id="s" cx="0" cy="0" gradientTransform="matrix(-1.65626665 2.68749121 -2.43106658 -1.49823541 11.2762 13.1875)" gradientUnits="userSpaceOnUse" r="1" xlink:href="#p"/><radialGradient id="t" cx="0" cy="0" gradientTransform="matrix(-4.56249903 4.12499384 -7.66005998 -8.47250145 30.4012 7.25001)" gradientUnits="userSpaceOnUse" r="1"><stop offset="0" stop-color="#898989"/><stop offset="1" stop-color="#898989" stop-opacity="0"/></radialGradient><radialGradient id="u" cx="0" cy="0" gradientTransform="matrix(11.45219861 3.22232472 -2.62439252 9.32713707 18.1865 10.3579)" gradientUnits="userSpaceOnUse" r="1"><stop offset=".521" stop-color="#908f92" stop-opacity="0"/><stop offset="1" stop-color="#908f92"/></radialGradient><radialGradient id="v" cx="0" cy="0" gradientTransform="matrix(-2.9062384 -2.03126821 2.65449966 -3.79792723 8.94629 7.04712)" gradientUnits="userSpaceOnUse" r="1"><stop offset="0" stop-color="#464346"/><stop offset="1" stop-color="#625c62"/></radialGradient><radialGradient id="w" cx="0" cy="0" gradientTransform="matrix(-1.8675333 3.68748735 -3.68748735 -1.8675333 12.2275 1.29712)" gradientUnits="userSpaceOnUse" r="1"><stop offset="0" stop-color="#706f6f"/><stop offset="1" stop-color="#706f6f" stop-opacity="0"/></radialGradient><linearGradient id="x" gradientUnits="userSpaceOnUse" x1="11.165" x2="7.868" y1="3.208" y2="6.766"><stop offset="0" stop-color="#827b7e"/><stop offset="1" stop-color="#827b7e" stop-opacity="0"/></linearGradient><linearGradient id="y"><stop offset="0" stop-color="#cd717c"/><stop offset="1" stop-color="#c14b76"/></linearGradient><linearGradient id="z" gradientUnits="userSpaceOnUse" x1="17.852" x2="25.72" xlink:href="#y" y1="21.987" y2="21.987"/><linearGradient id="A"><stop offset="0" stop-color="#c35385"/><stop offset="1" stop-color="#c35385" stop-opacity="0"/></linearGradient><linearGradient id="B" gradientUnits="userSpaceOnUse" x1="20.86" x2="20.86" xlink:href="#A" y1="23.25" y2="22.344"/><linearGradient id="C" gradientUnits="userSpaceOnUse" x1="22.745" x2="19.433" xlink:href="#A" y1="22.344" y2="22.344"/><linearGradient id="D"><stop offset="0" stop-color="#d18496"/><stop offset=".546" stop-color="#d18496" stop-opacity="0"/></linearGradient><radialGradient id="E" cx="0" cy="0" gradientTransform="matrix(1.29687588 -.70312659 .72263008 1.33284893 16.0869 22.5784)" gradientUnits="userSpaceOnUse" r="1" xlink:href="#D"/><linearGradient id="F" gradientUnits="userSpaceOnUse" x1="11.445" x2="11.355" y1="15.673" y2="7.929"><stop offset="0" stop-color="#673d85"/><stop offset=".321" stop-color="#673d85" stop-opacity="0"/></linearGradient><radialGradient id="G" cx="0" cy="0" gradientTransform="matrix(-.40929529 .56670932 -.50524389 -.36490302 7.10953 11.4088)" gradientUnits="userSpaceOnUse" r="1"><stop offset=".006" stop-color="#433437"/><stop offset="1" stop-color="#3b2838"/></radialGradient><radialGradient id="H" cx="0" cy="0" gradientTransform="matrix(-.22038584 .29909892 -.25212772 -.18577593 7.12527 11.4639)" gradientUnits="userSpaceOnUse" r="1"><stop offset="0" stop-color="#5c5051"/><stop offset="1" stop-color="#5c5051" stop-opacity="0"/></radialGradient><linearGradient id="I" gradientUnits="userSpaceOnUse" x1="15.878" x2="27.21" xlink:href="#y" y1="24.141" y2="24.141"/><linearGradient id="J" gradientUnits="userSpaceOnUse" x1="20.21" x2="20.21" xlink:href="#A" y1="31.049" y2="29.36"/><radialGradient id="K" cx="0" cy="0" gradientTransform="matrix(1.86792592 -3.84521888 3.70691402 1.80074034 13.3351 27.3743)" gradientUnits="userSpaceOnUse" r="1" xlink:href="#D"/><radialGradient id="L" cx="0" cy="0" gradientTransform="matrix(-2.3125 0 0 -2.3125 30.3388 22.8909)" gradientUnits="userSpaceOnUse" r="1"><stop offset="0" stop-color="#d18496"/><stop offset="1" stop-color="#d18496" stop-opacity="0"/></radialGradient><radialGradient id="M" cx="0" cy="0" gradientTransform="matrix(-5.15625 0 0 -6.11111 27.5538 22.5471)" gradientUnits="userSpaceOnUse" r="1"><stop offset="0" stop-color="#e88e9a"/><stop offset="1" stop-color="#e88e9a" stop-opacity="0"/></radialGradient><radialGradient id="N" cx="0" cy="0" gradientTransform="matrix(5.21874802 3.62500397 -4.33471453 6.240485 18.7587 16.8284)" gradientUnits="userSpaceOnUse" r="1"><stop offset="0" stop-color="#3d3a40"/><stop offset="1" stop-color="#3d3a40" stop-opacity="0"/></radialGradient><linearGradient id="O" gradientUnits="userSpaceOnUse" x1="23.509" x2="23.634" y1="13.172" y2="16.61"><stop offset="0" stop-color="#525153"/><stop offset="1" stop-color="#525153" stop-opacity="0"/></linearGradient><radialGradient id="P" cx="0" cy="0" gradientTransform="matrix(-2.75000024 -4.06249698 3.17915284 -2.15204371 20.7137 23.7813)" gradientUnits="userSpaceOnUse" r="1"><stop offset="0" stop-color="#7a7a7b"/><stop offset="1" stop-color="#7a7a7b" stop-opacity="0"/></radialGradient><linearGradient id="Q" gradientUnits="userSpaceOnUse" x1="25.808" x2="25.761" y1="23.438" y2="18.875"><stop offset="0" stop-color="#673d85"/><stop offset=".226" stop-color="#673d85" stop-opacity="0"/></linearGradient><radialGradient id="R" cx="0" cy="0" gradientTransform="matrix(0 -5.6875 7.5625 0 25.9012 24.7188)" gradientUnits="userSpaceOnUse" r="1" xlink:href="#m"/><radialGradient id="S" cx="0" cy="0" gradientTransform="matrix(-1.20312611 .25781807 -.67958752 -3.1713428 3.24316 13.2112)" gradientUnits="userSpaceOnUse" r="1"><stop offset="0" stop-color="#514049"/><stop offset="1" stop-color="#3c2a35"/></radialGradient><linearGradient id="T" gradientUnits="userSpaceOnUse" x1="2.931" x2="2.704" y1="14.742" y2="13.758"><stop offset="0" stop-color="#3c2a35"/><stop offset="1" stop-color="#3c2a35" stop-opacity="0"/></linearGradient><radialGradient id="U" cx="0" cy="0" gradientTransform="matrix(.19531116 1.01562062 -.55518918 .10676688 2.82129 12.3596)" gradientUnits="userSpaceOnUse" r="1"><stop offset="0" stop-color="#5c4f51"/><stop offset=".877" stop-color="#5c4f51" stop-opacity="0"/></radialGradient><linearGradient id="V" gradientUnits="userSpaceOnUse" x1="12.415" x2="11.415" y1="22.547" y2="22.328"><stop offset="0" stop-color="#7e7786"/><stop offset="1" stop-color="#7e7786" stop-opacity="0"/></linearGradient><linearGradient id="W" gradientUnits="userSpaceOnUse" x1="13.477" x2="13.032" y1="17.117" y2="18.508"><stop offset="0" stop-color="#605968"/><stop offset="1" stop-color="#605968" stop-opacity="0"/></linearGradient><linearGradient id="X" gradientUnits="userSpaceOnUse" x1="11.48" x2="11.48" y1="23.625" y2="21.785"><stop offset="0" stop-color="#673d85"/><stop offset=".784" stop-color="#673d85" stop-opacity="0"/></linearGradient><linearGradient id="Y" gradientUnits="userSpaceOnUse" x1="9.183" x2="10.182" y1="19.656" y2="19.969"><stop offset="0" stop-color="#56535a"/><stop offset="1" stop-color="#56535a" stop-opacity="0"/></linearGradient><radialGradient id="Z" cx="0" cy="0" gradientTransform="matrix(-2.06250491 2.74999632 -1.87499749 -1.40625335 28.1106 17.8909)" gradientUnits="userSpaceOnUse" r="1"><stop offset="0" stop-color="#7a7a7b"/><stop offset=".809" stop-color="#7a7a7b" stop-opacity="0"/></radialGradient><linearGradient id="aa" gradientUnits="userSpaceOnUse" x1="10.274" x2="9.649" y1="17.203" y2="16.86"><stop offset="0" stop-color="#89888b"/><stop offset="1" stop-color="#89888b" stop-opacity="0"/></linearGradient><linearGradient id="ab" gradientUnits="userSpaceOnUse" x1="8.853" x2="9.884" y1="17.313" y2="16.391"><stop offset="0" stop-color="#87838c"/><stop offset="1" stop-color="#87838c" stop-opacity="0"/></linearGradient><linearGradient id="ac" gradientUnits="userSpaceOnUse" x1="12.446" x2="10.024" y1="12.313" y2="16.094"><stop offset="0" stop-color="#848088"/><stop offset="1" stop-color="#848088" stop-opacity="0"/></linearGradient><radialGradient id="ad" cx="0" cy="0" gradientTransform="matrix(4.79224232 4.76132839 -5.27221354 5.30644451 12.6622 4.86285)" gradientUnits="userSpaceOnUse" r="1"><stop offset=".803" stop-color="#73518c" stop-opacity="0"/><stop offset="1" stop-color="#73518c"/></radialGradient><radialGradient id="ae" cx="0" cy="0" gradientTransform="matrix(-5.97282248 2.32798566 -5.49295335 -14.0930573 17.12 5.78124)" gradientUnits="userSpaceOnUse" r="1"><stop offset="0" stop-color="#767379"/><stop offset="1" stop-color="#767379" stop-opacity="0"/></radialGradient><radialGradient id="af" cx="0" cy="0" gradientTransform="matrix(-4.56437633 -2.00001164 1.97787371 -4.51385369 13.62 6.62499)" gradientUnits="userSpaceOnUse" r="1"><stop offset=".873" stop-color="#989799" stop-opacity="0"/><stop offset="1" stop-color="#989799"/></radialGradient><radialGradient id="ag" cx="0" cy="0" gradientTransform="matrix(-2.88878378 4.17162246 -5.36265018 -3.71355198 15.0087 4.76582)" gradientUnits="userSpaceOnUse" r="1"><stop offset="0" stop-color="#d06b6e"/><stop offset="1" stop-color="#b7454b"/></radialGradient><radialGradient id="ah" cx="0" cy="0" gradientTransform="matrix(2.53124713 -2.15624917 2.15624917 2.53124713 11.665 7.82833)" gradientUnits="userSpaceOnUse" r="1"><stop offset="0" stop-color="#d27a7b"/><stop offset="1" stop-color="#d27a7b" stop-opacity="0"/></radialGradient><linearGradient id="ai"><stop offset="0" stop-color="#868287" stop-opacity="0"/><stop offset=".333" stop-color="#868287"/><stop offset=".651" stop-color="#868287"/><stop offset="1" stop-color="#868287" stop-opacity="0"/></linearGradient><linearGradient id="aj" gradientUnits="userSpaceOnUse" x1="11.915" x2="8.384" xlink:href="#ai" y1="9.547" y2="8.218"/><linearGradient id="ak" gradientUnits="userSpaceOnUse" x1="14.217" x2="17.971" xlink:href="#ai" y1="2.68" y2="3.05"/><path d="m6.79999 9.50541 12.56001-3.22999c5.59-1.21 10.68 3.24 10.68 8.95998-.0002.0646-.0015.129-.0037.193h.0037v4.9156l-5.2929.8778v-.1734c-.1866.0179-.3758.027-.5671.027h-7.73c-1.4 0-2.73-.52-3.93-1.1l-.61 2.35c-.14.54-.45.74-.87.74h-2.16001c-.2 0-.35001-.2-.3-.4l1.21-4.73c-1.1-1.2-1.89-2.71-2.22-4.41z" fill="url(#i)"/><path d="m6.79999 9.50541 12.56001-3.22999c5.59-1.21 10.68 3.24 10.68 8.95998-.0002.0646-.0015.129-.0037.193h.0037v4.9156l-5.2929.8778v-.1734c-.1866.0179-.3758.027-.5671.027h-7.73c-1.4 0-2.73-.52-3.93-1.1l-.61 2.35c-.14.54-.45.74-.87.74h-2.16001c-.2 0-.35001-.2-.3-.4l1.21-4.73c-1.1-1.2-1.89-2.71-2.22-4.41z" fill="url(#j)"/><path d="m6.79999 9.50541 12.56001-3.22999c5.59-1.21 10.68 3.24 10.68 8.95998-.0002.0646-.0015.129-.0037.193h.0037v4.9156l-5.2929.8778v-.1734c-.1866.0179-.3758.027-.5671.027h-7.73c-1.4 0-2.73-.52-3.93-1.1l-.61 2.35c-.14.54-.45.74-.87.74h-2.16001c-.2 0-.35001-.2-.3-.4l1.21-4.73c-1.1-1.2-1.89-2.71-2.22-4.41z" fill="url(#k)"/><path d="m6.79999 9.50541 12.56001-3.22999c5.59-1.21 10.68 3.24 10.68 8.95998-.0002.0646-.0015.129-.0037.193h.0037v4.9156l-5.2929.8778v-.1734c-.1866.0179-.3758.027-.5671.027h-7.73c-1.4 0-2.73-.52-3.93-1.1l-.61 2.35c-.14.54-.45.74-.87.74h-2.16001c-.2 0-.35001-.2-.3-.4l1.21-4.73c-1.1-1.2-1.89-2.71-2.22-4.41z" fill="url(#l)"/><path d="m6.79999 9.50541 12.56001-3.22999c5.59-1.21 10.68 3.24 10.68 8.95998-.0002.0646-.0015.129-.0037.193h.0037v4.9156l-5.2929.8778v-.1734c-.1866.0179-.3758.027-.5671.027h-7.73c-1.4 0-2.73-.52-3.93-1.1l-.61 2.35c-.14.54-.45.74-.87.74h-2.16001c-.2 0-.35001-.2-.3-.4l1.21-4.73c-1.1-1.2-1.89-2.71-2.22-4.41z" fill="url(#n)"/><path d="m6.79999 9.50541 12.56001-3.22999c5.59-1.21 10.68 3.24 10.68 8.95998-.0002.0646-.0015.129-.0037.193h.0037v4.9156l-5.2929.8778v-.1734c-.1866.0179-.3758.027-.5671.027h-7.73c-1.4 0-2.73-.52-3.93-1.1l-.61 2.35c-.14.54-.45.74-.87.74h-2.16001c-.2 0-.35001-.2-.3-.4l1.21-4.73c-1.1-1.2-1.89-2.71-2.22-4.41z" fill="url(#o)"/><path d="m6.79999 9.50541 12.56001-3.22999c5.59-1.21 10.68 3.24 10.68 8.95998-.0002.0646-.0015.129-.0037.193h.0037v4.9156l-5.2929.8778v-.1734c-.1866.0179-.3758.027-.5671.027h-7.73c-1.4 0-2.73-.52-3.93-1.1l-.61 2.35c-.14.54-.45.74-.87.74h-2.16001c-.2 0-.35001-.2-.3-.4l1.21-4.73c-1.1-1.2-1.89-2.71-2.22-4.41z" fill="url(#q)"/><path d="m6.79999 9.50541 12.56001-3.22999c5.59-1.21 10.68 3.24 10.68 8.95998-.0002.0646-.0015.129-.0037.193h.0037v4.9156l-5.2929.8778v-.1734c-.1866.0179-.3758.027-.5671.027h-7.73c-1.4 0-2.73-.52-3.93-1.1l-.61 2.35c-.14.54-.45.74-.87.74h-2.16001c-.2 0-.35001-.2-.3-.4l1.21-4.73c-1.1-1.2-1.89-2.71-2.22-4.41z" fill="url(#r)"/><path d="m6.79999 9.50541 12.56001-3.22999c5.59-1.21 10.68 3.24 10.68 8.95998-.0002.0646-.0015.129-.0037.193h.0037v4.9156l-5.2929.8778v-.1734c-.1866.0179-.3758.027-.5671.027h-7.73c-1.4 0-2.73-.52-3.93-1.1l-.61 2.35c-.14.54-.45.74-.87.74h-2.16001c-.2 0-.35001-.2-.3-.4l1.21-4.73c-1.1-1.2-1.89-2.71-2.22-4.41z" fill="url(#s)"/><path d="m6.79999 9.50541 12.56001-3.22999c5.59-1.21 10.68 3.24 10.68 8.95998-.0002.0646-.0015.129-.0037.193h.0037v4.9156l-5.2929.8778v-.1734c-.1866.0179-.3758.027-.5671.027h-7.73c-1.4 0-2.73-.52-3.93-1.1l-.61 2.35c-.14.54-.45.74-.87.74h-2.16001c-.2 0-.35001-.2-.3-.4l1.21-4.73c-1.1-1.2-1.89-2.71-2.22-4.41z" fill="url(#t)"/><g filter="url(#a)"><ellipse cx="24.756" cy="12.88" fill="url(#u)" rx="4.113" ry="6.284" transform="matrix(.83734108 -.54668082 .54668082 .83734108 -3.014213 15.628722)"/></g><g filter="url(#b)"><path d="m10.36 10.6871c2.3859 0 4.32-1.93411 4.32-4.31998s-1.9341-4.32-4.32-4.32c-2.38583 0-4.31996 1.93413-4.31996 4.32s1.93413 4.31998 4.31996 4.31998z" fill="url(#v)"/><path d="m10.36 10.6871c2.3859 0 4.32-1.93411 4.32-4.31998s-1.9341-4.32-4.32-4.32c-2.38583 0-4.31996 1.93413-4.31996 4.32s1.93413 4.31998 4.31996 4.31998z" fill="url(#w)"/></g><g filter="url(#c)"><path d="m7.72751 6.67213c-.08334-.54167-.00625-1.84375.96875-2.71875s2.34374-.80209 2.90624-.65625" stroke="url(#x)" stroke-linecap="round" stroke-width=".5"/></g><path d="m24.64 20.9071h-7.56c-.6 0-1.08.48-1.08 1.08s.48 1.08 1.08 1.08h7.56c.6 0 1.08-.48 1.08-1.08s-.48-1.08-1.08-1.08z" fill="url(#z)"/><path d="m24.64 20.9071h-7.56c-.6 0-1.08.48-1.08 1.08s.48 1.08 1.08 1.08h7.56c.6 0 1.08-.48 1.08-1.08s-.48-1.08-1.08-1.08z" fill="url(#B)"/><path d="m24.64 20.9071h-7.56c-.6 0-1.08.48-1.08 1.08s.48 1.08 1.08 1.08h7.56c.6 0 1.08-.48 1.08-1.08s-.48-1.08-1.08-1.08z" fill="url(#C)"/><path d="m24.64 20.9071h-7.56c-.6 0-1.08.48-1.08 1.08s.48 1.08 1.08 1.08h7.56c.6 0 1.08-.48 1.08-1.08s-.48-1.08-1.08-1.08z" fill="url(#E)"/><g filter="url(#d)"><path d="m17.71 6.37712c0-2.39-1.94-4.33-4.33-4.33s-4.33996 1.94-4.33996 4.33c0 .17.01.33.03.49l-6.12 4.28998c-.57.4-.91 1.05-.91 1.75 0 1.18.96 2.14 2.14 2.14h6.54996c1.78 0 3.23-1.45 3.23-3.23v-.922c0-.1249.0925-.2299.2152-.2531 2.0053-.3794 3.5348-2.14026 3.5348-4.26488z" fill="#635c6b"/><path d="m17.71 6.37712c0-2.39-1.94-4.33-4.33-4.33s-4.33996 1.94-4.33996 4.33c0 .17.01.33.03.49l-6.12 4.28998c-.57.4-.91 1.05-.91 1.75 0 1.18.96 2.14 2.14 2.14h6.54996c1.78 0 3.23-1.45 3.23-3.23v-.922c0-.1249.0925-.2299.2152-.2531 2.0053-.3794 3.5348-2.14026 3.5348-4.26488z" fill="url(#F)"/></g><path d="m6.95998 12.0746c.27821 0 .50375-.2255.50375-.5037s-.22554-.5038-.50375-.5038-.50374.2256-.50374.5038.22553.5037.50374.5037z" fill="url(#G)"/><path d="m6.95998 12.0746c.27821 0 .50375-.2255.50375-.5037s-.22554-.5038-.50375-.5038-.50374.2256-.50374.5038.22553.5037.50374.5037z" fill="url(#H)"/><path d="m25.7744 30.0371h-9.5844c-1.64 0-2.98-1.34-2.98-2.99s1.34-2.99 2.99-2.99h8.47c1.86 0 3.37-1.51 3.37-3.37v-1.4625c0-.55.45-1 1-1s1 .45 1 1v1.4625c0 2.96-2.41 5.37-5.37 5.37h-8.47c-.55 0-.99.44-.99.99s.44.99.99.99l8.1369.01c.55 0 1.1198.3014 1.6172 1 .289.406.3703.99-.1797.99z" fill="url(#I)"/><path d="m25.7744 30.0371h-9.5844c-1.64 0-2.98-1.34-2.98-2.99s1.34-2.99 2.99-2.99h8.47c1.86 0 3.37-1.51 3.37-3.37v-1.4625c0-.55.45-1 1-1s1 .45 1 1v1.4625c0 2.96-2.41 5.37-5.37 5.37h-8.47c-.55 0-.99.44-.99.99s.44.99.99.99l8.1369.01c.55 0 1.1198.3014 1.6172 1 .289.406.3703.99-.1797.99z" fill="url(#J)"/><path d="m25.7744 30.0371h-9.5844c-1.64 0-2.98-1.34-2.98-2.99s1.34-2.99 2.99-2.99h8.47c1.86 0 3.37-1.51 3.37-3.37v-1.4625c0-.55.45-1 1-1s1 .45 1 1v1.4625c0 2.96-2.41 5.37-5.37 5.37h-8.47c-.55 0-.99.44-.99.99s.44.99.99.99l8.1369.01c.55 0 1.1198.3014 1.6172 1 .289.406.3703.99-.1797.99z" fill="url(#K)"/><path d="m25.7744 30.0371h-9.5844c-1.64 0-2.98-1.34-2.98-2.99s1.34-2.99 2.99-2.99h8.47c1.86 0 3.37-1.51 3.37-3.37v-1.4625c0-.55.45-1 1-1s1 .45 1 1v1.4625c0 2.96-2.41 5.37-5.37 5.37h-8.47c-.55 0-.99.44-.99.99s.44.99.99.99l8.1369.01c.55 0 1.1198.3014 1.6172 1 .289.406.3703.99-.1797.99z" fill="url(#L)"/><path d="m25.7744 30.0371h-9.5844c-1.64 0-2.98-1.34-2.98-2.99s1.34-2.99 2.99-2.99h8.47c1.86 0 3.37-1.51 3.37-3.37v-1.4625c0-.55.45-1 1-1s1 .45 1 1v1.4625c0 2.96-2.41 5.37-5.37 5.37h-8.47c-.55 0-.99.44-.99.99s.44.99.99.99l8.1369.01c.55 0 1.1198.3014 1.6172 1 .289.406.3703.99-.1797.99z" fill="url(#M)"/><path d="m19.4542 19.2396c0-2.115 1.7144-3.8294 3.8294-3.8294h3.5064c1.7949 0 3.25 1.455 3.25 3.25v1.1588c0 1.7949-1.4551 3.25-3.25 3.25h-3.5064c-2.115 0-3.8294-1.7145-3.8294-3.8294z" fill="#59575b"/><path d="m19.4542 19.2396c0-2.115 1.7144-3.8294 3.8294-3.8294h3.5064c1.7949 0 3.25 1.455 3.25 3.25v1.1588c0 1.7949-1.4551 3.25-3.25 3.25h-3.5064c-2.115 0-3.8294-1.7145-3.8294-3.8294z" fill="url(#N)"/><path d="m19.4542 19.2396c0-2.115 1.7144-3.8294 3.8294-3.8294h3.5064c1.7949 0 3.25 1.455 3.25 3.25v1.1588c0 1.7949-1.4551 3.25-3.25 3.25h-3.5064c-2.115 0-3.8294-1.7145-3.8294-3.8294z" fill="url(#O)"/><path d="m19.4542 19.2396c0-2.115 1.7144-3.8294 3.8294-3.8294h3.5064c1.7949 0 3.25 1.455 3.25 3.25v1.1588c0 1.7949-1.4551 3.25-3.25 3.25h-3.5064c-2.115 0-3.8294-1.7145-3.8294-3.8294z" fill="url(#P)"/><path d="m19.4542 19.2396c0-2.115 1.7144-3.8294 3.8294-3.8294h3.5064c1.7949 0 3.25 1.455 3.25 3.25v1.1588c0 1.7949-1.4551 3.25-3.25 3.25h-3.5064c-2.115 0-3.8294-1.7145-3.8294-3.8294z" fill="url(#Q)"/><path d="m19.4542 19.2396c0-2.115 1.7144-3.8294 3.8294-3.8294h3.5064c1.7949 0 3.25 1.455 3.25 3.25v1.1588c0 1.7949-1.4551 3.25-3.25 3.25h-3.5064c-2.115 0-3.8294-1.7145-3.8294-3.8294z" fill="url(#R)"/><path d="m2.3965 14.3025c-.61918-.827-.46829-1.6672-.26471-2.1397.05009-.1163.15895-.1931.28282-.2191.2408-.0505.47636.1059.52326.3474l.30597 1.5758c.04529.2332-.07716.4667-.29478.5621-.19426.0851-.42545.0433-.55256-.1265z" fill="url(#S)"/><path d="m2.3965 14.3025c-.61918-.827-.46829-1.6672-.26471-2.1397.05009-.1163.15895-.1931.28282-.2191.2408-.0505.47636.1059.52326.3474l.30597 1.5758c.04529.2332-.07716.4667-.29478.5621-.19426.0851-.42545.0433-.55256-.1265z" fill="url(#T)"/><path d="m2.3965 14.3025c-.61918-.827-.46829-1.6672-.26471-2.1397.05009-.1163.15895-.1931.28282-.2191.2408-.0505.47636.1059.52326.3474l.30597 1.5758c.04529.2332-.07716.4667-.29478.5621-.19426.0851-.42545.0433-.55256-.1265z" fill="url(#U)"/><path d="m9.57185 18.7699.21816-.8528c-.00168-.0018-.00336-.0036-.00504-.0055l.59493-2.3957 3.0507 1.2031-.9008 3.2429c-.0032-.0016-.0065-.0032-.0098-.0048l-.159.6126-.0241.0868.001.0021-.4279 1.6485c-.14.54-.45.74-.87.74h-2.15999c-.2 0-.35001-.2-.30001-.4l.93825-3.6676.00223-.0027z" fill="#625b6a"/><path d="m9.57185 18.7699.21816-.8528c-.00168-.0018-.00336-.0036-.00504-.0055l.59493-2.3957 3.0507 1.2031-.9008 3.2429c-.0032-.0016-.0065-.0032-.0098-.0048l-.159.6126-.0241.0868.001.0021-.4279 1.6485c-.14.54-.45.74-.87.74h-2.15999c-.2 0-.35001-.2-.30001-.4l.93825-3.6676.00223-.0027z" fill="url(#V)"/><path d="m9.57185 18.7699.21816-.8528c-.00168-.0018-.00336-.0036-.00504-.0055l.59493-2.3957 3.0507 1.2031-.9008 3.2429c-.0032-.0016-.0065-.0032-.0098-.0048l-.159.6126-.0241.0868.001.0021-.4279 1.6485c-.14.54-.45.74-.87.74h-2.15999c-.2 0-.35001-.2-.30001-.4l.93825-3.6676.00223-.0027z" fill="url(#W)"/><path d="m9.57185 18.7699.21816-.8528c-.00168-.0018-.00336-.0036-.00504-.0055l.59493-2.3957 3.0507 1.2031-.9008 3.2429c-.0032-.0016-.0065-.0032-.0098-.0048l-.159.6126-.0241.0868.001.0021-.4279 1.6485c-.14.54-.45.74-.87.74h-2.15999c-.2 0-.35001-.2-.30001-.4l.93825-3.6676.00223-.0027z" fill="url(#X)"/><path d="m9.57185 18.7699.21816-.8528c-.00168-.0018-.00336-.0036-.00504-.0055l.59493-2.3957 3.0507 1.2031-.9008 3.2429c-.0032-.0016-.0065-.0032-.0098-.0048l-.159.6126-.0241.0868.001.0021-.4279 1.6485c-.14.54-.45.74-.87.74h-2.15999c-.2 0-.35001-.2-.30001-.4l.93825-3.6676.00223-.0027z" fill="url(#Y)"/><g filter="url(#e)"><circle cx="27.548" cy="18.422" fill="url(#Z)" r="1.938" transform="matrix(.99110723 .13306564 -.13306564 .99110723 2.696328 -3.501882)"/></g><path d="m9.78613 17.926c-.51172-.4922-1.42578-1.7929-1.76953-2.8789h1.71094l.68746.4688z" fill="url(#aa)"/><path d="m9.78613 17.926c-.51172-.4922-1.42578-1.7929-1.76953-2.8789h1.71094l.68746.4688z" fill="url(#ab)"/><g filter="url(#f)"><path d="m12.8213 9.93408v1.72232c0 .6881-.3537 1.3279-.9365 1.6938l-.0713.0448" stroke="url(#ac)" stroke-linecap="round" stroke-width=".6"/></g><circle cx="13.417" cy="6.314" fill="#635c6b" r="4.361"/><circle cx="13.417" cy="6.314" fill="url(#ad)" r="4.361"/><circle cx="13.417" cy="6.314" fill="url(#ae)" r="4.361"/><circle cx="13.417" cy="6.314" fill="url(#af)" r="4.361"/><path d="m13.37 9.62708c1.7949 0 3.25-1.45508 3.25-3.25 0-1.79493-1.4551-3.25-3.25-3.25s-3.25 1.45507-3.25 3.25c0 1.79492 1.4551 3.25 3.25 3.25z" fill="url(#ag)"/><path d="m13.37 9.62708c1.7949 0 3.25-1.45508 3.25-3.25 0-1.79493-1.4551-3.25-3.25-3.25s-3.25 1.45507-3.25 3.25c0 1.79492 1.4551 3.25 3.25 3.25z" fill="url(#ah)"/><g filter="url(#g)"><path d="m9.85253 5.45337c-.21875.78125-.2 2.69375 1.62497 4.09375" stroke="url(#aj)" stroke-linecap="round" stroke-width=".1"/></g><g filter="url(#h)"><path d="m17.2687 6.10028c.0091-.81125-.504-2.65373-2.6292-3.53368" stroke="url(#ak)" stroke-linecap="round" stroke-width=".1"/></g></svg>