<svg fill="none" height="32" viewBox="0 0 32 32" width="32" xmlns="http://www.w3.org/2000/svg" xmlns:xlink="http://www.w3.org/1999/xlink"><filter id="a" color-interpolation-filters="sRGB" filterUnits="userSpaceOnUse" height="2.572" width="3.353" x="21.409" y="23.969"><feFlood flood-opacity="0" result="BackgroundImageFix"/><feBlend in="SourceGraphic" in2="BackgroundImageFix" mode="normal" result="shape"/><feGaussianBlur result="effect1_foregroundBlur_28327_6380" stdDeviation=".125"/></filter><filter id="b" color-interpolation-filters="sRGB" filterUnits="userSpaceOnUse" height="4.309" width="2.575" x="17.197" y="24.483"><feFlood flood-opacity="0" result="BackgroundImageFix"/><feBlend in="SourceGraphic" in2="BackgroundImageFix" mode="normal" result="shape"/><feGaussianBlur result="effect1_foregroundBlur_28327_6380" stdDeviation=".2"/></filter><filter id="c" color-interpolation-filters="sRGB" filterUnits="userSpaceOnUse" height="5.98" width="2.977" x="8.957" y="23.051"><feFlood flood-opacity="0" result="BackgroundImageFix"/><feBlend in="SourceGraphic" in2="BackgroundImageFix" mode="normal" result="shape"/><feColorMatrix in="SourceAlpha" result="hardAlpha" type="matrix" values="0 0 0 0 0 0 0 0 0 0 0 0 0 0 0 0 0 0 127 0"/><feOffset dx=".05" dy=".05"/><feGaussianBlur stdDeviation=".125"/><feComposite in2="hardAlpha" k2="-1" k3="1" operator="arithmetic"/><feColorMatrix type="matrix" values="0 0 0 0 0.541176 0 0 0 0 0.517647 0 0 0 0 0.564706 0 0 0 1 0"/><feBlend in2="shape" mode="normal" result="effect1_innerShadow_28327_6380"/></filter><filter id="d" color-interpolation-filters="sRGB" filterUnits="userSpaceOnUse" height="4.959" width="2.381" x="9.278" y="23.861"><feFlood flood-opacity="0" result="BackgroundImageFix"/><feBlend in="SourceGraphic" in2="BackgroundImageFix" mode="normal" result="shape"/><feGaussianBlur result="effect1_foregroundBlur_28327_6380" stdDeviation=".2"/></filter><filter id="e" color-interpolation-filters="sRGB" filterUnits="userSpaceOnUse" height="4.461" width="3.041" x="2.923" y="8.921"><feFlood flood-opacity="0" result="BackgroundImageFix"/><feBlend in="SourceGraphic" in2="BackgroundImageFix" mode="normal" result="shape"/><feColorMatrix in="SourceAlpha" result="hardAlpha" type="matrix" values="0 0 0 0 0 0 0 0 0 0 0 0 0 0 0 0 0 0 127 0"/><feOffset dx=".05" dy="-.1"/><feGaussianBlur stdDeviation=".125"/><feComposite in2="hardAlpha" k2="-1" k3="1" operator="arithmetic"/><feColorMatrix type="matrix" values="0 0 0 0 0.541176 0 0 0 0 0.517647 0 0 0 0 0.564706 0 0 0 1 0"/><feBlend in2="shape" mode="normal" result="effect1_innerShadow_28327_6380"/></filter><filter id="f" color-interpolation-filters="sRGB" filterUnits="userSpaceOnUse" height="4.019" width="2.753" x="3.1" y="9.089"><feFlood flood-opacity="0" result="BackgroundImageFix"/><feBlend in="SourceGraphic" in2="BackgroundImageFix" mode="normal" result="shape"/><feGaussianBlur result="effect1_foregroundBlur_28327_6380" stdDeviation=".15"/></filter><linearGradient id="g"><stop offset="0" stop-color="#582f7c"/><stop offset="1" stop-color="#452e4f"/></linearGradient><linearGradient id="h" gradientUnits="userSpaceOnUse" x1="22.531" x2="22.688" xlink:href="#g" y1="26.946" y2="25.603"/><radialGradient id="i" cx="0" cy="0" gradientTransform="matrix(-1.05468292 .78125073 -.61437811 -.82940608 24.8438 25.6613)" gradientUnits="userSpaceOnUse" r="1"><stop offset="0" stop-color="#786f84"/><stop offset=".682" stop-color="#786f84" stop-opacity="0"/></radialGradient><radialGradient id="j" cx="0" cy="0" gradientTransform="matrix(-.44140669 .40624986 -.11958488 -.12993375 22.3867 25.384)" gradientUnits="userSpaceOnUse" r="1"><stop offset="0" stop-color="#655a71"/><stop offset="1" stop-color="#655a71" stop-opacity="0"/></radialGradient><linearGradient id="k" gradientUnits="userSpaceOnUse" x1="23.141" x2="23.141" y1="25.325" y2="25.95"><stop offset="0" stop-color="#2e203a"/><stop offset="1" stop-color="#3e2c4e" stop-opacity="0"/></linearGradient><linearGradient id="l"><stop offset="0" stop-color="#766983"/><stop offset="1" stop-color="#766983" stop-opacity="0"/></linearGradient><linearGradient id="m" gradientUnits="userSpaceOnUse" x1="19.859" x2="21.15" xlink:href="#l" y1="23.716" y2="27.78"/><linearGradient id="n" gradientUnits="userSpaceOnUse" x1="17.625" x2="18.703" xlink:href="#g" y1="27.302" y2="26.38"/><linearGradient id="o" gradientUnits="userSpaceOnUse" x1="18.358" x2="18.358" y1="25.146" y2="26.333"><stop offset="0" stop-color="#392841"/><stop offset="1" stop-color="#392841" stop-opacity="0"/></linearGradient><linearGradient id="p" gradientUnits="userSpaceOnUse" x1="19.328" x2="18.344" xlink:href="#l" y1="27.661" y2="24.677"/><linearGradient id="q" gradientUnits="userSpaceOnUse" x1="10.875" x2="10.25" xlink:href="#g" y1="28.458" y2="26.333"/><linearGradient id="r" gradientUnits="userSpaceOnUse" x1="11.578" x2="9.904" xlink:href="#l" y1="25.958" y2="30.013"/><linearGradient id="s" gradientUnits="userSpaceOnUse" x1="4.882" x2="4.538" xlink:href="#g" y1="12.997" y2="11.372"/><linearGradient id="t" gradientUnits="userSpaceOnUse" x1="23.354" x2="23.354" y1="15.641" y2="24.578"><stop offset=".006" stop-color="#5e5566"/><stop offset="1" stop-color="#5c2e82"/></linearGradient><linearGradient id="u"><stop offset="0" stop-color="#9257c2" stop-opacity="0"/><stop offset=".945" stop-color="#9257c2"/></linearGradient><linearGradient id="v" gradientUnits="userSpaceOnUse" x1="23.123" x2="25.092" xlink:href="#u" y1="22.672" y2="24.391"/><linearGradient id="w" gradientUnits="userSpaceOnUse" x1="21.967" x2="19.655" xlink:href="#u" y1="24.172" y2="24.734"/><radialGradient id="x" cx="0" cy="0" gradientTransform="matrix(0 3.25 -3.25 0 22.6235 15.4531)" gradientUnits="userSpaceOnUse" r="1"><stop offset="0" stop-color="#776f80"/><stop offset="1" stop-color="#776f80" stop-opacity="0"/></radialGradient><linearGradient id="y"><stop offset="0" stop-color="#4f455b"/><stop offset="1" stop-color="#4f455b" stop-opacity="0"/></linearGradient><radialGradient id="z" cx="0" cy="0" gradientTransform="matrix(1.1718755 1.51562278 -3.3388272 2.5815723 20.936 10.7969)" gradientUnits="userSpaceOnUse" r="1" xlink:href="#y"/><linearGradient id="A" gradientUnits="userSpaceOnUse" x1="20.592" x2="21.748" xlink:href="#y" y1="14.172" y2="14.172"/><radialGradient id="B" cx="0" cy="0" gradientTransform="matrix(-.5312511 -1.01562831 .96069907 -.50251892 21.9609 25.2044)" gradientUnits="userSpaceOnUse" r="1"><stop offset=".301" stop-color="#3c1e58"/><stop offset="1" stop-color="#3c1e58" stop-opacity="0"/></radialGradient><linearGradient id="C" gradientUnits="userSpaceOnUse" x1="14.392" x2="14.391" y1="16.583" y2="25.376"><stop offset="0" stop-color="#433653"/><stop offset="1" stop-color="#5c2a83"/></linearGradient><linearGradient id="D" gradientUnits="userSpaceOnUse" x1="14.389" x2="14.389" y1="10.677" y2="14.114"><stop offset="0" stop-color="#323151"/><stop offset="1" stop-color="#323151" stop-opacity="0"/></linearGradient><linearGradient id="E" gradientUnits="userSpaceOnUse" x1="14.389" x2="14.389" xlink:href="#u" y1="23.114" y2="27.052"/><linearGradient id="F" gradientUnits="userSpaceOnUse" x1="14.389" x2="14.389" xlink:href="#u" y1="25.099" y2="25.599"/><radialGradient id="G" cx="0" cy="0" gradientTransform="matrix(-4.375 0 0 -3 17.7188 15.8645)" gradientUnits="userSpaceOnUse" r="1"><stop offset="0" stop-color="#514260"/><stop offset="1" stop-color="#514260" stop-opacity="0"/></radialGradient><linearGradient id="H"><stop offset="0" stop-color="#e1aa72"/><stop offset="1" stop-color="#e1aa72" stop-opacity="0"/></linearGradient><linearGradient id="I" gradientUnits="userSpaceOnUse" x1="27.344" x2="26.672" xlink:href="#H" y1="18.88" y2="18.099"/><linearGradient id="J" gradientUnits="userSpaceOnUse" x1="27.688" x2="27.266" xlink:href="#H" y1="15.521" y2="15.849"/><radialGradient id="K" cx="0" cy="0" gradientTransform="matrix(2.20312767 2.39062741 -.97607469 .89952 25.5937 15.0833)" gradientUnits="userSpaceOnUse" r="1"><stop offset="0" stop-color="#ffda65"/><stop offset="1" stop-color="#ffda65" stop-opacity="0"/></radialGradient><linearGradient id="L" gradientUnits="userSpaceOnUse" x1="18.894" x2="18.894" y1="11.927" y2="24.104"><stop offset="0" stop-color="#ebbd47"/><stop offset="1" stop-color="#de8955"/></linearGradient><linearGradient id="M" gradientUnits="userSpaceOnUse" x1="19.969" x2="19.969" y1="27.677" y2="22.239"><stop offset="0" stop-color="#e988b9"/><stop offset="1" stop-color="#e988b9" stop-opacity="0"/></linearGradient><linearGradient id="N"><stop offset="0" stop-color="#be9638"/><stop offset="1" stop-color="#be9638" stop-opacity="0"/></linearGradient><radialGradient id="O" cx="0" cy="0" gradientTransform="matrix(5.09375 0 0 1.53125 17.4375 11.8333)" gradientUnits="userSpaceOnUse" r="1" xlink:href="#N"/><linearGradient id="P" gradientUnits="userSpaceOnUse" x1="8.614" x2="8.614" y1="9.499" y2="23.989"><stop offset="0" stop-color="#d2a02e"/><stop offset="1" stop-color="#de8955"/></linearGradient><radialGradient id="Q" cx="0" cy="0" gradientTransform="matrix(-2.24604074 3.64974517 -1.52249292 -.93693695 8.08499 12.2133)" gradientUnits="userSpaceOnUse" r="1"><stop offset="0" stop-color="#d6bb7e"/><stop offset="1" stop-color="#d6bb7e" stop-opacity="0"/></radialGradient><radialGradient id="R" cx="0" cy="0" gradientTransform="matrix(-3.08826838 2.46436167 -1.63436476 -2.04813972 12.3586 10.8095)" gradientUnits="userSpaceOnUse" r="1" xlink:href="#N"/><radialGradient id="S" cx="0" cy="0" gradientTransform="matrix(1.59374679 -1.54687174 .46352733 .47757365 5.875 13.6145)" gradientUnits="userSpaceOnUse" r="1"><stop offset=".377" stop-color="#b5954a"/><stop offset="1" stop-color="#b5954a" stop-opacity="0"/></radialGradient><radialGradient id="T" cx="0" cy="0" gradientTransform="matrix(2.68750231 -4.34375161 5.82114352 3.60157258 7.25 24.9582)" gradientUnits="userSpaceOnUse" r="1"><stop offset="0" stop-color="#e58dad"/><stop offset="1" stop-color="#e58dad" stop-opacity="0"/></radialGradient><radialGradient id="U" cx="0" cy="0" gradientTransform="matrix(.65624955 -3.8750034 2.08167875 .35254182 7.15625 22.3645)" gradientUnits="userSpaceOnUse" r="1"><stop offset="0" stop-color="#edae97"/><stop offset="1" stop-color="#e3a28a" stop-opacity="0"/></radialGradient><radialGradient id="V" cx="0" cy="0" gradientTransform="matrix(1.24999589 .18749859 -.54823289 3.65490142 6.46875 20.4895)" gradientUnits="userSpaceOnUse" r="1"><stop offset=".086" stop-color="#c37342"/><stop offset=".504" stop-color="#c37342" stop-opacity="0"/></radialGradient><radialGradient id="W" cx="0" cy="0" gradientTransform="matrix(0 -2.04851 1.85683 0 11.1094 25.2411)" gradientUnits="userSpaceOnUse" r="1"><stop offset="0" stop-color="#ce714b"/><stop offset="1" stop-color="#ce714b" stop-opacity="0"/></radialGradient><linearGradient id="X" gradientUnits="userSpaceOnUse" x1="28.593" x2="28.688" y1="17.489" y2="16.638"><stop offset="0" stop-color="#522c71"/><stop offset="1" stop-color="#55495e"/></linearGradient><radialGradient id="Y" cx="0" cy="0" gradientTransform="matrix(-1.73828 0 0 -.257812 29.4844 16.9583)" gradientUnits="userSpaceOnUse" r="1"><stop offset="0" stop-color="#6e6579"/><stop offset="1" stop-color="#6e6579" stop-opacity="0"/></radialGradient><linearGradient id="Z" gradientUnits="userSpaceOnUse" x1="20.576" x2="10.107" y1="6.583" y2="12.458"><stop offset="0" stop-color="#8bd1f8"/><stop offset="1" stop-color="#87c0ea"/></linearGradient><linearGradient id="aa" gradientUnits="userSpaceOnUse" x1="12.92" x2="16.389" y1="7.476" y2="10.208"><stop offset="0" stop-color="#7bc4e3"/><stop offset="1" stop-color="#7bc4e3" stop-opacity="0"/></linearGradient><radialGradient id="ab" cx="0" cy="0" gradientTransform="matrix(-2.74999615 2.03125285 -2.2668096 -3.06890284 22.8263 4.86444)" gradientUnits="userSpaceOnUse" r="1"><stop offset="0" stop-color="#a5e8ff"/><stop offset="1" stop-color="#a5e8ff" stop-opacity="0"/></radialGradient><linearGradient id="ac" gradientUnits="userSpaceOnUse" x1="12.865" x2="13.037" y1="7.38" y2="7.536"><stop offset="0" stop-color="#9dd3e9"/><stop offset="1" stop-color="#9dd3e9" stop-opacity="0"/></linearGradient><linearGradient id="ad" gradientUnits="userSpaceOnUse" x1="22.764" x2="22.201" y1="9.818" y2="9.521"><stop offset="0" stop-color="#8acff1"/><stop offset="1" stop-color="#8acff1" stop-opacity="0"/></linearGradient><linearGradient id="ae" gradientUnits="userSpaceOnUse" x1="15.875" x2="15.875" y1="12.271" y2="11.427"><stop offset="0" stop-color="#6fb2df"/><stop offset="1" stop-color="#6fb2df" stop-opacity="0"/></linearGradient><radialGradient id="af" cx="0" cy="0" gradientTransform="matrix(-1.03124895 -6.09374648 3.27776532 -.5546985 6.21875 21.2396)" gradientUnits="userSpaceOnUse" r="1"><stop offset="0" stop-color="#5b2983"/><stop offset="1" stop-color="#443454"/></radialGradient><radialGradient id="ag" cx="0" cy="0" gradientTransform="matrix(-6.67188 0 0 -6.56735 8.59375 17.066)" gradientUnits="userSpaceOnUse" r="1"><stop offset=".808" stop-color="#8c8891" stop-opacity="0"/><stop offset="1" stop-color="#8c8891"/></radialGradient><radialGradient id="ah" cx="0" cy="0" gradientTransform="matrix(0 3.03125 -1.02407 0 6.3125 16.0834)" gradientUnits="userSpaceOnUse" r="1"><stop offset="0" stop-color="#60546b"/><stop offset="1" stop-color="#60546b" stop-opacity="0"/></radialGradient><radialGradient id="ai" cx="0" cy="0" gradientTransform="matrix(-1.48436524 2.5312538 -1.90051495 -1.11449051 2.8125 13.349)" gradientUnits="userSpaceOnUse" r="1"><stop offset="0" stop-color="#817c87"/><stop offset="1" stop-color="#817c87" stop-opacity="0"/></radialGradient><radialGradient id="aj" cx="0" cy="0" gradientTransform="matrix(-.48437422 .51562578 -.49223628 -.46240234 5.64063 16.9738)" gradientUnits="userSpaceOnUse" r="1"><stop offset=".006" stop-color="#4d4a4f"/><stop offset="1" stop-color="#2b2730"/></radialGradient><radialGradient id="ak" cx="0" cy="0" gradientTransform="matrix(-.39062724 -.82499899 .91357653 -.43256765 5.49219 17.9002)" gradientUnits="userSpaceOnUse" r="1"><stop offset="0" stop-color="#402256"/><stop offset="1" stop-color="#402256" stop-opacity="0"/></radialGradient><radialGradient id="al" cx="0" cy="0" gradientTransform="matrix(2.03906 0 0 1.69937 4.20313 17.0752)" gradientUnits="userSpaceOnUse" r="1"><stop offset=".812" stop-color="#291d25" stop-opacity="0"/><stop offset="1" stop-color="#291d25"/></radialGradient><radialGradient id="am" cx="0" cy="0" gradientTransform="matrix(-1.94531 0 0 -1.51547 6.40625 17.0752)" gradientUnits="userSpaceOnUse" r="1"><stop offset=".799" stop-color="#5a575d" stop-opacity="0"/><stop offset="1" stop-color="#5a575d"/></radialGradient><linearGradient id="an" gradientUnits="userSpaceOnUse" x1="3.938" x2="8.343" xlink:href="#l" y1="9.271" y2="11.671"/><path d="m24.2043 26.9463h-2.0793c-.5547 0-1.2307-.3062-1.2307-1.3162v-3.8838c0-.41.34-.75.75-.75s.75.34.75.75v3.69h.34 1.47c.41 0 .75.34.75.75s-.34.76-.75.76z" fill="url(#h)"/><path d="m24.2043 26.9463h-2.0793c-.5547 0-1.2307-.3062-1.2307-1.3162v-3.8838c0-.41.34-.75.75-.75s.75.34.75.75v3.69h.34 1.47c.41 0 .75.34.75.75s-.34.76-.75.76z" fill="url(#i)"/><path d="m24.2043 26.9463h-2.0793c-.5547 0-1.2307-.3062-1.2307-1.3162v-3.8838c0-.41.34-.75.75-.75s.75.34.75.75v3.69h.34 1.47c.41 0 .75.34.75.75s-.34.76-.75.76z" fill="url(#j)"/><path d="m24.9155 25.9503h-3.1186l.6043-.514h1.8031c.3279 0 .6109.2173.7112.514z" fill="url(#k)"/><g filter="url(#a)"><path d="m21.8594 24.4192v.8719c0 .4418.3581.8.8.8h1.6531" stroke="url(#m)" stroke-linecap="round" stroke-width=".4"/></g><path d="m19.0743 28.981c-.19 0-.38-.07-.53-.22l-.65-.65c-.65-.65-1-1.51-1-2.42v-1.89c0-.41.34-.75.75-.75s.75.34.75.75v1.89c0 .51.2 1 .56 1.36l.65.65c.29.29.29.77 0 1.06-.15.15-.34.22-.53.22z" fill="url(#n)"/><path d="m19.0743 28.981c-.19 0-.38-.07-.53-.22l-.65-.65c-.65-.65-1-1.51-1-2.42v-1.89c0-.41.34-.75.75-.75s.75.34.75.75v1.89c0 .51.2 1 .56 1.36l.65.65c.29.29.29.77 0 1.06-.15.15-.34.22-.53.22z" fill="url(#o)"/><g filter="url(#b)"><path d="m17.7969 25.0833v.612c0 .6122.2247 1.2032.6315 1.6609l.7435.8364" stroke="url(#p)" stroke-linecap="round" stroke-width=".4"/></g><g filter="url(#c)"><path d="m9.70441 28.981c-.19 0-.38-.07-.53-.22-.29-.29-.29-.77 0-1.06l.65-.65c.35999-.36.55999-.85.55999-1.36v-1.89c0-.41.34-.75.75-.75s.75.34.75.75v1.89c0 .91-.36 1.77-1 2.42l-.65.65c-.15.15-.33999.22-.52999.22z" fill="url(#q)"/></g><g filter="url(#d)"><path d="m9.82812 28.2708c.16225-.1865.48008-.5143.80338-.9252.3377-.4294.4779-.973.4779-1.5193v-1.4149" stroke="url(#r)" stroke-linecap="round" stroke-width=".3"/></g><g filter="url(#e)"><path d="m5.41313 13.3816c-.28 0-.5-.22-.5-.5v-.86c0-.71-.4-1.35-1.04-1.67l-.67-.37999c-.25-.12-.35-.42-.23-.67s.42-.35.67-.23l.68.38c.98.49 1.59 1.46999 1.59 2.56999v.86c0 .28-.22.5-.5.5z" fill="url(#s)"/></g><path d="m25.8516 13.467-.94-1.3611c-1.1788-1.6059-2.39-2.68023-4.06-3.17231v16.18621c1.66-.4816 3.12-1.6018 4.06-3.1723l.94-1.3611z" fill="url(#t)"/><path d="m25.8516 13.467-.94-1.3611c-1.1788-1.6059-2.39-2.68023-4.06-3.17231v16.18621c1.66-.4816 3.12-1.6018 4.06-3.1723l.94-1.3611z" fill="url(#v)"/><path d="m25.8516 13.467-.94-1.3611c-1.1788-1.6059-2.39-2.68023-4.06-3.17231v16.18621c1.66-.4816 3.12-1.6018 4.06-3.1723l.94-1.3611z" fill="url(#w)"/><path d="m25.8516 13.467-.94-1.3611c-1.1788-1.6059-2.39-2.68023-4.06-3.17231v16.18621c1.66-.4816 3.12-1.6018 4.06-3.1723l.94-1.3611z" fill="url(#x)"/><path d="m25.8516 13.467-.94-1.3611c-1.1788-1.6059-2.39-2.68023-4.06-3.17231v16.18621c1.66-.4816 3.12-1.6018 4.06-3.1723l.94-1.3611z" fill="url(#z)"/><path d="m25.8516 13.467-.94-1.3611c-1.1788-1.6059-2.39-2.68023-4.06-3.17231v16.18621c1.66-.4816 3.12-1.6018 4.06-3.1723l.94-1.3611z" fill="url(#A)"/><path d="m25.8516 13.467-.94-1.3611c-1.1788-1.6059-2.39-2.68023-4.06-3.17231v16.18621c1.66-.4816 3.12-1.6018 4.06-3.1723l.94-1.3611z" fill="url(#B)"/><path d="m16.8943 25.3659v-16.72015h-3.3366c-.0702 0-.1503 0-.2205 0-.0701 0-.1503 0-.2204 0-.4208.01047-.8317.06282-1.2325.13611v16.45844c.4008.0733.8117.1256 1.2325.1361h3.7775z" fill="url(#C)"/><path d="m16.8943 25.3659v-16.72015h-3.3366c-.0702 0-.1503 0-.2205 0-.0701 0-.1503 0-.2204 0-.4208.01047-.8317.06282-1.2325.13611v16.45844c.4008.0733.8117.1256 1.2325.1361h3.7775z" fill="url(#D)"/><path d="m16.8943 25.3659v-16.72015h-3.3366c-.0702 0-.1503 0-.2205 0-.0701 0-.1503 0-.2204 0-.4208.01047-.8317.06282-1.2325.13611v16.45844c.4008.0733.8117.1256 1.2325.1361h3.7775z" fill="url(#E)"/><path d="m16.8943 25.3659v-16.72015h-3.3366c-.0702 0-.1503 0-.2205 0-.0701 0-.1503 0-.2204 0-.4208.01047-.8317.06282-1.2325.13611v16.45844c.4008.0733.8117.1256 1.2325.1361h3.7775z" fill="url(#F)"/><path d="m16.8943 25.3659v-16.72015h-3.3366c-.0702 0-.1503 0-.2205 0-.0701 0-.1503 0-.2204 0-.4208.01047-.8317.06282-1.2325.13611v16.45844c.4008.0733.8117.1256 1.2325.1361h3.7775z" fill="url(#G)"/><path d="m25.875 20.5715 2.4894-3.5604-2.4894-3.5841z" fill="#fcc946"/><path d="m25.875 20.5715 2.4894-3.5604-2.4894-3.5841z" fill="url(#I)"/><path d="m25.875 20.5715 2.4894-3.5604-2.4894-3.5841z" fill="url(#J)"/><path d="m25.875 20.5715 2.4894-3.5604-2.4894-3.5841z" fill="url(#K)"/><path d="m20.8943 8.91492c-.6044-.17652-1.2361-.26917-1.8799-.26917h-2.1201v16.73065h2.1201c.6438 0 1.2755-.0926 1.8799-.2692z" fill="url(#L)"/><path d="m20.8943 8.91492c-.6044-.17652-1.2361-.26917-1.8799-.26917h-2.1201v16.73065h2.1201c.6438 0 1.2755-.0926 1.8799-.2692z" fill="url(#M)"/><path d="m20.8943 8.91492c-.6044-.17652-1.2361-.26917-1.8799-.26917h-2.1201v16.73065h2.1201c.6438 0 1.2755-.0926 1.8799-.2692z" fill="url(#O)"/><path d="m11.8843 8.78101v16.46009c-3.71975-.7167-6.53994-4.1277-6.53994-8.23s2.82019-7.51342 6.53994-8.23009z" fill="url(#P)"/><path d="m11.8843 8.78101v16.46009c-3.71975-.7167-6.53994-4.1277-6.53994-8.23s2.82019-7.51342 6.53994-8.23009z" fill="url(#Q)"/><path d="m11.8843 8.78101v16.46009c-3.71975-.7167-6.53994-4.1277-6.53994-8.23s2.82019-7.51342 6.53994-8.23009z" fill="url(#R)"/><path d="m11.8843 8.78101v16.46009c-3.71975-.7167-6.53994-4.1277-6.53994-8.23s2.82019-7.51342 6.53994-8.23009z" fill="url(#S)"/><path d="m11.8843 8.78101v16.46009c-3.71975-.7167-6.53994-4.1277-6.53994-8.23s2.82019-7.51342 6.53994-8.23009z" fill="url(#T)"/><path d="m11.8843 8.78101v16.46009c-3.71975-.7167-6.53994-4.1277-6.53994-8.23s2.82019-7.51342 6.53994-8.23009z" fill="url(#U)"/><path d="m11.8843 8.78101v16.46009c-3.71975-.7167-6.53994-4.1277-6.53994-8.23s2.82019-7.51342 6.53994-8.23009z" fill="url(#V)"/><path d="m11.8843 8.78101v16.46009c-3.71975-.7167-6.53994-4.1277-6.53994-8.23s2.82019-7.51342 6.53994-8.23009z" fill="url(#W)"/><path d="m27.7461 16.1262v1.7735l.0574-.0589c.1137-.1165.254-.2035.4089-.2534l1.4832-.4782c.0933-.0301.0922-.1624-.0016-.1909l-1.4356-.4351c-.184-.0557-.348-.1634-.4724-.3099z" fill="url(#X)"/><path d="m27.7461 16.1262v1.7735l.0574-.0589c.1137-.1165.254-.2035.4089-.2534l1.4832-.4782c.0933-.0301.0922-.1624-.0016-.1909l-1.4356-.4351c-.184-.0557-.348-.1634-.4724-.3099z" fill="url(#Y)"/><path d="m18.7821 3.32533.0009.00001c2.2491.03788 4.0308 1.70915 4.087 3.95718.0564 2.39095-1.8495 4.34408-4.2122 4.34408-1.7345 0-3.4791-.0092-5.2236-.0184-.783-.0041-1.5661-.0083-2.3482-.0116h-.001c-.1952 0-.4647-.1188-.6149-.3275-.0711-.0989-.114-.2155-.1126-.3508.0014-.1336.0461-.3024.177-.5053.7768-.90792 1.6993-1.91959 2.5744-2.87438.0879-.09595.1754-.19134.2622-.28601.779-.84956 1.5044-1.64062 2.0275-2.24855.9014-1.04759 2.0081-1.70679 3.3835-1.67873zm-8.4481 6.93757c-.63272.9609.2044 1.5837.751 1.5837z" fill="url(#Z)"/><g stroke-width=".5"><path d="m18.7821 3.32533.0009.00001c2.2491.03788 4.0308 1.70915 4.087 3.95718.0564 2.39095-1.8495 4.34408-4.2122 4.34408-1.7345 0-3.4791-.0092-5.2236-.0184-.783-.0041-1.5661-.0083-2.3482-.0116h-.001c-.1952 0-.4647-.1188-.6149-.3275-.0711-.0989-.114-.2155-.1126-.3508.0014-.1336.0461-.3024.177-.5053.7768-.90792 1.6993-1.91959 2.5744-2.87438.0879-.09595.1754-.19134.2622-.28601.779-.84956 1.5044-1.64062 2.0275-2.24855.9014-1.04759 2.0081-1.70679 3.3835-1.67873zm-8.4481 6.93757c-.63272.9609.2044 1.5837.751 1.5837z" stroke="url(#aa)"/><path d="m18.7821 3.32533.0009.00001c2.2491.03788 4.0308 1.70915 4.087 3.95718.0564 2.39095-1.8495 4.34408-4.2122 4.34408-1.7345 0-3.4791-.0092-5.2236-.0184-.783-.0041-1.5661-.0083-2.3482-.0116h-.001c-.1952 0-.4647-.1188-.6149-.3275-.0711-.0989-.114-.2155-.1126-.3508.0014-.1336.0461-.3024.177-.5053.7768-.90792 1.6993-1.91959 2.5744-2.87438.0879-.09595.1754-.19134.2622-.28601.779-.84956 1.5044-1.64062 2.0275-2.24855.9014-1.04759 2.0081-1.70679 3.3835-1.67873zm-8.4481 6.93757c-.63272.9609.2044 1.5837.751 1.5837z" stroke="url(#ab)"/><path d="m18.7821 3.32533.0009.00001c2.2491.03788 4.0308 1.70915 4.087 3.95718.0564 2.39095-1.8495 4.34408-4.2122 4.34408-1.7345 0-3.4791-.0092-5.2236-.0184-.783-.0041-1.5661-.0083-2.3482-.0116h-.001c-.1952 0-.4647-.1188-.6149-.3275-.0711-.0989-.114-.2155-.1126-.3508.0014-.1336.0461-.3024.177-.5053.7768-.90792 1.6993-1.91959 2.5744-2.87438.0879-.09595.1754-.19134.2622-.28601.779-.84956 1.5044-1.64062 2.0275-2.24855.9014-1.04759 2.0081-1.70679 3.3835-1.67873zm-8.4481 6.93757c-.63272.9609.2044 1.5837.751 1.5837z" stroke="url(#ac)"/><path d="m18.7821 3.32533.0009.00001c2.2491.03788 4.0308 1.70915 4.087 3.95718.0564 2.39095-1.8495 4.34408-4.2122 4.34408-1.7345 0-3.4791-.0092-5.2236-.0184-.783-.0041-1.5661-.0083-2.3482-.0116h-.001c-.1952 0-.4647-.1188-.6149-.3275-.0711-.0989-.114-.2155-.1126-.3508.0014-.1336.0461-.3024.177-.5053.7768-.90792 1.6993-1.91959 2.5744-2.87438.0879-.09595.1754-.19134.2622-.28601.779-.84956 1.5044-1.64062 2.0275-2.24855.9014-1.04759 2.0081-1.70679 3.3835-1.67873zm-8.4481 6.93757c-.63272.9609.2044 1.5837.751 1.5837z" stroke="url(#ad)"/><path d="m18.7821 3.32533.0009.00001c2.2491.03788 4.0308 1.70915 4.087 3.95718.0564 2.39095-1.8495 4.34408-4.2122 4.34408-1.7345 0-3.4791-.0092-5.2236-.0184-.783-.0041-1.5661-.0083-2.3482-.0116h-.001c-.1952 0-.4647-.1188-.6149-.3275-.0711-.0989-.114-.2155-.1126-.3508.0014-.1336.0461-.3024.177-.5053.7768-.90792 1.6993-1.91959 2.5744-2.87438.0879-.09595.1754-.19134.2622-.28601.779-.84956 1.5044-1.64062 2.0275-2.24855.9014-1.04759 2.0081-1.70679 3.3835-1.67873zm-8.4481 6.93757c-.63272.9609.2044 1.5837.751 1.5837z" stroke="url(#ae)"/></g><path d="m6.74594 12.7357c0-.1914-.09766-.6133-1.06641-.4453-2.21318.5348-3.58984 2.4311-3.58984 4.8086 0 2.3547 1.54806 4.3827 3.66504 4.7705.04078.0074.08237.0109.12382.0104.63273-.0076.86739-.1354.86739-.5585z" fill="url(#af)"/><path d="m6.74594 12.7357c0-.1914-.09766-.6133-1.06641-.4453-2.21318.5348-3.58984 2.4311-3.58984 4.8086 0 2.3547 1.54806 4.3827 3.66504 4.7705.04078.0074.08237.0109.12382.0104.63273-.0076.86739-.1354.86739-.5585z" fill="url(#ag)"/><path d="m6.74594 12.7357c0-.1914-.09766-.6133-1.06641-.4453-2.21318.5348-3.58984 2.4311-3.58984 4.8086 0 2.3547 1.54806 4.3827 3.66504 4.7705.04078.0074.08237.0109.12382.0104.63273-.0076.86739-.1354.86739-.5585z" fill="url(#ah)"/><path d="m6.74594 12.7357c0-.1914-.09766-.6133-1.06641-.4453-2.21318.5348-3.58984 2.4311-3.58984 4.8086 0 2.3547 1.54806 4.3827 3.66504 4.7705.04078.0074.08237.0109.12382.0104.63273-.0076.86739-.1354.86739-.5585z" fill="url(#ai)"/><path d="m5.34438 17.9002c.45563 0 .825-.3693.825-.825 0-.4556-.36937-.825-.825-.825-.45564 0-.825.3694-.825.825 0 .4557.36936.825.825.825z" fill="url(#aj)"/><path d="m5.34438 17.9002c.45563 0 .825-.3693.825-.825 0-.4556-.36937-.825-.825-.825-.45564 0-.825.3694-.825.825 0 .4557.36936.825.825.825z" fill="url(#ak)"/><path d="m5.34438 17.9002c.45563 0 .825-.3693.825-.825 0-.4556-.36937-.825-.825-.825-.45564 0-.825.3694-.825.825 0 .4557.36936.825.825.825z" fill="url(#al)"/><path d="m5.34438 17.9002c.45563 0 .825-.3693.825-.825 0-.4556-.36937-.825-.825-.825-.45564 0-.825.3694-.825.825 0 .4557.36936.825.825.825z" fill="url(#am)"/><g filter="url(#f)"><path d="m3.5 9.4895.5854.29739c.83912.42631 1.36772 1.28771 1.36772 2.22891v.6925" stroke="url(#an)" stroke-linecap="round" stroke-width=".2"/></g></svg>