<svg fill="none" height="32" viewBox="0 0 32 32" width="32" xmlns="http://www.w3.org/2000/svg" xmlns:xlink="http://www.w3.org/1999/xlink"><filter id="a" color-interpolation-filters="sRGB" filterUnits="userSpaceOnUse" height="5.71" width="14.78" x="1.625" y="14.733"><feFlood flood-opacity="0" result="BackgroundImageFix"/><feBlend in="SourceGraphic" in2="BackgroundImageFix" mode="normal" result="shape"/><feGaussianBlur result="effect1_foregroundBlur_28327_6347" stdDeviation=".125"/></filter><filter id="b" color-interpolation-filters="sRGB" filterUnits="userSpaceOnUse" height="6.977" width="6.868" x="1.727" y="1.506"><feFlood flood-opacity="0" result="BackgroundImageFix"/><feBlend in="SourceGraphic" in2="BackgroundImageFix" mode="normal" result="shape"/><feGaussianBlur result="effect1_foregroundBlur_28327_6347" stdDeviation=".15"/></filter><filter id="c" color-interpolation-filters="sRGB" filterUnits="userSpaceOnUse" height="1.942" width="1.942" x="4.98" y="10.72"><feFlood flood-opacity="0" result="BackgroundImageFix"/><feBlend in="SourceGraphic" in2="BackgroundImageFix" mode="normal" result="shape"/><feGaussianBlur result="effect1_foregroundBlur_28327_6347" stdDeviation=".2"/></filter><filter id="d" color-interpolation-filters="sRGB" filterUnits="userSpaceOnUse" height="11.219" width="7.375" x="6.781" y="18.092"><feFlood flood-opacity="0" result="BackgroundImageFix"/><feBlend in="SourceGraphic" in2="BackgroundImageFix" mode="normal" result="shape"/><feGaussianBlur result="effect1_foregroundBlur_28327_6347" stdDeviation=".125"/></filter><filter id="e" color-interpolation-filters="sRGB" filterUnits="userSpaceOnUse" height="10.094" width=".75" x="14.75" y="19.155"><feFlood flood-opacity="0" result="BackgroundImageFix"/><feBlend in="SourceGraphic" in2="BackgroundImageFix" mode="normal" result="shape"/><feGaussianBlur result="effect1_foregroundBlur_28327_6347" stdDeviation=".125"/></filter><linearGradient id="f"><stop offset=".006" stop-color="#513468"/><stop offset="1" stop-color="#1c1c1c"/></linearGradient><linearGradient id="g" gradientUnits="userSpaceOnUse" x1="15.594" x2="15.594" xlink:href="#f" y1="28.655" y2="19.467"/><linearGradient id="h" gradientUnits="userSpaceOnUse" x1="6.598" x2="16.027" xlink:href="#f" y1="22.316" y2="22.316"/><linearGradient id="i" gradientUnits="userSpaceOnUse" x1="1.5" x2="16.524" xlink:href="#f" y1="17.591" y2="17.591"/><linearGradient id="j" gradientUnits="userSpaceOnUse" x1="12.688" x2="2.656" y1="16.717" y2="19.905"><stop offset="0" stop-color="#4a454f" stop-opacity="0"/><stop offset=".183" stop-color="#4a454f"/><stop offset="1" stop-color="#544067"/></linearGradient><linearGradient id="k" gradientUnits="userSpaceOnUse" x1="7.813" x2="2" y1="7.78" y2="1.655"><stop offset=".006" stop-color="#433453"/><stop offset="1" stop-color="#2f2e30"/></linearGradient><radialGradient id="l" cx="0" cy="0" gradientTransform="matrix(0 -7.43506 7.19 0 8.06 16.5586)" gradientUnits="userSpaceOnUse" r="1"><stop offset="0" stop-color="#37214a"/><stop offset="1" stop-color="#35303c"/></radialGradient><radialGradient id="m" cx="0" cy="0" gradientTransform="matrix(3.28125408 1.84374931 -2.61816929 4.65946135 2.21875 10.5923)" gradientUnits="userSpaceOnUse" r="1"><stop offset="0" stop-color="#5b595e"/><stop offset="1" stop-color="#5b595e" stop-opacity="0"/></radialGradient><radialGradient id="n" cx="0" cy="0" gradientTransform="matrix(-4.59375 0 0 -2.875 11.9688 11.3735)" gradientUnits="userSpaceOnUse" r="1"><stop offset="0" stop-color="#726d78"/><stop offset="1" stop-color="#726d78" stop-opacity="0"/></radialGradient><linearGradient id="o"><stop offset="0" stop-color="#0c0811"/><stop offset="1" stop-color="#0c0811" stop-opacity="0"/></linearGradient><radialGradient id="p" cx="0" cy="0" gradientTransform="matrix(-1.68750186 -.68748888 .90890228 -2.2309805 13.3594 14.9985)" gradientUnits="userSpaceOnUse" r="1" xlink:href="#o"/><radialGradient id="q" cx="0" cy="0" gradientTransform="matrix(-2.92185869 2.09377433 -.81648229 -1.13939971 9.375 6.21729)" gradientUnits="userSpaceOnUse" r="1"><stop offset="0" stop-color="#5c5564"/><stop offset="1" stop-color="#5c5564" stop-opacity="0"/></radialGradient><radialGradient id="r" cx="0" cy="0" gradientTransform="matrix(1.34375323 -5.06249702 4.18965171 1.11207137 15 17.9673)" gradientUnits="userSpaceOnUse" r="1"><stop offset=".006" stop-color="#351f47"/><stop offset="1" stop-color="#3b3442"/></radialGradient><radialGradient id="s" cx="0" cy="0" gradientTransform="matrix(-1.5781334 .87498968 -.87859735 -1.5846402 17.2344 15.1079)" gradientUnits="userSpaceOnUse" r="1"><stop offset="0" stop-color="#766f7e"/><stop offset="1" stop-color="#766f7e" stop-opacity="0"/></radialGradient><radialGradient id="t" cx="0" cy="0" gradientTransform="matrix(1.01562577 2.96875013 -1.37247699 .46953194 12.7187 13.5298)" gradientUnits="userSpaceOnUse" r="1"><stop offset="0" stop-color="#39363e"/><stop offset="1" stop-color="#39363e" stop-opacity="0"/></radialGradient><radialGradient id="u" cx="0" cy="0" gradientTransform="matrix(-1.71875013 -.35937869 .43828801 -2.09613868 18.8125 17.2329)" gradientUnits="userSpaceOnUse" r="1" xlink:href="#o"/><radialGradient id="v" cx="0" cy="0" gradientTransform="matrix(.17187455 -.51192345 .94638426 .31774159 14.375 18.5886)" gradientUnits="userSpaceOnUse" r="1"><stop offset="0" stop-color="#645375"/><stop offset="1" stop-color="#645375" stop-opacity="0"/></radialGradient><radialGradient id="w" cx="0" cy="0" gradientTransform="matrix(5.22502301 -13.56252573 10.47903919 4.03709618 23.525 28.061)" gradientUnits="userSpaceOnUse" r="1"><stop offset="0" stop-color="#3e2454"/><stop offset="1" stop-color="#363439"/></radialGradient><radialGradient id="x" cx="0" cy="0" gradientTransform="matrix(-.93749982 5.43750296 -4.75490429 -.81981048 26.8125 20.811)" gradientUnits="userSpaceOnUse" r="1"><stop offset="0" stop-color="#776f81"/><stop offset=".929" stop-color="#776f81" stop-opacity="0"/></radialGradient><radialGradient id="y" cx="0" cy="0" gradientTransform="matrix(12.9899976 -7.31249948 6.36132709 11.30032541 16.5 25.4985)" gradientUnits="userSpaceOnUse" r="1"><stop offset=".854" stop-color="#797182" stop-opacity="0"/><stop offset="1" stop-color="#797182"/></radialGradient><radialGradient id="z" cx="0" cy="0" gradientTransform="matrix(4.25000215 .12500049 -.4763956 16.19739567 16.5625 22.561)" gradientUnits="userSpaceOnUse" r="1"><stop offset="0" stop-color="#3d3c3e"/><stop offset=".76" stop-color="#3d3c3e" stop-opacity="0"/></radialGradient><radialGradient id="A" cx="0" cy="0" gradientTransform="matrix(-.40625364 .56249786 -.50148884 -.36219101 6.09906 11.3611)" gradientUnits="userSpaceOnUse" r="1"><stop offset="0" stop-color="#433437"/><stop offset="1" stop-color="#44313b"/></radialGradient><radialGradient id="B" cx="0" cy="0" gradientTransform="matrix(.04437243 -.35546925 .31272597 .03903689 5.90625 11.8228)" gradientUnits="userSpaceOnUse" r="1"><stop offset="0" stop-color="#482b47"/><stop offset="1" stop-color="#482b47" stop-opacity="0"/></radialGradient><radialGradient id="C" cx="0" cy="0" gradientTransform="matrix(-.26562699 .24218545 -.21306472 -.23368761 6.13748 11.397)" gradientUnits="userSpaceOnUse" r="1"><stop offset="0" stop-color="#5c5051"/><stop offset="1" stop-color="#5c5051" stop-opacity="0"/></radialGradient><linearGradient id="D" gradientUnits="userSpaceOnUse" x1="5.852" x2="5.509" y1="11.129" y2="10.911"><stop offset="0" stop-color="#5c5051" stop-opacity="0"/><stop offset="1" stop-color="#5c5051"/></linearGradient><linearGradient id="E"><stop offset="0" stop-color="#4a454f" stop-opacity="0"/><stop offset=".183" stop-color="#4a454f"/><stop offset="1" stop-color="#5f4677"/></linearGradient><linearGradient id="F" gradientUnits="userSpaceOnUse" x1="12.203" x2="7.014" xlink:href="#E" y1="21.863" y2="22.232"/><linearGradient id="G" gradientUnits="userSpaceOnUse" x1="15.172" x2="14.042" xlink:href="#E" y1="19.811" y2="19.959"/><g stroke-linecap="round" stroke-linejoin="round" stroke-miterlimit="10"><path d="m15.08 15.5684v13.49" stroke="url(#g)"/><path d="m15.53 15.5684-8.43002 13.49" stroke="url(#h)"/><path d="m2 20.0684c1.79-1.79 5.29-1.79 7.09 0l6.94-4.96" stroke="url(#i)"/></g><g filter="url(#a)"><path d="m2 20.0684c1.79-1.79 5.29-1.79 7.09 0l6.94-4.96" stroke="url(#j)" stroke-linecap="round" stroke-linejoin="round" stroke-miterlimit="10" stroke-width=".25"/></g><path d="m8.11 8.10854c0-3.38-2.73-6.11-6.11-6.11" stroke="url(#k)" stroke-linecap="round" stroke-linejoin="round" stroke-miterlimit="10"/><g filter="url(#b)"><path d="m8.21938 8.10854c0-3.38-2.68032-6.12563-6.11782-6.22719" stroke="#6e6279" stroke-linecap="round" stroke-linejoin="round" stroke-miterlimit="10" stroke-width=".15"/></g><path d="m13.56 13.0586c0 3.04-2.46 3.5-5.5 3.5s-5.5-.46-5.5-3.5 2.46-5.50001 5.5-5.50001 5.5 2.46001 5.5 5.50001z" fill="url(#l)"/><path d="m13.56 13.0586c0 3.04-2.46 3.5-5.5 3.5s-5.5-.46-5.5-3.5 2.46-5.50001 5.5-5.50001 5.5 2.46001 5.5 5.50001z" fill="url(#m)"/><path d="m13.56 13.0586c0 3.04-2.46 3.5-5.5 3.5s-5.5-.46-5.5-3.5 2.46-5.50001 5.5-5.50001 5.5 2.46001 5.5 5.50001z" fill="url(#n)"/><path d="m13.56 13.0586c0 3.04-2.46 3.5-5.5 3.5s-5.5-.46-5.5-3.5 2.46-5.50001 5.5-5.50001 5.5 2.46001 5.5 5.50001z" fill="url(#p)"/><path d="m13.56 13.0586c0 3.04-2.46 3.5-5.5 3.5s-5.5-.46-5.5-3.5 2.46-5.50001 5.5-5.50001 5.5 2.46001 5.5 5.50001z" fill="url(#q)"/><path d="m15.53 18.5886c1.6679 0 3.02-1.3521 3.02-3.02s-1.3521-3.02-3.02-3.02-3.02 1.3521-3.02 3.02 1.3521 3.02 3.02 3.02z" fill="url(#r)"/><path d="m15.53 18.5886c1.6679 0 3.02-1.3521 3.02-3.02s-1.3521-3.02-3.02-3.02-3.02 1.3521-3.02 3.02 1.3521 3.02 3.02 3.02z" fill="url(#s)"/><path d="m15.53 18.5886c1.6679 0 3.02-1.3521 3.02-3.02s-1.3521-3.02-3.02-3.02-3.02 1.3521-3.02 3.02 1.3521 3.02 3.02 3.02z" fill="url(#t)"/><path d="m15.53 18.5886c1.6679 0 3.02-1.3521 3.02-3.02s-1.3521-3.02-3.02-3.02-3.02 1.3521-3.02 3.02 1.3521 3.02 3.02 3.02z" fill="url(#u)"/><path d="m15.53 18.5886c1.6679 0 3.02-1.3521 3.02-3.02s-1.3521-3.02-3.02-3.02-3.02 1.3521-3.02 3.02 1.3521 3.02 3.02 3.02z" fill="url(#v)"/><path d="m21.96 29.5585c-4.16 0-4.4-3.37-4.4-7.53s.24-7.53 4.4-7.53 7.53 3.37 7.53 7.53-3.37 7.53-7.53 7.53z" fill="url(#w)"/><path d="m21.96 29.5585c-4.16 0-4.4-3.37-4.4-7.53s.24-7.53 4.4-7.53 7.53 3.37 7.53 7.53-3.37 7.53-7.53 7.53z" fill="url(#x)"/><path d="m21.96 29.5585c-4.16 0-4.4-3.37-4.4-7.53s.24-7.53 4.4-7.53 7.53 3.37 7.53 7.53-3.37 7.53-7.53 7.53z" fill="url(#y)"/><path d="m21.96 29.5585c-4.16 0-4.4-3.37-4.4-7.53s.24-7.53 4.4-7.53 7.53 3.37 7.53 7.53-3.37 7.53-7.53 7.53z" fill="url(#z)"/><g filter="url(#c)"><circle cx="5.951" cy="11.691" fill="#2e2239" r=".571"/></g><circle cx="5.951" cy="11.522" fill="url(#A)" r=".5"/><circle cx="5.951" cy="11.522" fill="url(#B)" r=".5"/><circle cx="5.951" cy="11.522" fill="url(#C)" r=".5"/><circle cx="5.951" cy="11.522" fill="url(#D)" r=".5"/><g filter="url(#d)"><path d="m13.7812 18.4673-6.62495 10.4687" stroke="url(#F)" stroke-linecap="round" stroke-linejoin="round" stroke-miterlimit="10" stroke-width=".25"/></g><g filter="url(#e)"><path d="m15.125 19.5298v9.3437" stroke="url(#G)" stroke-linecap="round" stroke-linejoin="round" stroke-miterlimit="10" stroke-width=".25"/></g></svg>