<svg fill="none" height="32" viewBox="0 0 32 32" width="32" xmlns="http://www.w3.org/2000/svg" xmlns:xlink="http://www.w3.org/1999/xlink"><filter id="a" color-interpolation-filters="sRGB" filterUnits="userSpaceOnUse" height="6.117" width="3.234" x="5.921" y="5.879"><feFlood flood-opacity="0" result="BackgroundImageFix"/><feBlend in="SourceGraphic" in2="BackgroundImageFix" mode="normal" result="shape"/><feColorMatrix in="SourceAlpha" result="hardAlpha" type="matrix" values="0 0 0 0 0 0 0 0 0 0 0 0 0 0 0 0 0 0 127 0"/><feOffset dx=".1" dy="-.1"/><feGaussianBlur stdDeviation=".125"/><feComposite in2="hardAlpha" k2="-1" k3="1" operator="arithmetic"/><feColorMatrix type="matrix" values="0 0 0 0 0.541176 0 0 0 0 0.52549 0 0 0 0 0.564706 0 0 0 1 0"/><feBlend in2="shape" mode="normal" result="effect1_innerShadow_28327_6482"/></filter><filter id="b" color-interpolation-filters="sRGB" filterUnits="userSpaceOnUse" height="5.497" width="2.747" x="6.259" y="6.11"><feFlood flood-opacity="0" result="BackgroundImageFix"/><feBlend in="SourceGraphic" in2="BackgroundImageFix" mode="normal" result="shape"/><feGaussianBlur result="effect1_foregroundBlur_28327_6482" stdDeviation=".175"/></filter><filter id="c" color-interpolation-filters="sRGB" filterUnits="userSpaceOnUse" height="2.989" width="5.399" x="1.882" y="13.38"><feFlood flood-opacity="0" result="BackgroundImageFix"/><feBlend in="SourceGraphic" in2="BackgroundImageFix" mode="normal" result="shape"/><feColorMatrix in="SourceAlpha" result="hardAlpha" type="matrix" values="0 0 0 0 0 0 0 0 0 0 0 0 0 0 0 0 0 0 127 0"/><feOffset dx=".1" dy=".1"/><feGaussianBlur stdDeviation=".125"/><feComposite in2="hardAlpha" k2="-1" k3="1" operator="arithmetic"/><feColorMatrix type="matrix" values="0 0 0 0 0.560784 0 0 0 0 0.541176 0 0 0 0 0.584314 0 0 0 1 0"/><feBlend in2="shape" mode="normal" result="effect1_innerShadow_28327_6482"/></filter><filter id="d" color-interpolation-filters="sRGB" filterUnits="userSpaceOnUse" height="2.403" width="4.388" x="2.291" y="13.625"><feFlood flood-opacity="0" result="BackgroundImageFix"/><feBlend in="SourceGraphic" in2="BackgroundImageFix" mode="normal" result="shape"/><feGaussianBlur result="effect1_foregroundBlur_28327_6482" stdDeviation=".175"/></filter><filter id="e" color-interpolation-filters="sRGB" filterUnits="userSpaceOnUse" height="7.031" width="3.859" x="3.968" y="22.369"><feFlood flood-opacity="0" result="BackgroundImageFix"/><feBlend in="SourceGraphic" in2="BackgroundImageFix" mode="normal" result="shape"/><feColorMatrix in="SourceAlpha" result="hardAlpha" type="matrix" values="0 0 0 0 0 0 0 0 0 0 0 0 0 0 0 0 0 0 127 0"/><feOffset dx=".1" dy=".1"/><feGaussianBlur stdDeviation=".125"/><feComposite in2="hardAlpha" k2="-1" k3="1" operator="arithmetic"/><feColorMatrix type="matrix" values="0 0 0 0 0.560784 0 0 0 0 0.541176 0 0 0 0 0.584314 0 0 0 1 0"/><feBlend in2="shape" mode="normal" result="effect1_innerShadow_28327_6482"/></filter><filter id="f" color-interpolation-filters="sRGB" filterUnits="userSpaceOnUse" height="5.981" width="2.716" x="4.306" y="23.141"><feFlood flood-opacity="0" result="BackgroundImageFix"/><feBlend in="SourceGraphic" in2="BackgroundImageFix" mode="normal" result="shape"/><feGaussianBlur result="effect1_foregroundBlur_28327_6482" stdDeviation=".175"/></filter><filter id="g" color-interpolation-filters="sRGB" filterUnits="userSpaceOnUse" height="6.117" width="3.234" x="22.945" y="5.979"><feFlood flood-opacity="0" result="BackgroundImageFix"/><feBlend in="SourceGraphic" in2="BackgroundImageFix" mode="normal" result="shape"/><feColorMatrix in="SourceAlpha" result="hardAlpha" type="matrix" values="0 0 0 0 0 0 0 0 0 0 0 0 0 0 0 0 0 0 127 0"/><feOffset dx=".1" dy=".1"/><feGaussianBlur stdDeviation=".125"/><feComposite in2="hardAlpha" k2="-1" k3="1" operator="arithmetic"/><feColorMatrix type="matrix" values="0 0 0 0 0.431373 0 0 0 0 0.411765 0 0 0 0 0.435294 0 0 0 1 0"/><feBlend in2="shape" mode="normal" result="effect1_innerShadow_28327_6482"/></filter><filter id="h" color-interpolation-filters="sRGB" filterUnits="userSpaceOnUse" height="5.216" width="2.388" x="23.701" y="6.203"><feFlood flood-opacity="0" result="BackgroundImageFix"/><feBlend in="SourceGraphic" in2="BackgroundImageFix" mode="normal" result="shape"/><feGaussianBlur result="effect1_foregroundBlur_28327_6482" stdDeviation=".175"/></filter><filter id="i" color-interpolation-filters="sRGB" filterUnits="userSpaceOnUse" height="2.989" width="5.399" x="24.82" y="13.38"><feFlood flood-opacity="0" result="BackgroundImageFix"/><feBlend in="SourceGraphic" in2="BackgroundImageFix" mode="normal" result="shape"/><feColorMatrix in="SourceAlpha" result="hardAlpha" type="matrix" values="0 0 0 0 0 0 0 0 0 0 0 0 0 0 0 0 0 0 127 0"/><feOffset dx=".1" dy=".1"/><feGaussianBlur stdDeviation=".125"/><feComposite in2="hardAlpha" k2="-1" k3="1" operator="arithmetic"/><feColorMatrix type="matrix" values="0 0 0 0 0.431373 0 0 0 0 0.411765 0 0 0 0 0.435294 0 0 0 1 0"/><feBlend in2="shape" mode="normal" result="effect1_innerShadow_28327_6482"/></filter><filter id="j" color-interpolation-filters="sRGB" filterUnits="userSpaceOnUse" height="7.031" width="3.859" x="24.273" y="22.369"><feFlood flood-opacity="0" result="BackgroundImageFix"/><feBlend in="SourceGraphic" in2="BackgroundImageFix" mode="normal" result="shape"/><feColorMatrix in="SourceAlpha" result="hardAlpha" type="matrix" values="0 0 0 0 0 0 0 0 0 0 0 0 0 0 0 0 0 0 127 0"/><feOffset dx=".1" dy=".1"/><feGaussianBlur stdDeviation=".125"/><feComposite in2="hardAlpha" k2="-1" k3="1" operator="arithmetic"/><feColorMatrix type="matrix" values="0 0 0 0 0.560784 0 0 0 0 0.541176 0 0 0 0 0.584314 0 0 0 1 0"/><feBlend in2="shape" mode="normal" result="effect1_innerShadow_28327_6482"/></filter><filter id="k" color-interpolation-filters="sRGB" filterUnits="userSpaceOnUse" height="6.472" width="2.956" x="25.116" y="22.716"><feFlood flood-opacity="0" result="BackgroundImageFix"/><feBlend in="SourceGraphic" in2="BackgroundImageFix" mode="normal" result="shape"/><feGaussianBlur result="effect1_foregroundBlur_28327_6482" stdDeviation=".2"/></filter><filter id="l" color-interpolation-filters="sRGB" filterUnits="userSpaceOnUse" height="3.716" width="2.528" x="12.994" y="1.993"><feFlood flood-opacity="0" result="BackgroundImageFix"/><feBlend in="SourceGraphic" in2="BackgroundImageFix" mode="normal" result="shape"/><feGaussianBlur result="effect1_foregroundBlur_28327_6482" stdDeviation=".175"/></filter><filter id="m" color-interpolation-filters="sRGB" filterUnits="userSpaceOnUse" height="3.716" width="2.528" x="16.884" y="2.032"><feFlood flood-opacity="0" result="BackgroundImageFix"/><feBlend in="SourceGraphic" in2="BackgroundImageFix" mode="normal" result="shape"/><feGaussianBlur result="effect1_foregroundBlur_28327_6482" stdDeviation=".175"/></filter><filter id="n" color-interpolation-filters="sRGB" filterUnits="userSpaceOnUse" height="2.485" width="4.309" x="25.744" y="13.543"><feFlood flood-opacity="0" result="BackgroundImageFix"/><feBlend in="SourceGraphic" in2="BackgroundImageFix" mode="normal" result="shape"/><feGaussianBlur result="effect1_foregroundBlur_28327_6482" stdDeviation=".175"/></filter><linearGradient id="o"><stop offset="0" stop-color="#786e81"/><stop offset="1" stop-color="#786e81" stop-opacity="0"/></linearGradient><radialGradient id="p" cx="0" cy="0" gradientTransform="matrix(-.56250252 .35155884 -.22427778 -.35884979 7.0625 6.44409)" gradientUnits="userSpaceOnUse" r="1" xlink:href="#o"/><linearGradient id="q"><stop offset="0" stop-color="#453851"/><stop offset="1" stop-color="#44265b"/></linearGradient><linearGradient id="r" gradientUnits="userSpaceOnUse" x1="4.094" x2="4.688" xlink:href="#q" y1="13.975" y2="16.053"/><linearGradient id="s" gradientUnits="userSpaceOnUse" x1="5.583" x2="9.176" xlink:href="#q" y1="22.68" y2="24.729"/><linearGradient id="t" gradientUnits="userSpaceOnUse" x1="4.875" x2="6.344" y1="28.132" y2="22.21"><stop offset="0" stop-color="#736a7b"/><stop offset="1" stop-color="#6a6272" stop-opacity="0"/></linearGradient><linearGradient id="u"><stop offset="0" stop-color="#3a2c41"/><stop offset="1" stop-color="#42324e"/></linearGradient><linearGradient id="v" gradientUnits="userSpaceOnUse" x1="23.938" x2="25.672" xlink:href="#u" y1="7.428" y2="8.987"/><radialGradient id="w" cx="0" cy="0" gradientTransform="matrix(-.63281476 .39062079 -.24919773 -.40370611 26.0703 6.39722)" gradientUnits="userSpaceOnUse" r="1" xlink:href="#o"/><linearGradient id="x" gradientUnits="userSpaceOnUse" x1="25.789" x2="23.836" y1="6.819" y2="12.897"><stop offset="0" stop-color="#6a6272"/><stop offset="1" stop-color="#6a6272" stop-opacity="0"/></linearGradient><linearGradient id="y" gradientUnits="userSpaceOnUse" x1="26.178" x2="26.353" xlink:href="#u" y1="14.322" y2="15.419"/><radialGradient id="z" cx="0" cy="0" gradientTransform="matrix(-.85937995 .75000193 -.26494111 -.30357932 30.1484 15.1316)" gradientUnits="userSpaceOnUse" r="1" xlink:href="#o"/><linearGradient id="A" gradientUnits="userSpaceOnUse" x1="26.417" x2="22.824" xlink:href="#q" y1="22.68" y2="24.729"/><linearGradient id="B"><stop offset="0" stop-color="#6c6573"/><stop offset="1" stop-color="#6a6272" stop-opacity="0"/></linearGradient><linearGradient id="C" gradientUnits="userSpaceOnUse" x1="27.369" x2="24.677" xlink:href="#B" y1="26.621" y2="26.496"/><linearGradient id="D"><stop offset="0" stop-color="#7c7881"/><stop offset="1" stop-color="#7c7881" stop-opacity="0"/></linearGradient><linearGradient id="E" gradientUnits="userSpaceOnUse" x1="17.063" x2="17.403" xlink:href="#D" y1="4.03" y2="4.226"/><radialGradient id="F" cx="0" cy="0" gradientTransform="matrix(-.23437829 .39843585 -.39024148 -.22955798 19.0938 2.52229)" gradientUnits="userSpaceOnUse" r="1"><stop offset=".147" stop-color="#786e81"/><stop offset="1" stop-color="#786e81" stop-opacity="0"/></radialGradient><linearGradient id="G" gradientUnits="userSpaceOnUse" x1="13.563" x2="13.984" xlink:href="#D" y1="4.71" y2="4.491"/><linearGradient id="H" gradientUnits="userSpaceOnUse" x1="18.797" x2="17.156" y1="2.507" y2="5.811"><stop offset="0" stop-color="#746d7b"/><stop offset="1" stop-color="#746d7b" stop-opacity="0"/></linearGradient><radialGradient id="I" cx="0" cy="0" gradientTransform="matrix(0 -2.96875 13.0937 0 16 9.24097)" gradientUnits="userSpaceOnUse" r="1"><stop offset="0" stop-color="#493e52"/><stop offset="1" stop-color="#463a4f"/></radialGradient><radialGradient id="J" cx="0" cy="0" gradientTransform="matrix(-.0625008 2.5624979 -5.88217061 -.14346952 21.1875 7.89722)" gradientUnits="userSpaceOnUse" r="1"><stop offset="0" stop-color="#756e7c"/><stop offset="1" stop-color="#756e7c" stop-opacity="0"/></radialGradient><radialGradient id="K" cx="0" cy="0" gradientTransform="matrix(2.68749735 -2.03124822 .87435258 1.15683559 10.5 6.67847)" gradientUnits="userSpaceOnUse" r="1"><stop offset="0" stop-color="#7a767e"/><stop offset=".987" stop-color="#7a767e" stop-opacity="0"/></radialGradient><radialGradient id="L" cx="0" cy="0" gradientTransform="matrix(1.06249941 -3.21874938 6.8896419 2.2742499 10.9688 11.5847)" gradientUnits="userSpaceOnUse" r="1"><stop offset="0" stop-color="#3b3143"/><stop offset="1" stop-color="#3b3143" stop-opacity="0"/></radialGradient><linearGradient id="M" gradientUnits="userSpaceOnUse" x1="8.422" x2="9.781" y1="9.46" y2="9.632"><stop offset="0" stop-color="#969499"/><stop offset="1" stop-color="#969499" stop-opacity="0"/></linearGradient><linearGradient id="N"><stop offset="0" stop-color="#382b42"/><stop offset="1" stop-color="#382b42" stop-opacity="0"/></linearGradient><radialGradient id="O" cx="0" cy="0" gradientTransform="matrix(.87500092 .60156261 -.32164542 .46784828 17.5469 4.78784)" gradientUnits="userSpaceOnUse" r="1" xlink:href="#N"/><radialGradient id="P" cx="0" cy="0" gradientTransform="matrix(-.5078168 .84374748 -.70021124 -.42142826 14.4844 4.73315)" gradientUnits="userSpaceOnUse" r="1" xlink:href="#N"/><linearGradient id="Q" gradientUnits="userSpaceOnUse" x1="10.813" x2="14.875" y1="10.835" y2="28.585"><stop offset="0" stop-color="#ba2b45"/><stop offset="1" stop-color="#ad1d5a"/></linearGradient><radialGradient id="R" cx="0" cy="0" gradientTransform="matrix(-15.4225 0 0 -15.375 20.3125 18.3972)" gradientUnits="userSpaceOnUse" r="1"><stop offset=".811" stop-color="#ca787d" stop-opacity="0"/><stop offset="1" stop-color="#ca787d"/></radialGradient><radialGradient id="S" cx="0" cy="0" gradientTransform="matrix(-16.125 0 0 -14.3125 20.3125 18.3972)" gradientUnits="userSpaceOnUse" r="1"><stop offset=".893" stop-color="#ad2d3c" stop-opacity="0"/><stop offset="1" stop-color="#ad2d3c"/></radialGradient><radialGradient id="T" cx="0" cy="0" gradientTransform="matrix(-2.65625471 2.01562256 -1.12836732 -1.48700014 9.92188 9.0378)" gradientUnits="userSpaceOnUse" r="1"><stop offset="0" stop-color="#af5962"/><stop offset="1" stop-color="#af5962" stop-opacity="0"/></radialGradient><radialGradient id="U" cx="0" cy="0" gradientTransform="matrix(.53906213 .53124982 -.71125545 .72171484 7.78906 10.5378)" gradientUnits="userSpaceOnUse" r="1"><stop offset="0" stop-color="#a21a2d"/><stop offset="1" stop-color="#a21a2d" stop-opacity="0"/></radialGradient><radialGradient id="V" cx="0" cy="0" gradientTransform="matrix(0 5.8125 -6.42352 0 10.236 14.8972)" gradientUnits="userSpaceOnUse" r="1"><stop offset="0" stop-color="#ca2d4d"/><stop offset="1" stop-color="#ca2d4d" stop-opacity="0"/></radialGradient><linearGradient id="W"><stop offset="0" stop-color="#af4684"/><stop offset="1" stop-color="#af4684" stop-opacity="0"/></linearGradient><linearGradient id="X" gradientUnits="userSpaceOnUse" x1="12.891" x2="13.172" xlink:href="#W" y1="29.272" y2="27.975"/><radialGradient id="Y" cx="0" cy="0" gradientTransform="matrix(-4.13611248 3.47676577 -4.98432495 -5.92957076 17.475 17.0763)" gradientUnits="userSpaceOnUse" r="1"><stop offset="0" stop-color="#c22e52"/><stop offset="1" stop-color="#c22e52" stop-opacity="0"/></radialGradient><linearGradient id="Z" gradientUnits="userSpaceOnUse" x1="20.438" x2="18.938" y1="11.46" y2="29.022"><stop offset="0" stop-color="#cc3d61"/><stop offset="1" stop-color="#be2061"/></linearGradient><radialGradient id="aa" cx="0" cy="0" gradientTransform="matrix(-8.3124809 3.43753459 -3.23452056 -7.82156213 25.6875 13.8972)" gradientUnits="userSpaceOnUse" r="1"><stop offset="0" stop-color="#ed6485"/><stop offset="1" stop-color="#ed6485" stop-opacity="0"/></radialGradient><linearGradient id="ab" gradientUnits="userSpaceOnUse" x1="19.109" x2="18.828" xlink:href="#W" y1="29.272" y2="27.975"/><radialGradient id="ac" cx="0" cy="0" gradientTransform="matrix(-3.56249573 -.96877669 .40551765 -1.49121557 24.4687 9.80343)" gradientUnits="userSpaceOnUse" r="1"><stop offset="0" stop-color="#c12d5f"/><stop offset="1" stop-color="#c12d5f" stop-opacity="0"/></radialGradient><radialGradient id="ad" cx="0" cy="0" gradientTransform="matrix(-8.14998 0 0 -8.14998 19.9 14.0847)" gradientUnits="userSpaceOnUse" r="1"><stop offset=".006" stop-color="#665667"/><stop offset="1" stop-color="#4a354c"/></radialGradient><radialGradient id="ae" cx="0" cy="0" gradientTransform="matrix(-3.50004219 5.27997431 -5.27997431 -3.50004219 11.875 19.3896)" gradientUnits="userSpaceOnUse" r="1"><stop offset=".006" stop-color="#472f4d"/><stop offset="1" stop-color="#44294f"/></radialGradient><radialGradient id="af" cx="0" cy="0" gradientTransform="matrix(2.28124423 5.80374845 -5.80374845 2.28124423 5.8125 11.6159)" gradientUnits="userSpaceOnUse" r="1"><stop offset=".006" stop-color="#878088"/><stop offset="1" stop-color="#453047"/></radialGradient><radialGradient id="ag" cx="0" cy="0" gradientTransform="matrix(2.66749496 5.9999982 -1.32234542 .5878918 4.5625 9.42841)" gradientUnits="userSpaceOnUse" r="1"><stop offset="0" stop-color="#9a959b"/><stop offset="1" stop-color="#9a959b" stop-opacity="0"/></radialGradient><radialGradient id="ah" cx="0" cy="0" gradientTransform="matrix(.62500306 4.01562241 -.68827328 .10712484 5.40625 12.819)" gradientUnits="userSpaceOnUse" r="1"><stop offset="0" stop-color="#321934"/><stop offset=".874" stop-color="#321934" stop-opacity="0"/></radialGradient><radialGradient id="ai" cx="0" cy="0" gradientTransform="matrix(3.81249968 2.09374769 -2.36948415 4.31458747 22.9063 13.7097)" gradientUnits="userSpaceOnUse" r="1"><stop offset="0" stop-color="#7f7080"/><stop offset="1" stop-color="#645166"/></radialGradient><radialGradient id="aj" cx="0" cy="0" gradientTransform="matrix(-.51563306 2.51375027 -.69394217 -.1423449 26.7031 14.7897)" gradientUnits="userSpaceOnUse" r="1"><stop offset="0" stop-color="#4a2f4d"/><stop offset="1" stop-color="#4a2f4d" stop-opacity="0"/></radialGradient><radialGradient id="ak" cx="0" cy="0" gradientTransform="matrix(-2.37502264 4.50749124 -4.50749124 -2.37502264 23.3125 19.3896)" gradientUnits="userSpaceOnUse" r="1"><stop offset=".006" stop-color="#664f64"/><stop offset="1" stop-color="#503459"/></radialGradient><linearGradient id="al" gradientUnits="userSpaceOnUse" x1="16" x2="16" y1="9.42" y2="23.96"><stop offset="0" stop-color="#3c3144"/><stop offset="1" stop-color="#3d2154"/></linearGradient><radialGradient id="am" cx="0" cy="0" gradientTransform="matrix(0 17.0313 -.582031 0 15.582 11.7409)" gradientUnits="userSpaceOnUse" r="1"><stop offset="0" stop-color="#69616f"/><stop offset="1" stop-color="#69616f" stop-opacity="0"/></radialGradient><linearGradient id="an" gradientUnits="userSpaceOnUse" x1="29.266" x2="24.875" xlink:href="#B" y1="14.975" y2="13.71"/><g filter="url(#a)" stroke-linecap="round" stroke-width="1.4"><path d="m6.62091 6.67847v2.33073c0 .24961.09335.4902.26171.67449l1.47267 1.61201" stroke="#3f304c"/><path d="m6.62091 6.67847v2.33073c0 .24961.09335.4902.26171.67449l1.47267 1.61201" stroke="url(#p)"/></g><g filter="url(#b)"><path d="m6.73438 6.58472v2.54289c0 .13261.05267.25979.14644.35355l1.65043 1.65044" stroke="#6a6272" stroke-linecap="round" stroke-width=".25"/></g><g filter="url(#c)"><path d="m2.58185 15.5691.54756-.535c.53074-.5185 1.19435-.904 1.93528-.9436.41-.0219.89368-.0132 1.4156.0645" stroke="url(#r)" stroke-linecap="round" stroke-width="1.4"/></g><g filter="url(#d)"><path d="m2.76562 15.5535.8254-.7174c.54587-.4745 1.24477-.7358 1.96801-.7358h.64409" stroke="#6a6272" stroke-linecap="round" stroke-opacity=".6" stroke-width=".25"/></g><g filter="url(#e)"><path d="m7.02716 23.0691-1.61003 1.2901c-.47368.3796-.74934.9538-.74934 1.5608v2.6803" stroke="url(#s)" stroke-linecap="round" stroke-width="1.4"/></g><g filter="url(#f)"><path d="m6.54688 23.616-.84405.6872c-.58312.4747-.92158 1.1867-.92158 1.9387v2.4053" stroke="url(#t)" stroke-linecap="round" stroke-width=".25"/></g><g filter="url(#g)" stroke-linecap="round" stroke-width="1.4"><path d="m25.379 6.67847v2.33073c0 .24961-.0933.4902-.2617.67449l-1.4726 1.61201" stroke="url(#v)"/><path d="m25.379 6.67847v2.33073c0 .24961-.0933.4902-.2617.67449l-1.4726 1.61201" stroke="url(#w)"/></g><g filter="url(#h)"><path d="m24.1759 10.9441.9291-1.04022c.3274-.36655.5084-.84083.5084-1.33232v-1.89309" stroke="url(#x)" stroke-linecap="round" stroke-width=".25"/></g><g filter="url(#i)" stroke-linecap="round" stroke-width="1.4"><path d="m29.4181 15.5691-.5476-.535c-.5307-.5185-1.1943-.904-1.9353-.9436-.4099-.0219-.8936-.0132-1.4155.0645" stroke="url(#y)"/><path d="m29.4181 15.5691-.5476-.535c-.5307-.5185-1.1943-.904-1.9353-.9436-.4099-.0219-.8936-.0132-1.4155.0645" stroke="url(#z)"/></g><g filter="url(#j)"><path d="m24.9728 23.0691 1.61 1.2901c.4737.3796.7494.9538.7494 1.5608v2.6803" stroke="url(#A)" stroke-linecap="round" stroke-width="1.4"/></g><g filter="url(#k)"><path d="m25.6406 23.241 1.2109 1.0421c.4415.38.6954.9335.6954 1.5159v2.8638" stroke="url(#C)" stroke-linecap="round" stroke-width=".25"/></g><g stroke-linecap="round" stroke-width="1.2"><path d="m18.6875 2.60791-1.8843 3.22688" stroke="#3a2d45"/><path d="m18.6875 2.60791-1.8843 3.22688" stroke="url(#E)"/><path d="m18.6875 2.60791-1.8843 3.22688" stroke="url(#F)"/><path d="m13.3125 2.60791 1.8501 3.22688" stroke="#3a2d45"/><path d="m13.3125 2.60791 1.8501 3.22688" stroke="url(#G)"/></g><g filter="url(#l)"><path d="m13.4688 2.46753 1.5781 2.76562" stroke="#746d7b" stroke-linecap="round" stroke-width=".25"/></g><g filter="url(#m)"><path d="m18.9375 2.50659-1.5781 2.76563" stroke="url(#H)" stroke-linecap="round" stroke-width=".25"/></g><ellipse cx="16" cy="9.874" fill="url(#I)" rx="6.746" ry="5.227"/><ellipse cx="16" cy="9.874" fill="url(#J)" rx="6.746" ry="5.227"/><ellipse cx="16" cy="9.874" fill="url(#K)" rx="6.746" ry="5.227"/><ellipse cx="16" cy="9.874" fill="url(#L)" rx="6.746" ry="5.227"/><ellipse cx="16" cy="9.874" fill="url(#M)" rx="6.746" ry="5.227"/><ellipse cx="16" cy="9.874" fill="url(#O)" rx="6.746" ry="5.227"/><ellipse cx="16" cy="9.874" fill="url(#P)" rx="6.746" ry="5.227"/><path d="m4.89001 18.3097c0-3.62 1.72999-6.84 4.41999-8.87002 0-.01.01001-.01.01001-.02h6.26199v20.00042c-.1953-.0087-.3886-.0228-.582-.0404-5.66998-.51-10.10999-5.27-10.10999-11.07z" fill="url(#Q)"/><path d="m4.89001 18.3097c0-3.62 1.72999-6.84 4.41999-8.87002 0-.01.01001-.01.01001-.02h6.26199v20.00042c-.1953-.0087-.3886-.0228-.582-.0404-5.66998-.51-10.10999-5.27-10.10999-11.07z" fill="url(#R)"/><path d="m4.89001 18.3097c0-3.62 1.72999-6.84 4.41999-8.87002 0-.01.01001-.01.01001-.02h6.26199v20.00042c-.1953-.0087-.3886-.0228-.582-.0404-5.66998-.51-10.10999-5.27-10.10999-11.07z" fill="url(#S)"/><path d="m4.89001 18.3097c0-3.62 1.72999-6.84 4.41999-8.87002 0-.01.01001-.01.01001-.02h6.26199v20.00042c-.1953-.0087-.3886-.0228-.582-.0404-5.66998-.51-10.10999-5.27-10.10999-11.07z" fill="url(#T)"/><path d="m4.89001 18.3097c0-3.62 1.72999-6.84 4.41999-8.87002 0-.01.01001-.01.01001-.02h6.26199v20.00042c-.1953-.0087-.3886-.0228-.582-.0404-5.66998-.51-10.10999-5.27-10.10999-11.07z" fill="url(#U)"/><path d="m4.89001 18.3097c0-3.62 1.72999-6.84 4.41999-8.87002 0-.01.01001-.01.01001-.02h6.26199v20.00042c-.1953-.0087-.3886-.0228-.582-.0404-5.66998-.51-10.10999-5.27-10.10999-11.07z" fill="url(#V)"/><path d="m4.89001 18.3097c0-3.62 1.72999-6.84 4.41999-8.87002 0-.01.01001-.01.01001-.02h6.26199v20.00042c-.1953-.0087-.3886-.0228-.582-.0404-5.66998-.51-10.10999-5.27-10.10999-11.07z" fill="url(#X)"/><path d="m4.89001 18.3097c0-3.62 1.72999-6.84 4.41999-8.87002 0-.01.01001-.01.01001-.02h6.26199v20.00042c-.1953-.0087-.3886-.0228-.582-.0404-5.66998-.51-10.10999-5.27-10.10999-11.07z" fill="url(#Y)"/><path d="m27.11 18.3097c0-3.62-1.73-6.84-4.42-8.87002 0-.01-.01-.01-.01-.02h-6.262v20.00042c.1953-.0087.3886-.0228.582-.0404 5.67-.51 10.11-5.27 10.11-11.07z" fill="url(#Z)"/><path d="m27.11 18.3097c0-3.62-1.73-6.84-4.42-8.87002 0-.01-.01-.01-.01-.02h-6.262v20.00042c.1953-.0087.3886-.0228.582-.0404 5.67-.51 10.11-5.27 10.11-11.07z" fill="url(#aa)"/><path d="m27.11 18.3097c0-3.62-1.73-6.84-4.42-8.87002 0-.01-.01-.01-.01-.02h-6.262v20.00042c.1953-.0087.3886-.0228.582-.0404 5.67-.51 10.11-5.27 10.11-11.07z" fill="url(#ab)"/><path d="m27.11 18.3097c0-3.62-1.73-6.84-4.42-8.87002 0-.01-.01-.01-.01-.02h-6.262v20.00042c.1953-.0087.3886-.0228.582-.0404 5.67-.51 10.11-5.27 10.11-11.07z" fill="url(#ac)"/><path d="m16 18.7797c2.1539 0 3.9-1.7461 3.9-3.9s-1.7461-3.9-3.9-3.9-3.9 1.7461-3.9 3.9 1.7461 3.9 3.9 3.9z" fill="url(#ad)"/><path d="m10.25 24.6696c1.458 0 2.64-1.1819 2.64-2.64 0-1.458-1.182-2.64-2.64-2.64-1.45805 0-2.64001 1.182-2.64001 2.64 0 1.4581 1.18196 2.64 2.64001 2.64z" fill="url(#ae)"/><path d="m6.82 12.1497c-.02 0-.04 0-.07 0-.9 1.34-1.51 2.89-1.75 4.55.47.45 1.11.72 1.82.72 1.46 0 2.64-1.18 2.64-2.64s-1.18-2.63-2.64-2.63z" fill="url(#af)"/><path d="m6.82 12.1497c-.02 0-.04 0-.07 0-.9 1.34-1.51 2.89-1.75 4.55.47.45 1.11.72 1.82.72 1.46 0 2.64-1.18 2.64-2.64s-1.18-2.63-2.64-2.63z" fill="url(#ag)"/><path d="m6.82 12.1497c-.02 0-.04 0-.07 0-.9 1.34-1.51 2.89-1.75 4.55.47.45 1.11.72 1.82.72 1.46 0 2.64-1.18 2.64-2.64s-1.18-2.63-2.64-2.63z" fill="url(#ah)"/><path d="m26.99 16.6997c-.24-1.67-.85-3.21-1.75-4.55-.02 0-.04 0-.07 0-1.46 0-2.64 1.18-2.64 2.64s1.18 2.64 2.64 2.64c.71-.01 1.35-.28 1.82-.73z" fill="url(#ai)"/><path d="m26.99 16.6997c-.24-1.67-.85-3.21-1.75-4.55-.02 0-.04 0-.07 0-1.46 0-2.64 1.18-2.64 2.64s1.18 2.64 2.64 2.64c.71-.01 1.35-.28 1.82-.73z" fill="url(#aj)"/><path d="m21.75 24.6696c1.458 0 2.64-1.1819 2.64-2.64 0-1.458-1.182-2.64-2.64-2.64s-2.64 1.182-2.64 2.64c0 1.4581 1.182 2.64 2.64 2.64z" fill="url(#ak)"/><path d="m16 27.5797c.8063 0 1.46-.6537 1.46-1.46 0-.8064-.6537-1.46-1.46-1.46-.8064 0-1.46.6536-1.46 1.46 0 .8063.6536 1.46 1.46 1.46z" fill="#4b2958"/><path d="m15.582 9.41968h.835938v19.6106h-.835938z" fill="url(#al)"/><path d="m15.582 9.41968h.835938v19.6106h-.835938z" fill="url(#am)"/><g filter="url(#n)"><path d="m26.2188 14.0222c.9218 0 1.6031-.075 2.1406.4375s1.0364.9427 1.2187 1.0937" stroke="url(#an)" stroke-linecap="round" stroke-width=".25"/></g></svg>