<svg fill="none" height="32" viewBox="0 0 32 32" width="32" xmlns="http://www.w3.org/2000/svg" xmlns:xlink="http://www.w3.org/1999/xlink"><filter id="a" color-interpolation-filters="sRGB" filterUnits="userSpaceOnUse" height="6.25" width="14" x="8.991" y="17.752"><feFlood flood-opacity="0" result="BackgroundImageFix"/><feBlend in="SourceGraphic" in2="BackgroundImageFix" mode="normal" result="shape"/><feColorMatrix in="SourceAlpha" result="hardAlpha" type="matrix" values="0 0 0 0 0 0 0 0 0 0 0 0 0 0 0 0 0 0 127 0"/><feOffset dy="-.25"/><feGaussianBlur stdDeviation=".375"/><feComposite in2="hardAlpha" k2="-1" k3="1" operator="arithmetic"/><feColorMatrix type="matrix" values="0 0 0 0 0.652983 0 0 0 0 0.534201 0 0 0 0 0.754167 0 0 0 1 0"/><feBlend in2="shape" mode="normal" result="effect1_innerShadow_28327_2236"/></filter><filter id="b" color-interpolation-filters="sRGB" filterUnits="userSpaceOnUse" height="2.453" width="2.453" x="19.241" y="19.157"><feFlood flood-opacity="0" result="BackgroundImageFix"/><feBlend in="SourceGraphic" in2="BackgroundImageFix" mode="normal" result="shape"/><feGaussianBlur result="effect1_foregroundBlur_28327_2236" stdDeviation=".25"/></filter><filter id="c" color-interpolation-filters="sRGB" filterUnits="userSpaceOnUse" height="5" width="3.5" x="17.991" y="13.096"><feFlood flood-opacity="0" result="BackgroundImageFix"/><feBlend in="SourceGraphic" in2="BackgroundImageFix" mode="normal" result="shape"/><feGaussianBlur result="effect1_foregroundBlur_28327_2236" stdDeviation=".5"/></filter><filter id="d" color-interpolation-filters="sRGB" filterUnits="userSpaceOnUse" height="5" width="3.5" x="9.991" y="13.096"><feFlood flood-opacity="0" result="BackgroundImageFix"/><feBlend in="SourceGraphic" in2="BackgroundImageFix" mode="normal" result="shape"/><feGaussianBlur result="effect1_foregroundBlur_28327_2236" stdDeviation=".5"/></filter><filter id="e" color-interpolation-filters="sRGB" filterUnits="userSpaceOnUse" height="2.537" width="3.913" x="20.597" y="17.769"><feFlood flood-opacity="0" result="BackgroundImageFix"/><feBlend in="SourceGraphic" in2="BackgroundImageFix" mode="normal" result="shape"/><feGaussianBlur result="effect1_foregroundBlur_28327_2236" stdDeviation=".1"/></filter><filter id="f" color-interpolation-filters="sRGB" filterUnits="userSpaceOnUse" height="2.616" width="4.038" x="20.456" y="21.488"><feFlood flood-opacity="0" result="BackgroundImageFix"/><feBlend in="SourceGraphic" in2="BackgroundImageFix" mode="normal" result="shape"/><feGaussianBlur result="effect1_foregroundBlur_28327_2236" stdDeviation=".1"/></filter><filter id="g" color-interpolation-filters="sRGB" filterUnits="userSpaceOnUse" height="1.175" width="1.175" x="10.708" y="21.442"><feFlood flood-opacity="0" result="BackgroundImageFix"/><feBlend in="SourceGraphic" in2="BackgroundImageFix" mode="normal" result="shape"/><feGaussianBlur result="effect1_foregroundBlur_28327_2236" stdDeviation=".2"/></filter><radialGradient id="h" cx="0" cy="0" gradientTransform="matrix(-4.68753782 4.62496138 -4.62496138 -4.68753782 10.5534 4.25)" gradientUnits="userSpaceOnUse" r="1"><stop offset="0" stop-color="#ff9e56"/><stop offset="1" stop-color="#d65e27"/></radialGradient><radialGradient id="i" cx="0" cy="0" gradientTransform="matrix(-4.68752187 2.43746651 -2.43746651 -4.68752187 26.8034 5.25)" gradientUnits="userSpaceOnUse" r="1"><stop offset="0" stop-color="#ffa761"/><stop offset="1" stop-color="#fc7520"/></radialGradient><radialGradient id="j" cx="0" cy="0" gradientTransform="matrix(-6.31247534 -3.84378175 3.48182291 -5.7180461 26.2722 8.56869)" gradientUnits="userSpaceOnUse" r="1"><stop offset=".724" stop-color="#e16f15" stop-opacity="0"/><stop offset="1" stop-color="#ca572a"/></radialGradient><radialGradient id="k" cx="0" cy="0" gradientTransform="matrix(3.15624953 3.74999961 -4.38567874 3.69127944 24.5847 5.72494)" gradientUnits="userSpaceOnUse" r="1"><stop offset=".784" stop-color="#e16f15" stop-opacity="0"/><stop offset="1" stop-color="#ca572a"/></radialGradient><radialGradient id="l" cx="0" cy="0" gradientTransform="matrix(2.59374888 .76985971 -1.46862038 4.94795666 6.58466 6.95508)" gradientUnits="userSpaceOnUse" r="1"><stop offset="0" stop-color="#e16f15"/><stop offset="1" stop-color="#ca572a"/></radialGradient><radialGradient id="m" cx="0" cy="0" gradientTransform="matrix(2.62499786 -.5823566 .50948676 2.29653388 5.49091 7.53744)" gradientUnits="userSpaceOnUse" r="1"><stop offset="0" stop-color="#e08353"/><stop offset=".876" stop-color="#e08353" stop-opacity="0"/></radialGradient><radialGradient id="n" cx="0" cy="0" gradientTransform="matrix(4.05248563 -1.88118717 1.03473021 2.22903354 22.4284 7.63119)" gradientUnits="userSpaceOnUse" r="1"><stop offset="0" stop-color="#f88a5d"/><stop offset=".837" stop-color="#ff7612"/></radialGradient><radialGradient id="o" cx="0" cy="0" gradientTransform="matrix(-4.05686798 -3.48440927 2.64645648 -3.08124669 25.6315 8.59994)" gradientUnits="userSpaceOnUse" r="1"><stop offset=".694" stop-color="#e16f15" stop-opacity="0"/><stop offset="1" stop-color="#ca572a"/></radialGradient><radialGradient id="p" cx="0" cy="0" gradientTransform="matrix(-6.24985094 19.34991093 -24.61612952 -7.9507932 22.2409 10.5937)" gradientUnits="userSpaceOnUse" r="1"><stop offset="0" stop-color="#ffa24d"/><stop offset=".501" stop-color="#fc7c2b"/><stop offset="1" stop-color="#ca4835"/></radialGradient><linearGradient id="q" gradientUnits="userSpaceOnUse" x1="26.928" x2="24.116" y1="9.256" y2="11.819"><stop offset=".136" stop-color="#f97420"/><stop offset=".649" stop-color="#fc7c2b" stop-opacity="0"/></linearGradient><radialGradient id="r" cx="0" cy="0" gradientTransform="matrix(0 -5.625 6.51316 0 15.9909 19.9124)" gradientUnits="userSpaceOnUse" r="1"><stop offset="0" stop-color="#e75f09"/><stop offset="1" stop-color="#e75f09" stop-opacity="0"/></radialGradient><linearGradient id="s" gradientUnits="userSpaceOnUse" x1="15.991" x2="15.991" y1="28.069" y2="24.319"><stop offset="0" stop-color="#c8485b"/><stop offset="1" stop-color="#c8485b" stop-opacity="0"/></linearGradient><linearGradient id="t" gradientUnits="userSpaceOnUse" x1="1.991" x2="3.96" y1="13.694" y2="15.596"><stop offset="0" stop-color="#bf603d"/><stop offset=".462" stop-color="#bf603d" stop-opacity="0"/></linearGradient><radialGradient id="u" cx="0" cy="0" gradientTransform="matrix(-.3750052 8.84988833 -8.27268629 -.35054684 15.9909 22.25)" gradientUnits="userSpaceOnUse" r="1"><stop offset="0" stop-color="#e8d0ff"/><stop offset=".781" stop-color="#e1d2ee"/><stop offset="1" stop-color="#ab8bca"/></radialGradient><radialGradient id="v" cx="0" cy="0" gradientTransform="matrix(0 11.5 -14.5 0 15.9909 22.0374)" gradientUnits="userSpaceOnUse" r="1"><stop offset=".489" stop-color="#c7a5e6" stop-opacity="0"/><stop offset=".865" stop-color="#c7a5e6"/></radialGradient><linearGradient id="w"><stop offset=".13" stop-color="#a58eb9"/><stop offset="1" stop-color="#a58eb9" stop-opacity="0"/></linearGradient><radialGradient id="x" cx="0" cy="0" gradientTransform="matrix(0 6.125 -10.25 0 15.9909 20.0999)" gradientUnits="userSpaceOnUse" r="1" xlink:href="#w"/><radialGradient id="y" cx="0" cy="0" gradientTransform="matrix(8.18750119 4.81249547 -3.77326903 6.41946467 7.24091 21.5374)" gradientUnits="userSpaceOnUse" r="1" xlink:href="#w"/><radialGradient id="z" cx="0" cy="0" gradientTransform="matrix(0 8 -14.4548 0 19.8044 18.3499)" gradientUnits="userSpaceOnUse" r="1"><stop offset=".177" stop-color="#e4d5e8"/><stop offset="1" stop-color="#c7a5e6"/></radialGradient><linearGradient id="A" gradientUnits="userSpaceOnUse" x1="15.991" x2="15.991" y1="25.787" y2="21.537"><stop offset="0" stop-color="#c7a5e6"/><stop offset="1" stop-color="#c7a5e6" stop-opacity="0"/></linearGradient><radialGradient id="B" cx="0" cy="0" gradientTransform="matrix(-1.99999311 .9375038 -.84515066 -1.80297456 21.4284 20.5374)" gradientUnits="userSpaceOnUse" r="1"><stop offset="0" stop-color="#f6e9f9"/><stop offset="1" stop-color="#f6e9f9" stop-opacity="0"/></radialGradient><linearGradient id="C"><stop offset=".225" stop-color="#594c4f"/><stop offset="1" stop-color="#392833"/></linearGradient><linearGradient id="D" gradientUnits="userSpaceOnUse" x1="20.654" x2="19.828" xlink:href="#C" y1="15.392" y2="15.392"/><linearGradient id="E"><stop offset="0" stop-color="#552d52"/><stop offset="1" stop-color="#552d52" stop-opacity="0"/></linearGradient><linearGradient id="F" gradientUnits="userSpaceOnUse" x1="20.975" x2="20.975" xlink:href="#E" y1="17.417" y2="15.827"/><linearGradient id="G" gradientUnits="userSpaceOnUse" x1="17.348" x2="14.255" y1="17.712" y2="20.446"><stop offset=".191" stop-color="#5f5254"/><stop offset="1" stop-color="#2e2127"/></linearGradient><linearGradient id="H" gradientUnits="userSpaceOnUse" x1="16.39" x2="16.39" y1="18.95" y2="17.254"><stop offset=".147" stop-color="#34222c" stop-opacity="0"/><stop offset=".873" stop-color="#34222c"/></linearGradient><linearGradient id="I" gradientUnits="userSpaceOnUse" x1="17.237" x2="17.237" xlink:href="#E" y1="21.793" y2="19.23"/><radialGradient id="J" cx="0" cy="0" gradientTransform="matrix(-5.96072608 -2.02908059 .91304792 -2.68221408 19.0638 20.5323)" gradientUnits="userSpaceOnUse" r="1"><stop offset=".828" stop-color="#5c5458" stop-opacity="0"/><stop offset=".935" stop-color="#5c5458"/></radialGradient><linearGradient id="K" gradientUnits="userSpaceOnUse" x1="26.928" x2="25.678" y1="23.288" y2="18.663"><stop offset=".006" stop-color="#4e3d5e"/><stop offset="1" stop-color="#695c77"/></linearGradient><linearGradient id="L" gradientUnits="userSpaceOnUse" x1="6.993" x2=".116" y1="20.047" y2="20.047"><stop offset=".064" stop-color="#443851"/><stop offset="1" stop-color="#5d5863"/></linearGradient><linearGradient id="M" gradientUnits="userSpaceOnUse" x1="13.553" x2="17.678" y1="9.975" y2="6.975"><stop offset=".006" stop-color="#4e3d5e"/><stop offset="1" stop-color="#5a4969"/></linearGradient><linearGradient id="N" gradientUnits="userSpaceOnUse" x1="15.991" x2="15.991" y1="3.725" y2="6.104"><stop offset=".006" stop-color="#635c6c"/><stop offset="1" stop-color="#4f3e5e"/><stop offset="1" stop-color="#503f5f"/></linearGradient><linearGradient id="O"><stop offset="0" stop-color="#e8dfed"/><stop offset="1" stop-color="#c3b3d2"/></linearGradient><linearGradient id="P" gradientUnits="userSpaceOnUse" x1="10.632" x2="9.913" xlink:href="#O" y1="18.319" y2="19.553"/><linearGradient id="Q"><stop offset="0" stop-color="#beadcc"/><stop offset=".783" stop-color="#beadcc" stop-opacity="0"/></linearGradient><linearGradient id="R" gradientUnits="userSpaceOnUse" x1="10.585" x2="10.21" xlink:href="#Q" y1="21.506" y2="20.022"/><linearGradient id="S"><stop offset="0" stop-color="#f6ebf9"/><stop offset="1" stop-color="#f6ebf9" stop-opacity="0"/></linearGradient><linearGradient id="T" gradientUnits="userSpaceOnUse" x1="11.553" x2="10.959" xlink:href="#S" y1="18.381" y2="19.881"/><linearGradient id="U" gradientUnits="userSpaceOnUse" x1="6.991" x2="8.755" xlink:href="#O" y1="19.913" y2="23.32"/><linearGradient id="V" gradientUnits="userSpaceOnUse" x1="9.835" x2="8.835" y1="23.725" y2="22.225"><stop offset="0" stop-color="#bb99d7"/><stop offset=".783" stop-color="#beadcc" stop-opacity="0"/></linearGradient><linearGradient id="W" gradientUnits="userSpaceOnUse" x1="25.678" x2="19.335" xlink:href="#O" y1="17" y2="20.501"/><linearGradient id="X"><stop offset="0" stop-color="#beadcc"/><stop offset="1" stop-color="#beadcc" stop-opacity="0"/></linearGradient><linearGradient id="Y" gradientUnits="userSpaceOnUse" x1="18.991" x2="21.741" xlink:href="#X" y1="21.506" y2="19.85"/><linearGradient id="Z" gradientUnits="userSpaceOnUse" x1="25.21" x2="23.975" xlink:href="#S" y1="17.397" y2="18.194"/><linearGradient id="aa" gradientUnits="userSpaceOnUse" x1="23.366" x2="22.439" xlink:href="#O" y1="22.475" y2="24.1"/><linearGradient id="ab" gradientUnits="userSpaceOnUse" x1="21.538" x2="21.913" xlink:href="#Q" y1="23.131" y2="22.459"/><linearGradient id="ac" gradientUnits="userSpaceOnUse" x1="19.788" x2="22.037" xlink:href="#X" y1="21.503" y2="22.835"/><linearGradient id="ad" gradientUnits="userSpaceOnUse" x1="25.366" x2="23.678" xlink:href="#S" y1="22.6" y2="23.001"/><linearGradient id="ae" gradientUnits="userSpaceOnUse" x1="12.654" x2="11.828" xlink:href="#C" y1="15.392" y2="15.392"/><linearGradient id="af" gradientUnits="userSpaceOnUse" x1="10.785" x2="11.991" y1="15.392" y2="15.392"><stop offset="0" stop-color="#594c4f"/><stop offset="1" stop-color="#594c4f" stop-opacity="0"/></linearGradient><linearGradient id="ag" gradientUnits="userSpaceOnUse" x1="12.975" x2="12.975" xlink:href="#E" y1="17.417" y2="15.827"/><linearGradient id="ah"><stop offset="0" stop-color="#f6ebf9"/><stop offset=".937" stop-color="#e4d6e8" stop-opacity="0"/></linearGradient><linearGradient id="ai" gradientUnits="userSpaceOnUse" x1="25.053" x2="21.553" xlink:href="#ah" y1="17.803" y2="19.928"/><linearGradient id="aj" gradientUnits="userSpaceOnUse" x1="24.35" x2="21.319" xlink:href="#ah" y1="24.006" y2="22.241"/><circle cx="7.873" cy="6.897" fill="url(#h)" r="3.897"/><circle cx="24.094" cy="6.897" fill="url(#i)" r="3.897"/><circle cx="24.094" cy="6.897" fill="url(#j)" r="3.897"/><circle cx="24.094" cy="6.897" fill="url(#k)" fill-opacity=".5" r="3.897"/><circle cx="7.944" cy="6.955" fill="url(#l)" r="2.453"/><circle cx="7.944" cy="6.955" fill="url(#m)" r="2.453"/><circle cx="24.028" cy="6.955" fill="url(#n)" r="2.453"/><circle cx="24.028" cy="6.955" fill="url(#o)" fill-opacity=".75" r="2.453"/><path d="m27.7409 12.4657-1.78-2.08c-.97-1.19824-3.0066-3.93501-5.32-5.15-1.39-.73-2.97-1.14-4.65-1.14s-3.26.41-4.65 1.14c-1.56874.733-4.50624 4.20175-5.32999 5.15l-1.77 2.08c-1.45 1.7-2.25 3.86-2.25 6.09v3.85c0 2.59 2.1 4.69 4.69 4.69h18.61999c2.59 0 4.69-2.1 4.69-4.69v-3.85c0-2.23-.8-4.39-2.25-6.09z" fill="url(#p)"/><path d="m27.7409 12.4657-1.78-2.08c-.97-1.19824-3.0066-3.93501-5.32-5.15-1.39-.73-2.97-1.14-4.65-1.14s-3.26.41-4.65 1.14c-1.56874.733-4.50624 4.20175-5.32999 5.15l-1.77 2.08c-1.45 1.7-2.25 3.86-2.25 6.09v3.85c0 2.59 2.1 4.69 4.69 4.69h18.61999c2.59 0 4.69-2.1 4.69-4.69v-3.85c0-2.23-.8-4.39-2.25-6.09z" fill="url(#q)"/><path d="m27.7409 12.4657-1.78-2.08c-.97-1.19824-3.0066-3.93501-5.32-5.15-1.39-.73-2.97-1.14-4.65-1.14s-3.26.41-4.65 1.14c-1.56874.733-4.50624 4.20175-5.32999 5.15l-1.77 2.08c-1.45 1.7-2.25 3.86-2.25 6.09v3.85c0 2.59 2.1 4.69 4.69 4.69h18.61999c2.59 0 4.69-2.1 4.69-4.69v-3.85c0-2.23-.8-4.39-2.25-6.09z" fill="url(#r)"/><path d="m27.7409 12.4657-1.78-2.08c-.97-1.19824-3.0066-3.93501-5.32-5.15-1.39-.73-2.97-1.14-4.65-1.14s-3.26.41-4.65 1.14c-1.56874.733-4.50624 4.20175-5.32999 5.15l-1.77 2.08c-1.45 1.7-2.25 3.86-2.25 6.09v3.85c0 2.59 2.1 4.69 4.69 4.69h18.61999c2.59 0 4.69-2.1 4.69-4.69v-3.85c0-2.23-.8-4.39-2.25-6.09z" fill="url(#s)"/><path d="m27.7409 12.4657-1.78-2.08c-.97-1.19824-3.0066-3.93501-5.32-5.15-1.39-.73-2.97-1.14-4.65-1.14s-3.26.41-4.65 1.14c-1.56874.733-4.50624 4.20175-5.32999 5.15l-1.77 2.08c-1.45 1.7-2.25 3.86-2.25 6.09v3.85c0 2.59 2.1 4.69 4.69 4.69h18.61999c2.59 0 4.69-2.1 4.69-4.69v-3.85c0-2.23-.8-4.39-2.25-6.09z" fill="url(#t)"/><path d="m15.9909 30.002c-3.87 0-6.99999-3.13-6.99999-7v-2h13.99999v2c0 3.87-3.13 7-7 7z" fill="url(#u)"/><path d="m15.9909 30.002c-3.87 0-6.99999-3.13-6.99999-7v-2h13.99999v2c0 3.87-3.13 7-7 7z" fill="url(#v)"/><path d="m15.9909 30.002c-3.87 0-6.99999-3.13-6.99999-7v-2h13.99999v2c0 3.87-3.13 7-7 7z" fill="url(#x)"/><path d="m15.9909 30.002c-3.87 0-6.99999-3.13-6.99999-7v-2h13.99999v2c0 3.87-3.13 7-7 7z" fill="url(#y)"/><g filter="url(#a)"><path d="m19.9909 18.002h-8c-1.66 0-2.99999 1.34-2.99999 3s1.33999 3 2.99999 3h1.5c1.04 0 1.96-.53 2.5-1.34.54.81 1.46 1.34 2.5 1.34h1.5c1.66 0 3-1.34 3-3s-1.34-3-3-3z" fill="url(#z)"/><path d="m19.9909 18.002h-8c-1.66 0-2.99999 1.34-2.99999 3s1.33999 3 2.99999 3h1.5c1.04 0 1.96-.53 2.5-1.34.54.81 1.46 1.34 2.5 1.34h1.5c1.66 0 3-1.34 3-3s-1.34-3-3-3z" fill="url(#A)"/><path d="m19.9909 18.002h-8c-1.66 0-2.99999 1.34-2.99999 3s1.33999 3 2.99999 3h1.5c1.04 0 1.96-.53 2.5-1.34.54.81 1.46 1.34 2.5 1.34h1.5c1.66 0 3-1.34 3-3s-1.34-3-3-3z" fill="url(#B)"/></g><g filter="url(#b)"><circle cx="20.467" cy="20.383" fill="#d6c8d9" r=".726"/></g><g filter="url(#c)"><path d="m19.7409 17.0957c-.41 0-.75-.34-.75-.75v-1.5c0-.41.34-.75.75-.75s.75.34.75.75v1.5c0 .42-.34.75-.75.75z" fill="#f86121"/></g><g filter="url(#d)"><path d="m11.7409 17.0957c-.41 0-.75-.34-.75-.75v-1.5c0-.41.34-.75.75-.75s.75.34.75.75v1.5c0 .42-.34.75-.75.75z" fill="#f86121"/></g><path d="m19.9909 16.892c-.41 0-.75-.34-.75-.75v-1.5c0-.41.34-.75.75-.75s.75.34.75.75v1.5c0 .42-.34.75-.75.75z" fill="url(#D)"/><path d="m19.9909 16.892c-.41 0-.75-.34-.75-.75v-1.5c0-.41.34-.75.75-.75s.75.34.75.75v1.5c0 .42-.34.75-.75.75z" fill="url(#F)"/><path d="m13.8709 19.812 1.38 1.38c.41.41 1.08.41 1.5 0l1.38-1.38c.67-.67.19-1.81-.75-1.81h-2.75c-.96 0-1.43 1.14-.76 1.81z" fill="url(#G)"/><path d="m13.8709 19.812 1.38 1.38c.41.41 1.08.41 1.5 0l1.38-1.38c.67-.67.19-1.81-.75-1.81h-2.75c-.96 0-1.43 1.14-.76 1.81z" fill="url(#H)"/><path d="m13.8709 19.812 1.38 1.38c.41.41 1.08.41 1.5 0l1.38-1.38c.67-.67.19-1.81-.75-1.81h-2.75c-.96 0-1.43 1.14-.76 1.81z" fill="url(#I)"/><path d="m13.8709 19.812 1.38 1.38c.41.41 1.08.41 1.5 0l1.38-1.38c.67-.67.19-1.81-.75-1.81h-2.75c-.96 0-1.43 1.14-.76 1.81z" fill="url(#J)"/><path d="m29.6209 24.132c.24-.56.37-1.17.37-1.82v-3.85c0-.85-.12-1.69-.34-2.5l-4.36 2.92c-.56.37-.3 1.25.38 1.25h3.75l-4.13 2.75c-.56.37-.3 1.25.38 1.25z" fill="url(#K)"/><path d="m6.69091 22.892-4.13-2.75h3.75c.67 0 .94-.87.38-1.25l-4.35-2.93c-.23.8-.35 1.65-.35 2.5v3.85c0 .65.13 1.26.37 1.82h3.95c.67 0 .94-.87.38-1.24z" fill="url(#L)"/><path d="m13.1409 7.50195h5.7c.38 0 .54.47.25.71l-2.7 2.16005c-.23.19-.56.19-.8 0l-2.7-2.16005c-.29-.24-.13-.71.25-.71z" fill="url(#M)"/><path d="m17.8809 4.2757c-.61-.12-1.24-.18-1.89-.18s-1.28.06-1.89.18l1.17 1.52118c.39.40999 1.04.40999 1.42 0z" fill="url(#N)"/><path d="m11.5309 19.5721-3.45999-2c-.24-.14-.54-.06-.68.18s-.06.54.18.68l3.45999 2c.24.14.54.06.68-.18s.06-.54-.18-.68z" fill="url(#P)"/><path d="m11.5309 19.5721-3.45999-2c-.24-.14-.54-.06-.68.18s-.06.54.18.68l3.45999 2c.24.14.54.06.68-.18s.06-.54-.18-.68z" fill="url(#R)"/><path d="m11.5309 19.5721-3.45999-2c-.24-.14-.54-.06-.68.18s-.06.54.18.68l3.45999 2c.24.14.54.06.68-.18s.06-.54-.18-.68z" fill="url(#T)"/><path d="m7.56092 23.5721 3.45998-2c.24-.14.54-.06.68.18s.06.54-.18.68l-3.45998 2c-.24.14-.54.06-.68-.18s-.05-.54.18-.68z" fill="url(#U)"/><path d="m7.56092 23.5721 3.45998-2c.24-.14.54-.06.68.18s.06.54-.18.68l-3.45998 2c-.24.14-.54.06-.68-.18s-.05-.54.18-.68z" fill="url(#V)"/><path d="m20.4509 19.5721 3.46-2c.24-.14.54-.06.68.18s.06.54-.18.68l-3.46 2c-.24.14-.54.06-.68-.18s-.06-.54.18-.68z" fill="url(#W)"/><path d="m20.4509 19.5721 3.46-2c.24-.14.54-.06.68.18s.06.54-.18.68l-3.46 2c-.24.14-.54.06-.68-.18s-.06-.54.18-.68z" fill="url(#Y)"/><path d="m20.4509 19.5721 3.46-2c.24-.14.54-.06.68.18s.06.54-.18.68l-3.46 2c-.24.14-.54.06-.68-.18s-.06-.54.18-.68z" fill="url(#Z)"/><path d="m24.4209 23.5721-3.46-2c-.24-.14-.54-.06-.68.18s-.06.54.18.68l3.46 2c.24.14.54.06.68-.18s.05-.54-.18-.68z" fill="url(#aa)"/><path d="m24.4209 23.5721-3.46-2c-.24-.14-.54-.06-.68.18s-.06.54.18.68l3.46 2c.24.14.54.06.68-.18s.05-.54-.18-.68z" fill="url(#ab)"/><path d="m24.4209 23.5721-3.46-2c-.24-.14-.54-.06-.68.18s-.06.54.18.68l3.46 2c.24.14.54.06.68-.18s.05-.54-.18-.68z" fill="url(#ac)"/><path d="m24.4209 23.5721-3.46-2c-.24-.14-.54-.06-.68.18s-.06.54.18.68l3.46 2c.24.14.54.06.68-.18s.05-.54-.18-.68z" fill="url(#ad)"/><path d="m11.9909 16.892c-.41 0-.75-.34-.75-.75v-1.5c0-.41.34-.75.75-.75s.75.34.75.75v1.5c0 .42-.34.75-.75.75z" fill="url(#ae)"/><path d="m11.9909 16.892c-.41 0-.75-.34-.75-.75v-1.5c0-.41.34-.75.75-.75s.75.34.75.75v1.5c0 .42-.34.75-.75.75z" fill="url(#af)"/><path d="m11.9909 16.892c-.41 0-.75-.34-.75-.75v-1.5c0-.41.34-.75.75-.75s.75.34.75.75v1.5c0 .42-.34.75-.75.75z" fill="url(#ag)"/><g filter="url(#e)"><path d="m20.8972 20.0062 3.3125-1.9375" stroke="url(#ai)" stroke-linecap="round" stroke-width=".2"/></g><g filter="url(#f)"><path d="m20.7565 21.7875 3.4375 2.0156" stroke="url(#aj)" stroke-linecap="round" stroke-width=".2"/></g><g filter="url(#g)"><circle cx="11.296" cy="22.03" fill="#ccc1d6" r=".188"/></g></svg>