<svg fill="none" height="35" viewBox="0 0 34 35" width="34" xmlns="http://www.w3.org/2000/svg" xmlns:xlink="http://www.w3.org/1999/xlink"><filter id="a" color-interpolation-filters="sRGB" filterUnits="userSpaceOnUse" height="25.398" width="27.248" x="4" y="5.001"><feFlood flood-opacity="0" result="BackgroundImageFix"/><feBlend in="SourceGraphic" in2="BackgroundImageFix" mode="normal" result="shape"/><feColorMatrix in="SourceAlpha" result="hardAlpha" type="matrix" values="0 0 0 0 0 0 0 0 0 0 0 0 0 0 0 0 0 0 127 0"/><feOffset dx="1.25" dy=".4"/><feGaussianBlur stdDeviation="1"/><feComposite in2="hardAlpha" k2="-1" k3="1" operator="arithmetic"/><feColorMatrix type="matrix" values="0 0 0 0 0 0 0 0 0 0 0 0 0 0 0 0 0 0 0.12 0"/><feBlend in2="shape" mode="normal" result="effect1_innerShadow_28327_2988"/></filter><filter id="b" color-interpolation-filters="sRGB" filterUnits="userSpaceOnUse" height="11.516" width="14.611" x="9.005" y="17.023"><feFlood flood-opacity="0" result="BackgroundImageFix"/><feBlend in="SourceGraphic" in2="BackgroundImageFix" mode="normal" result="shape"/><feGaussianBlur result="effect1_foregroundBlur_28327_2988" stdDeviation="1"/></filter><filter id="c" color-interpolation-filters="sRGB" filterUnits="userSpaceOnUse" height="3.169" width="3.169" x="13.786" y="19.836"><feFlood flood-opacity="0" result="BackgroundImageFix"/><feBlend in="SourceGraphic" in2="BackgroundImageFix" mode="normal" result="shape"/><feGaussianBlur result="effect1_foregroundBlur_28327_2988" stdDeviation=".25"/></filter><filter id="d" color-interpolation-filters="sRGB" filterUnits="userSpaceOnUse" height="3.169" width="3.169" x="17.381" y="19.836"><feFlood flood-opacity="0" result="BackgroundImageFix"/><feBlend in="SourceGraphic" in2="BackgroundImageFix" mode="normal" result="shape"/><feGaussianBlur result="effect1_foregroundBlur_28327_2988" stdDeviation=".25"/></filter><filter id="e" color-interpolation-filters="sRGB" filterUnits="userSpaceOnUse" height="12.202" width="9.409" x="21.466" y="4.953"><feFlood flood-opacity="0" result="BackgroundImageFix"/><feBlend in="SourceGraphic" in2="BackgroundImageFix" mode="normal" result="shape"/><feGaussianBlur result="effect1_foregroundBlur_28327_2988" stdDeviation=".75"/></filter><filter id="f" color-interpolation-filters="sRGB" filterUnits="userSpaceOnUse" height="7.266" width="6.578" x="3.938" y="10.251"><feFlood flood-opacity="0" result="BackgroundImageFix"/><feBlend in="SourceGraphic" in2="BackgroundImageFix" mode="normal" result="shape"/><feGaussianBlur result="effect1_foregroundBlur_28327_2988" stdDeviation=".5"/></filter><filter id="g" color-interpolation-filters="sRGB" filterUnits="userSpaceOnUse" height="3.5" width="2.5" x="19.672" y="14.767"><feFlood flood-opacity="0" result="BackgroundImageFix"/><feBlend in="SourceGraphic" in2="BackgroundImageFix" mode="normal" result="shape"/><feGaussianBlur result="effect1_foregroundBlur_28327_2988" stdDeviation=".25"/></filter><filter id="h" color-interpolation-filters="sRGB" filterUnits="userSpaceOnUse" height="3.5" width="2.5" x="11.172" y="14.767"><feFlood flood-opacity="0" result="BackgroundImageFix"/><feBlend in="SourceGraphic" in2="BackgroundImageFix" mode="normal" result="shape"/><feGaussianBlur result="effect1_foregroundBlur_28327_2988" stdDeviation=".25"/></filter><filter id="i" color-interpolation-filters="sRGB" filterUnits="userSpaceOnUse" height="7.188" width="6.813" x="24.313" y="8.976"><feFlood flood-opacity="0" result="BackgroundImageFix"/><feBlend in="SourceGraphic" in2="BackgroundImageFix" mode="normal" result="shape"/><feGaussianBlur result="effect1_foregroundBlur_28327_2988" stdDeviation=".5"/></filter><filter id="j" color-interpolation-filters="sRGB" filterUnits="userSpaceOnUse" height="9.779" width="2.3" x="8.075" y="6.035"><feFlood flood-opacity="0" result="BackgroundImageFix"/><feBlend in="SourceGraphic" in2="BackgroundImageFix" mode="normal" result="shape"/><feGaussianBlur result="effect1_foregroundBlur_28327_2988" stdDeviation=".5"/></filter><filter id="k" color-interpolation-filters="sRGB" filterUnits="userSpaceOnUse" height="3.781" width="3.413" x="18.181" y="18.648"><feFlood flood-opacity="0" result="BackgroundImageFix"/><feBlend in="SourceGraphic" in2="BackgroundImageFix" mode="normal" result="shape"/><feGaussianBlur result="effect1_foregroundBlur_28327_2988" stdDeviation=".15"/></filter><filter id="l" color-interpolation-filters="sRGB" filterUnits="userSpaceOnUse" height="2.021" width="2.288" x="17.068" y="21.362"><feFlood flood-opacity="0" result="BackgroundImageFix"/><feBlend in="SourceGraphic" in2="BackgroundImageFix" mode="normal" result="shape"/><feGaussianBlur result="effect1_foregroundBlur_28327_2988" stdDeviation=".15"/></filter><filter id="m" color-interpolation-filters="sRGB" filterUnits="userSpaceOnUse" height="2.021" width="2.288" x="13.374" y="21.362"><feFlood flood-opacity="0" result="BackgroundImageFix"/><feBlend in="SourceGraphic" in2="BackgroundImageFix" mode="normal" result="shape"/><feGaussianBlur result="effect1_foregroundBlur_28327_2988" stdDeviation=".15"/></filter><radialGradient id="n" cx="0" cy="0" gradientTransform="matrix(-6.00116064 23.43749884 -30.1247655 -7.71343214 23 7.53855)" gradientUnits="userSpaceOnUse" r="1"><stop offset=".164" stop-color="#ffc0ca"/><stop offset=".543" stop-color="#ff8ca8"/><stop offset=".891" stop-color="#fa5292"/></radialGradient><radialGradient id="o" cx="0" cy="0" gradientTransform="matrix(0 16.375 -17.3923 0 16.9989 14.2886)" gradientUnits="userSpaceOnUse" r="1"><stop offset=".884" stop-color="#ff6cd7" stop-opacity="0"/><stop offset="1" stop-color="#ff6cd7"/></radialGradient><radialGradient id="p" cx="0" cy="0" gradientTransform="matrix(-3.35939146 -3.04685812 1.83425254 -2.02240212 24.9531 9.21043)" gradientUnits="userSpaceOnUse" r="1"><stop offset="0" stop-color="#e2697d"/><stop offset=".286" stop-color="#f78296"/><stop offset="1" stop-color="#f78296" stop-opacity="0"/></radialGradient><radialGradient id="q" cx="0" cy="0" gradientTransform="matrix(5.68750355 3.87499727 -6.70293841 9.83819688 1.1875 14.4136)" gradientUnits="userSpaceOnUse" r="1"><stop offset="0" stop-color="#c86c80"/><stop offset="1" stop-color="#c86c80" stop-opacity="0"/></radialGradient><radialGradient id="r" cx="0" cy="0" gradientTransform="matrix(0 -2.89497 6.79187 0 16.9989 19.1432)" gradientUnits="userSpaceOnUse" r="1"><stop offset="0" stop-color="#ff857d"/><stop offset="1" stop-color="#ff857d" stop-opacity="0"/></radialGradient><linearGradient id="s"><stop offset="0" stop-color="#ffb5c8"/><stop offset="1" stop-color="#ffb5c8" stop-opacity="0"/></linearGradient><radialGradient id="t" cx="0" cy="0" gradientTransform="matrix(-4.68749756 .25000951 -.59651386 -11.18420365 27.6875 19.226)" gradientUnits="userSpaceOnUse" r="1" xlink:href="#s"/><radialGradient id="u" cx="0" cy="0" gradientTransform="matrix(-3.62279822 5.24997655 -4.84265383 -3.34172115 29.9978 12.6636)" gradientUnits="userSpaceOnUse" r="1" xlink:href="#s"/><linearGradient id="v" gradientUnits="userSpaceOnUse" x1="16.31" x2="13.167" y1="23.232" y2="27.021"><stop offset="0" stop-color="#eb3f85"/><stop offset="1" stop-color="#fc4992" stop-opacity="0"/></linearGradient><radialGradient id="w" cx="0" cy="0" gradientTransform="matrix(-1.59170371 4.38411846 -3.88416886 -1.41019136 20.0244 19.6492)" gradientUnits="userSpaceOnUse" r="1"><stop offset="0" stop-color="#ffd0ef"/><stop offset="1" stop-color="#ffcef0" stop-opacity="0"/></radialGradient><linearGradient id="x" gradientUnits="userSpaceOnUse" x1="15.362" x2="20.025" y1="26.103" y2="19.076"><stop offset="0" stop-color="#ff9de5"/><stop offset="1" stop-color="#ffafe5"/></linearGradient><linearGradient id="y" gradientUnits="userSpaceOnUse" x1="16.999" x2="16.999" y1="25.811" y2="22.257"><stop offset="0" stop-color="#ff8df3"/><stop offset="1" stop-color="#ff8df3" stop-opacity="0"/></linearGradient><linearGradient id="z" gradientUnits="userSpaceOnUse" x1="16.999" x2="16.999" y1="17.219" y2="19.566"><stop offset="0" stop-color="#ffabc8"/><stop offset="1" stop-color="#ffabc8" stop-opacity="0"/></linearGradient><radialGradient id="A" cx="0" cy="0" gradientTransform="matrix(-2.71059345 2.50292842 -3.45628863 -3.74305284 21.6161 19.4146)" gradientUnits="userSpaceOnUse" r="1"><stop offset="0" stop-color="#ffc7ea"/><stop offset="1" stop-color="#ffc7ea" stop-opacity="0"/></radialGradient><linearGradient id="B" gradientUnits="userSpaceOnUse" x1="26.171" x2="24.583" y1="9.349" y2="14.704"><stop offset="0" stop-color="#f78296"/><stop offset="1" stop-color="#e3519c"/></linearGradient><linearGradient id="C"><stop offset="0" stop-color="#ffc5de"/><stop offset="1" stop-color="#ffb5ea"/></linearGradient><linearGradient id="D" gradientUnits="userSpaceOnUse" x1="26.823" x2="25.063" xlink:href="#C" y1="8.664" y2="14.601"/><linearGradient id="E"><stop offset="0" stop-color="#ffa0d5"/><stop offset="1" stop-color="#ffaddb" stop-opacity="0"/></linearGradient><linearGradient id="F" gradientUnits="userSpaceOnUse" x1="28.094" x2="26.823" xlink:href="#E" y1="13.914" y2="12.71"/><linearGradient id="G" gradientUnits="userSpaceOnUse" x1="23.27" x2="25.25" xlink:href="#E" y1="12.289" y2="12.289"/><linearGradient id="H" gradientUnits="userSpaceOnUse" x1="21.313" x2="28.125" xlink:href="#E" y1="15.656" y2="12.289"/><linearGradient id="I"><stop offset="0" stop-color="#ec9099"/><stop offset="1" stop-color="#ec9099" stop-opacity="0"/></linearGradient><radialGradient id="J" cx="0" cy="0" gradientTransform="matrix(3.62500434 4.68750162 -3.9241832 3.03470426 22.5 3.72605)" gradientUnits="userSpaceOnUse" r="1" xlink:href="#I"/><radialGradient id="K" cx="0" cy="0" gradientTransform="matrix(-14.3124464 -8.42966584 6.35234373 -10.78543099 36 15.6557)" gradientUnits="userSpaceOnUse" r="1"><stop offset=".863" stop-color="#ec9099" stop-opacity="0"/><stop offset="1" stop-color="#ec9099"/></radialGradient><linearGradient id="L" gradientUnits="userSpaceOnUse" x1="29.625" x2="26.156" y1="4.226" y2="7.945"><stop offset=".282" stop-color="#ec9099"/><stop offset="1" stop-color="#ec9099" stop-opacity="0"/></linearGradient><linearGradient id="M" gradientUnits="userSpaceOnUse" x1="6.031" x2="9.612" y1="13.601" y2="16.23"><stop offset="0" stop-color="#bc4f87"/><stop offset="1" stop-color="#e3519c"/></linearGradient><linearGradient id="N" gradientUnits="userSpaceOnUse" x1="6.5" x2="4.456" xlink:href="#C" y1="8.462" y2="14.763"/><linearGradient id="O" gradientUnits="userSpaceOnUse" x1="7.627" x2="4.819" xlink:href="#E" y1="16.429" y2="12.038"/><linearGradient id="P" gradientUnits="userSpaceOnUse" x1="4.491" x2="7.688" y1="15.404" y2="12.63"><stop offset="0" stop-color="#e88bc9"/><stop offset="1" stop-color="#e88bc9" stop-opacity="0"/></linearGradient><linearGradient id="Q" gradientUnits="userSpaceOnUse" x1="3.767" x2="10.391" xlink:href="#I" y1="6.357" y2="12.502"/><radialGradient id="R" cx="0" cy="0" gradientTransform="matrix(-.18750087 5.12613199 -3.26207855 -.11931854 7.6875 5.37498)" gradientUnits="userSpaceOnUse" r="1"><stop offset="0" stop-color="#ffa4b7"/><stop offset="1" stop-color="#ffa4b7" stop-opacity="0"/></radialGradient><linearGradient id="S" gradientUnits="userSpaceOnUse" x1="2.188" x2="6.125" y1="6.25" y2="10.188"><stop offset=".238" stop-color="#bd747c"/><stop offset="1" stop-color="#cc8c93" stop-opacity="0"/></linearGradient><radialGradient id="T" cx="0" cy="0" gradientTransform="matrix(-8.7150577 -1.67604723 1.71062668 -8.8948628 10.9142 12.1772)" gradientUnits="userSpaceOnUse" r="1"><stop offset=".776" stop-color="#cc8c93" stop-opacity="0"/><stop offset="1" stop-color="#cc8c93"/></radialGradient><linearGradient id="U"><stop offset="0" stop-color="#d6085d"/><stop offset="1" stop-color="#ab087f"/></linearGradient><linearGradient id="V" gradientUnits="userSpaceOnUse" x1="18.827" x2="18.827" xlink:href="#U" y1="21.131" y2="22.49"/><linearGradient id="W" gradientUnits="userSpaceOnUse" x1="15.171" x2="15.171" xlink:href="#U" y1="21.131" y2="22.49"/><linearGradient id="X"><stop offset="0" stop-color="#574d50"/><stop offset=".855" stop-color="#31232c"/></linearGradient><linearGradient id="Y" gradientUnits="userSpaceOnUse" x1="21.758" x2="20.839" xlink:href="#X" y1="16.251" y2="16.251"/><linearGradient id="Z"><stop offset="0" stop-color="#552d52"/><stop offset="1" stop-color="#552d52" stop-opacity="0"/></linearGradient><linearGradient id="aa" gradientUnits="userSpaceOnUse" x1="22.234" x2="22.234" xlink:href="#Z" y1="17.782" y2="16.875"/><linearGradient id="ab"><stop offset="0" stop-color="#574d50"/><stop offset="1" stop-color="#574d50" stop-opacity="0"/></linearGradient><linearGradient id="ac" gradientUnits="userSpaceOnUse" x1="20.186" x2="20.863" xlink:href="#ab" y1="16.404" y2="16.404"/><linearGradient id="ad" gradientUnits="userSpaceOnUse" x1="13.258" x2="12.339" xlink:href="#X" y1="16.251" y2="16.251"/><linearGradient id="ae" gradientUnits="userSpaceOnUse" x1="13.734" x2="13.734" xlink:href="#Z" y1="17.782" y2="16.875"/><linearGradient id="af" gradientUnits="userSpaceOnUse" x1="11.685" x2="12.363" xlink:href="#ab" y1="16.404" y2="16.404"/><linearGradient id="ag" gradientUnits="userSpaceOnUse" x1="29.406" x2="25.594" y1="11.382" y2="15.164"><stop offset="0" stop-color="#ffd8ee"/><stop offset="1" stop-color="#ffd8ee" stop-opacity="0"/></linearGradient><linearGradient id="ah" gradientUnits="userSpaceOnUse" x1="8.093" x2="8.093" y1="10.17" y2="22.052"><stop offset="0" stop-color="#ffe6f4"/><stop offset="1" stop-color="#ffe5f4" stop-opacity="0"/></linearGradient><linearGradient id="ai"><stop offset="0" stop-color="#ffd6f0" stop-opacity="0"/><stop offset=".448" stop-color="#ffe1f4"/><stop offset="1" stop-color="#ffd6f0" stop-opacity="0"/></linearGradient><linearGradient id="aj" gradientUnits="userSpaceOnUse" x1="17.865" x2="23.308" xlink:href="#ai" y1="18.163" y2="22.054"/><linearGradient id="ak" gradientUnits="userSpaceOnUse" x1="17.044" x2="19.455" xlink:href="#ai" y1="21.376" y2="23.751"/><linearGradient id="al" gradientUnits="userSpaceOnUse" x1="13.35" x2="15.761" y1="21.376" y2="23.751"><stop offset="0" stop-color="#ffd6f0" stop-opacity="0"/><stop offset=".078" stop-color="#ffd8f1" stop-opacity=".174"/><stop offset=".448" stop-color="#ffe1f4"/><stop offset="1" stop-color="#ffd6f0" stop-opacity="0"/></linearGradient><g filter="url(#a)"><path d="m16.9989 29.9989c8.6676 0 12.9989-5.596 12.9989-12.4989s-4.3313-12.49889-12.9989-12.49889c-8.66767 0-12.9989 5.59599-12.9989 12.49889s4.33123 12.4989 12.9989 12.4989z" fill="url(#n)"/><path d="m16.9989 29.9989c8.6676 0 12.9989-5.596 12.9989-12.4989s-4.3313-12.49889-12.9989-12.49889c-8.66767 0-12.9989 5.59599-12.9989 12.49889s4.33123 12.4989 12.9989 12.4989z" fill="url(#o)"/><path d="m16.9989 29.9989c8.6676 0 12.9989-5.596 12.9989-12.4989s-4.3313-12.49889-12.9989-12.49889c-8.66767 0-12.9989 5.59599-12.9989 12.49889s4.33123 12.4989 12.9989 12.4989z" fill="url(#p)"/><path d="m16.9989 29.9989c8.6676 0 12.9989-5.596 12.9989-12.4989s-4.3313-12.49889-12.9989-12.49889c-8.66767 0-12.9989 5.59599-12.9989 12.49889s4.33123 12.4989 12.9989 12.4989z" fill="url(#q)"/><path d="m16.9989 29.9989c8.6676 0 12.9989-5.596 12.9989-12.4989s-4.3313-12.49889-12.9989-12.49889c-8.66767 0-12.9989 5.59599-12.9989 12.49889s4.33123 12.4989 12.9989 12.4989z" fill="url(#r)"/><path d="m16.9989 29.9989c8.6676 0 12.9989-5.596 12.9989-12.4989s-4.3313-12.49889-12.9989-12.49889c-8.66767 0-12.9989 5.59599-12.9989 12.49889s4.33123 12.4989 12.9989 12.4989z" fill="url(#t)" fill-opacity=".3"/><path d="m16.9989 29.9989c8.6676 0 12.9989-5.596 12.9989-12.4989s-4.3313-12.49889-12.9989-12.49889c-8.66767 0-12.9989 5.59599-12.9989 12.49889s4.33123 12.4989 12.9989 12.4989z" fill="url(#u)"/></g><g filter="url(#b)"><rect fill="url(#v)" height="7.516" rx="3.758" width="10.611" x="11.005" y="19.023"/><rect height="7.016" rx="3.508" stroke="url(#w)" stroke-width=".5" width="10.111" x="11.255" y="19.273"/></g><rect fill="url(#x)" height="6.625" rx="3.313" width="9.234" x="12.382" y="18.351"/><rect fill="url(#y)" height="6.625" rx="3.313" width="9.234" x="12.382" y="18.351"/><rect fill="url(#z)" height="6.625" rx="3.313" width="9.234" x="12.382" y="18.351"/><rect fill="url(#A)" fill-opacity=".5" height="6.625" rx="3.313" width="9.234" x="12.382" y="18.351"/><g filter="url(#c)"><circle cx="15.37" cy="21.421" fill="#ff93d0" r="1.084"/></g><g filter="url(#d)"><circle cx="18.966" cy="21.421" fill="#ff93d0" r="1.084"/></g><g filter="url(#e)"><path d="m26.0602 6.98351 2.7872 2.78713c.7035.70356.7035 1.85806 0 2.56166l-2.7872 2.7871c-1.1455 1.1455-3.0938.3337-3.0938-1.2808v-5.56525c0-1.61455 1.9573-2.42633 3.0938-1.28984z" fill="url(#B)"/></g><path d="m26.7 6.04112 3.09 3.09c.78.78.78 2.05998 0 2.83998l-3.09 3.09c-1.27 1.27-3.43.37-3.43-1.42v-6.16998c0-1.79 2.17-2.69 3.43-1.43z" fill="url(#D)"/><path d="m26.7 6.04112 3.09 3.09c.78.78.78 2.05998 0 2.83998l-3.09 3.09c-1.27 1.27-3.43.37-3.43-1.42v-6.16998c0-1.79 2.17-2.69 3.43-1.43z" fill="url(#F)"/><path d="m26.7 6.04112 3.09 3.09c.78.78.78 2.05998 0 2.83998l-3.09 3.09c-1.27 1.27-3.43.37-3.43-1.42v-6.16998c0-1.79 2.17-2.69 3.43-1.43z" fill="url(#G)"/><path d="m26.7 6.04112 3.09 3.09c.78.78.78 2.05998 0 2.83998l-3.09 3.09c-1.27 1.27-3.43.37-3.43-1.42v-6.16998c0-1.79 2.17-2.69 3.43-1.43z" fill="url(#H)"/><path d="m26.7 6.04112 3.09 3.09c.78.78.78 2.05998 0 2.83998l-3.09 3.09c-1.27 1.27-3.43.37-3.43-1.42v-6.16998c0-1.79 2.17-2.69 3.43-1.43z" fill="url(#J)"/><path d="m26.7 6.04112 3.09 3.09c.78.78.78 2.05998 0 2.83998l-3.09 3.09c-1.27 1.27-3.43.37-3.43-1.42v-6.16998c0-1.79 2.17-2.69 3.43-1.43z" fill="url(#K)"/><path d="m26.7 6.04112 3.09 3.09c.78.78.78 2.05998 0 2.83998l-3.09 3.09c-1.27 1.27-3.43.37-3.43-1.42v-6.16998c0-1.79 2.17-2.69 3.43-1.43z" fill="url(#L)"/><g filter="url(#f)"><path d="m4.9375 13.8292c.2875-1.725 1.54167-2.427 2.15625-2.5781l2.42187 4.4219-2.14062.8437z" fill="url(#M)"/></g><path d="m6.62069 5.63413-3.04434 3.33912c-.76847.84017-.76847 2.21895 0 3.05905l3.04434 3.3284c1.25123 1.3679 3.37931.3985 3.37931-1.5296v-6.65666c0-1.92807-2.12808-2.8975-3.37931-1.54031z" fill="url(#N)"/><path d="m6.62069 5.63413-3.04434 3.33912c-.76847.84017-.76847 2.21895 0 3.05905l3.04434 3.3284c1.25123 1.3679 3.37931.3985 3.37931-1.5296v-6.65666c0-1.92807-2.12808-2.8975-3.37931-1.54031z" fill="url(#O)"/><path d="m6.62069 5.63413-3.04434 3.33912c-.76847.84017-.76847 2.21895 0 3.05905l3.04434 3.3284c1.25123 1.3679 3.37931.3985 3.37931-1.5296v-6.65666c0-1.92807-2.12808-2.8975-3.37931-1.54031z" fill="url(#P)"/><path d="m6.62069 5.63413-3.04434 3.33912c-.76847.84017-.76847 2.21895 0 3.05905l3.04434 3.3284c1.25123 1.3679 3.37931.3985 3.37931-1.5296v-6.65666c0-1.92807-2.12808-2.8975-3.37931-1.54031z" fill="url(#Q)"/><path d="m6.62069 5.63413-3.04434 3.33912c-.76847.84017-.76847 2.21895 0 3.05905l3.04434 3.3284c1.25123 1.3679 3.37931.3985 3.37931-1.5296v-6.65666c0-1.92807-2.12808-2.8975-3.37931-1.54031z" fill="url(#R)"/><path d="m6.62069 5.63413-3.04434 3.33912c-.76847.84017-.76847 2.21895 0 3.05905l3.04434 3.3284c1.25123 1.3679 3.37931.3985 3.37931-1.5296v-6.65666c0-1.92807-2.12808-2.8975-3.37931-1.54031z" fill="url(#S)"/><path d="m6.62069 5.63413-3.04434 3.33912c-.76847.84017-.76847 2.21895 0 3.05905l3.04434 3.3284c1.25123 1.3679 3.37931.3985 3.37931-1.5296v-6.65666c0-1.92807-2.12808-2.8975-3.37931-1.54031z" fill="url(#T)"/><path d="m18.827 22.6557c.5523 0 1-.4477 1-1 0-.5522-.4477-1-1-1s-1 .4478-1 1c0 .5523.4477 1 1 1z" fill="url(#V)"/><path d="m15.1708 22.6557c.5523 0 1-.4477 1-1 0-.5522-.4477-1-1-1s-1 .4478-1 1c0 .5523.4477 1 1 1z" fill="url(#W)"/><g filter="url(#g)"><rect fill="#ff648b" height="2.5" rx=".75" width="1.5" x="20.172" y="15.267"/></g><g filter="url(#h)"><rect fill="#ff648b" height="2.5" rx=".75" width="1.5" x="11.672" y="15.267"/></g><rect fill="url(#Y)" height="2.5" rx=".75" width="1.5" x="20.5" y="15.001"/><rect fill="url(#aa)" height="2.5" rx=".75" width="1.5" x="20.5" y="15.001"/><rect fill="url(#ac)" height="2.5" rx=".75" width="1.5" x="20.5" y="15.001"/><rect fill="url(#ad)" height="2.5" rx=".75" width="1.5" x="12" y="15.001"/><rect fill="url(#ae)" height="2.5" rx=".75" width="1.5" x="12" y="15.001"/><rect fill="url(#af)" height="2.5" rx=".75" width="1.5" x="12" y="15.001"/><g filter="url(#i)"><path d="m29.625 10.4761-3.8125 4.1875" stroke="url(#ag)" stroke-linecap="round"/></g><g filter="url(#j)"><path d="m9.22546 7.18489.00002 7.47871" stroke="url(#ah)" stroke-linecap="round" stroke-width=".3"/></g><g filter="url(#k)"><path d="m18.5558 19.0229c1.2187 0 2.663.7969 2.663 3.0313" stroke="url(#aj)" stroke-linecap="round" stroke-width=".15"/></g><g filter="url(#l)"><path d="m17.4429 21.7366c.0453.4523.4162 1.3389 1.538 1.2665" stroke="url(#ak)" stroke-linecap="round" stroke-width=".15"/></g><g filter="url(#m)"><path d="m13.7488 21.7366c.0453.4523.4162 1.3389 1.538 1.2665" stroke="url(#al)" stroke-linecap="round" stroke-opacity=".75" stroke-width=".15"/></g></svg>