<svg fill="none" height="32" viewBox="0 0 32 32" width="32" xmlns="http://www.w3.org/2000/svg" xmlns:xlink="http://www.w3.org/1999/xlink"><filter id="a" color-interpolation-filters="sRGB" filterUnits="userSpaceOnUse" height="5.82" width="5.772" x="8.827" y="5.203"><feFlood flood-opacity="0" result="BackgroundImageFix"/><feBlend in="SourceGraphic" in2="BackgroundImageFix" mode="normal" result="shape"/><feGaussianBlur result="effect1_foregroundBlur_28327_2421" stdDeviation=".25"/></filter><filter id="b" color-interpolation-filters="sRGB" filterUnits="userSpaceOnUse" height="15.475" width="2.599" x="25.772" y="14.266"><feFlood flood-opacity="0" result="BackgroundImageFix"/><feBlend in="SourceGraphic" in2="BackgroundImageFix" mode="normal" result="shape"/><feGaussianBlur result="effect1_foregroundBlur_28327_2421" stdDeviation=".25"/></filter><filter id="c" color-interpolation-filters="sRGB" filterUnits="userSpaceOnUse" height="19.766" width="4.162" x="21.768" y="10.538"><feFlood flood-opacity="0" result="BackgroundImageFix"/><feBlend in="SourceGraphic" in2="BackgroundImageFix" mode="normal" result="shape"/><feGaussianBlur result="effect1_foregroundBlur_28327_2421" stdDeviation=".25"/></filter><filter id="d" color-interpolation-filters="sRGB" filterUnits="userSpaceOnUse" height="19.23" width="23.379" x="2.036" y="5.085"><feFlood flood-opacity="0" result="BackgroundImageFix"/><feBlend in="SourceGraphic" in2="BackgroundImageFix" mode="normal" result="shape"/><feGaussianBlur result="effect1_foregroundBlur_28327_2421" stdDeviation=".5"/></filter><filter id="e" color-interpolation-filters="sRGB" filterUnits="userSpaceOnUse" height="15.63" width="17.97" x="3.39" y="8.179"><feFlood flood-opacity="0" result="BackgroundImageFix"/><feBlend in="SourceGraphic" in2="BackgroundImageFix" mode="normal" result="shape"/><feGaussianBlur result="effect1_foregroundBlur_28327_2421" stdDeviation="1"/></filter><filter id="f" color-interpolation-filters="sRGB" filterUnits="userSpaceOnUse" height="9.814" width="3.41" x="15.974" y="20.562"><feFlood flood-opacity="0" result="BackgroundImageFix"/><feBlend in="SourceGraphic" in2="BackgroundImageFix" mode="normal" result="shape"/><feGaussianBlur result="effect1_foregroundBlur_28327_2421" stdDeviation=".25"/></filter><filter id="g" color-interpolation-filters="sRGB" filterUnits="userSpaceOnUse" height="4.378" width="3.31" x="10.731" y="11.19"><feFlood flood-opacity="0" result="BackgroundImageFix"/><feBlend in="SourceGraphic" in2="BackgroundImageFix" mode="normal" result="shape"/><feGaussianBlur result="effect1_foregroundBlur_28327_2421" stdDeviation=".375"/></filter><filter id="h" color-interpolation-filters="sRGB" filterUnits="userSpaceOnUse" height="2.406" width="4.604" x="13.641" y="7.514"><feFlood flood-opacity="0" result="BackgroundImageFix"/><feBlend in="SourceGraphic" in2="BackgroundImageFix" mode="normal" result="shape"/><feGaussianBlur result="effect1_foregroundBlur_28327_2421" stdDeviation=".25"/></filter><filter id="i" color-interpolation-filters="sRGB" filterUnits="userSpaceOnUse" height="19.125" width="6.353" x="22.691" y="10.929"><feFlood flood-opacity="0" result="BackgroundImageFix"/><feBlend in="SourceGraphic" in2="BackgroundImageFix" mode="normal" result="shape"/><feGaussianBlur result="effect1_foregroundBlur_28327_2421" stdDeviation="1"/></filter><filter id="j" color-interpolation-filters="sRGB" filterUnits="userSpaceOnUse" height="23.469" width="7.985" x="18.173" y="7.96"><feFlood flood-opacity="0" result="BackgroundImageFix"/><feBlend in="SourceGraphic" in2="BackgroundImageFix" mode="normal" result="shape"/><feGaussianBlur result="effect1_foregroundBlur_28327_2421" stdDeviation="1"/></filter><linearGradient id="k" gradientUnits="userSpaceOnUse" x1="11.985" x2="10.891" y1="11.21" y2="9.46"><stop offset="0" stop-color="#321d24"/><stop offset="1" stop-color="#3c302e"/></linearGradient><linearGradient id="l" gradientUnits="userSpaceOnUse" x1="11.907" x2="12.29" y1="13.944" y2="9.877"><stop offset=".199" stop-color="#65255c"/><stop offset=".563" stop-color="#65255c" stop-opacity="0"/></linearGradient><radialGradient id="m" cx="0" cy="0" gradientTransform="matrix(-1.96875064 -.59376353 .56142956 -1.8615404 14.1413 9.00703)" gradientUnits="userSpaceOnUse" r="1"><stop offset="0" stop-color="#1b0907"/><stop offset="1" stop-color="#1b0907" stop-opacity="0"/></radialGradient><linearGradient id="n" gradientUnits="userSpaceOnUse" x1="7.954" x2="14.1" y1="11.648" y2="6.366"><stop offset="0" stop-color="#6d6c6c"/><stop offset="1" stop-color="#948f8e" stop-opacity="0"/></linearGradient><radialGradient id="o" cx="0" cy="0" gradientTransform="matrix(6.5269794 6.62499705 -6.62499705 6.5269794 11.2081 24.5539)" gradientUnits="userSpaceOnUse" r="1"><stop offset="0" stop-color="#926059"/><stop offset="1" stop-color="#6b3351"/></radialGradient><radialGradient id="p" cx="0" cy="0" gradientTransform="matrix(-7.37499836 -1.06249072 1.51546459 -10.51919673 20.2351 27.4289)" gradientUnits="userSpaceOnUse" r="1"><stop offset=".217" stop-color="#7b2b70"/><stop offset=".852" stop-color="#7b2b70" stop-opacity="0"/></radialGradient><radialGradient id="q" cx="0" cy="0" gradientTransform="matrix(-5.49993101 12.31254161 -11.72764315 -5.23866074 21.1726 19.8664)" gradientUnits="userSpaceOnUse" r="1"><stop offset="0" stop-color="#320811"/><stop offset=".653" stop-color="#320811" stop-opacity="0"/><stop offset=".969" stop-color="#320811" stop-opacity="0"/></radialGradient><radialGradient id="r" cx="0" cy="0" gradientTransform="matrix(-9.95612485 -3.06252352 9.60335519 -31.22007154 20.6912 28.4289)" gradientUnits="userSpaceOnUse" r="1"><stop offset=".739" stop-color="#b17e72" stop-opacity="0"/><stop offset="1" stop-color="#b17e72"/></radialGradient><radialGradient id="s" cx="0" cy="0" gradientTransform="matrix(4.12499975 1.87499513 -2.92593653 6.43707671 11.9226 23.1789)" gradientUnits="userSpaceOnUse" r="1"><stop offset="0" stop-color="#a08986"/><stop offset=".632" stop-color="#a08986" stop-opacity="0"/></radialGradient><linearGradient id="t"><stop offset="0" stop-color="#504340"/><stop offset="1" stop-color="#504449"/></linearGradient><linearGradient id="u" gradientUnits="userSpaceOnUse" x1="30.266" x2="29.26" xlink:href="#t" y1="13.429" y2="29.365"/><radialGradient id="v" cx="0" cy="0" gradientTransform="matrix(0 5.25 -1.34375 0 28.9226 19.3039)" gradientUnits="userSpaceOnUse" r="1"><stop offset="0" stop-color="#776f6e"/><stop offset="1" stop-color="#847b7a" stop-opacity="0"/></radialGradient><linearGradient id="w" gradientUnits="userSpaceOnUse" x1="25.11" x2="29.423" y1="25.554" y2="25.554"><stop offset=".246" stop-color="#3c253d"/><stop offset="1" stop-color="#805887" stop-opacity="0"/></linearGradient><linearGradient id="x" gradientUnits="userSpaceOnUse" x1="29.423" x2="29.423" y1="31.679" y2="25.554"><stop offset=".246" stop-color="#573158"/><stop offset="1" stop-color="#3c253d" stop-opacity="0"/></linearGradient><linearGradient id="y"><stop offset="0" stop-color="#443835"/><stop offset="1" stop-color="#4f413e" stop-opacity="0"/></linearGradient><radialGradient id="z" cx="0" cy="0" gradientTransform="matrix(1.99999832 2.49999863 -2.97517298 2.38013768 27.1726 14.0227)" gradientUnits="userSpaceOnUse" r="1" xlink:href="#y"/><radialGradient id="A" cx="0" cy="0" gradientTransform="matrix(-3.87498669 -3.00001075 3.57022197 -4.61150435 32.6101 28.8039)" gradientUnits="userSpaceOnUse" r="1"><stop offset="0" stop-color="#443835"/><stop offset="1" stop-color="#2f2624" stop-opacity="0"/></radialGradient><radialGradient id="B" cx="0" cy="0" gradientTransform="matrix(0 -10.7568 3.11828 0 25.4918 23.4289)" gradientUnits="userSpaceOnUse" r="1"><stop offset=".192" stop-color="#3b282d"/><stop offset="1" stop-color="#3b282d" stop-opacity="0"/></radialGradient><linearGradient id="C" gradientUnits="userSpaceOnUse" x1="27.959" x2="26.743" xlink:href="#t" y1="9.934" y2="29.254"/><linearGradient id="D"><stop offset=".246" stop-color="#3c253d"/><stop offset="1" stop-color="#623769" stop-opacity="0"/></linearGradient><linearGradient id="E" gradientUnits="userSpaceOnUse" x1="21.36" x2="26.798" xlink:href="#D" y1="25.304" y2="25.304"/><radialGradient id="F" cx="0" cy="0" gradientTransform="matrix(3.10253846 3.40017936 -4.04961389 3.69512356 24.1951 10.6537)" gradientUnits="userSpaceOnUse" r="1" xlink:href="#y"/><linearGradient id="G"><stop offset=".439" stop-color="#3b282d"/><stop offset=".843" stop-color="#3b282d" stop-opacity="0"/></linearGradient><radialGradient id="H" cx="0" cy="0" gradientTransform="matrix(.77601167 -11.15624346 4.37137755 .30406651 27.9591 24.2414)" gradientUnits="userSpaceOnUse" r="1" xlink:href="#G"/><radialGradient id="I" cx="0" cy="0" gradientTransform="matrix(-.11271323 6.16151915 -2.82414751 -.05166239 24.2565 11.2)" gradientUnits="userSpaceOnUse" r="1" xlink:href="#G"/><linearGradient id="J" gradientUnits="userSpaceOnUse" x1="9.454" x2="6.286" y1="17.152" y2="12.71"><stop offset="0" stop-color="#895950"/><stop offset="1" stop-color="#a46e6d"/></linearGradient><linearGradient id="K" gradientUnits="userSpaceOnUse" x1="12.954" x2="12.391" y1="23.808" y2="18.152"><stop offset=".157" stop-color="#89327c"/><stop offset=".48" stop-color="#89327c" stop-opacity="0"/></linearGradient><radialGradient id="L" cx="0" cy="0" gradientTransform="matrix(1.12500359 -7.00000402 12.14228684 1.95144407 16.6413 24.5894)" gradientUnits="userSpaceOnUse" r="1"><stop offset=".157" stop-color="#89327c"/><stop offset="1" stop-color="#a55299" stop-opacity="0"/></radialGradient><radialGradient id="M" cx="0" cy="0" gradientTransform="matrix(21.21870999 9.02709473 -8.07983915 18.99213078 -.483692 10.1519)" gradientUnits="userSpaceOnUse" r="1"><stop offset=".701" stop-color="#724a4d" stop-opacity="0"/><stop offset="1" stop-color="#724a4d"/></radialGradient><linearGradient id="N" gradientUnits="userSpaceOnUse" x1="7.532" x2="9.298" y1="12.925" y2="14.589"><stop offset=".379" stop-color="#b17e72"/><stop offset="1" stop-color="#b17e72" stop-opacity="0"/></linearGradient><radialGradient id="O" cx="0" cy="0" gradientTransform="matrix(17.87504103 11.5625108 -10.34916056 15.9992646 4.42256 10.429)" gradientUnits="userSpaceOnUse" r="1"><stop offset=".661" stop-color="#320811" stop-opacity="0"/><stop offset=".842" stop-color="#341419"/></radialGradient><linearGradient id="P" gradientUnits="userSpaceOnUse" x1="5.079" x2="16.285" y1="21.554" y2="10.265"><stop offset="0" stop-color="#be827e"/><stop offset="1" stop-color="#be827e" stop-opacity="0"/></linearGradient><linearGradient id="Q" gradientUnits="userSpaceOnUse" x1="25.287" x2="24.398" xlink:href="#t" y1="6.118" y2="29.174"/><linearGradient id="R" gradientUnits="userSpaceOnUse" x1="15.923" x2="23.423" xlink:href="#D" y1="24.415" y2="24.415"/><radialGradient id="S" cx="0" cy="0" gradientTransform="matrix(6.02808266 4.04764982 -4.48085952 6.67325307 17.9739 6.97479)" gradientUnits="userSpaceOnUse" r="1" xlink:href="#y"/><linearGradient id="T"><stop offset=".441" stop-color="#3b282d"/><stop offset=".841" stop-color="#3b282d" stop-opacity="0"/></linearGradient><radialGradient id="U" cx="0" cy="0" gradientTransform="matrix(1.50774307 -13.28068774 8.42587401 .95658097 25.2873 23.1499)" gradientUnits="userSpaceOnUse" r="1" xlink:href="#T"/><radialGradient id="V" cx="0" cy="0" gradientTransform="matrix(1.37376303 -8.11778032 4.64226565 .78560551 25.2873 23.1499)" gradientUnits="userSpaceOnUse" r="1" xlink:href="#T"/><radialGradient id="W" cx="0" cy="0" gradientTransform="matrix(13.31248065 -1.81249692 1.58613885 11.64991924 11.5476 15.7414)" gradientUnits="userSpaceOnUse" r="1"><stop offset=".613" stop-color="#3b282d"/><stop offset=".843" stop-color="#3b282d" stop-opacity="0"/></radialGradient><radialGradient id="X" cx="0" cy="0" gradientTransform="matrix(6.18749623 -6.53125567 5.16898999 4.89693065 14.8601 12.5539)" gradientUnits="userSpaceOnUse" r="1"><stop offset=".664" stop-color="#3b282d"/><stop offset=".88" stop-color="#3b282d" stop-opacity="0"/></radialGradient><linearGradient id="Y"><stop offset="0" stop-color="#827876"/><stop offset="1" stop-color="#c2bcbb" stop-opacity="0"/></linearGradient><radialGradient id="Z" cx="0" cy="0" gradientTransform="matrix(1.99578781 3.89220142 -2.4031923 1.23227484 18.3956 10.7867)" gradientUnits="userSpaceOnUse" r="1" xlink:href="#Y"/><radialGradient id="aa" cx="0" cy="0" gradientTransform="matrix(-.2254216 4.24543957 -2.62128747 -.13918343 18.884 12.8906)" gradientUnits="userSpaceOnUse" r="1" xlink:href="#Y"/><radialGradient id="ab" cx="0" cy="0" gradientTransform="matrix(4.21261104 7.47938474 -5.59223664 3.14971333 13.6617 7.48049)" gradientUnits="userSpaceOnUse" r="1"><stop offset=".407" stop-color="#3b282d"/><stop offset=".843" stop-color="#3b282d" stop-opacity="0"/></radialGradient><radialGradient id="ac" cx="0" cy="0" gradientTransform="matrix(2.55477937 2.89290854 -1.85942442 1.64209102 18.3956 9.096)" gradientUnits="userSpaceOnUse" r="1"><stop offset=".629" stop-color="#3b282d"/><stop offset="1" stop-color="#3b282d" stop-opacity="0"/></radialGradient><radialGradient id="ad" cx="0" cy="0" gradientTransform="matrix(-1.84093827 12.17278077 -1.36255609 -.2060648 17.4563 19.0897)" gradientUnits="userSpaceOnUse" r="1"><stop offset="0" stop-color="#9b9799"/><stop offset="1" stop-color="#878284" stop-opacity="0"/></radialGradient><radialGradient id="ae" cx="0" cy="0" gradientTransform="matrix(.59840806 13.0368734 -1.45927352 .0669824 17.0806 18.1504)" gradientUnits="userSpaceOnUse" r="1"><stop offset="0" stop-color="#9b9799"/><stop offset=".989" stop-color="#878284" stop-opacity="0"/></radialGradient><radialGradient id="af" cx="0" cy="0" gradientTransform="matrix(3.12500182 -.59123786 .65612002 3.46793806 12.7976 7.05393)" gradientUnits="userSpaceOnUse" r="1"><stop offset="0" stop-color="#7d4750"/><stop offset=".921" stop-color="#a46e6d"/></radialGradient><radialGradient id="ag" cx="0" cy="0" gradientTransform="matrix(2.23436971 -2.90373586 2.78990504 2.14677905 14.1257 9.36643)" gradientUnits="userSpaceOnUse" r="1"><stop offset=".157" stop-color="#773d4a"/><stop offset="1" stop-color="#985665" stop-opacity="0"/></radialGradient><radialGradient id="ah" cx="0" cy="0" gradientTransform="matrix(-2.8124978 .37501752 -1.22658548 -9.19895404 15.5788 6.77268)" gradientUnits="userSpaceOnUse" r="1"><stop offset=".619" stop-color="#b17e72" stop-opacity="0"/><stop offset="1" stop-color="#b17e72"/></radialGradient><radialGradient id="ai" cx="0" cy="0" gradientTransform="matrix(2.24999835 -1.81250033 9.51157574 11.80746251 14.2038 7.55393)" gradientUnits="userSpaceOnUse" r="1"><stop offset=".511" stop-color="#b17e72" stop-opacity="0"/><stop offset="1" stop-color="#b17e72"/></radialGradient><linearGradient id="aj" gradientUnits="userSpaceOnUse" x1="12.798" x2="12.141" y1="14.726" y2="12.101"><stop offset="0" stop-color="#5e2926"/><stop offset="1" stop-color="#5e2926" stop-opacity="0"/></linearGradient><linearGradient id="ak" gradientUnits="userSpaceOnUse" x1="13.556" x2="12.689" y1="13.379" y2="13.379"><stop offset=".225" stop-color="#594c4f"/><stop offset="1" stop-color="#392833"/></linearGradient><linearGradient id="al" gradientUnits="userSpaceOnUse" x1="13.79" x2="13.79" y1="14.878" y2="13.509"><stop offset="0" stop-color="#552d52"/><stop offset="1" stop-color="#552d52" stop-opacity="0"/></linearGradient><linearGradient id="am" gradientUnits="userSpaceOnUse" x1="11.562" x2="12.595" y1="14.065" y2="14.065"><stop offset="0" stop-color="#594c4f"/><stop offset="1" stop-color="#594c4f" stop-opacity="0"/></linearGradient><radialGradient id="an" cx="0" cy="0" gradientTransform="matrix(-.57809754 -1.587965 1.57801391 -.57447485 13.0986 13.553)" gradientUnits="userSpaceOnUse" r="1"><stop offset=".814" stop-color="#594c4f" stop-opacity="0"/><stop offset="1" stop-color="#594c4f"/></radialGradient><linearGradient id="ao" gradientUnits="userSpaceOnUse" x1="4.774" x2="5.727" y1="20.023" y2="19.937"><stop offset="0" stop-color="#382a32"/><stop offset="1" stop-color="#2a1927"/></linearGradient><linearGradient id="ap" gradientUnits="userSpaceOnUse" x1="9.032" x2="9.032" y1="23.304" y2="21.163"><stop offset="0" stop-color="#562c54"/><stop offset="1" stop-color="#694259"/></linearGradient><linearGradient id="aq" gradientUnits="userSpaceOnUse" x1="17.573" x2="13.813" y1="8.256" y2="9.351"><stop offset="0" stop-color="#ab7670"/><stop offset="1" stop-color="#ab7670" stop-opacity="0"/></linearGradient><linearGradient id="ar" gradientUnits="userSpaceOnUse" x1="27.204" x2="25.867" y1="12.179" y2="27.679"><stop offset="0" stop-color="#928784" stop-opacity="0"/><stop offset=".234" stop-color="#a39592"/><stop offset="1" stop-color="#928784" stop-opacity="0"/></linearGradient><linearGradient id="as" gradientUnits="userSpaceOnUse" x1="23.486" x2="22.423" y1="12.179" y2="33.148"><stop offset="0" stop-color="#c2bcbb"/><stop offset="1" stop-color="#908483" stop-opacity="0"/><stop offset="1" stop-color="#c2bcbb" stop-opacity="0"/></linearGradient><path d="m11.7584 6.75702c1.5549-2.04514 8.6516-2.66312 5.6016.29688-1.81 1.76-2.9466 3.6813-5.2666 4.6813-3.90621 1.4843-5.08885-1.6187-4.62016-2.08755.4687-.4688 1.30907.49475 2.41407.03125.77889-.32675.83269-1.55608 1.87109-2.92188z" fill="url(#k)"/><path d="m11.7584 6.75702c1.5549-2.04514 8.6516-2.66312 5.6016.29688-1.81 1.76-2.9466 3.6813-5.2666 4.6813-3.90621 1.4843-5.08885-1.6187-4.62016-2.08755.4687-.4688 1.30907.49475 2.41407.03125.77889-.32675.83269-1.55608 1.87109-2.92188z" fill="url(#l)"/><path d="m11.7584 6.75702c1.5549-2.04514 8.6516-2.66312 5.6016.29688-1.81 1.76-2.9466 3.6813-5.2666 4.6813-3.90621 1.4843-5.08885-1.6187-4.62016-2.08755.4687-.4688 1.30907.49475 2.41407.03125.77889-.32675.83269-1.55608 1.87109-2.92188z" fill="url(#m)"/><g filter="url(#a)"><path d="m9.32727 10.0499c.09139.2568.30859.4727.86093.4727.6333 0 1.0126-.4954 1.3594-1.44528.3468-.94992 1.1498-2.10618 2.5521-2.36251l-.1229-1.01217c-.9111.30169-1.7261.74737-2.1429 1.29561-.4647.61113-.7322 1.19494-.9557 1.68279-.2761.60243-.4851 1.05854-.91544 1.23908-.22289.09348-.43501.12898-.63549.12978z" fill="url(#n)"/></g><path d="m15.6726 20.7352c-3.3711 3.5574-4.2344 7.6462-4.4197 8.814-.0277.1751.1088.3267.2861.3267h14.9991c2.14 0 3.82-2.0821 3.62-4.2221-.6-6.34-2.8-18.03002-10.91-18.03002-3.49 0-1.2555 10.67142-3.5755 13.11142z" fill="url(#o)"/><path d="m15.6726 20.7352c-3.3711 3.5574-4.2344 7.6462-4.4197 8.814-.0277.1751.1088.3267.2861.3267h14.9991c2.14 0 3.82-2.0821 3.62-4.2221-.6-6.34-2.8-18.03002-10.91-18.03002-3.49 0-1.2555 10.67142-3.5755 13.11142z" fill="url(#p)"/><path d="m15.6726 20.7352c-3.3711 3.5574-4.2344 7.6462-4.4197 8.814-.0277.1751.1088.3267.2861.3267h14.9991c2.14 0 3.82-2.0821 3.62-4.2221-.6-6.34-2.8-18.03002-10.91-18.03002-3.49 0-1.2555 10.67142-3.5755 13.11142z" fill="url(#q)"/><path d="m15.6726 20.7352c-3.3711 3.5574-4.2344 7.6462-4.4197 8.814-.0277.1751.1088.3267.2861.3267h14.9991c2.14 0 3.82-2.0821 3.62-4.2221-.6-6.34-2.8-18.03002-10.91-18.03002-3.49 0-1.2555 10.67142-3.5755 13.11142z" fill="url(#r)"/><path d="m15.6726 20.7352c-3.3711 3.5574-4.2344 7.6462-4.4197 8.814-.0277.1751.1088.3267.2861.3267h14.9991c2.14 0 3.82-2.0821 3.62-4.2221-.6-6.34-2.8-18.03002-10.91-18.03002-3.49 0-1.2555 10.67142-3.5755 13.11142z" fill="url(#s)"/><path d="m30.2664 16.8602c0-3.6562-2.323-4.2084-3.2188-4.1875.1979.7917.2813 3.3-.9687 7s-.2188 8.4688.4687 10.2188c2.6719 0 3.7188-.3438 3.7188-2.2813z" fill="url(#u)"/><path d="m30.2664 16.8602c0-3.6562-2.323-4.2084-3.2188-4.1875.1979.7917.2813 3.3-.9687 7s-.2188 8.4688.4687 10.2188c2.6719 0 3.7188-.3438 3.7188-2.2813z" fill="url(#v)"/><path d="m30.2664 16.8602c0-3.6562-2.323-4.2084-3.2188-4.1875.1979.7917.2813 3.3-.9687 7s-.2188 8.4688.4687 10.2188c2.6719 0 3.7188-.3438 3.7188-2.2813z" fill="url(#w)"/><path d="m30.2664 16.8602c0-3.6562-2.323-4.2084-3.2188-4.1875.1979.7917.2813 3.3-.9687 7s-.2188 8.4688.4687 10.2188c2.6719 0 3.7188-.3438 3.7188-2.2813z" fill="url(#x)"/><path d="m30.2664 16.8602c0-3.6562-2.323-4.2084-3.2188-4.1875.1979.7917.2813 3.3-.9687 7s-.2188 8.4688.4687 10.2188c2.6719 0 3.7188-.3438 3.7188-2.2813z" fill="url(#z)"/><path d="m30.2664 16.8602c0-3.6562-2.323-4.2084-3.2188-4.1875.1979.7917.2813 3.3-.9687 7s-.2188 8.4688.4687 10.2188c2.6719 0 3.7188-.3438 3.7188-2.2813z" fill="url(#A)"/><path d="m30.2664 16.8602c0-3.6562-2.323-4.2084-3.2188-4.1875.1979.7917.2813 3.3-.9687 7s-.2188 8.4688.4687 10.2188c2.6719 0 3.7188-.3438 3.7188-2.2813z" fill="url(#B)"/><g filter="url(#b)"><path d="m27.5627 14.8912c.1033.4321.4936 1.281-.3276 4.3814-.7656 2.8907-1.3281 5.4688-.2031 9.8438" stroke="#786d6d" stroke-linecap="round" stroke-width=".25"/></g><path d="m27.7351 17.1727c1.0625-4-1.875-8.15622-4.1875-8.15622.8125 1.85412 1.3125 6.21872 0 8.34372-1.4957 2.4216-1.7344 9.0313-.9844 12.5313h4.75c-1.7-4.825-.6406-8.7188.4219-12.7188z" fill="url(#C)"/><path d="m27.7351 17.1727c1.0625-4-1.875-8.15622-4.1875-8.15622.8125 1.85412 1.3125 6.21872 0 8.34372-1.4957 2.4216-1.7344 9.0313-.9844 12.5313h4.75c-1.7-4.825-.6406-8.7188.4219-12.7188z" fill="url(#E)"/><path d="m27.7351 17.1727c1.0625-4-1.875-8.15622-4.1875-8.15622.8125 1.85412 1.3125 6.21872 0 8.34372-1.4957 2.4216-1.7344 9.0313-.9844 12.5313h4.75c-1.7-4.825-.6406-8.7188.4219-12.7188z" fill="url(#F)"/><path d="m27.7351 17.1727c1.0625-4-1.875-8.15622-4.1875-8.15622.8125 1.85412 1.3125 6.21872 0 8.34372-1.4957 2.4216-1.7344 9.0313-.9844 12.5313h4.75c-1.7-4.825-.6406-8.7188.4219-12.7188z" fill="url(#H)"/><path d="m27.7351 17.1727c1.0625-4-1.875-8.15622-4.1875-8.15622.8125 1.85412 1.3125 6.21872 0 8.34372-1.4957 2.4216-1.7344 9.0313-.9844 12.5313h4.75c-1.7-4.825-.6406-8.7188.4219-12.7188z" fill="url(#H)"/><path d="m27.7351 17.1727c1.0625-4-1.875-8.15622-4.1875-8.15622.8125 1.85412 1.3125 6.21872 0 8.34372-1.4957 2.4216-1.7344 9.0313-.9844 12.5313h4.75c-1.7-4.825-.6406-8.7188.4219-12.7188z" fill="url(#I)"/><g filter="url(#c)"><path d="m24.5163 11.2883c1.3907 2.6719.356 4.4887-.9062 8.2032-1.0938 3.2187-1.5313 5.5937-.5313 10.0625" stroke="#6b6060" stroke-linecap="round" stroke-width=".5"/></g><path d="m3.82363 18.9938 11.96697-12.87319h2.625l6.0938 5.49999-.7976 1.9829c-1.5943 3.9634-5.0342 6.8905-9.2017 7.8301l-8.21833 1.8529c-1.30961.2952-2.6279-.4584-3.03784-1.7368-.28614-.8923-.06831-1.8696.5697-2.5559z" fill="url(#J)"/><path d="m3.82363 18.9938 11.96697-12.87319h2.625l6.0938 5.49999-.7976 1.9829c-1.5943 3.9634-5.0342 6.8905-9.2017 7.8301l-8.21833 1.8529c-1.30961.2952-2.6279-.4584-3.03784-1.7368-.28614-.8923-.06831-1.8696.5697-2.5559z" fill="url(#K)"/><path d="m3.82363 18.9938 11.96697-12.87319h2.625l6.0938 5.49999-.7976 1.9829c-1.5943 3.9634-5.0342 6.8905-9.2017 7.8301l-8.21833 1.8529c-1.30961.2952-2.6279-.4584-3.03784-1.7368-.28614-.8923-.06831-1.8696.5697-2.5559z" fill="url(#L)"/><path d="m3.82363 18.9938 11.96697-12.87319h2.625l6.0938 5.49999-.7976 1.9829c-1.5943 3.9634-5.0342 6.8905-9.2017 7.8301l-8.21833 1.8529c-1.30961.2952-2.6279-.4584-3.03784-1.7368-.28614-.8923-.06831-1.8696.5697-2.5559z" fill="url(#M)"/><path d="m3.82363 18.9938 11.96697-12.87319h2.625l6.0938 5.49999-.7976 1.9829c-1.5943 3.9634-5.0342 6.8905-9.2017 7.8301l-8.21833 1.8529c-1.30961.2952-2.6279-.4584-3.03784-1.7368-.28614-.8923-.06831-1.8696.5697-2.5559z" fill="url(#N)"/><g filter="url(#d)"><path d="m3.72988 18.9584 11.96702-12.87319h2.625l6.0937 5.49999-.7976 1.9829c-1.5943 3.9634-5.0341 6.8905-9.2016 7.8301l-8.21838 1.8529c-1.30961.2952-2.6279-.4584-3.03784-1.7368-.28614-.8923-.06831-1.8696.5697-2.5559z" fill="url(#O)"/></g><g filter="url(#e)"><path d="m17.5476 10.179-11.84773 10.0809c-.3503.2981-.41174.8157-.14094 1.1875.2545.3494.7252.462 1.11029.2657l12.69088-6.4716z" fill="url(#P)"/></g><path d="m23.157 29.8759h-6.625c-1.59-6.76 3.7962-11.2621 4.1562-16.3021.4-5.72999-3.74-6.78999-3.74-6.78999-1.32.33 1.01 1.24999-1.58 1.24999l-.68-1.44999-.6875-1.12993c1.64-.45 3.8422-.82697 6.3594.40632 3.0994 1.5185 5.7531 5.4881 4.6875 9.5625-1.0625 4.0625-3.5781 6.9921-1.8906 14.4532z" fill="url(#Q)"/><path d="m23.157 29.8759h-6.625c-1.59-6.76 3.7962-11.2621 4.1562-16.3021.4-5.72999-3.74-6.78999-3.74-6.78999-1.32.33 1.01 1.24999-1.58 1.24999l-.68-1.44999-.6875-1.12993c1.64-.45 3.8422-.82697 6.3594.40632 3.0994 1.5185 5.7531 5.4881 4.6875 9.5625-1.0625 4.0625-3.5781 6.9921-1.8906 14.4532z" fill="url(#R)"/><path d="m23.157 29.8759h-6.625c-1.59-6.76 3.7962-11.2621 4.1562-16.3021.4-5.72999-3.74-6.78999-3.74-6.78999-1.32.33 1.01 1.24999-1.58 1.24999l-.68-1.44999-.6875-1.12993c1.64-.45 3.8422-.82697 6.3594.40632 3.0994 1.5185 5.7531 5.4881 4.6875 9.5625-1.0625 4.0625-3.5781 6.9921-1.8906 14.4532z" fill="url(#S)"/><path d="m23.157 29.8759h-6.625c-1.59-6.76 3.7962-11.2621 4.1562-16.3021.4-5.72999-3.74-6.78999-3.74-6.78999-1.32.33 1.01 1.24999-1.58 1.24999l-.68-1.44999-.6875-1.12993c1.64-.45 3.8422-.82697 6.3594.40632 3.0994 1.5185 5.7531 5.4881 4.6875 9.5625-1.0625 4.0625-3.5781 6.9921-1.8906 14.4532z" fill="url(#U)"/><path d="m23.157 29.8759h-6.625c-1.59-6.76 3.7962-11.2621 4.1562-16.3021.4-5.72999-3.74-6.78999-3.74-6.78999-1.32.33 1.01 1.24999-1.58 1.24999l-.68-1.44999-.6875-1.12993c1.64-.45 3.8422-.82697 6.3594.40632 3.0994 1.5185 5.7531 5.4881 4.6875 9.5625-1.0625 4.0625-3.5781 6.9921-1.8906 14.4532z" fill="url(#V)"/><path d="m23.157 29.8759h-6.625c-1.59-6.76 3.7962-11.2621 4.1562-16.3021.4-5.72999-3.74-6.78999-3.74-6.78999-1.32.33 1.01 1.24999-1.58 1.24999l-.68-1.44999-.6875-1.12993c1.64-.45 3.8422-.82697 6.3594.40632 3.0994 1.5185 5.7531 5.4881 4.6875 9.5625-1.0625 4.0625-3.5781 6.9921-1.8906 14.4532z" fill="url(#W)"/><path d="m23.157 29.8759h-6.625c-1.59-6.76 3.7962-11.2621 4.1562-16.3021.4-5.72999-3.74-6.78999-3.74-6.78999-1.32.33 1.01 1.24999-1.58 1.24999l-.68-1.44999-.6875-1.12993c1.64-.45 3.8422-.82697 6.3594.40632 3.0994 1.5185 5.7531 5.4881 4.6875 9.5625-1.0625 4.0625-3.5781 6.9921-1.8906 14.4532z" fill="url(#X)"/><path d="m23.157 29.8759h-6.625c-1.59-6.76 3.7962-11.2621 4.1562-16.3021.4-5.72999-3.74-6.78999-3.74-6.78999-1.32.33 1.01 1.24999-1.58 1.24999l-.68-1.44999-.6875-1.12993c1.64-.45 3.8422-.82697 6.3594.40632 3.0994 1.5185 5.7531 5.4881 4.6875 9.5625-1.0625 4.0625-3.5781 6.9921-1.8906 14.4532z" fill="url(#Z)" fill-opacity=".75"/><path d="m23.157 29.8759h-6.625c-1.59-6.76 3.7962-11.2621 4.1562-16.3021.4-5.72999-3.74-6.78999-3.74-6.78999-1.32.33 1.01 1.24999-1.58 1.24999l-.68-1.44999-.6875-1.12993c1.64-.45 3.8422-.82697 6.3594.40632 3.0994 1.5185 5.7531 5.4881 4.6875 9.5625-1.0625 4.0625-3.5781 6.9921-1.8906 14.4532z" fill="url(#aa)" fill-opacity=".75"/><path d="m23.157 29.8759h-6.625c-1.59-6.76 3.7962-11.2621 4.1562-16.3021.4-5.72999-3.74-6.78999-3.74-6.78999-1.32.33 1.01 1.24999-1.58 1.24999l-.68-1.44999-.6875-1.12993c1.64-.45 3.8422-.82697 6.3594.40632 3.0994 1.5185 5.7531 5.4881 4.6875 9.5625-1.0625 4.0625-3.5781 6.9921-1.8906 14.4532z" fill="url(#Q)"/><path d="m23.157 29.8759h-6.625c-1.59-6.76 3.7962-11.2621 4.1562-16.3021.4-5.72999-3.74-6.78999-3.74-6.78999-1.32.33 1.01 1.24999-1.58 1.24999l-.68-1.44999-.6875-1.12993c1.64-.45 3.8422-.82697 6.3594.40632 3.0994 1.5185 5.7531 5.4881 4.6875 9.5625-1.0625 4.0625-3.5781 6.9921-1.8906 14.4532z" fill="url(#R)"/><path d="m23.157 29.8759h-6.625c-1.59-6.76 3.7962-11.2621 4.1562-16.3021.4-5.72999-3.74-6.78999-3.74-6.78999-1.32.33 1.01 1.24999-1.58 1.24999l-.68-1.44999-.6875-1.12993c1.64-.45 3.8422-.82697 6.3594.40632 3.0994 1.5185 5.7531 5.4881 4.6875 9.5625-1.0625 4.0625-3.5781 6.9921-1.8906 14.4532z" fill="url(#S)"/><path d="m23.157 29.8759h-6.625c-1.59-6.76 3.7962-11.2621 4.1562-16.3021.4-5.72999-3.74-6.78999-3.74-6.78999-1.32.33 1.01 1.24999-1.58 1.24999l-.68-1.44999-.6875-1.12993c1.64-.45 3.8422-.82697 6.3594.40632 3.0994 1.5185 5.7531 5.4881 4.6875 9.5625-1.0625 4.0625-3.5781 6.9921-1.8906 14.4532z" fill="url(#U)"/><path d="m23.157 29.8759h-6.625c-1.59-6.76 3.7962-11.2621 4.1562-16.3021.4-5.72999-3.74-6.78999-3.74-6.78999-1.32.33 1.01 1.24999-1.58 1.24999l-.68-1.44999-.6875-1.12993c1.64-.45 3.8422-.82697 6.3594.40632 3.0994 1.5185 5.7531 5.4881 4.6875 9.5625-1.0625 4.0625-3.5781 6.9921-1.8906 14.4532z" fill="url(#V)"/><path d="m23.157 29.8759h-6.625c-1.59-6.76 3.7962-11.2621 4.1562-16.3021.4-5.72999-3.74-6.78999-3.74-6.78999-1.32.33 1.01 1.24999-1.58 1.24999l-.68-1.44999-.6875-1.12993c1.64-.45 3.8422-.82697 6.3594.40632 3.0994 1.5185 5.7531 5.4881 4.6875 9.5625-1.0625 4.0625-3.5781 6.9921-1.8906 14.4532z" fill="url(#W)"/><path d="m23.157 29.8759h-6.625c-1.59-6.76 3.7962-11.2621 4.1562-16.3021.4-5.72999-3.74-6.78999-3.74-6.78999-1.32.33 1.01 1.24999-1.58 1.24999l-.68-1.44999-.6875-1.12993c1.64-.45 3.8422-.82697 6.3594.40632 3.0994 1.5185 5.7531 5.4881 4.6875 9.5625-1.0625 4.0625-3.5781 6.9921-1.8906 14.4532z" fill="url(#X)"/><path d="m23.157 29.8759h-6.625c-1.59-6.76 3.7962-11.2621 4.1562-16.3021.4-5.72999-3.74-6.78999-3.74-6.78999-1.32.33 1.01 1.24999-1.58 1.24999l-.68-1.44999-.6875-1.12993c1.64-.45 3.8422-.82697 6.3594.40632 3.0994 1.5185 5.7531 5.4881 4.6875 9.5625-1.0625 4.0625-3.5781 6.9921-1.8906 14.4532z" fill="url(#ab)"/><path d="m23.157 29.8759h-6.625c-1.59-6.76 3.7962-11.2621 4.1562-16.3021.4-5.72999-3.74-6.78999-3.74-6.78999-1.32.33 1.01 1.24999-1.58 1.24999l-.68-1.44999-.6875-1.12993c1.64-.45 3.8422-.82697 6.3594.40632 3.0994 1.5185 5.7531 5.4881 4.6875 9.5625-1.0625 4.0625-3.5781 6.9921-1.8906 14.4532z" fill="url(#ac)"/><path d="m23.157 29.8759h-6.625c-1.59-6.76 3.7962-11.2621 4.1562-16.3021.4-5.72999-3.74-6.78999-3.74-6.78999-1.32.33 1.01 1.24999-1.58 1.24999l-.68-1.44999-.6875-1.12993c1.64-.45 3.8422-.82697 6.3594.40632 3.0994 1.5185 5.7531 5.4881 4.6875 9.5625-1.0625 4.0625-3.5781 6.9921-1.8906 14.4532z" fill="url(#Z)" fill-opacity=".75"/><path d="m23.157 29.8759h-6.625c-1.59-6.76 3.7962-11.2621 4.1562-16.3021.4-5.72999-3.74-6.78999-3.74-6.78999-1.32.33 1.01 1.24999-1.58 1.24999l-.68-1.44999-.6875-1.12993c1.64-.45 3.8422-.82697 6.3594.40632 3.0994 1.5185 5.7531 5.4881 4.6875 9.5625-1.0625 4.0625-3.5781 6.9921-1.8906 14.4532z" fill="url(#aa)" fill-opacity=".75"/><g filter="url(#f)"><path d="m18.8839 29.8759h-2.1039c-.8313-3.5344.1604-6.1142 1.4277-8.8138z" fill="url(#ad)"/><path d="m18.8839 29.8759h-2.1039c-.8313-3.5344.1604-6.1142 1.4277-8.8138z" fill="url(#ae)" fill-opacity=".65"/></g><path d="m15.8919 9.14768c-2.0625 0-2.4718-.97656-2.5875-2.72656-.1156-1.75 0-2.21094 0-2.21094 0-.34.41-.57432.65-.33432 0 0 2.8672 2.32651 3.4219 3.53124.5547 1.20472-.4687 1.74058-1.4844 1.74058z" fill="url(#af)"/><path d="m15.8919 9.14768c-2.0625 0-2.4718-.97656-2.5875-2.72656-.1156-1.75 0-2.21094 0-2.21094 0-.34.41-.57432.65-.33432 0 0 2.8672 2.32651 3.4219 3.53124.5547 1.20472-.4687 1.74058-1.4844 1.74058z" fill="url(#ag)"/><path d="m15.8919 9.14768c-2.0625 0-2.4718-.97656-2.5875-2.72656-.1156-1.75 0-2.21094 0-2.21094 0-.34.41-.57432.65-.33432 0 0 2.8672 2.32651 3.4219 3.53124.5547 1.20472-.4687 1.74058-1.4844 1.74058z" fill="url(#ah)"/><path d="m15.8919 9.14768c-2.0625 0-2.4718-.97656-2.5875-2.72656-.1156-1.75 0-2.21094 0-2.21094 0-.34.41-.57432.65-.33432 0 0 2.8672 2.32651 3.4219 3.53124.5547 1.20472-.4687 1.74058-1.4844 1.74058z" fill="url(#ai)" fill-opacity=".6"/><g filter="url(#g)"><path d="m12.7061 14.7995c-.402.0906-.8052-.1642-.8958-.5662l-.3111-1.3798c-.0907-.402.1641-.8051.5661-.8958.4021-.0906.8052.1642.8959.5662l.3111 1.3797c.0906.4021-.1642.8052-.5662.8959z" fill="url(#aj)"/></g><path d="m12.807 14.8352c-.4122 0-.7494-.3372-.7494-.7494v-1.4143c0-.4122.3372-.7494.7494-.7494.4121 0 .7493.3372.7493.7494v1.4143c0 .4122-.3372.7494-.7493.7494z" fill="url(#ak)"/><path d="m12.807 14.8352c-.4122 0-.7494-.3372-.7494-.7494v-1.4143c0-.4122.3372-.7494.7494-.7494.4121 0 .7493.3372.7493.7494v1.4143c0 .4122-.3372.7494-.7493.7494z" fill="url(#al)"/><path d="m12.807 14.8352c-.4122 0-.7494-.3372-.7494-.7494v-1.4143c0-.4122.3372-.7494.7494-.7494.4121 0 .7493.3372.7493.7494v1.4143c0 .4122-.3372.7494-.7493.7494z" fill="url(#am)"/><path d="m12.807 14.8352c-.4122 0-.7494-.3372-.7494-.7494v-1.4143c0-.4122.3372-.7494.7494-.7494.4121 0 .7493.3372.7493.7494v1.4143c0 .4122-.3372.7494-.7493.7494z" fill="url(#an)"/><path d="m5.63565 20.1828c-.26098.261-.69596.261-.95694 0l.95694-.957c.26098.2697.26098.696 0 .957z" fill="url(#ao)"/><path d="m9.04676 22.6082-1.86402.4065c.77466-.3012 1.26053-1.119 1.11396-1.972-.04788-.2786.13917-.5433.41777-.5911.2786-.0479.54327.1391.59114.4177.10578.6157.00225 1.2197-.25885 1.7389z" fill="url(#ap)"/><g filter="url(#h)"><path d="m14.3914 8.86646c.2969.25.988.38458 1.7031.25.7151-.13459 1.2518-.66518 1.4004-.85284" stroke="url(#aq)" stroke-linecap="round" stroke-width=".5"/></g><g filter="url(#i)"><path d="m26.485 13.304c.2084.5208.4125 2.35-.4375 5.5-1.0625 3.9375-1.25 5.875-.625 8.875" stroke="url(#ar)" stroke-linecap="round" stroke-width=".75"/></g><g filter="url(#j)"><path d="m23.3914 10.3352c.2083.5208 1.1875 3.8438-1.0612 8.4688-1.7833 3.6678-2.0326 6.0625-1.5951 10.25" stroke="url(#as)" stroke-linecap="round" stroke-width=".75"/></g></svg>