<svg fill="none" height="32" viewBox="0 0 32 32" width="32" xmlns="http://www.w3.org/2000/svg" xmlns:xlink="http://www.w3.org/1999/xlink"><filter id="a" color-interpolation-filters="sRGB" filterUnits="userSpaceOnUse" height="9.763" width="4.75" x="26.187" y="11.748"><feFlood flood-opacity="0" result="BackgroundImageFix"/><feBlend in="SourceGraphic" in2="BackgroundImageFix" mode="normal" result="shape"/><feGaussianBlur result="effect1_foregroundBlur_28327_1406" stdDeviation=".2"/></filter><filter id="b" color-interpolation-filters="sRGB" filterUnits="userSpaceOnUse" height="15.089" width="11.833" x="17.501" y="5.395"><feFlood flood-opacity="0" result="BackgroundImageFix"/><feBlend in="SourceGraphic" in2="BackgroundImageFix" mode="normal" result="shape"/><feGaussianBlur result="effect1_foregroundBlur_28327_1406" stdDeviation="1.75"/></filter><filter id="c" color-interpolation-filters="sRGB" filterUnits="userSpaceOnUse" height="7.772" width="13.127" x="9.21" y="3.085"><feFlood flood-opacity="0" result="BackgroundImageFix"/><feBlend in="SourceGraphic" in2="BackgroundImageFix" mode="normal" result="shape"/><feGaussianBlur result="effect1_foregroundBlur_28327_1406" stdDeviation="1.75"/></filter><filter id="d" color-interpolation-filters="sRGB" filterUnits="userSpaceOnUse" height="21.129" width="21.122" x="5.118" y="7.148"><feFlood flood-opacity="0" result="BackgroundImageFix"/><feBlend in="SourceGraphic" in2="BackgroundImageFix" mode="normal" result="shape"/><feGaussianBlur result="effect1_foregroundBlur_28327_1406" stdDeviation="1"/></filter><filter id="e" color-interpolation-filters="sRGB" filterUnits="userSpaceOnUse" height="13.73" width="3.023" x="3.818" y="10.025"><feFlood flood-opacity="0" result="BackgroundImageFix"/><feBlend in="SourceGraphic" in2="BackgroundImageFix" mode="normal" result="shape"/><feGaussianBlur result="effect1_foregroundBlur_28327_1406" stdDeviation=".2"/></filter><filter id="f" color-interpolation-filters="sRGB" filterUnits="userSpaceOnUse" height="11.2" width="2.477" x="25.57" y="12.355"><feFlood flood-opacity="0" result="BackgroundImageFix"/><feBlend in="SourceGraphic" in2="BackgroundImageFix" mode="normal" result="shape"/><feGaussianBlur result="effect1_foregroundBlur_28327_1406" stdDeviation=".2"/></filter><filter id="g" color-interpolation-filters="sRGB" filterUnits="userSpaceOnUse" height="7.085" width="4.02" x="20.82" y="8.916"><feFlood flood-opacity="0" result="BackgroundImageFix"/><feBlend in="SourceGraphic" in2="BackgroundImageFix" mode="normal" result="shape"/><feGaussianBlur result="effect1_foregroundBlur_28327_1406" stdDeviation=".2"/></filter><filter id="h" color-interpolation-filters="sRGB" filterUnits="userSpaceOnUse" height="6.931" width="2.619" x="20.97" y="16.81"><feFlood flood-opacity="0" result="BackgroundImageFix"/><feBlend in="SourceGraphic" in2="BackgroundImageFix" mode="normal" result="shape"/><feGaussianBlur result="effect1_foregroundBlur_28327_1406" stdDeviation=".2"/></filter><filter id="i" color-interpolation-filters="sRGB" filterUnits="userSpaceOnUse" height="5.25" width="3.625" x="10.681" y="12.541"><feFlood flood-opacity="0" result="BackgroundImageFix"/><feBlend in="SourceGraphic" in2="BackgroundImageFix" mode="normal" result="shape"/><feGaussianBlur result="effect1_foregroundBlur_28327_1406" stdDeviation=".5"/></filter><filter id="j" color-interpolation-filters="sRGB" filterUnits="userSpaceOnUse" height="5.25" width="3.625" x="16.857" y="12.541"><feFlood flood-opacity="0" result="BackgroundImageFix"/><feBlend in="SourceGraphic" in2="BackgroundImageFix" mode="normal" result="shape"/><feGaussianBlur result="effect1_foregroundBlur_28327_1406" stdDeviation=".5"/></filter><filter id="k" color-interpolation-filters="sRGB" filterUnits="userSpaceOnUse" height="4.418" width="7.344" x="12.102" y="15.791"><feFlood flood-opacity="0" result="BackgroundImageFix"/><feBlend in="SourceGraphic" in2="BackgroundImageFix" mode="normal" result="shape"/><feGaussianBlur result="effect1_foregroundBlur_28327_1406" stdDeviation=".5"/></filter><filter id="l" color-interpolation-filters="sRGB" filterUnits="userSpaceOnUse" height="1.15" width="1.305" x="17.038" y="16.766"><feFlood flood-opacity="0" result="BackgroundImageFix"/><feBlend in="SourceGraphic" in2="BackgroundImageFix" mode="normal" result="shape"/><feGaussianBlur result="effect1_foregroundBlur_28327_1406" stdDeviation=".1"/></filter><filter id="m" color-interpolation-filters="sRGB" filterUnits="userSpaceOnUse" height="2.567" width="2.567" x="17.915" y="12.73"><feFlood flood-opacity="0" result="BackgroundImageFix"/><feBlend in="SourceGraphic" in2="BackgroundImageFix" mode="normal" result="shape"/><feGaussianBlur result="effect1_foregroundBlur_28327_1406" stdDeviation=".5"/></filter><filter id="n" color-interpolation-filters="sRGB" filterUnits="userSpaceOnUse" height="2.567" width="2.567" x="11.987" y="12.874"><feFlood flood-opacity="0" result="BackgroundImageFix"/><feBlend in="SourceGraphic" in2="BackgroundImageFix" mode="normal" result="shape"/><feGaussianBlur result="effect1_foregroundBlur_28327_1406" stdDeviation=".5"/></filter><linearGradient id="o" gradientUnits="userSpaceOnUse" x1="6.516" x2="6.516" y1="13.205" y2="24.143"><stop offset="0" stop-color="#a67874"/><stop offset="1" stop-color="#8f5872"/></linearGradient><linearGradient id="p" gradientUnits="userSpaceOnUse" x1="6.516" x2="6.516" y1="16.455" y2="24.643"><stop offset="0" stop-color="#b56595" stop-opacity="0"/><stop offset="1" stop-color="#ca6fa6"/></linearGradient><radialGradient id="q" cx="0" cy="0" gradientTransform="matrix(-11.25001117 -11.12504399 13.27885217 -13.428013 10.3847 23.0801)" gradientUnits="userSpaceOnUse" r="1"><stop offset=".632" stop-color="#f39585" stop-opacity="0"/><stop offset="1" stop-color="#f39585"/></radialGradient><linearGradient id="r" gradientUnits="userSpaceOnUse" x1="25.433" x2="25.433" y1="14.393" y2="24.643"><stop offset=".094" stop-color="#fab8a9"/><stop offset="1" stop-color="#b56595"/></linearGradient><radialGradient id="s" cx="0" cy="0" gradientTransform="matrix(-5.49997316 -6.31251767 13.29790371 -11.58620336 29.0206 20.5489)" gradientUnits="userSpaceOnUse" r="1"><stop offset="0" stop-color="#ffdacc" stop-opacity="0"/><stop offset=".448" stop-color="#ffdacc"/><stop offset="1" stop-color="#ffdacc" stop-opacity="0"/></radialGradient><radialGradient id="t" cx="0" cy="0" gradientTransform="matrix(-10.93738548 18.41699528 -32.63847282 -19.38315959 24.2596 10.9551)" gradientUnits="userSpaceOnUse" r="1"><stop offset="0" stop-color="#a06857"/><stop offset="1" stop-color="#5b3838"/></radialGradient><linearGradient id="u" gradientUnits="userSpaceOnUse" x1="16" x2="16" y1="17.425" y2="34.282"><stop offset="0" stop-color="#682b5b" stop-opacity="0"/><stop offset="1" stop-color="#682b5b"/></linearGradient><radialGradient id="v" cx="0" cy="0" gradientTransform="matrix(0 20.6725 -18.4611 0 16.0009 14.4389)" gradientUnits="userSpaceOnUse" r="1"><stop offset=".688" stop-color="#ff7af2" stop-opacity="0"/><stop offset="1" stop-color="#ffbce6"/></radialGradient><radialGradient id="w" cx="0" cy="0" gradientTransform="matrix(-10.58266847 15.83808262 -15.83808262 -10.58266847 23.4924 9.79724)" gradientUnits="userSpaceOnUse" r="1"><stop offset="0" stop-color="#a9705e"/><stop offset="1" stop-color="#a9705e" stop-opacity="0"/></radialGradient><linearGradient id="x" gradientUnits="userSpaceOnUse" x1="16" x2="16" y1="8.901" y2="26.948"><stop offset="0" stop-color="#ffc8bc"/><stop offset=".188" stop-color="#fab8a9"/><stop offset=".895" stop-color="#ac628e"/></linearGradient><radialGradient id="y" cx="0" cy="0" gradientTransform="matrix(-18.93752319 7.12493774 -9.55907579 -25.40727034 25.3054 12.3225)" gradientUnits="userSpaceOnUse" r="1"><stop offset=".818" stop-color="#a55f89" stop-opacity="0"/><stop offset="1" stop-color="#a55f89"/></radialGradient><radialGradient id="z" cx="0" cy="0" gradientTransform="matrix(-.00068735 12.70389998 -10.84629998 -.00058684 16.0007 15.3963)" gradientUnits="userSpaceOnUse" r="1"><stop offset=".813" stop-color="#ef5cf2" stop-opacity="0"/><stop offset="1" stop-color="#ff63c4"/></radialGradient><linearGradient id="A" gradientUnits="userSpaceOnUse" x1="6.647" x2="4.184" y1="23.584" y2="10.914"><stop offset="0" stop-color="#7c6160" stop-opacity="0"/><stop offset=".503" stop-color="#7c6160"/><stop offset="1" stop-color="#7c6160" stop-opacity="0"/></linearGradient><linearGradient id="B" gradientUnits="userSpaceOnUse" x1="24.978" x2="28.269" y1="22.955" y2="15.014"><stop offset="0" stop-color="#be8b89" stop-opacity="0"/><stop offset=".296" stop-color="#be8b89" stop-opacity=".6"/><stop offset=".808" stop-color="#be8b89" stop-opacity="0"/></linearGradient><linearGradient id="C" gradientUnits="userSpaceOnUse" x1="24.528" x2="20.916" y1="14.832" y2="9.414"><stop offset="0" stop-color="#ffdacc" stop-opacity="0"/><stop offset=".557" stop-color="#ffdacc"/><stop offset="1" stop-color="#ffdacc" stop-opacity="0"/></linearGradient><linearGradient id="D" gradientUnits="userSpaceOnUse" x1="22.767" x2="22.087" y1="22.709" y2="18.635"><stop offset=".026" stop-color="#ffdacc" stop-opacity="0"/><stop offset="1" stop-color="#ffdacc"/></linearGradient><radialGradient id="E" cx="0" cy="0" gradientTransform="matrix(0 -9.07087 17.6698 0 16.6533 25.2032)" gradientUnits="userSpaceOnUse" r="1"><stop offset="0" stop-color="#ef0084"/><stop offset=".548" stop-color="#89029c"/></radialGradient><linearGradient id="F"><stop offset="0" stop-color="#432a3d"/><stop offset=".568" stop-color="#684e61"/><stop offset=".766" stop-color="#43253d"/></linearGradient><linearGradient id="G" gradientUnits="userSpaceOnUse" x1="15.851" x2="11.505" xlink:href="#F" y1="14.479" y2="14.479"/><linearGradient id="H"><stop offset=".327" stop-color="#43253d" stop-opacity="0"/><stop offset="1" stop-color="#43253d"/></linearGradient><linearGradient id="I" gradientUnits="userSpaceOnUse" x1="13.344" x2="13.344" xlink:href="#H" y1="14.319" y2="16.675"/><linearGradient id="J" gradientUnits="userSpaceOnUse" x1="21.845" x2="17.499" xlink:href="#F" y1="14.479" y2="14.479"/><linearGradient id="K" gradientUnits="userSpaceOnUse" x1="19.337" x2="19.337" xlink:href="#H" y1="14.319" y2="16.675"/><linearGradient id="L" gradientUnits="userSpaceOnUse" x1="16" x2="16" y1="16.387" y2="18.526"><stop offset="0" stop-color="#e9a4a2"/><stop offset="1" stop-color="#dc89a8"/></linearGradient><linearGradient id="M" gradientUnits="userSpaceOnUse" x1="15.493" x2="14.753" y1="21.323" y2="17.707"><stop offset=".07" stop-color="#c971b6"/><stop offset="1" stop-color="#dc90cc" stop-opacity="0"/></linearGradient><radialGradient id="N" cx="0" cy="0" gradientTransform="matrix(-1.30213877 1.38789852 -.83440479 -.78284601 14.9044 17.544)" gradientUnits="userSpaceOnUse" r="1"><stop offset="0" stop-color="#3e2739"/><stop offset="1" stop-color="#684e61"/></radialGradient><radialGradient id="O" cx="0" cy="0" gradientTransform="matrix(-.77400768 .94202416 -1.47396703 -1.21107487 17.6079 17.544)" gradientUnits="userSpaceOnUse" r="1"><stop offset="0" stop-color="#3c2737"/><stop offset="1" stop-color="#684e61"/></radialGradient><linearGradient id="P" gradientUnits="userSpaceOnUse" x1="17.68" x2="17.68" y1="16.991" y2="17.713"><stop offset="0" stop-color="#ffdacc" stop-opacity="0"/><stop offset=".349" stop-color="#ffebe3"/></linearGradient><path d="m6.51558 22.4238c3.02898 0 5.48442-2.4169 5.48442-5.3984s-2.45544-5.3984-5.48442-5.3984-5.48445 2.4169-5.48445 5.3984 2.45547 5.3984 5.48445 5.3984z" fill="url(#o)"/><path d="m6.51558 22.4238c3.02898 0 5.48442-2.4169 5.48442-5.3984s-2.45544-5.3984-5.48442-5.3984-5.48445 2.4169-5.48445 5.3984 2.45547 5.3984 5.48445 5.3984z" fill="url(#p)"/><path d="m6.51558 22.4238c3.02898 0 5.48442-2.4169 5.48442-5.3984s-2.45544-5.3984-5.48442-5.3984-5.48445 2.4169-5.48445 5.3984 2.45547 5.3984 5.48445 5.3984z" fill="url(#q)" fill-opacity=".5"/><path d="m25.4329 22.4238c3.029 0 5.4845-2.4169 5.4845-5.3984s-2.4555-5.3984-5.4845-5.3984c-3.0289 0-5.4844 2.4169-5.4844 5.3984s2.4555 5.3984 5.4844 5.3984z" fill="url(#r)"/><g filter="url(#a)"><path d="m26.8369 12.3984c.9793.1475 2.874 1.4375 3.2931 3.5098.4844 1.7813-.1719 4.0625-1.6719 4.9532" stroke="url(#s)" stroke-linecap="round" stroke-opacity=".8" stroke-width=".5"/></g><path d="m16 29.3721c7.9663 0 11.9471-5.349 11.9471-11.9472s-3.9808-11.94712-11.9471-11.94712c-7.96635 0-11.94714 5.34892-11.94714 11.94712s3.98079 11.9472 11.94714 11.9472z" fill="url(#t)"/><path d="m16 29.3721c7.9663 0 11.9471-5.349 11.9471-11.9472s-3.9808-11.94712-11.9471-11.94712c-7.96635 0-11.94714 5.34892-11.94714 11.94712s3.98079 11.9472 11.94714 11.9472z" fill="url(#u)"/><path d="m16 29.3721c7.9663 0 11.9471-5.349 11.9471-11.9472s-3.9808-11.94712-11.9471-11.94712c-7.96635 0-11.94714 5.34892-11.94714 11.94712s3.98079 11.9472 11.94714 11.9472z" fill="url(#v)"/><path d="m16 29.3721c7.9663 0 11.9471-5.349 11.9471-11.9472s-3.9808-11.94712-11.9471-11.94712c-7.96635 0-11.94714 5.34892-11.94714 11.94712s3.98079 11.9472 11.94714 11.9472z" fill="url(#w)"/><g filter="url(#b)"><ellipse cx="23.418" cy="12.94" fill="#c58e7d" rx="1.849" ry="4.333" transform="matrix(.91775809 -.39713988 .39713988 .91775809 -3.213003 10.364257)"/></g><g filter="url(#c)"><ellipse cx="15.773" cy="6.971" fill="#c58e7d" rx=".386" ry="3.064" transform="matrix(0 -1 1 0 8.80274 22.74406)"/></g><g filter="url(#d)"><path d="m11.8773 9.14844c-2.62853 0-4.75938 2.13086-4.75938 4.75936 0 1.1609.41564 2.2248 1.10623 3.0508.10629.1272.15237.295.12153.4579-.08576.4527-.13063.9199-.13063 1.3975 0 4.122 3.34155 7.4636 7.46355 7.4636 4.1221 0 7.4636-3.3416 7.4636-7.4636 0-.4776-.0449-.9448-.1306-1.3975-.0309-.1629.0152-.3307.1215-.4579.6906-.826 1.1062-1.8899 1.1062-3.0508 0-2.6285-2.1308-4.75936-4.7593-4.75936z" fill="#561e25"/></g><path d="m12.1562 8.90063c-2.65782 0-4.81245 2.15467-4.81245 4.81247 0 1.175.42104 2.2515 1.12047 3.0871.10637.1271.15245.295.12154.4578-.08707.4587-.13264.9321-.13264 1.4161 0 4.168 3.37888 7.5468 7.54688 7.5468s7.5469-3.3788 7.5469-7.5468c0-.484-.0456-.9574-.1327-1.4161-.0309-.1628.0152-.3307.1216-.4578.6994-.8356 1.1204-1.9121 1.1204-3.0871 0-2.6578-2.1546-4.81247-4.8124-4.81247z" fill="url(#x)"/><path d="m12.1562 8.90063c-2.65782 0-4.81245 2.15467-4.81245 4.81247 0 1.175.42104 2.2515 1.12047 3.0871.10637.1271.15245.295.12154.4578-.08707.4587-.13264.9321-.13264 1.4161 0 4.168 3.37888 7.5468 7.54688 7.5468s7.5469-3.3788 7.5469-7.5468c0-.484-.0456-.9574-.1327-1.4161-.0309-.1628.0152-.3307.1216-.4578.6994-.8356 1.1204-1.9121 1.1204-3.0871 0-2.6578-2.1546-4.81247-4.8124-4.81247z" fill="url(#y)"/><path d="m12.1562 8.90063c-2.65782 0-4.81245 2.15467-4.81245 4.81247 0 1.175.42104 2.2515 1.12047 3.0871.10637.1271.15245.295.12154.4578-.08707.4587-.13264.9321-.13264 1.4161 0 4.168 3.37888 7.5468 7.54688 7.5468s7.5469-3.3788 7.5469-7.5468c0-.484-.0456-.9574-.1327-1.4161-.0309-.1628.0152-.3307.1216-.4578.6994-.8356 1.1204-1.9121 1.1204-3.0871 0-2.6578-2.1546-4.81247-4.8124-4.81247z" fill="url(#z)"/><g filter="url(#e)"><path d="m5.7101 10.8251c-1.59271 3.9294-1.41139 9.6818.33078 12.1298" stroke="url(#A)" stroke-linecap="round" stroke-opacity=".4" stroke-width=".8"/></g><g filter="url(#f)"><path d="m26.9201 12.9551c.83 3.2797.7501 7.5625-.7499 10" stroke="url(#B)" stroke-linecap="round" stroke-opacity=".5" stroke-width=".4"/></g><g filter="url(#g)"><path d="m21.4197 9.51562c1.2966.50938 3.6898 2.49508 2.4951 5.88488" stroke="url(#C)" stroke-linecap="round" stroke-width=".4"/></g><g filter="url(#h)"><path d="m23.0134 17.26c.5 2.9375-.5937 5.125-1.5937 6.0313" stroke="url(#D)" stroke-linecap="round" stroke-width=".1"/></g><path d="m12.0062 20.4058c0 2.2957 1.6483 4.0055 3.9938 4.0055 2.5229 0 3.9938-1.7818 3.9938-4.0055z" fill="url(#E)"/><g filter="url(#i)"><rect fill="#bb6f89" fill-opacity=".6" height="3.25" rx=".813" width="1.625" x="11.681" y="13.541"/></g><g filter="url(#j)"><rect fill="#bb6f89" fill-opacity=".6" height="3.25" rx=".813" width="1.625" x="17.857" y="13.541"/></g><rect fill="url(#G)" height="3.016" rx=".754" width="1.508" x="12.249" y="13.386"/><rect fill="url(#I)" height="3.016" rx=".754" width="1.508" x="12.249" y="13.386"/><rect fill="url(#J)" height="3.016" rx=".754" width="1.508" x="18.243" y="13.386"/><rect fill="url(#K)" height="3.016" rx=".754" width="1.508" x="18.243" y="13.386"/><g filter="url(#k)"><rect fill="#bb6f89" height="2.418" rx="1.116" width="5.344" x="13.102" y="16.791"/></g><rect fill="url(#L)" height="2.232" rx="1.116" width="4.891" x="13.555" y="16.387"/><rect fill="url(#M)" height="2.232" rx="1.116" width="4.891" x="13.555" y="16.387"/><circle cx="14.549" cy="17.904" fill="url(#N)" r=".512"/><circle cx="17.346" cy="17.904" fill="url(#O)" r=".512"/><g filter="url(#l)"><path d="m17.2429 17.0021c.3438-.0703.8203.1875.875.7109" stroke="url(#P)" stroke-width=".05"/></g><g filter="url(#m)"><circle cx="19.199" cy="14.014" fill="#795d72" r=".284"/></g><g filter="url(#n)"><circle cx="13.271" cy="14.158" fill="#795d72" r=".284"/></g></svg>