<svg fill="none" height="32" viewBox="0 0 32 32" width="32" xmlns="http://www.w3.org/2000/svg" xmlns:xlink="http://www.w3.org/1999/xlink"><filter id="a" color-interpolation-filters="sRGB" filterUnits="userSpaceOnUse" height="28.714" width="26.537" x="3.801" y="1.268"><feFlood flood-opacity="0" result="BackgroundImageFix"/><feBlend in="SourceGraphic" in2="BackgroundImageFix" mode="normal" result="shape"/><feColorMatrix in="SourceAlpha" result="hardAlpha" type="matrix" values="0 0 0 0 0 0 0 0 0 0 0 0 0 0 0 0 0 0 127 0"/><feOffset dx="1" dy="-.75"/><feGaussianBlur stdDeviation="1"/><feComposite in2="hardAlpha" k2="-1" k3="1" operator="arithmetic"/><feColorMatrix type="matrix" values="0 0 0 0 0.231373 0 0 0 0 0.145098 0 0 0 0 0.172549 0 0 0 1 0"/><feBlend in2="shape" mode="normal" result="effect1_innerShadow_20020_5437"/></filter><filter id="b" color-interpolation-filters="sRGB" filterUnits="userSpaceOnUse" height="15.258" width="4.47" x="18.779" y="14.5"><feFlood flood-opacity="0" result="BackgroundImageFix"/><feBlend in="SourceGraphic" in2="BackgroundImageFix" mode="normal" result="shape"/><feGaussianBlur result="effect1_foregroundBlur_20020_5437" stdDeviation=".75"/></filter><filter id="c" color-interpolation-filters="sRGB" filterUnits="userSpaceOnUse" height="7.842" width="8.571" x="21.188" y="10.393"><feFlood flood-opacity="0" result="BackgroundImageFix"/><feBlend in="SourceGraphic" in2="BackgroundImageFix" mode="normal" result="shape"/><feGaussianBlur result="effect1_foregroundBlur_20020_5437" stdDeviation=".75"/></filter><filter id="d" color-interpolation-filters="sRGB" filterUnits="userSpaceOnUse" height="5.164" width="3.788" x="5.149" y="16.968"><feFlood flood-opacity="0" result="BackgroundImageFix"/><feBlend in="SourceGraphic" in2="BackgroundImageFix" mode="normal" result="shape"/><feGaussianBlur result="effect1_foregroundBlur_20020_5437" stdDeviation=".5"/></filter><filter id="e" color-interpolation-filters="sRGB" filterUnits="userSpaceOnUse" height="5.164" width="3.788" x="9.791" y="17.965"><feFlood flood-opacity="0" result="BackgroundImageFix"/><feBlend in="SourceGraphic" in2="BackgroundImageFix" mode="normal" result="shape"/><feGaussianBlur result="effect1_foregroundBlur_20020_5437" stdDeviation=".5"/></filter><filter id="f" color-interpolation-filters="sRGB" filterUnits="userSpaceOnUse" height="5.164" width="3.788" x="14.106" y="18.91"><feFlood flood-opacity="0" result="BackgroundImageFix"/><feBlend in="SourceGraphic" in2="BackgroundImageFix" mode="normal" result="shape"/><feGaussianBlur result="effect1_foregroundBlur_20020_5437" stdDeviation=".5"/></filter><radialGradient id="g" cx="0" cy="0" gradientTransform="matrix(-12.54599902 15.21680808 -22.41994547 -18.48486307 21.6409 7.53002)" gradientUnits="userSpaceOnUse" r="1"><stop offset="0" stop-color="#5f4845"/><stop offset="1" stop-color="#44242e"/></radialGradient><linearGradient id="h" gradientUnits="userSpaceOnUse" x1="1.587" x2="22.874" y1="14.105" y2="14.105"><stop offset="0" stop-color="#3f2a28"/><stop offset=".293" stop-color="#3f2a28" stop-opacity="0"/></linearGradient><radialGradient id="i" cx="0" cy="0" gradientTransform="matrix(-4.90300132 5.21040371 -12.28143284 -11.55685525 24.6995 8.57509)" gradientUnits="userSpaceOnUse" r="1"><stop offset=".006" stop-color="#685250"/><stop offset="1" stop-color="#685250" stop-opacity="0"/></radialGradient><linearGradient id="j"><stop offset="0" stop-color="#382136"/><stop offset="1" stop-color="#382136" stop-opacity="0"/></linearGradient><radialGradient id="k" cx="0" cy="0" gradientTransform="matrix(0 -4.19151 2.37896 0 8.08014 22.5701)" gradientUnits="userSpaceOnUse" r="1" xlink:href="#j"/><radialGradient id="l" cx="0" cy="0" gradientTransform="matrix(0 -3.94495 2.95871 0 12.7237 23.5975)" gradientUnits="userSpaceOnUse" r="1" xlink:href="#j"/><radialGradient id="m" cx="0" cy="0" gradientTransform="matrix(-8.01314343 -5.60398816 2.62399354 -3.75204872 28.7874 20.3901)" gradientUnits="userSpaceOnUse" r="1"><stop offset="0" stop-color="#361d31"/><stop offset="1" stop-color="#361d31" stop-opacity="0"/></radialGradient><linearGradient id="n" gradientUnits="userSpaceOnUse" x1="16.657" x2="19.98" y1="24.54" y2="24.54"><stop offset="0" stop-color="#3e282a"/><stop offset="1" stop-color="#3e282a" stop-opacity="0"/></linearGradient><linearGradient id="o" gradientUnits="userSpaceOnUse" x1="19.025" x2="19.025" y1="19.49" y2="22.55"><stop offset="0" stop-color="#503438"/><stop offset="1" stop-color="#503438" stop-opacity="0"/></linearGradient><linearGradient id="p" gradientUnits="userSpaceOnUse" x1="21.014" x2="21.014" y1="12.667" y2="28.258"><stop offset="0" stop-color="#5f4747" stop-opacity="0"/><stop offset="1" stop-color="#5f4747"/></linearGradient><linearGradient id="q" gradientUnits="userSpaceOnUse" x1="23.231" x2="23.231" y1="11.142" y2="19.579"><stop offset="0" stop-color="#665250" stop-opacity="0"/><stop offset="1" stop-color="#665250"/></linearGradient><g filter="url(#a)"><path d="m28.0419 13.8808c1.2397.8598 1.7017 2.5957.8886 3.8479-.8132 1.2522-2.4505 1.5948-3.7027.7816l-2.6103-1.6951v10.5298c0 1.4564-1.1806 2.637-2.6369 2.637-1.4564 0-2.637-1.1806-2.637-2.637v-4.284c-.4178.7919-1.2494 1.3318-2.207 1.3318-1.0907 0-2.0178-.7002-2.3564-1.6756-.4951.5118-1.1891.83-1.9574.83-1.14727 0-2.12886-.7095-2.5298-1.7138-.47593.4073-1.09401.6533-1.76955.6533-1.50385 0-2.72296-1.2191-2.72296-2.7229v-3.1028c0-.0347.00065-.0692.00194-.1036v-4.8591c0-1.4313.84826-3.87793 2.50981-6.02271.1657-.22022.34134-.43275.52627-.63696.0036-.00408.00719-.00816.0108-.01223-.00006-.00005.00005.00005 0 0 1.67819-1.84645 4.11759-3.00839 6.83259-3.00839 3.149 0 5.9271 1.5633 7.5769 3.9445.6033.83292.8918 1.50646 1.1784 2.17569.2197.51286.4382 1.02319.7966 1.60077.5664.91303 1.3994 1.59053 1.8648 1.96903.035.0285.068.0553.0986.0803l-.0023.0005z" fill="url(#g)"/><path d="m28.0419 13.8808c1.2397.8598 1.7017 2.5957.8886 3.8479-.8132 1.2522-2.4505 1.5948-3.7027.7816l-2.6103-1.6951v10.5298c0 1.4564-1.1806 2.637-2.6369 2.637-1.4564 0-2.637-1.1806-2.637-2.637v-4.284c-.4178.7919-1.2494 1.3318-2.207 1.3318-1.0907 0-2.0178-.7002-2.3564-1.6756-.4951.5118-1.1891.83-1.9574.83-1.14727 0-2.12886-.7095-2.5298-1.7138-.47593.4073-1.09401.6533-1.76955.6533-1.50385 0-2.72296-1.2191-2.72296-2.7229v-3.1028c0-.0347.00065-.0692.00194-.1036v-4.8591c0-1.4313.84826-3.87793 2.50981-6.02271.1657-.22022.34134-.43275.52627-.63696.0036-.00408.00719-.00816.0108-.01223-.00006-.00005.00005.00005 0 0 1.67819-1.84645 4.11759-3.00839 6.83259-3.00839 3.149 0 5.9271 1.5633 7.5769 3.9445.6033.83292.8918 1.50646 1.1784 2.17569.2197.51286.4382 1.02319.7966 1.60077.5664.91303 1.3994 1.59053 1.8648 1.96903.035.0285.068.0553.0986.0803l-.0023.0005z" fill="url(#h)"/><path d="m28.0419 13.8808c1.2397.8598 1.7017 2.5957.8886 3.8479-.8132 1.2522-2.4505 1.5948-3.7027.7816l-2.6103-1.6951v10.5298c0 1.4564-1.1806 2.637-2.6369 2.637-1.4564 0-2.637-1.1806-2.637-2.637v-4.284c-.4178.7919-1.2494 1.3318-2.207 1.3318-1.0907 0-2.0178-.7002-2.3564-1.6756-.4951.5118-1.1891.83-1.9574.83-1.14727 0-2.12886-.7095-2.5298-1.7138-.47593.4073-1.09401.6533-1.76955.6533-1.50385 0-2.72296-1.2191-2.72296-2.7229v-3.1028c0-.0347.00065-.0692.00194-.1036v-4.8591c0-1.4313.84826-3.87793 2.50981-6.02271.1657-.22022.34134-.43275.52627-.63696.0036-.00408.00719-.00816.0108-.01223-.00006-.00005.00005.00005 0 0 1.67819-1.84645 4.11759-3.00839 6.83259-3.00839 3.149 0 5.9271 1.5633 7.5769 3.9445.6033.83292.8918 1.50646 1.1784 2.17569.2197.51286.4382 1.02319.7966 1.60077.5664.91303 1.3994 1.59053 1.8648 1.96903.035.0285.068.0553.0986.0803l-.0023.0005z" fill="url(#i)"/><path d="m28.0419 13.8808c1.2397.8598 1.7017 2.5957.8886 3.8479-.8132 1.2522-2.4505 1.5948-3.7027.7816l-2.6103-1.6951v10.5298c0 1.4564-1.1806 2.637-2.6369 2.637-1.4564 0-2.637-1.1806-2.637-2.637v-4.284c-.4178.7919-1.2494 1.3318-2.207 1.3318-1.0907 0-2.0178-.7002-2.3564-1.6756-.4951.5118-1.1891.83-1.9574.83-1.14727 0-2.12886-.7095-2.5298-1.7138-.47593.4073-1.09401.6533-1.76955.6533-1.50385 0-2.72296-1.2191-2.72296-2.7229v-3.1028c0-.0347.00065-.0692.00194-.1036v-4.8591c0-1.4313.84826-3.87793 2.50981-6.02271.1657-.22022.34134-.43275.52627-.63696.0036-.00408.00719-.00816.0108-.01223-.00006-.00005.00005.00005 0 0 1.67819-1.84645 4.11759-3.00839 6.83259-3.00839 3.149 0 5.9271 1.5633 7.5769 3.9445.6033.83292.8918 1.50646 1.1784 2.17569.2197.51286.4382 1.02319.7966 1.60077.5664.91303 1.3994 1.59053 1.8648 1.96903.035.0285.068.0553.0986.0803l-.0023.0005z" fill="url(#k)"/><path d="m28.0419 13.8808c1.2397.8598 1.7017 2.5957.8886 3.8479-.8132 1.2522-2.4505 1.5948-3.7027.7816l-2.6103-1.6951v10.5298c0 1.4564-1.1806 2.637-2.6369 2.637-1.4564 0-2.637-1.1806-2.637-2.637v-4.284c-.4178.7919-1.2494 1.3318-2.207 1.3318-1.0907 0-2.0178-.7002-2.3564-1.6756-.4951.5118-1.1891.83-1.9574.83-1.14727 0-2.12886-.7095-2.5298-1.7138-.47593.4073-1.09401.6533-1.76955.6533-1.50385 0-2.72296-1.2191-2.72296-2.7229v-3.1028c0-.0347.00065-.0692.00194-.1036v-4.8591c0-1.4313.84826-3.87793 2.50981-6.02271.1657-.22022.34134-.43275.52627-.63696.0036-.00408.00719-.00816.0108-.01223-.00006-.00005.00005.00005 0 0 1.67819-1.84645 4.11759-3.00839 6.83259-3.00839 3.149 0 5.9271 1.5633 7.5769 3.9445.6033.83292.8918 1.50646 1.1784 2.17569.2197.51286.4382 1.02319.7966 1.60077.5664.91303 1.3994 1.59053 1.8648 1.96903.035.0285.068.0553.0986.0803l-.0023.0005z" fill="url(#l)"/><path d="m28.0419 13.8808c1.2397.8598 1.7017 2.5957.8886 3.8479-.8132 1.2522-2.4505 1.5948-3.7027.7816l-2.6103-1.6951v10.5298c0 1.4564-1.1806 2.637-2.6369 2.637-1.4564 0-2.637-1.1806-2.637-2.637v-4.284c-.4178.7919-1.2494 1.3318-2.207 1.3318-1.0907 0-2.0178-.7002-2.3564-1.6756-.4951.5118-1.1891.83-1.9574.83-1.14727 0-2.12886-.7095-2.5298-1.7138-.47593.4073-1.09401.6533-1.76955.6533-1.50385 0-2.72296-1.2191-2.72296-2.7229v-3.1028c0-.0347.00065-.0692.00194-.1036v-4.8591c0-1.4313.84826-3.87793 2.50981-6.02271.1657-.22022.34134-.43275.52627-.63696.0036-.00408.00719-.00816.0108-.01223-.00006-.00005.00005.00005 0 0 1.67819-1.84645 4.11759-3.00839 6.83259-3.00839 3.149 0 5.9271 1.5633 7.5769 3.9445.6033.83292.8918 1.50646 1.1784 2.17569.2197.51286.4382 1.02319.7966 1.60077.5664.91303 1.3994 1.59053 1.8648 1.96903.035.0285.068.0553.0986.0803l-.0023.0005z" fill="url(#m)"/></g><path d="m17.3436 19.4904v7.8546c0 1.4564 1.1806 2.637 2.6369 2.637 1.4564 0 2.637-1.1806 2.637-2.637v-7.8546z" fill="url(#n)"/><path d="m17.3436 19.4904v7.8546c0 1.4564 1.1806 2.637 2.6369 2.637 1.4564 0 2.637-1.1806 2.637-2.637v-7.8546z" fill="url(#o)"/><g filter="url(#b)"><rect fill="url(#p)" height="12.258" rx=".735" width="1.47" x="20.279" y="16"/></g><g filter="url(#c)"><rect fill="url(#q)" height="6.633" rx=".914" transform="matrix(.6270852 -.77895067 .77895067 .6270852 -1.76161 22.211719)" width="1.828" x="22.317" y="12.946"/></g><g filter="url(#d)"><rect fill="#553c41" height="3.164" rx=".894" width="1.788" x="6.149" y="17.968"/></g><g filter="url(#e)"><rect fill="#553c41" height="3.164" rx=".894" width="1.788" x="10.791" y="18.965"/></g><g filter="url(#f)"><rect fill="#553c41" height="3.164" rx=".894" width="1.788" x="15.106" y="19.91"/></g></svg>