<svg fill="none" height="32" viewBox="0 0 32 32" width="32" xmlns="http://www.w3.org/2000/svg" xmlns:xlink="http://www.w3.org/1999/xlink"><filter id="a" color-interpolation-filters="sRGB" filterUnits="userSpaceOnUse" height="12.527" width="15.705" x="9.486" y="2.817"><feFlood flood-opacity="0" result="BackgroundImageFix"/><feBlend in="SourceGraphic" in2="BackgroundImageFix" mode="normal" result="shape"/><feGaussianBlur result="effect1_foregroundBlur_20020_4649" stdDeviation=".5"/></filter><filter id="b" color-interpolation-filters="sRGB" filterUnits="userSpaceOnUse" height="17.719" width="12.531" x="7.531" y="11.517"><feFlood flood-opacity="0" result="BackgroundImageFix"/><feBlend in="SourceGraphic" in2="BackgroundImageFix" mode="normal" result="shape"/><feGaussianBlur result="effect1_foregroundBlur_20020_4649" stdDeviation=".25"/></filter><filter id="c" color-interpolation-filters="sRGB" filterUnits="userSpaceOnUse" height="7.872" width="7.872" x="8.005" y="18.392"><feFlood flood-opacity="0" result="BackgroundImageFix"/><feBlend in="SourceGraphic" in2="BackgroundImageFix" mode="normal" result="shape"/><feGaussianBlur result="effect1_foregroundBlur_20020_4649" stdDeviation=".375"/></filter><filter id="d" color-interpolation-filters="sRGB" filterUnits="userSpaceOnUse" height="6.128" width="6.128" x="8.691" y="19.078"><feFlood flood-opacity="0" result="BackgroundImageFix"/><feBlend in="SourceGraphic" in2="BackgroundImageFix" mode="normal" result="shape"/><feGaussianBlur result="effect1_foregroundBlur_20020_4649" stdDeviation=".25"/></filter><filter id="e" color-interpolation-filters="sRGB" filterUnits="userSpaceOnUse" height="27.786" width="19.085" x="6.708" y="2.075"><feFlood flood-opacity="0" result="BackgroundImageFix"/><feBlend in="SourceGraphic" in2="BackgroundImageFix" mode="normal" result="shape"/><feColorMatrix in="SourceAlpha" result="hardAlpha" type="matrix" values="0 0 0 0 0 0 0 0 0 0 0 0 0 0 0 0 0 0 127 0"/><feOffset dx=".5"/><feGaussianBlur stdDeviation="1"/><feComposite in2="hardAlpha" k2="-1" k3="1" operator="arithmetic"/><feColorMatrix type="matrix" values="0 0 0 0 0.568627 0 0 0 0 0.380392 0 0 0 0 0.392157 0 0 0 1 0"/><feBlend in2="shape" mode="normal" result="effect1_innerShadow_20020_4649"/></filter><filter id="f" color-interpolation-filters="sRGB" filterUnits="userSpaceOnUse" height="12.656" width="12.094" x="14.44" y="1.079"><feFlood flood-opacity="0" result="BackgroundImageFix"/><feBlend in="SourceGraphic" in2="BackgroundImageFix" mode="normal" result="shape"/><feGaussianBlur result="effect1_foregroundBlur_20020_4649" stdDeviation=".75"/></filter><filter id="g" color-interpolation-filters="sRGB" filterUnits="userSpaceOnUse" height="23.361" width="13.063" x="6.941" y="6.937"><feFlood flood-opacity="0" result="BackgroundImageFix"/><feBlend in="SourceGraphic" in2="BackgroundImageFix" mode="normal" result="shape"/><feGaussianBlur result="effect1_foregroundBlur_20020_4649" stdDeviation=".75"/></filter><radialGradient id="h" cx="0" cy="0" gradientTransform="matrix(-.02228862 -8.19140968 14.28594712 -.03887171 17.3385 13.7322)" gradientUnits="userSpaceOnUse" r="1"><stop offset=".415" stop-color="#814a5c" stop-opacity="0"/><stop offset=".848" stop-color="#814a5c"/></radialGradient><linearGradient id="i" gradientUnits="userSpaceOnUse" x1="12.875" x2="10.121" y1="12.579" y2="18.173"><stop offset="0" stop-color="#7e3e53"/><stop offset="1" stop-color="#7e3e53" stop-opacity="0"/></linearGradient><linearGradient id="j" gradientUnits="userSpaceOnUse" x1="13.563" x2="15.563" y1="27.517" y2="21.923"><stop offset=".218" stop-color="#956761"/><stop offset="1" stop-color="#956761" stop-opacity="0"/></linearGradient><linearGradient id="k" gradientUnits="userSpaceOnUse" x1="14.509" x2="12.212" y1="20.489" y2="24.533"><stop offset=".34" stop-color="#c39986"/><stop offset="1" stop-color="#884461"/></linearGradient><linearGradient id="l" gradientUnits="userSpaceOnUse" x1="11.755" x2="11.755" y1="19.142" y2="25.142"><stop offset="0" stop-color="#b1896f"/><stop offset="1" stop-color="#a46b71"/></linearGradient><radialGradient id="m" cx="0" cy="0" gradientTransform="matrix(-2.10815691 1.52067446 -1.73662079 -2.40752982 14.4644 20.9179)" gradientUnits="userSpaceOnUse" r="1"><stop offset="0" stop-color="#c9a28e"/><stop offset="1" stop-color="#c9a28e" stop-opacity="0"/></radialGradient><linearGradient id="n" gradientUnits="userSpaceOnUse" x1="11.563" x2="20" y1="31.517" y2="-.858"><stop offset="0" stop-color="#9e716b"/><stop offset="1" stop-color="#bc977a"/></linearGradient><radialGradient id="o" cx="0" cy="0" gradientTransform="matrix(3.87499949 -5.56249847 6.22804609 4.33863947 17.5 10.829)" gradientUnits="userSpaceOnUse" r="1"><stop offset=".585" stop-color="#8d526c"/><stop offset="1" stop-color="#8d526c" stop-opacity="0"/></radialGradient><radialGradient id="p" cx="0" cy="0" gradientTransform="matrix(.14338299 -4.62473785 6.13434249 .19018599 23.2316 15.2663)" gradientUnits="userSpaceOnUse" r="1"><stop offset=".174" stop-color="#b6897b"/><stop offset="1" stop-color="#b6897b" stop-opacity="0"/></radialGradient><radialGradient id="q" cx="0" cy="0" gradientTransform="matrix(-2.11292582 4.49854882 -4.3868918 -2.06048157 18.1129 22.8617)" gradientUnits="userSpaceOnUse" r="1"><stop offset=".242" stop-color="#b78a7d"/><stop offset="1" stop-color="#b78a7d" stop-opacity="0"/></radialGradient><radialGradient id="r" cx="0" cy="0" gradientTransform="matrix(-11.49999262 -23.68750857 17.26588765 -8.38237504 22.625 26.454)" gradientUnits="userSpaceOnUse" r="1"><stop offset=".953" stop-color="#9a7e69" stop-opacity="0"/><stop offset="1" stop-color="#9a7e69"/></radialGradient><radialGradient id="s" cx="0" cy="0" gradientTransform="matrix(-3.14000291 21.87882517 -17.08039089 -2.45134173 14.5835 7.98215)" gradientUnits="userSpaceOnUse" r="1"><stop offset=".837" stop-color="#915877" stop-opacity="0"/><stop offset="1" stop-color="#915877"/></radialGradient><radialGradient id="t" cx="0" cy="0" gradientTransform="matrix(2.09375 0 0 3.71875 10.3437 22.1415)" gradientUnits="userSpaceOnUse" r="1"><stop offset="0" stop-color="#b5877c"/><stop offset="1" stop-color="#b5877c" stop-opacity="0"/></radialGradient><linearGradient id="u" gradientUnits="userSpaceOnUse" x1="24.971" x2="17.565" y1="11.235" y2="3.423"><stop offset="0" stop-color="#c8a28b" stop-opacity="0"/><stop offset=".51" stop-color="#c8a28b"/><stop offset="1" stop-color="#c8a28b" stop-opacity="0"/></linearGradient><linearGradient id="v" gradientUnits="userSpaceOnUse" x1="8.441" x2="21.379" y1="2.017" y2="24.121"><stop offset="0" stop-color="#c59e8d" stop-opacity="0"/><stop offset=".698" stop-color="#c59e8d"/></linearGradient><path d="m6.7077 23.4306c0 3.2413 2.58142 6.1797 5.8688 6.4304 2.3689 0 4.458-1.3741 5.447-3.2195l5.7559-10.1903c.9566-1.4608 1.5129-3.2075 1.5129-5.084 0-5.13204-4.1603-9.29234-9.2923-9.29234s-9.2923 4.1603-9.2923 9.29234z" fill="#b6897b"/><g filter="url(#a)"><ellipse cx="17.338" cy="9.081" fill="url(#h)" rx="7.28" ry="4.652" transform="matrix(.89812584 .43973854 -.43973854 .89812584 5.759391 -6.699338)"/></g><g filter="url(#b)"><path d="m12.5765 28.7353c-3.28738-.2507-4.54525-2.0634-4.54525-5.3047v-11.2578l2.34375-.1563 9.1875 9.1563-2.9375 4.9687c-.989 1.8454-1.6796 2.5938-4.0485 2.5938z" fill="url(#i)"/><path d="m12.5765 28.7353c-3.28738-.2507-4.54525-2.0634-4.54525-5.3047v-11.2578l2.34375-.1563 9.1875 9.1563-2.9375 4.9687c-.989 1.8454-1.6796 2.5938-4.0485 2.5938z" fill="url(#j)"/></g><g filter="url(#c)"><circle cx="11.941" cy="22.328" fill="url(#k)" r="3.186"/></g><circle cx="11.755" cy="22.142" fill="url(#l)" r="3"/><circle cx="11.755" cy="22.142" fill="url(#m)" r="3"/><g filter="url(#d)"><circle cx="11.755" cy="22.142" fill="#b28479" r="2.564"/></g><g filter="url(#e)"><path d="m18.167 22.6958c-.8644-.4784-1.953-.1707-2.4389.6896l-.8588 1.5204-.0188.0352c-.3656.682-1.1551 1.3161-2.1346 1.3161-1.2549 0-2.4082-1.4278-2.4082-2.8265v-12.0634c0-3.14382 2.5485-5.69234 5.6923-5.69234s5.6923 2.54852 5.6923 5.69234c0 .3038-.0235.6013-.0689.8912-.147.9396.1258 1.9734.9428 2.4604.8994.5361 2.0834.2095 2.3706-.7974.2315-.8115.3555-1.6684.3555-2.5542 0-5.13204-4.1603-9.29234-9.2923-9.29234s-9.2923 4.1603-9.2923 9.29234v12.0634c0 3.2413 2.58142 6.1797 5.8688 6.4304 2.3689 0 4.458-1.3741 5.447-3.2195l.8391-1.4856c.4919-.8708.1795-1.9757-.6956-2.4601z" fill="url(#n)"/><path d="m18.167 22.6958c-.8644-.4784-1.953-.1707-2.4389.6896l-.8588 1.5204-.0188.0352c-.3656.682-1.1551 1.3161-2.1346 1.3161-1.2549 0-2.4082-1.4278-2.4082-2.8265v-12.0634c0-3.14382 2.5485-5.69234 5.6923-5.69234s5.6923 2.54852 5.6923 5.69234c0 .3038-.0235.6013-.0689.8912-.147.9396.1258 1.9734.9428 2.4604.8994.5361 2.0834.2095 2.3706-.7974.2315-.8115.3555-1.6684.3555-2.5542 0-5.13204-4.1603-9.29234-9.2923-9.29234s-9.2923 4.1603-9.2923 9.29234v12.0634c0 3.2413 2.58142 6.1797 5.8688 6.4304 2.3689 0 4.458-1.3741 5.447-3.2195l.8391-1.4856c.4919-.8708.1795-1.9757-.6956-2.4601z" fill="url(#o)"/></g><path d="m18.167 22.6958c-.8644-.4784-1.953-.1707-2.4389.6896l-.8588 1.5204-.0188.0352c-.3656.682-1.1551 1.3161-2.1346 1.3161-1.2549 0-2.4082-1.4278-2.4082-2.8265v-12.0634c0-3.14382 2.5485-5.69234 5.6923-5.69234s5.6923 2.54852 5.6923 5.69234c0 .3038-.0235.6013-.0689.8912-.147.9396.1258 1.9734.9428 2.4604.8994.5361 2.0834.2095 2.3706-.7974.2315-.8115.3555-1.6684.3555-2.5542 0-5.13204-4.1603-9.29234-9.2923-9.29234s-9.2923 4.1603-9.2923 9.29234v12.0634c0 3.2413 2.58142 6.1797 5.8688 6.4304 2.3689 0 4.458-1.3741 5.447-3.2195l.8391-1.4856c.4919-.8708.1795-1.9757-.6956-2.4601z" fill="url(#p)"/><path d="m18.167 22.6958c-.8644-.4784-1.953-.1707-2.4389.6896l-.8588 1.5204-.0188.0352c-.3656.682-1.1551 1.3161-2.1346 1.3161-1.2549 0-2.4082-1.4278-2.4082-2.8265v-12.0634c0-3.14382 2.5485-5.69234 5.6923-5.69234s5.6923 2.54852 5.6923 5.69234c0 .3038-.0235.6013-.0689.8912-.147.9396.1258 1.9734.9428 2.4604.8994.5361 2.0834.2095 2.3706-.7974.2315-.8115.3555-1.6684.3555-2.5542 0-5.13204-4.1603-9.29234-9.2923-9.29234s-9.2923 4.1603-9.2923 9.29234v12.0634c0 3.2413 2.58142 6.1797 5.8688 6.4304 2.3689 0 4.458-1.3741 5.447-3.2195l.8391-1.4856c.4919-.8708.1795-1.9757-.6956-2.4601z" fill="url(#q)"/><path d="m18.167 22.6958c-.8644-.4784-1.953-.1707-2.4389.6896l-.8588 1.5204-.0188.0352c-.3656.682-1.1551 1.3161-2.1346 1.3161-1.2549 0-2.4082-1.4278-2.4082-2.8265v-12.0634c0-3.14382 2.5485-5.69234 5.6923-5.69234s5.6923 2.54852 5.6923 5.69234c0 .3038-.0235.6013-.0689.8912-.147.9396.1258 1.9734.9428 2.4604.8994.5361 2.0834.2095 2.3706-.7974.2315-.8115.3555-1.6684.3555-2.5542 0-5.13204-4.1603-9.29234-9.2923-9.29234s-9.2923 4.1603-9.2923 9.29234v12.0634c0 3.2413 2.58142 6.1797 5.8688 6.4304 2.3689 0 4.458-1.3741 5.447-3.2195l.8391-1.4856c.4919-.8708.1795-1.9757-.6956-2.4601z" fill="url(#r)"/><path d="m18.167 22.6958c-.8644-.4784-1.953-.1707-2.4389.6896l-.8588 1.5204-.0188.0352c-.3656.682-1.1551 1.3161-2.1346 1.3161-1.2549 0-2.4082-1.4278-2.4082-2.8265v-12.0634c0-3.14382 2.5485-5.69234 5.6923-5.69234s5.6923 2.54852 5.6923 5.69234c0 .3038-.0235.6013-.0689.8912-.147.9396.1258 1.9734.9428 2.4604.8994.5361 2.0834.2095 2.3706-.7974.2315-.8115.3555-1.6684.3555-2.5542 0-5.13204-4.1603-9.29234-9.2923-9.29234s-9.2923 4.1603-9.2923 9.29234v12.0634c0 3.2413 2.58142 6.1797 5.8688 6.4304 2.3689 0 4.458-1.3741 5.447-3.2195l.8391-1.4856c.4919-.8708.1795-1.9757-.6956-2.4601z" fill="url(#s)"/><path d="m18.167 22.6958c-.8644-.4784-1.953-.1707-2.4389.6896l-.8588 1.5204-.0188.0352c-.3656.682-1.1551 1.3161-2.1346 1.3161-1.2549 0-2.4082-1.4278-2.4082-2.8265v-12.0634c0-3.14382 2.5485-5.69234 5.6923-5.69234s5.6923 2.54852 5.6923 5.69234c0 .3038-.0235.6013-.0689.8912-.147.9396.1258 1.9734.9428 2.4604.8994.5361 2.0834.2095 2.3706-.7974.2315-.8115.3555-1.6684.3555-2.5542 0-5.13204-4.1603-9.29234-9.2923-9.29234s-9.2923 4.1603-9.2923 9.29234v12.0634c0 3.2413 2.58142 6.1797 5.8688 6.4304 2.3689 0 4.458-1.3741 5.447-3.2195l.8391-1.4856c.4919-.8708.1795-1.9757-.6956-2.4601z" fill="url(#t)"/><g filter="url(#f)"><path d="m16.9398 3.57904c2.2917.375 6.9188 2.43125 7.0938 7.65626" stroke="url(#u)" stroke-linecap="round" stroke-width="2"/></g><g filter="url(#g)"><path d="m9.19061 9.18719v14.70431c.02184.8959.33333 3.4087 3.06249 4.0313 2.2972.524 3.625-.6875 4.2754-1.9063l1.2246-2.125" stroke="url(#v)" stroke-linecap="round" stroke-width="1.5"/></g></svg>