<svg fill="none" height="32" viewBox="0 0 32 32" width="32" xmlns="http://www.w3.org/2000/svg" xmlns:xlink="http://www.w3.org/1999/xlink"><filter id="a" color-interpolation-filters="sRGB" filterUnits="userSpaceOnUse" height="27.637" width="18.933" x="9.373" y="2.182"><feFlood flood-opacity="0" result="BackgroundImageFix"/><feBlend in="SourceGraphic" in2="BackgroundImageFix" mode="normal" result="shape"/><feColorMatrix in="SourceAlpha" result="hardAlpha" type="matrix" values="0 0 0 0 0 0 0 0 0 0 0 0 0 0 0 0 0 0 127 0"/><feOffset dx=".5"/><feGaussianBlur stdDeviation=".5"/><feComposite in2="hardAlpha" k2="-1" k3="1" operator="arithmetic"/><feColorMatrix type="matrix" values="0 0 0 0 0.839216 0 0 0 0 0.698039 0 0 0 0 0.572549 0 0 0 1 0"/><feBlend in2="shape" mode="normal" result="effect1_innerShadow_20020_3079"/></filter><filter id="b" color-interpolation-filters="sRGB" filterUnits="userSpaceOnUse" height="20.87" width="12.677" x="5.131" y="1.398"><feFlood flood-opacity="0" result="BackgroundImageFix"/><feBlend in="SourceGraphic" in2="BackgroundImageFix" mode="normal" result="shape"/><feGaussianBlur result="effect1_foregroundBlur_20020_3079" stdDeviation="1"/></filter><filter id="c" color-interpolation-filters="sRGB" filterUnits="userSpaceOnUse" height="5.26" width="12.088" x="12.396" y="15.224"><feFlood flood-opacity="0" result="BackgroundImageFix"/><feBlend in="SourceGraphic" in2="BackgroundImageFix" mode="normal" result="shape"/><feGaussianBlur result="effect1_foregroundBlur_20020_3079" stdDeviation=".75"/></filter><linearGradient id="d" gradientUnits="userSpaceOnUse" x1="26.78" x2="12.286" y1="8.105" y2="29.819"><stop offset="0" stop-color="#f8c499"/><stop offset="1" stop-color="#dca08e"/></linearGradient><radialGradient id="e" cx="0" cy="0" gradientTransform="matrix(-.09374703 6.84374795 -2.83765378 -.03887075 14.9035 21.8126)" gradientUnits="userSpaceOnUse" r="1"><stop offset="0" stop-color="#bd7b6c"/><stop offset="1" stop-color="#bd7b6c" stop-opacity="0"/></radialGradient><radialGradient id="f" cx="0" cy="0" gradientTransform="matrix(3.181813 -6.50566245 12.10668544 5.92118165 18.5892 16.9121)" gradientUnits="userSpaceOnUse" r="1"><stop offset="0" stop-color="#d9998e"/><stop offset="1" stop-color="#d9998e" stop-opacity="0"/></radialGradient><radialGradient id="g" cx="0" cy="0" gradientTransform="matrix(-6.09873521 3.46892974 -3.98079967 -6.99865519 24.6879 7.56698)" gradientUnits="userSpaceOnUse" r="1"><stop offset="0" stop-color="#ffd2aa"/><stop offset="1" stop-color="#ffd2aa" stop-opacity="0"/></radialGradient><radialGradient id="h" cx="0" cy="0" gradientTransform="matrix(4.64396 0 0 9.96517 20.0886 26.0837)" gradientUnits="userSpaceOnUse" r="1"><stop offset="0" stop-color="#fdc5a5"/><stop offset="1" stop-color="#fdc5a5" stop-opacity="0"/></radialGradient><radialGradient id="i" cx="0" cy="0" gradientTransform="matrix(0 20.0228 -12.9389 0 17.4796 10.2148)" gradientUnits="userSpaceOnUse" r="1"><stop offset=".902" stop-color="#ba738b" stop-opacity="0"/><stop offset="1" stop-color="#ba738b"/></radialGradient><linearGradient id="j" gradientUnits="userSpaceOnUse" x1="9.788" x2="9.788" y1="21.013" y2="30"><stop offset="0" stop-color="#c48d7b"/><stop offset="1" stop-color="#edb895"/></linearGradient><linearGradient id="k" gradientUnits="userSpaceOnUse" x1="6.543" x2="8.42" y1="25.506" y2="25.506"><stop offset="0" stop-color="#b67186"/><stop offset="1" stop-color="#b67186" stop-opacity="0"/></linearGradient><radialGradient id="l" cx="0" cy="0" gradientTransform="matrix(0 -2.58086 2.00356 0 10.4486 28.6553)" gradientUnits="userSpaceOnUse" r="1"><stop offset="0" stop-color="#f9c6aa"/><stop offset="1" stop-color="#f9c6aa" stop-opacity="0"/></radialGradient><radialGradient id="m" cx="0" cy="0" gradientTransform="matrix(-.17279793 -7.3156095 8.00203804 -.18901167 9.78774 28.3282)" gradientUnits="userSpaceOnUse" r="1"><stop offset=".808" stop-color="#dba188" stop-opacity="0"/><stop offset="1" stop-color="#dba188"/></radialGradient><radialGradient id="n" cx="0" cy="0" gradientTransform="matrix(-.931292 0 0 -4.89838 11.4086 24.9484)" gradientUnits="userSpaceOnUse" r="1"><stop offset="0" stop-color="#bc7761"/><stop offset="1" stop-color="#bc7761" stop-opacity="0"/></radialGradient><linearGradient id="o" gradientUnits="userSpaceOnUse" x1="8.538" x2="10.883" y1="8.718" y2="15.823"><stop offset="0" stop-color="#cb9779"/><stop offset="1" stop-color="#f7c59b"/></linearGradient><radialGradient id="p" cx="0" cy="0" gradientTransform="matrix(1.06838 0 0 4.40184 8.07811 12.1249)" gradientUnits="userSpaceOnUse" r="1"><stop offset="0" stop-color="#c58c65"/><stop offset="1" stop-color="#c58c65" stop-opacity="0"/></radialGradient><radialGradient id="q" cx="0" cy="0" gradientTransform="matrix(0 -2.78495 2.38236 0 10.9805 14.998)" gradientUnits="userSpaceOnUse" r="1"><stop offset="0" stop-color="#ffd2ab"/><stop offset="1" stop-color="#ffd2ab" stop-opacity="0"/></radialGradient><radialGradient id="r" cx="0" cy="0" gradientTransform="matrix(-.16814387 -7.16785811 7.78678784 -.18266275 10.0082 14.9779)" gradientUnits="userSpaceOnUse" r="1"><stop offset=".808" stop-color="#d8a385" stop-opacity="0"/><stop offset="1" stop-color="#d8a385"/></radialGradient><linearGradient id="s" gradientUnits="userSpaceOnUse" x1="7.319" x2="10.194" y1="13.105" y2="21.105"><stop offset="0" stop-color="#cb9879"/><stop offset="1" stop-color="#fac79c"/></linearGradient><radialGradient id="t" cx="0" cy="0" gradientTransform="matrix(1.125 0 0 5.04687 6.83455 17.011)" gradientUnits="userSpaceOnUse" r="1"><stop offset="0" stop-color="#d59877"/><stop offset="1" stop-color="#d59877" stop-opacity="0"/></radialGradient><radialGradient id="u" cx="0" cy="0" gradientTransform="matrix(0 -2.68226 2.10732 0 9.42939 20.227)" gradientUnits="userSpaceOnUse" r="1"><stop offset="0" stop-color="#ffd1ab"/><stop offset="1" stop-color="#ffd1ab" stop-opacity="0"/></radialGradient><radialGradient id="v" cx="0" cy="0" gradientTransform="matrix(-.17705492 -8.21822297 8.20017716 -.17666614 8.86697 20.2821)" gradientUnits="userSpaceOnUse" r="1"><stop offset=".808" stop-color="#dba486" stop-opacity="0"/><stop offset="1" stop-color="#dba486"/></radialGradient><linearGradient id="w" gradientUnits="userSpaceOnUse" x1="8.847" x2="8.847" y1="16.486" y2="25.515"><stop offset="0" stop-color="#c99479"/><stop offset="1" stop-color="#f7bf96"/></linearGradient><radialGradient id="x" cx="0" cy="0" gradientTransform="matrix(2.38035 0 0 7.9345 5.69377 20.0314)" gradientUnits="userSpaceOnUse" r="1"><stop offset="0" stop-color="#bd7b81"/><stop offset="1" stop-color="#bd7b81" stop-opacity="0"/></radialGradient><radialGradient id="y" cx="0" cy="0" gradientTransform="matrix(0 -2.6702 2.06121 0 9.3976 24.6128)" gradientUnits="userSpaceOnUse" r="1"><stop offset="0" stop-color="#ffd0ac"/><stop offset="1" stop-color="#ffd0ac" stop-opacity="0"/></radialGradient><radialGradient id="z" cx="0" cy="0" gradientTransform="matrix(-.17318735 -8.18126712 8.02085306 -.16979159 8.84748 24.6676)" gradientUnits="userSpaceOnUse" r="1"><stop offset=".808" stop-color="#dca488" stop-opacity="0"/><stop offset="1" stop-color="#dca488"/></radialGradient><g filter="url(#a)"><path d="m20.5002 26.5504c0 1.805-1.4633 3.2682-3.2682 3.2682-1.805 0-3.2682-1.4632-3.2682-3.2682v-3.761c0-.3208.0222-.6406.0718-.9603.0181-.1167.0361-.2333.0474-.3498.0357-.3682-.0079-.8491-.2581-1.172l.5976-.5765c-2.9965-1.5309-5.04988-4.6616-5.04988-8.2748 0-.9789.15072-1.92241.43007-2.80827l.99021-6.46619h8.0515v.00273c4.9722.10706 8.9614 3.34944 8.9614 9.27173 0 3.4813-1.667 6.2839-4.1888 7.8641l.0062.005c-.1718.1194-.3743.2408-.5916.3711l-.0015.0009c-.7152.4288-1.5893.9528-2.0506 1.8098-.3998.7429-.4775 1.9488-.4775 2.5078l-.0018-.0009z" fill="url(#d)"/><path d="m20.5002 26.5504c0 1.805-1.4633 3.2682-3.2682 3.2682-1.805 0-3.2682-1.4632-3.2682-3.2682v-3.761c0-.3208.0222-.6406.0718-.9603.0181-.1167.0361-.2333.0474-.3498.0357-.3682-.0079-.8491-.2581-1.172l.5976-.5765c-2.9965-1.5309-5.04988-4.6616-5.04988-8.2748 0-.9789.15072-1.92241.43007-2.80827l.99021-6.46619h8.0515v.00273c4.9722.10706 8.9614 3.34944 8.9614 9.27173 0 3.4813-1.667 6.2839-4.1888 7.8641l.0062.005c-.1718.1194-.3743.2408-.5916.3711l-.0015.0009c-.7152.4288-1.5893.9528-2.0506 1.8098-.3998.7429-.4775 1.9488-.4775 2.5078l-.0018-.0009z" fill="url(#e)"/><path d="m20.5002 26.5504c0 1.805-1.4633 3.2682-3.2682 3.2682-1.805 0-3.2682-1.4632-3.2682-3.2682v-3.761c0-.3208.0222-.6406.0718-.9603.0181-.1167.0361-.2333.0474-.3498.0357-.3682-.0079-.8491-.2581-1.172l.5976-.5765c-2.9965-1.5309-5.04988-4.6616-5.04988-8.2748 0-.9789.15072-1.92241.43007-2.80827l.99021-6.46619h8.0515v.00273c4.9722.10706 8.9614 3.34944 8.9614 9.27173 0 3.4813-1.667 6.2839-4.1888 7.8641l.0062.005c-.1718.1194-.3743.2408-.5916.3711l-.0015.0009c-.7152.4288-1.5893.9528-2.0506 1.8098-.3998.7429-.4775 1.9488-.4775 2.5078l-.0018-.0009z" fill="url(#f)"/></g><path d="m20.5002 26.5504c0 1.805-1.4633 3.2682-3.2682 3.2682-1.805 0-3.2682-1.4632-3.2682-3.2682v-3.761c0-.3208.0222-.6406.0718-.9603.0181-.1167.0361-.2333.0474-.3498.0357-.3682-.0079-.8491-.2581-1.172l.5976-.5765c-2.9965-1.5309-5.04988-4.6616-5.04988-8.2748 0-.9789.15072-1.92241.43007-2.80827l.99021-6.46619h8.0515v.00273c4.9722.10706 8.9614 3.34944 8.9614 9.27173 0 3.4813-1.667 6.2839-4.1888 7.8641l.0062.005c-.1718.1194-.3743.2408-.5916.3711l-.0015.0009c-.7152.4288-1.5893.9528-2.0506 1.8098-.3998.7429-.4775 1.9488-.4775 2.5078l-.0018-.0009z" fill="url(#g)"/><path d="m20.5002 26.5504c0 1.805-1.4633 3.2682-3.2682 3.2682-1.805 0-3.2682-1.4632-3.2682-3.2682v-3.761c0-.3208.0222-.6406.0718-.9603.0181-.1167.0361-.2333.0474-.3498.0357-.3682-.0079-.8491-.2581-1.172l.5976-.5765c-2.9965-1.5309-5.04988-4.6616-5.04988-8.2748 0-.9789.15072-1.92241.43007-2.80827l.99021-6.46619h8.0515v.00273c4.9722.10706 8.9614 3.34944 8.9614 9.27173 0 3.4813-1.667 6.2839-4.1888 7.8641l.0062.005c-.1718.1194-.3743.2408-.5916.3711l-.0015.0009c-.7152.4288-1.5893.9528-2.0506 1.8098-.3998.7429-.4775 1.9488-.4775 2.5078l-.0018-.0009z" fill="url(#h)"/><path d="m20.5002 26.5504c0 1.805-1.4633 3.2682-3.2682 3.2682-1.805 0-3.2682-1.4632-3.2682-3.2682v-3.761c0-.3208.0222-.6406.0718-.9603.0181-.1167.0361-.2333.0474-.3498.0357-.3682-.0079-.8491-.2581-1.172l.5976-.5765c-2.9965-1.5309-5.04988-4.6616-5.04988-8.2748 0-.9789.15072-1.92241.43007-2.80827l.99021-6.46619h8.0515v.00273c4.9722.10706 8.9614 3.34944 8.9614 9.27173 0 3.4813-1.667 6.2839-4.1888 7.8641l.0062.005c-.1718.1194-.3743.2408-.5916.3711l-.0015.0009c-.7152.4288-1.5893.9528-2.0506 1.8098-.3998.7429-.4775 1.9488-.4775 2.5078l-.0018-.0009z" fill="url(#i)"/><g filter="url(#b)"><path d="m8.23956 5.91874c0 .46848.12258.90712.33614 1.28296-.85496.42822-1.44517 1.33938-1.44517 2.39423 0 .82027.35687 1.55357.9176 2.04057-.53756.4763-.87861 1.1863-.87861 1.9793 0 1.0392.58565 1.9359 1.43169 2.3509-.38473.4562-.61802 1.0546-.61802 1.7097 0 1.4309 1.11282 2.5909 2.48551 2.5909h2.7531c1.3727 0 2.4855-1.16 2.4856-2.5909 0-.7981-.3463-1.512-.8908-1.9873.602-.474.9911-1.2263.9911-2.0733 0-.8025-.3493-1.5201-.8981-1.9964.5495-.4869.8981-1.2128.8981-2.02347 0-.72764-.2808-1.38691-.7357-1.86646.4537-.45827.7357-1.10017.7357-1.81073 0-1.39239-1.0828-2.52116-2.4186-2.52116h-2.7309c-1.33576 0-2.41864 1.12876-2.41864 2.52116z" fill="#c28769"/></g><g filter="url(#c)"><path d="m22.9841 18.9835c-3.6433-2.2406-7.2997-.6673-8.2471 0l-.8408-1.081c5.3807-2.5622 8.2472-.3603 9.0879 1.081z" fill="#c9867f"/></g><rect fill="url(#j)" height="8.988" rx="2.892" transform="matrix(0 -1 1 0 -14.11695 27.90825)" width="5.784" x="6.896" y="21.013"/><rect fill="url(#k)" height="8.988" rx="2.892" transform="matrix(0 -1 1 0 -14.11695 27.90825)" width="5.784" x="6.896" y="21.013"/><rect fill="url(#l)" height="8.988" rx="2.892" transform="matrix(0 -1 1 0 -14.11695 27.90825)" width="5.784" x="6.896" y="21.013"/><rect fill="url(#m)" height="8.988" rx="2.892" transform="matrix(0 -1 1 0 -14.11695 27.90825)" width="5.784" x="6.896" y="21.013"/><rect fill="url(#n)" height="8.988" rx="2.892" transform="matrix(0 -1 1 0 -14.11695 27.90825)" width="5.784" x="6.896" y="21.013"/><rect fill="url(#o)" height="8.806" rx="2.814" transform="matrix(0 -1 1 0 -.61611 15.00401)" width="5.629" x="7.194" y="7.81"/><rect fill="url(#p)" height="8.806" rx="2.814" transform="matrix(0 -1 1 0 -.61611 15.00401)" width="5.629" x="7.194" y="7.81"/><rect fill="url(#q)" height="8.806" rx="2.814" transform="matrix(0 -1 1 0 -.61611 15.00401)" width="5.629" x="7.194" y="7.81"/><rect fill="url(#r)" height="8.806" rx="2.814" transform="matrix(0 -1 1 0 -.61611 15.00401)" width="5.629" x="7.194" y="7.81"/><rect fill="url(#s)" height="10.097" rx="2.91" transform="matrix(0 -1 1 0 -6.16027 17.96733)" width="5.927" x="5.904" y="12.064"/><rect fill="url(#t)" height="10.097" rx="2.91" transform="matrix(0 -1 1 0 -6.16027 17.96733)" width="5.927" x="5.904" y="12.064"/><rect fill="url(#u)" height="10.097" rx="2.91" transform="matrix(0 -1 1 0 -6.16027 17.96733)" width="5.927" x="5.904" y="12.064"/><rect fill="url(#v)" height="10.097" rx="2.91" transform="matrix(0 -1 1 0 -6.16027 17.96733)" width="5.927" x="5.904" y="12.064"/><rect fill="url(#w)" height="10.051" rx="2.899" transform="matrix(0 -1 1 0 -10.5374 22.4352)" width="5.797" x="5.949" y="16.486"/><rect fill="url(#x)" height="10.051" rx="2.899" transform="matrix(0 -1 1 0 -10.5374 22.4352)" width="5.797" x="5.949" y="16.486"/><rect fill="url(#y)" height="10.051" rx="2.899" transform="matrix(0 -1 1 0 -10.5374 22.4352)" width="5.797" x="5.949" y="16.486"/><rect fill="url(#z)" height="10.051" rx="2.899" transform="matrix(0 -1 1 0 -10.5374 22.4352)" width="5.797" x="5.949" y="16.486"/></svg>