<svg fill="none" height="32" viewBox="0 0 32 32" width="32" xmlns="http://www.w3.org/2000/svg" xmlns:xlink="http://www.w3.org/1999/xlink"><filter id="a" color-interpolation-filters="sRGB" filterUnits="userSpaceOnUse" height="26.287" width="27.964" x="2.018" y="2.482"><feFlood flood-opacity="0" result="BackgroundImageFix"/><feBlend in="SourceGraphic" in2="BackgroundImageFix" mode="normal" result="shape"/><feColorMatrix in="SourceAlpha" result="hardAlpha" type="matrix" values="0 0 0 0 0 0 0 0 0 0 0 0 0 0 0 0 0 0 127 0"/><feOffset dy="-.75"/><feGaussianBlur stdDeviation="1"/><feComposite in2="hardAlpha" k2="-1" k3="1" operator="arithmetic"/><feColorMatrix type="matrix" values="0 0 0 0 0.239216 0 0 0 0 0.129412 0 0 0 0 0.207843 0 0 0 1 0"/><feBlend in2="shape" mode="normal" result="effect1_innerShadow_20020_2721"/></filter><filter id="b" color-interpolation-filters="sRGB" filterUnits="userSpaceOnUse" height="5.12" width="16.315" x="2.462" y="9.296"><feFlood flood-opacity="0" result="BackgroundImageFix"/><feBlend in="SourceGraphic" in2="BackgroundImageFix" mode="normal" result="shape"/><feGaussianBlur result="effect1_foregroundBlur_20020_2721" stdDeviation=".75"/></filter><filter id="c" color-interpolation-filters="sRGB" filterUnits="userSpaceOnUse" height="10.641" width="9.457" x="13.272" y="3.009"><feFlood flood-opacity="0" result="BackgroundImageFix"/><feBlend in="SourceGraphic" in2="BackgroundImageFix" mode="normal" result="shape"/><feGaussianBlur result="effect1_foregroundBlur_20020_2721" stdDeviation=".75"/></filter><filter id="d" color-interpolation-filters="sRGB" filterUnits="userSpaceOnUse" height="4.65" width="6.885" x="7.93" y="14.225"><feFlood flood-opacity="0" result="BackgroundImageFix"/><feBlend in="SourceGraphic" in2="BackgroundImageFix" mode="normal" result="shape"/><feGaussianBlur result="effect1_foregroundBlur_20020_2721" stdDeviation=".5"/></filter><filter id="e" color-interpolation-filters="sRGB" filterUnits="userSpaceOnUse" height="4.65" width="6.885" x="8.45" y="18.785"><feFlood flood-opacity="0" result="BackgroundImageFix"/><feBlend in="SourceGraphic" in2="BackgroundImageFix" mode="normal" result="shape"/><feGaussianBlur result="effect1_foregroundBlur_20020_2721" stdDeviation=".5"/></filter><filter id="f" color-interpolation-filters="sRGB" filterUnits="userSpaceOnUse" height="4.211" width="5.715" x="9.62" y="22.944"><feFlood flood-opacity="0" result="BackgroundImageFix"/><feBlend in="SourceGraphic" in2="BackgroundImageFix" mode="normal" result="shape"/><feGaussianBlur result="effect1_foregroundBlur_20020_2721" stdDeviation=".5"/></filter><radialGradient id="g" cx="0" cy="0" gradientTransform="matrix(-12.16158886 12.46548958 -18.52319084 -18.07160722 25.9427 15.5546)" gradientUnits="userSpaceOnUse" r="1"><stop offset="0" stop-color="#5c4746"/><stop offset=".841" stop-color="#4c3137"/><stop offset="1" stop-color="#4a2f36"/></radialGradient><linearGradient id="h"><stop offset="0" stop-color="#382532"/><stop offset=".763" stop-color="#382532" stop-opacity="0"/></linearGradient><radialGradient id="i" cx="0" cy="0" gradientTransform="matrix(6.51954 0 0 1.95986 7.3752 19.2356)" gradientUnits="userSpaceOnUse" r="1" xlink:href="#h"/><radialGradient id="j" cx="0" cy="0" gradientTransform="matrix(7.0795 0 0 1.51989 8.6951 24.3153)" gradientUnits="userSpaceOnUse" r="1" xlink:href="#h"/><linearGradient id="k"><stop offset="0" stop-color="#200e0e"/><stop offset="1" stop-color="#200e0e" stop-opacity="0"/></linearGradient><radialGradient id="l" cx="0" cy="0" gradientTransform="matrix(2.65139913 -.02424685 .00282215 .3086031 9.27048 19.7899)" gradientUnits="userSpaceOnUse" r="1" xlink:href="#k"/><radialGradient id="m" cx="0" cy="0" gradientTransform="matrix(2.375 0 0 .203126 10.1689 24.2587)" gradientUnits="userSpaceOnUse" r="1" xlink:href="#k"/><radialGradient id="n" cx="0" cy="0" gradientTransform="matrix(-5.71579785 3.17614772 -4.64669064 -8.36218801 29.5795 12.8239)" gradientUnits="userSpaceOnUse" r="1"><stop offset="0" stop-color="#675250"/><stop offset="1" stop-color="#675250" stop-opacity="0"/></radialGradient><linearGradient id="o" gradientUnits="userSpaceOnUse" x1="7.46" x2="7.46" y1="16.163" y2="13.7"><stop offset="0" stop-color="#3b212d"/><stop offset="1" stop-color="#3b212d" stop-opacity="0"/></linearGradient><linearGradient id="p" gradientUnits="userSpaceOnUse" x1="15.937" x2="6.855" y1="15.225" y2="15.225"><stop offset="0" stop-color="#533d3d"/><stop offset="1" stop-color="#533d3d" stop-opacity="0"/></linearGradient><linearGradient id="q" gradientUnits="userSpaceOnUse" x1="20.153" x2="17.653" y1="6.134" y2="8.509"><stop offset="0" stop-color="#604946"/><stop offset="1" stop-color="#604946" stop-opacity="0"/></linearGradient><linearGradient id="r" gradientUnits="userSpaceOnUse" x1="22.184" x2="21.059" y1="10.446" y2="8.884"><stop offset=".547" stop-color="#583f3b"/><stop offset="1" stop-color="#583f3b" stop-opacity="0"/></linearGradient><linearGradient id="s" gradientUnits="userSpaceOnUse" x1="13.872" x2="16.028" y1="9.102" y2="7.759"><stop offset="0" stop-color="#3f2e2b"/><stop offset="1" stop-color="#3f2e2b" stop-opacity="0"/></linearGradient><linearGradient id="t" gradientUnits="userSpaceOnUse" x1="7.761" x2="19.953" y1="13.154" y2="13.154"><stop offset="0" stop-color="#57403f"/><stop offset="1" stop-color="#57403f" stop-opacity="0"/></linearGradient><linearGradient id="u" gradientUnits="userSpaceOnUse" x1="20.572" x2="20.801" y1="4.084" y2="6.729"><stop offset="0" stop-color="#5e4744"/><stop offset="1" stop-color="#5e4744" stop-opacity="0"/></linearGradient><linearGradient id="v"><stop offset="0" stop-color="#553d3b"/><stop offset="1" stop-color="#553d3b" stop-opacity="0"/></linearGradient><linearGradient id="w" gradientUnits="userSpaceOnUse" x1="9.435" x2="13.478" xlink:href="#v" y1="16.762" y2="16.762"/><linearGradient id="x" gradientUnits="userSpaceOnUse" x1="9.955" x2="13.998" xlink:href="#v" y1="21.322" y2="21.322"/><linearGradient id="y" gradientUnits="userSpaceOnUse" x1="11.004" x2="14.078" xlink:href="#v" y1="25.226" y2="25.226"/><radialGradient id="z" cx="0" cy="0" gradientTransform="matrix(-3.27975762 1.21992641 -.27628852 -.74279838 10.215 14.9158)" gradientUnits="userSpaceOnUse" r="1"><stop offset="0" stop-color="#1b0d0c"/><stop offset="1" stop-color="#1b0d0c" stop-opacity="0"/></radialGradient><g filter="url(#a)"><path d="m18.1192 4.52697c-.8598-1.23966-2.5957-1.70169-3.8479-.88853s-1.5948 2.45051-.7816 3.70267l1.6951 2.61028h-10.52983c-1.45635 0-2.63696 1.18061-2.63696 2.63701 0 1.4563 1.18061 2.6369 2.63696 2.6369h4.28407c-.79198.4178-1.33183 1.2494-1.33183 2.2071 0 1.0906.70018 2.0177 1.67556 2.3563-.51181.4951-.83001 1.1891-.83001 1.9574 0 1.1473.70958 2.1289 1.71384 2.5298-.40732.4759-.65332 1.094-.65332 1.7696 0 1.5038 1.21912 2.7229 2.72292 2.7229h3.1028c.0347 0 .0692-.0006.1036-.0019h4.8591c1.4313 0 3.8779-.8483 6.0227-2.5098.2202-.1657.4328-.3414.637-.5263.004-.0036.0081-.0072.0122-.0108.0001.0001 0-.0001 0 0 1.8464-1.6782 3.0084-4.1176 3.0084-6.8326 0-3.149-1.5633-5.9271-3.9445-7.5769-.8329-.6033-1.5065-.8918-2.1757-1.1784-.5129-.21965-1.0232-.43821-1.6008-.79656-.913-.56647-1.5905-1.39945-1.969-1.86487-.0285-.03501-.0553-.06794-.0803-.09852l-.0005.00226z" fill="url(#g)"/><path d="m18.1192 4.52697c-.8598-1.23966-2.5957-1.70169-3.8479-.88853s-1.5948 2.45051-.7816 3.70267l1.6951 2.61028h-10.52983c-1.45635 0-2.63696 1.18061-2.63696 2.63701 0 1.4563 1.18061 2.6369 2.63696 2.6369h4.28407c-.79198.4178-1.33183 1.2494-1.33183 2.2071 0 1.0906.70018 2.0177 1.67556 2.3563-.51181.4951-.83001 1.1891-.83001 1.9574 0 1.1473.70958 2.1289 1.71384 2.5298-.40732.4759-.65332 1.094-.65332 1.7696 0 1.5038 1.21912 2.7229 2.72292 2.7229h3.1028c.0347 0 .0692-.0006.1036-.0019h4.8591c1.4313 0 3.8779-.8483 6.0227-2.5098.2202-.1657.4328-.3414.637-.5263.004-.0036.0081-.0072.0122-.0108.0001.0001 0-.0001 0 0 1.8464-1.6782 3.0084-4.1176 3.0084-6.8326 0-3.149-1.5633-5.9271-3.9445-7.5769-.8329-.6033-1.5065-.8918-2.1757-1.1784-.5129-.21965-1.0232-.43821-1.6008-.79656-.913-.56647-1.5905-1.39945-1.969-1.86487-.0285-.03501-.0553-.06794-.0803-.09852l-.0005.00226z" fill="url(#i)"/><path d="m18.1192 4.52697c-.8598-1.23966-2.5957-1.70169-3.8479-.88853s-1.5948 2.45051-.7816 3.70267l1.6951 2.61028h-10.52983c-1.45635 0-2.63696 1.18061-2.63696 2.63701 0 1.4563 1.18061 2.6369 2.63696 2.6369h4.28407c-.79198.4178-1.33183 1.2494-1.33183 2.2071 0 1.0906.70018 2.0177 1.67556 2.3563-.51181.4951-.83001 1.1891-.83001 1.9574 0 1.1473.70958 2.1289 1.71384 2.5298-.40732.4759-.65332 1.094-.65332 1.7696 0 1.5038 1.21912 2.7229 2.72292 2.7229h3.1028c.0347 0 .0692-.0006.1036-.0019h4.8591c1.4313 0 3.8779-.8483 6.0227-2.5098.2202-.1657.4328-.3414.637-.5263.004-.0036.0081-.0072.0122-.0108.0001.0001 0-.0001 0 0 1.8464-1.6782 3.0084-4.1176 3.0084-6.8326 0-3.149-1.5633-5.9271-3.9445-7.5769-.8329-.6033-1.5065-.8918-2.1757-1.1784-.5129-.21965-1.0232-.43821-1.6008-.79656-.913-.56647-1.5905-1.39945-1.969-1.86487-.0285-.03501-.0553-.06794-.0803-.09852l-.0005.00226z" fill="url(#j)"/><path d="m18.1192 4.52697c-.8598-1.23966-2.5957-1.70169-3.8479-.88853s-1.5948 2.45051-.7816 3.70267l1.6951 2.61028h-10.52983c-1.45635 0-2.63696 1.18061-2.63696 2.63701 0 1.4563 1.18061 2.6369 2.63696 2.6369h4.28407c-.79198.4178-1.33183 1.2494-1.33183 2.2071 0 1.0906.70018 2.0177 1.67556 2.3563-.51181.4951-.83001 1.1891-.83001 1.9574 0 1.1473.70958 2.1289 1.71384 2.5298-.40732.4759-.65332 1.094-.65332 1.7696 0 1.5038 1.21912 2.7229 2.72292 2.7229h3.1028c.0347 0 .0692-.0006.1036-.0019h4.8591c1.4313 0 3.8779-.8483 6.0227-2.5098.2202-.1657.4328-.3414.637-.5263.004-.0036.0081-.0072.0122-.0108.0001.0001 0-.0001 0 0 1.8464-1.6782 3.0084-4.1176 3.0084-6.8326 0-3.149-1.5633-5.9271-3.9445-7.5769-.8329-.6033-1.5065-.8918-2.1757-1.1784-.5129-.21965-1.0232-.43821-1.6008-.79656-.913-.56647-1.5905-1.39945-1.969-1.86487-.0285-.03501-.0553-.06794-.0803-.09852l-.0005.00226z" fill="url(#l)"/><path d="m18.1192 4.52697c-.8598-1.23966-2.5957-1.70169-3.8479-.88853s-1.5948 2.45051-.7816 3.70267l1.6951 2.61028h-10.52983c-1.45635 0-2.63696 1.18061-2.63696 2.63701 0 1.4563 1.18061 2.6369 2.63696 2.6369h4.28407c-.79198.4178-1.33183 1.2494-1.33183 2.2071 0 1.0906.70018 2.0177 1.67556 2.3563-.51181.4951-.83001 1.1891-.83001 1.9574 0 1.1473.70958 2.1289 1.71384 2.5298-.40732.4759-.65332 1.094-.65332 1.7696 0 1.5038 1.21912 2.7229 2.72292 2.7229h3.1028c.0347 0 .0692-.0006.1036-.0019h4.8591c1.4313 0 3.8779-.8483 6.0227-2.5098.2202-.1657.4328-.3414.637-.5263.004-.0036.0081-.0072.0122-.0108.0001.0001 0-.0001 0 0 1.8464-1.6782 3.0084-4.1176 3.0084-6.8326 0-3.149-1.5633-5.9271-3.9445-7.5769-.8329-.6033-1.5065-.8918-2.1757-1.1784-.5129-.21965-1.0232-.43821-1.6008-.79656-.913-.56647-1.5905-1.39945-1.969-1.86487-.0285-.03501-.0553-.06794-.0803-.09852l-.0005.00226z" fill="url(#m)"/></g><path d="m18.1192 4.52697c-.8598-1.23966-2.5957-1.70169-3.8479-.88853s-1.5948 2.45051-.7816 3.70267l1.6951 2.61028h-10.52983c-1.45635 0-2.63696 1.18061-2.63696 2.63701 0 1.4563 1.18061 2.6369 2.63696 2.6369h4.28407c-.79198.4178-1.33183 1.2494-1.33183 2.2071 0 1.0906.70018 2.0177 1.67556 2.3563-.51181.4951-.83001 1.1891-.83001 1.9574 0 1.1473.70958 2.1289 1.71384 2.5298-.40732.4759-.65332 1.094-.65332 1.7696 0 1.5038 1.21912 2.7229 2.72292 2.7229h3.1028c.0347 0 .0692-.0006.1036-.0019h4.8591c1.4313 0 3.8779-.8483 6.0227-2.5098.2202-.1657.4328-.3414.637-.5263.004-.0036.0081-.0072.0122-.0108.0001.0001 0-.0001 0 0 1.8464-1.6782 3.0084-4.1176 3.0084-6.8326 0-3.149-1.5633-5.9271-3.9445-7.5769-.8329-.6033-1.5065-.8918-2.1757-1.1784-.5129-.21965-1.0232-.43821-1.6008-.79656-.913-.56647-1.5905-1.39945-1.969-1.86487-.0285-.03501-.0553-.06794-.0803-.09852l-.0005.00226z" fill="url(#n)"/><rect fill="url(#o)" height="5.274" rx="2.637" width="14.864" x="2.018" y="9.951"/><rect fill="url(#p)" height="5.274" rx="2.637" width="14.864" x="2.018" y="9.951"/><path d="m14.2713 3.63844c1.2522-.81315 2.988-.35113 3.8479.88852l2.092 2.84705.0004-.00226c.0241.0294.0498.06097.0771.09448l.0033.00404c.3785.46541 1.056 1.2984 1.969 1.86487.4218.26168.8077.44879 1.1849.61624h-8.2611l-1.6951-2.61027c-.8132-1.25217-.4706-2.88951.7816-3.70267z" fill="url(#q)"/><path d="m14.2713 3.63844c1.2522-.81315 2.988-.35113 3.8479.88852l2.092 2.84705.0004-.00226c.0241.0294.0498.06097.0771.09448l.0033.00404c.3785.46541 1.056 1.2984 1.969 1.86487.4218.26168.8077.44879 1.1849.61624h-8.2611l-1.6951-2.61027c-.8132-1.25217-.4706-2.88951.7816-3.70267z" fill="url(#r)"/><path d="m14.2713 3.63844c1.2522-.81315 2.988-.35113 3.8479.88852l2.092 2.84705.0004-.00226c.0241.0294.0498.06097.0771.09448l.0033.00404c.3785.46541 1.056 1.2984 1.969 1.86487.4218.26168.8077.44879 1.1849.61624h-8.2611l-1.6951-2.61027c-.8132-1.25217-.4706-2.88951.7816-3.70267z" fill="url(#s)"/><g filter="url(#b)"><rect fill="url(#t)" height="2.12" rx="1.06" width="13.315" x="3.962" y="10.796"/></g><g filter="url(#c)"><rect fill="url(#u)" height="2.167" rx="1.083" transform="matrix(.6168367 .78709115 -.78709115 .6168367 9.350934 -11.064818)" width="9.122" x="16.04" y="4.072"/></g><g filter="url(#d)"><rect fill="url(#w)" height="2.65" rx="1.325" width="4.885" x="8.93" y="15.225"/></g><g filter="url(#e)"><rect fill="url(#x)" height="2.65" rx="1.325" width="4.885" x="9.45" y="19.785"/></g><g filter="url(#f)"><rect fill="url(#y)" height="2.211" rx="1.105" width="3.715" x="10.62" y="23.944"/></g><path d="m7.61249 17.5956h6.42221v-2.3704h-5.09567c-.79197.4178-1.33182 1.2494-1.33182 2.2071 0 .0549.0018.1093.00528.1633z" fill="url(#z)"/></svg>