<svg fill="none" height="32" viewBox="0 0 32 32" width="32" xmlns="http://www.w3.org/2000/svg" xmlns:xlink="http://www.w3.org/1999/xlink"><filter id="a" color-interpolation-filters="sRGB" filterUnits="userSpaceOnUse" height="26.287" width="27.964" x="2.018" y="2.482"><feFlood flood-opacity="0" result="BackgroundImageFix"/><feBlend in="SourceGraphic" in2="BackgroundImageFix" mode="normal" result="shape"/><feColorMatrix in="SourceAlpha" result="hardAlpha" type="matrix" values="0 0 0 0 0 0 0 0 0 0 0 0 0 0 0 0 0 0 127 0"/><feOffset dy="-.75"/><feGaussianBlur stdDeviation="1"/><feComposite in2="hardAlpha" k2="-1" k3="1" operator="arithmetic"/><feColorMatrix type="matrix" values="0 0 0 0 0.807843 0 0 0 0 0.568627 0 0 0 0 0.443137 0 0 0 1 0"/><feBlend in2="shape" mode="normal" result="effect1_innerShadow_20020_2853"/></filter><filter id="b" color-interpolation-filters="sRGB" filterUnits="userSpaceOnUse" height="5.12" width="16.315" x="13.222" y="9.296"><feFlood flood-opacity="0" result="BackgroundImageFix"/><feBlend in="SourceGraphic" in2="BackgroundImageFix" mode="normal" result="shape"/><feGaussianBlur result="effect1_foregroundBlur_20020_2853" stdDeviation=".75"/></filter><filter id="c" color-interpolation-filters="sRGB" filterUnits="userSpaceOnUse" height="10.641" width="9.457" x="9.271" y="3.009"><feFlood flood-opacity="0" result="BackgroundImageFix"/><feBlend in="SourceGraphic" in2="BackgroundImageFix" mode="normal" result="shape"/><feGaussianBlur result="effect1_foregroundBlur_20020_2853" stdDeviation=".75"/></filter><filter id="d" color-interpolation-filters="sRGB" filterUnits="userSpaceOnUse" height="4.65" width="6.885" x="17.185" y="14.225"><feFlood flood-opacity="0" result="BackgroundImageFix"/><feBlend in="SourceGraphic" in2="BackgroundImageFix" mode="normal" result="shape"/><feGaussianBlur result="effect1_foregroundBlur_20020_2853" stdDeviation=".5"/></filter><filter id="e" color-interpolation-filters="sRGB" filterUnits="userSpaceOnUse" height="4.65" width="6.885" x="16.665" y="18.785"><feFlood flood-opacity="0" result="BackgroundImageFix"/><feBlend in="SourceGraphic" in2="BackgroundImageFix" mode="normal" result="shape"/><feGaussianBlur result="effect1_foregroundBlur_20020_2853" stdDeviation=".5"/></filter><filter id="f" color-interpolation-filters="sRGB" filterUnits="userSpaceOnUse" height="4.211" width="5.715" x="16.665" y="22.944"><feFlood flood-opacity="0" result="BackgroundImageFix"/><feBlend in="SourceGraphic" in2="BackgroundImageFix" mode="normal" result="shape"/><feGaussianBlur result="effect1_foregroundBlur_20020_2853" stdDeviation=".5"/></filter><radialGradient id="g" cx="0" cy="0" gradientTransform="matrix(12.16152359 12.46555325 -18.52328546 18.07151024 6.05733 15.5546)" gradientUnits="userSpaceOnUse" r="1"><stop offset="0" stop-color="#fcc6a6"/><stop offset="1" stop-color="#d79c8f"/></radialGradient><radialGradient id="h" cx="0" cy="0" gradientTransform="matrix(-6.51954 0 0 -1.95986 24.6248 19.2356)" gradientUnits="userSpaceOnUse" r="1"><stop offset="0" stop-color="#c17f77"/><stop offset=".763" stop-color="#c17f77" stop-opacity="0"/></radialGradient><radialGradient id="i" cx="0" cy="0" gradientTransform="matrix(-6.40568 0 0 -1.97994 22.7409 23.6049)" gradientUnits="userSpaceOnUse" r="1"><stop offset="0" stop-color="#c07d7c"/><stop offset=".763" stop-color="#c07d7c" stop-opacity="0"/></radialGradient><linearGradient id="j"><stop offset="0" stop-color="#bf7b60"/><stop offset="1" stop-color="#bf7b60" stop-opacity="0"/></linearGradient><radialGradient id="k" cx="0" cy="0" gradientTransform="matrix(-2.65139911 -.02424911 .00282242 -.30860309 22.7295 19.7899)" gradientUnits="userSpaceOnUse" r="1" xlink:href="#j"/><radialGradient id="l" cx="0" cy="0" gradientTransform="matrix(-2.375 0 0 -.203126 21.8311 24.2587)" gradientUnits="userSpaceOnUse" r="1" xlink:href="#j"/><radialGradient id="m" cx="0" cy="0" gradientTransform="matrix(5.97789858 2.23384369 -3.86443156 10.34144868 1.60146 14.2238)" gradientUnits="userSpaceOnUse" r="1"><stop offset="0" stop-color="#ffd2aa"/><stop offset="1" stop-color="#ffd2aa" stop-opacity="0"/></radialGradient><linearGradient id="n" gradientUnits="userSpaceOnUse" x1="14.33" x2="14.33" y1="29.444" y2="26.277"><stop offset=".113" stop-color="#bc778b"/><stop offset="1" stop-color="#bc778b" stop-opacity="0"/></linearGradient><linearGradient id="o" gradientUnits="userSpaceOnUse" x1="5.133" x2="5.133" y1="6.211" y2="3.749"><stop offset="0" stop-color="#b87380"/><stop offset="1" stop-color="#b87380" stop-opacity="0"/></linearGradient><radialGradient id="p" cx="0" cy="0" gradientTransform="matrix(-8.32112 0 0 -7.02379 8.53563 2.63696)" gradientUnits="userSpaceOnUse" r="1"><stop offset=".893" stop-color="#e2a788" stop-opacity="0"/><stop offset="1" stop-color="#e2a788"/></radialGradient><linearGradient id="q" gradientUnits="userSpaceOnUse" x1="7.011" x2="7.011" y1="0" y2="4.13"><stop offset="0" stop-color="#dfb28c"/><stop offset="1" stop-color="#dfb28c" stop-opacity="0"/></linearGradient><linearGradient id="r" gradientUnits="userSpaceOnUse" x1="14.022" x2="7.444" y1="4.203" y2="4.203"><stop offset="0" stop-color="#edb59d"/><stop offset="1" stop-color="#edb59d" stop-opacity="0"/></linearGradient><linearGradient id="s" gradientUnits="userSpaceOnUse" x1="11.847" x2="14.347" y1="6.134" y2="8.509"><stop offset="0" stop-color="#f9cba1"/><stop offset="1" stop-color="#f9cba1" stop-opacity="0"/></linearGradient><linearGradient id="t" gradientUnits="userSpaceOnUse" x1="9.724" x2="11.834" y1="10.109" y2="8.047"><stop offset=".223" stop-color="#efb79b"/><stop offset="1" stop-color="#efb79b" stop-opacity="0"/></linearGradient><linearGradient id="u" gradientUnits="userSpaceOnUse" x1="18.128" x2="15.39" y1="9.102" y2="7.237"><stop offset=".05" stop-color="#d29377"/><stop offset="1" stop-color="#d29377" stop-opacity="0"/></linearGradient><linearGradient id="v" gradientUnits="userSpaceOnUse" x1="3.799" x2="15.991" y1="2.358" y2="2.358"><stop offset="0" stop-color="#eeba98"/><stop offset="1" stop-color="#eeba98" stop-opacity="0"/></linearGradient><linearGradient id="w" gradientUnits="userSpaceOnUse" x1="4.532" x2="4.761" y1=".012" y2="2.657"><stop offset="0" stop-color="#ffcea4"/><stop offset="1" stop-color="#ffcea4" stop-opacity="0"/></linearGradient><linearGradient id="x"><stop offset="0" stop-color="#e1ad8f"/><stop offset="1" stop-color="#e1ad8f" stop-opacity="0"/></linearGradient><linearGradient id="y" gradientUnits="userSpaceOnUse" x1="-.345" x2="5.752" xlink:href="#x" y1="0" y2="2.027"/><linearGradient id="z" gradientUnits="userSpaceOnUse" x1="-.263" x2="4.453" xlink:href="#x" y1="0" y2="1.429"/><radialGradient id="A" cx="0" cy="0" gradientTransform="matrix(3.27976401 1.21990924 -.27628463 .74279983 21.785 14.9158)" gradientUnits="userSpaceOnUse" r="1"><stop offset="0" stop-color="#a36142"/><stop offset="1" stop-color="#a36142" stop-opacity="0"/></radialGradient><g filter="url(#a)"><path d="m13.8808 4.52697c.8598-1.23966 2.5957-1.70169 3.8479-.88853s1.5948 2.45051.7816 3.70267l-1.6951 2.61028h10.5298c1.4564 0 2.637 1.18061 2.637 2.63701 0 1.4563-1.1806 2.6369-2.637 2.6369h-4.284c.7919.4178 1.3318 1.2494 1.3318 2.2071 0 1.0906-.7002 2.0177-1.6756 2.3563.5118.4951.83 1.1891.83 1.9574 0 1.1473-.7095 2.1289-1.7138 2.5298.4073.4759.6533 1.094.6533 1.7696 0 1.5038-1.2191 2.7229-2.7229 2.7229h-3.1028c-.0347 0-.0692-.0006-.1036-.0019h-4.8591c-1.4313 0-3.87793-.8483-6.02271-2.5098-.22022-.1657-.43275-.3414-.63696-.5263-.00408-.0036-.00816-.0072-.01223-.0108-.00005.0001.00005-.0001 0 0-1.84645-1.6782-3.00839-4.1176-3.00839-6.8326 0-3.149 1.5633-5.9271 3.9445-7.5769.83292-.6033 1.50647-.8918 2.17569-1.1784.51286-.21965 1.02319-.43821 1.60077-.79656.91303-.56647 1.59053-1.39945 1.96903-1.86487.0285-.03501.0553-.06794.0803-.09852l.0005.00226z" fill="url(#g)"/><path d="m13.8808 4.52697c.8598-1.23966 2.5957-1.70169 3.8479-.88853s1.5948 2.45051.7816 3.70267l-1.6951 2.61028h10.5298c1.4564 0 2.637 1.18061 2.637 2.63701 0 1.4563-1.1806 2.6369-2.637 2.6369h-4.284c.7919.4178 1.3318 1.2494 1.3318 2.2071 0 1.0906-.7002 2.0177-1.6756 2.3563.5118.4951.83 1.1891.83 1.9574 0 1.1473-.7095 2.1289-1.7138 2.5298.4073.4759.6533 1.094.6533 1.7696 0 1.5038-1.2191 2.7229-2.7229 2.7229h-3.1028c-.0347 0-.0692-.0006-.1036-.0019h-4.8591c-1.4313 0-3.87793-.8483-6.02271-2.5098-.22022-.1657-.43275-.3414-.63696-.5263-.00408-.0036-.00816-.0072-.01223-.0108-.00005.0001.00005-.0001 0 0-1.84645-1.6782-3.00839-4.1176-3.00839-6.8326 0-3.149 1.5633-5.9271 3.9445-7.5769.83292-.6033 1.50647-.8918 2.17569-1.1784.51286-.21965 1.02319-.43821 1.60077-.79656.91303-.56647 1.59053-1.39945 1.96903-1.86487.0285-.03501.0553-.06794.0803-.09852l.0005.00226z" fill="url(#h)"/><path d="m13.8808 4.52697c.8598-1.23966 2.5957-1.70169 3.8479-.88853s1.5948 2.45051.7816 3.70267l-1.6951 2.61028h10.5298c1.4564 0 2.637 1.18061 2.637 2.63701 0 1.4563-1.1806 2.6369-2.637 2.6369h-4.284c.7919.4178 1.3318 1.2494 1.3318 2.2071 0 1.0906-.7002 2.0177-1.6756 2.3563.5118.4951.83 1.1891.83 1.9574 0 1.1473-.7095 2.1289-1.7138 2.5298.4073.4759.6533 1.094.6533 1.7696 0 1.5038-1.2191 2.7229-2.7229 2.7229h-3.1028c-.0347 0-.0692-.0006-.1036-.0019h-4.8591c-1.4313 0-3.87793-.8483-6.02271-2.5098-.22022-.1657-.43275-.3414-.63696-.5263-.00408-.0036-.00816-.0072-.01223-.0108-.00005.0001.00005-.0001 0 0-1.84645-1.6782-3.00839-4.1176-3.00839-6.8326 0-3.149 1.5633-5.9271 3.9445-7.5769.83292-.6033 1.50647-.8918 2.17569-1.1784.51286-.21965 1.02319-.43821 1.60077-.79656.91303-.56647 1.59053-1.39945 1.96903-1.86487.0285-.03501.0553-.06794.0803-.09852l.0005.00226z" fill="url(#i)"/><path d="m13.8808 4.52697c.8598-1.23966 2.5957-1.70169 3.8479-.88853s1.5948 2.45051.7816 3.70267l-1.6951 2.61028h10.5298c1.4564 0 2.637 1.18061 2.637 2.63701 0 1.4563-1.1806 2.6369-2.637 2.6369h-4.284c.7919.4178 1.3318 1.2494 1.3318 2.2071 0 1.0906-.7002 2.0177-1.6756 2.3563.5118.4951.83 1.1891.83 1.9574 0 1.1473-.7095 2.1289-1.7138 2.5298.4073.4759.6533 1.094.6533 1.7696 0 1.5038-1.2191 2.7229-2.7229 2.7229h-3.1028c-.0347 0-.0692-.0006-.1036-.0019h-4.8591c-1.4313 0-3.87793-.8483-6.02271-2.5098-.22022-.1657-.43275-.3414-.63696-.5263-.00408-.0036-.00816-.0072-.01223-.0108-.00005.0001.00005-.0001 0 0-1.84645-1.6782-3.00839-4.1176-3.00839-6.8326 0-3.149 1.5633-5.9271 3.9445-7.5769.83292-.6033 1.50647-.8918 2.17569-1.1784.51286-.21965 1.02319-.43821 1.60077-.79656.91303-.56647 1.59053-1.39945 1.96903-1.86487.0285-.03501.0553-.06794.0803-.09852l.0005.00226z" fill="url(#k)"/><path d="m13.8808 4.52697c.8598-1.23966 2.5957-1.70169 3.8479-.88853s1.5948 2.45051.7816 3.70267l-1.6951 2.61028h10.5298c1.4564 0 2.637 1.18061 2.637 2.63701 0 1.4563-1.1806 2.6369-2.637 2.6369h-4.284c.7919.4178 1.3318 1.2494 1.3318 2.2071 0 1.0906-.7002 2.0177-1.6756 2.3563.5118.4951.83 1.1891.83 1.9574 0 1.1473-.7095 2.1289-1.7138 2.5298.4073.4759.6533 1.094.6533 1.7696 0 1.5038-1.2191 2.7229-2.7229 2.7229h-3.1028c-.0347 0-.0692-.0006-.1036-.0019h-4.8591c-1.4313 0-3.87793-.8483-6.02271-2.5098-.22022-.1657-.43275-.3414-.63696-.5263-.00408-.0036-.00816-.0072-.01223-.0108-.00005.0001.00005-.0001 0 0-1.84645-1.6782-3.00839-4.1176-3.00839-6.8326 0-3.149 1.5633-5.9271 3.9445-7.5769.83292-.6033 1.50647-.8918 2.17569-1.1784.51286-.21965 1.02319-.43821 1.60077-.79656.91303-.56647 1.59053-1.39945 1.96903-1.86487.0285-.03501.0553-.06794.0803-.09852l.0005.00226z" fill="url(#l)"/></g><path d="m13.8808 4.52697c.8598-1.23966 2.5957-1.70169 3.8479-.88853s1.5948 2.45051.7816 3.70267l-1.6951 2.61028h10.5298c1.4564 0 2.637 1.18061 2.637 2.63701 0 1.4563-1.1806 2.6369-2.637 2.6369h-4.284c.7919.4178 1.3318 1.2494 1.3318 2.2071 0 1.0906-.7002 2.0177-1.6756 2.3563.5118.4951.83 1.1891.83 1.9574 0 1.1473-.7095 2.1289-1.7138 2.5298.4073.4759.6533 1.094.6533 1.7696 0 1.5038-1.2191 2.7229-2.7229 2.7229h-3.1028c-.0347 0-.0692-.0006-.1036-.0019h-4.8591c-1.4313 0-3.87793-.8483-6.02271-2.5098-.22022-.1657-.43275-.3414-.63696-.5263-.00408-.0036-.00816-.0072-.01223-.0108-.00005.0001.00005-.0001 0 0-1.84645-1.6782-3.00839-4.1176-3.00839-6.8326 0-3.149 1.5633-5.9271 3.9445-7.5769.83292-.6033 1.50647-.8918 2.17569-1.1784.51286-.21965 1.02319-.43821 1.60077-.79656.91303-.56647 1.59053-1.39945 1.96903-1.86487.0285-.03501.0553-.06794.0803-.09852l.0005.00226z" fill="url(#m)"/><path d="m13.8808 4.52697c.8598-1.23966 2.5957-1.70169 3.8479-.88853s1.5948 2.45051.7816 3.70267l-1.6951 2.61028h10.5298c1.4564 0 2.637 1.18061 2.637 2.63701 0 1.4563-1.1806 2.6369-2.637 2.6369h-4.284c.7919.4178 1.3318 1.2494 1.3318 2.2071 0 1.0906-.7002 2.0177-1.6756 2.3563.5118.4951.83 1.1891.83 1.9574 0 1.1473-.7095 2.1289-1.7138 2.5298.4073.4759.6533 1.094.6533 1.7696 0 1.5038-1.2191 2.7229-2.7229 2.7229h-3.1028c-.0347 0-.0692-.0006-.1036-.0019h-4.8591c-1.4313 0-3.87793-.8483-6.02271-2.5098-.22022-.1657-.43275-.3414-.63696-.5263-.00408-.0036-.00816-.0072-.01223-.0108-.00005.0001.00005-.0001 0 0-1.84645-1.6782-3.00839-4.1176-3.00839-6.8326 0-3.149 1.5633-5.9271 3.9445-7.5769.83292-.6033 1.50647-.8918 2.17569-1.1784.51286-.21965 1.02319-.43821 1.60077-.79656.91303-.56647 1.59053-1.39945 1.96903-1.86487.0285-.03501.0553-.06794.0803-.09852l.0005.00226z" fill="url(#n)"/><rect fill="url(#o)" height="5.274" rx="2.637" transform="matrix(-1 0 0 1 29.982 9.95129)" width="14.022"/><rect fill="url(#p)" height="5.274" rx="2.637" transform="matrix(-1 0 0 1 29.982 9.95129)" width="14.022"/><rect fill="url(#q)" height="5.274" rx="2.637" transform="matrix(-1 0 0 1 29.982 9.95129)" width="14.022"/><rect fill="url(#r)" height="5.274" rx="2.637" transform="matrix(-1 0 0 1 29.982 9.95129)" width="14.022"/><path d="m17.7287 3.63844c-1.2522-.81315-2.988-.35113-3.8479.88852l-2.092 2.84705-.0004-.00226c-.0241.0294-.0498.06097-.0771.09448l-.0033.00404c-.3785.46541-1.056 1.2984-1.96902 1.86487-.42175.26168-.80764.44879-1.18484.61624h8.26106l1.6951-2.61027c.8132-1.25217.4706-2.88951-.7816-3.70267z" fill="url(#s)"/><path d="m17.7287 3.63844c-1.2522-.81315-2.988-.35113-3.8479.88852l-2.092 2.84705-.0004-.00226c-.0241.0294-.0498.06097-.0771.09448l-.0033.00404c-.3785.46541-1.056 1.2984-1.96902 1.86487-.42175.26168-.80764.44879-1.18484.61624h8.26106l1.6951-2.61027c.8132-1.25217.4706-2.88951-.7816-3.70267z" fill="url(#t)"/><path d="m17.7287 3.63844c-1.2522-.81315-2.988-.35113-3.8479.88852l-2.092 2.84705-.0004-.00226c-.0241.0294-.0498.06097-.0771.09448l-.0033.00404c-.3785.46541-1.056 1.2984-1.96902 1.86487-.42175.26168-.80764.44879-1.18484.61624h8.26106l1.6951-2.61027c.8132-1.25217.4706-2.88951-.7816-3.70267z" fill="url(#u)"/><g filter="url(#b)"><rect fill="url(#v)" height="2.12" rx="1.06" transform="matrix(-1 0 0 1 28.0377 10.7961)" width="13.315"/></g><g filter="url(#c)"><rect fill="url(#w)" height="2.167" rx="1.083" transform="matrix(-.616836 .787091 .787091 .616836 15.9599 4.0719)" width="9.122"/></g><g filter="url(#d)"><rect fill="url(#y)" height="2.65" rx="1.325" transform="matrix(-1 0 0 1 23.0698 15.2252)" width="4.885"/></g><g filter="url(#e)"><rect fill="url(#y)" height="2.65" rx="1.325" transform="matrix(-1 0 0 1 22.5498 19.7847)" width="4.885"/></g><g filter="url(#f)"><rect fill="url(#z)" height="2.211" rx="1.105" transform="matrix(-1 0 0 1 21.3801 23.9443)" width="3.715"/></g><path d="m24.3875 17.5956h-6.4222v-2.3704h5.0957c.7919.4178 1.3318 1.2494 1.3318 2.2071 0 .0549-.0018.1093-.0053.1633z" fill="url(#A)"/></svg>