<svg fill="none" height="32" viewBox="0 0 32 32" width="32" xmlns="http://www.w3.org/2000/svg" xmlns:xlink="http://www.w3.org/1999/xlink"><filter id="a" color-interpolation-filters="sRGB" filterUnits="userSpaceOnUse" height="5.991" width="10.182" x="10.424" y="8.714"><feFlood flood-opacity="0" result="BackgroundImageFix"/><feBlend in="SourceGraphic" in2="BackgroundImageFix" mode="normal" result="shape"/><feGaussianBlur result="effect1_foregroundBlur_18_16422" stdDeviation=".5"/></filter><filter id="b" color-interpolation-filters="sRGB" filterUnits="userSpaceOnUse" height="5.101" width="9.456" x="11.224" y="8.719"><feFlood flood-opacity="0" result="BackgroundImageFix"/><feBlend in="SourceGraphic" in2="BackgroundImageFix" mode="normal" result="shape"/><feColorMatrix in="SourceAlpha" result="hardAlpha" type="matrix" values="0 0 0 0 0 0 0 0 0 0 0 0 0 0 0 0 0 0 127 0"/><feOffset dx=".1" dy="-.2"/><feGaussianBlur stdDeviation=".1"/><feComposite in2="hardAlpha" k2="-1" k3="1" operator="arithmetic"/><feColorMatrix type="matrix" values="0 0 0 0 0.164706 0 0 0 0 0.705882 0 0 0 0 0.368627 0 0 0 1 0"/><feBlend in2="shape" mode="normal" result="effect1_innerShadow_18_16422"/><feColorMatrix in="SourceAlpha" result="hardAlpha" type="matrix" values="0 0 0 0 0 0 0 0 0 0 0 0 0 0 0 0 0 0 127 0"/><feOffset dx="-.2" dy=".1"/><feGaussianBlur stdDeviation=".1"/><feComposite in2="hardAlpha" k2="-1" k3="1" operator="arithmetic"/><feColorMatrix type="matrix" values="0 0 0 0 0.286275 0 0 0 0 0.843137 0 0 0 0 0.486275 0 0 0 1 0"/><feBlend in2="effect1_innerShadow_18_16422" mode="normal" result="effect2_innerShadow_18_16422"/></filter><linearGradient id="c" gradientUnits="userSpaceOnUse" x1="16.002" x2="16.002" y1="9.064" y2="12.22"><stop offset="0" stop-color="#a4d047"/><stop offset="1" stop-color="#66a749"/></linearGradient><radialGradient id="d" cx="0" cy="0" gradientTransform="matrix(0 3.9375 -5.92282 0 16.002 9.06384)" gradientUnits="userSpaceOnUse" r="1"><stop offset=".484" stop-color="#7fb84a" stop-opacity="0"/><stop offset=".944" stop-color="#4c8a3b"/></radialGradient><linearGradient id="e" gradientUnits="userSpaceOnUse" x1="8.844" x2="4.031" y1="13.283" y2="16.283"><stop offset="0" stop-color="#90cc68"/><stop offset="1" stop-color="#98d766"/></linearGradient><linearGradient id="f" gradientUnits="userSpaceOnUse" x1="5.25" x2="6.125" y1="10.689" y2="12.22"><stop offset="0" stop-color="#a6e36c"/><stop offset="1" stop-color="#a6e36c" stop-opacity="0"/></linearGradient><radialGradient id="g" cx="0" cy="0" gradientTransform="matrix(1.62499713 -1.03124658 5.42076912 8.54183125 3.03137 15.3763)" gradientUnits="userSpaceOnUse" r="1"><stop offset=".294" stop-color="#7ab25c"/><stop offset="1" stop-color="#93d263" stop-opacity="0"/></radialGradient><linearGradient id="h" gradientUnits="userSpaceOnUse" x1="8.219" x2="6.813" y1="17.251" y2="15.47"><stop offset=".13" stop-color="#619b51"/><stop offset="1" stop-color="#85c26c" stop-opacity="0"/></linearGradient><radialGradient id="i" cx="0" cy="0" gradientTransform="matrix(-1.0625 0 0 -5.40625 8.53137 15.6888)" gradientUnits="userSpaceOnUse" r="1"><stop offset=".125" stop-color="#72b25a"/><stop offset="1" stop-color="#72b25a" stop-opacity="0"/></radialGradient><linearGradient id="j" gradientUnits="userSpaceOnUse" x1="23.875" x2="28.813" y1="13.376" y2="15.564"><stop offset="0" stop-color="#95d669"/><stop offset="1" stop-color="#8fd670"/></linearGradient><linearGradient id="k" gradientUnits="userSpaceOnUse" x1="26.906" x2="25.75" y1="10.876" y2="12.97"><stop offset=".174" stop-color="#c0fe7c"/><stop offset="1" stop-color="#98d969" stop-opacity="0"/></linearGradient><radialGradient id="l" cx="0" cy="0" gradientTransform="matrix(1.31250276 .06249988 -.60416534 12.68752331 23.4688 12.2826)" gradientUnits="userSpaceOnUse" r="1"><stop offset=".199" stop-color="#abf17b"/><stop offset="1" stop-color="#abf17b" stop-opacity="0"/></radialGradient><linearGradient id="m" gradientUnits="userSpaceOnUse" x1="28.281" x2="28.055" y1="15.97" y2="15.829"><stop offset="0" stop-color="#8ece6f"/><stop offset="1" stop-color="#8ece6f" stop-opacity="0"/></linearGradient><linearGradient id="n" gradientUnits="userSpaceOnUse" x1="24.469" x2="25.219" y1="17.189" y2="15.97"><stop offset="0" stop-color="#68a163"/><stop offset="1" stop-color="#84cc69" stop-opacity="0"/></linearGradient><linearGradient id="o" gradientUnits="userSpaceOnUse" x1="8.156" x2="24.188" y1="24.564" y2="24.564"><stop offset="0" stop-color="#7ed279"/><stop offset="1" stop-color="#88ee94"/></linearGradient><linearGradient id="p" gradientUnits="userSpaceOnUse" x1="7.438" x2="16" y1="28.876" y2="28.876"><stop offset="0" stop-color="#6fbe75"/><stop offset="1" stop-color="#6fbe75" stop-opacity="0"/></linearGradient><linearGradient id="q" gradientUnits="userSpaceOnUse" x1="16" x2="16" y1="9.064" y2="17.626"><stop offset="0" stop-color="#a5e26b"/><stop offset="1" stop-color="#a5e26b" stop-opacity="0"/></linearGradient><linearGradient id="r" gradientUnits="userSpaceOnUse" x1="16" x2="16" y1="30.064" y2="28.968"><stop offset="0" stop-color="#539583"/><stop offset="1" stop-color="#53ae80" stop-opacity="0"/></linearGradient><radialGradient id="s" cx="0" cy="0" gradientTransform="matrix(0 8.59375 -2.11378 0 23.8437 9.06384)" gradientUnits="userSpaceOnUse" r="1"><stop offset="0" stop-color="#b9f87a"/><stop offset="1" stop-color="#b9f87a" stop-opacity="0"/></radialGradient><linearGradient id="t" gradientUnits="userSpaceOnUse" x1="8.156" x2="23.844" y1="17.439" y2="17.439"><stop offset="0" stop-color="#bdc792"/><stop offset="1" stop-color="#ebf9b6"/></linearGradient><linearGradient id="u" gradientUnits="userSpaceOnUse" x1="16.002" x2="16.002" y1="8.919" y2="13.72"><stop offset="0" stop-color="#2fcf6c"/><stop offset="1" stop-color="#2fc36b"/></linearGradient><path d="m16.002 13.2201c2.2522 0 4.0781-1.8258 4.0781-4.07813 0-.02609-.0003-.05216-.0008-.07813h-8.1547c-.0005.02597-.0008.05204-.0008.07813 0 2.25233 1.8259 4.07813 4.0782 4.07813z" fill="url(#c)"/><path d="m16.002 13.2201c2.2522 0 4.0781-1.8258 4.0781-4.07813 0-.02609-.0003-.05216-.0008-.07813h-8.1547c-.0005.02597-.0008.05204-.0008.07813 0 2.25233 1.8259 4.07813 4.0782 4.07813z" fill="url(#d)"/><g filter="url(#a)"><path d="m11.6237 10.3128c-.1092 0-.1999.0857-.1999.1949 0 2.0976 2.2753 3.197 4.376 3.197s3.8056-1.6985 3.8056-3.79611c0-.10922-.0906-.19484-.1998-.19484h-.4428c-.1056 0-.1887.08927-.1887.19484 0 1.63631-1.3305 2.96481-2.9743 2.96481s-3.5447-.7294-3.5447-2.3657c0-.1056-.0831-.1949-.1887-.1949z" fill="#4b892a"/></g><path d="m2.47441 13.7399c-.27223-.4713-.1189-1.0729.34688-1.3545 1.44739-.8749 4.29198-2.59193 4.58117-2.74738.51451-.27659.76168-.33992.76168-.33992l3.54306 5.428-5.63076 3.2509c-.47822.2761-1.08972.1123-1.36592-.3659z" fill="url(#e)"/><path d="m2.47441 13.7399c-.27223-.4713-.1189-1.0729.34688-1.3545 1.44739-.8749 4.29198-2.59193 4.58117-2.74738.51451-.27659.76168-.33992.76168-.33992l3.54306 5.428-5.63076 3.2509c-.47822.2761-1.08972.1123-1.36592-.3659z" fill="url(#f)"/><path d="m2.47441 13.7399c-.27223-.4713-.1189-1.0729.34688-1.3545 1.44739-.8749 4.29198-2.59193 4.58117-2.74738.51451-.27659.76168-.33992.76168-.33992l3.54306 5.428-5.63076 3.2509c-.47822.2761-1.08972.1123-1.36592-.3659z" fill="url(#g)"/><path d="m2.47441 13.7399c-.27223-.4713-.1189-1.0729.34688-1.3545 1.44739-.8749 4.29198-2.59193 4.58117-2.74738.51451-.27659.76168-.33992.76168-.33992l3.54306 5.428-5.63076 3.2509c-.47822.2761-1.08972.1123-1.36592-.3659z" fill="url(#h)"/><path d="m2.47441 13.7399c-.27223-.4713-.1189-1.0729.34688-1.3545 1.44739-.8749 4.29198-2.59193 4.58117-2.74738.51451-.27659.76168-.33992.76168-.33992l3.54306 5.428-5.63076 3.2509c-.47822.2761-1.08972.1123-1.36592-.3659z" fill="url(#i)"/><path d="m29.5294 13.7399c.2723-.4713.1189-1.0729-.3468-1.3545-1.4474-.8749-4.1207-2.49981-4.5812-2.74738-.4606-.24758-.7617-.33992-.7617-.33992l-3.5431 5.428 5.6308 3.2509c.4782.2761 1.0897.1123 1.3659-.3659z" fill="url(#j)"/><path d="m29.5294 13.7399c.2723-.4713.1189-1.0729-.3468-1.3545-1.4474-.8749-4.1207-2.49981-4.5812-2.74738-.4606-.24758-.7617-.33992-.7617-.33992l-3.5431 5.428 5.6308 3.2509c.4782.2761 1.0897.1123 1.3659-.3659z" fill="url(#k)"/><path d="m29.5294 13.7399c.2723-.4713.1189-1.0729-.3468-1.3545-1.4474-.8749-4.1207-2.49981-4.5812-2.74738-.4606-.24758-.7617-.33992-.7617-.33992l-3.5431 5.428 5.6308 3.2509c.4782.2761 1.0897.1123 1.3659-.3659z" fill="url(#l)"/><path d="m29.5294 13.7399c.2723-.4713.1189-1.0729-.3468-1.3545-1.4474-.8749-4.1207-2.49981-4.5812-2.74738-.4606-.24758-.7617-.33992-.7617-.33992l-3.5431 5.428 5.6308 3.2509c.4782.2761 1.0897.1123 1.3659-.3659z" fill="url(#m)"/><path d="m29.5294 13.7399c.2723-.4713.1189-1.0729-.3468-1.3545-1.4474-.8749-4.1207-2.49981-4.5812-2.74738-.4606-.24758-.7617-.33992-.7617-.33992l-3.5431 5.428 5.6308 3.2509c.4782.2761 1.0897.1123 1.3659-.3659z" fill="url(#n)"/><path d="m9.96783 9.06384c-.61142 0-1.2203.07877-1.81158.23438v20.07808c0 .2762.22385.5.5.5h14.68755c.2761 0 .5-.2238.5-.5v-20.07808l-.0416-.01004c-.616-.14902-1.2475-.22434-1.8812-.22434h-1.8417c.0004.02597.0007.05204.0007.07813 0 2.25233-1.8258 4.07813-4.0781 4.07813s-4.0782-1.8258-4.0782-4.07813c0-.02609.0003-.05216.0008-.07813z" fill="url(#o)"/><path d="m9.96783 9.06384c-.61142 0-1.2203.07877-1.81158.23438v20.07808c0 .2762.22385.5.5.5h14.68755c.2761 0 .5-.2238.5-.5v-20.07808l-.0416-.01004c-.616-.14902-1.2475-.22434-1.8812-.22434h-1.8417c.0004.02597.0007.05204.0007.07813 0 2.25233-1.8258 4.07813-4.0781 4.07813s-4.0782-1.8258-4.0782-4.07813c0-.02609.0003-.05216.0008-.07813z" fill="url(#p)"/><path d="m9.96783 9.06384c-.61142 0-1.2203.07877-1.81158.23438v20.07808c0 .2762.22385.5.5.5h14.68755c.2761 0 .5-.2238.5-.5v-20.07808l-.0416-.01004c-.616-.14902-1.2475-.22434-1.8812-.22434h-1.8417c.0004.02597.0007.05204.0007.07813 0 2.25233-1.8258 4.07813-4.0781 4.07813s-4.0782-1.8258-4.0782-4.07813c0-.02609.0003-.05216.0008-.07813z" fill="url(#q)"/><path d="m9.96783 9.06384c-.61142 0-1.2203.07877-1.81158.23438v20.07808c0 .2762.22385.5.5.5h14.68755c.2761 0 .5-.2238.5-.5v-20.07808l-.0416-.01004c-.616-.14902-1.2475-.22434-1.8812-.22434h-1.8417c.0004.02597.0007.05204.0007.07813 0 2.25233-1.8258 4.07813-4.0781 4.07813s-4.0782-1.8258-4.0782-4.07813c0-.02609.0003-.05216.0008-.07813z" fill="url(#r)"/><path d="m9.96783 9.06384c-.61142 0-1.2203.07877-1.81158.23438v20.07808c0 .2762.22385.5.5.5h14.68755c.2761 0 .5-.2238.5-.5v-20.07808l-.0416-.01004c-.616-.14902-1.2475-.22434-1.8812-.22434h-1.8417c.0004.02597.0007.05204.0007.07813 0 2.25233-1.8258 4.07813-4.0781 4.07813s-4.0782-1.8258-4.0782-4.07813c0-.02609.0003-.05216.0008-.07813z" fill="url(#s)"/><path d="m8.15625 18.7201v-3.2813h15.68755v3.2813z" fill="url(#t)"/><g filter="url(#b)"><path d="m11.6642 8.91907c-.1313 0-.2404.10301-.2404.23439 0 2.52344 2.0511 4.56664 4.5782 4.56664s4.5781-2.0432 4.5781-4.56664c0-.13138-.1091-.23439-.2404-.23439h-.5327c-.127 0-.2269.10739-.2269.23439 0 1.96844-1.6007 3.56664-3.5781 3.56664-1.9775 0-3.5782-1.5982-3.5782-3.56664 0-.127-.0999-.23439-.2269-.23439z" fill="url(#u)"/></g></svg>