<svg fill="none" height="32" viewBox="0 0 32 32" width="32" xmlns="http://www.w3.org/2000/svg" xmlns:xlink="http://www.w3.org/1999/xlink"><filter id="a" color-interpolation-filters="sRGB" filterUnits="userSpaceOnUse" height="13.531" width="27.719" x="2.057" y="15.5"><feFlood flood-opacity="0" result="BackgroundImageFix"/><feBlend in="SourceGraphic" in2="BackgroundImageFix" mode="normal" result="shape"/><feColorMatrix in="SourceAlpha" result="hardAlpha" type="matrix" values="0 0 0 0 0 0 0 0 0 0 0 0 0 0 0 0 0 0 127 0"/><feOffset dy="-.5"/><feGaussianBlur stdDeviation=".25"/><feComposite in2="hardAlpha" k2="-1" k3="1" operator="arithmetic"/><feColorMatrix type="matrix" values="0 0 0 0 0.843137 0 0 0 0 0.486275 0 0 0 0 0.501961 0 0 0 1 0"/><feBlend in2="shape" mode="normal" result="effect1_innerShadow_18_17427"/></filter><filter id="b" color-interpolation-filters="sRGB" filterUnits="userSpaceOnUse" height="9.785" width="6.025" x="23.74" y="18.791"><feFlood flood-opacity="0" result="BackgroundImageFix"/><feBlend in="SourceGraphic" in2="BackgroundImageFix" mode="normal" result="shape"/><feGaussianBlur result="effect1_foregroundBlur_18_17427" stdDeviation=".125"/></filter><filter id="c" color-interpolation-filters="sRGB" filterUnits="userSpaceOnUse" height="13.453" width="17.281" x="8.026" y="9.516"><feFlood flood-opacity="0" result="BackgroundImageFix"/><feBlend in="SourceGraphic" in2="BackgroundImageFix" mode="normal" result="shape"/><feColorMatrix in="SourceAlpha" result="hardAlpha" type="matrix" values="0 0 0 0 0 0 0 0 0 0 0 0 0 0 0 0 0 0 127 0"/><feOffset dx="1.5" dy="-.5"/><feGaussianBlur stdDeviation="1"/><feComposite in2="hardAlpha" k2="-1" k3="1" operator="arithmetic"/><feColorMatrix type="matrix" values="0 0 0 0 0.792157 0 0 0 0 0.568627 0 0 0 0 0.4 0 0 0 1 0"/><feBlend in2="shape" mode="normal" result="effect1_innerShadow_18_17427"/></filter><filter id="d" color-interpolation-filters="sRGB" filterUnits="userSpaceOnUse" height="5.131" width="15.781" x="8.026" y="17.938"><feFlood flood-opacity="0" result="BackgroundImageFix"/><feBlend in="SourceGraphic" in2="BackgroundImageFix" mode="normal" result="shape"/><feColorMatrix in="SourceAlpha" result="hardAlpha" type="matrix" values="0 0 0 0 0 0 0 0 0 0 0 0 0 0 0 0 0 0 127 0"/><feOffset/><feGaussianBlur stdDeviation=".5"/><feComposite in2="hardAlpha" k2="-1" k3="1" operator="arithmetic"/><feColorMatrix type="matrix" values="0 0 0 0 0.713726 0 0 0 0 0.235294 0 0 0 0 0.337255 0 0 0 1 0"/><feBlend in2="shape" mode="normal" result="effect1_innerShadow_18_17427"/><feColorMatrix in="SourceAlpha" result="hardAlpha" type="matrix" values="0 0 0 0 0 0 0 0 0 0 0 0 0 0 0 0 0 0 127 0"/><feOffset dy=".1"/><feGaussianBlur stdDeviation=".05"/><feComposite in2="hardAlpha" k2="-1" k3="1" operator="arithmetic"/><feColorMatrix type="matrix" values="0 0 0 0 0.678431 0 0 0 0 0.152941 0 0 0 0 0.231373 0 0 0 1 0"/><feBlend in2="effect1_innerShadow_18_17427" mode="normal" result="effect2_innerShadow_18_17427"/></filter><filter id="e" color-interpolation-filters="sRGB" filterUnits="userSpaceOnUse" height="6.643" width="5.066" x="17.258" y="23.203"><feFlood flood-opacity="0" result="BackgroundImageFix"/><feBlend in="SourceGraphic" in2="BackgroundImageFix" mode="normal" result="shape"/><feColorMatrix in="SourceAlpha" result="hardAlpha" type="matrix" values="0 0 0 0 0 0 0 0 0 0 0 0 0 0 0 0 0 0 127 0"/><feOffset dx=".1"/><feGaussianBlur stdDeviation=".1"/><feComposite in2="hardAlpha" k2="-1" k3="1" operator="arithmetic"/><feColorMatrix type="matrix" values="0 0 0 0 0.737255 0 0 0 0 0.152941 0 0 0 0 0.266667 0 0 0 1 0"/><feBlend in2="shape" mode="normal" result="effect1_innerShadow_18_17427"/></filter><filter id="f" color-interpolation-filters="sRGB" filterUnits="userSpaceOnUse" height="6.643" width="5.066" x="21.906" y="23.203"><feFlood flood-opacity="0" result="BackgroundImageFix"/><feBlend in="SourceGraphic" in2="BackgroundImageFix" mode="normal" result="shape"/><feColorMatrix in="SourceAlpha" result="hardAlpha" type="matrix" values="0 0 0 0 0 0 0 0 0 0 0 0 0 0 0 0 0 0 127 0"/><feOffset dx=".1"/><feGaussianBlur stdDeviation=".1"/><feComposite in2="hardAlpha" k2="-1" k3="1" operator="arithmetic"/><feColorMatrix type="matrix" values="0 0 0 0 0.737255 0 0 0 0 0.152941 0 0 0 0 0.266667 0 0 0 1 0"/><feBlend in2="shape" mode="normal" result="effect1_innerShadow_18_17427"/></filter><filter id="g" color-interpolation-filters="sRGB" filterUnits="userSpaceOnUse" height="5.458" width="5.077" x="15.658" y="18.845"><feFlood flood-opacity="0" result="BackgroundImageFix"/><feBlend in="SourceGraphic" in2="BackgroundImageFix" mode="normal" result="shape"/><feColorMatrix in="SourceAlpha" result="hardAlpha" type="matrix" values="0 0 0 0 0 0 0 0 0 0 0 0 0 0 0 0 0 0 127 0"/><feOffset dy="-.1"/><feGaussianBlur stdDeviation=".15"/><feComposite in2="hardAlpha" k2="-1" k3="1" operator="arithmetic"/><feColorMatrix type="matrix" values="0 0 0 0 0.815686 0 0 0 0 0.176471 0 0 0 0 0.258824 0 0 0 1 0"/><feBlend in2="shape" mode="normal" result="effect1_innerShadow_18_17427"/></filter><filter id="h" color-interpolation-filters="sRGB" filterUnits="userSpaceOnUse" height="5.985" width="3.333" x="20.448" y="19.239"><feFlood flood-opacity="0" result="BackgroundImageFix"/><feBlend in="SourceGraphic" in2="BackgroundImageFix" mode="normal" result="shape"/><feColorMatrix in="SourceAlpha" result="hardAlpha" type="matrix" values="0 0 0 0 0 0 0 0 0 0 0 0 0 0 0 0 0 0 127 0"/><feOffset dx=".1"/><feGaussianBlur stdDeviation=".25"/><feComposite in2="hardAlpha" k2="-1" k3="1" operator="arithmetic"/><feColorMatrix type="matrix" values="0 0 0 0 0.768627 0 0 0 0 0.054902 0 0 0 0 0.235294 0 0 0 1 0"/><feBlend in2="shape" mode="normal" result="effect1_innerShadow_18_17427"/></filter><filter id="i" color-interpolation-filters="sRGB" filterUnits="userSpaceOnUse" height="1.558" width="1.85" x="22.037" y="23.113"><feFlood flood-opacity="0" result="BackgroundImageFix"/><feBlend in="SourceGraphic" in2="BackgroundImageFix" mode="normal" result="shape"/><feGaussianBlur result="effect1_foregroundBlur_18_17427" stdDeviation=".25"/></filter><filter id="j" color-interpolation-filters="sRGB" filterUnits="userSpaceOnUse" height="6.031" width="10.164" x="14.124" y="9.75"><feFlood flood-opacity="0" result="BackgroundImageFix"/><feBlend in="SourceGraphic" in2="BackgroundImageFix" mode="normal" result="shape"/><feGaussianBlur result="effect1_foregroundBlur_18_17427" stdDeviation=".625"/></filter><filter id="k" color-interpolation-filters="sRGB" filterUnits="userSpaceOnUse" height="3.509" width="1.613" x="20.118" y="25.511"><feFlood flood-opacity="0" result="BackgroundImageFix"/><feBlend in="SourceGraphic" in2="BackgroundImageFix" mode="normal" result="shape"/><feGaussianBlur result="effect1_foregroundBlur_18_17427" stdDeviation=".075"/></filter><filter id="l" color-interpolation-filters="sRGB" filterUnits="userSpaceOnUse" height="2.626" width="1.284" x="25.376" y="25.613"><feFlood flood-opacity="0" result="BackgroundImageFix"/><feBlend in="SourceGraphic" in2="BackgroundImageFix" mode="normal" result="shape"/><feGaussianBlur result="effect1_foregroundBlur_18_17427" stdDeviation=".075"/></filter><linearGradient id="m" gradientUnits="userSpaceOnUse" x1="2.057" x2="29.776" y1="23" y2="23"><stop offset="0" stop-color="#e6a679"/><stop offset=".594" stop-color="#cc6f52"/><stop offset=".802" stop-color="#ffc185"/></linearGradient><radialGradient id="n" cx="0" cy="0" gradientTransform="matrix(-1.37495732 -7.65625812 3.27525375 -.58818995 23.4006 29.0313)" gradientUnits="userSpaceOnUse" r="1"><stop offset=".336" stop-color="#e38f64"/><stop offset="1" stop-color="#e38f64" stop-opacity="0"/></radialGradient><radialGradient id="o" cx="0" cy="0" gradientTransform="matrix(-5.25000498 5.31250053 -3.1431948 -3.10621868 30.1506 21.75)" gradientUnits="userSpaceOnUse" r="1"><stop offset=".445" stop-color="#ffd5a1"/><stop offset="1" stop-color="#ffd5a1" stop-opacity="0"/></radialGradient><linearGradient id="p" gradientUnits="userSpaceOnUse" x1="21.463" x2="8.026" y1="15.063" y2="15.063"><stop offset="0" stop-color="#ffc883"/><stop offset="1" stop-color="#e09a6a"/></linearGradient><linearGradient id="q" gradientUnits="userSpaceOnUse" x1="18.213" x2="18.713" y1="26.625" y2="18.563"><stop offset="0" stop-color="#c77f5d"/><stop offset="1" stop-color="#c77f5d" stop-opacity="0"/></linearGradient><linearGradient id="r"><stop offset=".265" stop-color="#cf3162"/><stop offset="1" stop-color="#ed193d"/></linearGradient><linearGradient id="s" gradientUnits="userSpaceOnUse" x1="21.156" x2="19.39" xlink:href="#r" y1="24.482" y2="29.659"/><radialGradient id="t" cx="0" cy="0" gradientTransform="matrix(-1.47561678 2.90282112 -3.58314572 -1.82145221 21.3983 24.3853)" gradientUnits="userSpaceOnUse" r="1"><stop offset=".095" stop-color="#ab0234"/><stop offset="1" stop-color="#ab0234" stop-opacity="0"/></radialGradient><linearGradient id="u" gradientUnits="userSpaceOnUse" x1="23.963" x2="24.038" xlink:href="#r" y1="23.563" y2="29.659"/><radialGradient id="v" cx="0" cy="0" gradientTransform="matrix(-.87501306 3.93749638 -4.86032437 -1.0800892 25.0255 23.5937)" gradientUnits="userSpaceOnUse" r="1"><stop offset=".265" stop-color="#ab0234"/><stop offset="1" stop-color="#ab0234" stop-opacity="0"/></radialGradient><linearGradient id="w" gradientUnits="userSpaceOnUse" x1="15.145" x2="22.238" y1="22.305" y2="22.305"><stop offset="0" stop-color="#ed1c26"/><stop offset=".456" stop-color="#ed1452"/><stop offset="1" stop-color="#ec098c"/></linearGradient><linearGradient id="x" gradientUnits="userSpaceOnUse" x1="20.463" x2="14.95" y1="21.242" y2="21.242"><stop offset="0" stop-color="#e1406f"/><stop offset=".453" stop-color="#de2f5c"/><stop offset=".918" stop-color="#bf3941"/></linearGradient><linearGradient id="y" gradientUnits="userSpaceOnUse" x1="20.735" x2="19.651" y1="23.781" y2="23.781"><stop offset=".279" stop-color="#c7174b"/><stop offset="1" stop-color="#d8396e" stop-opacity="0"/></linearGradient><radialGradient id="z" cx="0" cy="0" gradientTransform="matrix(1.15943249 -2.77744325 7.2813469 3.03956891 17.1892 25.3002)" gradientUnits="userSpaceOnUse" r="1"><stop offset="0" stop-color="#d30631"/><stop offset=".459" stop-color="#a20a18"/></radialGradient><linearGradient id="A" gradientUnits="userSpaceOnUse" x1="20.02" x2="19.173" y1="24.797" y2="23.587"><stop offset=".153" stop-color="#b80844"/><stop offset="1" stop-color="#b80844" stop-opacity="0"/></linearGradient><linearGradient id="B" gradientUnits="userSpaceOnUse" x1="15.658" x2="20.486" y1="23.641" y2="23.607"><stop offset="0" stop-color="#dc164e"/><stop offset="1" stop-color="#d2186e"/></linearGradient><linearGradient id="C" gradientUnits="userSpaceOnUse" x1="23.963" x2="28.244" y1="22.031" y2="22.031"><stop offset="0" stop-color="#c52a54"/><stop offset="1" stop-color="#eb3452"/></linearGradient><linearGradient id="D" gradientUnits="userSpaceOnUse" x1="28.963" x2="27.526" y1="23.969" y2="23.969"><stop offset="0" stop-color="#ff5564"/><stop offset="1" stop-color="#ff5564" stop-opacity="0"/></linearGradient><radialGradient id="E" cx="0" cy="0" gradientTransform="matrix(.87138722 -2.43426574 6.38167535 2.28443026 25.293 25.3002)" gradientUnits="userSpaceOnUse" r="1"><stop offset=".079" stop-color="#d2134e"/><stop offset=".817" stop-color="#bb2825"/></radialGradient><linearGradient id="F" gradientUnits="userSpaceOnUse" x1="28.619" x2="23.791" y1="23.641" y2="23.607"><stop offset="0" stop-color="#ce2074"/><stop offset="1" stop-color="#ef1648"/></linearGradient><linearGradient id="G" gradientUnits="userSpaceOnUse" x1="21.901" x2="21.901" y1="19.239" y2="24.687"><stop offset="0" stop-color="#e1326f"/><stop offset="1" stop-color="#eb143e"/></linearGradient><linearGradient id="H" gradientUnits="userSpaceOnUse" x1="23.526" x2="15.374" y1="14.125" y2="14.125"><stop offset="0" stop-color="#ffe39f"/><stop offset="1" stop-color="#ffe39f" stop-opacity="0"/></linearGradient><radialGradient id="I" cx="0" cy="0" gradientTransform="matrix(-.78125223 -.31249442 .43102832 -1.07759313 21.2444 27)" gradientUnits="userSpaceOnUse" r="1"><stop offset=".345" stop-color="#d93864"/><stop offset="1" stop-color="#d93864" stop-opacity="0"/></radialGradient><radialGradient id="J" cx="0" cy="0" gradientTransform="matrix(-.35156266 -.8515625 1.03337843 -.42662431 26.0959 27.0625)" gradientUnits="userSpaceOnUse" r="1"><stop offset=".363" stop-color="#d93864"/><stop offset="1" stop-color="#d93864" stop-opacity="0"/></radialGradient><g filter="url(#a)"><path d="m2.05688 22.5156c0-3.5985 2.91715-6.5156 6.51563-6.5156h14.68749c3.5985 0 6.5156 2.9171 6.5156 6.5156s-3.3546 6.5156-6.9531 6.5156h-13.84374c-3.59848 0-6.92188-2.9171-6.92188-6.5156z" fill="url(#m)"/><path d="m2.05688 22.5156c0-3.5985 2.91715-6.5156 6.51563-6.5156h14.68749c3.5985 0 6.5156 2.9171 6.5156 6.5156s-3.3546 6.5156-6.9531 6.5156h-13.84374c-3.59848 0-6.92188-2.9171-6.92188-6.5156z" fill="url(#n)"/></g><g filter="url(#b)"><path d="m28.3381 19.1094c.6563 1.0156 1.1634 1.8798 1.0313 3.6875-.2017 2.76-2.8438 5-5.3594 5.4062" stroke="url(#o)" stroke-width=".25"/></g><g filter="url(#c)"><path d="m8.02563 14.7656c0-2.6233 2.12667-4.75 4.74997-4.75h6.2813c2.6233 0 4.75 2.1267 4.75 4.75v6.2032c0 1.1045-.8954 2-2 2h-11.7813c-1.10454 0-1.99997-.8955-1.99997-2z" fill="url(#p)"/><path d="m8.02563 14.7656c0-2.6233 2.12667-4.75 4.74997-4.75h6.2813c2.6233 0 4.75 2.1267 4.75 4.75v6.2032c0 1.1045-.8954 2-2 2h-11.7813c-1.10454 0-1.99997-.8955-1.99997-2z" fill="url(#q)"/></g><g filter="url(#d)"><path d="m8.02563 17.9375v3.0313c0 1.1045.89544 2 1.99997 2h11.7813c1.1046 0 2-.8955 2-2v-3.0313c0 1.2426-1.0074 2.25-2.25 2.25h-11.2813c-1.24261 0-2.24997-1.0074-2.24997-2.25z" fill="#c42e65"/></g><g filter="url(#e)"><path d="m19.2235 23.2032 3.0002 1.092-1.9368 5.3212c-.1088.2991-.528.3094-.6515.016l-.3034-.7213c-.1341-.3187-.5091-.4584-.819-.3052l-.7489.3704c-.2829.1399-.592-.1368-.484-.4335z" fill="url(#s)"/><path d="m19.2235 23.2032 3.0002 1.092-1.9368 5.3212c-.1088.2991-.528.3094-.6515.016l-.3034-.7213c-.1341-.3187-.5091-.4584-.819-.3052l-.7489.3704c-.2829.1399-.592-.1368-.484-.4335z" fill="url(#t)"/></g><g filter="url(#f)"><path d="m24.9059 23.2032-3.0001 1.092 1.9367 5.3212c.1089.2991.5281.3094.6515.016l.3034-.7213c.1341-.3187.5091-.4584.8191-.3052l.7488.3704c.283.1399.592-.1368.484-.4335z" fill="url(#u)"/><path d="m24.9059 23.2032-3.0001 1.092 1.9367 5.3212c.1089.2991.5281.3094.6515.016l.3034-.7213c.1341-.3187.5091-.4584.8191-.3052l.7488.3704c.283.1399.592-.1368.484-.4335z" fill="url(#v)"/></g><path d="m21.8938 23.5073.171.0744.171-.0744v-2.405l-.171-.0819-.171.0819z" fill="url(#w)"/><g filter="url(#g)"><path d="m15.658 20.5852c.0026-1.1535 1.3754-1.9934 2.7955-1.4929l1.7162.7646c.1791.0798.3698.1306.5648.1505v4.295l-5.0765-.2805z" fill="url(#x)"/><path d="m15.658 20.5852c.0026-1.1535 1.3754-1.9934 2.7955-1.4929l1.7162.7646c.1791.0798.3698.1306.5648.1505v4.295l-5.0765-.2805z" fill="url(#y)"/></g><path d="m16 24.0268c0-1.0662 1.4981-1.5641 2.4638-1.0862l2.2336 1.0888-2.2336 1.0887c-.9657.4779-2.4638-.02-2.4638-1.0862v-.0025z" fill="url(#z)"/><path d="m16 24.0268c0-1.0662 1.4981-1.5641 2.4638-1.0862l2.2336 1.0888-2.2336 1.0887c-.9657.4779-2.4638-.02-2.4638-1.0862v-.0025z" fill="url(#A)"/><path clip-rule="evenodd" d="m16 24.0268c0-1.0661 1.498-1.5641 2.4638-1.0862l2.2335 1.0888-2.2335 1.0888c-.9658.4779-2.4638-.0201-2.4638-1.0862v-.0026zm-.342.0031v-.0009-.0017c0-.7206.5104-1.2105 1.0847-1.4401.573-.2291 1.2909-.2406 1.8718.0464.0003.0002.0007.0004.001.0005l2.2317 1.0879c.1175.0573.1921.1766.1921.3074s-.0746.2501-.1921.3074l-2.2317 1.0879c-.0003.0002-.0006.0003-.001.0005-.5809.2871-1.2988.2756-1.8718.0465-.5743-.2297-1.0847-.7191-1.0847-1.4397z" fill="url(#B)" fill-rule="evenodd"/><path d="m28.6194 20.5852c-.0027-1.1535-1.3754-1.9934-2.7955-1.4929l-1.7163.7646c-.1791.0798-.3697.1306-.5648.1505v4.295l5.0766-.2805z" fill="url(#C)"/><path d="m28.6194 20.5852c-.0027-1.1535-1.3754-1.9934-2.7955-1.4929l-1.7163.7646c-.1791.0798-.3697.1306-.5648.1505v4.295l5.0766-.2805z" fill="url(#D)"/><path d="m28.2773 24.0268c0-1.0662-1.498-1.5641-2.4638-1.0862l-2.2335 1.0888 2.2335 1.0887c.9658.4779 2.4638-.02 2.4638-1.0862v-.0025z" fill="url(#E)"/><path clip-rule="evenodd" d="m28.2774 24.0268c0-1.0661-1.4981-1.5641-2.4638-1.0862l-2.2336 1.0888 2.2336 1.0888c.9657.4779 2.4638-.0201 2.4638-1.0862v-.0026zm.342.0031v-.0009-.0017c0-.7206-.5104-1.2105-1.0848-1.4401-.573-.2291-1.2909-.2406-1.8718.0464-.0003.0002-.0006.0004-.0009.0005l-2.2317 1.0879c-.1176.0573-.1922.1766-.1922.3074s.0746.2501.1922.3074l2.2317 1.0879c.0003.0002.0006.0003.0009.0005.5809.2871 1.2988.2756 1.8718.0465.5744-.2297 1.0848-.7191 1.0848-1.4397z" fill="url(#F)" fill-rule="evenodd"/><g filter="url(#h)"><rect fill="url(#G)" height="5.985" rx="1" width="3.233" x="20.448" y="19.239"/></g><g filter="url(#i)"><ellipse cx="22.962" cy="23.893" fill="#ff565b" rx=".425" ry=".279"/></g><g filter="url(#j)"><path d="m15.3743 14.5312h7.6636c0-1.9502-1.581-3.5312-3.5312-3.5312h-4.1324z" fill="url(#H)"/></g><g filter="url(#k)"><path d="m21.51 25.6875-1.1719 3.1563" stroke="url(#I)" stroke-width=".15"/></g><g filter="url(#l)"><path d="m25.5959 25.7891.8438 2.2734" stroke="url(#J)" stroke-width=".15"/></g></svg>