<svg fill="none" height="32" viewBox="0 0 32 32" width="32" xmlns="http://www.w3.org/2000/svg" xmlns:xlink="http://www.w3.org/1999/xlink"><filter id="a" color-interpolation-filters="sRGB" filterUnits="userSpaceOnUse" height="14.595" width="6.556" x="9.212" y="15.807"><feFlood flood-opacity="0" result="BackgroundImageFix"/><feBlend in="SourceGraphic" in2="BackgroundImageFix" mode="normal" result="shape"/><feGaussianBlur result="effect1_foregroundBlur_4002_2104" stdDeviation=".5"/></filter><filter id="b" color-interpolation-filters="sRGB" filterUnits="userSpaceOnUse" height="13.362" width="3.95" x="17.96" y="16.284"><feFlood flood-opacity="0" result="BackgroundImageFix"/><feBlend in="SourceGraphic" in2="BackgroundImageFix" mode="normal" result="shape"/><feGaussianBlur result="effect1_foregroundBlur_4002_2104" stdDeviation=".375"/></filter><filter id="c" color-interpolation-filters="sRGB" filterUnits="userSpaceOnUse" height="14" width="2.897" x="10.503" y="16.049"><feFlood flood-opacity="0" result="BackgroundImageFix"/><feBlend in="SourceGraphic" in2="BackgroundImageFix" mode="normal" result="shape"/><feColorMatrix in="SourceAlpha" result="hardAlpha" type="matrix" values="0 0 0 0 0 0 0 0 0 0 0 0 0 0 0 0 0 0 127 0"/><feOffset dx=".1" dy=".1"/><feGaussianBlur stdDeviation=".1"/><feComposite in2="hardAlpha" k2="-1" k3="1" operator="arithmetic"/><feColorMatrix type="matrix" values="0 0 0 0 0.403922 0 0 0 0 0.368627 0 0 0 0 0.494118 0 0 0 1 0"/><feBlend in2="shape" mode="normal" result="effect1_innerShadow_4002_2104"/></filter><filter id="d" color-interpolation-filters="sRGB" filterUnits="userSpaceOnUse" height="2.883" width="2.965" x="14.509" y="18.186"><feFlood flood-opacity="0" result="BackgroundImageFix"/><feBlend in="SourceGraphic" in2="BackgroundImageFix" mode="normal" result="shape"/><feColorMatrix in="SourceAlpha" result="hardAlpha" type="matrix" values="0 0 0 0 0 0 0 0 0 0 0 0 0 0 0 0 0 0 127 0"/><feOffset dx=".1" dy="-.1"/><feGaussianBlur stdDeviation=".25"/><feComposite in2="hardAlpha" k2="-1" k3="1" operator="arithmetic"/><feColorMatrix type="matrix" values="0 0 0 0 0.156863 0 0 0 0 0.0980392 0 0 0 0 0.215686 0 0 0 1 0"/><feBlend in2="shape" mode="normal" result="effect1_innerShadow_4002_2104"/><feColorMatrix in="SourceAlpha" result="hardAlpha" type="matrix" values="0 0 0 0 0 0 0 0 0 0 0 0 0 0 0 0 0 0 127 0"/><feOffset dx="-.1" dy="-.1"/><feGaussianBlur stdDeviation=".25"/><feComposite in2="hardAlpha" k2="-1" k3="1" operator="arithmetic"/><feColorMatrix type="matrix" values="0 0 0 0 0.156863 0 0 0 0 0.0980392 0 0 0 0 0.215686 0 0 0 1 0"/><feBlend in2="effect1_innerShadow_4002_2104" mode="normal" result="effect2_innerShadow_4002_2104"/></filter><filter id="e" color-interpolation-filters="sRGB" filterUnits="userSpaceOnUse" height="14.05" width="2.902" x="18.61" y="15.999"><feFlood flood-opacity="0" result="BackgroundImageFix"/><feBlend in="SourceGraphic" in2="BackgroundImageFix" mode="normal" result="shape"/><feColorMatrix in="SourceAlpha" result="hardAlpha" type="matrix" values="0 0 0 0 0 0 0 0 0 0 0 0 0 0 0 0 0 0 127 0"/><feOffset dx="-.1" dy=".1"/><feGaussianBlur stdDeviation=".1"/><feComposite in2="hardAlpha" k2="-1" k3="1" operator="arithmetic"/><feColorMatrix type="matrix" values="0 0 0 0 0.439216 0 0 0 0 0.415686 0 0 0 0 0.584314 0 0 0 1 0"/><feBlend in2="shape" mode="normal" result="effect1_innerShadow_4002_2104"/></filter><filter id="f" color-interpolation-filters="sRGB" filterUnits="userSpaceOnUse" height="3.339" width="3.539" x="9.559" y="8.962"><feFlood flood-opacity="0" result="BackgroundImageFix"/><feBlend in="SourceGraphic" in2="BackgroundImageFix" mode="normal" result="shape"/><feColorMatrix in="SourceAlpha" result="hardAlpha" type="matrix" values="0 0 0 0 0 0 0 0 0 0 0 0 0 0 0 0 0 0 127 0"/><feOffset dx=".2"/><feGaussianBlur stdDeviation=".2"/><feComposite in2="hardAlpha" k2="-1" k3="1" operator="arithmetic"/><feColorMatrix type="matrix" values="0 0 0 0 0.866667 0 0 0 0 0.643137 0 0 0 0 0.533333 0 0 0 1 0"/><feBlend in2="shape" mode="normal" result="effect1_innerShadow_4002_2104"/></filter><filter id="g" color-interpolation-filters="sRGB" filterUnits="userSpaceOnUse" height="2.99" width="2.99" x="9.734" y="9.136"><feFlood flood-opacity="0" result="BackgroundImageFix"/><feBlend in="SourceGraphic" in2="BackgroundImageFix" mode="normal" result="shape"/><feGaussianBlur result="effect1_foregroundBlur_4002_2104" stdDeviation=".25"/></filter><filter id="h" color-interpolation-filters="sRGB" filterUnits="userSpaceOnUse" height="3.589" width="3.589" x="19.072" y="8.712"><feFlood flood-opacity="0" result="BackgroundImageFix"/><feBlend in="SourceGraphic" in2="BackgroundImageFix" mode="normal" result="shape"/><feColorMatrix in="SourceAlpha" result="hardAlpha" type="matrix" values="0 0 0 0 0 0 0 0 0 0 0 0 0 0 0 0 0 0 127 0"/><feOffset dx=".25" dy="-.25"/><feGaussianBlur stdDeviation=".25"/><feComposite in2="hardAlpha" k2="-1" k3="1" operator="arithmetic"/><feColorMatrix type="matrix" values="0 0 0 0 0.768627 0 0 0 0 0.529412 0 0 0 0 0.505882 0 0 0 1 0"/><feBlend in2="shape" mode="normal" result="effect1_innerShadow_4002_2104"/></filter><filter id="i" color-interpolation-filters="sRGB" filterUnits="userSpaceOnUse" height="2.99" width="2.99" x="19.246" y="9.136"><feFlood flood-opacity="0" result="BackgroundImageFix"/><feBlend in="SourceGraphic" in2="BackgroundImageFix" mode="normal" result="shape"/><feGaussianBlur result="effect1_foregroundBlur_4002_2104" stdDeviation=".25"/></filter><filter id="j" color-interpolation-filters="sRGB" filterUnits="userSpaceOnUse" height="12.177" width="10.373" x="10.819" y="5.007"><feFlood flood-opacity="0" result="BackgroundImageFix"/><feBlend in="SourceGraphic" in2="BackgroundImageFix" mode="normal" result="shape"/><feColorMatrix in="SourceAlpha" result="hardAlpha" type="matrix" values="0 0 0 0 0 0 0 0 0 0 0 0 0 0 0 0 0 0 127 0"/><feOffset dy=".15"/><feGaussianBlur stdDeviation=".15"/><feComposite in2="hardAlpha" k2="-1" k3="1" operator="arithmetic"/><feColorMatrix type="matrix" values="0 0 0 0 0.752941 0 0 0 0 0.501961 0 0 0 0 0.34902 0 0 0 1 0"/><feBlend in2="shape" mode="normal" result="effect1_innerShadow_4002_2104"/></filter><filter id="k" color-interpolation-filters="sRGB" filterUnits="userSpaceOnUse" height="8.543" width="12.601" x="9.676" y="1.531"><feFlood flood-opacity="0" result="BackgroundImageFix"/><feBlend in="SourceGraphic" in2="BackgroundImageFix" mode="normal" result="shape"/><feColorMatrix in="SourceAlpha" result="hardAlpha" type="matrix" values="0 0 0 0 0 0 0 0 0 0 0 0 0 0 0 0 0 0 127 0"/><feOffset dy="-.5"/><feGaussianBlur stdDeviation=".375"/><feComposite in2="hardAlpha" k2="-1" k3="1" operator="arithmetic"/><feColorMatrix type="matrix" values="0 0 0 0 0.858824 0 0 0 0 0.690196 0 0 0 0 0.533333 0 0 0 1 0"/><feBlend in2="shape" mode="normal" result="effect1_innerShadow_4002_2104"/></filter><filter id="l" color-interpolation-filters="sRGB" filterUnits="userSpaceOnUse" height="4.181" width="3.26" x="14.107" y="9.477"><feFlood flood-opacity="0" result="BackgroundImageFix"/><feBlend in="SourceGraphic" in2="BackgroundImageFix" mode="normal" result="shape"/><feGaussianBlur result="effect1_foregroundBlur_4002_2104" stdDeviation=".375"/></filter><filter id="m" color-interpolation-filters="sRGB" filterUnits="userSpaceOnUse" height="3.181" width="2.377" x="14.788" y="9.813"><feFlood flood-opacity="0" result="BackgroundImageFix"/><feBlend in="SourceGraphic" in2="BackgroundImageFix" mode="normal" result="shape"/><feGaussianBlur result="effect1_foregroundBlur_4002_2104" stdDeviation=".125"/></filter><filter id="n" color-interpolation-filters="sRGB" filterUnits="userSpaceOnUse" height="1.873" width="2.979" x="17.158" y="6.983"><feFlood flood-opacity="0" result="BackgroundImageFix"/><feBlend in="SourceGraphic" in2="BackgroundImageFix" mode="normal" result="shape"/><feColorMatrix in="SourceAlpha" result="hardAlpha" type="matrix" values="0 0 0 0 0 0 0 0 0 0 0 0 0 0 0 0 0 0 127 0"/><feOffset dx=".25" dy="-.4"/><feGaussianBlur stdDeviation=".3"/><feComposite in2="hardAlpha" k2="-1" k3="1" operator="arithmetic"/><feColorMatrix type="matrix" values="0 0 0 0 0.47451 0 0 0 0 0.262745 0 0 0 0 0.168627 0 0 0 1 0"/><feBlend in2="shape" mode="normal" result="effect1_innerShadow_4002_2104"/></filter><filter id="o" color-interpolation-filters="sRGB" filterUnits="userSpaceOnUse" height="1.873" width="2.98" x="12.011" y="6.983"><feFlood flood-opacity="0" result="BackgroundImageFix"/><feBlend in="SourceGraphic" in2="BackgroundImageFix" mode="normal" result="shape"/><feColorMatrix in="SourceAlpha" result="hardAlpha" type="matrix" values="0 0 0 0 0 0 0 0 0 0 0 0 0 0 0 0 0 0 127 0"/><feOffset dx=".25" dy="-.4"/><feGaussianBlur stdDeviation=".3"/><feComposite in2="hardAlpha" k2="-1" k3="1" operator="arithmetic"/><feColorMatrix type="matrix" values="0 0 0 0 0.47451 0 0 0 0 0.262745 0 0 0 0 0.168627 0 0 0 1 0"/><feBlend in2="shape" mode="normal" result="effect1_innerShadow_4002_2104"/></filter><filter id="p" color-interpolation-filters="sRGB" filterUnits="userSpaceOnUse" height=".696" width=".787" x="17.421" y="9.509"><feFlood flood-opacity="0" result="BackgroundImageFix"/><feBlend in="SourceGraphic" in2="BackgroundImageFix" mode="normal" result="shape"/><feGaussianBlur result="effect1_foregroundBlur_4002_2104" stdDeviation=".05"/></filter><filter id="q" color-interpolation-filters="sRGB" filterUnits="userSpaceOnUse" height=".913" width=".891" x="18.261" y="9.584"><feFlood flood-opacity="0" result="BackgroundImageFix"/><feBlend in="SourceGraphic" in2="BackgroundImageFix" mode="normal" result="shape"/><feGaussianBlur result="effect1_foregroundBlur_4002_2104" stdDeviation=".1"/></filter><filter id="r" color-interpolation-filters="sRGB" filterUnits="userSpaceOnUse" height="1.04" width=".986" x="13.819" y="9.521"><feFlood flood-opacity="0" result="BackgroundImageFix"/><feBlend in="SourceGraphic" in2="BackgroundImageFix" mode="normal" result="shape"/><feGaussianBlur result="effect1_foregroundBlur_4002_2104" stdDeviation=".1"/></filter><filter id="s" color-interpolation-filters="sRGB" filterUnits="userSpaceOnUse" height=".704" width=".913" x="13.065" y="9.501"><feFlood flood-opacity="0" result="BackgroundImageFix"/><feBlend in="SourceGraphic" in2="BackgroundImageFix" mode="normal" result="shape"/><feGaussianBlur result="effect1_foregroundBlur_4002_2104" stdDeviation=".05"/></filter><filter id="t" color-interpolation-filters="sRGB" filterUnits="userSpaceOnUse" height="1.681" width="3.099" x="17.012" y="7.109"><feFlood flood-opacity="0" result="BackgroundImageFix"/><feBlend in="SourceGraphic" in2="BackgroundImageFix" mode="normal" result="shape"/><feGaussianBlur result="effect1_foregroundBlur_4002_2104" stdDeviation=".25"/></filter><filter id="u" color-interpolation-filters="sRGB" filterUnits="userSpaceOnUse" height="1.738" width="3.177" x="11.793" y="7.172"><feFlood flood-opacity="0" result="BackgroundImageFix"/><feBlend in="SourceGraphic" in2="BackgroundImageFix" mode="normal" result="shape"/><feGaussianBlur result="effect1_foregroundBlur_4002_2104" stdDeviation=".25"/></filter><linearGradient id="v" gradientUnits="userSpaceOnUse" x1="16" x2="16" y1="16.271" y2="31.208"><stop offset="0" stop-color="#594e72"/><stop offset="1" stop-color="#594984"/></linearGradient><radialGradient id="w" cx="0" cy="0" gradientTransform="matrix(0 -16.4313 6.37009 0 22.9949 25.452)" gradientUnits="userSpaceOnUse" r="1"><stop offset=".156" stop-color="#7b74a6"/><stop offset="1" stop-color="#5f5490" stop-opacity="0"/></radialGradient><radialGradient id="x" cx="0" cy="0" gradientTransform="matrix(0 10.1215 -4.59696 0 16 23.0243)" gradientUnits="userSpaceOnUse" r="1"><stop offset=".397" stop-color="#c6bbd1"/><stop offset="1" stop-color="#a89cb3"/></radialGradient><linearGradient id="y" gradientUnits="userSpaceOnUse" x1="18.903" x2="17.059" y1="25.271" y2="25.271"><stop offset="0" stop-color="#7a6c85"/><stop offset="1" stop-color="#c7bcd2" stop-opacity="0"/></linearGradient><linearGradient id="z" gradientUnits="userSpaceOnUse" x1="15.591" x2="15.669" y1="17.818" y2="21.708"><stop offset="0" stop-color="#877f93"/><stop offset="1" stop-color="#877f93" stop-opacity="0"/></linearGradient><radialGradient id="A" cx="0" cy="0" gradientTransform="matrix(0 -10.3135 1.68433 0 25 29.9593)" gradientUnits="userSpaceOnUse" r="1"><stop offset="0" stop-color="#776d9f"/><stop offset="1" stop-color="#6d6193"/></radialGradient><linearGradient id="B" gradientUnits="userSpaceOnUse" x1="23" x2="23.744" y1="29.446" y2="29.422"><stop offset=".276" stop-color="#504176"/><stop offset="1" stop-color="#504176" stop-opacity="0"/></linearGradient><linearGradient id="C" gradientUnits="userSpaceOnUse" x1="11.902" x2="11.902" y1="16.049" y2="29.949"><stop offset="0" stop-color="#594b78"/><stop offset=".524" stop-color="#5d5087"/></linearGradient><linearGradient id="D" gradientUnits="userSpaceOnUse" x1="13.671" x2="13.05" y1="22.509" y2="22.509"><stop offset="0" stop-color="#553a63"/><stop offset="1" stop-color="#553a63" stop-opacity="0"/></linearGradient><radialGradient id="E" cx="0" cy="0" gradientTransform="matrix(-1.53126491 2.09374127 -2.90145657 -2.12199027 13.7156 16.3334)" gradientUnits="userSpaceOnUse" r="1"><stop offset="0" stop-color="#4e3360"/><stop offset="1" stop-color="#4e3360" stop-opacity="0"/></radialGradient><linearGradient id="F" gradientUnits="userSpaceOnUse" x1="11.902" x2="12.839" y1="25.925" y2="25.524"><stop offset=".196" stop-color="#594c7d"/><stop offset="1" stop-color="#594c7d" stop-opacity="0"/></linearGradient><radialGradient id="G" cx="0" cy="0" gradientTransform="matrix(1.0937527 -.31250086 .15357602 .53751591 11.3953 19.7162)" gradientUnits="userSpaceOnUse" r="1"><stop offset=".241" stop-color="#4b3b6d"/><stop offset="1" stop-color="#4b3b6d" stop-opacity="0"/></radialGradient><linearGradient id="H" gradientUnits="userSpaceOnUse" x1="12.223" x2="12.434" y1="16.049" y2="16.451"><stop offset="0" stop-color="#584360"/><stop offset="1" stop-color="#584360" stop-opacity="0"/></linearGradient><linearGradient id="I" gradientUnits="userSpaceOnUse" x1="15.988" x2="15.988" y1="18.943" y2="20.927"><stop offset=".006" stop-color="#5a3859"/><stop offset="1" stop-color="#463952"/></linearGradient><linearGradient id="J" gradientUnits="userSpaceOnUse" x1="18.71" x2="20.111" y1="21.556" y2="21.556"><stop offset=".093" stop-color="#5a4c74"/><stop offset="1" stop-color="#625a91" stop-opacity="0"/></linearGradient><radialGradient id="K" cx="0" cy="0" gradientTransform="matrix(0 3.75 -4.3769 0 15.9999 18.4739)" gradientUnits="userSpaceOnUse" r="1"><stop offset=".362" stop-color="#cdbed0"/><stop offset="1" stop-color="#a093a3"/></radialGradient><radialGradient id="L" cx="0" cy="0" gradientTransform="matrix(0 -5.1875 6.81546 0 15.9999 20.971)" gradientUnits="userSpaceOnUse" r="1"><stop offset=".533" stop-color="#9d8392" stop-opacity="0"/><stop offset=".876" stop-color="#815a72"/></radialGradient><linearGradient id="M" gradientUnits="userSpaceOnUse" x1="9.452" x2="7.02" y1="23.967" y2="23.967"><stop offset="0" stop-color="#43395f"/><stop offset="1" stop-color="#43395f" stop-opacity="0"/></linearGradient><radialGradient id="N" cx="0" cy="0" gradientTransform="matrix(0 8.8125 -3.45478 0 15.9827 21.3646)" gradientUnits="userSpaceOnUse" r="1"><stop offset=".006" stop-color="#59416d"/><stop offset=".94" stop-color="#3d3247"/></radialGradient><linearGradient id="O"><stop offset="0" stop-color="#2b1b3a"/><stop offset="1" stop-color="#2b1b3a" stop-opacity="0"/></linearGradient><linearGradient id="P" gradientUnits="userSpaceOnUse" x1="14.606" x2="14.899" xlink:href="#O" y1="24.829" y2="24.869"/><linearGradient id="Q" gradientUnits="userSpaceOnUse" x1="17.411" x2="17.012" xlink:href="#O" y1="24.646" y2="24.693"/><radialGradient id="R" cx="0" cy="0" gradientTransform="matrix(0 1.89252 -2.87161 0 16.0293 17.22)" gradientUnits="userSpaceOnUse" r="1"><stop offset=".414" stop-color="#ac7272"/><stop offset="1" stop-color="#894f50"/></radialGradient><radialGradient id="S" cx="0" cy="0" gradientTransform="matrix(1.75471 0 0 3.07076 9.55945 10.6312)" gradientUnits="userSpaceOnUse" r="1"><stop offset=".351" stop-color="#c28775"/><stop offset="1" stop-color="#ba7867"/></radialGradient><linearGradient id="T" gradientUnits="userSpaceOnUse" x1="11.229" x2="10.588" y1="10.91" y2="10.91"><stop offset="0" stop-color="#af6f5d"/><stop offset="1" stop-color="#b87862"/></linearGradient><linearGradient id="U" gradientUnits="userSpaceOnUse" x1="21.828" x2="21.009" y1="9.54" y2="12.076"><stop offset="0" stop-color="#f5c8a5"/><stop offset="1" stop-color="#dca189"/></linearGradient><radialGradient id="V" cx="0" cy="0" gradientTransform="matrix(.82663435 -.60191744 .68701092 .94349621 21.1133 10.3664)" gradientUnits="userSpaceOnUse" r="1"><stop offset=".543" stop-color="#e3ab88"/><stop offset="1" stop-color="#e3ab88" stop-opacity="0"/></radialGradient><radialGradient id="W" cx="0" cy="0" gradientTransform="matrix(.82119299 -1.5104056 .88404601 .48064731 20.6999 11.4523)" gradientUnits="userSpaceOnUse" r="1"><stop offset=".69" stop-color="#d79a76" stop-opacity="0"/><stop offset="1" stop-color="#d79a76"/></radialGradient><radialGradient id="X" cx="0" cy="0" gradientTransform="matrix(.25926587 .25663394 -.33083738 .33423032 20.7412 10.6311)" gradientUnits="userSpaceOnUse" r="1"><stop offset="0" stop-color="#cb8e6d"/><stop offset="1" stop-color="#cb8e6d" stop-opacity="0"/></radialGradient><linearGradient id="Y" gradientUnits="userSpaceOnUse" x1="20.012" x2="12.376" y1="11.021" y2="12.158"><stop offset="0" stop-color="#fac39e"/><stop offset="1" stop-color="#c9917c"/></linearGradient><radialGradient id="Z" cx="0" cy="0" gradientTransform="matrix(0 10.0105 -18.8206 0 16.447 7.28951)" gradientUnits="userSpaceOnUse" r="1"><stop offset=".678" stop-color="#bd7a87" stop-opacity="0"/><stop offset=".978" stop-color="#ab6386"/></radialGradient><linearGradient id="aa" gradientUnits="userSpaceOnUse" x1="10.581" x2="12.893" y1="13.716" y2="13.415"><stop offset="0" stop-color="#d99e84"/><stop offset="1" stop-color="#d99e84" stop-opacity="0"/></linearGradient><radialGradient id="ab" cx="0" cy="0" gradientTransform="matrix(0 -1.30697 1.60857 0 18.322 9.35971)" gradientUnits="userSpaceOnUse" r="1"><stop offset="0" stop-color="#e2a18c"/><stop offset="1" stop-color="#e2a18c" stop-opacity="0"/></radialGradient><radialGradient id="ac" cx="0" cy="0" gradientTransform="matrix(0 -1.39075 1.72952 0 13.7644 9.32619)" gradientUnits="userSpaceOnUse" r="1"><stop offset="0" stop-color="#c2837a"/><stop offset="1" stop-color="#c2837a" stop-opacity="0"/></radialGradient><radialGradient id="ad" cx="0" cy="0" gradientTransform="matrix(-3.43631419 4.42895216 -7.53182594 -5.84375704 19.6682 2.91865)" gradientUnits="userSpaceOnUse" r="1"><stop offset="0" stop-color="#ffffc2"/><stop offset="1" stop-color="#ffffc2" stop-opacity="0"/></radialGradient><linearGradient id="ae" gradientUnits="userSpaceOnUse" x1="11.116" x2="14.017" y1="10.364" y2="5.21"><stop offset="0" stop-color="#e8ad8e"/><stop offset="1" stop-color="#e8ad8e" stop-opacity="0"/></linearGradient><radialGradient id="af" cx="0" cy="0" gradientTransform="matrix(-.06681666 -1.86131111 .91413419 -.03281525 11.7839 7.17581)" gradientUnits="userSpaceOnUse" r="1"><stop offset=".227" stop-color="#eec19c"/><stop offset="1" stop-color="#eec19c" stop-opacity="0"/></radialGradient><radialGradient id="ag" cx="0" cy="0" gradientTransform="matrix(.85906781 -1.96630982 1.60367815 .70063642 20.2027 8.89395)" gradientUnits="userSpaceOnUse" r="1"><stop offset=".479" stop-color="#e3ab85"/><stop offset="1" stop-color="#e3ab85" stop-opacity="0"/></radialGradient><radialGradient id="ah" cx="0" cy="0" gradientTransform="matrix(.99270266 1.23176044 -1.08755324 .87648292 15.201 2.03052)" gradientUnits="userSpaceOnUse" r="1"><stop offset="0" stop-color="#fbecaf"/><stop offset="1" stop-color="#fbecaf" stop-opacity="0"/></radialGradient><radialGradient id="ai" cx="0" cy="0" gradientTransform="matrix(.18135793 .78313383 -1.28747767 .29815375 16.671 2.03052)" gradientUnits="userSpaceOnUse" r="1"><stop offset=".208" stop-color="#e1d19f"/><stop offset="1" stop-color="#e1d19f" stop-opacity="0"/></radialGradient><radialGradient id="aj" cx="0" cy="0" gradientTransform="matrix(.72543835 .89725295 -2.01040713 1.6254351 11.6311 3.75863)" gradientUnits="userSpaceOnUse" r="1"><stop offset="0" stop-color="#dcc291"/><stop offset="1" stop-color="#dcc291" stop-opacity="0"/></radialGradient><linearGradient id="ak" gradientUnits="userSpaceOnUse" x1="15.112" x2="16.05" y1="11.68" y2="11.68"><stop offset="0" stop-color="#cb9173"/><stop offset="1" stop-color="#cb9173" stop-opacity="0"/></linearGradient><linearGradient id="al" gradientUnits="userSpaceOnUse" x1="16.915" x2="15.889" y1="12.002" y2="11.988"><stop offset="0" stop-color="#fec8a4"/><stop offset="1" stop-color="#fec8a4" stop-opacity="0"/></linearGradient><linearGradient id="am" gradientUnits="userSpaceOnUse" x1="16.171" x2="16.171" y1="12.744" y2="12.171"><stop offset="0" stop-color="#c98583"/><stop offset="1" stop-color="#c98583" stop-opacity="0"/></linearGradient><linearGradient id="an" gradientUnits="userSpaceOnUse" x1="16.102" x2="16.102" y1="12.786" y2="12.619"><stop offset="0" stop-color="#c27b77"/><stop offset="1" stop-color="#c27b77" stop-opacity="0"/></linearGradient><linearGradient id="ao" gradientUnits="userSpaceOnUse" x1="14.939" x2="15.374" y1="14.36" y2="13.672"><stop offset="0" stop-color="#d79e8e"/><stop offset=".663" stop-color="#d79e8e" stop-opacity="0"/></linearGradient><linearGradient id="ap"><stop offset=".75" stop-color="#925c51"/><stop offset="1" stop-color="#694b43"/><stop offset="1" stop-color="#804d49"/><stop offset="1" stop-color="#85534d"/></linearGradient><radialGradient id="aq" cx="0" cy="0" gradientTransform="matrix(0 .903078 -1.06858 0 18.1549 10.2828)" gradientUnits="userSpaceOnUse" r="1" xlink:href="#ap"/><linearGradient id="ar"><stop offset=".766" stop-color="#ffe6e2" stop-opacity="0"/><stop offset=".966" stop-color="#ffe6e2"/></linearGradient><radialGradient id="as" cx="0" cy="0" gradientTransform="matrix(-.2318438 -.298762 .4113242 -.31919376 17.9268 10.0333)" gradientUnits="userSpaceOnUse" r="1" xlink:href="#ar"/><linearGradient id="at"><stop offset="0" stop-color="#b4948d"/><stop offset="1" stop-color="#b4948d" stop-opacity="0"/></linearGradient><linearGradient id="au" gradientUnits="userSpaceOnUse" x1="18.933" x2="18.619" xlink:href="#at" y1="10.003" y2="10.196"/><radialGradient id="av" cx="0" cy="0" gradientTransform="matrix(0 .903123 -1.06863 0 13.7923 10.2828)" gradientUnits="userSpaceOnUse" r="1" xlink:href="#ap"/><linearGradient id="aw" gradientUnits="userSpaceOnUse" x1="14.536" x2="14.222" xlink:href="#at" y1="10.003" y2="10.196"/><radialGradient id="ax" cx="0" cy="0" gradientTransform="matrix(-.00773335 -.49392646 .59372023 -.00929581 13.506 10.1682)" gradientUnits="userSpaceOnUse" r="1" xlink:href="#ar"/><linearGradient id="ay"><stop offset="0" stop-color="#a57146"/><stop offset="1" stop-color="#a57146" stop-opacity="0"/></linearGradient><linearGradient id="az" gradientUnits="userSpaceOnUse" x1="18.948" x2="18.528" xlink:href="#ay" y1="7.864" y2="7.005"/><linearGradient id="aA" gradientUnits="userSpaceOnUse" x1="13.644" x2="12.455" xlink:href="#ay" y1="7.736" y2="7.237"/><path d="m16 15.4592c-6.08 0-11 4.92-11 11v3.5h22v-3.5c0-6.07-4.93-11-11-11z" fill="url(#v)"/><path d="m16 15.4592c-6.08 0-11 4.92-11 11v3.5h22v-3.5c0-6.07-4.93-11-11-11z" fill="url(#w)"/><g filter="url(#a)"><path d="m13.4187 16.8082c-.5124 0-1.2955-.0292-1.7699.1661l-1.3801 2.7239c-.09.19.06.41.27.41h1.55c.24 0 .35.29.19.45l-1.78 1.3428c-.26.26-.36.65-.23 1l2.9128 6.5005 1.5862-1.1163-1.339-11.477z" fill="#46375f"/></g><g filter="url(#b)"><path d="m20.9045 21.1408-1.1891-.828c-.1486-.1486-.0437-.3934.1661-.3934h.9181c.1836 0 .306-.1923.2273-.3585l-1.0754-2.2907c-.2099-.0874-.4284-.1661-.647-.236h-.5945v11.8618l2.4043-6.8721c.1049-.3148.0262-.6558-.2098-.8831z" fill="#493e6a"/></g><path d="m18.71 16.0793h-5.42v13.89h5.42z" fill="url(#x)"/><path d="m18.71 16.0793h-5.42v13.89h5.42z" fill="url(#y)"/><path d="m18.71 16.0793h-5.42v13.89h5.42z" fill="url(#z)"/><path d="m23 17.9771v11.9822h4v-3.5c0-3.412-1.5577-6.4638-4-8.4822z" fill="url(#A)"/><path d="m23 17.9771v11.9822h4v-3.5c0-3.412-1.5577-6.4638-4-8.4822z" fill="url(#B)"/><g filter="url(#c)"><path d="m13.29 16.0493h-.85c-.18.06-.36.13-.53.2l-1.27 2.69c-.09.19.06.41.27.41h1.05c.24 0 .35.29.19.45l-1.36 1.33c-.26.26-.36.65-.23 1l2.73 7.82h.01v-13.9z" fill="url(#C)"/><path d="m13.29 16.0493h-.85c-.18.06-.36.13-.53.2l-1.27 2.69c-.09.19.06.41.27.41h1.05c.24 0 .35.29.19.45l-1.36 1.33c-.26.26-.36.65-.23 1l2.73 7.82h.01v-13.9z" fill="url(#D)"/><path d="m13.29 16.0493h-.85c-.18.06-.36.13-.53.2l-1.27 2.69c-.09.19.06.41.27.41h1.05c.24 0 .35.29.19.45l-1.36 1.33c-.26.26-.36.65-.23 1l2.73 7.82h.01v-13.9z" fill="url(#E)"/></g><path d="m13.29 16.0493h-.85c-.18.06-.36.13-.53.2l-1.27 2.69c-.09.19.06.41.27.41h1.05c.24 0 .35.29.19.45l-1.36 1.33c-.26.26-.36.65-.23 1l2.73 7.82h.01v-13.9z" fill="url(#F)"/><path d="m13.29 16.0493h-.85c-.18.06-.36.13-.53.2l-1.27 2.69c-.09.19.06.41.27.41h1.05c.24 0 .35.29.19.45l-1.36 1.33c-.26.26-.36.65-.23 1l2.73 7.82h.01v-13.9z" fill="url(#G)"/><path d="m13.29 16.0493h-.85c-.18.06-.36.13-.53.2l-1.27 2.69c-.09.19.06.41.27.41h1.05c.24 0 .35.29.19.45l-1.36 1.33c-.26.26-.36.65-.23 1l2.73 7.82h.01v-13.9z" fill="url(#H)"/><g filter="url(#d)"><path d="m16.0125 18.2864-1.3562 1.2751c-.0483.0454-.0611.117-.0315.1763l.5962 1.1931c.0423.0847.1289.1383.2236.1383h1.0901c.0952 0 .182-.054.2242-.1393l.5993-1.2127c.029-.0588.0165-.1296-.0309-.1749z" fill="url(#I)"/></g><g filter="url(#e)"><path d="m21.22 21.0793-1.36-1.33c-.17-.17-.05-.45.19-.45h1.05c.21 0 .35-.22.26-.41l-1.23-2.62c-.24-.1-.49-.19-.74-.27h-.68v13.95l2.75-7.86c.12-.36.03-.75-.24-1.01z" fill="#615990"/><path d="m21.22 21.0793-1.36-1.33c-.17-.17-.05-.45.19-.45h1.05c.21 0 .35-.22.26-.41l-1.23-2.62c-.24-.1-.49-.19-.74-.27h-.68v13.95l2.75-7.86c.12-.36.03-.75-.24-1.01z" fill="url(#J)"/></g><path d="m15.9999 15.0161h-2.71v4.74c0 .31.36.49.61.29l2.1-1.3925 2.1 1.3925c.25.2.61.02.61-.29v-4.74z" fill="url(#K)"/><path d="m15.9999 15.0161h-2.71v4.74c0 .31.36.49.61.29l2.1-1.3925 2.1 1.3925c.25.2.61.02.61-.29v-4.74z" fill="url(#L)"/><path d="m7.03187 29.9593h1.93823v-11.9642c-1.78268 1.4818-3.08884 3.5167-3.65643 5.8427-.20346.8439-.30902 1.7253-.30371 2.6315l.01996 3.49z" fill="url(#M)"/><path d="m15.5046 21.0693c-.1235 0-.2285.0902-.2472.2122l-1.3275 8.6678h4.11l-1.3177-8.6675c-.0185-.1222-.1236-.2125-.2471-.2125z" fill="url(#N)"/><path d="m15.5046 21.0693c-.1235 0-.2285.0902-.2472.2122l-1.3275 8.6678h4.11l-1.3177-8.6675c-.0185-.1222-.1236-.2125-.2471-.2125z" fill="url(#P)"/><path d="m15.5046 21.0693c-.1235 0-.2285.0902-.2472.2122l-1.3275 8.6678h4.11l-1.3177-8.6675c-.0185-.1222-.1236-.2125-.2471-.2125z" fill="url(#Q)"/><path d="m14.0449 16.8489c.0209.2135.205.691.7461 1.0547.2135.1434 1.2131.6286 1.1927.6188.1562-.0781.8073-.2985 1.2839-.6188.5411-.3637.7252-.8412.7461-1.0547l-1.9844-.9531z" fill="url(#R)"/><g filter="url(#f)"><circle cx="11.229" cy="10.631" fill="url(#S)" r="1.669"/></g><g filter="url(#g)"><circle cx="11.229" cy="10.631" fill="url(#T)" r=".995"/></g><g filter="url(#h)"><circle cx="20.741" cy="10.631" fill="url(#U)" r="1.669"/><circle cx="20.741" cy="10.631" fill="url(#V)" r="1.669"/></g><g filter="url(#i)"><circle cx="20.741" cy="10.631" fill="#d79e81" r=".995"/><circle cx="20.741" cy="10.631" fill="url(#W)" r=".995"/><circle cx="20.741" cy="10.631" fill="url(#X)" r=".995"/></g><g filter="url(#j)"><path d="m10.8768 10.0184c.0162.0011.0326.0016.0491.0016 0 0-.0537-.85322-.1073-1.43985 0-.26664.1073-.58662.3218-.74661l.1609-.15999c.2682-.21332.3755-.53329.3755-.85327v-.85327c0-.26665.1609-.47996.429-.53329.6437-.15999 1.9845-.42664 3.9154-.42664 1.9308 0 3.2717.26665 3.9153.42664.2146.05333.4291.26664.4291.53329v.85327c0 .31998.1609.63995.3755.85327.502.3518.4707.54529.429.95993-.0536.5333-.1072 1.43992-.1072 1.43992.006 0 .0121-.0001.0181-.0003l-.2659 3.9582c-.1605 1.7694-1.5515 3.0026-3.2101 3.0026h-3.2101c-1.712 0-3.0496-1.2332-3.2101-3.0026z" fill="url(#Y)"/><path d="m10.8768 10.0184c.0162.0011.0326.0016.0491.0016 0 0-.0537-.85322-.1073-1.43985 0-.26664.1073-.58662.3218-.74661l.1609-.15999c.2682-.21332.3755-.53329.3755-.85327v-.85327c0-.26665.1609-.47996.429-.53329.6437-.15999 1.9845-.42664 3.9154-.42664 1.9308 0 3.2717.26665 3.9153.42664.2146.05333.4291.26664.4291.53329v.85327c0 .31998.1609.63995.3755.85327.502.3518.4707.54529.429.95993-.0536.5333-.1072 1.43992-.1072 1.43992.006 0 .0121-.0001.0181-.0003l-.2659 3.9582c-.1605 1.7694-1.5515 3.0026-3.2101 3.0026h-3.2101c-1.712 0-3.0496-1.2332-3.2101-3.0026z" fill="url(#Z)"/><path d="m10.8768 10.0184c.0162.0011.0326.0016.0491.0016 0 0-.0537-.85322-.1073-1.43985 0-.26664.1073-.58662.3218-.74661l.1609-.15999c.2682-.21332.3755-.53329.3755-.85327v-.85327c0-.26665.1609-.47996.429-.53329.6437-.15999 1.9845-.42664 3.9154-.42664 1.9308 0 3.2717.26665 3.9153.42664.2146.05333.4291.26664.4291.53329v.85327c0 .31998.1609.63995.3755.85327.502.3518.4707.54529.429.95993-.0536.5333-.1072 1.43992-.1072 1.43992.006 0 .0121-.0001.0181-.0003l-.2659 3.9582c-.1605 1.7694-1.5515 3.0026-3.2101 3.0026h-3.2101c-1.712 0-3.0496-1.2332-3.2101-3.0026z" fill="url(#aa)"/><path d="m10.8768 10.0184c.0162.0011.0326.0016.0491.0016 0 0-.0537-.85322-.1073-1.43985 0-.26664.1073-.58662.3218-.74661l.1609-.15999c.2682-.21332.3755-.53329.3755-.85327v-.85327c0-.26665.1609-.47996.429-.53329.6437-.15999 1.9845-.42664 3.9154-.42664 1.9308 0 3.2717.26665 3.9153.42664.2146.05333.4291.26664.4291.53329v.85327c0 .31998.1609.63995.3755.85327.502.3518.4707.54529.429.95993-.0536.5333-.1072 1.43992-.1072 1.43992.006 0 .0121-.0001.0181-.0003l-.2659 3.9582c-.1605 1.7694-1.5515 3.0026-3.2101 3.0026h-3.2101c-1.712 0-3.0496-1.2332-3.2101-3.0026z" fill="url(#ab)"/><path d="m10.8768 10.0184c.0162.0011.0326.0016.0491.0016 0 0-.0537-.85322-.1073-1.43985 0-.26664.1073-.58662.3218-.74661l.1609-.15999c.2682-.21332.3755-.53329.3755-.85327v-.85327c0-.26665.1609-.47996.429-.53329.6437-.15999 1.9845-.42664 3.9154-.42664 1.9308 0 3.2717.26665 3.9153.42664.2146.05333.4291.26664.4291.53329v.85327c0 .31998.1609.63995.3755.85327.502.3518.4707.54529.429.95993-.0536.5333-.1072 1.43992-.1072 1.43992.006 0 .0121-.0001.0181-.0003l-.2659 3.9582c-.1605 1.7694-1.5515 3.0026-3.2101 3.0026h-3.2101c-1.712 0-3.0496-1.2332-3.2101-3.0026z" fill="url(#ac)"/></g><g filter="url(#k)"><path d="m20.7948 4.15383.429.21332c.7509.3733 1.18 1.22657 1.0191 2.13317l-.59 3.03978c-.0526.31394-.2601.5252-.5719.5331-.006.0001-.012.0002-.0181.0002 0 0 .0537-.90664.1073-1.43993.0436-.43307-.032-.56517-.4291-.95993-.2145-.21332-.3754-.53329-.3754-.85327v-.85327c0-.26665-.2146-.47997-.4291-.5333-.6436-.15998-1.9845-.42663-3.9153-.42663-1.9309 0-3.2718.26665-3.9154.42663-.2682.05333-.4291.26665-.4291.5333v.85327c0 .31998-.1072.63995-.3754.85327l-.1609.15999c-.2146.15999-.3218.47996-.3218.74661.0536.58662.1072 1.43986.1072 1.43986-.0165 0-.0328-.0005-.049-.0016-.2997-.02052-.5437-.22806-.5946-.53163l-.58996-3.03978c-.10727-.85327.32176-1.70654 1.07266-2.07984l.4291-.21332c.2682-.15999.5364-.37331.8045-.58662l.9655-1.01327c.59-.53329 1.4481-.69328 2.199-.31997.5363.15999 1.1263.15999 1.6627 0 .8045-.26665 1.7163-.05333 2.3599.53329l.8045.79994c.2146.26665.4828.42664.8046.58663z" fill="#ebcc94"/><path d="m20.7948 4.15383.429.21332c.7509.3733 1.18 1.22657 1.0191 2.13317l-.59 3.03978c-.0526.31394-.2601.5252-.5719.5331-.006.0001-.012.0002-.0181.0002 0 0 .0537-.90664.1073-1.43993.0436-.43307-.032-.56517-.4291-.95993-.2145-.21332-.3754-.53329-.3754-.85327v-.85327c0-.26665-.2146-.47997-.4291-.5333-.6436-.15998-1.9845-.42663-3.9153-.42663-1.9309 0-3.2718.26665-3.9154.42663-.2682.05333-.4291.26665-.4291.5333v.85327c0 .31998-.1072.63995-.3754.85327l-.1609.15999c-.2146.15999-.3218.47996-.3218.74661.0536.58662.1072 1.43986.1072 1.43986-.0165 0-.0328-.0005-.049-.0016-.2997-.02052-.5437-.22806-.5946-.53163l-.58996-3.03978c-.10727-.85327.32176-1.70654 1.07266-2.07984l.4291-.21332c.2682-.15999.5364-.37331.8045-.58662l.9655-1.01327c.59-.53329 1.4481-.69328 2.199-.31997.5363.15999 1.1263.15999 1.6627 0 .8045-.26665 1.7163-.05333 2.3599.53329l.8045.79994c.2146.26665.4828.42664.8046.58663z" fill="url(#ad)"/><path d="m20.7948 4.15383.429.21332c.7509.3733 1.18 1.22657 1.0191 2.13317l-.59 3.03978c-.0526.31394-.2601.5252-.5719.5331-.006.0001-.012.0002-.0181.0002 0 0 .0537-.90664.1073-1.43993.0436-.43307-.032-.56517-.4291-.95993-.2145-.21332-.3754-.53329-.3754-.85327v-.85327c0-.26665-.2146-.47997-.4291-.5333-.6436-.15998-1.9845-.42663-3.9153-.42663-1.9309 0-3.2718.26665-3.9154.42663-.2682.05333-.4291.26665-.4291.5333v.85327c0 .31998-.1072.63995-.3754.85327l-.1609.15999c-.2146.15999-.3218.47996-.3218.74661.0536.58662.1072 1.43986.1072 1.43986-.0165 0-.0328-.0005-.049-.0016-.2997-.02052-.5437-.22806-.5946-.53163l-.58996-3.03978c-.10727-.85327.32176-1.70654 1.07266-2.07984l.4291-.21332c.2682-.15999.5364-.37331.8045-.58662l.9655-1.01327c.59-.53329 1.4481-.69328 2.199-.31997.5363.15999 1.1263.15999 1.6627 0 .8045-.26665 1.7163-.05333 2.3599.53329l.8045.79994c.2146.26665.4828.42664.8046.58663z" fill="url(#ae)"/><path d="m20.7948 4.15383.429.21332c.7509.3733 1.18 1.22657 1.0191 2.13317l-.59 3.03978c-.0526.31394-.2601.5252-.5719.5331-.006.0001-.012.0002-.0181.0002 0 0 .0537-.90664.1073-1.43993.0436-.43307-.032-.56517-.4291-.95993-.2145-.21332-.3754-.53329-.3754-.85327v-.85327c0-.26665-.2146-.47997-.4291-.5333-.6436-.15998-1.9845-.42663-3.9153-.42663-1.9309 0-3.2718.26665-3.9154.42663-.2682.05333-.4291.26665-.4291.5333v.85327c0 .31998-.1072.63995-.3754.85327l-.1609.15999c-.2146.15999-.3218.47996-.3218.74661.0536.58662.1072 1.43986.1072 1.43986-.0165 0-.0328-.0005-.049-.0016-.2997-.02052-.5437-.22806-.5946-.53163l-.58996-3.03978c-.10727-.85327.32176-1.70654 1.07266-2.07984l.4291-.21332c.2682-.15999.5364-.37331.8045-.58662l.9655-1.01327c.59-.53329 1.4481-.69328 2.199-.31997.5363.15999 1.1263.15999 1.6627 0 .8045-.26665 1.7163-.05333 2.3599.53329l.8045.79994c.2146.26665.4828.42664.8046.58663z" fill="url(#af)"/><path d="m20.7948 4.15383.429.21332c.7509.3733 1.18 1.22657 1.0191 2.13317l-.59 3.03978c-.0526.31394-.2601.5252-.5719.5331-.006.0001-.012.0002-.0181.0002 0 0 .0537-.90664.1073-1.43993.0436-.43307-.032-.56517-.4291-.95993-.2145-.21332-.3754-.53329-.3754-.85327v-.85327c0-.26665-.2146-.47997-.4291-.5333-.6436-.15998-1.9845-.42663-3.9153-.42663-1.9309 0-3.2718.26665-3.9154.42663-.2682.05333-.4291.26665-.4291.5333v.85327c0 .31998-.1072.63995-.3754.85327l-.1609.15999c-.2146.15999-.3218.47996-.3218.74661.0536.58662.1072 1.43986.1072 1.43986-.0165 0-.0328-.0005-.049-.0016-.2997-.02052-.5437-.22806-.5946-.53163l-.58996-3.03978c-.10727-.85327.32176-1.70654 1.07266-2.07984l.4291-.21332c.2682-.15999.5364-.37331.8045-.58662l.9655-1.01327c.59-.53329 1.4481-.69328 2.199-.31997.5363.15999 1.1263.15999 1.6627 0 .8045-.26665 1.7163-.05333 2.3599.53329l.8045.79994c.2146.26665.4828.42664.8046.58663z" fill="url(#ag)"/><path d="m20.7948 4.15383.429.21332c.7509.3733 1.18 1.22657 1.0191 2.13317l-.59 3.03978c-.0526.31394-.2601.5252-.5719.5331-.006.0001-.012.0002-.0181.0002 0 0 .0537-.90664.1073-1.43993.0436-.43307-.032-.56517-.4291-.95993-.2145-.21332-.3754-.53329-.3754-.85327v-.85327c0-.26665-.2146-.47997-.4291-.5333-.6436-.15998-1.9845-.42663-3.9153-.42663-1.9309 0-3.2718.26665-3.9154.42663-.2682.05333-.4291.26665-.4291.5333v.85327c0 .31998-.1072.63995-.3754.85327l-.1609.15999c-.2146.15999-.3218.47996-.3218.74661.0536.58662.1072 1.43986.1072 1.43986-.0165 0-.0328-.0005-.049-.0016-.2997-.02052-.5437-.22806-.5946-.53163l-.58996-3.03978c-.10727-.85327.32176-1.70654 1.07266-2.07984l.4291-.21332c.2682-.15999.5364-.37331.8045-.58662l.9655-1.01327c.59-.53329 1.4481-.69328 2.199-.31997.5363.15999 1.1263.15999 1.6627 0 .8045-.26665 1.7163-.05333 2.3599.53329l.8045.79994c.2146.26665.4828.42664.8046.58663z" fill="url(#ah)"/></g><path d="m20.7948 4.15383.429.21332c.7509.3733 1.18 1.22657 1.0191 2.13317l-.59 3.03978c-.0526.31394-.2601.5252-.5719.5331-.006.0001-.012.0002-.0181.0002 0 0 .0537-.90664.1073-1.43993.0436-.43307-.032-.56517-.4291-.95993-.2145-.21332-.3754-.53329-.3754-.85327v-.85327c0-.26665-.2146-.47997-.4291-.5333-.6436-.15998-1.9845-.42663-3.9153-.42663-1.9309 0-3.2718.26665-3.9154.42663-.2682.05333-.4291.26665-.4291.5333v.85327c0 .31998-.1072.63995-.3754.85327l-.1609.15999c-.2146.15999-.3218.47996-.3218.74661.0536.58662.1072 1.43986.1072 1.43986-.0165 0-.0328-.0005-.049-.0016-.2997-.02052-.5437-.22806-.5946-.53163l-.58996-3.03978c-.10727-.85327.32176-1.70654 1.07266-2.07984l.4291-.21332c.2682-.15999.5364-.37331.8045-.58662l.9655-1.01327c.59-.53329 1.4481-.69328 2.199-.31997.5363.15999 1.1263.15999 1.6627 0 .8045-.26665 1.7163-.05333 2.3599.53329l.8045.79994c.2146.26665.4828.42664.8046.58663z" fill="url(#ai)"/><path d="m20.7948 4.15383.429.21332c.7509.3733 1.18 1.22657 1.0191 2.13317l-.59 3.03978c-.0526.31394-.2601.5252-.5719.5331-.006.0001-.012.0002-.0181.0002 0 0 .0537-.90664.1073-1.43993.0436-.43307-.032-.56517-.4291-.95993-.2145-.21332-.3754-.53329-.3754-.85327v-.85327c0-.26665-.2146-.47997-.4291-.5333-.6436-.15998-1.9845-.42663-3.9153-.42663-1.9309 0-3.2718.26665-3.9154.42663-.2682.05333-.4291.26665-.4291.5333v.85327c0 .31998-.1072.63995-.3754.85327l-.1609.15999c-.2146.15999-.3218.47996-.3218.74661.0536.58662.1072 1.43986.1072 1.43986-.0165 0-.0328-.0005-.049-.0016-.2997-.02052-.5437-.22806-.5946-.53163l-.58996-3.03978c-.10727-.85327.32176-1.70654 1.07266-2.07984l.4291-.21332c.2682-.15999.5364-.37331.8045-.58662l.9655-1.01327c.59-.53329 1.4481-.69328 2.199-.31997.5363.15999 1.1263.15999 1.6627 0 .8045-.26665 1.7163-.05333 2.3599.53329l.8045.79994c.2146.26665.4828.42664.8046.58663z" fill="url(#aj)"/><g filter="url(#l)"><path d="m15.701 10.5089-.8203 1.6995c-.1017.3495.1423.6991.488.6991h.7372c.3457 0 .5897-.3549.4881-.6991l-.4983-1.6995c-.1067-.3765-.2829-.3765-.3947 0z" fill="#c68378"/></g><g filter="url(#m)"><path d="m15.5941 10.3458-.5313 1.6995c-.1084.3496.1518.6991.5204.6991h.7862c.3686 0 .6288-.3549.5204-.6991l-.5313-1.6995c-.1138-.37644-.6451-.37644-.7644 0z" fill="#e4ac8f"/><path d="m15.5941 10.3458-.5313 1.6995c-.1084.3496.1518.6991.5204.6991h.7862c.3686 0 .6288-.3549.5204-.6991l-.5313-1.6995c-.1138-.37644-.6451-.37644-.7644 0z" fill="url(#ak)"/><path d="m15.5941 10.3458-.5313 1.6995c-.1084.3496.1518.6991.5204.6991h.7862c.3686 0 .6288-.3549.5204-.6991l-.5313-1.6995c-.1138-.37644-.6451-.37644-.7644 0z" fill="url(#al)"/><path d="m15.5941 10.3458-.5313 1.6995c-.1084.3496.1518.6991.5204.6991h.7862c.3686 0 .6288-.3549.5204-.6991l-.5313-1.6995c-.1138-.37644-.6451-.37644-.7644 0z" fill="url(#am)"/></g><path d="m15.5941 10.3458-.5313 1.6995c-.1084.3496.1518.6991.5204.6991h.7862c.3686 0 .6288-.3549.5204-.6991l-.5313-1.6995c-.1138-.37644-.6451-.37644-.7644 0z" fill="url(#an)"/><path d="m14.6144 13.3882c.3934.2051.8623.3227 1.3619.3227.5046 0 .9684-.1176 1.3618-.3227l.0005-.0002c.09-.0458.1845-.0193.2413.0397.0574.0596.0785.155.0209.2414m-2.9864-.2809 2.9447.2533m-2.9447-.2533-.0005-.0002c-.0907-.0462-.1852-.0175-.2415.0418-.0566.0595-.0788.155-.0204.2397m.2624-.2813-.221.2533m3.2074.0276s-.0001.0001-.0001.0001l-.0416-.0277m.0417.0276v-.0001l-.0417-.0275m.0417.0276c-.3439.521-.9427.8681-1.6245.8681-.6817 0-1.2805-.347-1.6243-.8677m3.2071-.028c-.3348.5074-.9183.8457-1.5828.8457-.6646 0-1.2481-.3383-1.5829-.8457m-.0414.028c.0001.0001.0002.0003.0003.0005l.0411-.0285m-.0414.028c-.0001-.0002-.0002-.0003-.0003-.0005l.0417-.0275" fill="#88024e" stroke="url(#ao)" stroke-width=".1"/><g filter="url(#n)"><path d="m19.6955 7.9114-.0012-.00102-.0019-.00153-.0045-.00366-.012-.00953c-.0093-.00731-.0213-.01648-.0359-.02719-.0292-.02139-.069-.04905-.1189-.08031-.0996-.06236-.2409-.14006-.4197-.21074-.359-.14192-.8716-.25625-1.4926-.15819-.2911.04596-.4898.31922-.4439.61034.046.29112.3193.48985.6104.44389.3977-.06281.7162.01053.9337.0965.1094.04325.1926.08955.2455.1227.0263.0165.0448.02947.0547.03677.0042.00304.0068.00507.0079.00593.2264.18454.5597.15286.7471-.07205.1887-.22642.1577-.56323-.0687-.75191z" fill="#9a6634"/></g><g filter="url(#o)"><path d="m12.203 7.91172.0008-.00064.0008-.0007.0019-.00153.0045-.00366.012-.00953c.0093-.00731.0213-.01648.0359-.02719.0292-.02139.069-.04905.1189-.08031.0996-.06236.2409-.14006.4197-.21074.359-.14192.8716-.25625 1.4926-.15819.2911.04596.4898.31922.4439.61034-.046.29112-.3193.48985-.6104.44389-.3977-.06281-.7162.01053-.9337.0965-.1094.04325-.1926.08955-.2455.1227-.0264.0165-.0448.02947-.0547.03677-.0042.00304-.0068.00507-.0079.00593-.2264.18454-.5597.15286-.7471-.07205-.1887-.22642-.1581-.56291.0683-.75159z" fill="#9a6634"/></g><path d="m18.3638 9.20068c.6529 0 1.2045.45014 1.3545 1.05842.0446.1744-.0892.3407-.2676.3407h-2.2305c-.1419 0-.2554-.1298-.2271-.2717.1258-.64078.6895-1.12742 1.3707-1.12742z" fill="#fff"/><path d="m18.157 9.47241c.4947 0 .8921.40148.8921.89219 0 .0811-.0121.1622-.0324.2352h-1.7235c-.0203-.0771-.0325-.1541-.0325-.2352 0-.49071.4015-.89219.8963-.89219z" fill="url(#aq)"/><path d="m17.646 10.3645c0-.2839.2271-.51098.511-.51098.2838 0 .5109.22708.5109.51098 0 .0851-.0202.1663-.0567.2352h-.9044c-.0405-.0689-.0608-.1501-.0608-.2352z" fill="#000"/><g filter="url(#p)"><path d="m18.0914 9.66093c.0635.08501-.0693.18865-.2204.3016-.1511.11297-.2631.19247-.3267.10737-.0636-.08497.0074-.24545.1584-.35839.1511-.11295.3251-.1356.3887-.05058z" fill="#c7a7a3"/><path d="m18.0914 9.66093c.0635.08501-.0693.18865-.2204.3016-.1511.11297-.2631.19247-.3267.10737-.0636-.08497.0074-.24545.1584-.35839.1511-.11295.3251-.1356.3887-.05058z" fill="url(#as)"/></g><g filter="url(#q)"><path d="m18.9516 10.247c-.0329-.2307-.1679-.40449-.2312-.46258l-.2598.28518.1172.2281z" fill="url(#au)"/></g><path d="m13.5834 9.20068c-.6529 0-1.2045.45017-1.3545 1.05852-.0446.1744.0892.3406.2676.3406h2.2306c.1419 0 .2555-.1297.2271-.2717-.1258-.64075-.6935-1.12742-1.3708-1.12742z" fill="#fff"/><path d="m13.7903 9.47241c-.4948 0-.8922.4015-.8922.89219 0 .0811.0121.1622.0324.2352h1.7236c.0203-.077.0325-.1541.0325-.2352-.0041-.49069-.4015-.89219-.8963-.89219z" fill="url(#av)"/><path d="m14.3013 10.3645c0-.2839-.2271-.51098-.511-.51098s-.511.22708-.511.51098c0 .0852.0203.1663.0568.2352h.9044c.0365-.0689.0608-.15.0608-.2352z" fill="#000"/><g filter="url(#r)"><path d="m14.6053 10.2598c0-.28831-.2344-.48052-.2978-.53861l-.2883.27881.1774.3612z" fill="url(#aw)"/></g><g filter="url(#s)"><ellipse cx="13.521" cy="9.853" fill="#c7a7a3" fill-opacity=".9" rx=".389" ry=".197" transform="matrix(.88365127 -.46814574 .46814574 .88365127 -3.039674 7.476278)"/><ellipse cx="13.521" cy="9.853" fill="url(#ax)" rx=".389" ry=".197" transform="matrix(.88365127 -.46814574 .46814574 .88365127 -3.039674 7.476278)"/></g><g filter="url(#t)"><path d="m17.6367 7.76689c.4301-.07526 1.2687-.05376 1.8493.3978" stroke="url(#az)" stroke-linecap="round" stroke-width=".25"/></g><g filter="url(#u)"><path d="m12.4176 8.28538c.3272-.28913 1.0415-.59356 1.927-.45241" stroke="url(#aA)" stroke-linecap="round" stroke-width=".25"/></g></svg>