<svg fill="none" height="32" viewBox="0 0 32 32" width="32" xmlns="http://www.w3.org/2000/svg" xmlns:xlink="http://www.w3.org/1999/xlink"><filter id="a" color-interpolation-filters="sRGB" filterUnits="userSpaceOnUse" height="7.114" width="7.031" x="12.489" y="14.348"><feFlood flood-opacity="0" result="BackgroundImageFix"/><feBlend in="SourceGraphic" in2="BackgroundImageFix" mode="normal" result="shape"/><feGaussianBlur result="effect1_foregroundBlur_4002_2460" stdDeviation=".5"/></filter><filter id="b" color-interpolation-filters="sRGB" filterUnits="userSpaceOnUse" height="14.36" width="4.951" x="9.117" y="15.462"><feFlood flood-opacity="0" result="BackgroundImageFix"/><feBlend in="SourceGraphic" in2="BackgroundImageFix" mode="normal" result="shape"/><feGaussianBlur result="effect1_foregroundBlur_4002_2460" stdDeviation=".5"/></filter><filter id="c" color-interpolation-filters="sRGB" filterUnits="userSpaceOnUse" height="14.304" width="3.097" x="10.348" y="15.837"><feFlood flood-opacity="0" result="BackgroundImageFix"/><feBlend in="SourceGraphic" in2="BackgroundImageFix" mode="normal" result="shape"/><feColorMatrix in="SourceAlpha" result="hardAlpha" type="matrix" values="0 0 0 0 0 0 0 0 0 0 0 0 0 0 0 0 0 0 127 0"/><feOffset dx=".15"/><feGaussianBlur stdDeviation=".125"/><feComposite in2="hardAlpha" k2="-1" k3="1" operator="arithmetic"/><feColorMatrix type="matrix" values="0 0 0 0 0.388235 0 0 0 0 0.356863 0 0 0 0 0.470588 0 0 0 1 0"/><feBlend in2="shape" mode="normal" result="effect1_innerShadow_4002_2460"/><feColorMatrix in="SourceAlpha" result="hardAlpha" type="matrix" values="0 0 0 0 0 0 0 0 0 0 0 0 0 0 0 0 0 0 127 0"/><feOffset dx="-.15" dy=".15"/><feGaussianBlur stdDeviation=".125"/><feComposite in2="hardAlpha" k2="-1" k3="1" operator="arithmetic"/><feColorMatrix type="matrix" values="0 0 0 0 0.34902 0 0 0 0 0.290196 0 0 0 0 0.443137 0 0 0 1 0"/><feBlend in2="effect1_innerShadow_4002_2460" mode="normal" result="effect2_innerShadow_4002_2460"/></filter><filter id="d" color-interpolation-filters="sRGB" filterUnits="userSpaceOnUse" height="12.629" width="4.081" x="18.162" y="15.556"><feFlood flood-opacity="0" result="BackgroundImageFix"/><feBlend in="SourceGraphic" in2="BackgroundImageFix" mode="normal" result="shape"/><feGaussianBlur result="effect1_foregroundBlur_4002_2460" stdDeviation=".5"/></filter><filter id="e" color-interpolation-filters="sRGB" filterUnits="userSpaceOnUse" height="14.123" width="3.042" x="18.465" y="15.868"><feFlood flood-opacity="0" result="BackgroundImageFix"/><feBlend in="SourceGraphic" in2="BackgroundImageFix" mode="normal" result="shape"/><feColorMatrix in="SourceAlpha" result="hardAlpha" type="matrix" values="0 0 0 0 0 0 0 0 0 0 0 0 0 0 0 0 0 0 127 0"/><feOffset dx="-.25"/><feGaussianBlur stdDeviation=".25"/><feComposite in2="hardAlpha" k2="-1" k3="1" operator="arithmetic"/><feColorMatrix type="matrix" values="0 0 0 0 0.403922 0 0 0 0 0.372549 0 0 0 0 0.541176 0 0 0 1 0"/><feBlend in2="shape" mode="normal" result="effect1_innerShadow_4002_2460"/><feColorMatrix in="SourceAlpha" result="hardAlpha" type="matrix" values="0 0 0 0 0 0 0 0 0 0 0 0 0 0 0 0 0 0 127 0"/><feOffset dx="-.1"/><feGaussianBlur stdDeviation=".1"/><feComposite in2="hardAlpha" k2="-1" k3="1" operator="arithmetic"/><feColorMatrix type="matrix" values="0 0 0 0 0.380392 0 0 0 0 0.34902 0 0 0 0 0.552941 0 0 0 1 0"/><feBlend in2="effect1_innerShadow_4002_2460" mode="normal" result="effect2_innerShadow_4002_2460"/></filter><filter id="f" color-interpolation-filters="sRGB" filterUnits="userSpaceOnUse" height="3.342" width="3.542" x="9.552" y="8.882"><feFlood flood-opacity="0" result="BackgroundImageFix"/><feBlend in="SourceGraphic" in2="BackgroundImageFix" mode="normal" result="shape"/><feColorMatrix in="SourceAlpha" result="hardAlpha" type="matrix" values="0 0 0 0 0 0 0 0 0 0 0 0 0 0 0 0 0 0 127 0"/><feOffset dx=".2"/><feGaussianBlur stdDeviation=".15"/><feComposite in2="hardAlpha" k2="-1" k3="1" operator="arithmetic"/><feColorMatrix type="matrix" values="0 0 0 0 0.341176 0 0 0 0 0.270588 0 0 0 0 0.254902 0 0 0 1 0"/><feBlend in2="shape" mode="normal" result="effect1_innerShadow_4002_2460"/></filter><filter id="g" color-interpolation-filters="sRGB" filterUnits="userSpaceOnUse" height="2.992" width="2.992" x="9.728" y="9.057"><feFlood flood-opacity="0" result="BackgroundImageFix"/><feBlend in="SourceGraphic" in2="BackgroundImageFix" mode="normal" result="shape"/><feGaussianBlur result="effect1_foregroundBlur_4002_2460" stdDeviation=".25"/></filter><filter id="h" color-interpolation-filters="sRGB" filterUnits="userSpaceOnUse" height="3.592" width="3.592" x="19.075" y="8.632"><feFlood flood-opacity="0" result="BackgroundImageFix"/><feBlend in="SourceGraphic" in2="BackgroundImageFix" mode="normal" result="shape"/><feColorMatrix in="SourceAlpha" result="hardAlpha" type="matrix" values="0 0 0 0 0 0 0 0 0 0 0 0 0 0 0 0 0 0 127 0"/><feOffset dx=".25" dy="-.25"/><feGaussianBlur stdDeviation=".25"/><feComposite in2="hardAlpha" k2="-1" k3="1" operator="arithmetic"/><feColorMatrix type="matrix" values="0 0 0 0 0.243137 0 0 0 0 0.141176 0 0 0 0 0.223529 0 0 0 1 0"/><feBlend in2="shape" mode="normal" result="effect1_innerShadow_4002_2460"/></filter><filter id="i" color-interpolation-filters="sRGB" filterUnits="userSpaceOnUse" height="2.992" width="2.992" x="19.25" y="9.057"><feFlood flood-opacity="0" result="BackgroundImageFix"/><feBlend in="SourceGraphic" in2="BackgroundImageFix" mode="normal" result="shape"/><feGaussianBlur result="effect1_foregroundBlur_4002_2460" stdDeviation=".25"/></filter><filter id="j" color-interpolation-filters="sRGB" filterUnits="userSpaceOnUse" height="12.139" width="10.402" x="10.794" y="4.923"><feFlood flood-opacity="0" result="BackgroundImageFix"/><feBlend in="SourceGraphic" in2="BackgroundImageFix" mode="normal" result="shape"/><feColorMatrix in="SourceAlpha" result="hardAlpha" type="matrix" values="0 0 0 0 0 0 0 0 0 0 0 0 0 0 0 0 0 0 127 0"/><feOffset dy=".1"/><feGaussianBlur stdDeviation=".075"/><feComposite in2="hardAlpha" k2="-1" k3="1" operator="arithmetic"/><feColorMatrix type="matrix" values="0 0 0 0 0.109804 0 0 0 0 0.0509804 0 0 0 0 0.0509804 0 0 0 1 0"/><feBlend in2="shape" mode="normal" result="effect1_innerShadow_4002_2460"/></filter><filter id="k" color-interpolation-filters="sRGB" filterUnits="userSpaceOnUse" height="4.184" width="3.262" x="14.106" y="9.398"><feFlood flood-opacity="0" result="BackgroundImageFix"/><feBlend in="SourceGraphic" in2="BackgroundImageFix" mode="normal" result="shape"/><feGaussianBlur result="effect1_foregroundBlur_4002_2460" stdDeviation=".375"/></filter><filter id="l" color-interpolation-filters="sRGB" filterUnits="userSpaceOnUse" height="3.184" width="2.379" x="14.787" y="9.735"><feFlood flood-opacity="0" result="BackgroundImageFix"/><feBlend in="SourceGraphic" in2="BackgroundImageFix" mode="normal" result="shape"/><feGaussianBlur result="effect1_foregroundBlur_4002_2460" stdDeviation=".125"/></filter><filter id="m" color-interpolation-filters="sRGB" filterUnits="userSpaceOnUse" height=".697" width=".787" x="17.422" y="9.431"><feFlood flood-opacity="0" result="BackgroundImageFix"/><feBlend in="SourceGraphic" in2="BackgroundImageFix" mode="normal" result="shape"/><feGaussianBlur result="effect1_foregroundBlur_4002_2460" stdDeviation=".05"/></filter><filter id="n" color-interpolation-filters="sRGB" filterUnits="userSpaceOnUse" height=".914" width=".892" x="18.263" y="9.506"><feFlood flood-opacity="0" result="BackgroundImageFix"/><feBlend in="SourceGraphic" in2="BackgroundImageFix" mode="normal" result="shape"/><feGaussianBlur result="effect1_foregroundBlur_4002_2460" stdDeviation=".1"/></filter><filter id="o" color-interpolation-filters="sRGB" filterUnits="userSpaceOnUse" height="1.041" width=".987" x="13.817" y="9.442"><feFlood flood-opacity="0" result="BackgroundImageFix"/><feBlend in="SourceGraphic" in2="BackgroundImageFix" mode="normal" result="shape"/><feGaussianBlur result="effect1_foregroundBlur_4002_2460" stdDeviation=".1"/></filter><filter id="p" color-interpolation-filters="sRGB" filterUnits="userSpaceOnUse" height=".705" width=".914" x="13.061" y="9.422"><feFlood flood-opacity="0" result="BackgroundImageFix"/><feBlend in="SourceGraphic" in2="BackgroundImageFix" mode="normal" result="shape"/><feGaussianBlur result="effect1_foregroundBlur_4002_2460" stdDeviation=".05"/></filter><filter id="q" color-interpolation-filters="sRGB" filterUnits="userSpaceOnUse" height="8.1" width="12.614" x="9.678" y="1.903"><feFlood flood-opacity="0" result="BackgroundImageFix"/><feBlend in="SourceGraphic" in2="BackgroundImageFix" mode="normal" result="shape"/><feColorMatrix in="SourceAlpha" result="hardAlpha" type="matrix" values="0 0 0 0 0 0 0 0 0 0 0 0 0 0 0 0 0 0 127 0"/><feOffset dy="-.5"/><feGaussianBlur stdDeviation=".375"/><feComposite in2="hardAlpha" k2="-1" k3="1" operator="arithmetic"/><feColorMatrix type="matrix" values="0 0 0 0 0.0392157 0 0 0 0 0.00784314 0 0 0 0 0.0196078 0 0 0 1 0"/><feBlend in2="shape" mode="normal" result="effect1_innerShadow_4002_2460"/></filter><filter id="r" color-interpolation-filters="sRGB" filterUnits="userSpaceOnUse" height="2.58" width="2.735" x="14.632" y="18.463"><feFlood flood-opacity="0" result="BackgroundImageFix"/><feBlend in="SourceGraphic" in2="BackgroundImageFix" mode="normal" result="shape"/><feColorMatrix in="SourceAlpha" result="hardAlpha" type="matrix" values="0 0 0 0 0 0 0 0 0 0 0 0 0 0 0 0 0 0 127 0"/><feOffset dx=".1" dy="-.1"/><feGaussianBlur stdDeviation=".25"/><feComposite in2="hardAlpha" k2="-1" k3="1" operator="arithmetic"/><feColorMatrix type="matrix" values="0 0 0 0 0.2 0 0 0 0 0.152941 0 0 0 0 0.25098 0 0 0 1 0"/><feBlend in2="shape" mode="normal" result="effect1_innerShadow_4002_2460"/><feColorMatrix in="SourceAlpha" result="hardAlpha" type="matrix" values="0 0 0 0 0 0 0 0 0 0 0 0 0 0 0 0 0 0 127 0"/><feOffset dx="-.1" dy="-.1"/><feGaussianBlur stdDeviation=".25"/><feComposite in2="hardAlpha" k2="-1" k3="1" operator="arithmetic"/><feColorMatrix type="matrix" values="0 0 0 0 0.2 0 0 0 0 0.152941 0 0 0 0 0.25098 0 0 0 1 0"/><feBlend in2="effect1_innerShadow_4002_2460" mode="normal" result="effect2_innerShadow_4002_2460"/></filter><filter id="s" color-interpolation-filters="sRGB" filterUnits="userSpaceOnUse" height="1.346" width="3.151" x="20.534" y="19.636"><feFlood flood-opacity="0" result="BackgroundImageFix"/><feBlend in="SourceGraphic" in2="BackgroundImageFix" mode="normal" result="shape"/><feGaussianBlur result="effect1_foregroundBlur_4002_2460" stdDeviation=".1"/></filter><filter id="t" color-interpolation-filters="sRGB" filterUnits="userSpaceOnUse" height="1.03" width="2.881" x="20.734" y="19.731"><feFlood flood-opacity="0" result="BackgroundImageFix"/><feBlend in="SourceGraphic" in2="BackgroundImageFix" mode="normal" result="shape"/><feColorMatrix in="SourceAlpha" result="hardAlpha" type="matrix" values="0 0 0 0 0 0 0 0 0 0 0 0 0 0 0 0 0 0 127 0"/><feOffset dy="-.05"/><feGaussianBlur stdDeviation=".05"/><feComposite in2="hardAlpha" k2="-1" k3="1" operator="arithmetic"/><feColorMatrix type="matrix" values="0 0 0 0 0.823529 0 0 0 0 0.529412 0 0 0 0 0.192157 0 0 0 1 0"/><feBlend in2="shape" mode="normal" result="effect1_innerShadow_4002_2460"/><feColorMatrix in="SourceAlpha" result="hardAlpha" type="matrix" values="0 0 0 0 0 0 0 0 0 0 0 0 0 0 0 0 0 0 127 0"/><feOffset dy=".05"/><feGaussianBlur stdDeviation=".05"/><feComposite in2="hardAlpha" k2="-1" k3="1" operator="arithmetic"/><feColorMatrix type="matrix" values="0 0 0 0 0.980392 0 0 0 0 0.760784 0 0 0 0 0.313726 0 0 0 1 0"/><feBlend in2="effect1_innerShadow_4002_2460" mode="normal" result="effect2_innerShadow_4002_2460"/></filter><filter id="u" color-interpolation-filters="sRGB" filterUnits="userSpaceOnUse" height="2.77" width="10.9" x="10.555" y="6.131"><feFlood flood-opacity="0" result="BackgroundImageFix"/><feBlend in="SourceGraphic" in2="BackgroundImageFix" mode="normal" result="shape"/><feColorMatrix in="SourceAlpha" result="hardAlpha" type="matrix" values="0 0 0 0 0 0 0 0 0 0 0 0 0 0 0 0 0 0 127 0"/><feOffset dy="-.2"/><feGaussianBlur stdDeviation=".1"/><feComposite in2="hardAlpha" k2="-1" k3="1" operator="arithmetic"/><feColorMatrix type="matrix" values="0 0 0 0 0.286275 0 0 0 0 0.168627 0 0 0 0 0.34902 0 0 0 1 0"/><feBlend in2="shape" mode="normal" result="effect1_innerShadow_4002_2460"/></filter><filter id="v" color-interpolation-filters="sRGB" filterUnits="userSpaceOnUse" height="2.64" width="4.831" x="13.59" y="2.882"><feFlood flood-opacity="0" result="BackgroundImageFix"/><feBlend in="SourceGraphic" in2="BackgroundImageFix" mode="normal" result="shape"/><feGaussianBlur result="effect1_foregroundBlur_4002_2460" stdDeviation=".125"/></filter><filter id="w" color-interpolation-filters="sRGB" filterUnits="userSpaceOnUse" height="1.21" width="2.293" x="13.861" y="3.031"><feFlood flood-opacity="0" result="BackgroundImageFix"/><feBlend in="SourceGraphic" in2="BackgroundImageFix" mode="normal" result="shape"/><feColorMatrix in="SourceAlpha" result="hardAlpha" type="matrix" values="0 0 0 0 0 0 0 0 0 0 0 0 0 0 0 0 0 0 127 0"/><feOffset dx="-.05"/><feGaussianBlur stdDeviation=".05"/><feComposite in2="hardAlpha" k2="-1" k3="1" operator="arithmetic"/><feColorMatrix type="matrix" values="0 0 0 0 0.905882 0 0 0 0 0.65098 0 0 0 0 0.309804 0 0 0 1 0"/><feBlend in2="shape" mode="normal" result="effect1_innerShadow_4002_2460"/></filter><filter id="x" color-interpolation-filters="sRGB" filterUnits="userSpaceOnUse" height="1.22" width="2.298" x="15.944" y="3.021"><feFlood flood-opacity="0" result="BackgroundImageFix"/><feBlend in="SourceGraphic" in2="BackgroundImageFix" mode="normal" result="shape"/><feColorMatrix in="SourceAlpha" result="hardAlpha" type="matrix" values="0 0 0 0 0 0 0 0 0 0 0 0 0 0 0 0 0 0 127 0"/><feOffset dx="-.05"/><feGaussianBlur stdDeviation=".05"/><feComposite in2="hardAlpha" k2="-1" k3="1" operator="arithmetic"/><feColorMatrix type="matrix" values="0 0 0 0 0.960784 0 0 0 0 0.752941 0 0 0 0 0.317647 0 0 0 1 0"/><feBlend in2="shape" mode="normal" result="effect1_innerShadow_4002_2460"/></filter><filter id="y" color-interpolation-filters="sRGB" filterUnits="userSpaceOnUse" height="1.63" width="1.63" x="15.295" y="3.531"><feFlood flood-opacity="0" result="BackgroundImageFix"/><feBlend in="SourceGraphic" in2="BackgroundImageFix" mode="normal" result="shape"/><feColorMatrix in="SourceAlpha" result="hardAlpha" type="matrix" values="0 0 0 0 0 0 0 0 0 0 0 0 0 0 0 0 0 0 127 0"/><feOffset dx=".05" dy="-.05"/><feGaussianBlur stdDeviation=".2"/><feComposite in2="hardAlpha" k2="-1" k3="1" operator="arithmetic"/><feColorMatrix type="matrix" values="0 0 0 0 0.698039 0 0 0 0 0.4 0 0 0 0 0.121569 0 0 0 1 0"/><feBlend in2="shape" mode="normal" result="effect1_innerShadow_4002_2460"/></filter><linearGradient id="z" gradientUnits="userSpaceOnUse" x1="16" x2="16" y1="15.501" y2="30.001"><stop offset="0" stop-color="#584c78"/><stop offset="1" stop-color="#5a4b85"/></linearGradient><radialGradient id="A" cx="0" cy="0" gradientTransform="matrix(-4.03125 0 0 -12.2293 23.2237 24.4035)" gradientUnits="userSpaceOnUse" r="1"><stop offset=".202" stop-color="#7d77a7"/><stop offset="1" stop-color="#6b629a" stop-opacity="0"/></radialGradient><radialGradient id="B" cx="0" cy="0" gradientTransform="matrix(0 -10.4916 2.16348 0 25.0625 30.0006)" gradientUnits="userSpaceOnUse" r="1"><stop offset=".24" stop-color="#7d72a2"/><stop offset="1" stop-color="#6e658c"/></radialGradient><radialGradient id="C" cx="0" cy="0" gradientTransform="matrix(0 -13.6896 .718704 0 23.1301 30.0006)" gradientUnits="userSpaceOnUse" r="1"><stop offset=".304" stop-color="#4f4175"/><stop offset="1" stop-color="#514476" stop-opacity="0"/></radialGradient><radialGradient id="D" cx="0" cy="0" gradientTransform="matrix(0 -9.94746 4.23507 0 6.61541 30.0006)" gradientUnits="userSpaceOnUse" r="1"><stop offset=".26" stop-color="#5a4b81"/><stop offset="1" stop-color="#524a68"/></radialGradient><linearGradient id="E" gradientUnits="userSpaceOnUse" x1="9.135" x2="6.942" y1="27.817" y2="27.817"><stop offset=".124" stop-color="#443a60"/><stop offset="1" stop-color="#524c6a" stop-opacity="0"/></linearGradient><radialGradient id="F" cx="0" cy="0" gradientTransform="matrix(-3.70333 0 0 -15.6939 8.70827 29.6367)" gradientUnits="userSpaceOnUse" r="1"><stop offset=".741" stop-color="#6e638c" stop-opacity="0"/><stop offset="1" stop-color="#6e638c"/></radialGradient><radialGradient id="G" cx="0" cy="0" gradientTransform="matrix(0 7.91012 -3.40129 0 16 23.0558)" gradientUnits="userSpaceOnUse" r="1"><stop offset=".563" stop-color="#c7bbd0"/><stop offset="1" stop-color="#a9a0b2"/></radialGradient><linearGradient id="H" gradientUnits="userSpaceOnUse" x1="16.505" x2="16.505" y1="30.466" y2="28.997"><stop offset="0" stop-color="#c2aadc"/><stop offset="1" stop-color="#c2aadc" stop-opacity="0"/></linearGradient><linearGradient id="I" gradientUnits="userSpaceOnUse" x1="19.067" x2="17.161" y1="26.56" y2="26.56"><stop offset="0" stop-color="#80728b"/><stop offset="1" stop-color="#80728b" stop-opacity="0"/></linearGradient><radialGradient id="J" cx="0" cy="0" gradientTransform="matrix(0 -1.1875 .462518 0 18.2549 30.216)" gradientUnits="userSpaceOnUse" r="1"><stop offset="0" stop-color="#ad91ca"/><stop offset="1" stop-color="#ad91ca" stop-opacity="0"/></radialGradient><radialGradient id="K" cx="0" cy="0" gradientTransform="matrix(0 9.70312 -1.55313 0 15.9909 21.0439)" gradientUnits="userSpaceOnUse" r="1"><stop offset=".006" stop-color="#59416c"/><stop offset=".907" stop-color="#3a3045"/></radialGradient><linearGradient id="L" gradientUnits="userSpaceOnUse" x1="13.295" x2="13.295" y1="29.372" y2="15.837"><stop offset="0" stop-color="#605388"/><stop offset="1" stop-color="#564973"/></linearGradient><radialGradient id="M" cx="0" cy="0" gradientTransform="matrix(-1.95216592 3.03125952 -3.40135183 -2.19050961 13.8487 16.2472)" gradientUnits="userSpaceOnUse" r="1"><stop offset="0" stop-color="#483555"/><stop offset="1" stop-color="#483555" stop-opacity="0"/></radialGradient><radialGradient id="N" cx="0" cy="0" gradientTransform="matrix(0 4.08638 -1.3984 0 13.2949 23.2202)" gradientUnits="userSpaceOnUse" r="1"><stop offset="0" stop-color="#615589"/><stop offset="1" stop-color="#615589" stop-opacity="0"/></radialGradient><linearGradient id="O" gradientUnits="userSpaceOnUse" x1="13.295" x2="13.295" y1="29.69" y2="23.356"><stop offset=".306" stop-color="#5d4f84"/><stop offset="1" stop-color="#5d4f84" stop-opacity="0"/></linearGradient><linearGradient id="P" gradientUnits="userSpaceOnUse" x1="18.715" x2="19.724" y1="20.747" y2="20.747"><stop offset="0" stop-color="#56466e"/><stop offset="1" stop-color="#625990"/></linearGradient><radialGradient id="Q" cx="0" cy="0" gradientTransform="matrix(.81250013 1.37955522 -1.68940024 .99498585 19.0362 15.8677)" gradientUnits="userSpaceOnUse" r="1"><stop offset="0" stop-color="#504069"/><stop offset="1" stop-color="#504069" stop-opacity="0"/></radialGradient><radialGradient id="R" cx="0" cy="0" gradientTransform="matrix(0 4.15625 -4.85106 0 16.005 18.6896)" gradientUnits="userSpaceOnUse" r="1"><stop offset=".519" stop-color="#c9c0d4"/><stop offset="1" stop-color="#6d6675"/></radialGradient><radialGradient id="S" cx="0" cy="0" gradientTransform="matrix(-.99999225 -.96875536 2.18982867 -2.26043827 15.2393 19.6847)" gradientUnits="userSpaceOnUse" r="1"><stop offset="0" stop-color="#d0c1d9"/><stop offset="1" stop-color="#d0c1d9" stop-opacity="0"/></radialGradient><linearGradient id="T" gradientUnits="userSpaceOnUse" x1="13.583" x2="15.177" y1="16.56" y2="18.607"><stop offset="0" stop-color="#4e4852"/><stop offset="1" stop-color="#987a8d" stop-opacity="0"/><stop offset="1" stop-color="#4e4852" stop-opacity="0"/></linearGradient><linearGradient id="U" gradientUnits="userSpaceOnUse" x1="18.818" x2="17.747" y1="18.66" y2="18.66"><stop offset="0" stop-color="#665c72"/><stop offset="1" stop-color="#9c92a5" stop-opacity="0"/></linearGradient><radialGradient id="V" cx="0" cy="0" gradientTransform="matrix(0 2.0625 -1.9196 0 16.005 17.1535)" gradientUnits="userSpaceOnUse" r="1"><stop offset="0" stop-color="#35162b"/><stop offset="1" stop-color="#3c1b32"/></radialGradient><radialGradient id="W" cx="0" cy="0" gradientTransform="matrix(1.75652 0 0 3.07393 9.55243 10.5531)" gradientUnits="userSpaceOnUse" r="1"><stop offset=".351" stop-color="#362324"/><stop offset="1" stop-color="#332423"/></radialGradient><linearGradient id="X" gradientUnits="userSpaceOnUse" x1="11.223" x2="10.582" y1="10.832" y2="10.832"><stop offset="0" stop-color="#281920"/><stop offset="1" stop-color="#27161d"/></linearGradient><linearGradient id="Y" gradientUnits="userSpaceOnUse" x1="21.833" x2="21.014" y1="9.461" y2="11.999"><stop offset="0" stop-color="#635251"/><stop offset="1" stop-color="#452a31"/></linearGradient><radialGradient id="Z" cx="0" cy="0" gradientTransform="matrix(.82748317 -.60253551 .68771728 .94446628 21.1183 10.288)" gradientUnits="userSpaceOnUse" r="1"><stop offset=".543" stop-color="#40272a"/><stop offset="1" stop-color="#40272a" stop-opacity="0"/></radialGradient><radialGradient id="aa" cx="0" cy="0" gradientTransform="matrix(.82203845 -1.51196063 .8849597 .48114407 20.7045 11.3753)" gradientUnits="userSpaceOnUse" r="1"><stop offset=".755" stop-color="#31191a" stop-opacity="0"/><stop offset=".916" stop-color="#31191a"/></radialGradient><radialGradient id="ab" cx="0" cy="0" gradientTransform="matrix(.25953381 .25689915 -.33117857 .33457501 20.7459 10.5533)" gradientUnits="userSpaceOnUse" r="1"><stop offset="0" stop-color="#352123"/><stop offset="1" stop-color="#352123" stop-opacity="0"/></radialGradient><linearGradient id="ac" gradientUnits="userSpaceOnUse" x1="20.016" x2="12.372" y1="10.943" y2="12.082"><stop offset="0" stop-color="#533531"/><stop offset="1" stop-color="#3c2828"/></linearGradient><linearGradient id="ad" gradientUnits="userSpaceOnUse" x1="10.575" x2="12.842" y1="13.642" y2="13.5"><stop offset=".283" stop-color="#5d4d49"/><stop offset="1" stop-color="#5d4d49" stop-opacity="0"/></linearGradient><radialGradient id="ae" cx="0" cy="0" gradientTransform="matrix(0 7.13088 -8.29998 0 15.674 9.83174)" gradientUnits="userSpaceOnUse" r="1"><stop offset=".738" stop-color="#3f1c39" stop-opacity="0"/><stop offset=".947" stop-color="#3f1c39"/><stop offset="1" stop-color="#401943"/></radialGradient><radialGradient id="af" cx="0" cy="0" gradientTransform="matrix(0 -1.30832 1.61023 0 18.3242 9.28046)" gradientUnits="userSpaceOnUse" r="1"><stop offset="0" stop-color="#412628"/><stop offset="1" stop-color="#412628" stop-opacity="0"/></radialGradient><radialGradient id="ag" cx="0" cy="0" gradientTransform="matrix(0 -1.39218 1.7313 0 13.7619 9.24691)" gradientUnits="userSpaceOnUse" r="1"><stop offset="0" stop-color="#351d26"/><stop offset="1" stop-color="#351d26" stop-opacity="0"/></radialGradient><radialGradient id="ah" cx="0" cy="0" gradientTransform="matrix(0 2.80585 -4.88736 0 15.9954 8.13713)" gradientUnits="userSpaceOnUse" r="1"><stop offset=".204" stop-color="#2f1b26"/><stop offset="1" stop-color="#2f1b26" stop-opacity="0"/></radialGradient><linearGradient id="ai" gradientUnits="userSpaceOnUse" x1="15.111" x2="16.05" y1="11.603" y2="11.603"><stop offset="0" stop-color="#3d2928"/><stop offset="1" stop-color="#3d2928" stop-opacity="0"/></linearGradient><linearGradient id="aj" gradientUnits="userSpaceOnUse" x1="16.915" x2="15.889" y1="11.926" y2="11.911"><stop offset="0" stop-color="#624d4b"/><stop offset="1" stop-color="#624d4b" stop-opacity="0"/></linearGradient><linearGradient id="ak" gradientUnits="userSpaceOnUse" x1="16.171" x2="16.171" y1="12.669" y2="12.095"><stop offset="0" stop-color="#3f222f"/><stop offset="1" stop-color="#3f222f" stop-opacity="0"/></linearGradient><radialGradient id="al" cx="0" cy="0" gradientTransform="matrix(0 .197086 -.633192 0 16.3034 12.1614)" gradientUnits="userSpaceOnUse" r="1"><stop offset="0" stop-color="#624e4d"/><stop offset="1" stop-color="#624e4d" stop-opacity="0"/></radialGradient><linearGradient id="am" gradientUnits="userSpaceOnUse" x1="15.976" x2="15.976" y1="9.985" y2="10.798"><stop offset="0" stop-color="#3d262a"/><stop offset="1" stop-color="#3d262a" stop-opacity="0"/></linearGradient><linearGradient id="an" gradientUnits="userSpaceOnUse" x1="14.938" x2="15.373" y1="14.285" y2="13.597"><stop offset="0" stop-color="#564848"/><stop offset=".663" stop-color="#564848" stop-opacity="0"/></linearGradient><linearGradient id="ao"><stop offset=".802" stop-color="#7d574a"/><stop offset="1" stop-color="#694b43"/><stop offset="1" stop-color="#804d49"/><stop offset="1" stop-color="#664944"/></linearGradient><radialGradient id="ap" cx="0" cy="0" gradientTransform="matrix(0 .811899 -1.29142 0 18.1569 9.87043)" gradientUnits="userSpaceOnUse" r="1" xlink:href="#ao"/><linearGradient id="aq"><stop offset=".766" stop-color="#ffe6e2" stop-opacity="0"/><stop offset=".966" stop-color="#ffe6e2"/></linearGradient><radialGradient id="ar" cx="0" cy="0" gradientTransform="matrix(-.23208351 -.2990709 .41174845 -.31952298 17.9285 9.95481)" gradientUnits="userSpaceOnUse" r="1" xlink:href="#aq"/><linearGradient id="as"><stop offset="0" stop-color="#b4948d"/><stop offset="1" stop-color="#b4948d" stop-opacity="0"/></linearGradient><linearGradient id="at" gradientUnits="userSpaceOnUse" x1="18.935" x2="18.621" xlink:href="#as" y1="9.924" y2="10.118"/><radialGradient id="au" cx="0" cy="0" gradientTransform="matrix(0 .811941 -1.29148 0 13.7898 9.87046)" gradientUnits="userSpaceOnUse" r="1" xlink:href="#ao"/><linearGradient id="av" gradientUnits="userSpaceOnUse" x1="14.534" x2="14.22" xlink:href="#as" y1="9.924" y2="10.118"/><radialGradient id="aw" cx="0" cy="0" gradientTransform="matrix(-.00774133 -.4944364 .59433316 -.0093054 13.503 10.0899)" gradientUnits="userSpaceOnUse" r="1" xlink:href="#aq"/><radialGradient id="ax" cx="0" cy="0" gradientTransform="matrix(.79857116 -2.79038849 1.08822276 .31143453 20.3339 6.64559)" gradientUnits="userSpaceOnUse" r="1"><stop offset="0" stop-color="#464344"/><stop offset="1" stop-color="#464344" stop-opacity="0"/></radialGradient><radialGradient id="ay" cx="0" cy="0" gradientTransform="matrix(3.82845529 .33218875 -.16857098 1.9427704 18.6898 4.98465)" gradientUnits="userSpaceOnUse" r="1"><stop offset=".122" stop-color="#4a4648"/><stop offset="1" stop-color="#4a4648" stop-opacity="0"/></radialGradient><radialGradient id="az" cx="0" cy="0" gradientTransform="matrix(0 1.58476 -2.60303 0 15.9847 2.40332)" gradientUnits="userSpaceOnUse" r="1"><stop offset="0" stop-color="#423d3f"/><stop offset="1" stop-color="#423d3f" stop-opacity="0"/></radialGradient><radialGradient id="aA" cx="0" cy="0" gradientTransform="matrix(3.07685384 -2.126005 3.26719122 4.7284319 9.52971 8.83804)" gradientUnits="userSpaceOnUse" r="1"><stop offset="0" stop-color="#463c39"/><stop offset="1" stop-color="#463c39" stop-opacity="0"/></radialGradient><linearGradient id="aB" gradientUnits="userSpaceOnUse" x1="15.991" x2="15.991" y1="19.225" y2="20.922"><stop offset=".006" stop-color="#543555"/><stop offset="1" stop-color="#483a53"/></linearGradient><linearGradient id="aC" gradientUnits="userSpaceOnUse" x1="21.084" x2="22.88" y1="20.076" y2="20.711"><stop offset="0" stop-color="#e3ab3f"/><stop offset="1" stop-color="#ecac40"/></linearGradient><radialGradient id="aD" cx="0" cy="0" gradientTransform="matrix(-.31250239 4.27919441 -11.47135154 -.83773355 16.4853 1.99927)" gradientUnits="userSpaceOnUse" r="1"><stop offset=".267" stop-color="#5d4c6d"/><stop offset="1" stop-color="#3b3541"/></radialGradient><radialGradient id="aE" cx="0" cy="0" gradientTransform="matrix(-4.625 0 0 -1.29228 20.7978 4.30971)" gradientUnits="userSpaceOnUse" r="1"><stop offset=".078" stop-color="#635870"/><stop offset="1" stop-color="#635870" stop-opacity="0"/></radialGradient><radialGradient id="aF" cx="0" cy="0" gradientTransform="matrix(1.75085 0 0 2.31943 9.37909 4.74723)" gradientUnits="userSpaceOnUse" r="1"><stop offset="0" stop-color="#5d5a62"/><stop offset="1" stop-color="#3a3340" stop-opacity="0"/></radialGradient><radialGradient id="aG" cx="0" cy="0" gradientTransform="matrix(-.40624937 -3.49726368 14.54410247 -1.68947296 18.5987 8.90073)" gradientUnits="userSpaceOnUse" r="1"><stop offset=".064" stop-color="#695978"/><stop offset=".47" stop-color="#4f3e5f"/><stop offset="1" stop-color="#362c38"/></radialGradient><linearGradient id="aH" gradientUnits="userSpaceOnUse" x1="17.349" x2="11.13" y1="6.841" y2="6.841"><stop offset="0" stop-color="#e3ac3f"/><stop offset="1" stop-color="#b88538"/></linearGradient><radialGradient id="aI" cx="0" cy="0" gradientTransform="matrix(-4.43749978 -.53896116 .06545902 -.53895236 21.0987 6.0597)" gradientUnits="userSpaceOnUse" r="1"><stop offset="0" stop-color="#ffcf55"/><stop offset="1" stop-color="#ffcf55" stop-opacity="0"/></radialGradient><radialGradient id="aJ" cx="0" cy="0" gradientTransform="matrix(-3.90624331 -.59480908 .09008762 -.59162542 21.0987 7.06075)" gradientUnits="userSpaceOnUse" r="1"><stop offset=".278" stop-color="#eba026"/><stop offset="1" stop-color="#eba026" stop-opacity="0"/></radialGradient><linearGradient id="aK" gradientUnits="userSpaceOnUse" x1="16.091" x2="14.513" y1="4.161" y2="4.161"><stop offset="0" stop-color="#d19b3e"/><stop offset="1" stop-color="#e2a23d"/></linearGradient><radialGradient id="aL" cx="0" cy="0" gradientTransform="matrix(-.43957929 -.43957929 .69140618 -.69140618 15.6612 4.07534)" gradientUnits="userSpaceOnUse" r="1"><stop offset=".382" stop-color="#c47c25"/><stop offset="1" stop-color="#c47c25" stop-opacity="0"/></radialGradient><linearGradient id="aM" gradientUnits="userSpaceOnUse" x1="18.083" x2="16.597" y1="3.169" y2="4.161"><stop offset="0" stop-color="#e6ac3e"/><stop offset="1" stop-color="#e09037"/></linearGradient><radialGradient id="aN" cx="0" cy="0" gradientTransform="matrix(-.93750085 .96874442 -1.00461693 -.97221641 16.5831 4.04414)" gradientUnits="userSpaceOnUse" r="1"><stop offset="0" stop-color="#fcbb51"/><stop offset="1" stop-color="#ce8634"/></radialGradient><radialGradient id="aO" cx="0" cy="0" gradientTransform="matrix(.87499997 -.65625004 1.11000006 1.47999995 15.88 4.54414)" gradientUnits="userSpaceOnUse" r="1"><stop offset=".671" stop-color="#fcbb51" stop-opacity="0"/><stop offset="1" stop-color="#fcbb51"/></radialGradient><path d="m16.0049 15.5007c-6.06996 0-10.99996 4.92-10.99996 11v3.5h21.98996v-3.5c0-6.08-4.92-11-10.99-11z" fill="url(#z)"/><path d="m16.0049 15.5007c-6.06996 0-10.99996 4.92-10.99996 11v3.5h21.98996v-3.5c0-6.08-4.92-11-10.99-11z" fill="url(#A)"/><path d="m23.1301 18.1235v11.8771h3.8649v-3.5c0-3.3569-1.4998-6.3602-3.8649-8.3771z" fill="url(#B)"/><path d="m23.1301 18.1235v11.8771h3.8649v-3.5c0-3.3569-1.4998-6.3602-3.8649-8.3771z" fill="url(#C)"/><path d="m8.87999 30.0006v-11.8807c-2.37035 2.0168-3.87505 5.0218-3.87505 8.3807v3.5z" fill="url(#D)"/><path d="m8.87999 30.0006v-11.8807c-2.37035 2.0168-3.87505 5.0218-3.87505 8.3807v3.5z" fill="url(#E)"/><path d="m8.87999 30.0006v-11.8807c-2.37035 2.0168-3.87505 5.0218-3.87505 8.3807v3.5z" fill="url(#F)"/><path d="m18.705 16.1108h-5.41v13.89h5.41z" fill="url(#G)"/><path d="m18.705 16.1108h-5.41v13.89h5.41z" fill="url(#H)"/><path d="m18.705 16.1108h-5.41v13.89h5.41z" fill="url(#I)"/><path d="m18.705 16.1108h-5.41v13.89h5.41z" fill="url(#J)"/><g filter="url(#a)"><path d="m16.005 15.3479h-2.5156v4.74c0 .31.3342.49.5663.29l1.9493-1.67 1.9494 1.67c.232.2.5662.02.5662-.29v-4.74z" fill="#8f809c"/></g><path d="m15.5172 21.0439c-.1235 0-.2285.0902-.2472.2123l-1.335 8.7445h4.12l-1.3302-8.7444c-.0186-.1221-.1236-.2124-.2472-.2124z" fill="url(#K)"/><g filter="url(#b)"><path d="m12.795 16.4622c-.4606.1167-.3637.098-.7991.2708-.5409.7833-1.5467 2.1986-1.8509 2.8728-.09.19.05.41.26.41l1.1795-.1742c.24 0 .35.29.19.45l-1.3695 1.1964c-.26.26-.36.65-.23 1l2.8936 6.3339z" fill="#44375d"/></g><g filter="url(#c)"><path d="m13.2949 15.8372c-.4606.1167-.9096.2625-1.345.4353-.0117.0076-.0234.0137-.035.0183l-1.27 2.69c-.09.19.05.41.26.41h1.05c.24 0 .35.29.19.45l-1.36 1.33c-.26.26-.36.65-.23 1l2.73 7.82h.01z" fill="url(#L)"/><path d="m13.2949 15.8372c-.4606.1167-.9096.2625-1.345.4353-.0117.0076-.0234.0137-.035.0183l-1.27 2.69c-.09.19.05.41.26.41h1.05c.24 0 .35.29.19.45l-1.36 1.33c-.26.26-.36.65-.23 1l2.73 7.82h.01z" fill="url(#M)"/><path d="m13.2949 15.8372c-.4606.1167-.9096.2625-1.345.4353-.0117.0076-.0234.0137-.035.0183l-1.27 2.69c-.09.19.05.41.26.41h1.05c.24 0 .35.29.19.45l-1.36 1.33c-.26.26-.36.65-.23 1l2.73 7.82h.01z" fill="url(#N)"/></g><path d="m13.2949 15.8372c-.4606.1167-.9096.2625-1.345.4353-.0117.0076-.0234.0137-.035.0183l-1.27 2.69c-.09.19.05.41.26.41h1.05c.24 0 .35.29.19.45l-1.36 1.33c-.26.26-.36.65-.23 1l2.73 7.82h.01z" fill="url(#O)"/><g filter="url(#d)"><path d="m20.0551 20.479.4436 1.0494c.202.26.272.65.1787 1.01l-1.2957 4.6463-.2201-10.4457.0907-.1831c.3382.1155.6682.2571.9885.423l.9799 2.6401c.0699.19-.0389.41-.2021.41h-.8158c-.1865 0-.2798.28-.1477.45z" fill="#44375d"/></g><g filter="url(#e)"><path d="m19.8649 19.7908 1.36 1.33c.26.26.35.65.23 1.01l-2.74 7.86v-13.94l.1168-.1831c.4352.1155.8599.2571 1.2722.4229l1.261 2.6402c.09.19-.05.41-.26.41h-1.05c-.24 0-.36.28-.19.45z" fill="url(#P)"/><path d="m19.8649 19.7908 1.36 1.33c.26.26.35.65.23 1.01l-2.74 7.86v-13.94l.1168-.1831c.4352.1155.8599.2571 1.2722.4229l1.261 2.6402c.09.19-.05.41-.26.41h-1.05c-.24 0-.36.28-.19.45z" fill="url(#Q)"/></g><path d="m16.005 15.2844h-2.71v4.74c0 .31.36.49.61.29l2.1-1.67 2.1 1.67c.25.2.61.02.61-.29v-4.74z" fill="url(#R)"/><path d="m16.005 15.2844h-2.71v4.74c0 .31.36.49.61.29l2.1-1.67 2.1 1.67c.25.2.61.02.61-.29v-4.74z" fill="url(#S)"/><path d="m16.005 15.2844h-2.71v4.74c0 .31.36.49.61.29l2.1-1.67 2.1 1.67c.25.2.61.02.61-.29v-4.74z" fill="url(#T)"/><path d="m16.005 15.2844h-2.71v4.74c0 .31.36.49.61.29l2.1-1.67 2.1 1.67c.25.2.61.02.61-.29v-4.74z" fill="url(#U)"/><path d="m16.0049 18.4452c1.7891-.7878 1.9319-1.316 1.919-1.6994h-3.838c-.013.3834.2237.9702 1.919 1.6994z" fill="url(#V)"/><g filter="url(#f)"><circle cx="11.223" cy="10.553" fill="url(#W)" r="1.671"/></g><g filter="url(#g)"><circle cx="11.223" cy="10.553" fill="url(#X)" r=".996"/></g><g filter="url(#h)"><circle cx="20.746" cy="10.553" fill="url(#Y)" r="1.671"/><circle cx="20.746" cy="10.553" fill="url(#Z)" r="1.671"/></g><g filter="url(#i)"><circle cx="20.746" cy="10.553" fill="#463133" r=".996"/><circle cx="20.746" cy="10.553" fill="url(#aa)" r=".996"/><circle cx="20.746" cy="10.553" fill="url(#ab)" r=".996"/></g><g filter="url(#j)"><path d="m10.7944 8.4958c0-.26692.126-.58293.3408-.74308l.161-.16016c.2685-.21353.3759-.53384.3759-.85415v-.85415c0-.26692.161-.48046.4295-.53384.6443-.16016 1.9865-.42708 3.9194-.42708 1.9328 0 3.2751.26692 3.9194.42708.2147.05338.4295.26692.4295.53384v.85415c0 .32031.1611.64062.3758.85415.5026.35216.4713.54586.4295.96092-.0536.53385-.1073 1.44139-.1073 1.44139.006 0 .0121-.00008.0181-.00023l-.2661 3.96216c-.1607 1.7713-1.5532 3.0058-3.2134 3.0058h-3.2135c-1.7138 0-3.0527-1.2345-3.2134-3.0058-.1402-1.8262-.2789-3.6919-.3852-5.461z" fill="url(#ac)"/><path d="m10.7944 8.4958c0-.26692.126-.58293.3408-.74308l.161-.16016c.2685-.21353.3759-.53384.3759-.85415v-.85415c0-.26692.161-.48046.4295-.53384.6443-.16016 1.9865-.42708 3.9194-.42708 1.9328 0 3.2751.26692 3.9194.42708.2147.05338.4295.26692.4295.53384v.85415c0 .32031.1611.64062.3758.85415.5026.35216.4713.54586.4295.96092-.0536.53385-.1073 1.44139-.1073 1.44139.006 0 .0121-.00008.0181-.00023l-.2661 3.96216c-.1607 1.7713-1.5532 3.0058-3.2134 3.0058h-3.2135c-1.7138 0-3.0527-1.2345-3.2134-3.0058-.1402-1.8262-.2789-3.6919-.3852-5.461z" fill="url(#ad)"/><path d="m10.7944 8.4958c0-.26692.126-.58293.3408-.74308l.161-.16016c.2685-.21353.3759-.53384.3759-.85415v-.85415c0-.26692.161-.48046.4295-.53384.6443-.16016 1.9865-.42708 3.9194-.42708 1.9328 0 3.2751.26692 3.9194.42708.2147.05338.4295.26692.4295.53384v.85415c0 .32031.1611.64062.3758.85415.5026.35216.4713.54586.4295.96092-.0536.53385-.1073 1.44139-.1073 1.44139.006 0 .0121-.00008.0181-.00023l-.2661 3.96216c-.1607 1.7713-1.5532 3.0058-3.2134 3.0058h-3.2135c-1.7138 0-3.0527-1.2345-3.2134-3.0058-.1402-1.8262-.2789-3.6919-.3852-5.461z" fill="url(#ae)"/><path d="m10.7944 8.4958c0-.26692.126-.58293.3408-.74308l.161-.16016c.2685-.21353.3759-.53384.3759-.85415v-.85415c0-.26692.161-.48046.4295-.53384.6443-.16016 1.9865-.42708 3.9194-.42708 1.9328 0 3.2751.26692 3.9194.42708.2147.05338.4295.26692.4295.53384v.85415c0 .32031.1611.64062.3758.85415.5026.35216.4713.54586.4295.96092-.0536.53385-.1073 1.44139-.1073 1.44139.006 0 .0121-.00008.0181-.00023l-.2661 3.96216c-.1607 1.7713-1.5532 3.0058-3.2134 3.0058h-3.2135c-1.7138 0-3.0527-1.2345-3.2134-3.0058-.1402-1.8262-.2789-3.6919-.3852-5.461z" fill="url(#af)"/><path d="m10.7944 8.4958c0-.26692.126-.58293.3408-.74308l.161-.16016c.2685-.21353.3759-.53384.3759-.85415v-.85415c0-.26692.161-.48046.4295-.53384.6443-.16016 1.9865-.42708 3.9194-.42708 1.9328 0 3.2751.26692 3.9194.42708.2147.05338.4295.26692.4295.53384v.85415c0 .32031.1611.64062.3758.85415.5026.35216.4713.54586.4295.96092-.0536.53385-.1073 1.44139-.1073 1.44139.006 0 .0121-.00008.0181-.00023l-.2661 3.96216c-.1607 1.7713-1.5532 3.0058-3.2134 3.0058h-3.2135c-1.7138 0-3.0527-1.2345-3.2134-3.0058-.1402-1.8262-.2789-3.6919-.3852-5.461z" fill="url(#ag)"/><path d="m10.7944 8.4958c0-.26692.126-.58293.3408-.74308l.161-.16016c.2685-.21353.3759-.53384.3759-.85415v-.85415c0-.26692.161-.48046.4295-.53384.6443-.16016 1.9865-.42708 3.9194-.42708 1.9328 0 3.2751.26692 3.9194.42708.2147.05338.4295.26692.4295.53384v.85415c0 .32031.1611.64062.3758.85415.5026.35216.4713.54586.4295.96092-.0536.53385-.1073 1.44139-.1073 1.44139.006 0 .0121-.00008.0181-.00023l-.2661 3.96216c-.1607 1.7713-1.5532 3.0058-3.2134 3.0058h-3.2135c-1.7138 0-3.0527-1.2345-3.2134-3.0058-.1402-1.8262-.2789-3.6919-.3852-5.461z" fill="url(#ah)"/></g><g filter="url(#k)"><path d="m15.7003 10.4308-.8211 1.7013c-.1018.3499.1425.6998.4885.6998h.738c.346 0 .5903-.3553.4885-.6998l-.4987-1.7013c-.1069-.3768-.2832-.3768-.3952 0z" fill="#332024"/></g><g filter="url(#l)"><path d="m15.5933 10.2677-.5319 1.7013c-.1085.3499.152.6998.521.6998h.7869c.3691 0 .6296-.3553.521-.6998l-.5318-1.7013c-.114-.37681-.6458-.37681-.7652 0z" fill="#4b3034"/><path d="m15.5933 10.2677-.5319 1.7013c-.1085.3499.152.6998.521.6998h.7869c.3691 0 .6296-.3553.521-.6998l-.5318-1.7013c-.114-.37681-.6458-.37681-.7652 0z" fill="url(#ai)"/><path d="m15.5933 10.2677-.5319 1.7013c-.1085.3499.152.6998.521.6998h.7869c.3691 0 .6296-.3553.521-.6998l-.5318-1.7013c-.114-.37681-.6458-.37681-.7652 0z" fill="url(#aj)"/><path d="m15.5933 10.2677-.5319 1.7013c-.1085.3499.152.6998.521.6998h.7869c.3691 0 .6296-.3553.521-.6998l-.5318-1.7013c-.114-.37681-.6458-.37681-.7652 0z" fill="url(#ak)"/><path d="m15.5933 10.2677-.5319 1.7013c-.1085.3499.152.6998.521.6998h.7869c.3691 0 .6296-.3553.521-.6998l-.5318-1.7013c-.114-.37681-.6458-.37681-.7652 0z" fill="url(#al)"/><path d="m15.5933 10.2677-.5319 1.7013c-.1085.3499.152.6998.521.6998h.7869c.3691 0 .6296-.3553.521-.6998l-.5318-1.7013c-.114-.37681-.6458-.37681-.7652 0z" fill="url(#am)"/></g><path d="m14.6126 13.313c.3938.2053.8632.323 1.3633.323.5051 0 .9695-.1177 1.3633-.323l.0005-.0002c.0901-.0458.1846-.0193.2415.0397.0574.0597.0785.1551.0209.2416m-2.9895-.2811 2.9478.2535m-2.9478-.2535-.0005-.0002c-.0908-.0462-.1854-.0175-.2417.0419-.0566.0595-.0789.155-.0204.2398m.2626-.2815-.2212.2535m3.2107.0276c-.0001.0001-.0001.0001-.0001.0001l-.0416-.0277m.0417.0276s0 0 0-.0001l-.0417-.0275m.0417.0276c-.3442.5216-.9437.869-1.6262.869-.6824 0-1.2817-.3473-1.6259-.8686m3.2104-.028c-.3352.508-.9192.8466-1.5845.8466s-1.2493-.3386-1.5845-.8466m-.0414.028c.0001.0002.0002.0003.0003.0005l.0411-.0285m-.0414.028c-.0001-.0002-.0002-.0003-.0003-.0005l.0417-.0275" fill="#2a0219" stroke="url(#an)" stroke-width=".1"/><path d="m18.3659 9.12109c.6536 0 1.2057.45061 1.3559 1.05951.0447.1746-.0893.341-.2679.341h-2.2327c-.1421 0-.2558-.1299-.2274-.272.1259-.64137.6901-1.12851 1.3721-1.12851z" fill="#fff"/><path d="m18.1589 9.39307c.4953 0 .8931.40189.8931.89313 0 .0811-.0122.1623-.0325.2354h-1.7252c-.0203-.0771-.0325-.1543-.0325-.2354 0-.49124.4019-.89313.8971-.89313z" fill="url(#ap)"/><path d="m17.6474 10.2862c0-.2842.2273-.51154.5115-.51154s.5115.22734.5115.51154c0 .0852-.0203.1664-.0568.2354h-.9053c-.0406-.069-.0609-.1502-.0609-.2354z" fill="#000"/><g filter="url(#m)"><path d="m18.0932 9.58205c.0636.0851-.0694.18885-.2206.30191-.1512.11307-.2634.19264-.327.10753-.0637-.0851.0073-.24574.1586-.35881.1512-.11306.3254-.13573.389-.05063z" fill="#c7a7a3"/><path d="m18.0932 9.58205c.0636.0851-.0694.18885-.2206.30191-.1512.11307-.2634.19264-.327.10753-.0637-.0851.0073-.24574.1586-.35881.1512-.11306.3254-.13573.389-.05063z" fill="url(#ar)"/></g><g filter="url(#n)"><path d="m18.9544 10.1686c-.033-.23088-.1681-.40489-.2315-.46303l-.2601.28543.1174.2283z" fill="url(#at)"/></g><path d="m13.5806 9.12109c-.6536 0-1.2057.45063-1.3559 1.05961-.0447.1745.0893.341.2679.341h2.2328c.1421 0 .2558-.1299.2274-.272-.1259-.64144-.6942-1.12861-1.3722-1.12861z" fill="#fff"/><path d="m13.7877 9.39307c-.4953 0-.8931.40191-.8931.89313 0 .0812.0122.1624.0325.2355h1.7253c.0203-.0772.0325-.1543.0325-.2355-.004-.49122-.4019-.89313-.8972-.89313z" fill="url(#au)"/><path d="m14.2992 10.2862c0-.2842-.2273-.51154-.5115-.51154s-.5115.22734-.5115.51154c0 .0852.0203.1664.0568.2354h.9053c.0366-.069.0609-.1502.0609-.2354z" fill="#000"/><g filter="url(#o)"><path d="m14.6037 10.1813c0-.28865-.2347-.48106-.2982-.53921l-.2886.2791.1776.36161z" fill="url(#av)"/></g><g filter="url(#p)"><ellipse cx="13.518" cy="9.775" fill="#c7a7a3" fill-opacity=".9" rx=".39" ry=".197" transform="matrix(.88365127 -.46814574 .46814574 .88365127 -3.003206 7.465773)"/><ellipse cx="13.518" cy="9.775" fill="url(#aw)" rx=".39" ry=".197" transform="matrix(.88365127 -.46814574 .46814574 .88365127 -3.003206 7.465773)"/></g><g filter="url(#q)"><path d="m20.8081 4.40747.4296.20135c.7516.35235 1.1811 1.15774 1.0201 2.01346l-.5906 2.86918c-.0527.29633-.2834.50469-.5955.51214.0357-.47532.0769-1.24992.0899-1.37112.0436-.40876-.0097-.53022-.4072-.90282-.2147-.20135-.3758-.50337-.3758-.80539v-.80538c0-.25169-.2147-.45303-.4295-.50337-.6443-.15101-1.9865-.40269-3.9194-.40269-1.9328 0-3.2751.25168-3.9194.40269-.2684.05034-.4295.25168-.4295.50337v.80538c0 .30202-.1074.60404-.3758.80539l-.1611.151c-.2148.15101-.3231.46649-.3231.71817.0142.14683.0353.99221.0592 1.34406-.3-.01933-.5442-.21523-.5952-.50176l-.59055-2.86919c-.10738-.80538.32215-1.61077 1.07385-1.96312 1.0146-.4194 1.3844-1.0561 2.2013-1.71145.5905-.50336 1.4496-.65437 2.2013-.30202.5369.15101 1.1274.15101 1.6644 0 .8053-.25168 1.718-.05033 2.3623.50337l.8054.75505c.2147.25168.4832.40269.8053.5537z" fill="#21181b"/><path d="m20.8081 4.40747.4296.20135c.7516.35235 1.1811 1.15774 1.0201 2.01346l-.5906 2.86918c-.0527.29633-.2834.50469-.5955.51214.0357-.47532.0769-1.24992.0899-1.37112.0436-.40876-.0097-.53022-.4072-.90282-.2147-.20135-.3758-.50337-.3758-.80539v-.80538c0-.25169-.2147-.45303-.4295-.50337-.6443-.15101-1.9865-.40269-3.9194-.40269-1.9328 0-3.2751.25168-3.9194.40269-.2684.05034-.4295.25168-.4295.50337v.80538c0 .30202-.1074.60404-.3758.80539l-.1611.151c-.2148.15101-.3231.46649-.3231.71817.0142.14683.0353.99221.0592 1.34406-.3-.01933-.5442-.21523-.5952-.50176l-.59055-2.86919c-.10738-.80538.32215-1.61077 1.07385-1.96312 1.0146-.4194 1.3844-1.0561 2.2013-1.71145.5905-.50336 1.4496-.65437 2.2013-.30202.5369.15101 1.1274.15101 1.6644 0 .8053-.25168 1.718-.05033 2.3623.50337l.8054.75505c.2147.25168.4832.40269.8053.5537z" fill="url(#ax)"/><path d="m20.8081 4.40747.4296.20135c.7516.35235 1.1811 1.15774 1.0201 2.01346l-.5906 2.86918c-.0527.29633-.2834.50469-.5955.51214.0357-.47532.0769-1.24992.0899-1.37112.0436-.40876-.0097-.53022-.4072-.90282-.2147-.20135-.3758-.50337-.3758-.80539v-.80538c0-.25169-.2147-.45303-.4295-.50337-.6443-.15101-1.9865-.40269-3.9194-.40269-1.9328 0-3.2751.25168-3.9194.40269-.2684.05034-.4295.25168-.4295.50337v.80538c0 .30202-.1074.60404-.3758.80539l-.1611.151c-.2148.15101-.3231.46649-.3231.71817.0142.14683.0353.99221.0592 1.34406-.3-.01933-.5442-.21523-.5952-.50176l-.59055-2.86919c-.10738-.80538.32215-1.61077 1.07385-1.96312 1.0146-.4194 1.3844-1.0561 2.2013-1.71145.5905-.50336 1.4496-.65437 2.2013-.30202.5369.15101 1.1274.15101 1.6644 0 .8053-.25168 1.718-.05033 2.3623.50337l.8054.75505c.2147.25168.4832.40269.8053.5537z" fill="url(#ay)"/><path d="m20.8081 4.40747.4296.20135c.7516.35235 1.1811 1.15774 1.0201 2.01346l-.5906 2.86918c-.0527.29633-.2834.50469-.5955.51214.0357-.47532.0769-1.24992.0899-1.37112.0436-.40876-.0097-.53022-.4072-.90282-.2147-.20135-.3758-.50337-.3758-.80539v-.80538c0-.25169-.2147-.45303-.4295-.50337-.6443-.15101-1.9865-.40269-3.9194-.40269-1.9328 0-3.2751.25168-3.9194.40269-.2684.05034-.4295.25168-.4295.50337v.80538c0 .30202-.1074.60404-.3758.80539l-.1611.151c-.2148.15101-.3231.46649-.3231.71817.0142.14683.0353.99221.0592 1.34406-.3-.01933-.5442-.21523-.5952-.50176l-.59055-2.86919c-.10738-.80538.32215-1.61077 1.07385-1.96312 1.0146-.4194 1.3844-1.0561 2.2013-1.71145.5905-.50336 1.4496-.65437 2.2013-.30202.5369.15101 1.1274.15101 1.6644 0 .8053-.25168 1.718-.05033 2.3623.50337l.8054.75505c.2147.25168.4832.40269.8053.5537z" fill="url(#az)"/><path d="m20.8081 4.40747.4296.20135c.7516.35235 1.1811 1.15774 1.0201 2.01346l-.5906 2.86918c-.0527.29633-.2834.50469-.5955.51214.0357-.47532.0769-1.24992.0899-1.37112.0436-.40876-.0097-.53022-.4072-.90282-.2147-.20135-.3758-.50337-.3758-.80539v-.80538c0-.25169-.2147-.45303-.4295-.50337-.6443-.15101-1.9865-.40269-3.9194-.40269-1.9328 0-3.2751.25168-3.9194.40269-.2684.05034-.4295.25168-.4295.50337v.80538c0 .30202-.1074.60404-.3758.80539l-.1611.151c-.2148.15101-.3231.46649-.3231.71817.0142.14683.0353.99221.0592 1.34406-.3-.01933-.5442-.21523-.5952-.50176l-.59055-2.86919c-.10738-.80538.32215-1.61077 1.07385-1.96312 1.0146-.4194 1.3844-1.0561 2.2013-1.71145.5905-.50336 1.4496-.65437 2.2013-.30202.5369.15101 1.1274.15101 1.6644 0 .8053-.25168 1.718-.05033 2.3623.50337l.8054.75505c.2147.25168.4832.40269.8053.5537z" fill="url(#aA)"/></g><g filter="url(#r)"><path d="m14.7315 19.6611 1.267-1.0976 1.2682 1.0742-.546 1.2651c-.0391.0861-.1235.1411-.2163.1411h-1.0214c-.0929 0-.1772-.055-.2163-.1411z" fill="url(#aB)"/></g><g filter="url(#s)"><path d="m23.2467 19.8359h-.6113c-.2196 0-.4202.1296-.5157.3289-.0095.02-.0382.02-.0382 0-.0955-.1993-.296-.3289-.5157-.3289h-.5921c-.1242 0-.2292.0897-.2388.2193-.0095.1296.0955.2492.2197.2492h.1528c.1788 0 .1788.0793.2126.1497.0573.1196.1719.1993.3056.1993h.2387l.5391.1289c.1337 0 .4612-.0992.5185-.2188l.086-.1993c.0191-.0399.0573-.0598.0955-.0598h.1433c.1241 0 .2292-.0897.2387-.2193-.0095-.1395-.1146-.2492-.2387-.2492z" fill="#473a60"/></g><g filter="url(#t)"><path d="m23.3649 19.7808h-.64c-.23 0-.44.13-.54.33-.01.02-.04.02-.04 0-.1-.2-.31-.33-.54-.33h-.62c-.13 0-.24.09-.25.22s.1.25.23.25h.16c.04 0 .08.02.1.06l.09.2c.06.12.18.2.32.2h.25.57.25c.14 0 .26-.08.32-.2l.09-.2c.02-.04.06-.06.1-.06h.15c.13 0 .24-.09.25-.22-.01-.14-.12-.25-.25-.25z" fill="url(#aC)"/></g><path d="m21.7465 3.55077c-2.66-1.66-5.7-1.55-5.74-1.55s-3.14-.01-5.74 1.54c-.99998.6-1.18998 1.96-.38998 2.8l.67998.72h5.44.02 5.44l.68-.72c.8-.83.6-2.18-.39-2.79z" fill="url(#aD)"/><path d="m21.7465 3.55077c-2.66-1.66-5.7-1.55-5.74-1.55s-3.14-.01-5.74 1.54c-.99998.6-1.18998 1.96-.38998 2.8l.67998.72h5.44.02 5.44l.68-.72c.8-.83.6-2.18-.39-2.79z" fill="url(#aE)"/><path d="m21.7465 3.55077c-2.66-1.66-5.7-1.55-5.74-1.55s-3.14-.01-5.74 1.54c-.99998.6-1.18998 1.96-.38998 2.8l.67998.72h5.44.02 5.44l.68-.72c.8-.83.6-2.18-.39-2.79z" fill="url(#aF)"/><g filter="url(#u)"><path d="m16.005 6.33073s-2.53-.03-5.45.73l.4.47c.73.87 1.81 1.37 2.95 1.37h4.19c1.14 0 2.22-.5 2.96-1.37l.4-.47c-2.92-.76-5.45-.73-5.45-.73z" fill="url(#aG)"/></g><path d="m15.955 5.52075h.1c.39 0 2.27.02 4.56.51.49.1.84.53.84 1.03-2.92-.76002-5.45-.73002-5.45-.73002s-2.53-.03-5.45.73002c0-.5.35-.93.84-1.03 2.29-.48 4.16-.51 4.56-.51z" fill="url(#aH)"/><path d="m15.955 5.52075h.1c.39 0 2.27.02 4.56.51.49.1.84.53.84 1.03-2.92-.76002-5.45-.73002-5.45-.73002s-2.53-.03-5.45.73002c0-.5.35-.93.84-1.03 2.29-.48 4.16-.51 4.56-.51z" fill="url(#aI)"/><path d="m15.955 5.52075h.1c.39 0 2.27.02 4.56.51.49.1.84.53.84 1.03-2.92-.76002-5.45-.73002-5.45-.73002s-2.53-.03-5.45.73002c0-.5.35-.93.84-1.03 2.29-.48 4.16-.51 4.56-.51z" fill="url(#aJ)"/><g filter="url(#v)"><path d="m16.7931 4.35159h.6332c.08 0 .14-.04.18-.11l.55-.94999c.04-.07001-.01-.16001-.09-.16001h-1.4c-.08 0-.14.04-.18.11l-.275.47492c-.0631-.01627-.1293-.02492-.1976-.02492-.0755 0-.1485.01059-.2177.03036l-.2723-.47036c-.04-.07-.1-.11-.18-.11h-1.4c-.08 0-.13.09-.09.16001l.54.93999c.04.07.1.11.18.11h.6607c-.007.04229-.0107.08572-.0107.13 0 .4363.3537.79.79.79s.79-.3537.79-.79c0-.04428-.0036-.08771-.0106-.13z" fill="#382534"/></g><g filter="url(#w)"><path d="m16.0449 4.24076h-1.4c-.08 0-.14-.04-.18-.11l-.54-.94c-.04-.07.01-.16.09-.16h1.4c.08 0 .14.04.18.11l.55.95c.03.06-.02.15-.1.15z" fill="url(#aK)"/><path d="m16.0449 4.24076h-1.4c-.08 0-.14-.04-.18-.11l-.54-.94c-.04-.07.01-.16.09-.16h1.4c.08 0 .14.04.18.11l.55.95c.03.06-.02.15-.1.15z" fill="url(#aL)"/></g><g filter="url(#x)"><path d="m16.0975 4.24075h1.4c.08 0 .14-.04.18-.11l.55-.95c.04-.07-.01-.16-.09-.16h-1.4c-.08 0-.14.04-.18.11l-.55.95c-.04.07.01.16.09.16z" fill="url(#aM)"/></g><g filter="url(#y)"><path d="m16.085 5.16081c.4363 0 .79-.35369.79-.79 0-.4363-.3537-.79-.79-.79s-.79.3537-.79.79c0 .43631.3537.79.79.79z" fill="url(#aN)"/></g><path d="m16.085 5.16081c.4363 0 .79-.35369.79-.79 0-.4363-.3537-.79-.79-.79s-.79.3537-.79.79c0 .43631.3537.79.79.79z" fill="url(#aO)"/></svg>