<svg fill="none" height="32" viewBox="0 0 32 32" width="32" xmlns="http://www.w3.org/2000/svg" xmlns:xlink="http://www.w3.org/1999/xlink"><filter id="a" color-interpolation-filters="sRGB" filterUnits="userSpaceOnUse" height="6.25" width="6.15" x="4.316" y="14.959"><feFlood flood-opacity="0" result="BackgroundImageFix"/><feBlend in="SourceGraphic" in2="BackgroundImageFix" mode="normal" result="shape"/><feColorMatrix in="SourceAlpha" result="hardAlpha" type="matrix" values="0 0 0 0 0 0 0 0 0 0 0 0 0 0 0 0 0 0 127 0"/><feOffset dx=".15" dy=".25"/><feGaussianBlur stdDeviation=".25"/><feComposite in2="hardAlpha" k2="-1" k3="1" operator="arithmetic"/><feColorMatrix type="matrix" values="0 0 0 0 0.858824 0 0 0 0 0.635294 0 0 0 0 0.533333 0 0 0 1 0"/><feBlend in2="shape" mode="normal" result="effect1_innerShadow_3987_19254"/></filter><filter id="b" color-interpolation-filters="sRGB" filterUnits="userSpaceOnUse" height="6.25" width="6" x="22.052" y="14.709"><feFlood flood-opacity="0" result="BackgroundImageFix"/><feBlend in="SourceGraphic" in2="BackgroundImageFix" mode="normal" result="shape"/><feColorMatrix in="SourceAlpha" result="hardAlpha" type="matrix" values="0 0 0 0 0 0 0 0 0 0 0 0 0 0 0 0 0 0 127 0"/><feOffset dy="-.25"/><feGaussianBlur stdDeviation=".25"/><feComposite in2="hardAlpha" k2="-1" k3="1" operator="arithmetic"/><feColorMatrix type="matrix" values="0 0 0 0 0.827451 0 0 0 0 0.568627 0 0 0 0 0.505882 0 0 0 1 0"/><feBlend in2="shape" mode="normal" result="effect1_innerShadow_3987_19254"/></filter><filter id="c" color-interpolation-filters="sRGB" filterUnits="userSpaceOnUse" height="5.005" width="5.005" x="22.55" y="15.457"><feFlood flood-opacity="0" result="BackgroundImageFix"/><feBlend in="SourceGraphic" in2="BackgroundImageFix" mode="normal" result="shape"/><feGaussianBlur result="effect1_foregroundBlur_3987_19254" stdDeviation=".25"/></filter><filter id="d" color-interpolation-filters="sRGB" filterUnits="userSpaceOnUse" height="4.805" width="4.805" x="4.95" y="15.556"><feFlood flood-opacity="0" result="BackgroundImageFix"/><feBlend in="SourceGraphic" in2="BackgroundImageFix" mode="normal" result="shape"/><feGaussianBlur result="effect1_foregroundBlur_3987_19254" stdDeviation=".2"/></filter><filter id="e" color-interpolation-filters="sRGB" filterUnits="userSpaceOnUse" height="24.601" width="19.853" x="6.699" y="4.74"><feFlood flood-opacity="0" result="BackgroundImageFix"/><feBlend in="SourceGraphic" in2="BackgroundImageFix" mode="normal" result="shape"/><feColorMatrix in="SourceAlpha" result="hardAlpha" type="matrix" values="0 0 0 0 0 0 0 0 0 0 0 0 0 0 0 0 0 0 127 0"/><feOffset dx="1.25" dy=".25"/><feGaussianBlur stdDeviation=".875"/><feComposite in2="hardAlpha" k2="-1" k3="1" operator="arithmetic"/><feColorMatrix type="matrix" values="0 0 0 0 0.858824 0 0 0 0 0.631373 0 0 0 0 0.529412 0 0 0 1 0"/><feBlend in2="shape" mode="normal" result="effect1_innerShadow_3987_19254"/></filter><filter id="f" color-interpolation-filters="sRGB" filterUnits="userSpaceOnUse" height="5.719" width="4.5" x="13.423" y="16.735"><feFlood flood-opacity="0" result="BackgroundImageFix"/><feBlend in="SourceGraphic" in2="BackgroundImageFix" mode="normal" result="shape"/><feGaussianBlur result="effect1_foregroundBlur_3987_19254" stdDeviation=".25"/></filter><filter id="g" color-interpolation-filters="sRGB" filterUnits="userSpaceOnUse" height="5.5" width="4" x="14.052" y="16.509"><feFlood flood-opacity="0" result="BackgroundImageFix"/><feBlend in="SourceGraphic" in2="BackgroundImageFix" mode="normal" result="shape"/><feGaussianBlur result="effect1_foregroundBlur_3987_19254" stdDeviation=".125"/></filter><filter id="h" color-interpolation-filters="sRGB" filterUnits="userSpaceOnUse" height="2.397" width="5.423" x="17.982" y="15.34"><feFlood flood-opacity="0" result="BackgroundImageFix"/><feBlend in="SourceGraphic" in2="BackgroundImageFix" mode="normal" result="shape"/><feColorMatrix in="SourceAlpha" result="hardAlpha" type="matrix" values="0 0 0 0 0 0 0 0 0 0 0 0 0 0 0 0 0 0 127 0"/><feOffset dx="-.2"/><feGaussianBlur stdDeviation=".2"/><feComposite in2="hardAlpha" k2="-1" k3="1" operator="arithmetic"/><feColorMatrix type="matrix" values="0 0 0 0 0.0941176 0 0 0 0 0.0666667 0 0 0 0 0.117647 0 0 0 1 0"/><feBlend in2="shape" mode="normal" result="effect1_innerShadow_3987_19254"/></filter><filter id="i" color-interpolation-filters="sRGB" filterUnits="userSpaceOnUse" height="2.397" width="5.423" x="8.7" y="15.34"><feFlood flood-opacity="0" result="BackgroundImageFix"/><feBlend in="SourceGraphic" in2="BackgroundImageFix" mode="normal" result="shape"/><feColorMatrix in="SourceAlpha" result="hardAlpha" type="matrix" values="0 0 0 0 0 0 0 0 0 0 0 0 0 0 0 0 0 0 127 0"/><feOffset dx=".2"/><feGaussianBlur stdDeviation=".125"/><feComposite in2="hardAlpha" k2="-1" k3="1" operator="arithmetic"/><feColorMatrix type="matrix" values="0 0 0 0 0.0862745 0 0 0 0 0.054902 0 0 0 0 0.113725 0 0 0 1 0"/><feBlend in2="shape" mode="normal" result="effect1_innerShadow_3987_19254"/></filter><filter id="j" color-interpolation-filters="sRGB" filterUnits="userSpaceOnUse" height="1.125" width="1.294" x="18.838" y="16.112"><feFlood flood-opacity="0" result="BackgroundImageFix"/><feBlend in="SourceGraphic" in2="BackgroundImageFix" mode="normal" result="shape"/><feGaussianBlur result="effect1_foregroundBlur_3987_19254" stdDeviation=".05"/></filter><filter id="k" color-interpolation-filters="sRGB" filterUnits="userSpaceOnUse" height="1.357" width="1.316" x="20.491" y="16.339"><feFlood flood-opacity="0" result="BackgroundImageFix"/><feBlend in="SourceGraphic" in2="BackgroundImageFix" mode="normal" result="shape"/><feGaussianBlur result="effect1_foregroundBlur_3987_19254" stdDeviation=".1"/></filter><filter id="l" color-interpolation-filters="sRGB" filterUnits="userSpaceOnUse" height="1.594" width="1.493" x="12.207" y="16.22"><feFlood flood-opacity="0" result="BackgroundImageFix"/><feBlend in="SourceGraphic" in2="BackgroundImageFix" mode="normal" result="shape"/><feGaussianBlur result="effect1_foregroundBlur_3987_19254" stdDeviation=".1"/></filter><filter id="m" color-interpolation-filters="sRGB" filterUnits="userSpaceOnUse" height="1.141" width="1.529" x="10.713" y="16.097"><feFlood flood-opacity="0" result="BackgroundImageFix"/><feBlend in="SourceGraphic" in2="BackgroundImageFix" mode="normal" result="shape"/><feGaussianBlur result="effect1_foregroundBlur_3987_19254" stdDeviation=".05"/></filter><filter id="n" color-interpolation-filters="sRGB" filterUnits="userSpaceOnUse" height="11.918" width="12.86" x="14.098" y="3.744"><feFlood flood-opacity="0" result="BackgroundImageFix"/><feBlend in="SourceGraphic" in2="BackgroundImageFix" mode="normal" result="shape"/><feGaussianBlur result="effect1_foregroundBlur_3987_19254" stdDeviation="1.25"/></filter><filter id="o" color-interpolation-filters="sRGB" filterUnits="userSpaceOnUse" height="1.861" width="4.4" x="8.952" y="12.859"><feFlood flood-opacity="0" result="BackgroundImageFix"/><feBlend in="SourceGraphic" in2="BackgroundImageFix" mode="normal" result="shape"/><feColorMatrix in="SourceAlpha" result="hardAlpha" type="matrix" values="0 0 0 0 0 0 0 0 0 0 0 0 0 0 0 0 0 0 127 0"/><feOffset dx=".2" dy="-.2"/><feGaussianBlur stdDeviation=".15"/><feComposite in2="hardAlpha" k2="-1" k3="1" operator="arithmetic"/><feColorMatrix type="matrix" values="0 0 0 0 0.47451 0 0 0 0 0.262745 0 0 0 0 0.164706 0 0 0 1 0"/><feBlend in2="shape" mode="normal" result="effect1_innerShadow_3987_19254"/></filter><filter id="p" color-interpolation-filters="sRGB" filterUnits="userSpaceOnUse" height="1.861" width="4.4" x="19.052" y="12.859"><feFlood flood-opacity="0" result="BackgroundImageFix"/><feBlend in="SourceGraphic" in2="BackgroundImageFix" mode="normal" result="shape"/><feColorMatrix in="SourceAlpha" result="hardAlpha" type="matrix" values="0 0 0 0 0 0 0 0 0 0 0 0 0 0 0 0 0 0 127 0"/><feOffset dx=".2" dy="-.2"/><feGaussianBlur stdDeviation=".15"/><feComposite in2="hardAlpha" k2="-1" k3="1" operator="arithmetic"/><feColorMatrix type="matrix" values="0 0 0 0 0.47451 0 0 0 0 0.262745 0 0 0 0 0.164706 0 0 0 1 0"/><feBlend in2="shape" mode="normal" result="effect1_innerShadow_3987_19254"/></filter><filter id="q" color-interpolation-filters="sRGB" filterUnits="userSpaceOnUse" height="1.904" width="4.296" x="19.068" y="12.873"><feFlood flood-opacity="0" result="BackgroundImageFix"/><feBlend in="SourceGraphic" in2="BackgroundImageFix" mode="normal" result="shape"/><feGaussianBlur result="effect1_foregroundBlur_3987_19254" stdDeviation=".2"/></filter><filter id="r" color-interpolation-filters="sRGB" filterUnits="userSpaceOnUse" height="1.904" width="4.296" x="8.904" y="12.873"><feFlood flood-opacity="0" result="BackgroundImageFix"/><feBlend in="SourceGraphic" in2="BackgroundImageFix" mode="normal" result="shape"/><feGaussianBlur result="effect1_foregroundBlur_3987_19254" stdDeviation=".2"/></filter><linearGradient id="s" gradientUnits="userSpaceOnUse" x1="4.316" x2="9.834" y1="18.122" y2="18.122"><stop offset="0" stop-color="#c48b78"/><stop offset="1" stop-color="#b47860"/></linearGradient><radialGradient id="t" cx="0" cy="0" gradientTransform="matrix(4.64062787 -2.10938072 2.57545193 5.66598237 23.5836 18.7778)" gradientUnits="userSpaceOnUse" r="1"><stop offset=".572" stop-color="#e1a792"/><stop offset=".905" stop-color="#f6c3a3"/></radialGradient><radialGradient id="u" cx="0" cy="0" gradientTransform="matrix(1.85937574 .53125036 -.27929805 .97754292 25.4897 14.6372)" gradientUnits="userSpaceOnUse" r="1"><stop offset="0" stop-color="#d59566"/><stop offset="1" stop-color="#d59566" stop-opacity="0"/></radialGradient><radialGradient id="v" cx="0" cy="0" gradientTransform="matrix(2.28125322 -.84375256 .84375256 2.28125322 24.6149 18.4028)" gradientUnits="userSpaceOnUse" r="1"><stop offset=".71" stop-color="#e3a280" stop-opacity="0"/><stop offset="1" stop-color="#e3a280"/></radialGradient><radialGradient id="w" cx="0" cy="0" gradientTransform="matrix(-2.26873 0 0 -2.17018 7.35222 17.9591)" gradientUnits="userSpaceOnUse" r="1"><stop offset=".573" stop-color="#b0725a" stop-opacity="0"/><stop offset="1" stop-color="#b0725a"/></radialGradient><radialGradient id="x" cx="0" cy="0" gradientTransform="matrix(-9.37500246 5.12501046 -6.13481653 -11.22220541 21.3125 15.9623)" gradientUnits="userSpaceOnUse" r="1"><stop offset="0" stop-color="#fec5a0"/><stop offset="1" stop-color="#d59e85"/></radialGradient><radialGradient id="y" cx="0" cy="0" gradientTransform="matrix(0 -2.60062 2.93086 0 11.5955 15.9666)" gradientUnits="userSpaceOnUse" r="1"><stop offset=".231" stop-color="#c3857d"/><stop offset="1" stop-color="#c3857d" stop-opacity="0"/></radialGradient><radialGradient id="z" cx="0" cy="0" gradientTransform="matrix(0 -2.60062 3.4675 0 20.6357 15.8015)" gradientUnits="userSpaceOnUse" r="1"><stop offset="0" stop-color="#e5a690"/><stop offset="1" stop-color="#e5a690" stop-opacity="0"/></radialGradient><radialGradient id="A" cx="0" cy="0" gradientTransform="matrix(0 2.03125 -1.93296 0 11.7813 17.6186)" gradientUnits="userSpaceOnUse" r="1"><stop offset="0" stop-color="#d7a285"/><stop offset="1" stop-color="#d7a285" stop-opacity="0"/></radialGradient><radialGradient id="B" cx="0" cy="0" gradientTransform="matrix(-4.93755821 15.94082378 -17.3741415 -5.38151831 19.1875 13.1498)" gradientUnits="userSpaceOnUse" r="1"><stop offset=".622" stop-color="#b36d8f" stop-opacity="0"/><stop offset="1" stop-color="#b36d8f"/></radialGradient><radialGradient id="C" cx="0" cy="0" gradientTransform="matrix(0 1.9375 -4.04687 0 17.5 4.2123)" gradientUnits="userSpaceOnUse" r="1"><stop offset="0" stop-color="#dac0aa"/><stop offset="1" stop-color="#dac0aa" stop-opacity="0"/></radialGradient><radialGradient id="D" cx="0" cy="0" gradientTransform="matrix(1.8163048 4.08668369 -8.498931 3.77730462 9.61403 5.9769)" gradientUnits="userSpaceOnUse" r="1"><stop offset="0" stop-color="#c29c80"/><stop offset="1" stop-color="#c29c80" stop-opacity="0"/></radialGradient><radialGradient id="E" cx="0" cy="0" gradientTransform="matrix(-8.02651954 9.03985094 -8.40484049 -7.46269123 25.3015 6.43513)" gradientUnits="userSpaceOnUse" r="1"><stop offset="0" stop-color="#fccba0"/><stop offset="1" stop-color="#fccba0" stop-opacity="0"/></radialGradient><radialGradient id="F" cx="0" cy="0" gradientTransform="matrix(-1.30034805 -4.56732759 2.61348205 -.74407544 17.5147 20.3052)" gradientUnits="userSpaceOnUse" r="1"><stop offset=".017" stop-color="#fdc9a8"/><stop offset="1" stop-color="#fdc9a8" stop-opacity="0"/></radialGradient><linearGradient id="G" gradientUnits="userSpaceOnUse" x1="14.101" x2="15.694" y1="20.338" y2="20.533"><stop offset="0" stop-color="#d1987a"/><stop offset="1" stop-color="#d1987a" stop-opacity="0"/></linearGradient><linearGradient id="H" gradientUnits="userSpaceOnUse" x1="16.052" x2="16.052" y1="21.931" y2="20.793"><stop offset="0" stop-color="#c57f82"/><stop offset="1" stop-color="#c57f82" stop-opacity="0"/></linearGradient><linearGradient id="I" gradientUnits="userSpaceOnUse" x1="16.198" x2="16.198" y1="21.882" y2="21.622"><stop offset="0" stop-color="#c27b7c"/><stop offset="1" stop-color="#c27b7c" stop-opacity="0"/></linearGradient><radialGradient id="J" cx="0" cy="0" gradientTransform="matrix(-2.38930717 1.70666827 -2.28595806 -3.20030324 16.5882 19.6388)" gradientUnits="userSpaceOnUse" r="1"><stop offset=".797" stop-color="#c27b7c" stop-opacity="0"/><stop offset="1" stop-color="#c27b7c"/></radialGradient><linearGradient id="K" gradientUnits="userSpaceOnUse" x1="14.693" x2="15.537" y1="24.684" y2="23.059"><stop offset="0" stop-color="#ce9591"/><stop offset="1" stop-color="#ce9591" stop-opacity="0"/></linearGradient><linearGradient id="L"><stop offset=".802" stop-color="#7d574a"/><stop offset="1" stop-color="#694b43"/><stop offset="1" stop-color="#804d49"/><stop offset="1" stop-color="#664944"/></linearGradient><radialGradient id="M" cx="0" cy="0" gradientTransform="matrix(0 1.51263 -2.406 0 20.1205 16.8458)" gradientUnits="userSpaceOnUse" r="1" xlink:href="#L"/><linearGradient id="N"><stop offset=".766" stop-color="#ffe6e2" stop-opacity="0"/><stop offset=".966" stop-color="#ffe6e2"/></linearGradient><radialGradient id="O" cx="0" cy="0" gradientTransform="matrix(-.43238841 -.55719077 .76711823 -.59529527 19.695 17.0027)" gradientUnits="userSpaceOnUse" r="1" xlink:href="#N"/><linearGradient id="P"><stop offset="0" stop-color="#b4948d"/><stop offset="1" stop-color="#b4948d" stop-opacity="0"/></linearGradient><linearGradient id="Q" gradientUnits="userSpaceOnUse" x1="21.571" x2="20.986" xlink:href="#P" y1="16.946" y2="17.307"/><radialGradient id="R" cx="0" cy="0" gradientTransform="matrix(0 1.51264 -2.40602 0 11.984 16.8459)" gradientUnits="userSpaceOnUse" r="1" xlink:href="#L"/><linearGradient id="S" gradientUnits="userSpaceOnUse" x1="13.371" x2="12.786" xlink:href="#P" y1="16.946" y2="17.307"/><radialGradient id="T" cx="0" cy="0" gradientTransform="matrix(-.01442203 -.9211301 1.1072343 -.01733584 11.45 17.2545)" gradientUnits="userSpaceOnUse" r="1" xlink:href="#N"/><linearGradient id="U" gradientUnits="userSpaceOnUse" x1="19.591" x2="25.45" y1="12.411" y2="5.097"><stop offset="0" stop-color="#ffceab"/><stop offset="1" stop-color="#ffceab" stop-opacity="0"/></linearGradient><g filter="url(#a)"><path d="m7.31628 20.959c1.65686 0 3.00002-1.3431 3.00002-3 0-1.6568-1.34316-3-3.00002-3-1.65685 0-3 1.3432-3 3 0 1.6569 1.34315 3 3 3z" fill="url(#s)"/></g><g filter="url(#b)"><path d="m25.0522 20.959c1.6569 0 3-1.3431 3-3 0-1.6568-1.3431-3-3-3-1.6568 0-3 1.3432-3 3 0 1.6569 1.3432 3 3 3z" fill="url(#t)"/><path d="m25.0522 20.959c1.6569 0 3-1.3431 3-3 0-1.6568-1.3431-3-3-3-1.6568 0-3 1.3432-3 3 0 1.6569 1.3432 3 3 3z" fill="url(#u)"/></g><g filter="url(#c)"><path d="m25.0522 19.9617c1.106 0 2.0026-.8966 2.0026-2.0026s-.8966-2.0026-2.0026-2.0026-2.0025.8966-2.0025 2.0026.8965 2.0026 2.0025 2.0026z" fill="#e5aa8b"/><path d="m25.0522 19.9617c1.106 0 2.0026-.8966 2.0026-2.0026s-.8966-2.0026-2.0026-2.0026-2.0025.8966-2.0025 2.0026.8965 2.0026 2.0025 2.0026z" fill="url(#v)"/></g><g filter="url(#d)"><path d="m7.35222 19.9617c1.106 0 2.00259-.8966 2.00259-2.0026s-.89659-2.0026-2.00259-2.0026c-1.10599 0-2.00258.8966-2.00258 2.0026s.89659 2.0026 2.00258 2.0026z" fill="#b47a6c"/><path d="m7.35222 19.9617c1.106 0 2.00259-.8966 2.00259-2.0026s-.89659-2.0026-2.00259-2.0026c-1.10599 0-2.00258.8966-2.00258 2.0026s.89659 2.0026 2.00258 2.0026z" fill="url(#w)"/></g><g filter="url(#e)"><path d="m6.69852 20.3571c.22987 5.2251 4.31018 8.7336 9.29078 8.7336 4.9807 0 9.061-3.5085 9.2909-8.7336l.0213-8.7217c0-3.30067-2.0575-5.92041-6.3-6.7356-1.6-.21155-4.5-.21444-6 0-4.2424.81519-6.29997 3.43493-6.29997 6.7356z" fill="url(#x)"/><path d="m6.69852 20.3571c.22987 5.2251 4.31018 8.7336 9.29078 8.7336 4.9807 0 9.061-3.5085 9.2909-8.7336l.0213-8.7217c0-3.30067-2.0575-5.92041-6.3-6.7356-1.6-.21155-4.5-.21444-6 0-4.2424.81519-6.29997 3.43493-6.29997 6.7356z" fill="url(#y)"/><path d="m6.69852 20.3571c.22987 5.2251 4.31018 8.7336 9.29078 8.7336 4.9807 0 9.061-3.5085 9.2909-8.7336l.0213-8.7217c0-3.30067-2.0575-5.92041-6.3-6.7356-1.6-.21155-4.5-.21444-6 0-4.2424.81519-6.29997 3.43493-6.29997 6.7356z" fill="url(#z)"/><path d="m6.69852 20.3571c.22987 5.2251 4.31018 8.7336 9.29078 8.7336 4.9807 0 9.061-3.5085 9.2909-8.7336l.0213-8.7217c0-3.30067-2.0575-5.92041-6.3-6.7356-1.6-.21155-4.5-.21444-6 0-4.2424.81519-6.29997 3.43493-6.29997 6.7356z" fill="url(#A)"/><path d="m6.69852 20.3571c.22987 5.2251 4.31018 8.7336 9.29078 8.7336 4.9807 0 9.061-3.5085 9.2909-8.7336l.0213-8.7217c0-3.30067-2.0575-5.92041-6.3-6.7356-1.6-.21155-4.5-.21444-6 0-4.2424.81519-6.29997 3.43493-6.29997 6.7356z" fill="url(#B)"/><path d="m6.69852 20.3571c.22987 5.2251 4.31018 8.7336 9.29078 8.7336 4.9807 0 9.061-3.5085 9.2909-8.7336l.0213-8.7217c0-3.30067-2.0575-5.92041-6.3-6.7356-1.6-.21155-4.5-.21444-6 0-4.2424.81519-6.29997 3.43493-6.29997 6.7356z" fill="url(#C)"/></g><path d="m6.69852 20.3571c.22987 5.2251 4.31018 8.7336 9.29078 8.7336 4.9807 0 9.061-3.5085 9.2909-8.7336l.0213-8.7217c0-3.30067-2.0575-5.92041-6.3-6.7356-1.6-.21155-4.5-.21444-6 0-4.2424.81519-6.29997 3.43493-6.29997 6.7356z" fill="url(#D)"/><path d="m6.69852 20.3571c.22987 5.2251 4.31018 8.7336 9.29078 8.7336 4.9807 0 9.061-3.5085 9.2909-8.7336l.0213-8.7217c0-3.30067-2.0575-5.92041-6.3-6.7356-1.6-.21155-4.5-.21444-6 0-4.2424.81519-6.29997 3.43493-6.29997 6.7356z" fill="url(#E)"/><g filter="url(#f)"><path d="m15.2439 17.7613-1.2744 2.8883c-.2022.6519.2831 1.3039.9707 1.3039h1.4661c.6876 0 1.1729-.662.9707-1.3039l-.991-2.8883c-.2123-.7021-.9196-.7021-1.1421 0z" fill="#c28178"/></g><g filter="url(#g)"><path d="m15.3394 17.2856-.9909 3.1695c-.2022.652.2831 1.3039.9707 1.3039h1.4661c.6876 0 1.1729-.662.9707-1.3039l-.9909-3.1695c-.2124-.7021-1.2032-.7021-1.4257 0z" fill="#efb696"/><path d="m15.3394 17.2856-.9909 3.1695c-.2022.652.2831 1.3039.9707 1.3039h1.4661c.6876 0 1.1729-.662.9707-1.3039l-.9909-3.1695c-.2124-.7021-1.2032-.7021-1.4257 0z" fill="url(#F)"/><path d="m15.3394 17.2856-.9909 3.1695c-.2022.652.2831 1.3039.9707 1.3039h1.4661c.6876 0 1.1729-.662.9707-1.3039l-.9909-3.1695c-.2124-.7021-1.2032-.7021-1.4257 0z" fill="url(#G)"/><path d="m15.3394 17.2856-.9909 3.1695c-.2022.652.2831 1.3039.9707 1.3039h1.4661c.6876 0 1.1729-.662.9707-1.3039l-.9909-3.1695c-.2124-.7021-1.2032-.7021-1.4257 0z" fill="url(#H)"/></g><path d="m15.3394 17.2856-.9909 3.1695c-.2022.652.2831 1.3039.9707 1.3039h1.4661c.6876 0 1.1729-.662.9707-1.3039l-.9909-3.1695c-.2124-.7021-1.2032-.7021-1.4257 0z" fill="url(#I)"/><path d="m15.3394 17.2856-.9909 3.1695c-.2022.652.2831 1.3039.9707 1.3039h1.4661c.6876 0 1.1729-.662.9707-1.3039l-.9909-3.1695c-.2124-.7021-1.2032-.7021-1.4257 0z" fill="url(#J)"/><path d="m13.4253 22.7006-.0004-.0002c-.1539-.08-.3137-.0305-.4093.0724-.0956.103-.1314.2646-.0342.4085.6496 1.0065 1.7814 1.6778 3.0708 1.6778 1.2896 0 2.4216-.6715 3.0711-1.6782.0964-.148.0618-.3095-.0347-.412-.0961-.1021-.2559-.1481-.409-.0685l-.0004.0002c-.7596.405-1.6544.6368-2.627.6368-.9629 0-1.8674-.2318-2.6269-.6368z" fill="#88014e" stroke="url(#K)" stroke-width=".1"/><g filter="url(#h)"><path d="m18.1816 16.8981c.4948-.8703 1.2471-1.5578 2.8662-1.5578.7089 0 1.3925.1964 2.0002.6875.5012.405.4341.9232.0459 1.1172l-1.0367.5919c-1.2152-.3928-2.5591-.446-3.8756-.8388z" fill="#2d2b2e"/></g><g filter="url(#i)"><path d="m13.9232 16.8981c-.4948-.8703-1.2471-1.5578-2.8662-1.5578-.709 0-1.39255.1964-2.0002.6875-.50119.405-.43407.9232-.04594 1.1172l1.03674.5919c1.2152-.3928 2.5591-.446 3.8756-.8388z" fill="#272528"/></g><path d="m20.51 15.4498c1.2177 0 2.2463.8395 2.5261 1.9739.0832.3253-.1664.6354-.4992.6354h-4.1597c-.2647 0-.4765-.2421-.4235-.5068.2344-1.195 1.2857-2.1025 2.5563-2.1025z" fill="#fff"/><path d="m20.1243 15.9565c.9227 0 1.6639.7487 1.6639 1.6639 0 .1512-.0227.3025-.0605.4386h-3.2144c-.0378-.1437-.0605-.2874-.0605-.4386 0-.9152.7488-1.6639 1.6715-1.6639z" fill="url(#M)"/><path d="m19.1713 17.6204c0-.5294.4235-.953.953-.953.5294 0 .9529.4236.9529.953 0 .1588-.0378.3101-.1059.4386h-1.6866c-.0756-.1285-.1134-.2798-.1134-.4386z" fill="#000"/><g filter="url(#j)"><path d="m20.0018 16.3083c.1186.1585-.1292.3518-.4109.5624-.2818.2107-.4908.3589-.6093.2004-.1186-.1586.0137-.4579.2955-.6685.2817-.2107.6062-.2529.7247-.0943z" fill="#c7a7a3"/><path d="m20.0018 16.3083c.1186.1585-.1292.3518-.4109.5624-.2818.2107-.4908.3589-.6093.2004-.1186-.1586.0137-.4579.2955-.6685.2817-.2107.6062-.2529.7247-.0943z" fill="url(#O)"/></g><g filter="url(#k)"><path d="m21.6063 17.4013c-.0614-.4301-.3131-.7543-.4313-.8627l-.4845.5318.2186.4254z" fill="url(#Q)"/></g><path d="m11.5945 15.4498c-1.2177 0-2.24629.8395-2.52613 1.974-.08319.3252.16639.6353.49917.6353h4.15976c.2647 0 .4765-.2421.4235-.5068-.2344-1.195-1.2933-2.1025-2.5563-2.1025z" fill="#fff"/><path d="m11.9802 15.9565c-.9227 0-1.6639.7487-1.6639 1.6639 0 .1512.0227.3025.0605.4386h3.2143c.0379-.1437.0605-.2874.0605-.4386-.0075-.9152-.7487-1.6639-1.6714-1.6639z" fill="url(#R)"/><path d="m12.9331 17.6204c0-.5294-.4235-.953-.9529-.953-.5295 0-.953.4236-.953.953 0 .1588.0378.3101.1059.4386h1.6866c.068-.1285.1134-.2798.1134-.4386z" fill="#000"/><g filter="url(#l)"><path d="m13.5003 17.4249c0-.5377-.4373-.8962-.5554-1.0045l-.5377.52.3309.6736z" fill="url(#S)"/></g><g filter="url(#m)"><ellipse cx="11.478" cy="16.667" fill="#c7a7a3" fill-opacity=".9" rx=".726" ry=".368" transform="matrix(.88365127 -.46814574 .46814574 .88365127 -6.467298 7.312701)"/><ellipse cx="11.478" cy="16.667" fill="url(#T)" rx=".726" ry=".368" transform="matrix(.88365127 -.46814574 .46814574 .88365127 -6.467298 7.312701)"/></g><g filter="url(#n)"><path d="m17.2959 9.3147 3.251-3.07111c2.9375 1.10938 3.7343 4.06251 3.9116 5.44711l-5.0407 1.3904c-1.0061.2776-2.07-.1808-2.5595-1.1026-.4701-.8853-.291-1.9755.4376-2.6638z" fill="url(#U)"/></g><g filter="url(#o)"><path d="m9.7177 14.6443-.00818.0047c-.00026.0002-.00052.0003-.00077.0005-.23665.1412-.54336.0645-.68523-.172-.14207-.2368-.065-.5441.17179-.6862l.00107-.0006.00193-.0011.0055-.0033.01755-.0101c.01457-.0084.03483-.0197.06048-.0336.05126-.0278.1242-.0658.21624-.1096.18371-.0876.44556-.1997.76462-.3016.6337-.2022 1.5199-.3723 2.4765-.2035.2719.048.4535.3073.4055.5792-.048.272-.3074.4535-.5793.4055-.7434-.1311-1.4573-.0013-1.9986.1715-.2684.0856-.4878.1798-.63846.2516-.07516.0358-.13269.0658-.17009.0861-.01869.0101-.03231.0178-.04055.0225z" fill="#9f6836"/></g><g filter="url(#p)"><path clip-rule="evenodd" d="m23.0093 13.7913c.0001.0001.0003.0002-.257.429l.257-.429c.2368.1421.3139.4494.1718.6862-.1419.2365-.4484.3134-.6851.1721-.0001-.0001-.0004-.0003-.0008-.0005l-.0083-.0048c-.0082-.0047-.0219-.0124-.0405-.0225-.0375-.0203-.095-.0503-.1701-.0861-.1507-.0718-.3701-.166-.6385-.2516-.5413-.1728-1.2552-.3026-1.9986-.1715-.2719.048-.5313-.1335-.5793-.4055-.048-.2719.1336-.5312.4055-.5792.9566-.1688 1.8428.0013 2.4765.2035.3191.1019.5809.214.7646.3016.0921.0438.165.0818.2163.1096.0256.0139.0459.0252.0604.0336l.0176.0101.0055.0033.0019.0011z" fill="#9f6836" fill-rule="evenodd"/></g><g filter="url(#q)"><path d="m19.6683 13.5355c.6014-.1463 2.0967-.0732 3.0964.642" stroke="#a57045" stroke-linecap="round" stroke-width=".4"/></g><g filter="url(#r)"><path d="m12.6005 13.5355c-.6014-.1463-2.0967-.0732-3.09636.642" stroke="#a57045" stroke-linecap="round" stroke-width=".4"/></g></svg>