<svg fill="none" height="32" viewBox="0 0 32 32" width="32" xmlns="http://www.w3.org/2000/svg" xmlns:xlink="http://www.w3.org/1999/xlink"><filter id="a" color-interpolation-filters="sRGB" filterUnits="userSpaceOnUse" height="4.74" width="5.513" x="12.768" y="24.27"><feFlood flood-opacity="0" result="BackgroundImageFix"/><feBlend in="SourceGraphic" in2="BackgroundImageFix" mode="normal" result="shape"/><feColorMatrix in="SourceAlpha" result="hardAlpha" type="matrix" values="0 0 0 0 0 0 0 0 0 0 0 0 0 0 0 0 0 0 127 0"/><feOffset dx=".2"/><feGaussianBlur stdDeviation=".15"/><feComposite in2="hardAlpha" k2="-1" k3="1" operator="arithmetic"/><feColorMatrix type="matrix" values="0 0 0 0 0.976471 0 0 0 0 0.780392 0 0 0 0 0.866667 0 0 0 1 0"/><feBlend in2="shape" mode="normal" result="effect1_innerShadow_4002_2323"/></filter><filter id="b" color-interpolation-filters="sRGB" filterUnits="userSpaceOnUse" height="1.228" width="6.102" x="22.711" y="16.98"><feFlood flood-opacity="0" result="BackgroundImageFix"/><feBlend in="SourceGraphic" in2="BackgroundImageFix" mode="normal" result="shape"/><feColorMatrix in="SourceAlpha" result="hardAlpha" type="matrix" values="0 0 0 0 0 0 0 0 0 0 0 0 0 0 0 0 0 0 127 0"/><feOffset dx=".1" dy="-.05"/><feGaussianBlur stdDeviation=".1"/><feComposite in2="hardAlpha" k2="-1" k3="1" operator="arithmetic"/><feColorMatrix type="matrix" values="0 0 0 0 0.647059 0 0 0 0 0.47451 0 0 0 0 0.54902 0 0 0 1 0"/><feBlend in2="shape" mode="normal" result="effect1_innerShadow_4002_2323"/></filter><filter id="c" color-interpolation-filters="sRGB" filterUnits="userSpaceOnUse" height="1.075" width="1.075" x="25.119" y="21.113"><feFlood flood-opacity="0" result="BackgroundImageFix"/><feBlend in="SourceGraphic" in2="BackgroundImageFix" mode="normal" result="shape"/><feColorMatrix in="SourceAlpha" result="hardAlpha" type="matrix" values="0 0 0 0 0 0 0 0 0 0 0 0 0 0 0 0 0 0 127 0"/><feOffset dx=".05" dy="-.05"/><feGaussianBlur stdDeviation=".025"/><feComposite in2="hardAlpha" k2="-1" k3="1" operator="arithmetic"/><feColorMatrix type="matrix" values="0 0 0 0 0.694118 0 0 0 0 0.560784 0 0 0 0 0.764706 0 0 0 1 0"/><feBlend in2="shape" mode="normal" result="effect1_innerShadow_4002_2323"/><feColorMatrix in="SourceAlpha" result="hardAlpha" type="matrix" values="0 0 0 0 0 0 0 0 0 0 0 0 0 0 0 0 0 0 127 0"/><feOffset dx="-.05" dy=".05"/><feGaussianBlur stdDeviation=".025"/><feComposite in2="hardAlpha" k2="-1" k3="1" operator="arithmetic"/><feColorMatrix type="matrix" values="0 0 0 0 0.917647 0 0 0 0 0.87451 0 0 0 0 0.976471 0 0 0 1 0"/><feBlend in2="effect1_innerShadow_4002_2323" mode="normal" result="effect2_innerShadow_4002_2323"/></filter><filter id="d" color-interpolation-filters="sRGB" filterUnits="userSpaceOnUse" height="5.967" width="5.967" x="12.086" y="15.177"><feFlood flood-opacity="0" result="BackgroundImageFix"/><feBlend in="SourceGraphic" in2="BackgroundImageFix" mode="normal" result="shape"/><feGaussianBlur result="effect1_foregroundBlur_4002_2323" stdDeviation=".125"/></filter><filter id="e" color-interpolation-filters="sRGB" filterUnits="userSpaceOnUse" height="5.612" width="5.612" x="12.264" y="15.463"><feFlood flood-opacity="0" result="BackgroundImageFix"/><feBlend in="SourceGraphic" in2="BackgroundImageFix" mode="normal" result="shape"/><feGaussianBlur result="effect1_foregroundBlur_4002_2323" stdDeviation=".2"/></filter><filter id="f" color-interpolation-filters="sRGB" filterUnits="userSpaceOnUse" height="6.076" width="5.369" x="23.048" y="22.945"><feFlood flood-opacity="0" result="BackgroundImageFix"/><feBlend in="SourceGraphic" in2="BackgroundImageFix" mode="normal" result="shape"/><feColorMatrix in="SourceAlpha" result="hardAlpha" type="matrix" values="0 0 0 0 0 0 0 0 0 0 0 0 0 0 0 0 0 0 127 0"/><feOffset dx=".15" dy="-.15"/><feGaussianBlur stdDeviation=".5"/><feComposite in2="hardAlpha" k2="-1" k3="1" operator="arithmetic"/><feColorMatrix type="matrix" values="0 0 0 0 0.658824 0 0 0 0 0.443137 0 0 0 0 0.411765 0 0 0 1 0"/><feBlend in2="shape" mode="normal" result="effect1_innerShadow_4002_2323"/></filter><filter id="g" color-interpolation-filters="sRGB" filterUnits="userSpaceOnUse" height=".3" width="2.319" x="23.513" y="24.466"><feFlood flood-opacity="0" result="BackgroundImageFix"/><feBlend in="SourceGraphic" in2="BackgroundImageFix" mode="normal" result="shape"/><feGaussianBlur result="effect1_foregroundBlur_4002_2323" stdDeviation=".05"/></filter><filter id="h" color-interpolation-filters="sRGB" filterUnits="userSpaceOnUse" height=".3" width="2.319" x="23.513" y="25.907"><feFlood flood-opacity="0" result="BackgroundImageFix"/><feBlend in="SourceGraphic" in2="BackgroundImageFix" mode="normal" result="shape"/><feGaussianBlur result="effect1_foregroundBlur_4002_2323" stdDeviation=".05"/></filter><filter id="i" color-interpolation-filters="sRGB" filterUnits="userSpaceOnUse" height=".3" width="2.319" x="23.513" y="27.338"><feFlood flood-opacity="0" result="BackgroundImageFix"/><feBlend in="SourceGraphic" in2="BackgroundImageFix" mode="normal" result="shape"/><feGaussianBlur result="effect1_foregroundBlur_4002_2323" stdDeviation=".05"/></filter><filter id="j" color-interpolation-filters="sRGB" filterUnits="userSpaceOnUse" height="3.339" width="3.539" x="8.644" y="10.934"><feFlood flood-opacity="0" result="BackgroundImageFix"/><feBlend in="SourceGraphic" in2="BackgroundImageFix" mode="normal" result="shape"/><feColorMatrix in="SourceAlpha" result="hardAlpha" type="matrix" values="0 0 0 0 0 0 0 0 0 0 0 0 0 0 0 0 0 0 127 0"/><feOffset dx=".2"/><feGaussianBlur stdDeviation=".2"/><feComposite in2="hardAlpha" k2="-1" k3="1" operator="arithmetic"/><feColorMatrix type="matrix" values="0 0 0 0 0.866667 0 0 0 0 0.643137 0 0 0 0 0.533333 0 0 0 1 0"/><feBlend in2="shape" mode="normal" result="effect1_innerShadow_4002_2323"/></filter><filter id="k" color-interpolation-filters="sRGB" filterUnits="userSpaceOnUse" height="2.99" width="2.99" x="8.819" y="11.109"><feFlood flood-opacity="0" result="BackgroundImageFix"/><feBlend in="SourceGraphic" in2="BackgroundImageFix" mode="normal" result="shape"/><feGaussianBlur result="effect1_foregroundBlur_4002_2323" stdDeviation=".25"/></filter><filter id="l" color-interpolation-filters="sRGB" filterUnits="userSpaceOnUse" height="3.589" width="3.589" x="18.157" y="10.684"><feFlood flood-opacity="0" result="BackgroundImageFix"/><feBlend in="SourceGraphic" in2="BackgroundImageFix" mode="normal" result="shape"/><feColorMatrix in="SourceAlpha" result="hardAlpha" type="matrix" values="0 0 0 0 0 0 0 0 0 0 0 0 0 0 0 0 0 0 127 0"/><feOffset dx=".25" dy="-.25"/><feGaussianBlur stdDeviation=".25"/><feComposite in2="hardAlpha" k2="-1" k3="1" operator="arithmetic"/><feColorMatrix type="matrix" values="0 0 0 0 0.768627 0 0 0 0 0.529412 0 0 0 0 0.505882 0 0 0 1 0"/><feBlend in2="shape" mode="normal" result="effect1_innerShadow_4002_2323"/></filter><filter id="m" color-interpolation-filters="sRGB" filterUnits="userSpaceOnUse" height="2.99" width="2.99" x="18.331" y="11.109"><feFlood flood-opacity="0" result="BackgroundImageFix"/><feBlend in="SourceGraphic" in2="BackgroundImageFix" mode="normal" result="shape"/><feGaussianBlur result="effect1_foregroundBlur_4002_2323" stdDeviation=".25"/></filter><filter id="n" color-interpolation-filters="sRGB" filterUnits="userSpaceOnUse" height="12.077" width="10.373" x="9.903" y="6.98"><feFlood flood-opacity="0" result="BackgroundImageFix"/><feBlend in="SourceGraphic" in2="BackgroundImageFix" mode="normal" result="shape"/><feColorMatrix in="SourceAlpha" result="hardAlpha" type="matrix" values="0 0 0 0 0 0 0 0 0 0 0 0 0 0 0 0 0 0 127 0"/><feOffset dy=".05"/><feGaussianBlur stdDeviation=".15"/><feComposite in2="hardAlpha" k2="-1" k3="1" operator="arithmetic"/><feColorMatrix type="matrix" values="0 0 0 0 0.752941 0 0 0 0 0.501961 0 0 0 0 0.34902 0 0 0 1 0"/><feBlend in2="shape" mode="normal" result="effect1_innerShadow_4002_2323"/></filter><filter id="o" color-interpolation-filters="sRGB" filterUnits="userSpaceOnUse" height="8.543" width="12.601" x="8.761" y="3.503"><feFlood flood-opacity="0" result="BackgroundImageFix"/><feBlend in="SourceGraphic" in2="BackgroundImageFix" mode="normal" result="shape"/><feColorMatrix in="SourceAlpha" result="hardAlpha" type="matrix" values="0 0 0 0 0 0 0 0 0 0 0 0 0 0 0 0 0 0 127 0"/><feOffset dy="-.5"/><feGaussianBlur stdDeviation=".375"/><feComposite in2="hardAlpha" k2="-1" k3="1" operator="arithmetic"/><feColorMatrix type="matrix" values="0 0 0 0 0.858824 0 0 0 0 0.690196 0 0 0 0 0.533333 0 0 0 1 0"/><feBlend in2="shape" mode="normal" result="effect1_innerShadow_4002_2323"/></filter><filter id="p" color-interpolation-filters="sRGB" filterUnits="userSpaceOnUse" height="4.181" width="3.26" x="13.192" y="11.449"><feFlood flood-opacity="0" result="BackgroundImageFix"/><feBlend in="SourceGraphic" in2="BackgroundImageFix" mode="normal" result="shape"/><feGaussianBlur result="effect1_foregroundBlur_4002_2323" stdDeviation=".375"/></filter><filter id="q" color-interpolation-filters="sRGB" filterUnits="userSpaceOnUse" height="3.181" width="2.377" x="13.873" y="11.786"><feFlood flood-opacity="0" result="BackgroundImageFix"/><feBlend in="SourceGraphic" in2="BackgroundImageFix" mode="normal" result="shape"/><feGaussianBlur result="effect1_foregroundBlur_4002_2323" stdDeviation=".125"/></filter><filter id="r" color-interpolation-filters="sRGB" filterUnits="userSpaceOnUse" height="1.873" width="2.979" x="16.243" y="8.955"><feFlood flood-opacity="0" result="BackgroundImageFix"/><feBlend in="SourceGraphic" in2="BackgroundImageFix" mode="normal" result="shape"/><feColorMatrix in="SourceAlpha" result="hardAlpha" type="matrix" values="0 0 0 0 0 0 0 0 0 0 0 0 0 0 0 0 0 0 127 0"/><feOffset dx=".25" dy="-.4"/><feGaussianBlur stdDeviation=".3"/><feComposite in2="hardAlpha" k2="-1" k3="1" operator="arithmetic"/><feColorMatrix type="matrix" values="0 0 0 0 0.47451 0 0 0 0 0.262745 0 0 0 0 0.168627 0 0 0 1 0"/><feBlend in2="shape" mode="normal" result="effect1_innerShadow_4002_2323"/></filter><filter id="s" color-interpolation-filters="sRGB" filterUnits="userSpaceOnUse" height="1.873" width="2.98" x="11.096" y="8.955"><feFlood flood-opacity="0" result="BackgroundImageFix"/><feBlend in="SourceGraphic" in2="BackgroundImageFix" mode="normal" result="shape"/><feColorMatrix in="SourceAlpha" result="hardAlpha" type="matrix" values="0 0 0 0 0 0 0 0 0 0 0 0 0 0 0 0 0 0 127 0"/><feOffset dx=".25" dy="-.4"/><feGaussianBlur stdDeviation=".3"/><feComposite in2="hardAlpha" k2="-1" k3="1" operator="arithmetic"/><feColorMatrix type="matrix" values="0 0 0 0 0.47451 0 0 0 0 0.262745 0 0 0 0 0.168627 0 0 0 1 0"/><feBlend in2="shape" mode="normal" result="effect1_innerShadow_4002_2323"/></filter><filter id="t" color-interpolation-filters="sRGB" filterUnits="userSpaceOnUse" height=".696" width=".787" x="16.506" y="11.482"><feFlood flood-opacity="0" result="BackgroundImageFix"/><feBlend in="SourceGraphic" in2="BackgroundImageFix" mode="normal" result="shape"/><feGaussianBlur result="effect1_foregroundBlur_4002_2323" stdDeviation=".05"/></filter><filter id="u" color-interpolation-filters="sRGB" filterUnits="userSpaceOnUse" height=".913" width=".891" x="17.346" y="11.557"><feFlood flood-opacity="0" result="BackgroundImageFix"/><feBlend in="SourceGraphic" in2="BackgroundImageFix" mode="normal" result="shape"/><feGaussianBlur result="effect1_foregroundBlur_4002_2323" stdDeviation=".1"/></filter><filter id="v" color-interpolation-filters="sRGB" filterUnits="userSpaceOnUse" height="1.04" width=".986" x="12.904" y="11.494"><feFlood flood-opacity="0" result="BackgroundImageFix"/><feBlend in="SourceGraphic" in2="BackgroundImageFix" mode="normal" result="shape"/><feGaussianBlur result="effect1_foregroundBlur_4002_2323" stdDeviation=".1"/></filter><filter id="w" color-interpolation-filters="sRGB" filterUnits="userSpaceOnUse" height=".704" width=".913" x="12.149" y="11.474"><feFlood flood-opacity="0" result="BackgroundImageFix"/><feBlend in="SourceGraphic" in2="BackgroundImageFix" mode="normal" result="shape"/><feGaussianBlur result="effect1_foregroundBlur_4002_2323" stdDeviation=".05"/></filter><filter id="x" color-interpolation-filters="sRGB" filterUnits="userSpaceOnUse" height="1.681" width="3.099" x="16.097" y="9.081"><feFlood flood-opacity="0" result="BackgroundImageFix"/><feBlend in="SourceGraphic" in2="BackgroundImageFix" mode="normal" result="shape"/><feGaussianBlur result="effect1_foregroundBlur_4002_2323" stdDeviation=".25"/></filter><filter id="y" color-interpolation-filters="sRGB" filterUnits="userSpaceOnUse" height="1.738" width="3.177" x="10.878" y="9.145"><feFlood flood-opacity="0" result="BackgroundImageFix"/><feBlend in="SourceGraphic" in2="BackgroundImageFix" mode="normal" result="shape"/><feGaussianBlur result="effect1_foregroundBlur_4002_2323" stdDeviation=".25"/></filter><linearGradient id="z" gradientUnits="userSpaceOnUse" x1="16.822" x2="15.424" y1="26.64" y2="26.337"><stop offset="0" stop-color="#c296bf"/><stop offset="1" stop-color="#e7c1f5" stop-opacity="0"/></linearGradient><radialGradient id="A" cx="0" cy="0" gradientTransform="matrix(3.12499837 1.00000119 -2.08206946 6.50645596 3.62787 26.1188)" gradientUnits="userSpaceOnUse" r="1"><stop offset=".176" stop-color="#675890"/><stop offset="1" stop-color="#58497e"/></radialGradient><linearGradient id="B" gradientUnits="userSpaceOnUse" x1="7.119" x2="5.947" y1="26.439" y2="26.439"><stop offset="0" stop-color="#504665"/><stop offset="1" stop-color="#504665" stop-opacity="0"/></linearGradient><radialGradient id="C" cx="0" cy="0" gradientTransform="matrix(-1.90566484 5.1549993 -3.51208457 -1.29832337 24.5391 22.451)" gradientUnits="userSpaceOnUse" r="1"><stop offset="0" stop-color="#746b8d"/><stop offset="1" stop-color="#4d396f"/></radialGradient><linearGradient id="D" gradientUnits="userSpaceOnUse" x1="23.048" x2="23.69" y1="26.525" y2="26.494"><stop offset=".478" stop-color="#604e83"/><stop offset="1" stop-color="#604e83" stop-opacity="0"/></linearGradient><linearGradient id="E" gradientUnits="userSpaceOnUse" x1="22.69" x2="18.315" y1="16.51" y2="29.02"><stop offset="0" stop-color="#2ca9dd"/><stop offset="1" stop-color="#3069c9"/></linearGradient><linearGradient id="F" gradientUnits="userSpaceOnUse" x1="16.744" x2="17.451" y1="27.011" y2="27.105"><stop offset="0" stop-color="#3466b9"/><stop offset="1" stop-color="#3073cd" stop-opacity="0"/></linearGradient><radialGradient id="G" cx="0" cy="0" gradientTransform="matrix(-2.71871728 5.59375854 -.25587413 -.12436172 24.1591 18.4001)" gradientUnits="userSpaceOnUse" r="1"><stop offset="0" stop-color="#40a8ea"/><stop offset="1" stop-color="#2796d4" stop-opacity="0"/></radialGradient><linearGradient id="H" gradientUnits="userSpaceOnUse" x1="20.707" x2="20.707" y1="16.51" y2="17.609"><stop offset=".457" stop-color="#3ca6cf"/><stop offset="1" stop-color="#2ea1dc" stop-opacity="0"/></linearGradient><linearGradient id="I" gradientUnits="userSpaceOnUse" x1="7.815" x2="11.815" y1="18.15" y2="29.4"><stop offset="0" stop-color="#258ec6"/><stop offset="1" stop-color="#3073d6"/></linearGradient><radialGradient id="J" cx="0" cy="0" gradientTransform="matrix(-1.55615902 -6.6782184 .65059826 -.15160246 13.1703 29.0202)" gradientUnits="userSpaceOnUse" r="1"><stop offset="0" stop-color="#3778d0"/><stop offset="1" stop-color="#3778d0" stop-opacity="0"/></radialGradient><linearGradient id="K" gradientUnits="userSpaceOnUse" x1="8.285" x2="8.983" y1="16.256" y2="19.82"><stop offset="0" stop-color="#3a90be"/><stop offset="1" stop-color="#2987cc" stop-opacity="0"/></linearGradient><linearGradient id="L" gradientUnits="userSpaceOnUse" x1="7.815" x2="8.229" y1="23.088" y2="22.884"><stop offset="0" stop-color="#3e8ed5"/><stop offset="1" stop-color="#2a85ce" stop-opacity="0"/></linearGradient><linearGradient id="M" gradientUnits="userSpaceOnUse" x1="13.659" x2="13.248" y1="28.716" y2="28.802"><stop offset="0" stop-color="#3469bc"/><stop offset="1" stop-color="#2e7fd1" stop-opacity="0"/></linearGradient><radialGradient id="N" cx="0" cy="0" gradientTransform="matrix(-2.17873561 .81494262 -1.02634718 -2.7439222 12.1075 18.2854)" gradientUnits="userSpaceOnUse" r="1"><stop offset=".178" stop-color="#2c649b"/><stop offset="1" stop-color="#288acb" stop-opacity="0"/></radialGradient><linearGradient id="O" gradientUnits="userSpaceOnUse" x1="23.315" x2="21.534" y1="26.556" y2="26.556"><stop offset="0" stop-color="#7c739f"/><stop offset="1" stop-color="#5f4b8a"/></linearGradient><linearGradient id="P" gradientUnits="userSpaceOnUse" x1="8.034" x2="10.315" y1="28.369" y2="27.213"><stop offset="0" stop-color="#665395"/><stop offset="1" stop-color="#5d4c7d"/></linearGradient><linearGradient id="Q" gradientUnits="userSpaceOnUse" x1="15.032" x2="15.032" y1="17.91" y2="29.014"><stop offset=".006" stop-color="#ccc"/><stop offset="1" stop-color="#e6e6e6"/></linearGradient><radialGradient id="R" cx="0" cy="0" gradientTransform="matrix(0 9.50857 -5.52096 0 15.0263 20.7665)" gradientUnits="userSpaceOnUse" r="1"><stop offset=".092" stop-color="#e3a28a"/><stop offset=".838" stop-color="#ba6a59"/></radialGradient><radialGradient id="S" cx="0" cy="0" gradientTransform="matrix(0 -7.08205 11.2731 0 15.0263 24.71)" gradientUnits="userSpaceOnUse" r="1"><stop offset=".717" stop-color="#bb6a4f" stop-opacity="0"/><stop offset=".937" stop-color="#bb6a4f"/></radialGradient><linearGradient id="T" gradientUnits="userSpaceOnUse" x1="17.806" x2="15.845" y1="22.6" y2="22.272"><stop offset=".196" stop-color="#ae6047"/><stop offset=".671" stop-color="#c37b68" stop-opacity="0"/></linearGradient><radialGradient id="U" cx="0" cy="0" gradientTransform="matrix(-2.13940659 1.45989672 -1.43345562 -2.10065848 28.6383 22.0287)" gradientUnits="userSpaceOnUse" r="1"><stop offset=".464" stop-color="#deaf8e"/><stop offset="1" stop-color="#b27959"/></radialGradient><radialGradient id="V" cx="0" cy="0" gradientTransform="matrix(.84335165 -.64208504 .49204167 .64627601 28.0064 21.8668)" gradientUnits="userSpaceOnUse" r="1"><stop offset=".132" stop-color="#e6bea1"/><stop offset="1" stop-color="#e6bea1" stop-opacity="0"/></radialGradient><linearGradient id="W" gradientUnits="userSpaceOnUse" x1="25.659" x2="25.659" y1="16.206" y2="20.263"><stop offset=".313" stop-color="#453357"/><stop offset=".562" stop-color="#562d79"/></linearGradient><radialGradient id="X" cx="0" cy="0" gradientTransform="matrix(-3.57005868 2.15793357 -2.15793357 -3.57005868 27.1388 17.0791)" gradientUnits="userSpaceOnUse" r="1"><stop offset=".838" stop-color="#473558" stop-opacity="0"/><stop offset="1" stop-color="#673d45"/></radialGradient><radialGradient id="Y" cx="0" cy="0" gradientTransform="matrix(1.26513913 1.2482719 -2.90348287 2.94271607 23.7621 15.7153)" gradientUnits="userSpaceOnUse" r="1"><stop offset="0" stop-color="#7b5e40"/><stop offset="1" stop-color="#463358" stop-opacity="0"/></radialGradient><radialGradient id="Z" cx="0" cy="0" gradientTransform="matrix(0 -1.37479 2.10625 0 26.8322 17.0732)" gradientUnits="userSpaceOnUse" r="1"><stop offset="0" stop-color="#7d718c"/><stop offset="1" stop-color="#7d718c" stop-opacity="0"/></radialGradient><linearGradient id="aa" gradientUnits="userSpaceOnUse" x1="25.854" x2="25.712" y1="17.142" y2="18.346"><stop offset=".12" stop-color="#bfbac7"/><stop offset="1" stop-color="#aa7bd1"/></linearGradient><radialGradient id="ab" cx="0" cy="0" gradientTransform="matrix(0 .440797 -2.66861 0 27.4264 17.4641)" gradientUnits="userSpaceOnUse" r="1"><stop offset="0" stop-color="#eae5f7"/><stop offset="1" stop-color="#c1bcc8" stop-opacity="0"/></radialGradient><linearGradient id="ac" gradientUnits="userSpaceOnUse" x1="23.156" x2="23.283" y1="17.079" y2="17.515"><stop offset="0" stop-color="#b19a83"/><stop offset="1" stop-color="#b19a83" stop-opacity="0"/></linearGradient><linearGradient id="ad" gradientUnits="userSpaceOnUse" x1="26.856" x2="24.569" y1="21.649" y2="21.649"><stop offset="0" stop-color="#d9cbea"/><stop offset="1" stop-color="#a78bc1"/></linearGradient><linearGradient id="ae" gradientUnits="userSpaceOnUse" x1="24.386" x2="24.767" y1="21.492" y2="21.464"><stop offset="0" stop-color="#a0768f"/><stop offset="1" stop-color="#ad93c6" stop-opacity="0"/></linearGradient><linearGradient id="af" gradientUnits="userSpaceOnUse" x1="27.004" x2="26.742" y1="21.363" y2="21.34"><stop offset="0" stop-color="#cbc6d6"/><stop offset="1" stop-color="#d3c3e5" stop-opacity="0"/></linearGradient><radialGradient id="ag" cx="0" cy="0" gradientTransform="matrix(-.49980758 .66244881 -.66244881 -.49980758 25.9012 21.3355)" gradientUnits="userSpaceOnUse" r="1"><stop offset="0" stop-color="#d2bfe7"/><stop offset="1" stop-color="#c0a6d9"/></radialGradient><radialGradient id="ah" cx="0" cy="0" gradientTransform="matrix(-1.39062797 -2.68749852 6.04551059 -3.12820864 15.8453 20.6094)" gradientUnits="userSpaceOnUse" r="1"><stop offset=".148" stop-color="#db9a86"/><stop offset="1" stop-color="#c0705f"/></radialGradient><radialGradient id="ai" cx="0" cy="0" gradientTransform="matrix(0 1.5843 -1.90116 0 15.0699 18.9454)" gradientUnits="userSpaceOnUse" r="1"><stop offset="0" stop-color="#bf6d76"/><stop offset="1" stop-color="#d1867a"/></radialGradient><linearGradient id="aj" gradientUnits="userSpaceOnUse" x1="27.917" x2="23.048" y1="26.896" y2="26.896"><stop offset=".146" stop-color="#f3c29f"/><stop offset=".861" stop-color="#c68b80"/></linearGradient><radialGradient id="ak" cx="0" cy="0" gradientTransform="matrix(0 .878707 -1.6371 0 25.9937 23.8738)" gradientUnits="userSpaceOnUse" r="1"><stop offset=".106" stop-color="#f8c8ad"/><stop offset="1" stop-color="#f2c49e" stop-opacity="0"/></radialGradient><linearGradient id="al"><stop offset=".109" stop-color="#f8c8ad"/><stop offset="1" stop-color="#f2c49e" stop-opacity="0"/></linearGradient><radialGradient id="am" cx="0" cy="0" gradientTransform="matrix(0 .941919 -1.75486 0 25.9937 25.2925)" gradientUnits="userSpaceOnUse" r="1" xlink:href="#al"/><radialGradient id="an" cx="0" cy="0" gradientTransform="matrix(0 .787787 -1.4677 0 25.9937 26.6626)" gradientUnits="userSpaceOnUse" r="1" xlink:href="#al"/><radialGradient id="ao" cx="0" cy="0" gradientTransform="matrix(0 .876159 -2.08784 0 25.9937 28.144)" gradientUnits="userSpaceOnUse" r="1"><stop offset=".186" stop-color="#f8c8ad"/><stop offset="1" stop-color="#f2c49e" stop-opacity="0"/></radialGradient><radialGradient id="ap" cx="0" cy="0" gradientTransform="matrix(-3.29814764 5.60070819 -3.79865347 -2.23695282 28.9555 23.4194)" gradientUnits="userSpaceOnUse" r="1"><stop offset="0" stop-color="#feca9f"/><stop offset="1" stop-color="#feca9f" stop-opacity="0"/></radialGradient><linearGradient id="aq"><stop offset="0" stop-color="#ae7759"/><stop offset="1" stop-color="#c08666" stop-opacity="0"/></linearGradient><linearGradient id="ar" gradientUnits="userSpaceOnUse" x1="23.663" x2="25.583" xlink:href="#aq" y1="24.694" y2="24.694"/><linearGradient id="as" gradientUnits="userSpaceOnUse" x1="23.663" x2="25.583" xlink:href="#aq" y1="26.136" y2="26.136"/><linearGradient id="at" gradientUnits="userSpaceOnUse" x1="23.663" x2="25.583" xlink:href="#aq" y1="27.566" y2="27.566"/><radialGradient id="au" cx="0" cy="0" gradientTransform="matrix(1.75471 0 0 3.07076 8.64435 12.6038)" gradientUnits="userSpaceOnUse" r="1"><stop offset=".351" stop-color="#c28775"/><stop offset="1" stop-color="#ba7867"/></radialGradient><linearGradient id="av" gradientUnits="userSpaceOnUse" x1="10.314" x2="9.673" y1="12.882" y2="12.882"><stop offset="0" stop-color="#af6f5d"/><stop offset="1" stop-color="#b87862"/></linearGradient><linearGradient id="aw" gradientUnits="userSpaceOnUse" x1="20.912" x2="20.094" y1="11.512" y2="14.048"><stop offset="0" stop-color="#f5c8a5"/><stop offset="1" stop-color="#dca189"/></linearGradient><radialGradient id="ax" cx="0" cy="0" gradientTransform="matrix(.82663435 -.60191744 .68701092 .94349621 20.1982 12.339)" gradientUnits="userSpaceOnUse" r="1"><stop offset=".543" stop-color="#e3ab88"/><stop offset="1" stop-color="#e3ab88" stop-opacity="0"/></radialGradient><radialGradient id="ay" cx="0" cy="0" gradientTransform="matrix(.82119299 -1.5104056 .88404601 .48064731 19.7848 13.425)" gradientUnits="userSpaceOnUse" r="1"><stop offset=".69" stop-color="#d79a76" stop-opacity="0"/><stop offset="1" stop-color="#d79a76"/></radialGradient><radialGradient id="az" cx="0" cy="0" gradientTransform="matrix(.25926587 .25663394 -.33083738 .33423032 19.8261 12.6038)" gradientUnits="userSpaceOnUse" r="1"><stop offset="0" stop-color="#cb8e6d"/><stop offset="1" stop-color="#cb8e6d" stop-opacity="0"/></radialGradient><linearGradient id="aA" gradientUnits="userSpaceOnUse" x1="19.097" x2="11.46" y1="12.993" y2="14.131"><stop offset="0" stop-color="#fac39e"/><stop offset="1" stop-color="#c9917c"/></linearGradient><radialGradient id="aB" cx="0" cy="0" gradientTransform="matrix(-.37432519 10.18752531 -9.73318191 -.35763103 15.9062 9.06253)" gradientUnits="userSpaceOnUse" r="1"><stop offset=".758" stop-color="#d69494" stop-opacity="0"/><stop offset=".984" stop-color="#c17c8d"/></radialGradient><linearGradient id="aC" gradientUnits="userSpaceOnUse" x1="9.666" x2="11.978" y1="15.689" y2="15.387"><stop offset="0" stop-color="#d99e84"/><stop offset="1" stop-color="#d99e84" stop-opacity="0"/></linearGradient><radialGradient id="aD" cx="0" cy="0" gradientTransform="matrix(0 -1.30697 1.60857 0 17.4069 11.3325)" gradientUnits="userSpaceOnUse" r="1"><stop offset="0" stop-color="#e2a18c"/><stop offset="1" stop-color="#e2a18c" stop-opacity="0"/></radialGradient><radialGradient id="aE" cx="0" cy="0" gradientTransform="matrix(0 -1.39075 1.72952 0 12.8493 11.299)" gradientUnits="userSpaceOnUse" r="1"><stop offset="0" stop-color="#c2837a"/><stop offset="1" stop-color="#c2837a" stop-opacity="0"/></radialGradient><radialGradient id="aF" cx="0" cy="0" gradientTransform="matrix(-3.43631419 4.42895216 -7.53182594 -5.84375704 18.753 4.89143)" gradientUnits="userSpaceOnUse" r="1"><stop offset="0" stop-color="#ffffc2"/><stop offset="1" stop-color="#ffffc2" stop-opacity="0"/></radialGradient><linearGradient id="aG" gradientUnits="userSpaceOnUse" x1="10.2" x2="13.102" y1="12.337" y2="7.182"><stop offset="0" stop-color="#e8ad8e"/><stop offset="1" stop-color="#e8ad8e" stop-opacity="0"/></linearGradient><radialGradient id="aH" cx="0" cy="0" gradientTransform="matrix(-.06681666 -1.86131111 .91413419 -.03281525 10.8686 9.14859)" gradientUnits="userSpaceOnUse" r="1"><stop offset=".227" stop-color="#eec19c"/><stop offset="1" stop-color="#eec19c" stop-opacity="0"/></radialGradient><radialGradient id="aI" cx="0" cy="0" gradientTransform="matrix(.85906781 -1.96630982 1.60367815 .70063642 19.2875 10.8667)" gradientUnits="userSpaceOnUse" r="1"><stop offset=".479" stop-color="#e3ab85"/><stop offset="1" stop-color="#e3ab85" stop-opacity="0"/></radialGradient><radialGradient id="aJ" cx="0" cy="0" gradientTransform="matrix(.99270266 1.23176044 -1.08755324 .87648292 14.2858 4.0033)" gradientUnits="userSpaceOnUse" r="1"><stop offset="0" stop-color="#fbecaf"/><stop offset="1" stop-color="#fbecaf" stop-opacity="0"/></radialGradient><radialGradient id="aK" cx="0" cy="0" gradientTransform="matrix(.18135793 .78313383 -1.28747767 .29815375 15.7558 4.0033)" gradientUnits="userSpaceOnUse" r="1"><stop offset=".208" stop-color="#e1d19f"/><stop offset="1" stop-color="#e1d19f" stop-opacity="0"/></radialGradient><radialGradient id="aL" cx="0" cy="0" gradientTransform="matrix(.72543835 .89725295 -2.01040713 1.6254351 10.7159 5.73141)" gradientUnits="userSpaceOnUse" r="1"><stop offset="0" stop-color="#dcc291"/><stop offset="1" stop-color="#dcc291" stop-opacity="0"/></radialGradient><linearGradient id="aM" gradientUnits="userSpaceOnUse" x1="14.197" x2="15.135" y1="13.652" y2="13.652"><stop offset="0" stop-color="#cb9173"/><stop offset="1" stop-color="#cb9173" stop-opacity="0"/></linearGradient><linearGradient id="aN" gradientUnits="userSpaceOnUse" x1="15.999" x2="14.974" y1="13.975" y2="13.96"><stop offset="0" stop-color="#fec8a4"/><stop offset="1" stop-color="#fec8a4" stop-opacity="0"/></linearGradient><linearGradient id="aO" gradientUnits="userSpaceOnUse" x1="15.256" x2="15.256" y1="14.717" y2="14.144"><stop offset="0" stop-color="#c98583"/><stop offset="1" stop-color="#c98583" stop-opacity="0"/></linearGradient><linearGradient id="aP" gradientUnits="userSpaceOnUse" x1="15.187" x2="15.187" y1="14.759" y2="14.591"><stop offset="0" stop-color="#c27b77"/><stop offset="1" stop-color="#c27b77" stop-opacity="0"/></linearGradient><radialGradient id="aQ" cx="0" cy="0" gradientTransform="matrix(-2.91170608 6.52446977 -8.23836334 -3.67657349 14.5867 7.21735)" gradientUnits="userSpaceOnUse" r="1"><stop offset="0" stop-color="#ff338e"/><stop offset="1" stop-color="#e9295e"/></radialGradient><radialGradient id="aR" cx="0" cy="0" gradientTransform="matrix(0 -1.29688 1.23651 0 13.0533 11.6861)" gradientUnits="userSpaceOnUse" r="1"><stop offset="0" stop-color="#be2252"/><stop offset="1" stop-color="#be2252" stop-opacity="0"/></radialGradient><radialGradient id="aS" cx="0" cy="0" gradientTransform="matrix(0 -5.61343 7.44672 0 13.0533 12.5938)" gradientUnits="userSpaceOnUse" r="1"><stop offset=".958" stop-color="#f0276f" stop-opacity="0"/><stop offset="1" stop-color="#f0276f"/></radialGradient><linearGradient id="aT" gradientUnits="userSpaceOnUse" x1="14.024" x2="14.459" y1="16.332" y2="15.645"><stop offset="0" stop-color="#d79e8e"/><stop offset=".663" stop-color="#d79e8e" stop-opacity="0"/></linearGradient><linearGradient id="aU"><stop offset=".75" stop-color="#925c51"/><stop offset="1" stop-color="#694b43"/><stop offset="1" stop-color="#804d49"/><stop offset="1" stop-color="#85534d"/></linearGradient><radialGradient id="aV" cx="0" cy="0" gradientTransform="matrix(0 .903078 -1.06858 0 17.2398 12.2554)" gradientUnits="userSpaceOnUse" r="1" xlink:href="#aU"/><linearGradient id="aW"><stop offset=".766" stop-color="#ffe6e2" stop-opacity="0"/><stop offset=".966" stop-color="#ffe6e2"/></linearGradient><radialGradient id="aX" cx="0" cy="0" gradientTransform="matrix(-.2318438 -.298762 .4113242 -.31919376 17.0117 12.006)" gradientUnits="userSpaceOnUse" r="1" xlink:href="#aW"/><linearGradient id="aY"><stop offset="0" stop-color="#b4948d"/><stop offset="1" stop-color="#b4948d" stop-opacity="0"/></linearGradient><linearGradient id="aZ" gradientUnits="userSpaceOnUse" x1="18.017" x2="17.704" xlink:href="#aY" y1="11.976" y2="12.169"/><radialGradient id="a0" cx="0" cy="0" gradientTransform="matrix(0 .903123 -1.06863 0 12.8772 12.2554)" gradientUnits="userSpaceOnUse" r="1" xlink:href="#aU"/><linearGradient id="a1" gradientUnits="userSpaceOnUse" x1="13.621" x2="13.307" xlink:href="#aY" y1="11.976" y2="12.169"/><radialGradient id="a2" cx="0" cy="0" gradientTransform="matrix(-.00773335 -.49392646 .59372023 -.00929581 12.5909 12.141)" gradientUnits="userSpaceOnUse" r="1" xlink:href="#aW"/><linearGradient id="a3"><stop offset="0" stop-color="#a57146"/><stop offset="1" stop-color="#a57146" stop-opacity="0"/></linearGradient><linearGradient id="a4" gradientUnits="userSpaceOnUse" x1="18.033" x2="17.613" xlink:href="#a3" y1="9.836" y2="8.978"/><linearGradient id="a5" gradientUnits="userSpaceOnUse" x1="12.729" x2="11.54" xlink:href="#a3" y1="9.709" y2="9.21"/><g filter="url(#a)"><path d="m12.7679 24.27v4.74h5.3131l-.8031-4.69c-.68.25-1.42.38-2.19.38-.81.01-1.6-.15-2.32-.43z" fill="#e7c1f2"/><path d="m12.7679 24.27v4.74h5.3131l-.8031-4.69c-.68.25-1.42.38-2.19.38-.81.01-1.6-.15-2.32-.43z" fill="url(#z)"/></g><path d="m6.99787 29.01v-7.93c-1.44 1.35-2.56 3.07-3.18 5.04l-.03.09c-.29.91-.51 1.85-.66 2.8z" fill="url(#A)"/><path d="m6.99787 29.01v-7.93c-1.44 1.35-2.56 3.07-3.18 5.04l-.03.09c-.29.91-.51 1.85-.66 2.8z" fill="url(#B)"/><path d="m26.9379 29.0099c-.14-.96-.36-1.91-.65-2.84-.63-2.01-1.76-3.76-3.24-5.13v7.97z" fill="url(#C)"/><path d="m26.9379 29.0099c-.14-.96-.36-1.91-.65-2.84-.63-2.01-1.76-3.76-3.24-5.13v7.97z" fill="url(#D)"/><path d="m24.2333 17.0236h-5.58l-2.2735 11.9966h3.148l5.3255-11.0166c.22-.46-.12-.98-.62-.98z" fill="url(#E)"/><path d="m24.2333 17.0236h-5.58l-2.2735 11.9966h3.148l5.3255-11.0166c.22-.46-.12-.98-.62-.98z" fill="url(#F)"/><path d="m24.2333 17.0236h-5.58l-2.2735 11.9966h3.148l5.3255-11.0166c.22-.46-.12-.98-.62-.98z" fill="url(#G)"/><path d="m24.2333 17.0236h-5.58l-2.2735 11.9966h3.148l5.3255-11.0166c.22-.46-.12-.98-.62-.98z" fill="url(#H)"/><path d="m5.32497 17.0314h6.08613l2.2481 11.9888h-2.79l-5.88016-11.5286c-.08573-.125-.07006-.4602.33593-.4602z" fill="url(#I)"/><path d="m5.32497 17.0314h6.08613l2.2481 11.9888h-2.79l-5.88016-11.5286c-.08573-.125-.07006-.4602.33593-.4602z" fill="url(#J)"/><path d="m5.32497 17.0314h6.08613l2.2481 11.9888h-2.79l-5.88016-11.5286c-.08573-.125-.07006-.4602.33593-.4602z" fill="url(#K)"/><path d="m5.32497 17.0314h6.08613l2.2481 11.9888h-2.79l-5.88016-11.5286c-.08573-.125-.07006-.4602.33593-.4602z" fill="url(#L)"/><path d="m5.32497 17.0314h6.08613l2.2481 11.9888h-2.79l-5.88016-11.5286c-.08573-.125-.07006-.4602.33593-.4602z" fill="url(#M)"/><path d="m5.32497 17.0314h6.08613l2.2481 11.9888h-2.79l-5.88016-11.5286c-.08573-.125-.07006-.4602.33593-.4602z" fill="url(#N)"/><path d="m23.0479 29.0101v-7.2677l-3.52 7.2677z" fill="url(#O)"/><path d="m6.99786 29.0101h3.87004l-3.87004-7.5959z" fill="url(#P)"/><path d="m15.0379 17.91c-1.16 0-2.3.17-3.38.49l1.1 5.87c.72.28 1.5.44 2.32.44.77 0 1.51-.14 2.19-.38l1.11-5.92c-1.05-.33-2.18-.5-3.34-.5z" fill="url(#Q)"/><path d="m15.0379 16.8229c-1.16 0-2.4863.2088-3.5663.5799l1.2903 6.8731c.72.3248 1.496.4341 2.316.4341.77 0 1.511-.0735 2.191-.3519l1.3121-6.9553c-1.05-.3827-2.3831-.5799-3.5431-.5799z" fill="url(#R)"/><path d="m15.0379 16.8229c-1.16 0-2.4863.2088-3.5663.5799l1.2903 6.8731c.72.3248 1.496.4341 2.316.4341.77 0 1.511-.0735 2.191-.3519l1.3121-6.9553c-1.05-.3827-2.3831-.5799-3.5431-.5799z" fill="url(#S)"/><path d="m15.0379 16.8229c-1.16 0-2.4863.2088-3.5663.5799l1.2903 6.8731c.72.3248 1.496.4341 2.316.4341.77 0 1.511-.0735 2.191-.3519l1.3121-6.9553c-1.05-.3827-2.3831-.5799-3.5431-.5799z" fill="url(#T)"/><path d="m27.197 21.3346c.59 0 1.07.48 1.07 1.07v2.45h-2.14v-2.45c0-.59.48-1.07 1.07-1.07z" fill="url(#U)"/><path d="m27.197 21.3346c.59 0 1.07.48 1.07 1.07v2.45h-2.14v-2.45c0-.59.48-1.07 1.07-1.07z" fill="url(#V)"/><path d="m25.6866 20.2087c1.3797 0 2.4981-1.1184 2.4981-2.4981 0-1.3796-1.1184-2.4981-2.4981-2.4981-1.3796 0-2.4981 1.1185-2.4981 2.4981 0 1.3797 1.1185 2.4981 2.4981 2.4981z" fill="url(#W)"/><path d="m25.6866 20.2087c1.3797 0 2.4981-1.1184 2.4981-2.4981 0-1.3796-1.1184-2.4981-2.4981-2.4981-1.3796 0-2.4981 1.1185-2.4981 2.4981 0 1.3797 1.1185 2.4981 2.4981 2.4981z" fill="url(#X)"/><path d="m25.6866 20.2087c1.3797 0 2.4981-1.1184 2.4981-2.4981 0-1.3796-1.1184-2.4981-2.4981-2.4981-1.3796 0-2.4981 1.1185-2.4981 2.4981 0 1.3797 1.1185 2.4981 2.4981 2.4981z" fill="url(#Y)"/><path d="m25.6866 20.2087c1.3797 0 2.4981-1.1184 2.4981-2.4981 0-1.3796-1.1184-2.4981-2.4981-2.4981-1.3796 0-2.4981 1.1185-2.4981 2.4981 0 1.3797 1.1185 2.4981 2.4981 2.4981z" fill="url(#Z)"/><g filter="url(#b)"><path d="m28.1339 17.0506-4.8438-.0203c-.325 0-.5789.2538-.5789.5788s.2539.5788.5789.5788l4.8438.0203c.325 0 .5789-.2538.5789-.5788 0-.3148-.2641-.5788-.5789-.5788z" fill="url(#aa)"/><path d="m28.1339 17.0506-4.8438-.0203c-.325 0-.5789.2538-.5789.5788s.2539.5788.5789.5788l4.8438.0203c.325 0 .5789-.2538.5789-.5788 0-.3148-.2641-.5788-.5789-.5788z" fill="url(#ab)"/><path d="m28.1339 17.0506-4.8438-.0203c-.325 0-.5789.2538-.5789.5788s.2539.5788.5789.5788l4.8438.0203c.325 0 .5789-.2538.5789-.5788 0-.3148-.2641-.5788-.5789-.5788z" fill="url(#ac)"/></g><path d="m25.6461 26.8501c-.4062 0-.7414-.3047-.782-.7109l-.6702-6.428 2.9754.0101-.7312 6.4281c-.0507.4062-.396.7007-.792.7007z" fill="url(#ad)"/><path d="m25.6461 26.8501c-.4062 0-.7414-.3047-.782-.7109l-.6702-6.428 2.9754.0101-.7312 6.4281c-.0507.4062-.396.7007-.792.7007z" fill="url(#ae)"/><path d="m25.6461 26.8501c-.4062 0-.7414-.3047-.782-.7109l-.6702-6.428 2.9754.0101-.7312 6.4281c-.0507.4062-.396.7007-.792.7007z" fill="url(#af)"/><g filter="url(#c)"><path d="m25.6562 22.1382c.2692 0 .4874-.2182.4874-.4874s-.2182-.4875-.4874-.4875-.4874.2183-.4874.4875.2182.4874.4874.4874z" fill="url(#ag)"/></g><g filter="url(#d)"><circle cx="15.07" cy="18.16" fill="url(#ah)" r="2.734"/></g><g filter="url(#e)"><circle cx="15.07" cy="18.27" fill="url(#ai)" r="2.406"/></g><g filter="url(#f)"><path d="m23.0478 23.8968c0-.4399.3655-.8022.8164-.8022h3.0545c.7446 0 1.3483.5889 1.3483 1.3153v3.5142c0 .6053-.5031 1.096-1.1236 1.096h-3.2792c-.4509 0-.8164-.3623-.8164-.8021 0-.3143.1867-.589.4577-.7202-.271-.1312-.4577-.406-.4577-.7202 0-.3143.1867-.589.4577-.7202-.271-.1313-.4577-.406-.4577-.7202 0-.3143.1867-.589.4577-.7202-.271-.1313-.4577-.406-.4577-.7202z" fill="url(#aj)"/><path d="m23.0478 23.8968c0-.4399.3655-.8022.8164-.8022h3.0545c.7446 0 1.3483.5889 1.3483 1.3153v3.5142c0 .6053-.5031 1.096-1.1236 1.096h-3.2792c-.4509 0-.8164-.3623-.8164-.8021 0-.3143.1867-.589.4577-.7202-.271-.1312-.4577-.406-.4577-.7202 0-.3143.1867-.589.4577-.7202-.271-.1313-.4577-.406-.4577-.7202 0-.3143.1867-.589.4577-.7202-.271-.1313-.4577-.406-.4577-.7202z" fill="url(#ak)"/><path d="m23.0478 23.8968c0-.4399.3655-.8022.8164-.8022h3.0545c.7446 0 1.3483.5889 1.3483 1.3153v3.5142c0 .6053-.5031 1.096-1.1236 1.096h-3.2792c-.4509 0-.8164-.3623-.8164-.8021 0-.3143.1867-.589.4577-.7202-.271-.1312-.4577-.406-.4577-.7202 0-.3143.1867-.589.4577-.7202-.271-.1313-.4577-.406-.4577-.7202 0-.3143.1867-.589.4577-.7202-.271-.1313-.4577-.406-.4577-.7202z" fill="url(#am)"/><path d="m23.0478 23.8968c0-.4399.3655-.8022.8164-.8022h3.0545c.7446 0 1.3483.5889 1.3483 1.3153v3.5142c0 .6053-.5031 1.096-1.1236 1.096h-3.2792c-.4509 0-.8164-.3623-.8164-.8021 0-.3143.1867-.589.4577-.7202-.271-.1312-.4577-.406-.4577-.7202 0-.3143.1867-.589.4577-.7202-.271-.1313-.4577-.406-.4577-.7202 0-.3143.1867-.589.4577-.7202-.271-.1313-.4577-.406-.4577-.7202z" fill="url(#an)"/><path d="m23.0478 23.8968c0-.4399.3655-.8022.8164-.8022h3.0545c.7446 0 1.3483.5889 1.3483 1.3153v3.5142c0 .6053-.5031 1.096-1.1236 1.096h-3.2792c-.4509 0-.8164-.3623-.8164-.8021 0-.3143.1867-.589.4577-.7202-.271-.1312-.4577-.406-.4577-.7202 0-.3143.1867-.589.4577-.7202-.271-.1313-.4577-.406-.4577-.7202 0-.3143.1867-.589.4577-.7202-.271-.1313-.4577-.406-.4577-.7202z" fill="url(#ao)"/></g><path d="m23.0478 23.8968c0-.4399.3655-.8022.8164-.8022h3.0545c.7446 0 1.3483.5889 1.3483 1.3153v3.5142c0 .6053-.5031 1.096-1.1236 1.096h-3.2792c-.4509 0-.8164-.3623-.8164-.8021 0-.3143.1867-.589.4577-.7202-.271-.1312-.4577-.406-.4577-.7202 0-.3143.1867-.589.4577-.7202-.271-.1313-.4577-.406-.4577-.7202 0-.3143.1867-.589.4577-.7202-.271-.1313-.4577-.406-.4577-.7202z" fill="url(#ap)"/><g filter="url(#g)"><path d="m23.6627 24.6156h2.0189" stroke="url(#ar)" stroke-linecap="round" stroke-width=".1"/></g><g filter="url(#h)"><path d="m23.6627 26.0574h2.0189" stroke="url(#as)" stroke-linecap="round" stroke-width=".1"/></g><g filter="url(#i)"><path d="m23.6627 27.4876h2.0189" stroke="url(#at)" stroke-linecap="round" stroke-width=".1"/></g><g filter="url(#j)"><circle cx="10.314" cy="12.604" fill="url(#au)" r="1.669"/></g><g filter="url(#k)"><circle cx="10.314" cy="12.604" fill="url(#av)" r=".995"/></g><g filter="url(#l)"><circle cx="19.826" cy="12.604" fill="url(#aw)" r="1.669"/><circle cx="19.826" cy="12.604" fill="url(#ax)" r="1.669"/></g><g filter="url(#m)"><circle cx="19.826" cy="12.604" fill="#d79e81" r=".995"/><circle cx="19.826" cy="12.604" fill="url(#ay)" r=".995"/><circle cx="19.826" cy="12.604" fill="url(#az)" r=".995"/></g><g filter="url(#n)"><path d="m9.96172 11.9912c.01619.0011.03255.0016.04908.0016 0 0-.05366-.8532-.1073-1.4399 0-.2666.1073-.58659.3218-.74658l.1609-.15999c.2682-.21332.3755-.53329.3755-.85327v-.85327c0-.26665.1609-.47997.429-.5333.6437-.15998 1.9845-.42663 3.9154-.42663 1.9308 0 3.2717.26665 3.9153.42663.2146.05333.4291.26665.4291.5333v.85327c0 .31998.1609.63995.3755.85327.502.3518.4707.54527.429.95997-.0536.5333-.1072 1.4399-.1072 1.4399.006 0 .0121-.0001.0181-.0003l-.2659 3.9582c-.1605 1.7694-1.5515 3.0026-3.2101 3.0026h-3.2101c-1.712 0-3.0496-1.2332-3.2101-3.0026z" fill="url(#aA)"/><path d="m9.96172 11.9912c.01619.0011.03255.0016.04908.0016 0 0-.05366-.8532-.1073-1.4399 0-.2666.1073-.58659.3218-.74658l.1609-.15999c.2682-.21332.3755-.53329.3755-.85327v-.85327c0-.26665.1609-.47997.429-.5333.6437-.15998 1.9845-.42663 3.9154-.42663 1.9308 0 3.2717.26665 3.9153.42663.2146.05333.4291.26665.4291.5333v.85327c0 .31998.1609.63995.3755.85327.502.3518.4707.54527.429.95997-.0536.5333-.1072 1.4399-.1072 1.4399.006 0 .0121-.0001.0181-.0003l-.2659 3.9582c-.1605 1.7694-1.5515 3.0026-3.2101 3.0026h-3.2101c-1.712 0-3.0496-1.2332-3.2101-3.0026z" fill="url(#aB)"/><path d="m9.96172 11.9912c.01619.0011.03255.0016.04908.0016 0 0-.05366-.8532-.1073-1.4399 0-.2666.1073-.58659.3218-.74658l.1609-.15999c.2682-.21332.3755-.53329.3755-.85327v-.85327c0-.26665.1609-.47997.429-.5333.6437-.15998 1.9845-.42663 3.9154-.42663 1.9308 0 3.2717.26665 3.9153.42663.2146.05333.4291.26665.4291.5333v.85327c0 .31998.1609.63995.3755.85327.502.3518.4707.54527.429.95997-.0536.5333-.1072 1.4399-.1072 1.4399.006 0 .0121-.0001.0181-.0003l-.2659 3.9582c-.1605 1.7694-1.5515 3.0026-3.2101 3.0026h-3.2101c-1.712 0-3.0496-1.2332-3.2101-3.0026z" fill="url(#aC)"/><path d="m9.96172 11.9912c.01619.0011.03255.0016.04908.0016 0 0-.05366-.8532-.1073-1.4399 0-.2666.1073-.58659.3218-.74658l.1609-.15999c.2682-.21332.3755-.53329.3755-.85327v-.85327c0-.26665.1609-.47997.429-.5333.6437-.15998 1.9845-.42663 3.9154-.42663 1.9308 0 3.2717.26665 3.9153.42663.2146.05333.4291.26665.4291.5333v.85327c0 .31998.1609.63995.3755.85327.502.3518.4707.54527.429.95997-.0536.5333-.1072 1.4399-.1072 1.4399.006 0 .0121-.0001.0181-.0003l-.2659 3.9582c-.1605 1.7694-1.5515 3.0026-3.2101 3.0026h-3.2101c-1.712 0-3.0496-1.2332-3.2101-3.0026z" fill="url(#aD)"/><path d="m9.96172 11.9912c.01619.0011.03255.0016.04908.0016 0 0-.05366-.8532-.1073-1.4399 0-.2666.1073-.58659.3218-.74658l.1609-.15999c.2682-.21332.3755-.53329.3755-.85327v-.85327c0-.26665.1609-.47997.429-.5333.6437-.15998 1.9845-.42663 3.9154-.42663 1.9308 0 3.2717.26665 3.9153.42663.2146.05333.4291.26665.4291.5333v.85327c0 .31998.1609.63995.3755.85327.502.3518.4707.54527.429.95997-.0536.5333-.1072 1.4399-.1072 1.4399.006 0 .0121-.0001.0181-.0003l-.2659 3.9582c-.1605 1.7694-1.5515 3.0026-3.2101 3.0026h-3.2101c-1.712 0-3.0496-1.2332-3.2101-3.0026z" fill="url(#aE)"/></g><g filter="url(#o)"><path d="m19.8795 6.12661.4291.21331c.7509.37331 1.18 1.22658 1.0191 2.13318l-.59 3.0398c-.0526.3139-.2601.5252-.5719.533-.006.0002-.012.0002-.0181.0002 0 0 .0537-.9066.1073-1.4399.0435-.433-.0321-.5651-.4291-.95988-.2145-.21332-.3754-.5333-.3754-.85327v-.85327c0-.26665-.2146-.47997-.4291-.5333-.6436-.15999-1.9845-.42663-3.9154-.42663-1.9308 0-3.2717.26664-3.9153.42663-.2682.05333-.4291.26665-.4291.5333v.85327c0 .31997-.1073.63995-.3754.85327l-.1609.15999c-.2146.15998-.32185.47999-.32185.74659.05364.5866.10725 1.4399.10725 1.4399-.01648 0-.03284-.0005-.04903-.0017-.2997-.0204-.54369-.228-.59457-.5316l-.58999-3.03973c-.10726-.85327.32181-1.70654 1.0727-2.07985l.42909-.21331c.2682-.15999.5363-.37331.8045-.58663l.9654-1.01326c.59-.53329 1.4482-.69328 2.1991-.31997.5363.15998 1.1263.15998 1.6627 0 .8045-.26665 1.7163-.05333 2.3599.53329l.8045.79994c.2146.26665.4827.42664.8045.58663z" fill="#ebcc94"/><path d="m19.8795 6.12661.4291.21331c.7509.37331 1.18 1.22658 1.0191 2.13318l-.59 3.0398c-.0526.3139-.2601.5252-.5719.533-.006.0002-.012.0002-.0181.0002 0 0 .0537-.9066.1073-1.4399.0435-.433-.0321-.5651-.4291-.95988-.2145-.21332-.3754-.5333-.3754-.85327v-.85327c0-.26665-.2146-.47997-.4291-.5333-.6436-.15999-1.9845-.42663-3.9154-.42663-1.9308 0-3.2717.26664-3.9153.42663-.2682.05333-.4291.26665-.4291.5333v.85327c0 .31997-.1073.63995-.3754.85327l-.1609.15999c-.2146.15998-.32185.47999-.32185.74659.05364.5866.10725 1.4399.10725 1.4399-.01648 0-.03284-.0005-.04903-.0017-.2997-.0204-.54369-.228-.59457-.5316l-.58999-3.03973c-.10726-.85327.32181-1.70654 1.0727-2.07985l.42909-.21331c.2682-.15999.5363-.37331.8045-.58663l.9654-1.01326c.59-.53329 1.4482-.69328 2.1991-.31997.5363.15998 1.1263.15998 1.6627 0 .8045-.26665 1.7163-.05333 2.3599.53329l.8045.79994c.2146.26665.4827.42664.8045.58663z" fill="url(#aF)"/><path d="m19.8795 6.12661.4291.21331c.7509.37331 1.18 1.22658 1.0191 2.13318l-.59 3.0398c-.0526.3139-.2601.5252-.5719.533-.006.0002-.012.0002-.0181.0002 0 0 .0537-.9066.1073-1.4399.0435-.433-.0321-.5651-.4291-.95988-.2145-.21332-.3754-.5333-.3754-.85327v-.85327c0-.26665-.2146-.47997-.4291-.5333-.6436-.15999-1.9845-.42663-3.9154-.42663-1.9308 0-3.2717.26664-3.9153.42663-.2682.05333-.4291.26665-.4291.5333v.85327c0 .31997-.1073.63995-.3754.85327l-.1609.15999c-.2146.15998-.32185.47999-.32185.74659.05364.5866.10725 1.4399.10725 1.4399-.01648 0-.03284-.0005-.04903-.0017-.2997-.0204-.54369-.228-.59457-.5316l-.58999-3.03973c-.10726-.85327.32181-1.70654 1.0727-2.07985l.42909-.21331c.2682-.15999.5363-.37331.8045-.58663l.9654-1.01326c.59-.53329 1.4482-.69328 2.1991-.31997.5363.15998 1.1263.15998 1.6627 0 .8045-.26665 1.7163-.05333 2.3599.53329l.8045.79994c.2146.26665.4827.42664.8045.58663z" fill="url(#aG)"/><path d="m19.8795 6.12661.4291.21331c.7509.37331 1.18 1.22658 1.0191 2.13318l-.59 3.0398c-.0526.3139-.2601.5252-.5719.533-.006.0002-.012.0002-.0181.0002 0 0 .0537-.9066.1073-1.4399.0435-.433-.0321-.5651-.4291-.95988-.2145-.21332-.3754-.5333-.3754-.85327v-.85327c0-.26665-.2146-.47997-.4291-.5333-.6436-.15999-1.9845-.42663-3.9154-.42663-1.9308 0-3.2717.26664-3.9153.42663-.2682.05333-.4291.26665-.4291.5333v.85327c0 .31997-.1073.63995-.3754.85327l-.1609.15999c-.2146.15998-.32185.47999-.32185.74659.05364.5866.10725 1.4399.10725 1.4399-.01648 0-.03284-.0005-.04903-.0017-.2997-.0204-.54369-.228-.59457-.5316l-.58999-3.03973c-.10726-.85327.32181-1.70654 1.0727-2.07985l.42909-.21331c.2682-.15999.5363-.37331.8045-.58663l.9654-1.01326c.59-.53329 1.4482-.69328 2.1991-.31997.5363.15998 1.1263.15998 1.6627 0 .8045-.26665 1.7163-.05333 2.3599.53329l.8045.79994c.2146.26665.4827.42664.8045.58663z" fill="url(#aH)"/><path d="m19.8795 6.12661.4291.21331c.7509.37331 1.18 1.22658 1.0191 2.13318l-.59 3.0398c-.0526.3139-.2601.5252-.5719.533-.006.0002-.012.0002-.0181.0002 0 0 .0537-.9066.1073-1.4399.0435-.433-.0321-.5651-.4291-.95988-.2145-.21332-.3754-.5333-.3754-.85327v-.85327c0-.26665-.2146-.47997-.4291-.5333-.6436-.15999-1.9845-.42663-3.9154-.42663-1.9308 0-3.2717.26664-3.9153.42663-.2682.05333-.4291.26665-.4291.5333v.85327c0 .31997-.1073.63995-.3754.85327l-.1609.15999c-.2146.15998-.32185.47999-.32185.74659.05364.5866.10725 1.4399.10725 1.4399-.01648 0-.03284-.0005-.04903-.0017-.2997-.0204-.54369-.228-.59457-.5316l-.58999-3.03973c-.10726-.85327.32181-1.70654 1.0727-2.07985l.42909-.21331c.2682-.15999.5363-.37331.8045-.58663l.9654-1.01326c.59-.53329 1.4482-.69328 2.1991-.31997.5363.15998 1.1263.15998 1.6627 0 .8045-.26665 1.7163-.05333 2.3599.53329l.8045.79994c.2146.26665.4827.42664.8045.58663z" fill="url(#aI)"/><path d="m19.8795 6.12661.4291.21331c.7509.37331 1.18 1.22658 1.0191 2.13318l-.59 3.0398c-.0526.3139-.2601.5252-.5719.533-.006.0002-.012.0002-.0181.0002 0 0 .0537-.9066.1073-1.4399.0435-.433-.0321-.5651-.4291-.95988-.2145-.21332-.3754-.5333-.3754-.85327v-.85327c0-.26665-.2146-.47997-.4291-.5333-.6436-.15999-1.9845-.42663-3.9154-.42663-1.9308 0-3.2717.26664-3.9153.42663-.2682.05333-.4291.26665-.4291.5333v.85327c0 .31997-.1073.63995-.3754.85327l-.1609.15999c-.2146.15998-.32185.47999-.32185.74659.05364.5866.10725 1.4399.10725 1.4399-.01648 0-.03284-.0005-.04903-.0017-.2997-.0204-.54369-.228-.59457-.5316l-.58999-3.03973c-.10726-.85327.32181-1.70654 1.0727-2.07985l.42909-.21331c.2682-.15999.5363-.37331.8045-.58663l.9654-1.01326c.59-.53329 1.4482-.69328 2.1991-.31997.5363.15998 1.1263.15998 1.6627 0 .8045-.26665 1.7163-.05333 2.3599.53329l.8045.79994c.2146.26665.4827.42664.8045.58663z" fill="url(#aJ)"/></g><path d="m19.8795 6.12661.4291.21331c.7509.37331 1.18 1.22658 1.0191 2.13318l-.59 3.0398c-.0526.3139-.2601.5252-.5719.533-.006.0002-.012.0002-.0181.0002 0 0 .0537-.9066.1073-1.4399.0435-.433-.0321-.5651-.4291-.95988-.2145-.21332-.3754-.5333-.3754-.85327v-.85327c0-.26665-.2146-.47997-.4291-.5333-.6436-.15999-1.9845-.42663-3.9154-.42663-1.9308 0-3.2717.26664-3.9153.42663-.2682.05333-.4291.26665-.4291.5333v.85327c0 .31997-.1073.63995-.3754.85327l-.1609.15999c-.2146.15998-.32185.47999-.32185.74659.05364.5866.10725 1.4399.10725 1.4399-.01648 0-.03284-.0005-.04903-.0017-.2997-.0204-.54369-.228-.59457-.5316l-.58999-3.03973c-.10726-.85327.32181-1.70654 1.0727-2.07985l.42909-.21331c.2682-.15999.5363-.37331.8045-.58663l.9654-1.01326c.59-.53329 1.4482-.69328 2.1991-.31997.5363.15998 1.1263.15998 1.6627 0 .8045-.26665 1.7163-.05333 2.3599.53329l.8045.79994c.2146.26665.4827.42664.8045.58663z" fill="url(#aK)"/><path d="m19.8795 6.12661.4291.21331c.7509.37331 1.18 1.22658 1.0191 2.13318l-.59 3.0398c-.0526.3139-.2601.5252-.5719.533-.006.0002-.012.0002-.0181.0002 0 0 .0537-.9066.1073-1.4399.0435-.433-.0321-.5651-.4291-.95988-.2145-.21332-.3754-.5333-.3754-.85327v-.85327c0-.26665-.2146-.47997-.4291-.5333-.6436-.15999-1.9845-.42663-3.9154-.42663-1.9308 0-3.2717.26664-3.9153.42663-.2682.05333-.4291.26665-.4291.5333v.85327c0 .31997-.1073.63995-.3754.85327l-.1609.15999c-.2146.15998-.32185.47999-.32185.74659.05364.5866.10725 1.4399.10725 1.4399-.01648 0-.03284-.0005-.04903-.0017-.2997-.0204-.54369-.228-.59457-.5316l-.58999-3.03973c-.10726-.85327.32181-1.70654 1.0727-2.07985l.42909-.21331c.2682-.15999.5363-.37331.8045-.58663l.9654-1.01326c.59-.53329 1.4482-.69328 2.1991-.31997.5363.15998 1.1263.15998 1.6627 0 .8045-.26665 1.7163-.05333 2.3599.53329l.8045.79994c.2146.26665.4827.42664.8045.58663z" fill="url(#aL)"/><g filter="url(#p)"><path d="m14.7858 12.4816-.8203 1.6995c-.1017.3496.1423.6991.488.6991h.7372c.3457 0 .5897-.3549.488-.6991l-.4982-1.6995c-.1067-.3764-.2829-.3764-.3947 0z" fill="#c68378"/></g><g filter="url(#q)"><path d="m14.6789 12.3185-.5313 1.6995c-.1085.3496.1518.6992.5204.6992h.7861c.3687 0 .6289-.355.5205-.6992l-.5313-1.6995c-.1139-.3764-.6452-.3764-.7644 0z" fill="#e4ac8f"/><path d="m14.6789 12.3185-.5313 1.6995c-.1085.3496.1518.6992.5204.6992h.7861c.3687 0 .6289-.355.5205-.6992l-.5313-1.6995c-.1139-.3764-.6452-.3764-.7644 0z" fill="url(#aM)"/><path d="m14.6789 12.3185-.5313 1.6995c-.1085.3496.1518.6992.5204.6992h.7861c.3687 0 .6289-.355.5205-.6992l-.5313-1.6995c-.1139-.3764-.6452-.3764-.7644 0z" fill="url(#aN)"/><path d="m14.6789 12.3185-.5313 1.6995c-.1085.3496.1518.6992.5204.6992h.7861c.3687 0 .6289-.355.5205-.6992l-.5313-1.6995c-.1139-.3764-.6452-.3764-.7644 0z" fill="url(#aO)"/></g><path d="m14.6789 12.3185-.5313 1.6995c-.1085.3496.1518.6992.5204.6992h.7861c.3687 0 .6289-.355.5205-.6992l-.5313-1.6995c-.1139-.3764-.6452-.3764-.7644 0z" fill="url(#aP)"/><path d="m14.9642 6.98035c-.9052.00616-1.6762.07064-2.3012.15319l-2.1041 6.19426h1.8091l-.5078 2.6875 3.6875-5.1329h-1.883z" fill="url(#aQ)"/><path d="m14.9642 6.98035c-.9052.00616-1.6762.07064-2.3012.15319l-2.1041 6.19426h1.8091l-.5078 2.6875 3.6875-5.1329h-1.883z" fill="url(#aR)"/><path d="m14.9642 6.98035c-.9052.00616-1.6762.07064-2.3012.15319l-2.1041 6.19426h1.8091l-.5078 2.6875 3.6875-5.1329h-1.883z" fill="url(#aS)"/><path d="m13.6993 15.3608c.3934.2051.8623.3227 1.3619.3227.5046 0 .9684-.1176 1.3618-.3227l.0005-.0002c.09-.0458.1845-.0193.2413.0397.0574.0596.0785.155.0209.2414m-2.9864-.2809 2.9447.2533m-2.9447-.2533-.0005-.0002c-.0907-.0462-.1852-.0175-.2415.0418-.0566.0595-.0788.155-.0204.2397m.2624-.2813-.221.2533m3.2074.0276s-.0001.0001-.0001.0001l-.0416-.0277m.0417.0276v-.0001l-.0417-.0275m.0417.0276c-.3439.521-.9427.8681-1.6245.8681-.6817 0-1.2805-.347-1.6243-.8677m3.2071-.028c-.3348.5074-.9183.8457-1.5828.8457-.6646 0-1.2481-.3383-1.5829-.8457m-.0414.028c.0001.0001.0002.0003.0003.0005l.0411-.0285m-.0414.028c-.0001-.0002-.0002-.0003-.0003-.0005l.0417-.0275" fill="#88024e" stroke="url(#aT)" stroke-width=".1"/><g filter="url(#r)"><path d="m18.7804 9.88406-.0012-.00102-.0019-.00154-.0045-.00365-.012-.00954c-.0093-.00731-.0213-.01648-.0359-.02718-.0292-.0214-.069-.04906-.1189-.08032-.0996-.06236-.2409-.14005-.4197-.21074-.359-.14191-.8716-.25624-1.4926-.15819-.2911.04597-.4898.31923-.4439.61032.046.2911.3193.4899.6104.4439.3977-.0628.7162.0105.9337.0965.1094.0433.1926.0896.2455.1227.0263.0165.0448.0295.0547.0368.0042.003.0068.0051.0079.0059.2264.1846.5597.1529.7471-.072.1887-.2265.1577-.5633-.0687-.75194z" fill="#9a6634"/></g><g filter="url(#s)"><path d="m11.2878 9.88437.0008-.00064.0008-.00069.0019-.00154.0044-.00365.012-.00954c.0094-.00731.0214-.01648.036-.02718.0292-.0214.069-.04906.1189-.08032.0996-.06236.2409-.14005.4197-.21074.3589-.14191.8715-.25624 1.4925-.15819.2912.04597.4899.31923.4439.61032-.0459.2911-.3192.4899-.6103.4439-.3978-.0628-.7163.0105-.9337.0965-.1094.0433-.1926.0896-.2455.1227-.0264.0165-.0448.0295-.0548.0368-.0041.003-.0068.0051-.0079.0059-.2263.1846-.5596.1529-.747-.072-.1887-.2265-.1581-.5629.0683-.75163z" fill="#9a6634"/></g><path d="m17.4487 11.1733c.6529 0 1.2045.4502 1.3545 1.0585.0446.1744-.0892.3406-.2676.3406h-2.2305c-.1419 0-.2554-.1297-.2271-.2717.1258-.6407.6895-1.1274 1.3707-1.1274z" fill="#fff"/><path d="m17.2419 11.445c.4947 0 .8921.4015.8921.8922 0 .0811-.0121.1622-.0324.2352h-1.7235c-.0203-.0771-.0325-.1541-.0325-.2352 0-.4907.4015-.8922.8963-.8922z" fill="url(#aV)"/><path d="m16.7309 12.3372c0-.2839.2271-.511.511-.511.2838 0 .5109.2271.5109.511 0 .0852-.0202.1663-.0567.2352h-.9044c-.0405-.0689-.0608-.15-.0608-.2352z" fill="#000"/><g filter="url(#t)"><path d="m17.1763 11.6336c.0635.0851-.0693.1887-.2204.3016-.1511.113-.2631.1925-.3267.1075s.0074-.2455.1584-.3585c.1511-.1129.3251-.1356.3887-.0506z" fill="#c7a7a3"/><path d="m17.1763 11.6336c.0635.0851-.0693.1887-.2204.3016-.1511.113-.2631.1925-.3267.1075s.0074-.2455.1584-.3585c.1511-.1129.3251-.1356.3887-.0506z" fill="url(#aX)"/></g><g filter="url(#u)"><path d="m18.0365 12.2197c-.0329-.2306-.1679-.4045-.2312-.4626l-.2598.2852.1172.2281z" fill="url(#aZ)"/></g><path d="m12.6683 11.1732c-.6529 0-1.2045.4502-1.3545 1.0585-.0446.1744.0892.3407.2676.3407h2.2306c.1419 0 .2555-.1298.2271-.2717-.1258-.6408-.6935-1.1275-1.3708-1.1275z" fill="#fff"/><path d="m12.8752 11.4449c-.4948 0-.8922.4015-.8922.8923 0 .0811.0121.1622.0324.2352h1.7236c.0203-.0771.0325-.1541.0325-.2352-.0041-.4908-.4015-.8923-.8963-.8923z" fill="url(#a0)"/><path d="m13.3862 12.3372c0-.2839-.2271-.511-.511-.511s-.511.2271-.511.511c0 .0851.0203.1662.0568.2352h.9044c.0365-.069.0608-.1501.0608-.2352z" fill="#000"/><g filter="url(#v)"><path d="m13.6902 12.2323c0-.2883-.2344-.4805-.2978-.5386l-.2883.2788.1774.3612z" fill="url(#a1)"/></g><g filter="url(#w)"><ellipse cx="12.606" cy="11.826" fill="#c7a7a3" fill-opacity=".9" rx=".389" ry=".197" transform="matrix(.88365127 -.46814574 .46814574 .88365127 -4.069693 7.277409)"/><ellipse cx="12.606" cy="11.826" fill="url(#a2)" rx=".389" ry=".197" transform="matrix(.88365127 -.46814574 .46814574 .88365127 -4.069693 7.277409)"/></g><g filter="url(#x)"><path d="m16.7216 9.73954c.4301-.07526 1.2687-.05375 1.8493.39776" stroke="url(#a4)" stroke-linecap="round" stroke-width=".25"/></g><g filter="url(#y)"><path d="m11.5025 10.258c.3272-.28915 1.0415-.59359 1.927-.45244" stroke="url(#a5)" stroke-linecap="round" stroke-width=".25"/></g></svg>