<svg fill="none" height="32" viewBox="0 0 32 32" width="32" xmlns="http://www.w3.org/2000/svg" xmlns:xlink="http://www.w3.org/1999/xlink"><filter id="a" color-interpolation-filters="sRGB" filterUnits="userSpaceOnUse" height="6.01" width="7.365" x="12.146" y="19.185"><feFlood flood-opacity="0" result="BackgroundImageFix"/><feBlend in="SourceGraphic" in2="BackgroundImageFix" mode="normal" result="shape"/><feGaussianBlur result="effect1_foregroundBlur_4002_2688" stdDeviation=".25"/></filter><filter id="b" color-interpolation-filters="sRGB" filterUnits="userSpaceOnUse" height="2.78" width="4.12" x="13.959" y="21.828"><feFlood flood-opacity="0" result="BackgroundImageFix"/><feBlend in="SourceGraphic" in2="BackgroundImageFix" mode="normal" result="shape"/><feColorMatrix in="SourceAlpha" result="hardAlpha" type="matrix" values="0 0 0 0 0 0 0 0 0 0 0 0 0 0 0 0 0 0 127 0"/><feOffset dx=".1" dy="-.15"/><feGaussianBlur stdDeviation=".15"/><feComposite in2="hardAlpha" k2="-1" k3="1" operator="arithmetic"/><feColorMatrix type="matrix" values="0 0 0 0 0.0980392 0 0 0 0 0.321569 0 0 0 0 0.741176 0 0 0 1 0"/><feBlend in2="shape" mode="normal" result="effect1_innerShadow_4002_2688"/></filter><filter id="c" color-interpolation-filters="sRGB" filterUnits="userSpaceOnUse" height="4.539" width="3.58" x="12.543" y="19.128"><feFlood flood-opacity="0" result="BackgroundImageFix"/><feBlend in="SourceGraphic" in2="BackgroundImageFix" mode="normal" result="shape"/><feColorMatrix in="SourceAlpha" result="hardAlpha" type="matrix" values="0 0 0 0 0 0 0 0 0 0 0 0 0 0 0 0 0 0 127 0"/><feOffset dx=".1" dy="-.1"/><feGaussianBlur stdDeviation=".2"/><feComposite in2="hardAlpha" k2="-1" k3="1" operator="arithmetic"/><feColorMatrix type="matrix" values="0 0 0 0 0.321569 0 0 0 0 0.701961 0 0 0 0 1 0 0 0 1 0"/><feBlend in2="shape" mode="normal" result="effect1_innerShadow_4002_2688"/></filter><filter id="d" color-interpolation-filters="sRGB" filterUnits="userSpaceOnUse" height="4.539" width="3.6" x="15.879" y="19.128"><feFlood flood-opacity="0" result="BackgroundImageFix"/><feBlend in="SourceGraphic" in2="BackgroundImageFix" mode="normal" result="shape"/><feColorMatrix in="SourceAlpha" result="hardAlpha" type="matrix" values="0 0 0 0 0 0 0 0 0 0 0 0 0 0 0 0 0 0 127 0"/><feOffset dx=".1" dy="-.1"/><feGaussianBlur stdDeviation=".2"/><feComposite in2="hardAlpha" k2="-1" k3="1" operator="arithmetic"/><feColorMatrix type="matrix" values="0 0 0 0 0.321569 0 0 0 0 0.701961 0 0 0 0 1 0 0 0 1 0"/><feBlend in2="shape" mode="normal" result="effect1_innerShadow_4002_2688"/></filter><filter id="e" color-interpolation-filters="sRGB" filterUnits="userSpaceOnUse" height="2.805" width="4.352" x="13.739" y="19.25"><feFlood flood-opacity="0" result="BackgroundImageFix"/><feBlend in="SourceGraphic" in2="BackgroundImageFix" mode="normal" result="shape"/><feColorMatrix in="SourceAlpha" result="hardAlpha" type="matrix" values="0 0 0 0 0 0 0 0 0 0 0 0 0 0 0 0 0 0 127 0"/><feOffset dy="-.25"/><feGaussianBlur stdDeviation=".3"/><feComposite in2="hardAlpha" k2="-1" k3="1" operator="arithmetic"/><feColorMatrix type="matrix" values="0 0 0 0 0.584314 0 0 0 0 0.431373 0 0 0 0 0.498039 0 0 0 1 0"/><feBlend in2="shape" mode="normal" result="effect1_innerShadow_4002_2688"/></filter><filter id="f" color-interpolation-filters="sRGB" filterUnits="userSpaceOnUse" height="3.733" width="3.063" x="18.679" y="24.33"><feFlood flood-opacity="0" result="BackgroundImageFix"/><feBlend in="SourceGraphic" in2="BackgroundImageFix" mode="normal" result="shape"/><feColorMatrix in="SourceAlpha" result="hardAlpha" type="matrix" values="0 0 0 0 0 0 0 0 0 0 0 0 0 0 0 0 0 0 127 0"/><feOffset dx="-.15"/><feGaussianBlur stdDeviation=".075"/><feComposite in2="hardAlpha" k2="-1" k3="1" operator="arithmetic"/><feColorMatrix type="matrix" values="0 0 0 0 1 0 0 0 0 0.952941 0 0 0 0 0.411765 0 0 0 1 0"/><feBlend in2="shape" mode="normal" result="effect1_innerShadow_4002_2688"/><feColorMatrix in="SourceAlpha" result="hardAlpha" type="matrix" values="0 0 0 0 0 0 0 0 0 0 0 0 0 0 0 0 0 0 127 0"/><feOffset dx=".1" dy="-.1"/><feGaussianBlur stdDeviation=".1"/><feComposite in2="hardAlpha" k2="-1" k3="1" operator="arithmetic"/><feColorMatrix type="matrix" values="0 0 0 0 0.952941 0 0 0 0 0.623529 0 0 0 0 0.317647 0 0 0 1 0"/><feBlend in2="effect1_innerShadow_4002_2688" mode="normal" result="effect2_innerShadow_4002_2688"/></filter><filter id="g" color-interpolation-filters="sRGB" filterUnits="userSpaceOnUse" height="1.334" width="4.306" x="8.789" y="25.877"><feFlood flood-opacity="0" result="BackgroundImageFix"/><feBlend in="SourceGraphic" in2="BackgroundImageFix" mode="normal" result="shape"/><feColorMatrix in="SourceAlpha" result="hardAlpha" type="matrix" values="0 0 0 0 0 0 0 0 0 0 0 0 0 0 0 0 0 0 127 0"/><feOffset dx="-.15"/><feGaussianBlur stdDeviation=".075"/><feComposite in2="hardAlpha" k2="-1" k3="1" operator="arithmetic"/><feColorMatrix type="matrix" values="0 0 0 0 1 0 0 0 0 0.952941 0 0 0 0 0.411765 0 0 0 1 0"/><feBlend in2="shape" mode="normal" result="effect1_innerShadow_4002_2688"/><feColorMatrix in="SourceAlpha" result="hardAlpha" type="matrix" values="0 0 0 0 0 0 0 0 0 0 0 0 0 0 0 0 0 0 127 0"/><feOffset dy="-.1"/><feGaussianBlur stdDeviation=".1"/><feComposite in2="hardAlpha" k2="-1" k3="1" operator="arithmetic"/><feColorMatrix type="matrix" values="0 0 0 0 0.952941 0 0 0 0 0.623529 0 0 0 0 0.317647 0 0 0 1 0"/><feBlend in2="effect1_innerShadow_4002_2688" mode="normal" result="effect2_innerShadow_4002_2688"/></filter><filter id="h" color-interpolation-filters="sRGB" filterUnits="userSpaceOnUse" height="3.836" width="4.036" x="8.445" y="10.935"><feFlood flood-opacity="0" result="BackgroundImageFix"/><feBlend in="SourceGraphic" in2="BackgroundImageFix" mode="normal" result="shape"/><feColorMatrix in="SourceAlpha" result="hardAlpha" type="matrix" values="0 0 0 0 0 0 0 0 0 0 0 0 0 0 0 0 0 0 127 0"/><feOffset dx=".2"/><feGaussianBlur stdDeviation=".2"/><feComposite in2="hardAlpha" k2="-1" k3="1" operator="arithmetic"/><feColorMatrix type="matrix" values="0 0 0 0 0.866667 0 0 0 0 0.643137 0 0 0 0 0.533333 0 0 0 1 0"/><feBlend in2="shape" mode="normal" result="effect1_innerShadow_4002_2688"/></filter><filter id="i" color-interpolation-filters="sRGB" filterUnits="userSpaceOnUse" height="3.286" width="3.286" x="8.72" y="11.21"><feFlood flood-opacity="0" result="BackgroundImageFix"/><feBlend in="SourceGraphic" in2="BackgroundImageFix" mode="normal" result="shape"/><feGaussianBlur result="effect1_foregroundBlur_4002_2688" stdDeviation=".25"/></filter><filter id="j" color-interpolation-filters="sRGB" filterUnits="userSpaceOnUse" height="4.086" width="4.086" x="19.376" y="10.685"><feFlood flood-opacity="0" result="BackgroundImageFix"/><feBlend in="SourceGraphic" in2="BackgroundImageFix" mode="normal" result="shape"/><feColorMatrix in="SourceAlpha" result="hardAlpha" type="matrix" values="0 0 0 0 0 0 0 0 0 0 0 0 0 0 0 0 0 0 127 0"/><feOffset dx=".25" dy="-.25"/><feGaussianBlur stdDeviation=".25"/><feComposite in2="hardAlpha" k2="-1" k3="1" operator="arithmetic"/><feColorMatrix type="matrix" values="0 0 0 0 0.768627 0 0 0 0 0.529412 0 0 0 0 0.505882 0 0 0 1 0"/><feBlend in2="shape" mode="normal" result="effect1_innerShadow_4002_2688"/></filter><filter id="k" color-interpolation-filters="sRGB" filterUnits="userSpaceOnUse" height="3.286" width="3.286" x="19.651" y="11.21"><feFlood flood-opacity="0" result="BackgroundImageFix"/><feBlend in="SourceGraphic" in2="BackgroundImageFix" mode="normal" result="shape"/><feGaussianBlur result="effect1_foregroundBlur_4002_2688" stdDeviation=".25"/></filter><filter id="l" color-interpolation-filters="sRGB" filterUnits="userSpaceOnUse" height="14.02" width="12.669" x="9.892" y="6.39"><feFlood flood-opacity="0" result="BackgroundImageFix"/><feBlend in="SourceGraphic" in2="BackgroundImageFix" mode="normal" result="shape"/><feColorMatrix in="SourceAlpha" result="hardAlpha" type="matrix" values="0 0 0 0 0 0 0 0 0 0 0 0 0 0 0 0 0 0 127 0"/><feOffset dx=".75"/><feGaussianBlur stdDeviation=".6"/><feComposite in2="hardAlpha" k2="-1" k3="1" operator="arithmetic"/><feColorMatrix type="matrix" values="0 0 0 0 0.843137 0 0 0 0 0.611765 0 0 0 0 0.498039 0 0 0 1 0"/><feBlend in2="shape" mode="normal" result="effect1_innerShadow_4002_2688"/><feColorMatrix in="SourceAlpha" result="hardAlpha" type="matrix" values="0 0 0 0 0 0 0 0 0 0 0 0 0 0 0 0 0 0 127 0"/><feOffset dy=".2"/><feGaussianBlur stdDeviation=".375"/><feComposite in2="hardAlpha" k2="-1" k3="1" operator="arithmetic"/><feColorMatrix type="matrix" values="0 0 0 0 0.776471 0 0 0 0 0.54902 0 0 0 0 0.423529 0 0 0 1 0"/><feBlend in2="effect1_innerShadow_4002_2688" mode="normal" result="effect2_innerShadow_4002_2688"/></filter><filter id="m" color-interpolation-filters="sRGB" filterUnits="userSpaceOnUse" height="9.742" width="14.479" x="8.579" y="2.47"><feFlood flood-opacity="0" result="BackgroundImageFix"/><feBlend in="SourceGraphic" in2="BackgroundImageFix" mode="normal" result="shape"/><feColorMatrix in="SourceAlpha" result="hardAlpha" type="matrix" values="0 0 0 0 0 0 0 0 0 0 0 0 0 0 0 0 0 0 127 0"/><feOffset dy="-.5"/><feGaussianBlur stdDeviation=".375"/><feComposite in2="hardAlpha" k2="-1" k3="1" operator="arithmetic"/><feColorMatrix type="matrix" values="0 0 0 0 0.858824 0 0 0 0 0.690196 0 0 0 0 0.533333 0 0 0 1 0"/><feBlend in2="shape" mode="normal" result="effect1_innerShadow_4002_2688"/></filter><filter id="n" color-interpolation-filters="sRGB" filterUnits="userSpaceOnUse" height="4.581" width="3.522" x="13.783" y="11.638"><feFlood flood-opacity="0" result="BackgroundImageFix"/><feBlend in="SourceGraphic" in2="BackgroundImageFix" mode="normal" result="shape"/><feGaussianBlur result="effect1_foregroundBlur_4002_2688" stdDeviation=".375"/></filter><filter id="o" color-interpolation-filters="sRGB" filterUnits="userSpaceOnUse" height="3.581" width="2.656" x="14.49" y="11.951"><feFlood flood-opacity="0" result="BackgroundImageFix"/><feBlend in="SourceGraphic" in2="BackgroundImageFix" mode="normal" result="shape"/><feGaussianBlur result="effect1_foregroundBlur_4002_2688" stdDeviation=".125"/></filter><filter id="p" color-interpolation-filters="sRGB" filterUnits="userSpaceOnUse" height="3.581" width="2.656" x="14.49" y="11.871"><feFlood flood-opacity="0" result="BackgroundImageFix"/><feBlend in="SourceGraphic" in2="BackgroundImageFix" mode="normal" result="shape"/><feGaussianBlur result="effect1_foregroundBlur_4002_2688" stdDeviation=".125"/></filter><filter id="q" color-interpolation-filters="sRGB" filterUnits="userSpaceOnUse" height="1.632" width="4.097" x="13.77" y="15.851"><feFlood flood-opacity="0" result="BackgroundImageFix"/><feBlend in="SourceGraphic" in2="BackgroundImageFix" mode="normal" result="shape"/><feGaussianBlur result="effect1_foregroundBlur_4002_2688" stdDeviation=".05"/></filter><filter id="r" color-interpolation-filters="sRGB" filterUnits="userSpaceOnUse" height=".77" width=".874" x="17.494" y="11.579"><feFlood flood-opacity="0" result="BackgroundImageFix"/><feBlend in="SourceGraphic" in2="BackgroundImageFix" mode="normal" result="shape"/><feGaussianBlur result="effect1_foregroundBlur_4002_2688" stdDeviation=".05"/></filter><filter id="s" color-interpolation-filters="sRGB" filterUnits="userSpaceOnUse" height=".99" width=".964" x="18.473" y="11.68"><feFlood flood-opacity="0" result="BackgroundImageFix"/><feBlend in="SourceGraphic" in2="BackgroundImageFix" mode="normal" result="shape"/><feGaussianBlur result="effect1_foregroundBlur_4002_2688" stdDeviation=".1"/></filter><filter id="t" color-interpolation-filters="sRGB" filterUnits="userSpaceOnUse" height="1.135" width="1.074" x="13.37" y="11.607"><feFlood flood-opacity="0" result="BackgroundImageFix"/><feBlend in="SourceGraphic" in2="BackgroundImageFix" mode="normal" result="shape"/><feGaussianBlur result="effect1_foregroundBlur_4002_2688" stdDeviation=".1"/></filter><filter id="u" color-interpolation-filters="sRGB" filterUnits="userSpaceOnUse" height=".78" width="1.019" x="12.488" y="11.57"><feFlood flood-opacity="0" result="BackgroundImageFix"/><feBlend in="SourceGraphic" in2="BackgroundImageFix" mode="normal" result="shape"/><feGaussianBlur result="effect1_foregroundBlur_4002_2688" stdDeviation=".05"/></filter><filter id="v" color-interpolation-filters="sRGB" filterUnits="userSpaceOnUse" height="6.934" width="16.56" x="7.72" y="2.066"><feFlood flood-opacity="0" result="BackgroundImageFix"/><feBlend in="SourceGraphic" in2="BackgroundImageFix" mode="normal" result="shape"/><feColorMatrix in="SourceAlpha" result="hardAlpha" type="matrix" values="0 0 0 0 0 0 0 0 0 0 0 0 0 0 0 0 0 0 127 0"/><feOffset/><feGaussianBlur stdDeviation=".5"/><feComposite in2="hardAlpha" k2="-1" k3="1" operator="arithmetic"/><feColorMatrix type="matrix" values="0 0 0 0 0.298039 0 0 0 0 0.537255 0 0 0 0 0.701961 0 0 0 1 0"/><feBlend in2="shape" mode="normal" result="effect1_innerShadow_4002_2688"/></filter><filter id="w" color-interpolation-filters="sRGB" filterUnits="userSpaceOnUse" height="2.948" width="2.674" x="14.589" y="3.111"><feFlood flood-opacity="0" result="BackgroundImageFix"/><feBlend in="SourceGraphic" in2="BackgroundImageFix" mode="normal" result="shape"/><feGaussianBlur result="effect1_foregroundBlur_4002_2688" stdDeviation=".075"/></filter><filter id="x" color-interpolation-filters="sRGB" filterUnits="userSpaceOnUse" height="2.748" width="2.624" x="14.643" y="3.117"><feFlood flood-opacity="0" result="BackgroundImageFix"/><feBlend in="SourceGraphic" in2="BackgroundImageFix" mode="normal" result="shape"/><feColorMatrix in="SourceAlpha" result="hardAlpha" type="matrix" values="0 0 0 0 0 0 0 0 0 0 0 0 0 0 0 0 0 0 127 0"/><feOffset dx="-.15"/><feGaussianBlur stdDeviation=".075"/><feComposite in2="hardAlpha" k2="-1" k3="1" operator="arithmetic"/><feColorMatrix type="matrix" values="0 0 0 0 1 0 0 0 0 0.952941 0 0 0 0 0.411765 0 0 0 1 0"/><feBlend in2="shape" mode="normal" result="effect1_innerShadow_4002_2688"/><feColorMatrix in="SourceAlpha" result="hardAlpha" type="matrix" values="0 0 0 0 0 0 0 0 0 0 0 0 0 0 0 0 0 0 127 0"/><feOffset dx=".1" dy="-.1"/><feGaussianBlur stdDeviation=".125"/><feComposite in2="hardAlpha" k2="-1" k3="1" operator="arithmetic"/><feColorMatrix type="matrix" values="0 0 0 0 0.952941 0 0 0 0 0.623529 0 0 0 0 0.317647 0 0 0 1 0"/><feBlend in2="effect1_innerShadow_4002_2688" mode="normal" result="effect2_innerShadow_4002_2688"/></filter><filter id="y" color-interpolation-filters="sRGB" filterUnits="userSpaceOnUse" height="4.088" width="13.155" x="9.342" y="7.077"><feFlood flood-opacity="0" result="BackgroundImageFix"/><feBlend in="SourceGraphic" in2="BackgroundImageFix" mode="normal" result="shape"/><feColorMatrix in="SourceAlpha" result="hardAlpha" type="matrix" values="0 0 0 0 0 0 0 0 0 0 0 0 0 0 0 0 0 0 127 0"/><feOffset dx="-.1" dy="-.15"/><feGaussianBlur stdDeviation=".125"/><feComposite in2="hardAlpha" k2="-1" k3="1" operator="arithmetic"/><feColorMatrix type="matrix" values="0 0 0 0 0.368627 0 0 0 0 0.313726 0 0 0 0 0.427451 0 0 0 1 0"/><feBlend in2="shape" mode="normal" result="effect1_innerShadow_4002_2688"/><feColorMatrix in="SourceAlpha" result="hardAlpha" type="matrix" values="0 0 0 0 0 0 0 0 0 0 0 0 0 0 0 0 0 0 127 0"/><feOffset dy="-.1"/><feGaussianBlur stdDeviation=".05"/><feComposite in2="hardAlpha" k2="-1" k3="1" operator="arithmetic"/><feColorMatrix type="matrix" values="0 0 0 0 0.34902 0 0 0 0 0.207843 0 0 0 0 0.407843 0 0 0 1 0"/><feBlend in2="effect1_innerShadow_4002_2688" mode="normal" result="effect2_innerShadow_4002_2688"/></filter><filter id="z" color-interpolation-filters="sRGB" filterUnits="userSpaceOnUse" height="3.448" width="13.899" x="9.147" y="5.731"><feFlood flood-opacity="0" result="BackgroundImageFix"/><feBlend in="SourceGraphic" in2="BackgroundImageFix" mode="normal" result="shape"/><feGaussianBlur result="effect1_foregroundBlur_4002_2688" stdDeviation=".25"/></filter><filter id="A" color-interpolation-filters="sRGB" filterUnits="userSpaceOnUse" height="2.72" width="14.033" x="9.028" y="6.29"><feFlood flood-opacity="0" result="BackgroundImageFix"/><feBlend in="SourceGraphic" in2="BackgroundImageFix" mode="normal" result="shape"/><feColorMatrix in="SourceAlpha" result="hardAlpha" type="matrix" values="0 0 0 0 0 0 0 0 0 0 0 0 0 0 0 0 0 0 127 0"/><feOffset dx=".1" dy="-.1"/><feGaussianBlur stdDeviation=".25"/><feComposite in2="hardAlpha" k2="-1" k3="1" operator="arithmetic"/><feColorMatrix type="matrix" values="0 0 0 0 0.333333 0 0 0 0 0.603922 0 0 0 0 0.862745 0 0 0 1 0"/><feBlend in2="shape" mode="normal" result="effect1_innerShadow_4002_2688"/></filter><radialGradient id="B" cx="0" cy="0" gradientTransform="matrix(.59375216 6.27271145 -11.99428644 1.13533574 13.6615 18.0313)" gradientUnits="userSpaceOnUse" r="1"><stop offset=".259" stop-color="#3a84b9"/><stop offset="1" stop-color="#36a5fc" stop-opacity="0"/></radialGradient><radialGradient id="C" cx="0" cy="0" gradientTransform="matrix(2.6875 0 0 14.4101 8.099 29.9336)" gradientUnits="userSpaceOnUse" r="1"><stop offset="0" stop-color="#30acff"/><stop offset="1" stop-color="#30acff" stop-opacity="0"/></radialGradient><radialGradient id="D" cx="0" cy="0" gradientTransform="matrix(-3.15625 0 0 -12.1562 24.0052 27.875)" gradientUnits="userSpaceOnUse" r="1"><stop offset=".208" stop-color="#5bcdff"/><stop offset="1" stop-color="#5bcdff" stop-opacity="0"/></radialGradient><linearGradient id="E" gradientUnits="userSpaceOnUse" x1="7.926" x2="8.205" y1="28.477" y2="28.477"><stop offset=".229" stop-color="#1b89dc"/><stop offset="1" stop-color="#1b89dc" stop-opacity="0"/></linearGradient><radialGradient id="F" cx="0" cy="0" gradientTransform="matrix(.93749879 -6.93361715 3.82090149 .51662652 6.44275 29.9337)" gradientUnits="userSpaceOnUse" r="1"><stop offset="0" stop-color="#3bafff"/><stop offset="1" stop-color="#409ed2"/></radialGradient><radialGradient id="G" cx="0" cy="0" gradientTransform="matrix(-1.78125 0 0 -13.7094 8.2865 29.9337)" gradientUnits="userSpaceOnUse" r="1"><stop offset=".351" stop-color="#3183ce"/><stop offset="1" stop-color="#4188d4" stop-opacity="0"/></radialGradient><radialGradient id="H" cx="0" cy="0" gradientTransform="matrix(-1.65625201 -8.02736706 2.31778967 -.47821954 26.4427 29.9337)" gradientUnits="userSpaceOnUse" r="1"><stop offset=".086" stop-color="#55d2ff"/><stop offset="1" stop-color="#4eb9f4"/></radialGradient><radialGradient id="I" cx="0" cy="0" gradientTransform="matrix(1.36307 0 0 13.6894 23.9453 29.7099)" gradientUnits="userSpaceOnUse" r="1"><stop offset=".034" stop-color="#189cf0"/><stop offset=".8" stop-color="#189cf0" stop-opacity="0"/></radialGradient><radialGradient id="J" cx="0" cy="0" gradientTransform="matrix(-1.59375352 1.71874902 -2.62713511 -2.43607751 16.9116 22.5937)" gradientUnits="userSpaceOnUse" r="1"><stop offset="0" stop-color="#407ccf"/><stop offset="1" stop-color="#3c73d6"/></radialGradient><radialGradient id="K" cx="0" cy="0" gradientTransform="matrix(1.60937733 -1.10937712 1.05865551 1.53579531 15.4741 24.0312)" gradientUnits="userSpaceOnUse" r="1"><stop offset=".676" stop-color="#4681d4" stop-opacity="0"/><stop offset="1" stop-color="#4681d4"/></radialGradient><linearGradient id="L"><stop offset=".193" stop-color="#33488b"/><stop offset="1" stop-color="#1b54be" stop-opacity="0"/></linearGradient><linearGradient id="M" gradientUnits="userSpaceOnUse" x1="15.193" x2="15.498" xlink:href="#L" y1="22.422" y2="22.766"/><linearGradient id="N" gradientUnits="userSpaceOnUse" x1="16.404" x2="16.185" xlink:href="#L" y1="22.258" y2="22.555"/><radialGradient id="O" cx="0" cy="0" gradientTransform="matrix(0 4.71487 -1.3158 0 15.9147 25.2191)" gradientUnits="userSpaceOnUse" r="1"><stop offset="0" stop-color="#3f7cd5"/><stop offset="1" stop-color="#3872d8"/></radialGradient><linearGradient id="P" gradientUnits="userSpaceOnUse" x1="17.411" x2="16.474" y1="27.875" y2="28.063"><stop offset="0" stop-color="#4a88df"/><stop offset="1" stop-color="#4a88df" stop-opacity="0"/></linearGradient><linearGradient id="Q" gradientUnits="userSpaceOnUse" x1="14.677" x2="15.915" y1="27.11" y2="27.125"><stop offset="0" stop-color="#3169c8"/><stop offset="1" stop-color="#3169c8" stop-opacity="0"/></linearGradient><radialGradient id="R" cx="0" cy="0" gradientTransform="matrix(.65930149 -2.21967439 2.48773934 .73892381 14.2834 23.6679)" gradientUnits="userSpaceOnUse" r="1"><stop offset="0" stop-color="#76c4ff"/><stop offset="1" stop-color="#76c4ff" stop-opacity="0"/></radialGradient><radialGradient id="S" cx="0" cy="0" gradientTransform="matrix(-.34376002 1.49505846 -2.22012873 -.51047602 14.0052 19.9531)" gradientUnits="userSpaceOnUse" r="1"><stop offset=".192" stop-color="#5d8cde"/><stop offset="1" stop-color="#5d8cde" stop-opacity="0"/></radialGradient><linearGradient id="T" gradientUnits="userSpaceOnUse" x1="18.787" x2="17.247" y1="22.422" y2="22.102"><stop offset="0" stop-color="#8be8ff"/><stop offset="1" stop-color="#75c1ff" stop-opacity="0"/></linearGradient><radialGradient id="U" cx="0" cy="0" gradientTransform="matrix(.46875037 .42187515 -1.2508634 1.38984883 17.0366 20.7031)" gradientUnits="userSpaceOnUse" r="1"><stop offset=".491" stop-color="#639be0"/><stop offset=".902" stop-color="#639be0" stop-opacity="0"/></radialGradient><radialGradient id="V" cx="0" cy="0" gradientTransform="matrix(.84374996 .87499914 -2.3999598 2.31424911 17.7866 19.9063)" gradientUnits="userSpaceOnUse" r="1"><stop offset=".149" stop-color="#5fa3ec"/><stop offset="1" stop-color="#5fa3ec" stop-opacity="0"/></radialGradient><radialGradient id="W" cx="0" cy="0" gradientTransform="matrix(-2.28124415 1.4218836 -1.21746823 -1.95328385 17.599 20.375)" gradientUnits="userSpaceOnUse" r="1"><stop offset=".239" stop-color="#b58893"/><stop offset="1" stop-color="#a97980"/></radialGradient><radialGradient id="X" cx="0" cy="0" gradientTransform="matrix(-2.4218776 .20311534 -.04645942 -.55396621 15.349 20)" gradientUnits="userSpaceOnUse" r="1"><stop offset="0" stop-color="#af798d"/><stop offset="1" stop-color="#af798d" stop-opacity="0"/></radialGradient><linearGradient id="Y"><stop offset="0" stop-color="#ffd44c"/><stop offset="1" stop-color="#ffd24b"/></linearGradient><linearGradient id="Z" gradientUnits="userSpaceOnUse" x1="21.325" x2="18.829" xlink:href="#Y" y1="26.246" y2="26.246"/><linearGradient id="aa" gradientUnits="userSpaceOnUse" x1="13.095" x2="8.763" y1="26.863" y2="26.863"><stop offset="0" stop-color="#ffd04c"/><stop offset="1" stop-color="#ffcd47"/></linearGradient><radialGradient id="ab" cx="0" cy="0" gradientTransform="matrix(2.01634 0 0 3.52861 8.44482 12.8528)" gradientUnits="userSpaceOnUse" r="1"><stop offset=".351" stop-color="#c28775"/><stop offset="1" stop-color="#ba7867"/></radialGradient><linearGradient id="ac" gradientUnits="userSpaceOnUse" x1="10.363" x2="9.627" y1="13.173" y2="13.173"><stop offset="0" stop-color="#af6f5d"/><stop offset="1" stop-color="#b87862"/></linearGradient><linearGradient id="ad" gradientUnits="userSpaceOnUse" x1="22.542" x2="21.602" y1="11.599" y2="14.513"><stop offset="0" stop-color="#f5c8a5"/><stop offset="1" stop-color="#dca189"/></linearGradient><radialGradient id="ae" cx="0" cy="0" gradientTransform="matrix(.94988254 -.69166116 .78943978 1.08416535 21.7213 12.5485)" gradientUnits="userSpaceOnUse" r="1"><stop offset=".543" stop-color="#e3ab88"/><stop offset="1" stop-color="#e3ab88" stop-opacity="0"/></radialGradient><radialGradient id="af" cx="0" cy="0" gradientTransform="matrix(.94362608 -1.73559459 1.01585431 .55231022 21.2463 13.7963)" gradientUnits="userSpaceOnUse" r="1"><stop offset=".69" stop-color="#d79a76" stop-opacity="0"/><stop offset="1" stop-color="#d79a76"/></radialGradient><radialGradient id="ag" cx="0" cy="0" gradientTransform="matrix(.29792182 .29489747 -.380164 .38406282 21.2939 12.8527)" gradientUnits="userSpaceOnUse" r="1"><stop offset="0" stop-color="#cb8e6d"/><stop offset="1" stop-color="#cb8e6d" stop-opacity="0"/></radialGradient><radialGradient id="ah" cx="0" cy="0" gradientTransform="matrix(-6.09687 0 0 -10.3558 19.0711 13.3002)" gradientUnits="userSpaceOnUse" r="1"><stop offset="0" stop-color="#ffc59f"/><stop offset="1" stop-color="#c8917d"/></radialGradient><linearGradient id="ai" gradientUnits="userSpaceOnUse" x1="21.811" x2="16.735" y1="15.188" y2="15.188"><stop offset="0" stop-color="#f7c29d"/><stop offset="1" stop-color="#f7c29d" stop-opacity="0"/></linearGradient><radialGradient id="aj" cx="0" cy="0" gradientTransform="matrix(0 14.147 -16.3506 0 15.8515 6.39014)" gradientUnits="userSpaceOnUse" r="1"><stop offset=".832" stop-color="#c7898e" stop-opacity="0"/><stop offset=".988" stop-color="#b37a98"/></radialGradient><radialGradient id="ak" cx="0" cy="0" gradientTransform="matrix(0 -1.50153 1.9352 0 18.6507 12.0456)" gradientUnits="userSpaceOnUse" r="1"><stop offset=".325" stop-color="#e4a38d"/><stop offset="1" stop-color="#e4a38d" stop-opacity="0"/></radialGradient><radialGradient id="al" cx="0" cy="0" gradientTransform="matrix(-.06771611 -1.23556578 1.40002896 -.07672964 13.1864 11.8923)" gradientUnits="userSpaceOnUse" r="1"><stop offset=".378" stop-color="#c2847c"/><stop offset="1" stop-color="#c2847c" stop-opacity="0"/></radialGradient><radialGradient id="am" cx="0" cy="0" gradientTransform="matrix(1.40742 0 0 6.86873 10.1045 13.7308)" gradientUnits="userSpaceOnUse" r="1"><stop offset="0" stop-color="#dba085"/><stop offset="1" stop-color="#dba085" stop-opacity="0"/></radialGradient><radialGradient id="an" cx="0" cy="0" gradientTransform="matrix(3.0494169 -4.09165804 .93829905 .69929231 8.97077 9.93949)" gradientUnits="userSpaceOnUse" r="1"><stop offset=".451" stop-color="#b67459"/><stop offset="1" stop-color="#b67459" stop-opacity="0"/></radialGradient><radialGradient id="ao" cx="0" cy="0" gradientTransform="matrix(-2.81494968 -11.46992783 13.10005355 -3.21501513 15.6169 17.86)" gradientUnits="userSpaceOnUse" r="1"><stop offset=".924" stop-color="#c17f5f" stop-opacity="0"/><stop offset="1" stop-color="#c17f5f"/></radialGradient><radialGradient id="ap" cx="0" cy="0" gradientTransform="matrix(2.38479569 .80706964 -.46892013 1.38560375 18.0799 7.27428)" gradientUnits="userSpaceOnUse" r="1"><stop offset=".258" stop-color="#c17f5f"/><stop offset="1" stop-color="#c17f5f" stop-opacity="0"/></radialGradient><radialGradient id="aq" cx="0" cy="0" gradientTransform="matrix(0 2.99353 -6.26187 0 15.8515 10.699)" gradientUnits="userSpaceOnUse" r="1"><stop offset=".112" stop-color="#a56c6a"/><stop offset="1" stop-color="#a56c6a" stop-opacity="0"/></radialGradient><radialGradient id="ar" cx="0" cy="0" gradientTransform="matrix(-3.94865646 5.08929323 -8.65477472 -6.71502517 20.0607 3.99028)" gradientUnits="userSpaceOnUse" r="1"><stop offset="0" stop-color="#ffffc2"/><stop offset="1" stop-color="#ffffc2" stop-opacity="0"/></radialGradient><linearGradient id="as" gradientUnits="userSpaceOnUse" x1="10.233" x2="13.567" y1="12.546" y2="6.623"><stop offset="0" stop-color="#e8ad8e"/><stop offset="1" stop-color="#e8ad8e" stop-opacity="0"/></linearGradient><radialGradient id="at" cx="0" cy="0" gradientTransform="matrix(-.07677902 -2.13883235 1.0504334 -.03770807 11.0008 8.88217)" gradientUnits="userSpaceOnUse" r="1"><stop offset=".227" stop-color="#eec19c"/><stop offset="1" stop-color="#eec19c" stop-opacity="0"/></radialGradient><radialGradient id="au" cx="0" cy="0" gradientTransform="matrix(.9871525 -2.2594813 1.84278431 .80510033 20.675 10.8565)" gradientUnits="userSpaceOnUse" r="1"><stop offset=".479" stop-color="#e3ab85"/><stop offset="1" stop-color="#e3ab85" stop-opacity="0"/></radialGradient><radialGradient id="av" cx="0" cy="0" gradientTransform="matrix(1.14071167 1.41541226 -1.24970751 1.00716659 14.9275 2.96973)" gradientUnits="userSpaceOnUse" r="1"><stop offset="0" stop-color="#fbecaf"/><stop offset="1" stop-color="#fbecaf" stop-opacity="0"/></radialGradient><radialGradient id="aw" cx="0" cy="0" gradientTransform="matrix(.20839786 .89989677 -1.47943756 .34260777 16.6167 2.96973)" gradientUnits="userSpaceOnUse" r="1"><stop offset=".208" stop-color="#e1d19f"/><stop offset="1" stop-color="#e1d19f" stop-opacity="0"/></radialGradient><radialGradient id="ax" cx="0" cy="0" gradientTransform="matrix(.83359741 1.03102866 -2.31015243 1.8677823 10.8254 4.95549)" gradientUnits="userSpaceOnUse" r="1"><stop offset="0" stop-color="#dcc291"/><stop offset="1" stop-color="#dcc291" stop-opacity="0"/></radialGradient><linearGradient id="ay" gradientUnits="userSpaceOnUse" x1="14.825" x2="15.903" y1="14.058" y2="14.058"><stop offset="0" stop-color="#cb9173"/><stop offset="1" stop-color="#cb9173" stop-opacity="0"/></linearGradient><linearGradient id="az" gradientUnits="userSpaceOnUse" x1="16.897" x2="15.718" y1="14.428" y2="14.412"><stop offset="0" stop-color="#fec8a4"/><stop offset="1" stop-color="#fec8a4" stop-opacity="0"/></linearGradient><linearGradient id="aA" gradientUnits="userSpaceOnUse" x1="16.042" x2="16.042" y1="15.281" y2="14.623"><stop offset="0" stop-color="#c98583"/><stop offset="1" stop-color="#c98583" stop-opacity="0"/></linearGradient><linearGradient id="aB" gradientUnits="userSpaceOnUse" x1="15.818" x2="15.951" y1="12.121" y2="13.4"><stop offset="0" stop-color="#bd8378"/><stop offset="1" stop-color="#bd8378" stop-opacity="0"/></linearGradient><linearGradient id="aC" gradientUnits="userSpaceOnUse" x1="14.627" x2="15.127" y1="17.137" y2="16.347"><stop offset="0" stop-color="#e1ab9c"/><stop offset=".663" stop-color="#e1ab9c" stop-opacity="0"/></linearGradient><linearGradient id="aD"><stop offset=".75" stop-color="#734d45"/><stop offset="1" stop-color="#553830"/></linearGradient><radialGradient id="aE" cx="0" cy="0" gradientTransform="matrix(0 1.03772 -1.2279 0 18.3219 12.4522)" gradientUnits="userSpaceOnUse" r="1" xlink:href="#aD"/><linearGradient id="aF"><stop offset=".766" stop-color="#ffe6e2" stop-opacity="0"/><stop offset=".966" stop-color="#ffe6e2"/></linearGradient><radialGradient id="aG" cx="0" cy="0" gradientTransform="matrix(-.26641128 -.34330686 .4726516 -.36678474 18.0598 12.166)" gradientUnits="userSpaceOnUse" r="1" xlink:href="#aF"/><linearGradient id="aH"><stop offset="0" stop-color="#b4948d"/><stop offset="1" stop-color="#b4948d" stop-opacity="0"/></linearGradient><linearGradient id="aI" gradientUnits="userSpaceOnUse" x1="19.216" x2="18.855" xlink:href="#aH" y1="12.131" y2="12.353"/><radialGradient id="aJ" cx="0" cy="0" gradientTransform="matrix(0 1.03778 -1.22796 0 13.3088 12.4523)" gradientUnits="userSpaceOnUse" r="1" xlink:href="#aD"/><linearGradient id="aK" gradientUnits="userSpaceOnUse" x1="14.163" x2="13.803" xlink:href="#aH" y1="12.131" y2="12.353"/><radialGradient id="aL" cx="0" cy="0" gradientTransform="matrix(-.00888638 -.56757044 .68224238 -.01068179 12.9798 12.3211)" gradientUnits="userSpaceOnUse" r="1" xlink:href="#aF"/><radialGradient id="aM" cx="0" cy="0" gradientTransform="matrix(-7.96878387 3.93564981 -5.00914492 -10.14236406 21.1927 5.53307)" gradientUnits="userSpaceOnUse" r="1"><stop offset="0" stop-color="#48a8fb"/><stop offset="1" stop-color="#328fdd"/></radialGradient><linearGradient id="aN" gradientUnits="userSpaceOnUse" x1="7.318" x2="13.13" y1="7.656" y2="6.094"><stop offset="0" stop-color="#4389d1"/><stop offset="1" stop-color="#4389d1" stop-opacity="0"/></linearGradient><radialGradient id="aO" cx="0" cy="0" gradientTransform="matrix(-.56248597 1.81250613 -5.67441308 -1.76097487 20.8803 4.12503)" gradientUnits="userSpaceOnUse" r="1"><stop offset=".148" stop-color="#47b7fb"/><stop offset="1" stop-color="#47b7fb" stop-opacity="0"/></radialGradient><linearGradient id="aP" gradientUnits="userSpaceOnUse" x1="16.899" x2="14.793" xlink:href="#Y" y1="4.541" y2="4.541"/><radialGradient id="aQ" cx="0" cy="0" gradientTransform="matrix(-6.84468176 -5.45348366 7.64758176 -9.59850009 20.8288 10.8452)" gradientUnits="userSpaceOnUse" r="1"><stop offset="0" stop-color="#574a69"/><stop offset="1" stop-color="#46395b"/></radialGradient><radialGradient id="aR" cx="0" cy="0" gradientTransform="matrix(0 -4.33594 10.5987 0 15.9691 11.5625)" gradientUnits="userSpaceOnUse" r="1"><stop offset=".764" stop-color="#1d1b3e" stop-opacity="0"/><stop offset=".917" stop-color="#1d1b3e"/></radialGradient><linearGradient id="aS" gradientUnits="userSpaceOnUse" x1="10.974" x2="21.755" y1="7.7" y2="7.7"><stop offset="0" stop-color="#73b8f6"/><stop offset="1" stop-color="#81d0ff"/></linearGradient><radialGradient id="aT" cx="0" cy="0" gradientTransform="matrix(-.28126248 1.34374977 -11.40523856 -2.38724927 20.6616 6.87516)" gradientUnits="userSpaceOnUse" r="1"><stop offset="0" stop-color="#87ddff"/><stop offset="1" stop-color="#7dc8fc" stop-opacity="0"/></radialGradient><radialGradient id="aU" cx="0" cy="0" gradientTransform="matrix(-1.76886194 1.6033436 -1.79055639 -1.97540131 22.9617 7.40641)" gradientUnits="userSpaceOnUse" r="1"><stop offset="0" stop-color="#8ae0ff"/><stop offset="1" stop-color="#8ae0ff" stop-opacity="0"/></radialGradient><path d="m3.86182 29.9336h24.27638c-.4667-6.2961-5.7229-11.2593-12.1382-11.2593-6.41534 0-11.67151 4.9632-12.13818 11.2593z" fill="#3fb3ff"/><path d="m3.86182 29.9336h24.27638c-.4667-6.2961-5.7229-11.2593-12.1382-11.2593-6.41534 0-11.67151 4.9632-12.13818 11.2593z" fill="url(#B)"/><path d="m3.86182 29.9336h24.27638c-.4667-6.2961-5.7229-11.2593-12.1382-11.2593-6.41534 0-11.67151 4.9632-12.13818 11.2593z" fill="url(#C)"/><path d="m3.86182 29.9336h24.27638c-.4667-6.2961-5.7229-11.2593-12.1382-11.2593-6.41534 0-11.67151 4.9632-12.13818 11.2593z" fill="url(#D)"/><path d="m3.86182 29.9336h24.27638c-.4667-6.2961-5.7229-11.2593-12.1382-11.2593-6.41534 0-11.67151 4.9632-12.13818 11.2593z" fill="url(#E)"/><g filter="url(#a)"><path d="m12.6459 19.6851.7636 3.7995c.0652.3073.4191.4377.6612.2421l.4518-.3637.6016 1.2035c.0395.0789.1201.1287.2083.1287h1.021c.0886 0 .1695-.0502.2087-.1297l.5866-1.1875.4375.3487c.2421.1956.596.0652.6612-.2421l.7637-3.7995z" fill="#2389d6"/></g><path d="m8.05469 29.9337h-4.19287c.24578-3.3162 1.82025-6.2625 4.19287-8.3087z" fill="url(#F)"/><path d="m8.05469 29.9337h-4.19287c.24578-3.3162 1.82025-6.2625 4.19287-8.3087z" fill="url(#G)"/><path d="m23.9453 29.9337h4.1929c-.2458-3.3162-1.8203-6.2625-4.1929-8.3087z" fill="url(#H)"/><path d="m23.9453 29.9337h4.1929c-.2458-3.3162-1.8203-6.2625-4.1929-8.3087z" fill="url(#I)"/><g filter="url(#b)"><path d="m16.7489 24.4692c-.0422.0853-.1291.1393-.2242.1393h-1.0964c-.0947 0-.1812-.0535-.2236-.1382l-1.2456-2.4918h4.02z" fill="url(#J)"/><path d="m16.7489 24.4692c-.0422.0853-.1291.1393-.2242.1393h-1.0964c-.0947 0-.1812-.0535-.2236-.1382l-1.2456-2.4918h4.02z" fill="url(#K)"/><path d="m16.7489 24.4692c-.0422.0853-.1291.1393-.2242.1393h-1.0964c-.0947 0-.1812-.0535-.2236-.1382l-1.2456-2.4918h4.02z" fill="url(#M)"/><path d="m16.7489 24.4692c-.0422.0853-.1291.1393-.2242.1393h-1.0964c-.0947 0-.1812-.0535-.2236-.1382l-1.2456-2.4918h4.02z" fill="url(#N)"/></g><path d="m17.5769 29.934-.9265-5.2014c-.0127-.0716-.0749-.1237-.1476-.1237h-1.0774c-.0717 0-.1333.0507-.1472.121l-1.0251 5.2041z" fill="url(#O)"/><path d="m17.5769 29.934-.9265-5.2014c-.0127-.0716-.0749-.1237-.1476-.1237h-1.0774c-.0717 0-.1333.0507-.1472.121l-1.0251 5.2041z" fill="url(#P)"/><path d="m17.5769 29.934-.9265-5.2014c-.0127-.0716-.0749-.1237-.1476-.1237h-1.0774c-.0717 0-.1333.0507-.1472.121l-1.0251 5.2041z" fill="url(#Q)"/><g filter="url(#c)"><path d="m16.0235 21.2085v.79l-1.95 1.57c-.26.21-.64.07-.71-.26l-.82-4.08z" fill="#73c0ff"/><path d="m16.0235 21.2085v.79l-1.95 1.57c-.26.21-.64.07-.71-.26l-.82-4.08z" fill="url(#R)"/></g><path d="m16.0235 21.2085v.79l-1.95 1.57c-.26.21-.64.07-.71-.26l-.82-4.08z" fill="url(#S)"/><g filter="url(#d)"><path d="m15.8785 21.2085v.79l1.97 1.57c.26.21.64.07.71-.26l.82-4.08z" fill="#73c0ff"/><path d="m15.8785 21.2085v.79l1.97 1.57c.26.21.64.07.71-.26l.82-4.08z" fill="url(#T)"/><path d="m15.8785 21.2085v.79l1.97 1.57c.26.21.64.07.71-.26l.82-4.08z" fill="url(#U)"/></g><path d="m15.8785 21.2085v.79l1.97 1.57c.26.21.64.07.71-.26l.82-4.08z" fill="url(#V)"/><g filter="url(#e)"><path d="m13.7394 19.832c.2109.5703.8125 1.5821 2.207 2.2227 1.4531-.75 1.9336-1.6524 2.1445-2.2227l-2.1445-.332z" fill="url(#W)"/><path d="m13.7394 19.832c.2109.5703.8125 1.5821 2.207 2.2227 1.4531-.75 1.9336-1.6524 2.1445-2.2227l-2.1445-.332z" fill="url(#X)"/></g><g filter="url(#f)"><path d="m18.8293 24.9297c0-.2762.2239-.5.5-.5h1.8125c.2762 0 .5.2238.5.5v1.7265c0 .7767-.6296 1.4063-1.4062 1.4063-.7767 0-1.4063-.6296-1.4063-1.4063z" fill="url(#Z)"/></g><g filter="url(#g)"><rect fill="url(#aa)" height="1.234" rx=".15" width="4.156" x="8.939" y="25.977"/></g><g filter="url(#h)"><circle cx="10.363" cy="12.853" fill="url(#ab)" r="1.918"/></g><g filter="url(#i)"><circle cx="10.363" cy="12.853" fill="url(#ac)" r="1.143"/></g><g filter="url(#j)"><circle cx="21.294" cy="12.853" fill="url(#ad)" r="1.918"/><circle cx="21.294" cy="12.853" fill="url(#ae)" r="1.918"/></g><g filter="url(#k)"><circle cx="21.294" cy="12.853" fill="#d79e81" r="1.143"/><circle cx="21.294" cy="12.853" fill="url(#af)" r="1.143"/><circle cx="21.294" cy="12.853" fill="url(#ag)" r="1.143"/></g><g filter="url(#l)"><path d="m9.95874 12.1486c.01861.0013.03741.0019.05636.0019 0 0-.06162-.9805-.12325-1.6546 0-.3064.12325-.67404.36975-.85789l.1849-.18384c.3082-.24512.4315-.6128.4315-.98049v-.98049c0-.3064.1848-.55153.493-.61281.7396-.18384 2.2804-.49024 4.4991-.49024 2.2188 0 3.7596.3064 4.4991.49024.2466.06128.4931.30641.4931.61281v.98049c0 .36769.1849.73537.4314.98049.5769.40425.541.62663.4931 1.10303-.0617.6128-.1233 1.6546-.1233 1.6546.007 0 .0139-.0001.0208-.0003l-.3055 4.5483c-.1844 2.0333-1.7828 3.4504-3.6887 3.4504h-3.6887c-1.9673 0-3.5043-1.4171-3.6887-3.4504z" fill="url(#ah)"/></g><path d="m9.95874 12.1486c.01861.0013.03741.0019.05636.0019 0 0-.06162-.9805-.12325-1.6546 0-.3064.12325-.67404.36975-.85789l.1849-.18384c.3082-.24512.4315-.6128.4315-.98049v-.98049c0-.3064.1848-.55153.493-.61281.7396-.18384 2.2804-.49024 4.4991-.49024 2.2188 0 3.7596.3064 4.4991.49024.2466.06128.4931.30641.4931.61281v.98049c0 .36769.1849.73537.4314.98049.5769.40425.541.62663.4931 1.10303-.0617.6128-.1233 1.6546-.1233 1.6546.007 0 .0139-.0001.0208-.0003l-.3055 4.5483c-.1844 2.0333-1.7828 3.4504-3.6887 3.4504h-3.6887c-1.9673 0-3.5043-1.4171-3.6887-3.4504z" fill="url(#ai)"/><path d="m9.95874 12.1486c.01861.0013.03741.0019.05636.0019 0 0-.06162-.9805-.12325-1.6546 0-.3064.12325-.67404.36975-.85789l.1849-.18384c.3082-.24512.4315-.6128.4315-.98049v-.98049c0-.3064.1848-.55153.493-.61281.7396-.18384 2.2804-.49024 4.4991-.49024 2.2188 0 3.7596.3064 4.4991.49024.2466.06128.4931.30641.4931.61281v.98049c0 .36769.1849.73537.4314.98049.5769.40425.541.62663.4931 1.10303-.0617.6128-.1233 1.6546-.1233 1.6546.007 0 .0139-.0001.0208-.0003l-.3055 4.5483c-.1844 2.0333-1.7828 3.4504-3.6887 3.4504h-3.6887c-1.9673 0-3.5043-1.4171-3.6887-3.4504z" fill="url(#aj)"/><path d="m9.95874 12.1486c.01861.0013.03741.0019.05636.0019 0 0-.06162-.9805-.12325-1.6546 0-.3064.12325-.67404.36975-.85789l.1849-.18384c.3082-.24512.4315-.6128.4315-.98049v-.98049c0-.3064.1848-.55153.493-.61281.7396-.18384 2.2804-.49024 4.4991-.49024 2.2188 0 3.7596.3064 4.4991.49024.2466.06128.4931.30641.4931.61281v.98049c0 .36769.1849.73537.4314.98049.5769.40425.541.62663.4931 1.10303-.0617.6128-.1233 1.6546-.1233 1.6546.007 0 .0139-.0001.0208-.0003l-.3055 4.5483c-.1844 2.0333-1.7828 3.4504-3.6887 3.4504h-3.6887c-1.9673 0-3.5043-1.4171-3.6887-3.4504z" fill="url(#ak)"/><path d="m9.95874 12.1486c.01861.0013.03741.0019.05636.0019 0 0-.06162-.9805-.12325-1.6546 0-.3064.12325-.67404.36975-.85789l.1849-.18384c.3082-.24512.4315-.6128.4315-.98049v-.98049c0-.3064.1848-.55153.493-.61281.7396-.18384 2.2804-.49024 4.4991-.49024 2.2188 0 3.7596.3064 4.4991.49024.2466.06128.4931.30641.4931.61281v.98049c0 .36769.1849.73537.4314.98049.5769.40425.541.62663.4931 1.10303-.0617.6128-.1233 1.6546-.1233 1.6546.007 0 .0139-.0001.0208-.0003l-.3055 4.5483c-.1844 2.0333-1.7828 3.4504-3.6887 3.4504h-3.6887c-1.9673 0-3.5043-1.4171-3.6887-3.4504z" fill="url(#al)"/><path d="m9.95874 12.1486c.01861.0013.03741.0019.05636.0019 0 0-.06162-.9805-.12325-1.6546 0-.3064.12325-.67404.36975-.85789l.1849-.18384c.3082-.24512.4315-.6128.4315-.98049v-.98049c0-.3064.1848-.55153.493-.61281.7396-.18384 2.2804-.49024 4.4991-.49024 2.2188 0 3.7596.3064 4.4991.49024.2466.06128.4931.30641.4931.61281v.98049c0 .36769.1849.73537.4314.98049.5769.40425.541.62663.4931 1.10303-.0617.6128-.1233 1.6546-.1233 1.6546.007 0 .0139-.0001.0208-.0003l-.3055 4.5483c-.1844 2.0333-1.7828 3.4504-3.6887 3.4504h-3.6887c-1.9673 0-3.5043-1.4171-3.6887-3.4504z" fill="url(#am)"/><path d="m9.95874 12.1486c.01861.0013.03741.0019.05636.0019 0 0-.06162-.9805-.12325-1.6546 0-.3064.12325-.67404.36975-.85789l.1849-.18384c.3082-.24512.4315-.6128.4315-.98049v-.98049c0-.3064.1848-.55153.493-.61281.7396-.18384 2.2804-.49024 4.4991-.49024 2.2188 0 3.7596.3064 4.4991.49024.2466.06128.4931.30641.4931.61281v.98049c0 .36769.1849.73537.4314.98049.5769.40425.541.62663.4931 1.10303-.0617.6128-.1233 1.6546-.1233 1.6546.007 0 .0139-.0001.0208-.0003l-.3055 4.5483c-.1844 2.0333-1.7828 3.4504-3.6887 3.4504h-3.6887c-1.9673 0-3.5043-1.4171-3.6887-3.4504z" fill="url(#an)"/><path d="m9.95874 12.1486c.01861.0013.03741.0019.05636.0019 0 0-.06162-.9805-.12325-1.6546 0-.3064.12325-.67404.36975-.85789l.1849-.18384c.3082-.24512.4315-.6128.4315-.98049v-.98049c0-.3064.1848-.55153.493-.61281.7396-.18384 2.2804-.49024 4.4991-.49024 2.2188 0 3.7596.3064 4.4991.49024.2466.06128.4931.30641.4931.61281v.98049c0 .36769.1849.73537.4314.98049.5769.40425.541.62663.4931 1.10303-.0617.6128-.1233 1.6546-.1233 1.6546.007 0 .0139-.0001.0208-.0003l-.3055 4.5483c-.1844 2.0333-1.7828 3.4504-3.6887 3.4504h-3.6887c-1.9673 0-3.5043-1.4171-3.6887-3.4504z" fill="url(#ao)"/><path d="m9.95874 12.1486c.01861.0013.03741.0019.05636.0019 0 0-.06162-.9805-.12325-1.6546 0-.3064.12325-.67404.36975-.85789l.1849-.18384c.3082-.24512.4315-.6128.4315-.98049v-.98049c0-.3064.1848-.55153.493-.61281.7396-.18384 2.2804-.49024 4.4991-.49024 2.2188 0 3.7596.3064 4.4991.49024.2466.06128.4931.30641.4931.61281v.98049c0 .36769.1849.73537.4314.98049.5769.40425.541.62663.4931 1.10303-.0617.6128-.1233 1.6546-.1233 1.6546.007 0 .0139-.0001.0208-.0003l-.3055 4.5483c-.1844 2.0333-1.7828 3.4504-3.6887 3.4504h-3.6887c-1.9673 0-3.5043-1.4171-3.6887-3.4504z" fill="url(#ap)"/><path d="m9.95874 12.1486c.01861.0013.03741.0019.05636.0019 0 0-.06162-.9805-.12325-1.6546 0-.3064.12325-.67404.36975-.85789l.1849-.18384c.3082-.24512.4315-.6128.4315-.98049v-.98049c0-.3064.1848-.55153.493-.61281.7396-.18384 2.2804-.49024 4.4991-.49024 2.2188 0 3.7596.3064 4.4991.49024.2466.06128.4931.30641.4931.61281v.98049c0 .36769.1849.73537.4314.98049.5769.40425.541.62663.4931 1.10303-.0617.6128-.1233 1.6546-.1233 1.6546.007 0 .0139-.0001.0208-.0003l-.3055 4.5483c-.1844 2.0333-1.7828 3.4504-3.6887 3.4504h-3.6887c-1.9673 0-3.5043-1.4171-3.6887-3.4504z" fill="url(#aq)"/><g filter="url(#m)"><path d="m21.3552 5.40962.4931.24512c.8628.42896 1.3559 1.40945 1.171 2.45123l-.6779 3.49303c-.0605.3607-.299.6035-.6572.6125-.0069.0002-.0138.0002-.0208.0002 0 0 .0616-1.0417.1233-1.6545.05-.4977-.0369-.64947-.4931-1.10309-.2465-.24512-.4314-.61281-.4314-.98049v-.98049c0-.30641-.2465-.55153-.4931-.61281-.7395-.18384-2.2803-.49025-4.4991-.49025-2.2187 0-3.7595.30641-4.4991.49025-.3081.06128-.493.3064-.493.61281v.98049c0 .36768-.1233.73537-.4315.98049l-.1849.18384c-.2465.18384-.36975.55155-.36975.85795.06163.6741.12325 1.6546.12325 1.6546-.01895 0-.03775-.0007-.05636-.002-.34437-.0235-.62474-.262-.68321-.6108l-.67795-3.49301c-.12326-.98049.36979-1.96099 1.23263-2.38995l.49309-.24512c.3081-.18385.6163-.42897.9244-.67409l1.1094-1.16434c.678-.6128 1.6641-.79664 2.5269-.36768.6163.18384 1.2943.18384 1.9106 0 .9245-.3064 1.9722-.06128 2.7118.61281l.9245.91921c.2465.3064.5547.49024.9244.67409z" fill="#ebcc94"/><path d="m21.3552 5.40962.4931.24512c.8628.42896 1.3559 1.40945 1.171 2.45123l-.6779 3.49303c-.0605.3607-.299.6035-.6572.6125-.0069.0002-.0138.0002-.0208.0002 0 0 .0616-1.0417.1233-1.6545.05-.4977-.0369-.64947-.4931-1.10309-.2465-.24512-.4314-.61281-.4314-.98049v-.98049c0-.30641-.2465-.55153-.4931-.61281-.7395-.18384-2.2803-.49025-4.4991-.49025-2.2187 0-3.7595.30641-4.4991.49025-.3081.06128-.493.3064-.493.61281v.98049c0 .36768-.1233.73537-.4315.98049l-.1849.18384c-.2465.18384-.36975.55155-.36975.85795.06163.6741.12325 1.6546.12325 1.6546-.01895 0-.03775-.0007-.05636-.002-.34437-.0235-.62474-.262-.68321-.6108l-.67795-3.49301c-.12326-.98049.36979-1.96099 1.23263-2.38995l.49309-.24512c.3081-.18385.6163-.42897.9244-.67409l1.1094-1.16434c.678-.6128 1.6641-.79664 2.5269-.36768.6163.18384 1.2943.18384 1.9106 0 .9245-.3064 1.9722-.06128 2.7118.61281l.9245.91921c.2465.3064.5547.49024.9244.67409z" fill="url(#ar)"/><path d="m21.3552 5.40962.4931.24512c.8628.42896 1.3559 1.40945 1.171 2.45123l-.6779 3.49303c-.0605.3607-.299.6035-.6572.6125-.0069.0002-.0138.0002-.0208.0002 0 0 .0616-1.0417.1233-1.6545.05-.4977-.0369-.64947-.4931-1.10309-.2465-.24512-.4314-.61281-.4314-.98049v-.98049c0-.30641-.2465-.55153-.4931-.61281-.7395-.18384-2.2803-.49025-4.4991-.49025-2.2187 0-3.7595.30641-4.4991.49025-.3081.06128-.493.3064-.493.61281v.98049c0 .36768-.1233.73537-.4315.98049l-.1849.18384c-.2465.18384-.36975.55155-.36975.85795.06163.6741.12325 1.6546.12325 1.6546-.01895 0-.03775-.0007-.05636-.002-.34437-.0235-.62474-.262-.68321-.6108l-.67795-3.49301c-.12326-.98049.36979-1.96099 1.23263-2.38995l.49309-.24512c.3081-.18385.6163-.42897.9244-.67409l1.1094-1.16434c.678-.6128 1.6641-.79664 2.5269-.36768.6163.18384 1.2943.18384 1.9106 0 .9245-.3064 1.9722-.06128 2.7118.61281l.9245.91921c.2465.3064.5547.49024.9244.67409z" fill="url(#as)"/><path d="m21.3552 5.40962.4931.24512c.8628.42896 1.3559 1.40945 1.171 2.45123l-.6779 3.49303c-.0605.3607-.299.6035-.6572.6125-.0069.0002-.0138.0002-.0208.0002 0 0 .0616-1.0417.1233-1.6545.05-.4977-.0369-.64947-.4931-1.10309-.2465-.24512-.4314-.61281-.4314-.98049v-.98049c0-.30641-.2465-.55153-.4931-.61281-.7395-.18384-2.2803-.49025-4.4991-.49025-2.2187 0-3.7595.30641-4.4991.49025-.3081.06128-.493.3064-.493.61281v.98049c0 .36768-.1233.73537-.4315.98049l-.1849.18384c-.2465.18384-.36975.55155-.36975.85795.06163.6741.12325 1.6546.12325 1.6546-.01895 0-.03775-.0007-.05636-.002-.34437-.0235-.62474-.262-.68321-.6108l-.67795-3.49301c-.12326-.98049.36979-1.96099 1.23263-2.38995l.49309-.24512c.3081-.18385.6163-.42897.9244-.67409l1.1094-1.16434c.678-.6128 1.6641-.79664 2.5269-.36768.6163.18384 1.2943.18384 1.9106 0 .9245-.3064 1.9722-.06128 2.7118.61281l.9245.91921c.2465.3064.5547.49024.9244.67409z" fill="url(#at)"/><path d="m21.3552 5.40962.4931.24512c.8628.42896 1.3559 1.40945 1.171 2.45123l-.6779 3.49303c-.0605.3607-.299.6035-.6572.6125-.0069.0002-.0138.0002-.0208.0002 0 0 .0616-1.0417.1233-1.6545.05-.4977-.0369-.64947-.4931-1.10309-.2465-.24512-.4314-.61281-.4314-.98049v-.98049c0-.30641-.2465-.55153-.4931-.61281-.7395-.18384-2.2803-.49025-4.4991-.49025-2.2187 0-3.7595.30641-4.4991.49025-.3081.06128-.493.3064-.493.61281v.98049c0 .36768-.1233.73537-.4315.98049l-.1849.18384c-.2465.18384-.36975.55155-.36975.85795.06163.6741.12325 1.6546.12325 1.6546-.01895 0-.03775-.0007-.05636-.002-.34437-.0235-.62474-.262-.68321-.6108l-.67795-3.49301c-.12326-.98049.36979-1.96099 1.23263-2.38995l.49309-.24512c.3081-.18385.6163-.42897.9244-.67409l1.1094-1.16434c.678-.6128 1.6641-.79664 2.5269-.36768.6163.18384 1.2943.18384 1.9106 0 .9245-.3064 1.9722-.06128 2.7118.61281l.9245.91921c.2465.3064.5547.49024.9244.67409z" fill="url(#au)"/><path d="m21.3552 5.40962.4931.24512c.8628.42896 1.3559 1.40945 1.171 2.45123l-.6779 3.49303c-.0605.3607-.299.6035-.6572.6125-.0069.0002-.0138.0002-.0208.0002 0 0 .0616-1.0417.1233-1.6545.05-.4977-.0369-.64947-.4931-1.10309-.2465-.24512-.4314-.61281-.4314-.98049v-.98049c0-.30641-.2465-.55153-.4931-.61281-.7395-.18384-2.2803-.49025-4.4991-.49025-2.2187 0-3.7595.30641-4.4991.49025-.3081.06128-.493.3064-.493.61281v.98049c0 .36768-.1233.73537-.4315.98049l-.1849.18384c-.2465.18384-.36975.55155-.36975.85795.06163.6741.12325 1.6546.12325 1.6546-.01895 0-.03775-.0007-.05636-.002-.34437-.0235-.62474-.262-.68321-.6108l-.67795-3.49301c-.12326-.98049.36979-1.96099 1.23263-2.38995l.49309-.24512c.3081-.18385.6163-.42897.9244-.67409l1.1094-1.16434c.678-.6128 1.6641-.79664 2.5269-.36768.6163.18384 1.2943.18384 1.9106 0 .9245-.3064 1.9722-.06128 2.7118.61281l.9245.91921c.2465.3064.5547.49024.9244.67409z" fill="url(#av)"/></g><path d="m21.3552 5.40962.4931.24512c.8628.42896 1.3559 1.40945 1.171 2.45123l-.6779 3.49303c-.0605.3607-.299.6035-.6572.6125-.0069.0002-.0138.0002-.0208.0002 0 0 .0616-1.0417.1233-1.6545.05-.4977-.0369-.64947-.4931-1.10309-.2465-.24512-.4314-.61281-.4314-.98049v-.98049c0-.30641-.2465-.55153-.4931-.61281-.7395-.18384-2.2803-.49025-4.4991-.49025-2.2187 0-3.7595.30641-4.4991.49025-.3081.06128-.493.3064-.493.61281v.98049c0 .36768-.1233.73537-.4315.98049l-.1849.18384c-.2465.18384-.36975.55155-.36975.85795.06163.6741.12325 1.6546.12325 1.6546-.01895 0-.03775-.0007-.05636-.002-.34437-.0235-.62474-.262-.68321-.6108l-.67795-3.49301c-.12326-.98049.36979-1.96099 1.23263-2.38995l.49309-.24512c.3081-.18385.6163-.42897.9244-.67409l1.1094-1.16434c.678-.6128 1.6641-.79664 2.5269-.36768.6163.18384 1.2943.18384 1.9106 0 .9245-.3064 1.9722-.06128 2.7118.61281l.9245.91921c.2465.3064.5547.49024.9244.67409z" fill="url(#aw)"/><path d="m21.3552 5.40962.4931.24512c.8628.42896 1.3559 1.40945 1.171 2.45123l-.6779 3.49303c-.0605.3607-.299.6035-.6572.6125-.0069.0002-.0138.0002-.0208.0002 0 0 .0616-1.0417.1233-1.6545.05-.4977-.0369-.64947-.4931-1.10309-.2465-.24512-.4314-.61281-.4314-.98049v-.98049c0-.30641-.2465-.55153-.4931-.61281-.7395-.18384-2.2803-.49025-4.4991-.49025-2.2187 0-3.7595.30641-4.4991.49025-.3081.06128-.493.3064-.493.61281v.98049c0 .36768-.1233.73537-.4315.98049l-.1849.18384c-.2465.18384-.36975.55155-.36975.85795.06163.6741.12325 1.6546.12325 1.6546-.01895 0-.03775-.0007-.05636-.002-.34437-.0235-.62474-.262-.68321-.6108l-.67795-3.49301c-.12326-.98049.36979-1.96099 1.23263-2.38995l.49309-.24512c.3081-.18385.6163-.42897.9244-.67409l1.1094-1.16434c.678-.6128 1.6641-.79664 2.5269-.36768.6163.18384 1.2943.18384 1.9106 0 .9245-.3064 1.9722-.06128 2.7118.61281l.9245.91921c.2465.3064.5547.49024.9244.67409z" fill="url(#ax)"/><g filter="url(#n)"><path d="m15.502 12.7126-.9425 1.9529c-.1169.4017.1635.8034.5608.8034h.847c.3973 0 .6777-.4079.5609-.8034l-.5725-1.9529c-.1227-.4326-.3251-.4326-.4537 0z" fill="#c68378"/></g><g filter="url(#o)"><path d="m15.3792 12.5251-.6106 1.9529c-.1246.4017.1745.8034.5981.8034h.9033c.4236 0 .7227-.4079.5981-.8034l-.6105-1.9529c-.1309-.4326-.7414-.4326-.8784 0z" fill="#d49c84"/><path d="m15.3792 12.5251-.6106 1.9529c-.1246.4017.1745.8034.5981.8034h.9033c.4236 0 .7227-.4079.5981-.8034l-.6105-1.9529c-.1309-.4326-.7414-.4326-.8784 0z" fill="url(#ay)"/><path d="m15.3792 12.5251-.6106 1.9529c-.1246.4017.1745.8034.5981.8034h.9033c.4236 0 .7227-.4079.5981-.8034l-.6105-1.9529c-.1309-.4326-.7414-.4326-.8784 0z" fill="url(#az)"/><path d="m15.3792 12.5251-.6106 1.9529c-.1246.4017.1745.8034.5981.8034h.9033c.4236 0 .7227-.4079.5981-.8034l-.6105-1.9529c-.1309-.4326-.7414-.4326-.8784 0z" fill="url(#aA)"/></g><g filter="url(#p)"><path d="m15.3792 12.4455-.6106 1.9529c-.1246.4017.1745.8034.5981.8034h.9033c.4236 0 .7227-.4079.5981-.8034l-.6105-1.9529c-.1309-.4326-.7414-.4326-.8784 0z" fill="url(#aB)"/></g><g filter="url(#q)"><path d="m15.8184 16.4489c-.583 0-1.131-.1372-1.5915-.3773-.1574-.08-.3265.0972-.2274.2401.3848.5831 1.0552.9718 1.8189.9718s1.4341-.3887 1.8188-.9718c.0991-.1486-.0699-.3201-.2273-.2401-.4606.2401-1.0027.3773-1.5915.3773z" stroke="url(#aC)" stroke-width=".2"/></g><path d="m15.8184 16.4489c-.583 0-1.131-.1372-1.5915-.3773-.1574-.08-.3265.0972-.2274.2401.3848.5831 1.0552.9718 1.8189.9718s1.4341-.3887 1.8188-.9718c.0991-.1486-.0699-.3201-.2273-.2401-.4606.2401-1.0027.3773-1.5915.3773z" fill="#88024e"/><path d="m18.5619 11.209c.7503 0 1.384.5172 1.5564 1.2162.0513.2004-.1025.3915-.3075.3915h-2.563c-.1631 0-.2936-.1492-.261-.3123.1445-.7362.7922-1.2954 1.5751-1.2954z" fill="#fff"/><path d="m18.3243 11.521c.5685 0 1.0252.4613 1.0252 1.0252 0 .0932-.014.1864-.0373.2703h-1.9805c-.0233-.0886-.0373-.1771-.0373-.2703 0-.5639.4614-1.0252 1.0299-1.0252z" fill="url(#aE)"/><path d="m17.7372 12.5466c0-.3262.2609-.5871.5871-.5871s.5872.2609.5872.5871c0 .0979-.0233.1911-.0653.2703h-1.0391c-.0466-.0792-.0699-.1724-.0699-.2703z" fill="#000"/><g filter="url(#r)"><path d="m18.2489 11.7381c.0731.0977-.0796.2168-.2532.3466s-.3024.2211-.3754.1234c-.0731-.0977.0085-.2821.1821-.4119.1735-.1297.3735-.1558.4465-.0581z" fill="#c7a7a3"/><path d="m18.2489 11.7381c.0731.0977-.0796.2168-.2532.3466s-.3024.2211-.3754.1234c-.0731-.0977.0085-.2821.1821-.4119.1735-.1297.3735-.1558.4465-.0581z" fill="url(#aG)"/></g><g filter="url(#s)"><path d="m19.2375 12.4114c-.0379-.265-.1929-.4648-.2658-.5315l-.2985.3276.1347.2622z" fill="url(#aI)"/></g><path d="m13.0689 11.209c-.7503 0-1.3841.5173-1.5565 1.2163-.0513.2004.1025.3914.3075.3914h2.5631c.1632 0 .2936-.1491.261-.3122-.1444-.7363-.7969-1.2955-1.5751-1.2955z" fill="#fff"/><path d="m13.3065 11.521c-.5686 0-1.0253.4614-1.0253 1.0252 0 .0932.014.1864.0373.2703h1.9806c.0233-.0885.0373-.1771.0373-.2703-.0047-.5638-.4614-1.0252-1.0299-1.0252z" fill="url(#aJ)"/><path d="m13.8937 12.5467c0-.3263-.2609-.5872-.5872-.5872-.3262 0-.5871.2609-.5871.5872 0 .0978.0233.191.0652.2702h1.0392c.042-.0792.0699-.1724.0699-.2702z" fill="#000"/><g filter="url(#t)"><path d="m14.2431 12.4261c0-.3314-.2694-.5522-.3422-.619l-.3313.3204.2039.4151z" fill="url(#aK)"/></g><g filter="url(#u)"><ellipse cx="12.997" cy="11.959" fill="#c7a7a3" fill-opacity=".9" rx=".448" ry=".227" transform="matrix(.88365127 -.46814574 .46814574 .88365127 -4.086546 7.475998)"/><ellipse cx="12.997" cy="11.959" fill="url(#aL)" rx=".448" ry=".227" transform="matrix(.88365127 -.46814574 .46814574 .88365127 -4.086546 7.475998)"/></g><g filter="url(#v)"><path d="m8.79688 4.26566c-.62507.25781-1.35625 1.025-.96875 2.375s.52604 1.80208.54687 1.85937c.04036.16667.22344.5.63281.5h.39063c.05078.00261.18203-.02031.30078-.13281.14225-.13477 2.25408-1.59692 5.82658-1.71852 3.6455.1216 6.6327 1.58375 6.775 1.71852.1187.1125.25.13542.3008.13281h.3906c.4094 0 .5924-.33333.6328-.5.0208-.05729.1594-.50937.5469-1.85937s-.3437-2.11719-.9688-2.375l-5.2094-1.85283c-1.3045-.46398-2.7293-.4625-4.0329.00416z" fill="url(#aM)"/><path d="m8.79688 4.26566c-.62507.25781-1.35625 1.025-.96875 2.375s.52604 1.80208.54687 1.85937c.04036.16667.22344.5.63281.5h.39063c.05078.00261.18203-.02031.30078-.13281.14225-.13477 2.25408-1.59692 5.82658-1.71852 3.6455.1216 6.6327 1.58375 6.775 1.71852.1187.1125.25.13542.3008.13281h.3906c.4094 0 .5924-.33333.6328-.5.0208-.05729.1594-.50937.5469-1.85937s-.3437-2.11719-.9688-2.375l-5.2094-1.85283c-1.3045-.46398-2.7293-.4625-4.0329.00416z" fill="url(#aN)"/></g><path d="m8.79688 4.26566c-.62507.25781-1.35625 1.025-.96875 2.375s.52604 1.80208.54687 1.85937c.04036.16667.22344.5.63281.5h.39063c.05078.00261.18203-.02031.30078-.13281.14225-.13477 2.25408-1.59692 5.82658-1.71852 3.6455.1216 6.6327 1.58375 6.775 1.71852.1187.1125.25.13542.3008.13281h.3906c.4094 0 .5924-.33333.6328-.5.0208-.05729.1594-.50937.5469-1.85937s-.3437-2.11719-.9688-2.375l-5.2094-1.85283c-1.3045-.46398-2.7293-.4625-4.0329.00416z" fill="url(#aO)"/><g filter="url(#w)"><path d="m14.7394 3.79982v.92208c0 .65544.5313 1.18678 1.1868 1.18678.6554 0 1.1867-.53134 1.1867-1.18678v-.92342c0-.15779-.1742-.25344-.3073-.16876l-.2525.16054c-.0444.02827-.1032.01721-.1343-.0253l-.2943-.40192c-.1001-.13667-.3043-.13634-.4039.00066l-.2913.4006c-.0312.0428-.0903.05394-.1348.0254l-.2473-.15831c-.1331-.08524-.3078.01036-.3078.16843z" fill="#297ecb"/></g><g filter="url(#x)"><path d="m14.7933 3.75636v.92208c0 .65544.5314 1.18678 1.1868 1.18678.6555 0 1.1868-.53134 1.1868-1.18678v-.92342c0-.15779-.1742-.25344-.3074-.16876l-.2524.16055c-.0445.02827-.1032.0172-.1343-.02531l-.2944-.40192c-.1-.13667-.3042-.13634-.4038.00066l-.2914.4006c-.0311.04281-.0902.05394-.1348.0254l-.2472-.15831c-.1331-.08524-.3079.01036-.3079.16843z" fill="url(#aP)"/></g><g filter="url(#y)"><path d="m9.44177 8.70312c.39619.84376 1.51573 2.46098 3.96973 2.46098h5.1152c2.454 0 3.5736-1.61722 3.9698-2.46098-2.2532-1.04999-5.2904-1.42187-6.5274-1.47656-1.2369.05469-4.2741.42657-6.52733 1.47656z" fill="url(#aQ)"/><path d="m9.44177 8.70312c.39619.84376 1.51573 2.46098 3.96973 2.46098h5.1152c2.454 0 3.5736-1.61722 3.9698-2.46098-2.2532-1.04999-5.2904-1.42187-6.5274-1.47656-1.2369.05469-4.2741.42657-6.52733 1.47656z" fill="url(#aR)"/></g><g filter="url(#z)"><path clip-rule="evenodd" d="m21.5816 8.63581c-4.6862-1.71717-9.2567-.76893-10.9429-.072-.3662.15137-.78577-.0228-.93713-.389-.15137-.36621.0228-.78578.38903-.93715 1.9302-.79782 6.8807-1.81946 11.9847.05079.3721.13633.5632.54847.4268.92053-.1363.37207-.5484.56316-.9205.42683z" fill="#247dbd" fill-rule="evenodd"/></g><g filter="url(#A)"><path clip-rule="evenodd" d="m21.9198 8.96222c-5.0619-1.85482-9.9988-.76426-11.8201-.01145-.39558.16349-.84878-.02463-1.01228-.42019s.02462-.84877.42018-1.01227c2.0849-.86178 7.4324-2.03164 12.9455-.01146.4019.14727.6083.59244.461.99433-.1472.40189-.5924.60831-.9943.46104z" fill="url(#aS)" fill-rule="evenodd"/></g><g clip-rule="evenodd" fill-rule="evenodd"><path d="m21.9198 8.96222c-5.0619-1.85482-9.9988-.76426-11.8201-.01145-.39558.16349-.84878-.02463-1.01228-.42019s.02462-.84877.42018-1.01227c2.0849-.86178 7.4324-2.03164 12.9455-.01146.4019.14727.6083.59244.461.99433-.1472.40189-.5924.60831-.9943.46104z" fill="url(#aT)"/><path d="m21.9198 8.96222c-5.0619-1.85482-9.9988-.76426-11.8201-.01145-.39558.16349-.84878-.02463-1.01228-.42019s.02462-.84877.42018-1.01227c2.0849-.86178 7.4324-2.03164 12.9455-.01146.4019.14727.6083.59244.461.99433-.1472.40189-.5924.60831-.9943.46104z" fill="url(#aU)"/></g></svg>