<svg fill="none" height="32" viewBox="0 0 32 32" width="32" xmlns="http://www.w3.org/2000/svg" xmlns:xlink="http://www.w3.org/1999/xlink"><filter id="a" color-interpolation-filters="sRGB" filterUnits="userSpaceOnUse" height="4.17" width="9.31" x="11.34" y="25.98"><feFlood flood-opacity="0" result="BackgroundImageFix"/><feBlend in="SourceGraphic" in2="BackgroundImageFix" mode="normal" result="shape"/><feColorMatrix in="SourceAlpha" result="hardAlpha" type="matrix" values="0 0 0 0 0 0 0 0 0 0 0 0 0 0 0 0 0 0 127 0"/><feOffset dx="-.15" dy=".15"/><feGaussianBlur stdDeviation=".125"/><feComposite in2="hardAlpha" k2="-1" k3="1" operator="arithmetic"/><feColorMatrix type="matrix" values="0 0 0 0 0.843137 0 0 0 0 0.811765 0 0 0 0 0.87451 0 0 0 1 0"/><feBlend in2="shape" mode="normal" result="effect1_innerShadow_4002_2529"/><feColorMatrix in="SourceAlpha" result="hardAlpha" type="matrix" values="0 0 0 0 0 0 0 0 0 0 0 0 0 0 0 0 0 0 127 0"/><feOffset dx=".15" dy=".15"/><feGaussianBlur stdDeviation=".2"/><feComposite in2="hardAlpha" k2="-1" k3="1" operator="arithmetic"/><feColorMatrix type="matrix" values="0 0 0 0 0.686275 0 0 0 0 0.635294 0 0 0 0 0.733333 0 0 0 1 0"/><feBlend in2="effect1_innerShadow_4002_2529" mode="normal" result="effect2_innerShadow_4002_2529"/></filter><filter id="b" color-interpolation-filters="sRGB" filterUnits="userSpaceOnUse" height="3.12" width="3.12" x="12.255" y="22.615"><feFlood flood-opacity="0" result="BackgroundImageFix"/><feBlend in="SourceGraphic" in2="BackgroundImageFix" mode="normal" result="shape"/><feGaussianBlur result="effect1_foregroundBlur_4002_2529" stdDeviation=".25"/></filter><filter id="c" color-interpolation-filters="sRGB" filterUnits="userSpaceOnUse" height="3.12" width="3.12" x="16.325" y="22.615"><feFlood flood-opacity="0" result="BackgroundImageFix"/><feBlend in="SourceGraphic" in2="BackgroundImageFix" mode="normal" result="shape"/><feGaussianBlur result="effect1_foregroundBlur_4002_2529" stdDeviation=".25"/></filter><filter id="d" color-interpolation-filters="sRGB" filterUnits="userSpaceOnUse" height="2.12" width="2.12" x="12.94" y="22.93"><feFlood flood-opacity="0" result="BackgroundImageFix"/><feBlend in="SourceGraphic" in2="BackgroundImageFix" mode="normal" result="shape"/><feColorMatrix in="SourceAlpha" result="hardAlpha" type="matrix" values="0 0 0 0 0 0 0 0 0 0 0 0 0 0 0 0 0 0 127 0"/><feOffset/><feGaussianBlur stdDeviation=".125"/><feComposite in2="hardAlpha" k2="-1" k3="1" operator="arithmetic"/><feColorMatrix type="matrix" values="0 0 0 0 0.294118 0 0 0 0 0.498039 0 0 0 0 0.847059 0 0 0 1 0"/><feBlend in2="shape" mode="normal" result="effect1_innerShadow_4002_2529"/></filter><filter id="e" color-interpolation-filters="sRGB" filterUnits="userSpaceOnUse" height="2.12" width="2.12" x="16.94" y="22.93"><feFlood flood-opacity="0" result="BackgroundImageFix"/><feBlend in="SourceGraphic" in2="BackgroundImageFix" mode="normal" result="shape"/><feColorMatrix in="SourceAlpha" result="hardAlpha" type="matrix" values="0 0 0 0 0 0 0 0 0 0 0 0 0 0 0 0 0 0 127 0"/><feOffset/><feGaussianBlur stdDeviation=".125"/><feComposite in2="hardAlpha" k2="-1" k3="1" operator="arithmetic"/><feColorMatrix type="matrix" values="0 0 0 0 0.882353 0 0 0 0 0.180392 0 0 0 0 0.380392 0 0 0 1 0"/><feBlend in2="shape" mode="normal" result="effect1_innerShadow_4002_2529"/></filter><filter id="f" color-interpolation-filters="sRGB" filterUnits="userSpaceOnUse" height="2.05" width="2.05" x="16.975" y="22.965"><feFlood flood-opacity="0" result="BackgroundImageFix"/><feBlend in="SourceGraphic" in2="BackgroundImageFix" mode="normal" result="shape"/><feGaussianBlur result="effect1_foregroundBlur_4002_2529" stdDeviation=".05"/></filter><filter id="g" color-interpolation-filters="sRGB" filterUnits="userSpaceOnUse" height="2.05" width="2.05" x="12.975" y="22.965"><feFlood flood-opacity="0" result="BackgroundImageFix"/><feBlend in="SourceGraphic" in2="BackgroundImageFix" mode="normal" result="shape"/><feGaussianBlur result="effect1_foregroundBlur_4002_2529" stdDeviation=".05"/></filter><filter id="h" color-interpolation-filters="sRGB" filterUnits="userSpaceOnUse" height="6.364" width="14.359" x="8.82" y="15.548"><feFlood flood-opacity="0" result="BackgroundImageFix"/><feBlend in="SourceGraphic" in2="BackgroundImageFix" mode="normal" result="shape"/><feColorMatrix in="SourceAlpha" result="hardAlpha" type="matrix" values="0 0 0 0 0 0 0 0 0 0 0 0 0 0 0 0 0 0 127 0"/><feOffset dy="-.2"/><feGaussianBlur stdDeviation=".5"/><feComposite in2="hardAlpha" k2="-1" k3="1" operator="arithmetic"/><feColorMatrix type="matrix" values="0 0 0 0 0.933333 0 0 0 0 0.87451 0 0 0 0 0.996078 0 0 0 1 0"/><feBlend in2="shape" mode="normal" result="effect1_innerShadow_4002_2529"/></filter><filter id="i" color-interpolation-filters="sRGB" filterUnits="userSpaceOnUse" height="18.043" width="18.043" x="6.925" y="1.988"><feFlood flood-opacity="0" result="BackgroundImageFix"/><feBlend in="SourceGraphic" in2="BackgroundImageFix" mode="normal" result="shape"/><feGaussianBlur result="effect1_foregroundBlur_4002_2529" stdDeviation=".125"/></filter><filter id="j" color-interpolation-filters="sRGB" filterUnits="userSpaceOnUse" height="16.155" width="16.155" x="7.869" y="2.932"><feFlood flood-opacity="0" result="BackgroundImageFix"/><feBlend in="SourceGraphic" in2="BackgroundImageFix" mode="normal" result="shape"/><feGaussianBlur result="effect1_foregroundBlur_4002_2529" stdDeviation=".15"/></filter><filter id="k" color-interpolation-filters="sRGB" filterUnits="userSpaceOnUse" height="16.385" width="14.583" x="9.073" y="2.863"><feFlood flood-opacity="0" result="BackgroundImageFix"/><feBlend in="SourceGraphic" in2="BackgroundImageFix" mode="normal" result="shape"/><feGaussianBlur result="effect1_foregroundBlur_4002_2529" stdDeviation=".75"/></filter><filter id="l" color-interpolation-filters="sRGB" filterUnits="userSpaceOnUse" height="12.205" width="10.191" x="10.834" y="4.581"><feFlood flood-opacity="0" result="BackgroundImageFix"/><feBlend in="SourceGraphic" in2="BackgroundImageFix" mode="normal" result="shape"/><feColorMatrix in="SourceAlpha" result="hardAlpha" type="matrix" values="0 0 0 0 0 0 0 0 0 0 0 0 0 0 0 0 0 0 127 0"/><feOffset/><feGaussianBlur stdDeviation="1"/><feComposite in2="hardAlpha" k2="-1" k3="1" operator="arithmetic"/><feColorMatrix type="matrix" values="0 0 0 0 0.6 0 0 0 0 0.298039 0 0 0 0 0.156863 0 0 0 1 0"/><feBlend in2="shape" mode="normal" result="effect1_innerShadow_4002_2529"/></filter><filter id="m" color-interpolation-filters="sRGB" filterUnits="userSpaceOnUse" height="3.682" width="2.877" x="14.328" y="9.811"><feFlood flood-opacity="0" result="BackgroundImageFix"/><feBlend in="SourceGraphic" in2="BackgroundImageFix" mode="normal" result="shape"/><feGaussianBlur result="effect1_foregroundBlur_4002_2529" stdDeviation=".25"/></filter><filter id="n" color-interpolation-filters="sRGB" filterUnits="userSpaceOnUse" height="3.182" width="2.377" x="14.741" y="9.923"><feFlood flood-opacity="0" result="BackgroundImageFix"/><feBlend in="SourceGraphic" in2="BackgroundImageFix" mode="normal" result="shape"/><feColorMatrix in="SourceAlpha" result="hardAlpha" type="matrix" values="0 0 0 0 0 0 0 0 0 0 0 0 0 0 0 0 0 0 127 0"/><feOffset dx=".1" dy="-.25"/><feGaussianBlur stdDeviation=".125"/><feComposite in2="hardAlpha" k2="-1" k3="1" operator="arithmetic"/><feColorMatrix type="matrix" values="0 0 0 0 0.929412 0 0 0 0 0.596078 0 0 0 0 0.192157 0 0 0 1 0"/><feBlend in2="shape" mode="normal" result="effect1_innerShadow_4002_2529"/><feGaussianBlur result="effect2_foregroundBlur_4002_2529" stdDeviation=".125"/></filter><filter id="o" color-interpolation-filters="sRGB" filterUnits="userSpaceOnUse" height="1.285" width="3.001" x="16.871" y="9.246"><feFlood flood-opacity="0" result="BackgroundImageFix"/><feBlend in="SourceGraphic" in2="BackgroundImageFix" mode="normal" result="shape"/><feColorMatrix in="SourceAlpha" result="hardAlpha" type="matrix" values="0 0 0 0 0 0 0 0 0 0 0 0 0 0 0 0 0 0 127 0"/><feOffset dx="-.2"/><feGaussianBlur stdDeviation=".2"/><feComposite in2="hardAlpha" k2="-1" k3="1" operator="arithmetic"/><feColorMatrix type="matrix" values="0 0 0 0 0.141176 0 0 0 0 0.0862745 0 0 0 0 0.176471 0 0 0 1 0"/><feBlend in2="shape" mode="normal" result="effect1_innerShadow_4002_2529"/></filter><filter id="p" color-interpolation-filters="sRGB" filterUnits="userSpaceOnUse" height="1.285" width="3.001" x="11.986" y="9.246"><feFlood flood-opacity="0" result="BackgroundImageFix"/><feBlend in="SourceGraphic" in2="BackgroundImageFix" mode="normal" result="shape"/><feColorMatrix in="SourceAlpha" result="hardAlpha" type="matrix" values="0 0 0 0 0 0 0 0 0 0 0 0 0 0 0 0 0 0 127 0"/><feOffset dx=".2"/><feGaussianBlur stdDeviation=".125"/><feComposite in2="hardAlpha" k2="-1" k3="1" operator="arithmetic"/><feColorMatrix type="matrix" values="0 0 0 0 0.133333 0 0 0 0 0.0784314 0 0 0 0 0.168627 0 0 0 1 0"/><feBlend in2="shape" mode="normal" result="effect1_innerShadow_4002_2529"/></filter><filter id="q" color-interpolation-filters="sRGB" filterUnits="userSpaceOnUse" height="1.091" width="2.253" x="12.094" y="7.897"><feFlood flood-opacity="0" result="BackgroundImageFix"/><feBlend in="SourceGraphic" in2="BackgroundImageFix" mode="normal" result="shape"/><feColorMatrix in="SourceAlpha" result="hardAlpha" type="matrix" values="0 0 0 0 0 0 0 0 0 0 0 0 0 0 0 0 0 0 127 0"/><feOffset dy=".2"/><feGaussianBlur stdDeviation=".1"/><feComposite in2="hardAlpha" k2="-1" k3="1" operator="arithmetic"/><feColorMatrix type="matrix" values="0 0 0 0 0.447059 0 0 0 0 0.113725 0 0 0 0 0.054902 0 0 0 1 0"/><feBlend in2="shape" mode="normal" result="effect1_innerShadow_4002_2529"/></filter><filter id="r" color-interpolation-filters="sRGB" filterUnits="userSpaceOnUse" height="1.091" width="2.253" x="17.511" y="7.897"><feFlood flood-opacity="0" result="BackgroundImageFix"/><feBlend in="SourceGraphic" in2="BackgroundImageFix" mode="normal" result="shape"/><feColorMatrix in="SourceAlpha" result="hardAlpha" type="matrix" values="0 0 0 0 0 0 0 0 0 0 0 0 0 0 0 0 0 0 127 0"/><feOffset dy=".2"/><feGaussianBlur stdDeviation=".1"/><feComposite in2="hardAlpha" k2="-1" k3="1" operator="arithmetic"/><feColorMatrix type="matrix" values="0 0 0 0 0.447059 0 0 0 0 0.113725 0 0 0 0 0.054902 0 0 0 1 0"/><feBlend in2="shape" mode="normal" result="effect1_innerShadow_4002_2529"/></filter><filter id="s" color-interpolation-filters="sRGB" filterUnits="userSpaceOnUse" height=".696" width=".786" x="17.377" y="9.614"><feFlood flood-opacity="0" result="BackgroundImageFix"/><feBlend in="SourceGraphic" in2="BackgroundImageFix" mode="normal" result="shape"/><feGaussianBlur result="effect1_foregroundBlur_4002_2529" stdDeviation=".05"/></filter><filter id="t" color-interpolation-filters="sRGB" filterUnits="userSpaceOnUse" height=".913" width=".891" x="18.217" y="9.689"><feFlood flood-opacity="0" result="BackgroundImageFix"/><feBlend in="SourceGraphic" in2="BackgroundImageFix" mode="normal" result="shape"/><feGaussianBlur result="effect1_foregroundBlur_4002_2529" stdDeviation=".1"/></filter><filter id="u" color-interpolation-filters="sRGB" filterUnits="userSpaceOnUse" height="1.04" width=".986" x="13.774" y="9.625"><feFlood flood-opacity="0" result="BackgroundImageFix"/><feBlend in="SourceGraphic" in2="BackgroundImageFix" mode="normal" result="shape"/><feGaussianBlur result="effect1_foregroundBlur_4002_2529" stdDeviation=".1"/></filter><filter id="v" color-interpolation-filters="sRGB" filterUnits="userSpaceOnUse" height=".704" width=".912" x="13.019" y="9.606"><feFlood flood-opacity="0" result="BackgroundImageFix"/><feBlend in="SourceGraphic" in2="BackgroundImageFix" mode="normal" result="shape"/><feGaussianBlur result="effect1_foregroundBlur_4002_2529" stdDeviation=".05"/></filter><filter id="w" color-interpolation-filters="sRGB" filterUnits="userSpaceOnUse" height="5.86" width="14.6" x="8.7" y="3.45"><feFlood flood-opacity="0" result="BackgroundImageFix"/><feBlend in="SourceGraphic" in2="BackgroundImageFix" mode="normal" result="shape"/><feColorMatrix in="SourceAlpha" result="hardAlpha" type="matrix" values="0 0 0 0 0 0 0 0 0 0 0 0 0 0 0 0 0 0 127 0"/><feOffset dy="-.05"/><feGaussianBlur stdDeviation=".05"/><feComposite in2="hardAlpha" k2="-1" k3="1" operator="arithmetic"/><feColorMatrix type="matrix" values="0 0 0 0 0.286275 0 0 0 0 0.215686 0 0 0 0 0.329412 0 0 0 1 0"/><feBlend in2="shape" mode="normal" result="effect1_innerShadow_4002_2529"/><feColorMatrix in="SourceAlpha" result="hardAlpha" type="matrix" values="0 0 0 0 0 0 0 0 0 0 0 0 0 0 0 0 0 0 127 0"/><feOffset dy=".05"/><feGaussianBlur stdDeviation=".05"/><feComposite in2="hardAlpha" k2="-1" k3="1" operator="arithmetic"/><feColorMatrix type="matrix" values="0 0 0 0 0.247059 0 0 0 0 0.219608 0 0 0 0 0.27451 0 0 0 1 0"/><feBlend in2="effect1_innerShadow_4002_2529" mode="normal" result="effect2_innerShadow_4002_2529"/></filter><filter id="x" color-interpolation-filters="sRGB" filterUnits="userSpaceOnUse" height=".781" width="3.344" x="17.797" y="14.693"><feFlood flood-opacity="0" result="BackgroundImageFix"/><feBlend in="SourceGraphic" in2="BackgroundImageFix" mode="normal" result="shape"/><feGaussianBlur result="effect1_foregroundBlur_4002_2529" stdDeviation=".125"/></filter><filter id="y" color-interpolation-filters="sRGB" filterUnits="userSpaceOnUse" height="4.857" width="6.686" x="16.38" y="13.71"><feFlood flood-opacity="0" result="BackgroundImageFix"/><feBlend in="SourceGraphic" in2="BackgroundImageFix" mode="normal" result="shape"/><feColorMatrix in="SourceAlpha" result="hardAlpha" type="matrix" values="0 0 0 0 0 0 0 0 0 0 0 0 0 0 0 0 0 0 127 0"/><feOffset dx=".05" dy=".05"/><feGaussianBlur stdDeviation=".2"/><feComposite in2="hardAlpha" k2="-1" k3="1" operator="arithmetic"/><feColorMatrix type="matrix" values="0 0 0 0 0.533333 0 0 0 0 0.486275 0 0 0 0 0.498039 0 0 0 1 0"/><feBlend in2="shape" mode="normal" result="effect1_innerShadow_4002_2529"/></filter><linearGradient id="z" gradientUnits="userSpaceOnUse" x1="10.179" x2="21.429" y1="30.516" y2="30.516"><stop offset=".006" stop-color="#dbcfea"/><stop offset="1" stop-color="#e7d8f7"/></linearGradient><linearGradient id="A" gradientUnits="userSpaceOnUse" x1="8.688" x2="10.844" y1="26.123" y2="26.154"><stop offset="0" stop-color="#baa7d0"/><stop offset=".231" stop-color="#d3cade"/><stop offset="1" stop-color="#d3cade" stop-opacity="0"/></linearGradient><radialGradient id="B" cx="0" cy="0" gradientTransform="matrix(0 5.67857 -3.21429 0 22.9286 24.6944)" gradientUnits="userSpaceOnUse" r="1"><stop offset="0" stop-color="#f7efff"/><stop offset="1" stop-color="#f7efff" stop-opacity="0"/></radialGradient><radialGradient id="C" cx="0" cy="0" gradientTransform="matrix(-7.90626383 2.71540105 -1.39838329 -4.07158538 16.6875 18.47)" gradientUnits="userSpaceOnUse" r="1"><stop offset=".655" stop-color="#b096cb"/><stop offset="1" stop-color="#c2b2d7" stop-opacity="0"/></radialGradient><linearGradient id="D" gradientUnits="userSpaceOnUse" x1="16.594" x2="16.594" y1="30.529" y2="29.623"><stop offset="0" stop-color="#c9b4e0"/><stop offset="1" stop-color="#c9b4e0" stop-opacity="0"/></linearGradient><radialGradient id="E" cx="0" cy="0" gradientTransform="matrix(4.375 0 0 11.8756 21.8438 29.4667)" gradientUnits="userSpaceOnUse" r="1"><stop offset=".336" stop-color="#f6edff" stop-opacity="0"/><stop offset="1" stop-color="#fdfaff"/></radialGradient><linearGradient id="F" gradientUnits="userSpaceOnUse" x1="22.797" x2="23.438" y1="26.607" y2="26.592"><stop offset=".127" stop-color="#c8b9da"/><stop offset="1" stop-color="#c8b9da" stop-opacity="0"/></linearGradient><linearGradient id="G" gradientUnits="userSpaceOnUse" x1="27" x2="26.281" y1="29.99" y2="29.99"><stop offset="0" stop-color="#e8e4ef"/><stop offset="1" stop-color="#e8e4ef" stop-opacity="0"/></linearGradient><radialGradient id="H" cx="0" cy="0" gradientTransform="matrix(0 8.53821 -7.17442 0 25 21.8065)" gradientUnits="userSpaceOnUse" r="1"><stop offset=".798" stop-color="#ded6eb" stop-opacity="0"/><stop offset="1" stop-color="#d8c5ec"/></radialGradient><radialGradient id="I" cx="0" cy="0" gradientTransform="matrix(-4.26999 0 0 -10.4063 9.01998 28.998)" gradientUnits="userSpaceOnUse" r="1"><stop offset=".502" stop-color="#c4c1c5" stop-opacity="0"/><stop offset="1" stop-color="#c4c1c5"/></radialGradient><linearGradient id="J" gradientUnits="userSpaceOnUse" x1="9.07" x2="8.695" y1="29.99" y2="29.99"><stop offset="0" stop-color="#bbb7c0"/><stop offset="1" stop-color="#c1b1d5" stop-opacity="0"/></linearGradient><radialGradient id="K" cx="0" cy="0" gradientTransform="matrix(0 -1.15625 3.70797 0 7.625 30.3418)" gradientUnits="userSpaceOnUse" r="1"><stop offset="0" stop-color="#c9b5de"/><stop offset="1" stop-color="#c9b5de" stop-opacity="0"/></radialGradient><linearGradient id="L" gradientUnits="userSpaceOnUse" x1="20.5" x2="11.49" y1="29.685" y2="29.685"><stop offset="0" stop-color="#cdc0da"/><stop offset="1" stop-color="#beb1cc"/></linearGradient><radialGradient id="M" cx="0" cy="0" gradientTransform="matrix(1.26562423 1.73437653 -1.73437653 1.26562423 13.5312 23.2166)" gradientUnits="userSpaceOnUse" r="1"><stop offset=".403" stop-color="#3d8ee2"/><stop offset="1" stop-color="#3e7cd9"/></radialGradient><linearGradient id="N" gradientUnits="userSpaceOnUse" x1="17.344" x2="18.766" y1="24.764" y2="23.357"><stop offset="0" stop-color="#ee3880"/><stop offset="1" stop-color="#f13c6a"/></linearGradient><linearGradient id="O" gradientUnits="userSpaceOnUse" x1="18.875" x2="17.383" y1="23.271" y2="24.693"><stop offset="0" stop-color="#fb4f70"/><stop offset=".531" stop-color="#f34b6c" stop-opacity="0"/></linearGradient><linearGradient id="P" gradientUnits="userSpaceOnUse" x1="14.875" x2="13.383" y1="23.271" y2="24.693"><stop offset="0" stop-color="#4d90df"/><stop offset=".531" stop-color="#4d90df" stop-opacity="0"/></linearGradient><radialGradient id="Q" cx="0" cy="0" gradientTransform="matrix(-1.9375 0 0 -4.97705 7.1875 27.8499)" gradientUnits="userSpaceOnUse" r="1"><stop offset=".274" stop-color="#3776c0"/><stop offset="1" stop-color="#648cbc"/></radialGradient><linearGradient id="R" gradientUnits="userSpaceOnUse" x1="21.612" x2="8.017" y1="19.604" y2="19.604"><stop offset="0" stop-color="#f0e4fc"/><stop offset="1" stop-color="#d8d0e0"/></linearGradient><radialGradient id="S" cx="0" cy="0" gradientTransform="matrix(-4.4221283 -.79176278 .29382172 -1.64104375 12.6327 18.0977)" gradientUnits="userSpaceOnUse" r="1"><stop offset=".5" stop-color="#a59eac"/><stop offset="1" stop-color="#b3b2b5" stop-opacity="0"/></radialGradient><radialGradient id="T" cx="0" cy="0" gradientTransform="matrix(-5.61228536 2.22988294 -.54256343 -1.36555186 22.9278 18.8301)" gradientUnits="userSpaceOnUse" r="1"><stop offset="0" stop-color="#fffeff"/><stop offset="1" stop-color="#fffeff" stop-opacity="0"/></radialGradient><radialGradient id="U" cx="0" cy="0" gradientTransform="matrix(0 4.09385 -11.9992 0 16 18.1363)" gradientUnits="userSpaceOnUse" r="1"><stop offset=".613" stop-color="#c9a7ef" stop-opacity="0"/><stop offset=".943" stop-color="#c9a7ef"/></radialGradient><radialGradient id="V" cx="0" cy="0" gradientTransform="matrix(0 1.01366 -3.3941 0 16 19.2762)" gradientUnits="userSpaceOnUse" r="1"><stop offset="0" stop-color="#d7d2dd"/><stop offset="1" stop-color="#d7d2dd" stop-opacity="0"/></radialGradient><linearGradient id="W" gradientUnits="userSpaceOnUse" x1="8.296" x2="8.296" y1="8.928" y2="12.498"><stop offset="0" stop-color="#919092"/><stop offset="1" stop-color="#938b9c"/></linearGradient><linearGradient id="X" gradientUnits="userSpaceOnUse" x1="7.125" x2="7.125" y1="13.912" y2="13.185"><stop offset="0" stop-color="#88828e"/><stop offset="1" stop-color="#88828e" stop-opacity="0"/></linearGradient><radialGradient id="Y" cx="0" cy="0" gradientTransform="matrix(.617737 0 0 2.761 6.09314 11.9043)" gradientUnits="userSpaceOnUse" r="1"><stop offset="0" stop-color="#ada9b1"/><stop offset="1" stop-color="#ada9b1" stop-opacity="0"/></radialGradient><linearGradient id="Z" gradientUnits="userSpaceOnUse" x1="25.191" x2="25.191" y1="8.928" y2="14.062"><stop offset="0" stop-color="#c0bfc0"/><stop offset=".743" stop-color="#afa9b7"/><stop offset="1" stop-color="#8e8895"/></linearGradient><radialGradient id="aa" cx="0" cy="0" gradientTransform="matrix(.987541 0 0 2.55399 24.5834 10.6384)" gradientUnits="userSpaceOnUse" r="1"><stop offset="0" stop-color="#cdcad1"/><stop offset="1" stop-color="#cdcad1" stop-opacity="0"/></radialGradient><radialGradient id="ab" cx="0" cy="0" gradientTransform="matrix(0 2.9456 -.493771 0 25.622 10.2468)" gradientUnits="userSpaceOnUse" r="1"><stop offset="0" stop-color="#dcdade"/><stop offset="1" stop-color="#dcdade" stop-opacity="0"/></radialGradient><linearGradient id="ac" gradientUnits="userSpaceOnUse" x1="23.937" x2="8.094" y1="6.435" y2="15.717"><stop offset="0" stop-color="#d4d0d7"/><stop offset="1" stop-color="#a6a2ab"/></linearGradient><radialGradient id="ad" cx="0" cy="0" gradientTransform="matrix(2.83411173 8.83167279 -13.82423634 4.43624116 15.947 11.01)" gradientUnits="userSpaceOnUse" r="1"><stop offset=".922" stop-color="#9f98a6" stop-opacity="0"/><stop offset="1" stop-color="#9f98a6"/></radialGradient><radialGradient id="ae" cx="0" cy="0" gradientTransform="matrix(-3.87500413 -3.56250012 1.57331375 -1.7113255 11.8436 19.0917)" gradientUnits="userSpaceOnUse" r="1"><stop offset="0" stop-color="#a29ca9"/><stop offset="1" stop-color="#a29ca9" stop-opacity="0"/></radialGradient><linearGradient id="af" gradientUnits="userSpaceOnUse" x1="23.726" x2="8.301" y1="6.556" y2="15.592"><stop offset="0" stop-color="#bab4c1"/><stop offset="1" stop-color="#bdb7c4"/></linearGradient><radialGradient id="ag" cx="0" cy="0" gradientTransform="matrix(-6.81053896 10.13859097 -10.13859097 -6.81053896 18.1256 6.28327)" gradientUnits="userSpaceOnUse" r="1"><stop offset=".307" stop-color="#877f8d"/><stop offset="1" stop-color="#c8bebf"/></radialGradient><linearGradient id="ah" gradientUnits="userSpaceOnUse" x1="9.875" x2="23.344" y1="12.154" y2="12.154"><stop offset="0" stop-color="#5c4355"/><stop offset=".276" stop-color="#503645"/></linearGradient><radialGradient id="ai" cx="0" cy="0" gradientTransform="matrix(7.5156195 .70667681 -.70667774 7.51562945 16 11.01)" gradientUnits="userSpaceOnUse" r="1"><stop offset=".902" stop-color="#543b3e" stop-opacity="0"/><stop offset="1" stop-color="#543b3e"/></radialGradient><radialGradient id="aj" cx="0" cy="0" gradientTransform="matrix(0 4.94614 -5.2449 0 17.5038 11.8399)" gradientUnits="userSpaceOnUse" r="1"><stop offset=".34" stop-color="#ffca32"/><stop offset="1" stop-color="#db892b"/></radialGradient><radialGradient id="ak" cx="0" cy="0" gradientTransform="matrix(7.14804318 1.1436873 -2.09448078 13.09050034 13.6279 11.2045)" gradientUnits="userSpaceOnUse" r="1"><stop offset=".796" stop-color="#e4ae11" stop-opacity="0"/><stop offset="1" stop-color="#a77a09"/></radialGradient><radialGradient id="al" cx="0" cy="0" gradientTransform="matrix(0 -8.76827 8.72263 0 15.9292 15.2074)" gradientUnits="userSpaceOnUse" r="1"><stop offset=".804" stop-color="#ac671a" stop-opacity="0"/><stop offset="1" stop-color="#753e11"/></radialGradient><radialGradient id="am" cx="0" cy="0" gradientTransform="matrix(0 8.5625 -7.14966 0 15.9292 8.43745)" gradientUnits="userSpaceOnUse" r="1"><stop offset=".85" stop-color="#d27f2d" stop-opacity="0"/><stop offset=".984" stop-color="#973d4a"/></radialGradient><radialGradient id="an" cx="0" cy="0" gradientTransform="matrix(-2.25 0 0 -1.00984 19.3931 15.7968)" gradientUnits="userSpaceOnUse" r="1"><stop offset=".153" stop-color="#8a3436"/><stop offset="1" stop-color="#c16f2d" stop-opacity="0"/></radialGradient><linearGradient id="ao" gradientUnits="userSpaceOnUse" x1="15.331" x2="16.659" y1="12.234" y2="12.234"><stop offset="0" stop-color="#ffb725"/><stop offset="1" stop-color="#ffc822"/></linearGradient><radialGradient id="ap" cx="0" cy="0" gradientTransform="matrix(-.31249892 -2.07812527 .98090155 -.14750346 16.6118 12.0625)" gradientUnits="userSpaceOnUse" r="1"><stop offset=".462" stop-color="#ffd03e"/><stop offset="1" stop-color="#ffd03e" stop-opacity="0"/></radialGradient><linearGradient id="aq" gradientUnits="userSpaceOnUse" x1="15.2" x2="15.653" y1="14.423" y2="13.552"><stop offset="0" stop-color="#feac35"/><stop offset="1" stop-color="#feac35" stop-opacity="0"/></linearGradient><linearGradient id="ar"><stop offset=".802" stop-color="#724d44"/><stop offset="1" stop-color="#694b43"/><stop offset="1" stop-color="#804d49"/><stop offset="1" stop-color="#66453a"/></linearGradient><radialGradient id="as" cx="0" cy="0" gradientTransform="matrix(0 .811316 -1.29049 0 18.1113 10.0537)" gradientUnits="userSpaceOnUse" r="1" xlink:href="#ar"/><linearGradient id="at"><stop offset=".766" stop-color="#ffe6e2" stop-opacity="0"/><stop offset=".966" stop-color="#ffe6e2"/></linearGradient><radialGradient id="au" cx="0" cy="0" gradientTransform="matrix(-.23172977 -.29861505 .41112117 -.3190362 17.8825 10.1377)" gradientUnits="userSpaceOnUse" r="1" xlink:href="#at"/><linearGradient id="av"><stop offset="0" stop-color="#b4948d"/><stop offset="1" stop-color="#b4948d" stop-opacity="0"/></linearGradient><linearGradient id="aw" gradientUnits="userSpaceOnUse" x1="18.889" x2="18.575" xlink:href="#av" y1="10.107" y2="10.301"/><radialGradient id="ax" cx="0" cy="0" gradientTransform="matrix(0 .811321 -1.2905 0 13.747 10.0537)" gradientUnits="userSpaceOnUse" r="1" xlink:href="#ar"/><linearGradient id="ay" gradientUnits="userSpaceOnUse" x1="14.491" x2="14.177" xlink:href="#av" y1="10.107" y2="10.3"/><radialGradient id="az" cx="0" cy="0" gradientTransform="matrix(-.00772918 -.4936605 .59340027 -.0092908 13.4605 10.2726)" gradientUnits="userSpaceOnUse" r="1" xlink:href="#at"/><radialGradient id="aA" cx="0" cy="0" gradientTransform="matrix(0 4.50166 -9.15821 0 16 3.5)" gradientUnits="userSpaceOnUse" r="1"><stop offset=".09" stop-color="#848286"/><stop offset="1" stop-color="#655d6d"/></radialGradient><radialGradient id="aB" cx="0" cy="0" gradientTransform="matrix(1.03124892 -2.42187454 2.37699384 1.01213844 9.32809 9.0448)" gradientUnits="userSpaceOnUse" r="1"><stop offset="0" stop-color="#6c6176"/><stop offset="1" stop-color="#6c6176" stop-opacity="0"/></radialGradient><radialGradient id="aC" cx="0" cy="0" gradientTransform="matrix(-10.78128542 -6.74998406 5.64982156 -9.02407151 20.3437 12.8729)" gradientUnits="userSpaceOnUse" r="1"><stop offset=".911" stop-color="#493b54" stop-opacity="0"/><stop offset="1" stop-color="#493b54"/></radialGradient><linearGradient id="aD" gradientUnits="userSpaceOnUse" x1="23.3" x2="21.625" y1="9.404" y2="7.342"><stop offset="0" stop-color="#726080"/><stop offset="1" stop-color="#726080" stop-opacity="0"/></linearGradient><radialGradient id="aE" cx="0" cy="0" gradientTransform="matrix(3.07812 0 0 1.2594 18.1718 15.1603)" gradientUnits="userSpaceOnUse" r="1"><stop offset="0" stop-color="#736a6c"/><stop offset=".78" stop-color="#463d38"/></radialGradient><linearGradient id="aF" gradientUnits="userSpaceOnUse" x1="17.586" x2="17.961" y1="15.201" y2="15.201"><stop offset="0" stop-color="#7a6566"/><stop offset="1" stop-color="#7a6566" stop-opacity="0"/></linearGradient><linearGradient id="aG" gradientUnits="userSpaceOnUse" x1="19.234" x2="19.234" y1="15.764" y2="15.568"><stop offset="0" stop-color="#3d3438"/><stop offset="1" stop-color="#3d3438" stop-opacity="0"/></linearGradient><linearGradient id="aH" gradientUnits="userSpaceOnUse" x1="18.216" x2="20.402" y1="15.225" y2="15.225"><stop offset="0" stop-color="#797278"/><stop offset="1" stop-color="#5c595d"/></linearGradient><path d="m21.6 18.47h-11.21c-3.23001 1.92-5.40001 5.44-5.40001 9.47v2.05h22.02001v-2.05c0-4.03-2.17-7.55-5.41-9.47z" fill="url(#z)"/><path d="m21.6 18.47h-11.21c-3.23001 1.92-5.40001 5.44-5.40001 9.47v2.05h22.02001v-2.05c0-4.03-2.17-7.55-5.41-9.47z" fill="url(#A)"/><path d="m21.6 18.47h-11.21c-3.23001 1.92-5.40001 5.44-5.40001 9.47v2.05h22.02001v-2.05c0-4.03-2.17-7.55-5.41-9.47z" fill="url(#B)"/><path d="m21.6 18.47h-11.21c-3.23001 1.92-5.40001 5.44-5.40001 9.47v2.05h22.02001v-2.05c0-4.03-2.17-7.55-5.41-9.47z" fill="url(#C)"/><path d="m21.6 18.47h-11.21c-3.23001 1.92-5.40001 5.44-5.40001 9.47v2.05h22.02001v-2.05c0-4.03-2.17-7.55-5.41-9.47z" fill="url(#D)"/><path d="m23 19.45v10.54h4v-2.37c-.09-3.29-1.63-6.21-4-8.17z" fill="#ebdef9"/><path d="m23 19.45v10.54h4v-2.37c-.09-3.29-1.63-6.21-4-8.17z" fill="url(#E)"/><path d="m23 19.45v10.54h4v-2.37c-.09-3.29-1.63-6.21-4-8.17z" fill="url(#F)"/><path d="m23 19.45v10.54h4v-2.37c-.09-3.29-1.63-6.21-4-8.17z" fill="url(#G)"/><path d="m23 19.45v10.54h4v-2.37c-.09-3.29-1.63-6.21-4-8.17z" fill="url(#H)"/><path d="m9.00293 29.9901.01739-.01v-10.5487c-2.45886 2.0191-4.03033 5.0792-4.03033 8.5087v2.05z" fill="#d9cde8"/><path d="m9.00293 29.9901.01739-.01v-10.5487c-2.45886 2.0191-4.03033 5.0792-4.03033 8.5087v2.05z" fill="url(#I)"/><path d="m9.00293 29.9901.01739-.01v-10.5487c-2.45886 2.0191-4.03033 5.0792-4.03033 8.5087v2.05z" fill="url(#J)"/><path d="m9.00293 29.9901.01739-.01v-10.5487c-2.45886 2.0191-4.03033 5.0792-4.03033 8.5087v2.05z" fill="url(#K)"/><g filter="url(#a)"><path d="m19.68 25.98h-7.37c-.45 0-.82.37-.82.82v3.2h9.01v-3.2c0-.46-.36-.82-.82-.82z" fill="url(#L)"/></g><g filter="url(#b)"><path d="m13.8149 25.235c.5854 0 1.06-.4746 1.06-1.06s-.4746-1.06-1.06-1.06-1.06.4746-1.06 1.06.4746 1.06 1.06 1.06z" fill="#d6bcdb"/></g><g filter="url(#c)"><path d="m17.8847 25.235c.5854 0 1.06-.4746 1.06-1.06s-.4746-1.06-1.06-1.06-1.06.4746-1.06 1.06.4746 1.06 1.06 1.06z" fill="#d1b8d6"/></g><g filter="url(#d)"><path d="m13.9999 25.0499c.5855 0 1.06-.4745 1.06-1.06 0-.5854-.4745-1.06-1.06-1.06-.5854 0-1.06.4746-1.06 1.06 0 .5855.4746 1.06 1.06 1.06z" fill="url(#M)"/></g><g filter="url(#e)"><path d="m17.9999 25.0499c.5855 0 1.06-.4745 1.06-1.06 0-.5854-.4745-1.06-1.06-1.06-.5854 0-1.06.4746-1.06 1.06 0 .5855.4746 1.06 1.06 1.06z" fill="url(#N)"/></g><g filter="url(#f)"><path d="m18 24.865c.4832 0 .875-.3918.875-.875 0-.4833-.3918-.875-.875-.875-.4833 0-.875.3917-.875.875 0 .4832.3917.875.875.875z" stroke="url(#O)" stroke-width=".1"/></g><g filter="url(#g)"><path d="m14 24.865c.4832 0 .875-.3918.875-.875 0-.4833-.3918-.875-.875-.875-.4833 0-.875.3917-.875.875 0 .4832.3917.875.875.875z" stroke="url(#P)" stroke-width=".1"/></g><path d="m7.36 28.66v-1.62c0-.19-.15-.34-.34-.34h-1.96c-.03.26-.05.53-.06.8l.01 1.5h2.02c.18 0 .33-.15.33-.34z" fill="url(#Q)"/><g filter="url(#h)"><path d="m23.1797 18.3965c0 1.4627-2.7813 3.5156-7.1797 3.5156-4.4688-.0469-7.17969-2.0529-7.17969-3.5156s3.21449-2.6485 7.17969-2.6485 7.1797 1.1858 7.1797 2.6485z" fill="url(#R)"/><path d="m23.1797 18.3965c0 1.4627-2.7813 3.5156-7.1797 3.5156-4.4688-.0469-7.17969-2.0529-7.17969-3.5156s3.21449-2.6485 7.17969-2.6485 7.1797 1.1858 7.1797 2.6485z" fill="url(#S)"/><path d="m23.1797 18.3965c0 1.4627-2.7813 3.5156-7.1797 3.5156-4.4688-.0469-7.17969-2.0529-7.17969-3.5156s3.21449-2.6485 7.17969-2.6485 7.1797 1.1858 7.1797 2.6485z" fill="url(#T)"/></g><path d="m23.1797 18.3965c0 1.4627-2.7813 3.5156-7.1797 3.5156-4.4688-.0469-7.17969-2.0529-7.17969-3.5156s3.21449-2.6485 7.17969-2.6485 7.1797 1.1858 7.1797 2.6485z" fill="url(#U)"/><path d="m23.1797 18.3965c0 1.4627-2.7813 3.5156-7.1797 3.5156-4.4688-.0469-7.17969-2.0529-7.17969-3.5156s3.21449-2.6485 7.17969-2.6485 7.1797 1.1858 7.1797 2.6485z" fill="url(#V)"/><rect fill="url(#W)" height="4.984" rx=".75" width="4.406" x="6.093" y="8.928"/><rect fill="url(#X)" height="4.984" rx=".75" width="4.406" x="6.093" y="8.928"/><rect fill="url(#Y)" height="4.984" rx=".75" width="4.406" x="6.093" y="8.928"/><rect fill="url(#Z)" height="4.984" rx=".75" width="4.406" x="21.499" y="8.928"/><rect fill="url(#aa)" height="4.984" rx=".75" width="4.406" x="21.499" y="8.928"/><rect fill="url(#ab)" height="4.984" rx=".75" width="4.406" x="21.499" y="8.928"/><path d="m15.947 2c-4.98 0-9.00999 4.03-9.00999 9.01s4.02999 9.01 9.00999 9.01 9.01-4.03 9.01-9.01-4.04-9.01-9.01-9.01z" fill="url(#ac)"/><path d="m15.947 2c-4.98 0-9.00999 4.03-9.00999 9.01s4.02999 9.01 9.00999 9.01 9.01-4.03 9.01-9.01-4.04-9.01-9.01-9.01z" fill="url(#ad)"/><path d="m15.947 2c-4.98 0-9.00999 4.03-9.00999 9.01s4.02999 9.01 9.00999 9.01 9.01-4.03 9.01-9.01-4.04-9.01-9.01-9.01z" fill="url(#ae)"/><g filter="url(#i)"><path d="m15.947 2.23828c-4.8482 0-8.77158 3.92338-8.77158 8.77162 0 4.8482 3.92338 8.7716 8.77158 8.7716 4.8483 0 8.7716-3.9234 8.7716-8.7716 0-4.84824-3.9331-8.77162-8.7716-8.77162z" fill="url(#af)"/></g><g filter="url(#j)"><path d="m15.9471 3.23242c-4.2989 0-7.77767 3.47882-7.77767 7.77768 0 4.2989 3.47877 7.7777 7.77767 7.7777s7.7777-3.4788 7.7777-7.7777c0-4.29886-3.4874-7.77768-7.7777-7.77768z" fill="url(#ag)"/></g><path d="m16 18.5256c4.1508 0 7.5156-3.3648 7.5156-7.5156 0-4.15075-3.3648-7.51562-7.5156-7.51562s-7.51562 3.36487-7.51562 7.51562c0 4.1508 3.36482 7.5156 7.51562 7.5156z" fill="url(#ah)"/><path d="m16 18.5256c4.1508 0 7.5156-3.3648 7.5156-7.5156 0-4.15075-3.3648-7.51562-7.5156-7.51562s-7.51562 3.36487-7.51562 7.51562c0 4.1508 3.36482 7.5156 7.51562 7.5156z" fill="url(#ai)"/><g filter="url(#k)"><path d="m10.8433 14.0541c.2915 2.1173 2.1745 3.6937 4.4037 3.6937h2.1381c2.2292 0 4.1121-1.5764 4.4037-3.6937.1337-2.0429.2682-4.07763.3674-6.11946-.0121-.83183-.6973-1.51822-1.5629-1.55312h-1.5868c-1.082 0-2.0618-.61078-2.5066-1.56476-.1142-.2734-.3907-.45372-.6972-.45372h-1.4426c-2.0918 0-3.7869 1.64037-3.7869 3.66467 0 2.01799.1318 4.00329.2701 6.02639z" fill="#351c24"/></g><g filter="url(#l)"><path d="m10.842 9.55335h.0123l-.0103-.26527-.0103-2.14726c.0753-3.4803 10.0722-3.35962 10.1909.04663l-.1187 4.91425c-.1233 2.8025-2.3118 4.6843-4.9832 4.6843-2.6715 0-4.86-1.8818-4.9833-4.6843z" fill="url(#aj)"/><path d="m10.842 9.55335h.0123l-.0103-.26527-.0103-2.14726c.0753-3.4803 10.0722-3.35962 10.1909.04663l-.1187 4.91425c-.1233 2.8025-2.3118 4.6843-4.9832 4.6843-2.6715 0-4.86-1.8818-4.9833-4.6843z" fill="url(#ak)"/><path d="m10.842 9.55335h.0123l-.0103-.26527-.0103-2.14726c.0753-3.4803 10.0722-3.35962 10.1909.04663l-.1187 4.91425c-.1233 2.8025-2.3118 4.6843-4.9832 4.6843-2.6715 0-4.86-1.8818-4.9833-4.6843z" fill="url(#al)"/></g><path d="m10.842 9.55335h.0123l-.0103-.26527-.0103-2.14726c.0753-3.4803 10.0722-3.35962 10.1909.04663l-.1187 4.91425c-.1233 2.8025-2.3118 4.6843-4.9832 4.6843-2.6715 0-4.86-1.8818-4.9833-4.6843z" fill="url(#am)"/><path d="m10.842 9.55335h.0123l-.0103-.26527-.0103-2.14726c.0753-3.4803 10.0722-3.35962 10.1909.04663l-.1187 4.91425c-.1233 2.8025-2.3118 4.6843-4.9832 4.6843-2.6715 0-4.86-1.8818-4.9833-4.6843z" fill="url(#an)"/><g filter="url(#m)"><path d="m15.5365 10.5935-.6835 1.7c-.1085.3497.1518.6993.5206.6993h.7863c.3688 0 .6291-.355.5207-.6993l-.5315-1.7c-.1139-.3766-.4933-.3766-.6126 0z" fill="#eb8b29"/></g><g filter="url(#n)"><path d="m15.5468 10.455-.5315 1.7c-.1085.3497.1519.6994.5206.6994h.7864c.3688 0 .6291-.355.5206-.6994l-.5315-1.7c-.1138-.3765-.6453-.3765-.7646 0z" fill="url(#ao)"/><path d="m15.5468 10.455-.5315 1.7c-.1085.3497.1519.6994.5206.6994h.7864c.3688 0 .6291-.355.5206-.6994l-.5315-1.7c-.1138-.3765-.6453-.3765-.7646 0z" fill="url(#ap)"/></g><path d="m14.5311 13.339-.0005-.0002c-.093-.0484-.1898-.0181-.2471.0436-.0574.0618-.0797.1602-.0207.2476.3524.5461.9666.9104 1.6664.9104.6999 0 1.3142-.3645 1.6666-.9107.0582-.0893.0371-.1876-.0212-.2495-.0578-.0614-.1546-.0895-.2469-.0414l-.0005.0002c-.4039.2154-.8801.3388-1.398.3388-.5128 0-.9942-.1234-1.3981-.3388z" fill="#8a004f" stroke="url(#aq)" stroke-width=".1"/><g filter="url(#o)"><path d="m17.0713 10.0816c.2654-.46679.6689-.83551 1.5373-.83551.3803 0 .7469.10535 1.0729.36872.2688.21724.2328.49519.0246.59929l-.556.3174c-.6519-.2107-1.3727-.2392-2.0788-.4499z" fill="#635d5f"/></g><g filter="url(#p)"><path d="m14.7872 10.0816c-.2654-.46679-.6689-.83551-1.5373-.83551-.3803 0-.7469.10535-1.0728.36872-.2689.21724-.2329.49519-.0247.59929l.5561.3174c.6518-.2107 1.3726-.2392 2.0787-.4499z" fill="#635d5f"/></g><g filter="url(#q)"><path d="m12.5047 8.74725-.0044.00253c-.0002.00008-.0003.00016-.0004.00023-.127.07578-.2915.03461-.3676-.09222-.0762-.127-.0348-.29183.0922-.36803l.0005-.00034.0011-.00062.0029-.00174.0094-.00544c.0079-.00447.0187-.01057.0325-.01802.0275-.0149.0666-.03526.116-.05878.0985-.04697.239-.10711.4101-.16174.3399-.10847.8152-.19973 1.3283-.10918.1458.02574.2432.16485.2175.3107-.0258.14586-.1649.24324-.3108.2175-.3987-.07037-.7816-.00071-1.0719.09195-.144.04594-.2616.09643-.3425.13494-.0403.01921-.0711.03532-.0912.04619-.01.00543-.0173.00954-.0217.01207z" fill="#8f383f"/></g><g filter="url(#r)"><path clip-rule="evenodd" d="m19.6338 8.28976c0 .00005.0001.00009-.1379.23006l.1379-.23006c.127.0762.1683.24103.0921.36803-.0761.12684-.2405.16808-.3674.0923-.0001-.00005-.0003-.00014-.0005-.00028l-.0044-.00256c-.0044-.00253-.0118-.00664-.0218-.01207-.02-.01087-.0509-.02698-.0912-.04619-.0808-.03851-.1985-.089-.3424-.13494-.2904-.09266-.6733-.16232-1.072-.09195-.1459.02574-.285-.07164-.3107-.2175-.0258-.14585.0716-.28496.2175-.3107.5131-.09055.9883.00071 1.3282.10918.1712.05463.3116.11477.4102.16174.0493.02352.0885.04388.1159.05878.0138.00745.0247.01355.0325.01802l.0094.00544.003.00174.001.00062z" fill="#8f373f" fill-rule="evenodd"/></g><path d="m18.3202 9.30493c.6531 0 1.2048.45028 1.3549 1.05877.0446.1744-.0892.3408-.2677.3408h-2.2311c-.142 0-.2556-.1299-.2272-.2718.1257-.64098.6896-1.12777 1.3711-1.12777z" fill="#fff"/><path d="m18.1133 9.57666c.4949 0 .8924.4016.8924.89244 0 .0811-.0121.1623-.0324.2353h-1.7241c-.0202-.0771-.0324-.1542-.0324-.2353 0-.49084.4016-.89244.8965-.89244z" fill="url(#as)"/><path d="m17.6021 10.4691c0-.2839.2271-.51109.5111-.51109.2839 0 .5111.22719.5111.51109 0 .0852-.0203.1664-.0568.2353h-.9046c-.0406-.0689-.0608-.1501-.0608-.2353z" fill="#000"/><g filter="url(#s)"><path d="m18.047 9.76555c.0635.08497-.0693.18856-.2203.30145-.151.1129-.263.1923-.3265.1074-.0636-.085.0073-.24541.1583-.3583s.3249-.13553.3885-.05055z" fill="#c7a7a3"/><path d="m18.047 9.76555c.0635.08497-.0693.18856-.2203.30145-.151.1129-.263.1923-.3265.1074-.0636-.085.0073-.24541.1583-.3583s.3249-.13553.3885-.05055z" fill="url(#au)"/></g><g filter="url(#t)"><path d="m18.9078 10.3512c-.0329-.2305-.1678-.40423-.2311-.46228l-.2597.28498.1172.228z" fill="url(#aw)"/></g><path d="m13.5381 9.30493c-.6531 0-1.2048.45028-1.3549 1.05877-.0446.1744.0893.3408.2677.3408h2.2312c.142 0 .2555-.1299.2271-.2718-.1257-.64098-.6936-1.12777-1.3711-1.12777z" fill="#fff"/><path d="m13.745 9.57666c-.4949 0-.8925.4016-.8925.89244 0 .0811.0122.1623.0325.2353h1.724c.0203-.0771.0325-.1542.0325-.2353-.0041-.49084-.4016-.89244-.8965-.89244z" fill="url(#ax)"/><path d="m14.2562 10.4691c0-.2839-.2272-.51109-.5112-.51109-.2839 0-.5111.22719-.5111.51109 0 .0852.0203.1664.0568.2353h.9046c.0365-.0689.0609-.1501.0609-.2353z" fill="#000"/><g filter="url(#u)"><path d="m14.56 10.3638c0-.2882-.2344-.48031-.2977-.53836l-.2882.27866.1774.361z" fill="url(#ay)"/></g><g filter="url(#v)"><ellipse cx="13.476" cy="9.958" fill="#c7a7a3" fill-opacity=".9" rx=".389" ry=".197" transform="matrix(.88365127 -.46814574 .46814574 .88365127 -3.093896 7.467088)"/><ellipse cx="13.476" cy="9.958" fill="url(#az)" rx=".389" ry=".197" transform="matrix(.88365127 -.46814574 .46814574 .88365127 -3.093896 7.467088)"/></g><g filter="url(#w)"><path d="m16 6.8c2.75 0 5.28.92 7.3 2.46-.79-3.3-3.76-5.76-7.3-5.76s-6.51005 2.46-7.30005 5.76c2.02005-1.54 4.55005-2.46 7.30005-2.46z" fill="url(#aA)"/><path d="m16 6.8c2.75 0 5.28.92 7.3 2.46-.79-3.3-3.76-5.76-7.3-5.76s-6.51005 2.46-7.30005 5.76c2.02005-1.54 4.55005-2.46 7.30005-2.46z" fill="url(#aB)"/><path d="m16 6.8c2.75 0 5.28.92 7.3 2.46-.79-3.3-3.76-5.76-7.3-5.76s-6.51005 2.46-7.30005 5.76c2.02005-1.54 4.55005-2.46 7.30005-2.46z" fill="url(#aC)"/><path d="m16 6.8c2.75 0 5.28.92 7.3 2.46-.79-3.3-3.76-5.76-7.3-5.76s-6.51005 2.46-7.30005 5.76c2.02005-1.54 4.55005-2.46 7.30005-2.46z" fill="url(#aD)"/></g><path d="m18.0199 15.6599h2.97c.28 0 .5-.22.5-.5s-.22-.5-.5-.5h-2.97c-.28 0-.5.22-.5.5s.23.5.5.5z" fill="url(#aE)"/><path d="m18.0199 15.6599h2.97c.28 0 .5-.22.5-.5s-.22-.5-.5-.5h-2.97c-.28 0-.5.22-.5.5s.23.5.5.5z" fill="url(#aF)"/><path d="m18.0199 15.6599h2.97c.28 0 .5-.22.5-.5s-.22-.5-.5-.5h-2.97c-.28 0-.5.22-.5.5s.23.5.5.5z" fill="url(#aG)"/><g filter="url(#x)"><rect fill="url(#aH)" height=".281" rx=".141" width="2.844" x="18.047" y="14.943"/></g><g filter="url(#y)"><path d="m23.0159 13.7101h-.956c-.4-.01-.78.19-1 .53-.87 1.36-2.28 2.35-3.92 2.67-.44.08-.76.46-.76.91v.6962c3.0341-.1511 5.5945-2.1016 6.636-4.8062z" fill="#b9b2bf"/></g></svg>