<svg fill="none" height="32" viewBox="0 0 32 32" width="32" xmlns="http://www.w3.org/2000/svg" xmlns:xlink="http://www.w3.org/1999/xlink"><filter id="a" color-interpolation-filters="sRGB" filterUnits="userSpaceOnUse" height="6.928" width="7.179" x="11.638" y="10.879"><feFlood flood-opacity="0" result="BackgroundImageFix"/><feBlend in="SourceGraphic" in2="BackgroundImageFix" mode="normal" result="shape"/><feColorMatrix in="SourceAlpha" result="hardAlpha" type="matrix" values="0 0 0 0 0 0 0 0 0 0 0 0 0 0 0 0 0 0 127 0"/><feOffset dx="-.5" dy="-.75"/><feGaussianBlur stdDeviation=".5"/><feComposite in2="hardAlpha" k2="-1" k3="1" operator="arithmetic"/><feColorMatrix type="matrix" values="0 0 0 0 0.721569 0 0 0 0 0.431373 0 0 0 0 0.439216 0 0 0 1 0"/><feBlend in2="shape" mode="normal" result="effect1_innerShadow_4002_326"/></filter><filter id="b" color-interpolation-filters="sRGB" filterUnits="userSpaceOnUse" height="2.722" width="2.607" x="12.338" y="15.151"><feFlood flood-opacity="0" result="BackgroundImageFix"/><feBlend in="SourceGraphic" in2="BackgroundImageFix" mode="normal" result="shape"/><feGaussianBlur result="effect1_foregroundBlur_4002_326" stdDeviation=".05"/></filter><filter id="c" color-interpolation-filters="sRGB" filterUnits="userSpaceOnUse" height="11.795" width="8.673" x="4.189" y="17.483"><feFlood flood-opacity="0" result="BackgroundImageFix"/><feBlend in="SourceGraphic" in2="BackgroundImageFix" mode="normal" result="shape"/><feColorMatrix in="SourceAlpha" result="hardAlpha" type="matrix" values="0 0 0 0 0 0 0 0 0 0 0 0 0 0 0 0 0 0 127 0"/><feOffset dy="-.2"/><feGaussianBlur stdDeviation=".2"/><feComposite in2="hardAlpha" k2="-1" k3="1" operator="arithmetic"/><feColorMatrix type="matrix" values="0 0 0 0 0.741176 0 0 0 0 0.647059 0 0 0 0 0.811765 0 0 0 1 0"/><feBlend in2="shape" mode="normal" result="effect1_innerShadow_4002_326"/></filter><filter id="d" color-interpolation-filters="sRGB" filterUnits="userSpaceOnUse" height="1.68" width="1.68" x="3.623" y="28.227"><feFlood flood-opacity="0" result="BackgroundImageFix"/><feBlend in="SourceGraphic" in2="BackgroundImageFix" mode="normal" result="shape"/><feColorMatrix in="SourceAlpha" result="hardAlpha" type="matrix" values="0 0 0 0 0 0 0 0 0 0 0 0 0 0 0 0 0 0 127 0"/><feOffset/><feGaussianBlur stdDeviation=".1"/><feComposite in2="hardAlpha" k2="-1" k3="1" operator="arithmetic"/><feColorMatrix type="matrix" values="0 0 0 0 0.835294 0 0 0 0 0.819608 0 0 0 0 0.835294 0 0 0 1 0"/><feBlend in2="shape" mode="normal" result="effect1_innerShadow_4002_326"/></filter><filter id="e" color-interpolation-filters="sRGB" filterUnits="userSpaceOnUse" height="3.079" width="2.726" x="11.544" y="15.918"><feFlood flood-opacity="0" result="BackgroundImageFix"/><feBlend in="SourceGraphic" in2="BackgroundImageFix" mode="normal" result="shape"/><feColorMatrix in="SourceAlpha" result="hardAlpha" type="matrix" values="0 0 0 0 0 0 0 0 0 0 0 0 0 0 0 0 0 0 127 0"/><feOffset/><feGaussianBlur stdDeviation=".25"/><feComposite in2="hardAlpha" k2="-1" k3="1" operator="arithmetic"/><feColorMatrix type="matrix" values="0 0 0 0 0.211765 0 0 0 0 0.133333 0 0 0 0 0.27451 0 0 0 1 0"/><feBlend in2="shape" mode="normal" result="effect1_innerShadow_4002_326"/></filter><filter id="f" color-interpolation-filters="sRGB" filterUnits="userSpaceOnUse" height="1.661" width="1.093" x="12.039" y="15.543"><feFlood flood-opacity="0" result="BackgroundImageFix"/><feBlend in="SourceGraphic" in2="BackgroundImageFix" mode="normal" result="shape"/><feColorMatrix in="SourceAlpha" result="hardAlpha" type="matrix" values="0 0 0 0 0 0 0 0 0 0 0 0 0 0 0 0 0 0 127 0"/><feOffset dx="-.15"/><feGaussianBlur stdDeviation=".25"/><feComposite in2="hardAlpha" k2="-1" k3="1" operator="arithmetic"/><feColorMatrix type="matrix" values="0 0 0 0 0.803922 0 0 0 0 0.588235 0 0 0 0 0.482353 0 0 0 1 0"/><feBlend in2="shape" mode="normal" result="effect1_innerShadow_4002_326"/></filter><filter id="g" color-interpolation-filters="sRGB" filterUnits="userSpaceOnUse" height="5.249" width="4.443" x="15.627" y="3.363"><feFlood flood-opacity="0" result="BackgroundImageFix"/><feBlend in="SourceGraphic" in2="BackgroundImageFix" mode="normal" result="shape"/><feColorMatrix in="SourceAlpha" result="hardAlpha" type="matrix" values="0 0 0 0 0 0 0 0 0 0 0 0 0 0 0 0 0 0 127 0"/><feOffset dx="-.2" dy="-.2"/><feGaussianBlur stdDeviation=".5"/><feComposite in2="hardAlpha" k2="-1" k3="1" operator="arithmetic"/><feColorMatrix type="matrix" values="0 0 0 0 0.847059 0 0 0 0 0.521569 0 0 0 0 0.447059 0 0 0 1 0"/><feBlend in2="shape" mode="normal" result="effect1_innerShadow_4002_326"/></filter><filter id="h" color-interpolation-filters="sRGB" filterUnits="userSpaceOnUse" height="7.403" width="6.813" x="15.265" y="1.701"><feFlood flood-opacity="0" result="BackgroundImageFix"/><feBlend in="SourceGraphic" in2="BackgroundImageFix" mode="normal" result="shape"/><feColorMatrix in="SourceAlpha" result="hardAlpha" type="matrix" values="0 0 0 0 0 0 0 0 0 0 0 0 0 0 0 0 0 0 127 0"/><feOffset dx="-.4" dy=".4"/><feGaussianBlur stdDeviation=".3"/><feComposite in2="hardAlpha" k2="-1" k3="1" operator="arithmetic"/><feColorMatrix type="matrix" values="0 0 0 0 1 0 0 0 0 0.972549 0 0 0 0 0.737255 0 0 0 1 0"/><feBlend in2="shape" mode="normal" result="effect1_innerShadow_4002_326"/><feColorMatrix in="SourceAlpha" result="hardAlpha" type="matrix" values="0 0 0 0 0 0 0 0 0 0 0 0 0 0 0 0 0 0 127 0"/><feOffset dy="-.2"/><feGaussianBlur stdDeviation=".25"/><feComposite in2="hardAlpha" k2="-1" k3="1" operator="arithmetic"/><feColorMatrix type="matrix" values="0 0 0 0 0.956863 0 0 0 0 0.788235 0 0 0 0 0.631373 0 0 0 1 0"/><feBlend in2="effect1_innerShadow_4002_326" mode="normal" result="effect2_innerShadow_4002_326"/></filter><filter id="i" color-interpolation-filters="sRGB" filterUnits="userSpaceOnUse" height="14.771" width="8.674" x="20.35" y="15.476"><feFlood flood-opacity="0" result="BackgroundImageFix"/><feBlend in="SourceGraphic" in2="BackgroundImageFix" mode="normal" result="shape"/><feColorMatrix in="SourceAlpha" result="hardAlpha" type="matrix" values="0 0 0 0 0 0 0 0 0 0 0 0 0 0 0 0 0 0 127 0"/><feOffset dx=".75" dy="-.75"/><feGaussianBlur stdDeviation=".5"/><feComposite in2="hardAlpha" k2="-1" k3="1" operator="arithmetic"/><feColorMatrix type="matrix" values="0 0 0 0 0.439216 0 0 0 0 0.388235 0 0 0 0 0.486275 0 0 0 1 0"/><feBlend in2="shape" mode="normal" result="effect1_innerShadow_4002_326"/><feColorMatrix in="SourceAlpha" result="hardAlpha" type="matrix" values="0 0 0 0 0 0 0 0 0 0 0 0 0 0 0 0 0 0 127 0"/><feOffset dy="-.5"/><feGaussianBlur stdDeviation=".375"/><feComposite in2="hardAlpha" k2="-1" k3="1" operator="arithmetic"/><feColorMatrix type="matrix" values="0 0 0 0 0.537255 0 0 0 0 0.423529 0 0 0 0 0.635294 0 0 0 1 0"/><feBlend in2="effect1_innerShadow_4002_326" mode="normal" result="effect2_innerShadow_4002_326"/><feColorMatrix in="SourceAlpha" result="hardAlpha" type="matrix" values="0 0 0 0 0 0 0 0 0 0 0 0 0 0 0 0 0 0 127 0"/><feOffset dx=".25" dy=".25"/><feGaussianBlur stdDeviation=".375"/><feComposite in2="hardAlpha" k2="-1" k3="1" operator="arithmetic"/><feColorMatrix type="matrix" values="0 0 0 0 0.529412 0 0 0 0 0.490196 0 0 0 0 0.537255 0 0 0 1 0"/><feBlend in2="effect2_innerShadow_4002_326" mode="normal" result="effect3_innerShadow_4002_326"/></filter><filter id="j" color-interpolation-filters="sRGB" filterUnits="userSpaceOnUse" height="14.104" width="10.972" x="12.044" y="15.994"><feFlood flood-opacity="0" result="BackgroundImageFix"/><feBlend in="SourceGraphic" in2="BackgroundImageFix" mode="normal" result="shape"/><feColorMatrix in="SourceAlpha" result="hardAlpha" type="matrix" values="0 0 0 0 0 0 0 0 0 0 0 0 0 0 0 0 0 0 127 0"/><feOffset dx=".5" dy="-.2"/><feGaussianBlur stdDeviation=".25"/><feComposite in2="hardAlpha" k2="-1" k3="1" operator="arithmetic"/><feColorMatrix type="matrix" values="0 0 0 0 0.619608 0 0 0 0 0.592157 0 0 0 0 0.611765 0 0 0 1 0"/><feBlend in2="shape" mode="normal" result="effect1_innerShadow_4002_326"/></filter><filter id="k" color-interpolation-filters="sRGB" filterUnits="userSpaceOnUse" height="5.875" width="5.442" x="18.441" y="8.468"><feFlood flood-opacity="0" result="BackgroundImageFix"/><feBlend in="SourceGraphic" in2="BackgroundImageFix" mode="normal" result="shape"/><feGaussianBlur result="effect1_foregroundBlur_4002_326" stdDeviation=".375"/></filter><filter id="l" color-interpolation-filters="sRGB" filterUnits="userSpaceOnUse" height="10.511" width="7.59" x="19.902" y="9.157"><feFlood flood-opacity="0" result="BackgroundImageFix"/><feBlend in="SourceGraphic" in2="BackgroundImageFix" mode="normal" result="shape"/><feColorMatrix in="SourceAlpha" result="hardAlpha" type="matrix" values="0 0 0 0 0 0 0 0 0 0 0 0 0 0 0 0 0 0 127 0"/><feOffset dx=".25" dy="-.25"/><feGaussianBlur stdDeviation=".4"/><feComposite in2="hardAlpha" k2="-1" k3="1" operator="arithmetic"/><feColorMatrix type="matrix" values="0 0 0 0 0.898039 0 0 0 0 0.631373 0 0 0 0 0.556863 0 0 0 1 0"/><feBlend in2="shape" mode="normal" result="effect1_innerShadow_4002_326"/><feColorMatrix in="SourceAlpha" result="hardAlpha" type="matrix" values="0 0 0 0 0 0 0 0 0 0 0 0 0 0 0 0 0 0 127 0"/><feOffset dx="-.4" dy=".4"/><feGaussianBlur stdDeviation=".4"/><feComposite in2="hardAlpha" k2="-1" k3="1" operator="arithmetic"/><feColorMatrix type="matrix" values="0 0 0 0 0.905882 0 0 0 0 0.72549 0 0 0 0 0.592157 0 0 0 1 0"/><feBlend in2="effect1_innerShadow_4002_326" mode="normal" result="effect2_innerShadow_4002_326"/></filter><filter id="m" color-interpolation-filters="sRGB" filterUnits="userSpaceOnUse" height="9.069" width="6.084" x="21.238" y="9.902"><feFlood flood-opacity="0" result="BackgroundImageFix"/><feBlend in="SourceGraphic" in2="BackgroundImageFix" mode="normal" result="shape"/><feGaussianBlur result="effect1_foregroundBlur_4002_326" stdDeviation=".3"/></filter><filter id="n" color-interpolation-filters="sRGB" filterUnits="userSpaceOnUse" height="4.525" width="4.758" x="19.041" y="8.654"><feFlood flood-opacity="0" result="BackgroundImageFix"/><feBlend in="SourceGraphic" in2="BackgroundImageFix" mode="normal" result="shape"/><feColorMatrix in="SourceAlpha" result="hardAlpha" type="matrix" values="0 0 0 0 0 0 0 0 0 0 0 0 0 0 0 0 0 0 127 0"/><feOffset dx=".25" dy="-.15"/><feGaussianBlur stdDeviation=".25"/><feComposite in2="hardAlpha" k2="-1" k3="1" operator="arithmetic"/><feColorMatrix type="matrix" values="0 0 0 0 0.392157 0 0 0 0 0.254902 0 0 0 0 0.639216 0 0 0 1 0"/><feBlend in2="shape" mode="normal" result="effect1_innerShadow_4002_326"/></filter><filter id="o" color-interpolation-filters="sRGB" filterUnits="userSpaceOnUse" height=".568" width="1.013" x="16.389" y="4.307"><feFlood flood-opacity="0" result="BackgroundImageFix"/><feBlend in="SourceGraphic" in2="BackgroundImageFix" mode="normal" result="shape"/><feColorMatrix in="SourceAlpha" result="hardAlpha" type="matrix" values="0 0 0 0 0 0 0 0 0 0 0 0 0 0 0 0 0 0 127 0"/><feOffset dx="-.1" dy=".1"/><feGaussianBlur stdDeviation=".1"/><feComposite in2="hardAlpha" k2="-1" k3="1" operator="arithmetic"/><feColorMatrix type="matrix" values="0 0 0 0 0.470588 0 0 0 0 0.270588 0 0 0 0 0.164706 0 0 0 1 0"/><feBlend in2="shape" mode="normal" result="effect1_innerShadow_4002_326"/></filter><filter id="p" color-interpolation-filters="sRGB" filterUnits="userSpaceOnUse" height="12.891" width="6.844" x="15.018" y="16.116"><feFlood flood-opacity="0" result="BackgroundImageFix"/><feBlend in="SourceGraphic" in2="BackgroundImageFix" mode="normal" result="shape"/><feGaussianBlur result="effect1_foregroundBlur_4002_326" stdDeviation=".5"/></filter><filter id="q" color-interpolation-filters="sRGB" filterUnits="userSpaceOnUse" height="8.475" width="6.45" x="20.966" y="18.044"><feFlood flood-opacity="0" result="BackgroundImageFix"/><feBlend in="SourceGraphic" in2="BackgroundImageFix" mode="normal" result="shape"/><feGaussianBlur result="effect1_foregroundBlur_4002_326" stdDeviation=".375"/></filter><radialGradient id="r" cx="0" cy="0" gradientTransform="matrix(-2.34374615 2.75000033 -.60904205 -.51906901 16.5493 12.4999)" gradientUnits="userSpaceOnUse" r="1"><stop offset="0" stop-color="#dfb091"/><stop offset="1" stop-color="#dfb091" stop-opacity="0"/></radialGradient><radialGradient id="s" cx="0" cy="0" gradientTransform="matrix(1.50000315 .09375034 -.10135115 1.62161586 12.9243 16.2812)" gradientUnits="userSpaceOnUse" r="1"><stop offset="0" stop-color="#c28a6e"/><stop offset="1" stop-color="#c28a6e" stop-opacity="0"/></radialGradient><linearGradient id="t" gradientUnits="userSpaceOnUse" x1="14.338" x2="12.455" y1="15.523" y2="17.563"><stop offset="0" stop-color="#443d44"/><stop offset="1" stop-color="#443d44" stop-opacity="0"/></linearGradient><linearGradient id="u" gradientUnits="userSpaceOnUse" x1="8.893" x2="10.143" y1="21.813" y2="22.75"><stop offset="0" stop-color="#d4c6dc"/><stop offset="1" stop-color="#cdb4e3"/></linearGradient><linearGradient id="v" gradientUnits="userSpaceOnUse" x1="5.229" x2="6.963" y1="28.656" y2="26.313"><stop offset="0" stop-color="#e82b8e"/><stop offset="1" stop-color="#f3386a"/></linearGradient><linearGradient id="w" gradientUnits="userSpaceOnUse" x1="5.284" x2="5.642" y1="27.094" y2="27.344"><stop offset="0" stop-color="#f35886"/><stop offset="1" stop-color="#f35886" stop-opacity="0"/></linearGradient><radialGradient id="x" cx="0" cy="0" gradientTransform="matrix(0 1.57031 -1.46069 0 4.46289 28.4609)" gradientUnits="userSpaceOnUse" r="1"><stop offset=".238" stop-color="#d8cbdd"/><stop offset="1" stop-color="#ccaae9"/></radialGradient><radialGradient id="y" cx="0" cy="0" gradientTransform="matrix(.47241224 -.12500019 .12500019 .47241224 4.83032 28.8125)" gradientUnits="userSpaceOnUse" r="1"><stop offset="0" stop-color="#e9d9f5"/><stop offset="1" stop-color="#e9d9f5" stop-opacity="0"/></radialGradient><radialGradient id="z" cx="0" cy="0" gradientTransform="matrix(.50415 0 0 .668771 3.62305 28.9531)" gradientUnits="userSpaceOnUse" r="1"><stop offset="0" stop-color="#e4d4ea"/><stop offset="1" stop-color="#e4d4ea" stop-opacity="0"/></radialGradient><linearGradient id="A" gradientUnits="userSpaceOnUse" x1="13.752" x2="12.002" y1="16.359" y2="18.656"><stop offset="0" stop-color="#4d3b5c"/><stop offset="1" stop-color="#3f3647"/></linearGradient><linearGradient id="B" gradientUnits="userSpaceOnUse" x1="13.862" x2="13.338" y1="16.422" y2="17.188"><stop offset=".098" stop-color="#62516b"/><stop offset="1" stop-color="#483a55" stop-opacity="0"/></linearGradient><linearGradient id="C" gradientUnits="userSpaceOnUse" x1="16.873" x2="17.748" y1="12.851" y2="10.46"><stop offset="0" stop-color="#725d9d"/><stop offset=".787" stop-color="#816fa6"/></linearGradient><radialGradient id="D" cx="0" cy="0" gradientTransform="matrix(-1.30831146 .72148209 -1.24915212 -2.26517064 19.674 8.28569)" gradientUnits="userSpaceOnUse" r="1"><stop offset="0" stop-color="#b67555"/><stop offset=".912" stop-color="#dfa692"/></radialGradient><radialGradient id="E" cx="0" cy="0" gradientTransform="matrix(.47656197 .25781263 -.36391269 .67268602 15.3398 6.26459)" gradientUnits="userSpaceOnUse" r="1"><stop offset=".101" stop-color="#fec19d"/><stop offset=".684" stop-color="#f2b08a"/></radialGradient><radialGradient id="F" cx="0" cy="0" gradientTransform="matrix(-.12005471 -.29152004 .43750798 -.18017593 15.7451 6.58178)" gradientUnits="userSpaceOnUse" r="1"><stop offset="0" stop-color="#f0aa89"/><stop offset="1" stop-color="#f0aa89" stop-opacity="0"/></radialGradient><linearGradient id="G" gradientUnits="userSpaceOnUse" x1="18.689" x2="15.827" y1="6.304" y2="6.476"><stop offset="0" stop-color="#dfa289"/><stop offset="1" stop-color="#f2b592"/></linearGradient><radialGradient id="H" cx="0" cy="0" gradientTransform="matrix(-.84374978 -.0468775 .05715326 -1.02870355 19.002 5.56149)" gradientUnits="userSpaceOnUse" r="1"><stop offset=".156" stop-color="#dd9c79"/><stop offset="1" stop-color="#dd9c79" stop-opacity="0"/></radialGradient><radialGradient id="I" cx="0" cy="0" gradientTransform="matrix(0 -5.1875 2.01562 0 16.1055 6.74894)" gradientUnits="userSpaceOnUse" r="1"><stop offset=".219" stop-color="#fbbca1"/><stop offset="1" stop-color="#fbbca1" stop-opacity="0"/></radialGradient><radialGradient id="J" cx="0" cy="0" gradientTransform="matrix(0 .390625 -.609189 0 16.9336 5.60831)" gradientUnits="userSpaceOnUse" r="1"><stop offset=".155" stop-color="#e6aa86"/><stop offset="1" stop-color="#e6aa86" stop-opacity="0"/></radialGradient><radialGradient id="K" cx="0" cy="0" gradientTransform="matrix(1.53487982 -.43168386 .92509485 3.28923448 15.878 3.32635)" gradientUnits="userSpaceOnUse" r="1"><stop offset="0" stop-color="#ffecb8"/><stop offset="1" stop-color="#ffecb8" stop-opacity="0"/></radialGradient><radialGradient id="L" cx="0" cy="0" gradientTransform="matrix(2.29162819 6.28731798 -4.90397142 1.78742019 18.8719 2.69036)" gradientUnits="userSpaceOnUse" r="1"><stop offset=".715" stop-color="#f0c9a1" stop-opacity="0"/><stop offset=".967" stop-color="#c9a28c"/></radialGradient><radialGradient id="M" cx="0" cy="0" gradientTransform="matrix(.72656245 -.2109374 .10295564 .35462514 18.6992 5.45212)" gradientUnits="userSpaceOnUse" r="1"><stop offset=".17" stop-color="#ebb497"/><stop offset="1" stop-color="#e1a587"/></radialGradient><radialGradient id="N" cx="0" cy="0" gradientTransform="matrix(.22595984 1.17974555 -1.22934399 .23545956 18.7305 5.15134)" gradientUnits="userSpaceOnUse" r="1"><stop offset=".556" stop-color="#e1a38b" stop-opacity="0"/><stop offset="1" stop-color="#dd9a7e"/></radialGradient><linearGradient id="O" gradientUnits="userSpaceOnUse" x1="18.645" x2="18.793" y1="5.521" y2="5.532"><stop offset="0" stop-color="#e5a88d"/><stop offset="1" stop-color="#e4a88b" stop-opacity="0"/></linearGradient><linearGradient id="P" gradientUnits="userSpaceOnUse" x1="22.135" x2="24.363" y1="22.898" y2="20.954"><stop offset=".211" stop-color="#8b8290"/><stop offset="1" stop-color="#9f9c9f"/></linearGradient><radialGradient id="Q" cx="0" cy="0" gradientTransform="matrix(2.45369246 2.93957374 -5.966604 4.98038578 21.1145 18.0388)" gradientUnits="userSpaceOnUse" r="1"><stop offset=".434" stop-color="#887e8b"/><stop offset="1" stop-color="#887e8b" stop-opacity="0"/></radialGradient><radialGradient id="R" cx="0" cy="0" gradientTransform="matrix(.89062467 .65625091 -3.94140873 5.34904529 20.7987 19.0537)" gradientUnits="userSpaceOnUse" r="1"><stop offset=".043" stop-color="#695c75"/><stop offset="1" stop-color="#695c75" stop-opacity="0"/></radialGradient><radialGradient id="S" cx="0" cy="0" gradientTransform="matrix(3.2499963 -5.14062822 1.3540234 .8560376 20.0176 20.8975)" gradientUnits="userSpaceOnUse" r="1"><stop offset=".07" stop-color="#897998"/><stop offset="1" stop-color="#897998" stop-opacity="0"/></radialGradient><radialGradient id="T" cx="0" cy="0" gradientTransform="matrix(0 1.42188 -1.38588 0 20.8301 16.1943)" gradientUnits="userSpaceOnUse" r="1"><stop offset="0" stop-color="#99919a"/><stop offset="1" stop-color="#8c8393" stop-opacity="0"/></radialGradient><linearGradient id="U" gradientUnits="userSpaceOnUse" x1="19.908" x2="19.908" y1="16.085" y2="16.429"><stop offset=".136" stop-color="#817076"/><stop offset="1" stop-color="#817076" stop-opacity="0"/></linearGradient><radialGradient id="V" cx="0" cy="0" gradientTransform="matrix(.14062477 -.17968748 .64580724 .50541359 16.1348 28.1084)" gradientUnits="userSpaceOnUse" r="1"><stop offset="0" stop-color="#a19da6"/><stop offset="1" stop-color="#a19da6" stop-opacity="0"/></radialGradient><radialGradient id="W" cx="0" cy="0" gradientTransform="matrix(6.37499666 -1.81250162 4.67454852 16.44149214 16.4551 19.2412)" gradientUnits="userSpaceOnUse" r="1"><stop offset=".802" stop-color="#8c8388" stop-opacity="0"/><stop offset="1" stop-color="#8c8388"/></radialGradient><radialGradient id="X" cx="0" cy="0" gradientTransform="matrix(-.09374932 -1.53125283 2.45635065 -.15038745 15.002 29.46)" gradientUnits="userSpaceOnUse" r="1"><stop offset="0" stop-color="#4a4b75"/><stop offset="1" stop-color="#47456f"/></radialGradient><radialGradient id="Y" cx="0" cy="0" gradientTransform="matrix(1.06249554 -.21874842 .1513667 .73521189 11.8926 28.5225)" gradientUnits="userSpaceOnUse" r="1"><stop offset="0" stop-color="#63617e"/><stop offset="1" stop-color="#63617e" stop-opacity="0"/></radialGradient><radialGradient id="Z" cx="0" cy="0" gradientTransform="matrix(.59375082 -1.71875282 .84777893 .29286901 15.9082 29.7569)" gradientUnits="userSpaceOnUse" r="1"><stop offset=".08" stop-color="#515279"/><stop offset="1" stop-color="#515279" stop-opacity="0"/></radialGradient><linearGradient id="aa" gradientUnits="userSpaceOnUse" x1="14.44" x2="14.525" y1="29.632" y2="29.319"><stop offset="0" stop-color="#282955"/><stop offset="1" stop-color="#282955" stop-opacity="0"/></linearGradient><linearGradient id="ab" gradientUnits="userSpaceOnUse" x1="16.408" x2="15.83" y1="30.007" y2="29.788"><stop offset=".064" stop-color="#444571"/><stop offset="1" stop-color="#444571" stop-opacity="0"/></linearGradient><linearGradient id="ac" gradientUnits="userSpaceOnUse" x1="25.018" x2="25.611" y1="27.991" y2="28.163"><stop offset="0" stop-color="#5a577e"/><stop offset="1" stop-color="#5a577e" stop-opacity="0"/></linearGradient><linearGradient id="ad" gradientUnits="userSpaceOnUse" x1="27.143" x2="26.963" y1="28.065" y2="27.917"><stop offset="0" stop-color="#492d85"/><stop offset="0" stop-color="#443a80"/><stop offset="1" stop-color="#46437b" stop-opacity="0"/></linearGradient><radialGradient id="ae" cx="0" cy="0" gradientTransform="matrix(-1.3593667 -1.46413341 .8099859 -.752027 28.0332 27.1319)" gradientUnits="userSpaceOnUse" r="1"><stop offset="0" stop-color="#60618d"/><stop offset="1" stop-color="#46437b" stop-opacity="0"/></radialGradient><radialGradient id="af" cx="0" cy="0" gradientTransform="matrix(-.0937457 -4.9512226 1.33997984 -.02537098 20.7255 16.1943)" gradientUnits="userSpaceOnUse" r="1"><stop offset="0" stop-color="#7966a4"/><stop offset="1" stop-color="#7966a4" stop-opacity="0"/></radialGradient><radialGradient id="ag" cx="0" cy="0" gradientTransform="matrix(3.65186 0 0 15.6875 18.8505 14.3056)" gradientUnits="userSpaceOnUse" r="1"><stop offset=".436" stop-color="#6c5d89" stop-opacity="0"/><stop offset=".967" stop-color="#6c5d89"/></radialGradient><radialGradient id="ah" cx="0" cy="0" gradientTransform="matrix(-4.78125341 .78124664 -1.79107517 -10.96143494 22.2255 15.1181)" gradientUnits="userSpaceOnUse" r="1"><stop offset=".781" stop-color="#8272a4" stop-opacity="0"/><stop offset=".931" stop-color="#8272a4"/></radialGradient><radialGradient id="ai" cx="0" cy="0" gradientTransform="matrix(.51562297 1.34374844 -3.67741995 1.41109907 18.788 8.27436)" gradientUnits="userSpaceOnUse" r="1"><stop offset=".297" stop-color="#4d395c"/><stop offset="1" stop-color="#6f5797" stop-opacity="0"/></radialGradient><radialGradient id="aj" cx="0" cy="0" gradientTransform="matrix(-.67188178 .94330102 -1.66927432 -1.18896829 20.6005 8.6123)" gradientUnits="userSpaceOnUse" r="1"><stop offset="0" stop-color="#281a4b"/><stop offset="1" stop-color="#483368" stop-opacity="0"/></radialGradient><radialGradient id="ak" cx="0" cy="0" gradientTransform="matrix(0 .90625 -.90625 0 24.9551 17.8896)" gradientUnits="userSpaceOnUse" r="1"><stop offset=".256" stop-color="#da9984"/><stop offset="1" stop-color="#d38e84"/></radialGradient><linearGradient id="al" gradientUnits="userSpaceOnUse" x1="20.893" x2="22.002" y1="9.132" y2="12.585"><stop offset=".118" stop-color="#8265b5"/><stop offset="1" stop-color="#7759b2"/></linearGradient><radialGradient id="am" cx="0" cy="0" gradientTransform="matrix(1.09069672 .20312548 -.42058115 2.25834043 19.041 10.3525)" gradientUnits="userSpaceOnUse" r="1"><stop offset=".12" stop-color="#8974b4"/><stop offset="1" stop-color="#8974b4" stop-opacity="0"/></radialGradient><radialGradient id="an" cx="0" cy="0" gradientTransform="matrix(1.90624962 1.84375228 -1.04603649 1.08149379 22.1005 10.0869)" gradientUnits="userSpaceOnUse" r="1"><stop offset=".204" stop-color="#9075ca"/><stop offset="1" stop-color="#9075ca" stop-opacity="0"/></radialGradient><radialGradient id="ao" cx="0" cy="0" gradientTransform="matrix(.273437 0 0 .53125 16.6387 5.63574)" gradientUnits="userSpaceOnUse" r="1"><stop offset=".895" stop-color="#916a62"/><stop offset="1" stop-color="#824d44"/></radialGradient><radialGradient id="ap" cx="0" cy="0" gradientTransform="matrix(.25 0 0 .541016 16.4707 5.65723)" gradientUnits="userSpaceOnUse" r="1"><stop offset="0" stop-color="#666361"/><stop offset=".813" stop-color="#565352"/></radialGradient><linearGradient id="aq" gradientUnits="userSpaceOnUse" x1="16.464" x2="16.65" y1="5.267" y2="5.328"><stop offset="0" stop-color="#fff"/><stop offset="1" stop-color="#fff" stop-opacity="0"/></linearGradient><linearGradient id="ar" gradientUnits="userSpaceOnUse" x1="16.236" x2="20.861" y1="27.429" y2="17.288"><stop offset="0" stop-color="#94899e"/><stop offset="1" stop-color="#94899e" stop-opacity="0"/></linearGradient><linearGradient id="as" gradientUnits="userSpaceOnUse" x1="26.381" x2="22.07" y1="25.338" y2="19.966"><stop offset="0" stop-color="#a39fa7"/><stop offset="1" stop-color="#a39fa7" stop-opacity="0"/></linearGradient><g clip-rule="evenodd" fill-rule="evenodd" filter="url(#a)"><path d="m18.2249 11.7352c.5216.2535.739.8817.4855 1.4033-1.832 3.7705-4.2357 4.9121-5.7205 4.627-.5695-.1094-.9425-.6597-.8332-1.2292.1094-.5695.6597-.9425 1.2292-.8331-.0002-.0001-.0003-.0001-.0003-.0001s.0265.0042.0822.0005c.0575-.0039.138-.0159.2395-.0442.2029-.0564.4786-.1748.804-.4039.6499-.4573 1.4937-1.3542 2.3103-3.0348.2534-.5215.8817-.7389 1.4033-.4855z" fill="#cf957a"/><path d="m18.2249 11.7352c.5216.2535.739.8817.4855 1.4033-1.832 3.7705-4.2357 4.9121-5.7205 4.627-.5695-.1094-.9425-.6597-.8332-1.2292.1094-.5695.6597-.9425 1.2292-.8331-.0002-.0001-.0003-.0001-.0003-.0001s.0265.0042.0822.0005c.0575-.0039.138-.0159.2395-.0442.2029-.0564.4786-.1748.804-.4039.6499-.4573 1.4937-1.3542 2.3103-3.0348.2534-.5215.8817-.7389 1.4033-.4855z" fill="url(#r)"/><path d="m18.2249 11.7352c.5216.2535.739.8817.4855 1.4033-1.832 3.7705-4.2357 4.9121-5.7205 4.627-.5695-.1094-.9425-.6597-.8332-1.2292.1094-.5695.6597-.9425 1.2292-.8331-.0002-.0001-.0003-.0001-.0003-.0001s.0265.0042.0822.0005c.0575-.0039.138-.0159.2395-.0442.2029-.0564.4786-.1748.804-.4039.6499-.4573 1.4937-1.3542 2.3103-3.0348.2534-.5215.8817-.7389 1.4033-.4855z" fill="url(#s)"/></g><path d="m12.4978 15.9762c.1976-.4002.6099-.6754 1.0864-.6754.6688 0 1.2109.5421 1.2109 1.2109s-.5421 1.211-1.2109 1.211c-.4059 0-.7651-.1997-.9848-.5062" stroke="#33241a" stroke-width=".35"/><g filter="url(#b)"><path d="m12.4834 16.006c.1916-.4162.6123-.7052 1.1006-.7052.6688 0 1.211.5421 1.211 1.2109s-.5422 1.211-1.211 1.211c-.4051 0-.7637-.1989-.9835-.5044" stroke="url(#t)" stroke-width=".1"/></g><g filter="url(#c)"><path clip-rule="evenodd" d="m12.6768 17.7688c.201.1461.2455.4275.0994.6285l-7.77344 10.6954c-.14611.201-.42754.2455-.62857.0994-.20104-.1461-.24557-.4275-.09945-.6286l7.77346-10.6953c.1461-.201.4275-.2456.6286-.0994z" fill="url(#u)" fill-rule="evenodd"/></g><path d="m7.09507 26.2139-2.09231 2.8788c-.14611.201-.42754.2455-.62857.0994-.20104-.1461-.24557-.4275-.09945-.6286l2.09201-2.8783z" fill="url(#v)"/><path d="m7.09507 26.2139-2.09231 2.8788c-.14611.201-.42754.2455-.62857.0994-.20104-.1461-.24557-.4275-.09945-.6286l2.09201-2.8783z" fill="url(#w)"/><g filter="url(#d)"><circle cx="4.463" cy="29.066" fill="url(#x)" r=".84"/><circle cx="4.463" cy="29.066" fill="url(#y)" r=".84"/><circle cx="4.463" cy="29.066" fill="url(#z)" r=".84"/></g><g filter="url(#e)"><path d="m13.091 16.0013c.0647-.0895.1897-.1096.2793-.0449l.8172.5904c.0896.0647.1097.1897.045.2793l-1.5092 2.0888c-.0646.0896-.1897.1097-.2792.045l-.8173-.5904c-.0895-.0647-.1096-.1897-.045-.2793z" fill="url(#A)"/><path d="m13.091 16.0013c.0647-.0895.1897-.1096.2793-.0449l.8172.5904c.0896.0647.1097.1897.045.2793l-1.5092 2.0888c-.0646.0896-.1897.1097-.2792.045l-.8173-.5904c-.0895-.0647-.1096-.1897-.045-.2793z" fill="url(#B)"/></g><g filter="url(#f)"><rect fill="#d19f8a" height="1.669" rx=".416" transform="matrix(.99108248 -.13324986 .13324986 .99108248 -1.970779 1.756482)" width=".832" x="12.138" y="15.602"/></g><path d="m17.3892 10.5146c.2812-.71245.7734-1.22391.9843-1.39058l-.039 4.46878-1.7852-.836c.2774-.5234.4883-1.3515.8399-2.2422z" fill="url(#C)"/><path d="m18.3433 6.72888h1.94553v3.44006h-1.94553z" fill="url(#D)" transform="matrix(.99713656 -.07562197 .07562197 .99713656 -.456326 1.406424)"/><path d="m15.6309 5.82715c.1563-.14688.237-.36589.2578-.45703h.1798v1.125c-.2149.13672-.5221.11521-.6134-.08985-.0781-.17578-.0195-.39453.1758-.57812z" fill="url(#E)"/><path d="m15.6309 5.82715c.1563-.14688.237-.36589.2578-.45703h.1798v1.125c-.2149.13672-.5221.11521-.6134-.08985-.0781-.17578-.0195-.39453.1758-.57812z" fill="url(#F)"/><g filter="url(#g)"><path d="m15.8549 4.8633c.0385-.80119.298-1.18737.4202-1.30031h3.7323l.0625 3.16359c-.8664 2.12178-3.5114 2.21273-3.9064 1.44532-.395-.76742-.3532-2.38102-.3086-3.3086z" fill="url(#G)"/><path d="m15.8549 4.8633c.0385-.80119.298-1.18737.4202-1.30031h3.7323l.0625 3.16359c-.8664 2.12178-3.5114 2.21273-3.9064 1.44532-.395-.76742-.3532-2.38102-.3086-3.3086z" fill="url(#H)"/><path d="m15.8549 4.8633c.0385-.80119.298-1.18737.4202-1.30031h3.7323l.0625 3.16359c-.8664 2.12178-3.5114 2.21273-3.9064 1.44532-.395-.76742-.3532-2.38102-.3086-3.3086z" fill="url(#I)"/><path d="m15.8549 4.8633c.0385-.80119.298-1.18737.4202-1.30031h3.7323l.0625 3.16359c-.8664 2.12178-3.5114 2.21273-3.9064 1.44532-.395-.76742-.3532-2.38102-.3086-3.3086z" fill="url(#J)"/></g><g filter="url(#h)"><path d="m15.7351 3.51653c-.1717-.41016.0166-.84375.113-.99219.3672-.67187 1.1282-.71617 1.5668-.52344.5156.22657.6693.34714 1.5039.10938.8365-.23829 1.8672-.12891 2.4063.83984.539.96875-.0469 2.05859.0859 2.65234s.5123.65235.6524 1.33985c.1171.95312-.4727 1.57422-.9961 1.71484-.5235.14063-1.6016 0-1.9532-.875-.5752-1.43163-.1841-2.10937-.3091-2.82812s-.5547-.92188-1.3359-.76563c-.9197.18395-1.5053-.12595-1.734-.67187z" fill="#ffe0af"/><path d="m15.7351 3.51653c-.1717-.41016.0166-.84375.113-.99219.3672-.67187 1.1282-.71617 1.5668-.52344.5156.22657.6693.34714 1.5039.10938.8365-.23829 1.8672-.12891 2.4063.83984.539.96875-.0469 2.05859.0859 2.65234s.5123.65235.6524 1.33985c.1171.95312-.4727 1.57422-.9961 1.71484-.5235.14063-1.6016 0-1.9532-.875-.5752-1.43163-.1841-2.10937-.3091-2.82812s-.5547-.92188-1.3359-.76563c-.9197.18395-1.5053-.12595-1.734-.67187z" fill="url(#K)"/></g><path d="m15.7351 3.51653c-.1717-.41016.0166-.84375.113-.99219.3672-.67187 1.1282-.71617 1.5668-.52344.5156.22657.6693.34714 1.5039.10938.8365-.23829 1.8672-.12891 2.4063.83984.539.96875-.0469 2.05859.0859 2.65234s.5123.65235.6524 1.33985c.1171.95312-.4727 1.57422-.9961 1.71484-.5235.14063-1.6016 0-1.9532-.875-.5752-1.43163-.1841-2.10937-.3091-2.82812s-.5547-.92188-1.3359-.76563c-.9197.18395-1.5053-.12595-1.734-.67187z" fill="url(#L)"/><path d="m18.5476 6.32543.1995-1.43944c.3498.05232.6182.35409.6182.71853 0 .40127-.3253.72656-.7266.72656-.0309 0-.0613-.00192-.0911-.00565z" fill="url(#M)"/><path d="m18.5476 6.32543.1995-1.43944c.3498.05232.6182.35409.6182.71853 0 .40127-.3253.72656-.7266.72656-.0309 0-.0613-.00192-.0911-.00565z" fill="url(#N)"/><path d="m18.5476 6.32543.1995-1.43944c.3498.05232.6182.35409.6182.71853 0 .40127-.3253.72656-.7266.72656-.0309 0-.0613-.00192-.0911-.00565z" fill="url(#O)"/><g filter="url(#i)"><path d="m23.3304 19.96-.8906-3.7344h-1.7813c-.0521.6146-.152 2.2156-.2895 3.5156s.4922 2.0313.7659 2.3125l4.4455 4.3125c-.1979.6615-.627 2.025-.727 2.625-.077.4618.145.7681.3511.9524.0932.0833.2346.0641.3181-.029l2.6876-2.9954c.0921-.1027.0836-.2605-.0188-.3528l-.986-.8877c-1.0417-1.3646-3.1906-4.1937-3.4531-4.5937-.1814-.2764-.3906-.9167-.4219-1.125z" fill="url(#P)"/><path d="m23.3304 19.96-.8906-3.7344h-1.7813c-.0521.6146-.152 2.2156-.2895 3.5156s.4922 2.0313.7659 2.3125l4.4455 4.3125c-.1979.6615-.627 2.025-.727 2.625-.077.4618.145.7681.3511.9524.0932.0833.2346.0641.3181-.029l2.6876-2.9954c.0921-.1027.0836-.2605-.0188-.3528l-.986-.8877c-1.0417-1.3646-3.1906-4.1937-3.4531-4.5937-.1814-.2764-.3906-.9167-.4219-1.125z" fill="url(#Q)"/><path d="m23.3304 19.96-.8906-3.7344h-1.7813c-.0521.6146-.152 2.2156-.2895 3.5156s.4922 2.0313.7659 2.3125l4.4455 4.3125c-.1979.6615-.627 2.025-.727 2.625-.077.4618.145.7681.3511.9524.0932.0833.2346.0641.3181-.029l2.6876-2.9954c.0921-.1027.0836-.2605-.0188-.3528l-.986-.8877c-1.0417-1.3646-3.1906-4.1937-3.4531-4.5937-.1814-.2764-.3906-.9167-.4219-1.125z" fill="url(#R)"/></g><g filter="url(#j)"><path d="m16.9785 18.5771c.3831-1.0508.7161-2.0286.7734-2.3828h4.7422c.1 1.375-.1441 1.7121-.7734 2.4219-.6927.7813-2.1719 2.4297-2.5391 2.8945-.35.35-.5.7891-.5547.9805l-2.2623 7.4301c-.0405.1331-.1819.2075-.3146.1655l-3.7374-1.1827c-.1946-.0616-.3258-.2653-.2439-.4522.1073-.2449.3327-.4993.8864-.656.6625-.1875 1.9427-.2839 2.5156-.3359.2135-1.7657.6594-5.4313.7344-5.9688.0937-.6719.2265-1.4141.7734-2.9141z" fill="#8c8393"/><path d="m16.9785 18.5771c.3831-1.0508.7161-2.0286.7734-2.3828h4.7422c.1 1.375-.1441 1.7121-.7734 2.4219-.6927.7813-2.1719 2.4297-2.5391 2.8945-.35.35-.5.7891-.5547.9805l-2.2623 7.4301c-.0405.1331-.1819.2075-.3146.1655l-3.7374-1.1827c-.1946-.0616-.3258-.2653-.2439-.4522.1073-.2449.3327-.4993.8864-.656.6625-.1875 1.9427-.2839 2.5156-.3359.2135-1.7657.6594-5.4313.7344-5.9688.0937-.6719.2265-1.4141.7734-2.9141z" fill="url(#S)"/><path d="m16.9785 18.5771c.3831-1.0508.7161-2.0286.7734-2.3828h4.7422c.1 1.375-.1441 1.7121-.7734 2.4219-.6927.7813-2.1719 2.4297-2.5391 2.8945-.35.35-.5.7891-.5547.9805l-2.2623 7.4301c-.0405.1331-.1819.2075-.3146.1655l-3.7374-1.1827c-.1946-.0616-.3258-.2653-.2439-.4522.1073-.2449.3327-.4993.8864-.656.6625-.1875 1.9427-.2839 2.5156-.3359.2135-1.7657.6594-5.4313.7344-5.9688.0937-.6719.2265-1.4141.7734-2.9141z" fill="url(#T)"/><path d="m16.9785 18.5771c.3831-1.0508.7161-2.0286.7734-2.3828h4.7422c.1 1.375-.1441 1.7121-.7734 2.4219-.6927.7813-2.1719 2.4297-2.5391 2.8945-.35.35-.5.7891-.5547.9805l-2.2623 7.4301c-.0405.1331-.1819.2075-.3146.1655l-3.7374-1.1827c-.1946-.0616-.3258-.2653-.2439-.4522.1073-.2449.3327-.4993.8864-.656.6625-.1875 1.9427-.2839 2.5156-.3359.2135-1.7657.6594-5.4313.7344-5.9688.0937-.6719.2265-1.4141.7734-2.9141z" fill="url(#U)"/><path d="m16.9785 18.5771c.3831-1.0508.7161-2.0286.7734-2.3828h4.7422c.1 1.375-.1441 1.7121-.7734 2.4219-.6927.7813-2.1719 2.4297-2.5391 2.8945-.35.35-.5.7891-.5547.9805l-2.2623 7.4301c-.0405.1331-.1819.2075-.3146.1655l-3.7374-1.1827c-.1946-.0616-.3258-.2653-.2439-.4522.1073-.2449.3327-.4993.8864-.656.6625-.1875 1.9427-.2839 2.5156-.3359.2135-1.7657.6594-5.4313.7344-5.9688.0937-.6719.2265-1.4141.7734-2.9141z" fill="url(#V)"/><path d="m16.9785 18.5771c.3831-1.0508.7161-2.0286.7734-2.3828h4.7422c.1 1.375-.1441 1.7121-.7734 2.4219-.6927.7813-2.1719 2.4297-2.5391 2.8945-.35.35-.5.7891-.5547.9805l-2.2623 7.4301c-.0405.1331-.1819.2075-.3146.1655l-3.7374-1.1827c-.1946-.0616-.3258-.2653-.2439-.4522.1073-.2449.3327-.4993.8864-.656.6625-.1875 1.9427-.2839 2.5156-.3359.2135-1.7657.6594-5.4313.7344-5.9688.0937-.6719.2265-1.4141.7734-2.9141z" fill="url(#W)"/></g><path d="m16.756 28.6358-.3914 1.2855c-.0405.1331-.1819.2075-.3146.1655l-3.7374-1.1827c-.1946-.0616-.3258-.2653-.2439-.4522.1073-.2449.3327-.4993.8864-.656.5906-.1672 1.6723-.2619 2.306-.3174.077-.0067.1475-.0129.2096-.0185l.0002-.0016z" fill="url(#X)"/><path d="m16.756 28.6358-.3914 1.2855c-.0405.1331-.1819.2075-.3146.1655l-3.7374-1.1827c-.1946-.0616-.3258-.2653-.2439-.4522.1073-.2449.3327-.4993.8864-.656.5906-.1672 1.6723-.2619 2.306-.3174.077-.0067.1475-.0129.2096-.0185l.0002-.0016z" fill="url(#Y)"/><path d="m16.756 28.6358-.3914 1.2855c-.0405.1331-.1819.2075-.3146.1655l-3.7374-1.1827c-.1946-.0616-.3258-.2653-.2439-.4522.1073-.2449.3327-.4993.8864-.656.5906-.1672 1.6723-.2619 2.306-.3174.077-.0067.1475-.0129.2096-.0185l.0002-.0016z" fill="url(#Z)"/><path d="m16.756 28.6358-.3914 1.2855c-.0405.1331-.1819.2075-.3146.1655l-3.7374-1.1827c-.1946-.0616-.3258-.2653-.2439-.4522.1073-.2449.3327-.4993.8864-.656.5906-.1672 1.6723-.2619 2.306-.3174.077-.0067.1475-.0129.2096-.0185l.0002-.0016z" fill="url(#aa)"/><path d="m16.756 28.6358-.3914 1.2855c-.0405.1331-.1819.2075-.3146.1655l-3.7374-1.1827c-.1946-.0616-.3258-.2653-.2439-.4522.1073-.2449.3327-.4993.8864-.656.5906-.1672 1.6723-.2619 2.306-.3174.077-.0067.1475-.0129.2096-.0185l.0002-.0016z" fill="url(#ab)"/><path d="m27.1971 25.6677-1.6379.6778.0213.0207c-.0308.103-.0672.2231-.1071.3546-.2165.7131-.5356 1.7639-.6199 2.2704-.0769.4618.145.7681.3511.9524.0932.0833.2346.0641.3181-.0289l2.6876-2.9955c.092-.1027.0836-.2605-.0188-.3528l-.986-.8877c-.0028-.0036-.0056-.0073-.0084-.011z" fill="#45437a"/><path d="m27.1971 25.6677-1.6379.6778.0213.0207c-.0308.103-.0672.2231-.1071.3546-.2165.7131-.5356 1.7639-.6199 2.2704-.0769.4618.145.7681.3511.9524.0932.0833.2346.0641.3181-.0289l2.6876-2.9955c.092-.1027.0836-.2605-.0188-.3528l-.986-.8877c-.0028-.0036-.0056-.0073-.0084-.011z" fill="url(#ac)"/><path d="m27.1971 25.6677-1.6379.6778.0213.0207c-.0308.103-.0672.2231-.1071.3546-.2165.7131-.5356 1.7639-.6199 2.2704-.0769.4618.145.7681.3511.9524.0932.0833.2346.0641.3181-.0289l2.6876-2.9955c.092-.1027.0836-.2605-.0188-.3528l-.986-.8877c-.0028-.0036-.0056-.0073-.0084-.011z" fill="url(#ad)"/><path d="m27.1971 25.6677-1.6379.6778.0213.0207c-.0308.103-.0672.2231-.1071.3546-.2165.7131-.5356 1.7639-.6199 2.2704-.0769.4618.145.7681.3511.9524.0932.0833.2346.0641.3181-.0289l2.6876-2.9955c.092-.1027.0836-.2605-.0188-.3528l-.986-.8877c-.0028-.0036-.0056-.0073-.0084-.011z" fill="url(#ae)"/><path d="m17.3663 5.14616c-.1311-.13119-.349-.16119-.4415-.15979l.3027.46673c.1472-.00841.3028-.14296.1388-.30694z" fill="#2f2c2d"/><path d="m19.6856 8.6123c.8906 0 1.1367.21485 1.4336.40626l1.0235 2.59764c.3 1.4.3645 3.6354.3593 4.5781h-4.7656c-.2579-.6562-.6775-2.675-.5158-4.5781.1641-1.92968 1.2072-2.90233 2.465-3.0039z" fill="#725ca6"/><path d="m19.6856 8.6123c.8906 0 1.1367.21485 1.4336.40626l1.0235 2.59764c.3 1.4.3645 3.6354.3593 4.5781h-4.7656c-.2579-.6562-.6775-2.675-.5158-4.5781.1641-1.92968 1.2072-2.90233 2.465-3.0039z" fill="url(#af)"/><path d="m19.6856 8.6123c.8906 0 1.1367.21485 1.4336.40626l1.0235 2.59764c.3 1.4.3645 3.6354.3593 4.5781h-4.7656c-.2579-.6562-.6775-2.675-.5158-4.5781.1641-1.92968 1.2072-2.90233 2.465-3.0039z" fill="url(#ag)"/><path d="m19.6856 8.6123c.8906 0 1.1367.21485 1.4336.40626l1.0235 2.59764c.3 1.4.3645 3.6354.3593 4.5781h-4.7656c-.2579-.6562-.6775-2.675-.5158-4.5781.1641-1.92968 1.2072-2.90233 2.465-3.0039z" fill="url(#ah)"/><path d="m19.6856 8.6123c.8906 0 1.1367.21485 1.4336.40626l1.0235 2.59764c.3 1.4.3645 3.6354.3593 4.5781h-4.7656c-.2579-.6562-.6775-2.675-.5158-4.5781.1641-1.92968 1.2072-2.90233 2.465-3.0039z" fill="url(#ai)"/><path d="m19.6856 8.6123c.8906 0 1.1367.21485 1.4336.40626l1.0235 2.59764c.3 1.4.3645 3.6354.3593 4.5781h-4.7656c-.2579-.6562-.6775-2.675-.5158-4.5781.1641-1.92968 1.2072-2.90233 2.465-3.0039z" fill="url(#aj)"/><circle cx="25.092" cy="18.042" fill="url(#ak)" r=".551"/><g filter="url(#k)"><path d="m19.3972 10.9853c-.3103-.2484-.178-.3899-.178-.8183 0-.74861.0131-.94923.7617-.94923.3372 0 .6455.12307.8827.32673.9506.6915 1.7892 1.5912 2.2697 2.1342l-2.0391 1.9141c-.361-.5138-1.2783-1.9027-1.697-2.6075z" fill="#442e79"/></g><g filter="url(#l)"><path clip-rule="evenodd" d="m25.9983 19.238c-.3254.1081-.6745-.0794-.776-.4069-1.2149-3.9216-3.1657-6.29-4.5413-7.545-.4379-.3994-.5159-1.0821-.1283-1.53048.3463-.40075.9444-.47166 1.3482-.12887 1.626 1.38035 3.9106 3.97535 5.3163 8.60455.093.3063-.0789.6282-.3826.7291z" fill="#e2a891" fill-rule="evenodd"/></g><g filter="url(#m)"><path d="m22.0378 10.702c.9688.9063 3.1563 3.2188 4.4844 7.4688" stroke="#edbb9f" stroke-linecap="round" stroke-width=".4"/></g><g filter="url(#n)"><path d="m19.5502 11.218c-.3103-.2484-.5092-.6304-.5092-1.0588 0-.74863.6068-1.35549 1.3555-1.35549.3371 0 .6455.12307.8827.32673.9506.69151 1.7892 1.59126 2.2696 2.13416l-2.039 1.9141c-.3078-.3198-1.382-1.3925-1.9596-1.9607z" fill="url(#al)"/><path d="m19.5502 11.218c-.3103-.2484-.5092-.6304-.5092-1.0588 0-.74863.6068-1.35549 1.3555-1.35549.3371 0 .6455.12307.8827.32673.9506.69151 1.7892 1.59126 2.2696 2.13416l-2.039 1.9141c-.3078-.3198-1.382-1.3925-1.9596-1.9607z" fill="url(#am)"/><path d="m19.5502 11.218c-.3103-.2484-.5092-.6304-.5092-1.0588 0-.74863.6068-1.35549 1.3555-1.35549.3371 0 .6455.12307.8827.32673.9506.69151 1.7892 1.59126 2.2696 2.13416l-2.039 1.9141c-.3078-.3198-1.382-1.3925-1.9596-1.9607z" fill="url(#an)"/></g><path clip-rule="evenodd" d="m17.1068 6.77086c.0484.04927.0476.12842-.0017.17676-.2381.23364-.5824.29343-.6919.30466-.0687.00704-.1301-.04292-.1371-.1116-.0071-.06867.0429-.13005.1115-.1371.0937-.0096.3665-.06179.5424-.23441.0493-.04835.1285-.04759.1768.00169z" fill="#86004c" fill-rule="evenodd"/><g filter="url(#o)"><path clip-rule="evenodd" d="m16.8739 4.62441c-.1004-.02014-.1834-.01978-.2168-.01561-.0822.01027-.1571-.04804-.1674-.13024s.048-.15717.1302-.16745c.0709-.00885.1867-.00615.313.01915.1272.02551.2772.07638.4081.17313.0666.04924.0807.14317.0314.20979-.0492.06662-.1431.08071-.2097.03146-.0848-.06262-.1894-.10029-.2888-.12023z" fill="#915d37" fill-rule="evenodd"/></g><path d="m16.3613 5.65723h.9883c0-.39156-.2212-.70899-.4941-.70899s-.4942.31743-.4942.70899z" fill="#fff"/><path d="m16.9668 5.65723v-.00391c0-.32037-.1373-.58008-.3066-.58008-.1694 0-.3067.25971-.3067.58008v.00391z" fill="url(#ao)"/><path d="m16.7713 5.65723c.0027-.02328.0041-.04746.0041-.07227 0-.18553-.0787-.33594-.1758-.33594s-.1758.15041-.1758.33594c0 .02481.0014.04899.0041.07227z" fill="url(#ap)"/><ellipse cx="16.535" cy="5.306" fill="url(#aq)" rx=".064" ry=".088" transform="matrix(.90916271 .41644106 -.41644106 .90916271 3.711482 -6.40399)"/><g filter="url(#p)"><path d="m17.3613 21.1943-1.3437 6.5.3594.3125 1.4687-6.5312 3.0156-3.875-.7031-.4844z" fill="url(#ar)"/></g><g filter="url(#q)"><path d="m23.1896 21.1418 3.4762 4.428-.514.199-3.4845-3.7081c-.3903-.4153-.6542-.9332-.7608-1.4931l-.1904-.9998.7516-.7737.5437 1.9933c.0351.1289.0957.2494.1782.3544z" fill="url(#as)"/></g></svg>