<svg fill="none" height="32" viewBox="0 0 32 32" width="32" xmlns="http://www.w3.org/2000/svg" xmlns:xlink="http://www.w3.org/1999/xlink"><filter id="a" color-interpolation-filters="sRGB" filterUnits="userSpaceOnUse" height="21.09" width="27.98" x="2.014" y="4.011"><feFlood flood-opacity="0" result="BackgroundImageFix"/><feBlend in="SourceGraphic" in2="BackgroundImageFix" mode="normal" result="shape"/><feColorMatrix in="SourceAlpha" result="hardAlpha" type="matrix" values="0 0 0 0 0 0 0 0 0 0 0 0 0 0 0 0 0 0 127 0"/><feOffset dy=".1"/><feGaussianBlur stdDeviation=".1"/><feComposite in2="hardAlpha" k2="-1" k3="1" operator="arithmetic"/><feColorMatrix type="matrix" values="0 0 0 0 0.81585 0 0 0 0 0.641744 0 0 0 0 0.41905 0 0 0 1 0"/><feBlend in2="shape" mode="normal" result="effect1_innerShadow_4002_1662"/></filter><filter id="b" color-interpolation-filters="sRGB" filterUnits="userSpaceOnUse" height="20.785" width="27.413" x="2.678" y="3.854"><feFlood flood-opacity="0" result="BackgroundImageFix"/><feBlend in="SourceGraphic" in2="BackgroundImageFix" mode="normal" result="shape"/><feGaussianBlur result="effect1_foregroundBlur_4002_1662" stdDeviation=".2"/></filter><filter id="c" color-interpolation-filters="sRGB" filterUnits="userSpaceOnUse" height="20.96" width="27.91" x="2.014" y="4.031"><feFlood flood-opacity="0" result="BackgroundImageFix"/><feBlend in="SourceGraphic" in2="BackgroundImageFix" mode="normal" result="shape"/><feColorMatrix in="SourceAlpha" result="hardAlpha" type="matrix" values="0 0 0 0 0 0 0 0 0 0 0 0 0 0 0 0 0 0 127 0"/><feOffset dy="-.3"/><feGaussianBlur stdDeviation=".2"/><feComposite in2="hardAlpha" k2="-1" k3="1" operator="arithmetic"/><feColorMatrix type="matrix" values="0 0 0 0 0.85098 0 0 0 0 0.482353 0 0 0 0 0.647059 0 0 0 1 0"/><feBlend in2="shape" mode="normal" result="effect1_innerShadow_4002_1662"/></filter><filter id="d" color-interpolation-filters="sRGB" filterUnits="userSpaceOnUse" height="15.768" width="15.268" x="8.495" y="1.462"><feFlood flood-opacity="0" result="BackgroundImageFix"/><feBlend in="SourceGraphic" in2="BackgroundImageFix" mode="normal" result="shape"/><feColorMatrix in="SourceAlpha" result="hardAlpha" type="matrix" values="0 0 0 0 0 0 0 0 0 0 0 0 0 0 0 0 0 0 127 0"/><feOffset dx=".25" dy="-.75"/><feGaussianBlur stdDeviation=".75"/><feComposite in2="hardAlpha" k2="-1" k3="1" operator="arithmetic"/><feColorMatrix type="matrix" values="0 0 0 0 0.262745 0 0 0 0 0.133333 0 0 0 0 0.184314 0 0 0 1 0"/><feBlend in2="shape" mode="normal" result="effect1_innerShadow_4002_1662"/></filter><filter id="e" color-interpolation-filters="sRGB" filterUnits="userSpaceOnUse" height="14.509" width="2.797" x="18.064" y="15.502"><feFlood flood-opacity="0" result="BackgroundImageFix"/><feBlend in="SourceGraphic" in2="BackgroundImageFix" mode="normal" result="shape"/><feColorMatrix in="SourceAlpha" result="hardAlpha" type="matrix" values="0 0 0 0 0 0 0 0 0 0 0 0 0 0 0 0 0 0 127 0"/><feOffset dy="-.1"/><feGaussianBlur stdDeviation=".125"/><feComposite in2="hardAlpha" k2="-1" k3="1" operator="arithmetic"/><feColorMatrix type="matrix" values="0 0 0 0 0.380392 0 0 0 0 0.164706 0 0 0 0 0.203922 0 0 0 1 0"/><feBlend in2="shape" mode="normal" result="effect1_innerShadow_4002_1662"/></filter><filter id="f" color-interpolation-filters="sRGB" filterUnits="userSpaceOnUse" height="14.463" width="2.797" x="11.157" y="15.548"><feFlood flood-opacity="0" result="BackgroundImageFix"/><feBlend in="SourceGraphic" in2="BackgroundImageFix" mode="normal" result="shape"/><feColorMatrix in="SourceAlpha" result="hardAlpha" type="matrix" values="0 0 0 0 0 0 0 0 0 0 0 0 0 0 0 0 0 0 127 0"/><feOffset dy="-.1"/><feGaussianBlur stdDeviation=".125"/><feComposite in2="hardAlpha" k2="-1" k3="1" operator="arithmetic"/><feColorMatrix type="matrix" values="0 0 0 0 0.380392 0 0 0 0 0.164706 0 0 0 0 0.203922 0 0 0 1 0"/><feBlend in2="shape" mode="normal" result="effect1_innerShadow_4002_1662"/></filter><filter id="g" color-interpolation-filters="sRGB" filterUnits="userSpaceOnUse" height="3.39" width="2.1" x="20.957" y="23.119"><feFlood flood-opacity="0" result="BackgroundImageFix"/><feBlend in="SourceGraphic" in2="BackgroundImageFix" mode="normal" result="shape"/><feColorMatrix in="SourceAlpha" result="hardAlpha" type="matrix" values="0 0 0 0 0 0 0 0 0 0 0 0 0 0 0 0 0 0 127 0"/><feOffset dx="-.1" dy=".1"/><feGaussianBlur stdDeviation=".1"/><feComposite in2="hardAlpha" k2="-1" k3="1" operator="arithmetic"/><feColorMatrix type="matrix" values="0 0 0 0 0.8 0 0 0 0 0.647059 0 0 0 0 0.545098 0 0 0 1 0"/><feBlend in2="shape" mode="normal" result="effect1_innerShadow_4002_1662"/></filter><filter id="h" color-interpolation-filters="sRGB" filterUnits="userSpaceOnUse" height="3.29" width="2.1" x="8.96" y="23.111"><feFlood flood-opacity="0" result="BackgroundImageFix"/><feBlend in="SourceGraphic" in2="BackgroundImageFix" mode="normal" result="shape"/><feColorMatrix in="SourceAlpha" result="hardAlpha" type="matrix" values="0 0 0 0 0 0 0 0 0 0 0 0 0 0 0 0 0 0 127 0"/><feOffset dx=".1"/><feGaussianBlur stdDeviation=".125"/><feComposite in2="hardAlpha" k2="-1" k3="1" operator="arithmetic"/><feColorMatrix type="matrix" values="0 0 0 0 0.6 0 0 0 0 0.443137 0 0 0 0 0.411765 0 0 0 1 0"/><feBlend in2="shape" mode="normal" result="effect1_innerShadow_4002_1662"/></filter><filter id="i" color-interpolation-filters="sRGB" filterUnits="userSpaceOnUse" height="5.391" width="4.793" x="8.96" y="24.62"><feFlood flood-opacity="0" result="BackgroundImageFix"/><feBlend in="SourceGraphic" in2="BackgroundImageFix" mode="normal" result="shape"/><feColorMatrix in="SourceAlpha" result="hardAlpha" type="matrix" values="0 0 0 0 0 0 0 0 0 0 0 0 0 0 0 0 0 0 127 0"/><feOffset dx=".4"/><feGaussianBlur stdDeviation=".25"/><feComposite in2="hardAlpha" k2="-1" k3="1" operator="arithmetic"/><feColorMatrix type="matrix" values="0 0 0 0 0.611765 0 0 0 0 0.458824 0 0 0 0 0.423529 0 0 0 1 0"/><feBlend in2="shape" mode="normal" result="effect1_innerShadow_4002_1662"/></filter><filter id="j" color-interpolation-filters="sRGB" filterUnits="userSpaceOnUse" height="5.591" width="4.793" x="18.464" y="24.42"><feFlood flood-opacity="0" result="BackgroundImageFix"/><feBlend in="SourceGraphic" in2="BackgroundImageFix" mode="normal" result="shape"/><feColorMatrix in="SourceAlpha" result="hardAlpha" type="matrix" values="0 0 0 0 0 0 0 0 0 0 0 0 0 0 0 0 0 0 127 0"/><feOffset dx=".2" dy="-.2"/><feGaussianBlur stdDeviation=".25"/><feComposite in2="hardAlpha" k2="-1" k3="1" operator="arithmetic"/><feColorMatrix type="matrix" values="0 0 0 0 0.560784 0 0 0 0 0.309804 0 0 0 0 0.345098 0 0 0 1 0"/><feBlend in2="shape" mode="normal" result="effect1_innerShadow_4002_1662"/><feColorMatrix in="SourceAlpha" result="hardAlpha" type="matrix" values="0 0 0 0 0 0 0 0 0 0 0 0 0 0 0 0 0 0 127 0"/><feOffset dx="-.2"/><feGaussianBlur stdDeviation=".2"/><feComposite in2="hardAlpha" k2="-1" k3="1" operator="arithmetic"/><feColorMatrix type="matrix" values="0 0 0 0 0.745098 0 0 0 0 0.592157 0 0 0 0 0.509804 0 0 0 1 0"/><feBlend in2="effect1_innerShadow_4002_1662" mode="normal" result="effect2_innerShadow_4002_1662"/></filter><filter id="k" color-interpolation-filters="sRGB" filterUnits="userSpaceOnUse" height=".3" width="2.222" x="18.883" y="25.9"><feFlood flood-opacity="0" result="BackgroundImageFix"/><feBlend in="SourceGraphic" in2="BackgroundImageFix" mode="normal" result="shape"/><feGaussianBlur result="effect1_foregroundBlur_4002_1662" stdDeviation=".05"/></filter><filter id="l" color-interpolation-filters="sRGB" filterUnits="userSpaceOnUse" height=".3" width="2.222" x="10.87" y="25.9"><feFlood flood-opacity="0" result="BackgroundImageFix"/><feBlend in="SourceGraphic" in2="BackgroundImageFix" mode="normal" result="shape"/><feGaussianBlur result="effect1_foregroundBlur_4002_1662" stdDeviation=".05"/></filter><filter id="m" color-interpolation-filters="sRGB" filterUnits="userSpaceOnUse" height=".3" width="2.222" x="18.883" y="27.166"><feFlood flood-opacity="0" result="BackgroundImageFix"/><feBlend in="SourceGraphic" in2="BackgroundImageFix" mode="normal" result="shape"/><feGaussianBlur result="effect1_foregroundBlur_4002_1662" stdDeviation=".05"/></filter><filter id="n" color-interpolation-filters="sRGB" filterUnits="userSpaceOnUse" height=".3" width="2.222" x="10.87" y="27.166"><feFlood flood-opacity="0" result="BackgroundImageFix"/><feBlend in="SourceGraphic" in2="BackgroundImageFix" mode="normal" result="shape"/><feGaussianBlur result="effect1_foregroundBlur_4002_1662" stdDeviation=".05"/></filter><filter id="o" color-interpolation-filters="sRGB" filterUnits="userSpaceOnUse" height=".3" width="2.222" x="18.883" y="28.431"><feFlood flood-opacity="0" result="BackgroundImageFix"/><feBlend in="SourceGraphic" in2="BackgroundImageFix" mode="normal" result="shape"/><feGaussianBlur result="effect1_foregroundBlur_4002_1662" stdDeviation=".05"/></filter><filter id="p" color-interpolation-filters="sRGB" filterUnits="userSpaceOnUse" height=".3" width="2.222" x="10.87" y="28.431"><feFlood flood-opacity="0" result="BackgroundImageFix"/><feBlend in="SourceGraphic" in2="BackgroundImageFix" mode="normal" result="shape"/><feGaussianBlur result="effect1_foregroundBlur_4002_1662" stdDeviation=".05"/></filter><filter id="q" color-interpolation-filters="sRGB" filterUnits="userSpaceOnUse" height=".696" width=".787" x="17.537" y="9.632"><feFlood flood-opacity="0" result="BackgroundImageFix"/><feBlend in="SourceGraphic" in2="BackgroundImageFix" mode="normal" result="shape"/><feGaussianBlur result="effect1_foregroundBlur_4002_1662" stdDeviation=".05"/></filter><filter id="r" color-interpolation-filters="sRGB" filterUnits="userSpaceOnUse" height=".913" width=".891" x="18.376" y="9.707"><feFlood flood-opacity="0" result="BackgroundImageFix"/><feBlend in="SourceGraphic" in2="BackgroundImageFix" mode="normal" result="shape"/><feGaussianBlur result="effect1_foregroundBlur_4002_1662" stdDeviation=".1"/></filter><filter id="s" color-interpolation-filters="sRGB" filterUnits="userSpaceOnUse" height="1.04" width=".986" x="13.934" y="9.644"><feFlood flood-opacity="0" result="BackgroundImageFix"/><feBlend in="SourceGraphic" in2="BackgroundImageFix" mode="normal" result="shape"/><feGaussianBlur result="effect1_foregroundBlur_4002_1662" stdDeviation=".1"/></filter><filter id="t" color-interpolation-filters="sRGB" filterUnits="userSpaceOnUse" height=".705" width=".913" x="13.179" y="9.624"><feFlood flood-opacity="0" result="BackgroundImageFix"/><feBlend in="SourceGraphic" in2="BackgroundImageFix" mode="normal" result="shape"/><feGaussianBlur result="effect1_foregroundBlur_4002_1662" stdDeviation=".05"/></filter><filter id="u" color-interpolation-filters="sRGB" filterUnits="userSpaceOnUse" height="3.218" width="3.368" x="9.709" y="9.131"><feFlood flood-opacity="0" result="BackgroundImageFix"/><feBlend in="SourceGraphic" in2="BackgroundImageFix" mode="normal" result="shape"/><feColorMatrix in="SourceAlpha" result="hardAlpha" type="matrix" values="0 0 0 0 0 0 0 0 0 0 0 0 0 0 0 0 0 0 127 0"/><feOffset dx=".15"/><feGaussianBlur stdDeviation=".25"/><feComposite in2="hardAlpha" k2="-1" k3="1" operator="arithmetic"/><feColorMatrix type="matrix" values="0 0 0 0 0.607843 0 0 0 0 0.458824 0 0 0 0 0.403922 0 0 0 1 0"/><feBlend in2="shape" mode="normal" result="effect1_innerShadow_4002_1662"/></filter><filter id="v" color-interpolation-filters="sRGB" filterUnits="userSpaceOnUse" height="3.468" width="3.218" x="19.222" y="8.881"><feFlood flood-opacity="0" result="BackgroundImageFix"/><feBlend in="SourceGraphic" in2="BackgroundImageFix" mode="normal" result="shape"/><feColorMatrix in="SourceAlpha" result="hardAlpha" type="matrix" values="0 0 0 0 0 0 0 0 0 0 0 0 0 0 0 0 0 0 127 0"/><feOffset dy="-.25"/><feGaussianBlur stdDeviation=".25"/><feComposite in2="hardAlpha" k2="-1" k3="1" operator="arithmetic"/><feColorMatrix type="matrix" values="0 0 0 0 0.556863 0 0 0 0 0.34902 0 0 0 0 0.384314 0 0 0 1 0"/><feBlend in2="shape" mode="normal" result="effect1_innerShadow_4002_1662"/></filter><filter id="w" color-interpolation-filters="sRGB" filterUnits="userSpaceOnUse" height="3.148" width="3.148" x="19.257" y="9.166"><feFlood flood-opacity="0" result="BackgroundImageFix"/><feBlend in="SourceGraphic" in2="BackgroundImageFix" mode="normal" result="shape"/><feGaussianBlur result="effect1_foregroundBlur_4002_1662" stdDeviation=".25"/></filter><filter id="x" color-interpolation-filters="sRGB" filterUnits="userSpaceOnUse" height="2.848" width="2.848" x="9.913" y="9.316"><feFlood flood-opacity="0" result="BackgroundImageFix"/><feBlend in="SourceGraphic" in2="BackgroundImageFix" mode="normal" result="shape"/><feGaussianBlur result="effect1_foregroundBlur_4002_1662" stdDeviation=".175"/></filter><filter id="y" color-interpolation-filters="sRGB" filterUnits="userSpaceOnUse" height="11.127" width="10.191" x="10.908" y="5.833"><feFlood flood-opacity="0" result="BackgroundImageFix"/><feBlend in="SourceGraphic" in2="BackgroundImageFix" mode="normal" result="shape"/><feColorMatrix in="SourceAlpha" result="hardAlpha" type="matrix" values="0 0 0 0 0 0 0 0 0 0 0 0 0 0 0 0 0 0 127 0"/><feOffset dy=".25"/><feGaussianBlur stdDeviation=".15"/><feComposite in2="hardAlpha" k2="-1" k3="1" operator="arithmetic"/><feColorMatrix type="matrix" values="0 0 0 0 0.407843 0 0 0 0 0.223529 0 0 0 0 0.25098 0 0 0 1 0"/><feBlend in2="shape" mode="normal" result="effect1_innerShadow_4002_1662"/></filter><filter id="z" color-interpolation-filters="sRGB" filterUnits="userSpaceOnUse" height="3.682" width="2.877" x="14.403" y="9.735"><feFlood flood-opacity="0" result="BackgroundImageFix"/><feBlend in="SourceGraphic" in2="BackgroundImageFix" mode="normal" result="shape"/><feGaussianBlur result="effect1_foregroundBlur_4002_1662" stdDeviation=".25"/></filter><filter id="A" color-interpolation-filters="sRGB" filterUnits="userSpaceOnUse" height="3.182" width="2.377" x="14.815" y="9.847"><feFlood flood-opacity="0" result="BackgroundImageFix"/><feBlend in="SourceGraphic" in2="BackgroundImageFix" mode="normal" result="shape"/><feGaussianBlur result="effect1_foregroundBlur_4002_1662" stdDeviation=".125"/></filter><filter id="B" color-interpolation-filters="sRGB" filterUnits="userSpaceOnUse" height="1.285" width="3.001" x="16.946" y="9.336"><feFlood flood-opacity="0" result="BackgroundImageFix"/><feBlend in="SourceGraphic" in2="BackgroundImageFix" mode="normal" result="shape"/><feColorMatrix in="SourceAlpha" result="hardAlpha" type="matrix" values="0 0 0 0 0 0 0 0 0 0 0 0 0 0 0 0 0 0 127 0"/><feOffset dx="-.2"/><feGaussianBlur stdDeviation=".2"/><feComposite in2="hardAlpha" k2="-1" k3="1" operator="arithmetic"/><feColorMatrix type="matrix" values="0 0 0 0 0.117647 0 0 0 0 0.0705882 0 0 0 0 0.156863 0 0 0 1 0"/><feBlend in2="shape" mode="normal" result="effect1_innerShadow_4002_1662"/></filter><filter id="C" color-interpolation-filters="sRGB" filterUnits="userSpaceOnUse" height="1.285" width="3.001" x="12.06" y="9.336"><feFlood flood-opacity="0" result="BackgroundImageFix"/><feBlend in="SourceGraphic" in2="BackgroundImageFix" mode="normal" result="shape"/><feColorMatrix in="SourceAlpha" result="hardAlpha" type="matrix" values="0 0 0 0 0 0 0 0 0 0 0 0 0 0 0 0 0 0 127 0"/><feOffset dx=".2"/><feGaussianBlur stdDeviation=".125"/><feComposite in2="hardAlpha" k2="-1" k3="1" operator="arithmetic"/><feColorMatrix type="matrix" values="0 0 0 0 0.0862745 0 0 0 0 0.054902 0 0 0 0 0.113725 0 0 0 1 0"/><feBlend in2="shape" mode="normal" result="effect1_innerShadow_4002_1662"/></filter><filter id="D" color-interpolation-filters="sRGB" filterUnits="userSpaceOnUse" height="1.091" width="2.453" x="12.196" y="7.912"><feFlood flood-opacity="0" result="BackgroundImageFix"/><feBlend in="SourceGraphic" in2="BackgroundImageFix" mode="normal" result="shape"/><feColorMatrix in="SourceAlpha" result="hardAlpha" type="matrix" values="0 0 0 0 0 0 0 0 0 0 0 0 0 0 0 0 0 0 127 0"/><feOffset dx=".2" dy="-.2"/><feGaussianBlur stdDeviation=".15"/><feComposite in2="hardAlpha" k2="-1" k3="1" operator="arithmetic"/><feColorMatrix type="matrix" values="0 0 0 0 0.211765 0 0 0 0 0.121569 0 0 0 0 0.12549 0 0 0 1 0"/><feBlend in2="shape" mode="normal" result="effect1_innerShadow_4002_1662"/></filter><filter id="E" color-interpolation-filters="sRGB" filterUnits="userSpaceOnUse" height="1.091" width="2.453" x="17.613" y="7.912"><feFlood flood-opacity="0" result="BackgroundImageFix"/><feBlend in="SourceGraphic" in2="BackgroundImageFix" mode="normal" result="shape"/><feColorMatrix in="SourceAlpha" result="hardAlpha" type="matrix" values="0 0 0 0 0 0 0 0 0 0 0 0 0 0 0 0 0 0 127 0"/><feOffset dx=".2" dy="-.2"/><feGaussianBlur stdDeviation=".15"/><feComposite in2="hardAlpha" k2="-1" k3="1" operator="arithmetic"/><feColorMatrix type="matrix" values="0 0 0 0 0.211765 0 0 0 0 0.121569 0 0 0 0 0.12549 0 0 0 1 0"/><feBlend in2="shape" mode="normal" result="effect1_innerShadow_4002_1662"/></filter><filter id="F" color-interpolation-filters="sRGB" filterUnits="userSpaceOnUse" height=".696" width=".787" x="17.452" y="9.703"><feFlood flood-opacity="0" result="BackgroundImageFix"/><feBlend in="SourceGraphic" in2="BackgroundImageFix" mode="normal" result="shape"/><feGaussianBlur result="effect1_foregroundBlur_4002_1662" stdDeviation=".05"/></filter><filter id="G" color-interpolation-filters="sRGB" filterUnits="userSpaceOnUse" height=".913" width=".891" x="18.292" y="9.779"><feFlood flood-opacity="0" result="BackgroundImageFix"/><feBlend in="SourceGraphic" in2="BackgroundImageFix" mode="normal" result="shape"/><feGaussianBlur result="effect1_foregroundBlur_4002_1662" stdDeviation=".1"/></filter><filter id="H" color-interpolation-filters="sRGB" filterUnits="userSpaceOnUse" height="1.04" width=".986" x="13.849" y="9.715"><feFlood flood-opacity="0" result="BackgroundImageFix"/><feBlend in="SourceGraphic" in2="BackgroundImageFix" mode="normal" result="shape"/><feGaussianBlur result="effect1_foregroundBlur_4002_1662" stdDeviation=".1"/></filter><filter id="I" color-interpolation-filters="sRGB" filterUnits="userSpaceOnUse" height=".705" width=".913" x="13.094" y="9.695"><feFlood flood-opacity="0" result="BackgroundImageFix"/><feBlend in="SourceGraphic" in2="BackgroundImageFix" mode="normal" result="shape"/><feGaussianBlur result="effect1_foregroundBlur_4002_1662" stdDeviation=".05"/></filter><filter id="J" color-interpolation-filters="sRGB" filterUnits="userSpaceOnUse" height="1.378" width="2.661" x="17.443" y="7.834"><feFlood flood-opacity="0" result="BackgroundImageFix"/><feBlend in="SourceGraphic" in2="BackgroundImageFix" mode="normal" result="shape"/><feGaussianBlur result="effect1_foregroundBlur_4002_1662" stdDeviation=".2"/></filter><filter id="K" color-interpolation-filters="sRGB" filterUnits="userSpaceOnUse" height="1.378" width="2.661" x="11.992" y="7.834"><feFlood flood-opacity="0" result="BackgroundImageFix"/><feBlend in="SourceGraphic" in2="BackgroundImageFix" mode="normal" result="shape"/><feGaussianBlur result="effect1_foregroundBlur_4002_1662" stdDeviation=".2"/></filter><filter id="L" color-interpolation-filters="sRGB" filterUnits="userSpaceOnUse" height="4.613" width="4.312" x="9.65" y="3.799"><feFlood flood-opacity="0" result="BackgroundImageFix"/><feBlend in="SourceGraphic" in2="BackgroundImageFix" mode="normal" result="shape"/><feColorMatrix in="SourceAlpha" result="hardAlpha" type="matrix" values="0 0 0 0 0 0 0 0 0 0 0 0 0 0 0 0 0 0 127 0"/><feOffset dx=".5" dy=".5"/><feGaussianBlur stdDeviation=".5"/><feComposite in2="hardAlpha" k2="-1" k3="1" operator="arithmetic"/><feColorMatrix type="matrix" values="0 0 0 0 0.345098 0 0 0 0 0.286275 0 0 0 0 0.27451 0 0 0 1 0"/><feBlend in2="shape" mode="normal" result="effect1_innerShadow_4002_1662"/><feGaussianBlur result="effect2_foregroundBlur_4002_1662" stdDeviation=".2"/></filter><filter id="M" color-interpolation-filters="sRGB" filterUnits="userSpaceOnUse" height="5.782" width="8.767" x="12.834" y="2.664"><feFlood flood-opacity="0" result="BackgroundImageFix"/><feBlend in="SourceGraphic" in2="BackgroundImageFix" mode="normal" result="shape"/><feColorMatrix in="SourceAlpha" result="hardAlpha" type="matrix" values="0 0 0 0 0 0 0 0 0 0 0 0 0 0 0 0 0 0 127 0"/><feOffset dx="-.3" dy=".2"/><feGaussianBlur stdDeviation=".4"/><feComposite in2="hardAlpha" k2="-1" k3="1" operator="arithmetic"/><feColorMatrix type="matrix" values="0 0 0 0 0.415686 0 0 0 0 0.317647 0 0 0 0 0.305882 0 0 0 1 0"/><feBlend in2="shape" mode="normal" result="effect1_innerShadow_4002_1662"/><feGaussianBlur result="effect2_foregroundBlur_4002_1662" stdDeviation=".125"/></filter><filter id="N" color-interpolation-filters="sRGB" filterUnits="userSpaceOnUse" height="2.31" width="1.145" x="12.813" y="3.898"><feFlood flood-opacity="0" result="BackgroundImageFix"/><feBlend in="SourceGraphic" in2="BackgroundImageFix" mode="normal" result="shape"/><feGaussianBlur result="effect1_foregroundBlur_4002_1662" stdDeviation=".1"/></filter><filter id="O" color-interpolation-filters="sRGB" filterUnits="userSpaceOnUse" height="3.372" width="6.427" x="15.422" y="4.707"><feFlood flood-opacity="0" result="BackgroundImageFix"/><feBlend in="SourceGraphic" in2="BackgroundImageFix" mode="normal" result="shape"/><feGaussianBlur result="effect1_foregroundBlur_4002_1662" stdDeviation=".375"/></filter><filter id="P" color-interpolation-filters="sRGB" filterUnits="userSpaceOnUse" height="4.16" width="10.29" x="10.894" y="8.541"><feFlood flood-opacity="0" result="BackgroundImageFix"/><feBlend in="SourceGraphic" in2="BackgroundImageFix" mode="normal" result="shape"/><feColorMatrix in="SourceAlpha" result="hardAlpha" type="matrix" values="0 0 0 0 0 0 0 0 0 0 0 0 0 0 0 0 0 0 127 0"/><feOffset dx="-.1" dy=".1"/><feGaussianBlur stdDeviation=".1"/><feComposite in2="hardAlpha" k2="-1" k3="1" operator="arithmetic"/><feColorMatrix type="matrix" values="0 0 0 0 0.381221 0 0 0 0 0.2699 0 0 0 0 0.482422 0 0 0 1 0"/><feBlend in2="shape" mode="normal" result="effect1_innerShadow_4002_1662"/><feColorMatrix in="SourceAlpha" result="hardAlpha" type="matrix" values="0 0 0 0 0 0 0 0 0 0 0 0 0 0 0 0 0 0 127 0"/><feOffset dy="-.1"/><feGaussianBlur stdDeviation=".05"/><feComposite in2="hardAlpha" k2="-1" k3="1" operator="arithmetic"/><feColorMatrix type="matrix" values="0 0 0 0 0.2 0 0 0 0 0.109804 0 0 0 0 0.211765 0 0 0 1 0"/><feBlend in2="effect1_innerShadow_4002_1662" mode="normal" result="effect2_innerShadow_4002_1662"/></filter><linearGradient id="Q" gradientUnits="userSpaceOnUse" x1="11.828" x2="31.271" y1="4.62" y2="22.855"><stop offset="0" stop-color="#efbe85"/><stop offset=".568" stop-color="#e8ac81"/><stop offset="1" stop-color="#d6753d"/></linearGradient><linearGradient id="R" gradientUnits="userSpaceOnUse" x1="30.072" x2="9.135" y1="13.308" y2="13.308"><stop offset="0" stop-color="#509245"/><stop offset="1" stop-color="#44803d"/></linearGradient><radialGradient id="S" cx="0" cy="0" gradientTransform="matrix(10.00001097 -15.24999732 20.87139706 13.68617942 6.4471 25.7454)" gradientUnits="userSpaceOnUse" r="1"><stop offset="0" stop-color="#25585f"/><stop offset="1" stop-color="#25585f" stop-opacity="0"/></radialGradient><radialGradient id="T" cx="0" cy="0" gradientTransform="matrix(-9.99995913 -14.06247125 13.90983001 -9.89141447 29.5721 25.4954)" gradientUnits="userSpaceOnUse" r="1"><stop offset="0" stop-color="#358175"/><stop offset="1" stop-color="#358175" stop-opacity="0"/></radialGradient><linearGradient id="U" gradientUnits="userSpaceOnUse" x1="13.447" x2="31.259" y1="3.561" y2="24.373"><stop offset="0" stop-color="#ffd59c"/><stop offset="1" stop-color="#f69c5b"/></linearGradient><linearGradient id="V" gradientUnits="userSpaceOnUse" x1="-4.897" x2="28.916" y1="25.652" y2="25.652"><stop offset="0" stop-color="#d18f7b"/><stop offset="1" stop-color="#f1b58b"/></linearGradient><linearGradient id="W" gradientUnits="userSpaceOnUse" x1="3.103" x2="3.103" y1="5.214" y2="23.652"><stop offset="0" stop-color="#d78248"/><stop offset="1" stop-color="#d78248" stop-opacity="0"/></linearGradient><radialGradient id="X" cx="0" cy="0" gradientTransform="matrix(0 9.31138 -.617645 0 2.01379 4.33105)" gradientUnits="userSpaceOnUse" r="1"><stop offset=".355" stop-color="#bc7b53"/><stop offset="1" stop-color="#bc7b53" stop-opacity="0"/></radialGradient><linearGradient id="Y" gradientUnits="userSpaceOnUse" x1="20.697" x2="14.563" y1="3.788" y2="14.549"><stop offset="0" stop-color="#6d524e"/><stop offset="1" stop-color="#2c1c24"/></linearGradient><radialGradient id="Z" cx="0" cy="0" gradientTransform="matrix(-.603403 4.55907251 -5.69521476 -.75377386 15.7023 13.2411)" gradientUnits="userSpaceOnUse" r="1"><stop offset=".591" stop-color="#261326"/><stop offset="1" stop-color="#261326" stop-opacity="0"/></radialGradient><radialGradient id="aa" cx="0" cy="0" gradientTransform="matrix(-2.88301442 1.94432495 -2.55469352 -3.78805932 12.8864 13.5093)" gradientUnits="userSpaceOnUse" r="1"><stop offset=".258" stop-color="#25131c"/><stop offset="1" stop-color="#25131c" stop-opacity="0"/></radialGradient><radialGradient id="ab" cx="0" cy="0" gradientTransform="matrix(-1.30737385 1.70966478 -1.31278583 -1.0038821 11.16 10.9616)" gradientUnits="userSpaceOnUse" r="1"><stop offset=".334" stop-color="#27141e"/><stop offset="1" stop-color="#27141e" stop-opacity="0"/></radialGradient><radialGradient id="ac" cx="0" cy="0" gradientTransform="matrix(-1.29063607 2.11191395 -1.48765585 -.90913851 11.6125 8.93346)" gradientUnits="userSpaceOnUse" r="1"><stop offset=".321" stop-color="#230c14"/><stop offset="1" stop-color="#230c14" stop-opacity="0"/></radialGradient><radialGradient id="ad" cx="0" cy="0" gradientTransform="matrix(1.37443043 2.61476537 -3.62969432 1.90791969 12.4841 2.68149)" gradientUnits="userSpaceOnUse" r="1"><stop offset="0" stop-color="#554543"/><stop offset="1" stop-color="#554543" stop-opacity="0"/></radialGradient><radialGradient id="ae" cx="0" cy="0" gradientTransform="matrix(-1.44137979 1.44148042 -2.01444783 -2.0143072 21.8369 4.75989)" gradientUnits="userSpaceOnUse" r="1"><stop offset="0" stop-color="#6e5350"/><stop offset="1" stop-color="#6e5350" stop-opacity="0"/></radialGradient><radialGradient id="af" cx="0" cy="0" gradientTransform="matrix(-1.84366344 .5363666 -1.11855104 -3.84481747 23.513 9.88885)" gradientUnits="userSpaceOnUse" r="1"><stop offset="0" stop-color="#604947"/><stop offset="1" stop-color="#604947" stop-opacity="0"/></radialGradient><radialGradient id="ag" cx="0" cy="0" gradientTransform="matrix(-2.81580991 .70399198 -.8967816 -3.58692513 22.9096 13.3082)" gradientUnits="userSpaceOnUse" r="1"><stop offset="0" stop-color="#564544"/><stop offset="1" stop-color="#564544" stop-opacity="0"/></radialGradient><radialGradient id="ah" cx="0" cy="0" gradientTransform="matrix(-.90444277 -2.65026176 2.09620663 -.7153629 20.7365 7.45485)" gradientUnits="userSpaceOnUse" r="1"><stop offset="0" stop-color="#5f4846"/><stop offset="1" stop-color="#5f4846" stop-opacity="0"/></radialGradient><radialGradient id="ai" cx="0" cy="0" gradientTransform="matrix(1.50391889 .15775324 -.25560559 2.43678083 9.86207 9.8527)" gradientUnits="userSpaceOnUse" r="1"><stop offset="0" stop-color="#56413d"/><stop offset="1" stop-color="#56413d" stop-opacity="0"/></radialGradient><radialGradient id="aj" cx="0" cy="0" gradientTransform="matrix(-.83805087 -3.70425259 1.33694154 -.30246993 21.1161 9.20162)" gradientUnits="userSpaceOnUse" r="1"><stop offset="0" stop-color="#3e2125"/><stop offset="1" stop-color="#3e2125" stop-opacity="0"/></radialGradient><radialGradient id="ak" cx="0" cy="0" gradientTransform="matrix(0 14.0469 -6.21865 0 16.0095 15.9641)" gradientUnits="userSpaceOnUse" r="1"><stop offset="0" stop-color="#61342d"/><stop offset="1" stop-color="#764747"/></radialGradient><radialGradient id="al" cx="0" cy="0" gradientTransform="matrix(0 8.375 -2.9375 0 22.6658 20.4954)" gradientUnits="userSpaceOnUse" r="1"><stop offset="0" stop-color="#9a6d66"/><stop offset="1" stop-color="#9a6d66" stop-opacity="0"/></radialGradient><radialGradient id="am" cx="0" cy="0" gradientTransform="matrix(-1.53124681 1.53124681 -1.23437509 -1.23437509 12.7283 19.0891)" gradientUnits="userSpaceOnUse" r="1"><stop offset="0" stop-color="#61332b"/><stop offset="1" stop-color="#61332b" stop-opacity="0"/></radialGradient><radialGradient id="an" cx="0" cy="0" gradientTransform="matrix(0 -10.1875 3.85106 0 27.0038 28.2452)" gradientUnits="userSpaceOnUse" r="1"><stop offset="0" stop-color="#7c5a5a"/><stop offset="1" stop-color="#735451"/></radialGradient><linearGradient id="ao" gradientUnits="userSpaceOnUse" x1="25.183" x2="25.183" y1="30.465" y2="26.648"><stop offset="0" stop-color="#614451"/><stop offset="1" stop-color="#614451" stop-opacity="0"/></linearGradient><linearGradient id="ap" gradientUnits="userSpaceOnUse" x1="22.416" x2="23.228" y1="29.276" y2="29.261"><stop offset=".254" stop-color="#4f2737"/><stop offset="1" stop-color="#4f2737" stop-opacity="0"/></linearGradient><linearGradient id="aq" gradientUnits="userSpaceOnUse" x1="7.144" x2="9.538" y1="28.158" y2="28.158"><stop offset="0" stop-color="#623d44"/><stop offset="1" stop-color="#4f2e37"/></linearGradient><radialGradient id="ar" cx="0" cy="0" gradientTransform="matrix(-6.92068 0 0 -17.2807 11.4676 29.7938)" gradientUnits="userSpaceOnUse" r="1"><stop offset=".576" stop-color="#5d3841" stop-opacity="0"/><stop offset="1" stop-color="#7f6260"/></radialGradient><radialGradient id="as" cx="0" cy="0" gradientTransform="matrix(3.59375 0 0 12.8972 15.1971 19.4027)" gradientUnits="userSpaceOnUse" r="1"><stop offset="0" stop-color="#aba5a8"/><stop offset="1" stop-color="#544b50"/></radialGradient><linearGradient id="at" gradientUnits="userSpaceOnUse" x1="18.064" x2="20.86" y1="18.385" y2="18.385"><stop offset="0" stop-color="#613327"/><stop offset=".371" stop-color="#764440"/></linearGradient><radialGradient id="au" cx="0" cy="0" gradientTransform="matrix(-1.59385077 -3.38388545 2.04685418 -.96409295 21.2405 19.4548)" gradientUnits="userSpaceOnUse" r="1"><stop offset="0" stop-color="#90645e"/><stop offset="1" stop-color="#90645e" stop-opacity="0"/></radialGradient><radialGradient id="av" cx="0" cy="0" gradientTransform="matrix(-.94530811 -1.33594683 .24330825 -.17216348 19.6815 20.4641)" gradientUnits="userSpaceOnUse" r="1"><stop offset="0" stop-color="#8a5d57"/><stop offset="1" stop-color="#8a5d57" stop-opacity="0"/></radialGradient><radialGradient id="aw" cx="0" cy="0" gradientTransform="matrix(.68750123 1.12500049 -2.1057964 1.28687731 17.625 15.9063)" gradientUnits="userSpaceOnUse" r="1"><stop offset=".359" stop-color="#481e13"/><stop offset="1" stop-color="#4a1d14" stop-opacity="0"/></radialGradient><linearGradient id="ax" gradientUnits="userSpaceOnUse" x1="13.954" x2="11.157" y1="18.385" y2="18.385"><stop offset="0" stop-color="#744036"/><stop offset=".639" stop-color="#72433e"/></linearGradient><radialGradient id="ay" cx="0" cy="0" gradientTransform="matrix(.06250193 -3.12499502 1.26231755 .02524717 13.5252 20.3703)" gradientUnits="userSpaceOnUse" r="1"><stop offset="0" stop-color="#875955"/><stop offset="1" stop-color="#875955" stop-opacity="0"/></radialGradient><linearGradient id="az" gradientUnits="userSpaceOnUse" x1="12.119" x2="12.681" y1="16.948" y2="17.167"><stop offset="0" stop-color="#6f5048"/><stop offset="1" stop-color="#6f5048" stop-opacity="0"/></linearGradient><radialGradient id="aA" cx="0" cy="0" gradientTransform="matrix(-.31249364 .76562769 -1.43311519 -.58493101 14.1407 16.1406)" gradientUnits="userSpaceOnUse" r="1"><stop offset=".219" stop-color="#481e13"/><stop offset="1" stop-color="#4a1d14" stop-opacity="0"/></radialGradient><radialGradient id="aB" cx="0" cy="0" gradientTransform="matrix(0 3.07812 -2.78125 0 16.25 16.3438)" gradientUnits="userSpaceOnUse" r="1"><stop offset="0" stop-color="#856353"/><stop offset=".574" stop-color="#775244"/><stop offset="1" stop-color="#492e25"/></radialGradient><radialGradient id="aC" cx="0" cy="0" gradientTransform="matrix(-1.1289309 1.05532666 -1.52030739 -1.62634193 22.6463 23.7818)" gradientUnits="userSpaceOnUse" r="1"><stop offset=".28" stop-color="#b78876"/><stop offset="1" stop-color="#865f46"/></radialGradient><radialGradient id="aD" cx="0" cy="0" gradientTransform="matrix(.61901353 -.52681994 .31382355 .36874273 22.7884 23.5003)" gradientUnits="userSpaceOnUse" r="1"><stop offset="0" stop-color="#cca48e"/><stop offset="1" stop-color="#cca48e" stop-opacity="0"/></radialGradient><radialGradient id="aE" cx="0" cy="0" gradientTransform="matrix(-1.84375238 -.29687273 .93019963 -5.77708091 11.1033 24.0237)" gradientUnits="userSpaceOnUse" r="1"><stop offset="0" stop-color="#58382a"/><stop offset="1" stop-color="#86645b"/></radialGradient><linearGradient id="aF" gradientUnits="userSpaceOnUse" x1="21.853" x2="17.478" y1="24.808" y2="24.808"><stop offset="0" stop-color="#e9266f"/><stop offset="1" stop-color="#bf1b74"/></linearGradient><linearGradient id="aG" gradientUnits="userSpaceOnUse" x1="10.324" x2="10.752" y1="23.589" y2="23.589"><stop offset="0" stop-color="#6d6670"/><stop offset="1" stop-color="#6d6670" stop-opacity="0"/></linearGradient><linearGradient id="aH" gradientUnits="userSpaceOnUse" x1="12.873" x2="8.572" y1="28.027" y2="28.027"><stop offset="0" stop-color="#b78c74"/><stop offset=".716" stop-color="#936567"/></linearGradient><linearGradient id="aI"><stop offset="0" stop-color="#c59c8b"/><stop offset="1" stop-color="#a97d6f" stop-opacity="0"/></linearGradient><radialGradient id="aJ" cx="0" cy="0" gradientTransform="matrix(-1.67187 0 0 -.659547 12.197 25.3757)" gradientUnits="userSpaceOnUse" r="1" xlink:href="#aI"/><radialGradient id="aK" cx="0" cy="0" gradientTransform="matrix(-1.53125 0 0 -.604071 12.2126 26.6569)" gradientUnits="userSpaceOnUse" r="1" xlink:href="#aI"/><radialGradient id="aL" cx="0" cy="0" gradientTransform="matrix(-1.34375 0 0 -.530103 12.2595 27.9382)" gradientUnits="userSpaceOnUse" r="1" xlink:href="#aI"/><radialGradient id="aM" cx="0" cy="0" gradientTransform="matrix(-1.5 0 0 -.591743 12.3298 29.2975)" gradientUnits="userSpaceOnUse" r="1" xlink:href="#aI"/><linearGradient id="aN" gradientUnits="userSpaceOnUse" x1="22.478" x2="18.664" y1="27.62" y2="27.62"><stop offset="0" stop-color="#ca9d86"/><stop offset=".807" stop-color="#90605d"/></linearGradient><linearGradient id="aO"><stop offset="0" stop-color="#cfa591"/><stop offset="1" stop-color="#bb8c7c" stop-opacity="0"/></linearGradient><radialGradient id="aP" cx="0" cy="0" gradientTransform="matrix(1.70312 0 0 .671875 21.2595 25.3757)" gradientUnits="userSpaceOnUse" r="1" xlink:href="#aO"/><radialGradient id="aQ" cx="0" cy="0" gradientTransform="matrix(1.625 0 0 .641055 21.197 26.6569)" gradientUnits="userSpaceOnUse" r="1" xlink:href="#aO"/><radialGradient id="aR" cx="0" cy="0" gradientTransform="matrix(1.5625 0 0 .616399 21.1032 27.9382)" gradientUnits="userSpaceOnUse" r="1" xlink:href="#aO"/><radialGradient id="aS" cx="0" cy="0" gradientTransform="matrix(1.4375 0 0 .567087 20.9626 29.2975)" gradientUnits="userSpaceOnUse" r="1" xlink:href="#aO"/><linearGradient id="aT" gradientUnits="userSpaceOnUse" x1="10.791" x2="21.664" y1="21.964" y2="21.964"><stop offset="0" stop-color="#564567"/><stop offset="1" stop-color="#564567"/></linearGradient><linearGradient id="aU" gradientUnits="userSpaceOnUse" x1="16.41" x2="16.41" y1="21.027" y2="22.198"><stop offset="0" stop-color="#dcd5e1"/><stop offset="1" stop-color="#b2acb9"/></linearGradient><linearGradient id="aV"><stop offset="0" stop-color="#773e41"/><stop offset="1" stop-color="#33141c" stop-opacity="0"/><stop offset="1" stop-color="#773e41" stop-opacity="0"/></linearGradient><linearGradient id="aW" gradientUnits="userSpaceOnUse" x1="19.033" x2="20.861" xlink:href="#aV" y1="26.128" y2="26.128"/><linearGradient id="aX"><stop offset="0" stop-color="#9c6c55"/><stop offset="1" stop-color="#9c6c55" stop-opacity="0"/></linearGradient><linearGradient id="aY" gradientUnits="userSpaceOnUse" x1="12.942" x2="10.744" xlink:href="#aX" y1="26.128" y2="26.128"/><linearGradient id="aZ" gradientUnits="userSpaceOnUse" x1="19.033" x2="20.861" xlink:href="#aV" y1="27.394" y2="27.394"/><linearGradient id="a0" gradientUnits="userSpaceOnUse" x1="12.942" x2="10.744" xlink:href="#aX" y1="27.394" y2="27.394"/><linearGradient id="a1" gradientUnits="userSpaceOnUse" x1="19.033" x2="20.861" xlink:href="#aV" y1="28.659" y2="28.659"/><linearGradient id="a2" gradientUnits="userSpaceOnUse" x1="12.942" x2="10.744" xlink:href="#aX" y1="28.659" y2="28.659"/><linearGradient id="a3"><stop offset=".802" stop-color="#7d574a"/><stop offset="1" stop-color="#694b43"/><stop offset="1" stop-color="#804d49"/><stop offset="1" stop-color="#664842"/></linearGradient><radialGradient id="a4" cx="0" cy="0" gradientTransform="matrix(0 .81132 -1.29049 0 18.2707 10.0718)" gradientUnits="userSpaceOnUse" r="1" xlink:href="#a3"/><linearGradient id="a5"><stop offset=".766" stop-color="#ffe6e2" stop-opacity="0"/><stop offset=".966" stop-color="#ffe6e2"/></linearGradient><radialGradient id="a6" cx="0" cy="0" gradientTransform="matrix(-.23191737 -.2988568 .41145456 -.31929492 18.0426 10.1559)" gradientUnits="userSpaceOnUse" r="1" xlink:href="#a5"/><linearGradient id="a7"><stop offset="0" stop-color="#b4948d"/><stop offset="1" stop-color="#b4948d" stop-opacity="0"/></linearGradient><linearGradient id="a8" gradientUnits="userSpaceOnUse" x1="19.049" x2="18.735" xlink:href="#a7" y1="10.126" y2="10.319"/><radialGradient id="a9" cx="0" cy="0" gradientTransform="matrix(0 .811361 -1.29056 0 13.9067 10.0718)" gradientUnits="userSpaceOnUse" r="1" xlink:href="#a3"/><linearGradient id="ba" gradientUnits="userSpaceOnUse" x1="14.651" x2="14.337" xlink:href="#a7" y1="10.126" y2="10.319"/><radialGradient id="bb" cx="0" cy="0" gradientTransform="matrix(-.00773581 -.49408344 .59390921 -.00929877 13.6202 10.2909)" gradientUnits="userSpaceOnUse" r="1" xlink:href="#a5"/><linearGradient id="bc" gradientUnits="userSpaceOnUse" x1="9.709" x2="11.567" y1="10.828" y2="10.828"><stop offset="0" stop-color="#8d645f"/><stop offset="1" stop-color="#604138"/></linearGradient><radialGradient id="bd" cx="0" cy="0" gradientTransform="matrix(-.65369806 -1.20346111 1.36368065 -.74072638 10.9253 12.3495)" gradientUnits="userSpaceOnUse" r="1"><stop offset="0" stop-color="#814e62"/><stop offset="1" stop-color="#814e62" stop-opacity="0"/></radialGradient><radialGradient id="be" cx="0" cy="0" gradientTransform="matrix(2.4890503 -1.13138887 1.38137594 3.0390207 20.0433 11.1796)" gradientUnits="userSpaceOnUse" r="1"><stop offset=".64" stop-color="#b28279"/><stop offset="1" stop-color="#cca58b"/></radialGradient><radialGradient id="bf" cx="0" cy="0" gradientTransform="matrix(1.20681 0 0 .519601 20.9483 9.03413)" gradientUnits="userSpaceOnUse" r="1"><stop offset="0" stop-color="#906d53"/><stop offset="1" stop-color="#906d53" stop-opacity="0"/></radialGradient><radialGradient id="bg" cx="0" cy="0" gradientTransform="matrix(1.50988852 -.11231354 .08779841 1.18031905 20.3954 10.8527)" gradientUnits="userSpaceOnUse" r="1"><stop offset=".719" stop-color="#a26d62" stop-opacity="0"/><stop offset="1" stop-color="#a26d62"/></radialGradient><radialGradient id="bh" cx="0" cy="0" gradientTransform="matrix(-1.05596 0 0 -1.05596 11.4029 10.7404)" gradientUnits="userSpaceOnUse" r="1"><stop offset=".722" stop-color="#6c4640" stop-opacity="0"/><stop offset="1" stop-color="#6c4640"/></radialGradient><radialGradient id="bi" cx="0" cy="0" gradientTransform="matrix(-6.50358035 2.99901745 -4.01413361 -8.70493118 18.8631 10.2028)" gradientUnits="userSpaceOnUse" r="1"><stop offset="0" stop-color="#c79980"/><stop offset="1" stop-color="#946568"/></radialGradient><radialGradient id="bj" cx="0" cy="0" gradientTransform="matrix(-2.18028266 .95939275 -.66810674 -1.51831617 17.9747 11.0568)" gradientUnits="userSpaceOnUse" r="1"><stop offset="0" stop-color="#c4967a"/><stop offset="1" stop-color="#c4967a" stop-opacity="0"/></radialGradient><radialGradient id="bk" cx="0" cy="0" gradientTransform="matrix(1.28914866 -3.92836106 4.9843632 1.63569109 13.8418 16.7103)" gradientUnits="userSpaceOnUse" r="1"><stop offset="0" stop-color="#945a73"/><stop offset="1" stop-color="#945a73" stop-opacity="0"/></radialGradient><radialGradient id="bl" cx="0" cy="0" gradientTransform="matrix(-1.28467914 7.37318771 -9.21639843 -1.6058339 17.0268 9.78656)" gradientUnits="userSpaceOnUse" r="1"><stop offset=".637" stop-color="#8d5e67" stop-opacity="0"/><stop offset=".955" stop-color="#764c51"/></radialGradient><radialGradient id="bm" cx="0" cy="0" gradientTransform="matrix(-6.90566823 1.35521374 -2.33325718 -11.88941602 17.8141 11.9338)" gradientUnits="userSpaceOnUse" r="1"><stop offset=".795" stop-color="#9a7267" stop-opacity="0"/><stop offset="1" stop-color="#9a7267"/></radialGradient><radialGradient id="bn" cx="0" cy="0" gradientTransform="matrix(0 -1.15077 1.41231 0 18.3052 9.78436)" gradientUnits="userSpaceOnUse" r="1"><stop offset="0" stop-color="#ae7b75"/><stop offset="1" stop-color="#ae7b75" stop-opacity="0"/></radialGradient><radialGradient id="bo" cx="0" cy="0" gradientTransform="matrix(0 -1.31251 1.50423 0 13.9274 9.5558)" gradientUnits="userSpaceOnUse" r="1"><stop offset="0" stop-color="#8f5c65"/><stop offset="1" stop-color="#8f5c65" stop-opacity="0"/></radialGradient><radialGradient id="bp" cx="0" cy="0" gradientTransform="matrix(-.87015814 3.22674072 -2.58192553 -.69627024 17.3871 7.46841)" gradientUnits="userSpaceOnUse" r="1"><stop offset="0" stop-color="#ab8179"/><stop offset="1" stop-color="#ab8179" stop-opacity="0"/></radialGradient><radialGradient id="bq" cx="0" cy="0" gradientTransform="matrix(-1.28528 0 0 -6.44557 21.0993 11.2719)" gradientUnits="userSpaceOnUse" r="1"><stop offset="0" stop-color="#c0967a"/><stop offset="1" stop-color="#c0967a" stop-opacity="0"/></radialGradient><radialGradient id="br" cx="0" cy="0" gradientTransform="matrix(-.45554265 -2.04401248 .62994599 -.14039409 16.7882 11.9987)" gradientUnits="userSpaceOnUse" r="1"><stop offset=".017" stop-color="#cda38b"/><stop offset="1" stop-color="#cda38b" stop-opacity="0"/></radialGradient><linearGradient id="bs" gradientUnits="userSpaceOnUse" x1="15.065" x2="16.004" y1="12.072" y2="12.072"><stop offset="0" stop-color="#875f54"/><stop offset="1" stop-color="#875f54" stop-opacity="0"/></linearGradient><linearGradient id="bt" gradientUnits="userSpaceOnUse" x1="16.004" x2="16.004" y1="12.778" y2="12.152"><stop offset="0" stop-color="#995c76"/><stop offset="1" stop-color="#995c76" stop-opacity="0"/></linearGradient><radialGradient id="bu" cx="0" cy="0" gradientTransform="matrix(-.779401 0 0 -.217897 16.5486 12.2103)" gradientUnits="userSpaceOnUse" r="1"><stop offset="0" stop-color="#ca9f8c"/><stop offset="1" stop-color="#ca9f8c" stop-opacity="0"/></radialGradient><linearGradient id="bv" gradientUnits="userSpaceOnUse" x1="16.082" x2="16.082" y1="12.844" y2="12.705"><stop offset="0" stop-color="#8f5269"/><stop offset="1" stop-color="#8f5269" stop-opacity="0"/></linearGradient><radialGradient id="bw" cx="0" cy="0" gradientTransform="matrix(-1.37121278 .94138693 -1.13140076 -1.64798463 16.3809 11.6153)" gradientUnits="userSpaceOnUse" r="1"><stop offset=".778" stop-color="#815553" stop-opacity="0"/><stop offset="1" stop-color="#693b40"/><stop offset="1" stop-color="#815553"/></radialGradient><linearGradient id="bx" gradientUnits="userSpaceOnUse" x1="14.94" x2="15.4" y1="14.28" y2="13.568"><stop offset="0" stop-color="#a87d7b"/><stop offset=".663" stop-color="#a87d7b" stop-opacity="0"/></linearGradient><linearGradient id="by"><stop offset=".802" stop-color="#7d574a"/><stop offset="1" stop-color="#694b43"/><stop offset="1" stop-color="#804d49"/><stop offset="1" stop-color="#664944"/></linearGradient><radialGradient id="bz" cx="0" cy="0" gradientTransform="matrix(0 .811316 -1.29049 0 18.186 10.1433)" gradientUnits="userSpaceOnUse" r="1" xlink:href="#by"/><radialGradient id="bA" cx="0" cy="0" gradientTransform="matrix(-.23191676 -.29885601 .41145298 -.31929369 17.9577 10.2274)" gradientUnits="userSpaceOnUse" r="1" xlink:href="#a5"/><linearGradient id="bB" gradientUnits="userSpaceOnUse" x1="18.964" x2="18.65" xlink:href="#a7" y1="10.197" y2="10.39"/><radialGradient id="bC" cx="0" cy="0" gradientTransform="matrix(0 .811321 -1.2905 0 13.8217 10.1433)" gradientUnits="userSpaceOnUse" r="1" xlink:href="#by"/><linearGradient id="bD" gradientUnits="userSpaceOnUse" x1="14.566" x2="14.252" xlink:href="#a7" y1="10.197" y2="10.39"/><radialGradient id="bE" cx="0" cy="0" gradientTransform="matrix(-.00773543 -.49405945 .59387921 -.0092983 13.5354 10.3624)" gradientUnits="userSpaceOnUse" r="1" xlink:href="#a5"/><radialGradient id="bF" cx="0" cy="0" gradientTransform="matrix(1.26202682 -2.75542559 1.40961118 .64562336 10.3459 8.02298)" gradientUnits="userSpaceOnUse" r="1"><stop offset="0" stop-color="#5c4643"/><stop offset="1" stop-color="#5c4643" stop-opacity="0"/></radialGradient><radialGradient id="bG" cx="0" cy="0" gradientTransform="matrix(1.14952278 -1.97523647 1.06043487 .61713828 12.0535 7.04254)" gradientUnits="userSpaceOnUse" r="1"><stop offset="0" stop-color="#4b2839"/><stop offset="1" stop-color="#4b2839" stop-opacity="0"/></radialGradient><radialGradient id="bH" cx="0" cy="0" gradientTransform="matrix(-2.11195111 4.39144816 -7.17976405 -3.45291806 17.9148 2.8157)" gradientUnits="userSpaceOnUse" r="1"><stop offset=".639" stop-color="#442534" stop-opacity="0"/><stop offset="1" stop-color="#442534"/></radialGradient><radialGradient id="bI" cx="0" cy="0" gradientTransform="matrix(-.21033618 1.36719503 -2.94145397 -.45252811 16.2143 3.1851)" gradientUnits="userSpaceOnUse" r="1"><stop offset="0" stop-color="#634945"/><stop offset="1" stop-color="#4c4749" stop-opacity="0"/><stop offset="1" stop-color="#634945" stop-opacity="0"/></radialGradient><linearGradient id="bJ" gradientUnits="userSpaceOnUse" x1="12.895" x2="13.385" y1="3.788" y2="5.053"><stop offset="0" stop-color="#361f1f"/><stop offset="1" stop-color="#452531"/></linearGradient><linearGradient id="bK" gradientUnits="userSpaceOnUse" x1="16.089" x2="16.089" y1="9.047" y2="12.828"><stop offset="0" stop-color="#402857"/><stop offset="1" stop-color="#251732"/></linearGradient><radialGradient id="bL" cx="0" cy="0" gradientTransform="matrix(.90625 0 0 2.71875 11.3846 10.1506)" gradientUnits="userSpaceOnUse" r="1"><stop offset="0" stop-color="#52396b"/><stop offset="1" stop-color="#52396b" stop-opacity="0"/></radialGradient><g filter="url(#a)"><path d="m29.3838 25.001h-26.75001c-.34 0-.62-.28-.62-.62v-19.75001c0-.34.28-.62.62-.62h26.74001c.35 0 .62.28.62.62v19.74001c.01.35-.27.63-.61.63z" fill="url(#Q)"/></g><path d="m3.01379 24.001v-18.99001h25.99001v18.99001z" fill="url(#R)"/><path d="m3.01379 24.001v-18.99001h25.99001v18.99001z" fill="url(#S)"/><path d="m3.01379 24.001v-18.99001h25.99001v18.99001z" fill="url(#T)"/><g filter="url(#b)"><path d="m3.22827 4.4043h26.21253c.0552 0 .1.04477.1.1v19.5848" stroke="url(#U)" stroke-linecap="round" stroke-width=".3"/></g><g filter="url(#c)"><path d="m29.0038 24.0011h-25.99001v-18.99005l-.92-.68c-.05.09-.08.2-.08.3v19.74005c0 .35.28.62.62.62h26.74001c.24 0 .44-.13.55-.33z" fill="url(#V)"/><path d="m29.0038 24.0011h-25.99001v-18.99005l-.92-.68c-.05.09-.08.2-.08.3v19.74005c0 .35.28.62.62.62h26.74001c.24 0 .44-.13.55-.33z" fill="url(#W)"/><path d="m29.0038 24.0011h-25.99001v-18.99005l-.92-.68c-.05.09-.08.2-.08.3v19.74005c0 .35.28.62.62.62h26.74001c.24 0 .44-.13.55-.33z" fill="url(#X)"/></g><g clip-rule="evenodd" fill-rule="evenodd" filter="url(#d)"><path d="m23.1892 12.15c.2125-.4351.3238-.9209.3238-1.4269 0-.4673-.0961-.90578-.2685-1.30548h.0053c-.0805-.18098-.1709-.35198-.2812-.51299l-.0021-.00313c-.3441-.52624-.5262-1.14356-.5262-1.771v-.01012c0-1.82161-1.4775-3.29914-3.2991-3.29914-.1822 0-.3542-.08096-.4554-.23276-.5971-.82984-1.5789-1.37632-2.682-1.37632-1.103 0-2.0847.54648-2.6818 1.37632-.1012.14168-.2732.23276-.4554.23276-.0284.00001-.0567.00037-.085.00108-1.7823.04513-3.21411 1.50488-3.21411 3.29806v.01012c0 .62744-.18216 1.24476-.52624 1.771l-.00229.00368c-.34263.52544-.54409 1.14142-.54409 1.81792 0 .5161.12144.9918.32384 1.4269.07084.1417.07084.3138 0 .4554-.2024.4251-.32384.9007-.32384 1.4067 0 1.7811 1.43705 3.2182 3.21813 3.2182h8.5818c1.7812 0 3.2182-1.4371 3.2182-3.2182 0-.506-.1214-.9816-.3238-1.4067-.0709-.1416-.0709-.3137 0-.4554zm-12.2602-2.67236h-.0123l1.1987 2.35556c.1233 2.8025 1.217 0 3.8884 0 2.6715 0 3.8364 3.1193 3.9597.3168l1.1359-3.1971c-.0537-1.24483-.9558-1.33221-1.1359-1.33221h-3.22c-1.2716 0-2.4714-.62238-3.1893-1.67329-.123-.17345-.3794-.14284-.4614.05102l-.0821.19386c-.2256.56116-.6563.98969-1.1895 1.23456-.0154.0051-.0333.01275-.0513.0204-.0179.00766-.0359.01531-.0513.02041-.2358.12244-.7896.48974-.8101 1.43862l.0103.30609z" fill="url(#Y)"/><path d="m23.1892 12.15c.2125-.4351.3238-.9209.3238-1.4269 0-.4673-.0961-.90578-.2685-1.30548h.0053c-.0805-.18098-.1709-.35198-.2812-.51299l-.0021-.00313c-.3441-.52624-.5262-1.14356-.5262-1.771v-.01012c0-1.82161-1.4775-3.29914-3.2991-3.29914-.1822 0-.3542-.08096-.4554-.23276-.5971-.82984-1.5789-1.37632-2.682-1.37632-1.103 0-2.0847.54648-2.6818 1.37632-.1012.14168-.2732.23276-.4554.23276-.0284.00001-.0567.00037-.085.00108-1.7823.04513-3.21411 1.50488-3.21411 3.29806v.01012c0 .62744-.18216 1.24476-.52624 1.771l-.00229.00368c-.34263.52544-.54409 1.14142-.54409 1.81792 0 .5161.12144.9918.32384 1.4269.07084.1417.07084.3138 0 .4554-.2024.4251-.32384.9007-.32384 1.4067 0 1.7811 1.43705 3.2182 3.21813 3.2182h8.5818c1.7812 0 3.2182-1.4371 3.2182-3.2182 0-.506-.1214-.9816-.3238-1.4067-.0709-.1416-.0709-.3137 0-.4554zm-12.2602-2.67236h-.0123l1.1987 2.35556c.1233 2.8025 1.217 0 3.8884 0 2.6715 0 3.8364 3.1193 3.9597.3168l1.1359-3.1971c-.0537-1.24483-.9558-1.33221-1.1359-1.33221h-3.22c-1.2716 0-2.4714-.62238-3.1893-1.67329-.123-.17345-.3794-.14284-.4614.05102l-.0821.19386c-.2256.56116-.6563.98969-1.1895 1.23456-.0154.0051-.0333.01275-.0513.0204-.0179.00766-.0359.01531-.0513.02041-.2358.12244-.7896.48974-.8101 1.43862l.0103.30609z" fill="url(#Z)"/><path d="m23.1892 12.15c.2125-.4351.3238-.9209.3238-1.4269 0-.4673-.0961-.90578-.2685-1.30548h.0053c-.0805-.18098-.1709-.35198-.2812-.51299l-.0021-.00313c-.3441-.52624-.5262-1.14356-.5262-1.771v-.01012c0-1.82161-1.4775-3.29914-3.2991-3.29914-.1822 0-.3542-.08096-.4554-.23276-.5971-.82984-1.5789-1.37632-2.682-1.37632-1.103 0-2.0847.54648-2.6818 1.37632-.1012.14168-.2732.23276-.4554.23276-.0284.00001-.0567.00037-.085.00108-1.7823.04513-3.21411 1.50488-3.21411 3.29806v.01012c0 .62744-.18216 1.24476-.52624 1.771l-.00229.00368c-.34263.52544-.54409 1.14142-.54409 1.81792 0 .5161.12144.9918.32384 1.4269.07084.1417.07084.3138 0 .4554-.2024.4251-.32384.9007-.32384 1.4067 0 1.7811 1.43705 3.2182 3.21813 3.2182h8.5818c1.7812 0 3.2182-1.4371 3.2182-3.2182 0-.506-.1214-.9816-.3238-1.4067-.0709-.1416-.0709-.3137 0-.4554zm-12.2602-2.67236h-.0123l1.1987 2.35556c.1233 2.8025 1.217 0 3.8884 0 2.6715 0 3.8364 3.1193 3.9597.3168l1.1359-3.1971c-.0537-1.24483-.9558-1.33221-1.1359-1.33221h-3.22c-1.2716 0-2.4714-.62238-3.1893-1.67329-.123-.17345-.3794-.14284-.4614.05102l-.0821.19386c-.2256.56116-.6563.98969-1.1895 1.23456-.0154.0051-.0333.01275-.0513.0204-.0179.00766-.0359.01531-.0513.02041-.2358.12244-.7896.48974-.8101 1.43862l.0103.30609z" fill="url(#aa)"/><path d="m23.1892 12.15c.2125-.4351.3238-.9209.3238-1.4269 0-.4673-.0961-.90578-.2685-1.30548h.0053c-.0805-.18098-.1709-.35198-.2812-.51299l-.0021-.00313c-.3441-.52624-.5262-1.14356-.5262-1.771v-.01012c0-1.82161-1.4775-3.29914-3.2991-3.29914-.1822 0-.3542-.08096-.4554-.23276-.5971-.82984-1.5789-1.37632-2.682-1.37632-1.103 0-2.0847.54648-2.6818 1.37632-.1012.14168-.2732.23276-.4554.23276-.0284.00001-.0567.00037-.085.00108-1.7823.04513-3.21411 1.50488-3.21411 3.29806v.01012c0 .62744-.18216 1.24476-.52624 1.771l-.00229.00368c-.34263.52544-.54409 1.14142-.54409 1.81792 0 .5161.12144.9918.32384 1.4269.07084.1417.07084.3138 0 .4554-.2024.4251-.32384.9007-.32384 1.4067 0 1.7811 1.43705 3.2182 3.21813 3.2182h8.5818c1.7812 0 3.2182-1.4371 3.2182-3.2182 0-.506-.1214-.9816-.3238-1.4067-.0709-.1416-.0709-.3137 0-.4554zm-12.2602-2.67236h-.0123l1.1987 2.35556c.1233 2.8025 1.217 0 3.8884 0 2.6715 0 3.8364 3.1193 3.9597.3168l1.1359-3.1971c-.0537-1.24483-.9558-1.33221-1.1359-1.33221h-3.22c-1.2716 0-2.4714-.62238-3.1893-1.67329-.123-.17345-.3794-.14284-.4614.05102l-.0821.19386c-.2256.56116-.6563.98969-1.1895 1.23456-.0154.0051-.0333.01275-.0513.0204-.0179.00766-.0359.01531-.0513.02041-.2358.12244-.7896.48974-.8101 1.43862l.0103.30609z" fill="url(#ab)"/><path d="m23.1892 12.15c.2125-.4351.3238-.9209.3238-1.4269 0-.4673-.0961-.90578-.2685-1.30548h.0053c-.0805-.18098-.1709-.35198-.2812-.51299l-.0021-.00313c-.3441-.52624-.5262-1.14356-.5262-1.771v-.01012c0-1.82161-1.4775-3.29914-3.2991-3.29914-.1822 0-.3542-.08096-.4554-.23276-.5971-.82984-1.5789-1.37632-2.682-1.37632-1.103 0-2.0847.54648-2.6818 1.37632-.1012.14168-.2732.23276-.4554.23276-.0284.00001-.0567.00037-.085.00108-1.7823.04513-3.21411 1.50488-3.21411 3.29806v.01012c0 .62744-.18216 1.24476-.52624 1.771l-.00229.00368c-.34263.52544-.54409 1.14142-.54409 1.81792 0 .5161.12144.9918.32384 1.4269.07084.1417.07084.3138 0 .4554-.2024.4251-.32384.9007-.32384 1.4067 0 1.7811 1.43705 3.2182 3.21813 3.2182h8.5818c1.7812 0 3.2182-1.4371 3.2182-3.2182 0-.506-.1214-.9816-.3238-1.4067-.0709-.1416-.0709-.3137 0-.4554zm-12.2602-2.67236h-.0123l1.1987 2.35556c.1233 2.8025 1.217 0 3.8884 0 2.6715 0 3.8364 3.1193 3.9597.3168l1.1359-3.1971c-.0537-1.24483-.9558-1.33221-1.1359-1.33221h-3.22c-1.2716 0-2.4714-.62238-3.1893-1.67329-.123-.17345-.3794-.14284-.4614.05102l-.0821.19386c-.2256.56116-.6563.98969-1.1895 1.23456-.0154.0051-.0333.01275-.0513.0204-.0179.00766-.0359.01531-.0513.02041-.2358.12244-.7896.48974-.8101 1.43862l.0103.30609z" fill="url(#ac)"/><path d="m23.1892 12.15c.2125-.4351.3238-.9209.3238-1.4269 0-.4673-.0961-.90578-.2685-1.30548h.0053c-.0805-.18098-.1709-.35198-.2812-.51299l-.0021-.00313c-.3441-.52624-.5262-1.14356-.5262-1.771v-.01012c0-1.82161-1.4775-3.29914-3.2991-3.29914-.1822 0-.3542-.08096-.4554-.23276-.5971-.82984-1.5789-1.37632-2.682-1.37632-1.103 0-2.0847.54648-2.6818 1.37632-.1012.14168-.2732.23276-.4554.23276-.0284.00001-.0567.00037-.085.00108-1.7823.04513-3.21411 1.50488-3.21411 3.29806v.01012c0 .62744-.18216 1.24476-.52624 1.771l-.00229.00368c-.34263.52544-.54409 1.14142-.54409 1.81792 0 .5161.12144.9918.32384 1.4269.07084.1417.07084.3138 0 .4554-.2024.4251-.32384.9007-.32384 1.4067 0 1.7811 1.43705 3.2182 3.21813 3.2182h8.5818c1.7812 0 3.2182-1.4371 3.2182-3.2182 0-.506-.1214-.9816-.3238-1.4067-.0709-.1416-.0709-.3137 0-.4554zm-12.2602-2.67236h-.0123l1.1987 2.35556c.1233 2.8025 1.217 0 3.8884 0 2.6715 0 3.8364 3.1193 3.9597.3168l1.1359-3.1971c-.0537-1.24483-.9558-1.33221-1.1359-1.33221h-3.22c-1.2716 0-2.4714-.62238-3.1893-1.67329-.123-.17345-.3794-.14284-.4614.05102l-.0821.19386c-.2256.56116-.6563.98969-1.1895 1.23456-.0154.0051-.0333.01275-.0513.0204-.0179.00766-.0359.01531-.0513.02041-.2358.12244-.7896.48974-.8101 1.43862l.0103.30609z" fill="url(#ad)"/><path d="m23.1892 12.15c.2125-.4351.3238-.9209.3238-1.4269 0-.4673-.0961-.90578-.2685-1.30548h.0053c-.0805-.18098-.1709-.35198-.2812-.51299l-.0021-.00313c-.3441-.52624-.5262-1.14356-.5262-1.771v-.01012c0-1.82161-1.4775-3.29914-3.2991-3.29914-.1822 0-.3542-.08096-.4554-.23276-.5971-.82984-1.5789-1.37632-2.682-1.37632-1.103 0-2.0847.54648-2.6818 1.37632-.1012.14168-.2732.23276-.4554.23276-.0284.00001-.0567.00037-.085.00108-1.7823.04513-3.21411 1.50488-3.21411 3.29806v.01012c0 .62744-.18216 1.24476-.52624 1.771l-.00229.00368c-.34263.52544-.54409 1.14142-.54409 1.81792 0 .5161.12144.9918.32384 1.4269.07084.1417.07084.3138 0 .4554-.2024.4251-.32384.9007-.32384 1.4067 0 1.7811 1.43705 3.2182 3.21813 3.2182h8.5818c1.7812 0 3.2182-1.4371 3.2182-3.2182 0-.506-.1214-.9816-.3238-1.4067-.0709-.1416-.0709-.3137 0-.4554zm-12.2602-2.67236h-.0123l1.1987 2.35556c.1233 2.8025 1.217 0 3.8884 0 2.6715 0 3.8364 3.1193 3.9597.3168l1.1359-3.1971c-.0537-1.24483-.9558-1.33221-1.1359-1.33221h-3.22c-1.2716 0-2.4714-.62238-3.1893-1.67329-.123-.17345-.3794-.14284-.4614.05102l-.0821.19386c-.2256.56116-.6563.98969-1.1895 1.23456-.0154.0051-.0333.01275-.0513.0204-.0179.00766-.0359.01531-.0513.02041-.2358.12244-.7896.48974-.8101 1.43862l.0103.30609z" fill="url(#ae)"/><path d="m23.1892 12.15c.2125-.4351.3238-.9209.3238-1.4269 0-.4673-.0961-.90578-.2685-1.30548h.0053c-.0805-.18098-.1709-.35198-.2812-.51299l-.0021-.00313c-.3441-.52624-.5262-1.14356-.5262-1.771v-.01012c0-1.82161-1.4775-3.29914-3.2991-3.29914-.1822 0-.3542-.08096-.4554-.23276-.5971-.82984-1.5789-1.37632-2.682-1.37632-1.103 0-2.0847.54648-2.6818 1.37632-.1012.14168-.2732.23276-.4554.23276-.0284.00001-.0567.00037-.085.00108-1.7823.04513-3.21411 1.50488-3.21411 3.29806v.01012c0 .62744-.18216 1.24476-.52624 1.771l-.00229.00368c-.34263.52544-.54409 1.14142-.54409 1.81792 0 .5161.12144.9918.32384 1.4269.07084.1417.07084.3138 0 .4554-.2024.4251-.32384.9007-.32384 1.4067 0 1.7811 1.43705 3.2182 3.21813 3.2182h8.5818c1.7812 0 3.2182-1.4371 3.2182-3.2182 0-.506-.1214-.9816-.3238-1.4067-.0709-.1416-.0709-.3137 0-.4554zm-12.2602-2.67236h-.0123l1.1987 2.35556c.1233 2.8025 1.217 0 3.8884 0 2.6715 0 3.8364 3.1193 3.9597.3168l1.1359-3.1971c-.0537-1.24483-.9558-1.33221-1.1359-1.33221h-3.22c-1.2716 0-2.4714-.62238-3.1893-1.67329-.123-.17345-.3794-.14284-.4614.05102l-.0821.19386c-.2256.56116-.6563.98969-1.1895 1.23456-.0154.0051-.0333.01275-.0513.0204-.0179.00766-.0359.01531-.0513.02041-.2358.12244-.7896.48974-.8101 1.43862l.0103.30609z" fill="url(#af)"/><path d="m23.1892 12.15c.2125-.4351.3238-.9209.3238-1.4269 0-.4673-.0961-.90578-.2685-1.30548h.0053c-.0805-.18098-.1709-.35198-.2812-.51299l-.0021-.00313c-.3441-.52624-.5262-1.14356-.5262-1.771v-.01012c0-1.82161-1.4775-3.29914-3.2991-3.29914-.1822 0-.3542-.08096-.4554-.23276-.5971-.82984-1.5789-1.37632-2.682-1.37632-1.103 0-2.0847.54648-2.6818 1.37632-.1012.14168-.2732.23276-.4554.23276-.0284.00001-.0567.00037-.085.00108-1.7823.04513-3.21411 1.50488-3.21411 3.29806v.01012c0 .62744-.18216 1.24476-.52624 1.771l-.00229.00368c-.34263.52544-.54409 1.14142-.54409 1.81792 0 .5161.12144.9918.32384 1.4269.07084.1417.07084.3138 0 .4554-.2024.4251-.32384.9007-.32384 1.4067 0 1.7811 1.43705 3.2182 3.21813 3.2182h8.5818c1.7812 0 3.2182-1.4371 3.2182-3.2182 0-.506-.1214-.9816-.3238-1.4067-.0709-.1416-.0709-.3137 0-.4554zm-12.2602-2.67236h-.0123l1.1987 2.35556c.1233 2.8025 1.217 0 3.8884 0 2.6715 0 3.8364 3.1193 3.9597.3168l1.1359-3.1971c-.0537-1.24483-.9558-1.33221-1.1359-1.33221h-3.22c-1.2716 0-2.4714-.62238-3.1893-1.67329-.123-.17345-.3794-.14284-.4614.05102l-.0821.19386c-.2256.56116-.6563.98969-1.1895 1.23456-.0154.0051-.0333.01275-.0513.0204-.0179.00766-.0359.01531-.0513.02041-.2358.12244-.7896.48974-.8101 1.43862l.0103.30609z" fill="url(#ag)"/><path d="m23.1892 12.15c.2125-.4351.3238-.9209.3238-1.4269 0-.4673-.0961-.90578-.2685-1.30548h.0053c-.0805-.18098-.1709-.35198-.2812-.51299l-.0021-.00313c-.3441-.52624-.5262-1.14356-.5262-1.771v-.01012c0-1.82161-1.4775-3.29914-3.2991-3.29914-.1822 0-.3542-.08096-.4554-.23276-.5971-.82984-1.5789-1.37632-2.682-1.37632-1.103 0-2.0847.54648-2.6818 1.37632-.1012.14168-.2732.23276-.4554.23276-.0284.00001-.0567.00037-.085.00108-1.7823.04513-3.21411 1.50488-3.21411 3.29806v.01012c0 .62744-.18216 1.24476-.52624 1.771l-.00229.00368c-.34263.52544-.54409 1.14142-.54409 1.81792 0 .5161.12144.9918.32384 1.4269.07084.1417.07084.3138 0 .4554-.2024.4251-.32384.9007-.32384 1.4067 0 1.7811 1.43705 3.2182 3.21813 3.2182h8.5818c1.7812 0 3.2182-1.4371 3.2182-3.2182 0-.506-.1214-.9816-.3238-1.4067-.0709-.1416-.0709-.3137 0-.4554zm-12.2602-2.67236h-.0123l1.1987 2.35556c.1233 2.8025 1.217 0 3.8884 0 2.6715 0 3.8364 3.1193 3.9597.3168l1.1359-3.1971c-.0537-1.24483-.9558-1.33221-1.1359-1.33221h-3.22c-1.2716 0-2.4714-.62238-3.1893-1.67329-.123-.17345-.3794-.14284-.4614.05102l-.0821.19386c-.2256.56116-.6563.98969-1.1895 1.23456-.0154.0051-.0333.01275-.0513.0204-.0179.00766-.0359.01531-.0513.02041-.2358.12244-.7896.48974-.8101 1.43862l.0103.30609z" fill="url(#ah)"/><path d="m23.1892 12.15c.2125-.4351.3238-.9209.3238-1.4269 0-.4673-.0961-.90578-.2685-1.30548h.0053c-.0805-.18098-.1709-.35198-.2812-.51299l-.0021-.00313c-.3441-.52624-.5262-1.14356-.5262-1.771v-.01012c0-1.82161-1.4775-3.29914-3.2991-3.29914-.1822 0-.3542-.08096-.4554-.23276-.5971-.82984-1.5789-1.37632-2.682-1.37632-1.103 0-2.0847.54648-2.6818 1.37632-.1012.14168-.2732.23276-.4554.23276-.0284.00001-.0567.00037-.085.00108-1.7823.04513-3.21411 1.50488-3.21411 3.29806v.01012c0 .62744-.18216 1.24476-.52624 1.771l-.00229.00368c-.34263.52544-.54409 1.14142-.54409 1.81792 0 .5161.12144.9918.32384 1.4269.07084.1417.07084.3138 0 .4554-.2024.4251-.32384.9007-.32384 1.4067 0 1.7811 1.43705 3.2182 3.21813 3.2182h8.5818c1.7812 0 3.2182-1.4371 3.2182-3.2182 0-.506-.1214-.9816-.3238-1.4067-.0709-.1416-.0709-.3137 0-.4554zm-12.2602-2.67236h-.0123l1.1987 2.35556c.1233 2.8025 1.217 0 3.8884 0 2.6715 0 3.8364 3.1193 3.9597.3168l1.1359-3.1971c-.0537-1.24483-.9558-1.33221-1.1359-1.33221h-3.22c-1.2716 0-2.4714-.62238-3.1893-1.67329-.123-.17345-.3794-.14284-.4614.05102l-.0821.19386c-.2256.56116-.6563.98969-1.1895 1.23456-.0154.0051-.0333.01275-.0513.0204-.0179.00766-.0359.01531-.0513.02041-.2358.12244-.7896.48974-.8101 1.43862l.0103.30609z" fill="url(#ai)"/><path d="m23.1892 12.15c.2125-.4351.3238-.9209.3238-1.4269 0-.4673-.0961-.90578-.2685-1.30548h.0053c-.0805-.18098-.1709-.35198-.2812-.51299l-.0021-.00313c-.3441-.52624-.5262-1.14356-.5262-1.771v-.01012c0-1.82161-1.4775-3.29914-3.2991-3.29914-.1822 0-.3542-.08096-.4554-.23276-.5971-.82984-1.5789-1.37632-2.682-1.37632-1.103 0-2.0847.54648-2.6818 1.37632-.1012.14168-.2732.23276-.4554.23276-.0284.00001-.0567.00037-.085.00108-1.7823.04513-3.21411 1.50488-3.21411 3.29806v.01012c0 .62744-.18216 1.24476-.52624 1.771l-.00229.00368c-.34263.52544-.54409 1.14142-.54409 1.81792 0 .5161.12144.9918.32384 1.4269.07084.1417.07084.3138 0 .4554-.2024.4251-.32384.9007-.32384 1.4067 0 1.7811 1.43705 3.2182 3.21813 3.2182h8.5818c1.7812 0 3.2182-1.4371 3.2182-3.2182 0-.506-.1214-.9816-.3238-1.4067-.0709-.1416-.0709-.3137 0-.4554zm-12.2602-2.67236h-.0123l1.1987 2.35556c.1233 2.8025 1.217 0 3.8884 0 2.6715 0 3.8364 3.1193 3.9597.3168l1.1359-3.1971c-.0537-1.24483-.9558-1.33221-1.1359-1.33221h-3.22c-1.2716 0-2.4714-.62238-3.1893-1.67329-.123-.17345-.3794-.14284-.4614.05102l-.0821.19386c-.2256.56116-.6563.98969-1.1895 1.23456-.0154.0051-.0333.01275-.0513.0204-.0179.00766-.0359.01531-.0513.02041-.2358.12244-.7896.48974-.8101 1.43862l.0103.30609z" fill="url(#aj)"/></g><path d="m16.0138 15.511c-6.07001 0-11.00001 4.92-11.00001 11v3.5h21.99001v-3.5c0-6.08-4.92-11-10.99-11z" fill="url(#ak)"/><path d="m16.0138 15.511c-6.07001 0-11.00001 4.92-11.00001 11v3.5h21.99001v-3.5c0-6.08-4.92-11-10.99-11z" fill="url(#al)"/><path d="m16.0138 15.511c-6.07001 0-11.00001 4.92-11.00001 11v3.5h21.99001v-3.5c0-6.08-4.92-11-10.99-11z" fill="url(#am)"/><path d="m22.6838 30.0109v-12.2448c2.6262 2.0092 4.32 5.1773 4.32 8.7448v3.5z" fill="url(#an)"/><path d="m22.6838 30.0109v-12.2448c2.6262 2.0092 4.32 5.1773 4.32 8.7448v3.5z" fill="url(#ao)"/><path d="m22.6838 30.0109v-12.2448c2.6262 2.0092 4.32 5.1773 4.32 8.7448v3.5z" fill="url(#ap)"/><path d="m9.30371 30.0109v-12.2448c-2.62616 2.0092-4.32001 5.1773-4.32001 8.7448v3.5z" fill="url(#aq)"/><path d="m9.30371 30.0109v-12.2448c-2.62616 2.0092-4.32001 5.1773-4.32001 8.7448v3.5z" fill="url(#ar)"/><path d="m18.0637 15.6016h-4.11v14.4093h4.11z" fill="url(#as)"/><g filter="url(#e)"><path d="m19.2891 15.9844 1.4246 3.015c.09.19-.05.41-.26.41l-.9636-.2655c-.4219-.1055-.4364.2767-.2764.4367l1.36 1.5603c.26.26.36.65.23 1l-2.74 7.87v-14.4093z" fill="url(#at)"/><path d="m19.2891 15.9844 1.4246 3.015c.09.19-.05.41-.26.41l-.9636-.2655c-.4219-.1055-.4364.2767-.2764.4367l1.36 1.5603c.26.26.36.65.23 1l-2.74 7.87v-14.4093z" fill="url(#au)"/><path d="m19.2891 15.9844 1.4246 3.015c.09.19-.05.41-.26.41l-.9636-.2655c-.4219-.1055-.4364.2767-.2764.4367l1.36 1.5603c.26.26.36.65.23 1l-2.74 7.87v-14.4093z" fill="url(#av)"/><path d="m19.2891 15.9844 1.4246 3.015c.09.19-.05.41-.26.41l-.9636-.2655c-.4219-.1055-.4364.2767-.2764.4367l1.36 1.5603c.26.26.36.65.23 1l-2.74 7.87v-14.4093z" fill="url(#aw)"/></g><g filter="url(#f)"><path d="m12.6836 16.0117-1.3799 2.9877c-.09.19.05.41.26.41l.9637-.2655c.4219-.1055.4363.2767.2763.4367l-1.36 1.5603c-.26.26-.36.65-.23 1l2.74 7.87v-14.3625z" fill="url(#ax)"/><path d="m12.6836 16.0117-1.3799 2.9877c-.09.19.05.41.26.41l.9637-.2655c.4219-.1055.4363.2767.2763.4367l-1.36 1.5603c-.26.26-.36.65-.23 1l2.74 7.87v-14.3625z" fill="url(#ay)"/><path d="m12.6836 16.0117-1.3799 2.9877c-.09.19.05.41.26.41l.9637-.2655c.4219-.1055.4363.2767.2763.4367l-1.36 1.5603c-.26.26-.36.65-.23 1l2.74 7.87v-14.3625z" fill="url(#az)"/><path d="m12.6836 16.0117-1.3799 2.9877c-.09.19.05.41.26.41l.9637-.2655c.4219-.1055.4363.2767.2763.4367l-1.36 1.5603c-.26.26-.36.65-.23 1l2.74 7.87v-14.3625z" fill="url(#aA)"/></g><path d="m16.0137 18.681c-1.14 0-2.06-.92-2.06-2.06v-2.56c0-1.14.92-2.06 2.06-2.06s2.06.92 2.06 2.06v2.56c-.01 1.14-.93 2.06-2.06 2.06z" fill="url(#aB)"/><g filter="url(#g)"><path d="m22.0571 23.1187c.55 0 1 .45 1 1v2.29h-2v-2.29c0-.55.44-1 1-1z" fill="url(#aC)"/><path d="m22.0571 23.1187c.55 0 1 .45 1 1v2.29h-2v-2.29c0-.55.44-1 1-1z" fill="url(#aD)"/></g><g filter="url(#h)"><path d="m9.9602 23.1108c-.55 0-.99999.45-.99999 1v2.29h1.99999v-2.29c0-.55-.44-1-1-1z" fill="url(#aE)"/></g><path d="m10.3237 21.8908v8.12h11.34v-9.19c0-.45-.36-.81-.81-.81h-8.64c-1.05-.01-1.89.84-1.89 1.88z" fill="url(#aF)"/><path clip-rule="evenodd" d="m12.4176 30.011v-8.4063h-2.0939v8.4063z" fill="#513358" fill-rule="evenodd"/><path clip-rule="evenodd" d="m12.4176 30.011v-8.4063h-2.0939v8.4063z" fill="url(#aG)" fill-rule="evenodd"/><g filter="url(#i)"><path d="m13.3531 25.3802c.0089.2772-.1156.5236-.3023.6674.1778.1335.3023.3696.3023.6366s-.1156.5031-.3023.6366c.1778.1335.3023.3697.3023.6366 0 .267-.1156.5031-.3023.6366.1867.1438.3023.3902.3023.6674-.0089.421-.3201.7496-.6847.7496h-2.93454c-.42685 0-.77365-.4005-.77365-.8933v-3.604c0-.4929.3468-.8933.77365-.8933h2.84204c.4749 0 .7694.3905.7772.7598z" fill="url(#aH)"/><path d="m13.3531 25.3802c.0089.2772-.1156.5236-.3023.6674.1778.1335.3023.3696.3023.6366s-.1156.5031-.3023.6366c.1778.1335.3023.3697.3023.6366 0 .267-.1156.5031-.3023.6366.1867.1438.3023.3902.3023.6674-.0089.421-.3201.7496-.6847.7496h-2.93454c-.42685 0-.77365-.4005-.77365-.8933v-3.604c0-.4929.3468-.8933.77365-.8933h2.84204c.4749 0 .7694.3905.7772.7598z" fill="url(#aJ)"/><path d="m13.3531 25.3802c.0089.2772-.1156.5236-.3023.6674.1778.1335.3023.3696.3023.6366s-.1156.5031-.3023.6366c.1778.1335.3023.3697.3023.6366 0 .267-.1156.5031-.3023.6366.1867.1438.3023.3902.3023.6674-.0089.421-.3201.7496-.6847.7496h-2.93454c-.42685 0-.77365-.4005-.77365-.8933v-3.604c0-.4929.3468-.8933.77365-.8933h2.84204c.4749 0 .7694.3905.7772.7598z" fill="url(#aK)"/><path d="m13.3531 25.3802c.0089.2772-.1156.5236-.3023.6674.1778.1335.3023.3696.3023.6366s-.1156.5031-.3023.6366c.1778.1335.3023.3697.3023.6366 0 .267-.1156.5031-.3023.6366.1867.1438.3023.3902.3023.6674-.0089.421-.3201.7496-.6847.7496h-2.93454c-.42685 0-.77365-.4005-.77365-.8933v-3.604c0-.4929.3468-.8933.77365-.8933h2.84204c.4749 0 .7694.3905.7772.7598z" fill="url(#aL)"/><path d="m13.3531 25.3802c.0089.2772-.1156.5236-.3023.6674.1778.1335.3023.3696.3023.6366s-.1156.5031-.3023.6366c.1778.1335.3023.3697.3023.6366 0 .267-.1156.5031-.3023.6366.1867.1438.3023.3902.3023.6674-.0089.421-.3201.7496-.6847.7496h-2.93454c-.42685 0-.77365-.4005-.77365-.8933v-3.604c0-.4929.3468-.8933.77365-.8933h2.84204c.4749 0 .7694.3905.7772.7598z" fill="url(#aM)"/></g><g filter="url(#j)"><path d="m18.6642 25.3802c-.0089.2772.1156.5236.3024.6674-.1779.1335-.3024.3696-.3024.6366s.1156.5031.3024.6366c-.1779.1335-.3024.3697-.3024.6366 0 .267.1156.5031.3024.6366-.1868.1438-.3024.3902-.3024.6674.0089.421.3201.7496.6847.7496h2.9346c.4268 0 .7736-.4005.7736-.8933v-3.604c0-.4929-.3468-.8933-.7736-.8933h-2.8421c-.4748 0-.7694.3905-.7772.7598z" fill="url(#aN)"/><path d="m18.6642 25.3802c-.0089.2772.1156.5236.3024.6674-.1779.1335-.3024.3696-.3024.6366s.1156.5031.3024.6366c-.1779.1335-.3024.3697-.3024.6366 0 .267.1156.5031.3024.6366-.1868.1438-.3024.3902-.3024.6674.0089.421.3201.7496.6847.7496h2.9346c.4268 0 .7736-.4005.7736-.8933v-3.604c0-.4929-.3468-.8933-.7736-.8933h-2.8421c-.4748 0-.7694.3905-.7772.7598z" fill="url(#aP)"/><path d="m18.6642 25.3802c-.0089.2772.1156.5236.3024.6674-.1779.1335-.3024.3696-.3024.6366s.1156.5031.3024.6366c-.1779.1335-.3024.3697-.3024.6366 0 .267.1156.5031.3024.6366-.1868.1438-.3024.3902-.3024.6674.0089.421.3201.7496.6847.7496h2.9346c.4268 0 .7736-.4005.7736-.8933v-3.604c0-.4929-.3468-.8933-.7736-.8933h-2.8421c-.4748 0-.7694.3905-.7772.7598z" fill="url(#aQ)"/><path d="m18.6642 25.3802c-.0089.2772.1156.5236.3024.6674-.1779.1335-.3024.3696-.3024.6366s.1156.5031.3024.6366c-.1779.1335-.3024.3697-.3024.6366 0 .267.1156.5031.3024.6366-.1868.1438-.3024.3902-.3024.6674.0089.421.3201.7496.6847.7496h2.9346c.4268 0 .7736-.4005.7736-.8933v-3.604c0-.4929-.3468-.8933-.7736-.8933h-2.8421c-.4748 0-.7694.3905-.7772.7598z" fill="url(#aR)"/><path d="m18.6642 25.3802c-.0089.2772.1156.5236.3024.6674-.1779.1335-.3024.3696-.3024.6366s.1156.5031.3024.6366c-.1779.1335-.3024.3697-.3024.6366 0 .267.1156.5031.3024.6366-.1868.1438-.3024.3902-.3024.6674.0089.421.3201.7496.6847.7496h2.9346c.4268 0 .7736-.4005.7736-.8933v-3.604c0-.4929-.3468-.8933-.7736-.8933h-2.8421c-.4748 0-.7694.3905-.7772.7598z" fill="url(#aS)"/></g><path d="m21.6637 22.9952v-2.2857c0-.3882-.36-.6987-.81-.6987h-8.64c-.0059 0-.0118-.0001-.0177-.0001h-.0012c-1.0411.0003-1.8711.73-1.8711 1.6217 0 .7526.6102 1.3628 1.3629 1.3628z" fill="url(#aT)"/><path d="m11.157 21.5032c0-.384.3113-.6953.6953-.6953h9.8114v1.3906h-9.8114c-.384 0-.6953-.3113-.6953-.6953z" fill="url(#aU)"/><g filter="url(#k)"><path d="m19.033 26.05h1.9218" stroke="url(#aW)" stroke-linecap="round" stroke-width=".1"/></g><g filter="url(#l)"><path d="m12.9419 26.05h-1.9219" stroke="url(#aY)" stroke-linecap="round" stroke-width=".1"/></g><g filter="url(#m)"><path d="m19.033 27.3157h1.9218" stroke="url(#aZ)" stroke-linecap="round" stroke-width=".1"/></g><g filter="url(#n)"><path d="m12.9419 27.3157h-1.9219" stroke="url(#a0)" stroke-linecap="round" stroke-width=".1"/></g><g filter="url(#o)"><path d="m19.033 28.5813h1.9218" stroke="url(#a1)" stroke-linecap="round" stroke-width=".1"/></g><g filter="url(#p)"><path d="m12.9419 28.5813h-1.9219" stroke="url(#a2)" stroke-linecap="round" stroke-width=".1"/></g><path d="m18.4798 9.323c.6531 0 1.2048.45028 1.3549 1.0588.0446.1744-.0893.3407-.2678.3407h-2.2311c-.142 0-.2556-.1298-.2272-.2718.1258-.64091.6896-1.1277 1.3712-1.1277z" fill="#fff"/><path d="m18.2727 9.59473c.4949 0 .8925.4016.8925.89247 0 .0811-.0122.1622-.0325.2353h-1.724c-.0203-.0771-.0325-.1542-.0325-.2353 0-.49087.4016-.89247.8965-.89247z" fill="url(#a4)"/><path d="m17.7617 10.4872c0-.284.2272-.51113.5112-.51113.2839 0 .5111.22713.5111.51113 0 .0852-.0203.1663-.0568.2353h-.9046c-.0406-.069-.0609-.1501-.0609-.2353z" fill="#000"/><g filter="url(#q)"><path d="m18.2072 9.7834c.0635.08505-.0694.18872-.2205.3017-.1511.113-.2632.1925-.3268.1075-.0636-.0851.0074-.24562.1585-.3586s.3252-.13564.3888-.0506z" fill="#c7a7a3"/><path d="m18.2072 9.7834c.0635.08505-.0694.18872-.2205.3017-.1511.113-.2632.1925-.3268.1075-.0636-.0851.0074-.24562.1585-.3586s.3252-.13564.3888-.0506z" fill="url(#a6)"/></g><g filter="url(#r)"><path d="m19.0676 10.3697c-.0329-.2307-.1679-.40462-.2313-.46272l-.2599.28522.1173.2282z" fill="url(#a8)"/></g><path d="m13.6979 9.32275c-.6532 0-1.2049.45031-1.355 1.05885-.0446.1744.0892.3408.2677.3408h2.2313c.142 0 .2555-.1299.2272-.2719-.1258-.64093-.6938-1.12775-1.3712-1.12775z" fill="#fff"/><path d="m13.9047 9.59473c-.4949 0-.8925.40162-.8925.89247 0 .0812.0122.1623.0325.2353h1.7241c.0203-.0771.0325-.1541.0325-.2353-.0041-.49085-.4017-.89247-.8966-.89247z" fill="url(#a9)"/><path d="m14.4159 10.4872c0-.2839-.2272-.51113-.5112-.51113s-.5111.22723-.5111.51113c0 .0852.0202.1664.0567.2353h.9047c.0365-.0689.0609-.1501.0609-.2353z" fill="#000"/><g filter="url(#s)"><path d="m14.7201 10.3823c0-.2884-.2345-.48069-.2979-.53879l-.2884.27889.1775.3613z" fill="url(#ba)"/></g><g filter="url(#t)"><ellipse cx="13.635" cy="9.976" fill="#c7a7a3" fill-opacity=".9" rx=".39" ry=".197" transform="matrix(.88365127 -.46814574 .46814574 .88365127 -3.083758 7.543999)"/><ellipse cx="13.635" cy="9.976" fill="url(#bb)" rx=".39" ry=".197" transform="matrix(.88365127 -.46814574 .46814574 .88365127 -3.083758 7.543999)"/></g><g filter="url(#u)"><path d="m11.3183 12.3495c.8887 0 1.6091-.7204 1.6091-1.6091 0-.88864-.7204-1.60905-1.6091-1.60905s-1.60907.72041-1.60907 1.60905c0 .8887.72037 1.6091 1.60907 1.6091z" fill="url(#bc)"/></g><path d="m11.3183 12.3495c.8887 0 1.6091-.7204 1.6091-1.6091 0-.88864-.7204-1.60905-1.6091-1.60905s-1.60907.72041-1.60907 1.60905c0 .8887.72037 1.6091 1.60907 1.6091z" fill="url(#bd)"/><g filter="url(#v)"><path d="m20.831 12.3495c.8887 0 1.6091-.7204 1.6091-1.6091 0-.88864-.7204-1.60905-1.6091-1.60905s-1.6091.72041-1.6091 1.60905c0 .8887.7204 1.6091 1.6091 1.6091z" fill="url(#be)"/><path d="m20.831 12.3495c.8887 0 1.6091-.7204 1.6091-1.6091 0-.88864-.7204-1.60905-1.6091-1.60905s-1.6091.72041-1.6091 1.60905c0 .8887.7204 1.6091 1.6091 1.6091z" fill="url(#bf)"/></g><g filter="url(#w)"><path d="m20.8312 11.8145c.5932 0 1.0741-.4809 1.0741-1.0741s-.4809-1.07414-1.0741-1.07414-1.0741.48094-1.0741 1.07414.4809 1.0741 1.0741 1.0741z" fill="#b38574"/><path d="m20.8312 11.8145c.5932 0 1.0741-.4809 1.0741-1.0741s-.4809-1.07414-1.0741-1.07414-1.0741.48094-1.0741 1.07414.4809 1.0741 1.0741 1.0741z" fill="url(#bg)"/></g><g filter="url(#x)"><path d="m11.3375 11.8145c.5933 0 1.0741-.4809 1.0741-1.0741s-.4808-1.07414-1.0741-1.07414c-.5932 0-1.0741.48094-1.0741 1.07414s.4809 1.0741 1.0741 1.0741z" fill="#7e555a"/><path d="m11.3375 11.8145c.5933 0 1.0741-.4809 1.0741-1.0741s-.4808-1.07414-1.0741-1.07414c-.5932 0-1.0741.48094-1.0741 1.07414s.4809 1.0741 1.0741 1.0741z" fill="url(#bh)"/></g><g filter="url(#y)"><path d="m10.9166 9.47766h.0124l-.0103-.26528-.0103-.30609c.0206-.94888.5743-1.31619.8102-1.43862.0154-.0051.0333-.01276.0513-.02041.0179-.00765.0358-.0153.0512-.0204.5333-.24488.964-.6734 1.1896-1.23457l.082-.19385c.0821-.19386.3384-.22447.4615-.05102.7178 1.05091 1.9176 1.67329 3.1892 1.67329h3.2201c.18 0 1.0821.08738 1.1358 1.33221l-.1187 3.07308c-.1233 2.8025-2.3118 4.6843-4.9833 4.6843-2.6714 0-4.8599-1.8818-4.9832-4.6843z" fill="url(#bi)"/><path d="m10.9166 9.47766h.0124l-.0103-.26528-.0103-.30609c.0206-.94888.5743-1.31619.8102-1.43862.0154-.0051.0333-.01276.0513-.02041.0179-.00765.0358-.0153.0512-.0204.5333-.24488.964-.6734 1.1896-1.23457l.082-.19385c.0821-.19386.3384-.22447.4615-.05102.7178 1.05091 1.9176 1.67329 3.1892 1.67329h3.2201c.18 0 1.0821.08738 1.1358 1.33221l-.1187 3.07308c-.1233 2.8025-2.3118 4.6843-4.9833 4.6843-2.6714 0-4.8599-1.8818-4.9832-4.6843z" fill="url(#bj)"/><path d="m10.9166 9.47766h.0124l-.0103-.26528-.0103-.30609c.0206-.94888.5743-1.31619.8102-1.43862.0154-.0051.0333-.01276.0513-.02041.0179-.00765.0358-.0153.0512-.0204.5333-.24488.964-.6734 1.1896-1.23457l.082-.19385c.0821-.19386.3384-.22447.4615-.05102.7178 1.05091 1.9176 1.67329 3.1892 1.67329h3.2201c.18 0 1.0821.08738 1.1358 1.33221l-.1187 3.07308c-.1233 2.8025-2.3118 4.6843-4.9833 4.6843-2.6714 0-4.8599-1.8818-4.9832-4.6843z" fill="url(#bk)"/><path d="m10.9166 9.47766h.0124l-.0103-.26528-.0103-.30609c.0206-.94888.5743-1.31619.8102-1.43862.0154-.0051.0333-.01276.0513-.02041.0179-.00765.0358-.0153.0512-.0204.5333-.24488.964-.6734 1.1896-1.23457l.082-.19385c.0821-.19386.3384-.22447.4615-.05102.7178 1.05091 1.9176 1.67329 3.1892 1.67329h3.2201c.18 0 1.0821.08738 1.1358 1.33221l-.1187 3.07308c-.1233 2.8025-2.3118 4.6843-4.9833 4.6843-2.6714 0-4.8599-1.8818-4.9832-4.6843z" fill="url(#bl)"/><path d="m10.9166 9.47766h.0124l-.0103-.26528-.0103-.30609c.0206-.94888.5743-1.31619.8102-1.43862.0154-.0051.0333-.01276.0513-.02041.0179-.00765.0358-.0153.0512-.0204.5333-.24488.964-.6734 1.1896-1.23457l.082-.19385c.0821-.19386.3384-.22447.4615-.05102.7178 1.05091 1.9176 1.67329 3.1892 1.67329h3.2201c.18 0 1.0821.08738 1.1358 1.33221l-.1187 3.07308c-.1233 2.8025-2.3118 4.6843-4.9833 4.6843-2.6714 0-4.8599-1.8818-4.9832-4.6843z" fill="url(#bm)"/><path d="m10.9166 9.47766h.0124l-.0103-.26528-.0103-.30609c.0206-.94888.5743-1.31619.8102-1.43862.0154-.0051.0333-.01276.0513-.02041.0179-.00765.0358-.0153.0512-.0204.5333-.24488.964-.6734 1.1896-1.23457l.082-.19385c.0821-.19386.3384-.22447.4615-.05102.7178 1.05091 1.9176 1.67329 3.1892 1.67329h3.2201c.18 0 1.0821.08738 1.1358 1.33221l-.1187 3.07308c-.1233 2.8025-2.3118 4.6843-4.9833 4.6843-2.6714 0-4.8599-1.8818-4.9832-4.6843z" fill="url(#bn)"/><path d="m10.9166 9.47766h.0124l-.0103-.26528-.0103-.30609c.0206-.94888.5743-1.31619.8102-1.43862.0154-.0051.0333-.01276.0513-.02041.0179-.00765.0358-.0153.0512-.0204.5333-.24488.964-.6734 1.1896-1.23457l.082-.19385c.0821-.19386.3384-.22447.4615-.05102.7178 1.05091 1.9176 1.67329 3.1892 1.67329h3.2201c.18 0 1.0821.08738 1.1358 1.33221l-.1187 3.07308c-.1233 2.8025-2.3118 4.6843-4.9833 4.6843-2.6714 0-4.8599-1.8818-4.9832-4.6843z" fill="url(#bo)"/><path d="m10.9166 9.47766h.0124l-.0103-.26528-.0103-.30609c.0206-.94888.5743-1.31619.8102-1.43862.0154-.0051.0333-.01276.0513-.02041.0179-.00765.0358-.0153.0512-.0204.5333-.24488.964-.6734 1.1896-1.23457l.082-.19385c.0821-.19386.3384-.22447.4615-.05102.7178 1.05091 1.9176 1.67329 3.1892 1.67329h3.2201c.18 0 1.0821.08738 1.1358 1.33221l-.1187 3.07308c-.1233 2.8025-2.3118 4.6843-4.9833 4.6843-2.6714 0-4.8599-1.8818-4.9832-4.6843z" fill="url(#bp)"/></g><path d="m10.9166 9.47766h.0124l-.0103-.26528-.0103-.30609c.0206-.94888.5743-1.31619.8102-1.43862.0154-.0051.0333-.01276.0513-.02041.0179-.00765.0358-.0153.0512-.0204.5333-.24488.964-.6734 1.1896-1.23457l.082-.19385c.0821-.19386.3384-.22447.4615-.05102.7178 1.05091 1.9176 1.67329 3.1892 1.67329h3.2201c.18 0 1.0821.08738 1.1358 1.33221l-.1187 3.07308c-.1233 2.8025-2.3118 4.6843-4.9833 4.6843-2.6714 0-4.8599-1.8818-4.9832-4.6843z" fill="url(#bq)"/><g filter="url(#z)"><path d="m15.6112 10.5178-.6835 1.7c-.1085.3497.1518.6994.5206.6994h.7863c.3688 0 .6291-.3551.5207-.6994l-.5315-1.7c-.1139-.3766-.4933-.3766-.6126 0z" fill="#88555f"/></g><g filter="url(#A)"><path d="m15.6215 10.3791-.5315 1.7c-.1085.3497.1519.6994.5206.6994h.7864c.3688 0 .6291-.3551.5206-.6994l-.5314-1.7c-.1139-.3766-.6454-.3766-.7647 0z" fill="#b38578"/><path d="m15.6215 10.3791-.5315 1.7c-.1085.3497.1519.6994.5206.6994h.7864c.3688 0 .6291-.3551.5206-.6994l-.5314-1.7c-.1139-.3766-.6454-.3766-.7647 0z" fill="url(#br)"/><path d="m15.6215 10.3791-.5315 1.7c-.1085.3497.1519.6994.5206.6994h.7864c.3688 0 .6291-.3551.5206-.6994l-.5314-1.7c-.1139-.3766-.6454-.3766-.7647 0z" fill="url(#bs)"/><path d="m15.6215 10.3791-.5315 1.7c-.1085.3497.1519.6994.5206.6994h.7864c.3688 0 .6291-.3551.5206-.6994l-.5314-1.7c-.1139-.3766-.6454-.3766-.7647 0z" fill="url(#bt)"/><path d="m15.6215 10.3791-.5315 1.7c-.1085.3497.1519.6994.5206.6994h.7864c.3688 0 .6291-.3551.5206-.6994l-.5314-1.7c-.1139-.3766-.6454-.3766-.7647 0z" fill="url(#bu)"/></g><path d="m15.6215 10.3791-.5315 1.7c-.1085.3497.1519.6994.5206.6994h.7864c.3688 0 .6291-.3551.5206-.6994l-.5314-1.7c-.1139-.3766-.6454-.3766-.7647 0z" fill="url(#bv)"/><path d="m15.6215 10.3791-.5315 1.7c-.1085.3497.1519.6994.5206.6994h.7864c.3688 0 .6291-.3551.5206-.6994l-.5314-1.7c-.1139-.3766-.6454-.3766-.7647 0z" fill="url(#bw)"/><path d="m17.6705 13.5538c.0582-.0893.0371-.1877-.0212-.2495-.0578-.0615-.1546-.0895-.2469-.0415l-.0005.0003c-.4039.2154-.8801.3388-1.398.3388-.5128 0-.9942-.1235-1.3981-.3388l-.0005-.0003c-.093-.0484-.1898-.0181-.2471.0437-.0574.0618-.0797.1602-.0207.2476m3.333-.0003s0 0-.0001.0001l-.0418-.0273.042.0271c-.0001 0-.0001 0-.0001.0001zm0 0c-.3525.5462-.9667.9106-1.6666.9106-.6998 0-1.314-.3642-1.6664-.9103m0 0c.0001.0002.0002.0003.0003.0005l.0414-.028m-.0417.0275c-.0001-.0001-.0002-.0003-.0003-.0004l.042-.0271m0 0c.3437.5327.9425.8878 1.6247.8878.6821 0 1.281-.3551 1.6247-.8878.0885-.1358-.0625-.2925-.2031-.2194-.4114.2194-.8957.3447-1.4216.3447-.5208 0-1.0103-.1253-1.4216-.3447-.1406-.0731-.2916.0888-.2031.2194z" fill="#88024e" stroke="url(#bx)" stroke-width=".1"/><g filter="url(#B)"><path d="m17.1459 10.1714c.2654-.46675.6689-.83546 1.5373-.83546.3803 0 .7469.10534 1.0728.36871.2689.21724.2329.49515.0247.59925l-.5561.3175c-.6518-.2107-1.3726-.2393-2.0787-.45z" fill="#2f2c32"/></g><g filter="url(#C)"><path d="m14.8619 10.1714c-.2654-.46675-.6689-.83546-1.5373-.83546-.3803 0-.7469.10534-1.0728.36871-.2689.21724-.2329.49515-.0247.59925l.5561.3175c.6518-.2107 1.3726-.2393 2.0787-.45z" fill="#27232a"/></g><g filter="url(#D)"><path d="m12.6063 8.96258-.0043.00253c-.0002.00008-.0003.00016-.0004.00024-.127.07577-.2915.0346-.3676-.09222-.0762-.12701-.0348-.29183.0922-.36804l.0005-.00034.0011-.00062.0029-.00174.0094-.00544c.0078-.00447.0187-.01057.0325-.01802.0275-.0149.0666-.03525.1159-.05878.0986-.04697.239-.10711.4102-.16174.3399-.10847.8152-.19972 1.3282-.10918.1459.02574.2433.16485.2175.31071-.0257.14585-.1648.24323-.3107.21749-.3987-.07036-.7816-.00071-1.0719.09195-.144.04595-.2617.09643-.3425.13494-.0403.01922-.0711.03532-.0912.04619-.01.00543-.0173.00955-.0218.01207z" fill="#432a28"/></g><g filter="url(#E)"><path clip-rule="evenodd" d="m19.7353 8.50509c.0001.00005.0002.00009-.1378.23006l.1378-.23006c.127.0762.1684.24103.0922.36804-.0761.12683-.2405.16807-.3675.09229 0-.00005-.0002-.00014-.0004-.00028l-.0045-.00256c-.0044-.00252-.0117-.00664-.0217-.01207-.0201-.01087-.0509-.02697-.0912-.04619-.0809-.03851-.1985-.08899-.3425-.13494-.2903-.09266-.6732-.16231-1.072-.09195-.1458.02574-.2849-.07164-.3107-.21749-.0257-.14586.0717-.28497.2175-.31071.5131-.09054.9884.00071 1.3283.10918.1711.05463.3116.11477.4101.16174.0494.02353.0885.04388.116.05878.0138.00745.0246.01355.0325.01802l.0094.00544.0029.00174.001.00062z" fill="#432a28" fill-rule="evenodd"/></g><path d="m18.3948 9.39453c.6531 0 1.2048.45028 1.3549 1.05877.0446.1744-.0893.3408-.2677.3408h-2.2312c-.1419 0-.2555-.1299-.2271-.2718.1257-.64098.6896-1.12777 1.3711-1.12777z" fill="#fff"/><path d="m18.188 9.66626c.4949 0 .8925.40164.8925.89244 0 .0811-.0122.1623-.0325.2353h-1.724c-.0203-.0771-.0325-.1542-.0325-.2353 0-.4908.4016-.89244.8965-.89244z" fill="url(#bz)"/><path d="m17.6768 10.5587c0-.2839.2271-.5111.5111-.5111.2839 0 .5111.2272.5111.5111 0 .0852-.0203.1664-.0568.2353h-.9046c-.0406-.0689-.0608-.1501-.0608-.2353z" fill="#000"/><g filter="url(#F)"><path d="m18.1223 9.85494c.0636.08504-.0693.18876-.2204.30166-.1511.113-.2632.1925-.3268.1075-.0636-.0851.0074-.2456.1585-.35857.1511-.11298.3251-.13563.3887-.05059z" fill="#c7a7a3"/><path d="m18.1223 9.85494c.0636.08504-.0693.18876-.2204.30166-.1511.113-.2632.1925-.3268.1075-.0636-.0851.0074-.2456.1585-.35857.1511-.11298.3251-.13563.3887-.05059z" fill="url(#bA)"/></g><g filter="url(#G)"><path d="m18.9829 10.4412c-.0329-.2307-.1679-.4046-.2313-.46268l-.2599.28518.1173.2282z" fill="url(#bB)"/></g><path d="m13.6128 9.39453c-.6531 0-1.2048.45028-1.3549 1.05877-.0446.1744.0893.3408.2678.3408h2.2311c.142 0 .2556-.1299.2272-.2718-.1258-.64098-.6937-1.12777-1.3712-1.12777z" fill="#fff"/><path d="m13.8197 9.66626c-.4949 0-.8925.40164-.8925.89244 0 .0811.0122.1623.0325.2353h1.7241c.0202-.0771.0324-.1542.0324-.2353-.004-.4908-.4016-.89244-.8965-.89244z" fill="url(#bC)"/><path d="m14.3309 10.5587c0-.2839-.2272-.5111-.5112-.5111-.2839 0-.5111.2272-.5111.5111 0 .0852.0203.1664.0568.2353h.9046c.0365-.0689.0609-.1501.0609-.2353z" fill="#000"/><g filter="url(#H)"><path d="m14.6351 10.4538c0-.2884-.2345-.48066-.2979-.53876l-.2884.27886.1775.3613z" fill="url(#bD)"/></g><g filter="url(#I)"><ellipse cx="13.55" cy="10.047" fill="#c7a7a3" fill-opacity=".9" rx=".39" ry=".197" transform="matrix(.88365127 -.46814574 .46814574 .88365127 -3.127111 7.512623)"/><ellipse cx="13.55" cy="10.047" fill="url(#bE)" rx=".39" ry=".197" transform="matrix(.88365127 -.46814574 .46814574 .88365127 -3.127111 7.512623)"/></g><g filter="url(#J)"><path d="m17.9434 8.36784c.3225-.07846 1.1246-.03923 1.6607.34436" stroke="#5b4545" stroke-linecap="round" stroke-width=".2"/></g><g filter="url(#K)"><path d="m14.1525 8.36784c-.3226-.07846-1.1246-.03923-1.6608.34436" stroke="#5b4545" stroke-linecap="round" stroke-width=".2"/></g><g filter="url(#L)"><path d="m10.9348 4.75222c.5657-.59924 1.6363-.60019 2.1309-.5108l.3957 1.29063c-.2528-.03911-.2955-.00151-.4851.18287-.1376 1.09286-1.3762 1.75667-2.8865 2.19723-.14834-1.49175.1088-2.3801.845-3.15993z" fill="#49302e"/><path d="m10.9348 4.75222c.5657-.59924 1.6363-.60019 2.1309-.5108l.3957 1.29063c-.2528-.03911-.2955-.00151-.4851.18287-.1376 1.09286-1.3762 1.75667-2.8865 2.19723-.14834-1.49175.1088-2.3801.845-3.15993z" fill="url(#bF)"/><path d="m10.9348 4.75222c.5657-.59924 1.6363-.60019 2.1309-.5108l.3957 1.29063c-.2528-.03911-.2955-.00151-.4851.18287-.1376 1.09286-1.3762 1.75667-2.8865 2.19723-.14834-1.49175.1088-2.3801.845-3.15993z" fill="url(#bG)"/></g><g filter="url(#M)"><path d="m15.4006 2.94979c-1.1327-.25007-2.1497.87997-2.2671 1.299 1.0518 3.54502 3.7131 3.35083 6.3401 3.05894 1.5726-.17473 1.7432.54195 1.8773.88835 0-3.93271-3.3442-4.67097-5.9217-5.23997z" fill="#553836"/><path d="m15.4006 2.94979c-1.1327-.25007-2.1497.87997-2.2671 1.299 1.0518 3.54502 3.7131 3.35083 6.3401 3.05894 1.5726-.17473 1.7432.54195 1.8773.88835 0-3.93271-3.3442-4.67097-5.9217-5.23997z" fill="url(#bH)"/><path d="m15.4006 2.94979c-1.1327-.25007-2.1497.87997-2.2671 1.299 1.0518 3.54502 3.7131 3.35083 6.3401 3.05894 1.5726-.17473 1.7432.54195 1.8773.88835 0-3.93271-3.3442-4.67097-5.9217-5.23997z" fill="url(#bI)"/></g><g filter="url(#N)"><path d="m13.1125 4.19849c.0233.24304.2347 1.15653.5448 1.70965" stroke="url(#bJ)" stroke-linecap="round" stroke-width=".2"/></g><g filter="url(#O)"><path d="m18.4102 6.55953-1.4254.26221c-.4229.07777-.8127-.24688-.8127-.6768 0-.38006.3076-.68815.6877-.68815h2.3408c1.3844 0 1.8426 1.39524 1.8987 1.87201-.7269-.6626-1.7218-.9472-2.6891-.76927z" fill="#664a4a"/></g><g filter="url(#P)"><path d="m20.8438 8.64062h-3.47c-.3 0-.58.14001-.77.37001-.12.15-.3.24-.51.24s-.39-.09-.51-.24c-.19-.23-.47-.37001-.77-.37001h-3.48c-.19 0-.34.15001-.34.34001v.22c0 .11.05.2.13.26.04.03.07.08.07.13v1.09997c0 1.05.85 1.91 1.91 1.91h.71c1.05 0 1.91-.85 1.91-1.91v-.61c.01-.19997.17-.34997.37-.34997s.36.16.37.35997v.6c0 1.05.85 1.91 1.91 1.91h.71c1.05 0 1.91-.85 1.91-1.91v-1.10997c0-.05.02-.1.06-.13.08-.06.13-.16.13-.26v-.21c0-.19-.15-.34001-.34-.34001zm-5.46 1.94998c0 .91-.74 1.65-1.65 1.65h-.55c-.91 0-1.65-.74-1.65-1.65v-.71997c0-.49.39-.88.88-.88h2.08c.49 0 .89.39.89.88zm5.28 0c0 .91-.74 1.65-1.65 1.65h-.55c-.91 0-1.65-.74-1.65-1.65v-.71997c0-.49.39-.88.88-.88h2.09c.49 0 .88.39.88.88z" fill="url(#bK)"/><path d="m20.8438 8.64062h-3.47c-.3 0-.58.14001-.77.37001-.12.15-.3.24-.51.24s-.39-.09-.51-.24c-.19-.23-.47-.37001-.77-.37001h-3.48c-.19 0-.34.15001-.34.34001v.22c0 .11.05.2.13.26.04.03.07.08.07.13v1.09997c0 1.05.85 1.91 1.91 1.91h.71c1.05 0 1.91-.85 1.91-1.91v-.61c.01-.19997.17-.34997.37-.34997s.36.16.37.35997v.6c0 1.05.85 1.91 1.91 1.91h.71c1.05 0 1.91-.85 1.91-1.91v-1.10997c0-.05.02-.1.06-.13.08-.06.13-.16.13-.26v-.21c0-.19-.15-.34001-.34-.34001zm-5.46 1.94998c0 .91-.74 1.65-1.65 1.65h-.55c-.91 0-1.65-.74-1.65-1.65v-.71997c0-.49.39-.88.88-.88h2.08c.49 0 .89.39.89.88zm5.28 0c0 .91-.74 1.65-1.65 1.65h-.55c-.91 0-1.65-.74-1.65-1.65v-.71997c0-.49.39-.88.88-.88h2.09c.49 0 .88.39.88.88z" fill="url(#bL)"/></g></svg>