<svg fill="none" height="32" viewBox="0 0 32 32" width="32" xmlns="http://www.w3.org/2000/svg" xmlns:xlink="http://www.w3.org/1999/xlink"><filter id="a" color-interpolation-filters="sRGB" filterUnits="userSpaceOnUse" height="14.595" width="6.556" x="9.212" y="15.806"><feFlood flood-opacity="0" result="BackgroundImageFix"/><feBlend in="SourceGraphic" in2="BackgroundImageFix" mode="normal" result="shape"/><feGaussianBlur result="effect1_foregroundBlur_4002_2101" stdDeviation=".5"/></filter><filter id="b" color-interpolation-filters="sRGB" filterUnits="userSpaceOnUse" height="13.362" width="3.95" x="17.96" y="16.284"><feFlood flood-opacity="0" result="BackgroundImageFix"/><feBlend in="SourceGraphic" in2="BackgroundImageFix" mode="normal" result="shape"/><feGaussianBlur result="effect1_foregroundBlur_4002_2101" stdDeviation=".375"/></filter><filter id="c" color-interpolation-filters="sRGB" filterUnits="userSpaceOnUse" height="14" width="2.897" x="10.503" y="16.049"><feFlood flood-opacity="0" result="BackgroundImageFix"/><feBlend in="SourceGraphic" in2="BackgroundImageFix" mode="normal" result="shape"/><feColorMatrix in="SourceAlpha" result="hardAlpha" type="matrix" values="0 0 0 0 0 0 0 0 0 0 0 0 0 0 0 0 0 0 127 0"/><feOffset dx=".1" dy=".1"/><feGaussianBlur stdDeviation=".1"/><feComposite in2="hardAlpha" k2="-1" k3="1" operator="arithmetic"/><feColorMatrix type="matrix" values="0 0 0 0 0.403922 0 0 0 0 0.368627 0 0 0 0 0.494118 0 0 0 1 0"/><feBlend in2="shape" mode="normal" result="effect1_innerShadow_4002_2101"/></filter><filter id="d" color-interpolation-filters="sRGB" filterUnits="userSpaceOnUse" height="2.883" width="2.965" x="14.509" y="18.186"><feFlood flood-opacity="0" result="BackgroundImageFix"/><feBlend in="SourceGraphic" in2="BackgroundImageFix" mode="normal" result="shape"/><feColorMatrix in="SourceAlpha" result="hardAlpha" type="matrix" values="0 0 0 0 0 0 0 0 0 0 0 0 0 0 0 0 0 0 127 0"/><feOffset dx=".1" dy="-.1"/><feGaussianBlur stdDeviation=".25"/><feComposite in2="hardAlpha" k2="-1" k3="1" operator="arithmetic"/><feColorMatrix type="matrix" values="0 0 0 0 0.156863 0 0 0 0 0.0980392 0 0 0 0 0.215686 0 0 0 1 0"/><feBlend in2="shape" mode="normal" result="effect1_innerShadow_4002_2101"/><feColorMatrix in="SourceAlpha" result="hardAlpha" type="matrix" values="0 0 0 0 0 0 0 0 0 0 0 0 0 0 0 0 0 0 127 0"/><feOffset dx="-.1" dy="-.1"/><feGaussianBlur stdDeviation=".25"/><feComposite in2="hardAlpha" k2="-1" k3="1" operator="arithmetic"/><feColorMatrix type="matrix" values="0 0 0 0 0.156863 0 0 0 0 0.0980392 0 0 0 0 0.215686 0 0 0 1 0"/><feBlend in2="effect1_innerShadow_4002_2101" mode="normal" result="effect2_innerShadow_4002_2101"/></filter><filter id="e" color-interpolation-filters="sRGB" filterUnits="userSpaceOnUse" height="14.05" width="2.902" x="18.61" y="15.999"><feFlood flood-opacity="0" result="BackgroundImageFix"/><feBlend in="SourceGraphic" in2="BackgroundImageFix" mode="normal" result="shape"/><feColorMatrix in="SourceAlpha" result="hardAlpha" type="matrix" values="0 0 0 0 0 0 0 0 0 0 0 0 0 0 0 0 0 0 127 0"/><feOffset dx="-.1" dy=".1"/><feGaussianBlur stdDeviation=".1"/><feComposite in2="hardAlpha" k2="-1" k3="1" operator="arithmetic"/><feColorMatrix type="matrix" values="0 0 0 0 0.439216 0 0 0 0 0.415686 0 0 0 0 0.584314 0 0 0 1 0"/><feBlend in2="shape" mode="normal" result="effect1_innerShadow_4002_2101"/></filter><filter id="f" color-interpolation-filters="sRGB" filterUnits="userSpaceOnUse" height="3.339" width="3.539" x="9.621" y="8.962"><feFlood flood-opacity="0" result="BackgroundImageFix"/><feBlend in="SourceGraphic" in2="BackgroundImageFix" mode="normal" result="shape"/><feColorMatrix in="SourceAlpha" result="hardAlpha" type="matrix" values="0 0 0 0 0 0 0 0 0 0 0 0 0 0 0 0 0 0 127 0"/><feOffset dx=".2"/><feGaussianBlur stdDeviation=".15"/><feComposite in2="hardAlpha" k2="-1" k3="1" operator="arithmetic"/><feColorMatrix type="matrix" values="0 0 0 0 0.619608 0 0 0 0 0.470588 0 0 0 0 0.407843 0 0 0 1 0"/><feBlend in2="shape" mode="normal" result="effect1_innerShadow_4002_2101"/></filter><filter id="g" color-interpolation-filters="sRGB" filterUnits="userSpaceOnUse" height="2.99" width="2.99" x="9.796" y="9.136"><feFlood flood-opacity="0" result="BackgroundImageFix"/><feBlend in="SourceGraphic" in2="BackgroundImageFix" mode="normal" result="shape"/><feGaussianBlur result="effect1_foregroundBlur_4002_2101" stdDeviation=".25"/></filter><filter id="h" color-interpolation-filters="sRGB" filterUnits="userSpaceOnUse" height="3.589" width="3.589" x="19.134" y="8.712"><feFlood flood-opacity="0" result="BackgroundImageFix"/><feBlend in="SourceGraphic" in2="BackgroundImageFix" mode="normal" result="shape"/><feColorMatrix in="SourceAlpha" result="hardAlpha" type="matrix" values="0 0 0 0 0 0 0 0 0 0 0 0 0 0 0 0 0 0 127 0"/><feOffset dx=".25" dy="-.25"/><feGaussianBlur stdDeviation=".25"/><feComposite in2="hardAlpha" k2="-1" k3="1" operator="arithmetic"/><feColorMatrix type="matrix" values="0 0 0 0 0.584314 0 0 0 0 0.368627 0 0 0 0 0.470588 0 0 0 1 0"/><feBlend in2="shape" mode="normal" result="effect1_innerShadow_4002_2101"/></filter><filter id="i" color-interpolation-filters="sRGB" filterUnits="userSpaceOnUse" height="2.99" width="2.99" x="19.308" y="9.136"><feFlood flood-opacity="0" result="BackgroundImageFix"/><feBlend in="SourceGraphic" in2="BackgroundImageFix" mode="normal" result="shape"/><feGaussianBlur result="effect1_foregroundBlur_4002_2101" stdDeviation=".25"/></filter><filter id="j" color-interpolation-filters="sRGB" filterUnits="userSpaceOnUse" height="12.177" width="10.373" x="10.881" y="5.007"><feFlood flood-opacity="0" result="BackgroundImageFix"/><feBlend in="SourceGraphic" in2="BackgroundImageFix" mode="normal" result="shape"/><feColorMatrix in="SourceAlpha" result="hardAlpha" type="matrix" values="0 0 0 0 0 0 0 0 0 0 0 0 0 0 0 0 0 0 127 0"/><feOffset dy=".15"/><feGaussianBlur stdDeviation=".125"/><feComposite in2="hardAlpha" k2="-1" k3="1" operator="arithmetic"/><feColorMatrix type="matrix" values="0 0 0 0 0.305882 0 0 0 0 0.2 0 0 0 0 0.172549 0 0 0 1 0"/><feBlend in2="shape" mode="normal" result="effect1_innerShadow_4002_2101"/></filter><filter id="k" color-interpolation-filters="sRGB" filterUnits="userSpaceOnUse" height="7.066" width="8.246" x="14.208" y="3.007"><feFlood flood-opacity="0" result="BackgroundImageFix"/><feBlend in="SourceGraphic" in2="BackgroundImageFix" mode="normal" result="shape"/><feGaussianBlur result="effect1_foregroundBlur_4002_2101" stdDeviation="1"/></filter><filter id="l" color-interpolation-filters="sRGB" filterUnits="userSpaceOnUse" height="8.543" width="12.601" x="9.738" y="1.531"><feFlood flood-opacity="0" result="BackgroundImageFix"/><feBlend in="SourceGraphic" in2="BackgroundImageFix" mode="normal" result="shape"/><feColorMatrix in="SourceAlpha" result="hardAlpha" type="matrix" values="0 0 0 0 0 0 0 0 0 0 0 0 0 0 0 0 0 0 127 0"/><feOffset dy="-.5"/><feGaussianBlur stdDeviation=".375"/><feComposite in2="hardAlpha" k2="-1" k3="1" operator="arithmetic"/><feColorMatrix type="matrix" values="0 0 0 0 0.207843 0 0 0 0 0.109804 0 0 0 0 0.109804 0 0 0 1 0"/><feBlend in2="shape" mode="normal" result="effect1_innerShadow_4002_2101"/></filter><filter id="m" color-interpolation-filters="sRGB" filterUnits="userSpaceOnUse" height="4.181" width="3.26" x="14.169" y="9.477"><feFlood flood-opacity="0" result="BackgroundImageFix"/><feBlend in="SourceGraphic" in2="BackgroundImageFix" mode="normal" result="shape"/><feGaussianBlur result="effect1_foregroundBlur_4002_2101" stdDeviation=".375"/></filter><filter id="n" color-interpolation-filters="sRGB" filterUnits="userSpaceOnUse" height="3.181" width="2.377" x="14.85" y="9.814"><feFlood flood-opacity="0" result="BackgroundImageFix"/><feBlend in="SourceGraphic" in2="BackgroundImageFix" mode="normal" result="shape"/><feGaussianBlur result="effect1_foregroundBlur_4002_2101" stdDeviation=".125"/></filter><filter id="o" color-interpolation-filters="sRGB" filterUnits="userSpaceOnUse" height="1.873" width="2.979" x="17.22" y="6.983"><feFlood flood-opacity="0" result="BackgroundImageFix"/><feBlend in="SourceGraphic" in2="BackgroundImageFix" mode="normal" result="shape"/><feColorMatrix in="SourceAlpha" result="hardAlpha" type="matrix" values="0 0 0 0 0 0 0 0 0 0 0 0 0 0 0 0 0 0 127 0"/><feOffset dx=".25" dy="-.4"/><feGaussianBlur stdDeviation=".3"/><feComposite in2="hardAlpha" k2="-1" k3="1" operator="arithmetic"/><feColorMatrix type="matrix" values="0 0 0 0 0.254902 0 0 0 0 0.156863 0 0 0 0 0.152941 0 0 0 1 0"/><feBlend in2="shape" mode="normal" result="effect1_innerShadow_4002_2101"/></filter><filter id="p" color-interpolation-filters="sRGB" filterUnits="userSpaceOnUse" height="1.873" width="2.98" x="12.073" y="6.983"><feFlood flood-opacity="0" result="BackgroundImageFix"/><feBlend in="SourceGraphic" in2="BackgroundImageFix" mode="normal" result="shape"/><feColorMatrix in="SourceAlpha" result="hardAlpha" type="matrix" values="0 0 0 0 0 0 0 0 0 0 0 0 0 0 0 0 0 0 127 0"/><feOffset dx=".25" dy="-.4"/><feGaussianBlur stdDeviation=".3"/><feComposite in2="hardAlpha" k2="-1" k3="1" operator="arithmetic"/><feColorMatrix type="matrix" values="0 0 0 0 0.254902 0 0 0 0 0.156863 0 0 0 0 0.152941 0 0 0 1 0"/><feBlend in2="shape" mode="normal" result="effect1_innerShadow_4002_2101"/></filter><filter id="q" color-interpolation-filters="sRGB" filterUnits="userSpaceOnUse" height=".696" width=".787" x="17.483" y="9.509"><feFlood flood-opacity="0" result="BackgroundImageFix"/><feBlend in="SourceGraphic" in2="BackgroundImageFix" mode="normal" result="shape"/><feGaussianBlur result="effect1_foregroundBlur_4002_2101" stdDeviation=".05"/></filter><filter id="r" color-interpolation-filters="sRGB" filterUnits="userSpaceOnUse" height=".913" width=".891" x="18.323" y="9.585"><feFlood flood-opacity="0" result="BackgroundImageFix"/><feBlend in="SourceGraphic" in2="BackgroundImageFix" mode="normal" result="shape"/><feGaussianBlur result="effect1_foregroundBlur_4002_2101" stdDeviation=".1"/></filter><filter id="s" color-interpolation-filters="sRGB" filterUnits="userSpaceOnUse" height="1.04" width=".986" x="13.881" y="9.521"><feFlood flood-opacity="0" result="BackgroundImageFix"/><feBlend in="SourceGraphic" in2="BackgroundImageFix" mode="normal" result="shape"/><feGaussianBlur result="effect1_foregroundBlur_4002_2101" stdDeviation=".1"/></filter><filter id="t" color-interpolation-filters="sRGB" filterUnits="userSpaceOnUse" height=".704" width=".913" x="13.127" y="9.501"><feFlood flood-opacity="0" result="BackgroundImageFix"/><feBlend in="SourceGraphic" in2="BackgroundImageFix" mode="normal" result="shape"/><feGaussianBlur result="effect1_foregroundBlur_4002_2101" stdDeviation=".05"/></filter><filter id="u" color-interpolation-filters="sRGB" filterUnits="userSpaceOnUse" height="1.681" width="3.099" x="17.074" y="7.109"><feFlood flood-opacity="0" result="BackgroundImageFix"/><feBlend in="SourceGraphic" in2="BackgroundImageFix" mode="normal" result="shape"/><feGaussianBlur result="effect1_foregroundBlur_4002_2101" stdDeviation=".25"/></filter><filter id="v" color-interpolation-filters="sRGB" filterUnits="userSpaceOnUse" height="1.738" width="3.177" x="11.855" y="7.172"><feFlood flood-opacity="0" result="BackgroundImageFix"/><feBlend in="SourceGraphic" in2="BackgroundImageFix" mode="normal" result="shape"/><feGaussianBlur result="effect1_foregroundBlur_4002_2101" stdDeviation=".25"/></filter><filter id="w" color-interpolation-filters="sRGB" filterUnits="userSpaceOnUse" height="2.269" width="1.008" x="10.873" y="5.445"><feFlood flood-opacity="0" result="BackgroundImageFix"/><feBlend in="SourceGraphic" in2="BackgroundImageFix" mode="normal" result="shape"/><feGaussianBlur result="effect1_foregroundBlur_4002_2101" stdDeviation=".125"/></filter><linearGradient id="x" gradientUnits="userSpaceOnUse" x1="16" x2="16" y1="16.271" y2="31.208"><stop offset="0" stop-color="#594e72"/><stop offset="1" stop-color="#594984"/></linearGradient><radialGradient id="y" cx="0" cy="0" gradientTransform="matrix(0 -16.4313 6.37009 0 22.9949 25.4521)" gradientUnits="userSpaceOnUse" r="1"><stop offset=".156" stop-color="#7b74a6"/><stop offset="1" stop-color="#5f5490" stop-opacity="0"/></radialGradient><radialGradient id="z" cx="0" cy="0" gradientTransform="matrix(0 10.1215 -4.59696 0 16 23.0243)" gradientUnits="userSpaceOnUse" r="1"><stop offset=".397" stop-color="#c6bbd1"/><stop offset="1" stop-color="#a89cb3"/></radialGradient><linearGradient id="A" gradientUnits="userSpaceOnUse" x1="18.903" x2="17.059" y1="25.271" y2="25.271"><stop offset="0" stop-color="#7a6c85"/><stop offset="1" stop-color="#c7bcd2" stop-opacity="0"/></linearGradient><linearGradient id="B" gradientUnits="userSpaceOnUse" x1="15.591" x2="15.669" y1="17.818" y2="21.708"><stop offset="0" stop-color="#877f93"/><stop offset="1" stop-color="#877f93" stop-opacity="0"/></linearGradient><radialGradient id="C" cx="0" cy="0" gradientTransform="matrix(0 -10.3135 1.68433 0 25 29.9593)" gradientUnits="userSpaceOnUse" r="1"><stop offset="0" stop-color="#776d9f"/><stop offset="1" stop-color="#6d6193"/></radialGradient><linearGradient id="D" gradientUnits="userSpaceOnUse" x1="23" x2="23.744" y1="29.446" y2="29.422"><stop offset=".276" stop-color="#504176"/><stop offset="1" stop-color="#504176" stop-opacity="0"/></linearGradient><linearGradient id="E" gradientUnits="userSpaceOnUse" x1="11.902" x2="11.902" y1="16.049" y2="29.949"><stop offset="0" stop-color="#594b78"/><stop offset=".524" stop-color="#5d5087"/></linearGradient><linearGradient id="F" gradientUnits="userSpaceOnUse" x1="13.671" x2="13.05" y1="22.509" y2="22.509"><stop offset="0" stop-color="#553a63"/><stop offset="1" stop-color="#553a63" stop-opacity="0"/></linearGradient><radialGradient id="G" cx="0" cy="0" gradientTransform="matrix(-1.53126491 2.09374127 -2.90145657 -2.12199027 13.7156 16.3334)" gradientUnits="userSpaceOnUse" r="1"><stop offset="0" stop-color="#4e3360"/><stop offset="1" stop-color="#4e3360" stop-opacity="0"/></radialGradient><linearGradient id="H" gradientUnits="userSpaceOnUse" x1="11.902" x2="12.839" y1="25.925" y2="25.524"><stop offset=".196" stop-color="#594c7d"/><stop offset="1" stop-color="#594c7d" stop-opacity="0"/></linearGradient><radialGradient id="I" cx="0" cy="0" gradientTransform="matrix(1.0937527 -.31250086 .15357602 .53751591 11.3953 19.7162)" gradientUnits="userSpaceOnUse" r="1"><stop offset=".241" stop-color="#4b3b6d"/><stop offset="1" stop-color="#4b3b6d" stop-opacity="0"/></radialGradient><linearGradient id="J" gradientUnits="userSpaceOnUse" x1="12.223" x2="12.434" y1="16.049" y2="16.451"><stop offset="0" stop-color="#584360"/><stop offset="1" stop-color="#584360" stop-opacity="0"/></linearGradient><linearGradient id="K" gradientUnits="userSpaceOnUse" x1="15.988" x2="15.988" y1="18.943" y2="20.927"><stop offset=".006" stop-color="#5a3859"/><stop offset="1" stop-color="#463952"/></linearGradient><linearGradient id="L" gradientUnits="userSpaceOnUse" x1="18.71" x2="20.111" y1="21.556" y2="21.556"><stop offset=".093" stop-color="#5a4c74"/><stop offset="1" stop-color="#625a91" stop-opacity="0"/></linearGradient><radialGradient id="M" cx="0" cy="0" gradientTransform="matrix(0 3.75 -4.3769 0 15.9999 18.474)" gradientUnits="userSpaceOnUse" r="1"><stop offset=".362" stop-color="#cdbed0"/><stop offset="1" stop-color="#a093a3"/></radialGradient><radialGradient id="N" cx="0" cy="0" gradientTransform="matrix(0 -5.1875 6.81546 0 15.9999 20.9711)" gradientUnits="userSpaceOnUse" r="1"><stop offset=".533" stop-color="#9d8392" stop-opacity="0"/><stop offset=".876" stop-color="#815a72"/></radialGradient><linearGradient id="O" gradientUnits="userSpaceOnUse" x1="9.452" x2="7.02" y1="23.967" y2="23.967"><stop offset="0" stop-color="#43395f"/><stop offset="1" stop-color="#43395f" stop-opacity="0"/></linearGradient><radialGradient id="P" cx="0" cy="0" gradientTransform="matrix(0 8.8125 -3.45478 0 15.9827 21.3646)" gradientUnits="userSpaceOnUse" r="1"><stop offset=".006" stop-color="#59416d"/><stop offset=".94" stop-color="#3d3247"/></radialGradient><linearGradient id="Q"><stop offset="0" stop-color="#2b1b3a"/><stop offset="1" stop-color="#2b1b3a" stop-opacity="0"/></linearGradient><linearGradient id="R" gradientUnits="userSpaceOnUse" x1="14.606" x2="14.899" xlink:href="#Q" y1="24.829" y2="24.869"/><linearGradient id="S" gradientUnits="userSpaceOnUse" x1="17.411" x2="17.012" xlink:href="#Q" y1="24.646" y2="24.693"/><radialGradient id="T" cx="0" cy="0" gradientTransform="matrix(0 1.3026 -2.71576 0 16.0293 17.2201)" gradientUnits="userSpaceOnUse" r="1"><stop offset="0" stop-color="#815356"/><stop offset="1" stop-color="#865d57"/></radialGradient><radialGradient id="U" cx="0" cy="0" gradientTransform="matrix(1.75472 0 0 3.07077 9.62134 10.6312)" gradientUnits="userSpaceOnUse" r="1"><stop offset=".351" stop-color="#865d5f"/><stop offset="1" stop-color="#76594a"/></radialGradient><radialGradient id="V" cx="0" cy="0" gradientTransform="matrix(-.94971298 -1.35733887 1.35733887 -.94971298 11.2907 12.3006)" gradientUnits="userSpaceOnUse" r="1"><stop offset=".34" stop-color="#834e63"/><stop offset="1" stop-color="#834e63" stop-opacity="0"/></radialGradient><linearGradient id="W" gradientUnits="userSpaceOnUse" x1="11.291" x2="10.65" y1="10.91" y2="10.91"><stop offset="0" stop-color="#694448"/><stop offset="1" stop-color="#6e464d"/></linearGradient><linearGradient id="X" gradientUnits="userSpaceOnUse" x1="21.89" x2="21.071" y1="9.54" y2="12.076"><stop offset="0" stop-color="#cca68c"/><stop offset="1" stop-color="#ae7f75"/></linearGradient><radialGradient id="Y" cx="0" cy="0" gradientTransform="matrix(.82663435 -.60191744 .68701092 .94349621 21.1753 10.3664)" gradientUnits="userSpaceOnUse" r="1"><stop offset=".543" stop-color="#8f6459"/><stop offset="1" stop-color="#8f6459" stop-opacity="0"/></radialGradient><radialGradient id="Z" cx="0" cy="0" gradientTransform="matrix(.82119299 -1.5104056 .88404601 .48064731 20.7619 11.4524)" gradientUnits="userSpaceOnUse" r="1"><stop offset=".755" stop-color="#8a5d55" stop-opacity="0"/><stop offset=".916" stop-color="#8a5d55"/></radialGradient><radialGradient id="aa" cx="0" cy="0" gradientTransform="matrix(.25926658 .25663464 -.33083738 .33423032 20.8032 10.6312)" gradientUnits="userSpaceOnUse" r="1"><stop offset="0" stop-color="#895f52"/><stop offset="1" stop-color="#895f52" stop-opacity="0"/></radialGradient><linearGradient id="ab" gradientUnits="userSpaceOnUse" x1="20.074" x2="12.438" y1="11.021" y2="12.159"><stop offset="0" stop-color="#c69980"/><stop offset="1" stop-color="#916762"/></linearGradient><radialGradient id="ac" cx="0" cy="0" gradientTransform="matrix(0 -1.30697 1.60858 0 18.3841 9.35983)" gradientUnits="userSpaceOnUse" r="1"><stop offset=".235" stop-color="#ab7773"/><stop offset="1" stop-color="#ab7773" stop-opacity="0"/></radialGradient><radialGradient id="ad" cx="0" cy="0" gradientTransform="matrix(0 -1.37399 1.70868 0 13.8264 9.49388)" gradientUnits="userSpaceOnUse" r="1"><stop offset=".293" stop-color="#8f5d65"/><stop offset="1" stop-color="#8f5d65" stop-opacity="0"/></radialGradient><linearGradient id="ae" gradientUnits="userSpaceOnUse" x1="10.643" x2="12.524" y1="13.716" y2="13.649"><stop offset="0" stop-color="#9b7569"/><stop offset="1" stop-color="#9b7569" stop-opacity="0"/></linearGradient><linearGradient id="af" gradientUnits="userSpaceOnUse" x1="20.959" x2="19.846" y1="12.875" y2="12.778"><stop offset="0" stop-color="#c1987f"/><stop offset="1" stop-color="#c1987f" stop-opacity="0"/></linearGradient><radialGradient id="ag" cx="0" cy="0" gradientTransform="matrix(0 8.32774 -17.8944 0 15.91 9.09777)" gradientUnits="userSpaceOnUse" r="1"><stop offset=".631" stop-color="#9c6375" stop-opacity="0"/><stop offset="1" stop-color="#924d82"/></radialGradient><linearGradient id="ah" gradientUnits="userSpaceOnUse" x1="15.507" x2="23.65" y1="8.036" y2="5.121"><stop offset="0" stop-color="#c89f8b"/><stop offset="1" stop-color="#c89f8b" stop-opacity="0"/></linearGradient><radialGradient id="ai" cx="0" cy="0" gradientTransform="matrix(.79775022 -2.95636808 1.09631746 .29583173 20.383 6.52526)" gradientUnits="userSpaceOnUse" r="1"><stop offset="0" stop-color="#554042"/><stop offset="1" stop-color="#554042" stop-opacity="0"/></radialGradient><radialGradient id="aj" cx="0" cy="0" gradientTransform="matrix(3.82451017 .35194884 -.1892403 2.05641098 18.7405 4.76552)" gradientUnits="userSpaceOnUse" r="1"><stop offset=".392" stop-color="#644949"/><stop offset="1" stop-color="#644949" stop-opacity="0"/></radialGradient><radialGradient id="ak" cx="0" cy="0" gradientTransform="matrix(0 1.67903 -2.60035 0 16.0382 2.03064)" gradientUnits="userSpaceOnUse" r="1"><stop offset="0" stop-color="#624c49"/><stop offset="1" stop-color="#624c49" stop-opacity="0"/></radialGradient><radialGradient id="al" cx="0" cy="0" gradientTransform="matrix(3.073688 -2.25247596 3.52888511 4.81545286 9.58986 8.84812)" gradientUnits="userSpaceOnUse" r="1"><stop offset="0" stop-color="#4e3c3a"/><stop offset="1" stop-color="#4e3c3a" stop-opacity="0"/></radialGradient><linearGradient id="am" gradientUnits="userSpaceOnUse" x1="15.174" x2="16.112" y1="11.68" y2="11.68"><stop offset="0" stop-color="#8b6455"/><stop offset="1" stop-color="#8b6455" stop-opacity="0"/></linearGradient><linearGradient id="an" gradientUnits="userSpaceOnUse" x1="16.977" x2="15.951" y1="12.002" y2="11.988"><stop offset="0" stop-color="#cda186"/><stop offset="1" stop-color="#cda186" stop-opacity="0"/></linearGradient><linearGradient id="ao" gradientUnits="userSpaceOnUse" x1="16.233" x2="16.233" y1="12.745" y2="12.172"><stop offset="0" stop-color="#9c6073"/><stop offset="1" stop-color="#9c6073" stop-opacity="0"/></linearGradient><radialGradient id="ap" cx="0" cy="0" gradientTransform="matrix(0 .196883 -.63254 0 16.3654 12.2377)" gradientUnits="userSpaceOnUse" r="1"><stop offset="0" stop-color="#c39787"/><stop offset="1" stop-color="#c39787" stop-opacity="0"/></radialGradient><linearGradient id="aq" gradientUnits="userSpaceOnUse" x1="16.164" x2="16.164" y1="12.787" y2="12.619"><stop offset="0" stop-color="#8e5263"/><stop offset="1" stop-color="#8e5263" stop-opacity="0"/></linearGradient><linearGradient id="ar" gradientUnits="userSpaceOnUse" x1="15.001" x2="15.436" y1="14.36" y2="13.672"><stop offset="0" stop-color="#a87d7b"/><stop offset=".663" stop-color="#a87d7b" stop-opacity="0"/></linearGradient><linearGradient id="as"><stop offset="0" stop-color="#422235"/><stop offset="1" stop-color="#422235" stop-opacity="0"/></linearGradient><radialGradient id="at" cx="0" cy="0" gradientTransform="matrix(.10418498 -.60321693 1.78456815 .30822278 18.4807 8.54711)" gradientUnits="userSpaceOnUse" r="1" xlink:href="#as"/><radialGradient id="au" cx="0" cy="0" gradientTransform="matrix(.10419147 -.60321682 1.78466347 .30825849 13.3335 8.54711)" gradientUnits="userSpaceOnUse" r="1" xlink:href="#as"/><linearGradient id="av"><stop offset=".802" stop-color="#7d574a"/><stop offset="1" stop-color="#694b43"/><stop offset="1" stop-color="#804d49"/><stop offset="1" stop-color="#664944"/></linearGradient><radialGradient id="aw" cx="0" cy="0" gradientTransform="matrix(0 .811063 -1.29009 0 18.217 9.94929)" gradientUnits="userSpaceOnUse" r="1" xlink:href="#av"/><linearGradient id="ax"><stop offset=".766" stop-color="#ffe6e2" stop-opacity="0"/><stop offset=".966" stop-color="#ffe6e2"/></linearGradient><radialGradient id="ay" cx="0" cy="0" gradientTransform="matrix(-.23184441 -.29876279 .41132499 -.31919437 17.9888 10.0333)" gradientUnits="userSpaceOnUse" r="1" xlink:href="#ax"/><linearGradient id="az"><stop offset="0" stop-color="#b4948d"/><stop offset="1" stop-color="#b4948d" stop-opacity="0"/></linearGradient><linearGradient id="aA" gradientUnits="userSpaceOnUse" x1="18.995" x2="18.681" xlink:href="#az" y1="10.003" y2="10.196"/><radialGradient id="aB" cx="0" cy="0" gradientTransform="matrix(0 .811104 -1.29015 0 13.8542 9.94919)" gradientUnits="userSpaceOnUse" r="1" xlink:href="#av"/><linearGradient id="aC" gradientUnits="userSpaceOnUse" x1="14.598" x2="14.284" xlink:href="#az" y1="10.003" y2="10.196"/><radialGradient id="aD" cx="0" cy="0" gradientTransform="matrix(-.00773336 -.49392746 .59372123 -.00929582 13.5679 10.1684)" gradientUnits="userSpaceOnUse" r="1" xlink:href="#ax"/><linearGradient id="aE"><stop offset="0" stop-color="#5b4545"/><stop offset="1" stop-color="#5b4545" stop-opacity="0"/></linearGradient><linearGradient id="aF" gradientUnits="userSpaceOnUse" x1="19.01" x2="18.59" xlink:href="#aE" y1="7.864" y2="7.005"/><linearGradient id="aG" gradientUnits="userSpaceOnUse" x1="13.706" x2="12.517" xlink:href="#aE" y1="7.736" y2="7.237"/><linearGradient id="aH" gradientUnits="userSpaceOnUse" x1="11.377" x2="11.377" y1="5.722" y2="7.878"><stop offset=".228" stop-color="#4a3236"/><stop offset="1" stop-color="#4a3236" stop-opacity="0"/></linearGradient><path d="m16 15.4594c-6.08 0-11 4.92-11 11v3.5h22v-3.5c0-6.07-4.93-11-11-11z" fill="url(#x)"/><path d="m16 15.4594c-6.08 0-11 4.92-11 11v3.5h22v-3.5c0-6.07-4.93-11-11-11z" fill="url(#y)"/><g filter="url(#a)"><path d="m13.4187 16.8081c-.5124 0-1.2955-.0293-1.7699.1661l-1.3801 2.7239c-.09.19.06.41.27.41h1.55c.24 0 .35.29.19.45l-1.78 1.3428c-.26.26-.36.65-.23 1l2.9128 6.5005 1.5862-1.1163-1.339-11.477z" fill="#46375f"/></g><g filter="url(#b)"><path d="m20.9045 21.1407-1.1891-.828c-.1486-.1486-.0437-.3934.1661-.3934h.9181c.1836 0 .306-.1924.2273-.3585l-1.0754-2.2907c-.2099-.0874-.4284-.1661-.647-.236h-.5945v11.8618l2.4043-6.8721c.1049-.3148.0262-.6558-.2098-.8831z" fill="#493e6a"/></g><path d="m18.71 16.0793h-5.42v13.89h5.42z" fill="url(#z)"/><path d="m18.71 16.0793h-5.42v13.89h5.42z" fill="url(#A)"/><path d="m18.71 16.0793h-5.42v13.89h5.42z" fill="url(#B)"/><path d="m23 17.9771v11.9822h4v-3.5c0-3.412-1.5577-6.4638-4-8.4822z" fill="url(#C)"/><path d="m23 17.9771v11.9822h4v-3.5c0-3.412-1.5577-6.4638-4-8.4822z" fill="url(#D)"/><g filter="url(#c)"><path d="m13.29 16.0493h-.85c-.18.06-.36.13-.53.2l-1.27 2.69c-.09.19.06.41.27.41h1.05c.24 0 .35.29.19.45l-1.36 1.33c-.26.26-.36.65-.23 1l2.73 7.82h.01v-13.9z" fill="url(#E)"/><path d="m13.29 16.0493h-.85c-.18.06-.36.13-.53.2l-1.27 2.69c-.09.19.06.41.27.41h1.05c.24 0 .35.29.19.45l-1.36 1.33c-.26.26-.36.65-.23 1l2.73 7.82h.01v-13.9z" fill="url(#F)"/><path d="m13.29 16.0493h-.85c-.18.06-.36.13-.53.2l-1.27 2.69c-.09.19.06.41.27.41h1.05c.24 0 .35.29.19.45l-1.36 1.33c-.26.26-.36.65-.23 1l2.73 7.82h.01v-13.9z" fill="url(#G)"/></g><path d="m13.29 16.0493h-.85c-.18.06-.36.13-.53.2l-1.27 2.69c-.09.19.06.41.27.41h1.05c.24 0 .35.29.19.45l-1.36 1.33c-.26.26-.36.65-.23 1l2.73 7.82h.01v-13.9z" fill="url(#H)"/><path d="m13.29 16.0493h-.85c-.18.06-.36.13-.53.2l-1.27 2.69c-.09.19.06.41.27.41h1.05c.24 0 .35.29.19.45l-1.36 1.33c-.26.26-.36.65-.23 1l2.73 7.82h.01v-13.9z" fill="url(#I)"/><path d="m13.29 16.0493h-.85c-.18.06-.36.13-.53.2l-1.27 2.69c-.09.19.06.41.27.41h1.05c.24 0 .35.29.19.45l-1.36 1.33c-.26.26-.36.65-.23 1l2.73 7.82h.01v-13.9z" fill="url(#J)"/><g filter="url(#d)"><path d="m16.0125 18.2865-1.3562 1.2751c-.0483.0454-.0611.1171-.0315.1763l.5962 1.1931c.0423.0848.1289.1383.2236.1383h1.0901c.0952 0 .182-.054.2242-.1393l.5993-1.2127c.029-.0588.0165-.1296-.0309-.1749z" fill="url(#K)"/></g><g filter="url(#e)"><path d="m21.22 21.0794-1.36-1.33c-.17-.17-.05-.45.19-.45h1.05c.21 0 .35-.22.26-.41l-1.23-2.62c-.24-.1-.49-.19-.74-.27h-.68v13.95l2.75-7.86c.12-.36.03-.75-.24-1.01z" fill="#615990"/><path d="m21.22 21.0794-1.36-1.33c-.17-.17-.05-.45.19-.45h1.05c.21 0 .35-.22.26-.41l-1.23-2.62c-.24-.1-.49-.19-.74-.27h-.68v13.95l2.75-7.86c.12-.36.03-.75-.24-1.01z" fill="url(#L)"/></g><path d="m15.9999 15.0162h-2.71v4.74c0 .31.36.49.61.29l2.1-1.3925 2.1 1.3925c.25.2.61.02.61-.29v-4.74z" fill="url(#M)"/><path d="m15.9999 15.0162h-2.71v4.74c0 .31.36.49.61.29l2.1-1.3925 2.1 1.3925c.25.2.61.02.61-.29v-4.74z" fill="url(#N)"/><path d="m7.03187 29.9594h1.93823v-11.9642c-1.78268 1.4818-3.08884 3.5167-3.65643 5.8427-.20346.8439-.30902 1.7254-.30371 2.6315l.01996 3.49z" fill="url(#O)"/><path d="m15.5046 21.0693c-.1235 0-.2285.0902-.2472.2122l-1.3275 8.6678h4.11l-1.3177-8.6675c-.0185-.1222-.1236-.2125-.2471-.2125z" fill="url(#P)"/><path d="m15.5046 21.0693c-.1235 0-.2285.0902-.2472.2122l-1.3275 8.6678h4.11l-1.3177-8.6675c-.0185-.1222-.1236-.2125-.2471-.2125z" fill="url(#R)"/><path d="m15.5046 21.0693c-.1235 0-.2285.0902-.2472.2122l-1.3275 8.6678h4.11l-1.3177-8.6675c-.0185-.1222-.1236-.2125-.2471-.2125z" fill="url(#S)"/><path d="m14.0449 16.849c.0209.2135.205.691.7461 1.0547.2135.1434 1.2131.6286 1.1927.6188.1562-.0781.8073-.2985 1.2839-.6188.5411-.3637.7252-.8412.7461-1.0547l-1.9844-.9531z" fill="url(#T)"/><g filter="url(#f)"><circle cx="11.291" cy="10.631" fill="url(#U)" r="1.669"/></g><circle cx="11.291" cy="10.631" fill="url(#V)" r="1.669"/><g filter="url(#g)"><circle cx="11.291" cy="10.631" fill="url(#W)" r=".995"/></g><g filter="url(#h)"><circle cx="20.803" cy="10.631" fill="url(#X)" r="1.669"/><circle cx="20.803" cy="10.631" fill="url(#Y)" r="1.669"/></g><g filter="url(#i)"><circle cx="20.803" cy="10.631" fill="#a57c70" r=".995"/><circle cx="20.803" cy="10.631" fill="url(#Z)" r=".995"/><circle cx="20.803" cy="10.631" fill="url(#aa)" r=".995"/></g><g filter="url(#j)"><path d="m10.9388 10.0185c.0162.0011.0326.0017.0491.0017 0 0-.0536-.8533-.1073-1.43992 0-.26665.1073-.58663.3218-.74661l.1609-.15999c.2682-.21332.3755-.5333.3755-.85327v-.85328c0-.26664.1609-.47996.4291-.53329.6436-.15999 1.9844-.42664 3.9153-.42664s3.2717.26665 3.9154.42664c.2145.05333.429.26665.429.53329v.85328c0 .31997.1609.63995.3755.85327.502.35179.4708.54529.4291.95993-.0537.53329-.1073 1.43989-.1073 1.43989.0061 0 .0121-.0001.0181-.0002l-.2658 3.9581c-.1605 1.7694-1.5516 3.0027-3.2101 3.0027h-3.2102c-1.712 0-3.0496-1.2333-3.2101-3.0027z" fill="url(#ab)"/><path d="m10.9388 10.0185c.0162.0011.0326.0017.0491.0017 0 0-.0536-.8533-.1073-1.43992 0-.26665.1073-.58663.3218-.74661l.1609-.15999c.2682-.21332.3755-.5333.3755-.85327v-.85328c0-.26664.1609-.47996.4291-.53329.6436-.15999 1.9844-.42664 3.9153-.42664s3.2717.26665 3.9154.42664c.2145.05333.429.26665.429.53329v.85328c0 .31997.1609.63995.3755.85327.502.35179.4708.54529.4291.95993-.0537.53329-.1073 1.43989-.1073 1.43989.0061 0 .0121-.0001.0181-.0002l-.2658 3.9581c-.1605 1.7694-1.5516 3.0027-3.2101 3.0027h-3.2102c-1.712 0-3.0496-1.2333-3.2101-3.0027z" fill="url(#ac)"/><path d="m10.9388 10.0185c.0162.0011.0326.0017.0491.0017 0 0-.0536-.8533-.1073-1.43992 0-.26665.1073-.58663.3218-.74661l.1609-.15999c.2682-.21332.3755-.5333.3755-.85327v-.85328c0-.26664.1609-.47996.4291-.53329.6436-.15999 1.9844-.42664 3.9153-.42664s3.2717.26665 3.9154.42664c.2145.05333.429.26665.429.53329v.85328c0 .31997.1609.63995.3755.85327.502.35179.4708.54529.4291.95993-.0537.53329-.1073 1.43989-.1073 1.43989.0061 0 .0121-.0001.0181-.0002l-.2658 3.9581c-.1605 1.7694-1.5516 3.0027-3.2101 3.0027h-3.2102c-1.712 0-3.0496-1.2333-3.2101-3.0027z" fill="url(#ad)"/></g><path d="m10.8806 8.58028c0-.26665.1073-.58663.3218-.74661l.1609-.15999c.2682-.21332.3755-.5333.3755-.85327v-.85328c0-.26664.1609-.47996.4291-.53329.6436-.15999 1.9844-.42664 3.9153-.42664s3.2717.26665 3.9154.42664c.2145.05333.429.26665.429.53329v.85328c0 .31997.1609.63995.3755.85327.502.35179.4708.54529.4291.95993-.0537.53329-.1073 1.43989-.1073 1.43989.0061 0 .0121-.0001.0181-.0002l-.2658 3.9581c-.1605 1.7694-1.5516 3.0027-3.2101 3.0027h-3.2102c-1.712 0-3.0496-1.2333-3.2101-3.0027-.1394-1.8163-.2004-3.6379-.3662-5.45112z" fill="url(#ae)"/><path d="m10.8806 8.58028c0-.26665.1073-.58663.3218-.74661l.1609-.15999c.2682-.21332.3755-.5333.3755-.85327v-.85328c0-.26664.1609-.47996.4291-.53329.6436-.15999 1.9844-.42664 3.9153-.42664s3.2717.26665 3.9154.42664c.2145.05333.429.26665.429.53329v.85328c0 .31997.1609.63995.3755.85327.502.35179.4708.54529.4291.95993-.0537.53329-.1073 1.43989-.1073 1.43989.0061 0 .0121-.0001.0181-.0002l-.2658 3.9581c-.1605 1.7694-1.5516 3.0027-3.2101 3.0027h-3.2102c-1.712 0-3.0496-1.2333-3.2101-3.0027-.1394-1.8163-.2004-3.6379-.3662-5.45112z" fill="url(#af)"/><path d="m10.8806 8.58028c0-.26665.1073-.58663.3218-.74661l.1609-.15999c.2682-.21332.3755-.5333.3755-.85327v-.85328c0-.26664.1609-.47996.4291-.53329.6436-.15999 1.9844-.42664 3.9153-.42664s3.2717.26665 3.9154.42664c.2145.05333.429.26665.429.53329v.85328c0 .31997.1609.63995.3755.85327.502.35179.4708.54529.4291.95993-.0537.53329-.1073 1.43989-.1073 1.43989.0061 0 .0121-.0001.0181-.0002l-.2658 3.9581c-.1605 1.7694-1.5516 3.0027-3.2101 3.0027h-3.2102c-1.712 0-3.0496-1.2333-3.2101-3.0027-.1394-1.8163-.2004-3.6379-.3662-5.45112z" fill="url(#ag)"/><g filter="url(#k)"><path d="m20.0014 5.0072-3.0772 1.02593c-.5239.17468-.8221.72624-.6813 1.26026.1346.5105.6282.84096 1.1515.7709l3.0594-.40964z" fill="url(#ah)"/></g><g filter="url(#l)"><path d="m20.8567 4.15395.429.21332c.7509.37331 1.18 1.22658 1.0191 2.13318l-.59 3.03978c-.0526.31394-.2601.52517-.5719.53307-.006.0002-.012.0002-.0181.0002 0 0 .0537-.9066.1073-1.4399.0436-.43306-.032-.56517-.4291-.95993-.2145-.21332-.3754-.5333-.3754-.85327v-.85327c0-.26665-.2146-.47997-.4291-.5333-.6436-.15999-1.9845-.42664-3.9153-.42664-1.9309 0-3.2718.26665-3.9154.42664-.2682.05333-.4291.26665-.4291.5333v.85327c0 .31997-.1072.63995-.3754.85327l-.1609.15999c-.2146.15999-.3218.47996-.3218.74661.0536.58663.1072 1.43993.1072 1.43993-.0165 0-.0328-.0006-.049-.0017-.2997-.02048-.5437-.22802-.5946-.5316l-.58997-3.03978c-.10727-.85327.32177-1.70654 1.07267-2.07985l.4291-.21332c.2682-.15999.5364-.3733.8045-.58662l.9655-1.01326c.5899-.5333 1.4481-.69329 2.199-.31998.5363.15999 1.1263.15999 1.6627 0 .8045-.26665 1.7163-.05333 2.3599.5333l.8045.79994c.2146.26665.4828.42663.8046.58662z" fill="#4f3332"/><path d="m20.8567 4.15395.429.21332c.7509.37331 1.18 1.22658 1.0191 2.13318l-.59 3.03978c-.0526.31394-.2601.52517-.5719.53307-.006.0002-.012.0002-.0181.0002 0 0 .0537-.9066.1073-1.4399.0436-.43306-.032-.56517-.4291-.95993-.2145-.21332-.3754-.5333-.3754-.85327v-.85327c0-.26665-.2146-.47997-.4291-.5333-.6436-.15999-1.9845-.42664-3.9153-.42664-1.9309 0-3.2718.26665-3.9154.42664-.2682.05333-.4291.26665-.4291.5333v.85327c0 .31997-.1072.63995-.3754.85327l-.1609.15999c-.2146.15999-.3218.47996-.3218.74661.0536.58663.1072 1.43993.1072 1.43993-.0165 0-.0328-.0006-.049-.0017-.2997-.02048-.5437-.22802-.5946-.5316l-.58997-3.03978c-.10727-.85327.32177-1.70654 1.07267-2.07985l.4291-.21332c.2682-.15999.5364-.3733.8045-.58662l.9655-1.01326c.5899-.5333 1.4481-.69329 2.199-.31998.5363.15999 1.1263.15999 1.6627 0 .8045-.26665 1.7163-.05333 2.3599.5333l.8045.79994c.2146.26665.4828.42663.8046.58662z" fill="url(#ai)"/><path d="m20.8567 4.15395.429.21332c.7509.37331 1.18 1.22658 1.0191 2.13318l-.59 3.03978c-.0526.31394-.2601.52517-.5719.53307-.006.0002-.012.0002-.0181.0002 0 0 .0537-.9066.1073-1.4399.0436-.43306-.032-.56517-.4291-.95993-.2145-.21332-.3754-.5333-.3754-.85327v-.85327c0-.26665-.2146-.47997-.4291-.5333-.6436-.15999-1.9845-.42664-3.9153-.42664-1.9309 0-3.2718.26665-3.9154.42664-.2682.05333-.4291.26665-.4291.5333v.85327c0 .31997-.1072.63995-.3754.85327l-.1609.15999c-.2146.15999-.3218.47996-.3218.74661.0536.58663.1072 1.43993.1072 1.43993-.0165 0-.0328-.0006-.049-.0017-.2997-.02048-.5437-.22802-.5946-.5316l-.58997-3.03978c-.10727-.85327.32177-1.70654 1.07267-2.07985l.4291-.21332c.2682-.15999.5364-.3733.8045-.58662l.9655-1.01326c.5899-.5333 1.4481-.69329 2.199-.31998.5363.15999 1.1263.15999 1.6627 0 .8045-.26665 1.7163-.05333 2.3599.5333l.8045.79994c.2146.26665.4828.42663.8046.58662z" fill="url(#aj)"/><path d="m20.8567 4.15395.429.21332c.7509.37331 1.18 1.22658 1.0191 2.13318l-.59 3.03978c-.0526.31394-.2601.52517-.5719.53307-.006.0002-.012.0002-.0181.0002 0 0 .0537-.9066.1073-1.4399.0436-.43306-.032-.56517-.4291-.95993-.2145-.21332-.3754-.5333-.3754-.85327v-.85327c0-.26665-.2146-.47997-.4291-.5333-.6436-.15999-1.9845-.42664-3.9153-.42664-1.9309 0-3.2718.26665-3.9154.42664-.2682.05333-.4291.26665-.4291.5333v.85327c0 .31997-.1072.63995-.3754.85327l-.1609.15999c-.2146.15999-.3218.47996-.3218.74661.0536.58663.1072 1.43993.1072 1.43993-.0165 0-.0328-.0006-.049-.0017-.2997-.02048-.5437-.22802-.5946-.5316l-.58997-3.03978c-.10727-.85327.32177-1.70654 1.07267-2.07985l.4291-.21332c.2682-.15999.5364-.3733.8045-.58662l.9655-1.01326c.5899-.5333 1.4481-.69329 2.199-.31998.5363.15999 1.1263.15999 1.6627 0 .8045-.26665 1.7163-.05333 2.3599.5333l.8045.79994c.2146.26665.4828.42663.8046.58662z" fill="url(#ak)"/><path d="m20.8567 4.15395.429.21332c.7509.37331 1.18 1.22658 1.0191 2.13318l-.59 3.03978c-.0526.31394-.2601.52517-.5719.53307-.006.0002-.012.0002-.0181.0002 0 0 .0537-.9066.1073-1.4399.0436-.43306-.032-.56517-.4291-.95993-.2145-.21332-.3754-.5333-.3754-.85327v-.85327c0-.26665-.2146-.47997-.4291-.5333-.6436-.15999-1.9845-.42664-3.9153-.42664-1.9309 0-3.2718.26665-3.9154.42664-.2682.05333-.4291.26665-.4291.5333v.85327c0 .31997-.1072.63995-.3754.85327l-.1609.15999c-.2146.15999-.3218.47996-.3218.74661.0536.58663.1072 1.43993.1072 1.43993-.0165 0-.0328-.0006-.049-.0017-.2997-.02048-.5437-.22802-.5946-.5316l-.58997-3.03978c-.10727-.85327.32177-1.70654 1.07267-2.07985l.4291-.21332c.2682-.15999.5364-.3733.8045-.58662l.9655-1.01326c.5899-.5333 1.4481-.69329 2.199-.31998.5363.15999 1.1263.15999 1.6627 0 .8045-.26665 1.7163-.05333 2.3599.5333l.8045.79994c.2146.26665.4828.42663.8046.58662z" fill="url(#al)"/></g><g filter="url(#m)"><path d="m15.7629 10.509-.8203 1.6995c-.1017.3496.1423.6991.488.6991h.7372c.3457 0 .5897-.3549.488-.6991l-.4982-1.6995c-.1067-.3764-.2829-.3764-.3947 0z" fill="#87565c"/></g><g filter="url(#n)"><path d="m15.656 10.3459-.5313 1.6995c-.1085.3496.1518.6992.5204.6992h.7861c.3687 0 .6289-.355.5205-.6992l-.5313-1.6995c-.1138-.37642-.6452-.37642-.7644 0z" fill="#b7877d"/><path d="m15.656 10.3459-.5313 1.6995c-.1085.3496.1518.6992.5204.6992h.7861c.3687 0 .6289-.355.5205-.6992l-.5313-1.6995c-.1138-.37642-.6452-.37642-.7644 0z" fill="url(#am)"/><path d="m15.656 10.3459-.5313 1.6995c-.1085.3496.1518.6992.5204.6992h.7861c.3687 0 .6289-.355.5205-.6992l-.5313-1.6995c-.1138-.37642-.6452-.37642-.7644 0z" fill="url(#an)"/><path d="m15.656 10.3459-.5313 1.6995c-.1085.3496.1518.6992.5204.6992h.7861c.3687 0 .6289-.355.5205-.6992l-.5313-1.6995c-.1138-.37642-.6452-.37642-.7644 0z" fill="url(#ao)"/><path d="m15.656 10.3459-.5313 1.6995c-.1085.3496.1518.6992.5204.6992h.7861c.3687 0 .6289-.355.5205-.6992l-.5313-1.6995c-.1138-.37642-.6452-.37642-.7644 0z" fill="url(#ap)"/></g><path d="m15.656 10.3459-.5313 1.6995c-.1085.3496.1518.6992.5204.6992h.7861c.3687 0 .6289-.355.5205-.6992l-.5313-1.6995c-.1138-.37642-.6452-.37642-.7644 0z" fill="url(#aq)"/><path d="m14.6763 13.3882-.0005-.0002c-.0907-.0462-.1852-.0175-.2415.0418-.0566.0595-.0788.155-.0204.2397.3438.5207.9426.8677 1.6242.8677.6819 0 1.2807-.3471 1.6246-.8681.0575-.0864.0365-.1818-.0209-.2414-.0568-.059-.1513-.0855-.2413-.0397l-.0005.0002c-.3934.2051-.8573.3227-1.3619.3227-.4995 0-.9685-.1176-1.3618-.3227z" fill="#88024e" stroke="url(#ar)" stroke-width=".1"/><g filter="url(#o)"><path d="m19.7574 7.9114-.0012-.00102-.0019-.00153-.0045-.00366-.012-.00953c-.0093-.00731-.0213-.01648-.0359-.02719-.0292-.02139-.069-.04905-.1189-.08031-.0996-.06236-.2409-.14006-.4197-.21074-.359-.14192-.8716-.25625-1.4926-.15819-.2911.04596-.4898.31922-.4439.61034.046.29112.3192.48985.6104.44389.3977-.06281.7162.01053.9337.0965.1094.04325.1926.08955.2455.1227.0263.0165.0448.02947.0547.03677.0042.00304.0068.00507.0079.00593.2264.18454.5597.15286.7471-.07205.1887-.22642.1577-.56323-.0687-.75191z" fill="#4c3230"/><path d="m19.7574 7.9114-.0012-.00102-.0019-.00153-.0045-.00366-.012-.00953c-.0093-.00731-.0213-.01648-.0359-.02719-.0292-.02139-.069-.04905-.1189-.08031-.0996-.06236-.2409-.14006-.4197-.21074-.359-.14192-.8716-.25625-1.4926-.15819-.2911.04596-.4898.31922-.4439.61034.046.29112.3192.48985.6104.44389.3977-.06281.7162.01053.9337.0965.1094.04325.1926.08955.2455.1227.0263.0165.0448.02947.0547.03677.0042.00304.0068.00507.0079.00593.2264.18454.5597.15286.7471-.07205.1887-.22642.1577-.56323-.0687-.75191z" fill="url(#at)"/></g><g filter="url(#p)"><path d="m12.2649 7.91172.0008-.00064.0008-.0007.0019-.00153.0045-.00366.012-.00953c.0093-.00731.0213-.01648.0359-.02719.0292-.02139.069-.04905.1189-.08031.0996-.06236.2409-.14006.4197-.21074.359-.14192.8716-.25625 1.4926-.15819.2911.04596.4898.31922.4438.61034-.0459.29112-.3192.48985-.6103.44389-.3978-.06281-.7163.01053-.9337.0965-.1094.04325-.1926.08955-.2455.1227-.0264.0165-.0448.02947-.0547.03677-.0042.00304-.0068.00507-.008.00593-.2263.18454-.5596.15286-.747-.07205-.1887-.22642-.1581-.56291.0683-.75159z" fill="#4c3230"/><path d="m12.2649 7.91172.0008-.00064.0008-.0007.0019-.00153.0045-.00366.012-.00953c.0093-.00731.0213-.01648.0359-.02719.0292-.02139.069-.04905.1189-.08031.0996-.06236.2409-.14006.4197-.21074.359-.14192.8716-.25625 1.4926-.15819.2911.04596.4898.31922.4438.61034-.0459.29112-.3192.48985-.6103.44389-.3978-.06281-.7163.01053-.9337.0965-.1094.04325-.1926.08955-.2455.1227-.0264.0165-.0448.02947-.0547.03677-.0042.00304-.0068.00507-.008.00593-.2263.18454-.5596.15286-.747-.07205-.1887-.22642-.1581-.56291.0683-.75159z" fill="url(#au)"/></g><path d="m18.4257 9.20068c.6529 0 1.2045.45014 1.3545 1.05842.0446.1744-.0892.3407-.2676.3407h-2.2305c-.1419 0-.2554-.1298-.2271-.2717.1258-.64078.6894-1.12742 1.3707-1.12742z" fill="#fff"/><path d="m18.219 9.47241c.4947 0 .8921.40148.8921.89219 0 .0811-.0121.1622-.0324.2352h-1.7235c-.0203-.0771-.0324-.1541-.0324-.2352 0-.49071.4014-.89219.8962-.89219z" fill="url(#aw)"/><path d="m17.708 10.3645c0-.2839.2271-.51098.511-.51098s.5109.22708.5109.51098c0 .0851-.0202.1663-.0567.2352h-.9044c-.0405-.0689-.0608-.1501-.0608-.2352z" fill="#000"/><g filter="url(#q)"><path d="m18.1534 9.66093c.0635.08501-.0693.18865-.2204.3016-.1511.11297-.2631.19247-.3267.10737-.0636-.08497.0074-.24545.1584-.35839.1511-.11295.3251-.1356.3887-.05058z" fill="#c7a7a3"/><path d="m18.1534 9.66093c.0635.08501-.0693.18865-.2204.3016-.1511.11297-.2631.19247-.3267.10737-.0636-.08497.0074-.24545.1584-.35839.1511-.11295.3251-.1356.3887-.05058z" fill="url(#ay)"/></g><g filter="url(#r)"><path d="m19.0137 10.2471c-.033-.2306-.168-.40447-.2313-.46255l-.2598.28515.1172.2281z" fill="url(#aA)"/></g><path d="m13.6454 9.20056c-.6529 0-1.2045.45016-1.3545 1.05854-.0446.1743.0892.3406.2676.3406h2.2306c.1419 0 .2555-.1298.2271-.2717-.1257-.64078-.6935-1.12744-1.3708-1.12744z" fill="#fff"/><path d="m13.8522 9.47229c-.4948 0-.8922.4015-.8922.89221 0 .0811.0121.1622.0324.2352h1.7236c.0203-.077.0324-.1541.0324-.2352-.004-.49071-.4015-.89221-.8962-.89221z" fill="url(#aB)"/><path d="m14.3633 10.3645c0-.2839-.2271-.51098-.511-.51098s-.511.22708-.511.51098c0 .0852.0203.1663.0568.2352h.9044c.0365-.0689.0608-.15.0608-.2352z" fill="#000"/><g filter="url(#s)"><path d="m14.6673 10.2597c0-.28833-.2344-.48054-.2978-.53863l-.2883.27882.1774.36121z" fill="url(#aC)"/></g><g filter="url(#t)"><ellipse cx="13.583" cy="9.854" fill="#c7a7a3" fill-opacity=".9" rx=".389" ry=".197" transform="matrix(.88365127 -.46814574 .46814574 .88365127 -3.03254 7.505224)"/><ellipse cx="13.583" cy="9.854" fill="url(#aD)" rx=".389" ry=".197" transform="matrix(.88365127 -.46814574 .46814574 .88365127 -3.03254 7.505224)"/></g><g filter="url(#u)"><path d="m17.6987 7.76689c.4301-.07526 1.2687-.05376 1.8493.3978" stroke="url(#aF)" stroke-linecap="round" stroke-width=".25"/></g><g filter="url(#v)"><path d="m12.4796 8.28538c.3272-.28913 1.0415-.59356 1.927-.45241" stroke="url(#aG)" stroke-linecap="round" stroke-width=".25"/></g><g filter="url(#w)"><path d="m11.5057 5.82031v.89747c-.0079.1486-.0704.481-.2581.62178" stroke="url(#aH)" stroke-linecap="round" stroke-width=".25"/></g></svg>