<svg fill="none" height="32" viewBox="0 0 32 32" width="32" xmlns="http://www.w3.org/2000/svg" xmlns:xlink="http://www.w3.org/1999/xlink"><filter id="a" color-interpolation-filters="sRGB" filterUnits="userSpaceOnUse" height="2.215" width="8.369" x="15.115" y="9.718"><feFlood flood-opacity="0" result="BackgroundImageFix"/><feBlend in="SourceGraphic" in2="BackgroundImageFix" mode="normal" result="shape"/><feGaussianBlur result="effect1_foregroundBlur_4002_2959" stdDeviation=".375"/></filter><filter id="b" color-interpolation-filters="sRGB" filterUnits="userSpaceOnUse" height="3.618" width="3.818" x="9.049" y="12.069"><feFlood flood-opacity="0" result="BackgroundImageFix"/><feBlend in="SourceGraphic" in2="BackgroundImageFix" mode="normal" result="shape"/><feColorMatrix in="SourceAlpha" result="hardAlpha" type="matrix" values="0 0 0 0 0 0 0 0 0 0 0 0 0 0 0 0 0 0 127 0"/><feOffset dx=".2"/><feGaussianBlur stdDeviation=".2"/><feComposite in2="hardAlpha" k2="-1" k3="1" operator="arithmetic"/><feColorMatrix type="matrix" values="0 0 0 0 0.866667 0 0 0 0 0.643137 0 0 0 0 0.533333 0 0 0 1 0"/><feBlend in2="shape" mode="normal" result="effect1_innerShadow_4002_2959"/></filter><filter id="c" color-interpolation-filters="sRGB" filterUnits="userSpaceOnUse" height="3.156" width="3.156" x="9.279" y="12.3"><feFlood flood-opacity="0" result="BackgroundImageFix"/><feBlend in="SourceGraphic" in2="BackgroundImageFix" mode="normal" result="shape"/><feGaussianBlur result="effect1_foregroundBlur_4002_2959" stdDeviation=".25"/></filter><filter id="d" color-interpolation-filters="sRGB" filterUnits="userSpaceOnUse" height="3.868" width="3.868" x="19.356" y="11.819"><feFlood flood-opacity="0" result="BackgroundImageFix"/><feBlend in="SourceGraphic" in2="BackgroundImageFix" mode="normal" result="shape"/><feColorMatrix in="SourceAlpha" result="hardAlpha" type="matrix" values="0 0 0 0 0 0 0 0 0 0 0 0 0 0 0 0 0 0 127 0"/><feOffset dx=".25" dy="-.25"/><feGaussianBlur stdDeviation=".25"/><feComposite in2="hardAlpha" k2="-1" k3="1" operator="arithmetic"/><feColorMatrix type="matrix" values="0 0 0 0 0.768627 0 0 0 0 0.529412 0 0 0 0 0.505882 0 0 0 1 0"/><feBlend in2="shape" mode="normal" result="effect1_innerShadow_4002_2959"/></filter><filter id="e" color-interpolation-filters="sRGB" filterUnits="userSpaceOnUse" height="3.156" width="3.156" x="19.587" y="12.3"><feFlood flood-opacity="0" result="BackgroundImageFix"/><feBlend in="SourceGraphic" in2="BackgroundImageFix" mode="normal" result="shape"/><feGaussianBlur result="effect1_foregroundBlur_4002_2959" stdDeviation=".25"/></filter><filter id="f" color-interpolation-filters="sRGB" filterUnits="userSpaceOnUse" height="4.405" width="3.407" x="14.039" y="12.69"><feFlood flood-opacity="0" result="BackgroundImageFix"/><feBlend in="SourceGraphic" in2="BackgroundImageFix" mode="normal" result="shape"/><feGaussianBlur result="effect1_foregroundBlur_4002_2959" stdDeviation=".375"/></filter><filter id="g" color-interpolation-filters="sRGB" filterUnits="userSpaceOnUse" height="3.405" width="2.534" x="14.735" y="13.013"><feFlood flood-opacity="0" result="BackgroundImageFix"/><feBlend in="SourceGraphic" in2="BackgroundImageFix" mode="normal" result="shape"/><feGaussianBlur result="effect1_foregroundBlur_4002_2959" stdDeviation=".125"/></filter><filter id="h" color-interpolation-filters="sRGB" filterUnits="userSpaceOnUse" height="3.405" width="2.534" x="14.735" y="12.836"><feFlood flood-opacity="0" result="BackgroundImageFix"/><feBlend in="SourceGraphic" in2="BackgroundImageFix" mode="normal" result="shape"/><feGaussianBlur result="effect1_foregroundBlur_4002_2959" stdDeviation=".125"/></filter><filter id="i" color-interpolation-filters="sRGB" filterUnits="userSpaceOnUse" height="1.562" width="3.886" x="14.058" y="16.694"><feFlood flood-opacity="0" result="BackgroundImageFix"/><feBlend in="SourceGraphic" in2="BackgroundImageFix" mode="normal" result="shape"/><feGaussianBlur result="effect1_foregroundBlur_4002_2959" stdDeviation=".05"/></filter><filter id="j" color-interpolation-filters="sRGB" filterUnits="userSpaceOnUse" height=".738" width=".836" x="17.575" y="12.671"><feFlood flood-opacity="0" result="BackgroundImageFix"/><feBlend in="SourceGraphic" in2="BackgroundImageFix" mode="normal" result="shape"/><feGaussianBlur result="effect1_foregroundBlur_4002_2959" stdDeviation=".05"/></filter><filter id="k" color-interpolation-filters="sRGB" filterUnits="userSpaceOnUse" height=".956" width=".932" x="18.494" y="12.76"><feFlood flood-opacity="0" result="BackgroundImageFix"/><feBlend in="SourceGraphic" in2="BackgroundImageFix" mode="normal" result="shape"/><feGaussianBlur result="effect1_foregroundBlur_4002_2959" stdDeviation=".1"/></filter><filter id="l" color-interpolation-filters="sRGB" filterUnits="userSpaceOnUse" height="1.093" width="1.035" x="13.681" y="12.692"><feFlood flood-opacity="0" result="BackgroundImageFix"/><feBlend in="SourceGraphic" in2="BackgroundImageFix" mode="normal" result="shape"/><feGaussianBlur result="effect1_foregroundBlur_4002_2959" stdDeviation=".1"/></filter><filter id="m" color-interpolation-filters="sRGB" filterUnits="userSpaceOnUse" height=".747" width=".972" x="12.855" y="12.662"><feFlood flood-opacity="0" result="BackgroundImageFix"/><feBlend in="SourceGraphic" in2="BackgroundImageFix" mode="normal" result="shape"/><feGaussianBlur result="effect1_foregroundBlur_4002_2959" stdDeviation=".05"/></filter><filter id="n" color-interpolation-filters="sRGB" filterUnits="userSpaceOnUse" height="8.428" width="5.791" x="13.126" y="2.101"><feFlood flood-opacity="0" result="BackgroundImageFix"/><feBlend in="SourceGraphic" in2="BackgroundImageFix" mode="normal" result="shape"/><feColorMatrix in="SourceAlpha" result="hardAlpha" type="matrix" values="0 0 0 0 0 0 0 0 0 0 0 0 0 0 0 0 0 0 127 0"/><feOffset dx=".2"/><feGaussianBlur stdDeviation=".3"/><feComposite in2="hardAlpha" k2="-1" k3="1" operator="arithmetic"/><feColorMatrix type="matrix" values="0 0 0 0 0.768627 0 0 0 0 0.658824 0 0 0 0 0.321569 0 0 0 1 0"/><feBlend in2="shape" mode="normal" result="effect1_innerShadow_4002_2959"/><feColorMatrix in="SourceAlpha" result="hardAlpha" type="matrix" values="0 0 0 0 0 0 0 0 0 0 0 0 0 0 0 0 0 0 127 0"/><feOffset dx="-.2"/><feGaussianBlur stdDeviation=".3"/><feComposite in2="hardAlpha" k2="-1" k3="1" operator="arithmetic"/><feColorMatrix type="matrix" values="0 0 0 0 1 0 0 0 0 0.92549 0 0 0 0 0.372549 0 0 0 1 0"/><feBlend in2="effect1_innerShadow_4002_2959" mode="normal" result="effect2_innerShadow_4002_2959"/></filter><filter id="o" color-interpolation-filters="sRGB" filterUnits="userSpaceOnUse" height="2.528" width="7.654" x="15.713" y="9.622"><feFlood flood-opacity="0" result="BackgroundImageFix"/><feBlend in="SourceGraphic" in2="BackgroundImageFix" mode="normal" result="shape"/><feGaussianBlur result="effect1_foregroundBlur_4002_2959" stdDeviation=".5"/></filter><radialGradient id="p" cx="0" cy="0" gradientTransform="matrix(0 10.25 -8.82215 0 16.011 16.6106)" gradientUnits="userSpaceOnUse" r="1"><stop offset="0" stop-color="#3086e2"/><stop offset="1" stop-color="#41baff"/></radialGradient><radialGradient id="q" cx="0" cy="0" gradientTransform="matrix(-.904907 0 0 -8.83091 18.6773 26.1419)" gradientUnits="userSpaceOnUse" r="1"><stop offset="0" stop-color="#3fb7ff"/><stop offset="1" stop-color="#3fb7ff" stop-opacity="0"/></radialGradient><radialGradient id="r" cx="0" cy="0" gradientTransform="matrix(0 5.91396 -1.61702 0 13.721 24.5334)" gradientUnits="userSpaceOnUse" r="1"><stop offset="0" stop-color="#ff7446"/><stop offset="1" stop-color="#ff6f4e"/></radialGradient><radialGradient id="s" cx="0" cy="0" gradientTransform="matrix(0 4.55816 -.70149 0 13.721 26.2008)" gradientUnits="userSpaceOnUse" r="1"><stop offset=".35" stop-color="#ff7e58"/><stop offset="1" stop-color="#ff7e58" stop-opacity="0"/></radialGradient><radialGradient id="t" cx="0" cy="0" gradientTransform="matrix(-1.51940128 3.01928636 -4.9324908 -2.48218683 14.2082 20.0064)" gradientUnits="userSpaceOnUse" r="1"><stop offset=".343" stop-color="#da4708"/><stop offset="1" stop-color="#dc5314" stop-opacity="0"/></radialGradient><radialGradient id="u" cx="0" cy="0" gradientTransform="matrix(0 9.4375 -2.83386 0 20.0424 20.2354)" gradientUnits="userSpaceOnUse" r="1"><stop offset="0" stop-color="#ff7523"/><stop offset="1" stop-color="#fb684a"/></radialGradient><radialGradient id="v" cx="0" cy="0" gradientTransform="matrix(.881714 0 0 11.0473 18.279 27.3537)" gradientUnits="userSpaceOnUse" r="1"><stop offset=".214" stop-color="#f25937"/><stop offset="1" stop-color="#f25937" stop-opacity="0"/></radialGradient><linearGradient id="w" gradientUnits="userSpaceOnUse" x1="9.158" x2="9.158" y1="21.169" y2="29.899"><stop offset="0" stop-color="#e6743e"/><stop offset="1" stop-color="#f46d40"/></linearGradient><radialGradient id="x" cx="0" cy="0" gradientTransform="matrix(-3.52725561 -8.45621026 9.64626165 -4.02365001 12.4159 28.8545)" gradientUnits="userSpaceOnUse" r="1"><stop offset=".684" stop-color="#e07241" stop-opacity="0"/><stop offset=".951" stop-color="#cc6e42"/></radialGradient><radialGradient id="y" cx="0" cy="0" gradientTransform="matrix(.13057 0 0 9.00654 8.341 29.8995)" gradientUnits="userSpaceOnUse" r="1"><stop offset=".245" stop-color="#de521d"/><stop offset="1" stop-color="#de521d" stop-opacity="0"/></radialGradient><radialGradient id="z" cx="0" cy="0" gradientTransform="matrix(0 8.78322 -2.01004 0 23.659 22.5134)" gradientUnits="userSpaceOnUse" r="1"><stop offset=".309" stop-color="#ff905a"/><stop offset="1" stop-color="#ff7955"/></radialGradient><radialGradient id="A" cx="0" cy="0" gradientTransform="matrix(0 4.375 -.278564 0 23.659 27.9075)" gradientUnits="userSpaceOnUse" r="1"><stop offset=".325" stop-color="#fe713a"/><stop offset="1" stop-color="#fe713a" stop-opacity="0"/></radialGradient><radialGradient id="B" cx="0" cy="0" gradientTransform="matrix(-3.62217463 -11.08795491 17.74570881 -5.79710658 14.5884 30.793)" gradientUnits="userSpaceOnUse" r="1"><stop offset=".566" stop-color="#fdbf28" stop-opacity="0"/><stop offset=".971" stop-color="#cd963a"/></radialGradient><linearGradient id="C" gradientUnits="userSpaceOnUse" x1="21.034" x2="21.034" y1="19.705" y2="29.899"><stop offset="0" stop-color="#ffda42"/><stop offset="1" stop-color="#ffcf4c"/></linearGradient><radialGradient id="D" cx="0" cy="0" gradientTransform="matrix(1.79394549 -5.21875283 8.0603426 2.77074154 19.2398 25.3291)" gradientUnits="userSpaceOnUse" r="1"><stop offset=".834" stop-color="#ffce64" stop-opacity="0"/><stop offset=".998" stop-color="#ffce64"/></radialGradient><radialGradient id="E" cx="0" cy="0" gradientTransform="matrix(1.86999683 -7.3125029 2.94555184 .75325407 6.47101 28.8602)" gradientUnits="userSpaceOnUse" r="1"><stop offset="0" stop-color="#3baeff"/><stop offset="1" stop-color="#469bc8"/></radialGradient><radialGradient id="F" cx="0" cy="0" gradientTransform="matrix(-2.28125 0 0 -15.3733 9.0224 29.6727)" gradientUnits="userSpaceOnUse" r="1"><stop offset=".385" stop-color="#4188d0"/><stop offset="1" stop-color="#4188d0" stop-opacity="0"/></radialGradient><radialGradient id="G" cx="0" cy="0" gradientTransform="matrix(-1.4062481 -8.13267592 2.48003771 -.42883159 25.6773 29.8991)" gradientUnits="userSpaceOnUse" r="1"><stop offset="0" stop-color="#58d2ff"/><stop offset="1" stop-color="#54b9f0"/></radialGradient><radialGradient id="H" cx="0" cy="0" gradientTransform="matrix(0 -8.32422 .625138 0 23.659 29.8991)" gradientUnits="userSpaceOnUse" r="1"><stop offset=".154" stop-color="#199dea"/><stop offset="1" stop-color="#199dea" stop-opacity="0"/></radialGradient><radialGradient id="I" cx="0" cy="0" gradientTransform="matrix(0 2 -3.968 0 16.0211 20.6572)" gradientUnits="userSpaceOnUse" r="1"><stop offset=".133" stop-color="#bb7783"/><stop offset=".88" stop-color="#c6878a"/></radialGradient><radialGradient id="J" cx="0" cy="0" gradientTransform="matrix(-1.74999551 2.45313151 -1.21685372 -.86806946 18.3961 20.8447)" gradientUnits="userSpaceOnUse" r="1"><stop offset=".239" stop-color="#c5827b"/><stop offset="1" stop-color="#c5827b" stop-opacity="0"/></radialGradient><radialGradient id="K" cx="0" cy="0" gradientTransform="matrix(0 3.66902 -2.3468 0 16.0211 19.4278)" gradientUnits="userSpaceOnUse" r="1"><stop offset=".816" stop-color="#a86161" stop-opacity="0"/><stop offset="1" stop-color="#a86161"/></radialGradient><radialGradient id="L" cx="0" cy="0" gradientTransform="matrix(1.90134 0 0 3.32736 9.04852 13.8777)" gradientUnits="userSpaceOnUse" r="1"><stop offset=".351" stop-color="#c28775"/><stop offset="1" stop-color="#ba7867"/></radialGradient><linearGradient id="M" gradientUnits="userSpaceOnUse" x1="10.857" x2="10.163" y1="14.18" y2="14.18"><stop offset="0" stop-color="#af6f5d"/><stop offset="1" stop-color="#b87862"/></linearGradient><linearGradient id="N" gradientUnits="userSpaceOnUse" x1="22.342" x2="21.455" y1="12.695" y2="15.443"><stop offset="0" stop-color="#f5c8a5"/><stop offset="1" stop-color="#dca189"/></linearGradient><radialGradient id="O" cx="0" cy="0" gradientTransform="matrix(.89571186 -.65221654 .74441487 1.02233107 21.5679 13.5907)" gradientUnits="userSpaceOnUse" r="1"><stop offset=".543" stop-color="#e3ab88"/><stop offset="1" stop-color="#e3ab88" stop-opacity="0"/></radialGradient><radialGradient id="P" cx="0" cy="0" gradientTransform="matrix(.88981322 -1.63661757 .95791419 .52080873 21.1198 14.7677)" gradientUnits="userSpaceOnUse" r="1"><stop offset=".69" stop-color="#d79a76" stop-opacity="0"/><stop offset="1" stop-color="#d79a76"/></radialGradient><radialGradient id="Q" cx="0" cy="0" gradientTransform="matrix(.280931 .27807913 -.35848314 .3621596 21.1646 13.8778)" gradientUnits="userSpaceOnUse" r="1"><stop offset="0" stop-color="#cb8e6d"/><stop offset="1" stop-color="#cb8e6d" stop-opacity="0"/></radialGradient><radialGradient id="R" cx="0" cy="0" gradientTransform="matrix(.16293831 1.43904489 -.60098189 .0680472 10.379 12.1407)" gradientUnits="userSpaceOnUse" r="1"><stop offset=".515" stop-color="#dda681"/><stop offset="1" stop-color="#e7b592"/></radialGradient><radialGradient id="S" cx="0" cy="0" gradientTransform="matrix(.68393935 .16057773 -.54393556 2.31675294 21.4799 12.5753)" gradientUnits="userSpaceOnUse" r="1"><stop offset="0" stop-color="#d9ad82"/><stop offset=".933" stop-color="#e9c298"/></radialGradient><radialGradient id="T" cx="0" cy="0" gradientTransform="matrix(-5.15624898 .53120937 -.8124812 -7.88644857 19.4521 15.0721)" gradientUnits="userSpaceOnUse" r="1"><stop offset=".318" stop-color="#f9be9d"/><stop offset=".849" stop-color="#d29883"/></radialGradient><radialGradient id="U" cx="0" cy="0" gradientTransform="matrix(0 11.0028 -18.3069 0 16.5118 10.2568)" gradientUnits="userSpaceOnUse" r="1"><stop offset=".739" stop-color="#d99d93" stop-opacity="0"/><stop offset=".986" stop-color="#ac6980"/></radialGradient><radialGradient id="V" cx="0" cy="0" gradientTransform="matrix(0 -1.41618 1.74299 0 18.5435 12.5)" gradientUnits="userSpaceOnUse" r="1"><stop offset="0" stop-color="#e2a18c"/><stop offset="1" stop-color="#e2a18c" stop-opacity="0"/></radialGradient><radialGradient id="W" cx="0" cy="0" gradientTransform="matrix(0 -1.50696 1.87404 0 13.605 12.4637)" gradientUnits="userSpaceOnUse" r="1"><stop offset="0" stop-color="#c2837a"/><stop offset="1" stop-color="#c2837a" stop-opacity="0"/></radialGradient><radialGradient id="X" cx="0" cy="0" gradientTransform="matrix(0 2.46875 -6.1432 0 16.0328 12.0721)" gradientUnits="userSpaceOnUse" r="1"><stop offset=".102" stop-color="#c47c70"/><stop offset="1" stop-color="#c47c70" stop-opacity="0"/></radialGradient><linearGradient id="Y" gradientUnits="userSpaceOnUse" x1="10.764" x2="12.661" y1="16.936" y2="16.894"><stop offset="0" stop-color="#d89c80"/><stop offset=".736" stop-color="#d99e84" stop-opacity="0"/></linearGradient><linearGradient id="Z" gradientUnits="userSpaceOnUse" x1="15.065" x2="16.082" y1="15.014" y2="15.014"><stop offset="0" stop-color="#cb9173"/><stop offset="1" stop-color="#cb9173" stop-opacity="0"/></linearGradient><linearGradient id="aa" gradientUnits="userSpaceOnUse" x1="17.421" x2="16.002" y1="15.229" y2="15.322"><stop offset=".016" stop-color="#fec8a4"/><stop offset="1" stop-color="#fec8a4" stop-opacity="0"/></linearGradient><linearGradient id="ab" gradientUnits="userSpaceOnUse" x1="16.212" x2="16.212" y1="16.168" y2="15.547"><stop offset="0" stop-color="#c98583"/><stop offset="1" stop-color="#c98583" stop-opacity="0"/></linearGradient><linearGradient id="ac" gradientUnits="userSpaceOnUse" x1="16.002" x2="16.257" y1="13.086" y2="14.638"><stop offset="0" stop-color="#ce8b7b"/><stop offset="1" stop-color="#ce8b7b" stop-opacity="0"/></linearGradient><linearGradient id="ad" gradientUnits="userSpaceOnUse" x1="14.878" x2="15.349" y1="17.918" y2="17.173"><stop offset="0" stop-color="#d29b8a"/><stop offset=".663" stop-color="#d29b8a" stop-opacity="0"/></linearGradient><linearGradient id="ae"><stop offset=".802" stop-color="#7d574a"/><stop offset="1" stop-color="#694b43"/><stop offset="1" stop-color="#804d49"/><stop offset="1" stop-color="#664944"/></linearGradient><radialGradient id="af" cx="0" cy="0" gradientTransform="matrix(0 .878836 -1.39789 0 18.3622 13.1388)" gradientUnits="userSpaceOnUse" r="1" xlink:href="#ae"/><linearGradient id="ag"><stop offset=".766" stop-color="#ffe6e2" stop-opacity="0"/><stop offset=".966" stop-color="#ffe6e2"/></linearGradient><radialGradient id="ah" cx="0" cy="0" gradientTransform="matrix(-.2512175 -.32372763 .4456951 -.34586609 18.1151 13.2301)" gradientUnits="userSpaceOnUse" r="1" xlink:href="#ag"/><linearGradient id="ai"><stop offset="0" stop-color="#b4948d"/><stop offset="1" stop-color="#b4948d" stop-opacity="0"/></linearGradient><linearGradient id="aj" gradientUnits="userSpaceOnUse" x1="19.205" x2="18.865" xlink:href="#ai" y1="13.197" y2="13.407"/><radialGradient id="ak" cx="0" cy="0" gradientTransform="matrix(0 .878881 -1.39796 0 13.6349 13.1388)" gradientUnits="userSpaceOnUse" r="1" xlink:href="#ae"/><linearGradient id="al" gradientUnits="userSpaceOnUse" x1="14.441" x2="14.101" xlink:href="#ai" y1="13.197" y2="13.407"/><radialGradient id="am" cx="0" cy="0" gradientTransform="matrix(-.00837957 -.53520041 .64333315 -.01007259 13.3247 13.3762)" gradientUnits="userSpaceOnUse" r="1" xlink:href="#ag"/><radialGradient id="an" cx="0" cy="0" gradientTransform="matrix(0 4.5625 -2.88065 0 19.7945 6.82715)" gradientUnits="userSpaceOnUse" r="1"><stop offset="0" stop-color="#ffee61"/><stop offset="1" stop-color="#fd4"/></radialGradient><radialGradient id="ao" cx="0" cy="0" gradientTransform="matrix(0 -16 5.79775 0 12.0445 9.88965)" gradientUnits="userSpaceOnUse" r="1"><stop offset=".301" stop-color="#e9b840"/><stop offset="1" stop-color="#e9b840" stop-opacity="0"/></radialGradient><radialGradient id="ap" cx="0" cy="0" gradientTransform="matrix(1.28124913 -7.99999965 15.26891608 2.44541078 17.4507 10.3271)" gradientUnits="userSpaceOnUse" r="1"><stop offset=".814" stop-color="#eecd67" stop-opacity="0"/><stop offset=".946" stop-color="#eecd67"/></radialGradient><radialGradient id="aq" cx="0" cy="0" gradientTransform="matrix(0 6.875 -.590373 0 13.3882 6.49902)" gradientUnits="userSpaceOnUse" r="1"><stop offset=".305" stop-color="#d7a439"/><stop offset="1" stop-color="#e1b037" stop-opacity="0"/></radialGradient><radialGradient id="ar" cx="0" cy="0" gradientTransform="matrix(.37499908 4.21874619 -1.68529516 .14980378 13.5132 2.7334)" gradientUnits="userSpaceOnUse" r="1"><stop offset=".103" stop-color="#b59741"/><stop offset="1" stop-color="#cba731" stop-opacity="0"/></radialGradient><radialGradient id="as" cx="0" cy="0" gradientTransform="matrix(-5.2499499 -6.37504343 7.83630158 -6.45331928 16.9507 9.7334)" gradientUnits="userSpaceOnUse" r="1"><stop offset=".781" stop-color="#c3a852" stop-opacity="0"/><stop offset="1" stop-color="#c3a852"/></radialGradient><linearGradient id="at" gradientUnits="userSpaceOnUse" x1="9.982" x2="10.794" y1="9.265" y2="9.265"><stop offset="0" stop-color="#cdac54"/><stop offset="1" stop-color="#cdac54" stop-opacity="0"/></linearGradient><radialGradient id="au" cx="0" cy="0" gradientTransform="matrix(0 -.59375 5.79687 0 11.1695 10.124)" gradientUnits="userSpaceOnUse" r="1"><stop offset=".263" stop-color="#c8a03f"/><stop offset="1" stop-color="#c8a03f" stop-opacity="0"/></radialGradient><linearGradient id="av" gradientUnits="userSpaceOnUse" x1="16.021" x2="16.021" y1="2.101" y2="10.528"><stop offset="0" stop-color="#f9cd2e"/><stop offset="1" stop-color="#ffca3d"/></linearGradient><linearGradient id="aw" gradientUnits="userSpaceOnUse" x1="16.021" x2="16.021" y1="2.101" y2="4.702"><stop offset="0" stop-color="#e7c44c"/><stop offset="1" stop-color="#e7c44c" stop-opacity="0"/></linearGradient><radialGradient id="ax" cx="0" cy="0" gradientTransform="matrix(0 -9.0625 1 0 13.6695 9.88965)" gradientUnits="userSpaceOnUse" r="1"><stop offset="0" stop-color="#e3b438"/><stop offset="1" stop-color="#e3b438" stop-opacity="0"/></radialGradient><radialGradient id="ay" cx="0" cy="0" gradientTransform="matrix(0 -8.78125 1.6875 0 18.5445 9.95215)" gradientUnits="userSpaceOnUse" r="1"><stop offset="0" stop-color="#ffe550"/><stop offset="1" stop-color="#ffe550" stop-opacity="0"/></radialGradient><linearGradient id="az" gradientUnits="userSpaceOnUse" x1="21.997" x2="5.369" y1="11.273" y2="11.273"><stop offset="0" stop-color="#ffe24a"/><stop offset="1" stop-color="#f0bc33"/></linearGradient><linearGradient id="aA" gradientUnits="userSpaceOnUse" x1="15.798" x2="15.798" y1="9.872" y2="10.186"><stop offset=".027" stop-color="#ffd131"/><stop offset="1" stop-color="#ffd131" stop-opacity="0"/></linearGradient><linearGradient id="aB" gradientUnits="userSpaceOnUse" x1="16.716" x2="16.716" y1="12.178" y2="10.926"><stop offset="0" stop-color="#e1926f"/><stop offset="1" stop-color="#f9b14d" stop-opacity="0"/></linearGradient><radialGradient id="aC" cx="0" cy="0" gradientTransform="matrix(.5231362 2.06026065 -12.32013845 3.12829855 11.9084 8.96504)" gradientUnits="userSpaceOnUse" r="1"><stop offset=".173" stop-color="#c4a966"/><stop offset="1" stop-color="#dfb83e" stop-opacity="0"/></radialGradient><path d="m16.021 19.2896c-.78 0-1.55.08-2.3.23v10.38h4.58v-10.38c-.74-.15-1.5-.23-2.28-.23z" fill="url(#p)"/><path d="m16.021 19.2896c-.78 0-1.55.08-2.3.23v10.38h4.58v-10.38c-.74-.15-1.5-.23-2.28-.23z" fill="url(#q)"/><path d="m13.721 19.1675c-.6077.1344-1.1955.3101-1.7634.5376v10.1942h1.7634z" fill="url(#r)"/><path d="m13.721 19.1675c-.6077.1344-1.1955.3101-1.7634.5376v10.1942h1.7634z" fill="url(#s)"/><path d="m13.721 19.1675c-.6077.1344-1.1955.3101-1.7634.5376v10.1942h1.7634z" fill="url(#t)"/><path d="m18.279 19.1675c.6077.1344 1.1955.3101 1.7634.5376v10.1942h-1.7634z" fill="url(#u)"/><path d="m18.279 19.1675c.6077.1344 1.1955.3101 1.7634.5376v10.1942h-1.7634z" fill="url(#v)"/><path d="m8.38861 21.9873c-.03045.0282-.04761.0679-.04761.1094v7.8028h1.63391v-9.1602c-.55984.3706-1.09163.7897-1.5863 1.248z" fill="url(#w)"/><path d="m8.38861 21.9873c-.03045.0282-.04761.0679-.04761.1094v7.8028h1.63391v-9.1602c-.55984.3706-1.09163.7897-1.5863 1.248z" fill="url(#x)"/><path d="m8.38861 21.9873c-.03045.0282-.04761.0679-.04761.1094v7.8028h1.63391v-9.1602c-.55984.3706-1.09163.7897-1.5863 1.248z" fill="url(#y)"/><path d="m23.659 22.0316v7.8679h-1.6339v-9.1602c.5778.3825 1.1258.8167 1.6339 1.2923z" fill="url(#z)"/><path d="m23.659 22.0316v7.8679h-1.6339v-9.1602c.5778.3825 1.1258.8167 1.6339 1.2923z" fill="url(#A)"/><path d="m9.97496 20.739v9.1603h1.98264v-10.1942c-.6974.2791-1.355.6203-1.98264 1.0339z" fill="#ffca44"/><path d="m9.97496 20.739v9.1603h1.98264v-10.1942c-.6974.2791-1.355.6203-1.98264 1.0339z" fill="url(#B)"/><path d="m22.025 20.739v9.1603h-1.9826v-10.1942c.6974.2791 1.355.6203 1.9826 1.0339z" fill="url(#C)"/><path d="m22.025 20.739v9.1603h-1.9826v-10.1942c.6974.2791 1.355.6203 1.9826 1.0339z" fill="url(#D)"/><path d="m4.60098 29.8991c.13988-.9459.33971-1.8815.61946-2.7863.59947-1.9741 1.7118-3.6819 3.12056-5.0186v7.8049z" fill="url(#E)"/><path d="m4.60098 29.8991c.13988-.9459.33971-1.8815.61946-2.7863.59947-1.9741 1.7118-3.6819 3.12056-5.0186v7.8049z" fill="url(#F)"/><path d="m27.399 29.8991c-.1399-.9459-.3397-1.8815-.6194-2.7863-.5995-1.9741-1.7118-3.6819-3.1206-5.0186v7.8049z" fill="url(#G)"/><path d="m27.399 29.8991c-.1399-.9459-.3397-1.8815-.6194-2.7863-.5995-1.9741-1.7118-3.6819-3.1206-5.0186v7.8049z" fill="url(#H)"/><path d="m13.8101 20.376c.0596.7604.5853 2.2812 2.211 2.2812 1.6256 0 2.1513-1.5208 2.2109-2.2812z" fill="url(#I)"/><path d="m13.8101 20.376c.0596.7604.5853 2.2812 2.211 2.2812 1.6256 0 2.1513-1.5208 2.2109-2.2812z" fill="url(#J)"/><path d="m13.8101 20.376c.0596.7604.5853 2.2812 2.211 2.2812 1.6256 0 2.1513-1.5208 2.2109-2.2812z" fill="url(#K)"/><g filter="url(#a)"><ellipse cx="19.299" cy="10.826" fill="#fff060" rx="3.435" ry=".358"/></g><g filter="url(#b)"><circle cx="10.857" cy="13.878" fill="url(#L)" r="1.809"/></g><g filter="url(#c)"><circle cx="10.857" cy="13.878" fill="url(#M)" r="1.078"/></g><g filter="url(#d)"><circle cx="21.165" cy="13.878" fill="url(#N)" r="1.809"/><circle cx="21.165" cy="13.878" fill="url(#O)" r="1.809"/></g><g filter="url(#e)"><circle cx="21.165" cy="13.878" fill="#d79e81" r="1.078"/><circle cx="21.165" cy="13.878" fill="url(#P)" r="1.078"/><circle cx="21.165" cy="13.878" fill="url(#Q)" r="1.078"/></g><path d="m10.5576 13.3805-.0777-1.3326-.84373-.1172c.02604.0846.11641.3679.26953.8242.1531.4562.5099.6152.6519.6256z" fill="url(#R)"/><path d="m21.4799 13.3564.043-1.3085.8437-.1172c-.026.0846-.1164.3679-.2695.8242-.1531.4562-.4753.5911-.6172.6015z" fill="url(#S)"/><path d="m10.413 11.6553c0-.2889.1163-.6356.3487-.809l.1744-.1733c.2906-.2312.4068-.5779.4068-.92459v-.92457c0-.28893.1743-.52008.4649-.57786.6974-.17336 2.1503-.46229 4.2426-.46229 2.0922 0 3.5451.28893 4.2425.46229.2324.05778.4649.28893.4649.57786v.92457c0 .34669.1744.69339.4068.92459.544.3812.5101.5908.465 1.0401-.1952 1.9409-.254 3.902-.3847 5.8489-.1739 1.9173-1.6812 3.2536-3.4784 3.2536h-3.4783c-1.8551 0-3.3044-1.3363-3.4783-3.2536-.1518-1.9768-.2175-3.9443-.3969-5.9067z" fill="url(#T)"/><path d="m10.413 11.6553c0-.2889.1163-.6356.3487-.809l.1744-.1733c.2906-.2312.4068-.5779.4068-.92459v-.92457c0-.28893.1743-.52008.4649-.57786.6974-.17336 2.1503-.46229 4.2426-.46229 2.0922 0 3.5451.28893 4.2425.46229.2324.05778.4649.28893.4649.57786v.92457c0 .34669.1744.69339.4068.92459.544.3812.5101.5908.465 1.0401-.1952 1.9409-.254 3.902-.3847 5.8489-.1739 1.9173-1.6812 3.2536-3.4784 3.2536h-3.4783c-1.8551 0-3.3044-1.3363-3.4783-3.2536-.1518-1.9768-.2175-3.9443-.3969-5.9067z" fill="url(#U)"/><path d="m10.413 11.6553c0-.2889.1163-.6356.3487-.809l.1744-.1733c.2906-.2312.4068-.5779.4068-.92459v-.92457c0-.28893.1743-.52008.4649-.57786.6974-.17336 2.1503-.46229 4.2426-.46229 2.0922 0 3.5451.28893 4.2425.46229.2324.05778.4649.28893.4649.57786v.92457c0 .34669.1744.69339.4068.92459.544.3812.5101.5908.465 1.0401-.1952 1.9409-.254 3.902-.3847 5.8489-.1739 1.9173-1.6812 3.2536-3.4784 3.2536h-3.4783c-1.8551 0-3.3044-1.3363-3.4783-3.2536-.1518-1.9768-.2175-3.9443-.3969-5.9067z" fill="url(#V)"/><path d="m10.413 11.6553c0-.2889.1163-.6356.3487-.809l.1744-.1733c.2906-.2312.4068-.5779.4068-.92459v-.92457c0-.28893.1743-.52008.4649-.57786.6974-.17336 2.1503-.46229 4.2426-.46229 2.0922 0 3.5451.28893 4.2425.46229.2324.05778.4649.28893.4649.57786v.92457c0 .34669.1744.69339.4068.92459.544.3812.5101.5908.465 1.0401-.1952 1.9409-.254 3.902-.3847 5.8489-.1739 1.9173-1.6812 3.2536-3.4784 3.2536h-3.4783c-1.8551 0-3.3044-1.3363-3.4783-3.2536-.1518-1.9768-.2175-3.9443-.3969-5.9067z" fill="url(#W)"/><path d="m10.413 11.6553c0-.2889.1163-.6356.3487-.809l.1744-.1733c.2906-.2312.4068-.5779.4068-.92459v-.92457c0-.28893.1743-.52008.4649-.57786.6974-.17336 2.1503-.46229 4.2426-.46229 2.0922 0 3.5451.28893 4.2425.46229.2324.05778.4649.28893.4649.57786v.92457c0 .34669.1744.69339.4068.92459.544.3812.5101.5908.465 1.0401-.1952 1.9409-.254 3.902-.3847 5.8489-.1739 1.9173-1.6812 3.2536-3.4784 3.2536h-3.4783c-1.8551 0-3.3044-1.3363-3.4783-3.2536-.1518-1.9768-.2175-3.9443-.3969-5.9067z" fill="url(#X)"/><path d="m10.413 11.6553c0-.2889.1163-.6356.3487-.809l.1744-.1733c.2906-.2312.4068-.5779.4068-.92459v-.92457c0-.28893.1743-.52008.4649-.57786.6974-.17336 2.1503-.46229 4.2426-.46229 2.0922 0 3.5451.28893 4.2425.46229.2324.05778.4649.28893.4649.57786v.92457c0 .34669.1744.69339.4068.92459.544.3812.5101.5908.465 1.0401-.1952 1.9409-.254 3.902-.3847 5.8489-.1739 1.9173-1.6812 3.2536-3.4784 3.2536h-3.4783c-1.8551 0-3.3044-1.3363-3.4783-3.2536-.1518-1.9768-.2175-3.9443-.3969-5.9067z" fill="url(#Y)"/><g filter="url(#f)"><path d="m15.7033 13.7454-.8888 1.8415c-.1102.3788.1542.7575.5288.7575h.7988c.3745 0 .639-.3846.5288-.7575l-.5399-1.8415c-.1156-.4079-.3065-.4079-.4277 0z" fill="#c68378"/></g><g filter="url(#g)"><path d="m15.5874 13.5686-.5757 1.8415c-.1175.3788.1645.7576.5639.7576h.8518c.3995 0 .6815-.3846.564-.7576l-.5757-1.8415c-.1234-.4079-.6991-.4079-.8283 0z" fill="#e4ac8f"/><path d="m15.5874 13.5686-.5757 1.8415c-.1175.3788.1645.7576.5639.7576h.8518c.3995 0 .6815-.3846.564-.7576l-.5757-1.8415c-.1234-.4079-.6991-.4079-.8283 0z" fill="url(#Z)"/><path d="m15.5874 13.5686-.5757 1.8415c-.1175.3788.1645.7576.5639.7576h.8518c.3995 0 .6815-.3846.564-.7576l-.5757-1.8415c-.1234-.4079-.6991-.4079-.8283 0z" fill="url(#aa)"/><path d="m15.5874 13.5686-.5757 1.8415c-.1175.3788.1645.7576.5639.7576h.8518c.3995 0 .6815-.3846.564-.7576l-.5757-1.8415c-.1234-.4079-.6991-.4079-.8283 0z" fill="url(#ab)"/></g><g filter="url(#h)"><path d="m15.5874 13.3919-.5757 1.8415c-.1175.3787.1645.7575.5639.7575h.8518c.3995 0 .6815-.3846.564-.7575l-.5757-1.8415c-.1234-.4079-.6991-.4079-.8283 0z" fill="url(#ac)"/></g><g filter="url(#i)"><path d="m16.0015 17.269c-.5497 0-1.0665-.1293-1.5008-.3557-.1484-.0755-.3078.0916-.2143.2264.3628.5498.9949.9163 1.7151.9163.7201 0 1.3523-.3665 1.7151-.9163.0935-.1402-.066-.3019-.2144-.2264-.4343.2264-.9455.3557-1.5007.3557z" stroke="url(#ad)" stroke-width=".2"/></g><path d="m16.0015 17.269c-.5497 0-1.0665-.1293-1.5008-.3557-.1484-.0755-.3078.0916-.2143.2264.3628.5498.9949.9163 1.7151.9163.7201 0 1.3523-.3665 1.7151-.9163.0935-.1402-.066-.3019-.2144-.2264-.4343.2264-.9455.3557-1.5007.3557z" fill="#88024e"/><path d="m18.5886 12.3276c.7074 0 1.305.4878 1.4676 1.1469.0483.189-.0967.3691-.29.3691h-2.4168c-.1538 0-.2768-.1406-.2461-.2944.1362-.6943.747-1.2216 1.4853-1.2216z" fill="#fff"/><path d="m18.3644 12.6221c.5361 0 .9667.435.9667.9667 0 .0879-.0132.1758-.0352.2549h-1.8675c-.022-.0835-.0352-.167-.0352-.2549 0-.5317.4351-.9667.9712-.9667z" fill="url(#af)"/><path d="m17.8107 13.5888c0-.3076.2461-.5536.5537-.5536s.5537.246.5537.5536c0 .0923-.022.1802-.0616.2549h-.9799c-.0439-.0747-.0659-.1626-.0659-.2549z" fill="#000"/><g filter="url(#j)"><path d="m18.2933 12.8266c.0689.0921-.075.2044-.2387.3268s-.2852.2085-.354.1164c-.0689-.0921.008-.266.1717-.3884.1636-.1224.3522-.1469.421-.0548z" fill="#c7a7a3"/><path d="m18.2933 12.8266c.0689.0921-.075.2044-.2387.3268s-.2852.2085-.354.1164c-.0689-.0921.008-.266.1717-.3884.1636-.1224.3522-.1469.421-.0548z" fill="url(#ah)"/></g><g filter="url(#k)"><path d="m19.2257 13.4617c-.0358-.25-.182-.4383-.2507-.5013l-.2815.309.1271.2472z" fill="url(#aj)"/></g><path d="m13.4087 12.3276c-.7075 0-1.3052.4878-1.4678 1.147-.0483.1889.0967.3691.2901.3691h2.4169c.1538 0 .2769-.1406.2461-.2944-.1362-.6943-.7515-1.2217-1.4853-1.2217z" fill="#fff"/><path d="m13.6327 12.6221c-.5361 0-.9667.435-.9667.9667 0 .0879.0131.1758.0351.2549h1.8676c.022-.0835.0352-.167.0352-.2549-.0044-.5317-.4351-.9667-.9712-.9667z" fill="url(#ak)"/><path d="m14.1864 13.5889c0-.3077-.2461-.5537-.5537-.5537s-.5537.246-.5537.5537c0 .0922.022.1801.0616.2548h.9799c.0396-.0747.0659-.1626.0659-.2548z" fill="#000"/><g filter="url(#l)"><path d="m14.5162 13.4752c0-.3124-.2541-.5207-.3227-.5836l-.3125.3021.1923.3914z" fill="url(#al)"/></g><g filter="url(#m)"><ellipse cx="13.341" cy="13.035" fill="#c7a7a3" fill-opacity=".9" rx=".422" ry=".214" transform="matrix(.88365127 -.46814574 .46814574 .88365127 -4.550118 7.76215)"/><ellipse cx="13.341" cy="13.035" fill="url(#am)" rx=".422" ry=".214" transform="matrix(.88365127 -.46814574 .46814574 .88365127 -4.550118 7.76215)"/></g><path d="m9.98199 7.2084c0-2.26437 1.83561-4.1 4.10001-4.1h3.9875c2.2644 0 4.1 1.83563 4.1 4.1v2.68125h-12.18751z" fill="url(#an)"/><path d="m9.98199 7.2084c0-2.26437 1.83561-4.1 4.10001-4.1h3.9875c2.2644 0 4.1 1.83563 4.1 4.1v2.68125h-12.18751z" fill="url(#ao)"/><path d="m9.98199 7.2084c0-2.26437 1.83561-4.1 4.10001-4.1h3.9875c2.2644 0 4.1 1.83563 4.1 4.1v2.68125h-12.18751z" fill="url(#ap)"/><path d="m9.98199 7.2084c0-2.26437 1.83561-4.1 4.10001-4.1h3.9875c2.2644 0 4.1 1.83563 4.1 4.1v2.68125h-12.18751z" fill="url(#aq)"/><path d="m9.98199 7.2084c0-2.26437 1.83561-4.1 4.10001-4.1h3.9875c2.2644 0 4.1 1.83563 4.1 4.1v2.68125h-12.18751z" fill="url(#ar)"/><path d="m9.98199 7.2084c0-2.26437 1.83561-4.1 4.10001-4.1h3.9875c2.2644 0 4.1 1.83563 4.1 4.1v2.68125h-12.18751z" fill="url(#as)"/><path d="m9.98199 7.2084c0-2.26437 1.83561-4.1 4.10001-4.1h3.9875c2.2644 0 4.1 1.83563 4.1 4.1v2.68125h-12.18751z" fill="url(#at)"/><path d="m9.98199 7.2084c0-2.26437 1.83561-4.1 4.10001-4.1h3.9875c2.2644 0 4.1 1.83563 4.1 4.1v2.68125h-12.18751z" fill="url(#au)"/><g filter="url(#n)"><path d="m14.8257 2.10059h2.3907c.8284 0 1.5.60254 1.5 1.6322v6.79571h-5.3907v-6.79571c0-1.02966.6716-1.6322 1.5-1.6322z" fill="url(#av)"/><path d="m14.8257 2.10059h2.3907c.8284 0 1.5.60254 1.5 1.6322v6.79571h-5.3907v-6.79571c0-1.02966.6716-1.6322 1.5-1.6322z" fill="url(#aw)"/><path d="m14.8257 2.10059h2.3907c.8284 0 1.5.60254 1.5 1.6322v6.79571h-5.3907v-6.79571c0-1.02966.6716-1.6322 1.5-1.6322z" fill="url(#ax)"/><path d="m14.8257 2.10059h2.3907c.8284 0 1.5.60254 1.5 1.6322v6.79571h-5.3907v-6.79571c0-1.02966.6716-1.6322 1.5-1.6322z" fill="url(#ay)"/></g><path d="m22.4768 9.87207h-12.59342c-.64171 0-1.15322.52083-1.15322 1.15323 0 .6417.52081 1.1532 1.15322 1.1532h12.59342c.6418 0 1.1533-.5208 1.1533-1.1532.0093-.6324-.5115-1.15323-1.1533-1.15323z" fill="url(#az)"/><path d="m22.4768 9.87207h-12.59342c-.64171 0-1.15322.52083-1.15322 1.15323 0 .6417.52081 1.1532 1.15322 1.1532h12.59342c.6418 0 1.1533-.5208 1.1533-1.1532.0093-.6324-.5115-1.15323-1.1533-1.15323z" fill="url(#aA)"/><path d="m22.4768 9.87207h-12.59342c-.64171 0-1.15322.52083-1.15322 1.15323 0 .6417.52081 1.1532 1.15322 1.1532h12.59342c.6418 0 1.1533-.5208 1.1533-1.1532.0093-.6324-.5115-1.15323-1.1533-1.15323z" fill="url(#aB)"/><path d="m22.4768 9.87207h-12.59342c-.64171 0-1.15322.52083-1.15322 1.15323 0 .6417.52081 1.1532 1.15322 1.1532h12.59342c.6418 0 1.1533-.5208 1.1533-1.1532.0093-.6324-.5115-1.15323-1.1533-1.15323z" fill="url(#aC)"/><g filter="url(#o)"><ellipse cx="19.54" cy="10.886" fill="#fff060" rx="2.827" ry=".264"/></g></svg>