<svg fill="none" height="32" viewBox="0 0 32 32" width="32" xmlns="http://www.w3.org/2000/svg" xmlns:xlink="http://www.w3.org/1999/xlink"><filter id="a" color-interpolation-filters="sRGB" filterUnits="userSpaceOnUse" height="4.539" width="4.539" x="4.25" y="17.519"><feFlood flood-opacity="0" result="BackgroundImageFix"/><feBlend in="SourceGraphic" in2="BackgroundImageFix" mode="normal" result="shape"/><feGaussianBlur result="effect1_foregroundBlur_3987_24657" stdDeviation=".125"/></filter><filter id="b" color-interpolation-filters="sRGB" filterUnits="userSpaceOnUse" height="4.663" width="4.663" x="23.189" y="17.458"><feFlood flood-opacity="0" result="BackgroundImageFix"/><feBlend in="SourceGraphic" in2="BackgroundImageFix" mode="normal" result="shape"/><feGaussianBlur result="effect1_foregroundBlur_3987_24657" stdDeviation=".125"/></filter><filter id="c" color-interpolation-filters="sRGB" filterUnits="userSpaceOnUse" height="26" width="23.25" x="5.04" y="3.961"><feFlood flood-opacity="0" result="BackgroundImageFix"/><feBlend in="SourceGraphic" in2="BackgroundImageFix" mode="normal" result="shape"/><feColorMatrix in="SourceAlpha" result="hardAlpha" type="matrix" values="0 0 0 0 0 0 0 0 0 0 0 0 0 0 0 0 0 0 127 0"/><feOffset dx="1.25"/><feGaussianBlur stdDeviation="1"/><feComposite in2="hardAlpha" k2="-1" k3="1" operator="arithmetic"/><feColorMatrix type="matrix" values="0 0 0 0 0.811765 0 0 0 0 0.639216 0 0 0 0 0.352941 0 0 0 1 0"/><feBlend in2="shape" mode="normal" result="effect1_innerShadow_3987_24657"/></filter><filter id="d" color-interpolation-filters="sRGB" filterUnits="userSpaceOnUse" height="2.4" width="7" x="12.52" y="23.228"><feFlood flood-opacity="0" result="BackgroundImageFix"/><feBlend in="SourceGraphic" in2="BackgroundImageFix" mode="normal" result="shape"/><feColorMatrix in="SourceAlpha" result="hardAlpha" type="matrix" values="0 0 0 0 0 0 0 0 0 0 0 0 0 0 0 0 0 0 127 0"/><feOffset/><feGaussianBlur stdDeviation=".5"/><feComposite in2="hardAlpha" k2="-1" k3="1" operator="arithmetic"/><feColorMatrix type="matrix" values="0 0 0 0 0.529412 0 0 0 0 0 0 0 0 0 0.301961 0 0 0 1 0"/><feBlend in2="shape" mode="normal" result="effect1_innerShadow_3987_24657"/></filter><filter id="e" color-interpolation-filters="sRGB" filterUnits="userSpaceOnUse" height="1.592" width="3.72" x="9" y="14.028"><feFlood flood-opacity="0" result="BackgroundImageFix"/><feBlend in="SourceGraphic" in2="BackgroundImageFix" mode="normal" result="shape"/><feColorMatrix in="SourceAlpha" result="hardAlpha" type="matrix" values="0 0 0 0 0 0 0 0 0 0 0 0 0 0 0 0 0 0 127 0"/><feOffset dx=".25" dy="-.3"/><feGaussianBlur stdDeviation=".25"/><feComposite in2="hardAlpha" k2="-1" k3="1" operator="arithmetic"/><feColorMatrix type="matrix" values="0 0 0 0 0.6 0 0 0 0 0.235294 0 0 0 0 0.156863 0 0 0 1 0"/><feBlend in2="shape" mode="normal" result="effect1_innerShadow_3987_24657"/></filter><filter id="f" color-interpolation-filters="sRGB" filterUnits="userSpaceOnUse" height=".992" width="3.17" x="9.205" y="14.384"><feFlood flood-opacity="0" result="BackgroundImageFix"/><feBlend in="SourceGraphic" in2="BackgroundImageFix" mode="normal" result="shape"/><feGaussianBlur result="effect1_foregroundBlur_3987_24657" stdDeviation=".1"/></filter><filter id="g" color-interpolation-filters="sRGB" filterUnits="userSpaceOnUse" height="1.592" width="3.72" x="18.85" y="14.028"><feFlood flood-opacity="0" result="BackgroundImageFix"/><feBlend in="SourceGraphic" in2="BackgroundImageFix" mode="normal" result="shape"/><feColorMatrix in="SourceAlpha" result="hardAlpha" type="matrix" values="0 0 0 0 0 0 0 0 0 0 0 0 0 0 0 0 0 0 127 0"/><feOffset dx="-.25" dy="-.3"/><feGaussianBlur stdDeviation=".25"/><feComposite in2="hardAlpha" k2="-1" k3="1" operator="arithmetic"/><feColorMatrix type="matrix" values="0 0 0 0 0.6 0 0 0 0 0.235294 0 0 0 0 0.156863 0 0 0 1 0"/><feBlend in2="shape" mode="normal" result="effect1_innerShadow_3987_24657"/></filter><filter id="h" color-interpolation-filters="sRGB" filterUnits="userSpaceOnUse" height=".992" width="3.17" x="19.25" y="14.332"><feFlood flood-opacity="0" result="BackgroundImageFix"/><feBlend in="SourceGraphic" in2="BackgroundImageFix" mode="normal" result="shape"/><feGaussianBlur result="effect1_foregroundBlur_3987_24657" stdDeviation=".1"/></filter><filter id="i" color-interpolation-filters="sRGB" filterUnits="userSpaceOnUse" height="8.705" width="7.887" x="12.161" y="2.226"><feFlood flood-opacity="0" result="BackgroundImageFix"/><feBlend in="SourceGraphic" in2="BackgroundImageFix" mode="normal" result="shape"/><feGaussianBlur result="effect1_foregroundBlur_3987_24657" stdDeviation=".25"/></filter><filter id="j" color-interpolation-filters="sRGB" filterUnits="userSpaceOnUse" height="8.529" width="8.2" x="12.04" y="1.87"><feFlood flood-opacity="0" result="BackgroundImageFix"/><feBlend in="SourceGraphic" in2="BackgroundImageFix" mode="normal" result="shape"/><feColorMatrix in="SourceAlpha" result="hardAlpha" type="matrix" values="0 0 0 0 0 0 0 0 0 0 0 0 0 0 0 0 0 0 127 0"/><feOffset dx=".2" dy="-.2"/><feGaussianBlur stdDeviation=".5"/><feComposite in2="hardAlpha" k2="-1" k3="1" operator="arithmetic"/><feColorMatrix type="matrix" values="0 0 0 0 0.847059 0 0 0 0 0.458824 0 0 0 0 0.0117647 0 0 0 1 0"/><feBlend in2="shape" mode="normal" result="effect1_innerShadow_3987_24657"/></filter><filter id="k" color-interpolation-filters="sRGB" filterUnits="userSpaceOnUse" height="2.603" width="3.638" x="14.068" y="20.936"><feFlood flood-opacity="0" result="BackgroundImageFix"/><feBlend in="SourceGraphic" in2="BackgroundImageFix" mode="normal" result="shape"/><feGaussianBlur result="effect1_foregroundBlur_3987_24657" stdDeviation=".25"/></filter><filter id="l" color-interpolation-filters="sRGB" filterUnits="userSpaceOnUse" height="2.103" width="3.138" x="14.451" y="20.836"><feFlood flood-opacity="0" result="BackgroundImageFix"/><feBlend in="SourceGraphic" in2="BackgroundImageFix" mode="normal" result="shape"/><feGaussianBlur result="effect1_foregroundBlur_3987_24657" stdDeviation=".125"/></filter><filter id="m" color-interpolation-filters="sRGB" filterUnits="userSpaceOnUse" height="1.423" width="1.647" x="18.552" y="18.008"><feFlood flood-opacity="0" result="BackgroundImageFix"/><feBlend in="SourceGraphic" in2="BackgroundImageFix" mode="normal" result="shape"/><feGaussianBlur result="effect1_foregroundBlur_3987_24657" stdDeviation=".05"/></filter><filter id="n" color-interpolation-filters="sRGB" filterUnits="userSpaceOnUse" height="1.666" width="1.611" x="20.769" y="18.339"><feFlood flood-opacity="0" result="BackgroundImageFix"/><feBlend in="SourceGraphic" in2="BackgroundImageFix" mode="normal" result="shape"/><feGaussianBlur result="effect1_foregroundBlur_3987_24657" stdDeviation=".1"/></filter><filter id="o" color-interpolation-filters="sRGB" filterUnits="userSpaceOnUse" height="1.978" width="1.845" x="11.605" y="18.183"><feFlood flood-opacity="0" result="BackgroundImageFix"/><feBlend in="SourceGraphic" in2="BackgroundImageFix" mode="normal" result="shape"/><feGaussianBlur result="effect1_foregroundBlur_3987_24657" stdDeviation=".1"/></filter><filter id="p" color-interpolation-filters="sRGB" filterUnits="userSpaceOnUse" height="1.444" width="1.958" x="9.597" y="17.988"><feFlood flood-opacity="0" result="BackgroundImageFix"/><feBlend in="SourceGraphic" in2="BackgroundImageFix" mode="normal" result="shape"/><feGaussianBlur result="effect1_foregroundBlur_3987_24657" stdDeviation=".05"/></filter><linearGradient id="q" gradientUnits="userSpaceOnUse" x1="3.695" x2="6.52" y1="19.789" y2="19.539"><stop offset="0" stop-color="#de8d27"/><stop offset="1" stop-color="#cb773f"/></linearGradient><radialGradient id="r" cx="0" cy="0" gradientTransform="matrix(-3.7310245 -1.53126978 1.99250774 -4.8548566 6.51999 20.2578)" gradientUnits="userSpaceOnUse" r="1"><stop offset=".609" stop-color="#ce9f45" stop-opacity="0"/><stop offset="1" stop-color="#ce9f45"/></radialGradient><radialGradient id="s" cx="0" cy="0" gradientTransform="matrix(0 2.01965 -2.01965 0 6.52001 19.7891)" gradientUnits="userSpaceOnUse" r="1"><stop offset=".797" stop-color="#ce791d" stop-opacity="0"/><stop offset="1" stop-color="#ce791d"/></radialGradient><linearGradient id="t" gradientUnits="userSpaceOnUse" x1="28.07" x2="25.82" y1="17.258" y2="22.289"><stop offset="0" stop-color="#ffe13f"/><stop offset="1" stop-color="#ffbd36"/></linearGradient><radialGradient id="u" cx="0" cy="0" gradientTransform="matrix(-.07812349 4.71875334 -4.52219028 -.0748692 25.8671 18.6016)" gradientUnits="userSpaceOnUse" r="1"><stop offset=".766" stop-color="#d58651" stop-opacity="0"/><stop offset="1" stop-color="#d58651"/></radialGradient><radialGradient id="v" cx="0" cy="0" gradientTransform="matrix(1.70312313 -1.96874828 1.94274727 1.6806302 25.8671 19.3828)" gradientUnits="userSpaceOnUse" r="1"><stop offset=".501" stop-color="#ffb61f"/><stop offset=".883" stop-color="#ffb61f" stop-opacity="0"/></radialGradient><linearGradient id="w" gradientUnits="userSpaceOnUse" x1="26.742" x2="27.07" y1="20.945" y2="17.867"><stop offset=".302" stop-color="#ffc332"/><stop offset="1" stop-color="#ffd165"/></linearGradient><radialGradient id="x" cx="0" cy="0" gradientTransform="matrix(0 17.405 -12.704 0 21.7985 13.2746)" gradientUnits="userSpaceOnUse" r="1"><stop offset=".216" stop-color="#ffe944"/><stop offset="1" stop-color="#fdab24"/></radialGradient><radialGradient id="y" cx="0" cy="0" gradientTransform="matrix(3.18750383 -4.171873 9.21025307 7.03705913 9.28898 29.9609)" gradientUnits="userSpaceOnUse" r="1"><stop offset="0" stop-color="#d17c51"/><stop offset="1" stop-color="#d17c51" stop-opacity="0"/></radialGradient><radialGradient id="z" cx="0" cy="0" gradientTransform="matrix(0 -3.34375 15.4144 0 16.04 30.6172)" gradientUnits="userSpaceOnUse" r="1"><stop offset="0" stop-color="#d87a77"/><stop offset="1" stop-color="#d87a77" stop-opacity="0"/></radialGradient><linearGradient id="A" gradientUnits="userSpaceOnUse" x1="5.684" x2="12.059" y1="20.648" y2="20.648"><stop offset="0" stop-color="#eb992c"/><stop offset="1" stop-color="#eb992c" stop-opacity="0"/></linearGradient><radialGradient id="B" cx="0" cy="0" gradientTransform="matrix(1.43749824 -3.046871 3.42025164 1.61365732 21.1371 18.6797)" gradientUnits="userSpaceOnUse" r="1"><stop offset=".361" stop-color="#ffba36"/><stop offset="1" stop-color="#ffba36" stop-opacity="0"/></radialGradient><radialGradient id="C" cx="0" cy="0" gradientTransform="matrix(1.31249817 -2.90625261 3.19846548 1.44446497 11.2778 18.9609)" gradientUnits="userSpaceOnUse" r="1"><stop offset=".418" stop-color="#f0953d"/><stop offset="1" stop-color="#f0953d" stop-opacity="0"/></radialGradient><linearGradient id="D"><stop offset=".802" stop-color="#8f564f"/><stop offset="1" stop-color="#86534b"/></linearGradient><radialGradient id="E" cx="0" cy="0" gradientTransform="matrix(0 1.42187 -2.26165 0 20.215 19.5235)" gradientUnits="userSpaceOnUse" r="1" xlink:href="#D"/><radialGradient id="F" cx="0" cy="0" gradientTransform="matrix(0 1.42187 -2.26165 0 11.245 19.5235)" gradientUnits="userSpaceOnUse" r="1" xlink:href="#D"/><linearGradient id="G" gradientUnits="userSpaceOnUse" x1="18.708" x2="15.402" y1="4.563" y2="10.31"><stop offset="0" stop-color="#e07f05"/><stop offset="1" stop-color="#ff9c1d"/></linearGradient><radialGradient id="H" cx="0" cy="0" gradientTransform="matrix(7.82167487 -2.08468083 1.73909343 6.52503885 12.04 7.00404)" gradientUnits="userSpaceOnUse" r="1"><stop offset=".738" stop-color="#ffd937" stop-opacity="0"/><stop offset=".999" stop-color="#ffd937"/></radialGradient><radialGradient id="I" cx="0" cy="0" gradientTransform="matrix(-3.63771428 -5.65242417 5.82756823 -3.75043124 16.7696 8.26324)" gradientUnits="userSpaceOnUse" r="1"><stop offset=".825" stop-color="#c9983d" stop-opacity="0"/><stop offset=".987" stop-color="#c9983d"/></radialGradient><radialGradient id="J" cx="0" cy="0" gradientTransform="matrix(-.93994676 1.78919648 -2.70480665 -1.42095866 16.7161 21.3543)" gradientUnits="userSpaceOnUse" r="1"><stop offset=".084" stop-color="#ffe245"/><stop offset="1" stop-color="#f29624"/></radialGradient><linearGradient id="K"><stop offset=".766" stop-color="#ffe6e2" stop-opacity="0"/><stop offset=".966" stop-color="#ffe6e2"/></linearGradient><radialGradient id="L" cx="0" cy="0" gradientTransform="matrix(-.57170485 -.73671879 1.01428359 -.7870993 19.6524 19.1527)" gradientUnits="userSpaceOnUse" r="1" xlink:href="#K"/><linearGradient id="M"><stop offset="0" stop-color="#b4948d"/><stop offset="1" stop-color="#b4948d" stop-opacity="0"/></linearGradient><linearGradient id="N" gradientUnits="userSpaceOnUse" x1="22.133" x2="21.359" xlink:href="#M" y1="19.078" y2="19.555"/><linearGradient id="O" gradientUnits="userSpaceOnUse" x1="13.079" x2="12.305" xlink:href="#M" y1="19.078" y2="19.555"/><radialGradient id="P" cx="0" cy="0" gradientTransform="matrix(-.01906869 -1.21791073 1.46398057 -.02292137 10.539 19.4857)" gradientUnits="userSpaceOnUse" r="1" xlink:href="#K"/><path d="m6.51999 23.0391c1.79492 0 3.25-1.4551 3.25-3.25 0-1.795-1.45508-3.25-3.25-3.25-1.79493 0-3.25 1.455-3.25 3.25 0 1.7949 1.45507 3.25 3.25 3.25z" fill="url(#q)"/><path d="m6.51999 23.0391c1.79492 0 3.25-1.4551 3.25-3.25 0-1.795-1.45508-3.25-3.25-3.25-1.79493 0-3.25 1.455-3.25 3.25 0 1.7949 1.45507 3.25 3.25 3.25z" fill="url(#r)"/><g filter="url(#a)"><path d="m6.52001 21.8087c1.11542 0 2.01965-.9042 2.01965-2.0196 0-1.1155-.90423-2.0197-2.01965-2.0197s-2.01964.9042-2.01964 2.0197c0 1.1154.90422 2.0196 2.01964 2.0196z" fill="#d78125"/><path d="m6.52001 21.8087c1.11542 0 2.01965-.9042 2.01965-2.0196 0-1.1155-.90423-2.0197-2.01965-2.0197s-2.01964.9042-2.01964 2.0197c0 1.1154.90422 2.0196 2.01964 2.0196z" fill="url(#s)"/></g><path d="m25.52 23.0391c1.7949 0 3.25-1.4551 3.25-3.25 0-1.795-1.4551-3.25-3.25-3.25s-3.25 1.455-3.25 3.25c0 1.7949 1.4551 3.25 3.25 3.25z" fill="url(#t)"/><path d="m25.52 23.0391c1.7949 0 3.25-1.4551 3.25-3.25 0-1.795-1.4551-3.25-3.25-3.25s-3.25 1.455-3.25 3.25c0 1.7949 1.4551 3.25 3.25 3.25z" fill="url(#u)"/><path d="m25.52 23.0391c1.7949 0 3.25-1.4551 3.25-3.25 0-1.795-1.4551-3.25-3.25-3.25s-3.25 1.455-3.25 3.25c0 1.7949 1.4551 3.25 3.25 3.25z" fill="url(#v)"/><g filter="url(#b)"><path d="m25.52 21.8705c1.1496 0 2.0815-.9319 2.0815-2.0815 0-1.1495-.9319-2.0814-2.0815-2.0814s-2.0815.9319-2.0815 2.0814c0 1.1496.9319 2.0815 2.0815 2.0815z" fill="url(#w)"/></g><g filter="url(#c)"><path d="m23.2492 5.75111c-1.551-1.16011-3.4082-1.79017-5.3061-1.79017h-3.8061c-1.898 0-3.7551.63006-5.30609 1.79017-2.64283 1.99019-4.07139 5.30049-3.74486 8.69079l.89795 8.1108c.29591 3.1403 2.37753 5.7806 5.2653 6.6807 3.1224.9701 6.4591.9701 9.5815 0 2.8877-.9001 4.9694-3.5404 5.2653-6.6807l.8979-8.1108c.3266-3.3903-1.102-6.7006-3.7448-8.69079z" fill="url(#x)"/><path d="m23.2492 5.75111c-1.551-1.16011-3.4082-1.79017-5.3061-1.79017h-3.8061c-1.898 0-3.7551.63006-5.30609 1.79017-2.64283 1.99019-4.07139 5.30049-3.74486 8.69079l.89795 8.1108c.29591 3.1403 2.37753 5.7806 5.2653 6.6807 3.1224.9701 6.4591.9701 9.5815 0 2.8877-.9001 4.9694-3.5404 5.2653-6.6807l.8979-8.1108c.3266-3.3903-1.102-6.7006-3.7448-8.69079z" fill="url(#y)"/><path d="m23.2492 5.75111c-1.551-1.16011-3.4082-1.79017-5.3061-1.79017h-3.8061c-1.898 0-3.7551.63006-5.30609 1.79017-2.64283 1.99019-4.07139 5.30049-3.74486 8.69079l.89795 8.1108c.29591 3.1403 2.37753 5.7806 5.2653 6.6807 3.1224.9701 6.4591.9701 9.5815 0 2.8877-.9001 4.9694-3.5404 5.2653-6.6807l.8979-8.1108c.3266-3.3903-1.102-6.7006-3.7448-8.69079z" fill="url(#z)"/><path d="m23.2492 5.75111c-1.551-1.16011-3.4082-1.79017-5.3061-1.79017h-3.8061c-1.898 0-3.7551.63006-5.30609 1.79017-2.64283 1.99019-4.07139 5.30049-3.74486 8.69079l.89795 8.1108c.29591 3.1403 2.37753 5.7806 5.2653 6.6807 3.1224.9701 6.4591.9701 9.5815 0 2.8877-.9001 4.9694-3.5404 5.2653-6.6807l.8979-8.1108c.3266-3.3903-1.102-6.7006-3.7448-8.69079z" fill="url(#A)"/><path d="m23.2492 5.75111c-1.551-1.16011-3.4082-1.79017-5.3061-1.79017h-3.8061c-1.898 0-3.7551.63006-5.30609 1.79017-2.64283 1.99019-4.07139 5.30049-3.74486 8.69079l.89795 8.1108c.29591 3.1403 2.37753 5.7806 5.2653 6.6807 3.1224.9701 6.4591.9701 9.5815 0 2.8877-.9001 4.9694-3.5404 5.2653-6.6807l.8979-8.1108c.3266-3.3903-1.102-6.7006-3.7448-8.69079z" fill="url(#B)"/><path d="m23.2492 5.75111c-1.551-1.16011-3.4082-1.79017-5.3061-1.79017h-3.8061c-1.898 0-3.7551.63006-5.30609 1.79017-2.64283 1.99019-4.07139 5.30049-3.74486 8.69079l.89795 8.1108c.29591 3.1403 2.37753 5.7806 5.2653 6.6807 3.1224.9701 6.4591.9701 9.5815 0 2.8877-.9001 4.9694-3.5404 5.2653-6.6807l.8979-8.1108c.3266-3.3903-1.102-6.7006-3.7448-8.69079z" fill="url(#C)"/></g><g filter="url(#d)"><path d="m16.012 24.0023c-1.1052 0-2.1407-.271-3.0069-.7327-.2988-.1606-.6174.1806-.4282.4717.7269 1.1343 2.0013 1.8871 3.4451 1.8871 1.4437 0 2.7082-.7528 3.445-1.8871.1792-.281-.1294-.6223-.4281-.4717-.8862.4617-1.9217.7327-3.0269.7327z" fill="#8a034f"/></g><path d="m20.73 17.0994c1.61 0 2.97 1.11 3.34 2.61.11.43-.22.84-.66.84h-5.5c-.35 0-.63-.32-.56-.67.31-1.58 1.7-2.78 3.38-2.78z" fill="#fff"/><path d="m10.73 17.0994c-1.61 0-2.97 1.11-3.34 2.61-.11.43.22.84.66.84h5.5c.35 0 .63-.32.56-.67-.31-1.58-1.71-2.78-3.38-2.78z" fill="#fff"/><path d="m20.22 17.7694c1.22 0 2.2.99 2.2 2.2 0 .2-.03.4-.08.58h-4.25c-.05-.19-.08-.38-.08-.58 0-1.21.99-2.2 2.21-2.2z" fill="url(#E)"/><path d="m11.24 17.7694c-1.22 0-2.19999.99-2.19999 2.2 0 .2.03.4.08.58h4.24999c.05-.19.08-.38.08-.58-.01-1.21-.99-2.2-2.21-2.2z" fill="url(#F)"/><path d="m18.96 19.9694c0-.7.56-1.26 1.26-1.26s1.26.56 1.26 1.26c0 .21-.05.41-.14.58h-2.23c-.1-.17-.15-.37-.15-.58z" fill="#000"/><path d="m12.5 19.9694c0-.7-.56-1.26-1.26-1.26s-1.25999.56-1.25999 1.26c0 .21.04999.41.13999.58h2.23c.09-.17.15-.37.15-.58z" fill="#000"/><g filter="url(#e)"><path d="m9.5 15.1194c.59-.21 1.41-.36 2.47-.26" stroke="#c15231" stroke-linecap="round" stroke-linejoin="round" stroke-miterlimit="10"/></g><g filter="url(#f)"><path d="m9.55469 15.0256c.59001-.21 1.41001-.36 2.47001-.26" stroke="#c45b41" stroke-linecap="round" stroke-linejoin="round" stroke-miterlimit="10" stroke-width=".3"/></g><g filter="url(#g)"><path d="m22.07 15.1194c-.59-.21-1.41-.36-2.47-.26" stroke="#c15231" stroke-linecap="round" stroke-linejoin="round" stroke-miterlimit="10"/></g><g filter="url(#h)"><path d="m22.07 14.9735c-.59-.21-1.41-.36-2.47-.26" stroke="#c45b41" stroke-linecap="round" stroke-linejoin="round" stroke-miterlimit="10" stroke-width=".3"/></g><g filter="url(#i)"><path d="m16.2611 2.79161c-1.473-.2225-2.7676.11013-3.6005 1.22348.5753-.04865 1.1521-.04207 1.7189.0365l.135.0187c1.6285.22571 2.7162 2.04687 2.4815 3.67412-.1112.73652-.4734 1.3649-.9944 1.81539-.0934.07875-.1546.18948-.1708.30644-.0462.33286.2441.62076.5739.55636 1.5826-.3033 2.8696-1.58298 3.104-3.27445.2983-2.0861-1.164-4.04024-3.2476-4.35654z" fill="url(#G)"/></g><g filter="url(#j)"><path d="m15.84 2.07064c-1.64-.02-3.06.88-3.8 2.22.62-.14 1.25-.22 1.88-.22h.15c1.81 0 3.33 1.48 3.32 3.29-.01.82-.31 1.56-.81 2.13-.09.1-.14.23-.14.36 0 .36996.36.63996.71.51996 1.68-.56996 2.89-2.15996 2.89-4.03996.01-2.32-1.88-4.23-4.2-4.26z" fill="#e99628"/><path d="m15.84 2.07064c-1.64-.02-3.06.88-3.8 2.22.62-.14 1.25-.22 1.88-.22h.15c1.81 0 3.33 1.48 3.32 3.29-.01.82-.31 1.56-.81 2.13-.09.1-.14.23-.14.36 0 .36996.36.63996.71.51996 1.68-.56996 2.89-2.15996 2.89-4.03996.01-2.32-1.88-4.23-4.2-4.26z" fill="url(#H)"/><path d="m15.84 2.07064c-1.64-.02-3.06.88-3.8 2.22.62-.14 1.25-.22 1.88-.22h.15c1.81 0 3.33 1.48 3.32 3.29-.01.82-.31 1.56-.81 2.13-.09.1-.14.23-.14.36 0 .36996.36.63996.71.51996 1.68-.56996 2.89-2.15996 2.89-4.03996.01-2.32-1.88-4.23-4.2-4.26z" fill="url(#I)"/></g><g filter="url(#k)"><path d="m15.8895 23.039c.5093 0 .9644-.2808 1.2245-.7021.2383-.3861-.0109-.901-.4443-.901h-1.5603c-.4335 0-.6935.5266-.4443.901.2601.433.7152.7021 1.2244.7021z" fill="#f1902d"/></g><g filter="url(#l)"><path d="m16.0223 22.6891c.5093 0 .9644-.2809 1.2245-.7021.2384-.3862-.0109-.9011-.4443-.9011h-1.5603c-.4335 0-.6935.5266-.4443.9011.2601.4329.7152.7021 1.2244.7021z" fill="url(#J)"/></g><g filter="url(#m)"><path d="m20.0582 18.2344c.1567.2097-.1709.4652-.5434.7438-.3725.2785-.6489.4745-.8056.2648-.1568-.2096.0182-.6053.3907-.8838.3725-.2786.8015-.3344.9583-.1248z" fill="#c7a7a3"/><path d="m20.0582 18.2344c.1567.2097-.1709.4652-.5434.7438-.3725.2785-.6489.4745-.8056.2648-.1568-.2096.0182-.6053.3907-.8838.3725-.2786.8015-.3344.9583-.1248z" fill="url(#L)"/></g><g filter="url(#n)"><path d="m22.1796 19.6797c-.0813-.5688-.4141-.9974-.5703-1.1406l-.6406.7031.289.5625z" fill="url(#N)"/></g><g filter="url(#o)"><path d="m13.2499 19.7109c0-.7109-.5781-1.1849-.7344-1.3281l-.7109.6875.4375.8906z" fill="url(#O)"/></g><g filter="url(#p)"><ellipse cx="10.576" cy="18.709" fill="#c7a7a3" fill-opacity=".9" rx=".96" ry=".486" transform="matrix(.88365127 -.46814574 .46814574 .88365127 -7.528199 7.128018)"/><ellipse cx="10.576" cy="18.709" fill="url(#P)" rx=".96" ry=".486" transform="matrix(.88365127 -.46814574 .46814574 .88365127 -7.528199 7.128018)"/></g></svg>