<svg fill="none" height="32" viewBox="0 0 32 32" width="32" xmlns="http://www.w3.org/2000/svg" xmlns:xlink="http://www.w3.org/1999/xlink"><filter id="a" color-interpolation-filters="sRGB" filterUnits="userSpaceOnUse" height="6.241" width="6.441" x="3.988" y="14.898"><feFlood flood-opacity="0" result="BackgroundImageFix"/><feBlend in="SourceGraphic" in2="BackgroundImageFix" mode="normal" result="shape"/><feColorMatrix in="SourceAlpha" result="hardAlpha" type="matrix" values="0 0 0 0 0 0 0 0 0 0 0 0 0 0 0 0 0 0 127 0"/><feOffset dx=".2"/><feGaussianBlur stdDeviation=".15"/><feComposite in2="hardAlpha" k2="-1" k3="1" operator="arithmetic"/><feColorMatrix type="matrix" values="0 0 0 0 0.517647 0 0 0 0 0.384314 0 0 0 0 0.34902 0 0 0 1 0"/><feBlend in2="shape" mode="normal" result="effect1_innerShadow_4002_3101"/></filter><filter id="b" color-interpolation-filters="sRGB" filterUnits="userSpaceOnUse" height="4.72" width="4.72" x="4.749" y="15.658"><feFlood flood-opacity="0" result="BackgroundImageFix"/><feBlend in="SourceGraphic" in2="BackgroundImageFix" mode="normal" result="shape"/><feGaussianBlur result="effect1_foregroundBlur_4002_3101" stdDeviation=".25"/></filter><filter id="c" color-interpolation-filters="sRGB" filterUnits="userSpaceOnUse" height="6.491" width="6.491" x="21.771" y="14.648"><feFlood flood-opacity="0" result="BackgroundImageFix"/><feBlend in="SourceGraphic" in2="BackgroundImageFix" mode="normal" result="shape"/><feColorMatrix in="SourceAlpha" result="hardAlpha" type="matrix" values="0 0 0 0 0 0 0 0 0 0 0 0 0 0 0 0 0 0 127 0"/><feOffset dx=".25" dy="-.25"/><feGaussianBlur stdDeviation=".25"/><feComposite in2="hardAlpha" k2="-1" k3="1" operator="arithmetic"/><feColorMatrix type="matrix" values="0 0 0 0 0.482353 0 0 0 0 0.278431 0 0 0 0 0.372549 0 0 0 1 0"/><feBlend in2="shape" mode="normal" result="effect1_innerShadow_4002_3101"/></filter><filter id="d" color-interpolation-filters="sRGB" filterUnits="userSpaceOnUse" height="4.72" width="4.72" x="22.532" y="15.658"><feFlood flood-opacity="0" result="BackgroundImageFix"/><feBlend in="SourceGraphic" in2="BackgroundImageFix" mode="normal" result="shape"/><feGaussianBlur result="effect1_foregroundBlur_4002_3101" stdDeviation=".25"/></filter><filter id="e" color-interpolation-filters="sRGB" filterUnits="userSpaceOnUse" height="19.337" width="19.121" x="6.537" y="10.9"><feFlood flood-opacity="0" result="BackgroundImageFix"/><feBlend in="SourceGraphic" in2="BackgroundImageFix" mode="normal" result="shape"/><feColorMatrix in="SourceAlpha" result="hardAlpha" type="matrix" values="0 0 0 0 0 0 0 0 0 0 0 0 0 0 0 0 0 0 127 0"/><feOffset dy=".25"/><feGaussianBlur stdDeviation=".25"/><feComposite in2="hardAlpha" k2="-1" k3="1" operator="arithmetic"/><feColorMatrix type="matrix" values="0 0 0 0 0.360784 0 0 0 0 0.2 0 0 0 0 0.243137 0 0 0 1 0"/><feBlend in2="shape" mode="normal" result="effect1_innerShadow_4002_3101"/></filter><filter id="f" color-interpolation-filters="sRGB" filterUnits="userSpaceOnUse" height="6.512" width="4.79" x="13.142" y="16.512"><feFlood flood-opacity="0" result="BackgroundImageFix"/><feBlend in="SourceGraphic" in2="BackgroundImageFix" mode="normal" result="shape"/><feGaussianBlur result="effect1_foregroundBlur_4002_3101" stdDeviation=".375"/></filter><filter id="g" color-interpolation-filters="sRGB" filterUnits="userSpaceOnUse" height="5.512" width="4.008" x="13.979" y="16.707"><feFlood flood-opacity="0" result="BackgroundImageFix"/><feBlend in="SourceGraphic" in2="BackgroundImageFix" mode="normal" result="shape"/><feGaussianBlur result="effect1_foregroundBlur_4002_3101" stdDeviation=".125"/></filter><filter id="h" color-interpolation-filters="sRGB" filterUnits="userSpaceOnUse" height="3.153" width="5.352" x="18.193" y="11.545"><feFlood flood-opacity="0" result="BackgroundImageFix"/><feBlend in="SourceGraphic" in2="BackgroundImageFix" mode="normal" result="shape"/><feColorMatrix in="SourceAlpha" result="hardAlpha" type="matrix" values="0 0 0 0 0 0 0 0 0 0 0 0 0 0 0 0 0 0 127 0"/><feOffset dx=".25" dy="-.4"/><feGaussianBlur stdDeviation=".3"/><feComposite in2="hardAlpha" k2="-1" k3="1" operator="arithmetic"/><feColorMatrix type="matrix" values="0 0 0 0 0.156863 0 0 0 0 0.0784314 0 0 0 0 0.109804 0 0 0 1 0"/><feBlend in2="shape" mode="normal" result="effect1_innerShadow_4002_3101"/></filter><filter id="i" color-interpolation-filters="sRGB" filterUnits="userSpaceOnUse" height="3.153" width="5.353" x="8.571" y="11.545"><feFlood flood-opacity="0" result="BackgroundImageFix"/><feBlend in="SourceGraphic" in2="BackgroundImageFix" mode="normal" result="shape"/><feColorMatrix in="SourceAlpha" result="hardAlpha" type="matrix" values="0 0 0 0 0 0 0 0 0 0 0 0 0 0 0 0 0 0 127 0"/><feOffset dx=".25" dy="-.4"/><feGaussianBlur stdDeviation=".3"/><feComposite in2="hardAlpha" k2="-1" k3="1" operator="arithmetic"/><feColorMatrix type="matrix" values="0 0 0 0 0.156863 0 0 0 0 0.0784314 0 0 0 0 0.109804 0 0 0 1 0"/><feBlend in2="shape" mode="normal" result="effect1_innerShadow_4002_3101"/></filter><filter id="j" color-interpolation-filters="sRGB" filterUnits="userSpaceOnUse" height="1.127" width="1.297" x="18.771" y="16.008"><feFlood flood-opacity="0" result="BackgroundImageFix"/><feBlend in="SourceGraphic" in2="BackgroundImageFix" mode="normal" result="shape"/><feGaussianBlur result="effect1_foregroundBlur_4002_3101" stdDeviation=".05"/></filter><filter id="k" color-interpolation-filters="sRGB" filterUnits="userSpaceOnUse" height="1.359" width="1.318" x="20.428" y="16.235"><feFlood flood-opacity="0" result="BackgroundImageFix"/><feBlend in="SourceGraphic" in2="BackgroundImageFix" mode="normal" result="shape"/><feGaussianBlur result="effect1_foregroundBlur_4002_3101" stdDeviation=".1"/></filter><filter id="l" color-interpolation-filters="sRGB" filterUnits="userSpaceOnUse" height="1.597" width="1.496" x="12.125" y="16.117"><feFlood flood-opacity="0" result="BackgroundImageFix"/><feBlend in="SourceGraphic" in2="BackgroundImageFix" mode="normal" result="shape"/><feGaussianBlur result="effect1_foregroundBlur_4002_3101" stdDeviation=".1"/></filter><filter id="m" color-interpolation-filters="sRGB" filterUnits="userSpaceOnUse" height="1.143" width="1.533" x="10.628" y="15.993"><feFlood flood-opacity="0" result="BackgroundImageFix"/><feBlend in="SourceGraphic" in2="BackgroundImageFix" mode="normal" result="shape"/><feGaussianBlur result="effect1_foregroundBlur_4002_3101" stdDeviation=".05"/></filter><filter id="n" color-interpolation-filters="sRGB" filterUnits="userSpaceOnUse" height="2.056" width="4.707" x="18.462" y="11.977"><feFlood flood-opacity="0" result="BackgroundImageFix"/><feBlend in="SourceGraphic" in2="BackgroundImageFix" mode="normal" result="shape"/><feGaussianBlur result="effect1_foregroundBlur_4002_3101" stdDeviation=".25"/></filter><filter id="o" color-interpolation-filters="sRGB" filterUnits="userSpaceOnUse" height="2.162" width="4.852" x="8.706" y="12.095"><feFlood flood-opacity="0" result="BackgroundImageFix"/><feBlend in="SourceGraphic" in2="BackgroundImageFix" mode="normal" result="shape"/><feGaussianBlur result="effect1_foregroundBlur_4002_3101" stdDeviation=".25"/></filter><filter id="p" color-interpolation-filters="sRGB" filterUnits="userSpaceOnUse" height="5.168" width="7.307" x="20.645" y="1.913"><feFlood flood-opacity="0" result="BackgroundImageFix"/><feBlend in="SourceGraphic" in2="BackgroundImageFix" mode="normal" result="shape"/><feColorMatrix in="SourceAlpha" result="hardAlpha" type="matrix" values="0 0 0 0 0 0 0 0 0 0 0 0 0 0 0 0 0 0 127 0"/><feOffset dx=".1" dy="-.1"/><feGaussianBlur stdDeviation=".15"/><feComposite in2="hardAlpha" k2="-1" k3="1" operator="arithmetic"/><feColorMatrix type="matrix" values="0 0 0 0 0.843137 0 0 0 0 0.8 0 0 0 0 0.890196 0 0 0 1 0"/><feBlend in2="shape" mode="normal" result="effect1_innerShadow_4002_3101"/></filter><filter id="q" color-interpolation-filters="sRGB" filterUnits="userSpaceOnUse" height="6.714" width="12.925" x="14.693" y="8.126"><feFlood flood-opacity="0" result="BackgroundImageFix"/><feBlend in="SourceGraphic" in2="BackgroundImageFix" mode="normal" result="shape"/><feColorMatrix in="SourceAlpha" result="hardAlpha" type="matrix" values="0 0 0 0 0 0 0 0 0 0 0 0 0 0 0 0 0 0 127 0"/><feOffset dx="-.05" dy=".1"/><feGaussianBlur stdDeviation=".125"/><feComposite in2="hardAlpha" k2="-1" k3="1" operator="arithmetic"/><feColorMatrix type="matrix" values="0 0 0 0 1 0 0 0 0 0.992157 0 0 0 0 1 0 0 0 1 0"/><feBlend in2="shape" mode="normal" result="effect1_innerShadow_4002_3101"/><feColorMatrix in="SourceAlpha" result="hardAlpha" type="matrix" values="0 0 0 0 0 0 0 0 0 0 0 0 0 0 0 0 0 0 127 0"/><feOffset dx=".4" dy="-.25"/><feGaussianBlur stdDeviation=".325"/><feComposite in2="hardAlpha" k2="-1" k3="1" operator="arithmetic"/><feColorMatrix type="matrix" values="0 0 0 0 0.670588 0 0 0 0 0.560784 0 0 0 0 0.756863 0 0 0 1 0"/><feBlend in2="effect1_innerShadow_4002_3101" mode="normal" result="effect2_innerShadow_4002_3101"/></filter><filter id="r" color-interpolation-filters="sRGB" filterUnits="userSpaceOnUse" height="13.059" width="17.006" x="4.334" y="1.763"><feFlood flood-opacity="0" result="BackgroundImageFix"/><feBlend in="SourceGraphic" in2="BackgroundImageFix" mode="normal" result="shape"/><feColorMatrix in="SourceAlpha" result="hardAlpha" type="matrix" values="0 0 0 0 0 0 0 0 0 0 0 0 0 0 0 0 0 0 127 0"/><feOffset dx="-.25" dy="-.25"/><feGaussianBlur stdDeviation=".3"/><feComposite in2="hardAlpha" k2="-1" k3="1" operator="arithmetic"/><feColorMatrix type="matrix" values="0 0 0 0 0.603922 0 0 0 0 0.45098 0 0 0 0 0.721569 0 0 0 1 0"/><feBlend in2="shape" mode="normal" result="effect1_innerShadow_4002_3101"/></filter><filter id="s" color-interpolation-filters="sRGB" filterUnits="userSpaceOnUse" height="8.679" width="13.757" x="4.484" y="1.913"><feFlood flood-opacity="0" result="BackgroundImageFix"/><feBlend in="SourceGraphic" in2="BackgroundImageFix" mode="normal" result="shape"/><feColorMatrix in="SourceAlpha" result="hardAlpha" type="matrix" values="0 0 0 0 0 0 0 0 0 0 0 0 0 0 0 0 0 0 127 0"/><feOffset dx="-.1" dy="-.1"/><feGaussianBlur stdDeviation=".15"/><feComposite in2="hardAlpha" k2="-1" k3="1" operator="arithmetic"/><feColorMatrix type="matrix" values="0 0 0 0 0.611765 0 0 0 0 0.588235 0 0 0 0 0.635294 0 0 0 1 0"/><feBlend in2="shape" mode="normal" result="effect1_innerShadow_4002_3101"/></filter><filter id="t" color-interpolation-filters="sRGB" filterUnits="userSpaceOnUse" height="5.986" width="10.523" x="4.584" y="1.813"><feFlood flood-opacity="0" result="BackgroundImageFix"/><feBlend in="SourceGraphic" in2="BackgroundImageFix" mode="normal" result="shape"/><feColorMatrix in="SourceAlpha" result="hardAlpha" type="matrix" values="0 0 0 0 0 0 0 0 0 0 0 0 0 0 0 0 0 0 127 0"/><feOffset dy="-.2"/><feGaussianBlur stdDeviation=".2"/><feComposite in2="hardAlpha" k2="-1" k3="1" operator="arithmetic"/><feColorMatrix type="matrix" values="0 0 0 0 0.686275 0 0 0 0 0.619608 0 0 0 0 0.752941 0 0 0 1 0"/><feBlend in2="shape" mode="normal" result="effect1_innerShadow_4002_3101"/><feColorMatrix in="SourceAlpha" result="hardAlpha" type="matrix" values="0 0 0 0 0 0 0 0 0 0 0 0 0 0 0 0 0 0 127 0"/><feOffset dy=".05"/><feGaussianBlur stdDeviation=".15"/><feComposite in2="hardAlpha" k2="-1" k3="1" operator="arithmetic"/><feColorMatrix type="matrix" values="0 0 0 0 0.705882 0 0 0 0 0.701961 0 0 0 0 0.705882 0 0 0 1 0"/><feBlend in2="effect1_innerShadow_4002_3101" mode="normal" result="effect2_innerShadow_4002_3101"/></filter><radialGradient id="u" cx="0" cy="0" gradientTransform="matrix(3.28022 0 0 5.74041 3.98816 18.018)" gradientUnits="userSpaceOnUse" r="1"><stop offset=".351" stop-color="#664249"/><stop offset="1" stop-color="#613641"/></radialGradient><linearGradient id="v" gradientUnits="userSpaceOnUse" x1="7.109" x2="5.911" y1="18.539" y2="18.539"><stop offset="0" stop-color="#553038"/><stop offset="1" stop-color="#59323c"/></linearGradient><linearGradient id="w" gradientUnits="userSpaceOnUse" x1="26.922" x2="25.392" y1="15.978" y2="20.719"><stop offset="0" stop-color="#96776b"/><stop offset="1" stop-color="#855a5b"/></linearGradient><radialGradient id="x" cx="0" cy="0" gradientTransform="matrix(1.54529112 -1.12521054 1.28427812 1.76374422 25.5867 17.523)" gradientUnits="userSpaceOnUse" r="1"><stop offset=".543" stop-color="#7c524c"/><stop offset="1" stop-color="#7c524c" stop-opacity="0"/></radialGradient><radialGradient id="y" cx="0" cy="0" gradientTransform="matrix(1.53511374 -2.82350728 1.65260711 .89850659 24.814 19.5532)" gradientUnits="userSpaceOnUse" r="1"><stop offset=".755" stop-color="#73443e" stop-opacity="0"/><stop offset=".916" stop-color="#73443e"/></radialGradient><radialGradient id="z" cx="0" cy="0" gradientTransform="matrix(.48466594 .47974586 -.61845936 .62480203 24.8913 18.018)" gradientUnits="userSpaceOnUse" r="1"><stop offset="0" stop-color="#6c443e"/><stop offset="1" stop-color="#6c443e" stop-opacity="0"/></radialGradient><linearGradient id="A" gradientUnits="userSpaceOnUse" x1="23.527" x2="9.253" y1="18.746" y2="20.873"><stop offset="0" stop-color="#9b6c5e"/><stop offset="1" stop-color="#744d4a"/></linearGradient><radialGradient id="B" cx="0" cy="0" gradientTransform="matrix(0 -2.44322 3.00703 0 20.3688 15.6413)" gradientUnits="userSpaceOnUse" r="1"><stop offset="0" stop-color="#855354"/><stop offset="1" stop-color="#855354" stop-opacity="0"/></radialGradient><radialGradient id="C" cx="0" cy="0" gradientTransform="matrix(0 -2.56851 3.19417 0 11.8489 15.8919)" gradientUnits="userSpaceOnUse" r="1"><stop offset="0" stop-color="#6f414d"/><stop offset="1" stop-color="#6f414d" stop-opacity="0"/></radialGradient><linearGradient id="D" gradientUnits="userSpaceOnUse" x1="6.099" x2="9.565" y1="24.722" y2="24.578"><stop offset=".242" stop-color="#84615a"/><stop offset="1" stop-color="#84615a" stop-opacity="0"/></linearGradient><linearGradient id="E" gradientUnits="userSpaceOnUse" x1="25.011" x2="23.071" y1="23.392" y2="23.178"><stop offset="0" stop-color="#966d5f"/><stop offset="1" stop-color="#966d5f" stop-opacity="0"/></linearGradient><radialGradient id="F" cx="0" cy="0" gradientTransform="matrix(0 13.3651 -21.0728 0 15.4887 17.01)" gradientUnits="userSpaceOnUse" r="1"><stop offset=".556" stop-color="#895463" stop-opacity="0"/><stop offset="1" stop-color="#7a3f66"/></radialGradient><radialGradient id="G" cx="0" cy="0" gradientTransform="matrix(0 13.1561 -32.5988 0 16.0977 17.2359)" gradientUnits="userSpaceOnUse" r="1"><stop offset=".92" stop-color="#916092" stop-opacity="0"/><stop offset="1" stop-color="#916092"/></radialGradient><linearGradient id="H" gradientUnits="userSpaceOnUse" x1="14.368" x2="16.122" y1="19.978" y2="19.978"><stop offset="0" stop-color="#754e46"/><stop offset="1" stop-color="#754e46" stop-opacity="0"/></linearGradient><linearGradient id="I" gradientUnits="userSpaceOnUse" x1="17.738" x2="15.82" y1="20.581" y2="20.554"><stop offset="0" stop-color="#9d766b"/><stop offset="1" stop-color="#9d766b" stop-opacity="0"/></linearGradient><linearGradient id="J" gradientUnits="userSpaceOnUse" x1="16.347" x2="16.347" y1="21.969" y2="20.898"><stop offset="0" stop-color="#7c4559"/><stop offset="1" stop-color="#7c4559" stop-opacity="0"/></linearGradient><radialGradient id="K" cx="0" cy="0" gradientTransform="matrix(0 .368048 -1.18245 0 16.5952 21.0212)" gradientUnits="userSpaceOnUse" r="1"><stop offset="0" stop-color="#976f6a"/><stop offset="1" stop-color="#976f6a" stop-opacity="0"/></radialGradient><linearGradient id="L" gradientUnits="userSpaceOnUse" x1="14.045" x2="14.858" y1="24.988" y2="23.703"><stop offset="0" stop-color="#865e63"/><stop offset=".663" stop-color="#865e63" stop-opacity="0"/></linearGradient><linearGradient id="M"><stop offset="0" stop-color="#301a2d"/><stop offset="1" stop-color="#301a2d" stop-opacity="0"/></linearGradient><radialGradient id="N" cx="0" cy="0" gradientTransform="matrix(.19476009 -1.12763454 3.33602765 .57618406 20.5496 14.1223)" gradientUnits="userSpaceOnUse" r="1" xlink:href="#M"/><radialGradient id="O" cx="0" cy="0" gradientTransform="matrix(.1947719 -1.1276325 3.33619899 .57624963 10.9276 14.1223)" gradientUnits="userSpaceOnUse" r="1" xlink:href="#M"/><linearGradient id="P"><stop offset=".802" stop-color="#7d574a"/><stop offset="1" stop-color="#694b43"/><stop offset="1" stop-color="#804d49"/><stop offset="1" stop-color="#664944"/></linearGradient><radialGradient id="Q" cx="0" cy="0" gradientTransform="matrix(0 1.51618 -2.41165 0 20.0564 16.7435)" gradientUnits="userSpaceOnUse" r="1" xlink:href="#P"/><linearGradient id="R"><stop offset=".766" stop-color="#ffe6e2" stop-opacity="0"/><stop offset=".966" stop-color="#ffe6e2"/></linearGradient><radialGradient id="S" cx="0" cy="0" gradientTransform="matrix(-.43340366 -.55849905 .76891949 -.59669307 19.63 16.9004)" gradientUnits="userSpaceOnUse" r="1" xlink:href="#R"/><linearGradient id="T"><stop offset="0" stop-color="#b4948d"/><stop offset="1" stop-color="#b4948d" stop-opacity="0"/></linearGradient><linearGradient id="U" gradientUnits="userSpaceOnUse" x1="21.51" x2="20.924" xlink:href="#T" y1="16.844" y2="17.206"/><radialGradient id="V" cx="0" cy="0" gradientTransform="matrix(0 1.51626 -2.41178 0 11.9009 16.7431)" gradientUnits="userSpaceOnUse" r="1" xlink:href="#P"/><linearGradient id="W" gradientUnits="userSpaceOnUse" x1="13.291" x2="12.705" xlink:href="#T" y1="16.844" y2="17.205"/><radialGradient id="X" cx="0" cy="0" gradientTransform="matrix(-.01445656 -.92333583 1.10988397 -.01737732 11.3657 17.1529)" gradientUnits="userSpaceOnUse" r="1" xlink:href="#R"/><linearGradient id="Y"><stop offset="0" stop-color="#483e3e"/><stop offset="1" stop-color="#483e3e" stop-opacity="0"/></linearGradient><linearGradient id="Z" gradientUnits="userSpaceOnUse" x1="21.54" x2="20.754" xlink:href="#Y" y1="12.845" y2="11.24"/><linearGradient id="aa" gradientUnits="userSpaceOnUse" x1="11.624" x2="9.401" xlink:href="#Y" y1="12.606" y2="11.674"/><radialGradient id="ab" cx="0" cy="0" gradientTransform="matrix(-.84218309 3.75477967 -8.78475612 -1.97038806 26.1083 5.03944)" gradientUnits="userSpaceOnUse" r="1"><stop offset="0" stop-color="#f8f6fb"/><stop offset=".789" stop-color="#ebe6f2"/></radialGradient><radialGradient id="ac" cx="0" cy="0" gradientTransform="matrix(2.0937535 .53125165 -1.1531685 4.54483407 20.574 6.67285)" gradientUnits="userSpaceOnUse" r="1"><stop offset=".152" stop-color="#cfcad4"/><stop offset="1" stop-color="#ece8f1" stop-opacity="0"/></radialGradient><radialGradient id="ad" cx="0" cy="0" gradientTransform="matrix(1.50000252 -2.62500241 6.3319745 3.61827388 22.5115 10.5166)" gradientUnits="userSpaceOnUse" r="1"><stop offset="0" stop-color="#d3cfd9"/><stop offset="1" stop-color="#d3cfd9" stop-opacity="0"/></radialGradient><radialGradient id="ae" cx="0" cy="0" gradientTransform="matrix(.17187589 2.91015887 -14.53547104 .85847446 21.4802 2.0127)" gradientUnits="userSpaceOnUse" r="1"><stop offset="0" stop-color="#dbdbdc"/><stop offset="1" stop-color="#fafafa"/></radialGradient><radialGradient id="af" cx="0" cy="0" gradientTransform="matrix(1.45313 0 0 5.1925 21.0271 3.3291)" gradientUnits="userSpaceOnUse" r="1"><stop offset=".253" stop-color="#e2dce8"/><stop offset="1" stop-color="#e2dce8" stop-opacity="0"/></radialGradient><linearGradient id="ag" gradientUnits="userSpaceOnUse" x1="26.387" x2="15.636" y1="13.579" y2="13.579"><stop offset="0" stop-color="#eee8f4"/><stop offset="1" stop-color="#ddd6e4"/></linearGradient><radialGradient id="ah" cx="0" cy="0" gradientTransform="matrix(2.46875345 1.71875027 -3.03124621 4.35397725 17.9177 9.04806)" gradientUnits="userSpaceOnUse" r="1"><stop offset=".391" stop-color="#bfb1c9"/><stop offset="1" stop-color="#e0dae8" stop-opacity="0"/></radialGradient><radialGradient id="ai" cx="0" cy="0" gradientTransform="matrix(0 -2.93844 1.49148 0 24.8801 14.4968)" gradientUnits="userSpaceOnUse" r="1"><stop offset=".306" stop-color="#b384b3"/><stop offset="1" stop-color="#b384b3" stop-opacity="0"/></radialGradient><radialGradient id="aj" cx="0" cy="0" gradientTransform="matrix(3.71875 0 0 .303372 18.9802 8.67306)" gradientUnits="userSpaceOnUse" r="1"><stop offset="0" stop-color="#d0ccd3"/><stop offset="1" stop-color="#d0ccd3" stop-opacity="0"/></radialGradient><radialGradient id="ak" cx="0" cy="0" gradientTransform="matrix(-4.2812544 -.09371633 .19552912 -8.9323802 21.7927 5.5791)" gradientUnits="userSpaceOnUse" r="1"><stop offset="0" stop-color="#f5f4f6"/><stop offset="1" stop-color="#cfc8d7"/></radialGradient><radialGradient id="al" cx="0" cy="0" gradientTransform="matrix(11.55068077 3.52231733 -4.80864365 15.7689108 9.35721 5.73313)" gradientUnits="userSpaceOnUse" r="1"><stop offset=".633" stop-color="#d1cad9" stop-opacity="0"/><stop offset=".952" stop-color="#f1edf4"/></radialGradient><radialGradient id="am" cx="0" cy="0" gradientTransform="matrix(1.11063987 -4.72814698 1.61143906 .3785264 17.0682 4.59076)" gradientUnits="userSpaceOnUse" r="1"><stop offset=".348" stop-color="#c5c2c8"/><stop offset="1" stop-color="#c5c2c8" stop-opacity="0"/></radialGradient><radialGradient id="an" cx="0" cy="0" gradientTransform="matrix(-.06346497 1.33276979 -6.75892123 -.32185209 9.42068 7.38322)" gradientUnits="userSpaceOnUse" r="1"><stop offset="0" stop-color="#bdbbbe"/><stop offset="1" stop-color="#bdbbbe" stop-opacity="0"/></radialGradient><radialGradient id="ao" cx="0" cy="0" gradientTransform="matrix(-13.48638654 2.82408627 -3.694376 -17.64244359 17.7663 7.51015)" gradientUnits="userSpaceOnUse" r="1"><stop offset=".681" stop-color="#bfb7c6" stop-opacity="0"/><stop offset="1" stop-color="#bfb7c6"/></radialGradient><radialGradient id="ap" cx="0" cy="0" gradientTransform="matrix(.88851337 -3.93483077 2.319491 .52375792 7.16767 14.4913)" gradientUnits="userSpaceOnUse" r="1"><stop offset=".201" stop-color="#a87b9c"/><stop offset="1" stop-color="#a87b9c" stop-opacity="0"/></radialGradient><radialGradient id="aq" cx="0" cy="0" gradientTransform="matrix(-7.35472085 6.62501012 -6.32523012 -7.02192163 18.2412 2.36035)" gradientUnits="userSpaceOnUse" r="1"><stop offset="0" stop-color="#ddddde"/><stop offset="1" stop-color="#c0bbc4"/></radialGradient><radialGradient id="ar" cx="0" cy="0" gradientTransform="matrix(-1.78125 0 0 -4.75 18.6677 3.48535)" gradientUnits="userSpaceOnUse" r="1"><stop offset="0" stop-color="#ebeaec"/><stop offset="1" stop-color="#ebeaec" stop-opacity="0"/></radialGradient><linearGradient id="as" gradientUnits="userSpaceOnUse" x1="4.584" x2="8.761" y1="9.548" y2="8.579"><stop offset="0" stop-color="#b6b0bb"/><stop offset="1" stop-color="#b6b0bb" stop-opacity="0"/></linearGradient><radialGradient id="at" cx="0" cy="0" gradientTransform="matrix(5.90624739 .12500014 -.02776547 1.31191622 10.3552 4.11035)" gradientUnits="userSpaceOnUse" r="1"><stop offset="0" stop-color="#b8b2be"/><stop offset="1" stop-color="#b8b2be" stop-opacity="0"/></radialGradient><radialGradient id="au" cx="0" cy="0" gradientTransform="matrix(1.28125468 -.09375043 .17757033 2.42679219 14.3552 2.4541)" gradientUnits="userSpaceOnUse" r="1"><stop offset=".256" stop-color="#bbb9bd"/><stop offset="1" stop-color="#bbb9bd" stop-opacity="0"/></radialGradient><radialGradient id="av" cx="0" cy="0" gradientTransform="matrix(-8.06248667 1.65631069 -3.03845917 -14.79042347 14.7615 2.5791)" gradientUnits="userSpaceOnUse" r="1"><stop offset="0" stop-color="#d2d1d3"/><stop offset="1" stop-color="#b5b4b6"/></radialGradient><radialGradient id="aw" cx="0" cy="0" gradientTransform="matrix(8.03125449 .96874983 -1.11477718 9.2418692 7.48022 3.23535)" gradientUnits="userSpaceOnUse" r="1"><stop offset=".869" stop-color="#a5a0a9" stop-opacity="0"/><stop offset="1" stop-color="#a5a0a9"/></radialGradient><radialGradient id="ax" cx="0" cy="0" gradientTransform="matrix(2.71874542 -2.3258959 1.71042636 1.99932157 4.82397 7.74875)" gradientUnits="userSpaceOnUse" r="1"><stop offset="0" stop-color="#bcb7c1"/><stop offset="1" stop-color="#bcb7c1" stop-opacity="0"/></radialGradient><g filter="url(#a)"><circle cx="7.109" cy="18.018" fill="url(#u)" r="3.121"/></g><g filter="url(#b)"><circle cx="7.109" cy="18.018" fill="url(#v)" r="1.86"/></g><g filter="url(#c)"><circle cx="24.891" cy="18.018" fill="url(#w)" r="3.121"/><circle cx="24.891" cy="18.018" fill="url(#x)" r="3.121"/></g><g filter="url(#d)"><circle cx="24.891" cy="18.018" fill="#7a5654" r="1.86"/><circle cx="24.891" cy="18.018" fill="url(#y)" r="1.86"/><circle cx="24.891" cy="18.018" fill="url(#z)" r="1.86"/></g><g filter="url(#e)"><path d="m25.5697 14.6869-.0043.0529h.0015c-.1842 3.4112-.5021 9.1052-.5376 9.6344-.3001 3.3077-2.9005 5.6131-6.001 5.6131h-6.0008c-3.20048 0-5.70085-2.3054-6.0009-5.6131-.11987-1.562-.18151-3.1737-.24328-4.7888-.06153-1.611-.12329-3.2253-.24304-4.7972-.00025-.0404-.00061-.0848-.00122-.133-.00709-.5904-.02051-1.7271.47741-2.4702.80127-1.1961 1.71094-1.2851 2.6012-1.2851h12.95943c2.465 0 3.0812 1.7961 3.0812 2.6941l-.0849 1.0475c-.0009.0084-.0018.0168-.0026.0253-.0004.0067-.0007.0134-.0011.0201z" fill="url(#A)"/><path d="m25.5697 14.6869-.0043.0529h.0015c-.1842 3.4112-.5021 9.1052-.5376 9.6344-.3001 3.3077-2.9005 5.6131-6.001 5.6131h-6.0008c-3.20048 0-5.70085-2.3054-6.0009-5.6131-.11987-1.562-.18151-3.1737-.24328-4.7888-.06153-1.611-.12329-3.2253-.24304-4.7972-.00025-.0404-.00061-.0848-.00122-.133-.00709-.5904-.02051-1.7271.47741-2.4702.80127-1.1961 1.71094-1.2851 2.6012-1.2851h12.95943c2.465 0 3.0812 1.7961 3.0812 2.6941l-.0849 1.0475c-.0009.0084-.0018.0168-.0026.0253-.0004.0067-.0007.0134-.0011.0201z" fill="url(#B)"/><path d="m25.5697 14.6869-.0043.0529h.0015c-.1842 3.4112-.5021 9.1052-.5376 9.6344-.3001 3.3077-2.9005 5.6131-6.001 5.6131h-6.0008c-3.20048 0-5.70085-2.3054-6.0009-5.6131-.11987-1.562-.18151-3.1737-.24328-4.7888-.06153-1.611-.12329-3.2253-.24304-4.7972-.00025-.0404-.00061-.0848-.00122-.133-.00709-.5904-.02051-1.7271.47741-2.4702.80127-1.1961 1.71094-1.2851 2.6012-1.2851h12.95943c2.465 0 3.0812 1.7961 3.0812 2.6941l-.0849 1.0475c-.0009.0084-.0018.0168-.0026.0253-.0004.0067-.0007.0134-.0011.0201z" fill="url(#C)"/></g><path d="m25.5697 14.6869-.0043.0529h.0015c-.1842 3.4112-.5021 9.1052-.5376 9.6344-.3001 3.3077-2.9005 5.6131-6.001 5.6131h-6.0008c-3.20048 0-5.70085-2.3054-6.0009-5.6131-.11987-1.562-.18151-3.1737-.24328-4.7888-.06153-1.611-.12329-3.2253-.24304-4.7972-.00025-.0404-.00061-.0848-.00122-.133-.00709-.5904-.02051-1.7271.47741-2.4702.80127-1.1961 1.71094-1.2851 2.6012-1.2851h12.95943c2.465 0 3.0812 1.7961 3.0812 2.6941l-.0849 1.0475c-.0009.0084-.0018.0168-.0026.0253-.0004.0067-.0007.0134-.0011.0201z" fill="url(#D)"/><path d="m25.5697 14.6869-.0043.0529h.0015c-.1842 3.4112-.5021 9.1052-.5376 9.6344-.3001 3.3077-2.9005 5.6131-6.001 5.6131h-6.0008c-3.20048 0-5.70085-2.3054-6.0009-5.6131-.11987-1.562-.18151-3.1737-.24328-4.7888-.06153-1.611-.12329-3.2253-.24304-4.7972-.00025-.0404-.00061-.0848-.00122-.133-.00709-.5904-.02051-1.7271.47741-2.4702.80127-1.1961 1.71094-1.2851 2.6012-1.2851h12.95943c2.465 0 3.0812 1.7961 3.0812 2.6941l-.0849 1.0475c-.0009.0084-.0018.0168-.0026.0253-.0004.0067-.0007.0134-.0011.0201z" fill="url(#E)"/><path d="m25.5697 14.6869-.0043.0529h.0015c-.1842 3.4112-.5021 9.1052-.5376 9.6344-.3001 3.3077-2.9005 5.6131-6.001 5.6131h-6.0008c-3.20048 0-5.70085-2.3054-6.0009-5.6131-.11987-1.562-.18151-3.1737-.24328-4.7888-.06153-1.611-.12329-3.2253-.24304-4.7972-.00025-.0404-.00061-.0848-.00122-.133-.00709-.5904-.02051-1.7271.47741-2.4702.80127-1.1961 1.71094-1.2851 2.6012-1.2851h12.95943c2.465 0 3.0812 1.7961 3.0812 2.6941l-.0849 1.0475c-.0009.0084-.0018.0168-.0026.0253-.0004.0067-.0007.0134-.0011.0201z" fill="url(#F)"/><path d="m25.5697 14.6869-.0043.0529h.0015c-.1842 3.4112-.5021 9.1052-.5376 9.6344-.3001 3.3077-2.9005 5.6131-6.001 5.6131h-6.0008c-3.20048 0-5.70085-2.3054-6.0009-5.6131-.11987-1.562-.18151-3.1737-.24328-4.7888-.06153-1.611-.12329-3.2253-.24304-4.7972-.00025-.0404-.00061-.0848-.00122-.133-.00709-.5904-.02051-1.7271.47741-2.4702.80127-1.1961 1.71094-1.2851 2.6012-1.2851h12.95943c2.465 0 3.0812 1.7961 3.0812 2.6941l-.0849 1.0475c-.0009.0084-.0018.0168-.0026.0253-.0004.0067-.0007.0134-.0011.0201z" fill="url(#G)"/><g filter="url(#f)"><path d="m15.469 17.7895-1.5334 3.177c-.1901.6535.2661 1.3069.9123 1.3069h1.3781c.6462 0 1.1024-.6635.9123-1.3069l-.9313-3.177c-.1996-.7037-.5289-.7037-.738 0z" fill="#71404a"/></g><g filter="url(#g)"><path d="m15.2691 17.4848-.9932 3.177c-.2027.6535.2838 1.307.9729 1.307h1.4696c.6891 0 1.1756-.6636.9729-1.307l-.9932-3.177c-.2128-.7037-1.206-.7037-1.429 0z" fill="#8c5f5e"/><path d="m15.2691 17.4848-.9932 3.177c-.2027.6535.2838 1.307.9729 1.307h1.4696c.6891 0 1.1756-.6636.9729-1.307l-.9932-3.177c-.2128-.7037-1.206-.7037-1.429 0z" fill="url(#H)"/><path d="m15.2691 17.4848-.9932 3.177c-.2027.6535.2838 1.307.9729 1.307h1.4696c.6891 0 1.1756-.6636.9729-1.307l-.9932-3.177c-.2128-.7037-1.206-.7037-1.429 0z" fill="url(#I)"/><path d="m15.2691 17.4848-.9932 3.177c-.2027.6535.2838 1.307.9729 1.307h1.4696c.6891 0 1.1756-.6636.9729-1.307l-.9932-3.177c-.2128-.7037-1.206-.7037-1.429 0z" fill="url(#J)"/><path d="m15.2691 17.4848-.9932 3.177c-.2027.6535.2838 1.307.9729 1.307h1.4696c.6891 0 1.1756-.6636.9729-1.307l-.9932-3.177c-.2128-.7037-1.206-.7037-1.429 0z" fill="url(#K)"/></g><path d="m13.4177 23.2105-.0004-.0002c-.1503-.0765-.3065-.0294-.4003.0694-.0941.099-.1295.255-.0337.3937.635.9619 1.741 1.603 3.0004 1.603 1.2596 0 2.3657-.6412 3.0006-1.6033.0951-.1427.0609-.2986-.0341-.3972-.0943-.0979-.2505-.1417-.4001-.0656l-.0004.0002c-.7419.3867-1.6159.6081-2.566.6081-.9406 0-1.8241-.2214-2.566-.6081z" fill="#88014f" stroke="url(#L)" stroke-width=".1"/><g filter="url(#h)"><path d="m22.9362 12.9339-.0023-.0019-.0035-.0029-.0084-.0068-.0224-.0178c-.0174-.0137-.0399-.0308-.0672-.0509-.0546-.0399-.129-.0917-.2223-.1501-.1861-.1166-.4503-.2618-.7846-.3939-.671-.2653-1.6292-.4791-2.7901-.2958-.5442.086-.9157.5968-.8298 1.141s.5967.9157 1.141.8298c.7435-.1174 1.3389.0197 1.7454.1804.2045.0808.3601.1674.459.2294.0492.0308.0836.0551.1023.0687.0077.0057.0127.0095.0147.0111.4232.345 1.0462.2857 1.3966-.1347.3527-.4233.2948-1.0529-.1284-1.4056z" fill="#352827"/><path d="m22.9362 12.9339-.0023-.0019-.0035-.0029-.0084-.0068-.0224-.0178c-.0174-.0137-.0399-.0308-.0672-.0509-.0546-.0399-.129-.0917-.2223-.1501-.1861-.1166-.4503-.2618-.7846-.3939-.671-.2653-1.6292-.4791-2.7901-.2958-.5442.086-.9157.5968-.8298 1.141s.5967.9157 1.141.8298c.7435-.1174 1.3389.0197 1.7454.1804.2045.0808.3601.1674.459.2294.0492.0308.0836.0551.1023.0687.0077.0057.0127.0095.0147.0111.4232.345 1.0462.2857 1.3966-.1347.3527-.4233.2948-1.0529-.1284-1.4056z" fill="url(#N)"/></g><g filter="url(#i)"><path d="m8.93002 12.9345.00144-.0012.00157-.0013.00348-.0029.00838-.0068.02241-.0178c.01744-.0137.03987-.0308.06719-.0509.0546-.0399.12902-.0917.22231-.1501.18612-.1166.45032-.2618.7845-.3939.6711-.2653 1.6293-.4791 2.7902-.2958.5442.086.9157.5968.8298 1.141s-.5968.9157-1.141.8298c-.7435-.1174-1.3389.0197-1.7454.1804-.2045.0808-.3601.1674-.459.2294-.0492.0308-.0837.0551-.1023.0687-.0077.0057-.0127.0095-.0148.0111-.42309.345-1.04614.2857-1.39651-.1347-.35271-.4233-.29553-1.0523.12773-1.405z" fill="#352827"/><path d="m8.93002 12.9345.00144-.0012.00157-.0013.00348-.0029.00838-.0068.02241-.0178c.01744-.0137.03987-.0308.06719-.0509.0546-.0399.12902-.0917.22231-.1501.18612-.1166.45032-.2618.7845-.3939.6711-.2653 1.6293-.4791 2.7902-.2958.5442.086.9157.5968.8298 1.141s-.5968.9157-1.141.8298c-.7435-.1174-1.3389.0197-1.7454.1804-.2045.0808-.3601.1674-.459.2294-.0492.0308-.0837.0551-.1023.0687-.0077.0057-.0127.0095-.0148.0111-.42309.345-1.04614.2857-1.39651-.1347-.35271-.4233-.29553-1.0523.12773-1.405z" fill="url(#O)"/></g><path d="m20.447 15.3438c1.2205 0 2.2515.8414 2.532 1.9786.0834.3259-.1668.6368-.5003.6368h-4.1695c-.2653 0-.4776-.2426-.4245-.508.235-1.1977 1.2887-2.1074 2.5623-2.1074z" fill="#fff"/><path d="m20.0601 15.8521c.9249 0 1.6678.7505 1.6678 1.6677 0 .1517-.0227.3033-.0606.4397h-3.2219c-.0379-.144-.0606-.288-.0606-.4397 0-.9172.7505-1.6677 1.6753-1.6677z" fill="url(#Q)"/><path d="m19.1051 17.5196c0-.5306.4245-.9551.9552-.9551s.9552.4245.9552.9551c0 .1592-.0379.3109-.1061.4397h-1.6906c-.0758-.1288-.1137-.2805-.1137-.4397z" fill="#000"/><g filter="url(#j)"><path d="m19.9376 16.2043c.1189.1589-.1295.3527-.4119.5638s-.4919.3597-.6107.2008.0138-.4589.2962-.6701c.2824-.2111.6076-.2534.7264-.0945z" fill="#c7a7a3"/><path d="m19.9376 16.2043c.1189.1589-.1295.3527-.4119.5638s-.4919.3597-.6107.2008.0138-.4589.2962-.6701c.2824-.2111.6076-.2534.7264-.0945z" fill="url(#S)"/></g><g filter="url(#k)"><path d="m21.5459 17.3002c-.0616-.4311-.3139-.7561-.4323-.8647l-.4857.5331.2192.4264z" fill="url(#U)"/></g><path d="m11.5106 15.3438c-1.2206 0-2.25165.8415-2.53216 1.9787-.08339.326.16679.6368.50037.6368h4.16969c.2654 0 .4776-.2426.4246-.508-.235-1.1978-1.2964-2.1075-2.5625-2.1075z" fill="#fff"/><path d="m11.8971 15.8516c-.9249 0-1.6679.7505-1.6679 1.6678 0 .1517.0228.3033.0607.4398h3.222c.038-.1441.0607-.2881.0607-.4398-.0076-.9173-.7506-1.6678-1.6755-1.6678z" fill="url(#V)"/><path d="m12.8526 17.5197c0-.5307-.4245-.9552-.9552-.9552s-.9553.4245-.9553.9552c0 .1592.0379.3108.1062.4397h1.6906c.0682-.1289.1137-.2805.1137-.4397z" fill="#000"/><g filter="url(#l)"><path d="m13.4208 17.3238c0-.539-.4383-.8983-.5567-1.0069l-.539.5212.3317.6752z" fill="url(#W)"/></g><g filter="url(#m)"><ellipse cx="11.394" cy="16.564" fill="#c7a7a3" fill-opacity=".9" rx=".728" ry=".368" transform="matrix(.88365127 -.46814574 .46814574 .88365127 -6.428841 7.261241)"/><ellipse cx="11.394" cy="16.564" fill="url(#X)" rx=".728" ry=".368" transform="matrix(.88365127 -.46814574 .46814574 .88365127 -6.428841 7.261241)"/></g><g filter="url(#n)"><path d="m19.0875 12.6637c.8039-.1407 2.3716-.1005 3.457.7437" stroke="url(#Z)" stroke-linecap="round" stroke-width=".25"/></g><g filter="url(#o)"><path d="m9.33118 13.6329c.61153-.5405 1.94692-1.1096 3.60232-.8457" stroke="url(#aa)" stroke-linecap="round" stroke-width=".25"/></g><path d="m4.77913 10.6408c.19354 2.8063 1.39737 3.8902 1.76123 4.1805 0-.5148-.07369-1.8155.47607-2.6361.8013-1.196 1.71095-1.2851 2.6012-1.2851h12.95957c2.4649 0 3.0812 1.7961 3.0812 2.6941l-.0929 1.1458c.2168 0 .8662-.2366 1.1148-.7277.6503-1.2851 1.0683-3.9638 1.1612-5.52757.0929-1.56382.031-2.76378-1.1922-4.45146-.9785-1.35015-2.7947-2.02057-4.4205-2.02057h-11.5508c-3.71138 0-4.67799 1.40656-5.42027 2.79975-.59382 1.11455-.67389 2.20136-.67387 2.84348 0 .75912.01266 2.12838.19527 2.98487z" fill="url(#ab)"/><path d="m4.77913 10.6408c.19354 2.8063 1.39737 3.8902 1.76123 4.1805 0-.5148-.07369-1.8155.47607-2.6361.8013-1.196 1.71095-1.2851 2.6012-1.2851h12.95957c2.4649 0 3.0812 1.7961 3.0812 2.6941l-.0929 1.1458c.2168 0 .8662-.2366 1.1148-.7277.6503-1.2851 1.0683-3.9638 1.1612-5.52757.0929-1.56382.031-2.76378-1.1922-4.45146-.9785-1.35015-2.7947-2.02057-4.4205-2.02057h-11.5508c-3.71138 0-4.67799 1.40656-5.42027 2.79975-.59382 1.11455-.67389 2.20136-.67387 2.84348 0 .75912.01266 2.12838.19527 2.98487z" fill="url(#ac)"/><path d="m4.77913 10.6408c.19354 2.8063 1.39737 3.8902 1.76123 4.1805 0-.5148-.07369-1.8155.47607-2.6361.8013-1.196 1.71095-1.2851 2.6012-1.2851h12.95957c2.4649 0 3.0812 1.7961 3.0812 2.6941l-.0929 1.1458c.2168 0 .8662-.2366 1.1148-.7277.6503-1.2851 1.0683-3.9638 1.1612-5.52757.0929-1.56382.031-2.76378-1.1922-4.45146-.9785-1.35015-2.7947-2.02057-4.4205-2.02057h-11.5508c-3.71138 0-4.67799 1.40656-5.42027 2.79975-.59382 1.11455-.67389 2.20136-.67387 2.84348 0 .75912.01266 2.12838.19527 2.98487z" fill="url(#ad)"/><g filter="url(#p)"><path d="m20.6445 2.0127.0553 2.42701c1.2232-.03097 3.5618.08283 5.5778 1.22705.8491.48189 1.2889.99274 1.5735 1.41379-.0726-.96914-.3663-1.89442-1.2018-3.04728-.9786-1.35015-2.7948-2.02057-4.4205-2.02057z" fill="url(#ae)"/><path d="m20.6445 2.0127.0553 2.42701c1.2232-.03097 3.5618.08283 5.5778 1.22705.8491.48189 1.2889.99274 1.5735 1.41379-.0726-.96914-.3663-1.89442-1.2018-3.04728-.9786-1.35015-2.7948-2.02057-4.4205-2.02057z" fill="url(#af)"/></g><g filter="url(#q)"><path d="m27.2178 12.4807c.0047-1.4826-1.0858-2.60709-1.9311-3.10547-1.3393-.78965-3.267-1.00384-4.1031-.99867h-1.4864l-4.9546.80513.2555 1.71861h7.579c2.465 0 3.1023 1.7923 3.0437 2.6941l-.0554 1.1458c.2168 0 .8663-.2366 1.1148-.7277.2027-.4006.3828-.9365.5376-1.5318z" fill="url(#ag)"/></g><path d="m27.2178 12.4807c.0047-1.4826-1.0858-2.60709-1.9311-3.10547-1.3393-.78965-3.267-1.00384-4.1031-.99867h-1.4864l-4.9546.80513.2555 1.71861h7.579c2.465 0 3.1023 1.7923 3.0437 2.6941l-.0554 1.1458c.2168 0 .8663-.2366 1.1148-.7277.2027-.4006.3828-.9365.5376-1.5318z" fill="url(#ah)"/><path d="m27.2178 12.4807c.0047-1.4826-1.0858-2.60709-1.9311-3.10547-1.3393-.78965-3.267-1.00384-4.1031-.99867h-1.4864l-4.9546.80513.2555 1.71861h7.579c2.465 0 3.1023 1.7923 3.0437 2.6941l-.0554 1.1458c.2168 0 .8663-.2366 1.1148-.7277.2027-.4006.3828-.9365.5376-1.5318z" fill="url(#ai)"/><path d="m27.2178 12.4807c.0047-1.4826-1.0858-2.60709-1.9311-3.10547-1.3393-.78965-3.267-1.00384-4.1031-.99867h-1.4864l-4.9546.80513.2555 1.71861h7.579c2.465 0 3.1023 1.7923 3.0437 2.6941l-.0554 1.1458c.2168 0 .8663-.2366 1.1148-.7277.2027-.4006.3828-.9365.5376-1.5318z" fill="url(#aj)"/><g filter="url(#r)"><path d="m21.173 2.0127c.3574 1.96137.1934 4.541-1.019 6.42558-.9221 1.43338-2.1814 2.46182-3.4727 2.46182h-7.06367c-.89025 0-1.79989.0891-2.6012 1.2851-.49785.7432-.48443 1.88-.47745 2.4703.00072.0616.00138.1172.00138.1658-.36386-.2903-1.56769-1.3742-1.76123-4.1805-.18261-.85649-.19527-2.22575-.19527-2.98487-.00002-.64212.08005-1.72893.67387-2.84348.74228-1.39319 1.70889-2.79975 5.42027-2.79975z" fill="url(#ak)"/></g><path d="m21.173 2.0127c.3574 1.96137.1934 4.541-1.019 6.42558-.9221 1.43338-2.1814 2.46182-3.4727 2.46182h-7.06367c-.89025 0-1.79989.0891-2.6012 1.2851-.49785.7432-.48443 1.88-.47745 2.4703.00072.0616.00138.1172.00138.1658-.36386-.2903-1.56769-1.3742-1.76123-4.1805-.18261-.85649-.19527-2.22575-.19527-2.98487-.00002-.64212.08005-1.72893.67387-2.84348.74228-1.39319 1.70889-2.79975 5.42027-2.79975z" fill="url(#al)"/><path d="m21.173 2.0127c.3574 1.96137.1934 4.541-1.019 6.42558-.9221 1.43338-2.1814 2.46182-3.4727 2.46182h-7.06367c-.89025 0-1.79989.0891-2.6012 1.2851-.49785.7432-.48443 1.88-.47745 2.4703.00072.0616.00138.1172.00138.1658-.36386-.2903-1.56769-1.3742-1.76123-4.1805-.18261-.85649-.19527-2.22575-.19527-2.98487-.00002-.64212.08005-1.72893.67387-2.84348.74228-1.39319 1.70889-2.79975 5.42027-2.79975z" fill="url(#am)"/><path d="m21.173 2.0127c.3574 1.96137.1934 4.541-1.019 6.42558-.9221 1.43338-2.1814 2.46182-3.4727 2.46182h-7.06367c-.89025 0-1.79989.0891-2.6012 1.2851-.49785.7432-.48443 1.88-.47745 2.4703.00072.0616.00138.1172.00138.1658-.36386-.2903-1.56769-1.3742-1.76123-4.1805-.18261-.85649-.19527-2.22575-.19527-2.98487-.00002-.64212.08005-1.72893.67387-2.84348.74228-1.39319 1.70889-2.79975 5.42027-2.79975z" fill="url(#an)"/><path d="m21.173 2.0127c.3574 1.96137.1934 4.541-1.019 6.42558-.9221 1.43338-2.1814 2.46182-3.4727 2.46182h-7.06367c-.89025 0-1.79989.0891-2.6012 1.2851-.49785.7432-.48443 1.88-.47745 2.4703.00072.0616.00138.1172.00138.1658-.36386-.2903-1.56769-1.3742-1.76123-4.1805-.18261-.85649-.19527-2.22575-.19527-2.98487-.00002-.64212.08005-1.72893.67387-2.84348.74228-1.39319 1.70889-2.79975 5.42027-2.79975z" fill="url(#ao)"/><path d="m21.173 2.0127c.3574 1.96137.1934 4.541-1.019 6.42558-.9221 1.43338-2.1814 2.46182-3.4727 2.46182h-7.06367c-.89025 0-1.79989.0891-2.6012 1.2851-.49785.7432-.48443 1.88-.47745 2.4703.00072.0616.00138.1172.00138.1658-.36386-.2903-1.56769-1.3742-1.76123-4.1805-.18261-.85649-.19527-2.22575-.19527-2.98487-.00002-.64212.08005-1.72893.67387-2.84348.74228-1.39319 1.70889-2.79975 5.42027-2.79975z" fill="url(#ap)"/><g filter="url(#s)"><path d="m4.76894 10.5916c.45716-.91184 1.61424-2.20576 5.67706-2.62556.4061-.04196 1.0036-.05987 1.6728-.07993 1.6655-.04991 3.7749-.11312 4.4818-.5936.933-.44497 1.9725-3.24527 1.5394-5.27981h-5.9694l-6.98916 2.9484c-.5245 1.06179-.5976 2.0813-.59758 2.69483 0 .74476.01218 2.07678.18508 2.93567z" fill="url(#aq)"/><path d="m4.76894 10.5916c.45716-.91184 1.61424-2.20576 5.67706-2.62556.4061-.04196 1.0036-.05987 1.6728-.07993 1.6655-.04991 3.7749-.11312 4.4818-.5936.933-.44497 1.9725-3.24527 1.5394-5.27981h-5.9694l-6.98916 2.9484c-.5245 1.06179-.5976 2.0813-.59758 2.69483 0 .74476.01218 2.07678.18508 2.93567z" fill="url(#ar)"/><path d="m4.76894 10.5916c.45716-.91184 1.61424-2.20576 5.67706-2.62556.4061-.04196 1.0036-.05987 1.6728-.07993 1.6655-.04991 3.7749-.11312 4.4818-.5936.933-.44497 1.9725-3.24527 1.5394-5.27981h-5.9694l-6.98916 2.9484c-.5245 1.06179-.5976 2.0813-.59758 2.69483 0 .74476.01218 2.07678.18508 2.93567z" fill="url(#as)"/><path d="m4.76894 10.5916c.45716-.91184 1.61424-2.20576 5.67706-2.62556.4061-.04196 1.0036-.05987 1.6728-.07993 1.6655-.04991 3.7749-.11312 4.4818-.5936.933-.44497 1.9725-3.24527 1.5394-5.27981h-5.9694l-6.98916 2.9484c-.5245 1.06179-.5976 2.0813-.59758 2.69483 0 .74476.01218 2.07678.18508 2.93567z" fill="url(#at)"/><path d="m4.76894 10.5916c.45716-.91184 1.61424-2.20576 5.67706-2.62556.4061-.04196 1.0036-.05987 1.6728-.07993 1.6655-.04991 3.7749-.11312 4.4818-.5936.933-.44497 1.9725-3.24527 1.5394-5.27981h-5.9694l-6.98916 2.9484c-.5245 1.06179-.5976 2.0813-.59758 2.69483 0 .74476.01218 2.07678.18508 2.93567z" fill="url(#au)"/></g><g filter="url(#t)"><path d="m4.58393 7.74875c.5576-.6695 1.56387-1.61267 2.89701-1.97361 1.87925-.50879 4.83596-.73287 6.06946-.82061.449.0258 1.5561-.44128 1.5561-1.61027 0-.433-.0164-.88892-.0534-1.33156h-4.3751c-3.71138 0-4.67799 1.40656-5.42027 2.79975-.59382 1.11455-.67389 2.20136-.67387 2.84348 0 .03001.00002.06097.00007.09282z" fill="url(#av)"/></g><path d="m4.58393 7.74875c.5576-.6695 1.56387-1.61267 2.89701-1.97361 1.87925-.50879 4.83596-.73287 6.06946-.82061.449.0258 1.5561-.44128 1.5561-1.61027 0-.433-.0164-.88892-.0534-1.33156h-4.3751c-3.71138 0-4.67799 1.40656-5.42027 2.79975-.59382 1.11455-.67389 2.20136-.67387 2.84348 0 .03001.00002.06097.00007.09282z" fill="url(#aw)"/><path d="m4.58393 7.74875c.5576-.6695 1.56387-1.61267 2.89701-1.97361 1.87925-.50879 4.83596-.73287 6.06946-.82061.449.0258 1.5561-.44128 1.5561-1.61027 0-.433-.0164-.88892-.0534-1.33156h-4.3751c-3.71138 0-4.67799 1.40656-5.42027 2.79975-.59382 1.11455-.67389 2.20136-.67387 2.84348 0 .03001.00002.06097.00007.09282z" fill="url(#ax)"/></svg>