<svg fill="none" height="32" viewBox="0 0 32 32" width="32" xmlns="http://www.w3.org/2000/svg" xmlns:xlink="http://www.w3.org/1999/xlink"><filter id="a" color-interpolation-filters="sRGB" filterUnits="userSpaceOnUse" height="16.28" width="5.75" x="22.813" y="2.579"><feFlood flood-opacity="0" result="BackgroundImageFix"/><feBlend in="SourceGraphic" in2="BackgroundImageFix" mode="normal" result="shape"/><feGaussianBlur result="effect1_foregroundBlur_6820_5250" stdDeviation=".75"/></filter><filter id="b" color-interpolation-filters="sRGB" filterUnits="userSpaceOnUse" height="13.075" width="13.377" x="3.312" y="4.925"><feFlood flood-opacity="0" result="BackgroundImageFix"/><feBlend in="SourceGraphic" in2="BackgroundImageFix" mode="normal" result="shape"/><feGaussianBlur result="effect1_foregroundBlur_6820_5250" stdDeviation="1"/></filter><filter id="c" color-interpolation-filters="sRGB" filterUnits="userSpaceOnUse" height="11.243" width="11.451" x="16.06" y="3.626"><feFlood flood-opacity="0" result="BackgroundImageFix"/><feBlend in="SourceGraphic" in2="BackgroundImageFix" mode="normal" result="shape"/><feGaussianBlur result="effect1_foregroundBlur_6820_5250" stdDeviation="1.25"/></filter><filter id="d" color-interpolation-filters="sRGB" filterUnits="userSpaceOnUse" height="13.45" width="13.764" x="13.736" y="4.925"><feFlood flood-opacity="0" result="BackgroundImageFix"/><feBlend in="SourceGraphic" in2="BackgroundImageFix" mode="normal" result="shape"/><feGaussianBlur result="effect1_foregroundBlur_6820_5250" stdDeviation="1"/></filter><filter id="e" color-interpolation-filters="sRGB" filterUnits="userSpaceOnUse" height="3.077" width="5.781" x="25.344" y="15.649"><feFlood flood-opacity="0" result="BackgroundImageFix"/><feBlend in="SourceGraphic" in2="BackgroundImageFix" mode="normal" result="shape"/><feGaussianBlur result="effect1_foregroundBlur_6820_5250" stdDeviation=".5"/></filter><filter id="f" color-interpolation-filters="sRGB" filterUnits="userSpaceOnUse" height="5.5" width="8.25" x="7.563" y="18.156"><feFlood flood-opacity="0" result="BackgroundImageFix"/><feBlend in="SourceGraphic" in2="BackgroundImageFix" mode="normal" result="shape"/><feGaussianBlur result="effect1_foregroundBlur_6820_5250" stdDeviation=".5"/></filter><filter id="g" color-interpolation-filters="sRGB" filterUnits="userSpaceOnUse" height="1.939" width="2.181" x="22.956" y="21.886"><feFlood flood-opacity="0" result="BackgroundImageFix"/><feBlend in="SourceGraphic" in2="BackgroundImageFix" mode="normal" result="shape"/><feGaussianBlur result="effect1_foregroundBlur_6820_5250" stdDeviation=".35"/></filter><linearGradient id="h" gradientUnits="userSpaceOnUse" x1="16" x2="16" y1=".638" y2="32.784"><stop offset="0" stop-color="#ed1c26"/><stop offset=".456" stop-color="#ed1452"/><stop offset="1" stop-color="#ec098c"/></linearGradient><radialGradient id="i" cx="0" cy="0" gradientTransform="matrix(0 17.8868 -20.3135 0 16.001 13.2196)" gradientUnits="userSpaceOnUse" r="1"><stop offset=".664" stop-color="#ff63c4" stop-opacity="0"/><stop offset="1" stop-color="#ff63c4"/></radialGradient><linearGradient id="j" gradientUnits="userSpaceOnUse" x1="22.063" x2="22.063" y1="-.344" y2="11.656"><stop offset="0" stop-color="#ff9fcb"/><stop offset=".41" stop-color="#ff9fcb" stop-opacity="0"/></linearGradient><linearGradient id="k" gradientUnits="userSpaceOnUse" x1="-2.563" x2="7.875" y1="17.406" y2="17.406"><stop offset="0" stop-color="#ffa32c"/><stop offset="1" stop-color="#ffa32c" stop-opacity="0"/></linearGradient><linearGradient id="l" gradientUnits="userSpaceOnUse" x1="26.382" x2="26.382" y1="2.626" y2="15.921"><stop offset="0" stop-color="#ff8bc0" stop-opacity=".8"/><stop offset="1" stop-color="#ff9fcb" stop-opacity="0"/></linearGradient><radialGradient id="m" cx="0" cy="0" gradientTransform="matrix(0 -5.0625 6.375 0 16 28.4688)" gradientUnits="userSpaceOnUse" r="1"><stop offset=".552" stop-color="#ffaa40"/><stop offset=".852" stop-color="#fff46c"/><stop offset="1" stop-color="#ffb355"/></radialGradient><linearGradient id="n" gradientUnits="userSpaceOnUse" x1="10.031" x2="16" y1="29.375" y2="23.406"><stop offset=".328" stop-color="#ff9b1f"/><stop offset="1" stop-color="#ffb355" stop-opacity="0"/></linearGradient><linearGradient id="o" gradientUnits="userSpaceOnUse" x1="15.994" x2="15.994" y1="17.649" y2="23.799"><stop offset="0" stop-color="#52374d"/><stop offset="1" stop-color="#4b2548"/></linearGradient><linearGradient id="p" gradientUnits="userSpaceOnUse" x1="17" x2="17" y1="24.625" y2="20.906"><stop offset="0" stop-color="#66297f"/><stop offset=".469" stop-color="#66297f" stop-opacity="0"/></linearGradient><linearGradient id="q"><stop offset="0" stop-color="#4b2548" stop-opacity="0"/><stop offset=".667" stop-color="#3c2139"/></linearGradient><linearGradient id="r" gradientUnits="userSpaceOnUse" x1="18.594" x2="16.063" xlink:href="#q" y1="21.75" y2="23.799"/><linearGradient id="s" gradientUnits="userSpaceOnUse" x1="13.393" x2="15.925" xlink:href="#q" y1="21.75" y2="23.799"/><linearGradient id="t" gradientUnits="userSpaceOnUse" x1="23.911" x2="23.911" y1="14.738" y2="20.022"><stop offset="0" stop-color="#c10a47"/><stop offset=".533" stop-color="#ed1b2a"/><stop offset=".796" stop-color="#ec1160"/><stop offset="1" stop-color="#ec098c"/></linearGradient><linearGradient id="u" gradientUnits="userSpaceOnUse" x1="19.986" x2="15.487" y1="19.229" y2="17.59"><stop offset="0" stop-color="#b3193a" stop-opacity="0"/><stop offset=".872" stop-color="#a9203d"/></linearGradient><radialGradient id="v" cx="0" cy="0" gradientTransform="matrix(-9.81252693 -12.81245652 9.03357457 -6.9184386 12.25 3.28125)" gradientUnits="userSpaceOnUse" r="1"><stop offset=".07" stop-color="#2e1529"/><stop offset=".297" stop-color="#5f4357"/><stop offset=".381" stop-color="#4b2744"/></radialGradient><radialGradient id="w" cx="0" cy="0" gradientTransform="matrix(10.62498969 -9.81249563 6.91845769 7.49131968 20.125 4.15625)" gradientUnits="userSpaceOnUse" r="1"><stop offset=".07" stop-color="#2e1529"/><stop offset=".297" stop-color="#5f4357"/><stop offset=".365" stop-color="#4b2744"/></radialGradient><linearGradient id="x" gradientUnits="userSpaceOnUse" x1="31.531" x2="26.344" y1="17.813" y2="17.726"><stop offset="0" stop-color="#fff" stop-opacity=".7"/><stop offset="1" stop-color="#fff" stop-opacity="0"/></linearGradient><path d="m16 30.9141c-6.63 0-12-5.37-12-12v-14.11535c0-1.15.93-2.08 2.08-2.08h19.84c1.15 0 2.08.93 2.08 2.08v14.11535c0 6.63-5.37 12-12 12z" fill="url(#h)"/><path d="m16 30.9141c-6.63 0-12-5.37-12-12v-14.11535c0-1.15.93-2.08 2.08-2.08h19.84c1.15 0 2.08.93 2.08 2.08v14.11535c0 6.63-5.37 12-12 12z" fill="url(#i)"/><path d="m16 30.9141c-6.63 0-12-5.37-12-12v-14.11535c0-1.15.93-2.08 2.08-2.08h19.84c1.15 0 2.08.93 2.08 2.08v14.11535c0 6.63-5.37 12-12 12z" fill="url(#j)"/><path d="m16 30.9141c-6.63 0-12-5.37-12-12v-14.11535c0-1.15.93-2.08 2.08-2.08h19.84c1.15 0 2.08.93 2.08 2.08v14.11535c0 6.63-5.37 12-12 12z" fill="url(#k)"/><g filter="url(#a)"><path d="m24.3125 5.45374c0-.7594.6156-1.375 1.375-1.375.7594 0 1.375.6156 1.375 1.375v11.90496h-2.75z" fill="url(#l)"/></g><path d="m12.45 26.2988c1.9-2.02 5.08-2.12 7.1-.22" stroke="url(#m)" stroke-linecap="round" stroke-linejoin="round" stroke-miterlimit="10" stroke-width="2"/><path d="m12.45 26.2988c1.9-2.02 5.08-2.12 7.1-.22" stroke="url(#n)" stroke-linecap="round" stroke-linejoin="round" stroke-miterlimit="10" stroke-width="2"/><g filter="url(#b)"><path d="m9.99998 16c2.58932 0 4.68842-2.0315 4.68842-4.5375s-2.0991-4.53751-4.68842-4.53751c-2.58933 0-4.6884 2.03151-4.6884 4.53751s2.09907 4.5375 4.6884 4.5375z" fill="#9e1043"/></g><g filter="url(#c)"><path d="m21.7853 12.3687c1.7813 0 3.2253-1.3975 3.2253-3.12147 0-1.72395-1.444-3.1215-3.2253-3.1215s-3.2253 1.39755-3.2253 3.1215c0 1.72397 1.444 3.12147 3.2253 3.12147z" fill="#9e1043"/></g><path d="m10.48 15.5387c2.4742 0 4.48-2.0057 4.48-4.48 0-1.90569-1.1264-3.34878-2.8038-3.99621-.5003-.19314-1.1077-.48375-1.6762-.48375-2.47424 0-4.48 2.00576-4.48 4.47996 0 2.4743 2.00576 4.48 4.48 4.48z" fill="#fff"/><path d="m12 14.5287c1.1046 0 2-.8954 2-2 0-1.1045-.8954-2-2-2s-2 .8955-2 2c0 1.1046.8954 2 2 2z" fill="#3e2730"/><g filter="url(#d)"><path d="m20.6183 16.375c2.6964 0 4.8822-2.1155 4.8822-4.725 0-2.60956-2.1858-4.72501-4.8822-4.72501-2.6963 0-4.8821 2.11545-4.8821 4.72501 0 2.6095 2.1858 4.725 4.8821 4.725z" fill="#9e1043"/></g><path d="m21.48 15.5287c2.4742 0 4.48-2.0057 4.48-4.48 0-2.47421-2.0058-4.47997-4.48-4.47997-.5423 0-1.3739.39533-1.855.57187-1.7139.62889-2.625 1.97622-2.625 3.9081 0 2.4743 2.0058 4.48 4.48 4.48z" fill="#fff"/><path d="m20 14.5287c1.1046 0 2-.8954 2-2 0-1.1045-.8954-2-2-2s-2 .8955-2 2c0 1.1046.8954 2 2 2z" fill="#3e2730"/><path d="m18.8 23.7987h5.49c.75 0 1.01-1 .35-1.35l-8.5132-4.6541c-.0231-.0447-.0736-.0726-.1244-.068l-.1424-.0779v.1447l-8.52002 4.6553c-.65.36-.39 1.35.35 1.35h5.39002c1.1276 0 2.1128-.6099 2.6436-1.5179.0986-.1686.4108-.1643.5057.0064.501.9006 1.4618 1.5115 2.5707 1.5115z" fill="url(#o)"/><path d="m18.8 23.7987h5.49c.75 0 1.01-1 .35-1.35l-8.5132-4.6541c-.0231-.0447-.0736-.0726-.1244-.068l-.1424-.0779v.1447l-8.52002 4.6553c-.65.36-.39 1.35.35 1.35h5.39002c1.1276 0 2.1128-.6099 2.6436-1.5179.0986-.1686.4108-.1643.5057.0064.501.9006 1.4618 1.5115 2.5707 1.5115z" fill="url(#p)"/><path d="m24.29 23.7987h-5.49c-.9567 0-1.7628-.428-2.2963-1.1002-.2101-.2646-.2849-.6056-.2849-.9434v-3.5832h.5981l7.8231 4.2768c.66.35.4 1.35-.35 1.35z" fill="url(#r)"/><path d="m7.69718 23.7987h5.49002c.9567 0 1.7628-.428 2.2963-1.1002.2101-.2646.2849-.6056.2849-.9434v-3.5832h-.5981l-7.82312 4.2768c-.66.35-.4 1.35.35 1.35z" fill="url(#s)"/><path d="m29.4011 20.8438h-11.6511c-1.3751 0-2.4912-1.0522-2.4912-2.3486 0-1.2963 1.1161-2.3485 2.4912-2.3485h11.6511c1.3751 0 2.4911 1.0522 2.4911 2.3485 0 1.2964-1.116 2.3486-2.4911 2.3486z" fill="url(#t)"/><path d="m29.4011 20.8438h-11.6511c-1.3751 0-2.4912-1.0522-2.4912-2.3486 0-1.2963 1.1161-2.3485 2.4912-2.3485h11.6511c1.3751 0 2.4911 1.0522 2.4911 2.3485 0 1.2964-1.116 2.3486-2.4911 2.3486z" fill="url(#u)"/><path d="m13.44 8.15875c-3.01 0-5.44-2.44-5.44-5.44" stroke="url(#v)" stroke-linecap="round" stroke-miterlimit="10" stroke-width="2"/><path d="m18.56 8.15875c3.01 0 5.44-2.44 5.44-5.44" stroke="url(#w)" stroke-linecap="round" stroke-miterlimit="10" stroke-width="2"/><g filter="url(#e)"><ellipse cx="28.234" cy="17.188" fill="url(#x)" rx="1.891" ry=".539"/></g><g filter="url(#f)"><path d="m8.6875 22.5312 6-3.25" stroke="#653a60" stroke-linecap="round" stroke-width=".25"/></g><g filter="url(#g)"><path d="m23.7812 22.7109.5313.2891" stroke="#9c6696" stroke-linecap="round" stroke-opacity=".6" stroke-width=".25"/></g></svg>