<svg fill="none" height="32" viewBox="0 0 32 32" width="32" xmlns="http://www.w3.org/2000/svg" xmlns:xlink="http://www.w3.org/1999/xlink"><filter id="a" color-interpolation-filters="sRGB" filterUnits="userSpaceOnUse" height="2.215" width="8.369" x="15.115" y="9.718"><feFlood flood-opacity="0" result="BackgroundImageFix"/><feBlend in="SourceGraphic" in2="BackgroundImageFix" mode="normal" result="shape"/><feGaussianBlur result="effect1_foregroundBlur_4002_2962" stdDeviation=".375"/></filter><filter id="b" color-interpolation-filters="sRGB" filterUnits="userSpaceOnUse" height="3.611" width="3.812" x="9.06" y="12.084"><feFlood flood-opacity="0" result="BackgroundImageFix"/><feBlend in="SourceGraphic" in2="BackgroundImageFix" mode="normal" result="shape"/><feColorMatrix in="SourceAlpha" result="hardAlpha" type="matrix" values="0 0 0 0 0 0 0 0 0 0 0 0 0 0 0 0 0 0 127 0"/><feOffset dx=".2"/><feGaussianBlur stdDeviation=".15"/><feComposite in2="hardAlpha" k2="-1" k3="1" operator="arithmetic"/><feColorMatrix type="matrix" values="0 0 0 0 0.917647 0 0 0 0 0.694118 0 0 0 0 0.607843 0 0 0 1 0"/><feBlend in2="shape" mode="normal" result="effect1_innerShadow_4002_2962"/></filter><filter id="c" color-interpolation-filters="sRGB" filterUnits="userSpaceOnUse" height="3.152" width="3.152" x="9.29" y="12.313"><feFlood flood-opacity="0" result="BackgroundImageFix"/><feBlend in="SourceGraphic" in2="BackgroundImageFix" mode="normal" result="shape"/><feGaussianBlur result="effect1_foregroundBlur_4002_2962" stdDeviation=".25"/></filter><filter id="d" color-interpolation-filters="sRGB" filterUnits="userSpaceOnUse" height="3.861" width="3.862" x="19.35" y="11.834"><feFlood flood-opacity="0" result="BackgroundImageFix"/><feBlend in="SourceGraphic" in2="BackgroundImageFix" mode="normal" result="shape"/><feColorMatrix in="SourceAlpha" result="hardAlpha" type="matrix" values="0 0 0 0 0 0 0 0 0 0 0 0 0 0 0 0 0 0 127 0"/><feOffset dx=".25" dy="-.25"/><feGaussianBlur stdDeviation=".25"/><feComposite in2="hardAlpha" k2="-1" k3="1" operator="arithmetic"/><feColorMatrix type="matrix" values="0 0 0 0 0.843137 0 0 0 0 0.623529 0 0 0 0 0.580392 0 0 0 1 0"/><feBlend in2="shape" mode="normal" result="effect1_innerShadow_4002_2962"/></filter><filter id="e" color-interpolation-filters="sRGB" filterUnits="userSpaceOnUse" height="3.152" width="3.152" x="19.58" y="12.313"><feFlood flood-opacity="0" result="BackgroundImageFix"/><feBlend in="SourceGraphic" in2="BackgroundImageFix" mode="normal" result="shape"/><feGaussianBlur result="effect1_foregroundBlur_4002_2962" stdDeviation=".25"/></filter><filter id="f" color-interpolation-filters="sRGB" filterUnits="userSpaceOnUse" height="4.4" width="3.404" x="14.041" y="12.702"><feFlood flood-opacity="0" result="BackgroundImageFix"/><feBlend in="SourceGraphic" in2="BackgroundImageFix" mode="normal" result="shape"/><feGaussianBlur result="effect1_foregroundBlur_4002_2962" stdDeviation=".375"/></filter><filter id="g" color-interpolation-filters="sRGB" filterUnits="userSpaceOnUse" height="3.4" width="2.53" x="14.736" y="13.025"><feFlood flood-opacity="0" result="BackgroundImageFix"/><feBlend in="SourceGraphic" in2="BackgroundImageFix" mode="normal" result="shape"/><feGaussianBlur result="effect1_foregroundBlur_4002_2962" stdDeviation=".125"/></filter><filter id="h" color-interpolation-filters="sRGB" filterUnits="userSpaceOnUse" height="3.4" width="2.53" x="14.736" y="12.849"><feFlood flood-opacity="0" result="BackgroundImageFix"/><feBlend in="SourceGraphic" in2="BackgroundImageFix" mode="normal" result="shape"/><feGaussianBlur result="effect1_foregroundBlur_4002_2962" stdDeviation=".125"/></filter><filter id="i" color-interpolation-filters="sRGB" filterUnits="userSpaceOnUse" height="1.56" width="3.88" x="14.061" y="16.7"><feFlood flood-opacity="0" result="BackgroundImageFix"/><feBlend in="SourceGraphic" in2="BackgroundImageFix" mode="normal" result="shape"/><feGaussianBlur result="effect1_foregroundBlur_4002_2962" stdDeviation=".05"/></filter><filter id="j" color-interpolation-filters="sRGB" filterUnits="userSpaceOnUse" height=".737" width=".835" x="17.573" y="12.684"><feFlood flood-opacity="0" result="BackgroundImageFix"/><feBlend in="SourceGraphic" in2="BackgroundImageFix" mode="normal" result="shape"/><feGaussianBlur result="effect1_foregroundBlur_4002_2962" stdDeviation=".05"/></filter><filter id="k" color-interpolation-filters="sRGB" filterUnits="userSpaceOnUse" height=".955" width=".931" x="18.489" y="12.774"><feFlood flood-opacity="0" result="BackgroundImageFix"/><feBlend in="SourceGraphic" in2="BackgroundImageFix" mode="normal" result="shape"/><feGaussianBlur result="effect1_foregroundBlur_4002_2962" stdDeviation=".1"/></filter><filter id="l" color-interpolation-filters="sRGB" filterUnits="userSpaceOnUse" height="1.092" width="1.034" x="13.685" y="12.705"><feFlood flood-opacity="0" result="BackgroundImageFix"/><feBlend in="SourceGraphic" in2="BackgroundImageFix" mode="normal" result="shape"/><feGaussianBlur result="effect1_foregroundBlur_4002_2962" stdDeviation=".1"/></filter><filter id="m" color-interpolation-filters="sRGB" filterUnits="userSpaceOnUse" height=".746" width=".971" x="12.86" y="12.675"><feFlood flood-opacity="0" result="BackgroundImageFix"/><feBlend in="SourceGraphic" in2="BackgroundImageFix" mode="normal" result="shape"/><feGaussianBlur result="effect1_foregroundBlur_4002_2962" stdDeviation=".05"/></filter><filter id="n" color-interpolation-filters="sRGB" filterUnits="userSpaceOnUse" height="8.428" width="5.791" x="13.126" y="2.101"><feFlood flood-opacity="0" result="BackgroundImageFix"/><feBlend in="SourceGraphic" in2="BackgroundImageFix" mode="normal" result="shape"/><feColorMatrix in="SourceAlpha" result="hardAlpha" type="matrix" values="0 0 0 0 0 0 0 0 0 0 0 0 0 0 0 0 0 0 127 0"/><feOffset dx=".2"/><feGaussianBlur stdDeviation=".3"/><feComposite in2="hardAlpha" k2="-1" k3="1" operator="arithmetic"/><feColorMatrix type="matrix" values="0 0 0 0 0.768627 0 0 0 0 0.658824 0 0 0 0 0.321569 0 0 0 1 0"/><feBlend in2="shape" mode="normal" result="effect1_innerShadow_4002_2962"/><feColorMatrix in="SourceAlpha" result="hardAlpha" type="matrix" values="0 0 0 0 0 0 0 0 0 0 0 0 0 0 0 0 0 0 127 0"/><feOffset dx="-.2"/><feGaussianBlur stdDeviation=".3"/><feComposite in2="hardAlpha" k2="-1" k3="1" operator="arithmetic"/><feColorMatrix type="matrix" values="0 0 0 0 1 0 0 0 0 0.92549 0 0 0 0 0.372549 0 0 0 1 0"/><feBlend in2="effect1_innerShadow_4002_2962" mode="normal" result="effect2_innerShadow_4002_2962"/></filter><filter id="o" color-interpolation-filters="sRGB" filterUnits="userSpaceOnUse" height="2.528" width="7.654" x="15.713" y="9.622"><feFlood flood-opacity="0" result="BackgroundImageFix"/><feBlend in="SourceGraphic" in2="BackgroundImageFix" mode="normal" result="shape"/><feGaussianBlur result="effect1_foregroundBlur_4002_2962" stdDeviation=".5"/></filter><radialGradient id="p" cx="0" cy="0" gradientTransform="matrix(0 10.25 -8.82215 0 16.011 16.6101)" gradientUnits="userSpaceOnUse" r="1"><stop offset="0" stop-color="#3086e2"/><stop offset="1" stop-color="#41baff"/></radialGradient><radialGradient id="q" cx="0" cy="0" gradientTransform="matrix(-.904907 0 0 -8.83091 18.6773 26.1414)" gradientUnits="userSpaceOnUse" r="1"><stop offset="0" stop-color="#3fb7ff"/><stop offset="1" stop-color="#3fb7ff" stop-opacity="0"/></radialGradient><radialGradient id="r" cx="0" cy="0" gradientTransform="matrix(0 5.91396 -1.61702 0 13.721 24.5334)" gradientUnits="userSpaceOnUse" r="1"><stop offset="0" stop-color="#ff7446"/><stop offset="1" stop-color="#ff6f4e"/></radialGradient><radialGradient id="s" cx="0" cy="0" gradientTransform="matrix(0 4.55816 -.70149 0 13.721 26.2008)" gradientUnits="userSpaceOnUse" r="1"><stop offset=".35" stop-color="#ff7e58"/><stop offset="1" stop-color="#ff7e58" stop-opacity="0"/></radialGradient><radialGradient id="t" cx="0" cy="0" gradientTransform="matrix(-1.51940128 3.01928636 -4.9324908 -2.48218683 14.2082 20.0064)" gradientUnits="userSpaceOnUse" r="1"><stop offset=".343" stop-color="#da4708"/><stop offset="1" stop-color="#dc5314" stop-opacity="0"/></radialGradient><radialGradient id="u" cx="0" cy="0" gradientTransform="matrix(0 9.4375 -2.83386 0 20.0424 20.2354)" gradientUnits="userSpaceOnUse" r="1"><stop offset="0" stop-color="#ff7523"/><stop offset="1" stop-color="#fb684a"/></radialGradient><radialGradient id="v" cx="0" cy="0" gradientTransform="matrix(.881714 0 0 11.0473 18.279 27.3537)" gradientUnits="userSpaceOnUse" r="1"><stop offset=".214" stop-color="#f25937"/><stop offset="1" stop-color="#f25937" stop-opacity="0"/></radialGradient><linearGradient id="w" gradientUnits="userSpaceOnUse" x1="9.158" x2="9.158" y1="21.169" y2="29.899"><stop offset="0" stop-color="#e6743e"/><stop offset="1" stop-color="#f46d40"/></linearGradient><radialGradient id="x" cx="0" cy="0" gradientTransform="matrix(-3.52725561 -8.45621026 9.64626165 -4.02365001 12.4159 28.8545)" gradientUnits="userSpaceOnUse" r="1"><stop offset=".684" stop-color="#e07241" stop-opacity="0"/><stop offset=".951" stop-color="#cc6e42"/></radialGradient><radialGradient id="y" cx="0" cy="0" gradientTransform="matrix(.13057 0 0 9.00654 8.341 29.8995)" gradientUnits="userSpaceOnUse" r="1"><stop offset=".245" stop-color="#de521d"/><stop offset="1" stop-color="#de521d" stop-opacity="0"/></radialGradient><radialGradient id="z" cx="0" cy="0" gradientTransform="matrix(0 8.78322 -2.01004 0 23.659 22.5134)" gradientUnits="userSpaceOnUse" r="1"><stop offset=".309" stop-color="#ff905a"/><stop offset="1" stop-color="#ff7955"/></radialGradient><radialGradient id="A" cx="0" cy="0" gradientTransform="matrix(0 4.375 -.278564 0 23.659 27.9075)" gradientUnits="userSpaceOnUse" r="1"><stop offset=".325" stop-color="#fe713a"/><stop offset="1" stop-color="#fe713a" stop-opacity="0"/></radialGradient><radialGradient id="B" cx="0" cy="0" gradientTransform="matrix(-3.62217463 -11.08795491 17.74570881 -5.79710658 14.5884 30.793)" gradientUnits="userSpaceOnUse" r="1"><stop offset=".566" stop-color="#fdbf28" stop-opacity="0"/><stop offset=".971" stop-color="#cd963a"/></radialGradient><linearGradient id="C" gradientUnits="userSpaceOnUse" x1="21.034" x2="21.034" y1="19.705" y2="29.899"><stop offset="0" stop-color="#ffda42"/><stop offset="1" stop-color="#ffcf4c"/></linearGradient><radialGradient id="D" cx="0" cy="0" gradientTransform="matrix(1.79394549 -5.21875283 8.0603426 2.77074154 19.2398 25.3291)" gradientUnits="userSpaceOnUse" r="1"><stop offset=".834" stop-color="#ffce64" stop-opacity="0"/><stop offset=".998" stop-color="#ffce64"/></radialGradient><radialGradient id="E" cx="0" cy="0" gradientTransform="matrix(1.86999683 -7.3125029 2.94555184 .75325407 6.47101 28.8602)" gradientUnits="userSpaceOnUse" r="1"><stop offset="0" stop-color="#3baeff"/><stop offset="1" stop-color="#469bc8"/></radialGradient><radialGradient id="F" cx="0" cy="0" gradientTransform="matrix(-2.28125 0 0 -15.3733 9.0224 29.6727)" gradientUnits="userSpaceOnUse" r="1"><stop offset=".385" stop-color="#4188d0"/><stop offset="1" stop-color="#4188d0" stop-opacity="0"/></radialGradient><radialGradient id="G" cx="0" cy="0" gradientTransform="matrix(-1.4062481 -8.13267592 2.48003771 -.42883159 25.6773 29.8991)" gradientUnits="userSpaceOnUse" r="1"><stop offset="0" stop-color="#58d2ff"/><stop offset="1" stop-color="#54b9f0"/></radialGradient><radialGradient id="H" cx="0" cy="0" gradientTransform="matrix(0 -8.32422 .625138 0 23.659 29.8991)" gradientUnits="userSpaceOnUse" r="1"><stop offset=".154" stop-color="#199dea"/><stop offset="1" stop-color="#199dea" stop-opacity="0"/></radialGradient><radialGradient id="I" cx="0" cy="0" gradientTransform="matrix(0 2 -4.86609 0 16.0211 20.6572)" gradientUnits="userSpaceOnUse" r="1"><stop offset=".133" stop-color="#db898d"/><stop offset=".88" stop-color="#e19a9b"/></radialGradient><radialGradient id="J" cx="0" cy="0" gradientTransform="matrix(-1.74999551 2.45313151 -1.21685372 -.86806946 18.3961 20.8447)" gradientUnits="userSpaceOnUse" r="1"><stop offset=".239" stop-color="#f3a69a"/><stop offset="1" stop-color="#f3a69a" stop-opacity="0"/></radialGradient><radialGradient id="K" cx="0" cy="0" gradientTransform="matrix(0 2.64062 -2.47522 0 16.0211 20.2363)" gradientUnits="userSpaceOnUse" r="1"><stop offset=".798" stop-color="#d98e90" stop-opacity="0"/><stop offset=".945" stop-color="#d98e90"/></radialGradient><radialGradient id="L" cx="0" cy="0" gradientTransform="matrix(1.89812 0 0 3.32173 9.06024 13.8892)" gradientUnits="userSpaceOnUse" r="1"><stop offset=".351" stop-color="#cf9888"/><stop offset="1" stop-color="#be8c77"/></radialGradient><linearGradient id="M" gradientUnits="userSpaceOnUse" x1="10.866" x2="10.173" y1="14.191" y2="14.191"><stop offset="0" stop-color="#ba7c6b"/><stop offset="1" stop-color="#be8474"/></linearGradient><linearGradient id="N" gradientUnits="userSpaceOnUse" x1="22.331" x2="21.446" y1="12.709" y2="15.452"><stop offset="0" stop-color="#fbd3bd"/><stop offset="1" stop-color="#f0b8a4"/></linearGradient><radialGradient id="O" cx="0" cy="0" gradientTransform="matrix(.89419208 -.6511099 .74315519 1.0206011 21.5585 13.6028)" gradientUnits="userSpaceOnUse" r="1"><stop offset=".543" stop-color="#d9aa94"/><stop offset="1" stop-color="#d9aa94" stop-opacity="0"/></radialGradient><radialGradient id="P" cx="0" cy="0" gradientTransform="matrix(.88830383 -1.63384136 .95629766 .51992984 21.1112 14.7775)" gradientUnits="userSpaceOnUse" r="1"><stop offset=".755" stop-color="#d6a38d" stop-opacity="0"/><stop offset=".916" stop-color="#d6a38d"/></radialGradient><radialGradient id="Q" cx="0" cy="0" gradientTransform="matrix(.28045554 .2776085 -.35787603 .36154626 21.156 13.8892)" gradientUnits="userSpaceOnUse" r="1"><stop offset="0" stop-color="#d5a58e"/><stop offset="1" stop-color="#d5a58e" stop-opacity="0"/></radialGradient><radialGradient id="R" cx="0" cy="0" gradientTransform="matrix(.16293831 1.43904489 -.60098189 .0680472 10.379 12.1407)" gradientUnits="userSpaceOnUse" r="1"><stop offset=".515" stop-color="#130718"/><stop offset="1" stop-color="#474241"/></radialGradient><radialGradient id="S" cx="0" cy="0" gradientTransform="matrix(.68393935 .16057773 -.54393556 2.31675294 21.4799 12.5753)" gradientUnits="userSpaceOnUse" r="1"><stop offset="0" stop-color="#190a1c"/><stop offset=".933" stop-color="#4d4b4c"/></radialGradient><radialGradient id="T" cx="0" cy="0" gradientTransform="matrix(-5.40852766 .72655218 -.84324554 -6.27720473 19.8838 15.1397)" gradientUnits="userSpaceOnUse" r="1"><stop offset=".114" stop-color="#ffd8bb"/><stop offset="1" stop-color="#e0a99a"/></radialGradient><radialGradient id="U" cx="0" cy="0" gradientTransform="matrix(0 9.22548 -15.9803 0 16.0328 11.8071)" gradientUnits="userSpaceOnUse" r="1"><stop offset=".743" stop-color="#cc9193" stop-opacity="0"/><stop offset=".988" stop-color="#b77a90"/></radialGradient><linearGradient id="V" gradientUnits="userSpaceOnUse" x1="9.899" x2="13.531" y1="15.963" y2="16.086"><stop offset="0" stop-color="#a58787"/><stop offset="1" stop-color="#dead9d" stop-opacity="0"/></linearGradient><linearGradient id="W" gradientUnits="userSpaceOnUse" x1="10.165" x2="12.2" y1="17.227" y2="17.154"><stop offset="0" stop-color="#e8ad97"/><stop offset="1" stop-color="#e8ad97" stop-opacity="0"/></linearGradient><radialGradient id="X" cx="0" cy="0" gradientTransform="matrix(0 -1.41378 1.74004 0 18.5392 12.514)" gradientUnits="userSpaceOnUse" r="1"><stop offset="0" stop-color="#f5b7a7"/><stop offset="1" stop-color="#f5b7a7" stop-opacity="0"/></radialGradient><radialGradient id="Y" cx="0" cy="0" gradientTransform="matrix(0 -1.50441 1.87087 0 13.6091 12.4778)" gradientUnits="userSpaceOnUse" r="1"><stop offset="0" stop-color="#d0958d"/><stop offset="1" stop-color="#d0958d" stop-opacity="0"/></radialGradient><radialGradient id="Z" cx="0" cy="0" gradientTransform="matrix(0 2.23843 -6.697 0 16.0328 12.0721)" gradientUnits="userSpaceOnUse" r="1"><stop offset=".192" stop-color="#d28b83"/><stop offset="1" stop-color="#d28b83" stop-opacity="0"/></radialGradient><linearGradient id="aa" gradientUnits="userSpaceOnUse" x1="15.067" x2="16.082" y1="15.024" y2="15.024"><stop offset="0" stop-color="#dfa790"/><stop offset="1" stop-color="#dfa790" stop-opacity="0"/></linearGradient><linearGradient id="ab" gradientUnits="userSpaceOnUse" x1="17.274" x2="15.821" y1="15.22" y2="15.274"><stop offset="0" stop-color="#ffdfc4"/><stop offset="1" stop-color="#ffdfc4" stop-opacity="0"/></linearGradient><linearGradient id="ac" gradientUnits="userSpaceOnUse" x1="16.212" x2="16.212" y1="16.175" y2="15.556"><stop offset="0" stop-color="#dc9c96"/><stop offset="1" stop-color="#dc9c96" stop-opacity="0"/></linearGradient><radialGradient id="ad" cx="0" cy="0" gradientTransform="matrix(0 .212974 -.684235 0 16.3554 15.6272)" gradientUnits="userSpaceOnUse" r="1"><stop offset="0" stop-color="#ffd7c1"/><stop offset="1" stop-color="#ffd7c1" stop-opacity="0"/></radialGradient><linearGradient id="ae" gradientUnits="userSpaceOnUse" x1="16.001" x2="16.001" y1="13.099" y2="14.434"><stop offset="0" stop-color="#db9d8f"/><stop offset="1" stop-color="#db9d8f" stop-opacity="0"/></linearGradient><linearGradient id="af" gradientUnits="userSpaceOnUse" x1="14.88" x2="15.35" y1="17.922" y2="17.179"><stop offset="0" stop-color="#ebb3a7"/><stop offset=".663" stop-color="#ebb3a7" stop-opacity="0"/></linearGradient><linearGradient id="ag"><stop offset=".802" stop-color="#7d574a"/><stop offset="1" stop-color="#694b43"/><stop offset="1" stop-color="#804d49"/><stop offset="1" stop-color="#664944"/></linearGradient><radialGradient id="ah" cx="0" cy="0" gradientTransform="matrix(0 .877348 -1.39552 0 18.3583 13.1516)" gradientUnits="userSpaceOnUse" r="1" xlink:href="#ag"/><linearGradient id="ai"><stop offset=".766" stop-color="#ffe6e2" stop-opacity="0"/><stop offset=".966" stop-color="#ffe6e2"/></linearGradient><radialGradient id="aj" cx="0" cy="0" gradientTransform="matrix(-.25079203 -.32317935 .44494063 -.34528061 18.1115 13.2426)" gradientUnits="userSpaceOnUse" r="1" xlink:href="#ai"/><linearGradient id="ak"><stop offset="0" stop-color="#b4948d"/><stop offset="1" stop-color="#b4948d" stop-opacity="0"/></linearGradient><linearGradient id="al" gradientUnits="userSpaceOnUse" x1="19.2" x2="18.86" xlink:href="#ak" y1="13.21" y2="13.419"/><radialGradient id="am" cx="0" cy="0" gradientTransform="matrix(0 .877393 -1.39559 0 13.6391 13.1516)" gradientUnits="userSpaceOnUse" r="1" xlink:href="#ag"/><linearGradient id="an" gradientUnits="userSpaceOnUse" x1="14.444" x2="14.104" xlink:href="#ak" y1="13.21" y2="13.419"/><radialGradient id="ao" cx="0" cy="0" gradientTransform="matrix(-.00836539 -.53429452 .64224429 -.01005554 13.3293 13.3889)" gradientUnits="userSpaceOnUse" r="1" xlink:href="#ai"/><radialGradient id="ap" cx="0" cy="0" gradientTransform="matrix(0 4.5625 -2.88065 0 19.7945 6.82715)" gradientUnits="userSpaceOnUse" r="1"><stop offset="0" stop-color="#ffee61"/><stop offset="1" stop-color="#fd4"/></radialGradient><radialGradient id="aq" cx="0" cy="0" gradientTransform="matrix(0 -16 5.79775 0 12.0445 9.88965)" gradientUnits="userSpaceOnUse" r="1"><stop offset=".301" stop-color="#e9b840"/><stop offset="1" stop-color="#e9b840" stop-opacity="0"/></radialGradient><radialGradient id="ar" cx="0" cy="0" gradientTransform="matrix(1.28124913 -7.99999965 15.26891608 2.44541078 17.4507 10.3271)" gradientUnits="userSpaceOnUse" r="1"><stop offset=".814" stop-color="#eecd67" stop-opacity="0"/><stop offset=".946" stop-color="#eecd67"/></radialGradient><radialGradient id="as" cx="0" cy="0" gradientTransform="matrix(0 6.875 -.590373 0 13.3882 6.49902)" gradientUnits="userSpaceOnUse" r="1"><stop offset=".305" stop-color="#d7a439"/><stop offset="1" stop-color="#e1b037" stop-opacity="0"/></radialGradient><radialGradient id="at" cx="0" cy="0" gradientTransform="matrix(.37499908 4.21874619 -1.68529516 .14980378 13.5132 2.7334)" gradientUnits="userSpaceOnUse" r="1"><stop offset=".103" stop-color="#b59741"/><stop offset="1" stop-color="#cba731" stop-opacity="0"/></radialGradient><radialGradient id="au" cx="0" cy="0" gradientTransform="matrix(-5.2499499 -6.37504343 7.83630158 -6.45331928 16.9507 9.7334)" gradientUnits="userSpaceOnUse" r="1"><stop offset=".781" stop-color="#c3a852" stop-opacity="0"/><stop offset="1" stop-color="#c3a852"/></radialGradient><linearGradient id="av" gradientUnits="userSpaceOnUse" x1="9.982" x2="10.794" y1="9.265" y2="9.265"><stop offset="0" stop-color="#cdac54"/><stop offset="1" stop-color="#cdac54" stop-opacity="0"/></linearGradient><radialGradient id="aw" cx="0" cy="0" gradientTransform="matrix(0 -.59375 5.79687 0 11.1695 10.124)" gradientUnits="userSpaceOnUse" r="1"><stop offset=".263" stop-color="#c8a03f"/><stop offset="1" stop-color="#c8a03f" stop-opacity="0"/></radialGradient><linearGradient id="ax" gradientUnits="userSpaceOnUse" x1="16.021" x2="16.021" y1="2.101" y2="10.528"><stop offset="0" stop-color="#f9cd2e"/><stop offset="1" stop-color="#ffca3d"/></linearGradient><linearGradient id="ay" gradientUnits="userSpaceOnUse" x1="16.021" x2="16.021" y1="2.101" y2="4.702"><stop offset="0" stop-color="#e7c44c"/><stop offset="1" stop-color="#e7c44c" stop-opacity="0"/></linearGradient><radialGradient id="az" cx="0" cy="0" gradientTransform="matrix(0 -9.0625 1 0 13.6695 9.88965)" gradientUnits="userSpaceOnUse" r="1"><stop offset="0" stop-color="#e3b438"/><stop offset="1" stop-color="#e3b438" stop-opacity="0"/></radialGradient><radialGradient id="aA" cx="0" cy="0" gradientTransform="matrix(0 -8.78125 1.6875 0 18.5445 9.95215)" gradientUnits="userSpaceOnUse" r="1"><stop offset="0" stop-color="#ffe550"/><stop offset="1" stop-color="#ffe550" stop-opacity="0"/></radialGradient><linearGradient id="aB" gradientUnits="userSpaceOnUse" x1="21.997" x2="5.369" y1="11.273" y2="11.273"><stop offset="0" stop-color="#ffe24a"/><stop offset="1" stop-color="#f0bc33"/></linearGradient><linearGradient id="aC" gradientUnits="userSpaceOnUse" x1="15.798" x2="15.798" y1="9.872" y2="10.186"><stop offset=".027" stop-color="#ffd131"/><stop offset="1" stop-color="#ffd131" stop-opacity="0"/></linearGradient><linearGradient id="aD" gradientUnits="userSpaceOnUse" x1="16.716" x2="16.716" y1="12.178" y2="10.926"><stop offset="0" stop-color="#e1926f"/><stop offset="1" stop-color="#f9b14d" stop-opacity="0"/></linearGradient><radialGradient id="aE" cx="0" cy="0" gradientTransform="matrix(.5231362 2.06026065 -12.32013845 3.12829855 11.9084 8.96504)" gradientUnits="userSpaceOnUse" r="1"><stop offset=".173" stop-color="#c4a966"/><stop offset="1" stop-color="#dfb83e" stop-opacity="0"/></radialGradient><path d="m16.021 19.2891c-.78 0-1.55.08-2.3.23v10.38h4.58v-10.38c-.74-.15-1.5-.23-2.28-.23z" fill="url(#p)"/><path d="m16.021 19.2891c-.78 0-1.55.08-2.3.23v10.38h4.58v-10.38c-.74-.15-1.5-.23-2.28-.23z" fill="url(#q)"/><path d="m13.721 19.1675c-.6077.1344-1.1955.3101-1.7634.5376v10.1942h1.7634z" fill="url(#r)"/><path d="m13.721 19.1675c-.6077.1344-1.1955.3101-1.7634.5376v10.1942h1.7634z" fill="url(#s)"/><path d="m13.721 19.1675c-.6077.1344-1.1955.3101-1.7634.5376v10.1942h1.7634z" fill="url(#t)"/><path d="m18.279 19.1675c.6077.1344 1.1955.3101 1.7634.5376v10.1942h-1.7634z" fill="url(#u)"/><path d="m18.279 19.1675c.6077.1344 1.1955.3101 1.7634.5376v10.1942h-1.7634z" fill="url(#v)"/><path d="m8.38861 21.9873c-.03045.0282-.04761.0679-.04761.1094v7.8028h1.63391v-9.1602c-.55984.3706-1.09163.7897-1.5863 1.248z" fill="url(#w)"/><path d="m8.38861 21.9873c-.03045.0282-.04761.0679-.04761.1094v7.8028h1.63391v-9.1602c-.55984.3706-1.09163.7897-1.5863 1.248z" fill="url(#x)"/><path d="m8.38861 21.9873c-.03045.0282-.04761.0679-.04761.1094v7.8028h1.63391v-9.1602c-.55984.3706-1.09163.7897-1.5863 1.248z" fill="url(#y)"/><path d="m23.659 22.0316v7.8679h-1.6339v-9.1602c.5778.3825 1.1258.8167 1.6339 1.2923z" fill="url(#z)"/><path d="m23.659 22.0316v7.8679h-1.6339v-9.1602c.5778.3825 1.1258.8167 1.6339 1.2923z" fill="url(#A)"/><path d="m9.97496 20.739v9.1603h1.98264v-10.1942c-.6974.2791-1.355.6203-1.98264 1.0339z" fill="#ffca44"/><path d="m9.97496 20.739v9.1603h1.98264v-10.1942c-.6974.2791-1.355.6203-1.98264 1.0339z" fill="url(#B)"/><path d="m22.025 20.739v9.1603h-1.9826v-10.1942c.6974.2791 1.355.6203 1.9826 1.0339z" fill="url(#C)"/><path d="m22.025 20.739v9.1603h-1.9826v-10.1942c.6974.2791 1.355.6203 1.9826 1.0339z" fill="url(#D)"/><path d="m4.60098 29.8991c.13988-.9459.33971-1.8815.61946-2.7863.59947-1.9741 1.7118-3.6819 3.12056-5.0186v7.8049z" fill="url(#E)"/><path d="m4.60098 29.8991c.13988-.9459.33971-1.8815.61946-2.7863.59947-1.9741 1.7118-3.6819 3.12056-5.0186v7.8049z" fill="url(#F)"/><path d="m27.399 29.8991c-.1399-.9459-.3397-1.8815-.6194-2.7863-.5995-1.9741-1.7118-3.6819-3.1206-5.0186v7.8049z" fill="url(#G)"/><path d="m27.399 29.8991c-.1399-.9459-.3397-1.8815-.6194-2.7863-.5995-1.9741-1.7118-3.6819-3.1206-5.0186v7.8049z" fill="url(#H)"/><path d="m13.8101 20.376c.0596.7604.5853 2.2812 2.211 2.2812 1.6256 0 2.1513-1.5208 2.2109-2.2812z" fill="url(#I)"/><path d="m13.8101 20.376c.0596.7604.5853 2.2812 2.211 2.2812 1.6256 0 2.1513-1.5208 2.2109-2.2812z" fill="url(#J)"/><path d="m13.8101 20.376c.0596.7604.5853 2.2812 2.211 2.2812 1.6256 0 2.1513-1.5208 2.2109-2.2812z" fill="url(#K)"/><g filter="url(#a)"><ellipse cx="19.299" cy="10.826" fill="#fff060" rx="3.435" ry=".358"/></g><g filter="url(#b)"><circle cx="10.866" cy="13.889" fill="url(#L)" r="1.806"/></g><g filter="url(#c)"><circle cx="10.866" cy="13.889" fill="url(#M)" r="1.076"/></g><g filter="url(#d)"><circle cx="21.156" cy="13.889" fill="url(#N)" r="1.806"/><circle cx="21.156" cy="13.889" fill="url(#O)" r="1.806"/></g><g filter="url(#e)"><circle cx="21.156" cy="13.889" fill="#e4af9a" r="1.076"/><circle cx="21.156" cy="13.889" fill="url(#P)" r="1.076"/><circle cx="21.156" cy="13.889" fill="url(#Q)" r="1.076"/></g><path d="m10.5576 13.3805-.0777-1.3326-.84373-.1172c.02604.0846.11641.3679.26953.8242.1531.4562.5099.6152.6519.6256z" fill="url(#R)"/><path d="m21.4799 13.3564.043-1.3085.8437-.1172c-.026.0846-.1164.3679-.2695.8242-.1531.4562-.4753.5911-.6172.6015z" fill="url(#S)"/><path d="m10.4225 11.6708c0-.2885.1161-.6346.3482-.8077l.174-.173c.2901-.2308.4061-.5769.4061-.92305v-.923c0-.28844.1741-.51919.4642-.57688.6962-.17307 2.1467-.46151 4.2353-.46151 2.0887 0 3.5392.28844 4.2354.46151.232.05769.4641.28844.4641.57688v.923c0 .34615.1741.69225.4061.92305.5431.3805.5093.5898.4642 1.0383-.1949 1.9376-.2535 3.8954-.384 5.839-.1736 1.914-1.6784 3.2481-3.4725 3.2481h-3.4724c-1.852 0-3.2989-1.3341-3.4725-3.2481-.1508-1.9648-.2168-3.9353-.3962-5.8966z" fill="url(#T)"/><path d="m10.4225 11.6708c0-.2885.1161-.6346.3482-.8077l.174-.173c.2901-.2308.4061-.5769.4061-.92305v-.923c0-.28844.1741-.51919.4642-.57688.6962-.17307 2.1467-.46151 4.2353-.46151 2.0887 0 3.5392.28844 4.2354.46151.232.05769.4641.28844.4641.57688v.923c0 .34615.1741.69225.4061.92305.5431.3805.5093.5898.4642 1.0383-.1949 1.9376-.2535 3.8954-.384 5.839-.1736 1.914-1.6784 3.2481-3.4725 3.2481h-3.4724c-1.852 0-3.2989-1.3341-3.4725-3.2481-.1508-1.9648-.2168-3.9353-.3962-5.8966z" fill="url(#U)"/><path d="m10.4225 11.6708c0-.2885.1161-.6346.3482-.8077l.174-.173c.2901-.2308.4061-.5769.4061-.92305v-.923c0-.28844.1741-.51919.4642-.57688.6962-.17307 2.1467-.46151 4.2353-.46151 2.0887 0 3.5392.28844 4.2354.46151.232.05769.4641.28844.4641.57688v.923c0 .34615.1741.69225.4061.92305.5431.3805.5093.5898.4642 1.0383-.1949 1.9376-.2535 3.8954-.384 5.839-.1736 1.914-1.6784 3.2481-3.4725 3.2481h-3.4724c-1.852 0-3.2989-1.3341-3.4725-3.2481-.1508-1.9648-.2168-3.9353-.3962-5.8966z" fill="url(#V)"/><path d="m10.4225 11.6708c0-.2885.1161-.6346.3482-.8077l.174-.173c.2901-.2308.4061-.5769.4061-.92305v-.923c0-.28844.1741-.51919.4642-.57688.6962-.17307 2.1467-.46151 4.2353-.46151 2.0887 0 3.5392.28844 4.2354.46151.232.05769.4641.28844.4641.57688v.923c0 .34615.1741.69225.4061.92305.5431.3805.5093.5898.4642 1.0383-.1949 1.9376-.2535 3.8954-.384 5.839-.1736 1.914-1.6784 3.2481-3.4725 3.2481h-3.4724c-1.852 0-3.2989-1.3341-3.4725-3.2481-.1508-1.9648-.2168-3.9353-.3962-5.8966z" fill="url(#W)"/><path d="m10.4225 11.6708c0-.2885.1161-.6346.3482-.8077l.174-.173c.2901-.2308.4061-.5769.4061-.92305v-.923c0-.28844.1741-.51919.4642-.57688.6962-.17307 2.1467-.46151 4.2353-.46151 2.0887 0 3.5392.28844 4.2354.46151.232.05769.4641.28844.4641.57688v.923c0 .34615.1741.69225.4061.92305.5431.3805.5093.5898.4642 1.0383-.1949 1.9376-.2535 3.8954-.384 5.839-.1736 1.914-1.6784 3.2481-3.4725 3.2481h-3.4724c-1.852 0-3.2989-1.3341-3.4725-3.2481-.1508-1.9648-.2168-3.9353-.3962-5.8966z" fill="url(#X)"/><path d="m10.4225 11.6708c0-.2885.1161-.6346.3482-.8077l.174-.173c.2901-.2308.4061-.5769.4061-.92305v-.923c0-.28844.1741-.51919.4642-.57688.6962-.17307 2.1467-.46151 4.2353-.46151 2.0887 0 3.5392.28844 4.2354.46151.232.05769.4641.28844.4641.57688v.923c0 .34615.1741.69225.4061.92305.5431.3805.5093.5898.4642 1.0383-.1949 1.9376-.2535 3.8954-.384 5.839-.1736 1.914-1.6784 3.2481-3.4725 3.2481h-3.4724c-1.852 0-3.2989-1.3341-3.4725-3.2481-.1508-1.9648-.2168-3.9353-.3962-5.8966z" fill="url(#Y)"/><path d="m10.4225 11.6708c0-.2885.1161-.6346.3482-.8077l.174-.173c.2901-.2308.4061-.5769.4061-.92305v-.923c0-.28844.1741-.51919.4642-.57688.6962-.17307 2.1467-.46151 4.2353-.46151 2.0887 0 3.5392.28844 4.2354.46151.232.05769.4641.28844.4641.57688v.923c0 .34615.1741.69225.4061.92305.5431.3805.5093.5898.4642 1.0383-.1949 1.9376-.2535 3.8954-.384 5.839-.1736 1.914-1.6784 3.2481-3.4725 3.2481h-3.4724c-1.852 0-3.2989-1.3341-3.4725-3.2481-.1508-1.9648-.2168-3.9353-.3962-5.8966z" fill="url(#Z)"/><g filter="url(#f)"><path d="m15.7037 13.7571-.8873 1.8383c-.11.3782.154.7563.5279.7563h.7974c.374 0 .6379-.3839.528-.7563l-.539-1.8383c-.1155-.4072-.306-.4072-.427 0z" fill="#d89992"/></g><g filter="url(#g)"><path d="m15.5881 13.5808-.5747 1.8384c-.1173.3781.1642.7563.563.7563h.8503c.3988 0 .6803-.384.563-.7563l-.5747-1.8384c-.1232-.4072-.6979-.4072-.8269 0z" fill="#e0a89a"/><path d="m15.5881 13.5808-.5747 1.8384c-.1173.3781.1642.7563.563.7563h.8503c.3988 0 .6803-.384.563-.7563l-.5747-1.8384c-.1232-.4072-.6979-.4072-.8269 0z" fill="url(#aa)"/><path d="m15.5881 13.5808-.5747 1.8384c-.1173.3781.1642.7563.563.7563h.8503c.3988 0 .6803-.384.563-.7563l-.5747-1.8384c-.1232-.4072-.6979-.4072-.8269 0z" fill="url(#ab)"/><path d="m15.5881 13.5808-.5747 1.8384c-.1173.3781.1642.7563.563.7563h.8503c.3988 0 .6803-.384.563-.7563l-.5747-1.8384c-.1232-.4072-.6979-.4072-.8269 0z" fill="url(#ac)"/><path d="m15.5881 13.5808-.5747 1.8384c-.1173.3781.1642.7563.563.7563h.8503c.3988 0 .6803-.384.563-.7563l-.5747-1.8384c-.1232-.4072-.6979-.4072-.8269 0z" fill="url(#ad)"/></g><g filter="url(#h)"><path d="m15.588 13.4041-.5748 1.8383c-.1173.3782.1642.7563.563.7563h.8504c.3988 0 .6803-.384.563-.7563l-.5747-1.8383c-.1232-.4073-.6979-.4073-.8269 0z" fill="url(#ae)"/></g><g filter="url(#i)"><path d="m16.0015 17.2747c-.5488 0-1.0647-.1291-1.4982-.3551-.1482-.0754-.3074.0915-.2141.226.3622.5489.9933.9148 1.7123.9148.7189 0 1.35-.3659 1.7122-.9148.0933-.1399-.0659-.3014-.2141-.226-.4335.226-.9439.3551-1.4981.3551z" stroke="url(#af)" stroke-width=".2"/></g><path d="m16.0015 17.2747c-.5488 0-1.0647-.1291-1.4982-.3551-.1482-.0754-.3074.0915-.2141.226.3622.5489.9933.9148 1.7123.9148.7189 0 1.35-.3659 1.7122-.9148.0933-.1399-.0659-.3014-.2141-.226-.4335.226-.9439.3551-1.4981.3551z" fill="#88024e"/><path d="m18.5843 12.3418c.7063 0 1.3029.4869 1.4652 1.1449.0482.1887-.0965.3685-.2895.3685h-2.4127c-.1536 0-.2764-.1404-.2457-.2939.136-.6931.7457-1.2195 1.4827-1.2195z" fill="#fff"/><path d="m18.3605 12.6357c.5352 0 .9651.4343.9651.9651 0 .0878-.0132.1755-.0351.2545h-1.8644c-.0219-.0834-.035-.1667-.035-.2545 0-.5308.4342-.9651.9694-.9651z" fill="url(#ah)"/><path d="m17.8078 13.6011c0-.3071.2457-.5528.5527-.5528.3071 0 .5528.2457.5528.5528 0 .0921-.022.1798-.0615.2544h-.9782c-.0439-.0746-.0658-.1623-.0658-.2544z" fill="#000"/><g filter="url(#j)"><path d="m18.2894 12.8398c.0688.0919-.0749.2041-.2383.3262-.1634.1222-.2847.2082-.3534.1162-.0688-.0919.008-.2655.1714-.3877s.3516-.1467.4203-.0547z" fill="#c7a7a3"/><path d="m18.2894 12.8398c.0688.0919-.0749.2041-.2383.3262-.1634.1222-.2847.2082-.3534.1162-.0688-.0919.008-.2655.1714-.3877s.3516-.1467.4203-.0547z" fill="url(#aj)"/></g><g filter="url(#k)"><path d="m19.2201 13.474c-.0356-.2495-.1816-.4375-.2502-.5004l-.281.3085.1268.2467z" fill="url(#al)"/></g><path d="m13.413 12.3418c-.7063 0-1.3029.4869-1.4652 1.145-.0483.1886.0965.3685.2895.3685h2.4128c.1536 0 .2764-.1404.2457-.2939-.136-.6932-.7502-1.2196-1.4828-1.2196z" fill="#fff"/><path d="m13.6369 12.6357c-.5352 0-.9651.4344-.9651.9652 0 .0877.0132.1755.0351.2544h1.8645c.0219-.0833.0351-.1667.0351-.2544-.0044-.5308-.4343-.9652-.9696-.9652z" fill="url(#am)"/><path d="m14.1897 13.6011c0-.3071-.2457-.5528-.5528-.5528s-.5527.2457-.5527.5528c0 .0921.0219.1799.0614.2544h.9783c.0395-.0745.0658-.1623.0658-.2544z" fill="#000"/><g filter="url(#l)"><path d="m14.5188 13.4874c0-.3119-.2537-.5198-.3222-.5826l-.3119.3016.1919.3907z" fill="url(#an)"/></g><g filter="url(#m)"><ellipse cx="13.346" cy="13.048" fill="#c7a7a3" fill-opacity=".9" rx=".421" ry=".213" transform="matrix(.88365127 -.46814574 .46814574 .88365127 -4.555762 7.765839)"/><ellipse cx="13.346" cy="13.048" fill="url(#ao)" rx=".421" ry=".213" transform="matrix(.88365127 -.46814574 .46814574 .88365127 -4.555762 7.765839)"/></g><path d="m9.98199 7.2084c0-2.26437 1.83561-4.1 4.10001-4.1h3.9875c2.2644 0 4.1 1.83563 4.1 4.1v2.68125h-12.18751z" fill="url(#ap)"/><path d="m9.98199 7.2084c0-2.26437 1.83561-4.1 4.10001-4.1h3.9875c2.2644 0 4.1 1.83563 4.1 4.1v2.68125h-12.18751z" fill="url(#aq)"/><path d="m9.98199 7.2084c0-2.26437 1.83561-4.1 4.10001-4.1h3.9875c2.2644 0 4.1 1.83563 4.1 4.1v2.68125h-12.18751z" fill="url(#ar)"/><path d="m9.98199 7.2084c0-2.26437 1.83561-4.1 4.10001-4.1h3.9875c2.2644 0 4.1 1.83563 4.1 4.1v2.68125h-12.18751z" fill="url(#as)"/><path d="m9.98199 7.2084c0-2.26437 1.83561-4.1 4.10001-4.1h3.9875c2.2644 0 4.1 1.83563 4.1 4.1v2.68125h-12.18751z" fill="url(#at)"/><path d="m9.98199 7.2084c0-2.26437 1.83561-4.1 4.10001-4.1h3.9875c2.2644 0 4.1 1.83563 4.1 4.1v2.68125h-12.18751z" fill="url(#au)"/><path d="m9.98199 7.2084c0-2.26437 1.83561-4.1 4.10001-4.1h3.9875c2.2644 0 4.1 1.83563 4.1 4.1v2.68125h-12.18751z" fill="url(#av)"/><path d="m9.98199 7.2084c0-2.26437 1.83561-4.1 4.10001-4.1h3.9875c2.2644 0 4.1 1.83563 4.1 4.1v2.68125h-12.18751z" fill="url(#aw)"/><g filter="url(#n)"><path d="m14.8257 2.10059h2.3907c.8284 0 1.5.60254 1.5 1.6322v6.79571h-5.3907v-6.79571c0-1.02966.6716-1.6322 1.5-1.6322z" fill="url(#ax)"/><path d="m14.8257 2.10059h2.3907c.8284 0 1.5.60254 1.5 1.6322v6.79571h-5.3907v-6.79571c0-1.02966.6716-1.6322 1.5-1.6322z" fill="url(#ay)"/><path d="m14.8257 2.10059h2.3907c.8284 0 1.5.60254 1.5 1.6322v6.79571h-5.3907v-6.79571c0-1.02966.6716-1.6322 1.5-1.6322z" fill="url(#az)"/><path d="m14.8257 2.10059h2.3907c.8284 0 1.5.60254 1.5 1.6322v6.79571h-5.3907v-6.79571c0-1.02966.6716-1.6322 1.5-1.6322z" fill="url(#aA)"/></g><path d="m22.4768 9.87207h-12.59342c-.64171 0-1.15322.52083-1.15322 1.15323 0 .6417.52081 1.1532 1.15322 1.1532h12.59342c.6418 0 1.1533-.5208 1.1533-1.1532.0093-.6324-.5115-1.15323-1.1533-1.15323z" fill="url(#aB)"/><path d="m22.4768 9.87207h-12.59342c-.64171 0-1.15322.52083-1.15322 1.15323 0 .6417.52081 1.1532 1.15322 1.1532h12.59342c.6418 0 1.1533-.5208 1.1533-1.1532.0093-.6324-.5115-1.15323-1.1533-1.15323z" fill="url(#aC)"/><path d="m22.4768 9.87207h-12.59342c-.64171 0-1.15322.52083-1.15322 1.15323 0 .6417.52081 1.1532 1.15322 1.1532h12.59342c.6418 0 1.1533-.5208 1.1533-1.1532.0093-.6324-.5115-1.15323-1.1533-1.15323z" fill="url(#aD)"/><path d="m22.4768 9.87207h-12.59342c-.64171 0-1.15322.52083-1.15322 1.15323 0 .6417.52081 1.1532 1.15322 1.1532h12.59342c.6418 0 1.1533-.5208 1.1533-1.1532.0093-.6324-.5115-1.15323-1.1533-1.15323z" fill="url(#aE)"/><g filter="url(#o)"><ellipse cx="19.54" cy="10.886" fill="#fff060" rx="2.827" ry=".264"/></g></svg>