<svg fill="none" height="32" viewBox="0 0 32 32" width="32" xmlns="http://www.w3.org/2000/svg" xmlns:xlink="http://www.w3.org/1999/xlink"><filter id="a" color-interpolation-filters="sRGB" filterUnits="userSpaceOnUse" height="15.268" width="15.268" x="7.142" y="5.208"><feFlood flood-opacity="0" result="BackgroundImageFix"/><feBlend in="SourceGraphic" in2="BackgroundImageFix" mode="normal" result="shape"/><feColorMatrix in="SourceAlpha" result="hardAlpha" type="matrix" values="0 0 0 0 0 0 0 0 0 0 0 0 0 0 0 0 0 0 127 0"/><feOffset dx=".25" dy="-.25"/><feGaussianBlur stdDeviation=".375"/><feComposite in2="hardAlpha" k2="-1" k3="1" operator="arithmetic"/><feColorMatrix type="matrix" values="0 0 0 0 0.92549 0 0 0 0 0.537255 0 0 0 0 0.12549 0 0 0 1 0"/><feBlend in2="shape" mode="normal" result="effect1_innerShadow_4002_22"/></filter><filter id="b" color-interpolation-filters="sRGB" filterUnits="userSpaceOnUse" height="3.218" width="3.318" x="8.356" y="12.377"><feFlood flood-opacity="0" result="BackgroundImageFix"/><feBlend in="SourceGraphic" in2="BackgroundImageFix" mode="normal" result="shape"/><feColorMatrix in="SourceAlpha" result="hardAlpha" type="matrix" values="0 0 0 0 0 0 0 0 0 0 0 0 0 0 0 0 0 0 127 0"/><feOffset dx=".1"/><feGaussianBlur stdDeviation=".15"/><feComposite in2="hardAlpha" k2="-1" k3="1" operator="arithmetic"/><feColorMatrix type="matrix" values="0 0 0 0 0.768627 0 0 0 0 0.501961 0 0 0 0 0.160784 0 0 0 1 0"/><feBlend in2="shape" mode="normal" result="effect1_innerShadow_4002_22"/></filter><filter id="c" color-interpolation-filters="sRGB" filterUnits="userSpaceOnUse" height="3.468" width="3.218" x="17.869" y="12.127"><feFlood flood-opacity="0" result="BackgroundImageFix"/><feBlend in="SourceGraphic" in2="BackgroundImageFix" mode="normal" result="shape"/><feColorMatrix in="SourceAlpha" result="hardAlpha" type="matrix" values="0 0 0 0 0 0 0 0 0 0 0 0 0 0 0 0 0 0 127 0"/><feOffset dy="-.25"/><feGaussianBlur stdDeviation=".25"/><feComposite in2="hardAlpha" k2="-1" k3="1" operator="arithmetic"/><feColorMatrix type="matrix" values="0 0 0 0 0.937255 0 0 0 0 0.576471 0 0 0 0 0.341176 0 0 0 1 0"/><feBlend in2="shape" mode="normal" result="effect1_innerShadow_4002_22"/></filter><filter id="d" color-interpolation-filters="sRGB" filterUnits="userSpaceOnUse" height="3.148" width="3.148" x="17.904" y="12.412"><feFlood flood-opacity="0" result="BackgroundImageFix"/><feBlend in="SourceGraphic" in2="BackgroundImageFix" mode="normal" result="shape"/><feGaussianBlur result="effect1_foregroundBlur_4002_22" stdDeviation=".25"/></filter><filter id="e" color-interpolation-filters="sRGB" filterUnits="userSpaceOnUse" height="2.648" width="2.648" x="8.66" y="12.662"><feFlood flood-opacity="0" result="BackgroundImageFix"/><feBlend in="SourceGraphic" in2="BackgroundImageFix" mode="normal" result="shape"/><feGaussianBlur result="effect1_foregroundBlur_4002_22" stdDeviation=".125"/></filter><filter id="f" color-interpolation-filters="sRGB" filterUnits="userSpaceOnUse" height="11.277" width="10.191" x="9.555" y="9.079"><feFlood flood-opacity="0" result="BackgroundImageFix"/><feBlend in="SourceGraphic" in2="BackgroundImageFix" mode="normal" result="shape"/><feColorMatrix in="SourceAlpha" result="hardAlpha" type="matrix" values="0 0 0 0 0 0 0 0 0 0 0 0 0 0 0 0 0 0 127 0"/><feOffset dy=".4"/><feGaussianBlur stdDeviation=".3"/><feComposite in2="hardAlpha" k2="-1" k3="1" operator="arithmetic"/><feColorMatrix type="matrix" values="0 0 0 0 0.92549 0 0 0 0 0.529412 0 0 0 0 0.137255 0 0 0 1 0"/><feBlend in2="shape" mode="normal" result="effect1_innerShadow_4002_22"/></filter><filter id="g" color-interpolation-filters="sRGB" filterUnits="userSpaceOnUse" height="3.682" width="2.877" x="13.05" y="12.981"><feFlood flood-opacity="0" result="BackgroundImageFix"/><feBlend in="SourceGraphic" in2="BackgroundImageFix" mode="normal" result="shape"/><feGaussianBlur result="effect1_foregroundBlur_4002_22" stdDeviation=".25"/></filter><filter id="h" color-interpolation-filters="sRGB" filterUnits="userSpaceOnUse" height="2.882" width="2.077" x="13.612" y="13.242"><feFlood flood-opacity="0" result="BackgroundImageFix"/><feBlend in="SourceGraphic" in2="BackgroundImageFix" mode="normal" result="shape"/><feGaussianBlur result="effect1_foregroundBlur_4002_22" stdDeviation=".05"/></filter><filter id="i" color-interpolation-filters="sRGB" filterUnits="userSpaceOnUse" height="1.526" width="3.702" x="12.8" y="16.334"><feFlood flood-opacity="0" result="BackgroundImageFix"/><feBlend in="SourceGraphic" in2="BackgroundImageFix" mode="normal" result="shape"/><feGaussianBlur result="effect1_foregroundBlur_4002_22" stdDeviation=".05"/></filter><filter id="j" color-interpolation-filters="sRGB" filterUnits="userSpaceOnUse" height="1.285" width="3.001" x="15.593" y="12.581"><feFlood flood-opacity="0" result="BackgroundImageFix"/><feBlend in="SourceGraphic" in2="BackgroundImageFix" mode="normal" result="shape"/><feColorMatrix in="SourceAlpha" result="hardAlpha" type="matrix" values="0 0 0 0 0 0 0 0 0 0 0 0 0 0 0 0 0 0 127 0"/><feOffset dx="-.2"/><feGaussianBlur stdDeviation=".2"/><feComposite in2="hardAlpha" k2="-1" k3="1" operator="arithmetic"/><feColorMatrix type="matrix" values="0 0 0 0 0.141176 0 0 0 0 0.0862745 0 0 0 0 0.176471 0 0 0 1 0"/><feBlend in2="shape" mode="normal" result="effect1_innerShadow_4002_22"/></filter><filter id="k" color-interpolation-filters="sRGB" filterUnits="userSpaceOnUse" height="1.285" width="3.001" x="10.707" y="12.581"><feFlood flood-opacity="0" result="BackgroundImageFix"/><feBlend in="SourceGraphic" in2="BackgroundImageFix" mode="normal" result="shape"/><feColorMatrix in="SourceAlpha" result="hardAlpha" type="matrix" values="0 0 0 0 0 0 0 0 0 0 0 0 0 0 0 0 0 0 127 0"/><feOffset dx=".2"/><feGaussianBlur stdDeviation=".125"/><feComposite in2="hardAlpha" k2="-1" k3="1" operator="arithmetic"/><feColorMatrix type="matrix" values="0 0 0 0 0.133333 0 0 0 0 0.0784314 0 0 0 0 0.168627 0 0 0 1 0"/><feBlend in2="shape" mode="normal" result="effect1_innerShadow_4002_22"/></filter><filter id="l" color-interpolation-filters="sRGB" filterUnits="userSpaceOnUse" height="1.091" width="2.453" x="10.843" y="11.158"><feFlood flood-opacity="0" result="BackgroundImageFix"/><feBlend in="SourceGraphic" in2="BackgroundImageFix" mode="normal" result="shape"/><feColorMatrix in="SourceAlpha" result="hardAlpha" type="matrix" values="0 0 0 0 0 0 0 0 0 0 0 0 0 0 0 0 0 0 127 0"/><feOffset dx=".2" dy="-.2"/><feGaussianBlur stdDeviation=".15"/><feComposite in2="hardAlpha" k2="-1" k3="1" operator="arithmetic"/><feColorMatrix type="matrix" values="0 0 0 0 0.658824 0 0 0 0 0.270588 0 0 0 0 0.141176 0 0 0 1 0"/><feBlend in2="shape" mode="normal" result="effect1_innerShadow_4002_22"/></filter><filter id="m" color-interpolation-filters="sRGB" filterUnits="userSpaceOnUse" height="1.091" width="2.453" x="16.26" y="11.158"><feFlood flood-opacity="0" result="BackgroundImageFix"/><feBlend in="SourceGraphic" in2="BackgroundImageFix" mode="normal" result="shape"/><feColorMatrix in="SourceAlpha" result="hardAlpha" type="matrix" values="0 0 0 0 0 0 0 0 0 0 0 0 0 0 0 0 0 0 127 0"/><feOffset dx=".2" dy="-.2"/><feGaussianBlur stdDeviation=".15"/><feComposite in2="hardAlpha" k2="-1" k3="1" operator="arithmetic"/><feColorMatrix type="matrix" values="0 0 0 0 0.658824 0 0 0 0 0.270588 0 0 0 0 0.141176 0 0 0 1 0"/><feBlend in2="shape" mode="normal" result="effect1_innerShadow_4002_22"/></filter><filter id="n" color-interpolation-filters="sRGB" filterUnits="userSpaceOnUse" height=".696" width=".786" x="16.099" y="12.949"><feFlood flood-opacity="0" result="BackgroundImageFix"/><feBlend in="SourceGraphic" in2="BackgroundImageFix" mode="normal" result="shape"/><feGaussianBlur result="effect1_foregroundBlur_4002_22" stdDeviation=".05"/></filter><filter id="o" color-interpolation-filters="sRGB" filterUnits="userSpaceOnUse" height=".913" width=".891" x="16.939" y="13.024"><feFlood flood-opacity="0" result="BackgroundImageFix"/><feBlend in="SourceGraphic" in2="BackgroundImageFix" mode="normal" result="shape"/><feGaussianBlur result="effect1_foregroundBlur_4002_22" stdDeviation=".1"/></filter><filter id="p" color-interpolation-filters="sRGB" filterUnits="userSpaceOnUse" height="1.04" width=".986" x="12.496" y="12.961"><feFlood flood-opacity="0" result="BackgroundImageFix"/><feBlend in="SourceGraphic" in2="BackgroundImageFix" mode="normal" result="shape"/><feGaussianBlur result="effect1_foregroundBlur_4002_22" stdDeviation=".1"/></filter><filter id="q" color-interpolation-filters="sRGB" filterUnits="userSpaceOnUse" height=".704" width=".912" x="11.741" y="12.941"><feFlood flood-opacity="0" result="BackgroundImageFix"/><feBlend in="SourceGraphic" in2="BackgroundImageFix" mode="normal" result="shape"/><feGaussianBlur result="effect1_foregroundBlur_4002_22" stdDeviation=".05"/></filter><filter id="r" color-interpolation-filters="sRGB" filterUnits="userSpaceOnUse" height=".978" width="2.261" x="16.29" y="11.28"><feFlood flood-opacity="0" result="BackgroundImageFix"/><feBlend in="SourceGraphic" in2="BackgroundImageFix" mode="normal" result="shape"/><feGaussianBlur result="effect1_foregroundBlur_4002_22" stdDeviation=".1"/></filter><filter id="s" color-interpolation-filters="sRGB" filterUnits="userSpaceOnUse" height=".978" width="2.261" x="10.839" y="11.28"><feFlood flood-opacity="0" result="BackgroundImageFix"/><feBlend in="SourceGraphic" in2="BackgroundImageFix" mode="normal" result="shape"/><feGaussianBlur result="effect1_foregroundBlur_4002_22" stdDeviation=".1"/></filter><filter id="t" color-interpolation-filters="sRGB" filterUnits="userSpaceOnUse" height="5.214" width="4.985" x="7.943" y="6.71"><feFlood flood-opacity="0" result="BackgroundImageFix"/><feBlend in="SourceGraphic" in2="BackgroundImageFix" mode="normal" result="shape"/><feGaussianBlur result="effect1_foregroundBlur_4002_22" stdDeviation=".375"/></filter><filter id="u" color-interpolation-filters="sRGB" filterUnits="userSpaceOnUse" height="5.78" width="8.914" x="11.333" y="5.911"><feFlood flood-opacity="0" result="BackgroundImageFix"/><feBlend in="SourceGraphic" in2="BackgroundImageFix" mode="normal" result="shape"/><feGaussianBlur result="effect1_foregroundBlur_4002_22" stdDeviation=".125"/></filter><filter id="v" color-interpolation-filters="sRGB" filterUnits="userSpaceOnUse" height="2.31" width="1.145" x="11.46" y="7.144"><feFlood flood-opacity="0" result="BackgroundImageFix"/><feBlend in="SourceGraphic" in2="BackgroundImageFix" mode="normal" result="shape"/><feGaussianBlur result="effect1_foregroundBlur_4002_22" stdDeviation=".125"/></filter><filter id="w" color-interpolation-filters="sRGB" filterUnits="userSpaceOnUse" height=".726" width=".726" x="23.418" y="7.671"><feFlood flood-opacity="0" result="BackgroundImageFix"/><feBlend in="SourceGraphic" in2="BackgroundImageFix" mode="normal" result="shape"/><feColorMatrix in="SourceAlpha" result="hardAlpha" type="matrix" values="0 0 0 0 0 0 0 0 0 0 0 0 0 0 0 0 0 0 127 0"/><feOffset dx=".1" dy="-.1"/><feGaussianBlur stdDeviation=".1"/><feComposite in2="hardAlpha" k2="-1" k3="1" operator="arithmetic"/><feColorMatrix type="matrix" values="0 0 0 0 0.52549 0 0 0 0 0.388235 0 0 0 0 0.501961 0 0 0 1 0"/><feBlend in2="shape" mode="normal" result="effect1_innerShadow_4002_22"/></filter><filter id="x" color-interpolation-filters="sRGB" filterUnits="userSpaceOnUse" height="4.387" width="3.834" x="20.96" y="8.473"><feFlood flood-opacity="0" result="BackgroundImageFix"/><feBlend in="SourceGraphic" in2="BackgroundImageFix" mode="normal" result="shape"/><feColorMatrix in="SourceAlpha" result="hardAlpha" type="matrix" values="0 0 0 0 0 0 0 0 0 0 0 0 0 0 0 0 0 0 127 0"/><feOffset dx=".05" dy="-.05"/><feGaussianBlur stdDeviation=".1"/><feComposite in2="hardAlpha" k2="-1" k3="1" operator="arithmetic"/><feColorMatrix type="matrix" values="0 0 0 0 0.945098 0 0 0 0 0.45098 0 0 0 0 0.333333 0 0 0 1 0"/><feBlend in2="shape" mode="normal" result="effect1_innerShadow_4002_22"/><feColorMatrix in="SourceAlpha" result="hardAlpha" type="matrix" values="0 0 0 0 0 0 0 0 0 0 0 0 0 0 0 0 0 0 127 0"/><feOffset dx="-.1" dy=".1"/><feGaussianBlur stdDeviation=".1"/><feComposite in2="hardAlpha" k2="-1" k3="1" operator="arithmetic"/><feColorMatrix type="matrix" values="0 0 0 0 1 0 0 0 0 0.282353 0 0 0 0 0.435294 0 0 0 1 0"/><feBlend in2="effect1_innerShadow_4002_22" mode="normal" result="effect2_innerShadow_4002_22"/></filter><filter id="y" color-interpolation-filters="sRGB" filterUnits="userSpaceOnUse" height="3.734" width="4.283" x="24.158" y="6.996"><feFlood flood-opacity="0" result="BackgroundImageFix"/><feBlend in="SourceGraphic" in2="BackgroundImageFix" mode="normal" result="shape"/><feColorMatrix in="SourceAlpha" result="hardAlpha" type="matrix" values="0 0 0 0 0 0 0 0 0 0 0 0 0 0 0 0 0 0 127 0"/><feOffset dx=".05" dy="-.05"/><feGaussianBlur stdDeviation=".05"/><feComposite in2="hardAlpha" k2="-1" k3="1" operator="arithmetic"/><feColorMatrix type="matrix" values="0 0 0 0 0.882353 0 0 0 0 0.203922 0 0 0 0 0.435294 0 0 0 1 0"/><feBlend in2="shape" mode="normal" result="effect1_innerShadow_4002_22"/></filter><filter id="z" color-interpolation-filters="sRGB" filterUnits="userSpaceOnUse" height="3.843" width="3.843" x="24.629" y="6.966"><feFlood flood-opacity="0" result="BackgroundImageFix"/><feBlend in="SourceGraphic" in2="BackgroundImageFix" mode="normal" result="shape"/><feGaussianBlur result="effect1_foregroundBlur_4002_22" stdDeviation=".1"/></filter><filter id="A" color-interpolation-filters="sRGB" filterUnits="userSpaceOnUse" height="2.734" width="2.734" x="25.183" y="7.521"><feFlood flood-opacity="0" result="BackgroundImageFix"/><feBlend in="SourceGraphic" in2="BackgroundImageFix" mode="normal" result="shape"/><feGaussianBlur result="effect1_foregroundBlur_4002_22" stdDeviation=".1"/></filter><filter id="B" color-interpolation-filters="sRGB" filterUnits="userSpaceOnUse" height="2.734" width="2.734" x="21.535" y="9.535"><feFlood flood-opacity="0" result="BackgroundImageFix"/><feBlend in="SourceGraphic" in2="BackgroundImageFix" mode="normal" result="shape"/><feGaussianBlur result="effect1_foregroundBlur_4002_22" stdDeviation=".1"/></filter><filter id="C" color-interpolation-filters="sRGB" filterUnits="userSpaceOnUse" height="3.805" width="3.805" x="21" y="8.999"><feFlood flood-opacity="0" result="BackgroundImageFix"/><feBlend in="SourceGraphic" in2="BackgroundImageFix" mode="normal" result="shape"/><feGaussianBlur result="effect1_foregroundBlur_4002_22" stdDeviation=".1"/></filter><linearGradient id="D" gradientUnits="userSpaceOnUse" x1="19.344" x2="12.103" y1="7.033" y2="20.476"><stop offset="0" stop-color="#ffd93c"/><stop offset="1" stop-color="#e37923"/></linearGradient><radialGradient id="E" cx="0" cy="0" gradientTransform="matrix(2.80830543 1.51216726 -2.14191022 3.9778259 18.4738 17.2847)" gradientUnits="userSpaceOnUse" r="1"><stop offset=".616" stop-color="#e38923"/><stop offset="1" stop-color="#e38923" stop-opacity="0"/></radialGradient><radialGradient id="F" cx="0" cy="0" gradientTransform="matrix(0 4.45645 -2.68487 0 10.0797 16.0194)" gradientUnits="userSpaceOnUse" r="1"><stop offset="0" stop-color="#c9641b"/><stop offset="1" stop-color="#d77117" stop-opacity="0"/></radialGradient><radialGradient id="G" cx="0" cy="0" gradientTransform="matrix(0 5.57099 -5.8032 0 14.6508 16.112)" gradientUnits="userSpaceOnUse" r="1"><stop offset=".617" stop-color="#e26b25"/><stop offset="1" stop-color="#e26b25" stop-opacity="0"/></radialGradient><radialGradient id="H" cx="0" cy="0" gradientTransform="matrix(-1.24075038 1.61015871 -1.56337677 -1.20470132 9.74023 14.3067)" gradientUnits="userSpaceOnUse" r="1"><stop offset=".161" stop-color="#c9681c"/><stop offset="1" stop-color="#c9681c" stop-opacity="0"/></radialGradient><radialGradient id="I" cx="0" cy="0" gradientTransform="matrix(-.46757961 2.51377322 -2.61762198 -.48689622 10.3313 11.8701)" gradientUnits="userSpaceOnUse" r="1"><stop offset=".365" stop-color="#d76a18"/><stop offset="1" stop-color="#d76a18" stop-opacity="0"/></radialGradient><radialGradient id="J" cx="0" cy="0" gradientTransform="matrix(1.09555217 2.11394976 -4.02702293 2.08700026 11.3141 6.82301)" gradientUnits="userSpaceOnUse" r="1"><stop offset=".222" stop-color="#cba140"/><stop offset=".921" stop-color="#cba140" stop-opacity="0"/></radialGradient><radialGradient id="K" cx="0" cy="0" gradientTransform="matrix(-1.10623964 1.20682579 -1.68651753 -1.54595019 20.1486 8.24016)" gradientUnits="userSpaceOnUse" r="1"><stop offset="0" stop-color="#ffdf3c"/><stop offset="1" stop-color="#ffdf3c" stop-opacity="0"/></radialGradient><radialGradient id="L" cx="0" cy="0" gradientTransform="matrix(-1.84366344 .5363666 -1.16706176 -4.0115643 22.1599 13.1345)" gradientUnits="userSpaceOnUse" r="1"><stop offset="0" stop-color="#ffd537"/><stop offset="1" stop-color="#ffd336" stop-opacity="0"/><stop offset="1" stop-color="#ffd537" stop-opacity="0"/></radialGradient><radialGradient id="M" cx="0" cy="0" gradientTransform="matrix(-3.19827621 -3.39214857 4.87152014 -4.59309686 20.2839 20.9077)" gradientUnits="userSpaceOnUse" r="1"><stop offset="0" stop-color="#cb6325"/><stop offset="1" stop-color="#cb6325" stop-opacity="0"/></radialGradient><radialGradient id="N" cx="0" cy="0" gradientTransform="matrix(-.0084316 -1.37436414 .45060952 -.00276445 11.9459 9.3176)" gradientUnits="userSpaceOnUse" r="1"><stop offset=".295" stop-color="#db6009"/><stop offset="1" stop-color="#db6009" stop-opacity="0"/></radialGradient><radialGradient id="O" cx="0" cy="0" gradientTransform="matrix(-4.4375218 2.06246548 -3.22726914 -6.94366878 22.8168 17.5071)" gradientUnits="userSpaceOnUse" r="1"><stop offset=".125" stop-color="#ffc032"/><stop offset="1" stop-color="#e69123" stop-opacity="0"/></radialGradient><radialGradient id="P" cx="0" cy="0" gradientTransform="matrix(-.31249952 9.84375095 -13.30149901 -.42226912 15.182 12.2259)" gradientUnits="userSpaceOnUse" r="1"><stop offset=".754" stop-color="#c4631a" stop-opacity="0"/><stop offset=".989" stop-color="#8f5649"/></radialGradient><radialGradient id="Q" cx="0" cy="0" gradientTransform="matrix(-3.90623608 -1.43752467 1.43752467 -3.90623608 12.932 19.3821)" gradientUnits="userSpaceOnUse" r="1"><stop offset=".097" stop-color="#8b4006"/><stop offset="1" stop-color="#8b4006" stop-opacity="0"/></radialGradient><radialGradient id="R" cx="0" cy="0" gradientTransform="matrix(-13.54958476 6.58780201 -7.58474806 -15.60007216 21.8752 23.8528)" gradientUnits="userSpaceOnUse" r="1"><stop offset="0" stop-color="#a86ed8"/><stop offset="1" stop-color="#935dd0"/></radialGradient><radialGradient id="S" cx="0" cy="0" gradientTransform="matrix(-7.90626867 -10.81244208 15.55864138 -11.37678223 17.4758 30.9457)" gradientUnits="userSpaceOnUse" r="1"><stop offset=".895" stop-color="#845b99" stop-opacity="0"/><stop offset="1" stop-color="#845b99"/></radialGradient><radialGradient id="T" cx="0" cy="0" gradientTransform="matrix(-5.81248992 1.18753065 -.34097048 -1.6689148 13.4009 19.6321)" gradientUnits="userSpaceOnUse" r="1"><stop offset="0" stop-color="#643058"/><stop offset="1" stop-color="#834a86" stop-opacity="0"/></radialGradient><radialGradient id="U" cx="0" cy="0" gradientTransform="matrix(-3.93377 0 0 -13.371 21.5534 30.4407)" gradientUnits="userSpaceOnUse" r="1"><stop offset=".133" stop-color="#ae81f2"/><stop offset="1" stop-color="#a46bd8" stop-opacity="0"/></radialGradient><radialGradient id="V" cx="0" cy="0" gradientTransform="matrix(1.5 0 0 23.8126 7.43213 30.4407)" gradientUnits="userSpaceOnUse" r="1"><stop offset="0" stop-color="#8654d1"/><stop offset="1" stop-color="#9860d3" stop-opacity="0"/></radialGradient><radialGradient id="W" cx="0" cy="0" gradientTransform="matrix(3.25185 0 0 9.13279 21.5844 29.662)" gradientUnits="userSpaceOnUse" r="1"><stop offset=".576" stop-color="#a677eb"/><stop offset="1" stop-color="#9775dd"/></radialGradient><radialGradient id="X" cx="0" cy="0" gradientTransform="matrix(.870059 0 0 11.9715 21.5844 30.4408)" gradientUnits="userSpaceOnUse" r="1"><stop offset="0" stop-color="#8752d9"/><stop offset="1" stop-color="#8752d9" stop-opacity="0"/></radialGradient><radialGradient id="Y" cx="0" cy="0" gradientTransform="matrix(-3.70862 0 0 -8.85437 7.31738 30.4408)" gradientUnits="userSpaceOnUse" r="1"><stop offset=".614" stop-color="#8052c3" stop-opacity="0"/><stop offset="1" stop-color="#8267b6"/></radialGradient><radialGradient id="Z" cx="0" cy="0" gradientTransform="matrix(-.846301 0 0 -10.457 7.31738 30.4408)" gradientUnits="userSpaceOnUse" r="1"><stop offset=".111" stop-color="#9a6fdb"/><stop offset="1" stop-color="#9a6fdb" stop-opacity="0"/></radialGradient><radialGradient id="aa" cx="0" cy="0" gradientTransform="matrix(.55725089 2.38132826 -4.13046521 .96656369 13.7134 19.4446)" gradientUnits="userSpaceOnUse" r="1"><stop offset=".212" stop-color="#d78022"/><stop offset="1" stop-color="#d78022" stop-opacity="0"/></radialGradient><radialGradient id="ab" cx="0" cy="0" gradientTransform="matrix(-1.8898815 1.60938236 -.69705605 -.8185459 16.5206 21.6228)" gradientUnits="userSpaceOnUse" r="1"><stop offset=".285" stop-color="#ffc822"/><stop offset="1" stop-color="#ffc822" stop-opacity="0"/></radialGradient><linearGradient id="ac" gradientUnits="userSpaceOnUse" x1="8.356" x2="11.315" y1="14.073" y2="14.073"><stop offset="0" stop-color="#e79b27"/><stop offset="1" stop-color="#b96201"/></linearGradient><radialGradient id="ad" cx="0" cy="0" gradientTransform="matrix(2.4890503 -1.13138887 1.38137594 3.0390207 18.6904 14.4252)" gradientUnits="userSpaceOnUse" r="1"><stop offset=".572" stop-color="#ffc531"/><stop offset=".905" stop-color="#ffe549"/></radialGradient><radialGradient id="ae" cx="0" cy="0" gradientTransform="matrix(1.22357948 -.45255753 .45255753 1.22357948 19.2435 14.224)" gradientUnits="userSpaceOnUse" r="1"><stop offset=".71" stop-color="#ffba25" stop-opacity="0"/><stop offset="1" stop-color="#ffba25"/></radialGradient><radialGradient id="af" cx="0" cy="0" gradientTransform="matrix(-1.07411 0 0 -1.02745 9.98439 13.986)" gradientUnits="userSpaceOnUse" r="1"><stop offset=".415" stop-color="#d67923" stop-opacity="0"/><stop offset="1" stop-color="#d67923"/></radialGradient><radialGradient id="ag" cx="0" cy="0" gradientTransform="matrix(-6.50358035 2.99901745 -4.01413361 -8.70493118 17.51 13.4484)" gradientUnits="userSpaceOnUse" r="1"><stop offset="0" stop-color="#ffe644"/><stop offset="1" stop-color="#eb9235"/></radialGradient><radialGradient id="ah" cx="0" cy="0" gradientTransform="matrix(-2.10973337 1.1159151 -.94677543 -1.78996028 16.551 14.1459)" gradientUnits="userSpaceOnUse" r="1"><stop offset="0" stop-color="#ffe842"/><stop offset="1" stop-color="#ffe842" stop-opacity="0"/></radialGradient><radialGradient id="ai" cx="0" cy="0" gradientTransform="matrix(.83692541 -4.04512849 5.13251872 1.06190331 12.471 20.231)" gradientUnits="userSpaceOnUse" r="1"><stop offset="0" stop-color="#e4883f"/><stop offset="1" stop-color="#e4883f" stop-opacity="0"/></radialGradient><radialGradient id="aj" cx="0" cy="0" gradientTransform="matrix(0 7.44059 -11.8177 0 14.389 12.9648)" gradientUnits="userSpaceOnUse" r="1"><stop offset=".593" stop-color="#f3943b" stop-opacity="0"/><stop offset="1" stop-color="#d97c39"/></radialGradient><radialGradient id="ak" cx="0" cy="0" gradientTransform="matrix(-5.42256269 1.49952994 -2.58172686 -9.33597613 15.2782 15.1048)" gradientUnits="userSpaceOnUse" r="1"><stop offset=".877" stop-color="#d4993e" stop-opacity="0"/><stop offset="1" stop-color="#d4993e"/></radialGradient><radialGradient id="al" cx="0" cy="0" gradientTransform="matrix(0 -1.15077 1.41231 0 16.952 13.03)" gradientUnits="userSpaceOnUse" r="1"><stop offset="0" stop-color="#ffbb31"/><stop offset="1" stop-color="#ffbb31" stop-opacity="0"/></radialGradient><radialGradient id="am" cx="0" cy="0" gradientTransform="matrix(0 -1.36 1.55865 0 12.7325 13.1171)" gradientUnits="userSpaceOnUse" r="1"><stop offset="0" stop-color="#f09429"/><stop offset="1" stop-color="#f09429" stop-opacity="0"/></radialGradient><radialGradient id="an" cx="0" cy="0" gradientTransform="matrix(-1.34695 0 0 -4.43421 19.7462 14.5175)" gradientUnits="userSpaceOnUse" r="1"><stop offset="0" stop-color="#ffda39"/><stop offset="1" stop-color="#ffda39" stop-opacity="0"/></radialGradient><linearGradient id="ao" gradientUnits="userSpaceOnUse" x1="14.651" x2="14.651" y1="16.024" y2="13.342"><stop offset="0" stop-color="#ffc134"/><stop offset="1" stop-color="#f8c73f"/></linearGradient><radialGradient id="ap" cx="0" cy="0" gradientTransform="matrix(-.69745675 -2.44973908 1.40177446 -.39909436 15.4353 15.2443)" gradientUnits="userSpaceOnUse" r="1"><stop offset=".017" stop-color="#ffe848"/><stop offset="1" stop-color="#ffe848" stop-opacity="0"/></radialGradient><linearGradient id="aq" gradientUnits="userSpaceOnUse" x1="13.604" x2="14.459" y1="15.262" y2="15.366"><stop offset="0" stop-color="#f8a322"/><stop offset="1" stop-color="#f8a322" stop-opacity="0"/></linearGradient><linearGradient id="ar" gradientUnits="userSpaceOnUse" x1="14.651" x2="14.651" y1="16.116" y2="15.506"><stop offset="0" stop-color="#e48538"/><stop offset="1" stop-color="#e48538" stop-opacity="0"/></linearGradient><linearGradient id="as" gradientUnits="userSpaceOnUse" x1="13.922" x2="14.374" y1="17.593" y2="16.721"><stop offset="0" stop-color="#feac35"/><stop offset="1" stop-color="#feac35" stop-opacity="0"/></linearGradient><linearGradient id="at"><stop offset=".802" stop-color="#925c51"/><stop offset="1" stop-color="#694b43"/><stop offset="1" stop-color="#804d49"/><stop offset="1" stop-color="#85534d"/></linearGradient><radialGradient id="au" cx="0" cy="0" gradientTransform="matrix(0 .811316 -1.29049 0 16.8328 13.3889)" gradientUnits="userSpaceOnUse" r="1" xlink:href="#at"/><linearGradient id="av"><stop offset=".766" stop-color="#ffe6e2" stop-opacity="0"/><stop offset=".966" stop-color="#ffe6e2"/></linearGradient><radialGradient id="aw" cx="0" cy="0" gradientTransform="matrix(-.23172977 -.29861505 .41112117 -.3190362 16.6042 13.4729)" gradientUnits="userSpaceOnUse" r="1" xlink:href="#av"/><linearGradient id="ax"><stop offset="0" stop-color="#b4948d"/><stop offset="1" stop-color="#b4948d" stop-opacity="0"/></linearGradient><linearGradient id="ay" gradientUnits="userSpaceOnUse" x1="17.61" x2="17.297" xlink:href="#ax" y1="13.443" y2="13.636"/><radialGradient id="az" cx="0" cy="0" gradientTransform="matrix(0 .811321 -1.2905 0 12.4686 13.3889)" gradientUnits="userSpaceOnUse" r="1" xlink:href="#at"/><linearGradient id="aA" gradientUnits="userSpaceOnUse" x1="13.212" x2="12.899" xlink:href="#ax" y1="13.443" y2="13.636"/><radialGradient id="aB" cx="0" cy="0" gradientTransform="matrix(-.00772918 -.4936605 .59340027 -.0092908 12.182 13.6078)" gradientUnits="userSpaceOnUse" r="1" xlink:href="#av"/><radialGradient id="aC" cx="0" cy="0" gradientTransform="matrix(-3.41933176 4.14002511 -1.80559347 -1.49127673 11.9356 7.03346)" gradientUnits="userSpaceOnUse" r="1"><stop offset=".396" stop-color="#ee971b" stop-opacity="0"/><stop offset=".911" stop-color="#d8772c"/></radialGradient><radialGradient id="aD" cx="0" cy="0" gradientTransform="matrix(-3.1027694 2.21661736 -1.09548231 -1.53343064 11.796 7.58079)" gradientUnits="userSpaceOnUse" r="1"><stop offset=".12" stop-color="#ffca2d"/><stop offset="1" stop-color="#ffe134" stop-opacity="0"/><stop offset="1" stop-color="#ffca2d" stop-opacity="0"/></radialGradient><radialGradient id="aE" cx="0" cy="0" gradientTransform="matrix(-2.18534301 4.55504056 -6.46740133 -3.10282424 16.442 5.86069)" gradientUnits="userSpaceOnUse" r="1"><stop offset=".627" stop-color="#f49523" stop-opacity="0"/><stop offset="1" stop-color="#f49523"/></radialGradient><radialGradient id="aF" cx="0" cy="0" gradientTransform="matrix(-.94295035 3.3082805 -6.93310398 -1.97612409 17.1594 7.11399)" gradientUnits="userSpaceOnUse" r="1"><stop offset=".132" stop-color="#ffe337"/><stop offset="1" stop-color="#ffe337" stop-opacity="0"/></radialGradient><radialGradient id="aG" cx="0" cy="0" gradientTransform="matrix(-3.41682309 -6.46744273 5.78148817 -3.05442554 15.8003 12.7454)" gradientUnits="userSpaceOnUse" r="1"><stop offset=".898" stop-color="#ca9b37" stop-opacity="0"/><stop offset="1" stop-color="#ca9b37"/></radialGradient><linearGradient id="aH" gradientUnits="userSpaceOnUse" x1="11.76" x2="12.304" y1="7.788" y2="9.062"><stop offset="0" stop-color="#faa719"/><stop offset="1" stop-color="#db6008"/></linearGradient><radialGradient id="aI" cx="0" cy="0" gradientTransform="matrix(-6.2187489 1.75000257 -2.17983375 -7.74618219 23.4633 7.28844)" gradientUnits="userSpaceOnUse" r="1"><stop offset="0" stop-color="#f19028"/><stop offset=".547" stop-color="#ffa82a"/><stop offset=".882" stop-color="#ffa82a" stop-opacity="0"/></radialGradient><radialGradient id="aJ" cx="0" cy="0" gradientTransform="matrix(-.56249427 1.06250133 -2.86705937 -1.5178376 21.9633 7.97594)" gradientUnits="userSpaceOnUse" r="1"><stop offset="0" stop-color="#d76d25"/><stop offset="1" stop-color="#ffa92a" stop-opacity="0"/></radialGradient><radialGradient id="aK" cx="0" cy="0" gradientTransform="matrix(.12500032 .96874973 -2.55672388 .32990079 20.4789 7.52282)" gradientUnits="userSpaceOnUse" r="1"><stop offset=".271" stop-color="#d29122"/><stop offset="1" stop-color="#d29122" stop-opacity="0"/></radialGradient><radialGradient id="aL" cx="0" cy="0" gradientTransform="matrix(2.31250157 2.37500174 -4.63981738 4.51771668 19.557 7.16344)" gradientUnits="userSpaceOnUse" r="1"><stop offset=".679" stop-color="#fd952a" stop-opacity="0"/><stop offset=".886" stop-color="#d27632"/></radialGradient><radialGradient id="aM" cx="0" cy="0" gradientTransform="matrix(-.05468686 .46093724 -.42829318 -.05081388 22.9398 5.76501)" gradientUnits="userSpaceOnUse" r="1"><stop offset="0" stop-color="#ffc130"/><stop offset=".597" stop-color="#ffc130" stop-opacity="0"/></radialGradient><radialGradient id="aN" cx="0" cy="0" gradientTransform="matrix(4.88281248 .21874951 -.2967199 6.62322682 18.4633 6.99157)" gradientUnits="userSpaceOnUse" r="1"><stop offset=".869" stop-color="#ffb724" stop-opacity="0"/><stop offset=".968" stop-color="#ffb724"/></radialGradient><linearGradient id="aO"><stop offset="0" stop-color="#9b8299"/><stop offset="1" stop-color="#d9b4c8"/></linearGradient><linearGradient id="aP" gradientUnits="userSpaceOnUse" x1="24.941" x2="23.75" xlink:href="#aO" y1="6.134" y2="5.789"/><linearGradient id="aQ" gradientUnits="userSpaceOnUse" x1="23.793" x2="23.867" y1="7.627" y2="7.338"><stop offset=".16" stop-color="#a28b95"/><stop offset="1" stop-color="#c0a0b5" stop-opacity="0"/></linearGradient><linearGradient id="aR" gradientUnits="userSpaceOnUse" x1="22.879" x2="23.144" xlink:href="#aO" y1="8.482" y2="7.185"/><linearGradient id="aS" gradientUnits="userSpaceOnUse" x1="24.29" x2="24.092" y1="8.564" y2="8.508"><stop offset="0" stop-color="#93768e"/><stop offset="1" stop-color="#a2889f" stop-opacity="0"/></linearGradient><radialGradient id="aT" cx="0" cy="0" gradientTransform="matrix(-.339844 .27343696 -.27343696 -.339844 23.9061 7.98999)" gradientUnits="userSpaceOnUse" r="1"><stop offset=".168" stop-color="#ebdbe4"/><stop offset="1" stop-color="#c7b1b5"/></radialGradient><radialGradient id="aU" cx="0" cy="0" gradientTransform="matrix(.19921901 -.48437543 1.17186442 .4819767 23.5858 8.4314)" gradientUnits="userSpaceOnUse" r="1"><stop offset=".147" stop-color="#996e9f"/><stop offset="1" stop-color="#c8b3b7" stop-opacity="0"/></radialGradient><radialGradient id="aV" cx="0" cy="0" gradientTransform="matrix(.43750001 .04687497 -.05919957 .55252965 23.3788 7.9978)" gradientUnits="userSpaceOnUse" r="1"><stop offset=".181" stop-color="#a4888c"/><stop offset="1" stop-color="#a4888c" stop-opacity="0"/></radialGradient><linearGradient id="aW"><stop offset=".205" stop-color="#ff7046"/><stop offset="1" stop-color="#ff2d78"/></linearGradient><radialGradient id="aX" cx="0" cy="0" gradientTransform="matrix(2.20247007 -1.6171887 2.56784184 3.49717681 21.3886 11.1807)" gradientUnits="userSpaceOnUse" r="1" xlink:href="#aW"/><linearGradient id="aY" gradientUnits="userSpaceOnUse" x1="23.629" x2="23.57" y1="8.654" y2="8.881"><stop offset=".209" stop-color="#b71143"/><stop offset="1" stop-color="#ff3178" stop-opacity="0"/></linearGradient><radialGradient id="aZ" cx="0" cy="0" gradientTransform="matrix(2.53125362 -1.40625177 1.98702722 3.5766496 24.535 9.35717)" gradientUnits="userSpaceOnUse" r="1" xlink:href="#aW"/><linearGradient id="a0" gradientUnits="userSpaceOnUse" x1="24.879" x2="28.069" y1="9.257" y2="7.784"><stop offset=".616" stop-color="#ff4f4f"/><stop offset=".9" stop-color="#ff6792"/></linearGradient><linearGradient id="a1" gradientUnits="userSpaceOnUse" x1="25.433" x2="27.566" y1="9.134" y2="8.15"><stop offset=".247" stop-color="#ff7e7a"/><stop offset=".669" stop-color="#ff7e7a" stop-opacity="0"/></linearGradient><linearGradient id="a2" gradientUnits="userSpaceOnUse" x1="21.785" x2="23.917" y1="11.148" y2="10.164"><stop offset=".247" stop-color="#ff9266"/><stop offset=".669" stop-color="#ff9266" stop-opacity="0"/></linearGradient><linearGradient id="a3" gradientUnits="userSpaceOnUse" x1="24.554" x2="22.902" y1="10.361" y2="10.902"><stop offset="0" stop-color="#ff5c88"/><stop offset="1" stop-color="#ff5185" stop-opacity="0"/></linearGradient><g clip-rule="evenodd" fill-rule="evenodd"><g filter="url(#a)"><path d="m21.836 15.3956c.2125-.4351.3239-.9209.3239-1.4269 0-.4673-.0962-.9058-.2686-1.3055h.0053c-.0804-.181-.1708-.352-.2812-.513l-.002-.0031c-.3441-.5262-.5263-1.1436-.5263-1.771v-.0101c0-1.82162-1.4775-3.29915-3.2991-3.29915-.1822 0-.3542-.08096-.4554-.23276-.5971-.82984-1.5788-1.37633-2.6819-1.37633s-2.0847.54649-2.6818 1.37633c-.1012.14168-.2733.23276-.4554.23276-.0285 0-.0568.00036-.0851.00108-1.78229.04512-3.21406 1.50487-3.21406 3.29807v.0101c0 .6274-.18216 1.2448-.52624 1.771l-.00229.0037c-.34263.5254-.54409 1.1414-.54409 1.8179 0 .5161.12144.9918.32384 1.4269.07085.1417.07085.3138 0 .4554-.2024.4251-.32384.9007-.32384 1.4067 0 1.7812 1.43705 3.2182 3.21818 3.2182h8.5818c1.7811 0 3.2182-1.437 3.2182-3.2182 0-.506-.1215-.9816-.3239-1.4067-.0708-.1416-.0708-.3137 0-.4554zm-12.26014-2.6724h-.01231l1.19865 2.3556c.1233 2.8025 1.2171 0 3.8885 0s3.8364 3.1194 3.9597.3168l1.1358-3.1971c-.0537-1.2448-.9558-1.3322-1.1358-1.3322h-3.2201c-1.2716 0-2.4714-.6224-3.1892-1.67329-.1231-.17345-.3794-.14284-.4615.05101l-.082.19386c-.2256.56117-.6563.98972-1.1896 1.23452-.0153.0051-.0333.0128-.0512.0204-.018.0077-.0359.0154-.0513.0205-.2359.1224-.78964.4897-.81015 1.4386l.01026.3061z" fill="url(#D)"/><path d="m21.836 15.3956c.2125-.4351.3239-.9209.3239-1.4269 0-.4673-.0962-.9058-.2686-1.3055h.0053c-.0804-.181-.1708-.352-.2812-.513l-.002-.0031c-.3441-.5262-.5263-1.1436-.5263-1.771v-.0101c0-1.82162-1.4775-3.29915-3.2991-3.29915-.1822 0-.3542-.08096-.4554-.23276-.5971-.82984-1.5788-1.37633-2.6819-1.37633s-2.0847.54649-2.6818 1.37633c-.1012.14168-.2733.23276-.4554.23276-.0285 0-.0568.00036-.0851.00108-1.78229.04512-3.21406 1.50487-3.21406 3.29807v.0101c0 .6274-.18216 1.2448-.52624 1.771l-.00229.0037c-.34263.5254-.54409 1.1414-.54409 1.8179 0 .5161.12144.9918.32384 1.4269.07085.1417.07085.3138 0 .4554-.2024.4251-.32384.9007-.32384 1.4067 0 1.7812 1.43705 3.2182 3.21818 3.2182h8.5818c1.7811 0 3.2182-1.437 3.2182-3.2182 0-.506-.1215-.9816-.3239-1.4067-.0708-.1416-.0708-.3137 0-.4554zm-12.26014-2.6724h-.01231l1.19865 2.3556c.1233 2.8025 1.2171 0 3.8885 0s3.8364 3.1194 3.9597.3168l1.1358-3.1971c-.0537-1.2448-.9558-1.3322-1.1358-1.3322h-3.2201c-1.2716 0-2.4714-.6224-3.1892-1.67329-.1231-.17345-.3794-.14284-.4615.05101l-.082.19386c-.2256.56117-.6563.98972-1.1896 1.23452-.0153.0051-.0333.0128-.0512.0204-.018.0077-.0359.0154-.0513.0205-.2359.1224-.78964.4897-.81015 1.4386l.01026.3061z" fill="url(#E)"/><path d="m21.836 15.3956c.2125-.4351.3239-.9209.3239-1.4269 0-.4673-.0962-.9058-.2686-1.3055h.0053c-.0804-.181-.1708-.352-.2812-.513l-.002-.0031c-.3441-.5262-.5263-1.1436-.5263-1.771v-.0101c0-1.82162-1.4775-3.29915-3.2991-3.29915-.1822 0-.3542-.08096-.4554-.23276-.5971-.82984-1.5788-1.37633-2.6819-1.37633s-2.0847.54649-2.6818 1.37633c-.1012.14168-.2733.23276-.4554.23276-.0285 0-.0568.00036-.0851.00108-1.78229.04512-3.21406 1.50487-3.21406 3.29807v.0101c0 .6274-.18216 1.2448-.52624 1.771l-.00229.0037c-.34263.5254-.54409 1.1414-.54409 1.8179 0 .5161.12144.9918.32384 1.4269.07085.1417.07085.3138 0 .4554-.2024.4251-.32384.9007-.32384 1.4067 0 1.7812 1.43705 3.2182 3.21818 3.2182h8.5818c1.7811 0 3.2182-1.437 3.2182-3.2182 0-.506-.1215-.9816-.3239-1.4067-.0708-.1416-.0708-.3137 0-.4554zm-12.26014-2.6724h-.01231l1.19865 2.3556c.1233 2.8025 1.2171 0 3.8885 0s3.8364 3.1194 3.9597.3168l1.1358-3.1971c-.0537-1.2448-.9558-1.3322-1.1358-1.3322h-3.2201c-1.2716 0-2.4714-.6224-3.1892-1.67329-.1231-.17345-.3794-.14284-.4615.05101l-.082.19386c-.2256.56117-.6563.98972-1.1896 1.23452-.0153.0051-.0333.0128-.0512.0204-.018.0077-.0359.0154-.0513.0205-.2359.1224-.78964.4897-.81015 1.4386l.01026.3061z" fill="url(#F)"/><path d="m21.836 15.3956c.2125-.4351.3239-.9209.3239-1.4269 0-.4673-.0962-.9058-.2686-1.3055h.0053c-.0804-.181-.1708-.352-.2812-.513l-.002-.0031c-.3441-.5262-.5263-1.1436-.5263-1.771v-.0101c0-1.82162-1.4775-3.29915-3.2991-3.29915-.1822 0-.3542-.08096-.4554-.23276-.5971-.82984-1.5788-1.37633-2.6819-1.37633s-2.0847.54649-2.6818 1.37633c-.1012.14168-.2733.23276-.4554.23276-.0285 0-.0568.00036-.0851.00108-1.78229.04512-3.21406 1.50487-3.21406 3.29807v.0101c0 .6274-.18216 1.2448-.52624 1.771l-.00229.0037c-.34263.5254-.54409 1.1414-.54409 1.8179 0 .5161.12144.9918.32384 1.4269.07085.1417.07085.3138 0 .4554-.2024.4251-.32384.9007-.32384 1.4067 0 1.7812 1.43705 3.2182 3.21818 3.2182h8.5818c1.7811 0 3.2182-1.437 3.2182-3.2182 0-.506-.1215-.9816-.3239-1.4067-.0708-.1416-.0708-.3137 0-.4554zm-12.26014-2.6724h-.01231l1.19865 2.3556c.1233 2.8025 1.2171 0 3.8885 0s3.8364 3.1194 3.9597.3168l1.1358-3.1971c-.0537-1.2448-.9558-1.3322-1.1358-1.3322h-3.2201c-1.2716 0-2.4714-.6224-3.1892-1.67329-.1231-.17345-.3794-.14284-.4615.05101l-.082.19386c-.2256.56117-.6563.98972-1.1896 1.23452-.0153.0051-.0333.0128-.0512.0204-.018.0077-.0359.0154-.0513.0205-.2359.1224-.78964.4897-.81015 1.4386l.01026.3061z" fill="url(#G)"/><path d="m21.836 15.3956c.2125-.4351.3239-.9209.3239-1.4269 0-.4673-.0962-.9058-.2686-1.3055h.0053c-.0804-.181-.1708-.352-.2812-.513l-.002-.0031c-.3441-.5262-.5263-1.1436-.5263-1.771v-.0101c0-1.82162-1.4775-3.29915-3.2991-3.29915-.1822 0-.3542-.08096-.4554-.23276-.5971-.82984-1.5788-1.37633-2.6819-1.37633s-2.0847.54649-2.6818 1.37633c-.1012.14168-.2733.23276-.4554.23276-.0285 0-.0568.00036-.0851.00108-1.78229.04512-3.21406 1.50487-3.21406 3.29807v.0101c0 .6274-.18216 1.2448-.52624 1.771l-.00229.0037c-.34263.5254-.54409 1.1414-.54409 1.8179 0 .5161.12144.9918.32384 1.4269.07085.1417.07085.3138 0 .4554-.2024.4251-.32384.9007-.32384 1.4067 0 1.7812 1.43705 3.2182 3.21818 3.2182h8.5818c1.7811 0 3.2182-1.437 3.2182-3.2182 0-.506-.1215-.9816-.3239-1.4067-.0708-.1416-.0708-.3137 0-.4554zm-12.26014-2.6724h-.01231l1.19865 2.3556c.1233 2.8025 1.2171 0 3.8885 0s3.8364 3.1194 3.9597.3168l1.1358-3.1971c-.0537-1.2448-.9558-1.3322-1.1358-1.3322h-3.2201c-1.2716 0-2.4714-.6224-3.1892-1.67329-.1231-.17345-.3794-.14284-.4615.05101l-.082.19386c-.2256.56117-.6563.98972-1.1896 1.23452-.0153.0051-.0333.0128-.0512.0204-.018.0077-.0359.0154-.0513.0205-.2359.1224-.78964.4897-.81015 1.4386l.01026.3061z" fill="url(#H)"/><path d="m21.836 15.3956c.2125-.4351.3239-.9209.3239-1.4269 0-.4673-.0962-.9058-.2686-1.3055h.0053c-.0804-.181-.1708-.352-.2812-.513l-.002-.0031c-.3441-.5262-.5263-1.1436-.5263-1.771v-.0101c0-1.82162-1.4775-3.29915-3.2991-3.29915-.1822 0-.3542-.08096-.4554-.23276-.5971-.82984-1.5788-1.37633-2.6819-1.37633s-2.0847.54649-2.6818 1.37633c-.1012.14168-.2733.23276-.4554.23276-.0285 0-.0568.00036-.0851.00108-1.78229.04512-3.21406 1.50487-3.21406 3.29807v.0101c0 .6274-.18216 1.2448-.52624 1.771l-.00229.0037c-.34263.5254-.54409 1.1414-.54409 1.8179 0 .5161.12144.9918.32384 1.4269.07085.1417.07085.3138 0 .4554-.2024.4251-.32384.9007-.32384 1.4067 0 1.7812 1.43705 3.2182 3.21818 3.2182h8.5818c1.7811 0 3.2182-1.437 3.2182-3.2182 0-.506-.1215-.9816-.3239-1.4067-.0708-.1416-.0708-.3137 0-.4554zm-12.26014-2.6724h-.01231l1.19865 2.3556c.1233 2.8025 1.2171 0 3.8885 0s3.8364 3.1194 3.9597.3168l1.1358-3.1971c-.0537-1.2448-.9558-1.3322-1.1358-1.3322h-3.2201c-1.2716 0-2.4714-.6224-3.1892-1.67329-.1231-.17345-.3794-.14284-.4615.05101l-.082.19386c-.2256.56117-.6563.98972-1.1896 1.23452-.0153.0051-.0333.0128-.0512.0204-.018.0077-.0359.0154-.0513.0205-.2359.1224-.78964.4897-.81015 1.4386l.01026.3061z" fill="url(#I)"/><path d="m21.836 15.3956c.2125-.4351.3239-.9209.3239-1.4269 0-.4673-.0962-.9058-.2686-1.3055h.0053c-.0804-.181-.1708-.352-.2812-.513l-.002-.0031c-.3441-.5262-.5263-1.1436-.5263-1.771v-.0101c0-1.82162-1.4775-3.29915-3.2991-3.29915-.1822 0-.3542-.08096-.4554-.23276-.5971-.82984-1.5788-1.37633-2.6819-1.37633s-2.0847.54649-2.6818 1.37633c-.1012.14168-.2733.23276-.4554.23276-.0285 0-.0568.00036-.0851.00108-1.78229.04512-3.21406 1.50487-3.21406 3.29807v.0101c0 .6274-.18216 1.2448-.52624 1.771l-.00229.0037c-.34263.5254-.54409 1.1414-.54409 1.8179 0 .5161.12144.9918.32384 1.4269.07085.1417.07085.3138 0 .4554-.2024.4251-.32384.9007-.32384 1.4067 0 1.7812 1.43705 3.2182 3.21818 3.2182h8.5818c1.7811 0 3.2182-1.437 3.2182-3.2182 0-.506-.1215-.9816-.3239-1.4067-.0708-.1416-.0708-.3137 0-.4554zm-12.26014-2.6724h-.01231l1.19865 2.3556c.1233 2.8025 1.2171 0 3.8885 0s3.8364 3.1194 3.9597.3168l1.1358-3.1971c-.0537-1.2448-.9558-1.3322-1.1358-1.3322h-3.2201c-1.2716 0-2.4714-.6224-3.1892-1.67329-.1231-.17345-.3794-.14284-.4615.05101l-.082.19386c-.2256.56117-.6563.98972-1.1896 1.23452-.0153.0051-.0333.0128-.0512.0204-.018.0077-.0359.0154-.0513.0205-.2359.1224-.78964.4897-.81015 1.4386l.01026.3061z" fill="url(#J)"/><path d="m21.836 15.3956c.2125-.4351.3239-.9209.3239-1.4269 0-.4673-.0962-.9058-.2686-1.3055h.0053c-.0804-.181-.1708-.352-.2812-.513l-.002-.0031c-.3441-.5262-.5263-1.1436-.5263-1.771v-.0101c0-1.82162-1.4775-3.29915-3.2991-3.29915-.1822 0-.3542-.08096-.4554-.23276-.5971-.82984-1.5788-1.37633-2.6819-1.37633s-2.0847.54649-2.6818 1.37633c-.1012.14168-.2733.23276-.4554.23276-.0285 0-.0568.00036-.0851.00108-1.78229.04512-3.21406 1.50487-3.21406 3.29807v.0101c0 .6274-.18216 1.2448-.52624 1.771l-.00229.0037c-.34263.5254-.54409 1.1414-.54409 1.8179 0 .5161.12144.9918.32384 1.4269.07085.1417.07085.3138 0 .4554-.2024.4251-.32384.9007-.32384 1.4067 0 1.7812 1.43705 3.2182 3.21818 3.2182h8.5818c1.7811 0 3.2182-1.437 3.2182-3.2182 0-.506-.1215-.9816-.3239-1.4067-.0708-.1416-.0708-.3137 0-.4554zm-12.26014-2.6724h-.01231l1.19865 2.3556c.1233 2.8025 1.2171 0 3.8885 0s3.8364 3.1194 3.9597.3168l1.1358-3.1971c-.0537-1.2448-.9558-1.3322-1.1358-1.3322h-3.2201c-1.2716 0-2.4714-.6224-3.1892-1.67329-.1231-.17345-.3794-.14284-.4615.05101l-.082.19386c-.2256.56117-.6563.98972-1.1896 1.23452-.0153.0051-.0333.0128-.0512.0204-.018.0077-.0359.0154-.0513.0205-.2359.1224-.78964.4897-.81015 1.4386l.01026.3061z" fill="url(#K)"/><path d="m21.836 15.3956c.2125-.4351.3239-.9209.3239-1.4269 0-.4673-.0962-.9058-.2686-1.3055h.0053c-.0804-.181-.1708-.352-.2812-.513l-.002-.0031c-.3441-.5262-.5263-1.1436-.5263-1.771v-.0101c0-1.82162-1.4775-3.29915-3.2991-3.29915-.1822 0-.3542-.08096-.4554-.23276-.5971-.82984-1.5788-1.37633-2.6819-1.37633s-2.0847.54649-2.6818 1.37633c-.1012.14168-.2733.23276-.4554.23276-.0285 0-.0568.00036-.0851.00108-1.78229.04512-3.21406 1.50487-3.21406 3.29807v.0101c0 .6274-.18216 1.2448-.52624 1.771l-.00229.0037c-.34263.5254-.54409 1.1414-.54409 1.8179 0 .5161.12144.9918.32384 1.4269.07085.1417.07085.3138 0 .4554-.2024.4251-.32384.9007-.32384 1.4067 0 1.7812 1.43705 3.2182 3.21818 3.2182h8.5818c1.7811 0 3.2182-1.437 3.2182-3.2182 0-.506-.1215-.9816-.3239-1.4067-.0708-.1416-.0708-.3137 0-.4554zm-12.26014-2.6724h-.01231l1.19865 2.3556c.1233 2.8025 1.2171 0 3.8885 0s3.8364 3.1194 3.9597.3168l1.1358-3.1971c-.0537-1.2448-.9558-1.3322-1.1358-1.3322h-3.2201c-1.2716 0-2.4714-.6224-3.1892-1.67329-.1231-.17345-.3794-.14284-.4615.05101l-.082.19386c-.2256.56117-.6563.98972-1.1896 1.23452-.0153.0051-.0333.0128-.0512.0204-.018.0077-.0359.0154-.0513.0205-.2359.1224-.78964.4897-.81015 1.4386l.01026.3061z" fill="url(#L)"/><path d="m21.836 15.3956c.2125-.4351.3239-.9209.3239-1.4269 0-.4673-.0962-.9058-.2686-1.3055h.0053c-.0804-.181-.1708-.352-.2812-.513l-.002-.0031c-.3441-.5262-.5263-1.1436-.5263-1.771v-.0101c0-1.82162-1.4775-3.29915-3.2991-3.29915-.1822 0-.3542-.08096-.4554-.23276-.5971-.82984-1.5788-1.37633-2.6819-1.37633s-2.0847.54649-2.6818 1.37633c-.1012.14168-.2733.23276-.4554.23276-.0285 0-.0568.00036-.0851.00108-1.78229.04512-3.21406 1.50487-3.21406 3.29807v.0101c0 .6274-.18216 1.2448-.52624 1.771l-.00229.0037c-.34263.5254-.54409 1.1414-.54409 1.8179 0 .5161.12144.9918.32384 1.4269.07085.1417.07085.3138 0 .4554-.2024.4251-.32384.9007-.32384 1.4067 0 1.7812 1.43705 3.2182 3.21818 3.2182h8.5818c1.7811 0 3.2182-1.437 3.2182-3.2182 0-.506-.1215-.9816-.3239-1.4067-.0708-.1416-.0708-.3137 0-.4554zm-12.26014-2.6724h-.01231l1.19865 2.3556c.1233 2.8025 1.2171 0 3.8885 0s3.8364 3.1194 3.9597.3168l1.1358-3.1971c-.0537-1.2448-.9558-1.3322-1.1358-1.3322h-3.2201c-1.2716 0-2.4714-.6224-3.1892-1.67329-.1231-.17345-.3794-.14284-.4615.05101l-.082.19386c-.2256.56117-.6563.98972-1.1896 1.23452-.0153.0051-.0333.0128-.0512.0204-.018.0077-.0359.0154-.0513.0205-.2359.1224-.78964.4897-.81015 1.4386l.01026.3061z" fill="url(#M)"/><path d="m21.836 15.3956c.2125-.4351.3239-.9209.3239-1.4269 0-.4673-.0962-.9058-.2686-1.3055h.0053c-.0804-.181-.1708-.352-.2812-.513l-.002-.0031c-.3441-.5262-.5263-1.1436-.5263-1.771v-.0101c0-1.82162-1.4775-3.29915-3.2991-3.29915-.1822 0-.3542-.08096-.4554-.23276-.5971-.82984-1.5788-1.37633-2.6819-1.37633s-2.0847.54649-2.6818 1.37633c-.1012.14168-.2733.23276-.4554.23276-.0285 0-.0568.00036-.0851.00108-1.78229.04512-3.21406 1.50487-3.21406 3.29807v.0101c0 .6274-.18216 1.2448-.52624 1.771l-.00229.0037c-.34263.5254-.54409 1.1414-.54409 1.8179 0 .5161.12144.9918.32384 1.4269.07085.1417.07085.3138 0 .4554-.2024.4251-.32384.9007-.32384 1.4067 0 1.7812 1.43705 3.2182 3.21818 3.2182h8.5818c1.7811 0 3.2182-1.437 3.2182-3.2182 0-.506-.1215-.9816-.3239-1.4067-.0708-.1416-.0708-.3137 0-.4554zm-12.26014-2.6724h-.01231l1.19865 2.3556c.1233 2.8025 1.2171 0 3.8885 0s3.8364 3.1194 3.9597.3168l1.1358-3.1971c-.0537-1.2448-.9558-1.3322-1.1358-1.3322h-3.2201c-1.2716 0-2.4714-.6224-3.1892-1.67329-.1231-.17345-.3794-.14284-.4615.05101l-.082.19386c-.2256.56117-.6563.98972-1.1896 1.23452-.0153.0051-.0333.0128-.0512.0204-.018.0077-.0359.0154-.0513.0205-.2359.1224-.78964.4897-.81015 1.4386l.01026.3061z" fill="url(#N)"/><path d="m21.836 15.3956c.2125-.4351.3239-.9209.3239-1.4269 0-.4673-.0962-.9058-.2686-1.3055h.0053c-.0804-.181-.1708-.352-.2812-.513l-.002-.0031c-.3441-.5262-.5263-1.1436-.5263-1.771v-.0101c0-1.82162-1.4775-3.29915-3.2991-3.29915-.1822 0-.3542-.08096-.4554-.23276-.5971-.82984-1.5788-1.37633-2.6819-1.37633s-2.0847.54649-2.6818 1.37633c-.1012.14168-.2733.23276-.4554.23276-.0285 0-.0568.00036-.0851.00108-1.78229.04512-3.21406 1.50487-3.21406 3.29807v.0101c0 .6274-.18216 1.2448-.52624 1.771l-.00229.0037c-.34263.5254-.54409 1.1414-.54409 1.8179 0 .5161.12144.9918.32384 1.4269.07085.1417.07085.3138 0 .4554-.2024.4251-.32384.9007-.32384 1.4067 0 1.7812 1.43705 3.2182 3.21818 3.2182h8.5818c1.7811 0 3.2182-1.437 3.2182-3.2182 0-.506-.1215-.9816-.3239-1.4067-.0708-.1416-.0708-.3137 0-.4554zm-12.26014-2.6724h-.01231l1.19865 2.3556c.1233 2.8025 1.2171 0 3.8885 0s3.8364 3.1194 3.9597.3168l1.1358-3.1971c-.0537-1.2448-.9558-1.3322-1.1358-1.3322h-3.2201c-1.2716 0-2.4714-.6224-3.1892-1.67329-.1231-.17345-.3794-.14284-.4615.05101l-.082.19386c-.2256.56117-.6563.98972-1.1896 1.23452-.0153.0051-.0333.0128-.0512.0204-.018.0077-.0359.0154-.0513.0205-.2359.1224-.78964.4897-.81015 1.4386l.01026.3061z" fill="url(#O)"/></g><path d="m21.836 15.3956c.2125-.4351.3239-.9209.3239-1.4269 0-.4673-.0962-.9058-.2686-1.3055h.0053c-.0804-.181-.1708-.352-.2812-.513l-.002-.0031c-.3441-.5262-.5263-1.1436-.5263-1.771v-.0101c0-1.82162-1.4775-3.29915-3.2991-3.29915-.1822 0-.3542-.08096-.4554-.23276-.5971-.82984-1.5788-1.37633-2.6819-1.37633s-2.0847.54649-2.6818 1.37633c-.1012.14168-.2733.23276-.4554.23276-.0285 0-.0568.00036-.0851.00108-1.78229.04512-3.21406 1.50487-3.21406 3.29807v.0101c0 .6274-.18216 1.2448-.52624 1.771l-.00229.0037c-.34263.5254-.54409 1.1414-.54409 1.8179 0 .5161.12144.9918.32384 1.4269.07085.1417.07085.3138 0 .4554-.2024.4251-.32384.9007-.32384 1.4067 0 1.7812 1.43705 3.2182 3.21818 3.2182h8.5818c1.7811 0 3.2182-1.437 3.2182-3.2182 0-.506-.1215-.9816-.3239-1.4067-.0708-.1416-.0708-.3137 0-.4554zm-12.26014-2.6724h-.01231l1.19865 2.3556c.1233 2.8025 1.2171 0 3.8885 0s3.8364 3.1194 3.9597.3168l1.1358-3.1971c-.0537-1.2448-.9558-1.3322-1.1358-1.3322h-3.2201c-1.2716 0-2.4714-.6224-3.1892-1.67329-.1231-.17345-.3794-.14284-.4615.05101l-.082.19386c-.2256.56117-.6563.98972-1.1896 1.23452-.0153.0051-.0333.0128-.0512.0204-.018.0077-.0359.0154-.0513.0205-.2359.1224-.78964.4897-.81015 1.4386l.01026.3061z" fill="url(#P)"/><path d="m21.836 15.3956c.2125-.4351.3239-.9209.3239-1.4269 0-.4673-.0962-.9058-.2686-1.3055h.0053c-.0804-.181-.1708-.352-.2812-.513l-.002-.0031c-.3441-.5262-.5263-1.1436-.5263-1.771v-.0101c0-1.82162-1.4775-3.29915-3.2991-3.29915-.1822 0-.3542-.08096-.4554-.23276-.5971-.82984-1.5788-1.37633-2.6819-1.37633s-2.0847.54649-2.6818 1.37633c-.1012.14168-.2733.23276-.4554.23276-.0285 0-.0568.00036-.0851.00108-1.78229.04512-3.21406 1.50487-3.21406 3.29807v.0101c0 .6274-.18216 1.2448-.52624 1.771l-.00229.0037c-.34263.5254-.54409 1.1414-.54409 1.8179 0 .5161.12144.9918.32384 1.4269.07085.1417.07085.3138 0 .4554-.2024.4251-.32384.9007-.32384 1.4067 0 1.7812 1.43705 3.2182 3.21818 3.2182h8.5818c1.7811 0 3.2182-1.437 3.2182-3.2182 0-.506-.1215-.9816-.3239-1.4067-.0708-.1416-.0708-.3137 0-.4554zm-12.26014-2.6724h-.01231l1.19865 2.3556c.1233 2.8025 1.2171 0 3.8885 0s3.8364 3.1194 3.9597.3168l1.1358-3.1971c-.0537-1.2448-.9558-1.3322-1.1358-1.3322h-3.2201c-1.2716 0-2.4714-.6224-3.1892-1.67329-.1231-.17345-.3794-.14284-.4615.05101l-.082.19386c-.2256.56117-.6563.98972-1.1896 1.23452-.0153.0051-.0333.0128-.0512.0204-.018.0077-.0359.0154-.0513.0205-.2359.1224-.78964.4897-.81015 1.4386l.01026.3061z" fill="url(#Q)"/></g><path d="m3.60876 29.9773c0-5.9155 4.85417-10.7109 10.84214-10.7109 5.9879 0 10.8421 4.7954 10.8421 10.7109v.4634h-21.68424z" fill="url(#R)"/><path d="m3.60876 29.9773c0-5.9155 4.85417-10.7109 10.84214-10.7109 5.9879 0 10.8421 4.7954 10.8421 10.7109v.4634h-21.68424z" fill="url(#S)"/><path d="m3.60876 29.9773c0-5.9155 4.85417-10.7109 10.84214-10.7109 5.9879 0 10.8421 4.7954 10.8421 10.7109v.4634h-21.68424z" fill="url(#T)"/><path d="m3.60876 29.9773c0-5.9155 4.85417-10.7109 10.84214-10.7109 5.9879 0 10.8421 4.7954 10.8421 10.7109v.4634h-21.68424z" fill="url(#U)"/><path d="m3.60876 29.9773c0-5.9155 4.85417-10.7109 10.84214-10.7109 5.9879 0 10.8421 4.7954 10.8421 10.7109v.4634h-21.68424z" fill="url(#V)"/><path d="m21.5844 30.4408h3.7086v-.4634c0-3.2171-1.4357-6.1029-3.7086-8.0663z" fill="url(#W)"/><path d="m21.5844 30.4408h3.7086v-.4634c0-3.2171-1.4357-6.1029-3.7086-8.0663z" fill="url(#X)"/><path d="m7.31738 21.9111c-2.27295 1.9634-3.70862 4.8492-3.70862 8.0663v.4634h3.70862z" fill="#955ece"/><path d="m7.31738 21.9111c-2.27295 1.9634-3.70862 4.8492-3.70862 8.0663v.4634h3.70862z" fill="url(#Y)"/><path d="m7.31738 21.9111c-2.27295 1.9634-3.70862 4.8492-3.70862 8.0663v.4634h3.70862z" fill="url(#Z)"/><path d="m12.6385 19.0603h3.9844v1.3828c0 1.1003-.8919 1.8125-1.9922 1.8125-1.1002 0-1.9922-.7122-1.9922-1.8125z" fill="#faa626"/><path d="m12.6385 19.0603h3.9844v1.3828c0 1.1003-.8919 1.8125-1.9922 1.8125-1.1002 0-1.9922-.7122-1.9922-1.8125z" fill="url(#aa)"/><path d="m12.6385 19.0603h3.9844v1.3828c0 1.1003-.8919 1.8125-1.9922 1.8125-1.1002 0-1.9922-.7122-1.9922-1.8125z" fill="url(#ab)"/><g filter="url(#b)"><path d="m9.96492 15.5951c.88868 0 1.60908-.7204 1.60908-1.6091 0-.8886-.7204-1.609-1.60908-1.609-.88867 0-1.60909.7204-1.60909 1.609 0 .8887.72042 1.6091 1.60909 1.6091z" fill="url(#ac)"/></g><g filter="url(#c)"><path d="m19.4781 15.5951c.8887 0 1.6091-.7204 1.6091-1.6091 0-.8886-.7204-1.609-1.6091-1.609s-1.6091.7204-1.6091 1.609c0 .8887.7204 1.6091 1.6091 1.6091z" fill="url(#ad)"/></g><g filter="url(#d)"><path d="m19.478 15.0601c.5933 0 1.0742-.4809 1.0742-1.0741s-.4809-1.0741-1.0742-1.0741c-.5932 0-1.0741.4809-1.0741 1.0741s.4809 1.0741 1.0741 1.0741z" fill="#ffca38"/><path d="m19.478 15.0601c.5933 0 1.0742-.4809 1.0742-1.0741s-.4809-1.0741-1.0742-1.0741c-.5932 0-1.0741.4809-1.0741 1.0741s.4809 1.0741 1.0741 1.0741z" fill="url(#ae)"/></g><g filter="url(#e)"><path d="m9.98439 15.0601c.59321 0 1.07411-.4809 1.07411-1.0741s-.4809-1.0741-1.07411-1.0741c-.59322 0-1.07411.4809-1.07411 1.0741s.48089 1.0741 1.07411 1.0741z" fill="#e28527"/><path d="m9.98439 15.0601c.59321 0 1.07411-.4809 1.07411-1.0741s-.4809-1.0741-1.07411-1.0741c-.59322 0-1.07411.4809-1.07411 1.0741s.48089 1.0741 1.07411 1.0741z" fill="url(#af)"/></g><g filter="url(#f)"><path d="m9.56349 12.7233h.01232l-.01026-.2653-.01025-.3061c.02051-.9489.5743-1.3162.8101-1.4386.0154-.0051.0334-.0128.0513-.0204.0179-.0077.0359-.0153.0513-.0204.5332-.2449.9639-.67344 1.1895-1.2346l.0821-.19386c.082-.19385.3384-.22446.4614-.05101.7179 1.05087 1.9177 1.67327 3.1893 1.67327h3.22c.1801 0 1.0822.0874 1.1359 1.3322l-.1188 3.0731c-.1233 2.8025-2.3118 4.6843-4.9832 4.6843-2.6715 0-4.85997-1.8818-4.98326-4.6843z" fill="url(#ag)"/><path d="m9.56349 12.7233h.01232l-.01026-.2653-.01025-.3061c.02051-.9489.5743-1.3162.8101-1.4386.0154-.0051.0334-.0128.0513-.0204.0179-.0077.0359-.0153.0513-.0204.5332-.2449.9639-.67344 1.1895-1.2346l.0821-.19386c.082-.19385.3384-.22446.4614-.05101.7179 1.05087 1.9177 1.67327 3.1893 1.67327h3.22c.1801 0 1.0822.0874 1.1359 1.3322l-.1188 3.0731c-.1233 2.8025-2.3118 4.6843-4.9832 4.6843-2.6715 0-4.85997-1.8818-4.98326-4.6843z" fill="url(#ah)"/><path d="m9.56349 12.7233h.01232l-.01026-.2653-.01025-.3061c.02051-.9489.5743-1.3162.8101-1.4386.0154-.0051.0334-.0128.0513-.0204.0179-.0077.0359-.0153.0513-.0204.5332-.2449.9639-.67344 1.1895-1.2346l.0821-.19386c.082-.19385.3384-.22446.4614-.05101.7179 1.05087 1.9177 1.67327 3.1893 1.67327h3.22c.1801 0 1.0822.0874 1.1359 1.3322l-.1188 3.0731c-.1233 2.8025-2.3118 4.6843-4.9832 4.6843-2.6715 0-4.85997-1.8818-4.98326-4.6843z" fill="url(#ai)"/><path d="m9.56349 12.7233h.01232l-.01026-.2653-.01025-.3061c.02051-.9489.5743-1.3162.8101-1.4386.0154-.0051.0334-.0128.0513-.0204.0179-.0077.0359-.0153.0513-.0204.5332-.2449.9639-.67344 1.1895-1.2346l.0821-.19386c.082-.19385.3384-.22446.4614-.05101.7179 1.05087 1.9177 1.67327 3.1893 1.67327h3.22c.1801 0 1.0822.0874 1.1359 1.3322l-.1188 3.0731c-.1233 2.8025-2.3118 4.6843-4.9832 4.6843-2.6715 0-4.85997-1.8818-4.98326-4.6843z" fill="url(#aj)"/><path d="m9.56349 12.7233h.01232l-.01026-.2653-.01025-.3061c.02051-.9489.5743-1.3162.8101-1.4386.0154-.0051.0334-.0128.0513-.0204.0179-.0077.0359-.0153.0513-.0204.5332-.2449.9639-.67344 1.1895-1.2346l.0821-.19386c.082-.19385.3384-.22446.4614-.05101.7179 1.05087 1.9177 1.67327 3.1893 1.67327h3.22c.1801 0 1.0822.0874 1.1359 1.3322l-.1188 3.0731c-.1233 2.8025-2.3118 4.6843-4.9832 4.6843-2.6715 0-4.85997-1.8818-4.98326-4.6843z" fill="url(#ak)"/><path d="m9.56349 12.7233h.01232l-.01026-.2653-.01025-.3061c.02051-.9489.5743-1.3162.8101-1.4386.0154-.0051.0334-.0128.0513-.0204.0179-.0077.0359-.0153.0513-.0204.5332-.2449.9639-.67344 1.1895-1.2346l.0821-.19386c.082-.19385.3384-.22446.4614-.05101.7179 1.05087 1.9177 1.67327 3.1893 1.67327h3.22c.1801 0 1.0822.0874 1.1359 1.3322l-.1188 3.0731c-.1233 2.8025-2.3118 4.6843-4.9832 4.6843-2.6715 0-4.85997-1.8818-4.98326-4.6843z" fill="url(#al)"/><path d="m9.56349 12.7233h.01232l-.01026-.2653-.01025-.3061c.02051-.9489.5743-1.3162.8101-1.4386.0154-.0051.0334-.0128.0513-.0204.0179-.0077.0359-.0153.0513-.0204.5332-.2449.9639-.67344 1.1895-1.2346l.0821-.19386c.082-.19385.3384-.22446.4614-.05101.7179 1.05087 1.9177 1.67327 3.1893 1.67327h3.22c.1801 0 1.0822.0874 1.1359 1.3322l-.1188 3.0731c-.1233 2.8025-2.3118 4.6843-4.9832 4.6843-2.6715 0-4.85997-1.8818-4.98326-4.6843z" fill="url(#am)"/></g><path d="m9.56349 12.7233h.01232l-.01026-.2653-.01025-.3061c.02051-.9489.5743-1.3162.8101-1.4386.0154-.0051.0334-.0128.0513-.0204.0179-.0077.0359-.0153.0513-.0204.5332-.2449.9639-.67344 1.1895-1.2346l.0821-.19386c.082-.19385.3384-.22446.4614-.05101.7179 1.05087 1.9177 1.67327 3.1893 1.67327h3.22c.1801 0 1.0822.0874 1.1359 1.3322l-.1188 3.0731c-.1233 2.8025-2.3118 4.6843-4.9832 4.6843-2.6715 0-4.85997-1.8818-4.98326-4.6843z" fill="url(#an)"/><g filter="url(#g)"><path d="m14.2581 13.7632-.6836 1.7c-.1085.3496.1519.6993.5206.6993h.7864c.3688 0 .6291-.355.5206-.6993l-.5314-1.7c-.1139-.3766-.4933-.3766-.6126 0z" fill="#eb8b29"/></g><g filter="url(#h)"><path d="m14.2686 13.6247-.5315 1.7c-.1085.3497.1519.6994.5206.6994h.7864c.3688 0 .6291-.3551.5206-.6994l-.5315-1.7c-.1138-.3766-.6453-.3766-.7646 0z" fill="url(#ao)"/><path d="m14.2686 13.6247-.5315 1.7c-.1085.3497.1519.6994.5206.6994h.7864c.3688 0 .6291-.3551.5206-.6994l-.5315-1.7c-.1138-.3766-.6453-.3766-.7646 0z" fill="url(#ap)"/><path d="m14.2686 13.6247-.5315 1.7c-.1085.3497.1519.6994.5206.6994h.7864c.3688 0 .6291-.3551.5206-.6994l-.5315-1.7c-.1138-.3766-.6453-.3766-.7646 0z" fill="url(#aq)"/><path d="m14.2686 13.6247-.5315 1.7c-.1085.3497.1519.6994.5206.6994h.7864c.3688 0 .6291-.3551.5206-.6994l-.5315-1.7c-.1138-.3766-.6453-.3766-.7646 0z" fill="url(#ar)"/></g><g filter="url(#i)"><path d="m14.651 16.8975c-.5208 0-1.0103-.1253-1.4216-.3447-.1406-.0731-.2916.0888-.2031.2194.3437.5327.9425.8878 1.6247.8878.6821 0 1.281-.3551 1.6246-.8878.0886-.1358-.0624-.2925-.203-.2194-.4114.2194-.8957.3447-1.4216.3447z" stroke="url(#as)" stroke-width=".2"/></g><path d="m14.651 16.8975c-.5208 0-1.0103-.1253-1.4216-.3447-.1406-.0731-.2916.0888-.2031.2194.3437.5327.9425.8878 1.6247.8878.6821 0 1.281-.3551 1.6246-.8878.0886-.1358-.0624-.2925-.203-.2194-.4114.2194-.8957.3447-1.4216.3447z" fill="#8a004f"/><g filter="url(#j)"><path d="m15.7927 13.4168c.2654-.4668.6689-.8355 1.5374-.8355.3802 0 .7469.1053 1.0728.3687.2688.2173.2328.4952.0246.5993l-.556.3174c-.6518-.2107-1.3726-.2392-2.0788-.4499z" fill="#635d5f"/></g><g filter="url(#k)"><path d="m13.5088 13.4168c-.2654-.4668-.6689-.8355-1.5374-.8355-.3802 0-.7469.1053-1.0728.3687-.2688.2173-.2328.4952-.0246.5993l.556.3174c.6519-.2107 1.3726-.2392 2.0788-.4499z" fill="#635d5f"/></g><g filter="url(#l)"><path d="m11.2532 12.2079-.0044.0026c-.0001.0001-.0003.0001-.0004.0002-.1269.0758-.2914.0346-.3675-.0922-.0762-.127-.0349-.2918.0921-.368l.0006-.0004.001-.0006.003-.0017.0094-.0055c.0078-.0045.0187-.0106.0324-.018.0275-.0149.0666-.0353.116-.0588.0985-.047.239-.1071.4101-.1617.3399-.1085.8152-.1998 1.3283-.1092.1459.0257.2432.1648.2175.3107s-.1649.2432-.3107.2175c-.3988-.0704-.7816-.0007-1.072.0919-.1439.046-.2616.0965-.3424.135-.0403.0192-.0712.0353-.0913.0462-.01.0054-.0173.0095-.0217.012z" fill="#bd4f26"/></g><g filter="url(#m)"><path clip-rule="evenodd" d="m18.3823 11.7505c.0001 0 .0002 0-.1378.23l.1378-.23c.127.0762.1683.241.0921.368-.0761.1268-.2405.1681-.3674.0923-.0001-.0001-.0002-.0002-.0005-.0003l-.0044-.0026c-.0044-.0025-.0117-.0066-.0217-.012-.0201-.0109-.051-.027-.0913-.0462-.0808-.0385-.1985-.089-.3424-.135-.2904-.0926-.6732-.1623-1.072-.0919-.1458.0257-.2849-.0716-.3107-.2175-.0257-.1459.0716-.285.2175-.3107.5131-.0906.9884.0007 1.3283.1092.1711.0546.3116.1147.4101.1617.0494.0235.0885.0439.116.0588.0137.0074.0246.0135.0324.018l.0094.0055.003.0017.001.0006z" fill="#bd4f26" fill-rule="evenodd"/></g><path d="m17.0419 12.6401c.6531 0 1.2048.4503 1.3549 1.0588.0446.1744-.0893.3408-.2678.3408h-2.2311c-.1419 0-.2555-.1299-.2271-.2718.1257-.641.6896-1.1278 1.3711-1.1278z" fill="#fff"/><path d="m16.8349 12.9119c.4949 0 .8924.4016.8924.8924 0 .0811-.0122.1623-.0324.2353h-1.7241c-.0203-.0771-.0324-.1542-.0324-.2353 0-.4908.4016-.8924.8965-.8924z" fill="url(#au)"/><path d="m16.3236 13.8043c0-.2839.2272-.5111.5111-.5111.284 0 .5112.2272.5112.5111 0 .0852-.0203.1664-.0568.2353h-.9046c-.0406-.0689-.0609-.1501-.0609-.2353z" fill="#000"/><g filter="url(#n)"><path d="m16.7686 13.1008c.0636.0849-.0692.1885-.2202.3014s-.263.1923-.3266.1074c-.0635-.085.0074-.2454.1584-.3583s.3249-.1355.3884-.0505z" fill="#c7a7a3"/><path d="m16.7686 13.1008c.0636.0849-.0692.1885-.2202.3014s-.263.1923-.3266.1074c-.0635-.085.0074-.2454.1584-.3583s.3249-.1355.3884-.0505z" fill="url(#aw)"/></g><g filter="url(#o)"><path d="m17.6294 13.6865c-.033-.2306-.1679-.4043-.2312-.4624l-.2597.285.1172.228z" fill="url(#ay)"/></g><path d="m12.2599 12.6401c-.6531 0-1.2048.4503-1.3549 1.0588-.0446.1744.0893.3408.2677.3408h2.2312c.142 0 .2555-.1298.2271-.2718-.1257-.641-.6936-1.1278-1.3711-1.1278z" fill="#fff"/><path d="m12.4665 12.9119c-.4949 0-.8924.4016-.8924.8924 0 .0812.0122.1623.0324.2353h1.7241c.0203-.0771.0325-.1541.0325-.2353-.0041-.4908-.4016-.8924-.8966-.8924z" fill="url(#az)"/><path d="m12.9777 13.8043c0-.2839-.2272-.5111-.5111-.5111-.284 0-.5112.2272-.5112.5111 0 .0852.0203.1664.0568.2353h.9047c.0365-.0689.0608-.1501.0608-.2353z" fill="#000"/><g filter="url(#p)"><path d="m13.2815 13.699c0-.2882-.2343-.4803-.2977-.5384l-.2881.2787.1773.361z" fill="url(#aA)"/></g><g filter="url(#q)"><ellipse cx="12.197" cy="13.293" fill="#c7a7a3" fill-opacity=".9" rx=".389" ry=".197" transform="matrix(.88365127 -.46814574 .46814574 .88365127 -4.803991 7.256656)"/><ellipse cx="12.197" cy="13.293" fill="url(#aB)" rx=".389" ry=".197" transform="matrix(.88365127 -.46814574 .46814574 .88365127 -4.803991 7.256656)"/></g><g filter="url(#r)"><path d="m16.5902 11.6132c.3226-.0785 1.1246-.0392 1.6608.3444" stroke="#c9725d" stroke-linecap="round" stroke-width=".2"/></g><g filter="url(#s)"><path d="m12.7994 11.6132c-.3225-.0785-1.1246-.0392-1.6607.3444" stroke="#c9725d" stroke-linecap="round" stroke-width=".2"/></g><g filter="url(#t)"><path d="m9.7566 7.9721c.6211-.55313 1.5169-.55871 2.0197-.46932l.4023 1.29062c-.257-.03911-.4861.05028-.6788.23466-.4559 1.26044-2.02255 1.95544-2.74888 2.14544-.15085-1.49175-.06704-2.24601 1.00568-3.2014z" fill="url(#aC)"/><path d="m9.7566 7.9721c.6211-.55313 1.5169-.55871 2.0197-.46932l.4023 1.29062c-.257-.03911-.4861.05028-.6788.23466-.4559 1.26044-2.02255 1.95544-2.74888 2.14544-.15085-1.49175-.06704-2.24601 1.00568-3.2014z" fill="url(#aD)"/></g><g filter="url(#u)"><path d="m14.0473 6.19518c-1.1327-.25007-2.3466.9554-2.4639 1.37443 1.542 3.62049 3.9099 3.27539 6.5369 2.98349 1.5726-.1747 1.7432.542 1.8773.8884-.4358-4.05626-3.3691-4.67643-5.9503-5.24632z" fill="url(#aE)"/><path d="m14.0473 6.19518c-1.1327-.25007-2.3466.9554-2.4639 1.37443 1.542 3.62049 3.9099 3.27539 6.5369 2.98349 1.5726-.1747 1.7432.542 1.8773.8884-.4358-4.05626-3.3691-4.67643-5.9503-5.24632z" fill="url(#aF)"/><path d="m14.0473 6.19518c-1.1327-.25007-2.3466.9554-2.4639 1.37443 1.542 3.62049 3.9099 3.27539 6.5369 2.98349 1.5726-.1747 1.7432.542 1.8773.8884-.4358-4.05626-3.3691-4.67643-5.9503-5.24632z" fill="url(#aG)"/></g><g filter="url(#v)"><path d="m11.7596 7.44409c.0233.24304.2347 1.15653.5448 1.70966" stroke="url(#aH)" stroke-linecap="round" stroke-width=".1"/></g><path d="m20.7103 7.73376c-1.2625.4625-2.1015.41406-2.6484.17187l-1.1719 2.85157c1.2891.0547 3.8008-.332 5.5625-2.38282.8433-.98168.9961-1.91016.6563-2.58594-.0612-.12171-.1823-.17223-.2696-.14843-.0859.02343-.1594.1084-.1875.20703-.1613.56654-.538 1.37261-1.9414 1.88672z" fill="url(#aI)"/><path d="m20.7103 7.73376c-1.2625.4625-2.1015.41406-2.6484.17187l-1.1719 2.85157c1.2891.0547 3.8008-.332 5.5625-2.38282.8433-.98168.9961-1.91016.6563-2.58594-.0612-.12171-.1823-.17223-.2696-.14843-.0859.02343-.1594.1084-.1875.20703-.1613.56654-.538 1.37261-1.9414 1.88672z" fill="url(#aJ)"/><path d="m20.7103 7.73376c-1.2625.4625-2.1015.41406-2.6484.17187l-1.1719 2.85157c1.2891.0547 3.8008-.332 5.5625-2.38282.8433-.98168.9961-1.91016.6563-2.58594-.0612-.12171-.1823-.17223-.2696-.14843-.0859.02343-.1594.1084-.1875.20703-.1613.56654-.538 1.37261-1.9414 1.88672z" fill="url(#aK)"/><path d="m20.7103 7.73376c-1.2625.4625-2.1015.41406-2.6484.17187l-1.1719 2.85157c1.2891.0547 3.8008-.332 5.5625-2.38282.8433-.98168.9961-1.91016.6563-2.58594-.0612-.12171-.1823-.17223-.2696-.14843-.0859.02343-.1594.1084-.1875.20703-.1613.56654-.538 1.37261-1.9414 1.88672z" fill="url(#aL)"/><path d="m20.7103 7.73376c-1.2625.4625-2.1015.41406-2.6484.17187l-1.1719 2.85157c1.2891.0547 3.8008-.332 5.5625-2.38282.8433-.98168.9961-1.91016.6563-2.58594-.0612-.12171-.1823-.17223-.2696-.14843-.0859.02343-.1594.1084-.1875.20703-.1613.56654-.538 1.37261-1.9414 1.88672z" fill="url(#aM)"/><path d="m20.7103 7.73376c-1.2625.4625-2.1015.41406-2.6484.17187l-1.1719 2.85157c1.2891.0547 3.8008-.332 5.5625-2.38282.8433-.98168.9961-1.91016.6563-2.58594-.0612-.12171-.1823-.17223-.2696-.14843-.0859.02343-.1594.1084-.1875.20703-.1613.56654-.538 1.37261-1.9414 1.88672z" fill="url(#aN)"/><path d="m24.3344 3.72827-1.3882 4.83094 1.1865.34485 1.0716-3.72901c.175-.60912-.1758-1.24503-.7843-1.42192z" fill="url(#aP)"/><path d="m24.3344 3.72827-1.3882 4.83094 1.1865.34485 1.0716-3.72901c.175-.60912-.1758-1.24503-.7843-1.42192z" fill="url(#aQ)"/><path d="m19.686 6.30518 5.4193 1.53608-.337 1.18876-4.3128-1.22248c-.6111-.1732-.966-.80897-.7928-1.42002z" fill="url(#aR)"/><path d="m19.686 6.30518 5.4193 1.53608-.337 1.18876-4.3128-1.22248c-.6111-.1732-.966-.80897-.7928-1.42002z" fill="url(#aS)"/><g filter="url(#w)"><circle cx="23.731" cy="8.084" fill="url(#aT)" r=".313"/><circle cx="23.731" cy="8.084" fill="url(#aU)" r=".313"/><circle cx="23.731" cy="8.084" fill="url(#aV)" r=".313"/></g><g filter="url(#x)"><path clip-rule="evenodd" d="m23.0051 8.52673c-.0531-.01546-.1085.015-.124.06802l-.1041.35701c-.023.07915-.0926.13501-.174.14831-.8749.14292-1.5426.90233-1.5426 1.81763 0 1.0172.8246 1.8418 1.8418 1.8418s1.8418-.8246 1.8418-1.8418c0-.5517-.2425-1.04665-.6267-1.3842-.0625-.05484-.0917-.13991-.0684-.21968l.1017-.34905c.0154-.05302-.015-.10853-.0681-.12399zm.7409 2.39097c0 .466-.3778.8437-.8438.8437-.4659 0-.8437-.3777-.8437-.8437s.3778-.8438.8437-.8438c.466 0 .8438.3778.8438.8438z" fill="url(#aX)" fill-rule="evenodd"/></g><path clip-rule="evenodd" d="m23.0051 8.52673c-.0531-.01546-.1085.015-.124.06802l-.1041.35701c-.023.07915-.0926.13501-.174.14831-.8749.14292-1.5426.90233-1.5426 1.81763 0 1.0172.8246 1.8418 1.8418 1.8418s1.8418-.8246 1.8418-1.8418c0-.5517-.2425-1.04665-.6267-1.3842-.0625-.05484-.0917-.13991-.0684-.21968l.1017-.34905c.0154-.05302-.015-.10853-.0681-.12399zm.7409 2.39097c0 .466-.3778.8437-.8438.8437-.4659 0-.8437-.3777-.8437-.8437s.3778-.8438.8437-.8438c.466 0 .8438.3778.8438.8438z" fill="url(#aY)" fill-rule="evenodd"/><g filter="url(#y)"><path clip-rule="evenodd" d="m24.4495 7.73974c.0142-.05344.069-.08513.1224-.07098l.3594.09553c.0796.02118.1634-.00949.2169-.07226.5747-.67499 1.5699-.85381 2.3534-.38051.8707.52597 1.1501 1.65814.6241 2.52881s-1.6582 1.15007-2.5288.62407c-.4722-.2852-.7705-.74873-.8607-1.25215-.0147-.08179-.0724-.15078-.1527-.17212l-.3514-.0934c-.0533-.01425-.0851-.06897-.0709-.12241zm1.6635 1.87044c.3988.24095.9175.1129 1.1584-.28591.241-.39882.113-.91753-.2859-1.15849-.3988-.24095-.9175-.1129-1.1585.28591-.2409.39882-.1129.91753.286 1.15849z" fill="url(#aZ)" fill-rule="evenodd"/></g><g filter="url(#z)"><circle cx="26.551" cy="8.888" r="1.671" stroke="url(#a0)" stroke-width=".1"/></g><g filter="url(#A)"><circle cx="26.551" cy="8.888" r="1.117" stroke="url(#a1)" stroke-width=".1"/></g><g filter="url(#B)"><circle cx="22.902" cy="10.902" r="1.117" stroke="url(#a2)" stroke-width=".1"/></g><g filter="url(#C)"><circle cx="22.902" cy="10.902" r="1.652" stroke="url(#a3)" stroke-width=".1"/></g></svg>