<svg fill="none" height="32" viewBox="0 0 32 32" width="32" xmlns="http://www.w3.org/2000/svg" xmlns:xlink="http://www.w3.org/1999/xlink"><filter id="a" color-interpolation-filters="sRGB" filterUnits="userSpaceOnUse" height="3.342" width="3.542" x="8.204" y="11.493"><feFlood flood-opacity="0" result="BackgroundImageFix"/><feBlend in="SourceGraphic" in2="BackgroundImageFix" mode="normal" result="shape"/><feColorMatrix in="SourceAlpha" result="hardAlpha" type="matrix" values="0 0 0 0 0 0 0 0 0 0 0 0 0 0 0 0 0 0 127 0"/><feOffset dx=".2"/><feGaussianBlur stdDeviation=".15"/><feComposite in2="hardAlpha" k2="-1" k3="1" operator="arithmetic"/><feColorMatrix type="matrix" values="0 0 0 0 0.517647 0 0 0 0 0.384314 0 0 0 0 0.34902 0 0 0 1 0"/><feBlend in2="shape" mode="normal" result="effect1_innerShadow_4002_29"/></filter><filter id="b" color-interpolation-filters="sRGB" filterUnits="userSpaceOnUse" height="2.992" width="2.992" x="8.379" y="11.668"><feFlood flood-opacity="0" result="BackgroundImageFix"/><feBlend in="SourceGraphic" in2="BackgroundImageFix" mode="normal" result="shape"/><feGaussianBlur result="effect1_foregroundBlur_4002_29" stdDeviation=".25"/></filter><filter id="c" color-interpolation-filters="sRGB" filterUnits="userSpaceOnUse" height="3.592" width="3.592" x="17.726" y="11.243"><feFlood flood-opacity="0" result="BackgroundImageFix"/><feBlend in="SourceGraphic" in2="BackgroundImageFix" mode="normal" result="shape"/><feColorMatrix in="SourceAlpha" result="hardAlpha" type="matrix" values="0 0 0 0 0 0 0 0 0 0 0 0 0 0 0 0 0 0 127 0"/><feOffset dx=".25" dy="-.25"/><feGaussianBlur stdDeviation=".25"/><feComposite in2="hardAlpha" k2="-1" k3="1" operator="arithmetic"/><feColorMatrix type="matrix" values="0 0 0 0 0.482353 0 0 0 0 0.278431 0 0 0 0 0.372549 0 0 0 1 0"/><feBlend in2="shape" mode="normal" result="effect1_innerShadow_4002_29"/></filter><filter id="d" color-interpolation-filters="sRGB" filterUnits="userSpaceOnUse" height="2.992" width="2.992" x="17.901" y="11.668"><feFlood flood-opacity="0" result="BackgroundImageFix"/><feBlend in="SourceGraphic" in2="BackgroundImageFix" mode="normal" result="shape"/><feGaussianBlur result="effect1_foregroundBlur_4002_29" stdDeviation=".25"/></filter><filter id="e" color-interpolation-filters="sRGB" filterUnits="userSpaceOnUse" height="12.189" width="10.383" x="9.464" y="7.534"><feFlood flood-opacity="0" result="BackgroundImageFix"/><feBlend in="SourceGraphic" in2="BackgroundImageFix" mode="normal" result="shape"/><feColorMatrix in="SourceAlpha" result="hardAlpha" type="matrix" values="0 0 0 0 0 0 0 0 0 0 0 0 0 0 0 0 0 0 127 0"/><feOffset dy=".15"/><feGaussianBlur stdDeviation=".125"/><feComposite in2="hardAlpha" k2="-1" k3="1" operator="arithmetic"/><feColorMatrix type="matrix" values="0 0 0 0 0.254902 0 0 0 0 0.137255 0 0 0 0 0.113725 0 0 0 1 0"/><feBlend in2="shape" mode="normal" result="effect1_innerShadow_4002_29"/></filter><filter id="f" color-interpolation-filters="sRGB" filterUnits="userSpaceOnUse" height="7.07" width="8.25" x="12.797" y="5.534"><feFlood flood-opacity="0" result="BackgroundImageFix"/><feBlend in="SourceGraphic" in2="BackgroundImageFix" mode="normal" result="shape"/><feGaussianBlur result="effect1_foregroundBlur_4002_29" stdDeviation="1"/></filter><filter id="g" color-interpolation-filters="sRGB" filterUnits="userSpaceOnUse" height="8.551" width="12.614" x="8.321" y="4.055"><feFlood flood-opacity="0" result="BackgroundImageFix"/><feBlend in="SourceGraphic" in2="BackgroundImageFix" mode="normal" result="shape"/><feColorMatrix in="SourceAlpha" result="hardAlpha" type="matrix" values="0 0 0 0 0 0 0 0 0 0 0 0 0 0 0 0 0 0 127 0"/><feOffset dy="-.5"/><feGaussianBlur stdDeviation=".375"/><feComposite in2="hardAlpha" k2="-1" k3="1" operator="arithmetic"/><feColorMatrix type="matrix" values="0 0 0 0 0.0392157 0 0 0 0 0.00784314 0 0 0 0 0.0196078 0 0 0 1 0"/><feBlend in2="shape" mode="normal" result="effect1_innerShadow_4002_29"/></filter><filter id="h" color-interpolation-filters="sRGB" filterUnits="userSpaceOnUse" height="4.184" width="3.262" x="12.757" y="12.009"><feFlood flood-opacity="0" result="BackgroundImageFix"/><feBlend in="SourceGraphic" in2="BackgroundImageFix" mode="normal" result="shape"/><feGaussianBlur result="effect1_foregroundBlur_4002_29" stdDeviation=".375"/></filter><filter id="i" color-interpolation-filters="sRGB" filterUnits="userSpaceOnUse" height="2.884" width="2.079" x="13.588" y="12.496"><feFlood flood-opacity="0" result="BackgroundImageFix"/><feBlend in="SourceGraphic" in2="BackgroundImageFix" mode="normal" result="shape"/><feGaussianBlur result="effect1_foregroundBlur_4002_29" stdDeviation=".05"/></filter><filter id="j" color-interpolation-filters="sRGB" filterUnits="userSpaceOnUse" height="1.874" width="2.982" x="15.81" y="9.512"><feFlood flood-opacity="0" result="BackgroundImageFix"/><feBlend in="SourceGraphic" in2="BackgroundImageFix" mode="normal" result="shape"/><feColorMatrix in="SourceAlpha" result="hardAlpha" type="matrix" values="0 0 0 0 0 0 0 0 0 0 0 0 0 0 0 0 0 0 127 0"/><feOffset dx=".25" dy="-.4"/><feGaussianBlur stdDeviation=".3"/><feComposite in2="hardAlpha" k2="-1" k3="1" operator="arithmetic"/><feColorMatrix type="matrix" values="0 0 0 0 0.156863 0 0 0 0 0.0784314 0 0 0 0 0.109804 0 0 0 1 0"/><feBlend in2="shape" mode="normal" result="effect1_innerShadow_4002_29"/></filter><filter id="k" color-interpolation-filters="sRGB" filterUnits="userSpaceOnUse" height="1.874" width="2.982" x="10.658" y="9.512"><feFlood flood-opacity="0" result="BackgroundImageFix"/><feBlend in="SourceGraphic" in2="BackgroundImageFix" mode="normal" result="shape"/><feColorMatrix in="SourceAlpha" result="hardAlpha" type="matrix" values="0 0 0 0 0 0 0 0 0 0 0 0 0 0 0 0 0 0 127 0"/><feOffset dx=".25" dy="-.4"/><feGaussianBlur stdDeviation=".3"/><feComposite in2="hardAlpha" k2="-1" k3="1" operator="arithmetic"/><feColorMatrix type="matrix" values="0 0 0 0 0.156863 0 0 0 0 0.0784314 0 0 0 0 0.109804 0 0 0 1 0"/><feBlend in2="shape" mode="normal" result="effect1_innerShadow_4002_29"/></filter><filter id="l" color-interpolation-filters="sRGB" filterUnits="userSpaceOnUse" height=".697" width=".787" x="16.074" y="12.041"><feFlood flood-opacity="0" result="BackgroundImageFix"/><feBlend in="SourceGraphic" in2="BackgroundImageFix" mode="normal" result="shape"/><feGaussianBlur result="effect1_foregroundBlur_4002_29" stdDeviation=".05"/></filter><filter id="m" color-interpolation-filters="sRGB" filterUnits="userSpaceOnUse" height=".914" width=".892" x="16.914" y="12.116"><feFlood flood-opacity="0" result="BackgroundImageFix"/><feBlend in="SourceGraphic" in2="BackgroundImageFix" mode="normal" result="shape"/><feGaussianBlur result="effect1_foregroundBlur_4002_29" stdDeviation=".1"/></filter><filter id="n" color-interpolation-filters="sRGB" filterUnits="userSpaceOnUse" height="1.041" width=".987" x="12.468" y="12.053"><feFlood flood-opacity="0" result="BackgroundImageFix"/><feBlend in="SourceGraphic" in2="BackgroundImageFix" mode="normal" result="shape"/><feGaussianBlur result="effect1_foregroundBlur_4002_29" stdDeviation=".1"/></filter><filter id="o" color-interpolation-filters="sRGB" filterUnits="userSpaceOnUse" height=".705" width=".914" x="11.713" y="12.033"><feFlood flood-opacity="0" result="BackgroundImageFix"/><feBlend in="SourceGraphic" in2="BackgroundImageFix" mode="normal" result="shape"/><feGaussianBlur result="effect1_foregroundBlur_4002_29" stdDeviation=".05"/></filter><filter id="p" color-interpolation-filters="sRGB" filterUnits="userSpaceOnUse" height="1.681" width="3.101" x="15.664" y="9.638"><feFlood flood-opacity="0" result="BackgroundImageFix"/><feBlend in="SourceGraphic" in2="BackgroundImageFix" mode="normal" result="shape"/><feGaussianBlur result="effect1_foregroundBlur_4002_29" stdDeviation=".25"/></filter><filter id="q" color-interpolation-filters="sRGB" filterUnits="userSpaceOnUse" height="1.739" width="3.179" x="10.44" y="9.702"><feFlood flood-opacity="0" result="BackgroundImageFix"/><feBlend in="SourceGraphic" in2="BackgroundImageFix" mode="normal" result="shape"/><feGaussianBlur result="effect1_foregroundBlur_4002_29" stdDeviation=".25"/></filter><filter id="r" color-interpolation-filters="sRGB" filterUnits="userSpaceOnUse" height="2.271" width="1.008" x="9.457" y="7.973"><feFlood flood-opacity="0" result="BackgroundImageFix"/><feBlend in="SourceGraphic" in2="BackgroundImageFix" mode="normal" result="shape"/><feGaussianBlur result="effect1_foregroundBlur_4002_29" stdDeviation=".125"/></filter><filter id="s" color-interpolation-filters="sRGB" filterUnits="userSpaceOnUse" height=".726" width=".726" x="23.426" y="6.587"><feFlood flood-opacity="0" result="BackgroundImageFix"/><feBlend in="SourceGraphic" in2="BackgroundImageFix" mode="normal" result="shape"/><feColorMatrix in="SourceAlpha" result="hardAlpha" type="matrix" values="0 0 0 0 0 0 0 0 0 0 0 0 0 0 0 0 0 0 127 0"/><feOffset dx=".1" dy="-.1"/><feGaussianBlur stdDeviation=".1"/><feComposite in2="hardAlpha" k2="-1" k3="1" operator="arithmetic"/><feColorMatrix type="matrix" values="0 0 0 0 0.52549 0 0 0 0 0.388235 0 0 0 0 0.501961 0 0 0 1 0"/><feBlend in2="shape" mode="normal" result="effect1_innerShadow_4002_29"/></filter><filter id="t" color-interpolation-filters="sRGB" filterUnits="userSpaceOnUse" height="4.387" width="3.834" x="20.968" y="7.388"><feFlood flood-opacity="0" result="BackgroundImageFix"/><feBlend in="SourceGraphic" in2="BackgroundImageFix" mode="normal" result="shape"/><feColorMatrix in="SourceAlpha" result="hardAlpha" type="matrix" values="0 0 0 0 0 0 0 0 0 0 0 0 0 0 0 0 0 0 127 0"/><feOffset dx=".05" dy="-.05"/><feGaussianBlur stdDeviation=".1"/><feComposite in2="hardAlpha" k2="-1" k3="1" operator="arithmetic"/><feColorMatrix type="matrix" values="0 0 0 0 0.945098 0 0 0 0 0.45098 0 0 0 0 0.333333 0 0 0 1 0"/><feBlend in2="shape" mode="normal" result="effect1_innerShadow_4002_29"/><feColorMatrix in="SourceAlpha" result="hardAlpha" type="matrix" values="0 0 0 0 0 0 0 0 0 0 0 0 0 0 0 0 0 0 127 0"/><feOffset dx="-.1" dy=".1"/><feGaussianBlur stdDeviation=".1"/><feComposite in2="hardAlpha" k2="-1" k3="1" operator="arithmetic"/><feColorMatrix type="matrix" values="0 0 0 0 1 0 0 0 0 0.282353 0 0 0 0 0.435294 0 0 0 1 0"/><feBlend in2="effect1_innerShadow_4002_29" mode="normal" result="effect2_innerShadow_4002_29"/></filter><filter id="u" color-interpolation-filters="sRGB" filterUnits="userSpaceOnUse" height="3.734" width="4.283" x="24.166" y="5.911"><feFlood flood-opacity="0" result="BackgroundImageFix"/><feBlend in="SourceGraphic" in2="BackgroundImageFix" mode="normal" result="shape"/><feColorMatrix in="SourceAlpha" result="hardAlpha" type="matrix" values="0 0 0 0 0 0 0 0 0 0 0 0 0 0 0 0 0 0 127 0"/><feOffset dx=".05" dy="-.05"/><feGaussianBlur stdDeviation=".05"/><feComposite in2="hardAlpha" k2="-1" k3="1" operator="arithmetic"/><feColorMatrix type="matrix" values="0 0 0 0 0.882353 0 0 0 0 0.203922 0 0 0 0 0.435294 0 0 0 1 0"/><feBlend in2="shape" mode="normal" result="effect1_innerShadow_4002_29"/></filter><filter id="v" color-interpolation-filters="sRGB" filterUnits="userSpaceOnUse" height="3.843" width="3.843" x="24.637" y="5.882"><feFlood flood-opacity="0" result="BackgroundImageFix"/><feBlend in="SourceGraphic" in2="BackgroundImageFix" mode="normal" result="shape"/><feGaussianBlur result="effect1_foregroundBlur_4002_29" stdDeviation=".1"/></filter><filter id="w" color-interpolation-filters="sRGB" filterUnits="userSpaceOnUse" height="2.734" width="2.734" x="25.191" y="6.436"><feFlood flood-opacity="0" result="BackgroundImageFix"/><feBlend in="SourceGraphic" in2="BackgroundImageFix" mode="normal" result="shape"/><feGaussianBlur result="effect1_foregroundBlur_4002_29" stdDeviation=".1"/></filter><filter id="x" color-interpolation-filters="sRGB" filterUnits="userSpaceOnUse" height="2.734" width="2.734" x="21.543" y="8.45"><feFlood flood-opacity="0" result="BackgroundImageFix"/><feBlend in="SourceGraphic" in2="BackgroundImageFix" mode="normal" result="shape"/><feGaussianBlur result="effect1_foregroundBlur_4002_29" stdDeviation=".1"/></filter><filter id="y" color-interpolation-filters="sRGB" filterUnits="userSpaceOnUse" height="3.805" width="3.805" x="21.008" y="7.915"><feFlood flood-opacity="0" result="BackgroundImageFix"/><feBlend in="SourceGraphic" in2="BackgroundImageFix" mode="normal" result="shape"/><feGaussianBlur result="effect1_foregroundBlur_4002_29" stdDeviation=".1"/></filter><radialGradient id="z" cx="0" cy="0" gradientTransform="matrix(-13.54958476 6.58780201 -7.58474806 -15.60007216 21.8674 22.7684)" gradientUnits="userSpaceOnUse" r="1"><stop offset="0" stop-color="#339ff3"/><stop offset="1" stop-color="#2477dd"/></radialGradient><radialGradient id="A" cx="0" cy="0" gradientTransform="matrix(-5.56023059 -11.64262 16.75321962 -8.00092799 15.1219 30.6913)" gradientUnits="userSpaceOnUse" r="1"><stop offset=".879" stop-color="#407da5" stop-opacity="0"/><stop offset="1" stop-color="#407da5"/></radialGradient><radialGradient id="B" cx="0" cy="0" gradientTransform="matrix(-6.21873985 1.4375385 -.49186482 -2.12778951 14.04 18.8289)" gradientUnits="userSpaceOnUse" r="1"><stop offset=".236" stop-color="#145491"/><stop offset="1" stop-color="#27719e" stop-opacity="0"/></radialGradient><radialGradient id="C" cx="0" cy="0" gradientTransform="matrix(-2.6713 0 0 -14.1675 21.5456 29.3562)" gradientUnits="userSpaceOnUse" r="1"><stop offset=".133" stop-color="#459bfc"/><stop offset="1" stop-color="#459bfc" stop-opacity="0"/></radialGradient><radialGradient id="D" cx="0" cy="0" gradientTransform="matrix(1.24045 0 0 9.50024 7.16595 29.3562)" gradientUnits="userSpaceOnUse" r="1"><stop offset="0" stop-color="#1f6ce0"/><stop offset="1" stop-color="#1f6ce0" stop-opacity="0"/></radialGradient><radialGradient id="E" cx="0" cy="0" gradientTransform="matrix(3.25185 0 0 9.13279 21.5765 28.5775)" gradientUnits="userSpaceOnUse" r="1"><stop offset=".576" stop-color="#43a2ff"/><stop offset="1" stop-color="#43a0f3"/></radialGradient><radialGradient id="F" cx="0" cy="0" gradientTransform="matrix(.870059 0 0 11.9715 21.5765 29.3563)" gradientUnits="userSpaceOnUse" r="1"><stop offset="0" stop-color="#367bf1"/><stop offset="1" stop-color="#367bf1" stop-opacity="0"/></radialGradient><radialGradient id="G" cx="0" cy="0" gradientTransform="matrix(-3.70862 0 0 -8.85437 7.30957 29.3561)" gradientUnits="userSpaceOnUse" r="1"><stop offset=".614" stop-color="#517cc3" stop-opacity="0"/><stop offset=".956" stop-color="#517cc3"/></radialGradient><radialGradient id="H" cx="0" cy="0" gradientTransform="matrix(-.846301 0 0 -10.457 7.30957 29.3561)" gradientUnits="userSpaceOnUse" r="1"><stop offset=".111" stop-color="#438dec"/><stop offset="1" stop-color="#438dec" stop-opacity="0"/></radialGradient><radialGradient id="I" cx="0" cy="0" gradientTransform="matrix(.56250029 1.74999975 -3.03540959 .97566802 13.7003 18.9915)" gradientUnits="userSpaceOnUse" r="1"><stop offset=".243" stop-color="#643c53"/><stop offset="1" stop-color="#643c53" stop-opacity="0"/></radialGradient><radialGradient id="J" cx="0" cy="0" gradientTransform="matrix(-1.8898815 1.60938236 -.69705605 -.8185459 16.5128 20.5383)" gradientUnits="userSpaceOnUse" r="1"><stop offset=".285" stop-color="#7e5c61"/><stop offset="1" stop-color="#7e5c61" stop-opacity="0"/></radialGradient><radialGradient id="K" cx="0" cy="0" gradientTransform="matrix(1.75652 0 0 3.07393 8.20398 13.164)" gradientUnits="userSpaceOnUse" r="1"><stop offset=".351" stop-color="#664249"/><stop offset="1" stop-color="#613641"/></radialGradient><linearGradient id="L" gradientUnits="userSpaceOnUse" x1="9.875" x2="9.234" y1="13.443" y2="13.443"><stop offset="0" stop-color="#553038"/><stop offset="1" stop-color="#59323c"/></linearGradient><linearGradient id="M" gradientUnits="userSpaceOnUse" x1="20.485" x2="19.665" y1="12.071" y2="14.61"><stop offset="0" stop-color="#96776b"/><stop offset="1" stop-color="#855a5b"/></linearGradient><radialGradient id="N" cx="0" cy="0" gradientTransform="matrix(.82748317 -.60253551 .68771728 .94446628 19.7697 12.8989)" gradientUnits="userSpaceOnUse" r="1"><stop offset=".543" stop-color="#7c524c"/><stop offset="1" stop-color="#7c524c" stop-opacity="0"/></radialGradient><radialGradient id="O" cx="0" cy="0" gradientTransform="matrix(.82203845 -1.51196063 .8849597 .48114407 19.3558 13.9862)" gradientUnits="userSpaceOnUse" r="1"><stop offset=".755" stop-color="#73443e" stop-opacity="0"/><stop offset=".916" stop-color="#73443e"/></radialGradient><radialGradient id="P" cx="0" cy="0" gradientTransform="matrix(.25953381 .25689915 -.33117857 .33457501 19.3972 13.1641)" gradientUnits="userSpaceOnUse" r="1"><stop offset="0" stop-color="#6c443e"/><stop offset="1" stop-color="#6c443e" stop-opacity="0"/></radialGradient><linearGradient id="Q" gradientUnits="userSpaceOnUse" x1="18.667" x2="11.023" y1="13.554" y2="14.693"><stop offset="0" stop-color="#9b6c5e"/><stop offset="1" stop-color="#744d4a"/></linearGradient><radialGradient id="R" cx="0" cy="0" gradientTransform="matrix(0 -1.30832 1.61023 0 16.9754 11.8913)" gradientUnits="userSpaceOnUse" r="1"><stop offset="0" stop-color="#855354"/><stop offset="1" stop-color="#855354" stop-opacity="0"/></radialGradient><radialGradient id="S" cx="0" cy="0" gradientTransform="matrix(0 -1.37541 1.71044 0 12.4131 12.0255)" gradientUnits="userSpaceOnUse" r="1"><stop offset="0" stop-color="#6f414d"/><stop offset="1" stop-color="#6f414d" stop-opacity="0"/></radialGradient><linearGradient id="T" gradientUnits="userSpaceOnUse" x1="9.226" x2="11.109" y1="16.252" y2="16.185"><stop offset="0" stop-color="#84615a"/><stop offset="1" stop-color="#84615a" stop-opacity="0"/></linearGradient><linearGradient id="U" gradientUnits="userSpaceOnUse" x1="19.496" x2="18.439" y1="15.414" y2="15.313"><stop offset="0" stop-color="#966d5f"/><stop offset="1" stop-color="#966d5f" stop-opacity="0"/></linearGradient><radialGradient id="V" cx="0" cy="0" gradientTransform="matrix(0 8.8549 -12.0201 0 14.3252 11.3881)" gradientUnits="userSpaceOnUse" r="1"><stop offset=".619" stop-color="#7d4b5d" stop-opacity="0"/><stop offset=".955" stop-color="#62405c"/></radialGradient><linearGradient id="W" gradientUnits="userSpaceOnUse" x1="14.095" x2="22.247" y1="10.566" y2="7.648"><stop offset=".109" stop-color="#a47f73"/><stop offset="1" stop-color="#a27b71" stop-opacity="0"/></linearGradient><radialGradient id="X" cx="0" cy="0" gradientTransform="matrix(.79857347 -2.95941896 1.42495298 .38451117 18.9767 9.05394)" gradientUnits="userSpaceOnUse" r="1"><stop offset=".372" stop-color="#3d3437"/><stop offset="1" stop-color="#3d3437" stop-opacity="0"/></radialGradient><radialGradient id="Y" cx="0" cy="0" gradientTransform="matrix(3.82845351 .35231173 -.18943549 2.05853202 17.3326 7.29238)" gradientUnits="userSpaceOnUse" r="1"><stop offset=".32" stop-color="#46383d"/><stop offset="1" stop-color="#46383d" stop-opacity="0"/></radialGradient><radialGradient id="Z" cx="0" cy="0" gradientTransform="matrix(0 1.68076 -2.60303 0 14.6274 4.55469)" gradientUnits="userSpaceOnUse" r="1"><stop offset="0" stop-color="#3e3034"/><stop offset="1" stop-color="#3e3034" stop-opacity="0"/></radialGradient><radialGradient id="aa" cx="0" cy="0" gradientTransform="matrix(3.07684987 -2.25479306 3.53252627 4.82042152 8.17247 11.3792)" gradientUnits="userSpaceOnUse" r="1"><stop offset="0" stop-color="#453938"/><stop offset="1" stop-color="#453938" stop-opacity="0"/></radialGradient><linearGradient id="ab" gradientUnits="userSpaceOnUse" x1="13.762" x2="14.701" y1="14.214" y2="14.214"><stop offset="0" stop-color="#754e46"/><stop offset="1" stop-color="#754e46" stop-opacity="0"/></linearGradient><linearGradient id="ac" gradientUnits="userSpaceOnUse" x1="15.566" x2="14.54" y1="14.537" y2="14.522"><stop offset="0" stop-color="#9d766b"/><stop offset="1" stop-color="#9d766b" stop-opacity="0"/></linearGradient><linearGradient id="ad" gradientUnits="userSpaceOnUse" x1="14.822" x2="14.822" y1="15.28" y2="14.706"><stop offset="0" stop-color="#7c4559"/><stop offset="1" stop-color="#7c4559" stop-opacity="0"/></linearGradient><radialGradient id="ae" cx="0" cy="0" gradientTransform="matrix(0 .197086 -.633191 0 14.9547 14.7723)" gradientUnits="userSpaceOnUse" r="1"><stop offset="0" stop-color="#976f6a"/><stop offset="1" stop-color="#976f6a" stop-opacity="0"/></radialGradient><linearGradient id="af" gradientUnits="userSpaceOnUse" x1="13.589" x2="14.025" y1="16.896" y2="16.208"><stop offset="0" stop-color="#865e63"/><stop offset=".663" stop-color="#865e63" stop-opacity="0"/></linearGradient><linearGradient id="ag"><stop offset="0" stop-color="#301a2d"/><stop offset="1" stop-color="#301a2d" stop-opacity="0"/></linearGradient><radialGradient id="ah" cx="0" cy="0" gradientTransform="matrix(.10429221 -.60383774 1.78641087 .30854105 17.0723 11.0779)" gradientUnits="userSpaceOnUse" r="1" xlink:href="#ag"/><radialGradient id="ai" cx="0" cy="0" gradientTransform="matrix(.1042987 -.60383763 1.78650618 .30857678 11.9197 11.0779)" gradientUnits="userSpaceOnUse" r="1" xlink:href="#ag"/><linearGradient id="aj"><stop offset=".802" stop-color="#7d574a"/><stop offset="1" stop-color="#694b43"/><stop offset="1" stop-color="#804d49"/><stop offset="1" stop-color="#664944"/></linearGradient><radialGradient id="ak" cx="0" cy="0" gradientTransform="matrix(0 .811899 -1.29142 0 16.8081 12.4815)" gradientUnits="userSpaceOnUse" r="1" xlink:href="#aj"/><linearGradient id="al"><stop offset=".766" stop-color="#ffe6e2" stop-opacity="0"/><stop offset=".966" stop-color="#ffe6e2"/></linearGradient><radialGradient id="am" cx="0" cy="0" gradientTransform="matrix(-.2320829 -.29907011 .41174845 -.31952298 16.58 12.5656)" gradientUnits="userSpaceOnUse" r="1" xlink:href="#al"/><linearGradient id="an"><stop offset="0" stop-color="#b4948d"/><stop offset="1" stop-color="#b4948d" stop-opacity="0"/></linearGradient><linearGradient id="ao" gradientUnits="userSpaceOnUse" x1="17.587" x2="17.273" xlink:href="#an" y1="12.535" y2="12.729"/><radialGradient id="ap" cx="0" cy="0" gradientTransform="matrix(0 .81194 -1.29148 0 12.4409 12.4813)" gradientUnits="userSpaceOnUse" r="1" xlink:href="#aj"/><linearGradient id="aq" gradientUnits="userSpaceOnUse" x1="13.185" x2="12.872" xlink:href="#an" y1="12.535" y2="12.729"/><radialGradient id="ar" cx="0" cy="0" gradientTransform="matrix(-.00774133 -.4944364 .59433316 -.0093054 12.1546 12.7008)" gradientUnits="userSpaceOnUse" r="1" xlink:href="#al"/><linearGradient id="as"><stop offset="0" stop-color="#483e3e"/><stop offset="1" stop-color="#483e3e" stop-opacity="0"/></linearGradient><linearGradient id="at" gradientUnits="userSpaceOnUse" x1="17.602" x2="17.182" xlink:href="#as" y1="10.394" y2="9.534"/><linearGradient id="au" gradientUnits="userSpaceOnUse" x1="12.293" x2="11.102" xlink:href="#as" y1="10.266" y2="9.766"/><linearGradient id="av" gradientUnits="userSpaceOnUse" x1="9.961" x2="9.961" y1="8.249" y2="10.408"><stop offset=".228" stop-color="#32272d"/><stop offset="1" stop-color="#32272d" stop-opacity="0"/></linearGradient><radialGradient id="aw" cx="0" cy="0" gradientTransform="matrix(-4.59375966 2.35935169 -1.86096673 -3.62338261 23.1962 4.83138)" gradientUnits="userSpaceOnUse" r="1"><stop offset="0" stop-color="#1f1027"/><stop offset=".871" stop-color="#37282c"/></radialGradient><radialGradient id="ax" cx="0" cy="0" gradientTransform="matrix(2.98437247 .43749931 -.07979833 .544339 17.743 6.74094)" gradientUnits="userSpaceOnUse" r="1"><stop offset=".037" stop-color="#423539"/><stop offset="1" stop-color="#423539" stop-opacity="0"/></radialGradient><linearGradient id="ay"><stop offset="0" stop-color="#9b8299"/><stop offset="1" stop-color="#d9b4c8"/></linearGradient><linearGradient id="az" gradientUnits="userSpaceOnUse" x1="24.949" x2="23.758" xlink:href="#ay" y1="5.049" y2="4.704"/><linearGradient id="aA" gradientUnits="userSpaceOnUse" x1="23.801" x2="23.875" y1="6.542" y2="6.253"><stop offset=".16" stop-color="#a28b95"/><stop offset="1" stop-color="#c0a0b5" stop-opacity="0"/></linearGradient><linearGradient id="aB" gradientUnits="userSpaceOnUse" x1="22.887" x2="23.152" xlink:href="#ay" y1="7.398" y2="6.101"/><linearGradient id="aC" gradientUnits="userSpaceOnUse" x1="24.298" x2="24.1" y1="7.48" y2="7.424"><stop offset="0" stop-color="#93768e"/><stop offset="1" stop-color="#a2889f" stop-opacity="0"/></linearGradient><radialGradient id="aD" cx="0" cy="0" gradientTransform="matrix(-.339844 .27343696 -.27343696 -.339844 23.9139 6.90552)" gradientUnits="userSpaceOnUse" r="1"><stop offset=".168" stop-color="#ebdbe4"/><stop offset="1" stop-color="#c7b1b5"/></radialGradient><radialGradient id="aE" cx="0" cy="0" gradientTransform="matrix(.19921901 -.48437543 1.17186442 .4819767 23.5936 7.34692)" gradientUnits="userSpaceOnUse" r="1"><stop offset=".147" stop-color="#996e9f"/><stop offset="1" stop-color="#c8b3b7" stop-opacity="0"/></radialGradient><radialGradient id="aF" cx="0" cy="0" gradientTransform="matrix(.43750001 .04687497 -.05919957 .55252965 23.3866 6.91333)" gradientUnits="userSpaceOnUse" r="1"><stop offset=".181" stop-color="#a4888c"/><stop offset="1" stop-color="#a4888c" stop-opacity="0"/></radialGradient><linearGradient id="aG"><stop offset=".205" stop-color="#ff7046"/><stop offset="1" stop-color="#ff2d78"/></linearGradient><radialGradient id="aH" cx="0" cy="0" gradientTransform="matrix(2.20247007 -1.6171887 2.56784184 3.49717681 21.3964 10.0962)" gradientUnits="userSpaceOnUse" r="1" xlink:href="#aG"/><linearGradient id="aI" gradientUnits="userSpaceOnUse" x1="23.637" x2="23.578" y1="7.57" y2="7.796"><stop offset=".209" stop-color="#b71143"/><stop offset="1" stop-color="#ff3178" stop-opacity="0"/></linearGradient><radialGradient id="aJ" cx="0" cy="0" gradientTransform="matrix(2.53125362 -1.40625177 1.98702722 3.5766496 24.5428 8.27269)" gradientUnits="userSpaceOnUse" r="1" xlink:href="#aG"/><linearGradient id="aK" gradientUnits="userSpaceOnUse" x1="24.887" x2="28.077" y1="8.172" y2="6.7"><stop offset=".616" stop-color="#ff4f4f"/><stop offset=".9" stop-color="#ff6792"/></linearGradient><linearGradient id="aL" gradientUnits="userSpaceOnUse" x1="25.441" x2="27.573" y1="8.05" y2="7.066"><stop offset=".247" stop-color="#ff7e7a"/><stop offset=".669" stop-color="#ff7e7a" stop-opacity="0"/></linearGradient><linearGradient id="aM" gradientUnits="userSpaceOnUse" x1="21.793" x2="23.925" y1="10.064" y2="9.08"><stop offset=".247" stop-color="#ff9266"/><stop offset=".669" stop-color="#ff9266" stop-opacity="0"/></linearGradient><linearGradient id="aN" gradientUnits="userSpaceOnUse" x1="24.563" x2="22.91" y1="9.276" y2="9.817"><stop offset="0" stop-color="#ff5c88"/><stop offset="1" stop-color="#ff5185" stop-opacity="0"/></linearGradient><path d="m3.60095 28.8928c0-5.9155 4.85417-10.7109 10.84205-10.7109 5.988 0 10.8421 4.7954 10.8421 10.7109v.4634h-21.68415z" fill="url(#z)"/><path d="m3.60095 28.8928c0-5.9155 4.85417-10.7109 10.84205-10.7109 5.988 0 10.8421 4.7954 10.8421 10.7109v.4634h-21.68415z" fill="url(#A)"/><path d="m3.60095 28.8928c0-5.9155 4.85417-10.7109 10.84205-10.7109 5.988 0 10.8421 4.7954 10.8421 10.7109v.4634h-21.68415z" fill="url(#B)"/><path d="m3.60095 28.8928c0-5.9155 4.85417-10.7109 10.84205-10.7109 5.988 0 10.8421 4.7954 10.8421 10.7109v.4634h-21.68415z" fill="url(#C)"/><path d="m3.60095 28.8928c0-5.9155 4.85417-10.7109 10.84205-10.7109 5.988 0 10.8421 4.7954 10.8421 10.7109v.4634h-21.68415z" fill="url(#D)"/><path d="m21.5765 29.3563h3.7087v-.4634c0-3.2171-1.4357-6.1029-3.7087-8.0662z" fill="url(#E)"/><path d="m21.5765 29.3563h3.7087v-.4634c0-3.2171-1.4357-6.1029-3.7087-8.0662z" fill="url(#F)"/><path d="m7.30957 20.8264c-2.27295 1.9634-3.70862 4.8492-3.70862 8.0663v.4634h3.70862z" fill="#2b7fde"/><path d="m7.30957 20.8264c-2.27295 1.9634-3.70862 4.8492-3.70862 8.0663v.4634h3.70862z" fill="url(#G)"/><path d="m7.30957 20.8264c-2.27295 1.9634-3.70862 4.8492-3.70862 8.0663v.4634h3.70862z" fill="url(#H)"/><path d="m12.6307 17.9758h3.9844v1.3828c0 1.1003-.8919 1.8125-1.9922 1.8125-1.1002 0-1.9922-.7122-1.9922-1.8125z" fill="#814f52"/><path d="m12.6307 17.9758h3.9844v1.3828c0 1.1003-.8919 1.8125-1.9922 1.8125-1.1002 0-1.9922-.7122-1.9922-1.8125z" fill="url(#I)"/><path d="m12.6307 17.9758h3.9844v1.3828c0 1.1003-.8919 1.8125-1.9922 1.8125-1.1002 0-1.9922-.7122-1.9922-1.8125z" fill="url(#J)"/><g filter="url(#a)"><circle cx="9.875" cy="13.164" fill="url(#K)" r="1.671"/></g><g filter="url(#b)"><circle cx="9.875" cy="13.164" fill="url(#L)" r=".996"/></g><g filter="url(#c)"><circle cx="19.397" cy="13.164" fill="url(#M)" r="1.671"/><circle cx="19.397" cy="13.164" fill="url(#N)" r="1.671"/></g><g filter="url(#d)"><circle cx="19.397" cy="13.164" fill="#7a5654" r=".996"/><circle cx="19.397" cy="13.164" fill="url(#O)" r=".996"/><circle cx="19.397" cy="13.164" fill="url(#P)" r=".996"/></g><g filter="url(#e)"><path d="m9.52251 12.5506c.01621.0012.03259.0017.0491.0017 0 0-.05369-.8541-.10738-1.4414 0-.2669.10738-.5872.32214-.7473l.16108-.1602c.26845-.21354.37585-.53384.37585-.85415v-.85415c0-.26692.161-.48046.4295-.53384.6443-.16016 1.9865-.42708 3.9194-.42708 1.9328 0 3.2751.26692 3.9194.42708.2147.05338.4295.26692.4295.53384v.85415c0 .32031.1611.64061.3758.85415.5026.3522.4713.5459.4296.9609-.0537.5339-.1074 1.4414-.1074 1.4414.006 0 .0121-.0001.0181-.0002l-.2661 3.9622c-.1607 1.7712-1.5532 3.0058-3.2134 3.0058h-3.2134c-1.7139 0-3.05279-1.2346-3.21347-3.0058z" fill="url(#Q)"/><path d="m9.52251 12.5506c.01621.0012.03259.0017.0491.0017 0 0-.05369-.8541-.10738-1.4414 0-.2669.10738-.5872.32214-.7473l.16108-.1602c.26845-.21354.37585-.53384.37585-.85415v-.85415c0-.26692.161-.48046.4295-.53384.6443-.16016 1.9865-.42708 3.9194-.42708 1.9328 0 3.2751.26692 3.9194.42708.2147.05338.4295.26692.4295.53384v.85415c0 .32031.1611.64061.3758.85415.5026.3522.4713.5459.4296.9609-.0537.5339-.1074 1.4414-.1074 1.4414.006 0 .0121-.0001.0181-.0002l-.2661 3.9622c-.1607 1.7712-1.5532 3.0058-3.2134 3.0058h-3.2134c-1.7139 0-3.05279-1.2346-3.21347-3.0058z" fill="url(#R)"/><path d="m9.52251 12.5506c.01621.0012.03259.0017.0491.0017 0 0-.05369-.8541-.10738-1.4414 0-.2669.10738-.5872.32214-.7473l.16108-.1602c.26845-.21354.37585-.53384.37585-.85415v-.85415c0-.26692.161-.48046.4295-.53384.6443-.16016 1.9865-.42708 3.9194-.42708 1.9328 0 3.2751.26692 3.9194.42708.2147.05338.4295.26692.4295.53384v.85415c0 .32031.1611.64061.3758.85415.5026.3522.4713.5459.4296.9609-.0537.5339-.1074 1.4414-.1074 1.4414.006 0 .0121-.0001.0181-.0002l-.2661 3.9622c-.1607 1.7712-1.5532 3.0058-3.2134 3.0058h-3.2134c-1.7139 0-3.05279-1.2346-3.21347-3.0058z" fill="url(#S)"/></g><path d="m9.46423 11.1109c0-.2669.10738-.5872.32214-.7473l.16108-.1602c.26845-.21354.37585-.53384.37585-.85415v-.85415c0-.26692.161-.48046.4295-.53384.6443-.16016 1.9865-.42708 3.9194-.42708 1.9328 0 3.2751.26692 3.9194.42708.2147.05338.4295.26692.4295.53384v.85415c0 .32031.1611.64061.3758.85415.5026.3522.4713.5459.4296.9609-.0537.5339-.1074 1.4414-.1074 1.4414.006 0 .0121-.0001.0181-.0002l-.2661 3.9622c-.1607 1.7712-1.5532 3.0058-3.2134 3.0058h-3.2134c-1.7139 0-3.05279-1.2346-3.21347-3.0058-.13955-1.8182-.20065-3.6417-.3666-5.4568z" fill="url(#T)"/><path d="m9.46423 11.1109c0-.2669.10738-.5872.32214-.7473l.16108-.1602c.26845-.21354.37585-.53384.37585-.85415v-.85415c0-.26692.161-.48046.4295-.53384.6443-.16016 1.9865-.42708 3.9194-.42708 1.9328 0 3.2751.26692 3.9194.42708.2147.05338.4295.26692.4295.53384v.85415c0 .32031.1611.64061.3758.85415.5026.3522.4713.5459.4296.9609-.0537.5339-.1074 1.4414-.1074 1.4414.006 0 .0121-.0001.0181-.0002l-.2661 3.9622c-.1607 1.7712-1.5532 3.0058-3.2134 3.0058h-3.2134c-1.7139 0-3.05279-1.2346-3.21347-3.0058-.13955-1.8182-.20065-3.6417-.3666-5.4568z" fill="url(#U)"/><path d="m9.46423 11.1109c0-.2669.10738-.5872.32214-.7473l.16108-.1602c.26845-.21354.37585-.53384.37585-.85415v-.85415c0-.26692.161-.48046.4295-.53384.6443-.16016 1.9865-.42708 3.9194-.42708 1.9328 0 3.2751.26692 3.9194.42708.2147.05338.4295.26692.4295.53384v.85415c0 .32031.1611.64061.3758.85415.5026.3522.4713.5459.4296.9609-.0537.5339-.1074 1.4414-.1074 1.4414.006 0 .0121-.0001.0181-.0002l-.2661 3.9622c-.1607 1.7712-1.5532 3.0058-3.2134 3.0058h-3.2134c-1.7139 0-3.05279-1.2346-3.21347-3.0058-.13955-1.8182-.20065-3.6417-.3666-5.4568z" fill="url(#V)"/><g filter="url(#f)"><path d="m18.5947 7.53418-3.0804 1.02699c-.5245.17485-.823.72698-.682 1.26156.1347.51107.6288.84177 1.1526.77167l3.0627-.41z" fill="url(#W)"/></g><g filter="url(#g)"><path d="m19.4509 6.68019.4295.21354c.7517.37369 1.1812 1.22784 1.0201 2.13537l-.5906 3.0429c-.0526.3143-.2604.5258-.5724.5336-.006.0002-.0121.0002-.0182.0002 0 0 .0537-.9075.1074-1.4413.0436-.4336-.0321-.5658-.4295-.961-.2148-.21351-.3758-.53381-.3758-.85412v-.85415c0-.26692-.2148-.48046-.4296-.53384-.6442-.16016-1.9865-.42708-3.9193-.42708-1.9329 0-3.2751.26692-3.9194.42708-.2685.05338-.4296.26692-.4296.53384v.85415c0 .32031-.1073.64061-.37578.85412l-.16107.1602c-.21476.1601-.32214.4804-.32214.7474.05369.5872.10738 1.4413.10738 1.4413-.01652 0-.0329-.0005-.04911-.0016-.3-.0205-.54424-.2283-.59518-.5322l-.59059-3.04288c-.10738-.85415.32214-1.7083 1.0738-2.08199l.42952-.21354c.26847-.16015.53687-.37369.80537-.58723l.9664-1.01431c.5906-.53384 1.4496-.69399 2.2013-.3203.5369.16015 1.1275.16015 1.6644 0 .8054-.26692 1.7181-.05339 2.3624.53384l.8053.80077c.2148.26692.4832.42707.8054.58723z" fill="#27151c"/><path d="m19.4509 6.68019.4295.21354c.7517.37369 1.1812 1.22784 1.0201 2.13537l-.5906 3.0429c-.0526.3143-.2604.5258-.5724.5336-.006.0002-.0121.0002-.0182.0002 0 0 .0537-.9075.1074-1.4413.0436-.4336-.0321-.5658-.4295-.961-.2148-.21351-.3758-.53381-.3758-.85412v-.85415c0-.26692-.2148-.48046-.4296-.53384-.6442-.16016-1.9865-.42708-3.9193-.42708-1.9329 0-3.2751.26692-3.9194.42708-.2685.05338-.4296.26692-.4296.53384v.85415c0 .32031-.1073.64061-.37578.85412l-.16107.1602c-.21476.1601-.32214.4804-.32214.7474.05369.5872.10738 1.4413.10738 1.4413-.01652 0-.0329-.0005-.04911-.0016-.3-.0205-.54424-.2283-.59518-.5322l-.59059-3.04288c-.10738-.85415.32214-1.7083 1.0738-2.08199l.42952-.21354c.26847-.16015.53687-.37369.80537-.58723l.9664-1.01431c.5906-.53384 1.4496-.69399 2.2013-.3203.5369.16015 1.1275.16015 1.6644 0 .8054-.26692 1.7181-.05339 2.3624.53384l.8053.80077c.2148.26692.4832.42707.8054.58723z" fill="url(#X)"/><path d="m19.4509 6.68019.4295.21354c.7517.37369 1.1812 1.22784 1.0201 2.13537l-.5906 3.0429c-.0526.3143-.2604.5258-.5724.5336-.006.0002-.0121.0002-.0182.0002 0 0 .0537-.9075.1074-1.4413.0436-.4336-.0321-.5658-.4295-.961-.2148-.21351-.3758-.53381-.3758-.85412v-.85415c0-.26692-.2148-.48046-.4296-.53384-.6442-.16016-1.9865-.42708-3.9193-.42708-1.9329 0-3.2751.26692-3.9194.42708-.2685.05338-.4296.26692-.4296.53384v.85415c0 .32031-.1073.64061-.37578.85412l-.16107.1602c-.21476.1601-.32214.4804-.32214.7474.05369.5872.10738 1.4413.10738 1.4413-.01652 0-.0329-.0005-.04911-.0016-.3-.0205-.54424-.2283-.59518-.5322l-.59059-3.04288c-.10738-.85415.32214-1.7083 1.0738-2.08199l.42952-.21354c.26847-.16015.53687-.37369.80537-.58723l.9664-1.01431c.5906-.53384 1.4496-.69399 2.2013-.3203.5369.16015 1.1275.16015 1.6644 0 .8054-.26692 1.7181-.05339 2.3624.53384l.8053.80077c.2148.26692.4832.42707.8054.58723z" fill="url(#Y)"/><path d="m19.4509 6.68019.4295.21354c.7517.37369 1.1812 1.22784 1.0201 2.13537l-.5906 3.0429c-.0526.3143-.2604.5258-.5724.5336-.006.0002-.0121.0002-.0182.0002 0 0 .0537-.9075.1074-1.4413.0436-.4336-.0321-.5658-.4295-.961-.2148-.21351-.3758-.53381-.3758-.85412v-.85415c0-.26692-.2148-.48046-.4296-.53384-.6442-.16016-1.9865-.42708-3.9193-.42708-1.9329 0-3.2751.26692-3.9194.42708-.2685.05338-.4296.26692-.4296.53384v.85415c0 .32031-.1073.64061-.37578.85412l-.16107.1602c-.21476.1601-.32214.4804-.32214.7474.05369.5872.10738 1.4413.10738 1.4413-.01652 0-.0329-.0005-.04911-.0016-.3-.0205-.54424-.2283-.59518-.5322l-.59059-3.04288c-.10738-.85415.32214-1.7083 1.0738-2.08199l.42952-.21354c.26847-.16015.53687-.37369.80537-.58723l.9664-1.01431c.5906-.53384 1.4496-.69399 2.2013-.3203.5369.16015 1.1275.16015 1.6644 0 .8054-.26692 1.7181-.05339 2.3624.53384l.8053.80077c.2148.26692.4832.42707.8054.58723z" fill="url(#Z)"/><path d="m19.4509 6.68019.4295.21354c.7517.37369 1.1812 1.22784 1.0201 2.13537l-.5906 3.0429c-.0526.3143-.2604.5258-.5724.5336-.006.0002-.0121.0002-.0182.0002 0 0 .0537-.9075.1074-1.4413.0436-.4336-.0321-.5658-.4295-.961-.2148-.21351-.3758-.53381-.3758-.85412v-.85415c0-.26692-.2148-.48046-.4296-.53384-.6442-.16016-1.9865-.42708-3.9193-.42708-1.9329 0-3.2751.26692-3.9194.42708-.2685.05338-.4296.26692-.4296.53384v.85415c0 .32031-.1073.64061-.37578.85412l-.16107.1602c-.21476.1601-.32214.4804-.32214.7474.05369.5872.10738 1.4413.10738 1.4413-.01652 0-.0329-.0005-.04911-.0016-.3-.0205-.54424-.2283-.59518-.5322l-.59059-3.04288c-.10738-.85415.32214-1.7083 1.0738-2.08199l.42952-.21354c.26847-.16015.53687-.37369.80537-.58723l.9664-1.01431c.5906-.53384 1.4496-.69399 2.2013-.3203.5369.16015 1.1275.16015 1.6644 0 .8054-.26692 1.7181-.05339 2.3624.53384l.8053.80077c.2148.26692.4832.42707.8054.58723z" fill="url(#aa)"/></g><g filter="url(#h)"><path d="m14.3516 13.0417-.8211 1.7012c-.1018.3499.1425.6999.4886.6999h.7379c.346 0 .5903-.3554.4885-.6999l-.4987-1.7012c-.1069-.3769-.2832-.3769-.3952 0z" fill="#71404a"/></g><g filter="url(#i)"><path d="m14.2446 12.8786-.5319 1.7012c-.1085.3499.152.6999.521.6999h.7869c.3691 0 .6296-.3553.521-.6999l-.5318-1.7012c-.114-.3769-.6458-.3769-.7652 0z" fill="#8c5f5e"/><path d="m14.2446 12.8786-.5319 1.7012c-.1085.3499.152.6999.521.6999h.7869c.3691 0 .6296-.3553.521-.6999l-.5318-1.7012c-.114-.3769-.6458-.3769-.7652 0z" fill="url(#ab)"/><path d="m14.2446 12.8786-.5319 1.7012c-.1085.3499.152.6999.521.6999h.7869c.3691 0 .6296-.3553.521-.6999l-.5318-1.7012c-.114-.3769-.6458-.3769-.7652 0z" fill="url(#ac)"/><path d="m14.2446 12.8786-.5319 1.7012c-.1085.3499.152.6999.521.6999h.7869c.3691 0 .6296-.3553.521-.6999l-.5318-1.7012c-.114-.3769-.6458-.3769-.7652 0z" fill="url(#ad)"/><path d="m14.2446 12.8786-.5319 1.7012c-.1085.3499.152.6999.521.6999h.7869c.3691 0 .6296-.3553.521-.6999l-.5318-1.7012c-.114-.3769-.6458-.3769-.7652 0z" fill="url(#ae)"/></g><path d="m13.2639 15.9239c.3938.2053.8632.323 1.3633.323.5051 0 .9695-.1177 1.3633-.323l.0005-.0003c.0901-.0458.1846-.0192.2415.0398.0574.0597.0785.1551.0209.2416m-2.9895-.2811 2.9478.2534m-2.9478-.2534-.0005-.0003c-.0908-.0462-.1854-.0174-.2417.0419-.0566.0596-.0788.1551-.0204.2398m.2626-.2814-.2212.2534m3.2107.0277c-.0001 0-.0001.0001-.0001.0001l-.0416-.0278m.0417.0277v-.0001l-.0417-.0276m.0417.0277c-.3442.5215-.9437.8689-1.6262.8689-.6824 0-1.2817-.3472-1.6259-.8686m3.2104-.028c-.3352.508-.9192.8466-1.5845.8466s-1.2493-.3386-1.5845-.8466m-.0414.028c.0001.0002.0002.0004.0003.0005l.0411-.0285m-.0414.028c-.0001-.0001-.0002-.0003-.0003-.0004l.0417-.0276" fill="#88014f" stroke="url(#af)" stroke-width=".1"/><g filter="url(#j)"><path d="m18.3502 10.4415-.0012-.001-.0019-.0016-.0045-.0036-.012-.0096c-.0093-.0073-.0213-.0165-.036-.0272-.0292-.0214-.069-.0491-.119-.0804-.0997-.0624-.2411-.1402-.4201-.2109-.3593-.1421-.8725-.25655-1.4941-.15839-.2914.04601-.4904.31959-.4444.61099.0461.2914.3196.4903.611.4443.3982-.0628.717.0106.9347.0966.1095.0433.1928.0897.2458.1229.0263.0165.0448.0295.0547.0368.0042.003.0068.005.0079.0059.2266.1847.5603.153.7479-.0721.1889-.2267.1579-.5638-.0688-.7527z" fill="#352827"/><path d="m18.3502 10.4415-.0012-.001-.0019-.0016-.0045-.0036-.012-.0096c-.0093-.0073-.0213-.0165-.036-.0272-.0292-.0214-.069-.0491-.119-.0804-.0997-.0624-.2411-.1402-.4201-.2109-.3593-.1421-.8725-.25655-1.4941-.15839-.2914.04601-.4904.31959-.4444.61099.0461.2914.3196.4903.611.4443.3982-.0628.717.0106.9347.0966.1095.0433.1928.0897.2458.1229.0263.0165.0448.0295.0547.0368.0042.003.0068.005.0079.0059.2266.1847.5603.153.7479-.0721.1889-.2267.1579-.5638-.0688-.7527z" fill="url(#ah)"/></g><g filter="url(#k)"><path d="m10.8501 10.4418.0007-.0006.0009-.0007.0018-.0016.0045-.0036.012-.0096c.0094-.0073.0214-.0165.036-.0272.0292-.0214.0691-.0491.119-.0804.0997-.0624.2412-.1402.4202-.2109.3593-.1421.8724-.25655 1.4941-.15839.2914.04601.4903.31959.4443.61099s-.3195.4903-.611.4443c-.3981-.0628-.717.0106-.9346.0966-.1096.0433-.1928.0897-.2458.1229-.0264.0165-.0448.0295-.0548.0368-.0041.003-.0068.005-.0079.0059-.2266.1847-.5602.153-.7478-.0721-.1889-.2267-.1583-.5635.0684-.7524z" fill="#352827"/><path d="m10.8501 10.4418.0007-.0006.0009-.0007.0018-.0016.0045-.0036.012-.0096c.0094-.0073.0214-.0165.036-.0272.0292-.0214.0691-.0491.119-.0804.0997-.0624.2412-.1402.4202-.2109.3593-.1421.8724-.25655 1.4941-.15839.2914.04601.4903.31959.4443.61099s-.3195.4903-.611.4443c-.3981-.0628-.717.0106-.9346.0966-.1096.0433-.1928.0897-.2458.1229-.0264.0165-.0448.0295-.0548.0368-.0041.003-.0068.005-.0079.0059-.2266.1847-.5602.153-.7478-.0721-.1889-.2267-.1583-.5635.0684-.7524z" fill="url(#ai)"/></g><path d="m17.0175 11.7319c.6536 0 1.2057.4506 1.3559 1.0596.0446.1745-.0894.341-.268.341h-2.2327c-.1421 0-.2557-.1299-.2273-.272.1258-.6414.6901-1.1286 1.3721-1.1286z" fill="#fff"/><path d="m16.8101 12.0042c.4953 0 .8931.4018.8931.893 0 .0812-.0122.1624-.0325.2355h-1.7253c-.0203-.0771-.0324-.1543-.0324-.2355 0-.4912.4019-.893.8971-.893z" fill="url(#ak)"/><path d="m16.2987 12.8972c0-.2841.2273-.5115.5115-.5115s.5115.2274.5115.5115c0 .0853-.0203.1665-.0568.2355h-.9053c-.0406-.069-.0609-.1502-.0609-.2355z" fill="#000"/><g filter="url(#l)"><path d="m16.7447 12.1929c.0637.0851-.0693.1888-.2205.3019-.1513.1131-.2635.1926-.3271.1075s.0074-.2457.1586-.3588c.1512-.113.3254-.1357.389-.0506z" fill="#c7a7a3"/><path d="m16.7447 12.1929c.0637.0851-.0693.1888-.2205.3019-.1513.1131-.2635.1926-.3271.1075s.0074-.2457.1586-.3588c.1512-.113.3254-.1357.389-.0506z" fill="url(#am)"/></g><g filter="url(#m)"><path d="m17.6057 12.7794c-.033-.2308-.1681-.4048-.2315-.463l-.2601.2854.1174.2284z" fill="url(#ao)"/></g><path d="m12.2321 11.7319c-.6536 0-1.2057.4507-1.3559 1.0596-.0446.1746.0893.341.2679.341h2.2329c.1421 0 .2557-.1299.2273-.272-.1258-.6414-.6942-1.1286-1.3722-1.1286z" fill="#fff"/><path d="m12.4389 12.0039c-.4953 0-.8931.4019-.8931.8931 0 .0812.0122.1624.0325.2355h1.7253c.0203-.0771.0325-.1543.0325-.2355-.0041-.4912-.4019-.8931-.8972-.8931z" fill="url(#ap)"/><path d="m12.9507 12.897c0-.2842-.2274-.5115-.5116-.5115-.2841 0-.5115.2273-.5115.5115 0 .0853.0203.1665.0568.2355h.9054c.0365-.069.0609-.1502.0609-.2355z" fill="#000"/><g filter="url(#n)"><path d="m13.2551 12.7921c0-.2886-.2347-.481-.2981-.5392l-.2887.2791.1776.3616z" fill="url(#aq)"/></g><g filter="url(#o)"><ellipse cx="12.17" cy="12.386" fill="#c7a7a3" fill-opacity=".9" rx=".39" ry=".197" transform="matrix(.88365127 -.46814574 .46814574 .88365127 -4.382337 7.138242)"/><ellipse cx="12.17" cy="12.386" fill="url(#ar)" rx=".39" ry=".197" transform="matrix(.88365127 -.46814574 .46814574 .88365127 -4.382337 7.138242)"/></g><g filter="url(#p)"><path d="m16.2894 10.2967c.4305-.0753 1.27-.0538 1.8512.3982" stroke="url(#at)" stroke-linecap="round" stroke-width=".25"/></g><g filter="url(#q)"><path d="m11.0649 10.8157c.3274-.2895 1.0425-.5942 1.9289-.4529" stroke="url(#au)" stroke-linecap="round" stroke-width=".25"/></g><g filter="url(#r)"><path d="m10.0903 8.34814v.8984c-.0079.14875-.0705.48149-.25839.62241" stroke="url(#av)" stroke-linecap="round" stroke-width=".25"/></g><path d="m20.2833 5.86654c-1.2148-.02735-1.6418-.09766-2.1809-.28516v1.73768l1.1632.47863c.1352.05564.2811.08241.4262.06512.796-.09483 2.3998-.50228 3.0759-1.10955.8438-.75781.7852-1.49219.7148-1.75782-.0703-.26562-.2109-.44531-.3515-.45312s-.2605.06169-.3906.375c-.211.50781-.8823.98466-2.4571.94922z" fill="url(#aw)"/><path d="m20.2833 5.86654c-1.2148-.02735-1.6418-.09766-2.1809-.28516v1.73768l1.1632.47863c.1352.05564.2811.08241.4262.06512.796-.09483 2.3998-.50228 3.0759-1.10955.8438-.75781.7852-1.49219.7148-1.75782-.0703-.26562-.2109-.44531-.3515-.45312s-.2605.06169-.3906.375c-.211.50781-.8823.98466-2.4571.94922z" fill="url(#ax)"/><path d="m24.3422 2.6438-1.3882 4.83094 1.1865.34485 1.0716-3.72901c.175-.60912-.1757-1.24504-.7843-1.42192z" fill="url(#az)"/><path d="m24.3422 2.6438-1.3882 4.83094 1.1865.34485 1.0716-3.72901c.175-.60912-.1757-1.24504-.7843-1.42192z" fill="url(#aA)"/><path d="m19.6938 5.2207 5.4193 1.53609-.3369 1.18875-4.3129-1.22247c-.6111-.1732-.966-.80897-.7928-1.42003z" fill="url(#aB)"/><path d="m19.6938 5.2207 5.4193 1.53609-.3369 1.18875-4.3129-1.22247c-.6111-.1732-.966-.80897-.7928-1.42003z" fill="url(#aC)"/><g filter="url(#s)"><circle cx="23.739" cy="7" fill="url(#aD)" r=".313"/><circle cx="23.739" cy="7" fill="url(#aE)" r=".313"/><circle cx="23.739" cy="7" fill="url(#aF)" r=".313"/></g><g filter="url(#t)"><path clip-rule="evenodd" d="m23.0129 7.44225c-.0531-.01545-.1085.015-.124.06803l-.104.35701c-.0231.07915-.0927.13501-.1741.1483-.8749.14293-1.5426.9023-1.5426 1.81762 0 1.01719.8246 1.84179 1.8418 1.84179s1.8418-.8246 1.8418-1.84179c0-.55163-.2425-1.04663-.6267-1.38418-.0624-.05484-.0917-.13991-.0684-.21968l.1017-.34905c.0154-.05303-.015-.10854-.0681-.12399zm.7409 2.39096c0 .46599-.3778.84379-.8438.84379-.4659 0-.8437-.3778-.8437-.84379s.3778-.84375.8437-.84375c.466 0 .8438.37776.8438.84375z" fill="url(#aH)" fill-rule="evenodd"/></g><path clip-rule="evenodd" d="m23.0129 7.44225c-.0531-.01545-.1085.015-.124.06803l-.104.35701c-.0231.07915-.0927.13501-.1741.1483-.8749.14293-1.5426.9023-1.5426 1.81762 0 1.01719.8246 1.84179 1.8418 1.84179s1.8418-.8246 1.8418-1.84179c0-.55163-.2425-1.04663-.6267-1.38418-.0624-.05484-.0917-.13991-.0684-.21968l.1017-.34905c.0154-.05303-.015-.10854-.0681-.12399zm.7409 2.39096c0 .46599-.3778.84379-.8438.84379-.4659 0-.8437-.3778-.8437-.84379s.3778-.84375.8437-.84375c.466 0 .8438.37776.8438.84375z" fill="url(#aI)" fill-rule="evenodd"/><g filter="url(#u)"><path clip-rule="evenodd" d="m24.4573 6.65527c.0143-.05344.069-.08513.1224-.07098l.3594.09553c.0797.02118.1634-.00949.2169-.07227.5747-.67498 1.5699-.8538 2.3534-.38051.8707.52597 1.1501 1.65815.6241 2.52882s-1.6581 1.15008-2.5288.62411c-.4722-.28524-.7705-.74877-.8607-1.2522-.0147-.08178-.0724-.15077-.1527-.17212l-.3513-.09339c-.0534-.01425-.0852-.06897-.071-.12242zm1.6635 1.87043c.3988.24096.9175.11291 1.1585-.28591.2409-.39882.1129-.91753-.286-1.15848-.3988-.24095-.9175-.11291-1.1584.28591-.241.39882-.113.91753.2859 1.15848z" fill="url(#aJ)" fill-rule="evenodd"/></g><g filter="url(#v)"><circle cx="26.558" cy="7.804" r="1.671" stroke="url(#aK)" stroke-width=".1"/></g><g filter="url(#w)"><circle cx="26.558" cy="7.803" r="1.117" stroke="url(#aL)" stroke-width=".1"/></g><g filter="url(#x)"><circle cx="22.91" cy="9.817" r="1.117" stroke="url(#aM)" stroke-width=".1"/></g><g filter="url(#y)"><circle cx="22.91" cy="9.817" r="1.652" stroke="url(#aN)" stroke-width=".1"/></g></svg>