<svg fill="none" height="32" viewBox="0 0 32 32" width="32" xmlns="http://www.w3.org/2000/svg" xmlns:xlink="http://www.w3.org/1999/xlink"><linearGradient id="a" gradientUnits="userSpaceOnUse" x1="16.375" x2="16.375" y1="14.848" y2="16.848"><stop offset="0" stop-color="#72c8f9"/><stop offset="1" stop-color="#73aef2" stop-opacity="0"/></linearGradient><linearGradient id="b" gradientUnits="userSpaceOnUse" x1="19.191" x2="15.947" y1="25.113" y2="24.491"><stop offset="0" stop-color="#73d2ff"/><stop offset="1" stop-color="#73aef2" stop-opacity="0"/></linearGradient><linearGradient id="c" gradientUnits="userSpaceOnUse" x1="11.172" x2="7.234" y1="15" y2="9.875"><stop offset=".33" stop-color="#2e97d8"/><stop offset="1" stop-color="#1c82ca"/></linearGradient><linearGradient id="d" gradientUnits="userSpaceOnUse" x1="2.484" x2="6.297" y1="16.063" y2="13.125"><stop offset="0" stop-color="#2e8bdb"/><stop offset="1" stop-color="#2e8bdb" stop-opacity="0"/></linearGradient><linearGradient id="e" gradientUnits="userSpaceOnUse" x1="13.57" x2="12.704" y1="12.471" y2="11.916"><stop offset="0" stop-color="#32b3ea"/><stop offset="1" stop-color="#32b3ea" stop-opacity="0"/></linearGradient><radialGradient id="f" cx="0" cy="0" gradientTransform="matrix(8.25000108 -.82812505 1.11925014 11.15026631 17.9844 12.5)" gradientUnits="userSpaceOnUse" r="1"><stop offset="0" stop-color="#20d5fc"/><stop offset="1" stop-color="#20bff7"/></radialGradient><linearGradient id="g" gradientUnits="userSpaceOnUse" x1="19.578" x2="20.203" y1="13.594" y2="13.188"><stop offset=".17" stop-color="#20d0f6"/><stop offset="1" stop-color="#20d0f6" stop-opacity="0"/></linearGradient><linearGradient id="h" gradientUnits="userSpaceOnUse" x1="9.019" x2="15.99" y1="15.375" y2="29.734"><stop offset=".379" stop-color="#296bcc"/><stop offset="1" stop-color="#3e7de1"/></linearGradient><linearGradient id="i" gradientUnits="userSpaceOnUse" x1="9.019" x2="9.019" y1="15.375" y2="15.781"><stop offset="0" stop-color="#2d75d2"/><stop offset="1" stop-color="#2d75d2" stop-opacity="0"/></linearGradient><radialGradient id="j" cx="0" cy="0" gradientTransform="matrix(5.72463564 -10.31252699 5.40694877 3.00147691 17.2344 29.5625)" gradientUnits="userSpaceOnUse" r="1"><stop offset="0" stop-color="#42a2ec"/><stop offset="1" stop-color="#3294e4"/></radialGradient><linearGradient id="k" gradientUnits="userSpaceOnUse" x1="17.563" x2="18.063" y1="24.898" y2="25.094"><stop offset="0" stop-color="#368fe1"/><stop offset="1" stop-color="#368fe1" stop-opacity="0"/></linearGradient><linearGradient id="l" gradientUnits="userSpaceOnUse" x1="22.959" x2="22.959" y1="15.063" y2="16.094"><stop offset="0" stop-color="#309ee9"/><stop offset="1" stop-color="#309ee9" stop-opacity="0"/></linearGradient><linearGradient id="m" gradientUnits="userSpaceOnUse" x1="19.672" x2="11.078" y1="11.312" y2="17.312"><stop offset="0" stop-color="#6ce8fe"/><stop offset=".642" stop-color="#68caea"/></linearGradient><path d="m9.23438 14.25 6.75002 15.9141 7.5312-15.9141z" fill="#72adf1"/><path d="m9.23438 14.25 6.75002 15.9141 7.5312-15.9141z" fill="url(#a)"/><path d="m9.23438 14.25 6.75002 15.9141 7.5312-15.9141z" fill="url(#b)"/><path d="m7.54688 7.96875-5.5 7.40625h9.03122l4.9219-7.40625z" fill="url(#c)"/><path d="m7.54688 7.96875-5.5 7.40625h9.03122l4.9219-7.40625z" fill="url(#d)"/><path d="m7.54688 7.96875-5.5 7.40625h9.03122l4.9219-7.40625z" fill="url(#e)"/><path d="m24.4297 7.96875 5.5 7.40625h-9.0313l-4.9218-7.40625z" fill="url(#f)"/><path d="m24.4297 7.96875 5.5 7.40625h-9.0313l-4.9218-7.40625z" fill="url(#g)"/><path d="m15.9902 30.1738-13.94332-14.7988h9.03122z" fill="url(#h)"/><path d="m15.9902 30.1738-13.94332-14.7988h9.03122z" fill="url(#i)"/><path d="m15.9844 30.1641 13.9492-14.7891h-9.0313z" fill="url(#j)"/><path d="m15.9844 30.1641 13.9492-14.7891h-9.0313z" fill="url(#k)"/><path d="m15.9844 30.1641 13.9492-14.7891h-9.0313z" fill="url(#l)"/><path d="m11.0781 15.3749h9.8203l-4.9101-7.38857z" fill="url(#m)"/></svg>