<svg fill="none" height="32" viewBox="0 0 32 32" width="32" xmlns="http://www.w3.org/2000/svg" xmlns:xlink="http://www.w3.org/1999/xlink"><filter id="a" color-interpolation-filters="sRGB" filterUnits="userSpaceOnUse" height="3.847" width="7.879" x="21.258" y="13.527"><feFlood flood-opacity="0" result="BackgroundImageFix"/><feBlend in="SourceGraphic" in2="BackgroundImageFix" mode="normal" result="shape"/><feColorMatrix in="SourceAlpha" result="hardAlpha" type="matrix" values="0 0 0 0 0 0 0 0 0 0 0 0 0 0 0 0 0 0 127 0"/><feOffset dy="-.3"/><feGaussianBlur stdDeviation=".3"/><feComposite in2="hardAlpha" k2="-1" k3="1" operator="arithmetic"/><feColorMatrix type="matrix" values="0 0 0 0 0.933333 0 0 0 0 0.603922 0 0 0 0 0.0941176 0 0 0 1 0"/><feBlend in2="shape" mode="normal" result="effect1_innerShadow_4002_3791"/></filter><filter id="b" color-interpolation-filters="sRGB" filterUnits="userSpaceOnUse" height="3.847" width="7.879" x="21.258" y="13.527"><feFlood flood-opacity="0" result="BackgroundImageFix"/><feBlend in="SourceGraphic" in2="BackgroundImageFix" mode="normal" result="shape"/><feColorMatrix in="SourceAlpha" result="hardAlpha" type="matrix" values="0 0 0 0 0 0 0 0 0 0 0 0 0 0 0 0 0 0 127 0"/><feOffset dy="-.3"/><feGaussianBlur stdDeviation=".3"/><feComposite in2="hardAlpha" k2="-1" k3="1" operator="arithmetic"/><feColorMatrix type="matrix" values="0 0 0 0 0.258824 0 0 0 0 0.137255 0 0 0 0 0.180392 0 0 0 1 0"/><feBlend in2="shape" mode="normal" result="effect1_innerShadow_4002_3791"/></filter><filter id="c" color-interpolation-filters="sRGB" filterUnits="userSpaceOnUse" height="11.844" width="6.491" x="20.116" y="18.104"><feFlood flood-opacity="0" result="BackgroundImageFix"/><feBlend in="SourceGraphic" in2="BackgroundImageFix" mode="normal" result="shape"/><feColorMatrix in="SourceAlpha" result="hardAlpha" type="matrix" values="0 0 0 0 0 0 0 0 0 0 0 0 0 0 0 0 0 0 127 0"/><feOffset dx=".1"/><feGaussianBlur stdDeviation=".25"/><feComposite in2="hardAlpha" k2="-1" k3="1" operator="arithmetic"/><feColorMatrix type="matrix" values="0 0 0 0 0.211765 0 0 0 0 0.482353 0 0 0 0 0.713726 0 0 0 1 0"/><feBlend in2="shape" mode="normal" result="effect1_innerShadow_4002_3791"/></filter><filter id="d" color-interpolation-filters="sRGB" filterUnits="userSpaceOnUse" height="4.242" width="4.442" x="4.23" y="10.636"><feFlood flood-opacity="0" result="BackgroundImageFix"/><feBlend in="SourceGraphic" in2="BackgroundImageFix" mode="normal" result="shape"/><feColorMatrix in="SourceAlpha" result="hardAlpha" type="matrix" values="0 0 0 0 0 0 0 0 0 0 0 0 0 0 0 0 0 0 127 0"/><feOffset dx=".2"/><feGaussianBlur stdDeviation=".15"/><feComposite in2="hardAlpha" k2="-1" k3="1" operator="arithmetic"/><feColorMatrix type="matrix" values="0 0 0 0 0.341176 0 0 0 0 0.270588 0 0 0 0 0.254902 0 0 0 1 0"/><feBlend in2="shape" mode="normal" result="effect1_innerShadow_4002_3791"/></filter><filter id="e" color-interpolation-filters="sRGB" filterUnits="userSpaceOnUse" height="3.528" width="3.528" x="4.587" y="10.992"><feFlood flood-opacity="0" result="BackgroundImageFix"/><feBlend in="SourceGraphic" in2="BackgroundImageFix" mode="normal" result="shape"/><feGaussianBlur result="effect1_foregroundBlur_4002_3791" stdDeviation=".25"/></filter><filter id="f" color-interpolation-filters="sRGB" filterUnits="userSpaceOnUse" height="4.492" width="4.492" x="16.316" y="10.386"><feFlood flood-opacity="0" result="BackgroundImageFix"/><feBlend in="SourceGraphic" in2="BackgroundImageFix" mode="normal" result="shape"/><feColorMatrix in="SourceAlpha" result="hardAlpha" type="matrix" values="0 0 0 0 0 0 0 0 0 0 0 0 0 0 0 0 0 0 127 0"/><feOffset dx=".25" dy="-.25"/><feGaussianBlur stdDeviation=".25"/><feComposite in2="hardAlpha" k2="-1" k3="1" operator="arithmetic"/><feColorMatrix type="matrix" values="0 0 0 0 0.243137 0 0 0 0 0.141176 0 0 0 0 0.223529 0 0 0 1 0"/><feBlend in2="shape" mode="normal" result="effect1_innerShadow_4002_3791"/></filter><filter id="g" color-interpolation-filters="sRGB" filterUnits="userSpaceOnUse" height="3.528" width="3.528" x="16.672" y="10.992"><feFlood flood-opacity="0" result="BackgroundImageFix"/><feBlend in="SourceGraphic" in2="BackgroundImageFix" mode="normal" result="shape"/><feGaussianBlur result="effect1_foregroundBlur_4002_3791" stdDeviation=".25"/></filter><filter id="h" color-interpolation-filters="sRGB" filterUnits="userSpaceOnUse" height="15.53" width="13.179" x="5.83" y="5.611"><feFlood flood-opacity="0" result="BackgroundImageFix"/><feBlend in="SourceGraphic" in2="BackgroundImageFix" mode="normal" result="shape"/><feColorMatrix in="SourceAlpha" result="hardAlpha" type="matrix" values="0 0 0 0 0 0 0 0 0 0 0 0 0 0 0 0 0 0 127 0"/><feOffset dy=".25"/><feGaussianBlur stdDeviation=".375"/><feComposite in2="hardAlpha" k2="-1" k3="1" operator="arithmetic"/><feColorMatrix type="matrix" values="0 0 0 0 0.109804 0 0 0 0 0.0509804 0 0 0 0 0.0509804 0 0 0 1 0"/><feBlend in2="shape" mode="normal" result="effect1_innerShadow_4002_3791"/></filter><filter id="i" color-interpolation-filters="sRGB" filterUnits="userSpaceOnUse" height="7.896" width="9.394" x="10.598" y="3.611"><feFlood flood-opacity="0" result="BackgroundImageFix"/><feBlend in="SourceGraphic" in2="BackgroundImageFix" mode="normal" result="shape"/><feGaussianBlur result="effect1_foregroundBlur_4002_3791" stdDeviation="1"/></filter><filter id="j" color-interpolation-filters="sRGB" filterUnits="userSpaceOnUse" height="10.718" width="16.009" x="4.378" y="1.33"><feFlood flood-opacity="0" result="BackgroundImageFix"/><feBlend in="SourceGraphic" in2="BackgroundImageFix" mode="normal" result="shape"/><feColorMatrix in="SourceAlpha" result="hardAlpha" type="matrix" values="0 0 0 0 0 0 0 0 0 0 0 0 0 0 0 0 0 0 127 0"/><feOffset dy="-.5"/><feGaussianBlur stdDeviation=".375"/><feComposite in2="hardAlpha" k2="-1" k3="1" operator="arithmetic"/><feColorMatrix type="matrix" values="0 0 0 0 0.0392157 0 0 0 0 0.00784314 0 0 0 0 0.0196078 0 0 0 1 0"/><feBlend in2="shape" mode="normal" result="effect1_innerShadow_4002_3791"/></filter><filter id="k" color-interpolation-filters="sRGB" filterUnits="userSpaceOnUse" height="4.906" width="3.736" x="10.211" y="11.493"><feFlood flood-opacity="0" result="BackgroundImageFix"/><feBlend in="SourceGraphic" in2="BackgroundImageFix" mode="normal" result="shape"/><feGaussianBlur result="effect1_foregroundBlur_4002_3791" stdDeviation=".375"/></filter><filter id="l" color-interpolation-filters="sRGB" filterUnits="userSpaceOnUse" height="3.906" width="2.884" x="10.94" y="11.785"><feFlood flood-opacity="0" result="BackgroundImageFix"/><feBlend in="SourceGraphic" in2="BackgroundImageFix" mode="normal" result="shape"/><feGaussianBlur result="effect1_foregroundBlur_4002_3791" stdDeviation=".125"/></filter><filter id="m" color-interpolation-filters="sRGB" filterUnits="userSpaceOnUse" height="2.271" width="3.718" x="13.884" y="8.229"><feFlood flood-opacity="0" result="BackgroundImageFix"/><feBlend in="SourceGraphic" in2="BackgroundImageFix" mode="normal" result="shape"/><feColorMatrix in="SourceAlpha" result="hardAlpha" type="matrix" values="0 0 0 0 0 0 0 0 0 0 0 0 0 0 0 0 0 0 127 0"/><feOffset dx=".25" dy="-.4"/><feGaussianBlur stdDeviation=".3"/><feComposite in2="hardAlpha" k2="-1" k3="1" operator="arithmetic"/><feColorMatrix type="matrix" values="0 0 0 0 0.0431373 0 0 0 0 0.0196078 0 0 0 0 0.027451 0 0 0 1 0"/><feBlend in2="shape" mode="normal" result="effect1_innerShadow_4002_3791"/></filter><filter id="n" color-interpolation-filters="sRGB" filterUnits="userSpaceOnUse" height="2.271" width="3.718" x="7.345" y="8.229"><feFlood flood-opacity="0" result="BackgroundImageFix"/><feBlend in="SourceGraphic" in2="BackgroundImageFix" mode="normal" result="shape"/><feColorMatrix in="SourceAlpha" result="hardAlpha" type="matrix" values="0 0 0 0 0 0 0 0 0 0 0 0 0 0 0 0 0 0 127 0"/><feOffset dx=".25" dy="-.4"/><feGaussianBlur stdDeviation=".3"/><feComposite in2="hardAlpha" k2="-1" k3="1" operator="arithmetic"/><feColorMatrix type="matrix" values="0 0 0 0 0.0431373 0 0 0 0 0.0196078 0 0 0 0 0.027451 0 0 0 1 0"/><feBlend in2="shape" mode="normal" result="effect1_innerShadow_4002_3791"/></filter><filter id="o" color-interpolation-filters="sRGB" filterUnits="userSpaceOnUse" height=".83" width=".945" x="14.245" y="11.358"><feFlood flood-opacity="0" result="BackgroundImageFix"/><feBlend in="SourceGraphic" in2="BackgroundImageFix" mode="normal" result="shape"/><feGaussianBlur result="effect1_foregroundBlur_4002_3791" stdDeviation=".05"/></filter><filter id="p" color-interpolation-filters="sRGB" filterUnits="userSpaceOnUse" height="1.052" width="1.024" x="15.339" y="11.481"><feFlood flood-opacity="0" result="BackgroundImageFix"/><feBlend in="SourceGraphic" in2="BackgroundImageFix" mode="normal" result="shape"/><feGaussianBlur result="effect1_foregroundBlur_4002_3791" stdDeviation=".1"/></filter><filter id="q" color-interpolation-filters="sRGB" filterUnits="userSpaceOnUse" height="1.213" width="1.145" x="9.696" y="11.4"><feFlood flood-opacity="0" result="BackgroundImageFix"/><feBlend in="SourceGraphic" in2="BackgroundImageFix" mode="normal" result="shape"/><feGaussianBlur result="effect1_foregroundBlur_4002_3791" stdDeviation=".1"/></filter><filter id="r" color-interpolation-filters="sRGB" filterUnits="userSpaceOnUse" height=".841" width="1.106" x="8.71" y="11.348"><feFlood flood-opacity="0" result="BackgroundImageFix"/><feBlend in="SourceGraphic" in2="BackgroundImageFix" mode="normal" result="shape"/><feGaussianBlur result="effect1_foregroundBlur_4002_3791" stdDeviation=".05"/></filter><filter id="s" color-interpolation-filters="sRGB" filterUnits="userSpaceOnUse" height="1.448" width="3.25" x="14.042" y="8.625"><feFlood flood-opacity="0" result="BackgroundImageFix"/><feBlend in="SourceGraphic" in2="BackgroundImageFix" mode="normal" result="shape"/><feGaussianBlur result="effect1_foregroundBlur_4002_3791" stdDeviation=".15"/></filter><filter id="t" color-interpolation-filters="sRGB" filterUnits="userSpaceOnUse" height="1.72" width="3.548" x="7.311" y="8.606"><feFlood flood-opacity="0" result="BackgroundImageFix"/><feBlend in="SourceGraphic" in2="BackgroundImageFix" mode="normal" result="shape"/><feGaussianBlur result="effect1_foregroundBlur_4002_3791" stdDeviation=".15"/></filter><filter id="u" color-interpolation-filters="sRGB" filterUnits="userSpaceOnUse" height="2.68" width="1.078" x="5.921" y="6.269"><feFlood flood-opacity="0" result="BackgroundImageFix"/><feBlend in="SourceGraphic" in2="BackgroundImageFix" mode="normal" result="shape"/><feGaussianBlur result="effect1_foregroundBlur_4002_3791" stdDeviation=".125"/></filter><filter id="v" color-interpolation-filters="sRGB" filterUnits="userSpaceOnUse" height="1.328" width="5.75" x="23" y="15.328"><feFlood flood-opacity="0" result="BackgroundImageFix"/><feBlend in="SourceGraphic" in2="BackgroundImageFix" mode="normal" result="shape"/><feGaussianBlur result="effect1_foregroundBlur_4002_3791" stdDeviation=".125"/></filter><linearGradient id="w" gradientUnits="userSpaceOnUse" x1="12.382" x2="12.382" y1="30.463" y2="25.556"><stop offset="0" stop-color="#2499ea"/><stop offset="1" stop-color="#1388c7"/></linearGradient><radialGradient id="x" cx="0" cy="0" gradientTransform="matrix(-9.02709455 -11.18740091 13.81023597 -11.14345564 21.409 29.3064)" gradientUnits="userSpaceOnUse" r="1"><stop offset=".195" stop-color="#3da2ef"/><stop offset="1" stop-color="#3da2ef" stop-opacity="0"/></radialGradient><radialGradient id="y" cx="0" cy="0" gradientTransform="matrix(1.0937518 6.40625149 -15.16506143 2.58916049 10.7215 18.8064)" gradientUnits="userSpaceOnUse" r="1"><stop offset=".302" stop-color="#13669b"/><stop offset="1" stop-color="#2094e3" stop-opacity="0"/><stop offset="1" stop-color="#13669b" stop-opacity="0"/></radialGradient><radialGradient id="z" cx="0" cy="0" gradientTransform="matrix(-4.91896884 -8.21769602 3.9547417 -2.36723908 21.1404 29.3366)" gradientUnits="userSpaceOnUse" r="1"><stop offset=".27" stop-color="#0355ad"/><stop offset="1" stop-color="#2770bb" stop-opacity="0"/></radialGradient><radialGradient id="A" cx="0" cy="0" gradientTransform="matrix(0 3.21875 -4.41943 0 12.3937 20.4939)" gradientUnits="userSpaceOnUse" r="1"><stop offset=".32" stop-color="#301820"/><stop offset="1" stop-color="#3d2625"/></radialGradient><radialGradient id="B" cx="0" cy="0" gradientTransform="matrix(-1.14486865 1.17028571 -.21645668 -.21175552 23.9363 12.9601)" gradientUnits="userSpaceOnUse" r="1"><stop offset="0" stop-color="#695855"/><stop offset="1" stop-color="#4c3330"/></radialGradient><radialGradient id="C" cx="0" cy="0" gradientTransform="matrix(1.01562784 -2.93750064 1.49476907 .51680979 23.1354 15.1854)" gradientUnits="userSpaceOnUse" r="1"><stop offset=".676" stop-color="#3e2f2d" stop-opacity="0"/><stop offset="1" stop-color="#3e2f2d"/></radialGradient><linearGradient id="D"><stop offset="0" stop-color="#6a5857"/><stop offset="1" stop-color="#6a5857" stop-opacity="0"/></linearGradient><radialGradient id="E" cx="0" cy="0" gradientTransform="matrix(-.69262407 .1692278 -.21445424 -.8777291 29.6383 14.0238)" gradientUnits="userSpaceOnUse" r="1" xlink:href="#D"/><linearGradient id="F"><stop offset=".217" stop-color="#3f2534"/><stop offset="1" stop-color="#3f2534" stop-opacity="0"/></linearGradient><linearGradient id="G" gradientUnits="userSpaceOnUse" x1="27.641" x2="27.508" xlink:href="#F" y1="15.571" y2="14.315"/><linearGradient id="H"><stop offset=".287" stop-color="#695856"/><stop offset="1" stop-color="#695856" stop-opacity="0"/></linearGradient><radialGradient id="I" cx="0" cy="0" gradientTransform="matrix(.05239309 .37126334 -3.65129121 .51527422 27.185 13.3399)" gradientUnits="userSpaceOnUse" r="1" xlink:href="#H"/><radialGradient id="J" cx="0" cy="0" gradientTransform="matrix(-.68924298 .16507824 -.20551675 -.85808386 30.2165 14.3352)" gradientUnits="userSpaceOnUse" r="1" xlink:href="#D"/><linearGradient id="K" gradientUnits="userSpaceOnUse" x1="28.229" x2="28.102" xlink:href="#F" y1="15.845" y2="14.619"/><radialGradient id="L" cx="0" cy="0" gradientTransform="matrix(.05213755 .36215426 -3.63058929 .52267787 27.7751 13.6681)" gradientUnits="userSpaceOnUse" r="1" xlink:href="#H"/><radialGradient id="M" cx="0" cy="0" gradientTransform="matrix(-.69148641 .15914653 -.1911885 -.83070773 29.9351 14.7956)" gradientUnits="userSpaceOnUse" r="1" xlink:href="#D"/><linearGradient id="N" gradientUnits="userSpaceOnUse" x1="27.941" x2="27.823" xlink:href="#F" y1="16.251" y2="15.068"/><radialGradient id="O" cx="0" cy="0" gradientTransform="matrix(.05230695 .34914356 -3.63627913 .54476923 27.4858 14.1525)" gradientUnits="userSpaceOnUse" r="1" xlink:href="#H"/><radialGradient id="P" cx="0" cy="0" gradientTransform="matrix(-.8849746 .16525083 -.1960221 -1.04976526 29.1368 15.5397)" gradientUnits="userSpaceOnUse" r="1"><stop offset="0" stop-color="#ffdc47"/><stop offset="1" stop-color="#ffdc47" stop-opacity="0"/></radialGradient><radialGradient id="Q" cx="0" cy="0" gradientTransform="matrix(.03124941 .21093784 -1.74637023 .25871625 27.3151 15.076)" gradientUnits="userSpaceOnUse" r="1"><stop offset=".382" stop-color="#e4b833"/><stop offset="1" stop-color="#e4b833" stop-opacity="0"/></radialGradient><linearGradient id="R" gradientUnits="userSpaceOnUse" x1="24.588" x2="26.182" y1="16.701" y2="16.389"><stop offset=".585" stop-color="#ffca38"/><stop offset="1" stop-color="#ffca38" stop-opacity="0"/></linearGradient><radialGradient id="S" cx="0" cy="0" gradientTransform="matrix(-.96408838 .104376 -.04019467 -.37126552 29.216 15.6005)" gradientUnits="userSpaceOnUse" r="1"><stop offset="0" stop-color="#6a5957"/><stop offset="1" stop-color="#6a5957" stop-opacity="0"/></radialGradient><radialGradient id="T" cx="0" cy="0" gradientTransform="matrix(.03124941 .21093784 -1.74637023 .25871625 27.3151 15.076)" gradientUnits="userSpaceOnUse" r="1"><stop offset=".382" stop-color="#5d4b48"/><stop offset="1" stop-color="#5d4b48" stop-opacity="0"/></radialGradient><radialGradient id="U" cx="0" cy="0" gradientTransform="matrix(.9210895 -.74564404 1.75363232 2.16625122 21.8034 16.7595)" gradientUnits="userSpaceOnUse" r="1"><stop offset="0" stop-color="#4a3838"/><stop offset="1" stop-color="#4a3838" stop-opacity="0"/></radialGradient><linearGradient id="V" gradientUnits="userSpaceOnUse" x1="24.029" x2="24.183" y1="13.827" y2="14.95"><stop offset="0" stop-color="#504645"/><stop offset="1" stop-color="#504645" stop-opacity="0"/></linearGradient><radialGradient id="W" cx="0" cy="0" gradientTransform="matrix(0 1.05458 -2.63643 0 24.1041 17.2479)" gradientUnits="userSpaceOnUse" r="1"><stop offset=".09" stop-color="#499cd4"/><stop offset="1" stop-color="#2e76ab"/></radialGradient><linearGradient id="X" gradientUnits="userSpaceOnUse" x1="23.483" x2="23.483" y1="18.199" y2="18.025"><stop offset=".316" stop-color="#166599"/><stop offset="1" stop-color="#327aa5" stop-opacity="0"/><stop offset="1" stop-color="#166599" stop-opacity="0"/></linearGradient><linearGradient id="Y" gradientUnits="userSpaceOnUse" x1="24.354" x2="24.354" y1="19.264" y2="38.576"><stop offset="0" stop-color="#2e9fed"/><stop offset=".621" stop-color="#1f98e9"/></linearGradient><linearGradient id="Z" gradientUnits="userSpaceOnUse" x1="27.768" x2="22.341" y1="28.791" y2="28.791"><stop offset="0" stop-color="#4ab6fe" stop-opacity="0"/><stop offset=".458" stop-color="#4ab6fe"/><stop offset="1" stop-color="#4ab6fe" stop-opacity="0"/></linearGradient><radialGradient id="aa" cx="0" cy="0" gradientTransform="matrix(-2.1875 0 0 -.578125 24.7215 19.0877)" gradientUnits="userSpaceOnUse" r="1"><stop offset="0" stop-color="#4bb5fd"/><stop offset="1" stop-color="#4bb5fd" stop-opacity="0"/></radialGradient><linearGradient id="ab" gradientUnits="userSpaceOnUse" x1="23.312" x2="23.312" y1="18.104" y2="19.139"><stop offset=".366" stop-color="#20a5e9"/><stop offset="1" stop-color="#20a5e9" stop-opacity="0"/></linearGradient><radialGradient id="ac" cx="0" cy="0" gradientTransform="matrix(2.22935 0 0 3.90139 4.22998 12.7565)" gradientUnits="userSpaceOnUse" r="1"><stop offset=".351" stop-color="#362324"/><stop offset="1" stop-color="#332423"/></radialGradient><linearGradient id="ad" gradientUnits="userSpaceOnUse" x1="6.351" x2="5.537" y1="13.111" y2="13.111"><stop offset="0" stop-color="#281920"/><stop offset="1" stop-color="#27161d"/></linearGradient><linearGradient id="ae" gradientUnits="userSpaceOnUse" x1="19.817" x2="18.777" y1="11.37" y2="14.592"><stop offset="0" stop-color="#635251"/><stop offset="1" stop-color="#452a31"/></linearGradient><radialGradient id="af" cx="0" cy="0" gradientTransform="matrix(1.05022885 -.76472876 .87284386 1.19870711 18.9092 12.42)" gradientUnits="userSpaceOnUse" r="1"><stop offset=".543" stop-color="#40272a"/><stop offset="1" stop-color="#40272a" stop-opacity="0"/></radialGradient><radialGradient id="ag" cx="0" cy="0" gradientTransform="matrix(1.04331791 -1.918956 1.12316875 .61065604 18.384 13.7998)" gradientUnits="userSpaceOnUse" r="1"><stop offset=".755" stop-color="#31191a" stop-opacity="0"/><stop offset=".916" stop-color="#31191a"/></radialGradient><radialGradient id="ah" cx="0" cy="0" gradientTransform="matrix(.3293961 .32605224 -.42032697 .42463767 18.4365 12.7565)" gradientUnits="userSpaceOnUse" r="1"><stop offset="0" stop-color="#352123"/><stop offset="1" stop-color="#352123" stop-opacity="0"/></radialGradient><linearGradient id="ai" gradientUnits="userSpaceOnUse" x1="17.51" x2="7.808" y1="13.251" y2="14.697"><stop offset="0" stop-color="#533531"/><stop offset="1" stop-color="#3c2828"/></linearGradient><linearGradient id="aj" gradientUnits="userSpaceOnUse" x1="5.528" x2="7.918" y1="16.676" y2="16.591"><stop offset="0" stop-color="#564440"/><stop offset="1" stop-color="#564440" stop-opacity="0"/></linearGradient><radialGradient id="ak" cx="0" cy="0" gradientTransform="matrix(0 9.02628 -12.2527 0 11.9994 12.5037)" gradientUnits="userSpaceOnUse" r="1"><stop offset=".561" stop-color="#3d2138" stop-opacity="0"/><stop offset="1" stop-color="#3d2138"/></radialGradient><radialGradient id="al" cx="0" cy="0" gradientTransform="matrix(0 -1.6605 2.04368 0 15.3629 11.1413)" gradientUnits="userSpaceOnUse" r="1"><stop offset="0" stop-color="#412628"/><stop offset="1" stop-color="#412628" stop-opacity="0"/></radialGradient><radialGradient id="am" cx="0" cy="0" gradientTransform="matrix(0 -1.76694 2.19734 0 9.57247 11.0987)" gradientUnits="userSpaceOnUse" r="1"><stop offset="0" stop-color="#351d26"/><stop offset="1" stop-color="#351d26" stop-opacity="0"/></radialGradient><linearGradient id="an" gradientUnits="userSpaceOnUse" x1="12.419" x2="12.419" y1="-7.422" y2="21.147"><stop offset=".979" stop-color="#624d68" stop-opacity="0"/><stop offset="1" stop-color="#624d68"/></linearGradient><linearGradient id="ao" gradientUnits="userSpaceOnUse" x1="11.707" x2="22.053" y1="9.459" y2="5.755"><stop offset="0" stop-color="#685654"/><stop offset="1" stop-color="#685654" stop-opacity="0"/></linearGradient><radialGradient id="ap" cx="0" cy="0" gradientTransform="matrix(1.01353625 -3.75604561 1.39286084 .37585139 17.9026 7.53991)" gradientUnits="userSpaceOnUse" r="1"><stop offset="0" stop-color="#464344"/><stop offset="1" stop-color="#464344" stop-opacity="0"/></radialGradient><radialGradient id="aq" cx="0" cy="0" gradientTransform="matrix(4.85900907 .44714815 -.24042893 2.61266064 15.8159 5.30417)" gradientUnits="userSpaceOnUse" r="1"><stop offset=".122" stop-color="#4a4648"/><stop offset="1" stop-color="#4a4648" stop-opacity="0"/></radialGradient><radialGradient id="ar" cx="0" cy="0" gradientTransform="matrix(0 2.1332 -3.30372 0 12.3826 1.82953)" gradientUnits="userSpaceOnUse" r="1"><stop offset="0" stop-color="#423d3f"/><stop offset="1" stop-color="#423d3f" stop-opacity="0"/></radialGradient><radialGradient id="as" cx="0" cy="0" gradientTransform="matrix(3.90509137 -2.86174929 4.48342417 6.1179996 4.19007 10.4911)" gradientUnits="userSpaceOnUse" r="1"><stop offset="0" stop-color="#463c39"/><stop offset="1" stop-color="#463c39" stop-opacity="0"/></radialGradient><linearGradient id="at" gradientUnits="userSpaceOnUse" x1="11.285" x2="12.477" y1="14.089" y2="14.089"><stop offset="0" stop-color="#3d2928"/><stop offset="1" stop-color="#3d2928" stop-opacity="0"/></linearGradient><linearGradient id="au" gradientUnits="userSpaceOnUse" x1="13.575" x2="12.272" y1="14.498" y2="14.48"><stop offset="0" stop-color="#624d4b"/><stop offset="1" stop-color="#624d4b" stop-opacity="0"/></linearGradient><linearGradient id="av" gradientUnits="userSpaceOnUse" x1="12.63" x2="12.63" y1="15.441" y2="14.713"><stop offset="0" stop-color="#3f222f"/><stop offset="1" stop-color="#3f222f" stop-opacity="0"/></linearGradient><radialGradient id="aw" cx="0" cy="0" gradientTransform="matrix(0 .250138 -.803637 0 12.7982 14.7975)" gradientUnits="userSpaceOnUse" r="1"><stop offset="0" stop-color="#624e4d"/><stop offset="1" stop-color="#624e4d" stop-opacity="0"/></radialGradient><linearGradient id="ax" gradientUnits="userSpaceOnUse" x1="12.542" x2="12.542" y1="15.495" y2="15.282"><stop offset="0" stop-color="#31171f"/><stop offset="1" stop-color="#31171f" stop-opacity="0"/></linearGradient><linearGradient id="ay" gradientUnits="userSpaceOnUse" x1="11.065" x2="11.618" y1="17.493" y2="16.62"><stop offset="0" stop-color="#564848"/><stop offset=".663" stop-color="#564848" stop-opacity="0"/></linearGradient><linearGradient id="az"><stop offset=".802" stop-color="#7d574a"/><stop offset="1" stop-color="#694b43"/><stop offset="1" stop-color="#804d49"/><stop offset="1" stop-color="#664944"/></linearGradient><radialGradient id="aA" cx="0" cy="0" gradientTransform="matrix(0 1.03045 -1.63905 0 15.1506 11.8901)" gradientUnits="userSpaceOnUse" r="1" xlink:href="#az"/><linearGradient id="aB"><stop offset=".766" stop-color="#ffe6e2" stop-opacity="0"/><stop offset=".966" stop-color="#ffe6e2"/></linearGradient><radialGradient id="aC" cx="0" cy="0" gradientTransform="matrix(-.29455621 -.3795754 .52258444 -.40553338 14.8607 11.997)" gradientUnits="userSpaceOnUse" r="1" xlink:href="#aB"/><linearGradient id="aD"><stop offset="0" stop-color="#b4948d"/><stop offset="1" stop-color="#b4948d" stop-opacity="0"/></linearGradient><linearGradient id="aE" gradientUnits="userSpaceOnUse" x1="16.139" x2="15.74" xlink:href="#aD" y1="11.959" y2="12.204"/><radialGradient id="aF" cx="0" cy="0" gradientTransform="matrix(0 1.0305 -1.63913 0 9.60781 11.8901)" gradientUnits="userSpaceOnUse" r="1" xlink:href="#az"/><linearGradient id="aG" gradientUnits="userSpaceOnUse" x1="10.553" x2="10.154" xlink:href="#aD" y1="11.959" y2="12.204"/><radialGradient id="aH" cx="0" cy="0" gradientTransform="matrix(-.00982518 -.62753109 .75431855 -.01181028 9.24409 12.1685)" gradientUnits="userSpaceOnUse" r="1" xlink:href="#aB"/><linearGradient id="aI"><stop offset="0" stop-color="#353435"/><stop offset="1" stop-color="#353435" stop-opacity="0"/></linearGradient><linearGradient id="aJ" gradientUnits="userSpaceOnUse" x1="16.159" x2="15.625" xlink:href="#aI" y1="9.24" y2="8.15"/><linearGradient id="aK" gradientUnits="userSpaceOnUse" x1="9.42" x2="7.909" xlink:href="#aI" y1="9.078" y2="8.444"/><linearGradient id="aL" gradientUnits="userSpaceOnUse" x1="6.46" x2="6.46" y1="6.519" y2="9.259"><stop offset="0" stop-color="#3c393a"/><stop offset="1" stop-color="#3c393a" stop-opacity="0"/></linearGradient><linearGradient id="aM" gradientUnits="userSpaceOnUse" x1="28.027" x2="23.189" y1="15.703" y2="16.255"><stop offset="0" stop-color="#5e4a49"/><stop offset="1" stop-color="#5e4a49" stop-opacity="0"/></linearGradient><path d="m12.382 19.8972c-5.52287 0-10.00004 4.4771-10.00004 10v.0507h20.00004v-.0507c0-5.5229-4.4772-10-10-10z" fill="url(#w)"/><path d="m12.382 19.8972c-5.52287 0-10.00004 4.4771-10.00004 10v.0507h20.00004v-.0507c0-5.5229-4.4772-10-10-10z" fill="url(#x)"/><path d="m12.382 19.8972c-5.52287 0-10.00004 4.4771-10.00004 10v.0507h20.00004v-.0507c0-5.5229-4.4772-10-10-10z" fill="url(#y)"/><path d="m12.382 19.8972c-5.52287 0-10.00004 4.4771-10.00004 10v.0507h20.00004v-.0507c0-5.5229-4.4772-10-10-10z" fill="url(#z)"/><rect fill="url(#A)" height="6.68" rx="2.449" width="4.898" x="9.944" y="16.87"/><path d="m21.2577 15.6502h4.01489v2.01643h-4.01489z" fill="#452a32"/><path d="m22.0304 13.737c-.5547.6484-.7409 1.4166-.7617 1.7578l1.8476-.1016.8868-1.1836c.289-.3828.539-1.0195-.0352-1.4414-.4657-.3421-.9453-.0664-1.1016.1055-.0625.0573-.2484.2445-.8359.8633z" fill="url(#B)"/><path d="m22.0304 13.737c-.5547.6484-.7409 1.4166-.7617 1.7578l1.8476-.1016.8868-1.1836c.289-.3828.539-1.0195-.0352-1.4414-.4657-.3421-.9453-.0664-1.1016.1055-.0625.0573-.2484.2445-.8359.8633z" fill="url(#C)"/><g clip-rule="evenodd" fill-rule="evenodd"><path d="m29.6252 14.0423c.0816.4623-.227.9032-.6893.9848-.1476.0261-.3383.0658-.5631.1126-.6527.136-1.5935.332-2.6061.4279-.4673.0442-.8821-.2988-.9263-.7661-.0443-.4674.2987-.8821.7661-.9264.9093-.086 1.6789-.2465 2.3181-.3798.26-.0542.4984-.1039.7159-.1423.4623-.0816.9032.227.9847.6893z" fill="#4b3330"/><path d="m29.6252 14.0423c.0816.4623-.227.9032-.6893.9848-.1476.0261-.3383.0658-.5631.1126-.6527.136-1.5935.332-2.6061.4279-.4673.0442-.8821-.2988-.9263-.7661-.0443-.4674.2987-.8821.7661-.9264.9093-.086 1.6789-.2465 2.3181-.3798.26-.0542.4984-.1039.7159-.1423.4623-.0816.9032.227.9847.6893z" fill="url(#E)"/><path d="m29.6252 14.0423c.0816.4623-.227.9032-.6893.9848-.1476.0261-.3383.0658-.5631.1126-.6527.136-1.5935.332-2.6061.4279-.4673.0442-.8821-.2988-.9263-.7661-.0443-.4674.2987-.8821.7661-.9264.9093-.086 1.6789-.2465 2.3181-.3798.26-.0542.4984-.1039.7159-.1423.4623-.0816.9032.227.9847.6893z" fill="url(#G)"/><path d="m29.6252 14.0423c.0816.4623-.227.9032-.6893.9848-.1476.0261-.3383.0658-.5631.1126-.6527.136-1.5935.332-2.6061.4279-.4673.0442-.8821-.2988-.9263-.7661-.0443-.4674.2987-.8821.7661-.9264.9093-.086 1.6789-.2465 2.3181-.3798.26-.0542.4984-.1039.7159-.1423.4623-.0816.9032.227.9847.6893z" fill="url(#I)"/><path d="m30.2034 14.3705c.0815.4623-.2271.9032-.6894.9848-.1198.0211-.2582.0471-.4132.0761-.6621.1242-1.6263.3049-2.7325.4096-.4674.0443-.8821-.2987-.9263-.7661-.0443-.4673.2987-.8821.7661-.9263 1.0202-.0966 1.8891-.2591 2.5523-.3832.1659-.031.3189-.0596.4582-.0842.4623-.0816.9032.227.9848.6893z" fill="#4b3330"/><path d="m30.2034 14.3705c.0815.4623-.2271.9032-.6894.9848-.1198.0211-.2582.0471-.4132.0761-.6621.1242-1.6263.3049-2.7325.4096-.4674.0443-.8821-.2987-.9263-.7661-.0443-.4673.2987-.8821.7661-.9263 1.0202-.0966 1.8891-.2591 2.5523-.3832.1659-.031.3189-.0596.4582-.0842.4623-.0816.9032.227.9848.6893z" fill="url(#J)"/><path d="m30.2034 14.3705c.0815.4623-.2271.9032-.6894.9848-.1198.0211-.2582.0471-.4132.0761-.6621.1242-1.6263.3049-2.7325.4096-.4674.0443-.8821-.2987-.9263-.7661-.0443-.4673.2987-.8821.7661-.9263 1.0202-.0966 1.8891-.2591 2.5523-.3832.1659-.031.3189-.0596.4582-.0842.4623-.0816.9032.227.9848.6893z" fill="url(#K)"/><path d="m30.2034 14.3705c.0815.4623-.2271.9032-.6894.9848-.1198.0211-.2582.0471-.4132.0761-.6621.1242-1.6263.3049-2.7325.4096-.4674.0443-.8821-.2987-.9263-.7661-.0443-.4673.2987-.8821.7661-.9263 1.0202-.0966 1.8891-.2591 2.5523-.3832.1659-.031.3189-.0596.4582-.0842.4623-.0816.9032.227.9848.6893z" fill="url(#L)"/><path d="m29.9318 14.9281c.0411.4677-.3047.8801-.7723.9212-.3212.0283-.7391.0876-1.2602.1617l-.03.0042c-.5249.0746-1.1335.1605-1.7869.2309-.4667.0504-.8859-.2872-.9362-.7539-.0503-.4668.2872-.8859.754-.9363.6216-.067 1.2044-.1491 1.73-.2238.0214-.003.0427-.0061.064-.0091.4911-.0698.9488-.1348 1.3164-.1672.4677-.0411.8801.3047.9212.7723z" fill="#4b3330"/><path d="m29.9318 14.9281c.0411.4677-.3047.8801-.7723.9212-.3212.0283-.7391.0876-1.2602.1617l-.03.0042c-.5249.0746-1.1335.1605-1.7869.2309-.4667.0504-.8859-.2872-.9362-.7539-.0503-.4668.2872-.8859.754-.9363.6216-.067 1.2044-.1491 1.73-.2238.0214-.003.0427-.0061.064-.0091.4911-.0698.9488-.1348 1.3164-.1672.4677-.0411.8801.3047.9212.7723z" fill="url(#M)"/><path d="m29.9318 14.9281c.0411.4677-.3047.8801-.7723.9212-.3212.0283-.7391.0876-1.2602.1617l-.03.0042c-.5249.0746-1.1335.1605-1.7869.2309-.4667.0504-.8859-.2872-.9362-.7539-.0503-.4668.2872-.8859.754-.9363.6216-.067 1.2044-.1491 1.73-.2238.0214-.003.0427-.0061.064-.0091.4911-.0698.9488-.1348 1.3164-.1672.4677-.0411.8801.3047.9212.7723z" fill="url(#N)"/><path d="m29.9318 14.9281c.0411.4677-.3047.8801-.7723.9212-.3212.0283-.7391.0876-1.2602.1617l-.03.0042c-.5249.0746-1.1335.1605-1.7869.2309-.4667.0504-.8859-.2872-.9362-.7539-.0503-.4668.2872-.8859.754-.9363.6216-.067 1.2044-.1491 1.73-.2238.0214-.003.0427-.0061.064-.0091.4911-.0698.9488-.1348 1.3164-.1672.4677-.0411.8801.3047.9212.7723z" fill="url(#O)"/><g filter="url(#a)"><path d="m25.5695 13.8777c-.3287.0365-.7699.0855-1.5976.1551-.0751.0063-.1514.0122-.2286.0183-1.0595.0827-2.2733.1774-2.4665 1.3449-.1991 1.2032 1.1833 2.1418 2.8317 1.9543.5932-.0675.8662-.1536 1.1748-.2509.2427-.0765.5074-.16.9671-.2469.9165-.1025 1.7583-.2069 2.2341-.3088.4455-.0955.7293-.534.6338-.9796-.0955-.4455-.534-.7293-.9795-.6338-.3692.0791-1.0531.1667-1.8736.26l-.2036-1.3635c-.1607.014-.309.0305-.4921.0509z" fill="#ffca37"/><path d="m25.5695 13.8777c-.3287.0365-.7699.0855-1.5976.1551-.0751.0063-.1514.0122-.2286.0183-1.0595.0827-2.2733.1774-2.4665 1.3449-.1991 1.2032 1.1833 2.1418 2.8317 1.9543.5932-.0675.8662-.1536 1.1748-.2509.2427-.0765.5074-.16.9671-.2469.9165-.1025 1.7583-.2069 2.2341-.3088.4455-.0955.7293-.534.6338-.9796-.0955-.4455-.534-.7293-.9795-.6338-.3692.0791-1.0531.1667-1.8736.26l-.2036-1.3635c-.1607.014-.309.0305-.4921.0509z" fill="url(#P)"/><path d="m25.5695 13.8777c-.3287.0365-.7699.0855-1.5976.1551-.0751.0063-.1514.0122-.2286.0183-1.0595.0827-2.2733.1774-2.4665 1.3449-.1991 1.2032 1.1833 2.1418 2.8317 1.9543.5932-.0675.8662-.1536 1.1748-.2509.2427-.0765.5074-.16.9671-.2469.9165-.1025 1.7583-.2069 2.2341-.3088.4455-.0955.7293-.534.6338-.9796-.0955-.4455-.534-.7293-.9795-.6338-.3692.0791-1.0531.1667-1.8736.26l-.2036-1.3635c-.1607.014-.309.0305-.4921.0509z" fill="url(#Q)"/><path d="m25.5695 13.8777c-.3287.0365-.7699.0855-1.5976.1551-.0751.0063-.1514.0122-.2286.0183-1.0595.0827-2.2733.1774-2.4665 1.3449-.1991 1.2032 1.1833 2.1418 2.8317 1.9543.5932-.0675.8662-.1536 1.1748-.2509.2427-.0765.5074-.16.9671-.2469.9165-.1025 1.7583-.2069 2.2341-.3088.4455-.0955.7293-.534.6338-.9796-.0955-.4455-.534-.7293-.9795-.6338-.3692.0791-1.0531.1667-1.8736.26l-.2036-1.3635c-.1607.014-.309.0305-.4921.0509z" fill="url(#R)"/></g></g><g filter="url(#b)"><path d="m25.5695 13.8777c-.3287.0365-.7699.0855-1.5976.1551-.0751.0063-.1514.0122-.2285.0183-1.0596.0827-2.2734.1774-2.4666 1.3449-.199 1.2032 1.1833 2.1418 2.8317 1.9543.5932-.0675.8734-.095 1.182-.1923.2427-.0766.5002-.2186.9599-.3055.9165-.1025 1.7583-.2069 2.2341-.3088.4455-.0955.7293-.534.6338-.9796-.0954-.4455-.534-.7293-.9795-.6338-.3692.0791-1.053.1667-1.8736.26l-.2036-1.3635c-.1607.014-.3089.0305-.4921.0509z" fill="#4f3632"/><path d="m25.5695 13.8777c-.3287.0365-.7699.0855-1.5976.1551-.0751.0063-.1514.0122-.2285.0183-1.0596.0827-2.2734.1774-2.4666 1.3449-.199 1.2032 1.1833 2.1418 2.8317 1.9543.5932-.0675.8734-.095 1.182-.1923.2427-.0766.5002-.2186.9599-.3055.9165-.1025 1.7583-.2069 2.2341-.3088.4455-.0955.7293-.534.6338-.9796-.0954-.4455-.534-.7293-.9795-.6338-.3692.0791-1.053.1667-1.8736.26l-.2036-1.3635c-.1607.014-.3089.0305-.4921.0509z" fill="url(#S)"/><path d="m25.5695 13.8777c-.3287.0365-.7699.0855-1.5976.1551-.0751.0063-.1514.0122-.2285.0183-1.0596.0827-2.2734.1774-2.4666 1.3449-.199 1.2032 1.1833 2.1418 2.8317 1.9543.5932-.0675.8734-.095 1.182-.1923.2427-.0766.5002-.2186.9599-.3055.9165-.1025 1.7583-.2069 2.2341-.3088.4455-.0955.7293-.534.6338-.9796-.0954-.4455-.534-.7293-.9795-.6338-.3692.0791-1.053.1667-1.8736.26l-.2036-1.3635c-.1607.014-.3089.0305-.4921.0509z" fill="url(#T)"/><path d="m25.5695 13.8777c-.3287.0365-.7699.0855-1.5976.1551-.0751.0063-.1514.0122-.2285.0183-1.0596.0827-2.2734.1774-2.4666 1.3449-.199 1.2032 1.1833 2.1418 2.8317 1.9543.5932-.0675.8734-.095 1.182-.1923.2427-.0766.5002-.2186.9599-.3055.9165-.1025 1.7583-.2069 2.2341-.3088.4455-.0955.7293-.534.6338-.9796-.0954-.4455-.534-.7293-.9795-.6338-.3692.0791-1.053.1667-1.8736.26l-.2036-1.3635c-.1607.014-.3089.0305-.4921.0509z" fill="url(#U)"/><path d="m25.5695 13.8777c-.3287.0365-.7699.0855-1.5976.1551-.0751.0063-.1514.0122-.2285.0183-1.0596.0827-2.2734.1774-2.4666 1.3449-.199 1.2032 1.1833 2.1418 2.8317 1.9543.5932-.0675.8734-.095 1.182-.1923.2427-.0766.5002-.2186.9599-.3055.9165-.1025 1.7583-.2069 2.2341-.3088.4455-.0955.7293-.534.6338-.9796-.0954-.4455-.534-.7293-.9795-.6338-.3692.0791-1.053.1667-1.8736.26l-.2036-1.3635c-.1607.014-.3089.0305-.4921.0509z" fill="url(#V)"/></g><path d="m21.0148 17.4089c0-.1381.1119-.25.25-.25h4.0937c.1381 0 .25.1119.25.25v1.6406h-4.5937z" fill="url(#W)"/><path d="m21.0148 17.4089c0-.1381.1119-.25.25-.25h4.0937c.1381 0 .25.1119.25.25v1.6406h-4.5937z" fill="url(#X)"/><g filter="url(#c)"><path d="m20.1163 18.9042c0-.4418.3582-.8.8-.8h4.7907c.4418 0 .8.3582.8.8v11.0437h-6.3907z" fill="url(#Y)"/><path d="m20.1163 18.9042c0-.4418.3582-.8.8-.8h4.7907c.4418 0 .8.3582.8.8v11.0437h-6.3907z" fill="url(#Z)"/><path d="m20.1163 18.9042c0-.4418.3582-.8.8-.8h4.7907c.4418 0 .8.3582.8.8v11.0437h-6.3907z" fill="url(#aa)"/><path d="m20.1163 18.9042c0-.4418.3582-.8.8-.8h4.7907c.4418 0 .8.3582.8.8v11.0437h-6.3907z" fill="url(#ab)"/></g><g filter="url(#d)"><circle cx="6.351" cy="12.757" fill="url(#ac)" r="2.121"/></g><g filter="url(#e)"><circle cx="6.351" cy="12.757" fill="url(#ad)" r="1.264"/></g><g filter="url(#f)"><circle cx="18.436" cy="12.757" fill="url(#ae)" r="2.121"/><circle cx="18.436" cy="12.757" fill="url(#af)" r="2.121"/></g><g filter="url(#g)"><circle cx="18.436" cy="12.757" fill="#463133" r="1.264"/><circle cx="18.436" cy="12.757" fill="url(#ag)" r="1.264"/><circle cx="18.436" cy="12.757" fill="url(#ah)" r="1.264"/></g><g filter="url(#h)"><path d="m5.9038 11.9781c.02057.0014.04136.0021.06232.0021 0 0-.06814-1.0841-.13629-1.8294 0-.33874.13629-.74527.40886-.94853l.20443-.20327c.34071-.27102.477-.67754.477-1.08407v-1.08408c0-.33877.20443-.60979.54514-.67755.81772-.20326 2.52129-.54203 4.97444-.54203 2.4531 0 4.1567.33877 4.9744.54203.2726.06776.5452.33878.5452.67755v1.08408c0 .40653.2044.81305.477 1.08407.6378.44696.5981.69279.5451 1.2196-.0681.6775-.1363 1.8294-.1363 1.8294.0077 0 .0154-.0001.023-.0003l-.3377 5.0288c-.2039 2.248-1.9713 3.8148-4.0784 3.8148h-4.0785c-2.17512 0-3.87446-1.5668-4.07838-3.8148z" fill="url(#ai)"/><path d="m5.9038 11.9781c.02057.0014.04136.0021.06232.0021 0 0-.06814-1.0841-.13629-1.8294 0-.33874.13629-.74527.40886-.94853l.20443-.20327c.34071-.27102.477-.67754.477-1.08407v-1.08408c0-.33877.20443-.60979.54514-.67755.81772-.20326 2.52129-.54203 4.97444-.54203 2.4531 0 4.1567.33877 4.9744.54203.2726.06776.5452.33878.5452.67755v1.08408c0 .40653.2044.81305.477 1.08407.6378.44696.5981.69279.5451 1.2196-.0681.6775-.1363 1.8294-.1363 1.8294.0077 0 .0154-.0001.023-.0003l-.3377 5.0288c-.2039 2.248-1.9713 3.8148-4.0784 3.8148h-4.0785c-2.17512 0-3.87446-1.5668-4.07838-3.8148z" fill="url(#aj)"/><path d="m5.9038 11.9781c.02057.0014.04136.0021.06232.0021 0 0-.06814-1.0841-.13629-1.8294 0-.33874.13629-.74527.40886-.94853l.20443-.20327c.34071-.27102.477-.67754.477-1.08407v-1.08408c0-.33877.20443-.60979.54514-.67755.81772-.20326 2.52129-.54203 4.97444-.54203 2.4531 0 4.1567.33877 4.9744.54203.2726.06776.5452.33878.5452.67755v1.08408c0 .40653.2044.81305.477 1.08407.6378.44696.5981.69279.5451 1.2196-.0681.6775-.1363 1.8294-.1363 1.8294.0077 0 .0154-.0001.023-.0003l-.3377 5.0288c-.2039 2.248-1.9713 3.8148-4.0784 3.8148h-4.0785c-2.17512 0-3.87446-1.5668-4.07838-3.8148z" fill="url(#ak)"/><path d="m5.9038 11.9781c.02057.0014.04136.0021.06232.0021 0 0-.06814-1.0841-.13629-1.8294 0-.33874.13629-.74527.40886-.94853l.20443-.20327c.34071-.27102.477-.67754.477-1.08407v-1.08408c0-.33877.20443-.60979.54514-.67755.81772-.20326 2.52129-.54203 4.97444-.54203 2.4531 0 4.1567.33877 4.9744.54203.2726.06776.5452.33878.5452.67755v1.08408c0 .40653.2044.81305.477 1.08407.6378.44696.5981.69279.5451 1.2196-.0681.6775-.1363 1.8294-.1363 1.8294.0077 0 .0154-.0001.023-.0003l-.3377 5.0288c-.2039 2.248-1.9713 3.8148-4.0784 3.8148h-4.0785c-2.17512 0-3.87446-1.5668-4.07838-3.8148z" fill="url(#al)"/><path d="m5.9038 11.9781c.02057.0014.04136.0021.06232.0021 0 0-.06814-1.0841-.13629-1.8294 0-.33874.13629-.74527.40886-.94853l.20443-.20327c.34071-.27102.477-.67754.477-1.08407v-1.08408c0-.33877.20443-.60979.54514-.67755.81772-.20326 2.52129-.54203 4.97444-.54203 2.4531 0 4.1567.33877 4.9744.54203.2726.06776.5452.33878.5452.67755v1.08408c0 .40653.2044.81305.477 1.08407.6378.44696.5981.69279.5451 1.2196-.0681.6775-.1363 1.8294-.1363 1.8294.0077 0 .0154-.0001.023-.0003l-.3377 5.0288c-.2039 2.248-1.9713 3.8148-4.0784 3.8148h-4.0785c-2.17512 0-3.87446-1.5668-4.07838-3.8148z" fill="url(#am)"/><path d="m5.9038 11.9781c.02057.0014.04136.0021.06232.0021 0 0-.06814-1.0841-.13629-1.8294 0-.33874.13629-.74527.40886-.94853l.20443-.20327c.34071-.27102.477-.67754.477-1.08407v-1.08408c0-.33877.20443-.60979.54514-.67755.81772-.20326 2.52129-.54203 4.97444-.54203 2.4531 0 4.1567.33877 4.9744.54203.2726.06776.5452.33878.5452.67755v1.08408c0 .40653.2044.81305.477 1.08407.6378.44696.5981.69279.5451 1.2196-.0681.6775-.1363 1.8294-.1363 1.8294.0077 0 .0154-.0001.023-.0003l-.3377 5.0288c-.2039 2.248-1.9713 3.8148-4.0784 3.8148h-4.0785c-2.17512 0-3.87446-1.5668-4.07838-3.8148z" fill="url(#an)"/></g><g filter="url(#i)"><path d="m17.4178 5.61127-3.9095 1.30343c-.6657.22193-1.0445.92268-.8656 1.60115.171.64859.7981 1.06843 1.4629.97942l3.887-.52044z" fill="url(#ao)"/></g><g filter="url(#j)"><path d="m18.5045 4.52718.5451.27102c.954.47428 1.4991 1.55836 1.2947 2.71019l-.7496 3.86201c-.0668.3989-.3305.6673-.7265.6773-.0076.0002-.0153.0002-.023.0002 0 0 .0681-1.1518.1363-1.8294.0553-.55017-.0408-.718-.5452-1.21954-.2725-.27102-.477-.67755-.477-1.08408v-1.08408c0-.33877-.2725-.60979-.5451-.67754-.8177-.20327-2.5213-.54204-4.9744-.54204-2.45319 0-4.15676.33877-4.97447.54204-.34072.06775-.54514.33877-.54514.67754v1.08408c0 .40653-.13629.81306-.477 1.08408l-.20443.20326c-.27257.20326-.40886.60979-.40886.94858.06814.7453.13629 1.8294.13629 1.8294-.02097 0-.04175-.0007-.06233-.0022-.38076-.026-.69074-.2897-.75539-.6753l-.74957-3.86207c-.13629-1.08407.40885-2.16815 1.36285-2.64243l.54515-.27102c.34071-.20326.68142-.47428 1.02214-.7453l1.22657-1.28734c.74957-.67755 1.83989-.88081 2.79389-.40653.6814.20327 1.431.20327 2.1124 0 1.0221-.33877 2.1806-.06775 2.9983.67755l1.0221 1.01632c.2726.33877.6133.54204 1.0222.7453z" fill="#21181b"/><path d="m18.5045 4.52718.5451.27102c.954.47428 1.4991 1.55836 1.2947 2.71019l-.7496 3.86201c-.0668.3989-.3305.6673-.7265.6773-.0076.0002-.0153.0002-.023.0002 0 0 .0681-1.1518.1363-1.8294.0553-.55017-.0408-.718-.5452-1.21954-.2725-.27102-.477-.67755-.477-1.08408v-1.08408c0-.33877-.2725-.60979-.5451-.67754-.8177-.20327-2.5213-.54204-4.9744-.54204-2.45319 0-4.15676.33877-4.97447.54204-.34072.06775-.54514.33877-.54514.67754v1.08408c0 .40653-.13629.81306-.477 1.08408l-.20443.20326c-.27257.20326-.40886.60979-.40886.94858.06814.7453.13629 1.8294.13629 1.8294-.02097 0-.04175-.0007-.06233-.0022-.38076-.026-.69074-.2897-.75539-.6753l-.74957-3.86207c-.13629-1.08407.40885-2.16815 1.36285-2.64243l.54515-.27102c.34071-.20326.68142-.47428 1.02214-.7453l1.22657-1.28734c.74957-.67755 1.83989-.88081 2.79389-.40653.6814.20327 1.431.20327 2.1124 0 1.0221-.33877 2.1806-.06775 2.9983.67755l1.0221 1.01632c.2726.33877.6133.54204 1.0222.7453z" fill="url(#ap)"/><path d="m18.5045 4.52718.5451.27102c.954.47428 1.4991 1.55836 1.2947 2.71019l-.7496 3.86201c-.0668.3989-.3305.6673-.7265.6773-.0076.0002-.0153.0002-.023.0002 0 0 .0681-1.1518.1363-1.8294.0553-.55017-.0408-.718-.5452-1.21954-.2725-.27102-.477-.67755-.477-1.08408v-1.08408c0-.33877-.2725-.60979-.5451-.67754-.8177-.20327-2.5213-.54204-4.9744-.54204-2.45319 0-4.15676.33877-4.97447.54204-.34072.06775-.54514.33877-.54514.67754v1.08408c0 .40653-.13629.81306-.477 1.08408l-.20443.20326c-.27257.20326-.40886.60979-.40886.94858.06814.7453.13629 1.8294.13629 1.8294-.02097 0-.04175-.0007-.06233-.0022-.38076-.026-.69074-.2897-.75539-.6753l-.74957-3.86207c-.13629-1.08407.40885-2.16815 1.36285-2.64243l.54515-.27102c.34071-.20326.68142-.47428 1.02214-.7453l1.22657-1.28734c.74957-.67755 1.83989-.88081 2.79389-.40653.6814.20327 1.431.20327 2.1124 0 1.0221-.33877 2.1806-.06775 2.9983.67755l1.0221 1.01632c.2726.33877.6133.54204 1.0222.7453z" fill="url(#aq)"/><path d="m18.5045 4.52718.5451.27102c.954.47428 1.4991 1.55836 1.2947 2.71019l-.7496 3.86201c-.0668.3989-.3305.6673-.7265.6773-.0076.0002-.0153.0002-.023.0002 0 0 .0681-1.1518.1363-1.8294.0553-.55017-.0408-.718-.5452-1.21954-.2725-.27102-.477-.67755-.477-1.08408v-1.08408c0-.33877-.2725-.60979-.5451-.67754-.8177-.20327-2.5213-.54204-4.9744-.54204-2.45319 0-4.15676.33877-4.97447.54204-.34072.06775-.54514.33877-.54514.67754v1.08408c0 .40653-.13629.81306-.477 1.08408l-.20443.20326c-.27257.20326-.40886.60979-.40886.94858.06814.7453.13629 1.8294.13629 1.8294-.02097 0-.04175-.0007-.06233-.0022-.38076-.026-.69074-.2897-.75539-.6753l-.74957-3.86207c-.13629-1.08407.40885-2.16815 1.36285-2.64243l.54515-.27102c.34071-.20326.68142-.47428 1.02214-.7453l1.22657-1.28734c.74957-.67755 1.83989-.88081 2.79389-.40653.6814.20327 1.431.20327 2.1124 0 1.0221-.33877 2.1806-.06775 2.9983.67755l1.0221 1.01632c.2726.33877.6133.54204 1.0222.7453z" fill="url(#ar)"/><path d="m18.5045 4.52718.5451.27102c.954.47428 1.4991 1.55836 1.2947 2.71019l-.7496 3.86201c-.0668.3989-.3305.6673-.7265.6773-.0076.0002-.0153.0002-.023.0002 0 0 .0681-1.1518.1363-1.8294.0553-.55017-.0408-.718-.5452-1.21954-.2725-.27102-.477-.67755-.477-1.08408v-1.08408c0-.33877-.2725-.60979-.5451-.67754-.8177-.20327-2.5213-.54204-4.9744-.54204-2.45319 0-4.15676.33877-4.97447.54204-.34072.06775-.54514.33877-.54514.67754v1.08408c0 .40653-.13629.81306-.477 1.08408l-.20443.20326c-.27257.20326-.40886.60979-.40886.94858.06814.7453.13629 1.8294.13629 1.8294-.02097 0-.04175-.0007-.06233-.0022-.38076-.026-.69074-.2897-.75539-.6753l-.74957-3.86207c-.13629-1.08407.40885-2.16815 1.36285-2.64243l.54515-.27102c.34071-.20326.68142-.47428 1.02214-.7453l1.22657-1.28734c.74957-.67755 1.83989-.88081 2.79389-.40653.6814.20327 1.431.20327 2.1124 0 1.0221-.33877 2.1806-.06775 2.9983.67755l1.0221 1.01632c.2726.33877.6133.54204 1.0222.7453z" fill="url(#as)"/></g><g filter="url(#k)"><path d="m12.0328 12.6013-1.0422 2.1591c-.1292.4442.1809.8883.6201.8883h.9366c.4392 0 .7492-.451.62-.8883l-.633-2.1591c-.1356-.4783-.3594-.4783-.5015 0z" fill="#332024"/></g><g filter="url(#l)"><path d="m11.897 12.3941-.675 2.1591c-.1378.4442.1928.8883.6612.8883h.9988c.4683 0 .799-.451.6612-.8883l-.675-2.1591c-.1447-.4783-.8197-.4783-.9712 0z" fill="#4b3034"/><path d="m11.897 12.3941-.675 2.1591c-.1378.4442.1928.8883.6612.8883h.9988c.4683 0 .799-.451.6612-.8883l-.675-2.1591c-.1447-.4783-.8197-.4783-.9712 0z" fill="url(#at)"/><path d="m11.897 12.3941-.675 2.1591c-.1378.4442.1928.8883.6612.8883h.9988c.4683 0 .799-.451.6612-.8883l-.675-2.1591c-.1447-.4783-.8197-.4783-.9712 0z" fill="url(#au)"/><path d="m11.897 12.3941-.675 2.1591c-.1378.4442.1928.8883.6612.8883h.9988c.4683 0 .799-.451.6612-.8883l-.675-2.1591c-.1447-.4783-.8197-.4783-.9712 0z" fill="url(#av)"/><path d="m11.897 12.3941-.675 2.1591c-.1378.4442.1928.8883.6612.8883h.9988c.4683 0 .799-.451.6612-.8883l-.675-2.1591c-.1447-.4783-.8197-.4783-.9712 0z" fill="url(#aw)"/></g><path d="m11.897 12.3941-.675 2.1591c-.1378.4442.1928.8883.6612.8883h.9988c.4683 0 .799-.451.6612-.8883l-.675-2.1591c-.1447-.4783-.8197-.4783-.9712 0z" fill="url(#ax)"/><path d="m10.646 16.2712-.0004-.0002c-.1093-.0556-.223-.0211-.291.0504-.0682.0718-.0945.1861-.0245.2876.4345.6581 1.191 1.0965 2.0525 1.0965s1.6182-.4386 2.0526-1.0968c.0693-.104.0441-.2182-.025-.2899-.0684-.0711-.1821-.103-.2907-.0478l-.0004.0002c-.5019.2616-1.0933.4115-1.7365.4115-.6369 0-1.2348-.1499-1.7366-.4115z" fill="#2a0219" stroke="url(#ay)" stroke-width=".1"/><g filter="url(#m)"><path d="m17.1079 9.30109-.0016-.0013-.0024-.00195-.0057-.00464-.0152-.01211c-.0119-.00929-.0271-.02094-.0457-.03454-.0371-.02719-.0877-.06233-.1511-.10204-.1264-.07923-.306-.17794-.5332-.26774-.456-.1803-1.1073-.32556-1.8963-.20098-.3698.0584-.6223.40557-.5639.77543.0584.36987.4056.62238.7754.56398.5054-.07981.91.0134 1.1863.1226.139.0549.2447.1138.3119.1559.0335.0209.0569.0374.0696.0467.0052.0038.0086.0064.01.0075.2876.2345.711.1942.9491-.0915.2398-.28767.2004-.71559-.0872-.95531z" fill="#1e1e1e"/></g><g filter="url(#n)"><path d="m7.5887 9.30149.00098-.00081.00106-.00089.00237-.00195.0057-.00464.01523-.01211c.01185-.00929.02709-.02094.04566-.03454.03711-.02719.08769-.06233.15109-.10204.12649-.07923.30605-.17794.5332-.26774.45606-.1803 1.10731-.32556 1.89631-.20098.3698.0584.6223.40557.5639.77543-.0584.36987-.4055.62238-.7754.56398-.50535-.07981-.91.0134-1.18627.1226-.139.0549-.24471.1138-.31194.1559-.03346.0209-.05685.0374-.06951.0467-.00527.0038-.00863.0064-.01004.0075-.28758.2345-.71103.1942-.94915-.0915-.23972-.28767-.20085-.71519.08681-.95491z" fill="#1e1e1e"/></g><path d="m15.416 10.939c.8295 0 1.5302.5719 1.7208 1.3448.0567.2215-.1133.4328-.34.4328h-2.8338c-.1803 0-.3246-.1649-.2885-.3452.1597-.8141.8759-1.4324 1.7415-1.4324z" fill="#fff"/><path d="m15.1532 11.2842c.6285 0 1.1335.5101 1.1335 1.1335 0 .1031-.0155.2061-.0413.2989h-2.1897c-.0257-.0979-.0412-.1958-.0412-.2989 0-.6234.5101-1.1335 1.1387-1.1335z" fill="url(#aA)"/><path d="m14.504 12.4177c0-.3606.2886-.6491.6492-.6491.3607 0 .6492.2885.6492.6491 0 .1082-.0258.2113-.0721.2989h-1.149c-.0515-.0876-.0773-.1907-.0773-.2989z" fill="#000"/><g filter="url(#o)"><path d="m15.0698 11.5239c.0807.108-.0881.2397-.28.3832s-.3343.2444-.4151.1364c-.0807-.108.0094-.3119.2013-.4554.192-.1435.413-.1722.4938-.0642z" fill="#c7a7a3"/><path d="m15.0698 11.5239c.0807.108-.0881.2397-.28.3832s-.3343.2444-.4151.1364c-.0807-.108.0094-.3119.2013-.4554.192-.1435.413-.1722.4938-.0642z" fill="url(#aC)"/></g><g filter="url(#p)"><path d="m16.1628 12.2685c-.0418-.2931-.2133-.5139-.2938-.5877l-.3301.3623.149.2898z" fill="url(#aE)"/></g><path d="m9.34252 10.939c-.82955 0-1.5303.5719-1.72094 1.3448-.05668.2215.11336.4328.34007.4328h2.83385c.1804 0 .3246-.1649.2886-.3452-.1598-.8141-.8811-1.4324-1.74158-1.4324z" fill="#fff"/><path d="m9.60523 11.2842c-.6286 0-1.13355.5101-1.13355 1.1335 0 .1031.01546.2061.04122.2989h2.1898c.0258-.0979.0412-.1958.0412-.2989-.0051-.6234-.5101-1.1335-1.13867-1.1335z" fill="url(#aF)"/><path d="m10.2545 12.4177c0-.3607-.28855-.6492-.64923-.6492-.36067 0-.64922.2885-.64922.6492 0 .1082.02577.2113.07214.2989h1.14901c.0464-.0876.0773-.1907.0773-.2989z" fill="#000"/><g filter="url(#q)"><path d="m10.6409 12.2845c0-.3663-.2978-.6105-.3783-.6843l-.36636.3543.22546.4589z" fill="url(#aG)"/></g><g filter="url(#r)"><ellipse cx="9.263" cy="11.768" fill="#c7a7a3" fill-opacity=".9" rx=".495" ry=".25" transform="matrix(.88365127 -.46814574 .46814574 .88365127 -4.431605 5.705806)"/><ellipse cx="9.263" cy="11.768" fill="url(#aH)" rx=".495" ry=".25" transform="matrix(.88365127 -.46814574 .46814574 .88365127 -4.431605 5.705806)"/></g><g filter="url(#s)"><path d="m14.4922 9.11743c.5464-.09561 1.6118-.0683 2.3494.50541" stroke="url(#aJ)" stroke-linecap="round" stroke-width=".3"/></g><g filter="url(#t)"><path d="m7.86135 9.77609c.41561-.36733 1.32319-.75412 2.44825-.57479" stroke="url(#aK)" stroke-linecap="round" stroke-width=".5"/></g><g filter="url(#u)"><path d="m6.62406 6.64423v1.14022c-.00994.1888-.08944.61111-.32792.78996" stroke="url(#aL)" stroke-linecap="round" stroke-width=".25"/></g><g filter="url(#v)"><path d="m23.375 16.2812c.9844-.0468 3.3625-.2281 5-.5781" stroke="url(#aM)" stroke-linecap="round" stroke-width=".25"/></g></svg>