<svg fill="none" height="32" viewBox="0 0 32 32" width="32" xmlns="http://www.w3.org/2000/svg" xmlns:xlink="http://www.w3.org/1999/xlink"><filter id="a" color-interpolation-filters="sRGB" filterUnits="userSpaceOnUse" height="12.779" width="12.186" x="10.111" y="1.78"><feFlood flood-opacity="0" result="BackgroundImageFix"/><feBlend in="SourceGraphic" in2="BackgroundImageFix" mode="normal" result="shape"/><feGaussianBlur result="effect1_foregroundBlur_18_17700" stdDeviation=".1"/></filter><filter id="b" color-interpolation-filters="sRGB" filterUnits="userSpaceOnUse" height="5.929" width="19.477" x="6.386" y="23.938"><feFlood flood-opacity="0" result="BackgroundImageFix"/><feBlend in="SourceGraphic" in2="BackgroundImageFix" mode="normal" result="shape"/><feColorMatrix in="SourceAlpha" result="hardAlpha" type="matrix" values="0 0 0 0 0 0 0 0 0 0 0 0 0 0 0 0 0 0 127 0"/><feOffset dx=".25"/><feGaussianBlur stdDeviation=".625"/><feComposite in2="hardAlpha" k2="-1" k3="1" operator="arithmetic"/><feColorMatrix type="matrix" values="0 0 0 0 0.337255 0 0 0 0 0.333333 0 0 0 0 0.341176 0 0 0 1 0"/><feBlend in2="shape" mode="normal" result="effect1_innerShadow_18_17700"/></filter><linearGradient id="c" gradientUnits="userSpaceOnUse" x1="16.077" x2="16.077" y1="2.104" y2="20.471"><stop offset=".256" stop-color="#ff3e6c"/><stop offset="1" stop-color="#e33099"/></linearGradient><linearGradient id="d" gradientUnits="userSpaceOnUse" x1="9.78" x2="15.686" y1="17.437" y2="16.656"><stop offset=".02" stop-color="#b03944"/><stop offset="1" stop-color="#d02486" stop-opacity="0"/></linearGradient><radialGradient id="e" cx="0" cy="0" gradientTransform="matrix(0 9.4375 -3.80062 0 19.1861 13.1244)" gradientUnits="userSpaceOnUse" r="1"><stop offset=".1" stop-color="#ff4fa1"/><stop offset="1" stop-color="#ff4fa1" stop-opacity="0"/></radialGradient><linearGradient id="f" gradientUnits="userSpaceOnUse" x1="22.217" x2="19.374" y1="19.718" y2="19.718"><stop offset="0" stop-color="#ff4250"/><stop offset="1" stop-color="#ff4384" stop-opacity="0"/></linearGradient><radialGradient id="g" cx="0" cy="0" gradientTransform="matrix(0 7.38781 -3.42468 0 16.2037 8.16964)" gradientUnits="userSpaceOnUse" r="1"><stop offset=".603" stop-color="#ff6f9b"/><stop offset="1" stop-color="#ff4175"/></radialGradient><radialGradient id="h" cx="0" cy="0" gradientTransform="matrix(-7.62501101 -8.9375282 2.51635672 -2.14681814 20.2175 15.4369)" gradientUnits="userSpaceOnUse" r="1"><stop offset=".308" stop-color="#ff5ea4"/><stop offset="1" stop-color="#ff5ea4" stop-opacity="0"/></radialGradient><radialGradient id="i" cx="0" cy="0" gradientTransform="matrix(2.31249633 -.9827875 1.74643505 4.10935697 11.7175 8.16965)" gradientUnits="userSpaceOnUse" r="1"><stop offset="0" stop-color="#dc2779"/><stop offset=".686" stop-color="#dc2779" stop-opacity="0"/></radialGradient><radialGradient id="j" cx="0" cy="0" gradientTransform="matrix(-10.5938 0 0 -6.3125 20.1551 20.9368)" gradientUnits="userSpaceOnUse" r="1"><stop offset="0" stop-color="#ffe35c"/><stop offset="1" stop-color="#ff973b"/></radialGradient><radialGradient id="k" cx="0" cy="0" gradientTransform="matrix(0 1.4375 -7.28125 0 19.9051 20.1555)" gradientUnits="userSpaceOnUse" r="1"><stop offset="0" stop-color="#fff66c"/><stop offset="1" stop-color="#ffde60" stop-opacity="0"/></radialGradient><linearGradient id="l" gradientUnits="userSpaceOnUse" x1="12.686" x2="12.718" y1="19.624" y2="20.812"><stop offset="0" stop-color="#fbad38"/><stop offset="1" stop-color="#fbad38" stop-opacity="0"/></linearGradient><linearGradient id="m" gradientUnits="userSpaceOnUse" x1="7.749" x2="10.061" y1="22.889" y2="22.889"><stop offset="0" stop-color="#df8d58"/><stop offset="1" stop-color="#df8d58" stop-opacity="0"/></linearGradient><linearGradient id="n" gradientUnits="userSpaceOnUse" x1="13.936" x2="25.613" y1="28.437" y2="28.437"><stop offset="0" stop-color="#503669"/><stop offset="1" stop-color="#6a577e"/></linearGradient><linearGradient id="o" gradientUnits="userSpaceOnUse" x1="24.467" x2="14.499" y1="29.867" y2="29.867"><stop offset="0" stop-color="#736486" stop-opacity="0"/><stop offset=".304" stop-color="#736486"/><stop offset=".536" stop-color="#736486"/><stop offset="1" stop-color="#736486" stop-opacity="0"/></linearGradient><linearGradient id="p"><stop offset="0" stop-color="#35303c"/><stop offset="1" stop-color="#35303c" stop-opacity="0"/></linearGradient><linearGradient id="q" gradientUnits="userSpaceOnUse" x1="6.386" x2="14.28" xlink:href="#p" y1="29.343" y2="29.343"/><radialGradient id="r" cx="0" cy="0" gradientTransform="matrix(0 .75 -5.5 0 20.6236 25.1868)" gradientUnits="userSpaceOnUse" r="1"><stop offset="0" stop-color="#857993"/><stop offset="1" stop-color="#857993" stop-opacity="0"/></radialGradient><linearGradient id="s" gradientUnits="userSpaceOnUse" x1="12.53" x2="12.624" xlink:href="#p" y1="23.624" y2="25.28"/><path d="m22.0294 12.0733c.0279-1.7875-1.0823-4.22814-3.0682-6.38287-2.8754-3.11987-6.4977-4.45889-8.0907-2.99072-.5581.51431-.793 1.30484-.7392 2.24908v15.52181h11.8986z" fill="url(#c)"/><path d="m22.0294 12.0733c.0279-1.7875-1.0823-4.22814-3.0682-6.38287-2.8754-3.11987-6.4977-4.45889-8.0907-2.99072-.5581.51431-.793 1.30484-.7392 2.24908v15.52181h11.8986z" fill="url(#d)"/><path d="m22.0294 12.0733c.0279-1.7875-1.0823-4.22814-3.0682-6.38287-2.8754-3.11987-6.4977-4.45889-8.0907-2.99072-.5581.51431-.793 1.30484-.7392 2.24908v15.52181h11.8986z" fill="url(#e)"/><path d="m22.0294 12.0733c.0279-1.7875-1.0823-4.22814-3.0682-6.38287-2.8754-3.11987-6.4977-4.45889-8.0907-2.99072-.5581.51431-.793 1.30484-.7392 2.24908v15.52181h11.8986z" fill="url(#f)"/><g filter="url(#a)"><ellipse cx="16.204" cy="8.17" fill="url(#g)" rx="3.538" ry="7.388" transform="matrix(.73533345 -.67770548 .67770548 .73533345 -1.248032 13.143567)"/><g stroke-width=".25"><path d="m21.2952 13.6941c.7741-.7135.8469-1.9865.4081-3.4153-.4418-1.43856-1.4135-3.08095-2.8059-4.59174-1.3924-1.51078-2.9502-2.61294-4.3479-3.17043-1.3884-.55376-2.6631-.58486-3.4372.12859-.7741.71346-.847 1.98644-.4081 3.41531.4418 1.43852 1.4135 3.08091 2.8059 4.59167 1.3923 1.5108 2.9502 2.613 4.3479 3.1705 1.3884.5537 2.6631.5848 3.4372-.1286z" stroke="url(#h)"/><path d="m21.2952 13.6941c.7741-.7135.8469-1.9865.4081-3.4153-.4418-1.43856-1.4135-3.08095-2.8059-4.59174-1.3924-1.51078-2.9502-2.61294-4.3479-3.17043-1.3884-.55376-2.6631-.58486-3.4372.12859-.7741.71346-.847 1.98644-.4081 3.41531.4418 1.43852 1.4135 3.08091 2.8059 4.59167 1.3923 1.5108 2.9502 2.613 4.3479 3.1705 1.3884.5537 2.6631.5848 3.4372-.1286z" stroke="url(#i)"/></g></g><path d="m8.06836 20.9504c0-.5522.44771-1 1-1h13.86354c.5523 0 1 .4478 1 1v4.8773h-15.86354z" fill="url(#j)"/><path d="m8.06836 20.9504c0-.5522.44771-1 1-1h13.86354c.5523 0 1 .4478 1 1v4.8773h-15.86354z" fill="url(#k)"/><path d="m8.06836 20.9504c0-.5522.44771-1 1-1h13.86354c.5523 0 1 .4478 1 1v4.8773h-15.86354z" fill="url(#l)"/><path d="m8.06836 20.9504c0-.5522.44771-1 1-1h13.86354c.5523 0 1 .4478 1 1v4.8773h-15.86354z" fill="url(#m)"/><g filter="url(#b)"><path d="m6.38647 25.338c0-.7732.62681-1.4 1.4-1.4h16.42693c.7732 0 1.4.6268 1.4 1.4v4.5293h-19.22693z" fill="url(#n)"/><path d="m6.38647 25.338c0-.7732.62681-1.4 1.4-1.4h16.42693c.7732 0 1.4.6268 1.4 1.4v4.5293h-19.22693z" fill="url(#o)"/><path d="m6.38647 25.338c0-.7732.62681-1.4 1.4-1.4h16.42693c.7732 0 1.4.6268 1.4 1.4v4.5293h-19.22693z" fill="url(#q)"/><path d="m6.38647 25.338c0-.7732.62681-1.4 1.4-1.4h16.42693c.7732 0 1.4.6268 1.4 1.4v4.5293h-19.22693z" fill="url(#r)"/><path d="m6.38647 25.338c0-.7732.62681-1.4 1.4-1.4h16.42693c.7732 0 1.4.6268 1.4 1.4v4.5293h-19.22693z" fill="url(#s)"/></g></svg>