<svg fill="none" height="32" viewBox="0 0 32 32" width="32" xmlns="http://www.w3.org/2000/svg" xmlns:xlink="http://www.w3.org/1999/xlink"><filter id="a" color-interpolation-filters="sRGB" filterUnits="userSpaceOnUse" height="6.3" width="3.25" x="8" y="3"><feFlood flood-opacity="0" result="BackgroundImageFix"/><feBlend in="SourceGraphic" in2="BackgroundImageFix" mode="normal" result="shape"/><feColorMatrix in="SourceAlpha" result="hardAlpha" type="matrix" values="0 0 0 0 0 0 0 0 0 0 0 0 0 0 0 0 0 0 127 0"/><feOffset dx=".25"/><feGaussianBlur stdDeviation=".25"/><feComposite in2="hardAlpha" k2="-1" k3="1" operator="arithmetic"/><feColorMatrix type="matrix" values="0 0 0 0 0.45098 0 0 0 0 0.227451 0 0 0 0 0.278431 0 0 0 1 0"/><feBlend in2="shape" mode="normal" result="effect1_innerShadow_18_6910"/></filter><filter id="b" color-interpolation-filters="sRGB" filterUnits="userSpaceOnUse" height="3.2" width="17.25" x="12.75" y="15.8"><feFlood flood-opacity="0" result="BackgroundImageFix"/><feBlend in="SourceGraphic" in2="BackgroundImageFix" mode="normal" result="shape"/><feColorMatrix in="SourceAlpha" result="hardAlpha" type="matrix" values="0 0 0 0 0 0 0 0 0 0 0 0 0 0 0 0 0 0 127 0"/><feOffset dx="-.25"/><feGaussianBlur stdDeviation=".125"/><feComposite in2="hardAlpha" k2="-1" k3="1" operator="arithmetic"/><feColorMatrix type="matrix" values="0 0 0 0 0.992157 0 0 0 0 0.356863 0 0 0 0 0.556863 0 0 0 1 0"/><feBlend in2="shape" mode="normal" result="effect1_innerShadow_18_6910"/><feColorMatrix in="SourceAlpha" result="hardAlpha" type="matrix" values="0 0 0 0 0 0 0 0 0 0 0 0 0 0 0 0 0 0 127 0"/><feOffset dy="-.2"/><feGaussianBlur stdDeviation=".2"/><feComposite in2="hardAlpha" k2="-1" k3="1" operator="arithmetic"/><feColorMatrix type="matrix" values="0 0 0 0 0.705882 0 0 0 0 0.211765 0 0 0 0 0.407843 0 0 0 1 0"/><feBlend in2="effect1_innerShadow_18_6910" mode="normal" result="effect2_innerShadow_18_6910"/></filter><filter id="c" color-interpolation-filters="sRGB" filterUnits="userSpaceOnUse" height="7.25" width="7.9" x="5.5" y="22"><feFlood flood-opacity="0" result="BackgroundImageFix"/><feBlend in="SourceGraphic" in2="BackgroundImageFix" mode="normal" result="shape"/><feColorMatrix in="SourceAlpha" result="hardAlpha" type="matrix" values="0 0 0 0 0 0 0 0 0 0 0 0 0 0 0 0 0 0 127 0"/><feOffset dx=".4"/><feGaussianBlur stdDeviation=".2"/><feComposite in2="hardAlpha" k2="-1" k3="1" operator="arithmetic"/><feColorMatrix type="matrix" values="0 0 0 0 0.309804 0 0 0 0 0.180392 0 0 0 0 0.364706 0 0 0 1 0"/><feBlend in2="shape" mode="normal" result="effect1_innerShadow_18_6910"/><feColorMatrix in="SourceAlpha" result="hardAlpha" type="matrix" values="0 0 0 0 0 0 0 0 0 0 0 0 0 0 0 0 0 0 127 0"/><feOffset dx="-.5" dy=".25"/><feGaussianBlur stdDeviation=".4"/><feComposite in2="hardAlpha" k2="-1" k3="1" operator="arithmetic"/><feColorMatrix type="matrix" values="0 0 0 0 0.14902 0 0 0 0 0.117647 0 0 0 0 0.176471 0 0 0 1 0"/><feBlend in2="effect1_innerShadow_18_6910" mode="normal" result="effect2_innerShadow_18_6910"/></filter><filter id="d" color-interpolation-filters="sRGB" filterUnits="userSpaceOnUse" height="6.25" width="3.5" x="17.76" y="21"><feFlood flood-opacity="0" result="BackgroundImageFix"/><feBlend in="SourceGraphic" in2="BackgroundImageFix" mode="normal" result="shape"/><feColorMatrix in="SourceAlpha" result="hardAlpha" type="matrix" values="0 0 0 0 0 0 0 0 0 0 0 0 0 0 0 0 0 0 127 0"/><feOffset dx=".25"/><feGaussianBlur stdDeviation=".25"/><feComposite in2="hardAlpha" k2="-1" k3="1" operator="arithmetic"/><feColorMatrix type="matrix" values="0 0 0 0 0.341176 0 0 0 0 0.964706 0 0 0 0 1 0 0 0 1 0"/><feBlend in2="shape" mode="normal" result="effect1_innerShadow_18_6910"/><feColorMatrix in="SourceAlpha" result="hardAlpha" type="matrix" values="0 0 0 0 0 0 0 0 0 0 0 0 0 0 0 0 0 0 127 0"/><feOffset dx="-.25" dy=".25"/><feGaussianBlur stdDeviation=".3"/><feComposite in2="hardAlpha" k2="-1" k3="1" operator="arithmetic"/><feColorMatrix type="matrix" values="0 0 0 0 0.165625 0 0 0 0 0.589906 0 0 0 0 0.883333 0 0 0 1 0"/><feBlend in2="effect1_innerShadow_18_6910" mode="normal" result="effect2_innerShadow_18_6910"/></filter><filter id="e" color-interpolation-filters="sRGB" filterUnits="userSpaceOnUse" height="6.25" width="3.5" x="22.76" y="21"><feFlood flood-opacity="0" result="BackgroundImageFix"/><feBlend in="SourceGraphic" in2="BackgroundImageFix" mode="normal" result="shape"/><feColorMatrix in="SourceAlpha" result="hardAlpha" type="matrix" values="0 0 0 0 0 0 0 0 0 0 0 0 0 0 0 0 0 0 127 0"/><feOffset dx=".25"/><feGaussianBlur stdDeviation=".25"/><feComposite in2="hardAlpha" k2="-1" k3="1" operator="arithmetic"/><feColorMatrix type="matrix" values="0 0 0 0 0.341176 0 0 0 0 0.964706 0 0 0 0 1 0 0 0 1 0"/><feBlend in2="shape" mode="normal" result="effect1_innerShadow_18_6910"/><feColorMatrix in="SourceAlpha" result="hardAlpha" type="matrix" values="0 0 0 0 0 0 0 0 0 0 0 0 0 0 0 0 0 0 127 0"/><feOffset dx="-.25" dy=".25"/><feGaussianBlur stdDeviation=".25"/><feComposite in2="hardAlpha" k2="-1" k3="1" operator="arithmetic"/><feColorMatrix type="matrix" values="0 0 0 0 0.209063 0 0 0 0 0.63476 0 0 0 0 0.929167 0 0 0 1 0"/><feBlend in2="effect1_innerShadow_18_6910" mode="normal" result="effect2_innerShadow_18_6910"/></filter><filter id="f" color-interpolation-filters="sRGB" filterUnits="userSpaceOnUse" height="6.25" width="3.5" x="22.76" y="21"><feFlood flood-opacity="0" result="BackgroundImageFix"/><feBlend in="SourceGraphic" in2="BackgroundImageFix" mode="normal" result="shape"/><feColorMatrix in="SourceAlpha" result="hardAlpha" type="matrix" values="0 0 0 0 0 0 0 0 0 0 0 0 0 0 0 0 0 0 127 0"/><feOffset dx=".25"/><feGaussianBlur stdDeviation=".25"/><feComposite in2="hardAlpha" k2="-1" k3="1" operator="arithmetic"/><feColorMatrix type="matrix" values="0 0 0 0 0.341176 0 0 0 0 0.964706 0 0 0 0 1 0 0 0 1 0"/><feBlend in2="shape" mode="normal" result="effect1_innerShadow_18_6910"/><feColorMatrix in="SourceAlpha" result="hardAlpha" type="matrix" values="0 0 0 0 0 0 0 0 0 0 0 0 0 0 0 0 0 0 127 0"/><feOffset dx="-.25" dy=".25"/><feGaussianBlur stdDeviation=".3"/><feComposite in2="hardAlpha" k2="-1" k3="1" operator="arithmetic"/><feColorMatrix type="matrix" values="0 0 0 0 0.165625 0 0 0 0 0.589906 0 0 0 0 0.883333 0 0 0 1 0"/><feBlend in2="effect1_innerShadow_18_6910" mode="normal" result="effect2_innerShadow_18_6910"/></filter><filter id="g" color-interpolation-filters="sRGB" filterUnits="userSpaceOnUse" height="6.1" width="7.75" x="19.01" y="7.9"><feFlood flood-opacity="0" result="BackgroundImageFix"/><feBlend in="SourceGraphic" in2="BackgroundImageFix" mode="normal" result="shape"/><feColorMatrix in="SourceAlpha" result="hardAlpha" type="matrix" values="0 0 0 0 0 0 0 0 0 0 0 0 0 0 0 0 0 0 127 0"/><feOffset dx=".8" dy="-.1"/><feGaussianBlur stdDeviation=".375"/><feComposite in2="hardAlpha" k2="-1" k3="1" operator="arithmetic"/><feColorMatrix type="matrix" values="0 0 0 0 0.74902 0 0 0 0 0.137255 0 0 0 0 0.254902 0 0 0 1 0"/><feBlend in2="shape" mode="normal" result="effect1_innerShadow_18_6910"/></filter><filter id="h" color-interpolation-filters="sRGB" filterUnits="userSpaceOnUse" height="1.1" width="3.162" x="8" y="3.9"><feFlood flood-opacity="0" result="BackgroundImageFix"/><feBlend in="SourceGraphic" in2="BackgroundImageFix" mode="normal" result="shape"/><feGaussianBlur result="effect1_foregroundBlur_18_6910" stdDeviation=".2"/></filter><filter id="i" color-interpolation-filters="sRGB" filterUnits="userSpaceOnUse" height="5.116" width="1.1" x="9.031" y="2.778"><feFlood flood-opacity="0" result="BackgroundImageFix"/><feBlend in="SourceGraphic" in2="BackgroundImageFix" mode="normal" result="shape"/><feGaussianBlur result="effect1_foregroundBlur_18_6910" stdDeviation=".2"/></filter><filter id="j" color-interpolation-filters="sRGB" filterUnits="userSpaceOnUse" height="6.7" width="15.4" x="1.85" y="6.75"><feFlood flood-opacity="0" result="BackgroundImageFix"/><feBlend in="SourceGraphic" in2="BackgroundImageFix" mode="normal" result="shape"/><feColorMatrix in="SourceAlpha" result="hardAlpha" type="matrix" values="0 0 0 0 0 0 0 0 0 0 0 0 0 0 0 0 0 0 127 0"/><feOffset dx=".25" dy="-.25"/><feGaussianBlur stdDeviation=".2"/><feComposite in2="hardAlpha" k2="-1" k3="1" operator="arithmetic"/><feColorMatrix type="matrix" values="0 0 0 0 0.662745 0 0 0 0 0.152941 0 0 0 0 0.207843 0 0 0 1 0"/><feBlend in2="shape" mode="normal" result="effect1_innerShadow_18_6910"/><feColorMatrix in="SourceAlpha" result="hardAlpha" type="matrix" values="0 0 0 0 0 0 0 0 0 0 0 0 0 0 0 0 0 0 127 0"/><feOffset dx="-.15" dy=".15"/><feGaussianBlur stdDeviation=".125"/><feComposite in2="hardAlpha" k2="-1" k3="1" operator="arithmetic"/><feColorMatrix type="matrix" values="0 0 0 0 1 0 0 0 0 0.298039 0 0 0 0 0.407843 0 0 0 1 0"/><feBlend in2="effect1_innerShadow_18_6910" mode="normal" result="effect2_innerShadow_18_6910"/></filter><linearGradient id="k" gradientUnits="userSpaceOnUse" x1="16.62" x2="30.62" y1="23.002" y2="23.002"><stop offset="0" stop-color="#ffb19b"/><stop offset="1" stop-color="#ffad9a"/></linearGradient><linearGradient id="l" gradientUnits="userSpaceOnUse" x1="22" x2="22" y1="18.871" y2="19.191"><stop offset="0" stop-color="#b55a62"/><stop offset="1" stop-color="#b55a62" stop-opacity="0"/></linearGradient><linearGradient id="m" gradientUnits="userSpaceOnUse" x1="28.856" x2="27.355" y1="24.09" y2="24.09"><stop offset="0" stop-color="#ffd3af"/><stop offset="1" stop-color="#ffd3af" stop-opacity="0"/></linearGradient><linearGradient id="n" gradientUnits="userSpaceOnUse" x1="29" x2="28.586" y1="23.775" y2="23.775"><stop offset=".415" stop-color="#fdcdad"/><stop offset="1" stop-color="#fdcdad" stop-opacity="0"/></linearGradient><linearGradient id="o" gradientUnits="userSpaceOnUse" x1="15" x2="15.951" y1="24.722" y2="24.722"><stop offset="0" stop-color="#e37e6a"/><stop offset="1" stop-color="#e37e6a" stop-opacity="0"/></linearGradient><linearGradient id="p" gradientUnits="userSpaceOnUse" x1="21.5" x2="21.5" y1="16.19" y2="19"><stop offset="0" stop-color="#ea376f"/><stop offset="1" stop-color="#e0296a"/></linearGradient><linearGradient id="q" gradientUnits="userSpaceOnUse" x1="15" x2="13.608" y1="21.099" y2="21.099"><stop offset="0" stop-color="#ffcba9"/><stop offset="1" stop-color="#ffcba9" stop-opacity="0"/></linearGradient><linearGradient id="r" gradientUnits="userSpaceOnUse" x1="12.655" x2="12.164" y1="10.763" y2="11.462"><stop offset="0" stop-color="#c1424f"/><stop offset="1" stop-color="#c1424f" stop-opacity="0"/></linearGradient><linearGradient id="s" gradientUnits="userSpaceOnUse" x1="4" x2="5.11" y1="21.324" y2="21.324"><stop offset="0" stop-color="#b47a6d"/><stop offset="1" stop-color="#b47a6d" stop-opacity="0"/></linearGradient><radialGradient id="t" cx="0" cy="0" gradientTransform="matrix(-1.25487 0 0 -2.04182 15.479 12.5515)" gradientUnits="userSpaceOnUse" r="1"><stop offset="0" stop-color="#c03e47"/><stop offset="1" stop-color="#c03e47" stop-opacity="0"/></radialGradient><linearGradient id="u" gradientUnits="userSpaceOnUse" x1="6" x2="13" y1="26.419" y2="26.476"><stop offset="0" stop-color="#492454"/><stop offset="1" stop-color="#46204c"/></linearGradient><linearGradient id="v"><stop offset="0" stop-color="#51dcff"/><stop offset="1" stop-color="#4db9fc"/></linearGradient><linearGradient id="w" gradientUnits="userSpaceOnUse" x1="18.168" x2="22.332" xlink:href="#v" y1="27" y2="22.549"/><linearGradient id="x" gradientUnits="userSpaceOnUse" x1="23.168" x2="27.332" xlink:href="#v" y1="27" y2="22.549"/><linearGradient id="y" gradientUnits="userSpaceOnUse" x1="7.09" x2="11.913" y1="16.153" y2="14.861"><stop offset="0" stop-color="#08a8ea"/><stop offset=".212" stop-color="#1ebfee"/><stop offset=".519" stop-color="#37daf4"/><stop offset=".792" stop-color="#47eaf7"/><stop offset="1" stop-color="#4cf0f8"/></linearGradient><linearGradient id="z" gradientUnits="userSpaceOnUse" x1="9.505" x2="9.505" y1="30" y2="28.454"><stop offset="0" stop-color="#9d92aa"/><stop offset="1" stop-color="#7e7987"/></linearGradient><linearGradient id="A" gradientUnits="userSpaceOnUse" x1="5" x2="5.839" y1="29.89" y2="29.89"><stop offset="0" stop-color="#796f81"/><stop offset="1" stop-color="#796f81" stop-opacity="0"/></linearGradient><linearGradient id="B" gradientUnits="userSpaceOnUse" x1="14" x2="13.251" y1="30" y2="30"><stop offset="0" stop-color="#b6aebc"/><stop offset="1" stop-color="#b6aebc" stop-opacity="0"/></linearGradient><linearGradient id="C" gradientUnits="userSpaceOnUse" x1="22.51" x2="22.51" y1="8" y2="13.664"><stop offset="0" stop-color="#e93178"/><stop offset="1" stop-color="#e41d4a"/></linearGradient><radialGradient id="D" cx="0" cy="0" gradientTransform="matrix(.76562511 -1.38749979 .82175777 .45344755 23.021 8.33748)" gradientUnits="userSpaceOnUse" r="1"><stop offset="0" stop-color="#bc2e4f"/><stop offset="1" stop-color="#bc2e4f" stop-opacity="0"/></radialGradient><linearGradient id="E"><stop offset="0" stop-color="#ff4d84"/><stop offset="1" stop-color="#ff4d84" stop-opacity="0"/></linearGradient><radialGradient id="F" cx="0" cy="0" gradientTransform="matrix(-1.96820213 1.76249744 -2.38507296 -2.6634397 26.01 8.97498)" gradientUnits="userSpaceOnUse" r="1" xlink:href="#E"/><radialGradient id="G" cx="0" cy="0" gradientTransform="matrix(-.91146314 .71249741 -.96773764 -1.23797951 21.3986 9.38748)" gradientUnits="userSpaceOnUse" r="1" xlink:href="#E"/><linearGradient id="H" gradientUnits="userSpaceOnUse" x1="2" x2="17" y1="10.502" y2="10.502"><stop offset="0" stop-color="#f23449"/><stop offset="1" stop-color="#eb335c"/></linearGradient><g filter="url(#a)"><path d="m10.5 4h-.4c-.0552 0-.1-.04477-.1-.1v-.4c0-.28-.22-.5-.5-.5s-.5.22-.5.5v.4c0 .05523-.04477.1-.1.1h-.4c-.28 0-.5.22-.5.5s.22.5.5.5h.4c.05523 0 .1.04477.1.1v3.7c0 .28.22.5.5.5s.5-.22.5-.5v-3.7c0-.05523.0448-.1.1-.1h.4c.28 0 .5-.22.5-.5 0-.27-.22-.5-.5-.5z" fill="#8f6058"/></g><path d="m29 30h-14v-14h13.03c.54 0 .97.43.97.97z" fill="url(#k)"/><path d="m29 30h-14v-14h13.03c.54 0 .97.43.97.97z" fill="url(#l)"/><path d="m29 30h-14v-14h13.03c.54 0 .97.43.97.97z" fill="url(#m)"/><path d="m29 30h-14v-14h13.03c.54 0 .97.43.97.97z" fill="url(#n)"/><path d="m29 30h-14v-14h13.03c.54 0 .97.43.97.97z" fill="url(#o)"/><g filter="url(#b)"><path d="m13.0514 18.093.5478-1.3455c.1825-.4485.6187-.7375 1.1157-.7375l13.5813-.01c.4869 0 .9332.289 1.1157.7375l.5376 1.3157c.1826.4485-.1521.9468-.6491.9468h-15.6099c-.4971 0-.8216-.4684-.6391-.907z" fill="url(#p)"/></g><path d="m15 30h-11v-18.5l5.51001-3.5 5.48999 3.5z" fill="#ffb09b"/><path d="m15 30h-11v-18.5l5.51001-3.5 5.48999 3.5z" fill="url(#q)"/><path d="m15 30h-11v-18.5l5.51001-3.5 5.48999 3.5z" fill="url(#r)"/><path d="m15 30h-11v-18.5l5.51001-3.5 5.48999 3.5z" fill="url(#s)"/><path d="m15 30h-11v-18.5l5.51001-3.5 5.48999 3.5z" fill="url(#t)"/><g filter="url(#c)"><path d="m13 29h-7v-3.5c0-1.93 1.57-3.5 3.5-3.5s3.5 1.57 3.5 3.5z" fill="url(#u)"/></g><g filter="url(#d)"><path d="m21.01 27h-3v-4.5c0-.83.67-1.5 1.5-1.5s1.5.67 1.5 1.5z" fill="url(#w)"/></g><g filter="url(#e)"><path d="m26.01 27h-3v-4.5c0-.83.67-1.5 1.5-1.5s1.5.67 1.5 1.5z" fill="url(#x)"/></g><g filter="url(#f)"><path d="m26.01 27h-3v-4.5c0-.83.67-1.5 1.5-1.5s1.5.67 1.5 1.5z" fill="url(#x)"/></g><path d="m9.5 18c-1.37897 0-2.5-1.121-2.5-2.5s1.12103-2.5 2.5-2.5c1.379 0 2.5 1.121 2.5 2.5 0 1.3889-1.121 2.5-2.5 2.5z" fill="url(#y)"/><path d="m14 30h-9c0-.55.45-1 1-1h7c.56 0 1 .45 1 1z" fill="url(#z)"/><path d="m14 30h-9c0-.55.45-1 1-1h7c.56 0 1 .45 1 1z" fill="url(#A)"/><path d="m14 30h-9c0-.55.45-1 1-1h7c.56 0 1 .45 1 1z" fill="url(#B)"/><g filter="url(#g)"><path d="m26.01 9.79v.04c0 .56-.17 1.09-.46 1.52-.72 1-1.63 1.87-2.67 2.55-.11.07-.24.1-.37.1s-.26-.03-.37-.1c-1.04-.68-1.95-1.55-2.67-2.55-.29-.43-.46-.96-.46-1.52v-.04c.01-1 .81-1.79 1.8-1.79.14 0 .29.02.42.06.5.1.92.42 1.16.85.03.05.07.07.12.07s.09-.02.12-.07c.24-.43.66-.75 1.16-.85.13-.04.28-.06.42-.06.99 0 1.79.79 1.8 1.79z" fill="url(#C)"/><path d="m26.01 9.79v.04c0 .56-.17 1.09-.46 1.52-.72 1-1.63 1.87-2.67 2.55-.11.07-.24.1-.37.1s-.26-.03-.37-.1c-1.04-.68-1.95-1.55-2.67-2.55-.29-.43-.46-.96-.46-1.52v-.04c.01-1 .81-1.79 1.8-1.79.14 0 .29.02.42.06.5.1.92.42 1.16.85.03.05.07.07.12.07s.09-.02.12-.07c.24-.43.66-.75 1.16-.85.13-.04.28-.06.42-.06.99 0 1.79.79 1.8 1.79z" fill="url(#D)"/><path d="m26.01 9.79v.04c0 .56-.17 1.09-.46 1.52-.72 1-1.63 1.87-2.67 2.55-.11.07-.24.1-.37.1s-.26-.03-.37-.1c-1.04-.68-1.95-1.55-2.67-2.55-.29-.43-.46-.96-.46-1.52v-.04c.01-1 .81-1.79 1.8-1.79.14 0 .29.02.42.06.5.1.92.42 1.16.85.03.05.07.07.12.07s.09-.02.12-.07c.24-.43.66-.75 1.16-.85.13-.04.28-.06.42-.06.99 0 1.79.79 1.8 1.79z" fill="url(#F)"/><path d="m26.01 9.79v.04c0 .56-.17 1.09-.46 1.52-.72 1-1.63 1.87-2.67 2.55-.11.07-.24.1-.37.1s-.26-.03-.37-.1c-1.04-.68-1.95-1.55-2.67-2.55-.29-.43-.46-.96-.46-1.52v-.04c.01-1 .81-1.79 1.8-1.79.14 0 .29.02.42.06.5.1.92.42 1.16.85.03.05.07.07.12.07s.09-.02.12-.07c.24-.43.66-.75 1.16-.85.13-.04.28-.06.42-.06.99 0 1.79.79 1.8 1.79z" fill="url(#G)"/></g><g filter="url(#h)"><path d="m8.55005 4.44977h2.06215" stroke="#a0776e" stroke-linecap="round" stroke-width=".3"/></g><g filter="url(#i)"><path d="m9.58105 3.32812v4.01563" stroke="#a0776e" stroke-linecap="round" stroke-width=".3"/></g><g filter="url(#j)"><path d="m3.38815 13.1328 5.51265-3.93537c.35952-.2597.84887-.2597 1.2084 0l5.5126 3.93537c.5793.4096 1.3782 0 1.3782-.7091 0-.2797-.1398-.5494-.3695-.7092l-6.1818-4.41485c-.56921-.39953-1.32819-.39953-1.89744 0l-6.18175 4.41485c-.22969.1598-.36951.4295-.36951.7092.00999.7091.81891 1.1286 1.38815.7091z" fill="url(#H)"/></g></svg>