<svg fill="none" height="32" viewBox="0 0 32 32" width="32" xmlns="http://www.w3.org/2000/svg" xmlns:xlink="http://www.w3.org/1999/xlink"><filter id="a" color-interpolation-filters="sRGB" filterUnits="userSpaceOnUse" height="16.759" width="9.902" x="13.166" y="6.541"><feFlood flood-opacity="0" result="BackgroundImageFix"/><feBlend in="SourceGraphic" in2="BackgroundImageFix" mode="normal" result="shape"/><feGaussianBlur result="effect1_foregroundBlur_7319_6105" stdDeviation="1.5"/></filter><filter id="b" color-interpolation-filters="sRGB" filterUnits="userSpaceOnUse" height="3.5" width="6.037" x="6.245" y="4.539"><feFlood flood-opacity="0" result="BackgroundImageFix"/><feBlend in="SourceGraphic" in2="BackgroundImageFix" mode="normal" result="shape"/><feGaussianBlur result="effect1_foregroundBlur_7319_6105" stdDeviation=".75"/></filter><filter id="c" color-interpolation-filters="sRGB" filterUnits="userSpaceOnUse" height="21.857" width="13.229" x="4.748" y="3.52"><feFlood flood-opacity="0" result="BackgroundImageFix"/><feBlend in="SourceGraphic" in2="BackgroundImageFix" mode="normal" result="shape"/><feGaussianBlur result="effect1_foregroundBlur_7319_6105" stdDeviation="1.5"/></filter><filter id="d" color-interpolation-filters="sRGB" filterUnits="userSpaceOnUse" height="17.481" width="16.653" x="14.89" y="3.707"><feFlood flood-opacity="0" result="BackgroundImageFix"/><feBlend in="SourceGraphic" in2="BackgroundImageFix" mode="normal" result="shape"/><feGaussianBlur result="effect1_foregroundBlur_7319_6105" stdDeviation="1.5"/></filter><filter id="e" color-interpolation-filters="sRGB" filterUnits="userSpaceOnUse" height="17" width="15.563" x="14.772" y="11.627"><feFlood flood-opacity="0" result="BackgroundImageFix"/><feBlend in="SourceGraphic" in2="BackgroundImageFix" mode="normal" result="shape"/><feGaussianBlur result="effect1_foregroundBlur_7319_6105" stdDeviation="1.5"/></filter><filter id="f" color-interpolation-filters="sRGB" filterUnits="userSpaceOnUse" height="19.125" width="17.25" x="1.022" y="9.752"><feFlood flood-opacity="0" result="BackgroundImageFix"/><feBlend in="SourceGraphic" in2="BackgroundImageFix" mode="normal" result="shape"/><feGaussianBlur result="effect1_foregroundBlur_7319_6105" stdDeviation="1.5"/></filter><radialGradient id="g" cx="0" cy="0" gradientTransform="matrix(0 23.5 -58.948 0 14.887 9.75201)" gradientUnits="userSpaceOnUse" r="1"><stop offset=".114" stop-color="#ffd765"/><stop offset="1" stop-color="#ff8040"/></radialGradient><radialGradient id="h" cx="0" cy="0" gradientTransform="matrix(-4.50001489 9.06244102 -8.43134288 -4.18663894 24.71 8.81451)" gradientUnits="userSpaceOnUse" r="1"><stop offset="0" stop-color="#ffd765"/><stop offset="1" stop-color="#ffd765" stop-opacity="0"/></radialGradient><linearGradient id="i" gradientUnits="userSpaceOnUse" x1="13.62" x2="4.62" y1="16.346" y2="26.033"><stop offset=".402" stop-color="#ed7839" stop-opacity="0"/><stop offset="1" stop-color="#ed7839"/></linearGradient><radialGradient id="j" cx="0" cy="0" gradientTransform="matrix(-14.50957823 17.5765107 -32.92261366 -27.17793346 22.8447 11.3631)" gradientUnits="userSpaceOnUse" r="1"><stop offset=".798" stop-color="#ff69cf" stop-opacity="0"/><stop offset=".908" stop-color="#ff69cf"/></radialGradient><radialGradient id="k" cx="0" cy="0" gradientTransform="matrix(-20.12495752 -9.75002659 11.86301777 -24.48636692 17.335 17.627)" gradientUnits="userSpaceOnUse" r="1"><stop offset=".586" stop-color="#9b7c23" stop-opacity="0"/><stop offset="1" stop-color="#9b7c23"/></radialGradient><radialGradient id="l" cx="0" cy="0" gradientTransform="matrix(-16.06251342 -8.49999747 7.51799984 -14.20682462 17.335 17.627)" gradientUnits="userSpaceOnUse" r="1"><stop offset=".915" stop-color="#9b7c23" stop-opacity="0"/><stop offset="1" stop-color="#9b7c23"/></radialGradient><radialGradient id="m" cx="0" cy="0" gradientTransform="matrix(0 19.7992 -26.4278 0 15.38 13.8155)" gradientUnits="userSpaceOnUse" r="1"><stop offset=".671" stop-color="#ff69cf" stop-opacity="0"/><stop offset=".934" stop-color="#ff69cf"/></radialGradient><radialGradient id="n" cx="0" cy="0" gradientTransform="matrix(16.87497158 16.43749191 -45.77957501 46.99798675 10.2725 9.37702)" gradientUnits="userSpaceOnUse" r="1"><stop offset=".777" stop-color="#ff69cf" stop-opacity="0"/><stop offset="1" stop-color="#ff69cf"/></radialGradient><linearGradient id="o" gradientUnits="userSpaceOnUse" x1="16.523" x2="14.887" y1="13.002" y2="29.939"><stop offset=".512" stop-color="#ff7af2" stop-opacity="0"/><stop offset=".934" stop-color="#ff7af2"/></linearGradient><radialGradient id="p" cx="0" cy="0" gradientTransform="matrix(7.31249038 -12.50000063 11.72333609 6.85814224 21.8078 15.5557)" gradientUnits="userSpaceOnUse" r="1"><stop offset=".672" stop-color="#f9861d" stop-opacity="0"/><stop offset="1" stop-color="#fea16f"/></radialGradient><radialGradient id="q" cx="0" cy="0" gradientTransform="matrix(-6.81253594 -7.99310702 8.12583838 -6.92566306 23.8703 12.9932)" gradientUnits="userSpaceOnUse" r="1"><stop offset=".657" stop-color="#c5a34c" stop-opacity="0"/><stop offset=".906" stop-color="#c5a34c"/></radialGradient><radialGradient id="r" cx="0" cy="0" gradientTransform="matrix(0 17.6875 -5.77863 0 18.4359 10.1894)" gradientUnits="userSpaceOnUse" r="1"><stop offset=".718" stop-color="#ffbf2b"/><stop offset="1" stop-color="#ffbf2b" stop-opacity="0"/></radialGradient><linearGradient id="s"><stop offset="0" stop-color="#ffe647"/><stop offset="1" stop-color="#ffe647" stop-opacity="0"/></linearGradient><radialGradient id="t" cx="0" cy="0" gradientTransform="matrix(-4.04369652 -.29687955 .12231167 -1.6659661 12.8229 6.14891)" gradientUnits="userSpaceOnUse" r="1" xlink:href="#s"/><radialGradient id="u" cx="0" cy="0" gradientTransform="matrix(-9.62509246 -9.43744135 26.61742262 -27.14667505 19.835 10.0019)" gradientUnits="userSpaceOnUse" r="1" xlink:href="#s"/><radialGradient id="v" cx="0" cy="0" gradientTransform="matrix(-4.73796633 6.33775085 -10.19904225 -7.62458479 25.8341 6.70703)" gradientUnits="userSpaceOnUse" r="1" xlink:href="#s"/><path d="m15.0369 29.2015c.535.2985 1.1786.282 1.7105-.022 3.583-2.0477 9.8094-6.7616 12.2546-12.8847 3.5891-7.9724-4.8381-14.33646-10.6624-9.7592-.6076.47747-1.3715 1.02394-1.8972 1.54159-.2377.23405-.6565.25792-.9033.03342-.6911-.62884-1.7713-1.4355-2.465-1.90484-4.96537-3.35938-13.999985 1.06886-10.14614 10.51973 1.41176 4.2422 8.13924 10.2607 12.10894 12.476z" fill="url(#g)"/><path d="m15.0369 29.2015c.535.2985 1.1786.282 1.7105-.022 3.583-2.0477 9.8094-6.7616 12.2546-12.8847 3.5891-7.9724-4.8381-14.33646-10.6624-9.7592-.6076.47747-1.3715 1.02394-1.8972 1.54159-.2377.23405-.6565.25792-.9033.03342-.6911-.62884-1.7713-1.4355-2.465-1.90484-4.96537-3.35938-13.999985 1.06886-10.14614 10.51973 1.41176 4.2422 8.13924 10.2607 12.10894 12.476z" fill="url(#h)"/><path d="m15.0369 29.2015c.535.2985 1.1786.282 1.7105-.022 3.583-2.0477 9.8094-6.7616 12.2546-12.8847 3.5891-7.9724-4.8381-14.33646-10.6624-9.7592-.6076.47747-1.3715 1.02394-1.8972 1.54159-.2377.23405-.6565.25792-.9033.03342-.6911-.62884-1.7713-1.4355-2.465-1.90484-4.96537-3.35938-13.999985 1.06886-10.14614 10.51973 1.41176 4.2422 8.13924 10.2607 12.10894 12.476z" fill="url(#i)"/><path d="m15.0369 29.2015c.535.2985 1.1786.282 1.7105-.022 3.583-2.0477 9.8094-6.7616 12.2546-12.8847 3.5891-7.9724-4.8381-14.33646-10.6624-9.7592-.6076.47747-1.3715 1.02394-1.8972 1.54159-.2377.23405-.6565.25792-.9033.03342-.6911-.62884-1.7713-1.4355-2.465-1.90484-4.96537-3.35938-13.999985 1.06886-10.14614 10.51973 1.41176 4.2422 8.13924 10.2607 12.10894 12.476z" fill="url(#j)"/><path d="m15.0369 29.2015c.535.2985 1.1786.282 1.7105-.022 3.583-2.0477 9.8094-6.7616 12.2546-12.8847 3.5891-7.9724-4.8381-14.33646-10.6624-9.7592-.6076.47747-1.3715 1.02394-1.8972 1.54159-.2377.23405-.6565.25792-.9033.03342-.6911-.62884-1.7713-1.4355-2.465-1.90484-4.96537-3.35938-13.999985 1.06886-10.14614 10.51973 1.41176 4.2422 8.13924 10.2607 12.10894 12.476z" fill="url(#k)"/><path d="m15.0369 29.2015c.535.2985 1.1786.282 1.7105-.022 3.583-2.0477 9.8094-6.7616 12.2546-12.8847 3.5891-7.9724-4.8381-14.33646-10.6624-9.7592-.6076.47747-1.3715 1.02394-1.8972 1.54159-.2377.23405-.6565.25792-.9033.03342-.6911-.62884-1.7713-1.4355-2.465-1.90484-4.96537-3.35938-13.999985 1.06886-10.14614 10.51973 1.41176 4.2422 8.13924 10.2607 12.10894 12.476z" fill="url(#l)"/><path d="m15.0369 29.2015c.535.2985 1.1786.282 1.7105-.022 3.583-2.0477 9.8094-6.7616 12.2546-12.8847 3.5891-7.9724-4.8381-14.33646-10.6624-9.7592-.6076.47747-1.3715 1.02394-1.8972 1.54159-.2377.23405-.6565.25792-.9033.03342-.6911-.62884-1.7713-1.4355-2.465-1.90484-4.96537-3.35938-13.999985 1.06886-10.14614 10.51973 1.41176 4.2422 8.13924 10.2607 12.10894 12.476z" fill="url(#m)"/><path d="m15.0369 29.2015c.535.2985 1.1786.282 1.7105-.022 3.583-2.0477 9.8094-6.7616 12.2546-12.8847 3.5891-7.9724-4.8381-14.33646-10.6624-9.7592-.6076.47747-1.3715 1.02394-1.8972 1.54159-.2377.23405-.6565.25792-.9033.03342-.6911-.62884-1.7713-1.4355-2.465-1.90484-4.96537-3.35938-13.999985 1.06886-10.14614 10.51973 1.41176 4.2422 8.13924 10.2607 12.10894 12.476z" fill="url(#n)"/><path d="m15.0369 29.2015c.535.2985 1.1786.282 1.7105-.022 3.583-2.0477 9.8094-6.7616 12.2546-12.8847 3.5891-7.9724-4.8381-14.33646-10.6624-9.7592-.6076.47747-1.3715 1.02394-1.8972 1.54159-.2377.23405-.6565.25792-.9033.03342-.6911-.62884-1.7713-1.4355-2.465-1.90484-4.96537-3.35938-13.999985 1.06886-10.14614 10.51973 1.41176 4.2422 8.13924 10.2607 12.10894 12.476z" fill="url(#o)" fill-opacity=".25"/><path d="m15.5349 8.10679.0042.00382c.2467.2245.6656.20063.9033-.03342.3952-.38918.9251-.79465 1.422-1.17484.164-.1255.3244-.24825.4752-.36675 5.8243-4.57726 14.2515 1.7868 10.6624 9.7592-.4876 1.2211-1.1257 2.3862-1.8632 3.4853z" fill="url(#p)"/><path d="m15.5349 8.10679.0042.00382c.2467.2245.6656.20063.9033-.03342.3952-.38918.9251-.79465 1.422-1.17484.164-.1255.3244-.24825.4752-.36675 5.8243-4.57726 14.2515 1.7868 10.6624 9.7592-.4876 1.2211-1.1257 2.3862-1.8632 3.4853z" fill="url(#q)"/><g filter="url(#a)"><path d="m16.1657 10.4781v8.8184c0 1.0382 1.3997 1.3959 1.8662.4685 1.4527-2.8879 2.6633-6.0737 1.6781-8.3256-.8256-1.88697-2.0551-2.0935-3.0165-1.77729-.3404.11197-.5278.45769-.5278.81599z" fill="url(#r)"/></g><g filter="url(#b)"><ellipse cx="9.263" cy="6.289" fill="url(#t)" rx="1.519" ry=".249" transform="matrix(.99992597 -.01216815 .01216815 .99992597 -.075837 .113185)"/></g><g filter="url(#c)"><path d="m14.665 9.31438.3125 13.06252c-6.875-6.6875-8.71449-14.50877-6.08003-15.56252 2.63453-1.05376 5.01753.9375 5.76753 2.5z" fill="url(#u)"/></g><g filter="url(#d)"><ellipse cx="23.216" cy="12.447" fill="url(#v)" rx="5.327" ry="5.74"/></g><g filter="url(#e)"><path d="m26.835 15.127c-1.0625 2.5625-5.4375 7.9375-8.5625 10" stroke="#ffc037" stroke-linecap="round"/></g><g filter="url(#f)"><path d="m4.52249 13.252c1.1875 5.5 7.12501 10.0625 10.25001 12.125" stroke="#faa730" stroke-linecap="round"/></g></svg>