<svg fill="none" height="32" viewBox="0 0 33 32" width="33" xmlns="http://www.w3.org/2000/svg" xmlns:xlink="http://www.w3.org/1999/xlink"><filter id="a" color-interpolation-filters="sRGB" filterUnits="userSpaceOnUse" height="15.416" width="15.144" x="16.881" y="4.964"><feFlood flood-opacity="0" result="BackgroundImageFix"/><feBlend in="SourceGraphic" in2="BackgroundImageFix" mode="normal" result="shape"/><feGaussianBlur result="effect1_foregroundBlur_7133_6142" stdDeviation="1.5"/></filter><filter id="b" color-interpolation-filters="sRGB" filterUnits="userSpaceOnUse" height="14.633" width="12.906" x="5.657" y="3.965"><feFlood flood-opacity="0" result="BackgroundImageFix"/><feBlend in="SourceGraphic" in2="BackgroundImageFix" mode="normal" result="shape"/><feGaussianBlur result="effect1_foregroundBlur_7133_6142" stdDeviation="1.5"/></filter><filter id="c" color-interpolation-filters="sRGB" filterUnits="userSpaceOnUse" height="6.388" width="3.7" x="13.184" y="16.693"><feFlood flood-opacity="0" result="BackgroundImageFix"/><feBlend in="SourceGraphic" in2="BackgroundImageFix" mode="normal" result="shape"/><feGaussianBlur result="effect1_foregroundBlur_7133_6142" stdDeviation=".175"/></filter><filter id="d" color-interpolation-filters="sRGB" filterUnits="userSpaceOnUse" height="7.944" width="3.547" x="13.39" y="8.992"><feFlood flood-opacity="0" result="BackgroundImageFix"/><feBlend in="SourceGraphic" in2="BackgroundImageFix" mode="normal" result="shape"/><feGaussianBlur result="effect1_foregroundBlur_7133_6142" stdDeviation=".175"/></filter><linearGradient id="e" gradientUnits="userSpaceOnUse" x1="9.765" x2="9.765" y1="29.266" y2="5.164"><stop offset=".026" stop-color="#ec008c"/><stop offset=".198" stop-color="#ff1f50"/><stop offset=".536" stop-color="#ff2868"/><stop offset="1" stop-color="#ec008c"/></linearGradient><linearGradient id="f" gradientUnits="userSpaceOnUse" x1="17.784" x2="14.329" y1="14.744" y2="14.744"><stop offset="0" stop-color="#c6162a"/><stop offset="1" stop-color="#c6162a" stop-opacity="0"/></linearGradient><radialGradient id="g" cx="0" cy="0" gradientTransform="matrix(-17.96293024 -15.81250994 9.35474833 -10.62694615 16.8721 17.9486)" gradientUnits="userSpaceOnUse" r="1"><stop offset=".671" stop-color="#ff7af2" stop-opacity="0"/><stop offset=".785" stop-color="#ff96d7"/></radialGradient><radialGradient id="h" cx="0" cy="0" gradientTransform="matrix(-25.1731539 .85883152 -1.07526301 -31.51696298 20.4091 19.9486)" gradientUnits="userSpaceOnUse" r="1"><stop offset=".536" stop-color="#ab1f51" stop-opacity="0"/><stop offset=".814" stop-color="#ab1f51"/></radialGradient><linearGradient id="i" gradientUnits="userSpaceOnUse" x1="23.302" x2="23.302" y1="29.26" y2="5.156"><stop offset="0" stop-color="#ff2657"/><stop offset=".444" stop-color="#ff2f67"/><stop offset="1" stop-color="#ec008c"/></linearGradient><linearGradient id="j" gradientUnits="userSpaceOnUse" x1="16.284" x2="19.097" y1="14.728" y2="14.728"><stop offset="0" stop-color="#c01567"/><stop offset="1" stop-color="#c01567" stop-opacity="0"/></linearGradient><radialGradient id="k" cx="0" cy="0" gradientTransform="matrix(39.74995964 -6.49999517 3.74656792 22.91169755 2.97165 16.136)" gradientUnits="userSpaceOnUse" r="1"><stop offset=".67" stop-color="#ff7af2" stop-opacity="0"/><stop offset=".735" stop-color="#ff96d7"/></radialGradient><radialGradient id="l" cx="0" cy="0" gradientTransform="matrix(-16.3751749 -20.43736631 54.09880523 -43.34596661 25.6592 24.9485)" gradientUnits="userSpaceOnUse" r="1"><stop offset=".607" stop-color="#ab1f51" stop-opacity="0"/><stop offset=".814" stop-color="#ab1f51"/></radialGradient><radialGradient id="m" cx="0" cy="0" gradientTransform="matrix(-1.56674171 8.94705776 -29.08168078 -5.09256602 25.4876 8.16703)" gradientUnits="userSpaceOnUse" r="1"><stop offset="0" stop-color="#ef6e9d"/><stop offset="1" stop-color="#ef6e9d" stop-opacity="0"/></radialGradient><radialGradient id="n" cx="0" cy="0" gradientTransform="matrix(-1.0428506 8.67566734 -23.189369 -2.78745674 12.4426 9.24844)" gradientUnits="userSpaceOnUse" r="1"><stop offset=".229" stop-color="#ec5a8f"/><stop offset="1" stop-color="#ec5a8f" stop-opacity="0"/></radialGradient><linearGradient id="o" gradientUnits="userSpaceOnUse" x1="14.597" x2="12.803" y1="19.262" y2="16.218"><stop offset="0" stop-color="#ff757b"/><stop offset="1" stop-color="#ff757b" stop-opacity="0"/></linearGradient><linearGradient id="p" gradientUnits="userSpaceOnUse" x1="15.675" x2="13.659" y1="14.573" y2="9.039"><stop offset="0" stop-color="#ff989d"/><stop offset="1" stop-color="#ff989d" stop-opacity="0"/></linearGradient><path d="m15.2685 25.7337c0-.2236.0821-.4218.1875-.5546l1.211-1.8555c.2449-.3151.2564-.6466.0625-.9922l-2.4844-4.9141c-.2143-.3862-.0672-.5927.0859-.7656.4503-.5082 1.3438-1.6953 1.6904-2.1387l.6328-.8029c.2245-.2744.2755-.6505.1531-.9859-.4969-1.3291-1.0788-2.91876-1.6248-4.40823-.1847-.50404-.3498-1.0785-.7343-1.4377-.7404-.69164-2.0765-1.41598-3.0991-1.59464-7.08057-1.50692-9.77215 4.69655-8.81495 9.65717 1.39062 6.0859 7.96875 12.1484 11.96095 14.1601.4493.2264.75.0592.75-.3086z" fill="url(#e)"/><path d="m15.2685 25.7337c0-.2236.0821-.4218.1875-.5546l1.211-1.8555c.2449-.3151.2564-.6466.0625-.9922l-2.4844-4.9141c-.2143-.3862-.0672-.5927.0859-.7656.4503-.5082 1.3438-1.6953 1.6904-2.1387l.6328-.8029c.2245-.2744.2755-.6505.1531-.9859-.4969-1.3291-1.0788-2.91876-1.6248-4.40823-.1847-.50404-.3498-1.0785-.7343-1.4377-.7404-.69164-2.0765-1.41598-3.0991-1.59464-7.08057-1.50692-9.77215 4.69655-8.81495 9.65717 1.39062 6.0859 7.96875 12.1484 11.96095 14.1601.4493.2264.75.0592.75-.3086z" fill="url(#f)"/><path d="m15.2685 25.7337c0-.2236.0821-.4218.1875-.5546l1.211-1.8555c.2449-.3151.2564-.6466.0625-.9922l-2.4844-4.9141c-.2143-.3862-.0672-.5927.0859-.7656.4503-.5082 1.3438-1.6953 1.6904-2.1387l.6328-.8029c.2245-.2744.2755-.6505.1531-.9859-.4969-1.3291-1.0788-2.91876-1.6248-4.40823-.1847-.50404-.3498-1.0785-.7343-1.4377-.7404-.69164-2.0765-1.41598-3.0991-1.59464-7.08057-1.50692-9.77215 4.69655-8.81495 9.65717 1.39062 6.0859 7.96875 12.1484 11.96095 14.1601.4493.2264.75.0592.75-.3086z" fill="url(#g)"/><path d="m15.2685 25.7337c0-.2236.0821-.4218.1875-.5546l1.211-1.8555c.2449-.3151.2564-.6466.0625-.9922l-2.4844-4.9141c-.2143-.3862-.0672-.5927.0859-.7656.4503-.5082 1.3438-1.6953 1.6904-2.1387l.6328-.8029c.2245-.2744.2755-.6505.1531-.9859-.4969-1.3291-1.0788-2.91876-1.6248-4.40823-.1847-.50404-.3498-1.0785-.7343-1.4377-.7404-.69164-2.0765-1.41598-3.0991-1.59464-7.08057-1.50692-9.77215 4.69655-8.81495 9.65717 1.39062 6.0859 7.96875 12.1484 11.96095 14.1601.4493.2264.75.0592.75-.3086z" fill="url(#h)"/><path d="m21.8154 5.08912c-1.641.28384-3.4889 1.3948-4.428 2.37809 0 0-.1239.10137-.1239.25343 0 .06082.0206.14192.031.15205l1.9428 5.34141c.0937.1875.1151.4734-.0703.7031-.7246.8973-1.5235 1.9688-2.2266 2.8711-.3096.3143-.3417.6812-.125 1.0664l2.4218 4.6758c.1961.3548.1172.5938-.0429.8282l-1.5547 2.371c-.1342.1724-.2656.5157-.2656.7305l-.0274 2.5235c0 .3164.4828.3479.875.0742 3.8281-2.0938 10.4114-7.9173 11.7813-14.0625 1.125-5.04691-1.75-10.78128-8.1875-9.90628z" fill="url(#i)"/><path d="m21.8154 5.08912c-1.641.28384-3.4889 1.3948-4.428 2.37809 0 0-.1239.10137-.1239.25343 0 .06082.0206.14192.031.15205l1.9428 5.34141c.0937.1875.1151.4734-.0703.7031-.7246.8973-1.5235 1.9688-2.2266 2.8711-.3096.3143-.3417.6812-.125 1.0664l2.4218 4.6758c.1961.3548.1172.5938-.0429.8282l-1.5547 2.371c-.1342.1724-.2656.5157-.2656.7305l-.0274 2.5235c0 .3164.4828.3479.875.0742 3.8281-2.0938 10.4114-7.9173 11.7813-14.0625 1.125-5.04691-1.75-10.78128-8.1875-9.90628z" fill="url(#j)"/><path d="m21.8154 5.08912c-1.641.28384-3.4889 1.3948-4.428 2.37809 0 0-.1239.10137-.1239.25343 0 .06082.0206.14192.031.15205l1.9428 5.34141c.0937.1875.1151.4734-.0703.7031-.7246.8973-1.5235 1.9688-2.2266 2.8711-.3096.3143-.3417.6812-.125 1.0664l2.4218 4.6758c.1961.3548.1172.5938-.0429.8282l-1.5547 2.371c-.1342.1724-.2656.5157-.2656.7305l-.0274 2.5235c0 .3164.4828.3479.875.0742 3.8281-2.0938 10.4114-7.9173 11.7813-14.0625 1.125-5.04691-1.75-10.78128-8.1875-9.90628z" fill="url(#k)"/><path d="m21.8154 5.08912c-1.641.28384-3.4889 1.3948-4.428 2.37809 0 0-.1239.10137-.1239.25343 0 .06082.0206.14192.031.15205l1.9428 5.34141c.0937.1875.1151.4734-.0703.7031-.7246.8973-1.5235 1.9688-2.2266 2.8711-.3096.3143-.3417.6812-.125 1.0664l2.4218 4.6758c.1961.3548.1172.5938-.0429.8282l-1.5547 2.371c-.1342.1724-.2656.5157-.2656.7305l-.0274 2.5235c0 .3164.4828.3479.875.0742 3.8281-2.0938 10.4114-7.9173 11.7813-14.0625 1.125-5.04691-1.75-10.78128-8.1875-9.90628z" fill="url(#l)"/><g filter="url(#a)"><ellipse cx="24.453" cy="12.672" fill="url(#m)" rx="4.04" ry="5.171" transform="matrix(.7486376 .66297944 -.66297944 .7486376 14.547865 -13.026638)"/></g><g filter="url(#b)"><ellipse cx="12.11" cy="11.281" fill="url(#n)" rx="2.968" ry="4.662" transform="matrix(-.87130804 .49073648 -.49073648 -.87130804 28.197548 15.168205)"/></g><g filter="url(#c)"><path d="m16.4091 22.6058-2.75-5.4375" stroke="url(#o)" stroke-linecap="round" stroke-width=".25"/></g><g filter="url(#d)"><path d="m13.8154 16.511 2.6875-3.3125-1.375-3.78126" stroke="url(#p)" stroke-linecap="round" stroke-opacity=".75" stroke-width=".15"/></g></svg>