<svg fill="none" height="32" viewBox="0 0 32 32" width="32" xmlns="http://www.w3.org/2000/svg" xmlns:xlink="http://www.w3.org/1999/xlink"><filter id="a" color-interpolation-filters="sRGB" filterUnits="userSpaceOnUse" height="22.189" width="28.201" x="1.949" y="3.086"><feFlood flood-opacity="0" result="BackgroundImageFix"/><feBlend in="SourceGraphic" in2="BackgroundImageFix" mode="normal" result="shape"/><feColorMatrix in="SourceAlpha" result="hardAlpha" type="matrix" values="0 0 0 0 0 0 0 0 0 0 0 0 0 0 0 0 0 0 127 0"/><feOffset dx=".1" dy=".1"/><feGaussianBlur stdDeviation=".5"/><feComposite in2="hardAlpha" k2="-1" k3="1" operator="arithmetic"/><feColorMatrix type="matrix" values="0 0 0 0 0.716667 0 0 0 0 0.716667 0 0 0 0 0.716667 0 0 0 1 0"/><feBlend in2="shape" mode="normal" result="effect1_innerShadow_7163_6153"/><feColorMatrix in="SourceAlpha" result="hardAlpha" type="matrix" values="0 0 0 0 0 0 0 0 0 0 0 0 0 0 0 0 0 0 127 0"/><feOffset dy="-.3"/><feGaussianBlur stdDeviation=".25"/><feComposite in2="hardAlpha" k2="-1" k3="1" operator="arithmetic"/><feColorMatrix type="matrix" values="0 0 0 0 0.764633 0 0 0 0 0.670625 0 0 0 0 0.925 0 0 0 1 0"/><feBlend in2="effect1_innerShadow_7163_6153" mode="normal" result="effect2_innerShadow_7163_6153"/></filter><filter id="b" color-interpolation-filters="sRGB" filterUnits="userSpaceOnUse" height="5.491" width="5.491" x="2.004" y="23.909"><feFlood flood-opacity="0" result="BackgroundImageFix"/><feBlend in="SourceGraphic" in2="BackgroundImageFix" mode="normal" result="shape"/><feColorMatrix in="SourceAlpha" result="hardAlpha" type="matrix" values="0 0 0 0 0 0 0 0 0 0 0 0 0 0 0 0 0 0 127 0"/><feOffset dx=".1" dy=".1"/><feGaussianBlur stdDeviation=".5"/><feComposite in2="hardAlpha" k2="-1" k3="1" operator="arithmetic"/><feColorMatrix type="matrix" values="0 0 0 0 0.758333 0 0 0 0 0.758333 0 0 0 0 0.758333 0 0 0 1 0"/><feBlend in2="shape" mode="normal" result="effect1_innerShadow_7163_6153"/></filter><filter id="c" color-interpolation-filters="sRGB" filterUnits="userSpaceOnUse" height="4.996" width="5.447" x="3.717" y="8.013"><feFlood flood-opacity="0" result="BackgroundImageFix"/><feBlend in="SourceGraphic" in2="BackgroundImageFix" mode="normal" result="shape"/><feGaussianBlur result="effect1_foregroundBlur_7163_6153" stdDeviation=".3"/></filter><filter id="d" color-interpolation-filters="sRGB" filterUnits="userSpaceOnUse" height="7.171" width="5.158" x="21.969" y="5.338"><feFlood flood-opacity="0" result="BackgroundImageFix"/><feBlend in="SourceGraphic" in2="BackgroundImageFix" mode="normal" result="shape"/><feGaussianBlur result="effect1_foregroundBlur_7163_6153" stdDeviation=".5"/></filter><filter id="e" color-interpolation-filters="sRGB" filterUnits="userSpaceOnUse" height="10.21" width="9.309" x="18.838" y="14.081"><feFlood flood-opacity="0" result="BackgroundImageFix"/><feBlend in="SourceGraphic" in2="BackgroundImageFix" mode="normal" result="shape"/><feGaussianBlur result="effect1_foregroundBlur_7163_6153" stdDeviation="1"/></filter><filter id="f" color-interpolation-filters="sRGB" filterUnits="userSpaceOnUse" height="6.552" width="6.574" x="7.768" y="4.319"><feFlood flood-opacity="0" result="BackgroundImageFix"/><feBlend in="SourceGraphic" in2="BackgroundImageFix" mode="normal" result="shape"/><feGaussianBlur result="effect1_foregroundBlur_7163_6153" stdDeviation=".5"/></filter><filter id="g" color-interpolation-filters="sRGB" filterUnits="userSpaceOnUse" height="6.616" width="6.092" x="17.448" y="4.021"><feFlood flood-opacity="0" result="BackgroundImageFix"/><feBlend in="SourceGraphic" in2="BackgroundImageFix" mode="normal" result="shape"/><feGaussianBlur result="effect1_foregroundBlur_7163_6153" stdDeviation=".5"/></filter><radialGradient id="h" cx="0" cy="0" gradientTransform="matrix(-3.47731325 15.34760151 -28.86001742 -6.53882764 20.587 7.19704)" gradientUnits="userSpaceOnUse" r="1"><stop offset="0" stop-color="#fff"/><stop offset="1" stop-color="#e4dbf7"/></radialGradient><linearGradient id="i"><stop offset=".523" stop-color="#cecece" stop-opacity="0"/><stop offset="1" stop-color="#cecece"/></linearGradient><radialGradient id="j" cx="0" cy="0" gradientTransform="matrix(-23.36587639 -6.13907726 11.33280539 -43.13366954 20.892 23.8432)" gradientUnits="userSpaceOnUse" r="1" xlink:href="#i"/><radialGradient id="k" cx="0" cy="0" gradientTransform="matrix(-15.93758195 -18.18741189 14.89068778 -13.04867114 21.25 23.8938)" gradientUnits="userSpaceOnUse" r="1"><stop offset=".753" stop-color="#cecece" stop-opacity="0"/><stop offset="1" stop-color="#cecece"/></radialGradient><linearGradient id="l"><stop offset=".439" stop-color="#b6a8f2" stop-opacity="0"/><stop offset=".966" stop-color="#b6a8f2"/></linearGradient><linearGradient id="m" gradientUnits="userSpaceOnUse" x1="8.691" x2="1.451" xlink:href="#l" y1="13.69" y2="24.462"/><linearGradient id="n"><stop offset=".278" stop-color="#b6a8f2" stop-opacity="0"/><stop offset="1" stop-color="#b6a8f2"/></linearGradient><radialGradient id="o" cx="0" cy="0" gradientTransform="matrix(-13.72655126 26.32693641 -60.81907588 -31.71034219 18.7568 10.6797)" gradientUnits="userSpaceOnUse" r="1" xlink:href="#n"/><radialGradient id="p" cx="0" cy="0" gradientTransform="matrix(-2.48247552 3.56795933 -5.30549882 -3.69140166 7.39438 25.0813)" gradientUnits="userSpaceOnUse" r="1"><stop offset="0" stop-color="#fff"/><stop offset="1" stop-color="#e0d8f0"/></radialGradient><radialGradient id="q" cx="0" cy="0" gradientTransform="matrix(-4.48218818 -1.51879382 3.46745663 -10.23298416 5.63749 28.9706)" gradientUnits="userSpaceOnUse" r="1" xlink:href="#i"/><radialGradient id="r" cx="0" cy="0" gradientTransform="matrix(-4.17686097 -5.30936877 5.83902377 -4.59353862 5.42684 29.2188)" gradientUnits="userSpaceOnUse" r="1"><stop offset=".619" stop-color="#cecece" stop-opacity="0"/><stop offset="1" stop-color="#cecece"/></radialGradient><linearGradient id="s" gradientUnits="userSpaceOnUse" x1="3.297" x2="1.382" xlink:href="#l" y1="26.459" y2="28.668"/><radialGradient id="t" cx="0" cy="0" gradientTransform="matrix(-2.63312911 6.51329539 -12.75391054 -5.15602181 5.22789 25.7139)" gradientUnits="userSpaceOnUse" r="1" xlink:href="#n"/><linearGradient id="u" gradientUnits="userSpaceOnUse" x1="8.768" x2="8.396" y1="12.55" y2="9.544"><stop offset=".516" stop-color="#cec7d4" stop-opacity="0"/><stop offset="1" stop-color="#cec7d5"/></linearGradient><linearGradient id="v" gradientUnits="userSpaceOnUse" x1="25.905" x2="21.722" y1="10.781" y2="8.78"><stop offset="0" stop-color="#fff"/><stop offset="1" stop-color="#fff" stop-opacity="0"/></linearGradient><linearGradient id="w" gradientUnits="userSpaceOnUse" x1="25.853" x2="22.839" y1="22.333" y2="16.89"><stop offset="0" stop-color="#fff" stop-opacity=".6"/><stop offset="1" stop-color="#fff" stop-opacity="0"/></linearGradient><g filter="url(#a)"><path d="m30.0508 14.2855c0-1.9338-1.1952-3.5757-2.8881-4.2757-.1804-.07457-.2925-.25892-.2678-.45262.0184-.14473.0312-.29042.0312-.44247 0-2.57046-2.0998-4.65272-4.6919-4.65272-.9259 0-1.7741.27268-2.4976.73605-.2156.13812-.5116.07018-.6525-.14365-.6632-1.00622-1.7908-1.6684-3.0891-1.6684-1.2871 0-2.4194.65961-3.0713 1.65581-.1405.21462-.4364.28538-.653.14795-.7229-.45875-1.5702-.73772-2.49484-.73772-2.59214 0-4.69197 2.08226-4.69197 4.65271 0 .15031.01255.2975.03063.44158.02437.19418-.08715.37959-.26783.45478-1.7018.7081-2.89747 2.3502-2.89747 4.2844 0 1.9338 1.19518 3.5756 2.88803 4.2756.18045.0747.29252.259.26786.4527-.01842.1447-.03126.2904-.03126.4425 0 2.5704 2.09983 4.6527 4.69196 4.6527.92519 0 1.77299-.2723 2.49609-.7351.2162-.1383.5129-.0697.6541.1446.6567.9966 1.7816 1.6565 3.0689 1.6565 1.2871 0 2.4194-.6596 3.0713-1.6558.1405-.2146.4364-.2854.653-.1479.7229.4587 1.5702.7377 2.4948.7377 2.5922 0 4.692-2.0823 4.692-4.6527 0-.1496-.0124-.296-.0304-.4394-.0244-.1951.0884-.3813.2704-.4558 1.7107-.7 2.9148-2.3418 2.9148-4.2756z" fill="url(#h)"/><path d="m30.0508 14.2855c0-1.9338-1.1952-3.5757-2.8881-4.2757-.1804-.07457-.2925-.25892-.2678-.45262.0184-.14473.0312-.29042.0312-.44247 0-2.57046-2.0998-4.65272-4.6919-4.65272-.9259 0-1.7741.27268-2.4976.73605-.2156.13812-.5116.07018-.6525-.14365-.6632-1.00622-1.7908-1.6684-3.0891-1.6684-1.2871 0-2.4194.65961-3.0713 1.65581-.1405.21462-.4364.28538-.653.14795-.7229-.45875-1.5702-.73772-2.49484-.73772-2.59214 0-4.69197 2.08226-4.69197 4.65271 0 .15031.01255.2975.03063.44158.02437.19418-.08715.37959-.26783.45478-1.7018.7081-2.89747 2.3502-2.89747 4.2844 0 1.9338 1.19518 3.5756 2.88803 4.2756.18045.0747.29252.259.26786.4527-.01842.1447-.03126.2904-.03126.4425 0 2.5704 2.09983 4.6527 4.69196 4.6527.92519 0 1.77299-.2723 2.49609-.7351.2162-.1383.5129-.0697.6541.1446.6567.9966 1.7816 1.6565 3.0689 1.6565 1.2871 0 2.4194-.6596 3.0713-1.6558.1405-.2146.4364-.2854.653-.1479.7229.4587 1.5702.7377 2.4948.7377 2.5922 0 4.692-2.0823 4.692-4.6527 0-.1496-.0124-.296-.0304-.4394-.0244-.1951.0884-.3813.2704-.4558 1.7107-.7 2.9148-2.3418 2.9148-4.2756z" fill="url(#j)"/><path d="m30.0508 14.2855c0-1.9338-1.1952-3.5757-2.8881-4.2757-.1804-.07457-.2925-.25892-.2678-.45262.0184-.14473.0312-.29042.0312-.44247 0-2.57046-2.0998-4.65272-4.6919-4.65272-.9259 0-1.7741.27268-2.4976.73605-.2156.13812-.5116.07018-.6525-.14365-.6632-1.00622-1.7908-1.6684-3.0891-1.6684-1.2871 0-2.4194.65961-3.0713 1.65581-.1405.21462-.4364.28538-.653.14795-.7229-.45875-1.5702-.73772-2.49484-.73772-2.59214 0-4.69197 2.08226-4.69197 4.65271 0 .15031.01255.2975.03063.44158.02437.19418-.08715.37959-.26783.45478-1.7018.7081-2.89747 2.3502-2.89747 4.2844 0 1.9338 1.19518 3.5756 2.88803 4.2756.18045.0747.29252.259.26786.4527-.01842.1447-.03126.2904-.03126.4425 0 2.5704 2.09983 4.6527 4.69196 4.6527.92519 0 1.77299-.2723 2.49609-.7351.2162-.1383.5129-.0697.6541.1446.6567.9966 1.7816 1.6565 3.0689 1.6565 1.2871 0 2.4194-.6596 3.0713-1.6558.1405-.2146.4364-.2854.653-.1479.7229.4587 1.5702.7377 2.4948.7377 2.5922 0 4.692-2.0823 4.692-4.6527 0-.1496-.0124-.296-.0304-.4394-.0244-.1951.0884-.3813.2704-.4558 1.7107-.7 2.9148-2.3418 2.9148-4.2756z" fill="url(#k)"/><path d="m30.0508 14.2855c0-1.9338-1.1952-3.5757-2.8881-4.2757-.1804-.07457-.2925-.25892-.2678-.45262.0184-.14473.0312-.29042.0312-.44247 0-2.57046-2.0998-4.65272-4.6919-4.65272-.9259 0-1.7741.27268-2.4976.73605-.2156.13812-.5116.07018-.6525-.14365-.6632-1.00622-1.7908-1.6684-3.0891-1.6684-1.2871 0-2.4194.65961-3.0713 1.65581-.1405.21462-.4364.28538-.653.14795-.7229-.45875-1.5702-.73772-2.49484-.73772-2.59214 0-4.69197 2.08226-4.69197 4.65271 0 .15031.01255.2975.03063.44158.02437.19418-.08715.37959-.26783.45478-1.7018.7081-2.89747 2.3502-2.89747 4.2844 0 1.9338 1.19518 3.5756 2.88803 4.2756.18045.0747.29252.259.26786.4527-.01842.1447-.03126.2904-.03126.4425 0 2.5704 2.09983 4.6527 4.69196 4.6527.92519 0 1.77299-.2723 2.49609-.7351.2162-.1383.5129-.0697.6541.1446.6567.9966 1.7816 1.6565 3.0689 1.6565 1.2871 0 2.4194-.6596 3.0713-1.6558.1405-.2146.4364-.2854.653-.1479.7229.4587 1.5702.7377 2.4948.7377 2.5922 0 4.692-2.0823 4.692-4.6527 0-.1496-.0124-.296-.0304-.4394-.0244-.1951.0884-.3813.2704-.4558 1.7107-.7 2.9148-2.3418 2.9148-4.2756z" fill="url(#m)"/><path d="m30.0508 14.2855c0-1.9338-1.1952-3.5757-2.8881-4.2757-.1804-.07457-.2925-.25892-.2678-.45262.0184-.14473.0312-.29042.0312-.44247 0-2.57046-2.0998-4.65272-4.6919-4.65272-.9259 0-1.7741.27268-2.4976.73605-.2156.13812-.5116.07018-.6525-.14365-.6632-1.00622-1.7908-1.6684-3.0891-1.6684-1.2871 0-2.4194.65961-3.0713 1.65581-.1405.21462-.4364.28538-.653.14795-.7229-.45875-1.5702-.73772-2.49484-.73772-2.59214 0-4.69197 2.08226-4.69197 4.65271 0 .15031.01255.2975.03063.44158.02437.19418-.08715.37959-.26783.45478-1.7018.7081-2.89747 2.3502-2.89747 4.2844 0 1.9338 1.19518 3.5756 2.88803 4.2756.18045.0747.29252.259.26786.4527-.01842.1447-.03126.2904-.03126.4425 0 2.5704 2.09983 4.6527 4.69196 4.6527.92519 0 1.77299-.2723 2.49609-.7351.2162-.1383.5129-.0697.6541.1446.6567.9966 1.7816 1.6565 3.0689 1.6565 1.2871 0 2.4194-.6596 3.0713-1.6558.1405-.2146.4364-.2854.653-.1479.7229.4587 1.5702.7377 2.4948.7377 2.5922 0 4.692-2.0823 4.692-4.6527 0-.1496-.0124-.296-.0304-.4394-.0244-.1951.0884-.3813.2704-.4558 1.7107-.7 2.9148-2.3418 2.9148-4.2756z" fill="url(#o)"/></g><g filter="url(#b)"><path d="m4.69907 29.3c1.48858 0 2.69531-1.2067 2.69531-2.6953 0-1.4885-1.20673-2.6953-2.69531-2.6953s-2.69532 1.2068-2.69532 2.6953c0 1.4886 1.20674 2.6953 2.69532 2.6953z" fill="url(#p)"/><path d="m4.69907 29.3c1.48858 0 2.69531-1.2067 2.69531-2.6953 0-1.4885-1.20673-2.6953-2.69531-2.6953s-2.69532 1.2068-2.69532 2.6953c0 1.4886 1.20674 2.6953 2.69532 2.6953z" fill="url(#q)"/><path d="m4.69907 29.3c1.48858 0 2.69531-1.2067 2.69531-2.6953 0-1.4885-1.20673-2.6953-2.69531-2.6953s-2.69532 1.2068-2.69532 2.6953c0 1.4886 1.20674 2.6953 2.69532 2.6953z" fill="url(#r)"/><path d="m4.69907 29.3c1.48858 0 2.69531-1.2067 2.69531-2.6953 0-1.4885-1.20673-2.6953-2.69531-2.6953s-2.69532 1.2068-2.69532 2.6953c0 1.4886 1.20674 2.6953 2.69532 2.6953z" fill="url(#s)"/><path d="m4.69907 29.3c1.48858 0 2.69531-1.2067 2.69531-2.6953 0-1.4885-1.20673-2.6953-2.69531-2.6953s-2.69532 1.2068-2.69532 2.6953c0 1.4886 1.20674 2.6953 2.69532 2.6953z" fill="url(#t)"/></g><g filter="url(#c)"><path d="m8.56381 12.4088-2.81644-3.79625-.24737 1.43745-1.18307.5075z" fill="url(#u)" fill-opacity=".6"/></g><g filter="url(#d)"><path d="m24.2163 6.33765c1.9955.7691 2.044 2.8668 1.8188 3.81955l-3.066 1.3511z" fill="url(#v)"/></g><g filter="url(#e)"><path d="m25.5428 17.8486c1.3497 1.7404.1327 3.9628-.677 4.4427l-4.0273-6.21z" fill="url(#w)"/></g><g filter="url(#f)"><path d="m12.4199 6.18177c1.0809 1.12248.9905 2.99673.8172 3.68961l-4.46906-4.3132c.76776-.3118 2.57096-.49888 3.65186.62359z" fill="#fafafc" fill-opacity=".25"/></g><g filter="url(#g)"><path d="m18.448 9.63738.8315-3.75456c1.8578-.97437 2.8581-.85744 3.2609-.85744z" fill="#e6e4ec" fill-opacity=".5"/></g></svg>