<svg fill="none" height="32" viewBox="0 0 32 32" width="32" xmlns="http://www.w3.org/2000/svg" xmlns:xlink="http://www.w3.org/1999/xlink"><filter id="a" color-interpolation-filters="sRGB" filterUnits="userSpaceOnUse" height="27.781" width="28.781" x="1.797" y="2.109"><feFlood flood-opacity="0" result="BackgroundImageFix"/><feBlend in="SourceGraphic" in2="BackgroundImageFix" mode="normal" result="shape"/><feColorMatrix in="SourceAlpha" result="hardAlpha" type="matrix" values="0 0 0 0 0 0 0 0 0 0 0 0 0 0 0 0 0 0 127 0"/><feOffset dx=".5"/><feGaussianBlur stdDeviation=".25"/><feComposite in2="hardAlpha" k2="-1" k3="1" operator="arithmetic"/><feColorMatrix type="matrix" values="0 0 0 0 0.294118 0 0 0 0 0.239216 0 0 0 0 0.45098 0 0 0 1 0"/><feBlend in2="shape" mode="normal" result="effect1_innerShadow_18_19772"/><feColorMatrix in="SourceAlpha" result="hardAlpha" type="matrix" values="0 0 0 0 0 0 0 0 0 0 0 0 0 0 0 0 0 0 127 0"/><feOffset dx="-.5"/><feGaussianBlur stdDeviation=".25"/><feComposite in2="hardAlpha" k2="-1" k3="1" operator="arithmetic"/><feColorMatrix type="matrix" values="0 0 0 0 0.439216 0 0 0 0 0.458824 0 0 0 0 0.756863 0 0 0 1 0"/><feBlend in2="effect1_innerShadow_18_19772" mode="normal" result="effect2_innerShadow_18_19772"/></filter><filter id="b" color-interpolation-filters="sRGB" filterUnits="userSpaceOnUse" height="10.953" width="10.742" x="19.301" y="11.074"><feFlood flood-opacity="0" result="BackgroundImageFix"/><feBlend in="SourceGraphic" in2="BackgroundImageFix" mode="normal" result="shape"/><feGaussianBlur result="effect1_foregroundBlur_18_19772" stdDeviation=".25"/></filter><filter id="c" color-interpolation-filters="sRGB" filterUnits="userSpaceOnUse" height="24.944" width="24.944" x="3.316" y="3.778"><feFlood flood-opacity="0" result="BackgroundImageFix"/><feColorMatrix in="SourceAlpha" result="hardAlpha" type="matrix" values="0 0 0 0 0 0 0 0 0 0 0 0 0 0 0 0 0 0 127 0"/><feOffset dx="-.4" dy=".25"/><feGaussianBlur stdDeviation=".4"/><feComposite in2="hardAlpha" operator="out"/><feColorMatrix type="matrix" values="0 0 0 0 0.278431 0 0 0 0 0.196078 0 0 0 0 0.529412 0 0 0 1 0"/><feBlend in2="BackgroundImageFix" mode="normal" result="effect1_dropShadow_18_19772"/><feBlend in="SourceGraphic" in2="effect1_dropShadow_18_19772" mode="normal" result="shape"/></filter><filter id="d" color-interpolation-filters="sRGB" filterUnits="userSpaceOnUse" height="22.344" width="22.344" x="5.016" y="4.828"><feFlood flood-opacity="0" result="BackgroundImageFix"/><feBlend in="SourceGraphic" in2="BackgroundImageFix" mode="normal" result="shape"/><feGaussianBlur result="effect1_foregroundBlur_18_19772" stdDeviation=".125"/></filter><filter id="e" color-interpolation-filters="sRGB" filterUnits="userSpaceOnUse" height="9.07" width="15.955" x="8.022" y="4.828"><feFlood flood-opacity="0" result="BackgroundImageFix"/><feBlend in="SourceGraphic" in2="BackgroundImageFix" mode="normal" result="shape"/><feGaussianBlur result="effect1_foregroundBlur_18_19772" stdDeviation=".125"/></filter><filter id="f" color-interpolation-filters="sRGB" filterUnits="userSpaceOnUse" height="8.844" width="15.516" x="8.448" y="18.328"><feFlood flood-opacity="0" result="BackgroundImageFix"/><feBlend in="SourceGraphic" in2="BackgroundImageFix" mode="normal" result="shape"/><feGaussianBlur result="effect1_foregroundBlur_18_19772" stdDeviation=".125"/></filter><filter id="g" color-interpolation-filters="sRGB" filterUnits="userSpaceOnUse" height="7.527" width="7.527" x="12.425" y="12.237"><feFlood flood-opacity="0" result="BackgroundImageFix"/><feBlend in="SourceGraphic" in2="BackgroundImageFix" mode="normal" result="shape"/><feGaussianBlur result="effect1_foregroundBlur_18_19772" stdDeviation=".05"/></filter><filter id="h" color-interpolation-filters="sRGB" filterUnits="userSpaceOnUse" height="11.953" width="10.594" x="18.641" y="10.574"><feFlood flood-opacity="0" result="BackgroundImageFix"/><feBlend in="SourceGraphic" in2="BackgroundImageFix" mode="normal" result="shape"/><feGaussianBlur result="effect1_foregroundBlur_18_19772" stdDeviation=".5"/></filter><filter id="i" color-interpolation-filters="sRGB" filterUnits="userSpaceOnUse" height="10.303" width="9.942" x="20.337" y="10.823"><feFlood flood-opacity="0" result="BackgroundImageFix"/><feBlend in="SourceGraphic" in2="BackgroundImageFix" mode="normal" result="shape"/><feColorMatrix in="SourceAlpha" result="hardAlpha" type="matrix" values="0 0 0 0 0 0 0 0 0 0 0 0 0 0 0 0 0 0 127 0"/><feOffset dy=".2"/><feGaussianBlur stdDeviation=".075"/><feComposite in2="hardAlpha" k2="-1" k3="1" operator="arithmetic"/><feColorMatrix type="matrix" values="0 0 0 0 0.94902 0 0 0 0 0.913725 0 0 0 0 0.988235 0 0 0 1 0"/><feBlend in2="shape" mode="normal" result="effect1_innerShadow_18_19772"/><feColorMatrix in="SourceAlpha" result="hardAlpha" type="matrix" values="0 0 0 0 0 0 0 0 0 0 0 0 0 0 0 0 0 0 127 0"/><feOffset dx=".2" dy="-.2"/><feGaussianBlur stdDeviation=".15"/><feComposite in2="hardAlpha" k2="-1" k3="1" operator="arithmetic"/><feColorMatrix type="matrix" values="0 0 0 0 0.713726 0 0 0 0 0.564706 0 0 0 0 0.823529 0 0 0 1 0"/><feBlend in2="effect1_innerShadow_18_19772" mode="normal" result="effect2_innerShadow_18_19772"/></filter><linearGradient id="j" gradientUnits="userSpaceOnUse" x1="16.188" x2="16.188" y1="2.109" y2="29.891"><stop offset="0" stop-color="#6261b8"/><stop offset="1" stop-color="#5d3687"/></linearGradient><linearGradient id="k" gradientUnits="userSpaceOnUse" x1="30.454" x2="22.016" y1="29.891" y2="22.5"><stop offset="0" stop-color="#5e328b"/><stop offset="1" stop-color="#5e328b" stop-opacity="0"/></linearGradient><radialGradient id="l" cx="0" cy="0" gradientTransform="matrix(0 8.4375 -.937498 0 30.0787 20.8125)" gradientUnits="userSpaceOnUse" r="1"><stop offset=".196" stop-color="#644d98"/><stop offset="1" stop-color="#644d98" stop-opacity="0"/></radialGradient><linearGradient id="m" gradientUnits="userSpaceOnUse" x1="16.188" x2="16.188" y1="4.328" y2="27.672"><stop offset="0" stop-color="#e9ce53"/><stop offset="1" stop-color="#ff974e"/></linearGradient><radialGradient id="n" cx="0" cy="0" gradientTransform="matrix(-6.62491384 15.54692885 -13.61170438 -5.80026895 17.2037 12.125)" gradientUnits="userSpaceOnUse" r="1"><stop offset=".868" stop-color="#ff684c" stop-opacity="0"/><stop offset=".987" stop-color="#ff684c"/></radialGradient><radialGradient id="o" cx="0" cy="0" gradientTransform="matrix(-16.20676154 -10.10470395 7.89332778 -12.65997319 21.4219 19.5025)" gradientUnits="userSpaceOnUse" r="1"><stop offset=".887" stop-color="#b99c5e" stop-opacity="0"/><stop offset=".979" stop-color="#b99c5e"/></radialGradient><radialGradient id="p" cx="0" cy="0" gradientTransform="matrix(12.26996173 -9.38292663 9.38292663 12.26996173 13.2201 17.9277)" gradientUnits="userSpaceOnUse" r="1"><stop offset=".894" stop-color="#ffe86d" stop-opacity="0"/><stop offset=".991" stop-color="#ffe86d"/></radialGradient><linearGradient id="q" gradientUnits="userSpaceOnUse" x1="16.188" x2="16.188" y1="9.688" y2="26.922"><stop offset="0" stop-color="#f4bd5b"/><stop offset="1" stop-color="#ff9e54"/></linearGradient><radialGradient id="r" cx="13.329" cy="16" gradientUnits="userSpaceOnUse" r="7.688"><stop offset=".62" stop-color="#f8ae59"/><stop offset="1" stop-color="#d48b52"/></radialGradient><linearGradient id="s" gradientUnits="userSpaceOnUse" x1="23.728" x2="12.641" y1="8.438" y2="8.438"><stop offset="0" stop-color="#fff25c"/><stop offset="1" stop-color="#fff25c" stop-opacity="0"/></linearGradient><linearGradient id="t" gradientUnits="userSpaceOnUse" x1="12.172" x2="18.36" y1="19.281" y2="21.156"><stop offset="0" stop-color="#ffd05a"/><stop offset="1" stop-color="#ffd05a" stop-opacity="0"/></linearGradient><linearGradient id="u" gradientUnits="userSpaceOnUse" x1="24.515" x2="24.515" y1="11.574" y2="21.527"><stop offset="0" stop-color="#e86f47" stop-opacity="0"/><stop offset="0" stop-color="#c87c46"/><stop offset="1" stop-color="#e86f47"/></linearGradient><linearGradient id="v" gradientUnits="userSpaceOnUse" x1="25.208" x2="25.208" y1="11.023" y2="20.977"><stop offset=".205" stop-color="#f8dfff"/><stop offset=".72" stop-color="#c5addd"/></linearGradient><g filter="url(#a)"><rect fill="url(#j)" height="27.781" rx="2.5" width="27.781" x="2.297" y="2.109"/></g><rect fill="url(#k)" height="27.781" rx="2.5" width="27.781" x="2.297" y="2.109"/><rect fill="url(#l)" height="27.781" rx="2.5" width="27.781" x="2.297" y="2.109"/><g filter="url(#b)"><path d="m29.5436 11.5742v9.9531h-7.9422c-.9941 0-1.8-.8058-1.8-1.8v-6.3531c0-.9941.8059-1.8 1.8-1.8z" fill="#4a2b7f"/></g><g clip-rule="evenodd" fill-rule="evenodd" filter="url(#c)"><path d="m16.1881 27.6719c6.4462 0 11.6719-5.2257 11.6719-11.6719s-5.2257-11.67188-11.6719-11.67188c-6.44619 0-11.67186 5.22568-11.67186 11.67188s5.22567 11.6719 11.67186 11.6719zm0-8.9141c1.5231 0 2.7578-1.2347 2.7578-2.7578s-1.2347-2.7578-2.7578-2.7578-2.7578 1.2347-2.7578 2.7578 1.2347 2.7578 2.7578 2.7578z" fill="url(#m)"/><path d="m16.1881 27.6719c6.4462 0 11.6719-5.2257 11.6719-11.6719s-5.2257-11.67188-11.6719-11.67188c-6.44619 0-11.67186 5.22568-11.67186 11.67188s5.22567 11.6719 11.67186 11.6719zm0-8.9141c1.5231 0 2.7578-1.2347 2.7578-2.7578s-1.2347-2.7578-2.7578-2.7578-2.7578 1.2347-2.7578 2.7578 1.2347 2.7578 2.7578 2.7578z" fill="url(#n)"/><path d="m16.1881 27.6719c6.4462 0 11.6719-5.2257 11.6719-11.6719s-5.2257-11.67188-11.6719-11.67188c-6.44619 0-11.67186 5.22568-11.67186 11.67188s5.22567 11.6719 11.67186 11.6719zm0-8.9141c1.5231 0 2.7578-1.2347 2.7578-2.7578s-1.2347-2.7578-2.7578-2.7578-2.7578 1.2347-2.7578 2.7578 1.2347 2.7578 2.7578 2.7578z" fill="url(#o)"/><path d="m16.1881 27.6719c6.4462 0 11.6719-5.2257 11.6719-11.6719s-5.2257-11.67188-11.6719-11.67188c-6.44619 0-11.67186 5.22568-11.67186 11.67188s5.22567 11.6719 11.67186 11.6719zm0-8.9141c1.5231 0 2.7578-1.2347 2.7578-2.7578s-1.2347-2.7578-2.7578-2.7578-2.7578 1.2347-2.7578 2.7578 1.2347 2.7578 2.7578 2.7578z" fill="url(#p)"/></g><g filter="url(#d)"><path clip-rule="evenodd" d="m16.1881 26.9219c6.032 0 10.9219-4.8899 10.9219-10.9219 0-6.03198-4.8899-10.92188-10.9219-10.92188s-10.92186 4.8899-10.92186 10.92188c0 6.032 4.88986 10.9219 10.92186 10.9219zm3.1406-10.9219c0 1.5231-1.6175 3.25-3.1406 3.25s-3.3281-1.7269-3.3281-3.25 1.805-3.3438 3.3281-3.3438 3.1406 1.8207 3.1406 3.3438z" fill="url(#q)" fill-rule="evenodd"/></g><path clip-rule="evenodd" d="m16.1881 19.6133c1.9956 0 3.6133-1.6177 3.6133-3.6133s-1.6177-3.6133-3.6133-3.6133c-1.9955 0-3.6133 1.6177-3.6133 3.6133s1.6178 3.6133 3.6133 3.6133zm2.7578-3.6133c0 1.5231-1.2347 2.7578-2.7578 2.7578s-2.7578-1.2347-2.7578-2.7578 1.2347-2.7578 2.7578-2.7578 2.7578 1.2347 2.7578 2.7578z" fill="url(#r)" fill-rule="evenodd"/><g filter="url(#e)"><path d="m13.4453 13.6478c.6626-.772 1.6456-1.2611 2.7428-1.2611 1.0097 0 1.9227.4142 2.5783 1.0819l4.8156-4.81557c.1948-.19485.1961-.51154-.0069-.69797-1.9444-1.78639-4.5384-2.87694-7.387-2.87694-3.016 0-5.7464 1.22248-7.72291 3.19895-.0651.06511-.12939.13104-.19285.19777z" fill="url(#s)"/></g><g filter="url(#f)"><path d="m18.5403 18.7429c-.6321.5426-1.4538.8704-2.3522.8704-.9859 0-1.8795-.3948-2.5314-1.0349l-4.81344 4.8134c-.19568.1956-.19595.514.00902.6999 1.93872 1.7587 4.51212 2.8302 7.33582 2.8302 2.639 0 5.0594-.9359 6.9473-2.494.1986-.1639.3914-.3347.5779-.5121z" fill="url(#t)"/></g><g filter="url(#g)"><path d="m16.1881 19.6383c2.0094 0 3.6383-1.6289 3.6383-3.6383s-1.6289-3.6383-3.6383-3.6383-3.6383 1.6289-3.6383 3.6383 1.6289 3.6383 3.6383 3.6383z" stroke="#efa141" stroke-width=".05"/></g><g filter="url(#h)"><path d="m28.235 11.5742s-.832 7.0508-2.1017 9.9531h-4.6912c-.9946 0-1.8009-.8058-1.8009-1.8v-6.3531c0-.9941.8063-1.8 1.8009-1.8z" fill="url(#u)"/></g><g filter="url(#i)"><path d="m30.0787 11.0234v9.9532h-7.9421c-.9942 0-1.8001-.8059-1.8001-1.8v-6.3532c0-.9941.8059-1.8 1.8001-1.8z" fill="url(#v)"/></g></svg>