<svg fill="none" height="32" viewBox="0 0 32 32" width="32" xmlns="http://www.w3.org/2000/svg" xmlns:xlink="http://www.w3.org/1999/xlink"><filter id="a" color-interpolation-filters="sRGB" filterUnits="userSpaceOnUse" height="27.897" width="22.406" x="3.885" y="2.002"><feFlood flood-opacity="0" result="BackgroundImageFix"/><feBlend in="SourceGraphic" in2="BackgroundImageFix" mode="normal" result="shape"/><feColorMatrix in="SourceAlpha" result="hardAlpha" type="matrix" values="0 0 0 0 0 0 0 0 0 0 0 0 0 0 0 0 0 0 127 0"/><feOffset dx="-.15"/><feGaussianBlur stdDeviation=".15"/><feComposite in2="hardAlpha" k2="-1" k3="1" operator="arithmetic"/><feColorMatrix type="matrix" values="0 0 0 0 1 0 0 0 0 1 0 0 0 0 1 0 0 0 1 0"/><feBlend in2="shape" mode="normal" result="effect1_innerShadow_18_21031"/><feColorMatrix in="SourceAlpha" result="hardAlpha" type="matrix" values="0 0 0 0 0 0 0 0 0 0 0 0 0 0 0 0 0 0 127 0"/><feOffset dx=".1" dy="-.1"/><feGaussianBlur stdDeviation=".1"/><feComposite in2="hardAlpha" k2="-1" k3="1" operator="arithmetic"/><feColorMatrix type="matrix" values="0 0 0 0 0.741176 0 0 0 0 0.701961 0 0 0 0 0.784314 0 0 0 1 0"/><feBlend in2="effect1_innerShadow_18_21031" mode="normal" result="effect2_innerShadow_18_21031"/></filter><filter id="b" color-interpolation-filters="sRGB" filterUnits="userSpaceOnUse" height="4.444" width="20.782" x="8.609" y="25.455"><feFlood flood-opacity="0" result="BackgroundImageFix"/><feBlend in="SourceGraphic" in2="BackgroundImageFix" mode="normal" result="shape"/><feColorMatrix in="SourceAlpha" result="hardAlpha" type="matrix" values="0 0 0 0 0 0 0 0 0 0 0 0 0 0 0 0 0 0 127 0"/><feOffset dx=".2" dy="-.1"/><feGaussianBlur stdDeviation=".1"/><feComposite in2="hardAlpha" k2="-1" k3="1" operator="arithmetic"/><feColorMatrix type="matrix" values="0 0 0 0 0.776471 0 0 0 0 0.74902 0 0 0 0 0.803922 0 0 0 1 0"/><feBlend in2="shape" mode="normal" result="effect1_innerShadow_18_21031"/></filter><linearGradient id="c" gradientUnits="userSpaceOnUse" x1="6.004" x2="25.441" y1="18.523" y2="18.523"><stop offset="0" stop-color="#eae3f2"/><stop offset=".83" stop-color="#e0d9e7"/></linearGradient><radialGradient id="d" cx="0" cy="0" gradientTransform="matrix(0 -5.3125 13.625 0 8.41016 29.8984)" gradientUnits="userSpaceOnUse" r="1"><stop offset=".276" stop-color="#eae7ed"/><stop offset="1" stop-color="#eae7ee" stop-opacity="0"/></radialGradient><linearGradient id="e" gradientUnits="userSpaceOnUse" x1="18.9" x2="18.9" y1="25.93" y2="29.898"><stop offset="0" stop-color="#dfd5ea"/><stop offset="1" stop-color="#c8b2de"/></linearGradient><linearGradient id="f" gradientUnits="userSpaceOnUse" x1="16.691" x2="16.691" y1="30.055" y2="28.867"><stop offset="0" stop-color="#ab89ca"/><stop offset="1" stop-color="#c8b3de" stop-opacity="0"/></linearGradient><radialGradient id="g" cx="0" cy="0" gradientTransform="matrix(15.43753106 -6.98439481 3.27877023 7.24702978 13.6602 32.3359)" gradientUnits="userSpaceOnUse" r="1"><stop offset=".949" stop-color="#e7dfef" stop-opacity="0"/><stop offset=".995" stop-color="#fffcff"/></radialGradient><g filter="url(#a)"><path d="m4.03516 3.10156c0-.55228.44771-1 1-1h20.15624c.5523 0 1 .44772 1 1v24.79684c0 1.1046-.8954 2-2 2h-16.15624c-2.20914 0-4-1.7908-4-4z" fill="url(#c)"/><path d="m4.03516 3.10156c0-.55228.44771-1 1-1h20.15624c.5523 0 1 .44772 1 1v24.79684c0 1.1046-.8954 2-2 2h-16.15624c-2.20914 0-4-1.7908-4-4z" fill="url(#d)"/></g><g filter="url(#b)"><path d="m12.9414 25.5547c-.5523 0-1 .4477-1 1v.0905c0 1.265-1.6526 2.9534-3.33202 3.205v.0482h16.92412c2.0202 0 3.6579-1.6377 3.6579-3.6579 0-.3787-.3071-.6858-.6858-.6858z" fill="url(#e)"/></g><path d="m12.9414 25.5547c-.5523 0-1 .4477-1 1v.0905c0 1.265-1.6526 2.9534-3.33202 3.205v.0482h16.92412c2.0202 0 3.6579-1.6377 3.6579-3.6579 0-.3787-.3071-.6858-.6858-.6858z" fill="url(#f)"/><path d="m12.9414 25.5547c-.5523 0-1 .4477-1 1v.0905c0 1.265-1.6526 2.9534-3.33202 3.205v.0482h16.92412c2.0202 0 3.6579-1.6377 3.6579-3.6579 0-.3787-.3071-.6858-.6858-.6858z" fill="url(#g)"/><g fill="#9c96a2"><rect height="1.023" rx=".512" width="13.914" x="8.168" y="10.031"/><rect height="1.023" rx=".512" width="13.914" x="8.168" y="13.031"/><rect height="1.023" rx=".512" width="13.914" x="8.168" y="16.031"/><rect height="1.023" rx=".512" width="8.977" x="8.168" y="19.031"/></g></svg>