<svg fill="none" height="32" viewBox="0 0 32 32" width="32" xmlns="http://www.w3.org/2000/svg" xmlns:xlink="http://www.w3.org/1999/xlink"><filter id="a" color-interpolation-filters="sRGB" filterUnits="userSpaceOnUse" height="26.732" width="26.732" x="2.822" y="2.634"><feFlood flood-opacity="0" result="BackgroundImageFix"/><feBlend in="SourceGraphic" in2="BackgroundImageFix" mode="normal" result="shape"/><feGaussianBlur result="effect1_foregroundBlur_18_19871" stdDeviation=".125"/></filter><filter id="b" color-interpolation-filters="sRGB" filterUnits="userSpaceOnUse" height="10.791" width="19.06" x="6.432" y="2.634"><feFlood flood-opacity="0" result="BackgroundImageFix"/><feBlend in="SourceGraphic" in2="BackgroundImageFix" mode="normal" result="shape"/><feGaussianBlur result="effect1_foregroundBlur_18_19871" stdDeviation=".125"/></filter><filter id="c" color-interpolation-filters="sRGB" filterUnits="userSpaceOnUse" height="10.52" width="18.532" x="6.943" y="18.846"><feFlood flood-opacity="0" result="BackgroundImageFix"/><feBlend in="SourceGraphic" in2="BackgroundImageFix" mode="normal" result="shape"/><feGaussianBlur result="effect1_foregroundBlur_18_19871" stdDeviation=".125"/></filter><filter id="d" color-interpolation-filters="sRGB" filterUnits="userSpaceOnUse" height="8.978" width="8.978" x="11.699" y="11.511"><feFlood flood-opacity="0" result="BackgroundImageFix"/><feBlend in="SourceGraphic" in2="BackgroundImageFix" mode="normal" result="shape"/><feGaussianBlur result="effect1_foregroundBlur_18_19871" stdDeviation=".05"/></filter><linearGradient id="e" gradientUnits="userSpaceOnUse" x1="16.188" x2="16.188" y1="1.983" y2="30.017"><stop offset="0" stop-color="#e9ce53"/><stop offset="1" stop-color="#ff974e"/></linearGradient><radialGradient id="f" cx="0" cy="0" gradientTransform="matrix(-7.955769 18.6700956 -16.34618871 -6.96549735 17.4078 11.3466)" gradientUnits="userSpaceOnUse" r="1"><stop offset=".868" stop-color="#ff684c" stop-opacity="0"/><stop offset=".987" stop-color="#ff684c"/></radialGradient><radialGradient id="g" cx="0" cy="0" gradientTransform="matrix(-19.4624887 -12.13460728 9.47896655 -15.20315205 22.4734 20.2061)" gradientUnits="userSpaceOnUse" r="1"><stop offset=".887" stop-color="#b99c5e" stop-opacity="0"/><stop offset=".979" stop-color="#b99c5e"/></radialGradient><radialGradient id="h" cx="0" cy="0" gradientTransform="matrix(14.73477322 -11.26778543 11.26778543 14.73477322 12.6239 18.315)" gradientUnits="userSpaceOnUse" r="1"><stop offset=".894" stop-color="#ffe86d" stop-opacity="0"/><stop offset=".991" stop-color="#ffe86d"/></radialGradient><linearGradient id="i" gradientUnits="userSpaceOnUse" x1="16.188" x2="16.188" y1="8.419" y2="29.116"><stop offset="0" stop-color="#f4bd5b"/><stop offset="1" stop-color="#ff9e54"/></linearGradient><radialGradient id="j" cx="12.754" cy="16" gradientUnits="userSpaceOnUse" r="9.232"><stop offset=".62" stop-color="#f8ae59"/><stop offset="1" stop-color="#d48b52"/></radialGradient><linearGradient id="k" gradientUnits="userSpaceOnUse" x1="25.242" x2="11.929" y1="6.918" y2="6.918"><stop offset="0" stop-color="#fff25c"/><stop offset="1" stop-color="#fff25c" stop-opacity="0"/></linearGradient><linearGradient id="l" gradientUnits="userSpaceOnUse" x1="11.366" x2="18.796" y1="19.941" y2="22.192"><stop offset="0" stop-color="#ffd05a"/><stop offset="1" stop-color="#ffd05a" stop-opacity="0"/></linearGradient><g clip-rule="evenodd" fill-rule="evenodd"><path d="m16.1881 30.0166c7.7412 0 14.0166-6.2754 14.0166-14.0166 0-7.74115-6.2754-14.0166-14.0166-14.0166-7.74114 0-14.01659 6.27545-14.01659 14.0166 0 7.7412 6.27545 14.0166 14.01659 14.0166zm0-10.7048c1.8291 0 3.3119-1.4827 3.3119-3.3118s-1.4828-3.3118-3.3119-3.3118c-1.829 0-3.3118 1.4827-3.3118 3.3118s1.4828 3.3118 3.3118 3.3118z" fill="url(#e)"/><path d="m16.1881 30.0166c7.7412 0 14.0166-6.2754 14.0166-14.0166 0-7.74115-6.2754-14.0166-14.0166-14.0166-7.74114 0-14.01659 6.27545-14.01659 14.0166 0 7.7412 6.27545 14.0166 14.01659 14.0166zm0-10.7048c1.8291 0 3.3119-1.4827 3.3119-3.3118s-1.4828-3.3118-3.3119-3.3118c-1.829 0-3.3118 1.4827-3.3118 3.3118s1.4828 3.3118 3.3118 3.3118z" fill="url(#f)"/><path d="m16.1881 30.0166c7.7412 0 14.0166-6.2754 14.0166-14.0166 0-7.74115-6.2754-14.0166-14.0166-14.0166-7.74114 0-14.01659 6.27545-14.01659 14.0166 0 7.7412 6.27545 14.0166 14.01659 14.0166zm0-10.7048c1.8291 0 3.3119-1.4827 3.3119-3.3118s-1.4828-3.3118-3.3119-3.3118c-1.829 0-3.3118 1.4827-3.3118 3.3118s1.4828 3.3118 3.3118 3.3118z" fill="url(#g)"/><path d="m16.1881 30.0166c7.7412 0 14.0166-6.2754 14.0166-14.0166 0-7.74115-6.2754-14.0166-14.0166-14.0166-7.74114 0-14.01659 6.27545-14.01659 14.0166 0 7.7412 6.27545 14.0166 14.01659 14.0166zm0-10.7048c1.8291 0 3.3119-1.4827 3.3119-3.3118s-1.4828-3.3118-3.3119-3.3118c-1.829 0-3.3118 1.4827-3.3118 3.3118s1.4828 3.3118 3.3118 3.3118z" fill="url(#h)"/></g><g filter="url(#a)"><path clip-rule="evenodd" d="m16.1881 29.1159c7.2437 0 13.1159-5.8722 13.1159-13.1159 0-7.24375-5.8722-13.11597-13.1159-13.11597-7.24374 0-13.11596 5.87222-13.11596 13.11597 0 7.2437 5.87222 13.1159 13.11596 13.1159zm3.7715-13.1159c0 1.8291-1.9424 3.9029-3.7715 3.9029s-3.9967-2.0738-3.9967-3.9029 2.1676-4.0155 3.9967-4.0155 3.7715 2.1864 3.7715 4.0155z" fill="url(#i)" fill-rule="evenodd"/></g><path clip-rule="evenodd" d="m16.1881 20.3392c2.3965 0 4.3392-1.9427 4.3392-4.3392 0-2.3964-1.9427-4.3391-4.3392-4.3391-2.3964 0-4.3391 1.9427-4.3391 4.3391 0 2.3965 1.9427 4.3392 4.3391 4.3392zm3.3119-4.3392c0 1.8291-1.4828 3.3119-3.3119 3.3119-1.829 0-3.3118-1.4828-3.3118-3.3119 0-1.829 1.4828-3.3118 3.3118-3.3118 1.8291 0 3.3119 1.4828 3.3119 3.3118z" fill="url(#j)" fill-rule="evenodd"/><g filter="url(#b)"><path d="m12.8942 13.1752c.7958-.9271 1.9763-1.5144 3.2939-1.5144 1.2125 0 2.3089.4974 3.0963 1.2992l5.7829-5.7829c.234-.234.2355-.6143-.0082-.83819-2.3351-2.14525-5.4501-3.45488-8.871-3.45488-3.6219 0-6.90085 1.46806-9.27437 3.84158-.07819.07819-.15539.15737-.2316.2375z" fill="url(#k)"/></g><g filter="url(#c)"><path d="m19.0129 19.2939c-.7591.6516-1.746 1.0453-2.8248 1.0453-1.1839 0-2.2571-.4741-3.04-1.2429l-5.78032 5.7804c-.23499.235-.23532.6173.01083.8405 2.32815 2.112 5.41859 3.3988 8.80949 3.3988 3.1691 0 6.0758-1.124 8.343-2.995.2385-.1969.4699-.402.6939-.615z" fill="url(#l)"/></g><g filter="url(#d)"><path d="m16.1881 20.3642c2.4103 0 4.3642-1.9539 4.3642-4.3642 0-2.4102-1.9539-4.3641-4.3642-4.3641-2.4102 0-4.3641 1.9539-4.3641 4.3641 0 2.4103 1.9539 4.3642 4.3641 4.3642z" stroke="#efa141" stroke-width=".05"/></g></svg>