<svg fill="none" height="32" viewBox="0 0 32 32" width="32" xmlns="http://www.w3.org/2000/svg" xmlns:xlink="http://www.w3.org/1999/xlink"><filter id="a" color-interpolation-filters="sRGB" filterUnits="userSpaceOnUse" height="14.044" width="14.044" x="16.533" y=".935"><feFlood flood-opacity="0" result="BackgroundImageFix"/><feBlend in="SourceGraphic" in2="BackgroundImageFix" mode="normal" result="shape"/><feColorMatrix in="SourceAlpha" result="hardAlpha" type="matrix" values="0 0 0 0 0 0 0 0 0 0 0 0 0 0 0 0 0 0 127 0"/><feOffset dx="1" dy="-1"/><feGaussianBlur stdDeviation="1"/><feComposite in2="hardAlpha" k2="-1" k3="1" operator="arithmetic"/><feColorMatrix type="matrix" values="0 0 0 0 0.764706 0 0 0 0 0.109804 0 0 0 0 0.301961 0 0 0 1 0"/><feBlend in2="shape" mode="normal" result="effect1_innerShadow_18_23113"/></filter><filter id="b" color-interpolation-filters="sRGB" filterUnits="userSpaceOnUse" height="16.308" width="16.308" x="5.835" y="9.369"><feFlood flood-opacity="0" result="BackgroundImageFix"/><feBlend in="SourceGraphic" in2="BackgroundImageFix" mode="normal" result="shape"/><feColorMatrix in="SourceAlpha" result="hardAlpha" type="matrix" values="0 0 0 0 0 0 0 0 0 0 0 0 0 0 0 0 0 0 127 0"/><feOffset dx="1" dy="-1"/><feGaussianBlur stdDeviation="1"/><feComposite in2="hardAlpha" k2="-1" k3="1" operator="arithmetic"/><feColorMatrix type="matrix" values="0 0 0 0 0.827451 0 0 0 0 0.133333 0 0 0 0 0.372549 0 0 0 1 0"/><feBlend in2="shape" mode="normal" result="effect1_innerShadow_18_23113"/></filter><filter id="c" color-interpolation-filters="sRGB" filterUnits="userSpaceOnUse" height="8.453" width="8.427" x="2.442" y="20.573"><feFlood flood-opacity="0" result="BackgroundImageFix"/><feBlend in="SourceGraphic" in2="BackgroundImageFix" mode="normal" result="shape"/><feGaussianBlur result="effect1_foregroundBlur_18_23113" stdDeviation=".25"/></filter><linearGradient id="d" gradientUnits="userSpaceOnUse" x1="14.784" x2="18.972" y1="9.579" y2="13.954"><stop offset="0" stop-color="#a7404e"/><stop offset="1" stop-color="#a7404e" stop-opacity="0"/></linearGradient><linearGradient id="e" gradientUnits="userSpaceOnUse" x1="22.378" x2="19.378" y1="17.298" y2="14.454"><stop offset="0" stop-color="#9c475f"/><stop offset="1" stop-color="#d32a60" stop-opacity="0"/></linearGradient><linearGradient id="f" gradientUnits="userSpaceOnUse" x1="22.503" x2="21.44" y1="11.236" y2="12.329"><stop offset=".208" stop-color="#a72249"/><stop offset="1" stop-color="#b14162" stop-opacity="0"/></linearGradient><linearGradient id="g" gradientUnits="userSpaceOnUse" x1="16.533" x2="28.222" y1="3.142" y2="14.329"><stop offset="0" stop-color="#e52c70"/><stop offset="1" stop-color="#fc3154"/></linearGradient><radialGradient id="h" cx="0" cy="0" gradientTransform="matrix(-.84374816 .81249607 -5.19323268 -5.39298668 25.5029 8.892)" gradientUnits="userSpaceOnUse" r="1"><stop offset="0" stop-color="#ff688c"/><stop offset="1" stop-color="#ff688c" stop-opacity="0"/></radialGradient><linearGradient id="i" gradientUnits="userSpaceOnUse" x1="5.509" x2="7.65" y1="24.023" y2="25.908"><stop offset="0" stop-color="#9d9798"/><stop offset=".867" stop-color="#9b8ea4"/></linearGradient><radialGradient id="j" cx="0" cy="0" gradientTransform="matrix(-6.57350859 6.72648818 -1.60417024 -1.56768682 11.1657 18.672)" gradientUnits="userSpaceOnUse" r="1"><stop offset="0" stop-color="#8c6e76"/><stop offset="1" stop-color="#8c6e76" stop-opacity="0"/></radialGradient><radialGradient id="k" cx="0" cy="0" gradientTransform="matrix(-6.98122282 6.98122282 -1.52873658 -1.52873658 12.6434 21.0161)" gradientUnits="userSpaceOnUse" r="1"><stop offset=".157" stop-color="#7c547b"/><stop offset="1" stop-color="#7c547b" stop-opacity="0"/></radialGradient><radialGradient id="l" cx="0" cy="0" gradientTransform="matrix(-3.71992933 12.01418076 -6.15335944 -1.90525369 6.98712 17.551)" gradientUnits="userSpaceOnUse" r="1"><stop offset=".899" stop-color="#826f91" stop-opacity="0"/><stop offset="1" stop-color="#826f91"/></radialGradient><linearGradient id="m" gradientUnits="userSpaceOnUse" x1="9.972" x2="20.597" y1="11.267" y2="23.954"><stop offset="0" stop-color="#e72f7b"/><stop offset="1" stop-color="#f63352"/></linearGradient><radialGradient id="n" cx="0" cy="0" gradientTransform="matrix(-1.87501504 2.12499205 -5.59313174 -4.93517429 16.2217 17.5795)" gradientUnits="userSpaceOnUse" r="1"><stop offset=".151" stop-color="#ff678c"/><stop offset="1" stop-color="#ff678c" stop-opacity="0"/></radialGradient><radialGradient id="o" cx="0" cy="0" gradientTransform="matrix(11.81248458 2.12499705 -3.2744193 18.20192059 9.78418 19.4545)" gradientUnits="userSpaceOnUse" r="1"><stop offset=".717" stop-color="#ff6773" stop-opacity="0"/><stop offset="1" stop-color="#ff6773"/></radialGradient><radialGradient id="p" cx="0" cy="0" gradientTransform="matrix(-9.47814244 -9.88578763 9.88578763 -9.47814244 16.8729 21.2709)" gradientUnits="userSpaceOnUse" r="1"><stop offset=".816" stop-color="#c95179" stop-opacity="0"/><stop offset="1" stop-color="#c95179"/></radialGradient><linearGradient id="q" gradientUnits="userSpaceOnUse" x1="3.267" x2="10.197" y1="28.405" y2="21.653"><stop offset="0" stop-color="#a9a1ac"/><stop offset="1" stop-color="#a9a1ac" stop-opacity="0"/></linearGradient><path d="m11.5342 12.6263 7.3516 7.3516 6.5234-6.5234-7.3516-7.35159z" fill="#d93965"/><path d="m11.5342 12.6263 7.3516 7.3516 6.5234-6.5234-7.3516-7.35159z" fill="url(#d)"/><path d="m11.5342 12.6263 7.3516 7.3516 6.5234-6.5234-7.3516-7.35159z" fill="url(#e)"/><path d="m11.5342 12.6263 7.3516 7.3516 6.5234-6.5234-7.3516-7.35159z" fill="url(#f)"/><g filter="url(#a)"><path d="m18.0204 2.37452c.5858-.58579 1.5355-.58579 2.1213 0l8.9958 8.99588c.5858.5858.5858 1.5355.0001 2.1213l-.6673.6673c-1.0935 1.0934-2.8663 1.0934-3.9598 0l-7.1574-7.15742c-1.0934-1.09347-1.0934-2.86633 0-3.9598z" fill="url(#g)"/><path d="m18.0204 2.37452c.5858-.58579 1.5355-.58579 2.1213 0l8.9958 8.99588c.5858.5858.5858 1.5355.0001 2.1213l-.6673.6673c-1.0935 1.0934-2.8663 1.0934-3.9598 0l-7.1574-7.15742c-1.0934-1.09347-1.0934-2.86633 0-3.9598z" fill="url(#h)"/></g><path d="m13.2959 16.3802c.507-.5069 1.3289-.5069 1.8359 0 .507.507.507 1.329 0 1.836l-10.96875 10.9687c-.50697.507-1.32894.507-1.83592 0-.50697-.507-.50697-1.3289 0-1.8359z" fill="url(#i)"/><path d="m13.2959 16.3802c.507-.5069 1.3289-.5069 1.8359 0 .507.507.507 1.329 0 1.836l-10.96875 10.9687c-.50697.507-1.32894.507-1.83592 0-.50697-.507-.50697-1.3289 0-1.8359z" fill="url(#j)"/><path d="m13.2959 16.3802c.507-.5069 1.3289-.5069 1.8359 0 .507.507.507 1.329 0 1.836l-10.96875 10.9687c-.50697.507-1.32894.507-1.83592 0-.50697-.507-.50697-1.3289 0-1.8359z" fill="url(#k)"/><path d="m13.2959 16.3802c.507-.5069 1.3289-.5069 1.8359 0 .507.507.507 1.329 0 1.836l-10.96875 10.9687c-.50697.507-1.32894.507-1.83592 0-.50697-.507-.50697-1.3289 0-1.8359z" fill="url(#l)"/><g filter="url(#b)"><path d="m6.31811 12.2174c-.64436.6444-.64436 1.6891 0 2.3335l10.64309 10.6431c.6444.6443 1.6891.6443 2.3335 0l.6767-.6767c1.5621-1.5621 1.5621-4.0948 0-5.6569l-7.3197-7.3197c-1.5621-1.56209-4.09477-1.56208-5.65687 0z" fill="url(#m)"/><path d="m6.31811 12.2174c-.64436.6444-.64436 1.6891 0 2.3335l10.64309 10.6431c.6444.6443 1.6891.6443 2.3335 0l.6767-.6767c1.5621-1.5621 1.5621-4.0948 0-5.6569l-7.3197-7.3197c-1.5621-1.56209-4.09477-1.56208-5.65687 0z" fill="url(#n)"/><path d="m6.31811 12.2174c-.64436.6444-.64436 1.6891 0 2.3335l10.64309 10.6431c.6444.6443 1.6891.6443 2.3335 0l.6767-.6767c1.5621-1.5621 1.5621-4.0948 0-5.6569l-7.3197-7.3197c-1.5621-1.56209-4.09477-1.56208-5.65687 0z" fill="url(#o)"/><path d="m6.31811 12.2174c-.64436.6444-.64436 1.6891 0 2.3335l10.64309 10.6431c.6444.6443 1.6891.6443 2.3335 0l.6767-.6767c1.5621-1.5621 1.5621-4.0948 0-5.6569l-7.3197-7.3197c-1.5621-1.56209-4.09477-1.56208-5.65687 0z" fill="url(#p)"/></g><g filter="url(#c)"><path d="m3.26721 28.2012 6.77739-6.8029" stroke="url(#q)" stroke-linecap="round" stroke-width=".65"/></g></svg>