<svg fill="none" height="32" viewBox="0 0 32 32" width="32" xmlns="http://www.w3.org/2000/svg" xmlns:xlink="http://www.w3.org/1999/xlink"><filter id="a" color-interpolation-filters="sRGB" filterUnits="userSpaceOnUse" height="28.147" width="22.684" x="4.658" y="1.877"><feFlood flood-opacity="0" result="BackgroundImageFix"/><feBlend in="SourceGraphic" in2="BackgroundImageFix" mode="normal" result="shape"/><feColorMatrix in="SourceAlpha" result="hardAlpha" type="matrix" values="0 0 0 0 0 0 0 0 0 0 0 0 0 0 0 0 0 0 127 0"/><feOffset dx="-.1"/><feGaussianBlur stdDeviation=".125"/><feComposite in2="hardAlpha" k2="-1" k3="1" operator="arithmetic"/><feColorMatrix type="matrix" values="0 0 0 0 0.996078 0 0 0 0 0.917647 0 0 0 0 0.592157 0 0 0 1 0"/><feBlend in2="shape" mode="normal" result="effect1_innerShadow_18_21056"/><feColorMatrix in="SourceAlpha" result="hardAlpha" type="matrix" values="0 0 0 0 0 0 0 0 0 0 0 0 0 0 0 0 0 0 127 0"/><feOffset dx=".1" dy="-.1"/><feGaussianBlur stdDeviation=".125"/><feComposite in2="hardAlpha" k2="-1" k3="1" operator="arithmetic"/><feColorMatrix type="matrix" values="0 0 0 0 0.866667 0 0 0 0 0.627451 0 0 0 0 0.498039 0 0 0 1 0"/><feBlend in2="effect1_innerShadow_18_21056" mode="normal" result="effect2_innerShadow_18_21056"/></filter><filter id="b" color-interpolation-filters="sRGB" filterUnits="userSpaceOnUse" height="3.402" width="5.144" x="2.297" y="1.977"><feFlood flood-opacity="0" result="BackgroundImageFix"/><feBlend in="SourceGraphic" in2="BackgroundImageFix" mode="normal" result="shape"/><feColorMatrix in="SourceAlpha" result="hardAlpha" type="matrix" values="0 0 0 0 0 0 0 0 0 0 0 0 0 0 0 0 0 0 127 0"/><feOffset dx=".05" dy=".05"/><feGaussianBlur stdDeviation=".05"/><feComposite in2="hardAlpha" k2="-1" k3="1" operator="arithmetic"/><feColorMatrix type="matrix" values="0 0 0 0 0.807843 0 0 0 0 0.494118 0 0 0 0 0.411765 0 0 0 1 0"/><feBlend in2="shape" mode="normal" result="effect1_innerShadow_18_21056"/></filter><filter id="c" color-interpolation-filters="sRGB" filterUnits="userSpaceOnUse" height="2.859" width="19.338" x="11.035" y="27.164"><feFlood flood-opacity="0" result="BackgroundImageFix"/><feBlend in="SourceGraphic" in2="BackgroundImageFix" mode="normal" result="shape"/><feColorMatrix in="SourceAlpha" result="hardAlpha" type="matrix" values="0 0 0 0 0 0 0 0 0 0 0 0 0 0 0 0 0 0 127 0"/><feOffset dx=".1"/><feGaussianBlur stdDeviation=".1"/><feComposite in2="hardAlpha" k2="-1" k3="1" operator="arithmetic"/><feColorMatrix type="matrix" values="0 0 0 0 0.72549 0 0 0 0 0.427451 0 0 0 0 0.203922 0 0 0 1 0"/><feBlend in2="shape" mode="normal" result="effect1_innerShadow_18_21056"/></filter><filter id="d" color-interpolation-filters="sRGB" filterUnits="userSpaceOnUse" height="1.112" width="14.006" x="10.2" y="12.063"><feFlood flood-opacity="0" result="BackgroundImageFix"/><feBlend in="SourceGraphic" in2="BackgroundImageFix" mode="normal" result="shape"/><feColorMatrix in="SourceAlpha" result="hardAlpha" type="matrix" values="0 0 0 0 0 0 0 0 0 0 0 0 0 0 0 0 0 0 127 0"/><feOffset dx=".05" dy="-.05"/><feGaussianBlur stdDeviation=".025"/><feComposite in2="hardAlpha" k2="-1" k3="1" operator="arithmetic"/><feColorMatrix type="matrix" values="0 0 0 0 0.721569 0 0 0 0 0.384314 0 0 0 0 0.262745 0 0 0 1 0"/><feBlend in2="shape" mode="normal" result="effect1_innerShadow_18_21056"/><feColorMatrix in="SourceAlpha" result="hardAlpha" type="matrix" values="0 0 0 0 0 0 0 0 0 0 0 0 0 0 0 0 0 0 127 0"/><feOffset dx="-.05" dy=".05"/><feGaussianBlur stdDeviation=".025"/><feComposite in2="hardAlpha" k2="-1" k3="1" operator="arithmetic"/><feColorMatrix type="matrix" values="0 0 0 0 0.972549 0 0 0 0 0.635294 0 0 0 0 0.380392 0 0 0 1 0"/><feBlend in2="effect1_innerShadow_18_21056" mode="normal" result="effect2_innerShadow_18_21056"/></filter><filter id="e" color-interpolation-filters="sRGB" filterUnits="userSpaceOnUse" height="1.112" width="14.006" x="10.2" y="15.056"><feFlood flood-opacity="0" result="BackgroundImageFix"/><feBlend in="SourceGraphic" in2="BackgroundImageFix" mode="normal" result="shape"/><feColorMatrix in="SourceAlpha" result="hardAlpha" type="matrix" values="0 0 0 0 0 0 0 0 0 0 0 0 0 0 0 0 0 0 127 0"/><feOffset dx=".05" dy="-.05"/><feGaussianBlur stdDeviation=".025"/><feComposite in2="hardAlpha" k2="-1" k3="1" operator="arithmetic"/><feColorMatrix type="matrix" values="0 0 0 0 0.721569 0 0 0 0 0.384314 0 0 0 0 0.262745 0 0 0 1 0"/><feBlend in2="shape" mode="normal" result="effect1_innerShadow_18_21056"/><feColorMatrix in="SourceAlpha" result="hardAlpha" type="matrix" values="0 0 0 0 0 0 0 0 0 0 0 0 0 0 0 0 0 0 127 0"/><feOffset dx="-.05" dy=".05"/><feGaussianBlur stdDeviation=".025"/><feComposite in2="hardAlpha" k2="-1" k3="1" operator="arithmetic"/><feColorMatrix type="matrix" values="0 0 0 0 0.972549 0 0 0 0 0.635294 0 0 0 0 0.380392 0 0 0 1 0"/><feBlend in2="effect1_innerShadow_18_21056" mode="normal" result="effect2_innerShadow_18_21056"/></filter><filter id="f" color-interpolation-filters="sRGB" filterUnits="userSpaceOnUse" height="1.112" width="14.006" x="10.2" y="18.048"><feFlood flood-opacity="0" result="BackgroundImageFix"/><feBlend in="SourceGraphic" in2="BackgroundImageFix" mode="normal" result="shape"/><feColorMatrix in="SourceAlpha" result="hardAlpha" type="matrix" values="0 0 0 0 0 0 0 0 0 0 0 0 0 0 0 0 0 0 127 0"/><feOffset dx=".05" dy="-.05"/><feGaussianBlur stdDeviation=".025"/><feComposite in2="hardAlpha" k2="-1" k3="1" operator="arithmetic"/><feColorMatrix type="matrix" values="0 0 0 0 0.721569 0 0 0 0 0.384314 0 0 0 0 0.262745 0 0 0 1 0"/><feBlend in2="shape" mode="normal" result="effect1_innerShadow_18_21056"/><feColorMatrix in="SourceAlpha" result="hardAlpha" type="matrix" values="0 0 0 0 0 0 0 0 0 0 0 0 0 0 0 0 0 0 127 0"/><feOffset dx="-.05" dy=".05"/><feGaussianBlur stdDeviation=".025"/><feComposite in2="hardAlpha" k2="-1" k3="1" operator="arithmetic"/><feColorMatrix type="matrix" values="0 0 0 0 0.972549 0 0 0 0 0.635294 0 0 0 0 0.380392 0 0 0 1 0"/><feBlend in2="effect1_innerShadow_18_21056" mode="normal" result="effect2_innerShadow_18_21056"/></filter><filter id="g" color-interpolation-filters="sRGB" filterUnits="userSpaceOnUse" height="1.112" width="9.108" x="10.2" y="21.04"><feFlood flood-opacity="0" result="BackgroundImageFix"/><feBlend in="SourceGraphic" in2="BackgroundImageFix" mode="normal" result="shape"/><feColorMatrix in="SourceAlpha" result="hardAlpha" type="matrix" values="0 0 0 0 0 0 0 0 0 0 0 0 0 0 0 0 0 0 127 0"/><feOffset dx=".05" dy="-.05"/><feGaussianBlur stdDeviation=".025"/><feComposite in2="hardAlpha" k2="-1" k3="1" operator="arithmetic"/><feColorMatrix type="matrix" values="0 0 0 0 0.721569 0 0 0 0 0.384314 0 0 0 0 0.262745 0 0 0 1 0"/><feBlend in2="shape" mode="normal" result="effect1_innerShadow_18_21056"/><feColorMatrix in="SourceAlpha" result="hardAlpha" type="matrix" values="0 0 0 0 0 0 0 0 0 0 0 0 0 0 0 0 0 0 127 0"/><feOffset dx="-.05" dy=".05"/><feGaussianBlur stdDeviation=".025"/><feComposite in2="hardAlpha" k2="-1" k3="1" operator="arithmetic"/><feColorMatrix type="matrix" values="0 0 0 0 0.972549 0 0 0 0 0.635294 0 0 0 0 0.380392 0 0 0 1 0"/><feBlend in2="effect1_innerShadow_18_21056" mode="normal" result="effect2_innerShadow_18_21056"/></filter><linearGradient id="h" gradientUnits="userSpaceOnUse" x1="8.997" x2="24.711" y1="16" y2="21.43"><stop offset="0" stop-color="#ffbf82"/><stop offset=".736" stop-color="#ffd8a3"/></linearGradient><linearGradient id="i" gradientUnits="userSpaceOnUse" x1="16" x2="16" y1="1.977" y2="8.68"><stop offset="0" stop-color="#ffd27c"/><stop offset="1" stop-color="#ffd27c" stop-opacity="0"/></linearGradient><linearGradient id="j" gradientUnits="userSpaceOnUse" x1="16" x2="16" y1="1.68" y2="3.43"><stop offset="0" stop-color="#f9b76c"/><stop offset="1" stop-color="#ffc573" stop-opacity="0"/></linearGradient><radialGradient id="k" cx="0" cy="0" gradientTransform="matrix(0 -3.12594 5.10625 0 11.7668 30.0234)" gradientUnits="userSpaceOnUse" r="1"><stop offset="0" stop-color="#ffda8d"/><stop offset="1" stop-color="#ffda8d" stop-opacity="0"/></radialGradient><radialGradient id="l" cx="0" cy="0" gradientTransform="matrix(0 -2.76952 20.9414 0 21.8731 27.8693)" gradientUnits="userSpaceOnUse" r="1"><stop offset="0" stop-color="#ffdd93"/><stop offset="1" stop-color="#ffdd93" stop-opacity="0"/></radialGradient><radialGradient id="m" cx="0" cy="0" gradientTransform="matrix(3.90625 0 0 5.93677 2.55469 5.32813)" gradientUnits="userSpaceOnUse" r="1"><stop offset="0" stop-color="#eb9160"/><stop offset="1" stop-color="#c36241"/></radialGradient><linearGradient id="n" gradientUnits="userSpaceOnUse" x1="20.654" x2="20.654" y1="27.164" y2="30.023"><stop offset="0" stop-color="#e58f4f"/><stop offset="1" stop-color="#ee9880"/></linearGradient><linearGradient id="o" gradientUnits="userSpaceOnUse" x1="18.461" x2="18.461" y1="30.023" y2="29.117"><stop offset="0" stop-color="#e07e98"/><stop offset="1" stop-color="#e07e98" stop-opacity="0"/></linearGradient><linearGradient id="p"><stop offset="0" stop-color="#d37e48"/><stop offset="1" stop-color="#de8650"/></linearGradient><linearGradient id="q" gradientUnits="userSpaceOnUse" x1="10.43" x2="22.961" xlink:href="#p" y1="12.898" y2="12.898"/><linearGradient id="r" gradientUnits="userSpaceOnUse" x1="10.43" x2="22.961" xlink:href="#p" y1="15.891" y2="15.891"/><linearGradient id="s" gradientUnits="userSpaceOnUse" x1="10.43" x2="22.961" xlink:href="#p" y1="18.883" y2="18.883"/><linearGradient id="t" gradientUnits="userSpaceOnUse" x1="10.366" x2="18.483" xlink:href="#p" y1="21.875" y2="21.875"/><g filter="url(#a)"><path d="m7.39062 27.0234c0 1.6569 1.34315 3 2.99998 3h16.8516v-25.04684c0-1.65685-1.3432-3-3-3h-19.39845-.08594v.00142c.02854-.00094.05719-.00142.08594-.00142 1.40659 0 2.54687 1.14028 2.54687 2.54688z" fill="url(#h)"/><path d="m7.39062 27.0234c0 1.6569 1.34315 3 2.99998 3h16.8516v-25.04684c0-1.65685-1.3432-3-3-3h-19.39845-.08594v.00142c.02854-.00094.05719-.00142.08594-.00142 1.40659 0 2.54687 1.14028 2.54687 2.54688z" fill="url(#i)"/><path d="m7.39062 27.0234c0 1.6569 1.34315 3 2.99998 3h16.8516v-25.04684c0-1.65685-1.3432-3-3-3h-19.39845-.08594v.00142c.02854-.00094.05719-.00142.08594-.00142 1.40659 0 2.54687 1.14028 2.54687 2.54688z" fill="url(#j)"/><path d="m7.39062 27.0234c0 1.6569 1.34315 3 2.99998 3h16.8516v-25.04684c0-1.65685-1.3432-3-3-3h-19.39845-.08594v.00142c.02854-.00094.05719-.00142.08594-.00142 1.40659 0 2.54687 1.14028 2.54687 2.54688z" fill="url(#k)"/><path d="m7.39062 27.0234c0 1.6569 1.34315 3 2.99998 3h16.8516v-25.04684c0-1.65685-1.3432-3-3-3h-19.39845-.08594v.00142c.02854-.00094.05719-.00142.08594-.00142 1.40659 0 2.54687 1.14028 2.54687 2.54688z" fill="url(#l)"/></g><g filter="url(#b)"><path d="m4.84375 1.97656c-1.40659 0-2.54687 1.14028-2.54687 2.54688v.70469c0 .05522.04477.09999.1.09999h4.99374v-.80468c0-1.4066-1.14028-2.54688-2.54687-2.54688z" fill="url(#m)"/></g><g filter="url(#c)"><path d="m14.2578 27.1641c-.138 0-.25.1119-.25.25v.0123l-.0039-.0006c-.0734 1.5915-1.359 2.5976-2.9687 2.5976h16.4822c1.5221 0 2.756-1.2339 2.756-2.756 0-.0571-.0462-.1033-.1033-.1033z" fill="url(#n)"/><path d="m14.2578 27.1641c-.138 0-.25.1119-.25.25v.0123l-.0039-.0006c-.0734 1.5915-1.359 2.5976-2.9687 2.5976h16.4822c1.5221 0 2.756-1.2339 2.756-2.756 0-.0571-.0462-.1033-.1033-.1033z" fill="url(#o)"/></g><g filter="url(#d)"><rect fill="url(#q)" height="1.012" rx=".506" width="13.906" x="10.25" y="12.113"/></g><g filter="url(#e)"><rect fill="url(#r)" height="1.012" rx=".506" width="13.906" x="10.25" y="15.105"/></g><g filter="url(#f)"><rect fill="url(#s)" height="1.012" rx=".506" width="13.906" x="10.25" y="18.098"/></g><g filter="url(#g)"><rect fill="url(#t)" height="1.012" rx=".506" width="9.008" x="10.25" y="21.09"/></g></svg>