<svg fill="none" height="32" viewBox="0 0 32 32" width="32" xmlns="http://www.w3.org/2000/svg" xmlns:xlink="http://www.w3.org/1999/xlink"><filter id="a" color-interpolation-filters="sRGB" filterUnits="userSpaceOnUse" height="11.537" width="27.813" x="2.094" y="18.403"><feFlood flood-opacity="0" result="BackgroundImageFix"/><feBlend in="SourceGraphic" in2="BackgroundImageFix" mode="normal" result="shape"/><feColorMatrix in="SourceAlpha" result="hardAlpha" type="matrix" values="0 0 0 0 0 0 0 0 0 0 0 0 0 0 0 0 0 0 127 0"/><feOffset dy="-.75"/><feGaussianBlur stdDeviation=".75"/><feComposite in2="hardAlpha" k2="-1" k3="1" operator="arithmetic"/><feColorMatrix type="matrix" values="0 0 0 0 0.819608 0 0 0 0 0.654902 0 0 0 0 0.933333 0 0 0 1 0"/><feBlend in2="shape" mode="normal" result="effect1_innerShadow_18_21855"/></filter><filter id="b" color-interpolation-filters="sRGB" filterUnits="userSpaceOnUse" height="11.188" width="27.813" x="2.094" y="9.853"><feFlood flood-opacity="0" result="BackgroundImageFix"/><feBlend in="SourceGraphic" in2="BackgroundImageFix" mode="normal" result="shape"/><feColorMatrix in="SourceAlpha" result="hardAlpha" type="matrix" values="0 0 0 0 0 0 0 0 0 0 0 0 0 0 0 0 0 0 127 0"/><feOffset dy="-.15"/><feGaussianBlur stdDeviation=".225"/><feComposite in2="hardAlpha" k2="-1" k3="1" operator="arithmetic"/><feColorMatrix type="matrix" values="0 0 0 0 0.827451 0 0 0 0 0.686275 0 0 0 0 0.913725 0 0 0 1 0"/><feBlend in2="shape" mode="normal" result="effect1_innerShadow_18_21855"/><feColorMatrix in="SourceAlpha" result="hardAlpha" type="matrix" values="0 0 0 0 0 0 0 0 0 0 0 0 0 0 0 0 0 0 127 0"/><feOffset dy=".25"/><feGaussianBlur stdDeviation=".3"/><feComposite in2="hardAlpha" k2="-1" k3="1" operator="arithmetic"/><feColorMatrix type="matrix" values="0 0 0 0 0.870588 0 0 0 0 0.858824 0 0 0 0 0.854902 0 0 0 1 0"/><feBlend in2="effect1_innerShadow_18_21855" mode="normal" result="effect2_innerShadow_18_21855"/></filter><filter id="c" color-interpolation-filters="sRGB" filterUnits="userSpaceOnUse" height="14.392" width="9.962" x="11.019" y="2.802"><feFlood flood-opacity="0" result="BackgroundImageFix"/><feBlend in="SourceGraphic" in2="BackgroundImageFix" mode="normal" result="shape"/><feColorMatrix in="SourceAlpha" result="hardAlpha" type="matrix" values="0 0 0 0 0 0 0 0 0 0 0 0 0 0 0 0 0 0 127 0"/><feOffset dx="-.2" dy=".2"/><feGaussianBlur stdDeviation=".2"/><feComposite in2="hardAlpha" k2="-1" k3="1" operator="arithmetic"/><feColorMatrix type="matrix" values="0 0 0 0 0.898039 0 0 0 0 0.333333 0 0 0 0 0.54902 0 0 0 1 0"/><feBlend in2="shape" mode="normal" result="effect1_innerShadow_18_21855"/><feColorMatrix in="SourceAlpha" result="hardAlpha" type="matrix" values="0 0 0 0 0 0 0 0 0 0 0 0 0 0 0 0 0 0 127 0"/><feOffset dx=".2" dy="-.2"/><feGaussianBlur stdDeviation=".2"/><feComposite in2="hardAlpha" k2="-1" k3="1" operator="arithmetic"/><feColorMatrix type="matrix" values="0 0 0 0 0.815686 0 0 0 0 0.105882 0 0 0 0 0.341176 0 0 0 1 0"/><feBlend in2="effect1_innerShadow_18_21855" mode="normal" result="effect2_innerShadow_18_21855"/></filter><linearGradient id="d" gradientUnits="userSpaceOnUse" x1="4.094" x2="29.906" y1="21.128" y2="20.94"><stop offset="0" stop-color="#dfd0e6"/><stop offset="1" stop-color="#eee5f8"/></linearGradient><linearGradient id="e" gradientUnits="userSpaceOnUse" x1="2.094" x2="5.132" y1="21.066" y2="21.066"><stop offset="0" stop-color="#d6babd"/><stop offset="1" stop-color="#dcc9dd" stop-opacity="0"/></linearGradient><linearGradient id="f" gradientUnits="userSpaceOnUse" x1="10.837" x2="10.075" y1="22.945" y2="21.758"><stop offset=".114" stop-color="#dac3df"/><stop offset="1" stop-color="#dac3df" stop-opacity="0"/></linearGradient><radialGradient id="g" cx="0" cy="0" gradientTransform="matrix(-1.51168294 2.26753021 -15.92503912 -10.61666564 12.1236 17.3521)" gradientUnits="userSpaceOnUse" r="1"><stop offset=".342" stop-color="#c8a6d7"/><stop offset="1" stop-color="#d1bbdd" stop-opacity="0"/></radialGradient><linearGradient id="h" gradientUnits="userSpaceOnUse" x1="21.094" x2="21.924" y1="23.253" y2="21.758"><stop offset=".114" stop-color="#f6effe"/><stop offset="1" stop-color="#f3eafd" stop-opacity="0"/></linearGradient><linearGradient id="i" gradientUnits="userSpaceOnUse" x1="20.156" x2="21.219" y1="17.909" y2="19.346"><stop offset="0" stop-color="#e3cdf7"/><stop offset="1" stop-color="#e9d9f8" stop-opacity="0"/></linearGradient><linearGradient id="j" gradientUnits="userSpaceOnUse" x1="30.094" x2="26.375" y1="23.534" y2="23.534"><stop offset="0" stop-color="#f7f3fb"/><stop offset="1" stop-color="#f0e9f8" stop-opacity="0"/></linearGradient><linearGradient id="k" gradientUnits="userSpaceOnUse" x1="30.094" x2="28.868" y1="23.534" y2="23.534"><stop offset=".199" stop-color="#ebe9ed"/><stop offset="1" stop-color="#ebe9ed" stop-opacity="0"/></linearGradient><linearGradient id="l" gradientUnits="userSpaceOnUse" x1="16" x2="16" y1="31.69" y2="20.878"><stop offset="0" stop-color="#ddc5f1"/><stop offset="1" stop-color="#e6daf1"/></linearGradient><linearGradient id="m" gradientUnits="userSpaceOnUse" x1="7.486" x2="7.942" y1="24.078" y2="24.762"><stop offset=".073" stop-color="#ddc2c8"/><stop offset="1" stop-color="#dfcdda" stop-opacity="0"/></linearGradient><linearGradient id="n" gradientUnits="userSpaceOnUse" x1="22.581" x2="22.294" y1="23.13" y2="23.577"><stop offset=".14" stop-color="#f8f3fd"/><stop offset="1" stop-color="#f1eaf9" stop-opacity="0"/></linearGradient><linearGradient id="o" gradientUnits="userSpaceOnUse" x1="16" x2="16" y1="10.003" y2="20.79"><stop offset="0" stop-color="#e9e4e9"/><stop offset="1" stop-color="#e7dcf0"/></linearGradient><linearGradient id="p" gradientUnits="userSpaceOnUse" x1="9.81" x2="13.424" y1="16.849" y2="10.364"><stop offset="0" stop-color="#e1d5e7"/><stop offset="1" stop-color="#e1d5e7" stop-opacity="0"/></linearGradient><linearGradient id="q" gradientUnits="userSpaceOnUse" x1="2.094" x2="5.026" y1="11.64" y2="11.64"><stop offset="0" stop-color="#e1c1bc"/><stop offset="1" stop-color="#e1c1bc" stop-opacity="0"/><stop offset="1" stop-color="#e9d1cd" stop-opacity="0"/></linearGradient><radialGradient id="r" cx="0" cy="0" gradientTransform="matrix(-4.57141929 -4.08258523 18.08995857 -20.25598508 27.4575 14.0853)" gradientUnits="userSpaceOnUse" r="1"><stop offset="0" stop-color="#fbf9fe"/><stop offset="1" stop-color="#f0ecf1" stop-opacity="0"/></radialGradient><linearGradient id="s" gradientUnits="userSpaceOnUse" x1="13.411" x2="18.612" y1="9.209" y2="9.209"><stop offset="0" stop-color="#e72744"/><stop offset="1" stop-color="#d02e7f"/></linearGradient><rect fill="url(#d)" height="19.938" rx="1.75" width="27.813" x="2.094" y="10.003"/><rect fill="url(#e)" height="19.938" rx="1.75" width="27.813" x="2.094" y="10.003"/><path d="m16 10.0027v19.9375h-12.15625c-.96649 0-1.75-.7835-1.75-1.75v-16.4375c0-.9665.78351-1.75 1.75-1.75z" fill="url(#f)"/><path d="m16 10.0027v19.9375h-12.15625c-.96649 0-1.75-.7835-1.75-1.75v-16.4375c0-.9665.78351-1.75 1.75-1.75z" fill="url(#g)"/><path d="m16 10.0027v19.9375h12.1562c.9665 0 1.75-.7835 1.75-1.75v-16.4375c0-.9665-.7835-1.75-1.75-1.75z" fill="url(#h)"/><path d="m16 10.0027v19.9375h12.1562c.9665 0 1.75-.7835 1.75-1.75v-16.4375c0-.9665-.7835-1.75-1.75-1.75z" fill="url(#i)"/><path d="m16 10.0027v19.9375h12.1562c.9665 0 1.75-.7835 1.75-1.75v-16.4375c0-.9665-.7835-1.75-1.75-1.75z" fill="url(#j)"/><path d="m16 10.0027v19.9375h12.1562c.9665 0 1.75-.7835 1.75-1.75v-16.4375c0-.9665-.7835-1.75-1.75-1.75z" fill="url(#k)"/><g filter="url(#a)"><path d="m2.09375 28.1902c0-.2625.1352-.5064.35776-.6455l13.32839-8.3312c.1298-.0811.2947-.0811.4244.0003l13.3728 8.3817c.2048.1283.3291.353.3291.5947 0 .9665-.7835 1.75-1.75 1.75h-24.31245c-.96649 0-1.75-.7835-1.75-1.75z" fill="url(#l)"/></g><path d="m2.09375 28.1902c0-.2625.1352-.5064.35776-.6455l13.32839-8.3312c.1298-.0811.2947-.0811.4244.0003l13.3728 8.3817c.2048.1283.3291.353.3291.5947 0 .9665-.7835 1.75-1.75 1.75h-24.31245c-.96649 0-1.75-.7835-1.75-1.75z" fill="url(#m)"/><path d="m2.09375 28.1902c0-.2625.1352-.5064.35776-.6455l13.32839-8.3312c.1298-.0811.2947-.0811.4244.0003l13.3728 8.3817c.2048.1283.3291.353.3291.5947 0 .9665-.7835 1.75-1.75 1.75h-24.31245c-.96649 0-1.75-.7835-1.75-1.75z" fill="url(#n)"/><g filter="url(#b)"><path d="m2.09375 11.7527c0 .2624.1352.5064.35776.6455l13.32839 8.3312c.1298.0811.2947.081.4244-.0003l13.3728-8.3817c.2048-.1284.3291-.353.3291-.5947 0-.9665-.7835-1.75-1.75-1.75h-24.31245c-.96649 0-1.75.7835-1.75 1.75z" fill="url(#o)"/><path d="m2.09375 11.7527c0 .2624.1352.5064.35776.6455l13.32839 8.3312c.1298.0811.2947.081.4244-.0003l13.3728-8.3817c.2048-.1284.3291-.353.3291-.5947 0-.9665-.7835-1.75-1.75-1.75h-24.31245c-.96649 0-1.75.7835-1.75 1.75z" fill="url(#p)"/><path d="m2.09375 11.7527c0 .2624.1352.5064.35776.6455l13.32839 8.3312c.1298.0811.2947.081.4244-.0003l13.3728-8.3817c.2048-.1284.3291-.353.3291-.5947 0-.9665-.7835-1.75-1.75-1.75h-24.31245c-.96649 0-1.75.7835-1.75 1.75z" fill="url(#q)"/><path d="m2.09375 11.7527c0 .2624.1352.5064.35776.6455l13.32839 8.3312c.1298.0811.2947.081.4244-.0003l13.3728-8.3817c.2048-.1284.3291-.353.3291-.5947 0-.9665-.7835-1.75-1.75-1.75h-24.31245c-.96649 0-1.75.7835-1.75 1.75z" fill="url(#r)"/></g><g filter="url(#c)"><path d="m13.8656 3.00244c-.359 0-.65.29102-.65.65v7.29086h-1.2453c-.6467 0-.9902.7637-.5612 1.2476l4.0359 4.551c.2987.3369.8248.3365 1.123-.0008l4.0236-4.5511c.428-.4841.0843-1.2467-.5619-1.2467h-1.2833v-7.29086c0-.35898-.291-.65-.65-.65z" fill="url(#s)"/></g></svg>