<svg fill="none" height="32" viewBox="0 0 32 32" width="32" xmlns="http://www.w3.org/2000/svg" xmlns:xlink="http://www.w3.org/1999/xlink"><filter id="a" color-interpolation-filters="sRGB" filterUnits="userSpaceOnUse" height="28.296" width="24.125" x="3.781" y="1.902"><feFlood flood-opacity="0" result="BackgroundImageFix"/><feBlend in="SourceGraphic" in2="BackgroundImageFix" mode="normal" result="shape"/><feColorMatrix in="SourceAlpha" result="hardAlpha" type="matrix" values="0 0 0 0 0 0 0 0 0 0 0 0 0 0 0 0 0 0 127 0"/><feOffset dy=".1"/><feGaussianBlur stdDeviation=".15"/><feComposite in2="hardAlpha" k2="-1" k3="1" operator="arithmetic"/><feColorMatrix type="matrix" values="0 0 0 0 0.843137 0 0 0 0 0.694118 0 0 0 0 0.52549 0 0 0 1 0"/><feBlend in2="shape" mode="normal" result="effect1_innerShadow_18_21935"/></filter><filter id="b" color-interpolation-filters="sRGB" filterUnits="userSpaceOnUse" height="21.373" width="12.969" x="3.781" y="9.716"><feFlood flood-opacity="0" result="BackgroundImageFix"/><feBlend in="SourceGraphic" in2="BackgroundImageFix" mode="normal" result="shape"/><feColorMatrix in="SourceAlpha" result="hardAlpha" type="matrix" values="0 0 0 0 0 0 0 0 0 0 0 0 0 0 0 0 0 0 127 0"/><feOffset dx="1" dy="1"/><feGaussianBlur stdDeviation="1.5"/><feComposite in2="hardAlpha" k2="-1" k3="1" operator="arithmetic"/><feColorMatrix type="matrix" values="0 0 0 0 0.831373 0 0 0 0 0.670588 0 0 0 0 0.545098 0 0 0 1 0"/><feBlend in2="shape" mode="normal" result="effect1_innerShadow_18_21935"/></filter><filter id="c" color-interpolation-filters="sRGB" filterUnits="userSpaceOnUse" height="4.975" width="3.92" x="10.681" y="22.534"><feFlood flood-opacity="0" result="BackgroundImageFix"/><feBlend in="SourceGraphic" in2="BackgroundImageFix" mode="normal" result="shape"/><feColorMatrix in="SourceAlpha" result="hardAlpha" type="matrix" values="0 0 0 0 0 0 0 0 0 0 0 0 0 0 0 0 0 0 127 0"/><feOffset dx="-.15"/><feGaussianBlur stdDeviation=".05"/><feComposite in2="hardAlpha" k2="-1" k3="1" operator="arithmetic"/><feColorMatrix type="matrix" values="0 0 0 0 0.760103 0 0 0 0 0.683293 0 0 0 0 0.795016 0 0 0 1 0"/><feBlend in2="shape" mode="normal" result="effect1_innerShadow_18_21935"/></filter><filter id="d" color-interpolation-filters="sRGB" filterUnits="userSpaceOnUse" height="12.816" width="15.272" x="8.15" y="4.541"><feFlood flood-opacity="0" result="BackgroundImageFix"/><feBlend in="SourceGraphic" in2="BackgroundImageFix" mode="normal" result="shape"/><feColorMatrix in="SourceAlpha" result="hardAlpha" type="matrix" values="0 0 0 0 0 0 0 0 0 0 0 0 0 0 0 0 0 0 127 0"/><feOffset dx="-.1"/><feGaussianBlur stdDeviation=".05"/><feComposite in2="hardAlpha" k2="-1" k3="1" operator="arithmetic"/><feColorMatrix type="matrix" values="0 0 0 0 0.47451 0 0 0 0 0.266667 0 0 0 0 0.301961 0 0 0 1 0"/><feBlend in2="shape" mode="normal" result="effect1_innerShadow_18_21935"/></filter><filter id="e" color-interpolation-filters="sRGB" filterUnits="userSpaceOnUse" height="7.984" width="12.2" x="11.133" y="6.24"><feFlood flood-opacity="0" result="BackgroundImageFix"/><feBlend in="SourceGraphic" in2="BackgroundImageFix" mode="normal" result="shape"/><feGaussianBlur result="effect1_foregroundBlur_18_21935" stdDeviation=".05"/></filter><filter id="f" color-interpolation-filters="sRGB" filterUnits="userSpaceOnUse" height="7.95" width="12.325" x="15.65" y="9.273"><feFlood flood-opacity="0" result="BackgroundImageFix"/><feBlend in="SourceGraphic" in2="BackgroundImageFix" mode="normal" result="shape"/><feGaussianBlur result="effect1_foregroundBlur_18_21935" stdDeviation=".125"/></filter><linearGradient id="g" gradientUnits="userSpaceOnUse" x1="15.844" x2="15.844" y1="1.902" y2="30.098"><stop offset="0" stop-color="#deb586"/><stop offset="1" stop-color="#d7aa82"/></linearGradient><linearGradient id="h" gradientUnits="userSpaceOnUse" x1="10.625" x2="11.078" y1="14.076" y2="13.357"><stop offset=".066" stop-color="#c99d78"/><stop offset="1" stop-color="#dcb185" stop-opacity="0"/></linearGradient><linearGradient id="i" gradientUnits="userSpaceOnUse" x1="5.376" x2="13.866" y1="15.169" y2="29.372"><stop offset="0" stop-color="#b98875"/><stop offset="1" stop-color="#aa684f"/></linearGradient><linearGradient id="j" gradientUnits="userSpaceOnUse" x1="16.594" x2="24.594" y1="16.748" y2="25.061"><stop offset="0" stop-color="#d7a585"/><stop offset="1" stop-color="#bd7943"/></linearGradient><linearGradient id="k" gradientUnits="userSpaceOnUse" x1="15.425" x2="16.583" y1="25.213" y2="25.149"><stop offset="0" stop-color="#b46c4b"/><stop offset="1" stop-color="#bd7e61" stop-opacity="0"/></linearGradient><linearGradient id="l" gradientUnits="userSpaceOnUse" x1="11.341" x2="13.961" y1="22.744" y2="27.793"><stop offset="0" stop-color="#cab6cd"/><stop offset="1" stop-color="#d1bed7"/></linearGradient><linearGradient id="m" gradientUnits="userSpaceOnUse" x1="8.813" x2="10.813" y1="15.857" y2="12.889"><stop offset=".649" stop-color="#8d6d6c"/><stop offset=".726" stop-color="#83554c"/><stop offset=".825" stop-color="#83554c"/><stop offset="1" stop-color="#976a58" stop-opacity="0"/></linearGradient><linearGradient id="n" gradientUnits="userSpaceOnUse" x1="22.656" x2="21.656" y1="5.779" y2="6.904"><stop offset="0" stop-color="#9c6f5d"/><stop offset="1" stop-color="#9c6f5d" stop-opacity="0"/></linearGradient><g filter="url(#a)"><path d="m3.78125 9.71092c0-.17149.08788-.33102.23284-.42264l11.56251-7.30894c.1632-.10315.3711-.10315.5343 0l11.5625 7.30894c.145.09162.2328.25115.2328.42264v12.75788c0 .1735-.0899.3346-.2375.4256l-11.5625 7.1293c-.1609.0992-.364.0992-.5249 0l-11.56247-7.1293c-.14766-.091-.23758-.2521-.23758-.4256z" fill="url(#g)"/><path d="m3.78125 9.71092c0-.17149.08788-.33102.23284-.42264l11.56251-7.30894c.1632-.10315.3711-.10315.5343 0l11.5625 7.30894c.145.09162.2328.25115.2328.42264v12.75788c0 .1735-.0899.3346-.2375.4256l-11.5625 7.1293c-.1609.0992-.364.0992-.5249 0l-11.56247-7.1293c-.14766-.091-.23758-.2521-.23758-.4256z" fill="url(#h)"/></g><g filter="url(#b)"><path d="m15.75 30.0892c-.0588-.0112-.116-.0331-.1687-.0656l-11.56247-7.1292c-.14766-.091-.23758-.2521-.23758-.4256v-12.75298l11.73265 7.29168c.1468.0912.2361.2518.2361.4247z" fill="url(#i)"/></g><path d="m27.8779 9.54504c.0185.05257.0283.10856.0283.16589v12.75797c0 .1734-.0899.3345-.2375.4256l-11.5625 7.1292c-.1082.0667-.2355.0885-.3562.0655v-12.7412c0-.1729.0893-.3334.2361-.4247l11.799-7.3329c.0301-.01868.0612-.03374.0928-.04536z" fill="url(#j)"/><path d="m27.8779 9.54504c.0185.05257.0283.10856.0283.16589v12.75797c0 .1734-.0899.3345-.2375.4256l-11.5625 7.1292c-.1082.0667-.2355.0885-.3562.0655v-12.7412c0-.1729.0893-.3334.2361-.4247l11.799-7.3329c.0301-.01868.0612-.03374.0928-.04536z" fill="url(#k)"/><g filter="url(#c)"><path d="m10.7812 22.8345c0-.2353.2586-.379.4584-.2547l3.1259 1.9433c.1468.0912.2361.2518.2361.4246v2.2605c0 .2353-.2586.379-.4584.2547l-3.1259-1.9433c-.1468-.0912-.2361-.2518-.2361-.4246z" fill="url(#l)"/></g><g filter="url(#d)"><path d="m8.25 12.8625v2.7448l2.9219 1.75v-2.5536c0-.3413.1724-.658.46-.842 3.9898-2.5521 11.1782-7.20954 11.3525-7.37785.1601-.11718.3724-.05989.4375.03125 0-.1875-.099-.29687-.1485-.32812l-2.7398-1.67238c-.1638-.1-.3705-.09739-.5317.00673l-11.2028 7.23297c-.34232.221-.5491.6007-.5491 1.0082z" fill="#966957"/><path d="m8.25 12.8625v2.7448l2.9219 1.75v-2.5536c0-.3413.1724-.658.46-.842 3.9898-2.5521 11.1782-7.20954 11.3525-7.37785.1601-.11718.3724-.05989.4375.03125 0-.1875-.099-.29687-.1485-.32812l-2.7398-1.67238c-.1638-.1-.3705-.09739-.5317.00673l-11.2028 7.23297c-.34232.221-.5491.6007-.5491 1.0082z" fill="url(#m)"/><path d="m8.25 12.8625v2.7448l2.9219 1.75v-2.5536c0-.3413.1724-.658.46-.842 3.9898-2.5521 11.1782-7.20954 11.3525-7.37785.1601-.11718.3724-.05989.4375.03125 0-.1875-.099-.29687-.1485-.32812l-2.7398-1.67238c-.1638-.1-.3705-.09739-.5317.00673l-11.2028 7.23297c-.34232.221-.5491.6007-.5491 1.0082z" fill="url(#n)"/></g><g filter="url(#e)"><path d="m23.2188 6.39641c-.0782-.05625-.1993-.02343-.25 0l-11.5469 7.53129c-.0287.0182-.1024.0804-.168.1836" stroke="#a47e73" stroke-width=".05"/></g><g filter="url(#f)"><path d="m16 16.8729 11.625-7.24998" stroke="#f4caa3" stroke-linecap="round" stroke-width=".2"/></g></svg>