<svg fill="none" height="32" viewBox="0 0 32 32" width="32" xmlns="http://www.w3.org/2000/svg" xmlns:xlink="http://www.w3.org/1999/xlink"><filter id="a" color-interpolation-filters="sRGB" filterUnits="userSpaceOnUse" height="8.623" width="1.084" x="21.288" y="9.411"><feFlood flood-opacity="0" result="BackgroundImageFix"/><feBlend in="SourceGraphic" in2="BackgroundImageFix" mode="normal" result="shape"/><feGaussianBlur result="effect1_foregroundBlur_18_25191" stdDeviation=".1"/></filter><filter id="b" color-interpolation-filters="sRGB" filterUnits="userSpaceOnUse" height="2.222" width="9.443" x="11.62" y="8.068"><feFlood flood-opacity="0" result="BackgroundImageFix"/><feBlend in="SourceGraphic" in2="BackgroundImageFix" mode="normal" result="shape"/><feGaussianBlur result="effect1_foregroundBlur_18_25191" stdDeviation=".1"/></filter><filter id="c" color-interpolation-filters="sRGB" filterUnits="userSpaceOnUse" height="5.818" width="4.606" x="16.23" y="9.004"><feFlood flood-opacity="0" result="BackgroundImageFix"/><feBlend in="SourceGraphic" in2="BackgroundImageFix" mode="normal" result="shape"/><feGaussianBlur result="effect1_foregroundBlur_18_25191" stdDeviation=".1"/></filter><filter id="d" color-interpolation-filters="sRGB" filterUnits="userSpaceOnUse" height="5.348" width="5.644" x="20.281" y="3.879"><feFlood flood-opacity="0" result="BackgroundImageFix"/><feBlend in="SourceGraphic" in2="BackgroundImageFix" mode="normal" result="shape"/><feColorMatrix in="SourceAlpha" result="hardAlpha" type="matrix" values="0 0 0 0 0 0 0 0 0 0 0 0 0 0 0 0 0 0 127 0"/><feOffset dx=".25" dy="-.25"/><feGaussianBlur stdDeviation=".2"/><feComposite in2="hardAlpha" k2="-1" k3="1" operator="arithmetic"/><feColorMatrix type="matrix" values="0 0 0 0 0.156863 0 0 0 0 0.317647 0 0 0 0 0.811765 0 0 0 1 0"/><feBlend in2="shape" mode="normal" result="effect1_innerShadow_18_25191"/></filter><filter id="e" color-interpolation-filters="sRGB" filterUnits="userSpaceOnUse" height="7.797" width="8.118" x="20.055" y="1.556"><feFlood flood-opacity="0" result="BackgroundImageFix"/><feBlend in="SourceGraphic" in2="BackgroundImageFix" mode="normal" result="shape"/><feColorMatrix in="SourceAlpha" result="hardAlpha" type="matrix" values="0 0 0 0 0 0 0 0 0 0 0 0 0 0 0 0 0 0 127 0"/><feOffset dx=".25" dy="-.25"/><feGaussianBlur stdDeviation=".2"/><feComposite in2="hardAlpha" k2="-1" k3="1" operator="arithmetic"/><feColorMatrix type="matrix" values="0 0 0 0 0.156863 0 0 0 0 0.317647 0 0 0 0 0.811765 0 0 0 1 0"/><feBlend in2="shape" mode="normal" result="effect1_innerShadow_18_25191"/></filter><filter id="f" color-interpolation-filters="sRGB" filterUnits="userSpaceOnUse" height="8.055" width="14.172" x="6.009" y="20.429"><feFlood flood-opacity="0" result="BackgroundImageFix"/><feBlend in="SourceGraphic" in2="BackgroundImageFix" mode="normal" result="shape"/><feColorMatrix in="SourceAlpha" result="hardAlpha" type="matrix" values="0 0 0 0 0 0 0 0 0 0 0 0 0 0 0 0 0 0 127 0"/><feOffset dx="1" dy=".5"/><feGaussianBlur stdDeviation=".5"/><feComposite in2="hardAlpha" k2="-1" k3="1" operator="arithmetic"/><feColorMatrix type="matrix" values="0 0 0 0 0.788235 0 0 0 0 0.756863 0 0 0 0 0.784314 0 0 0 1 0"/><feBlend in2="shape" mode="normal" result="effect1_innerShadow_18_25191"/><feColorMatrix in="SourceAlpha" result="hardAlpha" type="matrix" values="0 0 0 0 0 0 0 0 0 0 0 0 0 0 0 0 0 0 127 0"/><feOffset dx=".25"/><feGaussianBlur stdDeviation=".25"/><feComposite in2="hardAlpha" k2="-1" k3="1" operator="arithmetic"/><feColorMatrix type="matrix" values="0 0 0 0 0.756863 0 0 0 0 0.717647 0 0 0 0 0.733333 0 0 0 1 0"/><feBlend in2="effect1_innerShadow_18_25191" mode="normal" result="effect2_innerShadow_18_25191"/></filter><filter id="g" color-interpolation-filters="sRGB" filterUnits="userSpaceOnUse" height="1.2" width="14.675" x="5.125" y="27.821"><feFlood flood-opacity="0" result="BackgroundImageFix"/><feBlend in="SourceGraphic" in2="BackgroundImageFix" mode="normal" result="shape"/><feGaussianBlur result="effect1_foregroundBlur_18_25191" stdDeviation=".2"/></filter><radialGradient id="h" cx="0" cy="0" gradientTransform="matrix(-.20072659 -3.30790546 3.4634793 -.21016695 12.342 20.9055)" gradientUnits="userSpaceOnUse" r="1"><stop offset="0" stop-color="#c3bdc9"/><stop offset="1" stop-color="#b2a7bd"/></radialGradient><linearGradient id="i" gradientUnits="userSpaceOnUse" x1="9.224" x2="11.859" y1="20.556" y2="20.657"><stop offset="0" stop-color="#aca39f"/><stop offset="1" stop-color="#aca39f" stop-opacity="0"/></linearGradient><radialGradient id="j" cx="0" cy="0" gradientTransform="matrix(-9.28906153 .81252421 -.90374674 -10.33194947 17.9624 17.4524)" gradientUnits="userSpaceOnUse" r="1"><stop offset="0" stop-color="#d3c4e3"/><stop offset="1" stop-color="#c5b9bd"/></radialGradient><linearGradient id="k" gradientUnits="userSpaceOnUse" x1="18.095" x2="16.381" y1="14.972" y2="17.164"><stop offset="0" stop-color="#bbb4bb"/><stop offset="1" stop-color="#bbb4bb" stop-opacity="0"/></linearGradient><radialGradient id="l" cx="0" cy="0" gradientTransform="matrix(5.86047524 8.57145411 -9.19718 6.2882966 13.6698 13.2572)" gradientUnits="userSpaceOnUse" r="1"><stop offset=".672" stop-color="#c6b0dc" stop-opacity="0"/><stop offset="1" stop-color="#c6b0dc"/></radialGradient><linearGradient id="m" gradientUnits="userSpaceOnUse" x1="22.103" x2="21.275" y1="13.722" y2="13.722"><stop offset="0" stop-color="#b3b1b6"/><stop offset="1" stop-color="#827d87"/></linearGradient><linearGradient id="n" gradientUnits="userSpaceOnUse" x1="13.275" x2="20.369" y1="9.991" y2="8.734"><stop offset=".716" stop-color="#9e9d9d"/><stop offset=".943" stop-color="#79727c"/></linearGradient><linearGradient id="o"><stop offset="0" stop-color="#afafaf"/><stop offset="1" stop-color="#afafaf" stop-opacity="0"/></linearGradient><linearGradient id="p" gradientUnits="userSpaceOnUse" x1="12.494" x2="19.744" xlink:href="#o" y1="9.991" y2="8.593"/><linearGradient id="q" gradientUnits="userSpaceOnUse" x1="17.155" x2="21.288" y1="14.562" y2="14.322"><stop offset=".517" stop-color="#9e9d9d"/><stop offset=".943" stop-color="#79727c"/></linearGradient><linearGradient id="r" gradientUnits="userSpaceOnUse" x1="16.804" x2="20.18" xlink:href="#o" y1="14.562" y2="14.472"/><radialGradient id="s" cx="0" cy="0" gradientTransform="matrix(-2.28123704 1.78127204 -1.78127204 -2.28123704 22.3374 7.70239)" gradientUnits="userSpaceOnUse" r="1"><stop offset=".181" stop-color="#bdbcbf"/><stop offset="1" stop-color="#958f97"/></radialGradient><radialGradient id="t" cx="0" cy="0" gradientTransform="matrix(-.15624988 -1.56249693 2.53093677 -.25309398 21.2124 10.3899)" gradientUnits="userSpaceOnUse" r="1"><stop offset="0" stop-color="#9683a9"/><stop offset="1" stop-color="#9683a9" stop-opacity="0"/></radialGradient><radialGradient id="u" cx="0" cy="0" gradientTransform="matrix(2.15624678 -1.49999837 1.49999837 2.15624678 20.8062 8.70239)" gradientUnits="userSpaceOnUse" r="1"><stop offset=".736" stop-color="#b1b3c5" stop-opacity="0"/><stop offset="1" stop-color="#a0a2b7"/></radialGradient><radialGradient id="v" cx="0" cy="0" gradientTransform="matrix(-1.32812627 .67187438 -.67187438 -1.32812627 22.1812 7.76489)" gradientUnits="userSpaceOnUse" r="1"><stop offset="0" stop-color="#d7d5da"/><stop offset="1" stop-color="#aeabb0" stop-opacity="0"/></radialGradient><linearGradient id="w" gradientUnits="userSpaceOnUse" x1="18.923" x2="18.952" y1="8.21" y2="10.327"><stop offset="0" stop-color="#beb9c3"/><stop offset="1" stop-color="#beb9c3" stop-opacity="0"/></linearGradient><linearGradient id="x" gradientUnits="userSpaceOnUse" x1="20.716" x2="20.578" y1="11.649" y2="9.255"><stop offset=".341" stop-color="#a787c5"/><stop offset="1" stop-color="#a082bc" stop-opacity="0"/></linearGradient><radialGradient id="y" cx="0" cy="0" gradientTransform="matrix(-.0109489 .64414195 -7.0370635 -.11961356 20.7077 8.91462)" gradientUnits="userSpaceOnUse" r="1"><stop offset="0" stop-color="#d1ccd6"/><stop offset="1" stop-color="#d1ccd6" stop-opacity="0"/></radialGradient><linearGradient id="z" gradientUnits="userSpaceOnUse" x1="15.337" x2="14.056" y1="24.64" y2="26.359"><stop offset=".284" stop-color="#f2ecf8"/><stop offset="1" stop-color="#f2ecf8" stop-opacity="0"/></linearGradient><radialGradient id="A" cx="0" cy="0" gradientTransform="matrix(.93749941 -1.28124953 1.07374588 .78566751 8.55615 24.2961)" gradientUnits="userSpaceOnUse" r="1"><stop offset="0" stop-color="#c6bfcd"/><stop offset=".784" stop-color="#b5abbf"/></radialGradient><radialGradient id="B" cx="0" cy="0" gradientTransform="matrix(.30468757 -.33593755 .33593755 .30468757 8.68115 24.0461)" gradientUnits="userSpaceOnUse" r="1"><stop offset="0" stop-color="#d3cdd8"/><stop offset="1" stop-color="#d3cdd8" stop-opacity="0"/></radialGradient><linearGradient id="C" gradientUnits="userSpaceOnUse" x1="12.345" x2="12.345" y1="27.437" y2="29.655"><stop offset="0" stop-color="#bbb6bf"/><stop offset="1" stop-color="#b19ec3"/></linearGradient><linearGradient id="D" gradientUnits="userSpaceOnUse" x1="4.259" x2="5.9" y1="28.702" y2="28.702"><stop offset=".352" stop-color="#a698a4"/><stop offset="1" stop-color="#a698a4" stop-opacity="0"/></linearGradient><linearGradient id="E" gradientUnits="userSpaceOnUse" x1="14.306" x2="14.306" y1="29.734" y2="28.827"><stop offset=".138" stop-color="#a47bc4"/><stop offset="1" stop-color="#b19ec3" stop-opacity="0"/></linearGradient><radialGradient id="F" cx="0" cy="0" gradientTransform="matrix(1.15625223 -.50000046 .26663913 .6166036 20.1343 28.1711)" gradientUnits="userSpaceOnUse" r="1"><stop offset="0" stop-color="#d8d2de"/><stop offset="1" stop-color="#d8d2de" stop-opacity="0"/></radialGradient><linearGradient id="G" gradientUnits="userSpaceOnUse" x1="5.697" x2="19.947" y1="28.577" y2="28.577"><stop offset=".819" stop-color="#bdb4c6"/><stop offset="1" stop-color="#d8d2de"/></linearGradient><path d="m9.67236 18.7747h5.23141v4.12591h-5.23141z" fill="url(#h)" transform="matrix(.78272657 .62236574 -.62236574 .78272657 13.786277 -1.940502)"/><path d="m9.67236 18.7747h5.23141v4.12591h-5.23141z" fill="url(#i)" transform="matrix(.78272657 .62236574 -.62236574 .78272657 13.786277 -1.940502)"/><path d="m11.1748 9.64136 11.1443 8.86104c-1.2153 2.2937-3.627 3.8563-6.4036 3.8563-.7517 0-1.4767-.1146-2.1583-.3271l-4.09106-3.2529c-.63098-1.0745-.9928-2.3261-.9928-3.6622 0-2.1868.96912-4.1472 2.50146-5.47514z" fill="url(#j)"/><path d="m11.1748 9.64136 11.1443 8.86104c-1.2153 2.2937-3.627 3.8563-6.4036 3.8563-.7517 0-1.4767-.1146-2.1583-.3271l-4.09106-3.2529c-.63098-1.0745-.9928-2.3261-.9928-3.6622 0-2.1868.96912-4.1472 2.50146-5.47514z" fill="url(#k)"/><path d="m11.1748 9.64136 11.1443 8.86104c-1.2153 2.2937-3.627 3.8563-6.4036 3.8563-.7517 0-1.4767-.1146-2.1583-.3271l-4.09106-3.2529c-.63098-1.0745-.9928-2.3261-.9928-3.6622 0-2.1868.96912-4.1472 2.50146-5.47514z" fill="url(#l)"/><path d="m21.4624 9.61646.4844 8.21094" stroke="url(#m)" stroke-width=".75"/><g filter="url(#a)"><path d="m21.5874 9.61646.4844 8.21094" stroke="#b2afb6" stroke-width=".2"/></g><path d="m11.8374 9.99146 9.0078-1.625" stroke="url(#n)" stroke-width=".75"/><g filter="url(#b)"><path d="m11.8374 9.99146 9.0078-1.625" stroke="url(#p)" stroke-width=".2"/></g><path d="m20.5562 9.26489-4.0469 5.29691" stroke="url(#q)" stroke-width=".75"/><g filter="url(#c)"><path d="m20.5562 9.26489-4.0469 5.29691" stroke="url(#r)" stroke-width=".2"/></g><g filter="url(#d)"><path d="m20.6812 4.72582c2.8437-.86719 5.1875 1.25001 4.4609 4.10157" stroke="#4386ff" stroke-linecap="round" stroke-width=".8"/></g><g filter="url(#e)"><path d="m20.4546 2.53052c4.1641-1.35156 7.9219 1.65625 6.8984 6.42188" stroke="#4386ff" stroke-linecap="round" stroke-width=".8"/></g><circle cx="21.392" cy="8.241" fill="url(#s)" r="1.766"/><circle cx="21.392" cy="8.241" fill="url(#t)" r="1.766"/><circle cx="21.392" cy="8.241" fill="url(#u)" r="1.766"/><circle cx="21.392" cy="8.241" fill="url(#v)" r="1.766"/><g transform="matrix(.78671851 .6173119 -.6173119 .78671851 7.518156 -4.812697)"><rect fill="#a5a0a0" height="1.853" rx=".927" width="16.456" x="10.724" y="8.474"/><rect fill="url(#w)" height="1.853" rx=".927" width="16.456" x="10.724" y="8.474"/><rect fill="url(#x)" height="1.853" rx=".927" width="16.456" x="10.724" y="8.474"/><rect fill="url(#y)" height="1.853" rx=".927" width="16.456" x="10.724" y="8.474"/></g><g filter="url(#f)"><path d="m6.00928 22.9336v5.05h13.17192l-9.1483-7.0321c-1.6442-1.2639-4.02362-.0917-4.02362 1.9821z" fill="#e2daea"/><path d="m6.00928 22.9336v5.05h13.17192l-9.1483-7.0321c-1.6442-1.2639-4.02362-.0917-4.02362 1.9821z" fill="url(#z)"/></g><circle cx="8.939" cy="23.78" fill="url(#A)" r=".93"/><circle cx="8.939" cy="23.78" fill="url(#B)" r=".93"/><rect fill="url(#C)" height="2.219" rx="1.109" width="16.172" x="4.259" y="27.437"/><rect fill="url(#D)" height="2.219" rx="1.109" width="16.172" x="4.259" y="27.437"/><rect fill="url(#E)" height="2.219" rx="1.109" width="16.172" x="4.259" y="27.437"/><rect fill="url(#F)" height="2.219" rx="1.109" width="16.172" x="4.259" y="27.437"/><g filter="url(#g)"><path d="m5.5249 28.4211h13.875" stroke="url(#G)" stroke-width=".4"/></g></svg>