<svg fill="none" height="32" viewBox="0 0 32 32" width="32" xmlns="http://www.w3.org/2000/svg" xmlns:xlink="http://www.w3.org/1999/xlink"><filter id="a" color-interpolation-filters="sRGB" filterUnits="userSpaceOnUse" height="1.467" width="5.945" x="1.498" y="15.931"><feFlood flood-opacity="0" result="BackgroundImageFix"/><feBlend in="SourceGraphic" in2="BackgroundImageFix" mode="normal" result="shape"/><feColorMatrix in="SourceAlpha" result="hardAlpha" type="matrix" values="0 0 0 0 0 0 0 0 0 0 0 0 0 0 0 0 0 0 127 0"/><feOffset dy="-.1"/><feGaussianBlur stdDeviation=".175"/><feComposite in2="hardAlpha" k2="-1" k3="1" operator="arithmetic"/><feColorMatrix type="matrix" values="0 0 0 0 0.411765 0 0 0 0 0.647059 0 0 0 0 0.976471 0 0 0 1 0"/><feBlend in2="shape" mode="normal" result="effect1_innerShadow_18_21816"/></filter><filter id="b" color-interpolation-filters="sRGB" filterUnits="userSpaceOnUse" height="1.467" width="3.977" x="1.498" y="23.939"><feFlood flood-opacity="0" result="BackgroundImageFix"/><feBlend in="SourceGraphic" in2="BackgroundImageFix" mode="normal" result="shape"/><feColorMatrix in="SourceAlpha" result="hardAlpha" type="matrix" values="0 0 0 0 0 0 0 0 0 0 0 0 0 0 0 0 0 0 127 0"/><feOffset dy="-.1"/><feGaussianBlur stdDeviation=".175"/><feComposite in2="hardAlpha" k2="-1" k3="1" operator="arithmetic"/><feColorMatrix type="matrix" values="0 0 0 0 0.411765 0 0 0 0 0.647059 0 0 0 0 0.976471 0 0 0 1 0"/><feBlend in2="shape" mode="normal" result="effect1_innerShadow_18_21816"/></filter><filter id="c" color-interpolation-filters="sRGB" filterUnits="userSpaceOnUse" height="1.467" width="5.016" x="1.498" y="19.923"><feFlood flood-opacity="0" result="BackgroundImageFix"/><feBlend in="SourceGraphic" in2="BackgroundImageFix" mode="normal" result="shape"/><feColorMatrix in="SourceAlpha" result="hardAlpha" type="matrix" values="0 0 0 0 0 0 0 0 0 0 0 0 0 0 0 0 0 0 127 0"/><feOffset dy="-.1"/><feGaussianBlur stdDeviation=".175"/><feComposite in2="hardAlpha" k2="-1" k3="1" operator="arithmetic"/><feColorMatrix type="matrix" values="0 0 0 0 0.411765 0 0 0 0 0.647059 0 0 0 0 0.976471 0 0 0 1 0"/><feBlend in2="shape" mode="normal" result="effect1_innerShadow_18_21816"/></filter><filter id="d" color-interpolation-filters="sRGB" filterUnits="userSpaceOnUse" height="8.413" width="20.981" x="8.403" y="14.81"><feFlood flood-opacity="0" result="BackgroundImageFix"/><feBlend in="SourceGraphic" in2="BackgroundImageFix" mode="normal" result="shape"/><feColorMatrix in="SourceAlpha" result="hardAlpha" type="matrix" values="0 0 0 0 0 0 0 0 0 0 0 0 0 0 0 0 0 0 127 0"/><feOffset dy=".2"/><feGaussianBlur stdDeviation=".25"/><feComposite in2="hardAlpha" k2="-1" k3="1" operator="arithmetic"/><feColorMatrix type="matrix" values="0 0 0 0 0.87451 0 0 0 0 0.858824 0 0 0 0 0.854902 0 0 0 1 0"/><feBlend in2="shape" mode="normal" result="effect1_innerShadow_18_21816"/><feColorMatrix in="SourceAlpha" result="hardAlpha" type="matrix" values="0 0 0 0 0 0 0 0 0 0 0 0 0 0 0 0 0 0 127 0"/><feOffset dy="-.1"/><feGaussianBlur stdDeviation=".2"/><feComposite in2="hardAlpha" k2="-1" k3="1" operator="arithmetic"/><feColorMatrix type="matrix" values="0 0 0 0 0.85098 0 0 0 0 0.737255 0 0 0 0 0.929412 0 0 0 1 0"/><feBlend in2="effect1_innerShadow_18_21816" mode="normal" result="effect2_innerShadow_18_21816"/></filter><linearGradient id="e" gradientUnits="userSpaceOnUse" x1="13.623" x2="13.295" y1="24.469" y2="23.813"><stop offset=".2" stop-color="#dac7de"/><stop offset="1" stop-color="#dac7de" stop-opacity="0"/></linearGradient><linearGradient id="f" gradientUnits="userSpaceOnUse" x1="7.514" x2="10.326" y1="21.406" y2="21.875"><stop offset=".065" stop-color="#ceb9c1"/><stop offset="1" stop-color="#dbcae1" stop-opacity="0"/></linearGradient><linearGradient id="g" gradientUnits="userSpaceOnUse" x1="15.139" x2="13.67" y1="20.719" y2="22.531"><stop offset=".229" stop-color="#caa9dd"/><stop offset="1" stop-color="#d5bfe2" stop-opacity="0"/></linearGradient><linearGradient id="h" gradientUnits="userSpaceOnUse" x1="27.889" x2="25.451" y1="23.656" y2="23.219"><stop offset=".142" stop-color="#f2edf9"/><stop offset="1" stop-color="#ede3f8"/></linearGradient><linearGradient id="i" gradientUnits="userSpaceOnUse" x1="23.242" x2="24.358" y1="26.281" y2="24.781"><stop offset="0" stop-color="#f6edff"/><stop offset="1" stop-color="#f6edff" stop-opacity="0"/></linearGradient><linearGradient id="j" gradientUnits="userSpaceOnUse" x1="20.045" x2="21.17" y1="21.469" y2="23.094"><stop offset=".078" stop-color="#e3d0f4"/><stop offset="1" stop-color="#ebddf9" stop-opacity="0"/></linearGradient><linearGradient id="k" gradientUnits="userSpaceOnUse" x1="16.785" x2="16.785" y1="21.826" y2="29.688"><stop offset="0" stop-color="#e6d9f2"/><stop offset="1" stop-color="#e1cef3"/></linearGradient><linearGradient id="l" gradientUnits="userSpaceOnUse" x1="16.785" x2="16.785" y1="27.281" y2="29.939"><stop offset="0" stop-color="#dac1f0" stop-opacity="0"/><stop offset="1" stop-color="#cca3ea"/></linearGradient><linearGradient id="m" gradientUnits="userSpaceOnUse" x1="21.858" x2="21.365" y1="24.156" y2="24.859"><stop offset=".312" stop-color="#f6f1fb"/><stop offset="1" stop-color="#e5d6f4" stop-opacity="0"/></linearGradient><linearGradient id="n" gradientUnits="userSpaceOnUse" x1="12.562" x2="12.743" y1="24.842" y2="25.159"><stop offset="0" stop-color="#dcc9d5"/><stop offset="1" stop-color="#e6d7f4" stop-opacity="0"/></linearGradient><radialGradient id="o" cx="0" cy="0" gradientTransform="matrix(1.25612503 .98453139 -.69436859 .88591768 16.6816 22.0919)" gradientUnits="userSpaceOnUse" r="1"><stop offset="0" stop-color="#d8c2e7"/><stop offset="1" stop-color="#d8c2e7" stop-opacity="0"/></radialGradient><linearGradient id="p"><stop offset="0" stop-color="#72faff"/><stop offset="1" stop-color="#50cbff"/></linearGradient><radialGradient id="q" cx="0" cy="0" gradientTransform="matrix(5.20313 0 0 .958471 2.01385 16.375)" gradientUnits="userSpaceOnUse" r="1" xlink:href="#p"/><linearGradient id="r"><stop offset=".17" stop-color="#6ce5ff"/><stop offset="1" stop-color="#6ce5ff" stop-opacity="0"/></linearGradient><radialGradient id="s" cx="0" cy="0" gradientTransform="matrix(-.734375 0 0 -.609375 7.34198 16.4687)" gradientUnits="userSpaceOnUse" r="1" xlink:href="#r"/><linearGradient id="t"><stop offset="0" stop-color="#84ccc1"/><stop offset="1" stop-color="#84ccc1" stop-opacity="0"/></linearGradient><radialGradient id="u" cx="0" cy="0" gradientTransform="matrix(.765625 .4531249 -.54209561 .91595484 1.49823 16.1094)" gradientUnits="userSpaceOnUse" r="1" xlink:href="#t"/><radialGradient id="v" cx="0" cy="0" gradientTransform="matrix(3.48015 0 0 .958471 1.84311 24.3828)" gradientUnits="userSpaceOnUse" r="1" xlink:href="#p"/><radialGradient id="w" cx="0" cy="0" gradientTransform="matrix(-.491191 0 0 -.609375 5.40686 24.4766)" gradientUnits="userSpaceOnUse" r="1" xlink:href="#r"/><radialGradient id="x" cx="0" cy="0" gradientTransform="matrix(.51209305 .4531254 -.61379296 .69366915 1.49823 24.1172)" gradientUnits="userSpaceOnUse" r="1" xlink:href="#t"/><radialGradient id="y" cx="0" cy="0" gradientTransform="matrix(4.3895 0 0 .958471 1.93323 20.3672)" gradientUnits="userSpaceOnUse" r="1" xlink:href="#p"/><radialGradient id="z" cx="0" cy="0" gradientTransform="matrix(-.619538 0 0 -.609375 6.42817 20.4609)" gradientUnits="userSpaceOnUse" r="1" xlink:href="#r"/><radialGradient id="A" cx="0" cy="0" gradientTransform="matrix(.64590218 .4531246 -.58147413 .8288568 1.49823 20.1016)" gradientUnits="userSpaceOnUse" r="1" xlink:href="#t"/><linearGradient id="B" gradientUnits="userSpaceOnUse" x1="9.139" x2="28.514" y1="17" y2="17"><stop offset="0" stop-color="#e5dae4"/><stop offset="1" stop-color="#eee7f3"/></linearGradient><linearGradient id="C" gradientUnits="userSpaceOnUse" x1="14.17" x2="15.67" y1="20.563" y2="18.375"><stop offset="0" stop-color="#decee7"/><stop offset="1" stop-color="#e9e0ea" stop-opacity="0"/></linearGradient><linearGradient id="D" gradientUnits="userSpaceOnUse" x1="8.403" x2="11.139" y1="15.75" y2="16.656"><stop offset="0" stop-color="#d6c0be"/><stop offset="1" stop-color="#e1d0d7" stop-opacity="0"/></linearGradient><radialGradient id="E" cx="0" cy="0" gradientTransform="matrix(-11.06248654 6.30481407 -2.40385087 -4.21781952 28.8889 16.7187)" gradientUnits="userSpaceOnUse" r="1"><stop offset="0" stop-color="#fbf9fe"/><stop offset="1" stop-color="#e9e3eb" stop-opacity="0"/></radialGradient><path d="m8.41866 16.2941 10.28884.8639-1.9749 10.9316-10.42191.4807z" fill="#dfd0e6"/><path d="m8.41866 16.2941 10.28884.8639-1.9749 10.9316-10.42191.4807z" fill="url(#e)"/><path d="m8.41866 16.2941 10.28884.8639-1.9749 10.9316-10.42191.4807z" fill="url(#f)"/><path d="m8.41866 16.2941 10.28884.8639-1.9749 10.9316-10.42191.4807z" fill="url(#g)"/><path d="m27.2873 28.5782-10.3274-1.0036 1.9749-10.9316 10.4219-.4807z" fill="url(#h)"/><path d="m27.2873 28.5782-10.3274-1.0036 1.9749-10.9316 10.4219-.4807z" fill="url(#i)"/><path d="m27.2873 28.5782-10.3274-1.0036 1.9749-10.9316 10.4219-.4807z" fill="url(#j)"/><path d="m27.2442 28.7722.0526-.2311c.0362-.1588-.0277-.3238-.1614-.4169l-8.9374-6.2265c-.126-.0877-.291-.0957-.4248-.0204l-11.21045 6.3072c-.13332.075-.22497.2069-.24875.358l-.03801.2415c-.0955.6068.37357 1.1554.98785 1.1554h18.51776c.7002 0 1.3073-.4844 1.4626-1.1672z" fill="#e6d8f1"/><path d="m27.2442 28.7722.0526-.2311c.0362-.1588-.0277-.3238-.1614-.4169l-8.9374-6.2265c-.126-.0877-.291-.0957-.4248-.0204l-11.21045 6.3072c-.13332.075-.22497.2069-.24875.358l-.03801.2415c-.0955.6068.37357 1.1554.98785 1.1554h18.51776c.7002 0 1.3073-.4844 1.4626-1.1672z" fill="url(#k)"/><path d="m27.2442 28.7722.0526-.2311c.0362-.1588-.0277-.3238-.1614-.4169l-8.9374-6.2265c-.126-.0877-.291-.0957-.4248-.0204l-11.21045 6.3072c-.13332.075-.22497.2069-.24875.358l-.03801.2415c-.0955.6068.37357 1.1554.98785 1.1554h18.51776c.7002 0 1.3073-.4844 1.4626-1.1672z" fill="url(#l)"/><path d="m27.2442 28.7722.0526-.2311c.0362-.1588-.0277-.3238-.1614-.4169l-8.9374-6.2265c-.126-.0877-.291-.0957-.4248-.0204l-11.21045 6.3072c-.13332.075-.22497.2069-.24875.358l-.03801.2415c-.0955.6068.37357 1.1554.98785 1.1554h18.51776c.7002 0 1.3073-.4844 1.4626-1.1672z" fill="url(#m)"/><path d="m27.2442 28.7722.0526-.2311c.0362-.1588-.0277-.3238-.1614-.4169l-8.9374-6.2265c-.126-.0877-.291-.0957-.4248-.0204l-11.21045 6.3072c-.13332.075-.22497.2069-.24875.358l-.03801.2415c-.0955.6068.37357 1.1554.98785 1.1554h18.51776c.7002 0 1.3073-.4844 1.4626-1.1672z" fill="url(#n)"/><path d="m27.2442 28.7722.0526-.2311c.0362-.1588-.0277-.3238-.1614-.4169l-8.9374-6.2265c-.126-.0877-.291-.0957-.4248-.0204l-11.21045 6.3072c-.13332.075-.22497.2069-.24875.358l-.03801.2415c-.0955.6068.37357 1.1554.98785 1.1554h18.51776c.7002 0 1.3073-.4844 1.4626-1.1672z" fill="url(#o)"/><g filter="url(#a)"><path d="m1.49823 16.7148c0-.3775.30606-.6836.68359-.6836h4.57813c.37754 0 .68359.3061.68359.6836 0 .3776-.30605.6836-.68359.6836h-4.57813c-.37753 0-.68359-.306-.68359-.6836z" fill="url(#q)"/><path d="m1.49823 16.7148c0-.3775.30606-.6836.68359-.6836h4.57813c.37754 0 .68359.3061.68359.6836 0 .3776-.30605.6836-.68359.6836h-4.57813c-.37753 0-.68359-.306-.68359-.6836z" fill="url(#s)"/><path d="m1.49823 16.7148c0-.3775.30606-.6836.68359-.6836h4.57813c.37754 0 .68359.3061.68359.6836 0 .3776-.30605.6836-.68359.6836h-4.57813c-.37753 0-.68359-.306-.68359-.6836z" fill="url(#u)"/></g><g filter="url(#b)"><path d="m1.49823 24.7227c0-.3776.30606-.6836.68359-.6836h2.60938c.37754 0 .68359.306.68359.6836 0 .3775-.30605.6835-.68359.6835h-2.60938c-.37753 0-.68359-.306-.68359-.6835z" fill="url(#v)"/><path d="m1.49823 24.7227c0-.3776.30606-.6836.68359-.6836h2.60938c.37754 0 .68359.306.68359.6836 0 .3775-.30605.6835-.68359.6835h-2.60938c-.37753 0-.68359-.306-.68359-.6835z" fill="url(#w)"/><path d="m1.49823 24.7227c0-.3776.30606-.6836.68359-.6836h2.60938c.37754 0 .68359.306.68359.6836 0 .3775-.30605.6835-.68359.6835h-2.60938c-.37753 0-.68359-.306-.68359-.6835z" fill="url(#x)"/></g><g filter="url(#c)"><path d="m1.49823 20.707c0-.3775.30606-.6836.68359-.6836h3.64844c.37754 0 .68359.3061.68359.6836 0 .3776-.30605.6836-.68359.6836h-3.64844c-.37753 0-.68359-.306-.68359-.6836z" fill="url(#y)"/><path d="m1.49823 20.707c0-.3775.30606-.6836.68359-.6836h3.64844c.37754 0 .68359.3061.68359.6836 0 .3776-.30605.6836-.68359.6836h-3.64844c-.37753 0-.68359-.306-.68359-.6836z" fill="url(#z)"/><path d="m1.49823 20.707c0-.3775.30606-.6836.68359-.6836h3.64844c.37754 0 .68359.3061.68359.6836 0 .3776-.30605.6836-.68359.6836h-3.64844c-.37753 0-.68359-.306-.68359-.6836z" fill="url(#A)"/></g><g filter="url(#d)"><path d="m8.46569 16.0775-.05257.2311c-.03614.1588.02769.3238.16139.4169l8.93709 6.2262c.1261.0879.2915.0957.4254.0201l11.1724-6.3114c.1002-.0566.1711-.1535.1947-.2661l.0585-.2785c.1305-.6214-.3437-1.2055-.9786-1.2055h-18.45569c-.70022 0-1.30729.4844-1.46262 1.1672z" fill="url(#B)"/><path d="m8.46569 16.0775-.05257.2311c-.03614.1588.02769.3238.16139.4169l8.93709 6.2262c.1261.0879.2915.0957.4254.0201l11.1724-6.3114c.1002-.0566.1711-.1535.1947-.2661l.0585-.2785c.1305-.6214-.3437-1.2055-.9786-1.2055h-18.45569c-.70022 0-1.30729.4844-1.46262 1.1672z" fill="url(#C)"/><path d="m8.46569 16.0775-.05257.2311c-.03614.1588.02769.3238.16139.4169l8.93709 6.2262c.1261.0879.2915.0957.4254.0201l11.1724-6.3114c.1002-.0566.1711-.1535.1947-.2661l.0585-.2785c.1305-.6214-.3437-1.2055-.9786-1.2055h-18.45569c-.70022 0-1.30729.4844-1.46262 1.1672z" fill="url(#D)"/><path d="m8.46569 16.0775-.05257.2311c-.03614.1588.02769.3238.16139.4169l8.93709 6.2262c.1261.0879.2915.0957.4254.0201l11.1724-6.3114c.1002-.0566.1711-.1535.1947-.2661l.0585-.2785c.1305-.6214-.3437-1.2055-.9786-1.2055h-18.45569c-.70022 0-1.30729.4844-1.46262 1.1672z" fill="url(#E)"/></g></svg>