<svg fill="none" height="32" viewBox="0 0 32 32" width="32" xmlns="http://www.w3.org/2000/svg" xmlns:xlink="http://www.w3.org/1999/xlink"><filter id="a" color-interpolation-filters="sRGB" filterUnits="userSpaceOnUse" height="16.283" width="23.913" x="4.044" y="7.64"><feFlood flood-opacity="0" result="BackgroundImageFix"/><feBlend in="SourceGraphic" in2="BackgroundImageFix" mode="normal" result="shape"/><feColorMatrix in="SourceAlpha" result="hardAlpha" type="matrix" values="0 0 0 0 0 0 0 0 0 0 0 0 0 0 0 0 0 0 127 0"/><feOffset dy="-.4"/><feGaussianBlur stdDeviation=".375"/><feComposite in2="hardAlpha" k2="-1" k3="1" operator="arithmetic"/><feColorMatrix type="matrix" values="0 0 0 0 0.262745 0 0 0 0 0.356863 0 0 0 0 1 0 0 0 1 0"/><feBlend in2="shape" mode="normal" result="effect1_innerShadow_18_22120"/></filter><filter id="b" color-interpolation-filters="sRGB" filterUnits="userSpaceOnUse" height="16.398" width="12.909" x="3.634" y="7.781"><feFlood flood-opacity="0" result="BackgroundImageFix"/><feBlend in="SourceGraphic" in2="BackgroundImageFix" mode="normal" result="shape"/><feGaussianBlur result="effect1_foregroundBlur_18_22120" stdDeviation=".25"/></filter><filter id="c" color-interpolation-filters="sRGB" filterUnits="userSpaceOnUse" height="6.43" width="4.49" x="24.598" y="13.488"><feFlood flood-opacity="0" result="BackgroundImageFix"/><feBlend in="SourceGraphic" in2="BackgroundImageFix" mode="normal" result="shape"/><feColorMatrix in="SourceAlpha" result="hardAlpha" type="matrix" values="0 0 0 0 0 0 0 0 0 0 0 0 0 0 0 0 0 0 127 0"/><feOffset dx=".4" dy="-.25"/><feGaussianBlur stdDeviation=".5"/><feComposite in2="hardAlpha" k2="-1" k3="1" operator="arithmetic"/><feColorMatrix type="matrix" values="0 0 0 0 0.858824 0 0 0 0 0.203922 0 0 0 0 0.2 0 0 0 1 0"/><feBlend in2="shape" mode="normal" result="effect1_innerShadow_18_22120"/></filter><filter id="d" color-interpolation-filters="sRGB" filterUnits="userSpaceOnUse" height="12.18" width="10.09" x="16.75" y="10.738"><feFlood flood-opacity="0" result="BackgroundImageFix"/><feBlend in="SourceGraphic" in2="BackgroundImageFix" mode="normal" result="shape"/><feGaussianBlur result="effect1_foregroundBlur_18_22120" stdDeviation="1.5"/></filter><filter id="e" color-interpolation-filters="sRGB" filterUnits="userSpaceOnUse" height="1.319" width="9.516" x="19.25" y="12.641"><feFlood flood-opacity="0" result="BackgroundImageFix"/><feBlend in="SourceGraphic" in2="BackgroundImageFix" mode="normal" result="shape"/><feGaussianBlur result="effect1_foregroundBlur_18_22120" stdDeviation=".25"/></filter><filter id="f" color-interpolation-filters="sRGB" filterUnits="userSpaceOnUse" height="7.313" width="5.645" x="15.024" y="10.253"><feFlood flood-opacity="0" result="BackgroundImageFix"/><feBlend in="SourceGraphic" in2="BackgroundImageFix" mode="normal" result="shape"/><feGaussianBlur result="effect1_foregroundBlur_18_22120" stdDeviation=".625"/></filter><filter id="g" color-interpolation-filters="sRGB" filterUnits="userSpaceOnUse" height="13.5" width="10.016" x="4.53" y="9.23"><feFlood flood-opacity="0" result="BackgroundImageFix"/><feBlend in="SourceGraphic" in2="BackgroundImageFix" mode="normal" result="shape"/><feGaussianBlur result="effect1_foregroundBlur_18_22120" stdDeviation=".125"/></filter><linearGradient id="h" gradientUnits="userSpaceOnUse" x1="16.822" x2="13.186" y1="28.879" y2="28.879"><stop offset="0" stop-color="#8f616c"/><stop offset=".42" stop-color="#7d4261"/><stop offset=".774" stop-color="#5e3a43"/></linearGradient><linearGradient id="i" gradientUnits="userSpaceOnUse" x1="18.103" x2="17.353" y1="28.879" y2="28.879"><stop offset="0" stop-color="#855a5d"/><stop offset="1" stop-color="#855a5d" stop-opacity="0"/></linearGradient><radialGradient id="j" cx="0" cy="0" gradientTransform="matrix(0 -4.95639 5.62268 0 15.5115 28.8791)" gradientUnits="userSpaceOnUse" r="1"><stop offset=".772" stop-color="#632f53" stop-opacity="0"/><stop offset="1" stop-color="#5a3a46"/></radialGradient><linearGradient id="k" gradientUnits="userSpaceOnUse" x1="20.525" x2="20.525" y1="23.923" y2="10.242"><stop offset=".743" stop-color="#5097da"/><stop offset="1" stop-color="#5d98da"/></linearGradient><linearGradient id="l" gradientUnits="userSpaceOnUse" x1="17.262" x2="9.296" y1="18.63" y2="18.63"><stop offset=".222" stop-color="#3b7bde"/><stop offset="1" stop-color="#3c84d5" stop-opacity="0"/></linearGradient><linearGradient id="m" gradientUnits="userSpaceOnUse" x1="28.688" x2="27" y1="16.828" y2="16.828"><stop offset="0" stop-color="#ff8e4e"/><stop offset="1" stop-color="#f96941"/></linearGradient><linearGradient id="n" gradientUnits="userSpaceOnUse" x1="25.438" x2="25.438" y1="14.527" y2="12.93"><stop offset="0" stop-color="#926bc9"/><stop offset="1" stop-color="#a6a4af"/></linearGradient><linearGradient id="o" gradientUnits="userSpaceOnUse" x1="29.769" x2="28.625" y1="13.378" y2="13.378"><stop offset="0" stop-color="#bab9bf"/><stop offset="1" stop-color="#bab9bf" stop-opacity="0"/></linearGradient><radialGradient id="p" cx="0" cy="0" gradientTransform="matrix(.9375 0 0 .507812 29.625 13.0235)" gradientUnits="userSpaceOnUse" r="1"><stop offset="0" stop-color="#cfcbd8"/><stop offset="1" stop-color="#cfcbd8" stop-opacity="0"/></radialGradient><radialGradient id="q" cx="0" cy="0" gradientTransform="matrix(1.21875139 -3.41717743 4.12270772 1.47038188 18.5966 15.7844)" gradientUnits="userSpaceOnUse" r="1"><stop offset="0" stop-color="#9571c7"/><stop offset="1" stop-color="#b0b0b7"/></radialGradient><radialGradient id="r" cx="0" cy="0" gradientTransform="matrix(-3.58221 0 0 -3.58221 20.5028 13.3782)" gradientUnits="userSpaceOnUse" r="1"><stop offset=".646" stop-color="#948da4" stop-opacity="0"/><stop offset="1" stop-color="#636697"/></radialGradient><radialGradient id="s" cx="0" cy="0" gradientTransform="matrix(2.04687905 -.87500244 .65889131 1.54133378 20.5809 12.461)" gradientUnits="userSpaceOnUse" r="1"><stop offset=".247" stop-color="#d0ccda"/><stop offset="1" stop-color="#b6b6bd" stop-opacity="0"/></radialGradient><linearGradient id="t" gradientUnits="userSpaceOnUse" x1="9.538" x2="9.538" y1="9.48" y2="22.48"><stop offset=".191" stop-color="#3255bf"/><stop offset="1" stop-color="#3255bf" stop-opacity="0"/></linearGradient><linearGradient id="u" gradientUnits="userSpaceOnUse" x1="9.926" x2="9.926" y1="9.484" y2="21.438"><stop offset="0" stop-color="#4b1776"/><stop offset="1" stop-color="#240b46"/></linearGradient><path d="m13.1862 23.9227h4.6507v4.9564h-4.6507z" fill="url(#h)"/><path d="m13.1862 23.9227h4.6507v4.9564h-4.6507z" fill="url(#i)"/><path d="m13.1862 23.9227h4.6507v4.9564h-4.6507z" fill="url(#j)"/><g filter="url(#a)"><path d="m4.04352 13.5398c0-3.0376 2.46243-5.50001 5.5-5.50001h12.91298c3.0376 0 5.5 2.46241 5.5 5.50001v9.383c0 .5523-.4477 1-1 1h-21.91298c-.55229 0-1-.4477-1-1z" fill="url(#k)"/></g><g filter="url(#b)"><path d="m5.48915 23.4297h9.19865c.6103 0 1.105-.42 1.105-.9381v-8.8017c0-2.7431-2.4275-5.14968-5.7043-5.14967-3.09236-.16359-5.70428 1.91987-5.70428 5.14967v8.8017c0 .5181.49467.9381 1.10493.9381z" fill="#4473c1"/><path d="m5.48915 23.5547h9.19865c.6594 0 1.23-.4576 1.23-1.0631v-8.8017c0-2.8196-2.4906-5.27306-5.826-5.27466-3.15182-.16516-5.83258 1.96416-5.83258 5.27466v8.8017c0 .6055.5706 1.0631 1.22993 1.0631z" stroke="url(#l)" stroke-width=".25"/></g><g filter="url(#c)"><path d="m28.6875 13.7378v5.3797c0 .4418-.3104.8-.6934.8h-2.7032c-.383 0-.6934-.3582-.6934-.8v-5.3797z" fill="url(#m)"/></g><g filter="url(#d)"><path d="m23.84 13.7378v5.3797c0 .4418-.3104.8-.6934.8h-2.7032c-.383 0-.6934-.3582-.6934-.8v-5.3797z" fill="#4b81d5"/></g><path d="m28.6207 12.2295c.6344 0 1.1486.5143 1.1486 1.1487s-.5142 1.1487-1.1486 1.1487h-9.617v-2.2974z" fill="url(#n)"/><path d="m28.6207 12.2295c.6344 0 1.1486.5143 1.1486 1.1487s-.5142 1.1487-1.1486 1.1487h-9.617v-2.2974z" fill="url(#o)"/><path d="m28.6207 12.2295c.6344 0 1.1486.5143 1.1486 1.1487s-.5142 1.1487-1.1486 1.1487h-9.617v-2.2974z" fill="url(#p)"/><g filter="url(#e)"><rect fill="#aea4bf" height=".319" rx=".159" width="8.516" x="19.75" y="13.141"/></g><g filter="url(#f)"><ellipse cx="17.847" cy="13.909" fill="#264fc5" rx="1.572" ry="2.406"/></g><circle cx="19.327" cy="13.378" fill="url(#q)" r="2.406"/><circle cx="19.327" cy="13.378" fill="url(#r)" r="2.406"/><circle cx="19.327" cy="13.378" fill="url(#s)" r="2.406"/><g filter="url(#g)"><path d="m4.78021 14.2383c0-2.6277 2.13015-4.75783 4.75781-4.75783 2.62768 0 4.75778 2.13013 4.75778 4.75783v7.9922c0 .138-.1119.25-.25.25h-9.01559c-.13807 0-.25-.112-.25-.25z" fill="url(#t)"/></g><path d="m5.16852 14.2422c0-2.6277 2.13014-4.75782 4.75781-4.75782s4.75777 2.13012 4.75777 4.75782v7.9922c0 .138-.1119.25-.25.25h-9.01558c-.13807 0-.25-.112-.25-.25z" fill="url(#u)"/></svg>