<svg fill="none" height="32" viewBox="0 0 32 32" width="32" xmlns="http://www.w3.org/2000/svg" xmlns:xlink="http://www.w3.org/1999/xlink"><filter id="a" color-interpolation-filters="sRGB" filterUnits="userSpaceOnUse" height="1.837" width="5.898" x="21.063" y="11.031"><feFlood flood-opacity="0" result="BackgroundImageFix"/><feBlend in="SourceGraphic" in2="BackgroundImageFix" mode="normal" result="shape"/><feColorMatrix in="SourceAlpha" result="hardAlpha" type="matrix" values="0 0 0 0 0 0 0 0 0 0 0 0 0 0 0 0 0 0 127 0"/><feOffset dy=".15"/><feGaussianBlur stdDeviation=".2"/><feComposite in2="hardAlpha" k2="-1" k3="1" operator="arithmetic"/><feColorMatrix type="matrix" values="0 0 0 0 0.701961 0 0 0 0 0.709804 0 0 0 0 0.713726 0 0 0 1 0"/><feBlend in2="shape" mode="normal" result="effect1_innerShadow_18_20289"/></filter><filter id="b" color-interpolation-filters="sRGB" filterUnits="userSpaceOnUse" height="1.837" width="3.969" x="5.078" y="11.031"><feFlood flood-opacity="0" result="BackgroundImageFix"/><feBlend in="SourceGraphic" in2="BackgroundImageFix" mode="normal" result="shape"/><feColorMatrix in="SourceAlpha" result="hardAlpha" type="matrix" values="0 0 0 0 0 0 0 0 0 0 0 0 0 0 0 0 0 0 127 0"/><feOffset dy=".15"/><feGaussianBlur stdDeviation=".2"/><feComposite in2="hardAlpha" k2="-1" k3="1" operator="arithmetic"/><feColorMatrix type="matrix" values="0 0 0 0 0.701961 0 0 0 0 0.709804 0 0 0 0 0.713726 0 0 0 1 0"/><feBlend in2="shape" mode="normal" result="effect1_innerShadow_18_20289"/></filter><filter id="c" color-interpolation-filters="sRGB" filterUnits="userSpaceOnUse" height="12.8" width="1.769" x="28.366" y="15.608"><feFlood flood-opacity="0" result="BackgroundImageFix"/><feBlend in="SourceGraphic" in2="BackgroundImageFix" mode="normal" result="shape"/><feGaussianBlur result="effect1_foregroundBlur_18_20289" stdDeviation=".325"/></filter><filter id="d" color-interpolation-filters="sRGB" filterUnits="userSpaceOnUse" height="2.964" width="4.503" x="5.43" y="15.075"><feFlood flood-opacity="0" result="BackgroundImageFix"/><feBlend in="SourceGraphic" in2="BackgroundImageFix" mode="normal" result="shape"/><feGaussianBlur result="effect1_foregroundBlur_18_20289" stdDeviation=".325"/></filter><filter id="e" color-interpolation-filters="sRGB" filterUnits="userSpaceOnUse" height="4.014" width="27.938" x="2.031" y="12.023"><feFlood flood-opacity="0" result="BackgroundImageFix"/><feBlend in="SourceGraphic" in2="BackgroundImageFix" mode="normal" result="shape"/><feColorMatrix in="SourceAlpha" result="hardAlpha" type="matrix" values="0 0 0 0 0 0 0 0 0 0 0 0 0 0 0 0 0 0 127 0"/><feOffset dy=".1"/><feGaussianBlur stdDeviation=".15"/><feComposite in2="hardAlpha" k2="-1" k3="1" operator="arithmetic"/><feColorMatrix type="matrix" values="0 0 0 0 0.796078 0 0 0 0 0.8 0 0 0 0 0.803922 0 0 0 1 0"/><feBlend in2="shape" mode="normal" result="effect1_innerShadow_18_20289"/></filter><filter id="f" color-interpolation-filters="sRGB" filterUnits="userSpaceOnUse" height="14.331" width="14.331" x="8.834" y="14.811"><feFlood flood-opacity="0" result="BackgroundImageFix"/><feBlend in="SourceGraphic" in2="BackgroundImageFix" mode="normal" result="shape"/><feColorMatrix in="SourceAlpha" result="hardAlpha" type="matrix" values="0 0 0 0 0 0 0 0 0 0 0 0 0 0 0 0 0 0 127 0"/><feOffset dy="-.15"/><feGaussianBlur stdDeviation=".075"/><feComposite in2="hardAlpha" k2="-1" k3="1" operator="arithmetic"/><feColorMatrix type="matrix" values="0 0 0 0 0.545098 0 0 0 0 0.529412 0 0 0 0 0.580392 0 0 0 1 0"/><feBlend in2="shape" mode="normal" result="effect1_innerShadow_18_20289"/><feColorMatrix in="SourceAlpha" result="hardAlpha" type="matrix" values="0 0 0 0 0 0 0 0 0 0 0 0 0 0 0 0 0 0 127 0"/><feOffset dx=".15"/><feGaussianBlur stdDeviation=".075"/><feComposite in2="hardAlpha" k2="-1" k3="1" operator="arithmetic"/><feColorMatrix type="matrix" values="0 0 0 0 0.564706 0 0 0 0 0.54902 0 0 0 0 0.6 0 0 0 1 0"/><feBlend in2="effect1_innerShadow_18_20289" mode="normal" result="effect2_innerShadow_18_20289"/><feColorMatrix in="SourceAlpha" result="hardAlpha" type="matrix" values="0 0 0 0 0 0 0 0 0 0 0 0 0 0 0 0 0 0 127 0"/><feOffset dy=".15"/><feGaussianBlur stdDeviation=".075"/><feComposite in2="hardAlpha" k2="-1" k3="1" operator="arithmetic"/><feColorMatrix type="matrix" values="0 0 0 0 0.619608 0 0 0 0 0.623529 0 0 0 0 0.631373 0 0 0 1 0"/><feBlend in2="effect2_innerShadow_18_20289" mode="normal" result="effect3_innerShadow_18_20289"/><feColorMatrix in="SourceAlpha" result="hardAlpha" type="matrix" values="0 0 0 0 0 0 0 0 0 0 0 0 0 0 0 0 0 0 127 0"/><feOffset dx="-.15" dy=".1"/><feGaussianBlur stdDeviation=".125"/><feComposite in2="hardAlpha" k2="-1" k3="1" operator="arithmetic"/><feColorMatrix type="matrix" values="0 0 0 0 0.803922 0 0 0 0 0.803922 0 0 0 0 0.823529 0 0 0 1 0"/><feBlend in2="effect3_innerShadow_18_20289" mode="normal" result="effect4_innerShadow_18_20289"/></filter><filter id="g" color-interpolation-filters="sRGB" filterUnits="userSpaceOnUse" height="11.037" width="11.037" x="10.481" y="16.458"><feFlood flood-opacity="0" result="BackgroundImageFix"/><feBlend in="SourceGraphic" in2="BackgroundImageFix" mode="normal" result="shape"/><feGaussianBlur result="effect1_foregroundBlur_18_20289" stdDeviation=".2"/></filter><filter id="h" color-interpolation-filters="sRGB" filterUnits="userSpaceOnUse" height="10.203" width="10.203" x="10.898" y="16.875"><feFlood flood-opacity="0" result="BackgroundImageFix"/><feBlend in="SourceGraphic" in2="BackgroundImageFix" mode="normal" result="shape"/><feGaussianBlur result="effect1_foregroundBlur_18_20289" stdDeviation=".375"/></filter><filter id="i" color-interpolation-filters="sRGB" filterUnits="userSpaceOnUse" height="5.258" width="11.038" x="2.192" y="11.273"><feFlood flood-opacity="0" result="BackgroundImageFix"/><feBlend in="SourceGraphic" in2="BackgroundImageFix" mode="normal" result="shape"/><feGaussianBlur result="effect1_foregroundBlur_18_20289" stdDeviation=".375"/></filter><filter id="j" color-interpolation-filters="sRGB" filterUnits="userSpaceOnUse" height="10.016" width="10.016" x="3.219" y="6.758"><feFlood flood-opacity="0" result="BackgroundImageFix"/><feBlend in="SourceGraphic" in2="BackgroundImageFix" mode="normal" result="shape"/><feColorMatrix in="SourceAlpha" result="hardAlpha" type="matrix" values="0 0 0 0 0 0 0 0 0 0 0 0 0 0 0 0 0 0 127 0"/><feOffset dx=".25" dy="-.25"/><feGaussianBlur stdDeviation=".375"/><feComposite in2="hardAlpha" k2="-1" k3="1" operator="arithmetic"/><feColorMatrix type="matrix" values="0 0 0 0 0.823529 0 0 0 0 0.666667 0 0 0 0 0.254902 0 0 0 1 0"/><feBlend in2="shape" mode="normal" result="effect1_innerShadow_18_20289"/></filter><filter id="k" color-interpolation-filters="sRGB" filterUnits="userSpaceOnUse" height="10.094" width="10.094" x="3.055" y="6.844"><feFlood flood-opacity="0" result="BackgroundImageFix"/><feBlend in="SourceGraphic" in2="BackgroundImageFix" mode="normal" result="shape"/><feGaussianBlur result="effect1_foregroundBlur_18_20289" stdDeviation=".75"/></filter><linearGradient id="l"><stop offset=".197" stop-color="#949597"/><stop offset=".624" stop-color="#c1c2c4"/></linearGradient><linearGradient id="m" gradientUnits="userSpaceOnUse" x1="21.406" x2="27.438" xlink:href="#l" y1="11.875" y2="11.875"/><linearGradient id="n"><stop offset="0" stop-color="#cfd0d2"/><stop offset="1" stop-color="#cfd0d2" stop-opacity="0"/></linearGradient><radialGradient id="o" cx="0" cy="0" gradientTransform="matrix(0 .21875 -1.6875 0 25.4375 11.4688)" gradientUnits="userSpaceOnUse" r="1" xlink:href="#n"/><linearGradient id="p" gradientUnits="userSpaceOnUse" x1="5.309" x2="9.368" xlink:href="#l" y1="11.875" y2="11.875"/><radialGradient id="q" cx="0" cy="0" gradientTransform="matrix(0 .21875 -1.13543 0 8.02183 11.4688)" gradientUnits="userSpaceOnUse" r="1" xlink:href="#n"/><linearGradient id="r" gradientUnits="userSpaceOnUse" x1="16" x2="16" y1="28.078" y2="29.906"><stop offset="0" stop-color="#cfc6de"/><stop offset="1" stop-color="#c3b4d7"/></linearGradient><linearGradient id="s" gradientUnits="userSpaceOnUse" x1="17.375" x2="17.375" y1="29.906" y2="28.5"><stop offset="0" stop-color="#ac91c9"/><stop offset="1" stop-color="#c2b3d6" stop-opacity="0"/></linearGradient><linearGradient id="t" gradientUnits="userSpaceOnUse" x1="16" x2="16" y1="28.078" y2="28.594"><stop offset="0" stop-color="#cfcbd7"/><stop offset="1" stop-color="#cfcbd7" stop-opacity="0"/></linearGradient><radialGradient id="u" cx="0" cy="0" gradientTransform="matrix(0 1.93749 -1.25528 0 29.2813 27.6875)" gradientUnits="userSpaceOnUse" r="1"><stop offset=".242" stop-color="#f7f4fe"/><stop offset="1" stop-color="#c8bcdb" stop-opacity="0"/></radialGradient><radialGradient id="v" cx="0" cy="0" gradientTransform="matrix(0 4.59375 -6.48312 0 14.25 25.3125)" gradientUnits="userSpaceOnUse" r="1"><stop offset=".645" stop-color="#9884af"/><stop offset="1" stop-color="#9884af" stop-opacity="0"/></radialGradient><linearGradient id="w" gradientUnits="userSpaceOnUse" x1="20.281" x2="29.281" y1="22.008" y2="22.008"><stop offset="0" stop-color="#66636f"/><stop offset="1" stop-color="#6b6873"/></linearGradient><linearGradient id="x" gradientUnits="userSpaceOnUse" x1="2.031" x2="4.719" y1="23.688" y2="23.719"><stop offset=".342" stop-color="#5e5c64"/><stop offset="1" stop-color="#5e5c64" stop-opacity="0"/></linearGradient><linearGradient id="y" gradientUnits="userSpaceOnUse" x1="1.688" x2="2.844" y1="22.188" y2="22.188"><stop offset="0" stop-color="#8f8f91"/><stop offset="1" stop-color="#6d6c71" stop-opacity="0"/></linearGradient><linearGradient id="z" gradientUnits="userSpaceOnUse" x1="16" x2="16" y1="15.938" y2="16.688"><stop offset="0" stop-color="#706f76"/><stop offset="1" stop-color="#706f76" stop-opacity="0"/></linearGradient><linearGradient id="A" gradientUnits="userSpaceOnUse" x1="16" x2="16" y1="15.938" y2="16.266"><stop offset="0" stop-color="#5f5e65"/><stop offset="1" stop-color="#5f5e65" stop-opacity="0"/></linearGradient><linearGradient id="B" gradientUnits="userSpaceOnUse" x1="19.313" x2="19.313" y1="28.078" y2="27.469"><stop offset="0" stop-color="#5c536a"/><stop offset="1" stop-color="#5c536a" stop-opacity="0"/></linearGradient><radialGradient id="C" cx="0" cy="0" gradientTransform="matrix(5.03124711 6.84375386 -6.81763297 5.0120441 13.625 23.9063)" gradientUnits="userSpaceOnUse" r="1"><stop offset=".597" stop-color="#4b4357"/><stop offset="1" stop-color="#524c5d" stop-opacity="0"/></radialGradient><linearGradient id="D" gradientUnits="userSpaceOnUse" x1="16" x2="16" y1="12.023" y2="13.656"><stop offset="0" stop-color="#d8d8dc"/><stop offset="1" stop-color="#d8d8dc" stop-opacity="0"/></linearGradient><linearGradient id="E" gradientUnits="userSpaceOnUse" x1="2.031" x2="3.594" y1="15.344" y2="15.344"><stop offset=".22" stop-color="#c6c3cc"/><stop offset="1" stop-color="#c6c3cc" stop-opacity="0"/></linearGradient><linearGradient id="F" gradientUnits="userSpaceOnUse" x1="29.969" x2="27.406" y1="15.594" y2="15.594"><stop offset=".15" stop-color="#f9f7fe"/><stop offset="1" stop-color="#d3cddd" stop-opacity="0"/></linearGradient><radialGradient id="G" cx="0" cy="0" gradientTransform="matrix(-1.21875572 1.19921597 -1.45603651 -1.47976084 29.9687 12.7812)" gradientUnits="userSpaceOnUse" r="1"><stop offset=".15" stop-color="#f9f7fe"/><stop offset="1" stop-color="#f9f7fe" stop-opacity="0"/></radialGradient><linearGradient id="H" gradientUnits="userSpaceOnUse" x1="17.625" x2="17.625" y1="15.938" y2="15.594"><stop offset="0" stop-color="#b6adc6"/><stop offset="1" stop-color="#b6adc6" stop-opacity="0"/></linearGradient><radialGradient id="I" cx="0" cy="0" gradientTransform="matrix(-9.03130827 6.59371426 -6.59371426 -9.03130827 21.3437 18.6875)" gradientUnits="userSpaceOnUse" r="1"><stop offset="0" stop-color="#a6a2ae"/><stop offset="1" stop-color="#a6a2af"/></radialGradient><linearGradient id="J" gradientUnits="userSpaceOnUse" x1="19.281" x2="16" y1="16.781" y2="26.945"><stop offset="0" stop-color="#6a6375"/><stop offset="1" stop-color="#6a6375" stop-opacity="0"/></linearGradient><linearGradient id="K" gradientUnits="userSpaceOnUse" x1="12.844" x2="14.656" y1="25.813" y2="23.344"><stop offset=".363" stop-color="#b7b6bd"/><stop offset="1" stop-color="#b7b6bd" stop-opacity="0"/></linearGradient><linearGradient id="L"><stop offset=".068" stop-color="#67616d"/><stop offset="1" stop-color="#4d3e5c"/></linearGradient><radialGradient id="M" cx="0" cy="0" gradientTransform="matrix(-5.18749591 3.78126178 -3.53295145 -4.84684009 18.7188 20.6563)" gradientUnits="userSpaceOnUse" r="1" xlink:href="#L"/><linearGradient id="N" gradientUnits="userSpaceOnUse" x1="19.438" x2="12.5" y1="17.008" y2="25.875"><stop offset="0" stop-color="#2c2634"/><stop offset=".599" stop-color="#40344c"/></linearGradient><radialGradient id="O" cx="0" cy="0" gradientTransform="matrix(-4.54313883 3.31157798 -3.09410985 -4.24479529 18.381 20.8203)" gradientUnits="userSpaceOnUse" r="1" xlink:href="#L"/><radialGradient id="P" cx="0" cy="0" gradientTransform="matrix(-6.15623377 3.93752994 -3.80986314 -5.95662978 18.375 20.1562)" gradientUnits="userSpaceOnUse" r="1"><stop offset=".78" stop-color="#554863" stop-opacity="0"/><stop offset=".985" stop-color="#554863"/></radialGradient><linearGradient id="Q" gradientUnits="userSpaceOnUse" x1="17.281" x2="14.063" y1="24.25" y2="19.969"><stop offset="0" stop-color="#463755"/><stop offset="1" stop-color="#473f51"/></linearGradient><linearGradient id="R"><stop offset="0" stop-color="#544e5c"/><stop offset="1" stop-color="#544e5c" stop-opacity="0"/></linearGradient><radialGradient id="S" cx="0" cy="0" gradientTransform="matrix(2.78124774 -3.15624957 2.16436817 1.90721422 14.375 23.8125)" gradientUnits="userSpaceOnUse" r="1" xlink:href="#R"/><radialGradient id="T" cx="0" cy="0" gradientTransform="matrix(-1.85937246 1.25001179 -1.25001179 -1.85937246 18.4531 19.9062)" gradientUnits="userSpaceOnUse" r="1" xlink:href="#R"/><linearGradient id="U" gradientUnits="userSpaceOnUse" x1="18.475" x2="17.739" y1="19.357" y2="21.054"><stop offset=".051" stop-color="#f3f2f4"/><stop offset="1" stop-color="#f3f2f4" stop-opacity="0"/></linearGradient><radialGradient id="V" cx="0" cy="0" gradientTransform="matrix(-2.75001783 2.24998199 -3.93746374 -4.81252541 11.1875 8.8125)" gradientUnits="userSpaceOnUse" r="1"><stop offset="0" stop-color="#ffff9c"/><stop offset="1" stop-color="#eac73c"/></radialGradient><radialGradient id="W" cx="0" cy="0" gradientTransform="matrix(-1.0625072 .99999645 -1.81616538 -1.92969565 10.4687 8.9375)" gradientUnits="userSpaceOnUse" r="1"><stop offset=".172" stop-color="#fffca0"/><stop offset="1" stop-color="#fffca0" stop-opacity="0"/></radialGradient><radialGradient id="X" cx="0" cy="0" gradientTransform="matrix(0 6.04688 -6.04688 0 8.10156 11.8906)" gradientUnits="userSpaceOnUse" r="1"><stop offset=".127" stop-color="#ffedd9"/><stop offset="1" stop-color="#ffedd9" stop-opacity="0"/></radialGradient><g filter="url(#a)"><path d="m21.0625 11.6313c0-.3314.2686-.6001.6-.6001h4.6984c.3314 0 .6.2687.6.6001v1.0875h-5.8984z" fill="url(#m)"/><path d="m21.0625 11.6313c0-.3314.2686-.6001.6-.6001h4.6984c.3314 0 .6.2687.6.6001v1.0875h-5.8984z" fill="url(#o)"/></g><g filter="url(#b)"><path d="m5.07812 11.5812c0-.3037.24625-.55.55001-.55h2.86875c.30375 0 .55.2463.55.5501v1.1375h-3.96876z" fill="url(#p)"/><path d="m5.07812 11.5812c0-.3037.24625-.55.55001-.55h2.86875c.30375 0 .55.2463.55.5501v1.1375h-3.96876z" fill="url(#q)"/></g><path d="m2.03125 28.1412c0 .9748.79026 1.765 1.76509 1.765h24.40736c.9748 0 1.7651-.7902 1.7651-1.765 0-.0349-.0283-.0631-.0631-.0631h-27.81141c-.03482 0-.06304.0282-.06304.0631z" fill="url(#r)"/><path d="m2.03125 28.1412c0 .9748.79026 1.765 1.76509 1.765h24.40736c.9748 0 1.7651-.7902 1.7651-1.765 0-.0349-.0283-.0631-.0631-.0631h-27.81141c-.03482 0-.06304.0282-.06304.0631z" fill="url(#s)"/><path d="m2.03125 28.1412c0 .9748.79026 1.765 1.76509 1.765h24.40736c.9748 0 1.7651-.7902 1.7651-1.765 0-.0349-.0283-.0631-.0631-.0631h-27.81141c-.03482 0-.06304.0282-.06304.0631z" fill="url(#t)"/><path d="m2.03125 28.1412c0 .9748.79026 1.765 1.76509 1.765h24.40736c.9748 0 1.7651-.7902 1.7651-1.765 0-.0349-.0283-.0631-.0631-.0631h-27.81141c-.03482 0-.06304.0282-.06304.0631z" fill="url(#u)"/><path d="m2.03125 28.1412c0 .9748.79026 1.765 1.76509 1.765h24.40736c.9748 0 1.7651-.7902 1.7651-1.765 0-.0349-.0283-.0631-.0631-.0631h-27.81141c-.03482 0-.06304.0282-.06304.0631z" fill="url(#v)"/><path d="m2.03125 16.1875c0-.1381.11193-.25.25-.25h27.43755c.138 0 .25.1119.25.25v11.6406c0 .1381-.112.25-.25.25h-27.43755c-.13807 0-.25-.1119-.25-.25z" fill="url(#w)"/><path d="m2.03125 16.1875c0-.1381.11193-.25.25-.25h27.43755c.138 0 .25.1119.25.25v11.6406c0 .1381-.112.25-.25.25h-27.43755c-.13807 0-.25-.1119-.25-.25z" fill="url(#x)"/><path d="m2.03125 16.1875c0-.1381.11193-.25.25-.25h27.43755c.138 0 .25.1119.25.25v11.6406c0 .1381-.112.25-.25.25h-27.43755c-.13807 0-.25-.1119-.25-.25z" fill="url(#y)"/><path d="m2.03125 16.1875c0-.1381.11193-.25.25-.25h27.43755c.138 0 .25.1119.25.25v11.6406c0 .1381-.112.25-.25.25h-27.43755c-.13807 0-.25-.1119-.25-.25z" fill="url(#z)"/><path d="m2.03125 16.1875c0-.1381.11193-.25.25-.25h27.43755c.138 0 .25.1119.25.25v11.6406c0 .1381-.112.25-.25.25h-27.43755c-.13807 0-.25-.1119-.25-.25z" fill="url(#A)"/><path d="m2.03125 16.1875c0-.1381.11193-.25.25-.25h27.43755c.138 0 .25.1119.25.25v11.6406c0 .1381-.112.25-.25.25h-27.43755c-.13807 0-.25-.1119-.25-.25z" fill="url(#B)"/><path d="m2.03125 16.1875c0-.1381.11193-.25.25-.25h27.43755c.138 0 .25.1119.25.25v11.6406c0 .1381-.112.25-.25.25h-27.43755c-.13807 0-.25-.1119-.25-.25z" fill="url(#C)"/><g filter="url(#c)"><path d="m29.0156 16.2578h.46875v11.5h-.46875z" fill="#8d8d92"/></g><g filter="url(#d)"><path d="m9.28233 15.7253c-.20146.3019-.3909.6366-.5661 1.0079l-.01092-.0004c-.17987.3877-.5726.6566-1.02814.6566-.45544 0-.84811-.2688-1.02805-.6563l-.0032.0001c-.1752-.3713-.36464-.706-.56609-1.0079z" fill="#4e474a"/></g><g filter="url(#e)"><path d="m2.03125 14.0234c0-1.1045.89543-2 2-2h23.93755c1.1045 0 2 .8955 2 2v1.6641c0 .1381-.112.25-.25.25h-27.43755c-.13807 0-.25-.1119-.25-.25z" fill="#dad4e6"/><path d="m2.03125 14.0234c0-1.1045.89543-2 2-2h23.93755c1.1045 0 2 .8955 2 2v1.6641c0 .1381-.112.25-.25.25h-27.43755c-.13807 0-.25-.1119-.25-.25z" fill="url(#D)"/><path d="m2.03125 14.0234c0-1.1045.89543-2 2-2h23.93755c1.1045 0 2 .8955 2 2v1.6641c0 .1381-.112.25-.25.25h-27.43755c-.13807 0-.25-.1119-.25-.25z" fill="url(#E)"/><path d="m2.03125 14.0234c0-1.1045.89543-2 2-2h23.93755c1.1045 0 2 .8955 2 2v1.6641c0 .1381-.112.25-.25.25h-27.43755c-.13807 0-.25-.1119-.25-.25z" fill="url(#F)"/><path d="m2.03125 14.0234c0-1.1045.89543-2 2-2h23.93755c1.1045 0 2 .8955 2 2v1.6641c0 .1381-.112.25-.25.25h-27.43755c-.13807 0-.25-.1119-.25-.25z" fill="url(#G)"/><path d="m2.03125 14.0234c0-1.1045.89543-2 2-2h23.93755c1.1045 0 2 .8955 2 2v1.6641c0 .1381-.112.25-.25.25h-27.43755c-.13807 0-.25-.1119-.25-.25z" fill="url(#H)"/></g><g filter="url(#f)"><circle cx="16" cy="21.977" fill="url(#I)" r="7.016"/></g><g filter="url(#g)" stroke-width=".3"><circle cx="16" cy="21.977" r="4.969" stroke="url(#J)"/><circle cx="16" cy="21.977" r="4.969" stroke="url(#K)"/></g><circle cx="16" cy="21.977" fill="url(#M)" r="4.969"/><circle cx="16" cy="21.977" fill="url(#N)" r="4.969"/><g filter="url(#h)"><circle cx="16" cy="21.977" fill="url(#O)" r="4.352"/><circle cx="16" cy="21.977" fill="url(#P)" r="4.352"/></g><circle cx="16" cy="21.977" fill="url(#Q)" r="2.453"/><circle cx="16" cy="21.977" fill="url(#S)" r="2.453"/><circle cx="16" cy="21.977" fill="url(#T)" r="2.453"/><ellipse cx="18.036" cy="19.985" fill="url(#U)" rx=".837" ry="1.042" transform="matrix(.81941624 -.57319894 .57319894 .81941624 -8.198067 13.947149)"/><g filter="url(#i)"><path d="m6.125 15.7812c-.7285-1.0915-1.65926-1.5969-2.59571-2.0015-.42938-.161-.5756-.3008-.5756-.7864 0-.1029-.02571-.3432 0-.438.33383-.2499.78781-.2573 1.23692-.2573l8.25319-.2746c.082.1015 0 .0884 0 .2746 0 .4629-.2915.6124-.6894.7882l-.0002.0023c-.9688.408-1.80346 1.4391-2.55108 2.6927z" fill="#a99a99"/></g><g filter="url(#j)"><path d="m8.10156 7.00781c.45554 0 .84827.26888 1.02814.65658l.01092-.00033c.82032 1.73828 1.95318 2.67574 3.16798 3.18754l.0001.0023c.398.1757.6757.5738.6757 1.0367 0 .463-.2777.8611-.6757 1.0368l-.0001.0023c-1.2148.5117-2.34766 1.4492-3.16798 3.1875-.13805.2925-.46093.6562-1.03906.6562-.45544 0-.84811-.2687-1.02804-.6563l-.00321.0001c-.80874-1.7138-1.92117-2.6492-3.11657-3.1656-.42939-.1611-.73499-.5753-.73499-1.061 0-.4856.3056-.8999.73499-1.061 1.1954-.5164 2.30783-1.45176 3.11657-3.16554l.00321.0001c.17993-.38758.5726-.65635 1.02804-.65635z" fill="url(#V)"/><path d="m8.10156 7.00781c.45554 0 .84827.26888 1.02814.65658l.01092-.00033c.82032 1.73828 1.95318 2.67574 3.16798 3.18754l.0001.0023c.398.1757.6757.5738.6757 1.0367 0 .463-.2777.8611-.6757 1.0368l-.0001.0023c-1.2148.5117-2.34766 1.4492-3.16798 3.1875-.13805.2925-.46093.6562-1.03906.6562-.45544 0-.84811-.2687-1.02804-.6563l-.00321.0001c-.80874-1.7138-1.92117-2.6492-3.11657-3.1656-.42939-.1611-.73499-.5753-.73499-1.061 0-.4856.3056-.8999.73499-1.061 1.1954-.5164 2.30783-1.45176 3.11657-3.16554l.00321.0001c.17993-.38758.5726-.65635 1.02804-.65635z" fill="url(#W)"/></g><g filter="url(#k)"><path d="m8.10156 8.34375c.3309 0 .61618.19531.74684.47694l.00794-.00024c.59587 1.26265 1.41876 1.94365 2.30126 2.31545l.0001.0016c.289.1277.4907.4168.4907.7531s-.2017.6255-.4907.7531l-.0001.0017c-.8825.3717-1.70539 1.0527-2.30126 2.3154l-.00794-.0002c-.13066.2816-.41594.4769-.74684.4769-.33083 0-.61607-.1952-.74677-.4768l-.00233.0001c-.58747-1.2449-1.39554-1.9244-2.26388-2.2995-.3119-.117-.53389-.4179-.53389-.7707s.22199-.6537.53389-.7707c.86834-.3751 1.67641-1.0546 2.26388-2.29945l.00233.00007c.1307-.28154.41594-.47677.74677-.47677z" fill="url(#X)"/></g></svg>