<svg fill="none" height="32" viewBox="0 0 32 32" width="32" xmlns="http://www.w3.org/2000/svg" xmlns:xlink="http://www.w3.org/1999/xlink"><filter id="a" color-interpolation-filters="sRGB" filterUnits="userSpaceOnUse" height="3.913" width="3.913" x="8.903" y="8.18"><feFlood flood-opacity="0" result="BackgroundImageFix"/><feBlend in="SourceGraphic" in2="BackgroundImageFix" mode="normal" result="shape"/><feColorMatrix in="SourceAlpha" result="hardAlpha" type="matrix" values="0 0 0 0 0 0 0 0 0 0 0 0 0 0 0 0 0 0 127 0"/><feOffset dx="-.3" dy="-.3"/><feGaussianBlur stdDeviation=".2"/><feComposite in2="hardAlpha" k2="-1" k3="1" operator="arithmetic"/><feColorMatrix type="matrix" values="0 0 0 0 0.913725 0 0 0 0 0.384314 0 0 0 0 0.129412 0 0 0 1 0"/><feBlend in2="shape" mode="normal" result="effect1_innerShadow_18_19048"/><feColorMatrix in="SourceAlpha" result="hardAlpha" type="matrix" values="0 0 0 0 0 0 0 0 0 0 0 0 0 0 0 0 0 0 127 0"/><feOffset dx=".3" dy=".3"/><feGaussianBlur stdDeviation=".2"/><feComposite in2="hardAlpha" k2="-1" k3="1" operator="arithmetic"/><feColorMatrix type="matrix" values="0 0 0 0 1 0 0 0 0 0.498039 0 0 0 0 0.160784 0 0 0 1 0"/><feBlend in2="effect1_innerShadow_18_19048" mode="normal" result="effect2_innerShadow_18_19048"/></filter><filter id="b" color-interpolation-filters="sRGB" filterUnits="userSpaceOnUse" height="3.913" width="3.913" x="14.044" y="8.18"><feFlood flood-opacity="0" result="BackgroundImageFix"/><feBlend in="SourceGraphic" in2="BackgroundImageFix" mode="normal" result="shape"/><feColorMatrix in="SourceAlpha" result="hardAlpha" type="matrix" values="0 0 0 0 0 0 0 0 0 0 0 0 0 0 0 0 0 0 127 0"/><feOffset dx="-.3" dy="-.3"/><feGaussianBlur stdDeviation=".25"/><feComposite in2="hardAlpha" k2="-1" k3="1" operator="arithmetic"/><feColorMatrix type="matrix" values="0 0 0 0 0.0980392 0 0 0 0 0.572549 0 0 0 0 0.866667 0 0 0 1 0"/><feBlend in2="shape" mode="normal" result="effect1_innerShadow_18_19048"/><feColorMatrix in="SourceAlpha" result="hardAlpha" type="matrix" values="0 0 0 0 0 0 0 0 0 0 0 0 0 0 0 0 0 0 127 0"/><feOffset dx=".3" dy=".3"/><feGaussianBlur stdDeviation=".2"/><feComposite in2="hardAlpha" k2="-1" k3="1" operator="arithmetic"/><feColorMatrix type="matrix" values="0 0 0 0 0.0745098 0 0 0 0 0.709804 0 0 0 0 1 0 0 0 1 0"/><feBlend in2="effect1_innerShadow_18_19048" mode="normal" result="effect2_innerShadow_18_19048"/></filter><filter id="c" color-interpolation-filters="sRGB" filterUnits="userSpaceOnUse" height="3.913" width="3.913" x="19.184" y="8.18"><feFlood flood-opacity="0" result="BackgroundImageFix"/><feBlend in="SourceGraphic" in2="BackgroundImageFix" mode="normal" result="shape"/><feColorMatrix in="SourceAlpha" result="hardAlpha" type="matrix" values="0 0 0 0 0 0 0 0 0 0 0 0 0 0 0 0 0 0 127 0"/><feOffset dx="-.3" dy="-.3"/><feGaussianBlur stdDeviation=".25"/><feComposite in2="hardAlpha" k2="-1" k3="1" operator="arithmetic"/><feColorMatrix type="matrix" values="0 0 0 0 0.858824 0 0 0 0 0.752941 0 0 0 0 0.188235 0 0 0 1 0"/><feBlend in2="shape" mode="normal" result="effect1_innerShadow_18_19048"/><feColorMatrix in="SourceAlpha" result="hardAlpha" type="matrix" values="0 0 0 0 0 0 0 0 0 0 0 0 0 0 0 0 0 0 127 0"/><feOffset dx=".3" dy=".3"/><feGaussianBlur stdDeviation=".2"/><feComposite in2="hardAlpha" k2="-1" k3="1" operator="arithmetic"/><feColorMatrix type="matrix" values="0 0 0 0 0.968627 0 0 0 0 0.858824 0 0 0 0 0.223529 0 0 0 1 0"/><feBlend in2="effect1_innerShadow_18_19048" mode="normal" result="effect2_innerShadow_18_19048"/></filter><filter id="d" color-interpolation-filters="sRGB" filterUnits="userSpaceOnUse" height="3.913" width="3.913" x="8.903" y="14.039"><feFlood flood-opacity="0" result="BackgroundImageFix"/><feBlend in="SourceGraphic" in2="BackgroundImageFix" mode="normal" result="shape"/><feColorMatrix in="SourceAlpha" result="hardAlpha" type="matrix" values="0 0 0 0 0 0 0 0 0 0 0 0 0 0 0 0 0 0 127 0"/><feOffset dx="-.3" dy="-.3"/><feGaussianBlur stdDeviation=".25"/><feComposite in2="hardAlpha" k2="-1" k3="1" operator="arithmetic"/><feColorMatrix type="matrix" values="0 0 0 0 0.0980392 0 0 0 0 0.572549 0 0 0 0 0.866667 0 0 0 1 0"/><feBlend in2="shape" mode="normal" result="effect1_innerShadow_18_19048"/><feColorMatrix in="SourceAlpha" result="hardAlpha" type="matrix" values="0 0 0 0 0 0 0 0 0 0 0 0 0 0 0 0 0 0 127 0"/><feOffset dx=".3" dy=".3"/><feGaussianBlur stdDeviation=".2"/><feComposite in2="hardAlpha" k2="-1" k3="1" operator="arithmetic"/><feColorMatrix type="matrix" values="0 0 0 0 0.0745098 0 0 0 0 0.709804 0 0 0 0 1 0 0 0 1 0"/><feBlend in2="effect1_innerShadow_18_19048" mode="normal" result="effect2_innerShadow_18_19048"/></filter><filter id="e" color-interpolation-filters="sRGB" filterUnits="userSpaceOnUse" height="3.913" width="3.913" x="8.903" y="19.899"><feFlood flood-opacity="0" result="BackgroundImageFix"/><feBlend in="SourceGraphic" in2="BackgroundImageFix" mode="normal" result="shape"/><feColorMatrix in="SourceAlpha" result="hardAlpha" type="matrix" values="0 0 0 0 0 0 0 0 0 0 0 0 0 0 0 0 0 0 127 0"/><feOffset dx="-.3" dy="-.3"/><feGaussianBlur stdDeviation=".2"/><feComposite in2="hardAlpha" k2="-1" k3="1" operator="arithmetic"/><feColorMatrix type="matrix" values="0 0 0 0 0.913725 0 0 0 0 0.384314 0 0 0 0 0.129412 0 0 0 1 0"/><feBlend in2="shape" mode="normal" result="effect1_innerShadow_18_19048"/><feColorMatrix in="SourceAlpha" result="hardAlpha" type="matrix" values="0 0 0 0 0 0 0 0 0 0 0 0 0 0 0 0 0 0 127 0"/><feOffset dx=".3" dy=".3"/><feGaussianBlur stdDeviation=".2"/><feComposite in2="hardAlpha" k2="-1" k3="1" operator="arithmetic"/><feColorMatrix type="matrix" values="0 0 0 0 1 0 0 0 0 0.498039 0 0 0 0 0.160784 0 0 0 1 0"/><feBlend in2="effect1_innerShadow_18_19048" mode="normal" result="effect2_innerShadow_18_19048"/></filter><filter id="f" color-interpolation-filters="sRGB" filterUnits="userSpaceOnUse" height="3.913" width="3.913" x="14.044" y="14.039"><feFlood flood-opacity="0" result="BackgroundImageFix"/><feBlend in="SourceGraphic" in2="BackgroundImageFix" mode="normal" result="shape"/><feColorMatrix in="SourceAlpha" result="hardAlpha" type="matrix" values="0 0 0 0 0 0 0 0 0 0 0 0 0 0 0 0 0 0 127 0"/><feOffset dx="-.3" dy="-.3"/><feGaussianBlur stdDeviation=".25"/><feComposite in2="hardAlpha" k2="-1" k3="1" operator="arithmetic"/><feColorMatrix type="matrix" values="0 0 0 0 0.858824 0 0 0 0 0.752941 0 0 0 0 0.188235 0 0 0 1 0"/><feBlend in2="shape" mode="normal" result="effect1_innerShadow_18_19048"/><feColorMatrix in="SourceAlpha" result="hardAlpha" type="matrix" values="0 0 0 0 0 0 0 0 0 0 0 0 0 0 0 0 0 0 127 0"/><feOffset dx=".3" dy=".3"/><feGaussianBlur stdDeviation=".2"/><feComposite in2="hardAlpha" k2="-1" k3="1" operator="arithmetic"/><feColorMatrix type="matrix" values="0 0 0 0 0.968627 0 0 0 0 0.858824 0 0 0 0 0.223529 0 0 0 1 0"/><feBlend in2="effect1_innerShadow_18_19048" mode="normal" result="effect2_innerShadow_18_19048"/></filter><filter id="g" color-interpolation-filters="sRGB" filterUnits="userSpaceOnUse" height="3.913" width="3.913" x="14.044" y="19.899"><feFlood flood-opacity="0" result="BackgroundImageFix"/><feBlend in="SourceGraphic" in2="BackgroundImageFix" mode="normal" result="shape"/><feColorMatrix in="SourceAlpha" result="hardAlpha" type="matrix" values="0 0 0 0 0 0 0 0 0 0 0 0 0 0 0 0 0 0 127 0"/><feOffset dx="-.3" dy="-.3"/><feGaussianBlur stdDeviation=".25"/><feComposite in2="hardAlpha" k2="-1" k3="1" operator="arithmetic"/><feColorMatrix type="matrix" values="0 0 0 0 0.0980392 0 0 0 0 0.572549 0 0 0 0 0.866667 0 0 0 1 0"/><feBlend in2="shape" mode="normal" result="effect1_innerShadow_18_19048"/><feColorMatrix in="SourceAlpha" result="hardAlpha" type="matrix" values="0 0 0 0 0 0 0 0 0 0 0 0 0 0 0 0 0 0 127 0"/><feOffset dx=".3" dy=".3"/><feGaussianBlur stdDeviation=".2"/><feComposite in2="hardAlpha" k2="-1" k3="1" operator="arithmetic"/><feColorMatrix type="matrix" values="0 0 0 0 0.0745098 0 0 0 0 0.709804 0 0 0 0 1 0 0 0 1 0"/><feBlend in2="effect1_innerShadow_18_19048" mode="normal" result="effect2_innerShadow_18_19048"/></filter><filter id="h" color-interpolation-filters="sRGB" filterUnits="userSpaceOnUse" height="3.913" width="3.913" x="19.184" y="14.039"><feFlood flood-opacity="0" result="BackgroundImageFix"/><feBlend in="SourceGraphic" in2="BackgroundImageFix" mode="normal" result="shape"/><feColorMatrix in="SourceAlpha" result="hardAlpha" type="matrix" values="0 0 0 0 0 0 0 0 0 0 0 0 0 0 0 0 0 0 127 0"/><feOffset dx="-.3" dy="-.3"/><feGaussianBlur stdDeviation=".2"/><feComposite in2="hardAlpha" k2="-1" k3="1" operator="arithmetic"/><feColorMatrix type="matrix" values="0 0 0 0 0.913725 0 0 0 0 0.384314 0 0 0 0 0.129412 0 0 0 1 0"/><feBlend in2="shape" mode="normal" result="effect1_innerShadow_18_19048"/><feColorMatrix in="SourceAlpha" result="hardAlpha" type="matrix" values="0 0 0 0 0 0 0 0 0 0 0 0 0 0 0 0 0 0 127 0"/><feOffset dx=".3" dy=".3"/><feGaussianBlur stdDeviation=".2"/><feComposite in2="hardAlpha" k2="-1" k3="1" operator="arithmetic"/><feColorMatrix type="matrix" values="0 0 0 0 1 0 0 0 0 0.498039 0 0 0 0 0.160784 0 0 0 1 0"/><feBlend in2="effect1_innerShadow_18_19048" mode="normal" result="effect2_innerShadow_18_19048"/></filter><filter id="i" color-interpolation-filters="sRGB" filterUnits="userSpaceOnUse" height="3.913" width="3.913" x="19.184" y="19.899"><feFlood flood-opacity="0" result="BackgroundImageFix"/><feBlend in="SourceGraphic" in2="BackgroundImageFix" mode="normal" result="shape"/><feColorMatrix in="SourceAlpha" result="hardAlpha" type="matrix" values="0 0 0 0 0 0 0 0 0 0 0 0 0 0 0 0 0 0 127 0"/><feOffset dx="-.3" dy="-.3"/><feGaussianBlur stdDeviation=".25"/><feComposite in2="hardAlpha" k2="-1" k3="1" operator="arithmetic"/><feColorMatrix type="matrix" values="0 0 0 0 0.858824 0 0 0 0 0.752941 0 0 0 0 0.188235 0 0 0 1 0"/><feBlend in2="shape" mode="normal" result="effect1_innerShadow_18_19048"/><feColorMatrix in="SourceAlpha" result="hardAlpha" type="matrix" values="0 0 0 0 0 0 0 0 0 0 0 0 0 0 0 0 0 0 127 0"/><feOffset dx=".3" dy=".3"/><feGaussianBlur stdDeviation=".2"/><feComposite in2="hardAlpha" k2="-1" k3="1" operator="arithmetic"/><feColorMatrix type="matrix" values="0 0 0 0 0.968627 0 0 0 0 0.858824 0 0 0 0 0.223529 0 0 0 1 0"/><feBlend in2="effect1_innerShadow_18_19048" mode="normal" result="effect2_innerShadow_18_19048"/></filter><filter id="j" color-interpolation-filters="sRGB" filterUnits="userSpaceOnUse" height="23.844" width="3.531" x="22.688" y="4.597"><feFlood flood-opacity="0" result="BackgroundImageFix"/><feBlend in="SourceGraphic" in2="BackgroundImageFix" mode="normal" result="shape"/><feGaussianBlur result="effect1_foregroundBlur_18_19048" stdDeviation=".5"/></filter><filter id="k" color-interpolation-filters="sRGB" filterUnits="userSpaceOnUse" height="4.225" width="19.938" x="6.031" y="2.035"><feFlood flood-opacity="0" result="BackgroundImageFix"/><feBlend in="SourceGraphic" in2="BackgroundImageFix" mode="normal" result="shape"/><feColorMatrix in="SourceAlpha" result="hardAlpha" type="matrix" values="0 0 0 0 0 0 0 0 0 0 0 0 0 0 0 0 0 0 127 0"/><feOffset dy=".1"/><feGaussianBlur stdDeviation=".375"/><feComposite in2="hardAlpha" k2="-1" k3="1" operator="arithmetic"/><feColorMatrix type="matrix" values="0 0 0 0 0.380392 0 0 0 0 0.407843 0 0 0 0 0.666667 0 0 0 1 0"/><feBlend in2="shape" mode="normal" result="effect1_innerShadow_18_19048"/></filter><linearGradient id="l" gradientUnits="userSpaceOnUse" x1="16" x2="16" y1="7.441" y2="26.003"><stop offset="0" stop-color="#62326d"/><stop offset="1" stop-color="#434486"/></linearGradient><linearGradient id="m" gradientUnits="userSpaceOnUse" x1="6.031" x2="8.344" y1="21.816" y2="21.878"><stop offset=".031" stop-color="#412c4c"/><stop offset="1" stop-color="#412c4c" stop-opacity="0"/></linearGradient><linearGradient id="n"><stop offset=".333" stop-color="#ff945c"/><stop offset="1" stop-color="#ff945c" stop-opacity="0"/></linearGradient><linearGradient id="o" gradientUnits="userSpaceOnUse" x1="9.359" x2="10.406" xlink:href="#n" y1="10.957" y2="10.957"/><linearGradient id="p" gradientUnits="userSpaceOnUse" x1="9.359" x2="10.406" xlink:href="#n" y1="22.675" y2="22.675"/><linearGradient id="q" gradientUnits="userSpaceOnUse" x1="19.641" x2="20.688" xlink:href="#n" y1="16.816" y2="16.816"/><linearGradient id="r" gradientUnits="userSpaceOnUse" x1="24.453" x2="24.453" y1="5.597" y2="27.441"><stop offset="0" stop-color="#674876"/><stop offset="1" stop-color="#555187"/></linearGradient><linearGradient id="s" gradientUnits="userSpaceOnUse" x1="16" x2="16" y1="2.035" y2="6.16"><stop offset="0" stop-color="#636ab6"/><stop offset="1" stop-color="#6c6ebe"/></linearGradient><linearGradient id="t" gradientUnits="userSpaceOnUse" x1="17.156" x2="17.156" y1="6.316" y2="5.628"><stop offset="0" stop-color="#6062b1"/><stop offset="1" stop-color="#6062b1" stop-opacity="0"/></linearGradient><linearGradient id="u" gradientUnits="userSpaceOnUse" x1="6.031" x2="9.25" y1="6.16" y2="6.16"><stop offset=".136" stop-color="#484b86"/><stop offset="1" stop-color="#5e61ad" stop-opacity="0"/></linearGradient><linearGradient id="v" gradientUnits="userSpaceOnUse" x1="25.969" x2="23.031" y1="6.16" y2="6.16"><stop offset=".128" stop-color="#7277c8"/><stop offset="1" stop-color="#7277c8" stop-opacity="0"/></linearGradient><radialGradient id="w" cx="0" cy="0" gradientTransform="matrix(-.65625 0 0 -3.17187 25.9688 5.87842)" gradientUnits="userSpaceOnUse" r="1"><stop offset="0" stop-color="#6c6fb4"/><stop offset="1" stop-color="#6c6fb4" stop-opacity="0"/></radialGradient><linearGradient id="x" gradientUnits="userSpaceOnUse" x1="16" x2="16" y1="25.878" y2="29.956"><stop offset="0" stop-color="#6b4390"/><stop offset="1" stop-color="#76509e"/></linearGradient><linearGradient id="y" gradientUnits="userSpaceOnUse" x1="6.031" x2="8.438" y1="27.128" y2="27.128"><stop offset=".164" stop-color="#4f3d6c"/><stop offset="1" stop-color="#6e4693" stop-opacity="0"/></linearGradient><radialGradient id="z" cx="0" cy="0" gradientTransform="matrix(0 3.09375 -1.625 0 24.3125 25.5347)" gradientUnits="userSpaceOnUse" r="1"><stop offset="0" stop-color="#6b5094"/><stop offset="1" stop-color="#6b5094" stop-opacity="0"/></radialGradient><linearGradient id="A" gradientUnits="userSpaceOnUse" x1="15.688" x2="15.688" y1="25.597" y2="26.191"><stop offset=".158" stop-color="#5e3d7f"/><stop offset="1" stop-color="#5e3d7f" stop-opacity="0"/></linearGradient><rect fill="url(#l)" height="27.922" rx="2.6" width="19.938" x="6.031" y="2.035"/><rect fill="url(#m)" height="27.922" rx="2.6" width="19.938" x="6.031" y="2.035"/><g filter="url(#a)"><path d="m9.20312 9.07998c0-.33137.26863-.6.60001-.6h2.11247c.3314 0 .6.26863.6.6v2.11252c0 .3314-.2686.6-.6.6h-2.11248c-.33137 0-.6-.2686-.6-.6z" fill="#ff9544"/><path d="m9.20312 9.07998c0-.33137.26863-.6.60001-.6h2.11247c.3314 0 .6.26863.6.6v2.11252c0 .3314-.2686.6-.6.6h-2.11248c-.33137 0-.6-.2686-.6-.6z" fill="url(#o)"/></g><g filter="url(#b)"><path d="m14.3438 9.07998c0-.33137.2686-.6.6-.6h2.1125c.3313 0 .5999.26863.5999.6v2.11252c0 .3314-.2686.6-.5999.6h-2.1126c-.3313 0-.5999-.2686-.5999-.6z" fill="#38c6ff"/></g><g filter="url(#c)"><path d="m19.4844 9.07998c0-.33137.2686-.6.6-.6h2.1125c.3313 0 .6.26863.6.6v2.11252c0 .3314-.2687.6-.6.6h-2.1125c-.3314 0-.6-.2686-.6-.6z" fill="#ffec58"/></g><g filter="url(#d)"><path d="m9.20312 14.9394c0-.3314.26863-.6.60001-.6h2.11247c.3314 0 .6.2686.6.6v2.1125c0 .3313-.2686.6-.6.6h-2.11248c-.33137 0-.6-.2687-.6-.6z" fill="#38c6ff"/></g><g filter="url(#e)"><path d="m9.20312 20.7987c0-.3313.26863-.6.60001-.6h2.11247c.3314 0 .6.2687.6.6v2.1125c0 .3314-.2686.6-.6.6h-2.11248c-.33137 0-.6-.2686-.6-.6z" fill="#ff9544"/><path d="m9.20312 20.7987c0-.3313.26863-.6.60001-.6h2.11247c.3314 0 .6.2687.6.6v2.1125c0 .3314-.2686.6-.6.6h-2.11248c-.33137 0-.6-.2686-.6-.6z" fill="url(#p)"/></g><g filter="url(#f)"><path d="m14.3438 14.9394c0-.3314.2686-.6.6-.6h2.1125c.3313 0 .5999.2686.5999.6v2.1125c0 .3313-.2686.6-.5999.6h-2.1126c-.3313 0-.5999-.2687-.5999-.6z" fill="#ffec58"/></g><g filter="url(#g)"><path d="m14.3438 20.7987c0-.3313.2686-.6.6-.6h2.1125c.3313 0 .5999.2687.5999.6v2.1125c0 .3314-.2686.6-.5999.6h-2.1126c-.3313 0-.5999-.2686-.5999-.6z" fill="#38c6ff"/></g><g filter="url(#h)"><path d="m19.4844 14.9394c0-.3314.2686-.6.6-.6h2.1125c.3313 0 .6.2686.6.6v2.1125c0 .3313-.2687.6-.6.6h-2.1125c-.3314 0-.6-.2687-.6-.6z" fill="#ff9544"/><path d="m19.4844 14.9394c0-.3314.2686-.6.6-.6h2.1125c.3313 0 .6.2686.6.6v2.1125c0 .3313-.2687.6-.6.6h-2.1125c-.3314 0-.6-.2687-.6-.6z" fill="url(#q)"/></g><g filter="url(#i)"><path d="m19.4844 20.7987c0-.3313.2686-.6.6-.6h2.1125c.3313 0 .6.2687.6.6v2.1125c0 .3314-.2687.6-.6.6h-2.1125c-.3314 0-.6-.2686-.6-.6z" fill="#ffec58"/></g><g filter="url(#j)"><path d="m23.6875 5.59717h1.53125v21.8438h-1.53125z" fill="url(#r)"/></g><g filter="url(#k)"><path d="m25.9688 6.15967h-19.93755v-1.525c0-1.43594 1.16406-2.6 2.6-2.6h14.73755c1.4359 0 2.6 1.16406 2.6 2.6z" fill="url(#s)"/><path d="m25.9688 6.15967h-19.93755v-1.525c0-1.43594 1.16406-2.6 2.6-2.6h14.73755c1.4359 0 2.6 1.16406 2.6 2.6z" fill="url(#t)"/><path d="m25.9688 6.15967h-19.93755v-1.525c0-1.43594 1.16406-2.6 2.6-2.6h14.73755c1.4359 0 2.6 1.16406 2.6 2.6z" fill="url(#u)"/><path d="m25.9688 6.15967h-19.93755v-1.525c0-1.43594 1.16406-2.6 2.6-2.6h14.73755c1.4359 0 2.6 1.16406 2.6 2.6z" fill="url(#v)"/><path d="m25.9688 6.15967h-19.93755v-1.525c0-1.43594 1.16406-2.6 2.6-2.6h14.73755c1.4359 0 2.6 1.16406 2.6 2.6z" fill="url(#w)"/></g><path d="m25.9688 25.8784v1.4781c0 1.436-1.1641 2.6-2.6 2.6h-14.73755c-1.43594 0-2.6-1.164-2.6-2.6v-1.4781z" fill="url(#x)"/><path d="m25.9688 25.8784v1.4781c0 1.436-1.1641 2.6-2.6 2.6h-14.73755c-1.43594 0-2.6-1.164-2.6-2.6v-1.4781z" fill="url(#y)"/><path d="m25.9688 25.8784v1.4781c0 1.436-1.1641 2.6-2.6 2.6h-14.73755c-1.43594 0-2.6-1.164-2.6-2.6v-1.4781z" fill="url(#z)"/><path d="m25.9688 25.8784v1.4781c0 1.436-1.1641 2.6-2.6 2.6h-14.73755c-1.43594 0-2.6-1.164-2.6-2.6v-1.4781z" fill="url(#A)"/></svg>