<svg fill="none" height="32" viewBox="0 0 32 32" width="32" xmlns="http://www.w3.org/2000/svg" xmlns:xlink="http://www.w3.org/1999/xlink"><filter id="a" color-interpolation-filters="sRGB" filterUnits="userSpaceOnUse" height="4.037" width="6.055" x="12.973" y="2.027"><feFlood flood-opacity="0" result="BackgroundImageFix"/><feBlend in="SourceGraphic" in2="BackgroundImageFix" mode="normal" result="shape"/><feColorMatrix in="SourceAlpha" result="hardAlpha" type="matrix" values="0 0 0 0 0 0 0 0 0 0 0 0 0 0 0 0 0 0 127 0"/><feOffset dy=".1"/><feGaussianBlur stdDeviation=".2"/><feComposite in2="hardAlpha" k2="-1" k3="1" operator="arithmetic"/><feColorMatrix type="matrix" values="0 0 0 0 0.690196 0 0 0 0 0.690196 0 0 0 0 0.690196 0 0 0 1 0"/><feBlend in2="shape" mode="normal" result="effect1_innerShadow_18_19346"/></filter><filter id="b" color-interpolation-filters="sRGB" filterUnits="userSpaceOnUse" height="2.069" width="16.305" x="7.977" y="4.066"><feFlood flood-opacity="0" result="BackgroundImageFix"/><feBlend in="SourceGraphic" in2="BackgroundImageFix" mode="normal" result="shape"/><feColorMatrix in="SourceAlpha" result="hardAlpha" type="matrix" values="0 0 0 0 0 0 0 0 0 0 0 0 0 0 0 0 0 0 127 0"/><feOffset dx=".25" dy=".1"/><feGaussianBlur stdDeviation=".25"/><feComposite in2="hardAlpha" k2="-1" k3="1" operator="arithmetic"/><feColorMatrix type="matrix" values="0 0 0 0 0.564706 0 0 0 0 0.560784 0 0 0 0 0.564706 0 0 0 1 0"/><feBlend in2="shape" mode="normal" result="effect1_innerShadow_18_19346"/></filter><linearGradient id="c" gradientUnits="userSpaceOnUse" x1="12.813" x2="17.781" y1="3.55" y2="3.55"><stop offset="0" stop-color="#8b8b8c"/><stop offset=".994" stop-color="#d0d0d1"/></linearGradient><radialGradient id="d" cx="0" cy="0" gradientTransform="matrix(0 .484375 -2.86899 0 17.4688 2.48755)" gradientUnits="userSpaceOnUse" r="1"><stop offset=".226" stop-color="#dcdbdd"/><stop offset="1" stop-color="#cdcdce" stop-opacity="0"/></radialGradient><linearGradient id="e" gradientUnits="userSpaceOnUse" x1="19.438" x2="8.531" y1="5.581" y2="5.581"><stop offset="0" stop-color="#cfcdd0"/><stop offset="1" stop-color="#959396"/></linearGradient><radialGradient id="f" cx="0" cy="0" gradientTransform="matrix(0 -1.60938 9.71875 0 20.6562 6.03442)" gradientUnits="userSpaceOnUse" r="1"><stop offset="0" stop-color="#e7e4ea"/><stop offset="1" stop-color="#d5d4d6" stop-opacity="0"/></radialGradient><linearGradient id="g" gradientUnits="userSpaceOnUse" x1="9.406" x2="22.906" y1="29.581" y2="29.488"><stop offset="0" stop-color="#9a8aab"/><stop offset="1" stop-color="#c4bbcf"/></linearGradient><linearGradient id="h" gradientUnits="userSpaceOnUse" x1="16.004" x2="16.004" y1="29.988" y2="28.644"><stop offset=".093" stop-color="#9b74bd"/><stop offset="1" stop-color="#a089b8" stop-opacity="0"/></linearGradient><radialGradient id="i" cx="0" cy="0" gradientTransform="matrix(0 1.48438 -8.5625 0 20.625 27.5188)" gradientUnits="userSpaceOnUse" r="1"><stop offset=".4" stop-color="#dad1e4"/><stop offset="1" stop-color="#cabbdb" stop-opacity="0"/></radialGradient><linearGradient id="j" gradientUnits="userSpaceOnUse" x1="24.031" x2="8.835" y1="25.013" y2="25.013"><stop offset="0" stop-color="#e2f981"/><stop offset="1" stop-color="#91e097"/></linearGradient><linearGradient id="k" gradientUnits="userSpaceOnUse" x1="24.031" x2="21.889" y1="27.464" y2="27.464"><stop offset="0" stop-color="#d8e78f"/><stop offset="1" stop-color="#d8f786" stop-opacity="0"/></linearGradient><linearGradient id="l" gradientUnits="userSpaceOnUse" x1="7.977" x2="9.348" y1="26.895" y2="26.895"><stop offset="0" stop-color="#88c992"/><stop offset="1" stop-color="#8fdf97" stop-opacity="0"/></linearGradient><g filter="url(#a)"><path d="m12.9727 2.77661c0-.41421.3357-.75.75-.75h4.5546c.4143 0 .75.33579.75.75v3.1875h-6.0546z" fill="url(#c)"/><path d="m12.9727 2.77661c0-.41421.3357-.75.75-.75h4.5546c.4143 0 .75.33579.75.75v3.1875h-6.0546z" fill="url(#d)"/></g><g filter="url(#b)"><path d="m7.97656 6.03442c0-1.08731.88144-1.96875 1.96875-1.96875h12.11719c1.0873 0 1.9687.88144 1.9687 1.96875z" fill="url(#e)"/><path d="m7.97656 6.03442c0-1.08731.88144-1.96875 1.96875-1.96875h12.11719c1.0873 0 1.9687.88144 1.9687 1.96875z" fill="url(#f)"/></g><path d="m7.97656 28.0188c0 1.0873.88144 1.9687 1.96875 1.9687h12.11719c1.0873 0 1.9687-.8814 1.9687-1.9687z" fill="url(#g)"/><path d="m7.97656 28.0188c0 1.0873.88144 1.9687 1.96875 1.9687h12.11719c1.0873 0 1.9687-.8814 1.9687-1.9687z" fill="url(#h)"/><path d="m7.97656 28.0188c0 1.0873.88144 1.9687 1.96875 1.9687h12.11719c1.0873 0 1.9687-.8814 1.9687-1.9687z" fill="url(#i)"/><path d="m7.97656 6.03442h16.0547v21.9844h-16.0547z" fill="url(#j)"/><path d="m7.97656 6.03442h16.0547v21.9844h-16.0547z" fill="url(#k)"/><path d="m7.97656 6.03442h16.0547v21.9844h-16.0547z" fill="url(#l)"/><g fill="#fff"><path d="m15.3844 8.67505c-.2209 0-.4.17908-.4.4v.84297c0 .02761-.0224.05-.05.05h-.8156c-.221 0-.4.17908-.4.39998v1.2313c0 .2209.179.4.4.4h.8156c.0276 0 .05.0224.05.05v.8429c0 .221.1791.4.4.4h1.2312c.2209 0 .4-.179.4-.4v-.8429c0-.0276.0224-.05.05-.05h.8156c.221 0 .4-.1791.4-.4v-1.2313c0-.2209-.179-.39998-.4-.39998h-.8156c-.0276 0-.05-.02239-.05-.05v-.84297c0-.22092-.1791-.4-.4-.4z"/><path d="m17.8812 22.9524c.221 0 .4001.1791.4.4v1.2312c0 .221-.179.4-.4.4h-3.7624c-.221 0-.4001-.179-.4-.4v-1.2312c0-.2209.179-.4.4-.4z"/></g></svg>