<svg fill="none" height="33" viewBox="0 0 32 33" width="32" xmlns="http://www.w3.org/2000/svg" xmlns:xlink="http://www.w3.org/1999/xlink"><filter id="a" color-interpolation-filters="sRGB" filterUnits="userSpaceOnUse" height="28.875" width="28.875" x="1.651" y=".808"><feFlood flood-opacity="0" result="BackgroundImageFix"/><feBlend in="SourceGraphic" in2="BackgroundImageFix" mode="normal" result="shape"/><feColorMatrix in="SourceAlpha" result="hardAlpha" type="matrix" values="0 0 0 0 0 0 0 0 0 0 0 0 0 0 0 0 0 0 127 0"/><feOffset dx="1" dy="-1"/><feGaussianBlur stdDeviation="1.5"/><feComposite in2="hardAlpha" k2="-1" k3="1" operator="arithmetic"/><feColorMatrix type="matrix" values="0 0 0 0 0.188235 0 0 0 0 0.470588 0 0 0 0 0.843137 0 0 0 1 0"/><feBlend in2="shape" mode="normal" result="effect1_innerShadow_18590_3401"/><feColorMatrix in="SourceAlpha" result="hardAlpha" type="matrix" values="0 0 0 0 0 0 0 0 0 0 0 0 0 0 0 0 0 0 127 0"/><feOffset dy="-1"/><feGaussianBlur stdDeviation="1.5"/><feComposite in2="hardAlpha" k2="-1" k3="1" operator="arithmetic"/><feColorMatrix type="matrix" values="0 0 0 0 0.27451 0 0 0 0 0.34902 0 0 0 0 0.8 0 0 0 1 0"/><feBlend in2="effect1_innerShadow_18590_3401" mode="normal" result="effect2_innerShadow_18590_3401"/></filter><filter id="b" color-interpolation-filters="sRGB" filterUnits="userSpaceOnUse" height="28.375" width="5.5" x="25.088" y="1.558"><feFlood flood-opacity="0" result="BackgroundImageFix"/><feBlend in="SourceGraphic" in2="BackgroundImageFix" mode="normal" result="shape"/><feGaussianBlur result="effect1_foregroundBlur_18590_3401" stdDeviation="1"/></filter><filter id="c" color-interpolation-filters="sRGB" filterUnits="userSpaceOnUse" height="5.5" width="27.281" x="2.365" y=".87"><feFlood flood-opacity="0" result="BackgroundImageFix"/><feBlend in="SourceGraphic" in2="BackgroundImageFix" mode="normal" result="shape"/><feGaussianBlur result="effect1_foregroundBlur_18590_3401" stdDeviation="1"/></filter><filter id="d" color-interpolation-filters="sRGB" filterUnits="userSpaceOnUse" height="18.5" width="22.674" x="4.251" y="6.495"><feFlood flood-opacity="0" result="BackgroundImageFix"/><feBlend in="SourceGraphic" in2="BackgroundImageFix" mode="normal" result="shape"/><feGaussianBlur result="effect1_foregroundBlur_18590_3401" stdDeviation=".5"/></filter><filter id="e" color-interpolation-filters="sRGB" filterUnits="userSpaceOnUse" height="17.9" width="22.074" x="4.251" y="7.095"><feFlood flood-opacity="0" result="BackgroundImageFix"/><feBlend in="SourceGraphic" in2="BackgroundImageFix" mode="normal" result="shape"/><feColorMatrix in="SourceAlpha" result="hardAlpha" type="matrix" values="0 0 0 0 0 0 0 0 0 0 0 0 0 0 0 0 0 0 127 0"/><feOffset dx="-1" dy="1"/><feGaussianBlur stdDeviation="1"/><feComposite in2="hardAlpha" k2="-1" k3="1" operator="arithmetic"/><feColorMatrix type="matrix" values="0 0 0 0 0.866667 0 0 0 0 0.819608 0 0 0 0 0.941176 0 0 0 1 0"/><feBlend in2="shape" mode="normal" result="effect1_innerShadow_18590_3401"/><feColorMatrix in="SourceAlpha" result="hardAlpha" type="matrix" values="0 0 0 0 0 0 0 0 0 0 0 0 0 0 0 0 0 0 127 0"/><feOffset dx=".4" dy="-.4"/><feGaussianBlur stdDeviation=".5"/><feComposite in2="hardAlpha" k2="-1" k3="1" operator="arithmetic"/><feColorMatrix type="matrix" values="0 0 0 0 1 0 0 0 0 0.988235 0 0 0 0 1 0 0 0 1 0"/><feBlend in2="effect1_innerShadow_18590_3401" mode="normal" result="effect2_innerShadow_18590_3401"/></filter><linearGradient id="f" gradientUnits="userSpaceOnUse" x1="15.588" x2="15.588" y1="5.382" y2="38.635"><stop offset="0" stop-color="#5cb7ff"/><stop offset="1" stop-color="#4878dd"/></linearGradient><radialGradient id="g" cx="0" cy="0" gradientTransform="matrix(-1.56248628 1.46876123 -1.71548166 -1.82495051 27.3071 3.90173)" gradientUnits="userSpaceOnUse" r="1"><stop offset="0" stop-color="#7bd7ff"/><stop offset="1" stop-color="#7bd7ff" stop-opacity="0"/></radialGradient><linearGradient id="h" gradientUnits="userSpaceOnUse" x1="28.338" x2="28.338" y1="4.308" y2="27.183"><stop offset="0" stop-color="#7fd9ff"/><stop offset="1" stop-color="#639df4"/></linearGradient><linearGradient id="i" gradientUnits="userSpaceOnUse" x1="28.052" x2="2.521" y1="3.871" y2="3.871"><stop offset="0" stop-color="#7dd8ff"/><stop offset="1" stop-color="#5db6ff"/></linearGradient><clipPath id="j"><path d="m0 .120483h32v32h-32z"/></clipPath><g clip-path="url(#j)"><g filter="url(#a)"><rect fill="url(#f)" height="27.875" rx="3.6" width="27.875" x="1.651" y="1.808"/><rect fill="url(#g)" height="27.875" rx="3.6" width="27.875" x="1.651" y="1.808"/></g><g filter="url(#b)"><path d="m27.8384 4.30798v22.87502" stroke="url(#h)" stroke-linecap="round" stroke-width="1.5"/></g><g filter="url(#c)"><path d="m5.11475 3.62048h21.78125" stroke="url(#i)" stroke-linecap="round" stroke-width="1.5"/></g><g fill="#579fff" filter="url(#d)"><path d="m19.9255 7.49548c-3.3137 0-6 2.68632-6 6.00002v4.5c0 3.3137 2.6863 6 6 6s6-2.6863 6-6v-4.5c0-3.3137-2.6863-6.00002-6-6.00002zm-2.5 6.00002c0-1.3807 1.1193-2.5 2.5-2.5s2.5 1.1193 2.5 2.5v4.5c0 1.3807-1.1193 2.5-2.5 2.5s-2.5-1.1193-2.5-2.5z"/><path d="m11.9255 9.24554c0-.7156-.4357-1.3591-1.1001-1.62485-.6645-.26575-1.42374-.10019-1.91723.41803l-3.17426 3.33338c-.66651.6999-.63943 1.8076.06049 2.4741s1.80762.6394 2.47413-.0605c.05667-.0595.15695-.0194.15695.0628v8.397c0 .9665.7835 1.75 1.75002 1.75.9665 0 1.75-.7835 1.75-1.75z"/></g><g fill="#fcf2ff" filter="url(#e)"><path d="m19.9255 7.49548c-3.3137 0-6 2.68632-6 6.00002v4.5c0 3.3137 2.6863 6 6 6s6-2.6863 6-6v-4.5c0-3.3137-2.6863-6.00002-6-6.00002zm-2.5 6.00002c0-1.3807 1.1193-2.5 2.5-2.5s2.5 1.1193 2.5 2.5v4.5c0 1.3807-1.1193 2.5-2.5 2.5s-2.5-1.1193-2.5-2.5z"/><path d="m11.9255 9.24554c0-.7156-.4357-1.3591-1.1001-1.62485-.6645-.26575-1.42374-.10019-1.91723.41803l-3.17426 3.33338c-.66651.6999-.63943 1.8076.06049 2.4741s1.80762.6394 2.47413-.0605c.05667-.0595.15695-.0194.15695.0628v8.397c0 .9665.7835 1.75 1.75002 1.75.9665 0 1.75-.7835 1.75-1.75z"/></g></g></svg>