<svg fill="none" height="32" viewBox="0 0 32 32" width="32" xmlns="http://www.w3.org/2000/svg" xmlns:xlink="http://www.w3.org/1999/xlink"><filter id="a" color-interpolation-filters="sRGB" filterUnits="userSpaceOnUse" height="7.033" width="9.361" x="11.633" y="19.524"><feFlood flood-opacity="0" result="BackgroundImageFix"/><feBlend in="SourceGraphic" in2="BackgroundImageFix" mode="normal" result="shape"/><feColorMatrix in="SourceAlpha" result="hardAlpha" type="matrix" values="0 0 0 0 0 0 0 0 0 0 0 0 0 0 0 0 0 0 127 0"/><feOffset dx=".1" dy="-.1"/><feGaussianBlur stdDeviation=".075"/><feComposite in2="hardAlpha" k2="-1" k3="1" operator="arithmetic"/><feColorMatrix type="matrix" values="0 0 0 0 0.560784 0 0 0 0 0.639216 0 0 0 0 0.294118 0 0 0 1 0"/><feBlend in2="shape" mode="normal" result="effect1_innerShadow_18_24086"/><feColorMatrix in="SourceAlpha" result="hardAlpha" type="matrix" values="0 0 0 0 0 0 0 0 0 0 0 0 0 0 0 0 0 0 127 0"/><feOffset dx="-.1" dy=".1"/><feGaussianBlur stdDeviation=".075"/><feComposite in2="hardAlpha" k2="-1" k3="1" operator="arithmetic"/><feColorMatrix type="matrix" values="0 0 0 0 0.560784 0 0 0 0 0.639216 0 0 0 0 0.294118 0 0 0 1 0"/><feBlend in2="effect1_innerShadow_18_24086" mode="normal" result="effect2_innerShadow_18_24086"/></filter><filter id="b" color-interpolation-filters="sRGB" filterUnits="userSpaceOnUse" height="7.033" width="9.361" x="11.633" y="19.524"><feFlood flood-opacity="0" result="BackgroundImageFix"/><feBlend in="SourceGraphic" in2="BackgroundImageFix" mode="normal" result="shape"/><feColorMatrix in="SourceAlpha" result="hardAlpha" type="matrix" values="0 0 0 0 0 0 0 0 0 0 0 0 0 0 0 0 0 0 127 0"/><feOffset dx=".1" dy="-.1"/><feGaussianBlur stdDeviation=".075"/><feComposite in2="hardAlpha" k2="-1" k3="1" operator="arithmetic"/><feColorMatrix type="matrix" values="0 0 0 0 0.560784 0 0 0 0 0.639216 0 0 0 0 0.294118 0 0 0 1 0"/><feBlend in2="shape" mode="normal" result="effect1_innerShadow_18_24086"/><feColorMatrix in="SourceAlpha" result="hardAlpha" type="matrix" values="0 0 0 0 0 0 0 0 0 0 0 0 0 0 0 0 0 0 127 0"/><feOffset dx="-.1" dy=".1"/><feGaussianBlur stdDeviation=".075"/><feComposite in2="hardAlpha" k2="-1" k3="1" operator="arithmetic"/><feColorMatrix type="matrix" values="0 0 0 0 0.560784 0 0 0 0 0.639216 0 0 0 0 0.294118 0 0 0 1 0"/><feBlend in2="effect1_innerShadow_18_24086" mode="normal" result="effect2_innerShadow_18_24086"/></filter><filter id="c" color-interpolation-filters="sRGB" filterUnits="userSpaceOnUse" height="15.657" width="18.189" x="8.379" y="14.765"><feFlood flood-opacity="0" result="BackgroundImageFix"/><feBlend in="SourceGraphic" in2="BackgroundImageFix" mode="normal" result="shape"/><feColorMatrix in="SourceAlpha" result="hardAlpha" type="matrix" values="0 0 0 0 0 0 0 0 0 0 0 0 0 0 0 0 0 0 127 0"/><feOffset dx=".25" dy="-.25"/><feGaussianBlur stdDeviation=".75"/><feComposite in2="hardAlpha" k2="-1" k3="1" operator="arithmetic"/><feColorMatrix type="matrix" values="0 0 0 0 0.756863 0 0 0 0 0.25098 0 0 0 0 0.376471 0 0 0 1 0"/><feBlend in2="shape" mode="normal" result="effect1_innerShadow_18_24086"/></filter><filter id="d" color-interpolation-filters="sRGB" filterUnits="userSpaceOnUse" height="7.242" width="24.555" x="3.512" y="12.254"><feFlood flood-opacity="0" result="BackgroundImageFix"/><feBlend in="SourceGraphic" in2="BackgroundImageFix" mode="normal" result="shape"/><feColorMatrix in="SourceAlpha" result="hardAlpha" type="matrix" values="0 0 0 0 0 0 0 0 0 0 0 0 0 0 0 0 0 0 127 0"/><feOffset dy="-.25"/><feGaussianBlur stdDeviation=".5"/><feComposite in2="hardAlpha" k2="-1" k3="1" operator="arithmetic"/><feColorMatrix type="matrix" values="0 0 0 0 0.356863 0 0 0 0 0.584314 0 0 0 0 0.537255 0 0 0 1 0"/><feBlend in2="shape" mode="normal" result="effect1_innerShadow_18_24086"/></filter><filter id="e" color-interpolation-filters="sRGB" filterUnits="userSpaceOnUse" height="9.445" width="5.257" x="21.724" y="19.461"><feFlood flood-opacity="0" result="BackgroundImageFix"/><feBlend in="SourceGraphic" in2="BackgroundImageFix" mode="normal" result="shape"/><feGaussianBlur result="effect1_foregroundBlur_18_24086" stdDeviation=".5"/></filter><linearGradient id="f" gradientUnits="userSpaceOnUse" x1="13.463" x2="18.59" y1="21.947" y2="26.687"><stop offset="0" stop-color="#9bc247"/><stop offset="1" stop-color="#9abd48"/></linearGradient><linearGradient id="g" gradientUnits="userSpaceOnUse" x1="20.426" x2="19.051" y1="25.816" y2="26.754"><stop offset=".227" stop-color="#89953d"/><stop offset="1" stop-color="#89953d" stop-opacity="0"/></linearGradient><linearGradient id="h" gradientUnits="userSpaceOnUse" x1="12.551" x2="13.77" y1="20.035" y2="22.285"><stop offset=".25" stop-color="#89953d"/><stop offset="1" stop-color="#89953d" stop-opacity="0"/></linearGradient><radialGradient id="i" cx="0" cy="0" gradientTransform="matrix(3.3125 0 0 1.53125 16.7698 23.2227)" gradientUnits="userSpaceOnUse" r="1"><stop offset=".363" stop-color="#fbb841"/><stop offset=".84" stop-color="#d68c15"/></radialGradient><radialGradient id="j" cx="0" cy="0" gradientTransform="matrix(0 .398437 -1.68372 0 17.6292 22.9492)" gradientUnits="userSpaceOnUse" r="1"><stop offset="0" stop-color="#ffcc49"/><stop offset="1" stop-color="#f7b33b" stop-opacity="0"/></radialGradient><linearGradient id="k" gradientUnits="userSpaceOnUse" x1="18.832" x2="18.832" y1="23.551" y2="23.082"><stop offset="0" stop-color="#d97b60"/><stop offset="1" stop-color="#fab740" stop-opacity="0"/></linearGradient><radialGradient id="l" cx="0" cy="0" gradientTransform="matrix(-1.125 0 0 -3.46382 .890625 1.61719)" gradientUnits="userSpaceOnUse" r="1"><stop offset="0" stop-color="#ec2e72"/><stop offset="1" stop-color="#df205d"/></radialGradient><linearGradient id="m" gradientUnits="userSpaceOnUse" x1="1.264" x2=".728" y1="1.617" y2="1.617"><stop offset="0" stop-color="#b0455d"/><stop offset="1" stop-color="#e8296b" stop-opacity="0"/></linearGradient><radialGradient id="n" cx="0" cy="0" gradientTransform="matrix(0 1.12469 -.477606 0 .329773 1.37353)" gradientUnits="userSpaceOnUse" r="1"><stop offset=".164" stop-color="#ff4885"/><stop offset="1" stop-color="#ff4885" stop-opacity="0"/></radialGradient><radialGradient id="o" cx="0" cy="0" gradientTransform="matrix(0 2.24151 -1.52712 0 .566406 .992868)" gradientUnits="userSpaceOnUse" r="1"><stop offset=".727" stop-color="#d13284" stop-opacity="0"/><stop offset="1" stop-color="#d13284"/></radialGradient><radialGradient id="p" cx="0" cy="0" gradientTransform="matrix(2.125 0 0 1.12891 1.73859 16)" gradientUnits="userSpaceOnUse" r="1"><stop offset=".235" stop-color="#e7345e"/><stop offset="1" stop-color="#c62373"/></radialGradient><linearGradient id="q" gradientUnits="userSpaceOnUse" x1="4.489" x2="3.504" y1="14.91" y2="16"><stop offset=".33" stop-color="#b4324a"/><stop offset="1" stop-color="#b4324a" stop-opacity="0"/></linearGradient><radialGradient id="r" cx="0" cy="0" gradientTransform="matrix(-1.94531 0 0 -1.32663 3.50421 16)" gradientUnits="userSpaceOnUse" r="1"><stop offset=".841" stop-color="#bb3e5a" stop-opacity="0"/><stop offset="1" stop-color="#bb3e5a"/></radialGradient><linearGradient id="s" gradientUnits="userSpaceOnUse" x1="27.551" x2="27.551" y1="14.395" y2="17.879"><stop offset="0" stop-color="#e32553"/><stop offset="1" stop-color="#bb216d"/></linearGradient><linearGradient id="t" gradientUnits="userSpaceOnUse" x1="27.551" x2="27.551" y1="14.395" y2="14.816"><stop offset="0" stop-color="#c34b5f"/><stop offset="1" stop-color="#c34b5f" stop-opacity="0"/></linearGradient><radialGradient id="u" cx="0" cy="0" gradientTransform="matrix(0 1.34375 -.304768 0 29.2542 15.5039)" gradientUnits="userSpaceOnUse" r="1"><stop offset=".062" stop-color="#f64e71"/><stop offset="1" stop-color="#f64e71" stop-opacity="0"/></radialGradient><linearGradient id="v" gradientUnits="userSpaceOnUse" x1="26.569" x2="22.635" y1="23.882" y2="25.135"><stop offset="0" stop-color="#fc508a"/><stop offset="1" stop-color="#f22b74"/></linearGradient><linearGradient id="w" gradientUnits="userSpaceOnUse" x1="17.349" x2="17.349" y1="19.53" y2="20.226"><stop offset="0" stop-color="#bd2052"/><stop offset="1" stop-color="#d93364" stop-opacity="0"/></linearGradient><linearGradient id="x" gradientUnits="userSpaceOnUse" x1="15.789" x2="15.789" y1="13.483" y2="19.496"><stop offset="0" stop-color="#b8f256"/><stop offset="1" stop-color="#5fc188"/></linearGradient><radialGradient id="y" cx="0" cy="0" gradientTransform="matrix(0 4.60256 -1.55726 0 26.8179 13.5524)" gradientUnits="userSpaceOnUse" r="1"><stop offset="0" stop-color="#b6fe75"/><stop offset="1" stop-color="#a9f677" stop-opacity="0"/></radialGradient><g filter="url(#a)"><path clip-rule="evenodd" d="m14.0781 25.406-2.3448-5.3821.9168-.3994 2.3448 5.3821c.1192.2735.3892.4504.6876.4504h5.2123v1h-5.2123c-.6963 0-1.3263-.4127-1.6044-1.051z" fill="url(#f)" fill-rule="evenodd"/></g><g clip-rule="evenodd" fill-rule="evenodd" filter="url(#b)"><path d="m14.0781 25.406-2.3448-5.3821.9168-.3994 2.3448 5.3821c.1192.2735.3892.4504.6876.4504h5.2123v1h-5.2123c-.6963 0-1.3263-.4127-1.6044-1.051z" fill="url(#f)"/><path d="m14.0781 25.406-2.3448-5.3821.9168-.3994 2.3448 5.3821c.1192.2735.3892.4504.6876.4504h5.2123v1h-5.2123c-.6963 0-1.3263-.4127-1.6044-1.051z" fill="url(#g)"/><path d="m14.0781 25.406-2.3448-5.3821.9168-.3994 2.3448 5.3821c.1192.2735.3892.4504.6876.4504h5.2123v1h-5.2123c-.6963 0-1.3263-.4127-1.6044-1.051z" fill="url(#h)"/></g><path d="m16.6058 22.4336h3.25v1.03125h-3.25z" fill="url(#i)"/><path d="m16.6058 22.4336h3.25v1.03125h-3.25z" fill="url(#j)"/><path d="m16.6058 22.4336h3.25v1.03125h-3.25z" fill="url(#k)"/><rect fill="url(#l)" height="3.234" rx=".566" transform="matrix(-1 0 0 1 16.6448 21.332)" width="1.133"/><rect fill="url(#m)" height="3.234" rx=".566" transform="matrix(-1 0 0 1 16.6448 21.332)" width="1.133"/><rect fill="url(#n)" height="3.234" rx=".566" transform="matrix(-1 0 0 1 16.6448 21.332)" width="1.133"/><rect fill="url(#o)" height="3.234" rx=".566" transform="matrix(-1 0 0 1 16.6448 21.332)" width="1.133"/><rect fill="url(#p)" height="1.758" rx=".879" width="3.891" x="1.559" y="15.121"/><rect fill="url(#q)" height="1.758" rx=".879" width="3.891" x="1.559" y="15.121"/><rect fill="url(#r)" height="1.758" rx=".879" width="3.891" x="1.559" y="15.121"/><rect fill="url(#s)" height="3.211" rx=".45" width="3.891" x="25.606" y="14.395"/><rect fill="url(#t)" height="3.211" rx=".45" width="3.891" x="25.606" y="14.395"/><rect fill="url(#u)" height="3.211" rx=".45" width="3.891" x="25.606" y="14.395"/><g filter="url(#c)"><path d="m18.4995 21.219c-.0923-.3216-.3864-.5432-.7209-.5432h-7.6963c-.94058 0-1.70309-.7626-1.70309-1.7032s.76251-1.7031 1.70309-1.7031h7.6878c.2438-.9956.9997-1.8362 2.0556-2.139 1.5679-.4497 3.2035.4568 3.6531 2.0247l.0328.1143h.6098c.9406 0 1.7031.7625 1.7031 1.7031 0 .7086-.3174 1.3161-.8761 1.5727-.2271.1043-.3986.3441-.3297.5843l1.5844 5.5245c.4497 1.5679-.4568 3.2035-2.0247 3.6531-1.5679.4497-3.2034-.4568-3.6531-2.0247z" fill="url(#v)"/><path d="m18.4995 21.219c-.0923-.3216-.3864-.5432-.7209-.5432h-7.6963c-.94058 0-1.70309-.7626-1.70309-1.7032s.76251-1.7031 1.70309-1.7031h7.6878c.2438-.9956.9997-1.8362 2.0556-2.139 1.5679-.4497 3.2035.4568 3.6531 2.0247l.0328.1143h.6098c.9406 0 1.7031.7625 1.7031 1.7031 0 .7086-.3174 1.3161-.8761 1.5727-.2271.1043-.3986.3441-.3297.5843l1.5844 5.5245c.4497 1.5679-.4568 3.2035-2.0247 3.6531-1.5679.4497-3.2034-.4568-3.6531-2.0247z" fill="url(#w)"/></g><g filter="url(#d)"><path d="m3.51202 16c0-1.9308 1.56526-3.4961 3.4961-3.4961h18.90858c1.1874 0 2.15.9626 2.15 2.15v2.6922c0 1.1874-.9626 2.15-2.15 2.15h-18.90858c-1.93084 0-3.4961-1.5653-3.4961-3.4961z" fill="url(#x)"/><path d="m3.51202 16c0-1.9308 1.56526-3.4961 3.4961-3.4961h18.90858c1.1874 0 2.15.9626 2.15 2.15v2.6922c0 1.1874-.9626 2.15-2.15 2.15h-18.90858c-1.93084 0-3.4961-1.5653-3.4961-3.4961z" fill="url(#y)"/></g><g filter="url(#e)"><rect fill="#fd508c" height="7.739" rx=".67" transform="matrix(.95410087 -.29948544 .29948544 .95410087 -5.162039 7.704415)" width="1.34" x="22.554" y="20.693"/></g></svg>