<svg fill="none" height="32" viewBox="0 0 32 32" width="32" xmlns="http://www.w3.org/2000/svg" xmlns:xlink="http://www.w3.org/1999/xlink"><filter id="a" color-interpolation-filters="sRGB" filterUnits="userSpaceOnUse" height="9.72" width="9.72" x="20.317" y="20.16"><feFlood flood-opacity="0" result="BackgroundImageFix"/><feBlend in="SourceGraphic" in2="BackgroundImageFix" mode="normal" result="shape"/><feColorMatrix in="SourceAlpha" result="hardAlpha" type="matrix" values="0 0 0 0 0 0 0 0 0 0 0 0 0 0 0 0 0 0 127 0"/><feOffset dx=".15" dy="-.15"/><feGaussianBlur stdDeviation=".25"/><feComposite in2="hardAlpha" k2="-1" k3="1" operator="arithmetic"/><feColorMatrix type="matrix" values="0 0 0 0 0.407843 0 0 0 0 0.286275 0 0 0 0 0.509804 0 0 0 1 0"/><feBlend in2="shape" mode="normal" result="effect1_innerShadow_18_24377"/></filter><filter id="b" color-interpolation-filters="sRGB" filterUnits="userSpaceOnUse" height="6.941" width="5.437" x="10.907" y="10.135"><feFlood flood-opacity="0" result="BackgroundImageFix"/><feBlend in="SourceGraphic" in2="BackgroundImageFix" mode="normal" result="shape"/><feColorMatrix in="SourceAlpha" result="hardAlpha" type="matrix" values="0 0 0 0 0 0 0 0 0 0 0 0 0 0 0 0 0 0 127 0"/><feOffset dx=".1"/><feGaussianBlur stdDeviation=".15"/><feComposite in2="hardAlpha" k2="-1" k3="1" operator="arithmetic"/><feColorMatrix type="matrix" values="0 0 0 0 0.309804 0 0 0 0 0.270588 0 0 0 0 0.34902 0 0 0 1 0"/><feBlend in2="shape" mode="normal" result="effect1_innerShadow_18_24377"/></filter><filter id="c" color-interpolation-filters="sRGB" filterUnits="userSpaceOnUse" height="6.941" width="5.437" x="21.642" y="20.846"><feFlood flood-opacity="0" result="BackgroundImageFix"/><feBlend in="SourceGraphic" in2="BackgroundImageFix" mode="normal" result="shape"/><feColorMatrix in="SourceAlpha" result="hardAlpha" type="matrix" values="0 0 0 0 0 0 0 0 0 0 0 0 0 0 0 0 0 0 127 0"/><feOffset dx=".1"/><feGaussianBlur stdDeviation=".15"/><feComposite in2="hardAlpha" k2="-1" k3="1" operator="arithmetic"/><feColorMatrix type="matrix" values="0 0 0 0 0.309804 0 0 0 0 0.270588 0 0 0 0 0.34902 0 0 0 1 0"/><feBlend in2="shape" mode="normal" result="effect1_innerShadow_18_24377"/></filter><filter id="d" color-interpolation-filters="sRGB" filterUnits="userSpaceOnUse" height="6.941" width="5.437" x="12.563" y="11.807"><feFlood flood-opacity="0" result="BackgroundImageFix"/><feBlend in="SourceGraphic" in2="BackgroundImageFix" mode="normal" result="shape"/><feColorMatrix in="SourceAlpha" result="hardAlpha" type="matrix" values="0 0 0 0 0 0 0 0 0 0 0 0 0 0 0 0 0 0 127 0"/><feOffset dx=".1"/><feGaussianBlur stdDeviation=".15"/><feComposite in2="hardAlpha" k2="-1" k3="1" operator="arithmetic"/><feColorMatrix type="matrix" values="0 0 0 0 0.309804 0 0 0 0 0.270588 0 0 0 0 0.34902 0 0 0 1 0"/><feBlend in2="shape" mode="normal" result="effect1_innerShadow_18_24377"/></filter><filter id="e" color-interpolation-filters="sRGB" filterUnits="userSpaceOnUse" height="6.941" width="5.437" x="23.298" y="22.517"><feFlood flood-opacity="0" result="BackgroundImageFix"/><feBlend in="SourceGraphic" in2="BackgroundImageFix" mode="normal" result="shape"/><feColorMatrix in="SourceAlpha" result="hardAlpha" type="matrix" values="0 0 0 0 0 0 0 0 0 0 0 0 0 0 0 0 0 0 127 0"/><feOffset dx=".1"/><feGaussianBlur stdDeviation=".15"/><feComposite in2="hardAlpha" k2="-1" k3="1" operator="arithmetic"/><feColorMatrix type="matrix" values="0 0 0 0 0.309804 0 0 0 0 0.270588 0 0 0 0 0.34902 0 0 0 1 0"/><feBlend in2="shape" mode="normal" result="effect1_innerShadow_18_24377"/></filter><filter id="f" color-interpolation-filters="sRGB" filterUnits="userSpaceOnUse" height="6.941" width="5.437" x="14.22" y="13.479"><feFlood flood-opacity="0" result="BackgroundImageFix"/><feBlend in="SourceGraphic" in2="BackgroundImageFix" mode="normal" result="shape"/><feColorMatrix in="SourceAlpha" result="hardAlpha" type="matrix" values="0 0 0 0 0 0 0 0 0 0 0 0 0 0 0 0 0 0 127 0"/><feOffset dx=".1"/><feGaussianBlur stdDeviation=".15"/><feComposite in2="hardAlpha" k2="-1" k3="1" operator="arithmetic"/><feColorMatrix type="matrix" values="0 0 0 0 0.309804 0 0 0 0 0.270588 0 0 0 0 0.34902 0 0 0 1 0"/><feBlend in2="shape" mode="normal" result="effect1_innerShadow_18_24377"/></filter><linearGradient id="g" gradientUnits="userSpaceOnUse" x1="15.384" x2="9.108" y1="20.161" y2="20.073"><stop offset=".096" stop-color="#9f9ca1"/><stop offset="1" stop-color="#675b74"/></linearGradient><linearGradient id="h" gradientUnits="userSpaceOnUse" x1="9.395" x2="10.412" y1="21.2" y2="21.155"><stop offset=".103" stop-color="#564964"/><stop offset="1" stop-color="#6d6178" stop-opacity="0"/></linearGradient><linearGradient id="i" gradientUnits="userSpaceOnUse" x1="16.643" x2="15.693" y1="22.923" y2="22.945"><stop offset="0" stop-color="#706f70"/><stop offset="1" stop-color="#a09ea2" stop-opacity="0"/></linearGradient><linearGradient id="j" gradientUnits="userSpaceOnUse" x1="12.958" x2="13.395" y1="14.373" y2="17.244"><stop offset=".326" stop-color="#62566e"/><stop offset="1" stop-color="#62566e" stop-opacity="0"/></linearGradient><linearGradient id="k" gradientUnits="userSpaceOnUse" x1="27.59" x2="23.244" y1="23.208" y2="27.455"><stop offset=".156" stop-color="#9d9aa0"/><stop offset="1" stop-color="#675b74"/></linearGradient><linearGradient id="l" gradientUnits="userSpaceOnUse" x1="22.59" x2="24.621" y1="23.708" y2="24.864"><stop offset=".287" stop-color="#6e607d"/><stop offset="1" stop-color="#6e607d" stop-opacity="0"/></linearGradient><linearGradient id="m" gradientUnits="userSpaceOnUse" x1="28.871" x2="28.059" y1="23.77" y2="24.583"><stop offset="0" stop-color="#6b696f"/><stop offset="1" stop-color="#7e7687" stop-opacity="0"/></linearGradient><radialGradient id="n" cx="0" cy="0" gradientTransform="matrix(-4.15624251 3.93751461 -1.52569716 -1.61044923 30.84 26.1141)" gradientUnits="userSpaceOnUse" r="1"><stop offset=".301" stop-color="#6e6a72"/><stop offset="1" stop-color="#6e6a72" stop-opacity="0"/></radialGradient><linearGradient id="o"><stop offset="0" stop-color="#9c999f"/><stop offset="1" stop-color="#746087"/></linearGradient><linearGradient id="p" gradientUnits="userSpaceOnUse" x1="15.402" x2="11.215" xlink:href="#o" y1="10.958" y2="17.076"/><linearGradient id="q"><stop offset=".208" stop-color="#c6c0cc"/><stop offset="1" stop-color="#c6c0cc" stop-opacity="0"/></linearGradient><radialGradient id="r" cx="0" cy="0" gradientTransform="matrix(-3.50000674 4.59375025 -.54608975 -.41606916 15.1837 11.7391)" gradientUnits="userSpaceOnUse" r="1" xlink:href="#q"/><linearGradient id="s" gradientUnits="userSpaceOnUse" x1="26.137" x2="21.949" xlink:href="#o" y1="21.669" y2="27.787"/><radialGradient id="t" cx="0" cy="0" gradientTransform="matrix(-3.50000674 4.59375025 -.54608975 -.41606916 25.9181 22.4498)" gradientUnits="userSpaceOnUse" r="1" xlink:href="#q"/><linearGradient id="u" gradientUnits="userSpaceOnUse" x1="17.059" x2="12.871" xlink:href="#o" y1="12.63" y2="18.748"/><radialGradient id="v" cx="0" cy="0" gradientTransform="matrix(-3.50000674 4.59375025 -.54608975 -.41606916 16.84 13.411)" gradientUnits="userSpaceOnUse" r="1" xlink:href="#q"/><linearGradient id="w" gradientUnits="userSpaceOnUse" x1="27.793" x2="23.606" xlink:href="#o" y1="23.34" y2="29.458"/><radialGradient id="x" cx="0" cy="0" gradientTransform="matrix(-3.50000674 4.59375025 -.54608975 -.41606916 27.5743 24.1217)" gradientUnits="userSpaceOnUse" r="1" xlink:href="#q"/><linearGradient id="y" gradientUnits="userSpaceOnUse" x1="18.715" x2="14.527" xlink:href="#o" y1="14.302" y2="20.42"/><radialGradient id="z" cx="0" cy="0" gradientTransform="matrix(-3.50000674 4.59375025 -.54608975 -.41606916 18.4962 15.0829)" gradientUnits="userSpaceOnUse" r="1" xlink:href="#q"/><linearGradient id="A"><stop offset="0" stop-color="#c4c1c7"/><stop offset="1" stop-color="#c4c2c6"/></linearGradient><linearGradient id="B" gradientUnits="userSpaceOnUse" x1="11.896" x2="15.959" xlink:href="#A" y1="8.558" y2="4.246"/><linearGradient id="C"><stop offset="0" stop-color="#7a7183"/><stop offset="1" stop-color="#aeaab4" stop-opacity="0"/></linearGradient><linearGradient id="D" gradientUnits="userSpaceOnUse" x1="16.552" x2="16.076" xlink:href="#C" y1="8.589" y2="8.097"/><linearGradient id="E"><stop offset=".15" stop-color="#abaaac"/><stop offset="1" stop-color="#bfbec1" stop-opacity="0"/></linearGradient><linearGradient id="F" gradientUnits="userSpaceOnUse" x1="11.162" x2="11.574" xlink:href="#E" y1="3.261" y2="3.677"/><linearGradient id="G"><stop offset="0" stop-color="#b8b0c2"/><stop offset="1" stop-color="#a197ac"/></linearGradient><linearGradient id="H" gradientUnits="userSpaceOnUse" x1="11.934" x2="8.277" xlink:href="#G" y1="8.177" y2="12.208"/><linearGradient id="I"><stop offset=".324" stop-color="#847295"/><stop offset="1" stop-color="#9e91ad" stop-opacity="0"/></linearGradient><linearGradient id="J" gradientUnits="userSpaceOnUse" x1="13.17" x2="12.671" xlink:href="#I" y1="12.219" y2="11.704"/><linearGradient id="K"><stop offset=".297" stop-color="#a9a7ac"/><stop offset="1" stop-color="#aba2b6" stop-opacity="0"/></linearGradient><linearGradient id="L" gradientUnits="userSpaceOnUse" x1="7.53" x2="8.168" xlink:href="#K" y1="6.645" y2="7.239"/><linearGradient id="M"><stop offset="0" stop-color="#7b7087"/><stop offset="1" stop-color="#8a7d98"/></linearGradient><linearGradient id="N" gradientUnits="userSpaceOnUse" x1="4.84" x2="8.902" xlink:href="#M" y1="15.614" y2="11.302"/><linearGradient id="O"><stop offset=".185" stop-color="#5e3d78"/><stop offset="1" stop-color="#7c7087" stop-opacity="0"/></linearGradient><linearGradient id="P" gradientUnits="userSpaceOnUse" x1="9.496" x2="9.02" xlink:href="#O" y1="15.645" y2="15.153"/><linearGradient id="Q"><stop offset=".297" stop-color="#8b888e"/><stop offset="1" stop-color="#7c7087" stop-opacity="0"/></linearGradient><linearGradient id="R" gradientUnits="userSpaceOnUse" x1="4.106" x2="4.59" xlink:href="#Q" y1="10.317" y2="10.794"/><linearGradient id="S" gradientUnits="userSpaceOnUse" x1="22.56" x2="26.622" xlink:href="#A" y1="19.183" y2="14.871"/><linearGradient id="T" gradientUnits="userSpaceOnUse" x1="27.216" x2="26.74" xlink:href="#C" y1="19.214" y2="18.722"/><linearGradient id="U" gradientUnits="userSpaceOnUse" x1="21.826" x2="22.238" xlink:href="#E" y1="13.886" y2="14.302"/><linearGradient id="V" gradientUnits="userSpaceOnUse" x1="22.598" x2="18.942" xlink:href="#G" y1="18.802" y2="22.833"/><linearGradient id="W" gradientUnits="userSpaceOnUse" x1="23.834" x2="23.335" xlink:href="#I" y1="22.844" y2="22.329"/><linearGradient id="X" gradientUnits="userSpaceOnUse" x1="18.194" x2="18.832" xlink:href="#K" y1="17.27" y2="17.864"/><linearGradient id="Y" gradientUnits="userSpaceOnUse" x1="15.504" x2="19.567" xlink:href="#M" y1="26.239" y2="21.927"/><linearGradient id="Z" gradientUnits="userSpaceOnUse" x1="20.16" x2="19.684" xlink:href="#O" y1="26.27" y2="25.778"/><linearGradient id="aa" gradientUnits="userSpaceOnUse" x1="14.77" x2="15.254" xlink:href="#Q" y1="20.942" y2="21.419"/><rect fill="#e7c823" fill-opacity=".3" height="7.55" rx=".6" transform="matrix(.70710678 -.70710678 .70710678 .70710678 -8.45769 4.961131)" width="15.402" x="1.76" y="12.69"/><rect fill="#e7c823" fill-opacity=".3" height="7.55" rx=".6" transform="matrix(.70710678 -.70710678 .70710678 .70710678 -12.847277 15.613729)" width="15.402" x="12.424" y="23.315"/><path d="m9.58313 14.3729h6.75064v8.85938h-6.75064z" fill="url(#g)" transform="matrix(.70710678 -.70710678 .70710678 .70710678 -7.356341 10.986021)"/><path d="m9.58313 14.3729h6.75064v8.85938h-6.75064z" fill="url(#h)" transform="matrix(.70710678 -.70710678 .70710678 .70710678 -7.356341 10.986021)"/><path d="m9.58313 14.3729h6.75064v8.85938h-6.75064z" fill="url(#i)" transform="matrix(.70710678 -.70710678 .70710678 .70710678 -7.356341 10.986021)"/><path d="m9.58313 14.3729h6.75064v8.85938h-6.75064z" fill="url(#j)" transform="matrix(.70710678 -.70710678 .70710678 .70710678 -7.356341 10.986021)"/><g filter="url(#a)"><path d="m20.3175 25.0836 4.7734-4.7734 4.2693 4.2693c.703.7029.703 1.8426 0 2.5456l-2.2278 2.2278c-.7029.703-1.8426.703-2.5456 0z" fill="url(#k)"/><path d="m20.3175 25.0836 4.7734-4.7734 4.2693 4.2693c.703.7029.703 1.8426 0 2.5456l-2.2278 2.2278c-.7029.703-1.8426.703-2.5456 0z" fill="url(#l)"/><path d="m20.3175 25.0836 4.7734-4.7734 4.2693 4.2693c.703.7029.703 1.8426 0 2.5456l-2.2278 2.2278c-.7029.703-1.8426.703-2.5456 0z" fill="url(#m)"/><path d="m20.3175 25.0836 4.7734-4.7734 4.2693 4.2693c.703.7029.703 1.8426 0 2.5456l-2.2278 2.2278c-.7029.703-1.8426.703-2.5456 0z" fill="url(#n)"/></g><g filter="url(#b)"><path d="m15.2469 10.3625c.1787-.2464.5234-.3013.7698-.1226.2465.1788.3013.5235.1226.7699l-4.2347 5.8384c-.1788.2465-.5234.3013-.7699.1226-.2464-.1788-.3013-.5234-.1225-.7699z" fill="url(#p)"/><path d="m15.2469 10.3625c.1787-.2464.5234-.3013.7698-.1226.2465.1788.3013.5235.1226.7699l-4.2347 5.8384c-.1788.2465-.5234.3013-.7699.1226-.2464-.1788-.3013-.5234-.1225-.7699z" fill="url(#r)"/></g><g filter="url(#c)"><path d="m25.9812 21.0732c.1788-.2464.5235-.3013.7699-.1226.2464.1788.3013.5235.1226.7699l-4.2347 5.8384c-.1788.2464-.5235.3013-.7699.1226-.2464-.1788-.3013-.5235-.1226-.7699z" fill="url(#s)"/><path d="m25.9812 21.0732c.1788-.2464.5235-.3013.7699-.1226.2464.1788.3013.5235.1226.7699l-4.2347 5.8384c-.1788.2464-.5235.3013-.7699.1226-.2464-.1788-.3013-.5235-.1226-.7699z" fill="url(#t)"/></g><g filter="url(#d)"><path d="m16.9031 12.0344c.1788-.2465.5234-.3013.7699-.1226.2464.1788.3013.5234.1225.7699l-4.2347 5.8384c-.1787.2464-.5234.3013-.7698.1226-.2465-.1788-.3013-.5235-.1226-.7699z" fill="url(#u)"/><path d="m16.9031 12.0344c.1788-.2465.5234-.3013.7699-.1226.2464.1788.3013.5234.1225.7699l-4.2347 5.8384c-.1787.2464-.5234.3013-.7698.1226-.2465-.1788-.3013-.5235-.1226-.7699z" fill="url(#v)"/></g><g filter="url(#e)"><path d="m27.6375 22.7451c.1787-.2465.5234-.3013.7698-.1226.2465.1788.3014.5234.1226.7699l-4.2347 5.8384c-.1787.2464-.5234.3013-.7698.1226-.2465-.1788-.3014-.5235-.1226-.7699z" fill="url(#w)"/><path d="m27.6375 22.7451c.1787-.2465.5234-.3013.7698-.1226.2465.1788.3014.5234.1226.7699l-4.2347 5.8384c-.1787.2464-.5234.3013-.7698.1226-.2465-.1788-.3014-.5235-.1226-.7699z" fill="url(#x)"/></g><g filter="url(#f)"><path d="m18.5594 13.7063c.1787-.2465.5234-.3014.7698-.1226.2465.1787.3013.5234.1226.7699l-4.2347 5.8384c-.1788.2464-.5234.3013-.7699.1225-.2464-.1787-.3013-.5234-.1225-.7698z" fill="url(#y)"/><path d="m18.5594 13.7063c.1787-.2465.5234-.3014.7698-.1226.2465.1787.3013.5234.1226.7699l-4.2347 5.8384c-.1788.2464-.5234.3013-.7699.1225-.2464-.1787-.3013-.5234-.1225-.7698z" fill="url(#z)"/></g><path d="m14.4031 10.7242-5.33873-5.33885 3.16203-3.16225c.2344-.23432.6143-.23432.8485 0l4.4904 4.49029c.0017.00171.0033.00342.005.00513.2291.23468.2275.61078-.005.84338z" fill="url(#B)"/><path d="m14.4031 10.7242-5.33873-5.33885 3.16203-3.16225c.2344-.23432.6143-.23432.8485 0l4.4904 4.49029c.0017.00171.0033.00342.005.00513.2291.23468.2275.61078-.005.84338z" fill="url(#D)"/><path d="m14.4031 10.7242-5.33873-5.33885 3.16203-3.16225c.2344-.23432.6143-.23432.8485 0l4.4904 4.49029c.0017.00171.0033.00342.005.00513.2291.23468.2275.61078-.005.84338z" fill="url(#F)"/><path d="m14.4135 10.7138-3.7387 3.7387-5.33886-5.33879 3.73877-3.73871z" fill="url(#H)"/><path d="m14.4135 10.7138-3.7387 3.7387-5.33886-5.33879 3.73877-3.73871z" fill="url(#J)"/><path d="m14.4135 10.7138-3.7387 3.7387-5.33886-5.33879 3.73877-3.73871z" fill="url(#L)"/><path d="m2.18408 12.2656c-.23437.2343-.23437.6142 0 .8485l4.49024 4.4904c.23437.2343.61425.2343.84851 0l3.16227-3.1622-5.33891-5.33885z" fill="url(#N)"/><path d="m2.18408 12.2656c-.23437.2343-.23437.6142 0 .8485l4.49024 4.4904c.23437.2343.61425.2343.84851 0l3.16227-3.1622-5.33891-5.33885z" fill="url(#P)"/><path d="m2.18408 12.2656c-.23437.2343-.23437.6142 0 .8485l4.49024 4.4904c.23437.2343.61425.2343.84851 0l3.16227-3.1622-5.33891-5.33885z" fill="url(#R)"/><path d="m25.0672 21.3492-5.3388-5.3388 3.1621-3.1623c.2343-.2343.6142-.2343.8485 0l4.4903 4.4903c.0017.0017.0033.0034.005.0051.2292.2347.2276.6108-.005.8434z" fill="url(#S)"/><path d="m25.0672 21.3492-5.3388-5.3388 3.1621-3.1623c.2343-.2343.6142-.2343.8485 0l4.4903 4.4903c.0017.0017.0033.0034.005.0051.2292.2347.2276.6108-.005.8434z" fill="url(#T)"/><path d="m25.0672 21.3492-5.3388-5.3388 3.1621-3.1623c.2343-.2343.6142-.2343.8485 0l4.4903 4.4903c.0017.0017.0033.0034.005.0051.2292.2347.2276.6108-.005.8434z" fill="url(#U)"/><path d="m25.0775 21.3388-3.7386 3.7387-5.3389-5.3388 3.7388-3.7387z" fill="url(#V)"/><path d="m25.0775 21.3388-3.7386 3.7387-5.3389-5.3388 3.7388-3.7387z" fill="url(#W)"/><path d="m25.0775 21.3388-3.7386 3.7387-5.3389-5.3388 3.7388-3.7387z" fill="url(#X)"/><path d="m12.8481 22.8906c-.2343.2343-.2343.6142 0 .8485l4.4903 4.4904c.2344.2343.6142.2343.8485 0l3.1622-3.1622-5.3388-5.3388z" fill="url(#Y)"/><path d="m12.8481 22.8906c-.2343.2343-.2343.6142 0 .8485l4.4903 4.4904c.2344.2343.6142.2343.8485 0l3.1622-3.1622-5.3388-5.3388z" fill="url(#Z)"/><path d="m12.8481 22.8906c-.2343.2343-.2343.6142 0 .8485l4.4903 4.4904c.2344.2343.6142.2343.8485 0l3.1622-3.1622-5.3388-5.3388z" fill="url(#aa)"/></svg>