<svg fill="none" height="32" viewBox="0 0 32 32" width="32" xmlns="http://www.w3.org/2000/svg" xmlns:xlink="http://www.w3.org/1999/xlink"><filter id="a" color-interpolation-filters="sRGB" filterUnits="userSpaceOnUse" height="2.049" width="1.837" x="27.163" y="16.104"><feFlood flood-opacity="0" result="BackgroundImageFix"/><feBlend in="SourceGraphic" in2="BackgroundImageFix" mode="normal" result="shape"/><feColorMatrix in="SourceAlpha" result="hardAlpha" type="matrix" values="0 0 0 0 0 0 0 0 0 0 0 0 0 0 0 0 0 0 127 0"/><feOffset dx="-.4"/><feGaussianBlur stdDeviation=".2"/><feComposite in2="hardAlpha" k2="-1" k3="1" operator="arithmetic"/><feColorMatrix type="matrix" values="0 0 0 0 0.780392 0 0 0 0 0.482353 0 0 0 0 0.117647 0 0 0 1 0"/><feBlend in2="shape" mode="normal" result="effect1_innerShadow_18_7454"/></filter><filter id="b" color-interpolation-filters="sRGB" filterUnits="userSpaceOnUse" height="3.287" width="4.1" x="22.85" y="15.869"><feFlood flood-opacity="0" result="BackgroundImageFix"/><feBlend in="SourceGraphic" in2="BackgroundImageFix" mode="normal" result="shape"/><feColorMatrix in="SourceAlpha" result="hardAlpha" type="matrix" values="0 0 0 0 0 0 0 0 0 0 0 0 0 0 0 0 0 0 127 0"/><feOffset dx=".15" dy="-.4"/><feGaussianBlur stdDeviation=".25"/><feComposite in2="hardAlpha" k2="-1" k3="1" operator="arithmetic"/><feColorMatrix type="matrix" values="0 0 0 0 1 0 0 0 0 0.87451 0 0 0 0 0.164706 0 0 0 1 0"/><feBlend in2="shape" mode="normal" result="effect1_innerShadow_18_7454"/><feColorMatrix in="SourceAlpha" result="hardAlpha" type="matrix" values="0 0 0 0 0 0 0 0 0 0 0 0 0 0 0 0 0 0 127 0"/><feOffset dx="-.4" dy=".3"/><feGaussianBlur stdDeviation=".25"/><feComposite in2="hardAlpha" k2="-1" k3="1" operator="arithmetic"/><feColorMatrix type="matrix" values="0 0 0 0 0.780392 0 0 0 0 0.482353 0 0 0 0 0.117647 0 0 0 1 0"/><feBlend in2="effect1_innerShadow_18_7454" mode="normal" result="effect2_innerShadow_18_7454"/></filter><filter id="c" color-interpolation-filters="sRGB" filterUnits="userSpaceOnUse" height="2.733" width="2.795" x="19.575" y="16.526"><feFlood flood-opacity="0" result="BackgroundImageFix"/><feBlend in="SourceGraphic" in2="BackgroundImageFix" mode="normal" result="shape"/><feColorMatrix in="SourceAlpha" result="hardAlpha" type="matrix" values="0 0 0 0 0 0 0 0 0 0 0 0 0 0 0 0 0 0 127 0"/><feOffset dx=".15" dy="-.15"/><feGaussianBlur stdDeviation=".125"/><feComposite in2="hardAlpha" k2="-1" k3="1" operator="arithmetic"/><feColorMatrix type="matrix" values="0 0 0 0 1 0 0 0 0 0.921569 0 0 0 0 0.435294 0 0 0 1 0"/><feBlend in2="shape" mode="normal" result="effect1_innerShadow_18_7454"/><feColorMatrix in="SourceAlpha" result="hardAlpha" type="matrix" values="0 0 0 0 0 0 0 0 0 0 0 0 0 0 0 0 0 0 127 0"/><feOffset dx="-.4"/><feGaussianBlur stdDeviation=".2"/><feComposite in2="hardAlpha" k2="-1" k3="1" operator="arithmetic"/><feColorMatrix type="matrix" values="0 0 0 0 0.780392 0 0 0 0 0.482353 0 0 0 0 0.117647 0 0 0 1 0"/><feBlend in2="effect1_innerShadow_18_7454" mode="normal" result="effect2_innerShadow_18_7454"/></filter><filter id="d" color-interpolation-filters="sRGB" filterUnits="userSpaceOnUse" height="2.057" width="1.688" x="3" y="16.094"><feFlood flood-opacity="0" result="BackgroundImageFix"/><feBlend in="SourceGraphic" in2="BackgroundImageFix" mode="normal" result="shape"/><feColorMatrix in="SourceAlpha" result="hardAlpha" type="matrix" values="0 0 0 0 0 0 0 0 0 0 0 0 0 0 0 0 0 0 127 0"/><feOffset dx=".4"/><feGaussianBlur stdDeviation=".125"/><feComposite in2="hardAlpha" k2="-1" k3="1" operator="arithmetic"/><feColorMatrix type="matrix" values="0 0 0 0 0.745098 0 0 0 0 0.439216 0 0 0 0 0.0901961 0 0 0 1 0"/><feBlend in2="shape" mode="normal" result="effect1_innerShadow_18_7454"/></filter><filter id="e" color-interpolation-filters="sRGB" filterUnits="userSpaceOnUse" height="2.887" width="4.05" x="4.96" y="16.109"><feFlood flood-opacity="0" result="BackgroundImageFix"/><feBlend in="SourceGraphic" in2="BackgroundImageFix" mode="normal" result="shape"/><feColorMatrix in="SourceAlpha" result="hardAlpha" type="matrix" values="0 0 0 0 0 0 0 0 0 0 0 0 0 0 0 0 0 0 127 0"/><feOffset dx="-.25" dy=".15"/><feGaussianBlur stdDeviation=".275"/><feComposite in2="hardAlpha" k2="-1" k3="1" operator="arithmetic"/><feColorMatrix type="matrix" values="0 0 0 0 0.54902 0 0 0 0 0.317647 0 0 0 0 0.117647 0 0 0 1 0"/><feBlend in2="shape" mode="normal" result="effect1_innerShadow_18_7454"/><feColorMatrix in="SourceAlpha" result="hardAlpha" type="matrix" values="0 0 0 0 0 0 0 0 0 0 0 0 0 0 0 0 0 0 127 0"/><feOffset dx=".25" dy="-.15"/><feGaussianBlur stdDeviation=".25"/><feComposite in2="hardAlpha" k2="-1" k3="1" operator="arithmetic"/><feColorMatrix type="matrix" values="0 0 0 0 0.921569 0 0 0 0 0.607843 0 0 0 0 0.164706 0 0 0 1 0"/><feBlend in2="effect1_innerShadow_18_7454" mode="normal" result="effect2_innerShadow_18_7454"/></filter><filter id="f" color-interpolation-filters="sRGB" filterUnits="userSpaceOnUse" height="3.622" width="5.98" x="13.01" y="16.668"><feFlood flood-opacity="0" result="BackgroundImageFix"/><feBlend in="SourceGraphic" in2="BackgroundImageFix" mode="normal" result="shape"/><feColorMatrix in="SourceAlpha" result="hardAlpha" type="matrix" values="0 0 0 0 0 0 0 0 0 0 0 0 0 0 0 0 0 0 127 0"/><feOffset dx=".25" dy="-.25"/><feGaussianBlur stdDeviation=".25"/><feComposite in2="hardAlpha" k2="-1" k3="1" operator="arithmetic"/><feColorMatrix type="matrix" values="0 0 0 0 0.960784 0 0 0 0 0.709804 0 0 0 0 0.141176 0 0 0 1 0"/><feBlend in2="shape" mode="normal" result="effect1_innerShadow_18_7454"/><feColorMatrix in="SourceAlpha" result="hardAlpha" type="matrix" values="0 0 0 0 0 0 0 0 0 0 0 0 0 0 0 0 0 0 127 0"/><feOffset dx="-.25" dy=".25"/><feGaussianBlur stdDeviation=".25"/><feComposite in2="hardAlpha" k2="-1" k3="1" operator="arithmetic"/><feColorMatrix type="matrix" values="0 0 0 0 0.780392 0 0 0 0 0.482353 0 0 0 0 0.117647 0 0 0 1 0"/><feBlend in2="effect1_innerShadow_18_7454" mode="normal" result="effect2_innerShadow_18_7454"/></filter><filter id="g" color-interpolation-filters="sRGB" filterUnits="userSpaceOnUse" height="2.574" width="2.545" x="9.78" y="16.686"><feFlood flood-opacity="0" result="BackgroundImageFix"/><feBlend in="SourceGraphic" in2="BackgroundImageFix" mode="normal" result="shape"/><feColorMatrix in="SourceAlpha" result="hardAlpha" type="matrix" values="0 0 0 0 0 0 0 0 0 0 0 0 0 0 0 0 0 0 127 0"/><feOffset dx=".3"/><feGaussianBlur stdDeviation=".3"/><feComposite in2="hardAlpha" k2="-1" k3="1" operator="arithmetic"/><feColorMatrix type="matrix" values="0 0 0 0 0.960784 0 0 0 0 0.647059 0 0 0 0 0.145098 0 0 0 1 0"/><feBlend in2="shape" mode="normal" result="effect1_innerShadow_18_7454"/></filter><linearGradient id="h" gradientUnits="userSpaceOnUse" x1="16" x2="30" y1="16.002" y2="16.002"><stop offset="0" stop-color="#525054"/><stop offset="1" stop-color="#655b6f"/></linearGradient><linearGradient id="i" gradientUnits="userSpaceOnUse" x1="25.281" x2="25.176" y1="26.477" y2="26.2"><stop offset=".201" stop-color="#382c43"/><stop offset="1" stop-color="#382c43" stop-opacity="0"/></linearGradient><linearGradient id="j" gradientUnits="userSpaceOnUse" x1="14.71" x2="4.531" y1="14.358" y2="17.315"><stop offset="0" stop-color="#2d292f"/><stop offset="1" stop-color="#34293b"/></linearGradient><linearGradient id="k" gradientUnits="userSpaceOnUse" x1="2" x2="30" y1="12.413" y2="12.413"><stop offset=".097" stop-color="#bd7a28"/><stop offset=".494" stop-color="#dc9f36"/><stop offset=".513" stop-color="#ffd060"/><stop offset=".997" stop-color="#ffeb61"/></linearGradient><linearGradient id="l"><stop offset="0" stop-color="#ad672d"/><stop offset="1" stop-color="#ad672d" stop-opacity="0"/></linearGradient><linearGradient id="m" gradientUnits="userSpaceOnUse" x1="16" x2="16" xlink:href="#l" y1="10.101" y2="11.441"/><linearGradient id="n" gradientUnits="userSpaceOnUse" x1="18.703" x2="18.582" xlink:href="#l" y1="10.101" y2="11.359"/><linearGradient id="o" gradientUnits="userSpaceOnUse" x1="13.226" x2="13.307" xlink:href="#l" y1="10.37" y2="11.197"/><linearGradient id="p" gradientUnits="userSpaceOnUse" x1="27.938" x2="28.281" y1="17.962" y2="17.602"><stop offset="0" stop-color="#ffed64"/><stop offset="1" stop-color="#ffed64" stop-opacity="0"/></linearGradient><linearGradient id="q" gradientUnits="userSpaceOnUse" x1="23.594" x2="27.469" y1="18.856" y2="17.759"><stop offset="0" stop-color="#ffe964"/><stop offset="1" stop-color="#ffce5b"/></linearGradient><linearGradient id="r" gradientUnits="userSpaceOnUse" x1="4.438" x2="3.349" y1="16.585" y2="17.735"><stop offset="0" stop-color="#79350b"/><stop offset="1" stop-color="#a76226"/></linearGradient><linearGradient id="s" gradientUnits="userSpaceOnUse" x1="5.21" x2="9.507" y1="17.552" y2="17.908"><stop offset="0" stop-color="#c87d26"/><stop offset="1" stop-color="#a66826"/></linearGradient><linearGradient id="t" gradientUnits="userSpaceOnUse" x1="13.26" x2="18.74" y1="18.066" y2="18.066"><stop offset="0" stop-color="#ffc463"/><stop offset=".134" stop-color="#d59430"/><stop offset=".471" stop-color="#da9c32"/><stop offset=".542" stop-color="#ffd465"/><stop offset=".875" stop-color="#ffc15e"/><stop offset="1" stop-color="#e5a645"/></linearGradient><linearGradient id="u" gradientUnits="userSpaceOnUse" x1="10.469" x2="12.025" y1="18.54" y2="17.227"><stop offset="0" stop-color="#bf7b2a"/><stop offset="1" stop-color="#a35f28"/></linearGradient><path d="m30 7.72031c0-.10273-.0628-.19501-.1584-.23263l-13.8416-5.44764v27.91996l13.8414-5.4377c.0957-.0375.1586-.1299.1586-.2326z" fill="url(#h)"/><path d="m30 7.72031c0-.10273-.0628-.19501-.1584-.23263l-13.8416-5.44764v27.91996l13.8414-5.4377c.0957-.0375.1586-.1299.1586-.2326z" fill="url(#i)"/><path d="m2 7.72031c0-.10273.06285-.19501.15844-.23263l13.84156-5.44764v27.91996l-13.84141-5.4377c-.09567-.0375-.15859-.1299-.15859-.2326z" fill="url(#j)"/><g clip-rule="evenodd" fill-rule="evenodd"><path d="m2 14.45 14-.12h.21l13.79-.29v-2l-12.72-1.59c-.42-.05-.85-.08-1.28-.08s-.86.03-1.28.08l-12.72 1.59z" fill="url(#k)"/><path d="m2 14.45 14-.12h.21l13.79-.29v-2l-12.72-1.59c-.42-.05-.85-.08-1.28-.08s-.86.03-1.28.08l-12.72 1.59z" fill="url(#m)"/><path d="m2 14.45 14-.12h.21l13.79-.29v-2l-12.72-1.59c-.42-.05-.85-.08-1.28-.08s-.86.03-1.28.08l-12.72 1.59z" fill="url(#n)"/><path d="m2 14.45 14-.12h.21l13.79-.29v-2l-12.72-1.59c-.42-.05-.85-.08-1.28-.08s-.86.03-1.28.08l-12.72 1.59z" fill="url(#o)"/></g><g filter="url(#a)"><path d="m28.45 18.04.49-.78c.08-.13.08-.31 0-.42l-.49-.66c-.08-.11-.22-.1-.3.03l-.52.78c-.09.13-.09.33 0 .44l.52.66c.08.1.22.08.3-.05z" fill="#ffcd56"/><path d="m28.45 18.04.49-.78c.08-.13.08-.31 0-.42l-.49-.66c-.08-.11-.22-.1-.3.03l-.52.78c-.09.13-.09.33 0 .44l.52.66c.08.1.22.08.3-.05z" fill="url(#p)"/></g><g filter="url(#b)"><path d="m26.8 17.76v-.9c0-.35-.21-.61-.47-.59l-2.51.2c-.31.03-.57.36-.57.75v1.01c0 .39.26.67.57.62l2.51-.38c.26-.05.47-.36.47-.71z" fill="url(#q)"/></g><g filter="url(#c)"><path d="m20.9 19.18-.82-.81c-.14-.14-.14-.39 0-.56l.82-1c.13-.16.34-.18.47-.04l.76.81c.12.13.12.37 0 .53l-.76.99c-.13.18-.34.21-.47.08z" fill="#ffcf60"/></g><g filter="url(#d)"><path d="m3.85 18.08.52-.66c.09-.11.09-.31 0-.44l-.52-.78c-.08-.13-.22-.14-.3-.03l-.49.67c-.08.11-.08.3 0 .42l.49.78c.08.13.22.15.3.04z" fill="url(#r)"/></g><g filter="url(#e)"><path d="m5.68006 18.46 2.51.38c.31.05.57-.23.57-.62v-1.01c0-.39-.26-.73-.57-.75l-2.51-.2c-.26-.02-.47.24-.47.59v.9c-.01.36.2.67.47.71z" fill="url(#s)"/></g><g filter="url(#f)"><path d="m16 20.04-1.98-.32c-.42-.07-.76-.48-.76-.92v-1.14c0-.44.34-.77.76-.74l1.98.18 1.98-.18c.42-.03.76.3.76.74v1.14c0 .44-.34.85-.76.92z" fill="url(#t)"/></g><g filter="url(#g)"><path d="m10.63 19.11-.75997-.99c-.12-.16-.12-.39 0-.53l.75997-.81c.13-.14.34-.12.47.04l.82 1c.14.17.14.42 0 .56l-.82.8c-.13.13-.34.1-.47-.07z" fill="url(#u)"/></g></svg>