<svg fill="none" height="32" viewBox="0 0 32 32" width="32" xmlns="http://www.w3.org/2000/svg" xmlns:xlink="http://www.w3.org/1999/xlink"><filter id="a" color-interpolation-filters="sRGB" filterUnits="userSpaceOnUse" height="28.977" width="19.914" x="6.168" y=".981"><feFlood flood-opacity="0" result="BackgroundImageFix"/><feBlend in="SourceGraphic" in2="BackgroundImageFix" mode="normal" result="shape"/><feColorMatrix in="SourceAlpha" result="hardAlpha" type="matrix" values="0 0 0 0 0 0 0 0 0 0 0 0 0 0 0 0 0 0 127 0"/><feOffset dx=".25" dy="-1"/><feGaussianBlur stdDeviation=".75"/><feComposite in2="hardAlpha" k2="-1" k3="1" operator="arithmetic"/><feColorMatrix type="matrix" values="0 0 0 0 0.717647 0 0 0 0 0.443137 0 0 0 0 0.572549 0 0 0 1 0"/><feBlend in2="shape" mode="normal" result="effect1_innerShadow_20020_5380"/></filter><filter id="b" color-interpolation-filters="sRGB" filterUnits="userSpaceOnUse" height="16.887" width="8.938" x="18.359" y="11.656"><feFlood flood-opacity="0" result="BackgroundImageFix"/><feBlend in="SourceGraphic" in2="BackgroundImageFix" mode="normal" result="shape"/><feGaussianBlur result="effect1_foregroundBlur_20020_5380" stdDeviation="1.25"/></filter><filter id="c" color-interpolation-filters="sRGB" filterUnits="userSpaceOnUse" height="13.8" width="3.75" x="14.125" y="2.252"><feFlood flood-opacity="0" result="BackgroundImageFix"/><feBlend in="SourceGraphic" in2="BackgroundImageFix" mode="normal" result="shape"/><feGaussianBlur result="effect1_foregroundBlur_20020_5380" stdDeviation=".625"/></filter><filter id="d" color-interpolation-filters="sRGB" filterUnits="userSpaceOnUse" height="4.735" width="4.222" x="14.28" y="12.265"><feFlood flood-opacity="0" result="BackgroundImageFix"/><feBlend in="SourceGraphic" in2="BackgroundImageFix" mode="normal" result="shape"/><feGaussianBlur result="effect1_foregroundBlur_20020_5380" stdDeviation=".375"/></filter><filter id="e" color-interpolation-filters="sRGB" filterUnits="userSpaceOnUse" height="5.235" width="4.722" x="11.398" y="12.015"><feFlood flood-opacity="0" result="BackgroundImageFix"/><feBlend in="SourceGraphic" in2="BackgroundImageFix" mode="normal" result="shape"/><feGaussianBlur result="effect1_foregroundBlur_20020_5380" stdDeviation=".5"/></filter><radialGradient id="f" cx="0" cy="0" gradientTransform="matrix(-12.50002928 14.68748472 -10.32348945 -8.78597819 24.1875 14.2309)" gradientUnits="userSpaceOnUse" r="1"><stop offset="0" stop-color="#f1ba9a"/><stop offset="1" stop-color="#dea492"/></radialGradient><radialGradient id="g" cx="0" cy="0" gradientTransform="matrix(1.21984428 2.80150439 -2.42064297 1.0540078 8.74891 13.4606)" gradientUnits="userSpaceOnUse" r="1"><stop offset="0" stop-color="#ca9977"/><stop offset="1" stop-color="#ca9977" stop-opacity="0"/></radialGradient><radialGradient id="h" cx="0" cy="0" gradientTransform="matrix(.28059352 2.65004643 -2.93551071 .31081919 7.51192 15.1667)" gradientUnits="userSpaceOnUse" r="1"><stop offset="0" stop-color="#bf8867"/><stop offset="1" stop-color="#bf8867" stop-opacity="0"/></radialGradient><radialGradient id="i" cx="0" cy="0" gradientTransform="matrix(1.04703634 -1.57055258 .87612367 .58408316 18.033 11.8945)" gradientUnits="userSpaceOnUse" r="1"><stop offset="0" stop-color="#cf966c"/><stop offset="1" stop-color="#cf966c" stop-opacity="0"/></radialGradient><radialGradient id="j" cx="0" cy="0" gradientTransform="matrix(-1.53126 1.62499046 -.88363983 -.83267093 23.125 11.8246)" gradientUnits="userSpaceOnUse" r="1"><stop offset="0" stop-color="#d6a37c"/><stop offset="1" stop-color="#d6a37c" stop-opacity="0"/></radialGradient><radialGradient id="k" cx="0" cy="0" gradientTransform="matrix(-1.92579746 2.21873738 -2.73606568 -2.37482289 25.832 13.1684)" gradientUnits="userSpaceOnUse" r="1"><stop offset="0" stop-color="#f4c69d"/><stop offset="1" stop-color="#f4c69d" stop-opacity="0"/></radialGradient><radialGradient id="l" cx="0" cy="0" gradientTransform="matrix(-.95712455 2.11930278 -1.6069685 -.72574293 20.544 12.5476)" gradientUnits="userSpaceOnUse" r="1"><stop offset="0" stop-color="#fecca5"/><stop offset="1" stop-color="#fecca5" stop-opacity="0"/></radialGradient><radialGradient id="m" cx="0" cy="0" gradientTransform="matrix(1.0937511 1.14062483 -.43901089 .42096984 8.53125 15.4379)" gradientUnits="userSpaceOnUse" r="1"><stop offset="0" stop-color="#be8562"/><stop offset="1" stop-color="#be8562" stop-opacity="0"/></radialGradient><radialGradient id="n" cx="0" cy="0" gradientTransform="matrix(.85937307 2.34374517 -1.49159284 .54691727 12.3906 11.7504)" gradientUnits="userSpaceOnUse" r="1"><stop offset="0" stop-color="#b37c5b"/><stop offset="1" stop-color="#b37c5b" stop-opacity="0"/></radialGradient><radialGradient id="o" cx="0" cy="0" gradientTransform="matrix(-18.56651669 4.07430077 -6.6100457 -30.12186159 25.541 19.0455)" gradientUnits="userSpaceOnUse" r="1"><stop offset=".866" stop-color="#cd917e" stop-opacity="0"/><stop offset="1" stop-color="#cd917e"/></radialGradient><radialGradient id="p" cx="0" cy="0" gradientTransform="matrix(-18.3473829 4.08297381 -6.62409617 -29.76625239 25.541 19.0455)" gradientUnits="userSpaceOnUse" r="1"><stop offset=".976" stop-color="#dc9f89" stop-opacity="0"/><stop offset="1" stop-color="#dc9f89"/></radialGradient><linearGradient id="q" gradientUnits="userSpaceOnUse" x1="13.092" x2="15.793" y1="9.749" y2="9.749"><stop offset="0" stop-color="#cf967c"/><stop offset="1" stop-color="#cf967c" stop-opacity="0"/></linearGradient><linearGradient id="r" gradientUnits="userSpaceOnUse" x1="18.889" x2="15.27" y1="10.752" y2="11.319"><stop offset="0" stop-color="#f2c29c"/><stop offset="1" stop-color="#f2c29c" stop-opacity="0"/></linearGradient><linearGradient id="s" gradientUnits="userSpaceOnUse" x1="14.733" x2="13.759" y1="14.257" y2="15.59"><stop offset="0" stop-color="#e4ab95" stop-opacity="0"/><stop offset="1" stop-color="#e4ab95"/></linearGradient><linearGradient id="t" gradientUnits="userSpaceOnUse" x1="15.314" x2="17.057" y1="14.564" y2="15.829"><stop offset="0" stop-color="#e9b197" stop-opacity="0"/><stop offset="1" stop-color="#e9b197"/></linearGradient><radialGradient id="u" cx="0" cy="0" gradientTransform="matrix(.87792388 2.66302868 -4.99485147 1.64665872 13.8409 1.58613)" gradientUnits="userSpaceOnUse" r="1"><stop offset="0" stop-color="#c79a79"/><stop offset="1" stop-color="#c79a79" stop-opacity="0"/></radialGradient><linearGradient id="v" gradientUnits="userSpaceOnUse" x1="24.565" x2="20.575" y1="14.233" y2="30.023"><stop offset="0" stop-color="#ffd0aa"/><stop offset="1" stop-color="#ffd0aa" stop-opacity="0"/></linearGradient><linearGradient id="w" gradientUnits="userSpaceOnUse" x1="17.212" x2="9.854" y1="3.263" y2="15.365"><stop offset="0" stop-color="#fecda8"/><stop offset="1" stop-color="#fecda8" stop-opacity="0"/></linearGradient><linearGradient id="x" gradientUnits="userSpaceOnUse" x1="17.974" x2="17.68" y1="13.216" y2="17.424"><stop offset="0" stop-color="#ffceaa"/><stop offset="1" stop-color="#ffceaa" stop-opacity="0"/></linearGradient><linearGradient id="y" gradientUnits="userSpaceOnUse" x1="11.656" x2="11.966" y1="12.844" y2="16.588"><stop offset="0" stop-color="#ba815e"/><stop offset="1" stop-color="#ba815e" stop-opacity="0"/></linearGradient><g filter="url(#a)"><path d="m12.6445 4.37149c0-1.32031 1.0703-2.39062 2.3907-2.39062 1.3203 0 2.3906 1.07031 2.3906 2.39062v7.58711c.4378-.5528 1.115-.9074 1.875-.9074 1.2058 0 2.203.8927 2.367 2.0533.4374-.4838 1.0701-.7877 1.7736-.7877 1.3203 0 2.3906 1.0703 2.3906 2.3906 0 .1601-.0157.3164-.0457.4676l-.2902 2.8527c-.1172 1.2422-.8399 6.0469-2.5273 7.9375-1.8252 2.4559-4.5755 3.9922-7.6446 3.9922-4.2796 0-7.80742-3.219-8.29423-7.3678l-.78418-4.4577c-.05075-.1889-.07782-.3875-.07782-.5924 0-1.2578 1.01959-2.2774 2.27734-2.2774.13684 0 .27088.0121.40113.0352-.10035-.2767-.15503-.5753-.15503-.8867 0-1.4368 1.16473-2.6016 2.60159-2.6016.495 0 .9576.1382 1.3515.3782z" fill="url(#f)"/><path d="m12.6445 4.37149c0-1.32031 1.0703-2.39062 2.3907-2.39062 1.3203 0 2.3906 1.07031 2.3906 2.39062v7.58711c.4378-.5528 1.115-.9074 1.875-.9074 1.2058 0 2.203.8927 2.367 2.0533.4374-.4838 1.0701-.7877 1.7736-.7877 1.3203 0 2.3906 1.0703 2.3906 2.3906 0 .1601-.0157.3164-.0457.4676l-.2902 2.8527c-.1172 1.2422-.8399 6.0469-2.5273 7.9375-1.8252 2.4559-4.5755 3.9922-7.6446 3.9922-4.2796 0-7.80742-3.219-8.29423-7.3678l-.78418-4.4577c-.05075-.1889-.07782-.3875-.07782-.5924 0-1.2578 1.01959-2.2774 2.27734-2.2774.13684 0 .27088.0121.40113.0352-.10035-.2767-.15503-.5753-.15503-.8867 0-1.4368 1.16473-2.6016 2.60159-2.6016.495 0 .9576.1382 1.3515.3782z" fill="url(#g)"/><path d="m12.6445 4.37149c0-1.32031 1.0703-2.39062 2.3907-2.39062 1.3203 0 2.3906 1.07031 2.3906 2.39062v7.58711c.4378-.5528 1.115-.9074 1.875-.9074 1.2058 0 2.203.8927 2.367 2.0533.4374-.4838 1.0701-.7877 1.7736-.7877 1.3203 0 2.3906 1.0703 2.3906 2.3906 0 .1601-.0157.3164-.0457.4676l-.2902 2.8527c-.1172 1.2422-.8399 6.0469-2.5273 7.9375-1.8252 2.4559-4.5755 3.9922-7.6446 3.9922-4.2796 0-7.80742-3.219-8.29423-7.3678l-.78418-4.4577c-.05075-.1889-.07782-.3875-.07782-.5924 0-1.2578 1.01959-2.2774 2.27734-2.2774.13684 0 .27088.0121.40113.0352-.10035-.2767-.15503-.5753-.15503-.8867 0-1.4368 1.16473-2.6016 2.60159-2.6016.495 0 .9576.1382 1.3515.3782z" fill="url(#h)"/><path d="m12.6445 4.37149c0-1.32031 1.0703-2.39062 2.3907-2.39062 1.3203 0 2.3906 1.07031 2.3906 2.39062v7.58711c.4378-.5528 1.115-.9074 1.875-.9074 1.2058 0 2.203.8927 2.367 2.0533.4374-.4838 1.0701-.7877 1.7736-.7877 1.3203 0 2.3906 1.0703 2.3906 2.3906 0 .1601-.0157.3164-.0457.4676l-.2902 2.8527c-.1172 1.2422-.8399 6.0469-2.5273 7.9375-1.8252 2.4559-4.5755 3.9922-7.6446 3.9922-4.2796 0-7.80742-3.219-8.29423-7.3678l-.78418-4.4577c-.05075-.1889-.07782-.3875-.07782-.5924 0-1.2578 1.01959-2.2774 2.27734-2.2774.13684 0 .27088.0121.40113.0352-.10035-.2767-.15503-.5753-.15503-.8867 0-1.4368 1.16473-2.6016 2.60159-2.6016.495 0 .9576.1382 1.3515.3782z" fill="url(#i)"/><path d="m12.6445 4.37149c0-1.32031 1.0703-2.39062 2.3907-2.39062 1.3203 0 2.3906 1.07031 2.3906 2.39062v7.58711c.4378-.5528 1.115-.9074 1.875-.9074 1.2058 0 2.203.8927 2.367 2.0533.4374-.4838 1.0701-.7877 1.7736-.7877 1.3203 0 2.3906 1.0703 2.3906 2.3906 0 .1601-.0157.3164-.0457.4676l-.2902 2.8527c-.1172 1.2422-.8399 6.0469-2.5273 7.9375-1.8252 2.4559-4.5755 3.9922-7.6446 3.9922-4.2796 0-7.80742-3.219-8.29423-7.3678l-.78418-4.4577c-.05075-.1889-.07782-.3875-.07782-.5924 0-1.2578 1.01959-2.2774 2.27734-2.2774.13684 0 .27088.0121.40113.0352-.10035-.2767-.15503-.5753-.15503-.8867 0-1.4368 1.16473-2.6016 2.60159-2.6016.495 0 .9576.1382 1.3515.3782z" fill="url(#j)"/><path d="m12.6445 4.37149c0-1.32031 1.0703-2.39062 2.3907-2.39062 1.3203 0 2.3906 1.07031 2.3906 2.39062v7.58711c.4378-.5528 1.115-.9074 1.875-.9074 1.2058 0 2.203.8927 2.367 2.0533.4374-.4838 1.0701-.7877 1.7736-.7877 1.3203 0 2.3906 1.0703 2.3906 2.3906 0 .1601-.0157.3164-.0457.4676l-.2902 2.8527c-.1172 1.2422-.8399 6.0469-2.5273 7.9375-1.8252 2.4559-4.5755 3.9922-7.6446 3.9922-4.2796 0-7.80742-3.219-8.29423-7.3678l-.78418-4.4577c-.05075-.1889-.07782-.3875-.07782-.5924 0-1.2578 1.01959-2.2774 2.27734-2.2774.13684 0 .27088.0121.40113.0352-.10035-.2767-.15503-.5753-.15503-.8867 0-1.4368 1.16473-2.6016 2.60159-2.6016.495 0 .9576.1382 1.3515.3782z" fill="url(#k)"/><path d="m12.6445 4.37149c0-1.32031 1.0703-2.39062 2.3907-2.39062 1.3203 0 2.3906 1.07031 2.3906 2.39062v7.58711c.4378-.5528 1.115-.9074 1.875-.9074 1.2058 0 2.203.8927 2.367 2.0533.4374-.4838 1.0701-.7877 1.7736-.7877 1.3203 0 2.3906 1.0703 2.3906 2.3906 0 .1601-.0157.3164-.0457.4676l-.2902 2.8527c-.1172 1.2422-.8399 6.0469-2.5273 7.9375-1.8252 2.4559-4.5755 3.9922-7.6446 3.9922-4.2796 0-7.80742-3.219-8.29423-7.3678l-.78418-4.4577c-.05075-.1889-.07782-.3875-.07782-.5924 0-1.2578 1.01959-2.2774 2.27734-2.2774.13684 0 .27088.0121.40113.0352-.10035-.2767-.15503-.5753-.15503-.8867 0-1.4368 1.16473-2.6016 2.60159-2.6016.495 0 .9576.1382 1.3515.3782z" fill="url(#l)"/><path d="m12.6445 4.37149c0-1.32031 1.0703-2.39062 2.3907-2.39062 1.3203 0 2.3906 1.07031 2.3906 2.39062v7.58711c.4378-.5528 1.115-.9074 1.875-.9074 1.2058 0 2.203.8927 2.367 2.0533.4374-.4838 1.0701-.7877 1.7736-.7877 1.3203 0 2.3906 1.0703 2.3906 2.3906 0 .1601-.0157.3164-.0457.4676l-.2902 2.8527c-.1172 1.2422-.8399 6.0469-2.5273 7.9375-1.8252 2.4559-4.5755 3.9922-7.6446 3.9922-4.2796 0-7.80742-3.219-8.29423-7.3678l-.78418-4.4577c-.05075-.1889-.07782-.3875-.07782-.5924 0-1.2578 1.01959-2.2774 2.27734-2.2774.13684 0 .27088.0121.40113.0352-.10035-.2767-.15503-.5753-.15503-.8867 0-1.4368 1.16473-2.6016 2.60159-2.6016.495 0 .9576.1382 1.3515.3782z" fill="url(#m)"/><path d="m12.6445 4.37149c0-1.32031 1.0703-2.39062 2.3907-2.39062 1.3203 0 2.3906 1.07031 2.3906 2.39062v7.58711c.4378-.5528 1.115-.9074 1.875-.9074 1.2058 0 2.203.8927 2.367 2.0533.4374-.4838 1.0701-.7877 1.7736-.7877 1.3203 0 2.3906 1.0703 2.3906 2.3906 0 .1601-.0157.3164-.0457.4676l-.2902 2.8527c-.1172 1.2422-.8399 6.0469-2.5273 7.9375-1.8252 2.4559-4.5755 3.9922-7.6446 3.9922-4.2796 0-7.80742-3.219-8.29423-7.3678l-.78418-4.4577c-.05075-.1889-.07782-.3875-.07782-.5924 0-1.2578 1.01959-2.2774 2.27734-2.2774.13684 0 .27088.0121.40113.0352-.10035-.2767-.15503-.5753-.15503-.8867 0-1.4368 1.16473-2.6016 2.60159-2.6016.495 0 .9576.1382 1.3515.3782z" fill="url(#n)"/></g><path d="m12.6445 4.37149c0-1.32031 1.0703-2.39062 2.3907-2.39062 1.3203 0 2.3906 1.07031 2.3906 2.39062v7.58711c.4378-.5528 1.115-.9074 1.875-.9074 1.2058 0 2.203.8927 2.367 2.0533.4374-.4838 1.0701-.7877 1.7736-.7877 1.3203 0 2.3906 1.0703 2.3906 2.3906 0 .1601-.0157.3164-.0457.4676l-.2902 2.8527c-.1172 1.2422-.8399 6.0469-2.5273 7.9375-1.8252 2.4559-4.5755 3.9922-7.6446 3.9922-4.2796 0-7.80742-3.219-8.29423-7.3678l-.78418-4.4577c-.05075-.1889-.07782-.3875-.07782-.5924 0-1.2578 1.01959-2.2774 2.27734-2.2774.13684 0 .27088.0121.40113.0352-.10035-.2767-.15503-.5753-.15503-.8867 0-1.4368 1.16473-2.6016 2.60159-2.6016.495 0 .9576.1382 1.3515.3782z" fill="url(#o)"/><path d="m12.6445 4.37149c0-1.32031 1.0703-2.39062 2.3907-2.39062 1.3203 0 2.3906 1.07031 2.3906 2.39062v7.58711c.4378-.5528 1.115-.9074 1.875-.9074 1.2058 0 2.203.8927 2.367 2.0533.4374-.4838 1.0701-.7877 1.7736-.7877 1.3203 0 2.3906 1.0703 2.3906 2.3906 0 .1601-.0157.3164-.0457.4676l-.2902 2.8527c-.1172 1.2422-.8399 6.0469-2.5273 7.9375-1.8252 2.4559-4.5755 3.9922-7.6446 3.9922-4.2796 0-7.80742-3.219-8.29423-7.3678l-.78418-4.4577c-.05075-.1889-.07782-.3875-.07782-.5924 0-1.2578 1.01959-2.2774 2.27734-2.2774.13684 0 .27088.0121.40113.0352-.10035-.2767-.15503-.5753-.15503-.8867 0-1.4368 1.16473-2.6016 2.60159-2.6016.495 0 .9576.1382 1.3515.3782z" fill="url(#p)"/><rect fill="url(#q)" height="14.813" rx="2.391" width="4.781" x="12.648" y="1.981"/><rect fill="url(#r)" height="14.813" rx="2.391" width="4.781" x="12.648" y="1.981"/><rect fill="url(#s)" height="14.813" rx="2.391" width="4.781" x="12.648" y="1.981"/><rect fill="url(#t)" height="14.813" rx="2.391" width="4.781" x="12.648" y="1.981"/><rect fill="url(#u)" height="14.813" rx="2.391" width="4.781" x="12.648" y="1.981"/><g filter="url(#b)"><path d="m24.0477 14.9062c-.0454 1.0143-.2152 3.1483-.6947 5.6763-.4794 2.5281-1.3621 4.1939-1.7436 4.7109" stroke="url(#v)" stroke-linecap="round" stroke-width="1.5"/></g><g filter="url(#c)"><path d="m16 4.12702v10.04958" stroke="url(#w)" stroke-linecap="round" stroke-width="1.25"/></g><g filter="url(#d)"><path d="m15.2799 16 2.2219-2.7346" stroke="url(#x)" stroke-linecap="round" stroke-width=".5"/></g><g filter="url(#e)"><path d="m14.8703 16-2.2219-2.7346" stroke="url(#y)" stroke-linecap="round" stroke-width=".5"/></g></svg>