<svg fill="none" height="32" viewBox="0 0 32 32" width="32" xmlns="http://www.w3.org/2000/svg" xmlns:xlink="http://www.w3.org/1999/xlink"><filter id="a" color-interpolation-filters="sRGB" filterUnits="userSpaceOnUse" height="28.645" width="27.027" x="2.862" y="1.473"><feFlood flood-opacity="0" result="BackgroundImageFix"/><feBlend in="SourceGraphic" in2="BackgroundImageFix" mode="normal" result="shape"/><feColorMatrix in="SourceAlpha" result="hardAlpha" type="matrix" values="0 0 0 0 0 0 0 0 0 0 0 0 0 0 0 0 0 0 127 0"/><feOffset dx=".75" dy="-.75"/><feGaussianBlur stdDeviation=".75"/><feComposite in2="hardAlpha" k2="-1" k3="1" operator="arithmetic"/><feColorMatrix type="matrix" values="0 0 0 0 0.231373 0 0 0 0 0.152941 0 0 0 0 0.156863 0 0 0 1 0"/><feBlend in2="shape" mode="normal" result="effect1_innerShadow_20020_1613"/></filter><filter id="b" color-interpolation-filters="sRGB" filterUnits="userSpaceOnUse" height="10.115" width="6.832" x="3.573" y="7.156"><feFlood flood-opacity="0" result="BackgroundImageFix"/><feBlend in="SourceGraphic" in2="BackgroundImageFix" mode="normal" result="shape"/><feGaussianBlur result="effect1_foregroundBlur_20020_1613" stdDeviation=".75"/></filter><filter id="c" color-interpolation-filters="sRGB" filterUnits="userSpaceOnUse" height="11.328" width="6.862" x="7.893" y="3.967"><feFlood flood-opacity="0" result="BackgroundImageFix"/><feBlend in="SourceGraphic" in2="BackgroundImageFix" mode="normal" result="shape"/><feGaussianBlur result="effect1_foregroundBlur_20020_1613" stdDeviation=".75"/></filter><filter id="d" color-interpolation-filters="sRGB" filterUnits="userSpaceOnUse" height="13.072" width="7.078" x="14.587" y="2.428"><feFlood flood-opacity="0" result="BackgroundImageFix"/><feBlend in="SourceGraphic" in2="BackgroundImageFix" mode="normal" result="shape"/><feGaussianBlur result="effect1_foregroundBlur_20020_1613" stdDeviation=".75"/></filter><filter id="e" color-interpolation-filters="sRGB" filterUnits="userSpaceOnUse" height="12.875" width="7.735" x="18.425" y="4.629"><feFlood flood-opacity="0" result="BackgroundImageFix"/><feBlend in="SourceGraphic" in2="BackgroundImageFix" mode="normal" result="shape"/><feGaussianBlur result="effect1_foregroundBlur_20020_1613" stdDeviation=".75"/></filter><filter id="f" color-interpolation-filters="sRGB" filterUnits="userSpaceOnUse" height="2.719" width="4.556" x="13.912" y="13.098"><feFlood flood-opacity="0" result="BackgroundImageFix"/><feBlend in="SourceGraphic" in2="BackgroundImageFix" mode="normal" result="shape"/><feGaussianBlur result="effect1_foregroundBlur_20020_1613" stdDeviation=".3"/></filter><filter id="g" color-interpolation-filters="sRGB" filterUnits="userSpaceOnUse" height="6.892" width="4.168" x="19.261" y="11.772"><feFlood flood-opacity="0" result="BackgroundImageFix"/><feBlend in="SourceGraphic" in2="BackgroundImageFix" mode="normal" result="shape"/><feGaussianBlur result="effect1_foregroundBlur_20020_1613" stdDeviation=".5"/></filter><filter id="h" color-interpolation-filters="sRGB" filterUnits="userSpaceOnUse" height="8.6" width="8.372" x="20.745" y="12.688"><feFlood flood-opacity="0" result="BackgroundImageFix"/><feBlend in="SourceGraphic" in2="BackgroundImageFix" mode="normal" result="shape"/><feGaussianBlur result="effect1_foregroundBlur_20020_1613" stdDeviation=".75"/></filter><filter id="i" color-interpolation-filters="sRGB" filterUnits="userSpaceOnUse" height="3.811" width="4.049" x="6.63" y="14.231"><feFlood flood-opacity="0" result="BackgroundImageFix"/><feBlend in="SourceGraphic" in2="BackgroundImageFix" mode="normal" result="shape"/><feGaussianBlur result="effect1_foregroundBlur_20020_1613" stdDeviation=".3"/></filter><filter id="j" color-interpolation-filters="sRGB" filterUnits="userSpaceOnUse" height="3.076" width="3.874" x="10.485" y="12.007"><feFlood flood-opacity="0" result="BackgroundImageFix"/><feBlend in="SourceGraphic" in2="BackgroundImageFix" mode="normal" result="shape"/><feGaussianBlur result="effect1_foregroundBlur_20020_1613" stdDeviation=".3"/></filter><radialGradient id="k" cx="0" cy="0" gradientTransform="matrix(5.57964393 -3.27693586 6.45505863 10.99103867 6.99035 26.9575)" gradientUnits="userSpaceOnUse" r="1"><stop offset="0" stop-color="#3e272b"/><stop offset="1" stop-color="#3e272b" stop-opacity="0"/></radialGradient><radialGradient id="l" cx="0" cy="0" gradientTransform="matrix(-3.50705598 8.21304032 -8.36062799 -3.57007749 22.404 25.3573)" gradientUnits="userSpaceOnUse" r="1"><stop offset="0" stop-color="#51373a"/><stop offset="1" stop-color="#51373a" stop-opacity="0"/></radialGradient><radialGradient id="m" cx="0" cy="0" gradientTransform="matrix(-4.92930415 7.73984222 -3.64470291 -2.32121646 25.2146 21.7684)" gradientUnits="userSpaceOnUse" r="1"><stop offset="0" stop-color="#492f34"/><stop offset="1" stop-color="#492f34" stop-opacity="0"/></radialGradient><linearGradient id="n" gradientUnits="userSpaceOnUse" x1="9.069" x2="8.196" y1="11.893" y2="12.253"><stop offset="0" stop-color="#221313"/><stop offset="1" stop-color="#221313" stop-opacity="0"/></linearGradient><linearGradient id="o"><stop offset="0" stop-color="#4e3537"/><stop offset="1" stop-color="#4e3537" stop-opacity="0"/></linearGradient><linearGradient id="p" gradientUnits="userSpaceOnUse" x1="9.795" x2="8.447" xlink:href="#o" y1="14.509" y2="13.23"/><linearGradient id="q" gradientUnits="userSpaceOnUse" x1="7.967" x2="10.448" y1="11.739" y2="10.823"><stop offset="0" stop-color="#2d1819"/><stop offset="1" stop-color="#2d1819" stop-opacity="0"/></linearGradient><radialGradient id="r" cx="0" cy="0" gradientTransform="matrix(-.10499637 -1.39859435 5.20104425 -.39045685 10.5526 15.1755)" gradientUnits="userSpaceOnUse" r="1" xlink:href="#o"/><radialGradient id="s" cx="0" cy="0" gradientTransform="matrix(-.88994351 .3038804 -1.63402503 -4.78540238 13.3817 9.71356)" gradientUnits="userSpaceOnUse" r="1"><stop offset="0" stop-color="#594b49"/><stop offset="1" stop-color="#594b49" stop-opacity="0"/></radialGradient><radialGradient id="t" cx="0" cy="0" gradientTransform="matrix(.41951394 -.13184733 1.49361414 4.75240526 8.6098 12.348)" gradientUnits="userSpaceOnUse" r="1"><stop offset="0" stop-color="#1c0e0e"/><stop offset="1" stop-color="#1c0e0e" stop-opacity="0"/></radialGradient><linearGradient id="u" gradientUnits="userSpaceOnUse" x1="13.971" x2="16.523" y1="8.389" y2="9.169"><stop offset="0" stop-color="#423330"/><stop offset="1" stop-color="#423330" stop-opacity="0"/></linearGradient><linearGradient id="v" gradientUnits="userSpaceOnUse" x1="19.902" x2="18.626" y1="10.579" y2="10.211"><stop offset="0" stop-color="#331e1d"/><stop offset="1" stop-color="#331e1d" stop-opacity="0"/></linearGradient><linearGradient id="w" gradientUnits="userSpaceOnUse" x1="19.235" x2="18.621" y1="10.556" y2="10.353"><stop offset="0" stop-color="#1d0f0f"/><stop offset="1" stop-color="#1d0f0f" stop-opacity="0"/></linearGradient><linearGradient id="x" gradientUnits="userSpaceOnUse" x1="17.334" x2="15.533" y1="15.177" y2="11.708"><stop offset="0" stop-color="#4f3638"/><stop offset="1" stop-color="#4f3638" stop-opacity="0"/></linearGradient><linearGradient id="y"><stop offset="0" stop-color="#6f5755"/><stop offset="1" stop-color="#60374d" stop-opacity="0"/></linearGradient><linearGradient id="z" gradientUnits="userSpaceOnUse" x1="20.288" x2="19.63" xlink:href="#y" y1="3.332" y2="17.798"/><linearGradient id="A" gradientUnits="userSpaceOnUse" x1="18.516" x2="21.616" y1="10.639" y2="11.633"><stop offset="0" stop-color="#23100f"/><stop offset="1" stop-color="#23100f" stop-opacity="0"/></linearGradient><linearGradient id="B" gradientUnits="userSpaceOnUse" x1="19.593" x2="20.535" y1="16.039" y2="14.146"><stop offset="0" stop-color="#4e3537"/><stop offset="1" stop-color="#4f3638" stop-opacity="0"/></linearGradient><radialGradient id="C" cx="0" cy="0" gradientTransform="matrix(-.70286189 -.24797186 .63775761 -1.80768706 22.2176 16.236)" gradientUnits="userSpaceOnUse" r="1"><stop offset="0" stop-color="#473633"/><stop offset="1" stop-color="#473633" stop-opacity="0"/></radialGradient><linearGradient id="D" gradientUnits="userSpaceOnUse" x1="24.861" x2="24.242" xlink:href="#y" y1="5.487" y2="19.956"/><radialGradient id="E" cx="0" cy="0" gradientTransform="matrix(-3.27691762 19.88297443 -15.22175528 -2.50870101 16.5997 10.7056)" gradientUnits="userSpaceOnUse" r="1"><stop offset=".933" stop-color="#522e4f" stop-opacity="0"/><stop offset="1" stop-color="#522e4f"/></radialGradient><radialGradient id="F" cx="0" cy="0" gradientTransform="matrix(-.02397406 2.56502797 -.76614654 -.0071608 13.7278 10.3822)" gradientUnits="userSpaceOnUse" r="1"><stop offset=".304" stop-color="#2f2321"/><stop offset="1" stop-color="#2f2321" stop-opacity="0"/></radialGradient><radialGradient id="G" cx="0" cy="0" gradientTransform="matrix(-2.5959037 2.43950692 -1.65388118 -1.75991149 28.8026 13.7314)" gradientUnits="userSpaceOnUse" r="1"><stop offset="0" stop-color="#675250"/><stop offset="1" stop-color="#675250" stop-opacity="0"/></radialGradient><linearGradient id="H"><stop offset="0" stop-color="#634f4d"/><stop offset="1" stop-color="#634f4d" stop-opacity="0"/></linearGradient><radialGradient id="I" cx="0" cy="0" gradientTransform="matrix(-1.29718852 1.90253439 -2.00047524 -1.36396668 24.9119 5.9428)" gradientUnits="userSpaceOnUse" r="1" xlink:href="#H"/><linearGradient id="J"><stop offset="0" stop-color="#675350"/><stop offset="1" stop-color="#675350" stop-opacity="0"/></linearGradient><radialGradient id="K" cx="0" cy="0" gradientTransform="matrix(-1.94577879 1.81605601 -1.60429881 -1.71889555 20.5015 3.95379)" gradientUnits="userSpaceOnUse" r="1" xlink:href="#J"/><radialGradient id="L" cx="0" cy="0" gradientTransform="matrix(-.90801311 2.55112418 -1.66147627 -.5913637 10.8159 5.59689)" gradientUnits="userSpaceOnUse" r="1" xlink:href="#J"/><radialGradient id="M" cx="0" cy="0" gradientTransform="matrix(-.47562497 1.08099116 -1.21937816 -.53651383 5.75687 9.53167)" gradientUnits="userSpaceOnUse" r="1" xlink:href="#J"/><linearGradient id="N"><stop offset="0" stop-color="#604d4c"/><stop offset="1" stop-color="#604d4c" stop-opacity="0"/></linearGradient><linearGradient id="O" gradientUnits="userSpaceOnUse" x1="17.73" x2="16.478" xlink:href="#N" y1="15.133" y2="16.218"/><linearGradient id="P" gradientUnits="userSpaceOnUse" x1="20.383" x2="22.015" xlink:href="#H" y1="17.012" y2="13.423"/><radialGradient id="Q" cx="0" cy="0" gradientTransform="matrix(1.29717953 1.10260118 -3.33474569 3.9232353 23.9174 13.7908)" gradientUnits="userSpaceOnUse" r="1"><stop offset="0" stop-color="#35201c"/><stop offset="1" stop-color="#35201c" stop-opacity="0"/></radialGradient><linearGradient id="R" gradientUnits="userSpaceOnUse" x1="27.118" x2="23.019" y1="14.916" y2="20.062"><stop offset="0" stop-color="#5d4746"/><stop offset="1" stop-color="#5d4746" stop-opacity="0"/></linearGradient><linearGradient id="S" gradientUnits="userSpaceOnUse" x1="10.081" x2="7.011" y1="15.326" y2="18.482"><stop offset="0" stop-color="#5b4644"/><stop offset="1" stop-color="#5b4644" stop-opacity="0"/></linearGradient><linearGradient id="T" gradientUnits="userSpaceOnUse" x1="13.692" x2="9.844" xlink:href="#N" y1="13.181" y2="15.321"/><g filter="url(#a)"><path d="m20.8505 5.413c.4069-1.28551-.3042-2.65887-1.5879-3.07129-1.2782-.41062-2.649.28144-3.0617 1.5589-.6506 2.0138-1.6104 5.04243-2.4147 7.81279-.0412.1418-.241.1463-.2872.0059-.5999-1.82495-1.5577-4.73392-1.856-5.61311-.4454-1.3125-1.88699-1.94078-3.16513-1.48524-1.26359.45035-1.92285 1.83977-1.4725 3.10336l.36844 1.03377c-.60053-.93975-1.78959-1.37631-2.88487-.98594-1.27395.45404-1.93862 1.85485-1.48458 3.12876l.67846 1.9036c.23573.6968.90488 2.518 1.1481 4.8691.02195.2122.04337.4275.06503.6451.24415 2.4542.51929 5.2198 1.95317 7.5231 1.42416 2.5513 4.15058 4.2766 7.28008 4.2766 1.2409 0 2.4185-.2713 3.4767-.7578 1.3605-.5836 2.6202-1.481 3.5996-2.8013 1.1593-1.4724 1.5458-2.1664 2.1384-3.2304.1023-.1837.2107-.3783.3303-.5899.5765-1.02 1.7632-2.6112 2.4456-3.4957l2.2837-2.5801c.9527-1.0294 1.0416-2.549-.1041-3.6094-1.0295-.9527-2.7349-.8069-3.8622.4373l-2.2833 2.4571 3.1462-8.22127c.4895-1.27895-.1745-2.71418-1.4619-3.18091-1.263-.45785-2.6662.18222-3.1217 1.44597-.1315.36462-.2743.76295-.4252 1.18731z" fill="#4e3537"/><path d="m20.8505 5.413c.4069-1.28551-.3042-2.65887-1.5879-3.07129-1.2782-.41062-2.649.28144-3.0617 1.5589-.6506 2.0138-1.6104 5.04243-2.4147 7.81279-.0412.1418-.241.1463-.2872.0059-.5999-1.82495-1.5577-4.73392-1.856-5.61311-.4454-1.3125-1.88699-1.94078-3.16513-1.48524-1.26359.45035-1.92285 1.83977-1.4725 3.10336l.36844 1.03377c-.60053-.93975-1.78959-1.37631-2.88487-.98594-1.27395.45404-1.93862 1.85485-1.48458 3.12876l.67846 1.9036c.23573.6968.90488 2.518 1.1481 4.8691.02195.2122.04337.4275.06503.6451.24415 2.4542.51929 5.2198 1.95317 7.5231 1.42416 2.5513 4.15058 4.2766 7.28008 4.2766 1.2409 0 2.4185-.2713 3.4767-.7578 1.3605-.5836 2.6202-1.481 3.5996-2.8013 1.1593-1.4724 1.5458-2.1664 2.1384-3.2304.1023-.1837.2107-.3783.3303-.5899.5765-1.02 1.7632-2.6112 2.4456-3.4957l2.2837-2.5801c.9527-1.0294 1.0416-2.549-.1041-3.6094-1.0295-.9527-2.7349-.8069-3.8622.4373l-2.2833 2.4571 3.1462-8.22127c.4895-1.27895-.1745-2.71418-1.4619-3.18091-1.263-.45785-2.6662.18222-3.1217 1.44597-.1315.36462-.2743.76295-.4252 1.18731z" fill="url(#k)"/><path d="m20.8505 5.413c.4069-1.28551-.3042-2.65887-1.5879-3.07129-1.2782-.41062-2.649.28144-3.0617 1.5589-.6506 2.0138-1.6104 5.04243-2.4147 7.81279-.0412.1418-.241.1463-.2872.0059-.5999-1.82495-1.5577-4.73392-1.856-5.61311-.4454-1.3125-1.88699-1.94078-3.16513-1.48524-1.26359.45035-1.92285 1.83977-1.4725 3.10336l.36844 1.03377c-.60053-.93975-1.78959-1.37631-2.88487-.98594-1.27395.45404-1.93862 1.85485-1.48458 3.12876l.67846 1.9036c.23573.6968.90488 2.518 1.1481 4.8691.02195.2122.04337.4275.06503.6451.24415 2.4542.51929 5.2198 1.95317 7.5231 1.42416 2.5513 4.15058 4.2766 7.28008 4.2766 1.2409 0 2.4185-.2713 3.4767-.7578 1.3605-.5836 2.6202-1.481 3.5996-2.8013 1.1593-1.4724 1.5458-2.1664 2.1384-3.2304.1023-.1837.2107-.3783.3303-.5899.5765-1.02 1.7632-2.6112 2.4456-3.4957l2.2837-2.5801c.9527-1.0294 1.0416-2.549-.1041-3.6094-1.0295-.9527-2.7349-.8069-3.8622.4373l-2.2833 2.4571 3.1462-8.22127c.4895-1.27895-.1745-2.71418-1.4619-3.18091-1.263-.45785-2.6662.18222-3.1217 1.44597-.1315.36462-.2743.76295-.4252 1.18731z" fill="url(#l)"/><path d="m20.8505 5.413c.4069-1.28551-.3042-2.65887-1.5879-3.07129-1.2782-.41062-2.649.28144-3.0617 1.5589-.6506 2.0138-1.6104 5.04243-2.4147 7.81279-.0412.1418-.241.1463-.2872.0059-.5999-1.82495-1.5577-4.73392-1.856-5.61311-.4454-1.3125-1.88699-1.94078-3.16513-1.48524-1.26359.45035-1.92285 1.83977-1.4725 3.10336l.36844 1.03377c-.60053-.93975-1.78959-1.37631-2.88487-.98594-1.27395.45404-1.93862 1.85485-1.48458 3.12876l.67846 1.9036c.23573.6968.90488 2.518 1.1481 4.8691.02195.2122.04337.4275.06503.6451.24415 2.4542.51929 5.2198 1.95317 7.5231 1.42416 2.5513 4.15058 4.2766 7.28008 4.2766 1.2409 0 2.4185-.2713 3.4767-.7578 1.3605-.5836 2.6202-1.481 3.5996-2.8013 1.1593-1.4724 1.5458-2.1664 2.1384-3.2304.1023-.1837.2107-.3783.3303-.5899.5765-1.02 1.7632-2.6112 2.4456-3.4957l2.2837-2.5801c.9527-1.0294 1.0416-2.549-.1041-3.6094-1.0295-.9527-2.7349-.8069-3.8622.4373l-2.2833 2.4571 3.1462-8.22127c.4895-1.27895-.1745-2.71418-1.4619-3.18091-1.263-.45785-2.6662.18222-3.1217 1.44597-.1315.36462-.2743.76295-.4252 1.18731z" fill="url(#m)"/></g><path d="m4.56867 15.9513c2.47353.7045 4.34259-.5607 5.08525-1.4053l-2.29864-5.81646c-.60621-.91999-1.78221-1.34377-2.86634-.95738-1.27395.45404-1.93862 1.85485-1.48458 3.12884l.67846 1.9036c.01707.0504.03641.1068.0577.1688.19597.5709.55685 1.6222.82815 2.9779z" fill="url(#n)"/><path d="m4.56867 15.9513c2.47353.7045 4.34259-.5607 5.08525-1.4053l-2.29864-5.81646c-.60621-.91999-1.78221-1.34377-2.86634-.95738-1.27395.45404-1.93862 1.85485-1.48458 3.12884l.67846 1.9036c.01707.0504.03641.1068.0577.1688.19597.5709.55685 1.6222.82815 2.9779z" fill="url(#p)"/><g filter="url(#b)"><rect fill="#6f5755" height="7.581" rx=".747" transform="matrix(.9233557 -.38394564 .38394564 .9233557 -3.084313 2.549593)" width="1.494" x="4.844" y="9"/></g><path d="m13.4991 11.7193c.0081.0248.021.045.037.0608l.4953 1.9811c-1.6119 1.4347-3.4346 1.4749-4.14308 1.3863l-.23748-.598c.00104-.0012.00207-.0024.00311-.0035l-2.29864-5.81646c-.01234-.01873-.02492-.03725-.03772-.05556.01928.02757.03803.05561.05625.08411l-.36844-1.03376c-.45035-1.2636.20891-2.65302 1.4725-3.10337 1.27815-.45554 2.7198.17275 3.1651 1.48525.2983.87918 1.2561 3.78816 1.8561 5.61309z" fill="url(#q)"/><path d="m13.4991 11.7193c.0081.0248.021.045.037.0608l.4953 1.9811c-1.6119 1.4347-3.4346 1.4749-4.14308 1.3863l-.23748-.598c.00104-.0012.00207-.0024.00311-.0035l-2.29864-5.81646c-.01234-.01873-.02492-.03725-.03772-.05556.01928.02757.03803.05561.05625.08411l-.36844-1.03376c-.45035-1.2636.20891-2.65302 1.4725-3.10337 1.27815-.45554 2.7198.17275 3.1651 1.48525.2983.87918 1.2561 3.78816 1.8561 5.61309z" fill="url(#r)"/><path d="m13.4991 11.7193c.0081.0248.021.045.037.0608l.4953 1.9811c-1.6119 1.4347-3.4346 1.4749-4.14308 1.3863l-.23748-.598c.00104-.0012.00207-.0024.00311-.0035l-2.29864-5.81646c-.01234-.01873-.02492-.03725-.03772-.05556.01928.02757.03803.05561.05625.08411l-.36844-1.03376c-.45035-1.2636.20891-2.65302 1.4725-3.10337 1.27815-.45554 2.7198.17275 3.1651 1.48525.2983.87918 1.2561 3.78816 1.8561 5.61309z" fill="url(#s)"/><path d="m13.4991 11.7193c.0081.0248.021.045.037.0608l.4953 1.9811c-1.6119 1.4347-3.4346 1.4749-4.14308 1.3863l-.23748-.598c.00104-.0012.00207-.0024.00311-.0035l-2.29864-5.81646c-.01234-.01873-.02492-.03725-.03772-.05556.01928.02757.03803.05561.05625.08411l-.36844-1.03376c-.45035-1.2636.20891-2.65302 1.4725-3.10337 1.27815-.45554 2.7198.17275 3.1651 1.48525.2983.87918 1.2561 3.78816 1.8561 5.61309z" fill="url(#t)"/><g filter="url(#c)"><rect fill="#6f5755" height="8.726" rx=".747" transform="matrix(.94491121 -.32732675 .32732675 .94491121 -1.376769 3.32513)" width="1.494" x="9.19" y="5.753"/></g><path d="m13.703 11.8094c.0832 2.6887 2.7629 3.8257 3.941 3.4821l2.8642-8.79736.3423-1.08114c.4069-1.28551-.3042-2.65887-1.5879-3.07129-1.2782-.41062-2.649.28144-3.0617 1.5589-.6506 2.0138-1.6104 5.04243-2.4147 7.81279-.0138.0475-.0455.0797-.0832.096z" fill="url(#u)"/><path d="m13.703 11.8094c.0832 2.6887 2.7629 3.8257 3.941 3.4821l2.8642-8.79736.3423-1.08114c.4069-1.28551-.3042-2.65887-1.5879-3.07129-1.2782-.41062-2.649.28144-3.0617 1.5589-.6506 2.0138-1.6104 5.04243-2.4147 7.81279-.0138.0475-.0455.0797-.0832.096z" fill="url(#v)"/><path d="m13.703 11.8094c.0832 2.6887 2.7629 3.8257 3.941 3.4821l2.8642-8.79736.3423-1.08114c.4069-1.28551-.3042-2.65887-1.5879-3.07129-1.2782-.41062-2.649.28144-3.0617 1.5589-.6506 2.0138-1.6104 5.04243-2.4147 7.81279-.0138.0475-.0455.0797-.0832.096z" fill="url(#w)"/><path d="m13.703 11.8094c.0832 2.6887 2.7629 3.8257 3.941 3.4821l2.8642-8.79736.3423-1.08114c.4069-1.28551-.3042-2.65887-1.5879-3.07129-1.2782-.41062-2.649.28144-3.0617 1.5589-.6506 2.0138-1.6104 5.04243-2.4147 7.81279-.0138.0475-.0455.0797-.0832.096z" fill="url(#x)"/><g filter="url(#d)"><rect fill="url(#z)" height="10.452" rx=".747" transform="matrix(.95750494 .28841687 -.28841687 .95750494 1.883855 -5.297095)" width="1.494" x="18.918" y="3.744"/></g><path d="m20.4187 6.777-2.8507 8.6796c.4605.614 1.7872 1.8545 3.7994 1.9395 0-.0357.3001-.5834.7866-1.4482l3.1462-8.22095c.4894-1.27895-.1746-2.71418-1.462-3.18091-1.2629-.45785-2.6662.18222-3.1217 1.44597-.1315.36462-.2743.76295-.4252 1.18731z" fill="url(#A)"/><path d="m20.4187 6.777-2.8507 8.6796c.4605.614 1.7872 1.8545 3.7994 1.9395 0-.0357.3001-.5834.7866-1.4482l3.1462-8.22095c.4894-1.27895-.1746-2.71418-1.462-3.18091-1.2629-.45785-2.6662.18222-3.1217 1.44597-.1315.36462-.2743.76295-.4252 1.18731z" fill="url(#B)"/><path d="m20.4187 6.777-2.8507 8.6796c.4605.614 1.7872 1.8545 3.7994 1.9395 0-.0357.3001-.5834.7866-1.4482l3.1462-8.22095c.4894-1.27895-.1746-2.71418-1.462-3.18091-1.2629-.45785-2.6662.18222-3.1217 1.44597-.1315.36462-.2743.76295-.4252 1.18731z" fill="url(#C)"/><g filter="url(#e)"><rect fill="url(#D)" height="10.452" rx=".794" transform="matrix(.93489198 .35493238 -.35493238 .93489198 3.61767 -7.922924)" width="1.589" x="23.404" y="5.899"/></g><path d="m20.8505 5.413c.4069-1.28551-.3042-2.65887-1.5879-3.07129-1.2782-.41062-2.649.28144-3.0617 1.5589-.6506 2.0138-1.6104 5.04243-2.4147 7.81279-.0412.1418-.241.1463-.2872.0059-.5999-1.82495-1.5577-4.73392-1.856-5.61311-.4454-1.3125-1.88699-1.94078-3.16513-1.48524-1.26359.45035-1.92285 1.83977-1.4725 3.10336l.36844 1.03377c-.60053-.93975-1.78959-1.37631-2.88487-.98594-1.27395.45404-1.93862 1.85485-1.48458 3.12876l.67846 1.9036c.23573.6968.90488 2.518 1.1481 4.8691.02195.2122.04337.4275.06503.6451.24415 2.4542.51929 5.2198 1.95317 7.5231 1.42416 2.5513 4.15058 4.2766 7.28008 4.2766 1.2409 0 2.4185-.2713 3.4767-.7578 1.3605-.5836 2.6202-1.481 3.5996-2.8013 1.1593-1.4724 1.5458-2.1664 2.1384-3.2304.1023-.1837.2107-.3783.3303-.5899.5765-1.02 1.7632-2.6112 2.4456-3.4957l2.2837-2.5801c.9527-1.0294 1.0416-2.549-.1041-3.6094-1.0295-.9527-2.7349-.8069-3.8622.4373l-2.2833 2.4571 3.1462-8.22127c.4895-1.27895-.1745-2.71418-1.4619-3.18091-1.263-.45785-2.6662.18222-3.1217 1.44597-.1315.36462-.2743.76295-.4252 1.18731z" fill="url(#E)"/><path d="m20.8505 5.413c.4069-1.28551-.3042-2.65887-1.5879-3.07129-1.2782-.41062-2.649.28144-3.0617 1.5589-.6506 2.0138-1.6104 5.04243-2.4147 7.81279-.0412.1418-.241.1463-.2872.0059-.5999-1.82495-1.5577-4.73392-1.856-5.61311-.4454-1.3125-1.88699-1.94078-3.16513-1.48524-1.26359.45035-1.92285 1.83977-1.4725 3.10336l.36844 1.03377c-.60053-.93975-1.78959-1.37631-2.88487-.98594-1.27395.45404-1.93862 1.85485-1.48458 3.12876l.67846 1.9036c.23573.6968.90488 2.518 1.1481 4.8691.02195.2122.04337.4275.06503.6451.24415 2.4542.51929 5.2198 1.95317 7.5231 1.42416 2.5513 4.15058 4.2766 7.28008 4.2766 1.2409 0 2.4185-.2713 3.4767-.7578 1.3605-.5836 2.6202-1.481 3.5996-2.8013 1.1593-1.4724 1.5458-2.1664 2.1384-3.2304.1023-.1837.2107-.3783.3303-.5899.5765-1.02 1.7632-2.6112 2.4456-3.4957l2.2837-2.5801c.9527-1.0294 1.0416-2.549-.1041-3.6094-1.0295-.9527-2.7349-.8069-3.8622.4373l-2.2833 2.4571 3.1462-8.22127c.4895-1.27895-.1745-2.71418-1.4619-3.18091-1.263-.45785-2.6662.18222-3.1217 1.44597-.1315.36462-.2743.76295-.4252 1.18731z" fill="url(#F)"/><path d="m20.8505 5.413c.4069-1.28551-.3042-2.65887-1.5879-3.07129-1.2782-.41062-2.649.28144-3.0617 1.5589-.6506 2.0138-1.6104 5.04243-2.4147 7.81279-.0412.1418-.241.1463-.2872.0059-.5999-1.82495-1.5577-4.73392-1.856-5.61311-.4454-1.3125-1.88699-1.94078-3.16513-1.48524-1.26359.45035-1.92285 1.83977-1.4725 3.10336l.36844 1.03377c-.60053-.93975-1.78959-1.37631-2.88487-.98594-1.27395.45404-1.93862 1.85485-1.48458 3.12876l.67846 1.9036c.23573.6968.90488 2.518 1.1481 4.8691.02195.2122.04337.4275.06503.6451.24415 2.4542.51929 5.2198 1.95317 7.5231 1.42416 2.5513 4.15058 4.2766 7.28008 4.2766 1.2409 0 2.4185-.2713 3.4767-.7578 1.3605-.5836 2.6202-1.481 3.5996-2.8013 1.1593-1.4724 1.5458-2.1664 2.1384-3.2304.1023-.1837.2107-.3783.3303-.5899.5765-1.02 1.7632-2.6112 2.4456-3.4957l2.2837-2.5801c.9527-1.0294 1.0416-2.549-.1041-3.6094-1.0295-.9527-2.7349-.8069-3.8622.4373l-2.2833 2.4571 3.1462-8.22127c.4895-1.27895-.1745-2.71418-1.4619-3.18091-1.263-.45785-2.6662.18222-3.1217 1.44597-.1315.36462-.2743.76295-.4252 1.18731z" fill="url(#G)"/><path d="m20.8505 5.413c.4069-1.28551-.3042-2.65887-1.5879-3.07129-1.2782-.41062-2.649.28144-3.0617 1.5589-.6506 2.0138-1.6104 5.04243-2.4147 7.81279-.0412.1418-.241.1463-.2872.0059-.5999-1.82495-1.5577-4.73392-1.856-5.61311-.4454-1.3125-1.88699-1.94078-3.16513-1.48524-1.26359.45035-1.92285 1.83977-1.4725 3.10336l.36844 1.03377c-.60053-.93975-1.78959-1.37631-2.88487-.98594-1.27395.45404-1.93862 1.85485-1.48458 3.12876l.67846 1.9036c.23573.6968.90488 2.518 1.1481 4.8691.02195.2122.04337.4275.06503.6451.24415 2.4542.51929 5.2198 1.95317 7.5231 1.42416 2.5513 4.15058 4.2766 7.28008 4.2766 1.2409 0 2.4185-.2713 3.4767-.7578 1.3605-.5836 2.6202-1.481 3.5996-2.8013 1.1593-1.4724 1.5458-2.1664 2.1384-3.2304.1023-.1837.2107-.3783.3303-.5899.5765-1.02 1.7632-2.6112 2.4456-3.4957l2.2837-2.5801c.9527-1.0294 1.0416-2.549-.1041-3.6094-1.0295-.9527-2.7349-.8069-3.8622.4373l-2.2833 2.4571 3.1462-8.22127c.4895-1.27895-.1745-2.71418-1.4619-3.18091-1.263-.45785-2.6662.18222-3.1217 1.44597-.1315.36462-.2743.76295-.4252 1.18731z" fill="url(#I)"/><path d="m20.8505 5.413c.4069-1.28551-.3042-2.65887-1.5879-3.07129-1.2782-.41062-2.649.28144-3.0617 1.5589-.6506 2.0138-1.6104 5.04243-2.4147 7.81279-.0412.1418-.241.1463-.2872.0059-.5999-1.82495-1.5577-4.73392-1.856-5.61311-.4454-1.3125-1.88699-1.94078-3.16513-1.48524-1.26359.45035-1.92285 1.83977-1.4725 3.10336l.36844 1.03377c-.60053-.93975-1.78959-1.37631-2.88487-.98594-1.27395.45404-1.93862 1.85485-1.48458 3.12876l.67846 1.9036c.23573.6968.90488 2.518 1.1481 4.8691.02195.2122.04337.4275.06503.6451.24415 2.4542.51929 5.2198 1.95317 7.5231 1.42416 2.5513 4.15058 4.2766 7.28008 4.2766 1.2409 0 2.4185-.2713 3.4767-.7578 1.3605-.5836 2.6202-1.481 3.5996-2.8013 1.1593-1.4724 1.5458-2.1664 2.1384-3.2304.1023-.1837.2107-.3783.3303-.5899.5765-1.02 1.7632-2.6112 2.4456-3.4957l2.2837-2.5801c.9527-1.0294 1.0416-2.549-.1041-3.6094-1.0295-.9527-2.7349-.8069-3.8622.4373l-2.2833 2.4571 3.1462-8.22127c.4895-1.27895-.1745-2.71418-1.4619-3.18091-1.263-.45785-2.6662.18222-3.1217 1.44597-.1315.36462-.2743.76295-.4252 1.18731z" fill="url(#K)"/><path d="m20.8505 5.413c.4069-1.28551-.3042-2.65887-1.5879-3.07129-1.2782-.41062-2.649.28144-3.0617 1.5589-.6506 2.0138-1.6104 5.04243-2.4147 7.81279-.0412.1418-.241.1463-.2872.0059-.5999-1.82495-1.5577-4.73392-1.856-5.61311-.4454-1.3125-1.88699-1.94078-3.16513-1.48524-1.26359.45035-1.92285 1.83977-1.4725 3.10336l.36844 1.03377c-.60053-.93975-1.78959-1.37631-2.88487-.98594-1.27395.45404-1.93862 1.85485-1.48458 3.12876l.67846 1.9036c.23573.6968.90488 2.518 1.1481 4.8691.02195.2122.04337.4275.06503.6451.24415 2.4542.51929 5.2198 1.95317 7.5231 1.42416 2.5513 4.15058 4.2766 7.28008 4.2766 1.2409 0 2.4185-.2713 3.4767-.7578 1.3605-.5836 2.6202-1.481 3.5996-2.8013 1.1593-1.4724 1.5458-2.1664 2.1384-3.2304.1023-.1837.2107-.3783.3303-.5899.5765-1.02 1.7632-2.6112 2.4456-3.4957l2.2837-2.5801c.9527-1.0294 1.0416-2.549-.1041-3.6094-1.0295-.9527-2.7349-.8069-3.8622.4373l-2.2833 2.4571 3.1462-8.22127c.4895-1.27895-.1745-2.71418-1.4619-3.18091-1.263-.45785-2.6662.18222-3.1217 1.44597-.1315.36462-.2743.76295-.4252 1.18731z" fill="url(#L)"/><path d="m20.8505 5.413c.4069-1.28551-.3042-2.65887-1.5879-3.07129-1.2782-.41062-2.649.28144-3.0617 1.5589-.6506 2.0138-1.6104 5.04243-2.4147 7.81279-.0412.1418-.241.1463-.2872.0059-.5999-1.82495-1.5577-4.73392-1.856-5.61311-.4454-1.3125-1.88699-1.94078-3.16513-1.48524-1.26359.45035-1.92285 1.83977-1.4725 3.10336l.36844 1.03377c-.60053-.93975-1.78959-1.37631-2.88487-.98594-1.27395.45404-1.93862 1.85485-1.48458 3.12876l.67846 1.9036c.23573.6968.90488 2.518 1.1481 4.8691.02195.2122.04337.4275.06503.6451.24415 2.4542.51929 5.2198 1.95317 7.5231 1.42416 2.5513 4.15058 4.2766 7.28008 4.2766 1.2409 0 2.4185-.2713 3.4767-.7578 1.3605-.5836 2.6202-1.481 3.5996-2.8013 1.1593-1.4724 1.5458-2.1664 2.1384-3.2304.1023-.1837.2107-.3783.3303-.5899.5765-1.02 1.7632-2.6112 2.4456-3.4957l2.2837-2.5801c.9527-1.0294 1.0416-2.549-.1041-3.6094-1.0295-.9527-2.7349-.8069-3.8622.4373l-2.2833 2.4571 3.1462-8.22127c.4895-1.27895-.1745-2.71418-1.4619-3.18091-1.263-.45785-2.6662.18222-3.1217 1.44597-.1315.36462-.2743.76295-.4252 1.18731z" fill="url(#M)"/><g filter="url(#f)"><path d="m14.8116 13.9977c.4054.2973 1.5241.8972 2.7564.9188" stroke="url(#O)" stroke-linecap="round" stroke-width=".6"/></g><g filter="url(#g)"><path d="m20.761 17.1635 1.1674-3.8916" stroke="url(#P)" stroke-linecap="round"/></g><path d="m22.1613 15.9289-.0078.0114c-.3484 1.417-.3201 4.2588 1.7246 6.4545.62-1.0071 1.6321-2.3613 2.2418-3.1515l2.2836-2.5801c.9527-1.0294 1.0417-2.549-.1041-3.6094-1.0294-.9527-2.7349-.8069-3.8621.4373l-2.2834 2.4571z" fill="url(#Q)"/><g filter="url(#h)"><path d="m22.7455 19.2876 4.372-4.5997" stroke="url(#R)" stroke-linecap="round"/></g><g filter="url(#i)"><path d="m7.52972 17.1418c.3315-.1585 1.52203-1.1112 2.24845-2.0106" stroke="url(#S)" stroke-linecap="round" stroke-width=".6"/></g><g filter="url(#j)"><path d="m11.3845 14.1831c.3631-.0565 1.5134-.3459 2.0738-1.2759" stroke="url(#T)" stroke-linecap="round" stroke-width=".6"/></g></svg>