<svg fill="none" height="32" viewBox="0 0 32 32" width="32" xmlns="http://www.w3.org/2000/svg" xmlns:xlink="http://www.w3.org/1999/xlink"><filter id="a" color-interpolation-filters="sRGB" filterUnits="userSpaceOnUse" height="28.645" width="27.027" x="3.486" y="1.473"><feFlood flood-opacity="0" result="BackgroundImageFix"/><feBlend in="SourceGraphic" in2="BackgroundImageFix" mode="normal" result="shape"/><feColorMatrix in="SourceAlpha" result="hardAlpha" type="matrix" values="0 0 0 0 0 0 0 0 0 0 0 0 0 0 0 0 0 0 127 0"/><feOffset dx=".75" dy="-.75"/><feGaussianBlur stdDeviation=".75"/><feComposite in2="hardAlpha" k2="-1" k3="1" operator="arithmetic"/><feColorMatrix type="matrix" values="0 0 0 0 0.784314 0 0 0 0 0.556863 0 0 0 0 0.490196 0 0 0 1 0"/><feBlend in2="shape" mode="normal" result="effect1_innerShadow_20020_1665"/></filter><filter id="b" color-interpolation-filters="sRGB" filterUnits="userSpaceOnUse" height="10.115" width="6.832" x="4.198" y="7.156"><feFlood flood-opacity="0" result="BackgroundImageFix"/><feBlend in="SourceGraphic" in2="BackgroundImageFix" mode="normal" result="shape"/><feGaussianBlur result="effect1_foregroundBlur_20020_1665" stdDeviation=".75"/></filter><filter id="c" color-interpolation-filters="sRGB" filterUnits="userSpaceOnUse" height="11.328" width="6.862" x="8.518" y="3.967"><feFlood flood-opacity="0" result="BackgroundImageFix"/><feBlend in="SourceGraphic" in2="BackgroundImageFix" mode="normal" result="shape"/><feGaussianBlur result="effect1_foregroundBlur_20020_1665" stdDeviation=".75"/></filter><filter id="d" color-interpolation-filters="sRGB" filterUnits="userSpaceOnUse" height="13.072" width="7.078" x="15.212" y="2.428"><feFlood flood-opacity="0" result="BackgroundImageFix"/><feBlend in="SourceGraphic" in2="BackgroundImageFix" mode="normal" result="shape"/><feGaussianBlur result="effect1_foregroundBlur_20020_1665" stdDeviation=".75"/></filter><filter id="e" color-interpolation-filters="sRGB" filterUnits="userSpaceOnUse" height="12.875" width="7.735" x="18.835" y="4.566"><feFlood flood-opacity="0" result="BackgroundImageFix"/><feBlend in="SourceGraphic" in2="BackgroundImageFix" mode="normal" result="shape"/><feGaussianBlur result="effect1_foregroundBlur_20020_1665" stdDeviation=".75"/></filter><filter id="f" color-interpolation-filters="sRGB" filterUnits="userSpaceOnUse" height="5.692" width="2.968" x="20.486" y="12.372"><feFlood flood-opacity="0" result="BackgroundImageFix"/><feBlend in="SourceGraphic" in2="BackgroundImageFix" mode="normal" result="shape"/><feGaussianBlur result="effect1_foregroundBlur_20020_1665" stdDeviation=".3"/></filter><filter id="g" color-interpolation-filters="sRGB" filterUnits="userSpaceOnUse" height="8.6" width="8.372" x="21.37" y="12.688"><feFlood flood-opacity="0" result="BackgroundImageFix"/><feBlend in="SourceGraphic" in2="BackgroundImageFix" mode="normal" result="shape"/><feGaussianBlur result="effect1_foregroundBlur_20020_1665" stdDeviation=".75"/></filter><filter id="h" color-interpolation-filters="sRGB" filterUnits="userSpaceOnUse" height="3.811" width="4.049" x="7.254" y="14.231"><feFlood flood-opacity="0" result="BackgroundImageFix"/><feBlend in="SourceGraphic" in2="BackgroundImageFix" mode="normal" result="shape"/><feGaussianBlur result="effect1_foregroundBlur_20020_1665" stdDeviation=".3"/></filter><filter id="i" color-interpolation-filters="sRGB" filterUnits="userSpaceOnUse" height="3.076" width="3.874" x="11.109" y="12.007"><feFlood flood-opacity="0" result="BackgroundImageFix"/><feBlend in="SourceGraphic" in2="BackgroundImageFix" mode="normal" result="shape"/><feGaussianBlur result="effect1_foregroundBlur_20020_1665" stdDeviation=".3"/></filter><filter id="j" color-interpolation-filters="sRGB" filterUnits="userSpaceOnUse" height="2.719" width="4.556" x="14.536" y="13.098"><feFlood flood-opacity="0" result="BackgroundImageFix"/><feBlend in="SourceGraphic" in2="BackgroundImageFix" mode="normal" result="shape"/><feGaussianBlur result="effect1_foregroundBlur_20020_1665" stdDeviation=".3"/></filter><filter id="k" color-interpolation-filters="sRGB" filterUnits="userSpaceOnUse" height="2.719" width="4.556" x="18.313" y="15.323"><feFlood flood-opacity="0" result="BackgroundImageFix"/><feBlend in="SourceGraphic" in2="BackgroundImageFix" mode="normal" result="shape"/><feGaussianBlur result="effect1_foregroundBlur_20020_1665" stdDeviation=".3"/></filter><radialGradient id="l" cx="0" cy="0" gradientTransform="matrix(5.57964393 -3.27693586 6.45505863 10.99103867 7.61517 26.9575)" gradientUnits="userSpaceOnUse" r="1"><stop offset="0" stop-color="#c78d80"/><stop offset="1" stop-color="#c78d80" stop-opacity="0"/></radialGradient><radialGradient id="m" cx="0" cy="0" gradientTransform="matrix(-3.50705598 8.21304032 -8.36062799 -3.57007749 23.0289 25.3573)" gradientUnits="userSpaceOnUse" r="1"><stop offset="0" stop-color="#edb39c"/><stop offset="1" stop-color="#edb39c" stop-opacity="0"/></radialGradient><radialGradient id="n" cx="0" cy="0" gradientTransform="matrix(-7.59124554 8.97762156 -5.45826776 -4.61537062 32.2314 19.9213)" gradientUnits="userSpaceOnUse" r="1"><stop offset="0" stop-color="#ca948c"/><stop offset="1" stop-color="#86575f" stop-opacity="0"/><stop offset="1" stop-color="#ca948c" stop-opacity="0"/></radialGradient><linearGradient id="o" gradientUnits="userSpaceOnUse" x1="9.694" x2="8.148" y1="11.893" y2="12.438"><stop offset="0" stop-color="#c38260"/><stop offset="1" stop-color="#c38260" stop-opacity="0"/></linearGradient><linearGradient id="p"><stop offset="0" stop-color="#ebb297"/><stop offset="1" stop-color="#ebb297" stop-opacity="0"/></linearGradient><linearGradient id="q" gradientUnits="userSpaceOnUse" x1="10.42" x2="9.072" xlink:href="#p" y1="14.509" y2="13.23"/><radialGradient id="r" cx="0" cy="0" gradientTransform="matrix(1.09706373 2.7872267 -5.18872712 2.04230403 5.21139 7.40335)" gradientUnits="userSpaceOnUse" r="1"><stop offset="0" stop-color="#cca07f"/><stop offset="1" stop-color="#cca07f" stop-opacity="0"/></radialGradient><linearGradient id="s" gradientUnits="userSpaceOnUse" x1="8.592" x2="11.072" y1="11.739" y2="10.823"><stop offset="0" stop-color="#c58564"/><stop offset="1" stop-color="#c58564" stop-opacity="0"/></linearGradient><radialGradient id="t" cx="0" cy="0" gradientTransform="matrix(-.88994351 .3038804 -1.63402503 -4.78540238 14.0065 9.71356)" gradientUnits="userSpaceOnUse" r="1"><stop offset="0" stop-color="#ce9a7a"/><stop offset="1" stop-color="#ce9a7a" stop-opacity="0"/></radialGradient><radialGradient id="u" cx="0" cy="0" gradientTransform="matrix(.41951394 -.13184733 1.49361414 4.75240526 9.23456 12.348)" gradientUnits="userSpaceOnUse" r="1"><stop offset="0" stop-color="#af6b4a"/><stop offset="1" stop-color="#af6b4a" stop-opacity="0"/></radialGradient><linearGradient id="v" gradientUnits="userSpaceOnUse" x1="14.24" x2="11.698" y1="9.063" y2="9.824"><stop offset="0" stop-color="#d7a889"/><stop offset="1" stop-color="#d7a889" stop-opacity="0"/></linearGradient><linearGradient id="w" gradientUnits="userSpaceOnUse" x1="12.802" x2="12.459" xlink:href="#p" y1="14.688" y2="13.594"/><radialGradient id="x" cx="0" cy="0" gradientTransform="matrix(.8226908 2.71003877 -3.53608502 1.07345498 9.30882 4.18977)" gradientUnits="userSpaceOnUse" r="1"><stop offset="0" stop-color="#cea17d"/><stop offset="1" stop-color="#cea17d" stop-opacity="0"/></radialGradient><linearGradient id="y" gradientUnits="userSpaceOnUse" x1="14.596" x2="17.148" y1="8.389" y2="9.169"><stop offset="0" stop-color="#d19979"/><stop offset="1" stop-color="#d19979" stop-opacity="0"/></linearGradient><linearGradient id="z" gradientUnits="userSpaceOnUse" x1="20.232" x2="18.987" y1="10.522" y2="10.107"><stop offset="0" stop-color="#bd7e5e"/><stop offset="1" stop-color="#bd7e5e" stop-opacity="0"/></linearGradient><linearGradient id="A" gradientUnits="userSpaceOnUse" x1="19.86" x2="19.459" y1="10.556" y2="10.427"><stop offset="0" stop-color="#a36643"/><stop offset="1" stop-color="#a36643" stop-opacity="0"/></linearGradient><linearGradient id="B" gradientUnits="userSpaceOnUse" x1="17.959" x2="16.158" y1="15.177" y2="11.708"><stop offset="0" stop-color="#ebb298"/><stop offset="1" stop-color="#ebb298" stop-opacity="0"/></linearGradient><radialGradient id="C" cx="0" cy="0" gradientTransform="matrix(-.87461795 3.69730008 -4.09450775 -.96857975 19.8281 1.76859)" gradientUnits="userSpaceOnUse" r="1"><stop offset="0" stop-color="#cfa380"/><stop offset="1" stop-color="#cfa380" stop-opacity="0"/></radialGradient><linearGradient id="D"><stop offset="0" stop-color="#dfa891"/><stop offset="1" stop-color="#dfa891" stop-opacity="0"/></linearGradient><linearGradient id="E" gradientUnits="userSpaceOnUse" x1="20.957" x2="20.888" xlink:href="#D" y1="4.932" y2="15.559"/><linearGradient id="F" gradientUnits="userSpaceOnUse" x1="19.14" x2="22.241" y1="10.639" y2="11.633"><stop offset="0" stop-color="#bc7d5c"/><stop offset="1" stop-color="#bc7d5c" stop-opacity="0"/></linearGradient><linearGradient id="G" gradientUnits="userSpaceOnUse" x1="20.218" x2="21.16" xlink:href="#p" y1="16.039" y2="14.146"/><radialGradient id="H" cx="0" cy="0" gradientTransform="matrix(-.70286189 -.24797186 .63775761 -1.80768706 22.8423 16.236)" gradientUnits="userSpaceOnUse" r="1"><stop offset="0" stop-color="#ce9d7e"/><stop offset="1" stop-color="#ce9d7e" stop-opacity="0"/></radialGradient><radialGradient id="I" cx="0" cy="0" gradientTransform="matrix(-.73284483 3.67721548 -4.42241079 -.88135735 23.9534 3.93137)" gradientUnits="userSpaceOnUse" r="1"><stop offset="0" stop-color="#cca07d"/><stop offset="1" stop-color="#cca07d" stop-opacity="0"/></radialGradient><linearGradient id="J" gradientUnits="userSpaceOnUse" x1="25.319" x2="25.253" xlink:href="#D" y1="7.024" y2="17.65"/><linearGradient id="K" gradientUnits="userSpaceOnUse" x1="21.631" x2="20.873" y1="17.163" y2="16.637"><stop offset="0" stop-color="#fac5a5"/><stop offset="1" stop-color="#fac5a5" stop-opacity="0"/></linearGradient><radialGradient id="L" cx="0" cy="0" gradientTransform="matrix(1.29717953 1.10260118 -3.33474569 3.9232353 24.5422 13.7908)" gradientUnits="userSpaceOnUse" r="1"><stop offset="0" stop-color="#ca9d81"/><stop offset="1" stop-color="#ca9d81" stop-opacity="0"/></radialGradient><radialGradient id="M" cx="0" cy="0" gradientTransform="matrix(-1.61761624 3.67648663 -3.7849061 -1.6653197 28.6103 12.0196)" gradientUnits="userSpaceOnUse" r="1"><stop offset="0" stop-color="#daac87"/><stop offset="1" stop-color="#daac87" stop-opacity="0"/></radialGradient><linearGradient id="N" gradientUnits="userSpaceOnUse" x1="27.742" x2="23.644" y1="14.916" y2="20.062"><stop offset="0" stop-color="#fecdaa"/><stop offset="1" stop-color="#fecdaa" stop-opacity="0"/></linearGradient><linearGradient id="O"><stop offset="0" stop-color="#f6c3a5"/><stop offset="1" stop-color="#f6c3a5" stop-opacity="0"/></linearGradient><linearGradient id="P" gradientUnits="userSpaceOnUse" x1="10.535" x2="8.916" xlink:href="#O" y1="17.615" y2="18.138"/><linearGradient id="Q" gradientUnits="userSpaceOnUse" x1="13.528" x2="12.282" xlink:href="#O" y1="15.086" y2="15.036"/><linearGradient id="R" gradientUnits="userSpaceOnUse" x1="18.355" x2="17.103" xlink:href="#O" y1="15.133" y2="16.218"/><linearGradient id="S" gradientUnits="userSpaceOnUse" x1="22.132" x2="20.879" xlink:href="#O" y1="17.358" y2="18.443"/><radialGradient id="T" cx="0" cy="0" gradientTransform="matrix(-1.11972327 19.75489204 -19.11711571 -1.08357359 15.9574 11.272)" gradientUnits="userSpaceOnUse" r="1"><stop offset=".837" stop-color="#b6708f" stop-opacity="0"/><stop offset="1" stop-color="#b6708f"/></radialGradient><radialGradient id="U" cx="0" cy="0" gradientTransform="matrix(-.02402331 2.5650275 -.76777933 -.0071908 14.3758 10.3776)" gradientUnits="userSpaceOnUse" r="1"><stop offset=".304" stop-color="#c08662"/><stop offset="1" stop-color="#c08662" stop-opacity="0"/></radialGradient><linearGradient id="V"><stop offset="0" stop-color="#fecea7"/><stop offset="1" stop-color="#fecea7" stop-opacity="0"/></linearGradient><radialGradient id="W" cx="0" cy="0" gradientTransform="matrix(-2.60144641 2.43950532 -1.65365508 -1.76342927 29.4827 13.7268)" gradientUnits="userSpaceOnUse" r="1" xlink:href="#V"/><radialGradient id="X" cx="0" cy="0" gradientTransform="matrix(-1.29995504 1.90252274 -2.00202366 -1.367942 25.5837 5.93821)" gradientUnits="userSpaceOnUse" r="1" xlink:href="#V"/><radialGradient id="Y" cx="0" cy="0" gradientTransform="matrix(-1.76246557 2.54475411 -1.83313317 -1.26960561 20.9765 3.22051)" gradientUnits="userSpaceOnUse" r="1" xlink:href="#V"/><radialGradient id="Z" cx="0" cy="0" gradientTransform="matrix(-.90996777 2.55111775 -1.6642098 -.59361324 11.4576 5.59229)" gradientUnits="userSpaceOnUse" r="1" xlink:href="#V"/><radialGradient id="aa" cx="0" cy="0" gradientTransform="matrix(-.47663925 1.08099242 -1.22113412 -.53843157 6.38786 9.52708)" gradientUnits="userSpaceOnUse" r="1" xlink:href="#V"/><g filter="url(#a)"><path d="m21.4753 5.41301c.4069-1.2855-.3042-2.65887-1.5879-3.07129-1.2782-.41061-2.649.28144-3.0617 1.55891-.6506 2.0138-1.6104 5.04243-2.4147 7.81277-.0412.1418-.241.1463-.2872.0059-.5999-1.82493-1.5577-4.73391-1.856-5.61309-.4453-1.3125-1.887-1.94079-3.16511-1.48525-1.26359.45035-1.92286 1.83977-1.4725 3.10337l.36843 1.03376c-.60052-.93974-1.78958-1.3763-2.88487-.98594-1.27394.45405-1.93861 1.85486-1.48457 3.12885l.67846 1.9036c.23573.6967.90488 2.5179 1.14809 4.869.02196.2122.04337.4275.06503.6452.24416 2.4541.51929 5.2197 1.95317 7.523 1.42416 2.5513 4.15067 4.2767 7.28007 4.2767 1.2409 0 2.4185-.2713 3.4767-.7579 1.3605-.5836 2.6202-1.481 3.5996-2.8013 1.1593-1.4724 1.5458-2.1664 2.1384-3.2304.1023-.1836.2107-.3783.3303-.5899.5766-1.02 1.7632-2.6112 2.4457-3.4957l2.2836-2.5801c.9527-1.0294 1.0417-2.549-.1041-3.6094-1.0294-.9527-2.7349-.8069-3.8621.4373l-2.2834 2.4571 3.1463-8.22126c.4894-1.27895-.1746-2.71417-1.462-3.1809-1.2629-.45786-2.6662.18222-3.1217 1.44596-.1315.36463-.2743.76295-.4252 1.18731z" fill="#ebb297"/><path d="m21.4753 5.41301c.4069-1.2855-.3042-2.65887-1.5879-3.07129-1.2782-.41061-2.649.28144-3.0617 1.55891-.6506 2.0138-1.6104 5.04243-2.4147 7.81277-.0412.1418-.241.1463-.2872.0059-.5999-1.82493-1.5577-4.73391-1.856-5.61309-.4453-1.3125-1.887-1.94079-3.16511-1.48525-1.26359.45035-1.92286 1.83977-1.4725 3.10337l.36843 1.03376c-.60052-.93974-1.78958-1.3763-2.88487-.98594-1.27394.45405-1.93861 1.85486-1.48457 3.12885l.67846 1.9036c.23573.6967.90488 2.5179 1.14809 4.869.02196.2122.04337.4275.06503.6452.24416 2.4541.51929 5.2197 1.95317 7.523 1.42416 2.5513 4.15067 4.2767 7.28007 4.2767 1.2409 0 2.4185-.2713 3.4767-.7579 1.3605-.5836 2.6202-1.481 3.5996-2.8013 1.1593-1.4724 1.5458-2.1664 2.1384-3.2304.1023-.1836.2107-.3783.3303-.5899.5766-1.02 1.7632-2.6112 2.4457-3.4957l2.2836-2.5801c.9527-1.0294 1.0417-2.549-.1041-3.6094-1.0294-.9527-2.7349-.8069-3.8621.4373l-2.2834 2.4571 3.1463-8.22126c.4894-1.27895-.1746-2.71417-1.462-3.1809-1.2629-.45786-2.6662.18222-3.1217 1.44596-.1315.36463-.2743.76295-.4252 1.18731z" fill="url(#l)"/><path d="m21.4753 5.41301c.4069-1.2855-.3042-2.65887-1.5879-3.07129-1.2782-.41061-2.649.28144-3.0617 1.55891-.6506 2.0138-1.6104 5.04243-2.4147 7.81277-.0412.1418-.241.1463-.2872.0059-.5999-1.82493-1.5577-4.73391-1.856-5.61309-.4453-1.3125-1.887-1.94079-3.16511-1.48525-1.26359.45035-1.92286 1.83977-1.4725 3.10337l.36843 1.03376c-.60052-.93974-1.78958-1.3763-2.88487-.98594-1.27394.45405-1.93861 1.85486-1.48457 3.12885l.67846 1.9036c.23573.6967.90488 2.5179 1.14809 4.869.02196.2122.04337.4275.06503.6452.24416 2.4541.51929 5.2197 1.95317 7.523 1.42416 2.5513 4.15067 4.2767 7.28007 4.2767 1.2409 0 2.4185-.2713 3.4767-.7579 1.3605-.5836 2.6202-1.481 3.5996-2.8013 1.1593-1.4724 1.5458-2.1664 2.1384-3.2304.1023-.1836.2107-.3783.3303-.5899.5766-1.02 1.7632-2.6112 2.4457-3.4957l2.2836-2.5801c.9527-1.0294 1.0417-2.549-.1041-3.6094-1.0294-.9527-2.7349-.8069-3.8621.4373l-2.2834 2.4571 3.1463-8.22126c.4894-1.27895-.1746-2.71417-1.462-3.1809-1.2629-.45786-2.6662.18222-3.1217 1.44596-.1315.36463-.2743.76295-.4252 1.18731z" fill="url(#m)"/><path d="m21.4753 5.41301c.4069-1.2855-.3042-2.65887-1.5879-3.07129-1.2782-.41061-2.649.28144-3.0617 1.55891-.6506 2.0138-1.6104 5.04243-2.4147 7.81277-.0412.1418-.241.1463-.2872.0059-.5999-1.82493-1.5577-4.73391-1.856-5.61309-.4453-1.3125-1.887-1.94079-3.16511-1.48525-1.26359.45035-1.92286 1.83977-1.4725 3.10337l.36843 1.03376c-.60052-.93974-1.78958-1.3763-2.88487-.98594-1.27394.45405-1.93861 1.85486-1.48457 3.12885l.67846 1.9036c.23573.6967.90488 2.5179 1.14809 4.869.02196.2122.04337.4275.06503.6452.24416 2.4541.51929 5.2197 1.95317 7.523 1.42416 2.5513 4.15067 4.2767 7.28007 4.2767 1.2409 0 2.4185-.2713 3.4767-.7579 1.3605-.5836 2.6202-1.481 3.5996-2.8013 1.1593-1.4724 1.5458-2.1664 2.1384-3.2304.1023-.1836.2107-.3783.3303-.5899.5766-1.02 1.7632-2.6112 2.4457-3.4957l2.2836-2.5801c.9527-1.0294 1.0417-2.549-.1041-3.6094-1.0294-.9527-2.7349-.8069-3.8621.4373l-2.2834 2.4571 3.1463-8.22126c.4894-1.27895-.1746-2.71417-1.462-3.1809-1.2629-.45786-2.6662.18222-3.1217 1.44596-.1315.36463-.2743.76295-.4252 1.18731z" fill="url(#n)"/></g><path d="m5.19349 15.9513c2.47353.7045 4.34259-.5607 5.08521-1.4053l-2.29861-5.81646c-.6062-.91999-1.78221-1.34377-2.86634-.95738-1.27394.45404-1.93861 1.85485-1.48457 3.12884l.67846 1.9036c.01707.0504.03641.1068.0577.1688.19597.5709.55685 1.6222.82815 2.9779z" fill="url(#o)"/><path d="m5.19349 15.9513c2.47353.7045 4.34259-.5607 5.08521-1.4053l-2.29861-5.81646c-.6062-.91999-1.78221-1.34377-2.86634-.95738-1.27394.45404-1.93861 1.85485-1.48457 3.12884l.67846 1.9036c.01707.0504.03641.1068.0577.1688.19597.5709.55685 1.6222.82815 2.9779z" fill="url(#q)"/><path d="m5.19349 15.9513c2.47353.7045 4.34259-.5607 5.08521-1.4053l-2.29861-5.81646c-.6062-.91999-1.78221-1.34377-2.86634-.95738-1.27394.45404-1.93861 1.85485-1.48457 3.12884l.67846 1.9036c.01707.0504.03641.1068.0577.1688.19597.5709.55685 1.6222.82815 2.9779z" fill="url(#r)"/><g filter="url(#b)"><rect fill="#f4c4a4" height="7.581" rx=".747" transform="matrix(.9233557 -.38394564 .38394564 .9233557 -3.036424 2.78949)" width="1.494" x="5.469" y="9"/></g><path d="m14.1238 11.7193c.0081.0248.0211.045.0371.0608l.4952 1.9811c-1.6119 1.4347-3.4345 1.4749-4.143 1.3863l-.2375-.598c.001-.0012.0021-.0024.0031-.0035l-2.29864-5.81646c-.01234-.01873-.02491-.03725-.03771-.05556.01928.02757.03803.05561.05625.08411l-.36844-1.03376c-.45035-1.2636.20891-2.65302 1.4725-3.10337 1.27814-.45554 2.71974.17275 3.16504 1.48525.2983.87918 1.2562 3.78816 1.8561 5.61309z" fill="url(#s)"/><path d="m14.1238 11.7193c.0081.0248.0211.045.0371.0608l.4952 1.9811c-1.6119 1.4347-3.4345 1.4749-4.143 1.3863l-.2375-.598c.001-.0012.0021-.0024.0031-.0035l-2.29864-5.81646c-.01234-.01873-.02491-.03725-.03771-.05556.01928.02757.03803.05561.05625.08411l-.36844-1.03376c-.45035-1.2636.20891-2.65302 1.4725-3.10337 1.27814-.45554 2.71974.17275 3.16504 1.48525.2983.87918 1.2562 3.78816 1.8561 5.61309z" fill="url(#t)"/><path d="m14.1238 11.7193c.0081.0248.0211.045.0371.0608l.4952 1.9811c-1.6119 1.4347-3.4345 1.4749-4.143 1.3863l-.2375-.598c.001-.0012.0021-.0024.0031-.0035l-2.29864-5.81646c-.01234-.01873-.02491-.03725-.03771-.05556.01928.02757.03803.05561.05625.08411l-.36844-1.03376c-.45035-1.2636.20891-2.65302 1.4725-3.10337 1.27814-.45554 2.71974.17275 3.16504 1.48525.2983.87918 1.2562 3.78816 1.8561 5.61309z" fill="url(#u)"/><path d="m14.1238 11.7193c.0081.0248.0211.045.0371.0608l.4952 1.9811c-1.6119 1.4347-3.4345 1.4749-4.143 1.3863l-.2375-.598c.001-.0012.0021-.0024.0031-.0035l-2.29864-5.81646c-.01234-.01873-.02491-.03725-.03771-.05556.01928.02757.03803.05561.05625.08411l-.36844-1.03376c-.45035-1.2636.20891-2.65302 1.4725-3.10337 1.27814-.45554 2.71974.17275 3.16504 1.48525.2983.87918 1.2562 3.78816 1.8561 5.61309z" fill="url(#v)"/><path d="m14.1238 11.7193c.0081.0248.0211.045.0371.0608l.4952 1.9811c-1.6119 1.4347-3.4345 1.4749-4.143 1.3863l-.2375-.598c.001-.0012.0021-.0024.0031-.0035l-2.29864-5.81646c-.01234-.01873-.02491-.03725-.03771-.05556.01928.02757.03803.05561.05625.08411l-.36844-1.03376c-.45035-1.2636.20891-2.65302 1.4725-3.10337 1.27814-.45554 2.71974.17275 3.16504 1.48525.2983.87918 1.2562 3.78816 1.8561 5.61309z" fill="url(#w)"/><path d="m14.1238 11.7193c.0081.0248.0211.045.0371.0608l.4952 1.9811c-1.6119 1.4347-3.4345 1.4749-4.143 1.3863l-.2375-.598c.001-.0012.0021-.0024.0031-.0035l-2.29864-5.81646c-.01234-.01873-.02491-.03725-.03771-.05556.01928.02757.03803.05561.05625.08411l-.36844-1.03376c-.45035-1.2636.20891-2.65302 1.4725-3.10337 1.27814-.45554 2.71974.17275 3.16504 1.48525.2983.87918 1.2562 3.78816 1.8561 5.61309z" fill="url(#x)"/><g filter="url(#c)"><rect fill="#f4c4a4" height="8.726" rx=".747" transform="matrix(.94491121 -.32732675 .32732675 .94491121 -1.342346 3.529626)" width="1.494" x="9.815" y="5.753"/></g><path d="m14.3278 11.8095c.0831 2.6886 2.7629 3.8256 3.941 3.482l2.8642-8.79735.3422-1.08114c.407-1.2855-.3041-2.65887-1.5879-3.07129-1.2781-.41061-2.649.28144-3.0617 1.55891-.6505 2.0138-1.6104 5.04243-2.4147 7.81277-.0138.0476-.0454.0797-.0831.0961z" fill="url(#y)"/><path d="m14.3278 11.8095c.0831 2.6886 2.7629 3.8256 3.941 3.482l2.8642-8.79735.3422-1.08114c.407-1.2855-.3041-2.65887-1.5879-3.07129-1.2781-.41061-2.649.28144-3.0617 1.55891-.6505 2.0138-1.6104 5.04243-2.4147 7.81277-.0138.0476-.0454.0797-.0831.0961z" fill="url(#z)"/><path d="m14.3278 11.8095c.0831 2.6886 2.7629 3.8256 3.941 3.482l2.8642-8.79735.3422-1.08114c.407-1.2855-.3041-2.65887-1.5879-3.07129-1.2781-.41061-2.649.28144-3.0617 1.55891-.6505 2.0138-1.6104 5.04243-2.4147 7.81277-.0138.0476-.0454.0797-.0831.0961z" fill="url(#A)"/><path d="m14.3278 11.8095c.0831 2.6886 2.7629 3.8256 3.941 3.482l2.8642-8.79735.3422-1.08114c.407-1.2855-.3041-2.65887-1.5879-3.07129-1.2781-.41061-2.649.28144-3.0617 1.55891-.6505 2.0138-1.6104 5.04243-2.4147 7.81277-.0138.0476-.0454.0797-.0831.0961z" fill="url(#B)"/><path d="m14.3278 11.8095c.0831 2.6886 2.7629 3.8256 3.941 3.482l2.8642-8.79735.3422-1.08114c.407-1.2855-.3041-2.65887-1.5879-3.07129-1.2781-.41061-2.649.28144-3.0617 1.55891-.6505 2.0138-1.6104 5.04243-2.4147 7.81277-.0138.0476-.0454.0797-.0831.0961z" fill="url(#C)"/><g filter="url(#d)"><rect fill="url(#E)" height="10.452" rx=".747" transform="matrix(.95750494 .28841687 -.28841687 .95750494 1.910406 -5.477298)" width="1.494" x="19.543" y="3.744"/></g><path d="m21.0434 6.777-2.8507 8.6796c.4606.614 1.7873 1.8545 3.7994 1.9395 0-.0357.3002-.5834.7867-1.4482l3.1461-8.22095c.4895-1.27895-.1745-2.71418-1.462-3.18091-1.2629-.45785-2.6661.18222-3.1217 1.44597-.1314.36462-.2742.76295-.4251 1.18731z" fill="url(#F)"/><path d="m21.0434 6.777-2.8507 8.6796c.4606.614 1.7873 1.8545 3.7994 1.9395 0-.0357.3002-.5834.7867-1.4482l3.1461-8.22095c.4895-1.27895-.1745-2.71418-1.462-3.18091-1.2629-.45785-2.6661.18222-3.1217 1.44597-.1314.36462-.2742.76295-.4251 1.18731z" fill="url(#G)"/><path d="m21.0434 6.777-2.8507 8.6796c.4606.614 1.7873 1.8545 3.7994 1.9395 0-.0357.3002-.5834.7867-1.4482l3.1461-8.22095c.4895-1.27895-.1745-2.71418-1.462-3.18091-1.2629-.45785-2.6661.18222-3.1217 1.44597-.1314.36462-.2742.76295-.4251 1.18731z" fill="url(#H)"/><path d="m21.0434 6.777-2.8507 8.6796c.4606.614 1.7873 1.8545 3.7994 1.9395 0-.0357.3002-.5834.7867-1.4482l3.1461-8.22095c.4895-1.27895-.1745-2.71418-1.462-3.18091-1.2629-.45785-2.6661.18222-3.1217 1.44597-.1314.36462-.2742.76295-.4251 1.18731z" fill="url(#I)"/><g filter="url(#e)"><rect fill="url(#J)" height="10.452" rx=".794" transform="matrix(.93489198 .35493238 -.35493238 .93489198 3.621801 -8.072585)" width="1.589" x="23.814" y="5.836"/></g><g filter="url(#f)"><path d="m21.3857 17.1634 1.1675-3.8915" stroke="url(#K)" stroke-linecap="round" stroke-width=".6"/></g><path d="m22.7861 15.9289-.0079.0114c-.3483 1.417-.3201 4.2588 1.7247 6.4545.6199-1.0071 1.632-2.3613 2.2417-3.1515l2.2837-2.5801c.9527-1.0294 1.0416-2.549-.1041-3.6094-1.0295-.9527-2.7349-.8069-3.8622.4373l-2.2833 2.4571z" fill="url(#L)"/><path d="m22.7861 15.9289-.0079.0114c-.3483 1.417-.3201 4.2588 1.7247 6.4545.6199-1.0071 1.632-2.3613 2.2417-3.1515l2.2837-2.5801c.9527-1.0294 1.0416-2.549-.1041-3.6094-1.0295-.9527-2.7349-.8069-3.8622.4373l-2.2833 2.4571z" fill="url(#M)"/><g filter="url(#g)"><path d="m23.3703 19.2876 4.3721-4.5997" stroke="url(#N)" stroke-linecap="round"/></g><g filter="url(#h)"><path d="m8.15448 17.1418c.3315-.1585 1.52203-1.1112 2.24842-2.0106" stroke="url(#P)" stroke-linecap="round" stroke-width=".6"/></g><g filter="url(#i)"><path d="m12.0093 14.1831c.3631-.0565 1.5133-.3459 2.0738-1.2759" stroke="url(#Q)" stroke-linecap="round" stroke-width=".6"/></g><g filter="url(#j)"><path d="m15.4365 13.9977c.4053.2973 1.524.8972 2.7563.9188" stroke="url(#R)" stroke-linecap="round" stroke-width=".6"/></g><g filter="url(#k)"><path d="m19.2131 16.2231c.4054.2972 1.5241.8971 2.7564.9187" stroke="url(#S)" stroke-linecap="round" stroke-width=".6"/></g><path d="m21.5136 5.4084c.4079-1.2855-.3048-2.65886-1.5913-3.07129-1.2808-.41061-2.6546.28144-3.0682 1.55891-.652 2.01406-1.6141 5.04321-2.4202 7.81378-.0412.1418-.2408.1462-.287.006-.6012-1.82488-1.5614-4.73484-1.8604-5.6142-.4463-1.3125-1.891-1.94078-3.17184-1.48525-1.26629.45035-1.92695 1.83978-1.47564 3.10337l.36922 1.03376c-.6018-.93974-1.7934-1.3763-2.89102-.98593-1.27666.45404-1.94274 1.85485-1.48773 3.12875l.6799 1.9037c.23623.6967.90681 2.5179 1.15054 4.869.02201.2122.04346.4275.06517.6451.24467 2.4542.5204 5.2198 1.95733 7.5231 1.4272 2.5513 4.15947 4.2766 7.29557 4.2766 1.2436 0 2.4237-.2713 3.4841-.7578 1.3634-.5836 2.6258-1.481 3.6073-2.8013 1.1617-1.4724 1.5491-2.1664 2.143-3.2304.1025-.1836.2111-.3783.331-.5899.5777-1.02 1.7669-2.6112 2.4508-3.4957l2.2885-2.5801c.9548-1.0294 1.0439-2.549-.1043-3.6094-1.0316-.9527-2.7407-.8069-3.8704.4373l-2.2882 2.4571 3.153-8.22127c.4905-1.27894-.175-2.71417-1.4651-3.1809-1.2656-.45785-2.6718.18222-3.1284 1.44597-.1317.36462-.2748.76295-.4261 1.18731z" fill="url(#T)"/><path d="m21.5136 5.4084c.4079-1.2855-.3048-2.65886-1.5913-3.07129-1.2808-.41061-2.6546.28144-3.0682 1.55891-.652 2.01406-1.6141 5.04321-2.4202 7.81378-.0412.1418-.2408.1462-.287.006-.6012-1.82488-1.5614-4.73484-1.8604-5.6142-.4463-1.3125-1.891-1.94078-3.17184-1.48525-1.26629.45035-1.92695 1.83978-1.47564 3.10337l.36922 1.03376c-.6018-.93974-1.7934-1.3763-2.89102-.98593-1.27666.45404-1.94274 1.85485-1.48773 3.12875l.6799 1.9037c.23623.6967.90681 2.5179 1.15054 4.869.02201.2122.04346.4275.06517.6451.24467 2.4542.5204 5.2198 1.95733 7.5231 1.4272 2.5513 4.15947 4.2766 7.29557 4.2766 1.2436 0 2.4237-.2713 3.4841-.7578 1.3634-.5836 2.6258-1.481 3.6073-2.8013 1.1617-1.4724 1.5491-2.1664 2.143-3.2304.1025-.1836.2111-.3783.331-.5899.5777-1.02 1.7669-2.6112 2.4508-3.4957l2.2885-2.5801c.9548-1.0294 1.0439-2.549-.1043-3.6094-1.0316-.9527-2.7407-.8069-3.8704.4373l-2.2882 2.4571 3.153-8.22127c.4905-1.27894-.175-2.71417-1.4651-3.1809-1.2656-.45785-2.6718.18222-3.1284 1.44597-.1317.36462-.2748.76295-.4261 1.18731z" fill="url(#U)"/><path d="m21.5136 5.4084c.4079-1.2855-.3048-2.65886-1.5913-3.07129-1.2808-.41061-2.6546.28144-3.0682 1.55891-.652 2.01406-1.6141 5.04321-2.4202 7.81378-.0412.1418-.2408.1462-.287.006-.6012-1.82488-1.5614-4.73484-1.8604-5.6142-.4463-1.3125-1.891-1.94078-3.17184-1.48525-1.26629.45035-1.92695 1.83978-1.47564 3.10337l.36922 1.03376c-.6018-.93974-1.7934-1.3763-2.89102-.98593-1.27666.45404-1.94274 1.85485-1.48773 3.12875l.6799 1.9037c.23623.6967.90681 2.5179 1.15054 4.869.02201.2122.04346.4275.06517.6451.24467 2.4542.5204 5.2198 1.95733 7.5231 1.4272 2.5513 4.15947 4.2766 7.29557 4.2766 1.2436 0 2.4237-.2713 3.4841-.7578 1.3634-.5836 2.6258-1.481 3.6073-2.8013 1.1617-1.4724 1.5491-2.1664 2.143-3.2304.1025-.1836.2111-.3783.331-.5899.5777-1.02 1.7669-2.6112 2.4508-3.4957l2.2885-2.5801c.9548-1.0294 1.0439-2.549-.1043-3.6094-1.0316-.9527-2.7407-.8069-3.8704.4373l-2.2882 2.4571 3.153-8.22127c.4905-1.27894-.175-2.71417-1.4651-3.1809-1.2656-.45785-2.6718.18222-3.1284 1.44597-.1317.36462-.2748.76295-.4261 1.18731z" fill="url(#W)"/><path d="m21.5136 5.4084c.4079-1.2855-.3048-2.65886-1.5913-3.07129-1.2808-.41061-2.6546.28144-3.0682 1.55891-.652 2.01406-1.6141 5.04321-2.4202 7.81378-.0412.1418-.2408.1462-.287.006-.6012-1.82488-1.5614-4.73484-1.8604-5.6142-.4463-1.3125-1.891-1.94078-3.17184-1.48525-1.26629.45035-1.92695 1.83978-1.47564 3.10337l.36922 1.03376c-.6018-.93974-1.7934-1.3763-2.89102-.98593-1.27666.45404-1.94274 1.85485-1.48773 3.12875l.6799 1.9037c.23623.6967.90681 2.5179 1.15054 4.869.02201.2122.04346.4275.06517.6451.24467 2.4542.5204 5.2198 1.95733 7.5231 1.4272 2.5513 4.15947 4.2766 7.29557 4.2766 1.2436 0 2.4237-.2713 3.4841-.7578 1.3634-.5836 2.6258-1.481 3.6073-2.8013 1.1617-1.4724 1.5491-2.1664 2.143-3.2304.1025-.1836.2111-.3783.331-.5899.5777-1.02 1.7669-2.6112 2.4508-3.4957l2.2885-2.5801c.9548-1.0294 1.0439-2.549-.1043-3.6094-1.0316-.9527-2.7407-.8069-3.8704.4373l-2.2882 2.4571 3.153-8.22127c.4905-1.27894-.175-2.71417-1.4651-3.1809-1.2656-.45785-2.6718.18222-3.1284 1.44597-.1317.36462-.2748.76295-.4261 1.18731z" fill="url(#X)"/><path d="m21.5136 5.4084c.4079-1.2855-.3048-2.65886-1.5913-3.07129-1.2808-.41061-2.6546.28144-3.0682 1.55891-.652 2.01406-1.6141 5.04321-2.4202 7.81378-.0412.1418-.2408.1462-.287.006-.6012-1.82488-1.5614-4.73484-1.8604-5.6142-.4463-1.3125-1.891-1.94078-3.17184-1.48525-1.26629.45035-1.92695 1.83978-1.47564 3.10337l.36922 1.03376c-.6018-.93974-1.7934-1.3763-2.89102-.98593-1.27666.45404-1.94274 1.85485-1.48773 3.12875l.6799 1.9037c.23623.6967.90681 2.5179 1.15054 4.869.02201.2122.04346.4275.06517.6451.24467 2.4542.5204 5.2198 1.95733 7.5231 1.4272 2.5513 4.15947 4.2766 7.29557 4.2766 1.2436 0 2.4237-.2713 3.4841-.7578 1.3634-.5836 2.6258-1.481 3.6073-2.8013 1.1617-1.4724 1.5491-2.1664 2.143-3.2304.1025-.1836.2111-.3783.331-.5899.5777-1.02 1.7669-2.6112 2.4508-3.4957l2.2885-2.5801c.9548-1.0294 1.0439-2.549-.1043-3.6094-1.0316-.9527-2.7407-.8069-3.8704.4373l-2.2882 2.4571 3.153-8.22127c.4905-1.27894-.175-2.71417-1.4651-3.1809-1.2656-.45785-2.6718.18222-3.1284 1.44597-.1317.36462-.2748.76295-.4261 1.18731z" fill="url(#Y)"/><path d="m21.5136 5.4084c.4079-1.2855-.3048-2.65886-1.5913-3.07129-1.2808-.41061-2.6546.28144-3.0682 1.55891-.652 2.01406-1.6141 5.04321-2.4202 7.81378-.0412.1418-.2408.1462-.287.006-.6012-1.82488-1.5614-4.73484-1.8604-5.6142-.4463-1.3125-1.891-1.94078-3.17184-1.48525-1.26629.45035-1.92695 1.83978-1.47564 3.10337l.36922 1.03376c-.6018-.93974-1.7934-1.3763-2.89102-.98593-1.27666.45404-1.94274 1.85485-1.48773 3.12875l.6799 1.9037c.23623.6967.90681 2.5179 1.15054 4.869.02201.2122.04346.4275.06517.6451.24467 2.4542.5204 5.2198 1.95733 7.5231 1.4272 2.5513 4.15947 4.2766 7.29557 4.2766 1.2436 0 2.4237-.2713 3.4841-.7578 1.3634-.5836 2.6258-1.481 3.6073-2.8013 1.1617-1.4724 1.5491-2.1664 2.143-3.2304.1025-.1836.2111-.3783.331-.5899.5777-1.02 1.7669-2.6112 2.4508-3.4957l2.2885-2.5801c.9548-1.0294 1.0439-2.549-.1043-3.6094-1.0316-.9527-2.7407-.8069-3.8704.4373l-2.2882 2.4571 3.153-8.22127c.4905-1.27894-.175-2.71417-1.4651-3.1809-1.2656-.45785-2.6718.18222-3.1284 1.44597-.1317.36462-.2748.76295-.4261 1.18731z" fill="url(#Z)"/><path d="m21.5136 5.4084c.4079-1.2855-.3048-2.65886-1.5913-3.07129-1.2808-.41061-2.6546.28144-3.0682 1.55891-.652 2.01406-1.6141 5.04321-2.4202 7.81378-.0412.1418-.2408.1462-.287.006-.6012-1.82488-1.5614-4.73484-1.8604-5.6142-.4463-1.3125-1.891-1.94078-3.17184-1.48525-1.26629.45035-1.92695 1.83978-1.47564 3.10337l.36922 1.03376c-.6018-.93974-1.7934-1.3763-2.89102-.98593-1.27666.45404-1.94274 1.85485-1.48773 3.12875l.6799 1.9037c.23623.6967.90681 2.5179 1.15054 4.869.02201.2122.04346.4275.06517.6451.24467 2.4542.5204 5.2198 1.95733 7.5231 1.4272 2.5513 4.15947 4.2766 7.29557 4.2766 1.2436 0 2.4237-.2713 3.4841-.7578 1.3634-.5836 2.6258-1.481 3.6073-2.8013 1.1617-1.4724 1.5491-2.1664 2.143-3.2304.1025-.1836.2111-.3783.331-.5899.5777-1.02 1.7669-2.6112 2.4508-3.4957l2.2885-2.5801c.9548-1.0294 1.0439-2.549-.1043-3.6094-1.0316-.9527-2.7407-.8069-3.8704.4373l-2.2882 2.4571 3.153-8.22127c.4905-1.27894-.175-2.71417-1.4651-3.1809-1.2656-.45785-2.6718.18222-3.1284 1.44597-.1317.36462-.2748.76295-.4261 1.18731z" fill="url(#aa)"/></svg>