<svg fill="none" height="32" viewBox="0 0 32 32" width="32" xmlns="http://www.w3.org/2000/svg" xmlns:xlink="http://www.w3.org/1999/xlink"><filter id="a" color-interpolation-filters="sRGB" filterUnits="userSpaceOnUse" height="11.769" width="6.582" x="3.806" y="6.912"><feFlood flood-opacity="0" result="BackgroundImageFix"/><feBlend in="SourceGraphic" in2="BackgroundImageFix" mode="normal" result="shape"/><feGaussianBlur result="effect1_foregroundBlur_20020_1414" stdDeviation=".85"/></filter><filter id="b" color-interpolation-filters="sRGB" filterUnits="userSpaceOnUse" height="12.268" width="6.199" x="8.571" y="3.57"><feFlood flood-opacity="0" result="BackgroundImageFix"/><feBlend in="SourceGraphic" in2="BackgroundImageFix" mode="normal" result="shape"/><feGaussianBlur result="effect1_foregroundBlur_20020_1414" stdDeviation="1"/></filter><filter id="c" color-interpolation-filters="sRGB" filterUnits="userSpaceOnUse" height="14.453" width="6.422" x="13.678" y="1.588"><feFlood flood-opacity="0" result="BackgroundImageFix"/><feBlend in="SourceGraphic" in2="BackgroundImageFix" mode="normal" result="shape"/><feGaussianBlur result="effect1_foregroundBlur_20020_1414" stdDeviation="1"/></filter><filter id="d" color-interpolation-filters="sRGB" filterUnits="userSpaceOnUse" height="12.656" width="6.219" x="19.212" y="5.445"><feFlood flood-opacity="0" result="BackgroundImageFix"/><feBlend in="SourceGraphic" in2="BackgroundImageFix" mode="normal" result="shape"/><feGaussianBlur result="effect1_foregroundBlur_20020_1414" stdDeviation=".625"/></filter><filter id="e" color-interpolation-filters="sRGB" filterUnits="userSpaceOnUse" height="9.875" width="10.125" x="20.025" y="13.413"><feFlood flood-opacity="0" result="BackgroundImageFix"/><feBlend in="SourceGraphic" in2="BackgroundImageFix" mode="normal" result="shape"/><feGaussianBlur result="effect1_foregroundBlur_20020_1414" stdDeviation=".75"/></filter><filter id="f" color-interpolation-filters="sRGB" filterUnits="userSpaceOnUse" height="3.61" width="3.406" x="6.518" y="14.687"><feFlood flood-opacity="0" result="BackgroundImageFix"/><feBlend in="SourceGraphic" in2="BackgroundImageFix" mode="normal" result="shape"/><feGaussianBlur result="effect1_foregroundBlur_20020_1414" stdDeviation=".25"/></filter><filter id="g" color-interpolation-filters="sRGB" filterUnits="userSpaceOnUse" height="2.827" width="4.015" x="10.081" y="12.682"><feFlood flood-opacity="0" result="BackgroundImageFix"/><feBlend in="SourceGraphic" in2="BackgroundImageFix" mode="normal" result="shape"/><feGaussianBlur result="effect1_foregroundBlur_20020_1414" stdDeviation=".25"/></filter><filter id="h" color-interpolation-filters="sRGB" filterUnits="userSpaceOnUse" height="2.406" width="4.047" x="13.976" y="12.788"><feFlood flood-opacity="0" result="BackgroundImageFix"/><feBlend in="SourceGraphic" in2="BackgroundImageFix" mode="normal" result="shape"/><feGaussianBlur result="effect1_foregroundBlur_20020_1414" stdDeviation=".25"/></filter><filter id="i" color-interpolation-filters="sRGB" filterUnits="userSpaceOnUse" height="2.406" width="4.047" x="18.008" y="15.316"><feFlood flood-opacity="0" result="BackgroundImageFix"/><feBlend in="SourceGraphic" in2="BackgroundImageFix" mode="normal" result="shape"/><feGaussianBlur result="effect1_foregroundBlur_20020_1414" stdDeviation=".25"/></filter><radialGradient id="j" cx="0" cy="0" gradientTransform="matrix(-18.0025611 3.4058499 -9.51981324 -50.31960438 22.7374 15.3859)" gradientUnits="userSpaceOnUse" r="1"><stop offset=".853" stop-color="#dda492" stop-opacity="0"/><stop offset="1" stop-color="#dda492"/></radialGradient><radialGradient id="k" cx="0" cy="0" gradientTransform="matrix(-3.34492944 2.68747046 -4.45232923 -5.54154076 19.9247 23.6875)" gradientUnits="userSpaceOnUse" r="1"><stop offset="0" stop-color="#fec8b7"/><stop offset="1" stop-color="#fec8b7" stop-opacity="0"/></radialGradient><radialGradient id="l" cx="0" cy="0" gradientTransform="matrix(-4.67638197 30.65152345 -20.56740929 -3.13788847 17.7546 1.3151)" gradientUnits="userSpaceOnUse" r="1"><stop offset=".778" stop-color="#ba7d97" stop-opacity="0"/><stop offset="1" stop-color="#ba7d97"/></radialGradient><radialGradient id="m" cx="0" cy="0" gradientTransform="matrix(-4.97396003 28.64293365 -19.2196611 -3.33757105 17.7547 1.3151)" gradientUnits="userSpaceOnUse" r="1"><stop offset=".968" stop-color="#bf7b8a" stop-opacity="0"/><stop offset="1" stop-color="#bf7b8a"/></radialGradient><linearGradient id="n" gradientUnits="userSpaceOnUse" x1="8.962" x2="8.019" y1="12.07" y2="12.309"><stop offset="0" stop-color="#de9b80"/><stop offset="1" stop-color="#de9b80" stop-opacity="0"/></linearGradient><radialGradient id="o" cx="0" cy="0" gradientTransform="matrix(1.93750307 -.28125052 .73698809 5.07702777 4.38696 13.625)" gradientUnits="userSpaceOnUse" r="1"><stop offset="0" stop-color="#dda391"/><stop offset="1" stop-color="#dda391" stop-opacity="0"/></radialGradient><linearGradient id="p" gradientUnits="userSpaceOnUse" x1="9.98" x2="8.29" y1="15.993" y2="14.804"><stop offset="0" stop-color="#fcc5b2"/><stop offset="1" stop-color="#fcc5b2" stop-opacity="0"/></linearGradient><radialGradient id="q" cx="0" cy="0" gradientTransform="matrix(2.35858816 2.63606633 -2.9736903 2.66067308 4.47802 8.01606)" gradientUnits="userSpaceOnUse" r="1"><stop offset="0" stop-color="#dbab90"/><stop offset="1" stop-color="#dbab90" stop-opacity="0"/></radialGradient><linearGradient id="r" gradientUnits="userSpaceOnUse" x1="14.132" x2="12.803" y1="10.044" y2="10.132"><stop offset="0" stop-color="#d6987d"/><stop offset="1" stop-color="#d6987d" stop-opacity="0"/></linearGradient><linearGradient id="s" gradientUnits="userSpaceOnUse" x1="8.414" x2="10.993" y1="10.825" y2="10.463"><stop offset="0" stop-color="#dc977a"/><stop offset="1" stop-color="#dc977a" stop-opacity="0"/></linearGradient><radialGradient id="t" cx="0" cy="0" gradientTransform="matrix(.90625 -.12499946 1.06369716 7.71183752 8.66536 13.4291)" gradientUnits="userSpaceOnUse" r="1"><stop offset="0" stop-color="#ca8363"/><stop offset="1" stop-color="#ca8363" stop-opacity="0"/></radialGradient><linearGradient id="u" gradientUnits="userSpaceOnUse" x1="13.366" x2="12.944" y1="15.318" y2="11.97"><stop offset=".29" stop-color="#fcc5b2"/><stop offset="1" stop-color="#fcc5b2" stop-opacity="0"/></linearGradient><radialGradient id="v" cx="0" cy="0" gradientTransform="matrix(1.4062529 2.31850044 -2.84948358 1.72831305 9.05598 4.21997)" gradientUnits="userSpaceOnUse" r="1"><stop offset="0" stop-color="#dab7a2"/><stop offset="1" stop-color="#dab7a2" stop-opacity="0"/></radialGradient><linearGradient id="w" gradientUnits="userSpaceOnUse" x1="13.572" x2="15.681" y1="8.999" y2="9.195"><stop offset="0" stop-color="#de9c81"/><stop offset="1" stop-color="#de9c81" stop-opacity="0"/></linearGradient><linearGradient id="x" gradientUnits="userSpaceOnUse" x1="18.79" x2="17.744" y1="11.463" y2="11.305"><stop offset="0" stop-color="#d7987e"/><stop offset="1" stop-color="#d7987e" stop-opacity="0"/></linearGradient><radialGradient id="y" cx="0" cy="0" gradientTransform="matrix(-.76562388 -.14062878 .82422891 -4.48734127 18.5091 12.3665)" gradientUnits="userSpaceOnUse" r="1"><stop offset="0" stop-color="#c2846b"/><stop offset="1" stop-color="#c2846b" stop-opacity="0"/></radialGradient><radialGradient id="z" cx="0" cy="0" gradientTransform="matrix(1.85792502 .1259612 -.55439255 8.17727855 12.3449 12.5924)" gradientUnits="userSpaceOnUse" r="1"><stop offset=".216" stop-color="#d18c6e"/><stop offset="1" stop-color="#d18c6e" stop-opacity="0"/></radialGradient><radialGradient id="A" cx="0" cy="0" gradientTransform="matrix(.89930744 3.08604565 -4.65240288 1.35576106 15.5254 1.57079)" gradientUnits="userSpaceOnUse" r="1"><stop offset="0" stop-color="#daad92"/><stop offset="1" stop-color="#d8aa90" stop-opacity="0"/></radialGradient><linearGradient id="B" gradientUnits="userSpaceOnUse" x1="15.321" x2="15.618" y1="14.938" y2="11.726"><stop offset="0" stop-color="#fcc5b2"/><stop offset="1" stop-color="#ebb197" stop-opacity="0"/><stop offset="1" stop-color="#fcc5b2" stop-opacity="0"/></linearGradient><linearGradient id="C" gradientUnits="userSpaceOnUse" x1="19.334" x2="18.259" y1="1.22" y2="9.941"><stop offset="0" stop-color="#ffe2c7"/><stop offset="1" stop-color="#ffe2c7" stop-opacity="0"/></linearGradient><linearGradient id="D" gradientUnits="userSpaceOnUse" x1="18.76" x2="21.305" y1="10.008" y2="10.775"><stop offset="0" stop-color="#df9e80"/><stop offset="1" stop-color="#df9e80" stop-opacity="0"/></linearGradient><linearGradient id="E" gradientUnits="userSpaceOnUse" x1="18.52" x2="19.77" y1="16.152" y2="12.375"><stop offset="0" stop-color="#fcc5b3"/><stop offset="1" stop-color="#fcc5b3" stop-opacity="0"/></linearGradient><radialGradient id="F" cx="0" cy="0" gradientTransform="matrix(-1.00074302 -.47343376 1.30055728 -2.74911453 22.306 16.3197)" gradientUnits="userSpaceOnUse" r="1"><stop offset=".218" stop-color="#ecb192"/><stop offset="1" stop-color="#ecb192" stop-opacity="0"/></radialGradient><linearGradient id="G" gradientUnits="userSpaceOnUse" x1="21.9" x2="25.681" y1="14.726" y2="1.82"><stop offset="0" stop-color="#ffdcc3"/><stop offset="1" stop-color="#ffdcc3" stop-opacity="0"/></linearGradient><linearGradient id="H" gradientUnits="userSpaceOnUse" x1="28.15" x2="27.653" y1="15.414" y2="21.285"><stop offset="0" stop-color="#ffe1c6"/><stop offset="1" stop-color="#ffe1c6" stop-opacity="0"/></linearGradient><linearGradient id="I"><stop offset="0" stop-color="#ffd5bc"/><stop offset="1" stop-color="#ffd5bc" stop-opacity="0"/></linearGradient><radialGradient id="J" cx="0" cy="0" gradientTransform="matrix(-5.06227568 3.24892517 -.98190547 -1.52994481 31.3802 13.5984)" gradientUnits="userSpaceOnUse" r="1" xlink:href="#I"/><radialGradient id="K" cx="0" cy="0" gradientTransform="matrix(1.6244612 -.94445343 .93392856 1.60635842 24.2401 5.96722)" gradientUnits="userSpaceOnUse" r="1" xlink:href="#I"/><radialGradient id="L" cx="0" cy="0" gradientTransform="matrix(1.71890617 -1.52642751 1.31664938 1.48267556 18.12 3.5683)" gradientUnits="userSpaceOnUse" r="1" xlink:href="#I"/><radialGradient id="M" cx="0" cy="0" gradientTransform="matrix(1.32223551 -1.54890509 1.26557194 1.08036585 11.5088 5.55166)" gradientUnits="userSpaceOnUse" r="1" xlink:href="#I"/><radialGradient id="N" cx="0" cy="0" gradientTransform="matrix(.68000988 -1.227796 1.33520289 .73949675 6.8999 9.14059)" gradientUnits="userSpaceOnUse" r="1" xlink:href="#I"/><linearGradient id="O"><stop offset="0" stop-color="#ffd5bf"/><stop offset="1" stop-color="#ffd5bf" stop-opacity="0"/></linearGradient><linearGradient id="P" gradientUnits="userSpaceOnUse" x1="9.137" x2="7.392" xlink:href="#O" y1="16.357" y2="17.172"/><linearGradient id="Q" gradientUnits="userSpaceOnUse" x1="12.994" x2="11.075" xlink:href="#O" y1="14.283" y2="14.449"/><linearGradient id="R" gradientUnits="userSpaceOnUse" x1="16.581" x2="14.918" xlink:href="#O" y1="14.695" y2="13.744"/><linearGradient id="S" gradientUnits="userSpaceOnUse" x1="20.613" x2="18.95" xlink:href="#O" y1="17.223" y2="16.272"/><path d="m14.4709 4.12419c.1838-1.32084 1.4035-2.24266 2.7243-2.05902 1.3211.18367 2.243 1.40355 2.0592 2.72458l-.92 6.61275c.6904-1.97423 1.3936-3.85643 1.9794-5.16101.4729-1.22873 1.6407-2.01561 3.0938-1.59375 1.3125.4297 1.9353 1.9144 1.4298 3.19323-.8888 2.24833-2.1249 5.63323-2.8947 8.59583 1.1797-.4961 2.4219-1.5273 3.5821-2.4062 1.5234-1.0391 2.9938-.7043 3.7906.4818.7275 1.083.5026 2.5429-.5172 3.3567l-2.4162 1.9282c-.4135.3817-1.3257 1.2803-2.3572 2.5067-.7712.9168-1.1758 1.5329-1.5979 2.1755-.3476.5292-.707 1.0765-1.2928 1.8245-.8389 1.0714-1.7031 1.7422-2.3046 2.1484l-.0087-.0069c-1.3632.9533-3.0224 1.5126-4.8121 1.5126-3.1898 0-5.96465-1.7766-7.38912-4.3942-1.29232-2.2919-1.50259-4.6598-1.69363-6.8115-.04645-.523-.09177-1.0333-.15118-1.5265-.12284-1.7195-.3657-2.9641-.53095-3.7089l-.75555-3.0825c-.31751-1.29528.47516-2.60273 1.77047-2.92022 1.29532-.3175 2.60276.47518 2.92026 1.7705l.65659 2.67872-.41397-5.13464c-.10718-1.32935.88357-2.49387 2.21288-2.60104 1.3294-.10718 2.4939.88357 2.6011 2.21292l.335 4.15446z" fill="#fcc5b2"/><path d="m14.4709 4.12419c.1838-1.32084 1.4035-2.24266 2.7243-2.05902 1.3211.18367 2.243 1.40355 2.0592 2.72458l-.92 6.61275c.6904-1.97423 1.3936-3.85643 1.9794-5.16101.4729-1.22873 1.6407-2.01561 3.0938-1.59375 1.3125.4297 1.9353 1.9144 1.4298 3.19323-.8888 2.24833-2.1249 5.63323-2.8947 8.59583 1.1797-.4961 2.4219-1.5273 3.5821-2.4062 1.5234-1.0391 2.9938-.7043 3.7906.4818.7275 1.083.5026 2.5429-.5172 3.3567l-2.4162 1.9282c-.4135.3817-1.3257 1.2803-2.3572 2.5067-.7712.9168-1.1758 1.5329-1.5979 2.1755-.3476.5292-.707 1.0765-1.2928 1.8245-.8389 1.0714-1.7031 1.7422-2.3046 2.1484l-.0087-.0069c-1.3632.9533-3.0224 1.5126-4.8121 1.5126-3.1898 0-5.96465-1.7766-7.38912-4.3942-1.29232-2.2919-1.50259-4.6598-1.69363-6.8115-.04645-.523-.09177-1.0333-.15118-1.5265-.12284-1.7195-.3657-2.9641-.53095-3.7089l-.75555-3.0825c-.31751-1.29528.47516-2.60273 1.77047-2.92022 1.29532-.3175 2.60276.47518 2.92026 1.7705l.65659 2.67872-.41397-5.13464c-.10718-1.32935.88357-2.49387 2.21288-2.60104 1.3294-.10718 2.4939.88357 2.6011 2.21292l.335 4.15446z" fill="url(#j)"/><path d="m14.4709 4.12419c.1838-1.32084 1.4035-2.24266 2.7243-2.05902 1.3211.18367 2.243 1.40355 2.0592 2.72458l-.92 6.61275c.6904-1.97423 1.3936-3.85643 1.9794-5.16101.4729-1.22873 1.6407-2.01561 3.0938-1.59375 1.3125.4297 1.9353 1.9144 1.4298 3.19323-.8888 2.24833-2.1249 5.63323-2.8947 8.59583 1.1797-.4961 2.4219-1.5273 3.5821-2.4062 1.5234-1.0391 2.9938-.7043 3.7906.4818.7275 1.083.5026 2.5429-.5172 3.3567l-2.4162 1.9282c-.4135.3817-1.3257 1.2803-2.3572 2.5067-.7712.9168-1.1758 1.5329-1.5979 2.1755-.3476.5292-.707 1.0765-1.2928 1.8245-.8389 1.0714-1.7031 1.7422-2.3046 2.1484l-.0087-.0069c-1.3632.9533-3.0224 1.5126-4.8121 1.5126-3.1898 0-5.96465-1.7766-7.38912-4.3942-1.29232-2.2919-1.50259-4.6598-1.69363-6.8115-.04645-.523-.09177-1.0333-.15118-1.5265-.12284-1.7195-.3657-2.9641-.53095-3.7089l-.75555-3.0825c-.31751-1.29528.47516-2.60273 1.77047-2.92022 1.29532-.3175 2.60276.47518 2.92026 1.7705l.65659 2.67872-.41397-5.13464c-.10718-1.32935.88357-2.49387 2.21288-2.60104 1.3294-.10718 2.4939.88357 2.6011 2.21292l.335 4.15446z" fill="url(#k)"/><path d="m14.4709 4.12419c.1838-1.32084 1.4035-2.24266 2.7243-2.05902 1.3211.18367 2.243 1.40355 2.0592 2.72458l-.92 6.61275c.6904-1.97423 1.3936-3.85643 1.9794-5.16101.4729-1.22873 1.6407-2.01561 3.0938-1.59375 1.3125.4297 1.9353 1.9144 1.4298 3.19323-.8888 2.24833-2.1249 5.63323-2.8947 8.59583 1.1797-.4961 2.4219-1.5273 3.5821-2.4062 1.5234-1.0391 2.9938-.7043 3.7906.4818.7275 1.083.5026 2.5429-.5172 3.3567l-2.4162 1.9282c-.4135.3817-1.3257 1.2803-2.3572 2.5067-.7712.9168-1.1758 1.5329-1.5979 2.1755-.3476.5292-.707 1.0765-1.2928 1.8245-.8389 1.0714-1.7031 1.7422-2.3046 2.1484l-.0087-.0069c-1.3632.9533-3.0224 1.5126-4.8121 1.5126-3.1898 0-5.96465-1.7766-7.38912-4.3942-1.29232-2.2919-1.50259-4.6598-1.69363-6.8115-.04645-.523-.09177-1.0333-.15118-1.5265-.12284-1.7195-.3657-2.9641-.53095-3.7089l-.75555-3.0825c-.31751-1.29528.47516-2.60273 1.77047-2.92022 1.29532-.3175 2.60276.47518 2.92026 1.7705l.65659 2.67872-.41397-5.13464c-.10718-1.32935.88357-2.49387 2.21288-2.60104 1.3294-.10718 2.4939.88357 2.6011 2.21292l.335 4.15446z" fill="url(#l)"/><path d="m14.4709 4.12419c.1838-1.32084 1.4035-2.24266 2.7243-2.05902 1.3211.18367 2.243 1.40355 2.0592 2.72458l-.92 6.61275c.6904-1.97423 1.3936-3.85643 1.9794-5.16101.4729-1.22873 1.6407-2.01561 3.0938-1.59375 1.3125.4297 1.9353 1.9144 1.4298 3.19323-.8888 2.24833-2.1249 5.63323-2.8947 8.59583 1.1797-.4961 2.4219-1.5273 3.5821-2.4062 1.5234-1.0391 2.9938-.7043 3.7906.4818.7275 1.083.5026 2.5429-.5172 3.3567l-2.4162 1.9282c-.4135.3817-1.3257 1.2803-2.3572 2.5067-.7712.9168-1.1758 1.5329-1.5979 2.1755-.3476.5292-.707 1.0765-1.2928 1.8245-.8389 1.0714-1.7031 1.7422-2.3046 2.1484l-.0087-.0069c-1.3632.9533-3.0224 1.5126-4.8121 1.5126-3.1898 0-5.96465-1.7766-7.38912-4.3942-1.29232-2.2919-1.50259-4.6598-1.69363-6.8115-.04645-.523-.09177-1.0333-.15118-1.5265-.12284-1.7195-.3657-2.9641-.53095-3.7089l-.75555-3.0825c-.31751-1.29528.47516-2.60273 1.77047-2.92022 1.29532-.3175 2.60276.47518 2.92026 1.7705l.65659 2.67872-.41397-5.13464c-.10718-1.32935.88357-2.49387 2.21288-2.60104 1.3294-.10718 2.4939.88357 2.6011 2.21292l.335 4.15446z" fill="url(#m)"/><path d="m4.79514 17.4003c-.00662-.0583-.0134-.1165-.02037-.1744-.12284-1.7194-.3657-2.9641-.53095-3.7089l-.75555-3.0824c-.31751-1.29533.47516-2.60278 1.77047-2.92027 1.29532-.31751 2.60276.47517 2.92026 1.77049l.65586 2.67578.86961 3.32c.26607 1.9049-2.67126 3.5746-4.90933 2.1197z" fill="url(#n)"/><path d="m4.79514 17.4003c-.00662-.0583-.0134-.1165-.02037-.1744-.12284-1.7194-.3657-2.9641-.53095-3.7089l-.75555-3.0824c-.31751-1.29533.47516-2.60278 1.77047-2.92027 1.29532-.31751 2.60276.47517 2.92026 1.77049l.65586 2.67578.86961 3.32c.26607 1.9049-2.67126 3.5746-4.90933 2.1197z" fill="url(#o)"/><path d="m4.79514 17.4003c-.00662-.0583-.0134-.1165-.02037-.1744-.12284-1.7194-.3657-2.9641-.53095-3.7089l-.75555-3.0824c-.31751-1.29533.47516-2.60278 1.77047-2.92027 1.29532-.31751 2.60276.47517 2.92026 1.77049l.65586 2.67578.86961 3.32c.26607 1.9049-2.67126 3.5746-4.90933 2.1197z" fill="url(#p)"/><path d="m4.79514 17.4003c-.00662-.0583-.0134-.1165-.02037-.1744-.12284-1.7194-.3657-2.9641-.53095-3.7089l-.75555-3.0824c-.31751-1.29533.47516-2.60278 1.77047-2.92027 1.29532-.31751 2.60276.47517 2.92026 1.77049l.65586 2.67578.86961 3.32c.26607 1.9049-2.67126 3.5746-4.90933 2.1197z" fill="url(#q)"/><g filter="url(#a)"><path d="m6.20599 9.3125 1.78125 6.9687" stroke="#ffdac3" stroke-linecap="round" stroke-width="1.4"/></g><path d="m13.8997 14.6322c0 .7656-.4218 1.8281-1.7656 2.0469-1.4277.2324-2.30598-1.0612-2.5039-1.582l-.80468-3.1641-.40395-5.10405c-.10718-1.32934.88358-2.49386 2.21293-2.60104 1.3293-.10718 2.4939.88357 2.6011 2.21292z" fill="url(#r)"/><path d="m13.8997 14.6322c0 .7656-.4218 1.8281-1.7656 2.0469-1.4277.2324-2.30598-1.0612-2.5039-1.582l-.80468-3.1641-.40395-5.10405c-.10718-1.32934.88358-2.49386 2.21293-2.60104 1.3293-.10718 2.4939.88357 2.6011 2.21292z" fill="url(#s)"/><path d="m13.8997 14.6322c0 .7656-.4218 1.8281-1.7656 2.0469-1.4277.2324-2.30598-1.0612-2.5039-1.582l-.80468-3.1641-.40395-5.10405c-.10718-1.32934.88358-2.49386 2.21293-2.60104 1.3293-.10718 2.4939.88357 2.6011 2.21292z" fill="url(#t)"/><path d="m13.8997 14.6322c0 .7656-.4218 1.8281-1.7656 2.0469-1.4277.2324-2.30598-1.0612-2.5039-1.582l-.80468-3.1641-.40395-5.10405c-.10718-1.32934.88358-2.49386 2.21293-2.60104 1.3293-.10718 2.4939.88357 2.6011 2.21292z" fill="url(#u)"/><path d="m13.8997 14.6322c0 .7656-.4218 1.8281-1.7656 2.0469-1.4277.2324-2.30598-1.0612-2.5039-1.582l-.80468-3.1641-.40395-5.10405c-.10718-1.32934.88358-2.49386 2.21293-2.60104 1.3293-.10718 2.4939.88357 2.6011 2.21292z" fill="url(#v)"/><g filter="url(#b)"><path d="m11.3214 6.3197.6988 6.768" stroke="#ffdac2" stroke-linecap="round" stroke-width="1.5"/></g><path d="m13.8793 14.38c.3102.2869.72.5362 1.2548.6896 1.6125.4625 2.4922-1.039 2.6875-1.9843l.5127-1.6828.9201-6.61275c.1838-1.32103-.7382-2.54091-2.0592-2.72458-1.3209-.18364-2.5405.73818-2.7243 2.05902l-.8992 6.46241z" fill="url(#w)"/><path d="m13.8793 14.38c.3102.2869.72.5362 1.2548.6896 1.6125.4625 2.4922-1.039 2.6875-1.9843l.5127-1.6828.9201-6.61275c.1838-1.32103-.7382-2.54091-2.0592-2.72458-1.3209-.18364-2.5405.73818-2.7243 2.05902l-.8992 6.46241z" fill="url(#x)"/><path d="m13.8793 14.38c.3102.2869.72.5362 1.2548.6896 1.6125.4625 2.4922-1.039 2.6875-1.9843l.5127-1.6828.9201-6.61275c.1838-1.32103-.7382-2.54091-2.0592-2.72458-1.3209-.18364-2.5405.73818-2.7243 2.05902l-.8992 6.46241z" fill="url(#y)"/><path d="m13.8793 14.38c.3102.2869.72.5362 1.2548.6896 1.6125.4625 2.4922-1.039 2.6875-1.9843l.5127-1.6828.9201-6.61275c.1838-1.32103-.7382-2.54091-2.0592-2.72458-1.3209-.18364-2.5405.73818-2.7243 2.05902l-.8992 6.46241z" fill="url(#z)"/><path d="m13.8793 14.38c.3102.2869.72.5362 1.2548.6896 1.6125.4625 2.4922-1.039 2.6875-1.9843l.5127-1.6828.9201-6.61275c.1838-1.32103-.7382-2.54091-2.0592-2.72458-1.3209-.18364-2.5405.73818-2.7243 2.05902l-.8992 6.46241z" fill="url(#A)"/><path d="m13.8793 14.38c.3102.2869.72.5362 1.2548.6896 1.6125.4625 2.4922-1.039 2.6875-1.9843l.5127-1.6828.9201-6.61275c.1838-1.32103-.7382-2.54091-2.0592-2.72458-1.3209-.18364-2.5405.73818-2.7243 2.05902l-.8992 6.46241z" fill="url(#B)"/><g filter="url(#c)"><path d="m17.3503 4.33826-.9219 8.95314" stroke="url(#C)" stroke-linecap="round" stroke-width="1.5"/></g><path d="m21.9508 16.4335c-.0026.0011-.0053.0022-.0079.0033-.0001.0001.0001 0 0 0 .0962-.3703.1995-.7471.3087-1.1276.7645-2.6634 1.808-5.50087 2.5857-7.46812.0632-.15986.1088-.32293.1376-.48675.2015-1.14678-.4189-2.3305-1.5674-2.70649-1.4531-.42186-2.6208.36502-3.0937 1.59375-.2792.62174-.5851 1.37467-.9035 2.20624-.3497.91329-.7146 1.92147-1.076 2.95477l.0046-.0326-.0108.0416-.5984 2.0311c-.1836.6298-.3967 2.0799 1.0392 2.9995 1.436.9195 2.8381.5983 3.1766 0z" fill="url(#D)"/><path d="m21.9508 16.4335c-.0026.0011-.0053.0022-.0079.0033-.0001.0001.0001 0 0 0 .0962-.3703.1995-.7471.3087-1.1276.7645-2.6634 1.808-5.50087 2.5857-7.46812.0632-.15986.1088-.32293.1376-.48675.2015-1.14678-.4189-2.3305-1.5674-2.70649-1.4531-.42186-2.6208.36502-3.0937 1.59375-.2792.62174-.5851 1.37467-.9035 2.20624-.3497.91329-.7146 1.92147-1.076 2.95477l.0046-.0326-.0108.0416-.5984 2.0311c-.1836.6298-.3967 2.0799 1.0392 2.9995 1.436.9195 2.8381.5983 3.1766 0z" fill="url(#E)"/><path d="m21.9508 16.4335c-.0026.0011-.0053.0022-.0079.0033-.0001.0001.0001 0 0 0 .0962-.3703.1995-.7471.3087-1.1276.7645-2.6634 1.808-5.50087 2.5857-7.46812.0632-.15986.1088-.32293.1376-.48675.2015-1.14678-.4189-2.3305-1.5674-2.70649-1.4531-.42186-2.6208.36502-3.0937 1.59375-.2792.62174-.5851 1.37467-.9035 2.20624-.3497.91329-.7146 1.92147-1.076 2.95477l.0046-.0326-.0108.0416-.5984 2.0311c-.1836.6298-.3967 2.0799 1.0392 2.9995 1.436.9195 2.8381.5983 3.1766 0z" fill="url(#F)"/><g filter="url(#d)"><path d="m20.8372 16.476c.3542-1.25 1.4688-5.2563 2.9688-9.4063" stroke="url(#G)" stroke-linecap="round" stroke-width=".75"/></g><g filter="url(#e)"><path d="m28.1497 15.4135c-1.3333.8541-4.425 3.225-6.125 5.875" stroke="url(#H)" stroke-linecap="round"/></g><path d="m14.4709 4.12419c.1838-1.32084 1.4035-2.24266 2.7243-2.05902 1.3211.18367 2.243 1.40355 2.0592 2.72458l-.92 6.61275c.6904-1.97423 1.3936-3.85643 1.9794-5.16101.4729-1.22873 1.6407-2.01561 3.0938-1.59375 1.3125.4297 1.9353 1.9144 1.4298 3.19323-.8888 2.24833-2.1249 5.63323-2.8947 8.59583 1.1797-.4961 2.4219-1.5273 3.5821-2.4062 1.5234-1.0391 2.9938-.7043 3.7906.4818.7275 1.083.5026 2.5429-.5172 3.3567l-2.4162 1.9282c-.4135.3817-1.3257 1.2803-2.3572 2.5067-.7712.9168-1.1758 1.5329-1.5979 2.1755-.3476.5292-.707 1.0765-1.2928 1.8245-.8389 1.0714-1.7031 1.7422-2.3046 2.1484l-.0087-.0069c-1.3632.9533-3.0224 1.5126-4.8121 1.5126-3.1898 0-5.96465-1.7766-7.38912-4.3942-1.29232-2.2919-1.50259-4.6598-1.69363-6.8115-.04645-.523-.09177-1.0333-.15118-1.5265-.12284-1.7195-.3657-2.9641-.53095-3.7089l-.75555-3.0825c-.31751-1.29528.47516-2.60273 1.77047-2.92022 1.29532-.3175 2.60276.47518 2.92026 1.7705l.65659 2.67872-.41397-5.13464c-.10718-1.32935.88357-2.49387 2.21288-2.60104 1.3294-.10718 2.4939.88357 2.6011 2.21292l.335 4.15446z" fill="url(#J)"/><path d="m14.4709 4.12419c.1838-1.32084 1.4035-2.24266 2.7243-2.05902 1.3211.18367 2.243 1.40355 2.0592 2.72458l-.92 6.61275c.6904-1.97423 1.3936-3.85643 1.9794-5.16101.4729-1.22873 1.6407-2.01561 3.0938-1.59375 1.3125.4297 1.9353 1.9144 1.4298 3.19323-.8888 2.24833-2.1249 5.63323-2.8947 8.59583 1.1797-.4961 2.4219-1.5273 3.5821-2.4062 1.5234-1.0391 2.9938-.7043 3.7906.4818.7275 1.083.5026 2.5429-.5172 3.3567l-2.4162 1.9282c-.4135.3817-1.3257 1.2803-2.3572 2.5067-.7712.9168-1.1758 1.5329-1.5979 2.1755-.3476.5292-.707 1.0765-1.2928 1.8245-.8389 1.0714-1.7031 1.7422-2.3046 2.1484l-.0087-.0069c-1.3632.9533-3.0224 1.5126-4.8121 1.5126-3.1898 0-5.96465-1.7766-7.38912-4.3942-1.29232-2.2919-1.50259-4.6598-1.69363-6.8115-.04645-.523-.09177-1.0333-.15118-1.5265-.12284-1.7195-.3657-2.9641-.53095-3.7089l-.75555-3.0825c-.31751-1.29528.47516-2.60273 1.77047-2.92022 1.29532-.3175 2.60276.47518 2.92026 1.7705l.65659 2.67872-.41397-5.13464c-.10718-1.32935.88357-2.49387 2.21288-2.60104 1.3294-.10718 2.4939.88357 2.6011 2.21292l.335 4.15446z" fill="url(#K)"/><path d="m14.4709 4.12419c.1838-1.32084 1.4035-2.24266 2.7243-2.05902 1.3211.18367 2.243 1.40355 2.0592 2.72458l-.92 6.61275c.6904-1.97423 1.3936-3.85643 1.9794-5.16101.4729-1.22873 1.6407-2.01561 3.0938-1.59375 1.3125.4297 1.9353 1.9144 1.4298 3.19323-.8888 2.24833-2.1249 5.63323-2.8947 8.59583 1.1797-.4961 2.4219-1.5273 3.5821-2.4062 1.5234-1.0391 2.9938-.7043 3.7906.4818.7275 1.083.5026 2.5429-.5172 3.3567l-2.4162 1.9282c-.4135.3817-1.3257 1.2803-2.3572 2.5067-.7712.9168-1.1758 1.5329-1.5979 2.1755-.3476.5292-.707 1.0765-1.2928 1.8245-.8389 1.0714-1.7031 1.7422-2.3046 2.1484l-.0087-.0069c-1.3632.9533-3.0224 1.5126-4.8121 1.5126-3.1898 0-5.96465-1.7766-7.38912-4.3942-1.29232-2.2919-1.50259-4.6598-1.69363-6.8115-.04645-.523-.09177-1.0333-.15118-1.5265-.12284-1.7195-.3657-2.9641-.53095-3.7089l-.75555-3.0825c-.31751-1.29528.47516-2.60273 1.77047-2.92022 1.29532-.3175 2.60276.47518 2.92026 1.7705l.65659 2.67872-.41397-5.13464c-.10718-1.32935.88357-2.49387 2.21288-2.60104 1.3294-.10718 2.4939.88357 2.6011 2.21292l.335 4.15446z" fill="url(#L)"/><path d="m14.4709 4.12419c.1838-1.32084 1.4035-2.24266 2.7243-2.05902 1.3211.18367 2.243 1.40355 2.0592 2.72458l-.92 6.61275c.6904-1.97423 1.3936-3.85643 1.9794-5.16101.4729-1.22873 1.6407-2.01561 3.0938-1.59375 1.3125.4297 1.9353 1.9144 1.4298 3.19323-.8888 2.24833-2.1249 5.63323-2.8947 8.59583 1.1797-.4961 2.4219-1.5273 3.5821-2.4062 1.5234-1.0391 2.9938-.7043 3.7906.4818.7275 1.083.5026 2.5429-.5172 3.3567l-2.4162 1.9282c-.4135.3817-1.3257 1.2803-2.3572 2.5067-.7712.9168-1.1758 1.5329-1.5979 2.1755-.3476.5292-.707 1.0765-1.2928 1.8245-.8389 1.0714-1.7031 1.7422-2.3046 2.1484l-.0087-.0069c-1.3632.9533-3.0224 1.5126-4.8121 1.5126-3.1898 0-5.96465-1.7766-7.38912-4.3942-1.29232-2.2919-1.50259-4.6598-1.69363-6.8115-.04645-.523-.09177-1.0333-.15118-1.5265-.12284-1.7195-.3657-2.9641-.53095-3.7089l-.75555-3.0825c-.31751-1.29528.47516-2.60273 1.77047-2.92022 1.29532-.3175 2.60276.47518 2.92026 1.7705l.65659 2.67872-.41397-5.13464c-.10718-1.32935.88357-2.49387 2.21288-2.60104 1.3294-.10718 2.4939.88357 2.6011 2.21292l.335 4.15446z" fill="url(#M)"/><path d="m14.4709 4.12419c.1838-1.32084 1.4035-2.24266 2.7243-2.05902 1.3211.18367 2.243 1.40355 2.0592 2.72458l-.92 6.61275c.6904-1.97423 1.3936-3.85643 1.9794-5.16101.4729-1.22873 1.6407-2.01561 3.0938-1.59375 1.3125.4297 1.9353 1.9144 1.4298 3.19323-.8888 2.24833-2.1249 5.63323-2.8947 8.59583 1.1797-.4961 2.4219-1.5273 3.5821-2.4062 1.5234-1.0391 2.9938-.7043 3.7906.4818.7275 1.083.5026 2.5429-.5172 3.3567l-2.4162 1.9282c-.4135.3817-1.3257 1.2803-2.3572 2.5067-.7712.9168-1.1758 1.5329-1.5979 2.1755-.3476.5292-.707 1.0765-1.2928 1.8245-.8389 1.0714-1.7031 1.7422-2.3046 2.1484l-.0087-.0069c-1.3632.9533-3.0224 1.5126-4.8121 1.5126-3.1898 0-5.96465-1.7766-7.38912-4.3942-1.29232-2.2919-1.50259-4.6598-1.69363-6.8115-.04645-.523-.09177-1.0333-.15118-1.5265-.12284-1.7195-.3657-2.9641-.53095-3.7089l-.75555-3.0825c-.31751-1.29528.47516-2.60273 1.77047-2.92022 1.29532-.3175 2.60276.47518 2.92026 1.7705l.65659 2.67872-.41397-5.13464c-.10718-1.32935.88357-2.49387 2.21288-2.60104 1.3294-.10718 2.4939.88357 2.6011 2.21292l.335 4.15446z" fill="url(#N)"/><g filter="url(#f)"><path d="m7.26849 17.5469c.82813-.5 1.4375-1.0157 1.90625-2.1094" stroke="url(#P)" stroke-linecap="round" stroke-width=".5"/></g><g filter="url(#g)"><path d="m10.831 14.759c.9494-.1853 1.6988-.4604 2.5146-1.3267" stroke="url(#Q)" stroke-linecap="round" stroke-width=".5"/></g><g filter="url(#h)"><path d="m14.7264 13.5377c.5461.6439 1.6299 1.1351 2.5473.7941" stroke="url(#R)" stroke-linecap="round" stroke-width=".5"/></g><g filter="url(#i)"><path d="m18.7579 16.0658c.5461.644 1.63 1.1352 2.5473.7941" stroke="url(#S)" stroke-linecap="round" stroke-width=".5"/></g></svg>