<svg fill="none" height="32" viewBox="0 0 32 32" width="32" xmlns="http://www.w3.org/2000/svg" xmlns:xlink="http://www.w3.org/1999/xlink"><filter id="a" color-interpolation-filters="sRGB" filterUnits="userSpaceOnUse" height="8.752" width="8.635" x="6.118" y="21.258"><feFlood flood-opacity="0" result="BackgroundImageFix"/><feBlend in="SourceGraphic" in2="BackgroundImageFix" mode="normal" result="shape"/><feColorMatrix in="SourceAlpha" result="hardAlpha" type="matrix" values="0 0 0 0 0 0 0 0 0 0 0 0 0 0 0 0 0 0 127 0"/><feOffset dy="-.15"/><feGaussianBlur stdDeviation=".25"/><feComposite in2="hardAlpha" k2="-1" k3="1" operator="arithmetic"/><feColorMatrix type="matrix" values="0 0 0 0 0.839216 0 0 0 0 0.592157 0 0 0 0 0.34902 0 0 0 1 0"/><feBlend in2="shape" mode="normal" result="effect1_innerShadow_18_23735"/></filter><filter id="b" color-interpolation-filters="sRGB" filterUnits="userSpaceOnUse" height="17.549" width="17.049" x="2.754" y="11.672"><feFlood flood-opacity="0" result="BackgroundImageFix"/><feBlend in="SourceGraphic" in2="BackgroundImageFix" mode="normal" result="shape"/><feColorMatrix in="SourceAlpha" result="hardAlpha" type="matrix" values="0 0 0 0 0 0 0 0 0 0 0 0 0 0 0 0 0 0 127 0"/><feOffset dy="-.5"/><feGaussianBlur stdDeviation=".75"/><feComposite in2="hardAlpha" k2="-1" k3="1" operator="arithmetic"/><feColorMatrix type="matrix" values="0 0 0 0 0.85098 0 0 0 0 0.541176 0 0 0 0 0.34902 0 0 0 1 0"/><feBlend in2="shape" mode="normal" result="effect1_innerShadow_18_23735"/></filter><filter id="c" color-interpolation-filters="sRGB" filterUnits="userSpaceOnUse" height="16.337" width="15.938" x="13.913" y="1.663"><feFlood flood-opacity="0" result="BackgroundImageFix"/><feBlend in="SourceGraphic" in2="BackgroundImageFix" mode="normal" result="shape"/><feColorMatrix in="SourceAlpha" result="hardAlpha" type="matrix" values="0 0 0 0 0 0 0 0 0 0 0 0 0 0 0 0 0 0 127 0"/><feOffset dy="-.4"/><feGaussianBlur stdDeviation=".5"/><feComposite in2="hardAlpha" k2="-1" k3="1" operator="arithmetic"/><feColorMatrix type="matrix" values="0 0 0 0 0.815686 0 0 0 0 0.505882 0 0 0 0 0.337255 0 0 0 1 0"/><feBlend in2="shape" mode="normal" result="effect1_innerShadow_18_23735"/></filter><filter id="d" color-interpolation-filters="sRGB" filterUnits="userSpaceOnUse" height="16.368" width="16.368" x="14.125" y="1.42"><feFlood flood-opacity="0" result="BackgroundImageFix"/><feBlend in="SourceGraphic" in2="BackgroundImageFix" mode="normal" result="shape"/><feGaussianBlur result="effect1_foregroundBlur_18_23735" stdDeviation=".625"/></filter><linearGradient id="e" gradientUnits="userSpaceOnUse" x1="11.632" x2="9.632" y1="27.875" y2="25.709"><stop offset="0" stop-color="#f4b954"/><stop offset=".908" stop-color="#eca84f"/></linearGradient><linearGradient id="f" gradientUnits="userSpaceOnUse" x1="8.038" x2="11.279" y1="21.031" y2="24.188"><stop offset="0" stop-color="#f7c250"/><stop offset="1" stop-color="#f8ab54"/></linearGradient><linearGradient id="g" gradientUnits="userSpaceOnUse" x1="21.882" x2="21.882" y1="2.813" y2="18"><stop offset="0" stop-color="#f8cf4d"/><stop offset="1" stop-color="#ed9953"/></linearGradient><linearGradient id="h"><stop offset="0" stop-color="#f6bf4e"/><stop offset="1" stop-color="#ea994d"/></linearGradient><linearGradient id="i" gradientUnits="userSpaceOnUse" x1="14.087" x2="18.329" xlink:href="#h" y1="15.107" y2="15.152"/><radialGradient id="j" cx="0" cy="0" gradientTransform="matrix(-.01573036 .3267736 -1.89282814 -.09111773 16.7429 14.6259)" gradientUnits="userSpaceOnUse" r="1"><stop offset="0" stop-color="#fcbc66"/><stop offset="1" stop-color="#fcbc66" stop-opacity="0"/></radialGradient><linearGradient id="k" gradientUnits="userSpaceOnUse" x1="16.683" x2="16.678" y1="15.98" y2="15.322"><stop offset=".186" stop-color="#e29226"/><stop offset="1" stop-color="#ec9b4f" stop-opacity="0"/></linearGradient><linearGradient id="l" gradientUnits="userSpaceOnUse" x1="15.167" x2="19.41" xlink:href="#h" y1="14.027" y2="14.071"/><radialGradient id="m" cx="0" cy="0" gradientTransform="matrix(-.01573036 .3267736 -1.89282814 -.09111773 17.8234 13.5453)" gradientUnits="userSpaceOnUse" r="1"><stop offset="0" stop-color="#fbb865"/><stop offset="1" stop-color="#fbb865" stop-opacity="0"/></radialGradient><linearGradient id="n" gradientUnits="userSpaceOnUse" x1="17.764" x2="17.759" y1="14.9" y2="14.241"><stop offset=".186" stop-color="#e29226"/><stop offset="1" stop-color="#e29226" stop-opacity="0"/></linearGradient><linearGradient id="o" gradientUnits="userSpaceOnUse" x1="27.32" x2="21.468" y1="4.298" y2="9.259"><stop offset="0" stop-color="#ffdd67"/><stop offset="1" stop-color="#ffdd67" stop-opacity="0"/></linearGradient><linearGradient id="p" gradientUnits="userSpaceOnUse" x1="17.632" x2="19.007" y1="14" y2="11.813"><stop offset="0" stop-color="#feb765"/><stop offset="1" stop-color="#feb765" stop-opacity="0"/></linearGradient><g filter="url(#a)"><path d="m6.11774 26.455 5.04686-5.0469 3.2112 3.2112c.4815.4814.5043 1.2547.0521 1.7638-.2744.309-.6805.4673-1.0915.4255l-1.0807-.1096c-.2657-.0269-.5291.0699-.714.2625-.1714.1786-.2585.4219-.2393.6687l.0834 1.0717c.0271.3484-.0973.6916-.3413.9418-.4722.4841-1.24909.4889-1.72732.0107z" fill="url(#e)"/></g><g filter="url(#b)"><path d="m16.3972 12.1719 3.4063 3.4062-12.93751 12.9375c-.94061.9406-2.46565.9406-3.40626 0s-.94061-2.4656 0-3.4062z" fill="url(#f)"/></g><g filter="url(#c)"><path clip-rule="evenodd" d="m21.8816 18c4.401 0 7.9687-3.5677 7.9687-7.9688 0-4.40097-3.5677-7.9687-7.9687-7.9687s-7.9688 3.56773-7.9688 7.9687c0 4.4011 3.5678 7.9688 7.9688 7.9688zm0-4c2.1919 0 3.9687-1.7769 3.9687-3.9688 0-2.19183-1.7768-3.9687-3.9687-3.9687s-3.9688 1.77687-3.9688 3.9687c0 2.1919 1.7769 3.9688 3.9688 3.9688z" fill="url(#g)" fill-rule="evenodd"/></g><rect fill="url(#i)" height="1.528" rx=".764" transform="matrix(.70710678 .70710678 -.70710678 .70710678 13.960378 -5.218934)" width="6.165" x="13.28" y="14.242"/><rect fill="url(#j)" height="1.528" rx=".764" transform="matrix(.70710678 .70710678 -.70710678 .70710678 13.960378 -5.218934)" width="6.165" x="13.28" y="14.242"/><rect fill="url(#k)" height="1.528" rx=".764" transform="matrix(.70710678 .70710678 -.70710678 .70710678 13.960378 -5.218934)" width="6.165" x="13.28" y="14.242"/><rect fill="url(#l)" height="1.528" rx=".764" transform="matrix(.70710678 .70710678 -.70710678 .70710678 13.51275 -6.299464)" width="6.165" x="14.361" y="13.162"/><rect fill="url(#m)" height="1.528" rx=".764" transform="matrix(.70710678 .70710678 -.70710678 .70710678 13.51275 -6.299464)" width="6.165" x="14.361" y="13.162"/><rect fill="url(#n)" height="1.528" rx=".764" transform="matrix(.70710678 .70710678 -.70710678 .70710678 13.51275 -6.299464)" width="6.165" x="14.361" y="13.162"/><g filter="url(#d)" stroke-width="1.25"><circle cx="22.309" cy="9.604" r="6.309" stroke="url(#o)"/><circle cx="22.309" cy="9.604" r="6.309" stroke="url(#p)"/></g></svg>