<svg fill="none" height="32" viewBox="0 0 32 32" width="32" xmlns="http://www.w3.org/2000/svg" xmlns:xlink="http://www.w3.org/1999/xlink"><filter id="a" color-interpolation-filters="sRGB" filterUnits="userSpaceOnUse" height="10.651" width="11.651" x="16.817" y="4.551"><feFlood flood-opacity="0" result="BackgroundImageFix"/><feBlend in="SourceGraphic" in2="BackgroundImageFix" mode="normal" result="shape"/><feColorMatrix in="SourceAlpha" result="hardAlpha" type="matrix" values="0 0 0 0 0 0 0 0 0 0 0 0 0 0 0 0 0 0 127 0"/><feOffset dx="1"/><feGaussianBlur stdDeviation="1"/><feComposite in2="hardAlpha" k2="-1" k3="1" operator="arithmetic"/><feColorMatrix type="matrix" values="0 0 0 0 0.521569 0 0 0 0 0.337255 0 0 0 0 0.282353 0 0 0 1 0"/><feBlend in2="shape" mode="normal" result="effect1_innerShadow_18_23956"/></filter><filter id="b" color-interpolation-filters="sRGB" filterUnits="userSpaceOnUse" height="17.697" width="17.808" x="2.011" y="12.254"><feFlood flood-opacity="0" result="BackgroundImageFix"/><feBlend in="SourceGraphic" in2="BackgroundImageFix" mode="normal" result="shape"/><feColorMatrix in="SourceAlpha" result="hardAlpha" type="matrix" values="0 0 0 0 0 0 0 0 0 0 0 0 0 0 0 0 0 0 127 0"/><feOffset dx=".1"/><feGaussianBlur stdDeviation=".2"/><feComposite in2="hardAlpha" k2="-1" k3="1" operator="arithmetic"/><feColorMatrix type="matrix" values="0 0 0 0 0.745098 0 0 0 0 0.729412 0 0 0 0 0.760784 0 0 0 1 0"/><feBlend in2="shape" mode="normal" result="effect1_innerShadow_18_23956"/></filter><filter id="c" color-interpolation-filters="sRGB" filterUnits="userSpaceOnUse" height="15.434" width="17.466" x="2.252" y="14.516"><feFlood flood-opacity="0" result="BackgroundImageFix"/><feBlend in="SourceGraphic" in2="BackgroundImageFix" mode="normal" result="shape"/><feColorMatrix in="SourceAlpha" result="hardAlpha" type="matrix" values="0 0 0 0 0 0 0 0 0 0 0 0 0 0 0 0 0 0 127 0"/><feOffset dy="-.3"/><feGaussianBlur stdDeviation=".5"/><feComposite in2="hardAlpha" k2="-1" k3="1" operator="arithmetic"/><feColorMatrix type="matrix" values="0 0 0 0 0.556863 0 0 0 0 0.439216 0 0 0 0 0.666667 0 0 0 1 0"/><feBlend in2="shape" mode="normal" result="effect1_innerShadow_18_23956"/></filter><filter id="d" color-interpolation-filters="sRGB" filterUnits="userSpaceOnUse" height="14.702" width="14.702" x="10.189" y="7.097"><feFlood flood-opacity="0" result="BackgroundImageFix"/><feBlend in="SourceGraphic" in2="BackgroundImageFix" mode="normal" result="shape"/><feColorMatrix in="SourceAlpha" result="hardAlpha" type="matrix" values="0 0 0 0 0 0 0 0 0 0 0 0 0 0 0 0 0 0 127 0"/><feOffset dx=".25" dy="-.25"/><feGaussianBlur stdDeviation=".2"/><feComposite in2="hardAlpha" k2="-1" k3="1" operator="arithmetic"/><feColorMatrix type="matrix" values="0 0 0 0 0.980392 0 0 0 0 0.666667 0 0 0 0 0.270588 0 0 0 1 0"/><feBlend in2="shape" mode="normal" result="effect1_innerShadow_18_23956"/><feColorMatrix in="SourceAlpha" result="hardAlpha" type="matrix" values="0 0 0 0 0 0 0 0 0 0 0 0 0 0 0 0 0 0 127 0"/><feOffset dx="-.35" dy=".35"/><feGaussianBlur stdDeviation=".25"/><feComposite in2="hardAlpha" k2="-1" k3="1" operator="arithmetic"/><feColorMatrix type="matrix" values="0 0 0 0 1 0 0 0 0 0.921569 0 0 0 0 0.364706 0 0 0 1 0"/><feBlend in2="effect1_innerShadow_18_23956" mode="normal" result="effect2_innerShadow_18_23956"/><feColorMatrix in="SourceAlpha" result="hardAlpha" type="matrix" values="0 0 0 0 0 0 0 0 0 0 0 0 0 0 0 0 0 0 127 0"/><feOffset dx="-.1" dy=".1"/><feGaussianBlur stdDeviation=".2"/><feComposite in2="hardAlpha" k2="-1" k3="1" operator="arithmetic"/><feColorMatrix type="matrix" values="0 0 0 0 0.976471 0 0 0 0 0.764706 0 0 0 0 0.235294 0 0 0 1 0"/><feBlend in2="effect2_innerShadow_18_23956" mode="normal" result="effect3_innerShadow_18_23956"/><feColorMatrix in="SourceAlpha" result="hardAlpha" type="matrix" values="0 0 0 0 0 0 0 0 0 0 0 0 0 0 0 0 0 0 127 0"/><feOffset dx=".1" dy="-.1"/><feGaussianBlur stdDeviation=".15"/><feComposite in2="hardAlpha" k2="-1" k3="1" operator="arithmetic"/><feColorMatrix type="matrix" values="0 0 0 0 0.835294 0 0 0 0 0.560784 0 0 0 0 0.556863 0 0 0 1 0"/><feBlend in2="effect3_innerShadow_18_23956" mode="normal" result="effect4_innerShadow_18_23956"/></filter><filter id="e" color-interpolation-filters="sRGB" filterUnits="userSpaceOnUse" height="4.252" width="4.252" x="11.167" y="7.976"><feFlood flood-opacity="0" result="BackgroundImageFix"/><feBlend in="SourceGraphic" in2="BackgroundImageFix" mode="normal" result="shape"/><feGaussianBlur result="effect1_foregroundBlur_18_23956" stdDeviation=".1"/></filter><filter id="f" color-interpolation-filters="sRGB" filterUnits="userSpaceOnUse" height="4.189" width="4.189" x="19.792" y="16.601"><feFlood flood-opacity="0" result="BackgroundImageFix"/><feBlend in="SourceGraphic" in2="BackgroundImageFix" mode="normal" result="shape"/><feGaussianBlur result="effect1_foregroundBlur_18_23956" stdDeviation=".1"/></filter><filter id="g" color-interpolation-filters="sRGB" filterUnits="userSpaceOnUse" height="7.922" width="7.922" x="19.406" y="5.752"><feFlood flood-opacity="0" result="BackgroundImageFix"/><feBlend in="SourceGraphic" in2="BackgroundImageFix" mode="normal" result="shape"/><feGaussianBlur result="effect1_foregroundBlur_18_23956" stdDeviation=".5"/></filter><radialGradient id="h" cx="0" cy="0" gradientTransform="matrix(-2.96875358 2.71874143 -2.58914441 -2.82723897 28.75 3.89433)" gradientUnits="userSpaceOnUse" r="1"><stop offset="0" stop-color="#fff25c"/><stop offset="1" stop-color="#ffb936"/></radialGradient><radialGradient id="i" cx="0" cy="0" gradientTransform="matrix(-3.34373785 -1.34376727 1.34376727 -3.34373785 28.0625 4.64433)" gradientUnits="userSpaceOnUse" r="1"><stop offset=".684" stop-color="#ffb730" stop-opacity="0"/><stop offset="1" stop-color="#daa850"/></radialGradient><radialGradient id="j" cx="0" cy="0" gradientTransform="matrix(.53125169 3.93750314 -3.93750314 .53125169 27.3125 3.92558)" gradientUnits="userSpaceOnUse" r="1"><stop offset=".598" stop-color="#feb13b" stop-opacity="0"/><stop offset=".955" stop-color="#d79568"/></radialGradient><linearGradient id="k" gradientUnits="userSpaceOnUse" x1="26.281" x2="18.719" y1="6.238" y2="13.176"><stop offset="0" stop-color="#a46a4b"/><stop offset="1" stop-color="#ad5f48"/></linearGradient><radialGradient id="l" cx="0" cy="0" gradientTransform="matrix(.61134966 8.93313522 -8.93313522 .61134966 21.5313 6.2693)" gradientUnits="userSpaceOnUse" r="1"><stop offset=".772" stop-color="#984a63" stop-opacity="0"/><stop offset=".988" stop-color="#984a63"/></radialGradient><radialGradient id="m" cx="0" cy="0" gradientTransform="matrix(-1.93748429 2.09375827 -2.6517787 -2.45385517 25.9687 6.8943)" gradientUnits="userSpaceOnUse" r="1"><stop offset=".167" stop-color="#c28c73"/><stop offset="1" stop-color="#af715e" stop-opacity="0"/></radialGradient><linearGradient id="n" gradientUnits="userSpaceOnUse" x1="26.125" x2="25.887" y1="6.332" y2="6.566"><stop offset=".23" stop-color="#b56b44"/><stop offset="1" stop-color="#b56b44" stop-opacity="0"/></linearGradient><radialGradient id="o" cx="0" cy="0" gradientTransform="matrix(-10.62500451 10.5625095 -4.3912823 -4.41726412 11.6875 20.613)" gradientUnits="userSpaceOnUse" r="1"><stop offset=".301" stop-color="#ddd9e1"/><stop offset="1" stop-color="#d6ced0"/></radialGradient><linearGradient id="p" gradientUnits="userSpaceOnUse" x1="15.406" x2="13.551" y1="13.166" y2="15.792"><stop offset=".152" stop-color="#c5b4ba"/><stop offset="1" stop-color="#d7d0d6" stop-opacity="0"/></linearGradient><radialGradient id="q" cx="0" cy="0" gradientTransform="matrix(11.31646721 -.9958484 2.22889039 25.32831803 5.08595 26.7461)" gradientUnits="userSpaceOnUse" r="1"><stop offset=".163" stop-color="#b8adc3"/><stop offset="1" stop-color="#a89bb2"/></radialGradient><linearGradient id="r" gradientUnits="userSpaceOnUse" x1="18.983" x2="15.905" y1="17.286" y2="18.327"><stop offset=".158" stop-color="#896d89"/><stop offset="1" stop-color="#896d89" stop-opacity="0"/></linearGradient><linearGradient id="s" gradientUnits="userSpaceOnUse" x1="10.158" x2="10.627" y1="21.734" y2="22.215"><stop offset=".236" stop-color="#c9c2d0"/><stop offset="1" stop-color="#b1a4bc" stop-opacity="0"/></linearGradient><linearGradient id="t" gradientUnits="userSpaceOnUse" x1="18.75" x2="14.875" y1="13.269" y2="17.644"><stop offset="0" stop-color="#ffd847"/><stop offset="1" stop-color="#f09c3f"/></linearGradient><radialGradient id="u" cx="0" cy="0" gradientTransform="matrix(-.09375607 14.34379359 -12.93712364 -.08456158 21.3438 7.61304)" gradientUnits="userSpaceOnUse" r="1"><stop offset=".856" stop-color="#f4a03a" stop-opacity="0"/><stop offset="1" stop-color="#db8959"/></radialGradient><linearGradient id="v" gradientUnits="userSpaceOnUse" x1="14.529" x2="12.09" y1="8.865" y2="11.49"><stop offset="0" stop-color="#ffc437"/><stop offset="1" stop-color="#e98c07"/></linearGradient><linearGradient id="w" gradientUnits="userSpaceOnUse" x1="23.103" x2="20.703" y1="17.479" y2="20.061"><stop offset="0" stop-color="#ffb843"/><stop offset="1" stop-color="#e7901c"/></linearGradient><linearGradient id="x"><stop offset=".381" stop-color="#e7317c"/><stop offset="1" stop-color="#db193e"/></linearGradient><radialGradient id="y" cx="0" cy="0" gradientTransform="matrix(-2.90625247 .96875371 -.77812794 -2.33437686 23.2812 18.113)" gradientUnits="userSpaceOnUse" r="1" xlink:href="#x"/><linearGradient id="z"><stop offset="0" stop-color="#f85c94"/><stop offset="1" stop-color="#f85c94" stop-opacity="0"/></linearGradient><radialGradient id="A" cx="0" cy="0" gradientTransform="matrix(-1.04688145 .60937294 -.5300798 -.91065861 23.1875 18.1755)" gradientUnits="userSpaceOnUse" r="1" xlink:href="#z"/><radialGradient id="B" cx="0" cy="0" gradientTransform="matrix(-2.90625247 .96875371 -.77812794 -2.33437686 14.6875 9.51929)" gradientUnits="userSpaceOnUse" r="1" xlink:href="#x"/><radialGradient id="C" cx="0" cy="0" gradientTransform="matrix(-1.04688145 .60937294 -.5300798 -.91065861 14.5937 9.58179)" gradientUnits="userSpaceOnUse" r="1" xlink:href="#z"/><linearGradient id="D" gradientUnits="userSpaceOnUse" x1="21.936" x2="28.465" y1="12.881" y2="6.954"><stop offset="0" stop-color="#ac6e5b"/><stop offset="1" stop-color="#ac6e5b" stop-opacity="0"/></linearGradient><circle cx="27.062" cy="4.898" fill="url(#h)" r="2.762"/><circle cx="27.062" cy="4.898" fill="url(#i)" r="2.762"/><circle cx="27.062" cy="4.898" fill="url(#j)" r="2.762"/><g filter="url(#a)"><path d="m24.2596 4.62269c-.0441-.04412-.1031-.07059-.1655-.07141-.7809-.01019-1.5649.28262-2.1607.87842l-4.2378 4.23783c-1.1716 1.17157-1.1716 3.07107 0 4.24267l.4135.4136c1.1716 1.1715 3.0712 1.1715 4.2427 0l4.2378-4.2379c.5958-.59578.8886-1.37985.8784-2.1607-.0008-.06239-.0272-.12142-.0714-.16554z" fill="url(#k)"/><path d="m24.2596 4.62269c-.0441-.04412-.1031-.07059-.1655-.07141-.7809-.01019-1.5649.28262-2.1607.87842l-4.2378 4.23783c-1.1716 1.17157-1.1716 3.07107 0 4.24267l.4135.4136c1.1716 1.1715 3.0712 1.1715 4.2427 0l4.2378-4.2379c.5958-.59578.8886-1.37985.8784-2.1607-.0008-.06239-.0272-.12142-.0714-.16554z" fill="url(#l)"/><path d="m24.2596 4.62269c-.0441-.04412-.1031-.07059-.1655-.07141-.7809-.01019-1.5649.28262-2.1607.87842l-4.2378 4.23783c-1.1716 1.17157-1.1716 3.07107 0 4.24267l.4135.4136c1.1716 1.1715 3.0712 1.1715 4.2427 0l4.2378-4.2379c.5958-.59578.8886-1.37985.8784-2.1607-.0008-.06239-.0272-.12142-.0714-.16554z" fill="url(#m)"/><path d="m24.2596 4.62269c-.0441-.04412-.1031-.07059-.1655-.07141-.7809-.01019-1.5649.28262-2.1607.87842l-4.2378 4.23783c-1.1716 1.17157-1.1716 3.07107 0 4.24267l.4135.4136c1.1716 1.1715 3.0712 1.1715 4.2427 0l4.2378-4.2379c.5958-.59578.8886-1.37985.8784-2.1607-.0008-.06239-.0272-.12142-.0714-.16554z" fill="url(#n)"/></g><g filter="url(#b)"><path d="m14.6406 12.2537 5.0781 5.0781-8.1022 8.1247c-2.0593 2.065-4.64384 3.5279-7.47426 4.2306l-.85446.2122c-.82684.1825-1.47924-.1027-1.21885-1.1796l.04595-.215c.63916-2.9901 2.12169-5.7344 4.27207-7.908z" fill="url(#o)"/><path d="m14.6406 12.2537 5.0781 5.0781-8.1022 8.1247c-2.0593 2.065-4.64384 3.5279-7.47426 4.2306l-.85446.2122c-.82684.1825-1.47924-.1027-1.21885-1.1796l.04595-.215c.63916-2.9901 2.12169-5.7344 4.27207-7.908z" fill="url(#p)"/></g><g filter="url(#c)"><path d="m17.2031 14.8162 2.5157 2.5156-8.1023 8.1247c-2.05931 2.065-4.64384 3.528-7.47429 4.2306l-.85443.2122c-.42438.0936-.80273.0641-1.0354-.1324z" fill="url(#q)"/><path d="m17.2031 14.8162 2.5157 2.5156-8.1023 8.1247c-2.05931 2.065-4.64384 3.528-7.47429 4.2306l-.85443.2122c-.42438.0936-.80273.0641-1.0354-.1324z" fill="url(#r)"/></g><path d="m17.2031 14.8162 2.5157 2.5156-8.1023 8.1247c-2.05931 2.065-4.64384 3.528-7.47429 4.2306l-.85443.2122c-.42438.0936-.80273.0641-1.0354-.1324z" fill="url(#s)"/><g filter="url(#d)"><path d="m14.1863 13.0806c-.1814-.1815-.4427-.25-.6987-.2321-.0643.0044-.1292.0067-.1946.0067-1.521 0-2.7539-1.2329-2.7539-2.7539 0-1.52092 1.2329-2.75389 2.7539-2.75389 1.5209 0 2.7539 1.23297 2.7539 2.75389 0 .199.0642.3963.2049.537l5.098 5.0979c.1407.1407.3379.205.5369.205 1.521 0 2.7539 1.2329 2.7539 2.7539 0 1.5209-1.2329 2.7539-2.7539 2.7539-1.5209 0-2.7539-1.233-2.7539-2.7539 0-.0654.0023-.1303.0068-.1946.0178-.256-.0507-.5173-.2322-.6988z" fill="url(#t)"/></g><path d="m14.1863 13.0806c-.1814-.1815-.4427-.25-.6987-.2321-.0643.0044-.1292.0067-.1946.0067-1.521 0-2.7539-1.2329-2.7539-2.7539 0-1.52092 1.2329-2.75389 2.7539-2.75389 1.5209 0 2.7539 1.23297 2.7539 2.75389 0 .199.0642.3963.2049.537l5.098 5.0979c.1407.1407.3379.205.5369.205 1.521 0 2.7539 1.2329 2.7539 2.7539 0 1.5209-1.2329 2.7539-2.7539 2.7539-1.5209 0-2.7539-1.233-2.7539-2.7539 0-.0654.0023-.1303.0068-.1946.0178-.256-.0507-.5173-.2322-.6988z" fill="url(#u)"/><g filter="url(#e)" opacity=".5"><circle cx="13.293" cy="10.101" fill="url(#v)" r="1.926"/></g><g filter="url(#f)" opacity=".5"><circle cx="21.887" cy="18.695" fill="url(#w)" r="1.895"/></g><circle cx="21.887" cy="18.695" fill="url(#y)" r="1.684"/><circle cx="21.887" cy="18.695" fill="url(#A)" r="1.684"/><circle cx="13.293" cy="10.101" fill="url(#B)" r="1.684"/><circle cx="13.293" cy="10.101" fill="url(#C)" r="1.684"/><g filter="url(#g)"><path d="m24.8263 6.75183 1.5018 1.50185-4.1269 4.12702c-.3906.3905-1.0237.3905-1.4142 0l-.0877-.0877c-.3905-.3905-.3905-1.0237 0-1.4142z" fill="url(#D)"/></g></svg>