<svg fill="none" height="32" viewBox="0 0 32 32" width="32" xmlns="http://www.w3.org/2000/svg" xmlns:xlink="http://www.w3.org/1999/xlink"><filter id="a" color-interpolation-filters="sRGB" filterUnits="userSpaceOnUse" height="27.25" width="17.932" x="7.019" y="1.813"><feFlood flood-opacity="0" result="BackgroundImageFix"/><feBlend in="SourceGraphic" in2="BackgroundImageFix" mode="normal" result="shape"/><feColorMatrix in="SourceAlpha" result="hardAlpha" type="matrix" values="0 0 0 0 0 0 0 0 0 0 0 0 0 0 0 0 0 0 127 0"/><feOffset dy="-.25"/><feGaussianBlur stdDeviation=".25"/><feComposite in2="hardAlpha" k2="-1" k3="1" operator="arithmetic"/><feColorMatrix type="matrix" values="0 0 0 0 0.929412 0 0 0 0 0.278431 0 0 0 0 0.235294 0 0 0 1 0"/><feBlend in2="shape" mode="normal" result="effect1_innerShadow_18_6964"/></filter><filter id="b" color-interpolation-filters="sRGB" filterUnits="userSpaceOnUse" height="24.55" width="8.956" x="15.851" y="4.828"><feFlood flood-opacity="0" result="BackgroundImageFix"/><feBlend in="SourceGraphic" in2="BackgroundImageFix" mode="normal" result="shape"/><feGaussianBlur result="effect1_foregroundBlur_18_6964" stdDeviation=".25"/></filter><filter id="c" color-interpolation-filters="sRGB" filterUnits="userSpaceOnUse" height="3.02" width="8.214" x="11.829" y="13.542"><feFlood flood-opacity="0" result="BackgroundImageFix"/><feBlend in="SourceGraphic" in2="BackgroundImageFix" mode="normal" result="shape"/><feColorMatrix in="SourceAlpha" result="hardAlpha" type="matrix" values="0 0 0 0 0 0 0 0 0 0 0 0 0 0 0 0 0 0 127 0"/><feOffset dx=".25"/><feGaussianBlur stdDeviation=".25"/><feComposite in2="hardAlpha" k2="-1" k3="1" operator="arithmetic"/><feColorMatrix type="matrix" values="0 0 0 0 0.592157 0 0 0 0 0.513726 0 0 0 0 0.552941 0 0 0 1 0"/><feBlend in2="shape" mode="normal" result="effect1_innerShadow_18_6964"/><feColorMatrix in="SourceAlpha" result="hardAlpha" type="matrix" values="0 0 0 0 0 0 0 0 0 0 0 0 0 0 0 0 0 0 127 0"/><feOffset dx="-.25"/><feGaussianBlur stdDeviation=".25"/><feComposite in2="hardAlpha" k2="-1" k3="1" operator="arithmetic"/><feColorMatrix type="matrix" values="0 0 0 0 0.886275 0 0 0 0 0.85098 0 0 0 0 0.909804 0 0 0 1 0"/><feBlend in2="effect1_innerShadow_18_6964" mode="normal" result="effect2_innerShadow_18_6964"/></filter><filter id="d" color-interpolation-filters="sRGB" filterUnits="userSpaceOnUse" height="6.239" width="8.953" x="12.349" y="17.568"><feFlood flood-opacity="0" result="BackgroundImageFix"/><feBlend in="SourceGraphic" in2="BackgroundImageFix" mode="normal" result="shape"/><feGaussianBlur result="effect1_foregroundBlur_18_6964" stdDeviation=".25"/></filter><filter id="e" color-interpolation-filters="sRGB" filterUnits="userSpaceOnUse" height="6.239" width="8.953" x="11.093" y="17.568"><feFlood flood-opacity="0" result="BackgroundImageFix"/><feBlend in="SourceGraphic" in2="BackgroundImageFix" mode="normal" result="shape"/><feGaussianBlur result="effect1_foregroundBlur_18_6964" stdDeviation=".25"/></filter><filter id="f" color-interpolation-filters="sRGB" filterUnits="userSpaceOnUse" height="1.5" width="6.806" x="12.511" y="16.515"><feFlood flood-opacity="0" result="BackgroundImageFix"/><feBlend in="SourceGraphic" in2="BackgroundImageFix" mode="normal" result="shape"/><feGaussianBlur result="effect1_foregroundBlur_18_6964" stdDeviation=".25"/></filter><filter id="g" color-interpolation-filters="sRGB" filterUnits="userSpaceOnUse" height="1.5" width="11.91" x="9.797" y="23.36"><feFlood flood-opacity="0" result="BackgroundImageFix"/><feBlend in="SourceGraphic" in2="BackgroundImageFix" mode="normal" result="shape"/><feGaussianBlur result="effect1_foregroundBlur_18_6964" stdDeviation=".25"/></filter><filter id="h" color-interpolation-filters="sRGB" filterUnits="userSpaceOnUse" height="8.021" width="1.5" x="15.508" y="16.637"><feFlood flood-opacity="0" result="BackgroundImageFix"/><feBlend in="SourceGraphic" in2="BackgroundImageFix" mode="normal" result="shape"/><feGaussianBlur result="effect1_foregroundBlur_18_6964" stdDeviation=".25"/></filter><filter id="i" color-interpolation-filters="sRGB" filterUnits="userSpaceOnUse" height="4.942" width="9.703" x="11.741" y="24.344"><feFlood flood-opacity="0" result="BackgroundImageFix"/><feBlend in="SourceGraphic" in2="BackgroundImageFix" mode="normal" result="shape"/><feGaussianBlur result="effect1_foregroundBlur_18_6964" stdDeviation=".25"/></filter><linearGradient id="j" gradientUnits="userSpaceOnUse" x1="19.437" x2="11.249" y1="21.189" y2="20.961"><stop offset="0" stop-color="#f86625"/><stop offset="1" stop-color="#ec383e"/></linearGradient><linearGradient id="k" gradientUnits="userSpaceOnUse" x1="22.212" x2="17.875" y1="20.627" y2="22"><stop offset="0" stop-color="#ff8f43"/><stop offset="1" stop-color="#ff8f43" stop-opacity="0"/></linearGradient><linearGradient id="l"><stop offset="0" stop-color="#e03f09"/><stop offset="1" stop-color="#e03f09" stop-opacity="0"/></linearGradient><radialGradient id="m" cx="0" cy="0" gradientTransform="matrix(.5670774 -2.91640918 .42119846 .08189939 14.9215 13.174)" gradientUnits="userSpaceOnUse" r="1" xlink:href="#l"/><radialGradient id="n" cx="0" cy="0" gradientTransform="matrix(-.42531158 -2.83539894 .40949774 -.06142491 16.9468 13.1132)" gradientUnits="userSpaceOnUse" r="1" xlink:href="#l"/><radialGradient id="o" cx="0" cy="0" gradientTransform="matrix(1.27593 0 0 4.0146 14.881 2.90577)" gradientUnits="userSpaceOnUse" r="1"><stop offset="0" stop-color="#f15134"/><stop offset="1" stop-color="#f15134" stop-opacity="0"/></radialGradient><linearGradient id="p" gradientUnits="userSpaceOnUse" x1="16.501" x2="24.886" y1="4.992" y2="28.728"><stop offset="0" stop-color="#ffa464"/><stop offset="1" stop-color="#ff8f46"/></linearGradient><linearGradient id="q" gradientUnits="userSpaceOnUse" x1="7.782" x2="12.985" y1="29.497" y2="29.493"><stop offset="0" stop-color="#df143b"/><stop offset="1" stop-color="#e15c4a"/></linearGradient><linearGradient id="r" gradientUnits="userSpaceOnUse" x1="9.485" x2="9.485" y1="30.156" y2="29.766"><stop offset="0" stop-color="#c62d45"/><stop offset="1" stop-color="#c62d45" stop-opacity="0"/></linearGradient><linearGradient id="s" gradientUnits="userSpaceOnUse" x1="19.402" x2="25.295" y1="29.632" y2="29.492"><stop offset="0" stop-color="#ee3124"/><stop offset="1" stop-color="#ff8213"/></linearGradient><linearGradient id="t" gradientUnits="userSpaceOnUse" x1="21.375" x2="25.985" y1="29.497" y2="29.494"><stop offset="0" stop-color="#ed6033"/><stop offset="1" stop-color="#f8732d"/></linearGradient><linearGradient id="u" gradientUnits="userSpaceOnUse" x1="22.485" x2="22.485" y1="30.156" y2="29.766"><stop offset="0" stop-color="#e35030"/><stop offset="1" stop-color="#e35030" stop-opacity="0"/></linearGradient><linearGradient id="v" gradientUnits="userSpaceOnUse" x1="19.794" x2="12.085" y1="15.354" y2="15.566"><stop offset="0" stop-color="#cfc1d6"/><stop offset="1" stop-color="#9f93a3"/></linearGradient><linearGradient id="w" gradientUnits="userSpaceOnUse" x1="15.937" x2="15.937" y1="16.683" y2="16.309"><stop offset="0" stop-color="#947e9e"/><stop offset="1" stop-color="#947e9e" stop-opacity="0"/></linearGradient><linearGradient id="x" gradientUnits="userSpaceOnUse" x1="15.937" x2="15.937" y1="13.313" y2="14.063"><stop offset="0" stop-color="#c1b6b8"/><stop offset="1" stop-color="#c1b6b8" stop-opacity="0"/></linearGradient><linearGradient id="y" gradientUnits="userSpaceOnUse" x1="16.171" x2="13.749" y1="9.391" y2="8.879"><stop offset=".407" stop-color="#c3b7c8"/><stop offset=".843" stop-color="#a7908e"/></linearGradient><linearGradient id="z"><stop offset=".179" stop-color="#ede9f0"/><stop offset="1" stop-color="#ede9f0" stop-opacity="0"/></linearGradient><linearGradient id="A" gradientUnits="userSpaceOnUse" x1="18.062" x2="17.093" xlink:href="#z" y1="9.797" y2="9.984"/><linearGradient id="B" gradientUnits="userSpaceOnUse" x1="16" x2="14.685" y1="5.203" y2="5.182"><stop offset=".233" stop-color="#c3b7c8"/><stop offset=".762" stop-color="#a7908e"/></linearGradient><linearGradient id="C" gradientUnits="userSpaceOnUse" x1="17.195" x2="16.618" xlink:href="#z" y1="5.797" y2="5.862"/><linearGradient id="D" gradientUnits="userSpaceOnUse" x1="13.463" x2="20.795" y1="18.318" y2="22.774"><stop offset="0" stop-color="#f25f3d"/><stop offset="1" stop-color="#ff864b"/></linearGradient><linearGradient id="E"><stop offset="0" stop-color="#ff864b"/><stop offset="1" stop-color="#ee4a32"/></linearGradient><linearGradient id="F" gradientUnits="userSpaceOnUse" x1="18.932" x2="11.6" xlink:href="#E" y1="18.318" y2="22.774"/><linearGradient id="G" gradientUnits="userSpaceOnUse" x1="18.567" x2="16.715" xlink:href="#E" y1="17.265" y2="14.736"/><linearGradient id="H" gradientUnits="userSpaceOnUse" x1="20.957" x2="10.02" xlink:href="#E" y1="22.693" y2="22.693"/><linearGradient id="I" gradientUnits="userSpaceOnUse" x1="16.307" x2="17.574" xlink:href="#E" y1="17.387" y2="17.668"/><linearGradient id="J" gradientUnits="userSpaceOnUse" x1="12.892" x2="18.756" y1="25.094" y2="29.041"><stop offset="0" stop-color="#eb4d30"/><stop offset="1" stop-color="#ff803c"/></linearGradient><g filter="url(#a)"><path clip-rule="evenodd" d="m11.4255 18.5903c.1623-.507.3258-1.0117.4888-1.5132l.1973-.6067c1.4882-4.5745 2.8734-8.83207 2.8734-11.90788l-.0045-1.50699c0-.54616.4498-.99301.9995-.99301h.01c.5497.00993.9894.45678.9994.99301l-.0044 1.50699c0 1.95614 1.0908 6.73998 2.8107 11.99998.0558.1707.1123.3419.1695.5135.0005.0017.0023.0027.0041.0021.0017-.0005.0035.0004.004.0021.1691.5087.3437 1.021.5236 1.5349.0006.0015 0 .0032-.0014.0041-.0014.0008-.002.0025-.0015.0041.5592 1.5936 1.169 3.2024 1.8172 4.7642.1778.4284.3585.8533.5418 1.2734.6665 1.527 1.3679 2.9902 2.0919 4.3278.0181.0333-.0061.0738-.044.0738h-4.9422c-.0238 0-.0443-.0168-.0493-.0401-.3853-1.7972-1.9948-3.1474-3.9194-3.1474-1.9247 0-3.5342 1.3502-3.9195 3.1474-.0049.0233-.0254.0401-.0492.0401h-4.95219c-.03793 0-.06205-.0406-.04397-.0739.75257-1.3878 1.4537-2.8134 2.09924-4.2759-.00008-.0001.00007.0001 0 0 .20044-.4553.3953-.9145.58491-1.3769.00034-.0009.00095-.0016.00173-.0021.00078-.0004.00139-.0012.00174-.002.58714-1.4289 1.12164-2.8918 1.59984-4.388.0375-.1179.0752-.2357.1129-.3534zm5.3595-2.0278c-.0276 0-.05-.0224-.05-.05v-4.61c0-.0587.0843-.0697.0993-.013.3834 1.4462.8396 3.0037 1.3544 4.6076.0103.0323-.0137.0654-.0476.0654zm-1.6 0c.0276 0 .05-.0224.05-.05v-4.6542c0-.058-.0828-.0697-.099-.0141-.4358 1.4963-.9443 3.0589-1.4694 4.6526-.0106.0324.0134.0657.0475.0657zm-2.6106 6.9074c-.043.0263-.0244.0926.0261.0926h2.5845c.0276 0 .05-.0224.05-.05v-1.5827c0-.039-.0428-.063-.0761-.0426zm1.7968-3.0752c.0319.0195.0319.0657 0 .0852l-2.4286 1.4873c-.0405.0248-.0896-.0156-.0732-.0602.3006-.8143.5819-1.6331.8431-2.4555.0098-.031.0461-.0445.0738-.0275zm3.2091.0097c-.0319.0195-.0319.0658 0 .0853l2.4502 1.5008c.0408.025.0901-.0161.0728-.0607-.3129-.8115-.6152-1.6293-.9051-2.4454-.0106-.03-.0461-.0426-.0732-.026zm.5611-2.3419c.0505 0 .0692.0663.0261.0927l-1.3564.8306c-.0333.0204-.0761-.0036-.0761-.0426v-.8307c0-.0276.0224-.05.05-.05zm-2.9564 0c.0276 0 .05.0224.05.05v.8513c0 .0391-.0428.0631-.0761.0427l-1.3899-.8513c-.043-.0264-.0243-.0927.0262-.0927zm4.1806 5.5c.0504 0 .0691-.0663.0261-.0926l-2.5806-1.5807c-.0333-.0204-.0761.0036-.0761.0426v1.5807c0 .0276.0224.05.05.05zm-.575 1.5969c-.0445-.0265-.0261-.0969.0257-.0969h2.5325c.0199 0 .0379.0119.0459.0302.3571.8249.7235 1.631 1.0971 2.4086.016.0332-.0082.0717-.0451.0717h-1.4376c-.0194 0-.0371-.0113-.0454-.0289-.4702-.9986-1.2349-1.8271-2.1731-2.3847zm-8.205-.0669c.008-.0182.026-.03.0459-.03h2.5063c.0518 0 .0702.0704.0257.0969-.9356.5561-1.698 1.383-2.1672 2.3846-.0083.0176-.026.029-.0455.029h-1.43686c-.03702 0-.06121-.0389-.04491-.0721.39036-.7961.76287-1.5992 1.11657-2.4084z" fill="url(#j)" fill-rule="evenodd"/></g><g clip-rule="evenodd" fill-rule="evenodd"><path d="m11.4255 18.5903c.1623-.507.3258-1.0117.4888-1.5132l.1973-.6067c1.4882-4.5745 2.8734-8.83207 2.8734-11.90788l-.0045-1.50699c0-.54616.4498-.99301.9995-.99301h.01c.5497.00993.9894.45678.9994.99301l-.0044 1.50699c0 1.95614 1.0908 6.73998 2.8107 11.99998.0558.1707.1123.3419.1695.5135.0005.0017.0023.0027.0041.0021.0017-.0005.0035.0004.004.0021.1691.5087.3437 1.021.5236 1.5349.0006.0015 0 .0032-.0014.0041-.0014.0008-.002.0025-.0015.0041.5592 1.5936 1.169 3.2024 1.8172 4.7642.1778.4284.3585.8533.5418 1.2734.6665 1.527 1.3679 2.9902 2.0919 4.3278.0181.0333-.0061.0738-.044.0738h-4.9422c-.0238 0-.0443-.0168-.0493-.0401-.3853-1.7972-1.9948-3.1474-3.9194-3.1474-1.9247 0-3.5342 1.3502-3.9195 3.1474-.0049.0233-.0254.0401-.0492.0401h-4.95219c-.03793 0-.06205-.0406-.04397-.0739.75257-1.3878 1.4537-2.8134 2.09924-4.2759-.00008-.0001.00007.0001 0 0 .20044-.4553.3953-.9145.58491-1.3769.00034-.0009.00095-.0016.00173-.0021.00078-.0004.00139-.0012.00174-.002.58714-1.4289 1.12164-2.8918 1.59984-4.388.0375-.1179.0752-.2357.1129-.3534zm5.3595-2.0278c-.0276 0-.05-.0224-.05-.05v-4.61c0-.0587.0843-.0697.0993-.013.3834 1.4462.8396 3.0037 1.3544 4.6076.0103.0323-.0137.0654-.0476.0654zm-1.6 0c.0276 0 .05-.0224.05-.05v-4.6542c0-.058-.0828-.0697-.099-.0141-.4358 1.4963-.9443 3.0589-1.4694 4.6526-.0106.0324.0134.0657.0475.0657zm-2.6106 6.9074c-.043.0263-.0244.0926.0261.0926h2.5845c.0276 0 .05-.0224.05-.05v-1.5827c0-.039-.0428-.063-.0761-.0426zm1.7968-3.0752c.0319.0195.0319.0657 0 .0852l-2.4286 1.4873c-.0405.0248-.0896-.0156-.0732-.0602.3006-.8143.5819-1.6331.8431-2.4555.0098-.031.0461-.0445.0738-.0275zm3.2091.0097c-.0319.0195-.0319.0658 0 .0853l2.4502 1.5008c.0408.025.0901-.0161.0728-.0607-.3129-.8115-.6152-1.6293-.9051-2.4454-.0106-.03-.0461-.0426-.0732-.026zm.5611-2.3419c.0505 0 .0692.0663.0261.0927l-1.3564.8306c-.0333.0204-.0761-.0036-.0761-.0426v-.8307c0-.0276.0224-.05.05-.05zm-2.9564 0c.0276 0 .05.0224.05.05v.8513c0 .0391-.0428.0631-.0761.0427l-1.3899-.8513c-.043-.0264-.0243-.0927.0262-.0927zm4.1806 5.5c.0504 0 .0691-.0663.0261-.0926l-2.5806-1.5807c-.0333-.0204-.0761.0036-.0761.0426v1.5807c0 .0276.0224.05.05.05zm-.575 1.5969c-.0445-.0265-.0261-.0969.0257-.0969h2.5325c.0199 0 .0379.0119.0459.0302.3571.8249.7235 1.631 1.0971 2.4086.016.0332-.0082.0717-.0451.0717h-1.4376c-.0194 0-.0371-.0113-.0454-.0289-.4702-.9986-1.2349-1.8271-2.1731-2.3847zm-8.205-.0669c.008-.0182.026-.03.0459-.03h2.5063c.0518 0 .0702.0704.0257.0969-.9356.5561-1.698 1.383-2.1672 2.3846-.0083.0176-.026.029-.0455.029h-1.43686c-.03702 0-.06121-.0389-.04491-.0721.39036-.7961.76287-1.5992 1.11657-2.4084z" fill="url(#k)"/><path d="m11.4255 18.5903c.1623-.507.3258-1.0117.4888-1.5132l.1973-.6067c1.4882-4.5745 2.8734-8.83207 2.8734-11.90788l-.0045-1.50699c0-.54616.4498-.99301.9995-.99301h.01c.5497.00993.9894.45678.9994.99301l-.0044 1.50699c0 1.95614 1.0908 6.73998 2.8107 11.99998.0558.1707.1123.3419.1695.5135.0005.0017.0023.0027.0041.0021.0017-.0005.0035.0004.004.0021.1691.5087.3437 1.021.5236 1.5349.0006.0015 0 .0032-.0014.0041-.0014.0008-.002.0025-.0015.0041.5592 1.5936 1.169 3.2024 1.8172 4.7642.1778.4284.3585.8533.5418 1.2734.6665 1.527 1.3679 2.9902 2.0919 4.3278.0181.0333-.0061.0738-.044.0738h-4.9422c-.0238 0-.0443-.0168-.0493-.0401-.3853-1.7972-1.9948-3.1474-3.9194-3.1474-1.9247 0-3.5342 1.3502-3.9195 3.1474-.0049.0233-.0254.0401-.0492.0401h-4.95219c-.03793 0-.06205-.0406-.04397-.0739.75257-1.3878 1.4537-2.8134 2.09924-4.2759-.00008-.0001.00007.0001 0 0 .20044-.4553.3953-.9145.58491-1.3769.00034-.0009.00095-.0016.00173-.0021.00078-.0004.00139-.0012.00174-.002.58714-1.4289 1.12164-2.8918 1.59984-4.388.0375-.1179.0752-.2357.1129-.3534zm5.3595-2.0278c-.0276 0-.05-.0224-.05-.05v-4.61c0-.0587.0843-.0697.0993-.013.3834 1.4462.8396 3.0037 1.3544 4.6076.0103.0323-.0137.0654-.0476.0654zm-1.6 0c.0276 0 .05-.0224.05-.05v-4.6542c0-.058-.0828-.0697-.099-.0141-.4358 1.4963-.9443 3.0589-1.4694 4.6526-.0106.0324.0134.0657.0475.0657zm-2.6106 6.9074c-.043.0263-.0244.0926.0261.0926h2.5845c.0276 0 .05-.0224.05-.05v-1.5827c0-.039-.0428-.063-.0761-.0426zm1.7968-3.0752c.0319.0195.0319.0657 0 .0852l-2.4286 1.4873c-.0405.0248-.0896-.0156-.0732-.0602.3006-.8143.5819-1.6331.8431-2.4555.0098-.031.0461-.0445.0738-.0275zm3.2091.0097c-.0319.0195-.0319.0658 0 .0853l2.4502 1.5008c.0408.025.0901-.0161.0728-.0607-.3129-.8115-.6152-1.6293-.9051-2.4454-.0106-.03-.0461-.0426-.0732-.026zm.5611-2.3419c.0505 0 .0692.0663.0261.0927l-1.3564.8306c-.0333.0204-.0761-.0036-.0761-.0426v-.8307c0-.0276.0224-.05.05-.05zm-2.9564 0c.0276 0 .05.0224.05.05v.8513c0 .0391-.0428.0631-.0761.0427l-1.3899-.8513c-.043-.0264-.0243-.0927.0262-.0927zm4.1806 5.5c.0504 0 .0691-.0663.0261-.0926l-2.5806-1.5807c-.0333-.0204-.0761.0036-.0761.0426v1.5807c0 .0276.0224.05.05.05zm-.575 1.5969c-.0445-.0265-.0261-.0969.0257-.0969h2.5325c.0199 0 .0379.0119.0459.0302.3571.8249.7235 1.631 1.0971 2.4086.016.0332-.0082.0717-.0451.0717h-1.4376c-.0194 0-.0371-.0113-.0454-.0289-.4702-.9986-1.2349-1.8271-2.1731-2.3847zm-8.205-.0669c.008-.0182.026-.03.0459-.03h2.5063c.0518 0 .0702.0704.0257.0969-.9356.5561-1.698 1.383-2.1672 2.3846-.0083.0176-.026.029-.0455.029h-1.43686c-.03702 0-.06121-.0389-.04491-.0721.39036-.7961.76287-1.5992 1.11657-2.4084z" fill="url(#m)"/><path d="m11.4255 18.5903c.1623-.507.3258-1.0117.4888-1.5132l.1973-.6067c1.4882-4.5745 2.8734-8.83207 2.8734-11.90788l-.0045-1.50699c0-.54616.4498-.99301.9995-.99301h.01c.5497.00993.9894.45678.9994.99301l-.0044 1.50699c0 1.95614 1.0908 6.73998 2.8107 11.99998.0558.1707.1123.3419.1695.5135.0005.0017.0023.0027.0041.0021.0017-.0005.0035.0004.004.0021.1691.5087.3437 1.021.5236 1.5349.0006.0015 0 .0032-.0014.0041-.0014.0008-.002.0025-.0015.0041.5592 1.5936 1.169 3.2024 1.8172 4.7642.1778.4284.3585.8533.5418 1.2734.6665 1.527 1.3679 2.9902 2.0919 4.3278.0181.0333-.0061.0738-.044.0738h-4.9422c-.0238 0-.0443-.0168-.0493-.0401-.3853-1.7972-1.9948-3.1474-3.9194-3.1474-1.9247 0-3.5342 1.3502-3.9195 3.1474-.0049.0233-.0254.0401-.0492.0401h-4.95219c-.03793 0-.06205-.0406-.04397-.0739.75257-1.3878 1.4537-2.8134 2.09924-4.2759-.00008-.0001.00007.0001 0 0 .20044-.4553.3953-.9145.58491-1.3769.00034-.0009.00095-.0016.00173-.0021.00078-.0004.00139-.0012.00174-.002.58714-1.4289 1.12164-2.8918 1.59984-4.388.0375-.1179.0752-.2357.1129-.3534zm5.3595-2.0278c-.0276 0-.05-.0224-.05-.05v-4.61c0-.0587.0843-.0697.0993-.013.3834 1.4462.8396 3.0037 1.3544 4.6076.0103.0323-.0137.0654-.0476.0654zm-1.6 0c.0276 0 .05-.0224.05-.05v-4.6542c0-.058-.0828-.0697-.099-.0141-.4358 1.4963-.9443 3.0589-1.4694 4.6526-.0106.0324.0134.0657.0475.0657zm-2.6106 6.9074c-.043.0263-.0244.0926.0261.0926h2.5845c.0276 0 .05-.0224.05-.05v-1.5827c0-.039-.0428-.063-.0761-.0426zm1.7968-3.0752c.0319.0195.0319.0657 0 .0852l-2.4286 1.4873c-.0405.0248-.0896-.0156-.0732-.0602.3006-.8143.5819-1.6331.8431-2.4555.0098-.031.0461-.0445.0738-.0275zm3.2091.0097c-.0319.0195-.0319.0658 0 .0853l2.4502 1.5008c.0408.025.0901-.0161.0728-.0607-.3129-.8115-.6152-1.6293-.9051-2.4454-.0106-.03-.0461-.0426-.0732-.026zm.5611-2.3419c.0505 0 .0692.0663.0261.0927l-1.3564.8306c-.0333.0204-.0761-.0036-.0761-.0426v-.8307c0-.0276.0224-.05.05-.05zm-2.9564 0c.0276 0 .05.0224.05.05v.8513c0 .0391-.0428.0631-.0761.0427l-1.3899-.8513c-.043-.0264-.0243-.0927.0262-.0927zm4.1806 5.5c.0504 0 .0691-.0663.0261-.0926l-2.5806-1.5807c-.0333-.0204-.0761.0036-.0761.0426v1.5807c0 .0276.0224.05.05.05zm-.575 1.5969c-.0445-.0265-.0261-.0969.0257-.0969h2.5325c.0199 0 .0379.0119.0459.0302.3571.8249.7235 1.631 1.0971 2.4086.016.0332-.0082.0717-.0451.0717h-1.4376c-.0194 0-.0371-.0113-.0454-.0289-.4702-.9986-1.2349-1.8271-2.1731-2.3847zm-8.205-.0669c.008-.0182.026-.03.0459-.03h2.5063c.0518 0 .0702.0704.0257.0969-.9356.5561-1.698 1.383-2.1672 2.3846-.0083.0176-.026.029-.0455.029h-1.43686c-.03702 0-.06121-.0389-.04491-.0721.39036-.7961.76287-1.5992 1.11657-2.4084z" fill="url(#n)"/><path d="m11.4255 18.5903c.1623-.507.3258-1.0117.4888-1.5132l.1973-.6067c1.4882-4.5745 2.8734-8.83207 2.8734-11.90788l-.0045-1.50699c0-.54616.4498-.99301.9995-.99301h.01c.5497.00993.9894.45678.9994.99301l-.0044 1.50699c0 1.95614 1.0908 6.73998 2.8107 11.99998.0558.1707.1123.3419.1695.5135.0005.0017.0023.0027.0041.0021.0017-.0005.0035.0004.004.0021.1691.5087.3437 1.021.5236 1.5349.0006.0015 0 .0032-.0014.0041-.0014.0008-.002.0025-.0015.0041.5592 1.5936 1.169 3.2024 1.8172 4.7642.1778.4284.3585.8533.5418 1.2734.6665 1.527 1.3679 2.9902 2.0919 4.3278.0181.0333-.0061.0738-.044.0738h-4.9422c-.0238 0-.0443-.0168-.0493-.0401-.3853-1.7972-1.9948-3.1474-3.9194-3.1474-1.9247 0-3.5342 1.3502-3.9195 3.1474-.0049.0233-.0254.0401-.0492.0401h-4.95219c-.03793 0-.06205-.0406-.04397-.0739.75257-1.3878 1.4537-2.8134 2.09924-4.2759-.00008-.0001.00007.0001 0 0 .20044-.4553.3953-.9145.58491-1.3769.00034-.0009.00095-.0016.00173-.0021.00078-.0004.00139-.0012.00174-.002.58714-1.4289 1.12164-2.8918 1.59984-4.388.0375-.1179.0752-.2357.1129-.3534zm5.3595-2.0278c-.0276 0-.05-.0224-.05-.05v-4.61c0-.0587.0843-.0697.0993-.013.3834 1.4462.8396 3.0037 1.3544 4.6076.0103.0323-.0137.0654-.0476.0654zm-1.6 0c.0276 0 .05-.0224.05-.05v-4.6542c0-.058-.0828-.0697-.099-.0141-.4358 1.4963-.9443 3.0589-1.4694 4.6526-.0106.0324.0134.0657.0475.0657zm-2.6106 6.9074c-.043.0263-.0244.0926.0261.0926h2.5845c.0276 0 .05-.0224.05-.05v-1.5827c0-.039-.0428-.063-.0761-.0426zm1.7968-3.0752c.0319.0195.0319.0657 0 .0852l-2.4286 1.4873c-.0405.0248-.0896-.0156-.0732-.0602.3006-.8143.5819-1.6331.8431-2.4555.0098-.031.0461-.0445.0738-.0275zm3.2091.0097c-.0319.0195-.0319.0658 0 .0853l2.4502 1.5008c.0408.025.0901-.0161.0728-.0607-.3129-.8115-.6152-1.6293-.9051-2.4454-.0106-.03-.0461-.0426-.0732-.026zm.5611-2.3419c.0505 0 .0692.0663.0261.0927l-1.3564.8306c-.0333.0204-.0761-.0036-.0761-.0426v-.8307c0-.0276.0224-.05.05-.05zm-2.9564 0c.0276 0 .05.0224.05.05v.8513c0 .0391-.0428.0631-.0761.0427l-1.3899-.8513c-.043-.0264-.0243-.0927.0262-.0927zm4.1806 5.5c.0504 0 .0691-.0663.0261-.0926l-2.5806-1.5807c-.0333-.0204-.0761.0036-.0761.0426v1.5807c0 .0276.0224.05.05.05zm-.575 1.5969c-.0445-.0265-.0261-.0969.0257-.0969h2.5325c.0199 0 .0379.0119.0459.0302.3571.8249.7235 1.631 1.0971 2.4086.016.0332-.0082.0717-.0451.0717h-1.4376c-.0194 0-.0371-.0113-.0454-.0289-.4702-.9986-1.2349-1.8271-2.1731-2.3847zm-8.205-.0669c.008-.0182.026-.03.0459-.03h2.5063c.0518 0 .0702.0704.0257.0969-.9356.5561-1.698 1.383-2.1672 2.3846-.0083.0176-.026.029-.0455.029h-1.43686c-.03702 0-.06121-.0389-.04491-.0721.39036-.7961.76287-1.5992 1.11657-2.4084z" fill="url(#o)"/></g><g filter="url(#b)"><path d="m16.5012 5.47787c.8101 4.41512 3.4754 15.24633 7.6556 23.25023" stroke="url(#p)" stroke-linecap="round" stroke-width=".3"/></g><path d="m12.4757 29.0625h-5.98145c-.2796 0-.50926.2255-.50926.5s.22966.5.50926.5h5.98145c.2796 0 .5093-.2255.5093-.5s-.2297-.5-.5093-.5z" fill="url(#q)"/><path d="m12.4757 29.0625h-5.98145c-.2796 0-.50926.2255-.50926.5s.22966.5.50926.5h5.98145c.2796 0 .5093-.2255.5093-.5s-.2297-.5-.5093-.5z" fill="url(#r)"/><path d="m25.4757 29.0625h-5.9814c-.2796 0-.5093.2255-.5093.5s.2297.5.5093.5h5.9814c.2796 0 .5093-.2255.5093-.5s-.2297-.5-.5093-.5z" fill="url(#s)"/><path d="m25.4757 29.0625h-5.9814c-.2796 0-.5093.2255-.5093.5s.2297.5.5093.5h5.9814c.2796 0 .5093-.2255.5093-.5s-.2297-.5-.5093-.5z" fill="url(#t)"/><path d="m25.4757 29.0625h-5.9814c-.2796 0-.5093.2255-.5093.5s.2297.5.5093.5h5.9814c.2796 0 .5093-.2255.5093-.5s-.2297-.5-.5093-.5z" fill="url(#u)"/><g filter="url(#c)"><path d="m19.3323 13.586-6.781-.0437c-.2621 0-.4718.1929-.4718.434v2.5862h7.7141v-2.5424c.0105-.2412-.1992-.4341-.4613-.4341z" fill="url(#v)"/></g><path d="m19.3323 13.586-6.781-.0437c-.2621 0-.4718.1929-.4718.434v2.5862h7.7141v-2.5424c.0105-.2412-.1992-.4341-.4613-.4341z" fill="url(#w)"/><path d="m19.3323 13.586-6.781-.0437c-.2621 0-.4718.1929-.4718.434v2.5862h7.7141v-2.5424c.0105-.2412-.1992-.4341-.4613-.4341z" fill="url(#x)"/><path d="m14.085 10.0625h3.84c-.17-.70998-.32-1.37998-.44-1.99998h-2.93c-.13.64-.29 1.31-.47 1.99998z" fill="url(#y)"/><path d="m14.085 10.0625h3.84c-.17-.70998-.32-1.37998-.44-1.99998h-2.93c-.13.64-.29 1.31-.47 1.99998z" fill="url(#A)"/><path d="m17.115 6.06252c-.07-.54-.13-1-.13-1.5v-.5h-2v.55c0 .46-.04.95-.1 1.45z" fill="url(#B)"/><path d="m17.115 6.06252c-.07-.54-.13-1-.13-1.5v-.5h-2v.55c0 .46-.04.95-.1 1.45z" fill="url(#C)"/><g filter="url(#d)"><path d="m13.0988 18.3182 7.453 4.7391" stroke="url(#D)" stroke-linecap="round" stroke-width=".5"/></g><g filter="url(#e)"><path d="m19.2961 18.3182-7.453 4.7391" stroke="url(#F)" stroke-linecap="round" stroke-width=".5"/></g><g filter="url(#f)"><path d="m13.2607 17.265h5.3063" stroke="url(#G)" stroke-linecap="round" stroke-width=".5"/></g><g filter="url(#g)"><path d="m10.5469 24.1105h10.4099" stroke="url(#H)" stroke-linecap="round" stroke-width=".5"/></g><g filter="url(#h)"><path d="m16.2582 17.3865v6.5215" stroke="url(#I)" stroke-linecap="round" stroke-width=".5"/></g><g filter="url(#i)"><path d="m12.491 26.5588c.358-.4882 1.5233-1.4647 3.32-1.4647 2.2459 0 3.9548.9765 4.8824 3.4421" stroke="url(#J)" stroke-linecap="round" stroke-width=".5"/></g></svg>