<svg fill="none" height="32" viewBox="0 0 32 32" width="32" xmlns="http://www.w3.org/2000/svg" xmlns:xlink="http://www.w3.org/1999/xlink"><filter id="a" color-interpolation-filters="sRGB" filterUnits="userSpaceOnUse" height="6.996" width="7" x="7.5" y="12.938"><feFlood flood-opacity="0" result="BackgroundImageFix"/><feBlend in="SourceGraphic" in2="BackgroundImageFix" mode="normal" result="shape"/><feGaussianBlur result="effect1_foregroundBlur_31_1661" stdDeviation=".25"/></filter><filter id="b" color-interpolation-filters="sRGB" filterUnits="userSpaceOnUse" height="6.996" width="7" x="16.906" y="12.938"><feFlood flood-opacity="0" result="BackgroundImageFix"/><feBlend in="SourceGraphic" in2="BackgroundImageFix" mode="normal" result="shape"/><feGaussianBlur result="effect1_foregroundBlur_31_1661" stdDeviation=".25"/></filter><filter id="c" color-interpolation-filters="sRGB" filterUnits="userSpaceOnUse" height="6.828" width="12.004" x="10.623" y="20.511"><feFlood flood-opacity="0" result="BackgroundImageFix"/><feBlend in="SourceGraphic" in2="BackgroundImageFix" mode="normal" result="shape"/><feGaussianBlur result="effect1_foregroundBlur_31_1661" stdDeviation=".75"/></filter><filter id="d" color-interpolation-filters="sRGB" filterUnits="userSpaceOnUse" height="4.406" width="18.295" x="6.854" y="21.049"><feFlood flood-opacity="0" result="BackgroundImageFix"/><feBlend in="SourceGraphic" in2="BackgroundImageFix" mode="normal" result="shape"/><feGaussianBlur result="effect1_foregroundBlur_31_1661" stdDeviation=".375"/></filter><linearGradient id="e"><stop offset="0" stop-color="#fff478"/><stop offset=".475" stop-color="#ffb02e"/><stop offset="1" stop-color="#f70a8d"/></linearGradient><radialGradient id="f" cx="0" cy="0" gradientTransform="matrix(-25.50001559 27.49994029 -27.49994029 -25.50001559 25.5 9)" gradientUnits="userSpaceOnUse" r="1" xlink:href="#e"/><radialGradient id="g" cx="0" cy="0" gradientTransform="matrix(-26.00007659 28.99995257 -28.99995257 -26.00007659 25.5 9)" gradientUnits="userSpaceOnUse" r="1" xlink:href="#e"/><radialGradient id="h" cx="0" cy="0" gradientTransform="matrix(-3.50002684 17.50002696 -22.41420586 -4.48286864 16 12.5)" gradientUnits="userSpaceOnUse" r="1"><stop offset=".788" stop-color="#f59639" stop-opacity="0"/><stop offset=".973" stop-color="#ff7dce"/></radialGradient><radialGradient id="i" cx="0" cy="0" gradientTransform="matrix(-29.00000473 29.00000473 -29.00000473 -29.00000473 18 14)" gradientUnits="userSpaceOnUse" r="1"><stop offset=".315" stop-opacity="0"/><stop offset="1"/></radialGradient><radialGradient id="j" cx="0" cy="0" gradientTransform="matrix(5.99998476 27.49996659 -27.49996659 5.99998476 16 17)" gradientUnits="userSpaceOnUse" r="1"><stop offset=".508" stop-color="#7d6133" stop-opacity="0"/><stop offset="1" stop-color="#715b32"/></radialGradient><radialGradient id="k" cx="0" cy="0" gradientTransform="matrix(7.49998923 10.99997471 -7.97335607 5.43638383 16.5 16.5)" gradientUnits="userSpaceOnUse" r="1"><stop offset="0" stop-color="#ffb849"/><stop offset="1" stop-color="#ffb847" stop-opacity="0"/></radialGradient><radialGradient id="l" cx="0" cy="0" gradientTransform="matrix(11.49998262 1.99999761 -1.99999761 11.49998262 20.5 18)" gradientUnits="userSpaceOnUse" r="1"><stop offset="0" stop-color="#ffa64b"/><stop offset=".9" stop-color="#ffae46" stop-opacity="0"/></radialGradient><radialGradient id="m" cx="0" cy="0" gradientTransform="matrix(42.50000186 40.99993707 -40.99993707 42.50000186 17.5 15)" gradientUnits="userSpaceOnUse" r="1"><stop offset=".185" stop-opacity="0"/><stop offset="1" stop-opacity=".4"/></radialGradient><radialGradient id="n" cx="0" cy="0" gradientTransform="matrix(-2.62501704 7.12499236 -9.31237141 -3.43089963 9.78128 13.4375)" gradientUnits="userSpaceOnUse" r="1"><stop offset="0" stop-color="#9f5e0f"/><stop offset=".889" stop-color="#9f5e0f" stop-opacity="0"/></radialGradient><linearGradient id="o"><stop offset=".25" stop-color="#482641"/><stop offset=".406" stop-color="#503a4a"/><stop offset=".511" stop-color="#482641"/></linearGradient><linearGradient id="p" gradientUnits="userSpaceOnUse" x1="10.578" x2="8" xlink:href="#o" y1="19.732" y2="14.388"/><linearGradient id="q" gradientUnits="userSpaceOnUse" x1="8.86" x2="11.25" xlink:href="#o" y1="16.139" y2="11.451"/><radialGradient id="r" cx="0" cy="0" gradientTransform="matrix(-9.60935402 -9.28126604 12.13059533 -12.55940564 26.8281 20.4375)" gradientUnits="userSpaceOnUse" r="1"><stop offset="0" stop-color="#e9830a"/><stop offset=".802" stop-color="#f08b13" stop-opacity="0"/></radialGradient><linearGradient id="s" gradientUnits="userSpaceOnUse" x1="21.406" x2="23.985" xlink:href="#o" y1="19.732" y2="14.388"/><linearGradient id="t" gradientUnits="userSpaceOnUse" x1="23.125" x2="20.734" xlink:href="#o" y1="16.139" y2="11.451"/><linearGradient id="u" gradientUnits="userSpaceOnUse" x1="7.432" x2="11.244" y1="23.818" y2="19.263"><stop offset="0" stop-color="#482641"/><stop offset=".323" stop-color="#57434e"/><stop offset=".438" stop-color="#483637"/></linearGradient><linearGradient id="v"><stop offset=".02" stop-color="#482641"/><stop offset=".323" stop-color="#57434e"/><stop offset=".464" stop-color="#483637"/></linearGradient><linearGradient id="w" gradientUnits="userSpaceOnUse" x1="11.745" x2="8.82" xlink:href="#v" y1="24.695" y2="21.126"/><linearGradient id="x" gradientUnits="userSpaceOnUse" x1="12.931" x2="15.94" xlink:href="#v" y1="23.39" y2="19.869"/><linearGradient id="y" gradientUnits="userSpaceOnUse" x1="19.07" x2="16.061" xlink:href="#v" y1="23.39" y2="19.869"/><linearGradient id="z" gradientUnits="userSpaceOnUse" x1="18.671" x2="21.68" xlink:href="#v" y1="23.39" y2="19.869"/><linearGradient id="A" gradientUnits="userSpaceOnUse" x1="24.821" x2="21.812" xlink:href="#v" y1="23.39" y2="19.868"/><linearGradient id="B" gradientUnits="userSpaceOnUse" x1="16.001" x2="16.001" y1="25.56" y2="24.006"><stop offset="0" stop-color="#53265e"/><stop offset="1" stop-color="#53265e" stop-opacity="0"/></linearGradient><path d="m15.9989 29.9978c9.3344 0 13.9989-6.2675 13.9989-13.9989 0-7.73139-4.6645-13.9989-13.9989-13.9989-9.33447 0-13.9989 6.26751-13.9989 13.9989 0 7.7314 4.66443 13.9989 13.9989 13.9989z" fill="url(#f)"/><path d="m15.9989 29.9978c9.3344 0 13.9989-6.2675 13.9989-13.9989 0-7.73139-4.6645-13.9989-13.9989-13.9989-9.33447 0-13.9989 6.26751-13.9989 13.9989 0 7.7314 4.66443 13.9989 13.9989 13.9989z" fill="url(#g)"/><path d="m15.9989 29.9978c9.3344 0 13.9989-6.2675 13.9989-13.9989 0-7.73139-4.6645-13.9989-13.9989-13.9989-9.33447 0-13.9989 6.26751-13.9989 13.9989 0 7.7314 4.66443 13.9989 13.9989 13.9989z" fill="url(#h)"/><path d="m15.9989 29.9978c9.3344 0 13.9989-6.2675 13.9989-13.9989 0-7.73139-4.6645-13.9989-13.9989-13.9989-9.33447 0-13.9989 6.26751-13.9989 13.9989 0 7.7314 4.66443 13.9989 13.9989 13.9989z" fill="url(#i)" fill-opacity=".6"/><path d="m15.9989 29.9978c9.3344 0 13.9989-6.2675 13.9989-13.9989 0-7.73139-4.6645-13.9989-13.9989-13.9989-9.33447 0-13.9989 6.26751-13.9989 13.9989 0 7.7314 4.66443 13.9989 13.9989 13.9989z" fill="url(#j)"/><path d="m15.9989 29.9978c9.3344 0 13.9989-6.2675 13.9989-13.9989 0-7.73139-4.6645-13.9989-13.9989-13.9989-9.33447 0-13.9989 6.26751-13.9989 13.9989 0 7.7314 4.66443 13.9989 13.9989 13.9989z" fill="url(#k)"/><path d="m15.9989 29.9978c9.3344 0 13.9989-6.2675 13.9989-13.9989 0-7.73139-4.6645-13.9989-13.9989-13.9989-9.33447 0-13.9989 6.26751-13.9989 13.9989 0 7.7314 4.66443 13.9989 13.9989 13.9989z" fill="url(#l)"/><path d="m15.9989 29.9978c9.3344 0 13.9989-6.2675 13.9989-13.9989 0-7.73139-4.6645-13.9989-13.9989-13.9989-9.33447 0-13.9989 6.26751-13.9989 13.9989 0 7.7314 4.66443 13.9989 13.9989 13.9989z" fill="url(#m)"/><g fill="url(#n)" fill-opacity=".6" filter="url(#a)"><path d="m9.44746 19.3275c-.49398.247-1.09465.0468-1.34164-.4472s-.04676-1.0947.44721-1.3416l2.20647-1.1033h3.2407c-.0008.3779-.2146.7231-.5527.8921z"/><path d="m9.44746 13.5433c-.49398-.247-1.09465-.0468-1.34164.4472s-.04676 1.0947.44721 1.3416l2.20647 1.1033h3.2407c-.0008-.3779-.2146-.7231-.5527-.8921z"/></g><path d="m9.44746 18.8898c-.49398.247-1.09465.0468-1.34164-.4472s-.04676-1.0947.44721-1.3416l2.20647-1.1033h3.2407c-.0008.3779-.2146.7231-.5527.8921z" fill="url(#p)"/><path d="m9.44746 13.1058c-.49398-.247-1.09465-.0468-1.34164.4472s-.04676 1.0947.44721 1.3416l2.20647 1.1033h3.2407c-.0008-.3779-.2146-.7231-.5527-.8921z" fill="url(#q)"/><g fill="url(#r)" filter="url(#b)"><path d="m21.959 19.3275c.494.247 1.0947.0468 1.3417-.4472s.0467-1.0947-.4472-1.3416l-2.2065-1.1033h-3.2408c.0009.3779.2147.7231.5528.8921z"/><path d="m21.959 13.5433c.494-.247 1.0947-.0468 1.3417.4472s.0467 1.0947-.4472 1.3416l-2.2065 1.1033h-3.2408c.0009-.3779.2147-.7231.5528-.8921z"/></g><path d="m22.5372 18.8898c.4939.247 1.0946.0468 1.3416-.4472s.0468-1.0947-.4472-1.3416l-2.2065-1.1033h-3.2407c.0008.3779.2147.7231.5528.8921z" fill="url(#s)"/><path d="m22.5372 13.1058c.4939-.247 1.0946-.0468 1.3416.4472s.0468 1.0947-.4472 1.3416l-2.2065 1.1033h-3.2407c.0008-.3779.2147-.7231.5528-.8921z" fill="url(#t)"/><g filter="url(#c)"><path d="m12.8728 23.0876 2.3924 2.0019m2.7188-2.3283 2.3924 2.002" stroke="#cd6256" stroke-linecap="round" stroke-linejoin="round" stroke-width="1.5"/></g><g stroke-linecap="round" stroke-linejoin="round" stroke-width="2"><path d="m7.85364 22.4502 2.39626 2.0052" stroke="url(#u)"/><path d="m10.25 24.4553 2.7683-2.3292" stroke="url(#w)"/><path d="m13.1306 22.0513 2.8705 2.4044" stroke="url(#x)"/><path d="m18.8705 22.0513-2.8705 2.4044" stroke="url(#y)"/><path d="m18.8705 22.0513 2.8705 2.4044" stroke="url(#z)"/><path d="m24.161 22.4268-2.4101 2.0284" stroke="url(#A)"/><path d="m7.85364 22.4501 2.39626 2.0052 2.8756-2.4062 2.8756 2.4062 2.8755-2.4062 2.8756 2.4062 2.3963-2.0052" stroke="url(#B)"/></g><g filter="url(#d)"><path d="m7.85364 22.4501 2.39626 2.0052 2.8756-2.4062 2.8756 2.4062 2.8755-2.4062 2.8756 2.4062 2.3963-2.0052" stroke="#694c5e" stroke-linecap="round" stroke-linejoin="round" stroke-width=".5"/></g></svg>