<svg fill="none" height="32" viewBox="0 0 32 32" width="32" xmlns="http://www.w3.org/2000/svg" xmlns:xlink="http://www.w3.org/1999/xlink"><filter id="a" color-interpolation-filters="sRGB" filterUnits="userSpaceOnUse" height="6.698" width="5.727" x="3.596" y="19.627"><feFlood flood-opacity="0" result="BackgroundImageFix"/><feBlend in="SourceGraphic" in2="BackgroundImageFix" mode="normal" result="shape"/><feGaussianBlur result="effect1_foregroundBlur_6905_5272" stdDeviation=".75"/></filter><filter id="b" color-interpolation-filters="sRGB" filterUnits="userSpaceOnUse" height="10.195" width="6.971" x="20.58" y="4.766"><feFlood flood-opacity="0" result="BackgroundImageFix"/><feBlend in="SourceGraphic" in2="BackgroundImageFix" mode="normal" result="shape"/><feGaussianBlur result="effect1_foregroundBlur_6905_5272" stdDeviation=".25"/></filter><filter id="c" color-interpolation-filters="sRGB" filterUnits="userSpaceOnUse" height="4.625" width="3.417" x="24.848" y="4.07"><feFlood flood-opacity="0" result="BackgroundImageFix"/><feBlend in="SourceGraphic" in2="BackgroundImageFix" mode="normal" result="shape"/><feGaussianBlur result="effect1_foregroundBlur_6905_5272" stdDeviation=".5"/></filter><filter id="d" color-interpolation-filters="sRGB" filterUnits="userSpaceOnUse" height="10.729" width="8.95" x="2.765" y="3.127"><feFlood flood-opacity="0" result="BackgroundImageFix"/><feBlend in="SourceGraphic" in2="BackgroundImageFix" mode="normal" result="shape"/><feGaussianBlur result="effect1_foregroundBlur_6905_5272" stdDeviation="1"/></filter><filter id="e" color-interpolation-filters="sRGB" filterUnits="userSpaceOnUse" height="3.024" width="3.661" x="13.79" y="20.194"><feFlood flood-opacity="0" result="BackgroundImageFix"/><feBlend in="SourceGraphic" in2="BackgroundImageFix" mode="normal" result="shape"/><feGaussianBlur result="effect1_foregroundBlur_6905_5272" stdDeviation=".25"/></filter><filter id="f" color-interpolation-filters="sRGB" filterUnits="userSpaceOnUse" height="4.85" width="2.317" x="14.495" y="21.774"><feFlood flood-opacity="0" result="BackgroundImageFix"/><feBlend in="SourceGraphic" in2="BackgroundImageFix" mode="normal" result="shape"/><feGaussianBlur result="effect1_foregroundBlur_6905_5272" stdDeviation=".25"/></filter><filter id="g" color-interpolation-filters="sRGB" filterUnits="userSpaceOnUse" height="1.748" width="2.723" x="14.951" y="20.005"><feFlood flood-opacity="0" result="BackgroundImageFix"/><feBlend in="SourceGraphic" in2="BackgroundImageFix" mode="normal" result="shape"/><feGaussianBlur result="effect1_foregroundBlur_6905_5272" stdDeviation=".3"/></filter><filter id="h" color-interpolation-filters="sRGB" filterUnits="userSpaceOnUse" height="4.013" width="6.005" x="23.727" y="19.287"><feFlood flood-opacity="0" result="BackgroundImageFix"/><feBlend in="SourceGraphic" in2="BackgroundImageFix" mode="normal" result="shape"/><feGaussianBlur result="effect1_foregroundBlur_6905_5272" stdDeviation=".25"/></filter><filter id="i" color-interpolation-filters="sRGB" filterUnits="userSpaceOnUse" height="3.566" width="4.127" x="23.727" y="23.131"><feFlood flood-opacity="0" result="BackgroundImageFix"/><feBlend in="SourceGraphic" in2="BackgroundImageFix" mode="normal" result="shape"/><feGaussianBlur result="effect1_foregroundBlur_6905_5272" stdDeviation=".25"/></filter><filter id="j" color-interpolation-filters="sRGB" filterUnits="userSpaceOnUse" height="2.693" width="4.297" x="25.645" y="23.582"><feFlood flood-opacity="0" result="BackgroundImageFix"/><feBlend in="SourceGraphic" in2="BackgroundImageFix" mode="normal" result="shape"/><feGaussianBlur result="effect1_foregroundBlur_6905_5272" stdDeviation=".25"/></filter><filter id="k" color-interpolation-filters="sRGB" filterUnits="userSpaceOnUse" height="1.34" width="1.36" x="28.903" y="25.005"><feFlood flood-opacity="0" result="BackgroundImageFix"/><feBlend in="SourceGraphic" in2="BackgroundImageFix" mode="normal" result="shape"/><feGaussianBlur result="effect1_foregroundBlur_6905_5272" stdDeviation=".25"/></filter><filter id="l" color-interpolation-filters="sRGB" filterUnits="userSpaceOnUse" height="8.045" width="5.172" x="5.735" y="19.679"><feFlood flood-opacity="0" result="BackgroundImageFix"/><feBlend in="SourceGraphic" in2="BackgroundImageFix" mode="normal" result="shape"/><feGaussianBlur result="effect1_foregroundBlur_6905_5272" stdDeviation=".5"/></filter><filter id="m" color-interpolation-filters="sRGB" filterUnits="userSpaceOnUse" height="3.119" width="5.102" x="2.184" y="23.218"><feFlood flood-opacity="0" result="BackgroundImageFix"/><feBlend in="SourceGraphic" in2="BackgroundImageFix" mode="normal" result="shape"/><feGaussianBlur result="effect1_foregroundBlur_6905_5272" stdDeviation=".25"/></filter><filter id="n" color-interpolation-filters="sRGB" filterUnits="userSpaceOnUse" height="1.336" width="1.364" x="6.006" y="23.144"><feFlood flood-opacity="0" result="BackgroundImageFix"/><feBlend in="SourceGraphic" in2="BackgroundImageFix" mode="normal" result="shape"/><feGaussianBlur result="effect1_foregroundBlur_6905_5272" stdDeviation=".25"/></filter><filter id="o" color-interpolation-filters="sRGB" filterUnits="userSpaceOnUse" height="3.094" width="5.114" x="2.253" y="19.362"><feFlood flood-opacity="0" result="BackgroundImageFix"/><feBlend in="SourceGraphic" in2="BackgroundImageFix" mode="normal" result="shape"/><feGaussianBlur result="effect1_foregroundBlur_6905_5272" stdDeviation=".25"/></filter><filter id="p" color-interpolation-filters="sRGB" filterUnits="userSpaceOnUse" height="1.364" width="1.336" x="6.125" y="21.13"><feFlood flood-opacity="0" result="BackgroundImageFix"/><feBlend in="SourceGraphic" in2="BackgroundImageFix" mode="normal" result="shape"/><feGaussianBlur result="effect1_foregroundBlur_6905_5272" stdDeviation=".25"/></filter><filter id="q" color-interpolation-filters="sRGB" filterUnits="userSpaceOnUse" height="22.186" width="12.585" x="18.145" y="5.409"><feFlood flood-opacity="0" result="BackgroundImageFix"/><feBlend in="SourceGraphic" in2="BackgroundImageFix" mode="normal" result="shape"/><feGaussianBlur result="effect1_foregroundBlur_6905_5272" stdDeviation="2"/></filter><filter id="r" color-interpolation-filters="sRGB" filterUnits="userSpaceOnUse" height="3.113" width="5.105" x="24.959" y="19.555"><feFlood flood-opacity="0" result="BackgroundImageFix"/><feBlend in="SourceGraphic" in2="BackgroundImageFix" mode="normal" result="shape"/><feGaussianBlur result="effect1_foregroundBlur_6905_5272" stdDeviation=".25"/></filter><filter id="s" color-interpolation-filters="sRGB" filterUnits="userSpaceOnUse" height="7.138" width="4.825" x="22.451" y="6.074"><feFlood flood-opacity="0" result="BackgroundImageFix"/><feBlend in="SourceGraphic" in2="BackgroundImageFix" mode="normal" result="shape"/><feGaussianBlur result="effect1_foregroundBlur_6905_5272" stdDeviation=".3"/></filter><filter id="t" color-interpolation-filters="sRGB" filterUnits="userSpaceOnUse" height="4.734" width="4.531" x="22.77" y="8.596"><feFlood flood-opacity="0" result="BackgroundImageFix"/><feBlend in="SourceGraphic" in2="BackgroundImageFix" mode="normal" result="shape"/><feGaussianBlur result="effect1_foregroundBlur_6905_5272" stdDeviation=".375"/></filter><filter id="u" color-interpolation-filters="sRGB" filterUnits="userSpaceOnUse" height="6.908" width="4.469" x="4.765" y="6.306"><feFlood flood-opacity="0" result="BackgroundImageFix"/><feBlend in="SourceGraphic" in2="BackgroundImageFix" mode="normal" result="shape"/><feGaussianBlur result="effect1_foregroundBlur_6905_5272" stdDeviation=".25"/></filter><filter id="v" color-interpolation-filters="sRGB" filterUnits="userSpaceOnUse" height="6.337" width="1.15" x="4.69" y="6.459"><feFlood flood-opacity="0" result="BackgroundImageFix"/><feBlend in="SourceGraphic" in2="BackgroundImageFix" mode="normal" result="shape"/><feGaussianBlur result="effect1_foregroundBlur_6905_5272" stdDeviation=".25"/></filter><filter id="w" color-interpolation-filters="sRGB" filterUnits="userSpaceOnUse" height="1.337" width="1.363" x="2.174" y="19.219"><feFlood flood-opacity="0" result="BackgroundImageFix"/><feBlend in="SourceGraphic" in2="BackgroundImageFix" mode="normal" result="shape"/><feGaussianBlur result="effect1_foregroundBlur_6905_5272" stdDeviation=".25"/></filter><filter id="x" color-interpolation-filters="sRGB" filterUnits="userSpaceOnUse" height="1.337" width="1.363" x="28.967" y="19.219"><feFlood flood-opacity="0" result="BackgroundImageFix"/><feBlend in="SourceGraphic" in2="BackgroundImageFix" mode="normal" result="shape"/><feGaussianBlur result="effect1_foregroundBlur_6905_5272" stdDeviation=".25"/></filter><filter id="y" color-interpolation-filters="sRGB" filterUnits="userSpaceOnUse" height="3.463" width="4.763" x="18.047" y="17.702"><feFlood flood-opacity="0" result="BackgroundImageFix"/><feBlend in="SourceGraphic" in2="BackgroundImageFix" mode="normal" result="shape"/><feGaussianBlur result="effect1_foregroundBlur_6905_5272" stdDeviation=".25"/></filter><filter id="z" color-interpolation-filters="sRGB" filterUnits="userSpaceOnUse" height="3.463" width="4.763" x="9.087" y="17.739"><feFlood flood-opacity="0" result="BackgroundImageFix"/><feBlend in="SourceGraphic" in2="BackgroundImageFix" mode="normal" result="shape"/><feGaussianBlur result="effect1_foregroundBlur_6905_5272" stdDeviation=".25"/></filter><filter id="A" color-interpolation-filters="sRGB" filterUnits="userSpaceOnUse" height="8.593" width="5.096" x="7.801" y="19.1"><feFlood flood-opacity="0" result="BackgroundImageFix"/><feBlend in="SourceGraphic" in2="BackgroundImageFix" mode="normal" result="shape"/><feGaussianBlur result="effect1_foregroundBlur_6905_5272" stdDeviation="1"/></filter><filter id="B" color-interpolation-filters="sRGB" filterUnits="userSpaceOnUse" height="5.156" width="5.214" x="7.151" y="18.711"><feFlood flood-opacity="0" result="BackgroundImageFix"/><feBlend in="SourceGraphic" in2="BackgroundImageFix" mode="normal" result="shape"/><feGaussianBlur result="effect1_foregroundBlur_6905_5272" stdDeviation="1"/></filter><linearGradient id="C" gradientUnits="userSpaceOnUse" x1="7.907" x2="7.907" y1="1.35" y2="30.99"><stop offset=".288" stop-color="#f2cc26"/><stop offset=".762" stop-color="#e99e20"/><stop offset=".993" stop-color="#e3821d"/><stop offset="1" stop-color="#e3801d"/></linearGradient><linearGradient id="D"><stop offset="0" stop-color="#e99e20" stop-opacity="0"/><stop offset=".993" stop-color="#e3821d"/><stop offset="1" stop-color="#e3801d"/></linearGradient><linearGradient id="E" gradientUnits="userSpaceOnUse" x1="8.831" x2="1.17" xlink:href="#D" y1="12.033" y2="12.033"/><linearGradient id="F" gradientUnits="userSpaceOnUse" x1="26.791" x2="30.245" xlink:href="#D" y1="12.033" y2="12.033"/><linearGradient id="G" gradientUnits="userSpaceOnUse" x1="16.001" x2="16" y1="-1.595" y2="30.99"><stop offset=".771" stop-color="#f59639" stop-opacity="0"/><stop offset="1" stop-color="#ff63c4"/></linearGradient><linearGradient id="H" gradientUnits="userSpaceOnUse" x1="16" x2="16" y1="11.252" y2="32.475"><stop offset=".854" stop-color="#fff" stop-opacity="0"/><stop offset=".985" stop-color="#fff"/></linearGradient><radialGradient id="I" cx="0" cy="0" gradientTransform="matrix(3.04568928 4.42400808 -8.78922202 6.05090198 22.1755 4.47688)" gradientUnits="userSpaceOnUse" r="1"><stop offset="0" stop-color="#ffa720"/><stop offset=".921" stop-color="#ffa720" stop-opacity="0"/></radialGradient><linearGradient id="J" gradientUnits="userSpaceOnUse" x1="21.95" x2="28.207" y1="6.159" y2="13.002"><stop offset="0" stop-color="#ffa720"/><stop offset="1" stop-color="#ffa720" stop-opacity="0"/></linearGradient><linearGradient id="K" gradientUnits="userSpaceOnUse" x1="10.645" x2="4.785" y1="9.924" y2="9.377"><stop offset=".437" stop-color="#ed8c1b"/><stop offset="1" stop-color="#ffb03a"/></linearGradient><linearGradient id="L" gradientUnits="userSpaceOnUse" x1="27.082" x2="26.486" y1="4.617" y2="6.958"><stop offset=".286" stop-color="#ffe792"/><stop offset="1" stop-color="#ffdd65" stop-opacity="0"/></linearGradient><linearGradient id="M" gradientUnits="userSpaceOnUse" x1="15.793" x2="15.121" y1="22.489" y2="23.583"><stop offset="0" stop-color="#e3900e"/><stop offset="1" stop-color="#ea9d26" stop-opacity="0"/></linearGradient><radialGradient id="N" cx="0" cy="0" gradientTransform="matrix(-.01653188 -5.21875382 10.18764888 -.03227226 16.1985 27.2752)" gradientUnits="userSpaceOnUse" r="1"><stop offset=".192" stop-color="#482641"/><stop offset=".312" stop-color="#594253"/><stop offset=".386" stop-color="#483334"/></radialGradient><linearGradient id="O"><stop offset=".135" stop-color="#483637"/><stop offset=".276" stop-color="#594253"/><stop offset=".411" stop-color="#482641"/></linearGradient><linearGradient id="P" gradientUnits="userSpaceOnUse" x1="18.183" x2="10.886" xlink:href="#O" y1="24.447" y2="24.447"/><radialGradient id="Q" cx="0" cy="0" gradientTransform="matrix(-1.89062885 -.95312092 .95875693 -1.90180855 16.4883 21.3176)" gradientUnits="userSpaceOnUse" r="1"><stop offset="0" stop-color="#ea088b"/><stop offset="1" stop-color="#e61e27"/></radialGradient><linearGradient id="R" gradientUnits="userSpaceOnUse" x1="17.246" x2="15.722" y1="20.879" y2="20.879"><stop offset="0" stop-color="#fff" stop-opacity=".9"/><stop offset="1" stop-color="#fff" stop-opacity="0"/></linearGradient><linearGradient id="S" gradientUnits="userSpaceOnUse" x1="24.332" x2="28.067" y1="22.543" y2="20.627"><stop offset="0" stop-color="#e88105"/><stop offset="1" stop-color="#e37d02" stop-opacity="0"/></linearGradient><linearGradient id="T" gradientUnits="userSpaceOnUse" x1="24.332" x2="28.067" y1="23.887" y2="25.803"><stop offset=".286" stop-color="#de7d07"/><stop offset=".818" stop-color="#e37d02" stop-opacity="0"/></linearGradient><linearGradient id="U" gradientUnits="userSpaceOnUse" x1="25.116" x2="29.189" y1="24.017" y2="25.972"><stop offset="0" stop-color="#b9230f"/><stop offset=".365" stop-color="#d64a38"/><stop offset="1" stop-color="#fb7425"/></linearGradient><linearGradient id="V"><stop offset=".156" stop-color="#d64a38"/><stop offset="1" stop-color="#fb7425"/></linearGradient><linearGradient id="W" gradientUnits="userSpaceOnUse" x1="7.06" x2="2.988" xlink:href="#V" y1="24.029" y2="25.984"/><linearGradient id="X" gradientUnits="userSpaceOnUse" x1="6.861" x2="2.77" xlink:href="#V" y1="22.236" y2="20.319"/><linearGradient id="Y" gradientUnits="userSpaceOnUse" x1="23.395" x2="22.998" y1="10.146" y2="22.196"><stop offset=".548" stop-color="#ffdd65"/><stop offset="1" stop-color="#ffdd65" stop-opacity="0"/></linearGradient><linearGradient id="Z" gradientUnits="userSpaceOnUse" x1="25.332" x2="29.413" y1="22.252" y2="20.315"><stop offset=".156" stop-color="#c83f2d"/><stop offset="1" stop-color="#e7671c"/></linearGradient><linearGradient id="aa" gradientUnits="userSpaceOnUse" x1="26.582" x2="25.332" y1="14.815" y2="11.346"><stop offset="0" stop-color="#ef8a47"/><stop offset="1" stop-color="#ef8a47" stop-opacity="0"/></linearGradient><radialGradient id="ab" cx="0" cy="0" gradientTransform="matrix(4.40624866 6.46874874 -7.75589325 5.28299918 22.9102 7.08057)" gradientUnits="userSpaceOnUse" r="1"><stop offset="0" stop-color="#ffdf70"/><stop offset="1" stop-color="#ffdf70" stop-opacity="0"/></radialGradient><linearGradient id="ac" gradientUnits="userSpaceOnUse" x1="25.098" x2="25.098" y1="9.784" y2="12.127"><stop offset=".432" stop-color="#ffe7a3"/><stop offset="1" stop-color="#ffdf83" stop-opacity="0"/></linearGradient><linearGradient id="ad" gradientUnits="userSpaceOnUse" x1="17.547" x2="18.383" y1="17.825" y2="15.801"><stop offset="0" stop-color="#de8d0f"/><stop offset="1" stop-color="#ea9d26" stop-opacity="0"/></linearGradient><linearGradient id="ae" gradientUnits="userSpaceOnUse" x1="14.349" x2="13.513" y1="17.861" y2="15.838"><stop offset="0" stop-color="#e69518"/><stop offset="1" stop-color="#ea9d26" stop-opacity="0"/></linearGradient><radialGradient id="af" cx="0" cy="0" gradientTransform="matrix(.97142335 3.34518653 -6.48458441 1.88308685 11.2201 18.4471)" gradientUnits="userSpaceOnUse" r="1" xlink:href="#O"/><radialGradient id="ag" cx="0" cy="0" gradientTransform="matrix(-.97142335 3.34518653 -6.48458441 -1.88308685 20.8644 18.4471)" gradientUnits="userSpaceOnUse" r="1" xlink:href="#O"/><radialGradient id="ah" cx="0" cy="0" gradientTransform="matrix(5.75318536 -6.52114058 11.02633017 9.72782606 8.01037 27.3063)" gradientUnits="userSpaceOnUse" r="1"><stop offset="0" stop-color="#3d5bf1"/><stop offset="1" stop-color="#5c98ff"/></radialGradient><radialGradient id="ai" cx="0" cy="0" gradientTransform="matrix(-3.44689292 8.59304475 -6.01856257 -2.4142014 11.504 20.0466)" gradientUnits="userSpaceOnUse" r="1"><stop offset=".732" stop-color="#1f2d75" stop-opacity="0"/><stop offset=".956" stop-color="#1f2d75" stop-opacity=".75"/></radialGradient><linearGradient id="aj" gradientUnits="userSpaceOnUse" x1="13.15" x2="6.107" y1="24.265" y2="24.151"><stop offset=".585" stop-color="#1f2d75" stop-opacity="0"/><stop offset="1" stop-color="#1f2d75" stop-opacity=".75"/></linearGradient><path d="m4 25.942c0 2.2319 1.76327 4.058 3.91837 4.058h16.16323c2.1551 0 3.9184-1.9275 3.9184-4.1594v-19.4109c0-1.3-1.5901-1.9-2.4845-1l-4.5419 4.5703h-9.8119l-4.6617-4.5703c-.9-.9-2.5-.3-2.5 1z" fill="url(#C)"/><path d="m4 25.942c0 2.2319 1.76327 4.058 3.91837 4.058h16.16323c2.1551 0 3.9184-1.9275 3.9184-4.1594v-19.4109c0-1.3-1.5901-1.9-2.4845-1l-4.5419 4.5703h-9.8119l-4.6617-4.5703c-.9-.9-2.5-.3-2.5 1z" fill="url(#E)"/><path d="m4 25.942c0 2.2319 1.76327 4.058 3.91837 4.058h16.16323c2.1551 0 3.9184-1.9275 3.9184-4.1594v-19.4109c0-1.3-1.5901-1.9-2.4845-1l-4.5419 4.5703h-9.8119l-4.6617-4.5703c-.9-.9-2.5-.3-2.5 1z" fill="url(#F)"/><path d="m4 25.942c0 2.2319 1.76327 4.058 3.91837 4.058h16.16323c2.1551 0 3.9184-1.9275 3.9184-4.1594v-19.4109c0-1.3-1.5901-1.9-2.4845-1l-4.5419 4.5703h-9.8119l-4.6617-4.5703c-.9-.9-2.5-.3-2.5 1z" fill="url(#G)"/><path d="m4 25.942c0 2.2319 1.76327 4.058 3.91837 4.058h16.16323c2.1551 0 3.9184-1.9275 3.9184-4.1594v-19.4109c0-1.3-1.5901-1.9-2.4845-1l-4.5419 4.5703h-9.8119l-4.6617-4.5703c-.9-.9-2.5-.3-2.5 1z" fill="url(#H)"/><path d="m4 25.942c0 2.2319 1.76327 4.058 3.91837 4.058h16.16323c2.1551 0 3.9184-1.9275 3.9184-4.1594v-19.4109c0-1.3-1.5901-1.9-2.4845-1l-4.5419 4.5703h-9.8119l-4.6617-4.5703c-.9-.9-2.5-.3-2.5 1z" fill="url(#I)"/><g filter="url(#a)"><rect fill="#d67908" height="3.698" rx="1.363" width="2.727" x="5.096" y="21.127"/></g><g filter="url(#b)"><path d="m26.0196 14.4614 1.0281-8.63413c.0547-.46094-.714-.93544-1.5998-.11291 0 0-3.3799 3.32161-3.5669 3.50582-2.3041 2.26882.7615 3.24782 4.1386 5.24122z" fill="url(#J)"/></g><path d="m6.17485 12.8104 2.8-2.6c.32-.29995.32-.77995 0-1.06995l-3.01469-2.67719c-.38281-.33593-1.17531-.22656-1.17531.60719v5.19995c0 .8335.88 1.02 1.39.54z" fill="url(#K)"/><g filter="url(#c)"><path d="m26.5331 5.30772c.0579-.14368.1973-.23777.3522-.23777.2098 0 .3799.17004.3799.37981v2.24519l-1.4175-.6875z" fill="url(#L)"/></g><g filter="url(#d)"><path d="m5.26547 5.62744 3.37496 3.21954c.75412.71938.76825 1.91852.03129 2.65542" stroke="#ffdf70" stroke-linecap="round"/></g><g filter="url(#e)"><path d="m14.8477 20.7882.0643-.015c.4736-.1104.9668-.1053 1.438.015.5211.0982.8322.6955.3922 1.1255l-.5508.6016c-.27.27-.8628.27-1.1328 0l-.543-.6016c-.4492-.5078-.1679-1.0156.3321-1.1255z" fill="url(#M)"/></g><g filter="url(#f)"><path clip-rule="evenodd" d="m15.654 22.274c.3637 0 .6586.2463.6586.55v2.75c0 .3038-.2949.55-.6586.55s-.6586-.2462-.6586-.55v-2.75c0-.3037.2949-.55.6586-.55z" fill="#dc8400" fill-rule="evenodd"/></g><path d="m13.1406 26.8846c.9219-.9115 3.2032-2.1485 5.7344 0" stroke="url(#N)" stroke-linecap="round" stroke-width="1.1"/><path d="m16 25.408v-2.75" stroke="url(#P)" stroke-linecap="round" stroke-width="1.1"/><path d="m15.2688 20.3445.0643-.015c.4736-.1105.9668-.1053 1.438.015.5211.0981.8322.6955.3922 1.1255l-.5508.6015c-.27.27-.8628.27-1.1328 0l-.543-.6015c-.4492-.5078-.1679-1.0157.3321-1.1255z" fill="url(#Q)"/><g filter="url(#g)"><ellipse cx="16.313" cy="20.879" fill="url(#R)" rx=".762" ry=".274"/></g><g filter="url(#h)"><path d="m24.8274 22.1993 3.8046-1.8125" stroke="url(#S)" stroke-linecap="round" stroke-miterlimit="10" stroke-width="1.2"/></g><g filter="url(#i)"><path d="m24.8274 24.2306 1.9266 1.3656" stroke="url(#T)" stroke-linecap="round" stroke-miterlimit="10" stroke-width="1.2"/></g><path d="m25.6059 23.9764 3.8015 1.819" stroke="url(#U)" stroke-linecap="round" stroke-miterlimit="10" stroke-width="1.2"/><g filter="url(#j)"><path d="m26.2454 24.182 3.0968 1.4932" stroke="#ff8485" stroke-linecap="round" stroke-miterlimit="10" stroke-width=".2"/></g><g filter="url(#k)"><ellipse cx="29.583" cy="25.675" fill="#ffdd86" rx=".184" ry=".166" transform="matrix(.88049307 .47405901 -.47405901 .88049307 15.706945 -10.955569)"/></g><g filter="url(#l)"><path d="m9.90707 22.2647c0-.9149-.77197-1.6401-1.68509-1.583-.83724.0524-1.4889.7477-1.487 1.5866l.00652 2.8759c.00199.8812.7233 1.5911 1.60443 1.5791.86563-.0119 1.56114-.7169 1.56114-1.5827z" fill="#cd7b00"/></g><path d="m6.57037 23.9881-3.80156 1.819" stroke="url(#W)" stroke-linecap="round" stroke-miterlimit="10" stroke-width="1.2"/><g filter="url(#m)"><path d="m6.63558 23.868-3.80156 1.819" stroke="#ff8485" stroke-linecap="round" stroke-miterlimit="10" stroke-width=".3"/></g><g filter="url(#n)"><ellipse fill="#ffdd86" rx=".184" ry=".166" transform="matrix(-.942776 -.333427 -.333427 .942776 6.68841 23.812)"/></g><path d="m6.58199 21.8314-3.81357-1.7937" stroke="url(#X)" stroke-linecap="round" stroke-miterlimit="10" stroke-width="1.2"/><g filter="url(#o)"><path d="m6.71627 21.8059-3.81358-1.7937" stroke="#ff8485" stroke-linecap="round" stroke-miterlimit="10" stroke-width=".3"/></g><g filter="url(#p)"><ellipse fill="#ffdd86" rx=".184" ry=".166" transform="matrix(-.338111 -.941106 -.941106 .338111 6.79301 21.8114)"/></g><g filter="url(#q)"><path d="m22.1446 9.40869h4.5851v14.1857h-4.5851z" fill="url(#Y)"/></g><path d="m25.6086 21.8462 3.6837-1.7344" stroke="url(#Z)" stroke-linecap="round" stroke-miterlimit="10" stroke-width="1.2"/><g filter="url(#r)"><path d="m25.6086 22.0181 3.8047-1.8125" stroke="#ff5b5d" stroke-linecap="round" stroke-miterlimit="10" stroke-width=".3"/></g><path d="m25.8752 12.8104-2.8-2.6c-.32-.29995-.32-.77995 0-1.06995l3.0147-2.67719c.3828-.33593 1.1753-.22656 1.1753.60719v5.19995c0 .8335-.88 1.02-1.39.54z" fill="#ffb915"/><path d="m25.8752 12.8104-2.8-2.6c-.32-.29995-.32-.77995 0-1.06995l3.0147-2.67719c.3828-.33593 1.1753-.22656 1.1753.60719v5.19995c0 .8335-.88 1.02-1.39.54z" fill="url(#aa)"/><g filter="url(#s)"><path d="m26.6758 6.67432-3.625 3.125 3.5469 2.81248z" fill="url(#ab)"/></g><g filter="url(#t)"><path d="m23.7696 9.59619 2.5312 2.73441" stroke="url(#ac)" stroke-linecap="round" stroke-width=".5"/></g><g filter="url(#u)"><path d="m5.26547 6.8064v5.9077l3.46875-3.08934z" fill="#feb33e"/></g><g filter="url(#v)"><path d="m5.26547 7.03369v5.18751" stroke="#ffe7a3" stroke-linecap="round" stroke-width=".15"/></g><g filter="url(#w)"><ellipse fill="#ffdd86" rx=".184" ry=".166" transform="matrix(-.922231 -.386639 -.386639 .922231 2.85551 19.8876)"/></g><g filter="url(#x)"><ellipse cx="29.648" cy="19.888" fill="#ffdd86" rx=".184" ry=".166" transform="matrix(.92223134 -.38663853 .38663853 .92223134 -5.383619 13.00973)"/></g><g filter="url(#y)"><path clip-rule="evenodd" d="m19.6151 18.5322c.4698 1.0467 1.4915 1.1208 1.9303.9475.287-.1134.6115.0274.7248.3143.1134.287-.0274.6115-.3143.7248-.8778.3467-2.5975.1698-3.3601-1.529-.1263-.2815-.0006-.6121.2809-.7384.2814-.1264.612-.0006.7384.2808z" fill="url(#ad)" fill-rule="evenodd"/></g><g filter="url(#z)"><path clip-rule="evenodd" d="m12.2811 18.5689c-.4698 1.0466-1.4915 1.1207-1.9304.9474-.2869-.1134-.61141.0274-.72475.3143-.11334.287.02741.6115.31436.7248.87779.3467 2.59749.1698 3.36009-1.529.1263-.2815.0006-.6121-.2809-.7384-.2815-.1264-.6121-.0006-.7384.2809z" fill="url(#ae)" fill-rule="evenodd"/></g><path d="m12.8139 18.2284c-.2735.7187-1.4219 1.6875-2.82035 1.1015" stroke="url(#af)" stroke-linecap="round" stroke-width="1.1"/><path d="m19.2706 18.2284c.2735.7187 1.4219 1.6875 2.8204 1.1015" stroke="url(#ag)" stroke-linecap="round" stroke-width="1.1"/><path d="m11.5692 22.0531c0-1.0536-.889-1.8887-1.94057-1.8229-.96415.0603-1.71459.861-1.7124 1.827l.0075 3.3119c.0023 1.0148.83295 1.8323 1.84764 1.8184.99683-.0136 1.79783-.8256 1.79783-1.8225z" fill="url(#ah)"/><path d="m11.5692 22.0531c0-1.0536-.889-1.8887-1.94057-1.8229-.96415.0603-1.71459.861-1.7124 1.827l.0075 3.3119c.0023 1.0148.83295 1.8323 1.84764 1.8184.99683-.0136 1.79783-.8256 1.79783-1.8225z" fill="url(#ai)"/><path d="m11.5692 22.0531c0-1.0536-.889-1.8887-1.94057-1.8229-.96415.0603-1.71459.861-1.7124 1.827l.0075 3.3119c.0023 1.0148.83295 1.8323 1.84764 1.8184.99683-.0136 1.79783-.8256 1.79783-1.8225z" fill="url(#aj)"/><g filter="url(#A)"><path d="m10.3125 21.5879.0722 3.6172" stroke="#6bafff" stroke-linecap="round"/></g><g filter="url(#B)"><circle fill="#6bafff" r=".593" transform="matrix(-.724367 .689414 .724367 .689414 9.75781 21.2884)"/></g></svg>