<svg fill="none" height="32" viewBox="0 0 32 32" width="32" xmlns="http://www.w3.org/2000/svg" xmlns:xlink="http://www.w3.org/1999/xlink"><filter id="a" color-interpolation-filters="sRGB" filterUnits="userSpaceOnUse" height="6.698" width="5.727" x="3.554" y="20.32"><feFlood flood-opacity="0" result="BackgroundImageFix"/><feBlend in="SourceGraphic" in2="BackgroundImageFix" mode="normal" result="shape"/><feGaussianBlur result="effect1_foregroundBlur_6898_5229" stdDeviation=".75"/></filter><filter id="b" color-interpolation-filters="sRGB" filterUnits="userSpaceOnUse" height="11.636" width="9.009" x="19.098" y="4.519"><feFlood flood-opacity="0" result="BackgroundImageFix"/><feBlend in="SourceGraphic" in2="BackgroundImageFix" mode="normal" result="shape"/><feGaussianBlur result="effect1_foregroundBlur_6898_5229" stdDeviation=".5"/></filter><filter id="c" color-interpolation-filters="sRGB" filterUnits="userSpaceOnUse" height="4.625" width="3.417" x="24.805" y="4.414"><feFlood flood-opacity="0" result="BackgroundImageFix"/><feBlend in="SourceGraphic" in2="BackgroundImageFix" mode="normal" result="shape"/><feGaussianBlur result="effect1_foregroundBlur_6898_5229" stdDeviation=".5"/></filter><filter id="d" color-interpolation-filters="sRGB" filterUnits="userSpaceOnUse" height="10.729" width="8.95" x="2.946" y="3.227"><feFlood flood-opacity="0" result="BackgroundImageFix"/><feBlend in="SourceGraphic" in2="BackgroundImageFix" mode="normal" result="shape"/><feGaussianBlur result="effect1_foregroundBlur_6898_5229" stdDeviation="1"/></filter><filter id="e" color-interpolation-filters="sRGB" filterUnits="userSpaceOnUse" height="3.024" width="3.661" x="13.748" y="20.056"><feFlood flood-opacity="0" result="BackgroundImageFix"/><feBlend in="SourceGraphic" in2="BackgroundImageFix" mode="normal" result="shape"/><feGaussianBlur result="effect1_foregroundBlur_6898_5229" stdDeviation=".25"/></filter><filter id="f" color-interpolation-filters="sRGB" filterUnits="userSpaceOnUse" height="1.749" width="2.723" x="14.909" y="19.867"><feFlood flood-opacity="0" result="BackgroundImageFix"/><feBlend in="SourceGraphic" in2="BackgroundImageFix" mode="normal" result="shape"/><feGaussianBlur result="effect1_foregroundBlur_6898_5229" stdDeviation=".3"/></filter><filter id="g" color-interpolation-filters="sRGB" filterUnits="userSpaceOnUse" height="4.013" width="6.005" x="23.685" y="19.98"><feFlood flood-opacity="0" result="BackgroundImageFix"/><feBlend in="SourceGraphic" in2="BackgroundImageFix" mode="normal" result="shape"/><feGaussianBlur result="effect1_foregroundBlur_6898_5229" stdDeviation=".25"/></filter><filter id="h" color-interpolation-filters="sRGB" filterUnits="userSpaceOnUse" height="3.566" width="4.127" x="23.685" y="23.823"><feFlood flood-opacity="0" result="BackgroundImageFix"/><feBlend in="SourceGraphic" in2="BackgroundImageFix" mode="normal" result="shape"/><feGaussianBlur result="effect1_foregroundBlur_6898_5229" stdDeviation=".25"/></filter><filter id="i" color-interpolation-filters="sRGB" filterUnits="userSpaceOnUse" height="3.113" width="5.105" x="24.916" y="20.248"><feFlood flood-opacity="0" result="BackgroundImageFix"/><feBlend in="SourceGraphic" in2="BackgroundImageFix" mode="normal" result="shape"/><feGaussianBlur result="effect1_foregroundBlur_6898_5229" stdDeviation=".25"/></filter><filter id="j" color-interpolation-filters="sRGB" filterUnits="userSpaceOnUse" height="1.337" width="1.363" x="28.924" y="19.912"><feFlood flood-opacity="0" result="BackgroundImageFix"/><feBlend in="SourceGraphic" in2="BackgroundImageFix" mode="normal" result="shape"/><feGaussianBlur result="effect1_foregroundBlur_6898_5229" stdDeviation=".25"/></filter><filter id="k" color-interpolation-filters="sRGB" filterUnits="userSpaceOnUse" height="3.119" width="5.102" x="24.848" y="23.899"><feFlood flood-opacity="0" result="BackgroundImageFix"/><feBlend in="SourceGraphic" in2="BackgroundImageFix" mode="normal" result="shape"/><feGaussianBlur result="effect1_foregroundBlur_6898_5229" stdDeviation=".25"/></filter><filter id="l" color-interpolation-filters="sRGB" filterUnits="userSpaceOnUse" height="1.34" width="1.36" x="28.86" y="25.698"><feFlood flood-opacity="0" result="BackgroundImageFix"/><feBlend in="SourceGraphic" in2="BackgroundImageFix" mode="normal" result="shape"/><feGaussianBlur result="effect1_foregroundBlur_6898_5229" stdDeviation=".25"/></filter><filter id="m" color-interpolation-filters="sRGB" filterUnits="userSpaceOnUse" height="3.119" width="5.102" x="2.142" y="23.911"><feFlood flood-opacity="0" result="BackgroundImageFix"/><feBlend in="SourceGraphic" in2="BackgroundImageFix" mode="normal" result="shape"/><feGaussianBlur result="effect1_foregroundBlur_6898_5229" stdDeviation=".25"/></filter><filter id="n" color-interpolation-filters="sRGB" filterUnits="userSpaceOnUse" height="1.336" width="1.364" x="5.964" y="23.837"><feFlood flood-opacity="0" result="BackgroundImageFix"/><feBlend in="SourceGraphic" in2="BackgroundImageFix" mode="normal" result="shape"/><feGaussianBlur result="effect1_foregroundBlur_6898_5229" stdDeviation=".25"/></filter><filter id="o" color-interpolation-filters="sRGB" filterUnits="userSpaceOnUse" height="3.094" width="5.114" x="2.21" y="20.055"><feFlood flood-opacity="0" result="BackgroundImageFix"/><feBlend in="SourceGraphic" in2="BackgroundImageFix" mode="normal" result="shape"/><feGaussianBlur result="effect1_foregroundBlur_6898_5229" stdDeviation=".25"/></filter><filter id="p" color-interpolation-filters="sRGB" filterUnits="userSpaceOnUse" height="1.364" width="1.336" x="6.083" y="21.822"><feFlood flood-opacity="0" result="BackgroundImageFix"/><feBlend in="SourceGraphic" in2="BackgroundImageFix" mode="normal" result="shape"/><feGaussianBlur result="effect1_foregroundBlur_6898_5229" stdDeviation=".25"/></filter><filter id="q" color-interpolation-filters="sRGB" filterUnits="userSpaceOnUse" height="22.186" width="12.585" x="18.102" y="6.102"><feFlood flood-opacity="0" result="BackgroundImageFix"/><feBlend in="SourceGraphic" in2="BackgroundImageFix" mode="normal" result="shape"/><feGaussianBlur result="effect1_foregroundBlur_6898_5229" stdDeviation="2"/></filter><filter id="r" color-interpolation-filters="sRGB" filterUnits="userSpaceOnUse" height="7.138" width="4.825" x="22.409" y="6.767"><feFlood flood-opacity="0" result="BackgroundImageFix"/><feBlend in="SourceGraphic" in2="BackgroundImageFix" mode="normal" result="shape"/><feGaussianBlur result="effect1_foregroundBlur_6898_5229" stdDeviation=".3"/></filter><filter id="s" color-interpolation-filters="sRGB" filterUnits="userSpaceOnUse" height="4.734" width="4.531" x="22.727" y="9.289"><feFlood flood-opacity="0" result="BackgroundImageFix"/><feBlend in="SourceGraphic" in2="BackgroundImageFix" mode="normal" result="shape"/><feGaussianBlur result="effect1_foregroundBlur_6898_5229" stdDeviation=".375"/></filter><filter id="t" color-interpolation-filters="sRGB" filterUnits="userSpaceOnUse" height="6.908" width="4.469" x="4.723" y="6.999"><feFlood flood-opacity="0" result="BackgroundImageFix"/><feBlend in="SourceGraphic" in2="BackgroundImageFix" mode="normal" result="shape"/><feGaussianBlur result="effect1_foregroundBlur_6898_5229" stdDeviation=".25"/></filter><filter id="u" color-interpolation-filters="sRGB" filterUnits="userSpaceOnUse" height="6.338" width="1.15" x="4.648" y="7.152"><feFlood flood-opacity="0" result="BackgroundImageFix"/><feBlend in="SourceGraphic" in2="BackgroundImageFix" mode="normal" result="shape"/><feGaussianBlur result="effect1_foregroundBlur_6898_5229" stdDeviation=".25"/></filter><filter id="v" color-interpolation-filters="sRGB" filterUnits="userSpaceOnUse" height="1.253" width="1.128" x="20.975" y="18.741"><feFlood flood-opacity="0" result="BackgroundImageFix"/><feBlend in="SourceGraphic" in2="BackgroundImageFix" mode="normal" result="shape"/><feGaussianBlur result="effect1_foregroundBlur_6898_5229" stdDeviation=".2"/></filter><filter id="w" color-interpolation-filters="sRGB" filterUnits="userSpaceOnUse" height="9.411" width="9.853" x="15.351" y="13.12"><feFlood flood-opacity="0" result="BackgroundImageFix"/><feBlend in="SourceGraphic" in2="BackgroundImageFix" mode="normal" result="shape"/><feGaussianBlur result="effect1_foregroundBlur_6898_5229" stdDeviation=".5"/></filter><filter id="x" color-interpolation-filters="sRGB" filterUnits="userSpaceOnUse" height="8.862" width="9.179" x="5.345" y="13.17"><feFlood flood-opacity="0" result="BackgroundImageFix"/><feBlend in="SourceGraphic" in2="BackgroundImageFix" mode="normal" result="shape"/><feGaussianBlur result="effect1_foregroundBlur_6898_5229" stdDeviation=".5"/></filter><filter id="y" color-interpolation-filters="sRGB" filterUnits="userSpaceOnUse" height="5.234" width="3.047" x="18.832" y="13.297"><feFlood flood-opacity="0" result="BackgroundImageFix"/><feBlend in="SourceGraphic" in2="BackgroundImageFix" mode="normal" result="shape"/><feGaussianBlur result="effect1_foregroundBlur_6898_5229" stdDeviation=".25"/></filter><filter id="z" color-interpolation-filters="sRGB" filterUnits="userSpaceOnUse" height="2.516" width="2.984" x="22.379" y="14.617"><feFlood flood-opacity="0" result="BackgroundImageFix"/><feBlend in="SourceGraphic" in2="BackgroundImageFix" mode="normal" result="shape"/><feGaussianBlur result="effect1_foregroundBlur_6898_5229" stdDeviation=".25"/></filter><filter id="A" color-interpolation-filters="sRGB" filterUnits="userSpaceOnUse" height="1.492" width="1.766" x="22.278" y="13.949"><feFlood flood-opacity="0" result="BackgroundImageFix"/><feBlend in="SourceGraphic" in2="BackgroundImageFix" mode="normal" result="shape"/><feGaussianBlur result="effect1_foregroundBlur_6898_5229" stdDeviation=".25"/></filter><filter id="B" color-interpolation-filters="sRGB" filterUnits="userSpaceOnUse" height="2.622" width="1.348" x="20.279" y="14.963"><feFlood flood-opacity="0" result="BackgroundImageFix"/><feBlend in="SourceGraphic" in2="BackgroundImageFix" mode="normal" result="shape"/><feGaussianBlur result="effect1_foregroundBlur_6898_5229" stdDeviation=".125"/></filter><filter id="C" color-interpolation-filters="sRGB" filterUnits="userSpaceOnUse" height="4.059" width="4.031" x="20.332" y="14.348"><feFlood flood-opacity="0" result="BackgroundImageFix"/><feBlend in="SourceGraphic" in2="BackgroundImageFix" mode="normal" result="shape"/><feGaussianBlur result="effect1_foregroundBlur_6898_5229" stdDeviation=".25"/></filter><filter id="D" color-interpolation-filters="sRGB" filterUnits="userSpaceOnUse" height="2.507" width="2.961" x="17.879" y="13.055"><feFlood flood-opacity="0" result="BackgroundImageFix"/><feBlend in="SourceGraphic" in2="BackgroundImageFix" mode="normal" result="shape"/><feGaussianBlur result="effect1_foregroundBlur_6898_5229" stdDeviation=".25"/></filter><filter id="E" color-interpolation-filters="sRGB" filterUnits="userSpaceOnUse" height="1.494" width="1.765" x="11.676" y="12.784"><feFlood flood-opacity="0" result="BackgroundImageFix"/><feBlend in="SourceGraphic" in2="BackgroundImageFix" mode="normal" result="shape"/><feGaussianBlur result="effect1_foregroundBlur_6898_5229" stdDeviation=".25"/></filter><filter id="F" color-interpolation-filters="sRGB" filterUnits="userSpaceOnUse" height="2.55" width="2.191" x="12.362" y="13.389"><feFlood flood-opacity="0" result="BackgroundImageFix"/><feBlend in="SourceGraphic" in2="BackgroundImageFix" mode="normal" result="shape"/><feGaussianBlur result="effect1_foregroundBlur_6898_5229" stdDeviation=".2"/></filter><filter id="G" color-interpolation-filters="sRGB" filterUnits="userSpaceOnUse" height="3.37" width="3.334" x="8.196" y="14.797"><feFlood flood-opacity="0" result="BackgroundImageFix"/><feBlend in="SourceGraphic" in2="BackgroundImageFix" mode="normal" result="shape"/><feGaussianBlur result="effect1_foregroundBlur_6898_5229" stdDeviation=".15"/></filter><filter id="H" color-interpolation-filters="sRGB" filterUnits="userSpaceOnUse" height="4.922" width="2.75" x="11.856" y="14.961"><feFlood flood-opacity="0" result="BackgroundImageFix"/><feBlend in="SourceGraphic" in2="BackgroundImageFix" mode="normal" result="shape"/><feGaussianBlur result="effect1_foregroundBlur_6898_5229" stdDeviation=".25"/></filter><linearGradient id="I" gradientUnits="userSpaceOnUse" x1="7.907" x2="7.907" y1="1.35" y2="30.99"><stop offset=".288" stop-color="#f2cc26"/><stop offset=".762" stop-color="#e99e20"/><stop offset=".993" stop-color="#e3821d"/><stop offset="1" stop-color="#e3801d"/></linearGradient><linearGradient id="J"><stop offset="0" stop-color="#e99e20" stop-opacity="0"/><stop offset=".993" stop-color="#e3821d"/><stop offset="1" stop-color="#e3801d"/></linearGradient><linearGradient id="K" gradientUnits="userSpaceOnUse" x1="8.831" x2="1.17" xlink:href="#J" y1="12.033" y2="12.033"/><linearGradient id="L" gradientUnits="userSpaceOnUse" x1="26.791" x2="30.245" xlink:href="#J" y1="12.033" y2="12.033"/><linearGradient id="M" gradientUnits="userSpaceOnUse" x1="16.001" x2="16" y1="-1.595" y2="30.99"><stop offset=".771" stop-color="#f59639" stop-opacity="0"/><stop offset="1" stop-color="#ff63c4"/></linearGradient><linearGradient id="N" gradientUnits="userSpaceOnUse" x1="16" x2="16" y1="11.252" y2="32.475"><stop offset=".854" stop-color="#fff" stop-opacity="0"/><stop offset=".985" stop-color="#fff"/></linearGradient><radialGradient id="O" cx="0" cy="0" gradientTransform="matrix(3.04568928 4.42400808 -8.78922202 6.05090198 22.1755 4.47688)" gradientUnits="userSpaceOnUse" r="1"><stop offset="0" stop-color="#ffa720"/><stop offset=".921" stop-color="#ffa720" stop-opacity="0"/></radialGradient><linearGradient id="P" gradientUnits="userSpaceOnUse" x1="21.908" x2="28.165" y1="6.852" y2="13.695"><stop offset="0" stop-color="#ffa720"/><stop offset="1" stop-color="#ffa720" stop-opacity="0"/></linearGradient><linearGradient id="Q" gradientUnits="userSpaceOnUse" x1="10.602" x2="4.743" y1="10.617" y2="10.07"><stop offset=".437" stop-color="#ed8c1b"/><stop offset="1" stop-color="#ffb03a"/></linearGradient><linearGradient id="R" gradientUnits="userSpaceOnUse" x1="27.04" x2="26.444" y1="4.961" y2="7.302"><stop offset=".286" stop-color="#ffe792"/><stop offset="1" stop-color="#ffdd65" stop-opacity="0"/></linearGradient><linearGradient id="S" gradientUnits="userSpaceOnUse" x1="15.751" x2="15.079" y1="22.351" y2="23.445"><stop offset="0" stop-color="#e3900e"/><stop offset="1" stop-color="#ea9d26" stop-opacity="0"/></linearGradient><radialGradient id="T" cx="0" cy="0" gradientTransform="matrix(-1.89062885 -.95312092 .95875693 -1.90180855 16.4461 21.1797)" gradientUnits="userSpaceOnUse" r="1"><stop offset="0" stop-color="#ea088b"/><stop offset="1" stop-color="#e61e27"/></radialGradient><linearGradient id="U" gradientUnits="userSpaceOnUse" x1="17.204" x2="15.68" y1="20.741" y2="20.741"><stop offset="0" stop-color="#fff" stop-opacity=".9"/><stop offset="1" stop-color="#fff" stop-opacity="0"/></linearGradient><linearGradient id="V" gradientUnits="userSpaceOnUse" x1="24.29" x2="28.024" y1="23.236" y2="21.32"><stop offset="0" stop-color="#e88105"/><stop offset="1" stop-color="#e37d02" stop-opacity="0"/></linearGradient><linearGradient id="W" gradientUnits="userSpaceOnUse" x1="24.29" x2="28.024" y1="24.58" y2="26.495"><stop offset=".286" stop-color="#de7d07"/><stop offset=".818" stop-color="#e37d02" stop-opacity="0"/></linearGradient><linearGradient id="X"><stop offset=".156" stop-color="#d64a38"/><stop offset="1" stop-color="#fb7425"/></linearGradient><linearGradient id="Y" gradientUnits="userSpaceOnUse" x1="25.29" x2="29.371" xlink:href="#X" y1="22.945" y2="21.008"/><linearGradient id="Z" gradientUnits="userSpaceOnUse" x1="25.074" x2="29.146" xlink:href="#X" y1="24.71" y2="26.665"/><linearGradient id="aa" gradientUnits="userSpaceOnUse" x1="7.018" x2="2.945" xlink:href="#X" y1="24.721" y2="26.677"/><linearGradient id="ab" gradientUnits="userSpaceOnUse" x1="6.818" x2="2.728" xlink:href="#X" y1="22.929" y2="21.012"/><linearGradient id="ac" gradientUnits="userSpaceOnUse" x1="16.047" x2="16.047" y1="27.523" y2="23.1"><stop offset="0" stop-color="#e61e27"/><stop offset="1" stop-color="#672a7a"/></linearGradient><linearGradient id="ad" gradientUnits="userSpaceOnUse" x1="23.352" x2="22.956" y1="10.838" y2="22.889"><stop offset=".548" stop-color="#ffdd65"/><stop offset="1" stop-color="#ffdd65" stop-opacity="0"/></linearGradient><linearGradient id="ae" gradientUnits="userSpaceOnUse" x1="26.54" x2="25.29" y1="15.508" y2="12.039"><stop offset="0" stop-color="#ef8a47"/><stop offset="1" stop-color="#ef8a47" stop-opacity="0"/></linearGradient><radialGradient id="af" cx="0" cy="0" gradientTransform="matrix(4.40624866 6.46874874 -7.75589325 5.28299918 22.868 7.77344)" gradientUnits="userSpaceOnUse" r="1"><stop offset="0" stop-color="#ffdf70"/><stop offset="1" stop-color="#ffdf70" stop-opacity="0"/></radialGradient><linearGradient id="ag" gradientUnits="userSpaceOnUse" x1="25.055" x2="25.055" y1="10.477" y2="12.82"><stop offset=".432" stop-color="#ffe7a3"/><stop offset="1" stop-color="#ffdf83" stop-opacity="0"/></linearGradient><linearGradient id="ah" gradientUnits="userSpaceOnUse" x1="18.625" x2="14.688" y1="20" y2="24.938"><stop offset="0" stop-color="#d68406"/><stop offset="1" stop-color="#dc8c10" stop-opacity="0"/></linearGradient><linearGradient id="ai" gradientUnits="userSpaceOnUse" x1="10.644" x2="10.815" y1="20.022" y2="25.852"><stop offset="0" stop-color="#da8503"/><stop offset="1" stop-color="#dc8c10" stop-opacity="0"/></linearGradient><radialGradient id="aj" cx="0" cy="0" gradientTransform="matrix(-1.03124992 6.12500231 -7.06816752 -1.19004808 20.6135 14.7188)" gradientUnits="userSpaceOnUse" r="1"><stop offset="0" stop-color="#f12e52"/><stop offset=".596" stop-color="#ff3b79"/><stop offset="1" stop-color="#ff4ec6"/></radialGradient><linearGradient id="ak"><stop offset=".635" stop-color="#ffa9bd" stop-opacity="0"/><stop offset=".834" stop-color="#ffa9bd"/></linearGradient><radialGradient id="al" cx="0" cy="0" gradientTransform="matrix(2.78125074 4.53125393 -7.14330463 4.38450848 20.5823 16.3438)" gradientUnits="userSpaceOnUse" r="1" xlink:href="#ak"/><linearGradient id="am"><stop offset=".767" stop-color="#ffa9bd" stop-opacity="0"/><stop offset=".933" stop-color="#ffa9bd"/></linearGradient><radialGradient id="an" cx="0" cy="0" gradientTransform="matrix(-4.85637426 2.31252329 -5.70798398 -11.98695234 22.2073 16.5625)" gradientUnits="userSpaceOnUse" r="1" xlink:href="#am"/><linearGradient id="ao"><stop offset=".649" stop-color="#ffa9bd" stop-opacity="0"/><stop offset=".91" stop-color="#ffa9bd"/></linearGradient><radialGradient id="ap" cx="0" cy="0" gradientTransform="matrix(-4.70312664 -3.89062646 5.75632075 -6.95844376 20.5823 17.4063)" gradientUnits="userSpaceOnUse" r="1" xlink:href="#ao"/><linearGradient id="aq"><stop offset="0" stop-color="#ff7d9c"/><stop offset="1" stop-color="#f9698b" stop-opacity="0"/></linearGradient><linearGradient id="ar" gradientUnits="userSpaceOnUse" x1="21.942" x2="18.988" xlink:href="#aq" y1="16" y2="11.984"/><linearGradient id="as" gradientUnits="userSpaceOnUse" x1="24.41" x2="23.239" xlink:href="#aq" y1="15.375" y2="15.16"/><linearGradient id="at" gradientUnits="userSpaceOnUse" x1="23.309" x2="22.83" xlink:href="#aq" y1="14.355" y2="14.406"/><linearGradient id="au" gradientUnits="userSpaceOnUse" x1="21.277" x2="20.629" y1="15.219" y2="17.531"><stop offset="0" stop-color="#ff99b1"/><stop offset="1" stop-color="#ff8aa6" stop-opacity="0"/></linearGradient><linearGradient id="av"><stop offset="0" stop-color="#ff365b"/><stop offset="1" stop-color="#e72044"/></linearGradient><linearGradient id="aw" gradientUnits="userSpaceOnUse" x1="21.145" x2="22.846" xlink:href="#av" y1="16.859" y2="14.28"/><linearGradient id="ax" gradientUnits="userSpaceOnUse" x1="18.55" x2="19.083" xlink:href="#av" y1="14.352" y2="13.19"/><radialGradient id="ay" cx="0" cy="0" gradientTransform="matrix(-1.78128674 5.96873848 -6.88784182 -2.05558031 11.8714 14.9765)" gradientUnits="userSpaceOnUse" r="1"><stop offset=".019" stop-color="#f12e52"/><stop offset=".596" stop-color="#ff3b79"/><stop offset="1" stop-color="#ff4ec6"/></radialGradient><radialGradient id="az" cx="0" cy="0" gradientTransform="matrix(-2.78122701 4.5312685 -7.14332759 -4.38447108 11.4177 16.3489)" gradientUnits="userSpaceOnUse" r="1" xlink:href="#ak"/><radialGradient id="aA" cx="0" cy="0" gradientTransform="matrix(4.85638637 2.31249786 -5.70792122 11.98698223 9.79272 16.5676)" gradientUnits="userSpaceOnUse" r="1" xlink:href="#am"/><radialGradient id="aB" cx="0" cy="0" gradientTransform="matrix(4.70312664 -3.89062646 5.75632075 6.95844376 11.4177 17.4114)" gradientUnits="userSpaceOnUse" r="1" xlink:href="#ao"/><linearGradient id="aC" gradientUnits="userSpaceOnUse" x1=".531" x2=".052" y1="-.094" y2="-.043"><stop offset="0" stop-color="#ffaabe"/><stop offset="1" stop-color="#f9698b" stop-opacity="0"/></linearGradient><linearGradient id="aD" gradientUnits="userSpaceOnUse" x1="14.012" x2="11.479" xlink:href="#aq" y1="13.898" y2="14.693"/><linearGradient id="aE" gradientUnits="userSpaceOnUse" x1="10.965" x2="8.803" y1="16.648" y2="15.09"><stop offset="0" stop-color="#f97292"/><stop offset="1" stop-color="#f46889" stop-opacity="0"/></linearGradient><linearGradient id="aF" gradientUnits="userSpaceOnUse" x1="12.635" x2="14.632" y1="18.001" y2="16.753"><stop offset="0" stop-color="#dd2345" stop-opacity="0"/><stop offset=".545" stop-color="#e72044"/><stop offset="1" stop-color="#d12847"/></linearGradient><path d="m4 25.942c0 2.2319 1.76327 4.058 3.91837 4.058h16.16323c2.1551 0 3.9184-1.9275 3.9184-4.1594v-19.4109c0-1.3-1.5901-1.9-2.4845-1l-4.5419 4.5703h-9.8119l-4.6617-4.5703c-.9-.9-2.5-.3-2.5 1z" fill="url(#I)"/><path d="m4 25.942c0 2.2319 1.76327 4.058 3.91837 4.058h16.16323c2.1551 0 3.9184-1.9275 3.9184-4.1594v-19.4109c0-1.3-1.5901-1.9-2.4845-1l-4.5419 4.5703h-9.8119l-4.6617-4.5703c-.9-.9-2.5-.3-2.5 1z" fill="url(#K)"/><path d="m4 25.942c0 2.2319 1.76327 4.058 3.91837 4.058h16.16323c2.1551 0 3.9184-1.9275 3.9184-4.1594v-19.4109c0-1.3-1.5901-1.9-2.4845-1l-4.5419 4.5703h-9.8119l-4.6617-4.5703c-.9-.9-2.5-.3-2.5 1z" fill="url(#L)"/><path d="m4 25.942c0 2.2319 1.76327 4.058 3.91837 4.058h16.16323c2.1551 0 3.9184-1.9275 3.9184-4.1594v-19.4109c0-1.3-1.5901-1.9-2.4845-1l-4.5419 4.5703h-9.8119l-4.6617-4.5703c-.9-.9-2.5-.3-2.5 1z" fill="url(#M)"/><path d="m4 25.942c0 2.2319 1.76327 4.058 3.91837 4.058h16.16323c2.1551 0 3.9184-1.9275 3.9184-4.1594v-19.4109c0-1.3-1.5901-1.9-2.4845-1l-4.5419 4.5703h-9.8119l-4.6617-4.5703c-.9-.9-2.5-.3-2.5 1z" fill="url(#N)"/><path d="m4 25.942c0 2.2319 1.76327 4.058 3.91837 4.058h16.16323c2.1551 0 3.9184-1.9275 3.9184-4.1594v-19.4109c0-1.3-1.5901-1.9-2.4845-1l-4.5419 4.5703h-9.8119l-4.6617-4.5703c-.9-.9-2.5-.3-2.5 1z" fill="url(#O)"/><g filter="url(#a)"><rect fill="#d67908" height="3.698" rx="1.363" width="2.727" x="5.054" y="21.82"/></g><g filter="url(#b)"><path d="m20.7508 10.2007c-2.9833.1075 5.2265 4.9537 5.2265 4.9537l1.125-9.06245c.0547-.46094-.3641-.95351-1.25-.13098 0 0-3.8265 3.76801-4.0136 3.95222s-.408.24891-.7016.28751c-.1496.0196-.2356-.0055-.3863 0z" fill="url(#P)"/></g><path d="m6.13258 13.5034 2.8-2.6c.32-.3.32-.78 0-1.06996l-3.01468-2.67718c-.38282-.33594-1.17532-.22656-1.17532.60718v5.19996c0 .8335.88 1.02 1.39.54z" fill="url(#Q)"/><g filter="url(#c)"><path d="m26.4909 5.65184c.0579-.14368.1973-.23778.3522-.23778.2098 0 .3798.17005.3798.37982v2.24518l-1.4174-.6875z" fill="url(#R)"/></g><g filter="url(#d)"><path d="m5.44611 5.72656 3.37496 3.21954c.75411.71938.76824 1.9185.03129 2.6555" stroke="#ffdf70" stroke-linecap="round"/></g><g filter="url(#e)"><path d="m14.8054 20.6502.0643-.015c.4736-.1104.9669-.1053 1.438.015.5211.0982.8322.6955.3922 1.1255l-.5508.6016c-.27.27-.8628.27-1.1328 0l-.5429-.6016c-.4493-.5078-.168-1.0156.332-1.1255z" fill="url(#S)"/></g><path d="m15.2265 20.2066.0643-.015c.4736-.1105.9669-.1054 1.4381.015.5211.0981.8321.6954.3921 1.1254l-.5507.6016c-.27.27-.8628.27-1.1328 0l-.543-.6016c-.4492-.5078-.168-1.0156.332-1.1254z" fill="url(#T)"/><g filter="url(#f)"><ellipse cx="16.27" cy="20.741" fill="url(#U)" rx=".762" ry=".274"/></g><g filter="url(#g)"><path d="m24.7851 22.8923 3.8047-1.8125" stroke="url(#V)" stroke-linecap="round" stroke-miterlimit="10" stroke-width="1.2"/></g><g filter="url(#h)"><path d="m24.7851 24.9235 1.9266 1.3656" stroke="url(#W)" stroke-linecap="round" stroke-miterlimit="10" stroke-width="1.2"/></g><path d="m25.5663 22.5391 3.8047-1.8125" stroke="url(#Y)" stroke-linecap="round" stroke-miterlimit="10" stroke-width="1.2"/><g filter="url(#i)"><path d="m25.5663 22.7109 3.8047-1.8125" stroke="#ff8485" stroke-linecap="round" stroke-miterlimit="10" stroke-width=".3"/></g><g filter="url(#j)"><ellipse cx="29.606" cy="20.581" fill="#ffdd86" rx=".184" ry=".166" transform="matrix(.92223134 -.38663853 .38663853 .92223134 -5.654842 13.047307)"/></g><path d="m25.5636 24.6692 3.8016 1.8191" stroke="url(#Z)" stroke-linecap="round" stroke-miterlimit="10" stroke-width="1.2"/><g filter="url(#k)"><path d="m25.4984 24.5491 3.8016 1.8191" stroke="#ff8485" stroke-linecap="round" stroke-miterlimit="10" stroke-width=".3"/></g><g filter="url(#l)"><ellipse cx="29.54" cy="26.368" fill="#ffdd86" rx=".184" ry=".166" transform="matrix(.88049307 .47405901 -.47405901 .88049307 16.030365 -10.85271)"/></g><path d="m6.5281 24.681-3.80156 1.819" stroke="url(#aa)" stroke-linecap="round" stroke-miterlimit="10" stroke-width="1.2"/><g filter="url(#m)"><path d="m6.59334 24.5608-3.80155 1.8191" stroke="#ff8485" stroke-linecap="round" stroke-miterlimit="10" stroke-width=".3"/></g><g filter="url(#n)"><ellipse fill="#ffdd86" rx=".184" ry=".166" transform="matrix(-.942776 -.333427 -.333427 .942776 6.64614 24.5049)"/></g><path d="m6.53973 22.5243-3.81358-1.7938" stroke="url(#ab)" stroke-linecap="round" stroke-miterlimit="10" stroke-width="1.2"/><g filter="url(#o)"><path d="m6.67403 22.4988-3.81357-1.7937" stroke="#ff8485" stroke-linecap="round" stroke-miterlimit="10" stroke-width=".3"/></g><g filter="url(#p)"><ellipse fill="#ffdd86" rx=".184" ry=".166" transform="matrix(-.338111 -.941106 -.941106 .338111 6.75078 22.5043)"/></g><path d="m20.4179 23.0547c0 2.44-1.9819 4.3359-4.4219 4.3359s-4.3125-1.9428-4.3125-4.3828c0 0 1.8047 2.1328 4.3125 0 2.3516 2.0781 4.4219.0469 4.4219.0469z" fill="url(#ac)"/><g filter="url(#q)"><path d="m22.1024 10.1016h4.5851v14.1857h-4.5851z" fill="url(#ad)"/></g><path d="m25.8329 13.5034-2.8-2.6c-.32-.3-.32-.78 0-1.06996l3.0147-2.67718c.3828-.33594 1.1753-.22656 1.1753.60718v5.19996c0 .8335-.88 1.02-1.39.54z" fill="#ffb915"/><path d="m25.8329 13.5034-2.8-2.6c-.32-.3-.32-.78 0-1.06996l3.0147-2.67718c.3828-.33594 1.1753-.22656 1.1753.60718v5.19996c0 .8335-.88 1.02-1.39.54z" fill="url(#ae)"/><g filter="url(#r)"><path d="m26.6336 7.36719-3.625 3.12501 3.5469 2.8125z" fill="url(#af)"/></g><g filter="url(#s)"><path d="m23.7274 10.2891 2.5312 2.7343" stroke="url(#ag)" stroke-linecap="round" stroke-width=".5"/></g><g filter="url(#t)"><path d="m5.22321 7.49927v5.90773l3.46875-3.0894z" fill="#feb33e"/></g><g filter="url(#u)"><path d="m5.22321 7.72656v5.18754" stroke="#ffe7a3" stroke-linecap="round" stroke-width=".15"/></g><g filter="url(#v)"><ellipse cx="21.539" cy="19.367" fill="#715167" rx=".164" ry=".227"/></g><g filter="url(#w)"><path d="m18.9419 21.5238c-.1314.0282-.2652-.021-.3526-.1231-.8006-.9355-2.0781-2.7532-2.218-4.6819-.289-2.4922 2.5625-3.461 3.7579-1.7032.1023.1505.2302.3525.3277.5358.0784.1472.2769.219.425.1423.2318-.12.5215-.2534.716-.3109 1.6498-.4874 3.7422 1.4688 1.8672 3.7188-.7653 1.0522-3.2979 2.1599-4.5232 2.4222z" fill="url(#ah)"/></g><g filter="url(#x)"><path d="m11.7869 20.893c-.0817.1068-.2163.1561-.349.1344-1.1255-.1839-3.09746-.704-4.34098-1.9737-1.69113-1.5841-.25931-3.9688 1.63232-3.4432.15481.043.35416.1052.52703.1726.1554.0606.35391-.0134.41798-.1674.09068-.218.21021-.4718.30942-.6229.87203-1.3283 3.51433-1.1982 3.53553 1.5068.0881 1.1926-1.0246 3.4685-1.7323 4.3934z" fill="url(#ai)"/></g><path d="m19.9419 20.5238c-.1314.0282-.2652-.021-.3526-.1231-.8006-.9355-2.0781-2.7532-2.218-4.6819-.289-2.4922 2.5625-3.461 3.7579-1.7032.1023.1505.2302.3525.3277.5358.0784.1472.2769.219.425.1423.2318-.12.5215-.2534.716-.3109 1.6498-.4874 3.7422 1.4688 1.8672 3.7188-.7653 1.0522-3.2979 2.1599-4.5232 2.4222z" fill="url(#aj)"/><path d="m19.9419 20.5238c-.1314.0282-.2652-.021-.3526-.1231-.8006-.9355-2.0781-2.7532-2.218-4.6819-.289-2.4922 2.5625-3.461 3.7579-1.7032.1023.1505.2302.3525.3277.5358.0784.1472.2769.219.425.1423.2318-.12.5215-.2534.716-.3109 1.6498-.4874 3.7422 1.4688 1.8672 3.7188-.7653 1.0522-3.2979 2.1599-4.5232 2.4222z" fill="url(#al)"/><path d="m19.9419 20.5238c-.1314.0282-.2652-.021-.3526-.1231-.8006-.9355-2.0781-2.7532-2.218-4.6819-.289-2.4922 2.5625-3.461 3.7579-1.7032.1023.1505.2302.3525.3277.5358.0784.1472.2769.219.425.1423.2318-.12.5215-.2534.716-.3109 1.6498-.4874 3.7422 1.4688 1.8672 3.7188-.7653 1.0522-3.2979 2.1599-4.5232 2.4222z" fill="url(#an)"/><path d="m19.9419 20.5238c-.1314.0282-.2652-.021-.3526-.1231-.8006-.9355-2.0781-2.7532-2.218-4.6819-.289-2.4922 2.5625-3.461 3.7579-1.7032.1023.1505.2302.3525.3277.5358.0784.1472.2769.219.425.1423.2318-.12.5215-.2534.716-.3109 1.6498-.4874 3.7422 1.4688 1.8672 3.7188-.7653 1.0522-3.2979 2.1599-4.5232 2.4222z" fill="url(#ap)"/><g filter="url(#y)"><path d="m20.6135 18.0312.7657-2.6562c-.125-.5781-.5938-1.3438-1.0313-1.5781l-1.0156 1.1093z" fill="url(#ar)"/></g><g filter="url(#z)"><path d="m22.8792 16.6328 1.414-1.5156c.4125.3.5703.8125.5703 1.0547z" fill="url(#as)"/></g><g filter="url(#A)"><ellipse cx="23.16" cy="14.695" fill="url(#at)" rx=".383" ry=".246"/></g><g filter="url(#B)"><path d="m21.2773 15.3125-.6481 1.9219" stroke="url(#au)" stroke-linecap="round" stroke-width=".2"/></g><g filter="url(#C)"><path d="m21.8167 15.1719-.9844 2.7343 3.0312-2.7343c-1.0125-.5875-1.7864-.2448-2.0468 0z" fill="url(#aw)"/></g><g filter="url(#D)"><path d="m20.3401 13.7969-1.2266 1.2656-.7343-1.0156c.6718-.7735 1.7057-.4532 1.9609-.25z" fill="url(#ax)"/></g><path d="m12.0581 20.5289c.1314.0282.2652-.021.3526-.1231.8006-.9355 2.0781-2.7532 2.218-4.6819.289-2.4922-2.5625-3.4609-3.7579-1.7031-.1023.1505-.2302.3524-.3277.5357-.0784.1472-.2769.219-.425.1423-.23181-.12-.5215-.2534-.71601-.3108-1.64983-.4875-3.74218 1.4687-1.86718 3.7187.76527 1.0522 3.29789 2.16 4.52319 2.4222z" fill="url(#ay)"/><path d="m12.0581 20.5289c.1314.0282.2652-.021.3526-.1231.8006-.9355 2.0781-2.7532 2.218-4.6819.289-2.4922-2.5625-3.4609-3.7579-1.7031-.1023.1505-.2302.3524-.3277.5357-.0784.1472-.2769.219-.425.1423-.23181-.12-.5215-.2534-.71601-.3108-1.64983-.4875-3.74218 1.4687-1.86718 3.7187.76527 1.0522 3.29789 2.16 4.52319 2.4222z" fill="url(#az)"/><path d="m12.0581 20.5289c.1314.0282.2652-.021.3526-.1231.8006-.9355 2.0781-2.7532 2.218-4.6819.289-2.4922-2.5625-3.4609-3.7579-1.7031-.1023.1505-.2302.3524-.3277.5357-.0784.1472-.2769.219-.425.1423-.23181-.12-.5215-.2534-.71601-.3108-1.64983-.4875-3.74218 1.4687-1.86718 3.7187.76527 1.0522 3.29789 2.16 4.52319 2.4222z" fill="url(#aA)"/><path d="m12.0581 20.5289c.1314.0282.2652-.021.3526-.1231.8006-.9355 2.0781-2.7532 2.218-4.6819.289-2.4922-2.5625-3.4609-3.7579-1.7031-.1023.1505-.2302.3524-.3277.5357-.0784.1472-.2769.219-.425.1423-.23181-.12-.5215-.2534-.71601-.3108-1.64983-.4875-3.74218 1.4687-1.86718 3.7187.76527 1.0522 3.29789 2.16 4.52319 2.4222z" fill="url(#aB)"/><g filter="url(#E)"><ellipse fill="url(#aC)" rx=".383" ry=".246" transform="matrix(-.997701 -.0677696 -.0677696 .997701 12.5583 13.5306)"/></g><g filter="url(#F)"><path d="m12.762 14.9297.7187-1.1406c.3906.2656.6719.75.6719 1.3281l-1.1875.4219z" fill="url(#aD)"/></g><g filter="url(#G)"><path d="m10.4182 15.8203.8125 2.0469-2.73436-2.0469c.60937-1.2656 1.73436-.6094 1.92186 0z" fill="url(#aE)"/></g><g filter="url(#H)"><path d="m13.9807 15.5859c-.0625.5417-.45 2.0344-1.5 3.6719" stroke="url(#aF)" stroke-linecap="round" stroke-width=".25"/></g></svg>