<svg fill="none" height="32" viewBox="0 0 32 32" width="32" xmlns="http://www.w3.org/2000/svg" xmlns:xlink="http://www.w3.org/1999/xlink"><filter id="a" color-interpolation-filters="sRGB" filterUnits="userSpaceOnUse" height="6.698" width="5.727" x="3.554" y="20.32"><feFlood flood-opacity="0" result="BackgroundImageFix"/><feBlend in="SourceGraphic" in2="BackgroundImageFix" mode="normal" result="shape"/><feGaussianBlur result="effect1_foregroundBlur_6893_5267" stdDeviation=".75"/></filter><filter id="b" color-interpolation-filters="sRGB" filterUnits="userSpaceOnUse" height="11.636" width="9.009" x="19.098" y="4.519"><feFlood flood-opacity="0" result="BackgroundImageFix"/><feBlend in="SourceGraphic" in2="BackgroundImageFix" mode="normal" result="shape"/><feGaussianBlur result="effect1_foregroundBlur_6893_5267" stdDeviation=".5"/></filter><filter id="c" color-interpolation-filters="sRGB" filterUnits="userSpaceOnUse" height="4.625" width="3.417" x="24.805" y="4.414"><feFlood flood-opacity="0" result="BackgroundImageFix"/><feBlend in="SourceGraphic" in2="BackgroundImageFix" mode="normal" result="shape"/><feGaussianBlur result="effect1_foregroundBlur_6893_5267" stdDeviation=".5"/></filter><filter id="d" color-interpolation-filters="sRGB" filterUnits="userSpaceOnUse" height="10.729" width="8.95" x="2.946" y="3.227"><feFlood flood-opacity="0" result="BackgroundImageFix"/><feBlend in="SourceGraphic" in2="BackgroundImageFix" mode="normal" result="shape"/><feGaussianBlur result="effect1_foregroundBlur_6893_5267" stdDeviation="1"/></filter><filter id="e" color-interpolation-filters="sRGB" filterUnits="userSpaceOnUse" height="3.024" width="3.661" x="13.748" y="20.056"><feFlood flood-opacity="0" result="BackgroundImageFix"/><feBlend in="SourceGraphic" in2="BackgroundImageFix" mode="normal" result="shape"/><feGaussianBlur result="effect1_foregroundBlur_6893_5267" stdDeviation=".25"/></filter><filter id="f" color-interpolation-filters="sRGB" filterUnits="userSpaceOnUse" height="1.749" width="2.723" x="14.909" y="19.867"><feFlood flood-opacity="0" result="BackgroundImageFix"/><feBlend in="SourceGraphic" in2="BackgroundImageFix" mode="normal" result="shape"/><feGaussianBlur result="effect1_foregroundBlur_6893_5267" stdDeviation=".3"/></filter><filter id="g" color-interpolation-filters="sRGB" filterUnits="userSpaceOnUse" height="4.013" width="6.005" x="23.685" y="19.98"><feFlood flood-opacity="0" result="BackgroundImageFix"/><feBlend in="SourceGraphic" in2="BackgroundImageFix" mode="normal" result="shape"/><feGaussianBlur result="effect1_foregroundBlur_6893_5267" stdDeviation=".25"/></filter><filter id="h" color-interpolation-filters="sRGB" filterUnits="userSpaceOnUse" height="3.566" width="4.127" x="23.685" y="23.823"><feFlood flood-opacity="0" result="BackgroundImageFix"/><feBlend in="SourceGraphic" in2="BackgroundImageFix" mode="normal" result="shape"/><feGaussianBlur result="effect1_foregroundBlur_6893_5267" stdDeviation=".25"/></filter><filter id="i" color-interpolation-filters="sRGB" filterUnits="userSpaceOnUse" height="3.113" width="5.105" x="24.916" y="20.248"><feFlood flood-opacity="0" result="BackgroundImageFix"/><feBlend in="SourceGraphic" in2="BackgroundImageFix" mode="normal" result="shape"/><feGaussianBlur result="effect1_foregroundBlur_6893_5267" stdDeviation=".25"/></filter><filter id="j" color-interpolation-filters="sRGB" filterUnits="userSpaceOnUse" height="1.337" width="1.363" x="28.924" y="19.912"><feFlood flood-opacity="0" result="BackgroundImageFix"/><feBlend in="SourceGraphic" in2="BackgroundImageFix" mode="normal" result="shape"/><feGaussianBlur result="effect1_foregroundBlur_6893_5267" stdDeviation=".25"/></filter><filter id="k" color-interpolation-filters="sRGB" filterUnits="userSpaceOnUse" height="3.119" width="5.102" x="24.848" y="23.899"><feFlood flood-opacity="0" result="BackgroundImageFix"/><feBlend in="SourceGraphic" in2="BackgroundImageFix" mode="normal" result="shape"/><feGaussianBlur result="effect1_foregroundBlur_6893_5267" stdDeviation=".25"/></filter><filter id="l" color-interpolation-filters="sRGB" filterUnits="userSpaceOnUse" height="1.34" width="1.36" x="28.86" y="25.698"><feFlood flood-opacity="0" result="BackgroundImageFix"/><feBlend in="SourceGraphic" in2="BackgroundImageFix" mode="normal" result="shape"/><feGaussianBlur result="effect1_foregroundBlur_6893_5267" stdDeviation=".25"/></filter><filter id="m" color-interpolation-filters="sRGB" filterUnits="userSpaceOnUse" height="3.119" width="5.102" x="2.142" y="23.911"><feFlood flood-opacity="0" result="BackgroundImageFix"/><feBlend in="SourceGraphic" in2="BackgroundImageFix" mode="normal" result="shape"/><feGaussianBlur result="effect1_foregroundBlur_6893_5267" stdDeviation=".25"/></filter><filter id="n" color-interpolation-filters="sRGB" filterUnits="userSpaceOnUse" height="1.336" width="1.364" x="5.964" y="23.837"><feFlood flood-opacity="0" result="BackgroundImageFix"/><feBlend in="SourceGraphic" in2="BackgroundImageFix" mode="normal" result="shape"/><feGaussianBlur result="effect1_foregroundBlur_6893_5267" stdDeviation=".25"/></filter><filter id="o" color-interpolation-filters="sRGB" filterUnits="userSpaceOnUse" height="3.094" width="5.114" x="2.21" y="20.055"><feFlood flood-opacity="0" result="BackgroundImageFix"/><feBlend in="SourceGraphic" in2="BackgroundImageFix" mode="normal" result="shape"/><feGaussianBlur result="effect1_foregroundBlur_6893_5267" stdDeviation=".25"/></filter><filter id="p" color-interpolation-filters="sRGB" filterUnits="userSpaceOnUse" height="1.364" width="1.336" x="6.083" y="21.822"><feFlood flood-opacity="0" result="BackgroundImageFix"/><feBlend in="SourceGraphic" in2="BackgroundImageFix" mode="normal" result="shape"/><feGaussianBlur result="effect1_foregroundBlur_6893_5267" stdDeviation=".25"/></filter><filter id="q" color-interpolation-filters="sRGB" filterUnits="userSpaceOnUse" height="22.186" width="12.585" x="18.102" y="6.102"><feFlood flood-opacity="0" result="BackgroundImageFix"/><feBlend in="SourceGraphic" in2="BackgroundImageFix" mode="normal" result="shape"/><feGaussianBlur result="effect1_foregroundBlur_6893_5267" stdDeviation="2"/></filter><filter id="r" color-interpolation-filters="sRGB" filterUnits="userSpaceOnUse" height="7.138" width="4.825" x="22.409" y="6.767"><feFlood flood-opacity="0" result="BackgroundImageFix"/><feBlend in="SourceGraphic" in2="BackgroundImageFix" mode="normal" result="shape"/><feGaussianBlur result="effect1_foregroundBlur_6893_5267" stdDeviation=".3"/></filter><filter id="s" color-interpolation-filters="sRGB" filterUnits="userSpaceOnUse" height="4.734" width="4.531" x="22.727" y="9.289"><feFlood flood-opacity="0" result="BackgroundImageFix"/><feBlend in="SourceGraphic" in2="BackgroundImageFix" mode="normal" result="shape"/><feGaussianBlur result="effect1_foregroundBlur_6893_5267" stdDeviation=".375"/></filter><filter id="t" color-interpolation-filters="sRGB" filterUnits="userSpaceOnUse" height="6.908" width="4.469" x="4.723" y="6.999"><feFlood flood-opacity="0" result="BackgroundImageFix"/><feBlend in="SourceGraphic" in2="BackgroundImageFix" mode="normal" result="shape"/><feGaussianBlur result="effect1_foregroundBlur_6893_5267" stdDeviation=".25"/></filter><filter id="u" color-interpolation-filters="sRGB" filterUnits="userSpaceOnUse" height="6.338" width="1.15" x="4.648" y="7.152"><feFlood flood-opacity="0" result="BackgroundImageFix"/><feBlend in="SourceGraphic" in2="BackgroundImageFix" mode="normal" result="shape"/><feGaussianBlur result="effect1_foregroundBlur_6893_5267" stdDeviation=".25"/></filter><filter id="v" color-interpolation-filters="sRGB" filterUnits="userSpaceOnUse" height="3.345" width="4.83" x="9.273" y="17.468"><feFlood flood-opacity="0" result="BackgroundImageFix"/><feBlend in="SourceGraphic" in2="BackgroundImageFix" mode="normal" result="shape"/><feGaussianBlur result="effect1_foregroundBlur_6893_5267" stdDeviation=".2"/></filter><filter id="w" color-interpolation-filters="sRGB" filterUnits="userSpaceOnUse" height="3.345" width="4.83" x="17.241" y="17.468"><feFlood flood-opacity="0" result="BackgroundImageFix"/><feBlend in="SourceGraphic" in2="BackgroundImageFix" mode="normal" result="shape"/><feGaussianBlur result="effect1_foregroundBlur_6893_5267" stdDeviation=".2"/></filter><filter id="x" color-interpolation-filters="sRGB" filterUnits="userSpaceOnUse" height="1.253" width="1.128" x="20.975" y="18.741"><feFlood flood-opacity="0" result="BackgroundImageFix"/><feBlend in="SourceGraphic" in2="BackgroundImageFix" mode="normal" result="shape"/><feGaussianBlur result="effect1_foregroundBlur_6893_5267" stdDeviation=".2"/></filter><filter id="y" color-interpolation-filters="sRGB" filterUnits="userSpaceOnUse" height="1.253" width="1.128" x="13.081" y="18.741"><feFlood flood-opacity="0" result="BackgroundImageFix"/><feBlend in="SourceGraphic" in2="BackgroundImageFix" mode="normal" result="shape"/><feGaussianBlur result="effect1_foregroundBlur_6893_5267" stdDeviation=".2"/></filter><linearGradient id="z" gradientUnits="userSpaceOnUse" x1="7.907" x2="7.907" y1="1.35" y2="30.99"><stop offset=".288" stop-color="#f2cc26"/><stop offset=".762" stop-color="#e99e20"/><stop offset=".993" stop-color="#e3821d"/><stop offset="1" stop-color="#e3801d"/></linearGradient><linearGradient id="A"><stop offset="0" stop-color="#e99e20" stop-opacity="0"/><stop offset=".993" stop-color="#e3821d"/><stop offset="1" stop-color="#e3801d"/></linearGradient><linearGradient id="B" gradientUnits="userSpaceOnUse" x1="8.831" x2="1.17" xlink:href="#A" y1="12.033" y2="12.033"/><linearGradient id="C" gradientUnits="userSpaceOnUse" x1="26.791" x2="30.245" xlink:href="#A" y1="12.033" y2="12.033"/><linearGradient id="D" gradientUnits="userSpaceOnUse" x1="16.001" x2="16" y1="-1.595" y2="30.99"><stop offset=".771" stop-color="#f59639" stop-opacity="0"/><stop offset="1" stop-color="#ff63c4"/></linearGradient><linearGradient id="E" gradientUnits="userSpaceOnUse" x1="16" x2="16" y1="11.252" y2="32.475"><stop offset=".854" stop-color="#fff" stop-opacity="0"/><stop offset=".985" stop-color="#fff"/></linearGradient><radialGradient id="F" cx="0" cy="0" gradientTransform="matrix(3.04568928 4.42400808 -8.78922202 6.05090198 22.1755 4.47688)" gradientUnits="userSpaceOnUse" r="1"><stop offset="0" stop-color="#ffa720"/><stop offset=".921" stop-color="#ffa720" stop-opacity="0"/></radialGradient><linearGradient id="G" gradientUnits="userSpaceOnUse" x1="21.908" x2="28.165" y1="6.852" y2="13.695"><stop offset="0" stop-color="#ffa720"/><stop offset="1" stop-color="#ffa720" stop-opacity="0"/></linearGradient><linearGradient id="H" gradientUnits="userSpaceOnUse" x1="10.602" x2="4.743" y1="10.617" y2="10.07"><stop offset=".437" stop-color="#ed8c1b"/><stop offset="1" stop-color="#ffb03a"/></linearGradient><linearGradient id="I" gradientUnits="userSpaceOnUse" x1="27.04" x2="26.444" y1="4.961" y2="7.302"><stop offset=".286" stop-color="#ffe792"/><stop offset="1" stop-color="#ffdd65" stop-opacity="0"/></linearGradient><linearGradient id="J" gradientUnits="userSpaceOnUse" x1="15.751" x2="15.079" y1="22.351" y2="23.445"><stop offset="0" stop-color="#e3900e"/><stop offset="1" stop-color="#ea9d26" stop-opacity="0"/></linearGradient><radialGradient id="K" cx="0" cy="0" gradientTransform="matrix(-1.89062885 -.95312092 .95875693 -1.90180855 16.4461 21.1797)" gradientUnits="userSpaceOnUse" r="1"><stop offset="0" stop-color="#ea088b"/><stop offset="1" stop-color="#e61e27"/></radialGradient><linearGradient id="L" gradientUnits="userSpaceOnUse" x1="17.204" x2="15.68" y1="20.741" y2="20.741"><stop offset="0" stop-color="#fff" stop-opacity=".9"/><stop offset="1" stop-color="#fff" stop-opacity="0"/></linearGradient><linearGradient id="M" gradientUnits="userSpaceOnUse" x1="24.29" x2="28.024" y1="23.236" y2="21.32"><stop offset="0" stop-color="#e88105"/><stop offset="1" stop-color="#e37d02" stop-opacity="0"/></linearGradient><linearGradient id="N" gradientUnits="userSpaceOnUse" x1="24.29" x2="28.024" y1="24.58" y2="26.495"><stop offset=".286" stop-color="#de7d07"/><stop offset=".818" stop-color="#e37d02" stop-opacity="0"/></linearGradient><linearGradient id="O"><stop offset=".156" stop-color="#d64a38"/><stop offset="1" stop-color="#fb7425"/></linearGradient><linearGradient id="P" gradientUnits="userSpaceOnUse" x1="25.29" x2="29.371" xlink:href="#O" y1="22.945" y2="21.008"/><linearGradient id="Q" gradientUnits="userSpaceOnUse" x1="25.074" x2="29.146" xlink:href="#O" y1="24.71" y2="26.665"/><linearGradient id="R" gradientUnits="userSpaceOnUse" x1="7.018" x2="2.945" xlink:href="#O" y1="24.721" y2="26.677"/><linearGradient id="S" gradientUnits="userSpaceOnUse" x1="6.818" x2="2.728" xlink:href="#O" y1="22.929" y2="21.012"/><linearGradient id="T" gradientUnits="userSpaceOnUse" x1="16.047" x2="16.047" y1="27.523" y2="23.1"><stop offset="0" stop-color="#e61e27"/><stop offset="1" stop-color="#672a7a"/></linearGradient><linearGradient id="U" gradientUnits="userSpaceOnUse" x1="23.352" x2="22.956" y1="10.838" y2="22.889"><stop offset=".548" stop-color="#ffdd65"/><stop offset="1" stop-color="#ffdd65" stop-opacity="0"/></linearGradient><linearGradient id="V" gradientUnits="userSpaceOnUse" x1="26.54" x2="25.29" y1="15.508" y2="12.039"><stop offset="0" stop-color="#ef8a47"/><stop offset="1" stop-color="#ef8a47" stop-opacity="0"/></linearGradient><radialGradient id="W" cx="0" cy="0" gradientTransform="matrix(4.40624866 6.46874874 -7.75589325 5.28299918 22.868 7.77344)" gradientUnits="userSpaceOnUse" r="1"><stop offset="0" stop-color="#ffdf70"/><stop offset="1" stop-color="#ffdf70" stop-opacity="0"/></radialGradient><linearGradient id="X" gradientUnits="userSpaceOnUse" x1="25.055" x2="25.055" y1="10.477" y2="12.82"><stop offset=".432" stop-color="#ffe7a3"/><stop offset="1" stop-color="#ffdf83" stop-opacity="0"/></linearGradient><linearGradient id="Y"><stop offset="0" stop-color="#ec9611"/><stop offset="1" stop-color="#ea9d26" stop-opacity="0"/></linearGradient><linearGradient id="Z" gradientUnits="userSpaceOnUse" x1="14.953" x2="15.263" xlink:href="#Y" y1="19.731" y2="22.947"/><linearGradient id="aa" gradientUnits="userSpaceOnUse" x1="22.922" x2="23.232" xlink:href="#Y" y1="19.731" y2="22.947"/><linearGradient id="ab"><stop offset=".167" stop-color="#482641"/><stop offset=".276" stop-color="#594253"/><stop offset=".401" stop-color="#483637"/></linearGradient><radialGradient id="ac" cx="0" cy="0" gradientTransform="matrix(-.1098581 -5.75866221 5.75788235 -.10984322 12.0156 19.5886)" gradientUnits="userSpaceOnUse" r="1" xlink:href="#ab"/><linearGradient id="ad"><stop offset="0" stop-color="#271b27"/><stop offset="1" stop-color="#483637" stop-opacity="0"/></linearGradient><linearGradient id="ae" gradientUnits="userSpaceOnUse" x1="9.984" x2="11.75" xlink:href="#ad" y1="20.141" y2="18.859"/><radialGradient id="af" cx="0" cy="0" gradientTransform="matrix(-.1098581 -5.75866221 5.75788235 -.10984322 19.9844 19.5886)" gradientUnits="userSpaceOnUse" r="1" xlink:href="#ab"/><linearGradient id="ag" gradientUnits="userSpaceOnUse" x1="17.953" x2="19.719" xlink:href="#ad" y1="20.141" y2="18.859"/><path d="m4 25.942c0 2.2319 1.76327 4.058 3.91837 4.058h16.16323c2.1551 0 3.9184-1.9275 3.9184-4.1594v-19.4109c0-1.3-1.5901-1.9-2.4845-1l-4.5419 4.5703h-9.8119l-4.6617-4.5703c-.9-.9-2.5-.3-2.5 1z" fill="url(#z)"/><path d="m4 25.942c0 2.2319 1.76327 4.058 3.91837 4.058h16.16323c2.1551 0 3.9184-1.9275 3.9184-4.1594v-19.4109c0-1.3-1.5901-1.9-2.4845-1l-4.5419 4.5703h-9.8119l-4.6617-4.5703c-.9-.9-2.5-.3-2.5 1z" fill="url(#B)"/><path d="m4 25.942c0 2.2319 1.76327 4.058 3.91837 4.058h16.16323c2.1551 0 3.9184-1.9275 3.9184-4.1594v-19.4109c0-1.3-1.5901-1.9-2.4845-1l-4.5419 4.5703h-9.8119l-4.6617-4.5703c-.9-.9-2.5-.3-2.5 1z" fill="url(#C)"/><path d="m4 25.942c0 2.2319 1.76327 4.058 3.91837 4.058h16.16323c2.1551 0 3.9184-1.9275 3.9184-4.1594v-19.4109c0-1.3-1.5901-1.9-2.4845-1l-4.5419 4.5703h-9.8119l-4.6617-4.5703c-.9-.9-2.5-.3-2.5 1z" fill="url(#D)"/><path d="m4 25.942c0 2.2319 1.76327 4.058 3.91837 4.058h16.16323c2.1551 0 3.9184-1.9275 3.9184-4.1594v-19.4109c0-1.3-1.5901-1.9-2.4845-1l-4.5419 4.5703h-9.8119l-4.6617-4.5703c-.9-.9-2.5-.3-2.5 1z" fill="url(#E)"/><path d="m4 25.942c0 2.2319 1.76327 4.058 3.91837 4.058h16.16323c2.1551 0 3.9184-1.9275 3.9184-4.1594v-19.4109c0-1.3-1.5901-1.9-2.4845-1l-4.5419 4.5703h-9.8119l-4.6617-4.5703c-.9-.9-2.5-.3-2.5 1z" fill="url(#F)"/><g filter="url(#a)"><rect fill="#d67908" height="3.698" rx="1.363" width="2.727" x="5.054" y="21.82"/></g><g filter="url(#b)"><path d="m20.7508 10.2007c-2.9833.1075 5.2265 4.9537 5.2265 4.9537l1.125-9.06245c.0547-.46094-.3641-.95351-1.25-.13098 0 0-3.8265 3.76801-4.0136 3.95222s-.408.24891-.7016.28751c-.1496.0196-.2356-.0055-.3863 0z" fill="url(#G)"/></g><path d="m6.13258 13.5034 2.8-2.6c.32-.3.32-.78 0-1.06996l-3.01468-2.67718c-.38282-.33594-1.17532-.22656-1.17532.60718v5.19996c0 .8335.88 1.02 1.39.54z" fill="url(#H)"/><g filter="url(#c)"><path d="m26.4909 5.65184c.0579-.14368.1973-.23778.3522-.23778.2098 0 .3798.17005.3798.37982v2.24518l-1.4174-.6875z" fill="url(#I)"/></g><g filter="url(#d)"><path d="m5.44611 5.72656 3.37496 3.21954c.75411.71938.76824 1.9185.03129 2.6555" stroke="#ffdf70" stroke-linecap="round"/></g><g filter="url(#e)"><path d="m14.8054 20.6502.0643-.015c.4736-.1104.9669-.1053 1.438.015.5211.0982.8322.6955.3922 1.1255l-.5508.6016c-.27.27-.8628.27-1.1328 0l-.5429-.6016c-.4493-.5078-.168-1.0156.332-1.1255z" fill="url(#J)"/></g><path d="m15.2265 20.2066.0643-.015c.4736-.1105.9669-.1054 1.4381.015.5211.0981.8321.6954.3921 1.1254l-.5507.6016c-.27.27-.8628.27-1.1328 0l-.543-.6016c-.4492-.5078-.168-1.0156.332-1.1254z" fill="url(#K)"/><g filter="url(#f)"><ellipse cx="16.27" cy="20.741" fill="url(#L)" rx=".762" ry=".274"/></g><g filter="url(#g)"><path d="m24.7851 22.8923 3.8047-1.8125" stroke="url(#M)" stroke-linecap="round" stroke-miterlimit="10" stroke-width="1.2"/></g><g filter="url(#h)"><path d="m24.7851 24.9235 1.9266 1.3656" stroke="url(#N)" stroke-linecap="round" stroke-miterlimit="10" stroke-width="1.2"/></g><path d="m25.5663 22.5391 3.8047-1.8125" stroke="url(#P)" stroke-linecap="round" stroke-miterlimit="10" stroke-width="1.2"/><g filter="url(#i)"><path d="m25.5663 22.7109 3.8047-1.8125" stroke="#ff8485" stroke-linecap="round" stroke-miterlimit="10" stroke-width=".3"/></g><g filter="url(#j)"><ellipse cx="29.606" cy="20.581" fill="#ffdd86" rx=".184" ry=".166" transform="matrix(.92223134 -.38663853 .38663853 .92223134 -5.654842 13.047307)"/></g><path d="m25.5636 24.6692 3.8016 1.8191" stroke="url(#Q)" stroke-linecap="round" stroke-miterlimit="10" stroke-width="1.2"/><g filter="url(#k)"><path d="m25.4984 24.5491 3.8016 1.8191" stroke="#ff8485" stroke-linecap="round" stroke-miterlimit="10" stroke-width=".3"/></g><g filter="url(#l)"><ellipse cx="29.54" cy="26.368" fill="#ffdd86" rx=".184" ry=".166" transform="matrix(.88049307 .47405901 -.47405901 .88049307 16.030365 -10.85271)"/></g><path d="m6.5281 24.681-3.80156 1.819" stroke="url(#R)" stroke-linecap="round" stroke-miterlimit="10" stroke-width="1.2"/><g filter="url(#m)"><path d="m6.59334 24.5608-3.80155 1.8191" stroke="#ff8485" stroke-linecap="round" stroke-miterlimit="10" stroke-width=".3"/></g><g filter="url(#n)"><ellipse fill="#ffdd86" rx=".184" ry=".166" transform="matrix(-.942776 -.333427 -.333427 .942776 6.64614 24.5049)"/></g><path d="m6.53973 22.5243-3.81358-1.7937" stroke="url(#S)" stroke-linecap="round" stroke-miterlimit="10" stroke-width="1.2"/><g filter="url(#o)"><path d="m6.67403 22.4988-3.81357-1.7937" stroke="#ff8485" stroke-linecap="round" stroke-miterlimit="10" stroke-width=".3"/></g><g filter="url(#p)"><ellipse fill="#ffdd86" rx=".184" ry=".166" transform="matrix(-.338111 -.941106 -.941106 .338111 6.75078 22.5043)"/></g><path d="m20.4179 23.0547c0 2.44-1.9819 4.3359-4.4219 4.3359s-4.3125-1.9428-4.3125-4.3828c0 0 1.8047 2.1328 4.3125 0 2.3516 2.0781 4.4219.0469 4.4219.0469z" fill="url(#T)"/><g filter="url(#q)"><path d="m22.1024 10.1016h4.5851v14.1857h-4.5851z" fill="url(#U)"/></g><path d="m25.8329 13.5034-2.8-2.6c-.32-.3-.32-.78 0-1.06996l3.0147-2.67718c.3828-.33594 1.1753-.22656 1.1753.60718v5.19996c0 .8335-.88 1.02-1.39.54z" fill="#ffb915"/><path d="m25.8329 13.5034-2.8-2.6c-.32-.3-.32-.78 0-1.06996l3.0147-2.67718c.3828-.33594 1.1753-.22656 1.1753.60718v5.19996c0 .8335-.88 1.02-1.39.54z" fill="url(#V)"/><g filter="url(#r)"><path d="m26.6336 7.36719-3.625 3.12501 3.5469 2.8125z" fill="url(#W)"/></g><g filter="url(#s)"><path d="m23.7274 10.2891 2.5312 2.7343" stroke="url(#X)" stroke-linecap="round" stroke-width=".5"/></g><g filter="url(#t)"><path d="m5.22321 7.49927v5.90773l3.46875-3.0894z" fill="#feb33e"/></g><g filter="url(#u)"><path d="m5.22321 7.72656v5.18754" stroke="#ffe7a3" stroke-linecap="round" stroke-width=".15"/></g><g filter="url(#v)"><path clip-rule="evenodd" d="m10.9757 19.2763c-.141.1854-.1986.4211-.2034.5661-.01.3035-.2642.5415-.5678.5315-.30357-.01-.54157-.2642-.53156-.5678.01085-.329.12361-.7965.42716-1.1956.322-.4235.8407-.7425 1.5757-.7425.7424 0 1.266.335 1.59.7629.3062.4042.4289.8807.4364 1.2203.0067.3037-.2341.5553-.5378.562-.3037.0066-.5553-.2341-.5619-.5378-.003-.1344-.0622-.3806-.2136-.5804-.1336-.1764-.3431-.327-.7131-.327-.3775 0-.5776.1471-.7001.3083z" fill="url(#Z)" fill-rule="evenodd"/></g><g filter="url(#w)"><path clip-rule="evenodd" d="m18.9445 19.2763c-.141.1854-.1986.4211-.2034.5661-.01.3035-.2642.5415-.5678.5315s-.5416-.2642-.5316-.5678c.0109-.329.1236-.7965.4271-1.1956.3221-.4235.8407-.7425 1.5757-.7425.7425 0 1.266.335 1.5901.7629.3061.4042.4289.8807.4364 1.2203.0067.3037-.2341.5553-.5378.562-.3037.0066-.5553-.2341-.562-.5378-.0029-.1344-.0622-.3806-.2135-.5804-.1336-.1764-.3431-.327-.7132-.327-.3774 0-.5775.1471-.7.3083z" fill="url(#aa)" fill-rule="evenodd"/></g><g stroke-linecap="round" stroke-width="1.1"><path d="m10.5508 19.4141c.0156-.474.3406-1.4063 1.4531-1.4063s1.4662.9714 1.4766 1.4453" stroke="url(#ac)"/><path d="m10.5508 19.4141c.0156-.474.3406-1.4063 1.4531-1.4063s1.4662.9714 1.4766 1.4453" stroke="url(#ae)"/><path d="m18.5195 19.4141c.0157-.474.3407-1.4063 1.4532-1.4063s1.4661.9714 1.4765 1.4453" stroke="url(#af)"/><path d="m18.5195 19.4141c.0157-.474.3407-1.4063 1.4532-1.4063s1.4661.9714 1.4765 1.4453" stroke="url(#ag)"/></g><g filter="url(#x)"><ellipse cx="21.539" cy="19.367" fill="#715167" rx=".164" ry=".227"/></g><g filter="url(#y)"><ellipse cx="13.645" cy="19.367" fill="#715167" rx=".164" ry=".227"/></g></svg>