<svg fill="none" height="32" viewBox="0 0 32 32" width="32" xmlns="http://www.w3.org/2000/svg" xmlns:xlink="http://www.w3.org/1999/xlink"><filter id="a" color-interpolation-filters="sRGB" filterUnits="userSpaceOnUse" height="6.698" width="5.727" x="3.554" y="20.25"><feFlood flood-opacity="0" result="BackgroundImageFix"/><feBlend in="SourceGraphic" in2="BackgroundImageFix" mode="normal" result="shape"/><feGaussianBlur result="effect1_foregroundBlur_6903_5272" stdDeviation=".75"/></filter><filter id="b" color-interpolation-filters="sRGB" filterUnits="userSpaceOnUse" height="11.636" width="9.009" x="18.933" y="4.483"><feFlood flood-opacity="0" result="BackgroundImageFix"/><feBlend in="SourceGraphic" in2="BackgroundImageFix" mode="normal" result="shape"/><feGaussianBlur result="effect1_foregroundBlur_6903_5272" stdDeviation=".5"/></filter><filter id="c" color-interpolation-filters="sRGB" filterUnits="userSpaceOnUse" height="4.625" width="3.417" x="24.805" y="4.344"><feFlood flood-opacity="0" result="BackgroundImageFix"/><feBlend in="SourceGraphic" in2="BackgroundImageFix" mode="normal" result="shape"/><feGaussianBlur result="effect1_foregroundBlur_6903_5272" stdDeviation=".5"/></filter><filter id="d" color-interpolation-filters="sRGB" filterUnits="userSpaceOnUse" height="10.729" width="8.95" x="2.906" y="3.563"><feFlood flood-opacity="0" result="BackgroundImageFix"/><feBlend in="SourceGraphic" in2="BackgroundImageFix" mode="normal" result="shape"/><feGaussianBlur result="effect1_foregroundBlur_6903_5272" stdDeviation="1"/></filter><filter id="e" color-interpolation-filters="sRGB" filterUnits="userSpaceOnUse" height="3.024" width="3.661" x="13.748" y="18.968"><feFlood flood-opacity="0" result="BackgroundImageFix"/><feBlend in="SourceGraphic" in2="BackgroundImageFix" mode="normal" result="shape"/><feGaussianBlur result="effect1_foregroundBlur_6903_5272" stdDeviation=".25"/></filter><filter id="f" color-interpolation-filters="sRGB" filterUnits="userSpaceOnUse" height="1.748" width="2.723" x="14.909" y="18.779"><feFlood flood-opacity="0" result="BackgroundImageFix"/><feBlend in="SourceGraphic" in2="BackgroundImageFix" mode="normal" result="shape"/><feGaussianBlur result="effect1_foregroundBlur_6903_5272" stdDeviation=".3"/></filter><filter id="g" color-interpolation-filters="sRGB" filterUnits="userSpaceOnUse" height="4.013" width="6.005" x="23.685" y="19.909"><feFlood flood-opacity="0" result="BackgroundImageFix"/><feBlend in="SourceGraphic" in2="BackgroundImageFix" mode="normal" result="shape"/><feGaussianBlur result="effect1_foregroundBlur_6903_5272" stdDeviation=".25"/></filter><filter id="h" color-interpolation-filters="sRGB" filterUnits="userSpaceOnUse" height="3.566" width="4.127" x="23.685" y="23.753"><feFlood flood-opacity="0" result="BackgroundImageFix"/><feBlend in="SourceGraphic" in2="BackgroundImageFix" mode="normal" result="shape"/><feGaussianBlur result="effect1_foregroundBlur_6903_5272" stdDeviation=".25"/></filter><filter id="i" color-interpolation-filters="sRGB" filterUnits="userSpaceOnUse" height="3.113" width="5.105" x="24.916" y="20.178"><feFlood flood-opacity="0" result="BackgroundImageFix"/><feBlend in="SourceGraphic" in2="BackgroundImageFix" mode="normal" result="shape"/><feGaussianBlur result="effect1_foregroundBlur_6903_5272" stdDeviation=".25"/></filter><filter id="j" color-interpolation-filters="sRGB" filterUnits="userSpaceOnUse" height="3.119" width="5.102" x="24.848" y="23.829"><feFlood flood-opacity="0" result="BackgroundImageFix"/><feBlend in="SourceGraphic" in2="BackgroundImageFix" mode="normal" result="shape"/><feGaussianBlur result="effect1_foregroundBlur_6903_5272" stdDeviation=".25"/></filter><filter id="k" color-interpolation-filters="sRGB" filterUnits="userSpaceOnUse" height="3.119" width="5.102" x="2.142" y="23.84"><feFlood flood-opacity="0" result="BackgroundImageFix"/><feBlend in="SourceGraphic" in2="BackgroundImageFix" mode="normal" result="shape"/><feGaussianBlur result="effect1_foregroundBlur_6903_5272" stdDeviation=".25"/></filter><filter id="l" color-interpolation-filters="sRGB" filterUnits="userSpaceOnUse" height="1.336" width="1.364" x="5.964" y="23.767"><feFlood flood-opacity="0" result="BackgroundImageFix"/><feBlend in="SourceGraphic" in2="BackgroundImageFix" mode="normal" result="shape"/><feGaussianBlur result="effect1_foregroundBlur_6903_5272" stdDeviation=".25"/></filter><filter id="m" color-interpolation-filters="sRGB" filterUnits="userSpaceOnUse" height="3.094" width="5.114" x="2.21" y="19.985"><feFlood flood-opacity="0" result="BackgroundImageFix"/><feBlend in="SourceGraphic" in2="BackgroundImageFix" mode="normal" result="shape"/><feGaussianBlur result="effect1_foregroundBlur_6903_5272" stdDeviation=".25"/></filter><filter id="n" color-interpolation-filters="sRGB" filterUnits="userSpaceOnUse" height="1.364" width="1.336" x="6.083" y="21.752"><feFlood flood-opacity="0" result="BackgroundImageFix"/><feBlend in="SourceGraphic" in2="BackgroundImageFix" mode="normal" result="shape"/><feGaussianBlur result="effect1_foregroundBlur_6903_5272" stdDeviation=".25"/></filter><filter id="o" color-interpolation-filters="sRGB" filterUnits="userSpaceOnUse" height="22.186" width="12.585" x="18.102" y="6.031"><feFlood flood-opacity="0" result="BackgroundImageFix"/><feBlend in="SourceGraphic" in2="BackgroundImageFix" mode="normal" result="shape"/><feGaussianBlur result="effect1_foregroundBlur_6903_5272" stdDeviation="2"/></filter><filter id="p" color-interpolation-filters="sRGB" filterUnits="userSpaceOnUse" height="7.138" width="4.825" x="22.409" y="6.697"><feFlood flood-opacity="0" result="BackgroundImageFix"/><feBlend in="SourceGraphic" in2="BackgroundImageFix" mode="normal" result="shape"/><feGaussianBlur result="effect1_foregroundBlur_6903_5272" stdDeviation=".3"/></filter><filter id="q" color-interpolation-filters="sRGB" filterUnits="userSpaceOnUse" height="4.734" width="4.531" x="22.727" y="9.219"><feFlood flood-opacity="0" result="BackgroundImageFix"/><feBlend in="SourceGraphic" in2="BackgroundImageFix" mode="normal" result="shape"/><feGaussianBlur result="effect1_foregroundBlur_6903_5272" stdDeviation=".375"/></filter><filter id="r" color-interpolation-filters="sRGB" filterUnits="userSpaceOnUse" height="6.908" width="4.469" x="4.723" y="6.929"><feFlood flood-opacity="0" result="BackgroundImageFix"/><feBlend in="SourceGraphic" in2="BackgroundImageFix" mode="normal" result="shape"/><feGaussianBlur result="effect1_foregroundBlur_6903_5272" stdDeviation=".25"/></filter><filter id="s" color-interpolation-filters="sRGB" filterUnits="userSpaceOnUse" height="6.337" width="1.15" x="4.648" y="7.081"><feFlood flood-opacity="0" result="BackgroundImageFix"/><feBlend in="SourceGraphic" in2="BackgroundImageFix" mode="normal" result="shape"/><feGaussianBlur result="effect1_foregroundBlur_6903_5272" stdDeviation=".25"/></filter><filter id="t" color-interpolation-filters="sRGB" filterUnits="userSpaceOnUse" height="10.382" width="10.382" x="17.117" y="19.794"><feFlood flood-opacity="0" result="BackgroundImageFix"/><feBlend in="SourceGraphic" in2="BackgroundImageFix" mode="normal" result="shape"/><feGaussianBlur result="effect1_foregroundBlur_6903_5272" stdDeviation="1"/></filter><filter id="u" color-interpolation-filters="sRGB" filterUnits="userSpaceOnUse" height="4.117" width="1.399" x="25.551" y="19.641"><feFlood flood-opacity="0" result="BackgroundImageFix"/><feBlend in="SourceGraphic" in2="BackgroundImageFix" mode="normal" result="shape"/><feGaussianBlur result="effect1_foregroundBlur_6903_5272" stdDeviation=".25"/></filter><filter id="v" color-interpolation-filters="sRGB" filterUnits="userSpaceOnUse" height="4.016" width="1.406" x="22.473" y="19.641"><feFlood flood-opacity="0" result="BackgroundImageFix"/><feBlend in="SourceGraphic" in2="BackgroundImageFix" mode="normal" result="shape"/><feGaussianBlur result="effect1_foregroundBlur_6903_5272" stdDeviation=".25"/></filter><filter id="w" color-interpolation-filters="sRGB" filterUnits="userSpaceOnUse" height="5.536" width="4.951" x="24.646" y="19.49"><feFlood flood-opacity="0" result="BackgroundImageFix"/><feBlend in="SourceGraphic" in2="BackgroundImageFix" mode="normal" result="shape"/><feGaussianBlur result="effect1_foregroundBlur_6903_5272" stdDeviation=".75"/></filter><filter id="x" color-interpolation-filters="sRGB" filterUnits="userSpaceOnUse" height="2.811" width=".6" x="26.368" y="20.169"><feFlood flood-opacity="0" result="BackgroundImageFix"/><feBlend in="SourceGraphic" in2="BackgroundImageFix" mode="normal" result="shape"/><feGaussianBlur result="effect1_foregroundBlur_6903_5272" stdDeviation=".1"/></filter><filter id="y" color-interpolation-filters="sRGB" filterUnits="userSpaceOnUse" height="2.811" width=".6" x="23.321" y="20.169"><feFlood flood-opacity="0" result="BackgroundImageFix"/><feBlend in="SourceGraphic" in2="BackgroundImageFix" mode="normal" result="shape"/><feGaussianBlur result="effect1_foregroundBlur_6903_5272" stdDeviation=".1"/></filter><filter id="z" color-interpolation-filters="sRGB" filterUnits="userSpaceOnUse" height="2.811" width=".6" x="23.321" y="20.169"><feFlood flood-opacity="0" result="BackgroundImageFix"/><feBlend in="SourceGraphic" in2="BackgroundImageFix" mode="normal" result="shape"/><feGaussianBlur result="effect1_foregroundBlur_6903_5272" stdDeviation=".1"/></filter><filter id="A" color-interpolation-filters="sRGB" filterUnits="userSpaceOnUse" height="8.984" width="8.984" x="6.59" y="11.484"><feFlood flood-opacity="0" result="BackgroundImageFix"/><feBlend in="SourceGraphic" in2="BackgroundImageFix" mode="normal" result="shape"/><feGaussianBlur result="effect1_foregroundBlur_6903_5272" stdDeviation=".5"/></filter><filter id="B" color-interpolation-filters="sRGB" filterUnits="userSpaceOnUse" height="8.578" width="8.578" x="15.801" y="11.801"><feFlood flood-opacity="0" result="BackgroundImageFix"/><feBlend in="SourceGraphic" in2="BackgroundImageFix" mode="normal" result="shape"/><feGaussianBlur result="effect1_foregroundBlur_6903_5272" stdDeviation=".5"/></filter><filter id="C" color-interpolation-filters="sRGB" filterUnits="userSpaceOnUse" height="5.536" width="4.951" x="6.701" y="19.49"><feFlood flood-opacity="0" result="BackgroundImageFix"/><feBlend in="SourceGraphic" in2="BackgroundImageFix" mode="normal" result="shape"/><feGaussianBlur result="effect1_foregroundBlur_6903_5272" stdDeviation=".75"/></filter><filter id="D" color-interpolation-filters="sRGB" filterUnits="userSpaceOnUse" height="4.016" width="1.406" x="7.715" y="19.641"><feFlood flood-opacity="0" result="BackgroundImageFix"/><feBlend in="SourceGraphic" in2="BackgroundImageFix" mode="normal" result="shape"/><feGaussianBlur result="effect1_foregroundBlur_6903_5272" stdDeviation=".25"/></filter><filter id="E" color-interpolation-filters="sRGB" filterUnits="userSpaceOnUse" height="4.016" width="1.406" x="4.598" y="19.641"><feFlood flood-opacity="0" result="BackgroundImageFix"/><feBlend in="SourceGraphic" in2="BackgroundImageFix" mode="normal" result="shape"/><feGaussianBlur result="effect1_foregroundBlur_6903_5272" stdDeviation=".25"/></filter><filter id="F" color-interpolation-filters="sRGB" filterUnits="userSpaceOnUse" height="2.811" width=".6" x="8.423" y="20.169"><feFlood flood-opacity="0" result="BackgroundImageFix"/><feBlend in="SourceGraphic" in2="BackgroundImageFix" mode="normal" result="shape"/><feGaussianBlur result="effect1_foregroundBlur_6903_5272" stdDeviation=".1"/></filter><filter id="G" color-interpolation-filters="sRGB" filterUnits="userSpaceOnUse" height="2.811" width=".6" x="5.376" y="20.169"><feFlood flood-opacity="0" result="BackgroundImageFix"/><feBlend in="SourceGraphic" in2="BackgroundImageFix" mode="normal" result="shape"/><feGaussianBlur result="effect1_foregroundBlur_6903_5272" stdDeviation=".1"/></filter><linearGradient id="H" gradientUnits="userSpaceOnUse" x1="7.964" x2="7.964" y1="1.06" y2="31"><stop offset=".288" stop-color="#f2cc26"/><stop offset=".762" stop-color="#e99e20"/><stop offset=".993" stop-color="#e3821d"/><stop offset="1" stop-color="#e3801d"/></linearGradient><linearGradient id="I"><stop offset="0" stop-color="#e99e20" stop-opacity="0"/><stop offset=".993" stop-color="#e3821d"/><stop offset="1" stop-color="#e3801d"/></linearGradient><linearGradient id="J" gradientUnits="userSpaceOnUse" x1="8.884" x2="1.259" xlink:href="#I" y1="11.851" y2="11.851"/><linearGradient id="K" gradientUnits="userSpaceOnUse" x1="26.759" x2="30.196" xlink:href="#I" y1="11.851" y2="11.851"/><linearGradient id="L" gradientUnits="userSpaceOnUse" x1="16.02" x2="16.019" y1="-1.914" y2="30.523"><stop offset=".771" stop-color="#f59639" stop-opacity="0"/><stop offset="1" stop-color="#ff63c4"/></linearGradient><linearGradient id="M" gradientUnits="userSpaceOnUse" x1="16.019" x2="16.019" y1="11.062" y2="32.336"><stop offset=".854" stop-color="#fff" stop-opacity="0"/><stop offset=".985" stop-color="#fff"/></linearGradient><radialGradient id="N" cx="0" cy="0" gradientTransform="matrix(3.03124833 4.46874676 -8.83052159 5.98993527 22.1648 4.21866)" gradientUnits="userSpaceOnUse" r="1"><stop offset="0" stop-color="#ffa720"/><stop offset=".921" stop-color="#ffa720" stop-opacity="0"/></radialGradient><linearGradient id="O" gradientUnits="userSpaceOnUse" x1="23.437" x2="28" y1="8.964" y2="13.66"><stop offset="0" stop-color="#ffa720"/><stop offset="1" stop-color="#ffa720" stop-opacity="0"/></linearGradient><linearGradient id="P" gradientUnits="userSpaceOnUse" x1="10.602" x2="4.743" y1="10.547" y2="10"><stop offset=".437" stop-color="#ed8c1b"/><stop offset="1" stop-color="#ffb03a"/></linearGradient><linearGradient id="Q" gradientUnits="userSpaceOnUse" x1="27.04" x2="26.444" y1="4.891" y2="7.232"><stop offset=".286" stop-color="#ffe792"/><stop offset="1" stop-color="#ffdd65" stop-opacity="0"/></linearGradient><linearGradient id="R" gradientUnits="userSpaceOnUse" x1="15.751" x2="15.079" y1="21.264" y2="22.357"><stop offset="0" stop-color="#e3900e"/><stop offset="1" stop-color="#ea9d26" stop-opacity="0"/></linearGradient><radialGradient id="S" cx="0" cy="0" gradientTransform="matrix(-1.89062885 -.95312092 .95875693 -1.90180855 16.4461 20.092)" gradientUnits="userSpaceOnUse" r="1"><stop offset="0" stop-color="#ea088b"/><stop offset="1" stop-color="#e61e27"/></radialGradient><linearGradient id="T" gradientUnits="userSpaceOnUse" x1="17.204" x2="15.68" y1="19.654" y2="19.654"><stop offset="0" stop-color="#fff" stop-opacity=".9"/><stop offset="1" stop-color="#fff" stop-opacity="0"/></linearGradient><linearGradient id="U" gradientUnits="userSpaceOnUse" x1="24.29" x2="28.024" y1="23.166" y2="21.25"><stop offset="0" stop-color="#e88105"/><stop offset="1" stop-color="#e37d02" stop-opacity="0"/></linearGradient><linearGradient id="V" gradientUnits="userSpaceOnUse" x1="24.29" x2="28.024" y1="24.509" y2="26.425"><stop offset=".286" stop-color="#de7d07"/><stop offset=".818" stop-color="#e37d02" stop-opacity="0"/></linearGradient><linearGradient id="W" gradientUnits="userSpaceOnUse" x1="25.29" x2="29.527" y1="22.875" y2="20.742"><stop offset=".751" stop-color="#d64a38"/><stop offset="1" stop-color="#fb7425"/></linearGradient><linearGradient id="X" gradientUnits="userSpaceOnUse" x1="25.074" x2="29.824" y1="24.639" y2="26.977"><stop offset=".792" stop-color="#d64a38"/><stop offset="1" stop-color="#fb7425"/></linearGradient><linearGradient id="Y" gradientUnits="userSpaceOnUse" x1="7.018" x2="2.027" y1="24.651" y2="27.148"><stop offset=".752" stop-color="#d64a38"/><stop offset="1" stop-color="#fb7425"/></linearGradient><linearGradient id="Z" gradientUnits="userSpaceOnUse" x1="6.818" x2="2.728" y1="22.859" y2="20.942"><stop offset=".665" stop-color="#d64a38"/><stop offset="1" stop-color="#fb7425"/></linearGradient><linearGradient id="aa" gradientUnits="userSpaceOnUse" x1="23.352" x2="22.956" y1="10.768" y2="22.819"><stop offset=".548" stop-color="#ffdd65"/><stop offset="1" stop-color="#ffdd65" stop-opacity="0"/></linearGradient><linearGradient id="ab" gradientUnits="userSpaceOnUse" x1="26.54" x2="25.29" y1="15.438" y2="11.969"><stop offset="0" stop-color="#ef8a47"/><stop offset="1" stop-color="#ef8a47" stop-opacity="0"/></linearGradient><radialGradient id="ac" cx="0" cy="0" gradientTransform="matrix(4.40624866 6.46874874 -7.75589325 5.28299918 22.868 7.70313)" gradientUnits="userSpaceOnUse" r="1"><stop offset="0" stop-color="#ffdf70"/><stop offset="1" stop-color="#ffdf70" stop-opacity="0"/></radialGradient><linearGradient id="ad" gradientUnits="userSpaceOnUse" x1="25.055" x2="25.055" y1="10.406" y2="12.75"><stop offset=".432" stop-color="#ffe7a3"/><stop offset="1" stop-color="#ffdf83" stop-opacity="0"/></linearGradient><linearGradient id="ae" gradientUnits="userSpaceOnUse" x1="22.308" x2="15.205" y1="26.938" y2="30.458"><stop offset="0" stop-color="#da7600"/><stop offset="1" stop-color="#da8400" stop-opacity="0"/></linearGradient><linearGradient id="af"><stop offset=".161" stop-color="#f2cc26"/><stop offset=".642" stop-color="#e99e20"/><stop offset=".993" stop-color="#e3821d"/><stop offset="1" stop-color="#e3801d"/></linearGradient><linearGradient id="ag" gradientUnits="userSpaceOnUse" x1="28.957" x2="20.988" xlink:href="#af" y1="30.403" y2="30.403"/><linearGradient id="ah"><stop offset=".866" stop-color="#e3821d" stop-opacity="0"/><stop offset="1" stop-color="#d37516"/></linearGradient><linearGradient id="ai" gradientUnits="userSpaceOnUse" x1="28.957" x2="20.988" xlink:href="#ah" y1="30.403" y2="30.563"/><linearGradient id="aj"><stop offset="0" stop-color="#e99e20" stop-opacity="0"/><stop offset="1" stop-color="#e99e20"/></linearGradient><linearGradient id="ak" gradientUnits="userSpaceOnUse" x1="26.621" x2="34.809" xlink:href="#aj" y1="30.403" y2="30.403"/><linearGradient id="al"><stop offset="0" stop-color="#ffb445"/><stop offset="1" stop-color="#e9a239" stop-opacity=".922"/></linearGradient><linearGradient id="am" gradientUnits="userSpaceOnUse" x1="23.785" x2="22.824" xlink:href="#al" y1="22" y2="22"/><linearGradient id="an"><stop offset=".367" stop-color="#d6850e"/><stop offset="1" stop-color="#cc861f" stop-opacity="0"/></linearGradient><linearGradient id="ao" gradientUnits="userSpaceOnUse" x1="22.34" x2="23.621" xlink:href="#an" y1="22.109" y2="22.031"/><linearGradient id="ap"><stop offset="0" stop-color="#ff91b9"/><stop offset="1" stop-color="#fd679e" stop-opacity="0"/></linearGradient><linearGradient id="aq" gradientUnits="userSpaceOnUse" x1="23.449" x2="23.449" xlink:href="#ap" y1="24.219" y2="22.648"/><linearGradient id="ar" gradientUnits="userSpaceOnUse" x1="26.832" x2="25.871" xlink:href="#al" y1="22" y2="22"/><linearGradient id="as" gradientUnits="userSpaceOnUse" x1="25.433" x2="26.371" xlink:href="#an" y1="22.047" y2="22.047"/><linearGradient id="at" gradientUnits="userSpaceOnUse" x1="26.496" x2="26.496" xlink:href="#ap" y1="24.219" y2="22.648"/><linearGradient id="au"><stop offset="0" stop-color="#ffc270"/><stop offset=".77" stop-color="#ffe2bb" stop-opacity="0"/></linearGradient><linearGradient id="av" gradientUnits="userSpaceOnUse" x1="27.082" x2="26.541" xlink:href="#au" y1="23.305" y2="18.998"/><linearGradient id="aw" gradientUnits="userSpaceOnUse" x1="24.035" x2="23.494" xlink:href="#au" y1="23.305" y2="18.998"/><linearGradient id="ax"><stop offset="0" stop-color="#cf8209"/><stop offset="1" stop-color="#c88216" stop-opacity="0"/></linearGradient><linearGradient id="ay" gradientUnits="userSpaceOnUse" x1="16.742" x2="18.069" xlink:href="#ax" y1="17.596" y2="26.301"/><linearGradient id="az" gradientUnits="userSpaceOnUse" x1="25.421" x2="26.67" xlink:href="#ax" y1="17.616" y2="25.814"/><radialGradient id="aA" cx="0" cy="0" gradientTransform="matrix(0 -5.91493 9.37069 0 16 28.5009)" gradientUnits="userSpaceOnUse" r="1"><stop offset="0" stop-color="#f70a8d"/><stop offset="1" stop-color="#89029c"/></radialGradient><linearGradient id="aB" gradientUnits="userSpaceOnUse" x1="11.012" x2="3.043" xlink:href="#af" y1="30.403" y2="30.403"/><linearGradient id="aC" gradientUnits="userSpaceOnUse" x1="11.012" x2="3.043" xlink:href="#ah" y1="30.403" y2="30.563"/><linearGradient id="aD" gradientUnits="userSpaceOnUse" x1="8.676" x2="16.863" xlink:href="#aj" y1="30.403" y2="30.403"/><linearGradient id="aE" gradientUnits="userSpaceOnUse" x1="5.84" x2="4.879" xlink:href="#al" y1="22" y2="22"/><linearGradient id="aF" gradientUnits="userSpaceOnUse" x1="4.394" x2="5.676" xlink:href="#an" y1="22.109" y2="22.031"/><linearGradient id="aG" gradientUnits="userSpaceOnUse" x1="5.504" x2="5.504" xlink:href="#ap" y1="24.219" y2="22.648"/><linearGradient id="aH" gradientUnits="userSpaceOnUse" x1="8.887" x2="7.926" xlink:href="#al" y1="22" y2="22"/><linearGradient id="aI" gradientUnits="userSpaceOnUse" x1="7.488" x2="8.426" xlink:href="#an" y1="22.047" y2="22.047"/><linearGradient id="aJ" gradientUnits="userSpaceOnUse" x1="8.551" x2="8.551" xlink:href="#ap" y1="24.219" y2="22.648"/><linearGradient id="aK" gradientUnits="userSpaceOnUse" x1="9.137" x2="8.595" xlink:href="#au" y1="23.305" y2="18.998"/><linearGradient id="aL" gradientUnits="userSpaceOnUse" x1="6.09" x2="5.548" xlink:href="#au" y1="23.305" y2="18.998"/><path d="m27.9617 25.9948v-19.64333c0-1.4375-1.336-2.14062-2.4297-1.125l-4.0136 3.95222c-.1871.18422-.4391.28747-.7017.28747h-9.5963c-.2626 0-.5146-.10325-.7016-.28747l-4.01367-3.95222c-1.09375-1.01562-2.42969-.3125-2.42969 1.125v19.64333c0 2.2118 1.75993 4.0051 3.93053 4.0051h16.02523c2.1706 0 3.9305-1.7933 3.9305-4.0051z" fill="url(#H)"/><path d="m27.9617 25.9948v-19.64333c0-1.4375-1.336-2.14062-2.4297-1.125l-4.0136 3.95222c-.1871.18422-.4391.28747-.7017.28747h-9.5963c-.2626 0-.5146-.10325-.7016-.28747l-4.01367-3.95222c-1.09375-1.01562-2.42969-.3125-2.42969 1.125v19.64333c0 2.2118 1.75993 4.0051 3.93053 4.0051h16.02523c2.1706 0 3.9305-1.7933 3.9305-4.0051z" fill="url(#J)"/><path d="m27.9617 25.9948v-19.64333c0-1.4375-1.336-2.14062-2.4297-1.125l-4.0136 3.95222c-.1871.18422-.4391.28747-.7017.28747h-9.5963c-.2626 0-.5146-.10325-.7016-.28747l-4.01367-3.95222c-1.09375-1.01562-2.42969-.3125-2.42969 1.125v19.64333c0 2.2118 1.75993 4.0051 3.93053 4.0051h16.02523c2.1706 0 3.9305-1.7933 3.9305-4.0051z" fill="url(#K)"/><path d="m27.9617 25.9948v-19.64333c0-1.4375-1.336-2.14062-2.4297-1.125l-4.0136 3.95222c-.1871.18422-.4391.28747-.7017.28747h-9.5963c-.2626 0-.5146-.10325-.7016-.28747l-4.01367-3.95222c-1.09375-1.01562-2.42969-.3125-2.42969 1.125v19.64333c0 2.2118 1.75993 4.0051 3.93053 4.0051h16.02523c2.1706 0 3.9305-1.7933 3.9305-4.0051z" fill="url(#L)"/><path d="m27.9617 25.9948v-19.64333c0-1.4375-1.336-2.14062-2.4297-1.125l-4.0136 3.95222c-.1871.18422-.4391.28747-.7017.28747h-9.5963c-.2626 0-.5146-.10325-.7016-.28747l-4.01367-3.95222c-1.09375-1.01562-2.42969-.3125-2.42969 1.125v19.64333c0 2.2118 1.75993 4.0051 3.93053 4.0051h16.02523c2.1706 0 3.9305-1.7933 3.9305-4.0051z" fill="url(#M)"/><path d="m27.9617 25.9948v-19.64333c0-1.4375-1.336-2.14062-2.4297-1.125l-4.0136 3.95222c-.1871.18422-.4391.28747-.7017.28747h-9.5963c-.2626 0-.5146-.10325-.7016-.28747l-4.01367-3.95222c-1.09375-1.01562-2.42969-.3125-2.42969 1.125v19.64333c0 2.2118 1.75993 4.0051 3.93053 4.0051h16.02523c2.1706 0 3.9305-1.7933 3.9305-4.0051z" fill="url(#N)"/><g filter="url(#a)"><rect fill="#d67908" height="3.698" rx="1.363" width="2.727" x="5.054" y="21.75"/></g><g filter="url(#b)"><path d="m20.5855 10.165c-2.9832.1076 5.2265 4.9538 5.2265 4.9538l1.125-9.0625c.0547-.46093-.3641-.95351-1.2499-.13098 0 0-3.8266 3.76801-4.0137 3.95222-.187.18426-.408.24896-.7016.28746-.1496.0196-.2355-.0054-.3863 0z" fill="url(#O)"/></g><path d="m6.13255 13.4331 2.8-2.6c.32-.3.32-.78 0-1.06997l-3.01468-2.67719c-.38282-.33593-1.17532-.22656-1.17532.60719v5.19997c0 .8335.88 1.02 1.39.54z" fill="url(#P)"/><g filter="url(#c)"><path d="m26.4909 5.58153c.0579-.14369.1973-.23778.3522-.23778.2098 0 .3798.17005.3798.37981v2.24519l-1.4174-.6875z" fill="url(#Q)"/></g><g filter="url(#d)"><path d="m5.40601 6.0625 3.37496 3.21953c.75411.71937.76824 1.91847.03129 2.65547" stroke="#ffdf70" stroke-linecap="round"/></g><g filter="url(#e)"><path d="m14.8054 19.5626.0643-.015c.4736-.1104.9668-.1053 1.438.015.5211.0982.8322.6955.3922 1.1255l-.5508.6016c-.27.27-.8628.27-1.1328 0l-.543-.6016c-.4492-.5078-.1679-1.0156.3321-1.1255z" fill="url(#R)"/></g><path d="m15.2265 19.1189.0643-.015c.4736-.1104.9669-.1053 1.4381.015.5211.0981.8321.6955.3921 1.1255l-.5507.6015c-.27.27-.8628.27-1.1328 0l-.543-.6015c-.4492-.5078-.168-1.0156.332-1.1255z" fill="url(#S)"/><g filter="url(#f)"><ellipse cx="16.27" cy="19.654" fill="url(#T)" rx=".762" ry=".274"/></g><g filter="url(#g)"><path d="m24.7851 22.8219 3.8047-1.8125" stroke="url(#U)" stroke-linecap="round" stroke-miterlimit="10" stroke-width="1.2"/></g><g filter="url(#h)"><path d="m24.7851 24.8532 1.9266 1.3656" stroke="url(#V)" stroke-linecap="round" stroke-miterlimit="10" stroke-width="1.2"/></g><path d="m25.5663 22.4688 3.8047-1.8126" stroke="url(#W)" stroke-linecap="round" stroke-miterlimit="10" stroke-width="1.2"/><g filter="url(#i)"><path d="m25.5663 22.6406 3.8047-1.8125" stroke="#ff8485" stroke-linecap="round" stroke-miterlimit="10" stroke-width=".3"/></g><path d="m25.5636 24.5989 3.8016 1.8191" stroke="url(#X)" stroke-linecap="round" stroke-miterlimit="10" stroke-width="1.2"/><g filter="url(#j)"><path d="m25.4984 24.4788 3.8016 1.8191" stroke="#ff8485" stroke-linecap="round" stroke-miterlimit="10" stroke-width=".3"/></g><path d="m6.5281 24.6106-3.80156 1.8191" stroke="url(#Y)" stroke-linecap="round" stroke-miterlimit="10" stroke-width="1.2"/><g filter="url(#k)"><path d="m6.59334 24.4905-3.80155 1.8191" stroke="#ff8485" stroke-linecap="round" stroke-miterlimit="10" stroke-width=".3"/></g><g filter="url(#l)"><ellipse fill="#ffdd86" rx=".184" ry=".166" transform="matrix(-.942776 -.333427 -.333427 .942776 6.64614 24.4345)"/></g><path d="m6.53969 22.454-3.81357-1.7938" stroke="url(#Z)" stroke-linecap="round" stroke-miterlimit="10" stroke-width="1.2"/><g filter="url(#m)"><path d="m6.67403 22.4284-3.81357-1.7937" stroke="#ff8485" stroke-linecap="round" stroke-miterlimit="10" stroke-width=".3"/></g><g filter="url(#n)"><ellipse fill="#ffdd86" rx=".184" ry=".166" transform="matrix(-.338111 -.941106 -.941106 .338111 6.75078 22.434)"/></g><g filter="url(#o)"><path d="m22.1024 10.0312h4.5851v14.1857h-4.5851z" fill="url(#aa)"/></g><path d="m25.8329 13.4331-2.8-2.6c-.32-.3-.32-.78 0-1.06997l3.0147-2.67719c.3828-.33593 1.1753-.22656 1.1753.60719v5.19997c0 .8335-.88 1.02-1.39.54z" fill="#ffb915"/><path d="m25.8329 13.4331-2.8-2.6c-.32-.3-.32-.78 0-1.06997l3.0147-2.67719c.3828-.33593 1.1753-.22656 1.1753.60719v5.19997c0 .8335-.88 1.02-1.39.54z" fill="url(#ab)"/><g filter="url(#p)"><path d="m26.6336 7.29688-3.625 3.12502 3.5469 2.8125z" fill="url(#ac)"/></g><g filter="url(#q)"><path d="m23.7274 10.2188 2.5312 2.7343" stroke="url(#ad)" stroke-linecap="round" stroke-width=".5"/></g><g filter="url(#r)"><path d="m5.22321 7.42896v5.90774l3.46875-3.0894z" fill="#feb33e"/></g><g filter="url(#s)"><path d="m5.22321 7.65625v5.18755" stroke="#ffe7a3" stroke-linecap="round" stroke-width=".15"/></g><g filter="url(#t)"><circle cx="22.308" cy="24.985" fill="url(#ae)" r="3.191"/></g><path d="m20.9883 23.7969c0-2.2005 1.7838-3.9844 3.9844-3.9844 2.2005 0 3.9843 1.7839 3.9843 3.9844v6.2031h-7.9687z" fill="url(#ag)"/><path d="m20.9883 23.7969c0-2.2005 1.7838-3.9844 3.9844-3.9844 2.2005 0 3.9843 1.7839 3.9843 3.9844v6.2031h-7.9687z" fill="url(#ai)"/><path d="m20.9883 23.7969c0-2.2005 1.7838-3.9844 3.9844-3.9844 2.2005 0 3.9843 1.7839 3.9843 3.9844v6.2031h-7.9687z" fill="url(#ak)"/><g filter="url(#u)"><path d="m26.0507 20.3399c0-.1101.0892-.1993.1993-.1993.11 0 .1992.0892.1992.1993v2.7187c0 .11-.0892.1992-.1992.1992-.1101 0-.1993-.0892-.1993-.1992z" fill="#da7600" fill-opacity=".5"/></g><g filter="url(#v)"><path d="m22.9727 20.3437c0-.1121.0909-.2031.2031-.2031.1122 0 .2031.091.2031.2032v2.6093c0 .1122-.0909.2032-.2031.2032-.1122 0-.2031-.091-.2031-.2032z" fill="#da7600" fill-opacity=".75"/></g><g filter="url(#w)"><ellipse cx="27.122" cy="22.258" fill="#fdd659" rx=".846" ry="1.357" transform="matrix(.88934616 -.45723453 .45723453 .88934616 -7.175834 14.863821)"/></g><path d="m23.1133 20.0547c0-.1855.1504-.3359.3359-.3359.1856 0 .336.1504.336.3359v2.7656c0 .1855-.1504.3359-.336.3359-.1855 0-.3359-.1504-.3359-.3359z" fill="url(#am)"/><path d="m23.1133 20.0547c0-.1855.1504-.3359.3359-.3359.1856 0 .336.1504.336.3359v2.7656c0 .1855-.1504.3359-.336.3359-.1855 0-.3359-.1504-.3359-.3359z" fill="url(#ao)"/><path d="m23.1133 20.0547c0-.1855.1504-.3359.3359-.3359.1856 0 .336.1504.336.3359v2.7656c0 .1855-.1504.3359-.336.3359-.1855 0-.3359-.1504-.3359-.3359z" fill="url(#aq)"/><path d="m26.1602 20.0547c0-.1855.1504-.3359.3359-.3359.1855 0 .3359.1504.3359.3359v2.7656c0 .1855-.1504.3359-.3359.3359-.1855 0-.3359-.1504-.3359-.3359z" fill="url(#ar)"/><path d="m26.1602 20.0547c0-.1855.1504-.3359.3359-.3359.1855 0 .3359.1504.3359.3359v2.7656c0 .1855-.1504.3359-.3359.3359-.1855 0-.3359-.1504-.3359-.3359z" fill="url(#as)"/><path d="m26.1602 20.0547c0-.1855.1504-.3359.3359-.3359.1855 0 .3359.1504.3359.3359v2.7656c0 .1855-.1504.3359-.3359.3359-.1855 0-.3359-.1504-.3359-.3359z" fill="url(#at)"/><g filter="url(#x)"><path d="m26.6679 22.6797v-2.2109" stroke="url(#av)" stroke-linecap="round" stroke-width=".2"/></g><g filter="url(#y)"><path d="m23.621 22.6797v-2.2109" stroke="url(#aw)" stroke-linecap="round" stroke-width=".2"/></g><g filter="url(#z)"><path d="m23.621 22.6797v-2.2109" stroke="url(#aw)" stroke-linecap="round" stroke-width=".2"/></g><g filter="url(#A)"><circle cx="11.082" cy="15.977" fill="url(#ay)" r="3.492"/></g><g filter="url(#B)"><circle cx="20.09" cy="16.09" fill="url(#az)" r="3.289"/></g><circle cx="20.484" cy="15.578" fill="#fff" r="3.492"/><circle cx="11.516" cy="15.578" fill="#fff" r="3.492"/><rect fill="url(#aA)" height="5.453" rx="2.172" width="4.344" x="13.828" y="21.836"/><path d="m3.04297 23.7969c0-2.2005 1.78386-3.9844 3.98437-3.9844 2.20051 0 3.98436 1.7839 3.98436 3.9844v6.2031h-7.96873z" fill="url(#aB)"/><path d="m3.04297 23.7969c0-2.2005 1.78386-3.9844 3.98437-3.9844 2.20051 0 3.98436 1.7839 3.98436 3.9844v6.2031h-7.96873z" fill="url(#aC)"/><path d="m3.04297 23.7969c0-2.2005 1.78386-3.9844 3.98437-3.9844 2.20051 0 3.98436 1.7839 3.98436 3.9844v6.2031h-7.96873z" fill="url(#aD)"/><g filter="url(#C)"><ellipse cx="9.176" cy="22.258" fill="#fdd659" rx=".846" ry="1.357" transform="matrix(.88934616 -.45723453 .45723453 .88934616 -9.16155 6.65861)"/></g><g filter="url(#D)"><path d="m8.21484 20.3437c0-.1121.09095-.2031.20313-.2031.11218 0 .20312.091.20312.2032v2.6093c0 .1122-.09094.2032-.20312.2032-.11218 0-.20313-.091-.20313-.2032z" fill="#da7600" fill-opacity=".5"/></g><g filter="url(#E)"><path d="m5.09766 20.3437c0-.1121.09094-.2031.20312-.2031.11218 0 .20313.091.20313.2032v2.6093c0 .1122-.09095.2032-.20313.2032-.11218 0-.20312-.091-.20312-.2032z" fill="#da7600" fill-opacity=".75"/></g><path d="m5.16797 20.0547c0-.1855.1504-.3359.33594-.3359.18553 0 .33593.1504.33593.3359v2.7656c0 .1855-.1504.3359-.33593.3359-.18554 0-.33594-.1504-.33594-.3359z" fill="url(#aE)"/><path d="m5.16797 20.0547c0-.1855.1504-.3359.33594-.3359.18553 0 .33593.1504.33593.3359v2.7656c0 .1855-.1504.3359-.33593.3359-.18554 0-.33594-.1504-.33594-.3359z" fill="url(#aF)"/><path d="m5.16797 20.0547c0-.1855.1504-.3359.33594-.3359.18553 0 .33593.1504.33593.3359v2.7656c0 .1855-.1504.3359-.33593.3359-.18554 0-.33594-.1504-.33594-.3359z" fill="url(#aG)"/><path d="m8.21484 20.0547c0-.1855.15041-.3359.33594-.3359.18553 0 .33594.1504.33594.3359v2.7656c0 .1855-.15041.3359-.33594.3359-.18553 0-.33594-.1504-.33594-.3359z" fill="url(#aH)"/><path d="m8.21484 20.0547c0-.1855.15041-.3359.33594-.3359.18553 0 .33594.1504.33594.3359v2.7656c0 .1855-.15041.3359-.33594.3359-.18553 0-.33594-.1504-.33594-.3359z" fill="url(#aI)"/><path d="m8.21484 20.0547c0-.1855.15041-.3359.33594-.3359.18553 0 .33594.1504.33594.3359v2.7656c0 .1855-.15041.3359-.33594.3359-.18553 0-.33594-.1504-.33594-.3359z" fill="url(#aJ)"/><g filter="url(#F)"><path d="m8.7226 22.6797v-2.2109" stroke="url(#aK)" stroke-linecap="round" stroke-width=".2"/></g><g filter="url(#G)"><path d="m5.67572 22.6797v-2.2109" stroke="url(#aL)" stroke-linecap="round" stroke-width=".2"/></g></svg>