<svg fill="none" height="32" viewBox="0 0 32 32" width="32" xmlns="http://www.w3.org/2000/svg" xmlns:xlink="http://www.w3.org/1999/xlink"><filter id="a" color-interpolation-filters="sRGB" filterUnits="userSpaceOnUse" height="16.089" width="15.589" x="8.399" y="1.341"><feFlood flood-opacity="0" result="BackgroundImageFix"/><feBlend in="SourceGraphic" in2="BackgroundImageFix" mode="normal" result="shape"/><feColorMatrix in="SourceAlpha" result="hardAlpha" type="matrix" values="0 0 0 0 0 0 0 0 0 0 0 0 0 0 0 0 0 0 127 0"/><feOffset dx=".25" dy="-.75"/><feGaussianBlur stdDeviation=".75"/><feComposite in2="hardAlpha" k2="-1" k3="1" operator="arithmetic"/><feColorMatrix type="matrix" values="0 0 0 0 0.886275 0 0 0 0 0.698039 0 0 0 0 0.607843 0 0 0 1 0"/><feBlend in2="shape" mode="normal" result="effect1_innerShadow_13036_4646"/></filter><filter id="b" color-interpolation-filters="sRGB" filterUnits="userSpaceOnUse" height="7.244" width="19.161" x="8.163" y="22.665"><feFlood flood-opacity="0" result="BackgroundImageFix"/><feBlend in="SourceGraphic" in2="BackgroundImageFix" mode="normal" result="shape"/><feColorMatrix in="SourceAlpha" result="hardAlpha" type="matrix" values="0 0 0 0 0 0 0 0 0 0 0 0 0 0 0 0 0 0 127 0"/><feOffset dx=".5" dy="-.5"/><feGaussianBlur stdDeviation=".75"/><feComposite in2="hardAlpha" k2="-1" k3="1" operator="arithmetic"/><feColorMatrix type="matrix" values="0 0 0 0 0.698039 0 0 0 0 0.427451 0 0 0 0 0.537255 0 0 0 1 0"/><feBlend in2="shape" mode="normal" result="effect1_innerShadow_13036_4646"/></filter><filter id="c" color-interpolation-filters="sRGB" filterUnits="userSpaceOnUse" height="7.177" width="19.009" x="5.176" y="22.732"><feFlood flood-opacity="0" result="BackgroundImageFix"/><feBlend in="SourceGraphic" in2="BackgroundImageFix" mode="normal" result="shape"/><feColorMatrix in="SourceAlpha" result="hardAlpha" type="matrix" values="0 0 0 0 0 0 0 0 0 0 0 0 0 0 0 0 0 0 127 0"/><feOffset dx=".5" dy="-.3"/><feGaussianBlur stdDeviation=".5"/><feComposite in2="hardAlpha" k2="-1" k3="1" operator="arithmetic"/><feColorMatrix type="matrix" values="0 0 0 0 0.823529 0 0 0 0 0.6 0 0 0 0 0.490196 0 0 0 1 0"/><feBlend in2="shape" mode="normal" result="effect1_innerShadow_13036_4646"/></filter><filter id="d" color-interpolation-filters="sRGB" filterUnits="userSpaceOnUse" height="3.537" width="3.437" x="9.639" y="9.158"><feFlood flood-opacity="0" result="BackgroundImageFix"/><feBlend in="SourceGraphic" in2="BackgroundImageFix" mode="normal" result="shape"/><feColorMatrix in="SourceAlpha" result="hardAlpha" type="matrix" values="0 0 0 0 0 0 0 0 0 0 0 0 0 0 0 0 0 0 127 0"/><feOffset dx=".15" dy=".25"/><feGaussianBlur stdDeviation=".25"/><feComposite in2="hardAlpha" k2="-1" k3="1" operator="arithmetic"/><feColorMatrix type="matrix" values="0 0 0 0 0.858824 0 0 0 0 0.635294 0 0 0 0 0.533333 0 0 0 1 0"/><feBlend in2="shape" mode="normal" result="effect1_innerShadow_13036_4646"/></filter><filter id="e" color-interpolation-filters="sRGB" filterUnits="userSpaceOnUse" height="3.537" width="3.287" x="19.355" y="8.908"><feFlood flood-opacity="0" result="BackgroundImageFix"/><feBlend in="SourceGraphic" in2="BackgroundImageFix" mode="normal" result="shape"/><feColorMatrix in="SourceAlpha" result="hardAlpha" type="matrix" values="0 0 0 0 0 0 0 0 0 0 0 0 0 0 0 0 0 0 127 0"/><feOffset dy="-.25"/><feGaussianBlur stdDeviation=".25"/><feComposite in2="hardAlpha" k2="-1" k3="1" operator="arithmetic"/><feColorMatrix type="matrix" values="0 0 0 0 0.827451 0 0 0 0 0.568627 0 0 0 0 0.505882 0 0 0 1 0"/><feBlend in2="shape" mode="normal" result="effect1_innerShadow_13036_4646"/></filter><filter id="f" color-interpolation-filters="sRGB" filterUnits="userSpaceOnUse" height="3.194" width="3.194" x="19.402" y="9.204"><feFlood flood-opacity="0" result="BackgroundImageFix"/><feBlend in="SourceGraphic" in2="BackgroundImageFix" mode="normal" result="shape"/><feGaussianBlur result="effect1_foregroundBlur_13036_4646" stdDeviation=".25"/></filter><filter id="g" color-interpolation-filters="sRGB" filterUnits="userSpaceOnUse" height="2.994" width="2.994" x="9.805" y="9.304"><feFlood flood-opacity="0" result="BackgroundImageFix"/><feBlend in="SourceGraphic" in2="BackgroundImageFix" mode="normal" result="shape"/><feGaussianBlur result="effect1_foregroundBlur_13036_4646" stdDeviation=".2"/></filter><filter id="h" color-interpolation-filters="sRGB" filterUnits="userSpaceOnUse" height="11.509" width="10.408" x="10.864" y="5.79"><feFlood flood-opacity="0" result="BackgroundImageFix"/><feBlend in="SourceGraphic" in2="BackgroundImageFix" mode="normal" result="shape"/><feColorMatrix in="SourceAlpha" result="hardAlpha" type="matrix" values="0 0 0 0 0 0 0 0 0 0 0 0 0 0 0 0 0 0 127 0"/><feOffset dy=".4"/><feGaussianBlur stdDeviation=".3"/><feComposite in2="hardAlpha" k2="-1" k3="1" operator="arithmetic"/><feColorMatrix type="matrix" values="0 0 0 0 0.745098 0 0 0 0 0.486275 0 0 0 0 0.384314 0 0 0 1 0"/><feBlend in2="shape" mode="normal" result="effect1_innerShadow_13036_4646"/></filter><filter id="i" color-interpolation-filters="sRGB" filterUnits="userSpaceOnUse" height="3.739" width="2.917" x="14.444" y="9.785"><feFlood flood-opacity="0" result="BackgroundImageFix"/><feBlend in="SourceGraphic" in2="BackgroundImageFix" mode="normal" result="shape"/><feGaussianBlur result="effect1_foregroundBlur_13036_4646" stdDeviation=".25"/></filter><filter id="j" color-interpolation-filters="sRGB" filterUnits="userSpaceOnUse" height="3.239" width="2.417" x="14.86" y="9.894"><feFlood flood-opacity="0" result="BackgroundImageFix"/><feBlend in="SourceGraphic" in2="BackgroundImageFix" mode="normal" result="shape"/><feGaussianBlur result="effect1_foregroundBlur_13036_4646" stdDeviation=".125"/></filter><filter id="k" color-interpolation-filters="sRGB" filterUnits="userSpaceOnUse" height="1.313" width="3.061" x="17.035" y="9.367"><feFlood flood-opacity="0" result="BackgroundImageFix"/><feBlend in="SourceGraphic" in2="BackgroundImageFix" mode="normal" result="shape"/><feColorMatrix in="SourceAlpha" result="hardAlpha" type="matrix" values="0 0 0 0 0 0 0 0 0 0 0 0 0 0 0 0 0 0 127 0"/><feOffset dx="-.2"/><feGaussianBlur stdDeviation=".2"/><feComposite in2="hardAlpha" k2="-1" k3="1" operator="arithmetic"/><feColorMatrix type="matrix" values="0 0 0 0 0.141176 0 0 0 0 0.0862745 0 0 0 0 0.176471 0 0 0 1 0"/><feBlend in2="shape" mode="normal" result="effect1_innerShadow_13036_4646"/></filter><filter id="l" color-interpolation-filters="sRGB" filterUnits="userSpaceOnUse" height="1.313" width="3.061" x="12.041" y="9.367"><feFlood flood-opacity="0" result="BackgroundImageFix"/><feBlend in="SourceGraphic" in2="BackgroundImageFix" mode="normal" result="shape"/><feColorMatrix in="SourceAlpha" result="hardAlpha" type="matrix" values="0 0 0 0 0 0 0 0 0 0 0 0 0 0 0 0 0 0 127 0"/><feOffset dx=".2"/><feGaussianBlur stdDeviation=".125"/><feComposite in2="hardAlpha" k2="-1" k3="1" operator="arithmetic"/><feColorMatrix type="matrix" values="0 0 0 0 0.133333 0 0 0 0 0.0784314 0 0 0 0 0.168627 0 0 0 1 0"/><feBlend in2="shape" mode="normal" result="effect1_innerShadow_13036_4646"/></filter><filter id="m" color-interpolation-filters="sRGB" filterUnits="userSpaceOnUse" height=".707" width=".799" x="17.549" y="9.744"><feFlood flood-opacity="0" result="BackgroundImageFix"/><feBlend in="SourceGraphic" in2="BackgroundImageFix" mode="normal" result="shape"/><feGaussianBlur result="effect1_foregroundBlur_13036_4646" stdDeviation=".05"/></filter><filter id="n" color-interpolation-filters="sRGB" filterUnits="userSpaceOnUse" height=".924" width=".902" x="18.409" y="9.823"><feFlood flood-opacity="0" result="BackgroundImageFix"/><feBlend in="SourceGraphic" in2="BackgroundImageFix" mode="normal" result="shape"/><feGaussianBlur result="effect1_foregroundBlur_13036_4646" stdDeviation=".1"/></filter><filter id="o" color-interpolation-filters="sRGB" filterUnits="userSpaceOnUse" height="1.054" width=".999" x="13.871" y="9.758"><feFlood flood-opacity="0" result="BackgroundImageFix"/><feBlend in="SourceGraphic" in2="BackgroundImageFix" mode="normal" result="shape"/><feGaussianBlur result="effect1_foregroundBlur_13036_4646" stdDeviation=".1"/></filter><filter id="p" color-interpolation-filters="sRGB" filterUnits="userSpaceOnUse" height=".715" width=".928" x="13.098" y="9.736"><feFlood flood-opacity="0" result="BackgroundImageFix"/><feBlend in="SourceGraphic" in2="BackgroundImageFix" mode="normal" result="shape"/><feGaussianBlur result="effect1_foregroundBlur_13036_4646" stdDeviation=".05"/></filter><filter id="q" color-interpolation-filters="sRGB" filterUnits="userSpaceOnUse" height="5.341" width="4.357" x="9.686" y="3.636"><feFlood flood-opacity="0" result="BackgroundImageFix"/><feBlend in="SourceGraphic" in2="BackgroundImageFix" mode="normal" result="shape"/><feGaussianBlur result="effect1_foregroundBlur_13036_4646" stdDeviation=".25"/></filter><filter id="r" color-interpolation-filters="sRGB" filterUnits="userSpaceOnUse" height="5.893" width="9.094" x="12.685" y="2.56"><feFlood flood-opacity="0" result="BackgroundImageFix"/><feBlend in="SourceGraphic" in2="BackgroundImageFix" mode="normal" result="shape"/><feGaussianBlur result="effect1_foregroundBlur_13036_4646" stdDeviation=".125"/></filter><filter id="s" color-interpolation-filters="sRGB" filterUnits="userSpaceOnUse" height="2.346" width="1.156" x="12.816" y="3.82"><feFlood flood-opacity="0" result="BackgroundImageFix"/><feBlend in="SourceGraphic" in2="BackgroundImageFix" mode="normal" result="shape"/><feGaussianBlur result="effect1_foregroundBlur_13036_4646" stdDeviation=".1"/></filter><filter id="t" color-interpolation-filters="sRGB" filterUnits="userSpaceOnUse" height="1.082" width="2.698" x="14.766" y="13.438"><feFlood flood-opacity="0" result="BackgroundImageFix"/><feBlend in="SourceGraphic" in2="BackgroundImageFix" mode="normal" result="shape"/><feGaussianBlur result="effect1_foregroundBlur_13036_4646" stdDeviation=".05"/></filter><filter id="u" color-interpolation-filters="sRGB" filterUnits="userSpaceOnUse" height=".712" width="1.224" x="15.456" y="14.343"><feFlood flood-opacity="0" result="BackgroundImageFix"/><feBlend in="SourceGraphic" in2="BackgroundImageFix" mode="normal" result="shape"/><feGaussianBlur result="effect1_foregroundBlur_13036_4646" stdDeviation=".05"/></filter><filter id="v" color-interpolation-filters="sRGB" filterUnits="userSpaceOnUse" height=".741" width="2.848" x="12.531" y="8.204"><feFlood flood-opacity="0" result="BackgroundImageFix"/><feBlend in="SourceGraphic" in2="BackgroundImageFix" mode="normal" result="shape"/><feColorMatrix in="SourceAlpha" result="hardAlpha" type="matrix" values="0 0 0 0 0 0 0 0 0 0 0 0 0 0 0 0 0 0 127 0"/><feOffset dx=".2" dy="-.2"/><feGaussianBlur stdDeviation=".15"/><feComposite in2="hardAlpha" k2="-1" k3="1" operator="arithmetic"/><feColorMatrix type="matrix" values="0 0 0 0 0.47451 0 0 0 0 0.262745 0 0 0 0 0.164706 0 0 0 1 0"/><feBlend in2="shape" mode="normal" result="effect1_innerShadow_13036_4646"/></filter><filter id="w" color-interpolation-filters="sRGB" filterUnits="userSpaceOnUse" height=".741" width="2.848" x="17.05" y="8.204"><feFlood flood-opacity="0" result="BackgroundImageFix"/><feBlend in="SourceGraphic" in2="BackgroundImageFix" mode="normal" result="shape"/><feColorMatrix in="SourceAlpha" result="hardAlpha" type="matrix" values="0 0 0 0 0 0 0 0 0 0 0 0 0 0 0 0 0 0 127 0"/><feOffset dx=".2" dy="-.2"/><feGaussianBlur stdDeviation=".15"/><feComposite in2="hardAlpha" k2="-1" k3="1" operator="arithmetic"/><feColorMatrix type="matrix" values="0 0 0 0 0.47451 0 0 0 0 0.262745 0 0 0 0 0.164706 0 0 0 1 0"/><feBlend in2="shape" mode="normal" result="effect1_innerShadow_13036_4646"/></filter><filter id="x" color-interpolation-filters="sRGB" filterUnits="userSpaceOnUse" height=".55" width="2.62" x="17.123" y="8.352"><feFlood flood-opacity="0" result="BackgroundImageFix"/><feBlend in="SourceGraphic" in2="BackgroundImageFix" mode="normal" result="shape"/><feGaussianBlur result="effect1_foregroundBlur_13036_4646" stdDeviation=".075"/></filter><filter id="y" color-interpolation-filters="sRGB" filterUnits="userSpaceOnUse" height=".55" width="2.62" x="12.628" y="8.352"><feFlood flood-opacity="0" result="BackgroundImageFix"/><feBlend in="SourceGraphic" in2="BackgroundImageFix" mode="normal" result="shape"/><feGaussianBlur result="effect1_foregroundBlur_13036_4646" stdDeviation=".075"/></filter><linearGradient id="z" gradientUnits="userSpaceOnUse" x1="20.862" x2="13.911" y1="3.7" y2="16.574"><stop offset="0" stop-color="#ffffbe"/><stop offset="1" stop-color="#e5ae90"/></linearGradient><radialGradient id="A" cx="0" cy="0" gradientTransform="matrix(1.7803845 -3.69773054 8.43106387 4.05939137 20.8616 16.745)" gradientUnits="userSpaceOnUse" r="1"><stop offset="0" stop-color="#f9bfa4"/><stop offset="1" stop-color="#ffc3a8" stop-opacity="0"/></radialGradient><radialGradient id="B" cx="0" cy="0" gradientTransform="matrix(-.1369511 5.64930025 -5.28811637 -.12819523 15.3835 12.6022)" gradientUnits="userSpaceOnUse" r="1"><stop offset=".591" stop-color="#c7897d"/><stop offset="1" stop-color="#c7897d" stop-opacity="0"/></radialGradient><radialGradient id="C" cx="0" cy="0" gradientTransform="matrix(-3.21837945 2.49940128 -3.07663017 -3.96165409 12.8842 13.6294)" gradientUnits="userSpaceOnUse" r="1"><stop offset=".205" stop-color="#cf987b"/><stop offset="1" stop-color="#cf987b" stop-opacity="0"/></radialGradient><radialGradient id="D" cx="0" cy="0" gradientTransform="matrix(-1.04434076 1.48936984 -1.35376491 -.94925508 11.1209 11.0272)" gradientUnits="userSpaceOnUse" r="1"><stop offset=".334" stop-color="#c58e72"/><stop offset="1" stop-color="#c58e72" stop-opacity="0"/></radialGradient><radialGradient id="E" cx="0" cy="0" gradientTransform="matrix(-2.37955444 -.5306726 .78009423 -3.49796973 11.6687 9.50365)" gradientUnits="userSpaceOnUse" r="1"><stop offset=".226" stop-color="#c49070"/><stop offset="1" stop-color="#c49070" stop-opacity="0"/></radialGradient><radialGradient id="F" cx="0" cy="0" gradientTransform="matrix(2.20844366 3.23550397 -5.6463978 3.85403681 12.148 3.06687)" gradientUnits="userSpaceOnUse" r="1"><stop offset="0" stop-color="#dcc893"/><stop offset="1" stop-color="#dcc893" stop-opacity="0"/></radialGradient><radialGradient id="G" cx="0" cy="0" gradientTransform="matrix(-1.12984926 1.23258214 -1.72251303 -1.57894554 21.6834 4.93285)" gradientUnits="userSpaceOnUse" r="1"><stop offset="0" stop-color="#ffffbf"/><stop offset="1" stop-color="#ffffbf" stop-opacity="0"/></radialGradient><radialGradient id="H" cx="0" cy="0" gradientTransform="matrix(-1.88301208 .54781407 -1.19197357 -4.09719417 23.7376 9.93163)" gradientUnits="userSpaceOnUse" r="1"><stop offset="0" stop-color="#fffabe"/><stop offset="1" stop-color="#fffabe" stop-opacity="0"/></radialGradient><radialGradient id="I" cx="0" cy="0" gradientTransform="matrix(-3.21839526 1.36950993 -2.18204735 -5.12788602 23.4638 12.7734)" gradientUnits="userSpaceOnUse" r="1"><stop offset="0" stop-color="#fff4bc"/><stop offset="1" stop-color="#fff4bc" stop-opacity="0"/></radialGradient><radialGradient id="J" cx="0" cy="0" gradientTransform="matrix(0 -6.74992 12.3304 0 16.0683 17.0874)" gradientUnits="userSpaceOnUse" r="1"><stop offset=".321" stop-color="#bd8d6e"/><stop offset="1" stop-color="#ecba98" stop-opacity="0"/></radialGradient><radialGradient id="K" cx="0" cy="0" gradientTransform="matrix(0 7.625 -11.8762 0 16.0018 15.9819)" gradientUnits="userSpaceOnUse" r="1"><stop offset="0" stop-color="#8755a0"/><stop offset="1" stop-color="#9a6aba"/></radialGradient><radialGradient id="L" cx="0" cy="0" gradientTransform="matrix(0 -8.375 8.375 0 22.9429 24.6046)" gradientUnits="userSpaceOnUse" r="1"><stop offset="0" stop-color="#b188e7"/><stop offset="1" stop-color="#a270cc" stop-opacity="0"/></radialGradient><linearGradient id="M" gradientUnits="userSpaceOnUse" x1="16.505" x2="16.505" y1="30.355" y2="26.605"><stop offset="0" stop-color="#7e45bf"/><stop offset="1" stop-color="#7e45bf" stop-opacity="0"/></linearGradient><radialGradient id="N" cx="0" cy="0" gradientTransform="matrix(-5.65625 0 0 -3.18983 15.0054 15.5132)" gradientUnits="userSpaceOnUse" r="1"><stop offset=".225" stop-color="#6f3a5f"/><stop offset="1" stop-color="#6f3a5f" stop-opacity="0"/></radialGradient><radialGradient id="O" cx="0" cy="0" gradientTransform="matrix(2.13455629 -.29350124 1.15244571 8.38143041 24.3873 23.7856)" gradientUnits="userSpaceOnUse" r="1"><stop offset="0" stop-color="#a886e6"/><stop offset="1" stop-color="#9a69b9"/></radialGradient><linearGradient id="P" gradientUnits="userSpaceOnUse" x1="22.8" x2="23.56" y1="22.852" y2="22.798"><stop offset="0" stop-color="#8559af"/><stop offset="1" stop-color="#8559af" stop-opacity="0"/></linearGradient><radialGradient id="Q" cx="0" cy="0" gradientTransform="matrix(2.96169351 .98723411 -1.66762211 5.00285142 5.8967 21.571)" gradientUnits="userSpaceOnUse" r="1"><stop offset="0" stop-color="#8e71af"/><stop offset=".965" stop-color="#795993"/></radialGradient><linearGradient id="R" gradientUnits="userSpaceOnUse" x1="9.63" x2="8.474" y1="23.855" y2="23.761"><stop offset="0" stop-color="#754897"/><stop offset="1" stop-color="#754897" stop-opacity="0"/></linearGradient><radialGradient id="S" cx="0" cy="0" gradientTransform="matrix(.17187425 -4.40624913 .3618718 .01411551 8.55228 24.6046)" gradientUnits="userSpaceOnUse" r="1"><stop offset=".419" stop-color="#7f5b9c"/><stop offset="1" stop-color="#7f5b9c" stop-opacity="0"/></radialGradient><radialGradient id="T" cx="0" cy="0" gradientTransform="matrix(14.39624438 1.34674445 -.12277746 1.3124497 16.6677 24.7615)" gradientUnits="userSpaceOnUse" r="1"><stop offset="0" stop-color="#deab99"/><stop offset="1" stop-color="#e8b39a"/></radialGradient><linearGradient id="U" gradientUnits="userSpaceOnUse" x1="17.493" x2="17.126" y1="29.909" y2="25.468"><stop offset="0" stop-color="#bf8088"/><stop offset="1" stop-color="#bf8088" stop-opacity="0"/></linearGradient><radialGradient id="V" cx="0" cy="0" gradientTransform="matrix(.5391083 1.07078457 -4.3078616 2.16888065 17.4934 26.5367)" gradientUnits="userSpaceOnUse" r="1"><stop offset=".178" stop-color="#a2606c"/><stop offset="1" stop-color="#a2606c" stop-opacity="0"/></radialGradient><radialGradient id="W" cx="0" cy="0" gradientTransform="matrix(-4.1841866 1.99324524 -.46676783 -.97983111 24.7147 23.7525)" gradientUnits="userSpaceOnUse" r="1"><stop offset="0" stop-color="#daa37d"/><stop offset="1" stop-color="#aa8368" stop-opacity="0"/><stop offset="1" stop-color="#daa37d" stop-opacity="0"/></radialGradient><radialGradient id="X" cx="0" cy="0" gradientTransform="matrix(-2.23856816 -3.41282481 9.44296614 -6.19390814 13.4075 24.8574)" gradientUnits="userSpaceOnUse" r="1"><stop offset="0" stop-color="#c49676"/><stop offset=".475" stop-color="#c49676" stop-opacity="0"/></radialGradient><radialGradient id="Y" cx="0" cy="0" gradientTransform="matrix(.59434828 2.55244507 -38.40476687 8.94272209 16.2188 25.242)" gradientUnits="userSpaceOnUse" r="1"><stop offset=".044" stop-color="#f9c6aa"/><stop offset=".198" stop-color="#f1b8a2"/></radialGradient><linearGradient id="Z" gradientUnits="userSpaceOnUse" x1="17.064" x2="16.095" y1="29.909" y2="25.312"><stop offset="0" stop-color="#c07684"/><stop offset="1" stop-color="#c07684" stop-opacity="0"/></linearGradient><radialGradient id="aa" cx="0" cy="0" gradientTransform="matrix(2.62844685 2.05876632 -2.53220703 3.23289318 15.4699 16.5763)" gradientUnits="userSpaceOnUse" r="1"><stop offset=".322" stop-color="#b97b72"/><stop offset="1" stop-color="#dea996"/></radialGradient><linearGradient id="ab" gradientUnits="userSpaceOnUse" x1="9.639" x2="12.662" y1="10.89" y2="10.89"><stop offset="0" stop-color="#c48b78"/><stop offset="1" stop-color="#b47860"/></linearGradient><radialGradient id="ac" cx="0" cy="0" gradientTransform="matrix(2.54218837 -1.15554259 1.41086359 3.10389339 20.1941 11.2498)" gradientUnits="userSpaceOnUse" r="1"><stop offset=".572" stop-color="#e1a792"/><stop offset=".905" stop-color="#f6c3a3"/></radialGradient><radialGradient id="ad" cx="0" cy="0" gradientTransform="matrix(1.01859037 .2910259 -.15300322 .53551114 21.2383 8.98153)" gradientUnits="userSpaceOnUse" r="1"><stop offset="0" stop-color="#d59566"/><stop offset="1" stop-color="#d59566" stop-opacity="0"/></radialGradient><radialGradient id="ae" cx="0" cy="0" gradientTransform="matrix(1.24969072 -.46221512 .46221512 1.24969072 20.7591 11.0444)" gradientUnits="userSpaceOnUse" r="1"><stop offset=".71" stop-color="#e3a280" stop-opacity="0"/><stop offset="1" stop-color="#e3a280"/></radialGradient><radialGradient id="af" cx="0" cy="0" gradientTransform="matrix(-1.24283 0 0 -1.18885 11.3024 10.8013)" gradientUnits="userSpaceOnUse" r="1"><stop offset=".573" stop-color="#b0725a" stop-opacity="0"/><stop offset="1" stop-color="#b0725a"/></radialGradient><radialGradient id="ag" cx="0" cy="0" gradientTransform="matrix(-6.6424015 3.0630325 -4.09981503 -8.89073738 18.9888 10.2523)" gradientUnits="userSpaceOnUse" r="1"><stop offset="0" stop-color="#ffc59d"/><stop offset="1" stop-color="#d39b88"/></radialGradient><radialGradient id="ah" cx="0" cy="0" gradientTransform="matrix(-2.15477121 1.13973726 -.96698335 -1.8281651 18.0093 10.9646)" gradientUnits="userSpaceOnUse" r="1"><stop offset="0" stop-color="#ffc89e"/><stop offset="1" stop-color="#ffc89e" stop-opacity="0"/></radialGradient><radialGradient id="ai" cx="0" cy="0" gradientTransform="matrix(.85479121 -4.13147966 5.24207837 1.08457088 13.8422 17.1796)" gradientUnits="userSpaceOnUse" r="1"><stop offset="0" stop-color="#b97783"/><stop offset="1" stop-color="#b97783" stop-opacity="0"/></radialGradient><radialGradient id="aj" cx="0" cy="0" gradientTransform="matrix(0 7.05158 -8.47508 0 16.3791 10.2173)" gradientUnits="userSpaceOnUse" r="1"><stop offset=".46" stop-color="#dca38d" stop-opacity="0"/><stop offset="1" stop-color="#b57476"/></radialGradient><radialGradient id="ak" cx="0" cy="0" gradientTransform="matrix(-5.85473486 .78742951 -1.35570983 -10.08004085 16.719 12.6364)" gradientUnits="userSpaceOnUse" r="1"><stop offset=".813" stop-color="#e3ab91" stop-opacity="0"/><stop offset="1" stop-color="#e3ab91"/></radialGradient><radialGradient id="al" cx="0" cy="0" gradientTransform="matrix(0 -1.17533 1.68968 0 18.4189 9.82487)" gradientUnits="userSpaceOnUse" r="1"><stop offset=".259" stop-color="#e3a48e"/><stop offset="1" stop-color="#e3a48e" stop-opacity="0"/></radialGradient><radialGradient id="am" cx="0" cy="0" gradientTransform="matrix(0 -1.38903 1.59192 0 14.1093 9.91391)" gradientUnits="userSpaceOnUse" r="1"><stop offset="0" stop-color="#c2847a"/><stop offset="1" stop-color="#c2847a" stop-opacity="0"/></radialGradient><radialGradient id="an" cx="0" cy="0" gradientTransform="matrix(-1.3757 0 0 -4.52886 21.2727 11.3442)" gradientUnits="userSpaceOnUse" r="1"><stop offset="0" stop-color="#f4c099"/><stop offset="1" stop-color="#f4c099" stop-opacity="0"/></radialGradient><radialGradient id="ao" cx="0" cy="0" gradientTransform="matrix(-.71234461 -2.50203103 1.43169542 -.40761305 16.8694 12.0865)" gradientUnits="userSpaceOnUse" r="1"><stop offset=".017" stop-color="#fdc9a8"/><stop offset="1" stop-color="#fdc9a8" stop-opacity="0"/></radialGradient><linearGradient id="ap" gradientUnits="userSpaceOnUse" x1="15" x2="15.872" y1="12.104" y2="12.211"><stop offset="0" stop-color="#d1987a"/><stop offset="1" stop-color="#d1987a" stop-opacity="0"/></linearGradient><linearGradient id="aq" gradientUnits="userSpaceOnUse" x1="16.068" x2="16.068" y1="12.977" y2="12.354"><stop offset="0" stop-color="#c57f82"/><stop offset="1" stop-color="#c57f82" stop-opacity="0"/></linearGradient><linearGradient id="ar" gradientUnits="userSpaceOnUse" x1="16.148" x2="16.148" y1="12.95" y2="12.808"><stop offset="0" stop-color="#c27b7c"/><stop offset="1" stop-color="#c27b7c" stop-opacity="0"/></linearGradient><radialGradient id="as" cx="0" cy="0" gradientTransform="matrix(-1.30889317 .93493481 -1.25227011 -1.75315731 16.3619 11.7214)" gradientUnits="userSpaceOnUse" r="1"><stop offset=".797" stop-color="#c27b7c" stop-opacity="0"/><stop offset="1" stop-color="#c27b7c"/></radialGradient><linearGradient id="at"><stop offset=".802" stop-color="#925c51"/><stop offset="1" stop-color="#694b43"/><stop offset="1" stop-color="#804d49"/><stop offset="1" stop-color="#85534d"/></linearGradient><radialGradient id="au" cx="0" cy="0" gradientTransform="matrix(0 .828634 -1.31804 0 18.2969 10.1915)" gradientUnits="userSpaceOnUse" r="1" xlink:href="#at"/><linearGradient id="av"><stop offset=".766" stop-color="#ffe6e2" stop-opacity="0"/><stop offset=".966" stop-color="#ffe6e2"/></linearGradient><radialGradient id="aw" cx="0" cy="0" gradientTransform="matrix(-.23686732 -.30523548 .4202357 -.32610922 18.0638 10.2774)" gradientUnits="userSpaceOnUse" r="1" xlink:href="#av"/><linearGradient id="ax"><stop offset="0" stop-color="#b4948d"/><stop offset="1" stop-color="#b4948d" stop-opacity="0"/></linearGradient><linearGradient id="ay" gradientUnits="userSpaceOnUse" x1="19.091" x2="18.771" xlink:href="#ax" y1="10.246" y2="10.444"/><radialGradient id="az" cx="0" cy="0" gradientTransform="matrix(0 .828639 -1.31804 0 13.8396 10.1914)" gradientUnits="userSpaceOnUse" r="1" xlink:href="#at"/><linearGradient id="aA" gradientUnits="userSpaceOnUse" x1="14.599" x2="14.279" xlink:href="#ax" y1="10.246" y2="10.444"/><radialGradient id="aB" cx="0" cy="0" gradientTransform="matrix(-.00790054 -.50460515 .60655666 -.00949679 13.5472 10.4153)" gradientUnits="userSpaceOnUse" r="1" xlink:href="#av"/><radialGradient id="aC" cx="0" cy="0" gradientTransform="matrix(1.97616521 2.7390532 -5.442505 3.92664481 9.98353 4.41927)" gradientUnits="userSpaceOnUse" r="1"><stop offset=".403" stop-color="#daa88f" stop-opacity="0"/><stop offset="1" stop-color="#daa88f"/></radialGradient><radialGradient id="aD" cx="0" cy="0" gradientTransform="matrix(-1.91742309 2.53363295 -1.98702707 -1.5037583 13.2951 4.65893)" gradientUnits="userSpaceOnUse" r="1"><stop offset="0" stop-color="#fee2a9"/><stop offset="1" stop-color="#fee2a9" stop-opacity="0"/></radialGradient><radialGradient id="aE" cx="0" cy="0" gradientTransform="matrix(-2.15703415 4.48519078 -6.37776084 -3.06721578 18.0199 2.70736)" gradientUnits="userSpaceOnUse" r="1"><stop offset=".595" stop-color="#f0c6a3" stop-opacity="0"/><stop offset="1" stop-color="#f0c6a3"/></radialGradient><radialGradient id="aF" cx="0" cy="0" gradientTransform="matrix(-.87508079 3.27567747 -5.84718887 -1.56204715 18.4308 3.9057)" gradientUnits="userSpaceOnUse" r="1"><stop offset="0" stop-color="#ffffc0"/><stop offset="1" stop-color="#ffffc0" stop-opacity="0"/></radialGradient><radialGradient id="aG" cx="0" cy="0" gradientTransform="matrix(-3.57796413 -6.43679 5.76184471 -3.20278798 17.3865 9.48652)" gradientUnits="userSpaceOnUse" r="1"><stop offset=".891" stop-color="#dac493" stop-opacity="0"/><stop offset=".979" stop-color="#dac493"/></radialGradient><linearGradient id="aH" gradientUnits="userSpaceOnUse" x1="13.116" x2="13.672" y1="4.471" y2="5.772"><stop offset="0" stop-color="#ebce91"/><stop offset="1" stop-color="#e6bd9f"/></linearGradient><radialGradient id="aI" cx="0" cy="0" gradientTransform="matrix(-.13671781 .26953216 -.83287653 -.42246927 16.6614 14.1194)" gradientUnits="userSpaceOnUse" r="1"><stop offset=".236" stop-color="#dda596"/><stop offset="1" stop-color="#dda596" stop-opacity="0"/></radialGradient><radialGradient id="aJ" cx="0" cy="0" gradientTransform="matrix(.16015595 -.09765605 .11816381 .19378869 14.927 14.2444)" gradientUnits="userSpaceOnUse" r="1"><stop offset="0" stop-color="#dda596"/><stop offset="1" stop-color="#dda596" stop-opacity="0"/></radialGradient><radialGradient id="aK" cx="0" cy="0" gradientTransform="matrix(.45361486 -.42146593 .49907725 .53714629 15.9283 15.0703)" gradientUnits="userSpaceOnUse" r="1"><stop offset="0" stop-color="#cf9382"/><stop offset="1" stop-color="#c78572"/></radialGradient><g clip-rule="evenodd" fill-rule="evenodd" filter="url(#a)"><path d="m23.4069 12.2411c.217-.4445.3307-.9406.3307-1.4574 0-.4773-.0982-.92514-.2743-1.33336h.0055c-.0822-.18485-.1745-.3595-.2872-.52395l-.0021-.00319c-.3514-.53748-.5375-1.16798-.5375-1.80881v-.01034c0-1.86049-1.5091-3.36955-3.3695-3.36955-.1861 0-.3618-.08269-.4652-.23773-.6098-.84756-1.6125-1.40571-2.7391-1.40571-1.1267 0-2.1293.55815-2.7391 1.40571-.1033.1447-.2791.23773-.4651.23773-.029 0-.058.00037-.0868.0011-1.8204.04609-3.28276 1.537-3.28276 3.36845v.01034c0 .64083-.18605 1.27133-.53747 1.80881l-.00235.00375c-.34993.53666-.55569 1.16585-.55569 1.85675 0 .5271.12403 1.0129.33075 1.4574.07235.1447.07235.3204 0 .4651-.20672.4341-.33075.9199-.33075 1.4367 0 1.8192 1.46772 3.2869 3.28687 3.2869h8.765c1.8191 0 3.2868-1.4677 3.2868-3.2869 0-.5168-.124-1.0026-.3307-1.4367-.0724-.1447-.0724-.3204 0-.4651zm-12.5219-2.72947h-.0126l1.2243 2.40577c.126 2.8624 1.243 0 3.9715 0 2.7284 0 3.9182 3.186 4.0442.3237l1.1601-3.26541c-.0549-1.2714-.9762-1.36064-1.1601-1.36064h-3.2888c-1.2987 0-2.5241-.63567-3.2573-1.70901-.1257-.17715-.3875-.14589-.4713.05211l-.0838.19799c-.2304.57314-.6703 1.01082-1.215 1.26092-.0157.00521-.034.01302-.0523.02084-.0184.00781-.0367.01563-.0524.02084-.2409.12505-.8065.5002-.8274 1.46933l.0104.31262z" fill="url(#z)"/><path d="m23.4069 12.2411c.217-.4445.3307-.9406.3307-1.4574 0-.4773-.0982-.92514-.2743-1.33336h.0055c-.0822-.18485-.1745-.3595-.2872-.52395l-.0021-.00319c-.3514-.53748-.5375-1.16798-.5375-1.80881v-.01034c0-1.86049-1.5091-3.36955-3.3695-3.36955-.1861 0-.3618-.08269-.4652-.23773-.6098-.84756-1.6125-1.40571-2.7391-1.40571-1.1267 0-2.1293.55815-2.7391 1.40571-.1033.1447-.2791.23773-.4651.23773-.029 0-.058.00037-.0868.0011-1.8204.04609-3.28276 1.537-3.28276 3.36845v.01034c0 .64083-.18605 1.27133-.53747 1.80881l-.00235.00375c-.34993.53666-.55569 1.16585-.55569 1.85675 0 .5271.12403 1.0129.33075 1.4574.07235.1447.07235.3204 0 .4651-.20672.4341-.33075.9199-.33075 1.4367 0 1.8192 1.46772 3.2869 3.28687 3.2869h8.765c1.8191 0 3.2868-1.4677 3.2868-3.2869 0-.5168-.124-1.0026-.3307-1.4367-.0724-.1447-.0724-.3204 0-.4651zm-12.5219-2.72947h-.0126l1.2243 2.40577c.126 2.8624 1.243 0 3.9715 0 2.7284 0 3.9182 3.186 4.0442.3237l1.1601-3.26541c-.0549-1.2714-.9762-1.36064-1.1601-1.36064h-3.2888c-1.2987 0-2.5241-.63567-3.2573-1.70901-.1257-.17715-.3875-.14589-.4713.05211l-.0838.19799c-.2304.57314-.6703 1.01082-1.215 1.26092-.0157.00521-.034.01302-.0523.02084-.0184.00781-.0367.01563-.0524.02084-.2409.12505-.8065.5002-.8274 1.46933l.0104.31262z" fill="url(#A)"/><path d="m23.4069 12.2411c.217-.4445.3307-.9406.3307-1.4574 0-.4773-.0982-.92514-.2743-1.33336h.0055c-.0822-.18485-.1745-.3595-.2872-.52395l-.0021-.00319c-.3514-.53748-.5375-1.16798-.5375-1.80881v-.01034c0-1.86049-1.5091-3.36955-3.3695-3.36955-.1861 0-.3618-.08269-.4652-.23773-.6098-.84756-1.6125-1.40571-2.7391-1.40571-1.1267 0-2.1293.55815-2.7391 1.40571-.1033.1447-.2791.23773-.4651.23773-.029 0-.058.00037-.0868.0011-1.8204.04609-3.28276 1.537-3.28276 3.36845v.01034c0 .64083-.18605 1.27133-.53747 1.80881l-.00235.00375c-.34993.53666-.55569 1.16585-.55569 1.85675 0 .5271.12403 1.0129.33075 1.4574.07235.1447.07235.3204 0 .4651-.20672.4341-.33075.9199-.33075 1.4367 0 1.8192 1.46772 3.2869 3.28687 3.2869h8.765c1.8191 0 3.2868-1.4677 3.2868-3.2869 0-.5168-.124-1.0026-.3307-1.4367-.0724-.1447-.0724-.3204 0-.4651zm-12.5219-2.72947h-.0126l1.2243 2.40577c.126 2.8624 1.243 0 3.9715 0 2.7284 0 3.9182 3.186 4.0442.3237l1.1601-3.26541c-.0549-1.2714-.9762-1.36064-1.1601-1.36064h-3.2888c-1.2987 0-2.5241-.63567-3.2573-1.70901-.1257-.17715-.3875-.14589-.4713.05211l-.0838.19799c-.2304.57314-.6703 1.01082-1.215 1.26092-.0157.00521-.034.01302-.0523.02084-.0184.00781-.0367.01563-.0524.02084-.2409.12505-.8065.5002-.8274 1.46933l.0104.31262z" fill="url(#B)"/><path d="m23.4069 12.2411c.217-.4445.3307-.9406.3307-1.4574 0-.4773-.0982-.92514-.2743-1.33336h.0055c-.0822-.18485-.1745-.3595-.2872-.52395l-.0021-.00319c-.3514-.53748-.5375-1.16798-.5375-1.80881v-.01034c0-1.86049-1.5091-3.36955-3.3695-3.36955-.1861 0-.3618-.08269-.4652-.23773-.6098-.84756-1.6125-1.40571-2.7391-1.40571-1.1267 0-2.1293.55815-2.7391 1.40571-.1033.1447-.2791.23773-.4651.23773-.029 0-.058.00037-.0868.0011-1.8204.04609-3.28276 1.537-3.28276 3.36845v.01034c0 .64083-.18605 1.27133-.53747 1.80881l-.00235.00375c-.34993.53666-.55569 1.16585-.55569 1.85675 0 .5271.12403 1.0129.33075 1.4574.07235.1447.07235.3204 0 .4651-.20672.4341-.33075.9199-.33075 1.4367 0 1.8192 1.46772 3.2869 3.28687 3.2869h8.765c1.8191 0 3.2868-1.4677 3.2868-3.2869 0-.5168-.124-1.0026-.3307-1.4367-.0724-.1447-.0724-.3204 0-.4651zm-12.5219-2.72947h-.0126l1.2243 2.40577c.126 2.8624 1.243 0 3.9715 0 2.7284 0 3.9182 3.186 4.0442.3237l1.1601-3.26541c-.0549-1.2714-.9762-1.36064-1.1601-1.36064h-3.2888c-1.2987 0-2.5241-.63567-3.2573-1.70901-.1257-.17715-.3875-.14589-.4713.05211l-.0838.19799c-.2304.57314-.6703 1.01082-1.215 1.26092-.0157.00521-.034.01302-.0523.02084-.0184.00781-.0367.01563-.0524.02084-.2409.12505-.8065.5002-.8274 1.46933l.0104.31262z" fill="url(#C)"/><path d="m23.4069 12.2411c.217-.4445.3307-.9406.3307-1.4574 0-.4773-.0982-.92514-.2743-1.33336h.0055c-.0822-.18485-.1745-.3595-.2872-.52395l-.0021-.00319c-.3514-.53748-.5375-1.16798-.5375-1.80881v-.01034c0-1.86049-1.5091-3.36955-3.3695-3.36955-.1861 0-.3618-.08269-.4652-.23773-.6098-.84756-1.6125-1.40571-2.7391-1.40571-1.1267 0-2.1293.55815-2.7391 1.40571-.1033.1447-.2791.23773-.4651.23773-.029 0-.058.00037-.0868.0011-1.8204.04609-3.28276 1.537-3.28276 3.36845v.01034c0 .64083-.18605 1.27133-.53747 1.80881l-.00235.00375c-.34993.53666-.55569 1.16585-.55569 1.85675 0 .5271.12403 1.0129.33075 1.4574.07235.1447.07235.3204 0 .4651-.20672.4341-.33075.9199-.33075 1.4367 0 1.8192 1.46772 3.2869 3.28687 3.2869h8.765c1.8191 0 3.2868-1.4677 3.2868-3.2869 0-.5168-.124-1.0026-.3307-1.4367-.0724-.1447-.0724-.3204 0-.4651zm-12.5219-2.72947h-.0126l1.2243 2.40577c.126 2.8624 1.243 0 3.9715 0 2.7284 0 3.9182 3.186 4.0442.3237l1.1601-3.26541c-.0549-1.2714-.9762-1.36064-1.1601-1.36064h-3.2888c-1.2987 0-2.5241-.63567-3.2573-1.70901-.1257-.17715-.3875-.14589-.4713.05211l-.0838.19799c-.2304.57314-.6703 1.01082-1.215 1.26092-.0157.00521-.034.01302-.0523.02084-.0184.00781-.0367.01563-.0524.02084-.2409.12505-.8065.5002-.8274 1.46933l.0104.31262z" fill="url(#D)"/><path d="m23.4069 12.2411c.217-.4445.3307-.9406.3307-1.4574 0-.4773-.0982-.92514-.2743-1.33336h.0055c-.0822-.18485-.1745-.3595-.2872-.52395l-.0021-.00319c-.3514-.53748-.5375-1.16798-.5375-1.80881v-.01034c0-1.86049-1.5091-3.36955-3.3695-3.36955-.1861 0-.3618-.08269-.4652-.23773-.6098-.84756-1.6125-1.40571-2.7391-1.40571-1.1267 0-2.1293.55815-2.7391 1.40571-.1033.1447-.2791.23773-.4651.23773-.029 0-.058.00037-.0868.0011-1.8204.04609-3.28276 1.537-3.28276 3.36845v.01034c0 .64083-.18605 1.27133-.53747 1.80881l-.00235.00375c-.34993.53666-.55569 1.16585-.55569 1.85675 0 .5271.12403 1.0129.33075 1.4574.07235.1447.07235.3204 0 .4651-.20672.4341-.33075.9199-.33075 1.4367 0 1.8192 1.46772 3.2869 3.28687 3.2869h8.765c1.8191 0 3.2868-1.4677 3.2868-3.2869 0-.5168-.124-1.0026-.3307-1.4367-.0724-.1447-.0724-.3204 0-.4651zm-12.5219-2.72947h-.0126l1.2243 2.40577c.126 2.8624 1.243 0 3.9715 0 2.7284 0 3.9182 3.186 4.0442.3237l1.1601-3.26541c-.0549-1.2714-.9762-1.36064-1.1601-1.36064h-3.2888c-1.2987 0-2.5241-.63567-3.2573-1.70901-.1257-.17715-.3875-.14589-.4713.05211l-.0838.19799c-.2304.57314-.6703 1.01082-1.215 1.26092-.0157.00521-.034.01302-.0523.02084-.0184.00781-.0367.01563-.0524.02084-.2409.12505-.8065.5002-.8274 1.46933l.0104.31262z" fill="url(#E)"/><path d="m23.4069 12.2411c.217-.4445.3307-.9406.3307-1.4574 0-.4773-.0982-.92514-.2743-1.33336h.0055c-.0822-.18485-.1745-.3595-.2872-.52395l-.0021-.00319c-.3514-.53748-.5375-1.16798-.5375-1.80881v-.01034c0-1.86049-1.5091-3.36955-3.3695-3.36955-.1861 0-.3618-.08269-.4652-.23773-.6098-.84756-1.6125-1.40571-2.7391-1.40571-1.1267 0-2.1293.55815-2.7391 1.40571-.1033.1447-.2791.23773-.4651.23773-.029 0-.058.00037-.0868.0011-1.8204.04609-3.28276 1.537-3.28276 3.36845v.01034c0 .64083-.18605 1.27133-.53747 1.80881l-.00235.00375c-.34993.53666-.55569 1.16585-.55569 1.85675 0 .5271.12403 1.0129.33075 1.4574.07235.1447.07235.3204 0 .4651-.20672.4341-.33075.9199-.33075 1.4367 0 1.8192 1.46772 3.2869 3.28687 3.2869h8.765c1.8191 0 3.2868-1.4677 3.2868-3.2869 0-.5168-.124-1.0026-.3307-1.4367-.0724-.1447-.0724-.3204 0-.4651zm-12.5219-2.72947h-.0126l1.2243 2.40577c.126 2.8624 1.243 0 3.9715 0 2.7284 0 3.9182 3.186 4.0442.3237l1.1601-3.26541c-.0549-1.2714-.9762-1.36064-1.1601-1.36064h-3.2888c-1.2987 0-2.5241-.63567-3.2573-1.70901-.1257-.17715-.3875-.14589-.4713.05211l-.0838.19799c-.2304.57314-.6703 1.01082-1.215 1.26092-.0157.00521-.034.01302-.0523.02084-.0184.00781-.0367.01563-.0524.02084-.2409.12505-.8065.5002-.8274 1.46933l.0104.31262z" fill="url(#F)"/><path d="m23.4069 12.2411c.217-.4445.3307-.9406.3307-1.4574 0-.4773-.0982-.92514-.2743-1.33336h.0055c-.0822-.18485-.1745-.3595-.2872-.52395l-.0021-.00319c-.3514-.53748-.5375-1.16798-.5375-1.80881v-.01034c0-1.86049-1.5091-3.36955-3.3695-3.36955-.1861 0-.3618-.08269-.4652-.23773-.6098-.84756-1.6125-1.40571-2.7391-1.40571-1.1267 0-2.1293.55815-2.7391 1.40571-.1033.1447-.2791.23773-.4651.23773-.029 0-.058.00037-.0868.0011-1.8204.04609-3.28276 1.537-3.28276 3.36845v.01034c0 .64083-.18605 1.27133-.53747 1.80881l-.00235.00375c-.34993.53666-.55569 1.16585-.55569 1.85675 0 .5271.12403 1.0129.33075 1.4574.07235.1447.07235.3204 0 .4651-.20672.4341-.33075.9199-.33075 1.4367 0 1.8192 1.46772 3.2869 3.28687 3.2869h8.765c1.8191 0 3.2868-1.4677 3.2868-3.2869 0-.5168-.124-1.0026-.3307-1.4367-.0724-.1447-.0724-.3204 0-.4651zm-12.5219-2.72947h-.0126l1.2243 2.40577c.126 2.8624 1.243 0 3.9715 0 2.7284 0 3.9182 3.186 4.0442.3237l1.1601-3.26541c-.0549-1.2714-.9762-1.36064-1.1601-1.36064h-3.2888c-1.2987 0-2.5241-.63567-3.2573-1.70901-.1257-.17715-.3875-.14589-.4713.05211l-.0838.19799c-.2304.57314-.6703 1.01082-1.215 1.26092-.0157.00521-.034.01302-.0523.02084-.0184.00781-.0367.01563-.0524.02084-.2409.12505-.8065.5002-.8274 1.46933l.0104.31262z" fill="url(#G)"/><path d="m23.4069 12.2411c.217-.4445.3307-.9406.3307-1.4574 0-.4773-.0982-.92514-.2743-1.33336h.0055c-.0822-.18485-.1745-.3595-.2872-.52395l-.0021-.00319c-.3514-.53748-.5375-1.16798-.5375-1.80881v-.01034c0-1.86049-1.5091-3.36955-3.3695-3.36955-.1861 0-.3618-.08269-.4652-.23773-.6098-.84756-1.6125-1.40571-2.7391-1.40571-1.1267 0-2.1293.55815-2.7391 1.40571-.1033.1447-.2791.23773-.4651.23773-.029 0-.058.00037-.0868.0011-1.8204.04609-3.28276 1.537-3.28276 3.36845v.01034c0 .64083-.18605 1.27133-.53747 1.80881l-.00235.00375c-.34993.53666-.55569 1.16585-.55569 1.85675 0 .5271.12403 1.0129.33075 1.4574.07235.1447.07235.3204 0 .4651-.20672.4341-.33075.9199-.33075 1.4367 0 1.8192 1.46772 3.2869 3.28687 3.2869h8.765c1.8191 0 3.2868-1.4677 3.2868-3.2869 0-.5168-.124-1.0026-.3307-1.4367-.0724-.1447-.0724-.3204 0-.4651zm-12.5219-2.72947h-.0126l1.2243 2.40577c.126 2.8624 1.243 0 3.9715 0 2.7284 0 3.9182 3.186 4.0442.3237l1.1601-3.26541c-.0549-1.2714-.9762-1.36064-1.1601-1.36064h-3.2888c-1.2987 0-2.5241-.63567-3.2573-1.70901-.1257-.17715-.3875-.14589-.4713.05211l-.0838.19799c-.2304.57314-.6703 1.01082-1.215 1.26092-.0157.00521-.034.01302-.0523.02084-.0184.00781-.0367.01563-.0524.02084-.2409.12505-.8065.5002-.8274 1.46933l.0104.31262z" fill="url(#H)"/><path d="m23.4069 12.2411c.217-.4445.3307-.9406.3307-1.4574 0-.4773-.0982-.92514-.2743-1.33336h.0055c-.0822-.18485-.1745-.3595-.2872-.52395l-.0021-.00319c-.3514-.53748-.5375-1.16798-.5375-1.80881v-.01034c0-1.86049-1.5091-3.36955-3.3695-3.36955-.1861 0-.3618-.08269-.4652-.23773-.6098-.84756-1.6125-1.40571-2.7391-1.40571-1.1267 0-2.1293.55815-2.7391 1.40571-.1033.1447-.2791.23773-.4651.23773-.029 0-.058.00037-.0868.0011-1.8204.04609-3.28276 1.537-3.28276 3.36845v.01034c0 .64083-.18605 1.27133-.53747 1.80881l-.00235.00375c-.34993.53666-.55569 1.16585-.55569 1.85675 0 .5271.12403 1.0129.33075 1.4574.07235.1447.07235.3204 0 .4651-.20672.4341-.33075.9199-.33075 1.4367 0 1.8192 1.46772 3.2869 3.28687 3.2869h8.765c1.8191 0 3.2868-1.4677 3.2868-3.2869 0-.5168-.124-1.0026-.3307-1.4367-.0724-.1447-.0724-.3204 0-.4651zm-12.5219-2.72947h-.0126l1.2243 2.40577c.126 2.8624 1.243 0 3.9715 0 2.7284 0 3.9182 3.186 4.0442.3237l1.1601-3.26541c-.0549-1.2714-.9762-1.36064-1.1601-1.36064h-3.2888c-1.2987 0-2.5241-.63567-3.2573-1.70901-.1257-.17715-.3875-.14589-.4713.05211l-.0838.19799c-.2304.57314-.6703 1.01082-1.215 1.26092-.0157.00521-.034.01302-.0523.02084-.0184.00781-.0367.01563-.0524.02084-.2409.12505-.8065.5002-.8274 1.46933l.0104.31262z" fill="url(#I)"/></g><path clip-rule="evenodd" d="m23.4069 12.2411c.217-.4445.3307-.9406.3307-1.4574 0-.4773-.0982-.92514-.2743-1.33336h.0055c-.0822-.18485-.1745-.3595-.2872-.52395l-.0021-.00319c-.3514-.53748-.5375-1.16798-.5375-1.80881v-.01034c0-1.86049-1.5091-3.36955-3.3695-3.36955-.1861 0-.3618-.08269-.4652-.23773-.6098-.84756-1.6125-1.40571-2.7391-1.40571-1.1267 0-2.1293.55815-2.7391 1.40571-.1033.1447-.2791.23773-.4651.23773-.029 0-.058.00037-.0868.0011-1.8204.04609-3.28276 1.537-3.28276 3.36845v.01034c0 .64083-.18605 1.27133-.53747 1.80881l-.00235.00375c-.34993.53666-.55569 1.16585-.55569 1.85675 0 .5271.12403 1.0129.33075 1.4574.07235.1447.07235.3204 0 .4651-.20672.4341-.33075.9199-.33075 1.4367 0 1.8192 1.46772 3.2869 3.28687 3.2869h8.765c1.8191 0 3.2868-1.4677 3.2868-3.2869 0-.5168-.124-1.0026-.3307-1.4367-.0724-.1447-.0724-.3204 0-.4651zm-12.5219-2.72947h-.0126l1.2243 2.40577c.126 2.8624 1.243 0 3.9715 0 2.7284 0 3.9182 3.186 4.0442.3237l1.1601-3.26541c-.0549-1.2714-.9762-1.36064-1.1601-1.36064h-3.2888c-1.2987 0-2.5241-.63567-3.2573-1.70901-.1257-.17715-.3875-.14589-.4713.05211l-.0838.19799c-.2304.57314-.6703 1.01082-1.215 1.26092-.0157.00521-.034.01302-.0523.02084-.0184.00781-.0367.01563-.0524.02084-.2409.12505-.8065.5002-.8274 1.46933l.0104.31262z" fill="url(#J)" fill-rule="evenodd"/><path d="m9.15684 24.6694-3.90538.1835c.57745-5.253 5.02974-9.3397 10.43664-9.3397h.625c5.4144 0 9.8717 4.0982 10.439 9.3619l-4.377-.2057v5.1875h-13.21826z" fill="url(#K)"/><path d="m9.15684 24.6694-3.90538.1835c.57745-5.253 5.02974-9.3397 10.43664-9.3397h.625c5.4144 0 9.8717 4.0982 10.439 9.3619l-4.377-.2057v5.1875h-13.21826z" fill="url(#L)"/><path d="m9.15684 24.6694-3.90538.1835c.57745-5.253 5.02974-9.3397 10.43664-9.3397h.625c5.4144 0 9.8717 4.0982 10.439 9.3619l-4.377-.2057v5.1875h-13.21826z" fill="url(#M)"/><path d="m9.15684 24.6694-3.90538.1835c.57745-5.253 5.02974-9.3397 10.43664-9.3397h.625c5.4144 0 9.8717 4.0982 10.439 9.3619l-4.377-.2057v5.1875h-13.21826z" fill="url(#N)"/><path d="m22.925 17.856c2.0951 1.7003 3.5224 4.1915 3.8271 7.0191l-3.8271-.1798z" fill="url(#O)"/><path d="m22.925 17.856c2.0951 1.7003 3.5224 4.1915 3.8271 7.0191l-3.8271-.1798z" fill="url(#P)"/><path d="m5.25146 24.8529 3.84681-.16.05859.1822h.03125v-7.1087c-2.15063 1.6974-3.62134 4.2181-3.93665 7.0865z" fill="url(#Q)"/><path d="m5.25146 24.8529 3.84681-.16.05859.1822h.03125v-7.1087c-2.15063 1.6974-3.62134 4.2181-3.93665 7.0865z" fill="url(#R)"/><path d="m5.25146 24.8529 3.84681-.16.05859.1822h.03125v-7.1087c-2.15063 1.6974-3.62134 4.2181-3.93665 7.0865z" fill="url(#S)"/><g filter="url(#b)"><path d="m26.3744 28.4507c.6-1.05.4531-2.8125.375-3.5977l-3.9375-.1679c-.4125.2125-1.526.0885-2.0313 0l-8.8973-1.4063c-.6172-.1172-2.09651-.2317-2.77344.1328-.76562.4123-1 1.1927-.9375 1.5781 4.27084 1.5313 12.63174 4.5625 13.75674 4.8125 1.8203.3125 3.6953-.039 4.4453-1.3515z" fill="url(#T)"/><path d="m26.3744 28.4507c.6-1.05.4531-2.8125.375-3.5977l-3.9375-.1679c-.4125.2125-1.526.0885-2.0313 0l-8.8973-1.4063c-.6172-.1172-2.09651-.2317-2.77344.1328-.76562.4123-1 1.1927-.9375 1.5781 4.27084 1.5313 12.63174 4.5625 13.75674 4.8125 1.8203.3125 3.6953-.039 4.4453-1.3515z" fill="url(#U)"/></g><path d="m26.3744 28.4507c.6-1.05.4531-2.8125.375-3.5977l-3.9375-.1679c-.4125.2125-1.526.0885-2.0313 0l-8.8973-1.4063c-.6172-.1172-2.09651-.2317-2.77344.1328-.76562.4123-1 1.1927-.9375 1.5781 4.27084 1.5313 12.63174 4.5625 13.75674 4.8125 1.8203.3125 3.6953-.039 4.4453-1.3515z" fill="url(#V)"/><path d="m26.3744 28.4507c.6-1.05.4531-2.8125.375-3.5977l-3.9375-.1679c-.4125.2125-1.526.0885-2.0313 0l-8.8973-1.4063c-.6172-.1172-2.09651-.2317-2.77344.1328-.76562.4123-1 1.1927-.9375 1.5781 4.27084 1.5313 12.63174 4.5625 13.75674 4.8125 1.8203.3125 3.6953-.039 4.4453-1.3515z" fill="url(#W)"/><path d="m26.3744 28.4507c.6-1.05.4531-2.8125.375-3.5977l-3.9375-.1679c-.4125.2125-1.526.0885-2.0313 0l-8.8973-1.4063c-.6172-.1172-2.09651-.2317-2.77344.1328-.76562.4123-1 1.1927-.9375 1.5781 4.27084 1.5313 12.63174 4.5625 13.75674 4.8125 1.8203.3125 3.6953-.039 4.4453-1.3515z" fill="url(#X)"/><g filter="url(#c)"><path d="m5.6256 28.4507c-.6-1.05-.45314-2.8125-.375-3.5977l3.93751-.168c.4125.2125 1.52599.0886 2.03129 0l9.6718-1.5624c.6172-.1172 1.4481-.177 2.125.1875.7282.3921.7002.9653.642 1.352-.0054.036-.0291.0653-.0633.0776-4.2855 1.5395-12.4037 4.8136-13.524 5.0625-1.82029.3125-3.6953-.039-4.4453-1.3515z" fill="url(#Y)"/><path d="m5.6256 28.4507c-.6-1.05-.45314-2.8125-.375-3.5977l3.93751-.168c.4125.2125 1.52599.0886 2.03129 0l9.6718-1.5624c.6172-.1172 1.4481-.177 2.125.1875.7282.3921.7002.9653.642 1.352-.0054.036-.0291.0653-.0633.0776-4.2855 1.5395-12.4037 4.8136-13.524 5.0625-1.82029.3125-3.6953-.039-4.4453-1.3515z" fill="url(#Z)"/></g><rect fill="url(#aa)" height="6.028" rx="2.111" width="4.223" x="13.876" y="12.607"/><g filter="url(#d)"><path d="m11.2826 12.4447c.9076 0 1.6434-.7358 1.6434-1.6434 0-.90767-.7358-1.64346-1.6434-1.64346s-1.64344.73579-1.64344 1.64346c0 .9076.73584 1.6434 1.64344 1.6434z" fill="url(#ab)"/></g><g filter="url(#e)"><path d="m20.9987 12.4447c.9076 0 1.6434-.7358 1.6434-1.6434 0-.90767-.7358-1.64346-1.6434-1.64346-.9077 0-1.6435.73579-1.6435 1.64346 0 .9076.7358 1.6434 1.6435 1.6434z" fill="url(#ac)"/><path d="m20.9987 12.4447c.9076 0 1.6434-.7358 1.6434-1.6434 0-.90767-.7358-1.64346-1.6434-1.64346-.9077 0-1.6435.73579-1.6435 1.64346 0 .9076.7358 1.6434 1.6435 1.6434z" fill="url(#ad)"/></g><g filter="url(#f)"><path d="m20.9986 11.8983c.6059 0 1.0971-.4912 1.0971-1.097 0-.6059-.4912-1.09708-1.0971-1.09708-.6058 0-1.097.49118-1.097 1.09708 0 .6058.4912 1.097 1.097 1.097z" fill="#e5aa8b"/><path d="m20.9986 11.8983c.6059 0 1.0971-.4912 1.0971-1.097 0-.6059-.4912-1.09708-1.0971-1.09708-.6058 0-1.097.49118-1.097 1.09708 0 .6058.4912 1.097 1.097 1.097z" fill="url(#ae)"/></g><g filter="url(#g)"><path d="m11.3024 11.8983c.6058 0 1.097-.4912 1.097-1.097 0-.6059-.4912-1.09708-1.097-1.09708-.6059 0-1.0971.49118-1.0971 1.09708 0 .6058.4912 1.097 1.0971 1.097z" fill="#b47a6c"/><path d="m11.3024 11.8983c.6058 0 1.097-.4912 1.097-1.097 0-.6059-.4912-1.09708-1.097-1.09708-.6059 0-1.0971.49118-1.0971 1.09708 0 .6058.4912 1.097 1.0971 1.097z" fill="url(#af)"/></g><g filter="url(#h)"><path d="m10.8747 9.24068-.0104-.31262c.0209-.96913.5865-1.34428.8274-1.46933.0157-.00521.034-.01303.0524-.02084.0183-.00782.0366-.01563.0523-.02085.5447-.25009.9845-.68777 1.215-1.26091l.0838-.19799c.0838-.198.3456-.22926.4713-.05211.7331 1.07334 1.9586 1.70901 3.2573 1.70901h3.2888c.1839 0 1.1052.08924 1.1601 1.36064l-.1213 3.13862c-.126 2.8624-2.3612 4.7844-5.0896 4.7844-2.7285 0-4.9637-1.922-5.0896-4.7844z" fill="url(#ag)"/><path d="m10.8747 9.24068-.0104-.31262c.0209-.96913.5865-1.34428.8274-1.46933.0157-.00521.034-.01303.0524-.02084.0183-.00782.0366-.01563.0523-.02085.5447-.25009.9845-.68777 1.215-1.26091l.0838-.19799c.0838-.198.3456-.22926.4713-.05211.7331 1.07334 1.9586 1.70901 3.2573 1.70901h3.2888c.1839 0 1.1052.08924 1.1601 1.36064l-.1213 3.13862c-.126 2.8624-2.3612 4.7844-5.0896 4.7844-2.7285 0-4.9637-1.922-5.0896-4.7844z" fill="url(#ah)"/><path d="m10.8747 9.24068-.0104-.31262c.0209-.96913.5865-1.34428.8274-1.46933.0157-.00521.034-.01303.0524-.02084.0183-.00782.0366-.01563.0523-.02085.5447-.25009.9845-.68777 1.215-1.26091l.0838-.19799c.0838-.198.3456-.22926.4713-.05211.7331 1.07334 1.9586 1.70901 3.2573 1.70901h3.2888c.1839 0 1.1052.08924 1.1601 1.36064l-.1213 3.13862c-.126 2.8624-2.3612 4.7844-5.0896 4.7844-2.7285 0-4.9637-1.922-5.0896-4.7844z" fill="url(#ai)"/><path d="m10.8747 9.24068-.0104-.31262c.0209-.96913.5865-1.34428.8274-1.46933.0157-.00521.034-.01303.0524-.02084.0183-.00782.0366-.01563.0523-.02085.5447-.25009.9845-.68777 1.215-1.26091l.0838-.19799c.0838-.198.3456-.22926.4713-.05211.7331 1.07334 1.9586 1.70901 3.2573 1.70901h3.2888c.1839 0 1.1052.08924 1.1601 1.36064l-.1213 3.13862c-.126 2.8624-2.3612 4.7844-5.0896 4.7844-2.7285 0-4.9637-1.922-5.0896-4.7844z" fill="url(#aj)"/><path d="m10.8747 9.24068-.0104-.31262c.0209-.96913.5865-1.34428.8274-1.46933.0157-.00521.034-.01303.0524-.02084.0183-.00782.0366-.01563.0523-.02085.5447-.25009.9845-.68777 1.215-1.26091l.0838-.19799c.0838-.198.3456-.22926.4713-.05211.7331 1.07334 1.9586 1.70901 3.2573 1.70901h3.2888c.1839 0 1.1052.08924 1.1601 1.36064l-.1213 3.13862c-.126 2.8624-2.3612 4.7844-5.0896 4.7844-2.7285 0-4.9637-1.922-5.0896-4.7844z" fill="url(#ak)"/><path d="m10.8747 9.24068-.0104-.31262c.0209-.96913.5865-1.34428.8274-1.46933.0157-.00521.034-.01303.0524-.02084.0183-.00782.0366-.01563.0523-.02085.5447-.25009.9845-.68777 1.215-1.26091l.0838-.19799c.0838-.198.3456-.22926.4713-.05211.7331 1.07334 1.9586 1.70901 3.2573 1.70901h3.2888c.1839 0 1.1052.08924 1.1601 1.36064l-.1213 3.13862c-.126 2.8624-2.3612 4.7844-5.0896 4.7844-2.7285 0-4.9637-1.922-5.0896-4.7844z" fill="url(#al)"/><path d="m10.8747 9.24068-.0104-.31262c.0209-.96913.5865-1.34428.8274-1.46933.0157-.00521.034-.01303.0524-.02084.0183-.00782.0366-.01563.0523-.02085.5447-.25009.9845-.68777 1.215-1.26091l.0838-.19799c.0838-.198.3456-.22926.4713-.05211.7331 1.07334 1.9586 1.70901 3.2573 1.70901h3.2888c.1839 0 1.1052.08924 1.1601 1.36064l-.1213 3.13862c-.126 2.8624-2.3612 4.7844-5.0896 4.7844-2.7285 0-4.9637-1.922-5.0896-4.7844z" fill="url(#am)"/></g><path d="m10.8726 9.51162h.0126l-.0105-.27094-.0104-.31262c.0209-.96913.5865-1.34428.8274-1.46933.0157-.00521.034-.01303.0524-.02084.0183-.00782.0366-.01563.0523-.02085.5447-.25009.9845-.68777 1.215-1.26091l.0838-.19799c.0838-.198.3456-.22926.4713-.05211.7331 1.07334 1.9586 1.70901 3.2573 1.70901h3.2888c.1839 0 1.1052.08924 1.1601 1.36064l-.1213 3.13862c-.126 2.8624-2.3612 4.7844-5.0896 4.7844-2.7285 0-4.9637-1.922-5.0896-4.7844z" fill="url(#an)"/><g filter="url(#i)"><path d="m15.6674 10.5738-.6982 1.7363c-.1108.3571.1551.7143.5317.7143h.8032c.3766 0 .6425-.3627.5317-.7143l-.5428-1.7363c-.1163-.3846-.5038-.3846-.6256 0z" fill="#c28178"/></g><g filter="url(#j)"><path d="m15.6778 10.4324-.5428 1.7362c-.1108.3572.1551.7143.5317.7143h.8032c.3766 0 .6425-.3626.5317-.7143l-.5428-1.7362c-.1163-.3847-.6592-.3847-.781 0z" fill="#efb696"/><path d="m15.6778 10.4324-.5428 1.7362c-.1108.3572.1551.7143.5317.7143h.8032c.3766 0 .6425-.3626.5317-.7143l-.5428-1.7362c-.1163-.3847-.6592-.3847-.781 0z" fill="url(#ao)"/><path d="m15.6778 10.4324-.5428 1.7362c-.1108.3572.1551.7143.5317.7143h.8032c.3766 0 .6425-.3626.5317-.7143l-.5428-1.7362c-.1163-.3847-.6592-.3847-.781 0z" fill="url(#ap)"/><path d="m15.6778 10.4324-.5428 1.7362c-.1108.3572.1551.7143.5317.7143h.8032c.3766 0 .6425-.3626.5317-.7143l-.5428-1.7362c-.1163-.3847-.6592-.3847-.781 0z" fill="url(#aq)"/></g><path d="m15.6778 10.4324-.5428 1.7362c-.1108.3572.1551.7143.5317.7143h.8032c.3766 0 .6425-.3626.5317-.7143l-.5428-1.7362c-.1163-.3847-.6592-.3847-.781 0z" fill="url(#ar)"/><path d="m15.6778 10.4324-.5428 1.7362c-.1108.3572.1551.7143.5317.7143h.8032c.3766 0 .6425-.3626.5317-.7143l-.5428-1.7362c-.1163-.3847-.6592-.3847-.781 0z" fill="url(#as)"/><g filter="url(#k)"><path d="m17.2348 10.22c.271-.47671.6831-.8533 1.5701-.8533.3884 0 .7629.1076 1.0957.37659.2746.22187.2378.50571.0252.61201l-.5679.3243c-.6658-.2152-1.4019-.2444-2.1231-.4596z" fill="#635d5f"/></g><g filter="url(#l)"><path d="m14.902 10.22c-.2711-.47671-.6832-.8533-1.5702-.8533-.3884 0-.7629.1076-1.0957.37659-.2746.22187-.2378.50571-.0252.61201l.5679.3243c.6658-.2152 1.4019-.2444 2.1232-.4596z" fill="#635d5f"/></g><path d="m18.5103 9.42664c.6671 0 1.2306.45989 1.3839 1.08136.0455.1782-.0912.348-.2735.348h-2.2787c-.1451 0-.2611-.1326-.2321-.2776.1285-.65458.7044-1.15176 1.4004-1.15176z" fill="#fff"/><path d="m18.2989 9.70425c.5055 0 .9115.41015.9115.91155 0 .0828-.0124.1657-.0331.2403h-1.7609c-.0207-.0788-.0331-.1575-.0331-.2403 0-.5014.4102-.91155.9156-.91155z" fill="url(#au)"/><path d="m17.7771 10.6157c0-.29.232-.522.522-.522.2901 0 .5221.232.5221.522 0 .087-.0207.1699-.058.2403h-.924c-.0414-.0704-.0621-.1533-.0621-.2403z" fill="#000"/><g filter="url(#m)"><path d="m18.2319 9.89692c.065.08685-.0708.19278-.2251.30818-.1544.1153-.2689.1966-.3338.1097s.0075-.2508.1619-.36621c.1543-.11539.3321-.13853.397-.05167z" fill="#c7a7a3"/><path d="m18.2319 9.89692c.065.08685-.0708.19278-.2251.30818-.1544.1153-.2689.1966-.3338.1097s.0075-.2508.1619-.36621c.1543-.11539.3321-.13853.397-.05167z" fill="url(#aw)"/></g><g filter="url(#n)"><path d="m19.1108 10.4957c-.0336-.2356-.1715-.4132-.2362-.4726l-.2655.2913.1198.2331z" fill="url(#ay)"/></g><path d="m13.6263 9.42664c-.6671 0-1.2305.45989-1.3838 1.08136-.0456.1782.0911.348.2734.348h2.2788c.145 0 .261-.1325.232-.2776-.1284-.65458-.7085-1.15176-1.4004-1.15176z" fill="#fff"/><path d="m13.8375 9.70422c-.5054 0-.9115.41018-.9115.91148 0 .0829.0125.1658.0332.2403h1.7608c.0207-.0787.0332-.1574.0332-.2403-.0042-.5013-.4102-.91148-.9157-.91148z" fill="url(#az)"/><path d="m14.3598 10.6157c0-.29-.2321-.522-.5221-.522s-.522.232-.522.522c0 .087.0207.1699.058.2403h.9239c.0373-.0704.0622-.1533.0622-.2403z" fill="#000"/><g filter="url(#o)"><path d="m14.6704 10.5086c0-.2945-.2396-.4909-.3043-.55023l-.2946.28483.1813.369z" fill="url(#aA)"/></g><g filter="url(#p)"><ellipse cx="13.563" cy="10.094" fill="#c7a7a3" fill-opacity=".9" rx=".398" ry=".201" transform="matrix(.88365127 -.46814574 .46814574 .88365127 -3.147331 7.523663)"/><ellipse cx="13.563" cy="10.094" fill="url(#aB)" rx=".398" ry=".201" transform="matrix(.88365127 -.46814574 .46814574 .88365127 -3.147331 7.523663)"/></g><g filter="url(#q)"><path d="m11.0696 4.65893c.6343-.56493 1.5493-.57064 2.0629-.47933l.4108 1.31817c-.2625-.03995-.4964.05135-.6933.23967-.4623 1.71191-2.2085 1.45512-2.5509 2.73905-.154-1.5236-.32509-2.84177.7705-3.81756z" fill="url(#aC)"/><path d="m11.0696 4.65893c.6343-.56493 1.5493-.57064 2.0629-.47933l.4108 1.31817c-.2625-.03995-.4964.05135-.6933.23967-.4623 1.71191-2.2085 1.45512-2.5509 2.73905-.154-1.5236-.32509-2.84177.7705-3.81756z" fill="url(#aD)"/></g><g filter="url(#r)"><path d="m15.4521 2.84431c-1.1569-.25541-2.3967.97579-2.5166 1.40377 1.575 3.69773 3.9934 3.34532 6.6765 3.0472 1.6062-.17846 1.7804.55352 1.9173.90731-.4451-4.14282-3.4409-4.77622-6.0772-5.35828z" fill="url(#aE)"/><path d="m15.4521 2.84431c-1.1569-.25541-2.3967.97579-2.5166 1.40377 1.575 3.69773 3.9934 3.34532 6.6765 3.0472 1.6062-.17846 1.7804.55352 1.9173.90731-.4451-4.14282-3.4409-4.77622-6.0772-5.35828z" fill="url(#aF)"/><path d="m15.4521 2.84431c-1.1569-.25541-2.3967.97579-2.5166 1.40377 1.575 3.69773 3.9934 3.34532 6.6765 3.0472 1.6062-.17846 1.7804.55352 1.9173.90731-.4451-4.14282-3.4409-4.77622-6.0772-5.35828z" fill="url(#aG)"/></g><g filter="url(#s)"><path d="m13.1155 4.11969c.0238.24823.2396 1.18122.5563 1.74615" stroke="url(#aH)" stroke-linecap="round" stroke-width=".2"/></g><g filter="url(#t)" fill-rule="evenodd" clip-rule="evenodd" stroke-width=".2" stroke-linecap="round" stroke-linejoin="round"><path d="m16.9516 14.2851c-.4846-.3302-1.1926-.3298-1.6723-.0004-.0911.0625-.2156.0394-.2781-.0517-.0625-.091-.0394-.2155.0517-.2781.6166-.4233 1.504-.4228 2.1239-.0004.0913.0622.1149.1867.0527.2779-.0622.0913-.1866.1149-.2779.0527z" stroke="url(#aI)"/><path d="m16.9516 14.2851c-.4846-.3302-1.1926-.3298-1.6723-.0004-.0911.0625-.2156.0394-.2781-.0517-.0625-.091-.0394-.2155.0517-.2781.6166-.4233 1.504-.4228 2.1239-.0004.0913.0622.1149.1867.0527.2779-.0622.0913-.1866.1149-.2779.0527z" stroke="url(#aJ)"/></g><path clip-rule="evenodd" d="m16.9516 14.2851c-.4846-.3302-1.1926-.3298-1.6723-.0004-.0911.0625-.2156.0394-.2781-.0517-.0625-.091-.0394-.2155.0517-.2781.6166-.4233 1.504-.4228 2.1239-.0004.0913.0622.1149.1867.0527.2779-.0622.0913-.1866.1149-.2779.0527z" fill="#87004d" fill-rule="evenodd"/><g filter="url(#u)"><path d="m16.5804 14.9551c0-.2828-.2292-.512-.512-.512s-.512.2292-.512.512z" fill="url(#aK)"/></g><g filter="url(#v)"><rect fill="#9f6836" height=".541" rx=".271" width="2.648" x="12.531" y="8.404"/></g><g filter="url(#w)"><rect fill="#9f6836" height=".541" rx=".271" width="2.648" x="17.05" y="8.404"/></g><g filter="url(#x)"><path d="m17.3982 8.6275h2.0703" stroke="#976239" stroke-linecap="round" stroke-width=".25"/></g><g filter="url(#y)"><path d="m12.9033 8.6275h2.0703" stroke="#976239" stroke-linecap="round" stroke-width=".25"/></g></svg>