<svg fill="none" height="32" viewBox="0 0 32 32" width="32" xmlns="http://www.w3.org/2000/svg" xmlns:xlink="http://www.w3.org/1999/xlink"><filter id="a" color-interpolation-filters="sRGB" filterUnits="userSpaceOnUse" height="7.244" width="19.161" x="8.163" y="22.739"><feFlood flood-opacity="0" result="BackgroundImageFix"/><feBlend in="SourceGraphic" in2="BackgroundImageFix" mode="normal" result="shape"/><feColorMatrix in="SourceAlpha" result="hardAlpha" type="matrix" values="0 0 0 0 0 0 0 0 0 0 0 0 0 0 0 0 0 0 127 0"/><feOffset dx=".5" dy="-.5"/><feGaussianBlur stdDeviation=".75"/><feComposite in2="hardAlpha" k2="-1" k3="1" operator="arithmetic"/><feColorMatrix type="matrix" values="0 0 0 0 0.694118 0 0 0 0 0.431373 0 0 0 0 0.52549 0 0 0 1 0"/><feBlend in2="shape" mode="normal" result="effect1_innerShadow_13036_4648"/></filter><filter id="b" color-interpolation-filters="sRGB" filterUnits="userSpaceOnUse" height="7.177" width="19.009" x="5.176" y="22.807"><feFlood flood-opacity="0" result="BackgroundImageFix"/><feBlend in="SourceGraphic" in2="BackgroundImageFix" mode="normal" result="shape"/><feColorMatrix in="SourceAlpha" result="hardAlpha" type="matrix" values="0 0 0 0 0 0 0 0 0 0 0 0 0 0 0 0 0 0 127 0"/><feOffset dx=".5" dy="-.3"/><feGaussianBlur stdDeviation=".5"/><feComposite in2="hardAlpha" k2="-1" k3="1" operator="arithmetic"/><feColorMatrix type="matrix" values="0 0 0 0 0.737255 0 0 0 0 0.454902 0 0 0 0 0.513726 0 0 0 1 0"/><feBlend in2="shape" mode="normal" result="effect1_innerShadow_13036_4648"/></filter><filter id="c" color-interpolation-filters="sRGB" filterUnits="userSpaceOnUse" height="3.33" width="3.53" x="9.549" y="8.929"><feFlood flood-opacity="0" result="BackgroundImageFix"/><feBlend in="SourceGraphic" in2="BackgroundImageFix" mode="normal" result="shape"/><feColorMatrix in="SourceAlpha" result="hardAlpha" type="matrix" values="0 0 0 0 0 0 0 0 0 0 0 0 0 0 0 0 0 0 127 0"/><feOffset dx=".2"/><feGaussianBlur stdDeviation=".2"/><feComposite in2="hardAlpha" k2="-1" k3="1" operator="arithmetic"/><feColorMatrix type="matrix" values="0 0 0 0 0.866667 0 0 0 0 0.643137 0 0 0 0 0.533333 0 0 0 1 0"/><feBlend in2="shape" mode="normal" result="effect1_innerShadow_13036_4648"/></filter><filter id="d" color-interpolation-filters="sRGB" filterUnits="userSpaceOnUse" height="2.984" width="2.985" x="9.722" y="9.102"><feFlood flood-opacity="0" result="BackgroundImageFix"/><feBlend in="SourceGraphic" in2="BackgroundImageFix" mode="normal" result="shape"/><feGaussianBlur result="effect1_foregroundBlur_13036_4648" stdDeviation=".25"/></filter><filter id="e" color-interpolation-filters="sRGB" filterUnits="userSpaceOnUse" height="3.58" width="3.58" x="19.036" y="8.679"><feFlood flood-opacity="0" result="BackgroundImageFix"/><feBlend in="SourceGraphic" in2="BackgroundImageFix" mode="normal" result="shape"/><feColorMatrix in="SourceAlpha" result="hardAlpha" type="matrix" values="0 0 0 0 0 0 0 0 0 0 0 0 0 0 0 0 0 0 127 0"/><feOffset dx=".25" dy="-.25"/><feGaussianBlur stdDeviation=".25"/><feComposite in2="hardAlpha" k2="-1" k3="1" operator="arithmetic"/><feColorMatrix type="matrix" values="0 0 0 0 0.768627 0 0 0 0 0.529412 0 0 0 0 0.505882 0 0 0 1 0"/><feBlend in2="shape" mode="normal" result="effect1_innerShadow_13036_4648"/></filter><filter id="f" color-interpolation-filters="sRGB" filterUnits="userSpaceOnUse" height="2.984" width="2.985" x="19.209" y="9.102"><feFlood flood-opacity="0" result="BackgroundImageFix"/><feBlend in="SourceGraphic" in2="BackgroundImageFix" mode="normal" result="shape"/><feGaussianBlur result="effect1_foregroundBlur_13036_4648" stdDeviation=".25"/></filter><filter id="g" color-interpolation-filters="sRGB" filterUnits="userSpaceOnUse" height="12.245" width="10.345" x="10.805" y="4.985"><feFlood flood-opacity="0" result="BackgroundImageFix"/><feBlend in="SourceGraphic" in2="BackgroundImageFix" mode="normal" result="shape"/><feColorMatrix in="SourceAlpha" result="hardAlpha" type="matrix" values="0 0 0 0 0 0 0 0 0 0 0 0 0 0 0 0 0 0 127 0"/><feOffset dy=".25"/><feGaussianBlur stdDeviation=".25"/><feComposite in2="hardAlpha" k2="-1" k3="1" operator="arithmetic"/><feColorMatrix type="matrix" values="0 0 0 0 0.752941 0 0 0 0 0.501961 0 0 0 0 0.34902 0 0 0 1 0"/><feBlend in2="shape" mode="normal" result="effect1_innerShadow_13036_4648"/></filter><filter id="h" color-interpolation-filters="sRGB" filterUnits="userSpaceOnUse" height="8.521" width="12.567" x="9.666" y="1.517"><feFlood flood-opacity="0" result="BackgroundImageFix"/><feBlend in="SourceGraphic" in2="BackgroundImageFix" mode="normal" result="shape"/><feColorMatrix in="SourceAlpha" result="hardAlpha" type="matrix" values="0 0 0 0 0 0 0 0 0 0 0 0 0 0 0 0 0 0 127 0"/><feOffset dy="-.5"/><feGaussianBlur stdDeviation=".375"/><feComposite in2="hardAlpha" k2="-1" k3="1" operator="arithmetic"/><feColorMatrix type="matrix" values="0 0 0 0 0.858824 0 0 0 0 0.690196 0 0 0 0 0.533333 0 0 0 1 0"/><feBlend in2="shape" mode="normal" result="effect1_innerShadow_13036_4648"/></filter><filter id="i" color-interpolation-filters="sRGB" filterUnits="userSpaceOnUse" height="4.174" width="3.255" x="14.083" y="9.441"><feFlood flood-opacity="0" result="BackgroundImageFix"/><feBlend in="SourceGraphic" in2="BackgroundImageFix" mode="normal" result="shape"/><feGaussianBlur result="effect1_foregroundBlur_13036_4648" stdDeviation=".375"/></filter><filter id="j" color-interpolation-filters="sRGB" filterUnits="userSpaceOnUse" height="3.174" width="2.372" x="14.763" y="9.778"><feFlood flood-opacity="0" result="BackgroundImageFix"/><feBlend in="SourceGraphic" in2="BackgroundImageFix" mode="normal" result="shape"/><feGaussianBlur result="effect1_foregroundBlur_13036_4648" stdDeviation=".125"/></filter><filter id="k" color-interpolation-filters="sRGB" filterUnits="userSpaceOnUse" height=".695" width=".785" x="17.39" y="9.475"><feFlood flood-opacity="0" result="BackgroundImageFix"/><feBlend in="SourceGraphic" in2="BackgroundImageFix" mode="normal" result="shape"/><feGaussianBlur result="effect1_foregroundBlur_13036_4648" stdDeviation=".05"/></filter><filter id="l" color-interpolation-filters="sRGB" filterUnits="userSpaceOnUse" height=".912" width=".89" x="18.227" y="9.55"><feFlood flood-opacity="0" result="BackgroundImageFix"/><feBlend in="SourceGraphic" in2="BackgroundImageFix" mode="normal" result="shape"/><feGaussianBlur result="effect1_foregroundBlur_13036_4648" stdDeviation=".1"/></filter><filter id="m" color-interpolation-filters="sRGB" filterUnits="userSpaceOnUse" height="1.038" width=".985" x="13.797" y="9.486"><feFlood flood-opacity="0" result="BackgroundImageFix"/><feBlend in="SourceGraphic" in2="BackgroundImageFix" mode="normal" result="shape"/><feGaussianBlur result="effect1_foregroundBlur_13036_4648" stdDeviation=".1"/></filter><filter id="n" color-interpolation-filters="sRGB" filterUnits="userSpaceOnUse" height=".703" width=".911" x="13.045" y="9.467"><feFlood flood-opacity="0" result="BackgroundImageFix"/><feBlend in="SourceGraphic" in2="BackgroundImageFix" mode="normal" result="shape"/><feGaussianBlur result="effect1_foregroundBlur_13036_4648" stdDeviation=".05"/></filter><filter id="o" color-interpolation-filters="sRGB" filterUnits="userSpaceOnUse" height="1.082" width="2.698" x="14.66" y="13.168"><feFlood flood-opacity="0" result="BackgroundImageFix"/><feBlend in="SourceGraphic" in2="BackgroundImageFix" mode="normal" result="shape"/><feGaussianBlur result="effect1_foregroundBlur_13036_4648" stdDeviation=".05"/></filter><filter id="p" color-interpolation-filters="sRGB" filterUnits="userSpaceOnUse" height=".712" width="1.224" x="15.35" y="14.074"><feFlood flood-opacity="0" result="BackgroundImageFix"/><feBlend in="SourceGraphic" in2="BackgroundImageFix" mode="normal" result="shape"/><feGaussianBlur result="effect1_foregroundBlur_13036_4648" stdDeviation=".05"/></filter><filter id="q" color-interpolation-filters="sRGB" filterUnits="userSpaceOnUse" height=".75" width="2.984" x="16.934" y="7.944"><feFlood flood-opacity="0" result="BackgroundImageFix"/><feBlend in="SourceGraphic" in2="BackgroundImageFix" mode="normal" result="shape"/><feGaussianBlur result="effect1_foregroundBlur_13036_4648" stdDeviation=".125"/></filter><filter id="r" color-interpolation-filters="sRGB" filterUnits="userSpaceOnUse" height=".75" width="2.984" x="12.224" y="7.944"><feFlood flood-opacity="0" result="BackgroundImageFix"/><feBlend in="SourceGraphic" in2="BackgroundImageFix" mode="normal" result="shape"/><feGaussianBlur result="effect1_foregroundBlur_13036_4648" stdDeviation=".125"/></filter><radialGradient id="s" cx="0" cy="0" gradientTransform="matrix(0 8.31345 -13.7312 0 14.9356 15.2689)" gradientUnits="userSpaceOnUse" r="1"><stop offset=".005" stop-color="#185b85"/><stop offset=".572" stop-color="#3980c2"/></radialGradient><radialGradient id="t" cx="0" cy="0" gradientTransform="matrix(0 -9.09375 4.78449 0 22.3128 23.3064)" gradientUnits="userSpaceOnUse" r="1"><stop offset="0" stop-color="#5ca5ec"/><stop offset="1" stop-color="#5ca5ec" stop-opacity="0"/></radialGradient><linearGradient id="u" gradientUnits="userSpaceOnUse" x1="15.683" x2="15.683" y1="29.931" y2="26.338"><stop offset="0" stop-color="#3566b7"/><stop offset="1" stop-color="#3566b7" stop-opacity="0"/></linearGradient><radialGradient id="v" cx="0" cy="0" gradientTransform="matrix(2.78861639 2.61212579 -4.78285623 5.10601416 15.012 16.3799)" gradientUnits="userSpaceOnUse" r="1"><stop offset=".288" stop-color="#a8766b"/><stop offset=".962" stop-color="#c99d88"/></radialGradient><radialGradient id="w" cx="0" cy="0" gradientTransform="matrix(-.74873686 -4.29684308 1.65203631 -.28787192 24.8384 23.3489)" gradientUnits="userSpaceOnUse" r="1"><stop offset=".033" stop-color="#5da0e2"/><stop offset="1" stop-color="#4f94d1"/></radialGradient><linearGradient id="x" gradientUnits="userSpaceOnUse" x1="22.679" x2="23.656" y1="23.388" y2="23.318"><stop offset=".197" stop-color="#1979ba"/><stop offset="1" stop-color="#1979ba" stop-opacity="0"/></linearGradient><radialGradient id="y" cx="0" cy="0" gradientTransform="matrix(2.97917116 .60514461 -1.64344792 8.09081426 5.75799 22.7595)" gradientUnits="userSpaceOnUse" r="1"><stop offset=".179" stop-color="#5e7da4"/><stop offset="1" stop-color="#376c9c"/><stop offset="1" stop-color="#3c6287"/></radialGradient><radialGradient id="z" cx="0" cy="0" gradientTransform="matrix(0 -3.91264 .529699 0 8.65829 24.707)" gradientUnits="userSpaceOnUse" r="1"><stop offset="0" stop-color="#3c6998"/><stop offset="1" stop-color="#3c6998" stop-opacity="0"/></radialGradient><radialGradient id="A" cx="0" cy="0" gradientTransform="matrix(14.39624438 1.34674445 -.4674854 4.99726139 16.6678 24.836)" gradientUnits="userSpaceOnUse" r="1"><stop offset="0" stop-color="#e8b59d"/><stop offset="1" stop-color="#e8b791"/></radialGradient><radialGradient id="B" cx="0" cy="0" gradientTransform="matrix(.71875126 1.62500095 -6.53755461 2.89161408 17.2504 26.2123)" gradientUnits="userSpaceOnUse" r="1"><stop offset=".178" stop-color="#8f556c"/><stop offset="1" stop-color="#8f556c" stop-opacity="0"/></radialGradient><radialGradient id="C" cx="0" cy="0" gradientTransform="matrix(-6.25845657 2.15166106 -.17168617 -.49937717 28.348 24.4595)" gradientUnits="userSpaceOnUse" r="1"><stop offset="0" stop-color="#f3c0a2"/><stop offset="1" stop-color="#f3c0a2" stop-opacity="0"/></radialGradient><radialGradient id="D" cx="0" cy="0" gradientTransform="matrix(-.50000299 -2.49999965 6.91726941 -1.38346236 13.3129 24.9623)" gradientUnits="userSpaceOnUse" r="1"><stop offset="0" stop-color="#bf9577"/><stop offset="1" stop-color="#bf9577" stop-opacity="0"/></radialGradient><radialGradient id="E" cx="0" cy="0" gradientTransform="matrix(.76449838 3.00702967 -22.88623769 5.81852978 16.1962 25.1907)" gradientUnits="userSpaceOnUse" r="1"><stop offset="0" stop-color="#f7c5a5"/><stop offset=".479" stop-color="#e4b691"/></radialGradient><linearGradient id="F" gradientUnits="userSpaceOnUse" x1="16.75" x2="15.969" y1="28.556" y2="25.431"><stop offset="0" stop-color="#d09195"/><stop offset="1" stop-color="#d09195" stop-opacity="0"/></linearGradient><radialGradient id="G" cx="0" cy="0" gradientTransform="matrix(1.75001 0 0 3.06254 9.54919 10.5941)" gradientUnits="userSpaceOnUse" r="1"><stop offset=".351" stop-color="#c28775"/><stop offset="1" stop-color="#ba7867"/></radialGradient><linearGradient id="H" gradientUnits="userSpaceOnUse" x1="11.214" x2="10.575" y1="10.872" y2="10.872"><stop offset="0" stop-color="#af6f5d"/><stop offset="1" stop-color="#b87862"/></linearGradient><linearGradient id="I" gradientUnits="userSpaceOnUse" x1="21.785" x2="20.968" y1="9.506" y2="12.035"><stop offset="0" stop-color="#f5c8a5"/><stop offset="1" stop-color="#dca189"/></linearGradient><radialGradient id="J" cx="0" cy="0" gradientTransform="matrix(.82441934 -.60030457 .68516848 .94096592 21.0722 10.33)" gradientUnits="userSpaceOnUse" r="1"><stop offset=".543" stop-color="#e3ab88"/><stop offset="1" stop-color="#e3ab88" stop-opacity="0"/></radialGradient><radialGradient id="K" cx="0" cy="0" gradientTransform="matrix(.818991 -1.50635551 .88167394 .47935764 20.6598 11.4131)" gradientUnits="userSpaceOnUse" r="1"><stop offset=".69" stop-color="#d79a76" stop-opacity="0"/><stop offset="1" stop-color="#d79a76"/></radialGradient><radialGradient id="L" cx="0" cy="0" gradientTransform="matrix(.25857151 .25594663 -.32995098 .33333483 20.7011 10.5941)" gradientUnits="userSpaceOnUse" r="1"><stop offset="0" stop-color="#cb8e6d"/><stop offset="1" stop-color="#cb8e6d" stop-opacity="0"/></radialGradient><linearGradient id="M" gradientUnits="userSpaceOnUse" x1="19.974" x2="12.358" y1="10.982" y2="12.117"><stop offset="0" stop-color="#fac39e"/><stop offset="1" stop-color="#c9917c"/></linearGradient><radialGradient id="N" cx="0" cy="0" gradientTransform="matrix(-1.07100492 8.4608939 -11.48525019 -1.45383687 16.7464 9.11991)" gradientUnits="userSpaceOnUse" r="1"><stop offset=".701" stop-color="#b57195" stop-opacity="0"/><stop offset="1" stop-color="#b57195"/></radialGradient><linearGradient id="O" gradientUnits="userSpaceOnUse" x1="10.568" x2="12.874" y1="13.671" y2="13.37"><stop offset="0" stop-color="#d99e84"/><stop offset="1" stop-color="#d99e84" stop-opacity="0"/></linearGradient><radialGradient id="P" cx="0" cy="0" gradientTransform="matrix(0 -1.30347 1.60427 0 18.2884 9.32617)" gradientUnits="userSpaceOnUse" r="1"><stop offset="0" stop-color="#e2a18c"/><stop offset="1" stop-color="#e2a18c" stop-opacity="0"/></radialGradient><radialGradient id="Q" cx="0" cy="0" gradientTransform="matrix(0 -1.38702 1.72489 0 13.743 9.29274)" gradientUnits="userSpaceOnUse" r="1"><stop offset="0" stop-color="#c2837a"/><stop offset="1" stop-color="#c2837a" stop-opacity="0"/></radialGradient><radialGradient id="R" cx="0" cy="0" gradientTransform="matrix(-3.42710688 4.41708516 -7.51165519 -5.82810706 19.631 2.90237)" gradientUnits="userSpaceOnUse" r="1"><stop offset="0" stop-color="#ffffc2"/><stop offset="1" stop-color="#ffffc2" stop-opacity="0"/></radialGradient><linearGradient id="S" gradientUnits="userSpaceOnUse" x1="11.101" x2="13.995" y1="10.328" y2="5.187"><stop offset="0" stop-color="#e8ad8e"/><stop offset="1" stop-color="#e8ad8e" stop-opacity="0"/></linearGradient><radialGradient id="T" cx="0" cy="0" gradientTransform="matrix(-.06663801 -1.85633431 .91168677 -.0327274 11.7677 7.14813)" gradientUnits="userSpaceOnUse" r="1"><stop offset=".227" stop-color="#eec19c"/><stop offset="1" stop-color="#eec19c" stop-opacity="0"/></radialGradient><radialGradient id="U" cx="0" cy="0" gradientTransform="matrix(.85676979 -1.96104991 1.59938958 .69876277 20.1641 8.86167)" gradientUnits="userSpaceOnUse" r="1"><stop offset=".479" stop-color="#e3ab85"/><stop offset="1" stop-color="#e3ab85" stop-opacity="0"/></radialGradient><radialGradient id="V" cx="0" cy="0" gradientTransform="matrix(.99004205 1.22845912 -1.08464122 .87413606 15.1758 2.01662)" gradientUnits="userSpaceOnUse" r="1"><stop offset="0" stop-color="#fbecaf"/><stop offset="1" stop-color="#fbecaf" stop-opacity="0"/></radialGradient><radialGradient id="W" cx="0" cy="0" gradientTransform="matrix(.1808722 .78103634 -1.28402894 .29735509 16.6418 2.01662)" gradientUnits="userSpaceOnUse" r="1"><stop offset=".208" stop-color="#e1d19f"/><stop offset="1" stop-color="#e1d19f" stop-opacity="0"/></radialGradient><radialGradient id="X" cx="0" cy="0" gradientTransform="matrix(.7234956 .89485008 -2.00501815 1.62107805 11.6154 3.7401)" gradientUnits="userSpaceOnUse" r="1"><stop offset="0" stop-color="#dcc291"/><stop offset="1" stop-color="#dcc291" stop-opacity="0"/></radialGradient><linearGradient id="Y" gradientUnits="userSpaceOnUse" x1="15.087" x2="16.023" y1="11.64" y2="11.64"><stop offset="0" stop-color="#cb9173"/><stop offset="1" stop-color="#cb9173" stop-opacity="0"/></linearGradient><linearGradient id="Z" gradientUnits="userSpaceOnUse" x1="16.885" x2="15.862" y1="11.962" y2="11.947"><stop offset="0" stop-color="#fec8a4"/><stop offset="1" stop-color="#fec8a4" stop-opacity="0"/></linearGradient><linearGradient id="aa" gradientUnits="userSpaceOnUse" x1="16.143" x2="16.143" y1="12.702" y2="12.13"><stop offset="0" stop-color="#c98583"/><stop offset="1" stop-color="#c98583" stop-opacity="0"/></linearGradient><linearGradient id="ab" gradientUnits="userSpaceOnUse" x1="16.074" x2="16.074" y1="12.744" y2="12.576"><stop offset="0" stop-color="#c27b77"/><stop offset="1" stop-color="#c27b77" stop-opacity="0"/></linearGradient><linearGradient id="ac"><stop offset=".75" stop-color="#925c51"/><stop offset="1" stop-color="#694b43"/><stop offset="1" stop-color="#804d49"/><stop offset="1" stop-color="#85534d"/></linearGradient><radialGradient id="ad" cx="0" cy="0" gradientTransform="matrix(0 .900659 -1.06571 0 18.1218 10.2466)" gradientUnits="userSpaceOnUse" r="1" xlink:href="#ac"/><linearGradient id="ae"><stop offset=".766" stop-color="#ffe6e2" stop-opacity="0"/><stop offset=".966" stop-color="#ffe6e2"/></linearGradient><radialGradient id="af" cx="0" cy="0" gradientTransform="matrix(-.23122337 -.29796249 .41022291 -.31833914 17.8942 9.99789)" gradientUnits="userSpaceOnUse" r="1" xlink:href="#ae"/><linearGradient id="ag"><stop offset="0" stop-color="#b4948d"/><stop offset="1" stop-color="#b4948d" stop-opacity="0"/></linearGradient><linearGradient id="ah" gradientUnits="userSpaceOnUse" x1="18.897" x2="18.584" xlink:href="#ag" y1="9.968" y2="10.161"/><radialGradient id="ai" cx="0" cy="0" gradientTransform="matrix(0 .900705 -1.06577 0 13.7707 10.2466)" gradientUnits="userSpaceOnUse" r="1" xlink:href="#ac"/><linearGradient id="aj" gradientUnits="userSpaceOnUse" x1="14.512" x2="14.2" xlink:href="#ag" y1="9.968" y2="10.161"/><radialGradient id="ak" cx="0" cy="0" gradientTransform="matrix(-.00771265 -.49260463 .59213043 -.00927092 13.4852 10.1325)" gradientUnits="userSpaceOnUse" r="1" xlink:href="#ae"/><linearGradient id="al"><stop offset="0" stop-color="#b89082"/><stop offset="1" stop-color="#b89082" stop-opacity="0"/></linearGradient><radialGradient id="am" cx="0" cy="0" gradientTransform="matrix(.17968753 -.34375 .82581674 .43167701 16.6409 14.0095)" gradientUnits="userSpaceOnUse" r="1" xlink:href="#al"/><radialGradient id="an" cx="0" cy="0" gradientTransform="matrix(.34765603 -.12890616 .07838563 .21140367 14.8167 14.0056)" gradientUnits="userSpaceOnUse" r="1" xlink:href="#al"/><radialGradient id="ao" cx="0" cy="0" gradientTransform="matrix(.66015664 -.25599824 .18909895 .48763978 15.6254 14.6859)" gradientUnits="userSpaceOnUse" r="1"><stop offset="0" stop-color="#d2967a"/><stop offset="1" stop-color="#cc8a67"/></radialGradient><linearGradient id="ap"><stop offset="0" stop-color="#794429"/><stop offset="1" stop-color="#794429" stop-opacity="0"/></linearGradient><linearGradient id="aq" gradientUnits="userSpaceOnUse" x1="13.853" x2="13.853" xlink:href="#ap" y1="8.92" y2="8.48"/><linearGradient id="ar"><stop offset=".344" stop-color="#784826"/><stop offset="1" stop-color="#784826" stop-opacity="0"/></linearGradient><linearGradient id="as" gradientUnits="userSpaceOnUse" x1="12.062" x2="12.607" xlink:href="#ar" y1="8.432" y2="8.436"/><linearGradient id="at" gradientUnits="userSpaceOnUse" x1="18.62" x2="18.62" xlink:href="#ap" y1="8.92" y2="8.48"/><linearGradient id="au" gradientUnits="userSpaceOnUse" x1="16.83" x2="17.374" xlink:href="#ar" y1="8.432" y2="8.436"/><path d="m9.15671 24.7439-3.90537.1834c.57745-5.253 5.02976-9.3397 10.43666-9.3397h.625c5.4144 0 9.8717 4.0982 10.439 9.3619l-4.377-.2056v5.1875h-13.21829z" fill="url(#s)"/><path d="m9.15671 24.7439-3.90537.1834c.57745-5.253 5.02976-9.3397 10.43666-9.3397h.625c5.4144 0 9.8717 4.0982 10.439 9.3619l-4.377-.2056v5.1875h-13.21829z" fill="url(#t)"/><path d="m9.15671 24.7439-3.90537.1834c.57745-5.253 5.02976-9.3397 10.43666-9.3397h.625c5.4144 0 9.8717 4.0982 10.439 9.3619l-4.377-.2056v5.1875h-13.21829z" fill="url(#u)"/><rect fill="url(#v)" height="6.028" rx="2.111" width="4.223" x="13.876" y="12.682"/><path d="m22.9249 17.9305c2.0951 1.7003 3.5224 4.1915 3.8271 7.019l-3.8271-.1798z" fill="url(#w)"/><path d="m22.9249 17.9305c2.0951 1.7003 3.5224 4.1915 3.8271 7.019l-3.8271-.1798z" fill="url(#x)"/><path d="m5.25134 24.9273 3.8468-.16.0586.1822h.03125v-7.1087c-2.15064 1.6974-3.62134 4.2181-3.93665 7.0865z" fill="url(#y)"/><path d="m5.25134 24.9273 3.8468-.16.0586.1822h.03125v-7.1087c-2.15064 1.6974-3.62134 4.2181-3.93665 7.0865z" fill="url(#z)"/><g filter="url(#a)"><path d="m26.3745 28.5251c.6-1.05.4532-2.8125.375-3.5976l-3.9375-.168c-.4125.2125-1.526.0885-2.0312 0l-8.8974-1.4063c-.6172-.1171-2.09649-.2316-2.77341.1329-.76563.4122-1 1.1927-.9375 1.5781 4.27081 1.5312 12.63171 4.5625 13.75671 4.8125 1.8203.3125 3.6953-.0391 4.4453-1.3516z" fill="url(#A)"/></g><path d="m26.3745 28.5251c.6-1.05.4532-2.8125.375-3.5976l-3.9375-.168c-.4125.2125-1.526.0885-2.0312 0l-8.8974-1.4063c-.6172-.1171-2.09649-.2316-2.77341.1329-.76563.4122-1 1.1927-.9375 1.5781 4.27081 1.5312 12.63171 4.5625 13.75671 4.8125 1.8203.3125 3.6953-.0391 4.4453-1.3516z" fill="url(#B)"/><path d="m26.3745 28.5251c.6-1.05.4532-2.8125.375-3.5976l-3.9375-.168c-.4125.2125-1.526.0885-2.0312 0l-8.8974-1.4063c-.6172-.1171-2.09649-.2316-2.77341.1329-.76563.4122-1 1.1927-.9375 1.5781 4.27081 1.5312 12.63171 4.5625 13.75671 4.8125 1.8203.3125 3.6953-.0391 4.4453-1.3516z" fill="url(#C)"/><path d="m26.3745 28.5251c.6-1.05.4532-2.8125.375-3.5976l-3.9375-.168c-.4125.2125-1.526.0885-2.0312 0l-8.8974-1.4063c-.6172-.1171-2.09649-.2316-2.77341.1329-.76563.4122-1 1.1927-.9375 1.5781 4.27081 1.5312 12.63171 4.5625 13.75671 4.8125 1.8203.3125 3.6953-.0391 4.4453-1.3516z" fill="url(#D)"/><g filter="url(#b)"><path d="m5.62548 28.5251c-.6-1.05-.45314-2.8125-.375-3.5976l3.9375-.168c.4125.2125 1.52602.0885 2.03122 0l9.6719-1.5625c.6172-.1172 1.4481-.177 2.125.1875.7282.3921.7002.9653.642 1.352-.0055.036-.0291.0653-.0634.0776-4.2854 1.5395-12.4036 4.8136-13.5239 5.0626-1.82032.3125-3.69532-.0391-4.44532-1.3516z" fill="url(#E)"/><path d="m5.62548 28.5251c-.6-1.05-.45314-2.8125-.375-3.5976l3.9375-.168c.4125.2125 1.52602.0885 2.03122 0l9.6719-1.5625c.6172-.1172 1.4481-.177 2.125.1875.7282.3921.7002.9653.642 1.352-.0055.036-.0291.0653-.0634.0776-4.2854 1.5395-12.4036 4.8136-13.5239 5.0626-1.82032.3125-3.69532-.0391-4.44532-1.3516z" fill="url(#F)"/></g><g filter="url(#c)"><circle cx="11.214" cy="10.594" fill="url(#G)" r="1.665"/></g><g filter="url(#d)"><circle cx="11.214" cy="10.594" fill="url(#H)" r=".992"/></g><g filter="url(#e)"><circle cx="20.701" cy="10.594" fill="url(#I)" r="1.665"/><circle cx="20.701" cy="10.594" fill="url(#J)" r="1.665"/></g><g filter="url(#f)"><circle cx="20.701" cy="10.594" fill="#d79e81" r=".992"/><circle cx="20.701" cy="10.594" fill="url(#K)" r=".992"/><circle cx="20.701" cy="10.594" fill="url(#L)" r=".992"/></g><g filter="url(#g)"><path d="m10.8631 9.98308c.0162.0011.0325.00166.0489.00166 0 0-.0535-.85099-.1069-1.43604 0-.26593.1069-.58505.3209-.74461l.1605-.15956c.2674-.21275.3744-.53187.3744-.85099v-.85098c0-.26594.1605-.47868.4279-.53187.6419-.15956 1.9792-.42549 3.9049-.42549s3.263.26593 3.9049.42549c.2139.05319.4279.26593.4279.53187v.85098c0 .31912.1605.63824.3744.85099.5007.35085.4696.54383.428.95736-.0535.53186-.107 1.43601-.107 1.43601.006 0 .0121 0 .018-.0002l-.2651 3.9475c-.1601 1.7647-1.5474 2.9947-3.2015 2.9947h-3.2015c-1.7075 0-3.0414-1.23-3.2015-2.9947z" fill="url(#M)"/><path d="m10.8631 9.98308c.0162.0011.0325.00166.0489.00166 0 0-.0535-.85099-.1069-1.43604 0-.26593.1069-.58505.3209-.74461l.1605-.15956c.2674-.21275.3744-.53187.3744-.85099v-.85098c0-.26594.1605-.47868.4279-.53187.6419-.15956 1.9792-.42549 3.9049-.42549s3.263.26593 3.9049.42549c.2139.05319.4279.26593.4279.53187v.85098c0 .31912.1605.63824.3744.85099.5007.35085.4696.54383.428.95736-.0535.53186-.107 1.43601-.107 1.43601.006 0 .0121 0 .018-.0002l-.2651 3.9475c-.1601 1.7647-1.5474 2.9947-3.2015 2.9947h-3.2015c-1.7075 0-3.0414-1.23-3.2015-2.9947z" fill="url(#N)"/><path d="m10.8631 9.98308c.0162.0011.0325.00166.0489.00166 0 0-.0535-.85099-.1069-1.43604 0-.26593.1069-.58505.3209-.74461l.1605-.15956c.2674-.21275.3744-.53187.3744-.85099v-.85098c0-.26594.1605-.47868.4279-.53187.6419-.15956 1.9792-.42549 3.9049-.42549s3.263.26593 3.9049.42549c.2139.05319.4279.26593.4279.53187v.85098c0 .31912.1605.63824.3744.85099.5007.35085.4696.54383.428.95736-.0535.53186-.107 1.43601-.107 1.43601.006 0 .0121 0 .018-.0002l-.2651 3.9475c-.1601 1.7647-1.5474 2.9947-3.2015 2.9947h-3.2015c-1.7075 0-3.0414-1.23-3.2015-2.9947z" fill="url(#O)"/><path d="m10.8631 9.98308c.0162.0011.0325.00166.0489.00166 0 0-.0535-.85099-.1069-1.43604 0-.26593.1069-.58505.3209-.74461l.1605-.15956c.2674-.21275.3744-.53187.3744-.85099v-.85098c0-.26594.1605-.47868.4279-.53187.6419-.15956 1.9792-.42549 3.9049-.42549s3.263.26593 3.9049.42549c.2139.05319.4279.26593.4279.53187v.85098c0 .31912.1605.63824.3744.85099.5007.35085.4696.54383.428.95736-.0535.53186-.107 1.43601-.107 1.43601.006 0 .0121 0 .018-.0002l-.2651 3.9475c-.1601 1.7647-1.5474 2.9947-3.2015 2.9947h-3.2015c-1.7075 0-3.0414-1.23-3.2015-2.9947z" fill="url(#P)"/><path d="m10.8631 9.98308c.0162.0011.0325.00166.0489.00166 0 0-.0535-.85099-.1069-1.43604 0-.26593.1069-.58505.3209-.74461l.1605-.15956c.2674-.21275.3744-.53187.3744-.85099v-.85098c0-.26594.1605-.47868.4279-.53187.6419-.15956 1.9792-.42549 3.9049-.42549s3.263.26593 3.9049.42549c.2139.05319.4279.26593.4279.53187v.85098c0 .31912.1605.63824.3744.85099.5007.35085.4696.54383.428.95736-.0535.53186-.107 1.43601-.107 1.43601.006 0 .0121 0 .018-.0002l-.2651 3.9475c-.1601 1.7647-1.5474 2.9947-3.2015 2.9947h-3.2015c-1.7075 0-3.0414-1.23-3.2015-2.9947z" fill="url(#Q)"/></g><g filter="url(#h)"><path d="m20.7545 4.13424.4279.21275c.7489.3723 1.1768 1.22329 1.0164 2.12746l-.5885 3.03164c-.0524.3131-.2594.52381-.5703.53161-.006.0002-.012.0002-.0181.0002 0 0 .0535-.90415.107-1.43601.0435-.43191-.0319-.56366-.4279-.95736-.214-.21275-.3744-.53187-.3744-.85099v-.85098c0-.26594-.214-.47868-.428-.53187-.6419-.15956-1.9791-.42549-3.9048-.42549s-3.263.26593-3.9049.42549c-.2675.05319-.4279.26593-.4279.53187v.85098c0 .31912-.107.63824-.3745.85099l-.1604.15956c-.214.15956-.321.47868-.321.74461.0535.58505.107 1.43604.107 1.43604-.0165 0-.0328-.00056-.0489-.00166-.2989-.02043-.5423-.22742-.593-.53018l-.5884-3.03163c-.10699-.85099.3209-1.70198 1.0698-2.07428l.428-.21275c.2674-.15956.5349-.3723.8023-.58505l.9629-1.01055c.5884-.53186 1.4442-.69142 2.1931-.31912.5349.15956 1.1233.15956 1.6582 0 .8024-.26593 1.7118-.05318 2.3536.53187l.8024.7978c.214.26593.4814.42549.8024.58505z" fill="#ebcc94"/><path d="m20.7545 4.13424.4279.21275c.7489.3723 1.1768 1.22329 1.0164 2.12746l-.5885 3.03164c-.0524.3131-.2594.52381-.5703.53161-.006.0002-.012.0002-.0181.0002 0 0 .0535-.90415.107-1.43601.0435-.43191-.0319-.56366-.4279-.95736-.214-.21275-.3744-.53187-.3744-.85099v-.85098c0-.26594-.214-.47868-.428-.53187-.6419-.15956-1.9791-.42549-3.9048-.42549s-3.263.26593-3.9049.42549c-.2675.05319-.4279.26593-.4279.53187v.85098c0 .31912-.107.63824-.3745.85099l-.1604.15956c-.214.15956-.321.47868-.321.74461.0535.58505.107 1.43604.107 1.43604-.0165 0-.0328-.00056-.0489-.00166-.2989-.02043-.5423-.22742-.593-.53018l-.5884-3.03163c-.10699-.85099.3209-1.70198 1.0698-2.07428l.428-.21275c.2674-.15956.5349-.3723.8023-.58505l.9629-1.01055c.5884-.53186 1.4442-.69142 2.1931-.31912.5349.15956 1.1233.15956 1.6582 0 .8024-.26593 1.7118-.05318 2.3536.53187l.8024.7978c.214.26593.4814.42549.8024.58505z" fill="url(#R)"/><path d="m20.7545 4.13424.4279.21275c.7489.3723 1.1768 1.22329 1.0164 2.12746l-.5885 3.03164c-.0524.3131-.2594.52381-.5703.53161-.006.0002-.012.0002-.0181.0002 0 0 .0535-.90415.107-1.43601.0435-.43191-.0319-.56366-.4279-.95736-.214-.21275-.3744-.53187-.3744-.85099v-.85098c0-.26594-.214-.47868-.428-.53187-.6419-.15956-1.9791-.42549-3.9048-.42549s-3.263.26593-3.9049.42549c-.2675.05319-.4279.26593-.4279.53187v.85098c0 .31912-.107.63824-.3745.85099l-.1604.15956c-.214.15956-.321.47868-.321.74461.0535.58505.107 1.43604.107 1.43604-.0165 0-.0328-.00056-.0489-.00166-.2989-.02043-.5423-.22742-.593-.53018l-.5884-3.03163c-.10699-.85099.3209-1.70198 1.0698-2.07428l.428-.21275c.2674-.15956.5349-.3723.8023-.58505l.9629-1.01055c.5884-.53186 1.4442-.69142 2.1931-.31912.5349.15956 1.1233.15956 1.6582 0 .8024-.26593 1.7118-.05318 2.3536.53187l.8024.7978c.214.26593.4814.42549.8024.58505z" fill="url(#S)"/><path d="m20.7545 4.13424.4279.21275c.7489.3723 1.1768 1.22329 1.0164 2.12746l-.5885 3.03164c-.0524.3131-.2594.52381-.5703.53161-.006.0002-.012.0002-.0181.0002 0 0 .0535-.90415.107-1.43601.0435-.43191-.0319-.56366-.4279-.95736-.214-.21275-.3744-.53187-.3744-.85099v-.85098c0-.26594-.214-.47868-.428-.53187-.6419-.15956-1.9791-.42549-3.9048-.42549s-3.263.26593-3.9049.42549c-.2675.05319-.4279.26593-.4279.53187v.85098c0 .31912-.107.63824-.3745.85099l-.1604.15956c-.214.15956-.321.47868-.321.74461.0535.58505.107 1.43604.107 1.43604-.0165 0-.0328-.00056-.0489-.00166-.2989-.02043-.5423-.22742-.593-.53018l-.5884-3.03163c-.10699-.85099.3209-1.70198 1.0698-2.07428l.428-.21275c.2674-.15956.5349-.3723.8023-.58505l.9629-1.01055c.5884-.53186 1.4442-.69142 2.1931-.31912.5349.15956 1.1233.15956 1.6582 0 .8024-.26593 1.7118-.05318 2.3536.53187l.8024.7978c.214.26593.4814.42549.8024.58505z" fill="url(#T)"/><path d="m20.7545 4.13424.4279.21275c.7489.3723 1.1768 1.22329 1.0164 2.12746l-.5885 3.03164c-.0524.3131-.2594.52381-.5703.53161-.006.0002-.012.0002-.0181.0002 0 0 .0535-.90415.107-1.43601.0435-.43191-.0319-.56366-.4279-.95736-.214-.21275-.3744-.53187-.3744-.85099v-.85098c0-.26594-.214-.47868-.428-.53187-.6419-.15956-1.9791-.42549-3.9048-.42549s-3.263.26593-3.9049.42549c-.2675.05319-.4279.26593-.4279.53187v.85098c0 .31912-.107.63824-.3745.85099l-.1604.15956c-.214.15956-.321.47868-.321.74461.0535.58505.107 1.43604.107 1.43604-.0165 0-.0328-.00056-.0489-.00166-.2989-.02043-.5423-.22742-.593-.53018l-.5884-3.03163c-.10699-.85099.3209-1.70198 1.0698-2.07428l.428-.21275c.2674-.15956.5349-.3723.8023-.58505l.9629-1.01055c.5884-.53186 1.4442-.69142 2.1931-.31912.5349.15956 1.1233.15956 1.6582 0 .8024-.26593 1.7118-.05318 2.3536.53187l.8024.7978c.214.26593.4814.42549.8024.58505z" fill="url(#U)"/><path d="m20.7545 4.13424.4279.21275c.7489.3723 1.1768 1.22329 1.0164 2.12746l-.5885 3.03164c-.0524.3131-.2594.52381-.5703.53161-.006.0002-.012.0002-.0181.0002 0 0 .0535-.90415.107-1.43601.0435-.43191-.0319-.56366-.4279-.95736-.214-.21275-.3744-.53187-.3744-.85099v-.85098c0-.26594-.214-.47868-.428-.53187-.6419-.15956-1.9791-.42549-3.9048-.42549s-3.263.26593-3.9049.42549c-.2675.05319-.4279.26593-.4279.53187v.85098c0 .31912-.107.63824-.3745.85099l-.1604.15956c-.214.15956-.321.47868-.321.74461.0535.58505.107 1.43604.107 1.43604-.0165 0-.0328-.00056-.0489-.00166-.2989-.02043-.5423-.22742-.593-.53018l-.5884-3.03163c-.10699-.85099.3209-1.70198 1.0698-2.07428l.428-.21275c.2674-.15956.5349-.3723.8023-.58505l.9629-1.01055c.5884-.53186 1.4442-.69142 2.1931-.31912.5349.15956 1.1233.15956 1.6582 0 .8024-.26593 1.7118-.05318 2.3536.53187l.8024.7978c.214.26593.4814.42549.8024.58505z" fill="url(#V)"/></g><path d="m20.7545 4.13424.4279.21275c.7489.3723 1.1768 1.22329 1.0164 2.12746l-.5885 3.03164c-.0524.3131-.2594.52381-.5703.53161-.006.0002-.012.0002-.0181.0002 0 0 .0535-.90415.107-1.43601.0435-.43191-.0319-.56366-.4279-.95736-.214-.21275-.3744-.53187-.3744-.85099v-.85098c0-.26594-.214-.47868-.428-.53187-.6419-.15956-1.9791-.42549-3.9048-.42549s-3.263.26593-3.9049.42549c-.2675.05319-.4279.26593-.4279.53187v.85098c0 .31912-.107.63824-.3745.85099l-.1604.15956c-.214.15956-.321.47868-.321.74461.0535.58505.107 1.43604.107 1.43604-.0165 0-.0328-.00056-.0489-.00166-.2989-.02043-.5423-.22742-.593-.53018l-.5884-3.03163c-.10699-.85099.3209-1.70198 1.0698-2.07428l.428-.21275c.2674-.15956.5349-.3723.8023-.58505l.9629-1.01055c.5884-.53186 1.4442-.69142 2.1931-.31912.5349.15956 1.1233.15956 1.6582 0 .8024-.26593 1.7118-.05318 2.3536.53187l.8024.7978c.214.26593.4814.42549.8024.58505z" fill="url(#W)"/><path d="m20.7545 4.13424.4279.21275c.7489.3723 1.1768 1.22329 1.0164 2.12746l-.5885 3.03164c-.0524.3131-.2594.52381-.5703.53161-.006.0002-.012.0002-.0181.0002 0 0 .0535-.90415.107-1.43601.0435-.43191-.0319-.56366-.4279-.95736-.214-.21275-.3744-.53187-.3744-.85099v-.85098c0-.26594-.214-.47868-.428-.53187-.6419-.15956-1.9791-.42549-3.9048-.42549s-3.263.26593-3.9049.42549c-.2675.05319-.4279.26593-.4279.53187v.85098c0 .31912-.107.63824-.3745.85099l-.1604.15956c-.214.15956-.321.47868-.321.74461.0535.58505.107 1.43604.107 1.43604-.0165 0-.0328-.00056-.0489-.00166-.2989-.02043-.5423-.22742-.593-.53018l-.5884-3.03163c-.10699-.85099.3209-1.70198 1.0698-2.07428l.428-.21275c.2674-.15956.5349-.3723.8023-.58505l.9629-1.01055c.5884-.53186 1.4442-.69142 2.1931-.31912.5349.15956 1.1233.15956 1.6582 0 .8024-.26593 1.7118-.05318 2.3536.53187l.8024.7978c.214.26593.4814.42549.8024.58505z" fill="url(#X)"/><g filter="url(#i)"><path d="m15.6743 10.4723-.8181 1.6949c-.1014.3486.142.6973.4868.6973h.7351c.3448 0 .5882-.354.4868-.6973l-.4969-1.6949c-.1065-.3755-.2822-.3755-.3937 0z" fill="#c68378"/></g><g filter="url(#j)"><path d="m15.5677 10.3096-.5299 1.6949c-.1081.3487.1514.6973.5191.6973h.784c.3677 0 .6272-.354.5191-.6973l-.5299-1.6949c-.1136-.37543-.6435-.37543-.7624 0z" fill="#e4ac8f"/><path d="m15.5677 10.3096-.5299 1.6949c-.1081.3487.1514.6973.5191.6973h.784c.3677 0 .6272-.354.5191-.6973l-.5299-1.6949c-.1136-.37543-.6435-.37543-.7624 0z" fill="url(#Y)"/><path d="m15.5677 10.3096-.5299 1.6949c-.1081.3487.1514.6973.5191.6973h.784c.3677 0 .6272-.354.5191-.6973l-.5299-1.6949c-.1136-.37543-.6435-.37543-.7624 0z" fill="url(#Z)"/><path d="m15.5677 10.3096-.5299 1.6949c-.1081.3487.1514.6973.5191.6973h.784c.3677 0 .6272-.354.5191-.6973l-.5299-1.6949c-.1136-.37543-.6435-.37543-.7624 0z" fill="url(#aa)"/></g><path d="m15.5677 10.3096-.5299 1.6949c-.1081.3487.1514.6973.5191.6973h.784c.3677 0 .6272-.354.5191-.6973l-.5299-1.6949c-.1136-.37543-.6435-.37543-.7624 0z" fill="url(#ab)"/><path d="m18.33 9.16745c.6512 0 1.2012.44893 1.3509 1.05565.0444.1739-.089.3397-.267.3397h-2.2244c-.1416 0-.2548-.1294-.2265-.271.1254-.63902.6875-1.12435 1.367-1.12435z" fill="#fff"/><path d="m18.1238 9.43842c.4934 0 .8898.4004.8898.88978 0 .0809-.0122.1618-.0324.2346h-1.7189c-.0202-.0769-.0323-.1537-.0323-.2346 0-.48938.4004-.88978.8938-.88978z" fill="url(#ad)"/><path d="m17.6141 10.3282c0-.2831.2265-.5096.5096-.5096s.5096.2265.5096.5096c0 .0849-.0202.1658-.0566.2346h-.9019c-.0404-.0688-.0607-.1497-.0607-.2346z" fill="#000"/><g filter="url(#k)"><path d="m18.0583 9.62651c.0634.08479-.0691.18815-.2197.3008-.1507.11269-.2625.19189-.3259.10709-.0634-.08475.0074-.2448.158-.35744.1507-.11265.3242-.13523.3876-.05045z" fill="#c7a7a3"/><path d="m18.0583 9.62651c.0634.08479-.0691.18815-.2197.3008-.1507.11269-.2625.19189-.3259.10709-.0634-.08475.0074-.2448.158-.35744.1507-.11265.3242-.13523.3876-.05045z" fill="url(#af)"/></g><g filter="url(#l)"><path d="m18.9163 10.211c-.0329-.23-.1675-.40336-.2307-.46129l-.2591.28439.1169.2275z" fill="url(#ah)"/></g><path d="m13.5625 9.16737c-.6511 0-1.2012.44896-1.3509 1.05563-.0445.1739.089.3398.267.3398h2.2245c.1416 0 .2548-.1294.2265-.271-.1253-.63907-.6916-1.12443-1.3671-1.12443z" fill="#fff"/><path d="m13.7687 9.43835c-.4934 0-.8898.40043-.8898.88985 0 .0809.0121.1618.0324.2346h1.7189c.0203-.0769.0324-.1537.0324-.2346-.004-.48942-.4004-.88985-.8939-.88985z" fill="url(#ai)"/><path d="m14.2784 10.3282c0-.2831-.2265-.50963-.5096-.50963s-.5096.22653-.5096.50963c0 .0849.0202.1658.0566.2346h.9019c.0364-.0688.0607-.1497.0607-.2346z" fill="#000"/><g filter="url(#m)"><path d="m14.5816 10.2237c0-.28759-.2338-.47929-.297-.53722l-.2875.27807.1769.36025z" fill="url(#aj)"/></g><g filter="url(#n)"><ellipse cx="13.5" cy="9.819" fill="#c7a7a3" fill-opacity=".9" rx=".388" ry=".197" transform="matrix(.88365127 -.46814574 .46814574 .88365127 -3.025786 7.462438)"/><ellipse cx="13.5" cy="9.819" fill="url(#ak)" rx=".388" ry=".197" transform="matrix(.88365127 -.46814574 .46814574 .88365127 -3.025786 7.462438)"/></g><g filter="url(#o)" fill-rule="evenodd" clip-rule="evenodd" stroke-width=".2" stroke-linecap="round" stroke-linejoin="round"><path d="m16.8455 14.0159c-.4846-.3303-1.1926-.3298-1.6723-.0004-.0911.0625-.2156.0393-.2781-.0517-.0625-.0911-.0394-.2156.0517-.2781.6166-.4234 1.504-.4229 2.124-.0004.0912.0622.1148.1866.0526.2779s-.1866.1149-.2779.0527z" stroke="url(#am)"/><path d="m16.8455 14.0159c-.4846-.3303-1.1926-.3298-1.6723-.0004-.0911.0625-.2156.0393-.2781-.0517-.0625-.0911-.0394-.2156.0517-.2781.6166-.4234 1.504-.4229 2.124-.0004.0912.0622.1148.1866.0526.2779s-.1866.1149-.2779.0527z" stroke="url(#an)"/></g><path clip-rule="evenodd" d="m16.8455 14.0159c-.4846-.3303-1.1926-.3298-1.6723-.0004-.0911.0625-.2156.0393-.2781-.0517-.0625-.0911-.0394-.2156.0517-.2781.6166-.4234 1.504-.4229 2.124-.0004.0912.0622.1148.1866.0526.2779s-.1866.1149-.2779.0527z" fill="#890150" fill-rule="evenodd"/><g filter="url(#p)"><path d="m16.4744 14.6859c0-.2828-.2293-.512-.5121-.512-.2827 0-.512.2292-.512.512z" fill="url(#ao)"/></g><rect fill="#946030" height=".96" rx=".48" width="3.092" x="12.062" y="7.92"/><rect fill="url(#aq)" height=".96" rx=".48" width="3.092" x="12.062" y="7.92"/><rect fill="url(#as)" height=".96" rx=".48" width="3.092" x="12.062" y="7.92"/><rect fill="#946030" height=".96" rx=".48" width="3.092" x="16.83" y="7.92"/><rect fill="url(#at)" height=".96" rx=".48" width="3.092" x="16.83" y="7.92"/><rect fill="url(#au)" height=".96" rx=".48" width="3.092" x="16.83" y="7.92"/><g filter="url(#q)"><path d="m17.3093 8.31891h2.2344" stroke="#9f6b41" stroke-linecap="round" stroke-width=".25"/></g><g filter="url(#r)"><path d="m12.5986 8.31891h2.2344" stroke="#9f6b41" stroke-linecap="round" stroke-width=".25"/></g></svg>