<svg fill="none" height="32" viewBox="0 0 32 32" width="32" xmlns="http://www.w3.org/2000/svg" xmlns:xlink="http://www.w3.org/1999/xlink"><filter id="a" color-interpolation-filters="sRGB" filterUnits="userSpaceOnUse" height="2.22" width=".423" x="4.363" y="4.645"><feFlood flood-opacity="0" result="BackgroundImageFix"/><feBlend in="SourceGraphic" in2="BackgroundImageFix" mode="normal" result="shape"/><feGaussianBlur result="effect1_foregroundBlur_4002_3869" stdDeviation=".05"/></filter><filter id="b" color-interpolation-filters="sRGB" filterUnits="userSpaceOnUse" height="2.572" width=".345" x="5.917" y="4.215"><feFlood flood-opacity="0" result="BackgroundImageFix"/><feBlend in="SourceGraphic" in2="BackgroundImageFix" mode="normal" result="shape"/><feGaussianBlur result="effect1_foregroundBlur_4002_3869" stdDeviation=".05"/></filter><filter id="c" color-interpolation-filters="sRGB" filterUnits="userSpaceOnUse" height="1.681" width=".509" x="7.394" y="4.817"><feFlood flood-opacity="0" result="BackgroundImageFix"/><feBlend in="SourceGraphic" in2="BackgroundImageFix" mode="normal" result="shape"/><feGaussianBlur result="effect1_foregroundBlur_4002_3869" stdDeviation=".05"/></filter><filter id="d" color-interpolation-filters="sRGB" filterUnits="userSpaceOnUse" height="3.487" width="1.556" x="3.228" y="3.995"><feFlood flood-opacity="0" result="BackgroundImageFix"/><feBlend in="SourceGraphic" in2="BackgroundImageFix" mode="normal" result="shape"/><feGaussianBlur result="effect1_foregroundBlur_4002_3869" stdDeviation=".2"/></filter><filter id="e" color-interpolation-filters="sRGB" filterUnits="userSpaceOnUse" height="3.889" width="1.2" x="4.914" y="3.066"><feFlood flood-opacity="0" result="BackgroundImageFix"/><feBlend in="SourceGraphic" in2="BackgroundImageFix" mode="normal" result="shape"/><feGaussianBlur result="effect1_foregroundBlur_4002_3869" stdDeviation=".2"/></filter><filter id="f" color-interpolation-filters="sRGB" filterUnits="userSpaceOnUse" height="4.773" width="1.488" x="6.461" y="2.14"><feFlood flood-opacity="0" result="BackgroundImageFix"/><feBlend in="SourceGraphic" in2="BackgroundImageFix" mode="normal" result="shape"/><feGaussianBlur result="effect1_foregroundBlur_4002_3869" stdDeviation=".2"/></filter><filter id="g" color-interpolation-filters="sRGB" filterUnits="userSpaceOnUse" height="4.299" width="2.002" x="7.865" y="3.155"><feFlood flood-opacity="0" result="BackgroundImageFix"/><feBlend in="SourceGraphic" in2="BackgroundImageFix" mode="normal" result="shape"/><feGaussianBlur result="effect1_foregroundBlur_4002_3869" stdDeviation=".2"/></filter><filter id="h" color-interpolation-filters="sRGB" filterUnits="userSpaceOnUse" height="1.358" width="1.412" x="3.519" y="6.512"><feFlood flood-opacity="0" result="BackgroundImageFix"/><feBlend in="SourceGraphic" in2="BackgroundImageFix" mode="normal" result="shape"/><feGaussianBlur result="effect1_foregroundBlur_4002_3869" stdDeviation=".1"/></filter><filter id="i" color-interpolation-filters="sRGB" filterUnits="userSpaceOnUse" height=".999" width="1.118" x="5.167" y="6.304"><feFlood flood-opacity="0" result="BackgroundImageFix"/><feBlend in="SourceGraphic" in2="BackgroundImageFix" mode="normal" result="shape"/><feGaussianBlur result="effect1_foregroundBlur_4002_3869" stdDeviation=".1"/></filter><filter id="j" color-interpolation-filters="sRGB" filterUnits="userSpaceOnUse" height="1.023" width="1.312" x="6.432" y="6.113"><feFlood flood-opacity="0" result="BackgroundImageFix"/><feBlend in="SourceGraphic" in2="BackgroundImageFix" mode="normal" result="shape"/><feGaussianBlur result="effect1_foregroundBlur_4002_3869" stdDeviation=".1"/></filter><filter id="k" color-interpolation-filters="sRGB" filterUnits="userSpaceOnUse" height="19.185" width="18.685" x="9.5" y="2.851"><feFlood flood-opacity="0" result="BackgroundImageFix"/><feBlend in="SourceGraphic" in2="BackgroundImageFix" mode="normal" result="shape"/><feColorMatrix in="SourceAlpha" result="hardAlpha" type="matrix" values="0 0 0 0 0 0 0 0 0 0 0 0 0 0 0 0 0 0 127 0"/><feOffset dx=".25" dy="-.75"/><feGaussianBlur stdDeviation=".75"/><feComposite in2="hardAlpha" k2="-1" k3="1" operator="arithmetic"/><feColorMatrix type="matrix" values="0 0 0 0 0.262745 0 0 0 0 0.133333 0 0 0 0 0.184314 0 0 0 1 0"/><feBlend in2="shape" mode="normal" result="effect1_innerShadow_4002_3869"/></filter><filter id="l" color-interpolation-filters="sRGB" filterUnits="userSpaceOnUse" height="11.911" width="9.217" x="5.06" y="12.014"><feFlood flood-opacity="0" result="BackgroundImageFix"/><feBlend in="SourceGraphic" in2="BackgroundImageFix" mode="normal" result="shape"/><feGaussianBlur result="effect1_foregroundBlur_4002_3869" stdDeviation=".75"/></filter><filter id="m" color-interpolation-filters="sRGB" filterUnits="userSpaceOnUse" height="3.95" width="4.1" x="10.991" y="12.095"><feFlood flood-opacity="0" result="BackgroundImageFix"/><feBlend in="SourceGraphic" in2="BackgroundImageFix" mode="normal" result="shape"/><feColorMatrix in="SourceAlpha" result="hardAlpha" type="matrix" values="0 0 0 0 0 0 0 0 0 0 0 0 0 0 0 0 0 0 127 0"/><feOffset dx=".15"/><feGaussianBlur stdDeviation=".25"/><feComposite in2="hardAlpha" k2="-1" k3="1" operator="arithmetic"/><feColorMatrix type="matrix" values="0 0 0 0 0.607843 0 0 0 0 0.458824 0 0 0 0 0.403922 0 0 0 1 0"/><feBlend in2="shape" mode="normal" result="effect1_innerShadow_4002_3869"/></filter><filter id="n" color-interpolation-filters="sRGB" filterUnits="userSpaceOnUse" height="4.2" width="3.95" x="22.668" y="11.845"><feFlood flood-opacity="0" result="BackgroundImageFix"/><feBlend in="SourceGraphic" in2="BackgroundImageFix" mode="normal" result="shape"/><feColorMatrix in="SourceAlpha" result="hardAlpha" type="matrix" values="0 0 0 0 0 0 0 0 0 0 0 0 0 0 0 0 0 0 127 0"/><feOffset dy="-.25"/><feGaussianBlur stdDeviation=".25"/><feComposite in2="hardAlpha" k2="-1" k3="1" operator="arithmetic"/><feColorMatrix type="matrix" values="0 0 0 0 0.556863 0 0 0 0 0.34902 0 0 0 0 0.384314 0 0 0 1 0"/><feBlend in2="shape" mode="normal" result="effect1_innerShadow_4002_3869"/></filter><filter id="o" color-interpolation-filters="sRGB" filterUnits="userSpaceOnUse" height="3.637" width="3.637" x="22.825" y="12.251"><feFlood flood-opacity="0" result="BackgroundImageFix"/><feBlend in="SourceGraphic" in2="BackgroundImageFix" mode="normal" result="shape"/><feGaussianBlur result="effect1_foregroundBlur_4002_3869" stdDeviation=".25"/></filter><filter id="p" color-interpolation-filters="sRGB" filterUnits="userSpaceOnUse" height="3.337" width="3.337" x="11.322" y="12.401"><feFlood flood-opacity="0" result="BackgroundImageFix"/><feBlend in="SourceGraphic" in2="BackgroundImageFix" mode="normal" result="shape"/><feGaussianBlur result="effect1_foregroundBlur_4002_3869" stdDeviation=".175"/></filter><filter id="q" color-interpolation-filters="sRGB" filterUnits="userSpaceOnUse" height="13.751" width="12.509" x="12.463" y="8.046"><feFlood flood-opacity="0" result="BackgroundImageFix"/><feBlend in="SourceGraphic" in2="BackgroundImageFix" mode="normal" result="shape"/><feColorMatrix in="SourceAlpha" result="hardAlpha" type="matrix" values="0 0 0 0 0 0 0 0 0 0 0 0 0 0 0 0 0 0 127 0"/><feOffset dy=".4"/><feGaussianBlur stdDeviation=".3"/><feComposite in2="hardAlpha" k2="-1" k3="1" operator="arithmetic"/><feColorMatrix type="matrix" values="0 0 0 0 0.407843 0 0 0 0 0.223529 0 0 0 0 0.25098 0 0 0 1 0"/><feBlend in2="shape" mode="normal" result="effect1_innerShadow_4002_3869"/></filter><filter id="r" color-interpolation-filters="sRGB" filterUnits="userSpaceOnUse" height="4.292" width="3.304" x="16.866" y="12.95"><feFlood flood-opacity="0" result="BackgroundImageFix"/><feBlend in="SourceGraphic" in2="BackgroundImageFix" mode="normal" result="shape"/><feGaussianBlur result="effect1_foregroundBlur_4002_3869" stdDeviation=".25"/></filter><filter id="s" color-interpolation-filters="sRGB" filterUnits="userSpaceOnUse" height="3.792" width="2.804" x="17.316" y="13.03"><feFlood flood-opacity="0" result="BackgroundImageFix"/><feBlend in="SourceGraphic" in2="BackgroundImageFix" mode="normal" result="shape"/><feGaussianBlur result="effect1_foregroundBlur_4002_3869" stdDeviation=".125"/></filter><filter id="t" color-interpolation-filters="sRGB" filterUnits="userSpaceOnUse" height="1.578" width="3.639" x="19.92" y="12.345"><feFlood flood-opacity="0" result="BackgroundImageFix"/><feBlend in="SourceGraphic" in2="BackgroundImageFix" mode="normal" result="shape"/><feColorMatrix in="SourceAlpha" result="hardAlpha" type="matrix" values="0 0 0 0 0 0 0 0 0 0 0 0 0 0 0 0 0 0 127 0"/><feOffset dx="-.2"/><feGaussianBlur stdDeviation=".2"/><feComposite in2="hardAlpha" k2="-1" k3="1" operator="arithmetic"/><feColorMatrix type="matrix" values="0 0 0 0 0.117647 0 0 0 0 0.0705882 0 0 0 0 0.156863 0 0 0 1 0"/><feBlend in2="shape" mode="normal" result="effect1_innerShadow_4002_3869"/></filter><filter id="u" color-interpolation-filters="sRGB" filterUnits="userSpaceOnUse" height="1.578" width="3.639" x="13.878" y="12.345"><feFlood flood-opacity="0" result="BackgroundImageFix"/><feBlend in="SourceGraphic" in2="BackgroundImageFix" mode="normal" result="shape"/><feColorMatrix in="SourceAlpha" result="hardAlpha" type="matrix" values="0 0 0 0 0 0 0 0 0 0 0 0 0 0 0 0 0 0 127 0"/><feOffset dx=".2"/><feGaussianBlur stdDeviation=".125"/><feComposite in2="hardAlpha" k2="-1" k3="1" operator="arithmetic"/><feColorMatrix type="matrix" values="0 0 0 0 0.0862745 0 0 0 0 0.054902 0 0 0 0 0.113725 0 0 0 1 0"/><feBlend in2="shape" mode="normal" result="effect1_innerShadow_4002_3869"/></filter><filter id="v" color-interpolation-filters="sRGB" filterUnits="userSpaceOnUse" height="1.294" width="2.965" x="14.043" y="10.643"><feFlood flood-opacity="0" result="BackgroundImageFix"/><feBlend in="SourceGraphic" in2="BackgroundImageFix" mode="normal" result="shape"/><feColorMatrix in="SourceAlpha" result="hardAlpha" type="matrix" values="0 0 0 0 0 0 0 0 0 0 0 0 0 0 0 0 0 0 127 0"/><feOffset dx=".2" dy="-.2"/><feGaussianBlur stdDeviation=".15"/><feComposite in2="hardAlpha" k2="-1" k3="1" operator="arithmetic"/><feColorMatrix type="matrix" values="0 0 0 0 0.211765 0 0 0 0 0.121569 0 0 0 0 0.12549 0 0 0 1 0"/><feBlend in2="shape" mode="normal" result="effect1_innerShadow_4002_3869"/></filter><filter id="w" color-interpolation-filters="sRGB" filterUnits="userSpaceOnUse" height="1.294" width="2.965" x="20.693" y="10.643"><feFlood flood-opacity="0" result="BackgroundImageFix"/><feBlend in="SourceGraphic" in2="BackgroundImageFix" mode="normal" result="shape"/><feColorMatrix in="SourceAlpha" result="hardAlpha" type="matrix" values="0 0 0 0 0 0 0 0 0 0 0 0 0 0 0 0 0 0 127 0"/><feOffset dx=".2" dy="-.2"/><feGaussianBlur stdDeviation=".15"/><feComposite in2="hardAlpha" k2="-1" k3="1" operator="arithmetic"/><feColorMatrix type="matrix" values="0 0 0 0 0.211765 0 0 0 0 0.121569 0 0 0 0 0.12549 0 0 0 1 0"/><feBlend in2="shape" mode="normal" result="effect1_innerShadow_4002_3869"/></filter><filter id="x" color-interpolation-filters="sRGB" filterUnits="userSpaceOnUse" height=".809" width=".92" x="20.518" y="12.82"><feFlood flood-opacity="0" result="BackgroundImageFix"/><feBlend in="SourceGraphic" in2="BackgroundImageFix" mode="normal" result="shape"/><feGaussianBlur result="effect1_foregroundBlur_4002_3869" stdDeviation=".05"/></filter><filter id="y" color-interpolation-filters="sRGB" filterUnits="userSpaceOnUse" height="1.03" width="1.003" x="21.572" y="12.934"><feFlood flood-opacity="0" result="BackgroundImageFix"/><feBlend in="SourceGraphic" in2="BackgroundImageFix" mode="normal" result="shape"/><feGaussianBlur result="effect1_foregroundBlur_4002_3869" stdDeviation=".1"/></filter><filter id="z" color-interpolation-filters="sRGB" filterUnits="userSpaceOnUse" height="1.186" width="1.12" x="16.118" y="12.857"><feFlood flood-opacity="0" result="BackgroundImageFix"/><feBlend in="SourceGraphic" in2="BackgroundImageFix" mode="normal" result="shape"/><feGaussianBlur result="effect1_foregroundBlur_4002_3869" stdDeviation=".1"/></filter><filter id="A" color-interpolation-filters="sRGB" filterUnits="userSpaceOnUse" height=".819" width="1.075" x="15.169" y="12.81"><feFlood flood-opacity="0" result="BackgroundImageFix"/><feBlend in="SourceGraphic" in2="BackgroundImageFix" mode="normal" result="shape"/><feGaussianBlur result="effect1_foregroundBlur_4002_3869" stdDeviation=".05"/></filter><filter id="B" color-interpolation-filters="sRGB" filterUnits="userSpaceOnUse" height="1.264" width="2.839" x="20.699" y="10.716"><feFlood flood-opacity="0" result="BackgroundImageFix"/><feBlend in="SourceGraphic" in2="BackgroundImageFix" mode="normal" result="shape"/><feGaussianBlur result="effect1_foregroundBlur_4002_3869" stdDeviation=".1"/></filter><filter id="C" color-interpolation-filters="sRGB" filterUnits="userSpaceOnUse" height="1.064" width="2.639" x="14.107" y="10.816"><feFlood flood-opacity="0" result="BackgroundImageFix"/><feBlend in="SourceGraphic" in2="BackgroundImageFix" mode="normal" result="shape"/><feGaussianBlur result="effect1_foregroundBlur_4002_3869" stdDeviation=".1"/></filter><filter id="D" color-interpolation-filters="sRGB" filterUnits="userSpaceOnUse" height="5.458" width="5.088" x="11.009" y="5.64"><feFlood flood-opacity="0" result="BackgroundImageFix"/><feBlend in="SourceGraphic" in2="BackgroundImageFix" mode="normal" result="shape"/><feColorMatrix in="SourceAlpha" result="hardAlpha" type="matrix" values="0 0 0 0 0 0 0 0 0 0 0 0 0 0 0 0 0 0 127 0"/><feOffset dx=".5" dy=".5"/><feGaussianBlur stdDeviation=".5"/><feComposite in2="hardAlpha" k2="-1" k3="1" operator="arithmetic"/><feColorMatrix type="matrix" values="0 0 0 0 0.345098 0 0 0 0 0.286275 0 0 0 0 0.27451 0 0 0 1 0"/><feBlend in2="shape" mode="normal" result="effect1_innerShadow_4002_3869"/><feGaussianBlur result="effect2_foregroundBlur_4002_3869" stdDeviation=".2"/></filter><filter id="E" color-interpolation-filters="sRGB" filterUnits="userSpaceOnUse" height="6.984" width="10.637" x="14.895" y="4.213"><feFlood flood-opacity="0" result="BackgroundImageFix"/><feBlend in="SourceGraphic" in2="BackgroundImageFix" mode="normal" result="shape"/><feColorMatrix in="SourceAlpha" result="hardAlpha" type="matrix" values="0 0 0 0 0 0 0 0 0 0 0 0 0 0 0 0 0 0 127 0"/><feOffset dx="-.3" dy=".2"/><feGaussianBlur stdDeviation=".4"/><feComposite in2="hardAlpha" k2="-1" k3="1" operator="arithmetic"/><feColorMatrix type="matrix" values="0 0 0 0 0.415686 0 0 0 0 0.317647 0 0 0 0 0.305882 0 0 0 1 0"/><feBlend in2="shape" mode="normal" result="effect1_innerShadow_4002_3869"/><feGaussianBlur result="effect2_foregroundBlur_4002_3869" stdDeviation=".125"/></filter><filter id="F" color-interpolation-filters="sRGB" filterUnits="userSpaceOnUse" height="2.699" width="1.269" x="14.869" y="5.739"><feFlood flood-opacity="0" result="BackgroundImageFix"/><feBlend in="SourceGraphic" in2="BackgroundImageFix" mode="normal" result="shape"/><feGaussianBlur result="effect1_foregroundBlur_4002_3869" stdDeviation=".1"/></filter><filter id="G" color-interpolation-filters="sRGB" filterUnits="userSpaceOnUse" height="4.298" width="8.048" x="17.595" y="6.897"><feFlood flood-opacity="0" result="BackgroundImageFix"/><feBlend in="SourceGraphic" in2="BackgroundImageFix" mode="normal" result="shape"/><feGaussianBlur result="effect1_foregroundBlur_4002_3869" stdDeviation=".5"/></filter><radialGradient id="H" cx="0" cy="0" gradientTransform="matrix(2.33336383 -6.0423119 7.22854426 2.79145201 5.78297 11.4311)" gradientUnits="userSpaceOnUse" r="1"><stop offset=".475" stop-color="#a97f72"/><stop offset="1" stop-color="#9e7963"/></radialGradient><radialGradient id="I" cx="0" cy="0" gradientTransform="matrix(-6.25005331 7.24996083 -1.74519094 -1.50449591 10.0471 9.54507)" gradientUnits="userSpaceOnUse" r="1"><stop offset=".147" stop-color="#814f57"/><stop offset="1" stop-color="#8e675e" stop-opacity="0"/></radialGradient><linearGradient id="J" gradientUnits="userSpaceOnUse" x1="6.266" x2="6.266" y1="12.092" y2="10.389"><stop offset="0" stop-color="#7f4a33"/><stop offset="1" stop-color="#7f4a33" stop-opacity="0"/></linearGradient><linearGradient id="K"><stop offset=".401" stop-color="#9c745d"/><stop offset="1" stop-color="#9c745d" stop-opacity="0"/></linearGradient><radialGradient id="L" cx="0" cy="0" gradientTransform="matrix(.19531312 2.2578079 -.2707359 .02342018 4.50807 4.6181)" gradientUnits="userSpaceOnUse" r="1" xlink:href="#K"/><radialGradient id="M" cx="0" cy="0" gradientTransform="matrix(-.04687352 3.4062475 -.26600482 -.0036605 6.15651 3.45403)" gradientUnits="userSpaceOnUse" r="1" xlink:href="#K"/><radialGradient id="N" cx="0" cy="0" gradientTransform="matrix(-.6718766 3.96875017 -.5671601 -.09601552 8.12526 2.68841)" gradientUnits="userSpaceOnUse" r="1"><stop offset=".652" stop-color="#9c745d"/><stop offset="1" stop-color="#9c745d" stop-opacity="0"/></radialGradient><linearGradient id="O"><stop offset="0" stop-color="#c8a48a"/><stop offset="1" stop-color="#c8a48a" stop-opacity="0"/></linearGradient><radialGradient id="P" cx="0" cy="0" gradientTransform="matrix(-.66289451 .7379266 -.64824912 -.58233541 9.6239 3.04892)" gradientUnits="userSpaceOnUse" r="1" xlink:href="#O"/><radialGradient id="Q" cx="0" cy="0" gradientTransform="matrix(-.65039099 1.06500985 -.65799072 -.40182843 7.69777 2.02142)" gradientUnits="userSpaceOnUse" r="1" xlink:href="#O"/><radialGradient id="R" cx="0" cy="0" gradientTransform="matrix(-.21262332 1.22571493 -.94056048 -.16315791 5.63406 2.61116)" gradientUnits="userSpaceOnUse" r="1" xlink:href="#O"/><radialGradient id="S" cx="0" cy="0" gradientTransform="matrix(-.13758045 .96306346 -.68465105 -.09780726 3.88304 3.83688)" gradientUnits="userSpaceOnUse" r="1" xlink:href="#O"/><radialGradient id="T" cx="0" cy="0" gradientTransform="matrix(-1.09124961 1.09124961 -.8539375 -.8539375 11.9188 6.31796)" gradientUnits="userSpaceOnUse" r="1" xlink:href="#O"/><linearGradient id="U"><stop offset="0" stop-color="#724736"/><stop offset="1" stop-color="#724736" stop-opacity="0"/></linearGradient><linearGradient id="V" gradientUnits="userSpaceOnUse" x1="4.756" x2="3.804" xlink:href="#U" y1="4.785" y2="6.571"/><linearGradient id="W" gradientUnits="userSpaceOnUse" x1="6.176" x2="4.875" xlink:href="#U" y1="4.356" y2="5.336"/><linearGradient id="X" gradientUnits="userSpaceOnUse" x1="7.935" x2="7.553" xlink:href="#U" y1="4.956" y2="6.521"/><linearGradient id="Y"><stop offset="0" stop-color="#c09a87"/><stop offset="1" stop-color="#c09a87" stop-opacity="0"/></linearGradient><linearGradient id="Z" gradientUnits="userSpaceOnUse" x1="3.522" x2="3.941" xlink:href="#Y" y1="4.898" y2="7.505"/><linearGradient id="aa" gradientUnits="userSpaceOnUse" x1="4.666" x2="4.878" xlink:href="#Y" y1="4.025" y2="7.148"/><linearGradient id="ab" gradientUnits="userSpaceOnUse" x1="6.816" x2="7.918" xlink:href="#Y" y1="3.268" y2="6.945"/><linearGradient id="ac" gradientUnits="userSpaceOnUse" x1="7.77" x2="8.086" xlink:href="#Y" y1="4.218" y2="7.649"/><linearGradient id="ad"><stop offset="0" stop-color="#b7927f"/><stop offset="1" stop-color="#b7927f" stop-opacity="0"/></linearGradient><linearGradient id="ae" gradientUnits="userSpaceOnUse" x1="4.816" x2="3.724" xlink:href="#ad" y1="6.765" y2="6.697"/><linearGradient id="af" gradientUnits="userSpaceOnUse" x1="6.088" x2="5.524" xlink:href="#ad" y1="6.593" y2="6.452"/><linearGradient id="ag" gradientUnits="userSpaceOnUse" x1="7.589" x2="6.786" xlink:href="#ad" y1="6.406" y2="6.193"/><linearGradient id="ah" gradientUnits="userSpaceOnUse" x1="24.479" x2="16.948" y1="5.535" y2="18.744"><stop offset="0" stop-color="#6d524e"/><stop offset="1" stop-color="#2c1c24"/></linearGradient><radialGradient id="ai" cx="0" cy="0" gradientTransform="matrix(-.74067931 5.59627755 -6.99088584 -.9252587 18.3477 17.1393)" gradientUnits="userSpaceOnUse" r="1"><stop offset=".591" stop-color="#261326"/><stop offset="1" stop-color="#261326" stop-opacity="0"/></radialGradient><radialGradient id="aj" cx="0" cy="0" gradientTransform="matrix(-3.53891351 2.38666785 -3.13589201 -4.64985129 14.8911 17.4685)" gradientUnits="userSpaceOnUse" r="1"><stop offset=".258" stop-color="#25131c"/><stop offset="1" stop-color="#25131c" stop-opacity="0"/></radialGradient><radialGradient id="ak" cx="0" cy="0" gradientTransform="matrix(-1.6048033 2.098616 -1.61144197 -1.23226326 12.7719 14.3412)" gradientUnits="userSpaceOnUse" r="1"><stop offset=".334" stop-color="#27141e"/><stop offset="1" stop-color="#27141e" stop-opacity="0"/></radialGradient><radialGradient id="al" cx="0" cy="0" gradientTransform="matrix(-1.584263 2.59238619 -1.82610852 -1.11597422 13.3274 11.8517)" gradientUnits="userSpaceOnUse" r="1"><stop offset=".321" stop-color="#230c14"/><stop offset="1" stop-color="#230c14" stop-opacity="0"/></radialGradient><radialGradient id="am" cx="0" cy="0" gradientTransform="matrix(1.68711674 3.20963093 -4.45545488 2.3419741 14.3972 4.17736)" gradientUnits="userSpaceOnUse" r="1"><stop offset="0" stop-color="#554543"/><stop offset="1" stop-color="#554543" stop-opacity="0"/></radialGradient><radialGradient id="an" cx="0" cy="0" gradientTransform="matrix(-1.76930325 1.76942678 -2.47273973 -2.47256711 25.8778 6.72861)" gradientUnits="userSpaceOnUse" r="1"><stop offset="0" stop-color="#6e5350"/><stop offset="1" stop-color="#6e5350" stop-opacity="0"/></radialGradient><radialGradient id="ao" cx="0" cy="0" gradientTransform="matrix(-2.26310384 .65839202 -1.37302418 -4.719523 27.9353 13.0244)" gradientUnits="userSpaceOnUse" r="1"><stop offset="0" stop-color="#604947"/><stop offset="1" stop-color="#604947" stop-opacity="0"/></radialGradient><radialGradient id="ap" cx="0" cy="0" gradientTransform="matrix(-3.45642199 .86415399 -1.10080365 -4.4029675 27.1946 17.2216)" gradientUnits="userSpaceOnUse" r="1"><stop offset="0" stop-color="#564544"/><stop offset="1" stop-color="#564544" stop-opacity="0"/></radialGradient><radialGradient id="aq" cx="0" cy="0" gradientTransform="matrix(-1.11020759 -3.25320828 2.57310119 -.87811053 24.5272 10.0367)" gradientUnits="userSpaceOnUse" r="1"><stop offset="0" stop-color="#5f4846"/><stop offset="1" stop-color="#5f4846" stop-opacity="0"/></radialGradient><radialGradient id="ar" cx="0" cy="0" gradientTransform="matrix(1.84606175 .19364224 -.313757 2.99115928 11.1787 12.98)" gradientUnits="userSpaceOnUse" r="1"><stop offset="0" stop-color="#56413d"/><stop offset="1" stop-color="#56413d" stop-opacity="0"/></radialGradient><radialGradient id="as" cx="0" cy="0" gradientTransform="matrix(-1.02871065 -4.54698428 1.64109469 -.3712816 24.9931 12.1808)" gradientUnits="userSpaceOnUse" r="1"><stop offset="0" stop-color="#3e2125"/><stop offset="1" stop-color="#3e2125" stop-opacity="0"/></radialGradient><linearGradient id="at" gradientUnits="userSpaceOnUse" x1="3.904" x2="8.279" y1="12.149" y2="12.149"><stop offset="0" stop-color="#745c92"/><stop offset=".743" stop-color="#463168"/></linearGradient><radialGradient id="au" cx="0" cy="0" gradientTransform="matrix(0 1.10937 -1.15625 0 6.83466 12.0386)" gradientUnits="userSpaceOnUse" r="1"><stop offset="0" stop-color="#655188"/><stop offset="1" stop-color="#655188" stop-opacity="0"/></radialGradient><linearGradient id="av" gradientUnits="userSpaceOnUse" x1="6.174" x2="6.174" y1="11.563" y2="11.82"><stop offset="0" stop-color="#4f396f"/><stop offset="1" stop-color="#4f396f" stop-opacity="0"/></linearGradient><linearGradient id="aw" gradientUnits="userSpaceOnUse" x1="18.688" x2="5.165" y1="28.764" y2="12.586"><stop offset="0" stop-color="#8663c9"/><stop offset=".751" stop-color="#7a5fb3"/></linearGradient><radialGradient id="ax" cx="0" cy="0" gradientTransform="matrix(-8.05788956 2.36575988 -2.05169807 -6.98818026 25.1802 27.2203)" gradientUnits="userSpaceOnUse" r="1"><stop offset="0" stop-color="#9e7fdf"/><stop offset="1" stop-color="#9e7fdf" stop-opacity="0"/></radialGradient><radialGradient id="ay" cx="0" cy="0" gradientTransform="matrix(0 -4.62502 2.65624 0 10.5952 29.5861)" gradientUnits="userSpaceOnUse" r="1"><stop offset="0" stop-color="#8969ba"/><stop offset="1" stop-color="#8969ba" stop-opacity="0"/></radialGradient><linearGradient id="az" gradientUnits="userSpaceOnUse" x1="9.133" x2="11.026" y1="26.009" y2="19.818"><stop offset=".1" stop-color="#6b45ad"/><stop offset="1" stop-color="#6b45ad" stop-opacity="0"/></linearGradient><radialGradient id="aA" cx="0" cy="0" gradientTransform="matrix(0 8.65452 -5.4375 0 2.64775 12.5861)" gradientUnits="userSpaceOnUse" r="1"><stop offset="0" stop-color="#8b6ebc"/><stop offset="1" stop-color="#8b6ebc" stop-opacity="0"/></radialGradient><radialGradient id="aB" cx="0" cy="0" gradientTransform="matrix(-10.10927549 -2.13275418 .90223524 -4.27660376 17.3708 19.8586)" gradientUnits="userSpaceOnUse" r="1"><stop offset=".287" stop-color="#362659"/><stop offset="1" stop-color="#5e4490" stop-opacity="0"/></radialGradient><radialGradient id="aC" cx="0" cy="0" gradientTransform="matrix(-5.69115 0 0 -5.6259 11.4176 15.4461)" gradientUnits="userSpaceOnUse" r="1"><stop offset=".132" stop-color="#362659"/><stop offset="1" stop-color="#5e4490" stop-opacity="0"/></radialGradient><linearGradient id="aD" gradientUnits="userSpaceOnUse" x1="13.471" x2="12.687" y1="24.32" y2="22.687"><stop offset="0" stop-color="#8967cb"/><stop offset=".732" stop-color="#8967cb" stop-opacity="0"/></linearGradient><linearGradient id="aE" gradientUnits="userSpaceOnUse" x1="6.662" x2="6.662" y1="12.586" y2="13.608"><stop offset="0" stop-color="#6a51a2"/><stop offset="1" stop-color="#6a51a2" stop-opacity="0"/></linearGradient><radialGradient id="aF" cx="0" cy="0" gradientTransform="matrix(1.96875388 3.93749937 -4.43750184 2.21875565 17.875 19.3434)" gradientUnits="userSpaceOnUse" r="1"><stop offset=".477" stop-color="#935d65"/><stop offset="1" stop-color="#ad7b7c"/></radialGradient><linearGradient id="aG" gradientUnits="userSpaceOnUse" x1="6.717" x2="12.467" y1="14.294" y2="22.575"><stop offset="0" stop-color="#9478ce"/><stop offset="1" stop-color="#9478ce" stop-opacity="0"/></linearGradient><linearGradient id="aH" gradientUnits="userSpaceOnUse" x1="10.991" x2="13.271" y1="14.177" y2="14.177"><stop offset="0" stop-color="#8d645f"/><stop offset="1" stop-color="#604138"/></linearGradient><radialGradient id="aI" cx="0" cy="0" gradientTransform="matrix(-.8024142 -1.47724821 1.67392641 -.90924621 12.4839 16.0448)" gradientUnits="userSpaceOnUse" r="1"><stop offset="0" stop-color="#814e62"/><stop offset="1" stop-color="#814e62" stop-opacity="0"/></radialGradient><radialGradient id="aJ" cx="0" cy="0" gradientTransform="matrix(3.05532536 -1.38878716 1.69564327 3.73040738 23.6765 14.6087)" gradientUnits="userSpaceOnUse" r="1"><stop offset=".64" stop-color="#b28279"/><stop offset="1" stop-color="#cca58b"/></radialGradient><radialGradient id="aK" cx="0" cy="0" gradientTransform="matrix(1.48137 0 0 .637811 24.7874 11.9751)" gradientUnits="userSpaceOnUse" r="1"><stop offset="0" stop-color="#906d53"/><stop offset="1" stop-color="#906d53" stop-opacity="0"/></radialGradient><radialGradient id="aL" cx="0" cy="0" gradientTransform="matrix(1.85339948 -.13786571 .10777221 1.44883719 24.1085 14.2075)" gradientUnits="userSpaceOnUse" r="1"><stop offset=".719" stop-color="#a26d62" stop-opacity="0"/><stop offset="1" stop-color="#a26d62"/></radialGradient><radialGradient id="aM" cx="0" cy="0" gradientTransform="matrix(-1.2962 0 0 -1.2962 13.0702 14.0696)" gradientUnits="userSpaceOnUse" r="1"><stop offset=".722" stop-color="#6c4640" stop-opacity="0"/><stop offset="1" stop-color="#6c4640"/></radialGradient><radialGradient id="aN" cx="0" cy="0" gradientTransform="matrix(-7.98316475 3.68130307 -4.92736253 -10.68533235 22.2278 13.4098)" gradientUnits="userSpaceOnUse" r="1"><stop offset="0" stop-color="#c79980"/><stop offset="1" stop-color="#946568"/></radialGradient><radialGradient id="aO" cx="0" cy="0" gradientTransform="matrix(-2.67630445 1.17765789 -.82010131 -1.86373377 21.1372 14.458)" gradientUnits="userSpaceOnUse" r="1"><stop offset="0" stop-color="#c4967a"/><stop offset="1" stop-color="#c4967a" stop-opacity="0"/></radialGradient><radialGradient id="aP" cx="0" cy="0" gradientTransform="matrix(1.58243491 -4.82207821 6.11832486 2.00781705 16.0641 21.3978)" gradientUnits="userSpaceOnUse" r="1"><stop offset="0" stop-color="#945a73"/><stop offset="1" stop-color="#945a73" stop-opacity="0"/></radialGradient><radialGradient id="aQ" cx="0" cy="0" gradientTransform="matrix(-1.57694855 9.05061606 -11.31315924 -1.97116637 19.9737 12.8988)" gradientUnits="userSpaceOnUse" r="1"><stop offset=".637" stop-color="#97577d" stop-opacity="0"/><stop offset="1" stop-color="#97577d"/></radialGradient><radialGradient id="aR" cx="0" cy="0" gradientTransform="matrix(0 7.69487 -7.73608 0 18.3967 13.8886)" gradientUnits="userSpaceOnUse" r="1"><stop offset=".911" stop-color="#9f6394" stop-opacity="0"/><stop offset="1" stop-color="#9f6394"/></radialGradient><radialGradient id="aS" cx="0" cy="0" gradientTransform="matrix(-8.47672127 1.66352752 -2.86408561 -14.59432146 20.9401 15.5345)" gradientUnits="userSpaceOnUse" r="1"><stop offset=".795" stop-color="#9a7267" stop-opacity="0"/><stop offset="1" stop-color="#9a7267"/></radialGradient><radialGradient id="aT" cx="0" cy="0" gradientTransform="matrix(0 -1.41257 1.73361 0 21.5429 12.8961)" gradientUnits="userSpaceOnUse" r="1"><stop offset="0" stop-color="#ae7b75"/><stop offset="1" stop-color="#ae7b75" stop-opacity="0"/></radialGradient><radialGradient id="aU" cx="0" cy="0" gradientTransform="matrix(0 -1.61111 1.84645 0 16.1691 12.6156)" gradientUnits="userSpaceOnUse" r="1"><stop offset="0" stop-color="#8f5c65"/><stop offset="1" stop-color="#8f5c65" stop-opacity="0"/></radialGradient><radialGradient id="aV" cx="0" cy="0" gradientTransform="matrix(-1.06812243 3.96083651 -3.1693219 -.85467396 20.416 10.0533)" gradientUnits="userSpaceOnUse" r="1"><stop offset="0" stop-color="#ab8179"/><stop offset="1" stop-color="#ab8179" stop-opacity="0"/></radialGradient><radialGradient id="aW" cx="0" cy="0" gradientTransform="matrix(-1.57769 0 0 -7.91196 24.9727 14.7221)" gradientUnits="userSpaceOnUse" r="1"><stop offset="0" stop-color="#c0967a"/><stop offset="1" stop-color="#c0967a" stop-opacity="0"/></radialGradient><radialGradient id="aX" cx="0" cy="0" gradientTransform="matrix(-.55918047 -2.50903371 .77326092 -.17233424 19.6808 15.6143)" gradientUnits="userSpaceOnUse" r="1"><stop offset=".017" stop-color="#cda38b"/><stop offset="1" stop-color="#cda38b" stop-opacity="0"/></radialGradient><linearGradient id="aY" gradientUnits="userSpaceOnUse" x1="17.566" x2="18.718" y1="15.704" y2="15.704"><stop offset="0" stop-color="#875f54"/><stop offset="1" stop-color="#875f54" stop-opacity="0"/></linearGradient><linearGradient id="aZ" gradientUnits="userSpaceOnUse" x1="18.718" x2="18.718" y1="16.572" y2="15.802"><stop offset="0" stop-color="#995c76"/><stop offset="1" stop-color="#995c76" stop-opacity="0"/></linearGradient><radialGradient id="a0" cx="0" cy="0" gradientTransform="matrix(-.956717 0 0 -.26747 19.3866 15.874)" gradientUnits="userSpaceOnUse" r="1"><stop offset="0" stop-color="#ca9f8c"/><stop offset="1" stop-color="#ca9f8c" stop-opacity="0"/></radialGradient><linearGradient id="a1" gradientUnits="userSpaceOnUse" x1="18.814" x2="18.814" y1="16.652" y2="16.481"><stop offset="0" stop-color="#8f5269"/><stop offset="1" stop-color="#8f5269" stop-opacity="0"/></linearGradient><radialGradient id="a2" cx="0" cy="0" gradientTransform="matrix(-1.68316233 1.15555152 -1.3887956 -2.02290283 19.1809 15.1436)" gradientUnits="userSpaceOnUse" r="1"><stop offset=".778" stop-color="#815553" stop-opacity="0"/><stop offset="1" stop-color="#693b40"/><stop offset="1" stop-color="#815553"/></radialGradient><linearGradient id="a3" gradientUnits="userSpaceOnUse" x1="17.411" x2="17.977" y1="18.415" y2="17.541"><stop offset="0" stop-color="#a87d7b"/><stop offset=".663" stop-color="#a87d7b" stop-opacity="0"/></linearGradient><linearGradient id="a4"><stop offset=".802" stop-color="#7d574a"/><stop offset="1" stop-color="#694b43"/><stop offset="1" stop-color="#804d49"/><stop offset="1" stop-color="#664944"/></linearGradient><radialGradient id="a5" cx="0" cy="0" gradientTransform="matrix(0 .995893 -1.58408 0 21.3964 13.3367)" gradientUnits="userSpaceOnUse" r="1" xlink:href="#a4"/><linearGradient id="a6"><stop offset=".766" stop-color="#ffe6e2" stop-opacity="0"/><stop offset=".966" stop-color="#ffe6e2"/></linearGradient><radialGradient id="a7" cx="0" cy="0" gradientTransform="matrix(-.28467839 -.36684649 .50505928 -.39193359 21.1164 13.44)" gradientUnits="userSpaceOnUse" r="1" xlink:href="#a6"/><linearGradient id="a8"><stop offset="0" stop-color="#b4948d"/><stop offset="1" stop-color="#b4948d" stop-opacity="0"/></linearGradient><linearGradient id="a9" gradientUnits="userSpaceOnUse" x1="22.351" x2="21.966" xlink:href="#a8" y1="13.403" y2="13.64"/><radialGradient id="ba" cx="0" cy="0" gradientTransform="matrix(0 .995899 -1.58409 0 16.0394 13.3367)" gradientUnits="userSpaceOnUse" r="1" xlink:href="#a4"/><linearGradient id="bb" gradientUnits="userSpaceOnUse" x1="16.953" x2="16.567" xlink:href="#a8" y1="13.403" y2="13.64"/><radialGradient id="bc" cx="0" cy="0" gradientTransform="matrix(-.00949527 -.60645967 .72898865 -.01141369 15.6879 13.6058)" gradientUnits="userSpaceOnUse" r="1" xlink:href="#a6"/><radialGradient id="bd" cx="0" cy="0" gradientTransform="matrix(1.54914127 -3.38229221 1.73029515 .79250149 11.7726 10.7338)" gradientUnits="userSpaceOnUse" r="1"><stop offset="0" stop-color="#5c4643"/><stop offset="1" stop-color="#5c4643" stop-opacity="0"/></radialGradient><radialGradient id="be" cx="0" cy="0" gradientTransform="matrix(1.41104728 -2.42461664 1.30168479 .75753781 13.8687 9.53034)" gradientUnits="userSpaceOnUse" r="1"><stop offset="0" stop-color="#4b2839"/><stop offset="1" stop-color="#4b2839" stop-opacity="0"/></radialGradient><radialGradient id="bf" cx="0" cy="0" gradientTransform="matrix(-2.5924266 5.39051636 -8.81318558 -4.23846905 21.0636 4.34197)" gradientUnits="userSpaceOnUse" r="1"><stop offset=".639" stop-color="#442534" stop-opacity="0"/><stop offset="1" stop-color="#442534"/></radialGradient><radialGradient id="bg" cx="0" cy="0" gradientTransform="matrix(-.25818823 1.67823566 -3.61064102 -.55547922 18.9762 4.79541)" gradientUnits="userSpaceOnUse" r="1"><stop offset="0" stop-color="#634945"/><stop offset="1" stop-color="#4c4749" stop-opacity="0"/><stop offset="1" stop-color="#634945" stop-opacity="0"/></radialGradient><linearGradient id="bh" gradientUnits="userSpaceOnUse" x1="14.902" x2="15.503" y1="5.536" y2="7.089"><stop offset="0" stop-color="#361f1f"/><stop offset="1" stop-color="#452531"/></linearGradient><path d="m3.2036 8.79507c-.12499-1.92187-.28124-2.95833-.32812-3.64062-.03519-.51226.02344-1.06641.71094-1.19141.59766-.07422.88281.45182.90625.66016-.00261-.20052 0-.67953 0-.80469 0-.21094.00781-.97657.85937-.97657.60134 0 .81641.58724.80079.86329.01041-.10157.02265-.41329.03515-.70704.01844-.4333.25157-.98906.94532-.97656.59765.03906.79297.61328.76561.97656l-.11718 1.86719c.02343-.1875.10235-.66484.27735-1.33984s.70158-.71979.95702-.6836c.32599.04618.87969.36094.64844 1.27344-.275 1.15625-.46223 2.64453-.52734 3.28516.32422-.13282.64231-.41259 1.0017-.78759.3594-.375.8867-.38282 1.1836-.16016.3398.29297.5217.96728.1194 1.36962-.4625.425-2.12892 2.40499-2.95705 3.39449-.22916.2917-.99687.875-2.23437.875-2.20313-.0937-2.94147-1.6761-3.04688-3.29683z" fill="url(#H)"/><path d="m3.2036 8.79507c-.12499-1.92187-.28124-2.95833-.32812-3.64062-.03519-.51226.02344-1.06641.71094-1.19141.59766-.07422.88281.45182.90625.66016-.00261-.20052 0-.67953 0-.80469 0-.21094.00781-.97657.85937-.97657.60134 0 .81641.58724.80079.86329.01041-.10157.02265-.41329.03515-.70704.01844-.4333.25157-.98906.94532-.97656.59765.03906.79297.61328.76561.97656l-.11718 1.86719c.02343-.1875.10235-.66484.27735-1.33984s.70158-.71979.95702-.6836c.32599.04618.87969.36094.64844 1.27344-.275 1.15625-.46223 2.64453-.52734 3.28516.32422-.13282.64231-.41259 1.0017-.78759.3594-.375.8867-.38282 1.1836-.16016.3398.29297.5217.96728.1194 1.36962-.4625.425-2.12892 2.40499-2.95705 3.39449-.22916.2917-.99687.875-2.23437.875-2.20313-.0937-2.94147-1.6761-3.04688-3.29683z" fill="url(#I)"/><path d="m3.2036 8.79507c-.12499-1.92187-.28124-2.95833-.32812-3.64062-.03519-.51226.02344-1.06641.71094-1.19141.59766-.07422.88281.45182.90625.66016-.00261-.20052 0-.67953 0-.80469 0-.21094.00781-.97657.85937-.97657.60134 0 .81641.58724.80079.86329.01041-.10157.02265-.41329.03515-.70704.01844-.4333.25157-.98906.94532-.97656.59765.03906.79297.61328.76561.97656l-.11718 1.86719c.02343-.1875.10235-.66484.27735-1.33984s.70158-.71979.95702-.6836c.32599.04618.87969.36094.64844 1.27344-.275 1.15625-.46223 2.64453-.52734 3.28516.32422-.13282.64231-.41259 1.0017-.78759.3594-.375.8867-.38282 1.1836-.16016.3398.29297.5217.96728.1194 1.36962-.4625.425-2.12892 2.40499-2.95705 3.39449-.22916.2917-.99687.875-2.23437.875-2.20313-.0937-2.94147-1.6761-3.04688-3.29683z" fill="url(#J)"/><path d="m3.2036 8.79507c-.12499-1.92187-.28124-2.95833-.32812-3.64062-.03519-.51226.02344-1.06641.71094-1.19141.59766-.07422.88281.45182.90625.66016-.00261-.20052 0-.67953 0-.80469 0-.21094.00781-.97657.85937-.97657.60134 0 .81641.58724.80079.86329.01041-.10157.02265-.41329.03515-.70704.01844-.4333.25157-.98906.94532-.97656.59765.03906.79297.61328.76561.97656l-.11718 1.86719c.02343-.1875.10235-.66484.27735-1.33984s.70158-.71979.95702-.6836c.32599.04618.87969.36094.64844 1.27344-.275 1.15625-.46223 2.64453-.52734 3.28516.32422-.13282.64231-.41259 1.0017-.78759.3594-.375.8867-.38282 1.1836-.16016.3398.29297.5217.96728.1194 1.36962-.4625.425-2.12892 2.40499-2.95705 3.39449-.22916.2917-.99687.875-2.23437.875-2.20313-.0937-2.94147-1.6761-3.04688-3.29683z" fill="url(#L)"/><path d="m3.2036 8.79507c-.12499-1.92187-.28124-2.95833-.32812-3.64062-.03519-.51226.02344-1.06641.71094-1.19141.59766-.07422.88281.45182.90625.66016-.00261-.20052 0-.67953 0-.80469 0-.21094.00781-.97657.85937-.97657.60134 0 .81641.58724.80079.86329.01041-.10157.02265-.41329.03515-.70704.01844-.4333.25157-.98906.94532-.97656.59765.03906.79297.61328.76561.97656l-.11718 1.86719c.02343-.1875.10235-.66484.27735-1.33984s.70158-.71979.95702-.6836c.32599.04618.87969.36094.64844 1.27344-.275 1.15625-.46223 2.64453-.52734 3.28516.32422-.13282.64231-.41259 1.0017-.78759.3594-.375.8867-.38282 1.1836-.16016.3398.29297.5217.96728.1194 1.36962-.4625.425-2.12892 2.40499-2.95705 3.39449-.22916.2917-.99687.875-2.23437.875-2.20313-.0937-2.94147-1.6761-3.04688-3.29683z" fill="url(#M)"/><path d="m3.2036 8.79507c-.12499-1.92187-.28124-2.95833-.32812-3.64062-.03519-.51226.02344-1.06641.71094-1.19141.59766-.07422.88281.45182.90625.66016-.00261-.20052 0-.67953 0-.80469 0-.21094.00781-.97657.85937-.97657.60134 0 .81641.58724.80079.86329.01041-.10157.02265-.41329.03515-.70704.01844-.4333.25157-.98906.94532-.97656.59765.03906.79297.61328.76561.97656l-.11718 1.86719c.02343-.1875.10235-.66484.27735-1.33984s.70158-.71979.95702-.6836c.32599.04618.87969.36094.64844 1.27344-.275 1.15625-.46223 2.64453-.52734 3.28516.32422-.13282.64231-.41259 1.0017-.78759.3594-.375.8867-.38282 1.1836-.16016.3398.29297.5217.96728.1194 1.36962-.4625.425-2.12892 2.40499-2.95705 3.39449-.22916.2917-.99687.875-2.23437.875-2.20313-.0937-2.94147-1.6761-3.04688-3.29683z" fill="url(#N)"/><path d="m3.2036 8.79507c-.12499-1.92187-.28124-2.95833-.32812-3.64062-.03519-.51226.02344-1.06641.71094-1.19141.59766-.07422.88281.45182.90625.66016-.00261-.20052 0-.67953 0-.80469 0-.21094.00781-.97657.85937-.97657.60134 0 .81641.58724.80079.86329.01041-.10157.02265-.41329.03515-.70704.01844-.4333.25157-.98906.94532-.97656.59765.03906.79297.61328.76561.97656l-.11718 1.86719c.02343-.1875.10235-.66484.27735-1.33984s.70158-.71979.95702-.6836c.32599.04618.87969.36094.64844 1.27344-.275 1.15625-.46223 2.64453-.52734 3.28516.32422-.13282.64231-.41259 1.0017-.78759.3594-.375.8867-.38282 1.1836-.16016.3398.29297.5217.96728.1194 1.36962-.4625.425-2.12892 2.40499-2.95705 3.39449-.22916.2917-.99687.875-2.23437.875-2.20313-.0937-2.94147-1.6761-3.04688-3.29683z" fill="url(#P)"/><path d="m3.2036 8.79507c-.12499-1.92187-.28124-2.95833-.32812-3.64062-.03519-.51226.02344-1.06641.71094-1.19141.59766-.07422.88281.45182.90625.66016-.00261-.20052 0-.67953 0-.80469 0-.21094.00781-.97657.85937-.97657.60134 0 .81641.58724.80079.86329.01041-.10157.02265-.41329.03515-.70704.01844-.4333.25157-.98906.94532-.97656.59765.03906.79297.61328.76561.97656l-.11718 1.86719c.02343-.1875.10235-.66484.27735-1.33984s.70158-.71979.95702-.6836c.32599.04618.87969.36094.64844 1.27344-.275 1.15625-.46223 2.64453-.52734 3.28516.32422-.13282.64231-.41259 1.0017-.78759.3594-.375.8867-.38282 1.1836-.16016.3398.29297.5217.96728.1194 1.36962-.4625.425-2.12892 2.40499-2.95705 3.39449-.22916.2917-.99687.875-2.23437.875-2.20313-.0937-2.94147-1.6761-3.04688-3.29683z" fill="url(#Q)"/><path d="m3.2036 8.79507c-.12499-1.92187-.28124-2.95833-.32812-3.64062-.03519-.51226.02344-1.06641.71094-1.19141.59766-.07422.88281.45182.90625.66016-.00261-.20052 0-.67953 0-.80469 0-.21094.00781-.97657.85937-.97657.60134 0 .81641.58724.80079.86329.01041-.10157.02265-.41329.03515-.70704.01844-.4333.25157-.98906.94532-.97656.59765.03906.79297.61328.76561.97656l-.11718 1.86719c.02343-.1875.10235-.66484.27735-1.33984s.70158-.71979.95702-.6836c.32599.04618.87969.36094.64844 1.27344-.275 1.15625-.46223 2.64453-.52734 3.28516.32422-.13282.64231-.41259 1.0017-.78759.3594-.375.8867-.38282 1.1836-.16016.3398.29297.5217.96728.1194 1.36962-.4625.425-2.12892 2.40499-2.95705 3.39449-.22916.2917-.99687.875-2.23437.875-2.20313-.0937-2.94147-1.6761-3.04688-3.29683z" fill="url(#R)"/><path d="m3.2036 8.79507c-.12499-1.92187-.28124-2.95833-.32812-3.64062-.03519-.51226.02344-1.06641.71094-1.19141.59766-.07422.88281.45182.90625.66016-.00261-.20052 0-.67953 0-.80469 0-.21094.00781-.97657.85937-.97657.60134 0 .81641.58724.80079.86329.01041-.10157.02265-.41329.03515-.70704.01844-.4333.25157-.98906.94532-.97656.59765.03906.79297.61328.76561.97656l-.11718 1.86719c.02343-.1875.10235-.66484.27735-1.33984s.70158-.71979.95702-.6836c.32599.04618.87969.36094.64844 1.27344-.275 1.15625-.46223 2.64453-.52734 3.28516.32422-.13282.64231-.41259 1.0017-.78759.3594-.375.8867-.38282 1.1836-.16016.3398.29297.5217.96728.1194 1.36962-.4625.425-2.12892 2.40499-2.95705 3.39449-.22916.2917-.99687.875-2.23437.875-2.20313-.0937-2.94147-1.6761-3.04688-3.29683z" fill="url(#S)"/><path d="m3.2036 8.79507c-.12499-1.92187-.28124-2.95833-.32812-3.64062-.03519-.51226.02344-1.06641.71094-1.19141.59766-.07422.88281.45182.90625.66016-.00261-.20052 0-.67953 0-.80469 0-.21094.00781-.97657.85937-.97657.60134 0 .81641.58724.80079.86329.01041-.10157.02265-.41329.03515-.70704.01844-.4333.25157-.98906.94532-.97656.59765.03906.79297.61328.76561.97656l-.11718 1.86719c.02343-.1875.10235-.66484.27735-1.33984s.70158-.71979.95702-.6836c.32599.04618.87969.36094.64844 1.27344-.275 1.15625-.46223 2.64453-.52734 3.28516.32422-.13282.64231-.41259 1.0017-.78759.3594-.375.8867-.38282 1.1836-.16016.3398.29297.5217.96728.1194 1.36962-.4625.425-2.12892 2.40499-2.95705 3.39449-.22916.2917-.99687.875-2.23437.875-2.20313-.0937-2.94147-1.6761-3.04688-3.29683z" fill="url(#T)"/><g filter="url(#a)"><path d="m4.50024 4.78217.14844 1.94531" stroke="url(#V)" stroke-linecap="round" stroke-width=".075"/></g><g filter="url(#b)"><path d="m6.12524 4.35248-.07031 2.29687" stroke="url(#W)" stroke-linecap="round" stroke-width=".075"/></g><g filter="url(#c)"><path d="m7.76587 4.95404-.23438 1.40625" stroke="url(#X)" stroke-linecap="round" stroke-width=".075"/></g><g filter="url(#d)"><path d="m3.82642 4.42157.35937 2.63281" stroke="url(#Z)" stroke-width=".4"/></g><g filter="url(#e)"><path d="m5.51392 3.46576v3.0886" stroke="url(#aa)" stroke-width=".4"/></g><g filter="url(#f)"><path d="m7.34985 2.55438-.28906 3.94398" stroke="url(#ab)" stroke-width=".4"/></g><g filter="url(#g)"><path d="m9.27173 3.60126-.8125 3.40625" stroke="url(#ac)" stroke-width=".4"/></g><g filter="url(#h)"><path d="m3.8186 7.57001c.10938-.0625.61719-.37891.8125-.75782" stroke="url(#ae)" stroke-linecap="round" stroke-width=".2"/></g><g filter="url(#i)"><path d="m5.98562 6.60434c-.13052.16468-.33261.29981-.5183.39931" stroke="url(#af)" stroke-linecap="round" stroke-width=".2"/></g><g filter="url(#j)"><path d="m7.44463 6.41288c-.13052.16468-.50118.36025-.71212.42275" stroke="url(#ag)" stroke-linecap="round" stroke-width=".2"/></g><g clip-rule="evenodd" fill-rule="evenodd" filter="url(#k)"><path d="m27.5378 15.8c.2608-.5341.3975-1.1304.3975-1.7515 0-.5737-.118-1.1119-.3297-1.6025h.0066c-.0988-.2222-.2098-.4321-.3452-.6297l-.0025-.0039c-.4224-.6459-.646-1.4037-.646-2.17387v-.01242c0-2.23603-1.8136-4.0497-4.0497-4.0497-.2236 0-.4348-.09937-.559-.28571-.7329-1.01863-1.938-1.68944-3.292-1.68944-1.3541 0-2.559.67081-3.292 1.68944-.1242.17391-.3354.28571-.559.28571-.0349.00001-.0697.00045-.1043.00133-2.1879.05539-3.9454 1.84724-3.9454 4.04837v.01242c0 .77017-.2236 1.52797-.6459 2.17387l-.0028.0046c-.42062.6449-.66791 1.4011-.66791 2.2315 0 .6335.14907 1.2174.39751 1.7515.08696.1739.08696.3851 0 .559-.24844.5218-.39751 1.1056-.39751 1.7267 0 2.1864 1.76401 3.9504 3.95031 3.9504h10.5342c2.1863 0 3.9503-1.764 3.9503-3.9504 0-.6211-.1491-1.2049-.3975-1.7267-.087-.1739-.087-.3851 0-.559zm-15.0494-3.2803h-.0151l1.4714 2.8914c.1513 3.4401 1.4939 0 4.7731 0 3.2791 0 4.7091 3.829 4.8605.3889l1.3943-3.9245c-.066-1.528-1.1733-1.6352-1.3943-1.6352h-3.9526c-1.5609 0-3.0337-.76403-3.9148-2.05402-.1511-.21291-.4658-.17534-.5665.06262l-.1007.23796c-.2769.68883-.8056 1.21485-1.4602 1.51544-.0188.0063-.0409.0156-.0629.025s-.0441.0188-.0629.0251c-.2896.1503-.9693.6011-.9945 1.7659l.0126.3757z" fill="url(#ah)"/><path d="m27.5378 15.8c.2608-.5341.3975-1.1304.3975-1.7515 0-.5737-.118-1.1119-.3297-1.6025h.0066c-.0988-.2222-.2098-.4321-.3452-.6297l-.0025-.0039c-.4224-.6459-.646-1.4037-.646-2.17387v-.01242c0-2.23603-1.8136-4.0497-4.0497-4.0497-.2236 0-.4348-.09937-.559-.28571-.7329-1.01863-1.938-1.68944-3.292-1.68944-1.3541 0-2.559.67081-3.292 1.68944-.1242.17391-.3354.28571-.559.28571-.0349.00001-.0697.00045-.1043.00133-2.1879.05539-3.9454 1.84724-3.9454 4.04837v.01242c0 .77017-.2236 1.52797-.6459 2.17387l-.0028.0046c-.42062.6449-.66791 1.4011-.66791 2.2315 0 .6335.14907 1.2174.39751 1.7515.08696.1739.08696.3851 0 .559-.24844.5218-.39751 1.1056-.39751 1.7267 0 2.1864 1.76401 3.9504 3.95031 3.9504h10.5342c2.1863 0 3.9503-1.764 3.9503-3.9504 0-.6211-.1491-1.2049-.3975-1.7267-.087-.1739-.087-.3851 0-.559zm-15.0494-3.2803h-.0151l1.4714 2.8914c.1513 3.4401 1.4939 0 4.7731 0 3.2791 0 4.7091 3.829 4.8605.3889l1.3943-3.9245c-.066-1.528-1.1733-1.6352-1.3943-1.6352h-3.9526c-1.5609 0-3.0337-.76403-3.9148-2.05402-.1511-.21291-.4658-.17534-.5665.06262l-.1007.23796c-.2769.68883-.8056 1.21485-1.4602 1.51544-.0188.0063-.0409.0156-.0629.025s-.0441.0188-.0629.0251c-.2896.1503-.9693.6011-.9945 1.7659l.0126.3757z" fill="url(#ai)"/><path d="m27.5378 15.8c.2608-.5341.3975-1.1304.3975-1.7515 0-.5737-.118-1.1119-.3297-1.6025h.0066c-.0988-.2222-.2098-.4321-.3452-.6297l-.0025-.0039c-.4224-.6459-.646-1.4037-.646-2.17387v-.01242c0-2.23603-1.8136-4.0497-4.0497-4.0497-.2236 0-.4348-.09937-.559-.28571-.7329-1.01863-1.938-1.68944-3.292-1.68944-1.3541 0-2.559.67081-3.292 1.68944-.1242.17391-.3354.28571-.559.28571-.0349.00001-.0697.00045-.1043.00133-2.1879.05539-3.9454 1.84724-3.9454 4.04837v.01242c0 .77017-.2236 1.52797-.6459 2.17387l-.0028.0046c-.42062.6449-.66791 1.4011-.66791 2.2315 0 .6335.14907 1.2174.39751 1.7515.08696.1739.08696.3851 0 .559-.24844.5218-.39751 1.1056-.39751 1.7267 0 2.1864 1.76401 3.9504 3.95031 3.9504h10.5342c2.1863 0 3.9503-1.764 3.9503-3.9504 0-.6211-.1491-1.2049-.3975-1.7267-.087-.1739-.087-.3851 0-.559zm-15.0494-3.2803h-.0151l1.4714 2.8914c.1513 3.4401 1.4939 0 4.7731 0 3.2791 0 4.7091 3.829 4.8605.3889l1.3943-3.9245c-.066-1.528-1.1733-1.6352-1.3943-1.6352h-3.9526c-1.5609 0-3.0337-.76403-3.9148-2.05402-.1511-.21291-.4658-.17534-.5665.06262l-.1007.23796c-.2769.68883-.8056 1.21485-1.4602 1.51544-.0188.0063-.0409.0156-.0629.025s-.0441.0188-.0629.0251c-.2896.1503-.9693.6011-.9945 1.7659l.0126.3757z" fill="url(#aj)"/><path d="m27.5378 15.8c.2608-.5341.3975-1.1304.3975-1.7515 0-.5737-.118-1.1119-.3297-1.6025h.0066c-.0988-.2222-.2098-.4321-.3452-.6297l-.0025-.0039c-.4224-.6459-.646-1.4037-.646-2.17387v-.01242c0-2.23603-1.8136-4.0497-4.0497-4.0497-.2236 0-.4348-.09937-.559-.28571-.7329-1.01863-1.938-1.68944-3.292-1.68944-1.3541 0-2.559.67081-3.292 1.68944-.1242.17391-.3354.28571-.559.28571-.0349.00001-.0697.00045-.1043.00133-2.1879.05539-3.9454 1.84724-3.9454 4.04837v.01242c0 .77017-.2236 1.52797-.6459 2.17387l-.0028.0046c-.42062.6449-.66791 1.4011-.66791 2.2315 0 .6335.14907 1.2174.39751 1.7515.08696.1739.08696.3851 0 .559-.24844.5218-.39751 1.1056-.39751 1.7267 0 2.1864 1.76401 3.9504 3.95031 3.9504h10.5342c2.1863 0 3.9503-1.764 3.9503-3.9504 0-.6211-.1491-1.2049-.3975-1.7267-.087-.1739-.087-.3851 0-.559zm-15.0494-3.2803h-.0151l1.4714 2.8914c.1513 3.4401 1.4939 0 4.7731 0 3.2791 0 4.7091 3.829 4.8605.3889l1.3943-3.9245c-.066-1.528-1.1733-1.6352-1.3943-1.6352h-3.9526c-1.5609 0-3.0337-.76403-3.9148-2.05402-.1511-.21291-.4658-.17534-.5665.06262l-.1007.23796c-.2769.68883-.8056 1.21485-1.4602 1.51544-.0188.0063-.0409.0156-.0629.025s-.0441.0188-.0629.0251c-.2896.1503-.9693.6011-.9945 1.7659l.0126.3757z" fill="url(#ak)"/><path d="m27.5378 15.8c.2608-.5341.3975-1.1304.3975-1.7515 0-.5737-.118-1.1119-.3297-1.6025h.0066c-.0988-.2222-.2098-.4321-.3452-.6297l-.0025-.0039c-.4224-.6459-.646-1.4037-.646-2.17387v-.01242c0-2.23603-1.8136-4.0497-4.0497-4.0497-.2236 0-.4348-.09937-.559-.28571-.7329-1.01863-1.938-1.68944-3.292-1.68944-1.3541 0-2.559.67081-3.292 1.68944-.1242.17391-.3354.28571-.559.28571-.0349.00001-.0697.00045-.1043.00133-2.1879.05539-3.9454 1.84724-3.9454 4.04837v.01242c0 .77017-.2236 1.52797-.6459 2.17387l-.0028.0046c-.42062.6449-.66791 1.4011-.66791 2.2315 0 .6335.14907 1.2174.39751 1.7515.08696.1739.08696.3851 0 .559-.24844.5218-.39751 1.1056-.39751 1.7267 0 2.1864 1.76401 3.9504 3.95031 3.9504h10.5342c2.1863 0 3.9503-1.764 3.9503-3.9504 0-.6211-.1491-1.2049-.3975-1.7267-.087-.1739-.087-.3851 0-.559zm-15.0494-3.2803h-.0151l1.4714 2.8914c.1513 3.4401 1.4939 0 4.7731 0 3.2791 0 4.7091 3.829 4.8605.3889l1.3943-3.9245c-.066-1.528-1.1733-1.6352-1.3943-1.6352h-3.9526c-1.5609 0-3.0337-.76403-3.9148-2.05402-.1511-.21291-.4658-.17534-.5665.06262l-.1007.23796c-.2769.68883-.8056 1.21485-1.4602 1.51544-.0188.0063-.0409.0156-.0629.025s-.0441.0188-.0629.0251c-.2896.1503-.9693.6011-.9945 1.7659l.0126.3757z" fill="url(#al)"/><path d="m27.5378 15.8c.2608-.5341.3975-1.1304.3975-1.7515 0-.5737-.118-1.1119-.3297-1.6025h.0066c-.0988-.2222-.2098-.4321-.3452-.6297l-.0025-.0039c-.4224-.6459-.646-1.4037-.646-2.17387v-.01242c0-2.23603-1.8136-4.0497-4.0497-4.0497-.2236 0-.4348-.09937-.559-.28571-.7329-1.01863-1.938-1.68944-3.292-1.68944-1.3541 0-2.559.67081-3.292 1.68944-.1242.17391-.3354.28571-.559.28571-.0349.00001-.0697.00045-.1043.00133-2.1879.05539-3.9454 1.84724-3.9454 4.04837v.01242c0 .77017-.2236 1.52797-.6459 2.17387l-.0028.0046c-.42062.6449-.66791 1.4011-.66791 2.2315 0 .6335.14907 1.2174.39751 1.7515.08696.1739.08696.3851 0 .559-.24844.5218-.39751 1.1056-.39751 1.7267 0 2.1864 1.76401 3.9504 3.95031 3.9504h10.5342c2.1863 0 3.9503-1.764 3.9503-3.9504 0-.6211-.1491-1.2049-.3975-1.7267-.087-.1739-.087-.3851 0-.559zm-15.0494-3.2803h-.0151l1.4714 2.8914c.1513 3.4401 1.4939 0 4.7731 0 3.2791 0 4.7091 3.829 4.8605.3889l1.3943-3.9245c-.066-1.528-1.1733-1.6352-1.3943-1.6352h-3.9526c-1.5609 0-3.0337-.76403-3.9148-2.05402-.1511-.21291-.4658-.17534-.5665.06262l-.1007.23796c-.2769.68883-.8056 1.21485-1.4602 1.51544-.0188.0063-.0409.0156-.0629.025s-.0441.0188-.0629.0251c-.2896.1503-.9693.6011-.9945 1.7659l.0126.3757z" fill="url(#am)"/><path d="m27.5378 15.8c.2608-.5341.3975-1.1304.3975-1.7515 0-.5737-.118-1.1119-.3297-1.6025h.0066c-.0988-.2222-.2098-.4321-.3452-.6297l-.0025-.0039c-.4224-.6459-.646-1.4037-.646-2.17387v-.01242c0-2.23603-1.8136-4.0497-4.0497-4.0497-.2236 0-.4348-.09937-.559-.28571-.7329-1.01863-1.938-1.68944-3.292-1.68944-1.3541 0-2.559.67081-3.292 1.68944-.1242.17391-.3354.28571-.559.28571-.0349.00001-.0697.00045-.1043.00133-2.1879.05539-3.9454 1.84724-3.9454 4.04837v.01242c0 .77017-.2236 1.52797-.6459 2.17387l-.0028.0046c-.42062.6449-.66791 1.4011-.66791 2.2315 0 .6335.14907 1.2174.39751 1.7515.08696.1739.08696.3851 0 .559-.24844.5218-.39751 1.1056-.39751 1.7267 0 2.1864 1.76401 3.9504 3.95031 3.9504h10.5342c2.1863 0 3.9503-1.764 3.9503-3.9504 0-.6211-.1491-1.2049-.3975-1.7267-.087-.1739-.087-.3851 0-.559zm-15.0494-3.2803h-.0151l1.4714 2.8914c.1513 3.4401 1.4939 0 4.7731 0 3.2791 0 4.7091 3.829 4.8605.3889l1.3943-3.9245c-.066-1.528-1.1733-1.6352-1.3943-1.6352h-3.9526c-1.5609 0-3.0337-.76403-3.9148-2.05402-.1511-.21291-.4658-.17534-.5665.06262l-.1007.23796c-.2769.68883-.8056 1.21485-1.4602 1.51544-.0188.0063-.0409.0156-.0629.025s-.0441.0188-.0629.0251c-.2896.1503-.9693.6011-.9945 1.7659l.0126.3757z" fill="url(#an)"/><path d="m27.5378 15.8c.2608-.5341.3975-1.1304.3975-1.7515 0-.5737-.118-1.1119-.3297-1.6025h.0066c-.0988-.2222-.2098-.4321-.3452-.6297l-.0025-.0039c-.4224-.6459-.646-1.4037-.646-2.17387v-.01242c0-2.23603-1.8136-4.0497-4.0497-4.0497-.2236 0-.4348-.09937-.559-.28571-.7329-1.01863-1.938-1.68944-3.292-1.68944-1.3541 0-2.559.67081-3.292 1.68944-.1242.17391-.3354.28571-.559.28571-.0349.00001-.0697.00045-.1043.00133-2.1879.05539-3.9454 1.84724-3.9454 4.04837v.01242c0 .77017-.2236 1.52797-.6459 2.17387l-.0028.0046c-.42062.6449-.66791 1.4011-.66791 2.2315 0 .6335.14907 1.2174.39751 1.7515.08696.1739.08696.3851 0 .559-.24844.5218-.39751 1.1056-.39751 1.7267 0 2.1864 1.76401 3.9504 3.95031 3.9504h10.5342c2.1863 0 3.9503-1.764 3.9503-3.9504 0-.6211-.1491-1.2049-.3975-1.7267-.087-.1739-.087-.3851 0-.559zm-15.0494-3.2803h-.0151l1.4714 2.8914c.1513 3.4401 1.4939 0 4.7731 0 3.2791 0 4.7091 3.829 4.8605.3889l1.3943-3.9245c-.066-1.528-1.1733-1.6352-1.3943-1.6352h-3.9526c-1.5609 0-3.0337-.76403-3.9148-2.05402-.1511-.21291-.4658-.17534-.5665.06262l-.1007.23796c-.2769.68883-.8056 1.21485-1.4602 1.51544-.0188.0063-.0409.0156-.0629.025s-.0441.0188-.0629.0251c-.2896.1503-.9693.6011-.9945 1.7659l.0126.3757z" fill="url(#ao)"/><path d="m27.5378 15.8c.2608-.5341.3975-1.1304.3975-1.7515 0-.5737-.118-1.1119-.3297-1.6025h.0066c-.0988-.2222-.2098-.4321-.3452-.6297l-.0025-.0039c-.4224-.6459-.646-1.4037-.646-2.17387v-.01242c0-2.23603-1.8136-4.0497-4.0497-4.0497-.2236 0-.4348-.09937-.559-.28571-.7329-1.01863-1.938-1.68944-3.292-1.68944-1.3541 0-2.559.67081-3.292 1.68944-.1242.17391-.3354.28571-.559.28571-.0349.00001-.0697.00045-.1043.00133-2.1879.05539-3.9454 1.84724-3.9454 4.04837v.01242c0 .77017-.2236 1.52797-.6459 2.17387l-.0028.0046c-.42062.6449-.66791 1.4011-.66791 2.2315 0 .6335.14907 1.2174.39751 1.7515.08696.1739.08696.3851 0 .559-.24844.5218-.39751 1.1056-.39751 1.7267 0 2.1864 1.76401 3.9504 3.95031 3.9504h10.5342c2.1863 0 3.9503-1.764 3.9503-3.9504 0-.6211-.1491-1.2049-.3975-1.7267-.087-.1739-.087-.3851 0-.559zm-15.0494-3.2803h-.0151l1.4714 2.8914c.1513 3.4401 1.4939 0 4.7731 0 3.2791 0 4.7091 3.829 4.8605.3889l1.3943-3.9245c-.066-1.528-1.1733-1.6352-1.3943-1.6352h-3.9526c-1.5609 0-3.0337-.76403-3.9148-2.05402-.1511-.21291-.4658-.17534-.5665.06262l-.1007.23796c-.2769.68883-.8056 1.21485-1.4602 1.51544-.0188.0063-.0409.0156-.0629.025s-.0441.0188-.0629.0251c-.2896.1503-.9693.6011-.9945 1.7659l.0126.3757z" fill="url(#ap)"/><path d="m27.5378 15.8c.2608-.5341.3975-1.1304.3975-1.7515 0-.5737-.118-1.1119-.3297-1.6025h.0066c-.0988-.2222-.2098-.4321-.3452-.6297l-.0025-.0039c-.4224-.6459-.646-1.4037-.646-2.17387v-.01242c0-2.23603-1.8136-4.0497-4.0497-4.0497-.2236 0-.4348-.09937-.559-.28571-.7329-1.01863-1.938-1.68944-3.292-1.68944-1.3541 0-2.559.67081-3.292 1.68944-.1242.17391-.3354.28571-.559.28571-.0349.00001-.0697.00045-.1043.00133-2.1879.05539-3.9454 1.84724-3.9454 4.04837v.01242c0 .77017-.2236 1.52797-.6459 2.17387l-.0028.0046c-.42062.6449-.66791 1.4011-.66791 2.2315 0 .6335.14907 1.2174.39751 1.7515.08696.1739.08696.3851 0 .559-.24844.5218-.39751 1.1056-.39751 1.7267 0 2.1864 1.76401 3.9504 3.95031 3.9504h10.5342c2.1863 0 3.9503-1.764 3.9503-3.9504 0-.6211-.1491-1.2049-.3975-1.7267-.087-.1739-.087-.3851 0-.559zm-15.0494-3.2803h-.0151l1.4714 2.8914c.1513 3.4401 1.4939 0 4.7731 0 3.2791 0 4.7091 3.829 4.8605.3889l1.3943-3.9245c-.066-1.528-1.1733-1.6352-1.3943-1.6352h-3.9526c-1.5609 0-3.0337-.76403-3.9148-2.05402-.1511-.21291-.4658-.17534-.5665.06262l-.1007.23796c-.2769.68883-.8056 1.21485-1.4602 1.51544-.0188.0063-.0409.0156-.0629.025s-.0441.0188-.0629.0251c-.2896.1503-.9693.6011-.9945 1.7659l.0126.3757z" fill="url(#aq)"/><path d="m27.5378 15.8c.2608-.5341.3975-1.1304.3975-1.7515 0-.5737-.118-1.1119-.3297-1.6025h.0066c-.0988-.2222-.2098-.4321-.3452-.6297l-.0025-.0039c-.4224-.6459-.646-1.4037-.646-2.17387v-.01242c0-2.23603-1.8136-4.0497-4.0497-4.0497-.2236 0-.4348-.09937-.559-.28571-.7329-1.01863-1.938-1.68944-3.292-1.68944-1.3541 0-2.559.67081-3.292 1.68944-.1242.17391-.3354.28571-.559.28571-.0349.00001-.0697.00045-.1043.00133-2.1879.05539-3.9454 1.84724-3.9454 4.04837v.01242c0 .77017-.2236 1.52797-.6459 2.17387l-.0028.0046c-.42062.6449-.66791 1.4011-.66791 2.2315 0 .6335.14907 1.2174.39751 1.7515.08696.1739.08696.3851 0 .559-.24844.5218-.39751 1.1056-.39751 1.7267 0 2.1864 1.76401 3.9504 3.95031 3.9504h10.5342c2.1863 0 3.9503-1.764 3.9503-3.9504 0-.6211-.1491-1.2049-.3975-1.7267-.087-.1739-.087-.3851 0-.559zm-15.0494-3.2803h-.0151l1.4714 2.8914c.1513 3.4401 1.4939 0 4.7731 0 3.2791 0 4.7091 3.829 4.8605.3889l1.3943-3.9245c-.066-1.528-1.1733-1.6352-1.3943-1.6352h-3.9526c-1.5609 0-3.0337-.76403-3.9148-2.05402-.1511-.21291-.4658-.17534-.5665.06262l-.1007.23796c-.2769.68883-.8056 1.21485-1.4602 1.51544-.0188.0063-.0409.0156-.0629.025s-.0441.0188-.0629.0251c-.2896.1503-.9693.6011-.9945 1.7659l.0126.3757z" fill="url(#ar)"/><path d="m27.5378 15.8c.2608-.5341.3975-1.1304.3975-1.7515 0-.5737-.118-1.1119-.3297-1.6025h.0066c-.0988-.2222-.2098-.4321-.3452-.6297l-.0025-.0039c-.4224-.6459-.646-1.4037-.646-2.17387v-.01242c0-2.23603-1.8136-4.0497-4.0497-4.0497-.2236 0-.4348-.09937-.559-.28571-.7329-1.01863-1.938-1.68944-3.292-1.68944-1.3541 0-2.559.67081-3.292 1.68944-.1242.17391-.3354.28571-.559.28571-.0349.00001-.0697.00045-.1043.00133-2.1879.05539-3.9454 1.84724-3.9454 4.04837v.01242c0 .77017-.2236 1.52797-.6459 2.17387l-.0028.0046c-.42062.6449-.66791 1.4011-.66791 2.2315 0 .6335.14907 1.2174.39751 1.7515.08696.1739.08696.3851 0 .559-.24844.5218-.39751 1.1056-.39751 1.7267 0 2.1864 1.76401 3.9504 3.95031 3.9504h10.5342c2.1863 0 3.9503-1.764 3.9503-3.9504 0-.6211-.1491-1.2049-.3975-1.7267-.087-.1739-.087-.3851 0-.559zm-15.0494-3.2803h-.0151l1.4714 2.8914c.1513 3.4401 1.4939 0 4.7731 0 3.2791 0 4.7091 3.829 4.8605.3889l1.3943-3.9245c-.066-1.528-1.1733-1.6352-1.3943-1.6352h-3.9526c-1.5609 0-3.0337-.76403-3.9148-2.05402-.1511-.21291-.4658-.17534-.5665.06262l-.1007.23796c-.2769.68883-.8056 1.21485-1.4602 1.51544-.0188.0063-.0409.0156-.0629.025s-.0441.0188-.0629.0251c-.2896.1503-.9693.6011-.9945 1.7659l.0126.3757z" fill="url(#as)"/></g><path d="m4.06812 11.7627c0-.1105.08954-.2.2-.2h3.81093c.11046 0 .2.0895.2.2v1.714h-4.21093z" fill="url(#at)"/><path d="m4.06812 11.7627c0-.1105.08954-.2.2-.2h3.81093c.11046 0 .2.0895.2.2v1.714h-4.21093z" fill="url(#au)"/><path d="m4.06812 11.7627c0-.1105.08954-.2.2-.2h3.81093c.11046 0 .2.0895.2.2v1.714h-4.21093z" fill="url(#av)"/><path d="m19.6831 20.5861h.9695c2.4907 0 7.472 3.5 7.472 9h-17.9328v-3.5c0-.2766-.1695-.5328-.41419-.625l-3.07277-1.375c-2.49068-1-3.48694-3.5-3.48694-5.198v-5.2875c0-.5636.42358-1.0145.93188-1.0145h4.11385c.51771 0 .93188.4611.93188 1.0145v3.9855c0 1.302.99629 1.5.99629 1.5l5.9776 1.5z" fill="url(#aw)"/><path d="m19.6831 20.5861h.9695c2.4907 0 7.472 3.5 7.472 9h-17.9328v-3.5c0-.2766-.1695-.5328-.41419-.625l-3.07277-1.375c-2.49068-1-3.48694-3.5-3.48694-5.198v-5.2875c0-.5636.42358-1.0145.93188-1.0145h4.11385c.51771 0 .93188.4611.93188 1.0145v3.9855c0 1.302.99629 1.5.99629 1.5l5.9776 1.5z" fill="url(#ax)"/><path d="m19.6831 20.5861h.9695c2.4907 0 7.472 3.5 7.472 9h-17.9328v-3.5c0-.2766-.1695-.5328-.41419-.625l-3.07277-1.375c-2.49068-1-3.48694-3.5-3.48694-5.198v-5.2875c0-.5636.42358-1.0145.93188-1.0145h4.11385c.51771 0 .93188.4611.93188 1.0145v3.9855c0 1.302.99629 1.5.99629 1.5l5.9776 1.5z" fill="url(#ay)"/><path d="m10.1681 25.9078 7.8703-5.149-1.6141-.1727h-.2549l-5.9776-1.5s-.99629-.198-.99629-1.5v-3.9692l-.01513-.0345c0-.5433-.41557-.9961-.93509-.9963-.0001 0 .00009 0 0 0h-4.09551c-.5083 0-.93188.4509-.93188 1.0145v5.2875c0 1.698.99626 4.198 3.48694 5.198l3.07277 1.375c.19083.0719.33589.2435.39049.4467z" fill="url(#az)"/><path d="m10.1681 25.9078 7.8703-5.149-1.6141-.1727h-.2549l-5.9776-1.5s-.99629-.198-.99629-1.5v-3.9692l-.01513-.0345c0-.5433-.41557-.9961-.93509-.9963-.0001 0 .00009 0 0 0h-4.09551c-.5083 0-.93188.4509-.93188 1.0145v5.2875c0 1.698.99626 4.198 3.48694 5.198l3.07277 1.375c.19083.0719.33589.2435.39049.4467z" fill="url(#aA)"/><path d="m10.1681 25.9078 7.8703-5.149-1.6141-.1727h-.2549l-5.9776-1.5s-.99629-.198-.99629-1.5v-3.9692l-.01513-.0345c0-.5433-.41557-.9961-.93509-.9963-.0001 0 .00009 0 0 0h-4.09551c-.5083 0-.93188.4509-.93188 1.0145v5.2875c0 1.698.99626 4.198 3.48694 5.198l3.07277 1.375c.19083.0719.33589.2435.39049.4467z" fill="url(#aB)"/><path d="m10.1681 25.9078 7.8703-5.149-1.6141-.1727h-.2549l-5.9776-1.5s-.99629-.198-.99629-1.5v-3.9692l-.01513-.0345c0-.5433-.41557-.9961-.93509-.9963-.0001 0 .00009 0 0 0h-4.09551c-.5083 0-.93188.4509-.93188 1.0145v5.2875c0 1.698.99626 4.198 3.48694 5.198l3.07277 1.375c.19083.0719.33589.2435.39049.4467z" fill="url(#aC)"/><path d="m10.1681 25.9078 7.8703-5.149-1.6141-.1727h-.2549l-5.9776-1.5s-.99629-.198-.99629-1.5v-3.9692l-.01513-.0345c0-.5433-.41557-.9961-.93509-.9963-.0001 0 .00009 0 0 0h-4.09551c-.5083 0-.93188.4509-.93188 1.0145v5.2875c0 1.698.99626 4.198 3.48694 5.198l3.07277 1.375c.19083.0719.33589.2435.39049.4467z" fill="url(#aD)"/><path d="m10.1681 25.9078 7.8703-5.149-1.6141-.1727h-.2549l-5.9776-1.5s-.99629-.198-.99629-1.5v-3.9692l-.01513-.0345c0-.5433-.41557-.9961-.93509-.9963-.0001 0 .00009 0 0 0h-4.09551c-.5083 0-.93188.4509-.93188 1.0145v5.2875c0 1.698.99626 4.198 3.48694 5.198l3.07277 1.375c.19083.0719.33589.2435.39049.4467z" fill="url(#aE)"/><path d="m18.718 23.6918c-1.2678 0-2.2962-.9854-2.2962-2.2002v-2.5995c0-1.2148 1.0284-2.2003 2.2962-2.2003 1.2677 0 2.2961.9855 2.2961 2.2003v2.5995c0 1.2148-1.0284 2.2002-2.2961 2.2002z" fill="url(#aF)"/><g filter="url(#l)"><path d="m7.0603 13.5139-.00019 5.1716c-.00003.8658.55712 1.6334 1.38038 1.9016l4.18211 1.3627" stroke="url(#aG)"/></g><g filter="url(#m)"><path d="m12.9664 16.0448c1.0908 0 1.9751-.8843 1.9751-1.9752 0-1.0908-.8843-1.9751-1.9751-1.9751-1.0909 0-1.9752.8843-1.9752 1.9751 0 1.0909.8843 1.9752 1.9752 1.9752z" fill="url(#aH)"/></g><path d="m12.9664 16.0448c1.0908 0 1.9751-.8843 1.9751-1.9752 0-1.0908-.8843-1.9751-1.9751-1.9751-1.0909 0-1.9752.8843-1.9752 1.9751 0 1.0909.8843 1.9752 1.9752 1.9752z" fill="url(#aI)"/><g filter="url(#n)"><path d="m24.6434 16.0448c1.0908 0 1.9751-.8843 1.9751-1.9752 0-1.0908-.8843-1.9751-1.9751-1.9751-1.0909 0-1.9752.8843-1.9752 1.9751 0 1.0909.8843 1.9752 1.9752 1.9752z" fill="url(#aJ)"/><path d="m24.6434 16.0448c1.0908 0 1.9751-.8843 1.9751-1.9752 0-1.0908-.8843-1.9751-1.9751-1.9751-1.0909 0-1.9752.8843-1.9752 1.9751 0 1.0909.8843 1.9752 1.9752 1.9752z" fill="url(#aK)"/></g><g filter="url(#o)"><path d="m24.6434 15.3881c.7282 0 1.3185-.5903 1.3185-1.3185 0-.7281-.5903-1.3184-1.3185-1.3184-.7281 0-1.3184.5903-1.3184 1.3184 0 .7282.5903 1.3185 1.3184 1.3185z" fill="#b38574"/><path d="m24.6434 15.3881c.7282 0 1.3185-.5903 1.3185-1.3185 0-.7281-.5903-1.3184-1.3185-1.3184-.7281 0-1.3184.5903-1.3184 1.3184 0 .7282.5903 1.3185 1.3184 1.3185z" fill="url(#aL)"/></g><g filter="url(#p)"><path d="m12.99 15.3881c.7282 0 1.3185-.5903 1.3185-1.3185 0-.7281-.5903-1.3184-1.3185-1.3184s-1.3185.5903-1.3185 1.3184c0 .7282.5903 1.3185 1.3185 1.3185z" fill="#7e555a"/><path d="m12.99 15.3881c.7282 0 1.3185-.5903 1.3185-1.3185 0-.7281-.5903-1.3184-1.3185-1.3184s-1.3185.5903-1.3185 1.3184c0 .7282.5903 1.3185 1.3185 1.3185z" fill="url(#aM)"/></g><g filter="url(#q)"><path d="m12.4734 12.5197h.0152l-.0126-.3257-.0126-.3757c.0252-1.1647.7049-1.6156.9944-1.7659.0189-.0063.0409-.0157.063-.025.022-.0094.044-.0188.0629-.0251.6546-.30058 1.1833-.8266 1.4602-1.51543l.1007-.23796c.1007-.23796.4154-.27553.5664-.06262.8812 1.29 2.354 2.05401 3.9149 2.05401h3.9525c.221 0 1.3284.1072 1.3943 1.6352l-.1458 3.7722c-.1513 3.4401-2.8377 5.7501-6.1169 5.7501s-5.9656-2.31-6.117-5.7501z" fill="url(#aN)"/><path d="m12.4734 12.5197h.0152l-.0126-.3257-.0126-.3757c.0252-1.1647.7049-1.6156.9944-1.7659.0189-.0063.0409-.0157.063-.025.022-.0094.044-.0188.0629-.0251.6546-.30058 1.1833-.8266 1.4602-1.51543l.1007-.23796c.1007-.23796.4154-.27553.5664-.06262.8812 1.29 2.354 2.05401 3.9149 2.05401h3.9525c.221 0 1.3284.1072 1.3943 1.6352l-.1458 3.7722c-.1513 3.4401-2.8377 5.7501-6.1169 5.7501s-5.9656-2.31-6.117-5.7501z" fill="url(#aO)"/><path d="m12.4734 12.5197h.0152l-.0126-.3257-.0126-.3757c.0252-1.1647.7049-1.6156.9944-1.7659.0189-.0063.0409-.0157.063-.025.022-.0094.044-.0188.0629-.0251.6546-.30058 1.1833-.8266 1.4602-1.51543l.1007-.23796c.1007-.23796.4154-.27553.5664-.06262.8812 1.29 2.354 2.05401 3.9149 2.05401h3.9525c.221 0 1.3284.1072 1.3943 1.6352l-.1458 3.7722c-.1513 3.4401-2.8377 5.7501-6.1169 5.7501s-5.9656-2.31-6.117-5.7501z" fill="url(#aP)"/><path d="m12.4734 12.5197h.0152l-.0126-.3257-.0126-.3757c.0252-1.1647.7049-1.6156.9944-1.7659.0189-.0063.0409-.0157.063-.025.022-.0094.044-.0188.0629-.0251.6546-.30058 1.1833-.8266 1.4602-1.51543l.1007-.23796c.1007-.23796.4154-.27553.5664-.06262.8812 1.29 2.354 2.05401 3.9149 2.05401h3.9525c.221 0 1.3284.1072 1.3943 1.6352l-.1458 3.7722c-.1513 3.4401-2.8377 5.7501-6.1169 5.7501s-5.9656-2.31-6.117-5.7501z" fill="url(#aQ)"/><path d="m12.4734 12.5197h.0152l-.0126-.3257-.0126-.3757c.0252-1.1647.7049-1.6156.9944-1.7659.0189-.0063.0409-.0157.063-.025.022-.0094.044-.0188.0629-.0251.6546-.30058 1.1833-.8266 1.4602-1.51543l.1007-.23796c.1007-.23796.4154-.27553.5664-.06262.8812 1.29 2.354 2.05401 3.9149 2.05401h3.9525c.221 0 1.3284.1072 1.3943 1.6352l-.1458 3.7722c-.1513 3.4401-2.8377 5.7501-6.1169 5.7501s-5.9656-2.31-6.117-5.7501z" fill="url(#aR)"/><path d="m12.4734 12.5197h.0152l-.0126-.3257-.0126-.3757c.0252-1.1647.7049-1.6156.9944-1.7659.0189-.0063.0409-.0157.063-.025.022-.0094.044-.0188.0629-.0251.6546-.30058 1.1833-.8266 1.4602-1.51543l.1007-.23796c.1007-.23796.4154-.27553.5664-.06262.8812 1.29 2.354 2.05401 3.9149 2.05401h3.9525c.221 0 1.3284.1072 1.3943 1.6352l-.1458 3.7722c-.1513 3.4401-2.8377 5.7501-6.1169 5.7501s-5.9656-2.31-6.117-5.7501z" fill="url(#aS)"/><path d="m12.4734 12.5197h.0152l-.0126-.3257-.0126-.3757c.0252-1.1647.7049-1.6156.9944-1.7659.0189-.0063.0409-.0157.063-.025.022-.0094.044-.0188.0629-.0251.6546-.30058 1.1833-.8266 1.4602-1.51543l.1007-.23796c.1007-.23796.4154-.27553.5664-.06262.8812 1.29 2.354 2.05401 3.9149 2.05401h3.9525c.221 0 1.3284.1072 1.3943 1.6352l-.1458 3.7722c-.1513 3.4401-2.8377 5.7501-6.1169 5.7501s-5.9656-2.31-6.117-5.7501z" fill="url(#aT)"/><path d="m12.4734 12.5197h.0152l-.0126-.3257-.0126-.3757c.0252-1.1647.7049-1.6156.9944-1.7659.0189-.0063.0409-.0157.063-.025.022-.0094.044-.0188.0629-.0251.6546-.30058 1.1833-.8266 1.4602-1.51543l.1007-.23796c.1007-.23796.4154-.27553.5664-.06262.8812 1.29 2.354 2.05401 3.9149 2.05401h3.9525c.221 0 1.3284.1072 1.3943 1.6352l-.1458 3.7722c-.1513 3.4401-2.8377 5.7501-6.1169 5.7501s-5.9656-2.31-6.117-5.7501z" fill="url(#aU)"/><path d="m12.4734 12.5197h.0152l-.0126-.3257-.0126-.3757c.0252-1.1647.7049-1.6156.9944-1.7659.0189-.0063.0409-.0157.063-.025.022-.0094.044-.0188.0629-.0251.6546-.30058 1.1833-.8266 1.4602-1.51543l.1007-.23796c.1007-.23796.4154-.27553.5664-.06262.8812 1.29 2.354 2.05401 3.9149 2.05401h3.9525c.221 0 1.3284.1072 1.3943 1.6352l-.1458 3.7722c-.1513 3.4401-2.8377 5.7501-6.1169 5.7501s-5.9656-2.31-6.117-5.7501z" fill="url(#aV)"/></g><path d="m12.4734 12.5197h.0152l-.0126-.3257-.0126-.3757c.0252-1.1647.7049-1.6156.9944-1.7659.0189-.0063.0409-.0157.063-.025.022-.0094.044-.0188.0629-.0251.6546-.30058 1.1833-.8266 1.4602-1.51543l.1007-.23796c.1007-.23796.4154-.27553.5664-.06262.8812 1.29 2.354 2.05401 3.9149 2.05401h3.9525c.221 0 1.3284.1072 1.3943 1.6352l-.1458 3.7722c-.1513 3.4401-2.8377 5.7501-6.1169 5.7501s-5.9656-2.31-6.117-5.7501z" fill="url(#aW)"/><g filter="url(#r)"><path d="m18.236 13.7962-.8391 2.0868c-.1331.4292.1864.8585.6391.8585h.9653c.4526 0 .7722-.4359.639-.8585l-.6524-2.0868c-.1397-.4622-.6054-.4622-.7519 0z" fill="#88555f"/></g><g filter="url(#s)"><path d="m18.2487 13.6262-.6524 2.0868c-.1332.4292.1864.8585.639.8585h.9653c.4527 0 .7722-.4359.6391-.8585l-.6524-2.0868c-.1398-.4622-.7922-.4622-.9386 0z" fill="#b38578"/><path d="m18.2487 13.6262-.6524 2.0868c-.1332.4292.1864.8585.639.8585h.9653c.4527 0 .7722-.4359.6391-.8585l-.6524-2.0868c-.1398-.4622-.7922-.4622-.9386 0z" fill="url(#aX)"/><path d="m18.2487 13.6262-.6524 2.0868c-.1332.4292.1864.8585.639.8585h.9653c.4527 0 .7722-.4359.6391-.8585l-.6524-2.0868c-.1398-.4622-.7922-.4622-.9386 0z" fill="url(#aY)"/><path d="m18.2487 13.6262-.6524 2.0868c-.1332.4292.1864.8585.639.8585h.9653c.4527 0 .7722-.4359.6391-.8585l-.6524-2.0868c-.1398-.4622-.7922-.4622-.9386 0z" fill="url(#aZ)"/><path d="m18.2487 13.6262-.6524 2.0868c-.1332.4292.1864.8585.639.8585h.9653c.4527 0 .7722-.4359.6391-.8585l-.6524-2.0868c-.1398-.4622-.7922-.4622-.9386 0z" fill="url(#a0)"/></g><path d="m18.2487 13.6262-.6524 2.0868c-.1332.4292.1864.8585.639.8585h.9653c.4527 0 .7722-.4359.6391-.8585l-.6524-2.0868c-.1398-.4622-.7922-.4622-.9386 0z" fill="url(#a1)"/><path d="m18.2487 13.6262-.6524 2.0868c-.1332.4292.1864.8585.639.8585h.9653c.4527 0 .7722-.4359.6391-.8585l-.6524-2.0868c-.1398-.4622-.7922-.4622-.9386 0z" fill="url(#a2)"/><path d="m16.9964 17.1763c.4975.2653 1.0902.4173 1.7215.4173.6376 0 1.2239-.152 1.7215-.4173l.0004-.0002c.1083-.0564.2217-.0236.2896.0485.0683.0726.093.1875.0247.2923m-3.7577-.3406 3.7158.3134m-3.7158-.3134-.0005-.0002c-.109-.0567-.2224-.0214-.2898.0512-.0675.0726-.0933.1877-.0243.29m.3146-.341-.2728.3134m4.0305.0272v.0001l-.0419-.0273m.0419.0272c.0001-.0001.0001-.0001.0001-.0001l-.042-.0271m.0419.0272c-.4306.6674-1.1811 1.1127-2.0362 1.1127-.855 0-1.6054-.4451-2.0361-1.1123m4.0304-.0276c-.4219.6539-1.157 1.0899-1.9943 1.0899-.8374 0-1.5725-.436-1.9943-1.0899m-.0418.0276c.0002.0001.0003.0003.0004.0004l.0414-.028m-.0418.0276c-.0001-.0002-.0001-.0004-.0002-.0005l.042-.0271" fill="#88024e" stroke="url(#a3)" stroke-width=".1"/><g filter="url(#t)"><path d="m20.1199 13.371c.3258-.5729.821-1.0255 1.8871-1.0255.4667 0 .9168.1293 1.3169.4526.3299.2666.2858.6078.0302.7356l-.6825.3896c-.8002-.2586-1.6849-.2936-2.5517-.5523z" fill="#2f2c32"/></g><g filter="url(#u)"><path d="m17.3163 13.371c-.3258-.5729-.8211-1.0255-1.8871-1.0255-.4668 0-.9168.1293-1.3169.4526-.33.2666-.2858.6078-.0303.7356l.6826.3896c.8001-.2586 1.6849-.2936 2.5517-.5523z" fill="#27232a"/></g><g filter="url(#v)"><path d="m14.5474 11.8872-.0054.0031c-.0002.0001-.0004.0003-.0005.0004-.1558.0929-.3577.0424-.4511-.1133-.0936-.1559-.0428-.3582.1131-.4517l.0007-.0005.0012-.0007.0037-.0022.0115-.0066c.0096-.0055.023-.013.0398-.0222.0338-.0182.0818-.0432.1424-.0721.121-.0577.2934-.1315.5035-.1985.4172-.1332 1.0006-.2452 1.6304-.1341.179.0316.2986.2024.267.3814-.0316.1791-.2024.2986-.3814.267-.4895-.0864-.9595-.0009-1.3159.1129-.1767.0564-.3211.1183-.4203.1656-.0495.0236-.0874.0434-.112.0567-.0123.0067-.0213.0117-.0267.0148z" fill="#432a28"/></g><g filter="url(#w)"><path clip-rule="evenodd" d="m23.2984 11.3257c.0001 0 .0002.0001-.1692.2823l.1692-.2823c.1559.0935.2066.2958.1131.4517-.0934.1557-.2952.2063-.451.1133-.0001-.0001-.0003-.0002-.0006-.0003l-.0055-.0032c-.0054-.0031-.0143-.0081-.0267-.0148-.0246-.0133-.0625-.0331-.1119-.0567-.0992-.0473-.2437-.1092-.4204-.1656-.3564-.1138-.8264-.1993-1.3158-.1129-.1791.0316-.3498-.0879-.3814-.267-.0316-.179.0879-.3498.267-.3814.6298-.1111 1.2132.0009 1.6304.1341.2101.067.3825.1408.5034.1985.0606.0289.1087.0539.1424.0721.0169.0092.0302.0167.0398.0222l.0116.0066.0036.0022.0013.0007z" fill="#432a28" fill-rule="evenodd"/></g><path d="m21.6528 12.4175c.8017 0 1.4789.5528 1.6631 1.2997.0548.2141-.1095.4183-.3286.4183h-2.7387c-.1743 0-.3137-.1594-.2789-.3337.1544-.7867.8465-1.3843 1.6831-1.3843z" fill="#fff"/><path d="m21.3989 12.7512c.6075 0 1.0955.4929 1.0955 1.0954 0 .0996-.0149.1992-.0398.2889h-2.1163c-.0249-.0947-.0398-.1893-.0398-.2889 0-.6025.4929-1.0954 1.1004-1.0954z" fill="url(#a5)"/><path d="m20.7715 13.8467c0-.3486.2788-.6275.6274-.6275s.6274.2789.6274.6275c0 .1045-.0249.2041-.0697.2888h-1.1104c-.0498-.0847-.0747-.1843-.0747-.2888z" fill="#000"/><g filter="url(#x)"><path d="m21.3184 12.9827c.0781.1044-.0851.2317-.2706.3704s-.3231.2363-.4011.1319c-.0781-.1044.009-.3015.1945-.4402.1855-.1386.3992-.1664.4772-.0621z" fill="#c7a7a3"/><path d="m21.3184 12.9827c.0781.1044-.0851.2317-.2706.3704s-.3231.2363-.4011.1319c-.0781-.1044.009-.3015.1945-.4402.1855-.1386.3992-.1664.4772-.0621z" fill="url(#a7)"/></g><g filter="url(#y)"><path d="m22.3747 13.7024c-.0404-.2832-.2062-.4967-.284-.568l-.319.3501.144.2801z" fill="url(#a9)"/></g><path d="m15.783 12.4175c-.8017 0-1.4789.5528-1.6631 1.2997-.0548.2141.1095.4183.3286.4183h2.7387c.1743 0 .3137-.1594.2789-.3337-.1544-.7867-.8515-1.3843-1.6831-1.3843z" fill="#fff"/><path d="m16.0369 12.7512c-.6075 0-1.0955.4929-1.0955 1.0954 0 .0996.0149.1992.0398.2889h2.1163c.0249-.0947.0399-.1893.0399-.2889-.005-.6025-.493-1.0954-1.1005-1.0954z" fill="url(#ba)"/><path d="m16.6644 13.8467c0-.3486-.2789-.6275-.6274-.6275-.3486 0-.6275.2789-.6275.6275 0 .1045.0249.2041.0698.2888h1.1104c.0448-.0847.0747-.1843.0747-.2888z" fill="#000"/><g filter="url(#z)"><path d="m17.0378 13.7179c0-.354-.2879-.59-.3657-.6613l-.354.3423.2179.4435z" fill="url(#bb)"/></g><g filter="url(#A)"><ellipse cx="15.706" cy="13.219" fill="#c7a7a3" fill-opacity=".9" rx=".478" ry=".242" transform="matrix(.88365127 -.46814574 .46814574 .88365127 -4.361092 8.890922)"/><ellipse cx="15.706" cy="13.219" fill="url(#bc)" rx=".478" ry=".242" transform="matrix(.88365127 -.46814574 .46814574 .88365127 -4.361092 8.890922)"/></g><g filter="url(#B)"><path d="m21.0988 11.1572c.3959-.0963 1.3804-.0482 2.0385.4227" stroke="#5b4545" stroke-linecap="round" stroke-width=".4"/></g><g filter="url(#C)"><path d="m16.4453 11.1572c-.3959-.0963-1.3804-.0482-2.0386.4227" stroke="#5b4545" stroke-linecap="round" stroke-width=".2"/></g><g filter="url(#D)"><path d="m12.4956 6.71896c.6944-.73556 2.0085-.73673 2.6156-.627l.4857 1.58424c-.3103-.04801-.3626-.00185-.5953.22448-.169 1.34148-1.6893 2.15632-3.5432 2.69712-.1822-1.83115.1335-2.9216 1.0372-3.87884z" fill="#49302e"/><path d="m12.4956 6.71896c.6944-.73556 2.0085-.73673 2.6156-.627l.4857 1.58424c-.3103-.04801-.3626-.00185-.5953.22448-.169 1.34148-1.6893 2.15632-3.5432 2.69712-.1822-1.83115.1335-2.9216 1.0372-3.87884z" fill="url(#bd)"/><path d="m12.4956 6.71896c.6944-.73556 2.0085-.73673 2.6156-.627l.4857 1.58424c-.3103-.04801-.3626-.00185-.5953.22448-.169 1.34148-1.6893 2.15632-3.5432 2.69712-.1822-1.83115.1335-2.9216 1.0372-3.87884z" fill="url(#be)"/></g><g filter="url(#E)"><path d="m17.9774 4.50656c-1.3904-.30696-2.6388 1.08017-2.7828 1.59453 1.291 4.35151 4.5577 4.11311 7.7824 3.75486 1.9304-.21449 2.1398.66525 2.3044 1.09045 0-4.82741-4.105-5.73363-7.2689-6.43208z" fill="#553836"/><path d="m17.9774 4.50656c-1.3904-.30696-2.6388 1.08017-2.7828 1.59453 1.291 4.35151 4.5577 4.11311 7.7824 3.75486 1.9304-.21449 2.1398.66525 2.3044 1.09045 0-4.82741-4.105-5.73363-7.2689-6.43208z" fill="url(#bf)"/><path d="m17.9774 4.50656c-1.3904-.30696-2.6388 1.08017-2.7828 1.59453 1.291 4.35151 4.5577 4.11311 7.7824 3.75486 1.9304-.21449 2.1398.66525 2.3044 1.09045 0-4.82741-4.105-5.73363-7.2689-6.43208z" fill="url(#bg)"/></g><g filter="url(#F)"><path d="m15.1689 6.03937c.0286.29833.2881 1.41964.6687 2.0986" stroke="url(#bh)" stroke-linecap="round" stroke-width=".2"/></g><g filter="url(#G)"><path d="m21.3426 9.25078-1.7497.32185c-.5191.09548-.9976-.30304-.9976-.83077 0-.46652.3776-.8447.8442-.8447h2.8733c1.6993 0 2.2618 1.71266 2.3307 2.29794-.8923-.81339-2.1135-1.16274-3.3009-.94432z" fill="#664a4a"/></g></svg>