<svg fill="none" height="32" viewBox="0 0 32 32" width="32" xmlns="http://www.w3.org/2000/svg" xmlns:xlink="http://www.w3.org/1999/xlink"><filter id="a" color-interpolation-filters="sRGB" filterUnits="userSpaceOnUse" height="9.763" width="4.75" x="26.187" y="8.718"><feFlood flood-opacity="0" result="BackgroundImageFix"/><feBlend in="SourceGraphic" in2="BackgroundImageFix" mode="normal" result="shape"/><feGaussianBlur result="effect1_foregroundBlur_6986_5131" stdDeviation=".2"/></filter><filter id="b" color-interpolation-filters="sRGB" filterUnits="userSpaceOnUse" height="15.089" width="11.833" x="17.501" y="2.365"><feFlood flood-opacity="0" result="BackgroundImageFix"/><feBlend in="SourceGraphic" in2="BackgroundImageFix" mode="normal" result="shape"/><feGaussianBlur result="effect1_foregroundBlur_6986_5131" stdDeviation="1.75"/></filter><filter id="c" color-interpolation-filters="sRGB" filterUnits="userSpaceOnUse" height="7.966" width="13.721" x="8.991" y=".388"><feFlood flood-opacity="0" result="BackgroundImageFix"/><feBlend in="SourceGraphic" in2="BackgroundImageFix" mode="normal" result="shape"/><feGaussianBlur result="effect1_foregroundBlur_6986_5131" stdDeviation="1.75"/></filter><filter id="d" color-interpolation-filters="sRGB" filterUnits="userSpaceOnUse" height="21.129" width="21.121" x="5.118" y="4.118"><feFlood flood-opacity="0" result="BackgroundImageFix"/><feBlend in="SourceGraphic" in2="BackgroundImageFix" mode="normal" result="shape"/><feGaussianBlur result="effect1_foregroundBlur_6986_5131" stdDeviation="1"/></filter><filter id="e" color-interpolation-filters="sRGB" filterUnits="userSpaceOnUse" height="13.73" width="3.023" x="3.818" y="6.995"><feFlood flood-opacity="0" result="BackgroundImageFix"/><feBlend in="SourceGraphic" in2="BackgroundImageFix" mode="normal" result="shape"/><feGaussianBlur result="effect1_foregroundBlur_6986_5131" stdDeviation=".2"/></filter><filter id="f" color-interpolation-filters="sRGB" filterUnits="userSpaceOnUse" height="11.2" width="2.477" x="25.57" y="9.325"><feFlood flood-opacity="0" result="BackgroundImageFix"/><feBlend in="SourceGraphic" in2="BackgroundImageFix" mode="normal" result="shape"/><feGaussianBlur result="effect1_foregroundBlur_6986_5131" stdDeviation=".2"/></filter><filter id="g" color-interpolation-filters="sRGB" filterUnits="userSpaceOnUse" height="7.085" width="4.02" x="20.82" y="5.885"><feFlood flood-opacity="0" result="BackgroundImageFix"/><feBlend in="SourceGraphic" in2="BackgroundImageFix" mode="normal" result="shape"/><feGaussianBlur result="effect1_foregroundBlur_6986_5131" stdDeviation=".2"/></filter><filter id="h" color-interpolation-filters="sRGB" filterUnits="userSpaceOnUse" height="6.931" width="2.619" x="20.97" y="13.78"><feFlood flood-opacity="0" result="BackgroundImageFix"/><feBlend in="SourceGraphic" in2="BackgroundImageFix" mode="normal" result="shape"/><feGaussianBlur result="effect1_foregroundBlur_6986_5131" stdDeviation=".2"/></filter><filter id="i" color-interpolation-filters="sRGB" filterUnits="userSpaceOnUse" height="5.25" width="3.625" x="10.685" y="8.347"><feFlood flood-opacity="0" result="BackgroundImageFix"/><feBlend in="SourceGraphic" in2="BackgroundImageFix" mode="normal" result="shape"/><feGaussianBlur result="effect1_foregroundBlur_6986_5131" stdDeviation=".5"/></filter><filter id="j" color-interpolation-filters="sRGB" filterUnits="userSpaceOnUse" height="5.25" width="3.625" x="17.154" y="8.347"><feFlood flood-opacity="0" result="BackgroundImageFix"/><feBlend in="SourceGraphic" in2="BackgroundImageFix" mode="normal" result="shape"/><feGaussianBlur result="effect1_foregroundBlur_6986_5131" stdDeviation=".5"/></filter><filter id="k" color-interpolation-filters="sRGB" filterUnits="userSpaceOnUse" height="4.418" width="7.344" x="12.102" y="12.761"><feFlood flood-opacity="0" result="BackgroundImageFix"/><feBlend in="SourceGraphic" in2="BackgroundImageFix" mode="normal" result="shape"/><feGaussianBlur result="effect1_foregroundBlur_6986_5131" stdDeviation=".5"/></filter><filter id="l" color-interpolation-filters="sRGB" filterUnits="userSpaceOnUse" height="2.567" width="2.567" x="11.742" y="8.428"><feFlood flood-opacity="0" result="BackgroundImageFix"/><feBlend in="SourceGraphic" in2="BackgroundImageFix" mode="normal" result="shape"/><feGaussianBlur result="effect1_foregroundBlur_6986_5131" stdDeviation=".5"/></filter><filter id="m" color-interpolation-filters="sRGB" filterUnits="userSpaceOnUse" height="2.567" width="2.567" x="18.212" y="8.428"><feFlood flood-opacity="0" result="BackgroundImageFix"/><feBlend in="SourceGraphic" in2="BackgroundImageFix" mode="normal" result="shape"/><feGaussianBlur result="effect1_foregroundBlur_6986_5131" stdDeviation=".5"/></filter><filter id="n" color-interpolation-filters="sRGB" filterUnits="userSpaceOnUse" height="1.15" width="1.305" x="17.038" y="13.736"><feFlood flood-opacity="0" result="BackgroundImageFix"/><feBlend in="SourceGraphic" in2="BackgroundImageFix" mode="normal" result="shape"/><feGaussianBlur result="effect1_foregroundBlur_6986_5131" stdDeviation=".1"/></filter><filter id="o" color-interpolation-filters="sRGB" filterUnits="userSpaceOnUse" height="2.515" width="2.271" x="11.43" y="14.64"><feFlood flood-opacity="0" result="BackgroundImageFix"/><feBlend in="SourceGraphic" in2="BackgroundImageFix" mode="normal" result="shape"/><feGaussianBlur result="effect1_foregroundBlur_6986_5131" stdDeviation=".25"/></filter><filter id="p" color-interpolation-filters="sRGB" filterUnits="userSpaceOnUse" height="3.326" width="4.051" x="14.754" y="15.867"><feFlood flood-opacity="0" result="BackgroundImageFix"/><feBlend in="SourceGraphic" in2="BackgroundImageFix" mode="normal" result="shape"/><feGaussianBlur result="effect1_foregroundBlur_6986_5131" stdDeviation=".375"/></filter><filter id="q" color-interpolation-filters="sRGB" filterUnits="userSpaceOnUse" height="3.563" width="4.742" x="15.141" y="18.464"><feFlood flood-opacity="0" result="BackgroundImageFix"/><feBlend in="SourceGraphic" in2="BackgroundImageFix" mode="normal" result="shape"/><feGaussianBlur result="effect1_foregroundBlur_6986_5131" stdDeviation=".375"/></filter><filter id="r" color-interpolation-filters="sRGB" filterUnits="userSpaceOnUse" height="3.453" width="4.126" x="13.476" y="13.507"><feFlood flood-opacity="0" result="BackgroundImageFix"/><feBlend in="SourceGraphic" in2="BackgroundImageFix" mode="normal" result="shape"/><feGaussianBlur result="effect1_foregroundBlur_6986_5131" stdDeviation=".375"/></filter><filter id="s" color-interpolation-filters="sRGB" filterUnits="userSpaceOnUse" height="9.827" width="5.503" x="11.636" y="14.746"><feFlood flood-opacity="0" result="BackgroundImageFix"/><feBlend in="SourceGraphic" in2="BackgroundImageFix" mode="normal" result="shape"/><feGaussianBlur result="effect1_foregroundBlur_6986_5131" stdDeviation=".5"/></filter><filter id="t" color-interpolation-filters="sRGB" filterUnits="userSpaceOnUse" height="12.017" width="15.675" x="1.816" y="16.504"><feFlood flood-opacity="0" result="BackgroundImageFix"/><feBlend in="SourceGraphic" in2="BackgroundImageFix" mode="normal" result="shape"/><feGaussianBlur result="effect1_foregroundBlur_6986_5131" stdDeviation="1.25"/></filter><filter id="u" color-interpolation-filters="sRGB" filterUnits="userSpaceOnUse" height="3.326" width="4.051" x="13.451" y="15.857"><feFlood flood-opacity="0" result="BackgroundImageFix"/><feBlend in="SourceGraphic" in2="BackgroundImageFix" mode="normal" result="shape"/><feGaussianBlur result="effect1_foregroundBlur_6986_5131" stdDeviation=".375"/></filter><filter id="v" color-interpolation-filters="sRGB" filterUnits="userSpaceOnUse" height="2.7" width="3.248" x="12.805" y="18.344"><feFlood flood-opacity="0" result="BackgroundImageFix"/><feBlend in="SourceGraphic" in2="BackgroundImageFix" mode="normal" result="shape"/><feGaussianBlur result="effect1_foregroundBlur_6986_5131" stdDeviation=".375"/></filter><filter id="w" color-interpolation-filters="sRGB" filterUnits="userSpaceOnUse" height="3.453" width="4.126" x="14.655" y="13.497"><feFlood flood-opacity="0" result="BackgroundImageFix"/><feBlend in="SourceGraphic" in2="BackgroundImageFix" mode="normal" result="shape"/><feGaussianBlur result="effect1_foregroundBlur_6986_5131" stdDeviation=".375"/></filter><filter id="x" color-interpolation-filters="sRGB" filterUnits="userSpaceOnUse" height="9.827" width="5.503" x="15.118" y="14.736"><feFlood flood-opacity="0" result="BackgroundImageFix"/><feBlend in="SourceGraphic" in2="BackgroundImageFix" mode="normal" result="shape"/><feGaussianBlur result="effect1_foregroundBlur_6986_5131" stdDeviation=".5"/></filter><filter id="y" color-interpolation-filters="sRGB" filterUnits="userSpaceOnUse" height="12.554" width="15.827" x="15.104" y="14.411"><feFlood flood-opacity="0" result="BackgroundImageFix"/><feBlend in="SourceGraphic" in2="BackgroundImageFix" mode="normal" result="shape"/><feGaussianBlur result="effect1_foregroundBlur_6986_5131" stdDeviation="1.25"/></filter><filter id="z" color-interpolation-filters="sRGB" filterUnits="userSpaceOnUse" height="2.525" width="2.251" x="19.96" y="14.355"><feFlood flood-opacity="0" result="BackgroundImageFix"/><feBlend in="SourceGraphic" in2="BackgroundImageFix" mode="normal" result="shape"/><feGaussianBlur result="effect1_foregroundBlur_6986_5131" stdDeviation=".25"/></filter><linearGradient id="A" gradientUnits="userSpaceOnUse" x1="6.516" x2="6.516" y1="10.175" y2="21.112"><stop offset="0" stop-color="#a67874"/><stop offset="1" stop-color="#8f5872"/></linearGradient><linearGradient id="B" gradientUnits="userSpaceOnUse" x1="6.516" x2="6.516" y1="13.425" y2="21.612"><stop offset="0" stop-color="#b56595" stop-opacity="0"/><stop offset="1" stop-color="#ca6fa6"/></linearGradient><radialGradient id="C" cx="0" cy="0" gradientTransform="matrix(-11.25001117 -11.12504399 13.27885217 -13.428013 10.3846 20.0498)" gradientUnits="userSpaceOnUse" r="1"><stop offset=".632" stop-color="#f39585" stop-opacity="0"/><stop offset="1" stop-color="#f39585"/></radialGradient><linearGradient id="D" gradientUnits="userSpaceOnUse" x1="25.433" x2="25.433" y1="11.362" y2="21.612"><stop offset=".094" stop-color="#fab8a9"/><stop offset="1" stop-color="#b56595"/></linearGradient><radialGradient id="E" cx="0" cy="0" gradientTransform="matrix(-5.49997316 -6.31251767 13.29790371 -11.58620336 29.0206 17.5185)" gradientUnits="userSpaceOnUse" r="1"><stop offset="0" stop-color="#ffdacc" stop-opacity="0"/><stop offset=".448" stop-color="#ffdacc"/><stop offset="1" stop-color="#ffdacc" stop-opacity="0"/></radialGradient><radialGradient id="F" cx="0" cy="0" gradientTransform="matrix(-10.93738548 18.41699528 -32.63847282 -19.38315959 24.2596 7.92481)" gradientUnits="userSpaceOnUse" r="1"><stop offset="0" stop-color="#a06857"/><stop offset="1" stop-color="#5b3838"/></radialGradient><linearGradient id="G" gradientUnits="userSpaceOnUse" x1="16" x2="16" y1="14.395" y2="31.252"><stop offset="0" stop-color="#682b5b" stop-opacity="0"/><stop offset="1" stop-color="#682b5b"/></linearGradient><radialGradient id="H" cx="0" cy="0" gradientTransform="matrix(0 20.6725 -18.4611 0 16.001 11.4085)" gradientUnits="userSpaceOnUse" r="1"><stop offset=".688" stop-color="#ff7af2" stop-opacity="0"/><stop offset="1" stop-color="#ffbce6"/></radialGradient><radialGradient id="I" cx="0" cy="0" gradientTransform="matrix(-8.25010729 11.3124768 -11.3124768 -8.25010729 24.6875 6.0625)" gradientUnits="userSpaceOnUse" r="1"><stop offset="0" stop-color="#ac7463"/><stop offset="1" stop-color="#ac7463" stop-opacity="0"/></radialGradient><linearGradient id="J" gradientUnits="userSpaceOnUse" x1="16" x2="16" y1="5.87" y2="23.917"><stop offset="0" stop-color="#ffc8bc"/><stop offset=".188" stop-color="#fab8a9"/><stop offset=".895" stop-color="#ac628e"/></linearGradient><linearGradient id="K" gradientUnits="userSpaceOnUse" x1="16" x2="16" y1="13.452" y2="23.191"><stop offset="0" stop-color="#7d3838" stop-opacity="0"/><stop offset="1" stop-color="#7d3838" stop-opacity=".5"/></linearGradient><radialGradient id="L" cx="0" cy="0" gradientTransform="matrix(-18.93752319 7.12493774 -9.55907579 -25.40727034 25.3054 9.29218)" gradientUnits="userSpaceOnUse" r="1"><stop offset=".818" stop-color="#a55f89" stop-opacity="0"/><stop offset="1" stop-color="#a55f89"/></radialGradient><radialGradient id="M" cx="0" cy="0" gradientTransform="matrix(-.00068735 12.70389998 -10.84629998 -.00058684 16.0007 12.3659)" gradientUnits="userSpaceOnUse" r="1"><stop offset=".813" stop-color="#ef5cf2" stop-opacity="0"/><stop offset="1" stop-color="#ff63c4"/></radialGradient><linearGradient id="N" gradientUnits="userSpaceOnUse" x1="6.646" x2="4.184" y1="20.553" y2="7.884"><stop offset="0" stop-color="#7c6160" stop-opacity="0"/><stop offset=".503" stop-color="#7c6160"/><stop offset="1" stop-color="#7c6160" stop-opacity="0"/></linearGradient><linearGradient id="O" gradientUnits="userSpaceOnUse" x1="24.978" x2="28.269" y1="19.925" y2="11.984"><stop offset="0" stop-color="#be8b89" stop-opacity="0"/><stop offset=".296" stop-color="#be8b89" stop-opacity=".6"/><stop offset=".808" stop-color="#be8b89" stop-opacity="0"/></linearGradient><linearGradient id="P" gradientUnits="userSpaceOnUse" x1="24.528" x2="20.916" y1="11.802" y2="6.384"><stop offset="0" stop-color="#ffdacc" stop-opacity="0"/><stop offset=".557" stop-color="#ffdacc"/><stop offset="1" stop-color="#ffdacc" stop-opacity="0"/></linearGradient><linearGradient id="Q" gradientUnits="userSpaceOnUse" x1="22.767" x2="22.087" y1="19.679" y2="15.605"><stop offset=".026" stop-color="#ffdacc" stop-opacity="0"/><stop offset="1" stop-color="#ffdacc"/></linearGradient><linearGradient id="R"><stop offset="0" stop-color="#432a3d"/><stop offset=".568" stop-color="#684e61"/><stop offset=".766" stop-color="#43253d"/></linearGradient><linearGradient id="S" gradientUnits="userSpaceOnUse" x1="15.811" x2="11.128" xlink:href="#R" y1="10.282" y2="10.282"/><linearGradient id="T"><stop offset=".327" stop-color="#43253d" stop-opacity="0"/><stop offset="1" stop-color="#43253d"/></linearGradient><linearGradient id="U" gradientUnits="userSpaceOnUse" x1="13.109" x2="13.109" xlink:href="#T" y1="10.11" y2="12.648"/><linearGradient id="V" gradientUnits="userSpaceOnUse" x1="22.327" x2="17.644" xlink:href="#R" y1="10.282" y2="10.282"/><linearGradient id="W" gradientUnits="userSpaceOnUse" x1="19.625" x2="19.625" xlink:href="#T" y1="10.11" y2="12.648"/><linearGradient id="X" gradientUnits="userSpaceOnUse" x1="16" x2="16" y1="13.357" y2="15.495"><stop offset="0" stop-color="#e9a4a2"/><stop offset="1" stop-color="#dc89a8"/></linearGradient><linearGradient id="Y" gradientUnits="userSpaceOnUse" x1="15.493" x2="14.753" y1="18.292" y2="14.677"><stop offset=".07" stop-color="#c971b6"/><stop offset="1" stop-color="#dc90cc" stop-opacity="0"/></linearGradient><radialGradient id="Z" cx="0" cy="0" gradientTransform="matrix(-1.30213877 1.38789852 -.83440479 -.78284601 14.9044 14.5136)" gradientUnits="userSpaceOnUse" r="1"><stop offset="0" stop-color="#3e2739"/><stop offset="1" stop-color="#684e61"/></radialGradient><radialGradient id="aa" cx="0" cy="0" gradientTransform="matrix(-.77400768 .94202416 -1.47396703 -1.21107487 17.6079 14.5136)" gradientUnits="userSpaceOnUse" r="1"><stop offset="0" stop-color="#3c2737"/><stop offset="1" stop-color="#684e61"/></radialGradient><linearGradient id="ab" gradientUnits="userSpaceOnUse" x1="17.68" x2="17.68" y1="13.96" y2="14.683"><stop offset="0" stop-color="#ffdacc" stop-opacity="0"/><stop offset=".349" stop-color="#ffebe3"/></linearGradient><linearGradient id="ac"><stop offset=".24" stop-color="#fbbeab"/><stop offset=".906" stop-color="#d79d95"/></linearGradient><radialGradient id="ad" cx="0" cy="0" gradientTransform="matrix(2.71451002 4.52004392 -17.18607884 10.32109067 .467621 5.07549)" gradientUnits="userSpaceOnUse" r="1" xlink:href="#ac"/><linearGradient id="ae"><stop offset=".259" stop-color="#dc90cc"/><stop offset="1" stop-color="#dc90cc" stop-opacity="0"/></linearGradient><linearGradient id="af" gradientUnits="userSpaceOnUse" x1="5.815" x2="1.148" xlink:href="#ae" y1="4.018" y2="4.518"/><linearGradient id="ag"><stop offset="0" stop-color="#aa6c64"/><stop offset="1" stop-color="#d79d95" stop-opacity="0"/></linearGradient><linearGradient id="ah" gradientUnits="userSpaceOnUse" x1="3.499" x2="1.977" xlink:href="#ag" y1="5.104" y2="5.224"/><linearGradient id="ai" gradientUnits="userSpaceOnUse" x1="1.767" x2=".985" y1="8.105" y2="5.245"><stop offset="0" stop-color="#edada3"/><stop offset=".831" stop-color="#c27f74"/></linearGradient><linearGradient id="aj"><stop offset="0" stop-color="#f9b4a9"/><stop offset="1" stop-color="#d79d95"/></linearGradient><radialGradient id="ak" cx="0" cy="0" gradientTransform="matrix(1.20403766 4.06161304 -15.44303066 4.5779818 1.37827 4.85503)" gradientUnits="userSpaceOnUse" r="1" xlink:href="#aj"/><linearGradient id="al" gradientUnits="userSpaceOnUse" x1="6.555" x2="-1.043" y1="2.715" y2="6.446"><stop offset=".386" stop-color="#cf6aba"/><stop offset="1" stop-color="#dc90cc" stop-opacity="0"/></linearGradient><linearGradient id="am" gradientUnits="userSpaceOnUse" x1="3.824" x2=".999" xlink:href="#ag" y1="5.247" y2="5.34"/><linearGradient id="an" gradientUnits="userSpaceOnUse" x1=".303" x2="1.354" xlink:href="#ag" y1="5.133" y2="5.26"/><radialGradient id="ao" cx="0" cy="0" gradientTransform="matrix(.4962105 6.3561504 -22.99952029 1.7955213 1.31083 4.85503)" gradientUnits="userSpaceOnUse" r="1" xlink:href="#aj"/><linearGradient id="ap" gradientUnits="userSpaceOnUse" x1="7.922" x2=".48" xlink:href="#ae" y1="3.743" y2="4.517"/><linearGradient id="aq"><stop offset="0" stop-color="#a06857"/><stop offset="1" stop-color="#6b423e"/></linearGradient><linearGradient id="ar" gradientUnits="userSpaceOnUse" x1="6.963" x2="6.587" xlink:href="#aq" y1="14.463" y2="21.934"/><linearGradient id="as"><stop offset=".114" stop-color="#7a326b"/><stop offset="1" stop-color="#682b5b" stop-opacity="0"/></linearGradient><radialGradient id="at" cx="0" cy="0" gradientTransform="matrix(3.18269105 -8.06354916 8.22061709 3.24468593 5.46273 30.5073)" gradientUnits="userSpaceOnUse" r="1" xlink:href="#as"/><linearGradient id="au"><stop offset=".114" stop-color="#923a7f"/><stop offset="1" stop-color="#682b5b" stop-opacity="0"/></linearGradient><linearGradient id="av" gradientUnits="userSpaceOnUse" x1="11.85" x2="7.013" xlink:href="#au" y1="28.789" y2="21.197"/><radialGradient id="aw" cx="0" cy="0" gradientTransform="matrix(5.09831675 -.88483162 .90206645 5.19762227 1.9066 24.9123)" gradientUnits="userSpaceOnUse" r="1"><stop offset=".114" stop-color="#5a383a"/><stop offset="1" stop-color="#5a383a" stop-opacity="0"/></radialGradient><linearGradient id="ax"><stop offset="0" stop-color="#ac928f"/><stop offset=".437" stop-color="#705c5a" stop-opacity="0"/></linearGradient><radialGradient id="ay" cx="0" cy="0" gradientTransform="matrix(1.90818016 2.90085365 -18.42375703 12.11913869 6.46878 19.0801)" gradientUnits="userSpaceOnUse" r="1" xlink:href="#ax"/><linearGradient id="az"><stop offset="0" stop-color="#915d88"/><stop offset=".344" stop-color="#7f5575" stop-opacity="0"/></linearGradient><radialGradient id="aA" cx="0" cy="0" gradientTransform="matrix(-2.73404605 -5.0529284 29.80149305 -16.12503638 12.0108 27.3854)" gradientUnits="userSpaceOnUse" r="1" xlink:href="#az"/><linearGradient id="aB"><stop offset="0" stop-color="#bc938f"/><stop offset="1" stop-color="#a07a76"/></linearGradient><linearGradient id="aC" gradientUnits="userSpaceOnUse" x1=".868" x2=".868" xlink:href="#aB" y1="0" y2="12.118"/><linearGradient id="aD"><stop offset="0" stop-color="#5a3129"/><stop offset="1" stop-color="#5a3129" stop-opacity="0"/></linearGradient><linearGradient id="aE" gradientUnits="userSpaceOnUse" x1="15.123" x2="13.526" xlink:href="#aD" y1="17.108" y2="17.756"/><radialGradient id="aF" cx="0" cy="0" gradientTransform="matrix(2.71451002 4.52004392 -17.18607884 10.32109067 23.5628 23.1832)" gradientUnits="userSpaceOnUse" r="1" xlink:href="#ac"/><linearGradient id="aG" gradientUnits="userSpaceOnUse" x1="26.514" x2="23.773" xlink:href="#ae" y1="22.797" y2="24.622"/><linearGradient id="aH" gradientUnits="userSpaceOnUse" x1="26.594" x2="25.073" xlink:href="#ag" y1="23.212" y2="23.332"/><linearGradient id="aI" gradientUnits="userSpaceOnUse" x1="23.55" x2="25.608" y1="31.136" y2="31.654"><stop offset="0" stop-color="#ffc5b7"/><stop offset=".756" stop-color="#ffbba3"/></linearGradient><radialGradient id="aJ" cx="0" cy="0" gradientTransform="matrix(1.20404051 4.06162262 -15.44303066 4.5779818 22.2946 27.2484)" gradientUnits="userSpaceOnUse" r="1" xlink:href="#aj"/><linearGradient id="aK" gradientUnits="userSpaceOnUse" x1="24.099" x2="18.302" y1="24.111" y2="31.401"><stop offset="0" stop-color="#c558ae"/><stop offset="1" stop-color="#dc90cc" stop-opacity="0"/></linearGradient><linearGradient id="aL" gradientUnits="userSpaceOnUse" x1="24.529" x2="23.849" y1="27.051" y2="27.035"><stop offset="0" stop-color="#e197db"/><stop offset="1" stop-color="#e197db" stop-opacity="0"/></linearGradient><linearGradient id="aM" gradientUnits="userSpaceOnUse" x1="21.22" x2="22.27" xlink:href="#ag" y1="27.527" y2="27.654"/><radialGradient id="aN" cx="0" cy="0" gradientTransform="matrix(.4962105 6.3561504 -22.99952029 1.7955213 22.9598 24.9233)" gradientUnits="userSpaceOnUse" r="1" xlink:href="#aj"/><linearGradient id="aO" gradientUnits="userSpaceOnUse" x1="25.089" x2="21.298" y1="23.549" y2="26.81"><stop offset=".259" stop-color="#de81ca"/><stop offset="1" stop-color="#dc90cc" stop-opacity="0"/></linearGradient><linearGradient id="aP" gradientUnits="userSpaceOnUse" x1="26.17" x2="23.401" xlink:href="#aq" y1="19.744" y2="24.575"/><radialGradient id="aQ" cx="0" cy="0" gradientTransform="matrix(-3.18266291 -8.06356027 8.22062841 -3.24465723 26.794 30.4974)" gradientUnits="userSpaceOnUse" r="1" xlink:href="#as"/><linearGradient id="aR" gradientUnits="userSpaceOnUse" x1="18.461" x2="25.308" xlink:href="#au" y1="30.785" y2="21.254"/><radialGradient id="aS" cx="0" cy="0" gradientTransform="matrix(-1.90818522 2.90085031 -18.42373588 -12.11917085 25.7879 19.0702)" gradientUnits="userSpaceOnUse" r="1" xlink:href="#ax"/><radialGradient id="aT" cx="0" cy="0" gradientTransform="matrix(2.73401077 -5.05294749 29.80160563 16.12482832 20.2459 27.3755)" gradientUnits="userSpaceOnUse" r="1" xlink:href="#az"/><linearGradient id="aU" gradientUnits="userSpaceOnUse" x1="18.495" x2="18.495" xlink:href="#aB" y1="18.823" y2="30.942"/><linearGradient id="aV" gradientUnits="userSpaceOnUse" x1="17.134" x2="18.731" xlink:href="#aD" y1="17.098" y2="17.747"/><path d="m6.51555 19.3936c3.02898 0 5.48445-2.417 5.48445-5.3985s-2.45547-5.39842-5.48445-5.39842-5.48445 2.41692-5.48445 5.39842 2.45547 5.3985 5.48445 5.3985z" fill="url(#A)"/><path d="m6.51555 19.3936c3.02898 0 5.48445-2.417 5.48445-5.3985s-2.45547-5.39842-5.48445-5.39842-5.48445 2.41692-5.48445 5.39842 2.45547 5.3985 5.48445 5.3985z" fill="url(#B)"/><path d="m6.51555 19.3936c3.02898 0 5.48445-2.417 5.48445-5.3985s-2.45547-5.39842-5.48445-5.39842-5.48445 2.41692-5.48445 5.39842 2.45547 5.3985 5.48445 5.3985z" fill="url(#C)" fill-opacity=".5"/><path d="m25.433 19.3936c3.0289 0 5.4844-2.417 5.4844-5.3985s-2.4555-5.39842-5.4844-5.39842c-3.029 0-5.4845 2.41692-5.4845 5.39842s2.4555 5.3985 5.4845 5.3985z" fill="url(#D)"/><g filter="url(#a)"><path d="m26.8369 9.3681c.9793.1475 2.874 1.4375 3.2931 3.5098.4844 1.7813-.1719 4.0625-1.6719 4.9531" stroke="url(#E)" stroke-linecap="round" stroke-opacity=".8" stroke-width=".5"/></g><path d="m16 26.3417c7.9664 0 11.9471-5.3489 11.9471-11.9471 0-6.59824-3.9807-11.94715-11.9471-11.94715-7.96634 0-11.94713 5.34891-11.94713 11.94715 0 6.5982 3.98079 11.9471 11.94713 11.9471z" fill="url(#F)"/><path d="m16 26.3417c7.9664 0 11.9471-5.3489 11.9471-11.9471 0-6.59824-3.9807-11.94715-11.9471-11.94715-7.96634 0-11.94713 5.34891-11.94713 11.94715 0 6.5982 3.98079 11.9471 11.94713 11.9471z" fill="url(#G)"/><path d="m16 26.3417c7.9664 0 11.9471-5.3489 11.9471-11.9471 0-6.59824-3.9807-11.94715-11.9471-11.94715-7.96634 0-11.94713 5.34891-11.94713 11.94715 0 6.5982 3.98079 11.9471 11.94713 11.9471z" fill="url(#H)"/><path d="m16 26.3417c7.9664 0 11.9471-5.3489 11.9471-11.9471 0-6.59824-3.9807-11.94715-11.9471-11.94715-7.96634 0-11.94713 5.34891-11.94713 11.94715 0 6.5982 3.98079 11.9471 11.94713 11.9471z" fill="url(#I)"/><g filter="url(#b)"><ellipse cx="23.418" cy="9.909" fill="#c58e7d" rx="1.849" ry="4.333" transform="matrix(.91775809 -.39713988 .39713988 .91775809 -2.009522 10.115033)"/></g><g filter="url(#c)"><path d="m15.8513 3.88816c1.8559 0 3.3604.21614 3.3604.48277s-1.5045.48277-3.3604.48277-3.3604-.21614-3.3604-.48277 1.5045-.48277 3.3604-.48277z" fill="#c58e7d"/></g><g filter="url(#d)"><path d="m11.8773 6.11823c-2.62852 0-4.75936 2.13085-4.75936 4.75937 0 1.1609.41564 2.2247 1.10622 3.0508.10629.1271.15238.295.12153.4579-.08575.4527-.13062.9198-.13062 1.3975 0 4.122 3.34153 7.4636 7.46353 7.4636 4.1221 0 7.4636-3.3416 7.4636-7.4636 0-.4777-.0448-.9448-.1306-1.3975-.0308-.1629.0152-.3308.1215-.4579.6906-.8261 1.1063-1.8899 1.1063-3.0508 0-2.62852-2.1309-4.75937-4.7594-4.75937z" fill="#561e25"/></g><path d="m12.1562 5.8703c-2.65782 0-4.81245 2.15463-4.81245 4.8125 0 1.1749.42104 2.2515 1.12047 3.0871.10637.1271.15245.295.12154.4578-.08707.4587-.13264.932-.13264 1.416 0 4.1681 3.37888 7.5469 7.54688 7.5469s7.5469-3.3788 7.5469-7.5469c0-.484-.0456-.9573-.1327-1.416-.0309-.1628.0152-.3307.1216-.4578.6994-.8356 1.1204-1.9122 1.1204-3.0871 0-2.65787-2.1546-4.8125-4.8124-4.8125z" fill="url(#J)"/><path d="m12.1562 5.8703c-2.65782 0-4.81245 2.15463-4.81245 4.8125 0 1.1749.42104 2.2515 1.12047 3.0871.10637.1271.15245.295.12154.4578-.08707.4587-.13264.932-.13264 1.416 0 4.1681 3.37888 7.5469 7.54688 7.5469s7.5469-3.3788 7.5469-7.5469c0-.484-.0456-.9573-.1327-1.416-.0309-.1628.0152-.3307.1216-.4578.6994-.8356 1.1204-1.9122 1.1204-3.0871 0-2.65787-2.1546-4.8125-4.8124-4.8125z" fill="url(#K)"/><path d="m12.1562 5.8703c-2.65782 0-4.81245 2.15463-4.81245 4.8125 0 1.1749.42104 2.2515 1.12047 3.0871.10637.1271.15245.295.12154.4578-.08707.4587-.13264.932-.13264 1.416 0 4.1681 3.37888 7.5469 7.54688 7.5469s7.5469-3.3788 7.5469-7.5469c0-.484-.0456-.9573-.1327-1.416-.0309-.1628.0152-.3307.1216-.4578.6994-.8356 1.1204-1.9122 1.1204-3.0871 0-2.65787-2.1546-4.8125-4.8124-4.8125z" fill="url(#L)"/><path d="m12.1562 5.8703c-2.65782 0-4.81245 2.15463-4.81245 4.8125 0 1.1749.42104 2.2515 1.12047 3.0871.10637.1271.15245.295.12154.4578-.08707.4587-.13264.932-.13264 1.416 0 4.1681 3.37888 7.5469 7.54688 7.5469s7.5469-3.3788 7.5469-7.5469c0-.484-.0456-.9573-.1327-1.416-.0309-.1628.0152-.3307.1216-.4578.6994-.8356 1.1204-1.9122 1.1204-3.0871 0-2.65787-2.1546-4.8125-4.8124-4.8125z" fill="url(#M)"/><g filter="url(#e)"><path d="m5.71007 7.79498c-1.59271 3.92942-1.41139 9.68192.33078 12.12982" stroke="url(#N)" stroke-linecap="round" stroke-opacity=".4" stroke-width=".8"/></g><g filter="url(#f)"><path d="m26.9201 9.92479c.8299 3.27971.75 7.56251-.7499 10.00001" stroke="url(#O)" stroke-linecap="round" stroke-opacity=".5" stroke-width=".4"/></g><g filter="url(#g)"><path d="m21.4197 6.48547c1.2966.50939 3.6898 2.49511 2.4951 5.88483" stroke="url(#P)" stroke-linecap="round" stroke-width=".4"/></g><g filter="url(#h)"><path d="m23.0134 14.2297c.5 2.9375-.5937 5.125-1.5937 6.0312" stroke="url(#Q)" stroke-linecap="round" stroke-width=".1"/></g><g filter="url(#i)"><rect fill="#bb6f89" fill-opacity=".6" height="3.25" rx=".813" width="1.625" x="11.685" y="9.347"/></g><g filter="url(#j)"><rect fill="#bb6f89" fill-opacity=".6" height="3.25" rx=".813" width="1.625" x="18.154" y="9.347"/></g><rect fill="url(#S)" height="3.25" rx=".813" width="1.625" x="11.93" y="9.105"/><rect fill="url(#U)" height="3.25" rx=".813" width="1.625" x="11.93" y="9.105"/><rect fill="url(#V)" height="3.25" rx=".813" width="1.625" x="18.445" y="9.105"/><rect fill="url(#W)" height="3.25" rx=".813" width="1.625" x="18.445" y="9.105"/><g filter="url(#k)"><rect fill="#bb6f89" height="2.418" rx="1.116" width="5.344" x="13.102" y="13.761"/></g><rect fill="url(#X)" height="2.232" rx="1.116" width="4.891" x="13.555" y="13.357"/><rect fill="url(#Y)" height="2.232" rx="1.116" width="4.891" x="13.555" y="13.357"/><circle cx="14.549" cy="14.874" fill="url(#Z)" r=".512"/><circle cx="17.346" cy="14.874" fill="url(#aa)" r=".512"/><g filter="url(#l)"><circle cx="13.026" cy="9.712" fill="#795d72" r=".284"/></g><g filter="url(#m)"><circle cx="19.495" cy="9.712" fill="#795d72" r=".284"/></g><g filter="url(#n)"><path d="m17.2429 13.9719c.3438-.0703.8203.1875.875.7109" stroke="url(#ab)" stroke-width=".05"/></g><rect fill="url(#ad)" height="9.295" rx="1.54" transform="matrix(.508678 .860957 .860957 -.508678 9.16151 18.1176)" width="3.081"/><rect fill="url(#af)" height="9.295" rx="1.54" transform="matrix(.508678 .860957 .860957 -.508678 9.16151 18.1176)" width="3.081"/><rect fill="url(#ah)" height="9.295" rx="1.54" transform="matrix(.508678 .860957 .860957 -.508678 9.16151 18.1176)" width="3.081"/><rect fill="url(#ai)" height="9.295" rx="1.635" transform="matrix(.991951 .126626 .126626 -.991951 9.28208 23.6699)" width="3.269"/><g filter="url(#o)"><path d="m12.2022 16.6547c.3338-.0339.9526-.4161.9983-1.0778l-1.2708-.4367z" fill="#f2b9ad"/></g><rect fill="url(#ak)" height="9.295" rx="1.54" transform="matrix(.508678 .860957 .860957 -.508678 11.3404 22.4033)" width="3.081"/><rect fill="url(#al)" height="9.295" rx="1.54" transform="matrix(.508678 .860957 .860957 -.508678 11.3404 22.4033)" width="3.081"/><rect fill="url(#am)" height="9.295" rx="1.54" transform="matrix(.508678 .860957 .860957 -.508678 11.3404 22.4033)" width="3.081"/><rect fill="url(#an)" height="9.295" rx="1.54" transform="matrix(.508678 .860957 .860957 -.508678 11.3404 22.4033)" width="3.081"/><rect fill="url(#ao)" height="9.295" rx="1.465" transform="matrix(.508678 .860957 .860957 -.508678 10.6078 20.0782)" width="2.93"/><rect fill="url(#ap)" height="9.295" rx="1.465" transform="matrix(.508678 .860957 .860957 -.508678 10.6078 20.0782)" width="2.93"/><g filter="url(#p)"><path d="m0 0h.569313v2.62691h-.569313z" fill="#ffd5c9" fill-opacity=".5" transform="matrix(-.508678 -.860957 -.860957 .508678 18.0554 17.1075)"/></g><g filter="url(#q)"><path d="m19.1322 19.5134-.1769-.2994-3.0647 1.7636.177.2994z" fill="#ffd5c9" fill-opacity=".6"/></g><g filter="url(#r)"><path d="m0 0h.716036v2.62691h-.716036z" fill="#ffd5c9" fill-opacity=".75" transform="matrix(-.508678 -.860957 -.860957 .508678 16.8518 14.8732)"/></g><g filter="url(#s)"><path d="m14.425 15.7456-1.7894 1.0099 1.5885 6.8169c3.3687-2.7334 1.5376-6.3568.2009-7.8268z" fill="#b16962" fill-opacity=".75"/></g><path d="m13.3358 15.6513c.2378-.1405.5444-.0616.6849.1762l.5935 1.0045c1.8963 3.2096.8317 7.3487-2.3779 9.245l-3.5342 2.0881c-2.00106 1.1823-4.58168.5186-5.76397-1.4825-1.18228-2.001-.51853-4.5817 1.48254-5.764z" fill="url(#ar)"/><path d="m13.3358 15.6513c.2378-.1405.5444-.0616.6849.1762l.5935 1.0045c1.8963 3.2096.8317 7.3487-2.3779 9.245l-3.5342 2.0881c-2.00106 1.1823-4.58168.5186-5.76397-1.4825-1.18228-2.001-.51853-4.5817 1.48254-5.764z" fill="url(#at)"/><path d="m13.3358 15.6513c.2378-.1405.5444-.0616.6849.1762l.5935 1.0045c1.8963 3.2096.8317 7.3487-2.3779 9.245l-3.5342 2.0881c-2.00106 1.1823-4.58168.5186-5.76397-1.4825-1.18228-2.001-.51853-4.5817 1.48254-5.764z" fill="url(#av)"/><path d="m13.3358 15.6513c.2378-.1405.5444-.0616.6849.1762l.5935 1.0045c1.8963 3.2096.8317 7.3487-2.3779 9.245l-3.5342 2.0881c-2.00106 1.1823-4.58168.5186-5.76397-1.4825-1.18228-2.001-.51853-4.5817 1.48254-5.764z" fill="url(#aw)"/><path d="m13.3358 15.6513c.2378-.1405.5444-.0616.6849.1762l.5935 1.0045c1.8963 3.2096.8317 7.3487-2.3779 9.245l-3.5342 2.0881c-2.00106 1.1823-4.58168.5186-5.76397-1.4825-1.18228-2.001-.51853-4.5817 1.48254-5.764z" fill="url(#ay)"/><path d="m13.3358 15.6513c.2378-.1405.5444-.0616.6849.1762l.5935 1.0045c1.8963 3.2096.8317 7.3487-2.3779 9.245l-3.5342 2.0881c-2.00106 1.1823-4.58168.5186-5.76397-1.4825-1.18228-2.001-.51853-4.5817 1.48254-5.764z" fill="url(#aA)"/><g filter="url(#t)" opacity=".5"><rect fill="url(#aC)" height="12.118" rx=".868" transform="matrix(-.508678 -.860957 -.860957 .508678 15.3116 20.1774)" width="1.735"/></g><path d="m12.9215 15.8743.4143-.223c.2378-.1405.5444-.0616.6849.1761l.5935 1.0046c1.3899 2.3524 1.1891 5.2042-.2809 7.3063.6982-1.7795.7546-4.1095.1422-5.8079-.3229-.8953-.9556-1.9278-1.554-2.4561z" fill="url(#aE)" opacity=".5"/><rect fill="url(#aF)" height="9.295" rx="1.54" transform="matrix(-.50868082 .86095518 -.86095518 -.50868082 50.433203 7.434808)" width="3.081" x="23.095" y="18.108"/><rect fill="url(#aG)" height="9.295" rx="1.54" transform="matrix(-.50868082 .86095518 -.86095518 -.50868082 50.433203 7.434808)" width="3.081" x="23.095" y="18.108"/><rect fill="url(#aH)" height="9.295" rx="1.54" transform="matrix(-.50868082 .86095518 -.86095518 -.50868082 50.433203 7.434808)" width="3.081" x="23.095" y="18.108"/><rect fill="url(#aI)" height="9.295" rx="1.635" transform="matrix(-.99194979 .1266318 -.1266318 -.99194979 48.760345 44.220018)" width="3.269" x="22.975" y="23.66"/><rect fill="url(#aJ)" height="9.295" rx="1.54" transform="matrix(-.50868082 .86095518 -.86095518 -.50868082 50.835734 15.776496)" width="3.081" x="20.916" y="22.393"/><rect fill="url(#aK)" height="9.295" rx="1.54" transform="matrix(-.50868082 .86095518 -.86095518 -.50868082 50.835734 15.776496)" width="3.081" x="20.916" y="22.393"/><rect fill="url(#aL)" height="9.295" rx="1.54" transform="matrix(-.50868082 .86095518 -.86095518 -.50868082 50.835734 15.776496)" width="3.081" x="20.916" y="22.393"/><rect fill="url(#aM)" height="9.295" rx="1.54" transform="matrix(-.50868082 .86095518 -.86095518 -.50868082 50.835734 15.776496)" width="3.081" x="20.916" y="22.393"/><rect fill="url(#aN)" height="9.295" rx="1.465" transform="matrix(-.50868082 .86095518 -.86095518 -.50868082 49.939187 11.637927)" width="2.93" x="21.649" y="20.068"/><rect fill="url(#aO)" height="9.295" rx="1.465" transform="matrix(-.50868082 .86095518 -.86095518 -.50868082 49.939187 11.637927)" width="2.93" x="21.649" y="20.068"/><g filter="url(#u)"><path d="m14.2014 17.0975h.569313v2.62691h-.569313z" fill="#ffd5c9" fill-opacity=".5" transform="matrix(.50867782 -.86095695 .86095695 .50867782 -7.742749 20.627175)"/></g><g filter="url(#v)"><path d="m13.5547 19.3936.1769-.2995 1.5716.9002-.1769.2995z" fill="#ffd5c9" fill-opacity=".6"/></g><g filter="url(#w)"><path d="m15.4049 14.8633h.716036v2.62691h-.716036z" fill="#ffd5c9" fill-opacity=".75" transform="matrix(.50867782 -.86095695 .86095695 .50867782 -5.227892 20.565625)"/></g><g filter="url(#x)"><path d="m17.8317 15.7357 1.7894 1.0099-1.5885 6.8169c-3.3687-2.7334-1.5375-6.3568-.2009-7.8268z" fill="#b05a93" fill-opacity=".75"/></g><path d="m18.9209 15.6414c-.2378-.1404-.5444-.0616-.6849.1762l-.5935 1.0045c-1.8963 3.2096-.8317 7.3487 2.3779 9.2451l3.5342 2.0881c2.0011 1.1822 4.5817.5185 5.764-1.4826 1.1823-2.001.5185-4.5817-1.4826-5.7639z" fill="url(#aP)"/><path d="m18.9209 15.6414c-.2378-.1404-.5444-.0616-.6849.1762l-.5935 1.0045c-1.8963 3.2096-.8317 7.3487 2.3779 9.2451l3.5342 2.0881c2.0011 1.1822 4.5817.5185 5.764-1.4826 1.1823-2.001.5185-4.5817-1.4826-5.7639z" fill="url(#aQ)"/><path d="m18.9209 15.6414c-.2378-.1404-.5444-.0616-.6849.1762l-.5935 1.0045c-1.8963 3.2096-.8317 7.3487 2.3779 9.2451l3.5342 2.0881c2.0011 1.1822 4.5817.5185 5.764-1.4826 1.1823-2.001.5185-4.5817-1.4826-5.7639z" fill="url(#aR)"/><path d="m18.9209 15.6414c-.2378-.1404-.5444-.0616-.6849.1762l-.5935 1.0045c-1.8963 3.2096-.8317 7.3487 2.3779 9.2451l3.5342 2.0881c2.0011 1.1822 4.5817.5185 5.764-1.4826 1.1823-2.001.5185-4.5817-1.4826-5.7639z" fill="url(#aS)"/><path d="m18.9209 15.6414c-.2378-.1404-.5444-.0616-.6849.1762l-.5935 1.0045c-1.8963 3.2096-.8317 7.3487 2.3779 9.2451l3.5342 2.0881c2.0011 1.1822 4.5817.5185 5.764-1.4826 1.1823-2.001.5185-4.5817-1.4826-5.7639z" fill="url(#aT)"/><g filter="url(#y)"><rect fill="url(#aU)" height="12.118" rx="1.414" transform="matrix(.50867782 -.86095695 .86095695 .50867782 -7.813716 23.954618)" width="2.828" x="17.081" y="18.823"/></g><g filter="url(#z)"><path d="m20.6679 14.8548c.335.0196.9695.3749 1.0435 1.034l-1.2509.4908z" fill="#ffd5c9"/></g><path d="m19.3352 15.8645-.4143-.2231c-.2378-.1404-.5444-.0616-.6848.1762l-.5936 1.0045c-1.3898 2.3524-1.1891 5.2042.2809 7.3063-.6982-1.7795-.7546-4.1095-.1422-5.8079.3229-.8953.9556-1.9278 1.554-2.456z" fill="url(#aV)" opacity=".5"/></svg>