<svg fill="none" height="32" viewBox="0 0 31 32" width="31" xmlns="http://www.w3.org/2000/svg" xmlns:xlink="http://www.w3.org/1999/xlink"><filter id="a" color-interpolation-filters="sRGB" filterUnits="userSpaceOnUse" height="8.419" width=".65" x="23.44" y="16.893"><feFlood flood-opacity="0" result="BackgroundImageFix"/><feBlend in="SourceGraphic" in2="BackgroundImageFix" mode="normal" result="shape"/><feGaussianBlur result="effect1_foregroundBlur_20020_4060" stdDeviation=".125"/></filter><filter id="b" color-interpolation-filters="sRGB" filterUnits="userSpaceOnUse" height="6.709" width="5.65" x="9.725" y="16.53"><feFlood flood-opacity="0" result="BackgroundImageFix"/><feBlend in="SourceGraphic" in2="BackgroundImageFix" mode="normal" result="shape"/><feGaussianBlur result="effect1_foregroundBlur_20020_4060" stdDeviation=".125"/></filter><filter id="c" color-interpolation-filters="sRGB" filterUnits="userSpaceOnUse" height="13.95" width="6.934" x="16.266" y="4.265"><feFlood flood-opacity="0" result="BackgroundImageFix"/><feBlend in="SourceGraphic" in2="BackgroundImageFix" mode="normal" result="shape"/><feGaussianBlur result="effect1_foregroundBlur_20020_4060" stdDeviation=".75"/></filter><filter id="d" color-interpolation-filters="sRGB" filterUnits="userSpaceOnUse" height="18.853" width="8.303" x="8.476" y="4.094"><feFlood flood-opacity="0" result="BackgroundImageFix"/><feBlend in="SourceGraphic" in2="BackgroundImageFix" mode="normal" result="shape"/><feGaussianBlur result="effect1_foregroundBlur_20020_4060" stdDeviation=".75"/></filter><filter id="e" color-interpolation-filters="sRGB" filterUnits="userSpaceOnUse" height="4.044" width="3.928" x="16.885" y="1.792"><feFlood flood-opacity="0" result="BackgroundImageFix"/><feBlend in="SourceGraphic" in2="BackgroundImageFix" mode="normal" result="shape"/><feGaussianBlur result="effect1_foregroundBlur_20020_4060" stdDeviation=".5"/></filter><filter id="f" color-interpolation-filters="sRGB" filterUnits="userSpaceOnUse" height="3.85" width="3.753" x="12.579" y="1.93"><feFlood flood-opacity="0" result="BackgroundImageFix"/><feBlend in="SourceGraphic" in2="BackgroundImageFix" mode="normal" result="shape"/><feGaussianBlur result="effect1_foregroundBlur_20020_4060" stdDeviation=".5"/></filter><linearGradient id="g" gradientUnits="userSpaceOnUse" x1="13.453" x2="13.453" y1="6.938" y2="4"><stop offset="0" stop-color="#402519"/><stop offset="1" stop-color="#402519" stop-opacity="0"/></linearGradient><linearGradient id="h"><stop offset="0" stop-color="#805b4d"/><stop offset="1" stop-color="#835952"/></linearGradient><linearGradient id="i" gradientUnits="userSpaceOnUse" x1="12.269" x2="12.269" xlink:href="#h" y1="5.125" y2="16.702"/><radialGradient id="j" cx="0" cy="0" gradientTransform="matrix(0 -3.4089 5.11912 0 14.8649 23.496)" gradientUnits="userSpaceOnUse" r="1"><stop offset="0" stop-color="#683754"/><stop offset="1" stop-color="#683754" stop-opacity="0"/></radialGradient><linearGradient id="k" gradientUnits="userSpaceOnUse" x1="15.984" x2="15.297" y1="12.544" y2="12.544"><stop offset="0" stop-color="#67443e"/><stop offset="1" stop-color="#67443e" stop-opacity="0"/></linearGradient><linearGradient id="l" gradientUnits="userSpaceOnUse" x1="2.922" x2="2.922" y1="6.09" y2="1.496"><stop offset="0" stop-color="#523022"/><stop offset="1" stop-color="#523022" stop-opacity="0"/></linearGradient><radialGradient id="m" cx="0" cy="0" gradientTransform="matrix(-3.28211623 -3.24418529 3.42677163 -3.46683737 3.63589 3.24418)" gradientUnits="userSpaceOnUse" r="1"><stop offset=".559" stop-color="#997868" stop-opacity="0"/><stop offset=".907" stop-color="#997868"/></radialGradient><linearGradient id="n" gradientUnits="userSpaceOnUse" x1="19.699" x2="19.699" xlink:href="#h" y1="8.915" y2="24.762"/><radialGradient id="o" cx="0" cy="0" gradientTransform="matrix(0 -3.4089 5.11912 0 17.1033 23.496)" gradientUnits="userSpaceOnUse" r="1"><stop offset="0" stop-color="#602859"/><stop offset="1" stop-color="#602859" stop-opacity="0"/></radialGradient><linearGradient id="p" gradientUnits="userSpaceOnUse" x1="24.265" x2="24.265" y1="16.348" y2="25.857"><stop offset="0" stop-color="#9a69fb" stop-opacity="0"/><stop offset=".49" stop-color="#a578ff"/><stop offset="1" stop-color="#9a69fb" stop-opacity="0"/></linearGradient><linearGradient id="q" gradientUnits="userSpaceOnUse" x1="9.914" x2="15.958" y1="15.896" y2="23.236"><stop offset=".214" stop-color="#9867f8" stop-opacity="0"/><stop offset=".49" stop-color="#9867f8"/><stop offset=".776" stop-color="#9867f8" stop-opacity="0"/></linearGradient><linearGradient id="r" gradientUnits="userSpaceOnUse" x1="19.954" x2="19.954" y1="5.765" y2="24.331"><stop offset="0" stop-color="#9f7b70"/><stop offset="1" stop-color="#9f7b70" stop-opacity="0"/></linearGradient><linearGradient id="s" gradientUnits="userSpaceOnUse" x1="15.759" x2="11.234" y1="6.778" y2="31.761"><stop offset="0" stop-color="#9d7b6f"/><stop offset="1" stop-color="#9d7b6f" stop-opacity="0"/></linearGradient><linearGradient id="t" gradientUnits="userSpaceOnUse" x1="18.849" x2="18.849" y1="2.68" y2="6.352"><stop offset="0" stop-color="#9e7a6a"/><stop offset="1" stop-color="#9e7a6a" stop-opacity="0"/></linearGradient><linearGradient id="u" gradientUnits="userSpaceOnUse" x1="6.609" x2="12.234" y1="15.195" y2="22.593"><stop offset="0" stop-color="#6640a2"/><stop offset="1" stop-color="#6d43ff"/></linearGradient><linearGradient id="v"><stop offset="0" stop-color="#6c2ac4"/><stop offset="1" stop-color="#6c2ac4" stop-opacity="0"/></linearGradient><linearGradient id="w" gradientUnits="userSpaceOnUse" x1="12.633" x2="11.784" xlink:href="#v" y1="18.983" y2="19.781"/><radialGradient id="x" cx="0" cy="0" gradientTransform="matrix(6.11977585 -6.11977585 2.223172 2.223172 7.78125 24.6622)" gradientUnits="userSpaceOnUse" r="1"><stop offset="0" stop-color="#8253ff"/><stop offset="1" stop-color="#8253ff" stop-opacity="0"/></radialGradient><linearGradient id="y" gradientUnits="userSpaceOnUse" x1="7.357" x2="8.211" y1="22.593" y2="22.593"><stop offset="0" stop-color="#6236ae"/><stop offset="1" stop-color="#6236ae" stop-opacity="0"/></linearGradient><linearGradient id="z" gradientUnits="userSpaceOnUse" x1="12.297" x2="11.992" y1="26.703" y2="26.359"><stop offset="0" stop-color="#9c6eff"/><stop offset="1" stop-color="#9c6eff" stop-opacity="0"/></linearGradient><linearGradient id="A" gradientUnits="userSpaceOnUse" x1="22.735" x2="18.084" y1="18.733" y2="28.212"><stop offset="0" stop-color="#945bcc"/><stop offset="1" stop-color="#573eff"/></linearGradient><radialGradient id="B" cx="0" cy="0" gradientTransform="matrix(4.15625107 3.31250299 -1.73900798 2.18196143 21.0779 17.0625)" gradientUnits="userSpaceOnUse" r="1"><stop offset="0" stop-color="#9d5bef"/><stop offset="1" stop-color="#9d5bef" stop-opacity="0"/></radialGradient><linearGradient id="C" gradientUnits="userSpaceOnUse" x1="19.335" x2="19.88" xlink:href="#v" y1="18.983" y2="19.439"/><linearGradient id="D" gradientUnits="userSpaceOnUse" x1="19.672" x2="19.914" y1="26.703" y2="26.422"><stop offset="0" stop-color="#9469ff"/><stop offset="1" stop-color="#9469ff" stop-opacity="0"/></linearGradient><rect fill="#714e42" height="8.125" rx="2.195" width="4.39" x="11.594" y="2.223"/><rect fill="url(#g)" height="8.125" rx="2.195" width="4.39" x="11.594" y="2.223"/><path d="m13.7785 4.73685c-1.2181 0-2.2056.98749-2.2056 2.20562v5.39983c0 .5801-.2519 1.1317-.6903 1.5115l-2.32907 2.0182 6.46987 7.624.6538-.6352c.1939-.1883.3228-.4421.3228-.7124-.0243-5.0686-.0159-10.1373-.0159-15.20593 0-1.21813-.9875-2.20562-2.2056-2.20562z" fill="url(#i)"/><path d="m13.7785 4.73685c-1.2181 0-2.2056.98749-2.2056 2.20562v5.39983c0 .5801-.2519 1.1317-.6903 1.5115l-2.32907 2.0182 6.46987 7.624.6538-.6352c.1939-.1883.3228-.4421.3228-.7124-.0243-5.0686-.0159-10.1373-.0159-15.20593 0-1.21813-.9875-2.20562-2.2056-2.20562z" fill="url(#j)"/><path d="m13.7785 4.73685c-1.2181 0-2.2056.98749-2.2056 2.20562v5.39983c0 .5801-.2519 1.1317-.6903 1.5115l-2.32907 2.0182 6.46987 7.624.6538-.6352c.1939-.1883.3228-.4421.3228-.7124-.0243-5.0686-.0159-10.1373-.0159-15.20593 0-1.21813-.9875-2.20562-2.2056-2.20562z" fill="url(#k)"/><g transform="matrix(-1 0 0 1 20.3746 2.22255)"><rect fill="#654338" height="8.125" rx="2.195" width="4.39"/><rect fill="url(#l)" height="8.125" rx="2.195" width="4.39"/><rect fill="url(#m)" height="8.125" rx="2.195" width="4.39"/></g><path d="m18.1898 4.73685c1.2181 0 2.2056.98749 2.2056 2.20562v5.39983c0 .5801.2519 1.1317.6903 1.5115l2.329 2.0182-6.4698 7.624-.6539-.6352c-.1938-.1883-.3032-.4304-.3032-.7006v-4.093c-.0024-.0426-.0037-.0855-.0037-.1287v-10.99603c0-1.21813.9875-2.20562 2.2057-2.20562z" fill="url(#n)"/><path d="m18.1898 4.73685c1.2181 0 2.2056.98749 2.2056 2.20562v5.39983c0 .5801.2519 1.1317.6903 1.5115l2.329 2.0182-6.4698 7.624-.6539-.6352c-.1938-.1883-.3032-.4304-.3032-.7006v-4.093c-.0024-.0426-.0037-.0855-.0037-.1287v-10.99603c0-1.21813.9875-2.20562 2.2057-2.20562z" fill="url(#o)"/><g filter="url(#a)"><path d="m23.7654 17.1431v7.9191" stroke="url(#p)" stroke-width=".15"/></g><g filter="url(#b)"><path d="m10.0332 16.8273 5.0338 6.1132" stroke="url(#q)" stroke-width=".15"/></g><g filter="url(#c)"><path d="m19.8984 6.83109c0-.58873-.4773-1.06598-1.066-1.06598-.5887 0-1.066.47725-1.066 1.06598v6.64091c0 .7342.3083 1.4346.8497 1.9306l1.0926 1.0008c.4966.4549 1.2714.4069 1.7081-.1057.4077-.4787.3723-1.192-.0808-1.6279l-.9178-.8828c-.3321-.3194-.5198-.7604-.5198-1.2212z" fill="url(#r)"/></g><g filter="url(#d)"><path d="m13.147 6.65974c0-.58872.4773-1.06597 1.066-1.06597.5887 0 1.066.47725 1.066 1.06597v12.50326c0 .6364-.2656 1.244-.7328 1.6762-1.0815 1.0007-2.8136.7304-3.5388-.5522l-.6431-1.1373c-.65539-1.1592-.46823-2.6117.4596-3.5669l1.7577-1.8094c.3626-.3732.5654-.8731.5654-1.3935z" fill="url(#s)"/></g><g filter="url(#e)"><ellipse cx="18.849" cy="3.814" fill="url(#t)" rx=".828" ry="1.134" transform="matrix(.77173115 -.63594892 .63594892 .77173115 1.876987 12.857598)"/></g><g filter="url(#f)"><ellipse cx="14.456" cy="3.855" fill="#997a6b" rx=".764" ry="1.019" transform="matrix(.77173115 -.63594892 .63594892 .77173115 .848433 10.073124)"/></g><path d="m15.6454 22.9033-6.28693-7.4941c-.20527-.2447-.56624-.2857-.82115-.0933l-.35854.2706c-.25035.189-.39753.4845-.39753.7982v13.3568c0 .2123.24788.328.41058.1916l7.37937-6.1843c.254-.213.2873-.5916.0742-.8455z" fill="url(#u)"/><path d="m15.6454 22.9033-6.28693-7.4941c-.20527-.2447-.56624-.2857-.82115-.0933l-.35854.2706c-.25035.189-.39753.4845-.39753.7982v13.3568c0 .2123.24788.328.41058.1916l7.37937-6.1843c.254-.213.2873-.5916.0742-.8455z" fill="url(#w)"/><path d="m15.6454 22.9033-6.28693-7.4941c-.20527-.2447-.56624-.2857-.82115-.0933l-.35854.2706c-.25035.189-.39753.4845-.39753.7982v13.3568c0 .2123.24788.328.41058.1916l7.37937-6.1843c.254-.213.2873-.5916.0742-.8455z" fill="url(#x)"/><path d="m15.6454 22.9033-6.28693-7.4941c-.20527-.2447-.56624-.2857-.82115-.0933l-.35854.2706c-.25035.189-.39753.4845-.39753.7982v13.3568c0 .2123.24788.328.41058.1916l7.37937-6.1843c.254-.213.2873-.5916.0742-.8455z" fill="url(#y)"/><path d="m15.6454 22.9033-6.28693-7.4941c-.20527-.2447-.56624-.2857-.82115-.0933l-.35854.2706c-.25035.189-.39753.4845-.39753.7982v13.3568c0 .2123.24788.328.41058.1916l7.37937-6.1843c.254-.213.2873-.5916.0742-.8455z" fill="url(#z)"/><path d="m16.3229 22.9033 6.287-7.4941c.2052-.2447.5662-.2857.8211-.0933l.3585.2706c.2504.189.3976.4845.3976.7982v13.3568c0 .2123-.2479.328-.4106.1916l-7.3793-6.1843c-.2541-.213-.2874-.5916-.0743-.8455z" fill="url(#A)"/><path d="m16.3229 22.9033 6.287-7.4941c.2052-.2447.5662-.2857.8211-.0933l.3585.2706c.2504.189.3976.4845.3976.7982v13.3568c0 .2123-.2479.328-.4106.1916l-7.3793-6.1843c-.2541-.213-.2874-.5916-.0743-.8455z" fill="url(#B)"/><path d="m16.3229 22.9033 6.287-7.4941c.2052-.2447.5662-.2857.8211-.0933l.3585.2706c.2504.189.3976.4845.3976.7982v13.3568c0 .2123-.2479.328-.4106.1916l-7.3793-6.1843c-.2541-.213-.2874-.5916-.0743-.8455z" fill="url(#C)"/><path d="m16.3229 22.9033 6.287-7.4941c.2052-.2447.5662-.2857.8211-.0933l.3585.2706c.2504.189.3976.4845.3976.7982v13.3568c0 .2123-.2479.328-.4106.1916l-7.3793-6.1843c-.2541-.213-.2874-.5916-.0743-.8455z" fill="url(#D)"/></svg>