<svg fill="none" height="32" viewBox="0 0 32 32" width="32" xmlns="http://www.w3.org/2000/svg" xmlns:xlink="http://www.w3.org/1999/xlink"><filter id="a" color-interpolation-filters="sRGB" filterUnits="userSpaceOnUse" height="2.22" width=".423" x="4.765" y="4.753"><feFlood flood-opacity="0" result="BackgroundImageFix"/><feBlend in="SourceGraphic" in2="BackgroundImageFix" mode="normal" result="shape"/><feGaussianBlur result="effect1_foregroundBlur_4002_3870" stdDeviation=".05"/></filter><filter id="b" color-interpolation-filters="sRGB" filterUnits="userSpaceOnUse" height="2.572" width=".345" x="6.32" y="4.323"><feFlood flood-opacity="0" result="BackgroundImageFix"/><feBlend in="SourceGraphic" in2="BackgroundImageFix" mode="normal" result="shape"/><feGaussianBlur result="effect1_foregroundBlur_4002_3870" stdDeviation=".05"/></filter><filter id="c" color-interpolation-filters="sRGB" filterUnits="userSpaceOnUse" height="1.681" width=".509" x="7.796" y="4.925"><feFlood flood-opacity="0" result="BackgroundImageFix"/><feBlend in="SourceGraphic" in2="BackgroundImageFix" mode="normal" result="shape"/><feGaussianBlur result="effect1_foregroundBlur_4002_3870" stdDeviation=".05"/></filter><filter id="d" color-interpolation-filters="sRGB" filterUnits="userSpaceOnUse" height="3.487" width="1.556" x="3.631" y="4.103"><feFlood flood-opacity="0" result="BackgroundImageFix"/><feBlend in="SourceGraphic" in2="BackgroundImageFix" mode="normal" result="shape"/><feGaussianBlur result="effect1_foregroundBlur_4002_3870" stdDeviation=".2"/></filter><filter id="e" color-interpolation-filters="sRGB" filterUnits="userSpaceOnUse" height="3.889" width="1.2" x="5.316" y="3.174"><feFlood flood-opacity="0" result="BackgroundImageFix"/><feBlend in="SourceGraphic" in2="BackgroundImageFix" mode="normal" result="shape"/><feGaussianBlur result="effect1_foregroundBlur_4002_3870" stdDeviation=".2"/></filter><filter id="f" color-interpolation-filters="sRGB" filterUnits="userSpaceOnUse" height="4.773" width="1.488" x="6.864" y="2.248"><feFlood flood-opacity="0" result="BackgroundImageFix"/><feBlend in="SourceGraphic" in2="BackgroundImageFix" mode="normal" result="shape"/><feGaussianBlur result="effect1_foregroundBlur_4002_3870" stdDeviation=".2"/></filter><filter id="g" color-interpolation-filters="sRGB" filterUnits="userSpaceOnUse" height="4.299" width="2.002" x="8.267" y="3.263"><feFlood flood-opacity="0" result="BackgroundImageFix"/><feBlend in="SourceGraphic" in2="BackgroundImageFix" mode="normal" result="shape"/><feGaussianBlur result="effect1_foregroundBlur_4002_3870" stdDeviation=".2"/></filter><filter id="h" color-interpolation-filters="sRGB" filterUnits="userSpaceOnUse" height="1.358" width="1.412" x="3.921" y="6.62"><feFlood flood-opacity="0" result="BackgroundImageFix"/><feBlend in="SourceGraphic" in2="BackgroundImageFix" mode="normal" result="shape"/><feGaussianBlur result="effect1_foregroundBlur_4002_3870" stdDeviation=".1"/></filter><filter id="i" color-interpolation-filters="sRGB" filterUnits="userSpaceOnUse" height=".999" width="1.118" x="5.57" y="6.413"><feFlood flood-opacity="0" result="BackgroundImageFix"/><feBlend in="SourceGraphic" in2="BackgroundImageFix" mode="normal" result="shape"/><feGaussianBlur result="effect1_foregroundBlur_4002_3870" stdDeviation=".1"/></filter><filter id="j" color-interpolation-filters="sRGB" filterUnits="userSpaceOnUse" height="1.023" width="1.312" x="6.835" y="6.221"><feFlood flood-opacity="0" result="BackgroundImageFix"/><feBlend in="SourceGraphic" in2="BackgroundImageFix" mode="normal" result="shape"/><feGaussianBlur result="effect1_foregroundBlur_4002_3870" stdDeviation=".1"/></filter><filter id="k" color-interpolation-filters="sRGB" filterUnits="userSpaceOnUse" height="11.911" width="9.217" x="5.665" y="12.298"><feFlood flood-opacity="0" result="BackgroundImageFix"/><feBlend in="SourceGraphic" in2="BackgroundImageFix" mode="normal" result="shape"/><feGaussianBlur result="effect1_foregroundBlur_4002_3870" stdDeviation=".75"/></filter><filter id="l" color-interpolation-filters="sRGB" filterUnits="userSpaceOnUse" height="3.974" width="4.174" x="11.674" y="12.208"><feFlood flood-opacity="0" result="BackgroundImageFix"/><feBlend in="SourceGraphic" in2="BackgroundImageFix" mode="normal" result="shape"/><feColorMatrix in="SourceAlpha" result="hardAlpha" type="matrix" values="0 0 0 0 0 0 0 0 0 0 0 0 0 0 0 0 0 0 127 0"/><feOffset dx=".2"/><feGaussianBlur stdDeviation=".15"/><feComposite in2="hardAlpha" k2="-1" k3="1" operator="arithmetic"/><feColorMatrix type="matrix" values="0 0 0 0 0.619608 0 0 0 0 0.470588 0 0 0 0 0.407843 0 0 0 1 0"/><feBlend in2="shape" mode="normal" result="effect1_innerShadow_4002_3870"/></filter><filter id="m" color-interpolation-filters="sRGB" filterUnits="userSpaceOnUse" height="3.369" width="3.369" x="11.977" y="12.511"><feFlood flood-opacity="0" result="BackgroundImageFix"/><feBlend in="SourceGraphic" in2="BackgroundImageFix" mode="normal" result="shape"/><feGaussianBlur result="effect1_foregroundBlur_4002_3870" stdDeviation=".25"/></filter><filter id="n" color-interpolation-filters="sRGB" filterUnits="userSpaceOnUse" height="4.224" width="4.224" x="22.998" y="11.958"><feFlood flood-opacity="0" result="BackgroundImageFix"/><feBlend in="SourceGraphic" in2="BackgroundImageFix" mode="normal" result="shape"/><feColorMatrix in="SourceAlpha" result="hardAlpha" type="matrix" values="0 0 0 0 0 0 0 0 0 0 0 0 0 0 0 0 0 0 127 0"/><feOffset dx=".25" dy="-.25"/><feGaussianBlur stdDeviation=".25"/><feComposite in2="hardAlpha" k2="-1" k3="1" operator="arithmetic"/><feColorMatrix type="matrix" values="0 0 0 0 0.584314 0 0 0 0 0.368627 0 0 0 0 0.470588 0 0 0 1 0"/><feBlend in2="shape" mode="normal" result="effect1_innerShadow_4002_3870"/></filter><filter id="o" color-interpolation-filters="sRGB" filterUnits="userSpaceOnUse" height="3.369" width="3.369" x="23.301" y="12.511"><feFlood flood-opacity="0" result="BackgroundImageFix"/><feBlend in="SourceGraphic" in2="BackgroundImageFix" mode="normal" result="shape"/><feGaussianBlur result="effect1_foregroundBlur_4002_3870" stdDeviation=".25"/></filter><filter id="p" color-interpolation-filters="sRGB" filterUnits="userSpaceOnUse" height="14.567" width="12.348" x="13.173" y="7.501"><feFlood flood-opacity="0" result="BackgroundImageFix"/><feBlend in="SourceGraphic" in2="BackgroundImageFix" mode="normal" result="shape"/><feColorMatrix in="SourceAlpha" result="hardAlpha" type="matrix" values="0 0 0 0 0 0 0 0 0 0 0 0 0 0 0 0 0 0 127 0"/><feOffset dy=".25"/><feGaussianBlur stdDeviation=".375"/><feComposite in2="hardAlpha" k2="-1" k3="1" operator="arithmetic"/><feColorMatrix type="matrix" values="0 0 0 0 0.305882 0 0 0 0 0.2 0 0 0 0 0.172549 0 0 0 1 0"/><feBlend in2="shape" mode="normal" result="effect1_innerShadow_4002_3870"/></filter><filter id="q" color-interpolation-filters="sRGB" filterUnits="userSpaceOnUse" height="7.65" width="9.054" x="17.515" y="5.501"><feFlood flood-opacity="0" result="BackgroundImageFix"/><feBlend in="SourceGraphic" in2="BackgroundImageFix" mode="normal" result="shape"/><feGaussianBlur result="effect1_foregroundBlur_4002_3870" stdDeviation="1"/></filter><filter id="r" color-interpolation-filters="sRGB" filterUnits="userSpaceOnUse" height="10.075" width="15" x="11.813" y="3.457"><feFlood flood-opacity="0" result="BackgroundImageFix"/><feBlend in="SourceGraphic" in2="BackgroundImageFix" mode="normal" result="shape"/><feColorMatrix in="SourceAlpha" result="hardAlpha" type="matrix" values="0 0 0 0 0 0 0 0 0 0 0 0 0 0 0 0 0 0 127 0"/><feOffset dy="-.5"/><feGaussianBlur stdDeviation=".375"/><feComposite in2="hardAlpha" k2="-1" k3="1" operator="arithmetic"/><feColorMatrix type="matrix" values="0 0 0 0 0.207843 0 0 0 0 0.109804 0 0 0 0 0.109804 0 0 0 1 0"/><feBlend in2="shape" mode="normal" result="effect1_innerShadow_4002_3870"/></filter><filter id="s" color-interpolation-filters="sRGB" filterUnits="userSpaceOnUse" height="4.692" width="3.595" x="17.231" y="12.964"><feFlood flood-opacity="0" result="BackgroundImageFix"/><feBlend in="SourceGraphic" in2="BackgroundImageFix" mode="normal" result="shape"/><feGaussianBlur result="effect1_foregroundBlur_4002_3870" stdDeviation=".375"/></filter><filter id="t" color-interpolation-filters="sRGB" filterUnits="userSpaceOnUse" height="3.692" width="2.734" x="17.946" y="13.27"><feFlood flood-opacity="0" result="BackgroundImageFix"/><feBlend in="SourceGraphic" in2="BackgroundImageFix" mode="normal" result="shape"/><feGaussianBlur result="effect1_foregroundBlur_4002_3870" stdDeviation=".125"/></filter><filter id="u" color-interpolation-filters="sRGB" filterUnits="userSpaceOnUse" height="2.153" width="3.499" x="20.72" y="9.928"><feFlood flood-opacity="0" result="BackgroundImageFix"/><feBlend in="SourceGraphic" in2="BackgroundImageFix" mode="normal" result="shape"/><feColorMatrix in="SourceAlpha" result="hardAlpha" type="matrix" values="0 0 0 0 0 0 0 0 0 0 0 0 0 0 0 0 0 0 127 0"/><feOffset dx=".25" dy="-.4"/><feGaussianBlur stdDeviation=".3"/><feComposite in2="hardAlpha" k2="-1" k3="1" operator="arithmetic"/><feColorMatrix type="matrix" values="0 0 0 0 0.254902 0 0 0 0 0.156863 0 0 0 0 0.152941 0 0 0 1 0"/><feBlend in2="shape" mode="normal" result="effect1_innerShadow_4002_3870"/></filter><filter id="v" color-interpolation-filters="sRGB" filterUnits="userSpaceOnUse" height="2.153" width="3.499" x="14.592" y="9.928"><feFlood flood-opacity="0" result="BackgroundImageFix"/><feBlend in="SourceGraphic" in2="BackgroundImageFix" mode="normal" result="shape"/><feColorMatrix in="SourceAlpha" result="hardAlpha" type="matrix" values="0 0 0 0 0 0 0 0 0 0 0 0 0 0 0 0 0 0 127 0"/><feOffset dx=".25" dy="-.4"/><feGaussianBlur stdDeviation=".3"/><feComposite in2="hardAlpha" k2="-1" k3="1" operator="arithmetic"/><feColorMatrix type="matrix" values="0 0 0 0 0.254902 0 0 0 0 0.156863 0 0 0 0 0.152941 0 0 0 1 0"/><feBlend in2="shape" mode="normal" result="effect1_innerShadow_4002_3870"/></filter><filter id="w" color-interpolation-filters="sRGB" filterUnits="userSpaceOnUse" height=".791" width=".898" x="21.052" y="12.879"><feFlood flood-opacity="0" result="BackgroundImageFix"/><feBlend in="SourceGraphic" in2="BackgroundImageFix" mode="normal" result="shape"/><feGaussianBlur result="effect1_foregroundBlur_4002_3870" stdDeviation=".05"/></filter><filter id="x" color-interpolation-filters="sRGB" filterUnits="userSpaceOnUse" height="1.011" width=".985" x="22.07" y="12.988"><feFlood flood-opacity="0" result="BackgroundImageFix"/><feBlend in="SourceGraphic" in2="BackgroundImageFix" mode="normal" result="shape"/><feGaussianBlur result="effect1_foregroundBlur_4002_3870" stdDeviation=".1"/></filter><filter id="y" color-interpolation-filters="sRGB" filterUnits="userSpaceOnUse" height="1.162" width="1.098" x="16.783" y="12.912"><feFlood flood-opacity="0" result="BackgroundImageFix"/><feBlend in="SourceGraphic" in2="BackgroundImageFix" mode="normal" result="shape"/><feGaussianBlur result="effect1_foregroundBlur_4002_3870" stdDeviation=".1"/></filter><filter id="z" color-interpolation-filters="sRGB" filterUnits="userSpaceOnUse" height=".8" width="1.049" x="15.866" y="12.87"><feFlood flood-opacity="0" result="BackgroundImageFix"/><feBlend in="SourceGraphic" in2="BackgroundImageFix" mode="normal" result="shape"/><feGaussianBlur result="effect1_foregroundBlur_4002_3870" stdDeviation=".05"/></filter><filter id="A" color-interpolation-filters="sRGB" filterUnits="userSpaceOnUse" height="2.013" width="3.701" x="20.54" y="9.996"><feFlood flood-opacity="0" result="BackgroundImageFix"/><feBlend in="SourceGraphic" in2="BackgroundImageFix" mode="normal" result="shape"/><feGaussianBlur result="effect1_foregroundBlur_4002_3870" stdDeviation=".25"/></filter><filter id="B" color-interpolation-filters="sRGB" filterUnits="userSpaceOnUse" height="2.081" width="3.794" x="14.326" y="10.072"><feFlood flood-opacity="0" result="BackgroundImageFix"/><feBlend in="SourceGraphic" in2="BackgroundImageFix" mode="normal" result="shape"/><feGaussianBlur result="effect1_foregroundBlur_4002_3870" stdDeviation=".25"/></filter><filter id="C" color-interpolation-filters="sRGB" filterUnits="userSpaceOnUse" height="2.559" width="1.057" x="13.235" y="8.094"><feFlood flood-opacity="0" result="BackgroundImageFix"/><feBlend in="SourceGraphic" in2="BackgroundImageFix" mode="normal" result="shape"/><feGaussianBlur result="effect1_foregroundBlur_4002_3870" stdDeviation=".125"/></filter><radialGradient id="D" cx="0" cy="0" gradientTransform="matrix(2.33336383 -6.0423119 7.22854426 2.79145201 6.18544 11.5393)" gradientUnits="userSpaceOnUse" r="1"><stop offset=".475" stop-color="#a97f72"/><stop offset="1" stop-color="#9e7963"/></radialGradient><radialGradient id="E" cx="0" cy="0" gradientTransform="matrix(-6.25005331 7.24996083 -1.74519094 -1.50449591 10.4496 9.65328)" gradientUnits="userSpaceOnUse" r="1"><stop offset=".147" stop-color="#814f57"/><stop offset="1" stop-color="#8e675e" stop-opacity="0"/></radialGradient><linearGradient id="F" gradientUnits="userSpaceOnUse" x1="6.668" x2="6.668" y1="12.2" y2="10.497"><stop offset="0" stop-color="#7f4a33"/><stop offset="1" stop-color="#7f4a33" stop-opacity="0"/></linearGradient><linearGradient id="G"><stop offset=".401" stop-color="#9c745d"/><stop offset="1" stop-color="#9c745d" stop-opacity="0"/></linearGradient><radialGradient id="H" cx="0" cy="0" gradientTransform="matrix(.19531312 2.2578079 -.2707359 .02342018 4.91054 4.72631)" gradientUnits="userSpaceOnUse" r="1" xlink:href="#G"/><radialGradient id="I" cx="0" cy="0" gradientTransform="matrix(-.04687352 3.4062475 -.26600482 -.0036605 6.55898 3.56225)" gradientUnits="userSpaceOnUse" r="1" xlink:href="#G"/><radialGradient id="J" cx="0" cy="0" gradientTransform="matrix(-.6718766 3.96875017 -.5671601 -.09601552 8.52772 2.79662)" gradientUnits="userSpaceOnUse" r="1"><stop offset=".652" stop-color="#9c745d"/><stop offset="1" stop-color="#9c745d" stop-opacity="0"/></radialGradient><linearGradient id="K"><stop offset="0" stop-color="#c8a48a"/><stop offset="1" stop-color="#c8a48a" stop-opacity="0"/></linearGradient><radialGradient id="L" cx="0" cy="0" gradientTransform="matrix(-.66289451 .7379266 -.64824912 -.58233541 10.0264 3.15713)" gradientUnits="userSpaceOnUse" r="1" xlink:href="#K"/><radialGradient id="M" cx="0" cy="0" gradientTransform="matrix(-.65039099 1.06500985 -.65799072 -.40182843 8.10024 2.12964)" gradientUnits="userSpaceOnUse" r="1" xlink:href="#K"/><radialGradient id="N" cx="0" cy="0" gradientTransform="matrix(-.21262332 1.22571493 -.94056048 -.16315791 6.03653 2.71937)" gradientUnits="userSpaceOnUse" r="1" xlink:href="#K"/><radialGradient id="O" cx="0" cy="0" gradientTransform="matrix(-.13758045 .96306346 -.68465105 -.09780726 4.2855 3.94509)" gradientUnits="userSpaceOnUse" r="1" xlink:href="#K"/><radialGradient id="P" cx="0" cy="0" gradientTransform="matrix(-1.09124961 1.09124961 -.8539375 -.8539375 12.3213 6.42617)" gradientUnits="userSpaceOnUse" r="1" xlink:href="#K"/><linearGradient id="Q"><stop offset="0" stop-color="#724736"/><stop offset="1" stop-color="#724736" stop-opacity="0"/></linearGradient><linearGradient id="R" gradientUnits="userSpaceOnUse" x1="5.158" x2="4.207" xlink:href="#Q" y1="4.894" y2="6.68"/><linearGradient id="S" gradientUnits="userSpaceOnUse" x1="6.578" x2="5.278" xlink:href="#Q" y1="4.465" y2="5.444"/><linearGradient id="T" gradientUnits="userSpaceOnUse" x1="8.338" x2="7.956" xlink:href="#Q" y1="5.065" y2="6.629"/><linearGradient id="U"><stop offset="0" stop-color="#c09a87"/><stop offset="1" stop-color="#c09a87" stop-opacity="0"/></linearGradient><linearGradient id="V" gradientUnits="userSpaceOnUse" x1="3.924" x2="4.344" xlink:href="#U" y1="5.006" y2="7.614"/><linearGradient id="W" gradientUnits="userSpaceOnUse" x1="5.069" x2="5.281" xlink:href="#U" y1="4.133" y2="7.256"/><linearGradient id="X" gradientUnits="userSpaceOnUse" x1="7.218" x2="8.32" xlink:href="#U" y1="3.376" y2="7.053"/><linearGradient id="Y" gradientUnits="userSpaceOnUse" x1="8.173" x2="8.489" xlink:href="#U" y1="4.326" y2="7.757"/><linearGradient id="Z"><stop offset="0" stop-color="#b7927f"/><stop offset="1" stop-color="#b7927f" stop-opacity="0"/></linearGradient><linearGradient id="aa" gradientUnits="userSpaceOnUse" x1="5.219" x2="4.127" xlink:href="#Z" y1="6.873" y2="6.805"/><linearGradient id="ab" gradientUnits="userSpaceOnUse" x1="6.491" x2="5.927" xlink:href="#Z" y1="6.702" y2="6.56"/><linearGradient id="ac" gradientUnits="userSpaceOnUse" x1="7.992" x2="7.189" xlink:href="#Z" y1="6.515" y2="6.302"/><linearGradient id="ad" gradientUnits="userSpaceOnUse" x1="4.509" x2="8.884" y1="12.433" y2="12.433"><stop offset="0" stop-color="#3688bf"/><stop offset=".743" stop-color="#1b6b9f"/></linearGradient><radialGradient id="ae" cx="0" cy="0" gradientTransform="matrix(0 1.10937 -1.15625 0 7.43988 12.3228)" gradientUnits="userSpaceOnUse" r="1"><stop offset="0" stop-color="#3983b7"/><stop offset="1" stop-color="#3983b7" stop-opacity="0"/></radialGradient><linearGradient id="af" gradientUnits="userSpaceOnUse" x1="6.779" x2="6.779" y1="11.847" y2="12.105"><stop offset="0" stop-color="#186a98"/><stop offset="1" stop-color="#186a98" stop-opacity="0"/></linearGradient><linearGradient id="ag" gradientUnits="userSpaceOnUse" x1="21.507" x2="5.77" y1="30.712" y2="12.87"><stop offset="0" stop-color="#38a2f1"/><stop offset=".401" stop-color="#268fd7"/></linearGradient><radialGradient id="ah" cx="0" cy="0" gradientTransform="matrix(-8.68287983 2.79847023 -2.99310553 -9.28677937 26.4105 27.0719)" gradientUnits="userSpaceOnUse" r="1"><stop offset="0" stop-color="#4ab7ff"/><stop offset="1" stop-color="#4ab7ff" stop-opacity="0"/></radialGradient><radialGradient id="ai" cx="0" cy="0" gradientTransform="matrix(0 -5.19204 2.98189 0 11.2004 30.4373)" gradientUnits="userSpaceOnUse" r="1"><stop offset="0" stop-color="#4496db"/><stop offset="1" stop-color="#4496db" stop-opacity="0"/></radialGradient><linearGradient id="aj" gradientUnits="userSpaceOnUse" x1="9.776" x2="10.507" y1="26.538" y2="21.712"><stop offset=".1" stop-color="#2a6bc6"/><stop offset="1" stop-color="#2a6bc6" stop-opacity="0"/></linearGradient><radialGradient id="ak" cx="0" cy="0" gradientTransform="matrix(0 8.8125 -5.4375 0 3.29051 12.8703)" gradientUnits="userSpaceOnUse" r="1"><stop offset="0" stop-color="#3394d1"/><stop offset="1" stop-color="#3394d1" stop-opacity="0"/></radialGradient><radialGradient id="al" cx="0" cy="0" gradientTransform="matrix(-10.10927211 -2.17166973 .88311363 -4.11095473 18.0136 20.2755)" gradientUnits="userSpaceOnUse" r="1"><stop offset=".287" stop-color="#09538b"/><stop offset="1" stop-color="#1473af" stop-opacity="0"/></radialGradient><radialGradient id="am" cx="0" cy="0" gradientTransform="matrix(-5.69115 0 0 -5.7286 12.0603 15.7825)" gradientUnits="userSpaceOnUse" r="1"><stop offset=".174" stop-color="#3473ab"/><stop offset="1" stop-color="#127cc2" stop-opacity="0"/></radialGradient><linearGradient id="an" gradientUnits="userSpaceOnUse" x1="14.045" x2="13.306" y1="24.563" y2="23.167"><stop offset=".35" stop-color="#2790d8"/><stop offset=".794" stop-color="#2877cd" stop-opacity="0"/></linearGradient><linearGradient id="ao" gradientUnits="userSpaceOnUse" x1="7.305" x2="7.305" y1="12.87" y2="13.91"><stop offset="0" stop-color="#408dc5"/><stop offset="1" stop-color="#408dc5" stop-opacity="0"/></linearGradient><radialGradient id="ap" cx="0" cy="0" gradientTransform="matrix(0 3.3731 -4.14332 0 19.3232 20.7739)" gradientUnits="userSpaceOnUse" r="1"><stop offset=".32" stop-color="#855169"/><stop offset="1" stop-color="#7b585c"/></radialGradient><radialGradient id="aq" cx="0" cy="0" gradientTransform="matrix(1.9043363 4.58793659 -4.92327658 2.04352744 18.3733 20.476)" gradientUnits="userSpaceOnUse" r="1"><stop offset=".527" stop-color="#907374" stop-opacity="0"/><stop offset=".914" stop-color="#907374"/></radialGradient><linearGradient id="ar" gradientUnits="userSpaceOnUse" x1="7.322" x2="13.072" y1="14.578" y2="22.859"><stop offset="0" stop-color="#56a6ff"/><stop offset="1" stop-color="#56a6ff" stop-opacity="0"/></linearGradient><radialGradient id="as" cx="0" cy="0" gradientTransform="matrix(2.08888 0 0 3.65556 11.674 14.1957)" gradientUnits="userSpaceOnUse" r="1"><stop offset=".351" stop-color="#865d5f"/><stop offset="1" stop-color="#76594a"/></radialGradient><radialGradient id="at" cx="0" cy="0" gradientTransform="matrix(-1.13057466 -1.61582811 1.61582811 -1.13057466 13.6612 16.1829)" gradientUnits="userSpaceOnUse" r="1"><stop offset=".34" stop-color="#834e63"/><stop offset="1" stop-color="#834e63" stop-opacity="0"/></radialGradient><linearGradient id="au" gradientUnits="userSpaceOnUse" x1="13.661" x2="12.899" y1="14.527" y2="14.527"><stop offset="0" stop-color="#694448"/><stop offset="1" stop-color="#6e464d"/></linearGradient><linearGradient id="av" gradientUnits="userSpaceOnUse" x1="26.278" x2="25.304" y1="12.896" y2="15.915"><stop offset="0" stop-color="#cca68c"/><stop offset="1" stop-color="#ae7f75"/></linearGradient><radialGradient id="aw" cx="0" cy="0" gradientTransform="matrix(.98405348 -.71654288 .81784155 1.1231705 25.4281 13.8804)" gradientUnits="userSpaceOnUse" r="1"><stop offset=".543" stop-color="#8f6459"/><stop offset="1" stop-color="#8f6459" stop-opacity="0"/></radialGradient><radialGradient id="ax" cx="0" cy="0" gradientTransform="matrix(.97757795 -1.79804167 1.05240184 .57218076 24.936 15.1732)" gradientUnits="userSpaceOnUse" r="1"><stop offset=".755" stop-color="#8a5d55" stop-opacity="0"/><stop offset=".916" stop-color="#8a5d55"/></radialGradient><radialGradient id="ay" cx="0" cy="0" gradientTransform="matrix(.30864068 .30550751 -.39384197 .39788105 24.9853 14.1956)" gradientUnits="userSpaceOnUse" r="1"><stop offset="0" stop-color="#895f52"/><stop offset="1" stop-color="#895f52" stop-opacity="0"/></radialGradient><linearGradient id="az" gradientUnits="userSpaceOnUse" x1="24.117" x2="15.027" y1="14.659" y2="16.014"><stop offset="0" stop-color="#c69980"/><stop offset="1" stop-color="#916762"/></linearGradient><radialGradient id="aA" cx="0" cy="0" gradientTransform="matrix(0 -1.55587 1.91491 0 22.1054 12.6822)" gradientUnits="userSpaceOnUse" r="1"><stop offset="0" stop-color="#ab7773"/><stop offset="1" stop-color="#ab7773" stop-opacity="0"/></radialGradient><radialGradient id="aB" cx="0" cy="0" gradientTransform="matrix(0 -1.63565 2.03408 0 16.6798 12.8418)" gradientUnits="userSpaceOnUse" r="1"><stop offset="0" stop-color="#8f5d65"/><stop offset="1" stop-color="#8f5d65" stop-opacity="0"/></radialGradient><linearGradient id="aC" gradientUnits="userSpaceOnUse" x1="12.89" x2="15.129" y1="17.868" y2="17.789"><stop offset="0" stop-color="#9b7569"/><stop offset="1" stop-color="#9b7569" stop-opacity="0"/></linearGradient><linearGradient id="aD" gradientUnits="userSpaceOnUse" x1="25.17" x2="23.846" y1="16.867" y2="16.751"><stop offset="0" stop-color="#c1987f"/><stop offset="1" stop-color="#c1987f" stop-opacity="0"/></linearGradient><radialGradient id="aE" cx="0" cy="0" gradientTransform="matrix(0 9.91366 -12.2874 0 19.1602 12.3702)" gradientUnits="userSpaceOnUse" r="1"><stop offset=".608" stop-color="#9b7168" stop-opacity="0"/><stop offset=".884" stop-color="#8f5d78"/><stop offset="1" stop-color="#7c5267"/></radialGradient><linearGradient id="aF" gradientUnits="userSpaceOnUse" x1="18.68" x2="28.374" y1="11.106" y2="7.636"><stop offset="0" stop-color="#c89f8b"/><stop offset="1" stop-color="#c89f8b" stop-opacity="0"/></linearGradient><radialGradient id="aG" cx="0" cy="0" gradientTransform="matrix(.94967163 -3.51937088 1.30509018 .35216724 24.4849 9.30785)" gradientUnits="userSpaceOnUse" r="1"><stop offset="0" stop-color="#554042"/><stop offset="1" stop-color="#554042" stop-opacity="0"/></radialGradient><radialGradient id="aH" cx="0" cy="0" gradientTransform="matrix(4.55284273 .41897332 -.22527944 2.44803623 22.5297 7.21298)" gradientUnits="userSpaceOnUse" r="1"><stop offset=".122" stop-color="#644949"/><stop offset="1" stop-color="#644949" stop-opacity="0"/></radialGradient><radialGradient id="aI" cx="0" cy="0" gradientTransform="matrix(0 1.99878 -3.09555 0 19.3127 3.95728)" gradientUnits="userSpaceOnUse" r="1"><stop offset="0" stop-color="#624c49"/><stop offset="1" stop-color="#624c49" stop-opacity="0"/></radialGradient><radialGradient id="aJ" cx="0" cy="0" gradientTransform="matrix(3.65902985 -2.68142921 4.20092113 5.73250107 11.6364 12.0731)" gradientUnits="userSpaceOnUse" r="1"><stop offset="0" stop-color="#4e3c3a"/><stop offset="1" stop-color="#4e3c3a" stop-opacity="0"/></radialGradient><linearGradient id="aK" gradientUnits="userSpaceOnUse" x1="18.284" x2="19.401" y1="15.444" y2="15.444"><stop offset="0" stop-color="#8b6455"/><stop offset="1" stop-color="#8b6455" stop-opacity="0"/></linearGradient><linearGradient id="aL" gradientUnits="userSpaceOnUse" x1="20.43" x2="19.209" y1="15.828" y2="15.81"><stop offset="0" stop-color="#cda186"/><stop offset="1" stop-color="#cda186" stop-opacity="0"/></linearGradient><linearGradient id="aM" gradientUnits="userSpaceOnUse" x1="19.544" x2="19.544" y1="16.712" y2="16.029"><stop offset="0" stop-color="#9c6073"/><stop offset="1" stop-color="#9c6073" stop-opacity="0"/></linearGradient><radialGradient id="aN" cx="0" cy="0" gradientTransform="matrix(0 .234377 -.752999 0 19.7023 16.1081)" gradientUnits="userSpaceOnUse" r="1"><stop offset="0" stop-color="#c39787"/><stop offset="1" stop-color="#c39787" stop-opacity="0"/></radialGradient><linearGradient id="aO" gradientUnits="userSpaceOnUse" x1="19.462" x2="19.462" y1="16.761" y2="16.562"><stop offset="0" stop-color="#8e5263"/><stop offset="1" stop-color="#8e5263" stop-opacity="0"/></linearGradient><linearGradient id="aP" gradientUnits="userSpaceOnUse" x1="18.078" x2="18.596" y1="18.634" y2="17.816"><stop offset="0" stop-color="#a87d7b"/><stop offset=".663" stop-color="#a87d7b" stop-opacity="0"/></linearGradient><linearGradient id="aQ"><stop offset="0" stop-color="#422235"/><stop offset="1" stop-color="#422235" stop-opacity="0"/></linearGradient><radialGradient id="aR" cx="0" cy="0" gradientTransform="matrix(.12402572 -.71809212 2.12441645 .36691989 22.2207 11.7147)" gradientUnits="userSpaceOnUse" r="1" xlink:href="#aQ"/><radialGradient id="aS" cx="0" cy="0" gradientTransform="matrix(.12403341 -.7180918 2.12453086 .36696256 16.093 11.7147)" gradientUnits="userSpaceOnUse" r="1" xlink:href="#aQ"/><linearGradient id="aT"><stop offset=".802" stop-color="#7d574a"/><stop offset="1" stop-color="#694b43"/><stop offset="1" stop-color="#804d49"/><stop offset="1" stop-color="#664944"/></linearGradient><radialGradient id="aU" cx="0" cy="0" gradientTransform="matrix(0 .965521 -1.53577 0 21.9064 13.3839)" gradientUnits="userSpaceOnUse" r="1" xlink:href="#aT"/><linearGradient id="aV"><stop offset=".766" stop-color="#ffe6e2" stop-opacity="0"/><stop offset=".966" stop-color="#ffe6e2"/></linearGradient><radialGradient id="aW" cx="0" cy="0" gradientTransform="matrix(-.27599667 -.35565893 .48965692 -.37998113 21.6348 13.484)" gradientUnits="userSpaceOnUse" r="1" xlink:href="#aV"/><linearGradient id="aX"><stop offset="0" stop-color="#b4948d"/><stop offset="1" stop-color="#b4948d" stop-opacity="0"/></linearGradient><linearGradient id="aY" gradientUnits="userSpaceOnUse" x1="22.832" x2="22.459" xlink:href="#aX" y1="13.448" y2="13.678"/><radialGradient id="aZ" cx="0" cy="0" gradientTransform="matrix(0 .96557 -1.53585 0 16.7129 13.3838)" gradientUnits="userSpaceOnUse" r="1" xlink:href="#aT"/><linearGradient id="a0" gradientUnits="userSpaceOnUse" x1="17.598" x2="17.225" xlink:href="#aX" y1="13.448" y2="13.678"/><radialGradient id="a1" cx="0" cy="0" gradientTransform="matrix(-.00920609 -.58798994 .70678837 -.0110661 16.3721 13.6447)" gradientUnits="userSpaceOnUse" r="1" xlink:href="#aV"/><linearGradient id="a2"><stop offset="0" stop-color="#5b4545"/><stop offset="1" stop-color="#5b4545" stop-opacity="0"/></linearGradient><linearGradient id="a3" gradientUnits="userSpaceOnUse" x1="22.851" x2="22.351" xlink:href="#a2" y1="10.901" y2="9.879"/><linearGradient id="a4" gradientUnits="userSpaceOnUse" x1="16.537" x2="15.121" xlink:href="#a2" y1="10.749" y2="10.155"/><linearGradient id="a5" gradientUnits="userSpaceOnUse" x1="13.764" x2="13.764" y1="8.351" y2="10.919"><stop offset=".228" stop-color="#4a3236"/><stop offset="1" stop-color="#4a3236" stop-opacity="0"/></linearGradient><path d="m3.60607 8.90328c-.125-1.92187-.28125-2.95833-.32812-3.64062-.03519-.51225.02344-1.0664.71094-1.1914.59765-.07422.8828.45182.90624.66015-.0026-.20052 0-.67953 0-.80469 0-.21093.00781-.97656.85938-.97656.60134 0 .81641.58724.80078.86328.01042-.10156.02266-.41328.03516-.70703.01844-.43331.25156-.98907.94531-.97656.59766.03906.79297.61328.76562.97656l-.11719 1.86719c.02344-.1875.10235-.66485.27735-1.33985s.70158-.71978.95703-.68359c.32598.04618.87973.36093.64843 1.27343-.27499 1.15625-.46223 2.64454-.52733 3.28516.32422-.13281.64233-.41259 1.00173-.78759.3593-.375.8867-.38281 1.1835-.16016.3399.29297.5218.96728.1195 1.36963-.4625.425-2.12896 2.40497-2.95708 3.39457-.22917.2916-.99688.875-2.23438.875-2.20312-.0938-2.94146-1.6762-3.04687-3.29692z" fill="url(#D)"/><path d="m3.60607 8.90328c-.125-1.92187-.28125-2.95833-.32812-3.64062-.03519-.51225.02344-1.0664.71094-1.1914.59765-.07422.8828.45182.90624.66015-.0026-.20052 0-.67953 0-.80469 0-.21093.00781-.97656.85938-.97656.60134 0 .81641.58724.80078.86328.01042-.10156.02266-.41328.03516-.70703.01844-.43331.25156-.98907.94531-.97656.59766.03906.79297.61328.76562.97656l-.11719 1.86719c.02344-.1875.10235-.66485.27735-1.33985s.70158-.71978.95703-.68359c.32598.04618.87973.36093.64843 1.27343-.27499 1.15625-.46223 2.64454-.52733 3.28516.32422-.13281.64233-.41259 1.00173-.78759.3593-.375.8867-.38281 1.1835-.16016.3399.29297.5218.96728.1195 1.36963-.4625.425-2.12896 2.40497-2.95708 3.39457-.22917.2916-.99688.875-2.23438.875-2.20312-.0938-2.94146-1.6762-3.04687-3.29692z" fill="url(#E)"/><path d="m3.60607 8.90328c-.125-1.92187-.28125-2.95833-.32812-3.64062-.03519-.51225.02344-1.0664.71094-1.1914.59765-.07422.8828.45182.90624.66015-.0026-.20052 0-.67953 0-.80469 0-.21093.00781-.97656.85938-.97656.60134 0 .81641.58724.80078.86328.01042-.10156.02266-.41328.03516-.70703.01844-.43331.25156-.98907.94531-.97656.59766.03906.79297.61328.76562.97656l-.11719 1.86719c.02344-.1875.10235-.66485.27735-1.33985s.70158-.71978.95703-.68359c.32598.04618.87973.36093.64843 1.27343-.27499 1.15625-.46223 2.64454-.52733 3.28516.32422-.13281.64233-.41259 1.00173-.78759.3593-.375.8867-.38281 1.1835-.16016.3399.29297.5218.96728.1195 1.36963-.4625.425-2.12896 2.40497-2.95708 3.39457-.22917.2916-.99688.875-2.23438.875-2.20312-.0938-2.94146-1.6762-3.04687-3.29692z" fill="url(#F)"/><path d="m3.60607 8.90328c-.125-1.92187-.28125-2.95833-.32812-3.64062-.03519-.51225.02344-1.0664.71094-1.1914.59765-.07422.8828.45182.90624.66015-.0026-.20052 0-.67953 0-.80469 0-.21093.00781-.97656.85938-.97656.60134 0 .81641.58724.80078.86328.01042-.10156.02266-.41328.03516-.70703.01844-.43331.25156-.98907.94531-.97656.59766.03906.79297.61328.76562.97656l-.11719 1.86719c.02344-.1875.10235-.66485.27735-1.33985s.70158-.71978.95703-.68359c.32598.04618.87973.36093.64843 1.27343-.27499 1.15625-.46223 2.64454-.52733 3.28516.32422-.13281.64233-.41259 1.00173-.78759.3593-.375.8867-.38281 1.1835-.16016.3399.29297.5218.96728.1195 1.36963-.4625.425-2.12896 2.40497-2.95708 3.39457-.22917.2916-.99688.875-2.23438.875-2.20312-.0938-2.94146-1.6762-3.04687-3.29692z" fill="url(#H)"/><path d="m3.60607 8.90328c-.125-1.92187-.28125-2.95833-.32812-3.64062-.03519-.51225.02344-1.0664.71094-1.1914.59765-.07422.8828.45182.90624.66015-.0026-.20052 0-.67953 0-.80469 0-.21093.00781-.97656.85938-.97656.60134 0 .81641.58724.80078.86328.01042-.10156.02266-.41328.03516-.70703.01844-.43331.25156-.98907.94531-.97656.59766.03906.79297.61328.76562.97656l-.11719 1.86719c.02344-.1875.10235-.66485.27735-1.33985s.70158-.71978.95703-.68359c.32598.04618.87973.36093.64843 1.27343-.27499 1.15625-.46223 2.64454-.52733 3.28516.32422-.13281.64233-.41259 1.00173-.78759.3593-.375.8867-.38281 1.1835-.16016.3399.29297.5218.96728.1195 1.36963-.4625.425-2.12896 2.40497-2.95708 3.39457-.22917.2916-.99688.875-2.23438.875-2.20312-.0938-2.94146-1.6762-3.04687-3.29692z" fill="url(#I)"/><path d="m3.60607 8.90328c-.125-1.92187-.28125-2.95833-.32812-3.64062-.03519-.51225.02344-1.0664.71094-1.1914.59765-.07422.8828.45182.90624.66015-.0026-.20052 0-.67953 0-.80469 0-.21093.00781-.97656.85938-.97656.60134 0 .81641.58724.80078.86328.01042-.10156.02266-.41328.03516-.70703.01844-.43331.25156-.98907.94531-.97656.59766.03906.79297.61328.76562.97656l-.11719 1.86719c.02344-.1875.10235-.66485.27735-1.33985s.70158-.71978.95703-.68359c.32598.04618.87973.36093.64843 1.27343-.27499 1.15625-.46223 2.64454-.52733 3.28516.32422-.13281.64233-.41259 1.00173-.78759.3593-.375.8867-.38281 1.1835-.16016.3399.29297.5218.96728.1195 1.36963-.4625.425-2.12896 2.40497-2.95708 3.39457-.22917.2916-.99688.875-2.23438.875-2.20312-.0938-2.94146-1.6762-3.04687-3.29692z" fill="url(#J)"/><path d="m3.60607 8.90328c-.125-1.92187-.28125-2.95833-.32812-3.64062-.03519-.51225.02344-1.0664.71094-1.1914.59765-.07422.8828.45182.90624.66015-.0026-.20052 0-.67953 0-.80469 0-.21093.00781-.97656.85938-.97656.60134 0 .81641.58724.80078.86328.01042-.10156.02266-.41328.03516-.70703.01844-.43331.25156-.98907.94531-.97656.59766.03906.79297.61328.76562.97656l-.11719 1.86719c.02344-.1875.10235-.66485.27735-1.33985s.70158-.71978.95703-.68359c.32598.04618.87973.36093.64843 1.27343-.27499 1.15625-.46223 2.64454-.52733 3.28516.32422-.13281.64233-.41259 1.00173-.78759.3593-.375.8867-.38281 1.1835-.16016.3399.29297.5218.96728.1195 1.36963-.4625.425-2.12896 2.40497-2.95708 3.39457-.22917.2916-.99688.875-2.23438.875-2.20312-.0938-2.94146-1.6762-3.04687-3.29692z" fill="url(#L)"/><path d="m3.60607 8.90328c-.125-1.92187-.28125-2.95833-.32812-3.64062-.03519-.51225.02344-1.0664.71094-1.1914.59765-.07422.8828.45182.90624.66015-.0026-.20052 0-.67953 0-.80469 0-.21093.00781-.97656.85938-.97656.60134 0 .81641.58724.80078.86328.01042-.10156.02266-.41328.03516-.70703.01844-.43331.25156-.98907.94531-.97656.59766.03906.79297.61328.76562.97656l-.11719 1.86719c.02344-.1875.10235-.66485.27735-1.33985s.70158-.71978.95703-.68359c.32598.04618.87973.36093.64843 1.27343-.27499 1.15625-.46223 2.64454-.52733 3.28516.32422-.13281.64233-.41259 1.00173-.78759.3593-.375.8867-.38281 1.1835-.16016.3399.29297.5218.96728.1195 1.36963-.4625.425-2.12896 2.40497-2.95708 3.39457-.22917.2916-.99688.875-2.23438.875-2.20312-.0938-2.94146-1.6762-3.04687-3.29692z" fill="url(#M)"/><path d="m3.60607 8.90328c-.125-1.92187-.28125-2.95833-.32812-3.64062-.03519-.51225.02344-1.0664.71094-1.1914.59765-.07422.8828.45182.90624.66015-.0026-.20052 0-.67953 0-.80469 0-.21093.00781-.97656.85938-.97656.60134 0 .81641.58724.80078.86328.01042-.10156.02266-.41328.03516-.70703.01844-.43331.25156-.98907.94531-.97656.59766.03906.79297.61328.76562.97656l-.11719 1.86719c.02344-.1875.10235-.66485.27735-1.33985s.70158-.71978.95703-.68359c.32598.04618.87973.36093.64843 1.27343-.27499 1.15625-.46223 2.64454-.52733 3.28516.32422-.13281.64233-.41259 1.00173-.78759.3593-.375.8867-.38281 1.1835-.16016.3399.29297.5218.96728.1195 1.36963-.4625.425-2.12896 2.40497-2.95708 3.39457-.22917.2916-.99688.875-2.23438.875-2.20312-.0938-2.94146-1.6762-3.04687-3.29692z" fill="url(#N)"/><path d="m3.60607 8.90328c-.125-1.92187-.28125-2.95833-.32812-3.64062-.03519-.51225.02344-1.0664.71094-1.1914.59765-.07422.8828.45182.90624.66015-.0026-.20052 0-.67953 0-.80469 0-.21093.00781-.97656.85938-.97656.60134 0 .81641.58724.80078.86328.01042-.10156.02266-.41328.03516-.70703.01844-.43331.25156-.98907.94531-.97656.59766.03906.79297.61328.76562.97656l-.11719 1.86719c.02344-.1875.10235-.66485.27735-1.33985s.70158-.71978.95703-.68359c.32598.04618.87973.36093.64843 1.27343-.27499 1.15625-.46223 2.64454-.52733 3.28516.32422-.13281.64233-.41259 1.00173-.78759.3593-.375.8867-.38281 1.1835-.16016.3399.29297.5218.96728.1195 1.36963-.4625.425-2.12896 2.40497-2.95708 3.39457-.22917.2916-.99688.875-2.23438.875-2.20312-.0938-2.94146-1.6762-3.04687-3.29692z" fill="url(#O)"/><path d="m3.60607 8.90328c-.125-1.92187-.28125-2.95833-.32812-3.64062-.03519-.51225.02344-1.0664.71094-1.1914.59765-.07422.8828.45182.90624.66015-.0026-.20052 0-.67953 0-.80469 0-.21093.00781-.97656.85938-.97656.60134 0 .81641.58724.80078.86328.01042-.10156.02266-.41328.03516-.70703.01844-.43331.25156-.98907.94531-.97656.59766.03906.79297.61328.76562.97656l-.11719 1.86719c.02344-.1875.10235-.66485.27735-1.33985s.70158-.71978.95703-.68359c.32598.04618.87973.36093.64843 1.27343-.27499 1.15625-.46223 2.64454-.52733 3.28516.32422-.13281.64233-.41259 1.00173-.78759.3593-.375.8867-.38281 1.1835-.16016.3399.29297.5218.96728.1195 1.36963-.4625.425-2.12896 2.40497-2.95708 3.39457-.22917.2916-.99688.875-2.23438.875-2.20312-.0938-2.94146-1.6762-3.04687-3.29692z" fill="url(#P)"/><g filter="url(#a)"><path d="m4.90271 4.89038.14844 1.94531" stroke="url(#R)" stroke-linecap="round" stroke-width=".075"/></g><g filter="url(#b)"><path d="m6.52771 4.46069-.07031 2.29688" stroke="url(#S)" stroke-linecap="round" stroke-width=".075"/></g><g filter="url(#c)"><path d="m8.16833 5.06226-.23437 1.40625" stroke="url(#T)" stroke-linecap="round" stroke-width=".075"/></g><g filter="url(#d)"><path d="m4.22888 4.52979.35938 2.63281" stroke="url(#V)" stroke-width=".4"/></g><g filter="url(#e)"><path d="m5.91638 3.57397v3.0886" stroke="url(#W)" stroke-width=".4"/></g><g filter="url(#f)"><path d="m7.75232 2.6626-.28906 3.94398" stroke="url(#X)" stroke-width=".4"/></g><g filter="url(#g)"><path d="m9.67419 3.70947-.8125 3.40625" stroke="url(#Y)" stroke-width=".4"/></g><g filter="url(#h)"><path d="m4.22107 7.67822c.10937-.0625.61719-.3789.8125-.75781" stroke="url(#aa)" stroke-linecap="round" stroke-width=".2"/></g><g filter="url(#i)"><path d="m6.38808 6.71256c-.13051.16468-.33261.2998-.5183.39931" stroke="url(#ab)" stroke-linecap="round" stroke-width=".2"/></g><g filter="url(#j)"><path d="m7.84722 6.5211c-.13052.16468-.50118.36024-.71212.42274" stroke="url(#ac)" stroke-linecap="round" stroke-width=".2"/></g><path d="m4.67334 12.0469c0-.1105.08954-.2.2-.2h3.81094c.11045 0 .2.0895.2.2v1.714h-4.21094z" fill="url(#ad)"/><path d="m4.67334 12.0469c0-.1105.08954-.2.2-.2h3.81094c.11045 0 .2.0895.2.2v1.714h-4.21094z" fill="url(#ae)"/><path d="m4.67334 12.0469c0-.1105.08954-.2.2-.2h3.81094c.11045 0 .2.0895.2.2v1.714h-4.21094z" fill="url(#af)"/><path d="m20.2883 20.8703h.9695c2.4907 0 7.472 3.5 7.472 9h-17.9328v-3.5c0-.2767-.1694-.5328-.4142-.6251l-3.07274-1.3749c-2.49067-1-3.48694-3.5-3.48694-5.198v-5.2875c0-.5636.42358-1.0145.93188-1.0145h4.11385c.51771 0 .93188.4611.93188 1.0145v3.9855c0 1.302.99627 1.5.99627 1.5l5.9776 1.5z" fill="url(#ag)"/><path d="m20.2883 20.8703h.9695c2.4907 0 7.472 3.5 7.472 9h-17.9328v-3.5c0-.2767-.1694-.5328-.4142-.6251l-3.07274-1.3749c-2.49067-1-3.48694-3.5-3.48694-5.198v-5.2875c0-.5636.42358-1.0145.93188-1.0145h4.11385c.51771 0 .93188.4611.93188 1.0145v3.9855c0 1.302.99627 1.5.99627 1.5l5.9776 1.5z" fill="url(#ah)"/><path d="m20.2883 20.8703h.9695c2.4907 0 7.472 3.5 7.472 9h-17.9328v-3.5c0-.2767-.1694-.5328-.4142-.6251l-3.07274-1.3749c-2.49067-1-3.48694-3.5-3.48694-5.198v-5.2875c0-.5636.42358-1.0145.93188-1.0145h4.11385c.51771 0 .93188.4611.93188 1.0145v3.9855c0 1.302.99627 1.5.99627 1.5l5.9776 1.5z" fill="url(#ai)"/><path d="m18.6811 20.9797-7.8737 5.2453c-.0474-.2175-.1982-.404-.4-.4798l-3.08428-1.3749c-2.5-1-3.5-3.5-3.5-5.198v-5.2875c0-.5636.42517-1.0145.93537-1.0145h4.12926c.51965 0 .93537.4611.93537 1.0145v3.9855c0 1.302.99998 1.5.99998 1.5l6 1.5z" fill="url(#aj)"/><path d="m18.6811 20.9797-7.8737 5.2453c-.0474-.2175-.1982-.404-.4-.4798l-3.08428-1.3749c-2.5-1-3.5-3.5-3.5-5.198v-5.2875c0-.5636.42517-1.0145.93537-1.0145h4.12926c.51965 0 .93537.4611.93537 1.0145v3.9855c0 1.302.99998 1.5.99998 1.5l6 1.5z" fill="url(#ak)"/><path d="m18.6811 20.9797-7.8737 5.2453c-.0474-.2175-.1982-.404-.4-.4798l-3.08428-1.3749c-2.5-1-3.5-3.5-3.5-5.198v-5.2875c0-.5636.42517-1.0145.93537-1.0145h4.12926c.51965 0 .93537.4611.93537 1.0145v3.9855c0 1.302.99998 1.5.99998 1.5l6 1.5z" fill="url(#al)"/><path d="m18.6811 20.9797-7.8737 5.2453c-.0474-.2175-.1982-.404-.4-.4798l-3.08428-1.3749c-2.5-1-3.5-3.5-3.5-5.198v-5.2875c0-.5636.42517-1.0145.93537-1.0145h4.12926c.51965 0 .93537.4611.93537 1.0145v3.9855c0 1.302.99998 1.5.99998 1.5l6 1.5z" fill="url(#am)"/><path d="m18.6811 20.9797-7.8737 5.2453c-.0474-.2175-.1982-.404-.4-.4798l-3.08428-1.3749c-2.5-1-3.5-3.5-3.5-5.198v-5.2875c0-.5636.42517-1.0145.93537-1.0145h4.12926c.51965 0 .93537.4611.93537 1.0145v3.9855c0 1.302.99998 1.5.99998 1.5l6 1.5z" fill="url(#an)"/><path d="m18.6811 20.9797-7.8737 5.2453c-.0474-.2175-.1982-.404-.4-.4798l-3.08428-1.3749c-2.5-1-3.5-3.5-3.5-5.198v-5.2875c0-.5636.42517-1.0145.93537-1.0145h4.12926c.51965 0 .93537.4611.93537 1.0145v3.9855c0 1.302.99998 1.5.99998 1.5l6 1.5z" fill="url(#ao)"/><path d="m19.3232 23.976c-1.2678 0-2.2962-.9854-2.2962-2.2002v-2.5995c0-1.2149 1.0284-2.2003 2.2962-2.2003s2.2962.9854 2.2962 2.2003v2.5995c0 1.2148-1.0284 2.2002-2.2962 2.2002z" fill="url(#ap)"/><path d="m19.3232 23.976c-1.2678 0-2.2962-.9854-2.2962-2.2002v-2.5995c0-1.2149 1.0284-2.2003 2.2962-2.2003s2.2962.9854 2.2962 2.2003v2.5995c0 1.2148-1.0284 2.2002-2.2962 2.2002z" fill="url(#aq)"/><g filter="url(#k)"><path d="m7.66553 13.7981-.00019 5.1715c-.00004.8659.55711 1.6334 1.38038 1.9017l4.18208 1.3627" stroke="url(#ar)"/></g><g filter="url(#l)"><circle cx="13.661" cy="14.196" fill="url(#as)" r="1.987"/></g><circle cx="13.661" cy="14.196" fill="url(#at)" r="1.987"/><g filter="url(#m)"><circle cx="13.661" cy="14.196" fill="url(#au)" r="1.184"/></g><g filter="url(#n)"><circle cx="24.985" cy="14.196" fill="url(#av)" r="1.987"/><circle cx="24.985" cy="14.196" fill="url(#aw)" r="1.987"/></g><g filter="url(#o)"><circle cx="24.985" cy="14.196" fill="#a57c70" r="1.184"/><circle cx="24.985" cy="14.196" fill="url(#ax)" r="1.184"/><circle cx="24.985" cy="14.196" fill="url(#ay)" r="1.184"/></g><g filter="url(#p)"><path d="m13.2423 13.4663c.0193.0013.0387.002.0584.002 0 0-.0639-1.0158-.1277-1.7141 0-.3174.1277-.6983.3831-.8888l.1915-.1905c.3193-.2539.447-.6348.447-1.01572v-1.01577c0-.31743.1915-.57137.5108-.63485.7661-.19046 2.3624-.50789 4.6609-.50789 2.2986 0 3.8948.31743 4.661.50789.2554.06348.5108.31742.5108.63485v1.01577c0 .38092.1916.76182.447 1.01572.5976.4188.5604.6492.5108 1.1428-.0639.6348-.1277 1.7141-.1277 1.7141.0072 0 .0144-.0001.0215-.0003l-.3164 4.7119c-.1911 2.1064-1.8471 3.5745-3.8215 3.5745h-3.8214c-2.0381 0-3.6304-1.4681-3.8215-3.5745z" fill="url(#az)"/><path d="m13.2423 13.4663c.0193.0013.0387.002.0584.002 0 0-.0639-1.0158-.1277-1.7141 0-.3174.1277-.6983.3831-.8888l.1915-.1905c.3193-.2539.447-.6348.447-1.01572v-1.01577c0-.31743.1915-.57137.5108-.63485.7661-.19046 2.3624-.50789 4.6609-.50789 2.2986 0 3.8948.31743 4.661.50789.2554.06348.5108.31742.5108.63485v1.01577c0 .38092.1916.76182.447 1.01572.5976.4188.5604.6492.5108 1.1428-.0639.6348-.1277 1.7141-.1277 1.7141.0072 0 .0144-.0001.0215-.0003l-.3164 4.7119c-.1911 2.1064-1.8471 3.5745-3.8215 3.5745h-3.8214c-2.0381 0-3.6304-1.4681-3.8215-3.5745z" fill="url(#aA)"/><path d="m13.2423 13.4663c.0193.0013.0387.002.0584.002 0 0-.0639-1.0158-.1277-1.7141 0-.3174.1277-.6983.3831-.8888l.1915-.1905c.3193-.2539.447-.6348.447-1.01572v-1.01577c0-.31743.1915-.57137.5108-.63485.7661-.19046 2.3624-.50789 4.6609-.50789 2.2986 0 3.8948.31743 4.661.50789.2554.06348.5108.31742.5108.63485v1.01577c0 .38092.1916.76182.447 1.01572.5976.4188.5604.6492.5108 1.1428-.0639.6348-.1277 1.7141-.1277 1.7141.0072 0 .0144-.0001.0215-.0003l-.3164 4.7119c-.1911 2.1064-1.8471 3.5745-3.8215 3.5745h-3.8214c-2.0381 0-3.6304-1.4681-3.8215-3.5745z" fill="url(#aB)"/></g><path d="m13.173 11.7542c0-.3174.1277-.6983.3831-.8888l.1915-.1905c.3193-.2539.447-.6348.447-1.01572v-1.01577c0-.31743.1915-.57137.5108-.63485.7661-.19046 2.3624-.50789 4.6609-.50789 2.2986 0 3.8948.31743 4.661.50789.2554.06348.5108.31742.5108.63485v1.01577c0 .38092.1916.76182.447 1.01572.5976.4188.5604.6492.5108 1.1428-.0639.6348-.1277 1.7141-.1277 1.7141.0072 0 .0144-.0001.0215-.0003l-.3164 4.7119c-.1911 2.1064-1.8471 3.5745-3.8215 3.5745h-3.8214c-2.0381 0-3.6304-1.4681-3.8215-3.5745-.1659-2.1622-.2386-4.3307-.4359-6.4892z" fill="url(#aC)"/><path d="m13.173 11.7542c0-.3174.1277-.6983.3831-.8888l.1915-.1905c.3193-.2539.447-.6348.447-1.01572v-1.01577c0-.31743.1915-.57137.5108-.63485.7661-.19046 2.3624-.50789 4.6609-.50789 2.2986 0 3.8948.31743 4.661.50789.2554.06348.5108.31742.5108.63485v1.01577c0 .38092.1916.76182.447 1.01572.5976.4188.5604.6492.5108 1.1428-.0639.6348-.1277 1.7141-.1277 1.7141.0072 0 .0144-.0001.0215-.0003l-.3164 4.7119c-.1911 2.1064-1.8471 3.5745-3.8215 3.5745h-3.8214c-2.0381 0-3.6304-1.4681-3.8215-3.5745-.1659-2.1622-.2386-4.3307-.4359-6.4892z" fill="url(#aD)"/><path d="m13.173 11.7542c0-.3174.1277-.6983.3831-.8888l.1915-.1905c.3193-.2539.447-.6348.447-1.01572v-1.01577c0-.31743.1915-.57137.5108-.63485.7661-.19046 2.3624-.50789 4.6609-.50789 2.2986 0 3.8948.31743 4.661.50789.2554.06348.5108.31742.5108.63485v1.01577c0 .38092.1916.76182.447 1.01572.5976.4188.5604.6492.5108 1.1428-.0639.6348-.1277 1.7141-.1277 1.7141.0072 0 .0144-.0001.0215-.0003l-.3164 4.7119c-.1911 2.1064-1.8471 3.5745-3.8215 3.5745h-3.8214c-2.0381 0-3.6304-1.4681-3.8215-3.5745-.1659-2.1622-.2386-4.3307-.4359-6.4892z" fill="url(#aE)"/><g filter="url(#q)"><path d="m24.0307 7.50067-3.6632 1.22131c-.6237.20794-.9786.86453-.811 1.50022.1602.6078.7478 1.0011 1.3707.9177l3.6421-.4876z" fill="url(#aF)"/></g><g filter="url(#r)"><path d="m25.0488 6.48495.5108.25394c.8939.4444 1.4047 1.46017 1.2131 2.53942l-.7023 3.61869c-.0626.3737-.3097.6252-.6808.6346-.0071.0001-.0143.0002-.0215.0002 0 0 .0638-1.0793.1277-1.7141.0518-.5155-.0382-.6728-.5108-1.1427-.2554-.254-.447-.6349-.447-1.01581v-1.01577c0-.31743-.2554-.57137-.5108-.63485-.7662-.19046-2.3624-.50789-4.661-.50789-2.2985 0-3.8948.31743-4.6609.50789-.3193.06348-.5108.31742-.5108.63485v1.01577c0 .38091-.1277.76181-.447 1.01581l-.1915.1904c-.2554.1905-.3831.5714-.3831.8888.0638.6983.1277 1.7141.1277 1.7141-.0197 0-.0391-.0006-.0584-.002-.3568-.0244-.6472-.2714-.7078-.6328l-.7024-3.61868c-.1277-1.01576.3831-2.03153 1.277-2.47593l.5108-.25394c.3193-.19046.6385-.4444.9577-.69834l1.1493-1.20623c.7024-.63485 1.724-.82531 2.6179-.38091.6384.19046 1.3408.19046 1.9793 0 .9577-.31743 2.0431-.06348 2.8093.63486l.9578.95228c.2554.31743.5746.50788.9577.69834z" fill="#4f3332"/><path d="m25.0488 6.48495.5108.25394c.8939.4444 1.4047 1.46017 1.2131 2.53942l-.7023 3.61869c-.0626.3737-.3097.6252-.6808.6346-.0071.0001-.0143.0002-.0215.0002 0 0 .0638-1.0793.1277-1.7141.0518-.5155-.0382-.6728-.5108-1.1427-.2554-.254-.447-.6349-.447-1.01581v-1.01577c0-.31743-.2554-.57137-.5108-.63485-.7662-.19046-2.3624-.50789-4.661-.50789-2.2985 0-3.8948.31743-4.6609.50789-.3193.06348-.5108.31742-.5108.63485v1.01577c0 .38091-.1277.76181-.447 1.01581l-.1915.1904c-.2554.1905-.3831.5714-.3831.8888.0638.6983.1277 1.7141.1277 1.7141-.0197 0-.0391-.0006-.0584-.002-.3568-.0244-.6472-.2714-.7078-.6328l-.7024-3.61868c-.1277-1.01576.3831-2.03153 1.277-2.47593l.5108-.25394c.3193-.19046.6385-.4444.9577-.69834l1.1493-1.20623c.7024-.63485 1.724-.82531 2.6179-.38091.6384.19046 1.3408.19046 1.9793 0 .9577-.31743 2.0431-.06348 2.8093.63486l.9578.95228c.2554.31743.5746.50788.9577.69834z" fill="url(#aG)"/><path d="m25.0488 6.48495.5108.25394c.8939.4444 1.4047 1.46017 1.2131 2.53942l-.7023 3.61869c-.0626.3737-.3097.6252-.6808.6346-.0071.0001-.0143.0002-.0215.0002 0 0 .0638-1.0793.1277-1.7141.0518-.5155-.0382-.6728-.5108-1.1427-.2554-.254-.447-.6349-.447-1.01581v-1.01577c0-.31743-.2554-.57137-.5108-.63485-.7662-.19046-2.3624-.50789-4.661-.50789-2.2985 0-3.8948.31743-4.6609.50789-.3193.06348-.5108.31742-.5108.63485v1.01577c0 .38091-.1277.76181-.447 1.01581l-.1915.1904c-.2554.1905-.3831.5714-.3831.8888.0638.6983.1277 1.7141.1277 1.7141-.0197 0-.0391-.0006-.0584-.002-.3568-.0244-.6472-.2714-.7078-.6328l-.7024-3.61868c-.1277-1.01576.3831-2.03153 1.277-2.47593l.5108-.25394c.3193-.19046.6385-.4444.9577-.69834l1.1493-1.20623c.7024-.63485 1.724-.82531 2.6179-.38091.6384.19046 1.3408.19046 1.9793 0 .9577-.31743 2.0431-.06348 2.8093.63486l.9578.95228c.2554.31743.5746.50788.9577.69834z" fill="url(#aH)"/><path d="m25.0488 6.48495.5108.25394c.8939.4444 1.4047 1.46017 1.2131 2.53942l-.7023 3.61869c-.0626.3737-.3097.6252-.6808.6346-.0071.0001-.0143.0002-.0215.0002 0 0 .0638-1.0793.1277-1.7141.0518-.5155-.0382-.6728-.5108-1.1427-.2554-.254-.447-.6349-.447-1.01581v-1.01577c0-.31743-.2554-.57137-.5108-.63485-.7662-.19046-2.3624-.50789-4.661-.50789-2.2985 0-3.8948.31743-4.6609.50789-.3193.06348-.5108.31742-.5108.63485v1.01577c0 .38091-.1277.76181-.447 1.01581l-.1915.1904c-.2554.1905-.3831.5714-.3831.8888.0638.6983.1277 1.7141.1277 1.7141-.0197 0-.0391-.0006-.0584-.002-.3568-.0244-.6472-.2714-.7078-.6328l-.7024-3.61868c-.1277-1.01576.3831-2.03153 1.277-2.47593l.5108-.25394c.3193-.19046.6385-.4444.9577-.69834l1.1493-1.20623c.7024-.63485 1.724-.82531 2.6179-.38091.6384.19046 1.3408.19046 1.9793 0 .9577-.31743 2.0431-.06348 2.8093.63486l.9578.95228c.2554.31743.5746.50788.9577.69834z" fill="url(#aI)"/><path d="m25.0488 6.48495.5108.25394c.8939.4444 1.4047 1.46017 1.2131 2.53942l-.7023 3.61869c-.0626.3737-.3097.6252-.6808.6346-.0071.0001-.0143.0002-.0215.0002 0 0 .0638-1.0793.1277-1.7141.0518-.5155-.0382-.6728-.5108-1.1427-.2554-.254-.447-.6349-.447-1.01581v-1.01577c0-.31743-.2554-.57137-.5108-.63485-.7662-.19046-2.3624-.50789-4.661-.50789-2.2985 0-3.8948.31743-4.6609.50789-.3193.06348-.5108.31742-.5108.63485v1.01577c0 .38091-.1277.76181-.447 1.01581l-.1915.1904c-.2554.1905-.3831.5714-.3831.8888.0638.6983.1277 1.7141.1277 1.7141-.0197 0-.0391-.0006-.0584-.002-.3568-.0244-.6472-.2714-.7078-.6328l-.7024-3.61868c-.1277-1.01576.3831-2.03153 1.277-2.47593l.5108-.25394c.3193-.19046.6385-.4444.9577-.69834l1.1493-1.20623c.7024-.63485 1.724-.82531 2.6179-.38091.6384.19046 1.3408.19046 1.9793 0 .9577-.31743 2.0431-.06348 2.8093.63486l.9578.95228c.2554.31743.5746.50788.9577.69834z" fill="url(#aJ)"/></g><g filter="url(#s)"><path d="m18.985 14.0502-.9765 2.0231c-.121.4162.1695.8323.581.8323h.8776c.4115 0 .702-.4225.581-.8323l-.5931-2.0231c-.1271-.4481-.3368-.4481-.47 0z" fill="#87565c"/></g><g filter="url(#t)"><path d="m18.8578 13.8561-.6325 2.0231c-.129.4161.1808.8323.6196.8323h.9358c.4389 0 .7487-.4226.6196-.8323l-.6325-2.0231c-.1355-.4482-.768-.4482-.91 0z" fill="#b7877d"/><path d="m18.8578 13.8561-.6325 2.0231c-.129.4161.1808.8323.6196.8323h.9358c.4389 0 .7487-.4226.6196-.8323l-.6325-2.0231c-.1355-.4482-.768-.4482-.91 0z" fill="url(#aK)"/><path d="m18.8578 13.8561-.6325 2.0231c-.129.4161.1808.8323.6196.8323h.9358c.4389 0 .7487-.4226.6196-.8323l-.6325-2.0231c-.1355-.4482-.768-.4482-.91 0z" fill="url(#aL)"/><path d="m18.8578 13.8561-.6325 2.0231c-.129.4161.1808.8323.6196.8323h.9358c.4389 0 .7487-.4226.6196-.8323l-.6325-2.0231c-.1355-.4482-.768-.4482-.91 0z" fill="url(#aM)"/><path d="m18.8578 13.8561-.6325 2.0231c-.129.4161.1808.8323.6196.8323h.9358c.4389 0 .7487-.4226.6196-.8323l-.6325-2.0231c-.1355-.4482-.768-.4482-.91 0z" fill="url(#aN)"/></g><path d="m18.8578 13.8561-.6325 2.0231c-.129.4161.1808.8323.6196.8323h.9358c.4389 0 .7487-.4226.6196-.8323l-.6325-2.0231c-.1355-.4482-.768-.4482-.91 0z" fill="url(#aO)"/><path d="m17.6871 17.4861-.0005-.0002c-.1037-.0528-.2118-.02-.2763.0479-.0647.0681-.0899.1768-.0233.2734.4076.6174 1.1175 1.0287 1.9257 1.0287.8084 0 1.5184-.4115 1.926-1.0291.0658-.0987.0419-.2074-.0238-.2755-.065-.0675-.173-.0978-.2761-.0454l-.0004.0002c-.4698.2449-1.0235.3852-1.6257.3852-.5962 0-1.1559-.1403-1.6256-.3852z" fill="#88024e" stroke="url(#aP)" stroke-width=".1"/><g filter="url(#u)"><path d="m23.7404 10.958-.0014-.0012-.0022-.0019-.0054-.0043-.0143-.0114c-.0111-.0087-.0253-.0196-.0427-.0323-.0348-.0255-.0822-.0584-.1416-.0956-.1185-.0743-.2868-.1668-.4996-.2509-.4273-.169-1.0375-.3051-1.7768-.1883-.3466.0547-.5832.38-.5284.7265.0547.3466.38.5832.7265.5285.4735-.0748.8527.0125 1.1116.1148.1302.0515.2292.1067.2922.1461.0314.0197.0533.0351.0652.0438.0049.0036.0081.006.0094.007.2694.2197.6662.182.8893-.0857.2246-.2696.1878-.6705-.0818-.8951z" fill="#4c3230"/><path d="m23.7404 10.958-.0014-.0012-.0022-.0019-.0054-.0043-.0143-.0114c-.0111-.0087-.0253-.0196-.0427-.0323-.0348-.0255-.0822-.0584-.1416-.0956-.1185-.0743-.2868-.1668-.4996-.2509-.4273-.169-1.0375-.3051-1.7768-.1883-.3466.0547-.5832.38-.5284.7265.0547.3466.38.5832.7265.5285.4735-.0748.8527.0125 1.1116.1148.1302.0515.2292.1067.2922.1461.0314.0197.0533.0351.0652.0438.0049.0036.0081.006.0094.007.2694.2197.6662.182.8893-.0857.2246-.2696.1878-.6705-.0818-.8951z" fill="url(#aR)"/></g><g filter="url(#v)"><path d="m14.8209 10.9584.0009-.0008.001-.0008.0022-.0019.0054-.0043.0142-.0114c.0111-.0087.0254-.0196.0428-.0323.0348-.0255.0822-.0584.1416-.0956.1185-.0743.2868-.1668.4996-.2509.4273-.169 1.0375-.3051 1.7768-.1883.3466.0547.5831.38.5284.7265-.0547.3466-.38.5832-.7266.5285-.4735-.0748-.8526.0125-1.1115.1148-.1302.0515-.2293.1067-.2923.1461-.0313.0197-.0532.0351-.0651.0438-.0049.0036-.0081.006-.0094.007-.2695.2197-.6662.182-.8894-.0857-.2246-.2696-.1881-.6701.0814-.8947z" fill="#4c3230"/><path d="m14.8209 10.9584.0009-.0008.001-.0008.0022-.0019.0054-.0043.0142-.0114c.0111-.0087.0254-.0196.0428-.0323.0348-.0255.0822-.0584.1416-.0956.1185-.0743.2868-.1668.4996-.2509.4273-.169 1.0375-.3051 1.7768-.1883.3466.0547.5831.38.5284.7265-.0547.3466-.38.5832-.7266.5285-.4735-.0748-.8526.0125-1.1115.1148-.1302.0515-.2293.1067-.2923.1461-.0313.0197-.0532.0351-.0651.0438-.0049.0036-.0081.006-.0094.007-.2695.2197-.6662.182-.8894-.0857-.2246-.2696-.1881-.6701.0814-.8947z" fill="url(#aS)"/></g><path d="m22.1551 12.4927c.7773 0 1.4338.5359 1.6125 1.26.0531.2076-.1063.4056-.3187.4056h-2.6552c-.1689 0-.3041-.1545-.2703-.3235.1497-.7628.8207-1.3421 1.6317-1.3421z" fill="#fff"/><path d="m21.9088 12.8162c.589 0 1.0621.4779 1.0621 1.062 0 .0966-.0145.1931-.0386.28h-2.0518c-.0241-.0917-.0386-.1834-.0386-.28 0-.5841.478-1.062 1.0669-1.062z" fill="url(#aU)"/><path d="m21.3007 13.8782c0-.3379.2703-.6082.6082-.6082.338 0 .6083.2703.6083.6082 0 .1014-.0241.198-.0676.28h-1.0765c-.0483-.082-.0724-.1786-.0724-.28z" fill="#000"/><g filter="url(#w)"><path d="m21.8307 13.0407c.0757.1012-.0825.2246-.2623.359-.1798.1345-.3132.2291-.3889.1279s.0088-.2922.1886-.4267.387-.1614.4626-.0602z" fill="#c7a7a3"/><path d="m21.8307 13.0407c.0757.1012-.0825.2246-.2623.359-.1798.1345-.3132.2291-.3889.1279s.0088-.2922.1886-.4267.387-.1614.4626-.0602z" fill="url(#aW)"/></g><g filter="url(#x)"><path d="m22.855 13.7384c-.0392-.2746-.1999-.4815-.2753-.5507l-.3093.3395.1395.2715z" fill="url(#aY)"/></g><path d="m16.4643 12.4927c-.7772 0-1.4338.5359-1.6125 1.26-.0531.2076.1063.4056.3187.4056h2.6553c.169 0 .3042-.1545.2704-.3235-.1497-.7628-.8256-1.3421-1.6319-1.3421z" fill="#fff"/><path d="m16.7104 12.8161c-.589 0-1.0621.478-1.0621 1.0621 0 .0966.0145.1931.0386.28h2.0519c.0241-.0917.0386-.1834.0386-.28-.0048-.5841-.478-1.0621-1.067-1.0621z" fill="url(#aZ)"/><path d="m17.3188 13.8783c0-.338-.2704-.6083-.6083-.6083-.338 0-.6083.2703-.6083.6083 0 .1014.0241.1979.0676.28h1.0766c.0434-.0821.0724-.1786.0724-.28z" fill="#000"/><g filter="url(#y)"><path d="m17.6808 13.7534c0-.3432-.2791-.572-.3545-.6412l-.3433.332.2113.4299z" fill="url(#a0)"/></g><g filter="url(#z)"><ellipse cx="16.39" cy="13.27" fill="#c7a7a3" fill-opacity=".9" rx=".464" ry=".235" transform="matrix(.88365127 -.46814574 .46814574 .88365127 -4.305327 9.216903)"/><ellipse cx="16.39" cy="13.27" fill="url(#a1)" rx=".464" ry=".235" transform="matrix(.88365127 -.46814574 .46814574 .88365127 -4.305327 9.216903)"/></g><g filter="url(#A)"><path d="m21.2896 10.7859c.5119-.0896 1.5102-.064 2.2014.4736" stroke="url(#a3)" stroke-linecap="round" stroke-width=".5"/></g><g filter="url(#B)"><path d="m15.0764 11.4031c.3895-.3442 1.2398-.7066 2.294-.5386" stroke="url(#a4)" stroke-linecap="round" stroke-width=".5"/></g><g filter="url(#C)"><path d="m13.9172 8.46857v1.06838c-.0093.1769-.0838.57255-.3072.74015" stroke="url(#a5)" stroke-linecap="round" stroke-width=".25"/></g></svg>