<svg fill="none" height="32" viewBox="0 0 32 32" width="32" xmlns="http://www.w3.org/2000/svg" xmlns:xlink="http://www.w3.org/1999/xlink"><filter id="a" color-interpolation-filters="sRGB" filterUnits="userSpaceOnUse" height="6.508" width="17.771" x="5.6" y="21.366"><feFlood flood-opacity="0" result="BackgroundImageFix"/><feBlend in="SourceGraphic" in2="BackgroundImageFix" mode="normal" result="shape"/><feColorMatrix in="SourceAlpha" result="hardAlpha" type="matrix" values="0 0 0 0 0 0 0 0 0 0 0 0 0 0 0 0 0 0 127 0"/><feOffset dx=".4"/><feGaussianBlur stdDeviation=".4"/><feComposite in2="hardAlpha" k2="-1" k3="1" operator="arithmetic"/><feColorMatrix type="matrix" values="0 0 0 0 0.258824 0 0 0 0 0.247059 0 0 0 0 0.278431 0 0 0 1 0"/><feBlend in2="shape" mode="normal" result="effect1_innerShadow_18_9464"/><feColorMatrix in="SourceAlpha" result="hardAlpha" type="matrix" values="0 0 0 0 0 0 0 0 0 0 0 0 0 0 0 0 0 0 127 0"/><feOffset dx="-.4"/><feGaussianBlur stdDeviation=".4"/><feComposite in2="hardAlpha" k2="-1" k3="1" operator="arithmetic"/><feColorMatrix type="matrix" values="0 0 0 0 0.258824 0 0 0 0 0.247059 0 0 0 0 0.278431 0 0 0 1 0"/><feBlend in2="effect1_innerShadow_18_9464" mode="normal" result="effect2_innerShadow_18_9464"/><feColorMatrix in="SourceAlpha" result="hardAlpha" type="matrix" values="0 0 0 0 0 0 0 0 0 0 0 0 0 0 0 0 0 0 127 0"/><feOffset dy="-.15"/><feGaussianBlur stdDeviation=".2"/><feComposite in2="hardAlpha" k2="-1" k3="1" operator="arithmetic"/><feColorMatrix type="matrix" values="0 0 0 0 0.345098 0 0 0 0 0.12549 0 0 0 0 0.572549 0 0 0 1 0"/><feBlend in2="effect2_innerShadow_18_9464" mode="normal" result="effect3_innerShadow_18_9464"/></filter><filter id="b" color-interpolation-filters="sRGB" filterUnits="userSpaceOnUse" height="9.4" width="7.25" x="23" y="20.702"><feFlood flood-opacity="0" result="BackgroundImageFix"/><feBlend in="SourceGraphic" in2="BackgroundImageFix" mode="normal" result="shape"/><feColorMatrix in="SourceAlpha" result="hardAlpha" type="matrix" values="0 0 0 0 0 0 0 0 0 0 0 0 0 0 0 0 0 0 127 0"/><feOffset dy="-.4"/><feGaussianBlur stdDeviation=".3"/><feComposite in2="hardAlpha" k2="-1" k3="1" operator="arithmetic"/><feColorMatrix type="matrix" values="0 0 0 0 0.67451 0 0 0 0 0.419608 0 0 0 0 0.898039 0 0 0 1 0"/><feBlend in2="shape" mode="normal" result="effect1_innerShadow_18_9464"/><feColorMatrix in="SourceAlpha" result="hardAlpha" type="matrix" values="0 0 0 0 0 0 0 0 0 0 0 0 0 0 0 0 0 0 127 0"/><feOffset dx=".25"/><feGaussianBlur stdDeviation=".125"/><feComposite in2="hardAlpha" k2="-1" k3="1" operator="arithmetic"/><feColorMatrix type="matrix" values="0 0 0 0 0.396078 0 0 0 0 0.372549 0 0 0 0 0.627451 0 0 0 1 0"/><feBlend in2="effect1_innerShadow_18_9464" mode="normal" result="effect2_innerShadow_18_9464"/></filter><filter id="c" color-interpolation-filters="sRGB" filterUnits="userSpaceOnUse" height="9" width="1.35" x="27" y="13.102"><feFlood flood-opacity="0" result="BackgroundImageFix"/><feBlend in="SourceGraphic" in2="BackgroundImageFix" mode="normal" result="shape"/><feColorMatrix in="SourceAlpha" result="hardAlpha" type="matrix" values="0 0 0 0 0 0 0 0 0 0 0 0 0 0 0 0 0 0 127 0"/><feOffset dx=".35"/><feGaussianBlur stdDeviation=".25"/><feComposite in2="hardAlpha" k2="-1" k3="1" operator="arithmetic"/><feColorMatrix type="matrix" values="0 0 0 0 0.321569 0 0 0 0 0.321569 0 0 0 0 0.458824 0 0 0 1 0"/><feBlend in2="shape" mode="normal" result="effect1_innerShadow_18_9464"/></filter><filter id="d" color-interpolation-filters="sRGB" filterUnits="userSpaceOnUse" height="4.416" width="5.4" x="25" y="6.702"><feFlood flood-opacity="0" result="BackgroundImageFix"/><feBlend in="SourceGraphic" in2="BackgroundImageFix" mode="normal" result="shape"/><feColorMatrix in="SourceAlpha" result="hardAlpha" type="matrix" values="0 0 0 0 0 0 0 0 0 0 0 0 0 0 0 0 0 0 127 0"/><feOffset dx=".4" dy="-.4"/><feGaussianBlur stdDeviation=".4"/><feComposite in2="hardAlpha" k2="-1" k3="1" operator="arithmetic"/><feColorMatrix type="matrix" values="0 0 0 0 0.913725 0 0 0 0 0.2 0 0 0 0 0.258824 0 0 0 1 0"/><feBlend in2="shape" mode="normal" result="effect1_innerShadow_18_9464"/></filter><filter id="e" color-interpolation-filters="sRGB" filterUnits="userSpaceOnUse" height="19.5" width="18.75" x="5.25" y="5.102"><feFlood flood-opacity="0" result="BackgroundImageFix"/><feBlend in="SourceGraphic" in2="BackgroundImageFix" mode="normal" result="shape"/><feColorMatrix in="SourceAlpha" result="hardAlpha" type="matrix" values="0 0 0 0 0 0 0 0 0 0 0 0 0 0 0 0 0 0 127 0"/><feOffset dy=".5"/><feGaussianBlur stdDeviation=".5"/><feComposite in2="hardAlpha" k2="-1" k3="1" operator="arithmetic"/><feColorMatrix type="matrix" values="0 0 0 0 0.72549 0 0 0 0 0.721569 0 0 0 0 0.72549 0 0 0 1 0"/><feBlend in2="shape" mode="normal" result="effect1_innerShadow_18_9464"/><feColorMatrix in="SourceAlpha" result="hardAlpha" type="matrix" values="0 0 0 0 0 0 0 0 0 0 0 0 0 0 0 0 0 0 127 0"/><feOffset dx="-.75"/><feGaussianBlur stdDeviation=".5"/><feComposite in2="hardAlpha" k2="-1" k3="1" operator="arithmetic"/><feColorMatrix type="matrix" values="0 0 0 0 1 0 0 0 0 0.996078 0 0 0 0 1 0 0 0 1 0"/><feBlend in2="effect1_innerShadow_18_9464" mode="normal" result="effect2_innerShadow_18_9464"/><feColorMatrix in="SourceAlpha" result="hardAlpha" type="matrix" values="0 0 0 0 0 0 0 0 0 0 0 0 0 0 0 0 0 0 127 0"/><feOffset dx="1"/><feGaussianBlur stdDeviation=".5"/><feComposite in2="hardAlpha" k2="-1" k3="1" operator="arithmetic"/><feColorMatrix type="matrix" values="0 0 0 0 0.470588 0 0 0 0 0.419608 0 0 0 0 0.521569 0 0 0 1 0"/><feBlend in2="effect2_innerShadow_18_9464" mode="normal" result="effect3_innerShadow_18_9464"/></filter><filter id="f" color-interpolation-filters="sRGB" filterUnits="userSpaceOnUse" height="7.2" width="17.5" x="6" y="16.902"><feFlood flood-opacity="0" result="BackgroundImageFix"/><feBlend in="SourceGraphic" in2="BackgroundImageFix" mode="normal" result="shape"/><feColorMatrix in="SourceAlpha" result="hardAlpha" type="matrix" values="0 0 0 0 0 0 0 0 0 0 0 0 0 0 0 0 0 0 127 0"/><feOffset dx=".5" dy="-.2"/><feGaussianBlur stdDeviation=".5"/><feComposite in2="hardAlpha" k2="-1" k3="1" operator="arithmetic"/><feColorMatrix type="matrix" values="0 0 0 0 0.247059 0 0 0 0 0.286275 0 0 0 0 0.760784 0 0 0 1 0"/><feBlend in2="shape" mode="normal" result="effect1_innerShadow_18_9464"/></filter><filter id="g" color-interpolation-filters="sRGB" filterUnits="userSpaceOnUse" height="4.2" width="5.75" x="24.75" y="9.902"><feFlood flood-opacity="0" result="BackgroundImageFix"/><feBlend in="SourceGraphic" in2="BackgroundImageFix" mode="normal" result="shape"/><feColorMatrix in="SourceAlpha" result="hardAlpha" type="matrix" values="0 0 0 0 0 0 0 0 0 0 0 0 0 0 0 0 0 0 127 0"/><feOffset dx="-.25"/><feGaussianBlur stdDeviation=".5"/><feComposite in2="hardAlpha" k2="-1" k3="1" operator="arithmetic"/><feColorMatrix type="matrix" values="0 0 0 0 0.498039 0 0 0 0 0.74902 0 0 0 0 1 0 0 0 1 0"/><feBlend in2="shape" mode="normal" result="effect1_innerShadow_18_9464"/><feColorMatrix in="SourceAlpha" result="hardAlpha" type="matrix" values="0 0 0 0 0 0 0 0 0 0 0 0 0 0 0 0 0 0 127 0"/><feOffset dx=".5" dy="-.2"/><feGaussianBlur stdDeviation=".5"/><feComposite in2="hardAlpha" k2="-1" k3="1" operator="arithmetic"/><feColorMatrix type="matrix" values="0 0 0 0 0.313726 0 0 0 0 0.380392 0 0 0 0 0.988235 0 0 0 1 0"/><feBlend in2="effect1_innerShadow_18_9464" mode="normal" result="effect2_innerShadow_18_9464"/></filter><filter id="h" color-interpolation-filters="sRGB" filterUnits="userSpaceOnUse" height="7.823" width="13.8" x="7.5" y="9.778"><feFlood flood-opacity="0" result="BackgroundImageFix"/><feBlend in="SourceGraphic" in2="BackgroundImageFix" mode="normal" result="shape"/><feColorMatrix in="SourceAlpha" result="hardAlpha" type="matrix" values="0 0 0 0 0 0 0 0 0 0 0 0 0 0 0 0 0 0 127 0"/><feOffset dx=".5" dy="-.5"/><feGaussianBlur stdDeviation=".15"/><feComposite in2="hardAlpha" k2="-1" k3="1" operator="arithmetic"/><feColorMatrix type="matrix" values="0 0 0 0 0.329412 0 0 0 0 0.807843 0 0 0 0 1 0 0 0 1 0"/><feBlend in2="shape" mode="normal" result="effect1_innerShadow_18_9464"/><feColorMatrix in="SourceAlpha" result="hardAlpha" type="matrix" values="0 0 0 0 0 0 0 0 0 0 0 0 0 0 0 0 0 0 127 0"/><feOffset dx="-.5" dy=".5"/><feGaussianBlur stdDeviation=".6"/><feComposite in2="hardAlpha" k2="-1" k3="1" operator="arithmetic"/><feColorMatrix type="matrix" values="0 0 0 0 0.219608 0 0 0 0 0.635294 0 0 0 0 1 0 0 0 1 0"/><feBlend in2="effect1_innerShadow_18_9464" mode="normal" result="effect2_innerShadow_18_9464"/></filter><filter id="i" color-interpolation-filters="sRGB" filterUnits="userSpaceOnUse" height="2" width="16.575" x="6.213" y="26.148"><feFlood flood-opacity="0" result="BackgroundImageFix"/><feBlend in="SourceGraphic" in2="BackgroundImageFix" mode="normal" result="shape"/><feGaussianBlur result="effect1_foregroundBlur_18_9464" stdDeviation=".375"/></filter><linearGradient id="j" gradientUnits="userSpaceOnUse" x1="14.486" x2="14.486" y1="22.517" y2="27.874"><stop offset=".49" stop-color="#0c0e1c"/><stop offset="1" stop-color="#56218e"/></linearGradient><linearGradient id="k" gradientUnits="userSpaceOnUse" x1="30" x2="22.622" y1="22.042" y2="22.042"><stop offset=".59" stop-color="#efd5ff"/><stop offset="1" stop-color="#9f95cf"/></linearGradient><linearGradient id="l" gradientUnits="userSpaceOnUse" x1="30" x2="28.844" y1="27.727" y2="27.727"><stop offset=".27" stop-color="#eacfff"/><stop offset="1" stop-color="#eacfff" stop-opacity="0"/></linearGradient><linearGradient id="m" gradientUnits="userSpaceOnUse" x1="28.719" x2="29.188" y1="29.07" y2="28.594"><stop offset=".372" stop-color="#ca81ff"/><stop offset="1" stop-color="#ca81ff" stop-opacity="0"/></linearGradient><linearGradient id="n" gradientUnits="userSpaceOnUse" x1="27.594" x2="27.594" y1="21.102" y2="21.492"><stop offset="0" stop-color="#e1dbea"/><stop offset="1" stop-color="#e1dbea" stop-opacity="0"/></linearGradient><linearGradient id="o" gradientUnits="userSpaceOnUse" x1="28.072" x2="27.62" y1="16.863" y2="16.863"><stop offset="0" stop-color="#8d899c"/><stop offset="1" stop-color="#8d899c" stop-opacity="0"/></linearGradient><linearGradient id="p" gradientUnits="userSpaceOnUse" x1="25.003" x2="30.003" y1="8.605" y2="8.605"><stop offset="0" stop-color="#ff9834"/><stop offset="1" stop-color="#ffbf2e"/></linearGradient><linearGradient id="q" gradientUnits="userSpaceOnUse" x1="7.415" x2="19.279" y1="17.454" y2="11.983"><stop offset="0" stop-color="#bbaacb"/><stop offset="1" stop-color="#f0ddff"/></linearGradient><linearGradient id="r" gradientUnits="userSpaceOnUse" x1="6.003" x2="23.003" y1="20.605" y2="20.605"><stop offset="0" stop-color="#4f59ff"/><stop offset="1" stop-color="#6783ff"/></linearGradient><radialGradient id="s" cx="0" cy="0" gradientTransform="matrix(0 7 -2 0 22.5625 17.1016)" gradientUnits="userSpaceOnUse" r="1"><stop offset="0" stop-color="#81c0ff"/><stop offset="1" stop-color="#81c0ff" stop-opacity="0"/></radialGradient><radialGradient id="t" cx="0" cy="0" gradientTransform="matrix(0 1.57843 -3.57468 0 22.5873 16.5439)" gradientUnits="userSpaceOnUse" r="1"><stop offset="0" stop-color="#7db7ff"/><stop offset="1" stop-color="#7db7ff" stop-opacity="0"/></radialGradient><radialGradient id="u" cx="0" cy="0" gradientTransform="matrix(0 2.32611 -.996904 0 7.82071 16.8554)" gradientUnits="userSpaceOnUse" r="1"><stop offset=".286" stop-color="#485dff"/><stop offset=".968" stop-color="#485dff" stop-opacity="0"/></radialGradient><linearGradient id="v" gradientUnits="userSpaceOnUse" x1="9.278" x2="20.593" y1="10.102" y2="10.102"><stop offset="0" stop-color="#645a70"/><stop offset="1" stop-color="#827591"/></linearGradient><linearGradient id="w" gradientUnits="userSpaceOnUse" x1="11.181" x2="18.791" y1="18.302" y2="22.758"><stop offset="0" stop-color="#685c75"/><stop offset="1" stop-color="#826b9a"/></linearGradient><linearGradient id="x" gradientUnits="userSpaceOnUse" x1="14.5" x2="14.5" y1="8.102" y2="9.102"><stop offset="0" stop-color="#b592d6"/><stop offset="1" stop-color="#d7cfe0"/></linearGradient><radialGradient id="y" cx="0" cy="0" gradientTransform="matrix(6.62345 0 0 2.17284 12.3766 8.60156)" gradientUnits="userSpaceOnUse" r="1"><stop offset=".921" stop-color="#9685a6" stop-opacity="0"/><stop offset="1" stop-color="#9685a6"/></radialGradient><radialGradient id="z" cx="0" cy="0" gradientTransform="matrix(-9.19079 0 0 -3.01507 19.1908 8.60156)" gradientUnits="userSpaceOnUse" r="1"><stop offset=".921" stop-color="#c4bccf" stop-opacity="0"/><stop offset="1" stop-color="#c4bccf"/></radialGradient><linearGradient id="A" gradientUnits="userSpaceOnUse" x1="22.683" x2="8.499" y1="4.627" y2="4.592"><stop offset="0" stop-color="#e0dde3"/><stop offset="1" stop-color="#bfbcc1"/></linearGradient><radialGradient id="B" cx="0" cy="0" gradientTransform="matrix(.944982 0 0 1.30254 8.06993 4.8095)" gradientUnits="userSpaceOnUse" r="1"><stop offset="0" stop-color="#727273"/><stop offset="1" stop-color="#727273" stop-opacity="0"/></radialGradient><linearGradient id="C" gradientUnits="userSpaceOnUse" x1="14.5" x2="14.5" y1="3.852" y2="4.273"><stop offset="0" stop-color="#bcbcbc"/><stop offset="1" stop-color="#bcbcbc" stop-opacity="0"/></linearGradient><radialGradient id="D" cx="0" cy="0" gradientTransform="matrix(-1.28767 0 0 -1.7749 21.2581 4.8095)" gradientUnits="userSpaceOnUse" r="1"><stop offset="0" stop-color="#fff"/><stop offset="1" stop-color="#fff" stop-opacity="0"/></radialGradient><linearGradient id="E"><stop offset=".171" stop-color="#ffb129"/><stop offset="1" stop-color="#fb730d"/></linearGradient><radialGradient id="F" cx="0" cy="0" gradientTransform="matrix(3.28125 0 0 2.06112 10.3438 19.8203)" gradientUnits="userSpaceOnUse" r="1" xlink:href="#E"/><radialGradient id="G" cx="0" cy="0" gradientTransform="matrix(3.28125 0 0 2.06112 15.3438 19.8203)" gradientUnits="userSpaceOnUse" r="1" xlink:href="#E"/><linearGradient id="H" gradientUnits="userSpaceOnUse" x1="25.003" x2="30.003" y1="10.605" y2="10.605"><stop offset="0" stop-color="#5a79ff"/><stop offset="1" stop-color="#6c9cff"/></linearGradient><linearGradient id="I" gradientUnits="userSpaceOnUse" x1="8.003" x2="20.363" y1="13.604" y2="13.604"><stop offset="0" stop-color="#49bdff"/><stop offset="1" stop-color="#5ae3ff"/></linearGradient><radialGradient id="J" cx="0" cy="0" gradientTransform="matrix(0 -.977795 5.21446 0 17.5198 17.1015)" gradientUnits="userSpaceOnUse" r="1"><stop offset="0" stop-color="#54e6ff"/><stop offset="1" stop-color="#54e6ff" stop-opacity="0"/></radialGradient><linearGradient id="K" gradientUnits="userSpaceOnUse" x1="6.725" x2="21.787" y1="27.306" y2="27.306"><stop offset="0" stop-color="#513472"/><stop offset=".495" stop-color="#644985" stop-opacity="0"/><stop offset="1" stop-color="#644985"/></linearGradient><g filter="url(#a)"><path clip-rule="evenodd" d="m8.36924 23.0574c-.86469 1.3175-1.90521 2.9029-2.00359 3.0738-.02264.0393-.04796.0807-.07445.124-.18763.3067-.43326.7083-.18854 1.1302.27925.4815.93706.4884 1.07187.4884h14.81027c.3177 0 .5926-.096.8429-.4234.2504-.3274.1563-.7602-.1562-1.1508-.216-.2699-1.301-1.9561-2.1648-3.2983-.4075-.6333-.7658-1.19-.9602-1.4853h-10.16716c-.20837.3199-.58832.8988-1.0101 1.5414zm1.01387 1.4632c.06099-.1028.2431-.4062.30473-.5063.07704-.1252.43246-.5006.88506-.5006h8.0164c.3948 0 .4695.2506.6525.5203.1464.2157.2383.332.3594.4866zm-1.14132 1.7243c.05778-.077.21995-.3145.30469-.4531.16009-.262.44585-.3516.89844-.3516h10.25438c.3862 0 .559.1654.6987.375.0771.1156.199.3206.2696.4297z" fill="url(#j)" fill-rule="evenodd"/></g><g filter="url(#b)"><path d="m24.4306 21.1116c-1.2699 0-1.9098 1.54-1.0099 2.44l6.5793 6.55v-3.05-5.95z" fill="url(#k)"/></g><path d="m24.4306 21.1116c-1.2699 0-1.9098 1.54-1.0099 2.44l6.5793 6.55v-3.05-5.95z" fill="url(#l)"/><path d="m24.4306 21.1116c-1.2699 0-1.9098 1.54-1.0099 2.44l6.5793 6.55v-3.05-5.95z" fill="url(#m)"/><path d="m24.4306 21.1116c-1.2699 0-1.9098 1.54-1.0099 2.44l6.5793 6.55v-3.05-5.95z" fill="url(#n)"/><g filter="url(#c)"><path d="m27.5 22.1016c-.28 0-.5-.22-.5-.5v-8c0-.28.22-.5.5-.5s.5.22.5.5v8c0 .28-.22.5-.5.5z" fill="#7a6e8a"/><path d="m27.5 22.1016c-.28 0-.5-.22-.5-.5v-8c0-.28.22-.5.5-.5s.5.22.5.5v8c0 .28-.22.5-.5.5z" fill="url(#o)"/></g><g filter="url(#d)"><path d="m30 8.08156v3.03564h-5v-3.03564c0-.54.44-.98.98-.98h3.04c.54 0 .98.44.98.98z" fill="url(#p)"/></g><g filter="url(#e)"><path d="m23 7.01156v13.08004c0 2.22-1.8189 4.01-4.0676 4.01h-8.8648c-2.24867 0-4.0676-1.79-4.0676-4.01v-13.08004c0-1.06.85949-1.91 1.92887-1.91h13.13223c1.0694 0 1.9389.85 1.9389 1.91z" fill="url(#q)"/></g><g filter="url(#f)"><path d="m23 17.1016v2.99c0 2.22-1.8189 4.01-4.0676 4.01h-8.8648c-2.24867 0-4.0676-1.79-4.0676-4.01v-2.99z" fill="url(#r)"/><path d="m23 17.1016v2.99c0 2.22-1.8189 4.01-4.0676 4.01h-8.8648c-2.24867 0-4.0676-1.79-4.0676-4.01v-2.99z" fill="url(#s)"/></g><path d="m23 17.1016v2.99c0 2.22-1.8189 4.01-4.0676 4.01h-8.8648c-2.24867 0-4.0676-1.79-4.0676-4.01v-2.99z" fill="url(#t)"/><path d="m23 17.1016v2.99c0 2.22-1.8189 4.01-4.0676 4.01h-8.8648c-2.24867 0-4.0676-1.79-4.0676-4.01v-2.99z" fill="url(#u)"/><path d="m21 9.55156v.55004h-13v-.55004c0-1.35 1.1-2.45 2.45-2.45h8.1c1.35 0 2.45 1.1 2.45 2.45z" fill="url(#v)"/><path d="m8 19.6516v-2.55h13v2.55c0 1.35-1.1 2.45-2.45 2.45h-8.1c-1.35 0-2.45-1.1-2.45-2.45z" fill="url(#w)"/><path d="m18.5 9.10156h-8c-.28 0-.5-.22-.5-.5s.22-.5.5-.5h8c.28 0 .5.22.5.5s-.22.5-.5.5z" fill="url(#x)"/><path d="m18.5 9.10156h-8c-.28 0-.5-.22-.5-.5s.22-.5.5-.5h8c.28 0 .5.22.5.5s-.22.5-.5.5z" fill="url(#y)"/><path d="m18.5 9.10156h-8c-.28 0-.5-.22-.5-.5s.22-.5.5-.5h8c.28 0 .5.22.5.5s-.22.5-.5.5z" fill="url(#z)"/><path d="m21 5.10156h-13c0-.55102.44-1 .98-1h11.04c.54 0 .98.44898.98 1z" fill="url(#A)"/><path d="m21 5.10156h-13c0-.55102.44-1 .98-1h11.04c.54 0 .98.44898.98 1z" fill="url(#B)"/><path d="m21 5.10156h-13c0-.55102.44-1 .98-1h11.04c.54 0 .98.44898.98 1z" fill="url(#C)"/><path d="m21 5.10156h-13c0-.55102.44-1 .98-1h11.04c.54 0 .98.44898.98 1z" fill="url(#D)"/><path d="m13 20.1016h-2c-.55 0-1-.45-1-1s.45-1 1-1h2c.55 0 1 .45 1 1 0 .56-.44 1-1 1z" fill="url(#F)"/><path d="m18 20.1016h-2c-.55 0-1-.45-1-1s.45-1 1-1h2c.55 0 1 .45 1 1 0 .56-.44 1-1 1z" fill="url(#G)"/><g filter="url(#g)"><path clip-rule="evenodd" d="m25 10.1016v3.02c0 .54.44.98.98.98h3.04c.54 0 .98-.44.98-.98v-3.02z" fill="url(#H)" fill-rule="evenodd"/></g><g filter="url(#h)"><path d="m8 10.0782-.00006 7.0233h12.99996l.0001-7.0233z" fill="url(#I)"/></g><path d="m8 10.0782-.00006 7.0233h12.99996l.0001-7.0233z" fill="url(#J)"/><g filter="url(#i)"><path d="m7.21277 27.1479h14.57443" stroke="url(#K)" stroke-linecap="round" stroke-width=".5"/></g></svg>