<svg fill="none" height="32" viewBox="0 0 32 32" width="32" xmlns="http://www.w3.org/2000/svg" xmlns:xlink="http://www.w3.org/1999/xlink"><filter id="a" color-interpolation-filters="sRGB" filterUnits="userSpaceOnUse" height="18.556" width="23" x="5" y="4"><feFlood flood-opacity="0" result="BackgroundImageFix"/><feBlend in="SourceGraphic" in2="BackgroundImageFix" mode="normal" result="shape"/><feColorMatrix in="SourceAlpha" result="hardAlpha" type="matrix" values="0 0 0 0 0 0 0 0 0 0 0 0 0 0 0 0 0 0 127 0"/><feOffset dy="1"/><feGaussianBlur stdDeviation=".5"/><feComposite in2="hardAlpha" k2="-1" k3="1" operator="arithmetic"/><feColorMatrix type="matrix" values="0 0 0 0 0.980392 0 0 0 0 0.980392 0 0 0 0 0.980392 0 0 0 1 0"/><feBlend in2="shape" mode="normal" result="effect1_innerShadow_18_9860"/><feColorMatrix in="SourceAlpha" result="hardAlpha" type="matrix" values="0 0 0 0 0 0 0 0 0 0 0 0 0 0 0 0 0 0 127 0"/><feOffset dx="1"/><feGaussianBlur stdDeviation=".5"/><feComposite in2="hardAlpha" k2="-1" k3="1" operator="arithmetic"/><feColorMatrix type="matrix" values="0 0 0 0 0.592157 0 0 0 0 0.584314 0 0 0 0 0.603922 0 0 0 1 0"/><feBlend in2="effect1_innerShadow_18_9860" mode="normal" result="effect2_innerShadow_18_9860"/></filter><filter id="b" color-interpolation-filters="sRGB" filterUnits="userSpaceOnUse" height="8" width="22" x="5" y="19"><feFlood flood-opacity="0" result="BackgroundImageFix"/><feBlend in="SourceGraphic" in2="BackgroundImageFix" mode="normal" result="shape"/><feColorMatrix in="SourceAlpha" result="hardAlpha" type="matrix" values="0 0 0 0 0 0 0 0 0 0 0 0 0 0 0 0 0 0 127 0"/><feOffset dy="-1"/><feGaussianBlur stdDeviation=".75"/><feComposite in2="hardAlpha" k2="-1" k3="1" operator="arithmetic"/><feColorMatrix type="matrix" values="0 0 0 0 0.713726 0 0 0 0 0.34902 0 0 0 0 0.521569 0 0 0 1 0"/><feBlend in2="shape" mode="normal" result="effect1_innerShadow_18_9860"/></filter><filter id="c" color-interpolation-filters="sRGB" filterUnits="userSpaceOnUse" height="5.2" width="2.2" x="2" y="11.8"><feFlood flood-opacity="0" result="BackgroundImageFix"/><feBlend in="SourceGraphic" in2="BackgroundImageFix" mode="normal" result="shape"/><feColorMatrix in="SourceAlpha" result="hardAlpha" type="matrix" values="0 0 0 0 0 0 0 0 0 0 0 0 0 0 0 0 0 0 127 0"/><feOffset dx=".2" dy="-.2"/><feGaussianBlur stdDeviation=".2"/><feComposite in2="hardAlpha" k2="-1" k3="1" operator="arithmetic"/><feColorMatrix type="matrix" values="0 0 0 0 0.12549 0 0 0 0 0.0784314 0 0 0 0 0.180392 0 0 0 1 0"/><feBlend in2="shape" mode="normal" result="effect1_innerShadow_18_9860"/></filter><filter id="d" color-interpolation-filters="sRGB" filterUnits="userSpaceOnUse" height="5.2" width="2.2" x="28" y="11.8"><feFlood flood-opacity="0" result="BackgroundImageFix"/><feBlend in="SourceGraphic" in2="BackgroundImageFix" mode="normal" result="shape"/><feColorMatrix in="SourceAlpha" result="hardAlpha" type="matrix" values="0 0 0 0 0 0 0 0 0 0 0 0 0 0 0 0 0 0 127 0"/><feOffset dx=".2" dy="-.2"/><feGaussianBlur stdDeviation=".2"/><feComposite in2="hardAlpha" k2="-1" k3="1" operator="arithmetic"/><feColorMatrix type="matrix" values="0 0 0 0 0.12549 0 0 0 0 0.0784314 0 0 0 0 0.180392 0 0 0 1 0"/><feBlend in2="shape" mode="normal" result="effect1_innerShadow_18_9860"/></filter><filter id="e" color-interpolation-filters="sRGB" filterUnits="userSpaceOnUse" height="9.4" width="18.4" x="6.8" y="9.8"><feFlood flood-opacity="0" result="BackgroundImageFix"/><feBlend in="SourceGraphic" in2="BackgroundImageFix" mode="normal" result="shape"/><feGaussianBlur result="effect1_foregroundBlur_18_9860" stdDeviation=".05"/></filter><filter id="f" color-interpolation-filters="sRGB" filterUnits="userSpaceOnUse" height="10" width="19" x="6" y="10"><feFlood flood-opacity="0" result="BackgroundImageFix"/><feBlend in="SourceGraphic" in2="BackgroundImageFix" mode="normal" result="shape"/><feColorMatrix in="SourceAlpha" result="hardAlpha" type="matrix" values="0 0 0 0 0 0 0 0 0 0 0 0 0 0 0 0 0 0 127 0"/><feOffset dx="-1" dy="1"/><feGaussianBlur stdDeviation="1"/><feComposite in2="hardAlpha" k2="-1" k3="1" operator="arithmetic"/><feColorMatrix type="matrix" values="0 0 0 0 0.133333 0 0 0 0 0.54902 0 0 0 0 0.741176 0 0 0 1 0"/><feBlend in2="shape" mode="normal" result="effect1_innerShadow_18_9860"/></filter><filter id="g" color-interpolation-filters="sRGB" filterUnits="userSpaceOnUse" height="1.4" width="8.4" x="11.8" y="22.8"><feFlood flood-opacity="0" result="BackgroundImageFix"/><feBlend in="SourceGraphic" in2="BackgroundImageFix" mode="normal" result="shape"/><feGaussianBlur result="effect1_foregroundBlur_18_9860" stdDeviation=".05"/></filter><filter id="h" color-interpolation-filters="sRGB" filterUnits="userSpaceOnUse" height="1.4" width="8" x="12" y="23"><feFlood flood-opacity="0" result="BackgroundImageFix"/><feBlend in="SourceGraphic" in2="BackgroundImageFix" mode="normal" result="shape"/><feColorMatrix in="SourceAlpha" result="hardAlpha" type="matrix" values="0 0 0 0 0 0 0 0 0 0 0 0 0 0 0 0 0 0 127 0"/><feOffset dy=".4"/><feGaussianBlur stdDeviation=".2"/><feComposite in2="hardAlpha" k2="-1" k3="1" operator="arithmetic"/><feColorMatrix type="matrix" values="0 0 0 0 0.219608 0 0 0 0 0.168627 0 0 0 0 0.270588 0 0 0 1 0"/><feBlend in2="shape" mode="normal" result="effect1_innerShadow_18_9860"/></filter><filter id="i" color-interpolation-filters="sRGB" filterUnits="userSpaceOnUse" height="1.4" width="12.4" x="9.8" y="20.8"><feFlood flood-opacity="0" result="BackgroundImageFix"/><feBlend in="SourceGraphic" in2="BackgroundImageFix" mode="normal" result="shape"/><feGaussianBlur result="effect1_foregroundBlur_18_9860" stdDeviation=".05"/></filter><filter id="j" color-interpolation-filters="sRGB" filterUnits="userSpaceOnUse" height="1.4" width="12" x="10" y="21"><feFlood flood-opacity="0" result="BackgroundImageFix"/><feBlend in="SourceGraphic" in2="BackgroundImageFix" mode="normal" result="shape"/><feColorMatrix in="SourceAlpha" result="hardAlpha" type="matrix" values="0 0 0 0 0 0 0 0 0 0 0 0 0 0 0 0 0 0 127 0"/><feOffset dy=".4"/><feGaussianBlur stdDeviation=".2"/><feComposite in2="hardAlpha" k2="-1" k3="1" operator="arithmetic"/><feColorMatrix type="matrix" values="0 0 0 0 0.219608 0 0 0 0 0.168627 0 0 0 0 0.270588 0 0 0 1 0"/><feBlend in2="shape" mode="normal" result="effect1_innerShadow_18_9860"/></filter><filter id="k" color-interpolation-filters="sRGB" filterUnits="userSpaceOnUse" height="4.35" width="3.191" x="4.984" y="20.825"><feFlood flood-opacity="0" result="BackgroundImageFix"/><feBlend in="SourceGraphic" in2="BackgroundImageFix" mode="normal" result="shape"/><feGaussianBlur result="effect1_foregroundBlur_18_9860" stdDeviation=".05"/></filter><filter id="l" color-interpolation-filters="sRGB" filterUnits="userSpaceOnUse" height="4.5" width="3.5" x="4.5" y="21"><feFlood flood-opacity="0" result="BackgroundImageFix"/><feBlend in="SourceGraphic" in2="BackgroundImageFix" mode="normal" result="shape"/><feColorMatrix in="SourceAlpha" result="hardAlpha" type="matrix" values="0 0 0 0 0 0 0 0 0 0 0 0 0 0 0 0 0 0 127 0"/><feOffset dx="-.5" dy=".5"/><feGaussianBlur stdDeviation=".25"/><feComposite in2="hardAlpha" k2="-1" k3="1" operator="arithmetic"/><feColorMatrix type="matrix" values="0 0 0 0 0.768627 0 0 0 0 0.721569 0 0 0 0 0.760784 0 0 0 1 0"/><feBlend in2="shape" mode="normal" result="effect1_innerShadow_18_9860"/></filter><filter id="m" color-interpolation-filters="sRGB" filterUnits="userSpaceOnUse" height="4.35" width="3.25" x="23.825" y="20.825"><feFlood flood-opacity="0" result="BackgroundImageFix"/><feBlend in="SourceGraphic" in2="BackgroundImageFix" mode="normal" result="shape"/><feGaussianBlur result="effect1_foregroundBlur_18_9860" stdDeviation=".05"/></filter><filter id="n" color-interpolation-filters="sRGB" filterUnits="userSpaceOnUse" height="4.5" width="3.5" x="24" y="21"><feFlood flood-opacity="0" result="BackgroundImageFix"/><feBlend in="SourceGraphic" in2="BackgroundImageFix" mode="normal" result="shape"/><feColorMatrix in="SourceAlpha" result="hardAlpha" type="matrix" values="0 0 0 0 0 0 0 0 0 0 0 0 0 0 0 0 0 0 127 0"/><feOffset dy=".5"/><feGaussianBlur stdDeviation=".25"/><feComposite in2="hardAlpha" k2="-1" k3="1" operator="arithmetic"/><feColorMatrix type="matrix" values="0 0 0 0 0.666667 0 0 0 0 0.592157 0 0 0 0 0.686275 0 0 0 1 0"/><feBlend in2="shape" mode="normal" result="effect1_innerShadow_18_9860"/><feColorMatrix in="SourceAlpha" result="hardAlpha" type="matrix" values="0 0 0 0 0 0 0 0 0 0 0 0 0 0 0 0 0 0 127 0"/><feOffset dx=".5"/><feGaussianBlur stdDeviation=".25"/><feComposite in2="hardAlpha" k2="-1" k3="1" operator="arithmetic"/><feColorMatrix type="matrix" values="0 0 0 0 0.72549 0 0 0 0 0.694118 0 0 0 0 0.705882 0 0 0 1 0"/><feBlend in2="effect1_innerShadow_18_9860" mode="normal" result="effect2_innerShadow_18_9860"/></filter><filter id="o" color-interpolation-filters="sRGB" filterUnits="userSpaceOnUse" height="3.15" width="18" x="7" y="6.85"><feFlood flood-opacity="0" result="BackgroundImageFix"/><feBlend in="SourceGraphic" in2="BackgroundImageFix" mode="normal" result="shape"/><feColorMatrix in="SourceAlpha" result="hardAlpha" type="matrix" values="0 0 0 0 0 0 0 0 0 0 0 0 0 0 0 0 0 0 127 0"/><feOffset dy="-.15"/><feGaussianBlur stdDeviation=".1"/><feComposite in2="hardAlpha" k2="-1" k3="1" operator="arithmetic"/><feColorMatrix type="matrix" values="0 0 0 0 0.156863 0 0 0 0 0.0509804 0 0 0 0 0.25098 0 0 0 1 0"/><feBlend in2="shape" mode="normal" result="effect1_innerShadow_18_9860"/></filter><filter id="p" color-interpolation-filters="sRGB" filterUnits="userSpaceOnUse" height="1.25" width="17.305" x="7.185" y="17.513"><feFlood flood-opacity="0" result="BackgroundImageFix"/><feBlend in="SourceGraphic" in2="BackgroundImageFix" mode="normal" result="shape"/><feGaussianBlur result="effect1_foregroundBlur_18_9860" stdDeviation=".25"/></filter><linearGradient id="q"><stop offset="0" stop-color="#260e3b"/><stop offset="1" stop-color="#401361"/></linearGradient><linearGradient id="r" gradientUnits="userSpaceOnUse" x1="7.878" x2="7.878" xlink:href="#q" y1="27.775" y2="30"/><linearGradient id="s"><stop offset="0" stop-color="#453e52"/><stop offset="1" stop-color="#453e52" stop-opacity="0"/></linearGradient><linearGradient id="t" gradientUnits="userSpaceOnUse" x1="5" x2="5.731" xlink:href="#s" y1="27.989" y2="27.989"/><linearGradient id="u"><stop offset="0" stop-color="#602c86"/><stop offset="1" stop-color="#602c86" stop-opacity="0"/></linearGradient><linearGradient id="v" gradientUnits="userSpaceOnUse" x1="7.144" x2="7.144" xlink:href="#u" y1="30.297" y2="29.609"/><linearGradient id="w" gradientUnits="userSpaceOnUse" x1="12.522" x2="12.522" y1="20.586" y2="4.884"><stop offset="0" stop-color="#b3aabc"/><stop offset="1" stop-color="#d8d4dd"/></linearGradient><linearGradient id="x" gradientUnits="userSpaceOnUse" x1="27" x2="26.144" y1="16.826" y2="16.826"><stop offset="0" stop-color="#b8b6bb"/><stop offset="1" stop-color="#bab7bd" stop-opacity="0"/></linearGradient><radialGradient id="y" cx="0" cy="0" gradientTransform="matrix(0 -6.15815 12.6696 0 14.0494 21.556)" gradientUnits="userSpaceOnUse" r="1"><stop offset="0" stop-color="#c7bed2"/><stop offset="1" stop-color="#c7bed2" stop-opacity="0"/></radialGradient><linearGradient id="z" gradientUnits="userSpaceOnUse" x1="16" x2="16" y1="3.624" y2="4.904"><stop offset=".3" stop-color="#fafafa"/><stop offset="1" stop-color="#fafafa" stop-opacity="0"/></linearGradient><linearGradient id="A" gradientUnits="userSpaceOnUse" x1="25.871" x2="25.871" xlink:href="#q" y1="27.778" y2="30"/><linearGradient id="B" gradientUnits="userSpaceOnUse" x1="23" x2="23.729" xlink:href="#s" y1="27.992" y2="27.992"/><linearGradient id="C" gradientUnits="userSpaceOnUse" x1="25.138" x2="25.138" xlink:href="#u" y1="30.296" y2="29.61"/><linearGradient id="D" gradientUnits="userSpaceOnUse" x1="16" x2="16" y1="24.355" y2="27"><stop offset="0" stop-color="#f6c34a"/><stop offset="1" stop-color="#d99d43"/></linearGradient><linearGradient id="E" gradientUnits="userSpaceOnUse" x1="30.43" x2="25.458" y1="27" y2="27"><stop offset="0" stop-color="#98732c"/><stop offset="1" stop-color="#98732c" stop-opacity="0"/></linearGradient><linearGradient id="F" gradientUnits="userSpaceOnUse" x1="5" x2="6.708" y1="27" y2="27"><stop offset="0" stop-color="#c6a860"/><stop offset="1" stop-color="#c6a860" stop-opacity="0"/></linearGradient><linearGradient id="G"><stop offset="0" stop-color="#302a3a"/><stop offset="1" stop-color="#32293e"/></linearGradient><linearGradient id="H" gradientUnits="userSpaceOnUse" x1="27" x2="28" xlink:href="#G" y1="15.003" y2="15.003"/><linearGradient id="I"><stop offset="0" stop-color="#1e0e2d"/><stop offset="1" stop-color="#1e0e2d" stop-opacity="0"/></linearGradient><linearGradient id="J" gradientUnits="userSpaceOnUse" x1="27.55" x2="27.55" xlink:href="#I" y1="16" y2="15.813"/><linearGradient id="K"><stop offset="0" stop-color="#271e33"/><stop offset="1" stop-color="#271e33" stop-opacity="0"/></linearGradient><linearGradient id="L" gradientUnits="userSpaceOnUse" x1="26.956" x2="27.136" xlink:href="#K" y1="15.195" y2="15.195"/><linearGradient id="M" gradientUnits="userSpaceOnUse" x1="28" x2="27.745" xlink:href="#K" y1="15.195" y2="15.195"/><linearGradient id="N"><stop offset="0" stop-color="#4c4656"/><stop offset="1" stop-color="#4c4656" stop-opacity="0"/></linearGradient><linearGradient id="O" gradientUnits="userSpaceOnUse" x1="27.862" x2="27.862" xlink:href="#N" y1="14.031" y2="14.195"/><linearGradient id="P" gradientUnits="userSpaceOnUse" x1="3" x2="4" xlink:href="#G" y1="15.003" y2="15.003"/><linearGradient id="Q" gradientUnits="userSpaceOnUse" x1="3.55" x2="3.55" xlink:href="#I" y1="16" y2="15.813"/><linearGradient id="R" gradientUnits="userSpaceOnUse" x1="2.956" x2="3.136" xlink:href="#K" y1="15.195" y2="15.195"/><linearGradient id="S" gradientUnits="userSpaceOnUse" x1="4" x2="3.745" xlink:href="#K" y1="15.195" y2="15.195"/><linearGradient id="T" gradientUnits="userSpaceOnUse" x1="3.862" x2="3.862" xlink:href="#N" y1="14.031" y2="14.195"/><linearGradient id="U"><stop offset="0" stop-color="#2b2533"/><stop offset="1" stop-color="#342943"/></linearGradient><linearGradient id="V" gradientUnits="userSpaceOnUse" x1="3.503" x2="3.503" xlink:href="#U" y1="17" y2="12.438"/><linearGradient id="W"><stop offset=".222" stop-color="#4c4457"/><stop offset="1" stop-color="#4c4457" stop-opacity="0"/></linearGradient><linearGradient id="X" gradientUnits="userSpaceOnUse" x1="3" x2="3" xlink:href="#W" y1="12" y2="12.703"/><linearGradient id="Y" gradientUnits="userSpaceOnUse" x1="29.503" x2="29.503" xlink:href="#U" y1="17" y2="12.438"/><linearGradient id="Z" gradientUnits="userSpaceOnUse" x1="29" x2="29" xlink:href="#W" y1="12" y2="12.703"/><linearGradient id="aa" gradientUnits="userSpaceOnUse" x1="16.417" x2="16.417" y1="19.537" y2="10.213"><stop offset="0" stop-color="#dfdde3"/><stop offset="1" stop-color="#dfdde3" stop-opacity="0"/></linearGradient><linearGradient id="ab" gradientUnits="userSpaceOnUse" x1="7" x2="25" y1="14.498" y2="14.5"><stop offset="0" stop-color="#2a99f1"/><stop offset="1" stop-color="#41b0e5"/></linearGradient><linearGradient id="ac" gradientUnits="userSpaceOnUse" x1="6.472" x2="7.472" y1="15.656" y2="15.656"><stop offset="0" stop-color="#0787e1"/><stop offset="1" stop-color="#0787e1" stop-opacity="0"/></linearGradient><linearGradient id="ad" gradientUnits="userSpaceOnUse" x1="16" x2="16" y1="9.695" y2="12.002"><stop offset=".159" stop-color="#144e97"/><stop offset="1" stop-color="#144e97" stop-opacity="0"/></linearGradient><linearGradient id="ae" gradientUnits="userSpaceOnUse" x1="16" x2="16" y1="10" y2="10.223"><stop offset="0" stop-color="#1f53a9"/><stop offset="1" stop-color="#1e53aa" stop-opacity="0"/></linearGradient><radialGradient id="af" cx="0" cy="0" gradientTransform="matrix(0 -5.0625 7.0625 0 19.1905 21.25)" gradientUnits="userSpaceOnUse" r="1"><stop offset="0" stop-color="#3acafc"/><stop offset="1" stop-color="#3acafc" stop-opacity="0"/></radialGradient><linearGradient id="ag"><stop offset="0" stop-color="#ffde69"/><stop offset="1" stop-color="#ca9049"/></linearGradient><linearGradient id="ah" gradientUnits="userSpaceOnUse" x1="16.185" x2="16.185" xlink:href="#ag" y1="23.781" y2="23.024"/><linearGradient id="ai" gradientUnits="userSpaceOnUse" x1="16.278" x2="16.278" xlink:href="#ag" y1="21.781" y2="21.024"/><linearGradient id="aj" gradientUnits="userSpaceOnUse" x1="7.675" x2="6.722" y1="25.141" y2="23.938"><stop offset="0" stop-color="#ffde69"/><stop offset="1" stop-color="#ffde69" stop-opacity="0"/></linearGradient><linearGradient id="ak" gradientUnits="userSpaceOnUse" x1="6.36" x2="7.766" y1="23" y2="20.897"><stop offset="0" stop-color="#ca9049" stop-opacity="0"/><stop offset="1" stop-color="#ca9049"/></linearGradient><linearGradient id="al" gradientUnits="userSpaceOnUse" x1="6.5" x2="6.5" y1="21" y2="25"><stop offset="0" stop-color="#beb0bf"/><stop offset="1" stop-color="#f3f0e9"/></linearGradient><linearGradient id="am" gradientUnits="userSpaceOnUse" x1="24.441" x2="26.001" y1="25.094" y2="23.625"><stop offset="0" stop-color="#f4c86e"/><stop offset="1" stop-color="#f4c86e" stop-opacity="0"/></linearGradient><linearGradient id="an" gradientUnits="userSpaceOnUse" x1="24.806" x2="26.96" y1="22.827" y2="20.719"><stop offset="0" stop-color="#8e5d32" stop-opacity="0"/><stop offset="1" stop-color="#8e5d32"/></linearGradient><linearGradient id="ao" gradientUnits="userSpaceOnUse" x1="25.5" x2="25.5" y1="21" y2="25"><stop offset="0" stop-color="#b1a2b4"/><stop offset="1" stop-color="#ebe7e2"/></linearGradient><linearGradient id="ap" gradientUnits="userSpaceOnUse" x1="27.431" x2="26.471" y1="23.36" y2="23.36"><stop offset="0" stop-color="#ccc0cd"/><stop offset="1" stop-color="#ccc0cd" stop-opacity="0"/></linearGradient><linearGradient id="aq" gradientUnits="userSpaceOnUse" x1="25.004" x2="25.055" y1="25.433" y2="24.093"><stop offset="0" stop-color="#ede8e2"/><stop offset="1" stop-color="#ede8e2" stop-opacity="0"/></linearGradient><linearGradient id="ar" gradientUnits="userSpaceOnUse" x1="23.563" x2="25.737" y1="21" y2="23"><stop offset=".09" stop-color="#b3a1b8"/><stop offset="1" stop-color="#b3a1b8" stop-opacity="0"/></linearGradient><linearGradient id="as" gradientUnits="userSpaceOnUse" x1="7" x2="24.004" y1="8.503" y2="8.503"><stop offset="0" stop-color="#2b2731"/><stop offset="1" stop-color="#362a46"/></linearGradient><linearGradient id="at" gradientUnits="userSpaceOnUse" x1="8.179" x2="23.266" y1="18.692" y2="18.692"><stop offset="0" stop-color="#4ab8ff"/><stop offset="1" stop-color="#50cefc"/></linearGradient><path d="m8.06 30h-2.12c-.52 0-.94-.42-.94-.94v-4.11c0-.52.42-.95.94-.95h2.11c.53 0 .95.43.95.95v4.11c0 .52-.42.94-.94.94z" fill="url(#r)"/><path d="m8.06 30h-2.12c-.52 0-.94-.42-.94-.94v-4.11c0-.52.42-.95.94-.95h2.11c.53 0 .95.43.95.95v4.11c0 .52-.42.94-.94.94z" fill="url(#t)"/><path d="m8.06 30h-2.12c-.52 0-.94-.42-.94-.94v-4.11c0-.52.42-.95.94-.95h2.11c.53 0 .95.43.95.95v4.11c0 .52-.42.94-.94.94z" fill="url(#v)"/><g filter="url(#a)"><path d="m23.59 4h-15.18c-1.89 0-3.41 1.47-3.41 3.29v14.266h22v-14.266c0-1.82-1.52-3.29-3.41-3.29z" fill="url(#w)"/></g><path d="m23.59 4h-15.18c-1.89 0-3.41 1.47-3.41 3.29v14.266h22v-14.266c0-1.82-1.52-3.29-3.41-3.29z" fill="url(#x)"/><path d="m23.59 4h-15.18c-1.89 0-3.41 1.47-3.41 3.29v14.266h22v-14.266c0-1.82-1.52-3.29-3.41-3.29z" fill="url(#y)"/><path d="m23.59 4h-15.18c-1.89 0-3.41 1.47-3.41 3.29v14.266h22v-14.266c0-1.82-1.52-3.29-3.41-3.29z" fill="url(#z)"/><path d="m26.06 30h-2.11c-.53 0-.95-.42-.95-.94v-4.11c0-.52.42-.94.94-.94h2.11c.52 0 .94.42.94.94v4.11c.01.52-.41.94-.93.94z" fill="url(#A)"/><path d="m26.06 30h-2.11c-.53 0-.95-.42-.95-.94v-4.11c0-.52.42-.94.94-.94h2.11c.52 0 .94.42.94.94v4.11c.01.52-.41.94-.93.94z" fill="url(#B)"/><path d="m26.06 30h-2.11c-.53 0-.95-.42-.95-.94v-4.11c0-.52.42-.94.94-.94h2.11c.52 0 .94.42.94.94v4.11c.01.52-.41.94-.93.94z" fill="url(#C)"/><g filter="url(#b)"><path d="m5 20v5.58c0 .79.64001 1.42 1.42001 1.42h19.15999c.78 0 1.42-.63 1.42-1.42v-5.58z" fill="url(#D)"/></g><path d="m5 20v5.58c0 .79.64001 1.42 1.42001 1.42h19.15999c.78 0 1.42-.63 1.42-1.42v-5.58z" fill="url(#E)"/><path d="m5 20v5.58c0 .79.64001 1.42 1.42001 1.42h19.15999c.78 0 1.42-.63 1.42-1.42v-5.58z" fill="url(#F)"/><path d="m27 16h2v-2h-2z" fill="url(#H)"/><path d="m27 16h2v-2h-2z" fill="url(#J)"/><path d="m27 16h2v-2h-2z" fill="url(#L)"/><path d="m27 16h2v-2h-2z" fill="url(#M)"/><path d="m27 16h2v-2h-2z" fill="url(#O)"/><path d="m5 14h-2v2h2z" fill="url(#P)"/><path d="m5 14h-2v2h2z" fill="url(#Q)"/><path d="m5 14h-2v2h2z" fill="url(#R)"/><path d="m5 14h-2v2h2z" fill="url(#S)"/><path d="m5 14h-2v2h2z" fill="url(#T)"/><g filter="url(#c)"><path d="m2.78 17h.44c.43 0 .78-.35.78-.78v-3.44c0-.43-.35-.78-.78-.78h-.44c-.43 0-.78.35-.78.78v3.44c0 .43.35.78.78.78z" fill="url(#V)"/><path d="m2.78 17h.44c.43 0 .78-.35.78-.78v-3.44c0-.43-.35-.78-.78-.78h-.44c-.43 0-.78.35-.78.78v3.44c0 .43.35.78.78.78z" fill="url(#X)"/></g><g filter="url(#d)"><path d="m28.78 17h.44c.43 0 .78-.35.78-.78v-3.44c0-.43-.35-.78-.78-.78h-.44c-.43 0-.78.35-.78.78v3.44c0 .43.35.78.78.78z" fill="url(#Y)"/><path d="m28.78 17h.44c.43 0 .78-.35.78-.78v-3.44c0-.43-.35-.78-.78-.78h-.44c-.43 0-.78.35-.78.78v3.44c0 .43.35.78.78.78z" fill="url(#Z)"/></g><g filter="url(#e)"><path d="m24.01 19h-16.02c-.55 0-.99-.45-.99-.99v-8.01h18v8.01c0 .54-.44.99-.99.99z" stroke="url(#aa)" stroke-width=".2"/></g><g filter="url(#f)"><path d="m24.01 19h-16.02c-.55 0-.99-.45-.99-.99v-8.01h18v8.01c0 .54-.44.99-.99.99z" fill="url(#ab)"/></g><path d="m24.01 19h-16.02c-.55 0-.99-.45-.99-.99v-8.01h18v8.01c0 .54-.44.99-.99.99z" fill="url(#ac)"/><path d="m24.01 19h-16.02c-.55 0-.99-.45-.99-.99v-8.01h18v8.01c0 .54-.44.99-.99.99z" fill="url(#ad)"/><path d="m24.01 19h-16.02c-.55 0-.99-.45-.99-.99v-8.01h18v8.01c0 .54-.44.99-.99.99z" fill="url(#ae)"/><path d="m24.01 19h-16.02c-.55 0-.99-.45-.99-.99v-8.01h18v8.01c0 .54-.44.99-.99.99z" fill="url(#af)"/><g filter="url(#g)"><path d="m19.5 24h-7c-.28 0-.5-.22-.5-.5s.22-.5.5-.5h7c.28 0 .5.22.5.5s-.22.5-.5.5z" stroke="url(#ah)" stroke-width=".2"/></g><g filter="url(#h)"><path d="m19.5 24h-7c-.28 0-.5-.22-.5-.5s.22-.5.5-.5h7c.28 0 .5.22.5.5s-.22.5-.5.5z" fill="#656466"/></g><g filter="url(#i)"><path d="m21.5 22h-11c-.28 0-.5-.22-.5-.5 0-.27.22-.5.5-.5h11c.28 0 .5.22.5.5s-.22.5-.5.5z" stroke="url(#ai)" stroke-width=".2"/></g><g filter="url(#j)"><path d="m21.5 22h-11c-.28 0-.5-.22-.5-.5 0-.27.22-.5.5-.5h11c.28 0 .5.22.5.5s-.22.5-.5.5z" fill="#656466"/></g><g filter="url(#k)" stroke-width=".15"><path d="m7.99997 22c0-.55-.42612-1-.94693-1h-1.89386v4h1.89386c.52081 0 .94693-.45.94693-1z" stroke="url(#aj)"/><path d="m7.99997 22c0-.55-.42612-1-.94693-1h-1.89386v4h1.89386c.52081 0 .94693-.45.94693-1z" stroke="url(#ak)"/></g><g filter="url(#l)"><path d="m8 22c0-.55-.45-1-1-1h-2v4h2c.55 0 1-.45 1-1z" fill="url(#al)"/></g><g filter="url(#m)" stroke-width=".15"><path d="m24 24c0 .55.4349 1 .9665 1h1.9331v-4h-1.9331c-.5316 0-.9665.45-.9665 1z" stroke="url(#am)"/><path d="m24 24c0 .55.4349 1 .9665 1h1.9331v-4h-1.9331c-.5316 0-.9665.45-.9665 1z" stroke="url(#an)"/></g><g filter="url(#n)"><path d="m24 24c0 .55.45 1 1 1h2v-4h-2c-.55 0-1 .45-1 1z" fill="url(#ao)"/></g><path d="m24 24c0 .55.45 1 1 1h2v-4h-2c-.55 0-1 .45-1 1z" fill="url(#ap)"/><path d="m24 24c0 .55.45 1 1 1h2v-4h-2c-.55 0-1 .45-1 1z" fill="url(#aq)"/><path d="m24 24c0 .55.45 1 1 1h2v-4h-2c-.55 0-1 .45-1 1z" fill="url(#ar)"/><g filter="url(#o)"><path d="m25 10h-18v-2.01c0-.55.44-.99.99-.99h16.03c.54 0 .98.44.98.99z" fill="url(#as)"/></g><g filter="url(#p)"><path d="m7.8103 18.1384h16.0554" stroke="url(#at)" stroke-linecap="round" stroke-width=".25"/></g></svg>