<svg fill="none" height="32" viewBox="0 0 32 32" width="32" xmlns="http://www.w3.org/2000/svg" xmlns:xlink="http://www.w3.org/1999/xlink"><filter id="a" color-interpolation-filters="sRGB" filterUnits="userSpaceOnUse" height="11" width="27" x="2" y="15"><feFlood flood-opacity="0" result="BackgroundImageFix"/><feBlend in="SourceGraphic" in2="BackgroundImageFix" mode="normal" result="shape"/><feColorMatrix in="SourceAlpha" result="hardAlpha" type="matrix" values="0 0 0 0 0 0 0 0 0 0 0 0 0 0 0 0 0 0 127 0"/><feOffset dx="1"/><feGaussianBlur stdDeviation=".5"/><feComposite in2="hardAlpha" k2="-1" k3="1" operator="arithmetic"/><feColorMatrix type="matrix" values="0 0 0 0 0.211765 0 0 0 0 0.521569 0 0 0 0 0.305882 0 0 0 1 0"/><feBlend in2="shape" mode="normal" result="effect1_innerShadow_18_10906"/></filter><filter id="b" color-interpolation-filters="sRGB" filterUnits="userSpaceOnUse" height="6.5" width="8.788" x="4.5" y="19.635"><feFlood flood-opacity="0" result="BackgroundImageFix"/><feBlend in="SourceGraphic" in2="BackgroundImageFix" mode="normal" result="shape"/><feGaussianBlur result="effect1_foregroundBlur_18_10906" stdDeviation=".375"/></filter><filter id="c" color-interpolation-filters="sRGB" filterUnits="userSpaceOnUse" height="11.15" width="11" x="19" y="18.01"><feFlood flood-opacity="0" result="BackgroundImageFix"/><feBlend in="SourceGraphic" in2="BackgroundImageFix" mode="normal" result="shape"/><feColorMatrix in="SourceAlpha" result="hardAlpha" type="matrix" values="0 0 0 0 0 0 0 0 0 0 0 0 0 0 0 0 0 0 127 0"/><feOffset/><feGaussianBlur stdDeviation=".5"/><feComposite in2="hardAlpha" k2="-1" k3="1" operator="arithmetic"/><feColorMatrix type="matrix" values="0 0 0 0 0.145098 0 0 0 0 0.0823529 0 0 0 0 0.215686 0 0 0 1 0"/><feBlend in2="shape" mode="normal" result="effect1_innerShadow_18_10906"/><feColorMatrix in="SourceAlpha" result="hardAlpha" type="matrix" values="0 0 0 0 0 0 0 0 0 0 0 0 0 0 0 0 0 0 127 0"/><feOffset dy=".15"/><feGaussianBlur stdDeviation=".125"/><feComposite in2="hardAlpha" k2="-1" k3="1" operator="arithmetic"/><feColorMatrix type="matrix" values="0 0 0 0 0.207843 0 0 0 0 0.0313726 0 0 0 0 0.235294 0 0 0 1 0"/><feBlend in2="effect1_innerShadow_18_10906" mode="normal" result="effect2_innerShadow_18_10906"/></filter><filter id="d" color-interpolation-filters="sRGB" filterUnits="userSpaceOnUse" height="4.131" width="4.131" x="22.434" y="21.445"><feFlood flood-opacity="0" result="BackgroundImageFix"/><feBlend in="SourceGraphic" in2="BackgroundImageFix" mode="normal" result="shape"/><feColorMatrix in="SourceAlpha" result="hardAlpha" type="matrix" values="0 0 0 0 0 0 0 0 0 0 0 0 0 0 0 0 0 0 127 0"/><feOffset dx=".05" dy="-.05"/><feGaussianBlur stdDeviation=".05"/><feComposite in2="hardAlpha" k2="-1" k3="1" operator="arithmetic"/><feColorMatrix type="matrix" values="0 0 0 0 0.478431 0 0 0 0 0.364706 0 0 0 0 0.584314 0 0 0 1 0"/><feBlend in2="shape" mode="normal" result="effect1_innerShadow_18_10906"/><feColorMatrix in="SourceAlpha" result="hardAlpha" type="matrix" values="0 0 0 0 0 0 0 0 0 0 0 0 0 0 0 0 0 0 127 0"/><feOffset dx="-.05" dy=".05"/><feGaussianBlur stdDeviation=".05"/><feComposite in2="hardAlpha" k2="-1" k3="1" operator="arithmetic"/><feColorMatrix type="matrix" values="0 0 0 0 0.807843 0 0 0 0 0.764706 0 0 0 0 0.858824 0 0 0 1 0"/><feBlend in2="effect1_innerShadow_18_10906" mode="normal" result="effect2_innerShadow_18_10906"/></filter><filter id="e" color-interpolation-filters="sRGB" filterUnits="userSpaceOnUse" height="9.051" width="12.781" x="15.625" y="15.717"><feFlood flood-opacity="0" result="BackgroundImageFix"/><feBlend in="SourceGraphic" in2="BackgroundImageFix" mode="normal" result="shape"/><feGaussianBlur result="effect1_foregroundBlur_18_10906" stdDeviation=".375"/></filter><filter id="f" color-interpolation-filters="sRGB" filterUnits="userSpaceOnUse" height="5.25" width="7.49" x="5.52" y="19.76"><feFlood flood-opacity="0" result="BackgroundImageFix"/><feBlend in="SourceGraphic" in2="BackgroundImageFix" mode="normal" result="shape"/><feColorMatrix in="SourceAlpha" result="hardAlpha" type="matrix" values="0 0 0 0 0 0 0 0 0 0 0 0 0 0 0 0 0 0 127 0"/><feOffset dy="-.25"/><feGaussianBlur stdDeviation=".25"/><feComposite in2="hardAlpha" k2="-1" k3="1" operator="arithmetic"/><feColorMatrix type="matrix" values="0 0 0 0 0.0705882 0 0 0 0 0.239216 0 0 0 0 0.290196 0 0 0 1 0"/><feBlend in2="shape" mode="normal" result="effect1_innerShadow_18_10906"/></filter><filter id="g" color-interpolation-filters="sRGB" filterUnits="userSpaceOnUse" height="7.75" width="13.01" x="17" y="15.75"><feFlood flood-opacity="0" result="BackgroundImageFix"/><feBlend in="SourceGraphic" in2="BackgroundImageFix" mode="normal" result="shape"/><feColorMatrix in="SourceAlpha" result="hardAlpha" type="matrix" values="0 0 0 0 0 0 0 0 0 0 0 0 0 0 0 0 0 0 127 0"/><feOffset dy="-.25"/><feGaussianBlur stdDeviation=".25"/><feComposite in2="hardAlpha" k2="-1" k3="1" operator="arithmetic"/><feColorMatrix type="matrix" values="0 0 0 0 0.0705882 0 0 0 0 0.239216 0 0 0 0 0.290196 0 0 0 1 0"/><feBlend in2="shape" mode="normal" result="effect1_innerShadow_18_10906"/></filter><filter id="h" color-interpolation-filters="sRGB" filterUnits="userSpaceOnUse" height="7.15" width="7" x="4.02" y="22.01"><feFlood flood-opacity="0" result="BackgroundImageFix"/><feBlend in="SourceGraphic" in2="BackgroundImageFix" mode="normal" result="shape"/><feColorMatrix in="SourceAlpha" result="hardAlpha" type="matrix" values="0 0 0 0 0 0 0 0 0 0 0 0 0 0 0 0 0 0 127 0"/><feOffset/><feGaussianBlur stdDeviation=".5"/><feComposite in2="hardAlpha" k2="-1" k3="1" operator="arithmetic"/><feColorMatrix type="matrix" values="0 0 0 0 0.145098 0 0 0 0 0.0823529 0 0 0 0 0.215686 0 0 0 1 0"/><feBlend in2="shape" mode="normal" result="effect1_innerShadow_18_10906"/><feColorMatrix in="SourceAlpha" result="hardAlpha" type="matrix" values="0 0 0 0 0 0 0 0 0 0 0 0 0 0 0 0 0 0 127 0"/><feOffset dy=".15"/><feGaussianBlur stdDeviation=".125"/><feComposite in2="hardAlpha" k2="-1" k3="1" operator="arithmetic"/><feColorMatrix type="matrix" values="0 0 0 0 0.207843 0 0 0 0 0.0313726 0 0 0 0 0.235294 0 0 0 1 0"/><feBlend in2="effect1_innerShadow_18_10906" mode="normal" result="effect2_innerShadow_18_10906"/></filter><filter id="i" color-interpolation-filters="sRGB" filterUnits="userSpaceOnUse" height="2.647" width="2.647" x="6.197" y="24.187"><feFlood flood-opacity="0" result="BackgroundImageFix"/><feBlend in="SourceGraphic" in2="BackgroundImageFix" mode="normal" result="shape"/><feColorMatrix in="SourceAlpha" result="hardAlpha" type="matrix" values="0 0 0 0 0 0 0 0 0 0 0 0 0 0 0 0 0 0 127 0"/><feOffset dx=".05" dy="-.05"/><feGaussianBlur stdDeviation=".05"/><feComposite in2="hardAlpha" k2="-1" k3="1" operator="arithmetic"/><feColorMatrix type="matrix" values="0 0 0 0 0.478431 0 0 0 0 0.364706 0 0 0 0 0.584314 0 0 0 1 0"/><feBlend in2="shape" mode="normal" result="effect1_innerShadow_18_10906"/><feColorMatrix in="SourceAlpha" result="hardAlpha" type="matrix" values="0 0 0 0 0 0 0 0 0 0 0 0 0 0 0 0 0 0 127 0"/><feOffset dx="-.05" dy=".05"/><feGaussianBlur stdDeviation=".05"/><feComposite in2="hardAlpha" k2="-1" k3="1" operator="arithmetic"/><feColorMatrix type="matrix" values="0 0 0 0 0.807843 0 0 0 0 0.764706 0 0 0 0 0.858824 0 0 0 1 0"/><feBlend in2="effect1_innerShadow_18_10906" mode="normal" result="effect2_innerShadow_18_10906"/></filter><filter id="j" color-interpolation-filters="sRGB" filterUnits="userSpaceOnUse" height="7.031" width="7.031" x="4.188" y="21.719"><feFlood flood-opacity="0" result="BackgroundImageFix"/><feBlend in="SourceGraphic" in2="BackgroundImageFix" mode="normal" result="shape"/><feGaussianBlur result="effect1_foregroundBlur_18_10906" stdDeviation=".375"/></filter><filter id="k" color-interpolation-filters="sRGB" filterUnits="userSpaceOnUse" height="9.875" width="9.875" x="19.969" y="18.219"><feFlood flood-opacity="0" result="BackgroundImageFix"/><feBlend in="SourceGraphic" in2="BackgroundImageFix" mode="normal" result="shape"/><feGaussianBlur result="effect1_foregroundBlur_18_10906" stdDeviation=".375"/></filter><filter id="l" color-interpolation-filters="sRGB" filterUnits="userSpaceOnUse" height="4.499" width="7.242" x="5.687" y="20.01"><feFlood flood-opacity="0" result="BackgroundImageFix"/><feBlend in="SourceGraphic" in2="BackgroundImageFix" mode="normal" result="shape"/><feGaussianBlur result="effect1_foregroundBlur_18_10906" stdDeviation=".125"/></filter><filter id="m" color-interpolation-filters="sRGB" filterUnits="userSpaceOnUse" height="6.939" width="12.781" x="17.094" y="16.092"><feFlood flood-opacity="0" result="BackgroundImageFix"/><feBlend in="SourceGraphic" in2="BackgroundImageFix" mode="normal" result="shape"/><feGaussianBlur result="effect1_foregroundBlur_18_10906" stdDeviation=".125"/></filter><linearGradient id="n" gradientUnits="userSpaceOnUse" x1="24.875" x2="2.625" y1="17.004" y2="17.004"><stop offset="0" stop-color="#37bc6e"/><stop offset="1" stop-color="#47d086"/></linearGradient><linearGradient id="o" gradientUnits="userSpaceOnUse" x1="15.828" x2="15.828" y1="26.618" y2="23.923"><stop offset="0" stop-color="#293a5e"/><stop offset="1" stop-color="#293a5e" stop-opacity="0"/></linearGradient><radialGradient id="p" cx="0" cy="0" gradientTransform="matrix(-1.4822354 4.40183182 -2.6368306 -.8879039 20.9033 23.6085)" gradientUnits="userSpaceOnUse" r="1"><stop offset=".635" stop-color="#293a5e"/><stop offset="1" stop-color="#293a5e" stop-opacity="0"/></radialGradient><linearGradient id="q" gradientUnits="userSpaceOnUse" x1="15" x2="15" y1="26" y2="25.594"><stop offset="0" stop-color="#464274"/><stop offset="1" stop-color="#464274" stop-opacity="0"/></linearGradient><linearGradient id="r" gradientUnits="userSpaceOnUse" x1="15" x2="15" y1="15" y2="17.475"><stop offset=".161" stop-color="#45f18a"/><stop offset="1" stop-color="#45f18a" stop-opacity="0"/></linearGradient><linearGradient id="s" gradientUnits="userSpaceOnUse" x1="9.688" x2="9.688" y1="19" y2="17.429"><stop offset="0" stop-color="#36c570"/><stop offset="1" stop-color="#36c570" stop-opacity="0"/></linearGradient><linearGradient id="t"><stop offset=".239" stop-color="#34214f"/><stop offset="1" stop-color="#241337"/></linearGradient><linearGradient id="u" gradientUnits="userSpaceOnUse" x1="21.964" x2="30.225" xlink:href="#t" y1="22.127" y2="22.127"/><linearGradient id="v"><stop offset=".523" stop-color="#2d114d"/><stop offset="1" stop-color="#2b1249" stop-opacity="0"/></linearGradient><radialGradient id="w" cx="0" cy="0" gradientTransform="matrix(1.24272906 -2.73154268 2.85300323 1.29798815 24.5 23.018)" gradientUnits="userSpaceOnUse" r="1" xlink:href="#v"/><radialGradient id="x" cx="0" cy="0" gradientTransform="matrix(1.01562631 .67187666 -.75497364 1.14123788 26 23.8906)" gradientUnits="userSpaceOnUse" r="1"><stop offset="0" stop-color="#392a49"/><stop offset="1" stop-color="#392a49" stop-opacity="0"/></radialGradient><linearGradient id="y"><stop offset="0" stop-color="#272859"/><stop offset="1" stop-color="#272859" stop-opacity="0"/></linearGradient><linearGradient id="z" gradientUnits="userSpaceOnUse" x1="12.375" x2="12.375" xlink:href="#y" y1="25.375" y2="24.531"/><linearGradient id="A" gradientUnits="userSpaceOnUse" x1="28.907" x2="28.907" xlink:href="#y" y1="24.047" y2="22.782"/><linearGradient id="B" gradientUnits="userSpaceOnUse" x1="5.906" x2="11.163" xlink:href="#t" y1="24.63" y2="24.63"/><radialGradient id="C" cx="0" cy="0" gradientTransform="matrix(.79082946 -1.73825857 1.81554586 .8259917 7.52002 25.1969)" gradientUnits="userSpaceOnUse" r="1" xlink:href="#v"/><linearGradient id="D" gradientUnits="userSpaceOnUse" x1="19.269" x2="19.269" y1="5.721" y2="12.691"><stop offset="0" stop-color="#2a80d7"/><stop offset="1" stop-color="#46fafa"/></linearGradient><linearGradient id="E" gradientUnits="userSpaceOnUse" x1="25.909" x2="23.84" y1="12.466" y2="12.466"><stop offset="0" stop-color="#37c3da"/><stop offset="1" stop-color="#37c3da" stop-opacity="0"/></linearGradient><linearGradient id="F" gradientUnits="userSpaceOnUse" x1="18" x2="18" y1="7.242" y2="11.234"><stop offset="0" stop-color="#2066c3"/><stop offset="1" stop-color="#2066c3" stop-opacity="0"/></linearGradient><linearGradient id="G"><stop offset="0" stop-color="#290941"/><stop offset="1" stop-color="#1a0726"/></linearGradient><linearGradient id="H" gradientUnits="userSpaceOnUse" x1="3.265" x2="4.112" xlink:href="#G" y1="20.5" y2="20.488"/><linearGradient id="I"><stop offset="0" stop-color="#352938"/><stop offset="1" stop-color="#352938" stop-opacity="0"/></linearGradient><radialGradient id="J" cx="0" cy="0" gradientTransform="matrix(-.35585854 -.16434683 .16004546 -.34654483 4 20.7361)" gradientUnits="userSpaceOnUse" r="1" xlink:href="#I"/><linearGradient id="K" gradientUnits="userSpaceOnUse" x1="3.265" x2="4.112" xlink:href="#G" y1="18.5" y2="18.488"/><radialGradient id="L" cx="0" cy="0" gradientTransform="matrix(-.35585854 -.16434683 .16004546 -.34654483 4 18.7362)" gradientUnits="userSpaceOnUse" r="1" xlink:href="#I"/><linearGradient id="M" gradientUnits="userSpaceOnUse" x1="3.265" x2="4.112" xlink:href="#G" y1="22.5" y2="22.488"/><radialGradient id="N" cx="0" cy="0" gradientTransform="matrix(-.35585854 -.16434683 .16004546 -.34654483 4 22.7361)" gradientUnits="userSpaceOnUse" r="1" xlink:href="#I"/><linearGradient id="O" gradientUnits="userSpaceOnUse" x1="18.124" x2="18.124" y1="6.405" y2="7.834"><stop offset="0" stop-color="#4fea8c"/><stop offset="1" stop-color="#00d263"/><stop offset="1" stop-color="#19965f"/></linearGradient><linearGradient id="P" gradientUnits="userSpaceOnUse" x1="21.063" x2="21.063" y1="8.469" y2="7.5"><stop offset="0" stop-color="#1a9461"/><stop offset="1" stop-color="#1a9461" stop-opacity="0"/></linearGradient><radialGradient id="Q" cx="0" cy="0" gradientTransform="matrix(-9.69207771 -5.11307982 3.00779611 -5.70141573 23.692 11.1131)" gradientUnits="userSpaceOnUse" r="1"><stop offset=".895" stop-color="#419f64" stop-opacity="0"/><stop offset="1" stop-color="#419f64"/></radialGradient><linearGradient id="R" gradientUnits="userSpaceOnUse" x1="20" x2="20" y1="6" y2="6.078"><stop offset="0" stop-color="#4bd780"/><stop offset="1" stop-color="#4bd780" stop-opacity="0"/></linearGradient><linearGradient id="S"><stop offset=".083" stop-color="#615b6b"/><stop offset=".391" stop-color="#615b6b" stop-opacity="0"/><stop offset=".692" stop-color="#615b6b" stop-opacity="0"/><stop offset=".935" stop-color="#615b6b"/></linearGradient><linearGradient id="T" gradientUnits="userSpaceOnUse" x1="9.489" x2="5.883" xlink:href="#S" y1="22.844" y2="27.1"/><linearGradient id="U" gradientUnits="userSpaceOnUse" x1="27.66" x2="22.098" xlink:href="#S" y1="19.469" y2="26.034"/><linearGradient id="V" gradientUnits="userSpaceOnUse" x1="9.047" x2="9.75" y1="14.969" y2="14.969"><stop offset="0" stop-color="#b4a5b9"/><stop offset="1" stop-color="#d6cde0"/></linearGradient><radialGradient id="W" cx="0" cy="0" gradientTransform="matrix(.82812438 -.3437504 .28038295 .67546673 10.2031 12.1875)" gradientUnits="userSpaceOnUse" r="1"><stop offset="0" stop-color="#f0edf3"/><stop offset="1" stop-color="#f0edf3" stop-opacity="0"/></radialGradient><linearGradient id="X" gradientUnits="userSpaceOnUse" x1="9.656" x2="9.656" y1="17.109" y2="16.422"><stop offset="0" stop-color="#744498"/><stop offset="1" stop-color="#744498" stop-opacity="0"/></linearGradient><linearGradient id="Y" gradientUnits="userSpaceOnUse" x1="9.047" x2="9.281" y1="14.375" y2="14.375"><stop offset="0" stop-color="#8c7d88"/><stop offset="1" stop-color="#8c7d88" stop-opacity="0"/></linearGradient><linearGradient id="Z" gradientUnits="userSpaceOnUse" x1="10.094" x2="9.047" y1="13.888" y2="13.888"><stop offset="0" stop-color="#30144d"/><stop offset="1" stop-color="#44335c"/></linearGradient><linearGradient id="aa"><stop offset="0" stop-color="#3e8f75"/><stop offset="1" stop-color="#3e8f75" stop-opacity="0"/></linearGradient><linearGradient id="ab" gradientUnits="userSpaceOnUse" x1="6.795" x2="13.347" xlink:href="#aa" y1="20.146" y2="21.916"/><linearGradient id="ac" gradientUnits="userSpaceOnUse" x1="18.772" x2="30.3" xlink:href="#aa" y1="16.015" y2="19.337"/><path d="m26 8h-1v9.0001h1z" fill="#008461"/><g filter="url(#a)"><path d="m25.5619 15.0001c1.3489 0 2.4381 1.088 2.4381 2.4356v5.8194c0 1.5173-1.2291 2.745-2.7479 2.745h-21.25363c-1.09918 0-1.99847-.8983-1.99847-1.9963v-5.9737c0-1.5301 1.5-3.03 3-3.03z" fill="url(#n)"/><path d="m25.5619 15.0001c1.3489 0 2.4381 1.088 2.4381 2.4356v5.8194c0 1.5173-1.2291 2.745-2.7479 2.745h-21.25363c-1.09918 0-1.99847-.8983-1.99847-1.9963v-5.9737c0-1.5301 1.5-3.03 3-3.03z" fill="url(#o)"/><path d="m25.5619 15.0001c1.3489 0 2.4381 1.088 2.4381 2.4356v5.8194c0 1.5173-1.2291 2.745-2.7479 2.745h-21.25363c-1.09918 0-1.99847-.8983-1.99847-1.9963v-5.9737c0-1.5301 1.5-3.03 3-3.03z" fill="url(#p)"/><path d="m25.5619 15.0001c1.3489 0 2.4381 1.088 2.4381 2.4356v5.8194c0 1.5173-1.2291 2.745-2.7479 2.745h-21.25363c-1.09918 0-1.99847-.8983-1.99847-1.9963v-5.9737c0-1.5301 1.5-3.03 3-3.03z" fill="url(#q)"/><path d="m25.5619 15.0001c1.3489 0 2.4381 1.088 2.4381 2.4356v5.8194c0 1.5173-1.2291 2.745-2.7479 2.745h-21.25363c-1.09918 0-1.99847-.8983-1.99847-1.9963v-5.9737c0-1.5301 1.5-3.03 3-3.03z" fill="url(#r)"/></g><path clip-rule="evenodd" d="m28 19.0001h-26v-.97c0-1.5301 1.5-3.03 3-3.03h20.5619c1.3489 0 2.4381 1.088 2.4381 2.4356z" fill="url(#s)" fill-rule="evenodd"/><g filter="url(#b)"><path clip-rule="evenodd" d="m5.25 20.8854c0-.2762.22386-.5.5-.5h2.28846c2.48614 0 4.50004 2.0138 4.50004 4.5 0 .2761-.2239.5-.5.5-.6635 0-1.0229-.2239-1.0229-.5 0-1.9339-1.56612-3.3073-3.49998-3.3073h-1.5c-.64062 0-.76562-.4166-.76562-.6927z" fill="#153b3b" fill-rule="evenodd"/></g><g filter="url(#c)"><path d="m24.5 29.0101c3.0376 0 5.5-2.4624 5.5-5.5 0-3.0375-2.4624-5.5-5.5-5.5s-5.5 2.4625-5.5 5.5c0 3.0376 2.4624 5.5 5.5 5.5z" fill="url(#u)"/><path d="m24.5 29.0101c3.0376 0 5.5-2.4624 5.5-5.5 0-3.0375-2.4624-5.5-5.5-5.5s-5.5 2.4625-5.5 5.5c0 3.0376 2.4624 5.5 5.5 5.5z" fill="url(#w)"/><path d="m24.5 29.0101c3.0376 0 5.5-2.4624 5.5-5.5 0-3.0375-2.4624-5.5-5.5-5.5s-5.5 2.4625-5.5 5.5c0 3.0376 2.4624 5.5 5.5 5.5z" fill="url(#x)"/></g><g filter="url(#d)"><path d="m24.5 25.5258c1.1132 0 2.0156-.9025 2.0156-2.0157s-.9024-2.0156-2.0156-2.0156-2.0156.9024-2.0156 2.0156.9024 2.0157 2.0156 2.0157z" fill="#c8bbd6"/></g><g filter="url(#e)"><path d="m27.6562 16.4674h-3.1975c-3.8671 0-8.0837 3.5268-8.0837 7.392 0 .2761.4426.1079.7188.1079.2761 0 .5-.2239.5-.5 0-3.3149 3.2968-6.4829 6.8649-5.9204l3.1975.4531z" fill="#153b3b"/></g><g filter="url(#f)"><path clip-rule="evenodd" d="m5.52002 20.5101c0-.2761.22386-.5.5-.5h2.49c2.48618 0 4.49998 2.0139 4.49998 4.5 0 .2762-.2238.5-.5.5-.2761 0-.5-.2238-.5-.5 0-1.9338-1.5661-3.5-3.49998-3.5h-2.49c-.27614 0-.5-.2238-.5-.5z" fill="#268e6b" fill-rule="evenodd"/></g><path clip-rule="evenodd" d="m5.52002 20.5101c0-.2761.22386-.5.5-.5h2.49c2.48618 0 4.49998 2.0139 4.49998 4.5 0 .2762-.2238.5-.5.5-.2761 0-.5-.2238-.5-.5 0-1.9338-1.5661-3.5-3.49998-3.5h-2.49c-.27614 0-.5-.2238-.5-.5z" fill="url(#z)" fill-rule="evenodd"/><g filter="url(#g)"><path clip-rule="evenodd" d="m23.99 17.0001c-3.3129 0-5.99 2.6851-5.99 5.9999 0 .2761-.2239.5-.5.5s-.5-.2239-.5-.5c0-3.8651 3.1229-6.9999 6.99-6.9999h5.52c.2761 0 .5.2239.5.5 0 .2762-.2239.5-.5.5z" fill="#268e6b" fill-rule="evenodd"/></g><path clip-rule="evenodd" d="m23.99 17.0001c-3.3129 0-5.99 2.6851-5.99 5.9999 0 .2761-.2239.5-.5.5s-.5-.2239-.5-.5c0-3.8651 3.1229-6.9999 6.99-6.9999h5.52c.2761 0 .5.2239.5.5 0 .2762-.2239.5-.5.5z" fill="url(#A)" fill-rule="evenodd"/><g filter="url(#h)"><path d="m7.52002 29.0101c1.933 0 3.49998-1.567 3.49998-3.5s-1.56698-3.5-3.49998-3.5-3.5 1.567-3.5 3.5 1.567 3.5 3.5 3.5z" fill="url(#B)"/><path d="m7.52002 29.0101c1.933 0 3.49998-1.567 3.49998-3.5s-1.56698-3.5-3.49998-3.5-3.5 1.567-3.5 3.5 1.567 3.5 3.5 3.5z" fill="url(#C)"/></g><path d="m15.68 8-4.68 7h14v-7z" fill="url(#D)"/><path d="m15.68 8-4.68 7h14v-7z" fill="url(#E)"/><path d="m15.68 8-4.68 7h14v-7z" fill="url(#F)"/><path d="m18 8h-1v7h1z" fill="#008461"/><path d="m3.50739 21h-1.50739v-1h1.50739c.27586 0 .49261.22.49261.5 0 .27-.21675.5-.49261.5z" fill="url(#H)"/><path d="m3.50739 21h-1.50739v-1h1.50739c.27586 0 .49261.22.49261.5 0 .27-.21675.5-.49261.5z" fill="url(#J)"/><path d="m3.50739 19.0001h-1.50739v-1h1.50739c.27586 0 .49261.22.49261.5s-.21675.5-.49261.5z" fill="url(#K)"/><path d="m3.50739 19.0001h-1.50739v-1h1.50739c.27586 0 .49261.22.49261.5s-.21675.5-.49261.5z" fill="url(#L)"/><path d="m3.50739 23h-1.50739v-1h1.50739c.27586 0 .49261.22.49261.5 0 .27-.21675.5-.49261.5z" fill="url(#M)"/><path d="m3.50739 23h-1.50739v-1h1.50739c.27586 0 .49261.22.49261.5 0 .27-.21675.5-.49261.5z" fill="url(#N)"/><path d="m14 7c0-.55228.4477-1 1-1h10c.5523 0 1 .44772 1 1v1h-11c-.5523 0-1-.44772-1-1z" fill="url(#O)"/><path d="m14 7c0-.55228.4477-1 1-1h10c.5523 0 1 .44772 1 1v1h-11c-.5523 0-1-.44772-1-1z" fill="url(#P)"/><path d="m14 7c0-.55228.4477-1 1-1h10c.5523 0 1 .44772 1 1v1h-11c-.5523 0-1-.44772-1-1z" fill="url(#Q)"/><path d="m14 7c0-.55228.4477-1 1-1h10c.5523 0 1 .44772 1 1v1h-11c-.5523 0-1-.44772-1-1z" fill="url(#R)"/><g filter="url(#i)"><path d="m7.52002 26.7836c.7033 0 1.27344-.5702 1.27344-1.2735s-.57014-1.2734-1.27344-1.2734-1.27344.5701-1.27344 1.2734.57014 1.2735 1.27344 1.2735z" fill="#ccbed9"/></g><g filter="url(#j)"><circle cx="7.704" cy="25.234" r="2.391" stroke="url(#T)" stroke-width=".75"/></g><g filter="url(#k)"><circle cx="24.907" cy="23.157" r="3.688" stroke="url(#U)"/></g><rect fill="url(#V)" height="4.922" rx=".523" width="1.047" x="9.047" y="12.078"/><rect fill="url(#W)" height="4.922" rx=".523" width="1.047" x="9.047" y="12.078"/><rect fill="url(#X)" height="4.922" rx=".523" width="1.047" x="9.047" y="12.078"/><rect fill="url(#Y)" height="4.922" rx=".523" width="1.047" x="9.047" y="12.078"/><path clip-rule="evenodd" d="m9.04736 14.1095v-.9844h1.04684v.9844z" fill="url(#Z)" fill-rule="evenodd"/><g filter="url(#l)"><path d="m6.06171 20.3854h2.80749c1.09003.0372 3.353.8391 3.6848 3.7486" stroke="url(#ab)" stroke-linecap="round" stroke-width=".25"/></g><g filter="url(#m)"><path d="m17.4688 22.6562c.0312-1.0625.5687-3.5312 2.4687-4.9062s3.5-1.2813 4.5781-1.2813h4.9844" stroke="url(#ac)" stroke-linecap="round" stroke-width=".25"/></g></svg>