<svg fill="none" height="32" viewBox="0 0 32 32" width="32" xmlns="http://www.w3.org/2000/svg" xmlns:xlink="http://www.w3.org/1999/xlink"><filter id="a" color-interpolation-filters="sRGB" filterUnits="userSpaceOnUse" height="5.21" width="17.2" x="13" y="8.8"><feFlood flood-opacity="0" result="BackgroundImageFix"/><feBlend in="SourceGraphic" in2="BackgroundImageFix" mode="normal" result="shape"/><feColorMatrix in="SourceAlpha" result="hardAlpha" type="matrix" values="0 0 0 0 0 0 0 0 0 0 0 0 0 0 0 0 0 0 127 0"/><feOffset dy="-.2"/><feGaussianBlur stdDeviation=".2"/><feComposite in2="hardAlpha" k2="-1" k3="1" operator="arithmetic"/><feColorMatrix type="matrix" values="0 0 0 0 0.596078 0 0 0 0 0.462745 0 0 0 0 0.658824 0 0 0 1 0"/><feBlend in2="shape" mode="normal" result="effect1_innerShadow_18_10186"/><feColorMatrix in="SourceAlpha" result="hardAlpha" type="matrix" values="0 0 0 0 0 0 0 0 0 0 0 0 0 0 0 0 0 0 127 0"/><feOffset dx=".2"/><feGaussianBlur stdDeviation=".2"/><feComposite in2="hardAlpha" k2="-1" k3="1" operator="arithmetic"/><feColorMatrix type="matrix" values="0 0 0 0 0.537255 0 0 0 0 0.435294 0 0 0 0 0.529412 0 0 0 1 0"/><feBlend in2="effect1_innerShadow_18_10186" mode="normal" result="effect2_innerShadow_18_10186"/></filter><filter id="b" color-interpolation-filters="sRGB" filterUnits="userSpaceOnUse" height="21.01" width="14" x="1" y="5.99"><feFlood flood-opacity="0" result="BackgroundImageFix"/><feBlend in="SourceGraphic" in2="BackgroundImageFix" mode="normal" result="shape"/><feColorMatrix in="SourceAlpha" result="hardAlpha" type="matrix" values="0 0 0 0 0 0 0 0 0 0 0 0 0 0 0 0 0 0 127 0"/><feOffset dx="-1"/><feGaussianBlur stdDeviation=".5"/><feComposite in2="hardAlpha" k2="-1" k3="1" operator="arithmetic"/><feColorMatrix type="matrix" values="0 0 0 0 1 0 0 0 0 0.309804 0 0 0 0 0.352941 0 0 0 1 0"/><feBlend in2="shape" mode="normal" result="effect1_innerShadow_18_10186"/><feColorMatrix in="SourceAlpha" result="hardAlpha" type="matrix" values="0 0 0 0 0 0 0 0 0 0 0 0 0 0 0 0 0 0 127 0"/><feOffset dy="-1"/><feGaussianBlur stdDeviation=".5"/><feComposite in2="hardAlpha" k2="-1" k3="1" operator="arithmetic"/><feColorMatrix type="matrix" values="0 0 0 0 0.74902 0 0 0 0 0.137255 0 0 0 0 0.419608 0 0 0 1 0"/><feBlend in2="effect1_innerShadow_18_10186" mode="normal" result="effect2_innerShadow_18_10186"/><feColorMatrix in="SourceAlpha" result="hardAlpha" type="matrix" values="0 0 0 0 0 0 0 0 0 0 0 0 0 0 0 0 0 0 127 0"/><feOffset dx="1"/><feGaussianBlur stdDeviation=".5"/><feComposite in2="hardAlpha" k2="-1" k3="1" operator="arithmetic"/><feColorMatrix type="matrix" values="0 0 0 0 0.588235 0 0 0 0 0.278431 0 0 0 0 0.290196 0 0 0 1 0"/><feBlend in2="effect2_innerShadow_18_10186" mode="normal" result="effect3_innerShadow_18_10186"/></filter><filter id="c" color-interpolation-filters="sRGB" filterUnits="userSpaceOnUse" height="14.99" width="18.5" x="12.75" y="13.01"><feFlood flood-opacity="0" result="BackgroundImageFix"/><feBlend in="SourceGraphic" in2="BackgroundImageFix" mode="normal" result="shape"/><feColorMatrix in="SourceAlpha" result="hardAlpha" type="matrix" values="0 0 0 0 0 0 0 0 0 0 0 0 0 0 0 0 0 0 127 0"/><feOffset dx="1.25"/><feGaussianBlur stdDeviation=".625"/><feComposite in2="hardAlpha" k2="-1" k3="1" operator="arithmetic"/><feColorMatrix type="matrix" values="0 0 0 0 0.705882 0 0 0 0 0.00784314 0 0 0 0 0.0784314 0 0 0 1 0"/><feBlend in2="shape" mode="normal" result="effect1_innerShadow_18_10186"/><feColorMatrix in="SourceAlpha" result="hardAlpha" type="matrix" values="0 0 0 0 0 0 0 0 0 0 0 0 0 0 0 0 0 0 127 0"/><feOffset dy="1"/><feGaussianBlur stdDeviation=".625"/><feComposite in2="hardAlpha" k2="-1" k3="1" operator="arithmetic"/><feColorMatrix type="matrix" values="0 0 0 0 0.823529 0 0 0 0 0.196078 0 0 0 0 0.25098 0 0 0 1 0"/><feBlend in2="effect1_innerShadow_18_10186" mode="normal" result="effect2_innerShadow_18_10186"/><feColorMatrix in="SourceAlpha" result="hardAlpha" type="matrix" values="0 0 0 0 0 0 0 0 0 0 0 0 0 0 0 0 0 0 127 0"/><feOffset dx="-1.25"/><feGaussianBlur stdDeviation=".625"/><feComposite in2="hardAlpha" k2="-1" k3="1" operator="arithmetic"/><feColorMatrix type="matrix" values="0 0 0 0 1 0 0 0 0 0.309804 0 0 0 0 0.352941 0 0 0 1 0"/><feBlend in2="effect2_innerShadow_18_10186" mode="normal" result="effect3_innerShadow_18_10186"/><feColorMatrix in="SourceAlpha" result="hardAlpha" type="matrix" values="0 0 0 0 0 0 0 0 0 0 0 0 0 0 0 0 0 0 127 0"/><feOffset dy="-1"/><feGaussianBlur stdDeviation=".625"/><feComposite in2="hardAlpha" k2="-1" k3="1" operator="arithmetic"/><feColorMatrix type="matrix" values="0 0 0 0 0.776471 0 0 0 0 0.164706 0 0 0 0 0.439216 0 0 0 1 0"/><feBlend in2="effect3_innerShadow_18_10186" mode="normal" result="effect4_innerShadow_18_10186"/></filter><filter id="d" color-interpolation-filters="sRGB" filterUnits="userSpaceOnUse" height="10" width="4.69" x="1.31" y="9"><feFlood flood-opacity="0" result="BackgroundImageFix"/><feBlend in="SourceGraphic" in2="BackgroundImageFix" mode="normal" result="shape"/><feColorMatrix in="SourceAlpha" result="hardAlpha" type="matrix" values="0 0 0 0 0 0 0 0 0 0 0 0 0 0 0 0 0 0 127 0"/><feOffset dx="-1" dy="1"/><feGaussianBlur stdDeviation=".75"/><feComposite in2="hardAlpha" k2="-1" k3="1" operator="arithmetic"/><feColorMatrix type="matrix" values="0 0 0 0 0.184314 0 0 0 0 0.576471 0 0 0 0 0.882353 0 0 0 1 0"/><feBlend in2="shape" mode="normal" result="effect1_innerShadow_18_10186"/></filter><filter id="e" color-interpolation-filters="sRGB" filterUnits="userSpaceOnUse" height="8" width="8" x="4.5" y="22.5"><feFlood flood-opacity="0" result="BackgroundImageFix"/><feBlend in="SourceGraphic" in2="BackgroundImageFix" mode="normal" result="shape"/><feColorMatrix in="SourceAlpha" result="hardAlpha" type="matrix" values="0 0 0 0 0 0 0 0 0 0 0 0 0 0 0 0 0 0 127 0"/><feOffset dx=".5" dy=".5"/><feGaussianBlur stdDeviation=".25"/><feComposite in2="hardAlpha" k2="-1" k3="1" operator="arithmetic"/><feColorMatrix type="matrix" values="0 0 0 0 0.219608 0 0 0 0 0.137255 0 0 0 0 0.305882 0 0 0 1 0"/><feBlend in2="shape" mode="normal" result="effect1_innerShadow_18_10186"/><feColorMatrix in="SourceAlpha" result="hardAlpha" type="matrix" values="0 0 0 0 0 0 0 0 0 0 0 0 0 0 0 0 0 0 127 0"/><feOffset dx="-.5"/><feGaussianBlur stdDeviation=".25"/><feComposite in2="hardAlpha" k2="-1" k3="1" operator="arithmetic"/><feColorMatrix type="matrix" values="0 0 0 0 0.352941 0 0 0 0 0.25098 0 0 0 0 0.482353 0 0 0 1 0"/><feBlend in2="effect1_innerShadow_18_10186" mode="normal" result="effect2_innerShadow_18_10186"/><feColorMatrix in="SourceAlpha" result="hardAlpha" type="matrix" values="0 0 0 0 0 0 0 0 0 0 0 0 0 0 0 0 0 0 127 0"/><feOffset dy="-.5"/><feGaussianBlur stdDeviation=".25"/><feComposite in2="hardAlpha" k2="-1" k3="1" operator="arithmetic"/><feColorMatrix type="matrix" values="0 0 0 0 0.341176 0 0 0 0 0.180392 0 0 0 0 0.498039 0 0 0 1 0"/><feBlend in2="effect2_innerShadow_18_10186" mode="normal" result="effect3_innerShadow_18_10186"/></filter><filter id="f" color-interpolation-filters="sRGB" filterUnits="userSpaceOnUse" height="3.329" width="3.329" x="6.586" y="25.15"><feFlood flood-opacity="0" result="BackgroundImageFix"/><feColorMatrix in="SourceAlpha" result="hardAlpha" type="matrix" values="0 0 0 0 0 0 0 0 0 0 0 0 0 0 0 0 0 0 127 0"/><feOffset dx="-.25" dy=".25"/><feGaussianBlur stdDeviation=".25"/><feComposite in2="hardAlpha" operator="out"/><feColorMatrix type="matrix" values="0 0 0 0 0.172549 0 0 0 0 0.0784314 0 0 0 0 0.282353 0 0 0 1 0"/><feBlend in2="BackgroundImageFix" mode="normal" result="effect1_dropShadow_18_10186"/><feBlend in="SourceGraphic" in2="effect1_dropShadow_18_10186" mode="normal" result="shape"/></filter><filter id="g" color-interpolation-filters="sRGB" filterUnits="userSpaceOnUse" height="8" width="8" x="19.5" y="22.5"><feFlood flood-opacity="0" result="BackgroundImageFix"/><feBlend in="SourceGraphic" in2="BackgroundImageFix" mode="normal" result="shape"/><feColorMatrix in="SourceAlpha" result="hardAlpha" type="matrix" values="0 0 0 0 0 0 0 0 0 0 0 0 0 0 0 0 0 0 127 0"/><feOffset dx=".5" dy=".5"/><feGaussianBlur stdDeviation=".25"/><feComposite in2="hardAlpha" k2="-1" k3="1" operator="arithmetic"/><feColorMatrix type="matrix" values="0 0 0 0 0.219608 0 0 0 0 0.137255 0 0 0 0 0.305882 0 0 0 1 0"/><feBlend in2="shape" mode="normal" result="effect1_innerShadow_18_10186"/><feColorMatrix in="SourceAlpha" result="hardAlpha" type="matrix" values="0 0 0 0 0 0 0 0 0 0 0 0 0 0 0 0 0 0 127 0"/><feOffset dx="-.5"/><feGaussianBlur stdDeviation=".25"/><feComposite in2="hardAlpha" k2="-1" k3="1" operator="arithmetic"/><feColorMatrix type="matrix" values="0 0 0 0 0.352941 0 0 0 0 0.25098 0 0 0 0 0.482353 0 0 0 1 0"/><feBlend in2="effect1_innerShadow_18_10186" mode="normal" result="effect2_innerShadow_18_10186"/><feColorMatrix in="SourceAlpha" result="hardAlpha" type="matrix" values="0 0 0 0 0 0 0 0 0 0 0 0 0 0 0 0 0 0 127 0"/><feOffset dy="-.5"/><feGaussianBlur stdDeviation=".25"/><feComposite in2="hardAlpha" k2="-1" k3="1" operator="arithmetic"/><feColorMatrix type="matrix" values="0 0 0 0 0.341176 0 0 0 0 0.180392 0 0 0 0 0.498039 0 0 0 1 0"/><feBlend in2="effect2_innerShadow_18_10186" mode="normal" result="effect3_innerShadow_18_10186"/></filter><filter id="h" color-interpolation-filters="sRGB" filterUnits="userSpaceOnUse" height="3.329" width="3.329" x="21.586" y="25.15"><feFlood flood-opacity="0" result="BackgroundImageFix"/><feColorMatrix in="SourceAlpha" result="hardAlpha" type="matrix" values="0 0 0 0 0 0 0 0 0 0 0 0 0 0 0 0 0 0 127 0"/><feOffset dx="-.25" dy=".25"/><feGaussianBlur stdDeviation=".25"/><feComposite in2="hardAlpha" operator="out"/><feColorMatrix type="matrix" values="0 0 0 0 0.172549 0 0 0 0 0.0784314 0 0 0 0 0.282353 0 0 0 1 0"/><feBlend in2="BackgroundImageFix" mode="normal" result="effect1_dropShadow_18_10186"/><feBlend in="SourceGraphic" in2="effect1_dropShadow_18_10186" mode="normal" result="shape"/></filter><filter id="i" color-interpolation-filters="sRGB" filterUnits="userSpaceOnUse" height="10.011" width="6.008" x="6" y="8.995"><feFlood flood-opacity="0" result="BackgroundImageFix"/><feBlend in="SourceGraphic" in2="BackgroundImageFix" mode="normal" result="shape"/><feColorMatrix in="SourceAlpha" result="hardAlpha" type="matrix" values="0 0 0 0 0 0 0 0 0 0 0 0 0 0 0 0 0 0 127 0"/><feOffset dx="-1" dy="1"/><feGaussianBlur stdDeviation=".5"/><feComposite in2="hardAlpha" k2="-1" k3="1" operator="arithmetic"/><feColorMatrix type="matrix" values="0 0 0 0 0.180392 0 0 0 0 0.611765 0 0 0 0 0.960784 0 0 0 1 0"/><feBlend in2="shape" mode="normal" result="effect1_innerShadow_18_10186"/></filter><linearGradient id="j" gradientUnits="userSpaceOnUse" x1="23.94" x2="23.94" y1="15.042" y2="9.821"><stop offset="0" stop-color="#ad959c"/><stop offset="1" stop-color="#b7adc3"/></linearGradient><linearGradient id="k" gradientUnits="userSpaceOnUse" x1="21.5" x2="21.5" y1="14.01" y2="13.547"><stop offset="0" stop-color="#a6787e"/><stop offset="1" stop-color="#a6787e" stop-opacity="0"/></linearGradient><linearGradient id="l" gradientUnits="userSpaceOnUse" x1="21.5" x2="21.5" y1="9" y2="9.535"><stop offset="0" stop-color="#b2b0b4"/><stop offset="1" stop-color="#b2b0b4" stop-opacity="0"/></linearGradient><linearGradient id="m"><stop offset="0" stop-color="#793d42"/><stop offset="1" stop-color="#793d42" stop-opacity="0"/></linearGradient><linearGradient id="n" gradientUnits="userSpaceOnUse" x1="22.089" x2="22.089" xlink:href="#m" y1="14.01" y2="13.891"/><linearGradient id="o" gradientUnits="userSpaceOnUse" x1="14" x2="14.266" xlink:href="#m" y1="13.891" y2="13.891"/><linearGradient id="p" gradientUnits="userSpaceOnUse" x1="10.054" x2="10.087" y1="25.516" y2="8.534"><stop offset="0" stop-color="#de3049"/><stop offset="1" stop-color="#df3346"/></linearGradient><radialGradient id="q" cx="0" cy="0" gradientTransform="matrix(-2.28038895 -2.80501756 .79102052 -.64307421 14.9828 27)" gradientUnits="userSpaceOnUse" r="1"><stop offset=".536" stop-color="#f12f51"/><stop offset="1" stop-color="#f12f51" stop-opacity="0"/></radialGradient><radialGradient id="r" cx="0" cy="0" gradientTransform="matrix(-2.72434056 1.37986571 -1.43710069 -2.83734254 14.6847 7.55323)" gradientUnits="userSpaceOnUse" r="1"><stop offset="0" stop-color="#ff515c"/><stop offset="1" stop-color="#ff515c" stop-opacity="0"/></radialGradient><radialGradient id="s" cx="0" cy="0" gradientTransform="matrix(-2.62500425 1.74999837 -.87917052 -1.31875915 6.625 25.6562)" gradientUnits="userSpaceOnUse" r="1"><stop offset=".5" stop-color="#8c172b"/><stop offset="1" stop-color="#8c172b" stop-opacity="0"/></radialGradient><linearGradient id="t" gradientUnits="userSpaceOnUse" x1="28.5" x2="15.505" y1="22.516" y2="22.464"><stop offset="0" stop-color="#df3049"/><stop offset="1" stop-color="#e13049"/></linearGradient><linearGradient id="u"><stop offset=".408" stop-color="#bb0a25"/><stop offset="1" stop-color="#bb0a25" stop-opacity="0"/></linearGradient><radialGradient id="v" cx="0" cy="0" gradientTransform="matrix(1.76958135 -1.6017748 .57070215 .63049055 13.4401 26.7327)" gradientUnits="userSpaceOnUse" r="1" xlink:href="#u"/><radialGradient id="w" cx="0" cy="0" gradientTransform="matrix(2.33402351 1.76958578 -.63048755 .83159165 12.5706 13.7659)" gradientUnits="userSpaceOnUse" r="1" xlink:href="#u"/><radialGradient id="x" cx="0" cy="0" gradientTransform="matrix(1.55264532 -1.40919155 .20485729 .22571148 13.8856 27.1934)" gradientUnits="userSpaceOnUse" r="1"><stop offset="0" stop-color="#d11a4f"/><stop offset="1" stop-color="#d11a4f" stop-opacity="0"/></radialGradient><radialGradient id="y" cx="0" cy="0" gradientTransform="matrix(2.0973145 2.1638979 -.21292368 .20637199 13.7753 13.6376)" gradientUnits="userSpaceOnUse" r="1"><stop offset="0" stop-color="#de1f31"/><stop offset="1" stop-color="#de1f31" stop-opacity="0"/></radialGradient><linearGradient id="z" gradientUnits="userSpaceOnUse" x1="13.752" x2="14.483" y1="22.154" y2="22.154"><stop offset="0" stop-color="#a0010e"/><stop offset="1" stop-color="#a0010e" stop-opacity="0"/></linearGradient><linearGradient id="A"><stop offset="0" stop-color="#4d0003"/><stop offset="1" stop-color="#4d0003" stop-opacity="0"/></linearGradient><linearGradient id="B" gradientUnits="userSpaceOnUse" x1="13.977" x2="14.192" xlink:href="#A" y1="21.563" y2="21.563"/><radialGradient id="C" cx="0" cy="0" gradientTransform="matrix(-2.28126279 2.04686003 -1.21934204 -1.35897891 21.8125 25.2656)" gradientUnits="userSpaceOnUse" r="1"><stop offset=".599" stop-color="#8c172b"/><stop offset="1" stop-color="#8c172b" stop-opacity="0"/></radialGradient><linearGradient id="D" gradientUnits="userSpaceOnUse" x1="2" x2="3.811" y1="21" y2="21"><stop offset="0" stop-color="#998ba9"/><stop offset="1" stop-color="#cdbae2" stop-opacity="0"/></linearGradient><linearGradient id="E" gradientUnits="userSpaceOnUse" x1="14.162" x2="12.433" y1="20.406" y2="20.406"><stop offset="0" stop-color="#d8c1ed"/><stop offset=".304" stop-color="#ffefff"/><stop offset="1" stop-color="#ffefff" stop-opacity="0"/></linearGradient><linearGradient id="F" gradientUnits="userSpaceOnUse" x1="7" x2="9.844" y1="6.5" y2="6.5"><stop offset="0" stop-color="#928a8c"/><stop offset="1" stop-color="#ffe7ed"/></linearGradient><linearGradient id="G" gradientUnits="userSpaceOnUse" x1="8.299" x2="9.631" y1="5" y2="5"><stop offset="0" stop-color="#c31b68"/><stop offset="1" stop-color="#ed088e"/><stop offset="1" stop-color="#e42b7d"/></linearGradient><linearGradient id="H" gradientUnits="userSpaceOnUse" x1="9.845" x2="7.631" y1="25.335" y2="30.227"><stop offset="0" stop-color="#442767"/><stop offset="1" stop-color="#4d2775"/><stop offset="1" stop-color="#452866"/></linearGradient><linearGradient id="I"><stop offset="0" stop-color="#fffcff"/><stop offset="1" stop-color="#b0a3be"/></linearGradient><radialGradient id="J" cx="0" cy="0" gradientTransform="matrix(-1.21345985 1.27270071 -1.10376288 -1.05238563 8.95064 26.2143)" gradientUnits="userSpaceOnUse" r="1" xlink:href="#I"/><linearGradient id="K"><stop offset=".405" stop-color="#ac6be4" stop-opacity="0"/><stop offset="1" stop-color="#ac6be4"/></linearGradient><radialGradient id="L" cx="0" cy="0" gradientTransform="matrix(-1.09268515 1.92519454 -2.07081452 -1.17533487 8.98497 25.9495)" gradientUnits="userSpaceOnUse" r="1" xlink:href="#K"/><linearGradient id="M" gradientUnits="userSpaceOnUse" x1="24.845" x2="22.631" y1="25.335" y2="30.227"><stop offset="0" stop-color="#442764"/><stop offset="1" stop-color="#4d2775"/><stop offset="1" stop-color="#452667"/></linearGradient><radialGradient id="N" cx="0" cy="0" gradientTransform="matrix(-1.21345985 1.27270071 -1.10376288 -1.05238563 23.9506 26.2143)" gradientUnits="userSpaceOnUse" r="1" xlink:href="#I"/><radialGradient id="O" cx="0" cy="0" gradientTransform="matrix(-1.09268515 1.92519454 -2.07081452 -1.17533487 23.985 25.9495)" gradientUnits="userSpaceOnUse" r="1" xlink:href="#K"/><radialGradient id="P" cx="0" cy="0" gradientTransform="matrix(1.29687498 -1.1406245 1.13618645 1.29182897 28.3906 23.6094)" gradientUnits="userSpaceOnUse" r="1"><stop offset="0" stop-color="#ffcd1e"/><stop offset="1" stop-color="#fcbe20"/></radialGradient><linearGradient id="Q" gradientUnits="userSpaceOnUse" x1="14" x2="30.254" y1="21" y2="21"><stop offset=".063" stop-color="#cfb4e5"/><stop offset=".115" stop-color="#f5dfff"/><stop offset=".332" stop-color="#f5dfff"/><stop offset=".769" stop-color="#f6e0ff"/><stop offset=".883" stop-color="#f6e0ff"/><stop offset=".969" stop-color="#fffbff"/></linearGradient><linearGradient id="R" gradientUnits="userSpaceOnUse" x1="13.977" x2="14.192" xlink:href="#A" y1="20.163" y2="20.163"/><linearGradient id="S" gradientUnits="userSpaceOnUse" x1="12.008" x2="7.003" y1="9.672" y2="18.007"><stop offset="0" stop-color="#39a8fc"/><stop offset="1" stop-color="#47d8ff"/></linearGradient><linearGradient id="T" gradientUnits="userSpaceOnUse" x1="7" x2="8.454" y1="17.077" y2="17.077"><stop offset="0" stop-color="#3ddfff"/><stop offset="1" stop-color="#3ddfff" stop-opacity="0"/></linearGradient><g filter="url(#a)"><path d="m30 9.5c0-.27-.22-.5-.5-.5h-16c-.28 0-.5.23-.5.5 0 .28.22.5.5.5h.25c.13 0 .24.11.24.24v2.53c0 .13-.11.24-.24.24h-.25c-.28 0-.5.22-.5.5s.22.5.5.5h16c.28 0 .5-.22.5-.5s-.22-.5-.5-.5h-2.28c-.13 0-.24-.11-.24-.24v-2.52c0-.13.11-.24.24-.24h2.28c.28-.01.5-.23.5-.51zm-8.01.75v2.53c0 .13-.11.24-.24.24h-2.53c-.13 0-.24-.11-.24-.24v-2.53c0-.13.11-.24.24-.24h2.53c.13-.01.24.1.24.24zm-6.77-.25h2.52c.13 0 .24.11.24.24v2.53c0 .13-.11.24-.24.24h-2.52c-.13 0-.24-.11-.24-.24v-2.52c0-.14.11-.25.24-.25zm10.52 3.02h-2.51c-.13 0-.24-.11-.24-.24v-2.53c0-.13.11-.24.24-.24h2.51c.13 0 .24.11.24.24v2.53c.01.13-.1.24-.24.24z" fill="url(#j)"/></g><path d="m30 9.5c0-.27-.22-.5-.5-.5h-16c-.28 0-.5.23-.5.5 0 .28.22.5.5.5h.25c.13 0 .24.11.24.24v2.53c0 .13-.11.24-.24.24h-.25c-.28 0-.5.22-.5.5s.22.5.5.5h16c.28 0 .5-.22.5-.5s-.22-.5-.5-.5h-2.28c-.13 0-.24-.11-.24-.24v-2.52c0-.13.11-.24.24-.24h2.28c.28-.01.5-.23.5-.51zm-8.01.75v2.53c0 .13-.11.24-.24.24h-2.53c-.13 0-.24-.11-.24-.24v-2.53c0-.13.11-.24.24-.24h2.53c.13-.01.24.1.24.24zm-6.77-.25h2.52c.13 0 .24.11.24.24v2.53c0 .13-.11.24-.24.24h-2.52c-.13 0-.24-.11-.24-.24v-2.52c0-.14.11-.25.24-.25zm10.52 3.02h-2.51c-.13 0-.24-.11-.24-.24v-2.53c0-.13.11-.24.24-.24h2.51c.13 0 .24.11.24.24v2.53c.01.13-.1.24-.24.24z" fill="url(#k)"/><path d="m30 9.5c0-.27-.22-.5-.5-.5h-16c-.28 0-.5.23-.5.5 0 .28.22.5.5.5h.25c.13 0 .24.11.24.24v2.53c0 .13-.11.24-.24.24h-.25c-.28 0-.5.22-.5.5s.22.5.5.5h16c.28 0 .5-.22.5-.5s-.22-.5-.5-.5h-2.28c-.13 0-.24-.11-.24-.24v-2.52c0-.13.11-.24.24-.24h2.28c.28-.01.5-.23.5-.51zm-8.01.75v2.53c0 .13-.11.24-.24.24h-2.53c-.13 0-.24-.11-.24-.24v-2.53c0-.13.11-.24.24-.24h2.53c.13-.01.24.1.24.24zm-6.77-.25h2.52c.13 0 .24.11.24.24v2.53c0 .13-.11.24-.24.24h-2.52c-.13 0-.24-.11-.24-.24v-2.52c0-.14.11-.25.24-.25zm10.52 3.02h-2.51c-.13 0-.24-.11-.24-.24v-2.53c0-.13.11-.24.24-.24h2.51c.13 0 .24.11.24.24v2.53c.01.13-.1.24-.24.24z" fill="url(#l)"/><path d="m30 9.5c0-.27-.22-.5-.5-.5h-16c-.28 0-.5.23-.5.5 0 .28.22.5.5.5h.25c.13 0 .24.11.24.24v2.53c0 .13-.11.24-.24.24h-.25c-.28 0-.5.22-.5.5s.22.5.5.5h16c.28 0 .5-.22.5-.5s-.22-.5-.5-.5h-2.28c-.13 0-.24-.11-.24-.24v-2.52c0-.13.11-.24.24-.24h2.28c.28-.01.5-.23.5-.51zm-8.01.75v2.53c0 .13-.11.24-.24.24h-2.53c-.13 0-.24-.11-.24-.24v-2.53c0-.13.11-.24.24-.24h2.53c.13-.01.24.1.24.24zm-6.77-.25h2.52c.13 0 .24.11.24.24v2.53c0 .13-.11.24-.24.24h-2.52c-.13 0-.24-.11-.24-.24v-2.52c0-.14.11-.25.24-.25zm10.52 3.02h-2.51c-.13 0-.24-.11-.24-.24v-2.53c0-.13.11-.24.24-.24h2.51c.13 0 .24.11.24.24v2.53c.01.13-.1.24-.24.24z" fill="url(#n)"/><path d="m30 9.5c0-.27-.22-.5-.5-.5h-16c-.28 0-.5.23-.5.5 0 .28.22.5.5.5h.25c.13 0 .24.11.24.24v2.53c0 .13-.11.24-.24.24h-.25c-.28 0-.5.22-.5.5s.22.5.5.5h16c.28 0 .5-.22.5-.5s-.22-.5-.5-.5h-2.28c-.13 0-.24-.11-.24-.24v-2.52c0-.13.11-.24.24-.24h2.28c.28-.01.5-.23.5-.51zm-8.01.75v2.53c0 .13-.11.24-.24.24h-2.53c-.13 0-.24-.11-.24-.24v-2.53c0-.13.11-.24.24-.24h2.53c.13-.01.24.1.24.24zm-6.77-.25h2.52c.13 0 .24.11.24.24v2.53c0 .13-.11.24-.24.24h-2.52c-.13 0-.24-.11-.24-.24v-2.52c0-.14.11-.25.24-.25zm10.52 3.02h-2.51c-.13 0-.24-.11-.24-.24v-2.53c0-.13.11-.24.24-.24h2.51c.13 0 .24.11.24.24v2.53c.01.13-.1.24-.24.24z" fill="url(#o)"/><g filter="url(#b)"><path d="m2.15997 19h.00135l-.05585.289c-.08203.4102-.10547.9102-.10547 1.261v4.67c0 .98.79999 1.78 1.78003 1.78h10.01997c.1105 0 .2-.0895.2-.2v-18.03001c0-.98-.8-1.78-1.78-1.78h-7.01004c-.70001 0-1.28998.51-1.39001 1.2-.63602 3.96461-1.31836 8.53291-1.65998 10.81001z" fill="url(#p)"/></g><path d="m2.15997 19h.00135l-.05585.289c-.08203.4102-.10547.9102-.10547 1.261v4.67c0 .98.79999 1.78 1.78003 1.78h10.01997c.1105 0 .2-.0895.2-.2v-18.03001c0-.98-.8-1.78-1.78-1.78h-7.01004c-.70001 0-1.28998.51-1.39001 1.2-.63602 3.96461-1.31836 8.53291-1.65998 10.81001z" fill="url(#q)"/><path d="m2.15997 19h.00135l-.05585.289c-.08203.4102-.10547.9102-.10547 1.261v4.67c0 .98.79999 1.78 1.78003 1.78h10.01997c.1105 0 .2-.0895.2-.2v-18.03001c0-.98-.8-1.78-1.78-1.78h-7.01004c-.70001 0-1.28998.51-1.39001 1.2-.63602 3.96461-1.31836 8.53291-1.65998 10.81001z" fill="url(#r)"/><path d="m2.15997 19h.00135l-.05585.289c-.08203.4102-.10547.9102-.10547 1.261v4.67c0 .98.79999 1.78 1.78003 1.78h10.01997c.1105 0 .2-.0895.2-.2v-18.03001c0-.98-.8-1.78-1.78-1.78h-7.01004c-.70001 0-1.28998.51-1.39001 1.2-.63602 3.96461-1.31836 8.53291-1.65998 10.81001z" fill="url(#s)"/><g filter="url(#c)"><path d="m14 14.21v12.59c0 .1105.0895.2.2.2h14.11c.93 0 1.69-.76 1.69-1.69v-9.6132c0-.9338-.76-1.6868-1.69-1.6868h-14.11c-.1105 0-.2.0896-.2.2z" fill="url(#t)"/></g><path d="m14 14.21v12.59c0 .1105.0895.2.2.2h14.11c.93 0 1.69-.76 1.69-1.69v-9.6132c0-.9338-.76-1.6868-1.69-1.6868h-14.11c-.1105 0-.2.0896-.2.2z" fill="url(#v)"/><path d="m14 14.21v12.59c0 .1105.0895.2.2.2h14.11c.93 0 1.69-.76 1.69-1.69v-9.6132c0-.9338-.76-1.6868-1.69-1.6868h-14.11c-.1105 0-.2.0896-.2.2z" fill="url(#w)"/><path d="m14 14.21v12.59c0 .1105.0895.2.2.2h14.11c.93 0 1.69-.76 1.69-1.69v-9.6132c0-.9338-.76-1.6868-1.69-1.6868h-14.11c-.1105 0-.2.0896-.2.2z" fill="url(#x)"/><path d="m14 14.21v12.59c0 .1105.0895.2.2.2h14.11c.93 0 1.69-.76 1.69-1.69v-9.6132c0-.9338-.76-1.6868-1.69-1.6868h-14.11c-.1105 0-.2.0896-.2.2z" fill="url(#y)"/><path d="m14 14.21v12.59c0 .1105.0895.2.2.2h14.11c.93 0 1.69-.76 1.69-1.69v-9.6132c0-.9338-.76-1.6868-1.69-1.6868h-14.11c-.1105 0-.2.0896-.2.2z" fill="url(#z)"/><path d="m14 14.21v12.59c0 .1105.0895.2.2.2h14.11c.93 0 1.69-.76 1.69-1.69v-9.6132c0-.9338-.76-1.6868-1.69-1.6868h-14.11c-.1105 0-.2.0896-.2.2z" fill="url(#B)"/><path d="m14 14.21v12.59c0 .1105.0895.2.2.2h14.11c.93 0 1.69-.76 1.69-1.69v-9.6132c0-.9338-.76-1.6868-1.69-1.6868h-14.11c-.1105 0-.2.0896-.2.2z" fill="url(#C)"/><path d="m2.10547 19.289c-.08203.4102-.10547.9102-.10547 1.261v.45h12v-2h-11.83871z" fill="#f5e0ff"/><path d="m2.10547 19.289c-.08203.4102-.10547.9102-.10547 1.261v.45h12v-2h-11.83871z" fill="url(#D)"/><path d="m2.10547 19.289c-.08203.4102-.10547.9102-.10547 1.261v.45h12v-2h-11.83871z" fill="url(#E)"/><g filter="url(#d)"><path d="m4.9 18c.6 0 1.1-.49 1.1-1.1v-6.8c0-.61-.5-1.1-1.1-1.1h-1.21l-1.38 9z" fill="#40c1e7"/></g><path d="m10.41 6h-2.82c-.32 0-.59.26-.59.59v.41h4v-.41c0-.33-.26-.59-.59-.59z" fill="url(#F)"/><path d="m10 5c0-.55-.45-1-1-1s-1 .45-1 1v1h2z" fill="url(#G)"/><g filter="url(#e)"><path d="m8.5 30c1.933 0 3.5-1.567 3.5-3.5s-1.567-3.5-3.5-3.5-3.5 1.567-3.5 3.5 1.567 3.5 3.5 3.5z" fill="url(#H)"/></g><g filter="url(#f)"><path d="m8.5 27.7283c.64303 0 1.16431-.5213 1.16431-1.1643 0-.6431-.52128-1.1643-1.16431-1.1643s-1.16431.5212-1.16431 1.1643c0 .643.52128 1.1643 1.16431 1.1643z" fill="url(#J)"/><path d="m8.5 27.7283c.64303 0 1.16431-.5213 1.16431-1.1643 0-.6431-.52128-1.1643-1.16431-1.1643s-1.16431.5212-1.16431 1.1643c0 .643.52128 1.1643 1.16431 1.1643z" fill="url(#L)"/></g><g filter="url(#g)"><path d="m23.5 30c1.933 0 3.5-1.567 3.5-3.5s-1.567-3.5-3.5-3.5-3.5 1.567-3.5 3.5 1.567 3.5 3.5 3.5z" fill="url(#M)"/></g><g filter="url(#h)"><path d="m23.5 27.7283c.643 0 1.1643-.5213 1.1643-1.1643 0-.6431-.5213-1.1643-1.1643-1.1643s-1.1643.5212-1.1643 1.1643c0 .643.5213 1.1643 1.1643 1.1643z" fill="url(#N)"/><path d="m23.5 27.7283c.643 0 1.1643-.5213 1.1643-1.1643 0-.6431-.5213-1.1643-1.1643-1.1643s-1.1643.5212-1.1643 1.1643c0 .643.5213 1.1643 1.1643 1.1643z" fill="url(#O)"/></g><path clip-rule="evenodd" d="m2 24.9445v-2.9281c.01296-.0005.02598-.0008.03906-.0008.52208 0 .94532.4233.94532.9453v1.0391c0 .5221-.42324.9453-.94532.9453-.01308 0-.0261-.0003-.03906-.0008z" fill="#ae7b1d" fill-rule="evenodd" opacity=".55"/><path d="m30 21.9609h-.9961c-.5544 0-1.0039.4495-1.0039 1.0039 0 .5545.4495 1.004 1.0039 1.004h.9961z" fill="url(#P)"/><path d="m14 19h16v2.00001h-16z" fill="url(#Q)"/><path d="m14 19h16v2.00001h-16z" fill="url(#R)"/><g filter="url(#i)"><rect fill="url(#S)" height="9.011" rx="1.1" width="5.008" x="7" y="8.995"/><rect fill="url(#T)" height="9.011" rx="1.1" width="5.008" x="7" y="8.995"/></g></svg>