<svg fill="none" height="32" viewBox="0 0 32 32" width="32" xmlns="http://www.w3.org/2000/svg" xmlns:xlink="http://www.w3.org/1999/xlink"><filter id="a" color-interpolation-filters="sRGB" filterUnits="userSpaceOnUse" height="2.5" width="24.969" x="3.566" y="17.063"><feFlood flood-opacity="0" result="BackgroundImageFix"/><feBlend in="SourceGraphic" in2="BackgroundImageFix" mode="normal" result="shape"/><feGaussianBlur result="effect1_foregroundBlur_18_10637" stdDeviation=".5"/></filter><filter id="b" color-interpolation-filters="sRGB" filterUnits="userSpaceOnUse" height="3.601" width="2.523" x="9.465" y="14.961"><feFlood flood-opacity="0" result="BackgroundImageFix"/><feBlend in="SourceGraphic" in2="BackgroundImageFix" mode="normal" result="shape"/><feGaussianBlur result="effect1_foregroundBlur_18_10637" stdDeviation=".125"/></filter><filter id="c" color-interpolation-filters="sRGB" filterUnits="userSpaceOnUse" height="3.4" width="2.267" x="2.913" y="18.8"><feFlood flood-opacity="0" result="BackgroundImageFix"/><feBlend in="SourceGraphic" in2="BackgroundImageFix" mode="normal" result="shape"/><feGaussianBlur result="effect1_foregroundBlur_18_10637" stdDeviation=".05"/></filter><filter id="d" color-interpolation-filters="sRGB" filterUnits="userSpaceOnUse" height="7.15" width="7" x="4.98" y="23"><feFlood flood-opacity="0" result="BackgroundImageFix"/><feBlend in="SourceGraphic" in2="BackgroundImageFix" mode="normal" result="shape"/><feColorMatrix in="SourceAlpha" result="hardAlpha" type="matrix" values="0 0 0 0 0 0 0 0 0 0 0 0 0 0 0 0 0 0 127 0"/><feOffset/><feGaussianBlur stdDeviation=".5"/><feComposite in2="hardAlpha" k2="-1" k3="1" operator="arithmetic"/><feColorMatrix type="matrix" values="0 0 0 0 0.145098 0 0 0 0 0.0823529 0 0 0 0 0.215686 0 0 0 1 0"/><feBlend in2="shape" mode="normal" result="effect1_innerShadow_18_10637"/><feColorMatrix in="SourceAlpha" result="hardAlpha" type="matrix" values="0 0 0 0 0 0 0 0 0 0 0 0 0 0 0 0 0 0 127 0"/><feOffset dy=".15"/><feGaussianBlur stdDeviation=".125"/><feComposite in2="hardAlpha" k2="-1" k3="1" operator="arithmetic"/><feColorMatrix type="matrix" values="0 0 0 0 0.207843 0 0 0 0 0.0313726 0 0 0 0 0.235294 0 0 0 1 0"/><feBlend in2="effect1_innerShadow_18_10637" mode="normal" result="effect2_innerShadow_18_10637"/></filter><filter id="e" color-interpolation-filters="sRGB" filterUnits="userSpaceOnUse" height="7.194" width="7.194" x="4.986" y="22.584"><feFlood flood-opacity="0" result="BackgroundImageFix"/><feBlend in="SourceGraphic" in2="BackgroundImageFix" mode="normal" result="shape"/><feGaussianBlur result="effect1_foregroundBlur_18_10637" stdDeviation=".375"/></filter><filter id="f" color-interpolation-filters="sRGB" filterUnits="userSpaceOnUse" height="2.6" width="2.6" x="7.18" y="25.2"><feFlood flood-opacity="0" result="BackgroundImageFix"/><feBlend in="SourceGraphic" in2="BackgroundImageFix" mode="normal" result="shape"/><feColorMatrix in="SourceAlpha" result="hardAlpha" type="matrix" values="0 0 0 0 0 0 0 0 0 0 0 0 0 0 0 0 0 0 127 0"/><feOffset dx=".05" dy="-.05"/><feGaussianBlur stdDeviation=".05"/><feComposite in2="hardAlpha" k2="-1" k3="1" operator="arithmetic"/><feColorMatrix type="matrix" values="0 0 0 0 0.478431 0 0 0 0 0.364706 0 0 0 0 0.584314 0 0 0 1 0"/><feBlend in2="shape" mode="normal" result="effect1_innerShadow_18_10637"/><feColorMatrix in="SourceAlpha" result="hardAlpha" type="matrix" values="0 0 0 0 0 0 0 0 0 0 0 0 0 0 0 0 0 0 127 0"/><feOffset dx="-.05" dy=".05"/><feGaussianBlur stdDeviation=".05"/><feComposite in2="hardAlpha" k2="-1" k3="1" operator="arithmetic"/><feColorMatrix type="matrix" values="0 0 0 0 0.807843 0 0 0 0 0.764706 0 0 0 0 0.858824 0 0 0 1 0"/><feBlend in2="effect1_innerShadow_18_10637" mode="normal" result="effect2_innerShadow_18_10637"/></filter><filter id="g" color-interpolation-filters="sRGB" filterUnits="userSpaceOnUse" height="7.15" width="7" x="18.98" y="23"><feFlood flood-opacity="0" result="BackgroundImageFix"/><feBlend in="SourceGraphic" in2="BackgroundImageFix" mode="normal" result="shape"/><feColorMatrix in="SourceAlpha" result="hardAlpha" type="matrix" values="0 0 0 0 0 0 0 0 0 0 0 0 0 0 0 0 0 0 127 0"/><feOffset/><feGaussianBlur stdDeviation=".5"/><feComposite in2="hardAlpha" k2="-1" k3="1" operator="arithmetic"/><feColorMatrix type="matrix" values="0 0 0 0 0.145098 0 0 0 0 0.0823529 0 0 0 0 0.215686 0 0 0 1 0"/><feBlend in2="shape" mode="normal" result="effect1_innerShadow_18_10637"/><feColorMatrix in="SourceAlpha" result="hardAlpha" type="matrix" values="0 0 0 0 0 0 0 0 0 0 0 0 0 0 0 0 0 0 127 0"/><feOffset dy=".15"/><feGaussianBlur stdDeviation=".125"/><feComposite in2="hardAlpha" k2="-1" k3="1" operator="arithmetic"/><feColorMatrix type="matrix" values="0 0 0 0 0.207843 0 0 0 0 0.0313726 0 0 0 0 0.235294 0 0 0 1 0"/><feBlend in2="effect1_innerShadow_18_10637" mode="normal" result="effect2_innerShadow_18_10637"/></filter><filter id="h" color-interpolation-filters="sRGB" filterUnits="userSpaceOnUse" height="2.6" width="2.6" x="21.18" y="25.2"><feFlood flood-opacity="0" result="BackgroundImageFix"/><feBlend in="SourceGraphic" in2="BackgroundImageFix" mode="normal" result="shape"/><feColorMatrix in="SourceAlpha" result="hardAlpha" type="matrix" values="0 0 0 0 0 0 0 0 0 0 0 0 0 0 0 0 0 0 127 0"/><feOffset dx=".05" dy="-.05"/><feGaussianBlur stdDeviation=".05"/><feComposite in2="hardAlpha" k2="-1" k3="1" operator="arithmetic"/><feColorMatrix type="matrix" values="0 0 0 0 0.478431 0 0 0 0 0.364706 0 0 0 0 0.584314 0 0 0 1 0"/><feBlend in2="shape" mode="normal" result="effect1_innerShadow_18_10637"/><feColorMatrix in="SourceAlpha" result="hardAlpha" type="matrix" values="0 0 0 0 0 0 0 0 0 0 0 0 0 0 0 0 0 0 127 0"/><feOffset dx="-.05" dy=".05"/><feGaussianBlur stdDeviation=".05"/><feComposite in2="hardAlpha" k2="-1" k3="1" operator="arithmetic"/><feColorMatrix type="matrix" values="0 0 0 0 0.807843 0 0 0 0 0.764706 0 0 0 0 0.858824 0 0 0 1 0"/><feBlend in2="effect1_innerShadow_18_10637" mode="normal" result="effect2_innerShadow_18_10637"/></filter><filter id="i" color-interpolation-filters="sRGB" filterUnits="userSpaceOnUse" height="7.194" width="7.194" x="18.961" y="22.584"><feFlood flood-opacity="0" result="BackgroundImageFix"/><feBlend in="SourceGraphic" in2="BackgroundImageFix" mode="normal" result="shape"/><feGaussianBlur result="effect1_foregroundBlur_18_10637" stdDeviation=".375"/></filter><filter id="j" color-interpolation-filters="sRGB" filterUnits="userSpaceOnUse" height="3.4" width="2.279" x="25.778" y="18.8"><feFlood flood-opacity="0" result="BackgroundImageFix"/><feBlend in="SourceGraphic" in2="BackgroundImageFix" mode="normal" result="shape"/><feGaussianBlur result="effect1_foregroundBlur_18_10637" stdDeviation=".05"/></filter><filter id="k" color-interpolation-filters="sRGB" filterUnits="userSpaceOnUse" height="1.25" width="2.15" x="13.83" y="18"><feFlood flood-opacity="0" result="BackgroundImageFix"/><feBlend in="SourceGraphic" in2="BackgroundImageFix" mode="normal" result="shape"/><feColorMatrix in="SourceAlpha" result="hardAlpha" type="matrix" values="0 0 0 0 0 0 0 0 0 0 0 0 0 0 0 0 0 0 127 0"/><feOffset dx="-.15" dy=".25"/><feGaussianBlur stdDeviation=".2"/><feComposite in2="hardAlpha" k2="-1" k3="1" operator="arithmetic"/><feColorMatrix type="matrix" values="0 0 0 0 0.529412 0 0 0 0 0.423529 0 0 0 0 0.627451 0 0 0 1 0"/><feBlend in2="shape" mode="normal" result="effect1_innerShadow_18_10637"/></filter><filter id="l" color-interpolation-filters="sRGB" filterUnits="userSpaceOnUse" height="1.25" width="2.15" x="18.83" y="18"><feFlood flood-opacity="0" result="BackgroundImageFix"/><feBlend in="SourceGraphic" in2="BackgroundImageFix" mode="normal" result="shape"/><feColorMatrix in="SourceAlpha" result="hardAlpha" type="matrix" values="0 0 0 0 0 0 0 0 0 0 0 0 0 0 0 0 0 0 127 0"/><feOffset dx="-.15" dy=".25"/><feGaussianBlur stdDeviation=".2"/><feComposite in2="hardAlpha" k2="-1" k3="1" operator="arithmetic"/><feColorMatrix type="matrix" values="0 0 0 0 0.529412 0 0 0 0 0.423529 0 0 0 0 0.627451 0 0 0 1 0"/><feBlend in2="shape" mode="normal" result="effect1_innerShadow_18_10637"/></filter><filter id="m" color-interpolation-filters="sRGB" filterUnits="userSpaceOnUse" height=".75" width="16.563" x="11.191" y="9"><feFlood flood-opacity="0" result="BackgroundImageFix"/><feBlend in="SourceGraphic" in2="BackgroundImageFix" mode="normal" result="shape"/><feGaussianBlur result="effect1_foregroundBlur_18_10637" stdDeviation=".15"/></filter><filter id="n" color-interpolation-filters="sRGB" filterUnits="userSpaceOnUse" height="6.895" width=".6" x="29.213" y="15.245"><feFlood flood-opacity="0" result="BackgroundImageFix"/><feBlend in="SourceGraphic" in2="BackgroundImageFix" mode="normal" result="shape"/><feGaussianBlur result="effect1_foregroundBlur_18_10637" stdDeviation=".1"/></filter><linearGradient id="o" gradientUnits="userSpaceOnUse" x1="25.985" x2="12.985" y1="8.005" y2="8.005"><stop offset="0" stop-color="#4f4e50"/><stop offset="1" stop-color="#35313e"/></linearGradient><radialGradient id="p" cx="0" cy="0" gradientTransform="matrix(-.73672388 .94191267 -.74476014 -.58251958 25.7489 7.05808)" gradientUnits="userSpaceOnUse" r="1"><stop offset="0" stop-color="#535354"/><stop offset="1" stop-color="#535354" stop-opacity="0"/></radialGradient><linearGradient id="q" gradientUnits="userSpaceOnUse" x1="21.145" x2="21.145" y1="9" y2="8.516"><stop offset="0" stop-color="#4c465f"/><stop offset="1" stop-color="#4c465f" stop-opacity="0"/></linearGradient><linearGradient id="r" gradientUnits="userSpaceOnUse" x1="28.485" x2="28.485" y1="15" y2="20.406"><stop offset="0" stop-color="#665a78"/><stop offset="1" stop-color="#1e1528"/></linearGradient><linearGradient id="s" gradientUnits="userSpaceOnUse" x1="27.885" x2="3.316" y1="18.005" y2="18.005"><stop offset=".285" stop-color="#4a8fd6"/><stop offset=".519" stop-color="#4377da"/><stop offset="1" stop-color="#4379d8"/></linearGradient><linearGradient id="t" gradientUnits="userSpaceOnUse" x1="3.128" x2="21.323" y1="25.505" y2="25.505"><stop offset="0" stop-color="#ab9dbb"/><stop offset="1" stop-color="#b9a0d2"/></linearGradient><linearGradient id="u" gradientUnits="userSpaceOnUse" x1="15.49" x2="15.49" y1="27.374" y2="26.306"><stop offset="0" stop-color="#9556c3"/><stop offset="1" stop-color="#9556c3" stop-opacity="0"/></linearGradient><linearGradient id="v" gradientUnits="userSpaceOnUse" x1="15.49" x2="15.49" y1="24" y2="24.625"><stop offset="0" stop-color="#b2aec1"/><stop offset="1" stop-color="#b2aec1" stop-opacity="0"/></linearGradient><linearGradient id="w"><stop offset="0" stop-color="#131d7e"/><stop offset="1" stop-color="#26439e"/></linearGradient><linearGradient id="x" gradientUnits="userSpaceOnUse" x1="21.348" x2="22.48" xlink:href="#w" y1="22.781" y2="27.017"/><linearGradient id="y" gradientUnits="userSpaceOnUse" x1="7.348" x2="8.48" xlink:href="#w" y1="22.781" y2="27.017"/><linearGradient id="z" gradientUnits="userSpaceOnUse" x1="18.285" x2="18.285" y1="17.05" y2="16.844"><stop offset="0" stop-color="#52a2de"/><stop offset="1" stop-color="#52a2de" stop-opacity="0"/></linearGradient><radialGradient id="A" cx="0" cy="0" gradientTransform="matrix(-6.93749936 4.62498776 -7.29806664 -10.94712791 28.4414 9)" gradientUnits="userSpaceOnUse" r="1"><stop offset="0" stop-color="#5fc0ea"/><stop offset="1" stop-color="#5fc0ea" stop-opacity="0"/></radialGradient><linearGradient id="B" gradientUnits="userSpaceOnUse" x1="16.332" x2="16.332" y1="8.812" y2="9.344"><stop offset="0" stop-color="#3c6fa9"/><stop offset="1" stop-color="#3c6fa9" stop-opacity="0"/></linearGradient><linearGradient id="C" gradientUnits="userSpaceOnUse" x1="26.879" x2="5.078" y1="18.5" y2="18.5"><stop offset="0" stop-color="#5ab3db"/><stop offset="1" stop-color="#5190e3"/></linearGradient><linearGradient id="D" gradientUnits="userSpaceOnUse" x1="11.41" x2="9.91" y1="18.313" y2="16.422"><stop offset="0" stop-color="#122773"/><stop offset="1" stop-color="#122773" stop-opacity="0"/></linearGradient><linearGradient id="E"><stop offset="0" stop-color="#41b8f6"/><stop offset="1" stop-color="#59f5ff"/></linearGradient><linearGradient id="F" gradientUnits="userSpaceOnUse" x1="14.952" x2="7.871" xlink:href="#E" y1="10.05" y2="17.05"/><linearGradient id="G"><stop offset="0" stop-color="#2cb6e5"/><stop offset="1" stop-color="#2cb6e5" stop-opacity="0"/></linearGradient><linearGradient id="H" gradientUnits="userSpaceOnUse" x1="15.329" x2="13.579" xlink:href="#G" y1="14.255" y2="14.255"/><linearGradient id="I"><stop offset="0" stop-color="#0369da"/><stop offset="1" stop-color="#0369da" stop-opacity="0"/></linearGradient><linearGradient id="J" gradientUnits="userSpaceOnUse" x1="10.997" x2="10.997" xlink:href="#I" y1="10.292" y2="12.206"/><linearGradient id="K" gradientUnits="userSpaceOnUse" x1="4.483" x2="3.764" y1="19" y2="22.218"><stop offset="0" stop-color="#355fc4"/><stop offset="1" stop-color="#4283d7"/></linearGradient><radialGradient id="L" cx="0" cy="0" gradientTransform="matrix(0 -2.77856 2.2146 0 3.66873 21.5667)" gradientUnits="userSpaceOnUse" r="1"><stop offset="0" stop-color="#fff783"/><stop offset="1" stop-color="#dfbf4e"/></radialGradient><linearGradient id="M" gradientUnits="userSpaceOnUse" x1="2.77" x2="3.254" y1="20.578" y2="20.578"><stop offset="0" stop-color="#c3a558"/><stop offset="1" stop-color="#c3a558" stop-opacity="0"/></linearGradient><linearGradient id="N"><stop offset=".239" stop-color="#34214f"/><stop offset="1" stop-color="#241337"/></linearGradient><linearGradient id="O" gradientUnits="userSpaceOnUse" x1="6.866" x2="12.123" xlink:href="#N" y1="25.62" y2="25.62"/><linearGradient id="P"><stop offset=".523" stop-color="#2d114d"/><stop offset="1" stop-color="#2b1249" stop-opacity="0"/></linearGradient><radialGradient id="Q" cx="0" cy="0" gradientTransform="matrix(.79082946 -1.73825857 1.81554586 .8259917 8.47998 26.1868)" gradientUnits="userSpaceOnUse" r="1" xlink:href="#P"/><linearGradient id="R"><stop offset=".083" stop-color="#615b6b"/><stop offset=".391" stop-color="#615b6b" stop-opacity="0"/><stop offset=".692" stop-color="#615b6b" stop-opacity="0"/><stop offset=".935" stop-color="#615b6b"/></linearGradient><linearGradient id="S" gradientUnits="userSpaceOnUse" x1="9.903" x2="6.96" xlink:href="#R" y1="24.26" y2="28.323"/><linearGradient id="T" gradientUnits="userSpaceOnUse" x1="20.866" x2="26.123" xlink:href="#N" y1="25.62" y2="25.62"/><radialGradient id="U" cx="0" cy="0" gradientTransform="matrix(.79082946 -1.73825857 1.81554586 .8259917 22.48 26.1868)" gradientUnits="userSpaceOnUse" r="1" xlink:href="#P"/><linearGradient id="V" gradientUnits="userSpaceOnUse" x1="23.878" x2="20.935" xlink:href="#R" y1="24.26" y2="28.323"/><linearGradient id="W" gradientUnits="userSpaceOnUse" x1="22.949" x2="16.164" xlink:href="#E" y1="10.05" y2="15.104"/><linearGradient id="X" gradientUnits="userSpaceOnUse" x1="23.233" x2="21.915" xlink:href="#G" y1="14.255" y2="14.255"/><linearGradient id="Y" gradientUnits="userSpaceOnUse" x1="19.969" x2="19.969" xlink:href="#I" y1="10.292" y2="13.55"/><linearGradient id="Z" gradientUnits="userSpaceOnUse" x1="27.984" x2="23.329" xlink:href="#E" y1="10.05" y2="11.796"/><linearGradient id="aa" gradientUnits="userSpaceOnUse" x1="28.128" x2="27.464" xlink:href="#G" y1="14.255" y2="14.255"/><linearGradient id="ab" gradientUnits="userSpaceOnUse" x1="26.484" x2="26.484" xlink:href="#I" y1="10.292" y2="13.55"/><radialGradient id="ac" cx="0" cy="0" gradientTransform="matrix(-1.50979706 2.79510905 -.97634942 -.52738175 28.6167 10.7549)" gradientUnits="userSpaceOnUse" r="1"><stop offset="0" stop-color="#3296f0"/><stop offset="1" stop-color="#3296f0" stop-opacity="0"/></radialGradient><linearGradient id="ad" gradientUnits="userSpaceOnUse" x1="27.358" x2="26.979" y1="19" y2="22"><stop offset="0" stop-color="#3a74be"/><stop offset="1" stop-color="#4797c1"/></linearGradient><linearGradient id="ae" gradientUnits="userSpaceOnUse" x1="27.98" x2="26.979" y1="21.784" y2="19.656"><stop offset="0" stop-color="#f83d69"/><stop offset="1" stop-color="#d11f58"/></linearGradient><linearGradient id="af"><stop offset="0" stop-color="#c6c2cb"/><stop offset="1" stop-color="#b9b4bf"/></linearGradient><linearGradient id="ag" gradientUnits="userSpaceOnUse" x1="13.985" x2="15.985" xlink:href="#af" y1="18.505" y2="18.505"/><linearGradient id="ah"><stop offset="0" stop-color="#80778a"/><stop offset="1" stop-color="#80778a" stop-opacity="0"/></linearGradient><linearGradient id="ai" gradientUnits="userSpaceOnUse" x1="16.066" x2="15.395" xlink:href="#ah" y1="18.828" y2="18.828"/><linearGradient id="aj" gradientUnits="userSpaceOnUse" x1="18.985" x2="20.985" xlink:href="#af" y1="18.505" y2="18.505"/><linearGradient id="ak" gradientUnits="userSpaceOnUse" x1="21.066" x2="20.395" xlink:href="#ah" y1="18.828" y2="18.828"/><linearGradient id="al"><stop offset="0" stop-color="#c6bfd3"/><stop offset="1" stop-color="#d9d7dc"/></linearGradient><linearGradient id="am" gradientUnits="userSpaceOnUse" x1="14.332" x2="14.332" xlink:href="#al" y1="8.125" y2="7"/><linearGradient id="an" gradientUnits="userSpaceOnUse" x1="15.985" x2="16.985" y1="7.505" y2="7.505"><stop offset="0" stop-color="#9b9b9b"/><stop offset="1" stop-color="#d3d3d3"/></linearGradient><linearGradient id="ao" gradientUnits="userSpaceOnUse" x1="16.332" x2="16.332" xlink:href="#al" y1="8.125" y2="7"/><linearGradient id="ap" gradientUnits="userSpaceOnUse" x1="18.332" x2="18.332" xlink:href="#al" y1="8.125" y2="7"/><linearGradient id="aq" gradientUnits="userSpaceOnUse" x1="20.332" x2="20.332" xlink:href="#al" y1="8.125" y2="7"/><linearGradient id="ar" gradientUnits="userSpaceOnUse" x1="22.332" x2="22.332" xlink:href="#al" y1="8.125" y2="7"/><linearGradient id="as" gradientUnits="userSpaceOnUse" x1="24.332" x2="24.332" xlink:href="#al" y1="8.125" y2="7"/><linearGradient id="at" gradientUnits="userSpaceOnUse" x1="27.379" x2="11.754" y1="9.563" y2="9.563"><stop offset="0" stop-color="#6bd7f0"/><stop offset="1" stop-color="#6bd7f0" stop-opacity="0"/></linearGradient><linearGradient id="au" gradientUnits="userSpaceOnUse" x1="29.513" x2="29.513" y1="20.238" y2="15.363"><stop offset="0" stop-color="#675b75" stop-opacity="0"/><stop offset="1" stop-color="#675b75"/></linearGradient><radialGradient id="av" cx="0" cy="0" gradientTransform="matrix(1.25000015 -1.30468638 3.48231435 3.33635233 10.7861 17.4839)" gradientUnits="userSpaceOnUse" r="1"><stop offset="0" stop-color="#2d253a"/><stop offset="1" stop-color="#5e526a"/></radialGradient><linearGradient id="aw" gradientUnits="userSpaceOnUse" x1="11.664" x2="11.98" y1="16.794" y2="16.794"><stop offset="0" stop-color="#30334d" stop-opacity="0"/><stop offset="1" stop-color="#30334d"/></linearGradient><path d="m24.98 7h-11c-.55 0-1 .45-1 1v1h1v-1h11v1h1v-1c0-.55-.44-1-1-1z" fill="url(#o)"/><path d="m24.98 7h-11c-.55 0-1 .45-1 1v1h1v-1h11v1h1v-1c0-.55-.44-1-1-1z" fill="url(#p)"/><path d="m24.98 7h-11c-.55 0-1 .45-1 1v1h1v-1h11v1h1v-1c0-.55-.44-1-1-1z" fill="url(#q)"/><path d="m29.48 23h-2.49v-8h2.49c.28 0 .51.23.51.51v6.98c-.01.29-.23.51-.51.51z" fill="url(#r)"/><path d="m27.03 9h-15.46c-.36 0-.69.21-.85.53l-3.67002 7.51h-2.17c-1.05 0-1.9.85-1.9 1.9v8.06h25.00002v-17.05c0-.52-.42-.95-.95-.95z" fill="url(#s)"/><path d="m28.12 24h-25.26001c-.48 0-.87.39-.87.87v1.26c0 .48.39.87.87.87h25.26001c.48 0 .87-.39.87-.87v-1.26c-.01-.48-.39-.87-.87-.87z" fill="url(#t)"/><path d="m28.12 24h-25.26001c-.48 0-.87.39-.87.87v1.26c0 .48.39.87.87.87h25.26001c.48 0 .87-.39.87-.87v-1.26c-.01-.48-.39-.87-.87-.87z" fill="url(#u)"/><path d="m28.12 24h-25.26001c-.48 0-.87.39-.87.87v1.26c0 .48.39.87.87.87h25.26001c.48 0 .87-.39.87-.87v-1.26c-.01-.48-.39-.87-.87-.87z" fill="url(#v)"/><path d="m26.3208 27.0165v-.8417h-.002c-.0651-2.064-1.7589-3.6461-3.8388-3.6461s-3.7737 1.5821-3.8389 3.6461h-.0019v.8417z" fill="url(#x)"/><path d="m12.3208 27.0165v-.8417h-.002c-.0651-2.064-1.7589-3.6461-3.83882-3.6461s-3.77368 1.5821-3.83885 3.6461h-.00197v.8417z" fill="url(#y)"/><path d="m27.98 17.05h-23.29635c.06452-.0066.13007-.01.19635-.01h2.16999l3.67001-7.51c.16-.32.49-.53.8499-.53h15.4601c.53 0 .95.43.95.95z" fill="url(#z)"/><path d="m27.98 17.05h-23.29635c.06452-.0066.13007-.01.19635-.01h2.16999l3.67001-7.51c.16-.32.49-.53.8499-.53h15.4601c.53 0 .95.43.95.95z" fill="url(#A)"/><path d="m27.98 17.05h-23.29635c.06452-.0066.13007-.01.19635-.01h2.16999l3.67001-7.51c.16-.32.49-.53.8499-.53h15.4601c.53 0 .95.43.95.95z" fill="url(#B)"/><g filter="url(#a)"><path d="m4.81641 18.3125h22.46879" stroke="url(#C)" stroke-linecap="round" stroke-width=".5"/></g><g filter="url(#b)"><path clip-rule="evenodd" d="m9.71533 16.7619c.00476-.2921.07026-.9496.49177-1.2973.272-.2245.7039-.2743 1.0578-.2461.2952.0236.4734.2862.4734.5732v.9702.9703c0 .287-.1782.5495-.4734.5731-.3539.0283-.7858-.0216-1.0578-.246-.42151-.3478-.48701-1.0053-.49177-1.2974z" fill="url(#D)" fill-rule="evenodd"/></g><path d="m14.94 16.09v-5.08c0-.53-.43-.96-.96-.96h-3.53l-3.41997 7h6.94997c.53 0 .96-.43.96-.96z" fill="url(#F)"/><path d="m14.94 16.09v-5.08c0-.53-.43-.96-.96-.96h-3.53l-3.41997 7h6.94997c.53 0 .96-.43.96-.96z" fill="url(#H)"/><path d="m14.94 16.09v-5.08c0-.53-.43-.96-.96-.96h-3.53l-3.41997 7h6.94997c.53 0 .96-.43.96-.96z" fill="url(#J)"/><g filter="url(#c)"><path d="m4.97998 20c0-.55-.42001-1-.93335-1h-.93335v2.34.66h.93335c.51334 0 .93335-.45.93335-1z" stroke="url(#K)" stroke-width=".2"/></g><path d="m4.97998 20c0-.55-.45-1-1-1h-1v2.34.66h1c.55 0 1-.45 1-1z" fill="url(#L)"/><path d="m4.97998 20c0-.55-.45-1-1-1h-1v2.34.66h1c.55 0 1-.45 1-1z" fill="url(#M)"/><g filter="url(#d)"><path d="m8.47998 30c1.93302 0 3.50002-1.567 3.50002-3.5s-1.567-3.5-3.50002-3.5c-1.933 0-3.5 1.567-3.5 3.5s1.567 3.5 3.5 3.5z" fill="url(#O)"/><path d="m8.47998 30c1.93302 0 3.50002-1.567 3.50002-3.5s-1.567-3.5-3.50002-3.5c-1.933 0-3.5 1.567-3.5 3.5s1.567 3.5 3.5 3.5z" fill="url(#Q)"/></g><g filter="url(#e)"><path d="m8.58304 28.6033c1.33761 0 2.42196-1.0843 2.42196-2.422 0-1.3376-1.08435-2.4219-2.42196-2.4219-1.33762 0-2.42197 1.0843-2.42197 2.4219 0 1.3377 1.08435 2.422 2.42197 2.422z" stroke="url(#S)" stroke-width=".85"/></g><g filter="url(#f)"><path d="m8.47998 27.75c.69036 0 1.25-.5596 1.25-1.25s-.55964-1.25-1.25-1.25-1.25.5596-1.25 1.25.55964 1.25 1.25 1.25z" fill="#ddc7f3"/></g><g filter="url(#g)"><path d="m22.48 30c1.933 0 3.5-1.567 3.5-3.5s-1.567-3.5-3.5-3.5-3.5 1.567-3.5 3.5 1.567 3.5 3.5 3.5z" fill="url(#T)"/><path d="m22.48 30c1.933 0 3.5-1.567 3.5-3.5s-1.567-3.5-3.5-3.5-3.5 1.567-3.5 3.5 1.567 3.5 3.5 3.5z" fill="url(#U)"/></g><g filter="url(#h)"><path d="m22.48 27.75c.6903 0 1.25-.5596 1.25-1.25s-.5597-1.25-1.25-1.25c-.6904 0-1.25.5596-1.25 1.25s.5596 1.25 1.25 1.25z" fill="#d9c3f0"/></g><g filter="url(#i)"><path d="m22.558 28.6033c1.3376 0 2.422-1.0843 2.422-2.422 0-1.3376-1.0844-2.4219-2.422-2.4219s-2.422 1.0843-2.422 2.4219c0 1.3377 1.0844 2.422 2.422 2.422z" stroke="url(#V)" stroke-width=".85"/></g><path d="m21.98 17.05h-4.04c-.53 0-.96-.43-.96-.96v-5.08c0-.53.43-.96.96-.96h4.04c.53 0 .96.43.96.96v5.08c0 .53-.43.96-.96.96z" fill="url(#W)"/><path d="m21.98 17.05h-4.04c-.53 0-.96-.43-.96-.96v-5.08c0-.53.43-.96.96-.96h4.04c.53 0 .96.43.96.96v5.08c0 .53-.43.96-.96.96z" fill="url(#X)"/><path d="m21.98 17.05h-4.04c-.53 0-.96-.43-.96-.96v-5.08c0-.53.43-.96.96-.96h4.04c.53 0 .96.43.96.96v5.08c0 .53-.43.96-.96.96z" fill="url(#Y)"/><path d="m27.98 10.05h-2.04c-.53 0-.96.43-.96.96v5.08c0 .53.43.96.96.96h2.04z" fill="url(#Z)"/><path d="m27.98 10.05h-2.04c-.53 0-.96.43-.96.96v5.08c0 .53.43.96.96.96h2.04z" fill="url(#aa)"/><path d="m27.98 10.05h-2.04c-.53 0-.96.43-.96.96v5.08c0 .53.43.96.96.96h2.04z" fill="url(#ab)"/><path d="m27.98 10.05h-2.04c-.53 0-.96.43-.96.96v5.08c0 .53.43.96.96.96h2.04z" fill="url(#ac)"/><g filter="url(#j)"><path d="m27.8578 19h-.3778c-.85 0-1.54.71-1.5 1.57.04.81.74 1.43 1.55 1.43h.3278z" stroke="url(#ad)" stroke-width=".2"/></g><path d="m27.98 19h-.5c-.85 0-1.54.71-1.5 1.57.04.81.74 1.43 1.55 1.43h.45z" fill="url(#ae)"/><g filter="url(#k)"><path d="m15.48 19h-1c-.28 0-.5-.22-.5-.5s.22-.5.5-.5h1c.28 0 .5.22.5.5s-.22.5-.5.5z" fill="url(#ag)"/><path d="m15.48 19h-1c-.28 0-.5-.22-.5-.5s.22-.5.5-.5h1c.28 0 .5.22.5.5s-.22.5-.5.5z" fill="url(#ai)"/></g><g filter="url(#l)"><path d="m20.48 19h-1c-.28 0-.5-.22-.5-.5s.22-.5.5-.5h1c.28 0 .5.22.5.5s-.22.5-.5.5z" fill="url(#aj)"/><path d="m20.48 19h-1c-.28 0-.5-.22-.5-.5s.22-.5.5-.5h1c.28 0 .5.22.5.5s-.22.5-.5.5z" fill="url(#ak)"/></g><path d="m14.98 7h-1v1h1z" fill="url(#am)"/><path d="m16.98 7h-1v1h1z" fill="url(#an)"/><path d="m16.98 7h-1v1h1z" fill="url(#ao)"/><path d="m18.98 7h-1v1h1z" fill="url(#ap)"/><path d="m20.98 7h-1v1h1z" fill="url(#aq)"/><path d="m22.98 7h-1v1h1z" fill="url(#ar)"/><path d="m24.98 7h-1v1h1z" fill="url(#as)"/><g filter="url(#m)"><path d="m11.5664 9.375h15.8125" stroke="url(#at)" stroke-linecap="round" stroke-width=".15"/></g><g filter="url(#n)"><path d="m29.5132 15.5446v6.2946" stroke="url(#au)" stroke-linecap="round" stroke-width=".2"/></g><g clip-rule="evenodd" fill-rule="evenodd"><path d="m9.95703 16.5506c.00476-.2921.07027-.9496.49177-1.2974.272-.2244.7039-.2743 1.0578-.246.2952.0235.4734.2861.4734.5731v.9703.9702c0 .287-.1782.5496-.4734.5731-.3539.0283-.7858-.0215-1.0578-.246-.4215-.3478-.48701-1.0052-.49177-1.2973z" fill="url(#av)"/><path d="m9.95703 16.5506c.00476-.2921.07027-.9496.49177-1.2974.272-.2244.7039-.2743 1.0578-.246.2952.0235.4734.2861.4734.5731v.9703.9702c0 .287-.1782.5496-.4734.5731-.3539.0283-.7858-.0215-1.0578-.246-.4215-.3478-.48701-1.0052-.49177-1.2973z" fill="url(#aw)"/></g></svg>