<svg fill="none" height="32" viewBox="0 0 32 32" width="32" xmlns="http://www.w3.org/2000/svg" xmlns:xlink="http://www.w3.org/1999/xlink"><filter id="a" color-interpolation-filters="sRGB" filterUnits="userSpaceOnUse" height="27.87" width="28.938" x="2.031" y="3.624"><feFlood flood-opacity="0" result="BackgroundImageFix"/><feBlend in="SourceGraphic" in2="BackgroundImageFix" mode="normal" result="shape"/><feColorMatrix in="SourceAlpha" result="hardAlpha" type="matrix" values="0 0 0 0 0 0 0 0 0 0 0 0 0 0 0 0 0 0 127 0"/><feOffset dx="1" dy="1"/><feGaussianBlur stdDeviation="1"/><feComposite in2="hardAlpha" k2="-1" k3="1" operator="arithmetic"/><feColorMatrix type="matrix" values="0 0 0 0 0.219608 0 0 0 0 0.658824 0 0 0 0 0.352941 0 0 0 1 0"/><feBlend in2="shape" mode="normal" result="effect1_innerShadow_3987_23483"/></filter><filter id="b" color-interpolation-filters="sRGB" filterUnits="userSpaceOnUse" height="5.198" width="8.378" x="17.771" y="3.624"><feFlood flood-opacity="0" result="BackgroundImageFix"/><feBlend in="SourceGraphic" in2="BackgroundImageFix" mode="normal" result="shape"/><feColorMatrix in="SourceAlpha" result="hardAlpha" type="matrix" values="0 0 0 0 0 0 0 0 0 0 0 0 0 0 0 0 0 0 127 0"/><feOffset dx=".25" dy=".5"/><feGaussianBlur stdDeviation=".375"/><feComposite in2="hardAlpha" k2="-1" k3="1" operator="arithmetic"/><feColorMatrix type="matrix" values="0 0 0 0 0.705882 0 0 0 0 0.705882 0 0 0 0 0.709804 0 0 0 1 0"/><feBlend in2="shape" mode="normal" result="effect1_innerShadow_3987_23483"/></filter><filter id="c" color-interpolation-filters="sRGB" filterUnits="userSpaceOnUse" height="3.388" width="27.922" x="2.047" y="27.321"><feFlood flood-opacity="0" result="BackgroundImageFix"/><feBlend in="SourceGraphic" in2="BackgroundImageFix" mode="normal" result="shape"/><feColorMatrix in="SourceAlpha" result="hardAlpha" type="matrix" values="0 0 0 0 0 0 0 0 0 0 0 0 0 0 0 0 0 0 127 0"/><feOffset dy=".2"/><feGaussianBlur stdDeviation=".5"/><feComposite in2="hardAlpha" k2="-1" k3="1" operator="arithmetic"/><feColorMatrix type="matrix" values="0 0 0 0 0.47451 0 0 0 0 0.258824 0 0 0 0 0.25098 0 0 0 1 0"/><feBlend in2="shape" mode="normal" result="effect1_innerShadow_3987_23483"/></filter><filter id="d" color-interpolation-filters="sRGB" filterUnits="userSpaceOnUse" height="9.938" width="9.938" x="2.086" y="20.572"><feFlood flood-opacity="0" result="BackgroundImageFix"/><feBlend in="SourceGraphic" in2="BackgroundImageFix" mode="normal" result="shape"/><feColorMatrix in="SourceAlpha" result="hardAlpha" type="matrix" values="0 0 0 0 0 0 0 0 0 0 0 0 0 0 0 0 0 0 127 0"/><feOffset/><feGaussianBlur stdDeviation=".25"/><feComposite in2="hardAlpha" k2="-1" k3="1" operator="arithmetic"/><feColorMatrix type="matrix" values="0 0 0 0 0.227451 0 0 0 0 0.156863 0 0 0 0 0.27451 0 0 0 1 0"/><feBlend in2="shape" mode="normal" result="effect1_innerShadow_3987_23483"/></filter><filter id="e" color-interpolation-filters="sRGB" filterUnits="userSpaceOnUse" height="10.409" width="10.409" x="1.85" y="20.336"><feFlood flood-opacity="0" result="BackgroundImageFix"/><feBlend in="SourceGraphic" in2="BackgroundImageFix" mode="normal" result="shape"/><feGaussianBlur result="effect1_foregroundBlur_3987_23483" stdDeviation=".25"/></filter><filter id="f" color-interpolation-filters="sRGB" filterUnits="userSpaceOnUse" height="10.037" width="10.037" x="20.031" y="20.471"><feFlood flood-opacity="0" result="BackgroundImageFix"/><feBlend in="SourceGraphic" in2="BackgroundImageFix" mode="normal" result="shape"/><feColorMatrix in="SourceAlpha" result="hardAlpha" type="matrix" values="0 0 0 0 0 0 0 0 0 0 0 0 0 0 0 0 0 0 127 0"/><feOffset dx=".1" dy="-.1"/><feGaussianBlur stdDeviation=".2"/><feComposite in2="hardAlpha" k2="-1" k3="1" operator="arithmetic"/><feColorMatrix type="matrix" values="0 0 0 0 0.152941 0 0 0 0 0.0862745 0 0 0 0 0.164706 0 0 0 1 0"/><feBlend in2="shape" mode="normal" result="effect1_innerShadow_3987_23483"/></filter><filter id="g" color-interpolation-filters="sRGB" filterUnits="userSpaceOnUse" height="4.077" width="9.188" x="16.664" y="23.427"><feFlood flood-opacity="0" result="BackgroundImageFix"/><feBlend in="SourceGraphic" in2="BackgroundImageFix" mode="normal" result="shape"/><feColorMatrix in="SourceAlpha" result="hardAlpha" type="matrix" values="0 0 0 0 0 0 0 0 0 0 0 0 0 0 0 0 0 0 127 0"/><feOffset dx=".25" dy="-.25"/><feGaussianBlur stdDeviation=".25"/><feComposite in2="hardAlpha" k2="-1" k3="1" operator="arithmetic"/><feColorMatrix type="matrix" values="0 0 0 0 0.701961 0 0 0 0 0.341176 0 0 0 0 0.254902 0 0 0 1 0"/><feBlend in2="shape" mode="normal" result="effect1_innerShadow_3987_23483"/><feColorMatrix in="SourceAlpha" result="hardAlpha" type="matrix" values="0 0 0 0 0 0 0 0 0 0 0 0 0 0 0 0 0 0 127 0"/><feOffset dx=".25" dy=".1"/><feGaussianBlur stdDeviation=".25"/><feComposite in2="hardAlpha" k2="-1" k3="1" operator="arithmetic"/><feColorMatrix type="matrix" values="0 0 0 0 0.894118 0 0 0 0 0.490196 0 0 0 0 0.196078 0 0 0 1 0"/><feBlend in2="effect1_innerShadow_3987_23483" mode="normal" result="effect2_innerShadow_3987_23483"/></filter><filter id="h" color-interpolation-filters="sRGB" filterUnits="userSpaceOnUse" height="2.181" width="4.034" x="13.527" y="23.64"><feFlood flood-opacity="0" result="BackgroundImageFix"/><feBlend in="SourceGraphic" in2="BackgroundImageFix" mode="normal" result="shape"/><feColorMatrix in="SourceAlpha" result="hardAlpha" type="matrix" values="0 0 0 0 0 0 0 0 0 0 0 0 0 0 0 0 0 0 127 0"/><feOffset dx=".1" dy="-.15"/><feGaussianBlur stdDeviation=".125"/><feComposite in2="hardAlpha" k2="-1" k3="1" operator="arithmetic"/><feColorMatrix type="matrix" values="0 0 0 0 0.27451 0 0 0 0 0.188235 0 0 0 0 0.52549 0 0 0 1 0"/><feBlend in2="shape" mode="normal" result="effect1_innerShadow_3987_23483"/></filter><filter id="i" color-interpolation-filters="sRGB" filterUnits="userSpaceOnUse" height="8.62" width="3.572" x="15.2" y="16.05"><feFlood flood-opacity="0" result="BackgroundImageFix"/><feBlend in="SourceGraphic" in2="BackgroundImageFix" mode="normal" result="shape"/><feColorMatrix in="SourceAlpha" result="hardAlpha" type="matrix" values="0 0 0 0 0 0 0 0 0 0 0 0 0 0 0 0 0 0 127 0"/><feOffset dx=".1" dy=".2"/><feGaussianBlur stdDeviation=".1"/><feComposite in2="hardAlpha" k2="-1" k3="1" operator="arithmetic"/><feColorMatrix type="matrix" values="0 0 0 0 0.333333 0 0 0 0 0.262745 0 0 0 0 0.254902 0 0 0 1 0"/><feBlend in2="shape" mode="normal" result="effect1_innerShadow_3987_23483"/></filter><filter id="j" color-interpolation-filters="sRGB" filterUnits="userSpaceOnUse" height="7.67" width="6.668" x="16.578" y="10.915"><feFlood flood-opacity="0" result="BackgroundImageFix"/><feBlend in="SourceGraphic" in2="BackgroundImageFix" mode="normal" result="shape"/><feColorMatrix in="SourceAlpha" result="hardAlpha" type="matrix" values="0 0 0 0 0 0 0 0 0 0 0 0 0 0 0 0 0 0 127 0"/><feOffset dx=".25" dy="-.25"/><feGaussianBlur stdDeviation=".625"/><feComposite in2="hardAlpha" k2="-1" k3="1" operator="arithmetic"/><feColorMatrix type="matrix" values="0 0 0 0 0.482353 0 0 0 0 0.360784 0 0 0 0 0.556863 0 0 0 1 0"/><feBlend in2="shape" mode="normal" result="effect1_innerShadow_3987_23483"/></filter><filter id="k" color-interpolation-filters="sRGB" filterUnits="userSpaceOnUse" height="5.869" width="7.971" x="15.037" y="7.819"><feFlood flood-opacity="0" result="BackgroundImageFix"/><feBlend in="SourceGraphic" in2="BackgroundImageFix" mode="normal" result="shape"/><feColorMatrix in="SourceAlpha" result="hardAlpha" type="matrix" values="0 0 0 0 0 0 0 0 0 0 0 0 0 0 0 0 0 0 127 0"/><feOffset dx="1"/><feGaussianBlur stdDeviation=".75"/><feComposite in2="hardAlpha" k2="-1" k3="1" operator="arithmetic"/><feColorMatrix type="matrix" values="0 0 0 0 0.282353 0 0 0 0 0.411765 0 0 0 0 0.717647 0 0 0 1 0"/><feBlend in2="shape" mode="normal" result="effect1_innerShadow_3987_23483"/></filter><filter id="l" color-interpolation-filters="sRGB" filterUnits="userSpaceOnUse" height="4.259" width="6.005" x="6.933" y="11.598"><feFlood flood-opacity="0" result="BackgroundImageFix"/><feBlend in="SourceGraphic" in2="BackgroundImageFix" mode="normal" result="shape"/><feColorMatrix in="SourceAlpha" result="hardAlpha" type="matrix" values="0 0 0 0 0 0 0 0 0 0 0 0 0 0 0 0 0 0 127 0"/><feOffset dx="-.25"/><feGaussianBlur stdDeviation=".5"/><feComposite in2="hardAlpha" k2="-1" k3="1" operator="arithmetic"/><feColorMatrix type="matrix" values="0 0 0 0 0.576471 0 0 0 0 0.505882 0 0 0 0 0.529412 0 0 0 1 0"/><feBlend in2="shape" mode="normal" result="effect1_innerShadow_3987_23483"/></filter><filter id="m" color-interpolation-filters="sRGB" filterUnits="userSpaceOnUse" height="2.915" width="3.137" x="6.934" y="13.193"><feFlood flood-opacity="0" result="BackgroundImageFix"/><feBlend in="SourceGraphic" in2="BackgroundImageFix" mode="normal" result="shape"/><feColorMatrix in="SourceAlpha" result="hardAlpha" type="matrix" values="0 0 0 0 0 0 0 0 0 0 0 0 0 0 0 0 0 0 127 0"/><feOffset dx="-.25" dy=".25"/><feGaussianBlur stdDeviation=".25"/><feComposite in2="hardAlpha" k2="-1" k3="1" operator="arithmetic"/><feColorMatrix type="matrix" values="0 0 0 0 0.164706 0 0 0 0 0.117647 0 0 0 0 0.231373 0 0 0 1 0"/><feBlend in2="shape" mode="normal" result="effect1_innerShadow_3987_23483"/></filter><filter id="n" color-interpolation-filters="sRGB" filterUnits="userSpaceOnUse" height="6.937" width="10.272" x="7.81" y="8.154"><feFlood flood-opacity="0" result="BackgroundImageFix"/><feBlend in="SourceGraphic" in2="BackgroundImageFix" mode="normal" result="shape"/><feColorMatrix in="SourceAlpha" result="hardAlpha" type="matrix" values="0 0 0 0 0 0 0 0 0 0 0 0 0 0 0 0 0 0 127 0"/><feOffset dx=".5" dy="-.5"/><feGaussianBlur stdDeviation=".375"/><feComposite in2="hardAlpha" k2="-1" k3="1" operator="arithmetic"/><feColorMatrix type="matrix" values="0 0 0 0 0.25098 0 0 0 0 0.12549 0 0 0 0 0.203922 0 0 0 1 0"/><feBlend in2="shape" mode="normal" result="effect1_innerShadow_3987_23483"/></filter><filter id="o" color-interpolation-filters="sRGB" filterUnits="userSpaceOnUse" height="6.372" width="5.496" x="17.724" y="11.339"><feFlood flood-opacity="0" result="BackgroundImageFix"/><feBlend in="SourceGraphic" in2="BackgroundImageFix" mode="normal" result="shape"/><feGaussianBlur result="effect1_foregroundBlur_3987_23483" stdDeviation=".3"/></filter><filter id="p" color-interpolation-filters="sRGB" filterUnits="userSpaceOnUse" height="2.969" width="2.969" x="7.738" y="12.503"><feFlood flood-opacity="0" result="BackgroundImageFix"/><feBlend in="SourceGraphic" in2="BackgroundImageFix" mode="normal" result="shape"/><feGaussianBlur result="effect1_foregroundBlur_3987_23483" stdDeviation=".3"/></filter><filter id="q" color-interpolation-filters="sRGB" filterUnits="userSpaceOnUse" height="5.249" width="5.753" x="10.07" y="4.992"><feFlood flood-opacity="0" result="BackgroundImageFix"/><feBlend in="SourceGraphic" in2="BackgroundImageFix" mode="normal" result="shape"/><feColorMatrix in="SourceAlpha" result="hardAlpha" type="matrix" values="0 0 0 0 0 0 0 0 0 0 0 0 0 0 0 0 0 0 127 0"/><feOffset dx="-.25" dy="-.25"/><feGaussianBlur stdDeviation=".25"/><feComposite in2="hardAlpha" k2="-1" k3="1" operator="arithmetic"/><feColorMatrix type="matrix" values="0 0 0 0 0.2 0 0 0 0 0.109804 0 0 0 0 0.184314 0 0 0 1 0"/><feBlend in2="shape" mode="normal" result="effect1_innerShadow_3987_23483"/><feColorMatrix in="SourceAlpha" result="hardAlpha" type="matrix" values="0 0 0 0 0 0 0 0 0 0 0 0 0 0 0 0 0 0 127 0"/><feOffset dx=".25" dy=".15"/><feGaussianBlur stdDeviation=".15"/><feComposite in2="hardAlpha" k2="-1" k3="1" operator="arithmetic"/><feColorMatrix type="matrix" values="0 0 0 0 0.352941 0 0 0 0 0.278431 0 0 0 0 0.270588 0 0 0 1 0"/><feBlend in2="effect1_innerShadow_3987_23483" mode="normal" result="effect2_innerShadow_3987_23483"/></filter><filter id="r" color-interpolation-filters="sRGB" filterUnits="userSpaceOnUse" height="2.767" width="3.099" x="13.101" y="4.684"><feFlood flood-opacity="0" result="BackgroundImageFix"/><feBlend in="SourceGraphic" in2="BackgroundImageFix" mode="normal" result="shape"/><feColorMatrix in="SourceAlpha" result="hardAlpha" type="matrix" values="0 0 0 0 0 0 0 0 0 0 0 0 0 0 0 0 0 0 127 0"/><feOffset dx=".4" dy="-.1"/><feGaussianBlur stdDeviation=".25"/><feComposite in2="hardAlpha" k2="-1" k3="1" operator="arithmetic"/><feColorMatrix type="matrix" values="0 0 0 0 0.0784314 0 0 0 0 0.0745098 0 0 0 0 0.12549 0 0 0 1 0"/><feBlend in2="shape" mode="normal" result="effect1_innerShadow_3987_23483"/></filter><filter id="s" color-interpolation-filters="sRGB" filterUnits="userSpaceOnUse" height="4.983" width="5.871" x="9.308" y="2.458"><feFlood flood-opacity="0" result="BackgroundImageFix"/><feBlend in="SourceGraphic" in2="BackgroundImageFix" mode="normal" result="shape"/><feColorMatrix in="SourceAlpha" result="hardAlpha" type="matrix" values="0 0 0 0 0 0 0 0 0 0 0 0 0 0 0 0 0 0 127 0"/><feOffset dy="-.15"/><feGaussianBlur stdDeviation=".3"/><feComposite in2="hardAlpha" k2="-1" k3="1" operator="arithmetic"/><feColorMatrix type="matrix" values="0 0 0 0 0.305882 0 0 0 0 0.556863 0 0 0 0 0.882353 0 0 0 1 0"/><feBlend in2="shape" mode="normal" result="effect1_innerShadow_3987_23483"/></filter><filter id="t" color-interpolation-filters="sRGB" filterUnits="userSpaceOnUse" height="1.346" width="1.989" x="11.246" y="4.593"><feFlood flood-opacity="0" result="BackgroundImageFix"/><feBlend in="SourceGraphic" in2="BackgroundImageFix" mode="normal" result="shape"/><feColorMatrix in="SourceAlpha" result="hardAlpha" type="matrix" values="0 0 0 0 0 0 0 0 0 0 0 0 0 0 0 0 0 0 127 0"/><feOffset/><feGaussianBlur stdDeviation=".25"/><feComposite in2="hardAlpha" k2="-1" k3="1" operator="arithmetic"/><feColorMatrix type="matrix" values="0 0 0 0 0.137255 0 0 0 0 0.482353 0 0 0 0 0.796078 0 0 0 1 0"/><feBlend in2="shape" mode="normal" result="effect1_innerShadow_3987_23483"/></filter><linearGradient id="u" gradientUnits="userSpaceOnUse" x1="9.65" x2="27.955" y1="21.567" y2="9.378"><stop offset="0" stop-color="#37c173"/><stop offset="1" stop-color="#36c571"/></linearGradient><linearGradient id="v" gradientUnits="userSpaceOnUse" x1="29.363" x2="25.903" y1="12.556" y2="14.97"><stop offset=".164" stop-color="#4cdd80"/><stop offset="1" stop-color="#36c871" stop-opacity="0"/></linearGradient><linearGradient id="w" gradientUnits="userSpaceOnUse" x1="21.156" x2="24.898" y1="7.567" y2="5.475"><stop offset="0" stop-color="#d7cfdf"/><stop offset="1" stop-color="#e2dce7"/></linearGradient><radialGradient id="x" cx="0" cy="0" gradientTransform="matrix(-3.22339976 1.83628404 -4.14127775 -7.2695691 25.0585 5.97251)" gradientUnits="userSpaceOnUse" r="1"><stop offset=".19" stop-color="#ebeaed"/><stop offset="1" stop-color="#d9d1df" stop-opacity="0"/></radialGradient><radialGradient id="y" cx="0" cy="0" gradientTransform="matrix(4.42528675 4.18324972 -2.33904521 2.47437912 19.7481 27.321)" gradientUnits="userSpaceOnUse" r="1"><stop offset="0" stop-color="#8a4c56"/><stop offset="1" stop-color="#8a4c56" stop-opacity="0"/></radialGradient><radialGradient id="z" cx="0" cy="0" gradientTransform="matrix(-5.87497859 7.81251861 -7.54119471 -5.67094425 10.2969 21.6262)" gradientUnits="userSpaceOnUse" r="1"><stop offset="0" stop-color="#32295b"/><stop offset="1" stop-color="#3c2150"/></radialGradient><linearGradient id="A" gradientUnits="userSpaceOnUse" x1="9.266" x2="3.234" y1="21.876" y2="28.907"><stop offset="0" stop-color="#302a5b"/><stop offset="1" stop-color="#302a5b" stop-opacity="0"/></linearGradient><linearGradient id="B" gradientUnits="userSpaceOnUse" x1="17.734" x2="18.703" y1="21.079" y2="20.073"><stop offset=".573" stop-color="#381a27"/><stop offset="1" stop-color="#4a3939"/></linearGradient><linearGradient id="C" gradientUnits="userSpaceOnUse" x1="22.25" x2="17.656" y1="22.648" y2="22.189"><stop offset=".891" stop-color="#615f76" stop-opacity="0"/><stop offset="1" stop-color="#615f76"/></linearGradient><radialGradient id="D" cx="0" cy="0" gradientTransform="matrix(-1.53126999 2.45311583 -.44454279 -.27748997 20.3281 21.5168)" gradientUnits="userSpaceOnUse" r="1"><stop offset="0" stop-color="#5d5c7e"/><stop offset="1" stop-color="#5d5c7e" stop-opacity="0"/></radialGradient><linearGradient id="E" gradientUnits="userSpaceOnUse" x1="11.531" x2="10.656" y1="15.47" y2="15.189"><stop offset="0" stop-color="#bfa8c7"/><stop offset="1" stop-color="#908590"/></linearGradient><radialGradient id="F" cx="0" cy="0" gradientTransform="matrix(1.07812374 -2.67187294 .30151132 .12166241 10.6094 17.1574)" gradientUnits="userSpaceOnUse" r="1"><stop offset="0" stop-color="#baa3b9"/><stop offset="1" stop-color="#baa3b9" stop-opacity="0"/></radialGradient><linearGradient id="G" gradientUnits="userSpaceOnUse" x1="9.766" x2="8.484" y1="20.423" y2="19.939"><stop offset=".146" stop-color="#d4385b"/><stop offset="1" stop-color="#973c50"/></linearGradient><radialGradient id="H" cx="0" cy="0" gradientTransform="matrix(6.71875315 4.82812728 -1.31598798 1.83131012 10.2031 19.0793)" gradientUnits="userSpaceOnUse" r="1"><stop offset="0" stop-color="#ce3d5e"/><stop offset="1" stop-color="#932145"/></radialGradient><linearGradient id="I" gradientUnits="userSpaceOnUse" x1="12.984" x2="13.375" y1="22.47" y2="21.97"><stop offset="0" stop-color="#96275e"/><stop offset="1" stop-color="#96275e" stop-opacity="0"/><stop offset="1" stop-color="#9c2649" stop-opacity="0"/></linearGradient><radialGradient id="J" cx="0" cy="0" gradientTransform="matrix(-6.86715328 7.00003073 -6.75692924 -6.62866645 29.2344 22.4387)" gradientUnits="userSpaceOnUse" r="1"><stop offset=".427" stop-color="#373c67"/><stop offset="1" stop-color="#38144f"/></radialGradient><linearGradient id="K" gradientUnits="userSpaceOnUse" x1="20.031" x2="27.786" y1="27.981" y2="25.54"><stop offset="0" stop-color="#352542"/><stop offset="1" stop-color="#352542" stop-opacity="0"/></linearGradient><linearGradient id="L" gradientUnits="userSpaceOnUse" x1="23.813" x2="22.75" y1="22.407" y2="23.157"><stop offset="0" stop-color="#fd5a60"/><stop offset="1" stop-color="#af253c"/></linearGradient><linearGradient id="M" gradientUnits="userSpaceOnUse" x1="19.609" x2="18.594" y1="21.181" y2="21.032"><stop offset="0" stop-color="#e5435f"/><stop offset="1" stop-color="#a62f2f"/></linearGradient><radialGradient id="N" cx="0" cy="0" gradientTransform="matrix(-1.0937525 4.48437198 -.42827913 -.10445863 20.1406 17.9857)" gradientUnits="userSpaceOnUse" r="1"><stop offset="0" stop-color="#e44354"/><stop offset="1" stop-color="#e44354" stop-opacity="0"/></radialGradient><radialGradient id="O" cx="0" cy="0" gradientTransform="matrix(-.03125031 -1.06250053 1.65481439 -.04867146 18.4844 24.3138)" gradientUnits="userSpaceOnUse" r="1"><stop offset="0" stop-color="#ac2735"/><stop offset="1" stop-color="#ac2735" stop-opacity="0"/></radialGradient><radialGradient id="P" cx="0" cy="0" gradientTransform="matrix(2.18359331 .43749824 -.55377075 2.76391991 13.2695 17.3137)" gradientUnits="userSpaceOnUse" r="1"><stop offset=".114" stop-color="#4d3938"/><stop offset="1" stop-color="#2f1b1b"/></radialGradient><radialGradient id="Q" cx="0" cy="0" gradientTransform="matrix(1.21875062 .45312581 -.35000106 .94138095 15.7656 17.72)" gradientUnits="userSpaceOnUse" r="1"><stop offset=".346" stop-color="#291618"/><stop offset="1" stop-color="#291618" stop-opacity="0"/></radialGradient><linearGradient id="R" gradientUnits="userSpaceOnUse" x1="14.547" x2="14.969" y1="15.439" y2="16.126"><stop offset="0" stop-color="#41302f"/><stop offset="1" stop-color="#41302f" stop-opacity="0"/></linearGradient><radialGradient id="S" cx="0" cy="0" gradientTransform="matrix(-2.31251357 1.68748882 -.72630839 -.99532394 18.4844 14.4075)" gradientUnits="userSpaceOnUse" r="1"><stop offset=".255" stop-color="#4f414e"/><stop offset="1" stop-color="#564a5a"/></radialGradient><linearGradient id="T" gradientUnits="userSpaceOnUse" x1="16.617" x2="16.984" y1="14.306" y2="14.837"><stop offset="0" stop-color="#72696b"/><stop offset="1" stop-color="#72696b" stop-opacity="0"/></linearGradient><linearGradient id="U" gradientUnits="userSpaceOnUse" x1="25.328" x2="16.664" y1="25.54" y2="25.54"><stop offset="0" stop-color="#f7b14e"/><stop offset="1" stop-color="#e8774d"/></linearGradient><radialGradient id="V" cx="0" cy="0" gradientTransform="matrix(-.867187 0 0 -.96875 25.6016 25.3762)" gradientUnits="userSpaceOnUse" r="1"><stop offset="0" stop-color="#ffd359"/><stop offset="1" stop-color="#ffd359" stop-opacity="0"/></radialGradient><radialGradient id="W" cx="0" cy="0" gradientTransform="matrix(1.56250158 -.65625048 .66796813 1.59040076 17.7031 25.7356)" gradientUnits="userSpaceOnUse" r="1"><stop offset=".47" stop-color="#d8cfe2"/><stop offset="1" stop-color="#c5bfcb"/></radialGradient><radialGradient id="X" cx="0" cy="0" gradientTransform="matrix(-1.56250016 .85938242 -.85938242 -1.56250016 18.9063 25.2668)" gradientUnits="userSpaceOnUse" r="1"><stop offset=".632" stop-color="#e2dfe5" stop-opacity="0"/><stop offset="1" stop-color="#e2dfe5"/></radialGradient><linearGradient id="Y" gradientUnits="userSpaceOnUse" x1="17.461" x2="16.703" y1="25.407" y2="25.407"><stop offset="0" stop-color="#605c92"/><stop offset="1" stop-color="#605c92" stop-opacity="0"/></linearGradient><radialGradient id="Z" cx="0" cy="0" gradientTransform="matrix(-1.10939185 -1.99999616 6.41983308 -3.56106207 16.2813 26.0794)" gradientUnits="userSpaceOnUse" r="1"><stop offset=".301" stop-color="#5c4f86" stop-opacity="0"/><stop offset=".943" stop-color="#493b63"/></radialGradient><linearGradient id="aa" gradientUnits="userSpaceOnUse" x1="15.547" x2="13.942" y1="9.939" y2="9.869"><stop offset="0" stop-color="#513b37"/><stop offset="1" stop-color="#2f191c"/></linearGradient><radialGradient id="ab" cx="0" cy="0" gradientTransform="matrix(.03131881 1.42110493 -.52543542 .01157973 14.961 9.46068)" gradientUnits="userSpaceOnUse" r="1"><stop offset=".18" stop-color="#544241"/><stop offset="1" stop-color="#544241" stop-opacity="0"/></radialGradient><radialGradient id="ac" cx="0" cy="0" gradientTransform="matrix(-.74999348 -8.78125028 2.5288134 -.21598218 17.9219 24.47)" gradientUnits="userSpaceOnUse" r="1"><stop offset=".122" stop-color="#513938"/><stop offset="1" stop-color="#442d2c"/></radialGradient><radialGradient id="ad" cx="0" cy="0" gradientTransform="matrix(-1.68750309 .06249727 -.11168168 -3.01554262 18.8281 18.1888)" gradientUnits="userSpaceOnUse" r="1"><stop offset=".284" stop-color="#3f202e"/><stop offset="1" stop-color="#3f202e" stop-opacity="0"/></radialGradient><radialGradient id="ae" cx="0" cy="0" gradientTransform="matrix(5.12499803 -4.92969106 2.61319214 2.71672289 16.7969 16.095)" gradientUnits="userSpaceOnUse" r="1"><stop offset=".148" stop-color="#726b71"/><stop offset="1" stop-color="#a3a1a2"/></radialGradient><radialGradient id="af" cx="0" cy="0" gradientTransform="matrix(2.59374628 -.09374984 .01804196 .49916105 18.2188 14.3762)" gradientUnits="userSpaceOnUse" r="1"><stop offset=".22" stop-color="#736e75"/><stop offset="1" stop-color="#736e75" stop-opacity="0"/></radialGradient><radialGradient id="ag" cx="0" cy="0" gradientTransform="matrix(-3.49999043 -4.06251234 1.7090785 -1.47242836 21.1094 12.0638)" gradientUnits="userSpaceOnUse" r="1"><stop offset="0" stop-color="#54a7f5"/><stop offset="1" stop-color="#3b79d4"/></radialGradient><radialGradient id="ah" cx="0" cy="0" gradientTransform="matrix(3.25232 0 0 1.29925 10.0602 13.5013)" gradientUnits="userSpaceOnUse" r="1"><stop offset=".254" stop-color="#8c5ea8"/><stop offset="1" stop-color="#8c5ea8" stop-opacity="0"/></radialGradient><radialGradient id="ai" cx="0" cy="0" gradientTransform="matrix(-1.03442913 .40624249 -.45267741 -1.15266796 17.5813 9.31378)" gradientUnits="userSpaceOnUse" r="1"><stop offset="0" stop-color="#604f4d"/><stop offset="1" stop-color="#604f4d" stop-opacity="0"/></radialGradient><linearGradient id="aj"><stop offset=".512" stop-color="#3c212e"/><stop offset="1" stop-color="#492f31"/></linearGradient><radialGradient id="ak" cx="0" cy="0" gradientTransform="matrix(1.68979397 -1.43022763 1.27507919 1.50648825 7.39312 14.5762)" gradientUnits="userSpaceOnUse" r="1" xlink:href="#aj"/><linearGradient id="al"><stop offset=".68" stop-color="#584744" stop-opacity="0"/><stop offset="1" stop-color="#584744"/></linearGradient><radialGradient id="am" cx="0" cy="0" gradientTransform="matrix(-1.31056149 -.2410769 .37304097 -2.02795512 8.42343 14.4415)" gradientUnits="userSpaceOnUse" r="1" xlink:href="#al"/><radialGradient id="an" cx="0" cy="0" gradientTransform="matrix(5.49999736 -1.43750185 2.00474707 7.67032308 17.3594 15.2513)" gradientUnits="userSpaceOnUse" r="1"><stop offset=".625" stop-color="#afa6a9" stop-opacity="0"/><stop offset=".905" stop-color="#afa6a9"/></radialGradient><radialGradient id="ao" cx="0" cy="0" gradientTransform="matrix(1.09826207 -1.28234694 1.06577046 .91277582 7.61832 15.0724)" gradientUnits="userSpaceOnUse" r="1" xlink:href="#aj"/><radialGradient id="ap" cx="0" cy="0" gradientTransform="matrix(-.81595845 -.17382436 .37209174 -1.74665622 8.26839 14.9286)" gradientUnits="userSpaceOnUse" r="1" xlink:href="#al"/><radialGradient id="aq" cx="0" cy="0" gradientTransform="matrix(.8593763 -1.30714651 1.07140993 .70439257 8.18188 15.4856)" gradientUnits="userSpaceOnUse" r="1" xlink:href="#aj"/><radialGradient id="ar" cx="0" cy="0" gradientTransform="matrix(-.74999978 -.07812679 .17331623 -1.66379726 8.75146 15.2849)" gradientUnits="userSpaceOnUse" r="1" xlink:href="#al"/><radialGradient id="as" cx="0" cy="0" gradientTransform="matrix(.68152913 .32945378 -.41443529 .85732731 10.7688 8.37954)" gradientUnits="userSpaceOnUse" r="1"><stop offset=".515" stop-color="#463736"/><stop offset="1" stop-color="#483637"/></radialGradient><radialGradient id="at" cx="0" cy="0" gradientTransform="matrix(3.08262959 -1.12794802 1.16986323 3.19718191 11.5345 8.37752)" gradientUnits="userSpaceOnUse" r="1"><stop offset=".164" stop-color="#402e2d"/><stop offset="1" stop-color="#41292d"/></radialGradient><radialGradient id="au" cx="0" cy="0" gradientTransform="matrix(1.08310139 1.55057581 -1.25120007 .87398277 13.0386 5.64076)" gradientUnits="userSpaceOnUse" r="1"><stop offset="0" stop-color="#2b1a25"/><stop offset="1" stop-color="#2b1a25" stop-opacity="0"/></radialGradient><linearGradient id="av" gradientUnits="userSpaceOnUse" x1="11.131" x2="11.368" y1="7.751" y2="7.612"><stop offset=".242" stop-color="#5f5451"/><stop offset=".667" stop-color="#383838"/></linearGradient><radialGradient id="aw" cx="0" cy="0" gradientTransform="matrix(.82408202 1.58648633 -1.0394891 .53995062 14.6753 5.21272)" gradientUnits="userSpaceOnUse" r="1"><stop offset="0" stop-color="#231820"/><stop offset="1" stop-color="#151a31"/></radialGradient><radialGradient id="ax" cx="0" cy="0" gradientTransform="matrix(-.52907702 -.48149057 .2785799 -.30611238 13.9999 6.68249)" gradientUnits="userSpaceOnUse" r="1"><stop offset=".018" stop-color="#615250"/><stop offset="1" stop-color="#40292e"/></radialGradient><linearGradient id="ay" gradientUnits="userSpaceOnUse" x1="13.75" x2="13.333" y1="7.153" y2="7.364"><stop offset="0" stop-color="#37234c"/><stop offset="1" stop-color="#37234c" stop-opacity="0"/></linearGradient><linearGradient id="az" gradientUnits="userSpaceOnUse" x1="13.594" x2="14.117" y1="8.95" y2="8.639"><stop offset=".324" stop-color="#72687c"/><stop offset="1" stop-color="#72687c" stop-opacity="0"/></linearGradient><radialGradient id="aA" cx="0" cy="0" gradientTransform="matrix(.18739366 -.08563178 .50193212 1.09841105 13.3848 6.96597)" gradientUnits="userSpaceOnUse" r="1"><stop offset="0" stop-color="#564975"/><stop offset="1" stop-color="#4d3a6e" stop-opacity="0"/></radialGradient><radialGradient id="aB" cx="0" cy="0" gradientTransform="matrix(.97751964 2.14396946 -2.51993525 1.14893716 11.9035 3.8235)" gradientUnits="userSpaceOnUse" r="1"><stop offset=".045" stop-color="#4fbdff"/><stop offset=".919" stop-color="#52abe4"/></radialGradient><radialGradient id="aC" cx="0" cy="0" gradientTransform="matrix(-.28797465 -.61244889 1.57056463 -.73848251 12.3891 5.56843)" gradientUnits="userSpaceOnUse" r="1"><stop offset=".218" stop-color="#4b89d0"/><stop offset="1" stop-color="#337bcd"/></radialGradient><g filter="url(#a)"><path d="m3.89844 17.2747-1.86719 1.9375v11.2812h27.93755v-16.5312l-6.1402-9.30539c-.9097-1.37873-2.933-1.37747-3.841.00241l-8.9158 13.54888c-.1578.2398-.4846.2978-.7153.1269l-2.04791-1.5173c-1.31971-.9797-3.19921-.8008-4.41015.457z" fill="url(#u)"/><path d="m3.89844 17.2747-1.86719 1.9375v11.2812h27.93755v-16.5312l-6.1402-9.30539c-.9097-1.37873-2.933-1.37747-3.841.00241l-8.9158 13.54888c-.1578.2398-.4846.2978-.7153.1269l-2.04791-1.5173c-1.31971-.9797-3.19921-.8008-4.41015.457z" fill="url(#v)"/></g><g filter="url(#b)"><path d="m17.7712 8.02721 2.2471-1.31479c.1695-.09917.386-.06063.5108.09097l1.0702 1.29953c.24.29143.6863.29143.9263 0l1.0676-1.29637c.126-.15298.345-.19064.5149-.08855l1.7909 1.07652-2.0704-3.13771c-.9098-1.37873-2.9331-1.37747-3.8411.00241z" fill="url(#w)"/></g><path d="m17.7712 8.02721 2.2471-1.31479c.1695-.09917.386-.06063.5108.09097l1.0702 1.29953c.24.29143.6863.29143.9263 0l1.0676-1.29637c.126-.15298.345-.19064.5149-.08855l1.7909 1.07652-2.0704-3.13771c-.9098-1.37873-2.9331-1.37747-3.8411.00241z" fill="url(#x)"/><g filter="url(#c)"><path d="m5.6633 27.6792-3.61642 2.1581v.6719h27.92192v-.6719l-3.5317-2.1505c-.7426-.4522-1.6717-.4673-2.4287-.0396l-.8178.4619c-.5654.3195-1.2507.3445-1.8379.0672l-1.3182-.6226c-.6236-.2945-1.3479-.2868-1.9651.021l-1.1764.5868c-.5754.287-1.2537.2798-1.823-.0193l-1.1258-.5916c-.5553-.2918-1.2153-.3062-1.7827-.0388l-1.4205.6693c-.5829.2746-1.26233.2516-1.82528-.0618l-.85514-.4761c-.74828-.4166-1.66185-.4029-2.39728.036z" fill="#97595f"/><path d="m5.6633 27.6792-3.61642 2.1581v.6719h27.92192v-.6719l-3.5317-2.1505c-.7426-.4522-1.6717-.4673-2.4287-.0396l-.8178.4619c-.5654.3195-1.2507.3445-1.8379.0672l-1.3182-.6226c-.6236-.2945-1.3479-.2868-1.9651.021l-1.1764.5868c-.5754.287-1.2537.2798-1.823-.0193l-1.1258-.5916c-.5553-.2918-1.2153-.3062-1.7827-.0388l-1.4205.6693c-.5829.2746-1.26233.2516-1.82528-.0618l-.85514-.4761c-.74828-.4166-1.66185-.4029-2.39728.036z" fill="url(#y)"/></g><g filter="url(#d)"><path clip-rule="evenodd" d="m7.05469 21.5715c-2.19188 0-3.96875 1.7769-3.96875 3.9688s1.77687 3.9687 3.96875 3.9687 3.96871-1.7768 3.96871-3.9687-1.77683-3.9688-3.96871-3.9688zm-4.96875 3.9688c0-2.7442 2.22458-4.9688 4.96875-4.9688 2.74416 0 4.96871 2.2246 4.96871 4.9688 0 2.7441-2.22455 4.9687-4.96871 4.9687-2.74417 0-4.96875-2.2246-4.96875-4.9687z" fill="url(#z)" fill-rule="evenodd"/></g><g filter="url(#e)"><circle cx="7.055" cy="25.54" r="4.555" stroke="url(#A)" stroke-width=".3"/></g><path d="m19.1858 20.6965-1.8264-1.9882-.4236 2.0585 1.001.7056z" fill="url(#B)"/><path d="m17.8803 21.4296-.3005 1.9807c-.0663.4758-.0394.8872.3648 1.1669.1015.0703.2373.031.3064-.0712l1.9638-2.9017c.0619-.0915.0379-.2158-.0536-.2777l-.9519-.6442z" fill="#413354"/><path d="m17.8803 21.4296-.3005 1.9807c-.0663.4758-.0394.8872.3648 1.1669.1015.0703.2373.031.3064-.0712l1.9638-2.9017c.0619-.0915.0379-.2158-.0536-.2777l-.9519-.6442z" fill="url(#C)"/><path d="m17.8803 21.4296-.3005 1.9807c-.0663.4758-.0394.8872.3648 1.1669.1015.0703.2373.031.3064-.0712l1.9638-2.9017c.0619-.0915.0379-.2158-.0536-.2777l-.9519-.6442z" fill="url(#D)"/><g clip-rule="evenodd" fill-rule="evenodd"><path d="m12.487 12.1639c.2553.1052.3769.3975.2716.6528l-2.5398 6.2469c-.1053.2553-.39761.3769-.6529.2716-.25529-.1052-.37691-.3975-.27163-.6528l2.53983-6.2469c.1053-.2553.3976-.3769.6529-.2716z" fill="url(#E)"/><path d="m12.487 12.1639c.2553.1052.3769.3975.2716.6528l-2.5398 6.2469c-.1053.2553-.39761.3769-.6529.2716-.25529-.1052-.37691-.3975-.27163-.6528l2.53983-6.2469c.1053-.2553.3976-.3769.6529-.2716z" fill="url(#F)"/><path d="m10.553 16.8989c.2809.1155.415.4369.2995.7178l-3.28903 8c-.1155.2809-.43688.4151-.71782.2996-.28094-.1156-.41506-.4369-.29955-.7179l3.28906-8c.1155-.2809.43684-.415.71784-.2995z" fill="url(#G)"/><path d="m9.62891 19.1262c.10169-.222.43079-.4655.67269-.2817l6.25 4.75c.2418.1838.2889.5289.1051.7707-.1838.2419-.5289.2889-.7707.1051l-6.08115-4.6097c-.24184-.1838-.30483-.4532-.17594-.7344z" fill="url(#H)"/><path d="m9.62891 19.1262c.10169-.222.43079-.4655.67269-.2817l6.25 4.75c.2418.1838.2889.5289.1051.7707-.1838.2419-.5289.2889-.7707.1051l-6.08115-4.6097c-.24184-.1838-.30483-.4532-.17594-.7344z" fill="url(#I)"/><g filter="url(#f)"><path d="m25 21.5715c-2.1919 0-3.9688 1.7769-3.9688 3.9688s1.7769 3.9687 3.9688 3.9687 3.9688-1.7768 3.9688-3.9687-1.7769-3.9688-3.9688-3.9688zm-4.9688 3.9688c0-2.7442 2.2246-4.9688 4.9688-4.9688s4.9688 2.2246 4.9688 4.9688c0 2.7441-2.2246 4.9687-4.9688 4.9687s-4.9688-2.2246-4.9688-4.9687z" fill="url(#J)"/><path d="m25 21.5715c-2.1919 0-3.9688 1.7769-3.9688 3.9688s1.7769 3.9687 3.9688 3.9687 3.9688-1.7768 3.9688-3.9687-1.7769-3.9688-3.9688-3.9688zm-4.9688 3.9688c0-2.7442 2.2246-4.9688 4.9688-4.9688s4.9688 2.2246 4.9688 4.9688c0 2.7441-2.2246 4.9687-4.9688 4.9687s-4.9688-2.2246-4.9688-4.9687z" fill="url(#K)"/></g><path d="m19.7377 17.1846c-.2569.1621-.3337.5018-.1716.7586l4.7188 7.4766c.1621.2569.5018.3337.7586.1716.2569-.1622.3337-.5018.1716-.7587l-4.7188-7.4766c-.1621-.2568-.5017-.3337-.7586-.1715z" fill="url(#L)"/><path d="m20.0416 17.1051c.2965.0661.4833.36.4172.6565l-1.5782 7.0781c-.0661.2965-.36.4833-.6565.4172-.2964-.0661-.4832-.3601-.4171-.6565l1.5781-7.0782c.0661-.2965.3601-.4832.6565-.4171z" fill="url(#M)"/><path d="m20.0416 17.1051c.2965.0661.4833.36.4172.6565l-1.5782 7.0781c-.0661.2965-.36.4833-.6565.4172-.2964-.0661-.4832-.3601-.4171-.6565l1.5781-7.0782c.0661-.2965.3601-.4832.6565-.4171z" fill="url(#N)"/><path d="m20.0416 17.1051c.2965.0661.4833.36.4172.6565l-1.5782 7.0781c-.0661.2965-.36.4833-.6565.4172-.2964-.0661-.4832-.3601-.4171-.6565l1.5781-7.0782c.0661-.2965.3601-.4832.6565-.4171z" fill="url(#O)"/></g><path d="m13.9966 16.009 1.34-.8359 1.0389 1.0391-.7656 3.5312c-.513-.3802-1.5687-1.1609-1.6874-1.2422-.1484-.1015-.6608-.5429-.653-1.2383.008-.7111.4771-1.0716.7271-1.2539z" fill="url(#P)"/><path d="m13.9966 16.009 1.34-.8359 1.0389 1.0391-.7656 3.5312c-.513-.3802-1.5687-1.1609-1.6874-1.2422-.1484-.1015-.6608-.5429-.653-1.2383.008-.7111.4771-1.0716.7271-1.2539z" fill="url(#Q)"/><path d="m13.9966 16.009 1.34-.8359 1.0389 1.0391-.7656 3.5312c-.513-.3802-1.5687-1.1609-1.6874-1.2422-.1484-.1015-.6608-.5429-.653-1.2383.008-.7111.4771-1.0716.7271-1.2539z" fill="url(#R)"/><path d="m15.2773 15.2083 2.6407-1.6094 1.207.6289-2.7266 2.4765c-.2687-.2312-.8398-1.0507-1.1211-1.496z" fill="url(#S)"/><path d="m15.2773 15.2083 2.6407-1.6094 1.207.6289-2.7266 2.4765c-.2687-.2312-.8398-1.0507-1.1211-1.496z" fill="url(#T)"/><g filter="url(#g)"><path d="m18.9114 27.3639c-.1239.026-.2524.0397-.3841.0397-1.029 0-1.8632-.8343-1.8632-1.8633 0-1.0291.8342-1.8633 1.8632-1.8633.1382 0 .2728.015.4024.0436l5.8984.9056c.4388.0727.7735.4547.7735.9141 0 .489-.3792.8895-.8596.9234z" fill="url(#U)"/><path d="m18.9114 27.3639c-.1239.026-.2524.0397-.3841.0397-1.029 0-1.8632-.8343-1.8632-1.8633 0-1.0291.8342-1.8633 1.8632-1.8633.1382 0 .2728.015.4024.0436l5.8984.9056c.4388.0727.7735.4547.7735.9141 0 .489-.3792.8895-.8596.9234z" fill="url(#V)"/></g><circle cx="18.371" cy="25.54" fill="url(#W)" r="1.027"/><circle cx="18.371" cy="25.54" fill="url(#X)" r="1.027"/><g filter="url(#h)"><path d="m16.0973 23.7896-1.8087.8613c-.4312.2118-.7568.4645-.762.956-.0013.1235.1073.2139.2308.2139h3.5037c.1104 0 .2-.0895.2-.2v-1.1494z" fill="#5b4e85"/><path d="m16.0973 23.7896-1.8087.8613c-.4312.2118-.7568.4645-.762.956-.0013.1235.1073.2139.2308.2139h3.5037c.1104 0 .2-.0895.2-.2v-1.1494z" fill="url(#Y)"/><path d="m16.0973 23.7896-1.8087.8613c-.4312.2118-.7568.4645-.762.956-.0013.1235.1073.2139.2308.2139h3.5037c.1104 0 .2-.0895.2-.2v-1.1494z" fill="url(#Z)"/></g><path d="m13.5366 8.47656h2.15415v2.66825h-2.15415z" fill="url(#aa)" transform="matrix(.56788972 -.82310465 .82310465 .56788972 -1.127792 14.804847)"/><path d="m13.5366 8.47656h2.15415v2.66825h-2.15415z" fill="url(#ab)" transform="matrix(.56788972 -.82310465 .82310465 .56788972 -1.127792 14.804847)"/><g filter="url(#i)"><path d="m16.0785 16.5638.5531-.5142 2.0403 1.9165c-.2735.1537-.8871.4633-1.0309.5821-.1097.0906-.1097.2343-.1097.3281l-.0465 5.5937-1.4063-.6718c-.1381-.7943-.4196-2.7082-.7692-4.3008-.3952-1.8008.3759-2.5925.7692-2.9336z" fill="url(#ac)"/><path d="m16.0785 16.5638.5531-.5142 2.0403 1.9165c-.2735.1537-.8871.4633-1.0309.5821-.1097.0906-.1097.2343-.1097.3281l-.0465 5.5937-1.4063-.6718c-.1381-.7943-.4196-2.7082-.7692-4.3008-.3952-1.8008.3759-2.5925.7692-2.9336z" fill="url(#ad)"/></g><g filter="url(#j)"><path d="m18.3623 14.3411-.6357-.6993 4.0312-2.4765c1.4219 1.8672 1.5 3.2109.836 4.2734-.6641 1.0625-1.5821 2.0508-2.6172 2.9453-.2715.2346-.8027.3617-1.3594-.1797-.707-.6875-1.5781-1.5781-2.0391-2.1132l1.7773-1.6086c.041-.0371.0441-.1004.0069-.1414z" fill="url(#ae)"/><path d="m18.3623 14.3411-.6357-.6993 4.0312-2.4765c1.4219 1.8672 1.5 3.2109.836 4.2734-.6641 1.0625-1.5821 2.0508-2.6172 2.9453-.2715.2346-.8027.3617-1.3594-.1797-.707-.6875-1.5781-1.5781-2.0391-2.1132l1.7773-1.6086c.041-.0371.0441-.1004.0069-.1414z" fill="url(#af)"/></g><g filter="url(#k)"><path d="m16.0938 11.72c.664.625 1.3632 1.586 1.6718 1.9688l4.2423-2.1797c-.5859-.9766-2.0703-2.53127-3.539-3.35939-1.7188-.8125-2.6725-.00001-3.3052 1.07031-.4136.85158.2582 1.78128.9301 2.49998z" fill="url(#ag)"/></g><g filter="url(#l)"><path d="m12.9375 12.1731c0-.3175-.2574-.575-.575-.575h-3.04995c-1.17619 0-2.12969.9535-2.12969 2.1297s.95349 2.1297 2.12969 2.1297h.18276c.31757 0 .57499-.2574.57499-.575 0-.3175-.25742-.575-.57499-.575h-.18276c-.54107 0-.97969-.4386-.97969-.9797 0-.541.43862-.9797.97969-.9797h3.04995c.3176 0 .575-.2574.575-.575z" fill="#c0b9bc"/><path d="m12.9375 12.1731c0-.3175-.2574-.575-.575-.575h-3.04995c-1.17619 0-2.12969.9535-2.12969 2.1297s.95349 2.1297 2.12969 2.1297h.18276c.31757 0 .57499-.2574.57499-.575 0-.3175-.25742-.575-.57499-.575h-.18276c-.54107 0-.97969-.4386-.97969-.9797 0-.541.43862-.9797.97969-.9797h3.04995c.3176 0 .575-.2574.575-.575z" fill="url(#ah)"/></g><g filter="url(#m)"><path clip-rule="evenodd" d="m8.33203 13.7864v-.0215c0-.3161-.2561-.5723-.57226-.5723-.31617 0-.57227.2562-.57227.5723v.0215h-.00391c.03101 1.1491.97242 2.0711 2.12891 2.0711h.18286c.31763 0 .57494-.2575.57494-.575 0-.3176-.25731-.575-.57494-.575h-.18286c-.52124 0-.94775-.4073-.97803-.9211z" fill="#2b174f" fill-rule="evenodd"/></g><g clip-rule="evenodd" fill-rule="evenodd" filter="url(#n)"><path d="m17.1242 8.83767c.4787.32733.6014.98074.274 1.45943-.7827 1.1446-3.1515 4.3028-7.93259 4.7879-.57694.0585-1.59458-.3193-1.65311-.8962-.05853-.577.86421-1.1346 1.44115-1.1931 3.84395-.39 5.74075-2.9036 6.41115-3.88399.3273-.47868.9807-.60138 1.4594-.27404z" fill="#492f33"/><path d="m17.1242 8.83767c.4787.32733.6014.98074.274 1.45943-.7827 1.1446-3.1515 4.3028-7.93259 4.7879-.57694.0585-1.59458-.3193-1.65311-.8962-.05853-.577.86421-1.1346 1.44115-1.1931 3.84395-.39 5.74075-2.9036 6.41115-3.88399.3273-.47868.9807-.60138 1.4594-.27404z" fill="url(#ai)"/></g><path clip-rule="evenodd" d="m9.31876 13.4855c0 .1933-.1567.35-.35.35-.17295 0-.43539.0424-.66246.1496-.22598.1067-.36989.2525-.41531.4388-.04579.1878-.23516.3029-.42295.2571-.1878-.0458-.30292-.2352-.25712-.423.11366-.4661.46185-.7479.79661-.9059.33366-.1575.70059-.2166.96123-.2166.1933 0 .35.1567.35.35z" fill="url(#ak)" fill-rule="evenodd"/><path clip-rule="evenodd" d="m9.31876 13.4855c0 .1933-.1567.35-.35.35-.17295 0-.43539.0424-.66246.1496-.22598.1067-.36989.2525-.41531.4388-.04579.1878-.23516.3029-.42295.2571-.1878-.0458-.30292-.2352-.25712-.423.11366-.4661.46185-.7479.79661-.9059.33366-.1575.70059-.2166.96123-.2166.1933 0 .35.1567.35.35z" fill="url(#am)" fill-rule="evenodd"/><g filter="url(#o)"><path d="m20.9882 13.459-.5234-.8635 1.125-.6563c.9688 1.3125 1.3438 2.2969.7344 2.875-.4875.4625-2.8698 1.724-4 2.2969l2.503-2.414c.3363-.3244.4032-.8385.161-1.2381z" fill="url(#an)"/></g><path clip-rule="evenodd" d="m8.83361 14.012c.05881.1841-.04279.3811-.22693.4399-.28845.0921-.37727.3292-.40574.4573-.04195.1887-.22891.3077-.41761.2658-.18869-.042-.30766-.229-.26572-.4176.04967-.2235.23499-.7676.87611-.9724.18414-.0588.38108.0428.43989.227z" fill="url(#ao)" fill-rule="evenodd"/><path clip-rule="evenodd" d="m8.83361 14.012c.05881.1841-.04279.3811-.22693.4399-.28845.0921-.37727.3292-.40574.4573-.04195.1887-.22891.3077-.41761.2658-.18869-.042-.30766-.229-.26572-.4176.04967-.2235.23499-.7676.87611-.9724.18414-.0588.38108.0428.43989.227z" fill="url(#ap)" fill-rule="evenodd"/><path clip-rule="evenodd" d="m8.83361 14.012c.05881.1841-.04279.3811-.22693.4399-.28845.0921-.37727.3292-.40574.4573-.04195.1887-.22891.3077-.41761.2658-.18869-.042-.30766-.229-.26572-.4176.04967-.2235.23499-.7676.87611-.9724.18414-.0588.38108.0428.43989.227z" fill="url(#ap)" fill-rule="evenodd"/><path clip-rule="evenodd" d="m9.1272 14.2708c.06659.0803.11328.2422 0 .4023-.15152.1256-.34264.389-.37247.5935-.02789.1913-.20557.3237-.39684.2958-.19128-.0279-.32373-.2056-.29583-.3968.01875-.1286.07671-.2847.15467-.4288.07977-.1476.19659-.3126.3539-.443.14881-.1234.4332-.1718.55657-.023z" fill="url(#aq)" fill-rule="evenodd"/><path clip-rule="evenodd" d="m9.1272 14.2708c.06659.0803.11328.2422 0 .4023-.15152.1256-.34264.389-.37247.5935-.02789.1913-.20557.3237-.39684.2958-.19128-.0279-.32373-.2056-.29583-.3968.01875-.1286.07671-.2847.15467-.4288.07977-.1476.19659-.3126.3539-.443.14881-.1234.4332-.1718.55657-.023z" fill="url(#ar)" fill-rule="evenodd"/><g filter="url(#p)"><circle cx="9.223" cy="13.988" fill="#493030" r=".885"/></g><path d="m10.8249 8.95086c-.2005-.1372-.2046-.29527-.1404-.64686.0469-.25689-.0165-.44838-.0635-.53014l.8075.98037c-.1066.22038-.4031.33383-.6036.19663z" fill="url(#as)"/><g filter="url(#q)"><path d="m11.9942 9.69709c-.7742-.73151-1.4163-1.90968-1.6739-2.36981l3.4145-2.08525 1.8386 1.65399c-.0725.33751-.3571 1.18874-.9153 1.89362-.6977.8811-1.6481 1.86726-2.6639.90745z" fill="url(#at)"/><path d="m11.9942 9.69709c-.7742-.73151-1.4163-1.90968-1.6739-2.36981l3.4145-2.08525 1.8386 1.65399c-.0725.33751-.3571 1.18874-.9153 1.89362-.6977.8811-1.6481 1.86726-2.6639.90745z" fill="url(#au)"/></g><path clip-rule="evenodd" d="m11.8845 9.17345c-.0329-.05489-.0151-.1261.0398-.15904.1008-.0605.2337-.20955.3052-.52258.0142-.06241.0764-.10146.1388-.08721s.1015.0764.0872.13881c-.0816.35734-.2435.56868-.4119.66976-.0549.03295-.1261.01515-.1591-.03974z" fill="#290017" fill-rule="evenodd"/><path d="m11.001 7.29413c-.0686.22623.0668.45187.1393.56578l.8769-.52264c-.5228-.58497-.923-.35052-1.0162-.04314z" fill="#fff"/><path d="m11.6324 7.56638c-.0091-.016-.0188-.03196-.029-.04783-.159-.24586-.3953-.37573-.5278-.29007s-.111.35442.048.60028c.0064.00993.0129.01966.0196.02921z" fill="#634c48"/><path d="m11.4448 7.67837c-.0121-.0302-.028-.06106-.0476-.09134-.0884-.13672-.2183-.20992-.2901-.1635-.0718.04641-.0583.19487.0301.33159.0174.02694.0364.05142.0563.073z" fill="url(#av)"/><circle cx="11.114" cy="7.401" fill="#dfdfdf" r=".083" transform="matrix(.43518867 -.90033928 .90033928 .43518867 -.386136 14.186939)"/><g filter="url(#r)"><path d="m14.2829 7.13148-1.1818-1.20061 2.0631-1.14639c.1957.32986.6648 1.34605.634 1.62837-.0424.38948-.1965.91697-.6451 1.02232-.359.08428-.7543-.17211-.8702-.30369z" fill="url(#aw)"/></g><circle cx="13.442" cy="6.354" fill="url(#ax)" r=".648" transform="matrix(.43518867 -.90033928 .90033928 .43518867 1.871203 15.690817)"/><path clip-rule="evenodd" d="m12.687 5.64729c.1459-.0663.3179-.0018.3842.14406l1.4956 3.29057c.0663.14586.0018.31785-.144.38414-.1459.0663-.3179.0018-.3842-.14405l-1.4956-3.29058c-.0663-.14586-.0018-.31784.144-.38414z" fill="#4d3771" fill-rule="evenodd"/><path clip-rule="evenodd" d="m12.687 5.64729c.1459-.0663.3179-.0018.3842.14406l1.4956 3.29057c.0663.14586.0018.31785-.144.38414-.1459.0663-.3179.0018-.3842-.14405l-1.4956-3.29058c-.0663-.14586-.0018-.31784.144-.38414z" fill="url(#ay)" fill-rule="evenodd"/><path clip-rule="evenodd" d="m12.687 5.64729c.1459-.0663.3179-.0018.3842.14406l1.4956 3.29057c.0663.14586.0018.31785-.144.38414-.1459.0663-.3179.0018-.3842-.14405l-1.4956-3.29058c-.0663-.14586-.0018-.31784.144-.38414z" fill="url(#az)" fill-rule="evenodd"/><path clip-rule="evenodd" d="m12.687 5.64729c.1459-.0663.3179-.0018.3842.14406l1.4956 3.29057c.0663.14586.0018.31785-.144.38414-.1459.0663-.3179.0018-.3842-.14405l-1.4956-3.29058c-.0663-.14586-.0018-.31784.144-.38414z" fill="url(#aA)" fill-rule="evenodd"/><g filter="url(#s)"><path d="m15.0279 4.97936-4.6485 2.42974c-.1174.06138-.261.03464-.3359-.07462-.16357-.23832-.39236-.64101-.57442-1.12119-.54221-1.43011.45049-2.24253.58052-2.36758.1882-.18093.7072-.62984 1.8267-1.05031 1.3138-.49341 2.1542.08466 2.5669.62651.2596.34077.544.85286.7099 1.19838.0642.13376.0063.29034-.1252.35907z" fill="url(#aB)"/></g><g filter="url(#t)"><path d="m11.2831 5.74571c-.0867-.17296-.0167-.38344.1562-.47012l1.2883-.64563c.1729-.08668.3834-.01674.4701.15622s.0167.38344-.1562.47012l-1.2883.64563c-.1729.08668-.3834.01674-.4701-.15622z" fill="url(#aC)"/></g></svg>