<svg fill="none" height="32" viewBox="0 0 32 32" width="32" xmlns="http://www.w3.org/2000/svg" xmlns:xlink="http://www.w3.org/1999/xlink"><filter id="a" color-interpolation-filters="sRGB" filterUnits="userSpaceOnUse" height="9.938" width="9.938" x="2.059" y="20.647"><feFlood flood-opacity="0" result="BackgroundImageFix"/><feBlend in="SourceGraphic" in2="BackgroundImageFix" mode="normal" result="shape"/><feColorMatrix in="SourceAlpha" result="hardAlpha" type="matrix" values="0 0 0 0 0 0 0 0 0 0 0 0 0 0 0 0 0 0 127 0"/><feOffset/><feGaussianBlur stdDeviation=".25"/><feComposite in2="hardAlpha" k2="-1" k3="1" operator="arithmetic"/><feColorMatrix type="matrix" values="0 0 0 0 0.227451 0 0 0 0 0.156863 0 0 0 0 0.27451 0 0 0 1 0"/><feBlend in2="shape" mode="normal" result="effect1_innerShadow_3987_23412"/></filter><filter id="b" color-interpolation-filters="sRGB" filterUnits="userSpaceOnUse" height="10.409" width="10.409" x="1.823" y="20.411"><feFlood flood-opacity="0" result="BackgroundImageFix"/><feBlend in="SourceGraphic" in2="BackgroundImageFix" mode="normal" result="shape"/><feGaussianBlur result="effect1_foregroundBlur_3987_23412" stdDeviation=".25"/></filter><filter id="c" color-interpolation-filters="sRGB" filterUnits="userSpaceOnUse" height="10.037" width="10.037" x="20.004" y="20.547"><feFlood flood-opacity="0" result="BackgroundImageFix"/><feBlend in="SourceGraphic" in2="BackgroundImageFix" mode="normal" result="shape"/><feColorMatrix in="SourceAlpha" result="hardAlpha" type="matrix" values="0 0 0 0 0 0 0 0 0 0 0 0 0 0 0 0 0 0 127 0"/><feOffset dx=".1" dy="-.1"/><feGaussianBlur stdDeviation=".2"/><feComposite in2="hardAlpha" k2="-1" k3="1" operator="arithmetic"/><feColorMatrix type="matrix" values="0 0 0 0 0.152941 0 0 0 0 0.0862745 0 0 0 0 0.164706 0 0 0 1 0"/><feBlend in2="shape" mode="normal" result="effect1_innerShadow_3987_23412"/></filter><filter id="d" color-interpolation-filters="sRGB" filterUnits="userSpaceOnUse" height="4.077" width="9.188" x="16.637" y="23.502"><feFlood flood-opacity="0" result="BackgroundImageFix"/><feBlend in="SourceGraphic" in2="BackgroundImageFix" mode="normal" result="shape"/><feColorMatrix in="SourceAlpha" result="hardAlpha" type="matrix" values="0 0 0 0 0 0 0 0 0 0 0 0 0 0 0 0 0 0 127 0"/><feOffset dx=".25" dy="-.25"/><feGaussianBlur stdDeviation=".25"/><feComposite in2="hardAlpha" k2="-1" k3="1" operator="arithmetic"/><feColorMatrix type="matrix" values="0 0 0 0 0.701961 0 0 0 0 0.341176 0 0 0 0 0.254902 0 0 0 1 0"/><feBlend in2="shape" mode="normal" result="effect1_innerShadow_3987_23412"/><feColorMatrix in="SourceAlpha" result="hardAlpha" type="matrix" values="0 0 0 0 0 0 0 0 0 0 0 0 0 0 0 0 0 0 127 0"/><feOffset dx=".25" dy=".1"/><feGaussianBlur stdDeviation=".25"/><feComposite in2="hardAlpha" k2="-1" k3="1" operator="arithmetic"/><feColorMatrix type="matrix" values="0 0 0 0 0.894118 0 0 0 0 0.490196 0 0 0 0 0.196078 0 0 0 1 0"/><feBlend in2="effect1_innerShadow_3987_23412" mode="normal" result="effect2_innerShadow_3987_23412"/></filter><filter id="e" color-interpolation-filters="sRGB" filterUnits="userSpaceOnUse" height="2.181" width="4.034" x="13.499" y="23.715"><feFlood flood-opacity="0" result="BackgroundImageFix"/><feBlend in="SourceGraphic" in2="BackgroundImageFix" mode="normal" result="shape"/><feColorMatrix in="SourceAlpha" result="hardAlpha" type="matrix" values="0 0 0 0 0 0 0 0 0 0 0 0 0 0 0 0 0 0 127 0"/><feOffset dx=".1" dy="-.15"/><feGaussianBlur stdDeviation=".125"/><feComposite in2="hardAlpha" k2="-1" k3="1" operator="arithmetic"/><feColorMatrix type="matrix" values="0 0 0 0 0.27451 0 0 0 0 0.188235 0 0 0 0 0.52549 0 0 0 1 0"/><feBlend in2="shape" mode="normal" result="effect1_innerShadow_3987_23412"/></filter><filter id="f" color-interpolation-filters="sRGB" filterUnits="userSpaceOnUse" height="8.62" width="3.572" x="15.172" y="16.125"><feFlood flood-opacity="0" result="BackgroundImageFix"/><feBlend in="SourceGraphic" in2="BackgroundImageFix" mode="normal" result="shape"/><feColorMatrix in="SourceAlpha" result="hardAlpha" type="matrix" values="0 0 0 0 0 0 0 0 0 0 0 0 0 0 0 0 0 0 127 0"/><feOffset dx=".1" dy=".2"/><feGaussianBlur stdDeviation=".1"/><feComposite in2="hardAlpha" k2="-1" k3="1" operator="arithmetic"/><feColorMatrix type="matrix" values="0 0 0 0 0.541176 0 0 0 0 0.384314 0 0 0 0 0.356863 0 0 0 1 0"/><feBlend in2="shape" mode="normal" result="effect1_innerShadow_3987_23412"/></filter><filter id="g" color-interpolation-filters="sRGB" filterUnits="userSpaceOnUse" height="7.67" width="6.668" x="16.551" y="10.991"><feFlood flood-opacity="0" result="BackgroundImageFix"/><feBlend in="SourceGraphic" in2="BackgroundImageFix" mode="normal" result="shape"/><feColorMatrix in="SourceAlpha" result="hardAlpha" type="matrix" values="0 0 0 0 0 0 0 0 0 0 0 0 0 0 0 0 0 0 127 0"/><feOffset dx=".25" dy="-.25"/><feGaussianBlur stdDeviation=".625"/><feComposite in2="hardAlpha" k2="-1" k3="1" operator="arithmetic"/><feColorMatrix type="matrix" values="0 0 0 0 0.482353 0 0 0 0 0.360784 0 0 0 0 0.556863 0 0 0 1 0"/><feBlend in2="shape" mode="normal" result="effect1_innerShadow_3987_23412"/></filter><filter id="h" color-interpolation-filters="sRGB" filterUnits="userSpaceOnUse" height="5.869" width="7.971" x="15.009" y="7.895"><feFlood flood-opacity="0" result="BackgroundImageFix"/><feBlend in="SourceGraphic" in2="BackgroundImageFix" mode="normal" result="shape"/><feColorMatrix in="SourceAlpha" result="hardAlpha" type="matrix" values="0 0 0 0 0 0 0 0 0 0 0 0 0 0 0 0 0 0 127 0"/><feOffset dx="1"/><feGaussianBlur stdDeviation=".75"/><feComposite in2="hardAlpha" k2="-1" k3="1" operator="arithmetic"/><feColorMatrix type="matrix" values="0 0 0 0 0.301961 0 0 0 0 0.243137 0 0 0 0 0.466667 0 0 0 1 0"/><feBlend in2="shape" mode="normal" result="effect1_innerShadow_3987_23412"/></filter><filter id="i" color-interpolation-filters="sRGB" filterUnits="userSpaceOnUse" height="4.259" width="6.005" x="6.906" y="11.674"><feFlood flood-opacity="0" result="BackgroundImageFix"/><feBlend in="SourceGraphic" in2="BackgroundImageFix" mode="normal" result="shape"/><feColorMatrix in="SourceAlpha" result="hardAlpha" type="matrix" values="0 0 0 0 0 0 0 0 0 0 0 0 0 0 0 0 0 0 127 0"/><feOffset dx="-.25"/><feGaussianBlur stdDeviation=".5"/><feComposite in2="hardAlpha" k2="-1" k3="1" operator="arithmetic"/><feColorMatrix type="matrix" values="0 0 0 0 0.576471 0 0 0 0 0.505882 0 0 0 0 0.529412 0 0 0 1 0"/><feBlend in2="shape" mode="normal" result="effect1_innerShadow_3987_23412"/></filter><filter id="j" color-interpolation-filters="sRGB" filterUnits="userSpaceOnUse" height="2.915" width="3.137" x="6.906" y="13.268"><feFlood flood-opacity="0" result="BackgroundImageFix"/><feBlend in="SourceGraphic" in2="BackgroundImageFix" mode="normal" result="shape"/><feColorMatrix in="SourceAlpha" result="hardAlpha" type="matrix" values="0 0 0 0 0 0 0 0 0 0 0 0 0 0 0 0 0 0 127 0"/><feOffset dx="-.25" dy=".25"/><feGaussianBlur stdDeviation=".25"/><feComposite in2="hardAlpha" k2="-1" k3="1" operator="arithmetic"/><feColorMatrix type="matrix" values="0 0 0 0 0.164706 0 0 0 0 0.117647 0 0 0 0 0.231373 0 0 0 1 0"/><feBlend in2="shape" mode="normal" result="effect1_innerShadow_3987_23412"/></filter><filter id="k" color-interpolation-filters="sRGB" filterUnits="userSpaceOnUse" height="6.937" width="10.272" x="7.782" y="8.23"><feFlood flood-opacity="0" result="BackgroundImageFix"/><feBlend in="SourceGraphic" in2="BackgroundImageFix" mode="normal" result="shape"/><feColorMatrix in="SourceAlpha" result="hardAlpha" type="matrix" values="0 0 0 0 0 0 0 0 0 0 0 0 0 0 0 0 0 0 127 0"/><feOffset dx=".5" dy="-.5"/><feGaussianBlur stdDeviation=".375"/><feComposite in2="hardAlpha" k2="-1" k3="1" operator="arithmetic"/><feColorMatrix type="matrix" values="0 0 0 0 0.478431 0 0 0 0 0.266667 0 0 0 0 0.415686 0 0 0 1 0"/><feBlend in2="shape" mode="normal" result="effect1_innerShadow_3987_23412"/></filter><filter id="l" color-interpolation-filters="sRGB" filterUnits="userSpaceOnUse" height="6.372" width="5.496" x="17.697" y="11.415"><feFlood flood-opacity="0" result="BackgroundImageFix"/><feBlend in="SourceGraphic" in2="BackgroundImageFix" mode="normal" result="shape"/><feGaussianBlur result="effect1_foregroundBlur_3987_23412" stdDeviation=".3"/></filter><filter id="m" color-interpolation-filters="sRGB" filterUnits="userSpaceOnUse" height="2.969" width="2.969" x="7.711" y="12.579"><feFlood flood-opacity="0" result="BackgroundImageFix"/><feBlend in="SourceGraphic" in2="BackgroundImageFix" mode="normal" result="shape"/><feGaussianBlur result="effect1_foregroundBlur_3987_23412" stdDeviation=".3"/></filter><filter id="n" color-interpolation-filters="sRGB" filterUnits="userSpaceOnUse" height="5.29" width="5.817" x="10.083" y="4.997"><feFlood flood-opacity="0" result="BackgroundImageFix"/><feBlend in="SourceGraphic" in2="BackgroundImageFix" mode="normal" result="shape"/><feColorMatrix in="SourceAlpha" result="hardAlpha" type="matrix" values="0 0 0 0 0 0 0 0 0 0 0 0 0 0 0 0 0 0 127 0"/><feOffset dx="-.25" dy="-.25"/><feGaussianBlur stdDeviation=".25"/><feComposite in2="hardAlpha" k2="-1" k3="1" operator="arithmetic"/><feColorMatrix type="matrix" values="0 0 0 0 0.427451 0 0 0 0 0.258824 0 0 0 0 0.396078 0 0 0 1 0"/><feBlend in2="shape" mode="normal" result="effect1_innerShadow_3987_23412"/><feColorMatrix in="SourceAlpha" result="hardAlpha" type="matrix" values="0 0 0 0 0 0 0 0 0 0 0 0 0 0 0 0 0 0 127 0"/><feOffset dx=".25" dy=".15"/><feGaussianBlur stdDeviation=".15"/><feComposite in2="hardAlpha" k2="-1" k3="1" operator="arithmetic"/><feColorMatrix type="matrix" values="0 0 0 0 0.541176 0 0 0 0 0.396078 0 0 0 0 0.360784 0 0 0 1 0"/><feBlend in2="effect1_innerShadow_3987_23412" mode="normal" result="effect2_innerShadow_3987_23412"/></filter><filter id="o" color-interpolation-filters="sRGB" filterUnits="userSpaceOnUse" height="3.796" width="4.482" x="12.89" y="4.601"><feFlood flood-opacity="0" result="BackgroundImageFix"/><feBlend in="SourceGraphic" in2="BackgroundImageFix" mode="normal" result="shape"/><feColorMatrix in="SourceAlpha" result="hardAlpha" type="matrix" values="0 0 0 0 0 0 0 0 0 0 0 0 0 0 0 0 0 0 127 0"/><feOffset dx=".15" dy="-.2"/><feGaussianBlur stdDeviation=".3"/><feComposite in2="hardAlpha" k2="-1" k3="1" operator="arithmetic"/><feColorMatrix type="matrix" values="0 0 0 0 0.141176 0 0 0 0 0.0666667 0 0 0 0 0.196078 0 0 0 1 0"/><feBlend in2="shape" mode="normal" result="effect1_innerShadow_3987_23412"/></filter><filter id="p" color-interpolation-filters="sRGB" filterUnits="userSpaceOnUse" height="5" width="5.945" x="9.337" y="2.421"><feFlood flood-opacity="0" result="BackgroundImageFix"/><feBlend in="SourceGraphic" in2="BackgroundImageFix" mode="normal" result="shape"/><feColorMatrix in="SourceAlpha" result="hardAlpha" type="matrix" values="0 0 0 0 0 0 0 0 0 0 0 0 0 0 0 0 0 0 127 0"/><feOffset dy="-.15"/><feGaussianBlur stdDeviation=".3"/><feComposite in2="hardAlpha" k2="-1" k3="1" operator="arithmetic"/><feColorMatrix type="matrix" values="0 0 0 0 0.305882 0 0 0 0 0.556863 0 0 0 0 0.882353 0 0 0 1 0"/><feBlend in2="shape" mode="normal" result="effect1_innerShadow_3987_23412"/></filter><filter id="q" color-interpolation-filters="sRGB" filterUnits="userSpaceOnUse" height="1.343" width="2.02" x="11.293" y="4.578"><feFlood flood-opacity="0" result="BackgroundImageFix"/><feBlend in="SourceGraphic" in2="BackgroundImageFix" mode="normal" result="shape"/><feColorMatrix in="SourceAlpha" result="hardAlpha" type="matrix" values="0 0 0 0 0 0 0 0 0 0 0 0 0 0 0 0 0 0 127 0"/><feOffset/><feGaussianBlur stdDeviation=".25"/><feComposite in2="hardAlpha" k2="-1" k3="1" operator="arithmetic"/><feColorMatrix type="matrix" values="0 0 0 0 0.137255 0 0 0 0 0.482353 0 0 0 0 0.796078 0 0 0 1 0"/><feBlend in2="shape" mode="normal" result="effect1_innerShadow_3987_23412"/></filter><radialGradient id="r" cx="0" cy="0" gradientTransform="matrix(-5.87497859 7.81251861 -7.54119471 -5.67094425 10.2695 21.7017)" gradientUnits="userSpaceOnUse" r="1"><stop offset="0" stop-color="#32295b"/><stop offset="1" stop-color="#3c2150"/></radialGradient><linearGradient id="s" gradientUnits="userSpaceOnUse" x1="9.238" x2="3.207" y1="21.952" y2="28.983"><stop offset="0" stop-color="#302a5b"/><stop offset="1" stop-color="#302a5b" stop-opacity="0"/></linearGradient><linearGradient id="t" gradientUnits="userSpaceOnUse" x1="17.707" x2="18.676" y1="21.155" y2="20.149"><stop offset=".573" stop-color="#6e3848"/><stop offset="1" stop-color="#7e5c56"/></linearGradient><linearGradient id="u" gradientUnits="userSpaceOnUse" x1="22.223" x2="17.629" y1="22.723" y2="22.264"><stop offset=".891" stop-color="#615f76" stop-opacity="0"/><stop offset="1" stop-color="#615f76"/></linearGradient><radialGradient id="v" cx="0" cy="0" gradientTransform="matrix(-1.53126999 2.45311583 -.44454279 -.27748997 20.3008 21.5922)" gradientUnits="userSpaceOnUse" r="1"><stop offset="0" stop-color="#5d5c7e"/><stop offset="1" stop-color="#5d5c7e" stop-opacity="0"/></radialGradient><linearGradient id="w" gradientUnits="userSpaceOnUse" x1="11.504" x2="10.629" y1="15.545" y2="15.264"><stop offset="0" stop-color="#bfa8c7"/><stop offset="1" stop-color="#908590"/></linearGradient><radialGradient id="x" cx="0" cy="0" gradientTransform="matrix(1.07812374 -2.67187294 .30151132 .12166241 10.582 17.2328)" gradientUnits="userSpaceOnUse" r="1"><stop offset="0" stop-color="#baa3b9"/><stop offset="1" stop-color="#baa3b9" stop-opacity="0"/></radialGradient><linearGradient id="y" gradientUnits="userSpaceOnUse" x1="9.738" x2="8.457" y1="20.499" y2="20.014"><stop offset=".146" stop-color="#d4385b"/><stop offset="1" stop-color="#973c50"/></linearGradient><radialGradient id="z" cx="0" cy="0" gradientTransform="matrix(6.71875315 4.82812728 -1.31598798 1.83131012 10.1758 19.1547)" gradientUnits="userSpaceOnUse" r="1"><stop offset="0" stop-color="#ce3d5e"/><stop offset="1" stop-color="#932145"/></radialGradient><linearGradient id="A" gradientUnits="userSpaceOnUse" x1="12.957" x2="13.348" y1="22.545" y2="22.045"><stop offset="0" stop-color="#96275e"/><stop offset="1" stop-color="#96275e" stop-opacity="0"/><stop offset="1" stop-color="#9c2649" stop-opacity="0"/></linearGradient><radialGradient id="B" cx="0" cy="0" gradientTransform="matrix(-6.86715328 7.00003073 -6.75692924 -6.62866645 29.207 22.5142)" gradientUnits="userSpaceOnUse" r="1"><stop offset=".427" stop-color="#373c67"/><stop offset="1" stop-color="#38144f"/></radialGradient><linearGradient id="C" gradientUnits="userSpaceOnUse" x1="20.004" x2="27.759" y1="28.056" y2="25.616"><stop offset="0" stop-color="#352542"/><stop offset="1" stop-color="#352542" stop-opacity="0"/></linearGradient><linearGradient id="D" gradientUnits="userSpaceOnUse" x1="23.785" x2="22.723" y1="22.483" y2="23.233"><stop offset="0" stop-color="#fd5a60"/><stop offset="1" stop-color="#af253c"/></linearGradient><linearGradient id="E" gradientUnits="userSpaceOnUse" x1="19.582" x2="18.566" y1="21.256" y2="21.108"><stop offset="0" stop-color="#e5435f"/><stop offset="1" stop-color="#a62f2f"/></linearGradient><radialGradient id="F" cx="0" cy="0" gradientTransform="matrix(-1.0937525 4.48437198 -.42827913 -.10445863 20.1133 18.0611)" gradientUnits="userSpaceOnUse" r="1"><stop offset="0" stop-color="#e44354"/><stop offset="1" stop-color="#e44354" stop-opacity="0"/></radialGradient><radialGradient id="G" cx="0" cy="0" gradientTransform="matrix(-.03125031 -1.06250053 1.65481439 -.04867146 18.457 24.3892)" gradientUnits="userSpaceOnUse" r="1"><stop offset="0" stop-color="#ac2735"/><stop offset="1" stop-color="#ac2735" stop-opacity="0"/></radialGradient><radialGradient id="H" cx="0" cy="0" gradientTransform="matrix(2.18359331 .43749824 -.55377075 2.76391991 13.2422 17.3892)" gradientUnits="userSpaceOnUse" r="1"><stop offset=".114" stop-color="#734b4a"/><stop offset="1" stop-color="#6a4840"/></radialGradient><radialGradient id="I" cx="0" cy="0" gradientTransform="matrix(-.14062633 -2.64062813 3.75248259 -.199838 15.1829 19.4409)" gradientUnits="userSpaceOnUse" r="1"><stop offset="0" stop-color="#75415d"/><stop offset="1" stop-color="#75415d" stop-opacity="0"/></radialGradient><radialGradient id="J" cx="0" cy="0" gradientTransform="matrix(1.21875062 .45312581 -.35000106 .94138095 15.7383 17.7954)" gradientUnits="userSpaceOnUse" r="1"><stop offset=".346" stop-color="#593235"/><stop offset="1" stop-color="#5c383d" stop-opacity="0"/></radialGradient><linearGradient id="K" gradientUnits="userSpaceOnUse" x1="14.52" x2="14.941" y1="15.514" y2="16.202"><stop offset="0" stop-color="#6c4d43"/><stop offset="1" stop-color="#6c4d43" stop-opacity="0"/></linearGradient><radialGradient id="L" cx="0" cy="0" gradientTransform="matrix(-2.31251357 1.68748882 -.72630839 -.99532394 18.457 14.4829)" gradientUnits="userSpaceOnUse" r="1"><stop offset=".255" stop-color="#4f414e"/><stop offset="1" stop-color="#564a5a"/></radialGradient><linearGradient id="M" gradientUnits="userSpaceOnUse" x1="16.59" x2="16.957" y1="14.381" y2="14.913"><stop offset="0" stop-color="#72696b"/><stop offset="1" stop-color="#72696b" stop-opacity="0"/></linearGradient><linearGradient id="N" gradientUnits="userSpaceOnUse" x1="25.301" x2="16.637" y1="25.616" y2="25.616"><stop offset="0" stop-color="#f7b14e"/><stop offset="1" stop-color="#e8774d"/></linearGradient><radialGradient id="O" cx="0" cy="0" gradientTransform="matrix(-.867187 0 0 -.96875 25.5742 25.4517)" gradientUnits="userSpaceOnUse" r="1"><stop offset="0" stop-color="#ffd359"/><stop offset="1" stop-color="#ffd359" stop-opacity="0"/></radialGradient><radialGradient id="P" cx="0" cy="0" gradientTransform="matrix(1.56250158 -.65625048 .66796813 1.59040076 17.6758 25.811)" gradientUnits="userSpaceOnUse" r="1"><stop offset=".47" stop-color="#d8cfe2"/><stop offset="1" stop-color="#c5bfcb"/></radialGradient><radialGradient id="Q" cx="0" cy="0" gradientTransform="matrix(-1.56250016 .85938242 -.85938242 -1.56250016 18.8789 25.3423)" gradientUnits="userSpaceOnUse" r="1"><stop offset=".632" stop-color="#e2dfe5" stop-opacity="0"/><stop offset="1" stop-color="#e2dfe5"/></radialGradient><linearGradient id="R" gradientUnits="userSpaceOnUse" x1="17.434" x2="16.676" y1="25.483" y2="25.483"><stop offset="0" stop-color="#605c92"/><stop offset="1" stop-color="#605c92" stop-opacity="0"/></linearGradient><radialGradient id="S" cx="0" cy="0" gradientTransform="matrix(-1.10939185 -1.99999616 6.41983308 -3.56106207 16.2539 26.1548)" gradientUnits="userSpaceOnUse" r="1"><stop offset=".301" stop-color="#5c4f86" stop-opacity="0"/><stop offset=".943" stop-color="#493b63"/></radialGradient><linearGradient id="T" gradientUnits="userSpaceOnUse" x1="15.52" x2="13.915" y1="10.014" y2="9.945"><stop offset="0" stop-color="#8b695a"/><stop offset="1" stop-color="#603041"/></linearGradient><radialGradient id="U" cx="0" cy="0" gradientTransform="matrix(.03131881 1.42110493 -.52543542 .01157973 14.9336 9.53612)" gradientUnits="userSpaceOnUse" r="1"><stop offset=".18" stop-color="#8c675c"/><stop offset="1" stop-color="#8c675c" stop-opacity="0"/></radialGradient><radialGradient id="V" cx="0" cy="0" gradientTransform="matrix(-.74999348 -8.78125028 2.5288134 -.21598218 17.8945 24.5455)" gradientUnits="userSpaceOnUse" r="1"><stop offset=".122" stop-color="#93685f"/><stop offset="1" stop-color="#744f45"/></radialGradient><radialGradient id="W" cx="0" cy="0" gradientTransform="matrix(-1.68750309 .06249727 -.11168168 -3.01554262 18.8008 18.2642)" gradientUnits="userSpaceOnUse" r="1"><stop offset=".284" stop-color="#723856"/><stop offset="1" stop-color="#81505b" stop-opacity="0"/></radialGradient><radialGradient id="X" cx="0" cy="0" gradientTransform="matrix(5.12499803 -4.92969106 2.61319214 2.71672289 16.7695 16.1704)" gradientUnits="userSpaceOnUse" r="1"><stop offset=".148" stop-color="#726b71"/><stop offset="1" stop-color="#a3a1a2"/></radialGradient><radialGradient id="Y" cx="0" cy="0" gradientTransform="matrix(2.59374628 -.09374984 .01804196 .49916105 18.1914 14.4517)" gradientUnits="userSpaceOnUse" r="1"><stop offset=".22" stop-color="#736e75"/><stop offset="1" stop-color="#736e75" stop-opacity="0"/></radialGradient><radialGradient id="Z" cx="0" cy="0" gradientTransform="matrix(-3.49999043 -4.06251234 1.7090785 -1.47242836 21.082 12.1392)" gradientUnits="userSpaceOnUse" r="1"><stop offset="0" stop-color="#977ed0"/><stop offset="1" stop-color="#674e9f"/></radialGradient><radialGradient id="aa" cx="0" cy="0" gradientTransform="matrix(3.25232 0 0 1.29925 10.0328 13.5767)" gradientUnits="userSpaceOnUse" r="1"><stop offset=".254" stop-color="#8c5ea8"/><stop offset="1" stop-color="#8c5ea8" stop-opacity="0"/></radialGradient><radialGradient id="ab" cx="0" cy="0" gradientTransform="matrix(-1.03442913 .40624249 -.45267741 -1.15266796 17.554 9.38922)" gradientUnits="userSpaceOnUse" r="1"><stop offset="0" stop-color="#9a766d"/><stop offset="1" stop-color="#9a766d" stop-opacity="0"/></radialGradient><linearGradient id="ac"><stop offset=".717" stop-color="#744954"/><stop offset="1" stop-color="#754060"/></linearGradient><radialGradient id="ad" cx="0" cy="0" gradientTransform="matrix(1.68979397 -1.43022763 1.27507919 1.50648825 7.36577 14.6516)" gradientUnits="userSpaceOnUse" r="1" xlink:href="#ac"/><linearGradient id="ae"><stop offset=".68" stop-color="#84615f" stop-opacity="0"/><stop offset="1" stop-color="#84615f"/></linearGradient><radialGradient id="af" cx="0" cy="0" gradientTransform="matrix(-1.31056149 -.2410769 .37304097 -2.02795512 8.39609 14.517)" gradientUnits="userSpaceOnUse" r="1" xlink:href="#ae"/><radialGradient id="ag" cx="0" cy="0" gradientTransform="matrix(5.49999736 -1.43750185 2.00474707 7.67032308 17.332 15.3268)" gradientUnits="userSpaceOnUse" r="1"><stop offset=".625" stop-color="#afa6a9" stop-opacity="0"/><stop offset=".905" stop-color="#afa6a9"/></radialGradient><radialGradient id="ah" cx="0" cy="0" gradientTransform="matrix(1.09826207 -1.28234694 1.06577046 .91277582 7.56607 15.1567)" gradientUnits="userSpaceOnUse" r="1" xlink:href="#ac"/><radialGradient id="ai" cx="0" cy="0" gradientTransform="matrix(-.81595845 -.17382436 .37209174 -1.74665622 8.21615 15.0129)" gradientUnits="userSpaceOnUse" r="1" xlink:href="#ae"/><radialGradient id="aj" cx="0" cy="0" gradientTransform="matrix(.8593763 -1.30714651 1.07140993 .70439257 7.98364 15.3701)" gradientUnits="userSpaceOnUse" r="1" xlink:href="#ac"/><radialGradient id="ak" cx="0" cy="0" gradientTransform="matrix(-.74999978 -.07812679 .17331623 -1.66379726 8.55322 15.1694)" gradientUnits="userSpaceOnUse" r="1" xlink:href="#ae"/><radialGradient id="al" cx="0" cy="0" gradientTransform="matrix(.65578481 .46888842 -.36794279 .5146028 10.7995 8.25067)" gradientUnits="userSpaceOnUse" r="1"><stop offset=".391" stop-color="#785c53"/><stop offset="1" stop-color="#704a44"/></radialGradient><radialGradient id="am" cx="0" cy="0" gradientTransform="matrix(3.1323751 -1.09699126 1.13775522 3.2487735 11.5456 8.38565)" gradientUnits="userSpaceOnUse" r="1"><stop offset=".164" stop-color="#75554d"/><stop offset="1" stop-color="#73474c"/></radialGradient><radialGradient id="an" cx="0" cy="0" gradientTransform="matrix(1.07318816 1.58285381 -1.277245 .86598283 13.1047 5.63997)" gradientUnits="userSpaceOnUse" r="1"><stop offset="0" stop-color="#5a3342"/><stop offset="1" stop-color="#69484b" stop-opacity="0"/></radialGradient><linearGradient id="ao" gradientUnits="userSpaceOnUse" x1="11.147" x2="11.389" y1="7.747" y2="7.609"><stop offset=".242" stop-color="#5f5451"/><stop offset=".667" stop-color="#383838"/></linearGradient><radialGradient id="ap" cx="0" cy="0" gradientTransform="matrix(-.9322854 2.46943737 -3.56114805 -1.34443837 15.7707 5.11027)" gradientUnits="userSpaceOnUse" r="1"><stop offset=".094" stop-color="#2b2427"/><stop offset="1" stop-color="#1d0f22"/></radialGradient><radialGradient id="aq" cx="0" cy="0" gradientTransform="matrix(-.5657148 -.50173565 .32540134 -.3668951 14.1272 6.83869)" gradientUnits="userSpaceOnUse" r="1"><stop offset="0" stop-color="#8e726c"/><stop offset="1" stop-color="#765051"/></radialGradient><linearGradient id="ar" gradientUnits="userSpaceOnUse" x1="13.803" x2="13.379" y1="7.179" y2="7.387"><stop offset="0" stop-color="#37234c"/><stop offset="1" stop-color="#37234c" stop-opacity="0"/></linearGradient><linearGradient id="as" gradientUnits="userSpaceOnUse" x1="13.62" x2="14.153" y1="8.994" y2="8.686"><stop offset=".324" stop-color="#72687c"/><stop offset="1" stop-color="#72687c" stop-opacity="0"/></linearGradient><radialGradient id="at" cx="0" cy="0" gradientTransform="matrix(.19065718 -.08393685 .49199816 1.11754235 13.4362 6.98484)" gradientUnits="userSpaceOnUse" r="1"><stop offset="0" stop-color="#564975"/><stop offset="1" stop-color="#4d3a6e" stop-opacity="0"/></radialGradient><radialGradient id="au" cx="0" cy="0" gradientTransform="matrix(.95810336 2.18127555 -2.56378295 1.1261159 11.9825 3.78665)" gradientUnits="userSpaceOnUse" r="1"><stop offset=".045" stop-color="#4fbdff"/><stop offset=".919" stop-color="#52abe4"/></radialGradient><radialGradient id="av" cx="0" cy="0" gradientTransform="matrix(-.28252517 -.62322803 1.59820834 -.72450863 12.4487 5.55778)" gradientUnits="userSpaceOnUse" r="1"><stop offset=".218" stop-color="#4b89d0"/><stop offset="1" stop-color="#337bcd"/></radialGradient><g filter="url(#a)"><path clip-rule="evenodd" d="m7.02734 21.647c-2.19188 0-3.96875 1.7768-3.96875 3.9687s1.77687 3.9688 3.96875 3.9688 3.96876-1.7769 3.96876-3.9688-1.77688-3.9687-3.96876-3.9687zm-4.96875 3.9687c0-2.7441 2.22459-4.9687 4.96875-4.9687 2.74417 0 4.96876 2.2246 4.96876 4.9687 0 2.7442-2.22459 4.9688-4.96876 4.9688-2.74416 0-4.96875-2.2246-4.96875-4.9688z" fill="url(#r)" fill-rule="evenodd"/></g><g filter="url(#b)"><circle cx="7.027" cy="25.616" r="4.555" stroke="url(#s)" stroke-width=".3"/></g><path d="m19.1584 20.772-1.8264-1.9883-.4236 2.0586 1.001.7056z" fill="url(#t)"/><path d="m17.8529 21.5051-.3004 1.9807c-.0663.4758-.0394.8871.3647 1.1668.1015.0703.2373.031.3065-.0712l1.9637-2.9017c.0619-.0914.038-.2158-.0535-.2777l-.9519-.6442z" fill="#413354"/><path d="m17.8529 21.5051-.3004 1.9807c-.0663.4758-.0394.8871.3647 1.1668.1015.0703.2373.031.3065-.0712l1.9637-2.9017c.0619-.0914.038-.2158-.0535-.2777l-.9519-.6442z" fill="url(#u)"/><path d="m17.8529 21.5051-.3004 1.9807c-.0663.4758-.0394.8871.3647 1.1668.1015.0703.2373.031.3065-.0712l1.9637-2.9017c.0619-.0914.038-.2158-.0535-.2777l-.9519-.6442z" fill="url(#v)"/><g clip-rule="evenodd" fill-rule="evenodd"><path d="m12.4596 12.2393c.2553.1053.3769.3976.2717.6529l-2.5399 6.2468c-.1053.2553-.39756.377-.65285.2717s-.3769-.3976-.27163-.6529l2.53988-6.2469c.1052-.2553.3975-.3769.6528-.2716z" fill="url(#w)"/><path d="m12.4596 12.2393c.2553.1053.3769.3976.2717.6529l-2.5399 6.2468c-.1053.2553-.39756.377-.65285.2717s-.3769-.3976-.27163-.6529l2.53988-6.2469c.1052-.2553.3975-.3769.6528-.2716z" fill="url(#x)"/><path d="m10.5256 16.9743c.281.1155.4151.4369.2996.7178l-3.28907 8c-.11551.281-.43689.4151-.71783.2996s-.41505-.4369-.29955-.7178l3.28907-8c.1155-.281.43688-.4151.71778-.2996z" fill="url(#y)"/><path d="m9.60157 19.2016c.10169-.2219.43083-.4654.67263-.2816l6.25 4.75c.2419.1838.2889.5288.1051.7707-.1838.2418-.5288.2889-.7707.1051l-6.08109-4.6098c-.24184-.1838-.30483-.4531-.17594-.7344z" fill="url(#z)"/><path d="m9.60157 19.2016c.10169-.2219.43083-.4654.67263-.2816l6.25 4.75c.2419.1838.2889.5288.1051.7707-.1838.2418-.5288.2889-.7707.1051l-6.08109-4.6098c-.24184-.1838-.30483-.4531-.17594-.7344z" fill="url(#A)"/><g filter="url(#c)"><path d="m24.9727 21.647c-2.1919 0-3.9688 1.7768-3.9688 3.9687s1.7769 3.9688 3.9688 3.9688c2.1918 0 3.9687-1.7769 3.9687-3.9688s-1.7769-3.9687-3.9687-3.9687zm-4.9688 3.9687c0-2.7441 2.2246-4.9687 4.9688-4.9687 2.7441 0 4.9687 2.2246 4.9687 4.9687 0 2.7442-2.2246 4.9688-4.9687 4.9688-2.7442 0-4.9688-2.2246-4.9688-4.9688z" fill="url(#B)"/><path d="m24.9727 21.647c-2.1919 0-3.9688 1.7768-3.9688 3.9687s1.7769 3.9688 3.9688 3.9688c2.1918 0 3.9687-1.7769 3.9687-3.9688s-1.7769-3.9687-3.9687-3.9687zm-4.9688 3.9687c0-2.7441 2.2246-4.9687 4.9688-4.9687 2.7441 0 4.9687 2.2246 4.9687 4.9687 0 2.7442-2.2246 4.9688-4.9687 4.9688-2.7442 0-4.9688-2.2246-4.9688-4.9688z" fill="url(#C)"/></g><path d="m19.7103 17.26c-.2568.1621-.3337.5018-.1715.7587l4.7187 7.4765c.1621.2569.5018.3337.7587.1716s.3337-.5018.1715-.7587l-4.7187-7.4765c-.1621-.2569-.5018-.3337-.7587-.1716z" fill="url(#D)"/><path d="m20.0143 17.1805c.2965.0661.4832.3601.4171.6565l-1.5781 7.0782c-.0661.2964-.36.4832-.6565.4171s-.4832-.36-.4171-.6565l1.5781-7.0781c.0661-.2965.36-.4833.6565-.4172z" fill="url(#E)"/><path d="m20.0143 17.1805c.2965.0661.4832.3601.4171.6565l-1.5781 7.0782c-.0661.2964-.36.4832-.6565.4171s-.4832-.36-.4171-.6565l1.5781-7.0781c.0661-.2965.36-.4833.6565-.4172z" fill="url(#F)"/><path d="m20.0143 17.1805c.2965.0661.4832.3601.4171.6565l-1.5781 7.0782c-.0661.2964-.36.4832-.6565.4171s-.4832-.36-.4171-.6565l1.5781-7.0781c.0661-.2965.36-.4833.6565-.4172z" fill="url(#G)"/></g><path d="m13.9693 16.0845 1.3399-.836 1.039 1.0391-.7656 3.5312c-.513-.3802-1.5687-1.1609-1.6874-1.2421-.1485-.1016-.6608-.543-.653-1.2383.008-.7112.4771-1.0716.7271-1.2539z" fill="url(#H)"/><path d="m13.9693 16.0845 1.3399-.836 1.039 1.0391-.7656 3.5312c-.513-.3802-1.5687-1.1609-1.6874-1.2421-.1485-.1016-.6608-.543-.653-1.2383.008-.7112.4771-1.0716.7271-1.2539z" fill="url(#I)"/><path d="m13.9693 16.0845 1.3399-.836 1.039 1.0391-.7656 3.5312c-.513-.3802-1.5687-1.1609-1.6874-1.2421-.1485-.1016-.6608-.543-.653-1.2383.008-.7112.4771-1.0716.7271-1.2539z" fill="url(#J)"/><path d="m13.9693 16.0845 1.3399-.836 1.039 1.0391-.7656 3.5312c-.513-.3802-1.5687-1.1609-1.6874-1.2421-.1485-.1016-.6608-.543-.653-1.2383.008-.7112.4771-1.0716.7271-1.2539z" fill="url(#K)"/><path d="m15.25 15.2837 2.6406-1.6094 1.2071.6289-2.7266 2.4766c-.2688-.2313-.8399-1.0508-1.1211-1.4961z" fill="url(#L)"/><path d="m15.25 15.2837 2.6406-1.6094 1.2071.6289-2.7266 2.4766c-.2688-.2313-.8399-1.0508-1.1211-1.4961z" fill="url(#M)"/><g filter="url(#d)"><path d="m18.8841 27.4394c-.124.0259-.2524.0396-.3841.0396-1.0291 0-1.8633-.8342-1.8633-1.8633 0-1.029.8342-1.8633 1.8633-1.8633.1381 0 .2728.0151.4024.0436l5.8984.9057c.4388.0726.7734.4546.7734.914 0 .489-.3791.8895-.8595.9235z" fill="url(#N)"/><path d="m18.8841 27.4394c-.124.0259-.2524.0396-.3841.0396-1.0291 0-1.8633-.8342-1.8633-1.8633 0-1.029.8342-1.8633 1.8633-1.8633.1381 0 .2728.0151.4024.0436l5.8984.9057c.4388.0726.7734.4546.7734.914 0 .489-.3791.8895-.8595.9235z" fill="url(#O)"/></g><circle cx="18.344" cy="25.616" fill="url(#P)" r="1.027"/><circle cx="18.344" cy="25.616" fill="url(#Q)" r="1.027"/><g filter="url(#e)"><path d="m16.07 23.865-1.8088.8613c-.4312.2118-.7568.4646-.7619.9561-.0013.1234.1073.2139.2307.2139h3.5037c.1105 0 .2-.0896.2-.2v-1.1494z" fill="#5b4e85"/><path d="m16.07 23.865-1.8088.8613c-.4312.2118-.7568.4646-.7619.9561-.0013.1234.1073.2139.2307.2139h3.5037c.1105 0 .2-.0896.2-.2v-1.1494z" fill="url(#R)"/><path d="m16.07 23.865-1.8088.8613c-.4312.2118-.7568.4646-.7619.9561-.0013.1234.1073.2139.2307.2139h3.5037c.1105 0 .2-.0896.2-.2v-1.1494z" fill="url(#S)"/></g><path d="m13.5093 8.552h2.15415v2.66825h-2.15415z" fill="url(#T)" transform="matrix(.56788972 -.82310465 .82310465 .56788972 -1.201684 14.814975)"/><path d="m13.5093 8.552h2.15415v2.66825h-2.15415z" fill="url(#U)" transform="matrix(.56788972 -.82310465 .82310465 .56788972 -1.201684 14.814975)"/><g filter="url(#f)"><path d="m16.0511 16.6392.5532-.5142 2.0402 1.9166c-.2734.1536-.8871.4633-1.0308.582-.1098.0907-.1098.2344-.1098.3281l-.0465 5.5938-1.4063-.6719c-.138-.7943-.4196-2.7082-.7691-4.3008-.3953-1.8008.3759-2.5924.7691-2.9336z" fill="url(#V)"/><path d="m16.0511 16.6392.5532-.5142 2.0402 1.9166c-.2734.1536-.8871.4633-1.0308.582-.1098.0907-.1098.2344-.1098.3281l-.0465 5.5938-1.4063-.6719c-.138-.7943-.4196-2.7082-.7691-4.3008-.3953-1.8008.3759-2.5924.7691-2.9336z" fill="url(#W)"/></g><g filter="url(#g)"><path d="m18.3349 14.4166-.6357-.6993 4.0313-2.4766c1.4218 1.8672 1.5 3.211.8359 4.2735s-1.582 2.0507-2.6172 2.9453c-.2714.2345-.8026.3616-1.3594-.1797-.707-.6875-1.5781-1.5781-2.039-2.1133l1.7772-1.6085c.041-.0371.0441-.1005.0069-.1414z" fill="url(#X)"/><path d="m18.3349 14.4166-.6357-.6993 4.0313-2.4766c1.4218 1.8672 1.5 3.211.8359 4.2735s-1.582 2.0507-2.6172 2.9453c-.2714.2345-.8026.3616-1.3594-.1797-.707-.6875-1.5781-1.5781-2.039-2.1133l1.7772-1.6085c.041-.0371.0441-.1005.0069-.1414z" fill="url(#Y)"/></g><g filter="url(#h)"><path d="m16.0664 11.7955c.6641.625 1.3633 1.5859 1.6719 1.9687l4.2423-2.1797c-.586-.9765-2.0703-2.53123-3.5391-3.35936-1.7187-.8125-2.6724 0-3.3052 1.07032-.4136.85154.2582 1.78124.9301 2.50004z" fill="url(#Z)"/></g><g filter="url(#i)"><path d="m12.9102 12.2486c0-.3176-.2575-.575-.575-.575h-3.04999c-1.1762 0-2.12969.9535-2.12969 2.1297s.95349 2.1297 2.12968 2.1297h.18277c.31756 0 .57503-.2575.57503-.575 0-.3176-.25747-.575-.57503-.575h-.18277c-.54106 0-.97968-.4387-.97968-.9797 0-.5411.43862-.9797.97969-.9797h3.04999c.3175 0 .575-.2575.575-.575z" fill="#c0b9bc"/><path d="m12.9102 12.2486c0-.3176-.2575-.575-.575-.575h-3.04999c-1.1762 0-2.12969.9535-2.12969 2.1297s.95349 2.1297 2.12968 2.1297h.18277c.31756 0 .57503-.2575.57503-.575 0-.3176-.25747-.575-.57503-.575h-.18277c-.54106 0-.97968-.4387-.97968-.9797 0-.5411.43862-.9797.97969-.9797h3.04999c.3175 0 .575-.2575.575-.575z" fill="url(#aa)"/></g><g filter="url(#j)"><path clip-rule="evenodd" d="m8.30469 13.8618v-.0215c0-.316-.25611-.5722-.57227-.5722s-.57226.2562-.57226.5722v.0215h-.00391c.03101 1.1491.97241 2.0711 2.12891 2.0711h.18286c.31762 0 .57498-.2574.57498-.575s-.25736-.575-.57498-.575h-.18286c-.52124 0-.94776-.4073-.97803-.9211z" fill="#2b174f" fill-rule="evenodd"/></g><g clip-rule="evenodd" fill-rule="evenodd" filter="url(#k)"><path d="m17.0969 8.91311c.4786.32733.6013.98074.274 1.45939-.7827 1.1446-3.1516 4.3029-7.93264 4.7879-.57693.0585-1.59457-.3193-1.6531-.8962s.86421-1.1345 1.44115-1.1931c3.84389-.3899 5.74069-2.9036 6.41109-3.88395.3274-.47868.9808-.60138 1.4595-.27404z" fill="#7d574e"/><path d="m17.0969 8.91311c.4786.32733.6013.98074.274 1.45939-.7827 1.1446-3.1516 4.3029-7.93264 4.7879-.57693.0585-1.59457-.3193-1.6531-.8962s.86421-1.1345 1.44115-1.1931c3.84389-.3899 5.74069-2.9036 6.41109-3.88395.3274-.47868.9808-.60138 1.4595-.27404z" fill="url(#ab)"/></g><path clip-rule="evenodd" d="m9.29142 13.5609c0 .1933-.1567.35-.35.35-.17295 0-.43539.0425-.66246.1497-.22598.1066-.3699.2525-.41531.4387-.0458.1878-.23516.3029-.42296.2571-.18779-.0458-.30291-.2351-.25711-.4229.11366-.4661.46185-.748.79661-.906.33366-.1575.70058-.2166.96123-.2166.1933 0 .35.1567.35.35z" fill="url(#ad)" fill-rule="evenodd"/><path clip-rule="evenodd" d="m9.29142 13.5609c0 .1933-.1567.35-.35.35-.17295 0-.43539.0425-.66246.1497-.22598.1066-.3699.2525-.41531.4387-.0458.1878-.23516.3029-.42296.2571-.18779-.0458-.30291-.2351-.25711-.4229.11366-.4661.46185-.748.79661-.906.33366-.1575.70058-.2166.96123-.2166.1933 0 .35.1567.35.35z" fill="url(#af)" fill-rule="evenodd"/><g filter="url(#l)"><path d="m20.9608 13.5344-.5233-.8635 1.125-.6563c.9687 1.3125 1.3437 2.2969.7344 2.875-.4875.4625-2.8698 1.724-4 2.2969l2.5029-2.414c.3364-.3244.4032-.8385.161-1.2381z" fill="url(#ag)"/></g><path clip-rule="evenodd" d="m8.78136 14.0962c.05881.1841-.04279.3811-.22693.4399-.28844.0921-.37727.3293-.40574.4574-.04194.1887-.22891.3076-.4176.2657-.1887-.042-.30767-.2289-.26572-.4176.04966-.2235.23499-.7676.8761-.9723.18414-.0588.38108.0428.43989.2269z" fill="url(#ah)" fill-rule="evenodd"/><path clip-rule="evenodd" d="m8.78136 14.0962c.05881.1841-.04279.3811-.22693.4399-.28844.0921-.37727.3293-.40574.4574-.04194.1887-.22891.3076-.4176.2657-.1887-.042-.30767-.2289-.26572-.4176.04966-.2235.23499-.7676.8761-.9723.18414-.0588.38108.0428.43989.2269z" fill="url(#ai)" fill-rule="evenodd"/><path clip-rule="evenodd" d="m8.92896 14.1553c.06659.0803.11328.2422 0 .4023-.15153.1256-.34264.389-.37247.5935-.02789.1913-.20557.3237-.39684.2958-.19128-.0279-.32373-.2055-.29583-.3968.01875-.1286.07671-.2847.15466-.4288.07977-.1475.1966-.3126.35391-.443.14881-.1234.4332-.1718.55657-.023z" fill="url(#aj)" fill-rule="evenodd"/><path clip-rule="evenodd" d="m8.92896 14.1553c.06659.0803.11328.2422 0 .4023-.15153.1256-.34264.389-.37247.5935-.02789.1913-.20557.3237-.39684.2958-.19128-.0279-.32373-.2055-.29583-.3968.01875-.1286.07671-.2847.15466-.4288.07977-.1475.1966-.3126.35391-.443.14881-.1234.4332-.1718.55657-.023z" fill="url(#ak)" fill-rule="evenodd"/><g filter="url(#m)"><circle cx="9.195" cy="14.063" fill="#825c51" r=".885"/></g><path d="m10.8196 8.95528c-.2008-.14152-.2027-.30139-.1329-.65594.0511-.25906-.0103-.45354-.0567-.53686l.8026 1.0025c-.1108.2213-.4122.33183-.613.1903z" fill="url(#al)"/><g filter="url(#n)"><path d="m11.9918 9.72617c-.7724-.75043-1.4051-1.95058-1.659-2.41939l3.4813-2.06013 1.8356 1.69802c-.0781.3402-.3777 1.19678-.952 1.90155-.7178.88097-1.6924 1.86468-2.7059.87995z" fill="url(#am)"/><path d="m11.9918 9.72617c-.7724-.75043-1.4051-1.95058-1.659-2.41939l3.4813-2.06013 1.8356 1.69802c-.0781.3402-.3777 1.19678-.952 1.90155-.7178.88097-1.6924 1.86468-2.7059.87995z" fill="url(#an)"/></g><path clip-rule="evenodd" d="m11.8885 9.1953c-.0325-.05602-.0135-.12784.0425-.1604.1029-.05981.2395-.20878.3163-.52457.0152-.06297.0787-.10161.1417-.08631.0629.0153.1016.07874.0863.14171-.0876.3605-.2545.5721-.4264.67202-.056.03257-.1278.01356-.1604-.04245z" fill="#86004d" fill-rule="evenodd"/><path d="m11.9367 6.9792c-.2368-.09901-.4614-.04882-.5898-.00315.2814.1522.3329.38628.4913.36932.2065-.02209.2956-.28375.0985-.36617z" fill="#1b131c"/><path d="m11.0217 7.28277c-.0725.22776.0613.45778.133.57396l.8939-.51604c-.5203-.59876-.9283-.36736-1.0269-.05792z" fill="#fff"/><path d="m11.6568 7.56691c-.009-.01632-.0186-.03262-.0287-.04882-.1574-.25106-.3947-.38582-.53-.30099s-.1174.35712.04.60818c.0064.01014.0129.02008.0195.02983z" fill="#634c48"/><path d="m11.465 7.67756c-.0118-.03073-.0275-.06218-.0469-.09311-.0875-.13959-.2178-.21549-.2912-.16953-.0733.04596-.0617.19638.0258.33597.0172.02751.0362.05255.056.07467z" fill="url(#ao)"/><circle cx="11.136" cy="7.392" fill="#dfdfdf" r=".085" transform="matrix(.44767169 -.894198 .894198 .44767169 -.459623 14.040748)"/><g filter="url(#o)"><path d="m14.3973 7.86696-.9792-1.0745-.5283-.93081 2.2633-1.06055c.0628.09978.3188.33794.8401.49234.6517.193.9425.65636 1.0695.89418.1269.23782.4994 1.31613-.6528 1.97961-.9218.53079-1.7258.02098-2.0126-.30027z" fill="url(#ap)"/></g><circle cx="13.502" cy="6.367" fill="url(#aq)" r=".655" transform="matrix(.44767169 -.894198 .894198 .44767169 1.764375 15.590014)"/><path clip-rule="evenodd" d="m12.7493 5.64185c.1484-.06497.3214.00266.3864.15105l1.4658 3.34777c.065.14839-.0027.32136-.1511.38633-.1484.06498-.3213-.00265-.3863-.15104l-1.4658-3.34777c-.065-.14839.0026-.32136.151-.38634z" fill="#4d3771" fill-rule="evenodd"/><path clip-rule="evenodd" d="m12.7493 5.64185c.1484-.06497.3214.00266.3864.15105l1.4658 3.34777c.065.14839-.0027.32136-.1511.38633-.1484.06498-.3213-.00265-.3863-.15104l-1.4658-3.34777c-.065-.14839.0026-.32136.151-.38634z" fill="url(#ar)" fill-rule="evenodd"/><path clip-rule="evenodd" d="m12.7493 5.64185c.1484-.06497.3214.00266.3864.15105l1.4658 3.34777c.065.14839-.0027.32136-.1511.38633-.1484.06498-.3213-.00265-.3863-.15104l-1.4658-3.34777c-.065-.14839.0026-.32136.151-.38634z" fill="url(#as)" fill-rule="evenodd"/><path clip-rule="evenodd" d="m12.7493 5.64185c.1484-.06497.3214.00266.3864.15105l1.4658 3.34777c.065.14839-.0027.32136-.1511.38633-.1484.06498-.3213-.00265-.3863-.15104l-1.4658-3.34777c-.065-.14839.0026-.32136.151-.38634z" fill="url(#at)" fill-rule="evenodd"/><g filter="url(#p)"><path d="m15.125 4.99916-4.7338 2.39105c-.1195.0604-.2643.03134-.3386-.08017-.16195-.24323-.38758-.65357-.56489-1.14159-.52805-1.45344.48698-2.26083.62019-2.38543.1928-.18026.7239-.62681 1.8616-1.03615 1.3351-.48035 2.1766.11589 2.5863.66949.2576.34817.5379.86989.7008 1.22154.063.13613.0023.29362-.1316.36126z" fill="url(#au)"/></g><g filter="url(#q)"><path d="m11.3281 5.72145c-.0852-.17608-.0115-.38788.1645-.47309l1.3115-.6346c.1761-.0852.3879-.01153.4731.16455s.0116.38789-.1645.47309l-1.3115.6346c-.1761.0852-.3879.01153-.4731-.16455z" fill="url(#av)"/></g></svg>