<svg fill="none" height="32" viewBox="0 0 32 32" width="32" xmlns="http://www.w3.org/2000/svg" xmlns:xlink="http://www.w3.org/1999/xlink"><filter id="a" color-interpolation-filters="sRGB" filterUnits="userSpaceOnUse" height="27.87" width="28.938" x="2.104" y="3.06"><feFlood flood-opacity="0" result="BackgroundImageFix"/><feBlend in="SourceGraphic" in2="BackgroundImageFix" mode="normal" result="shape"/><feColorMatrix in="SourceAlpha" result="hardAlpha" type="matrix" values="0 0 0 0 0 0 0 0 0 0 0 0 0 0 0 0 0 0 127 0"/><feOffset dx="1" dy="1"/><feGaussianBlur stdDeviation="1"/><feComposite in2="hardAlpha" k2="-1" k3="1" operator="arithmetic"/><feColorMatrix type="matrix" values="0 0 0 0 0.219608 0 0 0 0 0.658824 0 0 0 0 0.352941 0 0 0 1 0"/><feBlend in2="shape" mode="normal" result="effect1_innerShadow_3987_23479"/></filter><filter id="b" color-interpolation-filters="sRGB" filterUnits="userSpaceOnUse" height="5.198" width="8.378" x="17.844" y="3.06"><feFlood flood-opacity="0" result="BackgroundImageFix"/><feBlend in="SourceGraphic" in2="BackgroundImageFix" mode="normal" result="shape"/><feColorMatrix in="SourceAlpha" result="hardAlpha" type="matrix" values="0 0 0 0 0 0 0 0 0 0 0 0 0 0 0 0 0 0 127 0"/><feOffset dx=".25" dy=".5"/><feGaussianBlur stdDeviation=".375"/><feComposite in2="hardAlpha" k2="-1" k3="1" operator="arithmetic"/><feColorMatrix type="matrix" values="0 0 0 0 0.705882 0 0 0 0 0.705882 0 0 0 0 0.709804 0 0 0 1 0"/><feBlend in2="shape" mode="normal" result="effect1_innerShadow_3987_23479"/></filter><filter id="c" color-interpolation-filters="sRGB" filterUnits="userSpaceOnUse" height="3.388" width="27.922" x="2.119" y="26.757"><feFlood flood-opacity="0" result="BackgroundImageFix"/><feBlend in="SourceGraphic" in2="BackgroundImageFix" mode="normal" result="shape"/><feColorMatrix in="SourceAlpha" result="hardAlpha" type="matrix" values="0 0 0 0 0 0 0 0 0 0 0 0 0 0 0 0 0 0 127 0"/><feOffset dy=".2"/><feGaussianBlur stdDeviation=".5"/><feComposite in2="hardAlpha" k2="-1" k3="1" operator="arithmetic"/><feColorMatrix type="matrix" values="0 0 0 0 0.47451 0 0 0 0 0.258824 0 0 0 0 0.25098 0 0 0 1 0"/><feBlend in2="shape" mode="normal" result="effect1_innerShadow_3987_23479"/></filter><filter id="d" color-interpolation-filters="sRGB" filterUnits="userSpaceOnUse" height="9.938" width="9.938" x="2.104" y="20.008"><feFlood flood-opacity="0" result="BackgroundImageFix"/><feBlend in="SourceGraphic" in2="BackgroundImageFix" mode="normal" result="shape"/><feColorMatrix in="SourceAlpha" result="hardAlpha" type="matrix" values="0 0 0 0 0 0 0 0 0 0 0 0 0 0 0 0 0 0 127 0"/><feOffset/><feGaussianBlur stdDeviation=".25"/><feComposite in2="hardAlpha" k2="-1" k3="1" operator="arithmetic"/><feColorMatrix type="matrix" values="0 0 0 0 0.227451 0 0 0 0 0.156863 0 0 0 0 0.27451 0 0 0 1 0"/><feBlend in2="shape" mode="normal" result="effect1_innerShadow_3987_23479"/></filter><filter id="e" color-interpolation-filters="sRGB" filterUnits="userSpaceOnUse" height="10.409" width="10.409" x="1.868" y="19.772"><feFlood flood-opacity="0" result="BackgroundImageFix"/><feBlend in="SourceGraphic" in2="BackgroundImageFix" mode="normal" result="shape"/><feGaussianBlur result="effect1_foregroundBlur_3987_23479" stdDeviation=".25"/></filter><filter id="f" color-interpolation-filters="sRGB" filterUnits="userSpaceOnUse" height="10.037" width="10.037" x="20.049" y="19.908"><feFlood flood-opacity="0" result="BackgroundImageFix"/><feBlend in="SourceGraphic" in2="BackgroundImageFix" mode="normal" result="shape"/><feColorMatrix in="SourceAlpha" result="hardAlpha" type="matrix" values="0 0 0 0 0 0 0 0 0 0 0 0 0 0 0 0 0 0 127 0"/><feOffset dx=".1" dy="-.1"/><feGaussianBlur stdDeviation=".2"/><feComposite in2="hardAlpha" k2="-1" k3="1" operator="arithmetic"/><feColorMatrix type="matrix" values="0 0 0 0 0.152941 0 0 0 0 0.0862745 0 0 0 0 0.164706 0 0 0 1 0"/><feBlend in2="shape" mode="normal" result="effect1_innerShadow_3987_23479"/></filter><filter id="g" color-interpolation-filters="sRGB" filterUnits="userSpaceOnUse" height="4.077" width="9.188" x="16.682" y="22.863"><feFlood flood-opacity="0" result="BackgroundImageFix"/><feBlend in="SourceGraphic" in2="BackgroundImageFix" mode="normal" result="shape"/><feColorMatrix in="SourceAlpha" result="hardAlpha" type="matrix" values="0 0 0 0 0 0 0 0 0 0 0 0 0 0 0 0 0 0 127 0"/><feOffset dx=".25" dy="-.25"/><feGaussianBlur stdDeviation=".25"/><feComposite in2="hardAlpha" k2="-1" k3="1" operator="arithmetic"/><feColorMatrix type="matrix" values="0 0 0 0 0.701961 0 0 0 0 0.341176 0 0 0 0 0.254902 0 0 0 1 0"/><feBlend in2="shape" mode="normal" result="effect1_innerShadow_3987_23479"/><feColorMatrix in="SourceAlpha" result="hardAlpha" type="matrix" values="0 0 0 0 0 0 0 0 0 0 0 0 0 0 0 0 0 0 127 0"/><feOffset dx=".25" dy=".1"/><feGaussianBlur stdDeviation=".25"/><feComposite in2="hardAlpha" k2="-1" k3="1" operator="arithmetic"/><feColorMatrix type="matrix" values="0 0 0 0 0.894118 0 0 0 0 0.490196 0 0 0 0 0.196078 0 0 0 1 0"/><feBlend in2="effect1_innerShadow_3987_23479" mode="normal" result="effect2_innerShadow_3987_23479"/></filter><filter id="h" color-interpolation-filters="sRGB" filterUnits="userSpaceOnUse" height="2.181" width="4.034" x="13.544" y="23.076"><feFlood flood-opacity="0" result="BackgroundImageFix"/><feBlend in="SourceGraphic" in2="BackgroundImageFix" mode="normal" result="shape"/><feColorMatrix in="SourceAlpha" result="hardAlpha" type="matrix" values="0 0 0 0 0 0 0 0 0 0 0 0 0 0 0 0 0 0 127 0"/><feOffset dx=".1" dy="-.15"/><feGaussianBlur stdDeviation=".125"/><feComposite in2="hardAlpha" k2="-1" k3="1" operator="arithmetic"/><feColorMatrix type="matrix" values="0 0 0 0 0.27451 0 0 0 0 0.188235 0 0 0 0 0.52549 0 0 0 1 0"/><feBlend in2="shape" mode="normal" result="effect1_innerShadow_3987_23479"/></filter><filter id="i" color-interpolation-filters="sRGB" filterUnits="userSpaceOnUse" height="8.62" width="3.572" x="15.217" y="15.486"><feFlood flood-opacity="0" result="BackgroundImageFix"/><feBlend in="SourceGraphic" in2="BackgroundImageFix" mode="normal" result="shape"/><feColorMatrix in="SourceAlpha" result="hardAlpha" type="matrix" values="0 0 0 0 0 0 0 0 0 0 0 0 0 0 0 0 0 0 127 0"/><feOffset dx=".1" dy=".2"/><feGaussianBlur stdDeviation=".2"/><feComposite in2="hardAlpha" k2="-1" k3="1" operator="arithmetic"/><feColorMatrix type="matrix" values="0 0 0 0 0.858824 0 0 0 0 0.611765 0 0 0 0 0.211765 0 0 0 1 0"/><feBlend in2="shape" mode="normal" result="effect1_innerShadow_3987_23479"/></filter><filter id="j" color-interpolation-filters="sRGB" filterUnits="userSpaceOnUse" height="7.67" width="6.668" x="16.596" y="10.352"><feFlood flood-opacity="0" result="BackgroundImageFix"/><feBlend in="SourceGraphic" in2="BackgroundImageFix" mode="normal" result="shape"/><feColorMatrix in="SourceAlpha" result="hardAlpha" type="matrix" values="0 0 0 0 0 0 0 0 0 0 0 0 0 0 0 0 0 0 127 0"/><feOffset dx=".25" dy="-.25"/><feGaussianBlur stdDeviation=".625"/><feComposite in2="hardAlpha" k2="-1" k3="1" operator="arithmetic"/><feColorMatrix type="matrix" values="0 0 0 0 0.521569 0 0 0 0 0.372549 0 0 0 0 0.533333 0 0 0 1 0"/><feBlend in2="shape" mode="normal" result="effect1_innerShadow_3987_23479"/></filter><filter id="k" color-interpolation-filters="sRGB" filterUnits="userSpaceOnUse" height="5.869" width="7.971" x="15.054" y="7.256"><feFlood flood-opacity="0" result="BackgroundImageFix"/><feBlend in="SourceGraphic" in2="BackgroundImageFix" mode="normal" result="shape"/><feColorMatrix in="SourceAlpha" result="hardAlpha" type="matrix" values="0 0 0 0 0 0 0 0 0 0 0 0 0 0 0 0 0 0 127 0"/><feOffset dx="1"/><feGaussianBlur stdDeviation=".75"/><feComposite in2="hardAlpha" k2="-1" k3="1" operator="arithmetic"/><feColorMatrix type="matrix" values="0 0 0 0 0.388235 0 0 0 0 0.27451 0 0 0 0 0.552941 0 0 0 1 0"/><feBlend in2="shape" mode="normal" result="effect1_innerShadow_3987_23479"/></filter><filter id="l" color-interpolation-filters="sRGB" filterUnits="userSpaceOnUse" height="4.259" width="6.005" x="6.951" y="11.034"><feFlood flood-opacity="0" result="BackgroundImageFix"/><feBlend in="SourceGraphic" in2="BackgroundImageFix" mode="normal" result="shape"/><feColorMatrix in="SourceAlpha" result="hardAlpha" type="matrix" values="0 0 0 0 0 0 0 0 0 0 0 0 0 0 0 0 0 0 127 0"/><feOffset dx="-.25"/><feGaussianBlur stdDeviation=".5"/><feComposite in2="hardAlpha" k2="-1" k3="1" operator="arithmetic"/><feColorMatrix type="matrix" values="0 0 0 0 0.631373 0 0 0 0 0.501961 0 0 0 0 0.466667 0 0 0 1 0"/><feBlend in2="shape" mode="normal" result="effect1_innerShadow_3987_23479"/></filter><filter id="m" color-interpolation-filters="sRGB" filterUnits="userSpaceOnUse" height="2.915" width="3.137" x="6.951" y="12.629"><feFlood flood-opacity="0" result="BackgroundImageFix"/><feBlend in="SourceGraphic" in2="BackgroundImageFix" mode="normal" result="shape"/><feColorMatrix in="SourceAlpha" result="hardAlpha" type="matrix" values="0 0 0 0 0 0 0 0 0 0 0 0 0 0 0 0 0 0 127 0"/><feOffset dx="-.25" dy=".25"/><feGaussianBlur stdDeviation=".25"/><feComposite in2="hardAlpha" k2="-1" k3="1" operator="arithmetic"/><feColorMatrix type="matrix" values="0 0 0 0 0.164706 0 0 0 0 0.117647 0 0 0 0 0.231373 0 0 0 1 0"/><feBlend in2="shape" mode="normal" result="effect1_innerShadow_3987_23479"/></filter><filter id="n" color-interpolation-filters="sRGB" filterUnits="userSpaceOnUse" height="6.937" width="10.272" x="7.828" y="7.591"><feFlood flood-opacity="0" result="BackgroundImageFix"/><feBlend in="SourceGraphic" in2="BackgroundImageFix" mode="normal" result="shape"/><feColorMatrix in="SourceAlpha" result="hardAlpha" type="matrix" values="0 0 0 0 0 0 0 0 0 0 0 0 0 0 0 0 0 0 127 0"/><feOffset dx=".5" dy="-.5"/><feGaussianBlur stdDeviation=".375"/><feComposite in2="hardAlpha" k2="-1" k3="1" operator="arithmetic"/><feColorMatrix type="matrix" values="0 0 0 0 0.823529 0 0 0 0 0.517647 0 0 0 0 0.211765 0 0 0 1 0"/><feBlend in2="shape" mode="normal" result="effect1_innerShadow_3987_23479"/></filter><filter id="o" color-interpolation-filters="sRGB" filterUnits="userSpaceOnUse" height="6.372" width="5.496" x="17.742" y="10.775"><feFlood flood-opacity="0" result="BackgroundImageFix"/><feBlend in="SourceGraphic" in2="BackgroundImageFix" mode="normal" result="shape"/><feGaussianBlur result="effect1_foregroundBlur_3987_23479" stdDeviation=".3"/></filter><filter id="p" color-interpolation-filters="sRGB" filterUnits="userSpaceOnUse" height="2.969" width="2.969" x="7.756" y="11.939"><feFlood flood-opacity="0" result="BackgroundImageFix"/><feBlend in="SourceGraphic" in2="BackgroundImageFix" mode="normal" result="shape"/><feGaussianBlur result="effect1_foregroundBlur_3987_23479" stdDeviation=".3"/></filter><filter id="q" color-interpolation-filters="sRGB" filterUnits="userSpaceOnUse" height="5.083" width="5.504" x="10.089" y="4.435"><feFlood flood-opacity="0" result="BackgroundImageFix"/><feBlend in="SourceGraphic" in2="BackgroundImageFix" mode="normal" result="shape"/><feColorMatrix in="SourceAlpha" result="hardAlpha" type="matrix" values="0 0 0 0 0 0 0 0 0 0 0 0 0 0 0 0 0 0 127 0"/><feOffset dx="-.25" dy="-.25"/><feGaussianBlur stdDeviation=".25"/><feComposite in2="hardAlpha" k2="-1" k3="1" operator="arithmetic"/><feColorMatrix type="matrix" values="0 0 0 0 0.823529 0 0 0 0 0.54902 0 0 0 0 0.141176 0 0 0 1 0"/><feBlend in2="shape" mode="normal" result="effect1_innerShadow_3987_23479"/></filter><filter id="r" color-interpolation-filters="sRGB" filterUnits="userSpaceOnUse" height="3.754" width="4.432" x="12.992" y="3.955"><feFlood flood-opacity="0" result="BackgroundImageFix"/><feBlend in="SourceGraphic" in2="BackgroundImageFix" mode="normal" result="shape"/><feColorMatrix in="SourceAlpha" result="hardAlpha" type="matrix" values="0 0 0 0 0 0 0 0 0 0 0 0 0 0 0 0 0 0 127 0"/><feOffset dx=".15" dy="-.2"/><feGaussianBlur stdDeviation=".3"/><feComposite in2="hardAlpha" k2="-1" k3="1" operator="arithmetic"/><feColorMatrix type="matrix" values="0 0 0 0 0.776471 0 0 0 0 0.419608 0 0 0 0 0.0470588 0 0 0 1 0"/><feBlend in2="shape" mode="normal" result="effect1_innerShadow_3987_23479"/></filter><filter id="s" color-interpolation-filters="sRGB" filterUnits="userSpaceOnUse" height="4.944" width="5.874" x="9.353" y="1.891"><feFlood flood-opacity="0" result="BackgroundImageFix"/><feBlend in="SourceGraphic" in2="BackgroundImageFix" mode="normal" result="shape"/><feColorMatrix in="SourceAlpha" result="hardAlpha" type="matrix" values="0 0 0 0 0 0 0 0 0 0 0 0 0 0 0 0 0 0 127 0"/><feOffset dy="-.15"/><feGaussianBlur stdDeviation=".3"/><feComposite in2="hardAlpha" k2="-1" k3="1" operator="arithmetic"/><feColorMatrix type="matrix" values="0 0 0 0 0.305882 0 0 0 0 0.556863 0 0 0 0 0.882353 0 0 0 1 0"/><feBlend in2="shape" mode="normal" result="effect1_innerShadow_3987_23479"/></filter><filter id="t" color-interpolation-filters="sRGB" filterUnits="userSpaceOnUse" height="1.328" width="1.996" x="11.287" y="4.025"><feFlood flood-opacity="0" result="BackgroundImageFix"/><feBlend in="SourceGraphic" in2="BackgroundImageFix" mode="normal" result="shape"/><feColorMatrix in="SourceAlpha" result="hardAlpha" type="matrix" values="0 0 0 0 0 0 0 0 0 0 0 0 0 0 0 0 0 0 127 0"/><feOffset/><feGaussianBlur stdDeviation=".25"/><feComposite in2="hardAlpha" k2="-1" k3="1" operator="arithmetic"/><feColorMatrix type="matrix" values="0 0 0 0 0.137255 0 0 0 0 0.482353 0 0 0 0 0.796078 0 0 0 1 0"/><feBlend in2="shape" mode="normal" result="effect1_innerShadow_3987_23479"/></filter><linearGradient id="u" gradientUnits="userSpaceOnUse" x1="9.723" x2="28.027" y1="21.004" y2="8.814"><stop offset="0" stop-color="#37c173"/><stop offset="1" stop-color="#36c571"/></linearGradient><linearGradient id="v" gradientUnits="userSpaceOnUse" x1="29.436" x2="25.976" y1="11.992" y2="14.406"><stop offset=".164" stop-color="#4cdd80"/><stop offset="1" stop-color="#36c871" stop-opacity="0"/></linearGradient><linearGradient id="w" gradientUnits="userSpaceOnUse" x1="21.229" x2="24.97" y1="7.004" y2="4.912"><stop offset="0" stop-color="#d7cfdf"/><stop offset="1" stop-color="#e2dce7"/></linearGradient><radialGradient id="x" cx="0" cy="0" gradientTransform="matrix(-3.22339976 1.83628404 -4.14127775 -7.2695691 25.131 5.40879)" gradientUnits="userSpaceOnUse" r="1"><stop offset=".19" stop-color="#ebeaed"/><stop offset="1" stop-color="#d9d1df" stop-opacity="0"/></radialGradient><radialGradient id="y" cx="0" cy="0" gradientTransform="matrix(4.42528675 4.18324972 -2.33904521 2.47437912 19.8206 26.7573)" gradientUnits="userSpaceOnUse" r="1"><stop offset="0" stop-color="#8a4c56"/><stop offset="1" stop-color="#8a4c56" stop-opacity="0"/></radialGradient><radialGradient id="z" cx="0" cy="0" gradientTransform="matrix(-5.87497859 7.81251861 -7.54119471 -5.67094425 10.3147 21.0625)" gradientUnits="userSpaceOnUse" r="1"><stop offset="0" stop-color="#32295b"/><stop offset="1" stop-color="#3c2150"/></radialGradient><linearGradient id="A" gradientUnits="userSpaceOnUse" x1="9.283" x2="3.252" y1="21.313" y2="28.344"><stop offset="0" stop-color="#302a5b"/><stop offset="1" stop-color="#302a5b" stop-opacity="0"/></linearGradient><linearGradient id="B" gradientUnits="userSpaceOnUse" x1="17.752" x2="18.721" y1="20.516" y2="19.51"><stop offset="0" stop-color="#bf7a28"/><stop offset="1" stop-color="#d7aa3d"/></linearGradient><linearGradient id="C" gradientUnits="userSpaceOnUse" x1="22.268" x2="17.674" y1="22.084" y2="21.625"><stop offset=".891" stop-color="#615f76" stop-opacity="0"/><stop offset="1" stop-color="#615f76"/></linearGradient><radialGradient id="D" cx="0" cy="0" gradientTransform="matrix(-1.53126999 2.45311583 -.44454279 -.27748997 20.3459 20.9531)" gradientUnits="userSpaceOnUse" r="1"><stop offset="0" stop-color="#5d5c7e"/><stop offset="1" stop-color="#5d5c7e" stop-opacity="0"/></radialGradient><linearGradient id="E" gradientUnits="userSpaceOnUse" x1="11.549" x2="10.674" y1="14.906" y2="14.625"><stop offset="0" stop-color="#bfa8c7"/><stop offset="1" stop-color="#908590"/></linearGradient><radialGradient id="F" cx="0" cy="0" gradientTransform="matrix(1.07812374 -2.67187294 .30151132 .12166241 10.6272 16.5936)" gradientUnits="userSpaceOnUse" r="1"><stop offset="0" stop-color="#baa3b9"/><stop offset="1" stop-color="#baa3b9" stop-opacity="0"/></radialGradient><linearGradient id="G" gradientUnits="userSpaceOnUse" x1="9.783" x2="8.502" y1="19.86" y2="19.375"><stop offset=".146" stop-color="#d4385b"/><stop offset="1" stop-color="#973c50"/></linearGradient><radialGradient id="H" cx="0" cy="0" gradientTransform="matrix(6.71875315 4.82812728 -1.31598798 1.83131012 10.2209 18.5156)" gradientUnits="userSpaceOnUse" r="1"><stop offset="0" stop-color="#ce3d5e"/><stop offset="1" stop-color="#932145"/></radialGradient><linearGradient id="I" gradientUnits="userSpaceOnUse" x1="13.002" x2="13.393" y1="21.906" y2="21.406"><stop offset="0" stop-color="#96275e"/><stop offset="1" stop-color="#96275e" stop-opacity="0"/><stop offset="1" stop-color="#9c2649" stop-opacity="0"/></linearGradient><radialGradient id="J" cx="0" cy="0" gradientTransform="matrix(-6.86715328 7.00003073 -6.75692924 -6.62866645 29.2522 21.875)" gradientUnits="userSpaceOnUse" r="1"><stop offset=".427" stop-color="#373c67"/><stop offset="1" stop-color="#38144f"/></radialGradient><linearGradient id="K" gradientUnits="userSpaceOnUse" x1="20.049" x2="27.804" y1="27.417" y2="24.977"><stop offset="0" stop-color="#352542"/><stop offset="1" stop-color="#352542" stop-opacity="0"/></linearGradient><linearGradient id="L" gradientUnits="userSpaceOnUse" x1="23.83" x2="22.768" y1="21.844" y2="22.594"><stop offset="0" stop-color="#fd5a60"/><stop offset="1" stop-color="#af253c"/></linearGradient><linearGradient id="M" gradientUnits="userSpaceOnUse" x1="19.627" x2="18.612" y1="20.617" y2="20.469"><stop offset="0" stop-color="#e5435f"/><stop offset="1" stop-color="#a62f2f"/></linearGradient><radialGradient id="N" cx="0" cy="0" gradientTransform="matrix(-1.0937525 4.48437198 -.42827913 -.10445863 20.1584 17.4219)" gradientUnits="userSpaceOnUse" r="1"><stop offset="0" stop-color="#e44354"/><stop offset="1" stop-color="#e44354" stop-opacity="0"/></radialGradient><radialGradient id="O" cx="0" cy="0" gradientTransform="matrix(-.03125031 -1.06250053 1.65481439 -.04867146 18.5022 23.7501)" gradientUnits="userSpaceOnUse" r="1"><stop offset="0" stop-color="#ac2735"/><stop offset="1" stop-color="#ac2735" stop-opacity="0"/></radialGradient><radialGradient id="P" cx="0" cy="0" gradientTransform="matrix(2.18359331 .43749824 -.55377075 2.76391991 13.2874 16.75)" gradientUnits="userSpaceOnUse" r="1"><stop offset=".114" stop-color="#df9e37"/><stop offset="1" stop-color="#d68b27"/></radialGradient><radialGradient id="Q" cx="0" cy="0" gradientTransform="matrix(1.21875062 .45312581 -.35000106 .94138095 15.7834 17.1563)" gradientUnits="userSpaceOnUse" r="1"><stop offset=".346" stop-color="#ca7e1e"/><stop offset="1" stop-color="#d88c28" stop-opacity="0"/></radialGradient><linearGradient id="R" gradientUnits="userSpaceOnUse" x1="14.565" x2="14.987" y1="14.875" y2="15.563"><stop offset="0" stop-color="#c79639"/><stop offset="1" stop-color="#c79639" stop-opacity="0"/></linearGradient><radialGradient id="S" cx="0" cy="0" gradientTransform="matrix(-2.31251357 1.68748882 -.72630839 -.99532394 18.5022 13.8437)" gradientUnits="userSpaceOnUse" r="1"><stop offset=".255" stop-color="#705050"/><stop offset="1" stop-color="#7b5c60"/></radialGradient><linearGradient id="T" gradientUnits="userSpaceOnUse" x1="16.635" x2="17.002" y1="13.742" y2="14.273"><stop offset="0" stop-color="#796867"/><stop offset="1" stop-color="#7c5c60" stop-opacity="0"/></linearGradient><linearGradient id="U" gradientUnits="userSpaceOnUse" x1="25.346" x2="16.682" y1="24.977" y2="24.977"><stop offset="0" stop-color="#f7b14e"/><stop offset="1" stop-color="#e8774d"/></linearGradient><radialGradient id="V" cx="0" cy="0" gradientTransform="matrix(-.867187 0 0 -.96875 25.6194 24.8125)" gradientUnits="userSpaceOnUse" r="1"><stop offset="0" stop-color="#ffd359"/><stop offset="1" stop-color="#ffd359" stop-opacity="0"/></radialGradient><radialGradient id="W" cx="0" cy="0" gradientTransform="matrix(1.56250158 -.65625048 .66796813 1.59040076 17.7209 25.1719)" gradientUnits="userSpaceOnUse" r="1"><stop offset=".47" stop-color="#d8cfe2"/><stop offset="1" stop-color="#c5bfcb"/></radialGradient><radialGradient id="X" cx="0" cy="0" gradientTransform="matrix(-1.56250016 .85938242 -.85938242 -1.56250016 18.9241 24.7031)" gradientUnits="userSpaceOnUse" r="1"><stop offset=".632" stop-color="#e2dfe5" stop-opacity="0"/><stop offset="1" stop-color="#e2dfe5"/></radialGradient><linearGradient id="Y" gradientUnits="userSpaceOnUse" x1="17.479" x2="16.721" y1="24.844" y2="24.844"><stop offset="0" stop-color="#605c92"/><stop offset="1" stop-color="#605c92" stop-opacity="0"/></linearGradient><radialGradient id="Z" cx="0" cy="0" gradientTransform="matrix(-1.10939185 -1.99999616 6.41983308 -3.56106207 16.2991 25.5156)" gradientUnits="userSpaceOnUse" r="1"><stop offset=".301" stop-color="#5c4f86" stop-opacity="0"/><stop offset=".943" stop-color="#493b63"/></radialGradient><linearGradient id="aa" gradientUnits="userSpaceOnUse" x1="15.733" x2="13.401" y1="9.27" y2="8.999"><stop offset="0" stop-color="#ffd03c"/><stop offset="1" stop-color="#b3642e"/></linearGradient><radialGradient id="ab" cx="0" cy="0" gradientTransform="matrix(-.74999348 -8.78125028 2.5288134 -.21598218 17.9397 23.9063)" gradientUnits="userSpaceOnUse" r="1"><stop offset=".122" stop-color="#ffce3c"/><stop offset="1" stop-color="#eda82b"/></radialGradient><radialGradient id="ac" cx="0" cy="0" gradientTransform="matrix(-1.68750309 .06249727 -.11168168 -3.01554262 18.8459 17.6251)" gradientUnits="userSpaceOnUse" r="1"><stop offset=".284" stop-color="#c57c28"/><stop offset="1" stop-color="#e59e31" stop-opacity="0"/></radialGradient><radialGradient id="ad" cx="0" cy="0" gradientTransform="matrix(5.12499803 -4.92969106 2.61319214 2.71672289 16.8147 15.5312)" gradientUnits="userSpaceOnUse" r="1"><stop offset=".148" stop-color="#927876"/><stop offset="1" stop-color="#a3a1a2"/></radialGradient><radialGradient id="ae" cx="0" cy="0" gradientTransform="matrix(2.59374628 -.09374984 .01804196 .49916105 18.2366 13.8125)" gradientUnits="userSpaceOnUse" r="1"><stop offset=".22" stop-color="#8c7675"/><stop offset="1" stop-color="#9c8f8e" stop-opacity="0"/></radialGradient><radialGradient id="af" cx="0" cy="0" gradientTransform="matrix(-3.49999043 -4.06251234 1.7090785 -1.47242836 21.1272 11.5)" gradientUnits="userSpaceOnUse" r="1"><stop offset="0" stop-color="#a382d4"/><stop offset="1" stop-color="#8459ac"/></radialGradient><radialGradient id="ag" cx="0" cy="0" gradientTransform="matrix(3.25232 0 0 1.29925 10.078 12.9375)" gradientUnits="userSpaceOnUse" r="1"><stop offset=".254" stop-color="#90757e"/><stop offset="1" stop-color="#b7a6a6" stop-opacity="0"/></radialGradient><radialGradient id="ah" cx="0" cy="0" gradientTransform="matrix(-1.03442913 .40624249 -.45267741 -1.15266796 17.5991 8.75006)" gradientUnits="userSpaceOnUse" r="1"><stop offset="0" stop-color="#ffda43"/><stop offset="1" stop-color="#ffda43" stop-opacity="0"/></radialGradient><linearGradient id="ai" gradientUnits="userSpaceOnUse" x1="7.88" x2="8.81" y1="13.656" y2="12.682"><stop offset="0" stop-color="#d38e33"/><stop offset="1" stop-color="#ffc435"/></linearGradient><radialGradient id="aj" cx="0" cy="0" gradientTransform="matrix(5.49999736 -1.43750185 2.00474707 7.67032308 17.3772 14.6876)" gradientUnits="userSpaceOnUse" r="1"><stop offset=".625" stop-color="#afa6a9" stop-opacity="0"/><stop offset=".905" stop-color="#afa6a9"/></radialGradient><linearGradient id="ak" gradientUnits="userSpaceOnUse" x1="7.94" x2="9.026" y1="14.188" y2="13.406"><stop offset="0" stop-color="#d38e33"/><stop offset="1" stop-color="#f7b935"/></linearGradient><radialGradient id="al" cx="0" cy="0" gradientTransform="matrix(.8593763 -1.30714651 1.07140993 .70439257 8.14282 14.9219)" gradientUnits="userSpaceOnUse" r="1"><stop offset=".512" stop-color="#d48d33"/><stop offset="1" stop-color="#f2b135"/></radialGradient><radialGradient id="am" cx="0" cy="0" gradientTransform="matrix(1.25781087 1.42968658 -1.42968658 1.25781087 8.74438 12.8126)" gradientUnits="userSpaceOnUse" r="1"><stop offset="0" stop-color="#ffc435"/><stop offset="1" stop-color="#ffc435" stop-opacity="0"/></radialGradient><radialGradient id="an" cx="0" cy="0" gradientTransform="matrix(.6764812 .33823394 -.42548036 .85097748 10.7725 7.77976)" gradientUnits="userSpaceOnUse" r="1"><stop offset=".515" stop-color="#ebab2a"/><stop offset="1" stop-color="#eaa630"/></radialGradient><radialGradient id="ao" cx="0" cy="0" gradientTransform="matrix(3.09473841 -1.08573915 1.12608769 3.20974593 11.5378 7.7879)" gradientUnits="userSpaceOnUse" r="1"><stop offset=".164" stop-color="#f5b63d"/><stop offset="1" stop-color="#eaa131"/></radialGradient><radialGradient id="ap" cx="0" cy="0" gradientTransform="matrix(1.06136779 1.56355085 -1.26167275 .85644724 13.077 5.07382)" gradientUnits="userSpaceOnUse" r="1"><stop offset="0" stop-color="#ca7d27"/><stop offset="1" stop-color="#ca7d27" stop-opacity="0"/></radialGradient><linearGradient id="aq" gradientUnits="userSpaceOnUse" x1="11.445" x2="11.12" y1="7.1" y2="6.619"><stop offset="0" stop-color="#6f443d"/><stop offset="1" stop-color="#5a332d"/></linearGradient><radialGradient id="ar" cx="0" cy="0" gradientTransform="matrix(-.91994521 2.44074634 -3.51976665 -1.32664031 15.838 4.46052)" gradientUnits="userSpaceOnUse" r="1"><stop offset=".094" stop-color="#ffc727"/><stop offset="1" stop-color="#ffae28"/></radialGradient><radialGradient id="as" cx="0" cy="0" gradientTransform="matrix(-.5265634 -.43550278 .4925011 -.59547968 13.9468 6.12738)" gradientUnits="userSpaceOnUse" r="1"><stop offset=".272" stop-color="#fec940"/><stop offset="1" stop-color="#eca92d"/></radialGradient><linearGradient id="at" gradientUnits="userSpaceOnUse" x1="13.768" x2="13.349" y1="6.594" y2="6.8"><stop offset="0" stop-color="#37234c"/><stop offset="1" stop-color="#37234c" stop-opacity="0"/></linearGradient><linearGradient id="au" gradientUnits="userSpaceOnUse" x1="13.588" x2="14.114" y1="8.387" y2="8.084"><stop offset=".324" stop-color="#72687c"/><stop offset="1" stop-color="#72687c" stop-opacity="0"/></linearGradient><radialGradient id="av" cx="0" cy="0" gradientTransform="matrix(.18835691 -.08304898 .48679672 1.10406557 13.4052 6.40257)" gradientUnits="userSpaceOnUse" r="1"><stop offset="0" stop-color="#564975"/><stop offset="1" stop-color="#4d3a6e" stop-opacity="0"/></radialGradient><radialGradient id="aw" cx="0" cy="0" gradientTransform="matrix(.94797485 2.15496725 -2.53285953 1.1142105 11.9672 3.24318)" gradientUnits="userSpaceOnUse" r="1"><stop offset=".045" stop-color="#4fbdff"/><stop offset=".919" stop-color="#52abe4"/></radialGradient><radialGradient id="ax" cx="0" cy="0" gradientTransform="matrix(-.27952929 -.61570467 1.57891856 -.71682741 12.4289 4.9929)" gradientUnits="userSpaceOnUse" r="1"><stop offset=".218" stop-color="#4b89d0"/><stop offset="1" stop-color="#337bcd"/></radialGradient><g filter="url(#a)"><path d="m3.97095 16.711-1.86719 1.9375v11.2812h27.93754v-16.5312l-6.1402-9.30541c-.9097-1.37874-2.933-1.37747-3.841.00241l-8.9158 13.5489c-.1578.2398-.4846.2978-.7153.1269l-2.0479-1.5174c-1.31971-.9796-3.19922-.8007-4.41015.4571z" fill="url(#u)"/><path d="m3.97095 16.711-1.86719 1.9375v11.2812h27.93754v-16.5312l-6.1402-9.30541c-.9097-1.37874-2.933-1.37747-3.841.00241l-8.9158 13.5489c-.1578.2398-.4846.2978-.7153.1269l-2.0479-1.5174c-1.31971-.9796-3.19922-.8007-4.41015.4571z" fill="url(#v)"/></g><g filter="url(#b)"><path d="m17.8438 7.46349 2.247-1.31479c.1695-.09917.386-.06063.5108.09097l1.0702 1.29953c.24.29143.6863.29143.9263 0l1.0676-1.29637c.126-.15298.345-.19064.5149-.08855l1.7909 1.07652-2.0704-3.13771c-.9098-1.37874-2.9331-1.37747-3.8411.00241z" fill="url(#w)"/></g><path d="m17.8438 7.46349 2.247-1.31479c.1695-.09917.386-.06063.5108.09097l1.0702 1.29953c.24.29143.6863.29143.9263 0l1.0676-1.29637c.126-.15298.345-.19064.5149-.08855l1.7909 1.07652-2.0704-3.13771c-.9098-1.37874-2.9331-1.37747-3.8411.00241z" fill="url(#x)"/><g filter="url(#c)"><path d="m5.73581 27.1155-3.61643 2.1581v.6718h27.92192v-.6718l-3.5317-2.1505c-.7426-.4522-1.6717-.4674-2.4287-.0397l-.8178.462c-.5654.3195-1.2507.3445-1.8379.0672l-1.3182-.6226c-.6236-.2945-1.3479-.2868-1.965.021l-1.1765.5868c-.5754.2869-1.2537.2798-1.8229-.0193l-1.1259-.5916c-.5553-.2918-1.2153-.3062-1.7827-.0388l-1.4205.6692c-.5829.2747-1.26232.2517-1.82527-.0618l-.85514-.476c-.74828-.4166-1.66185-.4029-2.39728.036z" fill="#97595f"/><path d="m5.73581 27.1155-3.61643 2.1581v.6718h27.92192v-.6718l-3.5317-2.1505c-.7426-.4522-1.6717-.4674-2.4287-.0397l-.8178.462c-.5654.3195-1.2507.3445-1.8379.0672l-1.3182-.6226c-.6236-.2945-1.3479-.2868-1.965.021l-1.1765.5868c-.5754.2869-1.2537.2798-1.8229-.0193l-1.1259-.5916c-.5553-.2918-1.2153-.3062-1.7827-.0388l-1.4205.6692c-.5829.2747-1.26232.2517-1.82527-.0618l-.85514-.476c-.74828-.4166-1.66185-.4029-2.39728.036z" fill="url(#y)"/></g><g filter="url(#d)"><path clip-rule="evenodd" d="m7.07251 21.0078c-2.19188 0-3.96875 1.7769-3.96875 3.9688 0 2.1918 1.77687 3.9687 3.96875 3.9687s3.96879-1.7769 3.96879-3.9687c0-2.1919-1.77691-3.9688-3.96879-3.9688zm-4.96875 3.9688c0-2.7442 2.22458-4.9688 4.96875-4.9688 2.74416 0 4.96879 2.2246 4.96879 4.9688 0 2.7441-2.22463 4.9687-4.96879 4.9687-2.74417 0-4.96875-2.2246-4.96875-4.9687z" fill="url(#z)" fill-rule="evenodd"/></g><g filter="url(#e)"><circle cx="7.072" cy="24.977" r="4.555" stroke="url(#A)" stroke-width=".3"/></g><path d="m19.2036 20.1328-1.8264-1.9883-.4236 2.0586.9236.6719z" fill="url(#B)"/><path d="m17.8981 20.8659-.3005 1.9807c-.0662.4758-.0394.8872.3648 1.1669.1015.0702.2373.031.3065-.0712l1.9637-2.9017c.0619-.0915.0379-.2158-.0536-.2777l-.9519-.6442z" fill="#413354"/><path d="m17.8981 20.8659-.3005 1.9807c-.0662.4758-.0394.8872.3648 1.1669.1015.0702.2373.031.3065-.0712l1.9637-2.9017c.0619-.0915.0379-.2158-.0536-.2777l-.9519-.6442z" fill="url(#C)"/><path d="m17.8981 20.8659-.3005 1.9807c-.0662.4758-.0394.8872.3648 1.1669.1015.0702.2373.031.3065-.0712l1.9637-2.9017c.0619-.0915.0379-.2158-.0536-.2777l-.9519-.6442z" fill="url(#D)"/><g clip-rule="evenodd" fill-rule="evenodd"><path d="m12.5048 11.6001c.2553.1053.3769.3976.2716.6529l-2.5398 6.2469c-.1053.2553-.39759.3769-.65288.2716s-.3769-.3975-.27163-.6528l2.53981-6.2469c.1053-.2553.3976-.3769.6529-.2717z" fill="url(#E)"/><path d="m12.5048 11.6001c.2553.1053.3769.3976.2716.6529l-2.5398 6.2469c-.1053.2553-.39759.3769-.65288.2716s-.3769-.3975-.27163-.6528l2.53981-6.2469c.1053-.2553.3976-.3769.6529-.2717z" fill="url(#F)"/><path d="m10.5708 16.3352c.2809.1155.4151.4368.2996.7178l-3.28911 8c-.1155.2809-.43688.415-.71782.2995s-.41505-.4369-.29955-.7178l3.28906-8c.11551-.2809.43692-.415.71782-.2995z" fill="url(#G)"/><path d="m9.64674 18.5625c.10169-.222.43086-.4655.67266-.2817l6.25 4.75c.2418.1838.2889.5289.1051.7707s-.5289.2889-.7707.1051l-6.08112-4.6098c-.24184-.1838-.30484-.4531-.17594-.7343z" fill="url(#H)"/><path d="m9.64674 18.5625c.10169-.222.43086-.4655.67266-.2817l6.25 4.75c.2418.1838.2889.5289.1051.7707s-.5289.2889-.7707.1051l-6.08112-4.6098c-.24184-.1838-.30484-.4531-.17594-.7343z" fill="url(#I)"/><g filter="url(#f)"><path d="m25.0178 21.0078c-2.1919 0-3.9687 1.7769-3.9687 3.9688 0 2.1918 1.7768 3.9687 3.9687 3.9687s3.9688-1.7769 3.9688-3.9687c0-2.1919-1.7769-3.9688-3.9688-3.9688zm-4.9687 3.9688c0-2.7442 2.2246-4.9688 4.9687-4.9688 2.7442 0 4.9688 2.2246 4.9688 4.9688 0 2.7441-2.2246 4.9687-4.9688 4.9687-2.7441 0-4.9687-2.2246-4.9687-4.9687z" fill="url(#J)"/><path d="m25.0178 21.0078c-2.1919 0-3.9687 1.7769-3.9687 3.9688 0 2.1918 1.7768 3.9687 3.9687 3.9687s3.9688-1.7769 3.9688-3.9687c0-2.1919-1.7769-3.9688-3.9688-3.9688zm-4.9687 3.9688c0-2.7442 2.2246-4.9688 4.9687-4.9688 2.7442 0 4.9688 2.2246 4.9688 4.9688 0 2.7441-2.2246 4.9687-4.9688 4.9687-2.7441 0-4.9687-2.2246-4.9687-4.9687z" fill="url(#K)"/></g><path d="m19.7555 16.6208c-.2569.1622-.3337.5018-.1716.7587l4.7188 7.4766c.1621.2568.5018.3337.7586.1715.2569-.1621.3337-.5018.1716-.7586l-4.7187-7.4766c-.1622-.2569-.5018-.3337-.7587-.1716z" fill="url(#L)"/><path d="m20.0595 16.5414c.2964.0661.4832.36.4171.6565l-1.5781 7.0781c-.0661.2965-.3601.4832-.6565.4171-.2965-.0661-.4833-.36-.4172-.6565l1.5781-7.0781c.0661-.2965.3601-.4832.6566-.4171z" fill="url(#M)"/><path d="m20.0595 16.5414c.2964.0661.4832.36.4171.6565l-1.5781 7.0781c-.0661.2965-.3601.4832-.6565.4171-.2965-.0661-.4833-.36-.4172-.6565l1.5781-7.0781c.0661-.2965.3601-.4832.6566-.4171z" fill="url(#N)"/><path d="m20.0595 16.5414c.2964.0661.4832.36.4171.6565l-1.5781 7.0781c-.0661.2965-.3601.4832-.6565.4171-.2965-.0661-.4833-.36-.4172-.6565l1.5781-7.0781c.0661-.2965.3601-.4832.6566-.4171z" fill="url(#O)"/></g><path d="m14.0145 15.4453 1.3399-.8359 1.039 1.039-.7657 3.5313c-.513-.3802-1.5686-1.161-1.6874-1.2422-.1484-.1016-.6608-.543-.6529-1.2383.0079-.7111.4771-1.0716.7271-1.2539z" fill="url(#P)"/><path d="m14.0145 15.4453 1.3399-.8359 1.039 1.039-.7657 3.5313c-.513-.3802-1.5686-1.161-1.6874-1.2422-.1484-.1016-.6608-.543-.6529-1.2383.0079-.7111.4771-1.0716.7271-1.2539z" fill="url(#Q)"/><path d="m14.0145 15.4453 1.3399-.8359 1.039 1.039-.7657 3.5313c-.513-.3802-1.5686-1.161-1.6874-1.2422-.1484-.1016-.6608-.543-.6529-1.2383.0079-.7111.4771-1.0716.7271-1.2539z" fill="url(#R)"/><path d="m15.2952 14.6445 2.6406-1.6093 1.207.6289-2.7265 2.4765c-.2688-.2312-.8399-1.0508-1.1211-1.4961z" fill="url(#S)"/><path d="m15.2952 14.6445 2.6406-1.6093 1.207.6289-2.7265 2.4765c-.2688-.2312-.8399-1.0508-1.1211-1.4961z" fill="url(#T)"/><g filter="url(#g)"><path d="m18.9293 26.8002c-.124.026-.2525.0396-.3841.0396-1.0291 0-1.8633-.8342-1.8633-1.8632 0-1.0291.8342-1.8633 1.8633-1.8633.1381 0 .2727.015.4023.0435l5.8984.9057c.4389.0727.7735.4547.7735.9141 0 .489-.3792.8894-.8595.9234z" fill="url(#U)"/><path d="m18.9293 26.8002c-.124.026-.2525.0396-.3841.0396-1.0291 0-1.8633-.8342-1.8633-1.8632 0-1.0291.8342-1.8633 1.8633-1.8633.1381 0 .2727.015.4023.0435l5.8984.9057c.4389.0727.7735.4547.7735.9141 0 .489-.3792.8894-.8595.9234z" fill="url(#V)"/></g><circle cx="18.389" cy="24.977" fill="url(#W)" r="1.027"/><circle cx="18.389" cy="24.977" fill="url(#X)" r="1.027"/><g filter="url(#h)"><path d="m16.1152 23.2258-1.8088.8613c-.4312.2118-.7568.4646-.762.9561-.0012.1234.1074.2139.2308.2139h3.5037c.1105 0 .2-.0895.2-.2v-1.1494z" fill="#5b4e85"/><path d="m16.1152 23.2258-1.8088.8613c-.4312.2118-.7568.4646-.762.9561-.0012.1234.1074.2139.2308.2139h3.5037c.1105 0 .2-.0895.2-.2v-1.1494z" fill="url(#Y)"/><path d="m16.1152 23.2258-1.8088.8613c-.4312.2118-.7568.4646-.762.9561-.0012.1234.1074.2139.2308.2139h3.5037c.1105 0 .2-.0895.2-.2v-1.1494z" fill="url(#Z)"/></g><path d="m13.5544 7.91284h2.15415v2.66825h-2.15415z" fill="url(#aa)" transform="matrix(.56788972 -.82310465 .82310465 .56788972 -.6561 14.575909)"/><g filter="url(#i)"><path d="m16.0963 16.0001.5532-.5143 2.0402 1.9166c-.2734.1537-.8871.4633-1.0308.582-.1098.0907-.1098.2344-.1098.3282l-.0465 5.5937-1.4063-.6719c-.138-.7942-.4196-2.7082-.7692-4.3007-.3952-1.8008.376-2.5925.7692-2.9336z" fill="url(#ab)"/><path d="m16.0963 16.0001.5532-.5143 2.0402 1.9166c-.2734.1537-.8871.4633-1.0308.582-.1098.0907-.1098.2344-.1098.3282l-.0465 5.5937-1.4063-.6719c-.138-.7942-.4196-2.7082-.7692-4.3007-.3952-1.8008.376-2.5925.7692-2.9336z" fill="url(#ac)"/></g><g filter="url(#j)"><path d="m18.3801 13.7774-.6357-.6993 4.0312-2.4765c1.4219 1.8672 1.5 3.2109.836 4.2734-.6641 1.0625-1.5821 2.0508-2.6172 2.9453-.2714.2346-.8027.3617-1.3594-.1797-.707-.6875-1.5781-1.5781-2.0391-2.1133l1.7773-1.6085c.041-.0371.0441-.1005.0069-.1414z" fill="url(#ad)"/><path d="m18.3801 13.7774-.6357-.6993 4.0312-2.4765c1.4219 1.8672 1.5 3.2109.836 4.2734-.6641 1.0625-1.5821 2.0508-2.6172 2.9453-.2714.2346-.8027.3617-1.3594-.1797-.707-.6875-1.5781-1.5781-2.0391-2.1133l1.7773-1.6085c.041-.0371.0441-.1005.0069-.1414z" fill="url(#ae)"/></g><g filter="url(#k)"><path d="m16.1116 11.1563c.664.625 1.3633 1.5859 1.6718 1.9687l4.2423-2.1796c-.5859-.9766-2.0703-2.53129-3.539-3.35942-1.7188-.8125-2.6724 0-3.3052 1.07032-.4136.85156.2582 1.7812.9301 2.5z" fill="url(#af)"/></g><g filter="url(#l)"><path d="m12.9553 11.6094c0-.3175-.2574-.575-.575-.575h-3.04993c-1.17619 0-2.12969.9535-2.12969 2.1297s.9535 2.1297 2.12969 2.1297h.18276c.31757 0 .57497-.2574.57497-.575s-.2574-.575-.57497-.575h-.18276c-.54107 0-.97969-.4386-.97969-.9797s.43862-.9797.97969-.9797h3.04993c.3176 0 .575-.2574.575-.575z" fill="#c0b9bc"/><path d="m12.9553 11.6094c0-.3175-.2574-.575-.575-.575h-3.04993c-1.17619 0-2.12969.9535-2.12969 2.1297s.9535 2.1297 2.12969 2.1297h.18276c.31757 0 .57497-.2574.57497-.575s-.2574-.575-.57497-.575h-.18276c-.54107 0-.97969-.4386-.97969-.9797s.43862-.9797.97969-.9797h3.04993c.3176 0 .575-.2574.575-.575z" fill="url(#ag)"/></g><g filter="url(#m)"><path clip-rule="evenodd" d="m8.34985 13.2227v-.0215c0-.3161-.2561-.5723-.57226-.5723s-.57227.2562-.57227.5723v.0215h-.0039c.031 1.1491.97241 2.0711 2.1289 2.0711h.18286c.31763 0 .57492-.2575.57492-.575 0-.3176-.25729-.5751-.57492-.5751h-.18286c-.52124 0-.94775-.4073-.97803-.921z" fill="#2b174f" fill-rule="evenodd"/></g><g clip-rule="evenodd" fill-rule="evenodd" filter="url(#n)"><path d="m17.142 8.27395c.4787.32733.6014.98073.2741 1.45942-.7828 1.14463-3.1516 4.30283-7.93267 4.78793-.57694.0585-1.59458-.3193-1.65311-.8962-.05853-.577.86422-1.1346 1.44115-1.1931 3.84393-.39 5.74073-2.90363 6.41113-3.88401.3273-.47868.9807-.60138 1.4594-.27404z" fill="#ffc435"/><path d="m17.142 8.27395c.4787.32733.6014.98073.2741 1.45942-.7828 1.14463-3.1516 4.30283-7.93267 4.78793-.57694.0585-1.59458-.3193-1.65311-.8962-.05853-.577.86422-1.1346 1.44115-1.1931 3.84393-.39 5.74073-2.90363 6.41113-3.88401.3273-.47868.9807-.60138 1.4594-.27404z" fill="url(#ah)"/></g><path clip-rule="evenodd" d="m9.33658 12.9218c0 .1933-.1567.35-.35.35-.17295 0-.43539.0424-.66246.1496-.22597.1066-.36989.2525-.41531.4388-.04579.1878-.23516.3029-.42295.2571-.1878-.0458-.30291-.2352-.25712-.423.11367-.4661.46185-.7479.79661-.9059.33367-.1575.70059-.2166.96123-.2166.1933 0 .35.1567.35.35z" fill="url(#ai)" fill-rule="evenodd"/><g filter="url(#o)"><path d="m21.006 12.8952-.5233-.8635 1.125-.6562c.9687 1.3125 1.3437 2.2969.7343 2.875-.4875.4625-2.8698 1.7239-4 2.2969l2.503-2.4141c.3364-.3244.4032-.8384.161-1.2381z" fill="url(#aj)"/></g><path clip-rule="evenodd" d="m8.85143 13.4482c.05881.1842-.04279.3811-.22693.4399-.28844.0922-.37727.3293-.40574.4574-.04194.1887-.22891.3077-.41761.2657-.18869-.0419-.30766-.2289-.26572-.4176.04967-.2234.23499-.7675.87611-.9723.18414-.0588.38108.0428.43989.2269z" fill="url(#ak)" fill-rule="evenodd"/><path clip-rule="evenodd" d="m9.08813 13.707c.0666.0804.11329.2422 0 .4024-.15152.1256-.34263.3889-.37246.5935-.02789.1912-.20557.3237-.39684.2958-.19128-.0279-.32373-.2056-.29583-.3968.01875-.1286.07671-.2847.15466-.4289.07977-.1475.1966-.3126.35391-.443.14881-.1233.4332-.1718.55656-.023z" fill="url(#al)" fill-rule="evenodd"/><g filter="url(#p)"><circle cx="9.24" cy="13.424" fill="url(#am)" r=".885"/></g><path d="m10.8209 8.35128c-.1985-.13974-.2005-.29772-.1317-.64812.0503-.25602-.0104-.44817-.0563-.53047l.7936.9902c-.1094.21875-.4071.32813-.6056.18839z" fill="url(#an)"/><g filter="url(#q)"><path d="m11.9794 9.11233c-.7636-.74114-1.3895-1.92676-1.6406-2.38989l3.439-2.03768 1.8148 1.67694c-.0769.33622-.3726 1.18284-.9397 1.8796-.7088.87094-1.6714 1.8435-2.6735.87103z" fill="url(#ao)"/><path d="m11.9794 9.11233c-.7636-.74114-1.3895-1.92676-1.6406-2.38989l3.439-2.03768 1.8148 1.67694c-.0769.33622-.3726 1.18284-.9397 1.8796-.7088.87094-1.6714 1.8435-2.6735.87103z" fill="url(#ap)"/></g><path d="m11.8784 6.44592c-.2264-.11317-.4507-.07874-.5801-.04235.2668.16846.3019.40217.4588.39604.2046-.008.3097-.25948.1213-.35369z" fill="#414141"/><path clip-rule="evenodd" d="m11.8771 8.58776c-.0322-.05529-.0135-.1262.0418-.15839.1016-.05911.2364-.20627.312-.5181.0151-.06218.0777-.10036.1399-.08529.0621.01507.1003.07769.0852.13987-.0862.35598-.2509.56499-.4205.66374-.0553.03219-.1262.01346-.1584-.04183z" fill="#87004d" fill-rule="evenodd"/><path d="m11.0191 6.69865c-.0715.22491.0608.45195.1316.56662l.8823-.51c-.5141-.59088-.9167-.36219-1.0139-.05662z" fill="#fff"/><path d="m11.6455 6.9791c-.0089-.01609-.0184-.03215-.0284-.04812-.1553-.24747-.3894-.38022-.5227-.29651-.1334.08372-.1156.35221.0398.59968.0063.00999.0127.0198.0192.02941z" fill="url(#aq)"/><path d="m11.4567 7.08831c-.0117-.03031-.0271-.06132-.0463-.0918-.0864-.13763-.215-.21242-.2873-.16705-.0722.04537-.0608.19372.0256.33134.017.02712.0357.05181.0553.07361z" fill="#414141"/><circle cx="11.132" cy="6.807" fill="#dfdfdf" r=".084" transform="matrix(.44717533 -.89444632 .89444632 .44717533 .065782 13.720033)"/><g filter="url(#r)"><path d="m14.4824 7.18537-.9682-1.06126-.5226-.91952 2.236-1.04925c.0621.09857.3152.33377.8304.48606.6441.19036.9318.64808 1.0573.88302.1256.23494.4943 1.3003-.644 1.95657-.9105.52502-1.7053.02168-1.9889-.29562z" fill="url(#ar)"/></g><circle cx="13.47" cy="5.792" fill="url(#as)" r=".648" transform="matrix(.44717533 -.89444632 .89444632 .44717533 2.266133 15.250265)"/><path clip-rule="evenodd" d="m12.7257 5.07583c.1466-.06428.3176.00245.3819.14905l1.4503 3.30739c.0643.14661-.0024.31757-.149.38185-.1466.06429-.3176-.00244-.3819-.14904l-1.4503-3.30739c-.0643-.14661.0024-.31757.149-.38186z" fill="#4d3771" fill-rule="evenodd"/><path clip-rule="evenodd" d="m12.7257 5.07583c.1466-.06428.3176.00245.3819.14905l1.4503 3.30739c.0643.14661-.0024.31757-.149.38185-.1466.06429-.3176-.00244-.3819-.14904l-1.4503-3.30739c-.0643-.14661.0024-.31757.149-.38186z" fill="url(#at)" fill-rule="evenodd"/><path clip-rule="evenodd" d="m12.7257 5.07583c.1466-.06428.3176.00245.3819.14905l1.4503 3.30739c.0643.14661-.0024.31757-.149.38185-.1466.06429-.3176-.00244-.3819-.14904l-1.4503-3.30739c-.0643-.14661.0024-.31757.149-.38186z" fill="url(#au)" fill-rule="evenodd"/><path clip-rule="evenodd" d="m12.7257 5.07583c.1466-.06428.3176.00245.3819.14905l1.4503 3.30739c.0643.14661-.0024.31757-.149.38185-.1466.06429-.3176-.00244-.3819-.14904l-1.4503-3.30739c-.0643-.14661.0024-.31757.149-.38186z" fill="url(#av)" fill-rule="evenodd"/><g filter="url(#s)"><path d="m15.0732 4.43964-4.6765 2.36537c-.1181.05976-.2612.03113-.3347-.07903-.16015-.24027-.38334-.64562-.55882-1.12778-.52261-1.43598.47998-2.23437.61162-2.35757.1903-.17824.7149-.6198 1.839-1.02493 1.319-.4754 2.1509.11333 2.556.66017.2548.34391.5321.85931.6932 1.2067.0624.13449.0025.29016-.1298.35707z" fill="url(#aw)"/></g><g filter="url(#t)"><path d="m11.3216 5.15525c-.0843-.17395-.0116-.38329.1624-.46758l1.2956-.62783c.1739-.08429.3833-.0116.4676.16235s.0116.38329-.1624.46758l-1.2956.62782c-.174.08429-.3833.01161-.4676-.16234z" fill="url(#ax)"/></g></svg>