<svg fill="none" height="32" viewBox="0 0 32 32" width="32" xmlns="http://www.w3.org/2000/svg" xmlns:xlink="http://www.w3.org/1999/xlink"><filter id="a" color-interpolation-filters="sRGB" filterUnits="userSpaceOnUse" height="9.938" width="9.938" x="2.059" y="20.619"><feFlood flood-opacity="0" result="BackgroundImageFix"/><feBlend in="SourceGraphic" in2="BackgroundImageFix" mode="normal" result="shape"/><feColorMatrix in="SourceAlpha" result="hardAlpha" type="matrix" values="0 0 0 0 0 0 0 0 0 0 0 0 0 0 0 0 0 0 127 0"/><feOffset/><feGaussianBlur stdDeviation=".25"/><feComposite in2="hardAlpha" k2="-1" k3="1" operator="arithmetic"/><feColorMatrix type="matrix" values="0 0 0 0 0.227451 0 0 0 0 0.156863 0 0 0 0 0.27451 0 0 0 1 0"/><feBlend in2="shape" mode="normal" result="effect1_innerShadow_7167_6550"/></filter><filter id="b" color-interpolation-filters="sRGB" filterUnits="userSpaceOnUse" height="10.409" width="10.409" x="1.823" y="20.384"><feFlood flood-opacity="0" result="BackgroundImageFix"/><feBlend in="SourceGraphic" in2="BackgroundImageFix" mode="normal" result="shape"/><feGaussianBlur result="effect1_foregroundBlur_7167_6550" stdDeviation=".25"/></filter><filter id="c" color-interpolation-filters="sRGB" filterUnits="userSpaceOnUse" height="10.037" width="10.037" x="20.004" y="20.519"><feFlood flood-opacity="0" result="BackgroundImageFix"/><feBlend in="SourceGraphic" in2="BackgroundImageFix" mode="normal" result="shape"/><feColorMatrix in="SourceAlpha" result="hardAlpha" type="matrix" values="0 0 0 0 0 0 0 0 0 0 0 0 0 0 0 0 0 0 127 0"/><feOffset dx=".1" dy="-.1"/><feGaussianBlur stdDeviation=".2"/><feComposite in2="hardAlpha" k2="-1" k3="1" operator="arithmetic"/><feColorMatrix type="matrix" values="0 0 0 0 0.152941 0 0 0 0 0.0862745 0 0 0 0 0.164706 0 0 0 1 0"/><feBlend in2="shape" mode="normal" result="effect1_innerShadow_7167_6550"/></filter><filter id="d" color-interpolation-filters="sRGB" filterUnits="userSpaceOnUse" height="4.077" width="9.188" x="16.637" y="23.475"><feFlood flood-opacity="0" result="BackgroundImageFix"/><feBlend in="SourceGraphic" in2="BackgroundImageFix" mode="normal" result="shape"/><feColorMatrix in="SourceAlpha" result="hardAlpha" type="matrix" values="0 0 0 0 0 0 0 0 0 0 0 0 0 0 0 0 0 0 127 0"/><feOffset dx=".25" dy="-.25"/><feGaussianBlur stdDeviation=".25"/><feComposite in2="hardAlpha" k2="-1" k3="1" operator="arithmetic"/><feColorMatrix type="matrix" values="0 0 0 0 0.701961 0 0 0 0 0.341176 0 0 0 0 0.254902 0 0 0 1 0"/><feBlend in2="shape" mode="normal" result="effect1_innerShadow_7167_6550"/><feColorMatrix in="SourceAlpha" result="hardAlpha" type="matrix" values="0 0 0 0 0 0 0 0 0 0 0 0 0 0 0 0 0 0 127 0"/><feOffset dx=".25" dy=".1"/><feGaussianBlur stdDeviation=".25"/><feComposite in2="hardAlpha" k2="-1" k3="1" operator="arithmetic"/><feColorMatrix type="matrix" values="0 0 0 0 0.894118 0 0 0 0 0.490196 0 0 0 0 0.196078 0 0 0 1 0"/><feBlend in2="effect1_innerShadow_7167_6550" mode="normal" result="effect2_innerShadow_7167_6550"/></filter><filter id="e" color-interpolation-filters="sRGB" filterUnits="userSpaceOnUse" height="2.181" width="4.034" x="13.499" y="23.687"><feFlood flood-opacity="0" result="BackgroundImageFix"/><feBlend in="SourceGraphic" in2="BackgroundImageFix" mode="normal" result="shape"/><feColorMatrix in="SourceAlpha" result="hardAlpha" type="matrix" values="0 0 0 0 0 0 0 0 0 0 0 0 0 0 0 0 0 0 127 0"/><feOffset dx=".1" dy="-.15"/><feGaussianBlur stdDeviation=".125"/><feComposite in2="hardAlpha" k2="-1" k3="1" operator="arithmetic"/><feColorMatrix type="matrix" values="0 0 0 0 0.27451 0 0 0 0 0.188235 0 0 0 0 0.52549 0 0 0 1 0"/><feBlend in2="shape" mode="normal" result="effect1_innerShadow_7167_6550"/></filter><filter id="f" color-interpolation-filters="sRGB" filterUnits="userSpaceOnUse" height="8.62" width="3.572" x="15.172" y="16.097"><feFlood flood-opacity="0" result="BackgroundImageFix"/><feBlend in="SourceGraphic" in2="BackgroundImageFix" mode="normal" result="shape"/><feColorMatrix in="SourceAlpha" result="hardAlpha" type="matrix" values="0 0 0 0 0 0 0 0 0 0 0 0 0 0 0 0 0 0 127 0"/><feOffset dx=".1" dy=".2"/><feGaussianBlur stdDeviation=".1"/><feComposite in2="hardAlpha" k2="-1" k3="1" operator="arithmetic"/><feColorMatrix type="matrix" values="0 0 0 0 0.890196 0 0 0 0 0.654902 0 0 0 0 0.54902 0 0 0 1 0"/><feBlend in2="shape" mode="normal" result="effect1_innerShadow_7167_6550"/></filter><filter id="g" color-interpolation-filters="sRGB" filterUnits="userSpaceOnUse" height="7.67" width="6.668" x="16.551" y="10.963"><feFlood flood-opacity="0" result="BackgroundImageFix"/><feBlend in="SourceGraphic" in2="BackgroundImageFix" mode="normal" result="shape"/><feColorMatrix in="SourceAlpha" result="hardAlpha" type="matrix" values="0 0 0 0 0 0 0 0 0 0 0 0 0 0 0 0 0 0 127 0"/><feOffset dx=".25" dy="-.25"/><feGaussianBlur stdDeviation=".625"/><feComposite in2="hardAlpha" k2="-1" k3="1" operator="arithmetic"/><feColorMatrix type="matrix" values="0 0 0 0 0.482353 0 0 0 0 0.360784 0 0 0 0 0.556863 0 0 0 1 0"/><feBlend in2="shape" mode="normal" result="effect1_innerShadow_7167_6550"/></filter><filter id="h" color-interpolation-filters="sRGB" filterUnits="userSpaceOnUse" height="5.869" width="7.971" x="15.009" y="7.867"><feFlood flood-opacity="0" result="BackgroundImageFix"/><feBlend in="SourceGraphic" in2="BackgroundImageFix" mode="normal" result="shape"/><feColorMatrix in="SourceAlpha" result="hardAlpha" type="matrix" values="0 0 0 0 0 0 0 0 0 0 0 0 0 0 0 0 0 0 127 0"/><feOffset dx="1"/><feGaussianBlur stdDeviation=".75"/><feComposite in2="hardAlpha" k2="-1" k3="1" operator="arithmetic"/><feColorMatrix type="matrix" values="0 0 0 0 0.85098 0 0 0 0 0.286275 0 0 0 0 0.317647 0 0 0 1 0"/><feBlend in2="shape" mode="normal" result="effect1_innerShadow_7167_6550"/></filter><filter id="i" color-interpolation-filters="sRGB" filterUnits="userSpaceOnUse" height="4.259" width="6.005" x="6.906" y="11.646"><feFlood flood-opacity="0" result="BackgroundImageFix"/><feBlend in="SourceGraphic" in2="BackgroundImageFix" mode="normal" result="shape"/><feColorMatrix in="SourceAlpha" result="hardAlpha" type="matrix" values="0 0 0 0 0 0 0 0 0 0 0 0 0 0 0 0 0 0 127 0"/><feOffset dx="-.25"/><feGaussianBlur stdDeviation=".5"/><feComposite in2="hardAlpha" k2="-1" k3="1" operator="arithmetic"/><feColorMatrix type="matrix" values="0 0 0 0 0.576471 0 0 0 0 0.505882 0 0 0 0 0.529412 0 0 0 1 0"/><feBlend in2="shape" mode="normal" result="effect1_innerShadow_7167_6550"/></filter><filter id="j" color-interpolation-filters="sRGB" filterUnits="userSpaceOnUse" height="2.915" width="3.137" x="6.906" y="13.24"><feFlood flood-opacity="0" result="BackgroundImageFix"/><feBlend in="SourceGraphic" in2="BackgroundImageFix" mode="normal" result="shape"/><feColorMatrix in="SourceAlpha" result="hardAlpha" type="matrix" values="0 0 0 0 0 0 0 0 0 0 0 0 0 0 0 0 0 0 127 0"/><feOffset dx="-.25" dy=".25"/><feGaussianBlur stdDeviation=".25"/><feComposite in2="hardAlpha" k2="-1" k3="1" operator="arithmetic"/><feColorMatrix type="matrix" values="0 0 0 0 0.164706 0 0 0 0 0.117647 0 0 0 0 0.231373 0 0 0 1 0"/><feBlend in2="shape" mode="normal" result="effect1_innerShadow_7167_6550"/></filter><filter id="k" color-interpolation-filters="sRGB" filterUnits="userSpaceOnUse" height="6.937" width="10.272" x="7.782" y="8.202"><feFlood flood-opacity="0" result="BackgroundImageFix"/><feBlend in="SourceGraphic" in2="BackgroundImageFix" mode="normal" result="shape"/><feColorMatrix in="SourceAlpha" result="hardAlpha" type="matrix" values="0 0 0 0 0 0 0 0 0 0 0 0 0 0 0 0 0 0 127 0"/><feOffset dx=".5" dy="-.5"/><feGaussianBlur stdDeviation=".375"/><feComposite in2="hardAlpha" k2="-1" k3="1" operator="arithmetic"/><feColorMatrix type="matrix" values="0 0 0 0 0.745098 0 0 0 0 0.478431 0 0 0 0 0.521569 0 0 0 1 0"/><feBlend in2="shape" mode="normal" result="effect1_innerShadow_7167_6550"/></filter><filter id="l" color-interpolation-filters="sRGB" filterUnits="userSpaceOnUse" height="6.372" width="5.496" x="17.697" y="11.387"><feFlood flood-opacity="0" result="BackgroundImageFix"/><feBlend in="SourceGraphic" in2="BackgroundImageFix" mode="normal" result="shape"/><feGaussianBlur result="effect1_foregroundBlur_7167_6550" stdDeviation=".3"/></filter><filter id="m" color-interpolation-filters="sRGB" filterUnits="userSpaceOnUse" height="2.969" width="2.969" x="7.711" y="12.551"><feFlood flood-opacity="0" result="BackgroundImageFix"/><feBlend in="SourceGraphic" in2="BackgroundImageFix" mode="normal" result="shape"/><feGaussianBlur result="effect1_foregroundBlur_7167_6550" stdDeviation=".3"/></filter><filter id="n" color-interpolation-filters="sRGB" filterUnits="userSpaceOnUse" height="5.095" width="5.594" x="10.246" y="5.238"><feFlood flood-opacity="0" result="BackgroundImageFix"/><feBlend in="SourceGraphic" in2="BackgroundImageFix" mode="normal" result="shape"/><feColorMatrix in="SourceAlpha" result="hardAlpha" type="matrix" values="0 0 0 0 0 0 0 0 0 0 0 0 0 0 0 0 0 0 127 0"/><feOffset dx=".25" dy=".15"/><feGaussianBlur stdDeviation=".15"/><feComposite in2="hardAlpha" k2="-1" k3="1" operator="arithmetic"/><feColorMatrix type="matrix" values="0 0 0 0 0.909804 0 0 0 0 0.670588 0 0 0 0 0.541176 0 0 0 1 0"/><feBlend in2="shape" mode="normal" result="effect1_innerShadow_7167_6550"/></filter><filter id="o" color-interpolation-filters="sRGB" filterUnits="userSpaceOnUse" height="2.704" width="2.879" x="13.345" y="4.542"><feFlood flood-opacity="0" result="BackgroundImageFix"/><feBlend in="SourceGraphic" in2="BackgroundImageFix" mode="normal" result="shape"/><feColorMatrix in="SourceAlpha" result="hardAlpha" type="matrix" values="0 0 0 0 0 0 0 0 0 0 0 0 0 0 0 0 0 0 127 0"/><feOffset dx=".25" dy="-.25"/><feGaussianBlur stdDeviation=".25"/><feComposite in2="hardAlpha" k2="-1" k3="1" operator="arithmetic"/><feColorMatrix type="matrix" values="0 0 0 0 0.901961 0 0 0 0 0.67451 0 0 0 0 0.505882 0 0 0 1 0"/><feBlend in2="shape" mode="normal" result="effect1_innerShadow_7167_6550"/></filter><filter id="p" color-interpolation-filters="sRGB" filterUnits="userSpaceOnUse" height="5.093" width="5.971" x="9.198" y="2.414"><feFlood flood-opacity="0" result="BackgroundImageFix"/><feBlend in="SourceGraphic" in2="BackgroundImageFix" mode="normal" result="shape"/><feColorMatrix in="SourceAlpha" result="hardAlpha" type="matrix" values="0 0 0 0 0 0 0 0 0 0 0 0 0 0 0 0 0 0 127 0"/><feOffset dy="-.15"/><feGaussianBlur stdDeviation=".3"/><feComposite in2="hardAlpha" k2="-1" k3="1" operator="arithmetic"/><feColorMatrix type="matrix" values="0 0 0 0 0.305882 0 0 0 0 0.556863 0 0 0 0 0.882353 0 0 0 1 0"/><feBlend in2="shape" mode="normal" result="effect1_innerShadow_7167_6550"/></filter><filter id="q" color-interpolation-filters="sRGB" filterUnits="userSpaceOnUse" height="1.382" width="2.019" x="11.173" y="4.585"><feFlood flood-opacity="0" result="BackgroundImageFix"/><feBlend in="SourceGraphic" in2="BackgroundImageFix" mode="normal" result="shape"/><feColorMatrix in="SourceAlpha" result="hardAlpha" type="matrix" values="0 0 0 0 0 0 0 0 0 0 0 0 0 0 0 0 0 0 127 0"/><feOffset/><feGaussianBlur stdDeviation=".25"/><feComposite in2="hardAlpha" k2="-1" k3="1" operator="arithmetic"/><feColorMatrix type="matrix" values="0 0 0 0 0.137255 0 0 0 0 0.482353 0 0 0 0 0.796078 0 0 0 1 0"/><feBlend in2="shape" mode="normal" result="effect1_innerShadow_7167_6550"/></filter><radialGradient id="r" cx="0" cy="0" gradientTransform="matrix(-5.87497859 7.81251861 -7.54119471 -5.67094425 10.2695 21.6739)" gradientUnits="userSpaceOnUse" r="1"><stop offset="0" stop-color="#32295b"/><stop offset="1" stop-color="#3c2150"/></radialGradient><linearGradient id="s" gradientUnits="userSpaceOnUse" x1="9.238" x2="3.207" y1="21.924" y2="28.955"><stop offset="0" stop-color="#302a5b"/><stop offset="1" stop-color="#302a5b" stop-opacity="0"/></linearGradient><linearGradient id="t" gradientUnits="userSpaceOnUse" x1="17.707" x2="18.676" y1="21.127" y2="20.121"><stop offset=".573" stop-color="#bb7774"/><stop offset="1" stop-color="#c6957f"/></linearGradient><linearGradient id="u" gradientUnits="userSpaceOnUse" x1="22.223" x2="17.629" y1="22.695" y2="22.237"><stop offset=".891" stop-color="#615f76" stop-opacity="0"/><stop offset="1" stop-color="#615f76"/></linearGradient><radialGradient id="v" cx="0" cy="0" gradientTransform="matrix(-1.53126999 2.45311583 -.44454279 -.27748997 20.3008 21.5648)" gradientUnits="userSpaceOnUse" r="1"><stop offset="0" stop-color="#5d5c7e"/><stop offset="1" stop-color="#5d5c7e" stop-opacity="0"/></radialGradient><linearGradient id="w" gradientUnits="userSpaceOnUse" x1="11.504" x2="10.629" y1="15.518" y2="15.237"><stop offset="0" stop-color="#bfa8c7"/><stop offset="1" stop-color="#908590"/></linearGradient><radialGradient id="x" cx="0" cy="0" gradientTransform="matrix(1.07812374 -2.67187294 .30151132 .12166241 10.582 17.2053)" gradientUnits="userSpaceOnUse" r="1"><stop offset="0" stop-color="#baa3b9"/><stop offset="1" stop-color="#baa3b9" stop-opacity="0"/></radialGradient><linearGradient id="y" gradientUnits="userSpaceOnUse" x1="9.738" x2="8.457" y1="20.471" y2="19.986"><stop offset=".146" stop-color="#d4385b"/><stop offset="1" stop-color="#973c50"/></linearGradient><radialGradient id="z" cx="0" cy="0" gradientTransform="matrix(6.71875315 4.82812728 -1.31598798 1.83131012 10.1758 19.1273)" gradientUnits="userSpaceOnUse" r="1"><stop offset="0" stop-color="#ce3d5e"/><stop offset="1" stop-color="#932145"/></radialGradient><linearGradient id="A" gradientUnits="userSpaceOnUse" x1="12.957" x2="13.348" y1="22.518" y2="22.018"><stop offset="0" stop-color="#96275e"/><stop offset="1" stop-color="#96275e" stop-opacity="0"/><stop offset="1" stop-color="#9c2649" stop-opacity="0"/></linearGradient><radialGradient id="B" cx="0" cy="0" gradientTransform="matrix(-6.86715328 7.00003073 -6.75692924 -6.62866645 29.207 22.4865)" gradientUnits="userSpaceOnUse" r="1"><stop offset=".427" stop-color="#373c67"/><stop offset="1" stop-color="#38144f"/></radialGradient><linearGradient id="C" gradientUnits="userSpaceOnUse" x1="20.004" x2="27.759" y1="28.029" y2="25.588"><stop offset="0" stop-color="#352542"/><stop offset="1" stop-color="#352542" stop-opacity="0"/></linearGradient><linearGradient id="D" gradientUnits="userSpaceOnUse" x1="23.785" x2="22.723" y1="22.455" y2="23.205"><stop offset="0" stop-color="#fd5a60"/><stop offset="1" stop-color="#af253c"/></linearGradient><linearGradient id="E" gradientUnits="userSpaceOnUse" x1="19.582" x2="18.566" y1="21.229" y2="21.08"><stop offset="0" stop-color="#e5435f"/><stop offset="1" stop-color="#a62f2f"/></linearGradient><radialGradient id="F" cx="0" cy="0" gradientTransform="matrix(-1.0937525 4.48437198 -.42827913 -.10445863 20.1133 18.0334)" gradientUnits="userSpaceOnUse" r="1"><stop offset="0" stop-color="#e44354"/><stop offset="1" stop-color="#e44354" stop-opacity="0"/></radialGradient><radialGradient id="G" cx="0" cy="0" gradientTransform="matrix(-.03125031 -1.06250053 1.65481439 -.04867146 18.457 24.3615)" gradientUnits="userSpaceOnUse" r="1"><stop offset="0" stop-color="#ac2735"/><stop offset="1" stop-color="#ac2735" stop-opacity="0"/></radialGradient><radialGradient id="H" cx="0" cy="0" gradientTransform="matrix(-.28124699 3.99267664 -5.05378734 -.35599238 15.3704 15.7985)" gradientUnits="userSpaceOnUse" r="1"><stop offset=".321" stop-color="#b57d68"/><stop offset=".868" stop-color="#bf7a7b"/></radialGradient><radialGradient id="I" cx="0" cy="0" gradientTransform="matrix(1.21875062 .45312581 -.35000106 .94138095 15.7383 17.7677)" gradientUnits="userSpaceOnUse" r="1"><stop offset=".346" stop-color="#ad6e5f"/><stop offset="1" stop-color="#b57b69" stop-opacity="0"/></radialGradient><radialGradient id="J" cx="0" cy="0" gradientTransform="matrix(-2.62500036 -.59373614 .79114225 -3.49776366 15.6985 17.8297)" gradientUnits="userSpaceOnUse" r="1"><stop offset=".738" stop-color="#dca28a" stop-opacity="0"/><stop offset="1" stop-color="#dca28a"/></radialGradient><radialGradient id="K" cx="0" cy="0" gradientTransform="matrix(-2.31251357 1.68748882 -.72630839 -.99532394 18.457 14.4552)" gradientUnits="userSpaceOnUse" r="1"><stop offset=".255" stop-color="#4f414e"/><stop offset="1" stop-color="#564a5a"/></radialGradient><linearGradient id="L" gradientUnits="userSpaceOnUse" x1="16.59" x2="16.957" y1="14.354" y2="14.885"><stop offset="0" stop-color="#72696b"/><stop offset="1" stop-color="#72696b" stop-opacity="0"/></linearGradient><linearGradient id="M" gradientUnits="userSpaceOnUse" x1="25.301" x2="16.637" y1="25.588" y2="25.588"><stop offset="0" stop-color="#f7b14e"/><stop offset="1" stop-color="#e8774d"/></linearGradient><radialGradient id="N" cx="0" cy="0" gradientTransform="matrix(-.867187 0 0 -.96875 25.5742 25.424)" gradientUnits="userSpaceOnUse" r="1"><stop offset="0" stop-color="#ffd359"/><stop offset="1" stop-color="#ffd359" stop-opacity="0"/></radialGradient><radialGradient id="O" cx="0" cy="0" gradientTransform="matrix(1.56250158 -.65625048 .66796813 1.59040076 17.6758 25.7833)" gradientUnits="userSpaceOnUse" r="1"><stop offset=".47" stop-color="#d8cfe2"/><stop offset="1" stop-color="#c5bfcb"/></radialGradient><radialGradient id="P" cx="0" cy="0" gradientTransform="matrix(-1.56250016 .85938242 -.85938242 -1.56250016 18.8789 25.3146)" gradientUnits="userSpaceOnUse" r="1"><stop offset=".632" stop-color="#e2dfe5" stop-opacity="0"/><stop offset="1" stop-color="#e2dfe5"/></radialGradient><linearGradient id="Q" gradientUnits="userSpaceOnUse" x1="17.434" x2="16.676" y1="25.455" y2="25.455"><stop offset="0" stop-color="#605c92"/><stop offset="1" stop-color="#605c92" stop-opacity="0"/></linearGradient><radialGradient id="R" cx="0" cy="0" gradientTransform="matrix(-1.10939185 -1.99999616 6.41983308 -3.56106207 16.2539 26.1271)" gradientUnits="userSpaceOnUse" r="1"><stop offset=".301" stop-color="#5c4f86" stop-opacity="0"/><stop offset=".943" stop-color="#493b63"/></radialGradient><linearGradient id="S" gradientUnits="userSpaceOnUse" x1="15.52" x2="13.475" y1="9.987" y2="10.069"><stop offset="0" stop-color="#e1ae8c"/><stop offset="1" stop-color="#b66c66"/></linearGradient><radialGradient id="T" cx="0" cy="0" gradientTransform="matrix(.03131881 1.42110493 -.52543542 .01157973 14.9336 9.50841)" gradientUnits="userSpaceOnUse" r="1"><stop offset=".18" stop-color="#e0a588"/><stop offset="1" stop-color="#e0a588" stop-opacity="0"/></radialGradient><radialGradient id="U" cx="0" cy="0" gradientTransform="matrix(-.74999348 -8.78125028 2.5288134 -.21598218 17.8945 24.5178)" gradientUnits="userSpaceOnUse" r="1"><stop offset=".122" stop-color="#e2ae96"/><stop offset="1" stop-color="#d29a7d"/></radialGradient><radialGradient id="V" cx="0" cy="0" gradientTransform="matrix(-1.68750309 .06249727 -.11168168 -3.01554262 18.8008 18.2365)" gradientUnits="userSpaceOnUse" r="1"><stop offset=".284" stop-color="#b7707a"/><stop offset="1" stop-color="#b7707a" stop-opacity="0"/></radialGradient><radialGradient id="W" cx="0" cy="0" gradientTransform="matrix(5.12499803 -4.92969106 2.61319214 2.71672289 16.7695 16.1427)" gradientUnits="userSpaceOnUse" r="1"><stop offset=".148" stop-color="#726b71"/><stop offset="1" stop-color="#a3a1a2"/></radialGradient><radialGradient id="X" cx="0" cy="0" gradientTransform="matrix(2.59374628 -.09374984 .01804196 .49916105 18.1914 14.424)" gradientUnits="userSpaceOnUse" r="1"><stop offset=".22" stop-color="#736e75"/><stop offset="1" stop-color="#736e75" stop-opacity="0"/></radialGradient><radialGradient id="Y" cx="0" cy="0" gradientTransform="matrix(-3.49999043 -4.06251234 1.7090785 -1.47242836 21.082 12.1115)" gradientUnits="userSpaceOnUse" r="1"><stop offset="0" stop-color="#ff8e59"/><stop offset="1" stop-color="#ff6030"/></radialGradient><radialGradient id="Z" cx="0" cy="0" gradientTransform="matrix(3.25232 0 0 1.29925 10.0328 13.549)" gradientUnits="userSpaceOnUse" r="1"><stop offset=".254" stop-color="#8c5ea8"/><stop offset="1" stop-color="#8c5ea8" stop-opacity="0"/></radialGradient><radialGradient id="aa" cx="0" cy="0" gradientTransform="matrix(-1.03442913 .40624249 -.45267741 -1.15266796 17.554 9.36151)" gradientUnits="userSpaceOnUse" r="1"><stop offset="0" stop-color="#ebbca0"/><stop offset="1" stop-color="#ebbca0" stop-opacity="0"/></radialGradient><linearGradient id="ab"><stop offset=".686" stop-color="#c38a80"/><stop offset="1" stop-color="#bc7c7f"/></linearGradient><radialGradient id="ac" cx="0" cy="0" gradientTransform="matrix(1.70877337 .92891613 -1.02416999 1.88399613 6.98336 13.3789)" gradientUnits="userSpaceOnUse" r="1" xlink:href="#ab"/><linearGradient id="ad"><stop offset=".68" stop-color="#d29a8c" stop-opacity="0"/><stop offset="1" stop-color="#d29a8c"/></linearGradient><radialGradient id="ae" cx="0" cy="0" gradientTransform="matrix(-1.31056149 -.2410769 .37304097 -2.02795512 8.39609 14.4895)" gradientUnits="userSpaceOnUse" r="1" xlink:href="#ad"/><radialGradient id="af" cx="0" cy="0" gradientTransform="matrix(5.49999736 -1.43750185 2.00474707 7.67032308 17.332 15.299)" gradientUnits="userSpaceOnUse" r="1"><stop offset=".625" stop-color="#afa6a9" stop-opacity="0"/><stop offset=".905" stop-color="#afa6a9"/></radialGradient><radialGradient id="ag" cx="0" cy="0" gradientTransform="matrix(1.04758317 .75841571 -1.02541815 1.41638786 7.35916 14.0616)" gradientUnits="userSpaceOnUse" r="1" xlink:href="#ab"/><radialGradient id="ah" cx="0" cy="0" gradientTransform="matrix(-.81595845 -.17382436 .37209174 -1.74665622 8.21615 14.9852)" gradientUnits="userSpaceOnUse" r="1" xlink:href="#ad"/><radialGradient id="ai" cx="0" cy="0" gradientTransform="matrix(1.01588602 .59883734 -.8244887 1.39868789 7.69216 14.3698)" gradientUnits="userSpaceOnUse" r="1" xlink:href="#ab"/><radialGradient id="aj" cx="0" cy="0" gradientTransform="matrix(-.74999978 -.07812679 .17331623 -1.66379726 8.55322 15.142)" gradientUnits="userSpaceOnUse" r="1" xlink:href="#ad"/><radialGradient id="ak" cx="0" cy="0" gradientTransform="matrix(.67082942 .45712858 -.35871452 .52640824 10.7379 8.33085)" gradientUnits="userSpaceOnUse" r="1"><stop offset=".391" stop-color="#cc9778"/><stop offset="1" stop-color="#d4997b"/></radialGradient><radialGradient id="al" cx="0" cy="0" gradientTransform="matrix(3.12842152 -1.17550377 1.2191862 3.24467556 11.4916 8.4498)" gradientUnits="userSpaceOnUse" r="1"><stop offset=".164" stop-color="#d19f82"/><stop offset="1" stop-color="#cf9388"/></radialGradient><radialGradient id="am" cx="0" cy="0" gradientTransform="matrix(1.11633673 1.56906301 -1.26612172 .90080396 12.9988 5.6503)" gradientUnits="userSpaceOnUse" r="1"><stop offset="0" stop-color="#a46f70"/><stop offset="1" stop-color="#a46f70" stop-opacity="0"/></radialGradient><radialGradient id="an" cx="0" cy="0" gradientTransform="matrix(.16955776 2.53521623 -3.19519182 .21369758 12.7946 7.53922)" gradientUnits="userSpaceOnUse" r="1"><stop offset=".571" stop-color="#ca9081" stop-opacity="0"/><stop offset="1" stop-color="#bd7678"/></radialGradient><radialGradient id="ao" cx="0" cy="0" gradientTransform="matrix(-1.65626243 1.68748562 -1.87848739 -1.84373013 14.8391 6.38693)" gradientUnits="userSpaceOnUse" r="1"><stop offset=".368" stop-color="#d59e88"/><stop offset="1" stop-color="#d59e88" stop-opacity="0"/></radialGradient><radialGradient id="ap" cx="0" cy="0" gradientTransform="matrix(-.914063 .46094577 -.07559176 -.14989969 15.4172 6.11339)" gradientUnits="userSpaceOnUse" r="1"><stop offset="0" stop-color="#f5c4a4"/><stop offset="1" stop-color="#ffe6b2" stop-opacity="0"/></radialGradient><linearGradient id="aq" gradientUnits="userSpaceOnUse" x1="11.076" x2="11.316" y1="7.816" y2="7.671"><stop offset=".242" stop-color="#5f5451"/><stop offset=".667" stop-color="#383838"/></linearGradient><radialGradient id="ar" cx="0" cy="0" gradientTransform="matrix(.10614433 .95990723 -.95990723 .10614433 13.4153 6.18589)" gradientUnits="userSpaceOnUse" r="1"><stop offset=".392" stop-color="#c3958d"/><stop offset="1" stop-color="#bd7475"/></radialGradient><radialGradient id="as" cx="0" cy="0" gradientTransform="matrix(-.51143176 -.46034978 .46034978 -.51143176 14.0341 6.78236)" gradientUnits="userSpaceOnUse" r="1"><stop offset="0" stop-color="#dcac99"/><stop offset="1" stop-color="#dcac99" stop-opacity="0"/></radialGradient><linearGradient id="at" gradientUnits="userSpaceOnUse" x1="13.737" x2="13.314" y1="7.183" y2="7.402"><stop offset="0" stop-color="#37234c"/><stop offset="1" stop-color="#37234c" stop-opacity="0"/></linearGradient><linearGradient id="au" gradientUnits="userSpaceOnUse" x1="13.593" x2="14.123" y1="9.014" y2="8.693"><stop offset=".324" stop-color="#72687c"/><stop offset="1" stop-color="#72687c" stop-opacity="0"/></linearGradient><radialGradient id="av" cx="0" cy="0" gradientTransform="matrix(.19002649 -.08883056 .52068385 1.11384781 13.3631 6.99633)" gradientUnits="userSpaceOnUse" r="1"><stop offset="0" stop-color="#564975"/><stop offset="1" stop-color="#4d3a6e" stop-opacity="0"/></radialGradient><radialGradient id="aw" cx="0" cy="0" gradientTransform="matrix(1.01408087 2.17411891 -2.55536616 1.19190718 11.8268 3.8099)" gradientUnits="userSpaceOnUse" r="1"><stop offset=".045" stop-color="#4fbdff"/><stop offset=".919" stop-color="#52abe4"/></radialGradient><radialGradient id="ax" cx="0" cy="0" gradientTransform="matrix(-.29857827 -.62098218 1.59244779 -.76567464 12.3368 5.58221)" gradientUnits="userSpaceOnUse" r="1"><stop offset=".218" stop-color="#4b89d0"/><stop offset="1" stop-color="#337bcd"/></radialGradient><g filter="url(#a)"><path clip-rule="evenodd" d="m7.02734 21.6193c-2.19188 0-3.96875 1.7768-3.96875 3.9687s1.77687 3.9688 3.96875 3.9688 3.96876-1.7769 3.96876-3.9688-1.77688-3.9687-3.96876-3.9687zm-4.96875 3.9687c0-2.7442 2.22459-4.9687 4.96875-4.9687 2.74417 0 4.96876 2.2245 4.96876 4.9687s-2.22459 4.9688-4.96876 4.9688c-2.74416 0-4.96875-2.2246-4.96875-4.9688z" fill="url(#r)" fill-rule="evenodd"/></g><g filter="url(#b)"><circle cx="7.027" cy="25.588" r="4.555" stroke="url(#s)" stroke-width=".3"/></g><path d="m19.1584 20.7443-1.8264-1.9883-.4236 2.0586 1.001.7055z" fill="url(#t)"/><path d="m17.8529 21.4776-.3004 1.9807c-.0663.4758-.0394.8872.3647 1.1669.1015.0702.2373.031.3065-.0713l1.9637-2.9016c.0619-.0915.038-.2158-.0535-.2778l-.9519-.6442z" fill="#413354"/><path d="m17.8529 21.4776-.3004 1.9807c-.0663.4758-.0394.8872.3647 1.1669.1015.0702.2373.031.3065-.0713l1.9637-2.9016c.0619-.0915.038-.2158-.0535-.2778l-.9519-.6442z" fill="url(#u)"/><path d="m17.8529 21.4776-.3004 1.9807c-.0663.4758-.0394.8872.3647 1.1669.1015.0702.2373.031.3065-.0713l1.9637-2.9016c.0619-.0915.038-.2158-.0535-.2778l-.9519-.6442z" fill="url(#v)"/><g clip-rule="evenodd" fill-rule="evenodd"><path d="m12.4596 12.2118c.2553.1053.3769.3976.2717.6529l-2.5399 6.2469c-.1053.2553-.39756.3769-.65285.2716s-.3769-.3975-.27163-.6528l2.53988-6.2469c.1052-.2553.3975-.3769.6528-.2717z" fill="url(#w)"/><path d="m12.4596 12.2118c.2553.1053.3769.3976.2717.6529l-2.5399 6.2469c-.1053.2553-.39756.3769-.65285.2716s-.3769-.3975-.27163-.6528l2.53988-6.2469c.1052-.2553.3975-.3769.6528-.2717z" fill="url(#x)"/><path d="m10.5256 16.9466c.281.1155.4151.4369.2996.7178l-3.28907 8c-.11551.281-.43689.4151-.71783.2996s-.41505-.4369-.29955-.7178l3.28907-8c.1155-.281.43688-.4151.71778-.2996z" fill="url(#y)"/><path d="m9.60157 19.1742c.10169-.222.43083-.4655.67263-.2817l6.25 4.75c.2419.1838.2889.5289.1051.7707s-.5288.2889-.7707.1051l-6.08109-4.6098c-.24184-.1838-.30483-.4531-.17594-.7343z" fill="url(#z)"/><path d="m9.60157 19.1742c.10169-.222.43083-.4655.67263-.2817l6.25 4.75c.2419.1838.2889.5289.1051.7707s-.5288.2889-.7707.1051l-6.08109-4.6098c-.24184-.1838-.30483-.4531-.17594-.7343z" fill="url(#A)"/><g filter="url(#c)"><path d="m24.9727 21.6193c-2.1919 0-3.9688 1.7768-3.9688 3.9687s1.7769 3.9688 3.9688 3.9688c2.1918 0 3.9687-1.7769 3.9687-3.9688s-1.7769-3.9687-3.9687-3.9687zm-4.9688 3.9687c0-2.7442 2.2246-4.9687 4.9688-4.9687 2.7441 0 4.9687 2.2245 4.9687 4.9687s-2.2246 4.9688-4.9687 4.9688c-2.7442 0-4.9688-2.2246-4.9688-4.9688z" fill="url(#B)"/><path d="m24.9727 21.6193c-2.1919 0-3.9688 1.7768-3.9688 3.9687s1.7769 3.9688 3.9688 3.9688c2.1918 0 3.9687-1.7769 3.9687-3.9688s-1.7769-3.9687-3.9687-3.9687zm-4.9688 3.9687c0-2.7442 2.2246-4.9687 4.9688-4.9687 2.7441 0 4.9687 2.2245 4.9687 4.9687s-2.2246 4.9688-4.9687 4.9688c-2.7442 0-4.9688-2.2246-4.9688-4.9688z" fill="url(#C)"/></g><path d="m19.7103 17.2323c-.2568.1621-.3337.5018-.1715.7587l4.7187 7.4765c.1621.2569.5018.3337.7587.1716s.3337-.5018.1715-.7587l-4.7187-7.4765c-.1621-.2569-.5018-.3337-.7587-.1716z" fill="url(#D)"/><path d="m20.0143 17.1528c.2965.0661.4832.3601.4171.6565l-1.5781 7.0782c-.0661.2964-.36.4832-.6565.4171s-.4832-.36-.4171-.6565l1.5781-7.0781c.0661-.2965.36-.4833.6565-.4172z" fill="url(#E)"/><path d="m20.0143 17.1528c.2965.0661.4832.3601.4171.6565l-1.5781 7.0782c-.0661.2964-.36.4832-.6565.4171s-.4832-.36-.4171-.6565l1.5781-7.0781c.0661-.2965.36-.4833.6565-.4172z" fill="url(#F)"/><path d="m20.0143 17.1528c.2965.0661.4832.3601.4171.6565l-1.5781 7.0782c-.0661.2964-.36.4832-.6565.4171s-.4832-.36-.4171-.6565l1.5781-7.0781c.0661-.2965.36-.4833.6565-.4172z" fill="url(#G)"/></g><path d="m13.9693 16.0568 1.3399-.836 1.039 1.0391-.7656 3.5312c-.513-.3802-1.5687-1.1609-1.6874-1.2421-.1485-.1016-.6608-.543-.653-1.2383.008-.7112.4771-1.0716.7271-1.2539z" fill="url(#H)"/><path d="m13.9693 16.0568 1.3399-.836 1.039 1.0391-.7656 3.5312c-.513-.3802-1.5687-1.1609-1.6874-1.2421-.1485-.1016-.6608-.543-.653-1.2383.008-.7112.4771-1.0716.7271-1.2539z" fill="url(#I)"/><path d="m13.9693 16.0568 1.3399-.836 1.039 1.0391-.7656 3.5312c-.513-.3802-1.5687-1.1609-1.6874-1.2421-.1485-.1016-.6608-.543-.653-1.2383.008-.7112.4771-1.0716.7271-1.2539z" fill="url(#J)"/><path d="m15.25 15.256 2.6406-1.6094 1.2071.6289-2.7266 2.4766c-.2688-.2313-.8399-1.0508-1.1211-1.4961z" fill="url(#K)"/><path d="m15.25 15.256 2.6406-1.6094 1.2071.6289-2.7266 2.4766c-.2688-.2313-.8399-1.0508-1.1211-1.4961z" fill="url(#L)"/><g filter="url(#d)"><path d="m18.8841 27.4117c-.124.0259-.2524.0396-.3841.0396-1.0291 0-1.8633-.8342-1.8633-1.8633 0-1.029.8342-1.8633 1.8633-1.8633.1381 0 .2728.0151.4024.0436l5.8984.9057c.4388.0726.7734.4546.7734.914 0 .489-.3791.8895-.8595.9235z" fill="url(#M)"/><path d="m18.8841 27.4117c-.124.0259-.2524.0396-.3841.0396-1.0291 0-1.8633-.8342-1.8633-1.8633 0-1.029.8342-1.8633 1.8633-1.8633.1381 0 .2728.0151.4024.0436l5.8984.9057c.4388.0726.7734.4546.7734.914 0 .489-.3791.8895-.8595.9235z" fill="url(#N)"/></g><circle cx="18.344" cy="25.588" fill="url(#O)" r="1.027"/><circle cx="18.344" cy="25.588" fill="url(#P)" r="1.027"/><g filter="url(#e)"><path d="m16.07 23.8373-1.8088.8613c-.4312.2118-.7568.4646-.7619.9561-.0013.1234.1073.2138.2307.2138h3.5037c.1105 0 .2-.0895.2-.2v-1.1493z" fill="#5b4e85"/><path d="m16.07 23.8373-1.8088.8613c-.4312.2118-.7568.4646-.7619.9561-.0013.1234.1073.2138.2307.2138h3.5037c.1105 0 .2-.0895.2-.2v-1.1493z" fill="url(#Q)"/><path d="m16.07 23.8373-1.8088.8613c-.4312.2118-.7568.4646-.7619.9561-.0013.1234.1073.2138.2307.2138h3.5037c.1105 0 .2-.0895.2-.2v-1.1493z" fill="url(#R)"/></g><path d="m13.5093 8.52429h2.15415v2.66825h-2.15415z" fill="url(#S)" transform="matrix(.56788972 -.82310465 .82310465 .56788972 -1.178875 14.803001)"/><path d="m13.5093 8.52429h2.15415v2.66825h-2.15415z" fill="url(#T)" transform="matrix(.56788972 -.82310465 .82310465 .56788972 -1.178875 14.803001)"/><g filter="url(#f)"><path d="m16.0511 16.6115.5532-.5142 2.0402 1.9166c-.2734.1536-.8871.4632-1.0308.582-.1098.0907-.1098.2344-.1098.3281l-.0465 5.5938-1.4063-.6719c-.138-.7943-.4196-2.7082-.7691-4.3008-.3953-1.8008.3759-2.5924.7691-2.9336z" fill="url(#U)"/><path d="m16.0511 16.6115.5532-.5142 2.0402 1.9166c-.2734.1536-.8871.4632-1.0308.582-.1098.0907-.1098.2344-.1098.3281l-.0465 5.5938-1.4063-.6719c-.138-.7943-.4196-2.7082-.7691-4.3008-.3953-1.8008.3759-2.5924.7691-2.9336z" fill="url(#V)"/></g><g filter="url(#g)"><path d="m18.3349 14.3889-.6357-.6993 4.0313-2.4766c1.4218 1.8672 1.5 3.211.8359 4.2735s-1.582 2.0507-2.6172 2.9453c-.2714.2345-.8026.3616-1.3594-.1797-.707-.6875-1.5781-1.5781-2.039-2.1133l1.7772-1.6085c.041-.0372.0441-.1005.0069-.1414z" fill="url(#W)"/><path d="m18.3349 14.3889-.6357-.6993 4.0313-2.4766c1.4218 1.8672 1.5 3.211.8359 4.2735s-1.582 2.0507-2.6172 2.9453c-.2714.2345-.8026.3616-1.3594-.1797-.707-.6875-1.5781-1.5781-2.039-2.1133l1.7772-1.6085c.041-.0372.0441-.1005.0069-.1414z" fill="url(#X)"/></g><g filter="url(#h)"><path d="m16.0664 11.7677c.6641.625 1.3633 1.586 1.6719 1.9688l4.2423-2.1797c-.586-.9766-2.0703-2.53124-3.5391-3.35937-1.7187-.8125-2.6724 0-3.3052 1.07032-.4136.85155.2582 1.78125.9301 2.49995z" fill="url(#Y)"/></g><g filter="url(#i)"><path d="m12.9102 12.2209c0-.3176-.2575-.575-.575-.575h-3.04999c-1.1762 0-2.12969.9535-2.12969 2.1297s.95349 2.1296 2.12968 2.1296h.18277c.31756 0 .57503-.2574.57503-.575 0-.3175-.25747-.575-.57503-.575h-.18277c-.54106 0-.97968-.4386-.97968-.9796 0-.5411.43862-.9797.97969-.9797h3.04999c.3175 0 .575-.2575.575-.575z" fill="#c0b9bc"/><path d="m12.9102 12.2209c0-.3176-.2575-.575-.575-.575h-3.04999c-1.1762 0-2.12969.9535-2.12969 2.1297s.95349 2.1296 2.12968 2.1296h.18277c.31756 0 .57503-.2574.57503-.575 0-.3175-.25747-.575-.57503-.575h-.18277c-.54106 0-.97968-.4386-.97968-.9796 0-.5411.43862-.9797.97969-.9797h3.04999c.3175 0 .575-.2575.575-.575z" fill="url(#Z)"/></g><g filter="url(#j)"><path clip-rule="evenodd" d="m8.30469 13.8341v-.0215c0-.316-.25611-.5722-.57227-.5722s-.57226.2562-.57226.5722v.0215h-.00391c.03101 1.1491.97241 2.0711 2.12891 2.0711h.18286c.31762 0 .57498-.2574.57498-.575s-.25736-.575-.57498-.575h-.18286c-.52124 0-.94776-.4073-.97803-.9211z" fill="#2b174f" fill-rule="evenodd"/></g><g clip-rule="evenodd" fill-rule="evenodd" filter="url(#k)"><path d="m17.0969 8.8854c.4786.32733.6013.98074.274 1.4594-.7827 1.1446-3.1516 4.3029-7.93264 4.7879-.57693.0585-1.59457-.3193-1.6531-.8962s.86421-1.1345 1.44115-1.1931c3.84389-.3899 5.74069-2.9036 6.41109-3.88396.3274-.47868.9808-.60138 1.4595-.27404z" fill="#d19e7f"/><path d="m17.0969 8.8854c.4786.32733.6013.98074.274 1.4594-.7827 1.1446-3.1516 4.3029-7.93264 4.7879-.57693.0585-1.59457-.3193-1.6531-.8962s.86421-1.1345 1.44115-1.1931c3.84389-.3899 5.74069-2.9036 6.41109-3.88396.3274-.47868.9808-.60138 1.4595-.27404z" fill="url(#aa)"/></g><path clip-rule="evenodd" d="m9.29142 13.5335c0 .1933-.1567.35-.35.35-.17295 0-.43539.0424-.66246.1496-.22598.1066-.3699.2525-.41531.4388-.0458.1878-.23516.3029-.42296.2571-.18779-.0458-.30291-.2352-.25711-.423.11366-.4661.46185-.748.79661-.9059.33366-.1575.70058-.2166.96123-.2166.1933 0 .35.1567.35.35z" fill="url(#ac)" fill-rule="evenodd"/><path clip-rule="evenodd" d="m9.29142 13.5335c0 .1933-.1567.35-.35.35-.17295 0-.43539.0424-.66246.1496-.22598.1066-.3699.2525-.41531.4388-.0458.1878-.23516.3029-.42296.2571-.18779-.0458-.30291-.2352-.25711-.423.11366-.4661.46185-.748.79661-.9059.33366-.1575.70058-.2166.96123-.2166.1933 0 .35.1567.35.35z" fill="url(#ae)" fill-rule="evenodd"/><g filter="url(#l)"><path d="m20.9608 13.5067-.5233-.8635 1.125-.6563c.9687 1.3125 1.3437 2.2969.7344 2.875-.4875.4625-2.8698 1.724-4 2.2969l2.5029-2.414c.3364-.3244.4032-.8385.161-1.2381z" fill="url(#af)"/></g><path clip-rule="evenodd" d="m8.78136 14.0685c.05881.1841-.04279.3811-.22693.4399-.28844.0921-.37727.3292-.40574.4574-.04194.1886-.22891.3076-.4176.2657-.1887-.042-.30767-.2289-.26572-.4176.04966-.2235.23499-.7676.8761-.9723.18414-.0588.38108.0427.43989.2269z" fill="url(#ag)" fill-rule="evenodd"/><path clip-rule="evenodd" d="m8.78136 14.0685c.05881.1841-.04279.3811-.22693.4399-.28844.0921-.37727.3292-.40574.4574-.04194.1886-.22891.3076-.4176.2657-.1887-.042-.30767-.2289-.26572-.4176.04966-.2235.23499-.7676.8761-.9723.18414-.0588.38108.0427.43989.2269z" fill="url(#ah)" fill-rule="evenodd"/><path clip-rule="evenodd" d="m8.92896 14.1278c.06659.0803.11328.2422 0 .4024-.15153.1256-.34264.3889-.37247.5934-.02789.1913-.20557.3238-.39684.2959-.19128-.0279-.32373-.2056-.29583-.3969.01875-.1285.07671-.2846.15466-.4288.07977-.1475.1966-.3126.35391-.443.14881-.1234.4332-.1718.55657-.023z" fill="url(#ai)" fill-rule="evenodd"/><path clip-rule="evenodd" d="m8.92896 14.1278c.06659.0803.11328.2422 0 .4024-.15153.1256-.34264.3889-.37247.5934-.02789.1913-.20557.3238-.39684.2959-.19128-.0279-.32373-.2056-.29583-.3969.01875-.1285.07671-.2846.15466-.4288.07977-.1475.1966-.3126.35391-.443.14881-.1234.4332-.1718.55657-.023z" fill="url(#aj)" fill-rule="evenodd"/><g filter="url(#m)"><circle cx="9.195" cy="14.035" fill="#d7a58b" r=".885"/></g><path d="m10.7741 9.03973c-.2053-.13792-.2109-.29881-.1486-.65732.0455-.26195-.0207-.45634-.0693-.53916l.8306.99097c-.1065.22531-.4073.34342-.6127.20551z" fill="url(#ak)"/><g filter="url(#n)"><path d="m11.9713 9.78916c-.7946-.73791-1.4588-1.93173-1.7251-2.39791l3.4578-2.15302 1.8865 1.66769c-.0709.34424-.3531 1.21337-.9152 1.93591-.7026.90318-1.6614 1.91557-2.704.94733z" fill="url(#al)"/><path d="m11.9713 9.78916c-.7946-.73791-1.4588-1.93173-1.7251-2.39791l3.4578-2.15302 1.8865 1.66769c-.0709.34424-.3531 1.21337-.9152 1.93591-.7026.90318-1.6614 1.91557-2.704.94733z" fill="url(#am)"/><path d="m11.9713 9.78916c-.7946-.73791-1.4588-1.93173-1.7251-2.39791l3.4578-2.15302 1.8865 1.66769c-.0709.34424-.3531 1.21337-.9152 1.93591-.7026.90318-1.6614 1.91557-2.704.94733z" fill="url(#an)"/><path d="m11.9713 9.78916c-.7946-.73791-1.4588-1.93173-1.7251-2.39791l3.4578-2.15302 1.8865 1.66769c-.0709.34424-.3531 1.21337-.9152 1.93591-.7026.90318-1.6614 1.91557-2.704.94733z" fill="url(#ao)"/></g><path clip-rule="evenodd" d="m11.8554 9.25669c-.0341-.05565-.0166-.12838.0391-.16244.1022-.06254.2364-.21562.3064-.53527.014-.06373.077-.10407.1407-.0901.0638.01397.1041.07696.0901.1407-.08.3649-.2431.58171-.4139.68621-.0556.03406-.1284.01655-.1624-.0391z" fill="#87004d" fill-rule="evenodd"/><g filter="url(#o)"><path d="m14.5589 6.93923-1.2137-1.21191 1.7691-.93496c.2207.36465.234 1.06005.1942 1.31691.423-.10635.6385.21506.6635.41063.025.19556-.1438.5957-.5996.70691-.3647.08896-.6943-.15465-.8135-.28758z" fill="#ffe6b1"/><path d="m14.5589 6.93923-1.2137-1.21191 1.7691-.93496c.2207.36465.234 1.06005.1942 1.31691.423-.10635.6385.21506.6635.41063.025.19556-.1438.5957-.5996.70691-.3647.08896-.6943-.15465-.8135-.28758z" fill="url(#ap)"/></g><path d="m10.939 7.35139c-.0678.23092.0721.45945.1469.57478l.8882-.53981c-.5374-.59094-.9429-.34873-1.0351-.03497z" fill="#fff"/><path d="m11.5862 7.62274c-.0094-.01624-.0195-.03244-.0301-.04854-.1643-.24946-.4066-.37988-.541-.2913-.1344.08857-.1101.36259.0542.61204.0067.01007.0134.01995.0203.02963z" fill="#654b4b"/><path d="m11.3951 7.73866c-.0127-.0307-.0292-.06205-.0494-.09277-.0914-.1387-.2245-.21223-.2973-.16424-.0729.04799-.0578.19933.0335.33802.0181.02734.0377.05214.0582.07398z" fill="url(#aq)"/><circle cx="11.056" cy="7.459" fill="#dfdfdf" r=".085" transform="matrix(.42737995 -.90407211 .90407211 .42737995 -.41259 14.266849)"/><circle cx="13.415" cy="6.373" fill="url(#ar)" r=".66" transform="matrix(.42737995 -.90407211 .90407211 .42737995 1.920408 15.777586)"/><circle cx="13.415" cy="6.373" fill="url(#as)" r=".66" transform="matrix(.42737995 -.90407211 .90407211 .42737995 1.920408 15.777586)"/><path clip-rule="evenodd" d="m12.6411 5.65996c.1479-.06878.3235-.00464.3923.14328l1.5517 3.33688c.0688.14791.0046.32357-.1433.39235s-.3235.00463-.3923-.14328l-1.5517-3.33688c-.0688-.14791-.0046-.32357.1433-.39235z" fill="#4d3771" fill-rule="evenodd"/><path clip-rule="evenodd" d="m12.6411 5.65996c.1479-.06878.3235-.00464.3923.14328l1.5517 3.33688c.0688.14791.0046.32357-.1433.39235s-.3235.00463-.3923-.14328l-1.5517-3.33688c-.0688-.14791-.0046-.32357.1433-.39235z" fill="url(#at)" fill-rule="evenodd"/><path clip-rule="evenodd" d="m12.6411 5.65996c.1479-.06878.3235-.00464.3923.14328l1.5517 3.33688c.0688.14791.0046.32357-.1433.39235s-.3235.00463-.3923-.14328l-1.5517-3.33688c-.0688-.14791-.0046-.32357.1433-.39235z" fill="url(#au)" fill-rule="evenodd"/><path clip-rule="evenodd" d="m12.6411 5.65996c.1479-.06878.3235-.00464.3923.14328l1.5517 3.33688c.0688.14791.0046.32357-.1433.39235s-.3235.00463-.3923-.14328l-1.5517-3.33688c-.0688-.14791-.0046-.32357.1433-.39235z" fill="url(#av)" fill-rule="evenodd"/><g filter="url(#p)"><path d="m15.0179 4.95913-4.7111 2.51461c-.119.06353-.2654.03757-.34271-.07301-.16858-.24118-.40505-.64913-.59463-1.13639-.56461-1.45118.43887-2.28704.57016-2.4155.18998-.18585.71448-.64746 1.85048-1.08539 1.3332-.5139 2.1939.06721 2.6188.61522.2673.34465.5614.86349.7333 1.21379.0665.13561.009.29554-.1243.36667z" fill="url(#aw)"/></g><g filter="url(#q)"><path d="m11.2124 5.77244c-.0898-.17533-.0205-.39023.1549-.48l1.3058-.66865c.1753-.08977.3902-.02042.48.1549s.0204.39022-.1549.48l-1.3058.66865c-.1754.08977-.3903.02042-.48-.1549z" fill="url(#ax)"/></g></svg>