<svg fill="none" height="32" viewBox="0 0 32 32" width="32" xmlns="http://www.w3.org/2000/svg" xmlns:xlink="http://www.w3.org/1999/xlink"><filter id="a" color-interpolation-filters="sRGB" filterUnits="userSpaceOnUse" height="3.05" width="2.1" x="15.035" y="2"><feFlood flood-opacity="0" result="BackgroundImageFix"/><feBlend in="SourceGraphic" in2="BackgroundImageFix" mode="normal" result="shape"/><feColorMatrix in="SourceAlpha" result="hardAlpha" type="matrix" values="0 0 0 0 0 0 0 0 0 0 0 0 0 0 0 0 0 0 127 0"/><feOffset dx=".1"/><feGaussianBlur stdDeviation=".2"/><feComposite in2="hardAlpha" k2="-1" k3="1" operator="arithmetic"/><feColorMatrix type="matrix" values="0 0 0 0 0.745833 0 0 0 0 0.621759 0 0 0 0 0.313872 0 0 0 1 0"/><feBlend in2="shape" mode="normal" result="effect1_innerShadow_18_7284"/></filter><filter id="b" color-interpolation-filters="sRGB" filterUnits="userSpaceOnUse" height="5.25" width="4.24" x="13.785" y="24.98"><feFlood flood-opacity="0" result="BackgroundImageFix"/><feBlend in="SourceGraphic" in2="BackgroundImageFix" mode="normal" result="shape"/><feColorMatrix in="SourceAlpha" result="hardAlpha" type="matrix" values="0 0 0 0 0 0 0 0 0 0 0 0 0 0 0 0 0 0 127 0"/><feOffset dx="-.25" dy=".25"/><feGaussianBlur stdDeviation=".125"/><feComposite in2="hardAlpha" k2="-1" k3="1" operator="arithmetic"/><feColorMatrix type="matrix" values="0 0 0 0 0.231373 0 0 0 0 0.141176 0 0 0 0 0.317647 0 0 0 1 0"/><feBlend in2="shape" mode="normal" result="effect1_innerShadow_18_7284"/></filter><filter id="c" color-interpolation-filters="sRGB" filterUnits="userSpaceOnUse" height="4.932" width="11.493" x="11.845" y="8.97"><feFlood flood-opacity="0" result="BackgroundImageFix"/><feBlend in="SourceGraphic" in2="BackgroundImageFix" mode="normal" result="shape"/><feGaussianBlur result="effect1_foregroundBlur_18_7284" stdDeviation=".5"/></filter><linearGradient id="d" gradientUnits="userSpaceOnUse" x1="27.559" x2="27.559" y1="27.939" y2="30.243"><stop offset="0" stop-color="#85524f"/><stop offset="1" stop-color="#925f59"/></linearGradient><linearGradient id="e" gradientUnits="userSpaceOnUse" x1="5.112" x2="5.112" y1="27.197" y2="30.159"><stop offset="0" stop-color="#895855"/><stop offset="1" stop-color="#9d6860"/><stop offset="1" stop-color="#9c675f"/></linearGradient><linearGradient id="f" gradientUnits="userSpaceOnUse" x1="3.149" x2="3.513" y1="28.984" y2="28.984"><stop offset="0" stop-color="#8d685d"/><stop offset="1" stop-color="#896256" stop-opacity="0"/></linearGradient><linearGradient id="g"><stop offset="0" stop-color="#875141"/><stop offset="1" stop-color="#876355"/></linearGradient><linearGradient id="h" gradientUnits="userSpaceOnUse" x1="26.729" x2="26.729" xlink:href="#g" y1="24.91" y2="27.349"/><linearGradient id="i" gradientUnits="userSpaceOnUse" x1="5.928" x2="5.928" y1="24.222" y2="27.06"><stop offset="0" stop-color="#8f5a53"/><stop offset="1" stop-color="#9d6860"/><stop offset="1" stop-color="#87564a"/></linearGradient><linearGradient id="j" gradientUnits="userSpaceOnUse" x1="4.112" x2="4.449" y1="26.044" y2="26.044"><stop offset="0" stop-color="#846055"/><stop offset="1" stop-color="#846055" stop-opacity="0"/></linearGradient><linearGradient id="k" gradientUnits="userSpaceOnUse" x1="25.851" x2="25.851" xlink:href="#g" y1="21.89" y2="24.249"/><linearGradient id="l"><stop offset="0" stop-color="#7d514c"/><stop offset="1" stop-color="#9d6860"/><stop offset="1" stop-color="#89584d"/></linearGradient><linearGradient id="m" gradientUnits="userSpaceOnUse" x1="6.707" x2="6.707" xlink:href="#l" y1="21.224" y2="23.97"/><linearGradient id="n"><stop offset="0" stop-color="#7d584c"/><stop offset="1" stop-color="#7d584c" stop-opacity="0"/></linearGradient><linearGradient id="o" gradientUnits="userSpaceOnUse" x1="5.103" x2="5.401" xlink:href="#n" y1="22.987" y2="22.987"/><radialGradient id="p" cx="0" cy="0" gradientTransform="matrix(0 2.47017 -4.34899 0 16.035 7.97998)" gradientUnits="userSpaceOnUse" r="1"><stop offset=".136" stop-color="#74382b"/><stop offset="1" stop-color="#9a6450"/></radialGradient><linearGradient id="q" gradientUnits="userSpaceOnUse" x1="19.166" x2="18.633" y1="8.577" y2="8.577"><stop offset="0" stop-color="#997061"/><stop offset="1" stop-color="#997061" stop-opacity="0"/></linearGradient><radialGradient id="r" cx="0" cy="0" gradientTransform="matrix(-5.83345 0 0 -1.6165 19.0487 7.47998)" gradientUnits="userSpaceOnUse" r="1"><stop offset="0" stop-color="#50335c"/><stop offset="1" stop-color="#2e263a"/></radialGradient><radialGradient id="s" cx="0" cy="0" gradientTransform="matrix(-3.08399 0 0 -.554074 18.7456 7.38299)" gradientUnits="userSpaceOnUse" r="1"><stop offset="0" stop-color="#5e4a70"/><stop offset="1" stop-color="#5e4a70" stop-opacity="0"/></radialGradient><radialGradient id="t" cx="0" cy="0" gradientTransform="matrix(-4.35938 0 0 -1.25007 17.6288 6.97991)" gradientUnits="userSpaceOnUse" r="1"><stop offset="0" stop-color="#ffc866"/><stop offset="1" stop-color="#ec9130"/></radialGradient><radialGradient id="u" cx="0" cy="0" gradientTransform="matrix(-5.26099 0 0 -31.8795 18.296 6.97991)" gradientUnits="userSpaceOnUse" r="1"><stop offset=".739" stop-color="#a96f48" stop-opacity="0"/><stop offset="1" stop-color="#a96f48"/></radialGradient><linearGradient id="v" gradientUnits="userSpaceOnUse" x1="15.473" x2="17.038" y1="3.525" y2="3.527"><stop offset="0" stop-color="#ebb932"/><stop offset=".419" stop-color="#ffd94c"/><stop offset=".971" stop-color="#ffef6c"/></linearGradient><linearGradient id="w" gradientUnits="userSpaceOnUse" x1="16.113" x2="16.113" y1="5.089" y2="4.136"><stop offset="0" stop-color="#ffba23"/><stop offset=".466" stop-color="#ffba23"/><stop offset="1" stop-color="#ffba23" stop-opacity="0"/></linearGradient><linearGradient id="x" gradientUnits="userSpaceOnUse" x1="16.035" x2="16.035" y1="5.246" y2="4.855"><stop offset=".6" stop-color="#b86c16"/><stop offset="1" stop-color="#b86c16" stop-opacity="0"/></linearGradient><linearGradient id="y" gradientUnits="userSpaceOnUse" x1="15.832" x2="15.832" y1="4.99" y2="6.12"><stop offset=".499" stop-color="#ffcc38"/><stop offset="1" stop-color="#db7207"/></linearGradient><linearGradient id="z" gradientUnits="userSpaceOnUse" x1="14.926" x2="15.605" y1="5.667" y2="5.667"><stop offset=".274" stop-color="#c4a25c"/><stop offset="1" stop-color="#c4a25c" stop-opacity="0"/></linearGradient><radialGradient id="A" cx="0" cy="0" gradientTransform="matrix(-.666245 0 0 -.703125 17.045 5.30016)" gradientUnits="userSpaceOnUse" r="1"><stop offset=".121" stop-color="#fff169"/><stop offset="1" stop-color="#fff169" stop-opacity="0"/></radialGradient><linearGradient id="B"><stop offset="0" stop-color="#271830"/><stop offset="1" stop-color="#503659"/></linearGradient><linearGradient id="C" gradientUnits="userSpaceOnUse" x1="2.043" x2="30.05" xlink:href="#B" y1="27.455" y2="27.455"/><linearGradient id="D"><stop offset="0" stop-color="#5d486e"/><stop offset="1" stop-color="#5d486e" stop-opacity="0"/></linearGradient><linearGradient id="E" gradientUnits="userSpaceOnUse" x1="30.136" x2="29.428" xlink:href="#D" y1="27.46" y2="27.46"/><linearGradient id="F" gradientUnits="userSpaceOnUse" x1="3.013" x2="28.999" xlink:href="#B" y1="24.465" y2="24.465"/><linearGradient id="G" gradientUnits="userSpaceOnUse" x1="29.079" x2="28.423" xlink:href="#D" y1="24.47" y2="24.47"/><linearGradient id="H" gradientUnits="userSpaceOnUse" x1="4.052" x2="28.039" xlink:href="#B" y1="21.475" y2="21.475"/><linearGradient id="I" gradientUnits="userSpaceOnUse" x1="28.113" x2="27.507" xlink:href="#D" y1="21.48" y2="21.48"/><linearGradient id="J" gradientUnits="userSpaceOnUse" x1="24.923" x2="24.923" xlink:href="#g" y1="18.9" y2="21.259"/><linearGradient id="K" gradientUnits="userSpaceOnUse" x1="7.569" x2="7.569" xlink:href="#l" y1="18.234" y2="20.98"/><linearGradient id="L" gradientUnits="userSpaceOnUse" x1="6.088" x2="6.363" xlink:href="#n" y1="19.997" y2="19.997"/><linearGradient id="M" gradientUnits="userSpaceOnUse" x1="5.002" x2="27.079" xlink:href="#B" y1="18.465" y2="18.465"/><linearGradient id="N" gradientUnits="userSpaceOnUse" x1="27.147" x2="26.589" xlink:href="#D" y1="18.47" y2="18.47"/><linearGradient id="O" gradientUnits="userSpaceOnUse" x1="16.038" x2="16.038" y1="14.98" y2="17.98"><stop offset="0" stop-color="#6a4532"/><stop offset="1" stop-color="#a2694f"/></linearGradient><linearGradient id="P" gradientUnits="userSpaceOnUse" x1="23.16" x2="23.16" xlink:href="#g" y1="15.886" y2="18.261"/><linearGradient id="Q" gradientUnits="userSpaceOnUse" x1="9.259" x2="9.259" y1="15.216" y2="17.98"><stop offset="0" stop-color="#85584b"/><stop offset="1" stop-color="#9d6860"/><stop offset="1" stop-color="#7a5246"/></linearGradient><linearGradient id="R" gradientUnits="userSpaceOnUse" x1="8.085" x2="8.303" y1="16.991" y2="16.991"><stop offset="0" stop-color="#704f43"/><stop offset="1" stop-color="#704f43" stop-opacity="0"/></linearGradient><linearGradient id="S" gradientUnits="userSpaceOnUse" x1="6.94" x2="25.038" xlink:href="#B" y1="15.475" y2="15.475"/><linearGradient id="T" gradientUnits="userSpaceOnUse" x1="25.094" x2="24.637" xlink:href="#D" y1="15.48" y2="15.48"/><linearGradient id="U" gradientUnits="userSpaceOnUse" x1="9.038" x2="23.038" y1="19.475" y2="19.475"><stop offset="0" stop-color="#ea7b3a"/><stop offset="1" stop-color="#ffb336"/></linearGradient><radialGradient id="V" cx="0" cy="0" gradientTransform="matrix(-9.41628972 -15.32873086 14.47529328 -8.89203134 19.325 25.1917)" gradientUnits="userSpaceOnUse" r="1"><stop offset=".891" stop-color="#bd8063" stop-opacity="0"/><stop offset="1" stop-color="#bd8063"/></radialGradient><linearGradient id="W" gradientUnits="userSpaceOnUse" x1="16.035" x2="16.035" y1="8.777" y2="9.003"><stop offset=".207" stop-color="#8f4021"/><stop offset="1" stop-color="#8f4021" stop-opacity="0"/></linearGradient><linearGradient id="X"><stop offset=".25" stop-color="#864840"/><stop offset="1" stop-color="#864840" stop-opacity="0"/></linearGradient><radialGradient id="Y" cx="0" cy="0" gradientTransform="matrix(0 .607895 -5.91125 0 16.04 23.7755)" gradientUnits="userSpaceOnUse" r="1" xlink:href="#X"/><linearGradient id="Z"><stop offset="0" stop-color="#96695b"/><stop offset="1" stop-color="#96695b" stop-opacity="0"/></linearGradient><linearGradient id="aa" gradientUnits="userSpaceOnUse" x1="20.324" x2="19.09" xlink:href="#Z" y1="27.118" y2="27.118"/><linearGradient id="ab" gradientUnits="userSpaceOnUse" x1="12.035" x2="12.693" xlink:href="#Z" y1="27.492" y2="27.492"/><linearGradient id="ac" gradientUnits="userSpaceOnUse" x1="14.035" x2="18.341" y1="27.884" y2="27.716"><stop offset="0" stop-color="#432e5a"/><stop offset="1" stop-color="#4a3260"/></linearGradient><linearGradient id="ad" gradientUnits="userSpaceOnUse" x1="14.035" x2="14.53" y1="28.325" y2="28.325"><stop offset="0" stop-color="#5b4972"/><stop offset="1" stop-color="#5b4972" stop-opacity="0"/></linearGradient><linearGradient id="ae" gradientUnits="userSpaceOnUse" x1="16.441" x2="16.441" y1="22.95" y2="18.168"><stop offset="0" stop-color="#8f5e52"/><stop offset="1" stop-color="#905d53"/></linearGradient><radialGradient id="af" cx="0" cy="0" gradientTransform="matrix(0 .5 -3.83375 0 15.9001 17.855)" gradientUnits="userSpaceOnUse" r="1" xlink:href="#X"/><radialGradient id="ag" cx="0" cy="0" gradientTransform="matrix(0 .46875 -3.59414 0 15.9001 20.9956)" gradientUnits="userSpaceOnUse" r="1"><stop offset=".083" stop-color="#864840"/><stop offset="1" stop-color="#864840" stop-opacity="0"/></radialGradient><linearGradient id="ah"><stop offset=".815" stop-color="#ffe666" stop-opacity="0"/><stop offset="1" stop-color="#ffe666"/></linearGradient><radialGradient id="ai" cx="0" cy="0" gradientTransform="matrix(7.99071808 1.72949388 -.76147959 3.51823662 13.143 21.5913)" gradientUnits="userSpaceOnUse" r="1" xlink:href="#ah"/><linearGradient id="aj"><stop offset=".432" stop-color="#e19620"/><stop offset="1" stop-color="#e19620" stop-opacity="0"/></linearGradient><linearGradient id="ak" gradientUnits="userSpaceOnUse" x1="15.047" x2="15.047" xlink:href="#aj" y1="24.215" y2="23.333"/><radialGradient id="al" cx="0" cy="0" gradientTransform="matrix(0 -.952372 2.68781 0 20.4926 24.345)" gradientUnits="userSpaceOnUse" r="1"><stop offset="0" stop-color="#ce8440"/><stop offset=".822" stop-color="#ce8440" stop-opacity="0"/></radialGradient><linearGradient id="am"><stop offset="0" stop-color="#fcbf50"/><stop offset="1" stop-color="#fcbf50" stop-opacity="0"/></linearGradient><radialGradient id="an" cx="0" cy="0" gradientTransform="matrix(1.06464017 -.56586711 .64311955 1.20998534 10.0245 23.5458)" gradientUnits="userSpaceOnUse" r="1" xlink:href="#am"/><radialGradient id="ao" cx="0" cy="0" gradientTransform="matrix(6.651704 1.73814454 -.9053986 3.46486918 13.6405 18.5794)" gradientUnits="userSpaceOnUse" r="1" xlink:href="#ah"/><linearGradient id="ap" gradientUnits="userSpaceOnUse" x1="15.226" x2="15.226" xlink:href="#aj" y1="21.217" y2="20.329"/><radialGradient id="aq" cx="0" cy="0" gradientTransform="matrix(.88623641 -.56869595 .70887034 1.10467941 11.0446 20.5437)" gradientUnits="userSpaceOnUse" r="1" xlink:href="#am"/><linearGradient id="ar" gradientUnits="userSpaceOnUse" x1="14.038" x2="18.026" y1="15.489" y2="15.489"><stop offset="0" stop-color="#3a2b47"/><stop offset="1" stop-color="#59466a"/></linearGradient><radialGradient id="as" cx="0" cy="0" gradientTransform="matrix(5.32868622 1.72084145 -1.07168528 3.31853615 14.1203 15.6033)" gradientUnits="userSpaceOnUse" r="1" xlink:href="#ah"/><linearGradient id="at" gradientUnits="userSpaceOnUse" x1="15.39" x2="15.39" xlink:href="#aj" y1="18.214" y2="17.336"/><radialGradient id="au" cx="0" cy="0" gradientTransform="matrix(.70996448 -.56303581 .75172476 .94789331 12.0406 17.548)" gradientUnits="userSpaceOnUse" r="1" xlink:href="#am"/><radialGradient id="av" cx="0" cy="0" gradientTransform="matrix(-.51736158 .55243931 -.55243931 -.51736158 16.3386 14.3581)" gradientUnits="userSpaceOnUse" r="1"><stop offset="0" stop-color="#ffe863"/><stop offset="1" stop-color="#c29827"/></radialGradient><linearGradient id="aw" gradientUnits="userSpaceOnUse" x1="16.035" x2="16.035" y1="15.079" y2="14.781"><stop offset="0" stop-color="#3d2a1d"/><stop offset="1" stop-color="#3d2a1d" stop-opacity="0"/></linearGradient><radialGradient id="ax" cx="0" cy="0" gradientTransform="matrix(-.99246142 -4.65318783 5.54276886 -1.1821969 19.7357 13.3668)" gradientUnits="userSpaceOnUse" r="1"><stop offset=".156" stop-color="#ffc960"/><stop offset="1" stop-color="#ffc960" stop-opacity="0"/></radialGradient><path d="m28.995 27.0601h-13.3142v2.91h13.3142z" fill="url(#d)"/><path d="m15.9206 26.96h-12.85554v3.02h12.85554z" fill="url(#e)"/><path d="m15.9206 26.96h-12.85554v3.02h12.85554z" fill="url(#f)"/><path d="m28.035 23.98h-12.1145v3.08h12.1145z" fill="url(#h)"/><path d="m15.9206 23.98h-11.88557v3.08h11.88557z" fill="url(#i)"/><path d="m15.9206 23.98h-11.88557v3.08h11.88557z" fill="url(#j)"/><path d="m27.0751 20.99h-11.3542v2.98h11.3542z" fill="url(#k)"/><path d="m15.535 20.99h-10.49997v2.98h10.49997z" fill="url(#m)"/><path d="m15.535 20.99h-10.49997v2.98h10.49997z" fill="url(#o)"/><path d="m19.035 7.97998h-6v1.99h6z" fill="url(#p)"/><path d="m19.035 7.97998h-6v1.99h6z" fill="url(#q)"/><path d="m19.485 7.97998h-6.82c-.27 0-.49-.22-.49-.49v-.02c0-.27.22-.49.49-.49h6.82c.27 0 .49.22.49.49v.01c0 .27-.22.5-.49.5z" fill="url(#r)"/><path d="m19.485 7.97998h-6.82c-.27 0-.49-.22-.49-.49v-.02c0-.27.22-.49.49-.49h6.82c.27 0 .49.22.49.49v.01c0 .27-.22.5-.49.5z" fill="url(#s)"/><path d="m19.035 6.97991h-6c0-.55.45-.99.99-.99h4.01c.56-.01 1 .44 1 .99z" fill="url(#t)"/><path d="m19.035 6.97991h-6c0-.55.45-.99.99-.99h4.01c.56-.01 1 .44 1 .99z" fill="url(#u)"/><g filter="url(#a)"><path d="m16.035 5.05c-.55 0-1-.44-1-.99v-.03c0-.54.45-2.03 1-2.03s1 1.49 1 2.03v.04c0 .54-.44.98-1 .98z" fill="url(#v)"/><path d="m16.035 5.05c-.55 0-1-.44-1-.99v-.03c0-.54.45-2.03 1-2.03s1 1.49 1 2.03v.04c0 .54-.44.98-1 .98z" fill="url(#w)"/><path d="m16.035 5.05c-.55 0-1-.44-1-.99v-.03c0-.54.45-2.03 1-2.03s1 1.49 1 2.03v.04c0 .54-.44.98-1 .98z" fill="url(#x)"/></g><path d="m16.545 5.98975h-1.01c-.27 0-.5-.22-.5-.5 0-.27.22-.5.5-.5h1.01c.27 0 .5.22.5.5-.01.28-.23.5-.5.5z" fill="url(#y)"/><path d="m16.545 5.98975h-1.01c-.27 0-.5-.22-.5-.5 0-.27.22-.5.5-.5h1.01c.27 0 .5.22.5.5-.01.28-.23.5-.5.5z" fill="url(#z)"/><path d="m16.545 5.98975h-1.01c-.27 0-.5-.22-.5-.5 0-.27.22-.5.5-.5h1.01c.27 0 .5.22.5.5-.01.28-.23.5-.5.5z" fill="url(#A)"/><path d="m29.535 27.97h-26.98997c-.28 0-.51-.23-.51-.51s.23-.51.51-.51h26.98997c.28 0 .51.23.51.51-.01.28-.23.51-.51.51z" fill="url(#C)"/><path d="m29.535 27.97h-26.98997c-.28 0-.51-.23-.51-.51s.23-.51.51-.51h26.98997c.28 0 .51.23.51.51-.01.28-.23.51-.51.51z" fill="url(#E)"/><path d="m28.495 24.98h-24.99c-.27 0-.5-.22-.5-.5v-.02c0-.27.22-.5.5-.5h24.99c.27 0 .5.22.5.5v.02c-.01.28-.23.5-.5.5z" fill="url(#F)"/><path d="m28.495 24.98h-24.99c-.27 0-.5-.22-.5-.5v-.02c0-.27.22-.5.5-.5h24.99c.27 0 .5.22.5.5v.02c-.01.28-.23.5-.5.5z" fill="url(#G)"/><path d="m27.535 21.98h-22.98996c-.28 0-.5-.23-.5-.5 0-.28.23-.5.5-.5h22.98996c.28 0 .5.23.5.5s-.22.5-.5.5z" fill="url(#H)"/><path d="m27.535 21.98h-22.98996c-.28 0-.5-.23-.5-.5 0-.28.23-.5.5-.5h22.98996c.28 0 .5.23.5.5s-.22.5-.5.5z" fill="url(#I)"/><path d="m26.0351 18h-10.3142v2.98h10.3142z" fill="url(#J)"/><path d="m15.7209 18h-9.69588v2.98h9.69588z" fill="url(#K)"/><path d="m15.7209 18h-9.69588v2.98h9.69588z" fill="url(#L)"/><path d="m26.5951 18.98h-21.10998c-.27 0-.49-.22-.49-.49v-.04c0-.27.22-.49.49-.49h21.06998c.29 0 .52.23.52.52v.01c0 .27-.22.49-.48.49z" fill="url(#M)"/><path d="m26.5951 18.98h-21.10998c-.27 0-.49-.22-.49-.49v-.04c0-.27.22-.49.49-.49h21.06998c.29 0 .52.23.52.52v.01c0 .27-.22.49-.48.49z" fill="url(#N)"/><path d="m24.035 14.98h-15.99997v3h15.99997z" fill="url(#O)"/><path d="m24.035 14.98h-8.1145v3h8.1145z" fill="url(#P)"/><path d="m15.7209 14.98h-7.68587v3h7.68587z" fill="url(#Q)"/><path d="m15.7209 14.98h-7.68587v3h7.68587z" fill="url(#R)"/><path d="m24.5251 15.99h-17.08004c-.28 0-.51-.23-.51-.51s.23-.51.51-.51h17.08004c.28 0 .51.23.51.51s-.22.51-.51.51z" fill="url(#S)"/><path d="m24.5251 15.99h-17.08004c-.28 0-.51-.23-.51-.51s.23-.51.51-.51h17.08004c.28 0 .51.23.51.51s-.22.51-.51.51z" fill="url(#T)"/><path d="m23.035 29.9799h-13.99997v-17c0-2.21 1.76117-3.84293 3.99997-4.00003s3.9907-.12972 6 0c2.0094.12973 4 1.79003 4 4.00003z" fill="url(#U)"/><path d="m23.035 29.9799h-13.99997v-17c0-2.21 1.76117-3.84293 3.99997-4.00003s3.9907-.12972 6 0c2.0094.12973 4 1.79003 4 4.00003z" fill="url(#V)"/><path d="m23.035 29.9799h-13.99997v-17c0-2.21 1.76117-3.84293 3.99997-4.00003s3.9907-.12972 6 0c2.0094.12973 4 1.79003 4 4.00003z" fill="url(#W)"/><path d="m20.045 23.04h-8.01v6.93h8.01z" fill="#aa7369"/><path d="m20.045 23.04h-8.01v6.93h8.01z" fill="url(#Y)"/><path d="m20.045 23.04h-8.01v6.93h8.01z" fill="url(#aa)"/><path d="m20.045 23.04h-8.01v6.93h8.01z" fill="url(#ab)"/><g filter="url(#b)"><path d="m18.025 29.98h-3.99v-4.11c0-.49.4-.89.89-.89h2.2c.49 0 .89.4.89.89v4.11z" fill="url(#ac)"/><path d="m18.025 29.98h-3.99v-4.11c0-.49.4-.89.89-.89h2.2c.49 0 .89.4.89.89v4.11z" fill="url(#ad)"/></g><path d="m13.5551 17.25-1.58 5.7h7.85l-1.61-5.7z" fill="url(#ae)"/><path d="m13.5551 17.25-1.58 5.7h7.85l-1.61-5.7z" fill="url(#af)"/><path d="m13.5551 17.25-1.58 5.7h7.85l-1.61-5.7z" fill="url(#ag)"/><path d="m10.615 23.98h10.81c.44 0 .73-.44.53-.81l-.48-.89c-.1-.19-.3-.3-.53-.3h-9.85c-.22 0-.43.12-.53.3l-.48.89c-.19.37.09.81.53.81z" fill="#ffce38"/><path d="m10.615 23.98h10.81c.44 0 .73-.44.53-.81l-.48-.89c-.1-.19-.3-.3-.53-.3h-9.85c-.22 0-.43.12-.53.3l-.48.89c-.19.37.09.81.53.81z" fill="url(#ai)"/><path d="m10.615 23.98h10.81c.44 0 .73-.44.53-.81l-.48-.89c-.1-.19-.3-.3-.53-.3h-9.85c-.22 0-.43.12-.53.3l-.48.89c-.19.37.09.81.53.81z" fill="url(#ak)"/><path d="m10.615 23.98h10.81c.44 0 .73-.44.53-.81l-.48-.89c-.1-.19-.3-.3-.53-.3h-9.85c-.22 0-.43.12-.53.3l-.48.89c-.19.37.09.81.53.81z" fill="url(#al)"/><path d="m10.615 23.98h10.81c.44 0 .73-.44.53-.81l-.48-.89c-.1-.19-.3-.3-.53-.3h-9.85c-.22 0-.43.12-.53.3l-.48.89c-.19.37.09.81.53.81z" fill="url(#an)"/><path d="m11.635 20.98h8.8c.44 0 .73-.44.53-.81l-.48-.89c-.1-.19-.3-.31-.53-.31h-7.84c-.22 0-.43.12-.53.31l-.48.89c-.19.37.09.81.53.81z" fill="#ffce38"/><path d="m11.635 20.98h8.8c.44 0 .73-.44.53-.81l-.48-.89c-.1-.19-.3-.31-.53-.31h-7.84c-.22 0-.43.12-.53.31l-.48.89c-.19.37.09.81.53.81z" fill="url(#ao)"/><path d="m11.635 20.98h8.8c.44 0 .73-.44.53-.81l-.48-.89c-.1-.19-.3-.31-.53-.31h-7.84c-.22 0-.43.12-.53.31l-.48.89c-.19.37.09.81.53.81z" fill="url(#ap)"/><path d="m11.635 20.98h8.8c.44 0 .73-.44.53-.81l-.48-.89c-.1-.19-.3-.31-.53-.31h-7.84c-.22 0-.43.12-.53.31l-.48.89c-.19.37.09.81.53.81z" fill="url(#aq)"/><path d="m18.025 16h-3.99c0-.56.46-1.02 1.02-1.02h1.95c.57 0 1.02.46 1.02 1.02z" fill="url(#ar)"/><path d="m12.6351 17.98h6.81c.44 0 .73-.44.53-.81l-.48-.88c-.1-.19-.3-.3-.53-.3h-5.85c-.22 0-.43.12-.53.3l-.48.88c-.2.37.09.81.53.81z" fill="#ffce38"/><path d="m12.6351 17.98h6.81c.44 0 .73-.44.53-.81l-.48-.88c-.1-.19-.3-.3-.53-.3h-5.85c-.22 0-.43.12-.53.3l-.48.88c-.2.37.09.81.53.81z" fill="url(#as)"/><path d="m12.6351 17.98h6.81c.44 0 .73-.44.53-.81l-.48-.88c-.1-.19-.3-.3-.53-.3h-5.85c-.22 0-.43.12-.53.3l-.48.88c-.2.37.09.81.53.81z" fill="url(#at)"/><path d="m12.6351 17.98h6.81c.44 0 .73-.44.53-.81l-.48-.88c-.1-.19-.3-.3-.53-.3h-5.85c-.22 0-.43.12-.53.3l-.48.88c-.2.37.09.81.53.81z" fill="url(#au)"/><path d="m16.035 14.98c.2762 0 .5-.2239.5-.5 0-.2762-.2238-.5-.5-.5-.2761 0-.5.2238-.5.5 0 .2761.2239.5.5.5z" fill="url(#av)"/><path d="m16.035 14.98c.2762 0 .5-.2239.5-.5 0-.2762-.2238-.5-.5-.5-.2761 0-.5.2238-.5.5 0 .2761.2239.5.5.5z" fill="url(#aw)"/><g filter="url(#c)"><path d="m12.8451 12.9016h9.4929c0-2.1824-1.8371-2.8638-2.7556-2.93163h-6.7373z" fill="url(#ax)"/></g></svg>