<svg fill="none" height="32" viewBox="0 0 32 32" width="32" xmlns="http://www.w3.org/2000/svg" xmlns:xlink="http://www.w3.org/1999/xlink"><filter id="a" color-interpolation-filters="sRGB" filterUnits="userSpaceOnUse" height="1.375" width="18.5" x="6.75" y="13.206"><feFlood flood-opacity="0" result="BackgroundImageFix"/><feBlend in="SourceGraphic" in2="BackgroundImageFix" mode="normal" result="shape"/><feGaussianBlur result="effect1_foregroundBlur_18_11874" stdDeviation=".25"/></filter><filter id="b" color-interpolation-filters="sRGB" filterUnits="userSpaceOnUse" height="1.375" width="18.5" x="6.75" y="5.19"><feFlood flood-opacity="0" result="BackgroundImageFix"/><feBlend in="SourceGraphic" in2="BackgroundImageFix" mode="normal" result="shape"/><feGaussianBlur result="effect1_foregroundBlur_18_11874" stdDeviation=".25"/></filter><filter id="c" color-interpolation-filters="sRGB" filterUnits="userSpaceOnUse" height="1.375" width="18.5" x="6.75" y="21.182"><feFlood flood-opacity="0" result="BackgroundImageFix"/><feBlend in="SourceGraphic" in2="BackgroundImageFix" mode="normal" result="shape"/><feGaussianBlur result="effect1_foregroundBlur_18_11874" stdDeviation=".25"/></filter><filter id="d" color-interpolation-filters="sRGB" filterUnits="userSpaceOnUse" height="1.375" width="18.5" x="6.75" y="27.354"><feFlood flood-opacity="0" result="BackgroundImageFix"/><feBlend in="SourceGraphic" in2="BackgroundImageFix" mode="normal" result="shape"/><feGaussianBlur result="effect1_foregroundBlur_18_11874" stdDeviation=".25"/></filter><linearGradient id="e" gradientUnits="userSpaceOnUse" x1="7.002" x2="25" y1="16.956" y2="16.956"><stop offset="0" stop-color="#3974a8"/><stop offset=".177" stop-color="#448fdd"/><stop offset="1" stop-color="#5998e8"/></linearGradient><linearGradient id="f" gradientUnits="userSpaceOnUse" x1="19.002" x2="24.563" y1="2.956" y2="2.956"><stop offset="0" stop-color="#463b5e"/><stop offset="1" stop-color="#4e4b54"/></linearGradient><linearGradient id="g" gradientUnits="userSpaceOnUse" x1="24" x2="23.247" y1="3.956" y2="3.956"><stop offset="0" stop-color="#747374"/><stop offset="1" stop-color="#747374" stop-opacity="0"/></linearGradient><radialGradient id="h" cx="0" cy="0" gradientTransform="matrix(-.53985722 .44988787 -.51790359 -.62147485 23.8765 2.34932)" gradientUnits="userSpaceOnUse" r="1"><stop offset="0" stop-color="#69696a"/><stop offset="1" stop-color="#69696a" stop-opacity="0"/></radialGradient><radialGradient id="i" cx="0" cy="0" gradientTransform="matrix(2.81927 0 0 .440247 20.7873 2.53927)" gradientUnits="userSpaceOnUse" r="1"><stop offset="0" stop-color="#5c4f6b"/><stop offset=".64" stop-color="#5c4f6b" stop-opacity="0"/></radialGradient><linearGradient id="j" gradientUnits="userSpaceOnUse" x1="24.406" x2="22.5" y1="16.932" y2="16.932"><stop offset="0" stop-color="#72fbff"/><stop offset="1" stop-color="#65e0ff"/></linearGradient><linearGradient id="k" gradientUnits="userSpaceOnUse" x1="21" x2="21" y1="27.956" y2="5.956"><stop offset="0" stop-color="#53bdfe"/><stop offset="1" stop-color="#55c0fa"/></linearGradient><linearGradient id="l"><stop offset="0" stop-color="#4285d9"/><stop offset="1" stop-color="#3e409a"/></linearGradient><linearGradient id="m" gradientUnits="userSpaceOnUse" x1="26.002" x2="6.002" xlink:href="#l" y1="28.956" y2="28.956"/><linearGradient id="n"><stop offset="0" stop-color="#373490"/><stop offset="1" stop-color="#373490" stop-opacity="0"/></linearGradient><linearGradient id="o" gradientUnits="userSpaceOnUse" x1="16" x2="16" xlink:href="#n" y1="30.456" y2="29.206"/><linearGradient id="p"><stop offset="0" stop-color="#71a2ee"/><stop offset="1" stop-color="#71a2ee" stop-opacity="0"/></linearGradient><radialGradient id="q" cx="0" cy="0" gradientTransform="matrix(0 .656247 -10.5757 0 22.75 28.6118)" gradientUnits="userSpaceOnUse" r="1" xlink:href="#p"/><linearGradient id="r" gradientUnits="userSpaceOnUse" x1="26.002" x2="6.002" xlink:href="#l" y1="4.956" y2="4.956"/><linearGradient id="s" gradientUnits="userSpaceOnUse" x1="16" x2="16" xlink:href="#n" y1="6.456" y2="5.206"/><radialGradient id="t" cx="0" cy="0" gradientTransform="matrix(0 .656247 -10.5757 0 22.75 4.6118)" gradientUnits="userSpaceOnUse" r="1" xlink:href="#p"/><linearGradient id="u" gradientUnits="userSpaceOnUse" x1="26.002" x2="6.002" xlink:href="#l" y1="12.956" y2="12.956"/><linearGradient id="v" gradientUnits="userSpaceOnUse" x1="16" x2="16" xlink:href="#n" y1="14.456" y2="13.206"/><radialGradient id="w" cx="0" cy="0" gradientTransform="matrix(0 .656247 -10.5757 0 22.75 12.6118)" gradientUnits="userSpaceOnUse" r="1" xlink:href="#p"/><linearGradient id="x" gradientUnits="userSpaceOnUse" x1="26.002" x2="6.002" xlink:href="#l" y1="20.956" y2="20.956"/><linearGradient id="y" gradientUnits="userSpaceOnUse" x1="16" x2="16" xlink:href="#n" y1="22.456" y2="21.206"/><radialGradient id="z" cx="0" cy="0" gradientTransform="matrix(0 .656247 -10.5757 0 22.75 20.6118)" gradientUnits="userSpaceOnUse" r="1" xlink:href="#p"/><path d="m25 5.95557h-18v22.00003h18z" fill="url(#e)"/><path d="m23.02 1.95557h-3.03c-.55 0-.99.44-.99.98v1.02h5v-1.02c0-.54-.44-.98-.98-.98z" fill="url(#f)"/><path d="m23.02 1.95557h-3.03c-.55 0-.99.44-.99.98v1.02h5v-1.02c0-.54-.44-.98-.98-.98z" fill="url(#g)"/><path d="m23.02 1.95557h-3.03c-.55 0-.99.44-.99.98v1.02h5v-1.02c0-.54-.44-.98-.98-.98z" fill="url(#h)"/><path d="m23.02 1.95557h-3.03c-.55 0-.99.44-.99.98v1.02h5v-1.02c0-.54-.44-.98-.98-.98z" fill="url(#i)"/><path d="m24 5.95557h-2v22.00003h2z" fill="url(#j)"/><path d="m21 5.95557h-1v22.00003h1z" fill="url(#k)"/><g filter="url(#a)"><path d="m7.25 13.7057h17.5v.374969h-17.5z" fill="#3c62a7"/></g><g filter="url(#b)"><path d="m7.25 5.69006h17.5v.374969h-17.5z" fill="#3c62a7"/></g><g filter="url(#c)"><path d="m7.25 21.6823h17.5v.374969h-17.5z" fill="#3c62a7"/></g><g filter="url(#d)"><path d="m7.25 27.8541h17.5v.374969h-17.5z" fill="#3c62a7"/></g><path d="m25 29.9556h-18c-.55 0-1-.45-1-1s.45-1 1-1h18c.55 0 1 .45 1 1s-.45 1-1 1z" fill="url(#m)"/><path d="m25 29.9556h-18c-.55 0-1-.45-1-1s.45-1 1-1h18c.55 0 1 .45 1 1s-.45 1-1 1z" fill="url(#o)"/><path d="m25 29.9556h-18c-.55 0-1-.45-1-1s.45-1 1-1h18c.55 0 1 .45 1 1s-.45 1-1 1z" fill="url(#q)"/><path d="m25 5.95557h-18c-.55 0-1-.45-1-1s.45-1 1-1h18c.55 0 1 .45 1 1s-.45 1-1 1z" fill="url(#r)"/><path d="m25 5.95557h-18c-.55 0-1-.45-1-1s.45-1 1-1h18c.55 0 1 .45 1 1s-.45 1-1 1z" fill="url(#s)"/><path d="m25 5.95557h-18c-.55 0-1-.45-1-1s.45-1 1-1h18c.55 0 1 .45 1 1s-.45 1-1 1z" fill="url(#t)"/><path d="m25 13.9556h-18c-.55 0-1-.45-1-1s.45-1 1-1h18c.55 0 1 .45 1 1s-.45 1-1 1z" fill="url(#u)"/><path d="m25 13.9556h-18c-.55 0-1-.45-1-1s.45-1 1-1h18c.55 0 1 .45 1 1s-.45 1-1 1z" fill="url(#v)"/><path d="m25 13.9556h-18c-.55 0-1-.45-1-1s.45-1 1-1h18c.55 0 1 .45 1 1s-.45 1-1 1z" fill="url(#w)"/><path d="m25 21.9556h-18c-.55 0-1-.45-1-1s.45-1 1-1h18c.55 0 1 .45 1 1s-.45 1-1 1z" fill="url(#x)"/><path d="m25 21.9556h-18c-.55 0-1-.45-1-1s.45-1 1-1h18c.55 0 1 .45 1 1s-.45 1-1 1z" fill="url(#y)"/><path d="m25 21.9556h-18c-.55 0-1-.45-1-1s.45-1 1-1h18c.55 0 1 .45 1 1s-.45 1-1 1z" fill="url(#z)"/></svg>