<svg fill="none" height="32" viewBox="0 0 32 32" width="32" xmlns="http://www.w3.org/2000/svg" xmlns:xlink="http://www.w3.org/1999/xlink"><filter id="a" color-interpolation-filters="sRGB" filterUnits="userSpaceOnUse" height="2.031" width="2.031" x="8.134" y="14.683"><feFlood flood-opacity="0" result="BackgroundImageFix"/><feBlend in="SourceGraphic" in2="BackgroundImageFix" mode="normal" result="shape"/><feGaussianBlur result="effect1_foregroundBlur_18_12656" stdDeviation=".125"/></filter><filter id="b" color-interpolation-filters="sRGB" filterUnits="userSpaceOnUse" height="2.068" width="2.068" x="22.565" y="16.487"><feFlood flood-opacity="0" result="BackgroundImageFix"/><feBlend in="SourceGraphic" in2="BackgroundImageFix" mode="normal" result="shape"/><feGaussianBlur result="effect1_foregroundBlur_18_12656" stdDeviation=".125"/></filter><filter id="c" color-interpolation-filters="sRGB" filterUnits="userSpaceOnUse" height="12.375" width="13.058" x="10.505" y="2.113"><feFlood flood-opacity="0" result="BackgroundImageFix"/><feBlend in="SourceGraphic" in2="BackgroundImageFix" mode="normal" result="shape"/><feColorMatrix in="SourceAlpha" result="hardAlpha" type="matrix" values="0 0 0 0 0 0 0 0 0 0 0 0 0 0 0 0 0 0 127 0"/><feOffset dy="-.4"/><feGaussianBlur stdDeviation=".2"/><feComposite in2="hardAlpha" k2="-1" k3="1" operator="arithmetic"/><feColorMatrix type="matrix" values="0 0 0 0 0.27451 0 0 0 0 0.486275 0 0 0 0 0.72549 0 0 0 1 0"/><feBlend in2="shape" mode="normal" result="effect1_innerShadow_18_12656"/></filter><filter id="d" color-interpolation-filters="sRGB" filterUnits="userSpaceOnUse" height="11.286" width="29.714" x="2.407" y="5.918"><feFlood flood-opacity="0" result="BackgroundImageFix"/><feBlend in="SourceGraphic" in2="BackgroundImageFix" mode="normal" result="shape"/><feColorMatrix in="SourceAlpha" result="hardAlpha" type="matrix" values="0 0 0 0 0 0 0 0 0 0 0 0 0 0 0 0 0 0 127 0"/><feOffset dx="1" dy="-1"/><feGaussianBlur stdDeviation="1"/><feComposite in2="hardAlpha" k2="-1" k3="1" operator="arithmetic"/><feColorMatrix type="matrix" values="0 0 0 0 0.537255 0 0 0 0 0.498039 0 0 0 0 0.678431 0 0 0 1 0"/><feBlend in2="shape" mode="normal" result="effect1_innerShadow_18_12656"/></filter><filter id="e" color-interpolation-filters="sRGB" filterUnits="userSpaceOnUse" height="6.093" width="6.21" x="2.579" y="1.822"><feFlood flood-opacity="0" result="BackgroundImageFix"/><feBlend in="SourceGraphic" in2="BackgroundImageFix" mode="normal" result="shape"/><feColorMatrix in="SourceAlpha" result="hardAlpha" type="matrix" values="0 0 0 0 0 0 0 0 0 0 0 0 0 0 0 0 0 0 127 0"/><feOffset dy=".25"/><feGaussianBlur stdDeviation=".125"/><feComposite in2="hardAlpha" k2="-1" k3="1" operator="arithmetic"/><feColorMatrix type="matrix" values="0 0 0 0 0.301961 0 0 0 0 0.752941 0 0 0 0 1 0 0 0 1 0"/><feBlend in2="shape" mode="normal" result="effect1_innerShadow_18_12656"/></filter><filter id="f" color-interpolation-filters="sRGB" filterUnits="userSpaceOnUse" height="10.146" width="13.378" x="8.857" y="12.21"><feFlood flood-opacity="0" result="BackgroundImageFix"/><feBlend in="SourceGraphic" in2="BackgroundImageFix" mode="normal" result="shape"/><feColorMatrix in="SourceAlpha" result="hardAlpha" type="matrix" values="0 0 0 0 0 0 0 0 0 0 0 0 0 0 0 0 0 0 127 0"/><feOffset dx=".05" dy="-.25"/><feGaussianBlur stdDeviation=".25"/><feComposite in2="hardAlpha" k2="-1" k3="1" operator="arithmetic"/><feColorMatrix type="matrix" values="0 0 0 0 0.184314 0 0 0 0 0.439216 0 0 0 0 0.784314 0 0 0 1 0"/><feBlend in2="shape" mode="normal" result="effect1_innerShadow_18_12656"/></filter><filter id="g" color-interpolation-filters="sRGB" filterUnits="userSpaceOnUse" height="8.922" width="12.234" x="9.938" y="13.509"><feFlood flood-opacity="0" result="BackgroundImageFix"/><feBlend in="SourceGraphic" in2="BackgroundImageFix" mode="normal" result="shape"/><feGaussianBlur result="effect1_foregroundBlur_18_12656" stdDeviation=".2"/></filter><linearGradient id="h" gradientUnits="userSpaceOnUse" x1="10.124" x2="8.134" y1="16.058" y2="15.378"><stop offset="0" stop-color="#424050"/><stop offset="1" stop-color="#6d6c71"/></linearGradient><linearGradient id="i"><stop offset="0" stop-color="#656371"/><stop offset="1" stop-color="#6c6a73"/></linearGradient><radialGradient id="j" cx="0" cy="0" gradientTransform="matrix(.6717703 -.28012221 .28012221 .6717703 9.24329 15.6984)" gradientUnits="userSpaceOnUse" r="1" xlink:href="#i"/><linearGradient id="k"><stop offset="0" stop-color="#454255"/><stop offset="1" stop-color="#454255" stop-opacity="0"/></linearGradient><linearGradient id="l" gradientUnits="userSpaceOnUse" x1="9.149" x2="9.149" xlink:href="#k" y1="14.933" y2="15.268"/><linearGradient id="m" gradientUnits="userSpaceOnUse" x1="23.796" x2="23.599" y1="16.506" y2="18.537"><stop offset="0" stop-color="#424050"/><stop offset="1" stop-color="#4e4667"/></linearGradient><radialGradient id="n" cx="0" cy="0" gradientTransform="matrix(.68772015 -.28677316 .28677316 .68772015 23.695 17.5212)" gradientUnits="userSpaceOnUse" r="1" xlink:href="#i"/><linearGradient id="o" gradientUnits="userSpaceOnUse" x1="23.599" x2="23.599" xlink:href="#k" y1="16.737" y2="17.081"/><linearGradient id="p"><stop offset="0" stop-color="#626a78"/><stop offset=".562" stop-color="#818094"/></linearGradient><linearGradient id="q" gradientUnits="userSpaceOnUse" x1="16.484" x2="16.226" xlink:href="#p" y1="17.567" y2="19.363"/><linearGradient id="r"><stop offset="0" stop-color="#75708a"/><stop offset="1" stop-color="#75708a" stop-opacity="0"/></linearGradient><linearGradient id="s" gradientUnits="userSpaceOnUse" x1="16.618" x2="16.636" xlink:href="#r" y1="19.481" y2="19.152"/><linearGradient id="t"><stop offset=".104" stop-color="#aeadb3"/><stop offset="1" stop-color="#aeadb3" stop-opacity="0"/></linearGradient><radialGradient id="u" cx="0" cy="0" gradientTransform="matrix(-1.10595631 .00723857 -.00775726 -1.18520461 18.485 18.4765)" gradientUnits="userSpaceOnUse" r="1" xlink:href="#t"/><linearGradient id="v" gradientUnits="userSpaceOnUse" x1="17.511" x2="17.253" xlink:href="#p" y1="7.793" y2="9.59"/><linearGradient id="w" gradientUnits="userSpaceOnUse" x1="17.644" x2="17.663" xlink:href="#r" y1="9.708" y2="9.378"/><radialGradient id="x" cx="0" cy="0" gradientTransform="matrix(-1.43861819 .05554274 -.05952262 -1.54170139 20.0878 8.76317)" gradientUnits="userSpaceOnUse" r="1" xlink:href="#t"/><linearGradient id="y" gradientUnits="userSpaceOnUse" x1="15.977" x2="15.977" y1="23.927" y2="29.808"><stop offset="0" stop-color="#605e6b"/><stop offset="1" stop-color="#777484"/></linearGradient><linearGradient id="z" gradientUnits="userSpaceOnUse" x1="16.596" x2="11.671" y1="9.788" y2="2.495"><stop offset="0" stop-color="#319ddb"/><stop offset="1" stop-color="#33b1f3"/></linearGradient><linearGradient id="A" gradientUnits="userSpaceOnUse" x1="16.846" x2="16.495" y1="6.565" y2="6.865"><stop offset="0" stop-color="#49aee8"/><stop offset="1" stop-color="#49aee8" stop-opacity="0"/></linearGradient><radialGradient id="B" cx="0" cy="0" gradientTransform="matrix(21.99997303 -13.81249196 14.16146521 22.55580337 9.10808 23.9327)" gradientUnits="userSpaceOnUse" r="1"><stop offset=".847" stop-color="#fff" stop-opacity="0"/><stop offset="1" stop-color="#fff"/></radialGradient><linearGradient id="C" gradientUnits="userSpaceOnUse" x1="15.734" x2="15.565" y1="7.588" y2="9.08"><stop offset="0" stop-color="#b6b6b7"/><stop offset="1" stop-color="#b6b6b7" stop-opacity="0"/></linearGradient><radialGradient id="D" cx="0" cy="0" gradientTransform="matrix(-5.2146943 2.73301739 -.6492418 -1.23877643 13.1943 15.353)" gradientUnits="userSpaceOnUse" r="1"><stop offset=".087" stop-color="#7f81a3"/><stop offset="1" stop-color="#7f81a3" stop-opacity="0"/></radialGradient><radialGradient id="E" cx="0" cy="0" gradientTransform="matrix(3.7519501 2.68100507 -1.03006189 1.44152686 2.77323 6.9748)" gradientUnits="userSpaceOnUse" r="1"><stop offset="0" stop-color="#c2c2c8"/><stop offset="1" stop-color="#c2c2c8" stop-opacity="0"/></radialGradient><radialGradient id="F" cx="0" cy="0" gradientTransform="matrix(4.49999651 -1.22719425 3.36186392 12.32761306 2.23308 11.4723)" gradientUnits="userSpaceOnUse" r="1"><stop offset=".201" stop-color="#b9b7c1"/><stop offset="1" stop-color="#b9b7c1" stop-opacity="0"/></radialGradient><radialGradient id="G" cx="0" cy="0" gradientTransform="matrix(4.93749851 6.10220105 -1.77663072 1.43753237 3.98308 5.37015)" gradientUnits="userSpaceOnUse" r="1"><stop offset="0" stop-color="#e1e1e5"/><stop offset="1" stop-color="#e1e1e5" stop-opacity="0"/></radialGradient><linearGradient id="H" gradientUnits="userSpaceOnUse" x1="17.264" x2="16.858" y1="8.558" y2="11.472"><stop offset="0" stop-color="#e6e5e9"/><stop offset="1" stop-color="#e6e5e9" stop-opacity="0"/></linearGradient><linearGradient id="I" gradientUnits="userSpaceOnUse" x1="26.288" x2="32.548" y1="12.759" y2="13.374"><stop offset="0" stop-color="#83f6ff"/><stop offset=".1" stop-color="#95e9f7"/></linearGradient><linearGradient id="J" gradientUnits="userSpaceOnUse" x1="27.202" x2="27.577" y1="11.12" y2="13.605"><stop offset=".408" stop-color="#4baac5"/><stop offset="1" stop-color="#4baac5" stop-opacity="0"/></linearGradient><linearGradient id="K" gradientUnits="userSpaceOnUse" x1="5.704" x2="5.945" y1="7.834" y2="2.025"><stop offset=".072" stop-color="#3ba4e7"/><stop offset="1" stop-color="#3ba9f1"/><stop offset="1" stop-color="#3aaaf0"/></linearGradient><linearGradient id="L" gradientUnits="userSpaceOnUse" x1="2.806" x2="3.326" y1="5.575" y2="5.634"><stop offset="0" stop-color="#4685c2"/><stop offset="1" stop-color="#4685c2" stop-opacity="0"/></linearGradient><linearGradient id="M" gradientUnits="userSpaceOnUse" x1="21.376" x2="8.981" y1="12.95" y2="22.001"><stop offset="0" stop-color="#3d91d5"/><stop offset="1" stop-color="#3fbbff"/></linearGradient><linearGradient id="N" gradientUnits="userSpaceOnUse" x1="16.575" x2="16.065" y1="18.822" y2="18.088"><stop offset="0" stop-color="#41b6fd"/><stop offset="1" stop-color="#41b6fd" stop-opacity="0"/></linearGradient><linearGradient id="O" gradientUnits="userSpaceOnUse" x1="21.812" x2="11.263" y1="14.194" y2="21.585"><stop offset="0" stop-color="#62a8e8"/><stop offset="1" stop-color="#66c9ff"/></linearGradient><clipPath id="P"><path d="m0 0h32v32h-32z"/></clipPath><g clip-path="url(#P)"><circle cx="9.149" cy="15.698" fill="url(#h)" r="1.016"/><g filter="url(#a)"><circle cx="9.149" cy="15.698" fill="url(#j)" r=".766"/><circle cx="9.149" cy="15.698" fill="url(#l)" r=".766"/></g><circle cx="23.599" cy="17.521" fill="url(#m)" r="1.016"/><g filter="url(#b)"><circle cx="23.599" cy="17.521" fill="url(#n)" r=".784"/><circle cx="23.599" cy="17.521" fill="url(#o)" r=".784"/></g><rect fill="url(#q)" height="1.801" rx=".844" transform="matrix(.99945756 .03293294 -.03293294 .99945756 .585962 -.450478)" width="4.516" x="13.968" y="17.563"/><rect fill="url(#s)" height="1.801" rx=".844" transform="matrix(.99945756 .03293294 -.03293294 .99945756 .585962 -.450478)" width="4.516" x="13.968" y="17.563"/><rect fill="url(#u)" height="1.801" rx=".844" transform="matrix(.99945756 .03293294 -.03293294 .99945756 .585962 -.450478)" width="4.516" x="13.968" y="17.563"/><rect fill="url(#v)" height="1.801" rx=".844" transform="matrix(.99945756 .03293294 -.03293294 .99945756 .26465 -.489595)" width="4.516" x="14.995" y="7.789"/><rect fill="url(#w)" height="1.801" rx=".844" transform="matrix(.99945756 .03293294 -.03293294 .99945756 .26465 -.489595)" width="4.516" x="14.995" y="7.789"/><rect fill="url(#x)" height="1.801" rx=".844" transform="matrix(.99945756 .03293294 -.03293294 .99945756 .26465 -.489595)" width="4.516" x="14.995" y="7.789"/><path d="m1.97673 23.9272h28.0016v5.88049h-28.0016z" fill="url(#y)"/><g filter="url(#c)"><path d="m15.1557 13.4887 8.4081.9989-9.8382-11.34567c-.298-.34499-.7176-.56383-1.1673-.61537-1.4687-.17617-2.5332 1.37408-1.832 2.6852z" fill="url(#z)"/><path d="m15.1557 13.4887 8.4081.9989-9.8382-11.34567c-.298-.34499-.7176-.56383-1.1673-.61537-1.4687-.17617-2.5332 1.37408-1.832 2.6852z" fill="url(#A)"/></g><g filter="url(#d)"><path d="m2.57898 6.91837-.12692 1.02646c-.23686 1.95883.47131 3.90357 1.89711 5.26367.97407.9288 2.21923 1.5129 3.55577 1.6715l19.26526 2.3006c1.9268.2262 3.6846-1.1958 3.9235-3.1932.2389-1.9973-1.1361-3.8-3.0629-4.02621z" fill="#d6d4e4"/></g><path d="m2.57898 6.91837-.12692 1.02646c-.23686 1.95883.47131 3.90357 1.89711 5.26367.97407.9288 2.21923 1.5129 3.55577 1.6715l19.26526 2.3006c1.9268.2262 3.6846-1.1958 3.9235-3.1932.2389-1.9973-1.1361-3.8-3.0629-4.02621z" fill="url(#B)"/><path d="m2.57898 6.91837-.12692 1.02646c-.23686 1.95883.47131 3.90357 1.89711 5.26367.97407.9288 2.21923 1.5129 3.55577 1.6715l19.26526 2.3006c1.9268.2262 3.6846-1.1958 3.9235-3.1932.2389-1.9973-1.1361-3.8-3.0629-4.02621z" fill="url(#C)"/><path d="m2.57898 6.91837-.12692 1.02646c-.23686 1.95883.47131 3.90357 1.89711 5.26367.97407.9288 2.21923 1.5129 3.55577 1.6715l19.26526 2.3006c1.9268.2262 3.6846-1.1958 3.9235-3.1932.2389-1.9973-1.1361-3.8-3.0629-4.02621z" fill="url(#D)"/><path d="m2.57898 6.91837-.12692 1.02646c-.23686 1.95883.47131 3.90357 1.89711 5.26367.97407.9288 2.21923 1.5129 3.55577 1.6715l19.26526 2.3006c1.9268.2262 3.6846-1.1958 3.9235-3.1932.2389-1.9973-1.1361-3.8-3.0629-4.02621z" fill="url(#E)"/><path d="m2.57898 6.91837-.12692 1.02646c-.23686 1.95883.47131 3.90357 1.89711 5.26367.97407.9288 2.21923 1.5129 3.55577 1.6715l19.26526 2.3006c1.9268.2262 3.6846-1.1958 3.9235-3.1932.2389-1.9973-1.1361-3.8-3.0629-4.02621z" fill="url(#F)"/><path d="m2.57898 6.91837-.12692 1.02646c-.23686 1.95883.47131 3.90357 1.89711 5.26367.97407.9288 2.21923 1.5129 3.55577 1.6715l19.26526 2.3006c1.9268.2262 3.6846-1.1958 3.9235-3.1932.2389-1.9973-1.1361-3.8-3.0629-4.02621z" fill="url(#G)"/><path d="m2.57898 6.91837-.12692 1.02646c-.23686 1.95883.47131 3.90357 1.89711 5.26367.97407.9288 2.21923 1.5129 3.55577 1.6715l19.26526 2.3006c1.9268.2262 3.6846-1.1958 3.9235-3.1932.2389-1.9973-1.1361-3.8-3.0629-4.02621z" fill="url(#H)"/><path clip-rule="evenodd" d="m30.9433 12.4017-3.686-.4424c-.4362-.0593-.8271.2491-.8714.6832-.0529.4277.2555.8186.6832.8715l4.0239.4788c.0003-.0017.0005-.0035.0007-.0053.0662-.5533.0085-1.0917-.1504-1.5858z" fill="url(#I)" fill-rule="evenodd"/><path clip-rule="evenodd" d="m30.9433 12.4017-3.686-.4424c-.4362-.0593-.8271.2491-.8714.6832-.0529.4277.2555.8186.6832.8715l4.0239.4788c.0003-.0017.0005-.0035.0007-.0053.0662-.5533.0085-1.0917-.1504-1.5858z" fill="url(#J)" fill-rule="evenodd"/><g filter="url(#e)"><path d="m8.78904 7.66502-1.46685-3.28646c-.63688-1.39748-1.95312-2.36856-3.48425-2.55254-.35712-.04015-.67963.21258-.71978.5697l-.53919 4.52282z" fill="url(#K)"/><path d="m8.78904 7.66502-1.46685-3.28646c-.63688-1.39748-1.95312-2.36856-3.48425-2.55254-.35712-.04015-.67963.21258-.71978.5697l-.53919 4.52282z" fill="url(#L)"/></g><g filter="url(#f)"><path d="m16.195 12.4702 5.1223.6064c.891.1021 1.1873 1.2508.4564 1.779l-10.044 7.1598c-.3698.2608-.8215.3798-1.267.3287-1.45491-.1745-2.12217-1.9231-1.14237-3.0175l5.74557-6.4246c.2922-.3188.7137-.4872 1.1291-.4318z" fill="url(#M)"/></g><path d="m16.195 12.4702 5.1223.6064c.891.1021 1.1873 1.2508.4564 1.779l-10.044 7.1598c-.3698.2608-.8215.3798-1.267.3287-1.45491-.1745-2.12217-1.9231-1.14237-3.0175l5.74557-6.4246c.2922-.3188.7137-.4872 1.1291-.4318z" fill="url(#N)"/><g fill="#a6a3b4"><rect height="1.08" rx=".54" width="4.035" x="3.624" y="26.287"/><rect height="1.08" rx=".54" width="4.035" x="10.343" y="26.287"/><rect height="1.08" rx=".54" width="4.035" x="16.908" y="26.287"/><rect height="1.08" rx=".54" width="4.035" x="23.627" y="26.287"/></g><g filter="url(#g)"><path d="m21.5983 14.0342c.0596.1408.1445.4297-.2829.7366s-6.4546 4.6338-9.4691 6.7903c-.2485.1852-.9732.5295-1.383.223" stroke="url(#O)" stroke-linecap="round" stroke-width=".25"/></g></g></svg>