<svg fill="none" height="32" viewBox="0 0 32 32" width="32" xmlns="http://www.w3.org/2000/svg" xmlns:xlink="http://www.w3.org/1999/xlink"><filter id="a" color-interpolation-filters="sRGB" filterUnits="userSpaceOnUse" height="16.364" width="13.723" x="16.026" y="12.794"><feFlood flood-opacity="0" result="BackgroundImageFix"/><feBlend in="SourceGraphic" in2="BackgroundImageFix" mode="normal" result="shape"/><feColorMatrix in="SourceAlpha" result="hardAlpha" type="matrix" values="0 0 0 0 0 0 0 0 0 0 0 0 0 0 0 0 0 0 127 0"/><feOffset dx="-.3" dy=".5"/><feGaussianBlur stdDeviation=".375"/><feComposite in2="hardAlpha" k2="-1" k3="1" operator="arithmetic"/><feColorMatrix type="matrix" values="0 0 0 0 0.447059 0 0 0 0 0.384314 0 0 0 0 0.505882 0 0 0 1 0"/><feBlend in2="shape" mode="normal" result="effect1_innerShadow_18_12983"/><feColorMatrix in="SourceAlpha" result="hardAlpha" type="matrix" values="0 0 0 0 0 0 0 0 0 0 0 0 0 0 0 0 0 0 127 0"/><feOffset dx=".3" dy="-.5"/><feGaussianBlur stdDeviation=".375"/><feComposite in2="hardAlpha" k2="-1" k3="1" operator="arithmetic"/><feColorMatrix type="matrix" values="0 0 0 0 0.235294 0 0 0 0 0.176471 0 0 0 0 0.290196 0 0 0 1 0"/><feBlend in2="effect1_innerShadow_18_12983" mode="normal" result="effect2_innerShadow_18_12983"/></filter><filter id="b" color-interpolation-filters="sRGB" filterUnits="userSpaceOnUse" height="16.368" width="13.728" x="1.336" y="2.596"><feFlood flood-opacity="0" result="BackgroundImageFix"/><feBlend in="SourceGraphic" in2="BackgroundImageFix" mode="normal" result="shape"/><feColorMatrix in="SourceAlpha" result="hardAlpha" type="matrix" values="0 0 0 0 0 0 0 0 0 0 0 0 0 0 0 0 0 0 127 0"/><feOffset dx="-.3" dy=".5"/><feGaussianBlur stdDeviation=".375"/><feComposite in2="hardAlpha" k2="-1" k3="1" operator="arithmetic"/><feColorMatrix type="matrix" values="0 0 0 0 0.352941 0 0 0 0 0.352941 0 0 0 0 0.352941 0 0 0 1 0"/><feBlend in2="shape" mode="normal" result="effect1_innerShadow_18_12983"/><feColorMatrix in="SourceAlpha" result="hardAlpha" type="matrix" values="0 0 0 0 0 0 0 0 0 0 0 0 0 0 0 0 0 0 127 0"/><feOffset dx=".3" dy="-.5"/><feGaussianBlur stdDeviation=".375"/><feComposite in2="hardAlpha" k2="-1" k3="1" operator="arithmetic"/><feColorMatrix type="matrix" values="0 0 0 0 0.294118 0 0 0 0 0.211765 0 0 0 0 0.380392 0 0 0 1 0"/><feBlend in2="effect1_innerShadow_18_12983" mode="normal" result="effect2_innerShadow_18_12983"/></filter><linearGradient id="c"><stop offset="0" stop-color="#281e30"/><stop offset="1" stop-color="#515152"/></linearGradient><linearGradient id="d" gradientUnits="userSpaceOnUse" x1="19.448" x2="19.837" xlink:href="#c" y1="18.872" y2="18.317"/><linearGradient id="e" gradientUnits="userSpaceOnUse" x1="20.378" x2="18.843" y1="9.01" y2="11.218"><stop offset="0" stop-color="#c0c0c1"/><stop offset=".203" stop-color="#92899b"/><stop offset=".784" stop-color="#92899b"/><stop offset="1" stop-color="#6e5286"/></linearGradient><linearGradient id="f" gradientUnits="userSpaceOnUse" x1="16.109" x2="20.14" y1="7.89" y2="11.046"><stop offset="0" stop-color="#838284"/><stop offset="1" stop-color="#838284" stop-opacity="0"/></linearGradient><linearGradient id="g" gradientUnits="userSpaceOnUse" x1="18.559" x2="27.22" y1="27.211" y2="14.742"><stop offset="0" stop-color="#312d37"/><stop offset="1" stop-color="#473855"/></linearGradient><linearGradient id="h"><stop offset="0" stop-color="#252229"/><stop offset="1" stop-color="#252229" stop-opacity="0"/></linearGradient><linearGradient id="i" gradientUnits="userSpaceOnUse" x1="26.553" x2="25.834" xlink:href="#h" y1="21.46" y2="20.976"/><linearGradient id="j" gradientUnits="userSpaceOnUse" x1="20.805" x2="21.677" xlink:href="#h" y1="18.325" y2="18.828"/><linearGradient id="k"><stop offset="0" stop-color="#28202f"/><stop offset="1" stop-color="#21122f"/></linearGradient><linearGradient id="l" gradientUnits="userSpaceOnUse" x1="11.705" x2="13.234" xlink:href="#k" y1="21.382" y2="19.181"/><linearGradient id="m" gradientUnits="userSpaceOnUse" x1="18.585" x2="21.116" y1="13.388" y2="11.388"><stop offset="0" stop-color="#939195"/><stop offset="1" stop-color="#7a6d87"/></linearGradient><linearGradient id="n" gradientUnits="userSpaceOnUse" x1="14.905" x2="17.46" y1="10.075" y2="11.825"><stop offset="0" stop-color="#70667a"/><stop offset="1" stop-color="#949494" stop-opacity="0"/></linearGradient><linearGradient id="o" gradientUnits="userSpaceOnUse" x1="21.101" x2="20.726" y1="12.481" y2="12.919"><stop offset="0" stop-color="#58406e"/><stop offset="1" stop-color="#58406e" stop-opacity="0"/></linearGradient><linearGradient id="p" gradientUnits="userSpaceOnUse" x1="8.153" x2="9.682" xlink:href="#k" y1="26.52" y2="24.318"/><radialGradient id="q" cx="0" cy="0" gradientTransform="matrix(0 1.81327 -2.96952 0 7.90637 26.36)" gradientUnits="userSpaceOnUse" r="1"><stop offset=".384" stop-color="#a99eb4"/><stop offset="1" stop-color="#a27fc3"/></radialGradient><radialGradient id="r" cx="0" cy="0" gradientTransform="matrix(.10253067 -3.15624508 2.78328182 .09041495 7.80383 28.5751)" gradientUnits="userSpaceOnUse" r="1"><stop offset=".732" stop-color="#8f8898" stop-opacity="0"/><stop offset=".953" stop-color="#8f8898"/></radialGradient><radialGradient id="s" cx="0" cy="0" gradientTransform="matrix(-1.99997464 2.8750159 -4.57667219 -3.18371398 12.2413 22.7626)" gradientUnits="userSpaceOnUse" r="1"><stop offset="0" stop-color="#cfc9d6"/><stop offset="1" stop-color="#aaa9ab"/></radialGradient><radialGradient id="t" cx="0" cy="0" gradientTransform="matrix(-8.09085211 -5.61428814 .60741 -.87534953 13.3213 26.7749)" gradientUnits="userSpaceOnUse" r="1"><stop offset=".161" stop-color="#9a71be"/><stop offset="1" stop-color="#9a71be" stop-opacity="0"/></radialGradient><radialGradient id="u" cx="0" cy="0" gradientTransform="matrix(-4.6907609 -7.06337176 6.46543437 -4.29367274 12.4407 26.7749)" gradientUnits="userSpaceOnUse" r="1"><stop offset=".718" stop-color="#97949b" stop-opacity="0"/><stop offset="1" stop-color="#97949b"/></radialGradient><linearGradient id="v" gradientUnits="userSpaceOnUse" x1="11.773" x2="12.496" y1="21.346" y2="20.294"><stop offset="0" stop-color="#67616e" stop-opacity="0"/><stop offset=".797" stop-color="#67616e"/></linearGradient><linearGradient id="w"><stop offset="0" stop-color="#7048b7"/><stop offset="1" stop-color="#66559f"/></linearGradient><linearGradient id="x" gradientUnits="userSpaceOnUse" x1="26.2" x2="24.671" xlink:href="#w" y1="16.21" y2="18.411"/><linearGradient id="y" gradientUnits="userSpaceOnUse" x1="23.652" x2="22.123" xlink:href="#w" y1="19.879" y2="22.081"/><linearGradient id="z" gradientUnits="userSpaceOnUse" x1="21.103" x2="19.574" xlink:href="#w" y1="23.548" y2="25.75"/><linearGradient id="A" gradientUnits="userSpaceOnUse" x1="11.248" x2="11.758" xlink:href="#c" y1="13.44" y2="12.706"/><linearGradient id="B" gradientUnits="userSpaceOnUse" x1="3.87" x2="12.535" y1="17.018" y2="4.542"><stop offset="0" stop-color="#4a385c"/><stop offset="1" stop-color="#38363a"/></linearGradient><linearGradient id="C" gradientUnits="userSpaceOnUse" x1="11.866" x2="11.148" xlink:href="#h" y1="11.263" y2="10.779"/><linearGradient id="D" gradientUnits="userSpaceOnUse" x1="6.418" x2="4.889" y1="13.349" y2="15.551"><stop offset="0" stop-color="#6a5ba1"/><stop offset="1" stop-color="#8554e1"/></linearGradient><linearGradient id="E" gradientUnits="userSpaceOnUse" x1="8.967" x2="7.438" y1="9.68" y2="11.881"><stop offset="0" stop-color="#6a5ca1"/><stop offset="1" stop-color="#8656e2"/></linearGradient><linearGradient id="F" gradientUnits="userSpaceOnUse" x1="11.515" x2="9.986" y1="6.01" y2="8.211"><stop offset="0" stop-color="#6d5fa4"/><stop offset="1" stop-color="#8858e2"/></linearGradient><linearGradient id="G" gradientUnits="userSpaceOnUse" x1="13.253" x2="17.84" y1="19.184" y2="12.579"><stop offset="0" stop-color="#8a64aa"/><stop offset=".09" stop-color="#a9a0b2"/><stop offset=".909" stop-color="#a9a0b2"/><stop offset="1" stop-color="#c3c0c6"/></linearGradient><linearGradient id="H" gradientUnits="userSpaceOnUse" x1="11.841" x2="15.546" y1="13.11" y2="15.483"><stop offset="0" stop-color="#8e8d8f"/><stop offset="1" stop-color="#8e8d8f" stop-opacity="0"/></linearGradient><radialGradient id="I" cx="0" cy="0" gradientTransform="matrix(-6.46872756 -3.25003671 3.25011303 -6.46887947 22.3038 20.3563)" gradientUnits="userSpaceOnUse" r="1"><stop offset="0" stop-color="#9689a1"/><stop offset="1" stop-color="#9689a1" stop-opacity="0"/></radialGradient><radialGradient id="J" cx="0" cy="0" gradientTransform="matrix(-3.90625884 -2.59374011 .33806585 -.50913841 22.0226 15.4501)" gradientUnits="userSpaceOnUse" r="1"><stop offset="0" stop-color="#c5c3c7"/><stop offset="1" stop-color="#c5c3c7" stop-opacity="0"/></radialGradient><path d="m20.7421 18.9411-1.7971-1.2482-.5097.7338 1.797 1.2482z" fill="url(#d)"/><path d="m21.5586 13.0825-5.4087-3.7567c-.3302-.22938-.4109-.67708-.1815-1.00733l.6983-1.00541c.2294-.33024.6771-.41093 1.0073-.18154l5.4087 3.75678c.3302.2293.4109.677.1815 1.0073l-.6983 1.0054c-.222.3353-.6771.4109-1.0073.1815z" fill="url(#e)"/><path d="m21.5586 13.0825-5.4087-3.7567c-.3302-.22938-.4109-.67708-.1815-1.00733l.6983-1.00541c.2294-.33024.6771-.41093 1.0073-.18154l5.4087 3.75678c.3302.2293.4109.677.1815 1.0073l-.6983 1.0054c-.222.3353-.6771.4109-1.0073.1815z" fill="url(#f)"/><g filter="url(#a)"><path d="m20.4077 28.5005-3.7061-2.5742c-.3963-.2752-.4949-.8224-.2196-1.2187l7.6664-11.0375c.2752-.3963.8224-.4949 1.2187-.2196l3.706 2.5741c.3963.2753.495.8225.2197 1.2188l-7.6715 11.0448c-.2752.3962-.8173.4875-1.2136.2123z" fill="url(#g)"/></g><path d="m20.4077 28.5005-3.7061-2.5742c-.3963-.2752-.4949-.8224-.2196-1.2187l7.6664-11.0375c.2752-.3963.8224-.4949 1.2187-.2196l3.706 2.5741c.3963.2753.495.8225.2197 1.2188l-7.6715 11.0448c-.2752.3962-.8173.4875-1.2136.2123z" fill="url(#i)"/><path d="m20.4077 28.5005-3.7061-2.5742c-.3963-.2752-.4949-.8224-.2196-1.2187l7.6664-11.0375c.2752-.3963.8224-.4949 1.2187-.2196l3.706 2.5741c.3963.2753.495.8225.2197 1.2188l-7.6715 11.0448c-.2752.3962-.8173.4875-1.2136.2123z" fill="url(#j)"/><path d="m13.6056 19.435-.7338-.5097-1.5292 2.2016.7338.5097z" fill="url(#l)"/><path d="m21.5075 12.9452-5.2839-3.67005-1.3188 1.89865 5.2839 3.6701z" fill="url(#m)"/><path d="m21.5075 12.9452-5.2839-3.67005-1.3188 1.89865 5.2839 3.6701z" fill="url(#n)"/><path d="m21.5075 12.9452-5.2839-3.67005-1.3188 1.89865 5.2839 3.6701z" fill="url(#o)"/><path d="m10.0574 24.5748-.74124-.5149-1.5292 2.2017.74121.5148z" fill="url(#p)"/><path d="m7.14174 27.989c.60796.4223 1.44313.2718 1.86541-.3362.42228-.6079.27175-1.4431-.33621-1.8654-.60796-.4222-1.44313-.2717-1.86541.3362-.42228.608-.27175 1.4432.33621 1.8654z" fill="url(#q)"/><path d="m7.14174 27.989c.60796.4223 1.44313.2718 1.86541-.3362.42228-.6079.27175-1.4431-.33621-1.8654-.60796-.4222-1.44313-.2717-1.86541.3362-.42228.608-.27175 1.4432.33621 1.8654z" fill="url(#r)"/><path d="m12.3763 26.1856-5.3793-3.7363c-.57242-.3976-.59599-1.2408-.05-1.6667 1.50444-1.1635 3.6408-1.2789 5.2847-.1371 1.6438 1.1418 2.2815 3.184 1.7165 5-.2062.6727-.9995.9377-1.5719.5401z" fill="url(#s)"/><path d="m12.3763 26.1856-5.3793-3.7363c-.57242-.3976-.59599-1.2408-.05-1.6667 1.50444-1.1635 3.6408-1.2789 5.2847-.1371 1.6438 1.1418 2.2815 3.184 1.7165 5-.2062.6727-.9995.9377-1.5719.5401z" fill="url(#t)"/><path d="m12.3763 26.1856-5.3793-3.7363c-.57242-.3976-.59599-1.2408-.05-1.6667 1.50444-1.1635 3.6408-1.2789 5.2847-.1371 1.6438 1.1418 2.2815 3.184 1.7165 5-.2062.6727-.9995.9377-1.5719.5401z" fill="url(#u)"/><path d="m12.3763 26.1856-5.3793-3.7363c-.57242-.3976-.59599-1.2408-.05-1.6667 1.50444-1.1635 3.6408-1.2789 5.2847-.1371 1.6438 1.1418 2.2815 3.184 1.7165 5-.2062.6727-.9995.9377-1.5719.5401z" fill="url(#v)"/><path d="m27.0997 16.8296-1.7909-1.244c-.1134-.0788-.2692-.0507-.348.0627l-1.2439 1.791c-.0788.1134-.0507.2692.0627.3479l1.7909 1.244c.1134.0788.2692.0507.348-.0627l1.244-1.791c.0787-.1134.0506-.2692-.0628-.3479z" fill="url(#x)"/><path d="m24.5512 20.499-1.791-1.244c-.1134-.0787-.2692-.0506-.3479.0628l-1.244 1.7909c-.0788.1134-.0507.2692.0627.348l1.791 1.2439c.1134.0788.2691.0507.3479-.0627l1.244-1.7909c.0787-.1134.0507-.2692-.0627-.348z" fill="url(#y)"/><path d="m22.0025 24.1681-1.7909-1.244c-.1134-.0788-.2692-.0507-.348.0627l-1.244 1.791c-.0787.1134-.0506.2692.0628.3479l1.7909 1.244c.1134.0788.2692.0507.348-.0627l1.2439-1.791c.0788-.1134.0507-.2692-.0627-.3479z" fill="url(#z)"/><path d="m11.0297 12.1953 1.4677 1.0195-.5097.7339-1.4678-1.0195z" fill="url(#A)"/><g filter="url(#b)"><path d="m10.6823 3.25039 3.706 2.57416c.3963.27525.495.82244.2197 1.21873l-7.6715 11.04482c-.27526.3963-.82244.4949-1.21874.2196l-3.70606-2.5741c-.39629-.2753-.49491-.8225-.21966-1.2187l7.6715-11.04485c.28259-.3912.82246-.49491 1.21876-.21966z" fill="url(#B)"/></g><path d="m10.6823 3.25039 3.706 2.57416c.3963.27525.495.82244.2197 1.21873l-7.6715 11.04482c-.27526.3963-.82244.4949-1.21874.2196l-3.70606-2.5741c-.39629-.2753-.49491-.8225-.21966-1.2187l7.6715-11.04485c.28259-.3912.82246-.49491 1.21876-.21966z" fill="url(#C)"/><path d="m5.17873 12.7875c.07877-.1134.23455-.1415.34795-.0627l1.79096 1.2439c.1134.0788.14148.2346.06271.348l-1.24396 1.7909c-.07877.1134-.23455.1415-.34795.0628l-1.79096-1.244c-.1134-.0788-.14148-.2346-.06271-.348z" fill="url(#D)"/><path d="m7.72744 9.11817c.07876-.1134.23455-.14148.34795-.06271l1.79096 1.24394c.1134.0788.14145.2346.06271.348l-1.24397 1.7909c-.07876.1134-.23454.1415-.34794.0627l-1.79097-1.2439c-.1134-.0788-.14147-.2346-.06271-.348z" fill="url(#E)"/><path d="m10.276 5.44837c.0788-.1134.2346-.14148.348-.06271l1.7909 1.24397c.1134.07876.1415.23454.0627.34794l-1.2439 1.79097c-.0788.1134-.2346.14147-.348.06271l-1.79093-1.24397c-.1134-.07876-.14148-.23455-.06271-.34795z" fill="url(#F)"/><path d="m15.9592 21.0587-5.4087-3.7568c-.3302-.2294-.4109-.6771-.1815-1.0073l3.7567-5.4087c.2294-.3302.6771-.4109 1.0073-.1815l5.4087 3.7567c.3302.2294.4109.6771.1815 1.0074l-3.7567 5.4086c-.2221.3353-.6771.4109-1.0073.1816z" fill="url(#G)"/><path d="m15.9592 21.0587-5.4087-3.7568c-.3302-.2294-.4109-.6771-.1815-1.0073l3.7567-5.4087c.2294-.3302.6771-.4109 1.0073-.1815l5.4087 3.7567c.3302.2294.4109.6771.1815 1.0074l-3.7567 5.4086c-.2221.3353-.6771.4109-1.0073.1816z" fill="url(#H)"/><path d="m15.9592 21.0587-5.4087-3.7568c-.3302-.2294-.4109-.6771-.1815-1.0073l3.7567-5.4087c.2294-.3302.6771-.4109 1.0073-.1815l5.4087 3.7567c.3302.2294.4109.6771.1815 1.0074l-3.7567 5.4086c-.2221.3353-.6771.4109-1.0073.1816z" fill="url(#I)"/><path d="m15.9592 21.0587-5.4087-3.7568c-.3302-.2294-.4109-.6771-.1815-1.0073l3.7567-5.4087c.2294-.3302.6771-.4109 1.0073-.1815l5.4087 3.7567c.3302.2294.4109.6771.1815 1.0074l-3.7567 5.4086c-.2221.3353-.6771.4109-1.0073.1816z" fill="url(#J)"/></svg>