<svg fill="none" height="32" viewBox="0 0 32 32" width="32" xmlns="http://www.w3.org/2000/svg" xmlns:xlink="http://www.w3.org/1999/xlink"><filter id="a" color-interpolation-filters="sRGB" filterUnits="userSpaceOnUse" height="15.679" width="10.436" x="14.687" y="4.667"><feFlood flood-opacity="0" result="BackgroundImageFix"/><feBlend in="SourceGraphic" in2="BackgroundImageFix" mode="normal" result="shape"/><feGaussianBlur result="effect1_foregroundBlur_7320_6120" stdDeviation="1"/></filter><filter id="b" color-interpolation-filters="sRGB" filterUnits="userSpaceOnUse" height="17.881" width="14.114" x="16.229" y="4.527"><feFlood flood-opacity="0" result="BackgroundImageFix"/><feBlend in="SourceGraphic" in2="BackgroundImageFix" mode="normal" result="shape"/><feGaussianBlur result="effect1_foregroundBlur_7320_6120" stdDeviation=".75"/></filter><filter id="c" color-interpolation-filters="sRGB" filterUnits="userSpaceOnUse" height="21.845" width="12.852" x="5.192" y="3.742"><feFlood flood-opacity="0" result="BackgroundImageFix"/><feBlend in="SourceGraphic" in2="BackgroundImageFix" mode="normal" result="shape"/><feGaussianBlur result="effect1_foregroundBlur_7320_6120" stdDeviation="1.5"/></filter><filter id="d" color-interpolation-filters="sRGB" filterUnits="userSpaceOnUse" height="5.715" width="8.649" x="7.316" y="5.256"><feFlood flood-opacity="0" result="BackgroundImageFix"/><feBlend in="SourceGraphic" in2="BackgroundImageFix" mode="normal" result="shape"/><feGaussianBlur result="effect1_foregroundBlur_7320_6120" stdDeviation=".5"/></filter><filter id="e" color-interpolation-filters="sRGB" filterUnits="userSpaceOnUse" height="21.875" width="16" x="1.625" y="8.462"><feFlood flood-opacity="0" result="BackgroundImageFix"/><feBlend in="SourceGraphic" in2="BackgroundImageFix" mode="normal" result="shape"/><feGaussianBlur result="effect1_foregroundBlur_7320_6120" stdDeviation="1"/></filter><radialGradient id="f" cx="0" cy="0" gradientTransform="matrix(0 23.8283 -29.4623 0 15.7698 5.6335)" gradientUnits="userSpaceOnUse" r="1"><stop offset=".255" stop-color="#bc7c65"/><stop offset=".528" stop-color="#a55f63"/><stop offset="1" stop-color="#97505e"/></radialGradient><radialGradient id="g" cx="0" cy="0" gradientTransform="matrix(16.37500943 -25.500041 23.88261223 15.33636752 12.2147 29.6894)" gradientUnits="userSpaceOnUse" r="1"><stop offset=".801" stop-color="#d69f8e" stop-opacity="0"/><stop offset="1" stop-color="#d69f8e"/></radialGradient><linearGradient id="h" gradientUnits="userSpaceOnUse" x1="17.632" x2="25.645" y1="16.133" y2="25.668"><stop offset=".74" stop-color="#c172ff" stop-opacity="0"/><stop offset=".934" stop-color="#c172ff"/></linearGradient><radialGradient id="i" cx="0" cy="0" gradientTransform="matrix(-13.56307168 11.63851559 -16.66111389 -19.41621165 22.5 11.4618)" gradientUnits="userSpaceOnUse" r="1"><stop offset=".694" stop-color="#a45843" stop-opacity="0"/><stop offset="1" stop-color="#6c384f"/></radialGradient><linearGradient id="j" gradientUnits="userSpaceOnUse" x1="11.687" x2="11.687" y1="29.538" y2="21.975"><stop offset="0" stop-color="#9f4e6e"/><stop offset="1" stop-color="#9f4e6e" stop-opacity="0"/></linearGradient><linearGradient id="k" gradientUnits="userSpaceOnUse" x1="16.639" x2="7.188" y1="16.53" y2="27.18"><stop offset=".694" stop-color="#c172ff" stop-opacity="0"/><stop offset=".885" stop-color="#c172ff"/></linearGradient><radialGradient id="l" cx="0" cy="0" gradientTransform="matrix(-19.37502269 -9.12504254 7.93619603 -16.85076835 22 14.9618)" gradientUnits="userSpaceOnUse" r="1"><stop offset=".716" stop-color="#945746" stop-opacity="0"/><stop offset="1" stop-color="#6c384f"/></radialGradient><radialGradient id="m" cx="0" cy="0" gradientTransform="matrix(-11.87492125 -14.62512107 21.03683811 -17.08093867 17.125 17.9618)" gradientUnits="userSpaceOnUse" r="1"><stop offset=".663" stop-color="#905c4e" stop-opacity="0"/><stop offset="1" stop-color="#7e4f42"/></radialGradient><radialGradient id="n" cx="0" cy="0" gradientTransform="matrix(.11481552 17.91003198 -20.52377827 .13157142 15.4472 13.8154)" gradientUnits="userSpaceOnUse" r="1"><stop offset=".821" stop-color="#c172ff" stop-opacity="0"/><stop offset=".934" stop-color="#c172ff"/></radialGradient><linearGradient id="o" gradientUnits="userSpaceOnUse" x1="17.125" x2="18.887" y1="7.419" y2="8.837"><stop offset="0" stop-color="#915c4e"/><stop offset=".68" stop-color="#905c4e" stop-opacity="0"/></linearGradient><linearGradient id="p"><stop offset=".105" stop-color="#975243"/><stop offset="1" stop-color="#a55f50" stop-opacity="0"/></linearGradient><linearGradient id="q" gradientUnits="userSpaceOnUse" x1="17.312" x2="27" xlink:href="#p" y1="18.913" y2="-2.087"/><linearGradient id="r" gradientUnits="userSpaceOnUse" x1="14.937" x2="19.062" xlink:href="#p" y1="9.288" y2="7.726"/><radialGradient id="s" cx="0" cy="0" gradientTransform="matrix(-5.93750242 11.18753571 -4.43076056 -2.35151442 27.3339 7.53814)" gradientUnits="userSpaceOnUse" r="1"><stop offset="0" stop-color="#d69f8e"/><stop offset="1" stop-color="#d6928e" stop-opacity="0"/></radialGradient><linearGradient id="t"><stop offset="0" stop-color="#d69f8e"/><stop offset="1" stop-color="#d69f8e" stop-opacity="0"/></linearGradient><radialGradient id="u" cx="0" cy="0" gradientTransform="matrix(-5.87497859 -7.81251861 3.38141444 -2.54280834 16.4995 16.7254)" gradientUnits="userSpaceOnUse" r="1" xlink:href="#t"/><linearGradient id="v" gradientUnits="userSpaceOnUse" x1="7.063" x2="13.563" xlink:href="#t" y1="6.321" y2="6.962"/><linearGradient id="w" gradientUnits="userSpaceOnUse" x1="18.563" x2="10.563" y1="30.399" y2="16.649"><stop offset="0" stop-color="#924563"/><stop offset="1" stop-color="#924563" stop-opacity="0"/></linearGradient><path d="m15.1041 29.2015c.535.2985 1.1786.282 1.7105-.022 3.583-2.0477 9.8094-6.7616 12.2546-12.8847 3.5891-7.9724-4.8381-14.33646-10.6624-9.7592-.6076.47747-1.3715 1.02394-1.8972 1.54159-.2377.23405-.6565.25792-.9033.03342-.6911-.62884-1.7713-1.4355-2.465-1.90484-4.96538-3.35938-13.999993 1.06886-10.14615 10.51973 1.41176 4.2422 8.13925 10.2607 12.10895 12.476z" fill="url(#f)"/><path d="m15.1041 29.2015c.535.2985 1.1786.282 1.7105-.022 3.583-2.0477 9.8094-6.7616 12.2546-12.8847 3.5891-7.9724-4.8381-14.33646-10.6624-9.7592-.6076.47747-1.3715 1.02394-1.8972 1.54159-.2377.23405-.6565.25792-.9033.03342-.6911-.62884-1.7713-1.4355-2.465-1.90484-4.96538-3.35938-13.999993 1.06886-10.14615 10.51973 1.41176 4.2422 8.13925 10.2607 12.10895 12.476z" fill="url(#g)"/><path d="m15.1041 29.2015c.535.2985 1.1786.282 1.7105-.022 3.583-2.0477 9.8094-6.7616 12.2546-12.8847 3.5891-7.9724-4.8381-14.33646-10.6624-9.7592-.6076.47747-1.3715 1.02394-1.8972 1.54159-.2377.23405-.6565.25792-.9033.03342-.6911-.62884-1.7713-1.4355-2.465-1.90484-4.96538-3.35938-13.999993 1.06886-10.14615 10.51973 1.41176 4.2422 8.13925 10.2607 12.10895 12.476z" fill="url(#h)"/><path d="m15.1041 29.2015c.535.2985 1.1786.282 1.7105-.022 3.583-2.0477 9.8094-6.7616 12.2546-12.8847 3.5891-7.9724-4.8381-14.33646-10.6624-9.7592-.6076.47747-1.3715 1.02394-1.8972 1.54159-.2377.23405-.6565.25792-.9033.03342-.6911-.62884-1.7713-1.4355-2.465-1.90484-4.96538-3.35938-13.999993 1.06886-10.14615 10.51973 1.41176 4.2422 8.13925 10.2607 12.10895 12.476z" fill="url(#i)"/><path d="m15.1041 29.2015c.535.2985 1.1786.282 1.7105-.022 3.583-2.0477 9.8094-6.7616 12.2546-12.8847 3.5891-7.9724-4.8381-14.33646-10.6624-9.7592-.6076.47747-1.3715 1.02394-1.8972 1.54159-.2377.23405-.6565.25792-.9033.03342-.6911-.62884-1.7713-1.4355-2.465-1.90484-4.96538-3.35938-13.999993 1.06886-10.14615 10.51973 1.41176 4.2422 8.13925 10.2607 12.10895 12.476z" fill="url(#j)"/><path d="m15.1041 29.2015c.535.2985 1.1786.282 1.7105-.022 3.583-2.0477 9.8094-6.7616 12.2546-12.8847 3.5891-7.9724-4.8381-14.33646-10.6624-9.7592-.6076.47747-1.3715 1.02394-1.8972 1.54159-.2377.23405-.6565.25792-.9033.03342-.6911-.62884-1.7713-1.4355-2.465-1.90484-4.96538-3.35938-13.999993 1.06886-10.14615 10.51973 1.41176 4.2422 8.13925 10.2607 12.10895 12.476z" fill="url(#k)"/><path d="m15.1041 29.2015c.535.2985 1.1786.282 1.7105-.022 3.583-2.0477 9.8094-6.7616 12.2546-12.8847 3.5891-7.9724-4.8381-14.33646-10.6624-9.7592-.6076.47747-1.3715 1.02394-1.8972 1.54159-.2377.23405-.6565.25792-.9033.03342-.6911-.62884-1.7713-1.4355-2.465-1.90484-4.96538-3.35938-13.999993 1.06886-10.14615 10.51973 1.41176 4.2422 8.13925 10.2607 12.10895 12.476z" fill="url(#l)"/><path d="m15.1041 29.2015c.535.2985 1.1786.282 1.7105-.022 3.583-2.0477 9.8094-6.7616 12.2546-12.8847 3.5891-7.9724-4.8381-14.33646-10.6624-9.7592-.6076.47747-1.3715 1.02394-1.8972 1.54159-.2377.23405-.6565.25792-.9033.03342-.6911-.62884-1.7713-1.4355-2.465-1.90484-4.96538-3.35938-13.999993 1.06886-10.14615 10.51973 1.41176 4.2422 8.13925 10.2607 12.10895 12.476z" fill="url(#m)"/><path d="m15.1041 29.2015c.535.2985 1.1786.282 1.7105-.022 3.583-2.0477 9.8094-6.7616 12.2546-12.8847 3.5891-7.9724-4.8381-14.33646-10.6624-9.7592-.6076.47747-1.3715 1.02394-1.8972 1.54159-.2377.23405-.6565.25792-.9033.03342-.6911-.62884-1.7713-1.4355-2.465-1.90484-4.96538-3.35938-13.999993 1.06886-10.14615 10.51973 1.41176 4.2422 8.13925 10.2607 12.10895 12.476z" fill="url(#n)"/><path d="m15.2188 7.80577.3475.31821c.954.87337 2.4984.62978 3.3644-.33094.9136-1.01364 2.1394-2.06342 3.6247-2.79133-1.4038.03075-2.8417.50694-4.1486 1.534-.1508.1185-.3112.24125-.4752.36675-.4969.38019-1.0267.78566-1.422 1.17485-.2377.23405-.6565.25791-.9033.03341-.1193-.10858-.2502-.22245-.3888-.33898z" fill="url(#o)"/><g fill-opacity=".6" filter="url(#a)"><path d="m16.687 9.49106v7.80174c0 1.0694 1.5865 1.4597 2.1205.5332 2.8411-4.9291 6.0495-9.88716 3.2138-10.85536-2.4288-.82927-3.4581.12805-5.0635 1.83633-.1739.18505-.2708.43015-.2708.68409z" fill="url(#q)"/><path d="m16.687 9.49106v7.80174c0 1.0694 1.5865 1.4597 2.1205.5332 2.8411-4.9291 6.0495-9.88716 3.2138-10.85536-2.4288-.82927-3.4581.12805-5.0635 1.83633-.1739.18505-.2708.43015-.2708.68409z" fill="url(#r)"/></g><g filter="url(#b)"><path d="m26.242 6.28563c2.5981 1.06941 3.3807 5.15207 1.748 9.11877-1.6328 3.9667-5.0626 6.3155-7.6607 5.2461s-3.3807-5.152-1.7479-9.1188c1.6327-3.96672 5.0625-6.31548 7.6606-5.24607z" fill="url(#s)"/></g><g filter="url(#c)"><path d="m14.8397 9.1806.205 13.4063c-6.87498-6.6875-8.10611-13.85319-5.76751-15.45996 1.67001-1.14742 4.81251.49116 5.56251 2.05366z" fill="url(#u)"/></g><g filter="url(#d)"><path d="m8.44077 6.41309c1.08664-.13491 4.02393 0 6.39903 3.43274" stroke="url(#v)" stroke-linecap="round" stroke-width=".25"/></g><g filter="url(#e)"><path d="m3.625 13.5244c2.0625 8.0625 9.4792 13.2292 12 14.8125-2.9-5.25-5.5625-15.5417-5.625-17.875z" fill="url(#w)"/></g></svg>