<svg fill="none" height="32" viewBox="0 0 32 32" width="32" xmlns="http://www.w3.org/2000/svg" xmlns:xlink="http://www.w3.org/1999/xlink"><filter id="a" color-interpolation-filters="sRGB" filterUnits="userSpaceOnUse" height="28.515" width="26.567" x="3.431" y="1.417"><feFlood flood-opacity="0" result="BackgroundImageFix"/><feBlend in="SourceGraphic" in2="BackgroundImageFix" mode="normal" result="shape"/><feColorMatrix in="SourceAlpha" result="hardAlpha" type="matrix" values="0 0 0 0 0 0 0 0 0 0 0 0 0 0 0 0 0 0 127 0"/><feOffset dx=".65" dy="-.65"/><feGaussianBlur stdDeviation="1"/><feComposite in2="hardAlpha" k2="-1" k3="1" operator="arithmetic"/><feColorMatrix type="matrix" values="0 0 0 0 0.243137 0 0 0 0 0.133333 0 0 0 0 0.207843 0 0 0 1 0"/><feBlend in2="shape" mode="normal" result="effect1_innerShadow_20020_2330"/></filter><filter id="b" color-interpolation-filters="sRGB" filterUnits="userSpaceOnUse" height="8.966" width="6.696" x="10.551" y="10.024"><feFlood flood-opacity="0" result="BackgroundImageFix"/><feBlend in="SourceGraphic" in2="BackgroundImageFix" mode="normal" result="shape"/><feGaussianBlur result="effect1_foregroundBlur_20020_2330" stdDeviation=".75"/></filter><filter id="c" color-interpolation-filters="sRGB" filterUnits="userSpaceOnUse" height="11.255" width="8.409" x="5.442" y="8.234"><feFlood flood-opacity="0" result="BackgroundImageFix"/><feBlend in="SourceGraphic" in2="BackgroundImageFix" mode="normal" result="shape"/><feGaussianBlur result="effect1_foregroundBlur_20020_2330" stdDeviation="1"/></filter><filter id="d" color-interpolation-filters="sRGB" filterUnits="userSpaceOnUse" height="8.922" width="5.922" x="7.882" y="8.169"><feFlood flood-opacity="0" result="BackgroundImageFix"/><feBlend in="SourceGraphic" in2="BackgroundImageFix" mode="normal" result="shape"/><feColorMatrix in="SourceAlpha" result="hardAlpha" type="matrix" values="0 0 0 0 0 0 0 0 0 0 0 0 0 0 0 0 0 0 127 0"/><feOffset dx=".75" dy="-.75"/><feGaussianBlur stdDeviation="1"/><feComposite in2="hardAlpha" k2="-1" k3="1" operator="arithmetic"/><feColorMatrix type="matrix" values="0 0 0 0 0.195833 0 0 0 0 0.0930208 0 0 0 0 0.136518 0 0 0 1 0"/><feBlend in2="shape" mode="normal" result="effect1_innerShadow_20020_2330"/></filter><filter id="e" color-interpolation-filters="sRGB" filterUnits="userSpaceOnUse" height="10.484" width="5.828" x="12.445" y="6.606"><feFlood flood-opacity="0" result="BackgroundImageFix"/><feBlend in="SourceGraphic" in2="BackgroundImageFix" mode="normal" result="shape"/><feColorMatrix in="SourceAlpha" result="hardAlpha" type="matrix" values="0 0 0 0 0 0 0 0 0 0 0 0 0 0 0 0 0 0 127 0"/><feOffset dx=".75" dy="-.75"/><feGaussianBlur stdDeviation="1"/><feComposite in2="hardAlpha" k2="-1" k3="1" operator="arithmetic"/><feColorMatrix type="matrix" values="0 0 0 0 0.219608 0 0 0 0 0.117647 0 0 0 0 0.160784 0 0 0 1 0"/><feBlend in2="shape" mode="normal" result="effect1_innerShadow_20020_2330"/></filter><filter id="f" color-interpolation-filters="sRGB" filterUnits="userSpaceOnUse" height="13.444" width="4.636" x="18.079" y="2.197"><feFlood flood-opacity="0" result="BackgroundImageFix"/><feBlend in="SourceGraphic" in2="BackgroundImageFix" mode="normal" result="shape"/><feGaussianBlur result="effect1_foregroundBlur_20020_2330" stdDeviation=".75"/></filter><filter id="g" color-interpolation-filters="sRGB" filterUnits="userSpaceOnUse" height="10.264" width="5.468" x="13.266" y="7.092"><feFlood flood-opacity="0" result="BackgroundImageFix"/><feBlend in="SourceGraphic" in2="BackgroundImageFix" mode="normal" result="shape"/><feGaussianBlur result="effect1_foregroundBlur_20020_2330" stdDeviation="1"/></filter><filter id="h" color-interpolation-filters="sRGB" filterUnits="userSpaceOnUse" height="11.935" width="4.468" x="4.474" y="5.605"><feFlood flood-opacity="0" result="BackgroundImageFix"/><feBlend in="SourceGraphic" in2="BackgroundImageFix" mode="normal" result="shape"/><feGaussianBlur result="effect1_foregroundBlur_20020_2330" stdDeviation=".75"/></filter><filter id="i" color-interpolation-filters="sRGB" filterUnits="userSpaceOnUse" height="8.274" width="5.027" x="8.824" y="8.524"><feFlood flood-opacity="0" result="BackgroundImageFix"/><feBlend in="SourceGraphic" in2="BackgroundImageFix" mode="normal" result="shape"/><feGaussianBlur result="effect1_foregroundBlur_20020_2330" stdDeviation="1"/></filter><radialGradient id="j" cx="0" cy="0" gradientTransform="matrix(-6.16814369 1.91230907 -1.03263766 -3.33076779 9.59919 11.9875)" gradientUnits="userSpaceOnUse" r="1"><stop offset="0" stop-color="#1b0b0d"/><stop offset="1" stop-color="#1b0b0d" stop-opacity="0"/></radialGradient><radialGradient id="k" cx="0" cy="0" gradientTransform="matrix(-8.93157845 3.02525761 -4.10510225 -12.11964321 23.3692 18.3341)" gradientUnits="userSpaceOnUse" r="1"><stop offset="0" stop-color="#634f4e"/><stop offset="1" stop-color="#634f4e" stop-opacity="0"/></radialGradient><radialGradient id="l" cx="7.496" cy="7.504" gradientUnits="userSpaceOnUse" r="1.816"><stop offset="0" stop-color="#624f4d"/><stop offset="1" stop-color="#624f4d" stop-opacity="0"/></radialGradient><radialGradient id="m" cx="0" cy="0" gradientTransform="matrix(-7.82462359 -2.27133822 3.5664015 -12.28603869 30.212 17.8749)" gradientUnits="userSpaceOnUse" r="1"><stop offset=".676" stop-color="#5d4848" stop-opacity="0"/><stop offset="1" stop-color="#5d4848"/></radialGradient><radialGradient id="n" cx="0" cy="0" gradientTransform="matrix(-6.19449052 6.1584852 -1.36434238 -1.37231895 26.5025 19.7386)" gradientUnits="userSpaceOnUse" r="1"><stop offset="0" stop-color="#482d31"/><stop offset="1" stop-color="#482d31" stop-opacity="0"/></radialGradient><radialGradient id="o" cx="0" cy="0" gradientTransform="matrix(-2.25181568 1.59803544 -1.03982872 -1.46523822 28.9612 13.9873)" gradientUnits="userSpaceOnUse" r="1"><stop offset="0" stop-color="#675250"/><stop offset="1" stop-color="#675250" stop-opacity="0"/></radialGradient><radialGradient id="p" cx="0" cy="0" gradientTransform="matrix(.78261181 .80217656 -1.69438415 1.65305883 24.1584 13.617)" gradientUnits="userSpaceOnUse" r="1"><stop offset="0" stop-color="#433a38"/><stop offset="1" stop-color="#2e2320" stop-opacity="0"/></radialGradient><linearGradient id="q" gradientUnits="userSpaceOnUse" x1="16.621" x2="18.544" y1="8.394" y2="8.394"><stop offset="0" stop-color="#271512"/><stop offset="1" stop-color="#271512" stop-opacity="0"/></linearGradient><linearGradient id="r" gradientUnits="userSpaceOnUse" x1="19.084" x2="19.084" y1="12.788" y2="10.411"><stop offset="0" stop-color="#574042"/><stop offset="1" stop-color="#574042" stop-opacity="0"/></linearGradient><radialGradient id="s" cx="0" cy="0" gradientTransform="matrix(1.6875 0 0 1.53125 21.2469 3.81252)" gradientUnits="userSpaceOnUse" r="1"><stop offset="0" stop-color="#64504e"/><stop offset="1" stop-color="#64504e" stop-opacity="0"/></radialGradient><radialGradient id="t" cx="0" cy="0" gradientTransform="matrix(.875 0 0 3.0625 17.2104 9.91888)" gradientUnits="userSpaceOnUse" r="1"><stop offset=".216" stop-color="#2a1917"/><stop offset="1" stop-color="#2a1917" stop-opacity="0"/></radialGradient><linearGradient id="u" gradientUnits="userSpaceOnUse" x1="9.201" x2="12.028" y1="11.542" y2="11.655"><stop offset="0" stop-color="#452f2c"/><stop offset="1" stop-color="#523632"/></linearGradient><linearGradient id="v" gradientUnits="userSpaceOnUse" x1="12.665" x2="11.782" y1="13.005" y2="13.005"><stop offset="0" stop-color="#1e0f0c"/><stop offset="1" stop-color="#1e0f0c" stop-opacity="0"/></linearGradient><radialGradient id="w" cx="0" cy="0" gradientTransform="matrix(-.9253356 .5520705 -1.15265614 -1.93198833 13.0541 10.3576)" gradientUnits="userSpaceOnUse" r="1"><stop offset=".215" stop-color="#1a0c0a"/><stop offset="1" stop-color="#1a0c0a" stop-opacity="0"/></radialGradient><linearGradient id="x" gradientUnits="userSpaceOnUse" x1="13.297" x2="17.523" y1="10.616" y2="10.616"><stop offset="0" stop-color="#432d2b"/><stop offset="1" stop-color="#523632"/></linearGradient><linearGradient id="y" gradientUnits="userSpaceOnUse" x1="20.397" x2="20.397" y1="3.697" y2="14.141"><stop offset="0" stop-color="#65514f"/><stop offset="1" stop-color="#65514f" stop-opacity="0"/></linearGradient><linearGradient id="z" gradientUnits="userSpaceOnUse" x1="6.708" x2="6.708" y1="8.085" y2="19.417"><stop offset="0" stop-color="#634f4d"/><stop offset="1" stop-color="#634f4d" stop-opacity="0"/></linearGradient><linearGradient id="A" gradientUnits="userSpaceOnUse" x1="11.338" x2="11.338" y1="13.957" y2="9.834"><stop offset="0" stop-color="#795f5b"/><stop offset="1" stop-color="#795f5b" stop-opacity="0"/></linearGradient><g filter="url(#a)"><path d="m28.7416 13.6064c-.6987-.8085-2.0625-1.2891-3.2968-.6485-1.2344.6407-2.2083 1.3763-2.5782 1.7227 0 0-.6484.444-.6484-.3842 0-.8281 0-1.7537 0-1.7537v-7.50663c0-1.67187-1.125-2.96875-2.625-2.96875-1.4062 0-2.625 1.125-2.625 2.96875l-.0385 7.50663h-8.274v-3.97538c0-1.65625-1.15639-2.88021-2.59389-2.88021s-2.61349 1.40791-2.61349 2.76728c0 1.35938-.01729 11.21851-.01729 11.21851 0 7.1029 4.32772 10.2598 9.65317 10.2598 2.7087 0 5.4095-1.2204 7.1887-3.0919 2.2578-2.375 1.5625-3.3125 3.9609-5.8672 1.211-1.3828 3.139-2.7068 4.1953-3.5782 1.0564-.8713 1.2579-2.6953.3125-3.789z" fill="#482d33"/><path d="m28.7416 13.6064c-.6987-.8085-2.0625-1.2891-3.2968-.6485-1.2344.6407-2.2083 1.3763-2.5782 1.7227 0 0-.6484.444-.6484-.3842 0-.8281 0-1.7537 0-1.7537v-7.50663c0-1.67187-1.125-2.96875-2.625-2.96875-1.4062 0-2.625 1.125-2.625 2.96875l-.0385 7.50663h-8.274v-3.97538c0-1.65625-1.15639-2.88021-2.59389-2.88021s-2.61349 1.40791-2.61349 2.76728c0 1.35938-.01729 11.21851-.01729 11.21851 0 7.1029 4.32772 10.2598 9.65317 10.2598 2.7087 0 5.4095-1.2204 7.1887-3.0919 2.2578-2.375 1.5625-3.3125 3.9609-5.8672 1.211-1.3828 3.139-2.7068 4.1953-3.5782 1.0564-.8713 1.2579-2.6953.3125-3.789z" fill="url(#j)"/><path d="m28.7416 13.6064c-.6987-.8085-2.0625-1.2891-3.2968-.6485-1.2344.6407-2.2083 1.3763-2.5782 1.7227 0 0-.6484.444-.6484-.3842 0-.8281 0-1.7537 0-1.7537v-7.50663c0-1.67187-1.125-2.96875-2.625-2.96875-1.4062 0-2.625 1.125-2.625 2.96875l-.0385 7.50663h-8.274v-3.97538c0-1.65625-1.15639-2.88021-2.59389-2.88021s-2.61349 1.40791-2.61349 2.76728c0 1.35938-.01729 11.21851-.01729 11.21851 0 7.1029 4.32772 10.2598 9.65317 10.2598 2.7087 0 5.4095-1.2204 7.1887-3.0919 2.2578-2.375 1.5625-3.3125 3.9609-5.8672 1.211-1.3828 3.139-2.7068 4.1953-3.5782 1.0564-.8713 1.2579-2.6953.3125-3.789z" fill="url(#k)"/><path d="m28.7416 13.6064c-.6987-.8085-2.0625-1.2891-3.2968-.6485-1.2344.6407-2.2083 1.3763-2.5782 1.7227 0 0-.6484.444-.6484-.3842 0-.8281 0-1.7537 0-1.7537v-7.50663c0-1.67187-1.125-2.96875-2.625-2.96875-1.4062 0-2.625 1.125-2.625 2.96875l-.0385 7.50663h-8.274v-3.97538c0-1.65625-1.15639-2.88021-2.59389-2.88021s-2.61349 1.40791-2.61349 2.76728c0 1.35938-.01729 11.21851-.01729 11.21851 0 7.1029 4.32772 10.2598 9.65317 10.2598 2.7087 0 5.4095-1.2204 7.1887-3.0919 2.2578-2.375 1.5625-3.3125 3.9609-5.8672 1.211-1.3828 3.139-2.7068 4.1953-3.5782 1.0564-.8713 1.2579-2.6953.3125-3.789z" fill="url(#l)"/></g><g filter="url(#b)"><rect fill="#19090e" height="5.966" rx="1.848" width="3.696" x="12.051" y="11.524"/></g><g filter="url(#c)"><rect fill="#19090e" height="7.256" rx="2.204" width="4.409" x="7.442" y="10.234"/></g><path d="m25.4448 12.958c1.2343-.6407 2.5981-.1601 3.2968.6484.9454 1.0937.7439 2.9177-.3125 3.7891-.2784.2297-.6175.4908-.988.7762-1.035.7972-2.3156 1.7836-3.2073 2.8019-.7933.845-1.2482 1.5131-1.5834 2.1148-1.4919-3.69-1.0366-6.7784-.3664-8.4371.1649.3153.5826.0293.5826.0293.3699-.3464 1.3438-1.082 2.5782-1.7226z" fill="#472f2d"/><path d="m25.4448 12.958c1.2343-.6407 2.5981-.1601 3.2968.6484.9454 1.0937.7439 2.9177-.3125 3.7891-.2784.2297-.6175.4908-.988.7762-1.035.7972-2.3156 1.7836-3.2073 2.8019-.7933.845-1.2482 1.5131-1.5834 2.1148-1.4919-3.69-1.0366-6.7784-.3664-8.4371.1649.3153.5826.0293.5826.0293.3699-.3464 1.3438-1.082 2.5782-1.7226z" fill="url(#m)"/><path d="m25.4448 12.958c1.2343-.6407 2.5981-.1601 3.2968.6484.9454 1.0937.7439 2.9177-.3125 3.7891-.2784.2297-.6175.4908-.988.7762-1.035.7972-2.3156 1.7836-3.2073 2.8019-.7933.845-1.2482 1.5131-1.5834 2.1148-1.4919-3.69-1.0366-6.7784-.3664-8.4371.1649.3153.5826.0293.5826.0293.3699-.3464 1.3438-1.082 2.5782-1.7226z" fill="url(#n)"/><path d="m25.4448 12.958c1.2343-.6407 2.5981-.1601 3.2968.6484.9454 1.0937.7439 2.9177-.3125 3.7891-.2784.2297-.6175.4908-.988.7762-1.035.7972-2.3156 1.7836-3.2073 2.8019-.7933.845-1.2482 1.5131-1.5834 2.1148-1.4919-3.69-1.0366-6.7784-.3664-8.4371.1649.3153.5826.0293.5826.0293.3699-.3464 1.3438-1.082 2.5782-1.7226z" fill="url(#o)"/><path d="m25.4448 12.958c1.2343-.6407 2.5981-.1601 3.2968.6484.9454 1.0937.7439 2.9177-.3125 3.7891-.2784.2297-.6175.4908-.988.7762-1.035.7972-2.3156 1.7836-3.2073 2.8019-.7933.845-1.2482 1.5131-1.5834 2.1148-1.4919-3.69-1.0366-6.7784-.3664-8.4371.1649.3153.5826.0293.5826.0293.3699-.3464 1.3438-1.082 2.5782-1.7226z" fill="url(#p)"/><path d="m22.2229 12.54h-5.2885l.0385-7.50393c0-1.84375 1.2188-2.96875 2.625-2.96875 1.5 0 2.625 1.29688 2.625 2.96875z" fill="url(#q)"/><path d="m22.2229 12.54h-5.2885l.0385-7.50393c0-1.84375 1.2188-2.96875 2.625-2.96875 1.5 0 2.625 1.29688 2.625 2.96875z" fill="url(#r)"/><path d="m22.2229 12.54h-5.2885l.0385-7.50393c0-1.84375 1.2188-2.96875 2.625-2.96875 1.5 0 2.625 1.29688 2.625 2.96875z" fill="url(#s)"/><path d="m22.2229 12.54h-5.2885l.0385-7.50393c0-1.84375 1.2188-2.96875 2.625-2.96875 1.5 0 2.625 1.29688 2.625 2.96875z" fill="url(#t)"/><g filter="url(#d)"><rect fill="url(#u)" height="8.172" rx="2.539" width="5.172" x="7.882" y="8.919"/><rect fill="url(#v)" height="8.172" rx="2.539" width="5.172" x="7.882" y="8.919"/><rect fill="url(#w)" height="8.172" rx="2.539" width="5.172" x="7.882" y="8.919"/></g><g filter="url(#e)"><rect fill="url(#x)" height="9.734" rx="2.539" width="5.078" x="12.445" y="7.356"/></g><g filter="url(#f)"><rect fill="url(#y)" height="10.444" rx=".818" width="1.636" x="19.579" y="3.697"/></g><g filter="url(#g)"><rect fill="#67524f" height="6.264" rx=".734" width="1.468" x="15.266" y="9.092"/></g><g filter="url(#h)"><rect fill="url(#z)" height="8.935" rx=".734" width="1.468" x="5.974" y="7.105"/></g><g filter="url(#i)"><rect fill="url(#A)" height="4.274" rx=".513" width="1.027" x="10.824" y="10.524"/></g></svg>