<svg fill="none" height="32" viewBox="0 0 32 32" width="32" xmlns="http://www.w3.org/2000/svg" xmlns:xlink="http://www.w3.org/1999/xlink"><filter id="a" color-interpolation-filters="sRGB" filterUnits="userSpaceOnUse" height="28.515" width="26.567" x="3.684" y="1.417"><feFlood flood-opacity="0" result="BackgroundImageFix"/><feBlend in="SourceGraphic" in2="BackgroundImageFix" mode="normal" result="shape"/><feColorMatrix in="SourceAlpha" result="hardAlpha" type="matrix" values="0 0 0 0 0 0 0 0 0 0 0 0 0 0 0 0 0 0 127 0"/><feOffset dx=".65" dy="-.65"/><feGaussianBlur stdDeviation="1"/><feComposite in2="hardAlpha" k2="-1" k3="1" operator="arithmetic"/><feColorMatrix type="matrix" values="0 0 0 0 0.94902 0 0 0 0 0.486275 0 0 0 0 0.380392 0 0 0 1 0"/><feBlend in2="shape" mode="normal" result="effect1_innerShadow_20020_2320"/></filter><filter id="b" color-interpolation-filters="sRGB" filterUnits="userSpaceOnUse" height="8.966" width="6.696" x="10.804" y="10.024"><feFlood flood-opacity="0" result="BackgroundImageFix"/><feBlend in="SourceGraphic" in2="BackgroundImageFix" mode="normal" result="shape"/><feGaussianBlur result="effect1_foregroundBlur_20020_2320" stdDeviation=".75"/></filter><filter id="c" color-interpolation-filters="sRGB" filterUnits="userSpaceOnUse" height="11.255" width="8.409" x="5.696" y="8.234"><feFlood flood-opacity="0" result="BackgroundImageFix"/><feBlend in="SourceGraphic" in2="BackgroundImageFix" mode="normal" result="shape"/><feGaussianBlur result="effect1_foregroundBlur_20020_2320" stdDeviation="1"/></filter><filter id="d" color-interpolation-filters="sRGB" filterUnits="userSpaceOnUse" height="8.922" width="5.922" x="8.135" y="8.169"><feFlood flood-opacity="0" result="BackgroundImageFix"/><feBlend in="SourceGraphic" in2="BackgroundImageFix" mode="normal" result="shape"/><feColorMatrix in="SourceAlpha" result="hardAlpha" type="matrix" values="0 0 0 0 0 0 0 0 0 0 0 0 0 0 0 0 0 0 127 0"/><feOffset dx=".75" dy="-.75"/><feGaussianBlur stdDeviation="1"/><feComposite in2="hardAlpha" k2="-1" k3="1" operator="arithmetic"/><feColorMatrix type="matrix" values="0 0 0 0 0.921569 0 0 0 0 0.533333 0 0 0 0 0.223529 0 0 0 1 0"/><feBlend in2="shape" mode="normal" result="effect1_innerShadow_20020_2320"/></filter><filter id="e" color-interpolation-filters="sRGB" filterUnits="userSpaceOnUse" height="10.484" width="5.828" x="12.698" y="6.606"><feFlood flood-opacity="0" result="BackgroundImageFix"/><feBlend in="SourceGraphic" in2="BackgroundImageFix" mode="normal" result="shape"/><feColorMatrix in="SourceAlpha" result="hardAlpha" type="matrix" values="0 0 0 0 0 0 0 0 0 0 0 0 0 0 0 0 0 0 127 0"/><feOffset dx=".75" dy="-.75"/><feGaussianBlur stdDeviation="1"/><feComposite in2="hardAlpha" k2="-1" k3="1" operator="arithmetic"/><feColorMatrix type="matrix" values="0 0 0 0 0.921569 0 0 0 0 0.533333 0 0 0 0 0.223529 0 0 0 1 0"/><feBlend in2="shape" mode="normal" result="effect1_innerShadow_20020_2320"/></filter><filter id="f" color-interpolation-filters="sRGB" filterUnits="userSpaceOnUse" height="13.444" width="4.636" x="18.332" y="2.197"><feFlood flood-opacity="0" result="BackgroundImageFix"/><feBlend in="SourceGraphic" in2="BackgroundImageFix" mode="normal" result="shape"/><feGaussianBlur result="effect1_foregroundBlur_20020_2320" stdDeviation=".75"/></filter><filter id="g" color-interpolation-filters="sRGB" filterUnits="userSpaceOnUse" height="10.264" width="5.468" x="13.519" y="7.092"><feFlood flood-opacity="0" result="BackgroundImageFix"/><feBlend in="SourceGraphic" in2="BackgroundImageFix" mode="normal" result="shape"/><feGaussianBlur result="effect1_foregroundBlur_20020_2320" stdDeviation="1"/></filter><radialGradient id="h" cx="0" cy="0" gradientTransform="matrix(-6.16814369 1.91230907 -1.03263766 -3.33076779 9.85233 11.9875)" gradientUnits="userSpaceOnUse" r="1"><stop offset="0" stop-color="#e79330"/><stop offset="1" stop-color="#e79330" stop-opacity="0"/></radialGradient><radialGradient id="i" cx="0" cy="0" gradientTransform="matrix(-8.93157845 3.02525761 -4.10510225 -12.11964321 23.6224 18.3341)" gradientUnits="userSpaceOnUse" r="1"><stop offset="0" stop-color="#ffe542"/><stop offset="1" stop-color="#ffe542" stop-opacity="0"/></radialGradient><radialGradient id="j" cx="0" cy="0" gradientTransform="matrix(-8.06723835 1.39562913 -2.19137641 -12.66694381 30.4651 17.8749)" gradientUnits="userSpaceOnUse" r="1"><stop offset=".693" stop-color="#ffdc42" stop-opacity="0"/><stop offset="1" stop-color="#ffdc42"/></radialGradient><radialGradient id="k" cx="0" cy="0" gradientTransform="matrix(-6.19449052 6.1584852 -1.36434238 -1.37231895 26.7556 19.7386)" gradientUnits="userSpaceOnUse" r="1"><stop offset="0" stop-color="#f2a159"/><stop offset="1" stop-color="#f2a159" stop-opacity="0"/></radialGradient><radialGradient id="l" cx="0" cy="0" gradientTransform="matrix(-2.73777543 1.44059637 -1.64431834 -3.124938 29.6014 13.7602)" gradientUnits="userSpaceOnUse" r="1"><stop offset=".103" stop-color="#ffe847"/><stop offset="1" stop-color="#ffe847" stop-opacity="0"/></radialGradient><radialGradient id="m" cx="0" cy="0" gradientTransform="matrix(.43834255 .74416393 -2.34167162 1.37933899 24.4675 13.411)" gradientUnits="userSpaceOnUse" r="1"><stop offset="0" stop-color="#d4a33c"/><stop offset="1" stop-color="#d4a33c" stop-opacity="0"/></radialGradient><linearGradient id="n" gradientUnits="userSpaceOnUse" x1="16.874" x2="18.797" y1="8.394" y2="8.394"><stop offset="0" stop-color="#e3961f"/><stop offset="1" stop-color="#e3961f" stop-opacity="0"/></linearGradient><linearGradient id="o" gradientUnits="userSpaceOnUse" x1="19.337" x2="19.337" y1="12.788" y2="10.411"><stop offset="0" stop-color="#fec942"/><stop offset="1" stop-color="#fec942" stop-opacity="0"/></linearGradient><radialGradient id="p" cx="0" cy="0" gradientTransform="matrix(-2.55701516 2.94140577 -4.98996592 -4.3378641 22.83 2.06732)" gradientUnits="userSpaceOnUse" r="1"><stop offset="0" stop-color="#ffe645"/><stop offset="1" stop-color="#ffe645" stop-opacity="0"/></radialGradient><radialGradient id="q" cx="0" cy="0" gradientTransform="matrix(.875 0 0 3.0625 17.4635 9.91888)" gradientUnits="userSpaceOnUse" r="1"><stop offset=".216" stop-color="#d17703"/><stop offset="1" stop-color="#d17703" stop-opacity="0"/></radialGradient><linearGradient id="r"><stop offset="0" stop-color="#fabb25"/><stop offset="1" stop-color="#ffd43e"/></linearGradient><linearGradient id="s" gradientUnits="userSpaceOnUse" x1="9.454" x2="12.282" xlink:href="#r" y1="11.542" y2="11.655"/><linearGradient id="t" gradientUnits="userSpaceOnUse" x1="12.918" x2="12.408" y1="13.005" y2="13.005"><stop offset="0" stop-color="#e59617"/><stop offset="1" stop-color="#e59617" stop-opacity="0"/></linearGradient><radialGradient id="u" cx="0" cy="0" gradientTransform="matrix(-.9253356 .5520705 -1.15265614 -1.93198833 13.3073 10.3576)" gradientUnits="userSpaceOnUse" r="1"><stop offset=".215" stop-color="#ad690c"/><stop offset="1" stop-color="#ad690c" stop-opacity="0"/></radialGradient><linearGradient id="v" gradientUnits="userSpaceOnUse" x1="13.55" x2="17.776" xlink:href="#r" y1="10.616" y2="10.616"/><linearGradient id="w" gradientUnits="userSpaceOnUse" x1="20.65" x2="20.65" y1="3.697" y2="14.141"><stop offset="0" stop-color="#ffe948"/><stop offset="1" stop-color="#ffe948" stop-opacity="0"/></linearGradient><g filter="url(#a)"><path d="m28.9948 13.6064c-.6988-.8085-2.0625-1.2891-3.2969-.6485-1.2344.6407-2.2083 1.3763-2.5781 1.7227 0 0-.6485.444-.6485-.3842 0-.8281 0-1.7537 0-1.7537v-7.50663c0-1.67187-1.125-2.96875-2.625-2.96875-1.4062 0-2.625 1.125-2.625 2.96875l-.0384 7.50663h-8.27406v-3.97538c0-1.65625-1.15638-2.88021-2.59388-2.88021s-2.6135 1.40791-2.6135 2.76728c0 1.35938-.01729 11.21851-.01729 11.21851 0 7.1029 4.32772 10.2598 9.65313 10.2598 2.7087 0 5.4096-1.2204 7.1887-3.0919 2.2578-2.375 1.5625-3.3125 3.961-5.8672 1.2109-1.3828 3.1389-2.7068 4.1953-3.5782 1.0563-.8713 1.2578-2.6953.3125-3.789z" fill="#ffbf40"/><path d="m28.9948 13.6064c-.6988-.8085-2.0625-1.2891-3.2969-.6485-1.2344.6407-2.2083 1.3763-2.5781 1.7227 0 0-.6485.444-.6485-.3842 0-.8281 0-1.7537 0-1.7537v-7.50663c0-1.67187-1.125-2.96875-2.625-2.96875-1.4062 0-2.625 1.125-2.625 2.96875l-.0384 7.50663h-8.27406v-3.97538c0-1.65625-1.15638-2.88021-2.59388-2.88021s-2.6135 1.40791-2.6135 2.76728c0 1.35938-.01729 11.21851-.01729 11.21851 0 7.1029 4.32772 10.2598 9.65313 10.2598 2.7087 0 5.4096-1.2204 7.1887-3.0919 2.2578-2.375 1.5625-3.3125 3.961-5.8672 1.2109-1.3828 3.1389-2.7068 4.1953-3.5782 1.0563-.8713 1.2578-2.6953.3125-3.789z" fill="url(#h)"/><path d="m28.9948 13.6064c-.6988-.8085-2.0625-1.2891-3.2969-.6485-1.2344.6407-2.2083 1.3763-2.5781 1.7227 0 0-.6485.444-.6485-.3842 0-.8281 0-1.7537 0-1.7537v-7.50663c0-1.67187-1.125-2.96875-2.625-2.96875-1.4062 0-2.625 1.125-2.625 2.96875l-.0384 7.50663h-8.27406v-3.97538c0-1.65625-1.15638-2.88021-2.59388-2.88021s-2.6135 1.40791-2.6135 2.76728c0 1.35938-.01729 11.21851-.01729 11.21851 0 7.1029 4.32772 10.2598 9.65313 10.2598 2.7087 0 5.4096-1.2204 7.1887-3.0919 2.2578-2.375 1.5625-3.3125 3.961-5.8672 1.2109-1.3828 3.1389-2.7068 4.1953-3.5782 1.0563-.8713 1.2578-2.6953.3125-3.789z" fill="url(#i)"/></g><g filter="url(#b)"><rect fill="#b44b10" height="5.966" rx="1.848" width="3.696" x="12.304" y="11.524"/></g><g filter="url(#c)"><rect fill="#b44b10" height="7.256" rx="2.204" width="4.409" x="7.696" y="10.234"/></g><path d="m25.6979 12.958c1.2344-.6407 2.5981-.1601 3.2969.6484.9453 1.0937.7438 2.9177-.3125 3.7891-.2785.2297-.6175.4908-.9881.7762-1.035.7972-2.3155 1.7836-3.2072 2.8019-.7934.845-1.2482 1.5131-1.5834 2.1148-1.492-3.69-1.0367-6.7784-.3665-8.4371.1649.3153.5827.0293.5827.0293.3698-.3464 1.3437-1.082 2.5781-1.7226z" fill="#f4b616"/><path d="m25.6979 12.958c1.2344-.6407 2.5981-.1601 3.2969.6484.9453 1.0937.7438 2.9177-.3125 3.7891-.2785.2297-.6175.4908-.9881.7762-1.035.7972-2.3155 1.7836-3.2072 2.8019-.7934.845-1.2482 1.5131-1.5834 2.1148-1.492-3.69-1.0367-6.7784-.3665-8.4371.1649.3153.5827.0293.5827.0293.3698-.3464 1.3437-1.082 2.5781-1.7226z" fill="url(#j)"/><path d="m25.6979 12.958c1.2344-.6407 2.5981-.1601 3.2969.6484.9453 1.0937.7438 2.9177-.3125 3.7891-.2785.2297-.6175.4908-.9881.7762-1.035.7972-2.3155 1.7836-3.2072 2.8019-.7934.845-1.2482 1.5131-1.5834 2.1148-1.492-3.69-1.0367-6.7784-.3665-8.4371.1649.3153.5827.0293.5827.0293.3698-.3464 1.3437-1.082 2.5781-1.7226z" fill="url(#k)"/><path d="m25.6979 12.958c1.2344-.6407 2.5981-.1601 3.2969.6484.9453 1.0937.7438 2.9177-.3125 3.7891-.2785.2297-.6175.4908-.9881.7762-1.035.7972-2.3155 1.7836-3.2072 2.8019-.7934.845-1.2482 1.5131-1.5834 2.1148-1.492-3.69-1.0367-6.7784-.3665-8.4371.1649.3153.5827.0293.5827.0293.3698-.3464 1.3437-1.082 2.5781-1.7226z" fill="url(#l)"/><path d="m25.6979 12.958c1.2344-.6407 2.5981-.1601 3.2969.6484.9453 1.0937.7438 2.9177-.3125 3.7891-.2785.2297-.6175.4908-.9881.7762-1.035.7972-2.3155 1.7836-3.2072 2.8019-.7934.845-1.2482 1.5131-1.5834 2.1148-1.492-3.69-1.0367-6.7784-.3665-8.4371.1649.3153.5827.0293.5827.0293.3698-.3464 1.3437-1.082 2.5781-1.7226z" fill="url(#m)"/><path d="m22.4761 12.54h-5.2885l.0385-7.50393c0-1.84375 1.2187-2.96875 2.625-2.96875 1.5 0 2.625 1.29688 2.625 2.96875z" fill="url(#n)"/><path d="m22.4761 12.54h-5.2885l.0385-7.50393c0-1.84375 1.2187-2.96875 2.625-2.96875 1.5 0 2.625 1.29688 2.625 2.96875z" fill="url(#o)"/><path d="m22.4761 12.54h-5.2885l.0385-7.50393c0-1.84375 1.2187-2.96875 2.625-2.96875 1.5 0 2.625 1.29688 2.625 2.96875z" fill="url(#p)"/><path d="m22.4761 12.54h-5.2885l.0385-7.50393c0-1.84375 1.2187-2.96875 2.625-2.96875 1.5 0 2.625 1.29688 2.625 2.96875z" fill="url(#q)"/><g filter="url(#d)"><rect fill="url(#s)" height="8.172" rx="2.539" width="5.172" x="8.135" y="8.919"/><rect fill="url(#t)" height="8.172" rx="2.539" width="5.172" x="8.135" y="8.919"/><rect fill="url(#u)" height="8.172" rx="2.539" width="5.172" x="8.135" y="8.919"/></g><g filter="url(#e)"><rect fill="url(#v)" height="9.734" rx="2.539" width="5.078" x="12.698" y="7.356"/></g><g filter="url(#f)"><rect fill="url(#w)" height="10.444" rx=".818" width="1.636" x="19.832" y="3.697"/></g><g filter="url(#g)"><rect fill="#ffe948" height="6.264" rx=".734" width="1.468" x="15.519" y="9.092"/></g></svg>