<svg fill="none" height="32" viewBox="0 0 32 32" width="32" xmlns="http://www.w3.org/2000/svg" xmlns:xlink="http://www.w3.org/1999/xlink"><filter id="a" color-interpolation-filters="sRGB" filterUnits="userSpaceOnUse" height="28.515" width="26.567" x="3.431" y="1.378"><feFlood flood-opacity="0" result="BackgroundImageFix"/><feBlend in="SourceGraphic" in2="BackgroundImageFix" mode="normal" result="shape"/><feColorMatrix in="SourceAlpha" result="hardAlpha" type="matrix" values="0 0 0 0 0 0 0 0 0 0 0 0 0 0 0 0 0 0 127 0"/><feOffset dx=".65" dy="-.65"/><feGaussianBlur stdDeviation="1"/><feComposite in2="hardAlpha" k2="-1" k3="1" operator="arithmetic"/><feColorMatrix type="matrix" values="0 0 0 0 0.729412 0 0 0 0 0.494118 0 0 0 0 0.596078 0 0 0 1 0"/><feBlend in2="shape" mode="normal" result="effect1_innerShadow_20020_2381"/></filter><filter id="b" color-interpolation-filters="sRGB" filterUnits="userSpaceOnUse" height="8.966" width="6.696" x="10.551" y="9.984"><feFlood flood-opacity="0" result="BackgroundImageFix"/><feBlend in="SourceGraphic" in2="BackgroundImageFix" mode="normal" result="shape"/><feGaussianBlur result="effect1_foregroundBlur_20020_2381" stdDeviation=".75"/></filter><filter id="c" color-interpolation-filters="sRGB" filterUnits="userSpaceOnUse" height="11.255" width="8.409" x="5.442" y="8.195"><feFlood flood-opacity="0" result="BackgroundImageFix"/><feBlend in="SourceGraphic" in2="BackgroundImageFix" mode="normal" result="shape"/><feGaussianBlur result="effect1_foregroundBlur_20020_2381" stdDeviation="1"/></filter><filter id="d" color-interpolation-filters="sRGB" filterUnits="userSpaceOnUse" height="9.222" width="5.922" x="7.882" y="8.129"><feFlood flood-opacity="0" result="BackgroundImageFix"/><feBlend in="SourceGraphic" in2="BackgroundImageFix" mode="normal" result="shape"/><feColorMatrix in="SourceAlpha" result="hardAlpha" type="matrix" values="0 0 0 0 0 0 0 0 0 0 0 0 0 0 0 0 0 0 127 0"/><feOffset dx=".75" dy="-.75"/><feGaussianBlur stdDeviation="1"/><feComposite in2="hardAlpha" k2="-1" k3="1" operator="arithmetic"/><feColorMatrix type="matrix" values="0 0 0 0 0.811765 0 0 0 0 0.580392 0 0 0 0 0.580392 0 0 0 1 0"/><feBlend in2="shape" mode="normal" result="effect1_innerShadow_20020_2381"/><feColorMatrix in="SourceAlpha" result="hardAlpha" type="matrix" values="0 0 0 0 0 0 0 0 0 0 0 0 0 0 0 0 0 0 127 0"/><feOffset dx=".5" dy=".3"/><feGaussianBlur stdDeviation=".5"/><feComposite in2="hardAlpha" k2="-1" k3="1" operator="arithmetic"/><feColorMatrix type="matrix" values="0 0 0 0 0.866667 0 0 0 0 0.658824 0 0 0 0 0.537255 0 0 0 1 0"/><feBlend in2="effect1_innerShadow_20020_2381" mode="normal" result="effect2_innerShadow_20020_2381"/></filter><filter id="e" color-interpolation-filters="sRGB" filterUnits="userSpaceOnUse" height="11.084" width="5.828" x="12.445" y="6.567"><feFlood flood-opacity="0" result="BackgroundImageFix"/><feBlend in="SourceGraphic" in2="BackgroundImageFix" mode="normal" result="shape"/><feColorMatrix in="SourceAlpha" result="hardAlpha" type="matrix" values="0 0 0 0 0 0 0 0 0 0 0 0 0 0 0 0 0 0 127 0"/><feOffset dx=".75" dy="-.75"/><feGaussianBlur stdDeviation="1"/><feComposite in2="hardAlpha" k2="-1" k3="1" operator="arithmetic"/><feColorMatrix type="matrix" values="0 0 0 0 0.803922 0 0 0 0 0.556863 0 0 0 0 0.560784 0 0 0 1 0"/><feBlend in2="shape" mode="normal" result="effect1_innerShadow_20020_2381"/><feColorMatrix in="SourceAlpha" result="hardAlpha" type="matrix" values="0 0 0 0 0 0 0 0 0 0 0 0 0 0 0 0 0 0 127 0"/><feOffset dx=".25" dy=".6"/><feGaussianBlur stdDeviation=".625"/><feComposite in2="hardAlpha" k2="-1" k3="1" operator="arithmetic"/><feColorMatrix type="matrix" values="0 0 0 0 0.807843 0 0 0 0 0.631373 0 0 0 0 0.533333 0 0 0 1 0"/><feBlend in2="effect1_innerShadow_20020_2381" mode="normal" result="effect2_innerShadow_20020_2381"/></filter><filter id="f" color-interpolation-filters="sRGB" filterUnits="userSpaceOnUse" height="13.444" width="4.636" x="18.079" y="2.157"><feFlood flood-opacity="0" result="BackgroundImageFix"/><feBlend in="SourceGraphic" in2="BackgroundImageFix" mode="normal" result="shape"/><feGaussianBlur result="effect1_foregroundBlur_20020_2381" stdDeviation=".75"/></filter><filter id="g" color-interpolation-filters="sRGB" filterUnits="userSpaceOnUse" height="10.264" width="5.468" x="13.266" y="7.052"><feFlood flood-opacity="0" result="BackgroundImageFix"/><feBlend in="SourceGraphic" in2="BackgroundImageFix" mode="normal" result="shape"/><feGaussianBlur result="effect1_foregroundBlur_20020_2381" stdDeviation="1"/></filter><filter id="h" color-interpolation-filters="sRGB" filterUnits="userSpaceOnUse" height="11.935" width="4.468" x="4.474" y="5.565"><feFlood flood-opacity="0" result="BackgroundImageFix"/><feBlend in="SourceGraphic" in2="BackgroundImageFix" mode="normal" result="shape"/><feGaussianBlur result="effect1_foregroundBlur_20020_2381" stdDeviation=".75"/></filter><filter id="i" color-interpolation-filters="sRGB" filterUnits="userSpaceOnUse" height="7.274" width="4.027" x="8.968" y="8.985"><feFlood flood-opacity="0" result="BackgroundImageFix"/><feBlend in="SourceGraphic" in2="BackgroundImageFix" mode="normal" result="shape"/><feGaussianBlur result="effect1_foregroundBlur_20020_2381" stdDeviation=".75"/></filter><radialGradient id="j" cx="0" cy="0" gradientTransform="matrix(-7.14246011 2.55919944 -1.38195778 -3.85690078 10.5735 11.3012)" gradientUnits="userSpaceOnUse" r="1"><stop offset="0" stop-color="#c7826f"/><stop offset="1" stop-color="#c7826f" stop-opacity="0"/></radialGradient><radialGradient id="k" cx="0" cy="0" gradientTransform="matrix(-8.93157845 3.02525761 -4.10510225 -12.11964321 23.3692 18.2947)" gradientUnits="userSpaceOnUse" r="1"><stop offset=".227" stop-color="#ffe0c6"/><stop offset="1" stop-color="#ffe0c6" stop-opacity="0"/></radialGradient><radialGradient id="l" cx="7.496" cy="7.465" gradientUnits="userSpaceOnUse" r="1.816"><stop offset="0" stop-color="#ffdec0"/><stop offset="1" stop-color="#ffdec0" stop-opacity="0"/></radialGradient><radialGradient id="m" cx="0" cy="0" gradientTransform="matrix(3.37500681 -12.56253927 11.31034152 3.03859585 8.18436 34.9375)" gradientUnits="userSpaceOnUse" r="1"><stop offset="0" stop-color="#eeb5ad"/><stop offset="1" stop-color="#ae797e" stop-opacity="0"/><stop offset="1" stop-color="#eeb5ad" stop-opacity="0"/></radialGradient><linearGradient id="n" gradientUnits="userSpaceOnUse" x1="4.122" x2="7.434" y1="19.773" y2="19.836"><stop offset="0" stop-color="#dca591"/><stop offset="1" stop-color="#dca591" stop-opacity="0"/></linearGradient><linearGradient id="o" gradientUnits="userSpaceOnUse" x1="3.431" x2="4.247" y1="18.516" y2="18.516"><stop offset="0" stop-color="#f0b49b"/><stop offset="1" stop-color="#f0b49b" stop-opacity="0"/></linearGradient><radialGradient id="p" cx="0" cy="0" gradientTransform="matrix(-6.26775887 -.44576012 .97334426 -13.68603176 27.9238 16.3867)" gradientUnits="userSpaceOnUse" r="1"><stop offset=".777" stop-color="#ffe0c6" stop-opacity="0"/><stop offset=".975" stop-color="#ffe0c6"/></radialGradient><radialGradient id="q" cx="0" cy="0" gradientTransform="matrix(-6.19449052 6.1584852 -1.62446791 -1.63396529 26.5025 19.6992)" gradientUnits="userSpaceOnUse" r="1"><stop offset="0" stop-color="#d1a19e"/><stop offset="1" stop-color="#d1a19e" stop-opacity="0"/></radialGradient><radialGradient id="r" cx="0" cy="0" gradientTransform="matrix(-2.25181568 1.59803544 -1.03982872 -1.46523822 28.9612 13.9479)" gradientUnits="userSpaceOnUse" r="1"><stop offset="0" stop-color="#ffe5c8"/><stop offset="1" stop-color="#ffe5c8" stop-opacity="0"/></radialGradient><radialGradient id="s" cx="0" cy="0" gradientTransform="matrix(-3.08615228 3.46333455 -1.14942278 -1.02424229 25.3177 12.4433)" gradientUnits="userSpaceOnUse" r="1"><stop offset="0" stop-color="#e1aa8b"/><stop offset="1" stop-color="#e1aa8b" stop-opacity="0"/></radialGradient><linearGradient id="t" gradientUnits="userSpaceOnUse" x1="17.306" x2="20.143" y1="8.355" y2="8.355"><stop offset="0" stop-color="#eba784"/><stop offset="1" stop-color="#eba784" stop-opacity="0"/></linearGradient><linearGradient id="u" gradientUnits="userSpaceOnUse" x1="19.084" x2="19.084" y1="12.748" y2="10.371"><stop offset="0" stop-color="#fad3bd"/><stop offset="1" stop-color="#fad3bd" stop-opacity="0"/></linearGradient><radialGradient id="v" cx="0" cy="0" gradientTransform="matrix(1.6875 0 0 1.53125 21.2469 3.77312)" gradientUnits="userSpaceOnUse" r="1"><stop offset="0" stop-color="#ffe4c6"/><stop offset="1" stop-color="#ffe4c6" stop-opacity="0"/></radialGradient><radialGradient id="w" cx="0" cy="0" gradientTransform="matrix(1.25183 0 0 3.53051 16.8336 9.87949)" gradientUnits="userSpaceOnUse" r="1"><stop offset="0" stop-color="#e8a17c"/><stop offset="1" stop-color="#e8a17c" stop-opacity="0"/></radialGradient><linearGradient id="x" gradientUnits="userSpaceOnUse" x1="9.201" x2="12.028" y1="11.502" y2="11.616"><stop offset="0" stop-color="#e1af92"/><stop offset="1" stop-color="#eebea3"/></linearGradient><linearGradient id="y" gradientUnits="userSpaceOnUse" x1="12.493" x2="11.782" y1="12.965" y2="12.965"><stop offset="0" stop-color="#dc9f7d"/><stop offset="1" stop-color="#dc9f7d" stop-opacity="0"/></linearGradient><radialGradient id="z" cx="0" cy="0" gradientTransform="matrix(-.9253356 .5520705 -1.15265614 -1.93198833 13.0541 10.3182)" gradientUnits="userSpaceOnUse" r="1"><stop offset=".215" stop-color="#c38764"/><stop offset="1" stop-color="#c38764" stop-opacity="0"/></radialGradient><linearGradient id="A" gradientUnits="userSpaceOnUse" x1="13.297" x2="17.523" y1="10.576" y2="10.576"><stop offset="0" stop-color="#e5b397"/><stop offset="1" stop-color="#ffd7b6"/></linearGradient><linearGradient id="B" gradientUnits="userSpaceOnUse" x1="20.397" x2="20.397" y1="3.657" y2="14.102"><stop offset="0" stop-color="#ffe6c9"/><stop offset="1" stop-color="#cca48d" stop-opacity="0"/><stop offset="1" stop-color="#ffe6c9" stop-opacity="0"/></linearGradient><linearGradient id="C" gradientUnits="userSpaceOnUse" x1="6.708" x2="6.708" y1="8.046" y2="19.378"><stop offset="0" stop-color="#ffddbf"/><stop offset="1" stop-color="#ffddbf" stop-opacity="0"/></linearGradient><g filter="url(#a)"><path d="m28.7416 13.567c-.6987-.8085-2.0625-1.2891-3.2968-.6485-1.2344.6407-2.2083 1.3763-2.5782 1.7227 0 0-.6484.444-.6484-.3842 0-.8281 0-1.7537 0-1.7537v-7.50663c0-1.67187-1.125-2.96875-2.625-2.96875-1.4062 0-2.625 1.125-2.625 2.96875l-.0385 7.50663h-8.274v-3.97538c0-1.65625-1.15639-2.88021-2.59389-2.88021s-2.61349 1.40791-2.61349 2.76729c0 1.35937-.01729 11.2185-.01729 11.2185 0 7.1029 4.32772 10.2598 9.65317 10.2598 2.7087 0 5.4095-1.2204 7.1887-3.0919 2.2578-2.375 1.5625-3.3125 3.9609-5.8672 1.211-1.3828 3.139-2.7068 4.1953-3.5782 1.0564-.8713 1.2579-2.6953.3125-3.789z" fill="#f2bcab"/><path d="m28.7416 13.567c-.6987-.8085-2.0625-1.2891-3.2968-.6485-1.2344.6407-2.2083 1.3763-2.5782 1.7227 0 0-.6484.444-.6484-.3842 0-.8281 0-1.7537 0-1.7537v-7.50663c0-1.67187-1.125-2.96875-2.625-2.96875-1.4062 0-2.625 1.125-2.625 2.96875l-.0385 7.50663h-8.274v-3.97538c0-1.65625-1.15639-2.88021-2.59389-2.88021s-2.61349 1.40791-2.61349 2.76729c0 1.35937-.01729 11.2185-.01729 11.2185 0 7.1029 4.32772 10.2598 9.65317 10.2598 2.7087 0 5.4095-1.2204 7.1887-3.0919 2.2578-2.375 1.5625-3.3125 3.9609-5.8672 1.211-1.3828 3.139-2.7068 4.1953-3.5782 1.0564-.8713 1.2579-2.6953.3125-3.789z" fill="url(#j)"/><path d="m28.7416 13.567c-.6987-.8085-2.0625-1.2891-3.2968-.6485-1.2344.6407-2.2083 1.3763-2.5782 1.7227 0 0-.6484.444-.6484-.3842 0-.8281 0-1.7537 0-1.7537v-7.50663c0-1.67187-1.125-2.96875-2.625-2.96875-1.4062 0-2.625 1.125-2.625 2.96875l-.0385 7.50663h-8.274v-3.97538c0-1.65625-1.15639-2.88021-2.59389-2.88021s-2.61349 1.40791-2.61349 2.76729c0 1.35937-.01729 11.2185-.01729 11.2185 0 7.1029 4.32772 10.2598 9.65317 10.2598 2.7087 0 5.4095-1.2204 7.1887-3.0919 2.2578-2.375 1.5625-3.3125 3.9609-5.8672 1.211-1.3828 3.139-2.7068 4.1953-3.5782 1.0564-.8713 1.2579-2.6953.3125-3.789z" fill="url(#k)"/><path d="m28.7416 13.567c-.6987-.8085-2.0625-1.2891-3.2968-.6485-1.2344.6407-2.2083 1.3763-2.5782 1.7227 0 0-.6484.444-.6484-.3842 0-.8281 0-1.7537 0-1.7537v-7.50663c0-1.67187-1.125-2.96875-2.625-2.96875-1.4062 0-2.625 1.125-2.625 2.96875l-.0385 7.50663h-8.274v-3.97538c0-1.65625-1.15639-2.88021-2.59389-2.88021s-2.61349 1.40791-2.61349 2.76729c0 1.35937-.01729 11.2185-.01729 11.2185 0 7.1029 4.32772 10.2598 9.65317 10.2598 2.7087 0 5.4095-1.2204 7.1887-3.0919 2.2578-2.375 1.5625-3.3125 3.9609-5.8672 1.211-1.3828 3.139-2.7068 4.1953-3.5782 1.0564-.8713 1.2579-2.6953.3125-3.789z" fill="url(#l)"/><path d="m28.7416 13.567c-.6987-.8085-2.0625-1.2891-3.2968-.6485-1.2344.6407-2.2083 1.3763-2.5782 1.7227 0 0-.6484.444-.6484-.3842 0-.8281 0-1.7537 0-1.7537v-7.50663c0-1.67187-1.125-2.96875-2.625-2.96875-1.4062 0-2.625 1.125-2.625 2.96875l-.0385 7.50663h-8.274v-3.97538c0-1.65625-1.15639-2.88021-2.59389-2.88021s-2.61349 1.40791-2.61349 2.76729c0 1.35937-.01729 11.2185-.01729 11.2185 0 7.1029 4.32772 10.2598 9.65317 10.2598 2.7087 0 5.4095-1.2204 7.1887-3.0919 2.2578-2.375 1.5625-3.3125 3.9609-5.8672 1.211-1.3828 3.139-2.7068 4.1953-3.5782 1.0564-.8713 1.2579-2.6953.3125-3.789z" fill="url(#m)"/></g><path d="m28.7416 13.567c-.6987-.8085-2.0625-1.2891-3.2968-.6485-1.2344.6407-2.2083 1.3763-2.5782 1.7227 0 0-.6484.444-.6484-.3842 0-.8281 0-1.7537 0-1.7537v-7.50663c0-1.67187-1.125-2.96875-2.625-2.96875-1.4062 0-2.625 1.125-2.625 2.96875l-.0385 7.50663h-8.274v-3.97538c0-1.65625-1.15639-2.88021-2.59389-2.88021s-2.61349 1.40791-2.61349 2.76729c0 1.35937-.01729 11.2185-.01729 11.2185 0 7.1029 4.32772 10.2598 9.65317 10.2598 2.7087 0 5.4095-1.2204 7.1887-3.0919 2.2578-2.375 1.5625-3.3125 3.9609-5.8672 1.211-1.3828 3.139-2.7068 4.1953-3.5782 1.0564-.8713 1.2579-2.6953.3125-3.789z" fill="url(#n)"/><path d="m28.7416 13.567c-.6987-.8085-2.0625-1.2891-3.2968-.6485-1.2344.6407-2.2083 1.3763-2.5782 1.7227 0 0-.6484.444-.6484-.3842 0-.8281 0-1.7537 0-1.7537v-7.50663c0-1.67187-1.125-2.96875-2.625-2.96875-1.4062 0-2.625 1.125-2.625 2.96875l-.0385 7.50663h-8.274v-3.97538c0-1.65625-1.15639-2.88021-2.59389-2.88021s-2.61349 1.40791-2.61349 2.76729c0 1.35937-.01729 11.2185-.01729 11.2185 0 7.1029 4.32772 10.2598 9.65317 10.2598 2.7087 0 5.4095-1.2204 7.1887-3.0919 2.2578-2.375 1.5625-3.3125 3.9609-5.8672 1.211-1.3828 3.139-2.7068 4.1953-3.5782 1.0564-.8713 1.2579-2.6953.3125-3.789z" fill="url(#o)"/><g filter="url(#b)"><rect fill="#a55e53" height="5.966" rx="1.848" width="3.696" x="12.051" y="11.484"/></g><g filter="url(#c)"><rect fill="#a55e53" height="7.256" rx="2.204" width="4.409" x="7.442" y="10.195"/></g><path d="m25.4448 12.9186c1.2343-.6407 2.5981-.1601 3.2968.6484.9454 1.0937.7439 2.9177-.3125 3.7891-.2784.2297-.6175.4908-.988.7762-1.035.7972-2.3156 1.7836-3.2073 2.8019-.7933.845-1.2482 1.5131-1.5834 2.1148-1.4919-3.69-1.0366-6.7784-.3664-8.4371.1649.3153.5826.0293.5826.0293.3699-.3464 1.3438-1.082 2.5782-1.7226z" fill="#fcc8ad"/><path d="m25.4448 12.9186c1.2343-.6407 2.5981-.1601 3.2968.6484.9454 1.0937.7439 2.9177-.3125 3.7891-.2784.2297-.6175.4908-.988.7762-1.035.7972-2.3156 1.7836-3.2073 2.8019-.7933.845-1.2482 1.5131-1.5834 2.1148-1.4919-3.69-1.0366-6.7784-.3664-8.4371.1649.3153.5826.0293.5826.0293.3699-.3464 1.3438-1.082 2.5782-1.7226z" fill="url(#p)"/><path d="m25.4448 12.9186c1.2343-.6407 2.5981-.1601 3.2968.6484.9454 1.0937.7439 2.9177-.3125 3.7891-.2784.2297-.6175.4908-.988.7762-1.035.7972-2.3156 1.7836-3.2073 2.8019-.7933.845-1.2482 1.5131-1.5834 2.1148-1.4919-3.69-1.0366-6.7784-.3664-8.4371.1649.3153.5826.0293.5826.0293.3699-.3464 1.3438-1.082 2.5782-1.7226z" fill="url(#q)"/><path d="m25.4448 12.9186c1.2343-.6407 2.5981-.1601 3.2968.6484.9454 1.0937.7439 2.9177-.3125 3.7891-.2784.2297-.6175.4908-.988.7762-1.035.7972-2.3156 1.7836-3.2073 2.8019-.7933.845-1.2482 1.5131-1.5834 2.1148-1.4919-3.69-1.0366-6.7784-.3664-8.4371.1649.3153.5826.0293.5826.0293.3699-.3464 1.3438-1.082 2.5782-1.7226z" fill="url(#r)"/><path d="m25.4448 12.9186c1.2343-.6407 2.5981-.1601 3.2968.6484.9454 1.0937.7439 2.9177-.3125 3.7891-.2784.2297-.6175.4908-.988.7762-1.035.7972-2.3156 1.7836-3.2073 2.8019-.7933.845-1.2482 1.5131-1.5834 2.1148-1.4919-3.69-1.0366-6.7784-.3664-8.4371.1649.3153.5826.0293.5826.0293.3699-.3464 1.3438-1.082 2.5782-1.7226z" fill="url(#s)"/><path d="m22.2229 12.5006h-5.2885l.0385-7.50393c0-1.84375 1.2188-2.96875 2.625-2.96875 1.5 0 2.625 1.29688 2.625 2.96875z" fill="url(#t)"/><path d="m22.2229 12.5006h-5.2885l.0385-7.50393c0-1.84375 1.2188-2.96875 2.625-2.96875 1.5 0 2.625 1.29688 2.625 2.96875z" fill="url(#u)"/><path d="m22.2229 12.5006h-5.2885l.0385-7.50393c0-1.84375 1.2188-2.96875 2.625-2.96875 1.5 0 2.625 1.29688 2.625 2.96875z" fill="url(#v)"/><path d="m22.2229 12.5006h-5.2885l.0385-7.50393c0-1.84375 1.2188-2.96875 2.625-2.96875 1.5 0 2.625 1.29688 2.625 2.96875z" fill="url(#w)"/><g filter="url(#d)"><rect fill="url(#x)" height="8.172" rx="2.539" width="5.172" x="7.882" y="8.879"/><rect fill="url(#y)" height="8.172" rx="2.539" width="5.172" x="7.882" y="8.879"/><rect fill="url(#z)" height="8.172" rx="2.539" width="5.172" x="7.882" y="8.879"/></g><g filter="url(#e)"><rect fill="url(#A)" height="9.734" rx="2.539" width="5.078" x="12.445" y="7.317"/></g><g filter="url(#f)"><rect fill="url(#B)" height="10.444" rx=".818" width="1.636" x="19.579" y="3.657"/></g><g filter="url(#g)"><rect fill="#ffe6c8" height="6.264" rx=".734" width="1.468" x="15.266" y="9.052"/></g><g filter="url(#h)"><rect fill="url(#C)" height="8.935" rx=".734" width="1.468" x="5.974" y="7.065"/></g><g filter="url(#i)"><rect fill="#ffd2bb" height="4.274" rx=".513" width="1.027" x="10.468" y="10.485"/></g></svg>