<svg fill="none" height="32" viewBox="0 0 32 32" width="32" xmlns="http://www.w3.org/2000/svg" xmlns:xlink="http://www.w3.org/1999/xlink"><filter id="a" color-interpolation-filters="sRGB" filterUnits="userSpaceOnUse" height="28.703" width="20.413" x="6.358" y="1.273"><feFlood flood-opacity="0" result="BackgroundImageFix"/><feBlend in="SourceGraphic" in2="BackgroundImageFix" mode="normal" result="shape"/><feColorMatrix in="SourceAlpha" result="hardAlpha" type="matrix" values="0 0 0 0 0 0 0 0 0 0 0 0 0 0 0 0 0 0 127 0"/><feOffset dx=".75" dy="-.75"/><feGaussianBlur stdDeviation="1.25"/><feComposite in2="hardAlpha" k2="-1" k3="1" operator="arithmetic"/><feColorMatrix type="matrix" values="0 0 0 0 0.4125 0 0 0 0 0.295363 0 0 0 0 0.249219 0 0 0 1 0"/><feBlend in2="shape" mode="normal" result="effect1_innerShadow_20020_2510"/></filter><filter id="b" color-interpolation-filters="sRGB" filterUnits="userSpaceOnUse" height="9.703" width="14.875" x="11.709" y="13.252"><feFlood flood-opacity="0" result="BackgroundImageFix"/><feBlend in="SourceGraphic" in2="BackgroundImageFix" mode="normal" result="shape"/><feGaussianBlur result="effect1_foregroundBlur_20020_2510" stdDeviation="1"/></filter><filter id="c" color-interpolation-filters="sRGB" filterUnits="userSpaceOnUse" height="10.995" width="10.099" x="8.024" y="8.959"><feFlood flood-opacity="0" result="BackgroundImageFix"/><feBlend in="SourceGraphic" in2="BackgroundImageFix" mode="normal" result="shape"/><feGaussianBlur result="effect1_foregroundBlur_20020_2510" stdDeviation="1"/></filter><filter id="d" color-interpolation-filters="sRGB" filterUnits="userSpaceOnUse" height="8.953" width="6.145" x="10.729" y="8.055"><feFlood flood-opacity="0" result="BackgroundImageFix"/><feBlend in="SourceGraphic" in2="BackgroundImageFix" mode="normal" result="shape"/><feColorMatrix in="SourceAlpha" result="hardAlpha" type="matrix" values="0 0 0 0 0 0 0 0 0 0 0 0 0 0 0 0 0 0 127 0"/><feOffset dx=".75" dy="-.75"/><feGaussianBlur stdDeviation="1"/><feComposite in2="hardAlpha" k2="-1" k3="1" operator="arithmetic"/><feColorMatrix type="matrix" values="0 0 0 0 0.443137 0 0 0 0 0.313726 0 0 0 0 0.258824 0 0 0 1 0"/><feBlend in2="shape" mode="normal" result="effect1_innerShadow_20020_2510"/></filter><filter id="e" color-interpolation-filters="sRGB" filterUnits="userSpaceOnUse" height="11.031" width="6.082" x="15.596" y="6.445"><feFlood flood-opacity="0" result="BackgroundImageFix"/><feBlend in="SourceGraphic" in2="BackgroundImageFix" mode="normal" result="shape"/><feColorMatrix in="SourceAlpha" result="hardAlpha" type="matrix" values="0 0 0 0 0 0 0 0 0 0 0 0 0 0 0 0 0 0 127 0"/><feOffset dx=".75" dy="-.75"/><feGaussianBlur stdDeviation="1"/><feComposite in2="hardAlpha" k2="-1" k3="1" operator="arithmetic"/><feColorMatrix type="matrix" values="0 0 0 0 0.392157 0 0 0 0 0.262745 0 0 0 0 0.223529 0 0 0 1 0"/><feBlend in2="shape" mode="normal" result="effect1_innerShadow_20020_2510"/></filter><filter id="f" color-interpolation-filters="sRGB" filterUnits="userSpaceOnUse" height="19.063" width="5.5" x="20.966" y="1.852"><feFlood flood-opacity="0" result="BackgroundImageFix"/><feBlend in="SourceGraphic" in2="BackgroundImageFix" mode="normal" result="shape"/><feGaussianBlur result="effect1_foregroundBlur_20020_2510" stdDeviation="1"/></filter><filter id="g" color-interpolation-filters="sRGB" filterUnits="userSpaceOnUse" height="8.746" width="11.654" x="15.812" y="13.791"><feFlood flood-opacity="0" result="BackgroundImageFix"/><feBlend in="SourceGraphic" in2="BackgroundImageFix" mode="normal" result="shape"/><feGaussianBlur result="effect1_foregroundBlur_20020_2510" stdDeviation=".85"/></filter><filter id="h" color-interpolation-filters="sRGB" filterUnits="userSpaceOnUse" height="9.736" width="3" x="8.172" y="7.074"><feFlood flood-opacity="0" result="BackgroundImageFix"/><feBlend in="SourceGraphic" in2="BackgroundImageFix" mode="normal" result="shape"/><feGaussianBlur result="effect1_foregroundBlur_20020_2510" stdDeviation=".5"/></filter><filter id="i" color-interpolation-filters="sRGB" filterUnits="userSpaceOnUse" height="5.453" width="2.851" x="13.001" y="10.395"><feFlood flood-opacity="0" result="BackgroundImageFix"/><feBlend in="SourceGraphic" in2="BackgroundImageFix" mode="normal" result="shape"/><feGaussianBlur result="effect1_foregroundBlur_20020_2510" stdDeviation=".5"/></filter><filter id="j" color-interpolation-filters="sRGB" filterUnits="userSpaceOnUse" height="6.626" width="3.367" x="17.916" y="7.988"><feFlood flood-opacity="0" result="BackgroundImageFix"/><feBlend in="SourceGraphic" in2="BackgroundImageFix" mode="normal" result="shape"/><feGaussianBlur result="effect1_foregroundBlur_20020_2510" stdDeviation=".5"/></filter><radialGradient id="k" cx="0" cy="0" gradientTransform="matrix(1.40994346 -4.40606579 5.09243015 1.62958043 21.3626 16.563)" gradientUnits="userSpaceOnUse" r="1"><stop offset="0" stop-color="#977567"/><stop offset="1" stop-color="#977567" stop-opacity="0"/></radialGradient><radialGradient id="l" cx="0" cy="0" gradientTransform="matrix(-5.26865 0 0 -4.94397 21.9085 20.944)" gradientUnits="userSpaceOnUse" r="1"><stop offset="0" stop-color="#946e6e"/><stop offset="1" stop-color="#946e6e" stop-opacity="0"/></radialGradient><radialGradient id="m" cx="0" cy="0" gradientTransform="matrix(-7.59132827 6.41698688 -6.71793606 -7.94735269 11.7678 16)" gradientUnits="userSpaceOnUse" r="1"><stop offset="0" stop-color="#724d49"/><stop offset="1" stop-color="#724d49" stop-opacity="0"/></radialGradient><radialGradient id="n" cx="0" cy="0" gradientTransform="matrix(3.85234421 -8.63603229 17.74321388 7.91485776 13.0708 29.9766)" gradientUnits="userSpaceOnUse" r="1"><stop offset="0" stop-color="#885462"/><stop offset="1" stop-color="#885462" stop-opacity="0"/></radialGradient><radialGradient id="o" cx="0" cy="0" gradientTransform="matrix(-3.39061764 3.59376096 -2.77813676 -2.62109795 12.9345 12.6641)" gradientUnits="userSpaceOnUse" r="1"><stop offset="0" stop-color="#52292d"/><stop offset="1" stop-color="#52292d" stop-opacity="0"/></radialGradient><radialGradient id="p" cx="0" cy="0" gradientTransform="matrix(2.07716 0 0 1.61948 10.1822 7.6834)" gradientUnits="userSpaceOnUse" r="1"><stop offset="0" stop-color="#9e7b6f"/><stop offset="1" stop-color="#9e7b6f" stop-opacity="0"/></radialGradient><radialGradient id="q" cx="0" cy="0" gradientTransform="matrix(2.5 0 0 2.21875 24.2984 4.0625)" gradientUnits="userSpaceOnUse" r="1"><stop offset="0" stop-color="#a37f71"/><stop offset="1" stop-color="#a37f71" stop-opacity="0"/></radialGradient><linearGradient id="r" gradientUnits="userSpaceOnUse" x1="12.033" x2="15.053" y1="11.551" y2="11.561"><stop offset="0" stop-color="#785146"/><stop offset="1" stop-color="#8d6958"/></linearGradient><radialGradient id="s" cx="0" cy="0" gradientTransform="matrix(-1.31357419 .85702714 -1.14666442 -1.75750419 16.4716 9.94609)" gradientUnits="userSpaceOnUse" r="1"><stop offset=".215" stop-color="#553225"/><stop offset="1" stop-color="#553225" stop-opacity="0"/></radialGradient><radialGradient id="t" cx="0" cy="0" gradientTransform="matrix(0 -3.11578 6.51664 0 13.4259 17.2075)" gradientUnits="userSpaceOnUse" r="1"><stop offset="0" stop-color="#6a384e"/><stop offset="1" stop-color="#6a384e" stop-opacity="0"/></radialGradient><linearGradient id="u" gradientUnits="userSpaceOnUse" x1="15.587" x2="15.217" y1="12.906" y2="12.906"><stop offset="0" stop-color="#5f3627"/><stop offset="1" stop-color="#5f3627" stop-opacity="0"/></linearGradient><radialGradient id="v" cx="0" cy="0" gradientTransform="matrix(-9.15733982 3.2586211 -4.64840087 -13.06288305 19.886 12.052)" gradientUnits="userSpaceOnUse" r="1"><stop offset=".889" stop-color="#7d5752" stop-opacity="0"/><stop offset="1" stop-color="#7d5752"/></radialGradient><linearGradient id="w" gradientUnits="userSpaceOnUse" x1="16.491" x2="20.928" y1="10.638" y2="10.638"><stop offset="0" stop-color="#7a574a"/><stop offset="1" stop-color="#956c59"/></linearGradient><linearGradient id="x" gradientUnits="userSpaceOnUse" x1="21.399" x2="18.262" y1="11.495" y2="11.495"><stop offset="0" stop-color="#9f7868"/><stop offset="1" stop-color="#9f7868" stop-opacity="0"/></linearGradient><radialGradient id="y" cx="0" cy="0" gradientTransform="matrix(-2.07749475 4.93806284 -15.16801075 -6.38134096 22.5913 15.4965)" gradientUnits="userSpaceOnUse" r="1"><stop offset="0" stop-color="#9f7769"/><stop offset="1" stop-color="#6e384d"/></radialGradient><linearGradient id="z" gradientUnits="userSpaceOnUse" x1="24.831" x2="21.825" y1="22.688" y2="20.179"><stop offset=".249" stop-color="#8c5f5d"/><stop offset="1" stop-color="#8c5f5d" stop-opacity="0"/></linearGradient><radialGradient id="A" cx="0" cy="0" gradientTransform="matrix(-6.05883 0 0 -12.0286 21.1352 16.795)" gradientUnits="userSpaceOnUse" r="1"><stop offset=".838" stop-color="#79534f" stop-opacity="0"/><stop offset="1" stop-color="#79534f"/></radialGradient><linearGradient id="B" gradientUnits="userSpaceOnUse" x1="18.262" x2="25.608" y1="16.241" y2="18.953"><stop offset="0" stop-color="#a57f75"/><stop offset="1" stop-color="#a57f75" stop-opacity="0"/></linearGradient><linearGradient id="C" gradientUnits="userSpaceOnUse" x1="26.309" x2="23.746" y1="16.723" y2="16.723"><stop offset="0" stop-color="#9c786a"/><stop offset="1" stop-color="#9c786a" stop-opacity="0"/></linearGradient><radialGradient id="D" cx="0" cy="0" gradientTransform="matrix(22.82617009 10.50103732 -11.16142183 24.261652 4.07495 11.6942)" gradientUnits="userSpaceOnUse" r="1"><stop offset=".946" stop-color="#906262" stop-opacity="0"/><stop offset="1" stop-color="#906262"/></radialGradient><linearGradient id="E" gradientUnits="userSpaceOnUse" x1="6.195" x2="7.023" y1="16.752" y2="16.752"><stop offset="0" stop-color="#835e56"/><stop offset="1" stop-color="#835e56" stop-opacity="0"/></linearGradient><radialGradient id="F" cx="0" cy="0" gradientTransform="matrix(-3.73896844 19.88493376 -15.06185405 -2.83208371 18.2261 10.5766)" gradientUnits="userSpaceOnUse" r="1"><stop offset=".839" stop-color="#7b406c" stop-opacity="0"/><stop offset="1" stop-color="#7b406c"/></radialGradient><linearGradient id="G" gradientUnits="userSpaceOnUse" x1="10.305" x2="10.353" y1="8.258" y2="17.402"><stop offset="0" stop-color="#9e7c70"/><stop offset="1" stop-color="#9e7c70" stop-opacity="0"/></linearGradient><g filter="url(#a)"><path d="m22.9494 2.02344c-1.4724 0-2.666 1.19362-2.666 2.66601v8.21675h-8.5938v-4.57612c0-1.4724-1.1936-2.66602-2.66601-2.66602-1.4724 0-2.66602 1.19362-2.66602 2.66602v10.80272c0 6.6563 3.45313 10.4063 8.73433 10.8438h1.1875c2.9102-.2911 5.9063-1.3282 8.1563-4.5469 1.8906-3.0469 1.6481-6.0903 1.4574-7.8754l-.0199-.1871c-.1375-1.3065-.2243-2.3625-.2578-2.8262v-9.85155c0-1.47239-1.1936-2.66601-2.666-2.66601z" fill="#926362"/><path d="m22.9494 2.02344c-1.4724 0-2.666 1.19362-2.666 2.66601v8.21675h-8.5938v-4.57612c0-1.4724-1.1936-2.66602-2.66601-2.66602-1.4724 0-2.66602 1.19362-2.66602 2.66602v10.80272c0 6.6563 3.45313 10.4063 8.73433 10.8438h1.1875c2.9102-.2911 5.9063-1.3282 8.1563-4.5469 1.8906-3.0469 1.6481-6.0903 1.4574-7.8754l-.0199-.1871c-.1375-1.3065-.2243-2.3625-.2578-2.8262v-9.85155c0-1.47239-1.1936-2.66601-2.666-2.66601z" fill="url(#k)"/><path d="m22.9494 2.02344c-1.4724 0-2.666 1.19362-2.666 2.66601v8.21675h-8.5938v-4.57612c0-1.4724-1.1936-2.66602-2.66601-2.66602-1.4724 0-2.66602 1.19362-2.66602 2.66602v10.80272c0 6.6563 3.45313 10.4063 8.73433 10.8438h1.1875c2.9102-.2911 5.9063-1.3282 8.1563-4.5469 1.8906-3.0469 1.6481-6.0903 1.4574-7.8754l-.0199-.1871c-.1375-1.3065-.2243-2.3625-.2578-2.8262v-9.85155c0-1.47239-1.1936-2.66601-2.666-2.66601z" fill="url(#l)"/><path d="m22.9494 2.02344c-1.4724 0-2.666 1.19362-2.666 2.66601v8.21675h-8.5938v-4.57612c0-1.4724-1.1936-2.66602-2.66601-2.66602-1.4724 0-2.66602 1.19362-2.66602 2.66602v10.80272c0 6.6563 3.45313 10.4063 8.73433 10.8438h1.1875c2.9102-.2911 5.9063-1.3282 8.1563-4.5469 1.8906-3.0469 1.6481-6.0903 1.4574-7.8754l-.0199-.1871c-.1375-1.3065-.2243-2.3625-.2578-2.8262v-9.85155c0-1.47239-1.1936-2.66601-2.666-2.66601z" fill="url(#m)"/><path d="m22.9494 2.02344c-1.4724 0-2.666 1.19362-2.666 2.66601v8.21675h-8.5938v-4.57612c0-1.4724-1.1936-2.66602-2.66601-2.66602-1.4724 0-2.66602 1.19362-2.66602 2.66602v10.80272c0 6.6563 3.45313 10.4063 8.73433 10.8438h1.1875c2.9102-.2911 5.9063-1.3282 8.1563-4.5469 1.8906-3.0469 1.6481-6.0903 1.4574-7.8754l-.0199-.1871c-.1375-1.3065-.2243-2.3625-.2578-2.8262v-9.85155c0-1.47239-1.1936-2.66601-2.666-2.66601z" fill="url(#n)"/></g><g fill="#59323b" filter="url(#b)"><path d="m16.5606 15.2517c-1.5749 0-2.8516 1.2767-2.8516 2.8516 0 1.5748 1.2767 2.8515 2.8516 2.8515h1.624c3.034 0 4.1278 0 6.3994-.2554 0-3.5009-2.836-5.4435-6.3359-5.4477"/><path d="m16.5606 15.2517h1.6797z"/></g><g filter="url(#c)"><path d="m10.0243 10.9586h6.09893v6.99453h-6.09893z" fill="#59323b"/></g><rect fill="url(#o)" height="11.813" rx="2.666" width="5.332" x="6.358" y="5.664"/><rect fill="url(#p)" height="11.813" rx="2.666" width="5.332" x="6.358" y="5.664"/><rect fill="url(#q)" height="15.453" rx="2.666" width="5.332" x="20.283" y="2.023"/><g filter="url(#d)"><rect fill="url(#r)" height="8.203" rx="2.697" width="5.395" x="10.729" y="8.805"/><rect fill="url(#s)" height="8.203" rx="2.697" width="5.395" x="10.729" y="8.805"/></g><rect fill="url(#t)" height="8.203" rx="2.697" width="5.395" x="10.729" y="8.805"/><rect fill="url(#u)" height="8.203" rx="2.697" width="5.395" x="10.729" y="8.805"/><rect fill="url(#v)" height="8.203" rx="2.697" width="5.395" x="10.729" y="8.805"/><g filter="url(#e)"><rect fill="url(#w)" height="10.281" rx="2.666" width="5.332" x="15.596" y="7.195"/></g><rect fill="url(#x)" height="10.281" rx="2.666" width="5.332" x="15.596" y="7.195"/><g filter="url(#f)"><path d="m23.7157 4.60156v13.56254" stroke="#9c776c" stroke-linecap="round" stroke-width="1.5"/></g><path d="m17.9279 14.1172c-1.5749 0-2.8516 1.2767-2.8516 2.8516 0 1.5748 1.2767 2.8515 2.8516 2.8515h1.624c.3001.0266.5742.1876.7432.4407l2.4712 3.6516c.4414.6523 1.4286.562 1.7443-.1595l.9374-2.1421c.332-.7585.5426-1.5857.3807-2.3976-.5791-2.9037-3.1403-5.0925-6.2133-5.0962" fill="url(#y)"/><path d="m17.9279 14.1172c-1.5749 0-2.8516 1.2767-2.8516 2.8516 0 1.5748 1.2767 2.8515 2.8516 2.8515h1.624c.3001.0266.5742.1876.7432.4407l2.4712 3.6516c.4414.6523 1.4286.562 1.7443-.1595l.9374-2.1421c.332-.7585.5426-1.5857.3807-2.3976-.5791-2.9037-3.1403-5.0925-6.2133-5.0962" fill="url(#z)"/><path d="m17.9279 14.1172h1.6797z" fill="url(#y)"/><path d="m17.9279 14.1172h1.6797z" fill="url(#z)"/><path d="m17.9279 14.1172c-1.5749 0-2.8516 1.2767-2.8516 2.8516 0 1.5748 1.2767 2.8515 2.8516 2.8515h1.624c.3001.0266.5742.1876.7432.4407l2.4712 3.6516c.4414.6523 1.4286.562 1.7443-.1595l.9374-2.1421c.332-.7585.5426-1.5857.3807-2.3976-.5791-2.9037-3.1403-5.0925-6.2133-5.0962" fill="url(#A)"/><path d="m17.9279 14.1172h1.6797z" fill="url(#A)"/><g filter="url(#g)"><path d="m18.2619 16.2413h2.8336c1.0828 0 2.0816.5835 2.6134 1.5268l1.3072 2.3187" stroke="url(#B)" stroke-linecap="round" stroke-width="1.5"/></g><path d="m22.9494 2.02344c-1.4724 0-2.666 1.19362-2.666 2.66601v3.43364c.4017.46674.6445 1.07413.6445 1.73824v4.94917c0 1.4724-1.1936 2.6661-2.666 2.6661-1.1643 0-2.1542-.7463-2.5176-1.7867-.4706.7893-1.3327 1.3179-2.3184 1.3179-1.4896 0-2.6972-1.2076-2.6972-2.6973v-2.8085c0-.8283.3733-1.56941.9609-2.06419v-1.10773c0-1.4724-1.1936-2.66602-2.66601-2.66602-1.4724 0-2.66602 1.19362-2.66602 2.66602v10.80272c0 6.6563 3.45313 10.4063 8.73433 10.8438h1.1875c2.9102-.2911 5.9063-1.3282 8.1563-4.5469 1.8906-3.0469 1.6481-6.0903 1.4574-7.8754l-.0199-.1871c-.1375-1.3065-.2243-2.3625-.2578-2.8262v-9.85155c0-1.47239-1.1936-2.66601-2.666-2.66601z" fill="url(#C)"/><path d="m22.9494 2.02344c-1.4724 0-2.666 1.19362-2.666 2.66601v3.43364c.4017.46674.6445 1.07413.6445 1.73824v4.94917c0 1.4724-1.1936 2.6661-2.666 2.6661-1.1643 0-2.1542-.7463-2.5176-1.7867-.4706.7893-1.3327 1.3179-2.3184 1.3179-1.4896 0-2.6972-1.2076-2.6972-2.6973v-2.8085c0-.8283.3733-1.56941.9609-2.06419v-1.10773c0-1.4724-1.1936-2.66602-2.66601-2.66602-1.4724 0-2.66602 1.19362-2.66602 2.66602v10.80272c0 6.6563 3.45313 10.4063 8.73433 10.8438h1.1875c2.9102-.2911 5.9063-1.3282 8.1563-4.5469 1.8906-3.0469 1.6481-6.0903 1.4574-7.8754l-.0199-.1871c-.1375-1.3065-.2243-2.3625-.2578-2.8262v-9.85155c0-1.47239-1.1936-2.66601-2.666-2.66601z" fill="url(#D)"/><path d="m22.9494 2.02344c-1.4724 0-2.666 1.19362-2.666 2.66601v3.43364c.4017.46674.6445 1.07413.6445 1.73824v4.94917c0 1.4724-1.1936 2.6661-2.666 2.6661-1.1643 0-2.1542-.7463-2.5176-1.7867-.4706.7893-1.3327 1.3179-2.3184 1.3179-1.4896 0-2.6972-1.2076-2.6972-2.6973v-2.8085c0-.8283.3733-1.56941.9609-2.06419v-1.10773c0-1.4724-1.1936-2.66602-2.66601-2.66602-1.4724 0-2.66602 1.19362-2.66602 2.66602v10.80272c0 6.6563 3.45313 10.4063 8.73433 10.8438h1.1875c2.9102-.2911 5.9063-1.3282 8.1563-4.5469 1.8906-3.0469 1.6481-6.0903 1.4574-7.8754l-.0199-.1871c-.1375-1.3065-.2243-2.3625-.2578-2.8262v-9.85155c0-1.47239-1.1936-2.66601-2.666-2.66601z" fill="url(#E)"/><path d="m22.9494 2.02344c-1.4724 0-2.666 1.19362-2.666 2.66601v3.43364c.4017.46674.6445 1.07413.6445 1.73824v4.94917c0 1.4724-1.1936 2.6661-2.666 2.6661-1.1643 0-2.1542-.7463-2.5176-1.7867-.4706.7893-1.3327 1.3179-2.3184 1.3179-1.4896 0-2.6972-1.2076-2.6972-2.6973v-2.8085c0-.8283.3733-1.56941.9609-2.06419v-1.10773c0-1.4724-1.1936-2.66602-2.66601-2.66602-1.4724 0-2.66602 1.19362-2.66602 2.66602v10.80272c0 6.6563 3.45313 10.4063 8.73433 10.8438h1.1875c2.9102-.2911 5.9063-1.3282 8.1563-4.5469 1.8906-3.0469 1.6481-6.0903 1.4574-7.8754l-.0199-.1871c-.1375-1.3065-.2243-2.3625-.2578-2.8262v-9.85155c0-1.47239-1.1936-2.66601-2.666-2.66601z" fill="url(#F)"/><g filter="url(#h)"><path d="m9.67236 8.57446v6.73614" stroke="url(#G)" stroke-linecap="round"/></g><g filter="url(#i)"><rect fill="#99786f" height="3.453" rx=".426" width=".851" x="14.001" y="11.395"/></g><g filter="url(#j)"><rect fill="#a07a70" height="4.626" rx=".684" width="1.367" x="18.916" y="8.988"/></g></svg>