<svg fill="none" height="32" viewBox="0 0 32 32" width="32" xmlns="http://www.w3.org/2000/svg" xmlns:xlink="http://www.w3.org/1999/xlink"><filter id="a" color-interpolation-filters="sRGB" filterUnits="userSpaceOnUse" height="10.915" width="9.747" x="17.071" y="1.409"><feFlood flood-opacity="0" result="BackgroundImageFix"/><feBlend in="SourceGraphic" in2="BackgroundImageFix" mode="normal" result="shape"/><feGaussianBlur result="effect1_foregroundBlur_20020_2271" stdDeviation="1"/></filter><filter id="b" color-interpolation-filters="sRGB" filterUnits="userSpaceOnUse" height="28.601" width="20.855" x="5.809" y="1.325"><feFlood flood-opacity="0" result="BackgroundImageFix"/><feBlend in="SourceGraphic" in2="BackgroundImageFix" mode="normal" result="shape"/><feColorMatrix in="SourceAlpha" result="hardAlpha" type="matrix" values="0 0 0 0 0 0 0 0 0 0 0 0 0 0 0 0 0 0 127 0"/><feOffset dx=".5" dy="-.75"/><feGaussianBlur stdDeviation=".75"/><feComposite in2="hardAlpha" k2="-1" k3="1" operator="arithmetic"/><feColorMatrix type="matrix" values="0 0 0 0 0.729412 0 0 0 0 0.490196 0 0 0 0 0.596078 0 0 0 1 0"/><feBlend in2="shape" mode="normal" result="effect1_innerShadow_20020_2271"/></filter><filter id="c" color-interpolation-filters="sRGB" filterUnits="userSpaceOnUse" height="10.475" width="14.735" x="11.692" y="13.106"><feFlood flood-opacity="0" result="BackgroundImageFix"/><feBlend in="SourceGraphic" in2="BackgroundImageFix" mode="normal" result="shape"/><feGaussianBlur result="effect1_foregroundBlur_20020_2271" stdDeviation="1"/></filter><filter id="d" color-interpolation-filters="sRGB" filterUnits="userSpaceOnUse" height="9.171" width="7.158" x="5.362" y="8.7"><feFlood flood-opacity="0" result="BackgroundImageFix"/><feBlend in="SourceGraphic" in2="BackgroundImageFix" mode="normal" result="shape"/><feGaussianBlur result="effect1_foregroundBlur_20020_2271" stdDeviation=".5"/></filter><filter id="e" color-interpolation-filters="sRGB" filterUnits="userSpaceOnUse" height="11.13" width="9.128" x="7.814" y="8.472"><feFlood flood-opacity="0" result="BackgroundImageFix"/><feBlend in="SourceGraphic" in2="BackgroundImageFix" mode="normal" result="shape"/><feGaussianBlur result="effect1_foregroundBlur_20020_2271" stdDeviation="1"/></filter><filter id="f" color-interpolation-filters="sRGB" filterUnits="userSpaceOnUse" height="22.961" width="11.372" x="15.717" y="1.229"><feFlood flood-opacity="0" result="BackgroundImageFix"/><feBlend in="SourceGraphic" in2="BackgroundImageFix" mode="normal" result="shape"/><feGaussianBlur result="effect1_foregroundBlur_20020_2271" stdDeviation="1"/></filter><filter id="g" color-interpolation-filters="sRGB" filterUnits="userSpaceOnUse" height="6.984" width="3.86" x="7.204" y="9.237"><feFlood flood-opacity="0" result="BackgroundImageFix"/><feBlend in="SourceGraphic" in2="BackgroundImageFix" mode="normal" result="shape"/><feGaussianBlur result="effect1_foregroundBlur_20020_2271" stdDeviation=".625"/></filter><filter id="h" color-interpolation-filters="sRGB" filterUnits="userSpaceOnUse" height="9.397" width="5.193" x="11.616" y="7.325"><feFlood flood-opacity="0" result="BackgroundImageFix"/><feBlend in="SourceGraphic" in2="BackgroundImageFix" mode="normal" result="shape"/><feGaussianBlur result="effect1_foregroundBlur_20020_2271" stdDeviation=".875"/></filter><filter id="i" color-interpolation-filters="sRGB" filterUnits="userSpaceOnUse" height="9.797" width="11.553" x="15.722" y="13.001"><feFlood flood-opacity="0" result="BackgroundImageFix"/><feBlend in="SourceGraphic" in2="BackgroundImageFix" mode="normal" result="shape"/><feGaussianBlur result="effect1_foregroundBlur_20020_2271" stdDeviation="1"/></filter><linearGradient id="j" gradientUnits="userSpaceOnUse" x1="16.787" x2="25.014" y1="16.053" y2="3.286"><stop offset="0" stop-color="#f6a781"/><stop offset="1" stop-color="#f9c6a7"/></linearGradient><radialGradient id="k" cx="0" cy="0" gradientTransform="matrix(-6.24997937 -4.25003349 11.43173767 -16.81119097 23.2975 10.7934)" gradientUnits="userSpaceOnUse" r="1"><stop offset=".55" stop-color="#d6a58a" stop-opacity="0"/><stop offset="1" stop-color="#d6a58a"/></radialGradient><radialGradient id="l" cx="0" cy="0" gradientTransform="matrix(-1.44891688 .96594212 -7.83612488 -11.75421733 20.1123 11.5697)" gradientUnits="userSpaceOnUse" r="1"><stop offset=".331" stop-color="#e2916e"/><stop offset="1" stop-color="#e2916e" stop-opacity="0"/></radialGradient><radialGradient id="m" cx="0" cy="0" gradientTransform="matrix(0 -3.26935 1.63468 0 19.1835 14.8019)" gradientUnits="userSpaceOnUse" r="1"><stop offset="0" stop-color="#ffcaac"/><stop offset="1" stop-color="#ffcaac" stop-opacity="0"/></radialGradient><radialGradient id="n" cx="0" cy="0" gradientTransform="matrix(-2.19826137 2.7726208 -3.64082153 -2.88661087 25.7965 2.46751)" gradientUnits="userSpaceOnUse" r="1"><stop offset=".146" stop-color="#ffe1c2"/><stop offset="1" stop-color="#ffe1c2" stop-opacity="0"/></radialGradient><radialGradient id="o" cx="0" cy="0" gradientTransform="matrix(9.31252991 10.06253432 -14.13906986 13.08522355 6.67387 14.5307)" gradientUnits="userSpaceOnUse" r="1"><stop offset="0" stop-color="#d7a092"/><stop offset="1" stop-color="#d7a092" stop-opacity="0"/></radialGradient><radialGradient id="p" cx="0" cy="0" gradientTransform="matrix(-5.53125 0 0 -2.78125 20.6903 20.7406)" gradientUnits="userSpaceOnUse" r="1"><stop offset="0" stop-color="#f7c1b4"/><stop offset="1" stop-color="#f7c1b4" stop-opacity="0"/></radialGradient><radialGradient id="q" cx="0" cy="0" gradientTransform="matrix(.61472096 -8.46659328 16.95696397 1.23116829 14.3508 29.9252)" gradientUnits="userSpaceOnUse" r="1"><stop offset="0" stop-color="#e8b1ac"/><stop offset="1" stop-color="#e8b1ac" stop-opacity="0"/></radialGradient><linearGradient id="r" gradientUnits="userSpaceOnUse" x1="5.809" x2="8.141" y1="13.356" y2="13.356"><stop offset="0" stop-color="#dbaa8f"/><stop offset="1" stop-color="#dbaa8f" stop-opacity="0"/></linearGradient><radialGradient id="s" cx="0" cy="0" gradientTransform="matrix(0 6.14698 -4.32661 0 8.60016 10.4901)" gradientUnits="userSpaceOnUse" r="1"><stop offset=".613" stop-color="#c58789" stop-opacity="0"/><stop offset="1" stop-color="#c58789"/></radialGradient><radialGradient id="t" cx="0" cy="0" gradientTransform="matrix(-1.375 0 0 -3.75 10.86 12.6996)" gradientUnits="userSpaceOnUse" r="1"><stop offset=".423" stop-color="#ce9175"/><stop offset="1" stop-color="#ce9175" stop-opacity="0"/></radialGradient><linearGradient id="u" gradientUnits="userSpaceOnUse" x1="5.482" x2="9.225" y1="13.021" y2="13.021"><stop offset="0" stop-color="#eeb59b"/><stop offset=".25" stop-color="#eeb59b" stop-opacity="0"/></linearGradient><radialGradient id="v" cx="0" cy="0" gradientTransform="matrix(0 6.80191 -4.23235 0 13.1605 9.563)" gradientUnits="userSpaceOnUse" r="1"><stop offset=".661" stop-color="#c8898e" stop-opacity="0"/><stop offset="1" stop-color="#c8898e"/></radialGradient><linearGradient id="w" gradientUnits="userSpaceOnUse" x1="9.93" x2="12.694" y1="12.861" y2="12.861"><stop offset="0" stop-color="#cf977d"/><stop offset="1" stop-color="#cf977d" stop-opacity="0"/></linearGradient><radialGradient id="x" cx="0" cy="0" gradientTransform="matrix(-1.16273551 -.82076685 1.14253048 -1.61856044 15.5839 15.8783)" gradientUnits="userSpaceOnUse" r="1"><stop offset=".174" stop-color="#c97e64"/><stop offset="1" stop-color="#c97e64" stop-opacity="0"/></radialGradient><linearGradient id="y" gradientUnits="userSpaceOnUse" x1="17.642" x2="13.161" y1="10.117" y2="11.102"><stop offset="0" stop-color="#ffd5b4"/><stop offset="1" stop-color="#ffd5b4" stop-opacity="0"/></linearGradient><radialGradient id="z" cx="0" cy="0" gradientTransform="matrix(-2.36441516 6.31215826 -14.65791018 -5.49057607 23.3687 14.901)" gradientUnits="userSpaceOnUse" r="1"><stop offset=".165" stop-color="#ffddc1"/><stop offset="1" stop-color="#bf7f86"/></radialGradient><linearGradient id="A" gradientUnits="userSpaceOnUse" x1="23.364" x2="23.364" y1="23.23" y2="20.153"><stop offset=".371" stop-color="#e4aea5"/><stop offset="1" stop-color="#e4aea5" stop-opacity="0"/></linearGradient><radialGradient id="B" cx="0" cy="0" gradientTransform="matrix(2.53066744 1.77830574 -3.77052562 5.36575134 14.6434 14.6129)" gradientUnits="userSpaceOnUse" r="1"><stop offset="0" stop-color="#e5ab8c"/><stop offset="1" stop-color="#e5ab8c" stop-opacity="0"/></radialGradient><radialGradient id="C" cx="0" cy="0" gradientTransform="matrix(.90291551 -.57879171 .91808507 1.43221341 15.3725 17.9112)" gradientUnits="userSpaceOnUse" r="1"><stop offset="0" stop-color="#d69b8e"/><stop offset="1" stop-color="#d69b8e" stop-opacity="0"/></radialGradient><linearGradient id="D" gradientUnits="userSpaceOnUse" x1="9.483" x2="9.483" y1="14.557" y2="10.487"><stop offset="0" stop-color="#efc1b1"/><stop offset="1" stop-color="#efc1b1" stop-opacity="0"/></linearGradient><radialGradient id="E" cx="0" cy="0" gradientTransform="matrix(18.51557494 -4.60028771 4.82038587 19.40144211 8.2338 18.3593)" gradientUnits="userSpaceOnUse" r="1"><stop offset=".853" stop-color="#ffe0c0" stop-opacity="0"/><stop offset="1" stop-color="#ffe0c0"/></radialGradient><radialGradient id="F" cx="0" cy="0" gradientTransform="matrix(-16.56247643 5.49997252 -10.06466797 -30.30848342 22.9864 18.2371)" gradientUnits="userSpaceOnUse" r="1"><stop offset=".808" stop-color="#eeb39b" stop-opacity="0"/><stop offset="1" stop-color="#eeb39b"/></radialGradient><linearGradient id="G" gradientUnits="userSpaceOnUse" x1="17.652" x2="27.22" y1="16.001" y2="20.366"><stop offset="0" stop-color="#ffe3ca"/><stop offset="1" stop-color="#ffe3ca" stop-opacity="0"/></linearGradient><radialGradient id="H" cx="0" cy="0" gradientTransform="matrix(2.67690405 -1.59517256 7.56948708 12.7025697 18.2522 9.64467)" gradientUnits="userSpaceOnUse" r="1"><stop offset="0" stop-color="#efa17a"/><stop offset="1" stop-color="#efa17a" stop-opacity="0"/></radialGradient><radialGradient id="I" cx="0" cy="0" gradientTransform="matrix(1.99615564 3.81793651 -5.71348792 2.98721865 16.2712 2.07822)" gradientUnits="userSpaceOnUse" r="1"><stop offset="0" stop-color="#d5a88e"/><stop offset="1" stop-color="#d5a88e" stop-opacity="0"/></radialGradient><path d="m20.7975 2.91053c-2.1361 2.17836-4.6406 5.14846-5.5156 8.63287l-.2228 2.7656h5.0312c1.0313-1.823 2.8125-5.32037 4.5744-7.30469 1.7618-1.98433.5549-3.77765-.0664-4.30862-.4362-.46191-2.2227-1.39451-3.8008.21484z" fill="url(#j)"/><path d="m20.7975 2.91053c-2.1361 2.17836-4.6406 5.14846-5.5156 8.63287l-.2228 2.7656h5.0312c1.0313-1.823 2.8125-5.32037 4.5744-7.30469 1.7618-1.98433.5549-3.77765-.0664-4.30862-.4362-.46191-2.2227-1.39451-3.8008.21484z" fill="url(#k)"/><path d="m20.7975 2.91053c-2.1361 2.17836-4.6406 5.14846-5.5156 8.63287l-.2228 2.7656h5.0312c1.0313-1.823 2.8125-5.32037 4.5744-7.30469 1.7618-1.98433.5549-3.77765-.0664-4.30862-.4362-.46191-2.2227-1.39451-3.8008.21484z" fill="url(#l)"/><path d="m20.7975 2.91053c-2.1361 2.17836-4.6406 5.14846-5.5156 8.63287l-.2228 2.7656h5.0312c1.0313-1.823 2.8125-5.32037 4.5744-7.30469 1.7618-1.98433.5549-3.77765-.0664-4.30862-.4362-.46191-2.2227-1.39451-3.8008.21484z" fill="url(#m)"/><path d="m20.7975 2.91053c-2.1361 2.17836-4.6406 5.14846-5.5156 8.63287l-.2228 2.7656h5.0312c1.0313-1.823 2.8125-5.32037 4.5744-7.30469 1.7618-1.98433.5549-3.77765-.0664-4.30862-.4362-.46191-2.2227-1.39451-3.8008.21484z" fill="url(#n)"/><g filter="url(#a)"><path d="m23.5674 4.65946c-.9288 1.15171-1.9464 2.61923-3.2467 4.41515" stroke="#ffe2c5" stroke-linecap="round" stroke-width="2.5"/></g><g filter="url(#b)"><path d="m5.99658 20.7997-.1875-5.1143v-1.555h14.46872c.0104-.8437-1.8436-4.1156-4.2537-7.32033-1.4219-1.89063-.6201-3.56557.5156-4.30468 1.4765-.96095 3.051-.15987 3.9453.89841 0 0 5.6366 5.92969 5.6366 13.3045.1271 4.6404.0314 5.3971-1.2188 7.8596-1.815 3.5752-5.7167 5.3573-9.2479 5.3573-5.81253 0-9.47082-4.1386-9.65832-9.1255z" fill="#e4ada4"/><path d="m5.99658 20.7997-.1875-5.1143v-1.555h14.46872c.0104-.8437-1.8436-4.1156-4.2537-7.32033-1.4219-1.89063-.6201-3.56557.5156-4.30468 1.4765-.96095 3.051-.15987 3.9453.89841 0 0 5.6366 5.92969 5.6366 13.3045.1271 4.6404.0314 5.3971-1.2188 7.8596-1.815 3.5752-5.7167 5.3573-9.2479 5.3573-5.81253 0-9.47082-4.1386-9.65832-9.1255z" fill="url(#o)"/><path d="m5.99658 20.7997-.1875-5.1143v-1.555h14.46872c.0104-.8437-1.8436-4.1156-4.2537-7.32033-1.4219-1.89063-.6201-3.56557.5156-4.30468 1.4765-.96095 3.051-.15987 3.9453.89841 0 0 5.6366 5.92969 5.6366 13.3045.1271 4.6404.0314 5.3971-1.2188 7.8596-1.815 3.5752-5.7167 5.3573-9.2479 5.3573-5.81253 0-9.47082-4.1386-9.65832-9.1255z" fill="url(#p)"/><path d="m5.99658 20.7997-.1875-5.1143v-1.555h14.46872c.0104-.8437-1.8436-4.1156-4.2537-7.32033-1.4219-1.89063-.6201-3.56557.5156-4.30468 1.4765-.96095 3.051-.15987 3.9453.89841 0 0 5.6366 5.92969 5.6366 13.3045.1271 4.6404.0314 5.3971-1.2188 7.8596-1.815 3.5752-5.7167 5.3573-9.2479 5.3573-5.81253 0-9.47082-4.1386-9.65832-9.1255z" fill="url(#q)"/></g><g filter="url(#c)"><path d="m16.8286 15.1059c-1.7322 0-3.1363 1.2457-3.1363 2.7824 0 1.5366 1.4041 2.7824 3.1363 2.7824h1.6708c2.5254 0 3.1797.1324 3.3788.3589l1.536-.1773c1.2299 1.399.9956.6515.9956-1.1228v-.5047c0-2.8402-1.5599-3.7111-4.6507-4.071-.1887-.0315-.3834-.0479-.5824-.0479z" fill="#b8736b"/></g><g filter="url(#d)"><path d="m6.36172 12.1553c0-1.3562 1.15463-2.45568 2.57893-2.45568 1.42435 0 2.57895 1.09948 2.57895 2.45568v2.2599c0 1.3563-1.1546 2.4558-2.57895 2.4558-1.4243 0-2.57893-1.0995-2.57893-2.4558z" fill="#b8736b"/></g><g filter="url(#e)"><path d="m9.81384 12.9139c0-1.3484 1.14796-2.4415 2.56396-2.4415s2.564 1.0931 2.564 2.4415v2.2467c0 1.3484-1.148 2.4415-2.564 2.4415s-2.56396-1.0931-2.56396-2.4415z" fill="#b8736b"/></g><path d="m5.80908 11.6643c0-1.4302 1.24961-2.58968 2.79108-2.58968 1.54144 0 2.79104 1.15948 2.79104 2.58968v2.3831c0 1.4303-1.2496 2.5897-2.79104 2.5897-1.54147 0-2.79108-1.1594-2.79108-2.5897z" fill="#e1af93"/><path d="m5.80908 11.6643c0-1.4302 1.24961-2.58968 2.79108-2.58968 1.54144 0 2.79104 1.15948 2.79104 2.58968v2.3831c0 1.4303-1.2496 2.5897-2.79104 2.5897-1.54147 0-2.79108-1.1594-2.79108-2.5897z" fill="url(#r)"/><path d="m5.80908 11.6643c0-1.4302 1.24961-2.58968 2.79108-2.58968 1.54144 0 2.79104 1.15948 2.79104 2.58968v2.3831c0 1.4303-1.2496 2.5897-2.79104 2.5897-1.54147 0-2.79108-1.1594-2.79108-2.5897z" fill="url(#s)"/><path d="m5.80908 11.6643c0-1.4302 1.24961-2.58968 2.79108-2.58968 1.54144 0 2.79104 1.15948 2.79104 2.58968v2.3831c0 1.4303-1.2496 2.5897-2.79104 2.5897-1.54147 0-2.79108-1.1594-2.79108-2.5897z" fill="url(#t)"/><path d="m5.80908 11.6643c0-1.4302 1.24961-2.58968 2.79108-2.58968 1.54144 0 2.79104 1.15948 2.79104 2.58968v2.3831c0 1.4303-1.2496 2.5897-2.79104 2.5897-1.54147 0-2.79108-1.1594-2.79108-2.5897z" fill="url(#u)"/><path d="m10.3209 10.9143c0-1.646 1.2713-2.98031 2.8396-2.98031 1.5682 0 2.8395 1.33431 2.8395 2.98031v2.7425c0 1.646-1.2713 2.9803-2.8395 2.9803-1.5683 0-2.8396-1.3343-2.8396-2.9803z" fill="#e6b498"/><path d="m10.3209 10.9143c0-1.646 1.2713-2.98031 2.8396-2.98031 1.5682 0 2.8395 1.33431 2.8395 2.98031v2.7425c0 1.646-1.2713 2.9803-2.8395 2.9803-1.5683 0-2.8396-1.3343-2.8396-2.9803z" fill="url(#v)"/><path d="m10.3209 10.9143c0-1.646 1.2713-2.98031 2.8396-2.98031 1.5682 0 2.8395 1.33431 2.8395 2.98031v2.7425c0 1.646-1.2713 2.9803-2.8395 2.9803-1.5683 0-2.8396-1.3343-2.8396-2.9803z" fill="url(#w)"/><path d="m10.3209 10.9143c0-1.646 1.2713-2.98031 2.8396-2.98031 1.5682 0 2.8395 1.33431 2.8395 2.98031v2.7425c0 1.646-1.2713 2.9803-2.8395 2.9803-1.5683 0-2.8396-1.3343-2.8396-2.9803z" fill="url(#x)"/><path d="m10.3209 10.9143c0-1.646 1.2713-2.98031 2.8396-2.98031 1.5682 0 2.8395 1.33431 2.8395 2.98031v2.7425c0 1.646-1.2713 2.9803-2.8395 2.9803-1.5683 0-2.8396-1.3343-2.8396-2.9803z" fill="url(#y)"/><g filter="url(#f)"><path d="m18.7168 4.22917c2.1097 2.24498 4.8957 6.19393 5.2203 9.60203.3444 3.6168 0 5.9656 0 7.3591" stroke="#ffe7c9" stroke-linecap="round" stroke-width="2"/></g><path d="m17.8129 13.4809c-1.6482 0-2.9844 1.3361-2.9844 2.9843 0 1.6483 1.3362 2.9844 2.9844 2.9844h1.5898c.3082 0 .5991.1421.7886.3851l2.0445 2.6216c1.1702 1.5007 3.5771.6732 3.5771-1.2299v-1.7455c0-3.0465-2.2704-5.5626-5.2115-5.9487-.1795-.0337-.3648-.0513-.5541-.0513z" fill="url(#z)"/><path d="m17.8129 13.4809c-1.6482 0-2.9844 1.3361-2.9844 2.9843 0 1.6483 1.3362 2.9844 2.9844 2.9844h1.5898c.3082 0 .5991.1421.7886.3851l2.0445 2.6216c1.1702 1.5007 3.5771.6732 3.5771-1.2299v-1.7455c0-3.0465-2.2704-5.5626-5.2115-5.9487-.1795-.0337-.3648-.0513-.5541-.0513z" fill="url(#A)"/><path d="m17.8129 13.4809c-1.6482 0-2.9844 1.3361-2.9844 2.9843 0 1.6483 1.3362 2.9844 2.9844 2.9844h1.5898c.3082 0 .5991.1421.7886.3851l2.0445 2.6216c1.1702 1.5007 3.5771.6732 3.5771-1.2299v-1.7455c0-3.0465-2.2704-5.5626-5.2115-5.9487-.1795-.0337-.3648-.0513-.5541-.0513z" fill="url(#B)"/><path d="m17.8129 13.4809c-1.6482 0-2.9844 1.3361-2.9844 2.9843 0 1.6483 1.3362 2.9844 2.9844 2.9844h1.5898c.3082 0 .5991.1421.7886.3851l2.0445 2.6216c1.1702 1.5007 3.5771.6732 3.5771-1.2299v-1.7455c0-3.0465-2.2704-5.5626-5.2115-5.9487-.1795-.0337-.3648-.0513-.5541-.0513z" fill="url(#C)"/><g filter="url(#g)"><rect fill="url(#D)" height="4.484" rx=".68" width="1.36" x="8.454" y="10.487"/></g><g filter="url(#h)"><rect fill="#ffe6c9" height="5.897" rx=".847" width="1.693" x="13.366" y="9.075"/></g><path d="m5.99658 20.8186-.1875-5.1142v-1.5551h.00227c.05957 1.3814 1.28537 2.4844 2.78881 2.4844.96687 0 1.81894-.4562 2.31974-1.1492.5197.6994 1.3301 1.1492 2.2406 1.1492 1.4072 0 2.5753-1.0745 2.8004-2.4844h4.3169c.0104-.8437-1.8436-4.1156-4.2537-7.32031-1.4219-1.89062-.6201-3.56557.5156-4.30468 1.4765-.96095 3.2187-.25005 3.9453.89841 0 0 5.6366 5.9297 5.6366 13.30448.1271 4.6405.0314 5.3971-1.2188 7.8596-1.815 3.5753-5.7167 5.3574-9.2479 5.3574-5.81253 0-9.47082-4.1386-9.65832-9.1256z" fill="url(#E)"/><path d="m5.99658 20.8186-.1875-5.1142v-1.5551h.00227c.05957 1.3814 1.28537 2.4844 2.78881 2.4844.96687 0 1.81894-.4562 2.31974-1.1492.5197.6994 1.3301 1.1492 2.2406 1.1492 1.4072 0 2.5753-1.0745 2.8004-2.4844h4.3169c.0104-.8437-1.8436-4.1156-4.2537-7.32031-1.4219-1.89062-.6201-3.56557.5156-4.30468 1.4765-.96095 3.2187-.25005 3.9453.89841 0 0 5.6366 5.9297 5.6366 13.30448.1271 4.6405.0314 5.3971-1.2188 7.8596-1.815 3.5753-5.7167 5.3574-9.2479 5.3574-5.81253 0-9.47082-4.1386-9.65832-9.1256z" fill="url(#F)"/><g filter="url(#i)"><path d="m18.7216 16.0012h.6149c2.029 0 4.2002.5871 4.7234 2.5475.0994.3725.1747.7882.2145 1.2493" stroke="url(#G)" stroke-linecap="round" stroke-width="2"/></g><path d="m20.1118 13.4809c1.0271.1123 3.1791.3775 4.779 2.7599.8869-7.73849-4.4058-12.81462-4.4058-12.81462-.7266-1.14847-2.4687-1.85937-3.9453-.89842-1.1357.73912-1.9375 2.41406-.5156 4.30469 1.9788 2.63124 3.5828 5.30775 4.0877 6.64845z" fill="url(#H)"/><path d="m20.1118 13.4809c1.0271.1123 3.1791.3775 4.779 2.7599.8869-7.73849-4.4058-12.81462-4.4058-12.81462-.7266-1.14847-2.4687-1.85937-3.9453-.89842-1.1357.73912-1.9375 2.41406-.5156 4.30469 1.9788 2.63124 3.5828 5.30775 4.0877 6.64845z" fill="url(#I)"/></svg>