<svg fill="none" height="32" viewBox="0 0 32 32" width="32" xmlns="http://www.w3.org/2000/svg" xmlns:xlink="http://www.w3.org/1999/xlink"><filter id="a" color-interpolation-filters="sRGB" filterUnits="userSpaceOnUse" height="28.515" width="26.567" x="3.684" y="1.417"><feFlood flood-opacity="0" result="BackgroundImageFix"/><feBlend in="SourceGraphic" in2="BackgroundImageFix" mode="normal" result="shape"/><feColorMatrix in="SourceAlpha" result="hardAlpha" type="matrix" values="0 0 0 0 0 0 0 0 0 0 0 0 0 0 0 0 0 0 127 0"/><feOffset dx=".65" dy="-.65"/><feGaussianBlur stdDeviation="1"/><feComposite in2="hardAlpha" k2="-1" k3="1" operator="arithmetic"/><feColorMatrix type="matrix" values="0 0 0 0 0.47451 0 0 0 0 0.243137 0 0 0 0 0.392157 0 0 0 1 0"/><feBlend in2="shape" mode="normal" result="effect1_innerShadow_20020_2342"/></filter><filter id="b" color-interpolation-filters="sRGB" filterUnits="userSpaceOnUse" height="8.966" width="6.696" x="10.804" y="10.024"><feFlood flood-opacity="0" result="BackgroundImageFix"/><feBlend in="SourceGraphic" in2="BackgroundImageFix" mode="normal" result="shape"/><feGaussianBlur result="effect1_foregroundBlur_20020_2342" stdDeviation=".75"/></filter><filter id="c" color-interpolation-filters="sRGB" filterUnits="userSpaceOnUse" height="11.255" width="8.409" x="5.696" y="8.234"><feFlood flood-opacity="0" result="BackgroundImageFix"/><feBlend in="SourceGraphic" in2="BackgroundImageFix" mode="normal" result="shape"/><feGaussianBlur result="effect1_foregroundBlur_20020_2342" stdDeviation="1"/></filter><filter id="d" color-interpolation-filters="sRGB" filterUnits="userSpaceOnUse" height="8.922" width="5.922" x="8.135" y="8.169"><feFlood flood-opacity="0" result="BackgroundImageFix"/><feBlend in="SourceGraphic" in2="BackgroundImageFix" mode="normal" result="shape"/><feColorMatrix in="SourceAlpha" result="hardAlpha" type="matrix" values="0 0 0 0 0 0 0 0 0 0 0 0 0 0 0 0 0 0 127 0"/><feOffset dx=".75" dy="-.75"/><feGaussianBlur stdDeviation="1"/><feComposite in2="hardAlpha" k2="-1" k3="1" operator="arithmetic"/><feColorMatrix type="matrix" values="0 0 0 0 0.427451 0 0 0 0 0.231373 0 0 0 0 0.298039 0 0 0 1 0"/><feBlend in2="shape" mode="normal" result="effect1_innerShadow_20020_2342"/></filter><filter id="e" color-interpolation-filters="sRGB" filterUnits="userSpaceOnUse" height="11.084" width="5.828" x="12.698" y="6.606"><feFlood flood-opacity="0" result="BackgroundImageFix"/><feBlend in="SourceGraphic" in2="BackgroundImageFix" mode="normal" result="shape"/><feColorMatrix in="SourceAlpha" result="hardAlpha" type="matrix" values="0 0 0 0 0 0 0 0 0 0 0 0 0 0 0 0 0 0 127 0"/><feOffset dx=".75" dy="-.75"/><feGaussianBlur stdDeviation="1"/><feComposite in2="hardAlpha" k2="-1" k3="1" operator="arithmetic"/><feColorMatrix type="matrix" values="0 0 0 0 0.45098 0 0 0 0 0.25098 0 0 0 0 0.32549 0 0 0 1 0"/><feBlend in2="shape" mode="normal" result="effect1_innerShadow_20020_2342"/><feColorMatrix in="SourceAlpha" result="hardAlpha" type="matrix" values="0 0 0 0 0 0 0 0 0 0 0 0 0 0 0 0 0 0 127 0"/><feOffset dx=".25" dy=".6"/><feGaussianBlur stdDeviation=".625"/><feComposite in2="hardAlpha" k2="-1" k3="1" operator="arithmetic"/><feColorMatrix type="matrix" values="0 0 0 0 0.435294 0 0 0 0 0.329412 0 0 0 0 0.290196 0 0 0 1 0"/><feBlend in2="effect1_innerShadow_20020_2342" mode="normal" result="effect2_innerShadow_20020_2342"/></filter><filter id="f" color-interpolation-filters="sRGB" filterUnits="userSpaceOnUse" height="13.444" width="4.636" x="18.332" y="2.197"><feFlood flood-opacity="0" result="BackgroundImageFix"/><feBlend in="SourceGraphic" in2="BackgroundImageFix" mode="normal" result="shape"/><feGaussianBlur result="effect1_foregroundBlur_20020_2342" stdDeviation=".75"/></filter><filter id="g" color-interpolation-filters="sRGB" filterUnits="userSpaceOnUse" height="10.264" width="5.468" x="13.519" y="7.092"><feFlood flood-opacity="0" result="BackgroundImageFix"/><feBlend in="SourceGraphic" in2="BackgroundImageFix" mode="normal" result="shape"/><feGaussianBlur result="effect1_foregroundBlur_20020_2342" stdDeviation="1"/></filter><filter id="h" color-interpolation-filters="sRGB" filterUnits="userSpaceOnUse" height="11.935" width="4.468" x="4.727" y="5.605"><feFlood flood-opacity="0" result="BackgroundImageFix"/><feBlend in="SourceGraphic" in2="BackgroundImageFix" mode="normal" result="shape"/><feGaussianBlur result="effect1_foregroundBlur_20020_2342" stdDeviation=".75"/></filter><filter id="i" color-interpolation-filters="sRGB" filterUnits="userSpaceOnUse" height="7.274" width="4.027" x="9.221" y="9.024"><feFlood flood-opacity="0" result="BackgroundImageFix"/><feBlend in="SourceGraphic" in2="BackgroundImageFix" mode="normal" result="shape"/><feGaussianBlur result="effect1_foregroundBlur_20020_2342" stdDeviation=".75"/></filter><radialGradient id="j" cx="0" cy="0" gradientTransform="matrix(-6.16814369 1.91230907 -1.03263766 -3.33076779 9.85233 11.9875)" gradientUnits="userSpaceOnUse" r="1"><stop offset="0" stop-color="#674148"/><stop offset="1" stop-color="#674148" stop-opacity="0"/></radialGradient><radialGradient id="k" cx="0" cy="0" gradientTransform="matrix(-8.93157845 3.02525761 -4.10510225 -12.11964321 23.6224 18.3341)" gradientUnits="userSpaceOnUse" r="1"><stop offset="0" stop-color="#a07c72"/><stop offset="1" stop-color="#a07c72" stop-opacity="0"/></radialGradient><radialGradient id="l" cx="7.75" cy="7.504" gradientUnits="userSpaceOnUse" r="1.816"><stop offset="0" stop-color="#9f7c71"/><stop offset="1" stop-color="#9f7c71" stop-opacity="0"/></radialGradient><radialGradient id="m" cx="0" cy="0" gradientTransform="matrix(.99999641 -7.62018536 14.88378801 1.9531985 11.3781 29.9327)" gradientUnits="userSpaceOnUse" r="1"><stop offset="0" stop-color="#8b5961"/><stop offset="1" stop-color="#8b5961" stop-opacity="0"/></radialGradient><linearGradient id="n" gradientUnits="userSpaceOnUse" x1="3.684" x2="7.964" y1="18.555" y2="18.555"><stop offset="0" stop-color="#755347"/><stop offset="1" stop-color="#755347" stop-opacity="0"/></linearGradient><radialGradient id="o" cx="0" cy="0" gradientTransform="matrix(-7.82462359 -2.27133822 3.5664015 -12.28603869 30.4651 17.8749)" gradientUnits="userSpaceOnUse" r="1"><stop offset=".676" stop-color="#997467" stop-opacity="0"/><stop offset="1" stop-color="#997467"/></radialGradient><radialGradient id="p" cx="0" cy="0" gradientTransform="matrix(-6.19449052 6.1584852 -1.62446791 -1.63396529 26.7556 19.7386)" gradientUnits="userSpaceOnUse" r="1"><stop offset="0" stop-color="#865c67"/><stop offset="1" stop-color="#865c67" stop-opacity="0"/></radialGradient><radialGradient id="q" cx="0" cy="0" gradientTransform="matrix(-2.25181568 1.59803544 -1.03982872 -1.46523822 29.2143 13.9873)" gradientUnits="userSpaceOnUse" r="1"><stop offset="0" stop-color="#a47f74"/><stop offset="1" stop-color="#a47f74" stop-opacity="0"/></radialGradient><radialGradient id="r" cx="0" cy="0" gradientTransform="matrix(.78261181 .80217656 -1.69438415 1.65305883 24.4116 13.617)" gradientUnits="userSpaceOnUse" r="1"><stop offset="0" stop-color="#755850"/><stop offset="1" stop-color="#755850" stop-opacity="0"/></radialGradient><linearGradient id="s" gradientUnits="userSpaceOnUse" x1="17.559" x2="20.396" y1="8.394" y2="8.394"><stop offset="0" stop-color="#6d4235"/><stop offset="1" stop-color="#6d4235" stop-opacity="0"/></linearGradient><linearGradient id="t" gradientUnits="userSpaceOnUse" x1="19.337" x2="19.337" y1="12.788" y2="10.411"><stop offset="0" stop-color="#946e65"/><stop offset="1" stop-color="#946e65" stop-opacity="0"/></linearGradient><radialGradient id="u" cx="0" cy="0" gradientTransform="matrix(1.6875 0 0 1.53125 21.5 3.81252)" gradientUnits="userSpaceOnUse" r="1"><stop offset="0" stop-color="#a27e72"/><stop offset="1" stop-color="#a27e72" stop-opacity="0"/></radialGradient><radialGradient id="v" cx="0" cy="0" gradientTransform="matrix(1.25183 0 0 3.53051 17.0867 9.91888)" gradientUnits="userSpaceOnUse" r="1"><stop offset=".216" stop-color="#623a2c"/><stop offset="1" stop-color="#2a1917" stop-opacity="0"/><stop offset="1" stop-color="#623a2c" stop-opacity="0"/></radialGradient><linearGradient id="w" gradientUnits="userSpaceOnUse" x1="9.454" x2="12.282" y1="11.542" y2="11.655"><stop offset="0" stop-color="#755246"/><stop offset="1" stop-color="#88695a"/></linearGradient><linearGradient id="x" gradientUnits="userSpaceOnUse" x1="12.918" x2="12.035" y1="13.005" y2="13.005"><stop offset="0" stop-color="#5c3628"/><stop offset="1" stop-color="#5c3628" stop-opacity="0"/></linearGradient><radialGradient id="y" cx="0" cy="0" gradientTransform="matrix(-.9253356 .5520705 -1.15265614 -1.93198833 13.3073 10.3576)" gradientUnits="userSpaceOnUse" r="1"><stop offset=".215" stop-color="#4d2b1f"/><stop offset="1" stop-color="#4d2b1f" stop-opacity="0"/></radialGradient><linearGradient id="z" gradientUnits="userSpaceOnUse" x1="13.55" x2="17.776" y1="10.616" y2="10.616"><stop offset="0" stop-color="#6f4c42"/><stop offset="1" stop-color="#956c5a"/></linearGradient><linearGradient id="A" gradientUnits="userSpaceOnUse" x1="20.65" x2="20.65" y1="3.697" y2="14.141"><stop offset="0" stop-color="#a37e70"/><stop offset="1" stop-color="#a37e70" stop-opacity="0"/></linearGradient><linearGradient id="B" gradientUnits="userSpaceOnUse" x1="6.961" x2="6.961" y1="8.085" y2="19.417"><stop offset="0" stop-color="#9d7a6d"/><stop offset="1" stop-color="#9d7a6d" stop-opacity="0"/></linearGradient><linearGradient id="C" gradientUnits="userSpaceOnUse" x1="11.235" x2="11.235" y1="13.957" y2="9.834"><stop offset="0" stop-color="#97776d"/><stop offset="1" stop-color="#97776d" stop-opacity="0"/></linearGradient><g filter="url(#a)"><path d="m28.9948 13.6064c-.6988-.8085-2.0625-1.2891-3.2969-.6485-1.2344.6407-2.2083 1.3763-2.5781 1.7227 0 0-.6485.444-.6485-.3842 0-.8281 0-1.7537 0-1.7537v-7.50663c0-1.67187-1.125-2.96875-2.625-2.96875-1.4062 0-2.625 1.125-2.625 2.96875l-.0384 7.50663h-8.27406v-3.97538c0-1.65625-1.15638-2.88021-2.59388-2.88021s-2.6135 1.40791-2.6135 2.76728c0 1.35938-.01729 11.21851-.01729 11.21851 0 7.1029 4.32772 10.2598 9.65313 10.2598 2.7087 0 5.4096-1.2204 7.1887-3.0919 2.2578-2.375 1.5625-3.3125 3.961-5.8672 1.2109-1.3828 3.1389-2.7068 4.1953-3.5782 1.0563-.8713 1.2578-2.6953.3125-3.789z" fill="#835955"/><path d="m28.9948 13.6064c-.6988-.8085-2.0625-1.2891-3.2969-.6485-1.2344.6407-2.2083 1.3763-2.5781 1.7227 0 0-.6485.444-.6485-.3842 0-.8281 0-1.7537 0-1.7537v-7.50663c0-1.67187-1.125-2.96875-2.625-2.96875-1.4062 0-2.625 1.125-2.625 2.96875l-.0384 7.50663h-8.27406v-3.97538c0-1.65625-1.15638-2.88021-2.59388-2.88021s-2.6135 1.40791-2.6135 2.76728c0 1.35938-.01729 11.21851-.01729 11.21851 0 7.1029 4.32772 10.2598 9.65313 10.2598 2.7087 0 5.4096-1.2204 7.1887-3.0919 2.2578-2.375 1.5625-3.3125 3.961-5.8672 1.2109-1.3828 3.1389-2.7068 4.1953-3.5782 1.0563-.8713 1.2578-2.6953.3125-3.789z" fill="url(#j)"/><path d="m28.9948 13.6064c-.6988-.8085-2.0625-1.2891-3.2969-.6485-1.2344.6407-2.2083 1.3763-2.5781 1.7227 0 0-.6485.444-.6485-.3842 0-.8281 0-1.7537 0-1.7537v-7.50663c0-1.67187-1.125-2.96875-2.625-2.96875-1.4062 0-2.625 1.125-2.625 2.96875l-.0384 7.50663h-8.27406v-3.97538c0-1.65625-1.15638-2.88021-2.59388-2.88021s-2.6135 1.40791-2.6135 2.76728c0 1.35938-.01729 11.21851-.01729 11.21851 0 7.1029 4.32772 10.2598 9.65313 10.2598 2.7087 0 5.4096-1.2204 7.1887-3.0919 2.2578-2.375 1.5625-3.3125 3.961-5.8672 1.2109-1.3828 3.1389-2.7068 4.1953-3.5782 1.0563-.8713 1.2578-2.6953.3125-3.789z" fill="url(#k)"/><path d="m28.9948 13.6064c-.6988-.8085-2.0625-1.2891-3.2969-.6485-1.2344.6407-2.2083 1.3763-2.5781 1.7227 0 0-.6485.444-.6485-.3842 0-.8281 0-1.7537 0-1.7537v-7.50663c0-1.67187-1.125-2.96875-2.625-2.96875-1.4062 0-2.625 1.125-2.625 2.96875l-.0384 7.50663h-8.27406v-3.97538c0-1.65625-1.15638-2.88021-2.59388-2.88021s-2.6135 1.40791-2.6135 2.76728c0 1.35938-.01729 11.21851-.01729 11.21851 0 7.1029 4.32772 10.2598 9.65313 10.2598 2.7087 0 5.4096-1.2204 7.1887-3.0919 2.2578-2.375 1.5625-3.3125 3.961-5.8672 1.2109-1.3828 3.1389-2.7068 4.1953-3.5782 1.0563-.8713 1.2578-2.6953.3125-3.789z" fill="url(#l)"/><path d="m28.9948 13.6064c-.6988-.8085-2.0625-1.2891-3.2969-.6485-1.2344.6407-2.2083 1.3763-2.5781 1.7227 0 0-.6485.444-.6485-.3842 0-.8281 0-1.7537 0-1.7537v-7.50663c0-1.67187-1.125-2.96875-2.625-2.96875-1.4062 0-2.625 1.125-2.625 2.96875l-.0384 7.50663h-8.27406v-3.97538c0-1.65625-1.15638-2.88021-2.59388-2.88021s-2.6135 1.40791-2.6135 2.76728c0 1.35938-.01729 11.21851-.01729 11.21851 0 7.1029 4.32772 10.2598 9.65313 10.2598 2.7087 0 5.4096-1.2204 7.1887-3.0919 2.2578-2.375 1.5625-3.3125 3.961-5.8672 1.2109-1.3828 3.1389-2.7068 4.1953-3.5782 1.0563-.8713 1.2578-2.6953.3125-3.789z" fill="url(#m)"/></g><path d="m28.9948 13.6064c-.6988-.8085-2.0625-1.2891-3.2969-.6485-1.2344.6407-2.2083 1.3763-2.5781 1.7227 0 0-.6485.444-.6485-.3842 0-.8281 0-1.7537 0-1.7537v-7.50663c0-1.67187-1.125-2.96875-2.625-2.96875-1.4062 0-2.625 1.125-2.625 2.96875l-.0384 7.50663h-8.27406v-3.97538c0-1.65625-1.15638-2.88021-2.59388-2.88021s-2.6135 1.40791-2.6135 2.76728c0 1.35938-.01729 11.21851-.01729 11.21851 0 7.1029 4.32772 10.2598 9.65313 10.2598 2.7087 0 5.4096-1.2204 7.1887-3.0919 2.2578-2.375 1.5625-3.3125 3.961-5.8672 1.2109-1.3828 3.1389-2.7068 4.1953-3.5782 1.0563-.8713 1.2578-2.6953.3125-3.789z" fill="url(#n)"/><g filter="url(#b)"><rect fill="#401c25" height="5.966" rx="1.848" width="3.696" x="12.304" y="11.524"/></g><g filter="url(#c)"><rect fill="#401c25" height="7.256" rx="2.204" width="4.409" x="7.696" y="10.234"/></g><path d="m25.6979 12.958c1.2344-.6407 2.5981-.1601 3.2969.6484.9453 1.0937.7438 2.9177-.3125 3.7891-.2785.2297-.6175.4908-.9881.7762-1.035.7972-2.3155 1.7836-3.2072 2.8019-.7934.845-1.2482 1.5131-1.5834 2.1148-1.492-3.69-1.0367-6.7784-.3665-8.4371.1649.3153.5827.0293.5827.0293.3698-.3464 1.3437-1.082 2.5781-1.7226z" fill="#886052"/><path d="m25.6979 12.958c1.2344-.6407 2.5981-.1601 3.2969.6484.9453 1.0937.7438 2.9177-.3125 3.7891-.2785.2297-.6175.4908-.9881.7762-1.035.7972-2.3155 1.7836-3.2072 2.8019-.7934.845-1.2482 1.5131-1.5834 2.1148-1.492-3.69-1.0367-6.7784-.3665-8.4371.1649.3153.5827.0293.5827.0293.3698-.3464 1.3437-1.082 2.5781-1.7226z" fill="url(#o)"/><path d="m25.6979 12.958c1.2344-.6407 2.5981-.1601 3.2969.6484.9453 1.0937.7438 2.9177-.3125 3.7891-.2785.2297-.6175.4908-.9881.7762-1.035.7972-2.3155 1.7836-3.2072 2.8019-.7934.845-1.2482 1.5131-1.5834 2.1148-1.492-3.69-1.0367-6.7784-.3665-8.4371.1649.3153.5827.0293.5827.0293.3698-.3464 1.3437-1.082 2.5781-1.7226z" fill="url(#p)"/><path d="m25.6979 12.958c1.2344-.6407 2.5981-.1601 3.2969.6484.9453 1.0937.7438 2.9177-.3125 3.7891-.2785.2297-.6175.4908-.9881.7762-1.035.7972-2.3155 1.7836-3.2072 2.8019-.7934.845-1.2482 1.5131-1.5834 2.1148-1.492-3.69-1.0367-6.7784-.3665-8.4371.1649.3153.5827.0293.5827.0293.3698-.3464 1.3437-1.082 2.5781-1.7226z" fill="url(#q)"/><path d="m25.6979 12.958c1.2344-.6407 2.5981-.1601 3.2969.6484.9453 1.0937.7438 2.9177-.3125 3.7891-.2785.2297-.6175.4908-.9881.7762-1.035.7972-2.3155 1.7836-3.2072 2.8019-.7934.845-1.2482 1.5131-1.5834 2.1148-1.492-3.69-1.0367-6.7784-.3665-8.4371.1649.3153.5827.0293.5827.0293.3698-.3464 1.3437-1.082 2.5781-1.7226z" fill="url(#r)"/><path d="m22.4761 12.54h-5.2885l.0385-7.50393c0-1.84375 1.2187-2.96875 2.625-2.96875 1.5 0 2.625 1.29688 2.625 2.96875z" fill="url(#s)"/><path d="m22.4761 12.54h-5.2885l.0385-7.50393c0-1.84375 1.2187-2.96875 2.625-2.96875 1.5 0 2.625 1.29688 2.625 2.96875z" fill="url(#t)"/><path d="m22.4761 12.54h-5.2885l.0385-7.50393c0-1.84375 1.2187-2.96875 2.625-2.96875 1.5 0 2.625 1.29688 2.625 2.96875z" fill="url(#u)"/><path d="m22.4761 12.54h-5.2885l.0385-7.50393c0-1.84375 1.2187-2.96875 2.625-2.96875 1.5 0 2.625 1.29688 2.625 2.96875z" fill="url(#v)"/><g filter="url(#d)"><rect fill="url(#w)" height="8.172" rx="2.539" width="5.172" x="8.135" y="8.919"/><rect fill="url(#x)" height="8.172" rx="2.539" width="5.172" x="8.135" y="8.919"/><rect fill="url(#y)" height="8.172" rx="2.539" width="5.172" x="8.135" y="8.919"/></g><g filter="url(#e)"><rect fill="url(#z)" height="9.734" rx="2.539" width="5.078" x="12.698" y="7.356"/></g><g filter="url(#f)"><rect fill="url(#A)" height="10.444" rx=".818" width="1.636" x="19.832" y="3.697"/></g><g filter="url(#g)"><rect fill="#a47f73" height="6.264" rx=".734" width="1.468" x="15.519" y="9.092"/></g><g filter="url(#h)"><rect fill="url(#B)" height="8.935" rx=".734" width="1.468" x="6.227" y="7.105"/></g><g filter="url(#i)"><rect fill="url(#C)" height="4.274" rx=".513" width="1.027" x="10.721" y="10.524"/></g></svg>