<svg fill="none" height="32" viewBox="0 0 32 32" width="32" xmlns="http://www.w3.org/2000/svg" xmlns:xlink="http://www.w3.org/1999/xlink"><filter id="a" color-interpolation-filters="sRGB" filterUnits="userSpaceOnUse" height="11.177" width="20.98" x="5.603" y="19.953"><feFlood flood-opacity="0" result="BackgroundImageFix"/><feBlend in="SourceGraphic" in2="BackgroundImageFix" mode="normal" result="shape"/><feColorMatrix in="SourceAlpha" result="hardAlpha" type="matrix" values="0 0 0 0 0 0 0 0 0 0 0 0 0 0 0 0 0 0 127 0"/><feOffset dx="1" dy="1"/><feGaussianBlur stdDeviation="1"/><feComposite in2="hardAlpha" k2="-1" k3="1" operator="arithmetic"/><feColorMatrix type="matrix" values="0 0 0 0 0.819608 0 0 0 0 0.423529 0 0 0 0 0.270588 0 0 0 1 0"/><feBlend in2="shape" mode="normal" result="effect1_innerShadow_4002_4115"/></filter><filter id="b" color-interpolation-filters="sRGB" filterUnits="userSpaceOnUse" height="15.613" width="13.076" x="9.487" y="5.475"><feFlood flood-opacity="0" result="BackgroundImageFix"/><feBlend in="SourceGraphic" in2="BackgroundImageFix" mode="normal" result="shape"/><feColorMatrix in="SourceAlpha" result="hardAlpha" type="matrix" values="0 0 0 0 0 0 0 0 0 0 0 0 0 0 0 0 0 0 127 0"/><feOffset dy=".2"/><feGaussianBlur stdDeviation=".2"/><feComposite in2="hardAlpha" k2="-1" k3="1" operator="arithmetic"/><feColorMatrix type="matrix" values="0 0 0 0 0.470588 0 0 0 0 0.290196 0 0 0 0 0.290196 0 0 0 1 0"/><feBlend in2="shape" mode="normal" result="effect1_innerShadow_4002_4115"/><feColorMatrix in="SourceAlpha" result="hardAlpha" type="matrix" values="0 0 0 0 0 0 0 0 0 0 0 0 0 0 0 0 0 0 127 0"/><feOffset dx="1"/><feGaussianBlur stdDeviation=".375"/><feComposite in2="hardAlpha" k2="-1" k3="1" operator="arithmetic"/><feColorMatrix type="matrix" values="0 0 0 0 0.572549 0 0 0 0 0.439216 0 0 0 0 0.396078 0 0 0 1 0"/><feBlend in2="effect1_innerShadow_4002_4115" mode="normal" result="effect2_innerShadow_4002_4115"/></filter><filter id="c" color-interpolation-filters="sRGB" filterUnits="userSpaceOnUse" height="13.502" width="12.214" x="12.005" y="7.382"><feFlood flood-opacity="0" result="BackgroundImageFix"/><feBlend in="SourceGraphic" in2="BackgroundImageFix" mode="normal" result="shape"/><feGaussianBlur result="effect1_foregroundBlur_4002_4115" stdDeviation=".625"/></filter><filter id="d" color-interpolation-filters="sRGB" filterUnits="userSpaceOnUse" height="9.975" width="15.525" x="7.831" y="1.747"><feFlood flood-opacity="0" result="BackgroundImageFix"/><feBlend in="SourceGraphic" in2="BackgroundImageFix" mode="normal" result="shape"/><feColorMatrix in="SourceAlpha" result="hardAlpha" type="matrix" values="0 0 0 0 0 0 0 0 0 0 0 0 0 0 0 0 0 0 127 0"/><feOffset dy="-.5"/><feGaussianBlur stdDeviation=".625"/><feComposite in2="hardAlpha" k2="-1" k3="1" operator="arithmetic"/><feColorMatrix type="matrix" values="0 0 0 0 0.266667 0 0 0 0 0.152941 0 0 0 0 0.184314 0 0 0 1 0"/><feBlend in2="shape" mode="normal" result="effect1_innerShadow_4002_4115"/><feColorMatrix in="SourceAlpha" result="hardAlpha" type="matrix" values="0 0 0 0 0 0 0 0 0 0 0 0 0 0 0 0 0 0 127 0"/><feOffset dy="-.2"/><feGaussianBlur stdDeviation=".2"/><feComposite in2="hardAlpha" k2="-1" k3="1" operator="arithmetic"/><feColorMatrix type="matrix" values="0 0 0 0 0.258824 0 0 0 0 0.133333 0 0 0 0 0.172549 0 0 0 1 0"/><feBlend in2="effect1_innerShadow_4002_4115" mode="normal" result="effect2_innerShadow_4002_4115"/></filter><filter id="e" color-interpolation-filters="sRGB" filterUnits="userSpaceOnUse" height="1.394" width="2.8" x="17.51" y="8.888"><feFlood flood-opacity="0" result="BackgroundImageFix"/><feBlend in="SourceGraphic" in2="BackgroundImageFix" mode="normal" result="shape"/><feColorMatrix in="SourceAlpha" result="hardAlpha" type="matrix" values="0 0 0 0 0 0 0 0 0 0 0 0 0 0 0 0 0 0 127 0"/><feOffset dx=".1" dy="-.2"/><feGaussianBlur stdDeviation=".125"/><feComposite in2="hardAlpha" k2="-1" k3="1" operator="arithmetic"/><feColorMatrix type="matrix" values="0 0 0 0 0.172549 0 0 0 0 0.0862745 0 0 0 0 0.156863 0 0 0 1 0"/><feBlend in2="shape" mode="normal" result="effect1_innerShadow_4002_4115"/></filter><filter id="f" color-interpolation-filters="sRGB" filterUnits="userSpaceOnUse" height="1.377" width="2.8" x="11.17" y="8.905"><feFlood flood-opacity="0" result="BackgroundImageFix"/><feBlend in="SourceGraphic" in2="BackgroundImageFix" mode="normal" result="shape"/><feColorMatrix in="SourceAlpha" result="hardAlpha" type="matrix" values="0 0 0 0 0 0 0 0 0 0 0 0 0 0 0 0 0 0 127 0"/><feOffset dx=".1" dy="-.2"/><feGaussianBlur stdDeviation=".125"/><feComposite in2="hardAlpha" k2="-1" k3="1" operator="arithmetic"/><feColorMatrix type="matrix" values="0 0 0 0 0.243137 0 0 0 0 0.121569 0 0 0 0 0.2 0 0 0 1 0"/><feBlend in2="shape" mode="normal" result="effect1_innerShadow_4002_4115"/></filter><filter id="g" color-interpolation-filters="sRGB" filterUnits="userSpaceOnUse" height="7.623" width="8.338" x="8.061" y="2.759"><feFlood flood-opacity="0" result="BackgroundImageFix"/><feBlend in="SourceGraphic" in2="BackgroundImageFix" mode="normal" result="shape"/><feColorMatrix in="SourceAlpha" result="hardAlpha" type="matrix" values="0 0 0 0 0 0 0 0 0 0 0 0 0 0 0 0 0 0 127 0"/><feOffset dx=".1" dy=".1"/><feGaussianBlur stdDeviation=".1"/><feComposite in2="hardAlpha" k2="-1" k3="1" operator="arithmetic"/><feColorMatrix type="matrix" values="0 0 0 0 0.364706 0 0 0 0 0.286275 0 0 0 0 0.270588 0 0 0 1 0"/><feBlend in2="shape" mode="normal" result="effect1_innerShadow_4002_4115"/><feGaussianBlur result="effect2_foregroundBlur_4002_4115" stdDeviation=".25"/></filter><filter id="h" color-interpolation-filters="sRGB" filterUnits="userSpaceOnUse" height="7.368" width="8.62" x="15.151" y="3.344"><feFlood flood-opacity="0" result="BackgroundImageFix"/><feBlend in="SourceGraphic" in2="BackgroundImageFix" mode="normal" result="shape"/><feColorMatrix in="SourceAlpha" result="hardAlpha" type="matrix" values="0 0 0 0 0 0 0 0 0 0 0 0 0 0 0 0 0 0 127 0"/><feOffset dx="1" dy="-.5"/><feGaussianBlur stdDeviation=".5"/><feComposite in2="hardAlpha" k2="-1" k3="1" operator="arithmetic"/><feColorMatrix type="matrix" values="0 0 0 0 0.282353 0 0 0 0 0.168627 0 0 0 0 0.188235 0 0 0 1 0"/><feBlend in2="shape" mode="normal" result="effect1_innerShadow_4002_4115"/><feGaussianBlur result="effect2_foregroundBlur_4002_4115" stdDeviation=".25"/></filter><filter id="i" color-interpolation-filters="sRGB" filterUnits="userSpaceOnUse" height="2.767" width="1.5" x="8.283" y="11.23"><feFlood flood-opacity="0" result="BackgroundImageFix"/><feBlend in="SourceGraphic" in2="BackgroundImageFix" mode="normal" result="shape"/><feGaussianBlur result="effect1_foregroundBlur_4002_4115" stdDeviation=".125"/></filter><filter id="j" color-interpolation-filters="sRGB" filterUnits="userSpaceOnUse" height="3.216" width="2.051" x="21.118" y="10.985"><feFlood flood-opacity="0" result="BackgroundImageFix"/><feBlend in="SourceGraphic" in2="BackgroundImageFix" mode="normal" result="shape"/><feGaussianBlur result="effect1_foregroundBlur_4002_4115" stdDeviation=".15"/></filter><filter id="k" color-interpolation-filters="sRGB" filterUnits="userSpaceOnUse" height="1.245" width="2.746" x="11.15" y="9.031"><feFlood flood-opacity="0" result="BackgroundImageFix"/><feBlend in="SourceGraphic" in2="BackgroundImageFix" mode="normal" result="shape"/><feGaussianBlur result="effect1_foregroundBlur_4002_4115" stdDeviation=".125"/></filter><filter id="l" color-interpolation-filters="sRGB" filterUnits="userSpaceOnUse" height="1.562" width="3.511" x="11.244" y="12.082"><feFlood flood-opacity="0" result="BackgroundImageFix"/><feBlend in="SourceGraphic" in2="BackgroundImageFix" mode="normal" result="shape"/><feColorMatrix in="SourceAlpha" result="hardAlpha" type="matrix" values="0 0 0 0 0 0 0 0 0 0 0 0 0 0 0 0 0 0 127 0"/><feOffset dx=".1" dy="-.2"/><feGaussianBlur stdDeviation=".125"/><feComposite in2="hardAlpha" k2="-1" k3="1" operator="arithmetic"/><feColorMatrix type="matrix" values="0 0 0 0 0.243137 0 0 0 0 0.121569 0 0 0 0 0.2 0 0 0 1 0"/><feBlend in2="shape" mode="normal" result="effect1_innerShadow_4002_4115"/></filter><filter id="m" color-interpolation-filters="sRGB" filterUnits="userSpaceOnUse" height="12.796" width="11.547" x="13.324" y="7.83"><feFlood flood-opacity="0" result="BackgroundImageFix"/><feBlend in="SourceGraphic" in2="BackgroundImageFix" mode="normal" result="shape"/><feColorMatrix in="SourceAlpha" result="hardAlpha" type="matrix" values="0 0 0 0 0 0 0 0 0 0 0 0 0 0 0 0 0 0 127 0"/><feOffset dx=".25"/><feGaussianBlur stdDeviation=".75"/><feComposite in2="hardAlpha" k2="-1" k3="1" operator="arithmetic"/><feColorMatrix type="matrix" values="0 0 0 0 0.603922 0 0 0 0 0.341176 0 0 0 0 0.439216 0 0 0 1 0"/><feBlend in2="shape" mode="normal" result="effect1_innerShadow_4002_4115"/><feColorMatrix in="SourceAlpha" result="hardAlpha" type="matrix" values="0 0 0 0 0 0 0 0 0 0 0 0 0 0 0 0 0 0 127 0"/><feOffset dx=".1"/><feGaussianBlur stdDeviation=".05"/><feComposite in2="hardAlpha" k2="-1" k3="1" operator="arithmetic"/><feColorMatrix type="matrix" values="0 0 0 0 0.6 0 0 0 0 0.415686 0 0 0 0 0.415686 0 0 0 1 0"/><feBlend in2="effect1_innerShadow_4002_4115" mode="normal" result="effect2_innerShadow_4002_4115"/></filter><filter id="n" color-interpolation-filters="sRGB" filterUnits="userSpaceOnUse" height="5.606" width="2.467" x="17.564" y="7.735"><feFlood flood-opacity="0" result="BackgroundImageFix"/><feBlend in="SourceGraphic" in2="BackgroundImageFix" mode="normal" result="shape"/><feGaussianBlur result="effect1_foregroundBlur_4002_4115" stdDeviation=".25"/></filter><filter id="o" color-interpolation-filters="sRGB" filterUnits="userSpaceOnUse" height="4.622" width="2.78" x="15.346" y="9.407"><feFlood flood-opacity="0" result="BackgroundImageFix"/><feBlend in="SourceGraphic" in2="BackgroundImageFix" mode="normal" result="shape"/><feGaussianBlur result="effect1_foregroundBlur_4002_4115" stdDeviation=".25"/></filter><filter id="p" color-interpolation-filters="sRGB" filterUnits="userSpaceOnUse" height="3.281" width="2.438" x="13.906" y="11.591"><feFlood flood-opacity="0" result="BackgroundImageFix"/><feBlend in="SourceGraphic" in2="BackgroundImageFix" mode="normal" result="shape"/><feGaussianBlur result="effect1_foregroundBlur_4002_4115" stdDeviation=".25"/></filter><filter id="q" color-interpolation-filters="sRGB" filterUnits="userSpaceOnUse" height="7.656" width="3.688" x="20.862" y="11.78"><feFlood flood-opacity="0" result="BackgroundImageFix"/><feBlend in="SourceGraphic" in2="BackgroundImageFix" mode="normal" result="shape"/><feGaussianBlur result="effect1_foregroundBlur_4002_4115" stdDeviation=".25"/></filter><filter id="r" color-interpolation-filters="sRGB" filterUnits="userSpaceOnUse" height="10.188" width="2.422" x="20.064" y="8.11"><feFlood flood-opacity="0" result="BackgroundImageFix"/><feBlend in="SourceGraphic" in2="BackgroundImageFix" mode="normal" result="shape"/><feGaussianBlur result="effect1_foregroundBlur_4002_4115" stdDeviation=".25"/></filter><filter id="s" color-interpolation-filters="sRGB" filterUnits="userSpaceOnUse" height="3.946" width="6.867" x="16.454" y="3.838"><feFlood flood-opacity="0" result="BackgroundImageFix"/><feBlend in="SourceGraphic" in2="BackgroundImageFix" mode="normal" result="shape"/><feGaussianBlur result="effect1_foregroundBlur_4002_4115" stdDeviation=".5"/></filter><linearGradient id="t" gradientUnits="userSpaceOnUse" x1="20.291" x2="5.914" y1="27.216" y2="30.121"><stop offset="0" stop-color="#f84d1b"/><stop offset="1" stop-color="#e5571e"/></linearGradient><radialGradient id="u" cx="0" cy="0" gradientTransform="matrix(-5.00000629 1.69026921 -3.3283506 -9.84563514 20.978 26.5273)" gradientUnits="userSpaceOnUse" r="1"><stop offset=".54" stop-color="#ff5016"/><stop offset="1" stop-color="#ff5016" stop-opacity="0"/></radialGradient><radialGradient id="v" cx="0" cy="0" gradientTransform="matrix(-6.07686285 2.88186818 -1.88528199 -3.97540739 14.7679 19.4126)" gradientUnits="userSpaceOnUse" r="1"><stop offset=".337" stop-color="#9f3b09"/><stop offset="1" stop-color="#9f3b09" stop-opacity="0"/></radialGradient><radialGradient id="w" cx="0" cy="0" gradientTransform="matrix(0 3.93285 -1.52074 0 15.583 19.7086)" gradientUnits="userSpaceOnUse" r="1"><stop offset=".277" stop-color="#954a63"/><stop offset=".857" stop-color="#955562"/></radialGradient><radialGradient id="x" cx="0" cy="0" gradientTransform="matrix(0 2.17187 -.585937 0 13.1875 20.5285)" gradientUnits="userSpaceOnUse" r="1"><stop offset=".234" stop-color="#9e6963"/><stop offset="1" stop-color="#9e6963" stop-opacity="0"/></radialGradient><linearGradient id="y" gradientUnits="userSpaceOnUse" x1="18.738" x2="16.984" y1="21.66" y2="21.66"><stop offset="0" stop-color="#b3716b"/><stop offset="1" stop-color="#b3716b" stop-opacity="0"/></linearGradient><radialGradient id="z" cx="0" cy="0" gradientTransform="matrix(-.9298663 3.82054993 -4.5385111 -1.1046076 22.284 14.0524)" gradientUnits="userSpaceOnUse" r="1"><stop offset=".043" stop-color="#ffc135"/><stop offset=".909" stop-color="#e26839"/></radialGradient><radialGradient id="A" cx="0" cy="0" gradientTransform="matrix(.35375442 .48514863 -.41214193 .30052034 21.3845 14.3758)" gradientUnits="userSpaceOnUse" r="1"><stop offset="0" stop-color="#e18c2a"/><stop offset="1" stop-color="#e18c2a" stop-opacity="0"/></radialGradient><radialGradient id="B" cx="0" cy="0" gradientTransform="matrix(1.78064824 .5596327 -1.7265046 5.49341983 8.28873 14.6437)" gradientUnits="userSpaceOnUse" r="1"><stop offset="0" stop-color="#4c3c39"/><stop offset=".746" stop-color="#2e1c2e"/></radialGradient><linearGradient id="C" gradientUnits="userSpaceOnUse" x1="15.65" x2="15.65" y1="5.475" y2="20.888"><stop offset="0" stop-color="#a27a6b"/><stop offset=".438" stop-color="#916066"/></linearGradient><radialGradient id="D" cx="0" cy="0" gradientTransform="matrix(-2.53781633 4.2639919 -2.90637391 -1.72979765 18.1875 7.38956)" gradientUnits="userSpaceOnUse" r="1"><stop offset=".343" stop-color="#a27b73"/><stop offset="1" stop-color="#a27b73" stop-opacity="0"/></radialGradient><radialGradient id="E" cx="0" cy="0" gradientTransform="matrix(0 -1.70515 2.05291 0 13.0707 11.4935)" gradientUnits="userSpaceOnUse" r="1"><stop offset=".276" stop-color="#905a6a"/><stop offset="1" stop-color="#a0746d" stop-opacity="0"/></radialGradient><radialGradient id="F" cx="0" cy="0" gradientTransform="matrix(3.59374967 -3.68750312 .88886654 .86626742 9.00002 8.57706)" gradientUnits="userSpaceOnUse" r="1"><stop offset="0" stop-color="#603d3c"/><stop offset="1" stop-color="#502b29" stop-opacity="0"/><stop offset="1" stop-color="#603d3c" stop-opacity="0"/></radialGradient><radialGradient id="G" cx="0" cy="0" gradientTransform="matrix(0 -5.01648 18.5784 0 16 20.8915)" gradientUnits="userSpaceOnUse" r="1"><stop offset="0" stop-color="#a94c85"/><stop offset=".247" stop-color="#9e4b71"/><stop offset=".847" stop-color="#90506b" stop-opacity="0"/></radialGradient><linearGradient id="H" gradientUnits="userSpaceOnUse" x1="18.112" x2="14.76" y1="8.632" y2="16.297"><stop offset="0" stop-color="#7a4153"/><stop offset="1" stop-color="#804f59"/></linearGradient><linearGradient id="I" gradientUnits="userSpaceOnUse" x1="23.857" x2="9.852" y1="6.088" y2="6.088"><stop offset=".471" stop-color="#614440"/><stop offset="1" stop-color="#543f3c"/></linearGradient><radialGradient id="J" cx="0" cy="0" gradientTransform="matrix(3.3053074 -8.62253808 12.23534171 4.69021593 8.70959 10.5962)" gradientUnits="userSpaceOnUse" r="1"><stop offset="0" stop-color="#604946"/><stop offset="1" stop-color="#604946" stop-opacity="0"/></radialGradient><radialGradient id="K" cx="0" cy="0" gradientTransform="matrix(-1.83233706 -7.90398924 11.21566487 -2.60006407 22.4338 10.6681)" gradientUnits="userSpaceOnUse" r="1"><stop offset=".303" stop-color="#604946"/><stop offset="1" stop-color="#604946" stop-opacity="0"/></radialGradient><radialGradient id="L" cx="0" cy="0" gradientTransform="matrix(-1.36525147 -2.87417714 3.39301852 -1.61170426 19.4878 5.49458)" gradientUnits="userSpaceOnUse" r="1"><stop offset="0" stop-color="#765a55"/><stop offset="1" stop-color="#765a55" stop-opacity="0"/></radialGradient><radialGradient id="M" cx="0" cy="0" gradientTransform="matrix(-2.65461 0 0 -.985229 15.8988 4.24402)" gradientUnits="userSpaceOnUse" r="1"><stop offset="0" stop-color="#654647"/><stop offset="1" stop-color="#654647" stop-opacity="0"/></radialGradient><radialGradient id="N" cx="0" cy="0" gradientTransform="matrix(3.88118447 -6.14521927 6.80827735 4.29995728 9.04355 8.99873)" gradientUnits="userSpaceOnUse" r="1"><stop offset=".093" stop-color="#37192c"/><stop offset=".311" stop-color="#472438"/><stop offset="1" stop-color="#472438" stop-opacity="0"/></radialGradient><radialGradient id="O" cx="0" cy="0" gradientTransform="matrix(4.23941382 -3.41308604 5.2895531 6.57018436 17.9072 7.45398)" gradientUnits="userSpaceOnUse" r="1"><stop offset="0" stop-color="#532c3f"/><stop offset=".445" stop-color="#532c3f" stop-opacity="0"/></radialGradient><radialGradient id="P" cx="0" cy="0" gradientTransform="matrix(3.56845915 -3.19381101 5.84704607 6.53293041 18.7693 8.97101)" gradientUnits="userSpaceOnUse" r="1"><stop offset=".857" stop-color="#685351" stop-opacity="0"/><stop offset="1" stop-color="#685351"/></radialGradient><radialGradient id="Q" cx="0" cy="0" gradientTransform="matrix(3.88975256 .87334122 -.36565149 1.62856599 17.7286 6.77491)" gradientUnits="userSpaceOnUse" r="1"><stop offset="0" stop-color="#4f2b3c"/><stop offset="1" stop-color="#4f2b3c" stop-opacity="0"/></radialGradient><linearGradient id="R" gradientUnits="userSpaceOnUse" x1="23.355" x2="21.9" y1="11.91" y2="14.534"><stop offset="0" stop-color="#bc9679"/><stop offset=".274" stop-color="#ad716e"/></linearGradient><linearGradient id="S" gradientUnits="userSpaceOnUse" x1="8.538" x2="10.297" y1="12.769" y2="12.615"><stop offset="0" stop-color="#855d5a"/><stop offset="1" stop-color="#7d4d5b"/></linearGradient><radialGradient id="T" cx="0" cy="0" gradientTransform="matrix(-1.99989 0 0 -2.21994 9.66482 12.6137)" gradientUnits="userSpaceOnUse" r="1"><stop offset=".778" stop-color="#9d7667" stop-opacity="0"/><stop offset="1" stop-color="#9d7667"/></radialGradient><radialGradient id="U" cx="0" cy="0" gradientTransform="matrix(-1.10529483 .18972579 -.19452874 -1.1332756 9.63844 12.6136)" gradientUnits="userSpaceOnUse" r="1"><stop offset="0" stop-color="#714b4d"/><stop offset="1" stop-color="#784e52"/></radialGradient><radialGradient id="V" cx="0" cy="0" gradientTransform="matrix(-2.50600742 10.01306878 -8.84066889 -2.2125866 21.0954 12.1454)" gradientUnits="userSpaceOnUse" r="1"><stop offset=".542" stop-color="#b6867c"/><stop offset="1" stop-color="#7a4a3d"/><stop offset="1" stop-color="#9f7070"/></radialGradient><radialGradient id="W" cx="0" cy="0" gradientTransform="matrix(.98633412 2.57227895 -.42432098 .16270485 15.3594 11.7879)" gradientUnits="userSpaceOnUse" r="1"><stop offset=".126" stop-color="#814f4f"/><stop offset="1" stop-color="#814f4f" stop-opacity="0"/></radialGradient><linearGradient id="X"><stop offset="0" stop-color="#814f4f"/><stop offset="1" stop-color="#814f4f" stop-opacity="0"/></linearGradient><radialGradient id="Y" cx="0" cy="0" gradientTransform="matrix(.98437707 3.84375319 -.6340604 .16238153 17.1738 9.71959)" gradientUnits="userSpaceOnUse" r="1" xlink:href="#X"/><radialGradient id="Z" cx="0" cy="0" gradientTransform="matrix(.65625337 4.37500458 -.54534 .08180134 19.4551 8.90709)" gradientUnits="userSpaceOnUse" r="1" xlink:href="#X"/><radialGradient id="aa" cx="0" cy="0" gradientTransform="matrix(-.56249885 3.89062784 -.4886642 -.07065005 22.7363 10.8446)" gradientUnits="userSpaceOnUse" r="1"><stop offset=".001" stop-color="#814f4f"/><stop offset="1" stop-color="#814f4f" stop-opacity="0"/></radialGradient><radialGradient id="ab" cx="0" cy="0" gradientTransform="matrix(.48146884 1.11737295 -1.40148024 .60388884 13.8285 11.6591)" gradientUnits="userSpaceOnUse" r="1"><stop offset="0" stop-color="#86634e"/><stop offset="1" stop-color="#86634e" stop-opacity="0"/></radialGradient><linearGradient id="ac"><stop offset=".038" stop-color="#86634e"/><stop offset="1" stop-color="#86634e" stop-opacity="0"/></linearGradient><radialGradient id="ad" cx="0" cy="0" gradientTransform="matrix(.41787921 1.87137111 -2.47437996 .55253175 15.609 9.22456)" gradientUnits="userSpaceOnUse" r="1" xlink:href="#ac"/><radialGradient id="ae" cx="0" cy="0" gradientTransform="matrix(.23619165 1.81686189 -2.40231555 .3123005 17.9891 7.51671)" gradientUnits="userSpaceOnUse" r="1" xlink:href="#ac"/><radialGradient id="af" cx="0" cy="0" gradientTransform="matrix(.19985366 1.96220857 -2.76484615 .28160341 20.8597 7.68022)" gradientUnits="userSpaceOnUse" r="1" xlink:href="#ac"/><radialGradient id="ag" cx="0" cy="0" gradientTransform="matrix(-.79943104 1.34447029 -1.89442422 -1.12643733 24.2936 11.2231)" gradientUnits="userSpaceOnUse" r="1" xlink:href="#ac"/><radialGradient id="ah" cx="0" cy="0" gradientTransform="matrix(-3.96873854 1.06252945 -.45292066 -1.69174011 22.9395 19.704)" gradientUnits="userSpaceOnUse" r="1"><stop offset="0" stop-color="#ff764c"/><stop offset="1" stop-color="#d54625"/></radialGradient><linearGradient id="ai" gradientUnits="userSpaceOnUse" x1="20.314" x2="20.396" y1="19.606" y2="19.899"><stop offset=".245" stop-color="#d74a13"/><stop offset="1" stop-color="#d74a13" stop-opacity="0"/></linearGradient><linearGradient id="aj" gradientUnits="userSpaceOnUse" x1="19.564" x2="26.002" y1="28.298" y2="26.923"><stop offset="0" stop-color="#e5562d"/><stop offset="1" stop-color="#ff8040"/></linearGradient><radialGradient id="ak" cx="0" cy="0" gradientTransform="matrix(1.84374644 7.96875503 -4.36047689 1.00889207 23.1582 21.4539)" gradientUnits="userSpaceOnUse" r="1"><stop offset="0" stop-color="#ff9946"/><stop offset="1" stop-color="#ff9946" stop-opacity="0"/></radialGradient><linearGradient id="al"><stop offset="0" stop-color="#be9988"/><stop offset="1" stop-color="#be9988" stop-opacity="0"/></linearGradient><linearGradient id="am" gradientUnits="userSpaceOnUse" x1="22.706" x2="22.706" xlink:href="#al" y1="12.655" y2="18.561"/><linearGradient id="an" gradientUnits="userSpaceOnUse" x1="21.275" x2="21.275" xlink:href="#al" y1="8.985" y2="17.423"/><g filter="url(#a)"><path d="m25.583 30.1301v-.3907c0-5.3989-4.47-9.7862-9.99-9.7862-5.52.0101-9.98997 4.3873-9.98997 9.7862v.3907z" fill="url(#t)"/><path d="m25.583 30.1301v-.3907c0-5.3989-4.47-9.7862-9.99-9.7862-5.52.0101-9.98997 4.3873-9.98997 9.7862v.3907z" fill="url(#u)"/></g><path d="m25.583 30.1301v-.3907c0-5.3989-4.47-9.7862-9.99-9.7862-5.52.0101-9.98997 4.3873-9.98997 9.7862v.3907z" fill="url(#v)"/><path d="m15.583 22.954c-1.46 0-2.64-.9118-2.64-2.04v-2.4108c0-1.1282 1.18-2.0399 2.64-2.0399s2.64.9117 2.64 2.0399v2.4108c0 1.1282-1.18 2.04-2.64 2.04z" fill="url(#w)"/><path d="m15.583 22.954c-1.46 0-2.64-.9118-2.64-2.04v-2.4108c0-1.1282 1.18-2.0399 2.64-2.0399s2.64.9117 2.64 2.0399v2.4108c0 1.1282-1.18 2.04-2.64 2.04z" fill="url(#x)"/><path d="m15.583 22.954c-1.46 0-2.64-.9118-2.64-2.04v-2.4108c0-1.1282 1.18-2.0399 2.64-2.0399s2.64.9117 2.64 2.0399v2.4108c0 1.1282-1.18 2.04-2.64 2.04z" fill="url(#y)"/><path d="m21.4559 14.4245c.4043-.0131.7829-.1502 1.0909-.3721v1.1228c0 1.0771-.6417 2.0367-1.6171 2.4349.2053-.4373.3465-.9139.4171-1.4231z" fill="url(#z)"/><path d="m21.4559 14.4245c.4043-.0131.7829-.1502 1.0909-.3721v1.1228c0 1.0771-.6417 2.0367-1.6171 2.4349.2053-.4373.3465-.9139.4171-1.4231z" fill="url(#A)"/><path d="m9.7301 14.4245c-.40429-.0131-.78291-.1502-1.09094-.3721v1.1228c0 1.0771.64173 2.0367 1.61714 2.4349-.2053-.4373-.34651-.9139-.4171-1.4231z" fill="url(#B)"/><g filter="url(#b)"><path d="m9.77105 16.7802c.31025 2.3546 2.31405 4.1076 4.68625 4.1076h2.2752c2.3722 0 4.376-1.753 4.6863-4.1076.1423-2.2718.2884-5.0629.3939-7.33347-.0128-.92503-.742-1.68832-1.6631-1.72713h-1.6886c-1.1514 0-2.194-.67921-2.6674-1.74007-.1215-.30403-.4157-.50455-.742-.50455h-1.5351c-2.226 0-4.02981 1.82415-4.02981 4.07524 0 2.24408.13715 4.98028.28436 7.22998z" fill="url(#C)"/><path d="m9.77105 16.7802c.31025 2.3546 2.31405 4.1076 4.68625 4.1076h2.2752c2.3722 0 4.376-1.753 4.6863-4.1076.1423-2.2718.2884-5.0629.3939-7.33347-.0128-.92503-.742-1.68832-1.6631-1.72713h-1.6886c-1.1514 0-2.194-.67921-2.6674-1.74007-.1215-.30403-.4157-.50455-.742-.50455h-1.5351c-2.226 0-4.02981 1.82415-4.02981 4.07524 0 2.24408.13715 4.98028.28436 7.22998z" fill="url(#D)"/></g><path d="m9.77407 16.7839c.31023 2.3546 2.31403 4.1076 4.68623 4.1076h2.2753c2.3722 0 4.3759-1.753 4.6862-4.1076.1423-2.2717.2854-5.0666.3909-7.33717-.0128-.92503-.742-1.68832-1.6631-1.72713h-1.6886c-1.1514 0-2.194-.67921-2.6674-1.74007-.1215-.30403-.4157-.50455-.742-.50455h-1.5351c-2.226 0-4.02981 1.82415-4.02981 4.07524 0 2.24408.14017 4.98398.28738 7.23368z" fill="url(#E)"/><path d="m9.77407 16.7839c.31023 2.3546 2.31403 4.1076 4.68623 4.1076h2.2753c2.3722 0 4.3759-1.753 4.6862-4.1076.1423-2.2717.2854-5.0666.3909-7.33717-.0128-.92503-.742-1.68832-1.6631-1.72713h-1.6886c-1.1514 0-2.194-.67921-2.6674-1.74007-.1215-.30403-.4157-.50455-.742-.50455h-1.5351c-2.226 0-4.02981 1.82415-4.02981 4.07524 0 2.24408.14017 4.98398.28738 7.23368z" fill="url(#F)"/><path d="m9.77407 16.7839c.31023 2.3546 2.31403 4.1076 4.68623 4.1076h2.2753c2.3722 0 4.3759-1.753 4.6862-4.1076.1423-2.2717.2854-5.0666.3909-7.33717-.0128-.92503-.742-1.68832-1.6631-1.72713h-1.6886c-1.1514 0-2.194-.67921-2.6674-1.74007-.1215-.30403-.4157-.50455-.742-.50455h-1.5351c-2.226 0-4.02981 1.82415-4.02981 4.07524 0 2.24408.14017 4.98398.28738 7.23368z" fill="url(#G)"/><g filter="url(#c)"><path d="m17.3003 8.64933c.513-.0988 1.0089.23693 1.1077.74987l.3561 1.8487-.086-1.38273c-.0324-.52137.364-.97029.8854-1.00269.5213-.03241.9703.36397 1.0027.88534l.197 3.17018.3271-.6745c.2383-.4914.8298-.6966 1.3212-.4583s.6966.8298.4583 1.3212l-.8163 1.6833c-.1747.4201-.1827.8077-.1912 1.2183-.0078.3741-.0159.7673-.151 1.2215-.2364.7953-.7076 1.4331-.9136 1.6525l-2.6333.7524c-2.0287-.4971-2.6467-1.6526-2.9826-2.6199-.2687-.7739-.5508-1.3794-.6583-1.5854-.0001.0001 0 0 0 0l-1.1619-2.2377c-.2407-.4635-.0601-1.0345.4035-1.2753.4636-.2407 1.0346-.0601 1.2753.4035l.1931.3717-.4627-1.3486c-.1695-.4941.0937-1.032.5878-1.2015.4941-.16955 1.032.0936 1.2015.5877l.4048 1.1799-.4144-2.15181c-.0988-.51295.2369-1.00886.7498-1.10766z" fill="url(#H)"/></g><g filter="url(#d)"><path d="m21.4481 4.90569c.6204.21346 1.1769.64686 1.5287 1.26785.5629.98971.4798 2.17347-.1279 3.04674-.2111.31049-.3262.67921-.3262 1.05442v1.4328c-.2256-.1572-.5232-.2737-.8047-.3235l.0947-1.93732c-.0128-.92502-.742-1.68832-1.6631-1.72713h-1.6887c-1.1513 0-2.194-.67921-2.6673-1.74007-.1215-.30402-.4158-.50455-.742-.50455h-1.5352c-2.2259 0-4.02975 1.82416-4.02975 4.07525l.03694 1.85412c-.30629.045-.62625.1474-.86848.318v-1.4476c0-.37521-.11514-.74393-.32623-1.05442-.57568-.8474-.67802-1.98588-.1727-2.94971.35181-.66627.92109-1.13201 1.56714-1.35842.69078-.2458 1.27928-.71155 1.66948-1.33901.4989-.79564 1.3752-1.32607 2.3795-1.32607.3902 0 .7612.08409 1.1066.2264.4605.20053.9787.20053 1.4392 0 .339-.14231.71-.2264 1.1002-.2264 1.017 0 1.9061.54984 2.3987 1.36489.371.61452.9531 1.06085 1.6311 1.29373z" fill="url(#I)"/></g><path d="m21.4481 4.90569c.6204.21346 1.1769.64686 1.5287 1.26785.5629.98971.4798 2.17347-.1279 3.04674-.2111.31049-.3262.67921-.3262 1.05442v1.4328c-.2256-.1572-.5232-.2737-.8047-.3235l.0947-1.93732c-.0128-.92502-.742-1.68832-1.6631-1.72713h-1.6887c-1.1513 0-2.194-.67921-2.6673-1.74007-.1215-.30402-.4158-.50455-.742-.50455h-1.5352c-2.2259 0-4.02975 1.82416-4.02975 4.07525l.03694 1.85412c-.30629.045-.62625.1474-.86849.318v-1.4476c0-.37521-.11513-.74393-.32622-1.05442-.57568-.8474-.67802-1.98588-.1727-2.94971.35181-.66627.92109-1.13201 1.56714-1.35842.69078-.2458 1.27928-.71155 1.66948-1.33901.4989-.79564 1.3752-1.32607 2.3795-1.32607.3902 0 .7612.08409 1.1066.2264.4605.20053.9787.20053 1.4392 0 .339-.14231.71-.2264 1.1002-.2264 1.017 0 1.9061.54984 2.3987 1.36489.371.61452.9531 1.06085 1.6311 1.29373z" fill="url(#J)"/><path d="m21.4481 4.90569c.6204.21346 1.1769.64686 1.5287 1.26785.5629.98971.4798 2.17347-.1279 3.04674-.2111.31049-.3262.67921-.3262 1.05442v1.4328c-.2256-.1572-.5232-.2737-.8047-.3235l.0947-1.93732c-.0128-.92502-.742-1.68832-1.6631-1.72713h-1.6887c-1.1513 0-2.194-.67921-2.6673-1.74007-.1215-.30402-.4158-.50455-.742-.50455h-1.5352c-2.2259 0-4.02975 1.82416-4.02975 4.07525l.03694 1.85412c-.30629.045-.62625.1474-.86849.318v-1.4476c0-.37521-.11513-.74393-.32622-1.05442-.57568-.8474-.67802-1.98588-.1727-2.94971.35181-.66627.92109-1.13201 1.56714-1.35842.69078-.2458 1.27928-.71155 1.66948-1.33901.4989-.79564 1.3752-1.32607 2.3795-1.32607.3902 0 .7612.08409 1.1066.2264.4605.20053.9787.20053 1.4392 0 .339-.14231.71-.2264 1.1002-.2264 1.017 0 1.9061.54984 2.3987 1.36489.371.61452.9531 1.06085 1.6311 1.29373z" fill="url(#K)"/><path d="m21.4481 4.90569c.6204.21346 1.1769.64686 1.5287 1.26785.5629.98971.4798 2.17347-.1279 3.04674-.2111.31049-.3262.67921-.3262 1.05442v1.4328c-.2256-.1572-.5232-.2737-.8047-.3235l.0947-1.93732c-.0128-.92502-.742-1.68832-1.6631-1.72713h-1.6887c-1.1513 0-2.194-.67921-2.6673-1.74007-.1215-.30402-.4158-.50455-.742-.50455h-1.5352c-2.2259 0-4.02975 1.82416-4.02975 4.07525l.03694 1.85412c-.30629.045-.62625.1474-.86849.318v-1.4476c0-.37521-.11513-.74393-.32622-1.05442-.57568-.8474-.67802-1.98588-.1727-2.94971.35181-.66627.92109-1.13201 1.56714-1.35842.69078-.2458 1.27928-.71155 1.66948-1.33901.4989-.79564 1.3752-1.32607 2.3795-1.32607.3902 0 .7612.08409 1.1066.2264.4605.20053.9787.20053 1.4392 0 .339-.14231.71-.2264 1.1002-.2264 1.017 0 1.9061.54984 2.3987 1.36489.371.61452.9531 1.06085 1.6311 1.29373z" fill="url(#L)"/><g filter="url(#e)"><path d="m20.095 9.69546c-.2113-.18402-.457-.37901-.8292-.49618-.3669-.1155-.8265-.14653-1.4623-.06875-.1833.02243-.3138.18925-.2913.3726.0224.18336.1892.31381.3726.29138.5803-.071.9358-.03411 1.1801.04283.2392.07528.401.19726.5907.36256.1393.1213.3506.1067.4719-.0326s.1068-.35052-.0325-.47184z" fill="#2e201f"/></g><g filter="url(#f)"><path d="m11.4794 9.56387c.1087-.06505.2651-.14827.4626-.22592.3949-.15527.9593-.29012 1.6346-.2075.1833.02243.3138.18925.2914.3726-.0225.18335-.1893.3138-.3726.29137-.5408-.06616-.992.04157-1.3087.16607-.1582.06221-.2816.12821-.3638.17731-.0409.0246-.0714.0448-.0905.058-.0096.0066-.0163.0114-.02.0142l-.0033.0025c-.1458.1123-.3552.0858-.4683-.0596-.1134-.1458-.0871-.35592.0587-.46932z" fill="#462d2b"/></g><g filter="url(#g)"><path d="m15.8734 6.14448c-.0281-.0539-.0547-.10891-.0798-.16499-.1215-.30403-.4157-.50456-.742-.50456h-1.5351c-2.226 0-4.0298 1.82416-4.0298 4.07525v.33186c-.41005-.31205-.92579-.97031-.92579-2.03554 0-1.29266.94279-1.94605 1.54419-2.36284.1698-.11766.3123-.21647.3988-.30548.0367-.03781.0767-.08022.1202-.12635.4216-.4471 1.1727-1.24372 2.4842-1.59188.7104-.18856 1.4311-.21928 1.9855-.19307.4723.02233.805.43046.805.9033v1.95809z" fill="#533634"/><path d="m15.8734 6.14448c-.0281-.0539-.0547-.10891-.0798-.16499-.1215-.30403-.4157-.50456-.742-.50456h-1.5351c-2.226 0-4.0298 1.82416-4.0298 4.07525v.33186c-.41005-.31205-.92579-.97031-.92579-2.03554 0-1.29266.94279-1.94605 1.54419-2.36284.1698-.11766.3123-.21647.3988-.30548.0367-.03781.0767-.08022.1202-.12635.4216-.4471 1.1727-1.24372 2.4842-1.59188.7104-.18856 1.4311-.21928 1.9855-.19307.4723.02233.805.43046.805.9033v1.95809z" fill="url(#M)"/><path d="m15.8734 6.14448c-.0281-.0539-.0547-.10891-.0798-.16499-.1215-.30403-.4157-.50456-.742-.50456h-1.5351c-2.226 0-4.0298 1.82416-4.0298 4.07525v.33186c-.41005-.31205-.92579-.97031-.92579-2.03554 0-1.29266.94279-1.94605 1.54419-2.36284.1698-.11766.3123-.21647.3988-.30548.0367-.03781.0767-.08022.1202-.12635.4216-.4471 1.1727-1.24372 2.4842-1.59188.7104-.18856 1.4311-.21928 1.9855-.19307.4723.02233.805.43046.805.9033v1.95809z" fill="url(#N)"/></g><g filter="url(#h)"><path d="m21.8797 10.2114-.0352-.76127c-.0128-.92074-.7737-1.68052-1.6948-1.71916h-1.6887c-1.072 0-2.0497-.58607-2.5615-1.51916 0 0-.1317-.30524-.224-.79602-.1854-.9858.732-1.71661 1.7207-1.54755 1.2515.21398 2.7652.6221 3.8553 1.33309 2.104 1.37229 1.7356 3.84541.6282 5.01007z" fill="#563936"/><path d="m21.8797 10.2114-.0352-.76127c-.0128-.92074-.7737-1.68052-1.6948-1.71916h-1.6887c-1.072 0-2.0497-.58607-2.5615-1.51916 0 0-.1317-.30524-.224-.79602-.1854-.9858.732-1.71661 1.7207-1.54755 1.2515.21398 2.7652.6221 3.8553 1.33309 2.104 1.37229 1.7356 3.84541.6282 5.01007z" fill="url(#O)"/><path d="m21.8797 10.2114-.0352-.76127c-.0128-.92074-.7737-1.68052-1.6948-1.71916h-1.6887c-1.072 0-2.0497-.58607-2.5615-1.51916 0 0-.1317-.30524-.224-.79602-.1854-.9858.732-1.71661 1.7207-1.54755 1.2515.21398 2.7652.6221 3.8553 1.33309 2.104 1.37229 1.7356 3.84541.6282 5.01007z" fill="url(#P)"/><path d="m21.8797 10.2114-.0352-.76127c-.0128-.92074-.7737-1.68052-1.6948-1.71916h-1.6887c-1.072 0-2.0497-.58607-2.5615-1.51916 0 0-.1317-.30524-.224-.79602-.1854-.9858.732-1.71661 1.7207-1.54755 1.2515.21398 2.7652.6221 3.8553 1.33309 2.104 1.37229 1.7356 3.84541.6282 5.01007z" fill="url(#Q)"/></g><path d="m21.5289 14.5342c.0793-1.2834.1558-2.5653.2226-3.8488.9112.1595 1.6038.9546 1.6038 1.9115 0 1.0334-.8078 1.8782-1.8264 1.9373z" fill="url(#R)"/><path d="m9.5156 10.6926c-.9423.1329-1.68497.9254-1.68497 1.9044 0 1.036.81191 1.8824 1.83418 1.9377-.07785-1.2887-.12426-2.553-.14921-3.8421z" fill="url(#S)"/><path d="m9.5156 10.6926c-.9423.1329-1.68497.9254-1.68497 1.9044 0 1.036.81191 1.8824 1.83418 1.9377-.07785-1.2887-.12426-2.553-.14921-3.8421z" fill="url(#T)"/><g filter="url(#i)"><path d="m9.4322 11.4803c-.51457.1154-.89906.575-.89906 1.1244 0 .5846.43543 1.0676.99968 1.1422-.04181-.756-.07708-1.5105-.10062-2.2666z" fill="url(#U)"/></g><g filter="url(#j)"><path d="m21.5771 13.7491c.0465-.7653.0914-1.5302.1334-2.2955.5683.0709 1.0081.5558 1.0081 1.1433 0 .6328-.5101 1.1465-1.1415 1.1522z" stroke="#bb8c7a" stroke-width=".3"/></g><g filter="url(#k)"><path d="m11.5248 9.90121c.31-.22236 1.0825-.61351 1.9962-.45988" stroke="#553f3f" stroke-linecap="round" stroke-width=".25"/></g><g filter="url(#l)"><path clip-rule="evenodd" d="m14.5168 12.3464c.1501.1092.1833.3193.0742.4694-.3689.5073-.9674.828-1.6415.828-.6664 0-1.2621-.3221-1.6385-.824-.1114-.1485-.0813-.3591.0672-.4705.1485-.1113.3591-.0812.4705.0672.2557.341.6561.5553 1.1008.5553.4562 0 .8538-.2156 1.0979-.5513.1092-.1501.3193-.1833.4694-.0741z" fill="#462d2b" fill-rule="evenodd"/></g><path d="m17.6427 17.5743c-.4406-.6705-1.1973-1.1207-2.0593-1.1207s-1.6187.4502-2.0593 1.1207c-.0958.1436.0383.316.1916.2969h3.7259c.1532.0383.2969-.1437.2011-.2969z" fill="#86004d"/><g filter="url(#m)"><path d="m18.0283 7.85038c.5965-.1149 1.1733.27555 1.2882.8721l.4141 2.14992-.1-1.60801c-.0376-.60634.4233-1.12843 1.0297-1.16612.6063-.03769 1.1284.4233 1.1661 1.02964l.2292 3.68689.3804-.7845c.2771-.5715.965-.8101 1.5365-.533.5715.2772.8101.9651.533 1.5366l-.9493 1.9576c-.2032.4886-.2125.9394-.2224 1.4169-.0091.4351-.0186.8924-.1756 1.4206-.275.925-.8229 1.6666-1.0625 1.9218l-3.0625.875c-2.3594-.5781-3.0781-1.9218-3.4687-3.0468-.3125-.9-.6407-1.6042-.7657-1.8438 0 0 .0001 0 0 0l-1.3512-2.6024c-.28-.5391-.0699-1.2032.4693-1.4832.5391-.28 1.2032-.0699 1.4831.4693l.2246.4323-.5381-1.5684c-.1971-.5746.1089-1.2003.6835-1.39744.5747-.19713 1.2003.10889 1.3974.68354l.4708 1.3723-.482-2.50262c-.1149-.59655.2755-1.1733.8721-1.2882z" fill="url(#V)"/><path d="m18.0283 7.85038c.5965-.1149 1.1733.27555 1.2882.8721l.4141 2.14992-.1-1.60801c-.0376-.60634.4233-1.12843 1.0297-1.16612.6063-.03769 1.1284.4233 1.1661 1.02964l.2292 3.68689.3804-.7845c.2771-.5715.965-.8101 1.5365-.533.5715.2772.8101.9651.533 1.5366l-.9493 1.9576c-.2032.4886-.2125.9394-.2224 1.4169-.0091.4351-.0186.8924-.1756 1.4206-.275.925-.8229 1.6666-1.0625 1.9218l-3.0625.875c-2.3594-.5781-3.0781-1.9218-3.4687-3.0468-.3125-.9-.6407-1.6042-.7657-1.8438 0 0 .0001 0 0 0l-1.3512-2.6024c-.28-.5391-.0699-1.2032.4693-1.4832.5391-.28 1.2032-.0699 1.4831.4693l.2246.4323-.5381-1.5684c-.1971-.5746.1089-1.2003.6835-1.39744.5747-.19713 1.2003.10889 1.3974.68354l.4708 1.3723-.482-2.50262c-.1149-.59655.2755-1.1733.8721-1.2882z" fill="url(#W)"/><path d="m18.0283 7.85038c.5965-.1149 1.1733.27555 1.2882.8721l.4141 2.14992-.1-1.60801c-.0376-.60634.4233-1.12843 1.0297-1.16612.6063-.03769 1.1284.4233 1.1661 1.02964l.2292 3.68689.3804-.7845c.2771-.5715.965-.8101 1.5365-.533.5715.2772.8101.9651.533 1.5366l-.9493 1.9576c-.2032.4886-.2125.9394-.2224 1.4169-.0091.4351-.0186.8924-.1756 1.4206-.275.925-.8229 1.6666-1.0625 1.9218l-3.0625.875c-2.3594-.5781-3.0781-1.9218-3.4687-3.0468-.3125-.9-.6407-1.6042-.7657-1.8438 0 0 .0001 0 0 0l-1.3512-2.6024c-.28-.5391-.0699-1.2032.4693-1.4832.5391-.28 1.2032-.0699 1.4831.4693l.2246.4323-.5381-1.5684c-.1971-.5746.1089-1.2003.6835-1.39744.5747-.19713 1.2003.10889 1.3974.68354l.4708 1.3723-.482-2.50262c-.1149-.59655.2755-1.1733.8721-1.2882z" fill="url(#Y)"/><path d="m18.0283 7.85038c.5965-.1149 1.1733.27555 1.2882.8721l.4141 2.14992-.1-1.60801c-.0376-.60634.4233-1.12843 1.0297-1.16612.6063-.03769 1.1284.4233 1.1661 1.02964l.2292 3.68689.3804-.7845c.2771-.5715.965-.8101 1.5365-.533.5715.2772.8101.9651.533 1.5366l-.9493 1.9576c-.2032.4886-.2125.9394-.2224 1.4169-.0091.4351-.0186.8924-.1756 1.4206-.275.925-.8229 1.6666-1.0625 1.9218l-3.0625.875c-2.3594-.5781-3.0781-1.9218-3.4687-3.0468-.3125-.9-.6407-1.6042-.7657-1.8438 0 0 .0001 0 0 0l-1.3512-2.6024c-.28-.5391-.0699-1.2032.4693-1.4832.5391-.28 1.2032-.0699 1.4831.4693l.2246.4323-.5381-1.5684c-.1971-.5746.1089-1.2003.6835-1.39744.5747-.19713 1.2003.10889 1.3974.68354l.4708 1.3723-.482-2.50262c-.1149-.59655.2755-1.1733.8721-1.2882z" fill="url(#Z)"/><path d="m18.0283 7.85038c.5965-.1149 1.1733.27555 1.2882.8721l.4141 2.14992-.1-1.60801c-.0376-.60634.4233-1.12843 1.0297-1.16612.6063-.03769 1.1284.4233 1.1661 1.02964l.2292 3.68689.3804-.7845c.2771-.5715.965-.8101 1.5365-.533.5715.2772.8101.9651.533 1.5366l-.9493 1.9576c-.2032.4886-.2125.9394-.2224 1.4169-.0091.4351-.0186.8924-.1756 1.4206-.275.925-.8229 1.6666-1.0625 1.9218l-3.0625.875c-2.3594-.5781-3.0781-1.9218-3.4687-3.0468-.3125-.9-.6407-1.6042-.7657-1.8438 0 0 .0001 0 0 0l-1.3512-2.6024c-.28-.5391-.0699-1.2032.4693-1.4832.5391-.28 1.2032-.0699 1.4831.4693l.2246.4323-.5381-1.5684c-.1971-.5746.1089-1.2003.6835-1.39744.5747-.19713 1.2003.10889 1.3974.68354l.4708 1.3723-.482-2.50262c-.1149-.59655.2755-1.1733.8721-1.2882z" fill="url(#aa)"/></g><path d="m18.0283 7.85038c.5965-.1149 1.1733.27555 1.2882.8721l.4141 2.14992-.1-1.60801c-.0376-.60634.4233-1.12843 1.0297-1.16612.6063-.03769 1.1284.4233 1.1661 1.02964l.2292 3.68689.3804-.7845c.2771-.5715.965-.8101 1.5365-.533.5715.2772.8101.9651.533 1.5366l-.9493 1.9576c-.2032.4886-.2125.9394-.2224 1.4169-.0091.4351-.0186.8924-.1756 1.4206-.275.925-.8229 1.6666-1.0625 1.9218l-3.0625.875c-2.3594-.5781-3.0781-1.9218-3.4687-3.0468-.3125-.9-.6407-1.6042-.7657-1.8438 0 0 .0001 0 0 0l-1.3512-2.6024c-.28-.5391-.0699-1.2032.4693-1.4832.5391-.28 1.2032-.0699 1.4831.4693l.2246.4323-.5381-1.5684c-.1971-.5746.1089-1.2003.6835-1.39744.5747-.19713 1.2003.10889 1.3974.68354l.4708 1.3723-.482-2.50262c-.1149-.59655.2755-1.1733.8721-1.2882z" fill="url(#ab)"/><path d="m18.0283 7.85038c.5965-.1149 1.1733.27555 1.2882.8721l.4141 2.14992-.1-1.60801c-.0376-.60634.4233-1.12843 1.0297-1.16612.6063-.03769 1.1284.4233 1.1661 1.02964l.2292 3.68689.3804-.7845c.2771-.5715.965-.8101 1.5365-.533.5715.2772.8101.9651.533 1.5366l-.9493 1.9576c-.2032.4886-.2125.9394-.2224 1.4169-.0091.4351-.0186.8924-.1756 1.4206-.275.925-.8229 1.6666-1.0625 1.9218l-3.0625.875c-2.3594-.5781-3.0781-1.9218-3.4687-3.0468-.3125-.9-.6407-1.6042-.7657-1.8438 0 0 .0001 0 0 0l-1.3512-2.6024c-.28-.5391-.0699-1.2032.4693-1.4832.5391-.28 1.2032-.0699 1.4831.4693l.2246.4323-.5381-1.5684c-.1971-.5746.1089-1.2003.6835-1.39744.5747-.19713 1.2003.10889 1.3974.68354l.4708 1.3723-.482-2.50262c-.1149-.59655.2755-1.1733.8721-1.2882z" fill="url(#ad)"/><path d="m18.0283 7.85038c.5965-.1149 1.1733.27555 1.2882.8721l.4141 2.14992-.1-1.60801c-.0376-.60634.4233-1.12843 1.0297-1.16612.6063-.03769 1.1284.4233 1.1661 1.02964l.2292 3.68689.3804-.7845c.2771-.5715.965-.8101 1.5365-.533.5715.2772.8101.9651.533 1.5366l-.9493 1.9576c-.2032.4886-.2125.9394-.2224 1.4169-.0091.4351-.0186.8924-.1756 1.4206-.275.925-.8229 1.6666-1.0625 1.9218l-3.0625.875c-2.3594-.5781-3.0781-1.9218-3.4687-3.0468-.3125-.9-.6407-1.6042-.7657-1.8438 0 0 .0001 0 0 0l-1.3512-2.6024c-.28-.5391-.0699-1.2032.4693-1.4832.5391-.28 1.2032-.0699 1.4831.4693l.2246.4323-.5381-1.5684c-.1971-.5746.1089-1.2003.6835-1.39744.5747-.19713 1.2003.10889 1.3974.68354l.4708 1.3723-.482-2.50262c-.1149-.59655.2755-1.1733.8721-1.2882z" fill="url(#ae)"/><path d="m18.0283 7.85038c.5965-.1149 1.1733.27555 1.2882.8721l.4141 2.14992-.1-1.60801c-.0376-.60634.4233-1.12843 1.0297-1.16612.6063-.03769 1.1284.4233 1.1661 1.02964l.2292 3.68689.3804-.7845c.2771-.5715.965-.8101 1.5365-.533.5715.2772.8101.9651.533 1.5366l-.9493 1.9576c-.2032.4886-.2125.9394-.2224 1.4169-.0091.4351-.0186.8924-.1756 1.4206-.275.925-.8229 1.6666-1.0625 1.9218l-3.0625.875c-2.3594-.5781-3.0781-1.9218-3.4687-3.0468-.3125-.9-.6407-1.6042-.7657-1.8438 0 0 .0001 0 0 0l-1.3512-2.6024c-.28-.5391-.0699-1.2032.4693-1.4832.5391-.28 1.2032-.0699 1.4831.4693l.2246.4323-.5381-1.5684c-.1971-.5746.1089-1.2003.6835-1.39744.5747-.19713 1.2003.10889 1.3974.68354l.4708 1.3723-.482-2.50262c-.1149-.59655.2755-1.1733.8721-1.2882z" fill="url(#af)"/><path d="m18.0283 7.85038c.5965-.1149 1.1733.27555 1.2882.8721l.4141 2.14992-.1-1.60801c-.0376-.60634.4233-1.12843 1.0297-1.16612.6063-.03769 1.1284.4233 1.1661 1.02964l.2292 3.68689.3804-.7845c.2771-.5715.965-.8101 1.5365-.533.5715.2772.8101.9651.533 1.5366l-.9493 1.9576c-.2032.4886-.2125.9394-.2224 1.4169-.0091.4351-.0186.8924-.1756 1.4206-.275.925-.8229 1.6666-1.0625 1.9218l-3.0625.875c-2.3594-.5781-3.0781-1.9218-3.4687-3.0468-.3125-.9-.6407-1.6042-.7657-1.8438 0 0 .0001 0 0 0l-1.3512-2.6024c-.28-.5391-.0699-1.2032.4693-1.4832.5391-.28 1.2032-.0699 1.4831.4693l.2246.4323-.5381-1.5684c-.1971-.5746.1089-1.2003.6835-1.39744.5747-.19713 1.2003.10889 1.3974.68354l.4708 1.3723-.482-2.50262c-.1149-.59655.2755-1.1733.8721-1.2882z" fill="url(#ag)"/><path d="m17.7409 20.6088c-.0328-.1333.048-.2681.1811-.3019l4.7333-1.2046c.1349-.0344.2719.0481.3047.1834l.2739 1.1306-5.2288 1.267z" fill="url(#ah)"/><path d="m17.7409 20.6088c-.0328-.1333.048-.2681.1811-.3019l4.7333-1.2046c.1349-.0344.2719.0481.3047.1834l.2739 1.1306-5.2288 1.267z" fill="url(#ai)"/><path d="m17.177 22.6827c-.1396-.5372.185-1.0852.7231-1.221l5.3031-1.3386c.5328-.1345 1.0744.1861 1.2126.718l2.4143 9.2889h-7.7188z" fill="url(#aj)"/><path d="m17.177 22.6827c-.1396-.5372.185-1.0852.7231-1.221l5.3031-1.3386c.5328-.1345 1.0744.1861 1.2126.718l2.4143 9.2889h-7.7188z" fill="url(#ak)"/><g filter="url(#n)"><path d="m18.4395 8.61023.7167 3.85577" stroke="#be9988" stroke-linecap="round" stroke-width=".75"/></g><g filter="url(#o)"><path d="m16.2207 10.2821 1.0293 2.8714" stroke="#be9988" stroke-linecap="round" stroke-width=".75"/></g><g filter="url(#p)"><path d="m14.7812 12.4661.6876 1.5312" stroke="#be9988" stroke-linecap="round" stroke-width=".75"/></g><g filter="url(#q)"><path d="m23.6748 12.6552-.9375 1.8906c-.1458.2708-.4219 1.0062-.3594 1.7812.0782.9688-.2656 1.8282-.6406 2.2344" stroke="url(#am)" stroke-linecap="round" stroke-width=".75"/></g><g filter="url(#r)"><path d="m20.9395 8.98523.6718 8.43747" stroke="url(#an)" stroke-linecap="round" stroke-width=".75"/></g><g filter="url(#s)"><path d="m20.7674 6.08848h-2.6897c-.3445 0-.6238-.2793-.6238-.62383 0-.38432.344-.679.7236-.61851.6977.1112 1.6245.26624 2.2451.4201 1.4031.34789 1.7905 1.03097 1.8988 1.51803-.501-.6123-1.2447-.71899-1.554-.69579z" fill="#725050"/></g></svg>