<svg fill="none" height="32" viewBox="0 0 32 32" width="32" xmlns="http://www.w3.org/2000/svg" xmlns:xlink="http://www.w3.org/1999/xlink"><filter id="a" color-interpolation-filters="sRGB" filterUnits="userSpaceOnUse" height="3.139" width="3.652" x="3.263" y="11.195"><feFlood flood-opacity="0" result="BackgroundImageFix"/><feBlend in="SourceGraphic" in2="BackgroundImageFix" mode="normal" result="shape"/><feGaussianBlur result="effect1_foregroundBlur_4002_4196" stdDeviation=".25"/></filter><filter id="b" color-interpolation-filters="sRGB" filterUnits="userSpaceOnUse" height="3.323" width="3.727" x="2.184" y="11.476"><feFlood flood-opacity="0" result="BackgroundImageFix"/><feBlend in="SourceGraphic" in2="BackgroundImageFix" mode="normal" result="shape"/><feGaussianBlur result="effect1_foregroundBlur_4002_4196" stdDeviation=".25"/></filter><filter id="c" color-interpolation-filters="sRGB" filterUnits="userSpaceOnUse" height="3.135" width="3.867" x="2.114" y="12.485"><feFlood flood-opacity="0" result="BackgroundImageFix"/><feBlend in="SourceGraphic" in2="BackgroundImageFix" mode="normal" result="shape"/><feGaussianBlur result="effect1_foregroundBlur_4002_4196" stdDeviation=".25"/></filter><filter id="d" color-interpolation-filters="sRGB" filterUnits="userSpaceOnUse" height="5.156" width="3.508" x="23.795" y="11.261"><feFlood flood-opacity="0" result="BackgroundImageFix"/><feBlend in="SourceGraphic" in2="BackgroundImageFix" mode="normal" result="shape"/><feColorMatrix in="SourceAlpha" result="hardAlpha" type="matrix" values="0 0 0 0 0 0 0 0 0 0 0 0 0 0 0 0 0 0 127 0"/><feOffset dx=".25"/><feGaussianBlur stdDeviation=".3"/><feComposite in2="hardAlpha" k2="-1" k3="1" operator="arithmetic"/><feColorMatrix type="matrix" values="0 0 0 0 0.843137 0 0 0 0 0.627451 0 0 0 0 0.52549 0 0 0 1 0"/><feBlend in2="shape" mode="normal" result="effect1_innerShadow_4002_4196"/></filter><filter id="e" color-interpolation-filters="sRGB" filterUnits="userSpaceOnUse" height="2.858" width="4.031" x="2.412" y="13.536"><feFlood flood-opacity="0" result="BackgroundImageFix"/><feBlend in="SourceGraphic" in2="BackgroundImageFix" mode="normal" result="shape"/><feGaussianBlur result="effect1_foregroundBlur_4002_4196" stdDeviation=".25"/></filter><filter id="f" color-interpolation-filters="sRGB" filterUnits="userSpaceOnUse" height="13.423" width="23.107" x="4.624" y="16.543"><feFlood flood-opacity="0" result="BackgroundImageFix"/><feBlend in="SourceGraphic" in2="BackgroundImageFix" mode="normal" result="shape"/><feColorMatrix in="SourceAlpha" result="hardAlpha" type="matrix" values="0 0 0 0 0 0 0 0 0 0 0 0 0 0 0 0 0 0 127 0"/><feOffset dy="-.25"/><feGaussianBlur stdDeviation=".5"/><feComposite in2="hardAlpha" k2="-1" k3="1" operator="arithmetic"/><feColorMatrix type="matrix" values="0 0 0 0 0.180392 0 0 0 0 0.396078 0 0 0 0 0.768627 0 0 0 1 0"/><feBlend in2="shape" mode="normal" result="effect1_innerShadow_4002_4196"/></filter><filter id="g" color-interpolation-filters="sRGB" filterUnits="userSpaceOnUse" height="8.945" width="8.199" x="5.11" y="16.564"><feFlood flood-opacity="0" result="BackgroundImageFix"/><feBlend in="SourceGraphic" in2="BackgroundImageFix" mode="normal" result="shape"/><feGaussianBlur result="effect1_foregroundBlur_4002_4196" stdDeviation=".75"/></filter><filter id="h" color-interpolation-filters="sRGB" filterUnits="userSpaceOnUse" height="8.493" width="7.102" x="20.783" y="16.484"><feFlood flood-opacity="0" result="BackgroundImageFix"/><feBlend in="SourceGraphic" in2="BackgroundImageFix" mode="normal" result="shape"/><feGaussianBlur result="effect1_foregroundBlur_4002_4196" stdDeviation=".625"/></filter><filter id="i" color-interpolation-filters="sRGB" filterUnits="userSpaceOnUse" height="6.956" width="3.956" x="9.209" y="19.19"><feFlood flood-opacity="0" result="BackgroundImageFix"/><feBlend in="SourceGraphic" in2="BackgroundImageFix" mode="normal" result="shape"/><feGaussianBlur result="effect1_foregroundBlur_4002_4196" stdDeviation=".25"/></filter><filter id="j" color-interpolation-filters="sRGB" filterUnits="userSpaceOnUse" height="5.519" width="5.986" x="20.41" y="21.174"><feFlood flood-opacity="0" result="BackgroundImageFix"/><feBlend in="SourceGraphic" in2="BackgroundImageFix" mode="normal" result="shape"/><feGaussianBlur result="effect1_foregroundBlur_4002_4196" stdDeviation=".4"/></filter><filter id="k" color-interpolation-filters="sRGB" filterUnits="userSpaceOnUse" height="3.06" width="3.26" x="9.85" y="11.434"><feFlood flood-opacity="0" result="BackgroundImageFix"/><feBlend in="SourceGraphic" in2="BackgroundImageFix" mode="normal" result="shape"/><feColorMatrix in="SourceAlpha" result="hardAlpha" type="matrix" values="0 0 0 0 0 0 0 0 0 0 0 0 0 0 0 0 0 0 127 0"/><feOffset dx=".2"/><feGaussianBlur stdDeviation=".15"/><feComposite in2="hardAlpha" k2="-1" k3="1" operator="arithmetic"/><feColorMatrix type="matrix" values="0 0 0 0 0.917647 0 0 0 0 0.694118 0 0 0 0 0.607843 0 0 0 1 0"/><feBlend in2="shape" mode="normal" result="effect1_innerShadow_4002_4196"/></filter><filter id="l" color-interpolation-filters="sRGB" filterUnits="userSpaceOnUse" height="2.824" width="2.824" x="9.968" y="11.552"><feFlood flood-opacity="0" result="BackgroundImageFix"/><feBlend in="SourceGraphic" in2="BackgroundImageFix" mode="normal" result="shape"/><feGaussianBlur result="effect1_foregroundBlur_4002_4196" stdDeviation=".25"/></filter><filter id="m" color-interpolation-filters="sRGB" filterUnits="userSpaceOnUse" height="3.31" width="3.31" x="18.546" y="10.56"><feFlood flood-opacity="0" result="BackgroundImageFix"/><feBlend in="SourceGraphic" in2="BackgroundImageFix" mode="normal" result="shape"/><feColorMatrix in="SourceAlpha" result="hardAlpha" type="matrix" values="0 0 0 0 0 0 0 0 0 0 0 0 0 0 0 0 0 0 127 0"/><feOffset dx=".25" dy="-.25"/><feGaussianBlur stdDeviation=".25"/><feComposite in2="hardAlpha" k2="-1" k3="1" operator="arithmetic"/><feColorMatrix type="matrix" values="0 0 0 0 0.843137 0 0 0 0 0.623529 0 0 0 0 0.580392 0 0 0 1 0"/><feBlend in2="shape" mode="normal" result="effect1_innerShadow_4002_4196"/></filter><filter id="n" color-interpolation-filters="sRGB" filterUnits="userSpaceOnUse" height="2.824" width="2.824" x="18.664" y="10.928"><feFlood flood-opacity="0" result="BackgroundImageFix"/><feBlend in="SourceGraphic" in2="BackgroundImageFix" mode="normal" result="shape"/><feGaussianBlur result="effect1_foregroundBlur_4002_4196" stdDeviation=".25"/></filter><filter id="o" color-interpolation-filters="sRGB" filterUnits="userSpaceOnUse" height="11.307" width="9.498" x="10.868" y="7.461"><feFlood flood-opacity="0" result="BackgroundImageFix"/><feBlend in="SourceGraphic" in2="BackgroundImageFix" mode="normal" result="shape"/><feColorMatrix in="SourceAlpha" result="hardAlpha" type="matrix" values="0 0 0 0 0 0 0 0 0 0 0 0 0 0 0 0 0 0 127 0"/><feOffset dy=".15"/><feGaussianBlur stdDeviation=".15"/><feComposite in2="hardAlpha" k2="-1" k3="1" operator="arithmetic"/><feColorMatrix type="matrix" values="0 0 0 0 0.819608 0 0 0 0 0.615686 0 0 0 0 0.509804 0 0 0 1 0"/><feBlend in2="shape" mode="normal" result="effect1_innerShadow_4002_4196"/></filter><filter id="p" color-interpolation-filters="sRGB" filterUnits="userSpaceOnUse" height="6.986" width="7.925" x="13.636" y="5.252"><feFlood flood-opacity="0" result="BackgroundImageFix"/><feBlend in="SourceGraphic" in2="BackgroundImageFix" mode="normal" result="shape"/><feGaussianBlur result="effect1_foregroundBlur_4002_4196" stdDeviation="1"/></filter><filter id="q" color-interpolation-filters="sRGB" filterUnits="userSpaceOnUse" height="8.162" width="11.525" x="9.664" y="4.266"><feFlood flood-opacity="0" result="BackgroundImageFix"/><feBlend in="SourceGraphic" in2="BackgroundImageFix" mode="normal" result="shape"/><feColorMatrix in="SourceAlpha" result="hardAlpha" type="matrix" values="0 0 0 0 0 0 0 0 0 0 0 0 0 0 0 0 0 0 127 0"/><feOffset dy="-.5"/><feGaussianBlur stdDeviation=".375"/><feComposite in2="hardAlpha" k2="-1" k3="1" operator="arithmetic"/><feColorMatrix type="matrix" values="0 0 0 0 0.0392157 0 0 0 0 0.00784314 0 0 0 0 0.0196078 0 0 0 1 0"/><feBlend in2="shape" mode="normal" result="effect1_innerShadow_4002_4196"/></filter><filter id="r" color-interpolation-filters="sRGB" filterUnits="userSpaceOnUse" height="3.987" width="3.111" x="14.06" y="11.538"><feFlood flood-opacity="0" result="BackgroundImageFix"/><feBlend in="SourceGraphic" in2="BackgroundImageFix" mode="normal" result="shape"/><feGaussianBlur result="effect1_foregroundBlur_4002_4196" stdDeviation=".375"/></filter><filter id="s" color-interpolation-filters="sRGB" filterUnits="userSpaceOnUse" height="2.979" width="2.218" x="14.714" y="11.883"><feFlood flood-opacity="0" result="BackgroundImageFix"/><feBlend in="SourceGraphic" in2="BackgroundImageFix" mode="normal" result="shape"/><feGaussianBlur result="effect1_foregroundBlur_4002_4196" stdDeviation=".125"/></filter><filter id="t" color-interpolation-filters="sRGB" filterUnits="userSpaceOnUse" height="1.67" width="2.772" x="16.623" y="9.139"><feFlood flood-opacity="0" result="BackgroundImageFix"/><feBlend in="SourceGraphic" in2="BackgroundImageFix" mode="normal" result="shape"/><feColorMatrix in="SourceAlpha" result="hardAlpha" type="matrix" values="0 0 0 0 0 0 0 0 0 0 0 0 0 0 0 0 0 0 127 0"/><feOffset dx=".25" dy="-.4"/><feGaussianBlur stdDeviation=".3"/><feComposite in2="hardAlpha" k2="-1" k3="1" operator="arithmetic"/><feColorMatrix type="matrix" values="0 0 0 0 0.0431373 0 0 0 0 0.0196078 0 0 0 0 0.027451 0 0 0 1 0"/><feBlend in2="shape" mode="normal" result="effect1_innerShadow_4002_4196"/></filter><filter id="u" color-interpolation-filters="sRGB" filterUnits="userSpaceOnUse" height="1.838" width="2.723" x="11.942" y="9.417"><feFlood flood-opacity="0" result="BackgroundImageFix"/><feBlend in="SourceGraphic" in2="BackgroundImageFix" mode="normal" result="shape"/><feColorMatrix in="SourceAlpha" result="hardAlpha" type="matrix" values="0 0 0 0 0 0 0 0 0 0 0 0 0 0 0 0 0 0 127 0"/><feOffset dx=".25" dy="-.4"/><feGaussianBlur stdDeviation=".3"/><feComposite in2="hardAlpha" k2="-1" k3="1" operator="arithmetic"/><feColorMatrix type="matrix" values="0 0 0 0 0.0431373 0 0 0 0 0.0196078 0 0 0 0 0.027451 0 0 0 1 0"/><feBlend in2="shape" mode="normal" result="effect1_innerShadow_4002_4196"/></filter><filter id="v" color-interpolation-filters="sRGB" filterUnits="userSpaceOnUse" height=".678" width=".719" x="16.99" y="11.487"><feFlood flood-opacity="0" result="BackgroundImageFix"/><feBlend in="SourceGraphic" in2="BackgroundImageFix" mode="normal" result="shape"/><feGaussianBlur result="effect1_foregroundBlur_4002_4196" stdDeviation=".05"/></filter><filter id="w" color-interpolation-filters="sRGB" filterUnits="userSpaceOnUse" height=".879" width=".861" x="17.754" y="11.499"><feFlood flood-opacity="0" result="BackgroundImageFix"/><feBlend in="SourceGraphic" in2="BackgroundImageFix" mode="normal" result="shape"/><feGaussianBlur result="effect1_foregroundBlur_4002_4196" stdDeviation=".1"/></filter><filter id="x" color-interpolation-filters="sRGB" filterUnits="userSpaceOnUse" height=".993" width=".953" x="13.689" y="11.73"><feFlood flood-opacity="0" result="BackgroundImageFix"/><feBlend in="SourceGraphic" in2="BackgroundImageFix" mode="normal" result="shape"/><feGaussianBlur result="effect1_foregroundBlur_4002_4196" stdDeviation=".1"/></filter><filter id="y" color-interpolation-filters="sRGB" filterUnits="userSpaceOnUse" height=".688" width=".836" x="13.007" y="11.759"><feFlood flood-opacity="0" result="BackgroundImageFix"/><feBlend in="SourceGraphic" in2="BackgroundImageFix" mode="normal" result="shape"/><feGaussianBlur result="effect1_foregroundBlur_4002_4196" stdDeviation=".05"/></filter><filter id="z" color-interpolation-filters="sRGB" filterUnits="userSpaceOnUse" height="1.507" width="2.917" x="16.45" y="9.261"><feFlood flood-opacity="0" result="BackgroundImageFix"/><feBlend in="SourceGraphic" in2="BackgroundImageFix" mode="normal" result="shape"/><feGaussianBlur result="effect1_foregroundBlur_4002_4196" stdDeviation=".25"/></filter><filter id="A" color-interpolation-filters="sRGB" filterUnits="userSpaceOnUse" height="1.75" width="2.932" x="11.713" y="9.592"><feFlood flood-opacity="0" result="BackgroundImageFix"/><feBlend in="SourceGraphic" in2="BackgroundImageFix" mode="normal" result="shape"/><feGaussianBlur result="effect1_foregroundBlur_4002_4196" stdDeviation=".25"/></filter><filter id="B" color-interpolation-filters="sRGB" filterUnits="userSpaceOnUse" height="2.156" width=".945" x="10.75" y="8.177"><feFlood flood-opacity="0" result="BackgroundImageFix"/><feBlend in="SourceGraphic" in2="BackgroundImageFix" mode="normal" result="shape"/><feGaussianBlur result="effect1_foregroundBlur_4002_4196" stdDeviation=".125"/></filter><filter id="C" color-interpolation-filters="sRGB" filterUnits="userSpaceOnUse" height="1.911" width="1.869" x="15.012" y="14.899"><feFlood flood-opacity="0" result="BackgroundImageFix"/><feBlend in="SourceGraphic" in2="BackgroundImageFix" mode="normal" result="shape"/><feGaussianBlur result="effect1_foregroundBlur_4002_4196" stdDeviation=".05"/></filter><linearGradient id="D"><stop offset="0" stop-color="#e3ad95"/><stop offset=".711" stop-color="#d1a38b"/></linearGradient><linearGradient id="E" gradientUnits="userSpaceOnUse" x1="3.956" x2="6.136" xlink:href="#D" y1="12.842" y2="13.291"/><linearGradient id="F"><stop offset=".399" stop-color="#d48e86" stop-opacity="0"/><stop offset=".85" stop-color="#d48e86"/></linearGradient><radialGradient id="G" cx="0" cy="0" gradientTransform="matrix(-.62170565 1.72505877 -3.88087657 -1.39865547 5.19736 12.6782)" gradientUnits="userSpaceOnUse" r="1" xlink:href="#F"/><linearGradient id="H"><stop offset="0" stop-color="#eab7a5"/><stop offset="1" stop-color="#eab7a5" stop-opacity="0"/></linearGradient><linearGradient id="I" gradientUnits="userSpaceOnUse" x1="4.263" x2="6.419" xlink:href="#H" y1="11.95" y2="14.099"/><linearGradient id="J" gradientUnits="userSpaceOnUse" x1="2.841" x2="4.814" xlink:href="#D" y1="13.286" y2="13.618"/><radialGradient id="K" cx="0" cy="0" gradientTransform="matrix(-.55512944 1.88628957 -3.60342244 -1.06047656 3.94906 13.107)" gradientUnits="userSpaceOnUse" r="1" xlink:href="#F"/><linearGradient id="L" gradientUnits="userSpaceOnUse" x1="3.195" x2="5.606" xlink:href="#H" y1="12.22" y2="14.433"/><linearGradient id="M" gradientUnits="userSpaceOnUse" x1="2.914" x2="5.146" xlink:href="#D" y1="14.143" y2="14.627"/><radialGradient id="N" cx="0" cy="0" gradientTransform="matrix(-.63930825 1.68591528 -3.94231109 -1.49494582 4.19025 13.9829)" gradientUnits="userSpaceOnUse" r="1" xlink:href="#F"/><linearGradient id="O" gradientUnits="userSpaceOnUse" x1="3.12" x2="5.711" xlink:href="#H" y1="13.211" y2="15.21"/><linearGradient id="P" gradientUnits="userSpaceOnUse" x1="3.228" x2="5.435" xlink:href="#D" y1="15.016" y2="15.56"/><radialGradient id="Q" cx="0" cy="0" gradientTransform="matrix(-.64062335 1.48565466 -3.80999912 -1.64289485 4.50686 14.8746)" gradientUnits="userSpaceOnUse" r="1" xlink:href="#F"/><linearGradient id="R" gradientUnits="userSpaceOnUse" x1="8.755" x2="7.914" y1="15.494" y2="15.494"><stop offset=".005" stop-color="#c29684"/><stop offset="1" stop-color="#c29684" stop-opacity="0"/></linearGradient><radialGradient id="S" cx="0" cy="0" gradientTransform="matrix(-.52137985 .86916434 -1.02150714 -.61276472 7.05646 11.261)" gradientUnits="userSpaceOnUse" r="1"><stop offset="0" stop-color="#d9ab93"/><stop offset="1" stop-color="#d9ab93" stop-opacity="0"/></radialGradient><radialGradient id="T" cx="0" cy="0" gradientTransform="matrix(-2.70312 0 0 -.657156 6.91314 16.4173)" gradientUnits="userSpaceOnUse" r="1"><stop offset=".217" stop-color="#d18e72"/><stop offset="1" stop-color="#d18e72" stop-opacity="0"/></radialGradient><radialGradient id="U" cx="0" cy="0" gradientTransform="matrix(1.9616991 1.35887679 -2.20403645 3.18178687 5.13189 13.6793)" gradientUnits="userSpaceOnUse" r="1"><stop offset="0" stop-color="#d9a793"/><stop offset="1" stop-color="#d5a288" stop-opacity="0"/></radialGradient><radialGradient id="V" cx="0" cy="0" gradientTransform="matrix(.1953138 -1.22656683 .62599625 .09968125 26.1318 13.2262)" gradientUnits="userSpaceOnUse" r="1"><stop offset="0" stop-color="#daa890"/><stop offset="1" stop-color="#daa890" stop-opacity="0"/></radialGradient><radialGradient id="W" cx="0" cy="0" gradientTransform="matrix(.60156296 -.63281262 .3758035 .3572455 26.1396 11.5777)" gradientUnits="userSpaceOnUse" r="1"><stop offset=".288" stop-color="#f9cdb6"/><stop offset="1" stop-color="#f9cdb6" stop-opacity="0"/></radialGradient><linearGradient id="X"><stop offset="0" stop-color="#f0c2aa"/><stop offset="1" stop-color="#f2bea6"/></linearGradient><linearGradient id="Y" gradientUnits="userSpaceOnUse" x1="28.391" x2="25.698" xlink:href="#X" y1="13.651" y2="13.61"/><linearGradient id="Z"><stop offset=".674" stop-color="#d9a096" stop-opacity="0"/><stop offset="1" stop-color="#d9a096"/></linearGradient><radialGradient id="aa" cx="0" cy="0" gradientTransform="matrix(1.30134592 1.81965929 -3.16879263 2.26619092 26.7494 12.2433)" gradientUnits="userSpaceOnUse" r="1" xlink:href="#Z"/><linearGradient id="ab"><stop offset="0" stop-color="#fbcebb"/><stop offset="1" stop-color="#fbcebb" stop-opacity="0"/></linearGradient><radialGradient id="ac" cx="0" cy="0" gradientTransform="matrix(.54588167 -.47663262 .2643857 .30279781 28.7031 11.9525)" gradientUnits="userSpaceOnUse" r="1" xlink:href="#ab"/><linearGradient id="ad"><stop offset="0" stop-color="#dea98c"/><stop offset="1" stop-color="#dea98c" stop-opacity="0"/></linearGradient><radialGradient id="ae" cx="0" cy="0" gradientTransform="matrix(.93521578 1.28124636 -1.5379221 1.12257023 27.1311 12.1255)" gradientUnits="userSpaceOnUse" r="1" xlink:href="#ad"/><linearGradient id="af" gradientUnits="userSpaceOnUse" x1="29.464" x2="26.92" xlink:href="#X" y1="14.173" y2="14.14"/><radialGradient id="ag" cx="0" cy="0" gradientTransform="matrix(.67309345 2.36393072 -3.64372276 1.03749484 27.913 12.6322)" gradientUnits="userSpaceOnUse" r="1" xlink:href="#Z"/><radialGradient id="ah" cx="0" cy="0" gradientTransform="matrix(.51555906 -.52165252 .29200384 .28859293 29.7582 12.3139)" gradientUnits="userSpaceOnUse" r="1" xlink:href="#ab"/><radialGradient id="ai" cx="0" cy="0" gradientTransform="matrix(1.3749969 1.70312153 -1.31572556 1.06223691 27.5976 12.6411)" gradientUnits="userSpaceOnUse" r="1" xlink:href="#ad"/><linearGradient id="aj" gradientUnits="userSpaceOnUse" x1="29.437" x2="26.667" xlink:href="#X" y1="14.934" y2="14.89"/><radialGradient id="ak" cx="0" cy="0" gradientTransform="matrix(.73288139 2.11090497 -3.82765016 1.32891513 27.7483 13.5579)" gradientUnits="userSpaceOnUse" r="1" xlink:href="#Z"/><radialGradient id="al" cx="0" cy="0" gradientTransform="matrix(.56135379 -.46581655 .2562938 .30885871 29.7575 13.2737)" gradientUnits="userSpaceOnUse" r="1" xlink:href="#ab"/><radialGradient id="am" cx="0" cy="0" gradientTransform="matrix(.75356664 1.04687799 -1.35296577 .9738956 28.1409 13.4223)" gradientUnits="userSpaceOnUse" r="1" xlink:href="#ad"/><linearGradient id="an" gradientUnits="userSpaceOnUse" x1="29.123" x2="26.348" xlink:href="#X" y1="15.713" y2="15.662"/><radialGradient id="ao" cx="0" cy="0" gradientTransform="matrix(.73437378 1.86015461 -3.71825361 1.46793602 27.4311 14.5001)" gradientUnits="userSpaceOnUse" r="1" xlink:href="#Z"/><radialGradient id="ap" cx="0" cy="0" gradientTransform="matrix(.56249979 -.41048424 .21884024 .29988384 29.4444 14.2496)" gradientUnits="userSpaceOnUse" r="1" xlink:href="#ab"/><radialGradient id="aq" cx="0" cy="0" gradientTransform="matrix(.42187574 .76562511 -.90043146 .4961569 28.1319 14.2027)" gradientUnits="userSpaceOnUse" r="1" xlink:href="#ad"/><linearGradient id="ar" gradientUnits="userSpaceOnUse" x1="3.408" x2="6.216" xlink:href="#H" y1="14.238" y2="15.919"/><radialGradient id="as" cx="0" cy="0" gradientTransform="matrix(0 1.94297 -2.39063 0 26.2033 16.2463)" gradientUnits="userSpaceOnUse" r="1"><stop offset="0" stop-color="#47adf9"/><stop offset="1" stop-color="#308bdb"/></radialGradient><linearGradient id="at" gradientUnits="userSpaceOnUse" x1="23.662" x2="24.149" y1="17.229" y2="17.221"><stop offset="0" stop-color="#257fbf"/><stop offset="1" stop-color="#257fbf" stop-opacity="0"/></linearGradient><linearGradient id="au" gradientUnits="userSpaceOnUse" x1="7.031" x2="9.719" y1="16.937" y2="16.937"><stop offset="0" stop-color="#4a9ee0"/><stop offset="1" stop-color="#227bc3"/></linearGradient><radialGradient id="av" cx="0" cy="0" gradientTransform="matrix(0 1.14902 -.689942 0 7.5625 16.4778)" gradientUnits="userSpaceOnUse" r="1"><stop offset="0" stop-color="#3990dd"/><stop offset="1" stop-color="#3990dd" stop-opacity="0"/></radialGradient><linearGradient id="aw" gradientUnits="userSpaceOnUse" x1="6.873" x2="6.873" y1="16.246" y2="16.509"><stop offset="0" stop-color="#3481c0"/><stop offset="1" stop-color="#3481c0" stop-opacity="0"/></linearGradient><radialGradient id="ax" cx="0" cy="0" gradientTransform="matrix(0 -16.4411 10.6867 0 19.9211 29.2314)" gradientUnits="userSpaceOnUse" r="1"><stop offset=".155" stop-color="#3cb2ff"/><stop offset="1" stop-color="#2d92df"/></radialGradient><radialGradient id="ay" cx="0" cy="0" gradientTransform="matrix(-3.01666384 3.53393256 -1.57188995 -1.3418093 9.81271 19.8456)" gradientUnits="userSpaceOnUse" r="1"><stop offset=".106" stop-color="#1f74b9"/><stop offset="1" stop-color="#51aaff" stop-opacity="0"/><stop offset="1" stop-color="#1f74b9" stop-opacity="0"/></radialGradient><radialGradient id="az" cx="0" cy="0" gradientTransform="matrix(0 7.46944 -4.08022 0 27.0148 16.7932)" gradientUnits="userSpaceOnUse" r="1"><stop offset="0" stop-color="#43beff"/><stop offset="1" stop-color="#43beff" stop-opacity="0"/></radialGradient><radialGradient id="aA" cx="0" cy="0" gradientTransform="matrix(-2.23439384 3.4089252 -.45438397 -.29782781 9.71896 19.9706)" gradientUnits="userSpaceOnUse" r="1"><stop offset="0" stop-color="#389bfa"/><stop offset="1" stop-color="#389bfa" stop-opacity="0"/></radialGradient><radialGradient id="aB" cx="0" cy="0" gradientTransform="matrix(-5.6875309 3.4062094 -1.54200916 -2.57477557 14.4221 17.7206)" gradientUnits="userSpaceOnUse" r="1"><stop offset=".066" stop-color="#28699c"/><stop offset="1" stop-color="#28699c" stop-opacity="0"/></radialGradient><radialGradient id="aC" cx="0" cy="0" gradientTransform="matrix(2.06249536 2.17782763 -3.30429745 3.12931018 15.5937 17.9562)" gradientUnits="userSpaceOnUse" r="1"><stop offset=".118" stop-color="#d09b9a"/><stop offset="1" stop-color="#f9c7b7"/></radialGradient><linearGradient id="aD" gradientUnits="userSpaceOnUse" x1="13.125" x2="15.688" y1="19.634" y2="19.634"><stop offset="0" stop-color="#c59d96"/><stop offset="1" stop-color="#c59d96" stop-opacity="0"/></linearGradient><linearGradient id="aE" gradientUnits="userSpaceOnUse" x1="9.86" x2="12.86" y1="25.965" y2="20.309"><stop offset="0" stop-color="#1a7ad4"/><stop offset="1" stop-color="#1a7ad4" stop-opacity="0"/></linearGradient><linearGradient id="aF" gradientUnits="userSpaceOnUse" x1="25.449" x2="21.21" y1="26.05" y2="21.337"><stop offset="0" stop-color="#1e72ff"/><stop offset="1" stop-color="#1e72ff" stop-opacity="0"/></linearGradient><radialGradient id="aG" cx="0" cy="0" gradientTransform="matrix(1.60823 0 0 2.81441 9.84985 12.9635)" gradientUnits="userSpaceOnUse" r="1"><stop offset=".351" stop-color="#cf9888"/><stop offset="1" stop-color="#be8c77"/></radialGradient><linearGradient id="aH" gradientUnits="userSpaceOnUse" x1="11.38" x2="10.793" y1="13.219" y2="13.219"><stop offset="0" stop-color="#ba7c6b"/><stop offset="1" stop-color="#be8474"/></linearGradient><linearGradient id="aI" gradientUnits="userSpaceOnUse" x1="21.072" x2="20.321" y1="11.34" y2="13.665"><stop offset="0" stop-color="#fbd3bd"/><stop offset="1" stop-color="#f0b8a4"/></linearGradient><radialGradient id="aJ" cx="0" cy="0" gradientTransform="matrix(.75762474 -.55166779 .62965994 .8647341 20.4169 12.0978)" gradientUnits="userSpaceOnUse" r="1"><stop offset=".543" stop-color="#d9aa94"/><stop offset="1" stop-color="#d9aa94" stop-opacity="0"/></radialGradient><radialGradient id="aK" cx="0" cy="0" gradientTransform="matrix(.75263964 -1.38431664 .81024373 .44052172 20.038 13.0931)" gradientUnits="userSpaceOnUse" r="1"><stop offset=".755" stop-color="#d6a38d" stop-opacity="0"/><stop offset=".916" stop-color="#d6a38d"/></radialGradient><radialGradient id="aL" cx="0" cy="0" gradientTransform="matrix(.23762277 .23521055 -.30321906 .30632875 20.0759 12.3404)" gradientUnits="userSpaceOnUse" r="1"><stop offset="0" stop-color="#d5a58e"/><stop offset="1" stop-color="#d5a58e" stop-opacity="0"/></radialGradient><linearGradient id="aM" gradientUnits="userSpaceOnUse" x1="19.435" x2="12.528" y1="12.744" y2="14.285"><stop offset="0" stop-color="#ffdac0"/><stop offset="1" stop-color="#daa594"/></linearGradient><radialGradient id="aN" cx="0" cy="0" gradientTransform="matrix(.57428987 8.01234507 -10.87629787 .77956548 15.6201 10.8909)" gradientUnits="userSpaceOnUse" r="1"><stop offset=".487" stop-color="#e0ad9b" stop-opacity="0"/><stop offset="1" stop-color="#a77d91"/></radialGradient><linearGradient id="aO" gradientUnits="userSpaceOnUse" x1="10.688" x2="13.765" y1="14.774" y2="14.658"><stop offset="0" stop-color="#a58787"/><stop offset="1" stop-color="#dead9d" stop-opacity="0"/></linearGradient><linearGradient id="aP" gradientUnits="userSpaceOnUse" x1="10.99" x2="12.705" y1="15.826" y2="15.642"><stop offset="0" stop-color="#e8ad97"/><stop offset="1" stop-color="#e8ad97" stop-opacity="0"/></linearGradient><radialGradient id="aQ" cx="0" cy="0" gradientTransform="matrix(-.08563767 -1.19479486 1.47051752 -.10540027 17.7811 11.3365)" gradientUnits="userSpaceOnUse" r="1"><stop offset="0" stop-color="#f5b7a7"/><stop offset="1" stop-color="#f5b7a7" stop-opacity="0"/></radialGradient><radialGradient id="aR" cx="0" cy="0" gradientTransform="matrix(-.09112756 -1.27138837 1.58108388 -.11332518 13.6125 11.6045)" gradientUnits="userSpaceOnUse" r="1"><stop offset="0" stop-color="#d0958d"/><stop offset="1" stop-color="#d0958d" stop-opacity="0"/></radialGradient><linearGradient id="aS" gradientUnits="userSpaceOnUse" x1="15.064" x2="22.317" y1="10.315" y2="7.116"><stop offset="0" stop-color="#ffdec4"/><stop offset="1" stop-color="#ffdec4" stop-opacity="0"/></linearGradient><radialGradient id="aT" cx="0" cy="0" gradientTransform="matrix(.53556894 -2.75490397 1.02160401 .19860561 19.4226 8.61546)" gradientUnits="userSpaceOnUse" r="1"><stop offset="0" stop-color="#464344"/><stop offset="1" stop-color="#464344" stop-opacity="0"/></radialGradient><radialGradient id="aU" cx="0" cy="0" gradientTransform="matrix(3.51932094 .07114575 -.03825476 1.89232337 17.8059 7.11437)" gradientUnits="userSpaceOnUse" r="1"><stop offset=".122" stop-color="#4a4648"/><stop offset="1" stop-color="#4a4648" stop-opacity="0"/></radialGradient><radialGradient id="aV" cx="0" cy="0" gradientTransform="matrix(.11001652 1.5349223 -2.37717159 .17038527 15.1563 4.79129)" gradientUnits="userSpaceOnUse" r="1"><stop offset="0" stop-color="#423d3f"/><stop offset="1" stop-color="#423d3f" stop-opacity="0"/></radialGradient><radialGradient id="aW" cx="0" cy="0" gradientTransform="matrix(2.66229265 -2.26055377 3.54153964 4.1709315 9.70809 11.4462)" gradientUnits="userSpaceOnUse" r="1"><stop offset="0" stop-color="#463c39"/><stop offset="1" stop-color="#463c39" stop-opacity="0"/></radialGradient><linearGradient id="aX" gradientUnits="userSpaceOnUse" x1="14.999" x2="15.856" y1="13.668" y2="13.607"><stop offset="0" stop-color="#dfa790"/><stop offset="1" stop-color="#dfa790" stop-opacity="0"/></linearGradient><linearGradient id="aY" gradientUnits="userSpaceOnUse" x1="16.668" x2="15.729" y1="13.845" y2="13.899"><stop offset="0" stop-color="#ffdfc4"/><stop offset="1" stop-color="#ffdfc4" stop-opacity="0"/></linearGradient><linearGradient id="aZ" gradientUnits="userSpaceOnUse" x1="16.036" x2="15.999" y1="14.572" y2="14.048"><stop offset="0" stop-color="#dc9c96"/><stop offset="1" stop-color="#dc9c96" stop-opacity="0"/></linearGradient><radialGradient id="a0" cx="0" cy="0" gradientTransform="matrix(.01290056 .17998526 -.57825055 .04144647 16.1243 14.0999)" gradientUnits="userSpaceOnUse" r="1"><stop offset="0" stop-color="#ffd7c1"/><stop offset="1" stop-color="#ffd7c1" stop-opacity="0"/></radialGradient><linearGradient id="a1" gradientUnits="userSpaceOnUse" x1="15.976" x2="15.965" y1="14.615" y2="14.462"><stop offset="0" stop-color="#d6938e"/><stop offset="1" stop-color="#d6938e" stop-opacity="0"/></linearGradient><linearGradient id="a2"><stop offset=".802" stop-color="#7d574a"/><stop offset="1" stop-color="#694b43"/><stop offset="1" stop-color="#804d49"/><stop offset="1" stop-color="#664944"/></linearGradient><radialGradient id="a3" cx="0" cy="0" gradientTransform="matrix(.05314403 .74145187 -1.17936445 .08453169 17.6668 11.8864)" gradientUnits="userSpaceOnUse" r="1" xlink:href="#a2"/><linearGradient id="a4"><stop offset=".766" stop-color="#ffe6e2" stop-opacity="0"/><stop offset=".966" stop-color="#ffe6e2"/></linearGradient><radialGradient id="a5" cx="0" cy="0" gradientTransform="matrix(-.2317975 -.25824277 .35553805 -.31912927 17.4645 11.9783)" gradientUnits="userSpaceOnUse" r="1" xlink:href="#a4"/><linearGradient id="a6"><stop offset="0" stop-color="#b4948d"/><stop offset="1" stop-color="#b4948d" stop-opacity="0"/></linearGradient><linearGradient id="a7" gradientUnits="userSpaceOnUse" x1="18.382" x2="18.107" xlink:href="#a6" y1="11.885" y2="12.082"/><radialGradient id="a8" cx="0" cy="0" gradientTransform="matrix(.05314675 .74148978 -1.1794243 .08453598 13.6786 12.1723)" gradientUnits="userSpaceOnUse" r="1" xlink:href="#a2"/><linearGradient id="a9" gradientUnits="userSpaceOnUse" x1="14.363" x2="14.088" xlink:href="#a6" y1="12.173" y2="12.37"/><radialGradient id="ba" cx="0" cy="0" gradientTransform="matrix(-.0070963 -.45323845 .54481123 -.00853005 13.411 12.3915)" gradientUnits="userSpaceOnUse" r="1" xlink:href="#a4"/><linearGradient id="bb"><stop offset="0" stop-color="#353435"/><stop offset="1" stop-color="#353435" stop-opacity="0"/></linearGradient><linearGradient id="bc" gradientUnits="userSpaceOnUse" x1="18.256" x2="17.815" xlink:href="#bb" y1="9.928" y2="9.171"/><linearGradient id="bd" gradientUnits="userSpaceOnUse" x1="13.398" x2="12.278" xlink:href="#bb" y1="10.159" y2="9.781"/><linearGradient id="be" gradientUnits="userSpaceOnUse" x1="11.137" x2="11.278" y1="8.47" y2="10.441"><stop offset="0" stop-color="#3c393a"/><stop offset="1" stop-color="#3c393a" stop-opacity="0"/></linearGradient><linearGradient id="bf" gradientUnits="userSpaceOnUse" x1="15.582" x2="15.899" y1="16.61" y2="15.475"><stop offset="0" stop-color="#e7b5ad"/><stop offset="1" stop-color="#e7b5ad" stop-opacity="0"/></linearGradient><path clip-rule="evenodd" d="m3.53269 11.6086c.31328-.2265.75088-.1562.9774.1571.0445.0616.08806.1364.1151.1829.00202.0035.00394.0068.00577.0099l.00098.0017c.0336.0576.06617.1135.10474.1741.07666.1205.17068.2491.29385.3698.23257.228.60749.4678 1.2667.5.38614.0188.68392.347.6651.7332-.01881.3861-.34709.6839-.73323.6651-1.02439-.0499-1.71783-.4468-2.17862-.8985-.22351-.2191-.38242-.4411-.49497-.618-.05342-.084-.09779-.1601-.13005-.2155-.00135-.0023-.00269-.0046-.004-.0068-.02849-.0489-.0406-.0688-.04455-.0753-.00162-.0026-.00186-.003-.00131-.0023-.22652-.3132-.15619-.7508.15709-.9774z" fill="url(#E)" fill-rule="evenodd"/><path clip-rule="evenodd" d="m3.53269 11.6086c.31328-.2265.75088-.1562.9774.1571.0445.0616.08806.1364.1151.1829.00202.0035.00394.0068.00577.0099l.00098.0017c.0336.0576.06617.1135.10474.1741.07666.1205.17068.2491.29385.3698.23257.228.60749.4678 1.2667.5.38614.0188.68392.347.6651.7332-.01881.3861-.34709.6839-.73323.6651-1.02439-.0499-1.71783-.4468-2.17862-.8985-.22351-.2191-.38242-.4411-.49497-.618-.05342-.084-.09779-.1601-.13005-.2155-.00135-.0023-.00269-.0046-.004-.0068-.02849-.0489-.0406-.0688-.04455-.0753-.00162-.0026-.00186-.003-.00131-.0023-.22652-.3132-.15619-.7508.15709-.9774z" fill="url(#G)" fill-rule="evenodd"/><g filter="url(#a)"><path d="m4.06262 11.9954c.19604.5018 1.01755 1.3875 2.05191 1.5389" stroke="url(#I)" stroke-linecap="round" stroke-width=".6"/></g><path clip-rule="evenodd" d="m2.49362 11.925c.31329-.2265.75089-.1562.97741.1571.03401.0471.07205.1039.11493.1681.26152.391.70351 1.0519 1.51519 1.3994.3554.1521.52017.5636.36802.919-.15214.3554-.56359.5201-.91899.368-1.24565-.5333-1.93453-1.603-2.15529-1.9458-.02579-.04-.04519-.0702-.05835-.0884-.22653-.3132-.1562-.7508.15708-.9774z" fill="url(#J)" fill-rule="evenodd"/><path clip-rule="evenodd" d="m2.49362 11.925c.31329-.2265.75089-.1562.97741.1571.03401.0471.07205.1039.11493.1681.26152.391.70351 1.0519 1.51519 1.3994.3554.1521.52017.5636.36802.919-.15214.3554-.56359.5201-.91899.368-1.24565-.5333-1.93453-1.603-2.15529-1.9458-.02579-.04-.04519-.0702-.05835-.0884-.22653-.3132-.1562-.7508.15708-.9774z" fill="url(#K)" fill-rule="evenodd"/><g filter="url(#b)"><path d="m2.98401 12.2756c.19604.5018.84437 1.4586 2.12707 1.7232" stroke="url(#L)" stroke-linecap="round" stroke-width=".6"/></g><path clip-rule="evenodd" d="m2.46137 12.9471c.30971-.2314.74835-.1679.97974.1418.02742.0367.05606.0766.08631.1186.30146.4192.76326 1.0613 1.7787 1.0613.3866 0 .7.3134.7.7s-.3134.7-.7.7c-1.77535 0-2.63668-1.2399-2.92436-1.6541-.02498-.0359-.04564-.0657-.06219-.0878-.23139-.3097-.1679-.7484.1418-.9798z" fill="url(#M)" fill-rule="evenodd"/><path clip-rule="evenodd" d="m2.46137 12.9471c.30971-.2314.74835-.1679.97974.1418.02742.0367.05606.0766.08631.1186.30146.4192.76326 1.0613 1.7787 1.0613.3866 0 .7.3134.7.7s-.3134.7-.7.7c-1.77535 0-2.63668-1.2399-2.92436-1.6541-.02498-.0359-.04564-.0657-.06219-.0878-.23139-.3097-.1679-.7484.1418-.9798z" fill="url(#N)" fill-rule="evenodd"/><g filter="url(#c)"><path d="m2.91406 13.2849c.23837.4831.96638 1.3807 2.26706 1.5344" stroke="url(#O)" stroke-linecap="round" stroke-width=".6"/></g><path clip-rule="evenodd" d="m2.77387 13.9784c.30971-.2314.74835-.1679.97974.1418.18099.2422.65326.84 1.87282.84.3866 0 .7.3134.7.7s-.3134.7-.7.7c-1.82731 0-2.66754-.9646-2.99436-1.4021-.23139-.3097-.1679-.7483.1418-.9797z" fill="url(#P)" fill-rule="evenodd"/><path clip-rule="evenodd" d="m2.77387 13.9784c.30971-.2314.74835-.1679.97974.1418.18099.2422.65326.84 1.87282.84.3866 0 .7.3134.7.7s-.3134.7-.7.7c-1.82731 0-2.66754-.9646-2.99436-1.4021-.23139-.3097-.1679-.7483.1418-.9797z" fill="url(#Q)" fill-rule="evenodd"/><path d="m6.01323 11.4163c.32843-.2524.79929-.1907 1.05168.1377l.80458 1.047c.36928.4805.56947 1.0696.56947 1.6757v2.1406h-3.25781v-2.4481c0-.138.11193-.25.25-.25h1.37665c-.03569-.0716-.07837-.14-.12769-.2042l-.80458-1.047c-.25239-.3284-.19075-.7993.1377-1.0517z" fill="#d1a38b"/><path d="m6.01323 11.4163c.32843-.2524.79929-.1907 1.05168.1377l.80458 1.047c.36928.4805.56947 1.0696.56947 1.6757v2.1406h-3.25781v-2.4481c0-.138.11193-.25.25-.25h1.37665c-.03569-.0716-.07837-.14-.12769-.2042l-.80458-1.047c-.25239-.3284-.19075-.7993.1377-1.0517z" fill="url(#R)"/><path d="m6.01323 11.4163c.32843-.2524.79929-.1907 1.05168.1377l.80458 1.047c.36928.4805.56947 1.0696.56947 1.6757v2.1406h-3.25781v-2.4481c0-.138.11193-.25.25-.25h1.37665c-.03569-.0716-.07837-.14-.12769-.2042l-.80458-1.047c-.25239-.3284-.19075-.7993.1377-1.0517z" fill="url(#S)"/><path d="m6.01323 11.4163c.32843-.2524.79929-.1907 1.05168.1377l.80458 1.047c.36928.4805.56947 1.0696.56947 1.6757v2.1406h-3.25781v-2.4481c0-.138.11193-.25.25-.25h1.37665c-.03569-.0716-.07837-.14-.12769-.2042l-.80458-1.047c-.25239-.3284-.19075-.7993.1377-1.0517z" fill="url(#T)"/><path d="m6.01323 11.4163c.32843-.2524.79929-.1907 1.05168.1377l.80458 1.047c.36928.4805.56947 1.0696.56947 1.6757v2.1406h-3.25781v-2.4481c0-.138.11193-.25.25-.25h1.37665c-.03569-.0716-.07837-.14-.12769-.2042l-.80458-1.047c-.25239-.3284-.19075-.7993.1377-1.0517z" fill="url(#U)"/><g filter="url(#d)"><path d="m26.2209 11.4163c-.3284-.2524-.7993-.1907-1.0517.1377l-.8046 1.047c-.3692.4805-.5694 1.0696-.5694 1.6757v2.1406h3.2578v-2.6981h-1.6267c.0357-.0716.0784-.14.1277-.2042l.8046-1.047c.2524-.3284.1907-.7993-.1377-1.0517z" fill="#f2bea6"/><path d="m26.2209 11.4163c-.3284-.2524-.7993-.1907-1.0517.1377l-.8046 1.047c-.3692.4805-.5694 1.0696-.5694 1.6757v2.1406h3.2578v-2.6981h-1.6267c.0357-.0716.0784-.14.1277-.2042l.8046-1.047c.2524-.3284.1907-.7993-.1377-1.0517z" fill="url(#V)"/><path d="m26.2209 11.4163c-.3284-.2524-.7993-.1907-1.0517.1377l-.8046 1.047c-.3692.4805-.5694 1.0696-.5694 1.6757v2.1406h3.2578v-2.6981h-1.6267c.0357-.0716.0784-.14.1277-.2042l.8046-1.047c.2524-.3284.1907-.7993-.1377-1.0517z" fill="url(#W)"/></g><g clip-rule="evenodd" fill-rule="evenodd"><path d="m28.7014 11.6086c-.3132-.2265-.7508-.1562-.9774.1571-.0445.0616-.088.1364-.1151.1829-.002.0035-.0039.0068-.0057.0099l-.001.0017c-.0336.0576-.0662.1135-.1047.1741-.0767.1205-.1707.2491-.2939.3698-.2326.228-.6075.4678-1.2667.5-.3861.0188-.6839.347-.6651.7332.0188.3861.3471.6839.7332.6651 1.0244-.0499 1.7179-.4468 2.1786-.8985.2236-.2191.3825-.4411.495-.618.0534-.084.0978-.1601.1301-.2155.0013-.0023.0027-.0046.004-.0068.0285-.0489.0406-.0688.0445-.0753.0016-.0026.0013-.0023.0013-.0023.2266-.3132.1562-.7508-.1571-.9774z" fill="url(#Y)"/><path d="m28.7014 11.6086c-.3132-.2265-.7508-.1562-.9774.1571-.0445.0616-.088.1364-.1151.1829-.002.0035-.0039.0068-.0057.0099l-.001.0017c-.0336.0576-.0662.1135-.1047.1741-.0767.1205-.1707.2491-.2939.3698-.2326.228-.6075.4678-1.2667.5-.3861.0188-.6839.347-.6651.7332.0188.3861.3471.6839.7332.6651 1.0244-.0499 1.7179-.4468 2.1786-.8985.2236-.2191.3825-.4411.495-.618.0534-.084.0978-.1601.1301-.2155.0013-.0023.0027-.0046.004-.0068.0285-.0489.0406-.0688.0445-.0753.0016-.0026.0013-.0023.0013-.0023.2266-.3132.1562-.7508-.1571-.9774z" fill="url(#aa)"/><path d="m28.7014 11.6086c-.3132-.2265-.7508-.1562-.9774.1571-.0445.0616-.088.1364-.1151.1829-.002.0035-.0039.0068-.0057.0099l-.001.0017c-.0336.0576-.0662.1135-.1047.1741-.0767.1205-.1707.2491-.2939.3698-.2326.228-.6075.4678-1.2667.5-.3861.0188-.6839.347-.6651.7332.0188.3861.3471.6839.7332.6651 1.0244-.0499 1.7179-.4468 2.1786-.8985.2236-.2191.3825-.4411.495-.618.0534-.084.0978-.1601.1301-.2155.0013-.0023.0027-.0046.004-.0068.0285-.0489.0406-.0688.0445-.0753.0016-.0026.0013-.0023.0013-.0023.2266-.3132.1562-.7508-.1571-.9774z" fill="url(#ac)"/><path d="m28.7014 11.6086c-.3132-.2265-.7508-.1562-.9774.1571-.0445.0616-.088.1364-.1151.1829-.002.0035-.0039.0068-.0057.0099l-.001.0017c-.0336.0576-.0662.1135-.1047.1741-.0767.1205-.1707.2491-.2939.3698-.2326.228-.6075.4678-1.2667.5-.3861.0188-.6839.347-.6651.7332.0188.3861.3471.6839.7332.6651 1.0244-.0499 1.7179-.4468 2.1786-.8985.2236-.2191.3825-.4411.495-.618.0534-.084.0978-.1601.1301-.2155.0013-.0023.0027-.0046.004-.0068.0285-.0489.0406-.0688.0445-.0753.0016-.0026.0013-.0023.0013-.0023.2266-.3132.1562-.7508-.1571-.9774z" fill="url(#ae)"/><path d="m29.7405 11.925c-.3133-.2265-.7509-.1562-.9774.1571-.034.0471-.072.1039-.1149.1681-.2616.391-.921 1.1134-1.7327 1.4608-.3554.1522-.5028.4488-.3203.875.1521.3554.7334.5027 1.0888.3506 1.2456-.5333 1.9345-1.603 2.1552-1.9458.0258-.04.0452-.0702.0584-.0884.2265-.3132.1562-.7508-.1571-.9774z" fill="url(#af)"/><path d="m29.7405 11.925c-.3133-.2265-.7509-.1562-.9774.1571-.034.0471-.072.1039-.1149.1681-.2616.391-.921 1.1134-1.7327 1.4608-.3554.1522-.5028.4488-.3203.875.1521.3554.7334.5027 1.0888.3506 1.2456-.5333 1.9345-1.603 2.1552-1.9458.0258-.04.0452-.0702.0584-.0884.2265-.3132.1562-.7508-.1571-.9774z" fill="url(#ag)"/><path d="m29.7405 11.925c-.3133-.2265-.7509-.1562-.9774.1571-.034.0471-.072.1039-.1149.1681-.2616.391-.921 1.1134-1.7327 1.4608-.3554.1522-.5028.4488-.3203.875.1521.3554.7334.5027 1.0888.3506 1.2456-.5333 1.9345-1.603 2.1552-1.9458.0258-.04.0452-.0702.0584-.0884.2265-.3132.1562-.7508-.1571-.9774z" fill="url(#ah)"/><path d="m29.7405 11.925c-.3133-.2265-.7509-.1562-.9774.1571-.034.0471-.072.1039-.1149.1681-.2616.391-.921 1.1134-1.7327 1.4608-.3554.1522-.5028.4488-.3203.875.1521.3554.7334.5027 1.0888.3506 1.2456-.5333 1.9345-1.603 2.1552-1.9458.0258-.04.0452-.0702.0584-.0884.2265-.3132.1562-.7508-.1571-.9774z" fill="url(#ai)"/><path d="m29.7728 12.9471c-.3097-.2314-.7484-.1679-.9798.1418-.0274.0367-.056.0766-.0863.1186-.3014.4192-.7633 1.1593-1.7787 1.1593-.3866 0-.7.2154-.7.602s.3134.7.7.7c1.7754 0 2.6367-1.2399 2.9244-1.6541.025-.0359.0456-.0657.0622-.0878.2314-.3097.1679-.7484-.1418-.9798z" fill="url(#aj)"/><path d="m29.7728 12.9471c-.3097-.2314-.7484-.1679-.9798.1418-.0274.0367-.056.0766-.0863.1186-.3014.4192-.7633 1.1593-1.7787 1.1593-.3866 0-.7.2154-.7.602s.3134.7.7.7c1.7754 0 2.6367-1.2399 2.9244-1.6541.025-.0359.0456-.0657.0622-.0878.2314-.3097.1679-.7484-.1418-.9798z" fill="url(#ak)"/><path d="m29.7728 12.9471c-.3097-.2314-.7484-.1679-.9798.1418-.0274.0367-.056.0766-.0863.1186-.3014.4192-.7633 1.1593-1.7787 1.1593-.3866 0-.7.2154-.7.602s.3134.7.7.7c1.7754 0 2.6367-1.2399 2.9244-1.6541.025-.0359.0456-.0657.0622-.0878.2314-.3097.1679-.7484-.1418-.9798z" fill="url(#al)"/><path d="m29.7728 12.9471c-.3097-.2314-.7484-.1679-.9798.1418-.0274.0367-.056.0766-.0863.1186-.3014.4192-.7633 1.1593-1.7787 1.1593-.3866 0-.7.2154-.7.602s.3134.7.7.7c1.7754 0 2.6367-1.2399 2.9244-1.6541.025-.0359.0456-.0657.0622-.0878.2314-.3097.1679-.7484-.1418-.9798z" fill="url(#am)"/><path d="m29.4603 13.9784c-.3097-.2314-.7484-.1679-.9798.1418-.181.2422-.6532.84-1.8728.84-.3866 0-.7.3134-.7.7s.3134.7.7.7c1.8273 0 2.6675-.9646 2.9944-1.4021.2314-.3097.1679-.7483-.1418-.9797z" fill="url(#an)"/><path d="m29.4603 13.9784c-.3097-.2314-.7484-.1679-.9798.1418-.181.2422-.6532.84-1.8728.84-.3866 0-.7.3134-.7.7s.3134.7.7.7c1.8273 0 2.6675-.9646 2.9944-1.4021.2314-.3097.1679-.7483-.1418-.9797z" fill="url(#ao)"/><path d="m29.4603 13.9784c-.3097-.2314-.7484-.1679-.9798.1418-.181.2422-.6532.84-1.8728.84-.3866 0-.7.3134-.7.7s.3134.7.7.7c1.8273 0 2.6675-.9646 2.9944-1.4021.2314-.3097.1679-.7483-.1418-.9797z" fill="url(#ap)"/><path d="m29.4603 13.9784c-.3097-.2314-.7484-.1679-.9798.1418-.181.2422-.6532.84-1.8728.84-.3866 0-.7.3134-.7.7s.3134.7.7.7c1.8273 0 2.6675-.9646 2.9944-1.4021.2314-.3097.1679-.7483-.1418-.9797z" fill="url(#aq)"/></g><g filter="url(#e)"><path d="m3.2124 14.3359c.2934.4519 1.12168 1.2578 2.43141 1.2578" stroke="url(#ar)" stroke-linecap="round" stroke-width=".6"/></g><path d="m27.092 16.4963c0-.138-.1119-.25-.25-.25h-2.9296c-.1381 0-.25.112-.25.25v1.318h3.4296z" fill="url(#as)"/><path d="m27.092 16.4963c0-.138-.1119-.25-.25-.25h-2.9296c-.1381 0-.25.112-.25.25v1.318h3.4296z" fill="url(#at)"/><path d="m5.15771 16.4963c0-.138.11193-.25.25-.25h2.92969c.13807 0 .25.112.25.25v1.1305h-3.42969z" fill="url(#au)"/><path d="m5.15771 16.4963c0-.138.11193-.25.25-.25h2.92969c.13807 0 .25.112.25.25v1.1305h-3.42969z" fill="url(#av)"/><path d="m5.15771 16.4963c0-.138.11193-.25.25-.25h2.92969c.13807 0 .25.112.25.25v1.1305h-3.42969z" fill="url(#aw)"/><g filter="url(#f)"><path d="m9.48386 20.725c-.16666.0965-.3753-.0238-.3753-.2164v-2.563c0-.3314-.26863-.6-.6-.6h-3.28438c-.33137 0-.6.2686-.6.6v4.2858c-.00521.849.11196 2.5072 1.48438 3.3828 1.14858.7329 2.50054.5695 3.21321.347.10129-.0316.20866.0419.20866.148v3.7066c0 .0828.06715.15.15.15h12.99397c.0828 0 .15-.0672.15-.15v-3.7066c0-.1061.1073-.1796.2086-.148.7127.2225 2.0647.3859 3.2133-.347 1.3724-.8756 1.4895-2.5338 1.4843-3.3828v-4.2858c0-.3314-.2686-.6-.6-.6h-3.2843c-.3314 0-.6.2686-.6.6v2.563c0 .1926-.2087.3129-.3753.2164l-6.6936-3.9318z" fill="url(#ax)"/><path d="m9.48386 20.725c-.16666.0965-.3753-.0238-.3753-.2164v-2.563c0-.3314-.26863-.6-.6-.6h-3.28438c-.33137 0-.6.2686-.6.6v4.2858c-.00521.849.11196 2.5072 1.48438 3.3828 1.14858.7329 2.50054.5695 3.21321.347.10129-.0316.20866.0419.20866.148v3.7066c0 .0828.06715.15.15.15h12.99397c.0828 0 .15-.0672.15-.15v-3.7066c0-.1061.1073-.1796.2086-.148.7127.2225 2.0647.3859 3.2133-.347 1.3724-.8756 1.4895-2.5338 1.4843-3.3828v-4.2858c0-.3314-.2686-.6-.6-.6h-3.2843c-.3314 0-.6.2686-.6.6v2.563c0 .1926-.2087.3129-.3753.2164l-6.6936-3.9318z" fill="url(#ay)"/><path d="m9.48386 20.725c-.16666.0965-.3753-.0238-.3753-.2164v-2.563c0-.3314-.26863-.6-.6-.6h-3.28438c-.33137 0-.6.2686-.6.6v4.2858c-.00521.849.11196 2.5072 1.48438 3.3828 1.14858.7329 2.50054.5695 3.21321.347.10129-.0316.20866.0419.20866.148v3.7066c0 .0828.06715.15.15.15h12.99397c.0828 0 .15-.0672.15-.15v-3.7066c0-.1061.1073-.1796.2086-.148.7127.2225 2.0647.3859 3.2133-.347 1.3724-.8756 1.4895-2.5338 1.4843-3.3828v-4.2858c0-.3314-.2686-.6-.6-.6h-3.2843c-.3314 0-.6.2686-.6.6v2.563c0 .1926-.2087.3129-.3753.2164l-6.6936-3.9318z" fill="url(#az)"/><path d="m9.48386 20.725c-.16666.0965-.3753-.0238-.3753-.2164v-2.563c0-.3314-.26863-.6-.6-.6h-3.28438c-.33137 0-.6.2686-.6.6v4.2858c-.00521.849.11196 2.5072 1.48438 3.3828 1.14858.7329 2.50054.5695 3.21321.347.10129-.0316.20866.0419.20866.148v3.7066c0 .0828.06715.15.15.15h12.99397c.0828 0 .15-.0672.15-.15v-3.7066c0-.1061.1073-.1796.2086-.148.7127.2225 2.0647.3859 3.2133-.347 1.3724-.8756 1.4895-2.5338 1.4843-3.3828v-4.2858c0-.3314-.2686-.6-.6-.6h-3.2843c-.3314 0-.6.2686-.6.6v2.563c0 .1926-.2087.3129-.3753.2164l-6.6936-3.9318z" fill="url(#aA)"/><path d="m9.48386 20.725c-.16666.0965-.3753-.0238-.3753-.2164v-2.563c0-.3314-.26863-.6-.6-.6h-3.28438c-.33137 0-.6.2686-.6.6v4.2858c-.00521.849.11196 2.5072 1.48438 3.3828 1.14858.7329 2.50054.5695 3.21321.347.10129-.0316.20866.0419.20866.148v3.7066c0 .0828.06715.15.15.15h12.99397c.0828 0 .15-.0672.15-.15v-3.7066c0-.1061.1073-.1796.2086-.148.7127.2225 2.0647.3859 3.2133-.347 1.3724-.8756 1.4895-2.5338 1.4843-3.3828v-4.2858c0-.3314-.2686-.6-.6-.6h-3.2843c-.3314 0-.6.2686-.6.6v2.563c0 .1926-.2087.3129-.3753.2164l-6.6936-3.9318z" fill="url(#aB)"/></g><path d="m16.0253 20.8996c-1.1043 0-2-.9499-2-1.8672v-2.3584c0-.9173.8957-1.6613 2-1.6613 1.1042 0 2 .744 2 1.6613v2.3584c0 .9173-.8958 1.8672-2 1.8672z" fill="url(#aC)"/><path d="m16.0253 20.8996c-1.1043 0-2-.9499-2-1.8672v-2.3584c0-.9173.8957-1.6613 2-1.6613 1.1042 0 2 .744 2 1.6613v2.3584c0 .9173-.8958 1.8672-2 1.8672z" fill="url(#aD)"/><g filter="url(#g)"><path d="m7.35962 18.8142v3.4418c0 .8054.90338 1.2804 1.56685.8239l1.83943-1.2657" stroke="#40a1ff" stroke-linecap="square" stroke-width="1.5"/></g><g filter="url(#h)"><path d="m26.1343 18.2344v3.9905c0 .8054-.9034 1.2804-1.5669.8239l-1.8394-1.2657" stroke="#4abeff" stroke-linecap="square"/></g><g filter="url(#i)"><path d="m9.8595 25.4963c.1771-1.1458.9562-3.8812 2.6562-5.6562" stroke="url(#aE)" stroke-linecap="round" stroke-width=".3"/></g><g filter="url(#j)"><path d="m21.2097 21.9741 1.5425 3.6709c1.2064.4395 2.5334.2025 2.8436 0z" fill="url(#aF)"/></g><g filter="url(#k)"><circle cx="11.38" cy="12.963" fill="url(#aG)" r="1.53" transform="matrix(.99744117 -.07149205 .07149205 .99744117 -.897668 .846737)"/></g><g filter="url(#l)"><circle cx="11.38" cy="12.964" fill="url(#aH)" r=".912" transform="matrix(.99744117 -.07149205 .07149205 .99744117 -.897682 .846737)"/></g><g filter="url(#m)"><circle cx="20.076" cy="12.341" fill="url(#aI)" r="1.53" transform="matrix(.99744117 -.07149205 .07149205 .99744117 -.830877 1.466844)"/><circle cx="20.076" cy="12.341" fill="url(#aJ)" r="1.53" transform="matrix(.99744117 -.07149205 .07149205 .99744117 -.830877 1.466844)"/></g><g filter="url(#n)"><circle cx="20.076" cy="12.34" fill="#e4af9a" r=".912" transform="matrix(.99744117 -.07149205 .07149205 .99744117 -.83087 1.466844)"/><circle cx="20.076" cy="12.34" fill="url(#aK)" r=".912" transform="matrix(.99744117 -.07149205 .07149205 .99744117 -.83087 1.466844)"/><circle cx="20.076" cy="12.34" fill="url(#aL)" r=".912" transform="matrix(.99744117 -.07149205 .07149205 .99744117 -.83087 1.466844)"/></g><g filter="url(#o)"><path d="m10.8706 11.1155c-.0175-.2437.0596-.5433.2453-.7036l.1366-.1568c.2312-.2126.3083-.51211.2873-.80463l-.0559-.78004c-.0175-.24376.1156-.44931.3573-.51563.5779-.18843 1.7862-.52006 3.5513-.64657 1.7652-.12652 3.0084.02938 3.6073.13347.1996.03469.4097.21565.4272.45941l.0559.78004c.021.29251.189.57448.3991.75543.482.28871.4662.46762.4552.84942-.0141.4911-.0037 1.3234-.0037 1.3234.0055-.0004.011-.0009.0165-.0014l.0164 3.6358c-.0308 1.6281-1.2217 2.8466-2.7379 2.9553l-2.9346.2103c-1.5651.1122-2.8687-.9275-3.1313-2.5346-.2465-1.6513-.4216-3.3126-.692-4.9593z" fill="url(#aM)"/><path d="m10.8706 11.1155c-.0175-.2437.0596-.5433.2453-.7036l.1366-.1568c.2312-.2126.3083-.51211.2873-.80463l-.0559-.78004c-.0175-.24376.1156-.44931.3573-.51563.5779-.18843 1.7862-.52006 3.5513-.64657 1.7652-.12652 3.0084.02938 3.6073.13347.1996.03469.4097.21565.4272.45941l.0559.78004c.021.29251.189.57448.3991.75543.482.28871.4662.46762.4552.84942-.0141.4911-.0037 1.3234-.0037 1.3234.0055-.0004.011-.0009.0165-.0014l.0164 3.6358c-.0308 1.6281-1.2217 2.8466-2.7379 2.9553l-2.9346.2103c-1.5651.1122-2.8687-.9275-3.1313-2.5346-.2465-1.6513-.4216-3.3126-.692-4.9593z" fill="url(#aN)"/><path d="m10.8706 11.1155c-.0175-.2437.0596-.5433.2453-.7036l.1366-.1568c.2312-.2126.3083-.51211.2873-.80463l-.0559-.78004c-.0175-.24376.1156-.44931.3573-.51563.5779-.18843 1.7862-.52006 3.5513-.64657 1.7652-.12652 3.0084.02938 3.6073.13347.1996.03469.4097.21565.4272.45941l.0559.78004c.021.29251.189.57448.3991.75543.482.28871.4662.46762.4552.84942-.0141.4911-.0037 1.3234-.0037 1.3234.0055-.0004.011-.0009.0165-.0014l.0164 3.6358c-.0308 1.6281-1.2217 2.8466-2.7379 2.9553l-2.9346.2103c-1.5651.1122-2.8687-.9275-3.1313-2.5346-.2465-1.6513-.4216-3.3126-.692-4.9593z" fill="url(#aO)"/><path d="m10.8706 11.1155c-.0175-.2437.0596-.5433.2453-.7036l.1366-.1568c.2312-.2126.3083-.51211.2873-.80463l-.0559-.78004c-.0175-.24376.1156-.44931.3573-.51563.5779-.18843 1.7862-.52006 3.5513-.64657 1.7652-.12652 3.0084.02938 3.6073.13347.1996.03469.4097.21565.4272.45941l.0559.78004c.021.29251.189.57448.3991.75543.482.28871.4662.46762.4552.84942-.0141.4911-.0037 1.3234-.0037 1.3234.0055-.0004.011-.0009.0165-.0014l.0164 3.6358c-.0308 1.6281-1.2217 2.8466-2.7379 2.9553l-2.9346.2103c-1.5651.1122-2.8687-.9275-3.1313-2.5346-.2465-1.6513-.4216-3.3126-.692-4.9593z" fill="url(#aP)"/><path d="m10.8706 11.1155c-.0175-.2437.0596-.5433.2453-.7036l.1366-.1568c.2312-.2126.3083-.51211.2873-.80463l-.0559-.78004c-.0175-.24376.1156-.44931.3573-.51563.5779-.18843 1.7862-.52006 3.5513-.64657 1.7652-.12652 3.0084.02938 3.6073.13347.1996.03469.4097.21565.4272.45941l.0559.78004c.021.29251.189.57448.3991.75543.482.28871.4662.46762.4552.84942-.0141.4911-.0037 1.3234-.0037 1.3234.0055-.0004.011-.0009.0165-.0014l.0164 3.6358c-.0308 1.6281-1.2217 2.8466-2.7379 2.9553l-2.9346.2103c-1.5651.1122-2.8687-.9275-3.1313-2.5346-.2465-1.6513-.4216-3.3126-.692-4.9593z" fill="url(#aQ)"/><path d="m10.8706 11.1155c-.0175-.2437.0596-.5433.2453-.7036l.1366-.1568c.2312-.2126.3083-.51211.2873-.80463l-.0559-.78004c-.0175-.24376.1156-.44931.3573-.51563.5779-.18843 1.7862-.52006 3.5513-.64657 1.7652-.12652 3.0084.02938 3.6073.13347.1996.03469.4097.21565.4272.45941l.0559.78004c.021.29251.189.57448.3991.75543.482.28871.4662.46762.4552.84942-.0141.4911-.0037 1.3234-.0037 1.3234.0055-.0004.011-.0009.0165-.0014l.0164 3.6358c-.0308 1.6281-1.2217 2.8466-2.7379 2.9553l-2.9346.2103c-1.5651.1122-2.8687-.9275-3.1313-2.5346-.2465-1.6513-.4216-3.3126-.692-4.9593z" fill="url(#aR)"/></g><g filter="url(#p)"><path d="m18.9744 7.25173-2.7459 1.13951c-.4675.19401-.704.71777-.5403 1.19673.1565.45783.6294.72763 1.1032.62933l2.77-.57499z" fill="url(#aS)"/></g><g filter="url(#q)"><path d="m19.7003 6.41663.4063.1669c.7109.29206 1.159 1.04399 1.0713 1.88332l-.3401 2.81755c-.0276.2904-.2034.4972-.4879.5248-.0055.0005-.011.001-.0165.0014 0 0-.0104-.8324.0037-1.3234.0114-.3987-.0664-.51455-.4552-.84942-.2101-.18095-.3781-.46292-.3991-.75544l-.0559-.78004c-.0175-.24376-.2276-.42471-.4272-.45941-.5989-.10408-1.8421-.25998-3.6073-.13347-1.7651.12652-2.9734.45814-3.5513.64657-.2417.06633-.3748.27188-.3574.51564l.056.78004c.0209.29251-.0562.59203-.2874.80463l-.1366.1568c-.1856.1603-.2627.4599-.2452.7036.0874.5328.1924 1.3093.1924 1.3093-.0151.0011-.0301.0017-.045.0017-.2753.0009-.5119-.1728-.5783-.447l-.73858-2.74024c-.15397-.77301.18238-1.58116.84438-1.97163l.3783-.22312c.2346-.16383.4658-.37641.697-.58899l.8162-.98956c.5044-.52618 1.2784-.72867 1.9893-.4366.5008.11111 1.0401.07245 1.52-.10895.718-.29648 1.5655-.16121 2.1923.33289l.7879.67857c.2136.22971.4692.35839.7739.48356z" fill="#242324"/><path d="m19.7003 6.41663.4063.1669c.7109.29206 1.159 1.04399 1.0713 1.88332l-.3401 2.81755c-.0276.2904-.2034.4972-.4879.5248-.0055.0005-.011.001-.0165.0014 0 0-.0104-.8324.0037-1.3234.0114-.3987-.0664-.51455-.4552-.84942-.2101-.18095-.3781-.46292-.3991-.75544l-.0559-.78004c-.0175-.24376-.2276-.42471-.4272-.45941-.5989-.10408-1.8421-.25998-3.6073-.13347-1.7651.12652-2.9734.45814-3.5513.64657-.2417.06633-.3748.27188-.3574.51564l.056.78004c.0209.29251-.0562.59203-.2874.80463l-.1366.1568c-.1856.1603-.2627.4599-.2452.7036.0874.5328.1924 1.3093.1924 1.3093-.0151.0011-.0301.0017-.045.0017-.2753.0009-.5119-.1728-.5783-.447l-.73858-2.74024c-.15397-.77301.18238-1.58116.84438-1.97163l.3783-.22312c.2346-.16383.4658-.37641.697-.58899l.8162-.98956c.5044-.52618 1.2784-.72867 1.9893-.4366.5008.11111 1.0401.07245 1.52-.10895.718-.29648 1.5655-.16121 2.1923.33289l.7879.67857c.2136.22971.4692.35839.7739.48356z" fill="url(#aT)"/><path d="m19.7003 6.41663.4063.1669c.7109.29206 1.159 1.04399 1.0713 1.88332l-.3401 2.81755c-.0276.2904-.2034.4972-.4879.5248-.0055.0005-.011.001-.0165.0014 0 0-.0104-.8324.0037-1.3234.0114-.3987-.0664-.51455-.4552-.84942-.2101-.18095-.3781-.46292-.3991-.75544l-.0559-.78004c-.0175-.24376-.2276-.42471-.4272-.45941-.5989-.10408-1.8421-.25998-3.6073-.13347-1.7651.12652-2.9734.45814-3.5513.64657-.2417.06633-.3748.27188-.3574.51564l.056.78004c.0209.29251-.0562.59203-.2874.80463l-.1366.1568c-.1856.1603-.2627.4599-.2452.7036.0874.5328.1924 1.3093.1924 1.3093-.0151.0011-.0301.0017-.045.0017-.2753.0009-.5119-.1728-.5783-.447l-.73858-2.74024c-.15397-.77301.18238-1.58116.84438-1.97163l.3783-.22312c.2346-.16383.4658-.37641.697-.58899l.8162-.98956c.5044-.52618 1.2784-.72867 1.9893-.4366.5008.11111 1.0401.07245 1.52-.10895.718-.29648 1.5655-.16121 2.1923.33289l.7879.67857c.2136.22971.4692.35839.7739.48356z" fill="url(#aU)"/><path d="m19.7003 6.41663.4063.1669c.7109.29206 1.159 1.04399 1.0713 1.88332l-.3401 2.81755c-.0276.2904-.2034.4972-.4879.5248-.0055.0005-.011.001-.0165.0014 0 0-.0104-.8324.0037-1.3234.0114-.3987-.0664-.51455-.4552-.84942-.2101-.18095-.3781-.46292-.3991-.75544l-.0559-.78004c-.0175-.24376-.2276-.42471-.4272-.45941-.5989-.10408-1.8421-.25998-3.6073-.13347-1.7651.12652-2.9734.45814-3.5513.64657-.2417.06633-.3748.27188-.3574.51564l.056.78004c.0209.29251-.0562.59203-.2874.80463l-.1366.1568c-.1856.1603-.2627.4599-.2452.7036.0874.5328.1924 1.3093.1924 1.3093-.0151.0011-.0301.0017-.045.0017-.2753.0009-.5119-.1728-.5783-.447l-.73858-2.74024c-.15397-.77301.18238-1.58116.84438-1.97163l.3783-.22312c.2346-.16383.4658-.37641.697-.58899l.8162-.98956c.5044-.52618 1.2784-.72867 1.9893-.4366.5008.11111 1.0401.07245 1.52-.10895.718-.29648 1.5655-.16121 2.1923.33289l.7879.67857c.2136.22971.4692.35839.7739.48356z" fill="url(#aV)"/><path d="m19.7003 6.41663.4063.1669c.7109.29206 1.159 1.04399 1.0713 1.88332l-.3401 2.81755c-.0276.2904-.2034.4972-.4879.5248-.0055.0005-.011.001-.0165.0014 0 0-.0104-.8324.0037-1.3234.0114-.3987-.0664-.51455-.4552-.84942-.2101-.18095-.3781-.46292-.3991-.75544l-.0559-.78004c-.0175-.24376-.2276-.42471-.4272-.45941-.5989-.10408-1.8421-.25998-3.6073-.13347-1.7651.12652-2.9734.45814-3.5513.64657-.2417.06633-.3748.27188-.3574.51564l.056.78004c.0209.29251-.0562.59203-.2874.80463l-.1366.1568c-.1856.1603-.2627.4599-.2452.7036.0874.5328.1924 1.3093.1924 1.3093-.0151.0011-.0301.0017-.045.0017-.2753.0009-.5119-.1728-.5783-.447l-.73858-2.74024c-.15397-.77301.18238-1.58116.84438-1.97163l.3783-.22312c.2346-.16383.4658-.37641.697-.58899l.8162-.98956c.5044-.52618 1.2784-.72867 1.9893-.4366.5008.11111 1.0401.07245 1.52-.10895.718-.29648 1.5655-.16121 2.1923.33289l.7879.67857c.2136.22971.4692.35839.7739.48356z" fill="url(#aW)"/></g><g filter="url(#r)"><path d="m15.4601 12.559-.6386 1.6074c-.07.3262.176.6298.492.6072l.6739-.0483c.316-.0227.5159-.3632.4004-.6712l-.5669-1.5209c-.1222-.3372-.2833-.3256-.3608.0258z" fill="#d89992"/></g><g filter="url(#s)"><path d="m15.3518 12.417-.3743 1.5884c-.0762.3267.1846.6292.5216.605l.7186-.0515c.3371-.0241.5517-.3657.43-.6732l-.597-1.5188c-.1288-.3367-.6145-.3019-.6989.0501z" fill="#fbc4b1"/><path d="m15.3518 12.417-.3743 1.5884c-.0762.3267.1846.6292.5216.605l.7186-.0515c.3371-.0241.5517-.3657.43-.6732l-.597-1.5188c-.1288-.3367-.6145-.3019-.6989.0501z" fill="url(#aX)"/><path d="m15.3518 12.417-.3743 1.5884c-.0762.3267.1846.6292.5216.605l.7186-.0515c.3371-.0241.5517-.3657.43-.6732l-.597-1.5188c-.1288-.3367-.6145-.3019-.6989.0501z" fill="url(#aY)"/><path d="m15.3518 12.417-.3743 1.5884c-.0762.3267.1846.6292.5216.605l.7186-.0515c.3371-.0241.5517-.3657.43-.6732l-.597-1.5188c-.1288-.3367-.6145-.3019-.6989.0501z" fill="url(#aZ)"/><path d="m15.3518 12.417-.3743 1.5884c-.0762.3267.1846.6292.5216.605l.7186-.0515c.3371-.0241.5517-.3657.43-.6732l-.597-1.5188c-.1288-.3367-.6145-.3019-.6989.0501z" fill="url(#a0)"/></g><path d="m15.3518 12.417-.3743 1.5884c-.0762.3267.1846.6292.5216.605l.7186-.0515c.3371-.0241.5517-.3657.43-.6732l-.597-1.5188c-.1288-.3367-.6145-.3019-.6989.0501z" fill="url(#a1)"/><g filter="url(#t)"><path d="m18.9417 9.92267-.0012-.00085-.0018-.00128-.0043-.00305-.0116-.00793c-.009-.00607-.0206-.01367-.0346-.0225-.0281-.01765-.0664-.04032-.114-.06563-.0951-.05048-.2294-.11225-.3975-.16515-.3374-.10621-.8135-.17715-1.3748-.04682-.2631.0611-.4269.32393-.3658.58704.0611.2631.3239.4269.587.3658.3595-.0835.6555-.0373.8599.027.1029.0324.182.0693.2325.0961.0252.0134.0429.024.0524.0301.004.0025.0066.0041.0077.0049.219.1538.5216.103.6782-.1149.1576-.2193.1073-.5252-.1121-.68283z" fill="#1e1e1e"/></g><g filter="url(#u)"><path d="m12.0923 10.4138.0007-.0007.0007-.0006.0016-.0016.0038-.0036.0104-.0095c.008-.0073.0184-.0165.0311-.0272.0253-.0215.0598-.0494.1034-.0812.0869-.0636.2111-.1438.3699-.2202.3188-.15324.7799-.29134 1.3541-.2424.2691.02295.4687.2597.4457.5289-.0229.2691-.2597.4687-.5288.4458-.3678-.0314-.6541.0565-.8473.1494-.0972.0467-.1702.0945-.2164.1282-.023.0168-.039.0299-.0476.0372-.0036.0031-.0059.0051-.0068.006-.1949.1835-.5016.1764-.6877-.017-.1873-.1946-.1814-.5042.0132-.6915z" fill="#1e1e1e"/></g><path d="m17.8088 11.1885c.5969-.0428 1.1306.3326 1.3076.8788.0522.1565-.0592.3173-.2224.329l-2.039.1461c-.1297.0093-.242-.1019-.2254-.2335.073-.594.5564-1.0758 1.1792-1.1204z" fill="#fff"/><path d="m17.6374 11.4503c.4523-.0324.8419.3086.8741.7571.0053.0742-.0005.1491-.0143.2172l-1.5756.1129c-.0235-.0691-.0397-.1387-.045-.2129-.0322-.4485.3085-.8419.7608-.8743z" fill="url(#a3)"/><path d="m17.2288 12.2994c-.0186-.2595.1741-.482.4336-.5006s.482.1741.5006.4336c.0056.0779-.0076.1534-.0365.2188l-.8267.0592c-.0416-.0603-.0654-.1332-.071-.211z" fill="#000"/><g filter="url(#v)"><path d="m17.5907 11.6266c.0637.0737-.0511.1773-.1819.2906-.1309.1132-.2283.1933-.292.1197-.0638-.0736-.0094-.2252.1215-.3385.1308-.1133.2886-.1454.3524-.0718z" fill="#c7a7a3"/><path d="m17.5907 11.6266c.0637.0737-.0511.1773-.1819.2906-.1309.1132-.2283.1933-.292.1197-.0638-.0736-.0094-.2252.1215-.3385.1308-.1133.2886-.1454.3524-.0718z" fill="url(#a5)"/></g><g filter="url(#w)"><path d="m18.4152 12.107c-.0453-.209-.1802-.3592-.242-.4082l-.2191.278.1223.2011z" fill="url(#a7)"/></g><path d="m13.4386 11.5015c-.5969.0428-1.0716.4904-1.169 1.0564-.0293.1623.1039.3056.2671.2939l2.0391-.1462c.1297-.0093.225-.1353.1898-.2632-.1569-.5776-.7079-.9853-1.327-.9409z" fill="#fff"/><path d="m13.6455 11.7365c-.4523.0324-.7894.4255-.7572.8741.0053.0741.0217.1475.0451.2129l1.5756-.113c.0135-.0717.0196-.143.0143-.2171-.0359-.4484-.4255-.7894-.8778-.7569z" fill="url(#a8)"/><path d="m14.1711 12.5186c-.0186-.2595-.2411-.4523-.5006-.4337s-.4522.2411-.4336.5006c.0055.0779.0294.1507.0673.2114l.8267-.0593c.0289-.0654.0458-.1412.0402-.219z" fill="#000"/><g filter="url(#x)"><path d="m14.4429 12.4033c-.0189-.2639-.2461-.4245-.3079-.4735l-.2456.2741.1861.319z" fill="url(#a9)"/></g><g filter="url(#y)"><ellipse cx="13.425" cy="12.103" fill="#c7a7a3" fill-opacity=".9" rx=".357" ry=".181" transform="matrix(.84792136 -.53012203 .53012203 .84792136 -4.37423 8.957329)"/><ellipse cx="13.425" cy="12.103" fill="url(#ba)" rx=".357" ry=".181" transform="matrix(.84792136 -.53012203 .53012203 .84792136 -4.37423 8.957329)"/></g><g filter="url(#z)"><path d="m17.0502 9.92541c.3882-.09698 1.1562-.13227 1.7166.24249" stroke="url(#bc)" stroke-linecap="round" stroke-width=".2"/></g><g filter="url(#A)"><path d="m12.313 10.7412c.2801-.2858.9132-.6109 1.732-.5399" stroke="url(#bd)" stroke-linecap="round" stroke-width=".2"/></g><g filter="url(#B)"><path d="m11.2611 8.55145.0588.82044c.0026.13636-.0328.44433-.1952.58532" stroke="url(#be)" stroke-linecap="round" stroke-width=".25"/></g><g filter="url(#C)"><ellipse cx="15.946" cy="15.855" rx=".734" ry=".755" stroke="url(#bf)" stroke-width=".2"/></g><ellipse cx="15.946" cy="15.855" fill="#87004d" rx=".734" ry=".755"/></svg>