<svg fill="none" height="32" viewBox="0 0 32 32" width="32" xmlns="http://www.w3.org/2000/svg" xmlns:xlink="http://www.w3.org/1999/xlink"><filter id="a" color-interpolation-filters="sRGB" filterUnits="userSpaceOnUse" height="2.539" width="3.052" x="3.623" y="11.954"><feFlood flood-opacity="0" result="BackgroundImageFix"/><feBlend in="SourceGraphic" in2="BackgroundImageFix" mode="normal" result="shape"/><feGaussianBlur result="effect1_foregroundBlur_4002_4187" stdDeviation=".15"/></filter><filter id="b" color-interpolation-filters="sRGB" filterUnits="userSpaceOnUse" height="2.723" width="3.127" x="2.544" y="12.234"><feFlood flood-opacity="0" result="BackgroundImageFix"/><feBlend in="SourceGraphic" in2="BackgroundImageFix" mode="normal" result="shape"/><feGaussianBlur result="effect1_foregroundBlur_4002_4187" stdDeviation=".15"/></filter><filter id="c" color-interpolation-filters="sRGB" filterUnits="userSpaceOnUse" height="2.534" width="3.267" x="2.474" y="13.243"><feFlood flood-opacity="0" result="BackgroundImageFix"/><feBlend in="SourceGraphic" in2="BackgroundImageFix" mode="normal" result="shape"/><feGaussianBlur result="effect1_foregroundBlur_4002_4187" stdDeviation=".15"/></filter><filter id="d" color-interpolation-filters="sRGB" filterUnits="userSpaceOnUse" height="5.156" width="3.408" x="23.855" y="11.719"><feFlood flood-opacity="0" result="BackgroundImageFix"/><feBlend in="SourceGraphic" in2="BackgroundImageFix" mode="normal" result="shape"/><feColorMatrix in="SourceAlpha" result="hardAlpha" type="matrix" values="0 0 0 0 0 0 0 0 0 0 0 0 0 0 0 0 0 0 127 0"/><feOffset dx=".15"/><feGaussianBlur stdDeviation=".2"/><feComposite in2="hardAlpha" k2="-1" k3="1" operator="arithmetic"/><feColorMatrix type="matrix" values="0 0 0 0 0.454902 0 0 0 0 0.32549 0 0 0 0 0.282353 0 0 0 1 0"/><feBlend in2="shape" mode="normal" result="effect1_innerShadow_4002_4187"/></filter><filter id="e" color-interpolation-filters="sRGB" filterUnits="userSpaceOnUse" height="2.258" width="3.431" x="2.773" y="14.294"><feFlood flood-opacity="0" result="BackgroundImageFix"/><feBlend in="SourceGraphic" in2="BackgroundImageFix" mode="normal" result="shape"/><feGaussianBlur result="effect1_foregroundBlur_4002_4187" stdDeviation=".15"/></filter><filter id="f" color-interpolation-filters="sRGB" filterUnits="userSpaceOnUse" height="1.191" width="2.543" x="5.95" y="15.704"><feFlood flood-opacity="0" result="BackgroundImageFix"/><feBlend in="SourceGraphic" in2="BackgroundImageFix" mode="normal" result="shape"/><feGaussianBlur result="effect1_foregroundBlur_4002_4187" stdDeviation=".15"/></filter><filter id="g" color-interpolation-filters="sRGB" filterUnits="userSpaceOnUse" height=".977" width="2.847" x="25.323" y="15.538"><feFlood flood-opacity="0" result="BackgroundImageFix"/><feBlend in="SourceGraphic" in2="BackgroundImageFix" mode="normal" result="shape"/><feGaussianBlur result="effect1_foregroundBlur_4002_4187" stdDeviation=".15"/></filter><filter id="h" color-interpolation-filters="sRGB" filterUnits="userSpaceOnUse" height="13.423" width="23.107" x="4.624" y="17.062"><feFlood flood-opacity="0" result="BackgroundImageFix"/><feBlend in="SourceGraphic" in2="BackgroundImageFix" mode="normal" result="shape"/><feColorMatrix in="SourceAlpha" result="hardAlpha" type="matrix" values="0 0 0 0 0 0 0 0 0 0 0 0 0 0 0 0 0 0 127 0"/><feOffset dy="-.25"/><feGaussianBlur stdDeviation=".5"/><feComposite in2="hardAlpha" k2="-1" k3="1" operator="arithmetic"/><feColorMatrix type="matrix" values="0 0 0 0 0.180392 0 0 0 0 0.396078 0 0 0 0 0.768627 0 0 0 1 0"/><feBlend in2="shape" mode="normal" result="effect1_innerShadow_4002_4187"/></filter><filter id="i" color-interpolation-filters="sRGB" filterUnits="userSpaceOnUse" height="8.945" width="8.199" x="5.11" y="17.083"><feFlood flood-opacity="0" result="BackgroundImageFix"/><feBlend in="SourceGraphic" in2="BackgroundImageFix" mode="normal" result="shape"/><feGaussianBlur result="effect1_foregroundBlur_4002_4187" stdDeviation=".75"/></filter><filter id="j" color-interpolation-filters="sRGB" filterUnits="userSpaceOnUse" height="8.493" width="7.102" x="20.783" y="17.003"><feFlood flood-opacity="0" result="BackgroundImageFix"/><feBlend in="SourceGraphic" in2="BackgroundImageFix" mode="normal" result="shape"/><feGaussianBlur result="effect1_foregroundBlur_4002_4187" stdDeviation=".625"/></filter><filter id="k" color-interpolation-filters="sRGB" filterUnits="userSpaceOnUse" height="6.956" width="3.956" x="9.209" y="19.709"><feFlood flood-opacity="0" result="BackgroundImageFix"/><feBlend in="SourceGraphic" in2="BackgroundImageFix" mode="normal" result="shape"/><feGaussianBlur result="effect1_foregroundBlur_4002_4187" stdDeviation=".25"/></filter><filter id="l" color-interpolation-filters="sRGB" filterUnits="userSpaceOnUse" height="5.519" width="5.986" x="20.41" y="21.693"><feFlood flood-opacity="0" result="BackgroundImageFix"/><feBlend in="SourceGraphic" in2="BackgroundImageFix" mode="normal" result="shape"/><feGaussianBlur result="effect1_foregroundBlur_4002_4187" stdDeviation=".4"/></filter><filter id="m" color-interpolation-filters="sRGB" filterUnits="userSpaceOnUse" height="3.12" width="3.32" x="9.596" y="12.098"><feFlood flood-opacity="0" result="BackgroundImageFix"/><feBlend in="SourceGraphic" in2="BackgroundImageFix" mode="normal" result="shape"/><feColorMatrix in="SourceAlpha" result="hardAlpha" type="matrix" values="0 0 0 0 0 0 0 0 0 0 0 0 0 0 0 0 0 0 127 0"/><feOffset dx=".2"/><feGaussianBlur stdDeviation=".15"/><feComposite in2="hardAlpha" k2="-1" k3="1" operator="arithmetic"/><feColorMatrix type="matrix" values="0 0 0 0 0.517647 0 0 0 0 0.384314 0 0 0 0 0.34902 0 0 0 1 0"/><feBlend in2="shape" mode="normal" result="effect1_innerShadow_4002_4187"/></filter><filter id="n" color-interpolation-filters="sRGB" filterUnits="userSpaceOnUse" height="2.859" width="2.859" x="9.726" y="12.229"><feFlood flood-opacity="0" result="BackgroundImageFix"/><feBlend in="SourceGraphic" in2="BackgroundImageFix" mode="normal" result="shape"/><feGaussianBlur result="effect1_foregroundBlur_4002_4187" stdDeviation=".25"/></filter><filter id="o" color-interpolation-filters="sRGB" filterUnits="userSpaceOnUse" height="3.37" width="3.37" x="18.457" y="11.161"><feFlood flood-opacity="0" result="BackgroundImageFix"/><feBlend in="SourceGraphic" in2="BackgroundImageFix" mode="normal" result="shape"/><feColorMatrix in="SourceAlpha" result="hardAlpha" type="matrix" values="0 0 0 0 0 0 0 0 0 0 0 0 0 0 0 0 0 0 127 0"/><feOffset dx=".25" dy="-.25"/><feGaussianBlur stdDeviation=".25"/><feComposite in2="hardAlpha" k2="-1" k3="1" operator="arithmetic"/><feColorMatrix type="matrix" values="0 0 0 0 0.482353 0 0 0 0 0.278431 0 0 0 0 0.372549 0 0 0 1 0"/><feBlend in2="shape" mode="normal" result="effect1_innerShadow_4002_4187"/></filter><filter id="p" color-interpolation-filters="sRGB" filterUnits="userSpaceOnUse" height="2.859" width="2.859" x="18.587" y="11.541"><feFlood flood-opacity="0" result="BackgroundImageFix"/><feBlend in="SourceGraphic" in2="BackgroundImageFix" mode="normal" result="shape"/><feGaussianBlur result="effect1_foregroundBlur_4002_4187" stdDeviation=".25"/></filter><filter id="q" color-interpolation-filters="sRGB" filterUnits="userSpaceOnUse" height="11.487" width="9.709" x="10.622" y="8.017"><feFlood flood-opacity="0" result="BackgroundImageFix"/><feBlend in="SourceGraphic" in2="BackgroundImageFix" mode="normal" result="shape"/><feColorMatrix in="SourceAlpha" result="hardAlpha" type="matrix" values="0 0 0 0 0 0 0 0 0 0 0 0 0 0 0 0 0 0 127 0"/><feOffset dy=".1"/><feGaussianBlur stdDeviation=".2"/><feComposite in2="hardAlpha" k2="-1" k3="1" operator="arithmetic"/><feColorMatrix type="matrix" values="0 0 0 0 0.254902 0 0 0 0 0.137255 0 0 0 0 0.113725 0 0 0 1 0"/><feBlend in2="shape" mode="normal" result="effect1_innerShadow_4002_4187"/></filter><filter id="r" color-interpolation-filters="sRGB" filterUnits="userSpaceOnUse" height="7.058" width="8.003" x="13.473" y="5.79"><feFlood flood-opacity="0" result="BackgroundImageFix"/><feBlend in="SourceGraphic" in2="BackgroundImageFix" mode="normal" result="shape"/><feGaussianBlur result="effect1_foregroundBlur_4002_4187" stdDeviation="1"/></filter><filter id="s" color-interpolation-filters="sRGB" filterUnits="userSpaceOnUse" height="8.345" width="11.745" x="9.382" y="4.768"><feFlood flood-opacity="0" result="BackgroundImageFix"/><feBlend in="SourceGraphic" in2="BackgroundImageFix" mode="normal" result="shape"/><feColorMatrix in="SourceAlpha" result="hardAlpha" type="matrix" values="0 0 0 0 0 0 0 0 0 0 0 0 0 0 0 0 0 0 127 0"/><feOffset dy="-.5"/><feGaussianBlur stdDeviation=".375"/><feComposite in2="hardAlpha" k2="-1" k3="1" operator="arithmetic"/><feColorMatrix type="matrix" values="0 0 0 0 0.0392157 0 0 0 0 0.00784314 0 0 0 0 0.0196078 0 0 0 1 0"/><feBlend in2="shape" mode="normal" result="effect1_innerShadow_4002_4187"/></filter><filter id="t" color-interpolation-filters="sRGB" filterUnits="userSpaceOnUse" height="4.038" width="3.142" x="13.91" y="12.193"><feFlood flood-opacity="0" result="BackgroundImageFix"/><feBlend in="SourceGraphic" in2="BackgroundImageFix" mode="normal" result="shape"/><feGaussianBlur result="effect1_foregroundBlur_4002_4187" stdDeviation=".375"/></filter><filter id="u" color-interpolation-filters="sRGB" filterUnits="userSpaceOnUse" height="3.029" width="2.251" x="14.566" y="12.535"><feFlood flood-opacity="0" result="BackgroundImageFix"/><feBlend in="SourceGraphic" in2="BackgroundImageFix" mode="normal" result="shape"/><feGaussianBlur result="effect1_foregroundBlur_4002_4187" stdDeviation=".125"/></filter><filter id="v" color-interpolation-filters="sRGB" filterUnits="userSpaceOnUse" height="1.689" width="2.823" x="16.483" y="9.73"><feFlood flood-opacity="0" result="BackgroundImageFix"/><feBlend in="SourceGraphic" in2="BackgroundImageFix" mode="normal" result="shape"/><feColorMatrix in="SourceAlpha" result="hardAlpha" type="matrix" values="0 0 0 0 0 0 0 0 0 0 0 0 0 0 0 0 0 0 127 0"/><feOffset dx=".25" dy="-.4"/><feGaussianBlur stdDeviation=".3"/><feComposite in2="hardAlpha" k2="-1" k3="1" operator="arithmetic"/><feColorMatrix type="matrix" values="0 0 0 0 0.156863 0 0 0 0 0.0784314 0 0 0 0 0.109804 0 0 0 1 0"/><feBlend in2="shape" mode="normal" result="effect1_innerShadow_4002_4187"/></filter><filter id="w" color-interpolation-filters="sRGB" filterUnits="userSpaceOnUse" height="1.874" width="2.768" x="11.716" y="10.036"><feFlood flood-opacity="0" result="BackgroundImageFix"/><feBlend in="SourceGraphic" in2="BackgroundImageFix" mode="normal" result="shape"/><feColorMatrix in="SourceAlpha" result="hardAlpha" type="matrix" values="0 0 0 0 0 0 0 0 0 0 0 0 0 0 0 0 0 0 127 0"/><feOffset dx=".25" dy="-.4"/><feGaussianBlur stdDeviation=".3"/><feComposite in2="hardAlpha" k2="-1" k3="1" operator="arithmetic"/><feColorMatrix type="matrix" values="0 0 0 0 0.156863 0 0 0 0 0.0784314 0 0 0 0 0.109804 0 0 0 1 0"/><feBlend in2="shape" mode="normal" result="effect1_innerShadow_4002_4187"/></filter><filter id="x" color-interpolation-filters="sRGB" filterUnits="userSpaceOnUse" height=".689" width=".726" x="16.87" y="12.119"><feFlood flood-opacity="0" result="BackgroundImageFix"/><feBlend in="SourceGraphic" in2="BackgroundImageFix" mode="normal" result="shape"/><feGaussianBlur result="effect1_foregroundBlur_4002_4187" stdDeviation=".05"/></filter><filter id="y" color-interpolation-filters="sRGB" filterUnits="userSpaceOnUse" height=".889" width=".87" x="17.652" y="12.128"><feFlood flood-opacity="0" result="BackgroundImageFix"/><feBlend in="SourceGraphic" in2="BackgroundImageFix" mode="normal" result="shape"/><feGaussianBlur result="effect1_foregroundBlur_4002_4187" stdDeviation=".1"/></filter><filter id="z" color-interpolation-filters="sRGB" filterUnits="userSpaceOnUse" height="1.004" width=".965" x="13.509" y="12.388"><feFlood flood-opacity="0" result="BackgroundImageFix"/><feBlend in="SourceGraphic" in2="BackgroundImageFix" mode="normal" result="shape"/><feGaussianBlur result="effect1_foregroundBlur_4002_4187" stdDeviation=".1"/></filter><filter id="A" color-interpolation-filters="sRGB" filterUnits="userSpaceOnUse" height=".699" width=".846" x="12.812" y="12.419"><feFlood flood-opacity="0" result="BackgroundImageFix"/><feBlend in="SourceGraphic" in2="BackgroundImageFix" mode="normal" result="shape"/><feGaussianBlur result="effect1_foregroundBlur_4002_4187" stdDeviation=".05"/></filter><filter id="B" color-interpolation-filters="sRGB" filterUnits="userSpaceOnUse" height="1.556" width="3.001" x="16.293" y="9.833"><feFlood flood-opacity="0" result="BackgroundImageFix"/><feBlend in="SourceGraphic" in2="BackgroundImageFix" mode="normal" result="shape"/><feGaussianBlur result="effect1_foregroundBlur_4002_4187" stdDeviation=".25"/></filter><filter id="C" color-interpolation-filters="sRGB" filterUnits="userSpaceOnUse" height="1.82" width="3.012" x="11.469" y="10.193"><feFlood flood-opacity="0" result="BackgroundImageFix"/><feBlend in="SourceGraphic" in2="BackgroundImageFix" mode="normal" result="shape"/><feGaussianBlur result="effect1_foregroundBlur_4002_4187" stdDeviation=".25"/></filter><filter id="D" color-interpolation-filters="sRGB" filterUnits="userSpaceOnUse" height="2.184" width=".946" x="10.502" y="8.786"><feFlood flood-opacity="0" result="BackgroundImageFix"/><feBlend in="SourceGraphic" in2="BackgroundImageFix" mode="normal" result="shape"/><feGaussianBlur result="effect1_foregroundBlur_4002_4187" stdDeviation=".125"/></filter><filter id="E" color-interpolation-filters="sRGB" filterUnits="userSpaceOnUse" height="1.911" width="1.869" x="14.929" y="15.659"><feFlood flood-opacity="0" result="BackgroundImageFix"/><feBlend in="SourceGraphic" in2="BackgroundImageFix" mode="normal" result="shape"/><feGaussianBlur result="effect1_foregroundBlur_4002_4187" stdDeviation=".05"/></filter><linearGradient id="F"><stop offset="0" stop-color="#6e5147"/><stop offset="1" stop-color="#715146"/></linearGradient><linearGradient id="G" gradientUnits="userSpaceOnUse" x1="3.819" x2="6.023" xlink:href="#F" y1="12.613" y2="13.358"/><linearGradient id="H"><stop offset=".651" stop-color="#734251" stop-opacity="0"/><stop offset="1" stop-color="#734251"/></linearGradient><radialGradient id="I" cx="0" cy="0" gradientTransform="matrix(-1.34374275 1.85938057 -2.52302766 -1.82334922 5.8953 12.6424)" gradientUnits="userSpaceOnUse" r="1" xlink:href="#H"/><linearGradient id="J"><stop offset="0" stop-color="#856661"/><stop offset="1" stop-color="#856661" stop-opacity="0"/></linearGradient><linearGradient id="K" gradientUnits="userSpaceOnUse" x1="4.323" x2="6.479" xlink:href="#J" y1="12.408" y2="14.557"/><linearGradient id="L" gradientUnits="userSpaceOnUse" x1="2.725" x2="4.762" xlink:href="#F" y1="12.992" y2="13.555"/><radialGradient id="M" cx="0" cy="0" gradientTransform="matrix(-.63638075 2.00369932 -2.32191536 -.7374471 4.21246 13.006)" gradientUnits="userSpaceOnUse" r="1" xlink:href="#H"/><linearGradient id="N" gradientUnits="userSpaceOnUse" x1="3.256" x2="5.666" xlink:href="#J" y1="12.678" y2="14.891"/><linearGradient id="O" gradientUnits="userSpaceOnUse" x1="2.771" x2="5.013" xlink:href="#F" y1="13.929" y2="14.727"/><radialGradient id="P" cx="0" cy="0" gradientTransform="matrix(-.7328764 1.79085339 -2.52144376 -1.03185813 4.48445 13.9413)" gradientUnits="userSpaceOnUse" r="1" xlink:href="#H"/><linearGradient id="Q" gradientUnits="userSpaceOnUse" x1="3.18" x2="5.771" xlink:href="#J" y1="13.669" y2="15.668"/><linearGradient id="R" gradientUnits="userSpaceOnUse" x1="3.085" x2="5.259" xlink:href="#F" y1="14.882" y2="15.762"/><radialGradient id="S" cx="0" cy="0" gradientTransform="matrix(-.7343828 1.57812379 -2.4246621 -1.12832095 4.80154 14.8924)" gradientUnits="userSpaceOnUse" r="1" xlink:href="#H"/><linearGradient id="T" gradientUnits="userSpaceOnUse" x1="8.815" x2="7.975" y1="15.952" y2="15.952"><stop offset=".005" stop-color="#725953"/><stop offset="1" stop-color="#725953" stop-opacity="0"/></linearGradient><radialGradient id="U" cx="0" cy="0" gradientTransform="matrix(-.52137985 .86916434 -1.02150714 -.61276472 7.11676 11.719)" gradientUnits="userSpaceOnUse" r="1"><stop offset="0" stop-color="#775b50"/><stop offset="1" stop-color="#775b50" stop-opacity="0"/></radialGradient><linearGradient id="V" gradientUnits="userSpaceOnUse" x1="5.911" x2="5.911" y1="16.875" y2="16.096"><stop offset="0" stop-color="#734251"/><stop offset="1" stop-color="#734251" stop-opacity="0"/></linearGradient><radialGradient id="W" cx="0" cy="0" gradientTransform="matrix(1.7187498 2.18600927 -.55483041 .43623541 5.33282 12.1111)" gradientUnits="userSpaceOnUse" r="1"><stop offset="0" stop-color="#673e35"/><stop offset="1" stop-color="#673e35" stop-opacity="0"/></radialGradient><linearGradient id="X" gradientUnits="userSpaceOnUse" x1="23.855" x2="24.653" y1="15.851" y2="15.851"><stop offset="0" stop-color="#734840"/><stop offset="1" stop-color="#734840" stop-opacity="0"/></linearGradient><radialGradient id="Y" cx="0" cy="0" gradientTransform="matrix(.85156561 -.55469034 .26704921 .40997636 26.3328 11.9691)" gradientUnits="userSpaceOnUse" r="1"><stop offset=".116" stop-color="#93776d"/><stop offset="1" stop-color="#93776d" stop-opacity="0"/></radialGradient><linearGradient id="Z"><stop offset="0" stop-color="#7c5e52"/><stop offset="1" stop-color="#816052"/></linearGradient><linearGradient id="aa" gradientUnits="userSpaceOnUse" x1="28.451" x2="25.758" xlink:href="#Z" y1="14.109" y2="14.068"/><linearGradient id="ab"><stop offset=".715" stop-color="#6f4738" stop-opacity="0"/><stop offset="1" stop-color="#6f4738"/></linearGradient><radialGradient id="ac" cx="0" cy="0" gradientTransform="matrix(1.07880082 .95926984 -3.27736962 3.68575022 27.0178 13.1697)" gradientUnits="userSpaceOnUse" r="1" xlink:href="#ab"/><linearGradient id="ad"><stop offset="0" stop-color="#6a413e"/><stop offset="1" stop-color="#6a413e" stop-opacity="0"/></linearGradient><radialGradient id="ae" cx="0" cy="0" gradientTransform="matrix(-1.04912572 -1.00165587 1.13183916 -1.18547858 27.9758 13.7237)" gradientUnits="userSpaceOnUse" r="1" xlink:href="#ad"/><linearGradient id="af"><stop offset=".116" stop-color="#876d65"/><stop offset="1" stop-color="#876d65" stop-opacity="0"/></linearGradient><radialGradient id="ag" cx="0" cy="0" gradientTransform="matrix(.4531246 -.60937476 .35181239 .26160395 28.6531 12.2191)" gradientUnits="userSpaceOnUse" r="1" xlink:href="#af"/><linearGradient id="ah" gradientUnits="userSpaceOnUse" x1="29.524" x2="26.98" xlink:href="#Z" y1="14.631" y2="14.598"/><radialGradient id="ai" cx="0" cy="0" gradientTransform="matrix(1.01887417 1.04987389 -3.61006949 3.50347465 28.1699 13.6029)" gradientUnits="userSpaceOnUse" r="1" xlink:href="#ab"/><radialGradient id="aj" cx="0" cy="0" gradientTransform="matrix(-.98438073 -1.01562475 1.32742318 -1.2865872 28.8797 14.0174)" gradientUnits="userSpaceOnUse" r="1" xlink:href="#ad"/><radialGradient id="ak" cx="0" cy="0" gradientTransform="matrix(.42795482 -.66693326 .36549741 .23453078 29.7143 12.5625)" gradientUnits="userSpaceOnUse" r="1" xlink:href="#af"/><linearGradient id="al" gradientUnits="userSpaceOnUse" x1="29.497" x2="26.727" xlink:href="#Z" y1="15.392" y2="15.348"/><radialGradient id="am" cx="0" cy="0" gradientTransform="matrix(1.10937391 .93749695 -3.17994423 3.76294252 28.0227 14.4737)" gradientUnits="userSpaceOnUse" r="1" xlink:href="#ab"/><radialGradient id="an" cx="0" cy="0" gradientTransform="matrix(-.93750783 -1.15623957 1.30176375 -1.05550247 28.7234 14.9705)" gradientUnits="userSpaceOnUse" r="1" xlink:href="#ad"/><radialGradient id="ao" cx="0" cy="0" gradientTransform="matrix(.5625006 -.49999984 .29257631 .3291488 29.8015 13.5642)" gradientUnits="userSpaceOnUse" r="1" xlink:href="#af"/><linearGradient id="ap" gradientUnits="userSpaceOnUse" x1="29.183" x2="26.408" xlink:href="#Z" y1="16.171" y2="16.12"/><radialGradient id="aq" cx="0" cy="0" gradientTransform="matrix(1.1116421 .82613833 -2.72124423 3.66167448 27.7059 15.3615)" gradientUnits="userSpaceOnUse" r="1" xlink:href="#ab"/><radialGradient id="ar" cx="0" cy="0" gradientTransform="matrix(-1.0810704 -.86263652 .9514599 -1.19238533 28.693 15.8386)" gradientUnits="userSpaceOnUse" r="1" xlink:href="#ad"/><radialGradient id="as" cx="0" cy="0" gradientTransform="matrix(.57812451 -.56250001 .33680377 .34615913 29.5203 14.6267)" gradientUnits="userSpaceOnUse" r="1" xlink:href="#af"/><linearGradient id="at" gradientUnits="userSpaceOnUse" x1="3.468" x2="6.276" xlink:href="#J" y1="14.696" y2="16.377"/><linearGradient id="au" gradientUnits="userSpaceOnUse" x1="8.302" x2="7.513" y1="16.204" y2="15.156"><stop offset="0" stop-color="#735450"/><stop offset="1" stop-color="#735450" stop-opacity="0"/></linearGradient><radialGradient id="av" cx="0" cy="0" gradientTransform="matrix(0 1.94297 -2.39063 0 26.2033 16.7654)" gradientUnits="userSpaceOnUse" r="1"><stop offset="0" stop-color="#47adf9"/><stop offset="1" stop-color="#308bdb"/></radialGradient><linearGradient id="aw" gradientUnits="userSpaceOnUse" x1="23.662" x2="24.149" y1="17.748" y2="17.74"><stop offset="0" stop-color="#257fbf"/><stop offset="1" stop-color="#257fbf" stop-opacity="0"/></linearGradient><linearGradient id="ax" gradientUnits="userSpaceOnUse" x1="7.031" x2="9.719" y1="17.456" y2="17.456"><stop offset="0" stop-color="#4a9ee0"/><stop offset="1" stop-color="#227bc3"/></linearGradient><radialGradient id="ay" cx="0" cy="0" gradientTransform="matrix(0 1.14902 -.689942 0 7.5625 16.9968)" gradientUnits="userSpaceOnUse" r="1"><stop offset="0" stop-color="#3990dd"/><stop offset="1" stop-color="#3990dd" stop-opacity="0"/></radialGradient><linearGradient id="az" gradientUnits="userSpaceOnUse" x1="6.873" x2="6.873" y1="16.765" y2="17.028"><stop offset="0" stop-color="#3481c0"/><stop offset="1" stop-color="#3481c0" stop-opacity="0"/></linearGradient><radialGradient id="aA" cx="0" cy="0" gradientTransform="matrix(0 -16.4411 10.6867 0 19.9211 29.7504)" gradientUnits="userSpaceOnUse" r="1"><stop offset=".155" stop-color="#3cb2ff"/><stop offset="1" stop-color="#2d92df"/></radialGradient><radialGradient id="aB" cx="0" cy="0" gradientTransform="matrix(-3.01666384 3.53393256 -1.57188995 -1.3418093 9.81271 20.3646)" gradientUnits="userSpaceOnUse" r="1"><stop offset=".106" stop-color="#1f74b9"/><stop offset="1" stop-color="#51aaff" stop-opacity="0"/><stop offset="1" stop-color="#1f74b9" stop-opacity="0"/></radialGradient><radialGradient id="aC" cx="0" cy="0" gradientTransform="matrix(0 7.46944 -4.08022 0 27.0148 17.3123)" gradientUnits="userSpaceOnUse" r="1"><stop offset="0" stop-color="#43beff"/><stop offset="1" stop-color="#43beff" stop-opacity="0"/></radialGradient><radialGradient id="aD" cx="0" cy="0" gradientTransform="matrix(-2.23439384 3.4089252 -.45438397 -.29782781 9.71896 20.4896)" gradientUnits="userSpaceOnUse" r="1"><stop offset="0" stop-color="#389bfa"/><stop offset="1" stop-color="#389bfa" stop-opacity="0"/></radialGradient><radialGradient id="aE" cx="0" cy="0" gradientTransform="matrix(-5.6875309 3.4062094 -1.54200916 -2.57477557 14.4221 18.2396)" gradientUnits="userSpaceOnUse" r="1"><stop offset=".066" stop-color="#28699c"/><stop offset="1" stop-color="#28699c" stop-opacity="0"/></radialGradient><radialGradient id="aF" cx="0" cy="0" gradientTransform="matrix(2.06249536 2.17782763 -3.30429745 3.12931018 15.5937 18.4752)" gradientUnits="userSpaceOnUse" r="1"><stop offset=".118" stop-color="#734455"/><stop offset="1" stop-color="#8e6762"/></radialGradient><linearGradient id="aG" gradientUnits="userSpaceOnUse" x1="13.125" x2="15.688" y1="20.153" y2="20.153"><stop offset="0" stop-color="#745459"/><stop offset="1" stop-color="#745459" stop-opacity="0"/></linearGradient><linearGradient id="aH" gradientUnits="userSpaceOnUse" x1="9.86" x2="12.86" y1="26.484" y2="20.828"><stop offset="0" stop-color="#1a7ad4"/><stop offset="1" stop-color="#1a7ad4" stop-opacity="0"/></linearGradient><linearGradient id="aI" gradientUnits="userSpaceOnUse" x1="25.449" x2="21.21" y1="26.569" y2="21.855"><stop offset="0" stop-color="#1e72ff"/><stop offset="1" stop-color="#1e72ff" stop-opacity="0"/></linearGradient><radialGradient id="aJ" cx="0" cy="0" gradientTransform="matrix(1.63944 0 0 2.86903 9.59583 13.6582)" gradientUnits="userSpaceOnUse" r="1"><stop offset=".351" stop-color="#664249"/><stop offset="1" stop-color="#613641"/></radialGradient><linearGradient id="aK" gradientUnits="userSpaceOnUse" x1="11.155" x2="10.557" y1="13.919" y2="13.919"><stop offset="0" stop-color="#553038"/><stop offset="1" stop-color="#59323c"/></linearGradient><linearGradient id="aL" gradientUnits="userSpaceOnUse" x1="21.031" x2="20.267" y1="11.951" y2="14.32"><stop offset="0" stop-color="#96776b"/><stop offset="1" stop-color="#855a5b"/></linearGradient><radialGradient id="aM" cx="0" cy="0" gradientTransform="matrix(.77232624 -.56237276 .64187417 .88150833 20.3641 12.7233)" gradientUnits="userSpaceOnUse" r="1"><stop offset=".543" stop-color="#7c524c"/><stop offset="1" stop-color="#7c524c" stop-opacity="0"/></radialGradient><radialGradient id="aN" cx="0" cy="0" gradientTransform="matrix(.76724162 -1.4111738 .82596619 .44906987 19.9778 13.7381)" gradientUnits="userSpaceOnUse" r="1"><stop offset=".755" stop-color="#73443e" stop-opacity="0"/><stop offset=".916" stop-color="#73443e"/></radialGradient><radialGradient id="aO" cx="0" cy="0" gradientTransform="matrix(.24223383 .23977479 -.30910305 .31227309 20.0165 12.9708)" gradientUnits="userSpaceOnUse" r="1"><stop offset="0" stop-color="#6c443e"/><stop offset="1" stop-color="#6c443e" stop-opacity="0"/></radialGradient><linearGradient id="aP" gradientUnits="userSpaceOnUse" x1="19.365" x2="12.334" y1="13.386" y2="14.998"><stop offset="0" stop-color="#9b6c5e"/><stop offset="1" stop-color="#744d4a"/></linearGradient><radialGradient id="aQ" cx="0" cy="0" gradientTransform="matrix(-.09446009 -1.21745099 1.49839662 -.11625821 17.6711 11.9614)" gradientUnits="userSpaceOnUse" r="1"><stop offset="0" stop-color="#855354"/><stop offset="1" stop-color="#855354" stop-opacity="0"/></radialGradient><radialGradient id="aR" cx="0" cy="0" gradientTransform="matrix(-.09930412 -1.27988336 1.59164636 -.12349331 13.4354 12.4157)" gradientUnits="userSpaceOnUse" r="1"><stop offset="0" stop-color="#6f414d"/><stop offset="1" stop-color="#6f414d" stop-opacity="0"/></radialGradient><linearGradient id="aS" gradientUnits="userSpaceOnUse" x1="10.775" x2="12.523" y1="16.579" y2="16.381"><stop offset="0" stop-color="#84615a"/><stop offset="1" stop-color="#84615a" stop-opacity="0"/></linearGradient><linearGradient id="aT" gradientUnits="userSpaceOnUse" x1="20.271" x2="19.28" y1="15.057" y2="15.04"><stop offset="0" stop-color="#966d5f"/><stop offset="1" stop-color="#966d5f" stop-opacity="0"/></linearGradient><radialGradient id="aU" cx="0" cy="0" gradientTransform="matrix(.14385027 8.5031233 -11.5425484 .19526927 15.1687 11.6845)" gradientUnits="userSpaceOnUse" r="1"><stop offset=".583" stop-color="#754751" stop-opacity="0"/><stop offset="1" stop-color="#7d4371"/></radialGradient><linearGradient id="aV" gradientUnits="userSpaceOnUse" x1="14.895" x2="22.27" y1="10.936" y2="7.632"><stop offset="0" stop-color="#a27b71"/><stop offset="1" stop-color="#a27b71" stop-opacity="0"/></linearGradient><radialGradient id="aW" cx="0" cy="0" gradientTransform="matrix(.52943915 -2.81152483 1.04260524 .19633333 19.3283 9.17644)" gradientUnits="userSpaceOnUse" r="1"><stop offset="0" stop-color="#3d3437"/><stop offset="1" stop-color="#3d3437" stop-opacity="0"/></radialGradient><radialGradient id="aX" cx="0" cy="0" gradientTransform="matrix(3.58798139 .05143241 -.02765484 1.9292318 17.6711 7.65594)" gradientUnits="userSpaceOnUse" r="1"><stop offset=".122" stop-color="#46383d"/><stop offset="1" stop-color="#46383d" stop-opacity="0"/></radialGradient><radialGradient id="aY" cx="0" cy="0" gradientTransform="matrix(.12134978 1.5640194 -2.42223007 .18793698 14.9562 5.30369)" gradientUnits="userSpaceOnUse" r="1"><stop offset="0" stop-color="#3e3034"/><stop offset="1" stop-color="#3e3034" stop-opacity="0"/></radialGradient><radialGradient id="aZ" cx="0" cy="0" gradientTransform="matrix(2.7003594 -2.32033136 3.63519578 4.23057469 9.44233 12.1202)" gradientUnits="userSpaceOnUse" r="1"><stop offset="0" stop-color="#453938"/><stop offset="1" stop-color="#453938" stop-opacity="0"/></radialGradient><linearGradient id="a0" gradientUnits="userSpaceOnUse" x1="14.849" x2="15.723" y1="14.354" y2="14.287"><stop offset="0" stop-color="#754e46"/><stop offset="1" stop-color="#754e46" stop-opacity="0"/></linearGradient><linearGradient id="a1" gradientUnits="userSpaceOnUse" x1="16.551" x2="15.595" y1="14.524" y2="14.585"><stop offset="0" stop-color="#9d766b"/><stop offset="1" stop-color="#9d766b" stop-opacity="0"/></linearGradient><linearGradient id="a2" gradientUnits="userSpaceOnUse" x1="15.912" x2="15.87" y1="15.27" y2="14.736"><stop offset="0" stop-color="#7c4559"/><stop offset="1" stop-color="#7c4559" stop-opacity="0"/></linearGradient><radialGradient id="a3" cx="0" cy="0" gradientTransform="matrix(.01422947 .18339681 -.58921314 .04571611 15.9988 14.788)" gradientUnits="userSpaceOnUse" r="1"><stop offset="0" stop-color="#976f6a"/><stop offset="1" stop-color="#976f6a" stop-opacity="0"/></radialGradient><linearGradient id="a4" gradientUnits="userSpaceOnUse" x1="15.851" x2="15.839" y1="15.314" y2="15.158"><stop offset="0" stop-color="#743b4a"/><stop offset="1" stop-color="#743b4a" stop-opacity="0"/></linearGradient><linearGradient id="a5"><stop offset="0" stop-color="#301a2d"/><stop offset="1" stop-color="#301a2d" stop-opacity="0"/></linearGradient><radialGradient id="a6" cx="0" cy="0" gradientTransform="matrix(.05345277 -.56942767 1.6846041 .15813555 17.7026 11.1973)" gradientUnits="userSpaceOnUse" r="1" xlink:href="#a5"/><radialGradient id="a7" cx="0" cy="0" gradientTransform="matrix(.05345783 -.5694282 1.68470229 .1581596 12.9077 11.5694)" gradientUnits="userSpaceOnUse" r="1" xlink:href="#a5"/><linearGradient id="a8"><stop offset=".802" stop-color="#7d574a"/><stop offset="1" stop-color="#694b43"/><stop offset="1" stop-color="#804d49"/><stop offset="1" stop-color="#664944"/></linearGradient><radialGradient id="a9" cx="0" cy="0" gradientTransform="matrix(.05861869 .75550835 -1.20171828 .09323941 17.5581 12.5224)" gradientUnits="userSpaceOnUse" r="1" xlink:href="#a8"/><linearGradient id="ba"><stop offset=".766" stop-color="#ffe6e2" stop-opacity="0"/><stop offset=".966" stop-color="#ffe6e2"/></linearGradient><radialGradient id="bb" cx="0" cy="0" gradientTransform="matrix(-.23755353 -.26154438 .3600846 -.32705489 17.3515 12.6172)" gradientUnits="userSpaceOnUse" r="1" xlink:href="#ba"/><linearGradient id="bc"><stop offset="0" stop-color="#b4948d"/><stop offset="1" stop-color="#b4948d" stop-opacity="0"/></linearGradient><linearGradient id="bd" gradientUnits="userSpaceOnUse" x1="18.287" x2="18.008" xlink:href="#bc" y1="12.516" y2="12.719"/><radialGradient id="be" cx="0" cy="0" gradientTransform="matrix(.05862163 .75554623 -1.2017781 .09324405 13.4942 12.8376)" gradientUnits="userSpaceOnUse" r="1" xlink:href="#a8"/><linearGradient id="bf" gradientUnits="userSpaceOnUse" x1="14.191" x2="13.912" xlink:href="#bc" y1="12.834" y2="13.037"/><radialGradient id="bg" cx="0" cy="0" gradientTransform="matrix(-.00722531 -.46147844 .55471601 -.00868512 13.2205 13.0624)" gradientUnits="userSpaceOnUse" r="1" xlink:href="#ba"/><linearGradient id="bh"><stop offset="0" stop-color="#483e3e"/><stop offset="1" stop-color="#483e3e" stop-opacity="0"/></linearGradient><linearGradient id="bi" gradientUnits="userSpaceOnUse" x1="18.146" x2="17.693" xlink:href="#bh" y1="10.522" y2="9.753"/><linearGradient id="bj" gradientUnits="userSpaceOnUse" x1="13.196" x2="12.053" xlink:href="#bh" y1="10.787" y2="10.408"/><linearGradient id="bk" gradientUnits="userSpaceOnUse" x1="10.881" x2="11.037" y1="9.079" y2="11.088"><stop offset=".228" stop-color="#32272d"/><stop offset="1" stop-color="#32272d" stop-opacity="0"/></linearGradient><linearGradient id="bl" gradientUnits="userSpaceOnUse" x1="15.499" x2="15.816" y1="17.37" y2="16.235"><stop offset="0" stop-color="#8e6b6b"/><stop offset="1" stop-color="#8e6b6b" stop-opacity="0"/></linearGradient><path clip-rule="evenodd" d="m3.59299 12.0666c.31328-.2265.75088-.1562.97741.1571.0445.0616.08805.1364.1151.1829.00201.0035.00394.0068.00576.0099l.00098.0017c.0336.0576.06618.1135.10474.1741.07666.1205.17069.2491.29385.3698.23258.228.60749.4678 1.2667.5.38614.0188.68392.3471.6651.7332-.01881.3861-.34709.6839-.73323.6651-1.02439-.0499-1.71783-.4468-2.17861-.8985-.22352-.2191-.38243-.4411-.49497-.618-.05342-.084-.09779-.1601-.13005-.2154-.00136-.0024-.0027-.0047-.00401-.0069-.02849-.0489-.04059-.0688-.04454-.0753-.00163-.0026-.00187-.003-.00131-.0022-.22653-.3133-.1562-.7509.15708-.9775z" fill="url(#G)" fill-rule="evenodd"/><path clip-rule="evenodd" d="m3.59299 12.0666c.31328-.2265.75088-.1562.97741.1571.0445.0616.08805.1364.1151.1829.00201.0035.00394.0068.00576.0099l.00098.0017c.0336.0576.06618.1135.10474.1741.07666.1205.17069.2491.29385.3698.23258.228.60749.4678 1.2667.5.38614.0188.68392.3471.6651.7332-.01881.3861-.34709.6839-.73323.6651-1.02439-.0499-1.71783-.4468-2.17861-.8985-.22352-.2191-.38243-.4411-.49497-.618-.05342-.084-.09779-.1601-.13005-.2154-.00136-.0024-.0027-.0047-.00401-.0069-.02849-.0489-.04059-.0688-.04454-.0753-.00163-.0026-.00187-.003-.00131-.0022-.22653-.3133-.1562-.7509.15708-.9775z" fill="url(#I)" fill-rule="evenodd"/><g filter="url(#a)"><path d="m4.12292 12.4536c.19605.5018 1.01755 1.3876 2.05192 1.5389" stroke="url(#K)" stroke-linecap="round" stroke-width=".4"/></g><path clip-rule="evenodd" d="m2.55393 12.383c.31328-.2265.75088-.1561.9774.1571.03402.0471.07205.1039.11493.1681.26153.391.70352 1.0519 1.51519 1.3994.3554.1521.52017.5636.36803.919-.15215.3554-.5636.5201-.919.368-1.24564-.5333-1.93453-1.603-2.15529-1.9458-.02579-.04-.04519-.0702-.05835-.0883-.22652-.3133-.15619-.7509.15709-.9775z" fill="url(#L)" fill-rule="evenodd"/><path clip-rule="evenodd" d="m2.55393 12.383c.31328-.2265.75088-.1561.9774.1571.03402.0471.07205.1039.11493.1681.26153.391.70352 1.0519 1.51519 1.3994.3554.1521.52017.5636.36803.919-.15215.3554-.5636.5201-.919.368-1.24564-.5333-1.93453-1.603-2.15529-1.9458-.02579-.04-.04519-.0702-.05835-.0883-.22652-.3133-.15619-.7509.15709-.9775z" fill="url(#M)" fill-rule="evenodd"/><g filter="url(#b)"><path d="m3.04431 12.7336c.19604.5018.84437 1.4586 2.12708 1.7232" stroke="url(#N)" stroke-linecap="round" stroke-width=".4"/></g><path clip-rule="evenodd" d="m2.52167 13.4051c.30971-.2314.74836-.1679.97975.1418.02742.0367.05605.0766.08631.1186.30145.4192.76326 1.0613 1.77869 1.0613.3866 0 .7.3134.7.7s-.3134.7-.7.7c-1.77535 0-2.63668-1.2399-2.92436-1.6541-.02498-.0359-.04564-.0657-.06219-.0878-.23139-.3097-.1679-.7484.1418-.9798z" fill="url(#O)" fill-rule="evenodd"/><path clip-rule="evenodd" d="m2.52167 13.4051c.30971-.2314.74836-.1679.97975.1418.02742.0367.05605.0766.08631.1186.30145.4192.76326 1.0613 1.77869 1.0613.3866 0 .7.3134.7.7s-.3134.7-.7.7c-1.77535 0-2.63668-1.2399-2.92436-1.6541-.02498-.0359-.04564-.0657-.06219-.0878-.23139-.3097-.1679-.7484.1418-.9798z" fill="url(#P)" fill-rule="evenodd"/><g filter="url(#c)"><path d="m2.97437 13.7429c.23836.4831.96637 1.3807 2.26705 1.5344" stroke="url(#Q)" stroke-linecap="round" stroke-width=".4"/></g><path clip-rule="evenodd" d="m2.83417 14.4364c.30971-.2314.74836-.1679.97975.1418.18098.2422.65325.8401 1.87282.8401.3866 0 .7.3134.7.7s-.3134.7-.7.7c-1.82731 0-2.66755-.9647-2.99437-1.4022-.23139-.3097-.1679-.7483.1418-.9797z" fill="url(#R)" fill-rule="evenodd"/><path clip-rule="evenodd" d="m2.83417 14.4364c.30971-.2314.74836-.1679.97975.1418.18098.2422.65325.8401 1.87282.8401.3866 0 .7.3134.7.7s-.3134.7-.7.7c-1.82731 0-2.66755-.9647-2.99437-1.4022-.23139-.3097-.1679-.7483.1418-.9797z" fill="url(#S)" fill-rule="evenodd"/><path d="m6.07353 11.8743c.32843-.2523.79929-.1907 1.05168.1377l.80458 1.047c.36928.4806.56948 1.0696.56948 1.6757v2.1406h-3.25781v-2.6981h1.62664c-.03569-.0716-.07837-.14-.12768-.2042l-.80458-1.047c-.2524-.3284-.19075-.7993.13769-1.0517z" fill="#6e5147"/><path d="m6.07353 11.8743c.32843-.2523.79929-.1907 1.05168.1377l.80458 1.047c.36928.4806.56948 1.0696.56948 1.6757v2.1406h-3.25781v-2.6981h1.62664c-.03569-.0716-.07837-.14-.12768-.2042l-.80458-1.047c-.2524-.3284-.19075-.7993.13769-1.0517z" fill="url(#T)"/><path d="m6.07353 11.8743c.32843-.2523.79929-.1907 1.05168.1377l.80458 1.047c.36928.4806.56948 1.0696.56948 1.6757v2.1406h-3.25781v-2.6981h1.62664c-.03569-.0716-.07837-.14-.12768-.2042l-.80458-1.047c-.2524-.3284-.19075-.7993.13769-1.0517z" fill="url(#U)"/><path d="m6.07353 11.8743c.32843-.2523.79929-.1907 1.05168.1377l.80458 1.047c.36928.4806.56948 1.0696.56948 1.6757v2.1406h-3.25781v-2.6981h1.62664c-.03569-.0716-.07837-.14-.12768-.2042l-.80458-1.047c-.2524-.3284-.19075-.7993.13769-1.0517z" fill="url(#V)"/><path d="m6.07353 11.8743c.32843-.2523.79929-.1907 1.05168.1377l.80458 1.047c.36928.4806.56948 1.0696.56948 1.6757v2.1406h-3.25781v-2.6981h1.62664c-.03569-.0716-.07837-.14-.12768-.2042l-.80458-1.047c-.2524-.3284-.19075-.7993.13769-1.0517z" fill="url(#W)"/><g filter="url(#d)"><path d="m26.2812 11.8743c-.3284-.2523-.7993-.1907-1.0517.1377l-.8046 1.047c-.3692.4806-.5694 1.0696-.5694 1.6757v2.1406h3.2578v-2.6981h-1.6267c.0357-.0716.0784-.14.1277-.2042l.8046-1.047c.2524-.3284.1907-.7993-.1377-1.0517z" fill="#816052"/><path d="m26.2812 11.8743c-.3284-.2523-.7993-.1907-1.0517.1377l-.8046 1.047c-.3692.4806-.5694 1.0696-.5694 1.6757v2.1406h3.2578v-2.6981h-1.6267c.0357-.0716.0784-.14.1277-.2042l.8046-1.047c.2524-.3284.1907-.7993-.1377-1.0517z" fill="url(#X)"/><path d="m26.2812 11.8743c-.3284-.2523-.7993-.1907-1.0517.1377l-.8046 1.047c-.3692.4806-.5694 1.0696-.5694 1.6757v2.1406h3.2578v-2.6981h-1.6267c.0357-.0716.0784-.14.1277-.2042l.8046-1.047c.2524-.3284.1907-.7993-.1377-1.0517z" fill="url(#Y)"/></g><g clip-rule="evenodd" fill-rule="evenodd"><path d="m28.7617 12.0666c-.3132-.2265-.7508-.1562-.9774.1571-.0445.0616-.088.1364-.1151.1829-.002.0035-.0039.0068-.0057.0099l-.001.0017c-.0336.0576-.0662.1135-.1047.1741-.0767.1205-.1707.2491-.2939.3698-.2326.228-.6075.4678-1.2667.5-.3861.0188-.6839.3471-.6651.7332s.3471.6839.7332.6651c1.0244-.0499 1.7179-.4468 2.1787-.8985.2235-.2191.3824-.4411.4949-.618.0534-.084.0978-.1601.1301-.2154.0013-.0024.0027-.0047.004-.0069.0285-.0489.0406-.0688.0445-.0753.0016-.0026.0013-.0022.0013-.0022.2266-.3133.1562-.7509-.1571-.9775z" fill="url(#aa)"/><path d="m28.7617 12.0666c-.3132-.2265-.7508-.1562-.9774.1571-.0445.0616-.088.1364-.1151.1829-.002.0035-.0039.0068-.0057.0099l-.001.0017c-.0336.0576-.0662.1135-.1047.1741-.0767.1205-.1707.2491-.2939.3698-.2326.228-.6075.4678-1.2667.5-.3861.0188-.6839.3471-.6651.7332s.3471.6839.7332.6651c1.0244-.0499 1.7179-.4468 2.1787-.8985.2235-.2191.3824-.4411.4949-.618.0534-.084.0978-.1601.1301-.2154.0013-.0024.0027-.0047.004-.0069.0285-.0489.0406-.0688.0445-.0753.0016-.0026.0013-.0022.0013-.0022.2266-.3133.1562-.7509-.1571-.9775z" fill="url(#ac)"/><path d="m28.7617 12.0666c-.3132-.2265-.7508-.1562-.9774.1571-.0445.0616-.088.1364-.1151.1829-.002.0035-.0039.0068-.0057.0099l-.001.0017c-.0336.0576-.0662.1135-.1047.1741-.0767.1205-.1707.2491-.2939.3698-.2326.228-.6075.4678-1.2667.5-.3861.0188-.6839.3471-.6651.7332s.3471.6839.7332.6651c1.0244-.0499 1.7179-.4468 2.1787-.8985.2235-.2191.3824-.4411.4949-.618.0534-.084.0978-.1601.1301-.2154.0013-.0024.0027-.0047.004-.0069.0285-.0489.0406-.0688.0445-.0753.0016-.0026.0013-.0022.0013-.0022.2266-.3133.1562-.7509-.1571-.9775z" fill="url(#ae)"/><path d="m28.7617 12.0666c-.3132-.2265-.7508-.1562-.9774.1571-.0445.0616-.088.1364-.1151.1829-.002.0035-.0039.0068-.0057.0099l-.001.0017c-.0336.0576-.0662.1135-.1047.1741-.0767.1205-.1707.2491-.2939.3698-.2326.228-.6075.4678-1.2667.5-.3861.0188-.6839.3471-.6651.7332s.3471.6839.7332.6651c1.0244-.0499 1.7179-.4468 2.1787-.8985.2235-.2191.3824-.4411.4949-.618.0534-.084.0978-.1601.1301-.2154.0013-.0024.0027-.0047.004-.0069.0285-.0489.0406-.0688.0445-.0753.0016-.0026.0013-.0022.0013-.0022.2266-.3133.1562-.7509-.1571-.9775z" fill="url(#ag)"/><path d="m29.8008 12.383c-.3133-.2265-.7509-.1561-.9774.1571-.034.0471-.072.1039-.1149.1681-.2615.391-.921 1.1134-1.7327 1.4608-.3554.1522-.5028.4488-.3203.875.1521.3554.7334.5027 1.0888.3506 1.2456-.5333 1.9345-1.603 2.1552-1.9458.0258-.04.0452-.0702.0584-.0883.2265-.3133.1562-.7509-.1571-.9775z" fill="url(#ah)"/><path d="m29.8008 12.383c-.3133-.2265-.7509-.1561-.9774.1571-.034.0471-.072.1039-.1149.1681-.2615.391-.921 1.1134-1.7327 1.4608-.3554.1522-.5028.4488-.3203.875.1521.3554.7334.5027 1.0888.3506 1.2456-.5333 1.9345-1.603 2.1552-1.9458.0258-.04.0452-.0702.0584-.0883.2265-.3133.1562-.7509-.1571-.9775z" fill="url(#ai)"/><path d="m29.8008 12.383c-.3133-.2265-.7509-.1561-.9774.1571-.034.0471-.072.1039-.1149.1681-.2615.391-.921 1.1134-1.7327 1.4608-.3554.1522-.5028.4488-.3203.875.1521.3554.7334.5027 1.0888.3506 1.2456-.5333 1.9345-1.603 2.1552-1.9458.0258-.04.0452-.0702.0584-.0883.2265-.3133.1562-.7509-.1571-.9775z" fill="url(#aj)"/><path d="m29.8008 12.383c-.3133-.2265-.7509-.1561-.9774.1571-.034.0471-.072.1039-.1149.1681-.2615.391-.921 1.1134-1.7327 1.4608-.3554.1522-.5028.4488-.3203.875.1521.3554.7334.5027 1.0888.3506 1.2456-.5333 1.9345-1.603 2.1552-1.9458.0258-.04.0452-.0702.0584-.0883.2265-.3133.1562-.7509-.1571-.9775z" fill="url(#ak)"/><path d="m29.8331 13.4051c-.3097-.2314-.7484-.1679-.9798.1418-.0274.0367-.056.0766-.0863.1186-.3014.4192-.7632 1.0613-1.7787 1.0613-.3866 0-.7.3134-.7.7s.3134.7.7.7c1.7754 0 2.6367-1.2399 2.9244-1.6541.025-.0359.0456-.0657.0622-.0878.2314-.3097.1679-.7484-.1418-.9798z" fill="url(#al)"/><path d="m29.8331 13.4051c-.3097-.2314-.7484-.1679-.9798.1418-.0274.0367-.056.0766-.0863.1186-.3014.4192-.7632 1.0613-1.7787 1.0613-.3866 0-.7.3134-.7.7s.3134.7.7.7c1.7754 0 2.6367-1.2399 2.9244-1.6541.025-.0359.0456-.0657.0622-.0878.2314-.3097.1679-.7484-.1418-.9798z" fill="url(#am)"/><path d="m29.8331 13.4051c-.3097-.2314-.7484-.1679-.9798.1418-.0274.0367-.056.0766-.0863.1186-.3014.4192-.7632 1.0613-1.7787 1.0613-.3866 0-.7.3134-.7.7s.3134.7.7.7c1.7754 0 2.6367-1.2399 2.9244-1.6541.025-.0359.0456-.0657.0622-.0878.2314-.3097.1679-.7484-.1418-.9798z" fill="url(#an)"/><path d="m29.8331 13.4051c-.3097-.2314-.7484-.1679-.9798.1418-.0274.0367-.056.0766-.0863.1186-.3014.4192-.7632 1.0613-1.7787 1.0613-.3866 0-.7.3134-.7.7s.3134.7.7.7c1.7754 0 2.6367-1.2399 2.9244-1.6541.025-.0359.0456-.0657.0622-.0878.2314-.3097.1679-.7484-.1418-.9798z" fill="url(#ao)"/><path d="m29.5206 14.4364c-.3097-.2314-.7484-.1679-.9798.1418-.181.2422-.6532.8401-1.8728.8401-.3866 0-.7.3134-.7.7s.3134.7.7.7c1.8273 0 2.6675-.9647 2.9944-1.4022.2314-.3097.1679-.7483-.1418-.9797z" fill="url(#ap)"/><path d="m29.5206 14.4364c-.3097-.2314-.7484-.1679-.9798.1418-.181.2422-.6532.8401-1.8728.8401-.3866 0-.7.3134-.7.7s.3134.7.7.7c1.8273 0 2.6675-.9647 2.9944-1.4022.2314-.3097.1679-.7483-.1418-.9797z" fill="url(#aq)"/><path d="m29.5206 14.4364c-.3097-.2314-.7484-.1679-.9798.1418-.181.2422-.6532.8401-1.8728.8401-.3866 0-.7.3134-.7.7s.3134.7.7.7c1.8273 0 2.6675-.9647 2.9944-1.4022.2314-.3097.1679-.7483-.1418-.9797z" fill="url(#ar)"/><path d="m29.5206 14.4364c-.3097-.2314-.7484-.1679-.9798.1418-.181.2422-.6532.8401-1.8728.8401-.3866 0-.7.3134-.7.7s.3134.7.7.7c1.8273 0 2.6675-.9647 2.9944-1.4022.2314-.3097.1679-.7483-.1418-.9797z" fill="url(#as)"/></g><g filter="url(#e)"><path d="m3.27271 14.7939c.29339.4519 1.12168 1.2579 2.4314 1.2579" stroke="url(#at)" stroke-linecap="round" stroke-width=".4"/></g><g filter="url(#f)"><path d="m6.44995 16.2036h.99801c.22638 0 .44348.0899.60355.25" stroke="url(#au)" stroke-linecap="round" stroke-width=".4"/></g><g filter="url(#g)"><path d="m25.7234 16.1099h1.5156c.0938.0156.3313.0031.5313-.1719" stroke="#94716a" stroke-linecap="round" stroke-width=".2"/></g><path d="m27.092 17.0154c0-.1381-.1119-.25-.25-.25h-2.9296c-.1381 0-.25.1119-.25.25v1.318h3.4296z" fill="url(#av)"/><path d="m27.092 17.0154c0-.1381-.1119-.25-.25-.25h-2.9296c-.1381 0-.25.1119-.25.25v1.318h3.4296z" fill="url(#aw)"/><path d="m5.15771 17.0154c0-.1381.11193-.25.25-.25h2.92969c.13807 0 .25.1119.25.25v1.1305h-3.42969z" fill="url(#ax)"/><path d="m5.15771 17.0154c0-.1381.11193-.25.25-.25h2.92969c.13807 0 .25.1119.25.25v1.1305h-3.42969z" fill="url(#ay)"/><path d="m5.15771 17.0154c0-.1381.11193-.25.25-.25h2.92969c.13807 0 .25.1119.25.25v1.1305h-3.42969z" fill="url(#az)"/><g filter="url(#h)"><path d="m9.48386 21.244c-.16666.0965-.3753-.0237-.3753-.2163v-2.5631c0-.3314-.26863-.6-.6-.6h-3.28438c-.33137 0-.6.2686-.6.6v4.2858c-.00521.849.11196 2.5072 1.48438 3.3829 1.14858.7328 2.50054.5695 3.21321.347.10129-.0316.20866.0418.20866.1479v3.7066c0 .0829.06715.15.15.15h12.99397c.0828 0 .15-.0671.15-.15v-3.7066c0-.1061.1073-.1795.2086-.1479.7127.2225 2.0647.3858 3.2133-.347 1.3724-.8757 1.4895-2.5339 1.4843-3.3829v-4.2858c0-.3314-.2686-.6-.6-.6h-3.2843c-.3314 0-.6.2686-.6.6v2.5631c0 .1926-.2087.3128-.3753.2163l-6.6936-3.9317z" fill="url(#aA)"/><path d="m9.48386 21.244c-.16666.0965-.3753-.0237-.3753-.2163v-2.5631c0-.3314-.26863-.6-.6-.6h-3.28438c-.33137 0-.6.2686-.6.6v4.2858c-.00521.849.11196 2.5072 1.48438 3.3829 1.14858.7328 2.50054.5695 3.21321.347.10129-.0316.20866.0418.20866.1479v3.7066c0 .0829.06715.15.15.15h12.99397c.0828 0 .15-.0671.15-.15v-3.7066c0-.1061.1073-.1795.2086-.1479.7127.2225 2.0647.3858 3.2133-.347 1.3724-.8757 1.4895-2.5339 1.4843-3.3829v-4.2858c0-.3314-.2686-.6-.6-.6h-3.2843c-.3314 0-.6.2686-.6.6v2.5631c0 .1926-.2087.3128-.3753.2163l-6.6936-3.9317z" fill="url(#aB)"/><path d="m9.48386 21.244c-.16666.0965-.3753-.0237-.3753-.2163v-2.5631c0-.3314-.26863-.6-.6-.6h-3.28438c-.33137 0-.6.2686-.6.6v4.2858c-.00521.849.11196 2.5072 1.48438 3.3829 1.14858.7328 2.50054.5695 3.21321.347.10129-.0316.20866.0418.20866.1479v3.7066c0 .0829.06715.15.15.15h12.99397c.0828 0 .15-.0671.15-.15v-3.7066c0-.1061.1073-.1795.2086-.1479.7127.2225 2.0647.3858 3.2133-.347 1.3724-.8757 1.4895-2.5339 1.4843-3.3829v-4.2858c0-.3314-.2686-.6-.6-.6h-3.2843c-.3314 0-.6.2686-.6.6v2.5631c0 .1926-.2087.3128-.3753.2163l-6.6936-3.9317z" fill="url(#aC)"/><path d="m9.48386 21.244c-.16666.0965-.3753-.0237-.3753-.2163v-2.5631c0-.3314-.26863-.6-.6-.6h-3.28438c-.33137 0-.6.2686-.6.6v4.2858c-.00521.849.11196 2.5072 1.48438 3.3829 1.14858.7328 2.50054.5695 3.21321.347.10129-.0316.20866.0418.20866.1479v3.7066c0 .0829.06715.15.15.15h12.99397c.0828 0 .15-.0671.15-.15v-3.7066c0-.1061.1073-.1795.2086-.1479.7127.2225 2.0647.3858 3.2133-.347 1.3724-.8757 1.4895-2.5339 1.4843-3.3829v-4.2858c0-.3314-.2686-.6-.6-.6h-3.2843c-.3314 0-.6.2686-.6.6v2.5631c0 .1926-.2087.3128-.3753.2163l-6.6936-3.9317z" fill="url(#aD)"/><path d="m9.48386 21.244c-.16666.0965-.3753-.0237-.3753-.2163v-2.5631c0-.3314-.26863-.6-.6-.6h-3.28438c-.33137 0-.6.2686-.6.6v4.2858c-.00521.849.11196 2.5072 1.48438 3.3829 1.14858.7328 2.50054.5695 3.21321.347.10129-.0316.20866.0418.20866.1479v3.7066c0 .0829.06715.15.15.15h12.99397c.0828 0 .15-.0671.15-.15v-3.7066c0-.1061.1073-.1795.2086-.1479.7127.2225 2.0647.3858 3.2133-.347 1.3724-.8757 1.4895-2.5339 1.4843-3.3829v-4.2858c0-.3314-.2686-.6-.6-.6h-3.2843c-.3314 0-.6.2686-.6.6v2.5631c0 .1926-.2087.3128-.3753.2163l-6.6936-3.9317z" fill="url(#aE)"/></g><path d="m16.0253 21.4186c-1.1043 0-2-.9499-2-1.8671v-2.3585c0-.9172.8957-1.6613 2-1.6613 1.1042 0 2 .7441 2 1.6613v2.3585c0 .9172-.8958 1.8671-2 1.8671z" fill="url(#aF)"/><path d="m16.0253 21.4186c-1.1043 0-2-.9499-2-1.8671v-2.3585c0-.9172.8957-1.6613 2-1.6613 1.1042 0 2 .7441 2 1.6613v2.3585c0 .9172-.8958 1.8671-2 1.8671z" fill="url(#aG)"/><g filter="url(#i)"><path d="m7.35962 19.3333v3.4418c0 .8053.90338 1.2803 1.56685.8238l1.83943-1.2656" stroke="#40a1ff" stroke-linecap="square" stroke-width="1.5"/></g><g filter="url(#j)"><path d="m26.1343 18.7532v3.9905c0 .8054-.9034 1.2804-1.5669.8239l-1.8394-1.2657" stroke="#4abeff" stroke-linecap="square"/></g><g filter="url(#k)"><path d="m9.8595 26.0154c.1771-1.1459.9562-3.8813 2.6562-5.6563" stroke="url(#aH)" stroke-linecap="round" stroke-width=".3"/></g><g filter="url(#l)"><path d="m21.2097 22.4932 1.5425 3.6709c1.2064.4394 2.5334.2025 2.8436 0z" fill="url(#aI)"/></g><g filter="url(#m)"><circle cx="11.155" cy="13.658" fill="url(#aJ)" r="1.56" transform="matrix(.99700361 -.07735505 .07735505 .99700361 -1.023105 .90386)"/></g><g filter="url(#n)"><circle cx="11.155" cy="13.658" fill="url(#aK)" r=".93" transform="matrix(.99700361 -.07735505 .07735505 .99700361 -1.023112 .90386)"/></g><g filter="url(#o)"><circle cx="20.016" cy="12.971" fill="url(#aL)" r="1.56" transform="matrix(.99700361 -.07735505 .07735505 .99700361 -.943372 1.587235)"/><circle cx="20.016" cy="12.971" fill="url(#aM)" r="1.56" transform="matrix(.99700361 -.07735505 .07735505 .99700361 -.943372 1.587235)"/></g><g filter="url(#p)"><circle cx="20.017" cy="12.971" fill="#7a5654" r=".93" transform="matrix(.99700361 -.07735505 .07735505 .99700361 -.94338 1.587243)"/><circle cx="20.017" cy="12.971" fill="url(#aN)" r=".93" transform="matrix(.99700361 -.07735505 .07735505 .99700361 -.94338 1.587243)"/><circle cx="20.017" cy="12.971" fill="url(#aO)" r=".93" transform="matrix(.99700361 -.07735505 .07735505 .99700361 -.94338 1.587243)"/></g><g filter="url(#q)"><path d="m10.7835 13.1131c.0151-.0002.0304-.0008.0458-.002 0 0-.1116-.791-.204-1.3335-.0193-.2484.0575-.5542.2458-.7188l.1383-.1606c.2344-.2181.3112-.5239.2881-.822l-.0617-.79482c-.0192-.24839.1152-.45872.3612-.52778.5879-.19555 1.8177-.54084 3.6163-.68039s3.0669.01193 3.678.11444c.2037.03417.419.21737.4382.46575l.0617.79483c.0231.29806.1961.58447.4114.76767.4931.2914.4779.4739.4691.8632-.0115.5006.0041 1.349.0041 1.349.0057-.0004.0113-.0009.0168-.0015l.0385 3.7062c-.0216 1.6599-1.2283 2.9092-2.7732 3.029l-2.9902.232c-1.5948.1238-2.9299-.9283-3.2073-2.565z" fill="url(#aP)"/><path d="m10.7835 13.1131c.0151-.0002.0304-.0008.0458-.002 0 0-.1116-.791-.204-1.3335-.0193-.2484.0575-.5542.2458-.7188l.1383-.1606c.2344-.2181.3112-.5239.2881-.822l-.0617-.79482c-.0192-.24839.1152-.45872.3612-.52778.5879-.19555 1.8177-.54084 3.6163-.68039s3.0669.01193 3.678.11444c.2037.03417.419.21737.4382.46575l.0617.79483c.0231.29806.1961.58447.4114.76767.4931.2914.4779.4739.4691.8632-.0115.5006.0041 1.349.0041 1.349.0057-.0004.0113-.0009.0168-.0015l.0385 3.7062c-.0216 1.6599-1.2283 2.9092-2.7732 3.029l-2.9902.232c-1.5948.1238-2.9299-.9283-3.2073-2.565z" fill="url(#aQ)"/><path d="m10.7835 13.1131c.0151-.0002.0304-.0008.0458-.002 0 0-.1116-.791-.204-1.3335-.0193-.2484.0575-.5542.2458-.7188l.1383-.1606c.2344-.2181.3112-.5239.2881-.822l-.0617-.79482c-.0192-.24839.1152-.45872.3612-.52778.5879-.19555 1.8177-.54084 3.6163-.68039s3.0669.01193 3.678.11444c.2037.03417.419.21737.4382.46575l.0617.79483c.0231.29806.1961.58447.4114.76767.4931.2914.4779.4739.4691.8632-.0115.5006.0041 1.349.0041 1.349.0057-.0004.0113-.0009.0168-.0015l.0385 3.7062c-.0216 1.6599-1.2283 2.9092-2.7732 3.029l-2.9902.232c-1.5948.1238-2.9299-.9283-3.2073-2.565z" fill="url(#aR)"/></g><path d="m10.6253 11.7776c-.0193-.2484.0575-.5542.2458-.7188l.1383-.1606c.2344-.2181.3112-.5239.2881-.822l-.0617-.79482c-.0192-.24839.1152-.45872.3612-.52778.5879-.19555 1.8177-.54084 3.6163-.68039s3.0669.01193 3.678.11444c.2037.03417.419.21737.4382.46575l.0617.79483c.0231.29806.1961.58447.4114.76767.4931.2914.4779.4739.4691.8632-.0115.5006.0041 1.349.0041 1.349.0057-.0004.0113-.0009.0168-.0015l.0385 3.7062c-.0216 1.6599-1.2283 2.9092-2.7732 3.029l-2.9902.232c-1.5948.1238-2.9299-.9283-3.2073-2.565-.2611-1.6818-.4496-3.3742-.7351-5.0512z" fill="url(#aS)"/><path d="m10.6253 11.7776c-.0193-.2484.0575-.5542.2458-.7188l.1383-.1606c.2344-.2181.3112-.5239.2881-.822l-.0617-.79482c-.0192-.24839.1152-.45872.3612-.52778.5879-.19555 1.8177-.54084 3.6163-.68039s3.0669.01193 3.678.11444c.2037.03417.419.21737.4382.46575l.0617.79483c.0231.29806.1961.58447.4114.76767.4931.2914.4779.4739.4691.8632-.0115.5006.0041 1.349.0041 1.349.0057-.0004.0113-.0009.0168-.0015l.0385 3.7062c-.0216 1.6599-1.2283 2.9092-2.7732 3.029l-2.9902.232c-1.5948.1238-2.9299-.9283-3.2073-2.565-.2611-1.6818-.4496-3.3742-.7351-5.0512z" fill="url(#aT)"/><path d="m10.6253 11.7776c-.0193-.2484.0575-.5542.2458-.7188l.1383-.1606c.2344-.2181.3112-.5239.2881-.822l-.0617-.79482c-.0192-.24839.1152-.45872.3612-.52778.5879-.19555 1.8177-.54084 3.6163-.68039s3.0669.01193 3.678.11444c.2037.03417.419.21737.4382.46575l.0617.79483c.0231.29806.1961.58447.4114.76767.4931.2914.4779.4739.4691.8632-.0115.5006.0041 1.349.0041 1.349.0057-.0004.0113-.0009.0168-.0015l.0385 3.7062c-.0216 1.6599-1.2283 2.9092-2.7732 3.029l-2.9902.232c-1.5948.1238-2.9299-.9283-3.2073-2.565-.2611-1.6818-.4496-3.3742-.7351-5.0512z" fill="url(#aU)"/><g filter="url(#r)"><path d="m18.8632 7.78986-2.7923 1.17805c-.4754.20058-.7133.73591-.5436 1.22319.1623.4658.646.7379 1.1283.6349l2.8204-.6027z" fill="url(#aV)"/></g><g filter="url(#s)"><path d="m19.5981 6.93332.4151.1677c.7265.29346 1.1878 1.05728 1.1035 1.91341l-.3299 2.87417c-.0263.2963-.2044.5081-.4942.5379-.0056.0006-.0112.0011-.0168.0015 0 0-.0156-.8484-.0042-1.349.0093-.4066-.0707-.5241-.469-.8632-.2153-.1832-.3883-.46961-.4114-.76767l-.0617-.79482c-.0193-.24838-.2345-.43159-.4382-.46576-.6111-.10251-1.8794-.25398-3.678-.11444-1.7986.13955-3.0284.48485-3.6164.68039-.2459.06906-.3804.2794-.3611.52778l.0617.79482c.0231.2981-.0537.6039-.2881.822l-.1383.1606c-.1883.1646-.2651.4704-.2458.7188.0923.5425.204 1.3335.204 1.3335-.0154.0012-.0307.0018-.0459.002-.2806.0025-.5229-.1731-.5922-.4523l-.76929-2.78888c-.16159-.78707.17643-1.61291.84889-2.01491l.3843-.22972c.2382-.16841.4726-.3865.707-.60459l.8261-1.01363c.511-.53941 1.2988-.75046 2.0253-.45699.5111.11027 1.0607.06763 1.5488-.12017.7301-.30653 1.5949-.17372 2.2368.32621l.8072.687c.2191.23288.4805.36253.7918.4883z" fill="#27151c"/><path d="m19.5981 6.93332.4151.1677c.7265.29346 1.1878 1.05728 1.1035 1.91341l-.3299 2.87417c-.0263.2963-.2044.5081-.4942.5379-.0056.0006-.0112.0011-.0168.0015 0 0-.0156-.8484-.0042-1.349.0093-.4066-.0707-.5241-.469-.8632-.2153-.1832-.3883-.46961-.4114-.76767l-.0617-.79482c-.0193-.24838-.2345-.43159-.4382-.46576-.6111-.10251-1.8794-.25398-3.678-.11444-1.7986.13955-3.0284.48485-3.6164.68039-.2459.06906-.3804.2794-.3611.52778l.0617.79482c.0231.2981-.0537.6039-.2881.822l-.1383.1606c-.1883.1646-.2651.4704-.2458.7188.0923.5425.204 1.3335.204 1.3335-.0154.0012-.0307.0018-.0459.002-.2806.0025-.5229-.1731-.5922-.4523l-.76929-2.78888c-.16159-.78707.17643-1.61291.84889-2.01491l.3843-.22972c.2382-.16841.4726-.3865.707-.60459l.8261-1.01363c.511-.53941 1.2988-.75046 2.0253-.45699.5111.11027 1.0607.06763 1.5488-.12017.7301-.30653 1.5949-.17372 2.2368.32621l.8072.687c.2191.23288.4805.36253.7918.4883z" fill="url(#aW)"/><path d="m19.5981 6.93332.4151.1677c.7265.29346 1.1878 1.05728 1.1035 1.91341l-.3299 2.87417c-.0263.2963-.2044.5081-.4942.5379-.0056.0006-.0112.0011-.0168.0015 0 0-.0156-.8484-.0042-1.349.0093-.4066-.0707-.5241-.469-.8632-.2153-.1832-.3883-.46961-.4114-.76767l-.0617-.79482c-.0193-.24838-.2345-.43159-.4382-.46576-.6111-.10251-1.8794-.25398-3.678-.11444-1.7986.13955-3.0284.48485-3.6164.68039-.2459.06906-.3804.2794-.3611.52778l.0617.79482c.0231.2981-.0537.6039-.2881.822l-.1383.1606c-.1883.1646-.2651.4704-.2458.7188.0923.5425.204 1.3335.204 1.3335-.0154.0012-.0307.0018-.0459.002-.2806.0025-.5229-.1731-.5922-.4523l-.76929-2.78888c-.16159-.78707.17643-1.61291.84889-2.01491l.3843-.22972c.2382-.16841.4726-.3865.707-.60459l.8261-1.01363c.511-.53941 1.2988-.75046 2.0253-.45699.5111.11027 1.0607.06763 1.5488-.12017.7301-.30653 1.5949-.17372 2.2368.32621l.8072.687c.2191.23288.4805.36253.7918.4883z" fill="url(#aX)"/><path d="m19.5981 6.93332.4151.1677c.7265.29346 1.1878 1.05728 1.1035 1.91341l-.3299 2.87417c-.0263.2963-.2044.5081-.4942.5379-.0056.0006-.0112.0011-.0168.0015 0 0-.0156-.8484-.0042-1.349.0093-.4066-.0707-.5241-.469-.8632-.2153-.1832-.3883-.46961-.4114-.76767l-.0617-.79482c-.0193-.24838-.2345-.43159-.4382-.46576-.6111-.10251-1.8794-.25398-3.678-.11444-1.7986.13955-3.0284.48485-3.6164.68039-.2459.06906-.3804.2794-.3611.52778l.0617.79482c.0231.2981-.0537.6039-.2881.822l-.1383.1606c-.1883.1646-.2651.4704-.2458.7188.0923.5425.204 1.3335.204 1.3335-.0154.0012-.0307.0018-.0459.002-.2806.0025-.5229-.1731-.5922-.4523l-.76929-2.78888c-.16159-.78707.17643-1.61291.84889-2.01491l.3843-.22972c.2382-.16841.4726-.3865.707-.60459l.8261-1.01363c.511-.53941 1.2988-.75046 2.0253-.45699.5111.11027 1.0607.06763 1.5488-.12017.7301-.30653 1.5949-.17372 2.2368.32621l.8072.687c.2191.23288.4805.36253.7918.4883z" fill="url(#aY)"/><path d="m19.5981 6.93332.4151.1677c.7265.29346 1.1878 1.05728 1.1035 1.91341l-.3299 2.87417c-.0263.2963-.2044.5081-.4942.5379-.0056.0006-.0112.0011-.0168.0015 0 0-.0156-.8484-.0042-1.349.0093-.4066-.0707-.5241-.469-.8632-.2153-.1832-.3883-.46961-.4114-.76767l-.0617-.79482c-.0193-.24838-.2345-.43159-.4382-.46576-.6111-.10251-1.8794-.25398-3.678-.11444-1.7986.13955-3.0284.48485-3.6164.68039-.2459.06906-.3804.2794-.3611.52778l.0617.79482c.0231.2981-.0537.6039-.2881.822l-.1383.1606c-.1883.1646-.2651.4704-.2458.7188.0923.5425.204 1.3335.204 1.3335-.0154.0012-.0307.0018-.0459.002-.2806.0025-.5229-.1731-.5922-.4523l-.76929-2.78888c-.16159-.78707.17643-1.61291.84889-2.01491l.3843-.22972c.2382-.16841.4726-.3865.707-.60459l.8261-1.01363c.511-.53941 1.2988-.75046 2.0253-.45699.5111.11027 1.0607.06763 1.5488-.12017.7301-.30653 1.5949-.17372 2.2368.32621l.8072.687c.2191.23288.4805.36253.7918.4883z" fill="url(#aZ)"/></g><g filter="url(#t)"><path d="m15.3125 13.2211-.6412 1.6423c-.0695.333.1831.641.5051.616l.6867-.0533c.322-.0249.5237-.3732.4041-.6865l-.5869-1.547c-.1267-.343-.2908-.3303-.3678.0285z" fill="#71404a"/></g><g filter="url(#u)"><path d="m15.2013 13.0771-.3721 1.6214c-.0757.3335.1919.6403.5353.6137l.7323-.0568c.3434-.0267.5602-.3761.4343-.6889l-.6178-1.5447c-.1332-.3424-.6281-.304-.712.0553z" fill="#8c5f5e"/><path d="m15.2013 13.0771-.3721 1.6214c-.0757.3335.1919.6403.5353.6137l.7323-.0568c.3434-.0267.5602-.3761.4343-.6889l-.6178-1.5447c-.1332-.3424-.6281-.304-.712.0553z" fill="url(#a0)"/><path d="m15.2013 13.0771-.3721 1.6214c-.0757.3335.1919.6403.5353.6137l.7323-.0568c.3434-.0267.5602-.3761.4343-.6889l-.6178-1.5447c-.1332-.3424-.6281-.304-.712.0553z" fill="url(#a1)"/><path d="m15.2013 13.0771-.3721 1.6214c-.0757.3335.1919.6403.5353.6137l.7323-.0568c.3434-.0267.5602-.3761.4343-.6889l-.6178-1.5447c-.1332-.3424-.6281-.304-.712.0553z" fill="url(#a2)"/><path d="m15.2013 13.0771-.3721 1.6214c-.0757.3335.1919.6403.5353.6137l.7323-.0568c.3434-.0267.5602-.3761.4343-.6889l-.6178-1.5447c-.1332-.3424-.6281-.304-.712.0553z" fill="url(#a3)"/></g><path d="m15.2013 13.0771-.3721 1.6214c-.0757.3335.1919.6403.5353.6137l.7323-.0568c.3434-.0267.5602-.3761.4343-.6889l-.6178-1.5447c-.1332-.3424-.6281-.304-.712.0553z" fill="url(#a4)"/><g filter="url(#v)"><path d="m18.8458 10.5129-.0012-.0009-.0018-.0013-.0045-.0031-.0118-.008c-.0093-.0061-.0211-.0138-.0355-.0227-.0287-.0178-.0678-.0407-.1166-.0662-.0972-.0509-.2345-.1131-.4061-.166-.3447-.1063-.8304-.1757-1.4018-.0395-.2679.0639-.4332.3328-.3694.6006.0639.2679.3328.4332.6006.3694.366-.0873.668-.042.8768.0224.105.0324.1859.0695.2376.0966.0257.0134.0438.0242.0536.0303.0041.0025.0067.0042.0078.0049.2242.1555.5323.1019.6907-.1211.1594-.2245.1062-.5361-.1184-.6954z" fill="#352827"/><path d="m18.8458 10.5129-.0012-.0009-.0018-.0013-.0045-.0031-.0118-.008c-.0093-.0061-.0211-.0138-.0355-.0227-.0287-.0178-.0678-.0407-.1166-.0662-.0972-.0509-.2345-.1131-.4061-.166-.3447-.1063-.8304-.1757-1.4018-.0395-.2679.0639-.4332.3328-.3694.6006.0639.2679.3328.4332.6006.3694.366-.0873.668-.042.8768.0224.105.0324.1859.0695.2376.0966.0257.0134.0438.0242.0536.0303.0041.0025.0067.0042.0078.0049.2242.1555.5323.1019.6907-.1211.1594-.2245.1062-.5361-.1184-.6954z" fill="url(#a6)"/></g><g filter="url(#w)"><path d="m11.8664 11.0547.0007-.0006.0007-.0008.0016-.0015.004-.0037.0104-.0098c.0082-.0075.0187-.0169.0315-.0279.0257-.0221.0608-.0507.105-.0834.0882-.0653.2143-.1479.3757-.2267.3241-.1581.7934-.3016 1.3789-.2552.2745.0218.4794.262.4576.5365s-.2619.4793-.5364.4576c-.3751-.0298-.6665.0615-.8628.1573-.0988.0482-.173.0974-.2199.1321-.0233.0173-.0395.0307-.0483.0382-.0036.0031-.0059.0052-.0069.0061-.1975.1882-.5103.1828-.7011-.0131-.1921-.1973-.188-.513.0093-.7051z" fill="#352827"/><path d="m11.8664 11.0547.0007-.0006.0007-.0008.0016-.0015.004-.0037.0104-.0098c.0082-.0075.0187-.0169.0315-.0279.0257-.0221.0608-.0507.105-.0834.0882-.0653.2143-.1479.3757-.2267.3241-.1581.7934-.3016 1.3789-.2552.2745.0218.4794.262.4576.5365s-.2619.4793-.5364.4576c-.3751-.0298-.6665.0615-.8628.1573-.0988.0482-.173.0974-.2199.1321-.0233.0173-.0395.0307-.0483.0382-.0036.0031-.0059.0052-.0069.0061-.1975.1882-.5103.1828-.7011-.0131-.1921-.1973-.188-.513.0093-.7051z" fill="url(#a7)"/></g><path d="m17.6985 11.81c.6082-.0471 1.1545.3323 1.3382.8881.0541.1592-.0585.3238-.2247.3366l-2.0777.1612c-.1322.0103-.2473-.1024-.2311-.2366.0708-.606.5607-1.1 1.1953-1.1493z" fill="#fff"/><path d="m17.5255 12.078c.4609-.0357.8601.3095.8955.7666.0059.0756.0004.152-.0132.2215l-1.6054.1245c-.0245-.0703-.0414-.1412-.0472-.2167-.0355-.4571.3095-.8601.7703-.8959z" fill="url(#a9)"/><path d="m17.114 12.9459c-.0206-.2644.1746-.4923.439-.5129.2644-.0205.4924.1747.5129.4391.0062.0793-.0069.1563-.0359.2232l-.8424.0653c-.0427-.0612-.0675-.1353-.0736-.2147z" fill="#000"/><g filter="url(#x)"><path d="m17.4779 12.2585c.0653.0746-.0509.1807-.1835.2968-.1325.1162-.2312.1983-.2966.1237-.0653-.0746-.0108-.2292.1217-.3453.1326-.1162.293-.1498.3584-.0752z" fill="#c7a7a3"/><path d="m17.4779 12.2585c.0653.0746-.0509.1807-.1835.2968-.1325.1162-.2312.1983-.2966.1237-.0653-.0746-.0108-.2292.1217-.3453.1326-.1162.293-.1498.3584-.0752z" fill="url(#bb)"/></g><g filter="url(#y)"><path d="m18.3218 12.7423c-.0474-.2125-.1856-.3646-.2489-.4142l-.2214.2844.1257.204z" fill="url(#bd)"/></g><path d="m13.2455 12.1554c-.6082.0472-1.0894.5064-1.1852 1.0839-.029.1656.1077.3109.2739.298l2.0778-.1613c.1322-.0102.2286-.1393.1919-.2695-.1634-.5878-.7275-1.0001-1.3584-.9511z" fill="#fff"/><path d="m13.4578 12.3935c-.4609.0358-.8021.4385-.7666.8956.0059.0756.023.1502.0472.2168l1.6056-.1246c.0133-.0732.019-.1459.0132-.2215-.0393-.4568-.4385-.802-.8994-.7663z" fill="url(#be)"/><path d="m13.9983 13.1878c-.0205-.2645-.2485-.4596-.5129-.4391s-.4596.2485-.4391.5129c.0062.0794.0309.1535.0699.215l.8425-.0653c.029-.0669.0458-.1442.0396-.2235z" fill="#000"/><g filter="url(#z)"><path d="m14.274 13.0683c-.0208-.2686-.2531-.4307-.3163-.4803l-.2485.2806.1914.3236z" fill="url(#bf)"/></g><g filter="url(#A)"><ellipse cx="13.235" cy="12.768" fill="#c7a7a3" fill-opacity=".9" rx=".364" ry=".184" transform="matrix(.8447896 -.53509862 .53509862 .8447896 -4.778099 9.063574)"/><ellipse cx="13.235" cy="12.768" fill="url(#bg)" rx=".364" ry=".184" transform="matrix(.8447896 -.53509862 .53509862 .8447896 -4.778099 9.063574)"/></g><g filter="url(#B)"><path d="m16.9176 10.5271c.3951-.1012 1.1778-.1418 1.7513.2369" stroke="url(#bi)" stroke-linecap="round" stroke-width=".25"/></g><g filter="url(#C)"><path d="m12.0935 11.3872c.2838-.293.9272-.6282 1.7623-.5607" stroke="url(#bj)" stroke-linecap="round" stroke-width=".25"/></g><g filter="url(#D)"><path d="m11.0081 9.16128.0649.83599c.0034.13903-.0308.45313-.1955.59783" stroke="url(#bk)" stroke-linecap="round" stroke-width=".25"/></g><g filter="url(#E)"><ellipse cx="15.863" cy="16.615" rx=".734" ry=".755" stroke="url(#bl)" stroke-width=".2"/></g><ellipse cx="15.863" cy="16.615" fill="#87004d" rx=".734" ry=".755"/></svg>