<svg fill="none" height="32" viewBox="0 0 32 32" width="32" xmlns="http://www.w3.org/2000/svg" xmlns:xlink="http://www.w3.org/1999/xlink"><filter id="a" color-interpolation-filters="sRGB" filterUnits="userSpaceOnUse" height="21.793" width="15.887" x="1.113" y="8.146"><feFlood flood-opacity="0" result="BackgroundImageFix"/><feBlend in="SourceGraphic" in2="BackgroundImageFix" mode="normal" result="shape"/><feColorMatrix in="SourceAlpha" result="hardAlpha" type="matrix" values="0 0 0 0 0 0 0 0 0 0 0 0 0 0 0 0 0 0 127 0"/><feOffset dx="1" dy="-1"/><feGaussianBlur stdDeviation="1.25"/><feComposite in2="hardAlpha" k2="-1" k3="1" operator="arithmetic"/><feColorMatrix type="matrix" values="0 0 0 0 0.458824 0 0 0 0 0.278431 0 0 0 0 0.301961 0 0 0 1 0"/><feBlend in2="shape" mode="normal" result="effect1_innerShadow_20020_3881"/><feColorMatrix in="SourceAlpha" result="hardAlpha" type="matrix" values="0 0 0 0 0 0 0 0 0 0 0 0 0 0 0 0 0 0 127 0"/><feOffset dx=".1" dy="-.1"/><feGaussianBlur stdDeviation=".5"/><feComposite in2="hardAlpha" k2="-1" k3="1" operator="arithmetic"/><feColorMatrix type="matrix" values="0 0 0 0 0.517647 0 0 0 0 0.364706 0 0 0 0 0.352941 0 0 0 1 0"/><feBlend in2="effect1_innerShadow_20020_3881" mode="normal" result="effect2_innerShadow_20020_3881"/></filter><filter id="b" color-interpolation-filters="sRGB" filterUnits="userSpaceOnUse" height="10.003" width="2.833" x="4.201" y="11.249"><feFlood flood-opacity="0" result="BackgroundImageFix"/><feBlend in="SourceGraphic" in2="BackgroundImageFix" mode="normal" result="shape"/><feGaussianBlur result="effect1_foregroundBlur_20020_3881" stdDeviation=".25"/></filter><filter id="c" color-interpolation-filters="sRGB" filterUnits="userSpaceOnUse" height="9.793" width="2.063" x="7.663" y="9.593"><feFlood flood-opacity="0" result="BackgroundImageFix"/><feBlend in="SourceGraphic" in2="BackgroundImageFix" mode="normal" result="shape"/><feGaussianBlur result="effect1_foregroundBlur_20020_3881" stdDeviation=".25"/></filter><filter id="d" color-interpolation-filters="sRGB" filterUnits="userSpaceOnUse" height="16.977" width="6.045" x="10.723" y="12.614"><feFlood flood-opacity="0" result="BackgroundImageFix"/><feBlend in="SourceGraphic" in2="BackgroundImageFix" mode="normal" result="shape"/><feGaussianBlur result="effect1_foregroundBlur_20020_3881" stdDeviation=".625"/></filter><filter id="e" color-interpolation-filters="sRGB" filterUnits="userSpaceOnUse" height="5.166" width="11.477" x="4.28" y="17.16"><feFlood flood-opacity="0" result="BackgroundImageFix"/><feBlend in="SourceGraphic" in2="BackgroundImageFix" mode="normal" result="shape"/><feGaussianBlur result="effect1_foregroundBlur_20020_3881" stdDeviation=".625"/></filter><filter id="f" color-interpolation-filters="sRGB" filterUnits="userSpaceOnUse" height="10.182" width="7.738" x=".766" y="16.031"><feFlood flood-opacity="0" result="BackgroundImageFix"/><feBlend in="SourceGraphic" in2="BackgroundImageFix" mode="normal" result="shape"/><feGaussianBlur result="effect1_foregroundBlur_20020_3881" stdDeviation="1"/></filter><filter id="g" color-interpolation-filters="sRGB" filterUnits="userSpaceOnUse" height="2.673" width="2.012" x="5.305" y="18.335"><feFlood flood-opacity="0" result="BackgroundImageFix"/><feBlend in="SourceGraphic" in2="BackgroundImageFix" mode="normal" result="shape"/><feGaussianBlur result="effect1_foregroundBlur_20020_3881" stdDeviation=".125"/></filter><filter id="h" color-interpolation-filters="sRGB" filterUnits="userSpaceOnUse" height="1.381" width="3.141" x="9.958" y="18.33"><feFlood flood-opacity="0" result="BackgroundImageFix"/><feBlend in="SourceGraphic" in2="BackgroundImageFix" mode="normal" result="shape"/><feGaussianBlur result="effect1_foregroundBlur_20020_3881" stdDeviation=".125"/></filter><filter id="i" color-interpolation-filters="sRGB" filterUnits="userSpaceOnUse" height="21.293" width="15.887" x="16" y="8.646"><feFlood flood-opacity="0" result="BackgroundImageFix"/><feBlend in="SourceGraphic" in2="BackgroundImageFix" mode="normal" result="shape"/><feColorMatrix in="SourceAlpha" result="hardAlpha" type="matrix" values="0 0 0 0 0 0 0 0 0 0 0 0 0 0 0 0 0 0 127 0"/><feOffset dx="1" dy="-.5"/><feGaussianBlur stdDeviation="1.25"/><feComposite in2="hardAlpha" k2="-1" k3="1" operator="arithmetic"/><feColorMatrix type="matrix" values="0 0 0 0 0.4 0 0 0 0 0.219608 0 0 0 0 0.223529 0 0 0 1 0"/><feBlend in2="shape" mode="normal" result="effect1_innerShadow_20020_3881"/><feColorMatrix in="SourceAlpha" result="hardAlpha" type="matrix" values="0 0 0 0 0 0 0 0 0 0 0 0 0 0 0 0 0 0 127 0"/><feOffset dx=".1" dy="-.1"/><feGaussianBlur stdDeviation=".5"/><feComposite in2="hardAlpha" k2="-1" k3="1" operator="arithmetic"/><feColorMatrix type="matrix" values="0 0 0 0 0.388235 0 0 0 0 0.219608 0 0 0 0 0.247059 0 0 0 1 0"/><feBlend in2="effect1_innerShadow_20020_3881" mode="normal" result="effect2_innerShadow_20020_3881"/></filter><filter id="j" color-interpolation-filters="sRGB" filterUnits="userSpaceOnUse" height="9.438" width="5.961" x="24.297" y="16.565"><feFlood flood-opacity="0" result="BackgroundImageFix"/><feBlend in="SourceGraphic" in2="BackgroundImageFix" mode="normal" result="shape"/><feGaussianBlur result="effect1_foregroundBlur_20020_3881" stdDeviation=".75"/></filter><filter id="k" color-interpolation-filters="sRGB" filterUnits="userSpaceOnUse" height="8.57" width="2.219" x="17.359" y="13.245"><feFlood flood-opacity="0" result="BackgroundImageFix"/><feBlend in="SourceGraphic" in2="BackgroundImageFix" mode="normal" result="shape"/><feGaussianBlur result="effect1_foregroundBlur_20020_3881" stdDeviation=".25"/></filter><filter id="l" color-interpolation-filters="sRGB" filterUnits="userSpaceOnUse" height="9.236" width="2.219" x="20.351" y="10.829"><feFlood flood-opacity="0" result="BackgroundImageFix"/><feBlend in="SourceGraphic" in2="BackgroundImageFix" mode="normal" result="shape"/><feGaussianBlur result="effect1_foregroundBlur_20020_3881" stdDeviation=".25"/></filter><filter id="m" color-interpolation-filters="sRGB" filterUnits="userSpaceOnUse" height="6.468" width="12.094" x="15.766" y="17.065"><feFlood flood-opacity="0" result="BackgroundImageFix"/><feBlend in="SourceGraphic" in2="BackgroundImageFix" mode="normal" result="shape"/><feGaussianBlur result="effect1_foregroundBlur_20020_3881" stdDeviation=".625"/></filter><filter id="n" color-interpolation-filters="sRGB" filterUnits="userSpaceOnUse" height="1.405" width="2.751" x="7.205" y="18.116"><feFlood flood-opacity="0" result="BackgroundImageFix"/><feBlend in="SourceGraphic" in2="BackgroundImageFix" mode="normal" result="shape"/><feGaussianBlur result="effect1_foregroundBlur_20020_3881" stdDeviation=".125"/></filter><radialGradient id="o" cx="0" cy="0" gradientTransform="matrix(-1.69948229 16.86900825 -11.98363823 -1.20730162 10.9544 14.1046)" gradientUnits="userSpaceOnUse" r="1"><stop offset=".788" stop-color="#7a3f67" stop-opacity="0"/><stop offset="1" stop-color="#7a3f67"/></radialGradient><linearGradient id="p" gradientUnits="userSpaceOnUse" x1="3.174" x2="5.377" y1="16.891" y2="16.706"><stop offset="0" stop-color="#734b47"/><stop offset="1" stop-color="#734b47" stop-opacity="0"/></linearGradient><linearGradient id="q" gradientUnits="userSpaceOnUse" x1="3.174" x2="3.629" y1="16.891" y2="16.871"><stop offset="0" stop-color="#815e53"/><stop offset="1" stop-color="#815e53" stop-opacity="0"/></linearGradient><linearGradient id="r" gradientUnits="userSpaceOnUse" x1="7.875" x2="6.111" y1="16.206" y2="16.361"><stop offset="0" stop-color="#764a42"/><stop offset="1" stop-color="#764a42" stop-opacity="0"/></linearGradient><radialGradient id="s" cx="0" cy="0" gradientTransform="matrix(1.15625282 -.12500061 .49575904 4.58575999 4.5 19.5937)" gradientUnits="userSpaceOnUse" r="1"><stop offset="0" stop-color="#6c4134"/><stop offset="1" stop-color="#6c4134" stop-opacity="0"/></radialGradient><radialGradient id="t" cx="0" cy="0" gradientTransform="matrix(-.28574302 2.59374787 -2.48411117 -.27366478 4.91075 10.1562)" gradientUnits="userSpaceOnUse" r="1"><stop offset="0" stop-color="#856658"/><stop offset="1" stop-color="#856658" stop-opacity="0"/></radialGradient><linearGradient id="u"><stop offset="0" stop-color="#906361"/><stop offset="1" stop-color="#906361" stop-opacity="0"/></linearGradient><linearGradient id="v" gradientUnits="userSpaceOnUse" x1="7.106" x2="5.649" xlink:href="#u" y1="19.599" y2="18.866"/><linearGradient id="w" gradientUnits="userSpaceOnUse" x1="6.193" x2="8.219" y1="14.519" y2="14.519"><stop offset="0" stop-color="#673a2e"/><stop offset="1" stop-color="#805554" stop-opacity="0"/></linearGradient><linearGradient id="x" gradientUnits="userSpaceOnUse" x1="10.254" x2="8.922" y1="14.479" y2="14.479"><stop offset="0" stop-color="#7c5244"/><stop offset="1" stop-color="#7c5244" stop-opacity="0"/></linearGradient><linearGradient id="y" gradientUnits="userSpaceOnUse" x1="8.146" x2="8.146" xlink:href="#u" y1="18.528" y2="16.512"/><radialGradient id="z" cx="0" cy="0" gradientTransform="matrix(-1.42842962 2.26296111 -3.53767369 -2.23305555 9.39486 9.14557)" gradientUnits="userSpaceOnUse" r="1"><stop offset="0" stop-color="#916e5f"/><stop offset="1" stop-color="#916e5f" stop-opacity="0"/></radialGradient><linearGradient id="A" gradientUnits="userSpaceOnUse" x1="9.604" x2="11.048" y1="16.065" y2="16.068"><stop offset="0" stop-color="#6d4038"/><stop offset="1" stop-color="#7e5353" stop-opacity="0"/></linearGradient><linearGradient id="B" gradientUnits="userSpaceOnUse" x1="13.245" x2="12.069" y1="16.093" y2="16.093"><stop offset="0" stop-color="#72473a"/><stop offset="1" stop-color="#72473a" stop-opacity="0"/></linearGradient><linearGradient id="C" gradientUnits="userSpaceOnUse" x1="10.947" x2="10.889" y1="20.114" y2="16.481"><stop offset=".46" stop-color="#906361"/><stop offset="1" stop-color="#906361" stop-opacity="0"/></linearGradient><radialGradient id="D" cx="0" cy="0" gradientTransform="matrix(-.86170965 2.54859412 -2.368244 -.80073115 12.1667 10.4559)" gradientUnits="userSpaceOnUse" r="1"><stop offset="0" stop-color="#937060"/><stop offset="1" stop-color="#937060" stop-opacity="0"/></radialGradient><linearGradient id="E" gradientUnits="userSpaceOnUse" x1="12.474" x2="14.51" y1="18.172" y2="18.176"><stop offset="0" stop-color="#73433c"/><stop offset="1" stop-color="#835758" stop-opacity="0"/></linearGradient><linearGradient id="F" gradientUnits="userSpaceOnUse" x1="16.608" x2="15.216" y1="18.172" y2="18.172"><stop offset="0" stop-color="#6b4540"/><stop offset="1" stop-color="#6b4540" stop-opacity="0"/></linearGradient><radialGradient id="G" cx="0" cy="0" gradientTransform="matrix(2.648049 -3.06217133 4.79166873 4.1436524 12.5982 20.8701)" gradientUnits="userSpaceOnUse" r="1"><stop offset=".34" stop-color="#916461"/><stop offset="1" stop-color="#916461" stop-opacity="0"/></radialGradient><radialGradient id="H" cx="0" cy="0" gradientTransform="matrix(-1.58526249 2.25576774 -1.30626534 -.91799054 15.8844 12.8552)" gradientUnits="userSpaceOnUse" r="1"><stop offset="0" stop-color="#8e6f5f"/><stop offset="1" stop-color="#8e6f5f" stop-opacity="0"/></radialGradient><radialGradient id="I" cx="0" cy="0" gradientTransform="matrix(-2.21375021 .73405723 -1.32749894 -4.0034359 4.82812 18.3148)" gradientUnits="userSpaceOnUse" r="1"><stop offset=".007" stop-color="#9f776d"/><stop offset="1" stop-color="#9f776d" stop-opacity="0"/></radialGradient><radialGradient id="J" cx="0" cy="0" gradientTransform="matrix(2.89134374 -2.98367696 4.84235839 4.69250618 1.5053 20.0606)" gradientUnits="userSpaceOnUse" r="1"><stop offset=".696" stop-color="#8c6555" stop-opacity="0"/><stop offset="1" stop-color="#8c6555"/></radialGradient><linearGradient id="K" gradientUnits="userSpaceOnUse" x1="5.331" x2="6.978" y1="12.202" y2="21.89"><stop offset="0" stop-color="#9a7a70"/><stop offset="1" stop-color="#9a7a70" stop-opacity="0"/></linearGradient><linearGradient id="L" gradientUnits="userSpaceOnUse" x1="8.695" x2="10.188" y1="9.904" y2="17.956"><stop offset="0" stop-color="#a07d73"/><stop offset="1" stop-color="#a07d73" stop-opacity="0"/></linearGradient><linearGradient id="M" gradientUnits="userSpaceOnUse" x1="15.875" x2="12.598" y1="15.534" y2="27.346"><stop offset="0" stop-color="#9c7c71"/><stop offset="1" stop-color="#9c7c71" stop-opacity="0"/></linearGradient><linearGradient id="N" gradientUnits="userSpaceOnUse" x1="13.883" x2="5.886" y1="20.148" y2="19.743"><stop offset="0" stop-color="#956d67"/><stop offset="1" stop-color="#956d67" stop-opacity="0"/></linearGradient><linearGradient id="O"><stop offset="0" stop-color="#94716a"/><stop offset="1" stop-color="#94716a" stop-opacity="0"/></linearGradient><linearGradient id="P" gradientUnits="userSpaceOnUse" x1="7.129" x2="6.894" xlink:href="#O" y1="18.562" y2="20.983"/><linearGradient id="Q" gradientUnits="userSpaceOnUse" x1="12.725" x2="12.579" xlink:href="#O" y1="19.331" y2="19.754"/><radialGradient id="R" cx="0" cy="0" gradientTransform="matrix(-1.99618396 1.49687137 -.76416889 -1.01907332 30.8868 18.0451)" gradientUnits="userSpaceOnUse" r="1"><stop offset="0" stop-color="#a17d73"/><stop offset=".767" stop-color="#a17d73" stop-opacity="0"/></radialGradient><radialGradient id="S" cx="0" cy="0" gradientTransform="matrix(11.59374184 4.06250147 -5.91453441 16.87915329 18.7969 19.2523)" gradientUnits="userSpaceOnUse" r="1"><stop offset=".862" stop-color="#91665f" stop-opacity="0"/><stop offset="1" stop-color="#91665f"/></radialGradient><radialGradient id="T" cx="0" cy="0" gradientTransform="matrix(-11.69610573 14.86203164 -11.99609028 -9.44067027 28.9238 15.0763)" gradientUnits="userSpaceOnUse" r="1"><stop offset=".689" stop-color="#7a3f67" stop-opacity="0"/><stop offset="1" stop-color="#7a3f67"/></radialGradient><linearGradient id="U" gradientUnits="userSpaceOnUse" x1="24.703" x2="27.089" y1="16.221" y2="16.706"><stop offset="0" stop-color="#6f403c"/><stop offset="1" stop-color="#6f403c" stop-opacity="0"/></linearGradient><linearGradient id="V"><stop offset="0" stop-color="#8c605d"/><stop offset="1" stop-color="#8c605d" stop-opacity="0"/></linearGradient><linearGradient id="W" gradientUnits="userSpaceOnUse" x1="26.047" x2="26.672" xlink:href="#V" y1="19.252" y2="17.221"/><radialGradient id="X" cx="0" cy="0" gradientTransform="matrix(-1.46875411 .62499264 -.32492961 -.76359571 28.875 11.9687)" gradientUnits="userSpaceOnUse" r="1"><stop offset="0" stop-color="#a17f71"/><stop offset="1" stop-color="#a17f71" stop-opacity="0"/></radialGradient><linearGradient id="Y" gradientUnits="userSpaceOnUse" x1="28.672" x2="27.266" y1="17.08" y2="17.002"><stop offset="0" stop-color="#936e5f"/><stop offset="1" stop-color="#936e5f" stop-opacity="0"/></linearGradient><radialGradient id="Z" cx="0" cy="0" gradientTransform="matrix(-.82843554 3.47633187 -1.72718348 -.41160057 27.6124 19.4615)" gradientUnits="userSpaceOnUse" r="1"><stop offset="0" stop-color="#5d312c"/><stop offset="1" stop-color="#5d312c" stop-opacity="0"/></radialGradient><linearGradient id="aa" gradientUnits="userSpaceOnUse" x1="21.704" x2="24.379" y1="14.015" y2="14.015"><stop offset="0" stop-color="#6c3f36"/><stop offset="1" stop-color="#7f5455" stop-opacity="0"/></linearGradient><linearGradient id="ab" gradientUnits="userSpaceOnUse" x1="26.234" x2="24.781" y1="14.284" y2="14.188"><stop offset="0" stop-color="#6e4139"/><stop offset="1" stop-color="#6e4139" stop-opacity="0"/></linearGradient><linearGradient id="ac" gradientUnits="userSpaceOnUse" x1="23.293" x2="23.293" xlink:href="#V" y1="18.397" y2="16.015"/><radialGradient id="ad" cx="0" cy="0" gradientTransform="matrix(-1.9103972 1.45891901 -.88698872 -1.16147693 25.8068 9.61383)" gradientUnits="userSpaceOnUse" r="1"><stop offset="0" stop-color="#a17f73"/><stop offset="1" stop-color="#a17f73" stop-opacity="0"/></radialGradient><linearGradient id="ae" gradientUnits="userSpaceOnUse" x1="18.46" x2="21.026" y1="15.603" y2="15.603"><stop offset="0" stop-color="#6d4036"/><stop offset="1" stop-color="#7e5252" stop-opacity="0"/></linearGradient><linearGradient id="af" gradientUnits="userSpaceOnUse" x1="19.984" x2="19.984" xlink:href="#V" y1="19.971" y2="17.596"/><radialGradient id="ag" cx="0" cy="0" gradientTransform="matrix(0 -9.46839 3.88383 0 20.695 19.9345)" gradientUnits="userSpaceOnUse" r="1"><stop offset=".737" stop-color="#7c5c4e" stop-opacity="0"/><stop offset="1" stop-color="#7c5c4e"/></radialGradient><linearGradient id="ah"><stop offset="0" stop-color="#97786f"/><stop offset="1" stop-color="#97786f" stop-opacity="0"/></linearGradient><radialGradient id="ai" cx="0" cy="0" gradientTransform="matrix(-1.31885238 1.45893727 -.94062504 -.85030769 22.0139 11.3551)" gradientUnits="userSpaceOnUse" r="1" xlink:href="#ah"/><radialGradient id="aj" cx="0" cy="0" gradientTransform="matrix(.4400069 3.2784043 -4.57209448 .61363789 17.7009 12.2543)" gradientUnits="userSpaceOnUse" r="1"><stop offset="0" stop-color="#7b5c4e"/><stop offset="1" stop-color="#7b5c4e" stop-opacity="0"/></radialGradient><radialGradient id="ak" cx="0" cy="0" gradientTransform="matrix(-1.27068 1.29422762 -.92671847 -.90985743 19.1431 13.473)" gradientUnits="userSpaceOnUse" r="1"><stop offset="0" stop-color="#997a71"/><stop offset="1" stop-color="#997a71" stop-opacity="0"/></radialGradient><radialGradient id="al" cx="0" cy="0" gradientTransform="matrix(1.48246549 .54121771 -1.46811954 4.02136976 26.5554 19.6617)" gradientUnits="userSpaceOnUse" r="1"><stop offset="0" stop-color="#663d3b"/><stop offset="1" stop-color="#663d3b" stop-opacity="0"/></radialGradient><linearGradient id="am" gradientUnits="userSpaceOnUse" x1="17.859" x2="19.1" y1="13.745" y2="22.988"><stop offset="0" stop-color="#997970"/><stop offset="1" stop-color="#8f6662" stop-opacity="0"/></linearGradient><linearGradient id="an" gradientUnits="userSpaceOnUse" x1="21.3" x2="22.088" xlink:href="#ah" y1="12.075" y2="20.948"/><linearGradient id="ao" gradientUnits="userSpaceOnUse" x1="25.984" x2="17.334" y1="21.076" y2="20.829"><stop offset="0" stop-color="#86625a"/><stop offset="1" stop-color="#86625a" stop-opacity="0"/></linearGradient><linearGradient id="ap" gradientUnits="userSpaceOnUse" x1="9.706" x2="9.651" xlink:href="#O" y1="18.818" y2="19.323"/><g filter="url(#a)"><path d="m6.19324 10.9188c0-.97935.79388-1.77323 1.77319-1.77323s1.77319.79388 1.77319 1.77323v.7389c.25925-.5661.86248-.909 1.56538-.909.9394 0 1.7009.7615 1.7009 1.7009v.9157c.3119-.3242.7756-.5101 1.2932-.5101.9394 0 1.7009.7615 1.7009 1.7008v8.1963c0 2.1177-.6563 3.498-1.0213 3.9792-1.0857 1.9148-3.1423 3.2069-5.50073 3.2069-.21552 0-.42856-.0108-.63852-.0319-2.4683-.1609-3.88385-1.3957-4.82383-2.5761-.85937-1.1406-1.59374-3.0117-1.82031-3.6641l.00257-.0117c-.27613-.7814-1.01044-3.0719-1.08387-4.7891-.00055-.0185-.00082-.037-.00082-.0555 0-1.0236.82977-1.8534 1.85336-1.8534.0828 0 .16431.0054.24423.016l-.30587-4.1451c-.07083-.9598.64984-1.7954 1.60968-1.8662.71905-.0531 1.36838.3381 1.67865.9413z" fill="#906361"/></g><path d="m6.19324 10.9188c0-.97935.79388-1.77323 1.77319-1.77323s1.77319.79388 1.77319 1.77323v.7389c.25925-.5661.86248-.909 1.56538-.909.9394 0 1.7009.7615 1.7009 1.7009v.9157c.3119-.3242.7756-.5101 1.2932-.5101.9394 0 1.7009.7615 1.7009 1.7008v8.1963c0 2.1177-.6563 3.498-1.0213 3.9792-1.0857 1.9148-3.1423 3.2069-5.50073 3.2069-.21552 0-.42856-.0108-.63852-.0319-2.4683-.1609-3.88385-1.3957-4.82383-2.5761-.85937-1.1406-1.59374-3.0117-1.82031-3.6641l.00257-.0117c-.27613-.7814-1.01044-3.0719-1.08387-4.7891-.00055-.0185-.00082-.037-.00082-.0555 0-1.0236.82977-1.8534 1.85336-1.8534.0828 0 .16431.0054.24423.016l-.30587-4.1451c-.07083-.9598.64984-1.7954 1.60968-1.8662.71905-.0531 1.36838.3381 1.67865.9413z" fill="url(#o)"/><path d="m4.5146 10.9613c-.95984.0709-1.68051.9064-1.60968 1.8662l.30588 4.1451c.79971.1052 1.43878.7204 1.57998 1.5083l.00205-.0003.78529 3.9748c.40626-.1719 1.67188-.875 1.26296-3.647l-.4603-6.2374c-.07083-.9598-.90637-1.6805-1.86618-1.6097z" fill="url(#p)"/><path d="m4.5146 10.9613c-.95984.0709-1.68051.9064-1.60968 1.8662l.30588 4.1451c.79971.1052 1.43878.7204 1.57998 1.5083l.00205-.0003.78529 3.9748c.40626-.1719 1.67188-.875 1.26296-3.647l-.4603-6.2374c-.07083-.9598-.90637-1.6805-1.86618-1.6097z" fill="url(#q)"/><path d="m4.5146 10.9613c-.95984.0709-1.68051.9064-1.60968 1.8662l.30588 4.1451c.79971.1052 1.43878.7204 1.57998 1.5083l.00205-.0003.78529 3.9748c.40626-.1719 1.67188-.875 1.26296-3.647l-.4603-6.2374c-.07083-.9598-.90637-1.6805-1.86618-1.6097z" fill="url(#r)"/><path d="m4.5146 10.9613c-.95984.0709-1.68051.9064-1.60968 1.8662l.30588 4.1451c.79971.1052 1.43878.7204 1.57998 1.5083l.00205-.0003.78529 3.9748c.40626-.1719 1.67188-.875 1.26296-3.647l-.4603-6.2374c-.07083-.9598-.90637-1.6805-1.86618-1.6097z" fill="url(#s)"/><path d="m4.5146 10.9613c-.95984.0709-1.68051.9064-1.60968 1.8662l.30588 4.1451c.79971.1052 1.43878.7204 1.57998 1.5083l.00205-.0003.78529 3.9748c.40626-.1719 1.67188-.875 1.26296-3.647l-.4603-6.2374c-.07083-.9598-.90637-1.6805-1.86618-1.6097z" fill="url(#t)"/><path d="m4.5146 10.9613c-.95984.0709-1.68051.9064-1.60968 1.8662l.30588 4.1451c.79971.1052 1.43878.7204 1.57998 1.5083l.00205-.0003.78529 3.9748c.40626-.1719 1.67188-.875 1.26296-3.647l-.4603-6.2374c-.07083-.9598-.90637-1.6805-1.86618-1.6097z" fill="url(#v)"/><path d="m6.19324 10.9188c0-.97935.79388-1.77323 1.77319-1.77323s1.77319.79388 1.77319 1.77323v.7389c-.08725.1905-.13552.4063-.13552.6428v5.4926c-.267.6413-.89969 1.0921-1.63767 1.0921-.43927 0-.84125-.1597-1.151-.4243l-.43466-5.8899c-.01776-.2408-.08365-.4665-.18753-.6684z" fill="url(#w)"/><path d="m6.19324 10.9188c0-.97935.79388-1.77323 1.77319-1.77323s1.77319.79388 1.77319 1.77323v.7389c-.08725.1905-.13552.4063-.13552.6428v5.4926c-.267.6413-.89969 1.0921-1.63767 1.0921-.43927 0-.84125-.1597-1.151-.4243l-.43466-5.8899c-.01776-.2408-.08365-.4665-.18753-.6684z" fill="url(#x)"/><path d="m6.19324 10.9188c0-.97935.79388-1.77323 1.77319-1.77323s1.77319.79388 1.77319 1.77323v.7389c-.08725.1905-.13552.4063-.13552.6428v5.4926c-.267.6413-.89969 1.0921-1.63767 1.0921-.43927 0-.84125-.1597-1.151-.4243l-.43466-5.8899c-.01776-.2408-.08365-.4665-.18753-.6684z" fill="url(#y)"/><path d="m6.19324 10.9188c0-.97935.79388-1.77323 1.77319-1.77323s1.77319.79388 1.77319 1.77323v.7389c-.08725.1905-.13552.4063-.13552.6428v5.4926c-.267.6413-.89969 1.0921-1.63767 1.0921-.43927 0-.84125-.1597-1.151-.4243l-.43466-5.8899c-.01776-.2408-.08365-.4665-.18753-.6684z" fill="url(#z)"/><path d="m11.305 10.7487c-.9394 0-1.7009.6124-1.7009 1.5518v6.456c0 .9394.7615 1.7009 1.7009 1.7009.5176 0 .9813-.2313 1.2932-.5961v-5.4543c0-.4218.1535-.7776.4077-1.0417v-.9157c0-.9394-.7615-1.7009-1.7009-1.7009z" fill="url(#A)"/><path d="m11.305 10.7487c-.9394 0-1.7009.6124-1.7009 1.5518v6.456c0 .9394.7615 1.7009 1.7009 1.7009.5176 0 .9813-.2313 1.2932-.5961v-5.4543c0-.4218.1535-.7776.4077-1.0417v-.9157c0-.9394-.7615-1.7009-1.7009-1.7009z" fill="url(#B)"/><path d="m11.305 10.7487c-.9394 0-1.7009.6124-1.7009 1.5518v6.456c0 .9394.7615 1.7009 1.7009 1.7009.5176 0 .9813-.2313 1.2932-.5961v-5.4543c0-.4218.1535-.7776.4077-1.0417v-.9157c0-.9394-.7615-1.7009-1.7009-1.7009z" fill="url(#C)"/><path d="m11.305 10.7487c-.9394 0-1.7009.6124-1.7009 1.5518v6.456c0 .9394.7615 1.7009 1.7009 1.7009.5176 0 .9813-.2313 1.2932-.5961v-5.4543c0-.4218.1535-.7776.4077-1.0417v-.9157c0-.9394-.7615-1.7009-1.7009-1.7009z" fill="url(#D)"/><path d="m12.5982 14.407c0-.9394.7615-1.5518 1.7009-1.5518s1.7009.7615 1.7009 1.7008v4.6132c0 .9394-.7615 1.7009-1.7009 1.7009s-1.7009-.7615-1.7009-1.7009z" fill="url(#E)"/><path d="m12.5982 14.407c0-.9394.7615-1.5518 1.7009-1.5518s1.7009.7615 1.7009 1.7008v4.6132c0 .9394-.7615 1.7009-1.7009 1.7009s-1.7009-.7615-1.7009-1.7009z" fill="url(#F)"/><path d="m12.5982 14.407c0-.9394.7615-1.5518 1.7009-1.5518s1.7009.7615 1.7009 1.7008v4.6132c0 .9394-.7615 1.7009-1.7009 1.7009s-1.7009-.7615-1.7009-1.7009z" fill="url(#G)"/><path d="m12.5982 14.407c0-.9394.7615-1.5518 1.7009-1.5518s1.7009.7615 1.7009 1.7008v4.6132c0 .9394-.7615 1.7009-1.7009 1.7009s-1.7009-.7615-1.7009-1.7009z" fill="url(#H)"/><path d="m1.114 18.8655c-.00054-.0185-.00081-.037-.00081-.0555 0-1.0236.82978-1.8534 1.85336-1.8534.91126 0 1.66892.6577 1.82423 1.5243l.00204-.0003.7725 4.0117-3.34658 1.2209c-.2578-.7188-1.02939-3.0852-1.10474-4.8477z" fill="url(#I)"/><path d="m1.114 18.8655c-.00054-.0185-.00081-.037-.00081-.0555 0-1.0236.82978-1.8534 1.85336-1.8534.91126 0 1.66892.6577 1.82423 1.5243l.00204-.0003.7725 4.0117-3.34658 1.2209c-.2578-.7188-1.02939-3.0852-1.10474-4.8477z" fill="url(#J)"/><g filter="url(#b)"><path d="m5.54144 20.7523-.83756-8.401c-.03525-.3537.2705-.6467.62233-.5964.24997.0357.4431.2377.46757.489l.7406 7.6075z" fill="url(#K)"/></g><g filter="url(#c)"><rect fill="url(#L)" height="8.793" rx=".531" width="1.063" x="8.163" y="10.093"/></g><g filter="url(#d)"><path d="m14.8927 14.4889v7.8619c.0113 1.226-.4319 4.0154-2.2945 5.365" stroke="url(#M)" stroke-linecap="round" stroke-width="1.25"/></g><g filter="url(#e)"><path d="m6.15561 19.3717c1.40593-.4162 4.91959-.7828 7.72699 1.0797" stroke="url(#N)" stroke-linecap="round" stroke-width="1.25"/></g><g filter="url(#f)"><path d="m3.26581 18.531.94461 3.9958c.14453.5931.66797 1.4414 1.79297 1.1133" stroke="#9f776f" stroke-linecap="round"/></g><g filter="url(#g)"><path d="m6.8172 18.8348c-.06485.2659-.358.9729-1.01178 1.6734" stroke="url(#P)" stroke-linecap="round" stroke-width=".5"/></g><g filter="url(#h)"><path d="m10.4576 18.8304c.2708.1458 1.0781.425 2.1406.375" stroke="url(#Q)" stroke-linecap="round" stroke-width=".5"/></g><g filter="url(#i)"><path d="m25.8068 10.9188c0-.97935-.7939-1.77323-1.7732-1.77323s-1.7732.79388-1.7732 1.77323v.7389c-.2593-.5661-.8625-.909-1.5654-.909-.9394 0-1.7009.7615-1.7009 1.7009v.9157c-.3119-.3242-.7756-.5101-1.2932-.5101-.9394 0-1.7009.7615-1.7009 1.7008v8.1963c0 2.1177.6563 3.498 1.0213 3.9792 1.0857 1.9148 3.1423 3.2069 5.5007 3.2069.2155 0 .4286-.0108.6386-.0319 2.4682-.1609 3.8838-1.3957 4.8238-2.5761.8594-1.1406 1.5937-3.0117 1.8203-3.6641l-.0026-.0117c.2761-.7814 1.0105-3.0719 1.0839-4.7891.0005-.0185.0008-.037.0008-.0555 0-1.0236-.8298-1.8534-1.8534-1.8534-.0827 0-.1643.0054-.2442.016l.3059-4.1451c.0708-.9598-.6498-1.7954-1.6097-1.8662-.719-.0531-1.3684.3381-1.6786.9413z" fill="#8c605d"/></g><path d="m25.8068 10.9188c0-.97935-.7939-1.77323-1.7732-1.77323s-1.7732.79388-1.7732 1.77323v.7389c-.2593-.5661-.8625-.909-1.5654-.909-.9394 0-1.7009.7615-1.7009 1.7009v.9157c-.3119-.3242-.7756-.5101-1.2932-.5101-.9394 0-1.7009.7615-1.7009 1.7008v8.1963c0 2.1177.6563 3.498 1.0213 3.9792 1.0857 1.9148 3.1423 3.2069 5.5007 3.2069.2155 0 .4286-.0108.6386-.0319 2.4682-.1609 3.8838-1.3957 4.8238-2.5761.8594-1.1406 1.5937-3.0117 1.8203-3.6641l-.0026-.0117c.2761-.7814 1.0105-3.0719 1.0839-4.7891.0005-.0185.0008-.037.0008-.0555 0-1.0236-.8298-1.8534-1.8534-1.8534-.0827 0-.1643.0054-.2442.016l.3059-4.1451c.0708-.9598-.6498-1.7954-1.6097-1.8662-.719-.0531-1.3684.3381-1.6786.9413z" fill="url(#R)"/><path d="m25.8068 10.9188c0-.97935-.7939-1.77323-1.7732-1.77323s-1.7732.79388-1.7732 1.77323v.7389c-.2593-.5661-.8625-.909-1.5654-.909-.9394 0-1.7009.7615-1.7009 1.7009v.9157c-.3119-.3242-.7756-.5101-1.2932-.5101-.9394 0-1.7009.7615-1.7009 1.7008v8.1963c0 2.1177.6563 3.498 1.0213 3.9792 1.0857 1.9148 3.1423 3.2069 5.5007 3.2069.2155 0 .4286-.0108.6386-.0319 2.4682-.1609 3.8838-1.3957 4.8238-2.5761.8594-1.1406 1.5937-3.0117 1.8203-3.6641l-.0026-.0117c.2761-.7814 1.0105-3.0719 1.0839-4.7891.0005-.0185.0008-.037.0008-.0555 0-1.0236-.8298-1.8534-1.8534-1.8534-.0827 0-.1643.0054-.2442.016l.3059-4.1451c.0708-.9598-.6498-1.7954-1.6097-1.8662-.719-.0531-1.3684.3381-1.6786.9413z" fill="url(#S)"/><path d="m25.8068 10.9188c0-.97935-.7939-1.77323-1.7732-1.77323s-1.7732.79388-1.7732 1.77323v.7389c-.2593-.5661-.8625-.909-1.5654-.909-.9394 0-1.7009.7615-1.7009 1.7009v.9157c-.3119-.3242-.7756-.5101-1.2932-.5101-.9394 0-1.7009.7615-1.7009 1.7008v8.1963c0 2.1177.6563 3.498 1.0213 3.9792 1.0857 1.9148 3.1423 3.2069 5.5007 3.2069.2155 0 .4286-.0108.6386-.0319 2.4682-.1609 3.8838-1.3957 4.8238-2.5761.8594-1.1406 1.5937-3.0117 1.8203-3.6641l-.0026-.0117c.2761-.7814 1.0105-3.0719 1.0839-4.7891.0005-.0185.0008-.037.0008-.0555 0-1.0236-.8298-1.8534-1.8534-1.8534-.0827 0-.1643.0054-.2442.016l.3059-4.1451c.0708-.9598-.6498-1.7954-1.6097-1.8662-.719-.0531-1.3684.3381-1.6786.9413z" fill="url(#T)"/><path d="m27.4854 10.9613c.9598.0709 1.6805.9064 1.6097 1.8662l-.3059 4.1451c-.7997.1052-1.4388.7204-1.58 1.5083l-.002-.0003-.7853 3.9748c-.4063-.1719-1.6719-.875-1.263-3.647l.4603-6.2374c.0709-.9598.9064-1.6805 1.8662-1.6097z" fill="url(#U)"/><path d="m27.4854 10.9613c.9598.0709 1.6805.9064 1.6097 1.8662l-.3059 4.1451c-.7997.1052-1.4388.7204-1.58 1.5083l-.002-.0003-.7853 3.9748c-.4063-.1719-1.6719-.875-1.263-3.647l.4603-6.2374c.0709-.9598.9064-1.6805 1.8662-1.6097z" fill="url(#W)"/><path d="m27.4854 10.9613c.9598.0709 1.6805.9064 1.6097 1.8662l-.3059 4.1451c-.7997.1052-1.4388.7204-1.58 1.5083l-.002-.0003-.7853 3.9748c-.4063-.1719-1.6719-.875-1.263-3.647l.4603-6.2374c.0709-.9598.9064-1.6805 1.8662-1.6097z" fill="url(#X)"/><path d="m27.4854 10.9613c.9598.0709 1.6805.9064 1.6097 1.8662l-.3059 4.1451c-.7997.1052-1.4388.7204-1.58 1.5083l-.002-.0003-.7853 3.9748c-.4063-.1719-1.6719-.875-1.263-3.647l.4603-6.2374c.0709-.9598.9064-1.6805 1.8662-1.6097z" fill="url(#Y)"/><path d="m27.4854 10.9613c.9598.0709 1.6805.9064 1.6097 1.8662l-.3059 4.1451c-.7997.1052-1.4388.7204-1.58 1.5083l-.002-.0003-.7853 3.9748c-.4063-.1719-1.6719-.875-1.263-3.647l.4603-6.2374c.0709-.9598.9064-1.6805 1.8662-1.6097z" fill="url(#Z)"/><path d="m25.8068 10.9188c0-.97935-.7939-1.77323-1.7732-1.77323s-1.7732.79388-1.7732 1.77323v.7389c.0872.1905.1355.4063.1355.6428v5.4926c.267.6413.8997 1.0921 1.6377 1.0921.4392 0 .8412-.1597 1.151-.4243l.4346-5.8899c.0178-.2408.0837-.4665.1876-.6684z" fill="url(#aa)"/><path d="m25.8068 10.9188c0-.97935-.7939-1.77323-1.7732-1.77323s-1.7732.79388-1.7732 1.77323v.7389c.0872.1905.1355.4063.1355.6428v5.4926c.267.6413.8997 1.0921 1.6377 1.0921.4392 0 .8412-.1597 1.151-.4243l.4346-5.8899c.0178-.2408.0837-.4665.1876-.6684z" fill="url(#ab)"/><path d="m25.8068 10.9188c0-.97935-.7939-1.77323-1.7732-1.77323s-1.7732.79388-1.7732 1.77323v.7389c.0872.1905.1355.4063.1355.6428v5.4926c.267.6413.8997 1.0921 1.6377 1.0921.4392 0 .8412-.1597 1.151-.4243l.4346-5.8899c.0178-.2408.0837-.4665.1876-.6684z" fill="url(#ac)"/><path d="m25.8068 10.9188c0-.97935-.7939-1.77323-1.7732-1.77323s-1.7732.79388-1.7732 1.77323v.7389c.0872.1905.1355.4063.1355.6428v5.4926c.267.6413.8997 1.0921 1.6377 1.0921.4392 0 .8412-.1597 1.151-.4243l.4346-5.8899c.0178-.2408.0837-.4665.1876-.6684z" fill="url(#ad)"/><path d="m20.695 10.7487c.9394 0 1.7009.6124 1.7009 1.5518v6.456c0 .9394-.7615 1.7009-1.7009 1.7009-.5176 0-.9813-.2313-1.2932-.5961v-5.4543c0-.4218-.1535-.7776-.4077-1.0417v-.9157c0-.9394.7615-1.7009 1.7009-1.7009z" fill="url(#ae)"/><path d="m20.695 10.7487c.9394 0 1.7009.6124 1.7009 1.5518v6.456c0 .9394-.7615 1.7009-1.7009 1.7009-.5176 0-.9813-.2313-1.2932-.5961v-5.4543c0-.4218-.1535-.7776-.4077-1.0417v-.9157c0-.9394.7615-1.7009 1.7009-1.7009z" fill="url(#af)"/><path d="m20.695 10.7487c.9394 0 1.7009.6124 1.7009 1.5518v6.456c0 .9394-.7615 1.7009-1.7009 1.7009-.5176 0-.9813-.2313-1.2932-.5961v-5.4543c0-.4218-.1535-.7776-.4077-1.0417v-.9157c0-.9394.7615-1.7009 1.7009-1.7009z" fill="url(#ag)"/><path d="m20.695 10.7487c.9394 0 1.7009.6124 1.7009 1.5518v6.456c0 .9394-.7615 1.7009-1.7009 1.7009-.5176 0-.9813-.2313-1.2932-.5961v-5.4543c0-.4218-.1535-.7776-.4077-1.0417v-.9157c0-.9394.7615-1.7009 1.7009-1.7009z" fill="url(#ai)"/><path d="m19.4018 14.407c0-.9394-.7615-1.5518-1.7009-1.5518s-1.7009.7615-1.7009 1.7008v4.6132c0 .9394.7615 1.7009 1.7009 1.7009s1.7009-.7615 1.7009-1.7009z" fill="url(#aj)"/><path d="m19.4018 14.407c0-.9394-.7615-1.5518-1.7009-1.5518s-1.7009.7615-1.7009 1.7008v4.6132c0 .9394.7615 1.7009 1.7009 1.7009s1.7009-.7615 1.7009-1.7009z" fill="url(#ak)"/><path d="m30.886 18.8655c.0005-.0185.0008-.037.0008-.0555 0-1.0236-.8298-1.8534-1.8533-1.8534-.9113 0-1.669.6577-1.8243 1.5243l-.002-.0003-.7931 4.0295 3.3672 1.2031c.2578-.7188 1.0293-3.0852 1.1047-4.8477z" fill="url(#al)"/><g filter="url(#j)"><path d="m28.2575 18.5648c-.1875.9583-1.3669 4.3125-1.9606 5.4375" stroke="#73494a" stroke-linecap="round"/></g><g filter="url(#k)"><path d="m17.8594 21.3148v-7.5686c.8672-.0377 1.2187.5955 1.2187 1.176v5.2467z" fill="url(#am)"/></g><g filter="url(#l)"><path d="m20.8513 19.5648v-8.2344c.8672-.0391 1.2187.6172 1.2187 1.2187v7.0157z" fill="url(#an)"/></g><g filter="url(#m)"><path d="m17.6406 21.6585c1.1146-1.1667 4.3438-3.3125 8.3438-2.5625" stroke="url(#ao)" stroke-linecap="round" stroke-width="1.25"/></g><g filter="url(#n)"><path d="m7.70541 18.9814c.30779.0705 1.0888.0962 1.75055-.3655" stroke="url(#ap)" stroke-linecap="round" stroke-width=".5"/></g></svg>