<svg fill="none" height="32" viewBox="0 0 32 32" width="32" xmlns="http://www.w3.org/2000/svg" xmlns:xlink="http://www.w3.org/1999/xlink"><filter id="a" color-interpolation-filters="sRGB" filterUnits="userSpaceOnUse" height="2.539" width="3.052" x="3.379" y="11.738"><feFlood flood-opacity="0" result="BackgroundImageFix"/><feBlend in="SourceGraphic" in2="BackgroundImageFix" mode="normal" result="shape"/><feGaussianBlur result="effect1_foregroundBlur_4002_4189" stdDeviation=".15"/></filter><filter id="b" color-interpolation-filters="sRGB" filterUnits="userSpaceOnUse" height="2.723" width="3.127" x="2.3" y="12.018"><feFlood flood-opacity="0" result="BackgroundImageFix"/><feBlend in="SourceGraphic" in2="BackgroundImageFix" mode="normal" result="shape"/><feGaussianBlur result="effect1_foregroundBlur_4002_4189" stdDeviation=".15"/></filter><filter id="c" color-interpolation-filters="sRGB" filterUnits="userSpaceOnUse" height="2.534" width="3.267" x="2.23" y="13.027"><feFlood flood-opacity="0" result="BackgroundImageFix"/><feBlend in="SourceGraphic" in2="BackgroundImageFix" mode="normal" result="shape"/><feGaussianBlur result="effect1_foregroundBlur_4002_4189" stdDeviation=".15"/></filter><filter id="d" color-interpolation-filters="sRGB" filterUnits="userSpaceOnUse" height="5.156" width="3.408" x="23.611" y="11.503"><feFlood flood-opacity="0" result="BackgroundImageFix"/><feBlend in="SourceGraphic" in2="BackgroundImageFix" mode="normal" result="shape"/><feColorMatrix in="SourceAlpha" result="hardAlpha" type="matrix" values="0 0 0 0 0 0 0 0 0 0 0 0 0 0 0 0 0 0 127 0"/><feOffset dx=".15"/><feGaussianBlur stdDeviation=".2"/><feComposite in2="hardAlpha" k2="-1" k3="1" operator="arithmetic"/><feColorMatrix type="matrix" values="0 0 0 0 0.552941 0 0 0 0 0.427451 0 0 0 0 0.34902 0 0 0 1 0"/><feBlend in2="shape" mode="normal" result="effect1_innerShadow_4002_4189"/></filter><filter id="e" color-interpolation-filters="sRGB" filterUnits="userSpaceOnUse" height="2.258" width="3.431" x="2.528" y="14.078"><feFlood flood-opacity="0" result="BackgroundImageFix"/><feBlend in="SourceGraphic" in2="BackgroundImageFix" mode="normal" result="shape"/><feGaussianBlur result="effect1_foregroundBlur_4002_4189" stdDeviation=".15"/></filter><filter id="f" color-interpolation-filters="sRGB" filterUnits="userSpaceOnUse" height="1.191" width="2.543" x="5.706" y="15.488"><feFlood flood-opacity="0" result="BackgroundImageFix"/><feBlend in="SourceGraphic" in2="BackgroundImageFix" mode="normal" result="shape"/><feGaussianBlur result="effect1_foregroundBlur_4002_4189" stdDeviation=".15"/></filter><filter id="g" color-interpolation-filters="sRGB" filterUnits="userSpaceOnUse" height=".977" width="2.847" x="25.079" y="15.322"><feFlood flood-opacity="0" result="BackgroundImageFix"/><feBlend in="SourceGraphic" in2="BackgroundImageFix" mode="normal" result="shape"/><feGaussianBlur result="effect1_foregroundBlur_4002_4189" stdDeviation=".15"/></filter><filter id="h" color-interpolation-filters="sRGB" filterUnits="userSpaceOnUse" height="15.181" width="14.618" x="8.783" y="4.001"><feFlood flood-opacity="0" result="BackgroundImageFix"/><feBlend in="SourceGraphic" in2="BackgroundImageFix" mode="normal" result="shape"/><feColorMatrix in="SourceAlpha" result="hardAlpha" type="matrix" values="0 0 0 0 0 0 0 0 0 0 0 0 0 0 0 0 0 0 127 0"/><feOffset dx=".25" dy="-.75"/><feGaussianBlur stdDeviation=".75"/><feComposite in2="hardAlpha" k2="-1" k3="1" operator="arithmetic"/><feColorMatrix type="matrix" values="0 0 0 0 0.262745 0 0 0 0 0.133333 0 0 0 0 0.184314 0 0 0 1 0"/><feBlend in2="shape" mode="normal" result="effect1_innerShadow_4002_4189"/></filter><filter id="i" color-interpolation-filters="sRGB" filterUnits="userSpaceOnUse" height="13.423" width="23.107" x="4.427" y="16.699"><feFlood flood-opacity="0" result="BackgroundImageFix"/><feBlend in="SourceGraphic" in2="BackgroundImageFix" mode="normal" result="shape"/><feColorMatrix in="SourceAlpha" result="hardAlpha" type="matrix" values="0 0 0 0 0 0 0 0 0 0 0 0 0 0 0 0 0 0 127 0"/><feOffset dy="-.25"/><feGaussianBlur stdDeviation=".25"/><feComposite in2="hardAlpha" k2="-1" k3="1" operator="arithmetic"/><feColorMatrix type="matrix" values="0 0 0 0 0.498039 0 0 0 0 0.278431 0 0 0 0 0.843137 0 0 0 1 0"/><feBlend in2="shape" mode="normal" result="effect1_innerShadow_4002_4189"/></filter><filter id="j" color-interpolation-filters="sRGB" filterUnits="userSpaceOnUse" height="8.945" width="8.199" x="4.912" y="16.72"><feFlood flood-opacity="0" result="BackgroundImageFix"/><feBlend in="SourceGraphic" in2="BackgroundImageFix" mode="normal" result="shape"/><feGaussianBlur result="effect1_foregroundBlur_4002_4189" stdDeviation=".75"/></filter><filter id="k" color-interpolation-filters="sRGB" filterUnits="userSpaceOnUse" height="7.913" width="7.102" x="20.265" y="17.252"><feFlood flood-opacity="0" result="BackgroundImageFix"/><feBlend in="SourceGraphic" in2="BackgroundImageFix" mode="normal" result="shape"/><feGaussianBlur result="effect1_foregroundBlur_4002_4189" stdDeviation=".625"/></filter><filter id="l" color-interpolation-filters="sRGB" filterUnits="userSpaceOnUse" height="6.956" width="3.956" x="9.012" y="19.346"><feFlood flood-opacity="0" result="BackgroundImageFix"/><feBlend in="SourceGraphic" in2="BackgroundImageFix" mode="normal" result="shape"/><feGaussianBlur result="effect1_foregroundBlur_4002_4189" stdDeviation=".25"/></filter><filter id="m" color-interpolation-filters="sRGB" filterUnits="userSpaceOnUse" height="3.038" width="3.188" x="9.931" y="11.566"><feFlood flood-opacity="0" result="BackgroundImageFix"/><feBlend in="SourceGraphic" in2="BackgroundImageFix" mode="normal" result="shape"/><feColorMatrix in="SourceAlpha" result="hardAlpha" type="matrix" values="0 0 0 0 0 0 0 0 0 0 0 0 0 0 0 0 0 0 127 0"/><feOffset dx=".15"/><feGaussianBlur stdDeviation=".25"/><feComposite in2="hardAlpha" k2="-1" k3="1" operator="arithmetic"/><feColorMatrix type="matrix" values="0 0 0 0 0.607843 0 0 0 0 0.458824 0 0 0 0 0.403922 0 0 0 1 0"/><feBlend in2="shape" mode="normal" result="effect1_innerShadow_4002_4189"/></filter><filter id="n" color-interpolation-filters="sRGB" filterUnits="userSpaceOnUse" height="3.288" width="3.038" x="18.892" y="10.718"><feFlood flood-opacity="0" result="BackgroundImageFix"/><feBlend in="SourceGraphic" in2="BackgroundImageFix" mode="normal" result="shape"/><feColorMatrix in="SourceAlpha" result="hardAlpha" type="matrix" values="0 0 0 0 0 0 0 0 0 0 0 0 0 0 0 0 0 0 127 0"/><feOffset dy="-.25"/><feGaussianBlur stdDeviation=".25"/><feComposite in2="hardAlpha" k2="-1" k3="1" operator="arithmetic"/><feColorMatrix type="matrix" values="0 0 0 0 0.556863 0 0 0 0 0.34902 0 0 0 0 0.384314 0 0 0 1 0"/><feBlend in2="shape" mode="normal" result="effect1_innerShadow_4002_4189"/></filter><filter id="o" color-interpolation-filters="sRGB" filterUnits="userSpaceOnUse" height="3.028" width="3.028" x="18.898" y="10.973"><feFlood flood-opacity="0" result="BackgroundImageFix"/><feBlend in="SourceGraphic" in2="BackgroundImageFix" mode="normal" result="shape"/><feGaussianBlur result="effect1_foregroundBlur_4002_4189" stdDeviation=".25"/></filter><filter id="p" color-interpolation-filters="sRGB" filterUnits="userSpaceOnUse" height="2.728" width="2.728" x="10.105" y="11.72"><feFlood flood-opacity="0" result="BackgroundImageFix"/><feBlend in="SourceGraphic" in2="BackgroundImageFix" mode="normal" result="shape"/><feGaussianBlur result="effect1_foregroundBlur_4002_4189" stdDeviation=".175"/></filter><filter id="q" color-interpolation-filters="sRGB" filterUnits="userSpaceOnUse" height="10.491" width="9.688" x="10.947" y="8.335"><feFlood flood-opacity="0" result="BackgroundImageFix"/><feBlend in="SourceGraphic" in2="BackgroundImageFix" mode="normal" result="shape"/><feColorMatrix in="SourceAlpha" result="hardAlpha" type="matrix" values="0 0 0 0 0 0 0 0 0 0 0 0 0 0 0 0 0 0 127 0"/><feOffset dy=".4"/><feGaussianBlur stdDeviation=".3"/><feComposite in2="hardAlpha" k2="-1" k3="1" operator="arithmetic"/><feColorMatrix type="matrix" values="0 0 0 0 0.407843 0 0 0 0 0.223529 0 0 0 0 0.25098 0 0 0 1 0"/><feBlend in2="shape" mode="normal" result="effect1_innerShadow_4002_4189"/></filter><filter id="r" color-interpolation-filters="sRGB" filterUnits="userSpaceOnUse" height="3.558" width="2.771" x="14.429" y="11.819"><feFlood flood-opacity="0" result="BackgroundImageFix"/><feBlend in="SourceGraphic" in2="BackgroundImageFix" mode="normal" result="shape"/><feGaussianBlur result="effect1_foregroundBlur_4002_4189" stdDeviation=".25"/></filter><filter id="s" color-interpolation-filters="sRGB" filterUnits="userSpaceOnUse" height="3.053" width="2.271" x="14.823" y="11.933"><feFlood flood-opacity="0" result="BackgroundImageFix"/><feBlend in="SourceGraphic" in2="BackgroundImageFix" mode="normal" result="shape"/><feGaussianBlur result="effect1_foregroundBlur_4002_4189" stdDeviation=".125"/></filter><filter id="t" color-interpolation-filters="sRGB" filterUnits="userSpaceOnUse" height="1.181" width="2.831" x="16.704" y="11.294"><feFlood flood-opacity="0" result="BackgroundImageFix"/><feBlend in="SourceGraphic" in2="BackgroundImageFix" mode="normal" result="shape"/><feColorMatrix in="SourceAlpha" result="hardAlpha" type="matrix" values="0 0 0 0 0 0 0 0 0 0 0 0 0 0 0 0 0 0 127 0"/><feOffset dx="-.2"/><feGaussianBlur stdDeviation=".2"/><feComposite in2="hardAlpha" k2="-1" k3="1" operator="arithmetic"/><feColorMatrix type="matrix" values="0 0 0 0 0.117647 0 0 0 0 0.0705882 0 0 0 0 0.156863 0 0 0 1 0"/><feBlend in2="shape" mode="normal" result="effect1_innerShadow_4002_4189"/></filter><filter id="u" color-interpolation-filters="sRGB" filterUnits="userSpaceOnUse" height="1.251" width="2.848" x="12.105" y="11.63"><feFlood flood-opacity="0" result="BackgroundImageFix"/><feBlend in="SourceGraphic" in2="BackgroundImageFix" mode="normal" result="shape"/><feColorMatrix in="SourceAlpha" result="hardAlpha" type="matrix" values="0 0 0 0 0 0 0 0 0 0 0 0 0 0 0 0 0 0 127 0"/><feOffset dx=".2"/><feGaussianBlur stdDeviation=".125"/><feComposite in2="hardAlpha" k2="-1" k3="1" operator="arithmetic"/><feColorMatrix type="matrix" values="0 0 0 0 0.0862745 0 0 0 0 0.054902 0 0 0 0 0.113725 0 0 0 1 0"/><feBlend in2="shape" mode="normal" result="effect1_innerShadow_4002_4189"/></filter><filter id="v" color-interpolation-filters="sRGB" filterUnits="userSpaceOnUse" height="1.129" width="2.303" x="12.15" y="10.248"><feFlood flood-opacity="0" result="BackgroundImageFix"/><feBlend in="SourceGraphic" in2="BackgroundImageFix" mode="normal" result="shape"/><feColorMatrix in="SourceAlpha" result="hardAlpha" type="matrix" values="0 0 0 0 0 0 0 0 0 0 0 0 0 0 0 0 0 0 127 0"/><feOffset dx=".2" dy="-.2"/><feGaussianBlur stdDeviation=".15"/><feComposite in2="hardAlpha" k2="-1" k3="1" operator="arithmetic"/><feColorMatrix type="matrix" values="0 0 0 0 0.211765 0 0 0 0 0.121569 0 0 0 0 0.12549 0 0 0 1 0"/><feBlend in2="shape" mode="normal" result="effect1_innerShadow_4002_4189"/></filter><filter id="w" color-interpolation-filters="sRGB" filterUnits="userSpaceOnUse" height=".962" width="2.344" x="17.233" y="9.967"><feFlood flood-opacity="0" result="BackgroundImageFix"/><feBlend in="SourceGraphic" in2="BackgroundImageFix" mode="normal" result="shape"/><feColorMatrix in="SourceAlpha" result="hardAlpha" type="matrix" values="0 0 0 0 0 0 0 0 0 0 0 0 0 0 0 0 0 0 127 0"/><feOffset dx=".2" dy="-.2"/><feGaussianBlur stdDeviation=".15"/><feComposite in2="hardAlpha" k2="-1" k3="1" operator="arithmetic"/><feColorMatrix type="matrix" values="0 0 0 0 0.211765 0 0 0 0 0.121569 0 0 0 0 0.12549 0 0 0 1 0"/><feBlend in2="shape" mode="normal" result="effect1_innerShadow_4002_4189"/></filter><filter id="x" color-interpolation-filters="sRGB" filterUnits="userSpaceOnUse" height=".691" width=".736" x="17.188" y="11.681"><feFlood flood-opacity="0" result="BackgroundImageFix"/><feBlend in="SourceGraphic" in2="BackgroundImageFix" mode="normal" result="shape"/><feGaussianBlur result="effect1_foregroundBlur_4002_4189" stdDeviation=".05"/></filter><filter id="y" color-interpolation-filters="sRGB" filterUnits="userSpaceOnUse" height=".893" width=".874" x="17.978" y="11.7"><feFlood flood-opacity="0" result="BackgroundImageFix"/><feBlend in="SourceGraphic" in2="BackgroundImageFix" mode="normal" result="shape"/><feGaussianBlur result="effect1_foregroundBlur_4002_4189" stdDeviation=".1"/></filter><filter id="z" color-interpolation-filters="sRGB" filterUnits="userSpaceOnUse" height="1.011" width=".969" x="13.789" y="11.918"><feFlood flood-opacity="0" result="BackgroundImageFix"/><feBlend in="SourceGraphic" in2="BackgroundImageFix" mode="normal" result="shape"/><feGaussianBlur result="effect1_foregroundBlur_4002_4189" stdDeviation=".1"/></filter><filter id="A" color-interpolation-filters="sRGB" filterUnits="userSpaceOnUse" height=".7" width=".856" x="13.082" y="11.942"><feFlood flood-opacity="0" result="BackgroundImageFix"/><feBlend in="SourceGraphic" in2="BackgroundImageFix" mode="normal" result="shape"/><feGaussianBlur result="effect1_foregroundBlur_4002_4189" stdDeviation=".05"/></filter><filter id="B" color-interpolation-filters="sRGB" filterUnits="userSpaceOnUse" height=".878" width="2.186" x="17.242" y="10.075"><feFlood flood-opacity="0" result="BackgroundImageFix"/><feBlend in="SourceGraphic" in2="BackgroundImageFix" mode="normal" result="shape"/><feGaussianBlur result="effect1_foregroundBlur_4002_4189" stdDeviation=".1"/></filter><filter id="C" color-interpolation-filters="sRGB" filterUnits="userSpaceOnUse" height="1.043" width="2.143" x="12.129" y="10.357"><feFlood flood-opacity="0" result="BackgroundImageFix"/><feBlend in="SourceGraphic" in2="BackgroundImageFix" mode="normal" result="shape"/><feGaussianBlur result="effect1_foregroundBlur_4002_4189" stdDeviation=".1"/></filter><filter id="D" color-interpolation-filters="sRGB" filterUnits="userSpaceOnUse" height="4.559" width="4.023" x="9.619" y="6.438"><feFlood flood-opacity="0" result="BackgroundImageFix"/><feBlend in="SourceGraphic" in2="BackgroundImageFix" mode="normal" result="shape"/><feColorMatrix in="SourceAlpha" result="hardAlpha" type="matrix" values="0 0 0 0 0 0 0 0 0 0 0 0 0 0 0 0 0 0 127 0"/><feOffset dx=".5" dy=".5"/><feGaussianBlur stdDeviation=".5"/><feComposite in2="hardAlpha" k2="-1" k3="1" operator="arithmetic"/><feColorMatrix type="matrix" values="0 0 0 0 0.345098 0 0 0 0 0.286275 0 0 0 0 0.27451 0 0 0 1 0"/><feBlend in2="shape" mode="normal" result="effect1_innerShadow_4002_4189"/><feGaussianBlur result="effect2_foregroundBlur_4002_4189" stdDeviation=".2"/></filter><filter id="E" color-interpolation-filters="sRGB" filterUnits="userSpaceOnUse" height="5.084" width="8.539" x="12.452" y="5.223"><feFlood flood-opacity="0" result="BackgroundImageFix"/><feBlend in="SourceGraphic" in2="BackgroundImageFix" mode="normal" result="shape"/><feColorMatrix in="SourceAlpha" result="hardAlpha" type="matrix" values="0 0 0 0 0 0 0 0 0 0 0 0 0 0 0 0 0 0 127 0"/><feOffset dx="-.3" dy=".2"/><feGaussianBlur stdDeviation=".4"/><feComposite in2="hardAlpha" k2="-1" k3="1" operator="arithmetic"/><feColorMatrix type="matrix" values="0 0 0 0 0.415686 0 0 0 0 0.317647 0 0 0 0 0.305882 0 0 0 1 0"/><feBlend in2="shape" mode="normal" result="effect1_innerShadow_4002_4189"/><feGaussianBlur result="effect2_foregroundBlur_4002_4189" stdDeviation=".125"/></filter><filter id="F" color-interpolation-filters="sRGB" filterUnits="userSpaceOnUse" height="2.176" width="1.221" x="12.43" y="6.509"><feFlood flood-opacity="0" result="BackgroundImageFix"/><feBlend in="SourceGraphic" in2="BackgroundImageFix" mode="normal" result="shape"/><feGaussianBlur result="effect1_foregroundBlur_4002_4189" stdDeviation=".1"/></filter><filter id="G" color-interpolation-filters="sRGB" filterUnits="userSpaceOnUse" height="3.648" width="6.717" x="14.496" y="6.865"><feFlood flood-opacity="0" result="BackgroundImageFix"/><feBlend in="SourceGraphic" in2="BackgroundImageFix" mode="normal" result="shape"/><feGaussianBlur result="effect1_foregroundBlur_4002_4189" stdDeviation=".5"/></filter><filter id="H" color-interpolation-filters="sRGB" filterUnits="userSpaceOnUse" height="1.724" width="1.709" x="15.344" y="15.095"><feFlood flood-opacity="0" result="BackgroundImageFix"/><feBlend in="SourceGraphic" in2="BackgroundImageFix" mode="normal" result="shape"/><feGaussianBlur result="effect1_foregroundBlur_4002_4189" stdDeviation=".05"/></filter><linearGradient id="I"><stop offset="0" stop-color="#997761"/><stop offset="1" stop-color="#8b6e5a"/></linearGradient><linearGradient id="J" gradientUnits="userSpaceOnUse" x1="3.575" x2="5.779" xlink:href="#I" y1="12.397" y2="13.142"/><linearGradient id="K"><stop offset=".651" stop-color="#92576f" stop-opacity="0"/><stop offset="1" stop-color="#92576f"/></linearGradient><radialGradient id="L" cx="0" cy="0" gradientTransform="matrix(-.71267151 1.8324424 -2.48647004 -.96703524 5.24097 12.4092)" gradientUnits="userSpaceOnUse" r="1" xlink:href="#K"/><linearGradient id="M"><stop offset="0" stop-color="#ad887b"/><stop offset="1" stop-color="#ad887b" stop-opacity="0"/></linearGradient><linearGradient id="N" gradientUnits="userSpaceOnUse" x1="4.079" x2="6.235" xlink:href="#M" y1="12.192" y2="14.341"/><linearGradient id="O" gradientUnits="userSpaceOnUse" x1="2.48" x2="4.518" xlink:href="#I" y1="12.777" y2="13.34"/><radialGradient id="P" cx="0" cy="0" gradientTransform="matrix(-.63638075 2.00369932 -2.32191536 -.7374471 3.96832 12.7902)" gradientUnits="userSpaceOnUse" r="1" xlink:href="#K"/><linearGradient id="Q" gradientUnits="userSpaceOnUse" x1="3.012" x2="5.422" xlink:href="#M" y1="12.462" y2="14.676"/><linearGradient id="R" gradientUnits="userSpaceOnUse" x1="2.527" x2="4.769" xlink:href="#I" y1="13.713" y2="14.511"/><radialGradient id="S" cx="0" cy="0" gradientTransform="matrix(-.7328764 1.79085339 -2.52144376 -1.03185813 4.24031 13.7255)" gradientUnits="userSpaceOnUse" r="1" xlink:href="#K"/><linearGradient id="T" gradientUnits="userSpaceOnUse" x1="2.936" x2="5.527" xlink:href="#M" y1="13.453" y2="15.452"/><linearGradient id="U" gradientUnits="userSpaceOnUse" x1="2.849" x2="5.024" xlink:href="#I" y1="14.666" y2="15.546"/><radialGradient id="V" cx="0" cy="0" gradientTransform="matrix(-.7343828 1.57812379 -2.4246621 -1.12832095 4.56631 14.6765)" gradientUnits="userSpaceOnUse" r="1" xlink:href="#K"/><linearGradient id="W" gradientUnits="userSpaceOnUse" x1="8.571" x2="7.73" y1="15.736" y2="15.736"><stop offset=".005" stop-color="#896e61"/><stop offset="1" stop-color="#896e61" stop-opacity="0"/></linearGradient><radialGradient id="X" cx="0" cy="0" gradientTransform="matrix(-.52137985 .86916434 -1.02150714 -.61276472 6.87262 11.5032)" gradientUnits="userSpaceOnUse" r="1"><stop offset="0" stop-color="#9a7b65"/><stop offset="1" stop-color="#9a7b65" stop-opacity="0"/></radialGradient><linearGradient id="Y" gradientUnits="userSpaceOnUse" x1="5.667" x2="5.667" y1="16.66" y2="15.88"><stop offset="0" stop-color="#753d27"/><stop offset="1" stop-color="#753d27" stop-opacity="0"/></linearGradient><radialGradient id="Z" cx="0" cy="0" gradientTransform="matrix(1.33066534 1.6298719 -.58967515 .48142451 5.47676 12.4514)" gradientUnits="userSpaceOnUse" r="1"><stop offset="0" stop-color="#875d53"/><stop offset="1" stop-color="#875d53" stop-opacity="0"/></radialGradient><linearGradient id="aa" gradientUnits="userSpaceOnUse" x1="23.611" x2="24.409" y1="15.635" y2="15.635"><stop offset="0" stop-color="#8a6355"/><stop offset="1" stop-color="#8a6355" stop-opacity="0"/></linearGradient><radialGradient id="ab" cx="0" cy="0" gradientTransform="matrix(.85156561 -.55469034 .26704921 .40997636 26.0886 11.7533)" gradientUnits="userSpaceOnUse" r="1"><stop offset=".116" stop-color="#c5a28a"/><stop offset="1" stop-color="#c5a28a" stop-opacity="0"/></radialGradient><radialGradient id="ac" cx="0" cy="0" gradientTransform="matrix(-.53124773 -.42187759 .54497186 -.68625372 26.1169 13.0529)" gradientUnits="userSpaceOnUse" r="1"><stop offset=".106" stop-color="#967161"/><stop offset="1" stop-color="#967161" stop-opacity="0"/></radialGradient><linearGradient id="ad"><stop offset="0" stop-color="#bb977a"/><stop offset="1" stop-color="#b08a6f"/></linearGradient><linearGradient id="ae" gradientUnits="userSpaceOnUse" x1="28.207" x2="25.514" xlink:href="#ad" y1="13.893" y2="13.852"/><linearGradient id="af"><stop offset=".575" stop-color="#9f6274" stop-opacity="0"/><stop offset="1" stop-color="#9f6274"/></linearGradient><radialGradient id="ag" cx="0" cy="0" gradientTransform="matrix(2.25998073 .55369525 -1.30788319 5.338299 26.3851 12.4721)" gradientUnits="userSpaceOnUse" r="1" xlink:href="#af"/><linearGradient id="ah"><stop offset="0" stop-color="#8e6854"/><stop offset="1" stop-color="#8e6854" stop-opacity="0"/></linearGradient><radialGradient id="ai" cx="0" cy="0" gradientTransform="matrix(.83172016 1.25495912 -1.54431115 1.0234873 26.871 12.5964)" gradientUnits="userSpaceOnUse" r="1" xlink:href="#ah"/><linearGradient id="aj"><stop offset=".116" stop-color="#c6a18a"/><stop offset="1" stop-color="#c6a18a" stop-opacity="0"/></linearGradient><radialGradient id="ak" cx="0" cy="0" gradientTransform="matrix(.561046 -.65314495 .38674892 .33221405 28.5345 12.1007)" gradientUnits="userSpaceOnUse" r="1" xlink:href="#aj"/><linearGradient id="al" gradientUnits="userSpaceOnUse" x1="29.28" x2="26.736" xlink:href="#ad" y1="14.415" y2="14.382"/><radialGradient id="am" cx="0" cy="0" gradientTransform="matrix(.97004247 2.19293001 -9.20328251 4.07107152 27.9746 12.244)" gradientUnits="userSpaceOnUse" r="1" xlink:href="#af"/><radialGradient id="an" cx="0" cy="0" gradientTransform="matrix(1.17518825 1.75148492 -1.61774093 1.08545047 27.7637 12.9467)" gradientUnits="userSpaceOnUse" r="1" xlink:href="#ah"/><radialGradient id="ao" cx="0" cy="0" gradientTransform="matrix(.57629452 -.54239493 .31084993 .33027799 29.4134 12.2461)" gradientUnits="userSpaceOnUse" r="1" xlink:href="#aj"/><linearGradient id="ap" gradientUnits="userSpaceOnUse" x1="29.253" x2="26.483" xlink:href="#ad" y1="15.176" y2="15.132"/><radialGradient id="aq" cx="0" cy="0" gradientTransform="matrix(1.0562059 1.95820443 -9.28137976 5.00614131 27.8317 13.2372)" gradientUnits="userSpaceOnUse" r="1" xlink:href="#af"/><radialGradient id="ar" cx="0" cy="0" gradientTransform="matrix(.77678568 1.38489536 -1.43750476 .80629421 27.9571 13.7501)" gradientUnits="userSpaceOnUse" r="1" xlink:href="#ah"/><radialGradient id="as" cx="0" cy="0" gradientTransform="matrix(.57694607 -.638324 .38040185 .34382438 29.5892 13.4241)" gradientUnits="userSpaceOnUse" r="1" xlink:href="#aj"/><linearGradient id="at" gradientUnits="userSpaceOnUse" x1="28.939" x2="26.164" xlink:href="#ad" y1="15.955" y2="15.904"/><radialGradient id="au" cx="0" cy="0" gradientTransform="matrix(1.05836173 1.72560176 -8.72420658 5.35080956 27.5151 14.2462)" gradientUnits="userSpaceOnUse" r="1" xlink:href="#af"/><radialGradient id="av" cx="0" cy="0" gradientTransform="matrix(.77836954 1.22038486 -1.34604198 .85851447 27.6407 14.6982)" gradientUnits="userSpaceOnUse" r="1" xlink:href="#ah"/><radialGradient id="aw" cx="0" cy="0" gradientTransform="matrix(.57812451 -.56250001 .33680377 .34615913 29.2762 14.4109)" gradientUnits="userSpaceOnUse" r="1" xlink:href="#aj"/><linearGradient id="ax" gradientUnits="userSpaceOnUse" x1="3.224" x2="6.032" xlink:href="#M" y1="14.481" y2="16.162"/><linearGradient id="ay" gradientUnits="userSpaceOnUse" x1="8.057" x2="7.268" y1="15.988" y2="14.94"><stop offset="0" stop-color="#946f66"/><stop offset="1" stop-color="#946f66" stop-opacity="0"/></linearGradient><linearGradient id="az" gradientUnits="userSpaceOnUse" x1="19.848" x2="14.746" y1="5.947" y2="16.469"><stop offset="0" stop-color="#6d524e"/><stop offset="1" stop-color="#2c1c24"/></linearGradient><radialGradient id="aA" cx="0" cy="0" gradientTransform="matrix(-.2818392 4.33259273 -5.4122907 -.35207457 15.7375 15.166)" gradientUnits="userSpaceOnUse" r="1"><stop offset=".591" stop-color="#261326"/><stop offset="1" stop-color="#261326" stop-opacity="0"/></radialGradient><radialGradient id="aB" cx="0" cy="0" gradientTransform="matrix(-2.59361439 2.01275625 -2.64460301 -3.40780481 13.1017 15.5956)" gradientUnits="userSpaceOnUse" r="1"><stop offset=".258" stop-color="#25131c"/><stop offset="1" stop-color="#25131c" stop-opacity="0"/></radialGradient><radialGradient id="aC" cx="0" cy="0" gradientTransform="matrix(-1.1240984 1.69267312 -1.29973784 -.86315143 11.3153 13.3042)" gradientUnits="userSpaceOnUse" r="1"><stop offset=".334" stop-color="#27141e"/><stop offset="1" stop-color="#27141e" stop-opacity="0"/></radialGradient><radialGradient id="aD" cx="0" cy="0" gradientTransform="matrix(-1.08301753 2.07056512 -1.45853134 -.76289076 11.614 11.3653)" gradientUnits="userSpaceOnUse" r="1"><stop offset=".321" stop-color="#230c14"/><stop offset="1" stop-color="#230c14" stop-opacity="0"/></radialGradient><radialGradient id="aE" cx="0" cy="0" gradientTransform="matrix(1.45907044 2.37671996 -3.29925904 2.02541799 12.0421 5.4211)" gradientUnits="userSpaceOnUse" r="1"><stop offset="0" stop-color="#554543"/><stop offset="1" stop-color="#554543" stop-opacity="0"/></radialGradient><radialGradient id="aF" cx="0" cy="0" gradientTransform="matrix(-1.26719395 1.44847289 -2.02421478 -1.77088073 20.9831 6.79106)" gradientUnits="userSpaceOnUse" r="1"><stop offset="0" stop-color="#6e5350"/><stop offset="1" stop-color="#6e5350" stop-opacity="0"/></radialGradient><radialGradient id="aG" cx="0" cy="0" gradientTransform="matrix(-1.70302562 .62113006 -1.29531844 -3.55152749 22.8844 11.5172)" gradientUnits="userSpaceOnUse" r="1"><stop offset="0" stop-color="#604947"/><stop offset="1" stop-color="#604947" stop-opacity="0"/></radialGradient><radialGradient id="aH" cx="0" cy="0" gradientTransform="matrix(-2.60826288 .84013405 -1.07020721 -3.32254329 22.531 14.7761)" gradientUnits="userSpaceOnUse" r="1"><stop offset="0" stop-color="#564544"/><stop offset="1" stop-color="#564544" stop-opacity="0"/></radialGradient><radialGradient id="aI" cx="0" cy="0" gradientTransform="matrix(-1.01859798 -2.4397001 1.92965901 -.80565098 20.116 9.39888)" gradientUnits="userSpaceOnUse" r="1"><stop offset="0" stop-color="#5f4846"/><stop offset="1" stop-color="#5f4846" stop-opacity="0"/></radialGradient><radialGradient id="aJ" cx="0" cy="0" gradientTransform="matrix(1.42661567 .0540712 -.08761061 2.3115203 10.0229 12.3412)" gradientUnits="userSpaceOnUse" r="1"><stop offset="0" stop-color="#56413d"/><stop offset="1" stop-color="#56413d" stop-opacity="0"/></radialGradient><radialGradient id="aK" cx="0" cy="0" gradientTransform="matrix(-1.02231357 -3.43673035 1.24038442 -.36897332 20.5834 11.0205)" gradientUnits="userSpaceOnUse" r="1"><stop offset="0" stop-color="#3e2125"/><stop offset="1" stop-color="#3e2125" stop-opacity="0"/></radialGradient><radialGradient id="aL" cx="0" cy="0" gradientTransform="matrix(0 1.94297 -2.39063 0 26.006 16.4021)" gradientUnits="userSpaceOnUse" r="1"><stop offset="0" stop-color="#9d7ad7"/><stop offset="1" stop-color="#6745a2"/></radialGradient><linearGradient id="aM" gradientUnits="userSpaceOnUse" x1="23.465" x2="23.951" y1="17.384" y2="17.376"><stop offset="0" stop-color="#493577"/><stop offset="1" stop-color="#493577" stop-opacity="0"/></linearGradient><radialGradient id="aN" cx="0" cy="0" gradientTransform="matrix(0 1.24766 -2.29189 0 7.17139 16.5349)" gradientUnits="userSpaceOnUse" r="1"><stop offset="0" stop-color="#8364b6"/><stop offset="1" stop-color="#614396"/></radialGradient><radialGradient id="aO" cx="0" cy="0" gradientTransform="matrix(0 -16.4411 10.6867 0 19.7238 29.3872)" gradientUnits="userSpaceOnUse" r="1"><stop offset=".155" stop-color="#a27be8"/><stop offset="1" stop-color="#7954b7"/></radialGradient><radialGradient id="aP" cx="0" cy="0" gradientTransform="matrix(-3.01666384 3.53393256 -.87743086 -.74899956 9.61545 20.0013)" gradientUnits="userSpaceOnUse" r="1"><stop offset="0" stop-color="#895fc7"/><stop offset="1" stop-color="#8358c9" stop-opacity="0"/></radialGradient><radialGradient id="aQ" cx="0" cy="0" gradientTransform="matrix(-2.53229751 -4.48915642 1.4734496 -.83116123 24.3186 27.0638)" gradientUnits="userSpaceOnUse" r="1"><stop offset="0" stop-color="#783edb"/><stop offset="1" stop-color="#783edb" stop-opacity="0"/></radialGradient><radialGradient id="aR" cx="0" cy="0" gradientTransform="matrix(0 7.46944 -4.08022 0 26.8175 16.949)" gradientUnits="userSpaceOnUse" r="1"><stop offset="0" stop-color="#a980f0"/><stop offset="1" stop-color="#a980f0" stop-opacity="0"/></radialGradient><radialGradient id="aS" cx="0" cy="0" gradientTransform="matrix(-2.23439384 3.4089252 -.52727883 -.34560705 9.5217 20.1263)" gradientUnits="userSpaceOnUse" r="1"><stop offset="0" stop-color="#9a71e1"/><stop offset="1" stop-color="#9a71e1" stop-opacity="0"/></radialGradient><radialGradient id="aT" cx="0" cy="0" gradientTransform="matrix(-5.37501534 3.24997026 -1.62755927 -2.69176495 14.3965 17.2755)" gradientUnits="userSpaceOnUse" r="1"><stop offset="0" stop-color="#362457"/><stop offset="1" stop-color="#362457" stop-opacity="0"/></radialGradient><radialGradient id="aU" cx="0" cy="0" gradientTransform="matrix(2.59375294 6.1390775 -2.38452864 1.00746051 22.4278 16.949)" gradientUnits="userSpaceOnUse" r="1"><stop offset="0" stop-color="#563a92"/><stop offset="1" stop-color="#563a92" stop-opacity="0"/></radialGradient><radialGradient id="aV" cx="0" cy="0" gradientTransform="matrix(3.0564316 2.63927447 -4.00441305 4.63734058 14.381 18.2513)" gradientUnits="userSpaceOnUse" r="1"><stop offset=".118" stop-color="#80545c"/><stop offset="1" stop-color="#be9080"/></radialGradient><linearGradient id="aW" gradientUnits="userSpaceOnUse" x1="9.662" x2="12.662" y1="26.121" y2="20.465"><stop offset="0" stop-color="#7346c5"/><stop offset="1" stop-color="#7346c5" stop-opacity="0"/></linearGradient><linearGradient id="aX" gradientUnits="userSpaceOnUse" x1="9.94" x2="11.69" y1="13.268" y2="13.151"><stop offset="0" stop-color="#8d645f"/><stop offset="1" stop-color="#604138"/></linearGradient><radialGradient id="aY" cx="0" cy="0" gradientTransform="matrix(-.69142184 -1.09258094 1.23804095 -.78347381 11.1814 14.6253)" gradientUnits="userSpaceOnUse" r="1"><stop offset="0" stop-color="#814e62"/><stop offset="1" stop-color="#814e62" stop-opacity="0"/></radialGradient><radialGradient id="aZ" cx="0" cy="0" gradientTransform="matrix(2.27358037 -1.22222695 1.49228093 2.7759334 19.6973 12.9501)" gradientUnits="userSpaceOnUse" r="1"><stop offset=".64" stop-color="#b28279"/><stop offset="1" stop-color="#cca58b"/></radialGradient><radialGradient id="a0" cx="0" cy="0" gradientTransform="matrix(1.13682191 -.07585758 .03266094 .48946551 20.415 10.8722)" gradientUnits="userSpaceOnUse" r="1"><stop offset="0" stop-color="#906d53"/><stop offset="1" stop-color="#906d53" stop-opacity="0"/></radialGradient><radialGradient id="a1" cx="0" cy="0" gradientTransform="matrix(1.41526883 -.20070943 .15689801 1.10633997 20.0083 12.62)" gradientUnits="userSpaceOnUse" r="1"><stop offset=".719" stop-color="#a26d62" stop-opacity="0"/><stop offset="1" stop-color="#a26d62"/></radialGradient><radialGradient id="a2" cx="0" cy="0" gradientTransform="matrix(-.99471941 .06638308 -.06638308 -.99471941 11.5303 13.0796)" gradientUnits="userSpaceOnUse" r="1"><stop offset=".722" stop-color="#6c4640" stop-opacity="0"/><stop offset="1" stop-color="#6c4640"/></radialGradient><radialGradient id="a3" cx="0" cy="0" gradientTransform="matrix(-5.93790987 3.23382453 -4.32842127 -7.94779531 18.5241 12.1042)" gradientUnits="userSpaceOnUse" r="1"><stop offset="0" stop-color="#c79980"/><stop offset="1" stop-color="#946568"/></radialGradient><radialGradient id="a4" cx="0" cy="0" gradientTransform="matrix(-1.99352007 1.04081411 -.72480764 -1.38825806 17.7409 12.9644)" gradientUnits="userSpaceOnUse" r="1"><stop offset="0" stop-color="#c4967a"/><stop offset="1" stop-color="#c4967a" stop-opacity="0"/></radialGradient><radialGradient id="a5" cx="0" cy="0" gradientTransform="matrix(.96745948 -3.781566 4.79809632 1.2275242 14.2031 18.5499)" gradientUnits="userSpaceOnUse" r="1"><stop offset="0" stop-color="#945a73"/><stop offset="1" stop-color="#945a73" stop-opacity="0"/></radialGradient><radialGradient id="a6" cx="0" cy="0" gradientTransform="matrix(-.74670539 7.02632426 -8.78281334 -.93337196 16.7681 11.8275)" gradientUnits="userSpaceOnUse" r="1"><stop offset=".637" stop-color="#97577d" stop-opacity="0"/><stop offset="1" stop-color="#97577d"/></radialGradient><radialGradient id="a7" cx="0" cy="0" gradientTransform="matrix(.39404145 5.90514771 -5.93677737 .39615205 15.6086 12.6678)" gradientUnits="userSpaceOnUse" r="1"><stop offset=".911" stop-color="#9f6394" stop-opacity="0"/><stop offset="1" stop-color="#9f6394"/></radialGradient><radialGradient id="a8" cx="0" cy="0" gradientTransform="matrix(-6.41995676 1.71073829 -2.94536771 -11.05320054 17.6447 13.8007)" gradientUnits="userSpaceOnUse" r="1"><stop offset=".795" stop-color="#9a7267" stop-opacity="0"/><stop offset="1" stop-color="#9a7267"/></radialGradient><radialGradient id="a9" cx="0" cy="0" gradientTransform="matrix(-.07233561 -1.08402926 1.33040136 -.08877564 17.9722 11.7451)" gradientUnits="userSpaceOnUse" r="1"><stop offset="0" stop-color="#ae7b75"/><stop offset="1" stop-color="#ae7b75" stop-opacity="0"/></radialGradient><radialGradient id="ba" cx="0" cy="0" gradientTransform="matrix(-.08250244 -1.23639043 1.4169888 -.09455349 13.8339 11.8049)" gradientUnits="userSpaceOnUse" r="1"><stop offset="0" stop-color="#8f5c65"/><stop offset="1" stop-color="#8f5c65" stop-opacity="0"/></radialGradient><radialGradient id="bb" cx="0" cy="0" gradientTransform="matrix(-.61684323 3.0943058 -2.47595264 -.49357585 16.9618 9.62114)" gradientUnits="userSpaceOnUse" r="1"><stop offset="0" stop-color="#ab8179"/><stop offset="1" stop-color="#ab8179" stop-opacity="0"/></radialGradient><radialGradient id="bc" cx="0" cy="0" gradientTransform="matrix(-1.21073691 .08079911 -.40520077 -6.07174439 20.6978 12.9707)" gradientUnits="userSpaceOnUse" r="1"><stop offset="0" stop-color="#c0967a"/><stop offset="1" stop-color="#c0967a" stop-opacity="0"/></radialGradient><radialGradient id="bd" cx="0" cy="0" gradientTransform="matrix(-.55758549 -1.89683507 .58458813 -.17184301 16.6825 13.9263)" gradientUnits="userSpaceOnUse" r="1"><stop offset=".017" stop-color="#cda38b"/><stop offset="1" stop-color="#cda38b" stop-opacity="0"/></radialGradient><linearGradient id="be" gradientUnits="userSpaceOnUse" x1="15.064" x2="15.948" y1="14.103" y2="14.044"><stop offset="0" stop-color="#875f54"/><stop offset="1" stop-color="#875f54" stop-opacity="0"/></linearGradient><linearGradient id="bf" gradientUnits="userSpaceOnUse" x1="15.993" x2="15.953" y1="14.71" y2="14.12"><stop offset="0" stop-color="#995c76"/><stop offset="1" stop-color="#995c76" stop-opacity="0"/></linearGradient><radialGradient id="bg" cx="0" cy="0" gradientTransform="matrix(-.7341979 .04899705 -.01369809 -.20525943 16.47 14.1407)" gradientUnits="userSpaceOnUse" r="1"><stop offset="0" stop-color="#ca9f8c"/><stop offset="1" stop-color="#ca9f8c" stop-opacity="0"/></radialGradient><linearGradient id="bh" gradientUnits="userSpaceOnUse" x1="16.07" x2="16.062" y1="14.767" y2="14.636"><stop offset="0" stop-color="#8f5269"/><stop offset="1" stop-color="#8f5269" stop-opacity="0"/></linearGradient><radialGradient id="bi" cx="0" cy="0" gradientTransform="matrix(-1.23252244 .9729685 -1.16935537 -1.48129845 16.2747 13.5907)" gradientUnits="userSpaceOnUse" r="1"><stop offset=".778" stop-color="#815553" stop-opacity="0"/><stop offset="1" stop-color="#693b40"/><stop offset="1" stop-color="#815553"/></radialGradient><linearGradient id="bj"><stop offset=".802" stop-color="#7d574a"/><stop offset="1" stop-color="#694b43"/><stop offset="1" stop-color="#804d49"/><stop offset="1" stop-color="#664944"/></linearGradient><radialGradient id="bk" cx="0" cy="0" gradientTransform="matrix(.05099806 .76426238 -1.21564656 .08111823 17.8823 12.0906)" gradientUnits="userSpaceOnUse" r="1" xlink:href="#bj"/><linearGradient id="bl"><stop offset=".766" stop-color="#ffe6e2" stop-opacity="0"/><stop offset=".966" stop-color="#ffe6e2"/></linearGradient><radialGradient id="bm" cx="0" cy="0" gradientTransform="matrix(-.23749488 -.26722437 .36790376 -.32697339 17.6733 12.1843)" gradientUnits="userSpaceOnUse" r="1" xlink:href="#bl"/><linearGradient id="bn"><stop offset="0" stop-color="#b4948d"/><stop offset="1" stop-color="#b4948d" stop-opacity="0"/></linearGradient><linearGradient id="bo" gradientUnits="userSpaceOnUse" x1="18.619" x2="18.335" xlink:href="#bn" y1="12.093" y2="12.294"/><radialGradient id="bp" cx="0" cy="0" gradientTransform="matrix(.05099832 .76426637 -1.21565654 .0811189 13.7714 12.3651)" gradientUnits="userSpaceOnUse" r="1" xlink:href="#bj"/><linearGradient id="bq" gradientUnits="userSpaceOnUse" x1="14.476" x2="14.192" xlink:href="#bn" y1="12.369" y2="12.571"/><radialGradient id="br" cx="0" cy="0" gradientTransform="matrix(-.00731057 -.46692377 .56126121 -.0087876 13.4959 12.5896)" gradientUnits="userSpaceOnUse" r="1" xlink:href="#bl"/><radialGradient id="bs" cx="0" cy="0" gradientTransform="matrix(1.01563206 -2.67495 1.36843362 .51957048 10.3637 10.586)" gradientUnits="userSpaceOnUse" r="1"><stop offset="0" stop-color="#5c4643"/><stop offset="1" stop-color="#5c4643" stop-opacity="0"/></radialGradient><radialGradient id="bt" cx="0" cy="0" gradientTransform="matrix(.95869703 -1.93294263 1.03772385 .5146882 11.9107 9.55511)" gradientUnits="userSpaceOnUse" r="1"><stop offset="0" stop-color="#4b2839"/><stop offset="1" stop-color="#4b2839" stop-opacity="0"/></radialGradient><radialGradient id="bu" cx="0" cy="0" gradientTransform="matrix(-1.71339701 4.26952819 -6.98043033 -2.80130448 17.1663 5.20519)" gradientUnits="userSpaceOnUse" r="1"><stop offset=".639" stop-color="#442534" stop-opacity="0"/><stop offset="1" stop-color="#442534"/></radialGradient><radialGradient id="bv" cx="0" cy="0" gradientTransform="matrix(-.11219972 1.3011213 -2.79930127 -.24139242 15.5877 5.66006)" gradientUnits="userSpaceOnUse" r="1"><stop offset="0" stop-color="#634945"/><stop offset="1" stop-color="#4c4749" stop-opacity="0"/><stop offset="1" stop-color="#634945" stop-opacity="0"/></radialGradient><linearGradient id="bw" gradientUnits="userSpaceOnUse" x1="12.499" x2="13.04" y1="6.437" y2="7.598"><stop offset="0" stop-color="#361f1f"/><stop offset="1" stop-color="#452531"/></linearGradient><radialGradient id="bx" cx="0" cy="0" gradientTransform="matrix(.14099474 -.95434192 .42046696 .0621199 15.9946 16.5734)" gradientUnits="userSpaceOnUse" r="1"><stop offset="0" stop-color="#866166"/><stop offset="1" stop-color="#866166" stop-opacity="0"/></radialGradient><path clip-rule="evenodd" d="m3.34885 11.8508c.31328-.2265.75088-.1562.97741.1571.0445.0615.08805.1364.11509.1829.00202.0035.00394.0068.00577.0099l.00098.0017c.0336.0576.06618.1135.10474.1741.07666.1205.17068.2491.29385.3698.23258.228.60749.4678 1.2667.4999.38614.0189.68392.3471.6651.7333-.01881.3861-.34709.6839-.73323.6651-1.02439-.0499-1.71783-.4468-2.17861-.8985-.22352-.2191-.38243-.4411-.49497-.618-.05342-.084-.09779-.1601-.13005-.2155-.00136-.0023-.0027-.0046-.00401-.0068-.02849-.0489-.04059-.0688-.04454-.0753-.00163-.0026-.00187-.003-.00131-.0023-.22653-.3133-.1562-.7509.15708-.9774z" fill="url(#J)" fill-rule="evenodd"/><path clip-rule="evenodd" d="m3.34885 11.8508c.31328-.2265.75088-.1562.97741.1571.0445.0615.08805.1364.11509.1829.00202.0035.00394.0068.00577.0099l.00098.0017c.0336.0576.06618.1135.10474.1741.07666.1205.17068.2491.29385.3698.23258.228.60749.4678 1.2667.4999.38614.0189.68392.3471.6651.7333-.01881.3861-.34709.6839-.73323.6651-1.02439-.0499-1.71783-.4468-2.17861-.8985-.22352-.2191-.38243-.4411-.49497-.618-.05342-.084-.09779-.1601-.13005-.2155-.00136-.0023-.0027-.0046-.00401-.0068-.02849-.0489-.04059-.0688-.04454-.0753-.00163-.0026-.00187-.003-.00131-.0023-.22653-.3133-.1562-.7509.15708-.9774z" fill="url(#L)" fill-rule="evenodd"/><g filter="url(#a)"><path d="m3.87891 12.2378c.19604.5018 1.01754 1.3876 2.05191 1.5389" stroke="url(#N)" stroke-linecap="round" stroke-width=".4"/></g><path clip-rule="evenodd" d="m2.30979 12.1672c.31328-.2265.75088-.1562.9774.1571.03402.0471.07205.1039.11493.168.26152.3911.70351 1.052 1.51519 1.3994.3554.1522.52017.5636.36803.919-.15215.3554-.5636.5202-.919.3681-1.24565-.5333-1.93453-1.603-2.15529-1.9458-.02579-.04-.04519-.0702-.05835-.0884-.22652-.3132-.15619-.7508.15709-.9774z" fill="url(#O)" fill-rule="evenodd"/><path clip-rule="evenodd" d="m2.30979 12.1672c.31328-.2265.75088-.1562.9774.1571.03402.0471.07205.1039.11493.168.26152.3911.70351 1.052 1.51519 1.3994.3554.1522.52017.5636.36803.919-.15215.3554-.5636.5202-.919.3681-1.24565-.5333-1.93453-1.603-2.15529-1.9458-.02579-.04-.04519-.0702-.05835-.0884-.22652-.3132-.15619-.7508.15709-.9774z" fill="url(#P)" fill-rule="evenodd"/><g filter="url(#b)"><path d="m2.80029 12.5178c.19604.5018.84437 1.4585 2.12708 1.7232" stroke="url(#Q)" stroke-linecap="round" stroke-width=".4"/></g><path clip-rule="evenodd" d="m2.27753 13.1893c.30971-.2314.74835-.1679.97974.1418.02742.0367.05606.0765.08632.1186.30145.4192.76326 1.0613 1.77869 1.0613.3866 0 .7.3134.7.7s-.3134.7-.7.7c-1.77535 0-2.63668-1.2399-2.92436-1.6541-.02498-.0359-.04564-.0657-.06219-.0878-.23139-.3097-.1679-.7484.1418-.9798z" fill="url(#R)" fill-rule="evenodd"/><path clip-rule="evenodd" d="m2.27753 13.1893c.30971-.2314.74835-.1679.97974.1418.02742.0367.05606.0765.08632.1186.30145.4192.76326 1.0613 1.77869 1.0613.3866 0 .7.3134.7.7s-.3134.7-.7.7c-1.77535 0-2.63668-1.2399-2.92436-1.6541-.02498-.0359-.04564-.0657-.06219-.0878-.23139-.3097-.1679-.7484.1418-.9798z" fill="url(#S)" fill-rule="evenodd"/><g filter="url(#c)"><path d="m2.73022 13.5271c.23837.4831.96638 1.3807 2.26706 1.5344" stroke="url(#T)" stroke-linecap="round" stroke-width=".4"/></g><path clip-rule="evenodd" d="m2.59895 14.2206c.3097-.2314.74835-.1679.97974.1418.18098.2422.65325.84 1.87282.84.3866 0 .7.3134.7.7s-.3134.7-.7.7c-1.82731 0-2.66755-.9646-2.99437-1.4021-.23139-.3097-.1679-.7483.14181-.9797z" fill="url(#U)" fill-rule="evenodd"/><path clip-rule="evenodd" d="m2.59895 14.2206c.3097-.2314.74835-.1679.97974.1418.18098.2422.65325.84 1.87282.84.3866 0 .7.3134.7.7s-.3134.7-.7.7c-1.82731 0-2.66755-.9646-2.99437-1.4021-.23139-.3097-.1679-.7483.14181-.9797z" fill="url(#V)" fill-rule="evenodd"/><path d="m5.82939 11.6585c.32843-.2524.79929-.1907 1.05168.1377l.80458 1.047c.36928.4805.56948 1.0696.56948 1.6757v2.1406h-3.25782v-2.6981h1.62665c-.03569-.0716-.07837-.14-.12768-.2042l-.80458-1.047c-.2524-.3284-.19075-.7993.13769-1.0517z" fill="#8b6e5a"/><path d="m5.82939 11.6585c.32843-.2524.79929-.1907 1.05168.1377l.80458 1.047c.36928.4805.56948 1.0696.56948 1.6757v2.1406h-3.25782v-2.6981h1.62665c-.03569-.0716-.07837-.14-.12768-.2042l-.80458-1.047c-.2524-.3284-.19075-.7993.13769-1.0517z" fill="url(#W)"/><path d="m5.82939 11.6585c.32843-.2524.79929-.1907 1.05168.1377l.80458 1.047c.36928.4805.56948 1.0696.56948 1.6757v2.1406h-3.25782v-2.6981h1.62665c-.03569-.0716-.07837-.14-.12768-.2042l-.80458-1.047c-.2524-.3284-.19075-.7993.13769-1.0517z" fill="url(#X)"/><path d="m5.82939 11.6585c.32843-.2524.79929-.1907 1.05168.1377l.80458 1.047c.36928.4805.56948 1.0696.56948 1.6757v2.1406h-3.25782v-2.6981h1.62665c-.03569-.0716-.07837-.14-.12768-.2042l-.80458-1.047c-.2524-.3284-.19075-.7993.13769-1.0517z" fill="url(#Y)"/><path d="m5.82939 11.6585c.32843-.2524.79929-.1907 1.05168.1377l.80458 1.047c.36928.4805.56948 1.0696.56948 1.6757v2.1406h-3.25782v-2.6981h1.62665c-.03569-.0716-.07837-.14-.12768-.2042l-.80458-1.047c-.2524-.3284-.19075-.7993.13769-1.0517z" fill="url(#Z)"/><g filter="url(#d)"><path d="m26.0371 11.6585c-.3285-.2524-.7993-.1907-1.0517.1377l-.8046 1.047c-.3693.4805-.5695 1.0696-.5695 1.6757v2.1406h3.2578v-2.6981h-1.6266c.0357-.0716.0784-.14.1277-.2042l.8046-1.047c.2524-.3284.1907-.7993-.1377-1.0517z" fill="#b08a6f"/><path d="m26.0371 11.6585c-.3285-.2524-.7993-.1907-1.0517.1377l-.8046 1.047c-.3693.4805-.5695 1.0696-.5695 1.6757v2.1406h3.2578v-2.6981h-1.6266c.0357-.0716.0784-.14.1277-.2042l.8046-1.047c.2524-.3284.1907-.7993-.1377-1.0517z" fill="url(#aa)"/><path d="m26.0371 11.6585c-.3285-.2524-.7993-.1907-1.0517.1377l-.8046 1.047c-.3693.4805-.5695 1.0696-.5695 1.6757v2.1406h3.2578v-2.6981h-1.6266c.0357-.0716.0784-.14.1277-.2042l.8046-1.047c.2524-.3284.1907-.7993-.1377-1.0517z" fill="url(#ab)"/><path d="m26.0371 11.6585c-.3285-.2524-.7993-.1907-1.0517.1377l-.8046 1.047c-.3693.4805-.5695 1.0696-.5695 1.6757v2.1406h3.2578v-2.6981h-1.6266c.0357-.0716.0784-.14.1277-.2042l.8046-1.047c.2524-.3284.1907-.7993-.1377-1.0517z" fill="url(#ac)"/></g><g clip-rule="evenodd" fill-rule="evenodd"><path d="m28.5176 11.8508c-.3133-.2265-.7509-.1562-.9774.1571-.0445.0615-.0881.1364-.1151.1829-.002.0035-.0039.0068-.0058.0099l-.0009.0017c-.0336.0576-.0662.1135-.1048.1741-.0766.1205-.1707.2491-.2938.3698-.2326.228-.6075.4678-1.2667.4999-.3862.0189-.684.3471-.6651.7333.0188.3861.3471.6839.7332.6651 1.0244-.0499 1.7178-.4468 2.1786-.8985.2235-.2191.3824-.4411.495-.618.0534-.084.0978-.1601.13-.2155.0014-.0023.0027-.0046.004-.0068.0285-.0489.0406-.0688.0446-.0753.0016-.0026.0013-.0023.0013-.0023.2265-.3133.1562-.7509-.1571-.9774z" fill="url(#ae)"/><path d="m28.5176 11.8508c-.3133-.2265-.7509-.1562-.9774.1571-.0445.0615-.0881.1364-.1151.1829-.002.0035-.0039.0068-.0058.0099l-.0009.0017c-.0336.0576-.0662.1135-.1048.1741-.0766.1205-.1707.2491-.2938.3698-.2326.228-.6075.4678-1.2667.4999-.3862.0189-.684.3471-.6651.7333.0188.3861.3471.6839.7332.6651 1.0244-.0499 1.7178-.4468 2.1786-.8985.2235-.2191.3824-.4411.495-.618.0534-.084.0978-.1601.13-.2155.0014-.0023.0027-.0046.004-.0068.0285-.0489.0406-.0688.0446-.0753.0016-.0026.0013-.0023.0013-.0023.2265-.3133.1562-.7509-.1571-.9774z" fill="url(#ag)"/><path d="m28.5176 11.8508c-.3133-.2265-.7509-.1562-.9774.1571-.0445.0615-.0881.1364-.1151.1829-.002.0035-.0039.0068-.0058.0099l-.0009.0017c-.0336.0576-.0662.1135-.1048.1741-.0766.1205-.1707.2491-.2938.3698-.2326.228-.6075.4678-1.2667.4999-.3862.0189-.684.3471-.6651.7333.0188.3861.3471.6839.7332.6651 1.0244-.0499 1.7178-.4468 2.1786-.8985.2235-.2191.3824-.4411.495-.618.0534-.084.0978-.1601.13-.2155.0014-.0023.0027-.0046.004-.0068.0285-.0489.0406-.0688.0446-.0753.0016-.0026.0013-.0023.0013-.0023.2265-.3133.1562-.7509-.1571-.9774z" fill="url(#ai)"/><path d="m28.5176 11.8508c-.3133-.2265-.7509-.1562-.9774.1571-.0445.0615-.0881.1364-.1151.1829-.002.0035-.0039.0068-.0058.0099l-.0009.0017c-.0336.0576-.0662.1135-.1048.1741-.0766.1205-.1707.2491-.2938.3698-.2326.228-.6075.4678-1.2667.4999-.3862.0189-.684.3471-.6651.7333.0188.3861.3471.6839.7332.6651 1.0244-.0499 1.7178-.4468 2.1786-.8985.2235-.2191.3824-.4411.495-.618.0534-.084.0978-.1601.13-.2155.0014-.0023.0027-.0046.004-.0068.0285-.0489.0406-.0688.0446-.0753.0016-.0026.0013-.0023.0013-.0023.2265-.3133.1562-.7509-.1571-.9774z" fill="url(#ak)"/><path d="m29.5567 12.1672c-.3133-.2265-.7509-.1562-.9774.1571-.0341.0471-.0721.1039-.115.168-.2615.3911-.921 1.1135-1.7326 1.4609-.3554.1522-.5028.4488-.3204.875.1522.3554.7334.5027 1.0888.3506 1.2457-.5333 1.9345-1.603 2.1553-1.9458.0258-.04.0452-.0702.0584-.0884.2265-.3132.1561-.7508-.1571-.9774z" fill="url(#al)"/><path d="m29.5567 12.1672c-.3133-.2265-.7509-.1562-.9774.1571-.0341.0471-.0721.1039-.115.168-.2615.3911-.921 1.1135-1.7326 1.4609-.3554.1522-.5028.4488-.3204.875.1522.3554.7334.5027 1.0888.3506 1.2457-.5333 1.9345-1.603 2.1553-1.9458.0258-.04.0452-.0702.0584-.0884.2265-.3132.1561-.7508-.1571-.9774z" fill="url(#am)"/><path d="m29.5567 12.1672c-.3133-.2265-.7509-.1562-.9774.1571-.0341.0471-.0721.1039-.115.168-.2615.3911-.921 1.1135-1.7326 1.4609-.3554.1522-.5028.4488-.3204.875.1522.3554.7334.5027 1.0888.3506 1.2457-.5333 1.9345-1.603 2.1553-1.9458.0258-.04.0452-.0702.0584-.0884.2265-.3132.1561-.7508-.1571-.9774z" fill="url(#an)"/><path d="m29.5567 12.1672c-.3133-.2265-.7509-.1562-.9774.1571-.0341.0471-.0721.1039-.115.168-.2615.3911-.921 1.1135-1.7326 1.4609-.3554.1522-.5028.4488-.3204.875.1522.3554.7334.5027 1.0888.3506 1.2457-.5333 1.9345-1.603 2.1553-1.9458.0258-.04.0452-.0702.0584-.0884.2265-.3132.1561-.7508-.1571-.9774z" fill="url(#ao)"/><path d="m29.5889 13.1893c-.3097-.2314-.7483-.1679-.9797.1418-.0274.0367-.0561.0765-.0863.1186-.3015.4192-.7633 1.0613-1.7787 1.0613-.3866 0-.7.3134-.7.7s.3134.7.7.7c1.7753 0 2.6367-1.2399 2.9243-1.6541.025-.0359.0457-.0657.0622-.0878.2314-.3097.1679-.7484-.1418-.9798z" fill="url(#ap)"/><path d="m29.5889 13.1893c-.3097-.2314-.7483-.1679-.9797.1418-.0274.0367-.0561.0765-.0863.1186-.3015.4192-.7633 1.0613-1.7787 1.0613-.3866 0-.7.3134-.7.7s.3134.7.7.7c1.7753 0 2.6367-1.2399 2.9243-1.6541.025-.0359.0457-.0657.0622-.0878.2314-.3097.1679-.7484-.1418-.9798z" fill="url(#aq)"/><path d="m29.5889 13.1893c-.3097-.2314-.7483-.1679-.9797.1418-.0274.0367-.0561.0765-.0863.1186-.3015.4192-.7633 1.0613-1.7787 1.0613-.3866 0-.7.3134-.7.7s.3134.7.7.7c1.7753 0 2.6367-1.2399 2.9243-1.6541.025-.0359.0457-.0657.0622-.0878.2314-.3097.1679-.7484-.1418-.9798z" fill="url(#ar)"/><path d="m29.5889 13.1893c-.3097-.2314-.7483-.1679-.9797.1418-.0274.0367-.0561.0765-.0863.1186-.3015.4192-.7633 1.0613-1.7787 1.0613-.3866 0-.7.3134-.7.7s.3134.7.7.7c1.7753 0 2.6367-1.2399 2.9243-1.6541.025-.0359.0457-.0657.0622-.0878.2314-.3097.1679-.7484-.1418-.9798z" fill="url(#as)"/><path d="m29.2764 14.2206c-.3097-.2314-.7483-.1679-.9797.1418-.181.2422-.6533.84-1.8728.84-.3866 0-.7.3134-.7.7s.3134.7.7.7c1.8273 0 2.6675-.9646 2.9943-1.4021.2314-.3097.1679-.7483-.1418-.9797z" fill="url(#at)"/><path d="m29.2764 14.2206c-.3097-.2314-.7483-.1679-.9797.1418-.181.2422-.6533.84-1.8728.84-.3866 0-.7.3134-.7.7s.3134.7.7.7c1.8273 0 2.6675-.9646 2.9943-1.4021.2314-.3097.1679-.7483-.1418-.9797z" fill="url(#au)"/><path d="m29.2764 14.2206c-.3097-.2314-.7483-.1679-.9797.1418-.181.2422-.6533.84-1.8728.84-.3866 0-.7.3134-.7.7s.3134.7.7.7c1.8273 0 2.6675-.9646 2.9943-1.4021.2314-.3097.1679-.7483-.1418-.9797z" fill="url(#av)"/><path d="m29.2764 14.2206c-.3097-.2314-.7483-.1679-.9797.1418-.181.2422-.6533.84-1.8728.84-.3866 0-.7.3134-.7.7s.3134.7.7.7c1.8273 0 2.6675-.9646 2.9943-1.4021.2314-.3097.1679-.7483-.1418-.9797z" fill="url(#aw)"/></g><g filter="url(#e)"><path d="m3.02856 14.5784c.2934.4518 1.12169 1.2578 2.43141 1.2578" stroke="url(#ax)" stroke-linecap="round" stroke-width=".4"/></g><g filter="url(#f)"><path d="m6.20581 15.9878h.99801c.22638 0 .44348.0899.60355.25" stroke="url(#ay)" stroke-linecap="round" stroke-width=".4"/></g><g filter="url(#g)"><path d="m25.4792 15.894h1.5157c.0937.0157.3312.0032.5312-.1718" stroke="#bf9885" stroke-linecap="round" stroke-width=".2"/></g><g clip-rule="evenodd" fill-rule="evenodd" filter="url(#h)"><path d="m22.7215 13.6676c.1728-.4233.2472-.8879.2154-1.3645-.0294-.4402-.1475-.8472-.3351-1.2129l.0051-.0004c-.0872-.1654-.1831-.3208-.2972-.4655l-.0021-.0028c-.3572-.4741-.5676-1.0442-.6071-1.63525l-.0006-.00953c-.1145-1.71596-1.5992-3.01492-3.3152-2.90042-.1716.01145-.3387-.054-.4436-.19064-.6146-.74418-1.5738-1.19726-2.6129-1.12792s-1.9294.64583-2.4397 1.46507c-.0865.13983-.2428.23644-.4144.24789-.0268.00179-.0534.00391-.08.00636-1.6761.15454-2.93312 1.61963-2.82041 3.30881l.00064.00953c.03944.5911-.09335 1.184-.3844 1.7014l-.00193.0036c-.28973.5165-.44078 1.1094-.39826 1.7467.03244.4862.17674.9266.39475 1.3238.07564.129.08645.2911.02863.429-.16395.4131-.24845.8688-.21664 1.3454.11196 1.6779 1.55602 2.9412 3.23382 2.8293l8.0841-.5395c1.6778-.1119 2.9412-1.5559 2.8292-3.2338-.0318-.4766-.1761-.917-.3935-1.3047-.0756-.129-.0864-.2911-.0286-.429zm-11.7171-1.7468-.0116.0008 1.2773 2.1436c.2923 2.6322 1.1464-.0765 3.6629-.2444 2.5165-.168 3.8099 2.6973 3.7499.0496l.8691-3.0832c-.1289-1.16922-.9842-1.19482-1.1538-1.1835l-3.0332.2024c-1.1979.07993-2.3672-.43093-3.1095-1.37577-.1268-.15566-.3664-.11071-.4315.07706l-.0651.18777c-.1772.5428-.556.97355-1.043 1.23774-.0141.00577-.0306.01411-.047.02244-.0164.00834-.0328.01668-.047.02245-.2145.13011-.713.51101-.6727 1.40611l.0289.2877z" fill="url(#az)"/><path d="m22.7215 13.6676c.1728-.4233.2472-.8879.2154-1.3645-.0294-.4402-.1475-.8472-.3351-1.2129l.0051-.0004c-.0872-.1654-.1831-.3208-.2972-.4655l-.0021-.0028c-.3572-.4741-.5676-1.0442-.6071-1.63525l-.0006-.00953c-.1145-1.71596-1.5992-3.01492-3.3152-2.90042-.1716.01145-.3387-.054-.4436-.19064-.6146-.74418-1.5738-1.19726-2.6129-1.12792s-1.9294.64583-2.4397 1.46507c-.0865.13983-.2428.23644-.4144.24789-.0268.00179-.0534.00391-.08.00636-1.6761.15454-2.93312 1.61963-2.82041 3.30881l.00064.00953c.03944.5911-.09335 1.184-.3844 1.7014l-.00193.0036c-.28973.5165-.44078 1.1094-.39826 1.7467.03244.4862.17674.9266.39475 1.3238.07564.129.08645.2911.02863.429-.16395.4131-.24845.8688-.21664 1.3454.11196 1.6779 1.55602 2.9412 3.23382 2.8293l8.0841-.5395c1.6778-.1119 2.9412-1.5559 2.8292-3.2338-.0318-.4766-.1761-.917-.3935-1.3047-.0756-.129-.0864-.2911-.0286-.429zm-11.7171-1.7468-.0116.0008 1.2773 2.1436c.2923 2.6322 1.1464-.0765 3.6629-.2444 2.5165-.168 3.8099 2.6973 3.7499.0496l.8691-3.0832c-.1289-1.16922-.9842-1.19482-1.1538-1.1835l-3.0332.2024c-1.1979.07993-2.3672-.43093-3.1095-1.37577-.1268-.15566-.3664-.11071-.4315.07706l-.0651.18777c-.1772.5428-.556.97355-1.043 1.23774-.0141.00577-.0306.01411-.047.02244-.0164.00834-.0328.01668-.047.02245-.2145.13011-.713.51101-.6727 1.40611l.0289.2877z" fill="url(#aA)"/><path d="m22.7215 13.6676c.1728-.4233.2472-.8879.2154-1.3645-.0294-.4402-.1475-.8472-.3351-1.2129l.0051-.0004c-.0872-.1654-.1831-.3208-.2972-.4655l-.0021-.0028c-.3572-.4741-.5676-1.0442-.6071-1.63525l-.0006-.00953c-.1145-1.71596-1.5992-3.01492-3.3152-2.90042-.1716.01145-.3387-.054-.4436-.19064-.6146-.74418-1.5738-1.19726-2.6129-1.12792s-1.9294.64583-2.4397 1.46507c-.0865.13983-.2428.23644-.4144.24789-.0268.00179-.0534.00391-.08.00636-1.6761.15454-2.93312 1.61963-2.82041 3.30881l.00064.00953c.03944.5911-.09335 1.184-.3844 1.7014l-.00193.0036c-.28973.5165-.44078 1.1094-.39826 1.7467.03244.4862.17674.9266.39475 1.3238.07564.129.08645.2911.02863.429-.16395.4131-.24845.8688-.21664 1.3454.11196 1.6779 1.55602 2.9412 3.23382 2.8293l8.0841-.5395c1.6778-.1119 2.9412-1.5559 2.8292-3.2338-.0318-.4766-.1761-.917-.3935-1.3047-.0756-.129-.0864-.2911-.0286-.429zm-11.7171-1.7468-.0116.0008 1.2773 2.1436c.2923 2.6322 1.1464-.0765 3.6629-.2444 2.5165-.168 3.8099 2.6973 3.7499.0496l.8691-3.0832c-.1289-1.16922-.9842-1.19482-1.1538-1.1835l-3.0332.2024c-1.1979.07993-2.3672-.43093-3.1095-1.37577-.1268-.15566-.3664-.11071-.4315.07706l-.0651.18777c-.1772.5428-.556.97355-1.043 1.23774-.0141.00577-.0306.01411-.047.02244-.0164.00834-.0328.01668-.047.02245-.2145.13011-.713.51101-.6727 1.40611l.0289.2877z" fill="url(#aB)"/><path d="m22.7215 13.6676c.1728-.4233.2472-.8879.2154-1.3645-.0294-.4402-.1475-.8472-.3351-1.2129l.0051-.0004c-.0872-.1654-.1831-.3208-.2972-.4655l-.0021-.0028c-.3572-.4741-.5676-1.0442-.6071-1.63525l-.0006-.00953c-.1145-1.71596-1.5992-3.01492-3.3152-2.90042-.1716.01145-.3387-.054-.4436-.19064-.6146-.74418-1.5738-1.19726-2.6129-1.12792s-1.9294.64583-2.4397 1.46507c-.0865.13983-.2428.23644-.4144.24789-.0268.00179-.0534.00391-.08.00636-1.6761.15454-2.93312 1.61963-2.82041 3.30881l.00064.00953c.03944.5911-.09335 1.184-.3844 1.7014l-.00193.0036c-.28973.5165-.44078 1.1094-.39826 1.7467.03244.4862.17674.9266.39475 1.3238.07564.129.08645.2911.02863.429-.16395.4131-.24845.8688-.21664 1.3454.11196 1.6779 1.55602 2.9412 3.23382 2.8293l8.0841-.5395c1.6778-.1119 2.9412-1.5559 2.8292-3.2338-.0318-.4766-.1761-.917-.3935-1.3047-.0756-.129-.0864-.2911-.0286-.429zm-11.7171-1.7468-.0116.0008 1.2773 2.1436c.2923 2.6322 1.1464-.0765 3.6629-.2444 2.5165-.168 3.8099 2.6973 3.7499.0496l.8691-3.0832c-.1289-1.16922-.9842-1.19482-1.1538-1.1835l-3.0332.2024c-1.1979.07993-2.3672-.43093-3.1095-1.37577-.1268-.15566-.3664-.11071-.4315.07706l-.0651.18777c-.1772.5428-.556.97355-1.043 1.23774-.0141.00577-.0306.01411-.047.02244-.0164.00834-.0328.01668-.047.02245-.2145.13011-.713.51101-.6727 1.40611l.0289.2877z" fill="url(#aC)"/><path d="m22.7215 13.6676c.1728-.4233.2472-.8879.2154-1.3645-.0294-.4402-.1475-.8472-.3351-1.2129l.0051-.0004c-.0872-.1654-.1831-.3208-.2972-.4655l-.0021-.0028c-.3572-.4741-.5676-1.0442-.6071-1.63525l-.0006-.00953c-.1145-1.71596-1.5992-3.01492-3.3152-2.90042-.1716.01145-.3387-.054-.4436-.19064-.6146-.74418-1.5738-1.19726-2.6129-1.12792s-1.9294.64583-2.4397 1.46507c-.0865.13983-.2428.23644-.4144.24789-.0268.00179-.0534.00391-.08.00636-1.6761.15454-2.93312 1.61963-2.82041 3.30881l.00064.00953c.03944.5911-.09335 1.184-.3844 1.7014l-.00193.0036c-.28973.5165-.44078 1.1094-.39826 1.7467.03244.4862.17674.9266.39475 1.3238.07564.129.08645.2911.02863.429-.16395.4131-.24845.8688-.21664 1.3454.11196 1.6779 1.55602 2.9412 3.23382 2.8293l8.0841-.5395c1.6778-.1119 2.9412-1.5559 2.8292-3.2338-.0318-.4766-.1761-.917-.3935-1.3047-.0756-.129-.0864-.2911-.0286-.429zm-11.7171-1.7468-.0116.0008 1.2773 2.1436c.2923 2.6322 1.1464-.0765 3.6629-.2444 2.5165-.168 3.8099 2.6973 3.7499.0496l.8691-3.0832c-.1289-1.16922-.9842-1.19482-1.1538-1.1835l-3.0332.2024c-1.1979.07993-2.3672-.43093-3.1095-1.37577-.1268-.15566-.3664-.11071-.4315.07706l-.0651.18777c-.1772.5428-.556.97355-1.043 1.23774-.0141.00577-.0306.01411-.047.02244-.0164.00834-.0328.01668-.047.02245-.2145.13011-.713.51101-.6727 1.40611l.0289.2877z" fill="url(#aD)"/><path d="m22.7215 13.6676c.1728-.4233.2472-.8879.2154-1.3645-.0294-.4402-.1475-.8472-.3351-1.2129l.0051-.0004c-.0872-.1654-.1831-.3208-.2972-.4655l-.0021-.0028c-.3572-.4741-.5676-1.0442-.6071-1.63525l-.0006-.00953c-.1145-1.71596-1.5992-3.01492-3.3152-2.90042-.1716.01145-.3387-.054-.4436-.19064-.6146-.74418-1.5738-1.19726-2.6129-1.12792s-1.9294.64583-2.4397 1.46507c-.0865.13983-.2428.23644-.4144.24789-.0268.00179-.0534.00391-.08.00636-1.6761.15454-2.93312 1.61963-2.82041 3.30881l.00064.00953c.03944.5911-.09335 1.184-.3844 1.7014l-.00193.0036c-.28973.5165-.44078 1.1094-.39826 1.7467.03244.4862.17674.9266.39475 1.3238.07564.129.08645.2911.02863.429-.16395.4131-.24845.8688-.21664 1.3454.11196 1.6779 1.55602 2.9412 3.23382 2.8293l8.0841-.5395c1.6778-.1119 2.9412-1.5559 2.8292-3.2338-.0318-.4766-.1761-.917-.3935-1.3047-.0756-.129-.0864-.2911-.0286-.429zm-11.7171-1.7468-.0116.0008 1.2773 2.1436c.2923 2.6322 1.1464-.0765 3.6629-.2444 2.5165-.168 3.8099 2.6973 3.7499.0496l.8691-3.0832c-.1289-1.16922-.9842-1.19482-1.1538-1.1835l-3.0332.2024c-1.1979.07993-2.3672-.43093-3.1095-1.37577-.1268-.15566-.3664-.11071-.4315.07706l-.0651.18777c-.1772.5428-.556.97355-1.043 1.23774-.0141.00577-.0306.01411-.047.02244-.0164.00834-.0328.01668-.047.02245-.2145.13011-.713.51101-.6727 1.40611l.0289.2877z" fill="url(#aE)"/><path d="m22.7215 13.6676c.1728-.4233.2472-.8879.2154-1.3645-.0294-.4402-.1475-.8472-.3351-1.2129l.0051-.0004c-.0872-.1654-.1831-.3208-.2972-.4655l-.0021-.0028c-.3572-.4741-.5676-1.0442-.6071-1.63525l-.0006-.00953c-.1145-1.71596-1.5992-3.01492-3.3152-2.90042-.1716.01145-.3387-.054-.4436-.19064-.6146-.74418-1.5738-1.19726-2.6129-1.12792s-1.9294.64583-2.4397 1.46507c-.0865.13983-.2428.23644-.4144.24789-.0268.00179-.0534.00391-.08.00636-1.6761.15454-2.93312 1.61963-2.82041 3.30881l.00064.00953c.03944.5911-.09335 1.184-.3844 1.7014l-.00193.0036c-.28973.5165-.44078 1.1094-.39826 1.7467.03244.4862.17674.9266.39475 1.3238.07564.129.08645.2911.02863.429-.16395.4131-.24845.8688-.21664 1.3454.11196 1.6779 1.55602 2.9412 3.23382 2.8293l8.0841-.5395c1.6778-.1119 2.9412-1.5559 2.8292-3.2338-.0318-.4766-.1761-.917-.3935-1.3047-.0756-.129-.0864-.2911-.0286-.429zm-11.7171-1.7468-.0116.0008 1.2773 2.1436c.2923 2.6322 1.1464-.0765 3.6629-.2444 2.5165-.168 3.8099 2.6973 3.7499.0496l.8691-3.0832c-.1289-1.16922-.9842-1.19482-1.1538-1.1835l-3.0332.2024c-1.1979.07993-2.3672-.43093-3.1095-1.37577-.1268-.15566-.3664-.11071-.4315.07706l-.0651.18777c-.1772.5428-.556.97355-1.043 1.23774-.0141.00577-.0306.01411-.047.02244-.0164.00834-.0328.01668-.047.02245-.2145.13011-.713.51101-.6727 1.40611l.0289.2877z" fill="url(#aF)"/><path d="m22.7215 13.6676c.1728-.4233.2472-.8879.2154-1.3645-.0294-.4402-.1475-.8472-.3351-1.2129l.0051-.0004c-.0872-.1654-.1831-.3208-.2972-.4655l-.0021-.0028c-.3572-.4741-.5676-1.0442-.6071-1.63525l-.0006-.00953c-.1145-1.71596-1.5992-3.01492-3.3152-2.90042-.1716.01145-.3387-.054-.4436-.19064-.6146-.74418-1.5738-1.19726-2.6129-1.12792s-1.9294.64583-2.4397 1.46507c-.0865.13983-.2428.23644-.4144.24789-.0268.00179-.0534.00391-.08.00636-1.6761.15454-2.93312 1.61963-2.82041 3.30881l.00064.00953c.03944.5911-.09335 1.184-.3844 1.7014l-.00193.0036c-.28973.5165-.44078 1.1094-.39826 1.7467.03244.4862.17674.9266.39475 1.3238.07564.129.08645.2911.02863.429-.16395.4131-.24845.8688-.21664 1.3454.11196 1.6779 1.55602 2.9412 3.23382 2.8293l8.0841-.5395c1.6778-.1119 2.9412-1.5559 2.8292-3.2338-.0318-.4766-.1761-.917-.3935-1.3047-.0756-.129-.0864-.2911-.0286-.429zm-11.7171-1.7468-.0116.0008 1.2773 2.1436c.2923 2.6322 1.1464-.0765 3.6629-.2444 2.5165-.168 3.8099 2.6973 3.7499.0496l.8691-3.0832c-.1289-1.16922-.9842-1.19482-1.1538-1.1835l-3.0332.2024c-1.1979.07993-2.3672-.43093-3.1095-1.37577-.1268-.15566-.3664-.11071-.4315.07706l-.0651.18777c-.1772.5428-.556.97355-1.043 1.23774-.0141.00577-.0306.01411-.047.02244-.0164.00834-.0328.01668-.047.02245-.2145.13011-.713.51101-.6727 1.40611l.0289.2877z" fill="url(#aG)"/><path d="m22.7215 13.6676c.1728-.4233.2472-.8879.2154-1.3645-.0294-.4402-.1475-.8472-.3351-1.2129l.0051-.0004c-.0872-.1654-.1831-.3208-.2972-.4655l-.0021-.0028c-.3572-.4741-.5676-1.0442-.6071-1.63525l-.0006-.00953c-.1145-1.71596-1.5992-3.01492-3.3152-2.90042-.1716.01145-.3387-.054-.4436-.19064-.6146-.74418-1.5738-1.19726-2.6129-1.12792s-1.9294.64583-2.4397 1.46507c-.0865.13983-.2428.23644-.4144.24789-.0268.00179-.0534.00391-.08.00636-1.6761.15454-2.93312 1.61963-2.82041 3.30881l.00064.00953c.03944.5911-.09335 1.184-.3844 1.7014l-.00193.0036c-.28973.5165-.44078 1.1094-.39826 1.7467.03244.4862.17674.9266.39475 1.3238.07564.129.08645.2911.02863.429-.16395.4131-.24845.8688-.21664 1.3454.11196 1.6779 1.55602 2.9412 3.23382 2.8293l8.0841-.5395c1.6778-.1119 2.9412-1.5559 2.8292-3.2338-.0318-.4766-.1761-.917-.3935-1.3047-.0756-.129-.0864-.2911-.0286-.429zm-11.7171-1.7468-.0116.0008 1.2773 2.1436c.2923 2.6322 1.1464-.0765 3.6629-.2444 2.5165-.168 3.8099 2.6973 3.7499.0496l.8691-3.0832c-.1289-1.16922-.9842-1.19482-1.1538-1.1835l-3.0332.2024c-1.1979.07993-2.3672-.43093-3.1095-1.37577-.1268-.15566-.3664-.11071-.4315.07706l-.0651.18777c-.1772.5428-.556.97355-1.043 1.23774-.0141.00577-.0306.01411-.047.02244-.0164.00834-.0328.01668-.047.02245-.2145.13011-.713.51101-.6727 1.40611l.0289.2877z" fill="url(#aH)"/><path d="m22.7215 13.6676c.1728-.4233.2472-.8879.2154-1.3645-.0294-.4402-.1475-.8472-.3351-1.2129l.0051-.0004c-.0872-.1654-.1831-.3208-.2972-.4655l-.0021-.0028c-.3572-.4741-.5676-1.0442-.6071-1.63525l-.0006-.00953c-.1145-1.71596-1.5992-3.01492-3.3152-2.90042-.1716.01145-.3387-.054-.4436-.19064-.6146-.74418-1.5738-1.19726-2.6129-1.12792s-1.9294.64583-2.4397 1.46507c-.0865.13983-.2428.23644-.4144.24789-.0268.00179-.0534.00391-.08.00636-1.6761.15454-2.93312 1.61963-2.82041 3.30881l.00064.00953c.03944.5911-.09335 1.184-.3844 1.7014l-.00193.0036c-.28973.5165-.44078 1.1094-.39826 1.7467.03244.4862.17674.9266.39475 1.3238.07564.129.08645.2911.02863.429-.16395.4131-.24845.8688-.21664 1.3454.11196 1.6779 1.55602 2.9412 3.23382 2.8293l8.0841-.5395c1.6778-.1119 2.9412-1.5559 2.8292-3.2338-.0318-.4766-.1761-.917-.3935-1.3047-.0756-.129-.0864-.2911-.0286-.429zm-11.7171-1.7468-.0116.0008 1.2773 2.1436c.2923 2.6322 1.1464-.0765 3.6629-.2444 2.5165-.168 3.8099 2.6973 3.7499.0496l.8691-3.0832c-.1289-1.16922-.9842-1.19482-1.1538-1.1835l-3.0332.2024c-1.1979.07993-2.3672-.43093-3.1095-1.37577-.1268-.15566-.3664-.11071-.4315.07706l-.0651.18777c-.1772.5428-.556.97355-1.043 1.23774-.0141.00577-.0306.01411-.047.02244-.0164.00834-.0328.01668-.047.02245-.2145.13011-.713.51101-.6727 1.40611l.0289.2877z" fill="url(#aI)"/><path d="m22.7215 13.6676c.1728-.4233.2472-.8879.2154-1.3645-.0294-.4402-.1475-.8472-.3351-1.2129l.0051-.0004c-.0872-.1654-.1831-.3208-.2972-.4655l-.0021-.0028c-.3572-.4741-.5676-1.0442-.6071-1.63525l-.0006-.00953c-.1145-1.71596-1.5992-3.01492-3.3152-2.90042-.1716.01145-.3387-.054-.4436-.19064-.6146-.74418-1.5738-1.19726-2.6129-1.12792s-1.9294.64583-2.4397 1.46507c-.0865.13983-.2428.23644-.4144.24789-.0268.00179-.0534.00391-.08.00636-1.6761.15454-2.93312 1.61963-2.82041 3.30881l.00064.00953c.03944.5911-.09335 1.184-.3844 1.7014l-.00193.0036c-.28973.5165-.44078 1.1094-.39826 1.7467.03244.4862.17674.9266.39475 1.3238.07564.129.08645.2911.02863.429-.16395.4131-.24845.8688-.21664 1.3454.11196 1.6779 1.55602 2.9412 3.23382 2.8293l8.0841-.5395c1.6778-.1119 2.9412-1.5559 2.8292-3.2338-.0318-.4766-.1761-.917-.3935-1.3047-.0756-.129-.0864-.2911-.0286-.429zm-11.7171-1.7468-.0116.0008 1.2773 2.1436c.2923 2.6322 1.1464-.0765 3.6629-.2444 2.5165-.168 3.8099 2.6973 3.7499.0496l.8691-3.0832c-.1289-1.16922-.9842-1.19482-1.1538-1.1835l-3.0332.2024c-1.1979.07993-2.3672-.43093-3.1095-1.37577-.1268-.15566-.3664-.11071-.4315.07706l-.0651.18777c-.1772.5428-.556.97355-1.043 1.23774-.0141.00577-.0306.01411-.047.02244-.0164.00834-.0328.01668-.047.02245-.2145.13011-.713.51101-.6727 1.40611l.0289.2877z" fill="url(#aJ)"/><path d="m22.7215 13.6676c.1728-.4233.2472-.8879.2154-1.3645-.0294-.4402-.1475-.8472-.3351-1.2129l.0051-.0004c-.0872-.1654-.1831-.3208-.2972-.4655l-.0021-.0028c-.3572-.4741-.5676-1.0442-.6071-1.63525l-.0006-.00953c-.1145-1.71596-1.5992-3.01492-3.3152-2.90042-.1716.01145-.3387-.054-.4436-.19064-.6146-.74418-1.5738-1.19726-2.6129-1.12792s-1.9294.64583-2.4397 1.46507c-.0865.13983-.2428.23644-.4144.24789-.0268.00179-.0534.00391-.08.00636-1.6761.15454-2.93312 1.61963-2.82041 3.30881l.00064.00953c.03944.5911-.09335 1.184-.3844 1.7014l-.00193.0036c-.28973.5165-.44078 1.1094-.39826 1.7467.03244.4862.17674.9266.39475 1.3238.07564.129.08645.2911.02863.429-.16395.4131-.24845.8688-.21664 1.3454.11196 1.6779 1.55602 2.9412 3.23382 2.8293l8.0841-.5395c1.6778-.1119 2.9412-1.5559 2.8292-3.2338-.0318-.4766-.1761-.917-.3935-1.3047-.0756-.129-.0864-.2911-.0286-.429zm-11.7171-1.7468-.0116.0008 1.2773 2.1436c.2923 2.6322 1.1464-.0765 3.6629-.2444 2.5165-.168 3.8099 2.6973 3.7499.0496l.8691-3.0832c-.1289-1.16922-.9842-1.19482-1.1538-1.1835l-3.0332.2024c-1.1979.07993-2.3672-.43093-3.1095-1.37577-.1268-.15566-.3664-.11071-.4315.07706l-.0651.18777c-.1772.5428-.556.97355-1.043 1.23774-.0141.00577-.0306.01411-.047.02244-.0164.00834-.0328.01668-.047.02245-.2145.13011-.713.51101-.6727 1.40611l.0289.2877z" fill="url(#aK)"/></g><path d="m26.8948 16.6521c0-.1381-.112-.25-.25-.25h-2.9297c-.1381 0-.25.1119-.25.25v1.318h3.4297z" fill="url(#aL)"/><path d="m26.8948 16.6521c0-.1381-.112-.25-.25-.25h-2.9297c-.1381 0-.25.1119-.25.25v1.318h3.4297z" fill="url(#aM)"/><path d="m4.96045 16.6521c0-.1381.11193-.25.25-.25h2.92969c.13807 0 .25.1119.25.25v1.1305h-3.42969z" fill="url(#aN)"/><g filter="url(#i)"><path d="m9.2866 20.8807c-.16667.0966-.37531-.0237-.37531-.2163v-2.5631c0-.3314-.26863-.6-.6-.6h-3.28438c-.33137 0-.6.2686-.6.6v4.2859c-.0052.8489.11196 2.5071 1.48438 3.3828 1.14858.7328 2.50055.5695 3.21321.347.1013-.0316.20866.0418.20866.148v3.7065c0 .0829.06716.15.15.15h12.99394c.0829 0 .15-.0671.15-.15v-3.7065c0-.1062.1074-.1796.2087-.148.7126.2225 2.0646.3858 3.2132-.347 1.3724-.8757 1.4896-2.5339 1.4844-3.3828v-4.2859c0-.3314-.2687-.6-.6-.6h-3.2844c-.3314 0-.6.2686-.6.6v2.5631c0 .1926-.2086.3129-.3753.2163l-6.6936-3.9317z" fill="url(#aO)"/><path d="m9.2866 20.8807c-.16667.0966-.37531-.0237-.37531-.2163v-2.5631c0-.3314-.26863-.6-.6-.6h-3.28438c-.33137 0-.6.2686-.6.6v4.2859c-.0052.8489.11196 2.5071 1.48438 3.3828 1.14858.7328 2.50055.5695 3.21321.347.1013-.0316.20866.0418.20866.148v3.7065c0 .0829.06716.15.15.15h12.99394c.0829 0 .15-.0671.15-.15v-3.7065c0-.1062.1074-.1796.2087-.148.7126.2225 2.0646.3858 3.2132-.347 1.3724-.8757 1.4896-2.5339 1.4844-3.3828v-4.2859c0-.3314-.2687-.6-.6-.6h-3.2844c-.3314 0-.6.2686-.6.6v2.5631c0 .1926-.2086.3129-.3753.2163l-6.6936-3.9317z" fill="url(#aP)"/><path d="m9.2866 20.8807c-.16667.0966-.37531-.0237-.37531-.2163v-2.5631c0-.3314-.26863-.6-.6-.6h-3.28438c-.33137 0-.6.2686-.6.6v4.2859c-.0052.8489.11196 2.5071 1.48438 3.3828 1.14858.7328 2.50055.5695 3.21321.347.1013-.0316.20866.0418.20866.148v3.7065c0 .0829.06716.15.15.15h12.99394c.0829 0 .15-.0671.15-.15v-3.7065c0-.1062.1074-.1796.2087-.148.7126.2225 2.0646.3858 3.2132-.347 1.3724-.8757 1.4896-2.5339 1.4844-3.3828v-4.2859c0-.3314-.2687-.6-.6-.6h-3.2844c-.3314 0-.6.2686-.6.6v2.5631c0 .1926-.2086.3129-.3753.2163l-6.6936-3.9317z" fill="url(#aQ)"/><path d="m9.2866 20.8807c-.16667.0966-.37531-.0237-.37531-.2163v-2.5631c0-.3314-.26863-.6-.6-.6h-3.28438c-.33137 0-.6.2686-.6.6v4.2859c-.0052.8489.11196 2.5071 1.48438 3.3828 1.14858.7328 2.50055.5695 3.21321.347.1013-.0316.20866.0418.20866.148v3.7065c0 .0829.06716.15.15.15h12.99394c.0829 0 .15-.0671.15-.15v-3.7065c0-.1062.1074-.1796.2087-.148.7126.2225 2.0646.3858 3.2132-.347 1.3724-.8757 1.4896-2.5339 1.4844-3.3828v-4.2859c0-.3314-.2687-.6-.6-.6h-3.2844c-.3314 0-.6.2686-.6.6v2.5631c0 .1926-.2086.3129-.3753.2163l-6.6936-3.9317z" fill="url(#aR)"/><path d="m9.2866 20.8807c-.16667.0966-.37531-.0237-.37531-.2163v-2.5631c0-.3314-.26863-.6-.6-.6h-3.28438c-.33137 0-.6.2686-.6.6v4.2859c-.0052.8489.11196 2.5071 1.48438 3.3828 1.14858.7328 2.50055.5695 3.21321.347.1013-.0316.20866.0418.20866.148v3.7065c0 .0829.06716.15.15.15h12.99394c.0829 0 .15-.0671.15-.15v-3.7065c0-.1062.1074-.1796.2087-.148.7126.2225 2.0646.3858 3.2132-.347 1.3724-.8757 1.4896-2.5339 1.4844-3.3828v-4.2859c0-.3314-.2687-.6-.6-.6h-3.2844c-.3314 0-.6.2686-.6.6v2.5631c0 .1926-.2086.3129-.3753.2163l-6.6936-3.9317z" fill="url(#aS)"/><path d="m9.2866 20.8807c-.16667.0966-.37531-.0237-.37531-.2163v-2.5631c0-.3314-.26863-.6-.6-.6h-3.28438c-.33137 0-.6.2686-.6.6v4.2859c-.0052.8489.11196 2.5071 1.48438 3.3828 1.14858.7328 2.50055.5695 3.21321.347.1013-.0316.20866.0418.20866.148v3.7065c0 .0829.06716.15.15.15h12.99394c.0829 0 .15-.0671.15-.15v-3.7065c0-.1062.1074-.1796.2087-.148.7126.2225 2.0646.3858 3.2132-.347 1.3724-.8757 1.4896-2.5339 1.4844-3.3828v-4.2859c0-.3314-.2687-.6-.6-.6h-3.2844c-.3314 0-.6.2686-.6.6v2.5631c0 .1926-.2086.3129-.3753.2163l-6.6936-3.9317z" fill="url(#aT)"/><path d="m9.2866 20.8807c-.16667.0966-.37531-.0237-.37531-.2163v-2.5631c0-.3314-.26863-.6-.6-.6h-3.28438c-.33137 0-.6.2686-.6.6v4.2859c-.0052.8489.11196 2.5071 1.48438 3.3828 1.14858.7328 2.50055.5695 3.21321.347.1013-.0316.20866.0418.20866.148v3.7065c0 .0829.06716.15.15.15h12.99394c.0829 0 .15-.0671.15-.15v-3.7065c0-.1062.1074-.1796.2087-.148.7126.2225 2.0646.3858 3.2132-.347 1.3724-.8757 1.4896-2.5339 1.4844-3.3828v-4.2859c0-.3314-.2687-.6-.6-.6h-3.2844c-.3314 0-.6.2686-.6.6v2.5631c0 .1926-.2086.3129-.3753.2163l-6.6936-3.9317z" fill="url(#aU)"/></g><path d="m15.7964 20.4538c-1.1043 0-2-.7441-2-1.6613v-1.9628c0-.9172.8957-1.6612 2-1.6612 1.1042 0 2 .744 2 1.6612v1.9628c0 .9172-.8958 1.6613-2 1.6613z" fill="url(#aV)"/><g filter="url(#j)"><path d="m7.16235 18.9702v3.4418c0 .8054.90338 1.2804 1.56685.8239l1.8394-1.2657" stroke="#9465e3" stroke-linecap="square" stroke-width="1.5"/></g><g filter="url(#k)"><path d="m25.6167 19.0015v3.4105c0 .8054-.9034 1.2804-1.5669.8239l-1.8394-1.2657" stroke="#a57cec" stroke-linecap="square"/></g><g filter="url(#l)"><path d="m9.66223 25.6521c.17708-1.1458.95627-3.8813 2.65627-5.6563" stroke="url(#aW)" stroke-linecap="round" stroke-width=".3"/></g><g filter="url(#m)"><path d="m11.5517 14.6006c.8371-.0559 1.4704-.7798 1.4146-1.617-.0559-.8371-.7798-1.4704-1.6169-1.4146-.8372.0559-1.4705.7798-1.41464 1.6169.05586.8372.77974 1.4705 1.61694 1.4147z" fill="url(#aX)"/></g><path d="m11.5517 14.6006c.8371-.0559 1.4704-.7798 1.4146-1.617-.0559-.8371-.7798-1.4704-1.6169-1.4146-.8372.0559-1.4705.7798-1.41464 1.6169.05586.8372.77974 1.4705 1.61694 1.4147z" fill="url(#aY)"/><g filter="url(#n)"><path d="m20.5129 14.0027c.8371-.0559 1.4704-.7798 1.4146-1.617-.0559-.8371-.7798-1.4704-1.6169-1.4146-.8372.0559-1.4705.7798-1.4147 1.6169.0559.8372.7798 1.4705 1.617 1.4147z" fill="url(#aZ)"/><path d="m20.5129 14.0027c.8371-.0559 1.4704-.7798 1.4146-1.617-.0559-.8371-.7798-1.4704-1.6169-1.4146-.8372.0559-1.4705.7798-1.4147 1.6169.0559.8372.7798 1.4705 1.617 1.4147z" fill="url(#a0)"/></g><g filter="url(#o)"><path d="m20.4792 13.4986c.5589-.0373.9816-.5205.9443-1.0793-.0372-.5588-.5205-.9816-1.0793-.9443s-.9816.5205-.9443 1.0793.5205.9816 1.0793.9443z" fill="#b38574"/><path d="m20.4792 13.4986c.5589-.0373.9816-.5205.9443-1.0793-.0372-.5588-.5205-.9816-1.0793-.9443s-.9816.5205-.9443 1.0793.5205.9816 1.0793.9443z" fill="url(#a1)"/></g><g filter="url(#p)"><path d="m11.5363 14.0955c.5588-.0373.9815-.5205.9443-1.0793-.0373-.5588-.5206-.9816-1.0794-.9443s-.9816.5205-.9443 1.0793.5205.9816 1.0794.9443z" fill="#7e555a"/><path d="m11.5363 14.0955c.5588-.0373.9815-.5205.9443-1.0793-.0373-.5588-.5206-.9816-1.0794-.9443s-.9816.5205-.9443 1.0793.5205.9816 1.0794.9443z" fill="url(#a2)"/></g><g filter="url(#q)"><path d="m10.9929 11.9206.0116-.0008-.0263-.2492-.0289-.2877c-.0404-.8952.4582-1.276.6727-1.40615.0141-.00577.0306-.01411.047-.02244.0164-.00834.0328-.01667.047-.02245.4869-.26419.8657-.69493 1.043-1.23773l.0651-.18777c.0651-.18777.3046-.23272.4315-.07707.7422.94484 1.9116 1.45571 3.1094 1.37578l3.0333-.2024c.1696-.01132 1.0249.01428 1.1537 1.18353l.0813 2.9023c.06 2.6477-1.8833 4.558-4.3998 4.7259s-4.6963-1.4672-4.9886-4.0994z" fill="url(#a3)"/><path d="m10.9929 11.9206.0116-.0008-.0263-.2492-.0289-.2877c-.0404-.8952.4582-1.276.6727-1.40615.0141-.00577.0306-.01411.047-.02244.0164-.00834.0328-.01667.047-.02245.4869-.26419.8657-.69493 1.043-1.23773l.0651-.18777c.0651-.18777.3046-.23272.4315-.07707.7422.94484 1.9116 1.45571 3.1094 1.37578l3.0333-.2024c.1696-.01132 1.0249.01428 1.1537 1.18353l.0813 2.9023c.06 2.6477-1.8833 4.558-4.3998 4.7259s-4.6963-1.4672-4.9886-4.0994z" fill="url(#a4)"/><path d="m10.9929 11.9206.0116-.0008-.0263-.2492-.0289-.2877c-.0404-.8952.4582-1.276.6727-1.40615.0141-.00577.0306-.01411.047-.02244.0164-.00834.0328-.01667.047-.02245.4869-.26419.8657-.69493 1.043-1.23773l.0651-.18777c.0651-.18777.3046-.23272.4315-.07707.7422.94484 1.9116 1.45571 3.1094 1.37578l3.0333-.2024c.1696-.01132 1.0249.01428 1.1537 1.18353l.0813 2.9023c.06 2.6477-1.8833 4.558-4.3998 4.7259s-4.6963-1.4672-4.9886-4.0994z" fill="url(#a5)"/><path d="m10.9929 11.9206.0116-.0008-.0263-.2492-.0289-.2877c-.0404-.8952.4582-1.276.6727-1.40615.0141-.00577.0306-.01411.047-.02244.0164-.00834.0328-.01667.047-.02245.4869-.26419.8657-.69493 1.043-1.23773l.0651-.18777c.0651-.18777.3046-.23272.4315-.07707.7422.94484 1.9116 1.45571 3.1094 1.37578l3.0333-.2024c.1696-.01132 1.0249.01428 1.1537 1.18353l.0813 2.9023c.06 2.6477-1.8833 4.558-4.3998 4.7259s-4.6963-1.4672-4.9886-4.0994z" fill="url(#a6)"/><path d="m10.9929 11.9206.0116-.0008-.0263-.2492-.0289-.2877c-.0404-.8952.4582-1.276.6727-1.40615.0141-.00577.0306-.01411.047-.02244.0164-.00834.0328-.01667.047-.02245.4869-.26419.8657-.69493 1.043-1.23773l.0651-.18777c.0651-.18777.3046-.23272.4315-.07707.7422.94484 1.9116 1.45571 3.1094 1.37578l3.0333-.2024c.1696-.01132 1.0249.01428 1.1537 1.18353l.0813 2.9023c.06 2.6477-1.8833 4.558-4.3998 4.7259s-4.6963-1.4672-4.9886-4.0994z" fill="url(#a7)"/><path d="m10.9929 11.9206.0116-.0008-.0263-.2492-.0289-.2877c-.0404-.8952.4582-1.276.6727-1.40615.0141-.00577.0306-.01411.047-.02244.0164-.00834.0328-.01667.047-.02245.4869-.26419.8657-.69493 1.043-1.23773l.0651-.18777c.0651-.18777.3046-.23272.4315-.07707.7422.94484 1.9116 1.45571 3.1094 1.37578l3.0333-.2024c.1696-.01132 1.0249.01428 1.1537 1.18353l.0813 2.9023c.06 2.6477-1.8833 4.558-4.3998 4.7259s-4.6963-1.4672-4.9886-4.0994z" fill="url(#a8)"/><path d="m10.9929 11.9206.0116-.0008-.0263-.2492-.0289-.2877c-.0404-.8952.4582-1.276.6727-1.40615.0141-.00577.0306-.01411.047-.02244.0164-.00834.0328-.01667.047-.02245.4869-.26419.8657-.69493 1.043-1.23773l.0651-.18777c.0651-.18777.3046-.23272.4315-.07707.7422.94484 1.9116 1.45571 3.1094 1.37578l3.0333-.2024c.1696-.01132 1.0249.01428 1.1537 1.18353l.0813 2.9023c.06 2.6477-1.8833 4.558-4.3998 4.7259s-4.6963-1.4672-4.9886-4.0994z" fill="url(#a9)"/><path d="m10.9929 11.9206.0116-.0008-.0263-.2492-.0289-.2877c-.0404-.8952.4582-1.276.6727-1.40615.0141-.00577.0306-.01411.047-.02244.0164-.00834.0328-.01667.047-.02245.4869-.26419.8657-.69493 1.043-1.23773l.0651-.18777c.0651-.18777.3046-.23272.4315-.07707.7422.94484 1.9116 1.45571 3.1094 1.37578l3.0333-.2024c.1696-.01132 1.0249.01428 1.1537 1.18353l.0813 2.9023c.06 2.6477-1.8833 4.558-4.3998 4.7259s-4.6963-1.4672-4.9886-4.0994z" fill="url(#ba)"/><path d="m10.9929 11.9206.0116-.0008-.0263-.2492-.0289-.2877c-.0404-.8952.4582-1.276.6727-1.40615.0141-.00577.0306-.01411.047-.02244.0164-.00834.0328-.01667.047-.02245.4869-.26419.8657-.69493 1.043-1.23773l.0651-.18777c.0651-.18777.3046-.23272.4315-.07707.7422.94484 1.9116 1.45571 3.1094 1.37578l3.0333-.2024c.1696-.01132 1.0249.01428 1.1537 1.18353l.0813 2.9023c.06 2.6477-1.8833 4.558-4.3998 4.7259s-4.6963-1.4672-4.9886-4.0994z" fill="url(#bb)"/></g><path d="m10.9929 11.9206.0116-.0008-.0263-.2492-.0289-.2877c-.0404-.8952.4582-1.276.6727-1.40615.0141-.00577.0306-.01411.047-.02244.0164-.00834.0328-.01667.047-.02245.4869-.26419.8657-.69493 1.043-1.23773l.0651-.18777c.0651-.18777.3046-.23272.4315-.07707.7422.94484 1.9116 1.45571 3.1094 1.37578l3.0333-.2024c.1696-.01132 1.0249.01428 1.1537 1.18353l.0813 2.9023c.06 2.6477-1.8833 4.558-4.3998 4.7259s-4.6963-1.4672-4.9886-4.0994z" fill="url(#bc)"/><g filter="url(#r)"><path d="m15.4806 12.6053-.5371 1.6444c-.0802.3362.187.6493.5344.6261l.7408-.0495c.3474-.0231.5703-.374.4464-.6915l-.6075-1.568c-.1309-.3476-.4883-.3237-.577.0385z" fill="#88555f"/></g><g filter="url(#s)"><path d="m15.4816 12.474-.3938 1.6348c-.0802.3362.187.6493.5344.6261l.7408-.0494c.3474-.0232.5703-.374.4464-.6916l-.6075-1.568c-.1309-.3475-.6316-.3141-.7203.0481z" fill="#b38578"/><path d="m15.4816 12.474-.3938 1.6348c-.0802.3362.187.6493.5344.6261l.7408-.0494c.3474-.0232.5703-.374.4464-.6916l-.6075-1.568c-.1309-.3475-.6316-.3141-.7203.0481z" fill="url(#bd)"/><path d="m15.4816 12.474-.3938 1.6348c-.0802.3362.187.6493.5344.6261l.7408-.0494c.3474-.0232.5703-.374.4464-.6916l-.6075-1.568c-.1309-.3475-.6316-.3141-.7203.0481z" fill="url(#be)"/><path d="m15.4816 12.474-.3938 1.6348c-.0802.3362.187.6493.5344.6261l.7408-.0494c.3474-.0232.5703-.374.4464-.6916l-.6075-1.568c-.1309-.3475-.6316-.3141-.7203.0481z" fill="url(#bf)"/><path d="m15.4816 12.474-.3938 1.6348c-.0802.3362.187.6493.5344.6261l.7408-.0494c.3474-.0232.5703-.374.4464-.6916l-.6075-1.568c-.1309-.3475-.6316-.3141-.7203.0481z" fill="url(#bg)"/></g><path d="m15.4816 12.474-.3938 1.6348c-.0802.3362.187.6493.5344.6261l.7408-.0494c.3474-.0232.5703-.374.4464-.6916l-.6075-1.568c-.1309-.3475-.6316-.3141-.7203.0481z" fill="url(#bh)"/><path d="m15.4816 12.474-.3938 1.6348c-.0802.3362.187.6493.5344.6261l.7408-.0494c.3474-.0232.5703-.374.4464-.6916l-.6075-1.568c-.1309-.3475-.6316-.3141-.7203.0481z" fill="url(#bi)"/><g filter="url(#t)"><path d="m16.9046 12.1824c.2206-.4564.5775-.8291 1.3956-.8837.3582-.0239.7102.0523 1.0338.2799.2669.1877.2505.4518.0609.5629l-.5038.334c-.6273-.1575-1.3081-.139-1.9865-.2931z" fill="#2f2c32"/></g><g filter="url(#u)"><path d="m14.753 12.326c-.2794-.423-.6827-.745-1.5008-.6904-.3581.0239-.6969.1462-.9874.4148-.2395.2215-.1882.4811.0145.5661l.5437.264c.6008-.2394 1.278-.3116 1.93-.5545z" fill="#27232a"/></g><g filter="url(#v)"><path d="m12.5521 11.3291-.004.0027c-.0001.0001-.0002.0002-.0003.0002-.1149.0794-.2724.0509-.352-.0638-.0798-.1148-.0512-.2727.0636-.3524l.0005-.0004.001-.0006.0027-.0019.0085-.0057c.0071-.0047.0169-.0111.0294-.019.025-.0158.0605-.0374.1056-.0627.0898-.0504.2184-.1159.3761-.1781.3134-.1235.7554-.2394 1.2444-.1863.139.015.2395.14.2244.279s-.14.2395-.279.2244c-.38-.0412-.7363.0485-1.004.154-.1327.0523-.2404.1073-.3141.1486-.0368.0207-.0648.0378-.0831.0493-.0091.0057-.0157.0101-.0197.0127z" fill="#432a28"/></g><g filter="url(#w)"><path clip-rule="evenodd" d="m19.239 10.45s.0001.0001-.1154.2254l.1154-.2254c.1244.0638.1737.2164.1099.3409-.0637.1242-.216.1734-.3403.11-.0001 0-.0002-.0001-.0005-.0002l-.0043-.0022c-.0043-.0021-.0115-.0055-.0213-.01-.0195-.0089-.0496-.0222-.0888-.0377-.0785-.0312-.1926-.0714-.3311-.1056-.2793-.0691-.6444-.1106-1.0155-.0193-.1358.0335-.273-.0495-.3064-.1853s.0496-.273.1854-.3064c.4776-.1175.931-.0614 1.258.0194.1647.0407.3008.0885.3966.1266.0479.019.0861.0357.1129.048.0134.0062.0241.0113.0317.015l.0092.0045.0029.0015.001.0005z" fill="#432a28" fill-rule="evenodd"/></g><path d="m18.0321 11.3723c.6152-.0411 1.1632.3484 1.3428.9122.053.1615-.0626.3266-.2308.3378l-2.1017.1402c-.1337.009-.2489-.1062-.2311-.2417.0782-.6117.5788-1.1057 1.2208-1.1485z" fill="#fff"/><path d="m17.8543 11.6412c.4662-.0312.8659.3222.8968.7845.0051.0765-.0013.1537-.0158.2237l-1.6241.1084c-.0239-.0713-.0402-.1432-.0453-.2196-.0309-.4624.3222-.8659.7884-.897z" fill="url(#bk)"/><path d="m17.4289 12.5145c-.0179-.2678.182-.4963.4498-.5142s.4963.1821.5142.4498c.0053.0804-.0087.1581-.0388.2255l-.853.0569c-.0426-.0625-.0668-.1377-.0722-.218z" fill="#000"/><g filter="url(#x)"><path d="m17.8051 11.8227c.0653.0762-.0535.1823-.1889.2983-.1354.1161-.2361.1981-.3014.1219s-.0085-.232.1269-.348c.1354-.1161.2981-.1484.3634-.0722z" fill="#c7a7a3"/><path d="m17.8051 11.8227c.0653.0762-.0535.1823-.1889.2983-.1354.1161-.2361.1981-.3014.1219s-.0085-.232.1269-.348c.1354-.1161.2981-.1484.3634-.0722z" fill="url(#bm)"/></g><g filter="url(#y)"><path d="m18.6519 12.3213c-.0456-.2153-.1837-.3706-.2471-.4214l-.2268.285.1248.2076z" fill="url(#bo)"/></g><path d="m13.5275 11.6728c-.6152.0411-1.1066.4999-1.2098 1.0826-.031.1671.1055.3154.2737.3041l2.1017-.1402c.1337-.0089.2326-.1384.1969-.2703-.1587-.5959-.7243-1.0187-1.3625-.9762z" fill="#fff"/><path d="m13.7395 11.9158c-.4662.0311-.8155.4344-.7846.8968.0051.0764.0217.1521.0454.2196l1.624-.1084c.0143-.0738.0209-.1472.0158-.2236-.0347-.4622-.4344-.8155-.9006-.7844z" fill="url(#bp)"/><path d="m14.2781 12.7248c-.0179-.2678-.2464-.4677-.5141-.4498-.2678.0178-.4677.2463-.4499.5141.0054.0803.0296.1556.0684.2183l.853-.0569c.0301-.0673.048-.1454.0426-.2257z" fill="#000"/><g filter="url(#z)"><path d="m14.5577 12.6069c-.0181-.272-.2514-.4385-.3148-.4893l-.2544.2811.1901.3296z" fill="url(#bq)"/></g><g filter="url(#A)"><ellipse cx="13.51" cy="12.292" fill="#c7a7a3" fill-opacity=".9" rx=".368" ry=".186" transform="matrix(.85052117 -.52594081 .52594081 .85052117 -4.445376 8.942959)"/><ellipse cx="13.51" cy="12.292" fill="url(#br)" rx=".368" ry=".186" transform="matrix(.85052117 -.52594081 .52594081 .85052117 -4.445376 8.942959)"/></g><g filter="url(#B)"><path d="m17.5424 10.4333c.2989-.0942 1.0569-.1077 1.5861.22" stroke="#5b4545" stroke-linecap="round" stroke-width=".2"/></g><g filter="url(#C)"><path d="m13.9713 10.6716c-.3087-.0537-1.0618.0337-1.5428.4287" stroke="#5b4545" stroke-linecap="round" stroke-width=".2"/></g><g filter="url(#D)"><path d="m10.7129 7.46794c.4953-.60004 1.5037-.66823 1.9752-.61511l.4539 1.1909c-.2406-.02096-.2784.01715-.4454.20275-.061 1.03813-1.186 1.74129-2.581 2.25122-.23355-1.39589-.0471-2.24889.5973-3.02976z" fill="#49302e"/><path d="m10.7129 7.46794c.4953-.60004 1.5037-.66823 1.9752-.61511l.4539 1.1909c-.2406-.02096-.2784.01715-.4454.20275-.061 1.03813-1.186 1.74129-2.581 2.25122-.23355-1.39589-.0471-2.24889.5973-3.02976z" fill="url(#bs)"/><path d="m10.7129 7.46794c.4953-.60004 1.5037-.66823 1.9752-.61511l.4539 1.1909c-.2406-.02096-.2784.01715-.4454.20275-.061 1.03813-1.186 1.74129-2.581 2.25122-.23355-1.39589-.0471-2.24889.5973-3.02976z" fill="url(#bt)"/></g><g filter="url(#E)"><path d="m14.8064 5.48954c-1.0827-.16437-1.9697.96406-2.0539 1.36617 1.2136 3.27329 3.7083 2.9231 6.1646 2.48301 1.4704-.26345 1.6761.40094 1.8242.71878-.2472-3.70458-3.4438-4.18982-5.9075-4.5638z" fill="#553836"/><path d="m14.8064 5.48954c-1.0827-.16437-1.9697.96406-2.0539 1.36617 1.2136 3.27329 3.7083 2.9231 6.1646 2.48301 1.4704-.26345 1.6761.40094 1.8242.71878-.2472-3.70458-3.4438-4.18982-5.9075-4.5638z" fill="url(#bu)"/><path d="m14.8064 5.48954c-1.0827-.16437-1.9697.96406-2.0539 1.36617 1.2136 3.27329 3.7083 2.9231 6.1646 2.48301 1.4704-.26345 1.6761.40094 1.8242.71878-.2472-3.70458-3.4438-4.18982-5.9075-4.5638z" fill="url(#bv)"/></g><g filter="url(#F)"><path d="m12.7296 6.80957c.0372.22748.2938 1.07471.6206 1.57626" stroke="url(#bw)" stroke-linecap="round" stroke-width=".2"/></g><g filter="url(#G)"><path d="m17.6318 8.95793-1.3263.33659c-.3934.09984-.781-.18148-.808-.58646-.0239-.35802.2465-.66758.6045-.69147l2.205-.14714c1.3041-.08702 1.8235 1.1985 1.9063 1.64409-.7264-.57848-1.6815-.78404-2.5815-.55561z" fill="#664a4a"/></g><g filter="url(#H)"><ellipse cx="16.198" cy="15.957" rx=".654" ry=".662" stroke="url(#bx)" stroke-width=".2"/></g><ellipse cx="16.198" cy="15.957" fill="#87014d" rx=".654" ry=".662"/></svg>