<svg fill="none" height="32" viewBox="0 0 32 32" width="32" xmlns="http://www.w3.org/2000/svg" xmlns:xlink="http://www.w3.org/1999/xlink"><filter id="a" color-interpolation-filters="sRGB" filterUnits="userSpaceOnUse" height="6.811" width="4.141" x="16.361" y="15.9"><feFlood flood-opacity="0" result="BackgroundImageFix"/><feBlend in="SourceGraphic" in2="BackgroundImageFix" mode="normal" result="shape"/><feColorMatrix in="SourceAlpha" result="hardAlpha" type="matrix" values="0 0 0 0 0 0 0 0 0 0 0 0 0 0 0 0 0 0 127 0"/><feOffset dy="-.1"/><feGaussianBlur stdDeviation=".25"/><feComposite in2="hardAlpha" k2="-1" k3="1" operator="arithmetic"/><feColorMatrix type="matrix" values="0 0 0 0 0.513726 0 0 0 0 0.458824 0 0 0 0 0.482353 0 0 0 1 0"/><feBlend in2="shape" mode="normal" result="effect1_innerShadow_3987_23773"/></filter><filter id="b" color-interpolation-filters="sRGB" filterUnits="userSpaceOnUse" height="8.775" width="9.915" x="15.953" y="2.898"><feFlood flood-opacity="0" result="BackgroundImageFix"/><feBlend in="SourceGraphic" in2="BackgroundImageFix" mode="normal" result="shape"/><feColorMatrix in="SourceAlpha" result="hardAlpha" type="matrix" values="0 0 0 0 0 0 0 0 0 0 0 0 0 0 0 0 0 0 127 0"/><feOffset dx=".25" dy="-.5"/><feGaussianBlur stdDeviation=".5"/><feComposite in2="hardAlpha" k2="-1" k3="1" operator="arithmetic"/><feColorMatrix type="matrix" values="0 0 0 0 0.231373 0 0 0 0 0.121569 0 0 0 0 0.184314 0 0 0 1 0"/><feBlend in2="shape" mode="normal" result="effect1_innerShadow_3987_23773"/><feColorMatrix in="SourceAlpha" result="hardAlpha" type="matrix" values="0 0 0 0 0 0 0 0 0 0 0 0 0 0 0 0 0 0 127 0"/><feOffset dy=".1"/><feGaussianBlur stdDeviation=".15"/><feComposite in2="hardAlpha" k2="-1" k3="1" operator="arithmetic"/><feColorMatrix type="matrix" values="0 0 0 0 0.25098 0 0 0 0 0.176471 0 0 0 0 0.168627 0 0 0 1 0"/><feBlend in2="effect1_innerShadow_3987_23773" mode="normal" result="effect2_innerShadow_3987_23773"/></filter><filter id="c" color-interpolation-filters="sRGB" filterUnits="userSpaceOnUse" height=".799" width="2.065" x="5.024" y="11.938"><feFlood flood-opacity="0" result="BackgroundImageFix"/><feBlend in="SourceGraphic" in2="BackgroundImageFix" mode="normal" result="shape"/><feGaussianBlur result="effect1_foregroundBlur_3987_23773" stdDeviation=".15"/></filter><filter id="d" color-interpolation-filters="sRGB" filterUnits="userSpaceOnUse" height=".866" width="2.506" x="4.54" y="11.341"><feFlood flood-opacity="0" result="BackgroundImageFix"/><feBlend in="SourceGraphic" in2="BackgroundImageFix" mode="normal" result="shape"/><feGaussianBlur result="effect1_foregroundBlur_3987_23773" stdDeviation=".15"/></filter><filter id="e" color-interpolation-filters="sRGB" filterUnits="userSpaceOnUse" height="5.612" width="4.748" x="12.315" y="3.884"><feFlood flood-opacity="0" result="BackgroundImageFix"/><feBlend in="SourceGraphic" in2="BackgroundImageFix" mode="normal" result="shape"/><feColorMatrix in="SourceAlpha" result="hardAlpha" type="matrix" values="0 0 0 0 0 0 0 0 0 0 0 0 0 0 0 0 0 0 127 0"/><feOffset dx="-.2" dy="-.2"/><feGaussianBlur stdDeviation=".5"/><feComposite in2="hardAlpha" k2="-1" k3="1" operator="arithmetic"/><feColorMatrix type="matrix" values="0 0 0 0 0.360784 0 0 0 0 0.172549 0 0 0 0 0.12549 0 0 0 1 0"/><feBlend in2="shape" mode="normal" result="effect1_innerShadow_3987_23773"/></filter><filter id="f" color-interpolation-filters="sRGB" filterUnits="userSpaceOnUse" height="5.883" width="5.899" x="12.582" y="2.185"><feFlood flood-opacity="0" result="BackgroundImageFix"/><feBlend in="SourceGraphic" in2="BackgroundImageFix" mode="normal" result="shape"/><feColorMatrix in="SourceAlpha" result="hardAlpha" type="matrix" values="0 0 0 0 0 0 0 0 0 0 0 0 0 0 0 0 0 0 127 0"/><feOffset dy="-.15"/><feGaussianBlur stdDeviation=".15"/><feComposite in2="hardAlpha" k2="-1" k3="1" operator="arithmetic"/><feColorMatrix type="matrix" values="0 0 0 0 0.14902 0 0 0 0 0.101961 0 0 0 0 0.109804 0 0 0 1 0"/><feBlend in2="shape" mode="normal" result="effect1_innerShadow_3987_23773"/></filter><filter id="g" color-interpolation-filters="sRGB" filterUnits="userSpaceOnUse" height=".601" width="1.079" x="13.124" y="4.881"><feFlood flood-opacity="0" result="BackgroundImageFix"/><feBlend in="SourceGraphic" in2="BackgroundImageFix" mode="normal" result="shape"/><feColorMatrix in="SourceAlpha" result="hardAlpha" type="matrix" values="0 0 0 0 0 0 0 0 0 0 0 0 0 0 0 0 0 0 127 0"/><feOffset dx="-.1" dy=".1"/><feGaussianBlur stdDeviation=".1"/><feComposite in2="hardAlpha" k2="-1" k3="1" operator="arithmetic"/><feColorMatrix type="matrix" values="0 0 0 0 0.0666667 0 0 0 0 0.0627451 0 0 0 0 0.0627451 0 0 0 1 0"/><feBlend in2="shape" mode="normal" result="effect1_innerShadow_3987_23773"/></filter><filter id="h" color-interpolation-filters="sRGB" filterUnits="userSpaceOnUse" height="3.646" width="2.352" x="16.237" y="2.806"><feFlood flood-opacity="0" result="BackgroundImageFix"/><feBlend in="SourceGraphic" in2="BackgroundImageFix" mode="normal" result="shape"/><feGaussianBlur result="effect1_foregroundBlur_3987_23773" stdDeviation=".25"/></filter><linearGradient id="i" gradientUnits="userSpaceOnUse" x1="11.824" x2="10.137" y1="26.075" y2="26.325"><stop offset="0" stop-color="#523939"/><stop offset="1" stop-color="#4f3838"/></linearGradient><linearGradient id="j" gradientUnits="userSpaceOnUse" x1="9.277" x2="9.996" y1="24.387" y2="24.325"><stop offset="0" stop-color="#6c5551"/><stop offset="1" stop-color="#574241" stop-opacity="0"/></linearGradient><linearGradient id="k" gradientUnits="userSpaceOnUse" x1="11.746" x2="11.316" y1="22.676" y2="22.778"><stop offset="0" stop-color="#4c2e2e"/><stop offset="1" stop-color="#4c2e2e" stop-opacity="0"/></linearGradient><linearGradient id="l" gradientUnits="userSpaceOnUse" x1="23.277" x2="23.219" y1="24.567" y2="23.344"><stop offset="0" stop-color="#42273f"/><stop offset="1" stop-color="#472b33" stop-opacity="0"/></linearGradient><linearGradient id="m" gradientUnits="userSpaceOnUse" x1="22.656" x2="22.656" y1="22.418" y2="23.328"><stop offset="0" stop-color="#4c3431"/><stop offset="1" stop-color="#4c3431" stop-opacity="0"/></linearGradient><radialGradient id="n" cx="0" cy="0" gradientTransform="matrix(.43750042 1.76562373 -1.42430591 .35292595 19.3867 21.762)" gradientUnits="userSpaceOnUse" r="1"><stop offset=".264" stop-color="#ff7839"/><stop offset="1" stop-color="#ff7839" stop-opacity="0"/></radialGradient><radialGradient id="o" cx="0" cy="0" gradientTransform="matrix(-.57156638 2.94814537 -3.26630129 -.63324828 19.3398 22.2463)" gradientUnits="userSpaceOnUse" r="1"><stop offset=".625" stop-color="#d74b53" stop-opacity="0"/><stop offset="1" stop-color="#d74b53"/></radialGradient><radialGradient id="p" cx="0" cy="0" gradientTransform="matrix(.60156142 2.56249685 -1.1839924 .27794928 17.0039 22.4495)" gradientUnits="userSpaceOnUse" r="1"><stop offset="0" stop-color="#e76637"/><stop offset="1" stop-color="#e76637" stop-opacity="0"/></radialGradient><radialGradient id="q" cx="0" cy="0" gradientTransform="matrix(-3.80517051 2.25001302 -1.48080481 -2.5043032 13.2856 19.4807)" gradientUnits="userSpaceOnUse" r="1"><stop offset=".313" stop-color="#ef6923"/><stop offset="1" stop-color="#fc672b"/></radialGradient><radialGradient id="r" cx="0" cy="0" gradientTransform="matrix(-1.74268026 -1.74999531 1.81950762 -1.811902 13.2856 21.7307)" gradientUnits="userSpaceOnUse" r="1"><stop offset=".132" stop-color="#cf433f"/><stop offset="1" stop-color="#cf433f" stop-opacity="0"/></radialGradient><radialGradient id="s" cx="0" cy="0" gradientTransform="matrix(-3.62084515 -1.17187438 1.50039248 -4.63589694 12.5742 21.762)" gradientUnits="userSpaceOnUse" r="1"><stop offset=".713" stop-color="#fb7640" stop-opacity="0"/><stop offset="1" stop-color="#fb7640"/></radialGradient><linearGradient id="t" gradientUnits="userSpaceOnUse" x1="11.12" x2="11.12" y1="18.598" y2="19.918"><stop offset="0" stop-color="#d76322"/><stop offset="1" stop-color="#d76322" stop-opacity="0"/></linearGradient><radialGradient id="u" cx="0" cy="0" gradientTransform="matrix(2.43750354 4.75000384 -1.70109767 .87293226 17.0742 19.7491)" gradientUnits="userSpaceOnUse" r="1"><stop offset=".329" stop-color="#746484"/><stop offset="1" stop-color="#827483" stop-opacity="0"/></radialGradient><radialGradient id="v" cx="0" cy="0" gradientTransform="matrix(-1.90624933 -1.75000237 2.48450806 -2.70633453 14.0117 14.1057)" gradientUnits="userSpaceOnUse" r="1"><stop offset=".243" stop-color="#443331"/><stop offset="1" stop-color="#443331" stop-opacity="0"/></radialGradient><radialGradient id="w" cx="0" cy="0" gradientTransform="matrix(-.03124854 3.04687976 -8.20610844 -.08416114 11.3867 11.7776)" gradientUnits="userSpaceOnUse" r="1"><stop offset=".543" stop-color="#422229" stop-opacity="0"/><stop offset=".952" stop-color="#44263d"/></radialGradient><radialGradient id="x" cx="0" cy="0" gradientTransform="matrix(-.12500098 1.15597115 -4.12712054 -.44628632 11.0898 11.7307)" gradientUnits="userSpaceOnUse" r="1"><stop offset=".411" stop-color="#3f2b28"/><stop offset="1" stop-color="#3f2b28" stop-opacity="0"/></radialGradient><radialGradient id="y" cx="0" cy="0" gradientTransform="matrix(.11892174 1.97105574 -1.84848863 .11152677 15.4261 9.30904)" gradientUnits="userSpaceOnUse" r="1"><stop offset=".198" stop-color="#301d1c"/><stop offset=".75" stop-color="#584a48"/></radialGradient><radialGradient id="z" cx="0" cy="0" gradientTransform="matrix(.02932882 -5.3295293 3.38375876 .01862109 15.2755 17.438)" gradientUnits="userSpaceOnUse" r="1"><stop offset=".175" stop-color="#fb643e"/><stop offset="1" stop-color="#fb643e" stop-opacity="0"/></radialGradient><radialGradient id="A" cx="0" cy="0" gradientTransform="matrix(-1.25026468 5.7098087 -2.2374779 -.48993578 13.92 12.3848)" gradientUnits="userSpaceOnUse" r="1"><stop offset="0" stop-color="#ff9056"/><stop offset="1" stop-color="#ff9056" stop-opacity="0"/></radialGradient><radialGradient id="B" cx="0" cy="0" gradientTransform="matrix(-2.50773103 .1338386 -.27055084 -5.06930543 18.7582 14.5819)" gradientUnits="userSpaceOnUse" r="1"><stop offset="0" stop-color="#ff8750"/><stop offset="1" stop-color="#ff8750" stop-opacity="0"/></radialGradient><radialGradient id="C" cx="0" cy="0" gradientTransform="matrix(-1.058113 1.31974933 -1.60531857 -1.287069 19.0518 11.5023)" gradientUnits="userSpaceOnUse" r="1"><stop offset=".296" stop-color="#eb784b"/><stop offset="1" stop-color="#eb784b" stop-opacity="0"/></radialGradient><radialGradient id="D" cx="0" cy="0" gradientTransform="matrix(-.68752027 -3.28124552 6.32584007 -1.32545499 16.043 17.2308)" gradientUnits="userSpaceOnUse" r="1"><stop offset="0" stop-color="#f14a2d"/><stop offset="1" stop-color="#f14a2d" stop-opacity="0"/></radialGradient><radialGradient id="E" cx="0" cy="0" gradientTransform="matrix(1.78125255 -.93749973 .73922243 1.40452503 17.3711 11.1995)" gradientUnits="userSpaceOnUse" r="1"><stop offset=".175" stop-color="#eb5f1d"/><stop offset="1" stop-color="#eb5f1d" stop-opacity="0"/></radialGradient><linearGradient id="F" gradientUnits="userSpaceOnUse" x1="10.324" x2="11.855" y1="28.887" y2="28.887"><stop offset="0" stop-color="#504b8a"/><stop offset="1" stop-color="#5f5c95"/></linearGradient><radialGradient id="G" cx="0" cy="0" gradientTransform="matrix(.798584 0 0 1.52692 7.13501 29.9048)" gradientUnits="userSpaceOnUse" r="1"><stop offset="0" stop-color="#66638b"/><stop offset="1" stop-color="#66638b" stop-opacity="0"/></radialGradient><linearGradient id="H" gradientUnits="userSpaceOnUse" x1="9.887" x2="9.887" y1="29.905" y2="29.582"><stop offset="0" stop-color="#4d318d"/><stop offset="1" stop-color="#514d8b" stop-opacity="0"/></linearGradient><radialGradient id="I" cx="0" cy="0" gradientTransform="matrix(-1.10936946 -1.89269047 7.27866026 -4.26626728 10.1523 29.9048)" gradientUnits="userSpaceOnUse" r="1"><stop offset=".742" stop-color="#4a4970" stop-opacity="0"/><stop offset="1" stop-color="#4a4970"/></radialGradient><linearGradient id="J" gradientUnits="userSpaceOnUse" x1="25.813" x2="26.409" y1="22.035" y2="23.153"><stop offset=".024" stop-color="#444367"/><stop offset="1" stop-color="#444367" stop-opacity="0"/></linearGradient><linearGradient id="K" gradientUnits="userSpaceOnUse" x1="26.062" x2="26.756" y1="24.985" y2="24.119"><stop offset="0" stop-color="#5a418f"/><stop offset="1" stop-color="#5a418f" stop-opacity="0"/></linearGradient><linearGradient id="L" gradientUnits="userSpaceOnUse" x1="27.776" x2="27.384" y1="24.119" y2="24.294"><stop offset=".213" stop-color="#5e5d8f"/><stop offset="1" stop-color="#484083" stop-opacity="0"/></linearGradient><radialGradient id="M" cx="0" cy="0" gradientTransform="matrix(1.95107879 4.16821264 -15.86343525 7.4254398 14.5843 17.2979)" gradientUnits="userSpaceOnUse" r="1"><stop offset=".554" stop-color="#917ea3" stop-opacity="0"/><stop offset="1" stop-color="#917ea3"/></radialGradient><radialGradient id="N" cx="0" cy="0" gradientTransform="matrix(1.49503418 -1.88244735 6.2621151 4.97335349 13.8948 22.7688)" gradientUnits="userSpaceOnUse" r="1"><stop offset="0" stop-color="#885fa7"/><stop offset="1" stop-color="#9583a6" stop-opacity="0"/></radialGradient><radialGradient id="O" cx="0" cy="0" gradientTransform="matrix(-2.31611636 .83933695 -.79838388 -2.20310802 18.633 18.0929)" gradientUnits="userSpaceOnUse" r="1"><stop offset="0" stop-color="#afa8b2"/><stop offset="1" stop-color="#9b92a1" stop-opacity="0"/></radialGradient><linearGradient id="P" gradientUnits="userSpaceOnUse" x1="13.796" x2="14.246" y1="17.365" y2="18.432"><stop offset="0" stop-color="#908582"/><stop offset="1" stop-color="#908582" stop-opacity="0"/></linearGradient><radialGradient id="Q" cx="0" cy="0" gradientTransform="matrix(2.06572243 -.43345995 .05444664 .25947414 14.1637 17.3088)" gradientUnits="userSpaceOnUse" r="1"><stop offset=".207" stop-color="#9c959a"/><stop offset="1" stop-color="#9c959a" stop-opacity="0"/></radialGradient><linearGradient id="R" gradientUnits="userSpaceOnUse" x1="21.824" x2="21.637" y1="10.996" y2="10.059"><stop offset=".076" stop-color="#3c2031"/><stop offset="1" stop-color="#452931" stop-opacity="0"/></linearGradient><radialGradient id="S" cx="0" cy="0" gradientTransform="matrix(-1.43505289 1.3750128 -1.21052765 -1.26338548 25.6187 3.99649)" gradientUnits="userSpaceOnUse" r="1"><stop offset="0" stop-color="#5d4846"/><stop offset="1" stop-color="#4d3432" stop-opacity="0"/></radialGradient><linearGradient id="T" gradientUnits="userSpaceOnUse" x1="18.667" x2="17.908" y1="12.144" y2="9.434"><stop offset="0" stop-color="#f05c24"/><stop offset="1" stop-color="#ff813d" stop-opacity="0"/></linearGradient><radialGradient id="U" cx="0" cy="0" gradientTransform="matrix(1.19488044 .49902579 -.84266722 2.01770452 15.1985 10.1929)" gradientUnits="userSpaceOnUse" r="1"><stop offset="0" stop-color="#ff9459"/><stop offset="1" stop-color="#ff9459" stop-opacity="0"/></radialGradient><radialGradient id="V" cx="0" cy="0" gradientTransform="matrix(-.95223093 .19198614 -.29997637 -1.48785102 20.1153 9.88565)" gradientUnits="userSpaceOnUse" r="1"><stop offset=".164" stop-color="#ff985a"/><stop offset="1" stop-color="#ff985a" stop-opacity="0"/></radialGradient><linearGradient id="W" gradientUnits="userSpaceOnUse" x1="25.473" x2="23.476" y1="6.184" y2="6.254"><stop offset=".149" stop-color="#db7c25"/><stop offset="1" stop-color="#c86d30"/></linearGradient><linearGradient id="X"><stop offset="0" stop-color="#594441"/><stop offset=".588" stop-color="#42292d"/></linearGradient><linearGradient id="Y" gradientUnits="userSpaceOnUse" x1="5.299" x2="8.29" xlink:href="#X" y1="11.403" y2="11.403"/><linearGradient id="Z"><stop offset="0" stop-color="#412232"/><stop offset="1" stop-color="#412232" stop-opacity="0"/></linearGradient><linearGradient id="aa" gradientUnits="userSpaceOnUse" x1="6.371" x2="6.371" xlink:href="#Z" y1="12.036" y2="11.591"/><linearGradient id="ab" gradientUnits="userSpaceOnUse" x1="4.696" x2="7.259" xlink:href="#X" y1="11.843" y2="11.843"/><linearGradient id="ac" gradientUnits="userSpaceOnUse" x1="5.614" x2="5.614" xlink:href="#Z" y1="12.476" y2="12.03"/><linearGradient id="ad" gradientUnits="userSpaceOnUse" x1="5.105" x2="7.199" xlink:href="#X" y1="12.426" y2="12.426"/><linearGradient id="ae" gradientUnits="userSpaceOnUse" x1="5.855" x2="5.855" xlink:href="#Z" y1="13.059" y2="12.614"/><radialGradient id="af" cx="0" cy="0" gradientTransform="matrix(-2.34374811 -.53123914 .61487526 -2.71273825 23.793 3.41831)" gradientUnits="userSpaceOnUse" r="1"><stop offset="0" stop-color="#ddd9e2"/><stop offset="1" stop-color="#bab6bd"/></radialGradient><radialGradient id="ag" cx="0" cy="0" gradientTransform="matrix(.37621816 -2.90625019 5.06261741 .65536292 22.5742 6.41831)" gradientUnits="userSpaceOnUse" r="1"><stop offset=".114" stop-color="#a580be"/><stop offset="1" stop-color="#b9b1c0" stop-opacity="0"/></radialGradient><radialGradient id="ah" cx="0" cy="0" gradientTransform="matrix(1.6249972 -.12411269 .12476077 1.63348249 21.0273 4.21519)" gradientUnits="userSpaceOnUse" r="1"><stop offset="0" stop-color="#c3b8c5"/><stop offset="1" stop-color="#c3b8c5" stop-opacity="0"/></radialGradient><radialGradient id="ai" cx="0" cy="0" gradientTransform="matrix(-2.43628319 .93661659 -.93661659 -2.43628319 23.3242 4.09108)" gradientUnits="userSpaceOnUse" r="1"><stop offset=".83" stop-color="#c2aab6" stop-opacity="0"/><stop offset=".992" stop-color="#c2aab6"/></radialGradient><radialGradient id="aj" cx="0" cy="0" gradientTransform="matrix(-1.87498315 -2.76476272 2.76476272 -1.87498315 23.3555 4.79331)" gradientUnits="userSpaceOnUse" r="1"><stop offset=".655" stop-color="#adaaad" stop-opacity="0"/><stop offset="1" stop-color="#a5a3a3"/></radialGradient><radialGradient id="ak" cx="0" cy="0" gradientTransform="matrix(.51081314 .27634198 -.39006705 .72103186 11.9931 6.98)" gradientUnits="userSpaceOnUse" r="1"><stop offset=".101" stop-color="#68534f"/><stop offset=".684" stop-color="#41212e"/></radialGradient><linearGradient id="al" gradientUnits="userSpaceOnUse" x1="15.583" x2="12.515" y1="7.022" y2="7.206"><stop offset="0" stop-color="#492f32"/><stop offset="1" stop-color="#5b4542"/></linearGradient><radialGradient id="am" cx="0" cy="0" gradientTransform="matrix(-.90439026 -.05024659 .06126048 -1.10262954 15.9184 6.22636)" gradientUnits="userSpaceOnUse" r="1"><stop offset=".156" stop-color="#34191a"/><stop offset="1" stop-color="#34191a" stop-opacity="0"/></radialGradient><radialGradient id="an" cx="0" cy="0" gradientTransform="matrix(0 -5.56032 1.50732 0 12.8137 7.49915)" gradientUnits="userSpaceOnUse" r="1"><stop offset=".163" stop-color="#614c49"/><stop offset="1" stop-color="#614c49" stop-opacity="0"/></radialGradient><radialGradient id="ao" cx="0" cy="0" gradientTransform="matrix(0 .418699 -.652971 0 13.7013 6.27655)" gradientUnits="userSpaceOnUse" r="1"><stop offset=".155" stop-color="#472f2c"/><stop offset="1" stop-color="#472f2c" stop-opacity="0"/></radialGradient><radialGradient id="ap" cx="0" cy="0" gradientTransform="matrix(2.57985289 -2.0879311 3.17403399 3.92184434 15.0118 5.20186)" gradientUnits="userSpaceOnUse" r="1"><stop offset=".194" stop-color="#22191d"/><stop offset="1" stop-color="#342d30"/></radialGradient><radialGradient id="aq" cx="0" cy="0" gradientTransform="matrix(1.28671344 -.93788517 1.50888038 2.07007929 12.5823 3.58015)" gradientUnits="userSpaceOnUse" r="1"><stop offset="0" stop-color="#564c49"/><stop offset="1" stop-color="#564c49" stop-opacity="0"/></radialGradient><radialGradient id="ar" cx="0" cy="0" gradientTransform="matrix(-.56105848 .15910205 -.07817316 -.27567033 17.7629 7.16421)" gradientUnits="userSpaceOnUse" r="1"><stop offset=".197" stop-color="#464243"/><stop offset="1" stop-color="#464243" stop-opacity="0"/></radialGradient><radialGradient id="as" cx="0" cy="0" gradientTransform="matrix(.95463373 -.22609691 .60580024 2.55782944 15.6861 5.57316)" gradientUnits="userSpaceOnUse" r="1"><stop offset=".353" stop-color="#363131"/><stop offset=".584" stop-color="#363131" stop-opacity="0"/></radialGradient><radialGradient id="at" cx="0" cy="0" gradientTransform="matrix(.77878031 -.22609742 .11035499 .38011177 15.6776 6.10072)" gradientUnits="userSpaceOnUse" r="1"><stop offset=".17" stop-color="#635251"/><stop offset="1" stop-color="#482c2e"/></radialGradient><linearGradient id="au" gradientUnits="userSpaceOnUse" x1="15.64" x2="15.761" y1="6.172" y2="6.189"><stop offset="0" stop-color="#48302c"/><stop offset="1" stop-color="#48302c" stop-opacity="0"/></linearGradient><radialGradient id="av" cx="0" cy="0" gradientTransform="matrix(.293089 0 0 .569431 13.3852 6.30605)" gradientUnits="userSpaceOnUse" r="1"><stop offset=".895" stop-color="#916a62"/><stop offset="1" stop-color="#824d44"/></radialGradient><radialGradient id="aw" cx="0" cy="0" gradientTransform="matrix(.267967 0 0 .579898 13.2053 6.3289)" gradientUnits="userSpaceOnUse" r="1"><stop offset="0" stop-color="#666361"/><stop offset=".813" stop-color="#565352"/></radialGradient><linearGradient id="ax" gradientUnits="userSpaceOnUse" x1="13.198" x2="13.398" y1="5.911" y2="5.976"><stop offset="0" stop-color="#fff"/><stop offset="1" stop-color="#fff" stop-opacity="0"/></linearGradient><linearGradient id="ay" gradientUnits="userSpaceOnUse" x1="17.224" x2="17.7" y1="5.558" y2="2.451"><stop offset=".421" stop-color="#454143"/><stop offset="1" stop-color="#454143" stop-opacity="0"/></linearGradient><path d="m10.0742 27.6917-.99998-5.1797 2.57028-.4766v6.3594z" fill="url(#i)"/><path d="m10.0742 27.6917-.99998-5.1797 2.57028-.4766v6.3594z" fill="url(#j)"/><path d="m10.0742 27.6917-.99998-5.1797 2.57028-.4766v6.3594z" fill="url(#k)"/><path d="m25.207 24.262-4.7734.7031-.3281-2.5469 5.2148.1485z" fill="#584444"/><path d="m25.207 24.262-4.7734.7031-.3281-2.5469 5.2148.1485z" fill="url(#l)"/><path d="m25.207 24.262-4.7734.7031-.3281-2.5469 5.2148.1485z" fill="url(#m)"/><path d="m17.4023 23.9417-.3984-1.2969 2.9063-1.3828.2031 1.125h.2578c.1625.9.1719 2.1406.1562 2.6484-.0416.013-.3015.0563-.914.125-1.4125.225-2.0625-.7187-2.211-1.2187z" fill="#ec5d25"/><path d="m17.4023 23.9417-.3984-1.2969 2.9063-1.3828.2031 1.125h.2578c.1625.9.1719 2.1406.1562 2.6484-.0416.013-.3015.0563-.914.125-1.4125.225-2.0625-.7187-2.211-1.2187z" fill="url(#n)"/><path d="m17.4023 23.9417-.3984-1.2969 2.9063-1.3828.2031 1.125h.2578c.1625.9.1719 2.1406.1562 2.6484-.0416.013-.3015.0563-.914.125-1.4125.225-2.0625-.7187-2.211-1.2187z" fill="url(#o)"/><path d="m17.4023 23.9417-.3984-1.2969 2.9063-1.3828.2031 1.125h.2578c.1625.9.1719 2.1406.1562 2.6484-.0416.013-.3015.0563-.914.125-1.4125.225-2.0625-.7187-2.211-1.2187z" fill="url(#p)"/><path d="m10.6607 19.0432 1.0156-.4453 1.6093 2.8359-1.5625.4688v.4219l-2.67957.2578c-.07292-.3985-.20089-1.2513.10136-2.0156.33549-.8485 1.14861-1.362 1.51581-1.5235z" fill="url(#q)"/><path d="m10.6607 19.0432 1.0156-.4453 1.6093 2.8359-1.5625.4688v.4219l-2.67957.2578c-.07292-.3985-.20089-1.2513.10136-2.0156.33549-.8485 1.14861-1.362 1.51581-1.5235z" fill="url(#r)"/><path d="m10.6607 19.0432 1.0156-.4453 1.6093 2.8359-1.5625.4688v.4219l-2.67957.2578c-.07292-.3985-.20089-1.2513.10136-2.0156.33549-.8485 1.14861-1.362 1.51581-1.5235z" fill="url(#s)"/><path d="m10.6607 19.0432 1.0156-.4453 1.6093 2.8359-1.5625.4688v.4219l-2.67957.2578c-.07292-.3985-.20089-1.2513.10136-2.0156.33549-.8485 1.14861-1.362 1.51581-1.5235z" fill="url(#t)"/><g filter="url(#a)"><path d="m17.0103 22.7114s-.4643-1.2311-.6401-2.2748c-.1759-1.0437 2.3364-4.4366 2.3364-4.4366.9503 1.4902 1.2957 2.6349 1.6406 4.0117.2087.8334.2645 1.0799-.2036 1.5388-.6375.5688-2.4907.9827-3.1333 1.1609z" fill="#97919e"/><path d="m17.0103 22.7114s-.4643-1.2311-.6401-2.2748c-.1759-1.0437 2.3364-4.4366 2.3364-4.4366.9503 1.4902 1.2957 2.6349 1.6406 4.0117.2087.8334.2645 1.0799-.2036 1.5388-.6375.5688-2.4907.9827-3.1333 1.1609z" fill="url(#u)"/></g><g clip-rule="evenodd" fill-rule="evenodd"><path d="m6.49497 11.6426c.37573-.5121 1.09544-.6226 1.6075-.2468 1.17762.8641 3.40523 1.3817 5.63203.3163.5729-.2741 1.2596-.0319 1.5337.5411.2741.5729.0319 1.2595-.5411 1.5337-3.0321 1.4507-6.18744.8038-8.13663-.7027-.51206-.3757-.47124-.9295-.0955-1.4416z" fill="#42292d"/><path d="m6.49497 11.6426c.37573-.5121 1.09544-.6226 1.6075-.2468 1.17762.8641 3.40523 1.3817 5.63203.3163.5729-.2741 1.2596-.0319 1.5337.5411.2741.5729.0319 1.2595-.5411 1.5337-3.0321 1.4507-6.18744.8038-8.13663-.7027-.51206-.3757-.47124-.9295-.0955-1.4416z" fill="url(#v)"/><path d="m6.49497 11.6426c.37573-.5121 1.09544-.6226 1.6075-.2468 1.17762.8641 3.40523 1.3817 5.63203.3163.5729-.2741 1.2596-.0319 1.5337.5411.2741.5729.0319 1.2595-.5411 1.5337-3.0321 1.4507-6.18744.8038-8.13663-.7027-.51206-.3757-.47124-.9295-.0955-1.4416z" fill="url(#w)"/><path d="m6.49497 11.6426c.37573-.5121 1.09544-.6226 1.6075-.2468 1.17762.8641 3.40523 1.3817 5.63203.3163.5729-.2741 1.2596-.0319 1.5337.5411.2741.5729.0319 1.2595-.5411 1.5337-3.0321 1.4507-6.18744.8038-8.13663-.7027-.51206-.3757-.47124-.9295-.0955-1.4416z" fill="url(#x)"/></g><path d="m14.4365 7.98047h2.21709v3.29963h-2.21709z" fill="url(#y)" transform="matrix(.91837733 -.3957058 .3957058 .91837733 -1.979573 6.363994)"/><path d="m15.9532 9.36748.6737-.16907c.2332-.05854.476-.06882.7134-.03021l1.5308 2.1944c-.6429 1.6849-.5954 3.0344-.0978 4.2549l-4.8977 2.0741c-.8556-2.9177-.6654-5.3977-.0002-6.5552.5972-1.1195 1.4254-1.58142 2.0778-1.76892z" fill="#f76c2c"/><path d="m15.9532 9.36748.6737-.16907c.2332-.05854.476-.06882.7134-.03021l1.5308 2.1944c-.6429 1.6849-.5954 3.0344-.0978 4.2549l-4.8977 2.0741c-.8556-2.9177-.6654-5.3977-.0002-6.5552.5972-1.1195 1.4254-1.58142 2.0778-1.76892z" fill="url(#z)"/><path d="m15.9532 9.36748.6737-.16907c.2332-.05854.476-.06882.7134-.03021l1.5308 2.1944c-.6429 1.6849-.5954 3.0344-.0978 4.2549l-4.8977 2.0741c-.8556-2.9177-.6654-5.3977-.0002-6.5552.5972-1.1195 1.4254-1.58142 2.0778-1.76892z" fill="url(#A)"/><path d="m15.9532 9.36748.6737-.16907c.2332-.05854.476-.06882.7134-.03021l1.5308 2.1944c-.6429 1.6849-.5954 3.0344-.0978 4.2549l-4.8977 2.0741c-.8556-2.9177-.6654-5.3977-.0002-6.5552.5972-1.1195 1.4254-1.58142 2.0778-1.76892z" fill="url(#B)"/><path d="m15.9532 9.36748.6737-.16907c.2332-.05854.476-.06882.7134-.03021l1.5308 2.1944c-.6429 1.6849-.5954 3.0344-.0978 4.2549l-4.8977 2.0741c-.8556-2.9177-.6654-5.3977-.0002-6.5552.5972-1.1195 1.4254-1.58142 2.0778-1.76892z" fill="url(#C)"/><path d="m15.9532 9.36748.6737-.16907c.2332-.05854.476-.06882.7134-.03021l1.5308 2.1944c-.6429 1.6849-.5954 3.0344-.0978 4.2549l-4.8977 2.0741c-.8556-2.9177-.6654-5.3977-.0002-6.5552.5972-1.1195 1.4254-1.58142 2.0778-1.76892z" fill="url(#D)"/><path d="m15.9532 9.36748.6737-.16907c.2332-.05854.476-.06882.7134-.03021l1.5308 2.1944c-.6429 1.6849-.5954 3.0344-.0978 4.2549l-4.8977 2.0741c-.8556-2.9177-.6654-5.3977-.0002-6.5552.5972-1.1195 1.4254-1.58142 2.0778-1.76892z" fill="url(#E)"/><path d="m7.86328 28.6137 2.21422-1.0715 1.5749.7517-.0144 1.3395c-.0014.1372-.1135.2483-.2513.2491l-3.85422.0223c-.22166.0013-.41825-.1495-.39576-.3692.04634-.4529.33333-.7369.72656-.9219z" fill="url(#F)"/><path d="m7.86328 28.6137 2.21422-1.0715 1.5749.7517-.0144 1.3395c-.0014.1372-.1135.2483-.2513.2491l-3.85422.0223c-.22166.0013-.41825-.1495-.39576-.3692.04634-.4529.33333-.7369.72656-.9219z" fill="url(#G)"/><path d="m7.86328 28.6137 2.21422-1.0715 1.5749.7517-.0144 1.3395c-.0014.1372-.1135.2483-.2513.2491l-3.85422.0223c-.22166.0013-.41825-.1495-.39576-.3692.04634-.4529.33333-.7369.72656-.9219z" fill="url(#H)"/><path d="m7.86328 28.6137 2.21422-1.0715 1.5749.7517-.0144 1.3395c-.0014.1372-.1135.2483-.2513.2491l-3.85422.0223c-.22166.0013-.41825-.1495-.39576-.3692.04634-.4529.33333-.7369.72656-.9219z" fill="url(#I)"/><path d="m26.4075 22.0013-1.2942.5577.0351 1.7109c.3302.2883 1.1039 1.0653 1.8079 1.6016.459.3496.8936.3553 1.1914.2955.2262-.0455.2876-.3012.1885-.5095l-1.5942-3.5386c-.0597-.1251-.2097-.1779-.3345-.1176z" fill="#473f82"/><path d="m26.4075 22.0013-1.2942.5577.0351 1.7109c.3302.2883 1.1039 1.0653 1.8079 1.6016.459.3496.8936.3553 1.1914.2955.2262-.0455.2876-.3012.1885-.5095l-1.5942-3.5386c-.0597-.1251-.2097-.1779-.3345-.1176z" fill="url(#J)"/><path d="m26.4075 22.0013-1.2942.5577.0351 1.7109c.3302.2883 1.1039 1.0653 1.8079 1.6016.459.3496.8936.3553 1.1914.2955.2262-.0455.2876-.3012.1885-.5095l-1.5942-3.5386c-.0597-.1251-.2097-.1779-.3345-.1176z" fill="url(#K)"/><path d="m26.4075 22.0013-1.2942.5577.0351 1.7109c.3302.2883 1.1039 1.0653 1.8079 1.6016.459.3496.8936.3553 1.1914.2955.2262-.0455.2876-.3012.1885-.5095l-1.5942-3.5386c-.0597-.1251-.2097-.1779-.3345-.1176z" fill="url(#L)"/><path d="m18.7597 15.58s-4.6314 1.7864-7.1643 3.0455c.602 1.5034 1.3335 2.687 1.8037 3.3708.2677.3895.7803.4973 1.1985.277 1.0851-.5717 2.0442-1.0309 3.1827-1.7254 2.0403-1.2445 1.7839-2.567 1.6628-3.2643-.1049-.604-.4915-1.3224-.6834-1.7036z" fill="#918996"/><path d="m18.7597 15.58s-4.6314 1.7864-7.1643 3.0455c.602 1.5034 1.3335 2.687 1.8037 3.3708.2677.3895.7803.4973 1.1985.277 1.0851-.5717 2.0442-1.0309 3.1827-1.7254 2.0403-1.2445 1.7839-2.567 1.6628-3.2643-.1049-.604-.4915-1.3224-.6834-1.7036z" fill="url(#M)"/><path d="m18.7597 15.58s-4.6314 1.7864-7.1643 3.0455c.602 1.5034 1.3335 2.687 1.8037 3.3708.2677.3895.7803.4973 1.1985.277 1.0851-.5717 2.0442-1.0309 3.1827-1.7254 2.0403-1.2445 1.7839-2.567 1.6628-3.2643-.1049-.604-.4915-1.3224-.6834-1.7036z" fill="url(#N)"/><path d="m18.7597 15.58s-4.6314 1.7864-7.1643 3.0455c.602 1.5034 1.3335 2.687 1.8037 3.3708.2677.3895.7803.4973 1.1985.277 1.0851-.5717 2.0442-1.0309 3.1827-1.7254 2.0403-1.2445 1.7839-2.567 1.6628-3.2643-.1049-.604-.4915-1.3224-.6834-1.7036z" fill="url(#O)"/><path d="m18.7597 15.58s-4.6314 1.7864-7.1643 3.0455c.602 1.5034 1.3335 2.687 1.8037 3.3708.2677.3895.7803.4973 1.1985.277 1.0851-.5717 2.0442-1.0309 3.1827-1.7254 2.0403-1.2445 1.7839-2.567 1.6628-3.2643-.1049-.604-.4915-1.3224-.6834-1.7036z" fill="url(#P)"/><path d="m18.7597 15.58s-4.6314 1.7864-7.1643 3.0455c.602 1.5034 1.3335 2.687 1.8037 3.3708.2677.3895.7803.4973 1.1985.277 1.0851-.5717 2.0442-1.0309 3.1827-1.7254 2.0403-1.2445 1.7839-2.567 1.6628-3.2643-.1049-.604-.4915-1.3224-.6834-1.7036z" fill="url(#Q)"/><g filter="url(#b)"><path clip-rule="evenodd" d="m24.7757 3.43973c.612.16979.9705.80357.8007 1.41558l-.809 2.91592c-.4213 1.51879-1.6667 2.66777-3.2145 2.96577l-4.2319.8146c-.6237.1201-1.2266-.2882-1.3467-.9119-.12-.6236.2882-1.22654.9119-1.3466l4.232-.81466c.6899-.13282 1.2451-.64503 1.4329-1.32208l.809-2.91592c.1698-.61201.8036-.9705 1.4156-.80071z" fill="#493030" fill-rule="evenodd"/></g><path clip-rule="evenodd" d="m24.7757 3.43973c.612.16979.9705.80357.8007 1.41558l-.809 2.91592c-.4213 1.51879-1.6667 2.66777-3.2145 2.96577l-4.2319.8146c-.6237.1201-1.2266-.2882-1.3467-.9119-.12-.6236.2882-1.22654.9119-1.3466l4.232-.81466c.6899-.13282 1.2451-.64503 1.4329-1.32208l.809-2.91592c.1698-.61201.8036-.9705 1.4156-.80071z" fill="url(#R)" fill-rule="evenodd"/><path clip-rule="evenodd" d="m24.7757 3.43973c.612.16979.9705.80357.8007 1.41558l-.809 2.91592c-.4213 1.51879-1.6667 2.66777-3.2145 2.96577l-4.2319.8146c-.6237.1201-1.2266-.2882-1.3467-.9119-.12-.6236.2882-1.22654.9119-1.3466l4.232-.81466c.6899-.13282 1.2451-.64503 1.4329-1.32208l.809-2.91592c.1698-.61201.8036-.9705 1.4156-.80071z" fill="url(#S)" fill-rule="evenodd"/><path d="m20.192 11.564-.6092-2.96118-3.0058.59643c-.7925.15727-1.3132.92015-1.1709 1.71545.1442.8063.9148 1.3429 1.721 1.1984z" fill="#ff832d"/><path d="m20.192 11.564-.6092-2.96118-3.0058.59643c-.7925.15727-1.3132.92015-1.1709 1.71545.1442.8063.9148 1.3429 1.721 1.1984z" fill="url(#T)"/><path d="m20.192 11.564-.6092-2.96118-3.0058.59643c-.7925.15727-1.3132.92015-1.1709 1.71545.1442.8063.9148 1.3429 1.721 1.1984z" fill="url(#U)"/><path d="m20.192 11.564-.6092-2.96118-3.0058.59643c-.7925.15727-1.3132.92015-1.1709 1.71545.1442.8063.9148 1.3429 1.721 1.1984z" fill="url(#V)"/><rect fill="url(#W)" height="1.362" rx=".2" transform="matrix(.96024157 .27917044 -.27917044 .96024157 2.408242 -6.194051)" width="2.533" x="22.95" y="5.358"/><path d="m5.08398 11.524c0-.243.19702-.44.44005-.44h1.37352c.11233 0 .53995.0078.89933.1469l.10937.3399-.40324.3933h-1.97898c-.24303 0-.44005-.197-.44005-.4401z" fill="url(#Y)"/><path d="m5.08398 11.524c0-.243.19702-.44.44005-.44h1.37352c.11233 0 .53995.0078.89933.1469l.10937.3399-.40324.3933h-1.97898c-.24303 0-.44005-.197-.44005-.4401z" fill="url(#aa)"/><path d="m4.51172 11.964c0-.2431.19701-.4401.44005-.4401h1.97898v.8801h-1.97898c-.24304 0-.44005-.197-.44005-.44z" fill="url(#ab)"/><path d="m4.51172 11.964c0-.2431.19701-.4401.44005-.4401h1.97898v.8801h-1.97898c-.24304 0-.44005-.197-.44005-.44z" fill="url(#ac)"/><path d="m4.95459 12.5472c0-.243.19702-.44.44005-.44h1.53611v.4801c0 .2209-.17908.4-.4.4h-1.13611c-.24303 0-.44005-.197-.44005-.4401z" fill="url(#ad)"/><path d="m4.95459 12.5472c0-.243.19702-.44.44005-.44h1.53611v.4801c0 .2209-.17908.4-.4.4h-1.13611c-.24303 0-.44005-.197-.44005-.4401z" fill="url(#ae)"/><path d="m8.28846 11.5536c.04862-.0936.16115-.1334.25704-.0894.24415.1118.69457.3246.97413.4959.08417.0516.10785.1595.06099.2463l-1.02813 1.9061c-.0437.081-.13666.1213-.22374.0914-.2033-.0698-.58646-.2231-.97417-.495-.0791-.0555-.10197-.1614-.05743-.2471z" fill="#c8621d"/><path d="m25.013 4.09108c0 1.13909-.9235 2.06251-2.0625 2.06251-1.1391 0-2.0626-.92342-2.0626-2.06251 0-1.1391.9235-2.06252 2.0626-2.06252 1.139 0 2.0625.92342 2.0625 2.06252z" fill="url(#af)"/><path d="m25.013 4.09108c0 1.13909-.9235 2.06251-2.0625 2.06251-1.1391 0-2.0626-.92342-2.0626-2.06251 0-1.1391.9235-2.06252 2.0626-2.06252 1.139 0 2.0625.92342 2.0625 2.06252z" fill="url(#ag)"/><path d="m25.013 4.09108c0 1.13909-.9235 2.06251-2.0625 2.06251-1.1391 0-2.0626-.92342-2.0626-2.06251 0-1.1391.9235-2.06252 2.0626-2.06252 1.139 0 2.0625.92342 2.0625 2.06252z" fill="url(#ah)"/><path d="m25.013 4.09108c0 1.13909-.9235 2.06251-2.0625 2.06251-1.1391 0-2.0626-.92342-2.0626-2.06251 0-1.1391.9235-2.06252 2.0626-2.06252 1.139 0 2.0625.92342 2.0625 2.06252z" fill="url(#ai)"/><path d="m25.013 4.09108c0 1.13909-.9235 2.06251-2.0625 2.06251-1.1391 0-2.0626-.92342-2.0626-2.06251 0-1.1391.9235-2.06252 2.0626-2.06252 1.139 0 2.0625.92342 2.0625 2.06252z" fill="url(#aj)"/><g filter="url(#c)"><rect fill="#574545" height=".199" rx=".099" width="1.465" x="5.324" y="12.239"/></g><g filter="url(#d)"><rect fill="#574545" height=".266" rx=".133" width="1.906" x="4.84" y="11.641"/></g><path d="m12.3051 6.51112c.1675-.15743.2541-.39218.2764-.48988h.1926v1.20585c-.2303.14655-.5596.1235-.6574-.0963-.0838-.18841-.0209-.42288.1884-.61967z" fill="url(#ak)"/><g filter="url(#e)"><path d="m12.5451 5.478c.0413-.85877.3195-1.27272.4505-1.39377h4.0005l.067 3.39096c-.9288 2.27427-3.7638 2.37175-4.1872 1.54919-.4234-.82257-.3786-2.55214-.3308-3.54638z" fill="url(#al)"/><path d="m12.5451 5.478c.0413-.85877.3195-1.27272.4505-1.39377h4.0005l.067 3.39096c-.9288 2.27427-3.7638 2.37175-4.1872 1.54919-.4234-.82257-.3786-2.55214-.3308-3.54638z" fill="url(#am)"/><path d="m12.5451 5.478c.0413-.85877.3195-1.27272.4505-1.39377h4.0005l.067 3.39096c-.9288 2.27427-3.7638 2.37175-4.1872 1.54919-.4234-.82257-.3786-2.55214-.3308-3.54638z" fill="url(#an)"/><path d="m12.5451 5.478c.0413-.85877.3195-1.27272.4505-1.39377h4.0005l.067 3.39096c-.9288 2.27427-3.7638 2.37175-4.1872 1.54919-.4234-.82257-.3786-2.55214-.3308-3.54638z" fill="url(#ao)"/></g><g filter="url(#f)"><path d="m12.707 2.95634c.2546-.52253.7571-.63592 1.0551-.61967.9212.05024 1.0468.36846 1.88.19679.8806-.18143 1.3149-.12926 1.6915.04187l.0074.0034c.3716.16874 1.14.51776 1.14 2.0901 0 1.44869-.5166 2.21352-.7664 2.48707l.049.0177c.2482.08967.3506.35372.261.60197-.0764.21172-.3447.3337-.6825.28053-.386-.06077-.6693-.11344-.8916-.15757-.1247-.02475-.2139-.13461-.2139-.26174v-1.19268c0-.50244-.3544-.80251-.5107-.89183-.0167-.51919-.1758-.75784-.4354-.88345-.4299-.20801-.5637-.10509-1.5911-.16748-1.0343-.06281-1.3106-.89183-.9924-1.54501z" fill="url(#ap)"/><path d="m12.707 2.95634c.2546-.52253.7571-.63592 1.0551-.61967.9212.05024 1.0468.36846 1.88.19679.8806-.18143 1.3149-.12926 1.6915.04187l.0074.0034c.3716.16874 1.14.51776 1.14 2.0901 0 1.44869-.5166 2.21352-.7664 2.48707l.049.0177c.2482.08967.3506.35372.261.60197-.0764.21172-.3447.3337-.6825.28053-.386-.06077-.6693-.11344-.8916-.15757-.1247-.02475-.2139-.13461-.2139-.26174v-1.19268c0-.50244-.3544-.80251-.5107-.89183-.0167-.51919-.1758-.75784-.4354-.88345-.4299-.20801-.5637-.10509-1.5911-.16748-1.0343-.06281-1.3106-.89183-.9924-1.54501z" fill="url(#aq)"/><path d="m12.707 2.95634c.2546-.52253.7571-.63592 1.0551-.61967.9212.05024 1.0468.36846 1.88.19679.8806-.18143 1.3149-.12926 1.6915.04187l.0074.0034c.3716.16874 1.14.51776 1.14 2.0901 0 1.44869-.5166 2.21352-.7664 2.48707l.049.0177c.2482.08967.3506.35372.261.60197-.0764.21172-.3447.3337-.6825.28053-.386-.06077-.6693-.11344-.8916-.15757-.1247-.02475-.2139-.13461-.2139-.26174v-1.19268c0-.50244-.3544-.80251-.5107-.89183-.0167-.51919-.1758-.75784-.4354-.88345-.4299-.20801-.5637-.10509-1.5911-.16748-1.0343-.06281-1.3106-.89183-.9924-1.54501z" fill="url(#ar)"/><path d="m12.707 2.95634c.2546-.52253.7571-.63592 1.0551-.61967.9212.05024 1.0468.36846 1.88.19679.8806-.18143 1.3149-.12926 1.6915.04187l.0074.0034c.3716.16874 1.14.51776 1.14 2.0901 0 1.44869-.5166 2.21352-.7664 2.48707l.049.0177c.2482.08967.3506.35372.261.60197-.0764.21172-.3447.3337-.6825.28053-.386-.06077-.6693-.11344-.8916-.15757-.1247-.02475-.2139-.13461-.2139-.26174v-1.19268c0-.50244-.3544-.80251-.5107-.89183-.0167-.51919-.1758-.75784-.4354-.88345-.4299-.20801-.5637-.10509-1.5911-.16748-1.0343-.06281-1.3106-.89183-.9924-1.54501z" fill="url(#as)"/></g><path d="m15.5151 7.03679.2138-1.54289c.375.05608.6626.37954.6626.77017 0 .43011-.3486.77878-.7787.77878-.0331 0-.0657-.00206-.0977-.00606z" fill="url(#at)"/><path d="m15.5151 7.03679.2138-1.54289c.375.05608.6626.37954.6626.77017 0 .43011-.3486.77878-.7787.77878-.0331 0-.0657-.00206-.0977-.00606z" fill="url(#au)"/><path clip-rule="evenodd" d="m13.887 7.52257c.0519.05282.051.13765-.0018.18947-.2552.25043-.6243.31451-.7417.32655-.0736.00755-.1394-.046-.1469-.11961-.0076-.07361.046-.13941.1196-.14696.1003-.01029.3928-.06623.5814-.25125.0528-.05183.1376-.05102.1894.0018z" fill="#280017" fill-rule="evenodd"/><g filter="url(#g)"><path clip-rule="evenodd" d="m13.6374 5.22197c-.1076-.02159-.1966-.02121-.2323-.01674-.0881.01101-.1685-.05149-.1795-.1396s.0515-.16847.1396-.17948c.0759-.00949.2001-.0066.3354.02053.1364.02734.2972.08186.4375.18557.0714.05278.0865.15345.0337.22486s-.1534.08651-.2248.03373c-.0909-.06712-.203-.10751-.3096-.12887z" fill="#2c2929" fill-rule="evenodd"/></g><path d="m13.0881 6.32903h1.0593c0-.4197-.2371-.75994-.5296-.75994s-.5297.34024-.5297.75994z" fill="#fff"/><path d="m13.7369 6.32908v-.00419c0-.34339-.1471-.62177-.3286-.62177-.1816 0-.3287.27838-.3287.62177v.00419z" fill="url(#av)"/><path d="m13.5275 6.3289c.0029-.02495.0044-.05087.0044-.07746 0-.19887-.0844-.36008-.1885-.36008-.104 0-.1884.16121-.1884.36008 0 .02659.0015.05251.0044.07746z" fill="url(#aw)"/><ellipse cx="13.274" cy="5.952" fill="url(#ax)" rx=".069" ry=".094" transform="matrix(.90916271 .41644106 -.41644106 .90916271 3.684488 -4.987294)"/><g filter="url(#h)"><path d="m16.7942 4.32175c.167.68144.2644 1.33422.2968 1.63045.6766-.6194.9322-1.38006.9952-2.00631.0537-.53422-.6166-.8114-1.0711-.52545-.3281.20647-.3132.52477-.2209.90131z" fill="url(#ay)"/></g></svg>