<svg fill="none" height="32" viewBox="0 0 32 32" width="32" xmlns="http://www.w3.org/2000/svg" xmlns:xlink="http://www.w3.org/1999/xlink"><filter id="a" color-interpolation-filters="sRGB" filterUnits="userSpaceOnUse" height="21.793" width="15.887" x="1.113" y="8.146"><feFlood flood-opacity="0" result="BackgroundImageFix"/><feBlend in="SourceGraphic" in2="BackgroundImageFix" mode="normal" result="shape"/><feColorMatrix in="SourceAlpha" result="hardAlpha" type="matrix" values="0 0 0 0 0 0 0 0 0 0 0 0 0 0 0 0 0 0 127 0"/><feOffset dx="1" dy="-1"/><feGaussianBlur stdDeviation="1.25"/><feComposite in2="hardAlpha" k2="-1" k3="1" operator="arithmetic"/><feColorMatrix type="matrix" values="0 0 0 0 0.243137 0 0 0 0 0.133333 0 0 0 0 0.223529 0 0 0 1 0"/><feBlend in2="shape" mode="normal" result="effect1_innerShadow_20020_3855"/><feColorMatrix in="SourceAlpha" result="hardAlpha" type="matrix" values="0 0 0 0 0 0 0 0 0 0 0 0 0 0 0 0 0 0 127 0"/><feOffset dx=".1" dy="-.1"/><feGaussianBlur stdDeviation=".5"/><feComposite in2="hardAlpha" k2="-1" k3="1" operator="arithmetic"/><feColorMatrix type="matrix" values="0 0 0 0 0.313726 0 0 0 0 0.239216 0 0 0 0 0.235294 0 0 0 1 0"/><feBlend in2="effect1_innerShadow_20020_3855" mode="normal" result="effect2_innerShadow_20020_3855"/></filter><filter id="b" color-interpolation-filters="sRGB" filterUnits="userSpaceOnUse" height="10.003" width="2.833" x="4.201" y="11.249"><feFlood flood-opacity="0" result="BackgroundImageFix"/><feBlend in="SourceGraphic" in2="BackgroundImageFix" mode="normal" result="shape"/><feGaussianBlur result="effect1_foregroundBlur_20020_3855" stdDeviation=".25"/></filter><filter id="c" color-interpolation-filters="sRGB" filterUnits="userSpaceOnUse" height="9.793" width="2.063" x="7.663" y="9.593"><feFlood flood-opacity="0" result="BackgroundImageFix"/><feBlend in="SourceGraphic" in2="BackgroundImageFix" mode="normal" result="shape"/><feGaussianBlur result="effect1_foregroundBlur_20020_3855" stdDeviation=".25"/></filter><filter id="d" color-interpolation-filters="sRGB" filterUnits="userSpaceOnUse" height="16.977" width="6.045" x="10.723" y="12.614"><feFlood flood-opacity="0" result="BackgroundImageFix"/><feBlend in="SourceGraphic" in2="BackgroundImageFix" mode="normal" result="shape"/><feGaussianBlur result="effect1_foregroundBlur_20020_3855" stdDeviation=".625"/></filter><filter id="e" color-interpolation-filters="sRGB" filterUnits="userSpaceOnUse" height="5.166" width="11.477" x="4.28" y="17.16"><feFlood flood-opacity="0" result="BackgroundImageFix"/><feBlend in="SourceGraphic" in2="BackgroundImageFix" mode="normal" result="shape"/><feGaussianBlur result="effect1_foregroundBlur_20020_3855" stdDeviation=".625"/></filter><filter id="f" color-interpolation-filters="sRGB" filterUnits="userSpaceOnUse" height="10.182" width="7.738" x=".766" y="16.031"><feFlood flood-opacity="0" result="BackgroundImageFix"/><feBlend in="SourceGraphic" in2="BackgroundImageFix" mode="normal" result="shape"/><feGaussianBlur result="effect1_foregroundBlur_20020_3855" stdDeviation="1"/></filter><filter id="g" color-interpolation-filters="sRGB" filterUnits="userSpaceOnUse" height="2.673" width="2.012" x="5.305" y="18.335"><feFlood flood-opacity="0" result="BackgroundImageFix"/><feBlend in="SourceGraphic" in2="BackgroundImageFix" mode="normal" result="shape"/><feGaussianBlur result="effect1_foregroundBlur_20020_3855" stdDeviation=".125"/></filter><filter id="h" color-interpolation-filters="sRGB" filterUnits="userSpaceOnUse" height="1.594" width="2.609" x="7.375" y="18.159"><feFlood flood-opacity="0" result="BackgroundImageFix"/><feBlend in="SourceGraphic" in2="BackgroundImageFix" mode="normal" result="shape"/><feGaussianBlur result="effect1_foregroundBlur_20020_3855" stdDeviation=".125"/></filter><filter id="i" color-interpolation-filters="sRGB" filterUnits="userSpaceOnUse" height="1.381" width="3.141" x="9.844" y="18.596"><feFlood flood-opacity="0" result="BackgroundImageFix"/><feBlend in="SourceGraphic" in2="BackgroundImageFix" mode="normal" result="shape"/><feGaussianBlur result="effect1_foregroundBlur_20020_3855" stdDeviation=".125"/></filter><filter id="j" color-interpolation-filters="sRGB" filterUnits="userSpaceOnUse" height="21.293" width="15.887" x="16" y="8.646"><feFlood flood-opacity="0" result="BackgroundImageFix"/><feBlend in="SourceGraphic" in2="BackgroundImageFix" mode="normal" result="shape"/><feColorMatrix in="SourceAlpha" result="hardAlpha" type="matrix" values="0 0 0 0 0 0 0 0 0 0 0 0 0 0 0 0 0 0 127 0"/><feOffset dx="1" dy="-.5"/><feGaussianBlur stdDeviation="1.25"/><feComposite in2="hardAlpha" k2="-1" k3="1" operator="arithmetic"/><feColorMatrix type="matrix" values="0 0 0 0 0.235294 0 0 0 0 0.133333 0 0 0 0 0.176471 0 0 0 1 0"/><feBlend in2="shape" mode="normal" result="effect1_innerShadow_20020_3855"/><feColorMatrix in="SourceAlpha" result="hardAlpha" type="matrix" values="0 0 0 0 0 0 0 0 0 0 0 0 0 0 0 0 0 0 127 0"/><feOffset dx=".1" dy="-.1"/><feGaussianBlur stdDeviation=".5"/><feComposite in2="hardAlpha" k2="-1" k3="1" operator="arithmetic"/><feColorMatrix type="matrix" values="0 0 0 0 0.117647 0 0 0 0 0.0431373 0 0 0 0 0.0470588 0 0 0 1 0"/><feBlend in2="effect1_innerShadow_20020_3855" mode="normal" result="effect2_innerShadow_20020_3855"/></filter><filter id="k" color-interpolation-filters="sRGB" filterUnits="userSpaceOnUse" height="9.438" width="5.961" x="24.297" y="16.565"><feFlood flood-opacity="0" result="BackgroundImageFix"/><feBlend in="SourceGraphic" in2="BackgroundImageFix" mode="normal" result="shape"/><feGaussianBlur result="effect1_foregroundBlur_20020_3855" stdDeviation=".75"/></filter><filter id="l" color-interpolation-filters="sRGB" filterUnits="userSpaceOnUse" height="8.845" width="2.219" x="17.359" y="12.969"><feFlood flood-opacity="0" result="BackgroundImageFix"/><feBlend in="SourceGraphic" in2="BackgroundImageFix" mode="normal" result="shape"/><feGaussianBlur result="effect1_foregroundBlur_20020_3855" stdDeviation=".25"/></filter><filter id="m" color-interpolation-filters="sRGB" filterUnits="userSpaceOnUse" height="9.236" width="2.219" x="20.351" y="10.829"><feFlood flood-opacity="0" result="BackgroundImageFix"/><feBlend in="SourceGraphic" in2="BackgroundImageFix" mode="normal" result="shape"/><feGaussianBlur result="effect1_foregroundBlur_20020_3855" stdDeviation=".25"/></filter><filter id="n" color-interpolation-filters="sRGB" filterUnits="userSpaceOnUse" height="6.468" width="12.094" x="15.766" y="17.065"><feFlood flood-opacity="0" result="BackgroundImageFix"/><feBlend in="SourceGraphic" in2="BackgroundImageFix" mode="normal" result="shape"/><feGaussianBlur result="effect1_foregroundBlur_20020_3855" stdDeviation=".625"/></filter><linearGradient id="o" gradientUnits="userSpaceOnUse" x1="2.444" x2="4.561" y1="16.976" y2="16.909"><stop offset="0" stop-color="#2d1817"/><stop offset="1" stop-color="#2d1817" stop-opacity="0"/></linearGradient><linearGradient id="p" gradientUnits="userSpaceOnUse" x1="7.875" x2="6.183" y1="16.206" y2="16.43"><stop offset="0" stop-color="#361f1d"/><stop offset="1" stop-color="#361f1d" stop-opacity="0"/></linearGradient><radialGradient id="q" cx="0" cy="0" gradientTransform="matrix(.8125004 -.14062462 .68201696 3.94055499 4.75 19.2991)" gradientUnits="userSpaceOnUse" r="1"><stop offset="0" stop-color="#2c1715"/><stop offset="1" stop-color="#2c1715" stop-opacity="0"/></radialGradient><radialGradient id="r" cx="0" cy="0" gradientTransform="matrix(-.93245158 2.0715103 -1.98394279 -.8930347 5.72149 10.8554)" gradientUnits="userSpaceOnUse" r="1"><stop offset="0" stop-color="#47322e"/><stop offset="1" stop-color="#47322e" stop-opacity="0"/></radialGradient><linearGradient id="s"><stop offset="0" stop-color="#51393a"/><stop offset="1" stop-color="#51393a" stop-opacity="0"/></linearGradient><linearGradient id="t" gradientUnits="userSpaceOnUse" x1="7.106" x2="5.649" xlink:href="#s" y1="19.599" y2="18.866"/><linearGradient id="u"><stop offset="0" stop-color="#26100f"/><stop offset="1" stop-color="#26100f" stop-opacity="0"/></linearGradient><linearGradient id="v" gradientUnits="userSpaceOnUse" x1="6.193" x2="7.966" xlink:href="#u" y1="14.519" y2="14.479"/><linearGradient id="w" gradientUnits="userSpaceOnUse" x1="10.373" x2="8.922" y1="14.479" y2="14.479"><stop offset="0" stop-color="#37201c"/><stop offset="1" stop-color="#37201c" stop-opacity="0"/></linearGradient><linearGradient id="x" gradientUnits="userSpaceOnUse" x1="8.146" x2="7.966" xlink:href="#s" y1="18.528" y2="16.841"/><radialGradient id="y" cx="0" cy="0" gradientTransform="matrix(-1.42842962 2.26296111 -3.53767369 -2.23305555 9.39486 9.14557)" gradientUnits="userSpaceOnUse" r="1"><stop offset="0" stop-color="#654f4b"/><stop offset="1" stop-color="#654f4b" stop-opacity="0"/></radialGradient><linearGradient id="z" gradientUnits="userSpaceOnUse" x1="9.604" x2="11.048" y1="16.065" y2="16.068"><stop offset="0" stop-color="#2f1516"/><stop offset="1" stop-color="#2f1516" stop-opacity="0"/></linearGradient><linearGradient id="A" gradientUnits="userSpaceOnUse" x1="13.614" x2="12.222" y1="16.065" y2="16.065"><stop offset="0" stop-color="#351e1d"/><stop offset="1" stop-color="#351e1d" stop-opacity="0"/></linearGradient><linearGradient id="B" gradientUnits="userSpaceOnUse" x1="10.947" x2="11.284" y1="20.114" y2="17.513"><stop offset=".329" stop-color="#51393a"/><stop offset="1" stop-color="#51393a" stop-opacity="0"/></linearGradient><radialGradient id="C" cx="0" cy="0" gradientTransform="matrix(-1.37017747 2.25576271 -1.3701804 -.83226409 12.6752 10.7487)" gradientUnits="userSpaceOnUse" r="1"><stop offset="0" stop-color="#5f4744"/><stop offset="1" stop-color="#5f4744" stop-opacity="0"/></radialGradient><linearGradient id="D" gradientUnits="userSpaceOnUse" x1="12.012" x2="14.299" y1="18.239" y2="18.177"><stop offset="0" stop-color="#2c1414"/><stop offset="1" stop-color="#2c1414" stop-opacity="0"/></linearGradient><linearGradient id="E" gradientUnits="userSpaceOnUse" x1="16.608" x2="15.216" y1="18.172" y2="18.172"><stop offset="0" stop-color="#402725"/><stop offset="1" stop-color="#402725" stop-opacity="0"/></linearGradient><radialGradient id="F" cx="0" cy="0" gradientTransform="matrix(2.46530988 -1.93708301 3.03113403 3.85769976 12.5982 20.8701)" gradientUnits="userSpaceOnUse" r="1"><stop offset=".34" stop-color="#51393a"/><stop offset="1" stop-color="#51393a" stop-opacity="0"/></radialGradient><radialGradient id="G" cx="0" cy="0" gradientTransform="matrix(-1.58526249 2.25576774 -1.30626534 -.91799054 15.8844 12.8552)" gradientUnits="userSpaceOnUse" r="1"><stop offset="0" stop-color="#5b4642"/><stop offset="1" stop-color="#5b4642" stop-opacity="0"/></radialGradient><radialGradient id="H" cx="0" cy="0" gradientTransform="matrix(-2.21375021 .73405723 -1.32749894 -4.0034359 4.82812 18.3148)" gradientUnits="userSpaceOnUse" r="1"><stop offset=".007" stop-color="#634f4d"/><stop offset="1" stop-color="#634f4d" stop-opacity="0"/></radialGradient><radialGradient id="I" cx="0" cy="0" gradientTransform="matrix(2.66567356 -2.49056039 5.59099612 5.98410324 1.5053 20.0606)" gradientUnits="userSpaceOnUse" r="1"><stop offset=".615" stop-color="#503430" stop-opacity="0"/><stop offset="1" stop-color="#503430"/></radialGradient><linearGradient id="J" gradientUnits="userSpaceOnUse" x1="5.331" x2="6.978" y1="12.202" y2="21.89"><stop offset="0" stop-color="#634f4d"/><stop offset="1" stop-color="#604e4c" stop-opacity="0"/></linearGradient><linearGradient id="K" gradientUnits="userSpaceOnUse" x1="8.695" x2="10.188" y1="9.904" y2="17.956"><stop offset="0" stop-color="#634f4c"/><stop offset="1" stop-color="#634f4c" stop-opacity="0"/></linearGradient><linearGradient id="L" gradientUnits="userSpaceOnUse" x1="15.875" x2="12.598" y1="15.534" y2="27.346"><stop offset="0" stop-color="#63504e"/><stop offset="1" stop-color="#63504e" stop-opacity="0"/></linearGradient><linearGradient id="M" gradientUnits="userSpaceOnUse" x1="13.883" x2="5.886" y1="20.148" y2="19.743"><stop offset="0" stop-color="#5b4545"/><stop offset="1" stop-color="#5b4545" stop-opacity="0"/></linearGradient><linearGradient id="N"><stop offset="0" stop-color="#5d4a49"/><stop offset="1" stop-color="#5d4a49" stop-opacity="0"/></linearGradient><linearGradient id="O" gradientUnits="userSpaceOnUse" x1="7.129" x2="6.894" xlink:href="#N" y1="18.562" y2="20.983"/><linearGradient id="P" gradientUnits="userSpaceOnUse" x1="9.656" x2="9.715" xlink:href="#N" y1="18.534" y2="18.76"/><linearGradient id="Q" gradientUnits="userSpaceOnUse" x1="12.719" x2="12.513" xlink:href="#N" y1="19.659" y2="20.131"/><radialGradient id="R" cx="0" cy="0" gradientTransform="matrix(-1.99618396 1.49687137 -.76416889 -1.01907332 30.8868 18.0451)" gradientUnits="userSpaceOnUse" r="1"><stop offset="0" stop-color="#65514f"/><stop offset=".767" stop-color="#65514f" stop-opacity="0"/></radialGradient><radialGradient id="S" cx="0" cy="0" gradientTransform="matrix(11.59374184 4.06250147 -5.91453441 16.87915329 18.7969 19.2523)" gradientUnits="userSpaceOnUse" r="1"><stop offset=".862" stop-color="#503737" stop-opacity="0"/><stop offset="1" stop-color="#503737"/></radialGradient><linearGradient id="T" gradientUnits="userSpaceOnUse" x1="24.703" x2="27.089" y1="16.221" y2="16.706"><stop offset="0" stop-color="#301a1b"/><stop offset="1" stop-color="#301a1b" stop-opacity="0"/></linearGradient><linearGradient id="U"><stop offset="0" stop-color="#4d3537"/><stop offset="1" stop-color="#4d3537" stop-opacity="0"/></linearGradient><linearGradient id="V" gradientUnits="userSpaceOnUse" x1="26.047" x2="26.672" xlink:href="#U" y1="19.252" y2="17.221"/><radialGradient id="W" cx="0" cy="0" gradientTransform="matrix(-1.65028027 .99464866 -.83491433 -1.38525563 29.0999 11.89)" gradientUnits="userSpaceOnUse" r="1"><stop offset="0" stop-color="#675250"/><stop offset="1" stop-color="#675250" stop-opacity="0"/></radialGradient><linearGradient id="X" gradientUnits="userSpaceOnUse" x1="28.672" x2="27.266" y1="17.08" y2="17.002"><stop offset="0" stop-color="#573f3b"/><stop offset="1" stop-color="#573f3b" stop-opacity="0"/></linearGradient><radialGradient id="Y" cx="0" cy="0" gradientTransform="matrix(-.5231207 2.99392178 -1.25345996 -.21901402 27.6124 19.4614)" gradientUnits="userSpaceOnUse" r="1"><stop offset="0" stop-color="#231114"/><stop offset="1" stop-color="#231114" stop-opacity="0"/></radialGradient><linearGradient id="Z" gradientUnits="userSpaceOnUse" x1="21.704" x2="24.379" y1="14.015" y2="14.015"><stop offset="0" stop-color="#311c19"/><stop offset="1" stop-color="#311c19" stop-opacity="0"/></linearGradient><linearGradient id="aa" gradientUnits="userSpaceOnUse" x1="26.234" x2="24.922" y1="14.284" y2="14.19"><stop offset="0" stop-color="#2d1415"/><stop offset="1" stop-color="#2d1415" stop-opacity="0"/></linearGradient><linearGradient id="ab" gradientUnits="userSpaceOnUse" x1="23.293" x2="23.293" xlink:href="#U" y1="18.397" y2="16.015"/><radialGradient id="ac" cx="0" cy="0" gradientTransform="matrix(-1.9103972 1.45891901 -.88698872 -1.16147693 25.8068 9.61383)" gradientUnits="userSpaceOnUse" r="1"><stop offset="0" stop-color="#66514f"/><stop offset="1" stop-color="#66514f" stop-opacity="0"/></radialGradient><linearGradient id="ad" gradientUnits="userSpaceOnUse" x1="18.46" x2="21.026" xlink:href="#u" y1="15.603" y2="15.603"/><linearGradient id="ae" gradientUnits="userSpaceOnUse" x1="19.984" x2="19.984" xlink:href="#U" y1="19.971" y2="17.596"/><radialGradient id="af" cx="0" cy="0" gradientTransform="matrix(-1.31885238 1.45893727 -.94062504 -.85030769 22.0139 11.3551)" gradientUnits="userSpaceOnUse" r="1"><stop offset="0" stop-color="#614e4c"/><stop offset="1" stop-color="#614e4c" stop-opacity="0"/></radialGradient><radialGradient id="ag" cx="0" cy="0" gradientTransform="matrix(-1.27068 1.29422762 -.92671847 -.90985743 19.1431 13.473)" gradientUnits="userSpaceOnUse" r="1"><stop offset="0" stop-color="#624f4d"/><stop offset="1" stop-color="#624f4d" stop-opacity="0"/></radialGradient><radialGradient id="ah" cx="0" cy="0" gradientTransform="matrix(1.48246549 .54121771 -1.46811954 4.02136976 26.5554 19.6617)" gradientUnits="userSpaceOnUse" r="1"><stop offset="0" stop-color="#291616"/><stop offset="1" stop-color="#291616" stop-opacity="0"/></radialGradient><linearGradient id="ai" gradientUnits="userSpaceOnUse" x1="18.308" x2="19.096" y1="14.216" y2="23.089"><stop offset="0" stop-color="#604c4a"/><stop offset="1" stop-color="#604c4a" stop-opacity="0"/></linearGradient><linearGradient id="aj" gradientUnits="userSpaceOnUse" x1="21.3" x2="22.088" y1="12.075" y2="20.948"><stop offset="0" stop-color="#604d4b"/><stop offset="1" stop-color="#604d4b" stop-opacity="0"/></linearGradient><linearGradient id="ak" gradientUnits="userSpaceOnUse" x1="25.984" x2="17.334" y1="21.076" y2="20.829"><stop offset="0" stop-color="#594645"/><stop offset="1" stop-color="#594645" stop-opacity="0"/></linearGradient><g filter="url(#a)"><path d="m6.19324 10.9188c0-.97935.79388-1.77323 1.77319-1.77323s1.77319.79388 1.77319 1.77323v.7389c.25925-.5661.86248-.909 1.56538-.909.9394 0 1.7009.7615 1.7009 1.7009v.9157c.3119-.3242.7756-.5101 1.2932-.5101.9394 0 1.7009.7615 1.7009 1.7008v8.1963c0 2.1177-.6563 3.498-1.0213 3.9792-1.0857 1.9148-3.1423 3.2069-5.50073 3.2069-.21552 0-.42856-.0108-.63852-.0319-2.4683-.1609-3.88385-1.3957-4.82383-2.5761-.85937-1.1406-1.59374-3.0117-1.82031-3.6641l.00257-.0117c-.27613-.7814-1.01044-3.0719-1.08387-4.7891-.00055-.0185-.00082-.037-.00082-.0555 0-1.0236.82977-1.8534 1.85336-1.8534.0828 0 .16431.0054.24423.016l-.30587-4.1451c-.07083-.9598.64984-1.7954 1.60968-1.8662.71905-.0531 1.36838.3381 1.67865.9413z" fill="#523839"/></g><path d="m4.5146 10.9613c-.95984.0708-1.68051.9063-1.60968 1.8662l.30588 4.145c.79971.1053 1.43878.7205 1.57998 1.5083l.00205-.0002.78529 3.9748c.40626-.1719 1.67188-.875 1.26296-3.6471l-.4603-6.2373c-.07083-.9599-.90637-1.6805-1.86618-1.6097z" fill="url(#o)"/><path d="m4.5146 10.9613c-.95984.0708-1.68051.9063-1.60968 1.8662l.30588 4.145c.79971.1053 1.43878.7205 1.57998 1.5083l.00205-.0002.78529 3.9748c.40626-.1719 1.67188-.875 1.26296-3.6471l-.4603-6.2373c-.07083-.9599-.90637-1.6805-1.86618-1.6097z" fill="url(#p)"/><path d="m4.5146 10.9613c-.95984.0708-1.68051.9063-1.60968 1.8662l.30588 4.145c.79971.1053 1.43878.7205 1.57998 1.5083l.00205-.0002.78529 3.9748c.40626-.1719 1.67188-.875 1.26296-3.6471l-.4603-6.2373c-.07083-.9599-.90637-1.6805-1.86618-1.6097z" fill="url(#q)"/><path d="m4.5146 10.9613c-.95984.0708-1.68051.9063-1.60968 1.8662l.30588 4.145c.79971.1053 1.43878.7205 1.57998 1.5083l.00205-.0002.78529 3.9748c.40626-.1719 1.67188-.875 1.26296-3.6471l-.4603-6.2373c-.07083-.9599-.90637-1.6805-1.86618-1.6097z" fill="url(#r)"/><path d="m4.5146 10.9613c-.95984.0708-1.68051.9063-1.60968 1.8662l.30588 4.145c.79971.1053 1.43878.7205 1.57998 1.5083l.00205-.0002.78529 3.9748c.40626-.1719 1.67188-.875 1.26296-3.6471l-.4603-6.2373c-.07083-.9599-.90637-1.6805-1.86618-1.6097z" fill="url(#t)"/><path d="m6.19324 10.9188c0-.97935.79388-1.77323 1.77319-1.77323s1.77319.79388 1.77319 1.77323v.7389c-.08725.1905-.13552.4063-.13552.6428v5.4926c-.267.6413-.89969 1.0921-1.63767 1.0921-.43927 0-.84125-.1597-1.151-.4243l-.43466-5.8899c-.01776-.2408-.08365-.4665-.18753-.6684z" fill="url(#v)"/><path d="m6.19324 10.9188c0-.97935.79388-1.77323 1.77319-1.77323s1.77319.79388 1.77319 1.77323v.7389c-.08725.1905-.13552.4063-.13552.6428v5.4926c-.267.6413-.89969 1.0921-1.63767 1.0921-.43927 0-.84125-.1597-1.151-.4243l-.43466-5.8899c-.01776-.2408-.08365-.4665-.18753-.6684z" fill="url(#w)"/><path d="m6.19324 10.9188c0-.97935.79388-1.77323 1.77319-1.77323s1.77319.79388 1.77319 1.77323v.7389c-.08725.1905-.13552.4063-.13552.6428v5.4926c-.267.6413-.89969 1.0921-1.63767 1.0921-.43927 0-.84125-.1597-1.151-.4243l-.43466-5.8899c-.01776-.2408-.08365-.4665-.18753-.6684z" fill="url(#x)"/><path d="m6.19324 10.9188c0-.97935.79388-1.77323 1.77319-1.77323s1.77319.79388 1.77319 1.77323v.7389c-.08725.1905-.13552.4063-.13552.6428v5.4926c-.267.6413-.89969 1.0921-1.63767 1.0921-.43927 0-.84125-.1597-1.151-.4243l-.43466-5.8899c-.01776-.2408-.08365-.4665-.18753-.6684z" fill="url(#y)"/><path d="m11.305 10.7487c-.9394 0-1.7009.6124-1.7009 1.5518v6.456c0 .9394.7615 1.7009 1.7009 1.7009.5176 0 .9813-.2313 1.2932-.5961v-5.4543c0-.4218.1535-.7776.4077-1.0417v-.9157c0-.9394-.7615-1.7009-1.7009-1.7009z" fill="url(#z)"/><path d="m11.305 10.7487c-.9394 0-1.7009.6124-1.7009 1.5518v6.456c0 .9394.7615 1.7009 1.7009 1.7009.5176 0 .9813-.2313 1.2932-.5961v-5.4543c0-.4218.1535-.7776.4077-1.0417v-.9157c0-.9394-.7615-1.7009-1.7009-1.7009z" fill="url(#A)"/><path d="m11.305 10.7487c-.9394 0-1.7009.6124-1.7009 1.5518v6.456c0 .9394.7615 1.7009 1.7009 1.7009.5176 0 .9813-.2313 1.2932-.5961v-5.4543c0-.4218.1535-.7776.4077-1.0417v-.9157c0-.9394-.7615-1.7009-1.7009-1.7009z" fill="url(#B)"/><path d="m11.305 10.7487c-.9394 0-1.7009.6124-1.7009 1.5518v6.456c0 .9394.7615 1.7009 1.7009 1.7009.5176 0 .9813-.2313 1.2932-.5961v-5.4543c0-.4218.1535-.7776.4077-1.0417v-.9157c0-.9394-.7615-1.7009-1.7009-1.7009z" fill="url(#C)"/><path d="m12.5982 14.407c0-.9394.7615-1.5518 1.7009-1.5518s1.7009.7615 1.7009 1.7008v4.6132c0 .9394-.7615 1.7009-1.7009 1.7009s-1.7009-.7615-1.7009-1.7009z" fill="url(#D)"/><path d="m12.5982 14.407c0-.9394.7615-1.5518 1.7009-1.5518s1.7009.7615 1.7009 1.7008v4.6132c0 .9394-.7615 1.7009-1.7009 1.7009s-1.7009-.7615-1.7009-1.7009z" fill="url(#E)"/><path d="m12.5982 14.407c0-.9394.7615-1.5518 1.7009-1.5518s1.7009.7615 1.7009 1.7008v4.6132c0 .9394-.7615 1.7009-1.7009 1.7009s-1.7009-.7615-1.7009-1.7009z" fill="url(#F)"/><path d="m12.5982 14.407c0-.9394.7615-1.5518 1.7009-1.5518s1.7009.7615 1.7009 1.7008v4.6132c0 .9394-.7615 1.7009-1.7009 1.7009s-1.7009-.7615-1.7009-1.7009z" fill="url(#G)"/><path d="m1.114 18.8655c-.00054-.0185-.00081-.037-.00081-.0555 0-1.0236.82978-1.8534 1.85336-1.8534.91126 0 1.66892.6577 1.82423 1.5243l.00204-.0003.7725 4.0117-3.34658 1.2209c-.2578-.7188-1.02939-3.0852-1.10474-4.8477z" fill="url(#H)"/><path d="m1.114 18.8655c-.00054-.0185-.00081-.037-.00081-.0555 0-1.0236.82978-1.8534 1.85336-1.8534.91126 0 1.66892.6577 1.82423 1.5243l.00204-.0003.7725 4.0117-3.34658 1.2209c-.2578-.7188-1.02939-3.0852-1.10474-4.8477z" fill="url(#I)"/><g filter="url(#b)"><path d="m5.54144 20.7522-.83756-8.4009c-.03525-.3537.2705-.6467.62233-.5965.24997.0358.4431.2378.46757.4891l.7406 7.6075z" fill="url(#J)"/></g><g filter="url(#c)"><rect fill="url(#K)" height="8.793" rx=".531" width="1.063" x="8.163" y="10.093"/></g><g filter="url(#d)"><path d="m14.8927 14.4889v7.8619c.0113 1.226-.4319 4.0153-2.2945 5.365" stroke="url(#L)" stroke-linecap="round" stroke-width="1.25"/></g><g filter="url(#e)"><path d="m6.15561 19.3717c1.40593-.4162 4.91959-.7829 7.72699 1.0797" stroke="url(#M)" stroke-linecap="round" stroke-width="1.25"/></g><g filter="url(#f)"><path d="m3.26581 18.5309.94461 3.9959c.14453.5931.66797 1.4414 1.79297 1.1132" stroke="#64504e" stroke-linecap="round"/></g><g filter="url(#g)"><path d="m6.8172 18.8348c-.06485.2659-.358.9729-1.01178 1.6733" stroke="url(#O)" stroke-linecap="round" stroke-width=".5"/></g><g filter="url(#h)"><path d="m7.875 19.2523c.42188 0 1.3125-.2188 1.60938-.5938" stroke="url(#P)" stroke-linecap="round" stroke-width=".5"/></g><g filter="url(#i)"><path d="m10.3438 19.096c.2708.1458 1.0781.425 2.1406.375" stroke="url(#Q)" stroke-linecap="round" stroke-width=".5"/></g><g filter="url(#j)"><path d="m25.8068 10.9188c0-.97935-.7939-1.77323-1.7732-1.77323s-1.7732.79388-1.7732 1.77323v.7389c-.2593-.5661-.8625-.909-1.5654-.909-.9394 0-1.7009.7615-1.7009 1.7009v.9157c-.3119-.3242-.7756-.5101-1.2932-.5101-.9394 0-1.7009.7615-1.7009 1.7008v8.1963c0 2.1177.6563 3.498 1.0213 3.9792 1.0857 1.9148 3.1423 3.2069 5.5007 3.2069.2155 0 .4286-.0108.6386-.0319 2.4682-.1609 3.8838-1.3957 4.8238-2.5761.8594-1.1406 1.5937-3.0117 1.8203-3.6641l-.0026-.0117c.2761-.7814 1.0105-3.0719 1.0839-4.7891.0005-.0185.0008-.037.0008-.0555 0-1.0236-.8298-1.8534-1.8534-1.8534-.0827 0-.1643.0054-.2442.016l.3059-4.1451c.0708-.9598-.6498-1.7954-1.6097-1.8662-.719-.0531-1.3684.3381-1.6786.9413z" fill="#4d3537"/></g><path d="m25.8068 10.9188c0-.97935-.7939-1.77323-1.7732-1.77323s-1.7732.79388-1.7732 1.77323v.7389c-.2593-.5661-.8625-.909-1.5654-.909-.9394 0-1.7009.7615-1.7009 1.7009v.9157c-.3119-.3242-.7756-.5101-1.2932-.5101-.9394 0-1.7009.7615-1.7009 1.7008v8.1963c0 2.1177.6563 3.498 1.0213 3.9792 1.0857 1.9148 3.1423 3.2069 5.5007 3.2069.2155 0 .4286-.0108.6386-.0319 2.4682-.1609 3.8838-1.3957 4.8238-2.5761.8594-1.1406 1.5937-3.0117 1.8203-3.6641l-.0026-.0117c.2761-.7814 1.0105-3.0719 1.0839-4.7891.0005-.0185.0008-.037.0008-.0555 0-1.0236-.8298-1.8534-1.8534-1.8534-.0827 0-.1643.0054-.2442.016l.3059-4.1451c.0708-.9598-.6498-1.7954-1.6097-1.8662-.719-.0531-1.3684.3381-1.6786.9413z" fill="url(#R)"/><path d="m25.8068 10.9188c0-.97935-.7939-1.77323-1.7732-1.77323s-1.7732.79388-1.7732 1.77323v.7389c-.2593-.5661-.8625-.909-1.5654-.909-.9394 0-1.7009.7615-1.7009 1.7009v.9157c-.3119-.3242-.7756-.5101-1.2932-.5101-.9394 0-1.7009.7615-1.7009 1.7008v8.1963c0 2.1177.6563 3.498 1.0213 3.9792 1.0857 1.9148 3.1423 3.2069 5.5007 3.2069.2155 0 .4286-.0108.6386-.0319 2.4682-.1609 3.8838-1.3957 4.8238-2.5761.8594-1.1406 1.5937-3.0117 1.8203-3.6641l-.0026-.0117c.2761-.7814 1.0105-3.0719 1.0839-4.7891.0005-.0185.0008-.037.0008-.0555 0-1.0236-.8298-1.8534-1.8534-1.8534-.0827 0-.1643.0054-.2442.016l.3059-4.1451c.0708-.9598-.6498-1.7954-1.6097-1.8662-.719-.0531-1.3684.3381-1.6786.9413z" fill="url(#S)"/><path d="m27.4854 10.9613c.9598.0708 1.6805.9063 1.6097 1.8662l-.3059 4.145c-.7997.1053-1.4388.7205-1.58 1.5083l-.002-.0002-.7853 3.9748c-.4063-.1719-1.6719-.875-1.263-3.6471l.4603-6.2373c.0709-.9599.9064-1.6805 1.8662-1.6097z" fill="url(#T)"/><path d="m27.4854 10.9613c.9598.0708 1.6805.9063 1.6097 1.8662l-.3059 4.145c-.7997.1053-1.4388.7205-1.58 1.5083l-.002-.0002-.7853 3.9748c-.4063-.1719-1.6719-.875-1.263-3.6471l.4603-6.2373c.0709-.9599.9064-1.6805 1.8662-1.6097z" fill="url(#V)"/><path d="m27.4854 10.9613c.9598.0708 1.6805.9063 1.6097 1.8662l-.3059 4.145c-.7997.1053-1.4388.7205-1.58 1.5083l-.002-.0002-.7853 3.9748c-.4063-.1719-1.6719-.875-1.263-3.6471l.4603-6.2373c.0709-.9599.9064-1.6805 1.8662-1.6097z" fill="url(#W)"/><path d="m27.4854 10.9613c.9598.0708 1.6805.9063 1.6097 1.8662l-.3059 4.145c-.7997.1053-1.4388.7205-1.58 1.5083l-.002-.0002-.7853 3.9748c-.4063-.1719-1.6719-.875-1.263-3.6471l.4603-6.2373c.0709-.9599.9064-1.6805 1.8662-1.6097z" fill="url(#X)"/><path d="m27.4854 10.9613c.9598.0708 1.6805.9063 1.6097 1.8662l-.3059 4.145c-.7997.1053-1.4388.7205-1.58 1.5083l-.002-.0002-.7853 3.9748c-.4063-.1719-1.6719-.875-1.263-3.6471l.4603-6.2373c.0709-.9599.9064-1.6805 1.8662-1.6097z" fill="url(#Y)"/><path d="m25.8068 10.9188c0-.97935-.7939-1.77323-1.7732-1.77323s-1.7732.79388-1.7732 1.77323v.7389c.0872.1905.1355.4063.1355.6428v5.4926c.267.6413.8997 1.0921 1.6377 1.0921.4392 0 .8412-.1597 1.151-.4243l.4346-5.8899c.0178-.2408.0837-.4665.1876-.6684z" fill="url(#Z)"/><path d="m25.8068 10.9188c0-.97935-.7939-1.77323-1.7732-1.77323s-1.7732.79388-1.7732 1.77323v.7389c.0872.1905.1355.4063.1355.6428v5.4926c.267.6413.8997 1.0921 1.6377 1.0921.4392 0 .8412-.1597 1.151-.4243l.4346-5.8899c.0178-.2408.0837-.4665.1876-.6684z" fill="url(#aa)"/><path d="m25.8068 10.9188c0-.97935-.7939-1.77323-1.7732-1.77323s-1.7732.79388-1.7732 1.77323v.7389c.0872.1905.1355.4063.1355.6428v5.4926c.267.6413.8997 1.0921 1.6377 1.0921.4392 0 .8412-.1597 1.151-.4243l.4346-5.8899c.0178-.2408.0837-.4665.1876-.6684z" fill="url(#ab)"/><path d="m25.8068 10.9188c0-.97935-.7939-1.77323-1.7732-1.77323s-1.7732.79388-1.7732 1.77323v.7389c.0872.1905.1355.4063.1355.6428v5.4926c.267.6413.8997 1.0921 1.6377 1.0921.4392 0 .8412-.1597 1.151-.4243l.4346-5.8899c.0178-.2408.0837-.4665.1876-.6684z" fill="url(#ac)"/><path d="m20.695 10.7487c.9394 0 1.7009.6124 1.7009 1.5518v6.456c0 .9394-.7615 1.7009-1.7009 1.7009-.5176 0-.9813-.2313-1.2932-.5961v-5.4543c0-.4218-.1535-.7776-.4077-1.0417v-.9157c0-.9394.7615-1.7009 1.7009-1.7009z" fill="url(#ad)"/><path d="m20.695 10.7487c.9394 0 1.7009.6124 1.7009 1.5518v6.456c0 .9394-.7615 1.7009-1.7009 1.7009-.5176 0-.9813-.2313-1.2932-.5961v-5.4543c0-.4218-.1535-.7776-.4077-1.0417v-.9157c0-.9394.7615-1.7009 1.7009-1.7009z" fill="url(#ae)"/><path d="m20.695 10.7487c.9394 0 1.7009.6124 1.7009 1.5518v6.456c0 .9394-.7615 1.7009-1.7009 1.7009-.5176 0-.9813-.2313-1.2932-.5961v-5.4543c0-.4218-.1535-.7776-.4077-1.0417v-.9157c0-.9394.7615-1.7009 1.7009-1.7009z" fill="url(#af)"/><path d="m19.4018 14.407c0-.9394-.7615-1.5518-1.7009-1.5518s-1.7009.7615-1.7009 1.7008v4.6132c0 .9394.7615 1.7009 1.7009 1.7009s1.7009-.7615 1.7009-1.7009z" fill="url(#ag)"/><path d="m30.886 18.8655c.0005-.0185.0008-.037.0008-.0555 0-1.0236-.8298-1.8534-1.8533-1.8534-.9113 0-1.669.6577-1.8243 1.5243l-.002-.0003-.7931 4.0295 3.3672 1.2031c.2578-.7188 1.0293-3.0852 1.1047-4.8477z" fill="url(#ah)"/><g filter="url(#k)"><path d="m28.2575 18.5648c-.1875.9583-1.3669 4.3125-1.9606 5.4375" stroke="#372223" stroke-linecap="round"/></g><g filter="url(#l)"><path d="m17.8594 21.3148v-7.8438c.8672-.0391 1.2187.6172 1.2187 1.2188v5.4375z" fill="url(#ai)"/></g><g filter="url(#m)"><path d="m20.8513 19.5647v-8.2343c.8672-.0391 1.2187.6172 1.2187 1.2187v7.0156z" fill="url(#aj)"/></g><g filter="url(#n)"><path d="m17.6406 21.6585c1.1146-1.1667 4.3438-3.3125 8.3438-2.5625" stroke="url(#ak)" stroke-linecap="round" stroke-width="1.25"/></g></svg>