<svg fill="none" height="32" viewBox="0 0 32 32" width="32" xmlns="http://www.w3.org/2000/svg" xmlns:xlink="http://www.w3.org/1999/xlink"><filter id="a" color-interpolation-filters="sRGB" filterUnits="userSpaceOnUse" height="17.375" width="28.531" x="1.75" y="11.984"><feFlood flood-opacity="0" result="BackgroundImageFix"/><feBlend in="SourceGraphic" in2="BackgroundImageFix" mode="normal" result="shape"/><feGaussianBlur result="effect1_foregroundBlur_18_29513" stdDeviation=".25"/></filter><filter id="b" color-interpolation-filters="sRGB" filterUnits="userSpaceOnUse" height="12.034" width="24.979" x="3.511" y="14.323"><feFlood flood-opacity="0" result="BackgroundImageFix"/><feBlend in="SourceGraphic" in2="BackgroundImageFix" mode="normal" result="shape"/><feGaussianBlur result="effect1_foregroundBlur_18_29513" stdDeviation=".25"/></filter><filter id="c" color-interpolation-filters="sRGB" filterUnits="userSpaceOnUse" height="13.665" width="14.656" x="3.969" y="3.329"><feFlood flood-opacity="0" result="BackgroundImageFix"/><feBlend in="SourceGraphic" in2="BackgroundImageFix" mode="normal" result="shape"/><feGaussianBlur result="effect1_foregroundBlur_18_29513" stdDeviation=".125"/></filter><filter id="d" color-interpolation-filters="sRGB" filterUnits="userSpaceOnUse" height="16.34" width="14.641" x="8.703" y="5.129"><feFlood flood-opacity="0" result="BackgroundImageFix"/><feBlend in="SourceGraphic" in2="BackgroundImageFix" mode="normal" result="shape"/><feGaussianBlur result="effect1_foregroundBlur_18_29513" stdDeviation=".125"/></filter><filter id="e" color-interpolation-filters="sRGB" filterUnits="userSpaceOnUse" height="4.516" width="10.053" x="10.979" y="6.766"><feFlood flood-opacity="0" result="BackgroundImageFix"/><feBlend in="SourceGraphic" in2="BackgroundImageFix" mode="normal" result="shape"/><feGaussianBlur result="effect1_foregroundBlur_18_29513" stdDeviation=".25"/></filter><filter id="f" color-interpolation-filters="sRGB" filterUnits="userSpaceOnUse" height="8.391" width="4.92" x="18.344" y="8.875"><feFlood flood-opacity="0" result="BackgroundImageFix"/><feBlend in="SourceGraphic" in2="BackgroundImageFix" mode="normal" result="shape"/><feGaussianBlur result="effect1_foregroundBlur_18_29513" stdDeviation=".25"/></filter><filter id="g" color-interpolation-filters="sRGB" filterUnits="userSpaceOnUse" height="6.547" width="5.454" x="13.078" y="11.5"><feFlood flood-opacity="0" result="BackgroundImageFix"/><feBlend in="SourceGraphic" in2="BackgroundImageFix" mode="normal" result="shape"/><feGaussianBlur result="effect1_foregroundBlur_18_29513" stdDeviation=".375"/></filter><filter id="h" color-interpolation-filters="sRGB" filterUnits="userSpaceOnUse" height="5.784" width="7.191" x="20.959" y="11.053"><feFlood flood-opacity="0" result="BackgroundImageFix"/><feBlend in="SourceGraphic" in2="BackgroundImageFix" mode="normal" result="shape"/><feGaussianBlur result="effect1_foregroundBlur_18_29513" stdDeviation=".125"/></filter><filter id="i" color-interpolation-filters="sRGB" filterUnits="userSpaceOnUse" height="7.613" width="6.643" x="23.382" y="21.069"><feFlood flood-opacity="0" result="BackgroundImageFix"/><feBlend in="SourceGraphic" in2="BackgroundImageFix" mode="normal" result="shape"/><feGaussianBlur result="effect1_foregroundBlur_18_29513" stdDeviation=".125"/></filter><filter id="j" color-interpolation-filters="sRGB" filterUnits="userSpaceOnUse" height="3.871" width="6.238" x="14.858" y="4.873"><feFlood flood-opacity="0" result="BackgroundImageFix"/><feBlend in="SourceGraphic" in2="BackgroundImageFix" mode="normal" result="shape"/><feGaussianBlur result="effect1_foregroundBlur_18_29513" stdDeviation=".125"/></filter><linearGradient id="k" gradientUnits="userSpaceOnUse" x1="2" x2="30" y1="21.125" y2="21.125"><stop offset="0" stop-color="#bbb7bc"/><stop offset=".1" stop-color="#ad95c2"/><stop offset=".232" stop-color="#c3a0e2"/><stop offset=".804" stop-color="#c9a6e7"/><stop offset="1" stop-color="#d8d0df"/></linearGradient><linearGradient id="l" gradientUnits="userSpaceOnUse" x1="2.813" x2="30.125" y1="20.125" y2="20.125"><stop offset="0" stop-color="#beb4b6"/><stop offset=".158" stop-color="#dbced5"/><stop offset=".485" stop-color="#dfcdd2"/><stop offset=".822" stop-color="#dfd1d6"/><stop offset="1" stop-color="#e3d8cd"/></linearGradient><linearGradient id="m" gradientUnits="userSpaceOnUse" x1="16" x2="16" y1="14.823" y2="26.563"><stop offset=".886" stop-color="#b49d9f"/><stop offset="1" stop-color="#b49d9f" stop-opacity="0"/></linearGradient><linearGradient id="n" gradientUnits="userSpaceOnUse" x1="4.011" x2="27.989" y1="19.188" y2="19.188"><stop offset="0" stop-color="#b88c43"/><stop offset=".156" stop-color="#c69039"/><stop offset=".325" stop-color="#d99f3f"/><stop offset=".758" stop-color="#d9a734"/><stop offset="1" stop-color="#ecd34c"/></linearGradient><linearGradient id="o" gradientUnits="userSpaceOnUse" x1="4.563" x2="27.989" y1="17.875" y2="17.875"><stop offset="0" stop-color="#a96e44"/><stop offset=".147" stop-color="#b8784c"/><stop offset=".339" stop-color="#ba774b"/><stop offset=".59" stop-color="#d68c56"/><stop offset=".819" stop-color="#e3985d"/><stop offset="1" stop-color="#eaad74"/></linearGradient><radialGradient id="p" cx="0" cy="0" gradientTransform="matrix(0 5.34759 -13.25 0 16 15.7774)" gradientUnits="userSpaceOnUse" r="1"><stop offset=".661" stop-color="#99512c"/><stop offset="1" stop-color="#a6572f" stop-opacity="0"/></radialGradient><radialGradient id="q" cx="0" cy="0" gradientTransform="matrix(2.875 0 0 2.85976 12.25 19.5)" gradientUnits="userSpaceOnUse" r="1"><stop offset="0" stop-color="#934a28"/><stop offset="1" stop-color="#934a28" stop-opacity="0"/></radialGradient><linearGradient id="r" gradientUnits="userSpaceOnUse" x1="4.563" x2="27.989" y1="13.625" y2="13.625"><stop offset="0" stop-color="#b28c4c"/><stop offset=".133" stop-color="#b97f33"/><stop offset=".283" stop-color="#bd7628"/><stop offset=".491" stop-color="#c37c28"/><stop offset=".592" stop-color="#d08726"/><stop offset=".696" stop-color="#d6922d"/><stop offset=".816" stop-color="#dea933"/><stop offset="1" stop-color="#e5ce53"/></linearGradient><linearGradient id="s" gradientUnits="userSpaceOnUse" x1="4.625" x2="27.989" y1="8.813" y2="8.813"><stop offset="0" stop-color="#cca275"/><stop offset=".144" stop-color="#d6a87a"/><stop offset=".72" stop-color="#e1b17c"/><stop offset="1" stop-color="#e6b27d"/></linearGradient><linearGradient id="t" gradientUnits="userSpaceOnUse" x1="7.222" x2="26.563" y1="7.965" y2="7.965"><stop offset=".063" stop-color="#d4a778"/><stop offset="1" stop-color="#e7b27d"/></linearGradient><radialGradient id="u" cx="0" cy="0" gradientTransform="matrix(4.50000273 4.31249888 -3.88579412 4.0547452 9.875 9.8125)" gradientUnits="userSpaceOnUse" r="1"><stop offset="0" stop-color="#b38258"/><stop offset=".768" stop-color="#bb8f65" stop-opacity="0"/></radialGradient><radialGradient id="v" cx="0" cy="0" gradientTransform="matrix(2.375 0 0 4.25084 12.8125 15.4375)" gradientUnits="userSpaceOnUse" r="1"><stop offset="0" stop-color="#af774e"/><stop offset="1" stop-color="#af774e" stop-opacity="0"/></radialGradient><linearGradient id="w"><stop offset=".025" stop-color="#9d623c"/><stop offset="1" stop-color="#82523e"/></linearGradient><radialGradient id="x" cx="0" cy="0" gradientTransform="matrix(-12.43744054 5.12507335 -4.74282639 -11.50981014 20.5 10.0625)" gradientUnits="userSpaceOnUse" r="1" xlink:href="#w"/><linearGradient id="y" gradientUnits="userSpaceOnUse" x1="9.625" x2="23.148" y1="11.875" y2="11.875"><stop offset="0" stop-color="#804b33"/><stop offset="1" stop-color="#9f5e3e"/></linearGradient><radialGradient id="z" cx="0" cy="0" gradientTransform="matrix(-12.18045332 4.89354776 -4.44716489 -11.06936868 20.4072 9.95537)" gradientUnits="userSpaceOnUse" r="1" xlink:href="#w"/><radialGradient id="A" cx="0" cy="0" gradientTransform="matrix(3.45826619 1.87982725 -1.00438679 1.84774259 13.6437 9.00053)" gradientUnits="userSpaceOnUse" r="1"><stop offset="0" stop-color="#764326"/><stop offset="1" stop-color="#733e21" stop-opacity="0"/></radialGradient><radialGradient id="B" cx="0" cy="0" gradientTransform="matrix(-3.62501247 4.18748639 -4.0666379 -3.52039666 10.75 6.75)" gradientUnits="userSpaceOnUse" r="1"><stop offset="0" stop-color="#724d3d"/><stop offset="1" stop-color="#724c3b" stop-opacity="0"/></radialGradient><radialGradient id="C" cx="0" cy="0" gradientTransform="matrix(-2.3749949 -.62501804 .41355088 -1.57144461 18.6563 17.6875)" gradientUnits="userSpaceOnUse" r="1"><stop offset="0" stop-color="#8a4654"/><stop offset="1" stop-color="#8c4756" stop-opacity="0"/></radialGradient><radialGradient id="D" cx="0" cy="0" gradientTransform="matrix(0 -3.375 1.27037 0 13.1562 19.875)" gradientUnits="userSpaceOnUse" r="1"><stop offset="0" stop-color="#884b4f"/><stop offset="1" stop-color="#864453" stop-opacity="0"/></radialGradient><radialGradient id="E" cx="0" cy="0" gradientTransform="matrix(-.18749956 1.09374495 -.6734993 -.11545728 13.9063 16.0625)" gradientUnits="userSpaceOnUse" r="1"><stop offset="0" stop-color="#a37665"/><stop offset="1" stop-color="#a57867" stop-opacity="0"/></radialGradient><radialGradient id="F" cx="0" cy="0" gradientTransform="matrix(-.28124608 .93750145 -.65123267 -.19536678 18.8906 15.7344)" gradientUnits="userSpaceOnUse" r="1"><stop offset="0" stop-color="#a67968"/><stop offset="1" stop-color="#a87b68" stop-opacity="0"/></radialGradient><linearGradient id="G" gradientUnits="userSpaceOnUse" x1="11.438" x2="20.717" y1="7.488" y2="7.488"><stop offset="0" stop-color="#c7a22b"/><stop offset="1" stop-color="#e8c12e"/></linearGradient><radialGradient id="H" cx="0" cy="0" gradientTransform="matrix(0 3 -3.44251 0 16.005 10.9375)" gradientUnits="userSpaceOnUse" r="1"><stop offset="0" stop-color="#dba529"/><stop offset="1" stop-color="#d9a32b" stop-opacity="0"/></radialGradient><linearGradient id="I" gradientUnits="userSpaceOnUse" x1="14.398" x2="17.563" y1="2.602" y2="7.625"><stop offset=".008" stop-color="#cfba3a"/><stop offset=".085" stop-color="#d5c137"/><stop offset=".934" stop-color="#e7ce37"/></linearGradient><linearGradient id="J"><stop offset="0" stop-color="#a06740"/><stop offset=".705" stop-color="#8e512e"/></linearGradient><radialGradient id="K" cx="0" cy="0" gradientTransform="matrix(-2.98437 0 0 -2.82658 23.5774 26.9224)" gradientUnits="userSpaceOnUse" r="1" xlink:href="#J"/><radialGradient id="L" cx="0" cy="0" gradientTransform="matrix(-1.07227 0 0 -1.01557 24.9104 25.8569)" gradientUnits="userSpaceOnUse" r="1" xlink:href="#J"/><radialGradient id="M" cx="0" cy="0" gradientTransform="matrix(0 7.80469 -4.14003 0 20.8039 13.0703)" gradientUnits="userSpaceOnUse" r="1"><stop offset="0" stop-color="#ad7c68"/><stop offset="1" stop-color="#ac7b65" stop-opacity="0"/></radialGradient><linearGradient id="N" gradientUnits="userSpaceOnUse" x1="14.031" x2="17.75" y1="13.503" y2="13.503"><stop offset="0" stop-color="#a27764"/><stop offset=".462" stop-color="#9c6f5e"/><stop offset=".618" stop-color="#6f3f2e"/></linearGradient><radialGradient id="O" cx="0" cy="0" gradientTransform="matrix(2.53125048 -2.40625183 1.27456675 1.34077724 25.7188 14.5)" gradientUnits="userSpaceOnUse" r="1"><stop offset="0" stop-color="#efb992"/><stop offset=".449" stop-color="#f1bd92"/><stop offset=".988" stop-color="#f0bc8f" stop-opacity="0"/></radialGradient><radialGradient id="P" cx="0" cy="0" gradientTransform="matrix(3.50412646 -4.40625354 2.3339508 1.85610262 26.9687 25.875)" gradientUnits="userSpaceOnUse" r="1"><stop offset="0" stop-color="#ebe1f0"/><stop offset=".449" stop-color="#ebe2f0"/><stop offset=".988" stop-color="#e8dfec" stop-opacity="0"/></radialGradient><radialGradient id="Q" cx="0" cy="0" gradientTransform="matrix(2.88719198 -1.65920338 .82399875 1.43384627 18.1875 7.3125)" gradientUnits="userSpaceOnUse" r="1"><stop offset="0" stop-color="#f0d151"/><stop offset=".449" stop-color="#f2d359"/><stop offset=".988" stop-color="#f3d357" stop-opacity="0"/></radialGradient><path d="m21.3569 12.066h-10.7038c-4.78172 0-8.6531 3.8814-8.6531 8.6631s3.87138 8.6531 8.6531 8.6531h10.6938c4.7817 0 8.6531-3.8714 8.6531-8.6531.01-4.7817-3.8614-8.6631-8.6431-8.6631z" fill="url(#k)"/><g filter="url(#a)"><path d="m21.2828 12.4844h-10.5246c-4.70163 0-8.5082 3.6704-8.5082 8.1922s3.80657 8.1828 8.5082 8.1828h10.5148c4.7017 0 8.5082-3.661 8.5082-8.1828.0099-4.5218-3.7967-8.1922-8.4984-8.1922z" fill="url(#l)"/></g><g filter="url(#b)"><path d="m21.4169 14.823h-10.8238l-6.58236 1.8907v2.5609c0 3.6413 2.95105 6.5823 6.58236 6.5823h10.8138c3.6413 0 6.5824-2.951 6.5824-6.5823v-2.5609z" fill="url(#m)"/></g><path d="m21.4169 14.2869h-10.8238l-6.58236 1.8906v2.561c0 3.6412 2.95105 6.5823 6.58236 6.5823h10.8138c3.6413 0 6.5824-2.9511 6.5824-6.5823v-2.561z" fill="url(#n)"/><path d="m21.4169 9.19507h-10.8238c-3.64131 0-6.58236 2.95103-6.58236 6.58233 0 3.6413 2.95105 6.5824 6.58236 6.5824h10.8138c3.6413 0 6.5824-2.9511 6.5824-6.5824.01-3.6413-2.9411-6.58233-6.5724-6.58233z" fill="url(#o)"/><path d="m21.4169 9.19507h-10.8238c-3.64131 0-6.58236 2.95103-6.58236 6.58233 0 3.6413 2.95105 6.5824 6.58236 6.5824h10.8138c3.6413 0 6.5824-2.9511 6.5824-6.5824.01-3.6413-2.9411-6.58233-6.5724-6.58233z" fill="url(#p)"/><path d="m21.4169 9.19507h-10.8238c-3.64131 0-6.58236 2.95103-6.58236 6.58233 0 3.6413 2.95105 6.5824 6.58236 6.5824h10.8138c3.6413 0 6.5824-2.9511 6.5824-6.5824.01-3.6413-2.9411-6.58233-6.5724-6.58233z" fill="url(#q)"/><path d="m21.4169 8.51489h-10.8238l-6.58236 1.90071v2.5609c0 3.6413 2.95105 6.5823 6.58236 6.5823h10.8138c3.6413 0 6.5824-2.951 6.5824-6.5823v-2.5609z" fill="url(#r)"/><path d="m21.4162 3.42249h-10.8238c-3.64134 0-6.58239 2.95105-6.58239 6.58231 0 3.6413 2.95105 6.5824 6.58239 6.5824h10.8138c3.6413 0 6.5824-2.9511 6.5824-6.5824.01-3.63126-2.9411-6.58231-6.5724-6.58231z" fill="url(#s)"/><g filter="url(#c)"><path d="m18.375 3.57874h-7.6881c-3.57813 0-6.46815 2.95105-6.46815 6.58236 0 3.6413 2.89985 6.5823 6.46815 6.5823h7.6881z" fill="url(#t)"/><path d="m18.375 3.57874h-7.6881c-3.57813 0-6.46815 2.95105-6.46815 6.58236 0 3.6413 2.89985 6.5823 6.46815 6.5823h7.6881z" fill="url(#u)"/><path d="m18.375 3.57874h-7.6881c-3.57813 0-6.46815 2.95105-6.46815 6.58236 0 3.6413 2.89985 6.5823 6.46815 6.5823h7.6881z" fill="url(#v)"/></g><path d="m19.4362 6.20398h-6.8724c-2.0408 0-3.69136 1.65059-3.69136 3.69132 0 1.6706 1.11039 3.0911 2.64096 3.5413.4601.14.7703.5702.7703 1.0503v5.8121c0 .7103.5501 1.3105 1.2604 1.3305.7203.01 1.3105-.5702 1.3105-1.2805v-5.672c0-.6002.4801-1.0804 1.0804-1.0804.6002 0 1.0803.4802 1.0803 1.0804v1.6506c0 .7102.5502 1.3105 1.2605 1.3305.7202.01 1.3105-.5702 1.3105-1.2805v-1.8407c0-.4901.3201-.9303.8002-1.0603 1.5906-.4102 2.761-1.8607 2.761-3.5713-.01-2.05073-1.6706-3.70132-3.7113-3.70132z" fill="url(#x)"/><path d="m19.4362 6.20398h-6.8724c-2.0408 0-3.69136 1.65059-3.69136 3.69132 0 1.6706 1.11039 3.0911 2.64096 3.5413.4601.14.7703.5702.7703 1.0503v5.8121c0 .7103.5501 1.3105 1.2604 1.3305.7203.01 1.3105-.5702 1.3105-1.2805v-5.672c0-.6002.4801-1.0804 1.0804-1.0804.6002 0 1.0803.4802 1.0803 1.0804v1.6506c0 .7102.5502 1.3105 1.2605 1.3305.7202.01 1.3105-.5702 1.3105-1.2805v-1.8407c0-.4901.3201-.9303.8002-1.0603 1.5906-.4102 2.761-1.8607 2.761-3.5713-.01-2.05073-1.6706-3.70132-3.7113-3.70132z" fill="#884734"/><path d="m19.4362 6.20398h-6.8724c-2.0408 0-3.69136 1.65059-3.69136 3.69132 0 1.6706 1.11039 3.0911 2.64096 3.5413.4601.14.7703.5702.7703 1.0503v5.8121c0 .7103.5501 1.3105 1.2604 1.3305.7203.01 1.3105-.5702 1.3105-1.2805v-5.672c0-.6002.4801-1.0804 1.0804-1.0804.6002 0 1.0803.4802 1.0803 1.0804v1.6506c0 .7102.5502 1.3105 1.2605 1.3305.7202.01 1.3105-.5702 1.3105-1.2805v-1.8407c0-.4901.3201-.9303.8002-1.0603 1.5906-.4102 2.761-1.8607 2.761-3.5713-.01-2.05073-1.6706-3.70132-3.7113-3.70132z" fill="url(#y)"/><g filter="url(#d)"><path d="m8.95312 9.80535c0 1.59515 1.15428 2.74635 2.65318 3.17615.4506.1338.7543.5445.7543 1.003v5.9794c0 .6782.5389 1.2357 1.2344 1.2549.7054.0095 1.155-.3688 1.155-1.0469v-6.0934c0-.5731.5987-1.0316 1.1865-1.0316s1.2197.4585 1.2197 1.0316v2.1403c0 .6781.3772 1.2777 1.0727 1.2968.7054.0096 1.2834-.6187 1.2834-1.2968v-2.1594c0-.4681.3135-.8883.7838-1.0125 1.5576-.3916 2.7977-1.6082 2.7977-3.24155 0-5.94588-14.14068-5.85814-14.14068 0z" fill="url(#z)"/><path d="m8.95312 9.80535c0 1.59515 1.15428 2.74635 2.65318 3.17615.4506.1338.7543.5445.7543 1.003v5.9794c0 .6782.5389 1.2357 1.2344 1.2549.7054.0095 1.155-.3688 1.155-1.0469v-6.0934c0-.5731.5987-1.0316 1.1865-1.0316s1.2197.4585 1.2197 1.0316v2.1403c0 .6781.3772 1.2777 1.0727 1.2968.7054.0096 1.2834-.6187 1.2834-1.2968v-2.1594c0-.4681.3135-.8883.7838-1.0125 1.5576-.3916 2.7977-1.6082 2.7977-3.24155 0-5.94588-14.14068-5.85814-14.14068 0z" fill="url(#A)"/><path d="m8.95312 9.80535c0 1.59515 1.15428 2.74635 2.65318 3.17615.4506.1338.7543.5445.7543 1.003v5.9794c0 .6782.5389 1.2357 1.2344 1.2549.7054.0095 1.155-.3688 1.155-1.0469v-6.0934c0-.5731.5987-1.0316 1.1865-1.0316s1.2197.4585 1.2197 1.0316v2.1403c0 .6781.3772 1.2777 1.0727 1.2968.7054.0096 1.2834-.6187 1.2834-1.2968v-2.1594c0-.4681.3135-.8883.7838-1.0125 1.5576-.3916 2.7977-1.6082 2.7977-3.24155 0-5.94588-14.14068-5.85814-14.14068 0z" fill="url(#B)"/><path d="m8.95312 9.80535c0 1.59515 1.15428 2.74635 2.65318 3.17615.4506.1338.7543.5445.7543 1.003v5.9794c0 .6782.5389 1.2357 1.2344 1.2549.7054.0095 1.155-.3688 1.155-1.0469v-6.0934c0-.5731.5987-1.0316 1.1865-1.0316s1.2197.4585 1.2197 1.0316v2.1403c0 .6781.3772 1.2777 1.0727 1.2968.7054.0096 1.2834-.6187 1.2834-1.2968v-2.1594c0-.4681.3135-.8883.7838-1.0125 1.5576-.3916 2.7977-1.6082 2.7977-3.24155 0-5.94588-14.14068-5.85814-14.14068 0z" fill="url(#C)"/><path d="m8.95312 9.80535c0 1.59515 1.15428 2.74635 2.65318 3.17615.4506.1338.7543.5445.7543 1.003v5.9794c0 .6782.5389 1.2357 1.2344 1.2549.7054.0095 1.155-.3688 1.155-1.0469v-6.0934c0-.5731.5987-1.0316 1.1865-1.0316s1.2197.4585 1.2197 1.0316v2.1403c0 .6781.3772 1.2777 1.0727 1.2968.7054.0096 1.2834-.6187 1.2834-1.2968v-2.1594c0-.4681.3135-.8883.7838-1.0125 1.5576-.3916 2.7977-1.6082 2.7977-3.24155 0-5.94588-14.14068-5.85814-14.14068 0z" fill="url(#D)"/><path d="m8.95312 9.80535c0 1.59515 1.15428 2.74635 2.65318 3.17615.4506.1338.7543.5445.7543 1.003v5.9794c0 .6782.5389 1.2357 1.2344 1.2549.7054.0095 1.155-.3688 1.155-1.0469v-6.0934c0-.5731.5987-1.0316 1.1865-1.0316s1.2197.4585 1.2197 1.0316v2.1403c0 .6781.3772 1.2777 1.0727 1.2968.7054.0096 1.2834-.6187 1.2834-1.2968v-2.1594c0-.4681.3135-.8883.7838-1.0125 1.5576-.3916 2.7977-1.6082 2.7977-3.24155 0-5.94588-14.14068-5.85814-14.14068 0z" fill="url(#E)"/><path d="m8.95312 9.80535c0 1.59515 1.15428 2.74635 2.65318 3.17615.4506.1338.7543.5445.7543 1.003v5.9794c0 .6782.5389 1.2357 1.2344 1.2549.7054.0095 1.155-.3688 1.155-1.0469v-6.0934c0-.5731.5987-1.0316 1.1865-1.0316s1.2197.4585 1.2197 1.0316v2.1403c0 .6781.3772 1.2777 1.0727 1.2968.7054.0096 1.2834-.6187 1.2834-1.2968v-2.1594c0-.4681.3135-.8883.7838-1.0125 1.5576-.3916 2.7977-1.6082 2.7977-3.24155 0-5.94588-14.14068-5.85814-14.14068 0z" fill="url(#F)"/></g><g filter="url(#e)"><path d="m11.4788 7.26562v.37501c0 .42181.1922.84362.5766 1.08025l3.0367 1.79032c.5669.3601 1.2685.3601 1.8258 0l3.0367-1.79032c.3844-.24692.5766-.66873.5766-1.08025v-.37501z" fill="#733919"/></g><path d="m17.4055 5.11265-.4501-.2701c-.5903-.35013-1.3205-.35013-1.9007 0l-.4502.2701h-3.3112v2.10075c0 .41014.2001.82029.6002 1.05037l3.1612 1.87063c.5902.3502 1.3204.3502 1.9007 0l3.1611-1.87063c.4001-.24009.6002-.65023.6002-1.05037v-2.10075z" fill="url(#G)"/><path d="m17.4055 5.11265-.4501-.2701c-.5903-.35013-1.3205-.35013-1.9007 0l-.4502.2701h-3.3112v2.10075c0 .41014.2001.82029.6002 1.05037l3.1612 1.87063c.5902.3502 1.3204.3502 1.9007 0l3.1611-1.87063c.4001-.24009.6002-.65023.6002-1.05037v-2.10075z" fill="url(#H)"/><path d="m15.0547 2.26259-3.1612 1.87067c-.8002.47017-.8002 1.63058 0 2.11075l3.1612 1.87067c.5902.35012 1.3204.35012 1.9007 0l3.1611-1.87067c.8003-.47017.8003-1.63058 0-2.11075l-3.1611-1.87067c-.5903-.35012-1.3105-.35012-1.9007 0z" fill="url(#I)"/><circle cx="22.492" cy="26.922" fill="url(#K)" r="1.492"/><circle cx="24.52" cy="25.857" fill="url(#L)" r=".536"/><g filter="url(#f)"><path d="m19.5156 13.375c.7188-.625 3.4688-1.4531 3.2344-4-.625 1.7812-1.0195 2.3018-2.625 2.6562-1.2031.2657-1.2812 1.2032-1.2812 1.6876l.1093 3.0468h.3281c.0882-.5282-.1011-3.0989.2344-3.3906z" fill="url(#M)"/></g><g filter="url(#g)"><path d="m13.8281 17.0469c0 .138.112.25.25.25.1381 0 .25-.112.25-.25zm3.4545-2.7643c0 .1381.1119.25.25.25s.25-.1119.25-.25zm-2.9545 2.7643v-2.7643h-.5v2.7643zm0-2.7643c0-.3078.1588-.6966.4404-1.0119.2794-.3128.6498-.5207 1.044-.5207v-.5c-.5745 0-1.0713.3006-1.4169.6877-.3434.3845-.5675.8871-.5675 1.3449zm1.4844-1.5326c.3886 0 .7552.218 1.0341.541.2816.3262.436.716.436.9916h.5c0-.4275-.2213-.9289-.5575-1.3183-.339-.3925-.8325-.7143-1.4126-.7143z" fill="url(#N)"/></g><g filter="url(#h)"><path d="m21.3594 16.4375c2.3906 0 5.7344-1.5781 6.3906-4.9844" stroke="url(#O)" stroke-linecap="round" stroke-width=".3"/></g><g filter="url(#i)"><path d="m23.7818 28.2812c2.2182-.5937 4.9994-2.875 5.8432-6.8124" stroke="url(#P)" stroke-linecap="round" stroke-width=".3"/></g><g filter="url(#j)"><path d="m20.6953 5.27344c0 .28125-.1891.66406-.5391.91406-.3499.25-2.4166 1.375-3.5624 2.03125-.2489.14255-.8204.23437-1.336-.125" stroke="url(#Q)" stroke-linecap="round" stroke-width=".3"/></g></svg>