<svg fill="none" height="32" viewBox="0 0 32 32" width="32" xmlns="http://www.w3.org/2000/svg" xmlns:xlink="http://www.w3.org/1999/xlink"><linearGradient id="a"><stop offset=".324" stop-color="#b12a3c"/><stop offset=".609" stop-color="#d32c5d"/><stop offset=".88" stop-color="#de254c"/></linearGradient><linearGradient id="b" gradientUnits="userSpaceOnUse" x1="15.094" x2="18.219" xlink:href="#a" y1="16.656" y2="18.313"/><linearGradient id="c" gradientUnits="userSpaceOnUse" x1="20.891" x2="23.309" y1="7.422" y2="8.786"><stop offset=".272" stop-color="#35303c"/><stop offset=".615" stop-color="#544a61"/><stop offset=".964" stop-color="#443c4f"/></linearGradient><radialGradient id="d" cx="0" cy="0" gradientTransform="matrix(-.07812514 .78125046 -.92201637 -.09220175 24.0469 5.45313)" gradientUnits="userSpaceOnUse" r="1"><stop offset="0" stop-color="#655f6c"/><stop offset="1" stop-color="#5e5865" stop-opacity="0"/></radialGradient><linearGradient id="e" gradientUnits="userSpaceOnUse" x1="9.625" x2="12.125" xlink:href="#a" y1="16.007" y2="16.625"/><linearGradient id="f" gradientUnits="userSpaceOnUse" x1="12.313" x2="14.891" y1="5.082" y2="5.672"><stop offset=".272" stop-color="#35303c"/><stop offset=".615" stop-color="#544a62"/><stop offset=".964" stop-color="#443c4f"/></linearGradient><radialGradient id="g" cx="0" cy="0" gradientTransform="matrix(-.03124989 .65625038 -.78480071 -.03737131 14.7344 2.79688)" gradientUnits="userSpaceOnUse" r="1"><stop offset="0" stop-color="#605b68"/><stop offset="1" stop-color="#625d69" stop-opacity="0"/></radialGradient><path d="m9.84359 28.7139 12.30001-23.57002c.22-.41.65-.67 1.11-.67.97 0 1.58 1.05 1.1 1.9l-12.98 23.19002c-.16.27-.45.44-.76.44-.66001 0-1.08001-.7-.77001-1.29z" fill="url(#b)"/><path d="m21.8836 10.7939 2.47-4.41001c.49-.84-.12-1.9-1.1-1.9-.47 0-.89.26-1.11.67l-2.45 4.7c.74.28001 1.47.60001 2.19.94001z" fill="url(#c)"/><path d="m21.8836 10.7939 2.47-4.41001c.49-.84-.12-1.9-1.1-1.9-.47 0-.89.26-1.11.67l-2.45 4.7c.74.28001 1.47.60001 2.19.94001z" fill="url(#d)"/><path d="m7.02359 28.9338 5.78001-25.94996c.11-.45.45-.81.9-.93.94-.25 1.8.61 1.55 1.55l-6.54001 25.74996c-.08.3-.32.54-.62.62-.63.17-1.22-.4-1.07-1.04z" fill="url(#e)"/><path d="m14.0936 8.16383 1.16-4.57c.25-.94-.61-1.8-1.55-1.55-.45.12-.8.48-.9.93l-1.06 4.78c.79.11 1.58.25 2.35.41z" fill="url(#f)"/><path d="m14.0936 8.16383 1.16-4.57c.25-.94-.61-1.8-1.55-1.55-.45.12-.8.48-.9.93l-1.06 4.78c.79.11 1.58.25 2.35.41z" fill="url(#g)"/></svg>