<svg fill="none" height="32" viewBox="0 0 32 32" width="32" xmlns="http://www.w3.org/2000/svg" xmlns:xlink="http://www.w3.org/1999/xlink"><filter id="a" color-interpolation-filters="sRGB" filterUnits="userSpaceOnUse" height="13.811" width="13.811" x="2.25" y="9.222"><feFlood flood-opacity="0" result="BackgroundImageFix"/><feBlend in="SourceGraphic" in2="BackgroundImageFix" mode="normal" result="shape"/><feGaussianBlur result="effect1_foregroundBlur_6811_5229" stdDeviation=".75"/></filter><filter id="b" color-interpolation-filters="sRGB" filterUnits="userSpaceOnUse" height="13.811" width="13.811" x="13.938" y="8.659"><feFlood flood-opacity="0" result="BackgroundImageFix"/><feBlend in="SourceGraphic" in2="BackgroundImageFix" mode="normal" result="shape"/><feGaussianBlur result="effect1_foregroundBlur_6811_5229" stdDeviation=".75"/></filter><filter id="c" color-interpolation-filters="sRGB" filterUnits="userSpaceOnUse" height="5.058" width="5.213" x="9.987" y="3.521"><feFlood flood-opacity="0" result="BackgroundImageFix"/><feBlend in="SourceGraphic" in2="BackgroundImageFix" mode="normal" result="shape"/><feGaussianBlur result="effect1_foregroundBlur_6811_5229" stdDeviation=".5"/></filter><filter id="d" color-interpolation-filters="sRGB" filterUnits="userSpaceOnUse" height="5.058" width="5.213" x="24.967" y="3.521"><feFlood flood-opacity="0" result="BackgroundImageFix"/><feBlend in="SourceGraphic" in2="BackgroundImageFix" mode="normal" result="shape"/><feGaussianBlur result="effect1_foregroundBlur_6811_5229" stdDeviation=".5"/></filter><filter id="e" color-interpolation-filters="sRGB" filterUnits="userSpaceOnUse" height="4.489" width="3.844" x="16.562" y="17.749"><feFlood flood-opacity="0" result="BackgroundImageFix"/><feBlend in="SourceGraphic" in2="BackgroundImageFix" mode="normal" result="shape"/><feGaussianBlur result="effect1_foregroundBlur_6811_5229" stdDeviation=".5"/></filter><linearGradient id="f"><stop offset="0" stop-color="#fff478"/><stop offset=".475" stop-color="#ffb02e"/><stop offset="1" stop-color="#f70a8d"/></linearGradient><radialGradient id="g" cx="0" cy="0" gradientTransform="matrix(-25.50001559 27.49994029 -27.49994029 -25.50001559 25.5 9)" gradientUnits="userSpaceOnUse" r="1" xlink:href="#f"/><radialGradient id="h" cx="0" cy="0" gradientTransform="matrix(-26.00007659 28.99995257 -28.99995257 -26.00007659 25.5 9)" gradientUnits="userSpaceOnUse" r="1" xlink:href="#f"/><radialGradient id="i" cx="0" cy="0" gradientTransform="matrix(-3.50002684 17.50002696 -22.41420586 -4.48286864 16 12.5)" gradientUnits="userSpaceOnUse" r="1"><stop offset=".788" stop-color="#f59639" stop-opacity="0"/><stop offset=".973" stop-color="#ff7dce"/></radialGradient><radialGradient id="j" cx="0" cy="0" gradientTransform="matrix(-29.00000473 29.00000473 -29.00000473 -29.00000473 18 14)" gradientUnits="userSpaceOnUse" r="1"><stop offset=".315" stop-opacity="0"/><stop offset="1"/></radialGradient><radialGradient id="k" cx="0" cy="0" gradientTransform="matrix(5.99998476 27.49996659 -27.49996659 5.99998476 16 17)" gradientUnits="userSpaceOnUse" r="1"><stop offset=".508" stop-color="#7d6133" stop-opacity="0"/><stop offset="1" stop-color="#715b32"/></radialGradient><radialGradient id="l" cx="0" cy="0" gradientTransform="matrix(7.49998923 10.99997471 -7.97335607 5.43638383 16.5 16.5)" gradientUnits="userSpaceOnUse" r="1"><stop offset="0" stop-color="#ffb849"/><stop offset="1" stop-color="#ffb847" stop-opacity="0"/></radialGradient><radialGradient id="m" cx="0" cy="0" gradientTransform="matrix(11.49998262 1.99999761 -1.99999761 11.49998262 20.5 18)" gradientUnits="userSpaceOnUse" r="1"><stop offset="0" stop-color="#ffa64b"/><stop offset=".9" stop-color="#ffae46" stop-opacity="0"/></radialGradient><radialGradient id="n" cx="0" cy="0" gradientTransform="matrix(42.50000186 40.99993707 -40.99993707 42.50000186 17.5 15)" gradientUnits="userSpaceOnUse" r="1"><stop offset=".185" stop-opacity="0"/><stop offset="1" stop-opacity=".4"/></radialGradient><radialGradient id="o" cx="0" cy="0" gradientTransform="matrix(-6.12391024 7.37497591 -21.36998605 -17.74485474 9.87437 14.9716)" gradientUnits="userSpaceOnUse" r="1"><stop offset="0" stop-color="#a84d29"/><stop offset=".895" stop-color="#9c634d" stop-opacity="0"/></radialGradient><radialGradient id="p" cx="0" cy="0" gradientTransform="matrix(-6.12391024 7.37497591 -21.36998605 -17.74485474 6.12389 4.25)" gradientUnits="userSpaceOnUse" r="1"><stop offset="0" stop-color="#ce5628"/><stop offset=".802" stop-color="#ce5628" stop-opacity="0"/></radialGradient><linearGradient id="q"><stop offset="0" stop-color="#482641"/><stop offset=".521" stop-color="#54414f"/><stop offset=".964" stop-color="#482641"/></linearGradient><radialGradient id="r" cx="0" cy="0" gradientTransform="matrix(-2.25001037 -19.18752757 17.61579703 -2.06570262 9.4375 14.5965)" gradientUnits="userSpaceOnUse" r="1" xlink:href="#q"/><linearGradient id="s"><stop offset=".646" stop-color="#1a1819"/><stop offset="1" stop-color="#1a1819" stop-opacity="0"/></linearGradient><radialGradient id="t" cx="0" cy="0" gradientTransform="matrix(-1.62500571 -9.37499788 8.61802522 -1.49379662 9.625 16.284)" gradientUnits="userSpaceOnUse" r="1" xlink:href="#s"/><linearGradient id="u"><stop offset=".489" stop-color="#1a1819" stop-opacity="0"/><stop offset="1" stop-color="#1a1819"/></linearGradient><radialGradient id="v" cx="0" cy="0" gradientTransform="matrix(-10.34379106 4.34366896 -4.53086936 -10.78958053 10.5937 7.22154)" gradientUnits="userSpaceOnUse" r="1" xlink:href="#u"/><radialGradient id="w" cx="0" cy="0" gradientTransform="matrix(2.25001037 -19.18752757 17.61579703 2.06570262 22.5625 14.5965)" gradientUnits="userSpaceOnUse" r="1" xlink:href="#q"/><radialGradient id="x" cx="0" cy="0" gradientTransform="matrix(1.62500571 -9.37499788 8.61802522 1.49379662 22.375 16.284)" gradientUnits="userSpaceOnUse" r="1" xlink:href="#s"/><radialGradient id="y" cx="0" cy="0" gradientTransform="matrix(-5.68746116 -8.34376116 10.66449317 -7.26937043 25.2188 8.69029)" gradientUnits="userSpaceOnUse" r="1" xlink:href="#u"/><linearGradient id="z"><stop offset="0" stop-color="#947f8e"/><stop offset="1" stop-color="#947f8e" stop-opacity="0"/></linearGradient><radialGradient id="A" cx="0" cy="0" gradientTransform="matrix(-1.81567285 -5.22741158 2.11338661 -.73405712 13.8237 8.86102)" gradientUnits="userSpaceOnUse" r="1" xlink:href="#z"/><radialGradient id="B" cx="0" cy="0" gradientTransform="matrix(-1.81567285 -5.22741158 2.11338661 -.73405712 28.8036 8.86102)" gradientUnits="userSpaceOnUse" r="1" xlink:href="#z"/><radialGradient id="C" cx="0" cy="0" gradientTransform="matrix(0 14.6875 -35.3125 0 16.4375 17.284)" gradientUnits="userSpaceOnUse" r="1"><stop offset="0" stop-color="#482641"/><stop offset=".521" stop-color="#54414f"/><stop offset=".781" stop-color="#482641"/></radialGradient><radialGradient id="D" cx="0" cy="0" gradientTransform="matrix(-4.31248875 3.6875111 -3.54165721 -4.14191481 14.5625 20.5965)" gradientUnits="userSpaceOnUse" r="1"><stop offset="0" stop-color="#3f2628"/><stop offset="1" stop-color="#3f2628" stop-opacity="0"/></radialGradient><radialGradient id="E" cx="0" cy="0" gradientTransform="matrix(-.00055155 10.53379999 -20.04039997 -.00104931 16.0006 22.3753)" gradientUnits="userSpaceOnUse" r="1"><stop offset=".448" stop-color="#a72274" stop-opacity="0"/><stop offset="1" stop-color="#a72274"/></radialGradient><radialGradient id="F" cx="0" cy="0" gradientTransform="matrix(2.37082952 16.37991232 -18.00774937 2.60644275 16.4255 13)" gradientUnits="userSpaceOnUse" r="1"><stop offset="0" stop-color="#ffc42e"/><stop offset=".452" stop-color="#ffb02e"/><stop offset="1" stop-color="#f70a8d"/></radialGradient><linearGradient id="G" gradientUnits="userSpaceOnUse" x1="16" x2="16" y1="13" y2="17.192"><stop offset="0" stop-color="#a84d29"/><stop offset="1" stop-color="#9c634d" stop-opacity="0"/></linearGradient><radialGradient id="H" cx="0" cy="0" gradientTransform="matrix(2.91796583 1.5234271 -4.8878457 9.36215905 12.5349 16.0153)" gradientUnits="userSpaceOnUse" r="1"><stop offset="0" stop-color="#682e17"/><stop offset=".158" stop-color="#a84d29"/><stop offset="1" stop-color="#9c634d" stop-opacity="0"/></radialGradient><radialGradient id="I" cx="0" cy="0" gradientTransform="matrix(-2.70522184 2.87372487 -3.17900138 -2.99259824 19.5258 14.0418)" gradientUnits="userSpaceOnUse" r="1"><stop offset=".175" stop-color="#682e17"/><stop offset=".608" stop-color="#a84d29"/><stop offset="1" stop-color="#9c634d" stop-opacity="0"/></radialGradient><linearGradient id="J" gradientUnits="userSpaceOnUse" x1="17.706" x2="19.675" y1="19.25" y2="20.785"><stop offset=".328" stop-color="#fff478" stop-opacity=".5"/><stop offset="1" stop-color="#fff478" stop-opacity="0"/></linearGradient><linearGradient id="K" gradientUnits="userSpaceOnUse" x1="16.156" x2="16.156" y1="9.05" y2="15.472"><stop offset=".45" stop-color="#482641"/><stop offset=".55" stop-color="#5f4558"/><stop offset=".674" stop-color="#482641"/></linearGradient><linearGradient id="L"><stop offset=".452" stop-color="#482641"/><stop offset=".554" stop-color="#5f4558"/><stop offset=".7" stop-color="#482641"/><stop offset="1" stop-color="#482641"/></linearGradient><radialGradient id="M" cx="0" cy="0" gradientTransform="matrix(12.40627028 -2.749995 2.75741782 12.43975747 8.875 15.2215)" gradientUnits="userSpaceOnUse" r="1" xlink:href="#L"/><radialGradient id="N" cx="0" cy="0" gradientTransform="matrix(12.40627028 -2.749995 2.75741782 12.43975747 21.875 15.2215)" gradientUnits="userSpaceOnUse" r="1" xlink:href="#L"/><path d="m15.9989 29.9978c9.3344 0 13.9989-6.2675 13.9989-13.9989 0-7.73139-4.6645-13.9989-13.9989-13.9989-9.33447 0-13.9989 6.26751-13.9989 13.9989 0 7.7314 4.66443 13.9989 13.9989 13.9989z" fill="url(#g)"/><path d="m15.9989 29.9978c9.3344 0 13.9989-6.2675 13.9989-13.9989 0-7.73139-4.6645-13.9989-13.9989-13.9989-9.33447 0-13.9989 6.26751-13.9989 13.9989 0 7.7314 4.66443 13.9989 13.9989 13.9989z" fill="url(#h)"/><path d="m15.9989 29.9978c9.3344 0 13.9989-6.2675 13.9989-13.9989 0-7.73139-4.6645-13.9989-13.9989-13.9989-9.33447 0-13.9989 6.26751-13.9989 13.9989 0 7.7314 4.66443 13.9989 13.9989 13.9989z" fill="url(#i)"/><path d="m15.9989 29.9978c9.3344 0 13.9989-6.2675 13.9989-13.9989 0-7.73139-4.6645-13.9989-13.9989-13.9989-9.33447 0-13.9989 6.26751-13.9989 13.9989 0 7.7314 4.66443 13.9989 13.9989 13.9989z" fill="url(#j)" fill-opacity=".6"/><path d="m15.9989 29.9978c9.3344 0 13.9989-6.2675 13.9989-13.9989 0-7.73139-4.6645-13.9989-13.9989-13.9989-9.33447 0-13.9989 6.26751-13.9989 13.9989 0 7.7314 4.66443 13.9989 13.9989 13.9989z" fill="url(#k)"/><path d="m15.9989 29.9978c9.3344 0 13.9989-6.2675 13.9989-13.9989 0-7.73139-4.6645-13.9989-13.9989-13.9989-9.33447 0-13.9989 6.26751-13.9989 13.9989 0 7.7314 4.66443 13.9989 13.9989 13.9989z" fill="url(#l)"/><path d="m15.9989 29.9978c9.3344 0 13.9989-6.2675 13.9989-13.9989 0-7.73139-4.6645-13.9989-13.9989-13.9989-9.33447 0-13.9989 6.26751-13.9989 13.9989 0 7.7314 4.66443 13.9989 13.9989 13.9989z" fill="url(#m)"/><path d="m15.9989 29.9978c9.3344 0 13.9989-6.2675 13.9989-13.9989 0-7.73139-4.6645-13.9989-13.9989-13.9989-9.33447 0-13.9989 6.26751-13.9989 13.9989 0 7.7314 4.66443 13.9989 13.9989 13.9989z" fill="url(#n)"/><g filter="url(#a)"><circle cx="9.156" cy="16.127" fill="url(#o)" r="5.406"/></g><g filter="url(#b)"><circle fill="url(#p)" r="5.406" transform="matrix(-1 0 0 1 20.8438 15.5647)"/></g><g clip-rule="evenodd" fill-rule="evenodd"><path d="m9.87869 9.12131c-.82843-.82842-1.92893-.82842-2.75736.00002-1.17157 1.17157-3.07106 1.17157-4.24264.00002-1.17158-1.17157-1.17159-3.07106-.00002-4.24264 3.17157-3.1716 8.07103-3.1716 11.24263-.00006 1.1716 1.17157 1.1716 3.07106 0 4.24264-1.1715 1.17161-3.071 1.17161-4.24261.00002z" fill="url(#r)"/><path d="m9.87869 9.12131c-.82843-.82842-1.92893-.82842-2.75736.00002-1.17157 1.17157-3.07106 1.17157-4.24264.00002-1.17158-1.17157-1.17159-3.07106-.00002-4.24264 3.17157-3.1716 8.07103-3.1716 11.24263-.00006 1.1716 1.17157 1.1716 3.07106 0 4.24264-1.1715 1.17161-3.071 1.17161-4.24261.00002z" fill="url(#t)"/><path d="m9.87869 9.12131c-.82843-.82842-1.92893-.82842-2.75736.00002-1.17157 1.17157-3.07106 1.17157-4.24264.00002-1.17158-1.17157-1.17159-3.07106-.00002-4.24264 3.17157-3.1716 8.07103-3.1716 11.24263-.00006 1.1716 1.17157 1.1716 3.07106 0 4.24264-1.1715 1.17161-3.071 1.17161-4.24261.00002z" fill="url(#v)"/><path d="m22.1213 9.12131c.8284-.82842 1.9289-.82842 2.7574.00002 1.1715 1.17157 3.071 1.17157 4.2426.00002 1.1716-1.17157 1.1716-3.07106 0-4.24264-3.1715-3.1716-8.071-3.1716-11.2426-.00006-1.1716 1.17157-1.1716 3.07106 0 4.24264 1.1715 1.17161 3.071 1.17161 4.2426.00002z" fill="url(#w)"/><path d="m22.1213 9.12131c.8284-.82842 1.9289-.82842 2.7574.00002 1.1715 1.17157 3.071 1.17157 4.2426.00002 1.1716-1.17157 1.1716-3.07106 0-4.24264-3.1715-3.1716-8.071-3.1716-11.2426-.00006-1.1716 1.17157-1.1716 3.07106 0 4.24264 1.1715 1.17161 3.071 1.17161 4.2426.00002z" fill="url(#x)"/><path d="m22.1213 9.12131c.8284-.82842 1.9289-.82842 2.7574.00002 1.1715 1.17157 3.071 1.17157 4.2426.00002 1.1716-1.17157 1.1716-3.07106 0-4.24264-3.1715-3.1716-8.071-3.1716-11.2426-.00006-1.1716 1.17157-1.1716 3.07106 0 4.24264 1.1715 1.17161 3.071 1.17161 4.2426.00002z" fill="url(#y)"/></g><g filter="url(#c)"><ellipse cx="12.594" cy="6.05" fill="url(#A)" fill-opacity=".4" rx="1.23" ry="1.845" transform="matrix(.66023634 -.7510579 .7510579 .66023634 -.264714 11.514121)"/></g><g filter="url(#d)"><ellipse cx="27.574" cy="6.05" fill="url(#B)" fill-opacity=".4" rx="1.23" ry="1.845" transform="matrix(.66023634 -.7510579 .7510579 .66023634 4.824877 22.764818)"/></g><path d="m19.7655 28c-.6503 0-1.3006-.1908-1.8751-.5831l-.3793-.2651c-.9105-.6361-2.1353-.6255-3.0349.0212l-.2276.1591c-1.2682.9011-3.0674.8905-4.2055-.1697-1.53911-1.4207-1.32233-3.7638.3035-4.9194l3.7069-2.6399c1.1272-.7952 2.6446-.8058 3.7827-.0212l3.6852 2.5551c1.3765.9542 1.9077 2.7778 1.0947 4.2197-.6069 1.0708-1.7233 1.6433-2.8506 1.6433z" fill="url(#C)"/><path d="m19.7655 28c-.6503 0-1.3006-.1908-1.8751-.5831l-.3793-.2651c-.9105-.6361-2.1353-.6255-3.0349.0212l-.2276.1591c-1.2682.9011-3.0674.8905-4.2055-.1697-1.53911-1.4207-1.32233-3.7638.3035-4.9194l3.7069-2.6399c1.1272-.7952 2.6446-.8058 3.7827-.0212l3.6852 2.5551c1.3765.9542 1.9077 2.7778 1.0947 4.2197-.6069 1.0708-1.7233 1.6433-2.8506 1.6433z" fill="url(#D)"/><path d="m19.7655 28c-.6503 0-1.3006-.1908-1.8751-.5831l-.3793-.2651c-.9105-.6361-2.1353-.6255-3.0349.0212l-.2276.1591c-1.2682.9011-3.0674.8905-4.2055-.1697-1.53911-1.4207-1.32233-3.7638.3035-4.9194l3.7069-2.6399c1.1272-.7952 2.6446-.8058 3.7827-.0212l3.6852 2.5551c1.3765.9542 1.9077 2.7778 1.0947 4.2197-.6069 1.0708-1.7233 1.6433-2.8506 1.6433z" fill="url(#E)"/><path d="m17.9179 22.9715h-3.8349c-1.427 0-2.458-1.6875-1.5361-3.0904 0 0 2.2812-2.7221 2.4378-6.8811h2.0612c-.093 3.4868 1.7789 6.0545 2.3135 6.7146.0921.1138.1805.2297.2413.3629.6373 1.3975-.3294 2.894-1.6828 2.894z" fill="url(#F)"/><path d="m17.9179 22.9715h-3.8349c-1.427 0-2.458-1.6875-1.5361-3.0904 0 0 2.2812-2.7221 2.4378-6.8811h2.0612c-.093 3.4868 1.7789 6.0545 2.3135 6.7146.0921.1138.1805.2297.2413.3629.6373 1.3975-.3294 2.894-1.6828 2.894z" fill="url(#G)"/><path d="m17.9179 22.9715h-3.8349c-1.427 0-2.458-1.6875-1.5361-3.0904 0 0 2.2812-2.7221 2.4378-6.8811h2.0612c-.093 3.4868 1.7789 6.0545 2.3135 6.7146.0921.1138.1805.2297.2413.3629.6373 1.3975-.3294 2.894-1.6828 2.894z" fill="url(#H)"/><path d="m17.9179 22.9715h-3.8349c-1.427 0-2.458-1.6875-1.5361-3.0904 0 0 2.2812-2.7221 2.4378-6.8811h2.0612c-.093 3.4868 1.7789 6.0545 2.3135 6.7146.0921.1138.1805.2297.2413.3629.6373 1.3975-.3294 2.894-1.6828 2.894z" fill="url(#I)"/><g filter="url(#e)"><path d="m18.0625 19.2495c.1458.3232.5188 1.0733.8437 1.4888" stroke="url(#J)" stroke-linecap="round" stroke-opacity=".75"/></g><path d="m1 13c0-.5523.44772-1 1-1h28c.5523 0 1 .4477 1 1 0 .5523-.4477 1-1 1h-28c-.55228 0-1-.4477-1-1z" fill="url(#K)"/><path clip-rule="evenodd" d="m9.5 9c-2.48528 0-4.5 2.0147-4.5 4.5s2.01472 4.5 4.5 4.5c2.4853 0 4.5-2.0147 4.5-4.5s-2.0147-4.5-4.5-4.5zm-5.5 4.5c0-3.0376 2.46243-5.5 5.5-5.5 3.0376 0 5.5 2.4624 5.5 5.5s-2.4624 5.5-5.5 5.5c-3.03757 0-5.5-2.4624-5.5-5.5z" fill="url(#M)" fill-rule="evenodd"/><path clip-rule="evenodd" d="m22.5 9.00733c-2.4812 0-4.4927 2.01147-4.4927 4.49267s2.0115 4.4927 4.4927 4.4927 4.4927-2.0115 4.4927-4.4927-2.0115-4.49267-4.4927-4.49267zm-5.5 4.49267c0-3.0376 2.4624-5.5 5.5-5.5s5.5 2.4624 5.5 5.5-2.4624 5.5-5.5 5.5-5.5-2.4624-5.5-5.5z" fill="url(#N)" fill-rule="evenodd"/><path clip-rule="evenodd" d="m14 13.5c0 2.4853-2.0147 4.5-4.5 4.5-2.48528 0-4.5-2.0147-4.5-4.5s2.01472-4.5 4.5-4.5c2.4853 0 4.5 2.0147 4.5 4.5zm13 0c0 2.4853-2.0147 4.5-4.5 4.5s-4.5-2.0147-4.5-4.5 2.0147-4.5 4.5-4.5 4.5 2.0147 4.5 4.5z" fill="#fff" fill-rule="evenodd"/><path clip-rule="evenodd" d="m10.5 11c-1.38105 0-2.5 1.119-2.5 2.5s1.11895 2.5 2.5 2.5c1.381 0 2.5-1.119 2.5-2.5s-1.119-2.5-2.5-2.5zm11 0c-1.381 0-2.5 1.119-2.5 2.5s1.119 2.5 2.5 2.5 2.5-1.119 2.5-2.5-1.119-2.5-2.5-2.5z" fill="#402a32" fill-rule="evenodd"/></svg>