<svg fill="none" height="33" viewBox="0 0 32 33" width="32" xmlns="http://www.w3.org/2000/svg" xmlns:xlink="http://www.w3.org/1999/xlink"><filter id="a" color-interpolation-filters="sRGB" filterUnits="userSpaceOnUse" height="5.028" width="2.856" x="13.744" y="22.114"><feFlood flood-opacity="0" result="BackgroundImageFix"/><feBlend in="SourceGraphic" in2="BackgroundImageFix" mode="normal" result="shape"/><feGaussianBlur result="effect1_foregroundBlur_28327_3546" stdDeviation=".3"/></filter><filter id="b" color-interpolation-filters="sRGB" filterUnits="userSpaceOnUse" height="6.075" width="2.422" x="21.694" y="21.067"><feFlood flood-opacity="0" result="BackgroundImageFix"/><feBlend in="SourceGraphic" in2="BackgroundImageFix" mode="normal" result="shape"/><feGaussianBlur result="effect1_foregroundBlur_28327_3546" stdDeviation=".3"/></filter><filter id="c" color-interpolation-filters="sRGB" filterUnits="userSpaceOnUse" height="11.031" width="3.688" x="26.281" y="16.199"><feFlood flood-opacity="0" result="BackgroundImageFix"/><feBlend in="SourceGraphic" in2="BackgroundImageFix" mode="normal" result="shape"/><feGaussianBlur result="effect1_foregroundBlur_28327_3546" stdDeviation=".5"/></filter><filter id="d" color-interpolation-filters="sRGB" filterUnits="userSpaceOnUse" height="9.522" width="7.979" x="11.589" y="5.968"><feFlood flood-opacity="0" result="BackgroundImageFix"/><feBlend in="SourceGraphic" in2="BackgroundImageFix" mode="normal" result="shape"/><feGaussianBlur result="effect1_foregroundBlur_28327_3546" stdDeviation=".5"/></filter><filter id="e" color-interpolation-filters="sRGB" filterUnits="userSpaceOnUse" height="6.869" width="6.088" x="7.081" y="19.561"><feFlood flood-opacity="0" result="BackgroundImageFix"/><feBlend in="SourceGraphic" in2="BackgroundImageFix" mode="normal" result="shape"/><feGaussianBlur result="effect1_foregroundBlur_28327_3546" stdDeviation=".6"/></filter><filter id="f" color-interpolation-filters="sRGB" filterUnits="userSpaceOnUse" height="11.794" width="12.25" x="18" y="8.417"><feFlood flood-opacity="0" result="BackgroundImageFix"/><feBlend in="SourceGraphic" in2="BackgroundImageFix" mode="normal" result="shape"/><feGaussianBlur result="effect1_foregroundBlur_28327_3546" stdDeviation=".5"/></filter><linearGradient id="g" gradientUnits="userSpaceOnUse" x1="2.777" x2="2.777" y1="15.121" y2="12.73"><stop offset="0" stop-color="#88868a"/><stop offset="1" stop-color="#c6c2cb"/></linearGradient><linearGradient id="h" gradientUnits="userSpaceOnUse" x1="4.188" x2="3.563" y1="14.808" y2="14.761"><stop offset=".137" stop-color="#636165"/><stop offset="1" stop-color="#636165" stop-opacity="0"/></linearGradient><radialGradient id="i" cx="0" cy="0" gradientTransform="matrix(-1.09376074 1.39062103 -.36617518 -.2880066 4.14063 11.6362)" gradientUnits="userSpaceOnUse" r="1"><stop offset="0" stop-color="#d4d2d7"/><stop offset="1" stop-color="#d4d2d7" stop-opacity="0"/></radialGradient><linearGradient id="j" gradientUnits="userSpaceOnUse" x1="7.625" x2="7.406" y1="11.31" y2="9.292"><stop offset="0" stop-color="#6a696c"/><stop offset="1" stop-color="#7a777c"/></linearGradient><radialGradient id="k" cx="0" cy="0" gradientTransform="matrix(.47656104 -2.22656081 1.2388318 .26515286 6.69531 11.2456)" gradientUnits="userSpaceOnUse" r="1"><stop offset=".875" stop-color="#828184" stop-opacity="0"/><stop offset="1" stop-color="#8e8e8e"/></radialGradient><linearGradient id="l"><stop offset="0" stop-color="#4d3d5b"/><stop offset="1" stop-color="#4d3d5b" stop-opacity="0"/></linearGradient><radialGradient id="m" cx="0" cy="0" gradientTransform="matrix(-3.31249532 3.43750574 -2.05686955 -1.98206818 22.1875 20.98)" gradientUnits="userSpaceOnUse" r="1" xlink:href="#l"/><linearGradient id="n" gradientUnits="userSpaceOnUse" x1="24.719" x2="23.031" y1="24.761" y2="24.996"><stop offset="0" stop-color="#4d3d5b"/><stop offset=".988" stop-color="#4d3d5b" stop-opacity="0"/></linearGradient><linearGradient id="o" gradientUnits="userSpaceOnUse" x1="19.656" x2="23.031" y1="24.636" y2="24.996"><stop offset="0" stop-color="#4d3d5b"/><stop offset=".325" stop-color="#4d3d5b" stop-opacity="0"/></linearGradient><linearGradient id="p"><stop offset="0" stop-color="#715986"/><stop offset=".448" stop-color="#715986" stop-opacity="0"/></linearGradient><linearGradient id="q" gradientUnits="userSpaceOnUse" x1="23.735" x2="23.735" xlink:href="#p" y1="27.136" y2="26.064"/><linearGradient id="r" gradientUnits="userSpaceOnUse" x1="14.813" x2="13.813" y1="22.386" y2="25.418"><stop offset="0" stop-color="#4d3d5b"/><stop offset=".762" stop-color="#4d3d5b" stop-opacity="0"/></linearGradient><linearGradient id="s" gradientUnits="userSpaceOnUse" x1="11.813" x2="13.813" xlink:href="#l" y1="24.761" y2="25.418"/><linearGradient id="t" gradientUnits="userSpaceOnUse" x1="12.796" x2="12.796" xlink:href="#p" y1="27.136" y2="26.064"/><linearGradient id="u" gradientUnits="userSpaceOnUse" x1="25.176" x2="25.176" y1="27.277" y2="24.557"><stop offset="0" stop-color="#715986"/><stop offset=".241" stop-color="#715986" stop-opacity="0"/></linearGradient><linearGradient id="v"><stop offset="0" stop-color="#6c6a6f"/><stop offset=".901" stop-color="#6c6a6f" stop-opacity="0"/></linearGradient><radialGradient id="w" cx="0" cy="0" gradientTransform="matrix(2.1874986 4.53125269 -3.01142736 1.45379073 4.84375 12.48)" gradientUnits="userSpaceOnUse" r="1" xlink:href="#v"/><radialGradient id="x" cx="0" cy="0" gradientTransform="matrix(4.24999623 3.75000121 -3.90170454 4.42192646 .78125 13.2925)" gradientUnits="userSpaceOnUse" r="1" xlink:href="#v"/><radialGradient id="y" cx="0" cy="0" gradientTransform="matrix(5.53125268 7.65625105 -3.76350514 2.7189414 8.5 8.51123)" gradientUnits="userSpaceOnUse" r="1"><stop offset=".304" stop-color="#6c6a6f"/><stop offset="1" stop-color="#6c6a6f" stop-opacity="0"/></radialGradient><linearGradient id="z"><stop offset="0" stop-color="#6c587f"/><stop offset=".847" stop-color="#6c587f" stop-opacity="0"/></linearGradient><radialGradient id="A" cx="0" cy="0" gradientTransform="matrix(5.31250339 -2.09375403 1.10227879 2.79682318 6.28125 19.855)" gradientUnits="userSpaceOnUse" r="1" xlink:href="#z"/><radialGradient id="B" cx="0" cy="0" gradientTransform="matrix(1.75000458 -6.74999588 2.75720308 .71483274 25.5 23.23)" gradientUnits="userSpaceOnUse" r="1" xlink:href="#z"/><radialGradient id="C" cx="0" cy="0" gradientTransform="matrix(.722473 0 0 1.39063 3.28125 17.4175)" gradientUnits="userSpaceOnUse" r="1"><stop offset="0" stop-color="#67656a"/><stop offset=".714" stop-color="#4e4c50"/></radialGradient><radialGradient id="D" cx="0" cy="0" gradientTransform="matrix(-.40625364 .56249786 -.50148884 -.36219101 7.42969 14.2378)" gradientUnits="userSpaceOnUse" r="1"><stop offset=".006" stop-color="#433437"/><stop offset="1" stop-color="#3b2838"/></radialGradient><radialGradient id="E" cx="0" cy="0" gradientTransform="matrix(-.21874803 .29687615 -.25025354 -.18439498 7.44531 14.2925)" gradientUnits="userSpaceOnUse" r="1"><stop offset="0" stop-color="#5c5051"/><stop offset="1" stop-color="#5c5051" stop-opacity="0"/></radialGradient><radialGradient id="F" cx="0" cy="0" gradientTransform="matrix(2.35937718 .90625178 -.51406761 1.33834705 7.75 20.6675)" gradientUnits="userSpaceOnUse" r="1"><stop offset="0" stop-color="#615e63"/><stop offset=".901" stop-color="#615e63" stop-opacity="0"/></radialGradient><radialGradient id="G" cx="0" cy="0" gradientTransform="matrix(-2.87499126 -1.65626612 1.02059578 -1.77157759 11.7031 25.0112)" gradientUnits="userSpaceOnUse" r="1"><stop offset=".078" stop-color="#805ea0"/><stop offset="1" stop-color="#6c587f" stop-opacity="0"/></radialGradient><linearGradient id="H" gradientUnits="userSpaceOnUse" x1="8.641" x2="8.641" y1="26.371" y2="25.277"><stop offset=".286" stop-color="#805ea0"/><stop offset=".757" stop-color="#6c587f" stop-opacity="0"/></linearGradient><radialGradient id="I" cx="0" cy="0" gradientTransform="matrix(-2.03125545 -1.18749304 .98328905 -1.68195617 12.5 23.355)" gradientUnits="userSpaceOnUse" r="1"><stop offset="0" stop-color="#8f8898"/><stop offset="1" stop-color="#8f8898" stop-opacity="0"/></radialGradient><linearGradient id="J"><stop offset="0" stop-color="#8a8392" stop-opacity="0"/><stop offset="1" stop-color="#8a8392"/></linearGradient><linearGradient id="K" gradientUnits="userSpaceOnUse" x1="14.827" x2="15.311" xlink:href="#J" y1="23.511" y2="26.526"/><linearGradient id="L" gradientUnits="userSpaceOnUse" x1="22.814" x2="22.33" xlink:href="#J" y1="23.511" y2="26.526"/><linearGradient id="M" gradientUnits="userSpaceOnUse" x1="28.617" x2="28.617" y1="26.873" y2="16.168"><stop offset="0" stop-color="#a19ca6"/><stop offset="1" stop-color="#a19ca6" stop-opacity="0"/></linearGradient><radialGradient id="N" cx="0" cy="0" gradientTransform="matrix(.57106541 6.31389737 -3.86019312 .3491382 16.3895 8.97344)" gradientUnits="userSpaceOnUse" r="1"><stop offset="0" stop-color="#97939a"/><stop offset=".814" stop-color="#8d8c8e" stop-opacity="0"/></radialGradient><radialGradient id="O" cx="0" cy="0" gradientTransform="matrix(-.8892004 7.99999433 -11.77309874 -1.30858144 17.4205 14.98)" gradientUnits="userSpaceOnUse" r="1"><stop offset=".777" stop-color="#6c587f" stop-opacity="0"/><stop offset="1" stop-color="#77509c"/></radialGradient><linearGradient id="P"><stop offset="0" stop-color="#6c587f"/><stop offset="1" stop-color="#6c587f" stop-opacity="0"/></linearGradient><radialGradient id="Q" cx="0" cy="0" gradientTransform="matrix(-5.74995967 -8.21881342 5.98219492 -4.18520019 15.9375 26.5737)" gradientUnits="userSpaceOnUse" r="1" xlink:href="#P"/><radialGradient id="R" cx="0" cy="0" gradientTransform="matrix(-3.62500426 -4.90625072 2.20314638 -1.62780409 13.8125 23.2612)" gradientUnits="userSpaceOnUse" r="1"><stop offset="0" stop-color="#6c587f"/><stop offset=".676" stop-color="#6c587f" stop-opacity="0"/></radialGradient><radialGradient id="S" cx="0" cy="0" gradientTransform="matrix(-2.18748553 -10.3125492 10.9563254 -2.32404256 18.3437 26.98)" gradientUnits="userSpaceOnUse" r="1" xlink:href="#P"/><linearGradient id="T"><stop offset="0" stop-color="#807c84"/><stop offset="1" stop-color="#807c84" stop-opacity="0"/></linearGradient><linearGradient id="U" gradientUnits="userSpaceOnUse" x1="13.031" x2="14.156" xlink:href="#T" y1="22.636" y2="22.105"/><linearGradient id="V" gradientUnits="userSpaceOnUse" x1="24.75" x2="24.094" xlink:href="#T" y1="21.136" y2="21.043"/><linearGradient id="W" gradientUnits="userSpaceOnUse" x1="9.906" x2="13.438" y1="25.011" y2="18.418"><stop offset="0" stop-color="#a6a1ac"/><stop offset="1" stop-color="#a6a1ac" stop-opacity="0"/></linearGradient><radialGradient id="X" cx="0" cy="0" gradientTransform="matrix(-8.12499438 6.99995475 -4.18090728 -4.85286683 28.3125 11.5549)" gradientUnits="userSpaceOnUse" r="1"><stop offset="0" stop-color="#97939a"/><stop offset=".791" stop-color="#8d8c8e" stop-opacity="0"/></radialGradient><linearGradient id="Y" gradientUnits="userSpaceOnUse" x1="30.594" x2="26.813" y1="11.136" y2="13.324"><stop offset="0" stop-color="#989798"/><stop offset="1" stop-color="#989798" stop-opacity="0"/></linearGradient><path d="m3.90625 12.1999c0-.12-.11-.22-.24-.21-.99.12-1.885.96-1.885 1.99v1.8282h2.125s0-2.9182 0-3.6082z" fill="url(#g)"/><path d="m3.90625 12.1999c0-.12-.11-.22-.24-.21-.99.12-1.885.96-1.885 1.99v1.8282h2.125s0-2.9182 0-3.6082z" fill="url(#h)"/><path d="m3.90625 12.1999c0-.12-.11-.22-.24-.21-.99.12-1.885.96-1.885 1.99v1.8282h2.125s0-2.9182 0-3.6082z" fill="url(#i)"/><path d="m7.01125 8.97998c.42 0 .77.34.77.76v1.24002l-.83.33-.61-1.22c-.27-.51002.1-1.11002.67-1.11002z" fill="url(#j)"/><path d="m7.01125 8.97998c.42 0 .77.34.77.76v1.24002l-.83.33-.61-1.22c-.27-.51002.1-1.11002.67-1.11002z" fill="url(#k)"/><path d="m20.7476 19.0425h3.7212l-.8177 7.7138c-.0134.1272-.1207.2237-.2486.2237h-3.2184c-.1484 0-.2642-.1287-.2486-.2764z" fill="#6f647a"/><path d="m20.7476 19.0425h3.7212l-.8177 7.7138c-.0134.1272-.1207.2237-.2486.2237h-3.2184c-.1484 0-.2642-.1287-.2486-.2764z" fill="url(#m)"/><path d="m20.7476 19.0425h3.7212l-.8177 7.7138c-.0134.1272-.1207.2237-.2486.2237h-3.2184c-.1484 0-.2642-.1287-.2486-.2764z" fill="url(#n)"/><path d="m20.7476 19.0425h3.7212l-.8177 7.7138c-.0134.1272-.1207.2237-.2486.2237h-3.2184c-.1484 0-.2642-.1287-.2486-.2764z" fill="url(#o)"/><path d="m20.7476 19.0425h3.7212l-.8177 7.7138c-.0134.1272-.1207.2237-.2486.2237h-3.2184c-.1484 0-.2642-.1287-.2486-.2764z" fill="url(#q)"/><path d="m15.7837 19.0425h-3.7212l.8176 7.7138c.0135.1272.1207.2237.2486.2237h3.2184c.1485 0 .2643-.1287.2486-.2764z" fill="#71667c"/><path d="m15.7837 19.0425h-3.7212l.8176 7.7138c.0135.1272.1207.2237.2486.2237h3.2184c.1485 0 .2643-.1287.2486-.2764z" fill="url(#r)"/><path d="m15.7837 19.0425h-3.7212l.8176 7.7138c.0135.1272.1207.2237.2486.2237h3.2184c.1485 0 .2643-.1287.2486-.2764z" fill="url(#s)"/><path d="m15.7837 19.0425h-3.7212l.8176 7.7138c.0135.1272.1207.2237.2486.2237h3.2184c.1485 0 .2643-.1287.2486-.2764z" fill="url(#t)"/><path d="m24.6012 8.97998h-4.8099c-.7901 0-1.5401-.36-2.0101-.99-.9099-1.22-2.3599-2.01-4-2.01h-.1499c-2.48.07-4.43005 2.15-4.43005 4.63002 0 .2043-.16565.37-.37.37h-1.78c-1.26 0-2.27 1.02-2.27 2.27v1.42c0 .17-.14.31-.32.31h-2.18c-.27614 0-.5.2238-.5.5v2c0 1.38 1.11 2.5 2.5 2.5h4.12866c.27412 0 .49634.2222.49634.4963 0 .2062-.12743.3909-.32016.464l-.66658.2531c-1.1649.4423-1.93513 1.5586-1.93513 2.8047v1.3725c0 .2761.22385.5.5.5h3c.27614 0 .5-.2239.5-.5v-.1651c0-.3115.19252-.5906.48382-.7011l.5029-.191c.9429-.358 1.6273-1.1577 1.8538-2.1102.0399-.1678.2237-.2685.381-.1978 1.3955.6266 2.9443.9746 4.5754.9746 2.1326 0 4.6034-.9488 6.3563-2.0286.2036-.1253.4679-.0987.6358.0715l.6781.6871c.17.17.27.41.27.66v4.3c0 .17.14.31.31.31h3.3048c.17 0 .3099-.14.3099-.31l.01-12.52c0-2.85-2.1949-5.17002-5.055-5.17002z" fill="#807c84"/><path d="m24.6012 8.97998h-4.8099c-.7901 0-1.5401-.36-2.0101-.99-.9099-1.22-2.3599-2.01-4-2.01h-.1499c-2.48.07-4.43005 2.15-4.43005 4.63002 0 .2043-.16565.37-.37.37h-1.78c-1.26 0-2.27 1.02-2.27 2.27v1.42c0 .17-.14.31-.32.31h-2.18c-.27614 0-.5.2238-.5.5v2c0 1.38 1.11 2.5 2.5 2.5h4.12866c.27412 0 .49634.2222.49634.4963 0 .2062-.12743.3909-.32016.464l-.66658.2531c-1.1649.4423-1.93513 1.5586-1.93513 2.8047v1.3725c0 .2761.22385.5.5.5h3c.27614 0 .5-.2239.5-.5v-.1651c0-.3115.19252-.5906.48382-.7011l.5029-.191c.9429-.358 1.6273-1.1577 1.8538-2.1102.0399-.1678.2237-.2685.381-.1978 1.3955.6266 2.9443.9746 4.5754.9746 2.1326 0 4.6034-.9488 6.3563-2.0286.2036-.1253.4679-.0987.6358.0715l.6781.6871c.17.17.27.41.27.66v4.3c0 .17.14.31.31.31h3.3048c.17 0 .3099-.14.3099-.31l.01-12.52c0-2.85-2.1949-5.17002-5.055-5.17002z" fill="url(#u)"/><path d="m24.6012 8.97998h-4.8099c-.7901 0-1.5401-.36-2.0101-.99-.9099-1.22-2.3599-2.01-4-2.01h-.1499c-2.48.07-4.43005 2.15-4.43005 4.63002 0 .2043-.16565.37-.37.37h-1.78c-1.26 0-2.27 1.02-2.27 2.27v1.42c0 .17-.14.31-.32.31h-2.18c-.27614 0-.5.2238-.5.5v2c0 1.38 1.11 2.5 2.5 2.5h4.12866c.27412 0 .49634.2222.49634.4963 0 .2062-.12743.3909-.32016.464l-.66658.2531c-1.1649.4423-1.93513 1.5586-1.93513 2.8047v1.3725c0 .2761.22385.5.5.5h3c.27614 0 .5-.2239.5-.5v-.1651c0-.3115.19252-.5906.48382-.7011l.5029-.191c.9429-.358 1.6273-1.1577 1.8538-2.1102.0399-.1678.2237-.2685.381-.1978 1.3955.6266 2.9443.9746 4.5754.9746 2.1326 0 4.6034-.9488 6.3563-2.0286.2036-.1253.4679-.0987.6358.0715l.6781.6871c.17.17.27.41.27.66v4.3c0 .17.14.31.31.31h3.3048c.17 0 .3099-.14.3099-.31l.01-12.52c0-2.85-2.1949-5.17002-5.055-5.17002z" fill="url(#w)"/><path d="m24.6012 8.97998h-4.8099c-.7901 0-1.5401-.36-2.0101-.99-.9099-1.22-2.3599-2.01-4-2.01h-.1499c-2.48.07-4.43005 2.15-4.43005 4.63002 0 .2043-.16565.37-.37.37h-1.78c-1.26 0-2.27 1.02-2.27 2.27v1.42c0 .17-.14.31-.32.31h-2.18c-.27614 0-.5.2238-.5.5v2c0 1.38 1.11 2.5 2.5 2.5h4.12866c.27412 0 .49634.2222.49634.4963 0 .2062-.12743.3909-.32016.464l-.66658.2531c-1.1649.4423-1.93513 1.5586-1.93513 2.8047v1.3725c0 .2761.22385.5.5.5h3c.27614 0 .5-.2239.5-.5v-.1651c0-.3115.19252-.5906.48382-.7011l.5029-.191c.9429-.358 1.6273-1.1577 1.8538-2.1102.0399-.1678.2237-.2685.381-.1978 1.3955.6266 2.9443.9746 4.5754.9746 2.1326 0 4.6034-.9488 6.3563-2.0286.2036-.1253.4679-.0987.6358.0715l.6781.6871c.17.17.27.41.27.66v4.3c0 .17.14.31.31.31h3.3048c.17 0 .3099-.14.3099-.31l.01-12.52c0-2.85-2.1949-5.17002-5.055-5.17002z" fill="url(#x)"/><path d="m24.6012 8.97998h-4.8099c-.7901 0-1.5401-.36-2.0101-.99-.9099-1.22-2.3599-2.01-4-2.01h-.1499c-2.48.07-4.43005 2.15-4.43005 4.63002 0 .2043-.16565.37-.37.37h-1.78c-1.26 0-2.27 1.02-2.27 2.27v1.42c0 .17-.14.31-.32.31h-2.18c-.27614 0-.5.2238-.5.5v2c0 1.38 1.11 2.5 2.5 2.5h4.12866c.27412 0 .49634.2222.49634.4963 0 .2062-.12743.3909-.32016.464l-.66658.2531c-1.1649.4423-1.93513 1.5586-1.93513 2.8047v1.3725c0 .2761.22385.5.5.5h3c.27614 0 .5-.2239.5-.5v-.1651c0-.3115.19252-.5906.48382-.7011l.5029-.191c.9429-.358 1.6273-1.1577 1.8538-2.1102.0399-.1678.2237-.2685.381-.1978 1.3955.6266 2.9443.9746 4.5754.9746 2.1326 0 4.6034-.9488 6.3563-2.0286.2036-.1253.4679-.0987.6358.0715l.6781.6871c.17.17.27.41.27.66v4.3c0 .17.14.31.31.31h3.3048c.17 0 .3099-.14.3099-.31l.01-12.52c0-2.85-2.1949-5.17002-5.055-5.17002z" fill="url(#y)"/><path d="m24.6012 8.97998h-4.8099c-.7901 0-1.5401-.36-2.0101-.99-.9099-1.22-2.3599-2.01-4-2.01h-.1499c-2.48.07-4.43005 2.15-4.43005 4.63002 0 .2043-.16565.37-.37.37h-1.78c-1.26 0-2.27 1.02-2.27 2.27v1.42c0 .17-.14.31-.32.31h-2.18c-.27614 0-.5.2238-.5.5v2c0 1.38 1.11 2.5 2.5 2.5h4.12866c.27412 0 .49634.2222.49634.4963 0 .2062-.12743.3909-.32016.464l-.66658.2531c-1.1649.4423-1.93513 1.5586-1.93513 2.8047v1.3725c0 .2761.22385.5.5.5h3c.27614 0 .5-.2239.5-.5v-.1651c0-.3115.19252-.5906.48382-.7011l.5029-.191c.9429-.358 1.6273-1.1577 1.8538-2.1102.0399-.1678.2237-.2685.381-.1978 1.3955.6266 2.9443.9746 4.5754.9746 2.1326 0 4.6034-.9488 6.3563-2.0286.2036-.1253.4679-.0987.6358.0715l.6781.6871c.17.17.27.41.27.66v4.3c0 .17.14.31.31.31h3.3048c.17 0 .3099-.14.3099-.31l.01-12.52c0-2.85-2.1949-5.17002-5.055-5.17002z" fill="url(#A)"/><path d="m24.6012 8.97998h-4.8099c-.7901 0-1.5401-.36-2.0101-.99-.9099-1.22-2.3599-2.01-4-2.01h-.1499c-2.48.07-4.43005 2.15-4.43005 4.63002 0 .2043-.16565.37-.37.37h-1.78c-1.26 0-2.27 1.02-2.27 2.27v1.42c0 .17-.14.31-.32.31h-2.18c-.27614 0-.5.2238-.5.5v2c0 1.38 1.11 2.5 2.5 2.5h4.12866c.27412 0 .49634.2222.49634.4963 0 .2062-.12743.3909-.32016.464l-.66658.2531c-1.1649.4423-1.93513 1.5586-1.93513 2.8047v1.3725c0 .2761.22385.5.5.5h3c.27614 0 .5-.2239.5-.5v-.1651c0-.3115.19252-.5906.48382-.7011l.5029-.191c.9429-.358 1.6273-1.1577 1.8538-2.1102.0399-.1678.2237-.2685.381-.1978 1.3955.6266 2.9443.9746 4.5754.9746 2.1326 0 4.6034-.9488 6.3563-2.0286.2036-.1253.4679-.0987.6358.0715l.6781.6871c.17.17.27.41.27.66v4.3c0 .17.14.31.31.31h3.3048c.17 0 .3099-.14.3099-.31l.01-12.52c0-2.85-2.1949-5.17002-5.055-5.17002z" fill="url(#B)"/><path d="m3.50372 18.03c-.28 0-.5-.22-.5-.5v-.55c0-.28.22-.5.5-.5s.5.22.5.5v.55c0 .27-.22.5-.5.5z" fill="url(#C)"/><path d="m7.28125 14.8987c.27614 0 .5-.2239.5-.5 0-.2762-.22386-.5-.5-.5s-.5.2238-.5.5c0 .2761.22386.5.5.5z" fill="url(#D)"/><path d="m7.28125 14.8987c.27614 0 .5-.2239.5-.5 0-.2762-.22386-.5-.5-.5s-.5.2238-.5.5c0 .2761.22386.5.5.5z" fill="url(#E)"/><g clip-rule="evenodd" fill-rule="evenodd"><path d="m12.9062 17.5112v3.9976c0 1.246-.7702 2.3623-1.9351 2.8046l-.5029.191c-.2913.1105-.48382.3896-.48382.7011v.1651c0 .2761-.22386.5-.5.5h-3c-.27615 0-.5-.2239-.5-.5v-1.3725c0-1.2461.77023-2.3624 1.93513-2.8047l.66422-.2522c.19415-.0737.32252-.2597.32252-.4674v-2.9626z" fill="url(#F)"/><path d="m12.9062 17.5112v3.9976c0 1.246-.7702 2.3623-1.9351 2.8046l-.5029.191c-.2913.1105-.48382.3896-.48382.7011v.1651c0 .2761-.22386.5-.5.5h-3c-.27615 0-.5-.2239-.5-.5v-1.3725c0-1.2461.77023-2.3624 1.93513-2.8047l.66422-.2522c.19415-.0737.32252-.2597.32252-.4674v-2.9626z" fill="url(#G)"/><path d="m12.9062 17.5112v3.9976c0 1.246-.7702 2.3623-1.9351 2.8046l-.5029.191c-.2913.1105-.48382.3896-.48382.7011v.1651c0 .2761-.22386.5-.5.5h-3c-.27615 0-.5-.2239-.5-.5v-1.3725c0-1.2461.77023-2.3624 1.93513-2.8047l.66422-.2522c.19415-.0737.32252-.2597.32252-.4674v-2.9626z" fill="url(#H)"/><path d="m12.9062 17.5112v3.9976c0 1.246-.7702 2.3623-1.9351 2.8046l-.5029.191c-.2913.1105-.48382.3896-.48382.7011v.1651c0 .2761-.22386.5-.5.5h-3c-.27615 0-.5-.2239-.5-.5v-1.3725c0-1.2461.77023-2.3624 1.93513-2.8047l.66422-.2522c.19415-.0737.32252-.2597.32252-.4674v-2.9626z" fill="url(#I)"/></g><g filter="url(#a)"><path d="m14.3438 22.7144.4554 3.8281h1.2008l-.3312-2.75z" fill="url(#K)"/></g><g filter="url(#b)"><path d="m23.5156 21.6675-.6742 4.875h-.5476l.5476-4.3594z" fill="url(#L)"/></g><g filter="url(#c)"><path d="m27.2812 17.1987h1.6875v9.03125h-1.6875z" fill="url(#M)"/></g><g filter="url(#d)"><ellipse cx="15.579" cy="10.729" fill="url(#N)" rx="2.696" ry="3.975" transform="matrix(.89706718 -.44189418 .44189418 .89706718 -3.1375 7.988404)"/></g><path d="m24.75 21.0006v-5.3019l-16.125-.9375 4.4849 7.2215c.0322.0013.0646.0086.096.0227 1.3955.6266 2.9443.9746 4.5754.9746 2.1326 0 4.6034-.9488 6.3563-2.0286.1943-.1197.4441-.1008.6124.0492z" fill="url(#O)"/><path d="m24.75 21.0006v-5.3019l-16.125-.9375 4.4849 7.2215c.0322.0013.0646.0086.096.0227 1.3955.6266 2.9443.9746 4.5754.9746 2.1326 0 4.6034-.9488 6.3563-2.0286.1943-.1197.4441-.1008.6124.0492z" fill="url(#Q)"/><path d="m24.75 21.0006v-5.3019l-16.125-.9375 4.4849 7.2215c.0322.0013.0646.0086.096.0227 1.3955.6266 2.9443.9746 4.5754.9746 2.1326 0 4.6034-.9488 6.3563-2.0286.1943-.1197.4441-.1008.6124.0492z" fill="url(#R)"/><path d="m24.75 21.0006v-5.3019l-16.125-.9375 4.4849 7.2215c.0322.0013.0646.0086.096.0227 1.3955.6266 2.9443.9746 4.5754.9746 2.1326 0 4.6034-.9488 6.3563-2.0286.1943-.1197.4441-.1008.6124.0492z" fill="url(#S)"/><path d="m24.75 21.0006v-5.3019l-16.125-.9375 4.4849 7.2215c.0322.0013.0646.0086.096.0227 1.3955.6266 2.9443.9746 4.5754.9746 2.1326 0 4.6034-.9488 6.3563-2.0286.1943-.1197.4441-.1008.6124.0492z" fill="url(#U)"/><path d="m24.75 21.0006v-5.3019l-16.125-.9375 4.4849 7.2215c.0322.0013.0646.0086.096.0227 1.3955.6266 2.9443.9746 4.5754.9746 2.1326 0 4.6034-.9488 6.3563-2.0286.1943-.1197.4441-.1008.6124.0492z" fill="url(#V)"/><g filter="url(#e)"><path d="m11.4688 20.7612v1.0313c0 .7421-.6017 1.3437-1.3438 1.3437-.74213 0-1.34375.6016-1.34375 1.3438v.75" stroke="url(#W)"/></g><g filter="url(#f)"><path d="m29.25 14.3237c-.1-3.55-2.7812-4.90622-4.625-4.90622l-5.625 4.01242 3.5938 5.7813z" fill="url(#X)"/><path d="m29.25 14.3237c-.1-3.55-2.7812-4.90622-4.625-4.90622l-5.625 4.01242 3.5938 5.7813z" fill="url(#Y)"/></g></svg>