<svg fill="none" height="32" viewBox="0 0 32 32" width="32" xmlns="http://www.w3.org/2000/svg" xmlns:xlink="http://www.w3.org/1999/xlink"><filter id="a" color-interpolation-filters="sRGB" filterUnits="userSpaceOnUse" height="9.768" width="5.296" x="24.442" y="4.683"><feFlood flood-opacity="0" result="BackgroundImageFix"/><feBlend in="SourceGraphic" in2="BackgroundImageFix" mode="normal" result="shape"/><feGaussianBlur result="effect1_foregroundBlur_28327_2572" stdDeviation=".25"/></filter><filter id="b" color-interpolation-filters="sRGB" filterUnits="userSpaceOnUse" height="14.75" width="18.41" x="11.84" y="11.739"><feFlood flood-opacity="0" result="BackgroundImageFix"/><feBlend in="SourceGraphic" in2="BackgroundImageFix" mode="normal" result="shape"/><feGaussianBlur result="effect1_foregroundBlur_28327_2572" stdDeviation=".75"/></filter><filter id="c" color-interpolation-filters="sRGB" filterUnits="userSpaceOnUse" height="1.422" width="1.442" x="4.15" y="6.322"><feFlood flood-opacity="0" result="BackgroundImageFix"/><feBlend in="SourceGraphic" in2="BackgroundImageFix" mode="normal" result="shape"/><feGaussianBlur result="effect1_foregroundBlur_28327_2572" stdDeviation=".125"/></filter><filter id="d" color-interpolation-filters="sRGB" filterUnits="userSpaceOnUse" height="9.752" width="6.208" x="8.293" y="2.797"><feFlood flood-opacity="0" result="BackgroundImageFix"/><feBlend in="SourceGraphic" in2="BackgroundImageFix" mode="normal" result="shape"/><feGaussianBlur result="effect1_foregroundBlur_28327_2572" stdDeviation=".2"/></filter><filter id="e" color-interpolation-filters="sRGB" filterUnits="userSpaceOnUse" height="2.714" width="5.003" x="10.489" y="19.375"><feFlood flood-opacity="0" result="BackgroundImageFix"/><feBlend in="SourceGraphic" in2="BackgroundImageFix" mode="normal" result="shape"/><feGaussianBlur result="effect1_foregroundBlur_28327_2572" stdDeviation=".5"/></filter><filter id="f" color-interpolation-filters="sRGB" filterUnits="userSpaceOnUse" height="10.037" width="1.6" x="13.137" y="20.202"><feFlood flood-opacity="0" result="BackgroundImageFix"/><feBlend in="SourceGraphic" in2="BackgroundImageFix" mode="normal" result="shape"/><feGaussianBlur result="effect1_foregroundBlur_28327_2572" stdDeviation=".35"/></filter><filter id="g" color-interpolation-filters="sRGB" filterUnits="userSpaceOnUse" height="2.819" width="1.959" x="5.606" y="2.452"><feFlood flood-opacity="0" result="BackgroundImageFix"/><feBlend in="SourceGraphic" in2="BackgroundImageFix" mode="normal" result="shape"/><feGaussianBlur result="effect1_foregroundBlur_28327_2572" stdDeviation=".15"/></filter><radialGradient id="h" cx="0" cy="0" gradientTransform="matrix(3.22261069 -1.96875018 4.92125508 8.05551124 26.0156 10.2519)" gradientUnits="userSpaceOnUse" r="1"><stop offset=".536" stop-color="#7d7c7e" stop-opacity="0"/><stop offset="1" stop-color="#7d7c7e"/></radialGradient><radialGradient id="i" cx="0" cy="0" gradientTransform="matrix(2.58199114 -1.43750152 2.04211042 3.667969 26.6563 10.2831)" gradientUnits="userSpaceOnUse" r="1"><stop offset="0" stop-color="#c3bdc9"/><stop offset="1" stop-color="#7d7c7e" stop-opacity="0"/></radialGradient><linearGradient id="j"><stop offset="0" stop-color="#69587a"/><stop offset="1" stop-color="#beb4c8"/></linearGradient><linearGradient id="k" gradientUnits="userSpaceOnUse" x1="20.999" x2="20.999" xlink:href="#j" y1="17.596" y2="30.999"/><linearGradient id="l"><stop offset="0" stop-color="#5c4c6b"/><stop offset="1" stop-color="#5c4c6b" stop-opacity="0"/></linearGradient><linearGradient id="m" gradientUnits="userSpaceOnUse" x1="23.188" x2="21.246" xlink:href="#l" y1="20.002" y2="22.272"/><linearGradient id="n" gradientUnits="userSpaceOnUse" x1="20.999" x2="20.999" xlink:href="#l" y1="20.127" y2="22.533"/><radialGradient id="o" cx="0" cy="0" gradientTransform="matrix(1.48437575 -1.64062553 3.29557011 2.98170684 18.0938 23.8456)" gradientUnits="userSpaceOnUse" r="1"><stop offset=".373" stop-color="#6e4694"/><stop offset="1" stop-color="#8152ac" stop-opacity="0"/></radialGradient><linearGradient id="p"><stop offset=".149" stop-color="#896ba4"/><stop offset=".425" stop-color="#9179a7" stop-opacity="0"/></linearGradient><linearGradient id="q" gradientUnits="userSpaceOnUse" x1="21.438" x2="21.438" xlink:href="#p" y1="31.939" y2="26.502"/><linearGradient id="r" gradientUnits="userSpaceOnUse" x1="13.875" x2="10.999" xlink:href="#j" y1="21.283" y2="31.056"/><linearGradient id="s" gradientUnits="userSpaceOnUse" x1="13.688" x2="11.5" y1="28.096" y2="28.096"><stop offset="0" stop-color="#69587a"/><stop offset="1" stop-color="#69587a" stop-opacity="0"/></linearGradient><linearGradient id="t" gradientUnits="userSpaceOnUse" x1="11.187" x2="11.187" xlink:href="#p" y1="32.09" y2="26.109"/><radialGradient id="u" cx="0" cy="0" gradientTransform="matrix(-.76562896 .64061941 -.73392575 -.87714298 12.9375 11.8456)" gradientUnits="userSpaceOnUse" r="1"><stop offset="0" stop-color="#555456"/><stop offset="1" stop-color="#555456" stop-opacity="0"/></radialGradient><radialGradient id="v" cx="0" cy="0" gradientTransform="matrix(-1.99218614 .53906274 -.42877824 -1.58461345 5.96875 3.75185)" gradientUnits="userSpaceOnUse" r="1"><stop offset=".139" stop-color="#444246"/><stop offset="1" stop-color="#444246" stop-opacity="0"/></radialGradient><linearGradient id="w" gradientUnits="userSpaceOnUse" x1="15.499" x2="15.499" y1="2.433" y2="39.721"><stop offset="0" stop-color="#cbcacd"/><stop offset="1" stop-color="#bcb2c8"/></linearGradient><radialGradient id="x" cx="0" cy="0" gradientTransform="matrix(-4.74990261 10.62500728 -16.63845612 -7.43821102 14.9375 11.8456)" gradientUnits="userSpaceOnUse" r="1"><stop offset=".669" stop-color="#9179a7" stop-opacity="0"/><stop offset=".931" stop-color="#896ba4"/></radialGradient><linearGradient id="y" gradientUnits="userSpaceOnUse" x1="16.188" x2="27.75" y1="20.158" y2="19.783"><stop offset="0" stop-color="#cbcacd" stop-opacity="0"/><stop offset="1" stop-color="#bcb2c8"/></linearGradient><radialGradient id="z" cx="0" cy="0" gradientTransform="matrix(0 -6.72652 20.1875 0 16.9375 23.1581)" gradientUnits="userSpaceOnUse" r="1"><stop offset=".204" stop-color="#896ba4"/><stop offset=".697" stop-color="#9179a7" stop-opacity="0"/></radialGradient><radialGradient id="A" cx="0" cy="0" gradientTransform="matrix(2.81250117 -5.03124417 5.76430225 3.22228584 24.8125 23.9394)" gradientUnits="userSpaceOnUse" r="1"><stop offset="0" stop-color="#896ba4"/><stop offset=".574" stop-color="#9179a7" stop-opacity="0"/></radialGradient><linearGradient id="B" gradientUnits="userSpaceOnUse" x1="17.254" x2="17.254" y1="34.656" y2="19.433"><stop offset=".149" stop-color="#896ba4"/><stop offset=".185" stop-color="#896ba4"/><stop offset=".349" stop-color="#9179a7" stop-opacity="0"/></linearGradient><radialGradient id="C" cx="0" cy="0" gradientTransform="matrix(2.65624465 2.59375025 -4.63269643 4.74431766 2.6875 4.5331)" gradientUnits="userSpaceOnUse" r="1"><stop offset="0" stop-color="#b2b1b3"/><stop offset="1" stop-color="#b2b1b3" stop-opacity="0"/></radialGradient><linearGradient id="D" gradientUnits="userSpaceOnUse" x1="21.625" x2="27.75" y1="19.783" y2="19.783"><stop offset="0" stop-color="#cbcacd" stop-opacity="0"/><stop offset="1" stop-color="#ddd5e6"/></linearGradient><radialGradient id="E" cx="0" cy="0" gradientTransform="matrix(-1.06252264 3.99999576 -9.25060211 -2.45724615 24.75 12.9081)" gradientUnits="userSpaceOnUse" r="1"><stop offset="0" stop-color="#ddd5e6"/><stop offset=".619" stop-color="#cbcacd" stop-opacity="0"/></radialGradient><linearGradient id="F" gradientUnits="userSpaceOnUse" x1="14.516" x2="11.5" y1="23.933" y2="24.533"><stop offset="0" stop-color="#d4cddc"/><stop offset="1" stop-color="#a8a0b1"/></linearGradient><linearGradient id="G" gradientUnits="userSpaceOnUse" x1="13.197" x2="13.197" xlink:href="#p" y1="32.033" y2="26.539"/><linearGradient id="H" gradientUnits="userSpaceOnUse" x1="13.008" x2="13.008" y1="19.721" y2="21.971"><stop offset="0" stop-color="#9279a9"/><stop offset="1" stop-color="#9279a9" stop-opacity="0"/></linearGradient><linearGradient id="I" gradientUnits="userSpaceOnUse" x1="8.188" x2="12.499" y1="10.408" y2="7.846"><stop offset="0" stop-color="#e6e6e6" stop-opacity="0"/><stop offset=".894" stop-color="#e6e6e6"/></linearGradient><radialGradient id="J" cx="0" cy="0" gradientTransform="matrix(6.00000008 -11.1875147 7.94516322 4.26108758 2.625 17.7206)" gradientUnits="userSpaceOnUse" r="1"><stop offset=".347" stop-color="#afa9b6"/><stop offset=".881" stop-color="#afa9b6" stop-opacity="0"/></radialGradient><radialGradient id="K" cx="0" cy="0" gradientTransform="matrix(2.93750098 -4.31250191 2.85757355 1.94646293 4.28125 11.4706)" gradientUnits="userSpaceOnUse" r="1"><stop offset=".188" stop-color="#896ba4"/><stop offset=".881" stop-color="#9179a7" stop-opacity="0"/></radialGradient><linearGradient id="L" gradientUnits="userSpaceOnUse" x1="7.834" x2="7.834" y1="4.221" y2="7.096"><stop offset="0" stop-color="#696869"/><stop offset="1" stop-color="#58545b"/></linearGradient><linearGradient id="M" gradientUnits="userSpaceOnUse" x1="11.5" x2="6.063" y1="11.34" y2="11.34"><stop offset="0" stop-color="#636363"/><stop offset="1" stop-color="#4b494e"/></linearGradient><linearGradient id="N" gradientUnits="userSpaceOnUse" x1="13.563" x2="19.875" y1="11.43" y2="17.221"><stop offset="0" stop-color="#69676c"/><stop offset="1" stop-color="#5f5d61"/></linearGradient><linearGradient id="O" gradientUnits="userSpaceOnUse" x1="18.459" x2="18.459" y1="12.43" y2="16.533"><stop offset="0" stop-color="#5f5f5f"/><stop offset="1" stop-color="#605867"/></linearGradient><linearGradient id="P" gradientUnits="userSpaceOnUse" x1="27.75" x2="22.75" y1="13.346" y2="21.43"><stop offset="0" stop-color="#686869"/><stop offset="1" stop-color="#58535d"/></linearGradient><linearGradient id="Q" gradientUnits="userSpaceOnUse" x1="30" x2="26.625" y1="15.721" y2="20.2"><stop offset="0" stop-color="#747375"/><stop offset="1" stop-color="#5d5961"/></linearGradient><linearGradient id="R" gradientUnits="userSpaceOnUse" x1="31.313" x2="24.063" y1="23.23" y2="23.23"><stop offset="0" stop-color="#6c6a6e"/><stop offset="1" stop-color="#453a50"/></linearGradient><linearGradient id="S" gradientUnits="userSpaceOnUse" x1="29.938" x2="26.938" y1="24.31" y2="26.283"><stop offset="0" stop-color="#666369"/><stop offset="1" stop-color="#524d58"/></linearGradient><linearGradient id="T" gradientUnits="userSpaceOnUse" x1="24.609" x2="26.594" y1="29.46" y2="29.46"><stop offset="0" stop-color="#5d5763"/><stop offset="1" stop-color="#56515a"/></linearGradient><linearGradient id="U" gradientUnits="userSpaceOnUse" x1="8.253" x2="8.253" y1="15.564" y2="19.47"><stop offset="0" stop-color="#545158"/><stop offset="1" stop-color="#4e4854"/></linearGradient><linearGradient id="V" gradientUnits="userSpaceOnUse" x1="2.063" x2="2.953" y1="8.377" y2="10.111"><stop offset="0" stop-color="#595959"/><stop offset="1" stop-color="#493d55"/></linearGradient><linearGradient id="W"><stop offset="0" stop-color="#4c4653"/><stop offset="1" stop-color="#413c47"/></linearGradient><linearGradient id="X" gradientUnits="userSpaceOnUse" x1="20.422" x2="21.5" xlink:href="#W" y1="28.299" y2="29.252"/><linearGradient id="Y" gradientUnits="userSpaceOnUse" x1="20.5" x2="24.499" xlink:href="#W" y1="25.43" y2="25.43"/><radialGradient id="Z" cx="0" cy="0" gradientTransform="matrix(-.34375429 .64311903 -.55969457 -.29916298 5.19061 6.79005)" gradientUnits="userSpaceOnUse" r="1"><stop offset="0" stop-color="#605255"/><stop offset="1" stop-color="#3c273a"/></radialGradient><linearGradient id="aa" gradientUnits="userSpaceOnUse" x1="6.344" x2="7.469" y1="2.533" y2="4.596"><stop offset="0" stop-color="#e2e1e3"/><stop offset="1" stop-color="#e2e1e3" stop-opacity="0"/></linearGradient><path d="m25.125 8.21442c2.4688 3.21878 1.9688 3.59378 1.9688 4.96878l.8437.7679c1.925-2.025 1.2813-4.23668.7813-5.04918s-3.75-3.71875-3.75-3.71875c-.825 1.4-.1875 2.65625.1562 3.03125z" fill="#484749"/><path d="m25.125 8.21442c2.4688 3.21878 1.9688 3.59378 1.9688 4.96878l.8437.7679c1.925-2.025 1.2813-4.23668.7813-5.04918s-3.75-3.71875-3.75-3.71875c-.825 1.4-.1875 2.65625.1562 3.03125z" fill="url(#h)"/><g filter="url(#a)"><path d="m24.9428 5.22811c-.012.70537.3084 1.77275 2.0103 3.46124 1.9844 1.96875 1.3578 3.49095.6206 4.93055l.3638.3312c1.925-2.025 1.2813-4.23668.7813-5.04918s-3.75-3.71875-3.75-3.71875c-.0089.01499-.0175.02998-.026.04494z" fill="url(#i)"/></g><path d="m17.4988 21.43 3.04 2.28c.6.45.96 1.16.96 1.92 0 .52-.17 1.02-.48 1.44l-2.24 2.99c-.12.15-.01.37.18.37h1.22c.2 0 .39-.09.52-.25l3.24-4.05c.36-.45.56-1.02.56-1.6v-4.1h-7z" fill="url(#k)"/><path d="m17.4988 21.43 3.04 2.28c.6.45.96 1.16.96 1.92 0 .52-.17 1.02-.48 1.44l-2.24 2.99c-.12.15-.01.37.18.37h1.22c.2 0 .39-.09.52-.25l3.24-4.05c.36-.45.56-1.02.56-1.6v-4.1h-7z" fill="url(#m)"/><path d="m17.4988 21.43 3.04 2.28c.6.45.96 1.16.96 1.92 0 .52-.17 1.02-.48 1.44l-2.24 2.99c-.12.15-.01.37.18.37h1.22c.2 0 .39-.09.52-.25l3.24-4.05c.36-.45.56-1.02.56-1.6v-4.1h-7z" fill="url(#n)"/><path d="m17.4988 21.43 3.04 2.28c.6.45.96 1.16.96 1.92 0 .52-.17 1.02-.48 1.44l-2.24 2.99c-.12.15-.01.37.18.37h1.22c.2 0 .39-.09.52-.25l3.24-4.05c.36-.45.56-1.02.56-1.6v-4.1h-7z" fill="url(#o)"/><path d="m17.4988 21.43 3.04 2.28c.6.45.96 1.16.96 1.92 0 .52-.17 1.02-.48 1.44l-2.24 2.99c-.12.15-.01.37.18.37h1.22c.2 0 .39-.09.52-.25l3.24-4.05c.36-.45.56-1.02.56-1.6v-4.1h-7z" fill="url(#q)"/><path d="m12.4988 21.43v8.74c0 .14-.12.26-.26.26h-.55c-.11 0-.22-.08-.25-.19l-1.36-4.67c-.38002-1.34-.58002-2.74-.58002-4.14v-2h3.00002z" fill="url(#r)"/><path d="m12.4988 21.43v8.74c0 .14-.12.26-.26.26h-.55c-.11 0-.22-.08-.25-.19l-1.36-4.67c-.38002-1.34-.58002-2.74-.58002-4.14v-2h3.00002z" fill="url(#s)"/><path d="m12.4988 21.43v8.74c0 .14-.12.26-.26.26h-.55c-.11 0-.22-.08-.25-.19l-1.36-4.67c-.38002-1.34-.58002-2.74-.58002-4.14v-2h3.00002z" fill="url(#t)"/><path d="m12.4988 27.46v-1h-2.15l.29 1z" fill="#3b3444"/><path d="m12.4988 24.43v-1h-2.86001c.05.34.1.67.17 1z" fill="#3e3745"/><path d="m12.179 4.60922c-1.1249-1.04718-2.98683-1.90921-4.56019-1.90921-1.39 0-2.69.53-3.7 1.35-.23.19-.24.55-.02.76l2.72 2.63c.13852-.01781.27705-.03601.41557-.05437l.39438.39438c.21-.18.49-.29.8-.31.47-.02.92.3 1.12.72.12.2.18.42.17.64-.02.4-.07.8-.13 1.19998-.07.94-.19 1.87-.35 2.8h5.48004v-2.99998c0-1.77-.66-3.47-1.88-4.77-.147-.15801-.3004-.30836-.4598-.4508z" fill="#5e5c61"/><path d="m12.179 4.60922c-1.1249-1.04718-2.98683-1.90921-4.56019-1.90921-1.39 0-2.69.53-3.7 1.35-.23.19-.24.55-.02.76l2.72 2.63c.13852-.01781.27705-.03601.41557-.05437l.39438.39438c.21-.18.49-.29.8-.31.47-.02.92.3 1.12.72.12.2.18.42.17.64-.02.4-.07.8-.13 1.19998-.07.94-.19 1.87-.35 2.8h5.48004v-2.99998c0-1.77-.66-3.47-1.88-4.77-.147-.15801-.3004-.30836-.4598-.4508z" fill="url(#u)"/><path d="m12.179 4.60922c-1.1249-1.04718-2.98683-1.90921-4.56019-1.90921-1.39 0-2.69.53-3.7 1.35-.23.19-.24.55-.02.76l2.72 2.63c.13852-.01781.27705-.03601.41557-.05437l.39438.39438c.21-.18.49-.29.8-.31.47-.02.92.3 1.12.72.12.2.18.42.17.64-.02.4-.07.8-.13 1.19998-.07.94-.19 1.87-.35 2.8h5.48004v-2.99998c0-1.77-.66-3.47-1.88-4.77-.147-.15801-.3004-.30836-.4598-.4508z" fill="url(#v)"/><path d="m24.4988 12.43h-11.5c-.2762 0-.5-.2239-.5-.5v-2.50001c0-2.73593-1.8368-5.05324-4.34968-5.76743-.40978-.11647-.81313-.2656-1.16655-.50347l-1.02379-.6891c-.21-.11-.46.04-.46.27 0 .87814-.32518 1.71532-.92244 2.35906-1.10828 1.19452-2.81756 3.03094-2.81756 3.03094-.22.25-.31.6-.23.94.15.68.84 1.01001 1.48.75l3.14635-1.27116c.16433-.06639.34365.05456.34365.2318v7.64937c0 2.6762 2.10601 4.8635 4.75002 4.9938.1379.0068.2498.1181.2521.2562.0224 1.3164.2211 2.6298.5879 3.89l1.36 4.67c.03.11.13.19.25.19h.55c.14 0 .26-.12.26-.26v-8.34c0-.2209.1791-.4.4-.4h6.95c.43 0 .84.14 1.18.39l2.52 1.89c.6.45.96 1.16.96 1.92 0 .52-.17 1.02-.48 1.44l-2.24 2.99c-.14.15-.03.37.16.37h1.22c.2 0 .39-.09.52-.25l3.24-4.05c.36-.45.56-1.02.56-1.6v-3.1-1-3c0-2.76-2.24-5-5-5z" fill="url(#w)"/><path d="m24.4988 12.43h-11.5c-.2762 0-.5-.2239-.5-.5v-2.50001c0-2.73593-1.8368-5.05324-4.34968-5.76743-.40978-.11647-.81313-.2656-1.16655-.50347l-1.02379-.6891c-.21-.11-.46.04-.46.27 0 .87814-.32518 1.71532-.92244 2.35906-1.10828 1.19452-2.81756 3.03094-2.81756 3.03094-.22.25-.31.6-.23.94.15.68.84 1.01001 1.48.75l3.14635-1.27116c.16433-.06639.34365.05456.34365.2318v7.64937c0 2.6762 2.10601 4.8635 4.75002 4.9938.1379.0068.2498.1181.2521.2562.0224 1.3164.2211 2.6298.5879 3.89l1.36 4.67c.03.11.13.19.25.19h.55c.14 0 .26-.12.26-.26v-8.34c0-.2209.1791-.4.4-.4h6.95c.43 0 .84.14 1.18.39l2.52 1.89c.6.45.96 1.16.96 1.92 0 .52-.17 1.02-.48 1.44l-2.24 2.99c-.14.15-.03.37.16.37h1.22c.2 0 .39-.09.52-.25l3.24-4.05c.36-.45.56-1.02.56-1.6v-3.1-1-3c0-2.76-2.24-5-5-5z" fill="url(#x)"/><path d="m24.4988 12.43h-11.5c-.2762 0-.5-.2239-.5-.5v-2.50001c0-2.73593-1.8368-5.05324-4.34968-5.76743-.40978-.11647-.81313-.2656-1.16655-.50347l-1.02379-.6891c-.21-.11-.46.04-.46.27 0 .87814-.32518 1.71532-.92244 2.35906-1.10828 1.19452-2.81756 3.03094-2.81756 3.03094-.22.25-.31.6-.23.94.15.68.84 1.01001 1.48.75l3.14635-1.27116c.16433-.06639.34365.05456.34365.2318v7.64937c0 2.6762 2.10601 4.8635 4.75002 4.9938.1379.0068.2498.1181.2521.2562.0224 1.3164.2211 2.6298.5879 3.89l1.36 4.67c.03.11.13.19.25.19h.55c.14 0 .26-.12.26-.26v-8.34c0-.2209.1791-.4.4-.4h6.95c.43 0 .84.14 1.18.39l2.52 1.89c.6.45.96 1.16.96 1.92 0 .52-.17 1.02-.48 1.44l-2.24 2.99c-.14.15-.03.37.16.37h1.22c.2 0 .39-.09.52-.25l3.24-4.05c.36-.45.56-1.02.56-1.6v-3.1-1-3c0-2.76-2.24-5-5-5z" fill="url(#y)"/><path d="m24.4988 12.43h-11.5c-.2762 0-.5-.2239-.5-.5v-2.50001c0-2.73593-1.8368-5.05324-4.34968-5.76743-.40978-.11647-.81313-.2656-1.16655-.50347l-1.02379-.6891c-.21-.11-.46.04-.46.27 0 .87814-.32518 1.71532-.92244 2.35906-1.10828 1.19452-2.81756 3.03094-2.81756 3.03094-.22.25-.31.6-.23.94.15.68.84 1.01001 1.48.75l3.14635-1.27116c.16433-.06639.34365.05456.34365.2318v7.64937c0 2.6762 2.10601 4.8635 4.75002 4.9938.1379.0068.2498.1181.2521.2562.0224 1.3164.2211 2.6298.5879 3.89l1.36 4.67c.03.11.13.19.25.19h.55c.14 0 .26-.12.26-.26v-8.34c0-.2209.1791-.4.4-.4h6.95c.43 0 .84.14 1.18.39l2.52 1.89c.6.45.96 1.16.96 1.92 0 .52-.17 1.02-.48 1.44l-2.24 2.99c-.14.15-.03.37.16.37h1.22c.2 0 .39-.09.52-.25l3.24-4.05c.36-.45.56-1.02.56-1.6v-3.1-1-3c0-2.76-2.24-5-5-5z" fill="url(#z)"/><path d="m24.4988 12.43h-11.5c-.2762 0-.5-.2239-.5-.5v-2.50001c0-2.73593-1.8368-5.05324-4.34968-5.76743-.40978-.11647-.81313-.2656-1.16655-.50347l-1.02379-.6891c-.21-.11-.46.04-.46.27 0 .87814-.32518 1.71532-.92244 2.35906-1.10828 1.19452-2.81756 3.03094-2.81756 3.03094-.22.25-.31.6-.23.94.15.68.84 1.01001 1.48.75l3.14635-1.27116c.16433-.06639.34365.05456.34365.2318v7.64937c0 2.6762 2.10601 4.8635 4.75002 4.9938.1379.0068.2498.1181.2521.2562.0224 1.3164.2211 2.6298.5879 3.89l1.36 4.67c.03.11.13.19.25.19h.55c.14 0 .26-.12.26-.26v-8.34c0-.2209.1791-.4.4-.4h6.95c.43 0 .84.14 1.18.39l2.52 1.89c.6.45.96 1.16.96 1.92 0 .52-.17 1.02-.48 1.44l-2.24 2.99c-.14.15-.03.37.16.37h1.22c.2 0 .39-.09.52-.25l3.24-4.05c.36-.45.56-1.02.56-1.6v-3.1-1-3c0-2.76-2.24-5-5-5z" fill="url(#A)"/><path d="m24.4988 12.43h-11.5c-.2762 0-.5-.2239-.5-.5v-2.50001c0-2.73593-1.8368-5.05324-4.34968-5.76743-.40978-.11647-.81313-.2656-1.16655-.50347l-1.02379-.6891c-.21-.11-.46.04-.46.27 0 .87814-.32518 1.71532-.92244 2.35906-1.10828 1.19452-2.81756 3.03094-2.81756 3.03094-.22.25-.31.6-.23.94.15.68.84 1.01001 1.48.75l3.14635-1.27116c.16433-.06639.34365.05456.34365.2318v7.64937c0 2.6762 2.10601 4.8635 4.75002 4.9938.1379.0068.2498.1181.2521.2562.0224 1.3164.2211 2.6298.5879 3.89l1.36 4.67c.03.11.13.19.25.19h.55c.14 0 .26-.12.26-.26v-8.34c0-.2209.1791-.4.4-.4h6.95c.43 0 .84.14 1.18.39l2.52 1.89c.6.45.96 1.16.96 1.92 0 .52-.17 1.02-.48 1.44l-2.24 2.99c-.14.15-.03.37.16.37h1.22c.2 0 .39-.09.52-.25l3.24-4.05c.36-.45.56-1.02.56-1.6v-3.1-1-3c0-2.76-2.24-5-5-5z" fill="url(#B)"/><path d="m24.4988 12.43h-11.5c-.2762 0-.5-.2239-.5-.5v-2.50001c0-2.73593-1.8368-5.05324-4.34968-5.76743-.40978-.11647-.81313-.2656-1.16655-.50347l-1.02379-.6891c-.21-.11-.46.04-.46.27 0 .87814-.32518 1.71532-.92244 2.35906-1.10828 1.19452-2.81756 3.03094-2.81756 3.03094-.22.25-.31.6-.23.94.15.68.84 1.01001 1.48.75l3.14635-1.27116c.16433-.06639.34365.05456.34365.2318v7.64937c0 2.6762 2.10601 4.8635 4.75002 4.9938.1379.0068.2498.1181.2521.2562.0224 1.3164.2211 2.6298.5879 3.89l1.36 4.67c.03.11.13.19.25.19h.55c.14 0 .26-.12.26-.26v-8.34c0-.2209.1791-.4.4-.4h6.95c.43 0 .84.14 1.18.39l2.52 1.89c.6.45.96 1.16.96 1.92 0 .52-.17 1.02-.48 1.44l-2.24 2.99c-.14.15-.03.37.16.37h1.22c.2 0 .39-.09.52-.25l3.24-4.05c.36-.45.56-1.02.56-1.6v-3.1-1-3c0-2.76-2.24-5-5-5z" fill="url(#C)"/><path d="m24.4988 12.43h-11.5c-.2762 0-.5-.2239-.5-.5v-2.50001c0-2.73593-1.8368-5.05324-4.34968-5.76743-.40978-.11647-.81313-.2656-1.16655-.50347l-1.02379-.6891c-.21-.11-.46.04-.46.27 0 .87814-.32518 1.71532-.92244 2.35906-1.10828 1.19452-2.81756 3.03094-2.81756 3.03094-.22.25-.31.6-.23.94.15.68.84 1.01001 1.48.75l3.14635-1.27116c.16433-.06639.34365.05456.34365.2318v7.64937c0 2.6762 2.10601 4.8635 4.75002 4.9938.1379.0068.2498.1181.2521.2562.0224 1.3164.2211 2.6298.5879 3.89l1.36 4.67c.03.11.13.19.25.19h.55c.14 0 .26-.12.26-.26v-8.34c0-.2209.1791-.4.4-.4h6.95c.43 0 .84.14 1.18.39l2.52 1.89c.6.45.96 1.16.96 1.92 0 .52-.17 1.02-.48 1.44l-2.24 2.99c-.14.15-.03.37.16.37h1.22c.2 0 .39-.09.52-.25l3.24-4.05c.36-.45.56-1.02.56-1.6v-3.1-1-3c0-2.76-2.24-5-5-5z" fill="url(#D)"/><path d="m24.4988 12.43h-11.5c-.2762 0-.5-.2239-.5-.5v-2.50001c0-2.73593-1.8368-5.05324-4.34968-5.76743-.40978-.11647-.81313-.2656-1.16655-.50347l-1.02379-.6891c-.21-.11-.46.04-.46.27 0 .87814-.32518 1.71532-.92244 2.35906-1.10828 1.19452-2.81756 3.03094-2.81756 3.03094-.22.25-.31.6-.23.94.15.68.84 1.01001 1.48.75l3.14635-1.27116c.16433-.06639.34365.05456.34365.2318v7.64937c0 2.6762 2.10601 4.8635 4.75002 4.9938.1379.0068.2498.1181.2521.2562.0224 1.3164.2211 2.6298.5879 3.89l1.36 4.67c.03.11.13.19.25.19h.55c.14 0 .26-.12.26-.26v-8.34c0-.2209.1791-.4.4-.4h6.95c.43 0 .84.14 1.18.39l2.52 1.89c.6.45.96 1.16.96 1.92 0 .52-.17 1.02-.48 1.44l-2.24 2.99c-.14.15-.03.37.16.37h1.22c.2 0 .39-.09.52-.25l3.24-4.05c.36-.45.56-1.02.56-1.6v-3.1-1-3c0-2.76-2.24-5-5-5z" fill="url(#E)"/><g filter="url(#b)"><path d="m13.34 13.6137h10.8196c1.1534 0 2.2564.4726 3.052 1.3076.7468.7839 1.1634 1.8251 1.1634 2.9078v7.1596" stroke="#ebeaec" stroke-width=".75"/></g><path d="m12.0938 25.57c-.39-1.34-.5938-2.74-.5938-4.14 0-.7043.9531-.9047 1.5-.9047s1.5156.2109 1.5156 1.2265v8.4182c0 .14-.1256.26-.2656.26h-.5469c-.12 0-.22-.08-.25-.19z" fill="url(#F)"/><path d="m12.0938 25.57c-.39-1.34-.5938-2.74-.5938-4.14 0-.7043.9531-.9047 1.5-.9047s1.5156.2109 1.5156 1.2265v8.4182c0 .14-.1256.26-.2656.26h-.5469c-.12 0-.22-.08-.25-.19z" fill="url(#G)"/><path d="m12.0938 25.57c-.39-1.34-.5938-2.74-.5938-4.14 0-.7043.9531-.9047 1.5-.9047s1.5156.2109 1.5156 1.2265v8.4182c0 .14-.1256.26-.2656.26h-.5469c-.12 0-.22-.08-.25-.19z" fill="url(#H)"/><path d="m12.4988 12.43v-3.00001c0-2.73593-1.8368-5.05324-4.34968-5.76743-.40978-.11647-.81313-.2656-1.16655-.50348l-1.02379-.68909c-.21-.11-.46.04-.46.27 0 .87814-.32518 1.71532-.92244 2.35906-1.10828 1.19452-2.81756 3.03094-2.81756 3.03094-.22.25-.31.6-.23.94.15.68.84 1.01001 1.48.75l3.14635-1.27116c.16433-.06639.34365.05456.34365.2318v7.64937c0 1.1369.225 2.0651 1.02 3.0258 2.23122-3.0258 3.48122-4.5851 4.98002-7.0258z" fill="url(#I)"/><path d="m12.4988 12.43v-3.00001c0-2.73593-1.8368-5.05324-4.34968-5.76743-.40978-.11647-.81313-.2656-1.16655-.50348l-1.02379-.68909c-.21-.11-.46.04-.46.27 0 .87814-.32518 1.71532-.92244 2.35906-1.10828 1.19452-2.81756 3.03094-2.81756 3.03094-.22.25-.31.6-.23.94.15.68.84 1.01001 1.48.75l3.14635-1.27116c.16433-.06639.34365.05456.34365.2318v7.64937c0 1.1369.225 2.0651 1.02 3.0258 2.23122-3.0258 3.48122-4.5851 4.98002-7.0258z" fill="url(#J)"/><path d="m12.4988 12.43v-3.00001c0-2.73593-1.8368-5.05324-4.34968-5.76743-.40978-.11647-.81313-.2656-1.16655-.50348l-1.02379-.68909c-.21-.11-.46.04-.46.27 0 .87814-.32518 1.71532-.92244 2.35906-1.10828 1.19452-2.81756 3.03094-2.81756 3.03094-.22.25-.31.6-.23.94.15.68.84 1.01001 1.48.75l3.14635-1.27116c.16433-.06639.34365.05456.34365.2318v7.64937c0 1.1369.225 2.0651 1.02 3.0258 2.23122-3.0258 3.48122-4.5851 4.98002-7.0258z" fill="url(#K)"/><path d="m21.8288 28.76-1.19-1.19-.6.81 1.16 1.17z" fill="#636363"/><path d="m21.1788 24.43c.18.3.28.64.31 1h2.85c.11-.29.16-.59.16-.9v-.1z" fill="#636363"/><path d="m7.52879 3.44714v1.28288c0 .21347-.08451.4174-.24355.57645-.19526.19526-.19526.51184 0 .7071s.51185.19526.70711 0c.34096-.34096.53644-.79702.53644-1.28355v-.94563c-.32146-.11523-.63817-.1849-1-.33725z" fill="url(#L)"/><path clip-rule="evenodd" d="m9.24878 4.09759v1.65241c0 .88614.71386 1.6 1.60002 1.6h1.279c-.1294-.34977-.2905-.68429-.4798-1h-.7992c-.3339 0-.6-.26615-.6-.6v-1.00265c-.30965-.2482-.64445-.46628-1.00002-.64976z" fill="#6f6e70" fill-rule="evenodd"/><path d="m6.49878 11.34.2-.26c.52-.71 1.36-1.12999 2.24-1.12999h3.56002v-.52004c0-.16153-.0064-.32159-.019-.47996h-3.55102c-.9 0-1.76.32-2.43.89z" fill="url(#M)"/><path d="m12.4988 11.93c0 .1912.1379.4546.4504.5-.5868 0-1.1736 0-1.7604 0-.2 0-.37.1-.48.26-.1.17-.12.36-.04.54l1.28 2.89c.31.69.99 1.13 1.74 1.13h4.49c.93 0 1.79-.41 2.37-1.14l2.93-3.68h1.02.017c.0456.0001.0911.0009.1364.0023.0329.0014.0655.0038.0966.0077l-3.42 4.29c-.77.97-1.92 1.52-3.15 1.52h-4.49c-1.14 0-2.19-.68-2.65-1.73l-1.28004-2.89c-.20999-.49-.16999-1.04.12-1.49.29004-.44.78004-.71 1.31004-.71h1.31z" fill="url(#N)"/><path d="m20.0188 12.43-1.83 2.25c-.17.21-.42.33-.69.33-.49 0-.89-.4-.89-.89v-1.69h-1v1.68c0 1.04.85 1.89 1.89 1.89.57 0 1.1-.25 1.46-.7l2.35-2.87z" fill="url(#O)"/><path d="m26.5288 12.86-6.62 8.57h1.26l6.23-8.06c-.26-.2-.56-.37-.87-.51z" fill="url(#P)"/><path d="m29.4988 19.19h-2.5c-.21 0-.31-.15-.34-.21s-.09-.23.04-.4l2.38-3.15c-.15-.33-.33-.65-.54-.94l-2.64 3.5c-.32.42-.37.97-.13 1.45.23.47.71.76 1.23.76h2.5z" fill="url(#Q)"/><path d="m29.4988 22.23h-5.9168l1.3399 1h4.5769z" fill="url(#R)"/><path d="m26.1988 26.79 3.12-1.32c.12-.3.18-.62.18-.94v-.22l-3 1.27v.05c0 .41-.1.8-.3 1.16z" fill="url(#S)"/><path d="m27.0788 28.46h-2.1l-.75 1h2.05z" fill="url(#T)"/><path d="m9.69878 18.69c.33002-.49.40002-1.1.19-1.65l-.89-2.3c-.19-.49-.66-.81-1.18-.81h-1.32v1h1.32c.11 0 .21.07.25.17l.89 2.3c.09.24.06.51-.08.72-.15.22-.38.35-.65.35h-1.3c.16.36.36.69.59 1h.71c.59 0 1.14-.29 1.47-.78z" fill="url(#U)"/><path d="m14.5156 27.46v-1h-2.15l.29 1z" fill="#5b5660"/><path d="m14.4988 24.43v-1h-2.86c.05.34.1.67.17 1z" fill="#646169"/><path d="m2.31878 7.52997c-.34.36-.56.6-.56.6-.22.25-.31.6-.23.94.15.68.84 1.01003 1.48.75l.77-.31z" fill="url(#V)"/><path d="m21.8288 28.76-1.19-1.19-.6.81 1.16 1.17z" fill="url(#X)"/><path d="m21.1788 24.43c.18.3.28.64.31 1h2.85c.11-.29.16-.59.16-.9v-.1z" fill="url(#Y)"/><g filter="url(#c)"><ellipse cx="4.871" cy="7.033" fill="#9e99a3" rx=".433" ry=".497" transform="matrix(.65001324 .75992288 -.75992288 .65001324 7.049555 -1.24015)"/></g><circle cx="5" cy="6.933" fill="url(#Z)" r=".5"/><g filter="url(#d)"><path d="m8.71875 3.26746c3.62505 1.29687 5.68745 3.625 5.25005 8.87504" stroke="#7b7a7c" stroke-width=".15"/></g><g filter="url(#e)"><path d="m11.6388 20.9394c.4427-.3125 1.6031-.75 2.7031 0" stroke="#ebeaec" stroke-linecap="round" stroke-width=".3"/></g><g filter="url(#f)"><path d="m13.9375 21.0018v8.4375" stroke="#ebeaec" stroke-linecap="round" stroke-width=".2"/></g><g filter="url(#g)"><path d="m6.78125 4.97058-.875-2.21875 1.35937 1.01563z" fill="url(#aa)"/></g></svg>