<svg fill="none" height="33" viewBox="0 0 32 33" width="32" xmlns="http://www.w3.org/2000/svg" xmlns:xlink="http://www.w3.org/1999/xlink"><filter id="a" color-interpolation-filters="sRGB" filterUnits="userSpaceOnUse" height="9.264" width="9.166" x="4.646" y="5.463"><feFlood flood-opacity="0" result="BackgroundImageFix"/><feBlend in="SourceGraphic" in2="BackgroundImageFix" mode="normal" result="shape"/><feColorMatrix in="SourceAlpha" result="hardAlpha" type="matrix" values="0 0 0 0 0 0 0 0 0 0 0 0 0 0 0 0 0 0 127 0"/><feOffset dx="2"/><feGaussianBlur stdDeviation=".25"/><feComposite in2="hardAlpha" k2="-1" k3="1" operator="arithmetic"/><feColorMatrix type="matrix" values="0 0 0 0 0.26434 0 0 0 0 0.25276 0 0 0 0 0.2875 0 0 0 0.5 0"/><feBlend in2="shape" mode="normal" result="effect1_innerShadow_28327_1998"/><feColorMatrix in="SourceAlpha" result="hardAlpha" type="matrix" values="0 0 0 0 0 0 0 0 0 0 0 0 0 0 0 0 0 0 127 0"/><feOffset dy="2"/><feGaussianBlur stdDeviation=".25"/><feComposite in2="hardAlpha" k2="-1" k3="1" operator="arithmetic"/><feColorMatrix type="matrix" values="0 0 0 0 0.26434 0 0 0 0 0.25276 0 0 0 0 0.2875 0 0 0 0.5 0"/><feBlend in2="effect1_innerShadow_28327_1998" mode="normal" result="effect2_innerShadow_28327_1998"/></filter><filter id="b" color-interpolation-filters="sRGB" filterUnits="userSpaceOnUse" height="2.266" width="5.922" x="5.94" y="5.602"><feFlood flood-opacity="0" result="BackgroundImageFix"/><feBlend in="SourceGraphic" in2="BackgroundImageFix" mode="normal" result="shape"/><feGaussianBlur result="effect1_foregroundBlur_28327_1998" stdDeviation=".15"/></filter><filter id="c" color-interpolation-filters="sRGB" filterUnits="userSpaceOnUse" height="3.872" width="1.713" x="6.295" y="7.496"><feFlood flood-opacity="0" result="BackgroundImageFix"/><feBlend in="SourceGraphic" in2="BackgroundImageFix" mode="normal" result="shape"/><feGaussianBlur result="effect1_foregroundBlur_28327_1998" stdDeviation=".125"/></filter><filter id="d" color-interpolation-filters="sRGB" filterUnits="userSpaceOnUse" height="9.264" width="9.166" x="19.268" y="5.463"><feFlood flood-opacity="0" result="BackgroundImageFix"/><feBlend in="SourceGraphic" in2="BackgroundImageFix" mode="normal" result="shape"/><feColorMatrix in="SourceAlpha" result="hardAlpha" type="matrix" values="0 0 0 0 0 0 0 0 0 0 0 0 0 0 0 0 0 0 127 0"/><feOffset dx="2"/><feGaussianBlur stdDeviation=".25"/><feComposite in2="hardAlpha" k2="-1" k3="1" operator="arithmetic"/><feColorMatrix type="matrix" values="0 0 0 0 0.26434 0 0 0 0 0.25276 0 0 0 0 0.2875 0 0 0 0.5 0"/><feBlend in2="shape" mode="normal" result="effect1_innerShadow_28327_1998"/><feColorMatrix in="SourceAlpha" result="hardAlpha" type="matrix" values="0 0 0 0 0 0 0 0 0 0 0 0 0 0 0 0 0 0 127 0"/><feOffset dy="2"/><feGaussianBlur stdDeviation=".25"/><feComposite in2="hardAlpha" k2="-1" k3="1" operator="arithmetic"/><feColorMatrix type="matrix" values="0 0 0 0 0.26434 0 0 0 0 0.25276 0 0 0 0 0.2875 0 0 0 0.5 0"/><feBlend in2="effect1_innerShadow_28327_1998" mode="normal" result="effect2_innerShadow_28327_1998"/></filter><filter id="e" color-interpolation-filters="sRGB" filterUnits="userSpaceOnUse" height="5.687" width="1.922" x="25.69" y="6.274"><feFlood flood-opacity="0" result="BackgroundImageFix"/><feBlend in="SourceGraphic" in2="BackgroundImageFix" mode="normal" result="shape"/><feGaussianBlur result="effect1_foregroundBlur_28327_1998" stdDeviation=".15"/></filter><filter id="f" color-interpolation-filters="sRGB" filterUnits="userSpaceOnUse" height="1.962" width="4.181" x="21.74" y="7.136"><feFlood flood-opacity="0" result="BackgroundImageFix"/><feBlend in="SourceGraphic" in2="BackgroundImageFix" mode="normal" result="shape"/><feGaussianBlur result="effect1_foregroundBlur_28327_1998" stdDeviation=".125"/></filter><filter id="g" color-interpolation-filters="sRGB" filterUnits="userSpaceOnUse" height="4" width="2.5" x="18.624" y="16.454"><feFlood flood-opacity="0" result="BackgroundImageFix"/><feBlend in="SourceGraphic" in2="BackgroundImageFix" mode="normal" result="shape"/><feGaussianBlur result="effect1_foregroundBlur_28327_1998" stdDeviation=".25"/></filter><filter id="h" color-interpolation-filters="sRGB" filterUnits="userSpaceOnUse" height="4" width="2.5" x="10.505" y="16.454"><feFlood flood-opacity="0" result="BackgroundImageFix"/><feBlend in="SourceGraphic" in2="BackgroundImageFix" mode="normal" result="shape"/><feGaussianBlur result="effect1_foregroundBlur_28327_1998" stdDeviation=".25"/></filter><filter id="i" color-interpolation-filters="sRGB" filterUnits="userSpaceOnUse" height="5.839" width="10.953" x="20.144" y="15.091"><feFlood flood-opacity="0" result="BackgroundImageFix"/><feBlend in="SourceGraphic" in2="BackgroundImageFix" mode="normal" result="shape"/><feGaussianBlur result="effect1_foregroundBlur_28327_1998" stdDeviation="1"/></filter><filter id="j" color-interpolation-filters="sRGB" filterUnits="userSpaceOnUse" height="16.25" width="16.438" x="13.925" y="4.341"><feFlood flood-opacity="0" result="BackgroundImageFix"/><feBlend in="SourceGraphic" in2="BackgroundImageFix" mode="normal" result="shape"/><feGaussianBlur result="effect1_foregroundBlur_28327_1998" stdDeviation="1.5"/></filter><linearGradient id="k"><stop offset="0" stop-color="#656169"/><stop offset="1" stop-color="#77747c"/></linearGradient><linearGradient id="l" gradientUnits="userSpaceOnUse" x1="8.575" x2="8.206" xlink:href="#k" y1="7.05" y2="10.071"/><linearGradient id="m" gradientUnits="userSpaceOnUse" x1="8.721" x2="7.753" y1="9.914" y2="9.008"><stop offset="0" stop-color="#5a585d"/><stop offset=".738" stop-color="#5a585d" stop-opacity="0"/></linearGradient><linearGradient id="n"><stop offset="0" stop-color="#a19ea5"/><stop offset="1" stop-color="#a19ea5" stop-opacity="0"/></linearGradient><linearGradient id="o" gradientUnits="userSpaceOnUse" x1="9.69" x2="7.128" xlink:href="#n" y1="10.742" y2="7.992"/><linearGradient id="p"><stop offset=".784" stop-color="#bdbac0" stop-opacity="0"/><stop offset="1" stop-color="#bdbac0"/></linearGradient><radialGradient id="q" cx="0" cy="0" gradientTransform="matrix(-4.8125056 1.18340076 -2.54263522 -10.34006962 9.53379 8.24243)" gradientUnits="userSpaceOnUse" r="1" xlink:href="#p"/><linearGradient id="r"><stop offset="0" stop-color="#cbc7ce"/><stop offset="1" stop-color="#cbc7ce" stop-opacity="0"/></linearGradient><linearGradient id="s" gradientUnits="userSpaceOnUse" x1="11.049" x2="6.331" xlink:href="#r" y1="7.586" y2="6.727"/><linearGradient id="t" gradientUnits="userSpaceOnUse" x1="10.475" x2="5.756" xlink:href="#r" y1="9.34" y2="8.481"/><linearGradient id="u" gradientUnits="userSpaceOnUse" x1="24.006" x2="24.534" xlink:href="#k" y1="6.492" y2="9.426"/><linearGradient id="v" gradientUnits="userSpaceOnUse" x1="24.006" x2="25.453" xlink:href="#n" y1="5.149" y2="7.992"/><radialGradient id="w" cx="0" cy="0" gradientTransform="matrix(4.81249733 1.18343436 -2.54270741 10.34005187 23.0469 8.24243)" gradientUnits="userSpaceOnUse" r="1" xlink:href="#p"/><radialGradient id="x" cx="0" cy="0" gradientTransform="matrix(-.40624135 1.75000684 -2.84633517 -.66073973 28.5026 5.9768)" gradientUnits="userSpaceOnUse" r="1"><stop offset="0" stop-color="#bfbdc2"/><stop offset="1" stop-color="#bfbdc2" stop-opacity="0"/></radialGradient><linearGradient id="y" gradientUnits="userSpaceOnUse" x1="21.531" x2="26.25" xlink:href="#r" y1="7.586" y2="6.727"/><linearGradient id="z" gradientUnits="userSpaceOnUse" x1="22.106" x2="26.825" xlink:href="#r" y1="9.34" y2="8.481"/><radialGradient id="A" cx="0" cy="0" gradientTransform="matrix(-3.25006085 17.49996072 -32.96334571 -6.12189257 20.1276 10.18)" gradientUnits="userSpaceOnUse" r="1"><stop offset="0" stop-color="#c6c5c7"/><stop offset="1" stop-color="#b0a7b9"/></radialGradient><radialGradient id="B" cx="0" cy="0" gradientTransform="matrix(-5.25004406 -5.56245205 19.5327024 -18.43567319 28.9401 25.6175)" gradientUnits="userSpaceOnUse" r="1"><stop offset=".094" stop-color="#978ea0"/><stop offset=".647" stop-color="#978ea0" stop-opacity="0"/></radialGradient><radialGradient id="C" cx="0" cy="0" gradientTransform="matrix(0 4.375 -6.91532 0 9.06506 19.1175)" gradientUnits="userSpaceOnUse" r="1"><stop offset=".479" stop-color="#9c93a7"/><stop offset="1" stop-color="#a098a9" stop-opacity="0"/></radialGradient><radialGradient id="D" cx="0" cy="0" gradientTransform="matrix(0 3.5 -5.53226 0 23.8151 20.055)" gradientUnits="userSpaceOnUse" r="1"><stop offset=".278" stop-color="#a99eb6"/><stop offset="1" stop-color="#a098a9" stop-opacity="0"/></radialGradient><linearGradient id="E" gradientUnits="userSpaceOnUse" x1="3.378" x2="7.253" y1="11.617" y2="15.18"><stop offset="0" stop-color="#e1dde6"/><stop offset=".708" stop-color="#e1dde6" stop-opacity="0"/></linearGradient><radialGradient id="F" cx="0" cy="0" gradientTransform="matrix(-16.8125697 11.37483632 -12.3441546 -18.24526998 17.5026 12.555)" gradientUnits="userSpaceOnUse" r="1"><stop offset=".731" stop-color="#e1dde6" stop-opacity="0"/><stop offset="1" stop-color="#e1dde6"/></radialGradient><radialGradient id="G" cx="0" cy="0" gradientTransform="matrix(0 -20.375 19.4539 0 16.0063 24.43)" gradientUnits="userSpaceOnUse" r="1"><stop offset=".868" stop-color="#b0a9b8" stop-opacity="0"/><stop offset="1" stop-color="#b0a9b8"/></radialGradient><radialGradient id="H" cx="0" cy="0" gradientTransform="matrix(3.68749875 5.31249765 -5.86640755 4.07197742 11.5651 9.49249)" gradientUnits="userSpaceOnUse" r="1"><stop offset="0" stop-color="#b6b2b9"/><stop offset="1" stop-color="#b6b2b9" stop-opacity="0"/></radialGradient><linearGradient id="I" gradientUnits="userSpaceOnUse" x1="13.878" x2="11.377" y1="14.68" y2="27.617"><stop offset="0" stop-color="#e1daea"/><stop offset="1" stop-color="#b7a8c7"/></linearGradient><linearGradient id="J" gradientUnits="userSpaceOnUse" x1="21.951" x2="26.628" y1="16.555" y2="27.055"><stop offset="0" stop-color="#e6e1ed"/><stop offset="1" stop-color="#b7a8c7"/></linearGradient><linearGradient id="K" gradientUnits="userSpaceOnUse" x1="13.436" x2="13.436" y1="15.54" y2="29.805"><stop offset="0" stop-color="#6f6c72"/><stop offset="1" stop-color="#574f60"/></linearGradient><linearGradient id="L"><stop offset=".652" stop-color="#8664a8" stop-opacity="0"/><stop offset="1" stop-color="#8664a8"/></linearGradient><radialGradient id="M" cx="0" cy="0" gradientTransform="matrix(-2.64355004 7.43750358 -18.47527096 -6.5667603 8.8739 19.8674)" gradientUnits="userSpaceOnUse" r="1" xlink:href="#L"/><linearGradient id="N" gradientUnits="userSpaceOnUse" x1="25.381" x2="25.381" y1="15.54" y2="30.492"><stop offset="0" stop-color="#868488"/><stop offset="1" stop-color="#574f60"/></linearGradient><radialGradient id="O" cx="0" cy="0" gradientTransform="matrix(1.99650867 8.41250312 -20.89725489 4.95946926 20.8185 19.8674)" gradientUnits="userSpaceOnUse" r="1" xlink:href="#L"/><linearGradient id="P"><stop offset=".225" stop-color="#594c4f"/><stop offset="1" stop-color="#392833"/></linearGradient><linearGradient id="Q" gradientUnits="userSpaceOnUse" x1="20.715" x2="19.89" xlink:href="#P" y1="18.22" y2="18.22"/><linearGradient id="R"><stop offset="0" stop-color="#552d52"/><stop offset="1" stop-color="#552d52" stop-opacity="0"/></linearGradient><linearGradient id="S" gradientUnits="userSpaceOnUse" x1="21.037" x2="21.037" xlink:href="#R" y1="20.245" y2="18.655"/><linearGradient id="T" gradientUnits="userSpaceOnUse" x1="12.668" x2="11.842" xlink:href="#P" y1="18.22" y2="18.22"/><linearGradient id="U" gradientUnits="userSpaceOnUse" x1="12.989" x2="12.989" xlink:href="#R" y1="20.245" y2="18.655"/><radialGradient id="V" cx="0" cy="0" gradientTransform="matrix(-3.377626 8.72384218 -8.64276676 -3.34623588 19.3776 21.4561)" gradientUnits="userSpaceOnUse" r="1"><stop offset="0" stop-color="#dfdbe4"/><stop offset="1" stop-color="#978ea2"/></radialGradient><radialGradient id="W" cx="0" cy="0" gradientTransform="matrix(0 -7.09375 14.8776 0 16 30.4612)" gradientUnits="userSpaceOnUse" r="1"><stop offset="0" stop-color="#8664a8"/><stop offset="1" stop-color="#8664a8" stop-opacity="0"/></radialGradient><radialGradient id="X" cx="0" cy="0" gradientTransform="matrix(-5.87758886 3.99995629 -3.92971914 -5.77438146 16.5026 23.555)" gradientUnits="userSpaceOnUse" r="1"><stop offset=".678" stop-color="#e1dde6" stop-opacity="0"/><stop offset="1" stop-color="#e1dde6"/></radialGradient><radialGradient id="Y" cx="0" cy="0" gradientTransform="matrix(5.49999703 -6.34999726 6.2384966 5.40342166 15.4401 26.18)" gradientUnits="userSpaceOnUse" r="1"><stop offset=".61" stop-color="#aba5b1" stop-opacity="0"/><stop offset="1" stop-color="#aba5b1"/></radialGradient><radialGradient id="Z" cx="0" cy="0" gradientTransform="matrix(0 -6.0375 9.5625 0 15.4401 25.8675)" gradientUnits="userSpaceOnUse" r="1"><stop offset=".561" stop-color="#aba5b1" stop-opacity="0"/><stop offset="1" stop-color="#aba5b1"/></radialGradient><linearGradient id="aa" gradientUnits="userSpaceOnUse" x1="17.228" x2="14.397" y1="19.564" y2="22.041"><stop offset=".191" stop-color="#5f5254"/><stop offset="1" stop-color="#2e2127"/></linearGradient><radialGradient id="ab" cx="0" cy="0" gradientTransform="matrix(-1.34230363 1.48858336 -2.72652095 -2.45859188 16.324 20.4451)" gradientUnits="userSpaceOnUse" r="1"><stop offset=".463" stop-color="#34222c" stop-opacity="0"/><stop offset=".956" stop-color="#34222c"/></radialGradient><linearGradient id="ac" gradientUnits="userSpaceOnUse" x1="16.359" x2="16.359" y1="20.698" y2="19.145"><stop offset=".147" stop-color="#34222c" stop-opacity="0"/><stop offset=".873" stop-color="#34222c"/></linearGradient><linearGradient id="ad" gradientUnits="userSpaceOnUse" x1="17.127" x2="17.127" xlink:href="#R" y1="23.304" y2="20.955"/><radialGradient id="ae" cx="0" cy="0" gradientTransform="matrix(-5.40623581 -1.85940565 .8435375 -2.45259158 18.7838 22.1487)" gradientUnits="userSpaceOnUse" r="1"><stop offset=".828" stop-color="#5c5458" stop-opacity="0"/><stop offset=".935" stop-color="#5c5458"/></radialGradient><linearGradient id="af"><stop offset="0" stop-color="#261317"/><stop offset=".589" stop-color="#4e4647"/><stop offset=".747" stop-color="#2f172a"/></linearGradient><radialGradient id="ag" cx="0" cy="0" gradientTransform="matrix(-.62501911 3.26562569 -2.81412094 -.53860409 14.7057 23.5393)" gradientUnits="userSpaceOnUse" r="1" xlink:href="#af"/><linearGradient id="ah"><stop offset="0" stop-color="#261317"/><stop offset="1" stop-color="#261317" stop-opacity="0"/></linearGradient><radialGradient id="ai" cx="0" cy="0" gradientTransform="matrix(-.60937244 .53125243 -.67770034 -.77735534 15.5338 24.6331)" gradientUnits="userSpaceOnUse" r="1" xlink:href="#ah"/><radialGradient id="aj" cx="0" cy="0" gradientTransform="matrix(.87499746 1.0468713 -.78496741 .65609257 12.7369 23.2424)" gradientUnits="userSpaceOnUse" r="1" xlink:href="#ah"/><radialGradient id="ak" cx="0" cy="0" gradientTransform="matrix(.40624849 2.67187216 -2.77490796 .42191471 17.6901 24.0393)" gradientUnits="userSpaceOnUse" r="1" xlink:href="#af"/><radialGradient id="al" cx="0" cy="0" gradientTransform="matrix(.92187104 .87499726 -.96783161 1.01967853 15.7057 23.7581)" gradientUnits="userSpaceOnUse" r="1" xlink:href="#ah"/><g filter="url(#a)"><path d="m6.24772 7.74626c.12443 1.8077.89448 3.24804 1.5628 4.05554l3.10938-3.34375c-1.25658-.92718-2.97988-1.31459-4.00973-1.39279-.3905-.02965-.68935.29031-.66245.681z" fill="url(#l)"/><path d="m6.24772 7.74626c.12443 1.8077.89448 3.24804 1.5628 4.05554l3.10938-3.34375c-1.25658-.92718-2.97988-1.31459-4.00973-1.39279-.3905-.02965-.68935.29031-.66245.681z" fill="url(#m)"/></g><path d="m7.1942 12.3118.58129.7024.62087-.6676 3.10934-3.34377.6104-.65636-.7212-.53215c-1.42168-1.04899-3.31067-1.46221-4.42416-1.54676-.91497-.06948-1.57884.69542-1.52114 1.53364.13753 1.99781.98536 3.5932 1.7446 4.5106z" stroke="#aeaab3" stroke-width="1.6"/><path d="m7.1942 12.3118.58129.7024.62087-.6676 3.10934-3.34377.6104-.65636-.7212-.53215c-1.42168-1.04899-3.31067-1.46221-4.42416-1.54676-.91497-.06948-1.57884.69542-1.52114 1.53364.13753 1.99781.98536 3.5932 1.7446 4.5106z" stroke="url(#o)" stroke-width="1.6"/><path d="m7.1942 12.3118.58129.7024.62087-.6676 3.10934-3.34377.6104-.65636-.7212-.53215c-1.42168-1.04899-3.31067-1.46221-4.42416-1.54676-.91497-.06948-1.57884.69542-1.52114 1.53364.13753 1.99781.98536 3.5932 1.7446 4.5106z" stroke="url(#q)" stroke-width="1.6"/><g filter="url(#b)"><path d="m6.31506 5.97681c.90625.01041 3.57813.46875 5.17184 1.51562" stroke="url(#s)" stroke-linecap="round" stroke-width=".15"/></g><g filter="url(#c)"><path d="m6.61975 7.82056c.08594 1.03906.60938 2.64064 1.0625 3.22254" stroke="url(#t)" stroke-linecap="round" stroke-width=".15"/></g><g filter="url(#d)"><path d="m26.333 7.74626c-.1245 1.8077-.8945 3.24804-1.5628 4.05554l-3.1094-3.34375c1.2566-.92718 2.9799-1.31459 4.0097-1.39279.3905-.02965.6894.29031.6625.681z" fill="url(#u)"/></g><g stroke-width="1.6"><path d="m25.3865 12.3118-.5813.7024-.6209-.6676-3.1093-3.34377-.6104-.65636.7212-.53215c1.4217-1.04899 3.3107-1.46221 4.4242-1.54676.9149-.06948 1.5788.69542 1.5211 1.53364-.1375 1.99781-.9854 3.5932-1.7446 4.5106z" stroke="#aeaab3"/><path d="m25.3865 12.3118-.5813.7024-.6209-.6676-3.1093-3.34377-.6104-.65636.7212-.53215c1.4217-1.04899 3.3107-1.46221 4.4242-1.54676.9149-.06948 1.5788.69542 1.5211 1.53364-.1375 1.99781-.9854 3.5932-1.7446 4.5106z" stroke="url(#v)"/><path d="m25.3865 12.3118-.5813.7024-.6209-.6676-3.1093-3.34377-.6104-.65636.7212-.53215c1.4217-1.04899 3.3107-1.46221 4.4242-1.54676.9149-.06948 1.5788.69542 1.5211 1.53364-.1375 1.99781-.9854 3.5932-1.7446 4.5106z" stroke="url(#w)"/><path d="m25.3865 12.3118-.5813.7024-.6209-.6676-3.1093-3.34377-.6104-.65636.7212-.53215c1.4217-1.04899 3.3107-1.46221 4.4242-1.54676.9149-.06948 1.5788.69542 1.5211 1.53364-.1375 1.99781-.9854 3.5932-1.7446 4.5106z" stroke="url(#x)"/></g><g filter="url(#e)"><path d="m27.0182 6.64868c.4375.51563.2656 3.03125-.9532 4.93752" stroke="url(#y)" stroke-linecap="round" stroke-width=".15"/></g><g filter="url(#f)"><path d="m25.5963 7.46118c-1.1146 0-3.0781.73063-3.5312 1.3125" stroke="url(#z)" stroke-linecap="round" stroke-opacity=".3" stroke-width=".15"/></g><path d="m23.505 9.44c-.06-.08-.13-.16-.2-.23-1.77-2.05-4.38-3.34-7.3-3.34s-5.53 1.29-7.31 3.33c-.06.08-.13.16-.19.24l-5.8 6.92c-.74.89-.91 2.12-.44 3.17 2.35 5.24 7.62 8.9 13.74 8.9s11.39-3.66 13.74-8.91c.47-1.06.31-2.29-.44-3.17z" fill="url(#A)"/><path d="m23.505 9.44c-.06-.08-.13-.16-.2-.23-1.77-2.05-4.38-3.34-7.3-3.34s-5.53 1.29-7.31 3.33c-.06.08-.13.16-.19.24l-5.8 6.92c-.74.89-.91 2.12-.44 3.17 2.35 5.24 7.62 8.9 13.74 8.9s11.39-3.66 13.74-8.91c.47-1.06.31-2.29-.44-3.17z" fill="url(#B)"/><path d="m23.505 9.44c-.06-.08-.13-.16-.2-.23-1.77-2.05-4.38-3.34-7.3-3.34s-5.53 1.29-7.31 3.33c-.06.08-.13.16-.19.24l-5.8 6.92c-.74.89-.91 2.12-.44 3.17 2.35 5.24 7.62 8.9 13.74 8.9s11.39-3.66 13.74-8.91c.47-1.06.31-2.29-.44-3.17z" fill="url(#C)"/><path d="m23.505 9.44c-.06-.08-.13-.16-.2-.23-1.77-2.05-4.38-3.34-7.3-3.34s-5.53 1.29-7.31 3.33c-.06.08-.13.16-.19.24l-5.8 6.92c-.74.89-.91 2.12-.44 3.17 2.35 5.24 7.62 8.9 13.74 8.9s11.39-3.66 13.74-8.91c.47-1.06.31-2.29-.44-3.17z" fill="url(#D)"/><path d="m23.505 9.44c-.06-.08-.13-.16-.2-.23-1.77-2.05-4.38-3.34-7.3-3.34s-5.53 1.29-7.31 3.33c-.06.08-.13.16-.19.24l-5.8 6.92c-.74.89-.91 2.12-.44 3.17 2.35 5.24 7.62 8.9 13.74 8.9s11.39-3.66 13.74-8.91c.47-1.06.31-2.29-.44-3.17z" fill="url(#E)"/><path d="m23.505 9.44c-.06-.08-.13-.16-.2-.23-1.77-2.05-4.38-3.34-7.3-3.34s-5.53 1.29-7.31 3.33c-.06.08-.13.16-.19.24l-5.8 6.92c-.74.89-.91 2.12-.44 3.17 2.35 5.24 7.62 8.9 13.74 8.9s11.39-3.66 13.74-8.91c.47-1.06.31-2.29-.44-3.17z" fill="url(#F)"/><path d="m23.505 9.44c-.06-.08-.13-.16-.2-.23-1.77-2.05-4.38-3.34-7.3-3.34s-5.53 1.29-7.31 3.33c-.06.08-.13.16-.19.24l-5.8 6.92c-.74.89-.91 2.12-.44 3.17 2.35 5.24 7.62 8.9 13.74 8.9s11.39-3.66 13.74-8.91c.47-1.06.31-2.29-.44-3.17z" fill="url(#G)"/><path d="m23.505 9.44c-.06-.08-.13-.16-.2-.23-1.77-2.05-4.38-3.34-7.3-3.34s-5.53 1.29-7.31 3.33c-.06.08-.13.16-.19.24l-5.8 6.92c-.74.89-.91 2.12-.44 3.17 2.35 5.24 7.62 8.9 13.74 8.9s11.39-3.66 13.74-8.91c.47-1.06.31-2.29-.44-3.17z" fill="url(#H)"/><path d="m11.785 13.9299c-.03 0-.05 0-.08 0-1.11 0-2.15002.49-2.87002 1.33l-2.59 2.98c-1.23 1.42-1.77 3.28-1.49 5.13 2.64001 2.98 6.45002 4.9 10.72002 5.05v-10.69c-.01-2.06-1.66-3.76-3.69-3.8z" fill="url(#I)"/><path d="m20.245 13.9299h.08c1.11 0 2.15.49 2.87 1.33l2.59 2.98c1.23 1.42 1.77 3.28 1.49 5.13-2.64 2.98-6.45 4.9-10.72 5.05v-10.69c.01-2.06 1.66-3.76 3.69-3.8z" fill="url(#J)"/><path d="m11.6888 15.5399c-.68-.01-1.29.29-1.68996.77l-2.6 2.99c-1.97 2.27-1.38 5.79 1.25 7.25 1.55996.87 3.29996 1.47 5.13996 1.73v-10.55c0-1.18-.93-2.17-2.1-2.19z" fill="url(#K)"/><path d="m11.6888 15.5399c-.68-.01-1.29.29-1.68996.77l-2.6 2.99c-1.97 2.27-1.38 5.79 1.25 7.25 1.55996.87 3.29996 1.47 5.13996 1.73v-10.55c0-1.18-.93-2.17-2.1-2.19z" fill="url(#M)"/><path d="m20.275 15.5399c.68-.01 1.29.29 1.69.77l2.6 2.99c1.97 2.27 1.38 5.79-1.25 7.25-1.56.87-3.3 1.47-5.14 1.73v-10.55c0-1.18.93-2.17 2.1-2.19z" fill="url(#N)"/><path d="m20.275 15.5399c.68-.01 1.29.29 1.69.77l2.6 2.99c1.97 2.27 1.38 5.79-1.25 7.25-1.56.87-3.3 1.47-5.14 1.73v-10.55c0-1.18.93-2.17 2.1-2.19z" fill="url(#O)"/><g filter="url(#g)"><path d="m19.8737 19.9543c-.41 0-.75-.34-.75-.75v-1.5c0-.41.34-.75.75-.75s.75.34.75.75v1.5c0 .42-.34.75-.75.75z" fill="#574f5e"/></g><g filter="url(#h)"><path d="m11.755 19.9543c-.41 0-.75-.34-.75-.75v-1.5c0-.41.34-.75.75-.75s.75.34.75.75v1.5c0 .42-.34.75-.75.75z" fill="#574f5e"/></g><path d="m20.0525 19.72c-.41 0-.75-.34-.75-.75v-1.5c0-.41.34-.75.75-.75s.75.34.75.75v1.5c0 .42-.34.75-.75.75z" fill="url(#Q)"/><path d="m20.0525 19.72c-.41 0-.75-.34-.75-.75v-1.5c0-.41.34-.75.75-.75s.75.34.75.75v1.5c0 .42-.34.75-.75.75z" fill="url(#S)"/><path d="m12.005 19.72c-.41 0-.75-.34-.75-.75v-1.5c0-.41.34-.75.75-.75s.75.34.75.75v1.5c0 .42-.34.75-.75.75z" fill="url(#T)"/><path d="m12.005 19.72c-.41 0-.75-.34-.75-.75v-1.5c0-.41.34-.75.75-.75s.75.34.75.75v1.5c0 .42-.34.75-.75.75z" fill="url(#U)"/><path d="m21.375 23.6311c0-2.0937-1.67-3.8011-3.74-3.8011h-3.27c-2.06 0-3.74 1.6973-3.74 3.8011 0 2.612 2.01 4.7768 4.58 4.9191.27.0102.54.0204.8.0204s.53-.0102.79-.0204c2.57-.1321 4.58-2.2969 4.58-4.9191z" fill="url(#V)"/><path d="m21.375 23.6311c0-2.0937-1.67-3.8011-3.74-3.8011h-3.27c-2.06 0-3.74 1.6973-3.74 3.8011 0 2.612 2.01 4.7768 4.58 4.9191.27.0102.54.0204.8.0204s.53-.0102.79-.0204c2.57-.1321 4.58-2.2969 4.58-4.9191z" fill="url(#W)"/><path d="m21.375 23.6311c0-2.0937-1.67-3.8011-3.74-3.8011h-3.27c-2.06 0-3.74 1.6973-3.74 3.8011 0 2.612 2.01 4.7768 4.58 4.9191.27.0102.54.0204.8.0204s.53-.0102.79-.0204c2.57-.1321 4.58-2.2969 4.58-4.9191z" fill="url(#X)"/><path d="m21.375 23.6311c0-2.0937-1.67-3.8011-3.74-3.8011h-3.27c-2.06 0-3.74 1.6973-3.74 3.8011 0 2.612 2.01 4.7768 4.58 4.9191.27.0102.54.0204.8.0204s.53-.0102.79-.0204c2.57-.1321 4.58-2.2969 4.58-4.9191z" fill="url(#Y)"/><path d="m21.375 23.6311c0-2.0937-1.67-3.8011-3.74-3.8011h-3.27c-2.06 0-3.74 1.6973-3.74 3.8011 0 2.612 2.01 4.7768 4.58 4.9191.27.0102.54.0204.8.0204s.53-.0102.79-.0204c2.57-.1321 4.58-2.2969 4.58-4.9191z" fill="url(#Z)"/><path d="m14.075 21.49 1.25 1.26c.38.38.99.38 1.36 0l1.25-1.26c.61-.61.18-1.66-.68-1.66h-2.5c-.86 0-1.29 1.05-.68 1.66z" fill="url(#aa)"/><path d="m14.075 21.49 1.25 1.26c.38.38.99.38 1.36 0l1.25-1.26c.61-.61.18-1.66-.68-1.66h-2.5c-.86 0-1.29 1.05-.68 1.66z" fill="url(#ab)"/><path d="m14.075 21.49 1.25 1.26c.38.38.99.38 1.36 0l1.25-1.26c.61-.61.18-1.66-.68-1.66h-2.5c-.86 0-1.29 1.05-.68 1.66z" fill="url(#ac)"/><path d="m14.075 21.49 1.25 1.26c.38.38.99.38 1.36 0l1.25-1.26c.61-.61.18-1.66-.68-1.66h-2.5c-.86 0-1.29 1.05-.68 1.66z" fill="url(#ad)"/><path d="m14.075 21.49 1.25 1.26c.38.38.99.38 1.36 0l1.25-1.26c.61-.61.18-1.66-.68-1.66h-2.5c-.86 0-1.29 1.05-.68 1.66z" fill="url(#ae)"/><g filter="url(#i)"><ellipse cx="25.62" cy="18.011" fill="#e1dde6" fill-opacity=".5" rx="3.476" ry=".919"/></g><g filter="url(#j)"><path d="m17.425 7.84131c.625.02083 2.175.425 3.375 1.875 1.2 1.44999 4.5417 5.52079 6.0625 7.37499" stroke="#e1dde6" stroke-linecap="round"/></g><g stroke-linecap="round"><path d="m12.8984 24.1174c0 .5313.3282 1.5078 1.5157 1.5078s1.5338-.927 1.5859-1.4062" stroke="url(#ag)"/><path d="m12.8984 24.1174c0 .5313.3282 1.5078 1.5157 1.5078s1.5338-.927 1.5859-1.4062" stroke="url(#ai)"/><path d="m12.8984 24.1174c0 .5313.3282 1.5078 1.5157 1.5078s1.5338-.927 1.5859-1.4062" stroke="url(#aj)"/><path d="m19.1016 24.1174c0 .5313-.3282 1.5078-1.5157 1.5078s-1.5338-.927-1.5859-1.4062" stroke="url(#ak)"/><path d="m19.1016 24.1174c0 .5313-.3282 1.5078-1.5157 1.5078s-1.5338-.927-1.5859-1.4062" stroke="url(#al)"/></g></svg>