<svg fill="none" height="32" viewBox="0 0 32 32" width="32" xmlns="http://www.w3.org/2000/svg" xmlns:xlink="http://www.w3.org/1999/xlink"><filter id="a" color-interpolation-filters="sRGB" filterUnits="userSpaceOnUse" height="5.919" width="14.309" x="6.119" y="7.756"><feFlood flood-opacity="0" result="BackgroundImageFix"/><feBlend in="SourceGraphic" in2="BackgroundImageFix" mode="normal" result="shape"/><feGaussianBlur result="effect1_foregroundBlur_28327_6540" stdDeviation=".225"/></filter><filter id="b" color-interpolation-filters="sRGB" filterUnits="userSpaceOnUse" height="1.876" width="15.587" x="11.118" y="17.14"><feFlood flood-opacity="0" result="BackgroundImageFix"/><feBlend in="SourceGraphic" in2="BackgroundImageFix" mode="normal" result="shape"/><feGaussianBlur result="effect1_foregroundBlur_28327_6540" stdDeviation=".375"/></filter><filter id="c" color-interpolation-filters="sRGB" filterUnits="userSpaceOnUse" height="5.1" width="20.866" x="9.038" y="11.949"><feFlood flood-opacity="0" result="BackgroundImageFix"/><feBlend in="SourceGraphic" in2="BackgroundImageFix" mode="normal" result="shape"/><feColorMatrix in="SourceAlpha" result="hardAlpha" type="matrix" values="0 0 0 0 0 0 0 0 0 0 0 0 0 0 0 0 0 0 127 0"/><feOffset dy=".1"/><feGaussianBlur stdDeviation=".5"/><feComposite in2="hardAlpha" k2="-1" k3="1" operator="arithmetic"/><feColorMatrix type="matrix" values="0 0 0 0 0.623529 0 0 0 0 0.796078 0 0 0 0 0.45098 0 0 0 1 0"/><feBlend in2="shape" mode="normal" result="effect1_innerShadow_28327_6540"/></filter><filter id="d" color-interpolation-filters="sRGB" filterUnits="userSpaceOnUse" height="6.069" width="1.1" x="9.95" y="19.196"><feFlood flood-opacity="0" result="BackgroundImageFix"/><feBlend in="SourceGraphic" in2="BackgroundImageFix" mode="normal" result="shape"/><feGaussianBlur result="effect1_foregroundBlur_28327_6540" stdDeviation=".2"/></filter><filter id="e" color-interpolation-filters="sRGB" filterUnits="userSpaceOnUse" height="8.522" width="4.341" x="4.012" y="17.214"><feFlood flood-opacity="0" result="BackgroundImageFix"/><feBlend in="SourceGraphic" in2="BackgroundImageFix" mode="normal" result="shape"/><feColorMatrix in="SourceAlpha" result="hardAlpha" type="matrix" values="0 0 0 0 0 0 0 0 0 0 0 0 0 0 0 0 0 0 127 0"/><feOffset dx=".1" dy=".1"/><feGaussianBlur stdDeviation=".125"/><feComposite in2="hardAlpha" k2="-1" k3="1" operator="arithmetic"/><feColorMatrix type="matrix" values="0 0 0 0 0.658824 0 0 0 0 0.831373 0 0 0 0 0.580392 0 0 0 1 0"/><feBlend in2="shape" mode="normal" result="effect1_innerShadow_28327_6540"/></filter><filter id="f" color-interpolation-filters="sRGB" filterUnits="userSpaceOnUse" height="6.232" width="3.47" x="4.693" y="19.017"><feFlood flood-opacity="0" result="BackgroundImageFix"/><feBlend in="SourceGraphic" in2="BackgroundImageFix" mode="normal" result="shape"/><feGaussianBlur result="effect1_foregroundBlur_28327_6540" stdDeviation=".125"/></filter><filter id="g" color-interpolation-filters="sRGB" filterUnits="userSpaceOnUse" height="15.987" width="1.3" x="22.85" y="9.456"><feFlood flood-opacity="0" result="BackgroundImageFix"/><feBlend in="SourceGraphic" in2="BackgroundImageFix" mode="normal" result="shape"/><feGaussianBlur result="effect1_foregroundBlur_28327_6540" stdDeviation=".25"/></filter><filter id="h" color-interpolation-filters="sRGB" filterUnits="userSpaceOnUse" height="14.469" width="10.688" x="14" y="8.449"><feFlood flood-opacity="0" result="BackgroundImageFix"/><feBlend in="SourceGraphic" in2="BackgroundImageFix" mode="normal" result="shape"/><feGaussianBlur result="effect1_foregroundBlur_28327_6540" stdDeviation=".5"/></filter><linearGradient id="i" gradientUnits="userSpaceOnUse" x1="7.594" x2="18.943" y1="14.105" y2="12.273"><stop offset="0" stop-color="#a5cf2d"/><stop offset="1" stop-color="#60c674"/></linearGradient><radialGradient id="j" cx="0" cy="0" gradientTransform="matrix(-.56250157 .24999495 -.24355209 -.54800481 20.2109 8.26953)" gradientUnits="userSpaceOnUse" r="1"><stop offset="0" stop-color="#87e08e"/><stop offset="1" stop-color="#87e08e" stop-opacity="0"/></radialGradient><radialGradient id="k" cx="0" cy="0" gradientTransform="matrix(.39817453 .34603268 -.95074959 1.09401305 7.70469 9.70361)" gradientUnits="userSpaceOnUse" r="1"><stop offset="0" stop-color="#9ec956"/><stop offset="1" stop-color="#9ec956" stop-opacity="0"/></radialGradient><linearGradient id="l"><stop offset="0" stop-color="#b8dc88"/><stop offset="1" stop-color="#b8dc88" stop-opacity="0"/></linearGradient><radialGradient id="m" cx="0" cy="0" gradientTransform="matrix(.62342912 -1.20593455 .2594134 .13410833 6.0172 9.13953)" gradientUnits="userSpaceOnUse" r="1" xlink:href="#l"/><linearGradient id="n" gradientUnits="userSpaceOnUse" x1="5.586" x2="5.898" xlink:href="#l" y1="11.301" y2="11.301"/><linearGradient id="o" gradientUnits="userSpaceOnUse" x1="5.719" x2="18.794" y1="12.186" y2="7.836"><stop offset="0" stop-color="#b1d756"/><stop offset="1" stop-color="#6dcf7a"/></linearGradient><linearGradient id="p" gradientUnits="userSpaceOnUse" x1="18.258" x2="18.258" y1="16.605" y2="19.949"><stop offset="0" stop-color="#74bc3f"/><stop offset="1" stop-color="#71c48e"/></linearGradient><linearGradient id="q" gradientUnits="userSpaceOnUse" x1="18.258" x2="18.258" y1="18.923" y2="19.949"><stop offset="0" stop-color="#92a5c1" stop-opacity="0"/><stop offset="1" stop-color="#92a5c1"/></linearGradient><radialGradient id="r" cx="0" cy="0" gradientTransform="matrix(-1.90170656 .65737285 -.51238374 -1.48226917 26.8466 17.984)" gradientUnits="userSpaceOnUse" r="1"><stop offset="0" stop-color="#9cda82"/><stop offset=".724" stop-color="#9cda82" stop-opacity="0"/></radialGradient><linearGradient id="s" gradientUnits="userSpaceOnUse" x1="25.156" x2="12.173" y1="18.266" y2="18.266"><stop offset="0" stop-color="#8bd27c"/><stop offset="1" stop-color="#8bd27c" stop-opacity="0"/></linearGradient><linearGradient id="t" gradientUnits="userSpaceOnUse" x1="8.594" x2="25.469" y1="14.449" y2="14.449"><stop offset="0" stop-color="#a6d63f"/><stop offset="1" stop-color="#70db76"/></linearGradient><radialGradient id="u" cx="0" cy="0" gradientTransform="matrix(-4.00001624 2.49997295 -1.42378982 -2.27809761 20.5625 12.168)" gradientUnits="userSpaceOnUse" r="1"><stop offset="0" stop-color="#83c555"/><stop offset="1" stop-color="#83c555" stop-opacity="0"/></radialGradient><radialGradient id="v" cx="0" cy="0" gradientTransform="matrix(-1.1875011 -1.37500535 6.48083497 -5.59706819 18.125 15.1992)" gradientUnits="userSpaceOnUse" r="1"><stop offset="0" stop-color="#6dae3c"/><stop offset="1" stop-color="#6dae3c" stop-opacity="0"/></radialGradient><radialGradient id="w" cx="0" cy="0" gradientTransform="matrix(9.375 0 0 4.64939 14.5938 18.543)" gradientUnits="userSpaceOnUse" r="1"><stop offset="0" stop-color="#89b553"/><stop offset="1" stop-color="#89b553" stop-opacity="0"/></radialGradient><radialGradient id="x" cx="0" cy="0" gradientTransform="matrix(7.18560847 -.09374892 .02326744 1.78338822 22.7188 16.418)" gradientUnits="userSpaceOnUse" r="1"><stop offset="0" stop-color="#6ec68a"/><stop offset="1" stop-color="#6ec68a" stop-opacity="0"/></radialGradient><radialGradient id="y" cx="0" cy="0" gradientTransform="matrix(-3.93749535 2.25000817 -.61693612 -1.07963302 29.25 12.8867)" gradientUnits="userSpaceOnUse" r="1"><stop offset="0" stop-color="#8ced95"/><stop offset=".703" stop-color="#8ced95" stop-opacity="0"/></radialGradient><linearGradient id="z" gradientUnits="userSpaceOnUse" x1="19.471" x2="19.471" y1="17.515" y2="16.176"><stop offset="0" stop-color="#59c261"/><stop offset="1" stop-color="#59c261" stop-opacity="0"/></linearGradient><radialGradient id="A" cx="0" cy="0" gradientTransform="matrix(2.53125312 .56250034 -1.70588152 7.6764717 21.4375 19.6367)" gradientUnits="userSpaceOnUse" r="1"><stop offset=".036" stop-color="#75b06e"/><stop offset="1" stop-color="#75b06e" stop-opacity="0"/></radialGradient><linearGradient id="B" gradientUnits="userSpaceOnUse" x1="10.269" x2="10.269" y1="15.303" y2="25.097"><stop offset="0" stop-color="#6ea86b"/><stop offset="1" stop-color="#7fb664"/></linearGradient><linearGradient id="C"><stop offset="0" stop-color="#a6acb3"/><stop offset="1" stop-color="#a6acb3" stop-opacity="0"/></linearGradient><linearGradient id="D" gradientUnits="userSpaceOnUse" x1="10.438" x2="10.438" xlink:href="#C" y1="25.809" y2="25.168"/><linearGradient id="E" gradientUnits="userSpaceOnUse" x1="9.375" x2="9.742" y1="22.996" y2="22.996"><stop offset="0" stop-color="#9fc997"/><stop offset="1" stop-color="#9fc997" stop-opacity="0"/></linearGradient><linearGradient id="F" gradientUnits="userSpaceOnUse" x1="11" x2="11" y1="19.746" y2="24.715"><stop offset="0" stop-color="#8fc190"/><stop offset="1" stop-color="#8fc190" stop-opacity="0"/></linearGradient><linearGradient id="G" gradientUnits="userSpaceOnUse" x1="23.29" x2="23.29" y1="9.668" y2="26.605"><stop offset="0" stop-color="#b3c93b"/><stop offset="1" stop-color="#83be69"/></linearGradient><linearGradient id="H" gradientUnits="userSpaceOnUse" x1="23.459" x2="23.459" xlink:href="#C" y1="25.972" y2="24.664"/><linearGradient id="I"><stop offset="0" stop-color="#c1e36f"/><stop offset="1" stop-color="#c1e36f" stop-opacity="0"/></linearGradient><radialGradient id="J" cx="0" cy="0" gradientTransform="matrix(.375488 0 0 1.8884 23.6641 10.9258)" gradientUnits="userSpaceOnUse" r="1" xlink:href="#I"/><linearGradient id="K" gradientUnits="userSpaceOnUse" x1="12.816" x2="24.656" y1="23.543" y2="8.899"><stop offset="0" stop-color="#6fb867"/><stop offset="1" stop-color="#adc72d"/></linearGradient><linearGradient id="L" gradientUnits="userSpaceOnUse" x1="14.438" x2="17.563" y1="22.855" y2="18.262"><stop offset="0" stop-color="#6ba78d"/><stop offset="1" stop-color="#6ba78d" stop-opacity="0"/></linearGradient><radialGradient id="M" cx="0" cy="0" gradientTransform="matrix(-1.40624325 2.56250052 -2.02947762 -1.11373215 24.25 8.69914)" gradientUnits="userSpaceOnUse" r="1"><stop offset="0" stop-color="#abd756"/><stop offset="1" stop-color="#abd756" stop-opacity="0"/></radialGradient><radialGradient id="N" cx="0" cy="0" gradientTransform="matrix(3.31249856 14.70625491 -14.67308591 3.30502744 13.4688 8.89917)" gradientUnits="userSpaceOnUse" r="1"><stop offset=".79" stop-color="#9aa1cc" stop-opacity="0"/><stop offset="1" stop-color="#9aa1cc"/></radialGradient><radialGradient id="O" cx="0" cy="0" gradientTransform="matrix(3.59375017 2.28125274 -4.19512318 6.60874806 12.5313 17.1366)" gradientUnits="userSpaceOnUse" r="1"><stop offset="0" stop-color="#45a256"/><stop offset="1" stop-color="#45a256" stop-opacity="0"/></radialGradient><radialGradient id="P" cx="0" cy="0" gradientTransform="matrix(.53124993 -.2499997 .49592537 1.05384255 13.3359 21.7226)" gradientUnits="userSpaceOnUse" r="1"><stop offset="0" stop-color="#71b182"/><stop offset="1" stop-color="#71b182" stop-opacity="0"/></radialGradient><radialGradient id="Q" cx="0" cy="0" gradientTransform="matrix(.37500031 .34375093 -3.20591116 3.49735114 18.2187 13.9179)" gradientUnits="userSpaceOnUse" r="1"><stop offset="0" stop-color="#a1cb73"/><stop offset="1" stop-color="#a1cb73" stop-opacity="0"/></radialGradient><radialGradient id="R" cx="0" cy="0" gradientTransform="matrix(.29687619 .21874966 -.91475115 1.24145488 23.2656 10.0273)" gradientUnits="userSpaceOnUse" r="1" xlink:href="#I"/><linearGradient id="S" gradientUnits="userSpaceOnUse" x1="8.252" x2="4.355" y1="19.628" y2="25.262"><stop offset="0" stop-color="#56aa6e"/><stop offset="1" stop-color="#97be60"/></linearGradient><linearGradient id="T" gradientUnits="userSpaceOnUse" x1="7.487" x2="7.487" y1="18.975" y2="20.927"><stop offset="0" stop-color="#41a05e"/><stop offset="1" stop-color="#41a05e" stop-opacity="0"/></linearGradient><linearGradient id="U" gradientUnits="userSpaceOnUse" x1="5.25" x2="5.25" y1="25.809" y2="25.027"><stop offset="0" stop-color="#b0b5cf"/><stop offset="1" stop-color="#b0b5cf" stop-opacity="0"/></linearGradient><linearGradient id="V" gradientUnits="userSpaceOnUse" x1="4.89" x2="7.285" y1="23.968" y2="24.235"><stop offset="0" stop-color="#9fbe77"/><stop offset="1" stop-color="#74b988"/></linearGradient><radialGradient id="W" cx="0" cy="0" gradientTransform="matrix(-3.21878547 3.90622673 -3.46564426 -2.85573936 11.3438 14.543)" gradientUnits="userSpaceOnUse" r="1"><stop offset="0" stop-color="#64e59d"/><stop offset="1" stop-color="#3dc07c"/></radialGradient><radialGradient id="X" cx="0" cy="0" gradientTransform="matrix(0 -6.03125 5.53125 0 8.875 22.543)" gradientUnits="userSpaceOnUse" r="1"><stop offset="0" stop-color="#469a93"/><stop offset="1" stop-color="#469a93" stop-opacity="0"/></radialGradient><radialGradient id="Y" cx="0" cy="0" gradientTransform="matrix(0 -4.46875 4.21648 0 9.09375 21.543)" gradientUnits="userSpaceOnUse" r="1"><stop offset="0" stop-color="#8ea3c9"/><stop offset="1" stop-color="#8ea3c9" stop-opacity="0"/></radialGradient><radialGradient id="Z" cx="0" cy="0" gradientTransform="matrix(1.62500148 -5.81250221 2.34743852 .65627348 6.71875 18.293)" gradientUnits="userSpaceOnUse" r="1"><stop offset="0" stop-color="#29b476"/><stop offset="1" stop-color="#29b476" stop-opacity="0"/></radialGradient><radialGradient id="aa" cx="0" cy="0" gradientTransform="matrix(1.34374681 .53124854 -.77699534 1.96534189 7.28125 13.1211)" gradientUnits="userSpaceOnUse" r="1"><stop offset="0" stop-color="#57ce77"/><stop offset="1" stop-color="#57cc77" stop-opacity="0"/></radialGradient><radialGradient id="ab" cx="0" cy="0" gradientTransform="matrix(-1.81249881 -.53124818 1.09958177 -3.75152467 13.9063 17.6055)" gradientUnits="userSpaceOnUse" r="1"><stop offset="0" stop-color="#3fb568"/><stop offset="1" stop-color="#3fb568" stop-opacity="0"/></radialGradient><radialGradient id="ac" cx="0" cy="0" gradientTransform="matrix(-1.9783396 -3.92001614 2.8041845 -1.41520572 6.18405 20.4973)" gradientUnits="userSpaceOnUse" r="1"><stop offset="0" stop-color="#6fa58e"/><stop offset="1" stop-color="#6fa58e" stop-opacity="0"/></radialGradient><radialGradient id="ad" cx="0" cy="0" gradientTransform="matrix(-5.42683 0 0 -6.08153 7.64948 15.9179)" gradientUnits="userSpaceOnUse" r="1"><stop offset=".783" stop-color="#9ede94" stop-opacity="0"/><stop offset="1" stop-color="#9ede94"/></radialGradient><radialGradient id="ae" cx="0" cy="0" gradientTransform="matrix(-1.03132623 -2.69273525 2.64259689 -1.01212308 5.76274 20.2226)" gradientUnits="userSpaceOnUse" r="1"><stop offset="0" stop-color="#9aa5ca"/><stop offset="1" stop-color="#9aa5ca" stop-opacity="0"/></radialGradient><radialGradient id="af" cx="0" cy="0" gradientTransform="matrix(0 2.0625 -.711491 0 6.23438 15.1522)" gradientUnits="userSpaceOnUse" r="1"><stop offset="0" stop-color="#89de96"/><stop offset="1" stop-color="#89de96" stop-opacity="0"/></radialGradient><linearGradient id="ag" gradientUnits="userSpaceOnUse" x1="7.24" x2="6.5" y1="15.762" y2="15.762"><stop offset="0" stop-color="#35c046"/><stop offset="1" stop-color="#35c046" stop-opacity="0"/></linearGradient><radialGradient id="ah" cx="0" cy="0" gradientTransform="matrix(-1.21872198 3.51113305 -3.75842002 -1.30455583 7.0625 12.0005)" gradientUnits="userSpaceOnUse" r="1"><stop offset="0" stop-color="#69cf62"/><stop offset="1" stop-color="#69cf62" stop-opacity="0"/></radialGradient><radialGradient id="ai" cx="0" cy="0" gradientTransform="matrix(-.50781661 .70312172 -.62686146 -.45273905 4.60742 15.7169)" gradientUnits="userSpaceOnUse" r="1"><stop offset=".006" stop-color="#433437"/><stop offset="1" stop-color="#3b2838"/></radialGradient><radialGradient id="aj" cx="0" cy="0" gradientTransform="matrix(-.33203374 .30273182 -.26633056 -.29210914 4.65545 15.7617)" gradientUnits="userSpaceOnUse" r="1"><stop offset="0" stop-color="#5c5051"/><stop offset="1" stop-color="#5c5051" stop-opacity="0"/></radialGradient><linearGradient id="ak" gradientUnits="userSpaceOnUse" x1="4.299" x2="3.869" y1="15.427" y2="15.154"><stop offset="0" stop-color="#5c5051" stop-opacity="0"/><stop offset="1" stop-color="#5c5051"/></linearGradient><linearGradient id="al" gradientUnits="userSpaceOnUse" x1="24" x2="24" y1="10.105" y2="24.793"><stop offset="0" stop-color="#c1da5b"/><stop offset="1" stop-color="#9fd281"/></linearGradient><linearGradient id="am" gradientUnits="userSpaceOnUse" x1="23.438" x2="17.25" y1="10.293" y2="20.449"><stop offset="0" stop-color="#c2e471"/><stop offset="1" stop-color="#94cb83"/></linearGradient><g stroke-linecap="round" stroke-width="1.5"><path d="m6.42188 13.3086v-2.8438c0-1.10453.89543-1.99996 1.99999-1.99996h11.30863" stroke="url(#i)"/><path d="m6.42188 13.3086v-2.8438c0-1.10453.89543-1.99996 1.99999-1.99996h11.30863" stroke="url(#j)"/><path d="m6.42188 13.3086v-2.8438c0-1.10453.89543-1.99996 1.99999-1.99996h11.30863" stroke="url(#k)"/><path d="m6.42188 13.3086v-2.8438c0-1.10453.89543-1.99996 1.99999-1.99996h11.30863" stroke="url(#m)"/><path d="m6.42188 13.3086v-2.8438c0-1.10453.89543-1.99996 1.99999-1.99996h11.30863" stroke="url(#n)"/></g><g filter="url(#a)"><path d="m6.71875 13.0742v-2.7187c0-1.1046.89543-2.00003 2-2.00003h11.10935" stroke="url(#o)" stroke-linecap="round" stroke-width=".3"/></g><path d="m22.1981 14.4792c-.16 0-.33.01-.49.02v-.02h-12.67001v5.47h6.89001 5.79 4.47c.87 0 1.49-.84 1.23-1.67-.71-2.2-2.78-3.8-5.22-3.8z" fill="url(#p)"/><path d="m22.1981 14.4792c-.16 0-.33.01-.49.02v-.02h-12.67001v5.47h6.89001 5.79 4.47c.87 0 1.49-.84 1.23-1.67-.71-2.2-2.78-3.8-5.22-3.8z" fill="url(#q)"/><path d="m22.1981 14.4792c-.16 0-.33.01-.49.02v-.02h-12.67001v5.47h6.89001 5.79 4.47c.87 0 1.49-.84 1.23-1.67-.71-2.2-2.78-3.8-5.22-3.8z" fill="url(#r)"/><g filter="url(#b)"><path d="m11.8677 17.8901h14.0867v.375645h-14.0867z" fill="url(#s)"/></g><g filter="url(#c)"><path d="m24.1881 16.9492h-15.15001v-5h19.64001c.95 0 1.54 1.04 1.05 1.86-1.17 1.95-3.27 3.14-5.54 3.14z" fill="url(#t)"/><path d="m24.1881 16.9492h-15.15001v-5h19.64001c.95 0 1.54 1.04 1.05 1.86-1.17 1.95-3.27 3.14-5.54 3.14z" fill="url(#u)"/><path d="m24.1881 16.9492h-15.15001v-5h19.64001c.95 0 1.54 1.04 1.05 1.86-1.17 1.95-3.27 3.14-5.54 3.14z" fill="url(#v)"/><path d="m24.1881 16.9492h-15.15001v-5h19.64001c.95 0 1.54 1.04 1.05 1.86-1.17 1.95-3.27 3.14-5.54 3.14z" fill="url(#w)"/><path d="m24.1881 16.9492h-15.15001v-5h19.64001c.95 0 1.54 1.04 1.05 1.86-1.17 1.95-3.27 3.14-5.54 3.14z" fill="url(#x)"/><path d="m24.1881 16.9492h-15.15001v-5h19.64001c.95 0 1.54 1.04 1.05 1.86-1.17 1.95-3.27 3.14-5.54 3.14z" fill="url(#y)"/></g><path d="m24.1881 16.9492h-15.15001v-5h19.64001c.95 0 1.54 1.04 1.05 1.86-1.17 1.95-3.27 3.14-5.54 3.14z" fill="url(#z)"/><path d="m24.1881 16.9492h-15.15001v-5h19.64001c.95 0 1.54 1.04 1.05 1.86-1.17 1.95-3.27 3.14-5.54 3.14z" fill="url(#A)"/><path d="m10.2681 25.6446c-.41003 0-.75003-.34-.75003-.75v-6.6754c0-.41.34-.75.75003-.75.41 0 .75.34.75.75v6.6754c0 .41-.33.75-.75.75z" fill="url(#B)"/><path d="m10.2681 25.6446c-.41003 0-.75003-.34-.75003-.75v-6.6754c0-.41.34-.75.75003-.75.41 0 .75.34.75.75v6.6754c0 .41-.33.75-.75.75z" fill="url(#D)"/><path d="m10.2681 25.6446c-.41003 0-.75003-.34-.75003-.75v-6.6754c0-.41.34-.75.75003-.75.41 0 .75.34.75.75v6.6754c0 .41-.33.75-.75.75z" fill="url(#E)"/><g filter="url(#d)"><path d="m10.5 19.7461v4.9687" stroke="url(#F)" stroke-linecap="round" stroke-width=".3"/></g><path d="m23.2896 25.6367c-.41 0-.75-.34-.75-.75v-15.18748c0-.41.34-.75.75-.75s.75.34.75.75v15.18748c0 .41-.34.75-.75.75z" fill="url(#G)"/><path d="m23.2896 25.6367c-.41 0-.75-.34-.75-.75v-15.18748c0-.41.34-.75.75-.75s.75.34.75.75v15.18748c0 .41-.34.75-.75.75z" fill="url(#H)"/><path d="m23.2896 25.6367c-.41 0-.75-.34-.75-.75v-15.18748c0-.41.34-.75.75-.75s.75.34.75.75v15.18748c0 .41-.34.75-.75.75z" fill="url(#J)"/><path d="m13.4698 19.1691 9.0684-9.95648c.3202-.3545.8729-.43134 1.2274-.11114.3088.27445.3621.7744.1563 1.12892l-6.7656 11.4844c-.6633 1.1206-2.1276 1.7559-3.2597 1.0927-1.1207-.6633-1.3966-2.2881-.7013-3.2724.0801-.1258.1716-.2516.2745-.366z" fill="url(#K)"/><path d="m13.4698 19.1691 9.0684-9.95648c.3202-.3545.8729-.43134 1.2274-.11114.3088.27445.3621.7744.1563 1.12892l-6.7656 11.4844c-.6633 1.1206-2.1276 1.7559-3.2597 1.0927-1.1207-.6633-1.3966-2.2881-.7013-3.2724.0801-.1258.1716-.2516.2745-.366z" fill="url(#L)"/><path d="m13.4698 19.1691 9.0684-9.95648c.3202-.3545.8729-.43134 1.2274-.11114.3088.27445.3621.7744.1563 1.12892l-6.7656 11.4844c-.6633 1.1206-2.1276 1.7559-3.2597 1.0927-1.1207-.6633-1.3966-2.2881-.7013-3.2724.0801-.1258.1716-.2516.2745-.366z" fill="url(#M)"/><path d="m13.4698 19.1691 9.0684-9.95648c.3202-.3545.8729-.43134 1.2274-.11114.3088.27445.3621.7744.1563 1.12892l-6.7656 11.4844c-.6633 1.1206-2.1276 1.7559-3.2597 1.0927-1.1207-.6633-1.3966-2.2881-.7013-3.2724.0801-.1258.1716-.2516.2745-.366z" fill="url(#N)"/><path d="m13.4698 19.1691 9.0684-9.95648c.3202-.3545.8729-.43134 1.2274-.11114.3088.27445.3621.7744.1563 1.12892l-6.7656 11.4844c-.6633 1.1206-2.1276 1.7559-3.2597 1.0927-1.1207-.6633-1.3966-2.2881-.7013-3.2724.0801-.1258.1716-.2516.2745-.366z" fill="url(#O)"/><path d="m13.4698 19.1691 9.0684-9.95648c.3202-.3545.8729-.43134 1.2274-.11114.3088.27445.3621.7744.1563 1.12892l-6.7656 11.4844c-.6633 1.1206-2.1276 1.7559-3.2597 1.0927-1.1207-.6633-1.3966-2.2881-.7013-3.2724.0801-.1258.1716-.2516.2745-.366z" fill="url(#P)"/><path d="m13.4698 19.1691 9.0684-9.95648c.3202-.3545.8729-.43134 1.2274-.11114.3088.27445.3621.7744.1563 1.12892l-6.7656 11.4844c-.6633 1.1206-2.1276 1.7559-3.2597 1.0927-1.1207-.6633-1.3966-2.2881-.7013-3.2724.0801-.1258.1716-.2516.2745-.366z" fill="url(#Q)"/><path d="m13.4698 19.1691 9.0684-9.95648c.3202-.3545.8729-.43134 1.2274-.11114.3088.27445.3621.7744.1563 1.12892l-6.7656 11.4844c-.6633 1.1206-2.1276 1.7559-3.2597 1.0927-1.1207-.6633-1.3966-2.2881-.7013-3.2724.0801-.1258.1716-.2516.2745-.366z" fill="url(#R)"/><g filter="url(#e)"><path d="m4.75909 25.6359c-.19 0-.38-.07-.53-.22-.29-.29-.29-.77 0-1.06l2.27302-2.3515c.16-.16.25-.37.25-.6v-3.44c0-.42.34-.75.75-.75s.74999.33.74999.75v3.7662c0 .63-.24999.8938-.68999 1.3438l-2.27302 2.3515c-.15.14-.34.21-.53.21z" fill="url(#S)"/><path d="m4.75909 25.6359c-.19 0-.38-.07-.53-.22-.29-.29-.29-.77 0-1.06l2.27302-2.3515c.16-.16.25-.37.25-.6v-3.44c0-.42.34-.75.75-.75s.74999.33.74999.75v3.7662c0 .63-.24999.8938-.68999 1.3438l-2.27302 2.3515c-.15.14-.34.21-.53.21z" fill="url(#T)"/><path d="m4.75909 25.6359c-.19 0-.38-.07-.53-.22-.29-.29-.29-.77 0-1.06l2.27302-2.3515c.16-.16.25-.37.25-.6v-3.44c0-.42.34-.75.75-.75s.74999.33.74999.75v3.7662c0 .63-.24999.8938-.68999 1.3438l-2.27302 2.3515c-.15.14-.34.21-.53.21z" fill="url(#U)"/></g><g filter="url(#f)"><path d="m7.76322 19.4165v2.3151c0 .2628-.10349.5151-.28807.7022l-2.38195 2.4148" stroke="url(#V)" stroke-linecap="round" stroke-width=".3"/></g><path d="m8.65808 11.7461c-.96649 0-1.75.7835-1.75 1.75v4.9062c0 .9665.78351 1.75 1.75 1.75h.39127c2.25955 0 4.09125-1.8818 4.09125-4.2031s-1.8317-4.2031-4.09125-4.2031z" fill="url(#W)"/><path d="m8.65808 11.7461c-.96649 0-1.75.7835-1.75 1.75v4.9062c0 .9665.78351 1.75 1.75 1.75h.39127c2.25955 0 4.09125-1.8818 4.09125-4.2031s-1.8317-4.2031-4.09125-4.2031z" fill="url(#X)"/><path d="m8.65808 11.7461c-.96649 0-1.75.7835-1.75 1.75v4.9062c0 .9665.78351 1.75 1.75 1.75h.39127c2.25955 0 4.09125-1.8818 4.09125-4.2031s-1.8317-4.2031-4.09125-4.2031z" fill="url(#Y)"/><path d="m8.65808 11.7461c-.96649 0-1.75.7835-1.75 1.75v4.9062c0 .9665.78351 1.75 1.75 1.75h.39127c2.25955 0 4.09125-1.8818 4.09125-4.2031s-1.8317-4.2031-4.09125-4.2031z" fill="url(#Z)"/><path d="m8.65808 11.7461c-.96649 0-1.75.7835-1.75 1.75v4.9062c0 .9665.78351 1.75 1.75 1.75h.39127c2.25955 0 4.09125-1.8818 4.09125-4.2031s-1.8317-4.2031-4.09125-4.2031z" fill="url(#aa)"/><path d="m8.65808 11.7461c-.96649 0-1.75.7835-1.75 1.75v4.9062c0 .9665.78351 1.75 1.75 1.75h.39127c2.25955 0 4.09125-1.8818 4.09125-4.2031s-1.8317-4.2031-4.09125-4.2031z" fill="url(#ab)"/><path d="m7.24014 13.4134c0-.5626-.29873-1.1563-1.03311-1.3594-1.99219-.4141-3.98437 1.6411-3.98437 3.8872 0 2.246 1.78125 3.894 3.92187 3.894.67969 0 1.09561-.703 1.09561-1.2656z" fill="#64c468"/><path d="m7.24014 13.4134c0-.5626-.29873-1.1563-1.03311-1.3594-1.99219-.4141-3.98437 1.6411-3.98437 3.8872 0 2.246 1.78125 3.894 3.92187 3.894.67969 0 1.09561-.703 1.09561-1.2656z" fill="url(#ac)"/><path d="m7.24014 13.4134c0-.5626-.29873-1.1563-1.03311-1.3594-1.99219-.4141-3.98437 1.6411-3.98437 3.8872 0 2.246 1.78125 3.894 3.92187 3.894.67969 0 1.09561-.703 1.09561-1.2656z" fill="url(#ad)"/><path d="m7.24014 13.4134c0-.5626-.29873-1.1563-1.03311-1.3594-1.99219-.4141-3.98437 1.6411-3.98437 3.8872 0 2.246 1.78125 3.894 3.92187 3.894.67969 0 1.09561-.703 1.09561-1.2656z" fill="url(#ae)"/><path d="m7.24014 13.4134c0-.5626-.29873-1.1563-1.03311-1.3594-1.99219-.4141-3.98437 1.6411-3.98437 3.8872 0 2.246 1.78125 3.894 3.92187 3.894.67969 0 1.09561-.703 1.09561-1.2656z" fill="url(#af)"/><path d="m7.24014 13.4134c0-.5626-.29873-1.1563-1.03311-1.3594-1.99219-.4141-3.98437 1.6411-3.98437 3.8872 0 2.246 1.78125 3.894 3.92187 3.894.67969 0 1.09561-.703 1.09561-1.2656z" fill="url(#ag)"/><path d="m7.24014 13.4134c0-.5626-.29873-1.1563-1.03311-1.3594-1.99219-.4141-3.98437 1.6411-3.98437 3.8872 0 2.246 1.78125 3.894 3.92187 3.894.67969 0 1.09561-.703 1.09561-1.2656z" fill="url(#ah)"/><circle cx="4.422" cy="15.918" fill="url(#ai)" r=".625"/><circle cx="4.422" cy="15.918" fill="url(#aj)" r=".625"/><circle cx="4.422" cy="15.918" fill="url(#ak)" r=".625"/><g filter="url(#g)"><path d="m23.5 10.1055v14.6875" stroke="url(#al)" stroke-linecap="round" stroke-width=".3"/></g><g filter="url(#h)"><path d="m23.4375 9.69922-8.1875 11.96878" stroke="url(#am)" stroke-linecap="round" stroke-width=".5"/></g></svg>