<svg fill="none" height="32" viewBox="0 0 32 32" width="32" xmlns="http://www.w3.org/2000/svg" xmlns:xlink="http://www.w3.org/1999/xlink"><filter id="a" color-interpolation-filters="sRGB" filterUnits="userSpaceOnUse" height="7.348" width="4.268" x="25.977" y="12.293"><feFlood flood-opacity="0" result="BackgroundImageFix"/><feBlend in="SourceGraphic" in2="BackgroundImageFix" mode="normal" result="shape"/><feGaussianBlur result="effect1_foregroundBlur_28327_1751" stdDeviation=".375"/></filter><filter id="b" color-interpolation-filters="sRGB" filterUnits="userSpaceOnUse" height="8.438" width="8.906" x="19.13" y="8.842"><feFlood flood-opacity="0" result="BackgroundImageFix"/><feBlend in="SourceGraphic" in2="BackgroundImageFix" mode="normal" result="shape"/><feGaussianBlur result="effect1_foregroundBlur_28327_1751" stdDeviation="1"/></filter><filter id="c" color-interpolation-filters="sRGB" filterUnits="userSpaceOnUse" height="18.344" width="7.313" x="22.769" y="10.686"><feFlood flood-opacity="0" result="BackgroundImageFix"/><feBlend in="SourceGraphic" in2="BackgroundImageFix" mode="normal" result="shape"/><feGaussianBlur result="effect1_foregroundBlur_28327_1751" stdDeviation="1"/></filter><filter id="d" color-interpolation-filters="sRGB" filterUnits="userSpaceOnUse" height="9.569" width="6.907" x="9.408" y="6.058"><feFlood flood-opacity="0" result="BackgroundImageFix"/><feBlend in="SourceGraphic" in2="BackgroundImageFix" mode="normal" result="shape"/><feGaussianBlur result="effect1_foregroundBlur_28327_1751" stdDeviation=".75"/></filter><filter id="e" color-interpolation-filters="sRGB" filterUnits="userSpaceOnUse" height="6.433" width="6.013" x="7.744" y="4.338"><feFlood flood-opacity="0" result="BackgroundImageFix"/><feBlend in="SourceGraphic" in2="BackgroundImageFix" mode="normal" result="shape"/><feGaussianBlur result="effect1_foregroundBlur_28327_1751" stdDeviation=".5"/></filter><filter id="f" color-interpolation-filters="sRGB" filterUnits="userSpaceOnUse" height="4.053" width="6.913" x="7.392" y="10.419"><feFlood flood-opacity="0" result="BackgroundImageFix"/><feBlend in="SourceGraphic" in2="BackgroundImageFix" mode="normal" result="shape"/><feGaussianBlur result="effect1_foregroundBlur_28327_1751" stdDeviation=".1"/></filter><filter id="g" color-interpolation-filters="sRGB" filterUnits="userSpaceOnUse" height="5.391" width="3.125" x="10.882" y="4.664"><feFlood flood-opacity="0" result="BackgroundImageFix"/><feBlend in="SourceGraphic" in2="BackgroundImageFix" mode="normal" result="shape"/><feGaussianBlur result="effect1_foregroundBlur_28327_1751" stdDeviation=".5"/></filter><filter id="h" color-interpolation-filters="sRGB" filterUnits="userSpaceOnUse" height="1.978" width="1.855" x="21.227" y="3.86"><feFlood flood-opacity="0" result="BackgroundImageFix"/><feBlend in="SourceGraphic" in2="BackgroundImageFix" mode="normal" result="shape"/><feGaussianBlur result="effect1_foregroundBlur_28327_1751" stdDeviation=".25"/></filter><filter id="i" color-interpolation-filters="sRGB" filterUnits="userSpaceOnUse" height=".8" width="4.503" x="17.449" y="4.218"><feFlood flood-opacity="0" result="BackgroundImageFix"/><feBlend in="SourceGraphic" in2="BackgroundImageFix" mode="normal" result="shape"/><feGaussianBlur result="effect1_foregroundBlur_28327_1751" stdDeviation=".125"/></filter><radialGradient id="j" cx="0" cy="0" gradientTransform="matrix(-5.22744657 -6.812541 6.82285459 -5.23536046 30.5675 19.9691)" gradientUnits="userSpaceOnUse" r="1"><stop offset="0" stop-color="#fec494"/><stop offset="1" stop-color="#e99a5c"/></radialGradient><radialGradient id="k" cx="0" cy="0" gradientTransform="matrix(1.82125095 -2.62499956 3.94567851 2.73755121 25.34 17.2816)" gradientUnits="userSpaceOnUse" r="1"><stop offset="0" stop-color="#c46116"/><stop offset="1" stop-color="#c36116" stop-opacity="0"/></radialGradient><radialGradient id="l" cx="0" cy="0" gradientTransform="matrix(.01108855 -1.40961639 1.97366894 .01552559 29.7198 21.7414)" gradientUnits="userSpaceOnUse" r="1"><stop offset="0" stop-color="#d878d4"/><stop offset="1" stop-color="#d878d4" stop-opacity="0"/></radialGradient><linearGradient id="m" gradientUnits="userSpaceOnUse" x1="29.054" x2="30.592" y1="14.848" y2="19.675"><stop offset="0" stop-color="#ffdeab"/><stop offset="1" stop-color="#ffdeab" stop-opacity="0"/></linearGradient><linearGradient id="n"><stop offset="0" stop-color="#eb8d98"/><stop offset=".271" stop-color="#e99974"/><stop offset=".994" stop-color="#cf6247"/></linearGradient><linearGradient id="o" gradientUnits="userSpaceOnUse" x1="20.598" x2="20.598" xlink:href="#n" y1="27.839" y2="19.536"/><linearGradient id="p" gradientUnits="userSpaceOnUse" x1="15.63" x2="15.63" y1="9.351" y2="23.645"><stop offset="0" stop-color="#f5bf86"/><stop offset=".309" stop-color="#f7bc86"/><stop offset="1" stop-color="#ff8b68"/></linearGradient><linearGradient id="q"><stop offset="0" stop-color="#ff8b68"/><stop offset="1" stop-color="#ff8b68" stop-opacity="0"/></linearGradient><radialGradient id="r" cx="0" cy="0" gradientTransform="matrix(5.49796352 -5.37733447 8.3170883 8.50366446 22.2476 25.0203)" gradientUnits="userSpaceOnUse" r="1" xlink:href="#q"/><radialGradient id="s" cx="0" cy="0" gradientTransform="matrix(11.30834552 -7.19064965 10.52667238 16.55472791 2.6923 22.8319)" gradientUnits="userSpaceOnUse" r="1" xlink:href="#q"/><linearGradient id="t"><stop offset="0" stop-color="#c734c1"/><stop offset="1" stop-color="#c734c1" stop-opacity="0"/></linearGradient><radialGradient id="u" cx="0" cy="0" gradientTransform="matrix(2.40536434 -2.68866659 3.80737738 3.40619763 22.435 25.2079)" gradientUnits="userSpaceOnUse" r="1" xlink:href="#t"/><radialGradient id="v" cx="0" cy="0" gradientTransform="matrix(.3750002 -4.062499 13.14421965 1.21331352 8.005 30.5316)" gradientUnits="userSpaceOnUse" r="1" xlink:href="#t"/><radialGradient id="w" cx="0" cy="0" gradientTransform="matrix(.06249843 -3.43750189 11.12206189 .20221413 26.8175 30.0941)" gradientUnits="userSpaceOnUse" r="1" xlink:href="#t"/><linearGradient id="x"><stop offset="0" stop-color="#ca9068"/><stop offset="1" stop-color="#ca9068" stop-opacity="0"/></linearGradient><linearGradient id="y" gradientUnits="userSpaceOnUse" x1=".443" x2="6.446" xlink:href="#x" y1="5.762" y2="11.471"/><radialGradient id="z" cx="0" cy="0" gradientTransform="matrix(-5.81034195 .96919057 -.25478638 -1.52745605 19.6235 9.4198)" gradientUnits="userSpaceOnUse" r="1" xlink:href="#x"/><radialGradient id="A" cx="0" cy="0" gradientTransform="matrix(3.31127099 2.31350763 -2.81003941 4.02194567 3.7544 19.643)" gradientUnits="userSpaceOnUse" r="1"><stop offset="0" stop-color="#ffc531"/><stop offset="1" stop-color="#ffc531" stop-opacity="0"/></radialGradient><radialGradient id="B" cx="0" cy="0" gradientTransform="matrix(-6.54683218 6.65629274 -3.19480435 -3.14226684 25.2394 12.2173)" gradientUnits="userSpaceOnUse" r="1"><stop offset="0" stop-color="#ffe39b"/><stop offset="1" stop-color="#ffdaad" stop-opacity="0"/></radialGradient><linearGradient id="C"><stop offset="0" stop-color="#ffe39b"/><stop offset="1" stop-color="#ffdaac" stop-opacity="0"/></linearGradient><linearGradient id="D" gradientUnits="userSpaceOnUse" x1="27.912" x2="24.694" xlink:href="#C" y1="20.311" y2="28.332"/><linearGradient id="E" gradientUnits="userSpaceOnUse" x1="11.596" x2="13.409" y1="8.002" y2="12.495"><stop offset="0" stop-color="#ffdaad"/><stop offset="1" stop-color="#ffdaac" stop-opacity="0"/></linearGradient><linearGradient id="F" gradientUnits="userSpaceOnUse" x1="14.9" x2="14.9" xlink:href="#n" y1="27.849" y2="19.537"/><linearGradient id="G"><stop offset=".225" stop-color="#6b5e60"/><stop offset="1" stop-color="#433338"/></linearGradient><linearGradient id="H" gradientUnits="userSpaceOnUse" x1="3.849" x2="2.599" xlink:href="#G" y1="9.599" y2="9.599"/><linearGradient id="I"><stop offset="0" stop-color="#552d52"/><stop offset="1" stop-color="#552d52" stop-opacity="0"/></linearGradient><linearGradient id="J" gradientUnits="userSpaceOnUse" x1="4.443" x2="4.443" xlink:href="#I" y1="10.612" y2="9.346"/><linearGradient id="K" gradientUnits="userSpaceOnUse" x1="16.625" x2="16.625" y1="18.359" y2="19.859"><stop offset="0" stop-color="#ffc4c7"/><stop offset="1" stop-color="#f595be"/></linearGradient><linearGradient id="L" gradientUnits="userSpaceOnUse" x1="9.818" x2="11.818" y1="5.49" y2="8.584"><stop offset="0" stop-color="#e89a49"/><stop offset=".313" stop-color="#eaa054"/><stop offset="1" stop-color="#f5bf86"/></linearGradient><radialGradient id="M" cx="0" cy="0" gradientTransform="matrix(.04687472 4.14062468 -4.67157066 .0528854 11.6613 6.74032)" gradientUnits="userSpaceOnUse" r="1"><stop offset=".515" stop-color="#ca9068" stop-opacity="0"/><stop offset="1" stop-color="#ca9068"/></radialGradient><linearGradient id="N" gradientUnits="userSpaceOnUse" x1="9.646" x2="10.958" xlink:href="#x" y1="9.11" y2="8.719"/><radialGradient id="O" cx="0" cy="0" gradientTransform="matrix(-2.23437083 -.59376853 .51183745 -1.92606145 15.0519 15.0784)" gradientUnits="userSpaceOnUse" r="1"><stop offset="0" stop-color="#aa6354"/><stop offset="1" stop-color="#8d4d40"/></radialGradient><linearGradient id="P" gradientUnits="userSpaceOnUse" x1="14.63" x2="14.63" y1="10.157" y2="12.313"><stop offset="0" stop-color="#773c26"/><stop offset="1" stop-color="#773c26" stop-opacity="0"/></linearGradient><linearGradient id="Q" gradientUnits="userSpaceOnUse" x1="7.599" x2="11.2" y1="14.157" y2="14.594"><stop offset="0" stop-color="#773c26"/><stop offset=".613" stop-color="#773c26" stop-opacity="0"/></linearGradient><linearGradient id="R" gradientUnits="userSpaceOnUse" x1="13.568" x2="13.568" y1="19.873" y2="16.688"><stop offset="0" stop-color="#903f51"/><stop offset=".613" stop-color="#903f51" stop-opacity="0"/></linearGradient><linearGradient id="S" gradientUnits="userSpaceOnUse" x1="14.63" x2="7.443" y1="10.349" y2="14.569"><stop offset="0" stop-color="#58b1fc"/><stop offset="1" stop-color="#3e62dc"/></linearGradient><linearGradient id="T" gradientUnits="userSpaceOnUse" x1="9.661" x2="10.765" y1="16.407" y2="13.844"><stop offset="0" stop-color="#4361d6"/><stop offset="1" stop-color="#4361d6" stop-opacity="0"/></linearGradient><linearGradient id="U" gradientUnits="userSpaceOnUse" x1="8.599" x2="14.864" y1="13.25" y2="9.75"><stop offset="0" stop-color="#80c8ff" stop-opacity="0"/><stop offset=".59" stop-color="#7dc7ff"/><stop offset="1" stop-color="#80c8ff" stop-opacity="0"/></linearGradient><linearGradient id="V" gradientUnits="userSpaceOnUse" x1="12.318" x2="22.255" y1="8.969" y2="4.432"><stop offset="0" stop-color="#75707c"/><stop offset="1" stop-color="#a19997"/></linearGradient><linearGradient id="W" gradientUnits="userSpaceOnUse" x1="13.38" x2="14.568" y1="8.407" y2="9.094"><stop offset="0" stop-color="#847971"/><stop offset="1" stop-color="#847971" stop-opacity="0"/></linearGradient><radialGradient id="X" cx="0" cy="0" gradientTransform="matrix(-2.37498397 2.69370097 -2.36895038 -2.08865767 23.3487 3.86914)" gradientUnits="userSpaceOnUse" r="1"><stop offset="0" stop-color="#c7c5c7"/><stop offset="1" stop-color="#c7c5c7" stop-opacity="0"/></radialGradient><linearGradient id="Y" gradientUnits="userSpaceOnUse" x1="7.978" x2="7.353" xlink:href="#G" y1="8.849" y2="8.849"/><linearGradient id="Z" gradientUnits="userSpaceOnUse" x1="8.275" x2="8.275" xlink:href="#I" y1="10.199" y2="8.512"/><linearGradient id="aa" gradientUnits="userSpaceOnUse" x1="12.936" x2="12.465" xlink:href="#C" y1="7.545" y2="9.305"/><linearGradient id="ab" gradientUnits="userSpaceOnUse" x1="4.628" x2="4.628" y1="13.586" y2="11.747"><stop offset="0" stop-color="#bd44b1"/><stop offset="1" stop-color="#eb8d98" stop-opacity="0"/></linearGradient><linearGradient id="ac" gradientUnits="userSpaceOnUse" x1="23.521" x2="13.913" y1="5.834" y2="5.692"><stop offset="0" stop-color="#96668b"/><stop offset="1" stop-color="#96668b" stop-opacity="0"/></linearGradient><path d="m26.17 11.3892 3.26 3.67c.45.51.7 1.17.7 1.85v3.62c0 .24-.27.38-.46.24-.97-.67-1.54-1.77-1.54-2.95v-.63c0-.2-.08-.39-.22-.53l-2.57-2.49z" fill="url(#j)"/><path d="m26.17 11.3892 3.26 3.67c.45.51.7 1.17.7 1.85v3.62c0 .24-.27.38-.46.24-.97-.67-1.54-1.77-1.54-2.95v-.63c0-.2-.08-.39-.22-.53l-2.57-2.49z" fill="url(#k)"/><path d="m26.17 11.3892 3.26 3.67c.45.51.7 1.17.7 1.85v3.62c0 .24-.27.38-.46.24-.97-.67-1.54-1.77-1.54-2.95v-.63c0-.2-.08-.39-.22-.53l-2.57-2.49z" fill="url(#l)"/><g filter="url(#a)"><path d="m26.8019 13.1096 2.5937 2.9063v2.875" stroke="url(#m)" stroke-width=".2"/></g><path d="m23.08 18.8491h-3l-1.95 8.69c-.04.16.08.3.24.3h2.44c.15 0 .27-.1.3-.24z" fill="url(#o)"/><path d="m28.44 20.3891-1.17-.78c-.08-.05-.14-.15-.14-.25v-5.28c0-2.46-2.09-4.39998-4.54-4.20998l-6.82.83998c-1.47.19-1.87-1.23998-2.11-1.83998l-1.25-3.12c-.22-.54-.74-.9-1.32-.9h-1.94c-1.77 0-3.31 1.2-3.74 2.92l-.1.38c-.1.41-.48.71-.91.71h-1.51c-.42 0-.76.33-.76.75v.25c0 1.65998 1.34 2.99998 3 2.99998h1.69c.17-.01.31.13.31.31v1.88c0 1.79.71 3.51 1.98 4.77l-1.73 7.74c-.04.16.08.3.24.3h2.44c.15 0 .27-.1.3-.24l1.74-7.77h.3v.01h6.56c.77 0 1.51-.17 2.16-.48.03 1.51.95 2.86 2.36 3.42l2.45.98c.12.05.2.16.2.29v3.48c0 .17.14.31.31.31h2.38c.17 0 .31-.14.31-.31v-5.85c0-.53-.26-1.02-.69-1.31z" fill="url(#p)"/><path d="m28.44 20.3891-1.17-.78c-.08-.05-.14-.15-.14-.25v-5.28c0-2.46-2.09-4.39998-4.54-4.20998l-6.82.83998c-1.47.19-1.87-1.23998-2.11-1.83998l-1.25-3.12c-.22-.54-.74-.9-1.32-.9h-1.94c-1.77 0-3.31 1.2-3.74 2.92l-.1.38c-.1.41-.48.71-.91.71h-1.51c-.42 0-.76.33-.76.75v.25c0 1.65998 1.34 2.99998 3 2.99998h1.69c.17-.01.31.13.31.31v1.88c0 1.79.71 3.51 1.98 4.77l-1.73 7.74c-.04.16.08.3.24.3h2.44c.15 0 .27-.1.3-.24l1.74-7.77h.3v.01h6.56c.77 0 1.51-.17 2.16-.48.03 1.51.95 2.86 2.36 3.42l2.45.98c.12.05.2.16.2.29v3.48c0 .17.14.31.31.31h2.38c.17 0 .31-.14.31-.31v-5.85c0-.53-.26-1.02-.69-1.31z" fill="url(#r)"/><path d="m28.44 20.3891-1.17-.78c-.08-.05-.14-.15-.14-.25v-5.28c0-2.46-2.09-4.39998-4.54-4.20998l-6.82.83998c-1.47.19-1.87-1.23998-2.11-1.83998l-1.25-3.12c-.22-.54-.74-.9-1.32-.9h-1.94c-1.77 0-3.31 1.2-3.74 2.92l-.1.38c-.1.41-.48.71-.91.71h-1.51c-.42 0-.76.33-.76.75v.25c0 1.65998 1.34 2.99998 3 2.99998h1.69c.17-.01.31.13.31.31v1.88c0 1.79.71 3.51 1.98 4.77l-1.73 7.74c-.04.16.08.3.24.3h2.44c.15 0 .27-.1.3-.24l1.74-7.77h.3v.01h6.56c.77 0 1.51-.17 2.16-.48.03 1.51.95 2.86 2.36 3.42l2.45.98c.12.05.2.16.2.29v3.48c0 .17.14.31.31.31h2.38c.17 0 .31-.14.31-.31v-5.85c0-.53-.26-1.02-.69-1.31z" fill="url(#s)"/><path d="m28.44 20.3891-1.17-.78c-.08-.05-.14-.15-.14-.25v-5.28c0-2.46-2.09-4.39998-4.54-4.20998l-6.82.83998c-1.47.19-1.87-1.23998-2.11-1.83998l-1.25-3.12c-.22-.54-.74-.9-1.32-.9h-1.94c-1.77 0-3.31 1.2-3.74 2.92l-.1.38c-.1.41-.48.71-.91.71h-1.51c-.42 0-.76.33-.76.75v.25c0 1.65998 1.34 2.99998 3 2.99998h1.69c.17-.01.31.13.31.31v1.88c0 1.79.71 3.51 1.98 4.77l-1.73 7.74c-.04.16.08.3.24.3h2.44c.15 0 .27-.1.3-.24l1.74-7.77h.3v.01h6.56c.77 0 1.51-.17 2.16-.48.03 1.51.95 2.86 2.36 3.42l2.45.98c.12.05.2.16.2.29v3.48c0 .17.14.31.31.31h2.38c.17 0 .31-.14.31-.31v-5.85c0-.53-.26-1.02-.69-1.31z" fill="url(#u)"/><path d="m28.44 20.3891-1.17-.78c-.08-.05-.14-.15-.14-.25v-5.28c0-2.46-2.09-4.39998-4.54-4.20998l-6.82.83998c-1.47.19-1.87-1.23998-2.11-1.83998l-1.25-3.12c-.22-.54-.74-.9-1.32-.9h-1.94c-1.77 0-3.31 1.2-3.74 2.92l-.1.38c-.1.41-.48.71-.91.71h-1.51c-.42 0-.76.33-.76.75v.25c0 1.65998 1.34 2.99998 3 2.99998h1.69c.17-.01.31.13.31.31v1.88c0 1.79.71 3.51 1.98 4.77l-1.73 7.74c-.04.16.08.3.24.3h2.44c.15 0 .27-.1.3-.24l1.74-7.77h.3v.01h6.56c.77 0 1.51-.17 2.16-.48.03 1.51.95 2.86 2.36 3.42l2.45.98c.12.05.2.16.2.29v3.48c0 .17.14.31.31.31h2.38c.17 0 .31-.14.31-.31v-5.85c0-.53-.26-1.02-.69-1.31z" fill="url(#v)"/><path d="m28.44 20.3891-1.17-.78c-.08-.05-.14-.15-.14-.25v-5.28c0-2.46-2.09-4.39998-4.54-4.20998l-6.82.83998c-1.47.19-1.87-1.23998-2.11-1.83998l-1.25-3.12c-.22-.54-.74-.9-1.32-.9h-1.94c-1.77 0-3.31 1.2-3.74 2.92l-.1.38c-.1.41-.48.71-.91.71h-1.51c-.42 0-.76.33-.76.75v.25c0 1.65998 1.34 2.99998 3 2.99998h1.69c.17-.01.31.13.31.31v1.88c0 1.79.71 3.51 1.98 4.77l-1.73 7.74c-.04.16.08.3.24.3h2.44c.15 0 .27-.1.3-.24l1.74-7.77h.3v.01h6.56c.77 0 1.51-.17 2.16-.48.03 1.51.95 2.86 2.36 3.42l2.45.98c.12.05.2.16.2.29v3.48c0 .17.14.31.31.31h2.38c.17 0 .31-.14.31-.31v-5.85c0-.53-.26-1.02-.69-1.31z" fill="url(#w)"/><path d="m28.44 20.3891-1.17-.78c-.08-.05-.14-.15-.14-.25v-5.28c0-2.46-2.09-4.39998-4.54-4.20998l-6.82.83998c-1.47.19-1.87-1.23998-2.11-1.83998l-1.25-3.12c-.22-.54-.74-.9-1.32-.9h-1.94c-1.77 0-3.31 1.2-3.74 2.92l-.1.38c-.1.41-.48.71-.91.71h-1.51c-.42 0-.76.33-.76.75v.25c0 1.65998 1.34 2.99998 3 2.99998h1.69c.17-.01.31.13.31.31v1.88c0 1.79.71 3.51 1.98 4.77l-1.73 7.74c-.04.16.08.3.24.3h2.44c.15 0 .27-.1.3-.24l1.74-7.77h.3v.01h6.56c.77 0 1.51-.17 2.16-.48.03 1.51.95 2.86 2.36 3.42l2.45.98c.12.05.2.16.2.29v3.48c0 .17.14.31.31.31h2.38c.17 0 .31-.14.31-.31v-5.85c0-.53-.26-1.02-.69-1.31z" fill="url(#y)"/><path d="m28.44 20.3891-1.17-.78c-.08-.05-.14-.15-.14-.25v-5.28c0-2.46-2.09-4.39998-4.54-4.20998l-6.82.83998c-1.47.19-1.87-1.23998-2.11-1.83998l-1.25-3.12c-.22-.54-.74-.9-1.32-.9h-1.94c-1.77 0-3.31 1.2-3.74 2.92l-.1.38c-.1.41-.48.71-.91.71h-1.51c-.42 0-.76.33-.76.75v.25c0 1.65998 1.34 2.99998 3 2.99998h1.69c.17-.01.31.13.31.31v1.88c0 1.79.71 3.51 1.98 4.77l-1.73 7.74c-.04.16.08.3.24.3h2.44c.15 0 .27-.1.3-.24l1.74-7.77h.3v.01h6.56c.77 0 1.51-.17 2.16-.48.03 1.51.95 2.86 2.36 3.42l2.45.98c.12.05.2.16.2.29v3.48c0 .17.14.31.31.31h2.38c.17 0 .31-.14.31-.31v-5.85c0-.53-.26-1.02-.69-1.31z" fill="url(#z)"/><path d="m28.44 20.3891-1.17-.78c-.08-.05-.14-.15-.14-.25v-5.28c0-2.46-2.09-4.39998-4.54-4.20998l-6.82.83998c-1.47.19-1.87-1.23998-2.11-1.83998l-1.25-3.12c-.22-.54-.74-.9-1.32-.9h-1.94c-1.77 0-3.31 1.2-3.74 2.92l-.1.38c-.1.41-.48.71-.91.71h-1.51c-.42 0-.76.33-.76.75v.25c0 1.65998 1.34 2.99998 3 2.99998h1.69c.17-.01.31.13.31.31v1.88c0 1.79.71 3.51 1.98 4.77l-1.73 7.74c-.04.16.08.3.24.3h2.44c.15 0 .27-.1.3-.24l1.74-7.77h.3v.01h6.56c.77 0 1.51-.17 2.16-.48.03 1.51.95 2.86 2.36 3.42l2.45.98c.12.05.2.16.2.29v3.48c0 .17.14.31.31.31h2.38c.17 0 .31-.14.31-.31v-5.85c0-.53-.26-1.02-.69-1.31z" fill="url(#A)"/><g filter="url(#b)"><path d="m26.0363 14.2486c-.2-2.65-2.1511-3.3751-3.2344-3.4063l-1.6719 4.4375z" fill="url(#B)" fill-opacity=".8"/></g><g filter="url(#c)"><path d="m25.2694 13.186v7.2016c0 .0881.0465.1698.1222.2149l2.0681 1.2296c.0758.0451.1222.1267.1222.2149v4.4828" stroke="url(#D)" stroke-linecap="round"/></g><g filter="url(#d)"><path d="m11.9086 8.55786 1.9063 4.56864" stroke="url(#E)" stroke-linecap="round" stroke-width="2"/></g><g filter="url(#e)"><path d="m8.75938 5.95946c-.07912-.31565.15958-.62157.48499-.62157h2.51553c.6472 0 1.126.61176.9664 1.24124l-.532 2.11899c-.1507.62948-.7181 1.07279-1.3742 1.07279-.6472 0-1.21466-.44331-1.37425-1.07279z" fill="#d68e5d" fill-opacity=".5"/></g><path d="m12.67 18.8491h3l1.46 8.71c.03.15-.09.29-.25.29h-2.44c-.15 0-.28-.11-.31-.26z" fill="url(#F)"/><path d="m3.38 10.3491h-.5c-.41 0-.75-.33-.75-.74998 0-.41.34-.75.75-.75h.5c.41 0 .75.34.75.75 0 .41998-.34.74998-.75.74998z" fill="url(#H)"/><path d="m3.38 10.3491h-.5c-.41 0-.75-.33-.75-.74998 0-.41.34-.75.75-.75h.5c.41 0 .75.34.75.75 0 .41998-.34.74998-.75.74998z" fill="url(#J)"/><path d="m12.46 18.4591-.34 1.4h6.85c.77 0 1.51-.17 2.16-.48 0-.84-.68-1.53-1.53-1.53h-6.37c-.36 0-.68.25-.77.61z" fill="url(#K)"/><path d="m9.28581 5.4807c-.07912-.31565.15958-.62157.48499-.62157h2.9192c.73 0 1.27.69 1.09 1.4l-.6 2.39c-.18.71-.82 1.21-1.55 1.21s-1.38-.5-1.55-1.21z" fill="url(#L)"/><path d="m9.28581 5.4807c-.07912-.31565.15958-.62157.48499-.62157h2.9192c.73 0 1.27.69 1.09 1.4l-.6 2.39c-.18.71-.82 1.21-1.55 1.21s-1.38-.5-1.55-1.21z" fill="url(#M)"/><path d="m9.28581 5.4807c-.07912-.31565.15958-.62157.48499-.62157h2.9192c.73 0 1.27.69 1.09 1.4l-.6 2.39c-.18.71-.82 1.21-1.55 1.21s-1.38-.5-1.55-1.21z" fill="url(#N)"/><path d="m14.13 10.3491c0-.28.22-.49998.5-.49998s.5.22998.5.49998v2.8441c.5094.1998.87.6957.87 1.2759s-.3606 1.0762-.87 1.2759v4.128h-1v-4.128c-.3204-.1256-.582-.3685-.7319-.6759h-6.49808c-.28 0-.5-.22-.5-.5s.22-.5.5-.5h6.41928c.1223-.401.4235-.724.8107-.8759z" fill="url(#O)"/><path d="m14.13 10.3491c0-.28.22-.49998.5-.49998s.5.22998.5.49998v2.8441c.5094.1998.87.6957.87 1.2759s-.3606 1.0762-.87 1.2759v4.128h-1v-4.128c-.3204-.1256-.582-.3685-.7319-.6759h-6.49808c-.28 0-.5-.22-.5-.5s.22-.5.5-.5h6.41928c.1223-.401.4235-.724.8107-.8759z" fill="url(#P)"/><path d="m14.13 10.3491c0-.28.22-.49998.5-.49998s.5.22998.5.49998v2.8441c.5094.1998.87.6957.87 1.2759s-.3606 1.0762-.87 1.2759v4.128h-1v-4.128c-.3204-.1256-.582-.3685-.7319-.6759h-6.49808c-.28 0-.5-.22-.5-.5s.22-.5.5-.5h6.41928c.1223-.401.4235-.724.8107-.8759z" fill="url(#Q)"/><path d="m14.13 10.3491c0-.28.22-.49998.5-.49998s.5.22998.5.49998v2.8441c.5094.1998.87.6957.87 1.2759s-.3606 1.0762-.87 1.2759v4.128h-1v-4.128c-.3204-.1256-.582-.3685-.7319-.6759h-6.49808c-.28 0-.5-.22-.5-.5s.22-.5.5-.5h6.41928c.1223-.401.4235-.724.8107-.8759z" fill="url(#R)"/><path d="m6.90002 14.5691 7.72998-4.22" stroke="url(#S)" stroke-linecap="round" stroke-miterlimit="10"/><path d="m6.90002 14.5691 7.72998-4.22" stroke="url(#T)" stroke-linecap="round" stroke-miterlimit="10"/><g filter="url(#f)"><path d="m7.6925 14.1721 6.3125-3.4531" stroke="url(#U)" stroke-linecap="round" stroke-miterlimit="10" stroke-opacity=".8" stroke-width=".2"/></g><path d="m13.66 8.86914c.1.25.23.66.46 1.02l3.87-4.93c.05-.06.12-.1.2-.1h3.34l-7.29 9.28996c-.17.22-.13.53.08.7.09.07.2.11.31.11.15 0 .3-.07.39-.19l7.61-9.68996c.18-.23.21-.53.08-.79-.12-.26-.38-.42-.67-.42h-3.85c-.39 0-.74.17-.98.48z" fill="url(#V)"/><path d="m13.66 8.86914c.1.25.23.66.46 1.02l3.87-4.93c.05-.06.12-.1.2-.1h3.34l-7.29 9.28996c-.17.22-.13.53.08.7.09.07.2.11.31.11.15 0 .3-.07.39-.19l7.61-9.68996c.18-.23.21-.53.08-.79-.12-.26-.38-.42-.67-.42h-3.85c-.39 0-.74.17-.98.48z" fill="url(#W)"/><path d="m13.66 8.86914c.1.25.23.66.46 1.02l3.87-4.93c.05-.06.12-.1.2-.1h3.34l-7.29 9.28996c-.17.22-.13.53.08.7.09.07.2.11.31.11.15 0 .3-.07.39-.19l7.61-9.68996c.18-.23.21-.53.08-.79-.12-.26-.38-.42-.67-.42h-3.85c-.39 0-.74.17-.98.48z" fill="url(#X)"/><rect fill="url(#Y)" height="2" rx=".5" width="1" x="7.119" y="7.849"/><rect fill="url(#Z)" height="2" rx=".5" width="1" x="7.119" y="7.849"/><g filter="url(#g)"><path d="m12.7572 5.91382-.625 2.89062" stroke="url(#aa)" stroke-linecap="round" stroke-width=".5"/></g><g filter="url(#h)"><path d="m22.3517 4.36011h.292857v1.01274h-.292857z" fill="#c7c5c7" fill-opacity=".75" transform="matrix(.78709653 .61682983 -.61682983 .78709653 7.4482 -12.858913)"/></g><path d="m7.1261 5.43945v7.68705c-.02374-.1471-.1527-.2611-.30609-.2611h-1.69001c-1.65999 0-3-1.34-3-3.00001v-.24c0-.42.34001-.76.76-.76h1.51001c.43 0 .80999-.29.91-.71l.09-.36c.25172-1.0069.88727-1.83903 1.72609-2.35594z" fill="url(#ab)"/><g filter="url(#i)"><path d="m17.8488 4.61743h3.7031" stroke="url(#ac)" stroke-linecap="round" stroke-width=".3"/></g></svg>