<svg fill="none" height="32" viewBox="0 0 32 32" width="32" xmlns="http://www.w3.org/2000/svg" xmlns:xlink="http://www.w3.org/1999/xlink"><filter id="a" color-interpolation-filters="sRGB" filterUnits="userSpaceOnUse" height="21.361" width="28.334" x="2.083" y="9.063"><feFlood flood-opacity="0" result="BackgroundImageFix"/><feBlend in="SourceGraphic" in2="BackgroundImageFix" mode="normal" result="shape"/><feColorMatrix in="SourceAlpha" result="hardAlpha" type="matrix" values="0 0 0 0 0 0 0 0 0 0 0 0 0 0 0 0 0 0 127 0"/><feOffset dy="-1"/><feGaussianBlur stdDeviation="1.5"/><feComposite in2="hardAlpha" k2="-1" k3="1" operator="arithmetic"/><feColorMatrix type="matrix" values="0 0 0 0 0.870588 0 0 0 0 0.647059 0 0 0 0 0.65098 0 0 0 1 0"/><feBlend in2="shape" mode="normal" result="effect1_innerShadow_20020_4563"/><feColorMatrix in="SourceAlpha" result="hardAlpha" type="matrix" values="0 0 0 0 0 0 0 0 0 0 0 0 0 0 0 0 0 0 127 0"/><feOffset dx=".5" dy=".5"/><feGaussianBlur stdDeviation="1"/><feComposite in2="hardAlpha" k2="-1" k3="1" operator="arithmetic"/><feColorMatrix type="matrix" values="0 0 0 0 0.858824 0 0 0 0 0.666667 0 0 0 0 0.560784 0 0 0 1 0"/><feBlend in2="effect1_innerShadow_20020_4563" mode="normal" result="effect2_innerShadow_20020_4563"/></filter><filter id="b" color-interpolation-filters="sRGB" filterUnits="userSpaceOnUse" height="20.439" width="11.639" x="19.753" y="9.339"><feFlood flood-opacity="0" result="BackgroundImageFix"/><feBlend in="SourceGraphic" in2="BackgroundImageFix" mode="normal" result="shape"/><feGaussianBlur result="effect1_foregroundBlur_20020_4563" stdDeviation="1.25"/></filter><filter id="c" color-interpolation-filters="sRGB" filterUnits="userSpaceOnUse" height="8.171" width="8.171" x="19.34" y="15"><feFlood flood-opacity="0" result="BackgroundImageFix"/><feBlend in="SourceGraphic" in2="BackgroundImageFix" mode="normal" result="shape"/><feGaussianBlur result="effect1_foregroundBlur_20020_4563" stdDeviation=".5"/></filter><filter id="d" color-interpolation-filters="sRGB" filterUnits="userSpaceOnUse" height="8.854" width="10.428" x="17.75" y="15.566"><feFlood flood-opacity="0" result="BackgroundImageFix"/><feBlend in="SourceGraphic" in2="BackgroundImageFix" mode="normal" result="shape"/><feGaussianBlur result="effect1_foregroundBlur_20020_4563" stdDeviation=".625"/></filter><filter id="e" color-interpolation-filters="sRGB" filterUnits="userSpaceOnUse" height="6" width="20.369" x="1.557" y="23.931"><feFlood flood-opacity="0" result="BackgroundImageFix"/><feBlend in="SourceGraphic" in2="BackgroundImageFix" mode="normal" result="shape"/><feGaussianBlur result="effect1_foregroundBlur_20020_4563" stdDeviation="1"/></filter><radialGradient id="f" cx="0" cy="0" gradientTransform="matrix(5.00284115 5.34385273 -6.12237054 5.73167878 17.1844 14.6493)" gradientUnits="userSpaceOnUse" r="1"><stop offset="0" stop-color="#d6a88e"/><stop offset="1" stop-color="#ebb6a3" stop-opacity="0"/></radialGradient><linearGradient id="g" gradientUnits="userSpaceOnUse" x1="31.44" x2="22.855" y1="22.238" y2="23.257"><stop offset="0" stop-color="#ffdabe"/><stop offset="1" stop-color="#ffdabe" stop-opacity="0"/></linearGradient><linearGradient id="h" gradientUnits="userSpaceOnUse" x1="16" x2="16" y1="31.274" y2="26.887"><stop offset=".125" stop-color="#c18497"/><stop offset="1" stop-color="#c18497" stop-opacity="0"/></linearGradient><linearGradient id="i" gradientUnits="userSpaceOnUse" x1="16" x2="16" y1="30.023" y2="29.578"><stop offset="0" stop-color="#b67f9f"/><stop offset="1" stop-color="#b67f9f" stop-opacity="0"/></linearGradient><radialGradient id="j" cx="0" cy="0" gradientTransform="matrix(-10.40697398 -16.82338768 32.43966811 -20.06722951 27.6095 28.1113)" gradientUnits="userSpaceOnUse" r="1"><stop offset=".91" stop-color="#d5a78d" stop-opacity="0"/><stop offset="1" stop-color="#c6a186"/><stop offset="1" stop-color="#d5a78d"/></radialGradient><radialGradient id="k" cx="0" cy="0" gradientTransform="matrix(-3.65402 0 0 -5.03515 25.6119 19.0855)" gradientUnits="userSpaceOnUse" r="1"><stop offset="0" stop-color="#ffe8cb"/><stop offset="1" stop-color="#ffe8cb" stop-opacity="0"/></radialGradient><linearGradient id="l" gradientUnits="userSpaceOnUse" x1="27.694" x2="20.522" y1="20.819" y2="20.627"><stop offset=".289" stop-color="#ffd2bb"/><stop offset=".592" stop-color="#ecb1a8"/><stop offset="1" stop-color="#e3ad9c"/></linearGradient><linearGradient id="m" gradientUnits="userSpaceOnUse" x1="4.811" x2="15.07" y1="27.368" y2="27.368"><stop offset="0" stop-color="#fac6b2"/><stop offset="1" stop-color="#fac6b2" stop-opacity="0"/></linearGradient><g filter="url(#a)"><path d="m29.7834 24.7238c-.6181-2.7311-1.462-2.7258-1.6694-6.3644s-.6719-8.2969-6.0156-8.2969c-2.4375 0-5.6419 1.413-5.8281 6.5937 0 3.7022-4.75 5.7969-7.14559 6.8138-.79297.3366-2.15617.9675-2.9482.9675-.46875 0-.78812-.3069-1.32812-.2969-1.9375 0-2.76563 1.7969-2.76563 3.0782 0 1.2812.87105 2.705 2.87195 2.705h20.87869c3.0109 0 4.5681-2.469 3.95-5.2z" fill="#f4c0ab"/><path d="m29.7834 24.7238c-.6181-2.7311-1.462-2.7258-1.6694-6.3644s-.6719-8.2969-6.0156-8.2969c-2.4375 0-5.6419 1.413-5.8281 6.5937 0 3.7022-4.75 5.7969-7.14559 6.8138-.79297.3366-2.15617.9675-2.9482.9675-.46875 0-.78812-.3069-1.32812-.2969-1.9375 0-2.76563 1.7969-2.76563 3.0782 0 1.2812.87105 2.705 2.87195 2.705h20.87869c3.0109 0 4.5681-2.469 3.95-5.2z" fill="url(#f)"/></g><path d="m29.7834 24.7238c-.6181-2.7311-1.462-2.7258-1.6694-6.3644s-.6719-8.2969-6.0156-8.2969c-2.4375 0-5.6419 1.413-5.8281 6.5937 0 3.7022-4.75 5.7969-7.14559 6.8138-.79297.3366-2.15617.9675-2.9482.9675-.46875 0-.78812-.3069-1.32812-.2969-1.9375 0-2.76563 1.7969-2.76563 3.0782 0 1.2812.87105 2.705 2.87195 2.705h20.87869c3.0109 0 4.5681-2.469 3.95-5.2z" fill="url(#g)"/><path d="m29.7834 24.7238c-.6181-2.7311-1.462-2.7258-1.6694-6.3644s-.6719-8.2969-6.0156-8.2969c-2.4375 0-5.6419 1.413-5.8281 6.5937 0 3.7022-4.75 5.7969-7.14559 6.8138-.79297.3366-2.15617.9675-2.9482.9675-.46875 0-.78812-.3069-1.32812-.2969-1.9375 0-2.76563 1.7969-2.76563 3.0782 0 1.2812.87105 2.705 2.87195 2.705h20.87869c3.0109 0 4.5681-2.469 3.95-5.2z" fill="url(#h)"/><path d="m29.7834 24.7238c-.6181-2.7311-1.462-2.7258-1.6694-6.3644s-.6719-8.2969-6.0156-8.2969c-2.4375 0-5.6419 1.413-5.8281 6.5937 0 3.7022-4.75 5.7969-7.14559 6.8138-.79297.3366-2.15617.9675-2.9482.9675-.46875 0-.78812-.3069-1.32812-.2969-1.9375 0-2.76563 1.7969-2.76563 3.0782 0 1.2812.87105 2.705 2.87195 2.705h20.87869c3.0109 0 4.5681-2.469 3.95-5.2z" fill="url(#i)"/><path d="m29.7834 24.7238c-.6181-2.7311-1.462-2.7258-1.6694-6.3644s-.6719-8.2969-6.0156-8.2969c-2.4375 0-5.6419 1.413-5.8281 6.5937 0 3.7022-4.75 5.7969-7.14559 6.8138-.79297.3366-2.15617.9675-2.9482.9675-.46875 0-.78812-.3069-1.32812-.2969-1.9375 0-2.76563 1.7969-2.76563 3.0782 0 1.2812.87105 2.705 2.87195 2.705h20.87869c3.0109 0 4.5681-2.469 3.95-5.2z" fill="url(#j)"/><g filter="url(#b)"><path d="m24.7878 11.8395c-.9462 0-1.6358 1.1283-1.3856 2.0408.3904 1.4247.6226 3.0957.6823 4.1407.1019 1.7813.3949 2.4716.7208 3.2392.2069.4876.4271 1.0063.62 1.8555.4964 2.1862-.7543 4.1626-3.1724 4.1626h3.6488c.8103 0 3.9453.0001 2.7015-3.7188-.2228-.4739-.4734-.94-.6923-1.3473-.2064-.3839-.3846-.7154-.485-.952-.3259-.7676-.3927-1.4579-.4945-3.2392-.0827-1.4461-.4955-4.0912-1.2012-5.6229-.1666-.3616-.5443-.5586-.9424-.5586z" fill="#ffe6c7"/></g><g filter="url(#c)"><circle cx="23.426" cy="19.085" fill="url(#k)" r="3.086"/></g><g filter="url(#d)"><path d="m20.055 16.8162c-.1598 0-.3122.0737-.4003.2071-.4138.626-.6547 1.3763-.6547 2.1828 0 2.1892 1.7747 3.9639 3.9639 3.9639s3.9639-1.7747 3.9639-3.9639c0-.7082-.1858-1.3731-.5112-1.9485.164.3769.255.7929.255 1.2303 0 1.7041-1.3814 3.0855-3.0855 3.0855s-3.0856-1.3814-3.0856-3.0855c0-.2839.0384-.5587.1101-.8198.1072-.3898-.1513-.8519-.5556-.8519z" fill="url(#l)"/></g><g filter="url(#e)"><path d="m4.55682 26.9311h14.36918" stroke="url(#m)" stroke-linecap="round" stroke-width="2"/></g></svg>