<svg fill="none" height="32" viewBox="0 0 32 32" width="32" xmlns="http://www.w3.org/2000/svg" xmlns:xlink="http://www.w3.org/1999/xlink"><filter id="a" color-interpolation-filters="sRGB" filterUnits="userSpaceOnUse" height="13.148" width="7.981" x="1.991" y="16.837"><feFlood flood-opacity="0" result="BackgroundImageFix"/><feBlend in="SourceGraphic" in2="BackgroundImageFix" mode="normal" result="shape"/><feColorMatrix in="SourceAlpha" result="hardAlpha" type="matrix" values="0 0 0 0 0 0 0 0 0 0 0 0 0 0 0 0 0 0 127 0"/><feOffset dx=".2"/><feGaussianBlur stdDeviation=".2"/><feComposite in2="hardAlpha" k2="-1" k3="1" operator="arithmetic"/><feColorMatrix type="matrix" values="0 0 0 0 0.392157 0 0 0 0 0.364706 0 0 0 0 0.423529 0 0 0 1 0"/><feBlend in2="shape" mode="normal" result="effect1_innerShadow_4002_997"/></filter><filter id="b" color-interpolation-filters="sRGB" filterUnits="userSpaceOnUse" height="13.148" width="7.981" x="22.028" y="16.837"><feFlood flood-opacity="0" result="BackgroundImageFix"/><feBlend in="SourceGraphic" in2="BackgroundImageFix" mode="normal" result="shape"/><feColorMatrix in="SourceAlpha" result="hardAlpha" type="matrix" values="0 0 0 0 0 0 0 0 0 0 0 0 0 0 0 0 0 0 127 0"/><feOffset dx="-.2"/><feGaussianBlur stdDeviation=".2"/><feComposite in2="hardAlpha" k2="-1" k3="1" operator="arithmetic"/><feColorMatrix type="matrix" values="0 0 0 0 0.392157 0 0 0 0 0.364706 0 0 0 0 0.423529 0 0 0 1 0"/><feBlend in2="shape" mode="normal" result="effect1_innerShadow_4002_997"/></filter><filter id="c" color-interpolation-filters="sRGB" filterUnits="userSpaceOnUse" height="5.683" width="9.078" x="17.916" y="15.673"><feFlood flood-opacity="0" result="BackgroundImageFix"/><feBlend in="SourceGraphic" in2="BackgroundImageFix" mode="normal" result="shape"/><feColorMatrix in="SourceAlpha" result="hardAlpha" type="matrix" values="0 0 0 0 0 0 0 0 0 0 0 0 0 0 0 0 0 0 127 0"/><feOffset dx=".25" dy="-.25"/><feGaussianBlur stdDeviation=".25"/><feComposite in2="hardAlpha" k2="-1" k3="1" operator="arithmetic"/><feColorMatrix type="matrix" values="0 0 0 0 0.803922 0 0 0 0 0.101961 0 0 0 0 0.32549 0 0 0 1 0"/><feBlend in2="shape" mode="normal" result="effect1_innerShadow_4002_997"/></filter><filter id="d" color-interpolation-filters="sRGB" filterUnits="userSpaceOnUse" height="5.533" width="8.928" x="5.258" y="15.818"><feFlood flood-opacity="0" result="BackgroundImageFix"/><feBlend in="SourceGraphic" in2="BackgroundImageFix" mode="normal" result="shape"/><feColorMatrix in="SourceAlpha" result="hardAlpha" type="matrix" values="0 0 0 0 0 0 0 0 0 0 0 0 0 0 0 0 0 0 127 0"/><feOffset dx="-.1" dy="-.1"/><feGaussianBlur stdDeviation=".125"/><feComposite in2="hardAlpha" k2="-1" k3="1" operator="arithmetic"/><feColorMatrix type="matrix" values="0 0 0 0 0.823529 0 0 0 0 0.113725 0 0 0 0 0.337255 0 0 0 1 0"/><feBlend in2="shape" mode="normal" result="effect1_innerShadow_4002_997"/></filter><filter id="e" color-interpolation-filters="sRGB" filterUnits="userSpaceOnUse" height="5.942" width="4.194" x="13.971" y="12.978"><feFlood flood-opacity="0" result="BackgroundImageFix"/><feBlend in="SourceGraphic" in2="BackgroundImageFix" mode="normal" result="shape"/><feColorMatrix in="SourceAlpha" result="hardAlpha" type="matrix" values="0 0 0 0 0 0 0 0 0 0 0 0 0 0 0 0 0 0 127 0"/><feOffset dy=".2"/><feGaussianBlur stdDeviation=".15"/><feComposite in2="hardAlpha" k2="-1" k3="1" operator="arithmetic"/><feColorMatrix type="matrix" values="0 0 0 0 0.32549 0 0 0 0 0.227451 0 0 0 0 0.439216 0 0 0 1 0"/><feBlend in2="shape" mode="normal" result="effect1_innerShadow_4002_997"/></filter><filter id="f" color-interpolation-filters="sRGB" filterUnits="userSpaceOnUse" height="3.465" width="3.465" x="14.33" y="22.263"><feFlood flood-opacity="0" result="BackgroundImageFix"/><feBlend in="SourceGraphic" in2="BackgroundImageFix" mode="normal" result="shape"/><feColorMatrix in="SourceAlpha" result="hardAlpha" type="matrix" values="0 0 0 0 0 0 0 0 0 0 0 0 0 0 0 0 0 0 127 0"/><feOffset/><feGaussianBlur stdDeviation=".125"/><feComposite in2="hardAlpha" k2="-1" k3="1" operator="arithmetic"/><feColorMatrix type="matrix" values="0 0 0 0 0.819608 0 0 0 0 0.145098 0 0 0 0 0.364706 0 0 0 1 0"/><feBlend in2="shape" mode="normal" result="effect1_innerShadow_4002_997"/></filter><filter id="g" color-interpolation-filters="sRGB" filterUnits="userSpaceOnUse" height="2.992" width="2.992" x="9.8" y="9.128"><feFlood flood-opacity="0" result="BackgroundImageFix"/><feBlend in="SourceGraphic" in2="BackgroundImageFix" mode="normal" result="shape"/><feGaussianBlur result="effect1_foregroundBlur_4002_997" stdDeviation=".25"/></filter><filter id="h" color-interpolation-filters="sRGB" filterUnits="userSpaceOnUse" height="3.592" width="3.592" x="19.147" y="8.703"><feFlood flood-opacity="0" result="BackgroundImageFix"/><feBlend in="SourceGraphic" in2="BackgroundImageFix" mode="normal" result="shape"/><feColorMatrix in="SourceAlpha" result="hardAlpha" type="matrix" values="0 0 0 0 0 0 0 0 0 0 0 0 0 0 0 0 0 0 127 0"/><feOffset dx=".25" dy="-.25"/><feGaussianBlur stdDeviation=".25"/><feComposite in2="hardAlpha" k2="-1" k3="1" operator="arithmetic"/><feColorMatrix type="matrix" values="0 0 0 0 0.85098 0 0 0 0 0.560784 0 0 0 0 0.376471 0 0 0 1 0"/><feBlend in2="shape" mode="normal" result="effect1_innerShadow_4002_997"/></filter><filter id="i" color-interpolation-filters="sRGB" filterUnits="userSpaceOnUse" height="2.992" width="2.992" x="19.322" y="9.128"><feFlood flood-opacity="0" result="BackgroundImageFix"/><feBlend in="SourceGraphic" in2="BackgroundImageFix" mode="normal" result="shape"/><feGaussianBlur result="effect1_foregroundBlur_4002_997" stdDeviation=".25"/></filter><filter id="j" color-interpolation-filters="sRGB" filterUnits="userSpaceOnUse" height="8.301" width="12.614" x="9.741" y="1.764"><feFlood flood-opacity="0" result="BackgroundImageFix"/><feBlend in="SourceGraphic" in2="BackgroundImageFix" mode="normal" result="shape"/><feColorMatrix in="SourceAlpha" result="hardAlpha" type="matrix" values="0 0 0 0 0 0 0 0 0 0 0 0 0 0 0 0 0 0 127 0"/><feOffset dy="-.25"/><feGaussianBlur stdDeviation=".125"/><feComposite in2="hardAlpha" k2="-1" k3="1" operator="arithmetic"/><feColorMatrix type="matrix" values="0 0 0 0 0.984314 0 0 0 0 0.584314 0 0 0 0 0.129412 0 0 0 1 0"/><feBlend in2="shape" mode="normal" result="effect1_innerShadow_4002_997"/><feColorMatrix in="SourceAlpha" result="hardAlpha" type="matrix" values="0 0 0 0 0 0 0 0 0 0 0 0 0 0 0 0 0 0 127 0"/><feOffset dy="-.25"/><feGaussianBlur stdDeviation=".125"/><feComposite in2="hardAlpha" k2="-1" k3="1" operator="arithmetic"/><feColorMatrix type="matrix" values="0 0 0 0 0.972549 0 0 0 0 0.572549 0 0 0 0 0.0156863 0 0 0 1 0"/><feBlend in2="effect1_innerShadow_4002_997" mode="normal" result="effect2_innerShadow_4002_997"/></filter><filter id="k" color-interpolation-filters="sRGB" filterUnits="userSpaceOnUse" height="4.184" width="3.262" x="14.178" y="9.469"><feFlood flood-opacity="0" result="BackgroundImageFix"/><feBlend in="SourceGraphic" in2="BackgroundImageFix" mode="normal" result="shape"/><feGaussianBlur result="effect1_foregroundBlur_4002_997" stdDeviation=".375"/></filter><filter id="l" color-interpolation-filters="sRGB" filterUnits="userSpaceOnUse" height="3.184" width="2.379" x="14.858" y="9.805"><feFlood flood-opacity="0" result="BackgroundImageFix"/><feBlend in="SourceGraphic" in2="BackgroundImageFix" mode="normal" result="shape"/><feGaussianBlur result="effect1_foregroundBlur_4002_997" stdDeviation=".125"/></filter><filter id="m" color-interpolation-filters="sRGB" filterUnits="userSpaceOnUse" height="7.06" width="13.891" x="9.087" y="6.969"><feFlood flood-opacity="0" result="BackgroundImageFix"/><feBlend in="SourceGraphic" in2="BackgroundImageFix" mode="normal" result="shape"/><feGaussianBlur result="effect1_foregroundBlur_4002_997" stdDeviation=".375"/></filter><filter id="n" color-interpolation-filters="sRGB" filterUnits="userSpaceOnUse" height="7.157" width="15.059" x="8.503" y="6.085"><feFlood flood-opacity="0" result="BackgroundImageFix"/><feBlend in="SourceGraphic" in2="BackgroundImageFix" mode="normal" result="shape"/><feColorMatrix in="SourceAlpha" result="hardAlpha" type="matrix" values="0 0 0 0 0 0 0 0 0 0 0 0 0 0 0 0 0 0 127 0"/><feOffset dy="-.2"/><feGaussianBlur stdDeviation=".1"/><feComposite in2="hardAlpha" k2="-1" k3="1" operator="arithmetic"/><feColorMatrix type="matrix" values="0 0 0 0 0.239216 0 0 0 0 0.141176 0 0 0 0 0.309804 0 0 0 1 0"/><feBlend in2="shape" mode="normal" result="effect1_innerShadow_4002_997"/><feColorMatrix in="SourceAlpha" result="hardAlpha" type="matrix" values="0 0 0 0 0 0 0 0 0 0 0 0 0 0 0 0 0 0 127 0"/><feOffset dy=".2"/><feGaussianBlur stdDeviation=".125"/><feComposite in2="hardAlpha" k2="-1" k3="1" operator="arithmetic"/><feColorMatrix type="matrix" values="0 0 0 0 0.4 0 0 0 0 0.301961 0 0 0 0 0.415686 0 0 0 1 0"/><feBlend in2="effect1_innerShadow_4002_997" mode="normal" result="effect2_innerShadow_4002_997"/><feColorMatrix in="SourceAlpha" result="hardAlpha" type="matrix" values="0 0 0 0 0 0 0 0 0 0 0 0 0 0 0 0 0 0 127 0"/><feOffset dy=".1"/><feGaussianBlur stdDeviation=".1"/><feComposite in2="hardAlpha" k2="-1" k3="1" operator="arithmetic"/><feColorMatrix type="matrix" values="0 0 0 0 0.246463 0 0 0 0 0.17575 0 0 0 0 0.249183 0 0 0 1 0"/><feBlend in2="effect2_innerShadow_4002_997" mode="normal" result="effect3_innerShadow_4002_997"/></filter><filter id="o" color-interpolation-filters="sRGB" filterUnits="userSpaceOnUse" height="1.527" width="2.142" x="17.273" y="8.76"><feFlood flood-opacity="0" result="BackgroundImageFix"/><feBlend in="SourceGraphic" in2="BackgroundImageFix" mode="normal" result="shape"/><feColorMatrix in="SourceAlpha" result="hardAlpha" type="matrix" values="0 0 0 0 0 0 0 0 0 0 0 0 0 0 0 0 0 0 127 0"/><feOffset/><feGaussianBlur stdDeviation=".075"/><feComposite in2="hardAlpha" k2="-1" k3="1" operator="arithmetic"/><feColorMatrix type="matrix" values="0 0 0 0 0.541176 0 0 0 0 0.721569 0 0 0 0 0.364706 0 0 0 1 0"/><feBlend in2="shape" mode="normal" result="effect1_innerShadow_4002_997"/></filter><filter id="p" color-interpolation-filters="sRGB" filterUnits="userSpaceOnUse" height="1.527" width="2.142" x="12.726" y="8.76"><feFlood flood-opacity="0" result="BackgroundImageFix"/><feBlend in="SourceGraphic" in2="BackgroundImageFix" mode="normal" result="shape"/><feColorMatrix in="SourceAlpha" result="hardAlpha" type="matrix" values="0 0 0 0 0 0 0 0 0 0 0 0 0 0 0 0 0 0 127 0"/><feOffset/><feGaussianBlur stdDeviation=".075"/><feComposite in2="hardAlpha" k2="-1" k3="1" operator="arithmetic"/><feColorMatrix type="matrix" values="0 0 0 0 0.541176 0 0 0 0 0.721569 0 0 0 0 0.364706 0 0 0 1 0"/><feBlend in2="shape" mode="normal" result="effect1_innerShadow_4002_997"/></filter><linearGradient id="q"><stop offset="0" stop-color="#593f75"/><stop offset="1" stop-color="#372543"/></linearGradient><radialGradient id="r" cx="0" cy="0" gradientTransform="matrix(2.71876526 -12.18753387 3.77511865 .84214424 3.55667 29.7357)" gradientUnits="userSpaceOnUse" r="1" xlink:href="#q"/><linearGradient id="s"><stop offset="0" stop-color="#230f39"/><stop offset="1" stop-color="#230f39" stop-opacity="0"/></linearGradient><radialGradient id="t" cx="0" cy="0" gradientTransform="matrix(-1.64370348 5.87086146 -1.18860336 -.33278106 5.88147 24.6424)" gradientUnits="userSpaceOnUse" r="1" xlink:href="#s"/><radialGradient id="u" cx="0" cy="0" gradientTransform="matrix(-4.62500159 -13.87496344 4.29782815 -1.43261365 29.2441 29.517)" gradientUnits="userSpaceOnUse" r="1" xlink:href="#q"/><radialGradient id="v" cx="0" cy="0" gradientTransform="matrix(1.64374446 5.87084999 -1.18860104 .33278935 26.1185 24.6424)" gradientUnits="userSpaceOnUse" r="1" xlink:href="#s"/><radialGradient id="w" cx="0" cy="0" gradientTransform="matrix(-7.65624129 8.81246707 -8.58003559 -7.45430561 21.1503 19.9544)" gradientUnits="userSpaceOnUse" r="1"><stop offset="0" stop-color="#735aa1"/><stop offset="1" stop-color="#64468e"/></radialGradient><radialGradient id="x" cx="0" cy="0" gradientTransform="matrix(-6.61125604 10.08230614 -19.58843749 -12.84469783 17.9942 20.7275)" gradientUnits="userSpaceOnUse" r="1"><stop offset=".612" stop-color="#5b3e84" stop-opacity="0"/><stop offset="1" stop-color="#5b3e84"/></radialGradient><radialGradient id="y" cx="0" cy="0" gradientTransform="matrix(-6.03124357 1.09997786 -3.62517069 -19.87702496 24.1503 22.792)" gradientUnits="userSpaceOnUse" r="1"><stop offset="0" stop-color="#8371ae"/><stop offset="1" stop-color="#72599f" stop-opacity="0"/></radialGradient><linearGradient id="z" gradientUnits="userSpaceOnUse" x1="23.236" x2="22.978" y1="29.986" y2="29.986"><stop offset="0" stop-color="#50387f"/><stop offset="1" stop-color="#50387f" stop-opacity="0"/></linearGradient><radialGradient id="A" cx="0" cy="0" gradientTransform="matrix(.21874579 4.43750176 -3.52576883 .17380209 21.3378 17.8919)" gradientUnits="userSpaceOnUse" r="1"><stop offset=".787" stop-color="#563079"/><stop offset="1" stop-color="#755da2" stop-opacity="0"/></radialGradient><radialGradient id="B" cx="0" cy="0" gradientTransform="matrix(.34375476 5.52506658 -4.70428367 .29268786 10.5878 17.2669)" gradientUnits="userSpaceOnUse" r="1"><stop offset=".648" stop-color="#533179"/><stop offset=".991" stop-color="#614290" stop-opacity="0"/></radialGradient><radialGradient id="C" cx="0" cy="0" gradientTransform="matrix(0 9.34375 -.503368 0 8.83777 20.6419)" gradientUnits="userSpaceOnUse" r="1"><stop offset=".584" stop-color="#655586"/><stop offset="1" stop-color="#615181" stop-opacity="0"/></radialGradient><linearGradient id="D" gradientUnits="userSpaceOnUse" x1="8.857" x2="8.994" y1="29.986" y2="29.986"><stop offset="0" stop-color="#3f2563"/><stop offset="1" stop-color="#3f2563" stop-opacity="0"/></linearGradient><radialGradient id="E" cx="0" cy="0" gradientTransform="matrix(3.62500408 -.18750046 .66953859 12.94439589 23.4315 25.4232)" gradientUnits="userSpaceOnUse" r="1"><stop offset=".247" stop-color="#8b74c8"/><stop offset="1" stop-color="#735ca8"/></radialGradient><radialGradient id="F" cx="0" cy="0" gradientTransform="matrix(2.02343875 3.79716903 -2.02267106 1.07784272 23.2518 20.267)" gradientUnits="userSpaceOnUse" r="1"><stop offset="0" stop-color="#8977bc"/><stop offset="1" stop-color="#8977bc" stop-opacity="0"/></radialGradient><radialGradient id="G" cx="0" cy="0" gradientTransform="matrix(3.93750339 -1.15624964 3.32753959 11.33163458 23.5878 25.7045)" gradientUnits="userSpaceOnUse" r="1"><stop offset=".676" stop-color="#614b90" stop-opacity="0"/><stop offset="1" stop-color="#614b90"/></radialGradient><linearGradient id="H" gradientUnits="userSpaceOnUse" x1="23.252" x2="23.486" y1="29.986" y2="29.986"><stop offset="0" stop-color="#573a88"/><stop offset="1" stop-color="#7757b7" stop-opacity="0"/></linearGradient><radialGradient id="I" cx="0" cy="0" gradientTransform="matrix(-3.89843529 -.93751482 4.08965291 -17.00586151 8.86121 27.1107)" gradientUnits="userSpaceOnUse" r="1"><stop offset=".424" stop-color="#7056ae"/><stop offset=".808" stop-color="#73629d"/></radialGradient><radialGradient id="J" cx="0" cy="0" gradientTransform="matrix(0 4.59375 -1.54958 0 9.21277 20.1732)" gradientUnits="userSpaceOnUse" r="1"><stop offset=".145" stop-color="#563680"/><stop offset="1" stop-color="#6d55a5" stop-opacity="0"/></radialGradient><radialGradient id="K" cx="0" cy="0" gradientTransform="matrix(-.465376 0 0 -10.5767 9.04364 28.8614)" gradientUnits="userSpaceOnUse" r="1"><stop offset=".473" stop-color="#7560a8"/><stop offset="1" stop-color="#7560a8" stop-opacity="0"/></radialGradient><radialGradient id="L" cx="0" cy="0" gradientTransform="matrix(-5.43750355 -.46873979 1.1996273 -13.91598879 9.80652 30.4545)" gradientUnits="userSpaceOnUse" r="1"><stop offset=".919" stop-color="#5f4d85" stop-opacity="0"/><stop offset=".983" stop-color="#443063"/></radialGradient><radialGradient id="M" cx="0" cy="0" gradientTransform="matrix(0 -4.75 3.76953 0 16.0682 21.2045)" gradientUnits="userSpaceOnUse" r="1"><stop offset=".625" stop-color="#a5ee69"/><stop offset=".921" stop-color="#7da646"/></radialGradient><linearGradient id="N"><stop offset="0" stop-color="#967bc2"/><stop offset="1" stop-color="#735784"/></linearGradient><radialGradient id="O" cx="0" cy="0" gradientTransform="matrix(-.929688 0 0 -.773195 22.9942 15.8449)" gradientUnits="userSpaceOnUse" r="1" xlink:href="#N"/><radialGradient id="P" cx="0" cy="0" gradientTransform="matrix(-.929688 0 0 -.773195 25.0294 15.8449)" gradientUnits="userSpaceOnUse" r="1" xlink:href="#N"/><linearGradient id="Q" gradientUnits="userSpaceOnUse" x1="25.745" x2="20.292" y1="15.923" y2="20.135"><stop offset="0" stop-color="#ff3880"/><stop offset="1" stop-color="#ff3669"/></linearGradient><radialGradient id="R" cx="0" cy="0" gradientTransform="matrix(3.45016413 1.26235546 -2.4844369 6.7902547 18.0661 15.9232)" gradientUnits="userSpaceOnUse" r="1"><stop offset="0" stop-color="#ee205c"/><stop offset="1" stop-color="#ee205c" stop-opacity="0"/></radialGradient><radialGradient id="S" cx="0" cy="0" gradientTransform="matrix(-2.25042776 3.7005759 -.73485541 -.44688693 26.7438 16.6013)" gradientUnits="userSpaceOnUse" r="1"><stop offset="0" stop-color="#ff5292"/><stop offset="1" stop-color="#ff5292" stop-opacity="0"/></radialGradient><radialGradient id="T" cx="0" cy="0" gradientTransform="matrix(5.6875 0 0 .796875 20.119 15.9232)" gradientUnits="userSpaceOnUse" r="1"><stop offset="0" stop-color="#e7547f"/><stop offset="1" stop-color="#e7547f" stop-opacity="0"/></radialGradient><radialGradient id="U" cx="0" cy="0" gradientTransform="matrix(.36718781 .2575702 -.32847739 .46827192 9.08 15.5795)" gradientUnits="userSpaceOnUse" r="1"><stop offset="0" stop-color="#6b5b8d"/><stop offset="1" stop-color="#6b5b8d" stop-opacity="0"/></radialGradient><radialGradient id="V" cx="0" cy="0" gradientTransform="matrix(.956009 0 0 1.08294 9.17375 15.837)" gradientUnits="userSpaceOnUse" r="1"><stop offset=".587" stop-color="#5d3970" stop-opacity="0"/><stop offset="1" stop-color="#745b84"/></radialGradient><radialGradient id="W" cx="0" cy="0" gradientTransform="matrix(.66796895 .16406273 -.20922815 .85185654 6.84563 15.6967)" gradientUnits="userSpaceOnUse" r="1"><stop offset="0" stop-color="#79659c"/><stop offset="1" stop-color="#79659c" stop-opacity="0"/></radialGradient><linearGradient id="X" gradientUnits="userSpaceOnUse" x1="9.772" x2="9.772" y1="15.918" y2="20.704"><stop offset="0" stop-color="#db2a69"/><stop offset="1" stop-color="#f93362"/></linearGradient><linearGradient id="Y" gradientUnits="userSpaceOnUse" x1="9.772" x2="9.772" y1="15.548" y2="17.517"><stop offset=".071" stop-color="#bb4566"/><stop offset="1" stop-color="#e62f68" stop-opacity="0"/></linearGradient><radialGradient id="Z" cx="0" cy="0" gradientTransform="matrix(2.72978069 4.35938049 -.30396829 .19034052 5.358 16.4857)" gradientUnits="userSpaceOnUse" r="1"><stop offset="0" stop-color="#e1658e"/><stop offset="1" stop-color="#e1658e" stop-opacity="0"/></radialGradient><radialGradient id="aa" cx="0" cy="0" gradientTransform="matrix(-2.03126098 -2.88301983 2.81947736 -1.98649149 12.869 21.517)" gradientUnits="userSpaceOnUse" r="1"><stop offset="0" stop-color="#ff4574"/><stop offset="1" stop-color="#ff4574" stop-opacity="0"/></radialGradient><radialGradient id="ab" cx="0" cy="0" gradientTransform="matrix(-6.375 0 0 -4.84375 14.6503 16.2982)" gradientUnits="userSpaceOnUse" r="1"><stop offset=".132" stop-color="#a61e39"/><stop offset="1" stop-color="#dd225e" stop-opacity="0"/></radialGradient><radialGradient id="ac" cx="0" cy="0" gradientTransform="matrix(-1.66406 0 0 -.396203 12.5722 15.9177)" gradientUnits="userSpaceOnUse" r="1"><stop offset="0" stop-color="#ae495e"/><stop offset="1" stop-color="#ae495e" stop-opacity="0"/></radialGradient><radialGradient id="ad" cx="0" cy="0" gradientTransform="matrix(-3.36670698 .90626431 -1.591631 -5.91279513 17.3378 16.8607)" gradientUnits="userSpaceOnUse" r="1"><stop offset=".31" stop-color="#835ac7"/><stop offset="1" stop-color="#643b89"/></radialGradient><radialGradient id="ae" cx="0" cy="0" gradientTransform="matrix(-.78906644 .49780609 -.57776586 -.91580971 21.8846 16.7434)" gradientUnits="userSpaceOnUse" r="1"><stop offset=".125" stop-color="#977fd1"/><stop offset=".796" stop-color="#7a4c9c"/></radialGradient><radialGradient id="af" cx="0" cy="0" gradientTransform="matrix(-.79687585 -.13280804 .12520698 -.75126791 21.7753 16.9701)" gradientUnits="userSpaceOnUse" r="1"><stop offset=".705" stop-color="#85527f" stop-opacity="0"/><stop offset="1" stop-color="#85527f"/></radialGradient><radialGradient id="ag" cx="0" cy="0" gradientTransform="matrix(-.78906026 .4609418 -.53189725 -.91052488 23.9628 16.7201)" gradientUnits="userSpaceOnUse" r="1"><stop offset=".125" stop-color="#977fd1"/><stop offset=".963" stop-color="#7a4c9c"/></radialGradient><radialGradient id="ah" cx="0" cy="0" gradientTransform="matrix(.72656263 .52083361 -.63755592 .8893902 8.10341 16.669)" gradientUnits="userSpaceOnUse" r="1"><stop offset=".069" stop-color="#7d64a6"/><stop offset="1" stop-color="#774ca5"/></radialGradient><linearGradient id="ai"><stop offset=".512" stop-color="#67416e" stop-opacity="0"/><stop offset="1" stop-color="#67416e"/></linearGradient><radialGradient id="aj" cx="0" cy="0" gradientTransform="matrix(.86375428 -.48466476 .45069556 .80321544 8.18153 17.103)" gradientUnits="userSpaceOnUse" r="1" xlink:href="#ai"/><radialGradient id="ak" cx="0" cy="0" gradientTransform="matrix(.72656286 .56250017 -.7038889 .90919 10.1815 16.6888)" gradientUnits="userSpaceOnUse" r="1"><stop offset="0" stop-color="#725d9d"/><stop offset="1" stop-color="#774ca5"/></radialGradient><radialGradient id="al" cx="0" cy="0" gradientTransform="matrix(.86375466 -.52343815 .50554761 .83423248 10.2597 17.1576)" gradientUnits="userSpaceOnUse" r="1" xlink:href="#ai"/><radialGradient id="am" cx="0" cy="0" gradientTransform="matrix(-1.15625599 2.56249241 -2.3684059 -1.06867965 16.994 22.9545)" gradientUnits="userSpaceOnUse" r="1"><stop offset="0" stop-color="#ff499d"/><stop offset="1" stop-color="#df1d5a"/></radialGradient><radialGradient id="an" cx="0" cy="0" gradientTransform="matrix(.70312769 .81250335 -1.68959108 1.4621457 14.7128 22.4857)" gradientUnits="userSpaceOnUse" r="1"><stop offset="0" stop-color="#cd2172"/><stop offset="1" stop-color="#cd2172" stop-opacity="0"/></radialGradient><linearGradient id="ao" gradientUnits="userSpaceOnUse" x1="16.985" x2="15.947" y1="23.123" y2="24.027"><stop offset=".453" stop-color="#fff"/><stop offset=".905" stop-color="#fff" stop-opacity="0"/></linearGradient><radialGradient id="ap" cx="0" cy="0" gradientTransform="matrix(1.75652 0 0 3.07393 9.62439 10.6237)" gradientUnits="userSpaceOnUse" r="1"><stop offset=".351" stop-color="#e6962b"/><stop offset="1" stop-color="#d17d22"/></radialGradient><linearGradient id="aq" gradientUnits="userSpaceOnUse" x1="11.296" x2="10.654" y1="10.903" y2="10.903"><stop offset="0" stop-color="#bd6a1e"/><stop offset="1" stop-color="#d77a1c"/></linearGradient><linearGradient id="ar" gradientUnits="userSpaceOnUse" x1="21.905" x2="21.086" y1="9.531" y2="12.07"><stop offset="0" stop-color="#ffe446"/><stop offset="1" stop-color="#ffc339"/></linearGradient><radialGradient id="as" cx="0" cy="0" gradientTransform="matrix(.82748317 -.60253551 .68771728 .94446628 21.1903 10.3586)" gradientUnits="userSpaceOnUse" r="1"><stop offset=".543" stop-color="#ffc532"/><stop offset="1" stop-color="#ffc532" stop-opacity="0"/></radialGradient><radialGradient id="at" cx="0" cy="0" gradientTransform="matrix(.82203845 -1.51196063 .8849597 .48114407 20.7764 11.4458)" gradientUnits="userSpaceOnUse" r="1"><stop offset=".69" stop-color="#f4a51a" stop-opacity="0"/><stop offset="1" stop-color="#f4a51a"/></radialGradient><radialGradient id="au" cx="0" cy="0" gradientTransform="matrix(.25953381 .25689915 -.33117857 .33457501 20.8178 10.6237)" gradientUnits="userSpaceOnUse" r="1"><stop offset="0" stop-color="#e59b1f"/><stop offset="1" stop-color="#e59b1f" stop-opacity="0"/></radialGradient><linearGradient id="av" gradientUnits="userSpaceOnUse" x1="20.088" x2="12.444" y1="11.014" y2="12.153"><stop offset="0" stop-color="#ffe833"/><stop offset=".916" stop-color="#f9a528"/></linearGradient><linearGradient id="aw" gradientUnits="userSpaceOnUse" x1="10.647" x2="12.962" y1="13.712" y2="13.41"><stop offset="0" stop-color="#d19c3a"/><stop offset="1" stop-color="#d19c3a" stop-opacity="0"/></linearGradient><radialGradient id="ax" cx="0" cy="0" gradientTransform="matrix(0 8.59375 -9.8125 0 16.5393 9.03115)" gradientUnits="userSpaceOnUse" r="1"><stop offset=".56" stop-color="#f49a3e" stop-opacity="0"/><stop offset=".958" stop-color="#db7221"/></radialGradient><radialGradient id="ay" cx="0" cy="0" gradientTransform="matrix(0 -1.30832 1.61023 0 18.3963 9.35101)" gradientUnits="userSpaceOnUse" r="1"><stop offset="0" stop-color="#ffba0d"/><stop offset="1" stop-color="#ffba0d" stop-opacity="0"/></radialGradient><radialGradient id="az" cx="0" cy="0" gradientTransform="matrix(0 -1.39218 1.7313 0 13.8339 9.31747)" gradientUnits="userSpaceOnUse" r="1"><stop offset="0" stop-color="#ee911a"/><stop offset="1" stop-color="#ee911a" stop-opacity="0"/></radialGradient><radialGradient id="aA" cx="0" cy="0" gradientTransform="matrix(-2.03126078 -4.56250072 2.06078272 -.91747648 13.0781 8.89196)" gradientUnits="userSpaceOnUse" r="1"><stop offset=".216" stop-color="#da8d1b"/><stop offset="1" stop-color="#feaf22" stop-opacity="0"/></radialGradient><radialGradient id="aB" cx="0" cy="0" gradientTransform="matrix(-3.43985736 4.43351882 -7.53960033 -5.849789 19.7436 2.90333)" gradientUnits="userSpaceOnUse" r="1"><stop offset="0" stop-color="#ffe336"/><stop offset="1" stop-color="#ffe336" stop-opacity="0"/></radialGradient><linearGradient id="aC" gradientUnits="userSpaceOnUse" x1="11.182" x2="14.087" y1="10.356" y2="5.197"><stop offset="0" stop-color="#e07027"/><stop offset="1" stop-color="#e07027" stop-opacity="0"/></linearGradient><radialGradient id="aD" cx="0" cy="0" gradientTransform="matrix(-.18466629 -1.99438885 .97949115 -.09069395 11.9079 6.982)" gradientUnits="userSpaceOnUse" r="1"><stop offset=".222" stop-color="#ffb42c"/><stop offset="1" stop-color="#ffb42c" stop-opacity="0"/></radialGradient><radialGradient id="aE" cx="0" cy="0" gradientTransform="matrix(.85995659 -1.96834414 1.60533676 .70136106 20.2787 8.8848)" gradientUnits="userSpaceOnUse" r="1"><stop offset=".479" stop-color="#e57d1c"/><stop offset="1" stop-color="#e57d1c" stop-opacity="0"/></radialGradient><radialGradient id="aF" cx="0" cy="0" gradientTransform="matrix(.99372549 1.23302958 -1.08867445 .87738653 15.2718 2.01428)" gradientUnits="userSpaceOnUse" r="1"><stop offset="0" stop-color="#ffce2c"/><stop offset="1" stop-color="#ffce2c" stop-opacity="0"/></radialGradient><radialGradient id="aG" cx="0" cy="0" gradientTransform="matrix(1.45237027 -3.03851324 1.04984423 .50181204 20.2404 6.40048)" gradientUnits="userSpaceOnUse" r="1"><stop offset="0" stop-color="#ffd93a"/><stop offset="1" stop-color="#ffd93a" stop-opacity="0"/></radialGradient><radialGradient id="aH" cx="0" cy="0" gradientTransform="matrix(.26141542 1.0158637 -1.67012812 .42977935 16.7433 2.01428)" gradientUnits="userSpaceOnUse" r="1"><stop offset=".208" stop-color="#ddb13b"/><stop offset="1" stop-color="#ffc926" stop-opacity="0"/></radialGradient><radialGradient id="aI" cx="0" cy="0" gradientTransform="matrix(1.10799698 1.60043731 -3.33049315 2.30573002 11.6617 3.27637)" gradientUnits="userSpaceOnUse" r="1"><stop offset=".288" stop-color="#c9993e"/><stop offset="1" stop-color="#f29322" stop-opacity="0"/></radialGradient><radialGradient id="aJ" cx="0" cy="0" gradientTransform="matrix(-7.21428578 3.25010171 -4.0668055 -9.02713198 17.2017 6.25565)" gradientUnits="userSpaceOnUse" r="1"><stop offset=".756" stop-color="#cf7d35" stop-opacity="0"/><stop offset=".959" stop-color="#cf7d35"/></radialGradient><linearGradient id="aK" gradientUnits="userSpaceOnUse" x1="15.183" x2="16.122" y1="11.673" y2="11.673"><stop offset="0" stop-color="#faa416"/><stop offset="1" stop-color="#faa416" stop-opacity="0"/></linearGradient><linearGradient id="aL" gradientUnits="userSpaceOnUse" x1="16.987" x2="15.96" y1="11.996" y2="11.982"><stop offset="0" stop-color="#ffe721"/><stop offset="1" stop-color="#ffe721" stop-opacity="0"/></linearGradient><linearGradient id="aM" gradientUnits="userSpaceOnUse" x1="16.242" x2="16.242" y1="12.739" y2="12.166"><stop offset="0" stop-color="#eb8a1c"/><stop offset="1" stop-color="#eb8a1c" stop-opacity="0"/></linearGradient><radialGradient id="aN" cx="0" cy="0" gradientTransform="matrix(0 6.38819 -12.4445 0 16.0325 6.28503)" gradientUnits="userSpaceOnUse" r="1"><stop offset=".467" stop-color="#603d60"/><stop offset=".878" stop-color="#514853"/></radialGradient><radialGradient id="aO" cx="0" cy="0" gradientTransform="matrix(-1.18747969 -4.3688431 3.96591193 -1.0779604 13.0255 13.0421)" gradientUnits="userSpaceOnUse" r="1"><stop offset="0" stop-color="#48323e"/><stop offset="1" stop-color="#48323e" stop-opacity="0"/></radialGradient><radialGradient id="aP" cx="0" cy="0" gradientTransform="matrix(-5.37499113 3.37852723 -6.72611426 -10.70075866 24.088 6.28503)" gradientUnits="userSpaceOnUse" r="1"><stop offset="0" stop-color="#6c587a"/><stop offset="1" stop-color="#6c587a" stop-opacity="0"/></radialGradient><linearGradient id="aQ"><stop offset="0" stop-color="#ccfe8c"/><stop offset="1" stop-color="#c6f58b"/></linearGradient><radialGradient id="aR" cx="0" cy="0" gradientTransform="matrix(.46093799 1.0468772 -1.83849194 .80948441 18.291 9.1654)" gradientUnits="userSpaceOnUse" r="1" xlink:href="#aQ"/><radialGradient id="aS" cx="0" cy="0" gradientTransform="matrix(-.46094164 1.04687559 -1.83848911 -.80949083 13.8491 9.1654)" gradientUnits="userSpaceOnUse" r="1" xlink:href="#aQ"/><g filter="url(#a)"><path d="m1.99084 29.9857h3.53125l4.25001-8.75-3.64844-4.3984c-3.41407 4.4375-4.13282 10.3828-4.13282 13.1484z" fill="url(#r)"/><path d="m1.99084 29.9857h3.53125l4.25001-8.75-3.64844-4.3984c-3.41407 4.4375-4.13282 10.3828-4.13282 13.1484z" fill="url(#t)"/></g><g filter="url(#b)"><path d="m30.0092 29.9857h-3.5313l-4.25-8.75 3.6484-4.3984c3.4141 4.4375 4.1329 10.3828 4.1329 13.1484z" fill="url(#u)"/><path d="m30.0092 29.9857h-3.5313l-4.25-8.75 3.6484-4.3984c3.4141 4.4375 4.1329 10.3828 4.1329 13.1484z" fill="url(#v)"/></g><path d="m4.58777 29.9857h22.93753c-.2054-3.0692-.6053-5.6129-1.406-7.5633-2.4446-5.9553-7.1592-6.9532-10.0628-6.8117-2.9035-.1415-7.61812.8564-10.06278 6.8117-.80067 1.9504-1.20059 4.4941-1.40595 7.5633z" fill="url(#w)"/><path d="m4.58777 29.9857h22.93753c-.2054-3.0692-.6053-5.6129-1.406-7.5633-2.4446-5.9553-7.1592-6.9532-10.0628-6.8117-2.9035-.1415-7.61812.8564-10.06278 6.8117-.80067 1.9504-1.20059 4.4941-1.40595 7.5633z" fill="url(#x)"/><path d="m4.58777 29.9857h22.93753c-.2054-3.0692-.6053-5.6129-1.406-7.5633-2.4446-5.9553-7.1592-6.9532-10.0628-6.8117-2.9035-.1415-7.61812.8564-10.06278 6.8117-.80067 1.9504-1.20059 4.4941-1.40595 7.5633z" fill="url(#y)"/><path d="m4.58777 29.9857h22.93753c-.2054-3.0692-.6053-5.6129-1.406-7.5633-2.4446-5.9553-7.1592-6.9532-10.0628-6.8117-2.9035-.1415-7.61812.8564-10.06278 6.8117-.80067 1.9504-1.20059 4.4941-1.40595 7.5633z" fill="url(#z)"/><path d="m4.58777 29.9857h22.93753c-.2054-3.0692-.6053-5.6129-1.406-7.5633-2.4446-5.9553-7.1592-6.9532-10.0628-6.8117-2.9035-.1415-7.61812.8564-10.06278 6.8117-.80067 1.9504-1.20059 4.4941-1.40595 7.5633z" fill="url(#A)"/><path d="m4.58777 29.9857h22.93753c-.2054-3.0692-.6053-5.6129-1.406-7.5633-2.4446-5.9553-7.1592-6.9532-10.0628-6.8117-2.9035-.1415-7.61812.8564-10.06278 6.8117-.80067 1.9504-1.20059 4.4941-1.40595 7.5633z" fill="url(#B)"/><path d="m4.58777 29.9857h22.93753c-.2054-3.0692-.6053-5.6129-1.406-7.5633-2.4446-5.9553-7.1592-6.9532-10.0628-6.8117-2.9035-.1415-7.61812.8564-10.06278 6.8117-.80067 1.9504-1.20059 4.4941-1.40595 7.5633z" fill="url(#C)"/><path d="m4.58777 29.9857h22.93753c-.2054-3.0692-.6053-5.6129-1.406-7.5633-2.4446-5.9553-7.1592-6.9532-10.0628-6.8117-2.9035-.1415-7.61812.8564-10.06278 6.8117-.80067 1.9504-1.20059 4.4941-1.40595 7.5633z" fill="url(#D)"/><path d="m23.2518 18.1426v11.8431h4.2735c-.2054-3.0691-.6053-5.6128-1.406-7.5633-.7722-1.8811-1.7709-3.2676-2.8675-4.2798z" fill="url(#E)"/><path d="m23.2518 18.1426v11.8431h4.2735c-.2054-3.0691-.6053-5.6128-1.406-7.5633-.7722-1.8811-1.7709-3.2676-2.8675-4.2798z" fill="url(#F)"/><path d="m23.2518 18.1426v11.8431h4.2735c-.2054-3.0691-.6053-5.6128-1.406-7.5633-.7722-1.8811-1.7709-3.2676-2.8675-4.2798z" fill="url(#G)"/><path d="m23.2518 18.1426v11.8431h4.2735c-.2054-3.0691-.6053-5.6128-1.406-7.5633-.7722-1.8811-1.7709-3.2676-2.8675-4.2798z" fill="url(#H)"/><path d="m8.86121 18.1426v11.8431h-4.27344c.20537-3.0691.60528-5.6128 1.40594-7.5633.77222-1.8811 1.77092-3.2676 2.8675-4.2798z" fill="url(#I)"/><path d="m8.86121 18.1426v11.8431h-4.27344c.20537-3.0691.60528-5.6128 1.40594-7.5633.77222-1.8811 1.77092-3.2676 2.8675-4.2798z" fill="url(#J)"/><path d="m8.86121 18.1426v11.8431h-4.27344c.20537-3.0691.60528-5.6128 1.40594-7.5633.77222-1.8811 1.77092-3.2676 2.8675-4.2798z" fill="url(#K)"/><path d="m8.86121 18.1426v11.8431h-4.27344c.20537-3.0691.60528-5.6128 1.40594-7.5633.77222-1.8811 1.77092-3.2676 2.8675-4.2798z" fill="url(#L)"/><path d="m15.5748 21.3158-2.9792-4.5957h6.9453l-2.9582 4.5942c-.2358.3662-.771.367-1.0079.0015z" fill="url(#M)"/><path d="m23.0826 15.9647c0 .2212-.2486.3155-.5552.3155s-.5551-.1189-.5551-.3155c0-.3066.2485-.5552.5551-.5552s.5552.2486.5552.5552z" fill="url(#O)"/><path d="m25.1177 15.9647c0 .2212-.2485.3155-.5551.3155s-.5552-.1189-.5552-.3155c0-.3066.2486-.5552.5552-.5552s.5551.2486.5551.5552z" fill="url(#P)"/><g filter="url(#c)"><path d="m24.6346 19.9191c-.75 1.0822-1.8552 1.9761-4.0078 1.051-1.8359-.7891-2.7109-3.269-2.7109-5.0469l8.2031.0235c.6524 0 .7515.4418.4922.8554-.6459 1.0303-1.5193 2.4058-1.9766 3.117z" fill="url(#Q)"/><path d="m24.6346 19.9191c-.75 1.0822-1.8552 1.9761-4.0078 1.051-1.8359-.7891-2.7109-3.269-2.7109-5.0469l8.2031.0235c.6524 0 .7515.4418.4922.8554-.6459 1.0303-1.5193 2.4058-1.9766 3.117z" fill="url(#R)"/><path d="m24.6346 19.9191c-.75 1.0822-1.8552 1.9761-4.0078 1.051-1.8359-.7891-2.7109-3.269-2.7109-5.0469l8.2031.0235c.6524 0 .7515.4418.4922.8554-.6459 1.0303-1.5193 2.4058-1.9766 3.117z" fill="url(#S)"/><path d="m24.6346 19.9191c-.75 1.0822-1.8552 1.9761-4.0078 1.051-1.8359-.7891-2.7109-3.269-2.7109-5.0469l8.2031.0235c.6524 0 .7515.4418.4922.8554-.6459 1.0303-1.5193 2.4058-1.9766 3.117z" fill="url(#T)"/></g><path d="m9.01948 15.9569c0 .2212.24854.3154.55514.3154s.55518-.1188.55518-.3154c0-.3066-.24858-.5552-.55518-.5552s-.55514.2486-.55514.5552z" fill="#5c396f"/><path d="m9.01948 15.9569c0 .2212.24854.3154.55514.3154s.55518-.1188.55518-.3154c0-.3066-.24858-.5552-.55518-.5552s-.55514.2486-.55514.5552z" fill="url(#U)"/><path d="m9.01948 15.9569c0 .2212.24854.3154.55514.3154s.55518-.1188.55518-.3154c0-.3066-.24858-.5552-.55518-.5552s-.55514.2486-.55514.5552z" fill="url(#V)"/><path d="m6.98432 15.9569c0 .2212.24855.3154.55514.3154.3066 0 .55514-.1188.55514-.3154 0-.3066-.24854-.5552-.55514-.5552-.30659 0-.55514.2486-.55514.5552z" fill="#64417a"/><path d="m6.98432 15.9569c0 .2212.24855.3154.55514.3154.3066 0 .55514-.1188.55514-.3154 0-.3066-.24854-.5552-.55514-.5552-.30659 0-.55514.2486-.55514.5552z" fill="url(#W)"/><g filter="url(#d)"><path d="m7.46716 19.9135c.75 1.0823 1.85523 1.9762 4.00784 1.051 1.8359-.789 2.7109-3.2689 2.7109-5.0468l-8.20311.0234c-.65235 0-.75147.4419-.49219.8555.64588 1.0303 1.51932 2.4057 1.97656 3.1169z" fill="url(#X)"/><path d="m7.46716 19.9135c.75 1.0823 1.85523 1.9762 4.00784 1.051 1.8359-.789 2.7109-3.2689 2.7109-5.0468l-8.20311.0234c-.65235 0-.75147.4419-.49219.8555.64588 1.0303 1.51932 2.4057 1.97656 3.1169z" fill="url(#Y)"/><path d="m7.46716 19.9135c.75 1.0823 1.85523 1.9762 4.00784 1.051 1.8359-.789 2.7109-3.2689 2.7109-5.0468l-8.20311.0234c-.65235 0-.75147.4419-.49219.8555.64588 1.0303 1.51932 2.4057 1.97656 3.1169z" fill="url(#Z)"/><path d="m7.46716 19.9135c.75 1.0823 1.85523 1.9762 4.00784 1.051 1.8359-.789 2.7109-3.2689 2.7109-5.0468l-8.20311.0234c-.65235 0-.75147.4419-.49219.8555.64588 1.0303 1.51932 2.4057 1.97656 3.1169z" fill="url(#aa)"/><path d="m7.46716 19.9135c.75 1.0823 1.85523 1.9762 4.00784 1.051 1.8359-.789 2.7109-3.2689 2.7109-5.0468l-8.20311.0234c-.65235 0-.75147.4419-.49219.8555.64588 1.0303 1.51932 2.4057 1.97656 3.1169z" fill="url(#ab)"/><path d="m7.46716 19.9135c.75 1.0823 1.85523 1.9762 4.00784 1.051 1.8359-.789 2.7109-3.2689 2.7109-5.0468l-8.20311.0234c-.65235 0-.75147.4419-.49219.8555.64588 1.0303 1.51932 2.4057 1.97656 3.1169z" fill="url(#ac)"/></g><g filter="url(#e)"><path d="m13.9711 15.0751c0-1.1583.9389-2.0972 2.0972-2.0972 1.1582 0 2.0971.9389 2.0971 2.0972v1.5478c0 1.3706-.9389 2.0972-2.0971 2.0972-1.1583 0-2.0972-.6953-2.0972-2.0972z" fill="url(#ad)"/></g><path d="m22.037 16.9584c0 .2923-.237.3672-.5293.3672s-.5293-.0749-.5293-.3672.237-.5293.5293-.5293.5293.237.5293.5293z" fill="url(#ae)"/><path d="m22.037 16.9584c0 .2923-.237.3672-.5293.3672s-.5293-.0749-.5293-.3672.237-.5293.5293-.5293.5293.237.5293.5293z" fill="url(#af)"/><path d="m24.1151 16.9584c0 .2109-.237.3008-.5293.3008s-.5293-.1133-.5293-.3008c0-.2923.237-.5293.5293-.5293s.5293.237.5293.5293z" fill="url(#ag)"/><path d="m7.98669 16.9506c0 .2109.23698.3007.5293.3007s.5293-.1132.5293-.3007c0-.2924-.23698-.5293-.5293-.5293s-.5293.2369-.5293.5293z" fill="url(#ah)"/><path d="m7.98669 16.9506c0 .2109.23698.3007.5293.3007s.5293-.1132.5293-.3007c0-.2924-.23698-.5293-.5293-.5293s-.5293.2369-.5293.5293z" fill="url(#aj)"/><path d="m10.0648 16.9506c0 .2923.237.3671.5293.3671s.5293-.0748.5293-.3671c0-.2924-.237-.5293-.5293-.5293s-.5293.2369-.5293.5293z" fill="url(#ak)"/><path d="m10.0648 16.9506c0 .2923.237.3671.5293.3671s.5293-.0748.5293-.3671c0-.2924-.237-.5293-.5293-.5293s-.5293.2369-.5293.5293z" fill="url(#al)"/><g filter="url(#f)"><circle cx="16.062" cy="23.995" fill="url(#am)" r="1.732"/><circle cx="16.062" cy="23.995" fill="url(#an)" r="1.732"/></g><ellipse cx="16.554" cy="23.508" fill="url(#ao)" rx=".552" ry=".695" transform="matrix(.85314407 -.52167538 .52167538 .85314407 -9.8327 12.088162)"/><circle cx="11.295" cy="10.624" fill="url(#ap)" r="1.671"/><g filter="url(#g)"><circle cx="11.296" cy="10.624" fill="url(#aq)" r=".996"/></g><g filter="url(#h)"><circle cx="20.818" cy="10.624" fill="url(#ar)" r="1.671"/><circle cx="20.818" cy="10.624" fill="url(#as)" r="1.671"/></g><g filter="url(#i)"><circle cx="20.818" cy="10.624" fill="#ffbf34" r=".996"/><circle cx="20.818" cy="10.624" fill="url(#at)" r=".996"/><circle cx="20.818" cy="10.624" fill="url(#au)" r=".996"/></g><path d="m10.9434 10.0104c-.0264-.31382-.0583-1.20945-.0583-1.43974 0-.26693.1074-.58723.3222-.74739l.161-.16015c.2685-.21354.3759-.53384.3759-.85415v-.85415c0-.26693.161-.48046.4295-.53385.6443-.16015 1.9865-.42707 3.9194-.42707 1.9328 0 3.2751.26692 3.9194.42707.2147.05339.4295.26692.4295.53385v.85415c0 .32031.1611.64061.3758.85415.5026.35216.4713.54585.4296.96092-.013.12858-.0537 1.19565-.0893 1.44116l-.2661 3.9622c-.1607 1.7713-1.5532 3.0058-3.2134 3.0058h-3.2134c-1.7139 0-3.0528-1.2345-3.2135-3.0058z" fill="url(#av)"/><path d="m10.9434 10.0104c-.0264-.31382-.0583-1.20945-.0583-1.43974 0-.26693.1074-.58723.3222-.74739l.161-.16015c.2685-.21354.3759-.53384.3759-.85415v-.85415c0-.26693.161-.48046.4295-.53385.6443-.16015 1.9865-.42707 3.9194-.42707 1.9328 0 3.2751.26692 3.9194.42707.2147.05339.4295.26692.4295.53385v.85415c0 .32031.1611.64061.3758.85415.5026.35216.4713.54585.4296.96092-.013.12858-.0537 1.19565-.0893 1.44116l-.2661 3.9622c-.1607 1.7713-1.5532 3.0058-3.2134 3.0058h-3.2134c-1.7139 0-3.0528-1.2345-3.2135-3.0058z" fill="url(#aw)"/><path d="m10.9434 10.0104c-.0264-.31382-.0583-1.20945-.0583-1.43974 0-.26693.1074-.58723.3222-.74739l.161-.16015c.2685-.21354.3759-.53384.3759-.85415v-.85415c0-.26693.161-.48046.4295-.53385.6443-.16015 1.9865-.42707 3.9194-.42707 1.9328 0 3.2751.26692 3.9194.42707.2147.05339.4295.26692.4295.53385v.85415c0 .32031.1611.64061.3758.85415.5026.35216.4713.54585.4296.96092-.013.12858-.0537 1.19565-.0893 1.44116l-.2661 3.9622c-.1607 1.7713-1.5532 3.0058-3.2134 3.0058h-3.2134c-1.7139 0-3.0528-1.2345-3.2135-3.0058z" fill="url(#ax)"/><path d="m10.9434 10.0104c-.0264-.31382-.0583-1.20945-.0583-1.43974 0-.26693.1074-.58723.3222-.74739l.161-.16015c.2685-.21354.3759-.53384.3759-.85415v-.85415c0-.26693.161-.48046.4295-.53385.6443-.16015 1.9865-.42707 3.9194-.42707 1.9328 0 3.2751.26692 3.9194.42707.2147.05339.4295.26692.4295.53385v.85415c0 .32031.1611.64061.3758.85415.5026.35216.4713.54585.4296.96092-.013.12858-.0537 1.19565-.0893 1.44116l-.2661 3.9622c-.1607 1.7713-1.5532 3.0058-3.2134 3.0058h-3.2134c-1.7139 0-3.0528-1.2345-3.2135-3.0058z" fill="url(#ay)"/><path d="m10.9434 10.0104c-.0264-.31382-.0583-1.20945-.0583-1.43974 0-.26693.1074-.58723.3222-.74739l.161-.16015c.2685-.21354.3759-.53384.3759-.85415v-.85415c0-.26693.161-.48046.4295-.53385.6443-.16015 1.9865-.42707 3.9194-.42707 1.9328 0 3.2751.26692 3.9194.42707.2147.05339.4295.26692.4295.53385v.85415c0 .32031.1611.64061.3758.85415.5026.35216.4713.54585.4296.96092-.013.12858-.0537 1.19565-.0893 1.44116l-.2661 3.9622c-.1607 1.7713-1.5532 3.0058-3.2134 3.0058h-3.2134c-1.7139 0-3.0528-1.2345-3.2135-3.0058z" fill="url(#az)"/><path d="m10.9434 10.0104c-.0264-.31382-.0583-1.20945-.0583-1.43974 0-.26693.1074-.58723.3222-.74739l.161-.16015c.2685-.21354.3759-.53384.3759-.85415v-.85415c0-.26693.161-.48046.4295-.53385.6443-.16015 1.9865-.42707 3.9194-.42707 1.9328 0 3.2751.26692 3.9194.42707.2147.05339.4295.26692.4295.53385v.85415c0 .32031.1611.64061.3758.85415.5026.35216.4713.54585.4296.96092-.013.12858-.0537 1.19565-.0893 1.44116l-.2661 3.9622c-.1607 1.7713-1.5532 3.0058-3.2134 3.0058h-3.2134c-1.7139 0-3.0528-1.2345-3.2135-3.0058z" fill="url(#aA)"/><g filter="url(#j)"><path d="m20.8713 4.13978.4295.21354c.7517.37369 1.1812 1.22784 1.0201 2.13538l-.5906 3.04291c-.0526.31427-.2604.52579-.5724.53359.0356-.50403.0689-1.31729.0818-1.44583.0436-.43351-.0247-.56107-.4221-.95624-.2147-.21354-.3758-.53385-.3758-.85415v-.85415c0-.26693-.2148-.48046-.4295-.53385-.6443-.16015-1.9866-.42707-3.9194-.42707-1.9329 0-3.2751.26692-3.9194.42707-.2685.05339-.4295.26692-.4295.53385v.85415c0 .3203-.1074.64061-.3759.85415l-.161.16015c-.2148.16016-.3232.49473-.3232.76165.0143.15572.0354 1.05229.0593 1.42547-.3-.02053-.5443-.22828-.5952-.53217l-.59058-3.04291c-.10738-.85416.32218-1.70831 1.07378-2.082 1.0147-.44479 1.3845-1.12004 2.2013-1.81507.5906-.53385 1.4497-.694 2.2013-.32031.5369.16016 1.1275.16016 1.6644 0 .8054-.26692 1.7181-.05338 2.3624.53385l.8053.80076c.2148.26693.4833.42708.8054.58723z" fill="#ffa91b"/><path d="m20.8713 4.13978.4295.21354c.7517.37369 1.1812 1.22784 1.0201 2.13538l-.5906 3.04291c-.0526.31427-.2604.52579-.5724.53359.0356-.50403.0689-1.31729.0818-1.44583.0436-.43351-.0247-.56107-.4221-.95624-.2147-.21354-.3758-.53385-.3758-.85415v-.85415c0-.26693-.2148-.48046-.4295-.53385-.6443-.16015-1.9866-.42707-3.9194-.42707-1.9329 0-3.2751.26692-3.9194.42707-.2685.05339-.4295.26692-.4295.53385v.85415c0 .3203-.1074.64061-.3759.85415l-.161.16015c-.2148.16016-.3232.49473-.3232.76165.0143.15572.0354 1.05229.0593 1.42547-.3-.02053-.5443-.22828-.5952-.53217l-.59058-3.04291c-.10738-.85416.32218-1.70831 1.07378-2.082 1.0147-.44479 1.3845-1.12004 2.2013-1.81507.5906-.53385 1.4497-.694 2.2013-.32031.5369.16016 1.1275.16016 1.6644 0 .8054-.26692 1.7181-.05338 2.3624.53385l.8053.80076c.2148.26693.4833.42708.8054.58723z" fill="url(#aB)"/><path d="m20.8713 4.13978.4295.21354c.7517.37369 1.1812 1.22784 1.0201 2.13538l-.5906 3.04291c-.0526.31427-.2604.52579-.5724.53359.0356-.50403.0689-1.31729.0818-1.44583.0436-.43351-.0247-.56107-.4221-.95624-.2147-.21354-.3758-.53385-.3758-.85415v-.85415c0-.26693-.2148-.48046-.4295-.53385-.6443-.16015-1.9866-.42707-3.9194-.42707-1.9329 0-3.2751.26692-3.9194.42707-.2685.05339-.4295.26692-.4295.53385v.85415c0 .3203-.1074.64061-.3759.85415l-.161.16015c-.2148.16016-.3232.49473-.3232.76165.0143.15572.0354 1.05229.0593 1.42547-.3-.02053-.5443-.22828-.5952-.53217l-.59058-3.04291c-.10738-.85416.32218-1.70831 1.07378-2.082 1.0147-.44479 1.3845-1.12004 2.2013-1.81507.5906-.53385 1.4497-.694 2.2013-.32031.5369.16016 1.1275.16016 1.6644 0 .8054-.26692 1.7181-.05338 2.3624.53385l.8053.80076c.2148.26693.4833.42708.8054.58723z" fill="url(#aC)"/><path d="m20.8713 4.13978.4295.21354c.7517.37369 1.1812 1.22784 1.0201 2.13538l-.5906 3.04291c-.0526.31427-.2604.52579-.5724.53359.0356-.50403.0689-1.31729.0818-1.44583.0436-.43351-.0247-.56107-.4221-.95624-.2147-.21354-.3758-.53385-.3758-.85415v-.85415c0-.26693-.2148-.48046-.4295-.53385-.6443-.16015-1.9866-.42707-3.9194-.42707-1.9329 0-3.2751.26692-3.9194.42707-.2685.05339-.4295.26692-.4295.53385v.85415c0 .3203-.1074.64061-.3759.85415l-.161.16015c-.2148.16016-.3232.49473-.3232.76165.0143.15572.0354 1.05229.0593 1.42547-.3-.02053-.5443-.22828-.5952-.53217l-.59058-3.04291c-.10738-.85416.32218-1.70831 1.07378-2.082 1.0147-.44479 1.3845-1.12004 2.2013-1.81507.5906-.53385 1.4497-.694 2.2013-.32031.5369.16016 1.1275.16016 1.6644 0 .8054-.26692 1.7181-.05338 2.3624.53385l.8053.80076c.2148.26693.4833.42708.8054.58723z" fill="url(#aD)"/><path d="m20.8713 4.13978.4295.21354c.7517.37369 1.1812 1.22784 1.0201 2.13538l-.5906 3.04291c-.0526.31427-.2604.52579-.5724.53359.0356-.50403.0689-1.31729.0818-1.44583.0436-.43351-.0247-.56107-.4221-.95624-.2147-.21354-.3758-.53385-.3758-.85415v-.85415c0-.26693-.2148-.48046-.4295-.53385-.6443-.16015-1.9866-.42707-3.9194-.42707-1.9329 0-3.2751.26692-3.9194.42707-.2685.05339-.4295.26692-.4295.53385v.85415c0 .3203-.1074.64061-.3759.85415l-.161.16015c-.2148.16016-.3232.49473-.3232.76165.0143.15572.0354 1.05229.0593 1.42547-.3-.02053-.5443-.22828-.5952-.53217l-.59058-3.04291c-.10738-.85416.32218-1.70831 1.07378-2.082 1.0147-.44479 1.3845-1.12004 2.2013-1.81507.5906-.53385 1.4497-.694 2.2013-.32031.5369.16016 1.1275.16016 1.6644 0 .8054-.26692 1.7181-.05338 2.3624.53385l.8053.80076c.2148.26693.4833.42708.8054.58723z" fill="url(#aE)"/><path d="m20.8713 4.13978.4295.21354c.7517.37369 1.1812 1.22784 1.0201 2.13538l-.5906 3.04291c-.0526.31427-.2604.52579-.5724.53359.0356-.50403.0689-1.31729.0818-1.44583.0436-.43351-.0247-.56107-.4221-.95624-.2147-.21354-.3758-.53385-.3758-.85415v-.85415c0-.26693-.2148-.48046-.4295-.53385-.6443-.16015-1.9866-.42707-3.9194-.42707-1.9329 0-3.2751.26692-3.9194.42707-.2685.05339-.4295.26692-.4295.53385v.85415c0 .3203-.1074.64061-.3759.85415l-.161.16015c-.2148.16016-.3232.49473-.3232.76165.0143.15572.0354 1.05229.0593 1.42547-.3-.02053-.5443-.22828-.5952-.53217l-.59058-3.04291c-.10738-.85416.32218-1.70831 1.07378-2.082 1.0147-.44479 1.3845-1.12004 2.2013-1.81507.5906-.53385 1.4497-.694 2.2013-.32031.5369.16016 1.1275.16016 1.6644 0 .8054-.26692 1.7181-.05338 2.3624.53385l.8053.80076c.2148.26693.4833.42708.8054.58723z" fill="url(#aF)"/><path d="m20.8713 4.13978.4295.21354c.7517.37369 1.1812 1.22784 1.0201 2.13538l-.5906 3.04291c-.0526.31427-.2604.52579-.5724.53359.0356-.50403.0689-1.31729.0818-1.44583.0436-.43351-.0247-.56107-.4221-.95624-.2147-.21354-.3758-.53385-.3758-.85415v-.85415c0-.26693-.2148-.48046-.4295-.53385-.6443-.16015-1.9866-.42707-3.9194-.42707-1.9329 0-3.2751.26692-3.9194.42707-.2685.05339-.4295.26692-.4295.53385v.85415c0 .3203-.1074.64061-.3759.85415l-.161.16015c-.2148.16016-.3232.49473-.3232.76165.0143.15572.0354 1.05229.0593 1.42547-.3-.02053-.5443-.22828-.5952-.53217l-.59058-3.04291c-.10738-.85416.32218-1.70831 1.07378-2.082 1.0147-.44479 1.3845-1.12004 2.2013-1.81507.5906-.53385 1.4497-.694 2.2013-.32031.5369.16016 1.1275.16016 1.6644 0 .8054-.26692 1.7181-.05338 2.3624.53385l.8053.80076c.2148.26693.4833.42708.8054.58723z" fill="url(#aG)"/></g><path d="m20.8713 4.13978.4295.21354c.7517.37369 1.1812 1.22784 1.0201 2.13538l-.5906 3.04291c-.0526.31427-.2604.52579-.5724.53359.0356-.50403.0689-1.31729.0818-1.44583.0436-.43351-.0247-.56107-.4221-.95624-.2147-.21354-.3758-.53385-.3758-.85415v-.85415c0-.26693-.2148-.48046-.4295-.53385-.6443-.16015-1.9866-.42707-3.9194-.42707-1.9329 0-3.2751.26692-3.9194.42707-.2685.05339-.4295.26692-.4295.53385v.85415c0 .3203-.1074.64061-.3759.85415l-.161.16015c-.2148.16016-.3232.49473-.3232.76165.0143.15572.0354 1.05229.0593 1.42547-.3-.02053-.5443-.22828-.5952-.53217l-.59058-3.04291c-.10738-.85416.32218-1.70831 1.07378-2.082 1.0147-.44479 1.3845-1.12004 2.2013-1.81507.5906-.53385 1.4497-.694 2.2013-.32031.5369.16016 1.1275.16016 1.6644 0 .8054-.26692 1.7181-.05338 2.3624.53385l.8053.80076c.2148.26693.4833.42708.8054.58723z" fill="url(#aH)"/><path d="m20.8713 4.13978.4295.21354c.7517.37369 1.1812 1.22784 1.0201 2.13538l-.5906 3.04291c-.0526.31427-.2604.52579-.5724.53359.0356-.50403.0689-1.31729.0818-1.44583.0436-.43351-.0247-.56107-.4221-.95624-.2147-.21354-.3758-.53385-.3758-.85415v-.85415c0-.26693-.2148-.48046-.4295-.53385-.6443-.16015-1.9866-.42707-3.9194-.42707-1.9329 0-3.2751.26692-3.9194.42707-.2685.05339-.4295.26692-.4295.53385v.85415c0 .3203-.1074.64061-.3759.85415l-.161.16015c-.2148.16016-.3232.49473-.3232.76165.0143.15572.0354 1.05229.0593 1.42547-.3-.02053-.5443-.22828-.5952-.53217l-.59058-3.04291c-.10738-.85416.32218-1.70831 1.07378-2.082 1.0147-.44479 1.3845-1.12004 2.2013-1.81507.5906-.53385 1.4497-.694 2.2013-.32031.5369.16016 1.1275.16016 1.6644 0 .8054-.26692 1.7181-.05338 2.3624.53385l.8053.80076c.2148.26693.4833.42708.8054.58723z" fill="url(#aI)"/><path d="m20.8713 4.13978.4295.21354c.7517.37369 1.1812 1.22784 1.0201 2.13538l-.5906 3.04291c-.0526.31427-.2604.52579-.5724.53359.0356-.50403.0689-1.31729.0818-1.44583.0436-.43351-.0247-.56107-.4221-.95624-.2147-.21354-.3758-.53385-.3758-.85415v-.85415c0-.26693-.2148-.48046-.4295-.53385-.6443-.16015-1.9866-.42707-3.9194-.42707-1.9329 0-3.2751.26692-3.9194.42707-.2685.05339-.4295.26692-.4295.53385v.85415c0 .3203-.1074.64061-.3759.85415l-.161.16015c-.2148.16016-.3232.49473-.3232.76165.0143.15572.0354 1.05229.0593 1.42547-.3-.02053-.5443-.22828-.5952-.53217l-.59058-3.04291c-.10738-.85416.32218-1.70831 1.07378-2.082 1.0147-.44479 1.3845-1.12004 2.2013-1.81507.5906-.53385 1.4497-.694 2.2013-.32031.5369.16016 1.1275.16016 1.6644 0 .8054-.26692 1.7181-.05338 2.3624.53385l.8053.80076c.2148.26693.4833.42708.8054.58723z" fill="url(#aJ)"/><g filter="url(#k)"><path d="m15.7723 10.5014-.8211 1.7012c-.1018.3499.1424.6999.4885.6999h.7379c.3461 0 .5904-.3553.4886-.6999l-.4987-1.7012c-.1069-.3769-.2833-.3769-.3952 0z" fill="#f1901c"/></g><g filter="url(#l)"><path d="m15.6652 10.3381-.5318 1.7012c-.1086.35.1519.6999.521.6999h.7869c.369 0 .6295-.3553.521-.6999l-.5319-1.7012c-.1139-.37683-.6458-.37683-.7652 0z" fill="#ffcc28"/><path d="m15.6652 10.3381-.5318 1.7012c-.1086.35.1519.6999.521.6999h.7869c.369 0 .6295-.3553.521-.6999l-.5319-1.7012c-.1139-.37683-.6458-.37683-.7652 0z" fill="url(#aK)"/><path d="m15.6652 10.3381-.5318 1.7012c-.1086.35.1519.6999.521.6999h.7869c.369 0 .6295-.3553.521-.6999l-.5319-1.7012c-.1139-.37683-.6458-.37683-.7652 0z" fill="url(#aL)"/><path d="m15.6652 10.3381-.5318 1.7012c-.1086.35.1519.6999.521.6999h.7869c.369 0 .6295-.3553.521-.6999l-.5319-1.7012c-.1139-.37683-.6458-.37683-.7652 0z" fill="url(#aM)"/></g><g filter="url(#m)"><path d="m9.89726 8.2022 3.23484 4.8056c.2268.3346.7088.3644.9751.0602l1.4491-1.6552c.0388-.0443.0672-.0964.0858-.1523.0801-.2398.2527-.5765.3877-.5765.1543 0 .3127.3367.3928.5765.0186.0559.047.108.0858.1523l1.4492 1.6552c.2663.3042.7482.2744.9751-.0602l3.2348-4.8056c.1748-.25792-.0562-.55912-.3536-.46605l-4.8209 1.51026c-.1236.03868-.2182.13534-.278.25023-.1777.34119-.4756.51396-.6852.51916-.2095-.0052-.5024-.17797-.6801-.51916-.0598-.11489-.1544-.21155-.278-.25023l-4.8209-1.51026c-.29739-.09307-.52842.20813-.35354.46605z" fill="#d57e27"/></g><g filter="url(#n)"><path d="m8.57629 6.87244 3.93141 5.84046c.2757.4067.8614.4428 1.185.0732l1.7613-2.0117c.0471-.0538.0816-.1172.1043-.185.0973-.2915.3071-.70077.4711-.70077.1875 0 .3801.40927.4774.70077.0226.0678.0572.1312.1043.185l1.7612 2.0117c.3236.3696.9094.3335 1.1851-.0732l3.9314-5.84046c.2125-.31346-.0683-.67952-.4297-.56641l-5.859 1.83548c-.1502.04701-.2653.16449-.338.30411-.2159.41466-.5779.62464-.8327.63093-.2546-.00629-.6106-.21627-.8265-.63093-.0727-.13962-.1877-.2571-.3379-.30411l-5.85902-1.83548c-.36144-.11311-.64222.25295-.42969.56641z" fill="url(#aN)"/><path d="m8.57629 6.87244 3.93141 5.84046c.2757.4067.8614.4428 1.185.0732l1.7613-2.0117c.0471-.0538.0816-.1172.1043-.185.0973-.2915.3071-.70077.4711-.70077.1875 0 .3801.40927.4774.70077.0226.0678.0572.1312.1043.185l1.7612 2.0117c.3236.3696.9094.3335 1.1851-.0732l3.9314-5.84046c.2125-.31346-.0683-.67952-.4297-.56641l-5.859 1.83548c-.1502.04701-.2653.16449-.338.30411-.2159.41466-.5779.62464-.8327.63093-.2546-.00629-.6106-.21627-.8265-.63093-.0727-.13962-.1877-.2571-.3379-.30411l-5.85902-1.83548c-.36144-.11311-.64222.25295-.42969.56641z" fill="url(#aO)"/><path d="m8.57629 6.87244 3.93141 5.84046c.2757.4067.8614.4428 1.185.0732l1.7613-2.0117c.0471-.0538.0816-.1172.1043-.185.0973-.2915.3071-.70077.4711-.70077.1875 0 .3801.40927.4774.70077.0226.0678.0572.1312.1043.185l1.7612 2.0117c.3236.3696.9094.3335 1.1851-.0732l3.9314-5.84046c.2125-.31346-.0683-.67952-.4297-.56641l-5.859 1.83548c-.1502.04701-.2653.16449-.338.30411-.2159.41466-.5779.62464-.8327.63093-.2546-.00629-.6106-.21627-.8265-.63093-.0727-.13962-.1877-.2571-.3379-.30411l-5.85902-1.83548c-.36144-.11311-.64222.25295-.42969.56641z" fill="url(#aP)"/></g><g filter="url(#o)"><path d="m19.0635 8.77872-1.6076.59273c-.1542.05683-.2354.22915-.1466.36737.2199.34228.6562.69208 1.345.48908.6505-.1917.7917-.81426.7547-1.25651-.014-.16703-.1883-.25066-.3455-.19267z" fill="url(#aR)"/></g><g filter="url(#p)"><path d="m13.0767 8.77872 1.6076.59273c.1541.05683.2353.22915.1465.36737-.2199.34228-.6561.69208-1.345.48908-.6505-.1917-.7917-.81426-.7547-1.25651.014-.16703.1883-.25066.3456-.19267z" fill="url(#aS)"/></g><path d="m17.7508 12.6482c-.6151.8069-1.3688.8932-1.8726.9245-.0852.0054-.1211.1043-.0516.1539.3774.2691.8572.2924 1.3428.0899.5097-.2126.7322-.7028.7465-1.1228.0031-.0916-.1095-.1184-.1651-.0455z" fill="#88004d"/></svg>