<svg fill="none" height="32" viewBox="0 0 32 32" width="32" xmlns="http://www.w3.org/2000/svg" xmlns:xlink="http://www.w3.org/1999/xlink"><filter id="a" color-interpolation-filters="sRGB" filterUnits="userSpaceOnUse" height="11.587" width="10.394" x="16.157" y="11.091"><feFlood flood-opacity="0" result="BackgroundImageFix"/><feBlend in="SourceGraphic" in2="BackgroundImageFix" mode="normal" result="shape"/><feColorMatrix in="SourceAlpha" result="hardAlpha" type="matrix" values="0 0 0 0 0 0 0 0 0 0 0 0 0 0 0 0 0 0 127 0"/><feOffset dx=".75" dy="-.05"/><feGaussianBlur stdDeviation="1"/><feComposite in2="hardAlpha" k2="-1" k3="1" operator="arithmetic"/><feColorMatrix type="matrix" values="0 0 0 0 0.392157 0 0 0 0 0.364706 0 0 0 0 0.419608 0 0 0 1 0"/><feBlend in2="shape" mode="normal" result="effect1_innerShadow_20020_4421"/></filter><filter id="b" color-interpolation-filters="sRGB" filterUnits="userSpaceOnUse" height="8.282" width="10.969" x="12.932" y="4.944"><feFlood flood-opacity="0" result="BackgroundImageFix"/><feBlend in="SourceGraphic" in2="BackgroundImageFix" mode="normal" result="shape"/><feGaussianBlur result="effect1_foregroundBlur_20020_4421" stdDeviation=".5"/></filter><filter id="c" color-interpolation-filters="sRGB" filterUnits="userSpaceOnUse" height="5.39" width="5.39" x="8.988" y="3.703"><feFlood flood-opacity="0" result="BackgroundImageFix"/><feBlend in="SourceGraphic" in2="BackgroundImageFix" mode="normal" result="shape"/><feGaussianBlur result="effect1_foregroundBlur_20020_4421" stdDeviation=".125"/></filter><filter id="d" color-interpolation-filters="sRGB" filterUnits="userSpaceOnUse" height="4.458" width="4.458" x="9.455" y="4.17"><feFlood flood-opacity="0" result="BackgroundImageFix"/><feBlend in="SourceGraphic" in2="BackgroundImageFix" mode="normal" result="shape"/><feGaussianBlur result="effect1_foregroundBlur_20020_4421" stdDeviation=".05"/></filter><filter id="e" color-interpolation-filters="sRGB" filterUnits="userSpaceOnUse" height="4.549" width="4.549" x="20.667" y="11.108"><feFlood flood-opacity="0" result="BackgroundImageFix"/><feBlend in="SourceGraphic" in2="BackgroundImageFix" mode="normal" result="shape"/><feGaussianBlur result="effect1_foregroundBlur_20020_4421" stdDeviation=".125"/></filter><filter id="f" color-interpolation-filters="sRGB" filterUnits="userSpaceOnUse" height="3.7" width="3.7" x="21.091" y="11.533"><feFlood flood-opacity="0" result="BackgroundImageFix"/><feBlend in="SourceGraphic" in2="BackgroundImageFix" mode="normal" result="shape"/><feGaussianBlur result="effect1_foregroundBlur_20020_4421" stdDeviation=".05"/></filter><filter id="g" color-interpolation-filters="sRGB" filterUnits="userSpaceOnUse" height="3.529" width="3.529" x="9.919" y="4.634"><feFlood flood-opacity="0" result="BackgroundImageFix"/><feBlend in="SourceGraphic" in2="BackgroundImageFix" mode="normal" result="shape"/><feGaussianBlur result="effect1_foregroundBlur_20020_4421" stdDeviation=".125"/></filter><filter id="h" color-interpolation-filters="sRGB" filterUnits="userSpaceOnUse" height="2.522" width="2.522" x="21.68" y="12.122"><feFlood flood-opacity="0" result="BackgroundImageFix"/><feBlend in="SourceGraphic" in2="BackgroundImageFix" mode="normal" result="shape"/><feGaussianBlur result="effect1_foregroundBlur_20020_4421" stdDeviation=".125"/></filter><filter id="i" color-interpolation-filters="sRGB" filterUnits="userSpaceOnUse" height="2.511" width="2.511" x="14.931" y="23.918"><feFlood flood-opacity="0" result="BackgroundImageFix"/><feBlend in="SourceGraphic" in2="BackgroundImageFix" mode="normal" result="shape"/><feGaussianBlur result="effect1_foregroundBlur_20020_4421" stdDeviation=".125"/></filter><filter id="j" color-interpolation-filters="sRGB" filterUnits="userSpaceOnUse" height="1.744" width="1.744" x="15.273" y="24.343"><feFlood flood-opacity="0" result="BackgroundImageFix"/><feBlend in="SourceGraphic" in2="BackgroundImageFix" mode="normal" result="shape"/><feGaussianBlur result="effect1_foregroundBlur_20020_4421" stdDeviation=".025"/></filter><filter id="k" color-interpolation-filters="sRGB" filterUnits="userSpaceOnUse" height="1.192" width="1.192" x="15.548" y="24.619"><feFlood flood-opacity="0" result="BackgroundImageFix"/><feBlend in="SourceGraphic" in2="BackgroundImageFix" mode="normal" result="shape"/><feGaussianBlur result="effect1_foregroundBlur_20020_4421" stdDeviation=".05"/></filter><radialGradient id="l" cx="0" cy="0" gradientTransform="matrix(-2.44285116 -3.02799929 5.03877873 -4.06505593 19.1042 23.5718)" gradientUnits="userSpaceOnUse" r="1"><stop offset=".253" stop-color="#cdc9d3"/><stop offset="1" stop-color="#89878c"/></radialGradient><linearGradient id="m" gradientUnits="userSpaceOnUse" x1="21.236" x2="18.448" y1="20.248" y2="22.795"><stop offset="0" stop-color="#a397af"/><stop offset="1" stop-color="#a397af" stop-opacity="0"/></linearGradient><linearGradient id="n" gradientUnits="userSpaceOnUse" x1="17.219" x2="18.583" y1="22.603" y2="22.591"><stop offset="0" stop-color="#8e8d90"/><stop offset="1" stop-color="#8e8d90" stop-opacity="0"/></linearGradient><radialGradient id="o" cx="0" cy="0" gradientTransform="matrix(-5.9814066 7.10843498 -6.35566545 -5.3479872 22.1379 17.3642)" gradientUnits="userSpaceOnUse" r="1"><stop offset=".18" stop-color="#b0abb7"/><stop offset="1" stop-color="#776f80"/></radialGradient><radialGradient id="p" cx="0" cy="0" gradientTransform="matrix(-4.54035369 -1.21828293 .84657779 -3.1550656 20.9786 13.8835)" gradientUnits="userSpaceOnUse" r="1"><stop offset=".2" stop-color="#635d6a"/><stop offset="1" stop-color="#635d6a" stop-opacity="0"/></radialGradient><linearGradient id="q" gradientUnits="userSpaceOnUse" x1="20.629" x2="16.129" y1="9.262" y2="15.66"><stop offset="0" stop-color="#bfbebf"/><stop offset="1" stop-color="#7f7589"/></linearGradient><radialGradient id="r" cx="0" cy="0" gradientTransform="matrix(1.75000082 -.43750204 .34007509 1.36029467 24.7539 12.4414)" gradientUnits="userSpaceOnUse" r="1"><stop offset="0" stop-color="#d0cfd1"/><stop offset="1" stop-color="#d0cfd1" stop-opacity="0"/></radialGradient><radialGradient id="s" cx="0" cy="0" gradientTransform="matrix(9.23065306 .09184738 -.08778569 8.82245327 5.25316 5.12436)" gradientUnits="userSpaceOnUse" r="1"><stop offset="0" stop-color="#726e77"/><stop offset="1" stop-color="#726e77" stop-opacity="0"/></radialGradient><linearGradient id="t" gradientUnits="userSpaceOnUse" x1="12.469" x2="14.265" y1="14.578" y2="9.67"><stop offset=".111" stop-color="#7b6591"/><stop offset="1" stop-color="#7b6591" stop-opacity="0"/></linearGradient><linearGradient id="u" gradientUnits="userSpaceOnUse" x1="25.151" x2="13.918" y1="12.767" y2="3.792"><stop offset="0" stop-color="#cfced1" stop-opacity="0"/><stop offset=".554" stop-color="#cfced1"/><stop offset="1" stop-color="#cfced1" stop-opacity="0"/></linearGradient><linearGradient id="v" gradientUnits="userSpaceOnUse" x1="14.129" x2="8.904" y1="5.997" y2="6.525"><stop offset="0" stop-color="#a3a1a5"/><stop offset="1" stop-color="#6f6b73"/></linearGradient><linearGradient id="w"><stop offset="0" stop-color="#75707a"/><stop offset="1" stop-color="#75707a" stop-opacity="0"/></linearGradient><linearGradient id="x" gradientUnits="userSpaceOnUse" x1="9.773" x2="13.67" xlink:href="#w" y1="7.449" y2="5.215"/><linearGradient id="y" gradientUnits="userSpaceOnUse" x1="24.748" x2="21.355" y1="12.6" y2="15.407"><stop offset="0" stop-color="#b3b2b4"/><stop offset="1" stop-color="#736c79"/></linearGradient><linearGradient id="z" gradientUnits="userSpaceOnUse" x1="21.371" x2="24.574" xlink:href="#w" y1="14.246" y2="12.41"/><radialGradient id="A" cx="0" cy="0" gradientTransform="matrix(-3.83762575 2.33037835 -1.51408649 -2.49337078 13.4861 5.41908)" gradientUnits="userSpaceOnUse" r="1"><stop offset="0" stop-color="#e5e4e6"/><stop offset="1" stop-color="#8e8894"/></radialGradient><linearGradient id="B"><stop offset=".661" stop-color="#907ea2" stop-opacity="0"/><stop offset="1" stop-color="#907ea2"/></linearGradient><radialGradient id="C" cx="0" cy="0" gradientTransform="matrix(0 4.9785 -4.47883 0 11.6836 4.22741)" gradientUnits="userSpaceOnUse" r="1" xlink:href="#B"/><linearGradient id="D" gradientUnits="userSpaceOnUse" x1="13.198" x2="10.169" y1="5.389" y2="6.988"><stop offset="0" stop-color="#c1bec5"/><stop offset="1" stop-color="#b8b4bc"/></linearGradient><radialGradient id="E" cx="0" cy="0" gradientTransform="matrix(-3.15259583 1.91439748 -1.24381622 -2.0482945 24.4221 12.5783)" gradientUnits="userSpaceOnUse" r="1"><stop offset="0" stop-color="#e5e4e6"/><stop offset=".938" stop-color="#8e8994"/><stop offset="1" stop-color="#908998"/></radialGradient><radialGradient id="F" cx="0" cy="0" gradientTransform="matrix(0 4.08982 -3.67935 0 22.9414 11.5993)" gradientUnits="userSpaceOnUse" r="1" xlink:href="#B"/><linearGradient id="G" gradientUnits="userSpaceOnUse" x1="23.953" x2="21.93" y1="12.709" y2="13.777"><stop offset="0" stop-color="#c1bdc6"/><stop offset="1" stop-color="#b4aeba"/></linearGradient><radialGradient id="H" cx="0" cy="0" gradientTransform="matrix(2.53125165 2.46874815 -1.88173962 1.9293813 17.7852 26.2227)" gradientUnits="userSpaceOnUse" r="1"><stop offset="0" stop-color="#c5c2c9"/><stop offset="1" stop-color="#a6a0ad"/></radialGradient><linearGradient id="I" gradientUnits="userSpaceOnUse" x1="14.195" x2="15.41" y1="28.879" y2="28.879"><stop offset="0" stop-color="#70667b"/><stop offset="1" stop-color="#70667b" stop-opacity="0"/></linearGradient><linearGradient id="J" gradientUnits="userSpaceOnUse" x1="19.129" x2="19.129" y1="30.191" y2="28.91"><stop offset="0" stop-color="#83669c"/><stop offset="1" stop-color="#83669c" stop-opacity="0"/></linearGradient><radialGradient id="K" cx="0" cy="0" gradientTransform="matrix(.93359634 3.46875004 -3.48383329 .93765592 14.1953 26.082)" gradientUnits="userSpaceOnUse" r="1"><stop offset=".205" stop-color="#70667b"/><stop offset="1" stop-color="#70667b" stop-opacity="0"/></radialGradient><radialGradient id="L" cx="0" cy="0" gradientTransform="matrix(-.6875 0 0 -.625 23.5195 28.5352)" gradientUnits="userSpaceOnUse" r="1"><stop offset="0" stop-color="#c0bec4"/><stop offset="1" stop-color="#c0bec4" stop-opacity="0"/></radialGradient><radialGradient id="M" cx="0" cy="0" gradientTransform="matrix(-2.65623514 1.87501778 -1.71032117 -2.42291846 17.4727 24.6289)" gradientUnits="userSpaceOnUse" r="1"><stop offset="0" stop-color="#cbc8cd"/><stop offset="1" stop-color="#8d8893"/></radialGradient><radialGradient id="N" cx="0" cy="0" gradientTransform="matrix(0 3.07812 -3.07812 0 16.1445 24.4727)" gradientUnits="userSpaceOnUse" r="1"><stop offset=".603" stop-color="#836a9a" stop-opacity="0"/><stop offset="1" stop-color="#836a9a"/></radialGradient><radialGradient id="O" cx="0" cy="0" gradientTransform="matrix(-4.625 0 0 -4.12032 18.6445 25.2148)" gradientUnits="userSpaceOnUse" r="1"><stop offset=".838" stop-color="#7d7982" stop-opacity="0"/><stop offset="1" stop-color="#7d7982"/></radialGradient><linearGradient id="P" gradientUnits="userSpaceOnUse" x1="16.716" x2="15.545" y1="24.877" y2="25.929"><stop offset="0" stop-color="#a5a0a9"/><stop offset="1" stop-color="#88818f"/></linearGradient><linearGradient id="Q" gradientUnits="userSpaceOnUse" x1="15.559" x2="16.824" y1="25.645" y2="24.285"><stop offset="0" stop-color="#797280"/><stop offset="1" stop-color="#797280" stop-opacity="0"/></linearGradient><radialGradient id="R" cx="0" cy="0" gradientTransform="matrix(-1.16405869 1.14843886 -1.12489728 -1.14019692 16.668 24.7852)" gradientUnits="userSpaceOnUse" r="1"><stop offset=".073" stop-color="#d8d5dc"/><stop offset="1" stop-color="#9a90a5"/></radialGradient><linearGradient id="S" gradientUnits="userSpaceOnUse" x1="16.539" x2="15.805" y1="24.828" y2="25.656"><stop offset="0" stop-color="#c3bfc9"/><stop offset="1" stop-color="#b1a9b9"/></linearGradient><path d="m17.2064 21.1141h2.12413v3.57031h-2.12413z" fill="url(#l)" transform="matrix(.8660254 .5 -.5 .8660254 12.86227 -5.774447)"/><path d="m17.2064 21.1141h2.12413v3.57031h-2.12413z" fill="url(#m)" transform="matrix(.8660254 .5 -.5 .8660254 12.86227 -5.774447)"/><path d="m17.2064 21.1141h2.12413v3.57031h-2.12413z" fill="url(#n)" transform="matrix(.8660254 .5 -.5 .8660254 12.86227 -5.774447)"/><g filter="url(#a)"><path d="m19.3945 12.7695c.7616-1.3191 2.3415-1.8863 3.7661-1.5184.586.1513 1.0085.6288 1.3012 1.1584l1.339 2.4225-3.5766 6.2196c-.8979 1.5551-2.8864 2.0879-4.4415 1.1901-1.5551-.8979-2.0879-2.8864-1.1901-4.4415z" fill="url(#o)"/><path d="m19.3945 12.7695c.7616-1.3191 2.3415-1.8863 3.7661-1.5184.586.1513 1.0085.6288 1.3012 1.1584l1.339 2.4225-3.5766 6.2196c-.8979 1.5551-2.8864 2.0879-4.4415 1.1901-1.5551-.8979-2.0879-2.8864-1.1901-4.4415z" fill="url(#p)"/></g><path d="m12.7383 2.15234c-.3666-.0994-.7523-.15234-1.1504-.15234-2.42164 0-4.38478 1.96313-4.38478 4.38477 0 1.20769.48829 2.30135 1.27814 3.09434 1.0578 1.13809 3.85394 2.63689 4.26484 2.84509 1.0617.5381 2.0286.4671 2.7118.4169.0508-.0038.1-.0074.1476-.0106.0424-.0029.0843-.006.1256-.009.4906-.0358.9018-.0659 1.3197.2512.1275.0967.5171.3841 1.023.7572.9325.6879 2.2604 1.6673 3.0707 2.2818.7956.6033 2.4219.7735 3.625-.039l.0009-.0063c.7977-.5174 1.3349-1.4022 1.3721-2.4147.0624-1.7035-.8553-2.5726-1.498-3.0322-1.1314-.80901-6.4739-4.81768-8.9062-6.67184-.6146-.46875-1.9258-1.42969-3-1.69532z" fill="url(#q)"/><path d="m12.7383 2.15234c-.3666-.0994-.7523-.15234-1.1504-.15234-2.42164 0-4.38478 1.96313-4.38478 4.38477 0 1.20769.48829 2.30135 1.27814 3.09434 1.0578 1.13809 3.85394 2.63689 4.26484 2.84509 1.0617.5381 2.0286.4671 2.7118.4169.0508-.0038.1-.0074.1476-.0106.0424-.0029.0843-.006.1256-.009.4906-.0358.9018-.0659 1.3197.2512.1275.0967.5171.3841 1.023.7572.9325.6879 2.2604 1.6673 3.0707 2.2818.7956.6033 2.4219.7735 3.625-.039l.0009-.0063c.7977-.5174 1.3349-1.4022 1.3721-2.4147.0624-1.7035-.8553-2.5726-1.498-3.0322-1.1314-.80901-6.4739-4.81768-8.9062-6.67184-.6146-.46875-1.9258-1.42969-3-1.69532z" fill="url(#r)"/><path d="m12.7383 2.15234c-.3666-.0994-.7523-.15234-1.1504-.15234-2.42164 0-4.38478 1.96313-4.38478 4.38477 0 1.20769.48829 2.30135 1.27814 3.09434 1.0578 1.13809 3.85394 2.63689 4.26484 2.84509 1.0617.5381 2.0286.4671 2.7118.4169.0508-.0038.1-.0074.1476-.0106.0424-.0029.0843-.006.1256-.009.4906-.0358.9018-.0659 1.3197.2512.1275.0967.5171.3841 1.023.7572.9325.6879 2.2604 1.6673 3.0707 2.2818.7956.6033 2.4219.7735 3.625-.039l.0009-.0063c.7977-.5174 1.3349-1.4022 1.3721-2.4147.0624-1.7035-.8553-2.5726-1.498-3.0322-1.1314-.80901-6.4739-4.81768-8.9062-6.67184-.6146-.46875-1.9258-1.42969-3-1.69532z" fill="url(#s)"/><path d="m12.7383 2.15234c-.3666-.0994-.7523-.15234-1.1504-.15234-2.42164 0-4.38478 1.96313-4.38478 4.38477 0 1.20769.48829 2.30135 1.27814 3.09434 1.0578 1.13809 3.85394 2.63689 4.26484 2.84509 1.0617.5381 2.0286.4671 2.7118.4169.0508-.0038.1-.0074.1476-.0106.0424-.0029.0843-.006.1256-.009.4906-.0358.9018-.0659 1.3197.2512.1275.0967.5171.3841 1.023.7572.9325.6879 2.2604 1.6673 3.0707 2.2818.7956.6033 2.4219.7735 3.625-.039l.0009-.0063c.7977-.5174 1.3349-1.4022 1.3721-2.4147.0624-1.7035-.8553-2.5726-1.498-3.0322-1.1314-.80901-6.4739-4.81768-8.9062-6.67184-.6146-.46875-1.9258-1.42969-3-1.69532z" fill="url(#t)"/><g filter="url(#b)"><path d="m22.6297 11.0396-6.7151-4.85847c-.5631-.40737-1.3503-.27716-1.7522.28982-.3985.56217-.2667 1.3408.2945 1.74059l2.0146 1.4351c.342.24362.7845.29633 1.1741.13986.3903-.15675.8337-.10356 1.1758.14108l3.0433 2.17572c.2251.1609.527.1631.7544.0054.3711-.2575.3765-.8044.0106-1.0691z" fill="url(#u)"/></g><g filter="url(#c)"><circle cx="11.684" cy="6.398" fill="url(#v)" r="2.445"/></g><g filter="url(#d)"><circle cx="11.684" cy="6.398" fill="url(#x)" r="2.129"/></g><g filter="url(#e)"><circle cx="22.941" cy="13.383" fill="url(#y)" r="2.025"/></g><g filter="url(#f)"><circle cx="22.941" cy="13.383" fill="url(#z)" r="1.75"/></g><circle cx="11.684" cy="6.398" fill="url(#A)" r="2.035"/><circle cx="11.684" cy="6.398" fill="url(#C)" r="2.035"/><g filter="url(#g)"><circle cx="11.684" cy="6.398" fill="url(#D)" r="1.514"/></g><circle cx="22.941" cy="13.383" fill="url(#E)" r="1.672"/><circle cx="22.941" cy="13.383" fill="url(#F)" r="1.672"/><g filter="url(#h)"><circle cx="22.941" cy="13.383" fill="url(#G)" r="1.011"/></g><path d="m14.1953 24.9727 3.2891-1.1954 4.0731 3.683c.2757.2493.6342.3874 1.006.3874h.4599c.5739 0 1.0391.4652 1.0391 1.039 0 .5739-.4652 1.0391-1.0391 1.0391h-7.5281c-.718 0-1.3-.582-1.3-1.3z" fill="url(#H)"/><path d="m14.1953 24.9727 3.2891-1.1954 4.0731 3.683c.2757.2493.6342.3874 1.006.3874h.4599c.5739 0 1.0391.4652 1.0391 1.039 0 .5739-.4652 1.0391-1.0391 1.0391h-7.5281c-.718 0-1.3-.582-1.3-1.3z" fill="url(#I)"/><path d="m14.1953 24.9727 3.2891-1.1954 4.0731 3.683c.2757.2493.6342.3874 1.006.3874h.4599c.5739 0 1.0391.4652 1.0391 1.039 0 .5739-.4652 1.0391-1.0391 1.0391h-7.5281c-.718 0-1.3-.582-1.3-1.3z" fill="url(#J)"/><path d="m14.1953 24.9727 3.2891-1.1954 4.0731 3.683c.2757.2493.6342.3874 1.006.3874h.4599c.5739 0 1.0391.4652 1.0391 1.039 0 .5739-.4652 1.0391-1.0391 1.0391h-7.5281c-.718 0-1.3-.582-1.3-1.3z" fill="url(#K)"/><path d="m14.1953 24.9727 3.2891-1.1954 4.0731 3.683c.2757.2493.6342.3874 1.006.3874h.4599c.5739 0 1.0391.4652 1.0391 1.039 0 .5739-.4652 1.0391-1.0391 1.0391h-7.5281c-.718 0-1.3-.582-1.3-1.3z" fill="url(#L)"/><circle cx="16.145" cy="25.215" fill="url(#M)" r="2"/><circle cx="16.145" cy="25.215" fill="url(#N)" r="2"/><circle cx="16.145" cy="25.215" fill="url(#O)" r="2"/><g filter="url(#i)"><circle cx="16.186" cy="25.173" r=".88" stroke="url(#P)" stroke-width=".25"/></g><g filter="url(#j)"><circle cx="16.145" cy="25.215" r=".809" stroke="url(#Q)" stroke-width=".025"/></g><circle cx="16.145" cy="25.215" fill="url(#R)" r=".797"/><g filter="url(#k)"><circle cx="16.145" cy="25.215" fill="url(#S)" r=".496"/></g></svg>