<svg fill="none" height="32" viewBox="0 0 32 32" width="32" xmlns="http://www.w3.org/2000/svg" xmlns:xlink="http://www.w3.org/1999/xlink"><filter id="a" color-interpolation-filters="sRGB" filterUnits="userSpaceOnUse" height="25.042" width="21.997" x="5.752" y="4.802"><feFlood flood-opacity="0" result="BackgroundImageFix"/><feBlend in="SourceGraphic" in2="BackgroundImageFix" mode="normal" result="shape"/><feColorMatrix in="SourceAlpha" result="hardAlpha" type="matrix" values="0 0 0 0 0 0 0 0 0 0 0 0 0 0 0 0 0 0 127 0"/><feOffset dx="1.5" dy="-1"/><feGaussianBlur stdDeviation="1.5"/><feComposite in2="hardAlpha" k2="-1" k3="1" operator="arithmetic"/><feColorMatrix type="matrix" values="0 0 0 0 0.807843 0 0 0 0 0.607843 0 0 0 0 0.47451 0 0 0 1 0"/><feBlend in2="shape" mode="normal" result="effect1_innerShadow_20020_4477"/></filter><filter id="b" color-interpolation-filters="sRGB" filterUnits="userSpaceOnUse" height="3.384" width="3.156" x="19.015" y="24.903"><feFlood flood-opacity="0" result="BackgroundImageFix"/><feBlend in="SourceGraphic" in2="BackgroundImageFix" mode="normal" result="shape"/><feGaussianBlur result="effect1_foregroundBlur_20020_4477" stdDeviation=".25"/></filter><filter id="c" color-interpolation-filters="sRGB" filterUnits="userSpaceOnUse" height="2.373" width="5.419" x="20.847" y="27.287"><feFlood flood-opacity="0" result="BackgroundImageFix"/><feBlend in="SourceGraphic" in2="BackgroundImageFix" mode="normal" result="shape"/><feGaussianBlur result="effect1_foregroundBlur_20020_4477" stdDeviation=".25"/></filter><filter id="d" color-interpolation-filters="sRGB" filterUnits="userSpaceOnUse" height="8.838" width="16.049" x="9.385" y="6.575"><feFlood flood-opacity="0" result="BackgroundImageFix"/><feBlend in="SourceGraphic" in2="BackgroundImageFix" mode="normal" result="shape"/><feGaussianBlur result="effect1_foregroundBlur_20020_4477" stdDeviation=".5"/></filter><filter id="e" color-interpolation-filters="sRGB" filterUnits="userSpaceOnUse" height="11.438" width="6.875" x="19.186" y="11.875"><feFlood flood-opacity="0" result="BackgroundImageFix"/><feBlend in="SourceGraphic" in2="BackgroundImageFix" mode="normal" result="shape"/><feGaussianBlur result="effect1_foregroundBlur_20020_4477" stdDeviation=".5"/></filter><filter id="f" color-interpolation-filters="sRGB" filterUnits="userSpaceOnUse" height="5.414" width="3.092" x="5.761" y="8.373"><feFlood flood-opacity="0" result="BackgroundImageFix"/><feBlend in="SourceGraphic" in2="BackgroundImageFix" mode="normal" result="shape"/><feGaussianBlur result="effect1_foregroundBlur_20020_4477" stdDeviation=".25"/></filter><linearGradient id="g" gradientUnits="userSpaceOnUse" x1="15.592" x2="21.34" y1="7.156" y2="32.061"><stop offset="0" stop-color="#f7c69b"/><stop offset="1" stop-color="#ebb894"/></linearGradient><radialGradient id="h" cx="0" cy="0" gradientTransform="matrix(-1.45311866 1.26562779 -2.44513816 -2.80736243 22.6769 26.2656)" gradientUnits="userSpaceOnUse" r="1"><stop offset="0" stop-color="#f3c39b"/><stop offset="1" stop-color="#f3c39b" stop-opacity="0"/></radialGradient><linearGradient id="i" gradientUnits="userSpaceOnUse" x1="20.842" x2="20.842" y1="30.344" y2="28.625"><stop offset="0" stop-color="#bf758c"/><stop offset="1" stop-color="#bf758c" stop-opacity="0"/></linearGradient><radialGradient id="j" cx="0" cy="0" gradientTransform="matrix(2.20428021 -.82031192 .36311821 .97574383 19.2394 16.5)" gradientUnits="userSpaceOnUse" r="1"><stop offset="0" stop-color="#bb795e"/><stop offset=".847" stop-color="#bb795e" stop-opacity="0"/></radialGradient><radialGradient id="k" cx="0" cy="0" gradientTransform="matrix(2.20428021 -.82031192 .12032755 .32333511 19.2394 16.5)" gradientUnits="userSpaceOnUse" r="1"><stop offset="0" stop-color="#daa084"/><stop offset=".847" stop-color="#daa084" stop-opacity="0"/></radialGradient><radialGradient id="l" cx="0" cy="0" gradientTransform="matrix(.97869638 -5.10624422 12.15495101 2.32969793 11.893 15.3598)" gradientUnits="userSpaceOnUse" r="1"><stop offset="0" stop-color="#b77287"/><stop offset="1" stop-color="#b77287" stop-opacity="0"/></radialGradient><radialGradient id="m" cx="0" cy="0" gradientTransform="matrix(2.76443941 -8.32068325 3.06379221 1.01790534 17.4911 24.1226)" gradientUnits="userSpaceOnUse" r="1"><stop offset=".094" stop-color="#d49789"/><stop offset="1" stop-color="#d49789" stop-opacity="0"/></radialGradient><linearGradient id="n" gradientUnits="userSpaceOnUse" x1="19.94" x2="22.426" y1="27.186" y2="26.088"><stop offset="0" stop-color="#ffcdad"/><stop offset="1" stop-color="#ffcdad" stop-opacity="0"/></linearGradient><linearGradient id="o" gradientUnits="userSpaceOnUse" x1="25.382" x2="20.365" y1="28.91" y2="28.91"><stop offset="0" stop-color="#f3c0a4"/><stop offset="1" stop-color="#f3c0a4" stop-opacity="0"/></linearGradient><linearGradient id="p"><stop offset="0" stop-color="#ffceaa"/><stop offset="1" stop-color="#ffceaa" stop-opacity="0"/></linearGradient><linearGradient id="q" gradientUnits="userSpaceOnUse" x1="22.964" x2="8.362" xlink:href="#p" y1="13.412" y2="8.062"/><linearGradient id="r" gradientUnits="userSpaceOnUse" x1="23.949" x2="20.009" xlink:href="#p" y1="21.313" y2="21.088"/><linearGradient id="s" gradientUnits="userSpaceOnUse" x1="6.105" x2="8.311" y1="11.45" y2="10.562"><stop offset="0" stop-color="#dba086"/><stop offset="1" stop-color="#dba086" stop-opacity="0"/></linearGradient><g filter="url(#a)"><path d="m12.5922 6.26562 11.4585 5.06618c1.626.7171 2.3745 2.6073 1.6802 4.2433l-3.9825 9.5499c-.2806.6612.0889 1.1647.5156 1.5156.8271.6802 1.991 1.271 2.772 1.3417.0836-.0241.1719-.037.2632-.037.5242 0 .9492.425.9492.9492 0 .5204-.4187.9429-.9375.9492h-.0117-6.2792c-1.0156 0-1.7376-.9881-1.4291-1.9557l.4679-1.4672c.115-.3606.1608-.7397.1348-1.1173l-.2342-3.8191c0-2.0078.556-3.9965 1.9062-4.7969l.3091-.2409c.0972-.0911.1207-.1249.1207-.212 0-.1434-.1221-.2565-.2651-.2456l-.8908.0681c-.8612.0658-1.7273.0198-2.5767-.1369l-6.59565-1.2171c-3.04686-.5469-4.96153-3.4319-3.93742-6.10936.93099-2.43398 3.82812-3.46874 6.56247-2.32812z" fill="url(#g)"/><path d="m12.5922 6.26562 11.4585 5.06618c1.626.7171 2.3745 2.6073 1.6802 4.2433l-3.9825 9.5499c-.2806.6612.0889 1.1647.5156 1.5156.8271.6802 1.991 1.271 2.772 1.3417.0836-.0241.1719-.037.2632-.037.5242 0 .9492.425.9492.9492 0 .5204-.4187.9429-.9375.9492h-.0117-6.2792c-1.0156 0-1.7376-.9881-1.4291-1.9557l.4679-1.4672c.115-.3606.1608-.7397.1348-1.1173l-.2342-3.8191c0-2.0078.556-3.9965 1.9062-4.7969l.3091-.2409c.0972-.0911.1207-.1249.1207-.212 0-.1434-.1221-.2565-.2651-.2456l-.8908.0681c-.8612.0658-1.7273.0198-2.5767-.1369l-6.59565-1.2171c-3.04686-.5469-4.96153-3.4319-3.93742-6.10936.93099-2.43398 3.82812-3.46874 6.56247-2.32812z" fill="url(#h)"/></g><path d="m12.5922 6.26562 11.4585 5.06618c1.626.7171 2.3745 2.6073 1.6802 4.2433l-3.9825 9.5499c-.2806.6612.0889 1.1647.5156 1.5156.8271.6802 1.991 1.271 2.772 1.3417.0836-.0241.1719-.037.2632-.037.5242 0 .9492.425.9492.9492 0 .5204-.4187.9429-.9375.9492h-.0117-6.2792c-1.0156 0-1.7376-.9881-1.4291-1.9557l.4679-1.4672c.115-.3606.1608-.7397.1348-1.1173l-.2342-3.8191c0-2.0078.556-3.9965 1.9062-4.7969l.3091-.2409c.0972-.0911.1207-.1249.1207-.212 0-.1434-.1221-.2565-.2651-.2456l-.8908.0681c-.8612.0658-1.7273.0198-2.5767-.1369l-6.59565-1.2171c-3.04686-.5469-4.96153-3.4319-3.93742-6.10936.93099-2.43398 3.82812-3.46874 6.56247-2.32812z" fill="url(#i)"/><path d="m12.5922 6.26562 11.4585 5.06618c1.626.7171 2.3745 2.6073 1.6802 4.2433l-3.9825 9.5499c-.2806.6612.0889 1.1647.5156 1.5156.8271.6802 1.991 1.271 2.772 1.3417.0836-.0241.1719-.037.2632-.037.5242 0 .9492.425.9492.9492 0 .5204-.4187.9429-.9375.9492h-.0117-6.2792c-1.0156 0-1.7376-.9881-1.4291-1.9557l.4679-1.4672c.115-.3606.1608-.7397.1348-1.1173l-.2342-3.8191c0-2.0078.556-3.9965 1.9062-4.7969l.3091-.2409c.0972-.0911.1207-.1249.1207-.212 0-.1434-.1221-.2565-.2651-.2456l-.8908.0681c-.8612.0658-1.7273.0198-2.5767-.1369l-6.59565-1.2171c-3.04686-.5469-4.96153-3.4319-3.93742-6.10936.93099-2.43398 3.82812-3.46874 6.56247-2.32812z" fill="url(#j)"/><path d="m12.5922 6.26562 11.4585 5.06618c1.626.7171 2.3745 2.6073 1.6802 4.2433l-3.9825 9.5499c-.2806.6612.0889 1.1647.5156 1.5156.8271.6802 1.991 1.271 2.772 1.3417.0836-.0241.1719-.037.2632-.037.5242 0 .9492.425.9492.9492 0 .5204-.4187.9429-.9375.9492h-.0117-6.2792c-1.0156 0-1.7376-.9881-1.4291-1.9557l.4679-1.4672c.115-.3606.1608-.7397.1348-1.1173l-.2342-3.8191c0-2.0078.556-3.9965 1.9062-4.7969l.3091-.2409c.0972-.0911.1207-.1249.1207-.212 0-.1434-.1221-.2565-.2651-.2456l-.8908.0681c-.8612.0658-1.7273.0198-2.5767-.1369l-6.59565-1.2171c-3.04686-.5469-4.96153-3.4319-3.93742-6.10936.93099-2.43398 3.82812-3.46874 6.56247-2.32812z" fill="url(#k)"/><path d="m12.5922 6.26562 11.4585 5.06618c1.626.7171 2.3745 2.6073 1.6802 4.2433l-3.9825 9.5499c-.2806.6612.0889 1.1647.5156 1.5156.8271.6802 1.991 1.271 2.772 1.3417.0836-.0241.1719-.037.2632-.037.5242 0 .9492.425.9492.9492 0 .5204-.4187.9429-.9375.9492h-.0117-6.2792c-1.0156 0-1.7376-.9881-1.4291-1.9557l.4679-1.4672c.115-.3606.1608-.7397.1348-1.1173l-.2342-3.8191c0-2.0078.556-3.9965 1.9062-4.7969l.3091-.2409c.0972-.0911.1207-.1249.1207-.212 0-.1434-.1221-.2565-.2651-.2456l-.8908.0681c-.8612.0658-1.7273.0198-2.5767-.1369l-6.59565-1.2171c-3.04686-.5469-4.96153-3.4319-3.93742-6.10936.93099-2.43398 3.82812-3.46874 6.56247-2.32812z" fill="url(#l)"/><path d="m12.5922 6.26562 11.4585 5.06618c1.626.7171 2.3745 2.6073 1.6802 4.2433l-3.9825 9.5499c-.2806.6612.0889 1.1647.5156 1.5156.8271.6802 1.991 1.271 2.772 1.3417.0836-.0241.1719-.037.2632-.037.5242 0 .9492.425.9492.9492 0 .5204-.4187.9429-.9375.9492h-.0117-6.2792c-1.0156 0-1.7376-.9881-1.4291-1.9557l.4679-1.4672c.115-.3606.1608-.7397.1348-1.1173l-.2342-3.8191c0-2.0078.556-3.9965 1.9062-4.7969l.3091-.2409c.0972-.0911.1207-.1249.1207-.212 0-.1434-.1221-.2565-.2651-.2456l-.8908.0681c-.8612.0658-1.7273.0198-2.5767-.1369l-6.59565-1.2171c-3.04686-.5469-4.96153-3.4319-3.93742-6.10936.93099-2.43398 3.82812-3.46874 6.56247-2.32812z" fill="url(#m)"/><g filter="url(#b)"><path d="m19.8747 25.4031 1.4473.3065c0 .4496.2129.6726.3491.8344l-.8939 1.243-.3576-.7832-.4202.2201c-.1626.0851-.3634.0215-.4473-.1417-.0847-.1646-.0176-.3666.1486-.448l.4975-.2434z" fill="url(#n)"/></g><g filter="url(#c)"><path d="m21.5971 28.0368c.4031.2911 1.7513.8734 3.9192.8734" stroke="url(#o)" stroke-linecap="round" stroke-width=".5"/></g><g filter="url(#d)"><path d="m11.3848 8.57513 12.0488 4.83747" stroke="url(#q)" stroke-linecap="round" stroke-width="2"/></g><g filter="url(#e)"><path d="m24.0609 13.875-2.875 7.4375" stroke="url(#r)" stroke-linecap="round" stroke-width="2"/></g><g filter="url(#f)"><path d="m6.59756 9.12347c-.20073.85762-.18069 2.84113 1.50537 3.91403" stroke="url(#s)" stroke-linecap="round" stroke-width=".5"/></g></svg>