<svg fill="none" height="32" viewBox="0 0 32 32" width="32" xmlns="http://www.w3.org/2000/svg" xmlns:xlink="http://www.w3.org/1999/xlink"><filter id="a" color-interpolation-filters="sRGB" filterUnits="userSpaceOnUse" height="7.083" width="18.16" x="6.978" y="8.781"><feFlood flood-opacity="0" result="BackgroundImageFix"/><feBlend in="SourceGraphic" in2="BackgroundImageFix" mode="normal" result="shape"/><feGaussianBlur result="effect1_foregroundBlur_18_31451" stdDeviation=".25"/></filter><filter id="b" color-interpolation-filters="sRGB" filterUnits="userSpaceOnUse" height="5.2" width="10.406" x="10.703" y="5.021"><feFlood flood-opacity="0" result="BackgroundImageFix"/><feBlend in="SourceGraphic" in2="BackgroundImageFix" mode="normal" result="shape"/><feGaussianBlur result="effect1_foregroundBlur_18_31451" stdDeviation=".25"/></filter><filter id="c" color-interpolation-filters="sRGB" filterUnits="userSpaceOnUse" height="2.25" width="2.25" x="12.023" y="8.674"><feFlood flood-opacity="0" result="BackgroundImageFix"/><feBlend in="SourceGraphic" in2="BackgroundImageFix" mode="normal" result="shape"/><feGaussianBlur result="effect1_foregroundBlur_18_31451" stdDeviation=".125"/></filter><filter id="d" color-interpolation-filters="sRGB" filterUnits="userSpaceOnUse" height="2.859" width="2.859" x="11.111" y="16.141"><feFlood flood-opacity="0" result="BackgroundImageFix"/><feBlend in="SourceGraphic" in2="BackgroundImageFix" mode="normal" result="shape"/><feGaussianBlur result="effect1_foregroundBlur_18_31451" stdDeviation=".25"/></filter><filter id="e" color-interpolation-filters="sRGB" filterUnits="userSpaceOnUse" height="2.243" width="2.25" x="7.106" y="14.969"><feFlood flood-opacity="0" result="BackgroundImageFix"/><feBlend in="SourceGraphic" in2="BackgroundImageFix" mode="normal" result="shape"/><feGaussianBlur result="effect1_foregroundBlur_18_31451" stdDeviation=".125"/></filter><filter id="f" color-interpolation-filters="sRGB" filterUnits="userSpaceOnUse" height="2.314" width="2.171" x="22.938" y="15.157"><feFlood flood-opacity="0" result="BackgroundImageFix"/><feBlend in="SourceGraphic" in2="BackgroundImageFix" mode="normal" result="shape"/><feGaussianBlur result="effect1_foregroundBlur_18_31451" stdDeviation=".125"/></filter><filter id="g" color-interpolation-filters="sRGB" filterUnits="userSpaceOnUse" height="2.25" width="2.25" x="20.074" y="11.633"><feFlood flood-opacity="0" result="BackgroundImageFix"/><feBlend in="SourceGraphic" in2="BackgroundImageFix" mode="normal" result="shape"/><feGaussianBlur result="effect1_foregroundBlur_18_31451" stdDeviation=".125"/></filter><filter id="h" color-interpolation-filters="sRGB" filterUnits="userSpaceOnUse" height="1.5" width="2.55" x="8.997" y="12.508"><feFlood flood-opacity="0" result="BackgroundImageFix"/><feBlend in="SourceGraphic" in2="BackgroundImageFix" mode="normal" result="shape"/><feGaussianBlur result="effect1_foregroundBlur_18_31451" stdDeviation=".125"/></filter><filter id="i" color-interpolation-filters="sRGB" filterUnits="userSpaceOnUse" height="7.908" width="22.45" x="4.822" y="22.089"><feFlood flood-opacity="0" result="BackgroundImageFix"/><feBlend in="SourceGraphic" in2="BackgroundImageFix" mode="normal" result="shape"/><feGaussianBlur result="effect1_foregroundBlur_18_31451" stdDeviation=".05"/></filter><filter id="j" color-interpolation-filters="sRGB" filterUnits="userSpaceOnUse" height="2.25" width="2.25" x="17.812" y="8.445"><feFlood flood-opacity="0" result="BackgroundImageFix"/><feBlend in="SourceGraphic" in2="BackgroundImageFix" mode="normal" result="shape"/><feGaussianBlur result="effect1_foregroundBlur_18_31451" stdDeviation=".125"/></filter><filter id="k" color-interpolation-filters="sRGB" filterUnits="userSpaceOnUse" height="1.293" width="2.086" x="17.953" y="8.278"><feFlood flood-opacity="0" result="BackgroundImageFix"/><feBlend in="SourceGraphic" in2="BackgroundImageFix" mode="normal" result="shape"/><feGaussianBlur result="effect1_foregroundBlur_18_31451" stdDeviation=".125"/></filter><filter id="l" color-interpolation-filters="sRGB" filterUnits="userSpaceOnUse" height="2.25" width="2.25" x="19.01" y="16.594"><feFlood flood-opacity="0" result="BackgroundImageFix"/><feBlend in="SourceGraphic" in2="BackgroundImageFix" mode="normal" result="shape"/><feGaussianBlur result="effect1_foregroundBlur_18_31451" stdDeviation=".125"/></filter><filter id="m" color-interpolation-filters="sRGB" filterUnits="userSpaceOnUse" height="7.256" width="22.323" x="4.893" y="22.891"><feFlood flood-opacity="0" result="BackgroundImageFix"/><feBlend in="SourceGraphic" in2="BackgroundImageFix" mode="normal" result="shape"/><feGaussianBlur result="effect1_foregroundBlur_18_31451" stdDeviation=".125"/></filter><filter id="n" color-interpolation-filters="sRGB" filterUnits="userSpaceOnUse" height="4.888" width="22.645" x="4.747" y="22.282"><feFlood flood-opacity="0" result="BackgroundImageFix"/><feBlend in="SourceGraphic" in2="BackgroundImageFix" mode="normal" result="shape"/><feGaussianBlur result="effect1_foregroundBlur_18_31451" stdDeviation=".087"/></filter><filter id="o" color-interpolation-filters="sRGB" filterUnits="userSpaceOnUse" height="2.75" width="2.75" x="14.452" y="5.021"><feFlood flood-opacity="0" result="BackgroundImageFix"/><feBlend in="SourceGraphic" in2="BackgroundImageFix" mode="normal" result="shape"/><feGaussianBlur result="effect1_foregroundBlur_18_31451" stdDeviation=".25"/></filter><filter id="p" color-interpolation-filters="sRGB" filterUnits="userSpaceOnUse" height="2.75" width="2.75" x="14.625" y="11.823"><feFlood flood-opacity="0" result="BackgroundImageFix"/><feBlend in="SourceGraphic" in2="BackgroundImageFix" mode="normal" result="shape"/><feGaussianBlur result="effect1_foregroundBlur_18_31451" stdDeviation=".25"/></filter><filter id="q" color-interpolation-filters="sRGB" filterUnits="userSpaceOnUse" height="1.725" width="1.596" x="5.546" y="22.138"><feFlood flood-opacity="0" result="BackgroundImageFix"/><feBlend in="SourceGraphic" in2="BackgroundImageFix" mode="normal" result="shape"/><feGaussianBlur result="effect1_foregroundBlur_18_31451" stdDeviation=".125"/></filter><linearGradient id="r" gradientUnits="userSpaceOnUse" x1="16.01" x2="16.01" y1="13.01" y2="20.01"><stop offset=".418" stop-color="#fe5fd3"/><stop offset=".856" stop-color="#ee49cd"/></linearGradient><linearGradient id="s" gradientUnits="userSpaceOnUse" x1="16.01" x2="16.01" y1="13.01" y2="20.01"><stop offset=".887" stop-color="#df499e" stop-opacity="0"/><stop offset="1" stop-color="#d14276"/></linearGradient><radialGradient id="t" cx="0" cy="0" gradientTransform="matrix(-9.80250214 -.12507061 .04705154 -3.68769985 25.8125 15)" gradientUnits="userSpaceOnUse" r="1"><stop offset="0" stop-color="#ff85de"/><stop offset="1" stop-color="#ff86dd" stop-opacity="0"/></radialGradient><radialGradient id="u" cx="0" cy="0" gradientTransform="matrix(-4.56234446 -18.62504989 24.35407122 -5.96571083 11.8125 10.3125)" gradientUnits="userSpaceOnUse" r="1"><stop offset=".682" stop-color="#b74cab" stop-opacity="0"/><stop offset=".913" stop-color="#b44aac"/></radialGradient><radialGradient id="v" cx="0" cy="0" gradientTransform="matrix(11.31248511 7.81250182 -10.51221332 15.22166129 1.75 11.0625)" gradientUnits="userSpaceOnUse" r="1"><stop offset=".348" stop-color="#d64984"/><stop offset="1" stop-color="#ea56a7" stop-opacity="0"/></radialGradient><radialGradient id="w" cx="0" cy="0" gradientTransform="matrix(.87499641 8.12500083 -15.22218454 1.63930529 17.5 17.625)" gradientUnits="userSpaceOnUse" r="1"><stop offset=".794" stop-color="#e34e93" stop-opacity="0"/><stop offset=".968" stop-color="#d74887"/></radialGradient><linearGradient id="x" gradientUnits="userSpaceOnUse" x1="22.438" x2="8.688" y1="13.75" y2="13.75"><stop offset="0" stop-color="#ca3aab"/><stop offset="1" stop-color="#d3358d"/></linearGradient><linearGradient id="y" gradientUnits="userSpaceOnUse" x1="16.005" x2="16.005" y1="8.01" y2="15.01"><stop offset="0" stop-color="#ff85de"/><stop offset=".525" stop-color="#fc59cc"/><stop offset="1" stop-color="#e542cd"/></linearGradient><radialGradient id="z" cx="0" cy="0" gradientTransform="matrix(0 2.75 -4.9375 0 22.0625 9.875)" gradientUnits="userSpaceOnUse" r="1"><stop offset="0" stop-color="#ff8de6"/><stop offset="1" stop-color="#ff90e9" stop-opacity="0"/></radialGradient><radialGradient id="A" cx="0" cy="0" gradientTransform="matrix(0 4.5 -10 0 9.1875 10)" gradientUnits="userSpaceOnUse" r="1"><stop offset="0" stop-color="#f543a3"/><stop offset="1" stop-color="#f54bae" stop-opacity="0"/></radialGradient><radialGradient id="B" cx="0" cy="0" gradientTransform="matrix(0 4.75 -10.2422 0 19.0625 3.5)" gradientUnits="userSpaceOnUse" r="1"><stop offset=".171" stop-color="#ff8ae0"/><stop offset="1" stop-color="#ff8ae0" stop-opacity="0"/></radialGradient><radialGradient id="C" cx="0" cy="0" gradientTransform="matrix(.39062368 .89062569 -1.59560634 .69982443 19.0625 9.14063)" gradientUnits="userSpaceOnUse" r="1"><stop offset=".173" stop-color="#a941a3"/><stop offset="1" stop-color="#cd46c2" stop-opacity="0"/></radialGradient><radialGradient id="D" cx="0" cy="0" gradientTransform="matrix(1.15625304 .13750008 -.13071246 1.09917521 13.5469 9.3125)" gradientUnits="userSpaceOnUse" r="1"><stop offset=".359" stop-color="#e0417f"/><stop offset="1" stop-color="#e33e92" stop-opacity="0"/></radialGradient><linearGradient id="E" gradientUnits="userSpaceOnUse" x1="16.013" x2="16.013" y1="20.01" y2="30"><stop offset="0" stop-color="#e8885e"/><stop offset=".035" stop-color="#ef976c"/><stop offset=".091" stop-color="#eca079"/><stop offset=".262" stop-color="#f0979b"/><stop offset="1" stop-color="#e8885e" stop-opacity="0"/></linearGradient><radialGradient id="F" cx="0" cy="0" gradientTransform="matrix(0 1.0625 -9.84375 0 19.875 21.1875)" gradientUnits="userSpaceOnUse" r="1"><stop offset="0" stop-color="#fab188"/><stop offset="1" stop-color="#fbb188" stop-opacity="0"/></radialGradient><radialGradient id="G" cx="0" cy="0" gradientTransform="matrix(0 7.8125 -17.2182 0 16.5625 23.125)" gradientUnits="userSpaceOnUse" r="1"><stop offset=".632" stop-color="#be674c" stop-opacity="0"/><stop offset=".784" stop-color="#c0674c"/></radialGradient><linearGradient id="H" gradientUnits="userSpaceOnUse" x1="12.703" x2="13.438" y1="9.359" y2="10.047"><stop offset="0" stop-color="#fcac40"/><stop offset=".403" stop-color="#ffa43c"/><stop offset=".89" stop-color="#f37e41"/></linearGradient><linearGradient id="I" gradientUnits="userSpaceOnUse" x1="12.188" x2="13" y1="17.078" y2="17.844"><stop offset="0" stop-color="#d4b3d6"/><stop offset=".393" stop-color="#d8b6f8"/><stop offset=".961" stop-color="#c887ed"/></linearGradient><linearGradient id="J" gradientUnits="userSpaceOnUse" x1="7.582" x2="8.314" y1="15.88" y2="16.568"><stop offset="0" stop-color="#e89c43"/><stop offset=".403" stop-color="#f3913f"/><stop offset=".89" stop-color="#ea6542"/></linearGradient><linearGradient id="K" gradientUnits="userSpaceOnUse" x1="23.579" x2="24.535" y1="15.88" y2="16.777"><stop offset="0" stop-color="#ffa83e"/><stop offset=".292" stop-color="#ffb84c"/><stop offset=".55" stop-color="#ffa83a"/><stop offset=".81" stop-color="#cc6e53"/></linearGradient><radialGradient id="L" cx="0" cy="0" gradientTransform="matrix(.81250142 .77343996 -.45062529 .47338346 23.3437 16.8281)" gradientUnits="userSpaceOnUse" r="1"><stop offset="0" stop-color="#ef6f45"/><stop offset="1" stop-color="#ee6e46" stop-opacity="0"/></radialGradient><linearGradient id="M"><stop offset=".264" stop-color="#efebf7"/><stop offset=".488" stop-color="#dbc8f4"/><stop offset=".931" stop-color="#ca95eb"/></linearGradient><linearGradient id="N" gradientUnits="userSpaceOnUse" x1="21.606" x2="20.809" xlink:href="#M" y1="12.393" y2="13.205"/><linearGradient id="O" gradientUnits="userSpaceOnUse" x1="10.225" x2="10.225" y1="12.93" y2="13.93"><stop offset="0" stop-color="#35a6ff"/><stop offset=".461" stop-color="#299dff"/><stop offset="1" stop-color="#396bff"/></linearGradient><radialGradient id="P" cx="0" cy="0" gradientTransform="matrix(-.15624633 .40625127 -.44941305 -.17284657 10.8984 13.25)" gradientUnits="userSpaceOnUse" r="1"><stop offset="0" stop-color="#40aaff"/><stop offset="1" stop-color="#43acff" stop-opacity="0"/></radialGradient><linearGradient id="Q" gradientUnits="userSpaceOnUse" x1="21.777" x2="20.981" xlink:href="#M" y1="12.19" y2="13.002"/><linearGradient id="R"><stop offset="0" stop-color="#c187f1"/><stop offset="1" stop-color="#c595f1" stop-opacity="0"/></linearGradient><radialGradient id="S" cx="0" cy="0" gradientTransform="matrix(-.5468725 .42187885 -.30723311 -.39825969 22.0587 13.3457)" gradientUnits="userSpaceOnUse" r="1" xlink:href="#R"/><linearGradient id="T"><stop offset=".823" stop-color="#58a0ff"/><stop offset=".915" stop-color="#5473ff"/><stop offset=".953" stop-color="#7163ff"/></linearGradient><linearGradient id="U" gradientUnits="userSpaceOnUse" x1="16.047" x2="16.274" xlink:href="#T" y1="22.189" y2="30.421"/><linearGradient id="V"><stop offset=".195" stop-color="#508eff"/><stop offset="1" stop-color="#508fff" stop-opacity="0"/></linearGradient><radialGradient id="W" cx="0" cy="0" gradientTransform="matrix(0 8.32465 -8.16098 0 16.3642 22.189)" gradientUnits="userSpaceOnUse" r="1" xlink:href="#V"/><linearGradient id="X"><stop offset=".112" stop-color="#4686d7"/><stop offset="1" stop-color="#4992f5" stop-opacity="0"/></linearGradient><radialGradient id="Y" cx="0" cy="0" gradientTransform="matrix(1.84082 0 0 5.36829 5.50331 26.0429)" gradientUnits="userSpaceOnUse" r="1" xlink:href="#X"/><radialGradient id="Z" cx="0" cy="0" gradientTransform="matrix(-2.82259301 -.46327967 1.35067899 -8.22919138 26.7955 26.0429)" gradientUnits="userSpaceOnUse" r="1" xlink:href="#X"/><linearGradient id="aa" gradientUnits="userSpaceOnUse" x1="26.949" x2="5.442" y1="23.976" y2="23.976"><stop offset=".09" stop-color="#5fb6ff"/><stop offset=".107" stop-color="#4394f4"/><stop offset=".171" stop-color="#60b4ff"/><stop offset=".25" stop-color="#59f"/><stop offset=".327" stop-color="#65afff"/><stop offset=".629" stop-color="#61aeff"/><stop offset=".806" stop-color="#62afff"/><stop offset=".919" stop-color="#469df3"/><stop offset="1" stop-color="#4f9be5"/></linearGradient><linearGradient id="ab" gradientUnits="userSpaceOnUse" x1="18.625" x2="19.422" y1="9.141" y2="9.945"><stop offset="0" stop-color="#388ef1"/><stop offset=".356" stop-color="#3aa5ff"/><stop offset=".917" stop-color="#4571fd"/></linearGradient><linearGradient id="ac"><stop offset="0" stop-color="#3673ff"/><stop offset="1" stop-color="#3673ff" stop-opacity="0"/></linearGradient><radialGradient id="ad" cx="0" cy="0" gradientTransform="matrix(.4531254 .46875005 -.30931731 .29900696 18.4688 10.125)" gradientUnits="userSpaceOnUse" r="1" xlink:href="#ac"/><linearGradient id="ae" gradientUnits="userSpaceOnUse" x1="20.535" x2="19.738" y1="17.081" y2="17.885"><stop offset="0" stop-color="#39a1ff"/><stop offset=".356" stop-color="#40a1ff"/><stop offset=".917" stop-color="#3876ff"/></linearGradient><radialGradient id="af" cx="0" cy="0" gradientTransform="matrix(-.4531254 .46875005 -.30931731 -.29900696 20.6913 18.0651)" gradientUnits="userSpaceOnUse" r="1" xlink:href="#ac"/><linearGradient id="ag" gradientUnits="userSpaceOnUse" x1="15.989" x2="16.219" xlink:href="#T" y1="22.189" y2="30.531"/><radialGradient id="ah" cx="0" cy="0" gradientTransform="matrix(0 8.43604 -8.3125 0 16.3125 22.189)" gradientUnits="userSpaceOnUse" r="1" xlink:href="#V"/><radialGradient id="ai" cx="0" cy="0" gradientTransform="matrix(1.875 0 0 5.44012 5.25 26.0945)" gradientUnits="userSpaceOnUse" r="1" xlink:href="#X"/><radialGradient id="aj" cx="0" cy="0" gradientTransform="matrix(-2.87500298 -.46946027 1.36209198 -8.34153334 26.9375 26.0945)" gradientUnits="userSpaceOnUse" r="1" xlink:href="#X"/><linearGradient id="ak" gradientUnits="userSpaceOnUse" x1="27.094" x2="5.188" y1="24" y2="24"><stop offset=".011" stop-color="#59b9ff"/><stop offset=".021" stop-color="#5fb6ff"/><stop offset=".09" stop-color="#5fb6ff"/><stop offset=".107" stop-color="#4394f4"/><stop offset=".171" stop-color="#60b4ff"/><stop offset=".25" stop-color="#59f"/><stop offset=".327" stop-color="#65afff"/><stop offset=".629" stop-color="#61aeff"/><stop offset=".806" stop-color="#62afff"/><stop offset=".919" stop-color="#469df3"/><stop offset="1" stop-color="#4f9be5"/></linearGradient><linearGradient id="al" gradientUnits="userSpaceOnUse" x1="26.531" x2="25.5" y1="25.781" y2="25.469"><stop offset="0" stop-color="#477cc5"/><stop offset="1" stop-color="#4881cb" stop-opacity="0"/></linearGradient><linearGradient id="am" gradientUnits="userSpaceOnUse" x1="15.989" x2="15.989" y1="22.189" y2="30"><stop offset=".852" stop-color="#5676f9" stop-opacity="0"/><stop offset="1" stop-color="#5477f7"/></linearGradient><linearGradient id="an" gradientUnits="userSpaceOnUse" x1="15.989" x2="16.158" xlink:href="#T" y1="23.293" y2="30.347"/><radialGradient id="ao" cx="0" cy="0" gradientTransform="matrix(0 7.13262 -8.09304 0 16.304 23.2927)" gradientUnits="userSpaceOnUse" r="1" xlink:href="#V"/><radialGradient id="ap" cx="0" cy="0" gradientTransform="matrix(1.8255 0 0 4.5996 5.53354 26.5948)" gradientUnits="userSpaceOnUse" r="1" xlink:href="#X"/><radialGradient id="aq" cx="0" cy="0" gradientTransform="matrix(-2.79909714 -.39692517 1.00653547 -7.09803947 26.6485 26.5948)" gradientUnits="userSpaceOnUse" r="1" xlink:href="#X"/><linearGradient id="ar" gradientUnits="userSpaceOnUse" x1="15.989" x2="16.194" xlink:href="#T" y1="22.625" y2="30.392"/><radialGradient id="as" cx="0" cy="0" gradientTransform="matrix(0 7.85379 -8.09304 0 16.304 22.625)" gradientUnits="userSpaceOnUse" r="1" xlink:href="#V"/><radialGradient id="at" cx="0" cy="0" gradientTransform="matrix(1.8255 0 0 5.06465 5.53354 26.2609)" gradientUnits="userSpaceOnUse" r="1" xlink:href="#X"/><radialGradient id="au" cx="0" cy="0" gradientTransform="matrix(-2.79909116 -.43707478 1.21532279 -7.78310583 26.6485 26.2609)" gradientUnits="userSpaceOnUse" r="1" xlink:href="#X"/><linearGradient id="av"><stop offset="0" stop-color="#2b8bff"/><stop offset=".839" stop-color="#2c8aff"/><stop offset="1" stop-color="#4063ff"/></linearGradient><linearGradient id="aw" gradientUnits="userSpaceOnUse" x1="16.013" x2="16.013" xlink:href="#av" y1="25.125" y2="30"/><linearGradient id="ax" gradientUnits="userSpaceOnUse" x1="11.016" x2="11.016" xlink:href="#av" y1="25" y2="29.99"/><linearGradient id="ay" gradientUnits="userSpaceOnUse" x1="16.406" x2="15.609" xlink:href="#M" y1="5.75" y2="6.563"/><radialGradient id="az" cx="0" cy="0" gradientTransform="matrix(-.5468725 .42187885 -.30723311 -.39825969 16.6875 6.90625)" gradientUnits="userSpaceOnUse" r="1" xlink:href="#R"/><linearGradient id="aA" gradientUnits="userSpaceOnUse" x1="21.07" x2="21.07" xlink:href="#av" y1="25" y2="30"/><linearGradient id="aB" gradientUnits="userSpaceOnUse" x1="16.328" x2="15.633" y1="12.617" y2="13.352"><stop offset="0" stop-color="#ffb248"/><stop offset=".397" stop-color="#ffa43e"/><stop offset=".847" stop-color="#f17f4d"/></linearGradient><radialGradient id="aC" cx="0" cy="0" gradientTransform="matrix(.96875254 1.27563698 -1.27563698 .96875254 15.7813 12.6094)" gradientUnits="userSpaceOnUse" r="1"><stop offset=".77" stop-color="#db644c" stop-opacity="0"/><stop offset=".924" stop-color="#db644c"/></radialGradient><path d="m24.52 13.01h-17.02c-1.93 0-3.5 1.57-3.5 3.5s1.57 3.5 3.5 3.5h17.02c1.93 0 3.5-1.57 3.5-3.5s-1.57-3.5-3.5-3.5z" fill="url(#r)"/><path d="m24.52 13.01h-17.02c-1.93 0-3.5 1.57-3.5 3.5s1.57 3.5 3.5 3.5h17.02c1.93 0 3.5-1.57 3.5-3.5s-1.57-3.5-3.5-3.5z" fill="url(#s)"/><path d="m24.52 13.01h-17.02c-1.93 0-3.5 1.57-3.5 3.5s1.57 3.5 3.5 3.5h17.02c1.93 0 3.5-1.57 3.5-3.5s-1.57-3.5-3.5-3.5z" fill="url(#t)"/><path d="m24.52 13.01h-17.02c-1.93 0-3.5 1.57-3.5 3.5s1.57 3.5 3.5 3.5h17.02c1.93 0 3.5-1.57 3.5-3.5s-1.57-3.5-3.5-3.5z" fill="url(#u)"/><path d="m24.52 13.01h-17.02c-1.93 0-3.5 1.57-3.5 3.5s1.57 3.5 3.5 3.5h17.02c1.93 0 3.5-1.57 3.5-3.5s-1.57-3.5-3.5-3.5z" fill="url(#v)"/><path d="m24.52 13.01h-17.02c-1.93 0-3.5 1.57-3.5 3.5s1.57 3.5 3.5 3.5h17.02c1.93 0 3.5-1.57 3.5-3.5s-1.57-3.5-3.5-3.5z" fill="url(#w)"/><g filter="url(#a)"><path d="m21.52 9.28125h-11.01c-4.49938 0-3.55688 5.89065-.01 5.89065h5.4687c1.625 0 5.427.1926 5.427.1926 3.9432 0 4.6405-6.08325.1243-6.08325z" fill="url(#x)"/></g><path d="m21.52 8.01001h-11.01c-1.94 0-3.51 1.56-3.51 3.49999 0 1.93 1.57 3.5 3.5 3.5h11.01c1.93 0 3.5-1.57 3.5-3.5.01-1.93999-1.56-3.49999-3.49-3.49999z" fill="url(#y)"/><path d="m21.52 8.01001h-11.01c-1.94 0-3.51 1.56-3.51 3.49999 0 1.93 1.57 3.5 3.5 3.5h11.01c1.93 0 3.5-1.57 3.5-3.5.01-1.93999-1.56-3.49999-3.49-3.49999z" fill="url(#z)"/><path d="m21.52 8.01001h-11.01c-1.94 0-3.51 1.56-3.51 3.49999 0 1.93 1.57 3.5 3.5 3.5h11.01c1.93 0 3.5-1.57 3.5-3.5.01-1.93999-1.56-3.49999-3.49-3.49999z" fill="url(#A)"/><g filter="url(#b)"><path d="m11.2031 7.148c0 2.44737 2.7997 2.68595 4.7602 2.53943 1.877-.14028 4.6461-.12493 4.6461-2.53945-2.5067-2.38246-7.4257-1.94483-9.4063.00002z" fill="#d73a7e"/></g><path d="m20.25 5.15c-.06-.06-.12-.11-.19-.17l-2.93-2.56c-.64-.56-1.6-.56-2.24 0l-3.03 2.64c-.52.46-.85 1.13-.85 1.89 0 2.40938 3.0658 2.5 5 2.5 1.8776 0 5-.21562 5-2.5.01-.71-.29-1.35-.76-1.8z" fill="#f252b5"/><path d="m20.25 5.15c-.06-.06-.12-.11-.19-.17l-2.93-2.56c-.64-.56-1.6-.56-2.24 0l-3.03 2.64c-.52.46-.85 1.13-.85 1.89 0 2.40938 3.0658 2.5 5 2.5 1.8776 0 5-.21562 5-2.5.01-.71-.29-1.35-.76-1.8z" fill="url(#B)"/><path d="m20.25 5.15c-.06-.06-.12-.11-.19-.17l-2.93-2.56c-.64-.56-1.6-.56-2.24 0l-3.03 2.64c-.52.46-.85 1.13-.85 1.89 0 2.40938 3.0658 2.5 5 2.5 1.8776 0 5-.21562 5-2.5.01-.71-.29-1.35-.76-1.8z" fill="url(#C)"/><path d="m20.25 5.15c-.06-.06-.12-.11-.19-.17l-2.93-2.56c-.64-.56-1.6-.56-2.24 0l-3.03 2.64c-.52.46-.85 1.13-.85 1.89 0 2.40938 3.0658 2.5 5 2.5 1.8776 0 5-.21562 5-2.5.01-.71-.29-1.35-.76-1.8z" fill="url(#D)"/><path d="m25.24 20.01h-18.46c-1.19 0-2.04 1.1412-1.7 2.2823l2.11 7.0671c.12.3804.48.6406.89.6406h15.87c.4 0 .76-.2602.89-.6406l2.11-7.0671c.33-1.1411-.52-2.2823-1.71-2.2823z" fill="url(#E)"/><path d="m25.24 20.01h-18.46c-1.19 0-2.04 1.1412-1.7 2.2823l2.11 7.0671c.12.3804.48.6406.89.6406h15.87c.4 0 .76-.2602.89-.6406l2.11-7.0671c.33-1.1411-.52-2.2823-1.71-2.2823z" fill="url(#F)"/><path d="m25.24 20.01h-18.46c-1.19 0-2.04 1.1412-1.7 2.2823l2.11 7.0671c.12.3804.48.6406.89.6406h15.87c.4 0 .76-.2602.89-.6406l2.11-7.0671c.33-1.1411-.52-2.2823-1.71-2.2823z" fill="url(#G)"/><g filter="url(#c)"><path d="m12.4231 10.524c-.2-.2-.2-.51 0-.71005l.74-.74c.2-.2.51-.2.71 0s.2.51 0 .71l-.75.74005c-.19.2-.51.2-.7 0z" fill="#c8397e"/></g><path d="m12.4231 10.2949c-.2-.2-.2-.50995 0-.70995l.74-.74c.2-.2.51-.2.71 0s.2.51 0 .71l-.75.73995c-.19.2-.51.2-.7 0z" fill="url(#H)"/><g filter="url(#d)"><path d="m11.77 18.3406c-.2125-.2125-.2125-.5419 0-.7544l.7863-.7862c.2125-.2125.5418-.2125.7543 0s.2125.5419 0 .7544l-.7862.7862c-.2019.2125-.5419.2125-.7544 0z" fill="#dc41b7"/></g><path d="m11.86 18.11c-.2-.2-.2-.51 0-.71l.74-.74c.2-.2.51-.2.71 0s.2.51 0 .71l-.74.74c-.19.2-.51.2-.71 0z" fill="url(#I)"/><g filter="url(#e)"><path d="m7.50625 16.8187c-.2-.2-.2-.51 0-.71l.74-.7399c.2-.2.51-.2.71 0s.2.5099 0 .7099l-.74.74c-.2.19-.51.19-.71 0z" fill="#d53275"/></g><path d="m7.3025 16.8187c-.2-.2-.2-.51 0-.71l.74-.7399c.2-.2.51-.2.71 0s.2.5099 0 .7099l-.74.74c-.2.19-.51.19-.71 0z" fill="url(#J)"/><g filter="url(#f)"><path d="m23.3759 17.112c-.2192-.1788-.2504-.4872-.0716-.7064l.6617-.8108c.1788-.2191.4872-.2503.7064-.0715.2191.1788.2503.4872.0715.7064l-.6617.8108c-.1798.2092-.4982.2414-.7063.0715z" fill="#c840af"/></g><path d="m23.2987 16.8187c-.2-.2-.2-.51 0-.71l.74-.7399c.2-.2.51-.2.71 0s.2.5099 0 .7099l-.74.74c-.2.19-.52.19-.71 0z" fill="url(#K)"/><path d="m23.2987 16.8187c-.2-.2-.2-.51 0-.71l.74-.7399c.2-.2.51-.2.71 0s.2.5099 0 .7099l-.74.74c-.2.19-.52.19-.71 0z" fill="url(#L)"/><g filter="url(#g)"><path d="m20.4744 12.0332c.2-.2.51-.2.71 0l.74.74c.2.2.2.51 0 .71s-.51.2-.71 0l-.74-.74c-.2-.19-.2-.51 0-.71z" fill="url(#N)"/><path d="m20.4744 12.0332c.2-.2.51-.2.71 0l.74.74c.2.2.2.51 0 .71s-.51.2-.71 0l-.74-.74c-.2-.19-.2-.51 0-.71z" fill="#da41d6"/></g><g filter="url(#h)"><path d="m9.24687 13.2582c0-.28.22-.5.5-.5h1.05003c.28 0 .5.22.5.5s-.22.5-.5.5h-1.05003c-.28 0-.5-.22-.5-.5z" fill="#b03f95"/></g><path d="m9.2 13.4301c0-.28.22-.5.5-.5h1.05c.28 0 .5.22.5.5s-.22.5-.5.5h-1.05c-.28 0-.5-.22-.5-.5z" fill="url(#O)"/><path d="m9.2 13.4301c0-.28.22-.5.5-.5h1.05c.28 0 .5.22.5.5s-.22.5-.5.5h-1.05c-.28 0-.5-.22-.5-.5z" fill="url(#P)"/><path d="m20.6462 11.8301c.2-.2.51-.2.71 0l.74.74c.2.2.2.51 0 .71s-.51.2-.71 0l-.74-.74c-.2-.19-.2-.51 0-.71z" fill="url(#Q)"/><path d="m20.6462 11.8301c.2-.2.51-.2.71 0l.74.74c.2.2.2.51 0 .71s-.51.2-.71 0l-.74-.74c-.2-.19-.2-.51 0-.71z" fill="url(#S)"/><g filter="url(#i)"><path d="m8.20318 29.8968h7.85422 7.8541c1.0211 0 1.3659-.6373 1.4727-.9868 0 0 1.9006-5.9914 1.7824-6.4771-.072-.257-.3865-.2878-.4798-.0905l-.1499.3466-.105-.2561c-.0692-.159-.4185-.3662-.7646 0l-.7347.8589c-.0646.0758-.1791.0988-.2249 0l-.3379-.7819c-.1718-.3799-.882-.472-1.4375.0346l-.7884.7473c-.1451.1506-.3685.1794-.5098 0l-.6897-.8589c-.3487-.4238-1.1677-.2396-1.6942.1507l-.8396.7082c-.2031.1449-.455.1679-.6447 0l-.7839-.7819c-.441-.3569-1.3459-.4835-1.8842.0346l-.7803.7473c-.1417.1104-.4395.1276-.6148 0l-1.0217-.8589c-.4409-.3777-1.2828-.3086-1.6551.1506l-.5617.7083c-.0911.1046-.2572.1507-.46477 0l-.95956-.8589c-.37917-.3202-1.10076-.3259-1.33439.1507l-.26988.6027s-.07492.2562-.2099.1055l-.70468-.8589c-.50044-.5446-.88415 0-.95956.2561l-.14993-.3466c-.12401-.2699-.6337 0-.4498.6481l1.76879 5.9195c.07537.2289.49518.9868 1.47266.9868z" fill="url(#U)"/><path d="m8.20318 29.8968h7.85422 7.8541c1.0211 0 1.3659-.6373 1.4727-.9868 0 0 1.9006-5.9914 1.7824-6.4771-.072-.257-.3865-.2878-.4798-.0905l-.1499.3466-.105-.2561c-.0692-.159-.4185-.3662-.7646 0l-.7347.8589c-.0646.0758-.1791.0988-.2249 0l-.3379-.7819c-.1718-.3799-.882-.472-1.4375.0346l-.7884.7473c-.1451.1506-.3685.1794-.5098 0l-.6897-.8589c-.3487-.4238-1.1677-.2396-1.6942.1507l-.8396.7082c-.2031.1449-.455.1679-.6447 0l-.7839-.7819c-.441-.3569-1.3459-.4835-1.8842.0346l-.7803.7473c-.1417.1104-.4395.1276-.6148 0l-1.0217-.8589c-.4409-.3777-1.2828-.3086-1.6551.1506l-.5617.7083c-.0911.1046-.2572.1507-.46477 0l-.95956-.8589c-.37917-.3202-1.10076-.3259-1.33439.1507l-.26988.6027s-.07492.2562-.2099.1055l-.70468-.8589c-.50044-.5446-.88415 0-.95956.2561l-.14993-.3466c-.12401-.2699-.6337 0-.4498.6481l1.76879 5.9195c.07537.2289.49518.9868 1.47266.9868z" fill="url(#W)"/><path d="m8.20318 29.8968h7.85422 7.8541c1.0211 0 1.3659-.6373 1.4727-.9868 0 0 1.9006-5.9914 1.7824-6.4771-.072-.257-.3865-.2878-.4798-.0905l-.1499.3466-.105-.2561c-.0692-.159-.4185-.3662-.7646 0l-.7347.8589c-.0646.0758-.1791.0988-.2249 0l-.3379-.7819c-.1718-.3799-.882-.472-1.4375.0346l-.7884.7473c-.1451.1506-.3685.1794-.5098 0l-.6897-.8589c-.3487-.4238-1.1677-.2396-1.6942.1507l-.8396.7082c-.2031.1449-.455.1679-.6447 0l-.7839-.7819c-.441-.3569-1.3459-.4835-1.8842.0346l-.7803.7473c-.1417.1104-.4395.1276-.6148 0l-1.0217-.8589c-.4409-.3777-1.2828-.3086-1.6551.1506l-.5617.7083c-.0911.1046-.2572.1507-.46477 0l-.95956-.8589c-.37917-.3202-1.10076-.3259-1.33439.1507l-.26988.6027s-.07492.2562-.2099.1055l-.70468-.8589c-.50044-.5446-.88415 0-.95956.2561l-.14993-.3466c-.12401-.2699-.6337 0-.4498.6481l1.76879 5.9195c.07537.2289.49518.9868 1.47266.9868z" fill="url(#Y)"/><path d="m8.20318 29.8968h7.85422 7.8541c1.0211 0 1.3659-.6373 1.4727-.9868 0 0 1.9006-5.9914 1.7824-6.4771-.072-.257-.3865-.2878-.4798-.0905l-.1499.3466-.105-.2561c-.0692-.159-.4185-.3662-.7646 0l-.7347.8589c-.0646.0758-.1791.0988-.2249 0l-.3379-.7819c-.1718-.3799-.882-.472-1.4375.0346l-.7884.7473c-.1451.1506-.3685.1794-.5098 0l-.6897-.8589c-.3487-.4238-1.1677-.2396-1.6942.1507l-.8396.7082c-.2031.1449-.455.1679-.6447 0l-.7839-.7819c-.441-.3569-1.3459-.4835-1.8842.0346l-.7803.7473c-.1417.1104-.4395.1276-.6148 0l-1.0217-.8589c-.4409-.3777-1.2828-.3086-1.6551.1506l-.5617.7083c-.0911.1046-.2572.1507-.46477 0l-.95956-.8589c-.37917-.3202-1.10076-.3259-1.33439.1507l-.26988.6027s-.07492.2562-.2099.1055l-.70468-.8589c-.50044-.5446-.88415 0-.95956.2561l-.14993-.3466c-.12401-.2699-.6337 0-.4498.6481l1.76879 5.9195c.07537.2289.49518.9868 1.47266.9868z" fill="url(#Z)"/><path d="m8.20318 29.8968h7.85422 7.8541c1.0211 0 1.3659-.6373 1.4727-.9868 0 0 1.9006-5.9914 1.7824-6.4771-.072-.257-.3865-.2878-.4798-.0905l-.1499.3466-.105-.2561c-.0692-.159-.4185-.3662-.7646 0l-.7347.8589c-.0646.0758-.1791.0988-.2249 0l-.3379-.7819c-.1718-.3799-.882-.472-1.4375.0346l-.7884.7473c-.1451.1506-.3685.1794-.5098 0l-.6897-.8589c-.3487-.4238-1.1677-.2396-1.6942.1507l-.8396.7082c-.2031.1449-.455.1679-.6447 0l-.7839-.7819c-.441-.3569-1.3459-.4835-1.8842.0346l-.7803.7473c-.1417.1104-.4395.1276-.6148 0l-1.0217-.8589c-.4409-.3777-1.2828-.3086-1.6551.1506l-.5617.7083c-.0911.1046-.2572.1507-.46477 0l-.95956-.8589c-.37917-.3202-1.10076-.3259-1.33439.1507l-.26988.6027s-.07492.2562-.2099.1055l-.70468-.8589c-.50044-.5446-.88415 0-.95956.2561l-.14993-.3466c-.12401-.2699-.6337 0-.4498.6481l1.76879 5.9195c.07537.2289.49518.9868 1.47266.9868z" fill="url(#aa)"/><path d="m8.20318 29.8968h7.85422 7.8541c1.0211 0 1.3659-.6373 1.4727-.9868 0 0 1.9006-5.9914 1.7824-6.4771-.072-.257-.3865-.2878-.4798-.0905l-.1499.3466-.105-.2561c-.0692-.159-.4185-.3662-.7646 0l-.7347.8589c-.0646.0758-.1791.0988-.2249 0l-.3379-.7819c-.1718-.3799-.882-.472-1.4375.0346l-.7884.7473c-.1451.1506-.3685.1794-.5098 0l-.6897-.8589c-.3487-.4238-1.1677-.2396-1.6942.1507l-.8396.7082c-.2031.1449-.455.1679-.6447 0l-.7839-.7819c-.441-.3569-1.3459-.4835-1.8842.0346l-.7803.7473c-.1417.1104-.4395.1276-.6148 0l-1.0217-.8589c-.4409-.3777-1.2828-.3086-1.6551.1506l-.5617.7083c-.0911.1046-.2572.1507-.46477 0l-.95956-.8589c-.37917-.3202-1.10076-.3259-1.33439.1507l-.26988.6027s-.07492.2562-.2099.1055l-.70468-.8589c-.50044-.5446-.88415 0-.95956.2561l-.14993-.3466c-.12401-.2699-.6337 0-.4498.6481l1.76879 5.9195c.07537.2289.49518.9868 1.47266.9868z" fill="#856e5f"/></g><g filter="url(#j)"><path d="m18.2119 10.2949c-.2-.2-.2-.50995 0-.70995l.74-.74c.2-.2.51-.2.71 0s.2.51 0 .71l-.74.73995c-.2.2-.52.2-.71 0z" fill="#954093"/></g><g filter="url(#k)"><path d="m18.2031 9.32028.7149-.66794c.2-.2.707-.16411.8711.14058-.3438.32031-1.1875.42579-1.586.52736z" fill="#954093"/></g><path d="m18.29 10.1699c-.2-.19995-.2-.50995 0-.70995l.74-.74c.2-.2.51-.2.71 0s.2.51 0 .71l-.74.73995c-.2.2-.52.2-.71 0z" fill="url(#ab)"/><path d="m18.29 10.1699c-.2-.19995-.2-.50995 0-.70995l.74-.74c.2-.2.51-.2.71 0s.2.51 0 .71l-.74.73995c-.2.2-.52.2-.71 0z" fill="url(#ad)"/><g filter="url(#l)"><path d="m20.8602 18.4438c.2-.2.2-.51 0-.71l-.74-.74c-.2-.2-.51-.2-.71 0s-.2.51 0 .71l.74.74c.2.2.52.2.71 0z" fill="#c53dd2"/></g><path d="m20.87 18.11c.2-.2.2-.51 0-.71l-.74-.74c-.2-.2-.51-.2-.71 0s-.2.51 0 .71l.74.74c.2.2.52.2.71 0z" fill="url(#ae)"/><path d="m20.87 18.11c.2-.2.2-.51 0-.71l-.74-.74c-.2-.2-.51-.2-.71 0s-.2.51 0 .71l.74.74c.2.2.52.2.71 0z" fill="url(#af)"/><path d="m8 30h8 8c1.04 0 1.3913-.6459 1.5-1 0 0 1.9359-6.0716 1.8155-6.5639-.0733-.2604-.3936-.2916-.4887-.0916l-.1527.3512-.1069-.2596c-.0705-.161-.4263-.371-.7789 0l-.7483.8705c-.0658.0768-.1824.1001-.229 0l-.3443-.7924c-.175-.385-.8983-.4783-1.4641.035l-.8031.7574c-.1477.1526-.3752.1818-.5192 0l-.7025-.8705c-.3552-.4294-1.1894-.2427-1.7257.1527l-.8552.7178c-.2068.1468-.4635.1701-.6567 0l-.7984-.7924c-.4492-.3616-1.3708-.49-1.9192.035l-.7948.7574c-.1443.1118-.4477.1293-.6261 0l-1.0407-.8704c-.4492-.3828-1.3067-.3128-1.6858.1526l-.5722.7178c-.0928.106-.262.1527-.4734 0l-.97738-.8705c-.3862-.3244-1.1212-.3302-1.35916.1527l-.27489.6109s-.07631.2596-.2138.1069l-.71776-.8705c-.50974-.5518-.90057 0-.97738.2596l-.15271-.3512c-.12632-.2736-.64547 0-.45815.6567l1.80163 5.9988c.07677.2319.50437 1 1.5 1z" fill="url(#ag)"/><path d="m8 30h8 8c1.04 0 1.3913-.6459 1.5-1 0 0 1.9359-6.0716 1.8155-6.5639-.0733-.2604-.3936-.2916-.4887-.0916l-.1527.3512-.1069-.2596c-.0705-.161-.4263-.371-.7789 0l-.7483.8705c-.0658.0768-.1824.1001-.229 0l-.3443-.7924c-.175-.385-.8983-.4783-1.4641.035l-.8031.7574c-.1477.1526-.3752.1818-.5192 0l-.7025-.8705c-.3552-.4294-1.1894-.2427-1.7257.1527l-.8552.7178c-.2068.1468-.4635.1701-.6567 0l-.7984-.7924c-.4492-.3616-1.3708-.49-1.9192.035l-.7948.7574c-.1443.1118-.4477.1293-.6261 0l-1.0407-.8704c-.4492-.3828-1.3067-.3128-1.6858.1526l-.5722.7178c-.0928.106-.262.1527-.4734 0l-.97738-.8705c-.3862-.3244-1.1212-.3302-1.35916.1527l-.27489.6109s-.07631.2596-.2138.1069l-.71776-.8705c-.50974-.5518-.90057 0-.97738.2596l-.15271-.3512c-.12632-.2736-.64547 0-.45815.6567l1.80163 5.9988c.07677.2319.50437 1 1.5 1z" fill="url(#ah)"/><path d="m8 30h8 8c1.04 0 1.3913-.6459 1.5-1 0 0 1.9359-6.0716 1.8155-6.5639-.0733-.2604-.3936-.2916-.4887-.0916l-.1527.3512-.1069-.2596c-.0705-.161-.4263-.371-.7789 0l-.7483.8705c-.0658.0768-.1824.1001-.229 0l-.3443-.7924c-.175-.385-.8983-.4783-1.4641.035l-.8031.7574c-.1477.1526-.3752.1818-.5192 0l-.7025-.8705c-.3552-.4294-1.1894-.2427-1.7257.1527l-.8552.7178c-.2068.1468-.4635.1701-.6567 0l-.7984-.7924c-.4492-.3616-1.3708-.49-1.9192.035l-.7948.7574c-.1443.1118-.4477.1293-.6261 0l-1.0407-.8704c-.4492-.3828-1.3067-.3128-1.6858.1526l-.5722.7178c-.0928.106-.262.1527-.4734 0l-.97738-.8705c-.3862-.3244-1.1212-.3302-1.35916.1527l-.27489.6109s-.07631.2596-.2138.1069l-.71776-.8705c-.50974-.5518-.90057 0-.97738.2596l-.15271-.3512c-.12632-.2736-.64547 0-.45815.6567l1.80163 5.9988c.07677.2319.50437 1 1.5 1z" fill="url(#ai)"/><path d="m8 30h8 8c1.04 0 1.3913-.6459 1.5-1 0 0 1.9359-6.0716 1.8155-6.5639-.0733-.2604-.3936-.2916-.4887-.0916l-.1527.3512-.1069-.2596c-.0705-.161-.4263-.371-.7789 0l-.7483.8705c-.0658.0768-.1824.1001-.229 0l-.3443-.7924c-.175-.385-.8983-.4783-1.4641.035l-.8031.7574c-.1477.1526-.3752.1818-.5192 0l-.7025-.8705c-.3552-.4294-1.1894-.2427-1.7257.1527l-.8552.7178c-.2068.1468-.4635.1701-.6567 0l-.7984-.7924c-.4492-.3616-1.3708-.49-1.9192.035l-.7948.7574c-.1443.1118-.4477.1293-.6261 0l-1.0407-.8704c-.4492-.3828-1.3067-.3128-1.6858.1526l-.5722.7178c-.0928.106-.262.1527-.4734 0l-.97738-.8705c-.3862-.3244-1.1212-.3302-1.35916.1527l-.27489.6109s-.07631.2596-.2138.1069l-.71776-.8705c-.50974-.5518-.90057 0-.97738.2596l-.15271-.3512c-.12632-.2736-.64547 0-.45815.6567l1.80163 5.9988c.07677.2319.50437 1 1.5 1z" fill="url(#aj)"/><path d="m8 30h8 8c1.04 0 1.3913-.6459 1.5-1 0 0 1.9359-6.0716 1.8155-6.5639-.0733-.2604-.3936-.2916-.4887-.0916l-.1527.3512-.1069-.2596c-.0705-.161-.4263-.371-.7789 0l-.7483.8705c-.0658.0768-.1824.1001-.229 0l-.3443-.7924c-.175-.385-.8983-.4783-1.4641.035l-.8031.7574c-.1477.1526-.3752.1818-.5192 0l-.7025-.8705c-.3552-.4294-1.1894-.2427-1.7257.1527l-.8552.7178c-.2068.1468-.4635.1701-.6567 0l-.7984-.7924c-.4492-.3616-1.3708-.49-1.9192.035l-.7948.7574c-.1443.1118-.4477.1293-.6261 0l-1.0407-.8704c-.4492-.3828-1.3067-.3128-1.6858.1526l-.5722.7178c-.0928.106-.262.1527-.4734 0l-.97738-.8705c-.3862-.3244-1.1212-.3302-1.35916.1527l-.27489.6109s-.07631.2596-.2138.1069l-.71776-.8705c-.50974-.5518-.90057 0-.97738.2596l-.15271-.3512c-.12632-.2736-.64547 0-.45815.6567l1.80163 5.9988c.07677.2319.50437 1 1.5 1z" fill="url(#ak)"/><path d="m8 30h8 8c1.04 0 1.3913-.6459 1.5-1 0 0 1.9359-6.0716 1.8155-6.5639-.0733-.2604-.3936-.2916-.4887-.0916l-.1527.3512-.1069-.2596c-.0705-.161-.4263-.371-.7789 0l-.7483.8705c-.0658.0768-.1824.1001-.229 0l-.3443-.7924c-.175-.385-.8983-.4783-1.4641.035l-.8031.7574c-.1477.1526-.3752.1818-.5192 0l-.7025-.8705c-.3552-.4294-1.1894-.2427-1.7257.1527l-.8552.7178c-.2068.1468-.4635.1701-.6567 0l-.7984-.7924c-.4492-.3616-1.3708-.49-1.9192.035l-.7948.7574c-.1443.1118-.4477.1293-.6261 0l-1.0407-.8704c-.4492-.3828-1.3067-.3128-1.6858.1526l-.5722.7178c-.0928.106-.262.1527-.4734 0l-.97738-.8705c-.3862-.3244-1.1212-.3302-1.35916.1527l-.27489.6109s-.07631.2596-.2138.1069l-.71776-.8705c-.50974-.5518-.90057 0-.97738.2596l-.15271-.3512c-.12632-.2736-.64547 0-.45815.6567l1.80163 5.9988c.07677.2319.50437 1 1.5 1z" fill="url(#al)"/><path d="m8 30h8 8c1.04 0 1.3913-.6459 1.5-1 0 0 1.9359-6.0716 1.8155-6.5639-.0733-.2604-.3936-.2916-.4887-.0916l-.1527.3512-.1069-.2596c-.0705-.161-.4263-.371-.7789 0l-.7483.8705c-.0658.0768-.1824.1001-.229 0l-.3443-.7924c-.175-.385-.8983-.4783-1.4641.035l-.8031.7574c-.1477.1526-.3752.1818-.5192 0l-.7025-.8705c-.3552-.4294-1.1894-.2427-1.7257.1527l-.8552.7178c-.2068.1468-.4635.1701-.6567 0l-.7984-.7924c-.4492-.3616-1.3708-.49-1.9192.035l-.7948.7574c-.1443.1118-.4477.1293-.6261 0l-1.0407-.8704c-.4492-.3828-1.3067-.3128-1.6858.1526l-.5722.7178c-.0928.106-.262.1527-.4734 0l-.97738-.8705c-.3862-.3244-1.1212-.3302-1.35916.1527l-.27489.6109s-.07631.2596-.2138.1069l-.71776-.8705c-.50974-.5518-.90057 0-.97738.2596l-.15271-.3512c-.12632-.2736-.64547 0-.45815.6567l1.80163 5.9988c.07677.2319.50437 1 1.5 1z" fill="url(#am)"/><g filter="url(#m)"><path d="m8.21093 29.8968h7.78877 7.7888c1.0126 0 1.3546-.546 1.4604-.8455 0 0 .5333-1.6882 1.0402-3.2075.3764-1.1285.7218-2.1648.6718-2.3422l-.0009-.0027c-.0705-.2176-.0788-.2431-.1709-.0747l-.1487.2969-.1041-.2195c-.0686-.1361-.4587-.3137-.8019 0l-.6719.736c-.1406.1761-.3047.2186-.4062 0 0 0-.1954-.4199-.3516-.736-.1563-.316-.7891-.4289-1.2266 0l-.7422.736c-.1484.2044-.5625.2683-.8058 0l-.684-.736c-.3458-.363-1.1624-.2493-1.6117.1292-.4493.3784-.7891.6068-.7891.6068-.2266.1619-.5469.2044-.7513 0l-.8971-.8135c-.4373-.3058-1.0131-.4439-1.5469 0l-.9757.8135c-.1962.169-.5399.1761-.7587 0l-1.0234-.8135c-.4373-.3236-.9981-.3935-1.3672 0l-.6719.8135c-.1406.169-.50779.1548-.67185 0l-.92969-.8135c-.32813-.3159-.90113-.4083-1.13282 0 0 0-.28125.5553-.35937.7231-.07812.1679-.28125.1955-.43749.0129l-.48439-.7361c-.49628-.4666-.86703.0775-.94181.297l-.14868-.2969c-.12298-.2314-.31063-.0887-.12826.4665l.59375 1.9688.93804 3.1919c.07474.1962.49106.8455 1.4604.8455z" fill="url(#an)"/><path d="m8.21093 29.8968h7.78877 7.7888c1.0126 0 1.3546-.546 1.4604-.8455 0 0 .5333-1.6882 1.0402-3.2075.3764-1.1285.7218-2.1648.6718-2.3422l-.0009-.0027c-.0705-.2176-.0788-.2431-.1709-.0747l-.1487.2969-.1041-.2195c-.0686-.1361-.4587-.3137-.8019 0l-.6719.736c-.1406.1761-.3047.2186-.4062 0 0 0-.1954-.4199-.3516-.736-.1563-.316-.7891-.4289-1.2266 0l-.7422.736c-.1484.2044-.5625.2683-.8058 0l-.684-.736c-.3458-.363-1.1624-.2493-1.6117.1292-.4493.3784-.7891.6068-.7891.6068-.2266.1619-.5469.2044-.7513 0l-.8971-.8135c-.4373-.3058-1.0131-.4439-1.5469 0l-.9757.8135c-.1962.169-.5399.1761-.7587 0l-1.0234-.8135c-.4373-.3236-.9981-.3935-1.3672 0l-.6719.8135c-.1406.169-.50779.1548-.67185 0l-.92969-.8135c-.32813-.3159-.90113-.4083-1.13282 0 0 0-.28125.5553-.35937.7231-.07812.1679-.28125.1955-.43749.0129l-.48439-.7361c-.49628-.4666-.86703.0775-.94181.297l-.14868-.2969c-.12298-.2314-.31063-.0887-.12826.4665l.59375 1.9688.93804 3.1919c.07474.1962.49106.8455 1.4604.8455z" fill="url(#ao)"/><path d="m8.21093 29.8968h7.78877 7.7888c1.0126 0 1.3546-.546 1.4604-.8455 0 0 .5333-1.6882 1.0402-3.2075.3764-1.1285.7218-2.1648.6718-2.3422l-.0009-.0027c-.0705-.2176-.0788-.2431-.1709-.0747l-.1487.2969-.1041-.2195c-.0686-.1361-.4587-.3137-.8019 0l-.6719.736c-.1406.1761-.3047.2186-.4062 0 0 0-.1954-.4199-.3516-.736-.1563-.316-.7891-.4289-1.2266 0l-.7422.736c-.1484.2044-.5625.2683-.8058 0l-.684-.736c-.3458-.363-1.1624-.2493-1.6117.1292-.4493.3784-.7891.6068-.7891.6068-.2266.1619-.5469.2044-.7513 0l-.8971-.8135c-.4373-.3058-1.0131-.4439-1.5469 0l-.9757.8135c-.1962.169-.5399.1761-.7587 0l-1.0234-.8135c-.4373-.3236-.9981-.3935-1.3672 0l-.6719.8135c-.1406.169-.50779.1548-.67185 0l-.92969-.8135c-.32813-.3159-.90113-.4083-1.13282 0 0 0-.28125.5553-.35937.7231-.07812.1679-.28125.1955-.43749.0129l-.48439-.7361c-.49628-.4666-.86703.0775-.94181.297l-.14868-.2969c-.12298-.2314-.31063-.0887-.12826.4665l.59375 1.9688.93804 3.1919c.07474.1962.49106.8455 1.4604.8455z" fill="url(#ap)"/><path d="m8.21093 29.8968h7.78877 7.7888c1.0126 0 1.3546-.546 1.4604-.8455 0 0 .5333-1.6882 1.0402-3.2075.3764-1.1285.7218-2.1648.6718-2.3422l-.0009-.0027c-.0705-.2176-.0788-.2431-.1709-.0747l-.1487.2969-.1041-.2195c-.0686-.1361-.4587-.3137-.8019 0l-.6719.736c-.1406.1761-.3047.2186-.4062 0 0 0-.1954-.4199-.3516-.736-.1563-.316-.7891-.4289-1.2266 0l-.7422.736c-.1484.2044-.5625.2683-.8058 0l-.684-.736c-.3458-.363-1.1624-.2493-1.6117.1292-.4493.3784-.7891.6068-.7891.6068-.2266.1619-.5469.2044-.7513 0l-.8971-.8135c-.4373-.3058-1.0131-.4439-1.5469 0l-.9757.8135c-.1962.169-.5399.1761-.7587 0l-1.0234-.8135c-.4373-.3236-.9981-.3935-1.3672 0l-.6719.8135c-.1406.169-.50779.1548-.67185 0l-.92969-.8135c-.32813-.3159-.90113-.4083-1.13282 0 0 0-.28125.5553-.35937.7231-.07812.1679-.28125.1955-.43749.0129l-.48439-.7361c-.49628-.4666-.86703.0775-.94181.297l-.14868-.2969c-.12298-.2314-.31063-.0887-.12826.4665l.59375 1.9688.93804 3.1919c.07474.1962.49106.8455 1.4604.8455z" fill="url(#aq)"/></g><g filter="url(#n)"><path d="m5.13257 22.7698c-.12298-.2547-.31848-.0001-.1361.6113l.62364 1.9856c6.90239 3.6361 20.71609.0473 20.71609.0473.3676-1.2171.7966-2.438.8669-2.6796s-.134-.2722-.2265-.086l-.3282.7813-.0546-.6953c0-.1875-.4922-.3282-.8594.1206l-.6719.8104c-.1406.1939-.1172.2408-.2187 0 0 0-.1954-.4624-.3516-.8104-.1563-.348-.9766-.4723-1.4141 0l-.7422.8104c-.1484.2251-.2644.2954-.5078 0l-.6839-.8104c-.3458-.3997-1.4605-.2745-1.9098.1422s-.7891.6682-.7891.6682c-.2266.1783-.5469.2251-.7513 0l-.8971-.8958c-.4373-.3367-1.138-.4887-1.6719.0001l-.9757.8957c-.1962.1861-.4149.1939-.6337 0l-1.0234-.8958c-.4373-.3563-1.2403-.4332-1.6094 0l-.6719.8958c-.1406.1861-.26559.1705-.42966 0l-.92968-.8957c-.32813-.3479-.90113-.4496-1.13282-.0001 0 0-.28125.6115-.35937.7963s-.28125.2153-.4375.0142l-.69881-.8104c-.49628-.5138-.86703.0854-.94181.3271z" fill="url(#ar)"/><path d="m5.13257 22.7698c-.12298-.2547-.31848-.0001-.1361.6113l.62364 1.9856c6.90239 3.6361 20.71609.0473 20.71609.0473.3676-1.2171.7966-2.438.8669-2.6796s-.134-.2722-.2265-.086l-.3282.7813-.0546-.6953c0-.1875-.4922-.3282-.8594.1206l-.6719.8104c-.1406.1939-.1172.2408-.2187 0 0 0-.1954-.4624-.3516-.8104-.1563-.348-.9766-.4723-1.4141 0l-.7422.8104c-.1484.2251-.2644.2954-.5078 0l-.6839-.8104c-.3458-.3997-1.4605-.2745-1.9098.1422s-.7891.6682-.7891.6682c-.2266.1783-.5469.2251-.7513 0l-.8971-.8958c-.4373-.3367-1.138-.4887-1.6719.0001l-.9757.8957c-.1962.1861-.4149.1939-.6337 0l-1.0234-.8958c-.4373-.3563-1.2403-.4332-1.6094 0l-.6719.8958c-.1406.1861-.26559.1705-.42966 0l-.92968-.8957c-.32813-.3479-.90113-.4496-1.13282-.0001 0 0-.28125.6115-.35937.7963s-.28125.2153-.4375.0142l-.69881-.8104c-.49628-.5138-.86703.0854-.94181.3271z" fill="url(#as)"/><path d="m5.13257 22.7698c-.12298-.2547-.31848-.0001-.1361.6113l.62364 1.9856c6.90239 3.6361 20.71609.0473 20.71609.0473.3676-1.2171.7966-2.438.8669-2.6796s-.134-.2722-.2265-.086l-.3282.7813-.0546-.6953c0-.1875-.4922-.3282-.8594.1206l-.6719.8104c-.1406.1939-.1172.2408-.2187 0 0 0-.1954-.4624-.3516-.8104-.1563-.348-.9766-.4723-1.4141 0l-.7422.8104c-.1484.2251-.2644.2954-.5078 0l-.6839-.8104c-.3458-.3997-1.4605-.2745-1.9098.1422s-.7891.6682-.7891.6682c-.2266.1783-.5469.2251-.7513 0l-.8971-.8958c-.4373-.3367-1.138-.4887-1.6719.0001l-.9757.8957c-.1962.1861-.4149.1939-.6337 0l-1.0234-.8958c-.4373-.3563-1.2403-.4332-1.6094 0l-.6719.8958c-.1406.1861-.26559.1705-.42966 0l-.92968-.8957c-.32813-.3479-.90113-.4496-1.13282-.0001 0 0-.28125.6115-.35937.7963s-.28125.2153-.4375.0142l-.69881-.8104c-.49628-.5138-.86703.0854-.94181.3271z" fill="url(#at)"/><path d="m5.13257 22.7698c-.12298-.2547-.31848-.0001-.1361.6113l.62364 1.9856c6.90239 3.6361 20.71609.0473 20.71609.0473.3676-1.2171.7966-2.438.8669-2.6796s-.134-.2722-.2265-.086l-.3282.7813-.0546-.6953c0-.1875-.4922-.3282-.8594.1206l-.6719.8104c-.1406.1939-.1172.2408-.2187 0 0 0-.1954-.4624-.3516-.8104-.1563-.348-.9766-.4723-1.4141 0l-.7422.8104c-.1484.2251-.2644.2954-.5078 0l-.6839-.8104c-.3458-.3997-1.4605-.2745-1.9098.1422s-.7891.6682-.7891.6682c-.2266.1783-.5469.2251-.7513 0l-.8971-.8958c-.4373-.3367-1.138-.4887-1.6719.0001l-.9757.8957c-.1962.1861-.4149.1939-.6337 0l-1.0234-.8958c-.4373-.3563-1.2403-.4332-1.6094 0l-.6719.8958c-.1406.1861-.26559.1705-.42966 0l-.92968-.8957c-.32813-.3479-.90113-.4496-1.13282-.0001 0 0-.28125.6115-.35937.7963s-.28125.2153-.4375.0142l-.69881-.8104c-.49628-.5138-.86703.0854-.94181.3271z" fill="url(#au)"/></g><path clip-rule="evenodd" d="m16.0131 25.125c.2761 0 .5.2239.5.5v4.375h-1v-4.375c0-.2761.2238-.5.5-.5z" fill="url(#aw)" fill-rule="evenodd"/><path clip-rule="evenodd" d="m10.4631 25.01c.2706-.0549.5345.1199.5894.3906l.9163 4.5894h-1.0057l-.8906-4.3906c-.0549-.2707.12-.5345.3906-.5894z" fill="url(#ax)" fill-rule="evenodd"/><g filter="url(#o)"><path d="m16.5519 7.12112c-.2.2-.51.2-.71 0l-.74-.74c-.2-.2-.2-.51 0-.71s.51-.2.71 0l.74.75c.2.19.2.51 0 .7z" fill="#c5419e"/></g><path d="m16.725 6.8406c-.2.2-.51.2-.71 0l-.74-.74c-.2-.2-.2-.51 0-.71s.51-.2.71 0l.74.75c.2.19.2.51 0 .7z" fill="url(#ay)"/><path d="m16.725 6.8406c-.2.2-.51.2-.71 0l-.74-.74c-.2-.2-.2-.51 0-.71s.51-.2.71 0l.74.75c.2.19.2.51 0 .7z" fill="url(#az)"/><path clip-rule="evenodd" d="m21.5912 25.0084c.2715.0503.4508.3113.4004.5828l-.8432 4.4088h-1.0078l.8678-4.5913c.0504-.2715.3113-.4507.5828-.4003z" fill="url(#aA)" fill-rule="evenodd"/><g filter="url(#p)"><path d="m16.725 13.9229c-.2.2-.51.2-.71 0l-.74-.74c-.2-.2-.2-.51 0-.71s.51-.2.71 0l.74.74c.2.2.2.51 0 .71z" fill="#d939b9"/></g><path d="m16.73 13.735c-.2.2-.51.2-.71 0l-.74-.74c-.2-.2-.2-.51 0-.71s.51-.2.71 0l.74.74c.2.2.2.51 0 .71z" fill="url(#aB)"/><path d="m16.73 13.735c-.2.2-.51.2-.71 0l-.74-.74c-.2-.2-.2-.51 0-.71s.51-.2.71 0l.74.74c.2.2.2.51 0 .71z" fill="url(#aC)"/><g filter="url(#q)"><path d="m5.89062 22.4688.90626 1.0624" stroke="#64afff" stroke-width=".25"/></g></svg>