<svg fill="none" height="32" viewBox="0 0 32 32" width="32" xmlns="http://www.w3.org/2000/svg" xmlns:xlink="http://www.w3.org/1999/xlink"><filter id="a" color-interpolation-filters="sRGB" filterUnits="userSpaceOnUse" height="5.75" width="5.5" x="19.002" y="5.012"><feFlood flood-opacity="0" result="BackgroundImageFix"/><feBlend in="SourceGraphic" in2="BackgroundImageFix" mode="normal" result="shape"/><feColorMatrix in="SourceAlpha" result="hardAlpha" type="matrix" values="0 0 0 0 0 0 0 0 0 0 0 0 0 0 0 0 0 0 127 0"/><feOffset dy="-.25"/><feGaussianBlur stdDeviation=".25"/><feComposite in2="hardAlpha" k2="-1" k3="1" operator="arithmetic"/><feColorMatrix type="matrix" values="0 0 0 0 0.894118 0 0 0 0 0.584314 0 0 0 0 0.505882 0 0 0 1 0"/><feBlend in2="shape" mode="normal" result="effect1_innerShadow_4002_3961"/></filter><filter id="b" color-interpolation-filters="sRGB" filterUnits="userSpaceOnUse" height="2.854" width="1.919" x="18.889" y="5.758"><feFlood flood-opacity="0" result="BackgroundImageFix"/><feBlend in="SourceGraphic" in2="BackgroundImageFix" mode="normal" result="shape"/><feGaussianBlur result="effect1_foregroundBlur_4002_3961" stdDeviation=".225"/></filter><filter id="c" color-interpolation-filters="sRGB" filterUnits="userSpaceOnUse" height="4.5" width="4.5" x="19.502" y="5.762"><feFlood flood-opacity="0" result="BackgroundImageFix"/><feBlend in="SourceGraphic" in2="BackgroundImageFix" mode="normal" result="shape"/><feGaussianBlur result="effect1_foregroundBlur_4002_3961" stdDeviation=".25"/></filter><filter id="d" color-interpolation-filters="sRGB" filterUnits="userSpaceOnUse" height="5.581" width="3.711" x="13.677" y="9.033"><feFlood flood-opacity="0" result="BackgroundImageFix"/><feBlend in="SourceGraphic" in2="BackgroundImageFix" mode="normal" result="shape"/><feColorMatrix in="SourceAlpha" result="hardAlpha" type="matrix" values="0 0 0 0 0 0 0 0 0 0 0 0 0 0 0 0 0 0 127 0"/><feOffset dx=".2" dy="-.1"/><feGaussianBlur stdDeviation=".3"/><feComposite in2="hardAlpha" k2="-1" k3="1" operator="arithmetic"/><feColorMatrix type="matrix" values="0 0 0 0 0.427451 0 0 0 0 0.380392 0 0 0 0 0.478431 0 0 0 1 0"/><feBlend in2="shape" mode="normal" result="effect1_innerShadow_4002_3961"/><feColorMatrix in="SourceAlpha" result="hardAlpha" type="matrix" values="0 0 0 0 0 0 0 0 0 0 0 0 0 0 0 0 0 0 127 0"/><feOffset dx="-.1" dy=".05"/><feGaussianBlur stdDeviation=".15"/><feComposite in2="hardAlpha" k2="-1" k3="1" operator="arithmetic"/><feColorMatrix type="matrix" values="0 0 0 0 0.678431 0 0 0 0 0.678431 0 0 0 0 0.694118 0 0 0 1 0"/><feBlend in2="effect1_innerShadow_4002_3961" mode="normal" result="effect2_innerShadow_4002_3961"/></filter><filter id="e" color-interpolation-filters="sRGB" filterUnits="userSpaceOnUse" height="7.014" width="4.419" x="10.782" y="9.512"><feFlood flood-opacity="0" result="BackgroundImageFix"/><feBlend in="SourceGraphic" in2="BackgroundImageFix" mode="normal" result="shape"/><feColorMatrix in="SourceAlpha" result="hardAlpha" type="matrix" values="0 0 0 0 0 0 0 0 0 0 0 0 0 0 0 0 0 0 127 0"/><feOffset dx=".2" dy="-.1"/><feGaussianBlur stdDeviation=".3"/><feComposite in2="hardAlpha" k2="-1" k3="1" operator="arithmetic"/><feColorMatrix type="matrix" values="0 0 0 0 0.427451 0 0 0 0 0.380392 0 0 0 0 0.478431 0 0 0 1 0"/><feBlend in2="shape" mode="normal" result="effect1_innerShadow_4002_3961"/><feColorMatrix in="SourceAlpha" result="hardAlpha" type="matrix" values="0 0 0 0 0 0 0 0 0 0 0 0 0 0 0 0 0 0 127 0"/><feOffset dx="-.1" dy=".05"/><feGaussianBlur stdDeviation=".15"/><feComposite in2="hardAlpha" k2="-1" k3="1" operator="arithmetic"/><feColorMatrix type="matrix" values="0 0 0 0 0.678431 0 0 0 0 0.678431 0 0 0 0 0.694118 0 0 0 1 0"/><feBlend in2="effect1_innerShadow_4002_3961" mode="normal" result="effect2_innerShadow_4002_3961"/></filter><filter id="f" color-interpolation-filters="sRGB" filterUnits="userSpaceOnUse" height="1.932" width="3.88" x="23.502" y="2.512"><feFlood flood-opacity="0" result="BackgroundImageFix"/><feBlend in="SourceGraphic" in2="BackgroundImageFix" mode="normal" result="shape"/><feColorMatrix in="SourceAlpha" result="hardAlpha" type="matrix" values="0 0 0 0 0 0 0 0 0 0 0 0 0 0 0 0 0 0 127 0"/><feOffset dx=".1" dy="-.25"/><feGaussianBlur stdDeviation=".125"/><feComposite in2="hardAlpha" k2="-1" k3="1" operator="arithmetic"/><feColorMatrix type="matrix" values="0 0 0 0 0.0666667 0 0 0 0 0.027451 0 0 0 0 0.0745098 0 0 0 1 0"/><feBlend in2="shape" mode="normal" result="effect1_innerShadow_4002_3961"/></filter><filter id="g" color-interpolation-filters="sRGB" filterUnits="userSpaceOnUse" height="5.238" width="2.707" x="27.685" y="7.201"><feFlood flood-opacity="0" result="BackgroundImageFix"/><feBlend in="SourceGraphic" in2="BackgroundImageFix" mode="normal" result="shape"/><feGaussianBlur result="effect1_foregroundBlur_4002_3961" stdDeviation=".25"/></filter><filter id="h" color-interpolation-filters="sRGB" filterUnits="userSpaceOnUse" height="2.6" width="3.6" x="26.702" y="12.462"><feFlood flood-opacity="0" result="BackgroundImageFix"/><feBlend in="SourceGraphic" in2="BackgroundImageFix" mode="normal" result="shape"/><feGaussianBlur result="effect1_foregroundBlur_4002_3961" stdDeviation=".1"/></filter><filter id="i" color-interpolation-filters="sRGB" filterUnits="userSpaceOnUse" height="1.475" width="1.385" x="26.54" y="6.587"><feFlood flood-opacity="0" result="BackgroundImageFix"/><feBlend in="SourceGraphic" in2="BackgroundImageFix" mode="normal" result="shape"/><feGaussianBlur result="effect1_foregroundBlur_4002_3961" stdDeviation=".1"/></filter><filter id="j" color-interpolation-filters="sRGB" filterUnits="userSpaceOnUse" height="1.044" width="1.285" x="25.293" y="6.544"><feFlood flood-opacity="0" result="BackgroundImageFix"/><feBlend in="SourceGraphic" in2="BackgroundImageFix" mode="normal" result="shape"/><feGaussianBlur result="effect1_foregroundBlur_4002_3961" stdDeviation=".05"/></filter><filter id="k" color-interpolation-filters="sRGB" filterUnits="userSpaceOnUse" height="1.413" width="3.575" x="23.621" y="2.759"><feFlood flood-opacity="0" result="BackgroundImageFix"/><feBlend in="SourceGraphic" in2="BackgroundImageFix" mode="normal" result="shape"/><feGaussianBlur result="effect1_foregroundBlur_4002_3961" stdDeviation=".125"/></filter><filter id="l" color-interpolation-filters="sRGB" filterUnits="userSpaceOnUse" height="6.647" width="3.936" x="11.252" y="9.553"><feFlood flood-opacity="0" result="BackgroundImageFix"/><feBlend in="SourceGraphic" in2="BackgroundImageFix" mode="normal" result="shape"/><feGaussianBlur result="effect1_foregroundBlur_4002_3961" stdDeviation=".25"/></filter><filter id="m" color-interpolation-filters="sRGB" filterUnits="userSpaceOnUse" height="5.109" width="3.133" x="14.119" y="9.153"><feFlood flood-opacity="0" result="BackgroundImageFix"/><feBlend in="SourceGraphic" in2="BackgroundImageFix" mode="normal" result="shape"/><feGaussianBlur result="effect1_foregroundBlur_4002_3961" stdDeviation=".25"/></filter><filter id="n" color-interpolation-filters="sRGB" filterUnits="userSpaceOnUse" height="5.795" width="4.123" x="11.919" y="18.437"><feFlood flood-opacity="0" result="BackgroundImageFix"/><feBlend in="SourceGraphic" in2="BackgroundImageFix" mode="normal" result="shape"/><feGaussianBlur result="effect1_foregroundBlur_4002_3961" stdDeviation=".25"/></filter><radialGradient id="o" cx="0" cy="0" gradientTransform="matrix(-8.24999371 6.43748951 -5.94882128 -7.62373874 28.627 21.9155)" gradientUnits="userSpaceOnUse" r="1"><stop offset="0" stop-color="#ff791b"/><stop offset="1" stop-color="#ec5925"/></radialGradient><linearGradient id="p" gradientUnits="userSpaceOnUse" x1="30.314" x2="28.846" y1="19.572" y2="19.572"><stop offset="0" stop-color="#fbb8b7"/><stop offset="1" stop-color="#f09ca2"/></linearGradient><radialGradient id="q" cx="0" cy="0" gradientTransform="matrix(0 2.1875 -1.95964 0 28.6719 18.4794)" gradientUnits="userSpaceOnUse" r="1"><stop offset="0" stop-color="#e0879b"/><stop offset="1" stop-color="#e0879b" stop-opacity="0"/></radialGradient><linearGradient id="r" gradientUnits="userSpaceOnUse" x1="21.658" x2="21.658" y1="14.947" y2="10.197"><stop offset="0" stop-color="#271d28"/><stop offset="1" stop-color="#271d28" stop-opacity="0"/></linearGradient><radialGradient id="s" cx="0" cy="0" gradientTransform="matrix(-2.06249844 .84374837 -1.79522903 -4.3883428 22.2833 3.41551)" gradientUnits="userSpaceOnUse" r="1"><stop offset=".481" stop-color="#444040"/><stop offset="1" stop-color="#444040" stop-opacity="0"/></radialGradient><radialGradient id="t" cx="0" cy="0" gradientTransform="matrix(.3281233 2.98437609 -.50734374 .05578094 20.752 1.27489)" gradientUnits="userSpaceOnUse" r="1"><stop offset=".288" stop-color="#1d0918"/><stop offset="1" stop-color="#1d0918" stop-opacity="0"/></radialGradient><radialGradient id="u" cx="0" cy="0" gradientTransform="matrix(3.5779419 4.09049166 -4.75983594 4.16341552 19.2678 6.10627)" gradientUnits="userSpaceOnUse" r="1"><stop offset="0" stop-color="#f2b595"/><stop offset=".691" stop-color="#e9a47f"/></radialGradient><radialGradient id="v" cx="0" cy="0" gradientTransform="matrix(.02321955 2.08777088 -1.69852496 .01889048 21.288 8.01233)" gradientUnits="userSpaceOnUse" r="1"><stop offset=".407" stop-color="#e3997b"/><stop offset="1" stop-color="#e69b7c"/></radialGradient><linearGradient id="w"><stop offset=".256" stop-color="#cfcbd9"/><stop offset="1" stop-color="#978ca5"/></linearGradient><radialGradient id="x" cx="0" cy="0" gradientTransform="matrix(-1.92187863 1.03123657 -2.88721844 -5.38080549 16.3145 11.5717)" gradientUnits="userSpaceOnUse" r="1" xlink:href="#w"/><radialGradient id="y" cx="0" cy="0" gradientTransform="matrix(-2.32064286 1.30345596 -3.73997566 -6.6585662 13.9457 12.6952)" gradientUnits="userSpaceOnUse" r="1" xlink:href="#w"/><linearGradient id="z" gradientUnits="userSpaceOnUse" x1="22.242" x2="25.491" y1="9.769" y2="9.465"><stop offset=".126" stop-color="#ffc09f"/><stop offset="1" stop-color="#ffc09f" stop-opacity="0"/></linearGradient><radialGradient id="A" cx="0" cy="0" gradientTransform="matrix(0 -8.58505 32.883 0 30.002 18.9123)" gradientUnits="userSpaceOnUse" r="1"><stop offset="0" stop-color="#d39495"/><stop offset="1" stop-color="#d39495" stop-opacity="0"/></radialGradient><radialGradient id="B" cx="0" cy="0" gradientTransform="matrix(-14.502 0 0 -6.80925 30.002 19.1825)" gradientUnits="userSpaceOnUse" r="1"><stop offset=".016" stop-color="#cd7c94"/><stop offset=".572" stop-color="#cd7c94" stop-opacity="0"/></radialGradient><radialGradient id="C" cx="0" cy="0" gradientTransform="matrix(4.51122632 -5.08063424 1.58972979 1.41156213 20.9796 4.12002)" gradientUnits="userSpaceOnUse" r="1"><stop offset=".153" stop-color="#ffc2a1"/><stop offset="1" stop-color="#ffc2a1" stop-opacity="0"/></radialGradient><radialGradient id="D" cx="0" cy="0" gradientTransform="matrix(0 -2.5 2.95858 0 25.9375 6.16689)" gradientUnits="userSpaceOnUse" r="1"><stop offset=".175" stop-color="#e5a493"/><stop offset="1" stop-color="#e5a493" stop-opacity="0"/></radialGradient><radialGradient id="E" cx="0" cy="0" gradientTransform="matrix(1.99218803 -3.0234355 .37608215 .2478063 20.7187 3.29327)" gradientUnits="userSpaceOnUse" r="1"><stop offset=".109" stop-color="#c6866b"/><stop offset="1" stop-color="#c6866b" stop-opacity="0"/></radialGradient><radialGradient id="F" cx="0" cy="0" gradientTransform="matrix(1.11119036 -8.32754092 15.95151771 2.12850023 18.9062 26.3585)" gradientUnits="userSpaceOnUse" r="1"><stop offset="0" stop-color="#ffc6b6"/><stop offset="1" stop-color="#f3b29b"/><stop offset="1" stop-color="#ffc8a9"/></radialGradient><radialGradient id="G" cx="0" cy="0" gradientTransform="matrix(0 3.97333 -4.45878 0 17.9108 20.5727)" gradientUnits="userSpaceOnUse" r="1"><stop offset=".429" stop-color="#e9a797"/><stop offset="1" stop-color="#e9a797" stop-opacity="0"/></radialGradient><radialGradient id="H" cx="0" cy="0" gradientTransform="matrix(-2.28363871 1.52242192 -.4085099 -.61276642 23.6449 20.3513)" gradientUnits="userSpaceOnUse" r="1"><stop offset=".247" stop-color="#ffdac2"/><stop offset="1" stop-color="#ffdac2" stop-opacity="0"/></radialGradient><radialGradient id="I" cx="0" cy="0" gradientTransform="matrix(2.1242699 -5.29723991 3.91471162 1.56985604 13.452 23.7726)" gradientUnits="userSpaceOnUse" r="1"><stop offset="0" stop-color="#eba59c"/><stop offset=".875" stop-color="#f6bf9d" stop-opacity="0"/></radialGradient><radialGradient id="J" cx="0" cy="0" gradientTransform="matrix(-1.31451897 2.44214348 -1.90816427 -1.02709695 16.377 21.0562)" gradientUnits="userSpaceOnUse" r="1"><stop offset=".233" stop-color="#dd8682"/><stop offset="1" stop-color="#dd8682" stop-opacity="0"/></radialGradient><radialGradient id="K" cx="0" cy="0" gradientTransform="matrix(-.9687335 2.50000269 -2.82076332 -1.093026 17.7812 21.2327)" gradientUnits="userSpaceOnUse" r="1"><stop offset=".239" stop-color="#cf7874"/><stop offset="1" stop-color="#cf7874" stop-opacity="0"/></radialGradient><radialGradient id="L" cx="0" cy="0" gradientTransform="matrix(1.90624983 1.06250024 -1.39265838 2.49859218 20.9687 19.9808)" gradientUnits="userSpaceOnUse" r="1"><stop offset=".305" stop-color="#f7b693"/><stop offset="1" stop-color="#f7b693" stop-opacity="0"/></radialGradient><radialGradient id="M" cx="0" cy="0" gradientTransform="matrix(2.01562799 -3.09374904 1.20203121 .78314296 20.625 25.9495)" gradientUnits="userSpaceOnUse" r="1"><stop offset=".157" stop-color="#e2a29f"/><stop offset="1" stop-color="#e2a29f" stop-opacity="0"/></radialGradient><radialGradient id="N" cx="0" cy="0" gradientTransform="matrix(2.29840824 -.29607823 .89242404 6.927746 21.5569 17.9264)" gradientUnits="userSpaceOnUse" r="1"><stop offset="0" stop-color="#ffbc98"/><stop offset="1" stop-color="#fcc3b0"/></radialGradient><radialGradient id="O" cx="0" cy="0" gradientTransform="matrix(1.3372425 -1.84609997 .63208236 .4578557 23.6188 13.4181)" gradientUnits="userSpaceOnUse" r="1"><stop offset=".201" stop-color="#ffdec4"/><stop offset="1" stop-color="#ffdec4" stop-opacity="0"/></radialGradient><radialGradient id="P" cx="0" cy="0" gradientTransform="matrix(-.07120437 3.52807154 -.49414737 -.009973 21.5597 17.0947)" gradientUnits="userSpaceOnUse" r="1"><stop offset=".238" stop-color="#ffc8a2"/><stop offset="1" stop-color="#f3b388" stop-opacity="0"/><stop offset="1" stop-color="#ffc8a2" stop-opacity="0"/></radialGradient><radialGradient id="Q" cx="0" cy="0" gradientTransform="matrix(-2.0625047 .24999227 -.18569892 -1.53206693 21.875 19.5263)" gradientUnits="userSpaceOnUse" r="1"><stop offset=".262" stop-color="#ffe2c7"/><stop offset="1" stop-color="#f9c2a0"/></radialGradient><radialGradient id="R" cx="0" cy="0" gradientTransform="matrix(2.15625124 -.93750207 1.19932594 2.75844513 19.6562 23.125)" gradientUnits="userSpaceOnUse" r="1"><stop offset=".137" stop-color="#d6858b"/><stop offset="1" stop-color="#d6858b" stop-opacity="0"/></radialGradient><radialGradient id="S" cx="0" cy="0" gradientTransform="matrix(1.00980933 4.10520618 -2.79361398 .68718046 19.4278 19.0865)" gradientUnits="userSpaceOnUse" r="1"><stop offset=".874" stop-color="#d78f95" stop-opacity="0"/><stop offset=".928" stop-color="#d78f95"/></radialGradient><radialGradient id="T" cx="0" cy="0" gradientTransform="matrix(2.10937057 -1.31249766 1.32206521 2.12474698 18.2187 19.8075)" gradientUnits="userSpaceOnUse" r="1"><stop offset=".695" stop-color="#f5be9d"/><stop offset="1" stop-color="#f5be9d" stop-opacity="0"/></radialGradient><radialGradient id="U" cx="0" cy="0" gradientTransform="matrix(-2.14015996 .26569861 -.20201369 -1.62718806 20.5708 19.5965)" gradientUnits="userSpaceOnUse" r="1"><stop offset=".262" stop-color="#ffe3c7"/><stop offset="1" stop-color="#ffcaa6"/></radialGradient><radialGradient id="V" cx="0" cy="0" gradientTransform="matrix(2.62660207 -1.36132672 3.15352719 6.0845504 17.5897 23.0583)" gradientUnits="userSpaceOnUse" r="1"><stop offset=".048" stop-color="#d37773"/><stop offset="1" stop-color="#dc8890" stop-opacity="0"/></radialGradient><radialGradient id="W" cx="0" cy="0" gradientTransform="matrix(1.04782998 4.36318406 -2.90656917 .69802013 18.0315 19.1291)" gradientUnits="userSpaceOnUse" r="1"><stop offset=".874" stop-color="#d88992" stop-opacity="0"/><stop offset=".928" stop-color="#d88992"/></radialGradient><radialGradient id="X" cx="0" cy="0" gradientTransform="matrix(3.2278534 -1.08318282 .87408296 2.60474188 15.125 19.5625)" gradientUnits="userSpaceOnUse" r="1"><stop offset=".598" stop-color="#fbc09b"/><stop offset="1" stop-color="#fbc09b" stop-opacity="0"/></radialGradient><radialGradient id="Y" cx="0" cy="0" gradientTransform="matrix(-2.99015301 1.85216763 -1.10930904 -1.79087664 17.9901 19.4126)" gradientUnits="userSpaceOnUse" r="1"><stop offset=".086" stop-color="#ffe1c9"/><stop offset="1" stop-color="#f3bd9b"/></radialGradient><radialGradient id="Z" cx="0" cy="0" gradientTransform="matrix(.45312714 -1.35937738 2.02968834 .67656479 15.7812 22.921)" gradientUnits="userSpaceOnUse" r="1"><stop offset=".095" stop-color="#e08a89"/><stop offset="1" stop-color="#e08a89" stop-opacity="0"/></radialGradient><linearGradient id="aa" gradientUnits="userSpaceOnUse" x1="13.129" x2="15.065" y1="20.761" y2="20.169"><stop offset="0" stop-color="#eba59c"/><stop offset="1" stop-color="#eba59c" stop-opacity="0"/></linearGradient><linearGradient id="ab" gradientUnits="userSpaceOnUse" x1="27.953" x2="28.734" y1="11.557" y2="8.12"><stop offset="0" stop-color="#df9f93"/><stop offset=".675" stop-color="#fcc0a3"/></linearGradient><linearGradient id="ac" gradientUnits="userSpaceOnUse" x1="29.298" x2="29.298" y1="7.269" y2="11.762"><stop offset="0" stop-color="#f5bea6" stop-opacity="0"/><stop offset=".141" stop-color="#f5bea6"/></linearGradient><radialGradient id="ad" cx="0" cy="0" gradientTransform="matrix(0 -1.253 2.26733 0 30.0801 11.7623)" gradientUnits="userSpaceOnUse" r="1"><stop offset=".163" stop-color="#d99890"/><stop offset="1" stop-color="#d99890" stop-opacity="0"/></radialGradient><radialGradient id="ae" cx="0" cy="0" gradientTransform="matrix(.85142516 -2.94637656 .58301352 .16847554 28.7148 10.2855)" gradientUnits="userSpaceOnUse" r="1"><stop offset=".189" stop-color="#fbbfa2"/><stop offset="1" stop-color="#fbbfa2" stop-opacity="0"/></radialGradient><linearGradient id="af" gradientUnits="userSpaceOnUse" x1="29.688" x2="29.688" y1="11.903" y2="11.512"><stop offset=".105" stop-color="#d09088"/><stop offset="1" stop-color="#d09088" stop-opacity="0"/></linearGradient><linearGradient id="ag" gradientUnits="userSpaceOnUse" x1="27.689" x2="28.375" y1="14.322" y2="13.464"><stop offset="0" stop-color="#e8b0a4"/><stop offset="1" stop-color="#e8b0a4" stop-opacity="0"/></linearGradient><radialGradient id="ah" cx="0" cy="0" gradientTransform="matrix(-2.08594 0 0 -2.32812 30.0958 14.0561)" gradientUnits="userSpaceOnUse" r="1"><stop offset="0" stop-color="#900553"/><stop offset="1" stop-color="#87004d"/></radialGradient><linearGradient id="ai" gradientUnits="userSpaceOnUse" x1="12.269" x2="18.622" y1="25.613" y2="28.392"><stop offset="0" stop-color="#ed6432"/><stop offset="1" stop-color="#ff6d2e"/></linearGradient><radialGradient id="aj" cx="0" cy="0" gradientTransform="matrix(-.19643671 .45136412 -4.60468301 -2.00398908 16.7218 26.129)" gradientUnits="userSpaceOnUse" r="1"><stop offset=".073" stop-color="#ff844d"/><stop offset=".629" stop-color="#ff844d" stop-opacity="0"/></radialGradient><linearGradient id="ak" gradientUnits="userSpaceOnUse" x1="11.32" x2="12.833" y1="25.162" y2="25.905"><stop offset=".399" stop-color="#ec7045"/><stop offset="1" stop-color="#ec7045" stop-opacity="0"/></linearGradient><linearGradient id="al" gradientUnits="userSpaceOnUse" x1="9.315" x2="17.502" y1="28.322" y2="31.416"><stop offset="0" stop-color="#e76025"/><stop offset="1" stop-color="#ff7732"/></linearGradient><linearGradient id="am" gradientUnits="userSpaceOnUse" x1="15.19" x2="14.44" y1="26.447" y2="28.166"><stop offset="0" stop-color="#ff8a25"/><stop offset="1" stop-color="#ff8a25" stop-opacity="0"/></linearGradient><radialGradient id="an" cx="0" cy="0" gradientTransform="matrix(-.46875246 1.06250273 -3.81978016 -1.68520163 16.9083 27.5093)" gradientUnits="userSpaceOnUse" r="1"><stop offset=".207" stop-color="#ff914a"/><stop offset="1" stop-color="#ff914a" stop-opacity="0"/></radialGradient><radialGradient id="ao" cx="0" cy="0" gradientTransform="matrix(0 1.36233 -2.16693 0 26.359 7.16965)" gradientUnits="userSpaceOnUse" r="1"><stop offset=".802" stop-color="#7f594b"/><stop offset="1" stop-color="#694b43"/><stop offset="1" stop-color="#804d49"/><stop offset="1" stop-color="#85534d"/><stop offset="1" stop-color="#704e45"/></radialGradient><linearGradient id="ap" gradientUnits="userSpaceOnUse" x1="27.608" x2="27.081" y1="7.26" y2="7.585"><stop offset="0" stop-color="#b4948d"/><stop offset="1" stop-color="#b4948d" stop-opacity="0"/></linearGradient><radialGradient id="aq" cx="0" cy="0" gradientTransform="matrix(-.32812789 -.53906074 .98203471 -.59776747 26.1153 7.41943)" gradientUnits="userSpaceOnUse" r="1"><stop offset=".208" stop-color="#c7a7a3" stop-opacity=".25"/><stop offset=".79" stop-color="#c7a7a3"/></radialGradient><radialGradient id="ar" cx="0" cy="0" gradientTransform="matrix(-.450836 -.82654844 .77083607 -.42044801 26.1925 7.61211)" gradientUnits="userSpaceOnUse" r="1"><stop offset=".766" stop-color="#ffe6e2" stop-opacity="0"/><stop offset=".966" stop-color="#ffe6e2"/></radialGradient><linearGradient id="as"><stop offset=".01" stop-color="#4a4a4a"/><stop offset="1" stop-color="#4a4a4a" stop-opacity="0"/></linearGradient><linearGradient id="at" gradientUnits="userSpaceOnUse" x1="26.942" x2="24.86" xlink:href="#as" y1="3.16" y2="1.973"/><linearGradient id="au" gradientUnits="userSpaceOnUse" x1="23.971" x2="24.546" xlink:href="#as" y1="4.025" y2="4.144"/><linearGradient id="av" gradientUnits="userSpaceOnUse" x1="13.938" x2="13.938" y1="18.957" y2="23.558"><stop offset="0" stop-color="#ffc9a7"/><stop offset="1" stop-color="#ffc9a7" stop-opacity="0"/></linearGradient><path d="m30.002 17.1023v13.16h-17.3832c.8475-3.0013 2.4652-5.7588 4.7275-7.9811 3.3773-3.3175 7.9216-5.1771 12.6557-5.1789z" fill="url(#o)"/><path d="m30.002 12.2623c-1.6568 0-3 1.3795-3 3.0812v3.8377c0 1.7017 1.3432 3.0811 3 3.0811z" fill="url(#p)"/><path d="m30.002 12.2623c-1.6568 0-3 1.3795-3 3.0812v3.8377c0 1.7017 1.3432 3.0811 3 3.0811z" fill="url(#q)"/><path d="m19.002 2.26233c.0966.55903.315 1.09193.6417 1.56002.2879.4255.4444.92627.45 1.44v6.84005c-.0008.7443.2311 1.4702.6632 2.0762.4321.6061 1.0429 1.0619 1.7468 1.3038l3.11 1.08v-12.19005l4.3317.01578v-2.1258z" fill="#3c332f"/><path d="m19.002 2.26233c.0966.55903.315 1.09193.6417 1.56002.2879.4255.4444.92627.45 1.44v6.84005c-.0008.7443.2311 1.4702.6632 2.0762.4321.6061 1.0429 1.0619 1.7468 1.3038l3.11 1.08v-12.19005l4.3317.01578v-2.1258z" fill="url(#r)"/><path d="m19.002 2.26233c.0966.55903.315 1.09193.6417 1.56002.2879.4255.4444.92627.45 1.44v6.84005c-.0008.7443.2311 1.4702.6632 2.0762.4321.6061 1.0429 1.0619 1.7468 1.3038l3.11 1.08v-12.19005l4.3317.01578v-2.1258z" fill="url(#s)"/><path d="m19.002 2.26233c.0966.55903.315 1.09193.6417 1.56002.2879.4255.4444.92627.45 1.44v6.84005c-.0008.7443.2311 1.4702.6632 2.0762.4321.6061 1.0429 1.0619 1.7468 1.3038l3.11 1.08v-12.19005l4.3317.01578v-2.1258z" fill="url(#t)"/><g filter="url(#a)"><path d="m21.752 10.7623c1.5188 0 2.75-1.23119 2.75-2.74997s-1.2312-2.75-2.75-2.75-2.75 1.23122-2.75 2.75 1.2312 2.74997 2.75 2.74997z" fill="url(#u)"/></g><g filter="url(#b)"><path d="m19.4894 8.01227c0-.65273.2764-1.24091.7186-1.65387" stroke="#ffbf9e" stroke-linecap="round" stroke-width=".3"/></g><g filter="url(#c)"><path d="m21.752 9.76233c.9665 0 1.75-.7835 1.75-1.75s-.7835-1.75-1.75-1.75-1.75.7835-1.75 1.75.7835 1.75 1.75 1.75z" fill="url(#v)"/></g><g filter="url(#d)"><path clip-rule="evenodd" d="m14.5352 9.13764c.4667-.05085.8862.28625.9371.75293.1322 1.21313.654 2.35083 1.4873 3.24243.3205.343.3023.8809-.0407 1.2014s-.8808.3023-1.2014-.0406c-1.0842-1.1602-1.7632-2.6405-1.9352-4.2191-.0509-.46666.2862-.88621.7529-.93706z" fill="url(#x)" fill-rule="evenodd"/></g><g filter="url(#e)"><path clip-rule="evenodd" d="m11.6343 9.6179c.4663-.05399.8881.28028.9421.7466.207 1.7878 1.0083 3.2987 2.2194 4.7079.3059.356.2653.8927-.0907 1.1987-.356.3059-.8927.2654-1.1987-.0907-1.367-1.5907-2.3626-3.408-2.6187-5.6204-.054-.4663.2803-.88811.7466-.9421z" fill="url(#y)" fill-rule="evenodd"/></g><path d="m30.002 2.26233h-8.5553c-.4447.5-.5123 1.51497-.4447 2l.49 8.99997c.2126 1.5633.984 2.9967 2.1715 4.0353s3.3309 1.6122 4.9085 1.6147h1.43z" fill="#efb7a4"/><path d="m30.002 2.26233h-8.5553c-.4447.5-.5123 1.51497-.4447 2l.49 8.99997c.2126 1.5633.984 2.9967 2.1715 4.0353s3.3309 1.6122 4.9085 1.6147h1.43z" fill="url(#z)"/><path d="m30.002 2.26233h-8.5553c-.4447.5-.5123 1.51497-.4447 2l.49 8.99997c.2126 1.5633.984 2.9967 2.1715 4.0353s3.3309 1.6122 4.9085 1.6147h1.43z" fill="url(#A)"/><path d="m30.002 2.26233h-8.5553c-.4447.5-.5123 1.51497-.4447 2l.49 8.99997c.2126 1.5633.984 2.9967 2.1715 4.0353s3.3309 1.6122 4.9085 1.6147h1.43z" fill="url(#B)"/><path d="m30.002 2.26233h-8.5553c-.4447.5-.5123 1.51497-.4447 2l.49 8.99997c.2126 1.5633.984 2.9967 2.1715 4.0353s3.3309 1.6122 4.9085 1.6147h1.43z" fill="url(#C)"/><path d="m30.002 2.26233h-8.5553c-.4447.5-.5123 1.51497-.4447 2l.49 8.99997c.2126 1.5633.984 2.9967 2.1715 4.0353s3.3309 1.6122 4.9085 1.6147h1.43z" fill="url(#D)"/><path d="m30.002 2.26233h-8.5553c-.4447.5-.5123 1.51497-.4447 2l.49 8.99997c.2126 1.5633.984 2.9967 2.1715 4.0353s3.3309 1.6122 4.9085 1.6147h1.43z" fill="url(#E)"/><path d="m19.1426 26.0718-.4843.9219-6.6563-2.5c.0521-.2553.2219-.9938.4844-1.9063s.8437-2.3281 1.1406-2.9531l6.6406 2.1875.7364-1.3696c.4345-.8083 1.487-1.0395 2.2204-.4878.659.4958.7937 1.431.2885 2.0829-.3612.466-.7596.9698-1.1046 1.3839-.8703 1.0443-1.6407 1.4531-2.2969 1.75-.525.2375-.8646.6927-.9688.8906z" fill="url(#F)"/><path d="m19.1426 26.0718-.4843.9219-6.6563-2.5c.0521-.2553.2219-.9938.4844-1.9063s.8437-2.3281 1.1406-2.9531l6.6406 2.1875.7364-1.3696c.4345-.8083 1.487-1.0395 2.2204-.4878.659.4958.7937 1.431.2885 2.0829-.3612.466-.7596.9698-1.1046 1.3839-.8703 1.0443-1.6407 1.4531-2.2969 1.75-.525.2375-.8646.6927-.9688.8906z" fill="url(#G)"/><path d="m19.1426 26.0718-.4843.9219-6.6563-2.5c.0521-.2553.2219-.9938.4844-1.9063s.8437-2.3281 1.1406-2.9531l6.6406 2.1875.7364-1.3696c.4345-.8083 1.487-1.0395 2.2204-.4878.659.4958.7937 1.431.2885 2.0829-.3612.466-.7596.9698-1.1046 1.3839-.8703 1.0443-1.6407 1.4531-2.2969 1.75-.525.2375-.8646.6927-.9688.8906z" fill="url(#H)"/><path d="m19.1426 26.0718-.4843.9219-6.6563-2.5c.0521-.2553.2219-.9938.4844-1.9063s.8437-2.3281 1.1406-2.9531l6.6406 2.1875.7364-1.3696c.4345-.8083 1.487-1.0395 2.2204-.4878.659.4958.7937 1.431.2885 2.0829-.3612.466-.7596.9698-1.1046 1.3839-.8703 1.0443-1.6407 1.4531-2.2969 1.75-.525.2375-.8646.6927-.9688.8906z" fill="url(#I)"/><path d="m19.1426 26.0718-.4843.9219-6.6563-2.5c.0521-.2553.2219-.9938.4844-1.9063s.8437-2.3281 1.1406-2.9531l6.6406 2.1875.7364-1.3696c.4345-.8083 1.487-1.0395 2.2204-.4878.659.4958.7937 1.431.2885 2.0829-.3612.466-.7596.9698-1.1046 1.3839-.8703 1.0443-1.6407 1.4531-2.2969 1.75-.525.2375-.8646.6927-.9688.8906z" fill="url(#J)"/><path d="m19.1426 26.0718-.4843.9219-6.6563-2.5c.0521-.2553.2219-.9938.4844-1.9063s.8437-2.3281 1.1406-2.9531l6.6406 2.1875.7364-1.3696c.4345-.8083 1.487-1.0395 2.2204-.4878.659.4958.7937 1.431.2885 2.0829-.3612.466-.7596.9698-1.1046 1.3839-.8703 1.0443-1.6407 1.4531-2.2969 1.75-.525.2375-.8646.6927-.9688.8906z" fill="url(#K)"/><path d="m19.1426 26.0718-.4843.9219-6.6563-2.5c.0521-.2553.2219-.9938.4844-1.9063s.8437-2.3281 1.1406-2.9531l6.6406 2.1875.7364-1.3696c.4345-.8083 1.487-1.0395 2.2204-.4878.659.4958.7937 1.431.2885 2.0829-.3612.466-.7596.9698-1.1046 1.3839-.8703 1.0443-1.6407 1.4531-2.2969 1.75-.525.2375-.8646.6927-.9688.8906z" fill="url(#L)"/><path d="m19.1426 26.0718-.4843.9219-6.6563-2.5c.0521-.2553.2219-.9938.4844-1.9063s.8437-2.3281 1.1406-2.9531l6.6406 2.1875.7364-1.3696c.4345-.8083 1.487-1.0395 2.2204-.4878.659.4958.7937 1.431.2885 2.0829-.3612.466-.7596.9698-1.1046 1.3839-.8703 1.0443-1.6407 1.4531-2.2969 1.75-.525.2375-.8646.6927-.9688.8906z" fill="url(#M)"/><rect fill="url(#N)" height="8.147" rx="1.429" transform="matrix(.9032694 .42907387 -.42907387 .9032694 7.891962 -7.759262)" width="2.859" x="21.155" y="13.624"/><rect fill="url(#O)" height="8.147" rx="1.429" transform="matrix(.9032694 .42907387 -.42907387 .9032694 7.891962 -7.759262)" width="2.859" x="21.155" y="13.624"/><rect fill="url(#P)" height="8.147" rx="1.429" transform="matrix(.9032694 .42907387 -.42907387 .9032694 7.891962 -7.759262)" width="2.859" x="21.155" y="13.624"/><path d="m19.3843 17.6213c-1.1866-.1941-2.0102.4925-2.2963.8747l1.2272 2.0214c-.0577.7326.0933 2.2405 1.2197 2.3816 1.4079.1764 1.9349-1.0879 1.9952-2.3816.0598-1.2851-.7236-2.6635-2.1458-2.8961z" fill="url(#Q)"/><path d="m19.3843 17.6213c-1.1866-.1941-2.0102.4925-2.2963.8747l1.2272 2.0214c-.0577.7326.0933 2.2405 1.2197 2.3816 1.4079.1764 1.9349-1.0879 1.9952-2.3816.0598-1.2851-.7236-2.6635-2.1458-2.8961z" fill="url(#R)"/><path d="m19.3843 17.6213c-1.1866-.1941-2.0102.4925-2.2963.8747l1.2272 2.0214c-.0577.7326.0933 2.2405 1.2197 2.3816 1.4079.1764 1.9349-1.0879 1.9952-2.3816.0598-1.2851-.7236-2.6635-2.1458-2.8961z" fill="url(#S)"/><path d="m19.3843 17.6213c-1.1866-.1941-2.0102.4925-2.2963.8747l1.2272 2.0214c-.0577.7326.0933 2.2405 1.2197 2.3816 1.4079.1764 1.9349-1.0879 1.9952-2.3816.0598-1.2851-.7236-2.6635-2.1458-2.8961z" fill="url(#T)"/><path d="m17.9864 17.5718c-1.2313-.2063-2.0859.5234-2.3828.9296l1.2734 2.1485c-.0599.7786.0969 2.3812 1.2656 2.5312 1.461.1875 2.0079-1.1562 2.0704-2.5312.062-1.3658-.7509-2.8309-2.2266-3.0781z" fill="url(#U)"/><path d="m17.9864 17.5718c-1.2313-.2063-2.0859.5234-2.3828.9296l1.2734 2.1485c-.0599.7786.0969 2.3812 1.2656 2.5312 1.461.1875 2.0079-1.1562 2.0704-2.5312.062-1.3658-.7509-2.8309-2.2266-3.0781z" fill="url(#V)"/><path d="m17.9864 17.5718c-1.2313-.2063-2.0859.5234-2.3828.9296l1.2734 2.1485c-.0599.7786.0969 2.3812 1.2656 2.5312 1.461.1875 2.0079-1.1562 2.0704-2.5312.062-1.3658-.7509-2.8309-2.2266-3.0781z" fill="url(#W)"/><path d="m17.9864 17.5718c-1.2313-.2063-2.0859.5234-2.3828.9296l1.2734 2.1485c-.0599.7786.0969 2.3812 1.2656 2.5312 1.461.1875 2.0079-1.1562 2.0704-2.5312.062-1.3658-.7509-2.8309-2.2266-3.0781z" fill="url(#X)"/><path d="m17.7833 21.5678c.5975-1.6073-.2051-2.8631-1.0625-3.2226-1.0376-.4351-2.5-.086-3.1485 1.414v.4063h1.5396c.0708 0 .1188.0726.0939.1389-.7019 1.8689.2121 2.186.6087 2.3767.2485.1194 1.4141.3789 1.9688-1.1133z" fill="url(#Y)"/><path d="m17.7833 21.5678c.5975-1.6073-.2051-2.8631-1.0625-3.2226-1.0376-.4351-2.5-.086-3.1485 1.414v.4063h1.5396c.0708 0 .1188.0726.0939.1389-.7019 1.8689.2121 2.186.6087 2.3767.2485.1194 1.4141.3789 1.9688-1.1133z" fill="url(#Z)"/><path d="m17.7833 21.5678c.5975-1.6073-.2051-2.8631-1.0625-3.2226-1.0376-.4351-2.5-.086-3.1485 1.414v.4063h1.5396c.0708 0 .1188.0726.0939.1389-.7019 1.8689.2121 2.186.6087 2.3767.2485.1194 1.4141.3789 1.9688-1.1133z" fill="url(#aa)"/><g filter="url(#f)"><path clip-rule="evenodd" d="m26.7311 3.77034c-.8659-.10862-1.7417.10095-2.4646.58973-.2242.15158-.5288.09272-.6804-.13146-.1515-.22419-.0927-.5288.1315-.68038.9197-.62184 2.0339-.88846 3.1355-.75027.2685.03368.4588.27866.4252.54718-.0337.26851-.2787.45888-.5472.4252z" fill="#191919" fill-rule="evenodd"/></g><g filter="url(#g)"><path d="m29.7769 8.26237c-.1115.01543-.1073-.62235-.1988-.55641-.1797 0-.3238.29341-.3672.42968l-.986 2.65496c-.042.1363-.0508.2803-.0259.4206.0249.1402.083.2728.1695.3872.0865.1143.1991.2073.3288.2714.3624.1792.8497-.0342 1.1953-.1425z" fill="url(#ab)"/></g><path d="m30.002 7.26892c-.1048.01543-.2049.05769-.2909.12364-.1104.08459-.192.20372-.2328.34002l-.8473 2.85222c-.0395.1363-.0478.2804-.0244.4207.0235.1403.0781.2729.1594.3873.0814.1144.1873.2074.3093.2715.122.0642.2566.0977.3933.098h.5334z" fill="url(#ac)"/><path d="m30.002 7.26892c-.1048.01543-.2049.05769-.2909.12364-.1104.08459-.192.20372-.2328.34002l-.8473 2.85222c-.0395.1363-.0478.2804-.0244.4207.0235.1403.0781.2729.1594.3873.0814.1144.1873.2074.3093.2715.122.0642.2566.0977.3933.098h.5334z" fill="url(#ad)"/><path d="m30.002 7.26892c-.1048.01543-.2049.05769-.2909.12364-.1104.08459-.192.20372-.2328.34002l-.8473 2.85222c-.0395.1363-.0478.2804-.0244.4207.0235.1403.0781.2729.1594.3873.0814.1144.1873.2074.3093.2715.122.0642.2566.0977.3933.098h.5334z" fill="url(#ae)"/><path d="m30.002 7.26892c-.1048.01543-.2049.05769-.2909.12364-.1104.08459-.192.20372-.2328.34002l-.8473 2.85222c-.0395.1363-.0478.2804-.0244.4207.0235.1403.0781.2729.1594.3873.0814.1144.1873.2074.3093.2715.122.0642.2566.0977.3933.098h.5334z" fill="url(#af)"/><g filter="url(#h)"><path d="m30.002 13.3894c-.0832.0038-.1665.0054-.25.0049-.8248.0065-1.6388-.2008-2.372-.6041-.0509-.0262-.1084-.0342-.1639-.0229s-.1061.0414-.1444.0857c-.0383.0444-.0622.1007-.0682.1606-.006.06.0062.1204.0348.1724.293.4837.6948.8814 1.1688 1.1567.4741.2754 1.0052.4196 1.5449.4196.0836 0 .167-.0034.25-.0103z" stroke="url(#ag)" stroke-width=".2"/></g><path d="m30.002 13.3894c-.0832.0038-.1665.0054-.25.0049-.8248.0065-1.6388-.2008-2.372-.6041-.0509-.0262-.1084-.0342-.1639-.0229s-.1061.0414-.1444.0857c-.0383.0444-.0622.1007-.0682.1606-.006.06.0062.1204.0348.1724.293.4837.6948.8814 1.1688 1.1567.4741.2754 1.0052.4196 1.5449.4196.0836 0 .167-.0034.25-.0103z" fill="url(#ah)"/><path d="m18.6493 26.6039-6.2743-2.7808c-.2524-.1121-.5478.0016-.6599.254l-.6171 1.3891c-.1121.2524.0017.5478.254.6599l6.2744 2.7808c.2523.1121.5478-.0016.6599-.254l.617-1.3891c.1121-.2524-.0016-.5479-.254-.6599z" fill="url(#ai)"/><path d="m18.6493 26.6039-6.2743-2.7808c-.2524-.1121-.5478.0016-.6599.254l-.6171 1.3891c-.1121.2524.0017.5478.254.6599l6.2744 2.7808c.2523.1121.5478-.0016.6599-.254l.617-1.3891c.1121-.2524-.0016-.5479-.254-.6599z" fill="url(#aj)"/><path d="m18.6493 26.6039-6.2743-2.7808c-.2524-.1121-.5478.0016-.6599.254l-.6171 1.3891c-.1121.2524.0017.5478.254.6599l6.2744 2.7808c.2523.1121.5478-.0016.6599-.254l.617-1.3891c.1121-.2524-.0016-.5479-.254-.6599z" fill="url(#ak)"/><path d="m18.8757 30.2623h-10.83102l1.75938-4.0558c.16964-.3849.48234-.686.86974-.8376.3875-.1515.8182-.1411 1.1982.0289l6.2038 2.7728c.3771.1744.6717.4922.8206.885.1477.3898.1402.8226-.0207 1.2067z" fill="url(#al)"/><path d="m18.8757 30.2623h-10.83102l1.75938-4.0558c.16964-.3849.48234-.686.86974-.8376.3875-.1515.8182-.1411 1.1982.0289l6.2038 2.7728c.3771.1744.6717.4922.8206.885.1477.3898.1402.8226-.0207 1.2067z" fill="url(#am)"/><path d="m18.8757 30.2623h-10.83102l1.75938-4.0558c.16964-.3849.48234-.686.86974-.8376.3875-.1515.8182-.1411 1.1982.0289l6.2038 2.7728c.3771.1744.6717.4922.8206.885.1477.3898.1402.8226-.0207 1.2067z" fill="url(#an)"/><path d="m26.0083 5.91235c-1.0967 0-2.0231.7561-2.2751 1.77784-.0749.2929.1499.57218.4496.57218h3.7464c.2384 0 .4291-.21797.3814-.45638-.2111-1.07624-1.1648-1.89364-2.3023-1.89364z" fill="#fff"/><path d="m26.3556 6.36865c-.831 0-1.4985.67435-1.4985 1.49856 0 .13623.0204.27247.0544.39508h2.895c.0341-.12942.0545-.25885.0545-.39508-.0068-.82421-.6744-1.49856-1.5054-1.49856z" fill="url(#ao)"/><path d="m27.2138 7.8673c0-.47682-.3815-.85827-.8583-.85827s-.8582.38145-.8582.85827c0 .14304.034.27928.0953.39507h1.519c.0613-.11579.1022-.25203.1022-.39507z" fill="#000"/><g filter="url(#i)"><path d="m27.7247 7.69129c0-.48426-.3938-.80711-.5003-.90467l-.4842.4683.298.60666z" fill="url(#ap)"/></g><g filter="url(#j)"><path d="m26.4402 6.8018c.0849.16029.0437.35513-.3203.38858-.1061.00976-.1982.07449-.2598.16146-.1549.21891-.3561.14335-.4377-.0108-.0972-.18336.0519-.45272.333-.60162.281-.14891.5876-.12098.6848.06238z" fill="url(#aq)" fill-opacity=".9"/><path d="m26.4402 6.8018c.0849.16029.0437.35513-.3203.38858-.1061.00976-.1982.07449-.2598.16146-.1549.21891-.3561.14335-.4377-.0108-.0972-.18336.0519-.45272.333-.60162.281-.14891.5876-.12098.6848.06238z" fill="url(#ar)"/></g><g filter="url(#k)" stroke-linecap="round" stroke-width=".2"><path d="m23.9708 3.82174c.3958-.29167 1.525-.8375 2.875-.6875" stroke="url(#at)"/><path d="m23.9708 3.82174c.3958-.29167 1.525-.8375 2.875-.6875" stroke="url(#au)"/></g><g filter="url(#l)"><path d="m12.002 10.3032c.1199 1.0418.8487 3.4897 2.4362 5.1466" stroke="#d4d2dd" stroke-linecap="round" stroke-width=".5"/></g><g filter="url(#m)"><path d="m14.8692 9.90295c.1432.83075.6703 2.71565 1.6328 3.60935" stroke="#d4d2dd" stroke-linecap="round" stroke-width=".5"/></g><g filter="url(#n)"><path d="m15.3672 19.1122c-.9297 0-1.7984.5453-2.7734 4.4453" stroke="url(#av)" stroke-linecap="round" stroke-width=".35"/></g></svg>