<svg fill="none" height="32" viewBox="0 0 32 32" width="32" xmlns="http://www.w3.org/2000/svg" xmlns:xlink="http://www.w3.org/1999/xlink"><filter id="a" color-interpolation-filters="sRGB" filterUnits="userSpaceOnUse" height="6.635" width="18.869" x="7.569" y="19.512"><feFlood flood-opacity="0" result="BackgroundImageFix"/><feBlend in="SourceGraphic" in2="BackgroundImageFix" mode="normal" result="shape"/><feGaussianBlur result="effect1_foregroundBlur_18_32336" stdDeviation=".5"/></filter><filter id="b" color-interpolation-filters="sRGB" filterUnits="userSpaceOnUse" height="8.518" width="17.547" x="12.517" y="20.402"><feFlood flood-opacity="0" result="BackgroundImageFix"/><feBlend in="SourceGraphic" in2="BackgroundImageFix" mode="normal" result="shape"/><feGaussianBlur result="effect1_foregroundBlur_18_32336" stdDeviation=".05"/></filter><filter id="c" color-interpolation-filters="sRGB" filterUnits="userSpaceOnUse" height="5.135" width="17.57" x="8.912" y="19.899"><feFlood flood-opacity="0" result="BackgroundImageFix"/><feBlend in="SourceGraphic" in2="BackgroundImageFix" mode="normal" result="shape"/><feGaussianBlur result="effect1_foregroundBlur_18_32336" stdDeviation=".125"/></filter><filter id="d" color-interpolation-filters="sRGB" filterUnits="userSpaceOnUse" height="9.954" width="9.769" x="8.641" y="15.534"><feFlood flood-opacity="0" result="BackgroundImageFix"/><feBlend in="SourceGraphic" in2="BackgroundImageFix" mode="normal" result="shape"/><feGaussianBlur result="effect1_foregroundBlur_18_32336" stdDeviation=".5"/></filter><filter id="e" color-interpolation-filters="sRGB" filterUnits="userSpaceOnUse" height="5.053" width="10.51" x="5.463" y="21.828"><feFlood flood-opacity="0" result="BackgroundImageFix"/><feBlend in="SourceGraphic" in2="BackgroundImageFix" mode="normal" result="shape"/><feGaussianBlur result="effect1_foregroundBlur_18_32336" stdDeviation=".125"/></filter><filter id="f" color-interpolation-filters="sRGB" filterUnits="userSpaceOnUse" height="9.886" width="9.674" x="5.296" y="17.252"><feFlood flood-opacity="0" result="BackgroundImageFix"/><feBlend in="SourceGraphic" in2="BackgroundImageFix" mode="normal" result="shape"/><feGaussianBlur result="effect1_foregroundBlur_18_32336" stdDeviation=".5"/></filter><filter id="g" color-interpolation-filters="sRGB" filterUnits="userSpaceOnUse" height="2.184" width="2.184" x="2.728" y="21.978"><feFlood flood-opacity="0" result="BackgroundImageFix"/><feBlend in="SourceGraphic" in2="BackgroundImageFix" mode="normal" result="shape"/><feGaussianBlur result="effect1_foregroundBlur_18_32336" stdDeviation=".05"/></filter><filter id="h" color-interpolation-filters="sRGB" filterUnits="userSpaceOnUse" height="1.169" width="1.169" x="4.831" y="22.994"><feFlood flood-opacity="0" result="BackgroundImageFix"/><feBlend in="SourceGraphic" in2="BackgroundImageFix" mode="normal" result="shape"/><feGaussianBlur result="effect1_foregroundBlur_18_32336" stdDeviation=".05"/></filter><linearGradient id="i" gradientUnits="userSpaceOnUse" x1="2" x2="29.99" y1="23.188" y2="23.188"><stop offset="0" stop-color="#bea8c2"/><stop offset=".145" stop-color="#c1a6d1"/><stop offset=".371" stop-color="#c19fe2"/><stop offset=".424" stop-color="#d8b8ff"/><stop offset=".485" stop-color="#e4cfff"/><stop offset=".893" stop-color="#decff8"/><stop offset="1" stop-color="#dccff4"/></linearGradient><linearGradient id="j" gradientUnits="userSpaceOnUse" x1="11.75" x2="16.688" y1="17.563" y2="27.875"><stop offset="0" stop-color="#b1a09a"/><stop offset=".4" stop-color="#cababe"/><stop offset=".823" stop-color="#e6d3c4"/></linearGradient><radialGradient id="k" cx="0" cy="0" gradientTransform="matrix(.31249838 4.31250248 -8.55925736 .62023248 12.625 22)" gradientUnits="userSpaceOnUse" r="1"><stop offset=".61" stop-color="#b79a90"/><stop offset="1" stop-color="#ba9e96" stop-opacity="0"/></radialGradient><linearGradient id="l" gradientUnits="userSpaceOnUse" x1="15.25" x2="20.313" y1="13.344" y2="24.063"><stop offset="0" stop-color="#e7bb42"/><stop offset=".053" stop-color="#f1c740"/><stop offset=".569" stop-color="#f2c941"/><stop offset=".599" stop-color="#ffd85e"/><stop offset=".622" stop-color="#f9c83f"/><stop offset="1" stop-color="#fab842"/></linearGradient><linearGradient id="m" gradientUnits="userSpaceOnUse" x1="20.313" x2="19.219" y1="23.375" y2="21.063"><stop offset=".067" stop-color="#f8b644"/><stop offset=".301" stop-color="#fab842" stop-opacity="0"/></linearGradient><linearGradient id="n" gradientUnits="userSpaceOnUse" x1="12" x2="14.656" y1="22.938" y2="16.656"><stop offset="0" stop-color="#f2c941"/><stop offset="1" stop-color="#f2c941" stop-opacity="0"/></linearGradient><linearGradient id="o"><stop offset="0" stop-color="#db9718"/><stop offset=".339" stop-color="#e7ab16"/><stop offset="1" stop-color="#dc9819" stop-opacity="0"/></linearGradient><radialGradient id="p" cx="0" cy="0" gradientTransform="matrix(11.81247122 5.69928627 -4.15181196 8.60514053 11.9375 20.4257)" gradientUnits="userSpaceOnUse" r="1" xlink:href="#o"/><linearGradient id="q" gradientUnits="userSpaceOnUse" x1="8.531" x2="13.719" y1="16.719" y2="26.281"><stop offset="0" stop-color="#e9bd42"/><stop offset=".286" stop-color="#f2c841"/><stop offset=".638" stop-color="#f2c941"/><stop offset=".659" stop-color="#fed65a"/><stop offset=".681" stop-color="#fac840"/><stop offset="1" stop-color="#fabf41"/></linearGradient><linearGradient id="r" gradientUnits="userSpaceOnUse" x1="8.188" x2="10.905" y1="24.156" y2="19.344"><stop offset="0" stop-color="#d28a30"/><stop offset=".28" stop-color="#d28a30" stop-opacity="0"/></linearGradient><radialGradient id="s" cx="0" cy="0" gradientTransform="matrix(5.31250172 2.93749941 -3.16430995 5.72269121 4.9375 23.125)" gradientUnits="userSpaceOnUse" r="1"><stop offset="0" stop-color="#d48b1f"/><stop offset="1" stop-color="#d99a40" stop-opacity="0"/></radialGradient><radialGradient id="t" cx="0" cy="0" gradientTransform="matrix(12.26961834 5.87790522 -4.26294915 8.89853734 8.28579 22.1652)" gradientUnits="userSpaceOnUse" r="1" xlink:href="#o"/><radialGradient id="u" cx="0" cy="0" gradientTransform="matrix(.53125078 1.96875263 -1.96875263 .53125078 3.84375 22.5313)" gradientUnits="userSpaceOnUse" r="1"><stop offset="0" stop-color="#d3ad48"/><stop offset=".444" stop-color="#d7a541"/><stop offset=".808" stop-color="#d48f27"/></radialGradient><radialGradient id="v" cx="0" cy="0" gradientTransform="matrix(.14843704 .6406249 -.6406249 .14843704 5.47656 23.375)" gradientUnits="userSpaceOnUse" r="1"><stop offset=".436" stop-color="#d3a53e"/><stop offset="1" stop-color="#d48f27"/></radialGradient><path d="m28.87 20.52v.3l-10.09-4.96c-.16-.08-.36-.08-.52 0l-15.14 7.37v-.3h-1.12v1.22c0 .21.11.42.33.53l10.15 4.99c.62.31 1.36.31 1.98 0l15.2-7.4c.22-.11.33-.32.33-.53v-1.22z" fill="url(#i)"/><path d="m18.26 14.67-15.93 7.76c-.44.22-.44.84 0 1.06l10.15 4.99c.62.31 1.36.31 1.98 0l15.2-7.4c.44-.22.44-.84 0-1.06l-10.88-5.35c-.16-.08-.36-.08-.52 0z" fill="url(#j)"/><path d="m18.26 14.67-15.93 7.76c-.44.22-.44.84 0 1.06l10.15 4.99c.62.31 1.36.31 1.98 0l15.2-7.4c.44-.22.44-.84 0-1.06l-10.88-5.35c-.16-.08-.36-.08-.52 0z" fill="url(#k)"/><g filter="url(#a)"><path d="m8.56873 20.8816c0 .24.14.46.35.57l7.36997 3.62c.21.1.2588.1.4788 0l8.32-3.99c.22-.11.35-.33.35-.57z" fill="#bf9a82"/></g><g filter="url(#b)"><path clip-rule="evenodd" d="m29.7649 21.0467c-.1346.1367-.3206.2496-.4841.3431-.1686.0963-3.7595 1.8666-7.3425 3.6271-3.5837 1.7608-7.1789 3.5213-7.3578 3.598-.1913.082-.5693.174-.979.2009-.4079.0267-.6324-.0521-.9843-.2495 0 0 .5362.0283.968 0 .3895-.0255.7381-.1132.8968-.1812.171-.0733 3.7556-1.8284 7.3461-3.5926 3.5912-1.7645 7.1691-3.5286 7.3286-3.6198.1646-.094.3224-.192.43-.3014.1805-.1834.363-.369.363-.369.0531.223-.0483.4057-.1848.5444z" fill="#ede7f1" fill-rule="evenodd"/></g><g filter="url(#c)"><path d="m9.16248 20.5193c0 .24.14.46.35.57l7.37002 3.62c.21.1.46.1.68 0l8.32-3.99c.22-.11.35-.33.35-.57z" fill="#a67858"/></g><path d="m18.91 12.1299c-.35-.17-.75-.17-1.09 0l-8.04002 3.85c-.26.13-.43.4-.43.69v3.74c0 .24.14.46.35.57l7.37002 3.62c.21.1.46.1.68 0l8.32-3.99c.22-.11.35-.33.35-.57v-3.74c0-.29-.17-.56-.43-.69z" fill="url(#l)"/><path d="m18.91 12.1299c-.35-.17-.75-.17-1.09 0l-8.04002 3.85c-.26.13-.43.4-.43.69v3.74c0 .24.14.46.35.57l7.37002 3.62c.21.1.46.1.68 0l8.32-3.99c.22-.11.35-.33.35-.57v-3.74c0-.29-.17-.56-.43-.69z" fill="url(#m)"/><path d="m9.34998 20.4v-3.77c0-.2.21-.34.4-.25l7.35002 3.62c.19.09.31.29.31.5v3.73c0 .24-.25.4-.47.29l-7.23002-3.55c-.22-.11-.36-.32-.36-.57z" fill="url(#n)"/><g filter="url(#d)"><path d="m9.64062 20.3436v-3.5312c0-.2.20063-.34.39068-.25l7.0687 3.4376c.19.09.31.29.31.5l-.0001 3.6631c0 .24-.25.4-.47.29l-6.94865-3.5395c-.22-.11-.35063-.32-.35063-.57z" fill="url(#p)"/></g><g filter="url(#e)"><path d="m5.71252 22.3662c0 .24.14.46.35.57l7.36998 3.62c.21.1.46.1.68 0l1.26-.61c.22-.11.35-.33.35-.57 0 0-9.0975-4.4543-10.00998-3.01z" fill="#9e7968"/></g><path d="m8.40002 17.31c-.35-.17-.75-.17-1.09 0l-.98.47c-.26.13-.43.39-.43.69v3.74c0 .24.14.46.35.57l7.36998 3.62c.21.1.46.1.68 0l1.26-.61c.22-.11.35-.33.35-.57v-3.74c0-.29-.17-.56-.43-.69z" fill="url(#q)"/><path d="m8.40002 17.31c-.35-.17-.75-.17-1.09 0l-.98.47c-.26.13-.43.39-.43.69v3.74c0 .24.14.46.35.57l7.36998 3.62c.21.1.46.1.68 0l1.26-.61c.22-.11.35-.33.35-.57v-3.74c0-.29-.17-.56-.43-.69z" fill="url(#r)"/><path d="m8.40002 17.31c-.35-.17-.75-.17-1.09 0l-.98.47c-.26.13-.43.39-.43.69v3.74c0 .24.14.46.35.57l7.36998 3.62c.21.1.46.1.68 0l1.26-.61c.22-.11.35-.33.35-.57v-3.74c0-.29-.17-.56-.43-.69z" fill="url(#s)"/><g filter="url(#f)"><path d="m6.2963 22.0825-.00004-3.5526c0-.2.21-.34.4-.25l6.96374 3.5201c.19.09.31.29.31.5l.0001 3.5125c0 .24-.25.4-.47.29l-6.8438-3.46c-.22-.1-.36-.32-.36-.56z" fill="url(#t)"/></g><g filter="url(#g)"><circle cx="3.82" cy="23.07" fill="#b0978a" r=".992"/></g><circle cx="4.016" cy="23.016" fill="url(#u)" r="1.047"/><g filter="url(#h)"><circle cx="5.416" cy="23.578" fill="#b0978a" r=".484"/></g><circle cx="5.516" cy="23.531" fill="url(#v)" r=".484"/></svg>