<svg fill="none" height="32" viewBox="0 0 32 32" width="32" xmlns="http://www.w3.org/2000/svg" xmlns:xlink="http://www.w3.org/1999/xlink"><filter id="a" color-interpolation-filters="sRGB" filterUnits="userSpaceOnUse" height="13.626" width="16.97" x="7.639" y="16.304"><feFlood flood-opacity="0" result="BackgroundImageFix"/><feBlend in="SourceGraphic" in2="BackgroundImageFix" mode="normal" result="shape"/><feColorMatrix in="SourceAlpha" result="hardAlpha" type="matrix" values="0 0 0 0 0 0 0 0 0 0 0 0 0 0 0 0 0 0 127 0"/><feOffset dx="1.25"/><feGaussianBlur stdDeviation="1.25"/><feComposite in2="hardAlpha" k2="-1" k3="1" operator="arithmetic"/><feColorMatrix type="matrix" values="0 0 0 0 0.223529 0 0 0 0 0.623529 0 0 0 0 0.317647 0 0 0 1 0"/><feBlend in2="shape" mode="normal" result="effect1_innerShadow_4002_1296"/><feColorMatrix in="SourceAlpha" result="hardAlpha" type="matrix" values="0 0 0 0 0 0 0 0 0 0 0 0 0 0 0 0 0 0 127 0"/><feOffset dy="-.25"/><feGaussianBlur stdDeviation=".5"/><feComposite in2="hardAlpha" k2="-1" k3="1" operator="arithmetic"/><feColorMatrix type="matrix" values="0 0 0 0 0.313726 0 0 0 0 0.576471 0 0 0 0 0.541176 0 0 0 1 0"/><feBlend in2="effect1_innerShadow_4002_1296" mode="normal" result="effect2_innerShadow_4002_1296"/></filter><filter id="b" color-interpolation-filters="sRGB" filterUnits="userSpaceOnUse" height="12.453" width="8.803" x="15.083" y="15.257"><feFlood flood-opacity="0" result="BackgroundImageFix"/><feBlend in="SourceGraphic" in2="BackgroundImageFix" mode="normal" result="shape"/><feGaussianBlur result="effect1_foregroundBlur_4002_1296" stdDeviation=".5"/></filter><filter id="c" color-interpolation-filters="sRGB" filterUnits="userSpaceOnUse" height="6.572" width="9.329" x="5.433" y="10.796"><feFlood flood-opacity="0" result="BackgroundImageFix"/><feBlend in="SourceGraphic" in2="BackgroundImageFix" mode="normal" result="shape"/><feColorMatrix in="SourceAlpha" result="hardAlpha" type="matrix" values="0 0 0 0 0 0 0 0 0 0 0 0 0 0 0 0 0 0 127 0"/><feOffset dx=".25"/><feGaussianBlur stdDeviation=".375"/><feComposite in2="hardAlpha" k2="-1" k3="1" operator="arithmetic"/><feColorMatrix type="matrix" values="0 0 0 0 0.537255 0 0 0 0 0.415686 0 0 0 0 0.337255 0 0 0 1 0"/><feBlend in2="shape" mode="normal" result="effect1_innerShadow_4002_1296"/><feColorMatrix in="SourceAlpha" result="hardAlpha" type="matrix" values="0 0 0 0 0 0 0 0 0 0 0 0 0 0 0 0 0 0 127 0"/><feOffset dx="-.25"/><feGaussianBlur stdDeviation=".375"/><feComposite in2="hardAlpha" k2="-1" k3="1" operator="arithmetic"/><feColorMatrix type="matrix" values="0 0 0 0 0.584314 0 0 0 0 0.364706 0 0 0 0 0.509804 0 0 0 1 0"/><feBlend in2="effect1_innerShadow_4002_1296" mode="normal" result="effect2_innerShadow_4002_1296"/></filter><filter id="d" color-interpolation-filters="sRGB" filterUnits="userSpaceOnUse" height="8.393" width="5.98" x="20.337" y="7.046"><feFlood flood-opacity="0" result="BackgroundImageFix"/><feBlend in="SourceGraphic" in2="BackgroundImageFix" mode="normal" result="shape"/><feColorMatrix in="SourceAlpha" result="hardAlpha" type="matrix" values="0 0 0 0 0 0 0 0 0 0 0 0 0 0 0 0 0 0 127 0"/><feOffset dy="-.25"/><feGaussianBlur stdDeviation=".375"/><feComposite in2="hardAlpha" k2="-1" k3="1" operator="arithmetic"/><feColorMatrix type="matrix" values="0 0 0 0 0.572549 0 0 0 0 0.372549 0 0 0 0 0.501961 0 0 0 1 0"/><feBlend in2="shape" mode="normal" result="effect1_innerShadow_4002_1296"/></filter><filter id="e" color-interpolation-filters="sRGB" filterUnits="userSpaceOnUse" height="1.949" width="1.41" x="24.485" y="7.263"><feFlood flood-opacity="0" result="BackgroundImageFix"/><feBlend in="SourceGraphic" in2="BackgroundImageFix" mode="normal" result="shape"/><feColorMatrix in="SourceAlpha" result="hardAlpha" type="matrix" values="0 0 0 0 0 0 0 0 0 0 0 0 0 0 0 0 0 0 127 0"/><feOffset dx=".1"/><feGaussianBlur stdDeviation=".125"/><feComposite in2="hardAlpha" k2="-1" k3="1" operator="arithmetic"/><feColorMatrix type="matrix" values="0 0 0 0 0.533333 0 0 0 0 0.352941 0 0 0 0 0.25098 0 0 0 1 0"/><feBlend in2="shape" mode="normal" result="effect1_innerShadow_4002_1296"/></filter><filter id="f" color-interpolation-filters="sRGB" filterUnits="userSpaceOnUse" height="7.624" width="6.555" x="14.255" y="10.454"><feFlood flood-opacity="0" result="BackgroundImageFix"/><feBlend in="SourceGraphic" in2="BackgroundImageFix" mode="normal" result="shape"/><feColorMatrix in="SourceAlpha" result="hardAlpha" type="matrix" values="0 0 0 0 0 0 0 0 0 0 0 0 0 0 0 0 0 0 127 0"/><feOffset dy=".2"/><feGaussianBlur stdDeviation=".15"/><feComposite in2="hardAlpha" k2="-1" k3="1" operator="arithmetic"/><feColorMatrix type="matrix" values="0 0 0 0 1 0 0 0 0 0.470588 0 0 0 0 0.0117647 0 0 0 1 0"/><feBlend in2="shape" mode="normal" result="effect1_innerShadow_4002_1296"/></filter><filter id="g" color-interpolation-filters="sRGB" filterUnits="userSpaceOnUse" height="3.197" width="4.212" x="15.358" y="10.239"><feFlood flood-opacity="0" result="BackgroundImageFix"/><feBlend in="SourceGraphic" in2="BackgroundImageFix" mode="normal" result="shape"/><feColorMatrix in="SourceAlpha" result="hardAlpha" type="matrix" values="0 0 0 0 0 0 0 0 0 0 0 0 0 0 0 0 0 0 127 0"/><feOffset dx="-.1" dy=".1"/><feGaussianBlur stdDeviation=".15"/><feComposite in2="hardAlpha" k2="-1" k3="1" operator="arithmetic"/><feColorMatrix type="matrix" values="0 0 0 0 0.533333 0 0 0 0 0.333333 0 0 0 0 0.231373 0 0 0 1 0"/><feBlend in2="shape" mode="normal" result="effect1_innerShadow_4002_1296"/></filter><filter id="h" color-interpolation-filters="sRGB" filterUnits="userSpaceOnUse" height="3.615" width="11.112" x="10.829" y="25.843"><feFlood flood-opacity="0" result="BackgroundImageFix"/><feBlend in="SourceGraphic" in2="BackgroundImageFix" mode="normal" result="shape"/><feGaussianBlur result="effect1_foregroundBlur_4002_1296" stdDeviation=".2"/></filter><filter id="i" color-interpolation-filters="sRGB" filterUnits="userSpaceOnUse" height="3.17" width="3.297" x="8.245" y="23.873"><feFlood flood-opacity="0" result="BackgroundImageFix"/><feBlend in="SourceGraphic" in2="BackgroundImageFix" mode="normal" result="shape"/><feGaussianBlur result="effect1_foregroundBlur_4002_1296" stdDeviation=".2"/></filter><filter id="j" color-interpolation-filters="sRGB" filterUnits="userSpaceOnUse" height="3.032" width="3.085" x="11.506" y="23.355"><feFlood flood-opacity="0" result="BackgroundImageFix"/><feBlend in="SourceGraphic" in2="BackgroundImageFix" mode="normal" result="shape"/><feGaussianBlur result="effect1_foregroundBlur_4002_1296" stdDeviation=".2"/></filter><filter id="k" color-interpolation-filters="sRGB" filterUnits="userSpaceOnUse" height="2.867" width="4.07" x="20.64" y="11.71"><feFlood flood-opacity="0" result="BackgroundImageFix"/><feBlend in="SourceGraphic" in2="BackgroundImageFix" mode="normal" result="shape"/><feGaussianBlur result="effect1_foregroundBlur_4002_1296" stdDeviation=".25"/></filter><filter id="l" color-interpolation-filters="sRGB" filterUnits="userSpaceOnUse" height="7.066" width="2.394" x="24.256" y="7.842"><feFlood flood-opacity="0" result="BackgroundImageFix"/><feBlend in="SourceGraphic" in2="BackgroundImageFix" mode="normal" result="shape"/><feGaussianBlur result="effect1_foregroundBlur_4002_1296" stdDeviation=".3"/></filter><filter id="m" color-interpolation-filters="sRGB" filterUnits="userSpaceOnUse" height="3.579" width="2.251" x="23.392" y="7.165"><feFlood flood-opacity="0" result="BackgroundImageFix"/><feBlend in="SourceGraphic" in2="BackgroundImageFix" mode="normal" result="shape"/><feGaussianBlur result="effect1_foregroundBlur_4002_1296" stdDeviation=".2"/></filter><filter id="n" color-interpolation-filters="sRGB" filterUnits="userSpaceOnUse" height="4.219" width="6.781" x="7.807" y="12.273"><feFlood flood-opacity="0" result="BackgroundImageFix"/><feBlend in="SourceGraphic" in2="BackgroundImageFix" mode="normal" result="shape"/><feGaussianBlur result="effect1_foregroundBlur_4002_1296" stdDeviation=".25"/></filter><filter id="o" color-interpolation-filters="sRGB" filterUnits="userSpaceOnUse" height="7.182" width="6.865" x="14.609" y="3.606"><feFlood flood-opacity="0" result="BackgroundImageFix"/><feBlend in="SourceGraphic" in2="BackgroundImageFix" mode="normal" result="shape"/><feColorMatrix in="SourceAlpha" result="hardAlpha" type="matrix" values="0 0 0 0 0 0 0 0 0 0 0 0 0 0 0 0 0 0 127 0"/><feOffset dx="1"/><feGaussianBlur stdDeviation=".7"/><feComposite in2="hardAlpha" k2="-1" k3="1" operator="arithmetic"/><feColorMatrix type="matrix" values="0 0 0 0 0.584314 0 0 0 0 0.427451 0 0 0 0 0.376471 0 0 0 1 0"/><feBlend in2="shape" mode="normal" result="effect1_innerShadow_4002_1296"/><feColorMatrix in="SourceAlpha" result="hardAlpha" type="matrix" values="0 0 0 0 0 0 0 0 0 0 0 0 0 0 0 0 0 0 127 0"/><feOffset dy=".1"/><feGaussianBlur stdDeviation=".2"/><feComposite in2="hardAlpha" k2="-1" k3="1" operator="arithmetic"/><feColorMatrix type="matrix" values="0 0 0 0 0.419608 0 0 0 0 0.25098 0 0 0 0 0.262745 0 0 0 1 0"/><feBlend in2="effect1_innerShadow_4002_1296" mode="normal" result="effect2_innerShadow_4002_1296"/></filter><filter id="p" color-interpolation-filters="sRGB" filterUnits="userSpaceOnUse" height="3.664" width="3.002" x="15.932" y="5.673"><feFlood flood-opacity="0" result="BackgroundImageFix"/><feBlend in="SourceGraphic" in2="BackgroundImageFix" mode="normal" result="shape"/><feGaussianBlur result="effect1_foregroundBlur_4002_1296" stdDeviation=".5"/></filter><filter id="q" color-interpolation-filters="sRGB" filterUnits="userSpaceOnUse" height="1.764" width="1.177" x="16.926" y="6.511"><feFlood flood-opacity="0" result="BackgroundImageFix"/><feBlend in="SourceGraphic" in2="BackgroundImageFix" mode="normal" result="shape"/><feGaussianBlur result="effect1_foregroundBlur_4002_1296" stdDeviation=".025"/></filter><filter id="r" color-interpolation-filters="sRGB" filterUnits="userSpaceOnUse" height=".816" width="2.047" x="16.491" y="8.51"><feFlood flood-opacity="0" result="BackgroundImageFix"/><feBlend in="SourceGraphic" in2="BackgroundImageFix" mode="normal" result="shape"/><feGaussianBlur result="effect1_foregroundBlur_4002_1296" stdDeviation=".025"/></filter><filter id="s" color-interpolation-filters="sRGB" filterUnits="userSpaceOnUse" height="5.008" width="7.387" x="13.821" y="1.57"><feFlood flood-opacity="0" result="BackgroundImageFix"/><feBlend in="SourceGraphic" in2="BackgroundImageFix" mode="normal" result="shape"/><feColorMatrix in="SourceAlpha" result="hardAlpha" type="matrix" values="0 0 0 0 0 0 0 0 0 0 0 0 0 0 0 0 0 0 127 0"/><feOffset dy="-.5"/><feGaussianBlur stdDeviation=".625"/><feComposite in2="hardAlpha" k2="-1" k3="1" operator="arithmetic"/><feColorMatrix type="matrix" values="0 0 0 0 0.266667 0 0 0 0 0.152941 0 0 0 0 0.184314 0 0 0 1 0"/><feBlend in2="shape" mode="normal" result="effect1_innerShadow_4002_1296"/><feColorMatrix in="SourceAlpha" result="hardAlpha" type="matrix" values="0 0 0 0 0 0 0 0 0 0 0 0 0 0 0 0 0 0 127 0"/><feOffset dy="-.2"/><feGaussianBlur stdDeviation=".2"/><feComposite in2="hardAlpha" k2="-1" k3="1" operator="arithmetic"/><feColorMatrix type="matrix" values="0 0 0 0 0.258824 0 0 0 0 0.133333 0 0 0 0 0.172549 0 0 0 1 0"/><feBlend in2="effect1_innerShadow_4002_1296" mode="normal" result="effect2_innerShadow_4002_1296"/></filter><filter id="t" color-interpolation-filters="sRGB" filterUnits="userSpaceOnUse" height=".768" width="1.385" x="18.427" y="4.948"><feFlood flood-opacity="0" result="BackgroundImageFix"/><feBlend in="SourceGraphic" in2="BackgroundImageFix" mode="normal" result="shape"/><feColorMatrix in="SourceAlpha" result="hardAlpha" type="matrix" values="0 0 0 0 0 0 0 0 0 0 0 0 0 0 0 0 0 0 127 0"/><feOffset dx=".1" dy="-.2"/><feGaussianBlur stdDeviation=".125"/><feComposite in2="hardAlpha" k2="-1" k3="1" operator="arithmetic"/><feColorMatrix type="matrix" values="0 0 0 0 0.243137 0 0 0 0 0.121569 0 0 0 0 0.2 0 0 0 1 0"/><feBlend in2="shape" mode="normal" result="effect1_innerShadow_4002_1296"/></filter><filter id="u" color-interpolation-filters="sRGB" filterUnits="userSpaceOnUse" height=".76" width="1.385" x="15.41" y="4.956"><feFlood flood-opacity="0" result="BackgroundImageFix"/><feBlend in="SourceGraphic" in2="BackgroundImageFix" mode="normal" result="shape"/><feColorMatrix in="SourceAlpha" result="hardAlpha" type="matrix" values="0 0 0 0 0 0 0 0 0 0 0 0 0 0 0 0 0 0 127 0"/><feOffset dx=".1" dy="-.2"/><feGaussianBlur stdDeviation=".125"/><feComposite in2="hardAlpha" k2="-1" k3="1" operator="arithmetic"/><feColorMatrix type="matrix" values="0 0 0 0 0.243137 0 0 0 0 0.121569 0 0 0 0 0.2 0 0 0 1 0"/><feBlend in2="shape" mode="normal" result="effect1_innerShadow_4002_1296"/></filter><filter id="v" color-interpolation-filters="sRGB" filterUnits="userSpaceOnUse" height="3.444" width="3.791" x="14.018" y="2.408"><feFlood flood-opacity="0" result="BackgroundImageFix"/><feBlend in="SourceGraphic" in2="BackgroundImageFix" mode="normal" result="shape"/><feColorMatrix in="SourceAlpha" result="hardAlpha" type="matrix" values="0 0 0 0 0 0 0 0 0 0 0 0 0 0 0 0 0 0 127 0"/><feOffset dx=".1" dy=".1"/><feGaussianBlur stdDeviation=".1"/><feComposite in2="hardAlpha" k2="-1" k3="1" operator="arithmetic"/><feColorMatrix type="matrix" values="0 0 0 0 0.364706 0 0 0 0 0.286275 0 0 0 0 0.270588 0 0 0 1 0"/><feBlend in2="shape" mode="normal" result="effect1_innerShadow_4002_1296"/><feGaussianBlur result="effect2_foregroundBlur_4002_1296" stdDeviation=".075"/></filter><filter id="w" color-interpolation-filters="sRGB" filterUnits="userSpaceOnUse" height="3.605" width="4.42" x="17.511" y="2.343"><feFlood flood-opacity="0" result="BackgroundImageFix"/><feBlend in="SourceGraphic" in2="BackgroundImageFix" mode="normal" result="shape"/><feColorMatrix in="SourceAlpha" result="hardAlpha" type="matrix" values="0 0 0 0 0 0 0 0 0 0 0 0 0 0 0 0 0 0 127 0"/><feOffset dx="1" dy="-.5"/><feGaussianBlur stdDeviation=".5"/><feComposite in2="hardAlpha" k2="-1" k3="1" operator="arithmetic"/><feColorMatrix type="matrix" values="0 0 0 0 0.282353 0 0 0 0 0.168627 0 0 0 0 0.188235 0 0 0 1 0"/><feBlend in2="shape" mode="normal" result="effect1_innerShadow_4002_1296"/><feGaussianBlur result="effect2_foregroundBlur_4002_1296" stdDeviation=".075"/></filter><filter id="x" color-interpolation-filters="sRGB" filterUnits="userSpaceOnUse" height=".484" width=".536" x="18.303" y="6.326"><feFlood flood-opacity="0" result="BackgroundImageFix"/><feBlend in="SourceGraphic" in2="BackgroundImageFix" mode="normal" result="shape"/><feGaussianBlur result="effect1_foregroundBlur_4002_1296" stdDeviation=".05"/></filter><filter id="y" color-interpolation-filters="sRGB" filterUnits="userSpaceOnUse" height=".694" width=".682" x="18.742" y="6.326"><feFlood flood-opacity="0" result="BackgroundImageFix"/><feBlend in="SourceGraphic" in2="BackgroundImageFix" mode="normal" result="shape"/><feGaussianBlur result="effect1_foregroundBlur_4002_1296" stdDeviation=".1"/></filter><filter id="z" color-interpolation-filters="sRGB" filterUnits="userSpaceOnUse" height=".767" width=".736" x="16.193" y="6.29"><feFlood flood-opacity="0" result="BackgroundImageFix"/><feBlend in="SourceGraphic" in2="BackgroundImageFix" mode="normal" result="shape"/><feGaussianBlur result="effect1_foregroundBlur_4002_1296" stdDeviation=".1"/></filter><filter id="A" color-interpolation-filters="sRGB" filterUnits="userSpaceOnUse" height=".489" width=".609" x="15.802" y="6.321"><feFlood flood-opacity="0" result="BackgroundImageFix"/><feBlend in="SourceGraphic" in2="BackgroundImageFix" mode="normal" result="shape"/><feGaussianBlur result="effect1_foregroundBlur_4002_1296" stdDeviation=".05"/></filter><filter id="B" color-interpolation-filters="sRGB" filterUnits="userSpaceOnUse" height="1.578" width=".976" x="13.919" y="6.209"><feFlood flood-opacity="0" result="BackgroundImageFix"/><feBlend in="SourceGraphic" in2="BackgroundImageFix" mode="normal" result="shape"/><feGaussianBlur result="effect1_foregroundBlur_4002_1296" stdDeviation=".125"/></filter><filter id="C" color-interpolation-filters="sRGB" filterUnits="userSpaceOnUse" height="2.009" width="1.462" x="19.913" y="5.99"><feFlood flood-opacity="0" result="BackgroundImageFix"/><feBlend in="SourceGraphic" in2="BackgroundImageFix" mode="normal" result="shape"/><feGaussianBlur result="effect1_foregroundBlur_4002_1296" stdDeviation=".25"/></filter><filter id="D" color-interpolation-filters="sRGB" filterUnits="userSpaceOnUse" height="1.887" width="3.219" x="18.028" y="2.856"><feFlood flood-opacity="0" result="BackgroundImageFix"/><feBlend in="SourceGraphic" in2="BackgroundImageFix" mode="normal" result="shape"/><feGaussianBlur result="effect1_foregroundBlur_4002_1296" stdDeviation=".25"/></filter><radialGradient id="E" cx="0" cy="0" gradientTransform="matrix(12.50200881 -3.89700626 4.76721357 15.293726 10.857 25.0876)" gradientUnits="userSpaceOnUse" r="1"><stop offset=".805" stop-color="#4dcd7d" stop-opacity="0"/><stop offset="1" stop-color="#4dcd7d"/></radialGradient><radialGradient id="F" cx="0" cy="0" gradientTransform="matrix(-3.61906431 1.93751728 -6.36476554 -11.88866598 22.7018 20.6166)" gradientUnits="userSpaceOnUse" r="1"><stop offset="0" stop-color="#4edd83"/><stop offset="1" stop-color="#4edd83" stop-opacity="0"/></radialGradient><linearGradient id="G" gradientUnits="userSpaceOnUse" x1="6.762" x2="7.023" y1="16.843" y2="16.843"><stop offset="0" stop-color="#a27c6e"/><stop offset="1" stop-color="#a27c6e" stop-opacity="0"/></linearGradient><radialGradient id="H" cx="0" cy="0" gradientTransform="matrix(.82293872 -.97656523 .81737165 .68878837 6.76245 16.9916)" gradientUnits="userSpaceOnUse" r="1"><stop offset=".603" stop-color="#704138" stop-opacity="0"/><stop offset="1" stop-color="#704138"/></radialGradient><radialGradient id="I" cx="0" cy="0" gradientTransform="matrix(0 .873707 -1.06183 0 7.24878 16.4747)" gradientUnits="userSpaceOnUse" r="1"><stop offset=".735" stop-color="#91597a" stop-opacity="0"/><stop offset="1" stop-color="#91597a"/></radialGradient><linearGradient id="J" gradientUnits="userSpaceOnUse" x1="10.656" x2="11.312" y1="14.335" y2="16.773"><stop offset="0" stop-color="#95715f"/><stop offset="1" stop-color="#9e6b76"/></linearGradient><linearGradient id="K" gradientUnits="userSpaceOnUse" x1="22.218" x2="22.984" y1="14.335" y2="12.945"><stop offset="0" stop-color="#9f656a"/><stop offset="1" stop-color="#a57173" stop-opacity="0"/></linearGradient><radialGradient id="L" cx="0" cy="0" gradientTransform="matrix(.88953439 2.91279025 -1.06086319 .32397605 23.6216 10.3659)" gradientUnits="userSpaceOnUse" r="1"><stop offset=".263" stop-color="#925e5d"/><stop offset="1" stop-color="#925e5d" stop-opacity="0"/></radialGradient><radialGradient id="M" cx="0" cy="0" gradientTransform="matrix(.532135 0 0 2.90625 23.3267 8.71646)" gradientUnits="userSpaceOnUse" r="1"><stop offset="0" stop-color="#916958"/><stop offset="1" stop-color="#916958" stop-opacity="0"/></radialGradient><radialGradient id="N" cx="0" cy="0" gradientTransform="matrix(-.57031605 .46874634 -.20110001 -.24467511 25.7104 7.40564)" gradientUnits="userSpaceOnUse" r="1"><stop offset="0" stop-color="#b49381"/><stop offset="1" stop-color="#b49381" stop-opacity="0"/></radialGradient><radialGradient id="O" cx="0" cy="0" gradientTransform="matrix(-.69531441 -.57812267 .46884939 -.56389024 25.4838 8.77283)" gradientUnits="userSpaceOnUse" r="1"><stop offset=".193" stop-color="#895b49"/><stop offset="1" stop-color="#895b49" stop-opacity="0"/></radialGradient><radialGradient id="P" cx="0" cy="0" gradientTransform="matrix(0 6.46875 -5.71107 0 19.1765 12.7416)" gradientUnits="userSpaceOnUse" r="1"><stop offset=".377" stop-color="#ff8738"/><stop offset="1" stop-color="#eb6820"/></radialGradient><radialGradient id="Q" cx="0" cy="0" gradientTransform="matrix(.96875038 1.58079501 -1.6393196 1.0046157 18.864 12.5854)" gradientUnits="userSpaceOnUse" r="1"><stop offset=".221" stop-color="#ff8e3e"/><stop offset="1" stop-color="#ff8e3e" stop-opacity="0"/></radialGradient><linearGradient id="R" gradientUnits="userSpaceOnUse" x1="13.802" x2="15.755" y1="16.085" y2="16.085"><stop offset="0" stop-color="#db6229"/><stop offset="1" stop-color="#fb711e" stop-opacity="0"/></linearGradient><radialGradient id="S" cx="0" cy="0" gradientTransform="matrix(-4.00003364 -7.0781041 9.38790039 -5.30536382 19.3328 16.9604)" gradientUnits="userSpaceOnUse" r="1"><stop offset=".786" stop-color="#e15c10" stop-opacity="0"/><stop offset="1" stop-color="#e15c10"/></radialGradient><radialGradient id="T" cx="0" cy="0" gradientTransform="matrix(-3.47102852 2.30186944 -1.86832591 -2.81728077 17.1163 9.53749)" gradientUnits="userSpaceOnUse" r="1"><stop offset=".206" stop-color="#603a2f"/><stop offset="1" stop-color="#70493c" stop-opacity="0"/></radialGradient><linearGradient id="U"><stop offset="0" stop-color="#40b87c"/><stop offset="1" stop-color="#40b87c" stop-opacity="0"/></linearGradient><linearGradient id="V" gradientUnits="userSpaceOnUse" x1="11.768" x2="20.875" xlink:href="#U" y1="27.015" y2="28.857"/><linearGradient id="W" gradientUnits="userSpaceOnUse" x1="10.518" x2="8.203" y1="25.808" y2="25.435"><stop offset=".302" stop-color="#40b87c"/><stop offset="1" stop-color="#40b87c" stop-opacity="0"/></linearGradient><linearGradient id="X" gradientUnits="userSpaceOnUse" x1="14.013" x2="13.482" xlink:href="#U" y1="24.145" y2="26.255"/><linearGradient id="Y" gradientUnits="userSpaceOnUse" x1="24.406" x2="22.549" y1="14.21" y2="15.252"><stop offset=".358" stop-color="#b38a7a"/><stop offset="1" stop-color="#b38a7a" stop-opacity="0"/></linearGradient><linearGradient id="Z" gradientUnits="userSpaceOnUse" x1="24.517" x2="24.517" y1="7.765" y2="10.144"><stop offset=".355" stop-color="#b38d7e"/><stop offset="1" stop-color="#b38d7e" stop-opacity="0"/></linearGradient><linearGradient id="aa" gradientUnits="userSpaceOnUse" x1="13.839" x2="13.674" y1="13.023" y2="17.912"><stop offset="0" stop-color="#a87a74"/><stop offset="1" stop-color="#a87a74" stop-opacity="0"/></linearGradient><radialGradient id="ab" cx="0" cy="0" gradientTransform="matrix(.42967393 1.1588797 -1.37666248 .51042052 20.2425 7.68665)" gradientUnits="userSpaceOnUse" r="1"><stop offset=".215" stop-color="#493b3b"/><stop offset="1" stop-color="#311f2c"/></radialGradient><radialGradient id="ac" cx="0" cy="0" gradientTransform="matrix(.84724463 .26627707 -.82148343 2.61380906 14.0393 7.96802)" gradientUnits="userSpaceOnUse" r="1"><stop offset="0" stop-color="#4c3c39"/><stop offset=".746" stop-color="#2e1c2e"/></radialGradient><radialGradient id="ad" cx="0" cy="0" gradientTransform="matrix(-2.69991 0 0 -4.77611 19.126 7.14663)" gradientUnits="userSpaceOnUse" r="1"><stop offset="0" stop-color="#c89980"/><stop offset="1" stop-color="#926763"/></radialGradient><radialGradient id="ae" cx="0" cy="0" gradientTransform="matrix(-1.00028697 1.65434062 -1.36578686 -.8258147 18.9076 4.28952)" gradientUnits="userSpaceOnUse" r="1"><stop offset=".078" stop-color="#af887b"/><stop offset="1" stop-color="#af887b" stop-opacity="0"/></radialGradient><linearGradient id="af" gradientUnits="userSpaceOnUse" x1="20.474" x2="19.023" y1="8.114" y2="8.114"><stop offset="0" stop-color="#c2987e"/><stop offset="1" stop-color="#c2987e" stop-opacity="0"/></linearGradient><radialGradient id="ag" cx="0" cy="0" gradientTransform="matrix(0 6.64304 -8.71927 0 17.5418 4.04464)" gradientUnits="userSpaceOnUse" r="1"><stop offset=".723" stop-color="#9f6b75" stop-opacity="0"/><stop offset="1" stop-color="#925962"/></radialGradient><radialGradient id="ah" cx="0" cy="0" gradientTransform="matrix(0 -.658963 .815467 0 18.9191 6.39326)" gradientUnits="userSpaceOnUse" r="1"><stop offset=".325" stop-color="#ab7872"/><stop offset="1" stop-color="#ab7872" stop-opacity="0"/></radialGradient><radialGradient id="ai" cx="0" cy="0" gradientTransform="matrix(.00225548 -.62793395 .68334059 .00245449 16.1949 6.41994)" gradientUnits="userSpaceOnUse" r="1"><stop offset=".378" stop-color="#8f5d66"/><stop offset="1" stop-color="#8f5d66" stop-opacity="0"/></radialGradient><radialGradient id="aj" cx="0" cy="0" gradientTransform="matrix(-4.87528624 .30775214 -.78615241 -12.45391176 19.4847 7.7136)" gradientUnits="userSpaceOnUse" r="1"><stop offset=".836" stop-color="#987064" stop-opacity="0"/><stop offset="1" stop-color="#987064"/></radialGradient><radialGradient id="ak" cx="0" cy="0" gradientTransform="matrix(1.94288095 -1.67357345 .49434474 .57389353 13.6175 5.57835)" gradientUnits="userSpaceOnUse" r="1"><stop offset=".539" stop-color="#63413d"/><stop offset="1" stop-color="#63413d" stop-opacity="0"/></radialGradient><radialGradient id="al" cx="0" cy="0" gradientTransform="matrix(-.13465444 1.4331179 -.57287679 -.05382698 20.6966 5.47256)" gradientUnits="userSpaceOnUse" r="1"><stop offset=".245" stop-color="#bf9980"/><stop offset="1" stop-color="#bf9980" stop-opacity="0"/></radialGradient><radialGradient id="am" cx="0" cy="0" gradientTransform="matrix(0 .500147 -.96014 0 16.2433 6.86238)" gradientUnits="userSpaceOnUse" r="1"><stop offset="0" stop-color="#9e7765"/><stop offset="1" stop-color="#9e7765" stop-opacity="0"/></radialGradient><linearGradient id="an" gradientUnits="userSpaceOnUse" x1="17.996" x2="17.515" y1="7.534" y2="7.554"><stop offset="0" stop-color="#cea58c"/><stop offset="1" stop-color="#cea58c" stop-opacity="0"/></linearGradient><radialGradient id="ao" cx="0" cy="0" gradientTransform="matrix(0 .140075 -.440234 0 17.7823 7.9273)" gradientUnits="userSpaceOnUse" r="1"><stop offset="0" stop-color="#c59a8a"/><stop offset="1" stop-color="#c59a8a" stop-opacity="0"/></radialGradient><linearGradient id="ap" gradientUnits="userSpaceOnUse" x1="17.515" x2="17.515" y1="8.187" y2="7.921"><stop offset="0" stop-color="#9c6376"/><stop offset="1" stop-color="#9c6376" stop-opacity="0"/></linearGradient><radialGradient id="aq" cx="0" cy="0" gradientTransform="matrix(-.97095989 .4304324 -.6917419 -1.56041608 17.849 7.60046)" gradientUnits="userSpaceOnUse" r="1"><stop offset=".702" stop-color="#8a5f5c" stop-opacity="0"/><stop offset="1" stop-color="#744a4a"/><stop offset="1" stop-color="#8a5f5c"/></radialGradient><linearGradient id="ar" gradientUnits="userSpaceOnUse" x1="17.515" x2="17.515" y1="6.743" y2="7.295"><stop offset="0" stop-color="#a2756b"/><stop offset="1" stop-color="#a2756b" stop-opacity="0"/></linearGradient><linearGradient id="as" gradientUnits="userSpaceOnUse" x1="16.825" x2="17.008" y1="9.089" y2="8.61"><stop offset="0" stop-color="#ab817b"/><stop offset="1" stop-color="#ab817b" stop-opacity="0"/></linearGradient><radialGradient id="at" cx="0" cy="0" gradientTransform="matrix(1.25209567 -.61556737 2.47658182 5.03749471 17.2329 9.22555)" gradientUnits="userSpaceOnUse" r="1"><stop offset=".562" stop-color="#87014e"/><stop offset="1" stop-color="#87004d"/></radialGradient><linearGradient id="au" gradientUnits="userSpaceOnUse" x1="21.447" x2="14.783" y1="3.897" y2="3.897"><stop offset=".471" stop-color="#614440"/><stop offset="1" stop-color="#543f3c"/></linearGradient><radialGradient id="av" cx="0" cy="0" gradientTransform="matrix(1.57268898 -4.1026655 5.821636 2.2316279 14.2395 6.0423)" gradientUnits="userSpaceOnUse" r="1"><stop offset="0" stop-color="#604946"/><stop offset="1" stop-color="#604946" stop-opacity="0"/></radialGradient><radialGradient id="aw" cx="0" cy="0" gradientTransform="matrix(-.87183707 -3.76076593 5.33649812 -1.23713014 20.7696 6.07649)" gradientUnits="userSpaceOnUse" r="1"><stop offset=".303" stop-color="#604946"/><stop offset="1" stop-color="#604946" stop-opacity="0"/></radialGradient><radialGradient id="ax" cx="0" cy="0" gradientTransform="matrix(-.64959445 -1.36754991 1.61442411 -.76686119 19.3678 3.61489)" gradientUnits="userSpaceOnUse" r="1"><stop offset="0" stop-color="#765a55"/><stop offset="1" stop-color="#765a55" stop-opacity="0"/></radialGradient><radialGradient id="ay" cx="0" cy="0" gradientTransform="matrix(-1.26308 0 0 -.468779 17.6596 3.01919)" gradientUnits="userSpaceOnUse" r="1"><stop offset="0" stop-color="#654647"/><stop offset="1" stop-color="#654647" stop-opacity="0"/></radialGradient><radialGradient id="az" cx="0" cy="0" gradientTransform="matrix(1.84669502 -2.92393879 3.23942468 2.04594892 14.3979 5.28152)" gradientUnits="userSpaceOnUse" r="1"><stop offset=".093" stop-color="#37192c"/><stop offset=".311" stop-color="#472438"/><stop offset="1" stop-color="#472438" stop-opacity="0"/></radialGradient><radialGradient id="aA" cx="0" cy="0" gradientTransform="matrix(2.01714089 -1.62396871 2.51680597 3.12613918 18.6157 4.48657)" gradientUnits="userSpaceOnUse" r="1"><stop offset="0" stop-color="#532c3f"/><stop offset=".445" stop-color="#532c3f" stop-opacity="0"/></radialGradient><radialGradient id="aB" cx="0" cy="0" gradientTransform="matrix(1.69789769 -1.5196375 2.78206176 3.10840989 19.0259 5.20838)" gradientUnits="userSpaceOnUse" r="1"><stop offset=".857" stop-color="#685351" stop-opacity="0"/><stop offset="1" stop-color="#685351"/></radialGradient><radialGradient id="aC" cx="0" cy="0" gradientTransform="matrix(1.850774 .41554243 -.17397927 .77488191 18.5307 4.16346)" gradientUnits="userSpaceOnUse" r="1"><stop offset="0" stop-color="#4f2b3c"/><stop offset="1" stop-color="#4f2b3c" stop-opacity="0"/></radialGradient><linearGradient id="aD"><stop offset=".802" stop-color="#7d574a"/><stop offset="1" stop-color="#694b43"/><stop offset="1" stop-color="#804d49"/><stop offset="1" stop-color="#664842"/></linearGradient><radialGradient id="aE" cx="0" cy="0" gradientTransform="matrix(0 .465563 -.74053 0 18.7669 6.62078)" gradientUnits="userSpaceOnUse" r="1" xlink:href="#aD"/><linearGradient id="aF"><stop offset=".766" stop-color="#ffe6e2" stop-opacity="0"/><stop offset=".966" stop-color="#ffe6e2"/></linearGradient><radialGradient id="aG" cx="0" cy="0" gradientTransform="matrix(-.13290677 -.17126829 .2357953 -.18298069 18.6356 6.66892)" gradientUnits="userSpaceOnUse" r="1" xlink:href="#aF"/><linearGradient id="aH"><stop offset="0" stop-color="#b4948d"/><stop offset="1" stop-color="#b4948d" stop-opacity="0"/></linearGradient><linearGradient id="aI" gradientUnits="userSpaceOnUse" x1="19.213" x2="19.033" xlink:href="#aH" y1="6.652" y2="6.762"/><radialGradient id="aJ" cx="0" cy="0" gradientTransform="matrix(0 .465587 -.740568 0 16.2628 6.62079)" gradientUnits="userSpaceOnUse" r="1" xlink:href="#aD"/><linearGradient id="aK" gradientUnits="userSpaceOnUse" x1="16.689" x2="16.509" xlink:href="#aH" y1="6.652" y2="6.762"/><radialGradient id="aL" cx="0" cy="0" gradientTransform="matrix(-.00443322 -.2831483 .34035629 -.00532892 16.098 6.74623)" gradientUnits="userSpaceOnUse" r="1" xlink:href="#aF"/><linearGradient id="aM" gradientUnits="userSpaceOnUse" x1="21.208" x2="20.516" y1="6.667" y2="7.916"><stop offset="0" stop-color="#c9a188"/><stop offset="1" stop-color="#b08175"/></linearGradient><radialGradient id="aN" cx="0" cy="0" gradientTransform="matrix(.36068244 1.28726429 -1.2281509 .34411928 20.1646 6.6286)" gradientUnits="userSpaceOnUse" r="1"><stop offset=".856" stop-color="#9a676a" stop-opacity="0"/><stop offset="1" stop-color="#9a676a"/></radialGradient><radialGradient id="aO" cx="0" cy="0" gradientTransform="matrix(.45205689 -.62037495 .51999732 .37891339 20.3714 6.94119)" gradientUnits="userSpaceOnUse" r="1"><stop offset=".664" stop-color="#9e6a5c"/><stop offset="1" stop-color="#9e6a5c" stop-opacity="0"/></radialGradient><radialGradient id="aP" cx="0" cy="0" gradientTransform="matrix(.33683897 -.88968519 1.18874395 .45006402 20.4368 7.04014)" gradientUnits="userSpaceOnUse" r="1"><stop offset=".803" stop-color="#a47f62" stop-opacity="0"/><stop offset="1" stop-color="#a47f62"/></radialGradient><linearGradient id="aQ" gradientUnits="userSpaceOnUse" x1="14.158" x2="14.995" y1="7.071" y2="6.998"><stop offset="0" stop-color="#855d5a"/><stop offset="1" stop-color="#7d4d5b"/></linearGradient><radialGradient id="aR" cx="0" cy="0" gradientTransform="matrix(-.951562 0 0 -1.06256 14.694 6.99676)" gradientUnits="userSpaceOnUse" r="1"><stop offset=".778" stop-color="#9d7667" stop-opacity="0"/><stop offset="1" stop-color="#9d7667"/></radialGradient><radialGradient id="aS" cx="0" cy="0" gradientTransform="matrix(-.52590749 .09027294 -.09255785 -.53921881 14.6946 6.99808)" gradientUnits="userSpaceOnUse" r="1"><stop offset="0" stop-color="#714b4d"/><stop offset="1" stop-color="#784e52"/></radialGradient><linearGradient id="aT" gradientUnits="userSpaceOnUse" x1="20.644" x2="20.644" y1="6.49" y2="7.499"><stop offset="0" stop-color="#ac7f6f"/><stop offset="1" stop-color="#ad806f"/></linearGradient><g filter="url(#a)"><path d="m13.3563 19.1361c0-1.425.7591-2.1016 1.1602-2.2422l5.6601-.3398c1.6093.7187 2.9531 2.7812 3.1406 5.2812s-.2031 4.9532-2.2656 6.5625c-1.65 1.2875-3.9584 1.5521-4.9375 1.5313h-2.4726c-2.625 0-3.2462-1.8906-3.3556-2.2969-.0588-.2186-.1315-.4412-.184-.5984-.0376-.113-.11298-.2107-.22118-.2606-.52772-.243-1.52066-.4853-1.9463-1.3871-.29156-.6177-.32285-1.2078-.27991-1.6297.02172-.2136.23126-.3444.44048-.2966.51959.1188.95045.2524 1.56986.5669.59845.3332 1.00445.8344 1.23725 1.2267.065.1096.2378.1115.3037.0023.2061-.342.5613-.818 1.0451-1.1196.6822-.4252 1.35-.6157 1.8459-.6783.2072-.0261.3831.1359.3875.3447.0366 1.7658-.7478 2.2752-1.1983 2.5133-.2879.1314-.6198.2774-.8655.388-.1393.0628-.2086.2233-.1408.3602.4743.9561 1.4683.869 2.8579.869 1.8515 0 2.9609-1.3242 2.8437-2.7227-.0625-1.8125-1.5625-2.5156-2.5703-3.1484-.5232-.3285-2.0547-1.1445-2.0547-2.9258z" fill="#35bb78"/></g><path d="m13.3563 19.1361c0-1.425.7591-2.1016 1.1602-2.2422l5.6601-.3398c1.6093.7187 2.9531 2.7812 3.1406 5.2812s-.2031 4.9532-2.2656 6.5625c-1.65 1.2875-3.9584 1.5521-4.9375 1.5313h-2.4726c-2.625 0-3.2462-1.8906-3.3556-2.2969-.0588-.2186-.1315-.4412-.184-.5984-.0376-.113-.11298-.2107-.22118-.2606-.52772-.243-1.52066-.4853-1.9463-1.3871-.29156-.6177-.32285-1.2078-.27991-1.6297.02172-.2136.23126-.3444.44048-.2966.51959.1188.95045.2524 1.56986.5669.59845.3332 1.00445.8344 1.23725 1.2267.065.1096.2378.1115.3037.0023.2061-.342.5613-.818 1.0451-1.1196.6822-.4252 1.35-.6157 1.8459-.6783.2072-.0261.3831.1359.3875.3447.0366 1.7658-.7478 2.2752-1.1983 2.5133-.2879.1314-.6198.2774-.8655.388-.1393.0628-.2086.2233-.1408.3602.4743.9561 1.4683.869 2.8579.869 1.8515 0 2.9609-1.3242 2.8437-2.7227-.0625-1.8125-1.5625-2.5156-2.5703-3.1484-.5232-.3285-2.0547-1.1445-2.0547-2.9258z" fill="url(#E)"/><g filter="url(#b)"><path d="m21.3171 26.7103c0-5.3437-3.9218-7.9687-5.2343-9l3.25-1.4531c1.125.5208 3.0349 2.3577 3.4531 5.1094.4844 3.1875-.9271 4.9271-1.4688 5.3437z" fill="url(#F)"/></g><path d="m6.76245 16.0873c0-.2686.21774-.4863.48633-.4863s.48633.2177.48633.4863v.7747c0 .2686-.21774.4864-.48633.4864s-.48633-.2178-.48633-.4864z" fill="#805755"/><path d="m6.76245 16.0873c0-.2686.21774-.4863.48633-.4863s.48633.2177.48633.4863v.7747c0 .2686-.21774.4864-.48633.4864s-.48633-.2178-.48633-.4864z" fill="url(#G)"/><path d="m6.76245 16.0873c0-.2686.21774-.4863.48633-.4863s.48633.2177.48633.4863v.7747c0 .2686-.21774.4864-.48633.4864s-.48633-.2178-.48633-.4864z" fill="url(#H)"/><path d="m6.76245 16.0873c0-.2686.21774-.4863.48633-.4863s.48633.2177.48633.4863v.7747c0 .2686-.21774.4864-.48633.4864s-.48633-.2178-.48633-.4864z" fill="url(#I)"/><g filter="url(#c)"><path d="m6.56903 15.0666-.75457.8574c-.19086.2168-.17103.5471.0444.7395.21189.1893.53584.1761.73156-.0299l.554-.583c.12384-.1304.32157-.1573.47575-.0648l.01801.0108c.05521.0331.06449.1094.01886.1548l-.31675.3151c-.20214.2011-.20786.5265-.01291.7346.19311.2061.51432.2235.72859.0395l.55666-.4781c.03627-.0311.0825-.0483.13031-.0483h1.76486c.6026 0 1.185-.2176 1.6398-.6129l2.365-2.055v-3.25c-.2563.025-.5899.2851-.7227.4179l-3.2468 3.0397c-.0782.0732-.1778.1193-.2841.1317l-3.06846.3557c-.24028.0278-.46171.1437-.62151.3253z" fill="url(#J)"/></g><g filter="url(#d)"><path d="m23.5874 12.2809-2.8445-1.4651-.4062 2.7187 3.3487 1.7078c.589.3004 1.2952.2538 1.8395-.1214.5269-.3631.8197-.9786.7897-1.6178-.0599-1.2727-.0806-2.6886-.1029-3.58574v-1.39063c0-.2934-.2379-.53125-.5313-.53125s-.5312.23785-.5312.53125v.50047c0 .13964-.1397.2337-.2557.15591-.0934-.06271-.1736-.13308-.2387-.20011-.1248-.12857-.1697-.30862-.1697-.48782v-.66767c0-.2934-.2378-.53125-.5312-.53125s-.5313.23785-.5313.53125v1.20162c0 .2356.0832.46364.2349.6439l.3738.44417c.0353.042.0519.0965.0458.1511-.0654.5815-.1482 1.3529-.197 1.8526-.0139.1415-.1663.2251-.2927.16z" fill="#ac866c"/><path d="m23.5874 12.2809-2.8445-1.4651-.4062 2.7187 3.3487 1.7078c.589.3004 1.2952.2538 1.8395-.1214.5269-.3631.8197-.9786.7897-1.6178-.0599-1.2727-.0806-2.6886-.1029-3.58574v-1.39063c0-.2934-.2379-.53125-.5313-.53125s-.5312.23785-.5312.53125v.50047c0 .13964-.1397.2337-.2557.15591-.0934-.06271-.1736-.13308-.2387-.20011-.1248-.12857-.1697-.30862-.1697-.48782v-.66767c0-.2934-.2378-.53125-.5312-.53125s-.5313.23785-.5313.53125v1.20162c0 .2356.0832.46364.2349.6439l.3738.44417c.0353.042.0519.0965.0458.1511-.0654.5815-.1482 1.3529-.197 1.8526-.0139.1415-.1663.2251-.2927.16z" fill="url(#K)"/><path d="m23.5874 12.2809-2.8445-1.4651-.4062 2.7187 3.3487 1.7078c.589.3004 1.2952.2538 1.8395-.1214.5269-.3631.8197-.9786.7897-1.6178-.0599-1.2727-.0806-2.6886-.1029-3.58574v-1.39063c0-.2934-.2379-.53125-.5313-.53125s-.5312.23785-.5312.53125v.50047c0 .13964-.1397.2337-.2557.15591-.0934-.06271-.1736-.13308-.2387-.20011-.1248-.12857-.1697-.30862-.1697-.48782v-.66767c0-.2934-.2378-.53125-.5312-.53125s-.5313.23785-.5313.53125v1.20162c0 .2356.0832.46364.2349.6439l.3738.44417c.0353.042.0519.0965.0458.1511-.0654.5815-.1482 1.3529-.197 1.8526-.0139.1415-.1663.2251-.2927.16z" fill="url(#L)"/><path d="m23.5874 12.2809-2.8445-1.4651-.4062 2.7187 3.3487 1.7078c.589.3004 1.2952.2538 1.8395-.1214.5269-.3631.8197-.9786.7897-1.6178-.0599-1.2727-.0806-2.6886-.1029-3.58574v-1.39063c0-.2934-.2379-.53125-.5313-.53125s-.5312.23785-.5312.53125v.50047c0 .13964-.1397.2337-.2557.15591-.0934-.06271-.1736-.13308-.2387-.20011-.1248-.12857-.1697-.30862-.1697-.48782v-.66767c0-.2934-.2378-.53125-.5312-.53125s-.5313.23785-.5313.53125v1.20162c0 .2356.0832.46364.2349.6439l.3738.44417c.0353.042.0519.0965.0458.1511-.0654.5815-.1482 1.3529-.197 1.8526-.0139.1415-.1663.2251-.2927.16z" fill="url(#M)"/></g><g filter="url(#e)"><path d="m25.6832 7.99549-.0028-.00001c-.2934 0-.5312.23785-.5312.53125v.50046c0 .13964-.1397.23371-.2557.15592-.0934-.06271-.1736-.13308-.2387-.20012-.1248-.12857-.1697-.30862-.1697-.48782v-.54614l.5595-.55802c.172-.17156.4505-.1712.622.0008.1656.16598.171.43115.0166.60368z" fill="#a5836b"/><path d="m25.6832 7.99549-.0028-.00001c-.2934 0-.5312.23785-.5312.53125v.50046c0 .13964-.1397.23371-.2557.15592-.0934-.06271-.1736-.13308-.2387-.20012-.1248-.12857-.1697-.30862-.1697-.48782v-.54614l.5595-.55802c.172-.17156.4505-.1712.622.0008.1656.16598.171.43115.0166.60368z" fill="url(#N)"/><path d="m25.6832 7.99549-.0028-.00001c-.2934 0-.5312.23785-.5312.53125v.50046c0 .13964-.1397.23371-.2557.15592-.0934-.06271-.1736-.13308-.2387-.20012-.1248-.12857-.1697-.30862-.1697-.48782v-.54614l.5595-.55802c.172-.17156.4505-.1712.622.0008.1656.16598.171.43115.0166.60368z" fill="url(#O)"/></g><g filter="url(#f)"><path d="m14.2547 10.8914c0-.039.0224-.0744.058-.0902.1999-.0889.631-.2627 1.0899-.3464.0303-.0055.058.018.058.0488v.778c0 1.1343.9195 2.0538 2.0538 2.0538 1.1342 0 2.0537-.9195 2.0537-2.0538v-.778c0-.0308.0277-.0543.0581-.0488.4616.0838.92.258 1.1249.3467.0357.0155.0582.0509.0582.0899l.0001 6.3869c0 .3314-.2686.6-.6.6h-5.3548c-.3313 0-.6-.2686-.6-.6z" fill="url(#P)"/><path d="m14.2547 10.8914c0-.039.0224-.0744.058-.0902.1999-.0889.631-.2627 1.0899-.3464.0303-.0055.058.018.058.0488v.778c0 1.1343.9195 2.0538 2.0538 2.0538 1.1342 0 2.0537-.9195 2.0537-2.0538v-.778c0-.0308.0277-.0543.0581-.0488.4616.0838.92.258 1.1249.3467.0357.0155.0582.0509.0582.0899l.0001 6.3869c0 .3314-.2686.6-.6.6h-5.3548c-.3313 0-.6-.2686-.6-.6z" fill="url(#Q)"/></g><path d="m14.2547 10.8914c0-.039.0224-.0744.058-.0902.1999-.0889.631-.2627 1.0899-.3464.0303-.0055.058.018.058.0488v.778c0 1.1343.9195 2.0538 2.0538 2.0538 1.1342 0 2.0537-.9195 2.0537-2.0538v-.778c0-.0308.0277-.0543.0581-.0488.4616.0838.92.258 1.1249.3467.0357.0155.0582.0509.0582.0899l.0001 6.3869c0 .3314-.2686.6-.6.6h-5.3548c-.3313 0-.6-.2686-.6-.6z" fill="url(#R)"/><path d="m14.2547 10.8914c0-.039.0224-.0744.058-.0902.1999-.0889.631-.2627 1.0899-.3464.0303-.0055.058.018.058.0488v.778c0 1.1343.9195 2.0538 2.0538 2.0538 1.1342 0 2.0537-.9195 2.0537-2.0538v-.778c0-.0308.0277-.0543.0581-.0488.4616.0838.92.258 1.1249.3467.0357.0155.0582.0509.0582.0899l.0001 6.3869c0 .3314-.2686.6-.6.6h-5.3548c-.3313 0-.6-.2686-.6-.6z" fill="url(#S)"/><g filter="url(#g)"><path d="m19.5709 10.4874c-1.7792-.4225-3.2567-.227-4.1124.0015.0014.0046.0022.0096.0022.0147v.778c0 1.1343.9195 2.0538 2.0538 2.0538 1.1342 0 2.0537-.9195 2.0537-2.0538v-.778c0-.0057.001-.0112.0027-.0162z" fill="#b08370"/><path d="m19.5709 10.4874c-1.7792-.4225-3.2567-.227-4.1124.0015.0014.0046.0022.0096.0022.0147v.778c0 1.1343.9195 2.0538 2.0538 2.0538 1.1342 0 2.0537-.9195 2.0537-2.0538v-.778c0-.0057.001-.0112.0027-.0162z" fill="url(#T)"/></g><g filter="url(#h)"><path d="m11.4288 26.9089c-.0071.6495.4363 1.9485 2.2662 1.9485h3.1769c1.0095-.0141 3.3166-.5167 4.4688-2.4144" stroke="url(#V)" stroke-linecap="round" stroke-width=".4"/></g><g filter="url(#i)"><path d="m8.84473 24.4733c.40945.1623 1.40207.7836 2.09677 1.9697" stroke="url(#W)" stroke-linecap="round" stroke-width=".4"/></g><g filter="url(#j)"><path d="m13.9914 23.9545c-.3071.353-1.1331 1.1013-1.885 1.832" stroke="url(#X)" stroke-linecap="round" stroke-width=".4"/></g><g filter="url(#k)"><path d="m21.3901 12.4603 2.5703 1.3672" stroke="url(#Y)" stroke-linecap="round" stroke-width=".5"/></g><g filter="url(#l)"><path d="m25.1558 14.0072v-3.7812l.5937-.4063v-1.07812" stroke="#b9937f" stroke-linecap="round" stroke-width=".6"/></g><g filter="url(#m)"><path d="m23.9917 7.76501v1.12102c0 .13261.0527.25979.1464.35356l.9044.90431" stroke="url(#Z)" stroke-linecap="round" stroke-width=".4"/></g><g filter="url(#n)"><path d="m13.8386 13.0228-2.9687 2.7188h-2.31253" stroke="url(#aa)" stroke-linecap="round" stroke-width=".5"/></g><path d="m20.3044 7.86369c.1924-.00621.3725-.07144.5191-.17704v.53424c0 .5125-.3054.96909-.7695 1.15856.0977-.2081.1649-.43485.1985-.67712z" fill="url(#ab)"/><path d="m14.7251 7.86369c-.1923-.00621-.3725-.07144-.519-.17704v.53424c0 .5125.3053.96909.7694 1.15856-.0977-.2081-.1649-.43485-.1985-.67712z" fill="url(#ac)"/><g filter="url(#o)"><path d="m14.7461 8.73325c.1476 1.12033 1.101 1.95445 2.2298 1.95445h1.0825c1.1287 0 2.0822-.83412 2.2298-1.95445.0677-1.08093.1358-2.15751.186-3.23787-.0061-.44013-.3531-.80332-.7913-.82178h-.8035c-.5478 0-1.0439-.32318-1.2691-.82794-.0579-.14466-.1979-.24007-.3531-.24007h-.7304c-1.0592 0-1.9174.86795-1.9174 1.93903 0 1.06775.0667 2.1182.1367 3.18863z" fill="url(#ad)"/><path d="m14.7461 8.73325c.1476 1.12033 1.101 1.95445 2.2298 1.95445h1.0825c1.1287 0 2.0822-.83412 2.2298-1.95445.0677-1.08093.1358-2.15751.186-3.23787-.0061-.44013-.3531-.80332-.7913-.82178h-.8035c-.5478 0-1.0439-.32318-1.2691-.82794-.0579-.14466-.1979-.24007-.3531-.24007h-.7304c-1.0592 0-1.9174.86795-1.9174 1.93903 0 1.06775.0667 2.1182.1367 3.18863z" fill="url(#ae)"/></g><path d="m14.7461 8.73325c.1476 1.12033 1.101 1.95445 2.2298 1.95445h1.0825c1.1287 0 2.0822-.83412 2.2298-1.95445.0677-1.08093.1358-2.15751.186-3.23787-.0061-.44013-.3531-.80332-.7913-.82178h-.8035c-.5478 0-1.0439-.32318-1.2691-.82794-.0579-.14466-.1979-.24007-.3531-.24007h-.7304c-1.0592 0-1.9174.86795-1.9174 1.93903 0 1.06775.0667 2.1182.1367 3.18863z" fill="url(#af)"/><path d="m14.7461 8.73325c.1476 1.12033 1.101 1.95445 2.2298 1.95445h1.0825c1.1287 0 2.0822-.83412 2.2298-1.95445.0677-1.08093.1358-2.15751.186-3.23787-.0061-.44013-.3531-.80332-.7913-.82178h-.8035c-.5478 0-1.0439-.32318-1.2691-.82794-.0579-.14466-.1979-.24007-.3531-.24007h-.7304c-1.0592 0-1.9174.86795-1.9174 1.93903 0 1.06775.0667 2.1182.1367 3.18863z" fill="url(#ag)"/><path d="m14.7461 8.73325c.1476 1.12033 1.101 1.95445 2.2298 1.95445h1.0825c1.1287 0 2.0822-.83412 2.2298-1.95445.0677-1.08093.1358-2.15751.186-3.23787-.0061-.44013-.3531-.80332-.7913-.82178h-.8035c-.5478 0-1.0439-.32318-1.2691-.82794-.0579-.14466-.1979-.24007-.3531-.24007h-.7304c-1.0592 0-1.9174.86795-1.9174 1.93903 0 1.06775.0667 2.1182.1367 3.18863z" fill="url(#ah)"/><path d="m14.7461 8.73325c.1476 1.12033 1.101 1.95445 2.2298 1.95445h1.0825c1.1287 0 2.0822-.83412 2.2298-1.95445.0677-1.08093.1358-2.15751.186-3.23787-.0061-.44013-.3531-.80332-.7913-.82178h-.8035c-.5478 0-1.0439-.32318-1.2691-.82794-.0579-.14466-.1979-.24007-.3531-.24007h-.7304c-1.0592 0-1.9174.86795-1.9174 1.93903 0 1.06775.0667 2.1182.1367 3.18863z" fill="url(#ai)"/><path d="m14.7461 8.73325c.1476 1.12033 1.101 1.95445 2.2298 1.95445h1.0825c1.1287 0 2.0822-.83412 2.2298-1.95445.0677-1.08093.1358-2.15751.186-3.23787-.0061-.44013-.3531-.80332-.7913-.82178h-.8035c-.5478 0-1.0439-.32318-1.2691-.82794-.0579-.14466-.1979-.24007-.3531-.24007h-.7304c-1.0592 0-1.9174.86795-1.9174 1.93903 0 1.06775.0667 2.1182.1367 3.18863z" fill="url(#aj)"/><path d="m14.7461 8.73325c.1476 1.12033 1.101 1.95445 2.2298 1.95445h1.0825c1.1287 0 2.0822-.83412 2.2298-1.95445.0677-1.08093.1358-2.15751.186-3.23787-.0061-.44013-.3531-.80332-.7913-.82178h-.8035c-.5478 0-1.0439-.32318-1.2691-.82794-.0579-.14466-.1979-.24007-.3531-.24007h-.7304c-1.0592 0-1.9174.86795-1.9174 1.93903 0 1.06775.0667 2.1182.1367 3.18863z" fill="url(#ak)"/><path d="m14.7461 8.73325c.1476 1.12033 1.101 1.95445 2.2298 1.95445h1.0825c1.1287 0 2.0822-.83412 2.2298-1.95445.0677-1.08093.1358-2.15751.186-3.23787-.0061-.44013-.3531-.80332-.7913-.82178h-.8035c-.5478 0-1.0439-.32318-1.2691-.82794-.0579-.14466-.1979-.24007-.3531-.24007h-.7304c-1.0592 0-1.9174.86795-1.9174 1.93903 0 1.06775.0667 2.1182.1367 3.18863z" fill="url(#al)"/><path d="m14.7461 8.73325c.1476 1.12033 1.101 1.95445 2.2298 1.95445h1.0825c1.1287 0 2.0822-.83412 2.2298-1.95445.0677-1.08093.1358-2.15751.186-3.23787-.0061-.44013-.3531-.80332-.7913-.82178h-.8035c-.5478 0-1.0439-.32318-1.2691-.82794-.0579-.14466-.1979-.24007-.3531-.24007h-.7304c-1.0592 0-1.9174.86795-1.9174 1.93903 0 1.06775.0667 2.1182.1367 3.18863z" fill="url(#am)"/><g filter="url(#p)"><path d="m17.2844 6.84872-.339 1.05491c-.0579.21699.0811.43398.278.43398h.4198c.1969 0 .3359-.22033.278-.43398l-.2838-1.05491c-.0608-.23368-.2893-.23368-.353 0z" fill="#6f3f46"/></g><g filter="url(#q)"><path d="m17.2953 6.73642-.305 1.05491c-.0622.21699.0872.43398.2988.43398h.4512c.2116 0 .361-.22033.2988-.43398l-.305-1.05491c-.0654-.23368-.3703-.23368-.4388 0z" fill="#976b67"/><path d="m17.2953 6.73642-.305 1.05491c-.0622.21699.0872.43398.2988.43398h.4512c.2116 0 .361-.22033.2988-.43398l-.305-1.05491c-.0654-.23368-.3703-.23368-.4388 0z" fill="url(#an)"/><path d="m17.2953 6.73642-.305 1.05491c-.0622.21699.0872.43398.2988.43398h.4512c.2116 0 .361-.22033.2988-.43398l-.305-1.05491c-.0654-.23368-.3703-.23368-.4388 0z" fill="url(#ao)"/><path d="m17.2953 6.73642-.305 1.05491c-.0622.21699.0872.43398.2988.43398h.4512c.2116 0 .361-.22033.2988-.43398l-.305-1.05491c-.0654-.23368-.3703-.23368-.4388 0z" fill="url(#ap)"/><path d="m17.2953 6.73642-.305 1.05491c-.0622.21699.0872.43398.2988.43398h.4512c.2116 0 .361-.22033.2988-.43398l-.305-1.05491c-.0654-.23368-.3703-.23368-.4388 0z" fill="url(#aq)"/><path d="m17.2953 6.73642-.305 1.05491c-.0622.21699.0872.43398.2988.43398h.4512c.2116 0 .361-.22033.2988-.43398l-.305-1.05491c-.0654-.23368-.3703-.23368-.4388 0z" fill="url(#ar)"/></g><g filter="url(#r)"><path d="m17.5147 8.80863c-.2913 0-.565-.06853-.7951-.18846-.0786-.03998-.163.04854-.1135.11993.1922.29127.5271.48545.9086.48545.3814 0 .7163-.19418.9085-.48545.0495-.07425-.0349-.15991-.1135-.11993-.2301.11993-.5009.18846-.795.18846z" stroke="url(#as)" stroke-width=".1"/></g><path d="m17.5147 8.80863c-.2913 0-.565-.06853-.7951-.18846-.0786-.03998-.163.04854-.1135.11993.1922.29127.5271.48545.9086.48545.3814 0 .7163-.19418.9085-.48545.0495-.07425-.0349-.15991-.1135-.11993-.2301.11993-.5009.18846-.795.18846z" fill="url(#at)"/><g filter="url(#s)"><path d="m20.3006 3.33469c.2952.10157.56.30778.7274.60325.2678.47091.2282 1.03416-.0609 1.44966-.1004.14774-.1552.32317-.1552.50169v.68174c-.1074-.07477-.249-.13021-.3829-.15389l.045-.92181c-.006-.44013-.353-.80332-.7913-.82178h-.8034c-.5479 0-1.044-.32318-1.2692-.82794-.0578-.14466-.1978-.24007-.353-.24007h-.7305c-1.0591 0-1.9174.86795-1.9174 1.93903l.0176.88218c-.1457.02142-.298.07014-.4132.15131v-.68877c0-.17852-.0548-.35395-.1552-.50169-.274-.40319-.3226-.94489-.0822-1.40349.1674-.31701.4383-.53862.7456-.64634.3287-.11696.6087-.33856.7944-.63711.2374-.37858.6543-.63096 1.1322-.63096.1856 0 .3622.04001.5265.10773.2191.09541.4657.09541.6848 0 .1613-.06772.3378-.10773.5235-.10773.4839 0 .9069.26162 1.1413.64942.1765.2924.4535.50477.7761.61557z" fill="url(#au)"/></g><path d="m20.3006 3.33469c.2952.10157.56.30778.7274.60325.2678.47091.2282 1.03416-.0609 1.44966-.1004.14774-.1552.32317-.1552.50169v.68174c-.1074-.07477-.249-.13021-.3829-.15389l.045-.92181c-.006-.44013-.353-.80332-.7913-.82178h-.8034c-.5479 0-1.044-.32318-1.2692-.82794-.0578-.14466-.1978-.24007-.353-.24007h-.7305c-1.0591 0-1.9174.86795-1.9174 1.93903l.0176.88218c-.1457.02142-.298.07014-.4132.15131v-.68877c0-.17852-.0548-.35395-.1552-.50169-.274-.40319-.3226-.94489-.0822-1.40349.1674-.31701.4383-.53862.7456-.64634.3287-.11696.6087-.33856.7944-.63711.2374-.37858.6543-.63096 1.1322-.63096.1856 0 .3622.04001.5265.10773.2191.09541.4657.09541.6848 0 .1613-.06772.3378-.10773.5235-.10773.4839 0 .9069.26162 1.1413.64942.1765.2924.4535.50477.7761.61557z" fill="url(#av)"/><path d="m20.3006 3.33469c.2952.10157.56.30778.7274.60325.2678.47091.2282 1.03416-.0609 1.44966-.1004.14774-.1552.32317-.1552.50169v.68174c-.1074-.07477-.249-.13021-.3829-.15389l.045-.92181c-.006-.44013-.353-.80332-.7913-.82178h-.8034c-.5479 0-1.044-.32318-1.2692-.82794-.0578-.14466-.1978-.24007-.353-.24007h-.7305c-1.0591 0-1.9174.86795-1.9174 1.93903l.0176.88218c-.1457.02142-.298.07014-.4132.15131v-.68877c0-.17852-.0548-.35395-.1552-.50169-.274-.40319-.3226-.94489-.0822-1.40349.1674-.31701.4383-.53862.7456-.64634.3287-.11696.6087-.33856.7944-.63711.2374-.37858.6543-.63096 1.1322-.63096.1856 0 .3622.04001.5265.10773.2191.09541.4657.09541.6848 0 .1613-.06772.3378-.10773.5235-.10773.4839 0 .9069.26162 1.1413.64942.1765.2924.4535.50477.7761.61557z" fill="url(#aw)"/><path d="m20.3006 3.33469c.2952.10157.56.30778.7274.60325.2678.47091.2282 1.03416-.0609 1.44966-.1004.14774-.1552.32317-.1552.50169v.68174c-.1074-.07477-.249-.13021-.3829-.15389l.045-.92181c-.006-.44013-.353-.80332-.7913-.82178h-.8034c-.5479 0-1.044-.32318-1.2692-.82794-.0578-.14466-.1978-.24007-.353-.24007h-.7305c-1.0591 0-1.9174.86795-1.9174 1.93903l.0176.88218c-.1457.02142-.298.07014-.4132.15131v-.68877c0-.17852-.0548-.35395-.1552-.50169-.274-.40319-.3226-.94489-.0822-1.40349.1674-.31701.4383-.53862.7456-.64634.3287-.11696.6087-.33856.7944-.63711.2374-.37858.6543-.63096 1.1322-.63096.1856 0 .3622.04001.5265.10773.2191.09541.4657.09541.6848 0 .1613-.06772.3378-.10773.5235-.10773.4839 0 .9069.26162 1.1413.64942.1765.2924.4535.50477.7761.61557z" fill="url(#ax)"/><g filter="url(#t)"><path d="m19.6569 5.43679c-.1006-.08756-.2175-.18034-.3946-.23609-.1745-.05496-.3932-.06972-.6957-.03271-.0873.01067-.1493.09005-.1386.17729.0106.08723.09.1493.1772.13863.2762-.03378.4453-.01622.5616.02038.1138.03582.1907.09385.281.1725.0663.05773.1668.05079.2246-.01548.0577-.06628.0507-.1668-.0155-.22452z" fill="#462d2b"/></g><g filter="url(#u)"><path d="m15.5575 5.37405c.0517-.03095.1261-.07054.22-.10749.1879-.07388.4565-.13804.7778-.09873.0873.01067.1493.09005.1386.17728-.0106.08724-.09.14931-.1772.13864-.2573-.03148-.472.01978-.6227.07901-.0753.02962-.134.061-.1731.08439-.0195.01168-.034.02128-.0431.02757l-.0095.00676-.0016.00117c-.0693.05347-.169.04087-.2228-.02832-.0539-.06938-.0414-.16936.0279-.22332z" fill="#462d2b"/></g><g filter="url(#v)"><path d="m17.6475 3.92345c-.0133-.02565-.026-.05182-.0379-.07851-.0578-.14466-.1978-.24007-.3531-.24007h-.7304c-1.0591 0-1.9174.86795-1.9174 1.93903v.1579c-.1951-.14847-.4405-.46167-.4405-.96852 0-.61506.4486-.92595.7347-1.12426.0808-.05598.1487-.10299.1898-.14534.0175-.018.0365-.03817.0572-.06012.2006-.21274.5579-.59178 1.182-.75743.1758-.04667.353-.07302.5196-.0858.4715-.03617.8081.37617.8081.84901v.50639z" fill="#533634"/><path d="m17.6475 3.92345c-.0133-.02565-.026-.05182-.0379-.07851-.0578-.14466-.1978-.24007-.3531-.24007h-.7304c-1.0591 0-1.9174.86795-1.9174 1.93903v.1579c-.1951-.14847-.4405-.46167-.4405-.96852 0-.61506.4486-.92595.7347-1.12426.0808-.05598.1487-.10299.1898-.14534.0175-.018.0365-.03817.0572-.06012.2006-.21274.5579-.59178 1.182-.75743.1758-.04667.353-.07302.5196-.0858.4715-.03617.8081.37617.8081.84901v.50639z" fill="url(#ay)"/><path d="m17.6475 3.92345c-.0133-.02565-.026-.05182-.0379-.07851-.0578-.14466-.1978-.24007-.3531-.24007h-.7304c-1.0591 0-1.9174.86795-1.9174 1.93903v.1579c-.1951-.14847-.4405-.46167-.4405-.96852 0-.61506.4486-.92595.7347-1.12426.0808-.05598.1487-.10299.1898-.14534.0175-.018.0365-.03817.0572-.06012.2006-.21274.5579-.59178 1.182-.75743.1758-.04667.353-.07302.5196-.0858.4715-.03617.8081.37617.8081.84901v.50639z" fill="url(#az)"/></g><g filter="url(#w)"><path d="m20.5058 5.79855-.0167-.3622c-.0061-.43809-.3681-.7996-.8064-.81798h-.8035c-.51 0-.9753-.27886-1.2187-.72283s.4133-1.19314 1.099-1.03863c.5009.11286 1.0372.29028 1.4475.55783 1.001.65295.8258 1.82968.2988 2.38381z" fill="#563936"/><path d="m20.5058 5.79855-.0167-.3622c-.0061-.43809-.3681-.7996-.8064-.81798h-.8035c-.51 0-.9753-.27886-1.2187-.72283s.4133-1.19314 1.099-1.03863c.5009.11286 1.0372.29028 1.4475.55783 1.001.65295.8258 1.82968.2988 2.38381z" fill="url(#aA)"/><path d="m20.5058 5.79855-.0167-.3622c-.0061-.43809-.3681-.7996-.8064-.81798h-.8035c-.51 0-.9753-.27886-1.2187-.72283s.4133-1.19314 1.099-1.03863c.5009.11286 1.0372.29028 1.4475.55783 1.001.65295.8258 1.82968.2988 2.38381z" fill="url(#aB)"/><path d="m20.5058 5.79855-.0167-.3622c-.0061-.43809-.3681-.7996-.8064-.81798h-.8035c-.51 0-.9753-.27886-1.2187-.72283s.4133-1.19314 1.099-1.03863c.5009.11286 1.0372.29028 1.4475.55783 1.001.65295.8258 1.82968.2988 2.38381z" fill="url(#aC)"/></g><path d="m18.887 6.19104c.3747 0 .6913.25839.7775.60756.0256.1001-.0513.19554-.1537.19554h-1.2803c-.0814 0-.1466-.07449-.1303-.15597.0721-.36779.3957-.64713.7868-.64713z" fill="#fff"/><path d="m18.7681 6.34705c.284 0 .5121.23045.5121.51212 0 .04655-.007.09311-.0186.13501h-.9893c-.0117-.04423-.0186-.08846-.0186-.13501 0-.28167.2304-.51212.5144-.51212z" fill="url(#aE)"/><path d="m18.4749 6.85871c0-.16273.1301-.29291.2929-.29291.1627 0 .2929.13018.2929.29291 0 .04882-.0116.09532-.0326.13484h-.5184c-.0232-.03952-.0348-.08602-.0348-.13484z" fill="#000"/><g filter="url(#x)"><path d="m18.7299 6.45545c.0365.04874-.0397.10815-.1263.1729s-.1508.11031-.1873.06158c-.0364-.04874.0042-.14073.0908-.20548s.1864-.07773.2228-.029z" fill="#c7a7a3"/><path d="m18.7299 6.45545c.0365.04874-.0397.10815-.1263.1729s-.1508.11031-.1873.06158c-.0364-.04874.0042-.14073.0908-.20548s.1864-.07773.2228-.029z" fill="url(#aG)"/></g><g filter="url(#y)"><path d="m19.2239 6.79141c-.0189-.13222-.0963-.23187-.1326-.26516l-.1489.16345.0672.13077z" fill="url(#aI)"/></g><path d="m16.1428 6.19104c-.3748 0-.6914.2584-.7775.60759-.0256.1001.0512.19555.1537.19555h1.2803c.0815 0 .1467-.0745.1304-.15597-.0722-.36782-.3981-.64717-.7869-.64717z" fill="#fff"/><path d="m16.2617 6.34705c-.2841 0-.5122.23046-.5122.51214 0 .04656.007.09312.0186.13502h.9894c.0116-.04423.0186-.08846.0186-.13502-.0023-.28168-.2304-.51214-.5144-.51214z" fill="url(#aJ)"/><path d="m16.5541 6.85873c0-.16274-.1302-.29293-.2929-.29293s-.2929.13019-.2929.29293c0 .04882.0116.09532.0325.13484h.5185c.0209-.03952.0348-.08602.0348-.13484z" fill="#000"/><g filter="url(#z)"><path d="m16.7288 6.79864c0-.16528-.1344-.27547-.1707-.30877l-.1653.15983.1017.20706z" fill="url(#aK)"/></g><g filter="url(#A)"><ellipse cx="16.107" cy="6.566" fill="#c7a7a3" fill-opacity=".9" rx=".223" ry=".113" transform="matrix(.88365127 -.46814574 .46814574 .88365127 -1.199738 8.304201)"/><ellipse cx="16.107" cy="6.566" fill="url(#aL)" rx=".223" ry=".113" transform="matrix(.88365127 -.46814574 .46814574 .88365127 -1.199738 8.304201)"/></g><path d="m20.3391 7.91587c.0378-.61067.0742-1.22061.1059-1.83128.4336.07587.7631.4542.7631.9095 0 .49172-.3843.89366-.869.92178z" fill="url(#aM)"/><path d="m20.3391 7.91587c.0378-.61067.0742-1.22061.1059-1.83128.4336.07587.7631.4542.7631.9095 0 .49172-.3843.89366-.869.92178z" fill="url(#aN)"/><path d="m20.3391 7.91587c.0378-.61067.0742-1.22061.1059-1.83128.4336.07587.7631.4542.7631.9095 0 .49172-.3843.89366-.869.92178z" fill="url(#aO)"/><path d="m20.3391 7.91587c.0378-.61067.0742-1.22061.1059-1.83128.4336.07587.7631.4542.7631.9095 0 .49172-.3843.89366-.869.92178z" fill="url(#aP)"/><path d="m14.6201 6.07727c-.4483.06322-.7988.45119-.7988.91699 0 .49296.3863.89569.8727.92198-.037-.61318-.062-1.2256-.0739-1.83897z" fill="url(#aQ)"/><path d="m14.6201 6.07727c-.4483.06322-.7988.45119-.7988.91699 0 .49296.3863.89569.8727.92198-.037-.61318-.062-1.2256-.0739-1.83897z" fill="url(#aR)"/><g filter="url(#B)"><path d="m14.5965 6.45886c-.2449.05489-.4278.27356-.4278.53496 0 .27818.2072.50797.4757.54348-.0199-.35969-.0367-.71868-.0479-1.07844z" fill="url(#aS)"/></g><g filter="url(#C)"><path d="m20.4126 7.4986c.0188-.33629.037-.67244.054-1.00873.2303.03116.4085.24421.4085.50241 0 .27807-.2067.50379-.4625.50632z" fill="url(#aT)"/></g><g filter="url(#D)"><path d="m20.039 3.92583h-1.2263c-.1571 0-.2844-.12734-.2844-.28442 0-.17521.1569-.30956.3299-.28198.3181.0507.7406.12138 1.0236.19153.6397.15861.8163.47003.8656.69208-.2284-.27915-.5674-.32779-.7084-.31721z" fill="#725050"/></g></svg>