<svg fill="none" height="32" viewBox="0 0 32 32" width="32" xmlns="http://www.w3.org/2000/svg" xmlns:xlink="http://www.w3.org/1999/xlink"><filter id="a" color-interpolation-filters="sRGB" filterUnits="userSpaceOnUse" height="3.25" width="6.328" x="15.649" y="1.75"><feFlood flood-opacity="0" result="BackgroundImageFix"/><feBlend in="SourceGraphic" in2="BackgroundImageFix" mode="normal" result="shape"/><feColorMatrix in="SourceAlpha" result="hardAlpha" type="matrix" values="0 0 0 0 0 0 0 0 0 0 0 0 0 0 0 0 0 0 127 0"/><feOffset dx=".25" dy="-.25"/><feGaussianBlur stdDeviation=".25"/><feComposite in2="hardAlpha" k2="-1" k3="1" operator="arithmetic"/><feColorMatrix type="matrix" values="0 0 0 0 0.305882 0 0 0 0 0.521569 0 0 0 0 0.878431 0 0 0 1 0"/><feBlend in2="shape" mode="normal" result="effect1_innerShadow_4002_1079"/></filter><filter id="b" color-interpolation-filters="sRGB" filterUnits="userSpaceOnUse" height="7.66" width="23.09" x="4.322" y="10.85"><feFlood flood-opacity="0" result="BackgroundImageFix"/><feBlend in="SourceGraphic" in2="BackgroundImageFix" mode="normal" result="shape"/><feGaussianBlur result="effect1_foregroundBlur_4002_1079" stdDeviation=".125"/></filter><filter id="c" color-interpolation-filters="sRGB" filterUnits="userSpaceOnUse" height="2.6" width="2.6" x="9.499" y="13.8"><feFlood flood-opacity="0" result="BackgroundImageFix"/><feBlend in="SourceGraphic" in2="BackgroundImageFix" mode="normal" result="shape"/><feGaussianBlur result="effect1_foregroundBlur_4002_1079" stdDeviation=".1"/></filter><filter id="d" color-interpolation-filters="sRGB" filterUnits="userSpaceOnUse" height="2.6" width="2.6" x="19.199" y="13.8"><feFlood flood-opacity="0" result="BackgroundImageFix"/><feBlend in="SourceGraphic" in2="BackgroundImageFix" mode="normal" result="shape"/><feGaussianBlur result="effect1_foregroundBlur_4002_1079" stdDeviation=".1"/></filter><filter id="e" color-interpolation-filters="sRGB" filterUnits="userSpaceOnUse" height="10.616" width="11.125" x="10.468" y="11.36"><feFlood flood-opacity="0" result="BackgroundImageFix"/><feBlend in="SourceGraphic" in2="BackgroundImageFix" mode="normal" result="shape"/><feColorMatrix in="SourceAlpha" result="hardAlpha" type="matrix" values="0 0 0 0 0 0 0 0 0 0 0 0 0 0 0 0 0 0 127 0"/><feOffset dx=".75" dy=".75"/><feGaussianBlur stdDeviation=".5"/><feComposite in2="hardAlpha" k2="-1" k3="1" operator="arithmetic"/><feColorMatrix type="matrix" values="0 0 0 0 0.427451 0 0 0 0 0.317647 0 0 0 0 0.4 0 0 0 1 0"/><feBlend in2="shape" mode="normal" result="effect1_innerShadow_4002_1079"/></filter><filter id="f" color-interpolation-filters="sRGB" filterUnits="userSpaceOnUse" height="1.77" width="2.873" x="11.802" y="11.76"><feFlood flood-opacity="0" result="BackgroundImageFix"/><feBlend in="SourceGraphic" in2="BackgroundImageFix" mode="normal" result="shape"/><feColorMatrix in="SourceAlpha" result="hardAlpha" type="matrix" values="0 0 0 0 0 0 0 0 0 0 0 0 0 0 0 0 0 0 127 0"/><feOffset dx=".2" dy="-.1"/><feGaussianBlur stdDeviation=".2"/><feComposite in2="hardAlpha" k2="-1" k3="1" operator="arithmetic"/><feColorMatrix type="matrix" values="0 0 0 0 0.423529 0 0 0 0 0.396078 0 0 0 0 0.4 0 0 0 1 0"/><feBlend in2="shape" mode="normal" result="effect1_innerShadow_4002_1079"/><feColorMatrix in="SourceAlpha" result="hardAlpha" type="matrix" values="0 0 0 0 0 0 0 0 0 0 0 0 0 0 0 0 0 0 127 0"/><feOffset dy=".25"/><feGaussianBlur stdDeviation=".25"/><feComposite in2="hardAlpha" k2="-1" k3="1" operator="arithmetic"/><feColorMatrix type="matrix" values="0 0 0 0 0.4 0 0 0 0 0.443137 0 0 0 0 0.615686 0 0 0 1 0"/><feBlend in2="effect1_innerShadow_4002_1079" mode="normal" result="effect2_innerShadow_4002_1079"/></filter><filter id="g" color-interpolation-filters="sRGB" filterUnits="userSpaceOnUse" height="1.77" width="2.857" x="17.116" y="11.76"><feFlood flood-opacity="0" result="BackgroundImageFix"/><feBlend in="SourceGraphic" in2="BackgroundImageFix" mode="normal" result="shape"/><feColorMatrix in="SourceAlpha" result="hardAlpha" type="matrix" values="0 0 0 0 0 0 0 0 0 0 0 0 0 0 0 0 0 0 127 0"/><feOffset dx=".2" dy="-.1"/><feGaussianBlur stdDeviation=".2"/><feComposite in2="hardAlpha" k2="-1" k3="1" operator="arithmetic"/><feColorMatrix type="matrix" values="0 0 0 0 0.423529 0 0 0 0 0.396078 0 0 0 0 0.4 0 0 0 1 0"/><feBlend in2="shape" mode="normal" result="effect1_innerShadow_4002_1079"/><feColorMatrix in="SourceAlpha" result="hardAlpha" type="matrix" values="0 0 0 0 0 0 0 0 0 0 0 0 0 0 0 0 0 0 127 0"/><feOffset dy=".25"/><feGaussianBlur stdDeviation=".25"/><feComposite in2="hardAlpha" k2="-1" k3="1" operator="arithmetic"/><feColorMatrix type="matrix" values="0 0 0 0 0.4 0 0 0 0 0.443137 0 0 0 0 0.615686 0 0 0 1 0"/><feBlend in2="effect1_innerShadow_4002_1079" mode="normal" result="effect2_innerShadow_4002_1079"/></filter><filter id="h" color-interpolation-filters="sRGB" filterUnits="userSpaceOnUse" height="4.796" width="7.703" x="11.834" y="16.244"><feFlood flood-opacity="0" result="BackgroundImageFix"/><feBlend in="SourceGraphic" in2="BackgroundImageFix" mode="normal" result="shape"/><feGaussianBlur result="effect1_foregroundBlur_4002_1079" stdDeviation=".375"/></filter><filter id="i" color-interpolation-filters="sRGB" filterUnits="userSpaceOnUse" height=".696" width=".787" x="17.159" y="14.031"><feFlood flood-opacity="0" result="BackgroundImageFix"/><feBlend in="SourceGraphic" in2="BackgroundImageFix" mode="normal" result="shape"/><feGaussianBlur result="effect1_foregroundBlur_4002_1079" stdDeviation=".05"/></filter><filter id="j" color-interpolation-filters="sRGB" filterUnits="userSpaceOnUse" height=".913" width=".891" x="17.999" y="14.106"><feFlood flood-opacity="0" result="BackgroundImageFix"/><feBlend in="SourceGraphic" in2="BackgroundImageFix" mode="normal" result="shape"/><feGaussianBlur result="effect1_foregroundBlur_4002_1079" stdDeviation=".1"/></filter><filter id="k" color-interpolation-filters="sRGB" filterUnits="userSpaceOnUse" height="1.04" width=".986" x="13.556" y="14.043"><feFlood flood-opacity="0" result="BackgroundImageFix"/><feBlend in="SourceGraphic" in2="BackgroundImageFix" mode="normal" result="shape"/><feGaussianBlur result="effect1_foregroundBlur_4002_1079" stdDeviation=".1"/></filter><filter id="l" color-interpolation-filters="sRGB" filterUnits="userSpaceOnUse" height=".705" width=".913" x="12.802" y="14.023"><feFlood flood-opacity="0" result="BackgroundImageFix"/><feBlend in="SourceGraphic" in2="BackgroundImageFix" mode="normal" result="shape"/><feGaussianBlur result="effect1_foregroundBlur_4002_1079" stdDeviation=".05"/></filter><filter id="m" color-interpolation-filters="sRGB" filterUnits="userSpaceOnUse" height="22.045" width="5.505" x="23.066" y="4.834"><feFlood flood-opacity="0" result="BackgroundImageFix"/><feBlend in="SourceGraphic" in2="BackgroundImageFix" mode="normal" result="shape"/><feColorMatrix in="SourceAlpha" result="hardAlpha" type="matrix" values="0 0 0 0 0 0 0 0 0 0 0 0 0 0 0 0 0 0 127 0"/><feOffset dx=".25"/><feGaussianBlur stdDeviation=".5"/><feComposite in2="hardAlpha" k2="-1" k3="1" operator="arithmetic"/><feColorMatrix type="matrix" values="0 0 0 0 0.74902 0 0 0 0 0.45098 0 0 0 0 0.364706 0 0 0 1 0"/><feBlend in2="shape" mode="normal" result="effect1_innerShadow_4002_1079"/></filter><filter id="n" color-interpolation-filters="sRGB" filterUnits="userSpaceOnUse" height="17.542" width="1.8" x="25.194" y="9.141"><feFlood flood-opacity="0" result="BackgroundImageFix"/><feBlend in="SourceGraphic" in2="BackgroundImageFix" mode="normal" result="shape"/><feGaussianBlur result="effect1_foregroundBlur_4002_1079" stdDeviation=".325"/></filter><filter id="o" color-interpolation-filters="sRGB" filterUnits="userSpaceOnUse" height="3.446" width="7.999" x="11.687" y="16.46"><feFlood flood-opacity="0" result="BackgroundImageFix"/><feBlend in="SourceGraphic" in2="BackgroundImageFix" mode="normal" result="shape"/><feColorMatrix in="SourceAlpha" result="hardAlpha" type="matrix" values="0 0 0 0 0 0 0 0 0 0 0 0 0 0 0 0 0 0 127 0"/><feOffset/><feGaussianBlur stdDeviation=".2"/><feComposite in2="hardAlpha" k2="-1" k3="1" operator="arithmetic"/><feColorMatrix type="matrix" values="0 0 0 0 0.698039 0 0 0 0 0.647059 0 0 0 0 0.662745 0 0 0 1 0"/><feBlend in2="shape" mode="normal" result="effect1_innerShadow_4002_1079"/><feColorMatrix in="SourceAlpha" result="hardAlpha" type="matrix" values="0 0 0 0 0 0 0 0 0 0 0 0 0 0 0 0 0 0 127 0"/><feOffset dy="-.15"/><feGaussianBlur stdDeviation=".15"/><feComposite in2="hardAlpha" k2="-1" k3="1" operator="arithmetic"/><feColorMatrix type="matrix" values="0 0 0 0 0.623529 0 0 0 0 0.552941 0 0 0 0 0.67451 0 0 0 1 0"/><feBlend in2="effect1_innerShadow_4002_1079" mode="normal" result="effect2_innerShadow_4002_1079"/></filter><filter id="p" color-interpolation-filters="sRGB" filterUnits="userSpaceOnUse" height=".85" width="1.801" x="14.806" y="16.495"><feFlood flood-opacity="0" result="BackgroundImageFix"/><feBlend in="SourceGraphic" in2="BackgroundImageFix" mode="normal" result="shape"/><feGaussianBlur result="effect1_foregroundBlur_4002_1079" stdDeviation=".05"/></filter><filter id="q" color-interpolation-filters="sRGB" filterUnits="userSpaceOnUse" height="5.556" width="4.846" x="23.346" y="24.444"><feFlood flood-opacity="0" result="BackgroundImageFix"/><feBlend in="SourceGraphic" in2="BackgroundImageFix" mode="normal" result="shape"/><feColorMatrix in="SourceAlpha" result="hardAlpha" type="matrix" values="0 0 0 0 0 0 0 0 0 0 0 0 0 0 0 0 0 0 127 0"/><feOffset dx=".15" dy="-.15"/><feGaussianBlur stdDeviation=".5"/><feComposite in2="hardAlpha" k2="-1" k3="1" operator="arithmetic"/><feColorMatrix type="matrix" values="0 0 0 0 0.603922 0 0 0 0 0.352941 0 0 0 0 0.494118 0 0 0 1 0"/><feBlend in2="shape" mode="normal" result="effect1_innerShadow_4002_1079"/></filter><filter id="r" color-interpolation-filters="sRGB" filterUnits="userSpaceOnUse" height=".3" width="2.097" x="23.716" y="25.828"><feFlood flood-opacity="0" result="BackgroundImageFix"/><feBlend in="SourceGraphic" in2="BackgroundImageFix" mode="normal" result="shape"/><feGaussianBlur result="effect1_foregroundBlur_4002_1079" stdDeviation=".05"/></filter><filter id="s" color-interpolation-filters="sRGB" filterUnits="userSpaceOnUse" height=".3" width="2.097" x="23.637" y="27.133"><feFlood flood-opacity="0" result="BackgroundImageFix"/><feBlend in="SourceGraphic" in2="BackgroundImageFix" mode="normal" result="shape"/><feGaussianBlur result="effect1_foregroundBlur_4002_1079" stdDeviation=".05"/></filter><filter id="t" color-interpolation-filters="sRGB" filterUnits="userSpaceOnUse" height=".3" width="2.097" x="23.716" y="28.437"><feFlood flood-opacity="0" result="BackgroundImageFix"/><feBlend in="SourceGraphic" in2="BackgroundImageFix" mode="normal" result="shape"/><feGaussianBlur result="effect1_foregroundBlur_4002_1079" stdDeviation=".05"/></filter><radialGradient id="u" cx="0" cy="0" gradientTransform="matrix(-5.65875184 8.40620742 -18.64208021 -12.54916759 21.3976 21.5937)" gradientUnits="userSpaceOnUse" r="1"><stop offset="0" stop-color="#42b8fe"/><stop offset="1" stop-color="#2a87f2"/></radialGradient><radialGradient id="v" cx="0" cy="0" gradientTransform="matrix(0 8.25 -2.59375 0 11.6788 23.4687)" gradientUnits="userSpaceOnUse" r="1"><stop offset=".594" stop-color="#226bd5"/><stop offset="1" stop-color="#226bd5" stop-opacity="0"/></radialGradient><radialGradient id="w" cx="0" cy="0" gradientTransform="matrix(.875 0 0 11.2188 8.61633 30)" gradientUnits="userSpaceOnUse" r="1"><stop offset="0" stop-color="#2088ea"/><stop offset="1" stop-color="#2088ea" stop-opacity="0"/></radialGradient><radialGradient id="x" cx="0" cy="0" gradientTransform="matrix(0 7.16162 -2.40625 0 19.7726 25.1196)" gradientUnits="userSpaceOnUse" r="1"><stop offset=".249" stop-color="#3084eb"/><stop offset="1" stop-color="#3084eb" stop-opacity="0"/></radialGradient><radialGradient id="y" cx="0" cy="0" gradientTransform="matrix(-1.125 0 0 -10.5 23.0851 25.3437)" gradientUnits="userSpaceOnUse" r="1"><stop offset="0" stop-color="#49bcff"/><stop offset="1" stop-color="#49bcff" stop-opacity="0"/></radialGradient><radialGradient id="z" cx="0" cy="0" gradientTransform="matrix(-4.06246845 -8.71874471 18.10536748 -8.43613235 14.5538 30)" gradientUnits="userSpaceOnUse" r="1"><stop offset=".603" stop-color="#3c79ae" stop-opacity="0"/><stop offset="1" stop-color="#458cd0"/></radialGradient><radialGradient id="A" cx="0" cy="0" gradientTransform="matrix(-3.7196 0 0 -11.0312 8.6355 30)" gradientUnits="userSpaceOnUse" r="1"><stop offset=".291" stop-color="#3596f4"/><stop offset="1" stop-color="#2b84e7"/></radialGradient><radialGradient id="B" cx="0" cy="0" gradientTransform="matrix(-4.32544572 -.7812325 1.83121112 -10.13885665 9.24133 30.4688)" gradientUnits="userSpaceOnUse" r="1"><stop offset=".622" stop-color="#5b8fc2" stop-opacity="0"/><stop offset="1" stop-color="#4e85b1"/></radialGradient><radialGradient id="C" cx="0" cy="0" gradientTransform="matrix(0 -3.74003 .483335 0 8.6355 25.3028)" gradientUnits="userSpaceOnUse" r="1"><stop offset="0" stop-color="#278ce6"/><stop offset="1" stop-color="#278ce6" stop-opacity="0"/></radialGradient><radialGradient id="D" cx="0" cy="0" gradientTransform="matrix(.68645823 6.66193642 -2.2169318 .22843675 23.1085 23.3381)" gradientUnits="userSpaceOnUse" r="1"><stop offset="0" stop-color="#4abfff"/><stop offset="1" stop-color="#2e8ced"/></radialGradient><radialGradient id="E" cx="0" cy="0" gradientTransform="matrix(5.1250049 .9687503 -.28409315 1.5029454 17.0707 3.15625)" gradientUnits="userSpaceOnUse" r="1"><stop offset=".17" stop-color="#4cdbff"/><stop offset="1" stop-color="#2bbbff"/></radialGradient><linearGradient id="F" gradientUnits="userSpaceOnUse" x1="19.133" x2="19.461" y1="5.203" y2="3.844"><stop offset="0" stop-color="#2caafc"/><stop offset="1" stop-color="#2caafc" stop-opacity="0"/></linearGradient><radialGradient id="G" cx="0" cy="0" gradientTransform="matrix(-4.62501134 2.59373731 -3.86830612 -6.89775314 17.977 3.8125)" gradientUnits="userSpaceOnUse" r="1"><stop offset=".063" stop-color="#4bdaff"/><stop offset="1" stop-color="#2cb1f7"/></radialGradient><linearGradient id="H" gradientUnits="userSpaceOnUse" x1="17.352" x2="17.352" y1="8.5" y2="7.313"><stop offset="0" stop-color="#50b2e2"/><stop offset="1" stop-color="#50b2e2" stop-opacity="0"/></linearGradient><radialGradient id="I" cx="0" cy="0" gradientTransform="matrix(-6.68749777 -1.30125035 2.42799779 -12.47817517 18.7582 7.53125)" gradientUnits="userSpaceOnUse" r="1"><stop offset=".613" stop-color="#2fa9e7" stop-opacity="0"/><stop offset="1" stop-color="#4991bb"/></radialGradient><linearGradient id="J" gradientUnits="userSpaceOnUse" x1="14.165" x2="20.227" y1="9.906" y2="9.75"><stop offset="0" stop-color="#423851"/><stop offset="1" stop-color="#584d65"/></linearGradient><linearGradient id="K" gradientUnits="userSpaceOnUse" x1="21.852" x2="19.258" y1="9.281" y2="9.281"><stop offset="0" stop-color="#665d70"/><stop offset="1" stop-color="#665d70" stop-opacity="0"/></linearGradient><linearGradient id="L" gradientUnits="userSpaceOnUse" x1="9.727" x2="11.946" y1="9.515" y2="10.53"><stop offset="0" stop-color="#57515f"/><stop offset="1" stop-color="#423952" stop-opacity="0"/></linearGradient><radialGradient id="M" cx="0" cy="0" gradientTransform="matrix(0 9.15156 -24.7184 0 15.7388 9.32849)" gradientUnits="userSpaceOnUse" r="1"><stop offset="0" stop-color="#35acfa"/><stop offset=".652" stop-color="#3171da"/></radialGradient><radialGradient id="N" cx="0" cy="0" gradientTransform="matrix(0 2.64742 -17.2274 0 13.0108 8.9755)" gradientUnits="userSpaceOnUse" r="1"><stop offset=".167" stop-color="#2fb4f5"/><stop offset="1" stop-color="#359cf2" stop-opacity="0"/></radialGradient><radialGradient id="O" cx="0" cy="0" gradientTransform="matrix(-8.68356 0 0 -2.80263 25.9655 10.7051)" gradientUnits="userSpaceOnUse" r="1"><stop offset=".254" stop-color="#3da9f9"/><stop offset="1" stop-color="#3da9f9" stop-opacity="0"/></radialGradient><radialGradient id="P" cx="0" cy="0" gradientTransform="matrix(-10.1661 0 0 -1.56292 25.0831 9.55005)" gradientUnits="userSpaceOnUse" r="1"><stop offset=".083" stop-color="#2d6ba6"/><stop offset="1" stop-color="#2fa3f0" stop-opacity="0"/></radialGradient><radialGradient id="Q" cx="0" cy="0" gradientTransform="matrix(0 -5.15365 1.28841 0 24.9066 11.9053)" gradientUnits="userSpaceOnUse" r="1"><stop offset=".051" stop-color="#2e74cb"/><stop offset="1" stop-color="#2e74cb" stop-opacity="0"/></radialGradient><radialGradient id="R" cx="0" cy="0" gradientTransform="matrix(-1.59374985 -2.84374918 5.82190889 -3.2628287 10.4145 18.3125)" gradientUnits="userSpaceOnUse" r="1"><stop offset="0" stop-color="#104e9b"/><stop offset="1" stop-color="#104e9b" stop-opacity="0"/></radialGradient><radialGradient id="S" cx="0" cy="0" gradientTransform="matrix(3.8125 0 0 1.78125 21.3207 18.1875)" gradientUnits="userSpaceOnUse" r="1"><stop offset="0" stop-color="#1868c3"/><stop offset="1" stop-color="#1868c3" stop-opacity="0"/></radialGradient><radialGradient id="T" cx="0" cy="0" gradientTransform="matrix(-8.4306737 -6.2249457 7.88718049 -10.68189961 24.2973 17.7521)" gradientUnits="userSpaceOnUse" r="1"><stop offset=".23" stop-color="#257bd2"/><stop offset="1" stop-color="#2e65d4"/></radialGradient><radialGradient id="U" cx="0" cy="0" gradientTransform="matrix(1.19531 0 0 .580333 20.9848 13.2208)" gradientUnits="userSpaceOnUse" r="1"><stop offset="0" stop-color="#215a98"/><stop offset="1" stop-color="#215a98" stop-opacity="0"/></radialGradient><radialGradient id="V" cx="0" cy="0" gradientTransform="matrix(-1.60937 0 0 -.8125 11.0473 13.4083)" gradientUnits="userSpaceOnUse" r="1"><stop offset="0" stop-color="#14488d"/><stop offset="1" stop-color="#14488d" stop-opacity="0"/></radialGradient><radialGradient id="W" cx="0" cy="0" gradientTransform="matrix(-3.03124501 -.15626146 .23676113 -4.5928215 10.516 17.2833)" gradientUnits="userSpaceOnUse" r="1"><stop offset=".113" stop-color="#1956ae"/><stop offset="1" stop-color="#1956ae" stop-opacity="0"/></radialGradient><radialGradient id="X" cx="0" cy="0" gradientTransform="matrix(2.21875223 -2.72876275 2.84651909 2.31449971 5.51602 17.4083)" gradientUnits="userSpaceOnUse" r="1"><stop offset="0" stop-color="#3171db"/><stop offset="1" stop-color="#3171db" stop-opacity="0"/></radialGradient><linearGradient id="Y" gradientUnits="userSpaceOnUse" x1="15.867" x2="15.867" y1="11.3" y2="16.752"><stop offset="0" stop-color="#4478e6"/><stop offset="1" stop-color="#4478e6" stop-opacity="0"/></linearGradient><radialGradient id="Z" cx="0" cy="0" gradientTransform="matrix(1.81250364 .60937624 -.60937624 1.81250364 9.24133 14.75)" gradientUnits="userSpaceOnUse" r="1"><stop offset="0" stop-color="#624757"/><stop offset="1" stop-color="#714c57"/></radialGradient><radialGradient id="aa" cx="0" cy="0" gradientTransform="matrix(1.53124852 2.46874658 -2.46874658 1.53124852 20.1788 13.9687)" gradientUnits="userSpaceOnUse" r="1"><stop offset="0" stop-color="#6a5058"/><stop offset=".818" stop-color="#926f6a"/></radialGradient><radialGradient id="ab" cx="0" cy="0" gradientTransform="matrix(-.63281236 .21093808 -.31172552 -.93517377 21.4691 14.7546)" gradientUnits="userSpaceOnUse" r="1"><stop offset=".493" stop-color="#876b6a"/><stop offset="1" stop-color="#876b6a" stop-opacity="0"/></radialGradient><radialGradient id="ac" cx="0" cy="0" gradientTransform="matrix(-6.90151267 .55770727 -.59254298 -7.33259743 18.7972 15.7355)" gradientUnits="userSpaceOnUse" r="1"><stop offset=".099" stop-color="#b78a77"/><stop offset="1" stop-color="#8b6760"/></radialGradient><radialGradient id="ad" cx="0" cy="0" gradientTransform="matrix(-1.28089966 -1.26852969 1.03211849 -1.04218312 13.5082 13.9092)" gradientUnits="userSpaceOnUse" r="1"><stop offset=".138" stop-color="#8b5c63"/><stop offset="1" stop-color="#8b5c63" stop-opacity="0"/></radialGradient><radialGradient id="ae" cx="0" cy="0" gradientTransform="matrix(0 -1.25 1.59519 0 18.308 14)" gradientUnits="userSpaceOnUse" r="1"><stop offset="0" stop-color="#a16f6b"/><stop offset="1" stop-color="#a16f6b" stop-opacity="0"/></radialGradient><radialGradient id="af" cx="0" cy="0" gradientTransform="matrix(1.60695638 -1.34795686 .98689504 1.17651931 16.9013 12.2354)" gradientUnits="userSpaceOnUse" r="1"><stop offset=".098" stop-color="#a87d77"/><stop offset="1" stop-color="#a87d77" stop-opacity="0"/></radialGradient><linearGradient id="ag" gradientUnits="userSpaceOnUse" x1="9.991" x2="21.329" y1="25.138" y2="25.138"><stop offset="0" stop-color="#bfb9ca"/><stop offset=".232" stop-color="#c9c1d3"/><stop offset=".416" stop-color="#e8e0f3"/><stop offset=".64" stop-color="#f4ecfc"/><stop offset="1" stop-color="#e0d5e0"/></linearGradient><radialGradient id="ah" cx="0" cy="0" gradientTransform="matrix(-1.91397221 5.60397574 -5.68150841 -1.94045258 21.3288 13.8396)" gradientUnits="userSpaceOnUse" r="1"><stop offset=".462" stop-color="#d0cfe4"/><stop offset="1" stop-color="#d0cfe4" stop-opacity="0"/></radialGradient><radialGradient id="ai" cx="0" cy="0" gradientTransform="matrix(0 4.983 -5.15649 0 15.7884 14.7063)" gradientUnits="userSpaceOnUse" r="1"><stop offset=".849" stop-color="#eeeaf3"/><stop offset=".937" stop-color="#e3dee6" stop-opacity="0"/></radialGradient><radialGradient id="aj" cx="0" cy="0" gradientTransform="matrix(-.52691412 -7.49349755 3.6232936 -.25477617 20.8716 30.2708)" gradientUnits="userSpaceOnUse" r="1"><stop offset=".279" stop-color="#ccc0d0"/><stop offset="1" stop-color="#e9dfec" stop-opacity="0"/></radialGradient><linearGradient id="ak" gradientUnits="userSpaceOnUse" x1="17.206" x2="13.402" y1="19.345" y2="19.345"><stop offset="0" stop-color="#a899b6"/><stop offset="1" stop-color="#b0a3bd"/></linearGradient><linearGradient id="al"><stop offset=".802" stop-color="#7d574a"/><stop offset="1" stop-color="#694b43"/><stop offset="1" stop-color="#804d49"/><stop offset="1" stop-color="#664944"/></linearGradient><radialGradient id="am" cx="0" cy="0" gradientTransform="matrix(0 .811319 -1.29049 0 17.8934 14.4709)" gradientUnits="userSpaceOnUse" r="1" xlink:href="#al"/><linearGradient id="an"><stop offset=".766" stop-color="#ffe6e2" stop-opacity="0"/><stop offset=".966" stop-color="#ffe6e2"/></linearGradient><radialGradient id="ao" cx="0" cy="0" gradientTransform="matrix(-.23191737 -.2988568 .41145456 -.31929492 17.6654 14.5551)" gradientUnits="userSpaceOnUse" r="1" xlink:href="#an"/><linearGradient id="ap"><stop offset="0" stop-color="#b4948d"/><stop offset="1" stop-color="#b4948d" stop-opacity="0"/></linearGradient><linearGradient id="aq" gradientUnits="userSpaceOnUse" x1="18.671" x2="18.358" xlink:href="#ap" y1="14.525" y2="14.718"/><radialGradient id="ar" cx="0" cy="0" gradientTransform="matrix(-1.93356195 1.31958003 -1.29572428 -1.89860647 28.3775 23.6712)" gradientUnits="userSpaceOnUse" r="1"><stop offset=".464" stop-color="#bc9479"/><stop offset="1" stop-color="#aa7756"/></radialGradient><radialGradient id="as" cx="0" cy="0" gradientTransform="matrix(.76221873 -.5803629 .44475136 .58411352 27.8063 23.5249)" gradientUnits="userSpaceOnUse" r="1"><stop offset=".132" stop-color="#cfa78e"/><stop offset="1" stop-color="#cfa78e" stop-opacity="0"/></radialGradient><radialGradient id="at" cx="0" cy="0" gradientTransform="matrix(0 .811361 -1.29056 0 13.5294 14.4709)" gradientUnits="userSpaceOnUse" r="1" xlink:href="#al"/><linearGradient id="au" gradientUnits="userSpaceOnUse" x1="14.273" x2="13.96" xlink:href="#ap" y1="14.525" y2="14.718"/><radialGradient id="av" cx="0" cy="0" gradientTransform="matrix(-.00773581 -.49408344 .59390821 -.00929875 13.2429 14.6902)" gradientUnits="userSpaceOnUse" r="1" xlink:href="#an"/><linearGradient id="aw" gradientUnits="userSpaceOnUse" x1="24.349" x2="28.321" y1="10.144" y2="10.144"><stop offset="0" stop-color="#d98350"/><stop offset="1" stop-color="#e4a771"/></linearGradient><radialGradient id="ax" cx="0" cy="0" gradientTransform="matrix(3.02576525 3.68765366 -3.81405891 3.12948232 22.859 6.9009)" gradientUnits="userSpaceOnUse" r="1"><stop offset=".217" stop-color="#ba756c"/><stop offset="1" stop-color="#ba756c" stop-opacity="0"/></radialGradient><radialGradient id="ay" cx="0" cy="0" gradientTransform="matrix(0 2.08699 -2.67056 0 25.6937 7.03807)" gradientUnits="userSpaceOnUse" r="1"><stop offset=".759" stop-color="#ba795b"/><stop offset="1" stop-color="#ba795b" stop-opacity="0"/></radialGradient><radialGradient id="az" cx="0" cy="0" gradientTransform="matrix(-3.31727953 2.29194308 -1.53753635 -2.2253772 29.2951 7.52059)" gradientUnits="userSpaceOnUse" r="1"><stop offset="0" stop-color="#cc8c6f"/><stop offset="1" stop-color="#cc8c6f" stop-opacity="0"/></radialGradient><radialGradient id="aA" cx="0" cy="0" gradientTransform="matrix(-3.35196582 2.37569633 -2.66450516 -3.75945785 27.3864 5.4009)" gradientUnits="userSpaceOnUse" r="1"><stop offset="0" stop-color="#4ddcff"/><stop offset="1" stop-color="#2f85fe"/></radialGradient><radialGradient id="aB" cx="0" cy="0" gradientTransform="matrix(-3.18337761 -3.37245322 3.40484989 -3.21395797 26.7359 7.19006)" gradientUnits="userSpaceOnUse" r="1"><stop offset=".691" stop-color="#39a1ff" stop-opacity="0"/><stop offset=".913" stop-color="#4093be"/></radialGradient><radialGradient id="aC" cx="0" cy="0" gradientTransform="matrix(-.80373436 -2.06445245 2.72869774 -1.06233889 26.9563 6.27607)" gradientUnits="userSpaceOnUse" r="1"><stop offset=".052" stop-color="#fff" stop-opacity="0"/><stop offset="1" stop-color="#fff"/></radialGradient><linearGradient id="aD" gradientUnits="userSpaceOnUse" x1="26.594" x2="26.594" y1="10.041" y2="25.783"><stop offset="0" stop-color="#e3a984"/><stop offset="1" stop-color="#e3a984" stop-opacity="0"/></linearGradient><radialGradient id="aE" cx="0" cy="0" gradientTransform="matrix(0 -2.21875 5.11733 0 15.6865 19.4375)" gradientUnits="userSpaceOnUse" r="1"><stop offset=".514" stop-color="#d4d0db"/><stop offset="1" stop-color="#c7c2cd"/></radialGradient><radialGradient id="aF" cx="0" cy="0" gradientTransform="matrix(3.01562083 -1.74953608 .66842959 1.15215126 12.8976 19.9058)" gradientUnits="userSpaceOnUse" r="1"><stop offset="0" stop-color="#dbd5e2"/><stop offset="1" stop-color="#dbd5e2" stop-opacity="0"/></radialGradient><radialGradient id="aG" cx="0" cy="0" gradientTransform="matrix(-1.46875172 -.99999993 1.44386154 -2.12067427 19.4288 19.625)" gradientUnits="userSpaceOnUse" r="1"><stop offset="0" stop-color="#dddae3"/><stop offset="1" stop-color="#dddae3" stop-opacity="0"/></radialGradient><linearGradient id="aH" gradientUnits="userSpaceOnUse" x1="17.991" x2="17.335" y1="17.313" y2="18.5"><stop offset=".182" stop-color="#d7d4da"/><stop offset="1" stop-color="#d7d4da" stop-opacity="0"/></linearGradient><linearGradient id="aI" gradientUnits="userSpaceOnUse" x1="16.477" x2="15.43" y1="16.3" y2="16.426"><stop offset=".175" stop-color="#bb9481"/><stop offset="1" stop-color="#a27c6e" stop-opacity="0"/></linearGradient><linearGradient id="aJ" gradientUnits="userSpaceOnUse" x1="15.89" x2="15.89" y1="17.21" y2="16.331"><stop offset=".147" stop-color="#96676d"/><stop offset="1" stop-color="#a17b6d" stop-opacity="0"/></linearGradient><linearGradient id="aK" gradientUnits="userSpaceOnUse" x1="14.813" x2="15.805" y1="16.19" y2="16.268"><stop offset="0" stop-color="#805b52"/><stop offset="1" stop-color="#a17b6d" stop-opacity="0"/></linearGradient><radialGradient id="aL" cx="0" cy="0" gradientTransform="matrix(0 .195894 -.601673 0 16.0164 16.7057)" gradientUnits="userSpaceOnUse" r="1"><stop offset="0" stop-color="#b88f82"/><stop offset="1" stop-color="#b88f82" stop-opacity="0"/></radialGradient><linearGradient id="aM" gradientUnits="userSpaceOnUse" x1="15.705" x2="15.705" y1="14.543" y2="17.21"><stop offset=".026" stop-color="#a57c6e"/><stop offset=".208" stop-color="#a57c6e" stop-opacity="0"/></linearGradient><linearGradient id="aN" gradientUnits="userSpaceOnUse" x1="27.727" x2="23.346" y1="28.063" y2="28.063"><stop offset=".146" stop-color="#c89a81"/><stop offset=".861" stop-color="#a57c6f"/></linearGradient><radialGradient id="aO" cx="0" cy="0" gradientTransform="matrix(0 .801703 -1.47311 0 25.9963 25.3046)" gradientUnits="userSpaceOnUse" r="1"><stop offset=".106" stop-color="#c2998b"/><stop offset="1" stop-color="#c99e80" stop-opacity="0"/></radialGradient><linearGradient id="aP"><stop offset=".109" stop-color="#c2998b"/><stop offset="1" stop-color="#c99e80" stop-opacity="0"/></linearGradient><radialGradient id="aQ" cx="0" cy="0" gradientTransform="matrix(0 .859375 -1.57908 0 25.9963 26.5991)" gradientUnits="userSpaceOnUse" r="1" xlink:href="#aP"/><radialGradient id="aR" cx="0" cy="0" gradientTransform="matrix(0 .71875 -1.32068 0 25.9963 27.8491)" gradientUnits="userSpaceOnUse" r="1" xlink:href="#aP"/><radialGradient id="aS" cx="0" cy="0" gradientTransform="matrix(0 .799377 -1.8787 0 25.9963 29.2006)" gradientUnits="userSpaceOnUse" r="1"><stop offset=".186" stop-color="#c2998b"/><stop offset="1" stop-color="#c99e80" stop-opacity="0"/></radialGradient><linearGradient id="aT"><stop offset="0" stop-color="#835646"/><stop offset="1" stop-color="#835646" stop-opacity="0"/></linearGradient><linearGradient id="aU" gradientUnits="userSpaceOnUse" x1="23.866" x2="25.575" xlink:href="#aT" y1="26.056" y2="26.056"/><linearGradient id="aV" gradientUnits="userSpaceOnUse" x1="23.788" x2="25.497" xlink:href="#aT" y1="27.361" y2="27.361"/><linearGradient id="aW" gradientUnits="userSpaceOnUse" x1="23.866" x2="25.575" xlink:href="#aT" y1="28.665" y2="28.665"/><path d="m4.91589 30c0-2.883 2.98707-9.7607 10.77781-9.7607 7.7908 0 10.6275 6.3965 10.8681 9.7607z" fill="url(#u)"/><path d="m4.91589 30c0-2.883 2.98707-9.7607 10.77781-9.7607 7.7908 0 10.6275 6.3965 10.8681 9.7607z" fill="url(#v)"/><path d="m4.91589 30c0-2.883 2.98707-9.7607 10.77781-9.7607 7.7908 0 10.6275 6.3965 10.8681 9.7607z" fill="url(#w)"/><path d="m4.91589 30c0-2.883 2.98707-9.7607 10.77781-9.7607 7.7908 0 10.6275 6.3965 10.8681 9.7607z" fill="url(#x)"/><path d="m4.91589 30c0-2.883 2.98707-9.7607 10.77781-9.7607 7.7908 0 10.6275 6.3965 10.8681 9.7607z" fill="url(#y)"/><path d="m4.91589 30c0-2.883 2.98707-9.7607 10.77781-9.7607 7.7908 0 10.6275 6.3965 10.8681 9.7607z" fill="url(#z)"/><path d="m8.6355 22.7561c-2.61576 2.2626-3.71961 5.4914-3.71961 7.2439h3.71961z" fill="url(#A)"/><path d="m8.6355 22.7561c-2.61576 2.2626-3.71961 5.4914-3.71961 7.2439h3.71961z" fill="url(#B)"/><path d="m8.6355 22.7561c-2.61576 2.2626-3.71961 5.4914-3.71961 7.2439h3.71961z" fill="url(#C)"/><path d="m22.8812 22.7631c2.476 2.1624 3.5374 5.236 3.6806 7.2369h-3.6806z" fill="url(#D)"/><g filter="url(#a)"><path d="m15.6488 2c2.84 0 4.71.95 5.81 1.77.52.39.23 1.22-.42 1.22l-5.31.01z" fill="url(#E)"/><path d="m15.6488 2c2.84 0 4.71.95 5.81 1.77.52.39.23 1.22-.42 1.22l-5.31.01z" fill="url(#F)"/></g><path d="m21.5989 10.46h-11.90005l.18-.35c1.12005-2.16 3.34005-8.11 5.77005-8.11 2.44 0 4.67 5.96 5.78 8.13z" fill="url(#G)"/><path d="m21.5989 10.46h-11.90005l.18-.35c1.12005-2.16 3.34005-8.11 5.77005-8.11 2.44 0 4.67 5.96 5.78 8.13z" fill="url(#H)"/><path d="m21.5989 10.46h-11.90005l.18-.35c1.12005-2.16 3.34005-8.11 5.77005-8.11 2.44 0 4.67 5.96 5.78 8.13z" fill="url(#I)"/><path d="m9.46893 10.15-.19.38h12.73997l-.18-.36c-.32-.62-.72-1.18-1.19-1.67h-10c-.46.49-.85997 1.04-1.17997 1.65z" fill="url(#J)"/><path d="m9.46893 10.15-.19.38h12.73997l-.18-.36c-.32-.62-.72-1.18-1.19-1.67h-10c-.46.49-.85997 1.04-1.17997 1.65z" fill="url(#K)"/><path d="m9.46893 10.15-.19.38h12.73997l-.18-.36c-.32-.62-.72-1.18-1.19-1.67h-10c-.46.49-.85997 1.04-1.17997 1.65z" fill="url(#L)"/><path d="m23.3288 18.48-15.19997-.01c-2.45 0-4.45-2-4.45-4.46s2-4.45995 4.46-4.45995l15.19997.01c2.46 0 4.46 1.99995 4.46 4.45995-.01 2.46-2.01 4.46-4.47 4.46z" fill="url(#M)"/><path d="m23.3288 18.48-15.19997-.01c-2.45 0-4.45-2-4.45-4.46s2-4.45995 4.46-4.45995l15.19997.01c2.46 0 4.46 1.99995 4.46 4.45995-.01 2.46-2.01 4.46-4.47 4.46z" fill="url(#N)"/><path d="m23.3288 18.48-15.19997-.01c-2.45 0-4.45-2-4.45-4.46s2-4.45995 4.46-4.45995l15.19997.01c2.46 0 4.46 1.99995 4.46 4.45995-.01 2.46-2.01 4.46-4.47 4.46z" fill="url(#O)"/><path d="m23.3288 18.48-15.19997-.01c-2.45 0-4.45-2-4.45-4.46s2-4.45995 4.46-4.45995l15.19997.01c2.46 0 4.46 1.99995 4.46 4.45995-.01 2.46-2.01 4.46-4.47 4.46z" fill="url(#P)"/><path d="m23.3288 18.48-15.19997-.01c-2.45 0-4.45-2-4.45-4.46s2-4.45995 4.46-4.45995l15.19997.01c2.46 0 4.46 1.99995 4.46 4.45995-.01 2.46-2.01 4.46-4.47 4.46z" fill="url(#Q)"/><path d="m23.3288 18.48-15.19997-.01c-2.45 0-4.45-2-4.45-4.46s2-4.45995 4.46-4.45995l15.19997.01c2.46 0 4.46 1.99995 4.46 4.45995-.01 2.46-2.01 4.46-4.47 4.46z" fill="url(#R)"/><path d="m23.3288 18.48-15.19997-.01c-2.45 0-4.45-2-4.45-4.46s2-4.45995 4.46-4.45995l15.19997.01c2.46 0 4.46 1.99995 4.46 4.45995-.01 2.46-2.01 4.46-4.47 4.46z" fill="url(#S)"/><g filter="url(#b)"><path d="m22.8616 18.0596h-13.98999c-2.27 0-4.1-1.51-4.1-3.38s1.84-3.38 4.1-3.38l13.98999.01c2.27 0 4.1 1.51 4.1 3.38 0 1.86-1.84 3.37-4.1 3.37z" fill="url(#T)"/><path d="m22.8616 18.0596h-13.98999c-2.27 0-4.1-1.51-4.1-3.38s1.84-3.38 4.1-3.38l13.98999.01c2.27 0 4.1 1.51 4.1 3.38 0 1.86-1.84 3.37-4.1 3.37z" fill="url(#U)"/><path d="m22.8616 18.0596h-13.98999c-2.27 0-4.1-1.51-4.1-3.38s1.84-3.38 4.1-3.38l13.98999.01c2.27 0 4.1 1.51 4.1 3.38 0 1.86-1.84 3.37-4.1 3.37z" fill="url(#V)"/><path d="m22.8616 18.0596h-13.98999c-2.27 0-4.1-1.51-4.1-3.38s1.84-3.38 4.1-3.38l13.98999.01c2.27 0 4.1 1.51 4.1 3.38 0 1.86-1.84 3.37-4.1 3.37z" fill="url(#W)"/><path d="m22.8616 18.0596h-13.98999c-2.27 0-4.1-1.51-4.1-3.38s1.84-3.38 4.1-3.38l13.98999.01c2.27 0 4.1 1.51 4.1 3.38 0 1.86-1.84 3.37-4.1 3.37z" fill="url(#X)"/><path d="m8.87161 11.1996h.00007l13.98992.01h.0001m-13.99009-.01v.1c-2.26 0-4.1 1.51-4.1 3.38s1.83 3.38 4.1 3.38h13.98999c2.26 0 4.1-1.51 4.1-3.37 0-1.87-1.83-3.38-4.1-3.38l.0001-.1m-13.99009-.01c-2.29616 0-4.2 1.5374-4.2 3.48 0 1.9424 1.89367 3.48 4.2 3.48h13.98999c2.296 0 4.2-1.5373 4.2-3.47 0-1.9424-1.8936-3.48-4.1999-3.48m-13.99009-.01 13.99009.01" stroke="url(#Y)" stroke-width=".2"/></g><path d="m10.7988 16.75c.9113 0 1.65-.7388 1.65-1.65 0-.9113-.7387-1.65-1.65-1.65-.91127 0-1.65.7387-1.65 1.65 0 .9112.73873 1.65 1.65 1.65z" fill="url(#Z)"/><g filter="url(#c)"><path d="m10.7988 16.1999c.6075 0 1.1-.4925 1.1-1.0999 0-.6075-.4925-1.1-1.1-1.1s-1.09995.4925-1.09995 1.1c0 .6074.49245 1.0999 1.09995 1.0999z" fill="#613f46"/></g><path d="m20.4988 16.75c.9112 0 1.65-.7388 1.65-1.65 0-.9113-.7388-1.65-1.65-1.65-.9113 0-1.65.7387-1.65 1.65 0 .9112.7387 1.65 1.65 1.65z" fill="url(#aa)"/><path d="m20.4988 16.75c.9112 0 1.65-.7388 1.65-1.65 0-.9113-.7388-1.65-1.65-1.65-.9113 0-1.65.7387-1.65 1.65 0 .9112.7387 1.65 1.65 1.65z" fill="url(#ab)"/><g filter="url(#d)"><path d="m20.4987 16.2001c.6075 0 1.1001-.4925 1.1001-1.1001s-.4926-1.1001-1.1001-1.1001c-.6076 0-1.1001.4925-1.1001 1.1001s.4925 1.1001 1.1001 1.1001z" fill="#79544d"/></g><g filter="url(#e)"><path d="m20.8295 13.5319c0-.0097 0-.0097 0 0l.01-.1063c.0404-1.044-.2627-1.7628-2.0417-1.9239s-4.4902-.2148-6.3235 0-2.0884.8992-1.9876 1.9819l.3024 4.4562c.2621 1.8849 1.9355 3.2866 3.9214 3.2866h1.9053c1.9858 0 3.6592-1.4113 3.9213-3.2866z" fill="url(#ac)"/><path d="m20.8295 13.5319c0-.0097 0-.0097 0 0l.01-.1063c.0404-1.044-.2627-1.7628-2.0417-1.9239s-4.4902-.2148-6.3235 0-2.0884.8992-1.9876 1.9819l.3024 4.4562c.2621 1.8849 1.9355 3.2866 3.9214 3.2866h1.9053c1.9858 0 3.6592-1.4113 3.9213-3.2866z" fill="url(#ad)"/><path d="m20.8295 13.5319c0-.0097 0-.0097 0 0l.01-.1063c.0404-1.044-.2627-1.7628-2.0417-1.9239s-4.4902-.2148-6.3235 0-2.0884.8992-1.9876 1.9819l.3024 4.4562c.2621 1.8849 1.9355 3.2866 3.9214 3.2866h1.9053c1.9858 0 3.6592-1.4113 3.9213-3.2866z" fill="url(#ae)"/><path d="m20.8295 13.5319c0-.0097 0-.0097 0 0l.01-.1063c.0404-1.044-.2627-1.7628-2.0417-1.9239s-4.4902-.2148-6.3235 0-2.0884.8992-1.9876 1.9819l.3024 4.4562c.2621 1.8849 1.9355 3.2866 3.9214 3.2866h1.9053c1.9858 0 3.6592-1.4113 3.9213-3.2866z" fill="url(#af)"/></g><g filter="url(#f)"><path d="m12.2775 12.8047s.7226-.5731 1.7226-.4531" stroke="#a1a3ad" stroke-linecap="round" stroke-linejoin="round" stroke-miterlimit="10" stroke-width=".95"/></g><g filter="url(#g)"><path d="m19.2982 12.8047s-.707-.5731-1.707-.4531" stroke="#a1a3ad" stroke-linecap="round" stroke-linejoin="round" stroke-miterlimit="10" stroke-width=".95"/></g><path d="m19.8239 30c.4427-.7052 1.3629-2.6226 1.4375-4.6539.0937-2.5542.1406-8.8221-.4532-11.7367-.1697 2.1199-1.9697 5.0156-5.1594 5.2773-3.1896-.2617-4.9897-3.1574-5.1594-5.2773-.59376 2.9146-.54687 9.1825-.4531 11.7367.0745 2.0313.9948 3.9487 1.4375 4.6539z" fill="url(#ag)"/><path d="m19.8239 30c.4427-.7052 1.3629-2.6226 1.4375-4.6539.0937-2.5542.1406-8.8221-.4532-11.7367-.1697 2.1199-1.9697 5.0156-5.1594 5.2773-3.1896-.2617-4.9897-3.1574-5.1594-5.2773-.59376 2.9146-.54687 9.1825-.4531 11.7367.0745 2.0313.9948 3.9487 1.4375 4.6539z" fill="url(#ah)"/><path d="m19.8239 30c.4427-.7052 1.3629-2.6226 1.4375-4.6539.0937-2.5542.1406-8.8221-.4532-11.7367-.1697 2.1199-1.9697 5.0156-5.1594 5.2773-3.1896-.2617-4.9897-3.1574-5.1594-5.2773-.59376 2.9146-.54687 9.1825-.4531 11.7367.0745 2.0313.9948 3.9487 1.4375 4.6539z" fill="url(#ai)"/><path d="m19.8239 30c.4427-.7052 1.3629-2.6226 1.4375-4.6539.0937-2.5542.1406-8.8221-.4532-11.7367-.1697 2.1199-1.9697 5.0156-5.1594 5.2773-3.1896-.2617-4.9897-3.1574-5.1594-5.2773-.59376 2.9146-.54687 9.1825-.4531 11.7367.0745 2.0313.9948 3.9487 1.4375 4.6539z" fill="url(#aj)"/><path clip-rule="evenodd" d="m13.8453 15.5455c.1193-.1148.3091-.1112.424.008.115.1193.1115.3093-.0079.4242l-.2081-.216c.2081.216.2081.2161.208.2162l-.0002.0002-.0004.0003-.001.001-.0026.0024-.0077.0072c-.0062.0057-.0147.0133-.0254.0226-.0213.0185-.0514.0435-.0897.0728-.0765.0585-.1867.1347-.3261.2095-.2778.1491-.6816.2979-1.1687.2793-.1656-.0064-.2947-.1457-.2883-.3113.0063-.1656.1457-.2946.3112-.2883.3508.0134.6482-.0936.8621-.2084.1064-.0571.1897-.1148.2453-.1574.0277-.0212.0482-.0383.061-.0495l.0133-.0117zm0 0 .0009-.0009c.0001 0 0 0-.0001.0002l-.0004.0003-.0002.0002z" fill="#8a605a" fill-rule="evenodd"/><path clip-rule="evenodd" d="m17.6325 15.5455c-.1194-.1148-.3092-.1112-.4241.008-.1149.1193-.1114.3093.0079.4242l.2082-.216c-.2082.216-.2081.2161-.208.2162l.0002.0002.0004.0003.001.001.0026.0024.0077.0072c.0062.0057.0147.0133.0254.0226.0213.0185.0514.0435.0897.0728.0764.0585.1867.1347.3261.2095.2778.1491.6816.2979 1.1687.2793.1656-.0064.2946-.1457.2883-.3113s-.1457-.2946-.3113-.2883c-.3507.0134-.6481-.0936-.862-.2084-.1064-.0571-.1897-.1148-.2453-.1574-.0277-.0212-.0482-.0383-.0611-.0495l-.0132-.0117zm0 0-.0009-.0009c-.0001 0-.0001 0 .0001.0002l.0004.0003.0002.0002z" fill="#a37467" fill-rule="evenodd"/><g filter="url(#h)"><path clip-rule="evenodd" d="m15.4251 17.0936c.1801-.1333.4016-.1327.5813.0014l2.49 1.7946c.2783.2077.3733.6669.2123 1.0258-.1611.3588-.5172.4813-.7955.2737l-2.0845-1.4954c-.069-.0495-.1616-.05-.2312-.0014l-2.1414 1.4968c-.2789.2063-.6347.0821-.7947-.2775s-.0636-.8184.2152-1.0248z" fill="url(#ak)" fill-rule="evenodd"/></g><path d="m18.1024 13.7222c.6532 0 1.2048.4503 1.3549 1.0587.0447.1745-.0892.3408-.2677.3408h-2.2311c-.142 0-.2556-.1298-.2272-.2718.1258-.6409.6896-1.1277 1.3711-1.1277z" fill="#fff"/><path d="m17.8954 13.9939c.4949 0 .8925.4016.8925.8924 0 .0812-.0122.1623-.0325.2353h-1.724c-.0203-.077-.0325-.1541-.0325-.2353 0-.4908.4016-.8924.8965-.8924z" fill="url(#am)"/><path d="m17.3844 14.8864c0-.284.2272-.5112.5111-.5112.284 0 .5112.2272.5112.5112 0 .0852-.0203.1663-.0568.2353h-.9047c-.0405-.069-.0608-.1501-.0608-.2353z" fill="#000"/><g filter="url(#i)"><path d="m17.83 14.1826c.0635.085-.0694.1887-.2205.3017s-.2632.1925-.3268.1074c-.0636-.085.0074-.2455.1585-.3585s.3252-.1357.3888-.0506z" fill="#c7a7a3"/><path d="m17.83 14.1826c.0635.085-.0694.1887-.2205.3017s-.2632.1925-.3268.1074c-.0636-.085.0074-.2455.1585-.3585s.3252-.1357.3888-.0506z" fill="url(#ao)"/></g><g filter="url(#j)"><path d="m18.6903 14.7689c-.0329-.2308-.1679-.4046-.2313-.4627l-.2599.2852.1173.2282z" fill="url(#aq)"/></g><path d="m27.0748 23.0438c.5319 0 .9671.4352.9671.9671v2.2145h-1.9341v-2.2145c.0097-.5319.4352-.9671.967-.9671z" fill="url(#ar)"/><path d="m27.0748 23.0438c.5319 0 .9671.4352.9671.9671v2.2145h-1.9341v-2.2145c.0097-.5319.4352-.9671.967-.9671z" fill="url(#as)"/><path d="m13.3205 13.722c-.6531 0-1.2048.4504-1.3549 1.0589-.0447.1744.0892.3407.2677.3407h2.2312c.142 0 .2556-.1298.2272-.2718-.1257-.6409-.6937-1.1278-1.3712-1.1278z" fill="#fff"/><path d="m13.5274 13.9939c-.4949 0-.8925.4016-.8925.8925 0 .0811.0122.1623.0324.2353h1.7242c.0203-.0771.0324-.1542.0324-.2353-.004-.4909-.4016-.8925-.8965-.8925z" fill="url(#at)"/><path d="m14.0385 14.8864c0-.284-.2271-.5112-.5111-.5112s-.5112.2272-.5112.5112c0 .0852.0203.1663.0568.2353h.9047c.0365-.069.0608-.1501.0608-.2353z" fill="#000"/><g filter="url(#k)"><path d="m14.3428 14.7815c0-.2884-.2345-.4807-.2979-.5388l-.2884.2789.1775.3613z" fill="url(#au)"/></g><g filter="url(#l)"><ellipse cx="13.258" cy="14.375" fill="#c7a7a3" fill-opacity=".9" rx=".39" ry=".197" transform="matrix(.88365127 -.46814574 .46814574 .88365127 -5.187184 7.879224)"/><ellipse cx="13.258" cy="14.375" fill="url(#av)" rx=".39" ry=".197" transform="matrix(.88365127 -.46814574 .46814574 .88365127 -5.187184 7.879224)"/></g><g filter="url(#m)"><path d="m26.9394 4.87113c-.2017-.11095-.4539.04034-.4539.27232v1.63391c0 .44378-.3631.81696-.8068.80687-.4237-.01008-.7767-.353-.7767-.7867v-1.65408c0-.23198-.2521-.38327-.4538-.27232-.817.44378-1.3717 1.30108-1.3818 2.2895-.0101 1.01867.585 1.91631 1.4423 2.36009.1009.05043.1614.15129.1614.26224v16.04664c0 .5749.474 1.0489 1.0489 1.0489s1.0489-.474 1.0489-1.0489v-16.06682c0-.11094.0605-.2118.1614-.26223.827-.44378 1.3919-1.31116 1.3919-2.31975 0-.99851-.5548-1.86589-1.3818-2.30967z" fill="url(#aw)"/><path d="m26.9394 4.87113c-.2017-.11095-.4539.04034-.4539.27232v1.63391c0 .44378-.3631.81696-.8068.80687-.4237-.01008-.7767-.353-.7767-.7867v-1.65408c0-.23198-.2521-.38327-.4538-.27232-.817.44378-1.3717 1.30108-1.3818 2.2895-.0101 1.01867.585 1.91631 1.4423 2.36009.1009.05043.1614.15129.1614.26224v16.04664c0 .5749.474 1.0489 1.0489 1.0489s1.0489-.474 1.0489-1.0489v-16.06682c0-.11094.0605-.2118.1614-.26223.827-.44378 1.3919-1.31116 1.3919-2.31975 0-.99851-.5548-1.86589-1.3818-2.30967z" fill="url(#ax)"/><path d="m26.9394 4.87113c-.2017-.11095-.4539.04034-.4539.27232v1.63391c0 .44378-.3631.81696-.8068.80687-.4237-.01008-.7767-.353-.7767-.7867v-1.65408c0-.23198-.2521-.38327-.4538-.27232-.817.44378-1.3717 1.30108-1.3818 2.2895-.0101 1.01867.585 1.91631 1.4423 2.36009.1009.05043.1614.15129.1614.26224v16.04664c0 .5749.474 1.0489 1.0489 1.0489s1.0489-.474 1.0489-1.0489v-16.06682c0-.11094.0605-.2118.1614-.26223.827-.44378 1.3919-1.31116 1.3919-2.31975 0-.99851-.5548-1.86589-1.3818-2.30967z" fill="url(#ay)"/><path d="m26.9394 4.87113c-.2017-.11095-.4539.04034-.4539.27232v1.63391c0 .44378-.3631.81696-.8068.80687-.4237-.01008-.7767-.353-.7767-.7867v-1.65408c0-.23198-.2521-.38327-.4538-.27232-.817.44378-1.3717 1.30108-1.3818 2.2895-.0101 1.01867.585 1.91631 1.4423 2.36009.1009.05043.1614.15129.1614.26224v16.04664c0 .5749.474 1.0489 1.0489 1.0489s1.0489-.474 1.0489-1.0489v-16.06682c0-.11094.0605-.2118.1614-.26223.827-.44378 1.3919-1.31116 1.3919-2.31975 0-.99851-.5548-1.86589-1.3818-2.30967z" fill="url(#az)"/></g><path d="m25.6989 8.77982c1.4482 0 2.6223-1.17406 2.6223-2.62233 0-1.44828-1.1741-2.62233-2.6223-2.62233-1.4483 0-2.6224 1.17405-2.6224 2.62233 0 1.44827 1.1741 2.62233 2.6224 2.62233z" fill="url(#aA)"/><path d="m25.6989 8.77982c1.4482 0 2.6223-1.17406 2.6223-2.62233 0-1.44828-1.1741-2.62233-2.6223-2.62233-1.4483 0-2.6224 1.17405-2.6224 2.62233 0 1.44827 1.1741 2.62233 2.6224 2.62233z" fill="url(#aB)"/><path d="m25.6306 5.53814c-.2363-.42442-.0851-.96021.3381-1.19875.462-.2604 1.0479-.05785 1.25.43242l.1235.29947c.1667.40425.0051.86927-.3763 1.08314-.4171.23393-.945.08454-1.1777-.33331z" fill="url(#aC)"/><g filter="url(#n)"><path d="m26.0941 10.0411v15.7421" stroke="url(#aD)" stroke-linecap="round" stroke-width=".5"/></g><path d="m16.9474 18.6797c-1.1188.4187-2.1224.1745-2.4844 0l1.2344-1.0078z" fill="#86004d"/><g clip-rule="evenodd" fill-rule="evenodd" filter="url(#o)"><path d="m15.3506 16.7092c.2323-.1333.5179-.1327.7497.0014l3.211 1.7946c.3589.2077.4814.6669.2737 1.0258-.2077.3588-.6669.4813-1.0257.2737l-2.7407-1.5246c-.0598-.0332-.1324-.0336-.1925-.001l-2.8148 1.5256c-.3596.2063-.8184.0821-1.0247-.2775s-.0821-.8184.2775-1.0248z" fill="url(#aE)"/><path d="m15.3506 16.7092c.2323-.1333.5179-.1327.7497.0014l3.211 1.7946c.3589.2077.4814.6669.2737 1.0258-.2077.3588-.6669.4813-1.0257.2737l-2.7407-1.5246c-.0598-.0332-.1324-.0336-.1925-.001l-2.8148 1.5256c-.3596.2063-.8184.0821-1.0247-.2775s-.0821-.8184.2775-1.0248z" fill="url(#aF)"/><path d="m15.3506 16.7092c.2323-.1333.5179-.1327.7497.0014l3.211 1.7946c.3589.2077.4814.6669.2737 1.0258-.2077.3588-.6669.4813-1.0257.2737l-2.7407-1.5246c-.0598-.0332-.1324-.0336-.1925-.001l-2.8148 1.5256c-.3596.2063-.8184.0821-1.0247-.2775s-.0821-.8184.2775-1.0248z" fill="url(#aG)"/></g><path clip-rule="evenodd" d="m15.3506 16.7092c.2323-.1333.5179-.1327.7497.0014l3.211 1.7946c.3589.2077.4814.6669.2737 1.0258-.2077.3588-.6669.4813-1.0257.2737l-2.7407-1.5246c-.0598-.0332-.1324-.0336-.1925-.001l-2.8148 1.5256c-.3596.2063-.8184.0821-1.0247-.2775s-.0821-.8184.2775-1.0248z" fill="url(#aH)" fill-rule="evenodd"/><g filter="url(#p)"><path clip-rule="evenodd" d="m16.5068 16.9302-.4296-.2401c-.2182-.1264-.4872-.1269-.7059-.0014l-.4654.254c.0744.1752.2431.3022.4499.3022h.7023c.2059 0 .3755-.1331.4487-.3147z" fill="#77615d" fill-rule="evenodd"/></g><path d="m15.3341 14.82-.4971 1.69c-.1052.35.1434.7.4971.7h.7458c.3442 0 .5928-.35.4972-.7l-.4972-1.69c-.1243-.37-.631-.37-.7458 0z" fill="#a07a6c"/><path d="m15.3341 14.82-.4971 1.69c-.1052.35.1434.7.4971.7h.7458c.3442 0 .5928-.35.4972-.7l-.4972-1.69c-.1243-.37-.631-.37-.7458 0z" fill="url(#aI)"/><path d="m15.3341 14.82-.4971 1.69c-.1052.35.1434.7.4971.7h.7458c.3442 0 .5928-.35.4972-.7l-.4972-1.69c-.1243-.37-.631-.37-.7458 0z" fill="url(#aJ)"/><path d="m15.3341 14.82-.4971 1.69c-.1052.35.1434.7.4971.7h.7458c.3442 0 .5928-.35.4972-.7l-.4972-1.69c-.1243-.37-.631-.37-.7458 0z" fill="url(#aK)"/><path d="m15.3341 14.82-.4971 1.69c-.1052.35.1434.7.4971.7h.7458c.3442 0 .5928-.35.4972-.7l-.4972-1.69c-.1243-.37-.631-.37-.7458 0z" fill="url(#aL)"/><path d="m15.3341 14.82-.4971 1.69c-.1052.35.1434.7.4971.7h.7458c.3442 0 .5928-.35.4972-.7l-.4972-1.69c-.1243-.37-.631-.37-.7458 0z" fill="url(#aM)"/><g filter="url(#q)"><path d="m23.3456 25.3256c0-.4013.3253-.7318.7265-.7318h2.7698c.6628 0 1.2.5372 1.2 1.1999v3.2063c0 .5523-.4477 1-1 1h-2.9698c-.4012 0-.7265-.3306-.7265-.7319 0-.2867.1661-.5373.4073-.657-.2412-.1198-.4073-.3704-.4073-.6571 0-.2868.1661-.5374.4073-.6571-.2412-.1197-.4073-.3704-.4073-.6571s.1661-.5374.4073-.6571c-.2412-.1197-.4073-.3704-.4073-.6571z" fill="url(#aN)"/><path d="m23.3456 25.3256c0-.4013.3253-.7318.7265-.7318h2.7698c.6628 0 1.2.5372 1.2 1.1999v3.2063c0 .5523-.4477 1-1 1h-2.9698c-.4012 0-.7265-.3306-.7265-.7319 0-.2867.1661-.5373.4073-.657-.2412-.1198-.4073-.3704-.4073-.6571 0-.2868.1661-.5374.4073-.6571-.2412-.1197-.4073-.3704-.4073-.6571s.1661-.5374.4073-.6571c-.2412-.1197-.4073-.3704-.4073-.6571z" fill="url(#aO)"/><path d="m23.3456 25.3256c0-.4013.3253-.7318.7265-.7318h2.7698c.6628 0 1.2.5372 1.2 1.1999v3.2063c0 .5523-.4477 1-1 1h-2.9698c-.4012 0-.7265-.3306-.7265-.7319 0-.2867.1661-.5373.4073-.657-.2412-.1198-.4073-.3704-.4073-.6571 0-.2868.1661-.5374.4073-.6571-.2412-.1197-.4073-.3704-.4073-.6571s.1661-.5374.4073-.6571c-.2412-.1197-.4073-.3704-.4073-.6571z" fill="url(#aQ)"/><path d="m23.3456 25.3256c0-.4013.3253-.7318.7265-.7318h2.7698c.6628 0 1.2.5372 1.2 1.1999v3.2063c0 .5523-.4477 1-1 1h-2.9698c-.4012 0-.7265-.3306-.7265-.7319 0-.2867.1661-.5373.4073-.657-.2412-.1198-.4073-.3704-.4073-.6571 0-.2868.1661-.5374.4073-.6571-.2412-.1197-.4073-.3704-.4073-.6571s.1661-.5374.4073-.6571c-.2412-.1197-.4073-.3704-.4073-.6571z" fill="url(#aR)"/><path d="m23.3456 25.3256c0-.4013.3253-.7318.7265-.7318h2.7698c.6628 0 1.2.5372 1.2 1.1999v3.2063c0 .5523-.4477 1-1 1h-2.9698c-.4012 0-.7265-.3306-.7265-.7319 0-.2867.1661-.5373.4073-.657-.2412-.1198-.4073-.3704-.4073-.6571 0-.2868.1661-.5374.4073-.6571-.2412-.1197-.4073-.3704-.4073-.6571s.1661-.5374.4073-.6571c-.2412-.1197-.4073-.3704-.4073-.6571z" fill="url(#aS)"/></g><g filter="url(#r)"><path d="m23.8656 25.9778h1.7969" stroke="url(#aU)" stroke-linecap="round" stroke-width=".1"/></g><g filter="url(#s)"><path d="m23.7875 27.2825h1.7969" stroke="url(#aV)" stroke-linecap="round" stroke-width=".1"/></g><g filter="url(#t)"><path d="m23.8656 28.5872h1.7969" stroke="url(#aW)" stroke-linecap="round" stroke-width=".1"/></g></svg>