<svg fill="none" height="32" viewBox="0 0 32 32" width="32" xmlns="http://www.w3.org/2000/svg" xmlns:xlink="http://www.w3.org/1999/xlink"><filter id="a" color-interpolation-filters="sRGB" filterUnits="userSpaceOnUse" height="23.547" width="8.813" x="8.259" y="6.643"><feFlood flood-opacity="0" result="BackgroundImageFix"/><feBlend in="SourceGraphic" in2="BackgroundImageFix" mode="normal" result="shape"/><feColorMatrix in="SourceAlpha" result="hardAlpha" type="matrix" values="0 0 0 0 0 0 0 0 0 0 0 0 0 0 0 0 0 0 127 0"/><feOffset dx=".25" dy=".25"/><feGaussianBlur stdDeviation=".25"/><feComposite in2="hardAlpha" k2="-1" k3="1" operator="arithmetic"/><feColorMatrix type="matrix" values="0 0 0 0 0.701961 0 0 0 0 0.552941 0 0 0 0 0.411765 0 0 0 1 0"/><feBlend in2="shape" mode="normal" result="effect1_innerShadow_18_16545"/></filter><filter id="b" color-interpolation-filters="sRGB" filterUnits="userSpaceOnUse" height="23.547" width="8.813" x="8.259" y="6.643"><feFlood flood-opacity="0" result="BackgroundImageFix"/><feBlend in="SourceGraphic" in2="BackgroundImageFix" mode="normal" result="shape"/><feColorMatrix in="SourceAlpha" result="hardAlpha" type="matrix" values="0 0 0 0 0 0 0 0 0 0 0 0 0 0 0 0 0 0 127 0"/><feOffset dx=".25" dy=".25"/><feGaussianBlur stdDeviation=".25"/><feComposite in2="hardAlpha" k2="-1" k3="1" operator="arithmetic"/><feColorMatrix type="matrix" values="0 0 0 0 0.701961 0 0 0 0 0.552941 0 0 0 0 0.411765 0 0 0 1 0"/><feBlend in2="shape" mode="normal" result="effect1_innerShadow_18_16545"/></filter><filter id="c" color-interpolation-filters="sRGB" filterUnits="userSpaceOnUse" height="23.759" width="10.186" x="13.821" y="6.581"><feFlood flood-opacity="0" result="BackgroundImageFix"/><feBlend in="SourceGraphic" in2="BackgroundImageFix" mode="normal" result="shape"/><feColorMatrix in="SourceAlpha" result="hardAlpha" type="matrix" values="0 0 0 0 0 0 0 0 0 0 0 0 0 0 0 0 0 0 127 0"/><feOffset dx="-.4" dy=".4"/><feGaussianBlur stdDeviation=".375"/><feComposite in2="hardAlpha" k2="-1" k3="1" operator="arithmetic"/><feColorMatrix type="matrix" values="0 0 0 0 1 0 0 0 0 0.94902 0 0 0 0 0.635294 0 0 0 1 0"/><feBlend in2="shape" mode="normal" result="effect1_innerShadow_18_16545"/></filter><filter id="d" color-interpolation-filters="sRGB" filterUnits="userSpaceOnUse" height="6.273" width="6.036" x="14.674" y="6.656"><feFlood flood-opacity="0" result="BackgroundImageFix"/><feBlend in="SourceGraphic" in2="BackgroundImageFix" mode="normal" result="shape"/><feGaussianBlur result="effect1_foregroundBlur_18_16545" stdDeviation=".15"/></filter><filter id="e" color-interpolation-filters="sRGB" filterUnits="userSpaceOnUse" height="3.142" width="4.262" x="8.876" y="21.857"><feFlood flood-opacity="0" result="BackgroundImageFix"/><feColorMatrix in="SourceAlpha" result="hardAlpha" type="matrix" values="0 0 0 0 0 0 0 0 0 0 0 0 0 0 0 0 0 0 127 0"/><feOffset dx="-.1" dy=".1"/><feGaussianBlur stdDeviation=".05"/><feComposite in2="hardAlpha" operator="out"/><feColorMatrix type="matrix" values="0 0 0 0 0.694118 0 0 0 0 0.423529 0 0 0 0 0.403922 0 0 0 1 0"/><feBlend in2="BackgroundImageFix" mode="normal" result="effect1_dropShadow_18_16545"/><feBlend in="SourceGraphic" in2="effect1_dropShadow_18_16545" mode="normal" result="shape"/><feColorMatrix in="SourceAlpha" result="hardAlpha" type="matrix" values="0 0 0 0 0 0 0 0 0 0 0 0 0 0 0 0 0 0 127 0"/><feOffset dx=".05" dy="-.05"/><feGaussianBlur stdDeviation=".075"/><feComposite in2="hardAlpha" k2="-1" k3="1" operator="arithmetic"/><feColorMatrix type="matrix" values="0 0 0 0 0.784314 0 0 0 0 0.462745 0 0 0 0 0.321569 0 0 0 1 0"/><feBlend in2="shape" mode="normal" result="effect2_innerShadow_18_16545"/></filter><filter id="f" color-interpolation-filters="sRGB" filterUnits="userSpaceOnUse" height="3.092" width="4.212" x="18.727" y="21.857"><feFlood flood-opacity="0" result="BackgroundImageFix"/><feColorMatrix in="SourceAlpha" result="hardAlpha" type="matrix" values="0 0 0 0 0 0 0 0 0 0 0 0 0 0 0 0 0 0 127 0"/><feOffset dx="-.05" dy=".05"/><feGaussianBlur stdDeviation=".05"/><feComposite in2="hardAlpha" operator="out"/><feColorMatrix type="matrix" values="0 0 0 0 0.694118 0 0 0 0 0.423529 0 0 0 0 0.403922 0 0 0 1 0"/><feBlend in2="BackgroundImageFix" mode="normal" result="effect1_dropShadow_18_16545"/><feBlend in="SourceGraphic" in2="effect1_dropShadow_18_16545" mode="normal" result="shape"/><feColorMatrix in="SourceAlpha" result="hardAlpha" type="matrix" values="0 0 0 0 0 0 0 0 0 0 0 0 0 0 0 0 0 0 127 0"/><feOffset dx=".05" dy="-.05"/><feGaussianBlur stdDeviation=".075"/><feComposite in2="hardAlpha" k2="-1" k3="1" operator="arithmetic"/><feColorMatrix type="matrix" values="0 0 0 0 0.784314 0 0 0 0 0.462745 0 0 0 0 0.321569 0 0 0 1 0"/><feBlend in2="shape" mode="normal" result="effect2_innerShadow_18_16545"/></filter><filter id="g" color-interpolation-filters="sRGB" filterUnits="userSpaceOnUse" height="1.566" width="1.566" x="15.65" y="17.884"><feFlood flood-opacity="0" result="BackgroundImageFix"/><feColorMatrix in="SourceAlpha" result="hardAlpha" type="matrix" values="0 0 0 0 0 0 0 0 0 0 0 0 0 0 0 0 0 0 127 0"/><feOffset dx="-.1" dy=".1"/><feGaussianBlur stdDeviation=".125"/><feComposite in2="hardAlpha" operator="out"/><feColorMatrix type="matrix" values="0 0 0 0 0.631373 0 0 0 0 0.396078 0 0 0 0 0.388235 0 0 0 1 0"/><feBlend in2="BackgroundImageFix" mode="normal" result="effect1_dropShadow_18_16545"/><feBlend in="SourceGraphic" in2="effect1_dropShadow_18_16545" mode="normal" result="shape"/></filter><filter id="h" color-interpolation-filters="sRGB" filterUnits="userSpaceOnUse" height="1.566" width="1.566" x="15.65" y="20.868"><feFlood flood-opacity="0" result="BackgroundImageFix"/><feColorMatrix in="SourceAlpha" result="hardAlpha" type="matrix" values="0 0 0 0 0 0 0 0 0 0 0 0 0 0 0 0 0 0 127 0"/><feOffset dx="-.1" dy=".1"/><feGaussianBlur stdDeviation=".125"/><feComposite in2="hardAlpha" operator="out"/><feColorMatrix type="matrix" values="0 0 0 0 0.631373 0 0 0 0 0.396078 0 0 0 0 0.388235 0 0 0 1 0"/><feBlend in2="BackgroundImageFix" mode="normal" result="effect1_dropShadow_18_16545"/><feBlend in="SourceGraphic" in2="effect1_dropShadow_18_16545" mode="normal" result="shape"/></filter><filter id="i" color-interpolation-filters="sRGB" filterUnits="userSpaceOnUse" height="1.566" width="1.566" x="15.65" y="23.852"><feFlood flood-opacity="0" result="BackgroundImageFix"/><feColorMatrix in="SourceAlpha" result="hardAlpha" type="matrix" values="0 0 0 0 0 0 0 0 0 0 0 0 0 0 0 0 0 0 127 0"/><feOffset dx="-.1" dy=".1"/><feGaussianBlur stdDeviation=".125"/><feComposite in2="hardAlpha" operator="out"/><feColorMatrix type="matrix" values="0 0 0 0 0.631373 0 0 0 0 0.396078 0 0 0 0 0.388235 0 0 0 1 0"/><feBlend in2="BackgroundImageFix" mode="normal" result="effect1_dropShadow_18_16545"/><feBlend in="SourceGraphic" in2="effect1_dropShadow_18_16545" mode="normal" result="shape"/></filter><filter id="j" color-interpolation-filters="sRGB" filterUnits="userSpaceOnUse" height="9.518" width="6.967" x="9.649" y="6.181"><feFlood flood-opacity="0" result="BackgroundImageFix"/><feBlend in="SourceGraphic" in2="BackgroundImageFix" mode="normal" result="shape"/><feColorMatrix in="SourceAlpha" result="hardAlpha" type="matrix" values="0 0 0 0 0 0 0 0 0 0 0 0 0 0 0 0 0 0 127 0"/><feOffset dx=".4" dy="-.4"/><feGaussianBlur stdDeviation=".375"/><feComposite in2="hardAlpha" k2="-1" k3="1" operator="arithmetic"/><feColorMatrix type="matrix" values="0 0 0 0 0.654902 0 0 0 0 0.368627 0 0 0 0 0.258824 0 0 0 1 0"/><feBlend in2="shape" mode="normal" result="effect1_innerShadow_18_16545"/></filter><filter id="k" color-interpolation-filters="sRGB" filterUnits="userSpaceOnUse" height="10.027" width="6.813" x="14.946" y="7.06"><feFlood flood-opacity="0" result="BackgroundImageFix"/><feBlend in="SourceGraphic" in2="BackgroundImageFix" mode="normal" result="shape"/><feGaussianBlur result="effect1_foregroundBlur_18_16545" stdDeviation=".1"/></filter><filter id="l" color-interpolation-filters="sRGB" filterUnits="userSpaceOnUse" height="7.619" width="5.357" x="11.452" y="6.598"><feFlood flood-opacity="0" result="BackgroundImageFix"/><feBlend in="SourceGraphic" in2="BackgroundImageFix" mode="normal" result="shape"/><feGaussianBlur result="effect1_foregroundBlur_18_16545" stdDeviation=".25"/></filter><filter id="m" color-interpolation-filters="sRGB" filterUnits="userSpaceOnUse" height="4.642" width="3.353" x="13.931" y="11.615"><feFlood flood-opacity="0" result="BackgroundImageFix"/><feBlend in="SourceGraphic" in2="BackgroundImageFix" mode="normal" result="shape"/><feGaussianBlur result="effect1_foregroundBlur_18_16545" stdDeviation=".1"/></filter><filter id="n" color-interpolation-filters="sRGB" filterUnits="userSpaceOnUse" height="11.496" width="7.708" x="14.221" y="6.581"><feFlood flood-opacity="0" result="BackgroundImageFix"/><feBlend in="SourceGraphic" in2="BackgroundImageFix" mode="normal" result="shape"/><feColorMatrix in="SourceAlpha" result="hardAlpha" type="matrix" values="0 0 0 0 0 0 0 0 0 0 0 0 0 0 0 0 0 0 127 0"/><feOffset dx=".15" dy=".15"/><feGaussianBlur stdDeviation=".325"/><feComposite in2="hardAlpha" k2="-1" k3="1" operator="arithmetic"/><feColorMatrix type="matrix" values="0 0 0 0 0.607843 0 0 0 0 0.427451 0 0 0 0 0.203922 0 0 0 1 0"/><feBlend in2="shape" mode="normal" result="effect1_innerShadow_18_16545"/></filter><filter id="o" color-interpolation-filters="sRGB" filterUnits="userSpaceOnUse" height="3.519" width="1.941" x="20.277" y="6.635"><feFlood flood-opacity="0" result="BackgroundImageFix"/><feBlend in="SourceGraphic" in2="BackgroundImageFix" mode="normal" result="shape"/><feGaussianBlur result="effect1_foregroundBlur_18_16545" stdDeviation=".25"/></filter><filter id="p" color-interpolation-filters="sRGB" filterUnits="userSpaceOnUse" height="2.234" width="2.235" x="19.364" y="9.945"><feFlood flood-opacity="0" result="BackgroundImageFix"/><feBlend in="SourceGraphic" in2="BackgroundImageFix" mode="normal" result="shape"/><feGaussianBlur result="effect1_foregroundBlur_18_16545" stdDeviation=".25"/></filter><linearGradient id="q" gradientUnits="userSpaceOnUse" x1="7.652" x2="3.496" y1="21.065" y2="19.159"><stop offset="0" stop-color="#f4b488"/><stop offset="1" stop-color="#ebb884"/></linearGradient><linearGradient id="r" gradientUnits="userSpaceOnUse" x1="7.652" x2="5.965" y1="20.768" y2="19.909"><stop offset="0" stop-color="#cf8869"/><stop offset="1" stop-color="#f0ac7f" stop-opacity="0"/></linearGradient><linearGradient id="s" gradientUnits="userSpaceOnUse" x1="4.481" x2="5.231" y1="16.479" y2="16.877"><stop offset="0" stop-color="#998059"/><stop offset="1" stop-color="#c09d6b" stop-opacity="0"/></linearGradient><linearGradient id="t" gradientUnits="userSpaceOnUse" x1="8.582" x2="7.215" y1="19.229" y2="19.159"><stop offset=".322" stop-color="#995741"/><stop offset="1" stop-color="#b77157" stop-opacity="0"/></linearGradient><linearGradient id="u" gradientUnits="userSpaceOnUse" x1="3.871" x2="3.977" y1="22.991" y2="22.788"><stop offset="0" stop-color="#c46a86"/><stop offset="1" stop-color="#c46a86" stop-opacity="0"/></linearGradient><linearGradient id="v" gradientUnits="userSpaceOnUse" x1="28.992" x2="25.097" y1="19.653" y2="21.799"><stop offset="0" stop-color="#fbc894"/><stop offset="1" stop-color="#e1a37f"/></linearGradient><linearGradient id="w" gradientUnits="userSpaceOnUse" x1="29.307" x2="28.242" y1="19.758" y2="20.319"><stop offset="0" stop-color="#ffe8a4"/><stop offset="1" stop-color="#ffd39a" stop-opacity="0"/></linearGradient><linearGradient id="x" gradientUnits="userSpaceOnUse" x1="25.158" x2="26.812" y1="22.253" y2="21.44"><stop offset="0" stop-color="#ac6462"/><stop offset="1" stop-color="#d28d70" stop-opacity="0"/></linearGradient><linearGradient id="y" gradientUnits="userSpaceOnUse" x1="28.551" x2="28.371" y1="23.049" y2="22.69"><stop offset="0" stop-color="#bf6282"/><stop offset="1" stop-color="#bf6282" stop-opacity="0"/></linearGradient><linearGradient id="z" gradientUnits="userSpaceOnUse" x1="22.918" x2="24.634" y1="16.814" y2="16.682"><stop offset=".243" stop-color="#c88755"/><stop offset="1" stop-color="#c88755" stop-opacity="0"/></linearGradient><linearGradient id="A" gradientUnits="userSpaceOnUse" x1="14.371" x2="13.68" y1="29.94" y2="29.94"><stop offset=".407" stop-color="#976457"/><stop offset="1" stop-color="#d9a088" stop-opacity="0"/></linearGradient><linearGradient id="B"><stop offset=".133" stop-color="#ebae97" stop-opacity="0"/><stop offset=".775" stop-color="#d68893"/></linearGradient><linearGradient id="C" gradientUnits="userSpaceOnUse" x1="12.54" x2="12.54" xlink:href="#B" y1="29.55" y2="30.018"/><linearGradient id="D" gradientUnits="userSpaceOnUse" x1="14.09" x2="14.949" y1="26.377" y2="26.377"><stop offset="0" stop-color="#b4895e"/><stop offset="1" stop-color="#f1c68f" stop-opacity="0"/></linearGradient><linearGradient id="E" gradientUnits="userSpaceOnUse" x1="19.114" x2="19.114" xlink:href="#B" y1="29.549" y2="30.018"/><radialGradient id="F" cx="0" cy="0" gradientTransform="matrix(-3.99997371 3.30471749 -4.53353299 -5.48731105 18.7773 6.81494)" gradientUnits="userSpaceOnUse" r="1"><stop offset="0" stop-color="#8b504a"/><stop offset="1" stop-color="#87443f"/></radialGradient><linearGradient id="G" gradientUnits="userSpaceOnUse" x1="15.745" x2="15.745" y1="6.643" y2="7.19"><stop offset="0" stop-color="#79402d"/><stop offset="1" stop-color="#79402d" stop-opacity="0"/></linearGradient><linearGradient id="H" gradientUnits="userSpaceOnUse" x1="13.621" x2="15.324" y1="11.127" y2="9.987"><stop offset=".182" stop-color="#512820"/><stop offset="1" stop-color="#894741" stop-opacity="0"/></linearGradient><linearGradient id="I"><stop offset="0" stop-color="#eba962"/><stop offset="1" stop-color="#d78761"/></linearGradient><linearGradient id="J" gradientUnits="userSpaceOnUse" x1="10.501" x2="11.082" xlink:href="#I" y1="23.152" y2="24.325"/><linearGradient id="K"><stop offset="0" stop-color="#f4b750"/><stop offset="1" stop-color="#f4b750" stop-opacity="0"/></linearGradient><linearGradient id="L" gradientUnits="userSpaceOnUse" x1="10.47" x2="10.798" xlink:href="#K" y1="22.987" y2="23.502"/><radialGradient id="M" cx="0" cy="0" gradientTransform="matrix(-.15499844 1.12500266 -.57900047 -.07977241 13.0885 21.9868)" gradientUnits="userSpaceOnUse" r="1"><stop offset="0" stop-color="#f5bb74"/><stop offset="1" stop-color="#f5bb74" stop-opacity="0"/></radialGradient><linearGradient id="N" gradientUnits="userSpaceOnUse" x1="21.465" x2="20.883" xlink:href="#I" y1="23.152" y2="24.325"/><linearGradient id="O" gradientUnits="userSpaceOnUse" x1="21.496" x2="21.168" xlink:href="#K" y1="22.987" y2="23.502"/><linearGradient id="P"><stop offset="0" stop-color="#b27a6f"/><stop offset=".724" stop-color="#975236"/></linearGradient><radialGradient id="Q" cx="0" cy="0" gradientTransform="matrix(-.36719031 .30468492 -.27772848 -.33470382 16.7305 18.4087)" gradientUnits="userSpaceOnUse" r="1" xlink:href="#P"/><linearGradient id="R"><stop offset=".401" stop-color="#7e4436" stop-opacity="0"/><stop offset=".893" stop-color="#7e4436"/></linearGradient><radialGradient id="S" cx="0" cy="0" gradientTransform="matrix(-.55469025 .5781226 -.61946042 -.59435257 16.7617 18.4165)" gradientUnits="userSpaceOnUse" r="1" xlink:href="#R"/><linearGradient id="T"><stop offset="0" stop-color="#8f4157"/><stop offset="1" stop-color="#8f4157" stop-opacity="0"/></linearGradient><radialGradient id="U" cx="0" cy="0" gradientTransform="matrix(0 .375 -.375 0 16.5332 18.8931)" gradientUnits="userSpaceOnUse" r="1" xlink:href="#T"/><radialGradient id="V" cx="0" cy="0" gradientTransform="matrix(-.36719031 .30468492 -.27772848 -.33470382 16.7305 21.3931)" gradientUnits="userSpaceOnUse" r="1" xlink:href="#P"/><radialGradient id="W" cx="0" cy="0" gradientTransform="matrix(-.55469025 .5781226 -.61946042 -.59435257 16.7617 21.4009)" gradientUnits="userSpaceOnUse" r="1" xlink:href="#R"/><radialGradient id="X" cx="0" cy="0" gradientTransform="matrix(0 .375 -.375 0 16.5332 21.8774)" gradientUnits="userSpaceOnUse" r="1" xlink:href="#T"/><radialGradient id="Y" cx="0" cy="0" gradientTransform="matrix(-.36719031 .30468492 -.27772848 -.33470382 16.7305 24.3774)" gradientUnits="userSpaceOnUse" r="1" xlink:href="#P"/><radialGradient id="Z" cx="0" cy="0" gradientTransform="matrix(-.55469025 .5781226 -.61946042 -.59435257 16.7617 24.3853)" gradientUnits="userSpaceOnUse" r="1" xlink:href="#R"/><radialGradient id="aa" cx="0" cy="0" gradientTransform="matrix(0 .375 -.375 0 16.5332 24.8618)" gradientUnits="userSpaceOnUse" r="1" xlink:href="#T"/><linearGradient id="ab" gradientUnits="userSpaceOnUse" x1="18.34" x2="17.699" y1="14.487" y2="13.862"><stop offset=".05" stop-color="#db9352"/><stop offset="1" stop-color="#db9352" stop-opacity="0"/></linearGradient><path d="m8.64075 8.56104 4.29165 1.87866-6.72399 13.1645c-.1256.2459-.42679.3434-.67271.2178l-3.32016-1.6958c-.24592-.1256-.34345-.4268-.21784-.6727z" fill="url(#q)"/><path d="m8.64075 8.56104 4.29165 1.87866-6.72399 13.1645c-.1256.2459-.42679.3434-.67271.2178l-3.32016-1.6958c-.24592-.1256-.34345-.4268-.21784-.6727z" fill="url(#r)"/><path d="m8.64075 8.56104 4.29165 1.87866-6.72399 13.1645c-.1256.2459-.42679.3434-.67271.2178l-3.32016-1.6958c-.24592-.1256-.34345-.4268-.21784-.6727z" fill="url(#s)"/><path d="m8.64075 8.56104 4.29165 1.87866-6.72399 13.1645c-.1256.2459-.42679.3434-.67271.2178l-3.32016-1.6958c-.24592-.1256-.34345-.4268-.21784-.6727z" fill="url(#t)"/><path d="m8.64075 8.56104 4.29165 1.87866-6.72399 13.1645c-.1256.2459-.42679.3434-.67271.2178l-3.32016-1.6958c-.24592-.1256-.34345-.4268-.21784-.6727z" fill="url(#u)"/><path d="m23.6923 8.604-4.3815 1.8357 6.724 13.1645c.1256.2459.4267.3434.6727.2178l3.3201-1.6958c.2459-.1256.3435-.4268.2179-.6727z" fill="url(#v)"/><path d="m23.6923 8.604-4.3815 1.8357 6.724 13.1645c.1256.2459.4267.3434.6727.2178l3.3201-1.6958c.2459-.1256.3435-.4268.2179-.6727z" fill="url(#w)"/><path d="m23.6923 8.604-4.3815 1.8357 6.724 13.1645c.1256.2459.4267.3434.6727.2178l3.3201-1.6958c.2459-.1256.3435-.4268.2179-.6727z" fill="url(#x)"/><path d="m23.6923 8.604-4.3815 1.8357 6.724 13.1645c.1256.2459.4267.3434.6727.2178l3.3201-1.6958c.2459-.1256.3435-.4268.2179-.6727z" fill="url(#y)"/><path d="m23.6923 8.604-4.3815 1.8357 6.724 13.1645c.1256.2459.4267.3434.6727.2178l3.3201-1.6958c.2459-.1256.3435-.4268.2179-.6727z" fill="url(#z)"/><g filter="url(#a)"><path d="m8.25879 10.1337c0-1.92782 1.567-3.49063 3.50001-3.49063h5.0625v23.29683h-8.06251c-.27614 0-.5-.2232-.5-.4986z" fill="#eec38d"/><path d="m8.25879 10.1337c0-1.92782 1.567-3.49063 3.50001-3.49063h5.0625v23.29683h-8.06251c-.27614 0-.5-.2232-.5-.4986z" fill="url(#A)"/></g><g filter="url(#b)"><path d="m8.25879 10.1337c0-1.92782 1.567-3.49063 3.50001-3.49063h5.0625v23.29683h-8.06251c-.27614 0-.5-.2232-.5-.4986z" fill="#eec38d"/><path d="m8.25879 10.1337c0-1.92782 1.567-3.49063 3.50001-3.49063h5.0625v23.29683h-8.06251c-.27614 0-.5-.2232-.5-.4986z" fill="url(#C)"/><path d="m8.25879 10.1337c0-1.92782 1.567-3.49063 3.50001-3.49063h5.0625v23.29683h-8.06251c-.27614 0-.5-.2232-.5-.4986z" fill="url(#A)"/></g><g filter="url(#c)"><path d="m24.0076 10.0806c0-1.93303-1.567-3.50003-3.5-3.50003h-1.1299l-4.8135 7.12553c-.2234.3306-.3428.7205-.3428 1.1195v14.6143c0 .2762.2239.5.5.5h8.7862c.2761 0 .5-.2238.5-.5z" fill="#f0c58e"/><path d="m24.0076 10.0806c0-1.93303-1.567-3.50003-3.5-3.50003h-1.1299l-4.8135 7.12553c-.2234.3306-.3428.7205-.3428 1.1195v14.6143c0 .2762.2239.5.5.5h8.7862c.2761 0 .5-.2238.5-.5z" fill="url(#D)"/></g><path d="m24.0076 10.0806c0-1.93303-1.567-3.50003-3.5-3.50003h-1.1299l-4.8135 7.12553c-.2234.3306-.3428.7205-.3428 1.1195v14.6143c0 .2762.2239.5.5.5h8.7862c.2761 0 .5-.2238.5-.5z" fill="url(#E)"/><path d="m11.6836 6.64307 4.3682 6.95313 3.7555-6.95313z" fill="url(#F)"/><path d="m11.6836 6.64307 4.3682 6.95313 3.7555-6.95313z" fill="url(#G)"/><path d="m11.6836 6.64307 4.3682 6.95313 3.7555-6.95313z" fill="url(#H)"/><g filter="url(#d)"><path d="m20.4107 7.39447c-.2896-.27441-.6796-.4389-1.1009-.4389h-.2814c-.2733 0-.5278.13952-.6746.37005l-3.3794 5.30278h2.2123z" fill="#5e3131"/></g><g filter="url(#e)"><path d="m9.10843 24.3671c-.06266-.1023-.03053-.236.07177-.2987l3.4763-2.1294c.1022-.0627.236-.0305.2986.0718.2611.4262.1272.9834-.299 1.2445l-2.3032 1.4108c-.4262.2611-.98338.1272-1.24447-.299z" fill="url(#J)"/><path d="m9.10843 24.3671c-.06266-.1023-.03053-.236.07177-.2987l3.4763-2.1294c.1022-.0627.236-.0305.2986.0718.2611.4262.1272.9834-.299 1.2445l-2.3032 1.4108c-.4262.2611-.98338.1272-1.24447-.299z" fill="url(#L)"/><path d="m9.10843 24.3671c-.06266-.1023-.03053-.236.07177-.2987l3.4763-2.1294c.1022-.0627.236-.0305.2986.0718.2611.4262.1272.9834-.299 1.2445l-2.3032 1.4108c-.4262.2611-.98338.1272-1.24447-.299z" fill="url(#M)"/></g><g filter="url(#f)"><path d="m22.8574 24.3671c.0626-.1023.0305-.236-.0718-.2987l-3.4762-2.1294c-.1023-.0627-.2361-.0305-.2987.0718-.2611.4262-.1272.9834.299 1.2445l2.3032 1.4108c.4262.2611.9834.1272 1.2445-.299z" fill="url(#N)"/><path d="m22.8574 24.3671c.0626-.1023.0305-.236-.0718-.2987l-3.4762-2.1294c-.1023-.0627-.2361-.0305-.2987.0718-.2611.4262-.1272.9834.299 1.2445l2.3032 1.4108c.4262.2611.9834.1272 1.2445-.299z" fill="url(#O)"/></g><g filter="url(#g)"><circle cx="16.533" cy="18.567" fill="url(#Q)" r=".533"/><circle cx="16.533" cy="18.567" fill="url(#S)" r=".533"/><circle cx="16.533" cy="18.567" fill="url(#U)" r=".533"/></g><g filter="url(#h)"><circle cx="16.533" cy="21.551" fill="url(#V)" r=".533"/><circle cx="16.533" cy="21.551" fill="url(#W)" r=".533"/><circle cx="16.533" cy="21.551" fill="url(#X)" r=".533"/></g><g filter="url(#i)"><circle cx="16.533" cy="24.536" fill="url(#Y)" r=".533"/><circle cx="16.533" cy="24.536" fill="url(#Z)" r=".533"/><circle cx="16.533" cy="24.536" fill="url(#aa)" r=".533"/></g><g filter="url(#j)"><path d="m14.3895 15.6989 1.8263-2.9733-3.6803-5.77498c-.1469-.23053-.4013-.37005-.6747-.37005h-.2813c-.7411 0-1.3852.50891-1.5566 1.22985l-.3534 1.48609c-.10209.42932.18673.85349.6236.91599l.5311.0758c.1648.0235.2304.2264.1106.3419l-.6345.6119c-.2077.2003-.2033.5344.0098.729z" fill="#be794b"/></g><g filter="url(#k)"><path d="m15.1464 14.3088.0003 2.3684c.0022.1832.2199.2777.3552.1541l5.4963-4.9971c.1807-.1652.1845-.4486.0083-.6186l-.5384-.5191c-.1017-.0981-.046-.2702.0938-.2902l.4507-.0644c.3707-.0529.6157-.41288.5291-.77716l-.2998-1.26092c-.1455-.61176-.692-1.04357-1.3208-1.04357h-.2388c-.2319 0-.4478.11842-.5724.314l-3.6978 5.80235c-.1773.2783-.2697.6022-.2657.9322z" fill="#b37559"/></g><g filter="url(#l)"><path d="m11.9886 7.45961c-.0695-.11006-.0367-.25566.0734-.32522.11-.06955.2556-.03672.3252.07334l3.8854 6.14787c.0696.1101.0368.2557-.0733.3253-.1101.0695-.2557.0367-.3252-.0734z" fill="#d69969"/></g><g filter="url(#m)"><path d="m14.4587 13.7329 1.2405-1.918 1.3845 1.8243-2.3281 2.4179-.625-.5937v-.6289c0-.5813.2188-.9766.3281-1.1016z" fill="#824135"/></g><g filter="url(#n)"><path d="m14.2216 14.8875.0004 2.7913c.0025.2159.2592.3272.4186.1815l6.4776-5.8892c.213-.1946.2175-.5287.0098-.729l-.6345-.6118c-.1199-.1156-.0543-.3184.1105-.342l.5311-.0759c.4369-.0624.7257-.4866.6236-.91592l-.3533-1.48604c-.1715-.72097-.8156-1.22987-1.5566-1.22987h-.2814c-.2734 0-.5278.13955-.6747.37005l-4.3579 6.83828c-.209.3279-.3178.7097-.3132 1.0986z" fill="#dd9d61"/><path d="m14.2216 14.8875.0004 2.7913c.0025.2159.2592.3272.4186.1815l6.4776-5.8892c.213-.1946.2175-.5287.0098-.729l-.6345-.6118c-.1199-.1156-.0543-.3184.1105-.342l.5311-.0759c.4369-.0624.7257-.4866.6236-.91592l-.3533-1.48604c-.1715-.72097-.8156-1.22987-1.5566-1.22987h-.2814c-.2734 0-.5278.13955-.6747.37005l-4.3579 6.83828c-.209.3279-.3178.7097-.3132 1.0986z" fill="url(#ab)"/></g><g filter="url(#o)"><path d="m21.3398 7.65869c-.1125-.33125-.4218-.48698-.5625-.52344l.2039 2.1835c.0205.21903.2265.37185.4421.32786.1999-.0408.329-.23565.2869-.43529-.1148-.54362-.2805-1.28798-.3704-1.55263z" fill="#f0b574"/></g><g filter="url(#p)"><rect fill="#f0b574" height=".536" rx=".268" transform="matrix(.70761506 .70659814 -.70659814 .70761506 13.187862 -11.203321)" width="1.523" x="20.131" y="10.334"/></g></svg>