<svg fill="none" height="32" viewBox="0 0 32 32" width="32" xmlns="http://www.w3.org/2000/svg" xmlns:xlink="http://www.w3.org/1999/xlink"><filter id="a" color-interpolation-filters="sRGB" filterUnits="userSpaceOnUse" height="2.428" width="2.428" x="2.906" y="4.85"><feFlood flood-opacity="0" result="BackgroundImageFix"/><feBlend in="SourceGraphic" in2="BackgroundImageFix" mode="normal" result="shape"/><feColorMatrix in="SourceAlpha" result="hardAlpha" type="matrix" values="0 0 0 0 0 0 0 0 0 0 0 0 0 0 0 0 0 0 127 0"/><feOffset dx=".1" dy="-.1"/><feGaussianBlur stdDeviation=".4"/><feComposite in2="hardAlpha" k2="-1" k3="1" operator="arithmetic"/><feColorMatrix type="matrix" values="0 0 0 0 0.85098 0 0 0 0 0.737255 0 0 0 0 0.92549 0 0 0 1 0"/><feBlend in2="shape" mode="normal" result="effect1_innerShadow_18_26261"/></filter><filter id="b" color-interpolation-filters="sRGB" filterUnits="userSpaceOnUse" height="27.839" width="28.139" x="2.081" y="2.211"><feFlood flood-opacity="0" result="BackgroundImageFix"/><feBlend in="SourceGraphic" in2="BackgroundImageFix" mode="normal" result="shape"/><feColorMatrix in="SourceAlpha" result="hardAlpha" type="matrix" values="0 0 0 0 0 0 0 0 0 0 0 0 0 0 0 0 0 0 127 0"/><feOffset dx=".3"/><feGaussianBlur stdDeviation=".5"/><feComposite in2="hardAlpha" k2="-1" k3="1" operator="arithmetic"/><feColorMatrix type="matrix" values="0 0 0 0 0.94902 0 0 0 0 0.564706 0 0 0 0 0.811765 0 0 0 1 0"/><feBlend in2="shape" mode="normal" result="effect1_innerShadow_18_26261"/></filter><filter id="c" color-interpolation-filters="sRGB" filterUnits="userSpaceOnUse" height="22.749" width="22.749" x="4.625" y="4.755"><feFlood flood-opacity="0" result="BackgroundImageFix"/><feBlend in="SourceGraphic" in2="BackgroundImageFix" mode="normal" result="shape"/><feGaussianBlur result="effect1_foregroundBlur_18_26261" stdDeviation=".375"/></filter><filter id="d" color-interpolation-filters="sRGB" filterUnits="userSpaceOnUse" height="6.537" width="6.537" x="2.117" y="10.335"><feFlood flood-opacity="0" result="BackgroundImageFix"/><feBlend in="SourceGraphic" in2="BackgroundImageFix" mode="normal" result="shape"/><feColorMatrix in="SourceAlpha" result="hardAlpha" type="matrix" values="0 0 0 0 0 0 0 0 0 0 0 0 0 0 0 0 0 0 127 0"/><feOffset dx=".1" dy="-.1"/><feGaussianBlur stdDeviation=".4"/><feComposite in2="hardAlpha" k2="-1" k3="1" operator="arithmetic"/><feColorMatrix type="matrix" values="0 0 0 0 0.909804 0 0 0 0 0.843137 0 0 0 0 0.980392 0 0 0 1 0"/><feBlend in2="shape" mode="normal" result="effect1_innerShadow_18_26261"/></filter><filter id="e" color-interpolation-filters="sRGB" filterUnits="userSpaceOnUse" height="21.989" width="12.487" x="14.637" y="5.005"><feFlood flood-opacity="0" result="BackgroundImageFix"/><feBlend in="SourceGraphic" in2="BackgroundImageFix" mode="normal" result="shape"/><feGaussianBlur result="effect1_foregroundBlur_18_26261" stdDeviation=".375"/></filter><filter id="f" color-interpolation-filters="sRGB" filterUnits="userSpaceOnUse" height="9.459" width="9.759" x="20.555" y="17.639"><feFlood flood-opacity="0" result="BackgroundImageFix"/><feBlend in="SourceGraphic" in2="BackgroundImageFix" mode="normal" result="shape"/><feColorMatrix in="SourceAlpha" result="hardAlpha" type="matrix" values="0 0 0 0 0 0 0 0 0 0 0 0 0 0 0 0 0 0 127 0"/><feOffset dx=".4" dy="-.1"/><feGaussianBlur stdDeviation=".5"/><feComposite in2="hardAlpha" k2="-1" k3="1" operator="arithmetic"/><feColorMatrix type="matrix" values="0 0 0 0 0.792157 0 0 0 0 0.54902 0 0 0 0 0.894118 0 0 0 1 0"/><feBlend in2="shape" mode="normal" result="effect1_innerShadow_18_26261"/></filter><radialGradient id="g" cx="0" cy="0" gradientTransform="matrix(4.16988347 -.59187858 .59187858 4.16988347 5.33594 9.96588)" gradientUnits="userSpaceOnUse" r="1"><stop offset="0" stop-color="#cec4d1"/><stop offset="1" stop-color="#c8c1c9"/></radialGradient><radialGradient id="h" cx="0" cy="0" gradientTransform="matrix(-3.13998 0 0 -3.13998 8.47592 9.96588)" gradientUnits="userSpaceOnUse" r="1"><stop offset=".529" stop-color="#cec5d1" stop-opacity="0"/><stop offset="1" stop-color="#e4dfe8"/></radialGradient><radialGradient id="i" cx="0" cy="0" gradientTransform="matrix(-1.87962974 .39472981 -.37356731 -1.77885787 4.78588 5.83)" gradientUnits="userSpaceOnUse" r="1"><stop offset=".135" stop-color="#ffedff"/><stop offset=".911" stop-color="#dbcbea"/></radialGradient><linearGradient id="j"><stop offset=".818" stop-color="#dad4e0" stop-opacity="0"/><stop offset="1" stop-color="#dad4e0"/></linearGradient><radialGradient id="k" cx="0" cy="0" gradientTransform="matrix(-.33642711 -1.83919338 1.83919338 -.33642711 4.30477 6.78945)" gradientUnits="userSpaceOnUse" r="1" xlink:href="#j"/><linearGradient id="l" gradientUnits="userSpaceOnUse" x1="26.867" x2="7.43" y1="7.81" y2="25.685"><stop offset="0" stop-color="#ffabbd"/><stop offset="1" stop-color="#f756e5"/></linearGradient><radialGradient id="m" cx="0" cy="0" gradientTransform="matrix(-6.67253016 -17.35627291 23.88119806 -9.1810042 23.2897 17.7284)" gradientUnits="userSpaceOnUse" r="1"><stop offset=".713" stop-color="#e082a1" stop-opacity="0"/><stop offset=".965" stop-color="#e1959a"/></radialGradient><radialGradient id="n" cx="0" cy="0" gradientTransform="matrix(7.68747335 -7.99997247 5.66568276 5.44436689 6.36719 12.8721)" gradientUnits="userSpaceOnUse" r="1"><stop offset="0" stop-color="#e775ab"/><stop offset="1" stop-color="#e775ab" stop-opacity="0"/></radialGradient><radialGradient id="o" cx="0" cy="0" gradientTransform="matrix(-1.25001674 2.24999352 -1.67966928 -.93316479 4.42969 16.4971)" gradientUnits="userSpaceOnUse" r="1"><stop offset="0" stop-color="#e551c0"/><stop offset="1" stop-color="#e551c0" stop-opacity="0"/></radialGradient><radialGradient id="p" cx="0" cy="0" gradientTransform="matrix(-6.00000845 2.37496574 -2.52498024 -6.37899844 21.6797 24.3096)" gradientUnits="userSpaceOnUse" r="1"><stop offset=".187" stop-color="#d24bb4"/><stop offset="1" stop-color="#d24bb4" stop-opacity="0"/></radialGradient><radialGradient id="q" cx="0" cy="0" gradientTransform="matrix(-1.250045 -5.3124916 4.9148612 -1.15648139 27.9922 19.8721)" gradientUnits="userSpaceOnUse" r="1"><stop offset=".329" stop-color="#e588a9"/><stop offset="1" stop-color="#e588a9" stop-opacity="0"/></radialGradient><radialGradient id="r" cx="0" cy="0" gradientTransform="matrix(4.67724125 -.37499912 .51136142 6.37804356 25.2422 11.3096)" gradientUnits="userSpaceOnUse" r="1"><stop offset="0" stop-color="#ffa7c0"/><stop offset="1" stop-color="#ffa7c0" stop-opacity="0"/></radialGradient><linearGradient id="s" gradientUnits="userSpaceOnUse" x1="24.752" x2="24.752" y1="4.513" y2="23.096"><stop offset="0" stop-color="#ee7bbe"/><stop offset="1" stop-color="#ff7be6"/></linearGradient><linearGradient id="t" gradientUnits="userSpaceOnUse" x1="25.57" x2="25.526" y1="23.803" y2="19.517"><stop offset=".178" stop-color="#ff83e6"/><stop offset="1" stop-color="#ff83e6" stop-opacity="0"/></linearGradient><linearGradient id="u" gradientUnits="userSpaceOnUse" x1="15.947" x2="20.269" y1="13.324" y2="13.512"><stop offset=".493" stop-color="#f89bb9"/><stop offset="1" stop-color="#f89bb9" stop-opacity="0"/></linearGradient><radialGradient id="v" cx="0" cy="0" gradientTransform="matrix(-4.36537724 .63123825 -.59739355 -4.13132157 6.48257 13.3275)" gradientUnits="userSpaceOnUse" r="1"><stop offset=".135" stop-color="#ffedff"/><stop offset="1" stop-color="#ecaeff"/></radialGradient><linearGradient id="w"><stop offset=".182" stop-color="#dbb6ff"/><stop offset="1" stop-color="#dbb6ff" stop-opacity="0"/></linearGradient><radialGradient id="x" cx="0" cy="0" gradientTransform="matrix(3.21875443 -1.52823929 2.19501711 4.62311179 2.11719 15.7195)" gradientUnits="userSpaceOnUse" r="1" xlink:href="#w"/><radialGradient id="y" cx="0" cy="0" gradientTransform="matrix(-.93025368 -5.08554857 5.08554857 -.93025368 5.98423 15.5202)" gradientUnits="userSpaceOnUse" r="1" xlink:href="#j"/><linearGradient id="z" gradientUnits="userSpaceOnUse" x1="15.387" x2="24.414" y1="23.81" y2="15.497"><stop offset="0" stop-color="#f068cb"/><stop offset="1" stop-color="#f068cb" stop-opacity="0"/></linearGradient><radialGradient id="A" cx="0" cy="0" gradientTransform="matrix(-2.55892819 2.91430523 -2.22072146 -1.94992161 22.0585 20.5793)" gradientUnits="userSpaceOnUse" r="1"><stop offset=".07" stop-color="#d35f9e"/><stop offset="1" stop-color="#d35f9e" stop-opacity="0"/></radialGradient><radialGradient id="B" cx="0" cy="0" gradientTransform="matrix(-.56864655 -3.41188748 3.41188748 -.56864655 21.3477 28.0428)" gradientUnits="userSpaceOnUse" r="1"><stop offset="0" stop-color="#eda5ff"/><stop offset="1" stop-color="#c28cdd"/></radialGradient><radialGradient id="C" cx="0" cy="0" gradientTransform="matrix(-1.74146787 2.13243752 -2.93670815 -2.39828029 23.7289 25.4839)" gradientUnits="userSpaceOnUse" r="1"><stop offset=".381" stop-color="#d89aff"/><stop offset="1" stop-color="#d89aff" stop-opacity="0"/></radialGradient><radialGradient id="D" cx="0" cy="0" gradientTransform="matrix(-7.83006206 1.7149617 -1.62301192 -7.41024366 28.3847 21.1479)" gradientUnits="userSpaceOnUse" r="1"><stop offset=".218" stop-color="#ffedff"/><stop offset="1" stop-color="#ecaeff"/></radialGradient><radialGradient id="E" cx="0" cy="0" gradientTransform="matrix(4.00097276 -2.2615494 3.24827544 5.74661848 20.5547 25.4229)" gradientUnits="userSpaceOnUse" r="1" xlink:href="#w"/><radialGradient id="F" cx="0" cy="0" gradientTransform="matrix(-1.35247942 -7.39378933 7.39378933 -1.35247942 26.1769 25.1331)" gradientUnits="userSpaceOnUse" r="1" xlink:href="#j"/><radialGradient id="G" cx="0" cy="0" gradientTransform="matrix(-1.16009743 7.76332005 -9.52624542 -1.42353694 26.3945 19.3354)" gradientUnits="userSpaceOnUse" r="1"><stop offset=".681" stop-color="#f3b7ff" stop-opacity="0"/><stop offset="1" stop-color="#e697ff"/></radialGradient><circle cx="7.555" cy="9.966" fill="url(#g)" r="2.219"/><circle cx="7.555" cy="9.966" fill="url(#h)" r="2.219"/><g filter="url(#a)"><circle cx="4.07" cy="6.114" fill="url(#i)" r="1.164"/><circle cx="4.07" cy="6.114" fill="url(#k)" r="1.164"/></g><g filter="url(#b)"><path d="m13.5449 4.08512c2.4993-2.49935 6.5516-2.49936 9.0509 0l5.4491 5.44903c2.4993 2.49935 2.4993 6.55165 0 9.05095l-9.5897 9.5897c-2.4993 2.4993-6.5516 2.4993-9.05096 0l-5.44904-5.449c-2.49935-2.4994-2.49935-6.5517.00001-9.051z" fill="url(#l)"/><path d="m13.5449 4.08512c2.4993-2.49935 6.5516-2.49936 9.0509 0l5.4491 5.44903c2.4993 2.49935 2.4993 6.55165 0 9.05095l-9.5897 9.5897c-2.4993 2.4993-6.5516 2.4993-9.05096 0l-5.44904-5.449c-2.49935-2.4994-2.49935-6.5517.00001-9.051z" fill="url(#m)"/><path d="m13.5449 4.08512c2.4993-2.49935 6.5516-2.49936 9.0509 0l5.4491 5.44903c2.4993 2.49935 2.4993 6.55165 0 9.05095l-9.5897 9.5897c-2.4993 2.4993-6.5516 2.4993-9.05096 0l-5.44904-5.449c-2.49935-2.4994-2.49935-6.5517.00001-9.051z" fill="url(#n)"/><path d="m13.5449 4.08512c2.4993-2.49935 6.5516-2.49936 9.0509 0l5.4491 5.44903c2.4993 2.49935 2.4993 6.55165 0 9.05095l-9.5897 9.5897c-2.4993 2.4993-6.5516 2.4993-9.05096 0l-5.44904-5.449c-2.49935-2.4994-2.49935-6.5517.00001-9.051z" fill="url(#o)"/><path d="m13.5449 4.08512c2.4993-2.49935 6.5516-2.49936 9.0509 0l5.4491 5.44903c2.4993 2.49935 2.4993 6.55165 0 9.05095l-9.5897 9.5897c-2.4993 2.4993-6.5516 2.4993-9.05096 0l-5.44904-5.449c-2.49935-2.4994-2.49935-6.5517.00001-9.051z" fill="url(#p)"/><path d="m13.5449 4.08512c2.4993-2.49935 6.5516-2.49936 9.0509 0l5.4491 5.44903c2.4993 2.49935 2.4993 6.55165 0 9.05095l-9.5897 9.5897c-2.4993 2.4993-6.5516 2.4993-9.05096 0l-5.44904-5.449c-2.49935-2.4994-2.49935-6.5517.00001-9.051z" fill="url(#q)"/><path d="m13.5449 4.08512c2.4993-2.49935 6.5516-2.49936 9.0509 0l5.4491 5.44903c2.4993 2.49935 2.4993 6.55165 0 9.05095l-9.5897 9.5897c-2.4993 2.4993-6.5516 2.4993-9.05096 0l-5.44904-5.449c-2.49935-2.4994-2.49935-6.5517.00001-9.051z" fill="url(#r)"/></g><g filter="url(#c)"><rect fill="url(#s)" height="19.026" rx="3" transform="matrix(.70710678 .70710678 -.70710678 .70710678 8.415017 -11.290129)" width="13.833" x="17.836" y="4.513"/><rect fill="url(#t)" height="19.026" rx="3" transform="matrix(.70710678 .70710678 -.70710678 .70710678 8.415017 -11.290129)" width="13.833" x="17.836" y="4.513"/><rect height="19.276" rx="3.125" stroke="url(#u)" stroke-width=".25" transform="matrix(.70710678 .70710678 -.70710678 .70710678 8.290015 -11.341907)" width="14.083" x="17.836" y="4.336"/></g><g filter="url(#d)"><circle cx="5.336" cy="13.653" fill="url(#v)" r="3.219"/><circle cx="5.336" cy="13.653" fill="url(#x)" r="3.219"/><circle cx="5.336" cy="13.653" fill="url(#y)" r="3.219"/></g><g filter="url(#e)"><path d="m15.3875 26.2446 1.4514-20.31938c1.0547-.37073 2.275-.13445 3.1184.70886l5.5385 5.53862c1.1717 1.1716 1.1717 3.0711 0 4.2426l-9.2104 9.2105c-.2672.2672-.5723.4735-.8979.6188z" fill="url(#z)"/><path d="m15.3875 26.2446 1.4514-20.31938c1.0547-.37073 2.275-.13445 3.1184.70886l5.5385 5.53862c1.1717 1.1716 1.1717 3.0711 0 4.2426l-9.2104 9.2105c-.2672.2672-.5723.4735-.8979.6188z" fill="url(#A)"/></g><circle cx="21.648" cy="26.544" fill="url(#B)" r="2.734"/><circle cx="21.648" cy="26.544" fill="url(#C)" r="2.734"/><g filter="url(#f)"><circle cx="25.234" cy="22.419" fill="url(#D)" r="4.68"/><circle cx="25.234" cy="22.419" fill="url(#E)" r="4.68"/><circle cx="25.234" cy="22.419" fill="url(#F)" r="4.68"/></g><circle cx="25.234" cy="22.419" fill="url(#G)" r="4.68"/></svg>