<svg fill="none" height="32" viewBox="0 0 32 32" width="32" xmlns="http://www.w3.org/2000/svg" xmlns:xlink="http://www.w3.org/1999/xlink"><filter id="a" color-interpolation-filters="sRGB" filterUnits="userSpaceOnUse" height="19.087" width="10.391" x="19.696" y="5.18"><feFlood flood-opacity="0" result="BackgroundImageFix"/><feBlend in="SourceGraphic" in2="BackgroundImageFix" mode="normal" result="shape"/><feColorMatrix in="SourceAlpha" result="hardAlpha" type="matrix" values="0 0 0 0 0 0 0 0 0 0 0 0 0 0 0 0 0 0 127 0"/><feOffset dx=".25"/><feGaussianBlur stdDeviation=".25"/><feComposite in2="hardAlpha" k2="-1" k3="1" operator="arithmetic"/><feColorMatrix type="matrix" values="0 0 0 0 0.976471 0 0 0 0 0.968627 0 0 0 0 0.984314 0 0 0 1 0"/><feBlend in2="shape" mode="normal" result="effect1_innerShadow_18_26187"/><feColorMatrix in="SourceAlpha" result="hardAlpha" type="matrix" values="0 0 0 0 0 0 0 0 0 0 0 0 0 0 0 0 0 0 127 0"/><feOffset dx=".25" dy="-.15"/><feGaussianBlur stdDeviation=".15"/><feComposite in2="hardAlpha" k2="-1" k3="1" operator="arithmetic"/><feColorMatrix type="matrix" values="0 0 0 0 0.878431 0 0 0 0 0.854902 0 0 0 0 0.909804 0 0 0 1 0"/><feBlend in2="effect1_innerShadow_18_26187" mode="normal" result="effect2_innerShadow_18_26187"/></filter><filter id="b" color-interpolation-filters="sRGB" filterUnits="userSpaceOnUse" height="24.844" width="28.072" x="1.914" y="5.002"><feFlood flood-opacity="0" result="BackgroundImageFix"/><feBlend in="SourceGraphic" in2="BackgroundImageFix" mode="normal" result="shape"/><feColorMatrix in="SourceAlpha" result="hardAlpha" type="matrix" values="0 0 0 0 0 0 0 0 0 0 0 0 0 0 0 0 0 0 127 0"/><feOffset dx=".15"/><feGaussianBlur stdDeviation=".25"/><feComposite in2="hardAlpha" k2="-1" k3="1" operator="arithmetic"/><feColorMatrix type="matrix" values="0 0 0 0 0.737255 0 0 0 0 0.72549 0 0 0 0 0.752941 0 0 0 1 0"/><feBlend in2="shape" mode="normal" result="effect1_innerShadow_18_26187"/><feColorMatrix in="SourceAlpha" result="hardAlpha" type="matrix" values="0 0 0 0 0 0 0 0 0 0 0 0 0 0 0 0 0 0 127 0"/><feOffset dx="-.25"/><feGaussianBlur stdDeviation=".125"/><feComposite in2="hardAlpha" k2="-1" k3="1" operator="arithmetic"/><feColorMatrix type="matrix" values="0 0 0 0 0.960784 0 0 0 0 0.956863 0 0 0 0 0.964706 0 0 0 1 0"/><feBlend in2="effect1_innerShadow_18_26187" mode="normal" result="effect2_innerShadow_18_26187"/></filter><linearGradient id="c" gradientUnits="userSpaceOnUse" x1="18.715" x2="18.715" y1="20.127" y2="24.267"><stop offset="0" stop-color="#aa9db9"/><stop offset="1" stop-color="#a385be"/></linearGradient><radialGradient id="d" cx="0" cy="0" gradientTransform="matrix(3.34374477 6.12499984 -2.76481521 1.50936108 22.5393 18.7516)" gradientUnits="userSpaceOnUse" r="1"><stop offset=".398" stop-color="#cfc9d6"/><stop offset=".989" stop-color="#cfc9d6" stop-opacity="0"/></radialGradient><linearGradient id="e" gradientUnits="userSpaceOnUse" x1="24.766" x2="24.766" y1="5.33" y2="24.267"><stop offset="0" stop-color="#f1eff3"/><stop offset="1" stop-color="#f2eff6"/></linearGradient><linearGradient id="f" gradientUnits="userSpaceOnUse" x1="25.883" x2="22.789" y1="15.345" y2="11.345"><stop offset="0" stop-color="#804d3b"/><stop offset=".941" stop-color="#4f2720"/></linearGradient><linearGradient id="g" gradientUnits="userSpaceOnUse" x1="16" x2="16" y1="5.502" y2="29.845"><stop offset=".234" stop-color="#d0d0d1"/><stop offset=".453" stop-color="#c7c3cc"/><stop offset="1" stop-color="#dbd7e0"/></linearGradient><linearGradient id="h" gradientUnits="userSpaceOnUse" x1="10.071" x2="10.071" y1="29.845" y2="28.939"><stop offset="0" stop-color="#c7b9d5"/><stop offset="1" stop-color="#dbd7e0" stop-opacity="0"/></linearGradient><path d="m12.6643 10.7828h12.1016v13.4844h-12.1016z" fill="url(#c)"/><path d="m12.6643 10.7828h12.1016v13.4844h-12.1016z" fill="url(#d)"/><g filter="url(#a)"><ellipse cx="24.766" cy="14.799" fill="url(#e)" rx="5.07" ry="9.469"/></g><ellipse cx="24.93" cy="14.767" fill="url(#f)" rx="2.141" ry="3.984"/><g filter="url(#b)"><path d="m19.6954 28.8453v-14.0468c.0002-5.22947 2.2702-9.46879 5.0705-9.46879 2.7824 0 5.0414 4.18573 5.07 9.36919 0-.0215.0002-.043.0002-.0645 0-5.32007-2.5044-9.63281-5.5938-9.63281h-16.48437c-3.08935 0-5.59375 4.31274-5.59375 9.63281l-.00012.0731.00012.0597v14.0781c0 .5523.44776 1 1 1h15.53122c.5524 0 1-.4477 1-1z" fill="url(#g)"/></g><path d="m19.6954 28.8453v-14.0468c.0002-5.22947 2.2702-9.46879 5.0705-9.46879 2.7824 0 5.0414 4.18573 5.07 9.36919 0-.0215.0002-.043.0002-.0645 0-5.32007-2.5044-9.63281-5.5938-9.63281h-16.48437c-3.08935 0-5.59375 4.31274-5.59375 9.63281l-.00012.0731.00012.0597v14.0781c0 .5523.44776 1 1 1h15.53122c.5524 0 1-.4477 1-1z" fill="url(#h)"/></svg>