<svg fill="none" height="32" viewBox="0 0 32 32" width="32" xmlns="http://www.w3.org/2000/svg" xmlns:xlink="http://www.w3.org/1999/xlink"><filter id="a" color-interpolation-filters="sRGB" filterUnits="userSpaceOnUse" height="15.018" width="15.835" x="8.018" y="15.064"><feFlood flood-opacity="0" result="BackgroundImageFix"/><feBlend in="SourceGraphic" in2="BackgroundImageFix" mode="normal" result="shape"/><feColorMatrix in="SourceAlpha" result="hardAlpha" type="matrix" values="0 0 0 0 0 0 0 0 0 0 0 0 0 0 0 0 0 0 127 0"/><feOffset dx="-.15"/><feGaussianBlur stdDeviation=".1"/><feComposite in2="hardAlpha" k2="-1" k3="1" operator="arithmetic"/><feColorMatrix type="matrix" values="0 0 0 0 0.8 0 0 0 0 0.603922 0 0 0 0 0.458824 0 0 0 1 0"/><feBlend in2="shape" mode="normal" result="effect1_innerShadow_18_26154"/></filter><filter id="b" color-interpolation-filters="sRGB" filterUnits="userSpaceOnUse" height="15.102" width="15.982" x="4.488" y="15.095"><feFlood flood-opacity="0" result="BackgroundImageFix"/><feBlend in="SourceGraphic" in2="BackgroundImageFix" mode="normal" result="shape"/><feColorMatrix in="SourceAlpha" result="hardAlpha" type="matrix" values="0 0 0 0 0 0 0 0 0 0 0 0 0 0 0 0 0 0 127 0"/><feOffset dx="-.15"/><feGaussianBlur stdDeviation=".1"/><feComposite in2="hardAlpha" k2="-1" k3="1" operator="arithmetic"/><feColorMatrix type="matrix" values="0 0 0 0 0.8 0 0 0 0 0.603922 0 0 0 0 0.458824 0 0 0 1 0"/><feBlend in2="shape" mode="normal" result="effect1_innerShadow_18_26154"/></filter><filter id="c" color-interpolation-filters="sRGB" filterUnits="userSpaceOnUse" height="12.428" width="12.806" x="3.865" y="17.769"><feFlood flood-opacity="0" result="BackgroundImageFix"/><feBlend in="SourceGraphic" in2="BackgroundImageFix" mode="normal" result="shape"/><feColorMatrix in="SourceAlpha" result="hardAlpha" type="matrix" values="0 0 0 0 0 0 0 0 0 0 0 0 0 0 0 0 0 0 127 0"/><feOffset dx=".15"/><feGaussianBlur stdDeviation=".1"/><feComposite in2="hardAlpha" k2="-1" k3="1" operator="arithmetic"/><feColorMatrix type="matrix" values="0 0 0 0 0.529412 0 0 0 0 0.337255 0 0 0 0 0.235294 0 0 0 1 0"/><feBlend in2="shape" mode="normal" result="effect1_innerShadow_18_26154"/><feColorMatrix in="SourceAlpha" result="hardAlpha" type="matrix" values="0 0 0 0 0 0 0 0 0 0 0 0 0 0 0 0 0 0 127 0"/><feOffset dx="-.15"/><feGaussianBlur stdDeviation=".1"/><feComposite in2="hardAlpha" k2="-1" k3="1" operator="arithmetic"/><feColorMatrix type="matrix" values="0 0 0 0 0.8 0 0 0 0 0.603922 0 0 0 0 0.458824 0 0 0 1 0"/><feBlend in2="effect1_innerShadow_18_26154" mode="normal" result="effect2_innerShadow_18_26154"/></filter><filter id="d" color-interpolation-filters="sRGB" filterUnits="userSpaceOnUse" height="6.64" width="6.832" x="5.891" y="23.557"><feFlood flood-opacity="0" result="BackgroundImageFix"/><feBlend in="SourceGraphic" in2="BackgroundImageFix" mode="normal" result="shape"/><feColorMatrix in="SourceAlpha" result="hardAlpha" type="matrix" values="0 0 0 0 0 0 0 0 0 0 0 0 0 0 0 0 0 0 127 0"/><feOffset dx=".15"/><feGaussianBlur stdDeviation=".1"/><feComposite in2="hardAlpha" k2="-1" k3="1" operator="arithmetic"/><feColorMatrix type="matrix" values="0 0 0 0 0.529412 0 0 0 0 0.337255 0 0 0 0 0.235294 0 0 0 1 0"/><feBlend in2="shape" mode="normal" result="effect1_innerShadow_18_26154"/></filter><filter id="e" color-interpolation-filters="sRGB" filterUnits="userSpaceOnUse" height="12.797" width="13.342" x="11.823" y="15.064"><feFlood flood-opacity="0" result="BackgroundImageFix"/><feBlend in="SourceGraphic" in2="BackgroundImageFix" mode="normal" result="shape"/><feColorMatrix in="SourceAlpha" result="hardAlpha" type="matrix" values="0 0 0 0 0 0 0 0 0 0 0 0 0 0 0 0 0 0 127 0"/><feOffset dx="-.15"/><feGaussianBlur stdDeviation=".1"/><feComposite in2="hardAlpha" k2="-1" k3="1" operator="arithmetic"/><feColorMatrix type="matrix" values="0 0 0 0 0.8 0 0 0 0 0.603922 0 0 0 0 0.458824 0 0 0 1 0"/><feBlend in2="shape" mode="normal" result="effect1_innerShadow_18_26154"/></filter><filter id="f" color-interpolation-filters="sRGB" filterUnits="userSpaceOnUse" height="9.558" width="9.928" x="5.727" y="14.914"><feFlood flood-opacity="0" result="BackgroundImageFix"/><feBlend in="SourceGraphic" in2="BackgroundImageFix" mode="normal" result="shape"/><feColorMatrix in="SourceAlpha" result="hardAlpha" type="matrix" values="0 0 0 0 0 0 0 0 0 0 0 0 0 0 0 0 0 0 127 0"/><feOffset dx="-.15" dy="-.15"/><feGaussianBlur stdDeviation=".1"/><feComposite in2="hardAlpha" k2="-1" k3="1" operator="arithmetic"/><feColorMatrix type="matrix" values="0 0 0 0 0.529412 0 0 0 0 0.337255 0 0 0 0 0.235294 0 0 0 1 0"/><feBlend in2="shape" mode="normal" result="effect1_innerShadow_18_26154"/></filter><filter id="g" color-interpolation-filters="sRGB" filterUnits="userSpaceOnUse" height="9.753" width="10.278" x="15.884" y="15.064"><feFlood flood-opacity="0" result="BackgroundImageFix"/><feBlend in="SourceGraphic" in2="BackgroundImageFix" mode="normal" result="shape"/><feColorMatrix in="SourceAlpha" result="hardAlpha" type="matrix" values="0 0 0 0 0 0 0 0 0 0 0 0 0 0 0 0 0 0 127 0"/><feOffset dx="-.15"/><feGaussianBlur stdDeviation=".1"/><feComposite in2="hardAlpha" k2="-1" k3="1" operator="arithmetic"/><feColorMatrix type="matrix" values="0 0 0 0 0.8 0 0 0 0 0.603922 0 0 0 0 0.458824 0 0 0 1 0"/><feBlend in2="shape" mode="normal" result="effect1_innerShadow_18_26154"/></filter><filter id="h" color-interpolation-filters="sRGB" filterUnits="userSpaceOnUse" height="6.505" width="6.857" x="4.737" y="14.914"><feFlood flood-opacity="0" result="BackgroundImageFix"/><feBlend in="SourceGraphic" in2="BackgroundImageFix" mode="normal" result="shape"/><feColorMatrix in="SourceAlpha" result="hardAlpha" type="matrix" values="0 0 0 0 0 0 0 0 0 0 0 0 0 0 0 0 0 0 127 0"/><feOffset dx="-.15" dy="-.15"/><feGaussianBlur stdDeviation=".1"/><feComposite in2="hardAlpha" k2="-1" k3="1" operator="arithmetic"/><feColorMatrix type="matrix" values="0 0 0 0 0.529412 0 0 0 0 0.337255 0 0 0 0 0.235294 0 0 0 1 0"/><feBlend in2="shape" mode="normal" result="effect1_innerShadow_18_26154"/></filter><filter id="i" color-interpolation-filters="sRGB" filterUnits="userSpaceOnUse" height="6.709" width="7.215" x="19.945" y="15.064"><feFlood flood-opacity="0" result="BackgroundImageFix"/><feBlend in="SourceGraphic" in2="BackgroundImageFix" mode="normal" result="shape"/><feColorMatrix in="SourceAlpha" result="hardAlpha" type="matrix" values="0 0 0 0 0 0 0 0 0 0 0 0 0 0 0 0 0 0 127 0"/><feOffset dx="-.15"/><feGaussianBlur stdDeviation=".1"/><feComposite in2="hardAlpha" k2="-1" k3="1" operator="arithmetic"/><feColorMatrix type="matrix" values="0 0 0 0 0.8 0 0 0 0 0.603922 0 0 0 0 0.458824 0 0 0 1 0"/><feBlend in2="shape" mode="normal" result="effect1_innerShadow_18_26154"/></filter><filter id="j" color-interpolation-filters="sRGB" filterUnits="userSpaceOnUse" height="3.453" width="3.785" x="3.748" y="14.914"><feFlood flood-opacity="0" result="BackgroundImageFix"/><feBlend in="SourceGraphic" in2="BackgroundImageFix" mode="normal" result="shape"/><feColorMatrix in="SourceAlpha" result="hardAlpha" type="matrix" values="0 0 0 0 0 0 0 0 0 0 0 0 0 0 0 0 0 0 127 0"/><feOffset dx="-.15" dy="-.15"/><feGaussianBlur stdDeviation=".1"/><feComposite in2="hardAlpha" k2="-1" k3="1" operator="arithmetic"/><feColorMatrix type="matrix" values="0 0 0 0 0.529412 0 0 0 0 0.337255 0 0 0 0 0.235294 0 0 0 1 0"/><feBlend in2="shape" mode="normal" result="effect1_innerShadow_18_26154"/></filter><filter id="k" color-interpolation-filters="sRGB" filterUnits="userSpaceOnUse" height="3.664" width="4.151" x="24.006" y="15.064"><feFlood flood-opacity="0" result="BackgroundImageFix"/><feBlend in="SourceGraphic" in2="BackgroundImageFix" mode="normal" result="shape"/><feColorMatrix in="SourceAlpha" result="hardAlpha" type="matrix" values="0 0 0 0 0 0 0 0 0 0 0 0 0 0 0 0 0 0 127 0"/><feOffset dx="-.15"/><feGaussianBlur stdDeviation=".1"/><feComposite in2="hardAlpha" k2="-1" k3="1" operator="arithmetic"/><feColorMatrix type="matrix" values="0 0 0 0 0.8 0 0 0 0 0.603922 0 0 0 0 0.458824 0 0 0 1 0"/><feBlend in2="shape" mode="normal" result="effect1_innerShadow_18_26154"/></filter><filter id="l" color-interpolation-filters="sRGB" filterUnits="userSpaceOnUse" height="15.042" width="15.619" x="7.901" y="14.914"><feFlood flood-opacity="0" result="BackgroundImageFix"/><feBlend in="SourceGraphic" in2="BackgroundImageFix" mode="normal" result="shape"/><feColorMatrix in="SourceAlpha" result="hardAlpha" type="matrix" values="0 0 0 0 0 0 0 0 0 0 0 0 0 0 0 0 0 0 127 0"/><feOffset dx="-.15" dy="-.15"/><feGaussianBlur stdDeviation=".1"/><feComposite in2="hardAlpha" k2="-1" k3="1" operator="arithmetic"/><feColorMatrix type="matrix" values="0 0 0 0 0.619608 0 0 0 0 0.4 0 0 0 0 0.247059 0 0 0 1 0"/><feBlend in2="shape" mode="normal" result="effect1_innerShadow_18_26154"/></filter><filter id="m" color-interpolation-filters="sRGB" filterUnits="userSpaceOnUse" height="15.202" width="15.932" x="11.219" y="15.095"><feFlood flood-opacity="0" result="BackgroundImageFix"/><feBlend in="SourceGraphic" in2="BackgroundImageFix" mode="normal" result="shape"/><feColorMatrix in="SourceAlpha" result="hardAlpha" type="matrix" values="0 0 0 0 0 0 0 0 0 0 0 0 0 0 0 0 0 0 127 0"/><feOffset dx=".1" dy=".1"/><feGaussianBlur stdDeviation=".1"/><feComposite in2="hardAlpha" k2="-1" k3="1" operator="arithmetic"/><feColorMatrix type="matrix" values="0 0 0 0 0.627451 0 0 0 0 0.407843 0 0 0 0 0.223529 0 0 0 1 0"/><feBlend in2="shape" mode="normal" result="effect1_innerShadow_18_26154"/></filter><filter id="n" color-interpolation-filters="sRGB" filterUnits="userSpaceOnUse" height="13.241" width="13.324" x="15.167" y="17.056"><feFlood flood-opacity="0" result="BackgroundImageFix"/><feBlend in="SourceGraphic" in2="BackgroundImageFix" mode="normal" result="shape"/><feColorMatrix in="SourceAlpha" result="hardAlpha" type="matrix" values="0 0 0 0 0 0 0 0 0 0 0 0 0 0 0 0 0 0 127 0"/><feOffset dx=".1" dy=".1"/><feGaussianBlur stdDeviation=".1"/><feComposite in2="hardAlpha" k2="-1" k3="1" operator="arithmetic"/><feColorMatrix type="matrix" values="0 0 0 0 0.839216 0 0 0 0 0.564706 0 0 0 0 0.282353 0 0 0 1 0"/><feBlend in2="shape" mode="normal" result="effect1_innerShadow_18_26154"/></filter><filter id="o" color-interpolation-filters="sRGB" filterUnits="userSpaceOnUse" height="7.423" width="7.47" x="19.116" y="22.874"><feFlood flood-opacity="0" result="BackgroundImageFix"/><feBlend in="SourceGraphic" in2="BackgroundImageFix" mode="normal" result="shape"/><feColorMatrix in="SourceAlpha" result="hardAlpha" type="matrix" values="0 0 0 0 0 0 0 0 0 0 0 0 0 0 0 0 0 0 127 0"/><feOffset dx=".1" dy=".1"/><feGaussianBlur stdDeviation=".1"/><feComposite in2="hardAlpha" k2="-1" k3="1" operator="arithmetic"/><feColorMatrix type="matrix" values="0 0 0 0 0.839216 0 0 0 0 0.564706 0 0 0 0 0.282353 0 0 0 1 0"/><feBlend in2="shape" mode="normal" result="effect1_innerShadow_18_26154"/></filter><filter id="p" color-interpolation-filters="sRGB" filterUnits="userSpaceOnUse" height="12.61" width="13" x="6.716" y="14.914"><feFlood flood-opacity="0" result="BackgroundImageFix"/><feBlend in="SourceGraphic" in2="BackgroundImageFix" mode="normal" result="shape"/><feColorMatrix in="SourceAlpha" result="hardAlpha" type="matrix" values="0 0 0 0 0 0 0 0 0 0 0 0 0 0 0 0 0 0 127 0"/><feOffset dx="-.15" dy="-.15"/><feGaussianBlur stdDeviation=".1"/><feComposite in2="hardAlpha" k2="-1" k3="1" operator="arithmetic"/><feColorMatrix type="matrix" values="0 0 0 0 0.572549 0 0 0 0 0.364706 0 0 0 0 0.219608 0 0 0 1 0"/><feBlend in2="shape" mode="normal" result="effect1_innerShadow_18_26154"/></filter><filter id="q" color-interpolation-filters="sRGB" filterUnits="userSpaceOnUse" height="3.699" width="2.699" x="19.97" y="11.896"><feFlood flood-opacity="0" result="BackgroundImageFix"/><feBlend in="SourceGraphic" in2="BackgroundImageFix" mode="normal" result="shape"/><feGaussianBlur result="effect1_foregroundBlur_18_26154" stdDeviation=".25"/></filter><filter id="r" color-interpolation-filters="sRGB" filterUnits="userSpaceOnUse" height="12.937" width="14.345" x="8.953" y="2.114"><feFlood flood-opacity="0" result="BackgroundImageFix"/><feBlend in="SourceGraphic" in2="BackgroundImageFix" mode="normal" result="shape"/><feColorMatrix in="SourceAlpha" result="hardAlpha" type="matrix" values="0 0 0 0 0 0 0 0 0 0 0 0 0 0 0 0 0 0 127 0"/><feOffset dx=".5" dy="-.25"/><feGaussianBlur stdDeviation=".125"/><feComposite in2="hardAlpha" k2="-1" k3="1" operator="arithmetic"/><feColorMatrix type="matrix" values="0 0 0 0 0.803922 0 0 0 0 0.466667 0 0 0 0 0.192157 0 0 0 1 0"/><feBlend in2="shape" mode="normal" result="effect1_innerShadow_18_26154"/></filter><filter id="s" color-interpolation-filters="sRGB" filterUnits="userSpaceOnUse" height="8.682" width="3.532" x="9.497" y="3.421"><feFlood flood-opacity="0" result="BackgroundImageFix"/><feBlend in="SourceGraphic" in2="BackgroundImageFix" mode="normal" result="shape"/><feColorMatrix in="SourceAlpha" result="hardAlpha" type="matrix" values="0 0 0 0 0 0 0 0 0 0 0 0 0 0 0 0 0 0 127 0"/><feOffset dx=".1"/><feGaussianBlur stdDeviation=".25"/><feComposite in2="hardAlpha" k2="-1" k3="1" operator="arithmetic"/><feColorMatrix type="matrix" values="0 0 0 0 0.886275 0 0 0 0 0.580392 0 0 0 0 0.329412 0 0 0 1 0"/><feBlend in2="shape" mode="normal" result="effect1_innerShadow_18_26154"/></filter><radialGradient id="t" cx="0" cy="0" gradientTransform="matrix(-6.68746829 -7.87499802 11.24508617 -9.5493557 19.7622 25.7711)" gradientUnits="userSpaceOnUse" r="1"><stop offset="0" stop-color="#f4b572"/><stop offset="1" stop-color="#e8a464"/></radialGradient><linearGradient id="u" gradientUnits="userSpaceOnUse" x1="4.075" x2="19.95" y1="20.521" y2="22.63"><stop offset=".213" stop-color="#b0845b"/><stop offset="1" stop-color="#b0845b" stop-opacity="0"/></linearGradient><linearGradient id="v" gradientUnits="userSpaceOnUse" x1="18.137" x2="18.137" y1="30.197" y2="28.177"><stop offset="0" stop-color="#af7c6d"/><stop offset="1" stop-color="#cc9467" stop-opacity="0"/></linearGradient><linearGradient id="w" gradientUnits="userSpaceOnUse" x1="16.091" x2="16.091" y1="15.064" y2="17.115"><stop offset="0" stop-color="#b58253"/><stop offset="1" stop-color="#b58253" stop-opacity="0"/></linearGradient><linearGradient id="x"><stop offset="0" stop-color="#9a633e"/><stop offset="1" stop-color="#cd8d55"/></linearGradient><linearGradient id="y" gradientUnits="userSpaceOnUse" x1="11.613" x2="23.982" xlink:href="#x" y1="17.672" y2="30.335"/><linearGradient id="z" gradientUnits="userSpaceOnUse" x1="8.115" x2="20.552" y1="17.718" y2="30.498"><stop offset="0" stop-color="#91603f"/><stop offset="1" stop-color="#b97c4d"/></linearGradient><linearGradient id="A" gradientUnits="userSpaceOnUse" x1="6.762" x2="16.521" y1="19.927" y2="29.396"><stop offset="0" stop-color="#8c6142"/><stop offset="1" stop-color="#a56c46"/></linearGradient><linearGradient id="B" gradientUnits="userSpaceOnUse" x1="14.871" x2="25.413" xlink:href="#x" y1="17.286" y2="27.939"/><linearGradient id="C"><stop offset="0" stop-color="#b97b4c"/><stop offset="1" stop-color="#d59458"/></linearGradient><linearGradient id="D" gradientUnits="userSpaceOnUse" x1="18.259" x2="26.292" xlink:href="#C" y1="16.757" y2="24.936"/><linearGradient id="E" gradientUnits="userSpaceOnUse" x1="5.137" x2="5.528" y1="19.927" y2="20.271"><stop offset="0" stop-color="#9a8070"/><stop offset="1" stop-color="#9a8070" stop-opacity="0"/></linearGradient><linearGradient id="F" gradientUnits="userSpaceOnUse" x1="21.647" x2="27.171" xlink:href="#C" y1="16.229" y2="21.931"/><linearGradient id="G" gradientUnits="userSpaceOnUse" x1="3.7" x2="4.14" y1="17.381" y2="17.696"><stop offset=".156" stop-color="#9a8070"/><stop offset="1" stop-color="#9a8070" stop-opacity="0"/></linearGradient><linearGradient id="H" gradientUnits="userSpaceOnUse" x1="25.035" x2="28.047" xlink:href="#C" y1="15.7" y2="18.924"/><linearGradient id="I" gradientUnits="userSpaceOnUse" x1="10.071" x2="22.128" y1="27.488" y2="16.364"><stop offset="0" stop-color="#976441"/><stop offset="1" stop-color="#b4784c"/><stop offset="1" stop-color="#c18352"/></linearGradient><linearGradient id="J"><stop offset="0" stop-color="#947562"/><stop offset="1" stop-color="#947562" stop-opacity="0"/></linearGradient><linearGradient id="K" gradientUnits="userSpaceOnUse" x1="10.418" x2="11.175" xlink:href="#J" y1="25.99" y2="26.473"/><linearGradient id="L" gradientUnits="userSpaceOnUse" x1="11.512" x2="25.475" y1="30.552" y2="16.273"><stop offset="0" stop-color="#a46b46"/><stop offset="1" stop-color="#ce8e56"/></linearGradient><linearGradient id="M" gradientUnits="userSpaceOnUse" x1="13.642" x2="14.412" xlink:href="#J" y1="26.175" y2="26.671"/><linearGradient id="N"><stop offset="0" stop-color="#b6794d"/><stop offset="1" stop-color="#d4955b"/></linearGradient><linearGradient id="O" gradientUnits="userSpaceOnUse" x1="15.412" x2="27.562" xlink:href="#N" y1="30.506" y2="18.579"/><linearGradient id="P" gradientUnits="userSpaceOnUse" x1="19.252" x2="26.023" xlink:href="#N" y1="30.369" y2="23.722"/><linearGradient id="Q" gradientUnits="userSpaceOnUse" x1="8.543" x2="19.45" y1="25.459" y2="15.064"><stop offset="0" stop-color="#9a6640"/><stop offset="1" stop-color="#b4784c"/></linearGradient><linearGradient id="R" gradientUnits="userSpaceOnUse" x1="8.71" x2="9.464" xlink:href="#J" y1="23.954" y2="24.605"/><linearGradient id="S" gradientUnits="userSpaceOnUse" x1="33.313" x2="16.144" y1="22" y2="15.064"><stop offset="0" stop-color="#d4945a"/><stop offset="1" stop-color="#d4945a" stop-opacity="0"/></linearGradient><linearGradient id="T" gradientUnits="userSpaceOnUse" x1="15.563" x2="15.563" y1="33.188" y2="27.625"><stop offset=".27" stop-color="#8e5a50"/><stop offset="1" stop-color="#8e5a50" stop-opacity="0"/></linearGradient><linearGradient id="U" gradientUnits="userSpaceOnUse" x1="24.762" x2="11.887" y1="12.104" y2="24.834"><stop offset="0" stop-color="#fbc584"/><stop offset="1" stop-color="#c38e57"/></linearGradient><radialGradient id="V" cx="0" cy="0" gradientTransform="matrix(0 5.3125 -6.625 0 25.5747 11.6461)" gradientUnits="userSpaceOnUse" r="1"><stop offset="0" stop-color="#ffcd87"/><stop offset="1" stop-color="#ffcd87" stop-opacity="0"/></radialGradient><linearGradient id="W" gradientUnits="userSpaceOnUse" x1="30.575" x2="28.2" y1="14.896" y2="14.959"><stop offset=".089" stop-color="#f9c385"/><stop offset="1" stop-color="#f9c385" stop-opacity="0"/></linearGradient><linearGradient id="X" gradientUnits="userSpaceOnUse" x1="20.7" x2="20.7" y1="16.115" y2="15.24"><stop offset="0" stop-color="#c6854e"/><stop offset="1" stop-color="#c6854e" stop-opacity="0"/></linearGradient><radialGradient id="Y" cx="0" cy="0" gradientTransform="matrix(0 1.78125 -17.6671 0 21.481 11.1774)" gradientUnits="userSpaceOnUse" r="1"><stop offset=".224" stop-color="#da9954"/><stop offset="1" stop-color="#da9954" stop-opacity="0"/></radialGradient><radialGradient id="Z" cx="0" cy="0" gradientTransform="matrix(0 .5 -9.65625 0 24.6685 12.8649)" gradientUnits="userSpaceOnUse" r="1"><stop offset="0" stop-color="#ffd899"/><stop offset="1" stop-color="#ffd899" stop-opacity="0"/></radialGradient><linearGradient id="aa" gradientUnits="userSpaceOnUse" x1="2.918" x2="4.356" y1="16.459" y2="12.959"><stop offset="0" stop-color="#a07965"/><stop offset="1" stop-color="#cc975f" stop-opacity="0"/></linearGradient><linearGradient id="ab"><stop offset="0" stop-color="#e49b5a"/><stop offset="1" stop-color="#e09959"/></linearGradient><linearGradient id="ac" gradientUnits="userSpaceOnUse" x1="16" x2="16" xlink:href="#ab" y1="2.364" y2="15.051"/><radialGradient id="ad" cx="0" cy="0" gradientTransform="matrix(4.09375358 3.34374818 -6.22794274 7.62487529 9.82471 3.70862)" gradientUnits="userSpaceOnUse" r="1"><stop offset=".247" stop-color="#cd7e35"/><stop offset="1" stop-color="#cd7e35" stop-opacity="0"/></radialGradient><radialGradient id="ae" cx="0" cy="0" gradientTransform="matrix(-4.09374202 .96877585 -.55836664 -2.35948179 23.606 3.80237)" gradientUnits="userSpaceOnUse" r="1"><stop offset=".143" stop-color="#eeaa73"/><stop offset="1" stop-color="#eeaa73" stop-opacity="0"/></radialGradient><linearGradient id="af" gradientUnits="userSpaceOnUse" x1="11.718" x2="11.718" xlink:href="#ab" y1="3.326" y2="12.63"/><linearGradient id="ag" gradientUnits="userSpaceOnUse" x1="11.212" x2="11.212" y1="3.421" y2="7.365"><stop offset=".263" stop-color="#ca7c35"/><stop offset="1" stop-color="#ca7c35" stop-opacity="0"/></linearGradient><g fill="#4cc88c" fill-opacity=".55"><path d="m7.48335 28.4681-4.34541-13.4044h25.90586l-4.3939 13.4118c-.3365 1.0271-1.295 1.7216-2.3758 1.7216h-12.41259c-1.08368 0-2.04397-.6981-2.37816-1.729z"/><path d="m7.48335 28.4681-4.34541-13.4044h25.90586l-4.3939 13.4118c-.3365 1.0271-1.295 1.7216-2.3758 1.7216h-12.41259c-1.08368 0-2.04397-.6981-2.37816-1.729z"/><path d="m7.48335 28.4681-4.34541-13.4044h25.90586l-4.3939 13.4118c-.3365 1.0271-1.295 1.7216-2.3758 1.7216h-12.41259c-1.08368 0-2.04397-.6981-2.37816-1.729z"/></g><path d="m7.48335 28.4681-4.34541-13.4044h25.90586l-4.3939 13.4118c-.3365 1.0271-1.295 1.7216-2.3758 1.7216h-12.41259c-1.08368 0-2.04397-.6981-2.37816-1.729z" fill="url(#t)"/><path d="m7.48335 28.4681-4.34541-13.4044h25.90586l-4.3939 13.4118c-.3365 1.0271-1.295 1.7216-2.3758 1.7216h-12.41259c-1.08368 0-2.04397-.6981-2.37816-1.729z" fill="url(#u)"/><path d="m7.48335 28.4681-4.34541-13.4044h25.90586l-4.3939 13.4118c-.3365 1.0271-1.295 1.7216-2.3758 1.7216h-12.41259c-1.08368 0-2.04397-.6981-2.37816-1.729z" fill="url(#v)"/><path d="m7.48335 28.4681-4.34541-13.4044h25.90586l-4.3939 13.4118c-.3365 1.0271-1.295 1.7216-2.3758 1.7216h-12.41259c-1.08368 0-2.04397-.6981-2.37816-1.729z" fill="url(#w)"/><g filter="url(#a)"><path d="m23.025 30.0819c.3032-.0955.5839-.2477.8278-.4462l-14.66392-14.572h-.76821l-.2527.2543z" fill="url(#y)"/></g><g filter="url(#b)"><path d="m20.4695 30.1972h-1.2768l-14.555-14.4638.63439-.6384z" fill="url(#z)"/></g><g filter="url(#c)"><path d="m16.5213 30.1971h-1.2769l-10.62259-10.556-.6068-1.8718z" fill="url(#A)"/></g><g filter="url(#d)"><path d="m12.573 30.1971h-1.2768l-4.79804-4.7679-.6068-1.8718z" fill="#8e6144"/></g><g filter="url(#e)"><path d="m24.8511 27.8612.3136-.9572-11.915-11.8403h-1.2768z" fill="url(#B)"/></g><g filter="url(#f)"><path d="m15.6547 15.0637-9.46701 9.4077-.3111-.9597 8.50131-8.448z" fill="#8e6243"/><path d="m15.6547 15.0637-9.46701 9.4077-.3111-.9597 8.50131-8.448z" fill="#946340"/></g><g filter="url(#g)"><path d="m25.8486 24.8168.3135-.9572-8.8514-8.7959h-1.2768z" fill="url(#D)"/></g><g filter="url(#h)"><path d="m11.5937 15.0637-6.39551 6.3555-.31111-.9597 5.42982-5.3958z" fill="#8e6243"/><path d="m11.5937 15.0637-6.39551 6.3555-.31111-.9597 5.42982-5.3958z" fill="url(#E)"/></g><g filter="url(#i)"><path d="m26.8459 21.7725.3136-.9572-5.7878-5.7516h-1.2769z" fill="url(#F)"/></g><g filter="url(#j)"><path d="m7.53288 15.0637-3.32407 3.3033-.3111-.9597 2.35836-2.3436z" fill="#8e6243"/><path d="m7.53288 15.0637-3.32407 3.3033-.3111-.9597 2.35836-2.3436z" fill="url(#G)"/></g><g filter="url(#k)"><path d="m27.8433 18.7281.3136-.9572-2.7243-2.7072h-1.2768z" fill="url(#H)"/></g><g filter="url(#l)"><path d="m23.268 15.0637.2527.2543-14.73038 14.6381c-.27687-.1314-.52752-.3127-.73893-.5345l14.44841-14.3579z" fill="url(#I)"/><path d="m23.268 15.0637.2527.2543-14.73038 14.6381c-.27687-.1314-.52752-.3127-.73893-.5345l14.44841-14.3579z" fill="url(#K)"/></g><g filter="url(#m)"><path d="m12.4959 30.1972h-1.2768l15.1975-15.1022.6343.6384z" fill="url(#L)"/><path d="m12.4959 30.1972h-1.2768l15.1975-15.1022.6343.6384z" fill="url(#M)"/></g><g filter="url(#n)"><path d="m16.4442 30.1971h-1.2768l13.2236-13.1407-.6164 1.8813z" fill="url(#O)"/></g><g filter="url(#o)"><path d="m20.3924 30.1972h-1.2768l7.3695-7.3234-.6163 1.8813z" fill="url(#P)"/></g><g filter="url(#p)"><path d="m19.7157 15.0637-12.53851 12.4599-.3111-.9596 11.57271-11.5003z" fill="url(#Q)"/><path d="m19.7157 15.0637-12.53851 12.4599-.3111-.9596 11.57271-11.5003z" fill="url(#R)"/></g><path clip-rule="evenodd" d="m6.38677 16.2027 1.14611-1.139h-1.27681l-.50771.5045-.47627-.4732-.63439.6383.47226.4694-1.21225 1.2046.7241 2.2338.54443.541-.27916.2774.31111.9597.60646-.6027 1.39208 1.3834-1.32014 1.3118.62157 1.9175.75492.7502-.38699.3846.3111.9596.7143-.7098 1.39207 1.3833-1.23217 1.2245c.21141.2218.46206.4031.73893.5345l1.13165-1.1246 1.33563 1.3274-.0385.0382 1.3539.0001-.0385-.0383 1.3357-1.3274 1.3357 1.3273-.0385.0383h1.3539l-.0386-.0383 1.3357-1.3273 1.3358 1.3273-.0386.0383h1.3539l-.0385-.0383 1.3357-1.3273 1.2583 1.2504c.3032-.0955.5839-.2477.8278-.4462l-1.4477-1.4386 1.392-1.3833 1.054 1.0474.3136-.9572-.7292-.7246 1.3921-1.3834.021.0208.6365-1.943-.6575.6534-1.3357-1.3273 1.392-1.3834.962.956.3136-.9572-.6372-.6332 1.2523-1.2444.6164-1.8813-.4766.4736-1.3357-1.3274.4722-.4693-.6343-.6383-.4763.4732-.5077-.5045h-1.2768l1.1461 1.1389-1.3921 1.3834-1.3357-1.3273.9466-.9407-.2527-.2543h-.7682l-.5641.5606-.564-.5606h-1.2769l1.2025 1.195-1.392 1.3833-1.3921-1.3834 1.2025-1.1949h-1.2769l-.564.5605-.5641-.5605h-1.2768l1.2025 1.1949-1.3921 1.3834-1.3921-1.3833 1.2025-1.195h-1.2768l-.5641.5606-.5641-.5606h-1.2768l1.2025 1.195-1.392 1.3833-1.3921-1.3834 1.2024-1.1949h-1.2768l-.564.5605-.56402-.5605h-.76821l-.2527.2543.94652.9406-1.3357 1.3273zm8.81913 2.0737-1.3921-1.3833-1.392 1.3833 1.3921 1.3833zm-.7536 2.0177 1.392-1.3833 1.3921 1.3834-1.3921 1.3833zm-1.2768 0-1.3921-1.3833-1.3357 1.3273 1.3921 1.3834zm-.6973 1.9618 1.3357-1.3274 1.392 1.3834-1.3357 1.3273zm-1.2769 0-1.39203-1.3834-1.33573 1.3274 1.39208 1.3833zm-.6973 1.9617 1.3358-1.3273 1.392 1.3833-1.3357 1.3274zm-1.27679 0-1.39208-1.3833-1.33572 1.3273 1.39208 1.3834zm-.69732 1.9618 1.33573-1.3274 1.39208 1.3834-1.33573 1.3273zm7.95281-7.903 1.3921-1.3834 1.3921 1.3834-1.3921 1.3834zm4.6456 9.9207-1.3357 1.3273-1.3358-1.3273 1.3357-1.3274zm2.0304-2.0177-1.392 1.3833-1.3357-1.3274 1.392-1.3832zm2.0305-2.0178-1.3921 1.3834-1.3357-1.3273 1.3921-1.3834zm2.0868-5.9972-1.3357-1.3273-1.3921 1.3833 1.3357 1.3273zm-2.0305 2.0177-1.3357-1.3273-1.392 1.3833 1.3357 1.3274zm-2.0304 2.0178-1.3357-1.3274-1.3921 1.3834 1.3357 1.3273zm-2.0305 2.0178-1.3358-1.3274-1.392 1.3833 1.3357 1.3273zm-2.0305 2.0176-1.3357-1.3273-1.3357 1.3273 1.3357 1.3274zm-1.9741 1.9618-1.3357-1.3274-1.3357 1.3274 1.3357 1.3273zm-3.9482 0-1.3357 1.3274-1.3357-1.3274 1.3357-1.3273zm1.9741-1.9618-1.3357 1.3274-1.3357-1.3273 1.3357-1.3274zm1.9741-1.9617-1.3357 1.3273-1.3357-1.3273 1.3357-1.3273zm2.0304-2.0177-1.392 1.3833-1.3357-1.3273 1.3921-1.3833zm2.0306-2.0178-1.3922 1.3834-1.3356-1.3273 1.3921-1.3834zm2.0304-2.0177-1.392 1.3833-1.3357-1.3273 1.392-1.3833zm-17.52304-1.3833-1.33573 1.3273 1.39202 1.3833 1.33573-1.3274zm4.00454.0559-1.33571 1.3273 1.39208 1.3834 1.33573-1.3273zm-1.97411 1.9618-1.33573 1.3273 1.39207 1.3834 1.33573-1.3274z" fill="url(#S)" fill-rule="evenodd"/><path clip-rule="evenodd" d="m6.38677 16.2027 1.14611-1.139h-1.27681l-.50771.5045-.47627-.4732-.63439.6383.47226.4694-1.21225 1.2046.7241 2.2338.54443.541-.27916.2774.31111.9597.60646-.6027 1.39208 1.3834-1.32014 1.3118.62157 1.9175.75492.7502-.38699.3846.3111.9596.7143-.7098 1.39207 1.3833-1.23217 1.2245c.21141.2218.46206.4031.73893.5345l1.13165-1.1246 1.33563 1.3274-.0385.0382 1.3539.0001-.0385-.0383 1.3357-1.3274 1.3357 1.3273-.0385.0383h1.3539l-.0386-.0383 1.3357-1.3273 1.3358 1.3273-.0386.0383h1.3539l-.0385-.0383 1.3357-1.3273 1.2583 1.2504c.3032-.0955.5839-.2477.8278-.4462l-1.4477-1.4386 1.392-1.3833 1.054 1.0474.3136-.9572-.7292-.7246 1.3921-1.3834.021.0208.6365-1.943-.6575.6534-1.3357-1.3273 1.392-1.3834.962.956.3136-.9572-.6372-.6332 1.2523-1.2444.6164-1.8813-.4766.4736-1.3357-1.3274.4722-.4693-.6343-.6383-.4763.4732-.5077-.5045h-1.2768l1.1461 1.1389-1.3921 1.3834-1.3357-1.3273.9466-.9407-.2527-.2543h-.7682l-.5641.5606-.564-.5606h-1.2769l1.2025 1.195-1.392 1.3833-1.3921-1.3834 1.2025-1.1949h-1.2769l-.564.5605-.5641-.5605h-1.2768l1.2025 1.1949-1.3921 1.3834-1.3921-1.3833 1.2025-1.195h-1.2768l-.5641.5606-.5641-.5606h-1.2768l1.2025 1.195-1.392 1.3833-1.3921-1.3834 1.2024-1.1949h-1.2768l-.564.5605-.56402-.5605h-.76821l-.2527.2543.94652.9406-1.3357 1.3273zm8.81913 2.0737-1.3921-1.3833-1.392 1.3833 1.3921 1.3833zm-.7536 2.0177 1.392-1.3833 1.3921 1.3834-1.3921 1.3833zm-1.2768 0-1.3921-1.3833-1.3357 1.3273 1.3921 1.3834zm-.6973 1.9618 1.3357-1.3274 1.392 1.3834-1.3357 1.3273zm-1.2769 0-1.39203-1.3834-1.33573 1.3274 1.39208 1.3833zm-.6973 1.9617 1.3358-1.3273 1.392 1.3833-1.3357 1.3274zm-1.27679 0-1.39208-1.3833-1.33572 1.3273 1.39208 1.3834zm-.69732 1.9618 1.33573-1.3274 1.39208 1.3834-1.33573 1.3273zm7.95281-7.903 1.3921-1.3834 1.3921 1.3834-1.3921 1.3834zm4.6456 9.9207-1.3357 1.3273-1.3358-1.3273 1.3357-1.3274zm2.0304-2.0177-1.392 1.3833-1.3357-1.3274 1.392-1.3832zm2.0305-2.0178-1.3921 1.3834-1.3357-1.3273 1.3921-1.3834zm2.0868-5.9972-1.3357-1.3273-1.3921 1.3833 1.3357 1.3273zm-2.0305 2.0177-1.3357-1.3273-1.392 1.3833 1.3357 1.3274zm-2.0304 2.0178-1.3357-1.3274-1.3921 1.3834 1.3357 1.3273zm-2.0305 2.0178-1.3358-1.3274-1.392 1.3833 1.3357 1.3273zm-2.0305 2.0176-1.3357-1.3273-1.3357 1.3273 1.3357 1.3274zm-1.9741 1.9618-1.3357-1.3274-1.3357 1.3274 1.3357 1.3273zm-3.9482 0-1.3357 1.3274-1.3357-1.3274 1.3357-1.3273zm1.9741-1.9618-1.3357 1.3274-1.3357-1.3273 1.3357-1.3274zm1.9741-1.9617-1.3357 1.3273-1.3357-1.3273 1.3357-1.3273zm2.0304-2.0177-1.392 1.3833-1.3357-1.3273 1.3921-1.3833zm2.0306-2.0178-1.3922 1.3834-1.3356-1.3273 1.3921-1.3834zm2.0304-2.0177-1.392 1.3833-1.3357-1.3273 1.392-1.3833zm-17.52304-1.3833-1.33573 1.3273 1.39202 1.3833 1.33573-1.3274zm4.00454.0559-1.33571 1.3273 1.39208 1.3834 1.33573-1.3273zm-1.97411 1.9618-1.33573 1.3273 1.39207 1.3834 1.33573-1.3274z" fill="url(#T)" fill-rule="evenodd"/><rect fill="url(#U)" height="4.01" rx=".9" width="27.905" x="2.152" y="12.104"/><rect fill="url(#V)" height="4.01" rx=".9" width="27.905" x="2.152" y="12.104"/><rect fill="url(#W)" height="4.01" rx=".9" width="27.905" x="2.152" y="12.104"/><rect fill="url(#X)" height="4.01" rx=".9" width="27.905" x="2.152" y="12.104"/><rect fill="url(#Y)" height="4.01" rx=".9" width="27.905" x="2.152" y="12.104"/><rect fill="url(#Z)" height="4.01" rx=".9" width="27.905" x="2.152" y="12.104"/><rect fill="url(#aa)" height="4.01" rx=".9" width="27.905" x="2.152" y="12.104"/><g filter="url(#q)"><path d="m20.4695 12.3961h1.699v1.8494c0 .4691-.3804.8494-.8495.8494-.4692 0-.8495-.3803-.8495-.8494z" fill="#da9653"/></g><g filter="url(#r)"><path d="m8.95251 6.16383c0-2.09869 1.70129-3.8 3.80009-3.8h6.695c1.9883 0 3.6 1.61177 3.6 3.60001v8.00316c0 .5985-.4852 1.0837-1.0837 1.0837-.5986 0-1.0838-.4852-1.0838-1.0837v-8.2454c0-1.27026-1.0901-2.3-1.8299-2.3h-6.1261c-1.0967 0-1.791 1.53152-1.791 2.53739v6.14411h-2.18059z" fill="url(#ac)"/><path d="m8.95251 6.16383c0-2.09869 1.70129-3.8 3.80009-3.8h6.695c1.9883 0 3.6 1.61177 3.6 3.60001v8.00316c0 .5985-.4852 1.0837-1.0837 1.0837-.5986 0-1.0838-.4852-1.0838-1.0837v-8.2454c0-1.27026-1.0901-2.3-1.8299-2.3h-6.1261c-1.0967 0-1.791 1.53152-1.791 2.53739v6.14411h-2.18059z" fill="url(#ad)"/><path d="m8.95251 6.16383c0-2.09869 1.70129-3.8 3.80009-3.8h6.695c1.9883 0 3.6 1.61177 3.6 3.60001v8.00316c0 .5985-.4852 1.0837-1.0837 1.0837-.5986 0-1.0838-.4852-1.0838-1.0837v-8.2454c0-1.27026-1.0901-2.3-1.8299-2.3h-6.1261c-1.0967 0-1.791 1.53152-1.791 2.53739v6.14411h-2.18059z" fill="url(#ae)"/></g><g filter="url(#s)"><path d="m12.9241 3.42164c-1.1017 0-1.7993 1.53152-1.7993 2.53738v6.14418h-1.62822v-5.60707c0-3.17029 3.56942-3.07449 3.42752-3.07449z" fill="url(#af)"/><path d="m12.9241 3.42164c-1.1017 0-1.7993 1.53152-1.7993 2.53738v6.14418h-1.62822v-5.60707c0-3.17029 3.56942-3.07449 3.42752-3.07449z" fill="url(#ag)"/></g></svg>