<svg fill="none" height="32" viewBox="0 0 32 32" width="32" xmlns="http://www.w3.org/2000/svg" xmlns:xlink="http://www.w3.org/1999/xlink"><filter id="a" color-interpolation-filters="sRGB" filterUnits="userSpaceOnUse" height="28.244" width="13.121" x="1.818" y="1.678"><feFlood flood-opacity="0" result="BackgroundImageFix"/><feBlend in="SourceGraphic" in2="BackgroundImageFix" mode="normal" result="shape"/><feColorMatrix in="SourceAlpha" result="hardAlpha" type="matrix" values="0 0 0 0 0 0 0 0 0 0 0 0 0 0 0 0 0 0 127 0"/><feOffset dx="1" dy="-.4"/><feGaussianBlur stdDeviation=".4"/><feComposite in2="hardAlpha" k2="-1" k3="1" operator="arithmetic"/><feColorMatrix type="matrix" values="0 0 0 0 0.411765 0 0 0 0 0.239216 0 0 0 0 0.215686 0 0 0 1 0"/><feBlend in2="shape" mode="normal" result="effect1_innerShadow_18_24814"/></filter><filter id="b" color-interpolation-filters="sRGB" filterUnits="userSpaceOnUse" height="3.359" width="3.477" x="10.019" y="6.125"><feFlood flood-opacity="0" result="BackgroundImageFix"/><feBlend in="SourceGraphic" in2="BackgroundImageFix" mode="normal" result="shape"/><feGaussianBlur result="effect1_foregroundBlur_18_24814" stdDeviation=".25"/></filter><filter id="c" color-interpolation-filters="sRGB" filterUnits="userSpaceOnUse" height="3.359" width="3.477" x="8.159" y="13.08"><feFlood flood-opacity="0" result="BackgroundImageFix"/><feBlend in="SourceGraphic" in2="BackgroundImageFix" mode="normal" result="shape"/><feGaussianBlur result="effect1_foregroundBlur_18_24814" stdDeviation=".25"/></filter><filter id="d" color-interpolation-filters="sRGB" filterUnits="userSpaceOnUse" height="3.359" width="3.477" x="6.456" y="20.035"><feFlood flood-opacity="0" result="BackgroundImageFix"/><feBlend in="SourceGraphic" in2="BackgroundImageFix" mode="normal" result="shape"/><feGaussianBlur result="effect1_foregroundBlur_18_24814" stdDeviation=".25"/></filter><filter id="e" color-interpolation-filters="sRGB" filterUnits="userSpaceOnUse" height="3.359" width="3.477" x="4.581" y="26.937"><feFlood flood-opacity="0" result="BackgroundImageFix"/><feBlend in="SourceGraphic" in2="BackgroundImageFix" mode="normal" result="shape"/><feGaussianBlur result="effect1_foregroundBlur_18_24814" stdDeviation=".25"/></filter><filter id="f" color-interpolation-filters="sRGB" filterUnits="userSpaceOnUse" height="28.244" width="13.121" x="17.479" y="1.678"><feFlood flood-opacity="0" result="BackgroundImageFix"/><feBlend in="SourceGraphic" in2="BackgroundImageFix" mode="normal" result="shape"/><feColorMatrix in="SourceAlpha" result="hardAlpha" type="matrix" values="0 0 0 0 0 0 0 0 0 0 0 0 0 0 0 0 0 0 127 0"/><feOffset dx="1" dy="-.4"/><feGaussianBlur stdDeviation=".4"/><feComposite in2="hardAlpha" k2="-1" k3="1" operator="arithmetic"/><feColorMatrix type="matrix" values="0 0 0 0 0.411765 0 0 0 0 0.239216 0 0 0 0 0.215686 0 0 0 1 0"/><feBlend in2="shape" mode="normal" result="effect1_innerShadow_18_24814"/></filter><linearGradient id="g"><stop offset="0" stop-color="#915f51"/><stop offset="1" stop-color="#7a4d49"/></linearGradient><linearGradient id="h" gradientUnits="userSpaceOnUse" x1="4.375" x2="11.181" xlink:href="#g" y1="9.378" y2="19.586"/><linearGradient id="i"><stop offset="0" stop-color="#7a4d49"/><stop offset="1" stop-color="#7a4d49" stop-opacity="0"/></linearGradient><radialGradient id="j" cx="0" cy="0" gradientTransform="matrix(-2.18121243 -.61072936 3.11072659 -11.10992187 8.56324 27.6131)" gradientUnits="userSpaceOnUse" r="1" xlink:href="#i"/><linearGradient id="k"><stop offset=".202" stop-color="#9f705f"/><stop offset="1" stop-color="#956455" stop-opacity="0"/></linearGradient><linearGradient id="l" gradientUnits="userSpaceOnUse" x1="11.704" x2="11.704" xlink:href="#k" y1="2.078" y2="3.358"/><linearGradient id="m" gradientUnits="userSpaceOnUse" x1="9.651" x2="5.714" y1="26.422" y2="25.172"><stop offset=".291" stop-color="#6a4038"/><stop offset="1" stop-color="#6a4038" stop-opacity="0"/></linearGradient><linearGradient id="n"><stop offset="0" stop-color="#592d2b"/><stop offset="1" stop-color="#592d2b" stop-opacity="0"/></linearGradient><linearGradient id="o" gradientUnits="userSpaceOnUse" x1="11.827" x2="12.114" xlink:href="#n" y1="7.031" y2="8.816"/><linearGradient id="p" gradientUnits="userSpaceOnUse" x1="9.968" x2="10.254" xlink:href="#n" y1="13.986" y2="15.771"/><linearGradient id="q" gradientUnits="userSpaceOnUse" x1="8.265" x2="8.551" xlink:href="#n" y1="20.941" y2="22.726"/><linearGradient id="r" gradientUnits="userSpaceOnUse" x1="6.39" x2="6.676" xlink:href="#n" y1="27.844" y2="29.628"/><linearGradient id="s"><stop offset="0" stop-color="#945b4b"/><stop offset="1" stop-color="#753e2d"/></linearGradient><linearGradient id="t" gradientUnits="userSpaceOnUse" x1="12.129" x2="24.317" xlink:href="#s" y1="6.455" y2="6.455"/><linearGradient id="u"><stop offset="0" stop-color="#9f684b"/><stop offset="1" stop-color="#9f684b" stop-opacity="0"/></linearGradient><linearGradient id="v" gradientUnits="userSpaceOnUse" x1="17.849" x2="17.849" xlink:href="#u" y1="3.766" y2="4.328"/><linearGradient id="w"><stop offset="0" stop-color="#78402d"/><stop offset="1" stop-color="#965d4d" stop-opacity="0"/></linearGradient><linearGradient id="x" gradientUnits="userSpaceOnUse" x1="10.537" x2="11.216" xlink:href="#w" y1="5.848" y2="6.045"/><linearGradient id="y"><stop offset="0" stop-color="#653036"/><stop offset="1" stop-color="#844849" stop-opacity="0"/></linearGradient><linearGradient id="z" gradientUnits="userSpaceOnUse" x1="19.87" x2="19.87" xlink:href="#y" y1="7.023" y2="6.516"/><linearGradient id="A" gradientUnits="userSpaceOnUse" x1="10.247" x2="22.506" xlink:href="#s" y1="13.37" y2="13.37"/><linearGradient id="B" gradientUnits="userSpaceOnUse" x1="16" x2="16" xlink:href="#u" y1="10.68" y2="11.243"/><linearGradient id="C" gradientUnits="userSpaceOnUse" x1="8.646" x2="9.328" xlink:href="#w" y1="12.763" y2="12.962"/><linearGradient id="D" gradientUnits="userSpaceOnUse" x1="18.033" x2="18.033" xlink:href="#y" y1="13.937" y2="13.43"/><linearGradient id="E" gradientUnits="userSpaceOnUse" x1="8.491" x2="20.75" xlink:href="#s" y1="20.382" y2="20.382"/><linearGradient id="F" gradientUnits="userSpaceOnUse" x1="14.244" x2="14.244" xlink:href="#u" y1="17.693" y2="18.255"/><linearGradient id="G" gradientUnits="userSpaceOnUse" x1="6.89" x2="7.572" xlink:href="#w" y1="19.775" y2="19.975"/><linearGradient id="H" gradientUnits="userSpaceOnUse" x1="16.277" x2="16.277" xlink:href="#y" y1="20.95" y2="20.443"/><linearGradient id="I" gradientUnits="userSpaceOnUse" x1="6.692" x2="18.95" xlink:href="#s" y1="27.33" y2="27.33"/><linearGradient id="J" gradientUnits="userSpaceOnUse" x1="12.445" x2="12.445" xlink:href="#u" y1="24.64" y2="25.202"/><linearGradient id="K" gradientUnits="userSpaceOnUse" x1="5.091" x2="5.773" xlink:href="#w" y1="26.722" y2="26.922"/><linearGradient id="L" gradientUnits="userSpaceOnUse" x1="14.477" x2="14.477" xlink:href="#y" y1="27.897" y2="27.39"/><linearGradient id="M" gradientUnits="userSpaceOnUse" x1="20.036" x2="26.842" xlink:href="#g" y1="9.378" y2="19.586"/><radialGradient id="N" cx="0" cy="0" gradientTransform="matrix(-2.18121243 -.61072936 3.11072659 -11.10992187 24.2244 27.6131)" gradientUnits="userSpaceOnUse" r="1" xlink:href="#i"/><linearGradient id="O" gradientUnits="userSpaceOnUse" x1="27.365" x2="27.365" xlink:href="#k" y1="2.078" y2="3.358"/><g filter="url(#a)"><path d="m8.59934 2.97758c.13699-.52955.61476-.89946 1.16175-.89946h3.72751c.425 0 .7357.40128.6293.8128l-6.76022 26.13148c-.13699.5296-.61476.8995-1.16175.8995h-3.72748c-.42506 0-.73574-.4013-.62928-.8128z" fill="url(#h)"/><path d="m8.59934 2.97758c.13699-.52955.61476-.89946 1.16175-.89946h3.72751c.425 0 .7357.40128.6293.8128l-6.76022 26.13148c-.13699.5296-.61476.8995-1.16175.8995h-3.72748c-.42506 0-.73574-.4013-.62928-.8128z" fill="url(#j)"/><path d="m8.59934 2.97758c.13699-.52955.61476-.89946 1.16175-.89946h3.72751c.425 0 .7357.40128.6293.8128l-6.76022 26.13148c-.13699.5296-.61476.8995-1.16175.8995h-3.72748c-.42506 0-.73574-.4013-.62928-.8128z" fill="url(#l)"/><path d="m8.59934 2.97758c.13699-.52955.61476-.89946 1.16175-.89946h3.72751c.425 0 .7357.40128.6293.8128l-6.76022 26.13148c-.13699.5296-.61476.8995-1.16175.8995h-3.72748c-.42506 0-.73574-.4013-.62928-.8128z" fill="url(#m)"/></g><g filter="url(#b)"><path d="m12.2651 8.98438-1.7465-2.25782 2.4765-.10156z" fill="url(#o)"/></g><g filter="url(#c)"><path d="m10.4057 15.9394-1.74652-2.2578 2.47652-.1016z" fill="url(#p)"/></g><g filter="url(#d)"><path d="m8.70262 22.8944-1.74657-2.2578 2.47657-.1015z" fill="url(#q)"/></g><g filter="url(#e)"><path d="m6.82762 29.7968-1.74657-2.2579 2.47657-.1015z" fill="url(#r)"/></g><path d="m10.9758 4.35645c.0563-.22159.2559-.3767.4845-.3767l13.8546.00001v3.04279l-14.6317-.00001c-.1957 0-.339-.18433-.2907-.37398z" fill="url(#t)"/><path d="m10.9758 4.35645c.0563-.22159.2559-.3767.4845-.3767l13.8546.00001v3.04279l-14.6317-.00001c-.1957 0-.339-.18433-.2907-.37398z" fill="url(#v)"/><path d="m10.9758 4.35645c.0563-.22159.2559-.3767.4845-.3767l13.8546.00001v3.04279l-14.6317-.00001c-.1957 0-.339-.18433-.2907-.37398z" fill="url(#x)"/><path d="m10.9758 4.35645c.0563-.22159.2559-.3767.4845-.3767l13.8546.00001v3.04279l-14.6317-.00001c-.1957 0-.339-.18433-.2907-.37398z" fill="url(#z)"/><path d="m9.16966 11.2709c.05639-.2216.25591-.3767.48456-.3767h13.85458v3.0428h-14.63168c-.1957 0-.339-.1844-.29074-.374z" fill="url(#A)"/><path d="m9.16966 11.2709c.05639-.2216.25591-.3767.48456-.3767h13.85458v3.0428h-14.63168c-.1957 0-.339-.1844-.29074-.374z" fill="url(#B)"/><path d="m9.16966 11.2709c.05639-.2216.25591-.3767.48456-.3767h13.85458v3.0428h-14.63168c-.1957 0-.339-.1844-.29074-.374z" fill="url(#C)"/><path d="m9.16966 11.2709c.05639-.2216.25591-.3767.48456-.3767h13.85458v3.0428h-14.63168c-.1957 0-.339-.1844-.29074-.374z" fill="url(#D)"/><path d="m7.4138 18.2834c.05639-.2215.25591-.3766.48456-.3766h13.85464v3.0428l-14.63174-.0001c-.1957 0-.339-.1843-.29074-.3739z" fill="url(#E)"/><path d="m7.4138 18.2834c.05639-.2215.25591-.3766.48456-.3766h13.85464v3.0428l-14.63174-.0001c-.1957 0-.339-.1843-.29074-.3739z" fill="url(#F)"/><path d="m7.4138 18.2834c.05639-.2215.25591-.3766.48456-.3766h13.85464v3.0428l-14.63174-.0001c-.1957 0-.339-.1843-.29074-.3739z" fill="url(#G)"/><path d="m7.4138 18.2834c.05639-.2215.25591-.3766.48456-.3766h13.85464v3.0428l-14.63174-.0001c-.1957 0-.339-.1843-.29074-.3739z" fill="url(#H)"/><path d="m5.61436 25.2306c.05639-.2216.25591-.3767.48456-.3767h13.85458v3.0428h-14.63168c-.19569 0-.339-.1843-.29073-.374z" fill="url(#I)"/><path d="m5.61436 25.2306c.05639-.2216.25591-.3767.48456-.3767h13.85458v3.0428h-14.63168c-.19569 0-.339-.1843-.29073-.374z" fill="url(#J)"/><path d="m5.61436 25.2306c.05639-.2216.25591-.3767.48456-.3767h13.85458v3.0428h-14.63168c-.19569 0-.339-.1843-.29073-.374z" fill="url(#K)"/><path d="m5.61436 25.2306c.05639-.2216.25591-.3767.48456-.3767h13.85458v3.0428h-14.63168c-.19569 0-.339-.1843-.29073-.374z" fill="url(#L)"/><g filter="url(#f)"><path d="m24.2605 2.97758c.137-.52955.6147-.89946 1.1617-.89946h3.7275c.4251 0 .7357.40128.6293.8128l-6.7602 26.13148c-.137.5296-.6147.8995-1.1617.8995h-3.7275c-.4251 0-.7358-.4013-.6293-.8128z" fill="url(#M)"/><path d="m24.2605 2.97758c.137-.52955.6147-.89946 1.1617-.89946h3.7275c.4251 0 .7357.40128.6293.8128l-6.7602 26.13148c-.137.5296-.6147.8995-1.1617.8995h-3.7275c-.4251 0-.7358-.4013-.6293-.8128z" fill="url(#N)"/><path d="m24.2605 2.97758c.137-.52955.6147-.89946 1.1617-.89946h3.7275c.4251 0 .7357.40128.6293.8128l-6.7602 26.13148c-.137.5296-.6147.8995-1.1617.8995h-3.7275c-.4251 0-.7358-.4013-.6293-.8128z" fill="url(#O)"/></g></svg>