<svg fill="none" height="32" viewBox="0 0 32 32" width="32" xmlns="http://www.w3.org/2000/svg" xmlns:xlink="http://www.w3.org/1999/xlink"><filter id="a" color-interpolation-filters="sRGB" filterUnits="userSpaceOnUse" height="19.48" width="28.094" x="2.42" y="1.997"><feFlood flood-opacity="0" result="BackgroundImageFix"/><feBlend in="SourceGraphic" in2="BackgroundImageFix" mode="normal" result="shape"/><feColorMatrix in="SourceAlpha" result="hardAlpha" type="matrix" values="0 0 0 0 0 0 0 0 0 0 0 0 0 0 0 0 0 0 127 0"/><feOffset dx="1.5"/><feGaussianBlur stdDeviation="1.5"/><feComposite in2="hardAlpha" k2="-1" k3="1" operator="arithmetic"/><feColorMatrix type="matrix" values="0 0 0 0 0.419608 0 0 0 0 0.486275 0 0 0 0 0.388235 0 0 0 1 0"/><feBlend in2="shape" mode="normal" result="effect1_innerShadow_18_17570"/></filter><filter id="b" color-interpolation-filters="sRGB" filterUnits="userSpaceOnUse" height="13.216" width="8.436" x="12.032" y="16.78"><feFlood flood-opacity="0" result="BackgroundImageFix"/><feBlend in="SourceGraphic" in2="BackgroundImageFix" mode="normal" result="shape"/><feColorMatrix in="SourceAlpha" result="hardAlpha" type="matrix" values="0 0 0 0 0 0 0 0 0 0 0 0 0 0 0 0 0 0 127 0"/><feOffset dx=".75"/><feGaussianBlur stdDeviation=".25"/><feComposite in2="hardAlpha" k2="-1" k3="1" operator="arithmetic"/><feColorMatrix type="matrix" values="0 0 0 0 0.423529 0 0 0 0 0.286275 0 0 0 0 0.262745 0 0 0 1 0"/><feBlend in2="shape" mode="normal" result="effect1_innerShadow_18_17570"/><feColorMatrix in="SourceAlpha" result="hardAlpha" type="matrix" values="0 0 0 0 0 0 0 0 0 0 0 0 0 0 0 0 0 0 127 0"/><feOffset dy="-.5"/><feGaussianBlur stdDeviation=".375"/><feComposite in2="hardAlpha" k2="-1" k3="1" operator="arithmetic"/><feColorMatrix type="matrix" values="0 0 0 0 0.541176 0 0 0 0 0.266667 0 0 0 0 0.396078 0 0 0 1 0"/><feBlend in2="effect1_innerShadow_18_17570" mode="normal" result="effect2_innerShadow_18_17570"/></filter><filter id="c" color-interpolation-filters="sRGB" filterUnits="userSpaceOnUse" height="13.102" width="27.969" x="2.357" y="10.007"><feFlood flood-opacity="0" result="BackgroundImageFix"/><feBlend in="SourceGraphic" in2="BackgroundImageFix" mode="normal" result="shape"/><feColorMatrix in="SourceAlpha" result="hardAlpha" type="matrix" values="0 0 0 0 0 0 0 0 0 0 0 0 0 0 0 0 0 0 127 0"/><feOffset dy="-1"/><feGaussianBlur stdDeviation=".5"/><feComposite in2="hardAlpha" k2="-1" k3="1" operator="arithmetic"/><feColorMatrix type="matrix" values="0 0 0 0 0.203922 0 0 0 0 0.380392 0 0 0 0 0.427451 0 0 0 1 0"/><feBlend in2="shape" mode="normal" result="effect1_innerShadow_18_17570"/></filter><filter id="d" color-interpolation-filters="sRGB" filterUnits="userSpaceOnUse" height="11.353" width="27.219" x="2.732" y="11.382"><feFlood flood-opacity="0" result="BackgroundImageFix"/><feBlend in="SourceGraphic" in2="BackgroundImageFix" mode="normal" result="shape"/><feGaussianBlur result="effect1_foregroundBlur_18_17570" stdDeviation=".375"/></filter><filter id="e" color-interpolation-filters="sRGB" filterUnits="userSpaceOnUse" height="13.068" width="14.909" x="12.889" y="3.379"><feFlood flood-opacity="0" result="BackgroundImageFix"/><feBlend in="SourceGraphic" in2="BackgroundImageFix" mode="normal" result="shape"/><feGaussianBlur result="effect1_foregroundBlur_18_17570" stdDeviation="1"/></filter><filter id="f" color-interpolation-filters="sRGB" filterUnits="userSpaceOnUse" height="4.456" width="7.449" x="12.566" y="22.859"><feFlood flood-opacity="0" result="BackgroundImageFix"/><feBlend in="SourceGraphic" in2="BackgroundImageFix" mode="normal" result="shape"/><feColorMatrix in="SourceAlpha" result="hardAlpha" type="matrix" values="0 0 0 0 0 0 0 0 0 0 0 0 0 0 0 0 0 0 127 0"/><feOffset dy=".3"/><feGaussianBlur stdDeviation=".15"/><feComposite in2="hardAlpha" k2="-1" k3="1" operator="arithmetic"/><feColorMatrix type="matrix" values="0 0 0 0 0.545098 0 0 0 0 0.517647 0 0 0 0 0.560784 0 0 0 1 0"/><feBlend in2="shape" mode="normal" result="effect1_innerShadow_18_17570"/></filter><filter id="g" color-interpolation-filters="sRGB" filterUnits="userSpaceOnUse" height="4.037" width="7.359" x="12.677" y="22.919"><feFlood flood-opacity="0" result="BackgroundImageFix"/><feBlend in="SourceGraphic" in2="BackgroundImageFix" mode="normal" result="shape"/><feGaussianBlur result="effect1_foregroundBlur_18_17570" stdDeviation=".15"/></filter><radialGradient id="h" cx="0" cy="0" gradientTransform="matrix(2.71595426 14.03238128 -25.93950398 5.0205667 12.3539 3.13043)" gradientUnits="userSpaceOnUse" r="1"><stop offset="0" stop-color="#4e904b"/><stop offset="1" stop-color="#35664d"/></radialGradient><radialGradient id="i" cx="0" cy="0" gradientTransform="matrix(-4.49998098 8.75000491 -10.04736151 -5.16718975 18.6855 1.18753)" gradientUnits="userSpaceOnUse" r="1"><stop offset="0" stop-color="#62a05f"/><stop offset="1" stop-color="#62a05f" stop-opacity="0"/></radialGradient><linearGradient id="j" gradientUnits="userSpaceOnUse" x1="14.165" x2="16.428" y1="18.521" y2="26.125"><stop offset="0" stop-color="#77444f"/><stop offset="1" stop-color="#9e6168"/></linearGradient><linearGradient id="k" gradientUnits="userSpaceOnUse" x1="19.968" x2="18.985" y1="29.09" y2="29.362"><stop offset=".211" stop-color="#b7827b"/><stop offset="1" stop-color="#9c686b" stop-opacity="0"/></linearGradient><radialGradient id="l" cx="0" cy="0" gradientTransform="matrix(.76951836 2.1274879 -8.53466467 3.08701225 6.10727 18.8377)" gradientUnits="userSpaceOnUse" r="1"><stop offset=".401" stop-color="#617364"/><stop offset="1" stop-color="#617364" stop-opacity="0"/></radialGradient><radialGradient id="m" cx="0" cy="0" gradientTransform="matrix(-1.17691153 -3.34967019 18.21302562 -6.39917324 13.5309 21.0557)" gradientUnits="userSpaceOnUse" r="1"><stop offset=".156" stop-color="#384d6d"/><stop offset="1" stop-color="#384d6d" stop-opacity="0"/></radialGradient><radialGradient id="n" cx="0" cy="0" gradientTransform="matrix(-11.0625308 5.25003679 -1.16103112 -2.44644809 21.623 14.3751)" gradientUnits="userSpaceOnUse" r="1"><stop offset="0" stop-color="#659384"/><stop offset="1" stop-color="#659384" stop-opacity="0"/></radialGradient><radialGradient id="o" cx="0" cy="0" gradientTransform="matrix(-10.68268677 -2.80653638 3.37629488 -12.8513925 25.119 10.9161)" gradientUnits="userSpaceOnUse" r="1"><stop offset=".155" stop-color="#639679"/><stop offset="1" stop-color="#639679" stop-opacity="0"/></radialGradient><linearGradient id="p" gradientUnits="userSpaceOnUse" x1="16.357" x2="16.357" y1="23.638" y2="24.156"><stop offset="0" stop-color="#83495b"/><stop offset="1" stop-color="#83495b" stop-opacity="0"/></linearGradient><linearGradient id="q" gradientUnits="userSpaceOnUse" x1="19.053" x2="18.363" y1="25.741" y2="25.933"><stop offset=".049" stop-color="#4c2327"/><stop offset="1" stop-color="#713f3e" stop-opacity="0"/></linearGradient><linearGradient id="r" gradientUnits="userSpaceOnUse" x1="14.074" x2="14.934" y1="25.695" y2="25.446"><stop offset="0" stop-color="#553f40"/><stop offset="1" stop-color="#754543" stop-opacity="0"/></linearGradient><linearGradient id="s" gradientUnits="userSpaceOnUse" x1="14.186" x2="19.186" y1="27.406" y2="23.281"><stop offset="0" stop-color="#a175c4"/><stop offset="1" stop-color="#a182bc"/></linearGradient><linearGradient id="t" gradientUnits="userSpaceOnUse" x1="20.001" x2="16.845" y1="24.344" y2="26.469"><stop offset=".182" stop-color="#cfc3dd"/><stop offset="1" stop-color="#cfc3dd" stop-opacity="0"/></linearGradient><linearGradient id="u" gradientUnits="userSpaceOnUse" x1="13.345" x2="17.811" y1="26.406" y2="25.344"><stop offset="0" stop-color="#cfc3dd"/><stop offset="1" stop-color="#cfc3dd" stop-opacity="0"/></linearGradient><g filter="url(#a)"><path d="m18.2481 16.0625c3.9233-2.0211 7.349-2.9644 9.8543-3.3447-.0495-.3584-.1146-.7141-.195-1.0661l1.1063-.4642c-1.0968-.329-1.6085-1.32187-1.8681-1.82564l-.0009-.0017c-1.1066-2.48979-3.037-4.63355-5.6469-5.97977-6.0894-3.140981-13.57214-.7508-16.71312 5.33863-.22944.44481-.42936.89705-.60049 1.35448-.22315.4691-.82825 2.1623-1.01427 3.9109-.0765.7191-.08308 1.4516-.08984 2.2039-.01396 1.5524-.02867 3.1893-.66016 4.968.62681.0726 1.72579.1036 2.94854-.0471.07955.1241.16138.247.24548.3685 3.59404-.9944 7.30596-2.6704 12.63416-5.4152z" fill="url(#h)"/><path d="m18.2481 16.0625c3.9233-2.0211 7.349-2.9644 9.8543-3.3447-.0495-.3584-.1146-.7141-.195-1.0661l1.1063-.4642c-1.0968-.329-1.6085-1.32187-1.8681-1.82564l-.0009-.0017c-1.1066-2.48979-3.037-4.63355-5.6469-5.97977-6.0894-3.140981-13.57214-.7508-16.71312 5.33863-.22944.44481-.42936.89705-.60049 1.35448-.22315.4691-.82825 2.1623-1.01427 3.9109-.0765.7191-.08308 1.4516-.08984 2.2039-.01396 1.5524-.02867 3.1893-.66016 4.968.62681.0726 1.72579.1036 2.94854-.0471.07955.1241.16138.247.24548.3685 3.59404-.9944 7.30596-2.6704 12.63416-5.4152z" fill="url(#i)"/></g><g filter="url(#b)"><path d="m12.0322 18.5966 4.5536-1.3167 3.353 11.7602c.1382.4849-.2319.9654-.7361.9555l-3.1889-.063c-.4388-.0086-.8207-.3024-.9416-.7244z" fill="url(#j)"/><path d="m12.0322 18.5966 4.5536-1.3167 3.353 11.7602c.1382.4849-.2319.9654-.7361.9555l-3.1889-.063c-.4388-.0086-.8207-.3024-.9416-.7244z" fill="url(#k)"/></g><g filter="url(#c)" stroke-linecap="round" stroke-width="3"><path d="m3.85742 21.6094c1.14063 0 3.24697-.5274 4.57813-1.0781 4.34375-1.7969 16.87495-8.2969 20.39065-8.0156" stroke="#31715a"/><path d="m3.85742 21.6094c1.14063 0 3.24697-.5274 4.57813-1.0781 4.34375-1.7969 16.87495-8.2969 20.39065-8.0156" stroke="url(#l)"/></g><path d="m3.85742 21.6094c1.14063 0 3.24697-.5274 4.57813-1.0781 4.34375-1.7969 16.87495-8.2969 20.39065-8.0156" stroke="url(#m)" stroke-linecap="round" stroke-width="3"/><g filter="url(#d)"><path d="m3.85742 21.6094c1.14063 0 3.24697-.5274 4.57813-1.0781 4.34375-1.7969 16.87495-8.2969 20.39065-8.0156" stroke="url(#n)" stroke-linecap="round" stroke-width=".75"/></g><g filter="url(#e)"><path d="m19.6418 12.9983c-1.7744.6881-3.9079 1.2524-4.7529 1.4485 0-6.473 6.1562-10.41111 8.1026-8.64575 1.5571 1.4123 2.5198 4.02866 2.8065 5.16035-1.9012.3168-3.9382 1.1769-6.1562 2.0369z" fill="url(#o)"/></g><path d="m14.3186 26.578-.8423-2.9402h4.9221l.8383 2.9402z" fill="url(#p)"/><path d="m14.3186 26.578-.8423-2.9402h4.9221l.8383 2.9402z" fill="url(#q)"/><path d="m14.3186 26.578-.8423-2.9402h4.9221l.8383 2.9402z" fill="url(#r)"/><g filter="url(#f)"><path clip-rule="evenodd" d="m12.6209 24.2987c-.2305-.7106.2993-1.4393 1.0463-1.4393h4.6904c.4915 0 .9234.3261 1.058.7988l.5568 1.9563c.2.7024-.3276 1.4011-1.0579 1.4011h-4.613c-.4767 0-.8993-.3071-1.0463-.7607zm1.3265-.4393c-.2802 0-.3008.3125-.2802.3828l.4364 1.3723c.0134.0412.1289.4011.5117.4011h4.0118c.0664 0 .414-.0468.2874-.4258l-.4281-1.4804c-.0122-.043-.0976-.25-.4179-.25z" fill="url(#s)" fill-rule="evenodd"/></g><g filter="url(#g)" stroke-width=".4"><path d="m13.2151 24.3421c-.1538-.4324.1937-.9233.761-.9233h4.2558c.369 0 .676.2224.769.5203l.5053 1.6179c.1336.428-.2148.8993-.7691.8993h-4.1854c-.3578 0-.6591-.2097-.761-.4962z" stroke="url(#t)"/><path d="m13.2151 24.3421c-.1538-.4324.1937-.9233.761-.9233h4.2558c.369 0 .676.2224.769.5203l.5053 1.6179c.1336.428-.2148.8993-.7691.8993h-4.1854c-.3578 0-.6591-.2097-.761-.4962z" stroke="url(#u)"/></g></svg>