<svg fill="none" height="32" viewBox="0 0 32 32" width="32" xmlns="http://www.w3.org/2000/svg" xmlns:xlink="http://www.w3.org/1999/xlink"><filter id="a" color-interpolation-filters="sRGB" filterUnits="userSpaceOnUse" height="4.211" width="11.046" x="10.515" y="17.797"><feFlood flood-opacity="0" result="BackgroundImageFix"/><feBlend in="SourceGraphic" in2="BackgroundImageFix" mode="normal" result="shape"/><feGaussianBlur result="effect1_foregroundBlur_14396_1066" stdDeviation=".3"/></filter><linearGradient id="b"><stop offset="0" stop-color="#fff478"/><stop offset=".475" stop-color="#ffb02e"/><stop offset="1" stop-color="#f70a8d"/></linearGradient><radialGradient id="c" cx="0" cy="0" gradientTransform="matrix(-25.50001559 27.49994029 -27.49994029 -25.50001559 25.5 9)" gradientUnits="userSpaceOnUse" r="1" xlink:href="#b"/><radialGradient id="d" cx="0" cy="0" gradientTransform="matrix(-26.00007659 28.99995257 -28.99995257 -26.00007659 25.5 9)" gradientUnits="userSpaceOnUse" r="1" xlink:href="#b"/><radialGradient id="e" cx="0" cy="0" gradientTransform="matrix(-3.50002684 17.50002696 -22.41420586 -4.48286864 16 12.5)" gradientUnits="userSpaceOnUse" r="1"><stop offset=".788" stop-color="#f59639" stop-opacity="0"/><stop offset=".973" stop-color="#ff7dce"/></radialGradient><radialGradient id="f" cx="0" cy="0" gradientTransform="matrix(-29.00000473 29.00000473 -29.00000473 -29.00000473 18 14)" gradientUnits="userSpaceOnUse" r="1"><stop offset=".315" stop-opacity="0"/><stop offset="1"/></radialGradient><radialGradient id="g" cx="0" cy="0" gradientTransform="matrix(5.99998476 27.49996659 -27.49996659 5.99998476 16 17)" gradientUnits="userSpaceOnUse" r="1"><stop offset=".508" stop-color="#7d6133" stop-opacity="0"/><stop offset="1" stop-color="#715b32"/></radialGradient><radialGradient id="h" cx="0" cy="0" gradientTransform="matrix(7.49998923 10.99997471 -7.97335607 5.43638383 16.5 16.5)" gradientUnits="userSpaceOnUse" r="1"><stop offset="0" stop-color="#ffb849"/><stop offset="1" stop-color="#ffb847" stop-opacity="0"/></radialGradient><radialGradient id="i" cx="0" cy="0" gradientTransform="matrix(11.49998262 1.99999761 -1.99999761 11.49998262 20.5 18)" gradientUnits="userSpaceOnUse" r="1"><stop offset="0" stop-color="#ffa64b"/><stop offset=".9" stop-color="#ffae46" stop-opacity="0"/></radialGradient><radialGradient id="j" cx="0" cy="0" gradientTransform="matrix(42.50000186 40.99993707 -40.99993707 42.50000186 17.5 15)" gradientUnits="userSpaceOnUse" r="1"><stop offset=".185" stop-opacity="0"/><stop offset="1" stop-opacity=".4"/></radialGradient><linearGradient id="k" gradientUnits="userSpaceOnUse" x1="15.964" x2="15.964" y1="20.786" y2="22.427"><stop offset="0" stop-color="#4b383a"/><stop offset="1" stop-color="#53265d"/></linearGradient><linearGradient id="l" gradientUnits="userSpaceOnUse" x1="10.011" x2="11.136" y1="21.731" y2="21.731"><stop offset="0" stop-color="#503333"/><stop offset="1" stop-color="#503333" stop-opacity="0"/></linearGradient><radialGradient id="m" cx="0" cy="0" gradientTransform="matrix(-1.48453082 .52491277 -.40969598 -1.15868073 21.9675 21.2492)" gradientUnits="userSpaceOnUse" r="1"><stop offset="0" stop-color="#605052"/><stop offset="1" stop-color="#605052" stop-opacity="0"/></radialGradient><path d="m15.9989 29.9978c9.3344 0 13.9989-6.2675 13.9989-13.9989 0-7.73139-4.6645-13.9989-13.9989-13.9989-9.33447 0-13.9989 6.26751-13.9989 13.9989 0 7.7314 4.66443 13.9989 13.9989 13.9989z" fill="url(#c)"/><path d="m15.9989 29.9978c9.3344 0 13.9989-6.2675 13.9989-13.9989 0-7.73139-4.6645-13.9989-13.9989-13.9989-9.33447 0-13.9989 6.26751-13.9989 13.9989 0 7.7314 4.66443 13.9989 13.9989 13.9989z" fill="url(#d)"/><path d="m15.9989 29.9978c9.3344 0 13.9989-6.2675 13.9989-13.9989 0-7.73139-4.6645-13.9989-13.9989-13.9989-9.33447 0-13.9989 6.26751-13.9989 13.9989 0 7.7314 4.66443 13.9989 13.9989 13.9989z" fill="url(#e)"/><path d="m15.9989 29.9978c9.3344 0 13.9989-6.2675 13.9989-13.9989 0-7.73139-4.6645-13.9989-13.9989-13.9989-9.33447 0-13.9989 6.26751-13.9989 13.9989 0 7.7314 4.66443 13.9989 13.9989 13.9989z" fill="url(#f)" fill-opacity=".6"/><path d="m15.9989 29.9978c9.3344 0 13.9989-6.2675 13.9989-13.9989 0-7.73139-4.6645-13.9989-13.9989-13.9989-9.33447 0-13.9989 6.26751-13.9989 13.9989 0 7.7314 4.66443 13.9989 13.9989 13.9989z" fill="url(#g)"/><path d="m15.9989 29.9978c9.3344 0 13.9989-6.2675 13.9989-13.9989 0-7.73139-4.6645-13.9989-13.9989-13.9989-9.33447 0-13.9989 6.26751-13.9989 13.9989 0 7.7314 4.66443 13.9989 13.9989 13.9989z" fill="url(#h)"/><path d="m15.9989 29.9978c9.3344 0 13.9989-6.2675 13.9989-13.9989 0-7.73139-4.6645-13.9989-13.9989-13.9989-9.33447 0-13.9989 6.26751-13.9989 13.9989 0 7.7314 4.66443 13.9989 13.9989 13.9989z" fill="url(#i)"/><path d="m15.9989 29.9978c9.3344 0 13.9989-6.2675 13.9989-13.9989 0-7.73139-4.6645-13.9989-13.9989-13.9989-9.33447 0-13.9989 6.26751-13.9989 13.9989 0 7.7314 4.66443 13.9989 13.9989 13.9989z" fill="url(#j)"/><path d="m16.9978 11.5006c0 2.4855 2.015 4.5005 4.5006 4.5005s4.5005-2.015 4.5005-4.5005c0-2.48563-2.0149-4.5006-4.5005-4.5006s-4.5006 2.01497-4.5006 4.5006z" fill="#fff"/><path d="m14.9989 11.5006c0 2.4855-2.0149 4.5005-4.5005 4.5005-2.48563 0-4.5006-2.015-4.5006-4.5005 0-2.48563 2.01497-4.5006 4.5006-4.5006 2.4856 0 4.5005 2.01497 4.5005 4.5006z" fill="#fff"/><path d="m11.12 14.6908c1.7729 0 3.2102-1.4373 3.2102-3.2102 0-1.77287-1.4373-3.21009-3.2102-3.21009-1.77287 0-3.21009 1.43722-3.21009 3.21009 0 1.7729 1.43722 3.2102 3.21009 3.2102z" fill="#3f2931"/><path d="m20.8769 14.6908c-1.7729 0-3.2102-1.4373-3.2102-3.2102 0-1.77287 1.4373-3.21009 3.2102-3.21009s3.2101 1.43722 3.2101 3.21009c0 1.7729-1.4372 3.2102-3.2101 3.2102z" fill="#3f2931"/><rect fill="url(#k)" height="1.891" rx=".945" transform="matrix(.96328591 -.26847768 .26847768 .96328591 -5.213077 3.450739)" width="11.906" x="10.011" y="20.786"/><rect fill="url(#l)" height="1.891" rx=".945" transform="matrix(.96328591 -.26847768 .26847768 .96328591 -5.213077 3.450739)" width="11.906" x="10.011" y="20.786"/><rect fill="url(#m)" height="1.891" rx=".945" transform="matrix(.96328591 -.26847768 .26847768 .96328591 -5.213077 3.450739)" width="11.906" x="10.011" y="20.786"/><g filter="url(#a)"><path d="m11.1553 21.2632 9.7652-2.7217" stroke="#5c4b51" stroke-width=".3"/></g></svg>