<svg fill="none" height="32" viewBox="0 0 32 32" width="32" xmlns="http://www.w3.org/2000/svg" xmlns:xlink="http://www.w3.org/1999/xlink"><filter id="a" color-interpolation-filters="sRGB" filterUnits="userSpaceOnUse" height="20.153" width="22.598" x="2.342" y="7.515"><feFlood flood-opacity="0" result="BackgroundImageFix"/><feBlend in="SourceGraphic" in2="BackgroundImageFix" mode="normal" result="shape"/><feColorMatrix in="SourceAlpha" result="hardAlpha" type="matrix" values="0 0 0 0 0 0 0 0 0 0 0 0 0 0 0 0 0 0 127 0"/><feOffset dx=".75" dy=".25"/><feGaussianBlur stdDeviation=".5"/><feComposite in2="hardAlpha" k2="-1" k3="1" operator="arithmetic"/><feColorMatrix type="matrix" values="0 0 0 0 0.768627 0 0 0 0 0.603922 0 0 0 0 0.478431 0 0 0 1 0"/><feBlend in2="shape" mode="normal" result="effect1_innerShadow_20020_7122"/></filter><filter id="b" color-interpolation-filters="sRGB" filterUnits="userSpaceOnUse" height="10.665" width="14.807" x="15.128" y="18.774"><feFlood flood-opacity="0" result="BackgroundImageFix"/><feBlend in="SourceGraphic" in2="BackgroundImageFix" mode="normal" result="shape"/><feColorMatrix in="SourceAlpha" result="hardAlpha" type="matrix" values="0 0 0 0 0 0 0 0 0 0 0 0 0 0 0 0 0 0 127 0"/><feOffset dx=".5" dy="-2"/><feGaussianBlur stdDeviation="1.5"/><feComposite in2="hardAlpha" k2="-1" k3="1" operator="arithmetic"/><feColorMatrix type="matrix" values="0 0 0 0 0.772549 0 0 0 0 0.517647 0 0 0 0 0.533333 0 0 0 1 0"/><feBlend in2="shape" mode="normal" result="effect1_innerShadow_20020_7122"/></filter><filter id="c" color-interpolation-filters="sRGB" filterUnits="userSpaceOnUse" height="6.947" width="13.325" x="16.434" y="20.66"><feFlood flood-opacity="0" result="BackgroundImageFix"/><feBlend in="SourceGraphic" in2="BackgroundImageFix" mode="normal" result="shape"/><feGaussianBlur result="effect1_foregroundBlur_20020_7122" stdDeviation=".75"/></filter><filter id="d" color-interpolation-filters="sRGB" filterUnits="userSpaceOnUse" height="11.405" width="3.813" x="4.608" y="13.961"><feFlood flood-opacity="0" result="BackgroundImageFix"/><feBlend in="SourceGraphic" in2="BackgroundImageFix" mode="normal" result="shape"/><feGaussianBlur result="effect1_foregroundBlur_20020_7122" stdDeviation=".5"/></filter><filter id="e" color-interpolation-filters="sRGB" filterUnits="userSpaceOnUse" height="14.032" width="3.813" x="10.453" y="13.303"><feFlood flood-opacity="0" result="BackgroundImageFix"/><feBlend in="SourceGraphic" in2="BackgroundImageFix" mode="normal" result="shape"/><feGaussianBlur result="effect1_foregroundBlur_20020_7122" stdDeviation=".5"/></filter><filter id="f" color-interpolation-filters="sRGB" filterUnits="userSpaceOnUse" height="6.265" width="7.27" x="7.292" y="8.185"><feFlood flood-opacity="0" result="BackgroundImageFix"/><feBlend in="SourceGraphic" in2="BackgroundImageFix" mode="normal" result="shape"/><feGaussianBlur result="effect1_foregroundBlur_20020_7122" stdDeviation=".75"/></filter><radialGradient id="g" cx="0" cy="0" gradientTransform="matrix(3.22825254 9.08796462 -11.67441761 4.1470197 23 10.8575)" gradientUnits="userSpaceOnUse" r="1"><stop offset=".22" stop-color="#a76553"/><stop offset="1" stop-color="#b37965" stop-opacity="0"/></radialGradient><radialGradient id="h" cx="0" cy="0" gradientTransform="matrix(0 -6.18707 8.35992 0 12.3901 25.9244)" gradientUnits="userSpaceOnUse" r="1"><stop offset="0" stop-color="#b97783"/><stop offset="1" stop-color="#b97783" stop-opacity="0"/></radialGradient><linearGradient id="i" gradientUnits="userSpaceOnUse" x1="8.511" x2="11.261" y1="20.059" y2="20.059"><stop offset="0" stop-color="#b87961"/><stop offset="1" stop-color="#b87961" stop-opacity="0"/></linearGradient><linearGradient id="j" gradientUnits="userSpaceOnUse" x1="14.418" x2="13.27" y1="21.051" y2="21.051"><stop offset="0" stop-color="#c68870"/><stop offset="1" stop-color="#c68870" stop-opacity="0"/></linearGradient><radialGradient id="k" cx="0" cy="0" gradientTransform="matrix(0 11.3466 -6.91977 0 11.6308 16.3917)" gradientUnits="userSpaceOnUse" r="1"><stop offset=".728" stop-color="#ba7686" stop-opacity="0"/><stop offset=".959" stop-color="#b37296"/></radialGradient><radialGradient id="l" cx="0" cy="0" gradientTransform="matrix(0 -8.74168 6.33423 0 11.6308 23.0034)" gradientUnits="userSpaceOnUse" r="1"><stop offset=".822" stop-color="#d19d81" stop-opacity="0"/><stop offset="1" stop-color="#d19d81"/></radialGradient><radialGradient id="m" cx="0" cy="0" gradientTransform="matrix(0 -5.7595 7.31603 0 6.1877 26.3354)" gradientUnits="userSpaceOnUse" r="1"><stop offset="0" stop-color="#bd7e82"/><stop offset="1" stop-color="#bd7e82" stop-opacity="0"/></radialGradient><linearGradient id="n" gradientUnits="userSpaceOnUse" x1="8.865" x2="6.582" y1="22.019" y2="22.019"><stop offset="0" stop-color="#c28469"/><stop offset="1" stop-color="#c28469" stop-opacity="0"/></linearGradient><radialGradient id="o" cx="0" cy="0" gradientTransform="matrix(0 9.42709 -6.45029 0 5.26251 17.2751)" gradientUnits="userSpaceOnUse" r="1"><stop offset=".689" stop-color="#ba7884" stop-opacity="0"/><stop offset="1" stop-color="#b57697"/></radialGradient><linearGradient id="p" gradientUnits="userSpaceOnUse" x1="8.654" x2="8.069" y1="15.54" y2="16.597"><stop offset="0" stop-color="#d09d80"/><stop offset="1" stop-color="#d09d80" stop-opacity="0"/></linearGradient><linearGradient id="q" gradientUnits="userSpaceOnUse" x1="14.307" x2="18.162" y1="22.611" y2="22.611"><stop offset="0" stop-color="#bf8065"/><stop offset="1" stop-color="#bf8065" stop-opacity="0"/></linearGradient><radialGradient id="r" cx="0" cy="0" gradientTransform="matrix(-3.66527 0 0 -6.70115 21.2671 22.3149)" gradientUnits="userSpaceOnUse" r="1"><stop offset="0" stop-color="#edb289"/><stop offset="1" stop-color="#edb289" stop-opacity="0"/></radialGradient><linearGradient id="s" gradientUnits="userSpaceOnUse" x1="14.27" x2="15.158" y1="15.577" y2="17.058"><stop offset="0" stop-color="#c79178"/><stop offset="1" stop-color="#c79178" stop-opacity="0"/></linearGradient><linearGradient id="t" gradientUnits="userSpaceOnUse" x1="15.394" x2="15.394" y1="27.183" y2="23.715"><stop offset="0" stop-color="#ad717b"/><stop offset="1" stop-color="#ad717b" stop-opacity="0"/></linearGradient><radialGradient id="u" cx="0" cy="0" gradientTransform="matrix(-.48713497 -13.25835393 7.21942869 -.26525436 27.3758 21.688)" gradientUnits="userSpaceOnUse" r="1"><stop offset=".018" stop-color="#fac19d"/><stop offset=".577" stop-color="#dc9d80"/></radialGradient><radialGradient id="v" cx="0" cy="0" gradientTransform="matrix(0 -6.46536 1.87897 0 21.2522 21.7623)" gradientUnits="userSpaceOnUse" r="1"><stop offset=".141" stop-color="#d39166"/><stop offset="1" stop-color="#d39166" stop-opacity="0"/></radialGradient><radialGradient id="w" cx="0" cy="0" gradientTransform="matrix(3.24519301 3.78399897 -11.40459368 9.78068651 20.9116 13.9664)" gradientUnits="userSpaceOnUse" r="1"><stop offset=".226" stop-color="#b57467"/><stop offset="1" stop-color="#b57467" stop-opacity="0"/></radialGradient><radialGradient id="x" cx="0" cy="0" gradientTransform="matrix(1.76109979 -6.01352947 6.78822209 1.98797338 26.3242 23.6563)" gradientUnits="userSpaceOnUse" r="1"><stop offset=".384" stop-color="#ffcba2"/><stop offset=".508" stop-color="#ffcba2" stop-opacity="0"/></radialGradient><radialGradient id="y" cx="0" cy="0" gradientTransform="matrix(6.04842 0 0 1.15509 23.1127 21.0336)" gradientUnits="userSpaceOnUse" r="1"><stop offset=".183" stop-color="#ce8b61"/><stop offset="1" stop-color="#db9c72" stop-opacity="0"/></radialGradient><radialGradient id="z" cx="0" cy="0" gradientTransform="matrix(-11.7592 0 0 -9.5527 26.6967 25.1067)" gradientUnits="userSpaceOnUse" r="1"><stop offset=".702" stop-color="#c0896d" stop-opacity="0"/><stop offset="1" stop-color="#be8664"/></radialGradient><linearGradient id="A" gradientUnits="userSpaceOnUse" x1="21.489" x2="21.489" y1="29.439" y2="27.705"><stop offset="0" stop-color="#b7749b"/><stop offset="1" stop-color="#c07f85" stop-opacity="0"/></linearGradient><radialGradient id="B" cx="0" cy="0" gradientTransform="matrix(.54128892 1.70900787 -.78537734 .2487502 15.1284 26.5708)" gradientUnits="userSpaceOnUse" r="1"><stop offset="0" stop-color="#ce9486"/><stop offset="1" stop-color="#ce9486" stop-opacity="0"/></radialGradient><radialGradient id="C" cx="0" cy="0" gradientTransform="matrix(0 7.61197 -8.63989 0 28.2336 9.124)" gradientUnits="userSpaceOnUse" r="1"><stop offset=".011" stop-color="#ffceaa"/><stop offset=".453" stop-color="#e3ad8e"/></radialGradient><radialGradient id="D" cx="0" cy="0" gradientTransform="matrix(-9.83928 0 0 -9.61491 28.8393 9.50606)" gradientUnits="userSpaceOnUse" r="1"><stop offset=".576" stop-color="#be9679" stop-opacity="0"/><stop offset="1" stop-color="#be9679"/></radialGradient><radialGradient id="E" cx="0" cy="0" gradientTransform="matrix(.58829011 -6.50180972 9.38012164 .84872259 23.7221 15.5701)" gradientUnits="userSpaceOnUse" r="1"><stop offset="0" stop-color="#b77579"/><stop offset="1" stop-color="#bc7c7f" stop-opacity="0"/></radialGradient><radialGradient id="F" cx="0" cy="0" gradientTransform="matrix(0 11.875 -8.86618 0 24.8198 5.28025)" gradientUnits="userSpaceOnUse" r="1"><stop offset=".776" stop-color="#b9787d" stop-opacity="0"/><stop offset=".872" stop-color="#b77875"/></radialGradient><radialGradient id="G" cx="0" cy="0" gradientTransform="matrix(-8.46077 0 0 -13.4107 27.1095 9.50606)" gradientUnits="userSpaceOnUse" r="1"><stop offset=".835" stop-color="#d0997f" stop-opacity="0"/><stop offset="1" stop-color="#d0997f"/></radialGradient><radialGradient id="H" cx="0" cy="0" gradientTransform="matrix(0 2.96323 -2.65156 0 24.8198 3.44202)" gradientUnits="userSpaceOnUse" r="1"><stop offset="0" stop-color="#d0aa8a"/><stop offset="1" stop-color="#d0aa8a" stop-opacity="0"/></radialGradient><radialGradient id="I" cx="0" cy="0" gradientTransform="matrix(8.25002695 -8.25002695 8.25002695 8.25002695 21.3353 12.9905)" gradientUnits="userSpaceOnUse" r="1"><stop offset=".803" stop-color="#f2c299" stop-opacity="0"/><stop offset="1" stop-color="#edc4a0"/></radialGradient><linearGradient id="J" gradientUnits="userSpaceOnUse" x1="25.924" x2="24.712" y1="26.107" y2="22.958"><stop offset=".228" stop-color="#ffcdac"/><stop offset="1" stop-color="#ffcdac" stop-opacity="0"/></linearGradient><linearGradient id="K" gradientUnits="userSpaceOnUse" x1="6.514" x2="6.514" y1="14.961" y2="24.365"><stop offset=".395" stop-color="#e4af95"/><stop offset="1" stop-color="#e4af95" stop-opacity="0"/></linearGradient><linearGradient id="L" gradientUnits="userSpaceOnUse" x1="12.359" x2="12.359" y1="14.303" y2="26.335"><stop offset=".395" stop-color="#d8a28c"/><stop offset=".758" stop-color="#d8a28c" stop-opacity="0"/></linearGradient><g filter="url(#a)"><path d="m17.1489 7.51495c1.1144 0 2.569.68136 3.0434 1.04474l3.9973.1817v18.50251l-7.2678.1741c-1.3809 0-1.9078-.8327-2.2258-1.6125-.2271.4845-1.181 1.4914-2.8465 1.4914-2.23364 0-3.02823-1.7791-3.24778-2.468-.32301.5249-1.21129 1.5065-2.88439 1.5065-2.62699 0-3.40171-2.3872-3.36132-3.4976v-7.0709c-.07066-.646.08479-2.1622 1.27185-3.0585 1.48384-1.1205 2.15003-.8328 3.755-1.9684 1.46112-1.21884 1.84724-1.48381 2.93744-1.75635.9766-.18927 1.9776.0753 3.4067-.26497 1.2238-.29137 2.0289-1.20373 3.4219-1.20373z" fill="#d09c80"/><path d="m17.1489 7.51495c1.1144 0 2.569.68136 3.0434 1.04474l3.9973.1817v18.50251l-7.2678.1741c-1.3809 0-1.9078-.8327-2.2258-1.6125-.2271.4845-1.181 1.4914-2.8465 1.4914-2.23364 0-3.02823-1.7791-3.24778-2.468-.32301.5249-1.21129 1.5065-2.88439 1.5065-2.62699 0-3.40171-2.3872-3.36132-3.4976v-7.0709c-.07066-.646.08479-2.1622 1.27185-3.0585 1.48384-1.1205 2.15003-.8328 3.755-1.9684 1.46112-1.21884 1.84724-1.48381 2.93744-1.75635.9766-.18927 1.9776.0753 3.4067-.26497 1.2238-.29137 2.0289-1.20373 3.4219-1.20373z" fill="url(#g)"/></g><path d="m15.0395 26.4732c-.1423-.2128-.2516-.4425-.3435-.6677-.2271.4845-1.181 1.4914-2.8465 1.4914-2.23364 0-3.02823-1.7791-3.24778-2.468-.0192.0312-.04039.064-.06363.0981-.02271-.736-.02981-1.5544-.02601-1.7314v-10.2259l5.99592 2.6846v8.4588c0 .556.4005 1.2959.6237 1.7083.0673.1245.1186.2191.1378.2698-.0398.098-.1185.2302-.23.382z" fill="url(#h)"/><path d="m15.0395 26.4732c-.1423-.2128-.2516-.4425-.3435-.6677-.2271.4845-1.181 1.4914-2.8465 1.4914-2.23364 0-3.02823-1.7791-3.24778-2.468-.0192.0312-.04039.064-.06363.0981-.02271-.736-.02981-1.5544-.02601-1.7314v-10.2259l5.99592 2.6846v8.4588c0 .556.4005 1.2959.6237 1.7083.0673.1245.1186.2191.1378.2698-.0398.098-.1185.2302-.23.382z" fill="url(#i)"/><path d="m15.0395 26.4732c-.1423-.2128-.2516-.4425-.3435-.6677-.2271.4845-1.181 1.4914-2.8465 1.4914-2.23364 0-3.02823-1.7791-3.24778-2.468-.0192.0312-.04039.064-.06363.0981-.02271-.736-.02981-1.5544-.02601-1.7314v-10.2259l5.99592 2.6846v8.4588c0 .556.4005 1.2959.6237 1.7083.0673.1245.1186.2191.1378.2698-.0398.098-.1185.2302-.23.382z" fill="url(#j)"/><path d="m15.0395 26.4732c-.1423-.2128-.2516-.4425-.3435-.6677-.2271.4845-1.181 1.4914-2.8465 1.4914-2.23364 0-3.02823-1.7791-3.24778-2.468-.0192.0312-.04039.064-.06363.0981-.02271-.736-.02981-1.5544-.02601-1.7314v-10.2259l5.99592 2.6846v8.4588c0 .556.4005 1.2959.6237 1.7083.0673.1245.1186.2191.1378.2698-.0398.098-.1185.2302-.23.382z" fill="url(#k)"/><path d="m15.0395 26.4732c-.1423-.2128-.2516-.4425-.3435-.6677-.2271.4845-1.181 1.4914-2.8465 1.4914-2.23364 0-3.02823-1.7791-3.24778-2.468-.0192.0312-.04039.064-.06363.0981-.02271-.736-.02981-1.5544-.02601-1.7314v-10.2259l5.99592 2.6846v8.4588c0 .556.4005 1.2959.6237 1.7083.0673.1245.1186.2191.1378.2698-.0398.098-.1185.2302-.23.382z" fill="url(#l)"/><path d="m8.6017 24.8289c.01482.0465.03227.098.0526.1536-.01735-.0474-.03261-.0921-.04592-.1331-.07809-.4085-.10254-.7713-.09613-1.0274v-8.2823l-6.15627.6512v6.6469c-.04038 1.1104.73433 3.4976 3.36132 3.4976 1.6731 0 2.56138-.9816 2.8844-1.5065z" fill="url(#m)"/><path d="m8.6017 24.8289c.01482.0465.03227.098.0526.1536-.01735-.0474-.03261-.0921-.04592-.1331-.07809-.4085-.10254-.7713-.09613-1.0274v-8.2823l-6.15627.6512v6.6469c-.04038 1.1104.73433 3.4976 3.36132 3.4976 1.6731 0 2.56138-.9816 2.8844-1.5065z" fill="url(#n)"/><path d="m8.6017 24.8289c.01482.0465.03227.098.0526.1536-.01735-.0474-.03261-.0921-.04592-.1331-.07809-.4085-.10254-.7713-.09613-1.0274v-8.2823l-6.15627.6512v6.6469c-.04038 1.1104.73433 3.4976 3.36132 3.4976 1.6731 0 2.56138-.9816 2.8844-1.5065z" fill="url(#o)"/><path d="m8.6017 24.8289c.01482.0465.03227.098.0526.1536-.01735-.0474-.03261-.0921-.04592-.1331-.07809-.4085-.10254-.7713-.09613-1.0274v-8.2823l-6.15627.6512v6.6469c-.04038 1.1104.73433 3.4976 3.36132 3.4976 1.6731 0 2.56138-.9816 2.8844-1.5065z" fill="url(#p)"/><path d="m14.6945 25.8087.0015-.0032c.0068.0164.0135.0328.0204.0493.0049.0095.0097.0182.0143.0262.007.0119.0135.0221.0196.0305v.0226c.324.74.8663 1.4839 2.1715 1.4839l7.2677-.1741v-11.053l-9.6814-.3365v8.755c0 .6211.1037 1.0115.1864 1.1993z" fill="url(#q)"/><path d="m14.6945 25.8087.0015-.0032c.0068.0164.0135.0328.0204.0493.0049.0095.0097.0182.0143.0262.007.0119.0135.0221.0196.0305v.0226c.324.74.8663 1.4839 2.1715 1.4839l7.2677-.1741v-11.053l-9.6814-.3365v8.755c0 .6211.1037 1.0115.1864 1.1993z" fill="url(#r)"/><path d="m14.6945 25.8087.0015-.0032c.0068.0164.0135.0328.0204.0493.0049.0095.0097.0182.0143.0262.007.0119.0135.0221.0196.0305v.0226c.324.74.8663 1.4839 2.1715 1.4839l7.2677-.1741v-11.053l-9.6814-.3365v8.755c0 .6211.1037 1.0115.1864 1.1993z" fill="url(#s)"/><path d="m14.6945 25.8087.0015-.0032c.0068.0164.0135.0328.0204.0493.0049.0095.0097.0182.0143.0262.007.0119.0135.0221.0196.0305v.0226c.324.74.8663 1.4839 2.1715 1.4839l7.2677-.1741v-11.053l-9.6814-.3365v8.755c0 .6211.1037 1.0115.1864 1.1993z" fill="url(#t)"/><path d="m21.4036 24.0037c0-3.1009-.0706-8.1763-.1514-10.3263l7.0104-2.1803c.751 3.973 1.0346 10.0133 1.1356 12.5066z" fill="url(#u)"/><path d="m21.4036 24.0037c0-3.1009-.0706-8.1763-.1514-10.3263l7.0104-2.1803c.751 3.973 1.0346 10.0133 1.1356 12.5066z" fill="url(#v)"/><path d="m21.4036 24.0037c0-3.1009-.0706-8.1763-.1514-10.3263l7.0104-2.1803c.751 3.973 1.0346 10.0133 1.1356 12.5066z" fill="url(#w)"/><path d="m21.4036 24.0037c0-3.1009-.0706-8.1763-.1514-10.3263l7.0104-2.1803c.751 3.973 1.0346 10.0133 1.1356 12.5066z" fill="url(#x)"/><g filter="url(#b)"><path d="m24.304 21.1117c-.6145.3029-.9539.6057-1.4839.6057h-3.8813c-1.3857 0-3.8104 1.1659-3.8104 3.9064 0 2.7406 2.362 3.8156 3.8104 3.8156h4.398c4.5859 0 5.7385-2.6649 5.9946-3.8156.256-1.1507.1506-3.4067-1.5815-4.3758-1.257-.7032-2.6778-.5148-3.4459-.1363z" fill="#e9b18a"/><path d="m24.304 21.1117c-.6145.3029-.9539.6057-1.4839.6057h-3.8813c-1.3857 0-3.8104 1.1659-3.8104 3.9064 0 2.7406 2.362 3.8156 3.8104 3.8156h4.398c4.5859 0 5.7385-2.6649 5.9946-3.8156.256-1.1507.1506-3.4067-1.5815-4.3758-1.257-.7032-2.6778-.5148-3.4459-.1363z" fill="url(#y)"/></g><path d="m24.304 21.1117c-.6145.3029-.9539.6057-1.4839.6057h-3.8813c-1.3857 0-3.8104 1.1659-3.8104 3.9064 0 2.7406 2.362 3.8156 3.8104 3.8156h4.398c4.5859 0 5.7385-2.6649 5.9946-3.8156.256-1.1507.1506-3.4067-1.5815-4.3758-1.257-.7032-2.6778-.5148-3.4459-.1363z" fill="url(#z)"/><path d="m24.304 21.1117c-.6145.3029-.9539.6057-1.4839.6057h-3.8813c-1.3857 0-3.8104 1.1659-3.8104 3.9064 0 2.7406 2.362 3.8156 3.8104 3.8156h4.398c4.5859 0 5.7385-2.6649 5.9946-3.8156.256-1.1507.1506-3.4067-1.5815-4.3758-1.257-.7032-2.6778-.5148-3.4459-.1363z" fill="url(#A)"/><path d="m24.304 21.1117c-.6145.3029-.9539.6057-1.4839.6057h-3.8813c-1.3857 0-3.8104 1.1659-3.8104 3.9064 0 2.7406 2.362 3.8156 3.8104 3.8156h4.398c4.5859 0 5.7385-2.6649 5.9946-3.8156.256-1.1507.1506-3.4067-1.5815-4.3758-1.257-.7032-2.6778-.5148-3.4459-.1363z" fill="url(#B)"/><rect fill="url(#C)" height="12.128" rx="5.426" width="10.852" x="19.394" y="3.442"/><rect fill="url(#D)" height="12.128" rx="5.426" width="10.852" x="19.394" y="3.442"/><rect fill="url(#E)" height="12.128" rx="5.426" width="10.852" x="19.394" y="3.442"/><rect fill="url(#F)" height="12.128" rx="5.426" width="10.852" x="19.394" y="3.442"/><rect fill="url(#G)" height="12.128" rx="5.426" width="10.852" x="19.394" y="3.442"/><rect fill="url(#H)" height="12.128" rx="5.426" width="10.852" x="19.394" y="3.442"/><rect fill="url(#I)" height="12.128" rx="5.426" width="10.852" x="19.394" y="3.442"/><g filter="url(#c)"><path d="m21.7727 24.0724h-2.8218c-.5619 0-1.0173.4554-1.0173 1.0172 0 .5619.4547 1.0173 1.0165 1.0173h5.5028c2.6801 0 3.8753-.778 3.8029-2.496-.0725-1.7181-2.3104-2.0445-3.8029-.2489-.6616.7958-2.2214.6671-2.6802.7104z" fill="url(#J)"/></g><g filter="url(#d)"><rect fill="url(#K)" height="9.405" rx=".906" width="1.813" x="5.608" y="14.961"/></g><g filter="url(#e)"><rect fill="url(#L)" height="12.032" rx=".906" width="1.813" x="11.453" y="14.303"/></g><g filter="url(#f)"><path d="m10.9727 9.77101c-1.00424.17072-1.87752.94889-2.18034 1.39299l2.93734 1.7867 1.3325-2.96772c-.7571-.36339-1.3325-.34068-2.0895-.21197z" fill="#dba887"/></g></svg>