<svg fill="none" height="32" viewBox="0 0 32 32" width="32" xmlns="http://www.w3.org/2000/svg" xmlns:xlink="http://www.w3.org/1999/xlink"><filter id="a" color-interpolation-filters="sRGB" filterUnits="userSpaceOnUse" height="20.153" width="22.598" x="2.447" y="8.102"><feFlood flood-opacity="0" result="BackgroundImageFix"/><feBlend in="SourceGraphic" in2="BackgroundImageFix" mode="normal" result="shape"/><feColorMatrix in="SourceAlpha" result="hardAlpha" type="matrix" values="0 0 0 0 0 0 0 0 0 0 0 0 0 0 0 0 0 0 127 0"/><feOffset dx=".75" dy=".25"/><feGaussianBlur stdDeviation=".5"/><feComposite in2="hardAlpha" k2="-1" k3="1" operator="arithmetic"/><feColorMatrix type="matrix" values="0 0 0 0 0.839216 0 0 0 0 0.666667 0 0 0 0 0.564706 0 0 0 1 0"/><feBlend in2="shape" mode="normal" result="effect1_innerShadow_20020_7135"/></filter><filter id="b" color-interpolation-filters="sRGB" filterUnits="userSpaceOnUse" height="10.665" width="14.807" x="15.233" y="19.361"><feFlood flood-opacity="0" result="BackgroundImageFix"/><feBlend in="SourceGraphic" in2="BackgroundImageFix" mode="normal" result="shape"/><feColorMatrix in="SourceAlpha" result="hardAlpha" type="matrix" values="0 0 0 0 0 0 0 0 0 0 0 0 0 0 0 0 0 0 127 0"/><feOffset dx=".5" dy="-2"/><feGaussianBlur stdDeviation="1.5"/><feComposite in2="hardAlpha" k2="-1" k3="1" operator="arithmetic"/><feColorMatrix type="matrix" values="0 0 0 0 0.827451 0 0 0 0 0.6 0 0 0 0 0.627451 0 0 0 1 0"/><feBlend in2="shape" mode="normal" result="effect1_innerShadow_20020_7135"/></filter><filter id="c" color-interpolation-filters="sRGB" filterUnits="userSpaceOnUse" height="6.947" width="13.325" x="16.539" y="21.247"><feFlood flood-opacity="0" result="BackgroundImageFix"/><feBlend in="SourceGraphic" in2="BackgroundImageFix" mode="normal" result="shape"/><feGaussianBlur result="effect1_foregroundBlur_20020_7135" stdDeviation=".75"/></filter><filter id="d" color-interpolation-filters="sRGB" filterUnits="userSpaceOnUse" height="11.405" width="3.813" x="4.713" y="14.548"><feFlood flood-opacity="0" result="BackgroundImageFix"/><feBlend in="SourceGraphic" in2="BackgroundImageFix" mode="normal" result="shape"/><feGaussianBlur result="effect1_foregroundBlur_20020_7135" stdDeviation=".5"/></filter><filter id="e" color-interpolation-filters="sRGB" filterUnits="userSpaceOnUse" height="14.032" width="3.813" x="10.558" y="13.89"><feFlood flood-opacity="0" result="BackgroundImageFix"/><feBlend in="SourceGraphic" in2="BackgroundImageFix" mode="normal" result="shape"/><feGaussianBlur result="effect1_foregroundBlur_20020_7135" stdDeviation=".5"/></filter><filter id="f" color-interpolation-filters="sRGB" filterUnits="userSpaceOnUse" height="6.265" width="7.27" x="7.397" y="8.773"><feFlood flood-opacity="0" result="BackgroundImageFix"/><feBlend in="SourceGraphic" in2="BackgroundImageFix" mode="normal" result="shape"/><feGaussianBlur result="effect1_foregroundBlur_20020_7135" stdDeviation=".75"/></filter><radialGradient id="g" cx="0" cy="0" gradientTransform="matrix(3.22825254 9.08796462 -11.67441761 4.1470197 23.105 11.4448)" gradientUnits="userSpaceOnUse" r="1"><stop offset=".22" stop-color="#c07a69"/><stop offset="1" stop-color="#c88f7e" stop-opacity="0"/></radialGradient><radialGradient id="h" cx="0" cy="0" gradientTransform="matrix(0 -7.375 9.96504 0 11.625 27.4375)" gradientUnits="userSpaceOnUse" r="1"><stop offset="0" stop-color="#c68c95"/><stop offset="1" stop-color="#c68c95" stop-opacity="0"/></radialGradient><linearGradient id="i" gradientUnits="userSpaceOnUse" x1="8.616" x2="11.366" y1="20.646" y2="20.646"><stop offset="0" stop-color="#ce917b"/><stop offset="1" stop-color="#ce917b" stop-opacity="0"/></linearGradient><linearGradient id="j" gradientUnits="userSpaceOnUse" x1="14.523" x2="13.375" y1="21.639" y2="21.639"><stop offset="0" stop-color="#d49388"/><stop offset="1" stop-color="#e5aa9d" stop-opacity="0"/></linearGradient><radialGradient id="k" cx="0" cy="0" gradientTransform="matrix(0 11.3466 -6.91977 0 11.7358 16.979)" gradientUnits="userSpaceOnUse" r="1"><stop offset=".728" stop-color="#b9798b" stop-opacity="0"/><stop offset=".959" stop-color="#b4778a"/></radialGradient><radialGradient id="l" cx="0" cy="0" gradientTransform="matrix(0 -8.74168 6.33423 0 11.7358 23.5907)" gradientUnits="userSpaceOnUse" r="1"><stop offset=".822" stop-color="#e6b39e" stop-opacity="0"/><stop offset="1" stop-color="#e6b39e"/></radialGradient><radialGradient id="m" cx="0" cy="0" gradientTransform="matrix(0 -5.7595 7.31603 0 6.29268 26.9228)" gradientUnits="userSpaceOnUse" r="1"><stop offset="0" stop-color="#c38891"/><stop offset="1" stop-color="#c38891" stop-opacity="0"/></radialGradient><linearGradient id="n" gradientUnits="userSpaceOnUse" x1="8.97" x2="6.687" y1="22.606" y2="22.606"><stop offset="0" stop-color="#d89883"/><stop offset="1" stop-color="#e9b2a2" stop-opacity="0"/></linearGradient><radialGradient id="o" cx="0" cy="0" gradientTransform="matrix(0 9.42709 -6.45029 0 5.36749 17.8624)" gradientUnits="userSpaceOnUse" r="1"><stop offset=".689" stop-color="#c58a92" stop-opacity="0"/><stop offset="1" stop-color="#b87e96"/></radialGradient><linearGradient id="p" gradientUnits="userSpaceOnUse" x1="8.759" x2="8.174" y1="16.127" y2="17.184"><stop offset="0" stop-color="#e6b39e"/><stop offset="1" stop-color="#e6b39e" stop-opacity="0"/></linearGradient><linearGradient id="q" gradientUnits="userSpaceOnUse" x1="14.412" x2="18.267" y1="23.198" y2="23.198"><stop offset="0" stop-color="#d19281"/><stop offset="1" stop-color="#d29a8c" stop-opacity="0"/></linearGradient><radialGradient id="r" cx="0" cy="0" gradientTransform="matrix(-3.66527 0 0 -6.70115 21.3721 22.9023)" gradientUnits="userSpaceOnUse" r="1"><stop offset="0" stop-color="#ffccad"/><stop offset="1" stop-color="#ffccad" stop-opacity="0"/></radialGradient><linearGradient id="s" gradientUnits="userSpaceOnUse" x1="14.375" x2="15.263" y1="16.164" y2="17.645"><stop offset="0" stop-color="#dda793"/><stop offset="1" stop-color="#dda793" stop-opacity="0"/></linearGradient><linearGradient id="t" gradientUnits="userSpaceOnUse" x1="15.499" x2="15.499" y1="27.771" y2="24.302"><stop offset="0" stop-color="#b87e84"/><stop offset="1" stop-color="#b87e84" stop-opacity="0"/></linearGradient><radialGradient id="u" cx="0" cy="0" gradientTransform="matrix(-.48713497 -13.25835393 7.21942869 -.26525436 27.4808 22.2753)" gradientUnits="userSpaceOnUse" r="1"><stop offset=".018" stop-color="#ffd7bb"/><stop offset=".577" stop-color="#fdbfa8"/></radialGradient><radialGradient id="v" cx="0" cy="0" gradientTransform="matrix(0 -6.46536 1.87897 0 21.3572 22.3496)" gradientUnits="userSpaceOnUse" r="1"><stop offset=".141" stop-color="#f7ac87"/><stop offset="1" stop-color="#d39166" stop-opacity="0"/><stop offset="1" stop-color="#f7ac87" stop-opacity="0"/></radialGradient><radialGradient id="w" cx="0" cy="0" gradientTransform="matrix(3.24519301 3.78399897 -11.40459368 9.78068651 21.0166 14.5537)" gradientUnits="userSpaceOnUse" r="1"><stop offset=".226" stop-color="#cb8677"/><stop offset="1" stop-color="#b57467" stop-opacity="0"/><stop offset="1" stop-color="#cb8677" stop-opacity="0"/></radialGradient><radialGradient id="x" cx="0" cy="0" gradientTransform="matrix(1.76109979 -6.01352947 6.78822209 1.98797338 26.4292 24.2436)" gradientUnits="userSpaceOnUse" r="1"><stop offset=".384" stop-color="#ffe1c1"/><stop offset=".508" stop-color="#ffe1c1" stop-opacity="0"/></radialGradient><radialGradient id="y" cx="0" cy="0" gradientTransform="matrix(6.04842 0 0 1.15509 23.2177 21.621)" gradientUnits="userSpaceOnUse" r="1"><stop offset=".183" stop-color="#efa580"/><stop offset="1" stop-color="#f9b490" stop-opacity="0"/></radialGradient><radialGradient id="z" cx="0" cy="0" gradientTransform="matrix(-11.7592 0 0 -9.5527 26.8017 25.694)" gradientUnits="userSpaceOnUse" r="1"><stop offset=".702" stop-color="#dda897" stop-opacity="0"/><stop offset="1" stop-color="#ce9780"/></radialGradient><linearGradient id="A" gradientUnits="userSpaceOnUse" x1="21.594" x2="21.594" y1="30.027" y2="28.293"><stop offset="0" stop-color="#b67c9c"/><stop offset="1" stop-color="#c58999" stop-opacity="0"/></linearGradient><radialGradient id="B" cx="0" cy="0" gradientTransform="matrix(.54128892 1.70900787 -.78537734 .2487502 15.2334 27.1582)" gradientUnits="userSpaceOnUse" r="1"><stop offset="0" stop-color="#d9a196"/><stop offset="1" stop-color="#d9a196" stop-opacity="0"/></radialGradient><radialGradient id="C" cx="0" cy="0" gradientTransform="matrix(0 7.61197 -8.63989 0 28.3386 9.71128)" gradientUnits="userSpaceOnUse" r="1"><stop offset=".011" stop-color="#ffe5c9"/><stop offset=".453" stop-color="#fbcca9"/></radialGradient><radialGradient id="D" cx="0" cy="0" gradientTransform="matrix(-9.83928 0 0 -9.61491 28.9443 10.0933)" gradientUnits="userSpaceOnUse" r="1"><stop offset=".576" stop-color="#ddaf93" stop-opacity="0"/><stop offset="1" stop-color="#cea58d"/></radialGradient><radialGradient id="E" cx="0" cy="0" gradientTransform="matrix(.58829011 -6.50180972 11.59692586 1.0493012 23.8271 16.1574)" gradientUnits="userSpaceOnUse" r="1"><stop offset="0" stop-color="#c38589"/><stop offset="1" stop-color="#d19995" stop-opacity="0"/></radialGradient><radialGradient id="F" cx="0" cy="0" gradientTransform="matrix(0 11.875 -8.86618 0 24.9247 5.86753)" gradientUnits="userSpaceOnUse" r="1"><stop offset=".772" stop-color="#c68d8c" stop-opacity="0"/><stop offset="1" stop-color="#c68d8c"/></radialGradient><radialGradient id="G" cx="0" cy="0" gradientTransform="matrix(-8.46077 0 0 -13.4107 27.2145 10.0933)" gradientUnits="userSpaceOnUse" r="1"><stop offset=".835" stop-color="#dfa893" stop-opacity="0"/><stop offset="1" stop-color="#dfa893"/></radialGradient><radialGradient id="H" cx="0" cy="0" gradientTransform="matrix(8.25002695 -8.25002695 8.25002695 8.25002695 21.4403 13.5778)" gradientUnits="userSpaceOnUse" r="1"><stop offset=".803" stop-color="#ffdcbf" stop-opacity="0"/><stop offset="1" stop-color="#ffdcbf"/></radialGradient><radialGradient id="I" cx="0" cy="0" gradientTransform="matrix(0 2.77735 -3.77731 0 24.9248 3.23948)" gradientUnits="userSpaceOnUse" r="1"><stop offset="0" stop-color="#e7c0a6"/><stop offset="1" stop-color="#f8caa8" stop-opacity="0"/></radialGradient><linearGradient id="J" gradientUnits="userSpaceOnUse" x1="26.029" x2="24.817" y1="26.694" y2="23.546"><stop offset=".228" stop-color="#ffe6cb"/><stop offset="1" stop-color="#ffe6cb" stop-opacity="0"/></linearGradient><linearGradient id="K" gradientUnits="userSpaceOnUse" x1="6.619" x2="6.619" y1="15.548" y2="24.953"><stop offset=".395" stop-color="#f2beab"/><stop offset="1" stop-color="#f2beab" stop-opacity="0"/></linearGradient><linearGradient id="L" gradientUnits="userSpaceOnUse" x1="12.464" x2="12.464" y1="14.89" y2="26.923"><stop offset=".395" stop-color="#eab5a4"/><stop offset=".758" stop-color="#eab5a4" stop-opacity="0"/></linearGradient><g filter="url(#a)"><path d="m17.2539 8.10229c1.1144 0 2.569.68136 3.0434 1.04475l3.9972.18169v18.50247l-7.2677.1742c-1.3809 0-1.9078-.8328-2.2258-1.6126-.2271.4846-1.181 1.4914-2.8465 1.4914-2.23366 0-3.02825-1.779-3.2478-2.468-.32301.5249-1.21129 1.5066-2.88439 1.5066-2.62699 0-3.40171-2.3873-3.36132-3.4976v-7.071c-.07066-.646.08479-2.1621 1.27185-3.0585 1.48384-1.1204 2.15003-.8327 3.755-1.9683 1.46112-1.2189 1.84724-1.48387 2.93736-1.75641.9766-.18927 1.9777.0753 3.4068-.26497 1.2237-.29137 2.0289-1.20373 3.4219-1.20373z" fill="#e6b39e"/><path d="m17.2539 8.10229c1.1144 0 2.569.68136 3.0434 1.04475l3.9972.18169v18.50247l-7.2677.1742c-1.3809 0-1.9078-.8328-2.2258-1.6126-.2271.4846-1.181 1.4914-2.8465 1.4914-2.23366 0-3.02825-1.779-3.2478-2.468-.32301.5249-1.21129 1.5066-2.88439 1.5066-2.62699 0-3.40171-2.3873-3.36132-3.4976v-7.071c-.07066-.646.08479-2.1621 1.27185-3.0585 1.48384-1.1204 2.15003-.8327 3.755-1.9683 1.46112-1.2189 1.84724-1.48387 2.93736-1.75641.9766-.18927 1.9777.0753 3.4068-.26497 1.2237-.29137 2.0289-1.20373 3.4219-1.20373z" fill="url(#g)"/></g><path d="m15.1445 27.0605c-.1423-.2127-.2516-.4424-.3435-.6677-.2271.4845-1.181 1.4914-2.8465 1.4914-2.23366 0-3.02825-1.7791-3.2478-2.468-.0192.0312-.04039.064-.06363.0981-.02271-.7359-.02981-1.5544-.02601-1.7314v-10.2259l5.99584 2.6847v8.4587c0 .556.4005 1.2959.6238 1.7083.0673.1245.1185.2191.1377.2699-.0397.0979-.1184.2302-.2299.3819z" fill="url(#h)"/><path d="m15.1445 27.0605c-.1423-.2127-.2516-.4424-.3435-.6677-.2271.4845-1.181 1.4914-2.8465 1.4914-2.23366 0-3.02825-1.7791-3.2478-2.468-.0192.0312-.04039.064-.06363.0981-.02271-.7359-.02981-1.5544-.02601-1.7314v-10.2259l5.99584 2.6847v8.4587c0 .556.4005 1.2959.6238 1.7083.0673.1245.1185.2191.1377.2699-.0397.0979-.1184.2302-.2299.3819z" fill="url(#i)"/><path d="m15.1445 27.0605c-.1423-.2127-.2516-.4424-.3435-.6677-.2271.4845-1.181 1.4914-2.8465 1.4914-2.23366 0-3.02825-1.7791-3.2478-2.468-.0192.0312-.04039.064-.06363.0981-.02271-.7359-.02981-1.5544-.02601-1.7314v-10.2259l5.99584 2.6847v8.4587c0 .556.4005 1.2959.6238 1.7083.0673.1245.1185.2191.1377.2699-.0397.0979-.1184.2302-.2299.3819z" fill="url(#j)"/><path d="m15.1445 27.0605c-.1423-.2127-.2516-.4424-.3435-.6677-.2271.4845-1.181 1.4914-2.8465 1.4914-2.23366 0-3.02825-1.7791-3.2478-2.468-.0192.0312-.04039.064-.06363.0981-.02271-.7359-.02981-1.5544-.02601-1.7314v-10.2259l5.99584 2.6847v8.4587c0 .556.4005 1.2959.6238 1.7083.0673.1245.1185.2191.1377.2699-.0397.0979-.1184.2302-.2299.3819z" fill="url(#k)"/><path d="m15.1445 27.0605c-.1423-.2127-.2516-.4424-.3435-.6677-.2271.4845-1.181 1.4914-2.8465 1.4914-2.23366 0-3.02825-1.7791-3.2478-2.468-.0192.0312-.04039.064-.06363.0981-.02271-.7359-.02981-1.5544-.02601-1.7314v-10.2259l5.99584 2.6847v8.4587c0 .556.4005 1.2959.6238 1.7083.0673.1245.1185.2191.1377.2699-.0397.0979-.1184.2302-.2299.3819z" fill="url(#l)"/><path d="m8.70668 25.4162c.01482.0466.03227.098.0526.1536-.01735-.0474-.03261-.0921-.04592-.133-.07808-.4086-.10254-.7714-.09613-1.0275v-8.2822l-6.15627.6511v6.647c-.04038 1.1103.73433 3.4976 3.36132 3.4976 1.6731 0 2.56138-.9817 2.8844-1.5066z" fill="url(#m)"/><path d="m8.70668 25.4162c.01482.0466.03227.098.0526.1536-.01735-.0474-.03261-.0921-.04592-.133-.07808-.4086-.10254-.7714-.09613-1.0275v-8.2822l-6.15627.6511v6.647c-.04038 1.1103.73433 3.4976 3.36132 3.4976 1.6731 0 2.56138-.9817 2.8844-1.5066z" fill="url(#n)"/><path d="m8.70668 25.4162c.01482.0466.03227.098.0526.1536-.01735-.0474-.03261-.0921-.04592-.133-.07808-.4086-.10254-.7714-.09613-1.0275v-8.2822l-6.15627.6511v6.647c-.04038 1.1103.73433 3.4976 3.36132 3.4976 1.6731 0 2.56138-.9817 2.8844-1.5066z" fill="url(#o)"/><path d="m8.70668 25.4162c.01482.0466.03227.098.0526.1536-.01735-.0474-.03261-.0921-.04592-.133-.07808-.4086-.10254-.7714-.09613-1.0275v-8.2822l-6.15627.6511v6.647c-.04038 1.1103.73433 3.4976 3.36132 3.4976 1.6731 0 2.56138-.9817 2.8844-1.5066z" fill="url(#p)"/><path d="m14.7995 26.3961.0015-.0033c.0067.0165.0135.0329.0203.0493.005.0095.0097.0183.0144.0262.0069.012.0134.0221.0196.0305v.0227c.324.7399.8662 1.4839 2.1715 1.4839l7.2677-.1741v-11.0531l-9.6815-.3364v8.7549c0 .6211.1038 1.0116.1865 1.1994z" fill="url(#q)"/><path d="m14.7995 26.3961.0015-.0033c.0067.0165.0135.0329.0203.0493.005.0095.0097.0183.0144.0262.0069.012.0134.0221.0196.0305v.0227c.324.7399.8662 1.4839 2.1715 1.4839l7.2677-.1741v-11.0531l-9.6815-.3364v8.7549c0 .6211.1038 1.0116.1865 1.1994z" fill="url(#r)"/><path d="m14.7995 26.3961.0015-.0033c.0067.0165.0135.0329.0203.0493.005.0095.0097.0183.0144.0262.0069.012.0134.0221.0196.0305v.0227c.324.7399.8662 1.4839 2.1715 1.4839l7.2677-.1741v-11.0531l-9.6815-.3364v8.7549c0 .6211.1038 1.0116.1865 1.1994z" fill="url(#s)"/><path d="m14.7995 26.3961.0015-.0033c.0067.0165.0135.0329.0203.0493.005.0095.0097.0183.0144.0262.0069.012.0134.0221.0196.0305v.0227c.324.7399.8662 1.4839 2.1715 1.4839l7.2677-.1741v-11.0531l-9.6815-.3364v8.7549c0 .6211.1038 1.0116.1865 1.1994z" fill="url(#t)"/><path d="m21.5086 24.591c0-3.1009-.0707-8.1762-.1514-10.3263l7.0103-2.1803c.751 3.9731 1.0347 10.0134 1.1356 12.5066z" fill="url(#u)"/><path d="m21.5086 24.591c0-3.1009-.0707-8.1762-.1514-10.3263l7.0103-2.1803c.751 3.9731 1.0347 10.0134 1.1356 12.5066z" fill="url(#v)"/><path d="m21.5086 24.591c0-3.1009-.0707-8.1762-.1514-10.3263l7.0103-2.1803c.751 3.9731 1.0347 10.0134 1.1356 12.5066z" fill="url(#w)"/><path d="m21.5086 24.591c0-3.1009-.0707-8.1762-.1514-10.3263l7.0103-2.1803c.751 3.9731 1.0347 10.0134 1.1356 12.5066z" fill="url(#x)"/><g filter="url(#b)"><path d="m24.409 21.6991c-.6146.3028-.9539.6056-1.4839.6056h-3.8814c-1.3857 0-3.8103 1.1659-3.8103 3.9065 0 2.7405 2.362 3.8155 3.8103 3.8155h4.3981c4.5859 0 5.7385-2.6648 5.9945-3.8155.2561-1.1508.1507-3.4068-1.5814-4.3758-1.257-.7033-2.6778-.5149-3.4459-.1363z" fill="#ffc8a9"/><path d="m24.409 21.6991c-.6146.3028-.9539.6056-1.4839.6056h-3.8814c-1.3857 0-3.8103 1.1659-3.8103 3.9065 0 2.7405 2.362 3.8155 3.8103 3.8155h4.3981c4.5859 0 5.7385-2.6648 5.9945-3.8155.2561-1.1508.1507-3.4068-1.5814-4.3758-1.257-.7033-2.6778-.5149-3.4459-.1363z" fill="url(#y)"/></g><path d="m24.409 21.6991c-.6146.3028-.9539.6056-1.4839.6056h-3.8814c-1.3857 0-3.8103 1.1659-3.8103 3.9065 0 2.7405 2.362 3.8155 3.8103 3.8155h4.3981c4.5859 0 5.7385-2.6648 5.9945-3.8155.2561-1.1508.1507-3.4068-1.5814-4.3758-1.257-.7033-2.6778-.5149-3.4459-.1363z" fill="url(#z)"/><path d="m24.409 21.6991c-.6146.3028-.9539.6056-1.4839.6056h-3.8814c-1.3857 0-3.8103 1.1659-3.8103 3.9065 0 2.7405 2.362 3.8155 3.8103 3.8155h4.3981c4.5859 0 5.7385-2.6648 5.9945-3.8155.2561-1.1508.1507-3.4068-1.5814-4.3758-1.257-.7033-2.6778-.5149-3.4459-.1363z" fill="url(#A)"/><path d="m24.409 21.6991c-.6146.3028-.9539.6056-1.4839.6056h-3.8814c-1.3857 0-3.8103 1.1659-3.8103 3.9065 0 2.7405 2.362 3.8155 3.8103 3.8155h4.3981c4.5859 0 5.7385-2.6648 5.9945-3.8155.2561-1.1508.1507-3.4068-1.5814-4.3758-1.257-.7033-2.6778-.5149-3.4459-.1363z" fill="url(#B)"/><rect fill="url(#C)" height="12.128" rx="5.426" width="10.852" x="19.498" y="4.029"/><rect fill="url(#D)" height="12.128" rx="5.426" width="10.852" x="19.498" y="4.029"/><rect fill="url(#E)" height="12.128" rx="5.426" width="10.852" x="19.498" y="4.029"/><rect fill="url(#F)" height="12.128" rx="5.426" width="10.852" x="19.498" y="4.029"/><rect fill="url(#G)" height="12.128" rx="5.426" width="10.852" x="19.498" y="4.029"/><rect fill="url(#H)" height="12.128" rx="5.426" width="10.852" x="19.498" y="4.029"/><rect fill="url(#I)" height="12.128" rx="5.426" width="10.852" x="19.498" y="4.029"/><g filter="url(#c)"><path d="m21.8777 24.6597h-2.8218c-.5619 0-1.0173.4555-1.0173 1.0173s.4547 1.0173 1.0165 1.0173h5.5027c2.6802 0 3.8754-.778 3.8029-2.4961-.0724-1.7181-2.3103-2.0444-3.8029-.2489-.6615.7959-2.2213.6672-2.6801.7104z" fill="url(#J)"/></g><g filter="url(#d)"><rect fill="url(#K)" height="9.405" rx=".906" width="1.813" x="5.713" y="15.548"/></g><g filter="url(#e)"><rect fill="url(#L)" height="12.032" rx=".906" width="1.813" x="11.558" y="14.89"/></g><g filter="url(#f)"><path d="m11.0777 10.3583c-1.0043.1708-1.87754.9489-2.18036 1.393l2.93736 1.7867 1.3325-2.9677c-.7571-.3634-1.3325-.3407-2.0895-.212z" fill="#edbca2"/></g></svg>