<svg fill="none" height="32" viewBox="0 0 32 32" width="32" xmlns="http://www.w3.org/2000/svg" xmlns:xlink="http://www.w3.org/1999/xlink"><filter id="a" color-interpolation-filters="sRGB" filterUnits="userSpaceOnUse" height="24.039" width="28.465" x="1.817" y="3.827"><feFlood flood-opacity="0" result="BackgroundImageFix"/><feBlend in="SourceGraphic" in2="BackgroundImageFix" mode="normal" result="shape"/><feColorMatrix in="SourceAlpha" result="hardAlpha" type="matrix" values="0 0 0 0 0 0 0 0 0 0 0 0 0 0 0 0 0 0 127 0"/><feOffset dx=".25" dy="-1"/><feGaussianBlur stdDeviation="1"/><feComposite in2="hardAlpha" k2="-1" k3="1" operator="arithmetic"/><feColorMatrix type="matrix" values="0 0 0 0 0.486275 0 0 0 0 0.258824 0 0 0 0 0.427451 0 0 0 1 0"/><feBlend in2="shape" mode="normal" result="effect1_innerShadow_20020_6918"/><feColorMatrix in="SourceAlpha" result="hardAlpha" type="matrix" values="0 0 0 0 0 0 0 0 0 0 0 0 0 0 0 0 0 0 127 0"/><feOffset dx=".5" dy="-.25"/><feGaussianBlur stdDeviation=".5"/><feComposite in2="hardAlpha" k2="-1" k3="1" operator="arithmetic"/><feColorMatrix type="matrix" values="0 0 0 0 0.403922 0 0 0 0 0.25098 0 0 0 0 0.247059 0 0 0 1 0"/><feBlend in2="effect1_innerShadow_20020_6918" mode="normal" result="effect2_innerShadow_20020_6918"/></filter><filter id="b" color-interpolation-filters="sRGB" filterUnits="userSpaceOnUse" height="3.347" width="3.163" x="14.648" y="13.138"><feFlood flood-opacity="0" result="BackgroundImageFix"/><feBlend in="SourceGraphic" in2="BackgroundImageFix" mode="normal" result="shape"/><feGaussianBlur result="effect1_foregroundBlur_20020_6918" stdDeviation=".15"/></filter><filter id="c" color-interpolation-filters="sRGB" filterUnits="userSpaceOnUse" height="3.483" width="3.631" x="14.129" y="17.214"><feFlood flood-opacity="0" result="BackgroundImageFix"/><feBlend in="SourceGraphic" in2="BackgroundImageFix" mode="normal" result="shape"/><feGaussianBlur result="effect1_foregroundBlur_20020_6918" stdDeviation=".15"/></filter><filter id="d" color-interpolation-filters="sRGB" filterUnits="userSpaceOnUse" height="3.679" width="3.353" x="14.836" y="21.572"><feFlood flood-opacity="0" result="BackgroundImageFix"/><feBlend in="SourceGraphic" in2="BackgroundImageFix" mode="normal" result="shape"/><feGaussianBlur result="effect1_foregroundBlur_20020_6918" stdDeviation=".15"/></filter><filter id="e" color-interpolation-filters="sRGB" filterUnits="userSpaceOnUse" height="16.916" width="6.246" x="13.694" y="10.28"><feFlood flood-opacity="0" result="BackgroundImageFix"/><feBlend in="SourceGraphic" in2="BackgroundImageFix" mode="normal" result="shape"/><feGaussianBlur result="effect1_foregroundBlur_20020_6918" stdDeviation=".75"/></filter><filter id="f" color-interpolation-filters="sRGB" filterUnits="userSpaceOnUse" height="9.153" width="12.792" x="13.198" y="4.502"><feFlood flood-opacity="0" result="BackgroundImageFix"/><feBlend in="SourceGraphic" in2="BackgroundImageFix" mode="normal" result="shape"/><feGaussianBlur result="effect1_foregroundBlur_20020_6918" stdDeviation=".625"/></filter><filter id="g" color-interpolation-filters="sRGB" filterUnits="userSpaceOnUse" height="4.713" width="14.446" x="4.013" y="9.741"><feFlood flood-opacity="0" result="BackgroundImageFix"/><feBlend in="SourceGraphic" in2="BackgroundImageFix" mode="normal" result="shape"/><feGaussianBlur result="effect1_foregroundBlur_20020_6918" stdDeviation=".75"/></filter><filter id="h" color-interpolation-filters="sRGB" filterUnits="userSpaceOnUse" height="4.69" width="16.246" x="1.813" y="13.953"><feFlood flood-opacity="0" result="BackgroundImageFix"/><feBlend in="SourceGraphic" in2="BackgroundImageFix" mode="normal" result="shape"/><feGaussianBlur result="effect1_foregroundBlur_20020_6918" stdDeviation=".75"/></filter><filter id="i" color-interpolation-filters="sRGB" filterUnits="userSpaceOnUse" height="4.25" width="13.313" x="4.344" y="18.516"><feFlood flood-opacity="0" result="BackgroundImageFix"/><feBlend in="SourceGraphic" in2="BackgroundImageFix" mode="normal" result="shape"/><feGaussianBlur result="effect1_foregroundBlur_20020_6918" stdDeviation=".75"/></filter><filter id="j" color-interpolation-filters="sRGB" filterUnits="userSpaceOnUse" height="4.519" width="10.701" x="6.944" y="22.947"><feFlood flood-opacity="0" result="BackgroundImageFix"/><feBlend in="SourceGraphic" in2="BackgroundImageFix" mode="normal" result="shape"/><feGaussianBlur result="effect1_foregroundBlur_20020_6918" stdDeviation=".75"/></filter><radialGradient id="k" cx="0" cy="0" gradientTransform="matrix(-26.69439001 4.68388585 -4.85427213 -27.66545506 29.4909 15.0227)" gradientUnits="userSpaceOnUse" r="1"><stop offset="0" stop-color="#a0796f"/><stop offset=".467" stop-color="#825656"/></radialGradient><radialGradient id="l" cx="0" cy="0" gradientTransform="matrix(22.42440183 -5.8981191 5.66880391 21.55255506 8.57557 22.2448)" gradientUnits="userSpaceOnUse" r="1"><stop offset=".776" stop-color="#956c66" stop-opacity="0"/><stop offset=".943" stop-color="#a57e72"/></radialGradient><linearGradient id="m" gradientUnits="userSpaceOnUse" x1="15.234" x2="15.203" y1="27.866" y2="26.922"><stop offset=".291" stop-color="#7d4470"/><stop offset=".863" stop-color="#7b4360" stop-opacity="0"/></linearGradient><radialGradient id="n" cx="0" cy="0" gradientTransform="matrix(5.88097992 13.85687214 -23.71792209 10.06609732 17.1875 13.1722)" gradientUnits="userSpaceOnUse" r="1"><stop offset=".963" stop-color="#7f4a62" stop-opacity="0"/><stop offset="1" stop-color="#825074"/></radialGradient><linearGradient id="o" gradientUnits="userSpaceOnUse" x1="7.438" x2="7.594" y1="14.641" y2="12.297"><stop offset=".308" stop-color="#77494c"/><stop offset="1" stop-color="#77494c" stop-opacity="0"/></linearGradient><linearGradient id="p" gradientUnits="userSpaceOnUse" x1="3.717" x2="5.996" y1="12.174" y2="12.242"><stop offset="0" stop-color="#755448"/><stop offset="1" stop-color="#755448" stop-opacity="0"/></linearGradient><linearGradient id="q" gradientUnits="userSpaceOnUse" x1="10.664" x2="10.695" y1="14.821" y2="14.164"><stop offset=".07" stop-color="#553026"/><stop offset="1" stop-color="#6b403b" stop-opacity="0"/></linearGradient><linearGradient id="r"><stop offset=".912" stop-color="#805d54" stop-opacity="0"/><stop offset="1" stop-color="#805d54"/></linearGradient><radialGradient id="s" cx="0" cy="0" gradientTransform="matrix(-8.46752307 .41116823 -.28996393 -5.97146407 12.1729 12.5381)" gradientUnits="userSpaceOnUse" r="1" xlink:href="#r"/><linearGradient id="t"><stop offset="0" stop-color="#825656"/><stop offset="1" stop-color="#825656" stop-opacity="0"/></linearGradient><linearGradient id="u" gradientUnits="userSpaceOnUse" x1="15.836" x2="13.311" xlink:href="#t" y1="14.168" y2="14.042"/><linearGradient id="v"><stop offset=".018" stop-color="#744356"/><stop offset="1" stop-color="#744356" stop-opacity="0"/></linearGradient><linearGradient id="w" gradientUnits="userSpaceOnUse" x1="5.934" x2="6.052" xlink:href="#v" y1="19.326" y2="16.664"/><linearGradient id="x"><stop offset="0" stop-color="#76574c"/><stop offset="1" stop-color="#76574c" stop-opacity="0"/></linearGradient><linearGradient id="y" gradientUnits="userSpaceOnUse" x1="1.571" x2="4.237" xlink:href="#x" y1="16.544" y2="16.637"/><linearGradient id="z"><stop offset=".07" stop-color="#4e2723"/><stop offset="1" stop-color="#75444d" stop-opacity="0"/></linearGradient><linearGradient id="A" gradientUnits="userSpaceOnUse" x1="9.742" x2="9.749" xlink:href="#z" y1="19.589" y2="18.509"/><radialGradient id="B" cx="0" cy="0" gradientTransform="matrix(-9.91004408 .41188863 -.24876269 -5.9852326 11.4669 16.9082)" gradientUnits="userSpaceOnUse" r="1" xlink:href="#r"/><linearGradient id="C" gradientUnits="userSpaceOnUse" x1="15.755" x2="12.802" xlink:href="#t" y1="18.54" y2="18.368"/><linearGradient id="D" gradientUnits="userSpaceOnUse" x1="7.642" x2="7.649" xlink:href="#v" y1="23.731" y2="21.315"/><linearGradient id="E" gradientUnits="userSpaceOnUse" x1="3.844" x2="6.445" xlink:href="#x" y1="21.203" y2="21.103"/><linearGradient id="F" gradientUnits="userSpaceOnUse" x1="10.753" x2="10.682" xlink:href="#z" y1="23.97" y2="22.763"/><radialGradient id="G" cx="0" cy="0" gradientTransform="matrix(-8.07957879 .97044015 -.62966363 -5.24238088 11.912 20.9378)" gradientUnits="userSpaceOnUse" r="1"><stop offset=".92" stop-color="#805d54" stop-opacity="0"/><stop offset="1" stop-color="#805d54"/></radialGradient><linearGradient id="H" gradientUnits="userSpaceOnUse" x1="15.837" x2="13.339" xlink:href="#t" y1="23.017" y2="22.882"/><linearGradient id="I" gradientUnits="userSpaceOnUse" x1="10.394" x2="10.573" y1="23.007" y2="24.785"><stop offset=".169" stop-color="#4c2623"/><stop offset=".828" stop-color="#613a33" stop-opacity="0"/></linearGradient><linearGradient id="J" gradientUnits="userSpaceOnUse" x1="7.108" x2="8.784" y1="26.169" y2="26.116"><stop offset="0" stop-color="#623d38"/><stop offset="1" stop-color="#623d38" stop-opacity="0"/></linearGradient><linearGradient id="K"><stop offset="0" stop-color="#6d453e"/><stop offset="1" stop-color="#6d453e" stop-opacity="0"/></linearGradient><radialGradient id="L" cx="0" cy="0" gradientTransform="matrix(2.5624966 -.0872043 .07967964 2.3413846 14.9481 14.8118)" gradientUnits="userSpaceOnUse" r="1" xlink:href="#K"/><radialGradient id="M" cx="0" cy="0" gradientTransform="matrix(3.03124853 -.0915264 .07421847 2.45802977 14.4291 18.956)" gradientUnits="userSpaceOnUse" r="1" xlink:href="#K"/><radialGradient id="N" cx="0" cy="0" gradientTransform="matrix(2.75257556 -.09773104 .09315658 2.62373674 15.1359 23.4112)" gradientUnits="userSpaceOnUse" r="1" xlink:href="#K"/><radialGradient id="O" cx="0" cy="0" gradientTransform="matrix(-3.56251216 -3.07811742 1.21246095 -1.40326255 14.9375 11.4219)" gradientUnits="userSpaceOnUse" r="1"><stop offset="0" stop-color="#3b2018"/><stop offset=".251" stop-color="#57322b"/><stop offset="1" stop-color="#57322b" stop-opacity="0"/></radialGradient><linearGradient id="P" gradientUnits="userSpaceOnUse" x1="14.619" x2="13.939" y1="5.43" y2="10.666"><stop offset="0" stop-color="#95705e"/><stop offset="1" stop-color="#95705e" stop-opacity="0"/></linearGradient><linearGradient id="Q"><stop offset="0" stop-color="#876153"/><stop offset="1" stop-color="#876153" stop-opacity="0"/></linearGradient><linearGradient id="R" gradientUnits="userSpaceOnUse" x1="5.777" x2="5.773" xlink:href="#Q" y1="11.799" y2="12.235"/><linearGradient id="S" gradientUnits="userSpaceOnUse" x1="3.513" x2="3.51" xlink:href="#Q" y1="16.014" y2="16.429"/><linearGradient id="T" gradientUnits="userSpaceOnUse" x1="6.148" x2="6.126" xlink:href="#Q" y1="20.495" y2="21.437"/><linearGradient id="U" gradientUnits="userSpaceOnUse" x1="8.84" x2="8.838" xlink:href="#Q" y1="25.033" y2="25.286"/><g filter="url(#a)"><path d="m4.29054 14.5016c-1.32808-.0374-2.43501 1.0089-2.47243 2.337-.0374 1.328 1.0089 2.435 2.33696 2.4724l.94444.0266c-.6468.442-1.06535 1.1909-1.04957 2.0327.0249 1.3284 1.12193 2.385 2.4503 2.3601l1.36945-.0257c-.49077.4601-.78698 1.1223-.75942 1.8473.05048 1.3276 1.16765 2.3629 2.49529 2.3125l8.82234-.3354c1.3307-.0049 3.6952-.1489 5.7607-1.0036 3.2663-1.2075 5.5939-4.3408 5.5939-8.0158 0-3.7152-2.3787-6.8767-5.7012-8.0547-2.1088-.88818-4.283-2.36142-5.205-2.98619-.021-.01424-.0414-.02803-.0611-.04137l-2.8192-2.09835c-1.1238-.83638-2.7128-.60344-3.5491.52027-.829 1.11379-.6084 2.68708.4949 3.52994l1.4242 1.088-7.95306-.3437c-1.31602-.0569-2.42897.9638-2.48585 2.2799-.03822.8843.41017 1.677 1.10779 2.1191z" fill="url(#k)"/><path d="m4.29054 14.5016c-1.32808-.0374-2.43501 1.0089-2.47243 2.337-.0374 1.328 1.0089 2.435 2.33696 2.4724l.94444.0266c-.6468.442-1.06535 1.1909-1.04957 2.0327.0249 1.3284 1.12193 2.385 2.4503 2.3601l1.36945-.0257c-.49077.4601-.78698 1.1223-.75942 1.8473.05048 1.3276 1.16765 2.3629 2.49529 2.3125l8.82234-.3354c1.3307-.0049 3.6952-.1489 5.7607-1.0036 3.2663-1.2075 5.5939-4.3408 5.5939-8.0158 0-3.7152-2.3787-6.8767-5.7012-8.0547-2.1088-.88818-4.283-2.36142-5.205-2.98619-.021-.01424-.0414-.02803-.0611-.04137l-2.8192-2.09835c-1.1238-.83638-2.7128-.60344-3.5491.52027-.829 1.11379-.6084 2.68708.4949 3.52994l1.4242 1.088-7.95306-.3437c-1.31602-.0569-2.42897.9638-2.48585 2.2799-.03822.8843.41017 1.677 1.10779 2.1191z" fill="url(#l)"/></g><path d="m4.29054 14.5016c-1.32808-.0374-2.43501 1.0089-2.47243 2.337-.0374 1.328 1.0089 2.435 2.33696 2.4724l.94444.0266c-.6468.442-1.06535 1.1909-1.04957 2.0327.0249 1.3284 1.12193 2.385 2.4503 2.3601l1.36945-.0257c-.49077.4601-.78698 1.1223-.75942 1.8473.05048 1.3276 1.16765 2.3629 2.49529 2.3125l8.82234-.3354c1.3307-.0049 3.6952-.1489 5.7607-1.0036 3.2663-1.2075 5.5939-4.3408 5.5939-8.0158 0-3.7152-2.3787-6.8767-5.7012-8.0547-2.1088-.88818-4.283-2.36142-5.205-2.98619-.021-.01424-.0414-.02803-.0611-.04137l-2.8192-2.09835c-1.1238-.83638-2.7128-.60344-3.5491.52027-.829 1.11379-.6084 2.68708.4949 3.52994l1.4242 1.088-7.95306-.3437c-1.31602-.0569-2.42897.9638-2.48585 2.2799-.03822.8843.41017 1.677 1.10779 2.1191z" fill="url(#m)"/><path d="m4.29054 14.5016c-1.32808-.0374-2.43501 1.0089-2.47243 2.337-.0374 1.328 1.0089 2.435 2.33696 2.4724l.94444.0266c-.6468.442-1.06535 1.1909-1.04957 2.0327.0249 1.3284 1.12193 2.385 2.4503 2.3601l1.36945-.0257c-.49077.4601-.78698 1.1223-.75942 1.8473.05048 1.3276 1.16765 2.3629 2.49529 2.3125l8.82234-.3354c1.3307-.0049 3.6952-.1489 5.7607-1.0036 3.2663-1.2075 5.5939-4.3408 5.5939-8.0158 0-3.7152-2.3787-6.8767-5.7012-8.0547-2.1088-.88818-4.283-2.36142-5.205-2.98619-.021-.01424-.0414-.02803-.0611-.04137l-2.8192-2.09835c-1.1238-.83638-2.7128-.60344-3.5491.52027-.829 1.11379-.6084 2.68708.4949 3.52994l1.4242 1.088-7.95306-.3437c-1.31602-.0569-2.42897.9638-2.48585 2.2799-.03822.8843.41017 1.677 1.10779 2.1191z" fill="url(#n)"/><path d="m6.18134 10.1246 10.13546.4231.0001 4.4039-11.28811-.4329c-.69418-.4429-1.13989-1.2335-1.10178-2.1153.05352-1.2381 1.0417-2.2148 2.25433-2.2788z" fill="url(#o)"/><path d="m6.18134 10.1246 10.13546.4231.0001 4.4039-11.28811-.4329c-.69418-.4429-1.13989-1.2335-1.10178-2.1153.05352-1.2381 1.0417-2.2148 2.25433-2.2788z" fill="url(#p)"/><path d="m6.18134 10.1246 10.13546.4231.0001 4.4039-11.28811-.4329c-.69418-.4429-1.13989-1.2335-1.10178-2.1153.05352-1.2381 1.0417-2.2148 2.25433-2.2788z" fill="url(#q)"/><path d="m6.18134 10.1246 10.13546.4231.0001 4.4039-11.28811-.4329c-.69418-.4429-1.13989-1.2335-1.10178-2.1153.05352-1.2381 1.0417-2.2148 2.25433-2.2788z" fill="url(#s)"/><path d="m6.18134 10.1246 10.13546.4231.0001 4.4039-11.28811-.4329c-.69418-.4429-1.13989-1.2335-1.10178-2.1153.05352-1.2381 1.0417-2.2148 2.25433-2.2788z" fill="url(#u)"/><path d="m1.8146 16.8285c.03742-1.328 1.14435-2.3743 2.47243-2.3369 4.00292.1127 8.02107.2909 12.02977.4364v4.3977h-11.2236l-.94164-.0248c-1.32806-.0374-2.37436-1.1443-2.33696-2.4724z" fill="url(#w)"/><path d="m1.8146 16.8285c.03742-1.328 1.14435-2.3743 2.47243-2.3369 4.00292.1127 8.02107.2909 12.02977.4364v4.3977h-11.2236l-.94164-.0248c-1.32806-.0374-2.37436-1.1443-2.33696-2.4724z" fill="url(#y)"/><path d="m1.8146 16.8285c.03742-1.328 1.14435-2.3743 2.47243-2.3369 4.00292.1127 8.02107.2909 12.02977.4364v4.3977h-11.2236l-.94164-.0248c-1.32806-.0374-2.37436-1.1443-2.33696-2.4724z" fill="url(#A)"/><path d="m1.8146 16.8285c.03742-1.328 1.14435-2.3743 2.47243-2.3369 4.00292.1127 8.02107.2909 12.02977.4364v4.3977h-11.2236l-.94164-.0248c-1.32806-.0374-2.37436-1.1443-2.33696-2.4724z" fill="url(#B)"/><path d="m1.8146 16.8285c.03742-1.328 1.14435-2.3743 2.47243-2.3369 4.00292.1127 8.02107.2909 12.02977.4364v4.3977h-11.2236l-.94164-.0248c-1.32806-.0374-2.37436-1.1443-2.33696-2.4724z" fill="url(#C)"/><path d="m5.09951 19.3373c-.6468.442-1.06535 1.1909-1.04957 2.0327.0249 1.3284 1.12193 2.385 2.4503 2.3601l9.81226-.2142v-4.1786z" fill="url(#D)"/><path d="m5.09951 19.3373c-.6468.442-1.06535 1.1909-1.04957 2.0327.0249 1.3284 1.12193 2.385 2.4503 2.3601l9.81226-.2142v-4.1786z" fill="url(#E)"/><path d="m5.09951 19.3373c-.6468.442-1.06535 1.1909-1.04957 2.0327.0249 1.3284 1.12193 2.385 2.4503 2.3601l9.81226-.2142v-4.1786z" fill="url(#F)"/><path d="m5.09951 19.3373c-.6468.442-1.06535 1.1909-1.04957 2.0327.0249 1.3284 1.12193 2.385 2.4503 2.3601l9.81226-.2142v-4.1786z" fill="url(#G)"/><path d="m5.09951 19.3373c-.6468.442-1.06535 1.1909-1.04957 2.0327.0249 1.3284 1.12193 2.385 2.4503 2.3601l9.81226-.2142v-4.1786z" fill="url(#H)"/><path d="m7.86964 23.7045c-.49076.46-.78697 1.1222-.75941 1.8472.05047 1.3276 1.16765 2.363 2.49528 2.3125l6.91009-.2702c0-1.3417-.8515-3.1565-.8515-4.0784z" fill="url(#I)"/><path d="m7.86964 23.7045c-.49076.46-.78697 1.1222-.75941 1.8472.05047 1.3276 1.16765 2.363 2.49528 2.3125l6.91009-.2702c0-1.3417-.8515-3.1565-.8515-4.0784z" fill="url(#J)"/><g filter="url(#b)"><path d="m17.5106 16.1855c-.836-.896-2.0625-1.2264-2.5625-1.216 1.3-.15 2.25-1.0834 2.5625-1.5313z" fill="url(#L)"/></g><g filter="url(#c)"><path d="m17.4603 20.3977c-1.0055-.8872-2.4398-1.0844-3.0312-1.0721 1.5378-.1774 2.6616-1.2815 3.0312-1.8113z" fill="url(#M)"/></g><g filter="url(#d)"><path d="m17.8884 24.9507c-1.0385-1.0519-2.1611-1.4343-2.7525-1.4219 1.5378-.1775 2.3829-1.1271 2.7525-1.657z" fill="url(#N)"/></g><g filter="url(#e)"><path d="m17.3427 12.153c-1.1458 2-2.6625 7.4375.4375 13.1875" stroke="#7e544f" stroke-width="1.5"/></g><path d="m17.6838 10.5928-4.9938-5.02493c-.0866.08654-.1679.18043-.2431.28152-.829 1.11378-.6084 2.68707.4949 3.52993l1.4242 1.08808z" fill="url(#O)"/><g filter="url(#f)"><path d="m14.9481 6.25189c1.4801 1.39784 5.8709 4.07431 9.2915 5.65301" stroke="url(#P)" stroke-linecap="round"/></g><g filter="url(#g)"><path d="m6.13782 11.8661 10.19608.4634" stroke="url(#R)" stroke-linecap="round" stroke-width="1.25"/></g><g filter="url(#h)"><path d="m3.9375 16.0784 11.9964.44" stroke="url(#S)" stroke-linecap="round" stroke-width="1.25"/></g><g filter="url(#i)"><path d="m6.46875 20.6409h9.06245" stroke="url(#T)" stroke-linecap="round" stroke-width="1.25"/></g><g filter="url(#j)"><path d="m9.06873 25.3405 6.45107-.2685" stroke="url(#U)" stroke-linecap="round" stroke-width="1.25"/></g></svg>