<svg fill="none" height="32" viewBox="0 0 32 32" width="32" xmlns="http://www.w3.org/2000/svg" xmlns:xlink="http://www.w3.org/1999/xlink"><filter id="a" color-interpolation-filters="sRGB" filterUnits="userSpaceOnUse" height="10.585" width="4.609" x="5.571" y="6.976"><feFlood flood-opacity="0" result="BackgroundImageFix"/><feBlend in="SourceGraphic" in2="BackgroundImageFix" mode="normal" result="shape"/><feGaussianBlur result="effect1_foregroundBlur_20020_1463" stdDeviation=".5"/></filter><filter id="b" color-interpolation-filters="sRGB" filterUnits="userSpaceOnUse" height="11.076" width="4.647" x="9.568" y="3.79"><feFlood flood-opacity="0" result="BackgroundImageFix"/><feBlend in="SourceGraphic" in2="BackgroundImageFix" mode="normal" result="shape"/><feGaussianBlur result="effect1_foregroundBlur_20020_1463" stdDeviation=".5"/></filter><filter id="c" color-interpolation-filters="sRGB" filterUnits="userSpaceOnUse" height="12.11" width="3.365" x="14.799" y="2.008"><feFlood flood-opacity="0" result="BackgroundImageFix"/><feBlend in="SourceGraphic" in2="BackgroundImageFix" mode="normal" result="shape"/><feGaussianBlur result="effect1_foregroundBlur_20020_1463" stdDeviation=".5"/></filter><filter id="d" color-interpolation-filters="sRGB" filterUnits="userSpaceOnUse" height="12.11" width="3.365" x="19.433" y="4.078"><feFlood flood-opacity="0" result="BackgroundImageFix"/><feBlend in="SourceGraphic" in2="BackgroundImageFix" mode="normal" result="shape"/><feGaussianBlur result="effect1_foregroundBlur_20020_1463" stdDeviation=".5"/></filter><filter id="e" color-interpolation-filters="sRGB" filterUnits="userSpaceOnUse" height="6.146" width="11.07" x="11.516" y="12.295"><feFlood flood-opacity="0" result="BackgroundImageFix"/><feBlend in="SourceGraphic" in2="BackgroundImageFix" mode="normal" result="shape"/><feGaussianBlur result="effect1_foregroundBlur_20020_1463" stdDeviation=".5"/></filter><radialGradient id="f" cx="0" cy="0" gradientTransform="matrix(-20.27568414 6.69298109 -10.20479157 -30.91434562 25.5308 17.4334)" gradientUnits="userSpaceOnUse" r="1"><stop offset=".818" stop-color="#e99329" stop-opacity="0"/><stop offset="1" stop-color="#e99329"/></radialGradient><radialGradient id="g" cx="0" cy="0" gradientTransform="matrix(-5.81574314 24.21500412 -16.7161472 -4.01473475 17.7202 7.81418)" gradientUnits="userSpaceOnUse" r="1"><stop offset=".751" stop-color="#f88456" stop-opacity="0"/><stop offset="1" stop-color="#f88456"/></radialGradient><radialGradient id="h" cx="0" cy="0" gradientTransform="matrix(-3.27636636 22.70300515 -15.67234027 -2.26174148 16.3582 7.811)" gradientUnits="userSpaceOnUse" r="1"><stop offset=".937" stop-color="#f27a74" stop-opacity="0"/><stop offset="1" stop-color="#f27a74"/></radialGradient><radialGradient id="i" cx="0" cy="0" gradientTransform="matrix(-1.40624713 -.99999591 4.27932533 -6.01781354 26.5705 18.0298)" gradientUnits="userSpaceOnUse" r="1"><stop offset="0" stop-color="#f6b44b"/><stop offset="1" stop-color="#f6b44b" stop-opacity="0"/></radialGradient><linearGradient id="j"><stop offset="0" stop-color="#e79f08"/><stop offset="1" stop-color="#e79f08" stop-opacity="0"/></linearGradient><linearGradient id="k" gradientUnits="userSpaceOnUse" x1="9.485" x2="8.164" xlink:href="#j" y1="10.936" y2="11.123"/><linearGradient id="l"><stop offset="0" stop-color="#ffc23e"/><stop offset="1" stop-color="#ffc23e" stop-opacity="0"/></linearGradient><linearGradient id="m" gradientUnits="userSpaceOnUse" x1="9.664" x2="8.289" xlink:href="#l" y1="14.129" y2="13.342"/><radialGradient id="n" cx="0" cy="0" gradientTransform="matrix(.082467 2.17187491 -5.42334185 .20592655 7.00804 7.0766)" gradientUnits="userSpaceOnUse" r="1"><stop offset="0" stop-color="#e8ad3c"/><stop offset="1" stop-color="#e8ad3c" stop-opacity="0"/></radialGradient><linearGradient id="o" gradientUnits="userSpaceOnUse" x1="13.727" x2="12.414" xlink:href="#j" y1="9.311" y2="9.405"/><linearGradient id="p" gradientUnits="userSpaceOnUse" x1="8.722" x2="11.119" y1="10.289" y2="10.169"><stop offset="0" stop-color="#df8f0d"/><stop offset="1" stop-color="#df8f0d" stop-opacity="0"/></linearGradient><linearGradient id="q" gradientUnits="userSpaceOnUse" x1="11.254" x2="10.36" y1="14.888" y2="11.581"><stop offset=".405" stop-color="#ffc23e"/><stop offset="1" stop-color="#ffc23e" stop-opacity="0"/></linearGradient><radialGradient id="r" cx="0" cy="0" gradientTransform="matrix(.69895022 3.27814474 -5.81306547 1.2394338 10.4199 3.73659)" gradientUnits="userSpaceOnUse" r="1"><stop offset="0" stop-color="#e1ae3f"/><stop offset="1" stop-color="#e8ad3c" stop-opacity="0"/></radialGradient><linearGradient id="s"><stop offset="0" stop-color="#e59714"/><stop offset="1" stop-color="#e59714" stop-opacity="0"/></linearGradient><linearGradient id="t" gradientUnits="userSpaceOnUse" x1="13.326" x2="15.422" xlink:href="#s" y1="8.133" y2="8.028"/><linearGradient id="u" gradientUnits="userSpaceOnUse" x1="17.652" x2="16.809" xlink:href="#s" y1="8.404" y2="8.395"/><linearGradient id="v" gradientUnits="userSpaceOnUse" x1="15.422" x2="15.422" y1="13.554" y2="11.747"><stop offset=".348" stop-color="#ffc23e"/><stop offset="1" stop-color="#ffc23e" stop-opacity="0"/></linearGradient><linearGradient id="w"><stop offset=".87" stop-color="#d8a13d" stop-opacity="0"/><stop offset="1" stop-color="#d8a13d"/></linearGradient><radialGradient id="x" cx="0" cy="0" gradientTransform="matrix(-4.35606381 -8.67955289 10.18755944 -5.11289689 18.1395 10.8747)" gradientUnits="userSpaceOnUse" r="1" xlink:href="#w"/><linearGradient id="y" gradientUnits="userSpaceOnUse" x1="17.262" x2="19.907" y1="10.408" y2="10.502"><stop offset="0" stop-color="#e69717"/><stop offset="1" stop-color="#e69717" stop-opacity="0"/></linearGradient><linearGradient id="z" gradientUnits="userSpaceOnUse" x1="18.66" x2="19.57" xlink:href="#l" y1="14.32" y2="12.565"/><radialGradient id="A" cx="0" cy="0" gradientTransform="matrix(-4.38681773 -9.9646117 10.75857732 -4.73635293 22.6438 14.3014)" gradientUnits="userSpaceOnUse" r="1" xlink:href="#w"/><radialGradient id="B" cx="0" cy="0" gradientTransform="matrix(1.21603586 1.3746477 -5.26163087 4.6545248 22.5315 13.4714)" gradientUnits="userSpaceOnUse" r="1"><stop offset="0" stop-color="#e7a30e"/><stop offset="1" stop-color="#e7a30e" stop-opacity="0"/></radialGradient><linearGradient id="C" gradientUnits="userSpaceOnUse" x1="20.415" x2="8.355" y1="15.881" y2="13.833"><stop offset="0" stop-color="#ffdd3b"/><stop offset="1" stop-color="#ffdd3b" stop-opacity="0"/></linearGradient><linearGradient id="D"><stop offset="0" stop-color="#ffe84a"/><stop offset="1" stop-color="#ffe84a" stop-opacity="0"/></linearGradient><radialGradient id="E" cx="0" cy="0" gradientTransform="matrix(-1.98266505 1.34822731 -1.58030567 -2.32395295 27.6071 13.4185)" gradientUnits="userSpaceOnUse" r="1" xlink:href="#D"/><radialGradient id="F" cx="0" cy="0" gradientTransform="matrix(-1.79763654 2.11483185 -2.28365358 -1.94113736 21.9763 4.80052)" gradientUnits="userSpaceOnUse" r="1" xlink:href="#D"/><radialGradient id="G" cx="0" cy="0" gradientTransform="matrix(-1.03097612 2.48494744 -2.63179074 -1.09189971 17.5352 2.31557)" gradientUnits="userSpaceOnUse" r="1"><stop offset=".325" stop-color="#ffe84a"/><stop offset="1" stop-color="#ffe84a" stop-opacity="0"/></radialGradient><radialGradient id="H" cx="0" cy="0" gradientTransform="matrix(-.76664171 1.18959507 -1.39208757 -.89713922 11.5872 5.85794)" gradientUnits="userSpaceOnUse" r="1"><stop offset="0" stop-color="#ffd148"/><stop offset="1" stop-color="#ffcf41" stop-opacity="0"/></radialGradient><radialGradient id="I" cx="0" cy="0" gradientTransform="matrix(-.71376133 1.21604176 -1.31310674 -.77073406 7.4632 8.92447)" gradientUnits="userSpaceOnUse" r="1" xlink:href="#D"/><path d="m12.996 4.4529c-.0314-1.33371 1.0244-2.44035 2.3581-2.47175 1.3337-.03139 2.4403 1.02434 2.4717 2.35806l.0229.97286c.4258-.7513 1.2428-1.2477 2.1659-1.22063 1.3302.03901 2.3762 1.15009 2.335 2.4802l-.2555 8.25496 1.4503-1.7992c.8712-1.0808 2.453-1.252 3.5352-.3825 1.0847.8714 1.2564 2.4577.3832 3.5409l-.623.7729-.0061.0089c-.5727.7335-1.7452 2.2353-3.2163 4.6637-.4745.7118-.8868 1.4721-1.2983 2.2311-.5869 1.0823-1.1723 2.1619-1.9347 3.0942-1.5154 1.8686-3.8299 3.063-6.4232 3.063-3.1449 0-5.87955-1.7563-7.27664-4.3416l-.00465.008c-1.27343-2.2812-1.46093-4.8047-1.52343-6.1562l-.13712-2.4419c-.00768-.0627-.01293-.1261-.01566-.1904l-.30515-7.18932c-.05442-1.282.93698-2.36716 2.21866-2.42851.7316-.03502 1.40058.27098 1.85291.77804l-.04703-1.40582c-.04322-1.29192.96905-2.37426 2.26101-2.41748.8434-.02822 1.5975.39346 2.0315 1.04912z" fill="#ffc23e"/><path d="m12.996 4.4529c-.0314-1.33371 1.0244-2.44035 2.3581-2.47175 1.3337-.03139 2.4403 1.02434 2.4717 2.35806l.0229.97286c.4258-.7513 1.2428-1.2477 2.1659-1.22063 1.3302.03901 2.3762 1.15009 2.335 2.4802l-.2555 8.25496 1.4503-1.7992c.8712-1.0808 2.453-1.252 3.5352-.3825 1.0847.8714 1.2564 2.4577.3832 3.5409l-.623.7729-.0061.0089c-.5727.7335-1.7452 2.2353-3.2163 4.6637-.4745.7118-.8868 1.4721-1.2983 2.2311-.5869 1.0823-1.1723 2.1619-1.9347 3.0942-1.5154 1.8686-3.8299 3.063-6.4232 3.063-3.1449 0-5.87955-1.7563-7.27664-4.3416l-.00465.008c-1.27343-2.2812-1.46093-4.8047-1.52343-6.1562l-.13712-2.4419c-.00768-.0627-.01293-.1261-.01566-.1904l-.30515-7.18932c-.05442-1.282.93698-2.36716 2.21866-2.42851.7316-.03502 1.40058.27098 1.85291.77804l-.04703-1.40582c-.04322-1.29192.96905-2.37426 2.26101-2.41748.8434-.02822 1.5975.39346 2.0315 1.04912z" fill="url(#f)"/><path d="m12.996 4.4529c-.0314-1.33371 1.0244-2.44035 2.3581-2.47175 1.3337-.03139 2.4403 1.02434 2.4717 2.35806l.0229.97286c.4258-.7513 1.2428-1.2477 2.1659-1.22063 1.3302.03901 2.3762 1.15009 2.335 2.4802l-.2555 8.25496 1.4503-1.7992c.8712-1.0808 2.453-1.252 3.5352-.3825 1.0847.8714 1.2564 2.4577.3832 3.5409l-.623.7729-.0061.0089c-.5727.7335-1.7452 2.2353-3.2163 4.6637-.4745.7118-.8868 1.4721-1.2983 2.2311-.5869 1.0823-1.1723 2.1619-1.9347 3.0942-1.5154 1.8686-3.8299 3.063-6.4232 3.063-3.1449 0-5.87955-1.7563-7.27664-4.3416l-.00465.008c-1.27343-2.2812-1.46093-4.8047-1.52343-6.1562l-.13712-2.4419c-.00768-.0627-.01293-.1261-.01566-.1904l-.30515-7.18932c-.05442-1.282.93698-2.36716 2.21866-2.42851.7316-.03502 1.40058.27098 1.85291.77804l-.04703-1.40582c-.04322-1.29192.96905-2.37426 2.26101-2.41748.8434-.02822 1.5975.39346 2.0315 1.04912z" fill="url(#g)"/><path d="m12.996 4.4529c-.0314-1.33371 1.0244-2.44035 2.3581-2.47175 1.3337-.03139 2.4403 1.02434 2.4717 2.35806l.0229.97286c.4258-.7513 1.2428-1.2477 2.1659-1.22063 1.3302.03901 2.3762 1.15009 2.335 2.4802l-.2555 8.25496 1.4503-1.7992c.8712-1.0808 2.453-1.252 3.5352-.3825 1.0847.8714 1.2564 2.4577.3832 3.5409l-.623.7729-.0061.0089c-.5727.7335-1.7452 2.2353-3.2163 4.6637-.4745.7118-.8868 1.4721-1.2983 2.2311-.5869 1.0823-1.1723 2.1619-1.9347 3.0942-1.5154 1.8686-3.8299 3.063-6.4232 3.063-3.1449 0-5.87955-1.7563-7.27664-4.3416l-.00465.008c-1.27343-2.2812-1.46093-4.8047-1.52343-6.1562l-.13712-2.4419c-.00768-.0627-.01293-.1261-.01566-.1904l-.30515-7.18932c-.05442-1.282.93698-2.36716 2.21866-2.42851.7316-.03502 1.40058.27098 1.85291.77804l-.04703-1.40582c-.04322-1.29192.96905-2.37426 2.26101-2.41748.8434-.02822 1.5975.39346 2.0315 1.04912z" fill="url(#h)"/><path d="m12.996 4.4529c-.0314-1.33371 1.0244-2.44035 2.3581-2.47175 1.3337-.03139 2.4403 1.02434 2.4717 2.35806l.0229.97286c.4258-.7513 1.2428-1.2477 2.1659-1.22063 1.3302.03901 2.3762 1.15009 2.335 2.4802l-.2555 8.25496 1.4503-1.7992c.8712-1.0808 2.453-1.252 3.5352-.3825 1.0847.8714 1.2564 2.4577.3832 3.5409l-.623.7729-.0061.0089c-.5727.7335-1.7452 2.2353-3.2163 4.6637-.4745.7118-.8868 1.4721-1.2983 2.2311-.5869 1.0823-1.1723 2.1619-1.9347 3.0942-1.5154 1.8686-3.8299 3.063-6.4232 3.063-3.1449 0-5.87955-1.7563-7.27664-4.3416l-.00465.008c-1.27343-2.2812-1.46093-4.8047-1.52343-6.1562l-.13712-2.4419c-.00768-.0627-.01293-.1261-.01566-.1904l-.30515-7.18932c-.05442-1.282.93698-2.36716 2.21866-2.42851.7316-.03502 1.40058.27098 1.85291.77804l-.04703-1.40582c-.04322-1.29192.96905-2.37426 2.26101-2.41748.8434-.02822 1.5975.39346 2.0315 1.04912z" fill="url(#i)"/><path d="m4.88618 14.1288-.18763-4.42066c-.05442-1.282.93698-2.36716 2.21866-2.42851.7316-.03501 1.40058.27098 1.85291.77804l-.00027-.0083c.17877.23687.4523.7433.496 1.49597.05625.96876.16927 3.36716.21875 4.44536z" fill="url(#k)"/><path d="m4.88618 14.1288-.18763-4.42066c-.05442-1.282.93698-2.36716 2.21866-2.42851.7316-.03501 1.40058.27098 1.85291.77804l-.00027-.0083c.17877.23687.4523.7433.496 1.49597.05625.96876.16927 3.36716.21875 4.44536z" fill="url(#m)"/><path d="m4.88618 14.1288-.18763-4.42066c-.05442-1.282.93698-2.36716 2.21866-2.42851.7316-.03501 1.40058.27098 1.85291.77804l-.00027-.0083c.17877.23687.4523.7433.496 1.49597.05625.96876.16927 3.36716.21875 4.44536z" fill="url(#n)"/><g filter="url(#a)"><path d="m7.66431 9.45157c-.10034-1.07031-.64063-1.29685-1.09375-1.29685 1.21875-.53125 2.125.1875 2.21875 1.29685l.39062 5.18753-1.95312 1.9219.76562-2.1875c0-1.2292-.23437-3.9219-.32812-4.92193z" fill="#ffd93f"/></g><path d="m8.76989 8.04935c.17878.23688.4523.74331.49601 1.49598.0348.59937.23113 3.92297.34247 5.64287l4.17793-1.1722-.4433-6.88049c-.0172-.63119-.0113-1.28499-.3274-1.85203-.4339-.65566-1.1881-1.07733-2.0315-1.04911-1.29192.04322-2.30418 1.12556-2.26096 2.41747z" fill="url(#o)"/><path d="m8.76989 8.04935c.17878.23688.4523.74331.49601 1.49598.0348.59937.23113 3.92297.34247 5.64287l4.17793-1.1722-.4433-6.88049c-.0172-.63119-.0113-1.28499-.3274-1.85203-.4339-.65566-1.1881-1.07733-2.0315-1.04911-1.29192.04322-2.30418 1.12556-2.26096 2.41747z" fill="url(#p)"/><path d="m8.76989 8.04935c.17878.23688.4523.74331.49601 1.49598.0348.59937.23113 3.92297.34247 5.64287l4.17793-1.1722-.4433-6.88049c-.0172-.63119-.0113-1.28499-.3274-1.85203-.4339-.65566-1.1881-1.07733-2.0315-1.04911-1.29192.04322-2.30418 1.12556-2.26096 2.41747z" fill="url(#q)"/><path d="m8.76989 8.04935c.17878.23688.4523.74331.49601 1.49598.0348.59937.23113 3.92297.34247 5.64287l4.17793-1.1722-.4433-6.88049c-.0172-.63119-.0113-1.28499-.3274-1.85203-.4339-.65566-1.1881-1.07733-2.0315-1.04911-1.29192.04322-2.30418 1.12556-2.26096 2.41747z" fill="url(#r)"/><g filter="url(#b)"><path d="m11.6619 6.26553c-.1004-1.07031-.6407-1.29685-1.0938-1.29685 1.2188-.53124 2.125.18751 2.2188 1.29685l.4283 6.66847-2.0138.9317.5757-1.2747c.1752-.3881.2671-.808.25-1.2334-.0615-1.52641-.2847-4.23345-.3652-5.09207z" fill="#ffd141"/></g><path d="m17.5836 6.28396c0-.45733.1666-.86358.2643-.97686l.0006-.00352-.0227-.96437c-.0313-1.33372-1.138-2.38945-2.4717-2.35806-1.3337.0314-2.3895 1.13804-2.3581 2.47175l.0196.83061c.2946.52859.3095 1.13258.3241 1.72335.0447 1.8104.2707 4.17244.3871 5.97974h3.7366c.025-1.9661.1202-6.05844.1202-6.70264z" fill="url(#t)"/><path d="m17.5836 6.28396c0-.45733.1666-.86358.2643-.97686l.0006-.00352-.0227-.96437c-.0313-1.33372-1.138-2.38945-2.4717-2.35806-1.3337.0314-2.3895 1.13804-2.3581 2.47175l.0196.83061c.2946.52859.3095 1.13258.3241 1.72335.0447 1.8104.2707 4.17244.3871 5.97974h3.7366c.025-1.9661.1202-6.05844.1202-6.70264z" fill="url(#u)"/><path d="m17.5836 6.28396c0-.45733.1666-.86358.2643-.97686l.0006-.00352-.0227-.96437c-.0313-1.33372-1.138-2.38945-2.4717-2.35806-1.3337.0314-2.3895 1.13804-2.3581 2.47175l.0196.83061c.2946.52859.3095 1.13258.3241 1.72335.0447 1.8104.2707 4.17244.3871 5.97974h3.7366c.025-1.9661.1202-6.05844.1202-6.70264z" fill="url(#v)"/><path d="m17.5836 6.28396c0-.45733.1666-.86358.2643-.97686l.0006-.00352-.0227-.96437c-.0313-1.33372-1.138-2.38945-2.4717-2.35806-1.3337.0314-2.3895 1.13804-2.3581 2.47175l.0196.83061c.2946.52859.3095 1.13258.3241 1.72335.0447 1.8104.2707 4.17244.3871 5.97974h3.7366c.025-1.9661.1202-6.05844.1202-6.70264z" fill="url(#x)"/><g filter="url(#c)"><path d="m15.7989 3.00775v10.10995h1.2028c.0542-2.1239.1625-6.74865.1625-8.25701s-.9102-1.86378-1.3653-1.85294z" fill="#ffd140"/></g><path d="m17.8479 5.30704c-.0977.11329-.2644.51954-.2644.97686 0 2.60581-.1202 4.5201-.1202 7.1263l4.6308 3.3158v-1.9013l.2555-8.25312c.0412-1.33011-1.0049-2.44118-2.335-2.48019-.9231-.02707-1.7401.46932-2.1659 1.22063l-.0002-.00701z" fill="url(#y)"/><path d="m17.8479 5.30704c-.0977.11329-.2644.51954-.2644.97686 0 2.60581-.1202 4.5201-.1202 7.1263l4.6308 3.3158v-1.9013l.2555-8.25312c.0412-1.33011-1.0049-2.44118-2.335-2.48019-.9231-.02707-1.7401.46932-2.1659 1.22063l-.0002-.00701z" fill="url(#z)"/><path d="m17.8479 5.30704c-.0977.11329-.2644.51954-.2644.97686 0 2.60581-.1202 4.5201-.1202 7.1263l4.6308 3.3158v-1.9013l.2555-8.25312c.0412-1.33011-1.0049-2.44118-2.335-2.48019-.9231-.02707-1.7401.46932-2.1659 1.22063l-.0002-.00701z" fill="url(#A)"/><g filter="url(#d)"><path d="m20.4326 5.0783v10.1099h1.2027c.0542-2.1238.1626-6.7486.1626-8.25696s-.9102-1.86377-1.3653-1.85294z" fill="#ffdd3b"/></g><path d="m22.2186 14.6721 1.3258-1.6448c.8712-1.0807 2.453-1.2519 3.5352-.3825 1.0847.8715 1.2563 2.4578.3831 3.541l-.6229.7729-.0061.0089c-.5727.7335-1.7452 2.2353-3.2163 4.6637-.4274.6411-.8043 1.3216-1.1757 2.005-3.1576-1.6878-2.6971-4.8628-1.9942-6.3576z" fill="url(#B)"/><g filter="url(#e)"><path d="m12.5156 13.5728c3.6409-.9752 8.4195.856 9.0697 1.7879v2.0805c-2.2756-2.7631-6.0139-3.5758-9.0697-3.8684z" fill="url(#C)"/></g><path d="m12.996 4.4529c-.0314-1.33371 1.0244-2.44035 2.3581-2.47175 1.3337-.03139 2.4403 1.02434 2.4717 2.35806l.0229.97286c.4258-.7513 1.2428-1.2477 2.1659-1.22063 1.3302.03901 2.3762 1.15009 2.335 2.4802l-.2555 8.25496 1.4503-1.7992c.8712-1.0808 2.453-1.252 3.5352-.3825 1.0847.8714 1.2564 2.4577.3832 3.5409l-.623.7729-.0061.0089c-.5727.7335-1.7452 2.2353-3.2163 4.6637-.4745.7118-.8868 1.4721-1.2983 2.2311-.5869 1.0823-1.1723 2.1619-1.9347 3.0942-1.5154 1.8686-3.8299 3.063-6.4232 3.063-3.1449 0-5.87955-1.7563-7.27664-4.3416l-.00465.008c-1.27343-2.2812-1.46093-4.8047-1.52343-6.1562l-.13712-2.4419c-.00768-.0627-.01293-.1261-.01566-.1904l-.30515-7.18932c-.05442-1.282.93698-2.36716 2.21866-2.42851.7316-.03502 1.40058.27098 1.85291.77804l-.04703-1.40582c-.04322-1.29192.96905-2.37426 2.26101-2.41748.8434-.02822 1.5975.39346 2.0315 1.04912z" fill="url(#E)"/><path d="m12.996 4.4529c-.0314-1.33371 1.0244-2.44035 2.3581-2.47175 1.3337-.03139 2.4403 1.02434 2.4717 2.35806l.0229.97286c.4258-.7513 1.2428-1.2477 2.1659-1.22063 1.3302.03901 2.3762 1.15009 2.335 2.4802l-.2555 8.25496 1.4503-1.7992c.8712-1.0808 2.453-1.252 3.5352-.3825 1.0847.8714 1.2564 2.4577.3832 3.5409l-.623.7729-.0061.0089c-.5727.7335-1.7452 2.2353-3.2163 4.6637-.4745.7118-.8868 1.4721-1.2983 2.2311-.5869 1.0823-1.1723 2.1619-1.9347 3.0942-1.5154 1.8686-3.8299 3.063-6.4232 3.063-3.1449 0-5.87955-1.7563-7.27664-4.3416l-.00465.008c-1.27343-2.2812-1.46093-4.8047-1.52343-6.1562l-.13712-2.4419c-.00768-.0627-.01293-.1261-.01566-.1904l-.30515-7.18932c-.05442-1.282.93698-2.36716 2.21866-2.42851.7316-.03502 1.40058.27098 1.85291.77804l-.04703-1.40582c-.04322-1.29192.96905-2.37426 2.26101-2.41748.8434-.02822 1.5975.39346 2.0315 1.04912z" fill="url(#F)"/><path d="m12.996 4.4529c-.0314-1.33371 1.0244-2.44035 2.3581-2.47175 1.3337-.03139 2.4403 1.02434 2.4717 2.35806l.0229.97286c.4258-.7513 1.2428-1.2477 2.1659-1.22063 1.3302.03901 2.3762 1.15009 2.335 2.4802l-.2555 8.25496 1.4503-1.7992c.8712-1.0808 2.453-1.252 3.5352-.3825 1.0847.8714 1.2564 2.4577.3832 3.5409l-.623.7729-.0061.0089c-.5727.7335-1.7452 2.2353-3.2163 4.6637-.4745.7118-.8868 1.4721-1.2983 2.2311-.5869 1.0823-1.1723 2.1619-1.9347 3.0942-1.5154 1.8686-3.8299 3.063-6.4232 3.063-3.1449 0-5.87955-1.7563-7.27664-4.3416l-.00465.008c-1.27343-2.2812-1.46093-4.8047-1.52343-6.1562l-.13712-2.4419c-.00768-.0627-.01293-.1261-.01566-.1904l-.30515-7.18932c-.05442-1.282.93698-2.36716 2.21866-2.42851.7316-.03502 1.40058.27098 1.85291.77804l-.04703-1.40582c-.04322-1.29192.96905-2.37426 2.26101-2.41748.8434-.02822 1.5975.39346 2.0315 1.04912z" fill="url(#G)"/><path d="m12.996 4.4529c-.0314-1.33371 1.0244-2.44035 2.3581-2.47175 1.3337-.03139 2.4403 1.02434 2.4717 2.35806l.0229.97286c.4258-.7513 1.2428-1.2477 2.1659-1.22063 1.3302.03901 2.3762 1.15009 2.335 2.4802l-.2555 8.25496 1.4503-1.7992c.8712-1.0808 2.453-1.252 3.5352-.3825 1.0847.8714 1.2564 2.4577.3832 3.5409l-.623.7729-.0061.0089c-.5727.7335-1.7452 2.2353-3.2163 4.6637-.4745.7118-.8868 1.4721-1.2983 2.2311-.5869 1.0823-1.1723 2.1619-1.9347 3.0942-1.5154 1.8686-3.8299 3.063-6.4232 3.063-3.1449 0-5.87955-1.7563-7.27664-4.3416l-.00465.008c-1.27343-2.2812-1.46093-4.8047-1.52343-6.1562l-.13712-2.4419c-.00768-.0627-.01293-.1261-.01566-.1904l-.30515-7.18932c-.05442-1.282.93698-2.36716 2.21866-2.42851.7316-.03502 1.40058.27098 1.85291.77804l-.04703-1.40582c-.04322-1.29192.96905-2.37426 2.26101-2.41748.8434-.02822 1.5975.39346 2.0315 1.04912z" fill="url(#H)"/><path d="m12.996 4.4529c-.0314-1.33371 1.0244-2.44035 2.3581-2.47175 1.3337-.03139 2.4403 1.02434 2.4717 2.35806l.0229.97286c.4258-.7513 1.2428-1.2477 2.1659-1.22063 1.3302.03901 2.3762 1.15009 2.335 2.4802l-.2555 8.25496 1.4503-1.7992c.8712-1.0808 2.453-1.252 3.5352-.3825 1.0847.8714 1.2564 2.4577.3832 3.5409l-.623.7729-.0061.0089c-.5727.7335-1.7452 2.2353-3.2163 4.6637-.4745.7118-.8868 1.4721-1.2983 2.2311-.5869 1.0823-1.1723 2.1619-1.9347 3.0942-1.5154 1.8686-3.8299 3.063-6.4232 3.063-3.1449 0-5.87955-1.7563-7.27664-4.3416l-.00465.008c-1.27343-2.2812-1.46093-4.8047-1.52343-6.1562l-.13712-2.4419c-.00768-.0627-.01293-.1261-.01566-.1904l-.30515-7.18932c-.05442-1.282.93698-2.36716 2.21866-2.42851.7316-.03502 1.40058.27098 1.85291.77804l-.04703-1.40582c-.04322-1.29192.96905-2.37426 2.26101-2.41748.8434-.02822 1.5975.39346 2.0315 1.04912z" fill="url(#I)" fill-opacity=".6"/></svg>