<svg fill="none" height="32" viewBox="0 0 32 32" width="32" xmlns="http://www.w3.org/2000/svg" xmlns:xlink="http://www.w3.org/1999/xlink"><filter id="a" color-interpolation-filters="sRGB" filterUnits="userSpaceOnUse" height="10.585" width="4.609" x="6.329" y="6.941"><feFlood flood-opacity="0" result="BackgroundImageFix"/><feBlend in="SourceGraphic" in2="BackgroundImageFix" mode="normal" result="shape"/><feGaussianBlur result="effect1_foregroundBlur_20020_1494" stdDeviation=".5"/></filter><filter id="b" color-interpolation-filters="sRGB" filterUnits="userSpaceOnUse" height="11.076" width="4.647" x="10.537" y="4.053"><feFlood flood-opacity="0" result="BackgroundImageFix"/><feBlend in="SourceGraphic" in2="BackgroundImageFix" mode="normal" result="shape"/><feGaussianBlur result="effect1_foregroundBlur_20020_1494" stdDeviation=".5"/></filter><filter id="c" color-interpolation-filters="sRGB" filterUnits="userSpaceOnUse" height="12.11" width="3.365" x="15.768" y="2.008"><feFlood flood-opacity="0" result="BackgroundImageFix"/><feBlend in="SourceGraphic" in2="BackgroundImageFix" mode="normal" result="shape"/><feGaussianBlur result="effect1_foregroundBlur_20020_1494" stdDeviation=".5"/></filter><filter id="d" color-interpolation-filters="sRGB" filterUnits="userSpaceOnUse" height="12.11" width="3.365" x="20.401" y="4.078"><feFlood flood-opacity="0" result="BackgroundImageFix"/><feBlend in="SourceGraphic" in2="BackgroundImageFix" mode="normal" result="shape"/><feGaussianBlur result="effect1_foregroundBlur_20020_1494" stdDeviation=".5"/></filter><filter id="e" color-interpolation-filters="sRGB" filterUnits="userSpaceOnUse" height="8.406" width="7.344" x="21.569" y="12.894"><feFlood flood-opacity="0" result="BackgroundImageFix"/><feBlend in="SourceGraphic" in2="BackgroundImageFix" mode="normal" result="shape"/><feGaussianBlur result="effect1_foregroundBlur_20020_1494" stdDeviation=".5"/></filter><filter id="f" color-interpolation-filters="sRGB" filterUnits="userSpaceOnUse" height="3.406" width="3.344" x="7.609" y="13.656"><feFlood flood-opacity="0" result="BackgroundImageFix"/><feBlend in="SourceGraphic" in2="BackgroundImageFix" mode="normal" result="shape"/><feGaussianBlur result="effect1_foregroundBlur_20020_1494" stdDeviation=".25"/></filter><filter id="g" color-interpolation-filters="sRGB" filterUnits="userSpaceOnUse" height="2.594" width="3.656" x="11.578" y="11.969"><feFlood flood-opacity="0" result="BackgroundImageFix"/><feBlend in="SourceGraphic" in2="BackgroundImageFix" mode="normal" result="shape"/><feGaussianBlur result="effect1_foregroundBlur_20020_1494" stdDeviation=".25"/></filter><filter id="h" color-interpolation-filters="sRGB" filterUnits="userSpaceOnUse" height="1.975" width="3.794" x="15.25" y="12.234"><feFlood flood-opacity="0" result="BackgroundImageFix"/><feBlend in="SourceGraphic" in2="BackgroundImageFix" mode="normal" result="shape"/><feGaussianBlur result="effect1_foregroundBlur_20020_1494" stdDeviation=".25"/></filter><filter id="i" color-interpolation-filters="sRGB" filterUnits="userSpaceOnUse" height="2.906" width="2.438" x="20.969" y="14.453"><feFlood flood-opacity="0" result="BackgroundImageFix"/><feBlend in="SourceGraphic" in2="BackgroundImageFix" mode="normal" result="shape"/><feGaussianBlur result="effect1_foregroundBlur_20020_1494" stdDeviation=".25"/></filter><filter id="j" color-interpolation-filters="sRGB" filterUnits="userSpaceOnUse" height="5.219" width="5.031" x="18.157" y="13.203"><feFlood flood-opacity="0" result="BackgroundImageFix"/><feBlend in="SourceGraphic" in2="BackgroundImageFix" mode="normal" result="shape"/><feGaussianBlur result="effect1_foregroundBlur_20020_1494" stdDeviation=".25"/></filter><radialGradient id="k" cx="0" cy="0" gradientTransform="matrix(-19.41171734 6.20328296 -9.45812838 -29.59699174 26.4995 17.4334)" gradientUnits="userSpaceOnUse" r="1"><stop offset=".818" stop-color="#734b4a" stop-opacity="0"/><stop offset="1" stop-color="#734b4a"/></radialGradient><radialGradient id="l" cx="0" cy="0" gradientTransform="matrix(-5.81574314 24.21500412 -16.7161472 -4.01473475 18.6889 7.81418)" gradientUnits="userSpaceOnUse" r="1"><stop offset=".751" stop-color="#764257" stop-opacity="0"/><stop offset="1" stop-color="#764257"/></radialGradient><radialGradient id="m" cx="0" cy="0" gradientTransform="matrix(-3.93860411 -7.62502718 9.60190648 -4.95973424 21.2656 29.5625)" gradientUnits="userSpaceOnUse" r="1"><stop offset="0" stop-color="#936263"/><stop offset="1" stop-color="#936263" stop-opacity="0"/></radialGradient><radialGradient id="n" cx="0" cy="0" gradientTransform="matrix(-2.88943574 22.53279566 -15.55483302 -1.99463445 17.3269 7.811)" gradientUnits="userSpaceOnUse" r="1"><stop offset=".908" stop-color="#7a3f67" stop-opacity="0"/><stop offset="1" stop-color="#7a3f67"/></radialGradient><radialGradient id="o" cx="0" cy="0" gradientTransform="matrix(-1.40624713 -.99999591 4.27932533 -6.01781354 27.5392 18.0298)" gradientUnits="userSpaceOnUse" r="1"><stop offset="0" stop-color="#896264"/><stop offset="1" stop-color="#896264" stop-opacity="0"/></radialGradient><linearGradient id="p" gradientUnits="userSpaceOnUse" x1="10.332" x2="9.133" y1="11.095" y2="11.123"><stop offset="0" stop-color="#7a4f48"/><stop offset="1" stop-color="#7a4f48" stop-opacity="0"/></linearGradient><linearGradient id="q"><stop offset="0" stop-color="#8d615d"/><stop offset="1" stop-color="#8d615d" stop-opacity="0"/></linearGradient><linearGradient id="r" gradientUnits="userSpaceOnUse" x1="10.028" x2="9.42" xlink:href="#q" y1="13.74" y2="12.87"/><radialGradient id="s" cx="0" cy="0" gradientTransform="matrix(.082467 2.17187491 -5.42334185 .20592655 7.97673 7.0766)" gradientUnits="userSpaceOnUse" r="1"><stop offset="0" stop-color="#8f7a71"/><stop offset="1" stop-color="#8f7a71" stop-opacity="0"/></radialGradient><linearGradient id="t"><stop offset="0" stop-color="#71473f"/><stop offset="1" stop-color="#71473f" stop-opacity="0"/></linearGradient><linearGradient id="u" gradientUnits="userSpaceOnUse" x1="14.695" x2="13.383" xlink:href="#t" y1="9.311" y2="9.405"/><linearGradient id="v" gradientUnits="userSpaceOnUse" x1="9.69" x2="12.088" y1="10.289" y2="10.169"><stop offset="0" stop-color="#6a3f35"/><stop offset="1" stop-color="#6a3f35" stop-opacity="0"/></linearGradient><linearGradient id="w" gradientUnits="userSpaceOnUse" x1="12.223" x2="11.329" y1="14.888" y2="11.581"><stop offset=".405" stop-color="#8d615d"/><stop offset="1" stop-color="#8d615d" stop-opacity="0"/></linearGradient><radialGradient id="x" cx="0" cy="0" gradientTransform="matrix(.69895022 3.27814474 -5.81306547 1.2394338 11.3886 3.73659)" gradientUnits="userSpaceOnUse" r="1"><stop offset="0" stop-color="#795b4e"/><stop offset="1" stop-color="#795b4e" stop-opacity="0"/></radialGradient><linearGradient id="y" gradientUnits="userSpaceOnUse" x1="14.28" x2="16.375" y1="8.211" y2="8.107"><stop offset="0" stop-color="#61392e"/><stop offset="1" stop-color="#61392e" stop-opacity="0"/></linearGradient><linearGradient id="z" gradientUnits="userSpaceOnUse" x1="18.605" x2="17.763" xlink:href="#t" y1="8.482" y2="8.473"/><linearGradient id="A" gradientUnits="userSpaceOnUse" x1="16.375" x2="16.375" y1="13.632" y2="11.825"><stop offset=".348" stop-color="#8d615d"/><stop offset="1" stop-color="#8d615d" stop-opacity="0"/></linearGradient><radialGradient id="B" cx="0" cy="0" gradientTransform="matrix(-4.35606381 -8.67955289 10.18755944 -5.11289689 19.0927 10.9528)" gradientUnits="userSpaceOnUse" r="1"><stop offset=".87" stop-color="#75584c" stop-opacity="0"/><stop offset="1" stop-color="#75584c"/></radialGradient><linearGradient id="C" gradientUnits="userSpaceOnUse" x1="18.23" x2="20.875" y1="10.408" y2="10.502"><stop offset="0" stop-color="#6c3e39"/><stop offset="1" stop-color="#6c3e39" stop-opacity="0"/></linearGradient><linearGradient id="D" gradientUnits="userSpaceOnUse" x1="19.628" x2="20.538" xlink:href="#q" y1="14.32" y2="12.565"/><radialGradient id="E" cx="0" cy="0" gradientTransform="matrix(-4.38681773 -9.9646117 10.75857732 -4.73635293 23.6124 14.3014)" gradientUnits="userSpaceOnUse" r="1"><stop offset=".87" stop-color="#79584c" stop-opacity="0"/><stop offset="1" stop-color="#4d4342"/><stop offset="1" stop-color="#79584c"/></radialGradient><radialGradient id="F" cx="0" cy="0" gradientTransform="matrix(1.34374776 1.03124671 -3.21098024 4.18401096 23.7031 13.8282)" gradientUnits="userSpaceOnUse" r="1"><stop offset="0" stop-color="#663d2f"/><stop offset="1" stop-color="#663d2f" stop-opacity="0"/></radialGradient><linearGradient id="G" gradientUnits="userSpaceOnUse" x1="21.234" x2="22.547" xlink:href="#q" y1="17.863" y2="16.547"/><radialGradient id="H" cx="0" cy="0" gradientTransform="matrix(-1.78124616 2.12498987 -1.49556278 -1.25363678 27.875 13.875)" gradientUnits="userSpaceOnUse" r="1"><stop offset="0" stop-color="#a48074"/><stop offset="1" stop-color="#a48074" stop-opacity="0"/></radialGradient><linearGradient id="I"><stop offset="0" stop-color="#9c7b71"/><stop offset="1" stop-color="#9c7b71" stop-opacity="0"/></linearGradient><radialGradient id="J" cx="0" cy="0" gradientTransform="matrix(-1.79763654 2.11483185 -2.28365358 -1.94113736 22.945 4.80052)" gradientUnits="userSpaceOnUse" r="1" xlink:href="#I"/><radialGradient id="K" cx="0" cy="0" gradientTransform="matrix(-1.03097612 2.48494744 -2.63179074 -1.09189971 18.5039 2.31557)" gradientUnits="userSpaceOnUse" r="1"><stop offset=".325" stop-color="#9c7b71"/><stop offset="1" stop-color="#9c7b71" stop-opacity="0"/></radialGradient><radialGradient id="L" cx="0" cy="0" gradientTransform="matrix(-.76664171 1.18959507 -1.39208757 -.89713922 12.5558 5.85794)" gradientUnits="userSpaceOnUse" r="1" xlink:href="#I"/><radialGradient id="M" cx="0" cy="0" gradientTransform="matrix(-.71376133 1.21604176 -1.31310674 -.77073406 8.43189 8.92447)" gradientUnits="userSpaceOnUse" r="1" xlink:href="#I"/><linearGradient id="N" gradientUnits="userSpaceOnUse" x1="27.64" x2="23.137" y1="15.011" y2="21.418"><stop offset="0" stop-color="#9b6864"/><stop offset="1" stop-color="#9b6864" stop-opacity="0"/></linearGradient><linearGradient id="O"><stop offset="0" stop-color="#98756d"/><stop offset="1" stop-color="#98756d" stop-opacity="0"/></linearGradient><linearGradient id="P" gradientUnits="userSpaceOnUse" x1="10.466" x2="9.195" xlink:href="#O" y1="14.78" y2="17.393"/><linearGradient id="Q" gradientUnits="userSpaceOnUse" x1="14.792" x2="14.374" xlink:href="#O" y1="12.933" y2="14.687"/><linearGradient id="R" gradientUnits="userSpaceOnUse" x1="18.622" x2="18.544" xlink:href="#O" y1="13.078" y2="13.875"/><linearGradient id="S" gradientUnits="userSpaceOnUse" x1="22.726" x2="21.288" xlink:href="#O" y1="15.511" y2="16.699"/><radialGradient id="T" cx="0" cy="0" gradientTransform="matrix(-3.1249946 2.21876653 -3.15739573 -4.44699543 22.8594 15.1563)" gradientUnits="userSpaceOnUse" r="1"><stop offset="0" stop-color="#9a756e"/><stop offset="1" stop-color="#9a756e" stop-opacity="0"/></radialGradient><path d="m13.9647 4.4529c-.0314-1.33371 1.0244-2.44035 2.3581-2.47175 1.3337-.03139 2.4403 1.02434 2.4717 2.35806l.0229.97286c.4258-.7513 1.2428-1.2477 2.1659-1.22063 1.3302.03901 2.3762 1.15009 2.335 2.4802l-.2556 8.25496 1.4504-1.7992c.8712-1.0808 2.453-1.252 3.5352-.3825 1.0847.8714 1.2563 2.4577.3831 3.5409l-.6229.7729-.0061.0089c-.5727.7335-1.7452 2.2353-3.2163 4.6637-.4745.7118-.8868 1.4721-1.2983 2.2311-.5869 1.0823-1.1723 2.1619-1.9347 3.0942-1.5155 1.8686-3.8299 3.063-6.4232 3.063-3.1449 0-5.87956-1.7563-7.27666-4.3416l-.00464.008c-1.27343-2.2812-1.46093-4.8047-1.52343-6.1562l-.13712-2.4419c-.00768-.0627-.01293-.1261-.01566-.1904l-.30515-7.18932c-.05442-1.282.93698-2.36716 2.21866-2.42851.7316-.03502 1.40057.27098 1.85291.77804l-.04703-1.40582c-.04322-1.29192.96902-2.37426 2.26092-2.41748.8435-.02822 1.5976.39346 2.0316 1.04912z" fill="#8d615d"/><path d="m13.9647 4.4529c-.0314-1.33371 1.0244-2.44035 2.3581-2.47175 1.3337-.03139 2.4403 1.02434 2.4717 2.35806l.0229.97286c.4258-.7513 1.2428-1.2477 2.1659-1.22063 1.3302.03901 2.3762 1.15009 2.335 2.4802l-.2556 8.25496 1.4504-1.7992c.8712-1.0808 2.453-1.252 3.5352-.3825 1.0847.8714 1.2563 2.4577.3831 3.5409l-.6229.7729-.0061.0089c-.5727.7335-1.7452 2.2353-3.2163 4.6637-.4745.7118-.8868 1.4721-1.2983 2.2311-.5869 1.0823-1.1723 2.1619-1.9347 3.0942-1.5155 1.8686-3.8299 3.063-6.4232 3.063-3.1449 0-5.87956-1.7563-7.27666-4.3416l-.00464.008c-1.27343-2.2812-1.46093-4.8047-1.52343-6.1562l-.13712-2.4419c-.00768-.0627-.01293-.1261-.01566-.1904l-.30515-7.18932c-.05442-1.282.93698-2.36716 2.21866-2.42851.7316-.03502 1.40057.27098 1.85291.77804l-.04703-1.40582c-.04322-1.29192.96902-2.37426 2.26092-2.41748.8435-.02822 1.5976.39346 2.0316 1.04912z" fill="url(#k)"/><path d="m13.9647 4.4529c-.0314-1.33371 1.0244-2.44035 2.3581-2.47175 1.3337-.03139 2.4403 1.02434 2.4717 2.35806l.0229.97286c.4258-.7513 1.2428-1.2477 2.1659-1.22063 1.3302.03901 2.3762 1.15009 2.335 2.4802l-.2556 8.25496 1.4504-1.7992c.8712-1.0808 2.453-1.252 3.5352-.3825 1.0847.8714 1.2563 2.4577.3831 3.5409l-.6229.7729-.0061.0089c-.5727.7335-1.7452 2.2353-3.2163 4.6637-.4745.7118-.8868 1.4721-1.2983 2.2311-.5869 1.0823-1.1723 2.1619-1.9347 3.0942-1.5155 1.8686-3.8299 3.063-6.4232 3.063-3.1449 0-5.87956-1.7563-7.27666-4.3416l-.00464.008c-1.27343-2.2812-1.46093-4.8047-1.52343-6.1562l-.13712-2.4419c-.00768-.0627-.01293-.1261-.01566-.1904l-.30515-7.18932c-.05442-1.282.93698-2.36716 2.21866-2.42851.7316-.03502 1.40057.27098 1.85291.77804l-.04703-1.40582c-.04322-1.29192.96902-2.37426 2.26092-2.41748.8435-.02822 1.5976.39346 2.0316 1.04912z" fill="url(#l)"/><path d="m13.9647 4.4529c-.0314-1.33371 1.0244-2.44035 2.3581-2.47175 1.3337-.03139 2.4403 1.02434 2.4717 2.35806l.0229.97286c.4258-.7513 1.2428-1.2477 2.1659-1.22063 1.3302.03901 2.3762 1.15009 2.335 2.4802l-.2556 8.25496 1.4504-1.7992c.8712-1.0808 2.453-1.252 3.5352-.3825 1.0847.8714 1.2563 2.4577.3831 3.5409l-.6229.7729-.0061.0089c-.5727.7335-1.7452 2.2353-3.2163 4.6637-.4745.7118-.8868 1.4721-1.2983 2.2311-.5869 1.0823-1.1723 2.1619-1.9347 3.0942-1.5155 1.8686-3.8299 3.063-6.4232 3.063-3.1449 0-5.87956-1.7563-7.27666-4.3416l-.00464.008c-1.27343-2.2812-1.46093-4.8047-1.52343-6.1562l-.13712-2.4419c-.00768-.0627-.01293-.1261-.01566-.1904l-.30515-7.18932c-.05442-1.282.93698-2.36716 2.21866-2.42851.7316-.03502 1.40057.27098 1.85291.77804l-.04703-1.40582c-.04322-1.29192.96902-2.37426 2.26092-2.41748.8435-.02822 1.5976.39346 2.0316 1.04912z" fill="url(#m)"/><path d="m13.9647 4.4529c-.0314-1.33371 1.0244-2.44035 2.3581-2.47175 1.3337-.03139 2.4403 1.02434 2.4717 2.35806l.0229.97286c.4258-.7513 1.2428-1.2477 2.1659-1.22063 1.3302.03901 2.3762 1.15009 2.335 2.4802l-.2556 8.25496 1.4504-1.7992c.8712-1.0808 2.453-1.252 3.5352-.3825 1.0847.8714 1.2563 2.4577.3831 3.5409l-.6229.7729-.0061.0089c-.5727.7335-1.7452 2.2353-3.2163 4.6637-.4745.7118-.8868 1.4721-1.2983 2.2311-.5869 1.0823-1.1723 2.1619-1.9347 3.0942-1.5155 1.8686-3.8299 3.063-6.4232 3.063-3.1449 0-5.87956-1.7563-7.27666-4.3416l-.00464.008c-1.27343-2.2812-1.46093-4.8047-1.52343-6.1562l-.13712-2.4419c-.00768-.0627-.01293-.1261-.01566-.1904l-.30515-7.18932c-.05442-1.282.93698-2.36716 2.21866-2.42851.7316-.03502 1.40057.27098 1.85291.77804l-.04703-1.40582c-.04322-1.29192.96902-2.37426 2.26092-2.41748.8435-.02822 1.5976.39346 2.0316 1.04912z" fill="url(#n)"/><path d="m13.9647 4.4529c-.0314-1.33371 1.0244-2.44035 2.3581-2.47175 1.3337-.03139 2.4403 1.02434 2.4717 2.35806l.0229.97286c.4258-.7513 1.2428-1.2477 2.1659-1.22063 1.3302.03901 2.3762 1.15009 2.335 2.4802l-.2556 8.25496 1.4504-1.7992c.8712-1.0808 2.453-1.252 3.5352-.3825 1.0847.8714 1.2563 2.4577.3831 3.5409l-.6229.7729-.0061.0089c-.5727.7335-1.7452 2.2353-3.2163 4.6637-.4745.7118-.8868 1.4721-1.2983 2.2311-.5869 1.0823-1.1723 2.1619-1.9347 3.0942-1.5155 1.8686-3.8299 3.063-6.4232 3.063-3.1449 0-5.87956-1.7563-7.27666-4.3416l-.00464.008c-1.27343-2.2812-1.46093-4.8047-1.52343-6.1562l-.13712-2.4419c-.00768-.0627-.01293-.1261-.01566-.1904l-.30515-7.18932c-.05442-1.282.93698-2.36716 2.21866-2.42851.7316-.03502 1.40057.27098 1.85291.77804l-.04703-1.40582c-.04322-1.29192.96902-2.37426 2.26092-2.41748.8435-.02822 1.5976.39346 2.0316 1.04912z" fill="url(#o)"/><path d="m5.85487 14.1288-.18763-4.42066c-.05442-1.282.93698-2.36716 2.21866-2.42851.7316-.03501 1.40057.27098 1.85291.77804l-.00028-.0083c.17878.23687.45227.7433.49597 1.49597.0563.96876.1693 3.36716.2188 4.44536z" fill="url(#p)"/><path d="m5.85487 14.1288-.18763-4.42066c-.05442-1.282.93698-2.36716 2.21866-2.42851.7316-.03501 1.40057.27098 1.85291.77804l-.00028-.0083c.17878.23687.45227.7433.49597 1.49597.0563.96876.1693 3.36716.2188 4.44536z" fill="url(#r)"/><path d="m5.85487 14.1288-.18763-4.42066c-.05442-1.282.93698-2.36716 2.21866-2.42851.7316-.03501 1.40057.27098 1.85291.77804l-.00028-.0083c.17878.23687.45227.7433.49597 1.49597.0563.96876.1693 3.36716.2188 4.44536z" fill="url(#s)"/><g filter="url(#a)"><path d="m8.42236 9.41647c-.10033-1.07031-.64062-1.29685-1.09375-1.29685 1.21875-.53124 2.125.18751 2.21875 1.29685l.39063 5.18753-1.95313 1.9219.76563-2.1875c0-1.2292-.23438-3.9219-.32813-4.92193z" fill="#9c7870"/></g><path d="m9.73858 8.04935c.17878.23688.45232.74331.49602 1.49598.0348.59937.2311 3.92297.3425 5.64287l4.1778-1.1722-.4432-6.88049c-.0172-.63119-.0113-1.28499-.3274-1.85203-.4339-.65566-1.1881-1.07733-2.0315-1.04911-1.2919.04322-2.3042 1.12556-2.26098 2.41747z" fill="url(#u)"/><path d="m9.73858 8.04935c.17878.23688.45232.74331.49602 1.49598.0348.59937.2311 3.92297.3425 5.64287l4.1778-1.1722-.4432-6.88049c-.0172-.63119-.0113-1.28499-.3274-1.85203-.4339-.65566-1.1881-1.07733-2.0315-1.04911-1.2919.04322-2.3042 1.12556-2.26098 2.41747z" fill="url(#v)"/><path d="m9.73858 8.04935c.17878.23688.45232.74331.49602 1.49598.0348.59937.2311 3.92297.3425 5.64287l4.1778-1.1722-.4432-6.88049c-.0172-.63119-.0113-1.28499-.3274-1.85203-.4339-.65566-1.1881-1.07733-2.0315-1.04911-1.2919.04322-2.3042 1.12556-2.26098 2.41747z" fill="url(#w)"/><path d="m9.73858 8.04935c.17878.23688.45232.74331.49602 1.49598.0348.59937.2311 3.92297.3425 5.64287l4.1778-1.1722-.4432-6.88049c-.0172-.63119-.0113-1.28499-.3274-1.85203-.4339-.65566-1.1881-1.07733-2.0315-1.04911-1.2919.04322-2.3042 1.12556-2.26098 2.41747z" fill="url(#x)"/><g filter="url(#b)"><path d="m12.6306 6.52859c-.1004-1.07031-.6407-1.29685-1.0938-1.29685 1.2188-.53124 2.125.18751 2.2188 1.29685l.4283 6.66841-2.0138.9318.8416-1.8635c0-1.2292-.2874-4.73667-.3811-5.73671z" fill="#9c7870"/></g><path d="m18.5564 6.28396c0-.45733.1666-.86358.2643-.97686l.0006-.00352-.0227-.96437c-.0314-1.33372-1.138-2.38945-2.4717-2.35806-1.3337.0314-2.3895 1.13804-2.3581 2.47175l.0196.83061c.2946.52859.3095 1.13258.3241 1.72335.0447 1.8104.2707 4.17244.3871 5.97974h3.7365c.0251-1.9661.1203-6.05844.1203-6.70264z" fill="url(#y)"/><path d="m18.5564 6.28396c0-.45733.1666-.86358.2643-.97686l.0006-.00352-.0227-.96437c-.0314-1.33372-1.138-2.38945-2.4717-2.35806-1.3337.0314-2.3895 1.13804-2.3581 2.47175l.0196.83061c.2946.52859.3095 1.13258.3241 1.72335.0447 1.8104.2707 4.17244.3871 5.97974h3.7365c.0251-1.9661.1203-6.05844.1203-6.70264z" fill="url(#z)"/><path d="m18.5564 6.28396c0-.45733.1666-.86358.2643-.97686l.0006-.00352-.0227-.96437c-.0314-1.33372-1.138-2.38945-2.4717-2.35806-1.3337.0314-2.3895 1.13804-2.3581 2.47175l.0196.83061c.2946.52859.3095 1.13258.3241 1.72335.0447 1.8104.2707 4.17244.3871 5.97974h3.7365c.0251-1.9661.1203-6.05844.1203-6.70264z" fill="url(#A)"/><path d="m18.5564 6.28396c0-.45733.1666-.86358.2643-.97686l.0006-.00352-.0227-.96437c-.0314-1.33372-1.138-2.38945-2.4717-2.35806-1.3337.0314-2.3895 1.13804-2.3581 2.47175l.0196.83061c.2946.52859.3095 1.13258.3241 1.72335.0447 1.8104.2707 4.17244.3871 5.97974h3.7365c.0251-1.9661.1203-6.05844.1203-6.70264z" fill="url(#B)"/><g filter="url(#c)"><path d="m16.7676 3.00775v10.10995h1.2028c.0541-2.1239.1625-6.74865.1625-8.25701s-.9102-1.86378-1.3653-1.85294z" fill="#9c7870"/></g><path d="m18.8165 5.30704c-.0976.11329-.2643.51954-.2643.97686 0 2.60581-.1202 4.5201-.1202 7.1263l4.6308 3.3158v-1.9013l.2555-8.25312c.0412-1.33011-1.0049-2.44118-2.335-2.48019-.9231-.02707-1.7401.46932-2.1659 1.22063l-.0002-.00701z" fill="url(#C)"/><path d="m18.8165 5.30704c-.0976.11329-.2643.51954-.2643.97686 0 2.60581-.1202 4.5201-.1202 7.1263l4.6308 3.3158v-1.9013l.2555-8.25312c.0412-1.33011-1.0049-2.44118-2.335-2.48019-.9231-.02707-1.7401.46932-2.1659 1.22063l-.0002-.00701z" fill="url(#D)"/><path d="m18.8165 5.30704c-.0976.11329-.2643.51954-.2643.97686 0 2.60581-.1202 4.5201-.1202 7.1263l4.6308 3.3158v-1.9013l.2555-8.25312c.0412-1.33011-1.0049-2.44118-2.335-2.48019-.9231-.02707-1.7401.46932-2.1659 1.22063l-.0002-.00701z" fill="url(#E)"/><g filter="url(#d)"><path d="m21.4012 5.0783v10.1099h1.2028c.0542-2.1238.1626-6.7486.1626-8.25696s-.9102-1.86377-1.3654-1.85294z" fill="#9c7870"/></g><path d="m23.1873 14.6721 1.3258-1.6448c.8712-1.0807 2.453-1.2519 3.5352-.3825 1.0847.8715 1.2563 2.4578.3831 3.541l-.623.7729-.0061.0089c-.5726.7335-1.7452 2.2353-3.2162 4.6637-.4274.6411-.8043 1.3216-1.1757 2.005-3.1576-1.6878-2.6971-4.8628-1.9942-6.3576z" fill="url(#F)"/><path d="m23.1873 14.6721 1.3258-1.6448c.8712-1.0807 2.453-1.2519 3.5352-.3825 1.0847.8715 1.2563 2.4578.3831 3.541l-.623.7729-.0061.0089c-.5726.7335-1.7452 2.2353-3.2162 4.6637-.4274.6411-.8043 1.3216-1.1757 2.005-3.1576-1.6878-2.6971-4.8628-1.9942-6.3576z" fill="url(#G)"/><path d="m13.9647 4.4529c-.0314-1.33371 1.0244-2.44035 2.3581-2.47175 1.3337-.03139 2.4403 1.02434 2.4717 2.35806l.0229.97286c.4258-.7513 1.2428-1.2477 2.1659-1.22063 1.3302.03901 2.3762 1.15009 2.335 2.4802l-.2556 8.25496 1.4504-1.7992c.8712-1.0808 2.453-1.252 3.5352-.3825 1.0847.8714 1.2563 2.4577.3831 3.5409l-.6229.7729-.0061.0089c-.5727.7335-1.7452 2.2353-3.2163 4.6637-.4745.7118-.8868 1.4721-1.2983 2.2311-.5869 1.0823-1.1723 2.1619-1.9347 3.0942-1.5155 1.8686-3.8299 3.063-6.4232 3.063-3.1449 0-5.87956-1.7563-7.27666-4.3416l-.00464.008c-1.27343-2.2812-1.46093-4.8047-1.52343-6.1562l-.13712-2.4419c-.00768-.0627-.01293-.1261-.01566-.1904l-.30515-7.18932c-.05442-1.282.93698-2.36716 2.21866-2.42851.7316-.03502 1.40057.27098 1.85291.77804l-.04703-1.40582c-.04322-1.29192.96902-2.37426 2.26092-2.41748.8435-.02822 1.5976.39346 2.0316 1.04912z" fill="url(#H)"/><path d="m13.9647 4.4529c-.0314-1.33371 1.0244-2.44035 2.3581-2.47175 1.3337-.03139 2.4403 1.02434 2.4717 2.35806l.0229.97286c.4258-.7513 1.2428-1.2477 2.1659-1.22063 1.3302.03901 2.3762 1.15009 2.335 2.4802l-.2556 8.25496 1.4504-1.7992c.8712-1.0808 2.453-1.252 3.5352-.3825 1.0847.8714 1.2563 2.4577.3831 3.5409l-.6229.7729-.0061.0089c-.5727.7335-1.7452 2.2353-3.2163 4.6637-.4745.7118-.8868 1.4721-1.2983 2.2311-.5869 1.0823-1.1723 2.1619-1.9347 3.0942-1.5155 1.8686-3.8299 3.063-6.4232 3.063-3.1449 0-5.87956-1.7563-7.27666-4.3416l-.00464.008c-1.27343-2.2812-1.46093-4.8047-1.52343-6.1562l-.13712-2.4419c-.00768-.0627-.01293-.1261-.01566-.1904l-.30515-7.18932c-.05442-1.282.93698-2.36716 2.21866-2.42851.7316-.03502 1.40057.27098 1.85291.77804l-.04703-1.40582c-.04322-1.29192.96902-2.37426 2.26092-2.41748.8435-.02822 1.5976.39346 2.0316 1.04912z" fill="url(#J)"/><path d="m13.9647 4.4529c-.0314-1.33371 1.0244-2.44035 2.3581-2.47175 1.3337-.03139 2.4403 1.02434 2.4717 2.35806l.0229.97286c.4258-.7513 1.2428-1.2477 2.1659-1.22063 1.3302.03901 2.3762 1.15009 2.335 2.4802l-.2556 8.25496 1.4504-1.7992c.8712-1.0808 2.453-1.252 3.5352-.3825 1.0847.8714 1.2563 2.4577.3831 3.5409l-.6229.7729-.0061.0089c-.5727.7335-1.7452 2.2353-3.2163 4.6637-.4745.7118-.8868 1.4721-1.2983 2.2311-.5869 1.0823-1.1723 2.1619-1.9347 3.0942-1.5155 1.8686-3.8299 3.063-6.4232 3.063-3.1449 0-5.87956-1.7563-7.27666-4.3416l-.00464.008c-1.27343-2.2812-1.46093-4.8047-1.52343-6.1562l-.13712-2.4419c-.00768-.0627-.01293-.1261-.01566-.1904l-.30515-7.18932c-.05442-1.282.93698-2.36716 2.21866-2.42851.7316-.03502 1.40057.27098 1.85291.77804l-.04703-1.40582c-.04322-1.29192.96902-2.37426 2.26092-2.41748.8435-.02822 1.5976.39346 2.0316 1.04912z" fill="url(#K)"/><path d="m13.9647 4.4529c-.0314-1.33371 1.0244-2.44035 2.3581-2.47175 1.3337-.03139 2.4403 1.02434 2.4717 2.35806l.0229.97286c.4258-.7513 1.2428-1.2477 2.1659-1.22063 1.3302.03901 2.3762 1.15009 2.335 2.4802l-.2556 8.25496 1.4504-1.7992c.8712-1.0808 2.453-1.252 3.5352-.3825 1.0847.8714 1.2563 2.4577.3831 3.5409l-.6229.7729-.0061.0089c-.5727.7335-1.7452 2.2353-3.2163 4.6637-.4745.7118-.8868 1.4721-1.2983 2.2311-.5869 1.0823-1.1723 2.1619-1.9347 3.0942-1.5155 1.8686-3.8299 3.063-6.4232 3.063-3.1449 0-5.87956-1.7563-7.27666-4.3416l-.00464.008c-1.27343-2.2812-1.46093-4.8047-1.52343-6.1562l-.13712-2.4419c-.00768-.0627-.01293-.1261-.01566-.1904l-.30515-7.18932c-.05442-1.282.93698-2.36716 2.21866-2.42851.7316-.03502 1.40057.27098 1.85291.77804l-.04703-1.40582c-.04322-1.29192.96902-2.37426 2.26092-2.41748.8435-.02822 1.5976.39346 2.0316 1.04912z" fill="url(#L)"/><path d="m13.9647 4.4529c-.0314-1.33371 1.0244-2.44035 2.3581-2.47175 1.3337-.03139 2.4403 1.02434 2.4717 2.35806l.0229.97286c.4258-.7513 1.2428-1.2477 2.1659-1.22063 1.3302.03901 2.3762 1.15009 2.335 2.4802l-.2556 8.25496 1.4504-1.7992c.8712-1.0808 2.453-1.252 3.5352-.3825 1.0847.8714 1.2563 2.4577.3831 3.5409l-.6229.7729-.0061.0089c-.5727.7335-1.7452 2.2353-3.2163 4.6637-.4745.7118-.8868 1.4721-1.2983 2.2311-.5869 1.0823-1.1723 2.1619-1.9347 3.0942-1.5155 1.8686-3.8299 3.063-6.4232 3.063-3.1449 0-5.87956-1.7563-7.27666-4.3416l-.00464.008c-1.27343-2.2812-1.46093-4.8047-1.52343-6.1562l-.13712-2.4419c-.00768-.0627-.01293-.1261-.01566-.1904l-.30515-7.18932c-.05442-1.282.93698-2.36716 2.21866-2.42851.7316-.03502 1.40057.27098 1.85291.77804l-.04703-1.40582c-.04322-1.29192.96902-2.37426 2.26092-2.41748.8435-.02822 1.5976.39346 2.0316 1.04912z" fill="url(#M)" fill-opacity=".6"/><g filter="url(#e)"><path d="m27.1637 14.6443c-.7444.7445-2.5554 2.7679-3.8442 4.906" stroke="url(#N)" stroke-linecap="round" stroke-width="1.5"/></g><g filter="url(#f)"><path d="m10.2031 14.4062c-.29164.3438-1.28122 1.3438-1.84372 1.9063" stroke="url(#P)" stroke-linecap="round" stroke-width=".5"/></g><g filter="url(#g)"><path d="m12.3281 13.8125c.6563-.25 1.6813-.7438 2.1563-1.0937" stroke="url(#Q)" stroke-linecap="round" stroke-width=".5"/></g><g filter="url(#h)"><path d="m16 12.9844c.6094.3125 1.6406.5781 2.294.4354" stroke="url(#R)" stroke-linecap="round" stroke-width=".5"/></g><g filter="url(#i)"><path d="m21.7188 16.6094c.2656-.3906.7343-1.1719.9375-1.4062" stroke="url(#S)" stroke-linecap="round" stroke-width=".5"/></g><g filter="url(#j)"><path d="m22.6875 15.2031c-1.75-.0125-3.4271-1.0521-3.9687-1.5-.4 2.1625 1.2395 3.7657 2.0781 4.2188z" fill="url(#T)"/></g></svg>