<svg fill="none" height="32" viewBox="0 0 32 32" width="32" xmlns="http://www.w3.org/2000/svg" xmlns:xlink="http://www.w3.org/1999/xlink"><filter id="a" color-interpolation-filters="sRGB" filterUnits="userSpaceOnUse" height="10.585" width="4.609" x="5.934" y="7.128"><feFlood flood-opacity="0" result="BackgroundImageFix"/><feBlend in="SourceGraphic" in2="BackgroundImageFix" mode="normal" result="shape"/><feGaussianBlur result="effect1_foregroundBlur_20020_1550" stdDeviation=".5"/></filter><filter id="b" color-interpolation-filters="sRGB" filterUnits="userSpaceOnUse" height="11.076" width="4.647" x="10.142" y="4.241"><feFlood flood-opacity="0" result="BackgroundImageFix"/><feBlend in="SourceGraphic" in2="BackgroundImageFix" mode="normal" result="shape"/><feGaussianBlur result="effect1_foregroundBlur_20020_1550" stdDeviation=".5"/></filter><filter id="c" color-interpolation-filters="sRGB" filterUnits="userSpaceOnUse" height="12.11" width="3.365" x="15.373" y="2.195"><feFlood flood-opacity="0" result="BackgroundImageFix"/><feBlend in="SourceGraphic" in2="BackgroundImageFix" mode="normal" result="shape"/><feGaussianBlur result="effect1_foregroundBlur_20020_1550" stdDeviation=".5"/></filter><filter id="d" color-interpolation-filters="sRGB" filterUnits="userSpaceOnUse" height="12.11" width="3.365" x="20.006" y="4.266"><feFlood flood-opacity="0" result="BackgroundImageFix"/><feBlend in="SourceGraphic" in2="BackgroundImageFix" mode="normal" result="shape"/><feGaussianBlur result="effect1_foregroundBlur_20020_1550" stdDeviation=".5"/></filter><filter id="e" color-interpolation-filters="sRGB" filterUnits="userSpaceOnUse" height="8.406" width="7.344" x="21.175" y="13.082"><feFlood flood-opacity="0" result="BackgroundImageFix"/><feBlend in="SourceGraphic" in2="BackgroundImageFix" mode="normal" result="shape"/><feGaussianBlur result="effect1_foregroundBlur_20020_1550" stdDeviation=".5"/></filter><filter id="f" color-interpolation-filters="sRGB" filterUnits="userSpaceOnUse" height="3.406" width="3.344" x="7.215" y="13.844"><feFlood flood-opacity="0" result="BackgroundImageFix"/><feBlend in="SourceGraphic" in2="BackgroundImageFix" mode="normal" result="shape"/><feGaussianBlur result="effect1_foregroundBlur_20020_1550" stdDeviation=".25"/></filter><filter id="g" color-interpolation-filters="sRGB" filterUnits="userSpaceOnUse" height="2.594" width="3.656" x="11.183" y="12.156"><feFlood flood-opacity="0" result="BackgroundImageFix"/><feBlend in="SourceGraphic" in2="BackgroundImageFix" mode="normal" result="shape"/><feGaussianBlur result="effect1_foregroundBlur_20020_1550" stdDeviation=".25"/></filter><filter id="h" color-interpolation-filters="sRGB" filterUnits="userSpaceOnUse" height="1.975" width="3.794" x="14.855" y="12.422"><feFlood flood-opacity="0" result="BackgroundImageFix"/><feBlend in="SourceGraphic" in2="BackgroundImageFix" mode="normal" result="shape"/><feGaussianBlur result="effect1_foregroundBlur_20020_1550" stdDeviation=".25"/></filter><filter id="i" color-interpolation-filters="sRGB" filterUnits="userSpaceOnUse" height="2.906" width="2.438" x="20.574" y="14.641"><feFlood flood-opacity="0" result="BackgroundImageFix"/><feBlend in="SourceGraphic" in2="BackgroundImageFix" mode="normal" result="shape"/><feGaussianBlur result="effect1_foregroundBlur_20020_1550" stdDeviation=".25"/></filter><filter id="j" color-interpolation-filters="sRGB" filterUnits="userSpaceOnUse" height="5.219" width="5.031" x="17.762" y="13.391"><feFlood flood-opacity="0" result="BackgroundImageFix"/><feBlend in="SourceGraphic" in2="BackgroundImageFix" mode="normal" result="shape"/><feGaussianBlur result="effect1_foregroundBlur_20020_1550" stdDeviation=".25"/></filter><radialGradient id="k" cx="0" cy="0" gradientTransform="matrix(-19.41172051 6.21672897 -9.49520568 -29.64875578 26.1048 17.654)" gradientUnits="userSpaceOnUse" r="1"><stop offset=".818" stop-color="#daa394" stop-opacity="0"/><stop offset="1" stop-color="#daa394"/></radialGradient><radialGradient id="l" cx="0" cy="0" gradientTransform="matrix(-5.81570135 24.26704999 -16.7200521 -4.00703133 18.2942 8.01418)" gradientUnits="userSpaceOnUse" r="1"><stop offset=".751" stop-color="#c18396" stop-opacity="0"/><stop offset="1" stop-color="#c18396"/></radialGradient><radialGradient id="m" cx="0" cy="0" gradientTransform="matrix(-3.93861923 -7.64140335 9.61058649 -4.95359806 20.8709 29.8092)" gradientUnits="userSpaceOnUse" r="1"><stop offset="0" stop-color="#fbc5b8"/><stop offset="1" stop-color="#fbc5b8" stop-opacity="0"/></radialGradient><radialGradient id="n" cx="0" cy="0" gradientTransform="matrix(-.14472522 22.69923864 -15.63618219 -.09969277 15.269 8.13609)" gradientUnits="userSpaceOnUse" r="1"><stop offset=".927" stop-color="#bb7d95" stop-opacity="0"/><stop offset=".987" stop-color="#bb7d95"/></radialGradient><radialGradient id="o" cx="0" cy="0" gradientTransform="matrix(-1.40625208 -1.00214437 4.29152017 -6.02204569 27.1445 18.2517)" gradientUnits="userSpaceOnUse" r="1"><stop offset="0" stop-color="#e3b3a6"/><stop offset="1" stop-color="#e3b3a6" stop-opacity="0"/></radialGradient><linearGradient id="p" gradientUnits="userSpaceOnUse" x1="9.937" x2="8.738" y1="11.282" y2="11.311"><stop offset="0" stop-color="#f9baa2"/><stop offset="1" stop-color="#f9baa2" stop-opacity="0"/></linearGradient><linearGradient id="q"><stop offset="0" stop-color="#fbc4b2"/><stop offset="1" stop-color="#fbc4b2" stop-opacity="0"/></linearGradient><linearGradient id="r" gradientUnits="userSpaceOnUse" x1="9.633" x2="9.026" xlink:href="#q" y1="13.927" y2="13.057"/><radialGradient id="s" cx="0" cy="0" gradientTransform="matrix(.69597898 2.36836545 -5.91399132 1.73791323 6.9685 7.06761)" gradientUnits="userSpaceOnUse" r="1"><stop offset="0" stop-color="#ddab8f"/><stop offset="1" stop-color="#ddab8f" stop-opacity="0"/></radialGradient><linearGradient id="t" gradientUnits="userSpaceOnUse" x1="14.301" x2="12.988" y1="9.498" y2="9.592"><stop offset="0" stop-color="#e7aa8e"/><stop offset="1" stop-color="#e7aa8e" stop-opacity="0"/></linearGradient><linearGradient id="u" gradientUnits="userSpaceOnUse" x1="9.296" x2="11.693" y1="10.476" y2="10.356"><stop offset="0" stop-color="#e2a486"/><stop offset="1" stop-color="#e2a486" stop-opacity="0"/></linearGradient><linearGradient id="v" gradientUnits="userSpaceOnUse" x1="11.828" x2="10.934" y1="15.075" y2="11.769"><stop offset=".405" stop-color="#fbc4b2"/><stop offset="1" stop-color="#fbc4b2" stop-opacity="0"/></linearGradient><radialGradient id="w" cx="0" cy="0" gradientTransform="matrix(.69895022 3.27814474 -5.81306547 1.2394338 10.9939 3.92409)" gradientUnits="userSpaceOnUse" r="1"><stop offset="0" stop-color="#d8b19a"/><stop offset="1" stop-color="#d8b19a" stop-opacity="0"/></radialGradient><linearGradient id="x" gradientUnits="userSpaceOnUse" x1="13.885" x2="15.98" y1="8.399" y2="8.294"><stop offset="0" stop-color="#dc9f80"/><stop offset="1" stop-color="#dc9f80" stop-opacity="0"/></linearGradient><linearGradient id="y" gradientUnits="userSpaceOnUse" x1="18.21" x2="17.368" y1="8.67" y2="8.661"><stop offset="0" stop-color="#f7bb9c"/><stop offset="1" stop-color="#f7bb9c" stop-opacity="0"/></linearGradient><linearGradient id="z" gradientUnits="userSpaceOnUse" x1="15.98" x2="15.98" y1="13.819" y2="12.012"><stop offset=".348" stop-color="#fbc4b2"/><stop offset="1" stop-color="#fbc4b2" stop-opacity="0"/></linearGradient><radialGradient id="A" cx="0" cy="0" gradientTransform="matrix(-4.35606381 -8.67955289 10.18755944 -5.11289689 18.698 11.1403)" gradientUnits="userSpaceOnUse" r="1"><stop offset=".87" stop-color="#d6ac94" stop-opacity="0"/><stop offset="1" stop-color="#d6ac94"/></radialGradient><linearGradient id="B" gradientUnits="userSpaceOnUse" x1="17.836" x2="20.481" y1="10.596" y2="10.689"><stop offset="0" stop-color="#e4a38a"/><stop offset="1" stop-color="#e4a38a" stop-opacity="0"/></linearGradient><linearGradient id="C" gradientUnits="userSpaceOnUse" x1="19.233" x2="20.144" xlink:href="#q" y1="14.508" y2="12.752"/><radialGradient id="D" cx="0" cy="0" gradientTransform="matrix(-3.42492068 -10.21112758 11.0246843 -3.69779624 23.2177 14.4889)" gradientUnits="userSpaceOnUse" r="1"><stop offset=".878" stop-color="#e5b090" stop-opacity="0"/><stop offset="1" stop-color="#e5b090"/></radialGradient><radialGradient id="E" cx="0" cy="0" gradientTransform="matrix(1.34374776 1.03124671 -3.21098024 4.18401096 23.3084 14.0156)" gradientUnits="userSpaceOnUse" r="1"><stop offset="0" stop-color="#e8a987"/><stop offset="1" stop-color="#e8a987" stop-opacity="0"/></radialGradient><linearGradient id="F" gradientUnits="userSpaceOnUse" x1="20.84" x2="22.152" xlink:href="#q" y1="18.051" y2="16.734"/><linearGradient id="G"><stop offset="0" stop-color="#ffd7c0"/><stop offset="1" stop-color="#ffd7c0" stop-opacity="0"/></linearGradient><radialGradient id="H" cx="0" cy="0" gradientTransform="matrix(-1.78124616 2.12498987 -1.49556278 -1.25363678 27.4803 14.0625)" gradientUnits="userSpaceOnUse" r="1" xlink:href="#G"/><radialGradient id="I" cx="0" cy="0" gradientTransform="matrix(-1.79763654 2.11483185 -2.28365358 -1.94113736 22.5503 4.98799)" gradientUnits="userSpaceOnUse" r="1" xlink:href="#G"/><radialGradient id="J" cx="0" cy="0" gradientTransform="matrix(-1.03097612 2.48494744 -2.63179074 -1.09189971 18.1091 2.50304)" gradientUnits="userSpaceOnUse" r="1"><stop offset=".325" stop-color="#ffd7c0"/><stop offset="1" stop-color="#ffd7c0" stop-opacity="0"/></radialGradient><radialGradient id="K" cx="0" cy="0" gradientTransform="matrix(-.76664171 1.18959507 -1.39208757 -.89713922 12.1611 6.04541)" gradientUnits="userSpaceOnUse" r="1" xlink:href="#G"/><radialGradient id="L" cx="0" cy="0" gradientTransform="matrix(-.71376133 1.21604176 -1.31310674 -.77073406 8.03718 9.11194)" gradientUnits="userSpaceOnUse" r="1" xlink:href="#G"/><linearGradient id="M" gradientUnits="userSpaceOnUse" x1="27.245" x2="22.742" y1="15.198" y2="21.605"><stop offset="0" stop-color="#ffceb9"/><stop offset="1" stop-color="#ffceb9" stop-opacity="0"/></linearGradient><linearGradient id="N"><stop offset="0" stop-color="#ffd6c0"/><stop offset="1" stop-color="#ffd6c0" stop-opacity="0"/></linearGradient><linearGradient id="O" gradientUnits="userSpaceOnUse" x1="10.072" x2="8.801" xlink:href="#N" y1="14.967" y2="17.581"/><linearGradient id="P" gradientUnits="userSpaceOnUse" x1="14.398" x2="13.979" xlink:href="#N" y1="13.121" y2="14.875"/><linearGradient id="Q" gradientUnits="userSpaceOnUse" x1="18.227" x2="18.149" xlink:href="#N" y1="13.265" y2="14.063"/><linearGradient id="R" gradientUnits="userSpaceOnUse" x1="22.332" x2="20.893" xlink:href="#N" y1="15.698" y2="16.886"/><radialGradient id="S" cx="0" cy="0" gradientTransform="matrix(-3.1249946 2.21876653 -3.15739573 -4.44699543 22.4647 15.3438)" gradientUnits="userSpaceOnUse" r="1"><stop offset="0" stop-color="#ffd0ba"/><stop offset="1" stop-color="#ffd0ba" stop-opacity="0"/></radialGradient><path d="m13.57 4.64568c-.0314-1.33658 1.0243-2.4456 2.3581-2.47706 1.3337-.03146 2.4403 1.02655 2.4717 2.36312l.0229.97496c.4258-.75292 1.2428-1.25038 2.1659-1.22325 1.3301.03909 2.3762 1.15255 2.335 2.48552l-.2556 8.27273 1.4504-1.8031c.8712-1.0831 2.453-1.2547 3.5352-.3834 1.0847.8733 1.2563 2.463.3831 3.5486l-.623.7745-.0061.009c-.5726.7351-1.7452 2.2401-3.2162 4.6737-.4745.7133-.8868 1.4753-1.2983 2.2358-.5869 1.0847-1.1723 2.1666-1.9347 3.1009-1.5155 1.8727-3.8299 3.0696-6.4233 3.0696-3.1448 0-5.87948-1.7601-7.27657-4.3509l-.00464.008c-1.27344-2.2862-1.46094-4.815-1.52344-6.1695l-.13711-2.4471c-.00768-.0628-.01294-.1264-.01566-.1907l-.30516-7.20486c-.05441-1.28475.93698-2.37224 2.21867-2.43372.7316-.03509 1.40057.27156 1.85291.77971l-.04703-1.40884c-.04322-1.29469.96903-2.37935 2.26093-2.42267.8435-.02827 1.5976.3943 2.0316 1.05137z" fill="#fbc4b2"/><path d="m13.57 4.64568c-.0314-1.33658 1.0243-2.4456 2.3581-2.47706 1.3337-.03146 2.4403 1.02655 2.4717 2.36312l.0229.97496c.4258-.75292 1.2428-1.25038 2.1659-1.22325 1.3301.03909 2.3762 1.15255 2.335 2.48552l-.2556 8.27273 1.4504-1.8031c.8712-1.0831 2.453-1.2547 3.5352-.3834 1.0847.8733 1.2563 2.463.3831 3.5486l-.623.7745-.0061.009c-.5726.7351-1.7452 2.2401-3.2162 4.6737-.4745.7133-.8868 1.4753-1.2983 2.2358-.5869 1.0847-1.1723 2.1666-1.9347 3.1009-1.5155 1.8727-3.8299 3.0696-6.4233 3.0696-3.1448 0-5.87948-1.7601-7.27657-4.3509l-.00464.008c-1.27344-2.2862-1.46094-4.815-1.52344-6.1695l-.13711-2.4471c-.00768-.0628-.01294-.1264-.01566-.1907l-.30516-7.20486c-.05441-1.28475.93698-2.37224 2.21867-2.43372.7316-.03509 1.40057.27156 1.85291.77971l-.04703-1.40884c-.04322-1.29469.96903-2.37935 2.26093-2.42267.8435-.02827 1.5976.3943 2.0316 1.05137z" fill="url(#k)"/><path d="m13.57 4.64568c-.0314-1.33658 1.0243-2.4456 2.3581-2.47706 1.3337-.03146 2.4403 1.02655 2.4717 2.36312l.0229.97496c.4258-.75292 1.2428-1.25038 2.1659-1.22325 1.3301.03909 2.3762 1.15255 2.335 2.48552l-.2556 8.27273 1.4504-1.8031c.8712-1.0831 2.453-1.2547 3.5352-.3834 1.0847.8733 1.2563 2.463.3831 3.5486l-.623.7745-.0061.009c-.5726.7351-1.7452 2.2401-3.2162 4.6737-.4745.7133-.8868 1.4753-1.2983 2.2358-.5869 1.0847-1.1723 2.1666-1.9347 3.1009-1.5155 1.8727-3.8299 3.0696-6.4233 3.0696-3.1448 0-5.87948-1.7601-7.27657-4.3509l-.00464.008c-1.27344-2.2862-1.46094-4.815-1.52344-6.1695l-.13711-2.4471c-.00768-.0628-.01294-.1264-.01566-.1907l-.30516-7.20486c-.05441-1.28475.93698-2.37224 2.21867-2.43372.7316-.03509 1.40057.27156 1.85291.77971l-.04703-1.40884c-.04322-1.29469.96903-2.37935 2.26093-2.42267.8435-.02827 1.5976.3943 2.0316 1.05137z" fill="url(#l)"/><path d="m13.57 4.64568c-.0314-1.33658 1.0243-2.4456 2.3581-2.47706 1.3337-.03146 2.4403 1.02655 2.4717 2.36312l.0229.97496c.4258-.75292 1.2428-1.25038 2.1659-1.22325 1.3301.03909 2.3762 1.15255 2.335 2.48552l-.2556 8.27273 1.4504-1.8031c.8712-1.0831 2.453-1.2547 3.5352-.3834 1.0847.8733 1.2563 2.463.3831 3.5486l-.623.7745-.0061.009c-.5726.7351-1.7452 2.2401-3.2162 4.6737-.4745.7133-.8868 1.4753-1.2983 2.2358-.5869 1.0847-1.1723 2.1666-1.9347 3.1009-1.5155 1.8727-3.8299 3.0696-6.4233 3.0696-3.1448 0-5.87948-1.7601-7.27657-4.3509l-.00464.008c-1.27344-2.2862-1.46094-4.815-1.52344-6.1695l-.13711-2.4471c-.00768-.0628-.01294-.1264-.01566-.1907l-.30516-7.20486c-.05441-1.28475.93698-2.37224 2.21867-2.43372.7316-.03509 1.40057.27156 1.85291.77971l-.04703-1.40884c-.04322-1.29469.96903-2.37935 2.26093-2.42267.8435-.02827 1.5976.3943 2.0316 1.05137z" fill="url(#m)"/><path d="m13.57 4.64568c-.0314-1.33658 1.0243-2.4456 2.3581-2.47706 1.3337-.03146 2.4403 1.02655 2.4717 2.36312l.0229.97496c.4258-.75292 1.2428-1.25038 2.1659-1.22325 1.3301.03909 2.3762 1.15255 2.335 2.48552l-.2556 8.27273 1.4504-1.8031c.8712-1.0831 2.453-1.2547 3.5352-.3834 1.0847.8733 1.2563 2.463.3831 3.5486l-.623.7745-.0061.009c-.5726.7351-1.7452 2.2401-3.2162 4.6737-.4745.7133-.8868 1.4753-1.2983 2.2358-.5869 1.0847-1.1723 2.1666-1.9347 3.1009-1.5155 1.8727-3.8299 3.0696-6.4233 3.0696-3.1448 0-5.87948-1.7601-7.27657-4.3509l-.00464.008c-1.27344-2.2862-1.46094-4.815-1.52344-6.1695l-.13711-2.4471c-.00768-.0628-.01294-.1264-.01566-.1907l-.30516-7.20486c-.05441-1.28475.93698-2.37224 2.21867-2.43372.7316-.03509 1.40057.27156 1.85291.77971l-.04703-1.40884c-.04322-1.29469.96903-2.37935 2.26093-2.42267.8435-.02827 1.5976.3943 2.0316 1.05137z" fill="url(#n)"/><path d="m13.57 4.64568c-.0314-1.33658 1.0243-2.4456 2.3581-2.47706 1.3337-.03146 2.4403 1.02655 2.4717 2.36312l.0229.97496c.4258-.75292 1.2428-1.25038 2.1659-1.22325 1.3301.03909 2.3762 1.15255 2.335 2.48552l-.2556 8.27273 1.4504-1.8031c.8712-1.0831 2.453-1.2547 3.5352-.3834 1.0847.8733 1.2563 2.463.3831 3.5486l-.623.7745-.0061.009c-.5726.7351-1.7452 2.2401-3.2162 4.6737-.4745.7133-.8868 1.4753-1.2983 2.2358-.5869 1.0847-1.1723 2.1666-1.9347 3.1009-1.5155 1.8727-3.8299 3.0696-6.4233 3.0696-3.1448 0-5.87948-1.7601-7.27657-4.3509l-.00464.008c-1.27344-2.2862-1.46094-4.815-1.52344-6.1695l-.13711-2.4471c-.00768-.0628-.01294-.1264-.01566-.1907l-.30516-7.20486c-.05441-1.28475.93698-2.37224 2.21867-2.43372.7316-.03509 1.40057.27156 1.85291.77971l-.04703-1.40884c-.04322-1.29469.96903-2.37935 2.26093-2.42267.8435-.02827 1.5976.3943 2.0316 1.05137z" fill="url(#o)"/><path d="m5.46016 14.3163-.18764-4.42066c-.05441-1.282.93698-2.36716 2.21867-2.42851.7316-.03501 1.40057.27098 1.85291.77804l-.00028-.0083c.17878.23687.4523.7433.49601 1.49597.05625.96876.16927 3.36716.21877 4.44536z" fill="url(#p)"/><path d="m5.46016 14.3163-.18764-4.42066c-.05441-1.282.93698-2.36716 2.21867-2.42851.7316-.03501 1.40057.27098 1.85291.77804l-.00028-.0083c.17878.23687.4523.7433.49601 1.49597.05625.96876.16927 3.36716.21877 4.44536z" fill="url(#r)"/><path d="m5.46016 14.3163-.18764-4.42066c-.05441-1.282.93698-2.36716 2.21867-2.42851.7316-.03501 1.40057.27098 1.85291.77804l-.00028-.0083c.17878.23687.4523.7433.49601 1.49597.05625.96876.16927 3.36716.21877 4.44536z" fill="url(#s)"/><g filter="url(#a)"><path d="m8.02759 9.60397c-.10034-1.07031-.64063-1.29685-1.09375-1.29685 1.21875-.53124 2.125.18751 2.21875 1.29685l.39062 5.18753-1.95312 1.9219.76562-2.1875c0-1.2292-.23437-3.9219-.32812-4.92193z" fill="#ffd5bd"/></g><path d="m9.34386 8.23685c.17878.23688.45231.74331.49601 1.49598.03481.59937.23113 3.92297.34243 5.64287l4.1779-1.1722-.4432-6.88049c-.0172-.63119-.0114-1.28499-.3274-1.85203-.434-.65566-1.1881-1.07733-2.0315-1.04911-1.2919.04322-2.30421 1.12556-2.26099 2.41747z" fill="url(#t)"/><path d="m9.34386 8.23685c.17878.23688.45231.74331.49601 1.49598.03481.59937.23113 3.92297.34243 5.64287l4.1779-1.1722-.4432-6.88049c-.0172-.63119-.0114-1.28499-.3274-1.85203-.434-.65566-1.1881-1.07733-2.0315-1.04911-1.2919.04322-2.30421 1.12556-2.26099 2.41747z" fill="url(#u)"/><path d="m9.34386 8.23685c.17878.23688.45231.74331.49601 1.49598.03481.59937.23113 3.92297.34243 5.64287l4.1779-1.1722-.4432-6.88049c-.0172-.63119-.0114-1.28499-.3274-1.85203-.434-.65566-1.1881-1.07733-2.0315-1.04911-1.2919.04322-2.30421 1.12556-2.26099 2.41747z" fill="url(#v)"/><path d="m9.34386 8.23685c.17878.23688.45231.74331.49601 1.49598.03481.59937.23113 3.92297.34243 5.64287l4.1779-1.1722-.4432-6.88049c-.0172-.63119-.0114-1.28499-.3274-1.85203-.434-.65566-1.1881-1.07733-2.0315-1.04911-1.2919.04322-2.30421 1.12556-2.26099 2.41747z" fill="url(#w)"/><g filter="url(#b)"><path d="m12.2358 6.71612c-.1003-1.0703-.6406-1.29685-1.0937-1.29685 1.2187-.53124 2.125.18751 2.2187 1.29685l.4284 6.66838-2.0139.9318.8416-1.8635c0-1.2292-.2873-4.73664-.3811-5.73668z" fill="#ffd5bd"/></g><path d="m18.1617 6.47143c0-.45733.1666-.86358.2643-.97686l.0006-.00352-.0227-.96437c-.0314-1.33372-1.138-2.38945-2.4717-2.35806-1.3337.0314-2.3895 1.13804-2.3581 2.47175l.0196.83061c.2946.52859.3095 1.13258.3241 1.72335.0446 1.8104.2707 4.17247.3871 5.97977h3.7365c.0251-1.9662.1203-6.05847.1203-6.70267z" fill="url(#x)"/><path d="m18.1617 6.47143c0-.45733.1666-.86358.2643-.97686l.0006-.00352-.0227-.96437c-.0314-1.33372-1.138-2.38945-2.4717-2.35806-1.3337.0314-2.3895 1.13804-2.3581 2.47175l.0196.83061c.2946.52859.3095 1.13258.3241 1.72335.0446 1.8104.2707 4.17247.3871 5.97977h3.7365c.0251-1.9662.1203-6.05847.1203-6.70267z" fill="url(#y)"/><path d="m18.1617 6.47143c0-.45733.1666-.86358.2643-.97686l.0006-.00352-.0227-.96437c-.0314-1.33372-1.138-2.38945-2.4717-2.35806-1.3337.0314-2.3895 1.13804-2.3581 2.47175l.0196.83061c.2946.52859.3095 1.13258.3241 1.72335.0446 1.8104.2707 4.17247.3871 5.97977h3.7365c.0251-1.9662.1203-6.05847.1203-6.70267z" fill="url(#z)"/><path d="m18.1617 6.47143c0-.45733.1666-.86358.2643-.97686l.0006-.00352-.0227-.96437c-.0314-1.33372-1.138-2.38945-2.4717-2.35806-1.3337.0314-2.3895 1.13804-2.3581 2.47175l.0196.83061c.2946.52859.3095 1.13258.3241 1.72335.0446 1.8104.2707 4.17247.3871 5.97977h3.7365c.0251-1.9662.1203-6.05847.1203-6.70267z" fill="url(#A)"/><g filter="url(#c)"><path d="m16.3729 3.19525v10.10995h1.2028c.0541-2.1239.1625-6.74865.1625-8.25701s-.9102-1.86378-1.3653-1.85294z" fill="#ffd5bd"/></g><path d="m18.4218 5.49454c-.0976.11329-.2643.51954-.2643.97686 0 2.60581-.1202 4.5201-.1202 7.1263l4.6308 3.3158v-1.9013l.2555-8.25312c.0412-1.33011-1.0049-2.44118-2.3351-2.48019-.923-.02707-1.7401.46932-2.1658 1.22063l-.0002-.00701z" fill="url(#B)"/><path d="m18.4218 5.49454c-.0976.11329-.2643.51954-.2643.97686 0 2.60581-.1202 4.5201-.1202 7.1263l4.6308 3.3158v-1.9013l.2555-8.25312c.0412-1.33011-1.0049-2.44118-2.3351-2.48019-.923-.02707-1.7401.46932-2.1658 1.22063l-.0002-.00701z" fill="url(#C)"/><path d="m18.4218 5.49454c-.0976.11329-.2643.51954-.2643.97686 0 2.60581-.1202 4.5201-.1202 7.1263l4.6308 3.3158v-1.9013l.2555-8.25312c.0412-1.33011-1.0049-2.44118-2.3351-2.48019-.923-.02707-1.7401.46932-2.1658 1.22063l-.0002-.00701z" fill="url(#D)"/><g filter="url(#d)"><path d="m21.0065 5.2658v10.1099h1.2028c.0541-2.1238.1625-6.7486.1625-8.25696s-.9102-1.86377-1.3653-1.85294z" fill="#ffd5bd"/></g><path d="m22.7926 14.8596 1.3258-1.6448c.8712-1.0808 2.453-1.2519 3.5352-.3825 1.0847.8714 1.2563 2.4577.3831 3.541l-.623.7729-.0061.0089c-.5726.7335-1.7452 2.2353-3.2162 4.6637-.4274.6411-.8043 1.3216-1.1757 2.005-3.1576-1.6878-2.6971-4.8629-1.9943-6.3576z" fill="url(#E)"/><path d="m22.7926 14.8596 1.3258-1.6448c.8712-1.0808 2.453-1.2519 3.5352-.3825 1.0847.8714 1.2563 2.4577.3831 3.541l-.623.7729-.0061.0089c-.5726.7335-1.7452 2.2353-3.2162 4.6637-.4274.6411-.8043 1.3216-1.1757 2.005-3.1576-1.6878-2.6971-4.8629-1.9943-6.3576z" fill="url(#F)"/><path d="m13.57 4.64037c-.0314-1.33371 1.0243-2.44035 2.3581-2.47175 1.3337-.03139 2.4403 1.02434 2.4717 2.35806l.0229.97286c.4258-.7513 1.2428-1.2477 2.1659-1.22063 1.3301.03901 2.3762 1.15009 2.335 2.4802l-.2556 8.25499 1.4504-1.7993c.8712-1.0807 2.453-1.2519 3.5352-.3825 1.0847.8715 1.2563 2.4577.3831 3.541l-.623.7729-.0061.0089c-.5726.7335-1.7452 2.2353-3.2162 4.6637-.4745.7118-.8868 1.4721-1.2983 2.231-.5869 1.0824-1.1723 2.162-1.9347 3.0943-1.5155 1.8686-3.8299 3.063-6.4233 3.063-3.1448 0-5.87948-1.7564-7.27657-4.3416l-.00464.008c-1.27344-2.2813-1.46094-4.8047-1.52344-6.1563l-.13711-2.4419c-.00768-.0626-.01294-.126-.01566-.1903l-.30516-7.18936c-.05441-1.28199.93698-2.36715 2.21867-2.4285.7316-.03502 1.40057.27098 1.85291.77804l-.04703-1.40582c-.04322-1.29192.96903-2.37426 2.26093-2.41748.8435-.02822 1.5976.39346 2.0316 1.04912z" fill="url(#H)"/><path d="m13.57 4.64037c-.0314-1.33371 1.0243-2.44035 2.3581-2.47175 1.3337-.03139 2.4403 1.02434 2.4717 2.35806l.0229.97286c.4258-.7513 1.2428-1.2477 2.1659-1.22063 1.3301.03901 2.3762 1.15009 2.335 2.4802l-.2556 8.25499 1.4504-1.7993c.8712-1.0807 2.453-1.2519 3.5352-.3825 1.0847.8715 1.2563 2.4577.3831 3.541l-.623.7729-.0061.0089c-.5726.7335-1.7452 2.2353-3.2162 4.6637-.4745.7118-.8868 1.4721-1.2983 2.231-.5869 1.0824-1.1723 2.162-1.9347 3.0943-1.5155 1.8686-3.8299 3.063-6.4233 3.063-3.1448 0-5.87948-1.7564-7.27657-4.3416l-.00464.008c-1.27344-2.2813-1.46094-4.8047-1.52344-6.1563l-.13711-2.4419c-.00768-.0626-.01294-.126-.01566-.1903l-.30516-7.18936c-.05441-1.28199.93698-2.36715 2.21867-2.4285.7316-.03502 1.40057.27098 1.85291.77804l-.04703-1.40582c-.04322-1.29192.96903-2.37426 2.26093-2.41748.8435-.02822 1.5976.39346 2.0316 1.04912z" fill="url(#I)"/><path d="m13.57 4.64037c-.0314-1.33371 1.0243-2.44035 2.3581-2.47175 1.3337-.03139 2.4403 1.02434 2.4717 2.35806l.0229.97286c.4258-.7513 1.2428-1.2477 2.1659-1.22063 1.3301.03901 2.3762 1.15009 2.335 2.4802l-.2556 8.25499 1.4504-1.7993c.8712-1.0807 2.453-1.2519 3.5352-.3825 1.0847.8715 1.2563 2.4577.3831 3.541l-.623.7729-.0061.0089c-.5726.7335-1.7452 2.2353-3.2162 4.6637-.4745.7118-.8868 1.4721-1.2983 2.231-.5869 1.0824-1.1723 2.162-1.9347 3.0943-1.5155 1.8686-3.8299 3.063-6.4233 3.063-3.1448 0-5.87948-1.7564-7.27657-4.3416l-.00464.008c-1.27344-2.2813-1.46094-4.8047-1.52344-6.1563l-.13711-2.4419c-.00768-.0626-.01294-.126-.01566-.1903l-.30516-7.18936c-.05441-1.28199.93698-2.36715 2.21867-2.4285.7316-.03502 1.40057.27098 1.85291.77804l-.04703-1.40582c-.04322-1.29192.96903-2.37426 2.26093-2.41748.8435-.02822 1.5976.39346 2.0316 1.04912z" fill="url(#J)"/><path d="m13.57 4.64037c-.0314-1.33371 1.0243-2.44035 2.3581-2.47175 1.3337-.03139 2.4403 1.02434 2.4717 2.35806l.0229.97286c.4258-.7513 1.2428-1.2477 2.1659-1.22063 1.3301.03901 2.3762 1.15009 2.335 2.4802l-.2556 8.25499 1.4504-1.7993c.8712-1.0807 2.453-1.2519 3.5352-.3825 1.0847.8715 1.2563 2.4577.3831 3.541l-.623.7729-.0061.0089c-.5726.7335-1.7452 2.2353-3.2162 4.6637-.4745.7118-.8868 1.4721-1.2983 2.231-.5869 1.0824-1.1723 2.162-1.9347 3.0943-1.5155 1.8686-3.8299 3.063-6.4233 3.063-3.1448 0-5.87948-1.7564-7.27657-4.3416l-.00464.008c-1.27344-2.2813-1.46094-4.8047-1.52344-6.1563l-.13711-2.4419c-.00768-.0626-.01294-.126-.01566-.1903l-.30516-7.18936c-.05441-1.28199.93698-2.36715 2.21867-2.4285.7316-.03502 1.40057.27098 1.85291.77804l-.04703-1.40582c-.04322-1.29192.96903-2.37426 2.26093-2.41748.8435-.02822 1.5976.39346 2.0316 1.04912z" fill="url(#K)"/><path d="m13.57 4.64037c-.0314-1.33371 1.0243-2.44035 2.3581-2.47175 1.3337-.03139 2.4403 1.02434 2.4717 2.35806l.0229.97286c.4258-.7513 1.2428-1.2477 2.1659-1.22063 1.3301.03901 2.3762 1.15009 2.335 2.4802l-.2556 8.25499 1.4504-1.7993c.8712-1.0807 2.453-1.2519 3.5352-.3825 1.0847.8715 1.2563 2.4577.3831 3.541l-.623.7729-.0061.0089c-.5726.7335-1.7452 2.2353-3.2162 4.6637-.4745.7118-.8868 1.4721-1.2983 2.231-.5869 1.0824-1.1723 2.162-1.9347 3.0943-1.5155 1.8686-3.8299 3.063-6.4233 3.063-3.1448 0-5.87948-1.7564-7.27657-4.3416l-.00464.008c-1.27344-2.2813-1.46094-4.8047-1.52344-6.1563l-.13711-2.4419c-.00768-.0626-.01294-.126-.01566-.1903l-.30516-7.18936c-.05441-1.28199.93698-2.36715 2.21867-2.4285.7316-.03502 1.40057.27098 1.85291.77804l-.04703-1.40582c-.04322-1.29192.96903-2.37426 2.26093-2.41748.8435-.02822 1.5976.39346 2.0316 1.04912z" fill="url(#L)" fill-opacity=".6"/><g filter="url(#e)"><path d="m26.769 14.8318c-.7444.7445-2.5555 2.7679-3.8442 4.906" stroke="url(#M)" stroke-linecap="round" stroke-width="1.5"/></g><g filter="url(#f)"><path d="m9.80841 14.5938c-.29167.3437-1.28125 1.3437-1.84375 1.9062" stroke="url(#O)" stroke-linecap="round" stroke-width=".5"/></g><g filter="url(#g)"><path d="m11.9334 14c.6563-.25 1.6813-.7438 2.1563-1.0938" stroke="url(#P)" stroke-linecap="round" stroke-width=".5"/></g><g filter="url(#h)"><path d="m15.6053 13.1719c.6094.3125 1.6406.5781 2.294.4354" stroke="url(#Q)" stroke-linecap="round" stroke-width=".5"/></g><g filter="url(#i)"><path d="m21.3241 16.7969c.2656-.3906.7343-1.1719.9375-1.4062" stroke="url(#R)" stroke-linecap="round" stroke-width=".5"/></g><g filter="url(#j)"><path d="m22.2928 15.3906c-1.75-.0125-3.4271-1.0521-3.9688-1.5-.4 2.1625 1.2396 3.7656 2.0782 4.2188z" fill="url(#S)"/></g></svg>