<svg fill="none" height="32" viewBox="0 0 32 32" width="32" xmlns="http://www.w3.org/2000/svg" xmlns:xlink="http://www.w3.org/1999/xlink"><filter id="a" color-interpolation-filters="sRGB" filterUnits="userSpaceOnUse" height="28.462" width="20.456" x="6.022" y="1.455"><feFlood flood-opacity="0" result="BackgroundImageFix"/><feBlend in="SourceGraphic" in2="BackgroundImageFix" mode="normal" result="shape"/><feColorMatrix in="SourceAlpha" result="hardAlpha" type="matrix" values="0 0 0 0 0 0 0 0 0 0 0 0 0 0 0 0 0 0 127 0"/><feOffset dx=".5" dy="-.75"/><feGaussianBlur stdDeviation="1.5"/><feComposite in2="hardAlpha" k2="-1" k3="1" operator="arithmetic"/><feColorMatrix type="matrix" values="0 0 0 0 0.486275 0 0 0 0 0.254902 0 0 0 0 0.427451 0 0 0 1 0"/><feBlend in2="shape" mode="normal" result="effect1_innerShadow_20020_2083"/></filter><filter id="b" color-interpolation-filters="sRGB" filterUnits="userSpaceOnUse" height="11.456" width="10.247" x="5.972" y="10.536"><feFlood flood-opacity="0" result="BackgroundImageFix"/><feBlend in="SourceGraphic" in2="BackgroundImageFix" mode="normal" result="shape"/><feGaussianBlur result="effect1_foregroundBlur_20020_2083" stdDeviation="1"/></filter><filter id="c" color-interpolation-filters="sRGB" filterUnits="userSpaceOnUse" height="9.076" width="13.44" x="13.587" y="14"><feFlood flood-opacity="0" result="BackgroundImageFix"/><feBlend in="SourceGraphic" in2="BackgroundImageFix" mode="normal" result="shape"/><feGaussianBlur result="effect1_foregroundBlur_20020_2083" stdDeviation="1"/></filter><filter id="d" color-interpolation-filters="sRGB" filterUnits="userSpaceOnUse" height="7.258" width="3.501" x="8.265" y="11.47"><feFlood flood-opacity="0" result="BackgroundImageFix"/><feBlend in="SourceGraphic" in2="BackgroundImageFix" mode="normal" result="shape"/><feGaussianBlur result="effect1_foregroundBlur_20020_2083" stdDeviation=".5"/></filter><filter id="e" color-interpolation-filters="sRGB" filterUnits="userSpaceOnUse" height="5.126" width="2.901" x="7.757" y="12.603"><feFlood flood-opacity="0" result="BackgroundImageFix"/><feBlend in="SourceGraphic" in2="BackgroundImageFix" mode="normal" result="shape"/><feGaussianBlur result="effect1_foregroundBlur_20020_2083" stdDeviation=".375"/></filter><filter id="f" color-interpolation-filters="sRGB" filterUnits="userSpaceOnUse" height="7.95" width="4.906" x="10.811" y="9.76"><feFlood flood-opacity="0" result="BackgroundImageFix"/><feBlend in="SourceGraphic" in2="BackgroundImageFix" mode="normal" result="shape"/><feGaussianBlur result="effect1_foregroundBlur_20020_2083" stdDeviation=".6"/></filter><filter id="g" color-interpolation-filters="sRGB" filterUnits="userSpaceOnUse" height="12.042" width="6.515" x="13.673" y="2.085"><feFlood flood-opacity="0" result="BackgroundImageFix"/><feBlend in="SourceGraphic" in2="BackgroundImageFix" mode="normal" result="shape"/><feGaussianBlur result="effect1_foregroundBlur_20020_2083" stdDeviation=".75"/></filter><filter id="h" color-interpolation-filters="sRGB" filterUnits="userSpaceOnUse" height="12.521" width="4.826" x="20.457" y="2.883"><feFlood flood-opacity="0" result="BackgroundImageFix"/><feBlend in="SourceGraphic" in2="BackgroundImageFix" mode="normal" result="shape"/><feGaussianBlur result="effect1_foregroundBlur_20020_2083" stdDeviation=".75"/></filter><filter id="i" color-interpolation-filters="sRGB" filterUnits="userSpaceOnUse" height="8.199" width="9.691" x="17.037" y="14.91"><feFlood flood-opacity="0" result="BackgroundImageFix"/><feBlend in="SourceGraphic" in2="BackgroundImageFix" mode="normal" result="shape"/><feGaussianBlur result="effect1_foregroundBlur_20020_2083" stdDeviation=".75"/></filter><radialGradient id="j" cx="0" cy="0" gradientTransform="matrix(-3.82481755 3.27838092 -2.93875447 -3.42858256 20.9325 20.2519)" gradientUnits="userSpaceOnUse" r="1"><stop offset="0" stop-color="#8b6365"/><stop offset="1" stop-color="#8b6365" stop-opacity="0"/></radialGradient><linearGradient id="k" gradientUnits="userSpaceOnUse" x1="5.7" x2="7.558" y1="16.431" y2="16.388"><stop offset="0" stop-color="#744e47"/><stop offset="1" stop-color="#744e47" stop-opacity="0"/></linearGradient><radialGradient id="l" cx="0" cy="0" gradientTransform="matrix(.02494271 -3.91425053 5.29435251 .03373711 8.04198 19.388)" gradientUnits="userSpaceOnUse" r="1"><stop offset="0" stop-color="#6e3b54"/><stop offset="1" stop-color="#6e3b54" stop-opacity="0"/></radialGradient><linearGradient id="m" gradientUnits="userSpaceOnUse" x1="5.551" x2="6.244" y1="16.419" y2="16.39"><stop offset="0" stop-color="#805a56"/><stop offset="1" stop-color="#805a56" stop-opacity="0"/></linearGradient><radialGradient id="n" cx="0" cy="0" gradientTransform="matrix(-1.28361752 3.09434324 -3.66205484 -1.5191197 9.81953 11.6729)" gradientUnits="userSpaceOnUse" r="1"><stop offset="0" stop-color="#6b524a"/><stop offset="1" stop-color="#6b524a" stop-opacity="0"/></radialGradient><linearGradient id="o" gradientUnits="userSpaceOnUse" x1="13.488" x2="16.448" y1="8.675" y2="7.934"><stop offset="0" stop-color="#663f33"/><stop offset="1" stop-color="#663f33" stop-opacity="0"/></linearGradient><linearGradient id="p" gradientUnits="userSpaceOnUse" x1="13.371" x2="14.072" y1="8.655" y2="8.538"><stop offset="0" stop-color="#735246"/><stop offset="1" stop-color="#735246" stop-opacity="0"/></linearGradient><linearGradient id="q" gradientUnits="userSpaceOnUse" x1="19.282" x2="18.137" y1="9.752" y2="10.087"><stop offset="0" stop-color="#6a544e"/><stop offset=".99" stop-color="#6a544e" stop-opacity="0"/></linearGradient><linearGradient id="r" gradientUnits="userSpaceOnUse" x1="17.097" x2="16.582" y1="15.217" y2="11.28"><stop offset="0" stop-color="#864e4a"/><stop offset="1" stop-color="#864e4a" stop-opacity="0"/></linearGradient><radialGradient id="s" cx="0" cy="0" gradientTransform="matrix(3.58284428 -11.32087573 8.83347313 2.79562813 12.5948 13.5258)" gradientUnits="userSpaceOnUse" r="1"><stop offset=".841" stop-color="#937263" stop-opacity="0"/><stop offset="1" stop-color="#937263"/></radialGradient><linearGradient id="t" gradientUnits="userSpaceOnUse" x1="19.099" x2="21.995" y1="7.801" y2="7.905"><stop offset="0" stop-color="#5a3730"/><stop offset="1" stop-color="#5a3730" stop-opacity="0"/></linearGradient><linearGradient id="u" gradientUnits="userSpaceOnUse" x1="21.285" x2="21.347" y1="15.155" y2="13.241"><stop offset="0" stop-color="#987069"/><stop offset="1" stop-color="#966d68" stop-opacity="0"/></linearGradient><radialGradient id="v" cx="0" cy="0" gradientTransform="matrix(3.76871886 -9.50125129 6.77294375 2.68652202 19.3105 12.2539)" gradientUnits="userSpaceOnUse" r="1"><stop offset=".841" stop-color="#8e7062" stop-opacity="0"/><stop offset="1" stop-color="#8e7062"/></radialGradient><radialGradient id="w" cx="0" cy="0" gradientTransform="matrix(-10.85435074 -2.39621712 1.89378046 -8.57842022 24.7642 16.5195)" gradientUnits="userSpaceOnUse" r="1"><stop offset="0" stop-color="#a47f71"/><stop offset="1" stop-color="#a47f71" stop-opacity="0"/></radialGradient><linearGradient id="x" gradientUnits="userSpaceOnUse" x1="9.604" x2="11.71" y1="15.284" y2="15.126"><stop offset="0" stop-color="#60382f"/><stop offset="1" stop-color="#60382f" stop-opacity="0"/></linearGradient><radialGradient id="y" cx="0" cy="0" gradientTransform="matrix(.02555456 -4.57547864 8.11919337 .0453466 11.965 19.0664)" gradientUnits="userSpaceOnUse" r="1"><stop offset=".001" stop-color="#6e3b54"/><stop offset="1" stop-color="#6e3b54" stop-opacity="0"/></radialGradient><linearGradient id="z" gradientUnits="userSpaceOnUse" x1="9.153" x2="9.177" y1="16.413" y2="12.579"><stop offset="0" stop-color="#926f6d"/><stop offset="1" stop-color="#926f6d" stop-opacity="0"/></linearGradient><linearGradient id="A" gradientUnits="userSpaceOnUse" x1="13.554" x2="10.965" y1="14.166" y2="9.215"><stop offset="0" stop-color="#b0867b"/><stop offset="1" stop-color="#b0867b" stop-opacity="0"/></linearGradient><linearGradient id="B" gradientUnits="userSpaceOnUse" x1="17.664" x2="14.416" y1="12.884" y2="12.184"><stop offset="0" stop-color="#98776b"/><stop offset="1" stop-color="#98776b"/></linearGradient><linearGradient id="C" gradientUnits="userSpaceOnUse" x1="22.988" x2="22.442" y1="14.407" y2="14.389"><stop offset="0" stop-color="#a37e73"/><stop offset="1" stop-color="#98776b"/><stop offset="1" stop-color="#9e796e"/></linearGradient><radialGradient id="D" cx="0" cy="0" gradientTransform="matrix(2.75556195 -9.57993108 12.81596259 3.68637088 19.16 24.5799)" gradientUnits="userSpaceOnUse" r="1"><stop offset=".766" stop-color="#88614f" stop-opacity="0"/><stop offset="1" stop-color="#88614f"/></radialGradient><radialGradient id="E" cx="0" cy="0" gradientTransform="matrix(3.06380739 1.79439256 -2.84171116 4.85203508 15.5946 15)" gradientUnits="userSpaceOnUse" r="1"><stop offset="0" stop-color="#634032"/><stop offset="1" stop-color="#634032" stop-opacity="0"/></radialGradient><radialGradient id="F" cx="0" cy="0" gradientTransform="matrix(-.48335123 2.94215066 -6.0076084 -.98695997 20.239 20.6722)" gradientUnits="userSpaceOnUse" r="1"><stop offset="0" stop-color="#6e384b"/><stop offset="1" stop-color="#6e384b" stop-opacity="0"/></radialGradient><linearGradient id="G" gradientUnits="userSpaceOnUse" x1="19.642" x2="25.108" y1="17.16" y2="20.134"><stop offset="0" stop-color="#a17d72"/><stop offset="1" stop-color="#a17d72" stop-opacity="0"/></linearGradient><radialGradient id="H" cx="0" cy="0" gradientTransform="matrix(14.00004198 2.93751403 -5.27809557 25.15513418 12.5974 20.1858)" gradientUnits="userSpaceOnUse" r="1"><stop offset=".865" stop-color="#a47f71" stop-opacity="0"/><stop offset="1" stop-color="#a47f71"/></radialGradient><g filter="url(#a)"><path d="m12.6608 5.4577c-.3262-1.41861.5904-2.85799 2.009-3.1842 1.4186-.32622 2.8506.54121 3.1769 1.95982l1.5277 6.99298.0809-5.41188c.0217-1.45546 1.2192-2.61772 2.6747-2.59599 1.4554.02174 2.6177 1.21925 2.596 2.67471l-.1116 7.47156c-.0082.5472.0585 1.0929.1983 1.622l.4988 1.8885c.3465 1.087 1.0293 3.8623.428 5.9107-.6114 2.6496-2.7719 4.7693-4.647 5.8292-1.8752 1.0598-3.9439 1.5796-6.9706 1.1516-3.9031-.8357-6.11457-3.5771-6.89927-7.1235-.66853-2.7393-1.04068-5.6347-1.20084-6.7597l8.58611-2.1167z" fill="#7e5353"/><path d="m12.6608 5.4577c-.3262-1.41861.5904-2.85799 2.009-3.1842 1.4186-.32622 2.8506.54121 3.1769 1.95982l1.5277 6.99298.0809-5.41188c.0217-1.45546 1.2192-2.61772 2.6747-2.59599 1.4554.02174 2.6177 1.21925 2.596 2.67471l-.1116 7.47156c-.0082.5472.0585 1.0929.1983 1.622l.4988 1.8885c.3465 1.087 1.0293 3.8623.428 5.9107-.6114 2.6496-2.7719 4.7693-4.647 5.8292-1.8752 1.0598-3.9439 1.5796-6.9706 1.1516-3.9031-.8357-6.11457-3.5771-6.89927-7.1235-.66853-2.7393-1.04068-5.6347-1.20084-6.7597l8.58611-2.1167z" fill="url(#j)"/></g><g filter="url(#b)"><path d="m7.97223 13.3203h5.30918v6.74556h-5.30918z" fill="#432027" transform="matrix(.98903208 -.14770083 .14770083 .98903208 -1.879981 1.323601)"/></g><g filter="url(#c)"><path d="m25.0265 21.0661c-.0089-.1672-.0219-.3336-.0383-.4979-.6905-3.7635-3.9497-4.5682-5.0373-4.5682h-1.8294c-1.4008.0052-2.5348 1.1274-2.5348 2.5109 0 1.0019.5946 1.8668 1.4546 2.2697l-.001.0048c.0813.042.2145.0934.394.1411.0709.0199.1431.0368.2163.0507.2775.0567.6301.0993 1.045.0993h.088v-.0104z" fill="#432027"/></g><g transform="matrix(.98903208 -.14770083 .14770083 .98903208 -1.7136 .934981)"><rect fill="#7f5b4f" height="7.437" rx="2.591" width="5.182" x="5.439" y="12.006"/><rect fill="url(#k)" height="7.437" rx="2.591" width="5.182" x="5.439" y="12.006"/><rect fill="url(#l)" height="7.437" rx="2.591" width="5.182" x="5.439" y="12.006"/><rect fill="url(#m)" height="7.437" rx="2.591" width="5.182" x="5.439" y="12.006"/><rect fill="url(#n)" height="7.437" rx="2.591" width="5.182" x="5.439" y="12.006"/></g><path d="m12.6608 5.4577c-.3262-1.4186.5904-2.85799 2.009-3.1842 1.4186-.32622 2.8506.54122 3.1769 1.95982l1.7194 7.73378c.3262 1.4186-1.1875 1.4375-2.3125 1.75s-2.6425.3663-2.9688-1.0523z" fill="url(#o)"/><path d="m12.6608 5.4577c-.3262-1.4186.5904-2.85799 2.009-3.1842 1.4186-.32622 2.8506.54122 3.1769 1.95982l1.7194 7.73378c.3262 1.4186-1.1875 1.4375-2.3125 1.75s-2.6425.3663-2.9688-1.0523z" fill="url(#p)"/><path d="m12.6608 5.4577c-.3262-1.4186.5904-2.85799 2.009-3.1842 1.4186-.32622 2.8506.54122 3.1769 1.95982l1.7194 7.73378c.3262 1.4186-1.1875 1.4375-2.3125 1.75s-2.6425.3663-2.9688-1.0523z" fill="url(#q)"/><path d="m12.6608 5.4577c-.3262-1.4186.5904-2.85799 2.009-3.1842 1.4186-.32622 2.8506.54122 3.1769 1.95982l1.7194 7.73378c.3262 1.4186-1.1875 1.4375-2.3125 1.75s-2.6425.3663-2.9688-1.0523z" fill="url(#r)"/><path d="m12.6608 5.4577c-.3262-1.4186.5904-2.85799 2.009-3.1842 1.4186-.32622 2.8506.54122 3.1769 1.95982l1.7194 7.73378c.3262 1.4186-1.1875 1.4375-2.3125 1.75s-2.6425.3663-2.9688-1.0523z" fill="url(#s)"/><path d="m19.4067 5.81443c.0217-1.45547 1.2192-2.61773 2.6747-2.59599 1.4554.02174 2.6666 1.21893 2.6448 2.6744l-.0859 5.76566c-.0217 1.4554-1.1035 1.799-2.5589 1.7773-1.4555-.0217-2.6965-.3871-2.6747-1.8426z" fill="url(#t)"/><path d="m19.4067 5.81443c.0217-1.45547 1.2192-2.61773 2.6747-2.59599 1.4554.02174 2.6666 1.21893 2.6448 2.6744l-.0859 5.76566c-.0217 1.4554-1.1035 1.799-2.5589 1.7773-1.4555-.0217-2.6965-.3871-2.6747-1.8426z" fill="url(#u)"/><path d="m19.4067 5.81443c.0217-1.45547 1.2192-2.61773 2.6747-2.59599 1.4554.02174 2.6666 1.21893 2.6448 2.6744l-.0859 5.76566c-.0217 1.4554-1.1035 1.799-2.5589 1.7773-1.4555-.0217-2.6965-.3871-2.6747-1.8426z" fill="url(#v)"/><path d="m12.6608 5.4577c-.3262-1.41861.5904-2.85799 2.009-3.1842 1.4186-.32622 2.8506.54121 3.1769 1.95982l1.5277 6.99298.0809-5.41188c.0217-1.45546 1.2192-2.61772 2.6747-2.59599 1.4554.02174 2.6177 1.21925 2.596 2.67471l-.1116 7.47156c-.0082.5472.0585 1.0929.1983 1.622l.4988 1.8885c.3465 1.087 1.0293 3.8623.428 5.9107-.6114 2.6496-2.7719 4.7693-4.647 5.8292-1.8752 1.0598-3.9439 1.5796-6.9706 1.1516-3.9031-.8357-6.11457-3.5771-6.89927-7.1235-.66853-2.7393-1.04068-5.6347-1.20084-6.7597l8.58611-2.1167z" fill="url(#w)"/><g filter="url(#d)"><rect fill="#593327" height="5.303" rx=".437" transform="matrix(.98992856 -.14156783 .14156783 .98992856 -1.681972 1.429798)" width=".874" x="9.208" y="12.536"/></g><rect fill="#7f5b4f" height="8.693" rx="2.591" transform="matrix(.98903208 -.14770083 .14770083 .98903208 -1.439592 1.487747)" width="5.309" x="9.298" y="10.437"/><rect fill="url(#x)" height="8.693" rx="2.591" transform="matrix(.98903208 -.14770083 .14770083 .98903208 -1.439592 1.487747)" width="5.309" x="9.298" y="10.437"/><rect fill="url(#y)" height="8.693" rx="2.591" transform="matrix(.98903208 -.14770083 .14770083 .98903208 -1.439592 1.487747)" width="5.309" x="9.298" y="10.437"/><g filter="url(#e)" opacity=".5"><rect fill="url(#z)" height="3.653" rx=".51" transform="matrix(.98944921 -.14488017 .14488017 .98944921 -1.85702 1.364377)" width="1.019" x="8.439" y="13.432"/></g><g filter="url(#f)" opacity=".5"><rect fill="url(#A)" height="5.588" rx=".992" transform="matrix(.98944921 -.14488017 .14488017 .98944921 -1.484923 1.838108)" width="1.984" x="11.878" y="11.114"/></g><g filter="url(#g)"><path d="m16.0758 4.48706 1.71 7.23714" stroke="url(#B)" stroke-linecap="square" stroke-width="1.5"/></g><g filter="url(#h)"><path d="m23.0076 5.15881-.2749 7.96999" stroke="url(#C)" stroke-linecap="square" stroke-width="1.5"/></g><path d="m25.9238 19.8483c.0964.982.0818 2.031-.1843 2.9376-.3936 1.7055-1.429 3.1915-2.6169 4.3166l-1.4966-2.3323c.1471-2.2907-.16-3.4564-.5396-3.8917-.4279-.4907-.6828-.4907-1.7528-.4907-.4346 0-.8038-.0453-1.0945-.1054-.0767-.0147-.1523-.0327-.2265-.0538-.188-.0507-.3275-.1052-.4127-.1498l.0012-.0051c-.9008-.4276-1.5235-1.3454-1.5235-2.4088 0-1.4684 1.1876-2.6594 2.6547-2.6649h1.9159c1.139 0 4.5524.8541 5.2756 4.8483z" fill="#7e5353"/><path d="m25.9238 19.8483c.0964.982.0818 2.031-.1843 2.9376-.3936 1.7055-1.429 3.1915-2.6169 4.3166l-1.4966-2.3323c.1471-2.2907-.16-3.4564-.5396-3.8917-.4279-.4907-.6828-.4907-1.7528-.4907-.4346 0-.8038-.0453-1.0945-.1054-.0767-.0147-.1523-.0327-.2265-.0538-.188-.0507-.3275-.1052-.4127-.1498l.0012-.0051c-.9008-.4276-1.5235-1.3454-1.5235-2.4088 0-1.4684 1.1876-2.6594 2.6547-2.6649h1.9159c1.139 0 4.5524.8541 5.2756 4.8483z" fill="url(#D)"/><path d="m25.9238 19.8483c.0964.982.0818 2.031-.1843 2.9376-.3936 1.7055-1.429 3.1915-2.6169 4.3166l-1.4966-2.3323c.1471-2.2907-.16-3.4564-.5396-3.8917-.4279-.4907-.6828-.4907-1.7528-.4907-.4346 0-.8038-.0453-1.0945-.1054-.0767-.0147-.1523-.0327-.2265-.0538-.188-.0507-.3275-.1052-.4127-.1498l.0012-.0051c-.9008-.4276-1.5235-1.3454-1.5235-2.4088 0-1.4684 1.1876-2.6594 2.6547-2.6649h1.9159c1.139 0 4.5524.8541 5.2756 4.8483z" fill="url(#E)"/><path d="m25.9238 19.8483c.0964.982.0818 2.031-.1843 2.9376-.3936 1.7055-1.429 3.1915-2.6169 4.3166l-1.4966-2.3323c.1471-2.2907-.16-3.4564-.5396-3.8917-.4279-.4907-.6828-.4907-1.7528-.4907-.4346 0-.8038-.0453-1.0945-.1054-.0767-.0147-.1523-.0327-.2265-.0538-.188-.0507-.3275-.1052-.4127-.1498l.0012-.0051c-.9008-.4276-1.5235-1.3454-1.5235-2.4088 0-1.4684 1.1876-2.6594 2.6547-2.6649h1.9159c1.139 0 4.5524.8541 5.2756 4.8483z" fill="url(#F)"/><g filter="url(#i)"><path d="m19.287 17.1597h1.8071c1.1935 0 2.4306.4018 2.9234 1.4889.2608.5754.4603 1.3103.4603 2.2098" stroke="url(#G)" stroke-linecap="round" stroke-width="1.5"/></g><path d="m12.6608 5.4577c-.3262-1.41861.5904-2.85799 2.009-3.1842 1.4186-.32622 2.8506.54121 3.1769 1.95982l1.5277 6.99298.0809-5.41188c.0217-1.45546 1.2192-2.61772 2.6747-2.59599 1.4554.02174 2.6177 1.21925 2.596 2.67471l-.1116 7.47156c-.0082.5472.0585 1.0929.1983 1.622l.4988 1.8885c.3465 1.087 1.0293 3.8623.428 5.9107-.6114 2.6496-2.7719 4.7693-4.647 5.8292-1.8752 1.0598-3.9439 1.5796-6.9706 1.1516-3.9031-.8357-6.11457-3.5771-6.89927-7.1235-.66853-2.7393-1.04068-5.6347-1.20084-6.7597l8.58611-2.1167z" fill="url(#H)"/></svg>