<svg fill="none" height="32" viewBox="0 0 32 32" width="32" xmlns="http://www.w3.org/2000/svg" xmlns:xlink="http://www.w3.org/1999/xlink"><filter id="a" color-interpolation-filters="sRGB" filterUnits="userSpaceOnUse" height="15.507" width="15.189" x="1.465" y="8.117"><feFlood flood-opacity="0" result="BackgroundImageFix"/><feBlend in="SourceGraphic" in2="BackgroundImageFix" mode="normal" result="shape"/><feColorMatrix in="SourceAlpha" result="hardAlpha" type="matrix" values="0 0 0 0 0 0 0 0 0 0 0 0 0 0 0 0 0 0 127 0"/><feOffset dx="-.3" dy="-1"/><feGaussianBlur stdDeviation="1"/><feComposite in2="hardAlpha" k2="-1" k3="1" operator="arithmetic"/><feColorMatrix type="matrix" values="0 0 0 0 0.862745 0 0 0 0 0.435294 0 0 0 0 0.321569 0 0 0 1 0"/><feBlend in2="shape" mode="normal" result="effect1_innerShadow_20020_6291"/></filter><filter id="b" color-interpolation-filters="sRGB" filterUnits="userSpaceOnUse" height="18.937" width="12.051" x="6.69" y="6.882"><feFlood flood-opacity="0" result="BackgroundImageFix"/><feBlend in="SourceGraphic" in2="BackgroundImageFix" mode="normal" result="shape"/><feGaussianBlur result="effect1_foregroundBlur_20020_6291" stdDeviation=".5"/></filter><filter id="c" color-interpolation-filters="sRGB" filterUnits="userSpaceOnUse" height="16.921" width="21.213" x="8.671" y="11.419"><feFlood flood-opacity="0" result="BackgroundImageFix"/><feBlend in="SourceGraphic" in2="BackgroundImageFix" mode="normal" result="shape"/><feColorMatrix in="SourceAlpha" result="hardAlpha" type="matrix" values="0 0 0 0 0 0 0 0 0 0 0 0 0 0 0 0 0 0 127 0"/><feOffset dy="-.25"/><feGaussianBlur stdDeviation=".5"/><feComposite in2="hardAlpha" k2="-1" k3="1" operator="arithmetic"/><feColorMatrix type="matrix" values="0 0 0 0 0.92549 0 0 0 0 0.509804 0 0 0 0 0.65098 0 0 0 1 0"/><feBlend in2="shape" mode="normal" result="effect1_innerShadow_20020_6291"/></filter><filter id="d" color-interpolation-filters="sRGB" filterUnits="userSpaceOnUse" height="10.441" width="20.805" x="9.824" y="18.26"><feFlood flood-opacity="0" result="BackgroundImageFix"/><feBlend in="SourceGraphic" in2="BackgroundImageFix" mode="normal" result="shape"/><feGaussianBlur result="effect1_foregroundBlur_20020_6291" stdDeviation="1"/></filter><linearGradient id="e" gradientUnits="userSpaceOnUse" x1="11.914" x2="4.985" y1="10.071" y2="21.98"><stop offset="0" stop-color="#e8b229"/><stop offset="1" stop-color="#ea9d3e"/></linearGradient><radialGradient id="f" cx="0" cy="0" gradientTransform="matrix(-2.1220616 1.16931561 -1.15474561 -2.09562013 14.123 10.2441)" gradientUnits="userSpaceOnUse" r="1"><stop offset="0" stop-color="#d5a047"/><stop offset="1" stop-color="#d5a047" stop-opacity="0"/></radialGradient><linearGradient id="g" gradientUnits="userSpaceOnUse" x1="16.529" x2="20.534" y1="24.288" y2="29.334"><stop offset="0" stop-color="#dd7828"/><stop offset="1" stop-color="#ec82aa"/></linearGradient><linearGradient id="h" gradientUnits="userSpaceOnUse" x1="30.064" x2="28.992" y1="29.985" y2="29.985"><stop offset="0" stop-color="#f3ca7e"/><stop offset="1" stop-color="#f3ca7e" stop-opacity="0"/></linearGradient><radialGradient id="i" cx="0" cy="0" gradientTransform="matrix(-1.732296 1.68053 -2.02489274 -2.08726628 13.9715 26.3845)" gradientUnits="userSpaceOnUse" r="1"><stop offset="0" stop-color="#d76b0e"/><stop offset="1" stop-color="#e37c45"/></radialGradient><radialGradient id="j" cx="0" cy="0" gradientTransform="matrix(0 4.66523 -4.10231 0 12.3489 25.5496)" gradientUnits="userSpaceOnUse" r="1"><stop offset=".776" stop-color="#ec85b1" stop-opacity="0"/><stop offset="1" stop-color="#ec85b1"/></radialGradient><radialGradient id="k" cx="0" cy="0" gradientTransform="matrix(1.53089189 1.62181869 -2.36978542 2.23692408 9.93274 26.7509)" gradientUnits="userSpaceOnUse" r="1"><stop offset="0" stop-color="#db8838"/><stop offset="1" stop-color="#db8838" stop-opacity="0"/></radialGradient><radialGradient id="l" cx="0" cy="0" gradientTransform="matrix(10.74997722 -19.24996398 13.97390823 7.80360915 8.06378 24.5624)" gradientUnits="userSpaceOnUse" r="1"><stop offset="0" stop-color="#f3752e"/><stop offset="1" stop-color="#fd4e50"/></radialGradient><radialGradient id="m" cx="0" cy="0" gradientTransform="matrix(2.78125483 -4.43750144 3.06055298 1.91823662 12.4418 21.7453)" gradientUnits="userSpaceOnUse" r="1"><stop offset="0" stop-color="#d24611"/><stop offset="1" stop-color="#d24611" stop-opacity="0"/></radialGradient><linearGradient id="n" gradientUnits="userSpaceOnUse" x1="17.139" x2="28.784" y1="13.161" y2="24.614"><stop offset="0" stop-color="#ffd142"/><stop offset="1" stop-color="#ffd73d"/></linearGradient><radialGradient id="o" cx="0" cy="0" gradientTransform="matrix(-6.99140979 -6.95222834 4.42821255 -4.45316912 22.7763 30.3544)" gradientUnits="userSpaceOnUse" r="1"><stop offset=".212" stop-color="#f1816b"/><stop offset="1" stop-color="#f1816b" stop-opacity="0"/></radialGradient><radialGradient id="p" cx="0" cy="0" gradientTransform="matrix(-4.47765345 2.59236921 -.78847566 -1.36188964 28.8251 18.2568)" gradientUnits="userSpaceOnUse" r="1"><stop offset="0" stop-color="#ffec5d"/><stop offset="1" stop-color="#ffec5d" stop-opacity="0"/></radialGradient><linearGradient id="q" gradientUnits="userSpaceOnUse" x1="24.112" x2="23.758" y1="14.368" y2="15.468"><stop offset="0" stop-color="#f7d160"/><stop offset="1" stop-color="#f7d160" stop-opacity="0"/></linearGradient><linearGradient id="r"><stop offset="0" stop-color="#f8d15d"/><stop offset="1" stop-color="#f8d15d" stop-opacity="0"/></linearGradient><linearGradient id="s" gradientUnits="userSpaceOnUse" x1="23.814" x2="22.001" xlink:href="#r" y1="14.125" y2="17.875"/><linearGradient id="t" gradientUnits="userSpaceOnUse" x1="30.376" x2="27.814" xlink:href="#r" y1="21.188" y2="21.188"/><radialGradient id="u" cx="0" cy="0" gradientTransform="matrix(5.11809893 -5.22734302 6.17647247 6.04739292 13.1723 20.3441)" gradientUnits="userSpaceOnUse" r="1"><stop offset=".249" stop-color="#c4654e"/><stop offset="1" stop-color="#f19321" stop-opacity="0"/></radialGradient><linearGradient id="v" gradientUnits="userSpaceOnUse" x1="16.345" x2="20.896" y1="5.063" y2="7.563"><stop offset="0" stop-color="#c4a8bc"/><stop offset="1" stop-color="#e5d0fc"/></linearGradient><linearGradient id="w" gradientUnits="userSpaceOnUse" x1="20.454" x2="20.126" y1="7.211" y2="7.031"><stop offset="0" stop-color="#cabad5"/><stop offset="1" stop-color="#d4c5de" stop-opacity="0"/><stop offset="1" stop-color="#cabad4" stop-opacity="0"/></linearGradient><linearGradient id="x" gradientUnits="userSpaceOnUse" x1="4.939" x2="7.595" y1="27.964" y2="28.563"><stop offset="0" stop-color="#e28a85"/><stop offset="1" stop-color="#ff95b3"/></linearGradient><linearGradient id="y" gradientUnits="userSpaceOnUse" x1="7.69" x2="6.257" y1="29.509" y2="28.682"><stop offset="0" stop-color="#ff8dc2"/><stop offset="1" stop-color="#ff8dc2" stop-opacity="0"/></linearGradient><linearGradient id="z" gradientUnits="userSpaceOnUse" x1="6.474" x2="6.353" y1="27.093" y2="27.32"><stop offset="0" stop-color="#ffa3ae"/><stop offset="1" stop-color="#ffa3ae" stop-opacity="0"/></linearGradient><linearGradient id="A" gradientUnits="userSpaceOnUse" x1="4.942" x2="5.44" y1="29.424" y2="29.824"><stop offset="0" stop-color="#46144e"/><stop offset="1" stop-color="#5a1870"/></linearGradient><linearGradient id="B"><stop offset="0" stop-color="#f0a51d"/><stop offset="1" stop-color="#f0a51d" stop-opacity="0"/></linearGradient><linearGradient id="C" gradientUnits="userSpaceOnUse" x1="10.564" x2="13.345" xlink:href="#B" y1="19.781" y2="22.65"/><radialGradient id="D" cx="0" cy="0" gradientTransform="matrix(3.73693975 -2.56250276 3.33107884 4.85776683 8.67059 25.9688)" gradientUnits="userSpaceOnUse" r="1" xlink:href="#B"/><g filter="url(#a)"><path d="m6.78404 12.051.35864-.5761c1.39893-2.24682 4.30642-3.01426 6.63202-1.75046l2.8801 1.56516-4.306 7.081-1.4143-3.5413-4.31751 7.5194c-.70264 1.2265-2.27265 1.6415-3.48951.9223l-.11651-.0689c-1.21393-.7174-1.60907-2.2876-.87934-3.4942l3.62031-5.9862-.00562-.004.28082-.451.58277-.9636c.05359-.0886.11181-.1726.17413-.2521z" fill="url(#e)"/><path d="m6.78404 12.051.35864-.5761c1.39893-2.24682 4.30642-3.01426 6.63202-1.75046l2.8801 1.56516-4.306 7.081-1.4143-3.5413-4.31751 7.5194c-.70264 1.2265-2.27265 1.6415-3.48951.9223l-.11651-.0689c-1.21393-.7174-1.60907-2.2876-.87934-3.4942l3.62031-5.9862-.00562-.004.28082-.451.58277-.9636c.05359-.0886.11181-.1726.17413-.2521z" fill="url(#f)"/></g><path d="m15.1729 27.1165-.671-1.7247 1.3522-1.9856h14.0298v4.5787c0 1.1045-.8954 2-2 2h-8.5172c-1.8557 0-3.521-1.1391-4.1938-2.8684z" fill="url(#g)"/><path d="m15.1729 27.1165-.671-1.7247 1.3522-1.9856h14.0298v4.5787c0 1.1045-.8954 2-2 2h-8.5172c-1.8557 0-3.521-1.1391-4.1938-2.8684z" fill="url(#h)"/><rect fill="url(#i)" height="6.985" rx="2.416" width="4.832" x="9.933" y="22.892"/><rect fill="url(#j)" height="6.985" rx="2.416" width="4.832" x="9.933" y="22.892"/><rect fill="url(#k)" height="6.985" rx="2.416" width="4.832" x="9.933" y="22.892"/><path d="m18.1402 2.26631c.1376-.23986.4439-.32239.6835-.18419l2.9637 1.70973c.2387.13768.321.4425.184.68159l-13.54195 23.64506c-.04926.086-.12296.1554-.21174.1994l-3.17581 1.5749c-.16143.0801-.29744.0006-.30624-.1793l-.22609-3.5416c-.00467-.0955.01815-.1904.06576-.2733z" fill="url(#l)"/><path d="m18.1402 2.26631c.1376-.23986.4439-.32239.6835-.18419l2.9637 1.70973c.2387.13768.321.4425.184.68159l-13.54195 23.64506c-.04926.086-.12296.1554-.21174.1994l-3.17581 1.5749c-.16143.0801-.29744.0006-.30624-.1793l-.22609-3.5416c-.00467-.0955.01815-.1904.06576-.2733z" fill="url(#m)"/><g filter="url(#b)"><path d="m17.2412 8.38184-9.05126 15.93716" stroke="#ff7150" stroke-linecap="round"/></g><g filter="url(#c)"><path d="m9.93275 22.0306c-1.25073.8744-1.6532 2.6336-.83728 3.9233.83594 1.3213 2.67363 1.709 4.00503.8893l3.5294-2.1729c.4343-.2674 1.0035-.1267 1.2632.3123 1.3596 2.2981 3.932 3.595 6.588 3.3216l3.832-.3945c.8924-.0918 1.5708-.8436 1.5708-1.7408v-7.1303c0-1.1316-.6927-2.1486-1.7372-2.5842-2.227-.9288-6.2818-2.6891-10.2951-4.7855l-4.7409 8.2803z" fill="url(#n)"/><path d="m9.93275 22.0306c-1.25073.8744-1.6532 2.6336-.83728 3.9233.83594 1.3213 2.67363 1.709 4.00503.8893l3.5294-2.1729c.4343-.2674 1.0035-.1267 1.2632.3123 1.3596 2.2981 3.932 3.595 6.588 3.3216l3.832-.3945c.8924-.0918 1.5708-.8436 1.5708-1.7408v-7.1303c0-1.1316-.6927-2.1486-1.7372-2.5842-2.227-.9288-6.2818-2.6891-10.2951-4.7855l-4.7409 8.2803z" fill="url(#o)"/><path d="m9.93275 22.0306c-1.25073.8744-1.6532 2.6336-.83728 3.9233.83594 1.3213 2.67363 1.709 4.00503.8893l3.5294-2.1729c.4343-.2674 1.0035-.1267 1.2632.3123 1.3596 2.2981 3.932 3.595 6.588 3.3216l3.832-.3945c.8924-.0918 1.5708-.8436 1.5708-1.7408v-7.1303c0-1.1316-.6927-2.1486-1.7372-2.5842-2.227-.9288-6.2818-2.6891-10.2951-4.7855l-4.7409 8.2803z" fill="url(#p)"/><path d="m9.93275 22.0306c-1.25073.8744-1.6532 2.6336-.83728 3.9233.83594 1.3213 2.67363 1.709 4.00503.8893l3.5294-2.1729c.4343-.2674 1.0035-.1267 1.2632.3123 1.3596 2.2981 3.932 3.595 6.588 3.3216l3.832-.3945c.8924-.0918 1.5708-.8436 1.5708-1.7408v-7.1303c0-1.1316-.6927-2.1486-1.7372-2.5842-2.227-.9288-6.2818-2.6891-10.2951-4.7855l-4.7409 8.2803z" fill="url(#q)"/></g><path d="m9.93275 22.0306c-1.25073.8744-1.6532 2.6336-.83728 3.9233.83594 1.3213 2.67363 1.709 4.00503.8893l3.5294-2.1729c.4343-.2674 1.0035-.1267 1.2632.3123 1.3596 2.2981 3.932 3.595 6.588 3.3216l3.832-.3945c.8924-.0918 1.5708-.8436 1.5708-1.7408v-7.1303c0-1.1316-.6927-2.1486-1.7372-2.5842-2.227-.9288-6.2818-2.6891-10.2951-4.7855l-4.7409 8.2803z" fill="url(#s)"/><path d="m9.93275 22.0306c-1.25073.8744-1.6532 2.6336-.83728 3.9233.83594 1.3213 2.67363 1.709 4.00503.8893l3.5294-2.1729c.4343-.2674 1.0035-.1267 1.2632.3123 1.3596 2.2981 3.932 3.595 6.588 3.3216l3.832-.3945c.8924-.0918 1.5708-.8436 1.5708-1.7408v-7.1303c0-1.1316-.6927-2.1486-1.7372-2.5842-2.227-.9288-6.2818-2.6891-10.2951-4.7855l-4.7409 8.2803z" fill="url(#t)"/><path d="m12.4671 20.3426.5302-.3531.0828-.0295-.6116.3841z" fill="url(#u)"/><path d="m16.9251 13.2871-3.807 6.6491 1.7574-1.1036c1.0414-.6541 2.2795-.9217 3.4981-.7563l2.4318.3301z" fill="url(#u)"/><path d="m16 5.99486 1.0727-1.86876 3.8235 2.22478-1.0708 1.8698z" fill="url(#v)"/><path d="m16 5.99486 1.0727-1.86876 3.8235 2.22478-1.0708 1.8698z" fill="url(#w)"/><path d="m8.3864 28.1819c-.04541.0569-.1029.1035-.1687.1361l-3.17584 1.5749c-.16138.0801-.29743.0006-.30621-.1793l-.22608-3.5416c-.00281-.0573.00427-.1144.02069-.1688z" fill="url(#x)"/><path d="m8.3864 28.1819c-.04541.0569-.1029.1035-.1687.1361l-3.17584 1.5749c-.16138.0801-.29743.0006-.30621-.1793l-.22608-3.5416c-.00281-.0573.00427-.1144.02069-.1688z" fill="url(#y)"/><path d="m8.3864 28.1819c-.04541.0569-.1029.1035-.1687.1361l-3.17584 1.5749c-.16138.0801-.29743.0006-.30621-.1793l-.22608-3.5416c-.00281-.0573.00427-.1144.02069-.1688z" fill="url(#z)"/><path d="m5.85901 29.4877-.81714.4052c-.16138.0801-.29742.0006-.30621-.1793l-.05793-.907z" fill="url(#A)"/><g filter="url(#d)"><path d="m17.8178 20.6204-5.6315 3.0416c-.3633.1962-.474.6656-.2364 1.0034.2019.2872.5873.3769.8953.2083l4.9216-2.6941c.5781-.3165 1.2751-.3278 1.8632-.0303l8.9987 4.5523v-6.4416h-9.3852c-.4978 0-.9877.1239-1.4257.3604z" fill="#ffef64"/></g><path d="m13.1181 19.9363 1.7574-1.1036c1.0414-.6541 2.2795-.9217 3.4981-.7563l1.4682.1993-1.9387 6.7237-.01-.0167c-.2597-.439-.8289-.5797-1.2632-.3123l-3.5294 2.1729c-1.3314.8197-3.16909.432-4.00503-.8894-.81592-1.2896-.41345-3.0488.83728-3.9232l3.17795-2.0815z" fill="url(#C)"/><path d="m13.1181 19.9363 1.7574-1.1036c1.0414-.6541 2.2795-.9217 3.4981-.7563l1.4682.1993-1.9387 6.7237-.01-.0167c-.2597-.439-.8289-.5797-1.2632-.3123l-3.5294 2.1729c-1.3314.8197-3.16909.432-4.00503-.8894-.81592-1.2896-.41345-3.0488.83728-3.9232l3.17795-2.0815z" fill="url(#D)"/></svg>